<?xml version="1.0" encoding="utf-8" standalone="no"?>
<!DOCTYPE svg PUBLIC "-//W3C//DTD SVG 1.1//EN"
  "http://www.w3.org/Graphics/SVG/1.1/DTD/svg11.dtd">
<svg xmlns:xlink="http://www.w3.org/1999/xlink" width="676.85125pt" height="391.52407pt" viewBox="0 0 676.85125 391.52407" xmlns="http://www.w3.org/2000/svg" version="1.1">
 <metadata>
  <rdf:RDF xmlns:dc="http://purl.org/dc/elements/1.1/" xmlns:cc="http://creativecommons.org/ns#" xmlns:rdf="http://www.w3.org/1999/02/22-rdf-syntax-ns#">
   <cc:Work>
    <dc:type rdf:resource="http://purl.org/dc/dcmitype/StillImage"/>
    <dc:date>2026-06-23T21:36:00.909891</dc:date>
    <dc:format>image/svg+xml</dc:format>
    <dc:creator>
     <cc:Agent>
      <dc:title>Matplotlib v3.10.1, https://matplotlib.org/</dc:title>
     </cc:Agent>
    </dc:creator>
   </cc:Work>
  </rdf:RDF>
 </metadata>
 <defs>
  <style type="text/css">*{stroke-linejoin: round; stroke-linecap: butt}</style>
 </defs>
 <g id="figure_1">
  <g id="patch_1">
   <path d="M 0 391.52407 
L 676.85125 391.52407 
L 676.85125 0 
L 0 0 
z
" style="fill: #ffffff"/>
  </g>
  <g id="axes_1">
   <g id="patch_2">
    <path d="M 43.81125 338.606376 
L 218.51125 338.606376 
L 218.51125 34.56 
L 43.81125 34.56 
z
" style="fill: #ffffff"/>
   </g>
   <g id="matplotlib.axis_1">
    <g id="xtick_1">
     <g id="line2d_1">
      <path d="M 131.16125 338.606376 
L 131.16125 34.56 
" clip-path="url(#p0027907889)" style="fill: none; stroke: #b0b0b0; stroke-opacity: 0.2; stroke-width: 0.6; stroke-linecap: square"/>
     </g>
     <g id="line2d_2">
      <defs>
       <path id="m4b3e5d68a7" d="M 0 0 
L 0 3.5 
" style="stroke: #000000; stroke-width: 0.8"/>
      </defs>
      <g>
       <use xlink:href="#m4b3e5d68a7" x="131.16125" y="338.606376" style="stroke: #000000; stroke-width: 0.8"/>
      </g>
     </g>
     <g id="text_1">
      <!-- Pitch variability -->
      <g transform="translate(48.645671 375.631189) rotate(-15) scale(0.11 -0.11)">
       <defs>
        <path id="DejaVuSans-50" d="M 1259 4147 
L 1259 2394 
L 2053 2394 
Q 2494 2394 2734 2622 
Q 2975 2850 2975 3272 
Q 2975 3691 2734 3919 
Q 2494 4147 2053 4147 
L 1259 4147 
z
M 628 4666 
L 2053 4666 
Q 2838 4666 3239 4311 
Q 3641 3956 3641 3272 
Q 3641 2581 3239 2228 
Q 2838 1875 2053 1875 
L 1259 1875 
L 1259 0 
L 628 0 
L 628 4666 
z
" transform="scale(0.015625)"/>
        <path id="DejaVuSans-69" d="M 603 3500 
L 1178 3500 
L 1178 0 
L 603 0 
L 603 3500 
z
M 603 4863 
L 1178 4863 
L 1178 4134 
L 603 4134 
L 603 4863 
z
" transform="scale(0.015625)"/>
        <path id="DejaVuSans-74" d="M 1172 4494 
L 1172 3500 
L 2356 3500 
L 2356 3053 
L 1172 3053 
L 1172 1153 
Q 1172 725 1289 603 
Q 1406 481 1766 481 
L 2356 481 
L 2356 0 
L 1766 0 
Q 1100 0 847 248 
Q 594 497 594 1153 
L 594 3053 
L 172 3053 
L 172 3500 
L 594 3500 
L 594 4494 
L 1172 4494 
z
" transform="scale(0.015625)"/>
        <path id="DejaVuSans-63" d="M 3122 3366 
L 3122 2828 
Q 2878 2963 2633 3030 
Q 2388 3097 2138 3097 
Q 1578 3097 1268 2742 
Q 959 2388 959 1747 
Q 959 1106 1268 751 
Q 1578 397 2138 397 
Q 2388 397 2633 464 
Q 2878 531 3122 666 
L 3122 134 
Q 2881 22 2623 -34 
Q 2366 -91 2075 -91 
Q 1284 -91 818 406 
Q 353 903 353 1747 
Q 353 2603 823 3093 
Q 1294 3584 2113 3584 
Q 2378 3584 2631 3529 
Q 2884 3475 3122 3366 
z
" transform="scale(0.015625)"/>
        <path id="DejaVuSans-68" d="M 3513 2113 
L 3513 0 
L 2938 0 
L 2938 2094 
Q 2938 2591 2744 2837 
Q 2550 3084 2163 3084 
Q 1697 3084 1428 2787 
Q 1159 2491 1159 1978 
L 1159 0 
L 581 0 
L 581 4863 
L 1159 4863 
L 1159 2956 
Q 1366 3272 1645 3428 
Q 1925 3584 2291 3584 
Q 2894 3584 3203 3211 
Q 3513 2838 3513 2113 
z
" transform="scale(0.015625)"/>
        <path id="DejaVuSans-20" transform="scale(0.015625)"/>
        <path id="DejaVuSans-76" d="M 191 3500 
L 800 3500 
L 1894 563 
L 2988 3500 
L 3597 3500 
L 2284 0 
L 1503 0 
L 191 3500 
z
" transform="scale(0.015625)"/>
        <path id="DejaVuSans-61" d="M 2194 1759 
Q 1497 1759 1228 1600 
Q 959 1441 959 1056 
Q 959 750 1161 570 
Q 1363 391 1709 391 
Q 2188 391 2477 730 
Q 2766 1069 2766 1631 
L 2766 1759 
L 2194 1759 
z
M 3341 1997 
L 3341 0 
L 2766 0 
L 2766 531 
Q 2569 213 2275 61 
Q 1981 -91 1556 -91 
Q 1019 -91 701 211 
Q 384 513 384 1019 
Q 384 1609 779 1909 
Q 1175 2209 1959 2209 
L 2766 2209 
L 2766 2266 
Q 2766 2663 2505 2880 
Q 2244 3097 1772 3097 
Q 1472 3097 1187 3025 
Q 903 2953 641 2809 
L 641 3341 
Q 956 3463 1253 3523 
Q 1550 3584 1831 3584 
Q 2591 3584 2966 3190 
Q 3341 2797 3341 1997 
z
" transform="scale(0.015625)"/>
        <path id="DejaVuSans-72" d="M 2631 2963 
Q 2534 3019 2420 3045 
Q 2306 3072 2169 3072 
Q 1681 3072 1420 2755 
Q 1159 2438 1159 1844 
L 1159 0 
L 581 0 
L 581 3500 
L 1159 3500 
L 1159 2956 
Q 1341 3275 1631 3429 
Q 1922 3584 2338 3584 
Q 2397 3584 2469 3576 
Q 2541 3569 2628 3553 
L 2631 2963 
z
" transform="scale(0.015625)"/>
        <path id="DejaVuSans-62" d="M 3116 1747 
Q 3116 2381 2855 2742 
Q 2594 3103 2138 3103 
Q 1681 3103 1420 2742 
Q 1159 2381 1159 1747 
Q 1159 1113 1420 752 
Q 1681 391 2138 391 
Q 2594 391 2855 752 
Q 3116 1113 3116 1747 
z
M 1159 2969 
Q 1341 3281 1617 3432 
Q 1894 3584 2278 3584 
Q 2916 3584 3314 3078 
Q 3713 2572 3713 1747 
Q 3713 922 3314 415 
Q 2916 -91 2278 -91 
Q 1894 -91 1617 61 
Q 1341 213 1159 525 
L 1159 0 
L 581 0 
L 581 4863 
L 1159 4863 
L 1159 2969 
z
" transform="scale(0.015625)"/>
        <path id="DejaVuSans-6c" d="M 603 4863 
L 1178 4863 
L 1178 0 
L 603 0 
L 603 4863 
z
" transform="scale(0.015625)"/>
        <path id="DejaVuSans-79" d="M 2059 -325 
Q 1816 -950 1584 -1140 
Q 1353 -1331 966 -1331 
L 506 -1331 
L 506 -850 
L 844 -850 
Q 1081 -850 1212 -737 
Q 1344 -625 1503 -206 
L 1606 56 
L 191 3500 
L 800 3500 
L 1894 763 
L 2988 3500 
L 3597 3500 
L 2059 -325 
z
" transform="scale(0.015625)"/>
       </defs>
       <use xlink:href="#DejaVuSans-50"/>
       <use xlink:href="#DejaVuSans-69" transform="translate(58.052734 0)"/>
       <use xlink:href="#DejaVuSans-74" transform="translate(85.835938 0)"/>
       <use xlink:href="#DejaVuSans-63" transform="translate(125.044922 0)"/>
       <use xlink:href="#DejaVuSans-68" transform="translate(180.025391 0)"/>
       <use xlink:href="#DejaVuSans-20" transform="translate(243.404297 0)"/>
       <use xlink:href="#DejaVuSans-76" transform="translate(275.191406 0)"/>
       <use xlink:href="#DejaVuSans-61" transform="translate(334.371094 0)"/>
       <use xlink:href="#DejaVuSans-72" transform="translate(395.650391 0)"/>
       <use xlink:href="#DejaVuSans-69" transform="translate(436.763672 0)"/>
       <use xlink:href="#DejaVuSans-61" transform="translate(464.546875 0)"/>
       <use xlink:href="#DejaVuSans-62" transform="translate(525.826172 0)"/>
       <use xlink:href="#DejaVuSans-69" transform="translate(589.302734 0)"/>
       <use xlink:href="#DejaVuSans-6c" transform="translate(617.085938 0)"/>
       <use xlink:href="#DejaVuSans-69" transform="translate(644.869141 0)"/>
       <use xlink:href="#DejaVuSans-74" transform="translate(672.652344 0)"/>
       <use xlink:href="#DejaVuSans-79" transform="translate(711.861328 0)"/>
      </g>
     </g>
    </g>
   </g>
   <g id="matplotlib.axis_2">
    <g id="ytick_1">
     <g id="line2d_3">
      <path d="M 43.81125 302.895126 
L 218.51125 302.895126 
" clip-path="url(#p0027907889)" style="fill: none; stroke: #b0b0b0; stroke-opacity: 0.2; stroke-width: 0.6; stroke-linecap: square"/>
     </g>
     <g id="line2d_4">
      <defs>
       <path id="mf026be586a" d="M 0 0 
L -3.5 0 
" style="stroke: #000000; stroke-width: 0.8"/>
      </defs>
      <g>
       <use xlink:href="#mf026be586a" x="43.81125" y="302.895126" style="stroke: #000000; stroke-width: 0.8"/>
      </g>
     </g>
     <g id="text_2">
      <!-- 5 -->
      <g transform="translate(29.8125 307.074267) scale(0.11 -0.11)">
       <defs>
        <path id="DejaVuSans-35" d="M 691 4666 
L 3169 4666 
L 3169 4134 
L 1269 4134 
L 1269 2991 
Q 1406 3038 1543 3061 
Q 1681 3084 1819 3084 
Q 2600 3084 3056 2656 
Q 3513 2228 3513 1497 
Q 3513 744 3044 326 
Q 2575 -91 1722 -91 
Q 1428 -91 1123 -41 
Q 819 9 494 109 
L 494 744 
Q 775 591 1075 516 
Q 1375 441 1709 441 
Q 2250 441 2565 725 
Q 2881 1009 2881 1497 
Q 2881 1984 2565 2268 
Q 2250 2553 1709 2553 
Q 1456 2553 1204 2497 
Q 953 2441 691 2322 
L 691 4666 
z
" transform="scale(0.015625)"/>
       </defs>
       <use xlink:href="#DejaVuSans-35"/>
      </g>
     </g>
    </g>
    <g id="ytick_2">
     <g id="line2d_5">
      <path d="M 43.81125 253.869622 
L 218.51125 253.869622 
" clip-path="url(#p0027907889)" style="fill: none; stroke: #b0b0b0; stroke-opacity: 0.2; stroke-width: 0.6; stroke-linecap: square"/>
     </g>
     <g id="line2d_6">
      <g>
       <use xlink:href="#mf026be586a" x="43.81125" y="253.869622" style="stroke: #000000; stroke-width: 0.8"/>
      </g>
     </g>
     <g id="text_3">
      <!-- 10 -->
      <g transform="translate(22.81375 258.048763) scale(0.11 -0.11)">
       <defs>
        <path id="DejaVuSans-31" d="M 794 531 
L 1825 531 
L 1825 4091 
L 703 3866 
L 703 4441 
L 1819 4666 
L 2450 4666 
L 2450 531 
L 3481 531 
L 3481 0 
L 794 0 
L 794 531 
z
" transform="scale(0.015625)"/>
        <path id="DejaVuSans-30" d="M 2034 4250 
Q 1547 4250 1301 3770 
Q 1056 3291 1056 2328 
Q 1056 1369 1301 889 
Q 1547 409 2034 409 
Q 2525 409 2770 889 
Q 3016 1369 3016 2328 
Q 3016 3291 2770 3770 
Q 2525 4250 2034 4250 
z
M 2034 4750 
Q 2819 4750 3233 4129 
Q 3647 3509 3647 2328 
Q 3647 1150 3233 529 
Q 2819 -91 2034 -91 
Q 1250 -91 836 529 
Q 422 1150 422 2328 
Q 422 3509 836 4129 
Q 1250 4750 2034 4750 
z
" transform="scale(0.015625)"/>
       </defs>
       <use xlink:href="#DejaVuSans-31"/>
       <use xlink:href="#DejaVuSans-30" transform="translate(63.623047 0)"/>
      </g>
     </g>
    </g>
    <g id="ytick_3">
     <g id="line2d_7">
      <path d="M 43.81125 204.844118 
L 218.51125 204.844118 
" clip-path="url(#p0027907889)" style="fill: none; stroke: #b0b0b0; stroke-opacity: 0.2; stroke-width: 0.6; stroke-linecap: square"/>
     </g>
     <g id="line2d_8">
      <g>
       <use xlink:href="#mf026be586a" x="43.81125" y="204.844118" style="stroke: #000000; stroke-width: 0.8"/>
      </g>
     </g>
     <g id="text_4">
      <!-- 15 -->
      <g transform="translate(22.81375 209.023258) scale(0.11 -0.11)">
       <use xlink:href="#DejaVuSans-31"/>
       <use xlink:href="#DejaVuSans-35" transform="translate(63.623047 0)"/>
      </g>
     </g>
    </g>
    <g id="ytick_4">
     <g id="line2d_9">
      <path d="M 43.81125 155.818614 
L 218.51125 155.818614 
" clip-path="url(#p0027907889)" style="fill: none; stroke: #b0b0b0; stroke-opacity: 0.2; stroke-width: 0.6; stroke-linecap: square"/>
     </g>
     <g id="line2d_10">
      <g>
       <use xlink:href="#mf026be586a" x="43.81125" y="155.818614" style="stroke: #000000; stroke-width: 0.8"/>
      </g>
     </g>
     <g id="text_5">
      <!-- 20 -->
      <g transform="translate(22.81375 159.997754) scale(0.11 -0.11)">
       <defs>
        <path id="DejaVuSans-32" d="M 1228 531 
L 3431 531 
L 3431 0 
L 469 0 
L 469 531 
Q 828 903 1448 1529 
Q 2069 2156 2228 2338 
Q 2531 2678 2651 2914 
Q 2772 3150 2772 3378 
Q 2772 3750 2511 3984 
Q 2250 4219 1831 4219 
Q 1534 4219 1204 4116 
Q 875 4013 500 3803 
L 500 4441 
Q 881 4594 1212 4672 
Q 1544 4750 1819 4750 
Q 2544 4750 2975 4387 
Q 3406 4025 3406 3419 
Q 3406 3131 3298 2873 
Q 3191 2616 2906 2266 
Q 2828 2175 2409 1742 
Q 1991 1309 1228 531 
z
" transform="scale(0.015625)"/>
       </defs>
       <use xlink:href="#DejaVuSans-32"/>
       <use xlink:href="#DejaVuSans-30" transform="translate(63.623047 0)"/>
      </g>
     </g>
    </g>
    <g id="ytick_5">
     <g id="line2d_11">
      <path d="M 43.81125 106.793109 
L 218.51125 106.793109 
" clip-path="url(#p0027907889)" style="fill: none; stroke: #b0b0b0; stroke-opacity: 0.2; stroke-width: 0.6; stroke-linecap: square"/>
     </g>
     <g id="line2d_12">
      <g>
       <use xlink:href="#mf026be586a" x="43.81125" y="106.793109" style="stroke: #000000; stroke-width: 0.8"/>
      </g>
     </g>
     <g id="text_6">
      <!-- 25 -->
      <g transform="translate(22.81375 110.97225) scale(0.11 -0.11)">
       <use xlink:href="#DejaVuSans-32"/>
       <use xlink:href="#DejaVuSans-35" transform="translate(63.623047 0)"/>
      </g>
     </g>
    </g>
    <g id="ytick_6">
     <g id="line2d_13">
      <path d="M 43.81125 57.767605 
L 218.51125 57.767605 
" clip-path="url(#p0027907889)" style="fill: none; stroke: #b0b0b0; stroke-opacity: 0.2; stroke-width: 0.6; stroke-linecap: square"/>
     </g>
     <g id="line2d_14">
      <g>
       <use xlink:href="#mf026be586a" x="43.81125" y="57.767605" style="stroke: #000000; stroke-width: 0.8"/>
      </g>
     </g>
     <g id="text_7">
      <!-- 30 -->
      <g transform="translate(22.81375 61.946746) scale(0.11 -0.11)">
       <defs>
        <path id="DejaVuSans-33" d="M 2597 2516 
Q 3050 2419 3304 2112 
Q 3559 1806 3559 1356 
Q 3559 666 3084 287 
Q 2609 -91 1734 -91 
Q 1441 -91 1130 -33 
Q 819 25 488 141 
L 488 750 
Q 750 597 1062 519 
Q 1375 441 1716 441 
Q 2309 441 2620 675 
Q 2931 909 2931 1356 
Q 2931 1769 2642 2001 
Q 2353 2234 1838 2234 
L 1294 2234 
L 1294 2753 
L 1863 2753 
Q 2328 2753 2575 2939 
Q 2822 3125 2822 3475 
Q 2822 3834 2567 4026 
Q 2313 4219 1838 4219 
Q 1578 4219 1281 4162 
Q 984 4106 628 3988 
L 628 4550 
Q 988 4650 1302 4700 
Q 1616 4750 1894 4750 
Q 2613 4750 3031 4423 
Q 3450 4097 3450 3541 
Q 3450 3153 3228 2886 
Q 3006 2619 2597 2516 
z
" transform="scale(0.015625)"/>
       </defs>
       <use xlink:href="#DejaVuSans-33"/>
       <use xlink:href="#DejaVuSans-30" transform="translate(63.623047 0)"/>
      </g>
     </g>
    </g>
    <g id="text_8">
     <!-- semitones -->
     <g transform="translate(16.318125 217.555376) rotate(-90) scale(0.12 -0.12)">
      <defs>
       <path id="DejaVuSans-73" d="M 2834 3397 
L 2834 2853 
Q 2591 2978 2328 3040 
Q 2066 3103 1784 3103 
Q 1356 3103 1142 2972 
Q 928 2841 928 2578 
Q 928 2378 1081 2264 
Q 1234 2150 1697 2047 
L 1894 2003 
Q 2506 1872 2764 1633 
Q 3022 1394 3022 966 
Q 3022 478 2636 193 
Q 2250 -91 1575 -91 
Q 1294 -91 989 -36 
Q 684 19 347 128 
L 347 722 
Q 666 556 975 473 
Q 1284 391 1588 391 
Q 1994 391 2212 530 
Q 2431 669 2431 922 
Q 2431 1156 2273 1281 
Q 2116 1406 1581 1522 
L 1381 1569 
Q 847 1681 609 1914 
Q 372 2147 372 2553 
Q 372 3047 722 3315 
Q 1072 3584 1716 3584 
Q 2034 3584 2315 3537 
Q 2597 3491 2834 3397 
z
" transform="scale(0.015625)"/>
       <path id="DejaVuSans-65" d="M 3597 1894 
L 3597 1613 
L 953 1613 
Q 991 1019 1311 708 
Q 1631 397 2203 397 
Q 2534 397 2845 478 
Q 3156 559 3463 722 
L 3463 178 
Q 3153 47 2828 -22 
Q 2503 -91 2169 -91 
Q 1331 -91 842 396 
Q 353 884 353 1716 
Q 353 2575 817 3079 
Q 1281 3584 2069 3584 
Q 2775 3584 3186 3129 
Q 3597 2675 3597 1894 
z
M 3022 2063 
Q 3016 2534 2758 2815 
Q 2500 3097 2075 3097 
Q 1594 3097 1305 2825 
Q 1016 2553 972 2059 
L 3022 2063 
z
" transform="scale(0.015625)"/>
       <path id="DejaVuSans-6d" d="M 3328 2828 
Q 3544 3216 3844 3400 
Q 4144 3584 4550 3584 
Q 5097 3584 5394 3201 
Q 5691 2819 5691 2113 
L 5691 0 
L 5113 0 
L 5113 2094 
Q 5113 2597 4934 2840 
Q 4756 3084 4391 3084 
Q 3944 3084 3684 2787 
Q 3425 2491 3425 1978 
L 3425 0 
L 2847 0 
L 2847 2094 
Q 2847 2600 2669 2842 
Q 2491 3084 2119 3084 
Q 1678 3084 1418 2786 
Q 1159 2488 1159 1978 
L 1159 0 
L 581 0 
L 581 3500 
L 1159 3500 
L 1159 2956 
Q 1356 3278 1631 3431 
Q 1906 3584 2284 3584 
Q 2666 3584 2933 3390 
Q 3200 3197 3328 2828 
z
" transform="scale(0.015625)"/>
       <path id="DejaVuSans-6f" d="M 1959 3097 
Q 1497 3097 1228 2736 
Q 959 2375 959 1747 
Q 959 1119 1226 758 
Q 1494 397 1959 397 
Q 2419 397 2687 759 
Q 2956 1122 2956 1747 
Q 2956 2369 2687 2733 
Q 2419 3097 1959 3097 
z
M 1959 3584 
Q 2709 3584 3137 3096 
Q 3566 2609 3566 1747 
Q 3566 888 3137 398 
Q 2709 -91 1959 -91 
Q 1206 -91 779 398 
Q 353 888 353 1747 
Q 353 2609 779 3096 
Q 1206 3584 1959 3584 
z
" transform="scale(0.015625)"/>
       <path id="DejaVuSans-6e" d="M 3513 2113 
L 3513 0 
L 2938 0 
L 2938 2094 
Q 2938 2591 2744 2837 
Q 2550 3084 2163 3084 
Q 1697 3084 1428 2787 
Q 1159 2491 1159 1978 
L 1159 0 
L 581 0 
L 581 3500 
L 1159 3500 
L 1159 2956 
Q 1366 3272 1645 3428 
Q 1925 3584 2291 3584 
Q 2894 3584 3203 3211 
Q 3513 2838 3513 2113 
z
" transform="scale(0.015625)"/>
      </defs>
      <use xlink:href="#DejaVuSans-73"/>
      <use xlink:href="#DejaVuSans-65" transform="translate(52.099609 0)"/>
      <use xlink:href="#DejaVuSans-6d" transform="translate(113.623047 0)"/>
      <use xlink:href="#DejaVuSans-69" transform="translate(211.035156 0)"/>
      <use xlink:href="#DejaVuSans-74" transform="translate(238.818359 0)"/>
      <use xlink:href="#DejaVuSans-6f" transform="translate(278.027344 0)"/>
      <use xlink:href="#DejaVuSans-6e" transform="translate(339.208984 0)"/>
      <use xlink:href="#DejaVuSans-65" transform="translate(402.587891 0)"/>
      <use xlink:href="#DejaVuSans-73" transform="translate(464.111328 0)"/>
     </g>
    </g>
   </g>
   <g id="FillBetweenPolyCollection_1">
    <defs>
     <path id="m31cc96dc89" d="M 181.506189 -66.737983 
L 80.816311 -66.737983 
L 76.742896 -69.529961 
L 72.793337 -72.321939 
L 69.033138 -75.113916 
L 65.525626 -77.905894 
L 62.329582 -80.697872 
L 59.496956 -83.48985 
L 57.070813 -86.281827 
L 55.083643 -89.073805 
L 53.556136 -91.865783 
L 52.496533 -94.657761 
L 51.900587 -97.449738 
L 51.752159 -100.241716 
L 52.024416 -103.033694 
L 52.681546 -105.825672 
L 53.680879 -108.617649 
L 54.975282 -111.409627 
L 56.515639 -114.201605 
L 58.253273 -116.993583 
L 60.14214 -119.78556 
L 62.140655 -122.577538 
L 64.213068 -125.369516 
L 66.3303 -128.161493 
L 68.470259 -130.953471 
L 70.61763 -133.745449 
L 72.763225 -136.537427 
L 74.902991 -139.329404 
L 77.036777 -142.121382 
L 79.167006 -144.91336 
L 81.29735 -147.705338 
L 83.43153 -150.497315 
L 85.572321 -153.289293 
L 87.720817 -156.081271 
L 89.875979 -158.873249 
L 92.03447 -161.665226 
L 94.190752 -164.457204 
L 96.33739 -167.249182 
L 98.465506 -170.04116 
L 100.565334 -172.833137 
L 102.62678 -175.625115 
L 104.639973 -178.417093 
L 106.595724 -181.209071 
L 108.485886 -184.001048 
L 110.303595 -186.793026 
L 112.043386 -189.585004 
L 113.701195 -192.376982 
L 115.274279 -195.168959 
L 116.761062 -197.960937 
L 118.160946 -200.752915 
L 119.474113 -203.544893 
L 120.70134 -206.33687 
L 121.843838 -209.128848 
L 122.90313 -211.920826 
L 123.88098 -214.712804 
L 124.779352 -217.504781 
L 125.600409 -220.296759 
L 126.346531 -223.088737 
L 127.020348 -225.880714 
L 127.62477 -228.672692 
L 128.163009 -231.46467 
L 128.638582 -234.256648 
L 129.055295 -237.048625 
L 129.4172 -239.840603 
L 129.728537 -242.632581 
L 129.993652 -245.424559 
L 130.216902 -248.216536 
L 130.402563 -251.008514 
L 130.554725 -253.800492 
L 130.677201 -256.59247 
L 130.773442 -259.384447 
L 130.846468 -262.176425 
L 130.898811 -264.968403 
L 130.932484 -267.760381 
L 130.948959 -270.552358 
L 130.949175 -273.344336 
L 130.933559 -276.136314 
L 130.902074 -278.928292 
L 130.85428 -281.720269 
L 130.789427 -284.512247 
L 130.706557 -287.304225 
L 130.604633 -290.096203 
L 130.482681 -292.88818 
L 130.339941 -295.680158 
L 130.176028 -298.472136 
L 129.991087 -301.264114 
L 129.785941 -304.056091 
L 129.562202 -306.848069 
L 129.322371 -309.640047 
L 129.069867 -312.432025 
L 128.809025 -315.224002 
L 128.545021 -318.01598 
L 128.283739 -320.807958 
L 128.031582 -323.599936 
L 127.795223 -326.391913 
L 127.58133 -329.183891 
L 127.39625 -331.975869 
L 127.245706 -334.767846 
L 127.134503 -337.559824 
L 127.06627 -340.351802 
L 127.04327 -343.14378 
L 135.27923 -343.14378 
L 135.27923 -343.14378 
L 135.25623 -340.351802 
L 135.187997 -337.559824 
L 135.076794 -334.767846 
L 134.92625 -331.975869 
L 134.74117 -329.183891 
L 134.527277 -326.391913 
L 134.290918 -323.599936 
L 134.038761 -320.807958 
L 133.777479 -318.01598 
L 133.513475 -315.224002 
L 133.252633 -312.432025 
L 133.000129 -309.640047 
L 132.760298 -306.848069 
L 132.536559 -304.056091 
L 132.331413 -301.264114 
L 132.146472 -298.472136 
L 131.982559 -295.680158 
L 131.839819 -292.88818 
L 131.717867 -290.096203 
L 131.615943 -287.304225 
L 131.533073 -284.512247 
L 131.46822 -281.720269 
L 131.420426 -278.928292 
L 131.388941 -276.136314 
L 131.373325 -273.344336 
L 131.373541 -270.552358 
L 131.390016 -267.760381 
L 131.423689 -264.968403 
L 131.476032 -262.176425 
L 131.549058 -259.384447 
L 131.645299 -256.59247 
L 131.767775 -253.800492 
L 131.919937 -251.008514 
L 132.105598 -248.216536 
L 132.328848 -245.424559 
L 132.593963 -242.632581 
L 132.9053 -239.840603 
L 133.267205 -237.048625 
L 133.683918 -234.256648 
L 134.159491 -231.46467 
L 134.69773 -228.672692 
L 135.302152 -225.880714 
L 135.975969 -223.088737 
L 136.722091 -220.296759 
L 137.543148 -217.504781 
L 138.44152 -214.712804 
L 139.41937 -211.920826 
L 140.478662 -209.128848 
L 141.62116 -206.33687 
L 142.848387 -203.544893 
L 144.161554 -200.752915 
L 145.561438 -197.960937 
L 147.048221 -195.168959 
L 148.621305 -192.376982 
L 150.279114 -189.585004 
L 152.018905 -186.793026 
L 153.836614 -184.001048 
L 155.726776 -181.209071 
L 157.682527 -178.417093 
L 159.69572 -175.625115 
L 161.757166 -172.833137 
L 163.856994 -170.04116 
L 165.98511 -167.249182 
L 168.131748 -164.457204 
L 170.28803 -161.665226 
L 172.446521 -158.873249 
L 174.601683 -156.081271 
L 176.750179 -153.289293 
L 178.89097 -150.497315 
L 181.02515 -147.705338 
L 183.155494 -144.91336 
L 185.285723 -142.121382 
L 187.419509 -139.329404 
L 189.559275 -136.537427 
L 191.70487 -133.745449 
L 193.852241 -130.953471 
L 195.9922 -128.161493 
L 198.109432 -125.369516 
L 200.181845 -122.577538 
L 202.18036 -119.78556 
L 204.069227 -116.993583 
L 205.806861 -114.201605 
L 207.347218 -111.409627 
L 208.641621 -108.617649 
L 209.640954 -105.825672 
L 210.298084 -103.033694 
L 210.570341 -100.241716 
L 210.421913 -97.449738 
L 209.825967 -94.657761 
L 208.766364 -91.865783 
L 207.238857 -89.073805 
L 205.251687 -86.281827 
L 202.825544 -83.48985 
L 199.992918 -80.697872 
L 196.796874 -77.905894 
L 193.289362 -75.113916 
L 189.529163 -72.321939 
L 185.579604 -69.529961 
L 181.506189 -66.737983 
z
" style="stroke: #0f766e; stroke-opacity: 0.35"/>
    </defs>
    <g clip-path="url(#p0027907889)">
     <use xlink:href="#m31cc96dc89" x="0" y="391.52407" style="fill: #0f766e; fill-opacity: 0.35; stroke: #0f766e; stroke-opacity: 0.35"/>
    </g>
   </g>
   <g id="LineCollection_1">
    <path d="M 91.456705 286.598225 
L 170.865795 286.598225 
" clip-path="url(#p0027907889)" style="fill: none; stroke: #0f766e; stroke-width: 1.5"/>
   </g>
   <g id="patch_3">
    <path d="M 43.81125 338.606376 
L 43.81125 34.56 
" style="fill: none; stroke: #000000; stroke-width: 0.8; stroke-linejoin: miter; stroke-linecap: square"/>
   </g>
   <g id="patch_4">
    <path d="M 218.51125 338.606376 
L 218.51125 34.56 
" style="fill: none; stroke: #000000; stroke-width: 0.8; stroke-linejoin: miter; stroke-linecap: square"/>
   </g>
   <g id="patch_5">
    <path d="M 43.81125 338.606376 
L 218.51125 338.606376 
" style="fill: none; stroke: #000000; stroke-width: 0.8; stroke-linejoin: miter; stroke-linecap: square"/>
   </g>
   <g id="patch_6">
    <path d="M 43.81125 34.56 
L 218.51125 34.56 
" style="fill: none; stroke: #000000; stroke-width: 0.8; stroke-linejoin: miter; stroke-linecap: square"/>
   </g>
   <g id="PathCollection_1">
    <defs>
     <path id="m04ee64b7ad" d="M -0 4.472136 
L 4.472136 0 
L 0 -4.472136 
L -4.472136 -0 
z
" style="stroke: #111827"/>
    </defs>
    <g clip-path="url(#p0027907889)">
     <use xlink:href="#m04ee64b7ad" x="131.16125" y="312.558224" style="fill: #111827; stroke: #111827"/>
    </g>
   </g>
  </g>
  <g id="axes_2">
   <g id="patch_7">
    <path d="M 269.38125 338.606376 
L 444.08125 338.606376 
L 444.08125 34.56 
L 269.38125 34.56 
z
" style="fill: #ffffff"/>
   </g>
   <g id="matplotlib.axis_3">
    <g id="xtick_2">
     <g id="line2d_15">
      <path d="M 356.73125 338.606376 
L 356.73125 34.56 
" clip-path="url(#p34e2b63029)" style="fill: none; stroke: #b0b0b0; stroke-opacity: 0.2; stroke-width: 0.6; stroke-linecap: square"/>
     </g>
     <g id="line2d_16">
      <g>
       <use xlink:href="#m4b3e5d68a7" x="356.73125" y="338.606376" style="stroke: #000000; stroke-width: 0.8"/>
      </g>
     </g>
     <g id="text_9">
      <!-- Loudness variability -->
      <g transform="translate(250.020135 382.114363) rotate(-15) scale(0.11 -0.11)">
       <defs>
        <path id="DejaVuSans-4c" d="M 628 4666 
L 1259 4666 
L 1259 531 
L 3531 531 
L 3531 0 
L 628 0 
L 628 4666 
z
" transform="scale(0.015625)"/>
        <path id="DejaVuSans-75" d="M 544 1381 
L 544 3500 
L 1119 3500 
L 1119 1403 
Q 1119 906 1312 657 
Q 1506 409 1894 409 
Q 2359 409 2629 706 
Q 2900 1003 2900 1516 
L 2900 3500 
L 3475 3500 
L 3475 0 
L 2900 0 
L 2900 538 
Q 2691 219 2414 64 
Q 2138 -91 1772 -91 
Q 1169 -91 856 284 
Q 544 659 544 1381 
z
M 1991 3584 
L 1991 3584 
z
" transform="scale(0.015625)"/>
        <path id="DejaVuSans-64" d="M 2906 2969 
L 2906 4863 
L 3481 4863 
L 3481 0 
L 2906 0 
L 2906 525 
Q 2725 213 2448 61 
Q 2172 -91 1784 -91 
Q 1150 -91 751 415 
Q 353 922 353 1747 
Q 353 2572 751 3078 
Q 1150 3584 1784 3584 
Q 2172 3584 2448 3432 
Q 2725 3281 2906 2969 
z
M 947 1747 
Q 947 1113 1208 752 
Q 1469 391 1925 391 
Q 2381 391 2643 752 
Q 2906 1113 2906 1747 
Q 2906 2381 2643 2742 
Q 2381 3103 1925 3103 
Q 1469 3103 1208 2742 
Q 947 2381 947 1747 
z
" transform="scale(0.015625)"/>
       </defs>
       <use xlink:href="#DejaVuSans-4c"/>
       <use xlink:href="#DejaVuSans-6f" transform="translate(53.962891 0)"/>
       <use xlink:href="#DejaVuSans-75" transform="translate(115.144531 0)"/>
       <use xlink:href="#DejaVuSans-64" transform="translate(178.523438 0)"/>
       <use xlink:href="#DejaVuSans-6e" transform="translate(242 0)"/>
       <use xlink:href="#DejaVuSans-65" transform="translate(305.378906 0)"/>
       <use xlink:href="#DejaVuSans-73" transform="translate(366.902344 0)"/>
       <use xlink:href="#DejaVuSans-73" transform="translate(419.001953 0)"/>
       <use xlink:href="#DejaVuSans-20" transform="translate(471.101562 0)"/>
       <use xlink:href="#DejaVuSans-76" transform="translate(502.888672 0)"/>
       <use xlink:href="#DejaVuSans-61" transform="translate(562.068359 0)"/>
       <use xlink:href="#DejaVuSans-72" transform="translate(623.347656 0)"/>
       <use xlink:href="#DejaVuSans-69" transform="translate(664.460938 0)"/>
       <use xlink:href="#DejaVuSans-61" transform="translate(692.244141 0)"/>
       <use xlink:href="#DejaVuSans-62" transform="translate(753.523438 0)"/>
       <use xlink:href="#DejaVuSans-69" transform="translate(817 0)"/>
       <use xlink:href="#DejaVuSans-6c" transform="translate(844.783203 0)"/>
       <use xlink:href="#DejaVuSans-69" transform="translate(872.566406 0)"/>
       <use xlink:href="#DejaVuSans-74" transform="translate(900.349609 0)"/>
       <use xlink:href="#DejaVuSans-79" transform="translate(939.558594 0)"/>
      </g>
     </g>
    </g>
   </g>
   <g id="matplotlib.axis_4">
    <g id="ytick_7">
     <g id="line2d_17">
      <path d="M 269.38125 307.589365 
L 444.08125 307.589365 
" clip-path="url(#p34e2b63029)" style="fill: none; stroke: #b0b0b0; stroke-opacity: 0.2; stroke-width: 0.6; stroke-linecap: square"/>
     </g>
     <g id="line2d_18">
      <g>
       <use xlink:href="#mf026be586a" x="269.38125" y="307.589365" style="stroke: #000000; stroke-width: 0.8"/>
      </g>
     </g>
     <g id="text_10">
      <!-- 0.8 -->
      <g transform="translate(244.887813 311.768505) scale(0.11 -0.11)">
       <defs>
        <path id="DejaVuSans-2e" d="M 684 794 
L 1344 794 
L 1344 0 
L 684 0 
L 684 794 
z
" transform="scale(0.015625)"/>
        <path id="DejaVuSans-38" d="M 2034 2216 
Q 1584 2216 1326 1975 
Q 1069 1734 1069 1313 
Q 1069 891 1326 650 
Q 1584 409 2034 409 
Q 2484 409 2743 651 
Q 3003 894 3003 1313 
Q 3003 1734 2745 1975 
Q 2488 2216 2034 2216 
z
M 1403 2484 
Q 997 2584 770 2862 
Q 544 3141 544 3541 
Q 544 4100 942 4425 
Q 1341 4750 2034 4750 
Q 2731 4750 3128 4425 
Q 3525 4100 3525 3541 
Q 3525 3141 3298 2862 
Q 3072 2584 2669 2484 
Q 3125 2378 3379 2068 
Q 3634 1759 3634 1313 
Q 3634 634 3220 271 
Q 2806 -91 2034 -91 
Q 1263 -91 848 271 
Q 434 634 434 1313 
Q 434 1759 690 2068 
Q 947 2378 1403 2484 
z
M 1172 3481 
Q 1172 3119 1398 2916 
Q 1625 2713 2034 2713 
Q 2441 2713 2670 2916 
Q 2900 3119 2900 3481 
Q 2900 3844 2670 4047 
Q 2441 4250 2034 4250 
Q 1625 4250 1398 4047 
Q 1172 3844 1172 3481 
z
" transform="scale(0.015625)"/>
       </defs>
       <use xlink:href="#DejaVuSans-30"/>
       <use xlink:href="#DejaVuSans-2e" transform="translate(63.623047 0)"/>
       <use xlink:href="#DejaVuSans-38" transform="translate(95.410156 0)"/>
      </g>
     </g>
    </g>
    <g id="ytick_8">
     <g id="line2d_19">
      <path d="M 269.38125 262.897771 
L 444.08125 262.897771 
" clip-path="url(#p34e2b63029)" style="fill: none; stroke: #b0b0b0; stroke-opacity: 0.2; stroke-width: 0.6; stroke-linecap: square"/>
     </g>
     <g id="line2d_20">
      <g>
       <use xlink:href="#mf026be586a" x="269.38125" y="262.897771" style="stroke: #000000; stroke-width: 0.8"/>
      </g>
     </g>
     <g id="text_11">
      <!-- 1.0 -->
      <g transform="translate(244.887813 267.076912) scale(0.11 -0.11)">
       <use xlink:href="#DejaVuSans-31"/>
       <use xlink:href="#DejaVuSans-2e" transform="translate(63.623047 0)"/>
       <use xlink:href="#DejaVuSans-30" transform="translate(95.410156 0)"/>
      </g>
     </g>
    </g>
    <g id="ytick_9">
     <g id="line2d_21">
      <path d="M 269.38125 218.206178 
L 444.08125 218.206178 
" clip-path="url(#p34e2b63029)" style="fill: none; stroke: #b0b0b0; stroke-opacity: 0.2; stroke-width: 0.6; stroke-linecap: square"/>
     </g>
     <g id="line2d_22">
      <g>
       <use xlink:href="#mf026be586a" x="269.38125" y="218.206178" style="stroke: #000000; stroke-width: 0.8"/>
      </g>
     </g>
     <g id="text_12">
      <!-- 1.2 -->
      <g transform="translate(244.887813 222.385318) scale(0.11 -0.11)">
       <use xlink:href="#DejaVuSans-31"/>
       <use xlink:href="#DejaVuSans-2e" transform="translate(63.623047 0)"/>
       <use xlink:href="#DejaVuSans-32" transform="translate(95.410156 0)"/>
      </g>
     </g>
    </g>
    <g id="ytick_10">
     <g id="line2d_23">
      <path d="M 269.38125 173.514584 
L 444.08125 173.514584 
" clip-path="url(#p34e2b63029)" style="fill: none; stroke: #b0b0b0; stroke-opacity: 0.2; stroke-width: 0.6; stroke-linecap: square"/>
     </g>
     <g id="line2d_24">
      <g>
       <use xlink:href="#mf026be586a" x="269.38125" y="173.514584" style="stroke: #000000; stroke-width: 0.8"/>
      </g>
     </g>
     <g id="text_13">
      <!-- 1.4 -->
      <g transform="translate(244.887813 177.693725) scale(0.11 -0.11)">
       <defs>
        <path id="DejaVuSans-34" d="M 2419 4116 
L 825 1625 
L 2419 1625 
L 2419 4116 
z
M 2253 4666 
L 3047 4666 
L 3047 1625 
L 3713 1625 
L 3713 1100 
L 3047 1100 
L 3047 0 
L 2419 0 
L 2419 1100 
L 313 1100 
L 313 1709 
L 2253 4666 
z
" transform="scale(0.015625)"/>
       </defs>
       <use xlink:href="#DejaVuSans-31"/>
       <use xlink:href="#DejaVuSans-2e" transform="translate(63.623047 0)"/>
       <use xlink:href="#DejaVuSans-34" transform="translate(95.410156 0)"/>
      </g>
     </g>
    </g>
    <g id="ytick_11">
     <g id="line2d_25">
      <path d="M 269.38125 128.822991 
L 444.08125 128.822991 
" clip-path="url(#p34e2b63029)" style="fill: none; stroke: #b0b0b0; stroke-opacity: 0.2; stroke-width: 0.6; stroke-linecap: square"/>
     </g>
     <g id="line2d_26">
      <g>
       <use xlink:href="#mf026be586a" x="269.38125" y="128.822991" style="stroke: #000000; stroke-width: 0.8"/>
      </g>
     </g>
     <g id="text_14">
      <!-- 1.6 -->
      <g transform="translate(244.887813 133.002131) scale(0.11 -0.11)">
       <defs>
        <path id="DejaVuSans-36" d="M 2113 2584 
Q 1688 2584 1439 2293 
Q 1191 2003 1191 1497 
Q 1191 994 1439 701 
Q 1688 409 2113 409 
Q 2538 409 2786 701 
Q 3034 994 3034 1497 
Q 3034 2003 2786 2293 
Q 2538 2584 2113 2584 
z
M 3366 4563 
L 3366 3988 
Q 3128 4100 2886 4159 
Q 2644 4219 2406 4219 
Q 1781 4219 1451 3797 
Q 1122 3375 1075 2522 
Q 1259 2794 1537 2939 
Q 1816 3084 2150 3084 
Q 2853 3084 3261 2657 
Q 3669 2231 3669 1497 
Q 3669 778 3244 343 
Q 2819 -91 2113 -91 
Q 1303 -91 875 529 
Q 447 1150 447 2328 
Q 447 3434 972 4092 
Q 1497 4750 2381 4750 
Q 2619 4750 2861 4703 
Q 3103 4656 3366 4563 
z
" transform="scale(0.015625)"/>
       </defs>
       <use xlink:href="#DejaVuSans-31"/>
       <use xlink:href="#DejaVuSans-2e" transform="translate(63.623047 0)"/>
       <use xlink:href="#DejaVuSans-36" transform="translate(95.410156 0)"/>
      </g>
     </g>
    </g>
    <g id="ytick_12">
     <g id="line2d_27">
      <path d="M 269.38125 84.131397 
L 444.08125 84.131397 
" clip-path="url(#p34e2b63029)" style="fill: none; stroke: #b0b0b0; stroke-opacity: 0.2; stroke-width: 0.6; stroke-linecap: square"/>
     </g>
     <g id="line2d_28">
      <g>
       <use xlink:href="#mf026be586a" x="269.38125" y="84.131397" style="stroke: #000000; stroke-width: 0.8"/>
      </g>
     </g>
     <g id="text_15">
      <!-- 1.8 -->
      <g transform="translate(244.887813 88.310538) scale(0.11 -0.11)">
       <use xlink:href="#DejaVuSans-31"/>
       <use xlink:href="#DejaVuSans-2e" transform="translate(63.623047 0)"/>
       <use xlink:href="#DejaVuSans-38" transform="translate(95.410156 0)"/>
      </g>
     </g>
    </g>
    <g id="ytick_13">
     <g id="line2d_29">
      <path d="M 269.38125 39.439804 
L 444.08125 39.439804 
" clip-path="url(#p34e2b63029)" style="fill: none; stroke: #b0b0b0; stroke-opacity: 0.2; stroke-width: 0.6; stroke-linecap: square"/>
     </g>
     <g id="line2d_30">
      <g>
       <use xlink:href="#mf026be586a" x="269.38125" y="39.439804" style="stroke: #000000; stroke-width: 0.8"/>
      </g>
     </g>
     <g id="text_16">
      <!-- 2.0 -->
      <g transform="translate(244.887813 43.618944) scale(0.11 -0.11)">
       <use xlink:href="#DejaVuSans-32"/>
       <use xlink:href="#DejaVuSans-2e" transform="translate(63.623047 0)"/>
       <use xlink:href="#DejaVuSans-30" transform="translate(95.410156 0)"/>
      </g>
     </g>
    </g>
    <g id="text_17">
     <!-- normalized SD -->
     <g transform="translate(238.392188 230.259438) rotate(-90) scale(0.12 -0.12)">
      <defs>
       <path id="DejaVuSans-7a" d="M 353 3500 
L 3084 3500 
L 3084 2975 
L 922 459 
L 3084 459 
L 3084 0 
L 275 0 
L 275 525 
L 2438 3041 
L 353 3041 
L 353 3500 
z
" transform="scale(0.015625)"/>
       <path id="DejaVuSans-53" d="M 3425 4513 
L 3425 3897 
Q 3066 4069 2747 4153 
Q 2428 4238 2131 4238 
Q 1616 4238 1336 4038 
Q 1056 3838 1056 3469 
Q 1056 3159 1242 3001 
Q 1428 2844 1947 2747 
L 2328 2669 
Q 3034 2534 3370 2195 
Q 3706 1856 3706 1288 
Q 3706 609 3251 259 
Q 2797 -91 1919 -91 
Q 1588 -91 1214 -16 
Q 841 59 441 206 
L 441 856 
Q 825 641 1194 531 
Q 1563 422 1919 422 
Q 2459 422 2753 634 
Q 3047 847 3047 1241 
Q 3047 1584 2836 1778 
Q 2625 1972 2144 2069 
L 1759 2144 
Q 1053 2284 737 2584 
Q 422 2884 422 3419 
Q 422 4038 858 4394 
Q 1294 4750 2059 4750 
Q 2388 4750 2728 4690 
Q 3069 4631 3425 4513 
z
" transform="scale(0.015625)"/>
       <path id="DejaVuSans-44" d="M 1259 4147 
L 1259 519 
L 2022 519 
Q 2988 519 3436 956 
Q 3884 1394 3884 2338 
Q 3884 3275 3436 3711 
Q 2988 4147 2022 4147 
L 1259 4147 
z
M 628 4666 
L 1925 4666 
Q 3281 4666 3915 4102 
Q 4550 3538 4550 2338 
Q 4550 1131 3912 565 
Q 3275 0 1925 0 
L 628 0 
L 628 4666 
z
" transform="scale(0.015625)"/>
      </defs>
      <use xlink:href="#DejaVuSans-6e"/>
      <use xlink:href="#DejaVuSans-6f" transform="translate(63.378906 0)"/>
      <use xlink:href="#DejaVuSans-72" transform="translate(124.560547 0)"/>
      <use xlink:href="#DejaVuSans-6d" transform="translate(163.923828 0)"/>
      <use xlink:href="#DejaVuSans-61" transform="translate(261.335938 0)"/>
      <use xlink:href="#DejaVuSans-6c" transform="translate(322.615234 0)"/>
      <use xlink:href="#DejaVuSans-69" transform="translate(350.398438 0)"/>
      <use xlink:href="#DejaVuSans-7a" transform="translate(378.181641 0)"/>
      <use xlink:href="#DejaVuSans-65" transform="translate(430.671875 0)"/>
      <use xlink:href="#DejaVuSans-64" transform="translate(492.195312 0)"/>
      <use xlink:href="#DejaVuSans-20" transform="translate(555.671875 0)"/>
      <use xlink:href="#DejaVuSans-53" transform="translate(587.458984 0)"/>
      <use xlink:href="#DejaVuSans-44" transform="translate(650.935547 0)"/>
     </g>
    </g>
   </g>
   <g id="FillBetweenPolyCollection_2">
    <defs>
     <path id="mfac3db8dcb" d="M 398.556969 -66.737983 
L 314.905531 -66.737983 
L 311.66428 -69.529961 
L 308.416615 -72.321939 
L 305.191156 -75.113916 
L 302.017402 -77.905894 
L 298.92525 -80.697872 
L 295.944483 -83.48985 
L 293.104243 -86.281827 
L 290.432492 -89.073805 
L 287.95549 -91.865783 
L 285.697269 -94.657761 
L 283.679155 -97.449738 
L 281.91932 -100.241716 
L 280.432393 -103.033694 
L 279.229139 -105.825672 
L 278.316221 -108.617649 
L 277.696053 -111.409627 
L 277.366744 -114.201605 
L 277.322159 -116.993583 
L 277.55208 -119.78556 
L 278.042467 -122.577538 
L 278.775826 -125.369516 
L 279.731651 -128.161493 
L 280.886957 -130.953471 
L 282.216851 -133.745449 
L 283.695157 -136.537427 
L 285.295049 -139.329404 
L 286.989686 -142.121382 
L 288.752828 -144.91336 
L 290.559407 -147.705338 
L 292.386047 -150.497315 
L 294.211516 -153.289293 
L 296.017101 -156.081271 
L 297.786894 -158.873249 
L 299.507996 -161.665226 
L 301.170623 -164.457204 
L 302.76813 -167.249182 
L 304.296948 -170.04116 
L 305.756431 -172.833137 
L 307.148645 -175.625115 
L 308.478076 -178.417093 
L 309.751287 -181.209071 
L 310.976538 -184.001048 
L 312.163358 -186.793026 
L 313.322107 -189.585004 
L 314.463535 -192.376982 
L 315.598339 -195.168959 
L 316.736755 -197.960937 
L 317.88818 -200.752915 
L 319.060842 -203.544893 
L 320.261534 -206.33687 
L 321.495406 -209.128848 
L 322.765832 -211.920826 
L 324.07435 -214.712804 
L 325.420665 -217.504781 
L 326.802718 -220.296759 
L 328.216819 -223.088737 
L 329.657812 -225.880714 
L 331.119292 -228.672692 
L 332.593838 -231.46467 
L 334.073256 -234.256648 
L 335.548837 -237.048625 
L 337.011599 -239.840603 
L 338.452515 -242.632581 
L 339.862725 -245.424559 
L 341.23372 -248.216536 
L 342.557499 -251.008514 
L 343.826698 -253.800492 
L 345.03469 -256.59247 
L 346.175659 -259.384447 
L 347.244646 -262.176425 
L 348.237578 -264.968403 
L 349.151274 -267.760381 
L 349.983437 -270.552358 
L 350.732633 -273.344336 
L 351.398265 -276.136314 
L 351.980542 -278.928292 
L 352.480438 -281.720269 
L 352.899663 -284.512247 
L 353.240631 -287.304225 
L 353.50643 -290.096203 
L 353.700795 -292.88818 
L 353.828086 -295.680158 
L 353.893266 -298.472136 
L 353.901872 -301.264114 
L 353.859983 -304.056091 
L 353.774177 -306.848069 
L 353.651472 -309.640047 
L 353.499255 -312.432025 
L 353.325183 -315.224002 
L 353.137071 -318.01598 
L 352.942752 -320.807958 
L 352.749931 -323.599936 
L 352.566015 -326.391913 
L 352.397941 -329.183891 
L 352.252005 -331.975869 
L 352.133699 -334.767846 
L 352.047569 -337.559824 
L 351.997091 -340.351802 
L 351.984597 -343.14378 
L 361.477903 -343.14378 
L 361.477903 -343.14378 
L 361.465409 -340.351802 
L 361.414931 -337.559824 
L 361.328801 -334.767846 
L 361.210495 -331.975869 
L 361.064559 -329.183891 
L 360.896485 -326.391913 
L 360.712569 -323.599936 
L 360.519748 -320.807958 
L 360.325429 -318.01598 
L 360.137317 -315.224002 
L 359.963245 -312.432025 
L 359.811028 -309.640047 
L 359.688323 -306.848069 
L 359.602517 -304.056091 
L 359.560628 -301.264114 
L 359.569234 -298.472136 
L 359.634414 -295.680158 
L 359.761705 -292.88818 
L 359.95607 -290.096203 
L 360.221869 -287.304225 
L 360.562837 -284.512247 
L 360.982062 -281.720269 
L 361.481958 -278.928292 
L 362.064235 -276.136314 
L 362.729867 -273.344336 
L 363.479063 -270.552358 
L 364.311226 -267.760381 
L 365.224922 -264.968403 
L 366.217854 -262.176425 
L 367.286841 -259.384447 
L 368.42781 -256.59247 
L 369.635802 -253.800492 
L 370.905001 -251.008514 
L 372.22878 -248.216536 
L 373.599775 -245.424559 
L 375.009985 -242.632581 
L 376.450901 -239.840603 
L 377.913663 -237.048625 
L 379.389244 -234.256648 
L 380.868662 -231.46467 
L 382.343208 -228.672692 
L 383.804688 -225.880714 
L 385.245681 -223.088737 
L 386.659782 -220.296759 
L 388.041835 -217.504781 
L 389.38815 -214.712804 
L 390.696668 -211.920826 
L 391.967094 -209.128848 
L 393.200966 -206.33687 
L 394.401658 -203.544893 
L 395.57432 -200.752915 
L 396.725745 -197.960937 
L 397.864161 -195.168959 
L 398.998965 -192.376982 
L 400.140393 -189.585004 
L 401.299142 -186.793026 
L 402.485962 -184.001048 
L 403.711213 -181.209071 
L 404.984424 -178.417093 
L 406.313855 -175.625115 
L 407.706069 -172.833137 
L 409.165552 -170.04116 
L 410.69437 -167.249182 
L 412.291877 -164.457204 
L 413.954504 -161.665226 
L 415.675606 -158.873249 
L 417.445399 -156.081271 
L 419.250984 -153.289293 
L 421.076453 -150.497315 
L 422.903093 -147.705338 
L 424.709672 -144.91336 
L 426.472814 -142.121382 
L 428.167451 -139.329404 
L 429.767343 -136.537427 
L 431.245649 -133.745449 
L 432.575543 -130.953471 
L 433.730849 -128.161493 
L 434.686674 -125.369516 
L 435.420033 -122.577538 
L 435.91042 -119.78556 
L 436.140341 -116.993583 
L 436.095756 -114.201605 
L 435.766447 -111.409627 
L 435.146279 -108.617649 
L 434.233361 -105.825672 
L 433.030107 -103.033694 
L 431.54318 -100.241716 
L 429.783345 -97.449738 
L 427.765231 -94.657761 
L 425.50701 -91.865783 
L 423.030008 -89.073805 
L 420.358257 -86.281827 
L 417.518017 -83.48985 
L 414.53725 -80.697872 
L 411.445098 -77.905894 
L 408.271344 -75.113916 
L 405.045885 -72.321939 
L 401.79822 -69.529961 
L 398.556969 -66.737983 
z
" style="stroke: #0f766e; stroke-opacity: 0.35"/>
    </defs>
    <g clip-path="url(#p34e2b63029)">
     <use xlink:href="#mfac3db8dcb" x="0" y="391.52407" style="fill: #0f766e; fill-opacity: 0.35; stroke: #0f766e; stroke-opacity: 0.35"/>
    </g>
   </g>
   <g id="LineCollection_2">
    <path d="M 317.026705 264.351348 
L 396.435795 264.351348 
" clip-path="url(#p34e2b63029)" style="fill: none; stroke: #0f766e; stroke-width: 1.5"/>
   </g>
   <g id="patch_8">
    <path d="M 269.38125 338.606376 
L 269.38125 34.56 
" style="fill: none; stroke: #000000; stroke-width: 0.8; stroke-linejoin: miter; stroke-linecap: square"/>
   </g>
   <g id="patch_9">
    <path d="M 444.08125 338.606376 
L 444.08125 34.56 
" style="fill: none; stroke: #000000; stroke-width: 0.8; stroke-linejoin: miter; stroke-linecap: square"/>
   </g>
   <g id="patch_10">
    <path d="M 269.38125 338.606376 
L 444.08125 338.606376 
" style="fill: none; stroke: #000000; stroke-width: 0.8; stroke-linejoin: miter; stroke-linecap: square"/>
   </g>
   <g id="patch_11">
    <path d="M 269.38125 34.56 
L 444.08125 34.56 
" style="fill: none; stroke: #000000; stroke-width: 0.8; stroke-linejoin: miter; stroke-linecap: square"/>
   </g>
   <g id="PathCollection_2">
    <g clip-path="url(#p34e2b63029)">
     <use xlink:href="#m04ee64b7ad" x="356.73125" y="192.399844" style="fill: #111827; stroke: #111827"/>
    </g>
   </g>
  </g>
  <g id="axes_3">
   <g id="patch_12">
    <path d="M 494.95125 338.606376 
L 669.65125 338.606376 
L 669.65125 34.56 
L 494.95125 34.56 
z
" style="fill: #ffffff"/>
   </g>
   <g id="matplotlib.axis_5">
    <g id="xtick_3">
     <g id="line2d_31">
      <path d="M 582.30125 338.606376 
L 582.30125 34.56 
" clip-path="url(#pbfeccd1b83)" style="fill: none; stroke: #b0b0b0; stroke-opacity: 0.2; stroke-width: 0.6; stroke-linecap: square"/>
     </g>
     <g id="line2d_32">
      <g>
       <use xlink:href="#m4b3e5d68a7" x="582.30125" y="338.606376" style="stroke: #000000; stroke-width: 0.8"/>
      </g>
     </g>
     <g id="text_18">
      <!-- Speech rate -->
      <g transform="translate(517.607757 370.855775) rotate(-15) scale(0.11 -0.11)">
       <defs>
        <path id="DejaVuSans-70" d="M 1159 525 
L 1159 -1331 
L 581 -1331 
L 581 3500 
L 1159 3500 
L 1159 2969 
Q 1341 3281 1617 3432 
Q 1894 3584 2278 3584 
Q 2916 3584 3314 3078 
Q 3713 2572 3713 1747 
Q 3713 922 3314 415 
Q 2916 -91 2278 -91 
Q 1894 -91 1617 61 
Q 1341 213 1159 525 
z
M 3116 1747 
Q 3116 2381 2855 2742 
Q 2594 3103 2138 3103 
Q 1681 3103 1420 2742 
Q 1159 2381 1159 1747 
Q 1159 1113 1420 752 
Q 1681 391 2138 391 
Q 2594 391 2855 752 
Q 3116 1113 3116 1747 
z
" transform="scale(0.015625)"/>
       </defs>
       <use xlink:href="#DejaVuSans-53"/>
       <use xlink:href="#DejaVuSans-70" transform="translate(63.476562 0)"/>
       <use xlink:href="#DejaVuSans-65" transform="translate(126.953125 0)"/>
       <use xlink:href="#DejaVuSans-65" transform="translate(188.476562 0)"/>
       <use xlink:href="#DejaVuSans-63" transform="translate(250 0)"/>
       <use xlink:href="#DejaVuSans-68" transform="translate(304.980469 0)"/>
       <use xlink:href="#DejaVuSans-20" transform="translate(368.359375 0)"/>
       <use xlink:href="#DejaVuSans-72" transform="translate(400.146484 0)"/>
       <use xlink:href="#DejaVuSans-61" transform="translate(441.259766 0)"/>
       <use xlink:href="#DejaVuSans-74" transform="translate(502.539062 0)"/>
       <use xlink:href="#DejaVuSans-65" transform="translate(541.748047 0)"/>
      </g>
     </g>
    </g>
   </g>
   <g id="matplotlib.axis_6">
    <g id="ytick_14">
     <g id="line2d_33">
      <path d="M 494.95125 274.921914 
L 669.65125 274.921914 
" clip-path="url(#pbfeccd1b83)" style="fill: none; stroke: #b0b0b0; stroke-opacity: 0.2; stroke-width: 0.6; stroke-linecap: square"/>
     </g>
     <g id="line2d_34">
      <g>
       <use xlink:href="#mf026be586a" x="494.95125" y="274.921914" style="stroke: #000000; stroke-width: 0.8"/>
      </g>
     </g>
     <g id="text_19">
      <!-- 1.0 -->
      <g transform="translate(470.457812 279.101055) scale(0.11 -0.11)">
       <use xlink:href="#DejaVuSans-31"/>
       <use xlink:href="#DejaVuSans-2e" transform="translate(63.623047 0)"/>
       <use xlink:href="#DejaVuSans-30" transform="translate(95.410156 0)"/>
      </g>
     </g>
    </g>
    <g id="ytick_15">
     <g id="line2d_35">
      <path d="M 494.95125 208.299535 
L 669.65125 208.299535 
" clip-path="url(#pbfeccd1b83)" style="fill: none; stroke: #b0b0b0; stroke-opacity: 0.2; stroke-width: 0.6; stroke-linecap: square"/>
     </g>
     <g id="line2d_36">
      <g>
       <use xlink:href="#mf026be586a" x="494.95125" y="208.299535" style="stroke: #000000; stroke-width: 0.8"/>
      </g>
     </g>
     <g id="text_20">
      <!-- 1.5 -->
      <g transform="translate(470.457812 212.478675) scale(0.11 -0.11)">
       <use xlink:href="#DejaVuSans-31"/>
       <use xlink:href="#DejaVuSans-2e" transform="translate(63.623047 0)"/>
       <use xlink:href="#DejaVuSans-35" transform="translate(95.410156 0)"/>
      </g>
     </g>
    </g>
    <g id="ytick_16">
     <g id="line2d_37">
      <path d="M 494.95125 141.677155 
L 669.65125 141.677155 
" clip-path="url(#pbfeccd1b83)" style="fill: none; stroke: #b0b0b0; stroke-opacity: 0.2; stroke-width: 0.6; stroke-linecap: square"/>
     </g>
     <g id="line2d_38">
      <g>
       <use xlink:href="#mf026be586a" x="494.95125" y="141.677155" style="stroke: #000000; stroke-width: 0.8"/>
      </g>
     </g>
     <g id="text_21">
      <!-- 2.0 -->
      <g transform="translate(470.457812 145.856296) scale(0.11 -0.11)">
       <use xlink:href="#DejaVuSans-32"/>
       <use xlink:href="#DejaVuSans-2e" transform="translate(63.623047 0)"/>
       <use xlink:href="#DejaVuSans-30" transform="translate(95.410156 0)"/>
      </g>
     </g>
    </g>
    <g id="ytick_17">
     <g id="line2d_39">
      <path d="M 494.95125 75.054776 
L 669.65125 75.054776 
" clip-path="url(#pbfeccd1b83)" style="fill: none; stroke: #b0b0b0; stroke-opacity: 0.2; stroke-width: 0.6; stroke-linecap: square"/>
     </g>
     <g id="line2d_40">
      <g>
       <use xlink:href="#mf026be586a" x="494.95125" y="75.054776" style="stroke: #000000; stroke-width: 0.8"/>
      </g>
     </g>
     <g id="text_22">
      <!-- 2.5 -->
      <g transform="translate(470.457812 79.233916) scale(0.11 -0.11)">
       <use xlink:href="#DejaVuSans-32"/>
       <use xlink:href="#DejaVuSans-2e" transform="translate(63.623047 0)"/>
       <use xlink:href="#DejaVuSans-35" transform="translate(95.410156 0)"/>
      </g>
     </g>
    </g>
    <g id="text_23">
     <!-- segments / second -->
     <g transform="translate(463.962187 243.260688) rotate(-90) scale(0.12 -0.12)">
      <defs>
       <path id="DejaVuSans-67" d="M 2906 1791 
Q 2906 2416 2648 2759 
Q 2391 3103 1925 3103 
Q 1463 3103 1205 2759 
Q 947 2416 947 1791 
Q 947 1169 1205 825 
Q 1463 481 1925 481 
Q 2391 481 2648 825 
Q 2906 1169 2906 1791 
z
M 3481 434 
Q 3481 -459 3084 -895 
Q 2688 -1331 1869 -1331 
Q 1566 -1331 1297 -1286 
Q 1028 -1241 775 -1147 
L 775 -588 
Q 1028 -725 1275 -790 
Q 1522 -856 1778 -856 
Q 2344 -856 2625 -561 
Q 2906 -266 2906 331 
L 2906 616 
Q 2728 306 2450 153 
Q 2172 0 1784 0 
Q 1141 0 747 490 
Q 353 981 353 1791 
Q 353 2603 747 3093 
Q 1141 3584 1784 3584 
Q 2172 3584 2450 3431 
Q 2728 3278 2906 2969 
L 2906 3500 
L 3481 3500 
L 3481 434 
z
" transform="scale(0.015625)"/>
       <path id="DejaVuSans-2f" d="M 1625 4666 
L 2156 4666 
L 531 -594 
L 0 -594 
L 1625 4666 
z
" transform="scale(0.015625)"/>
      </defs>
      <use xlink:href="#DejaVuSans-73"/>
      <use xlink:href="#DejaVuSans-65" transform="translate(52.099609 0)"/>
      <use xlink:href="#DejaVuSans-67" transform="translate(113.623047 0)"/>
      <use xlink:href="#DejaVuSans-6d" transform="translate(177.099609 0)"/>
      <use xlink:href="#DejaVuSans-65" transform="translate(274.511719 0)"/>
      <use xlink:href="#DejaVuSans-6e" transform="translate(336.035156 0)"/>
      <use xlink:href="#DejaVuSans-74" transform="translate(399.414062 0)"/>
      <use xlink:href="#DejaVuSans-73" transform="translate(438.623047 0)"/>
      <use xlink:href="#DejaVuSans-20" transform="translate(490.722656 0)"/>
      <use xlink:href="#DejaVuSans-2f" transform="translate(522.509766 0)"/>
      <use xlink:href="#DejaVuSans-20" transform="translate(556.201172 0)"/>
      <use xlink:href="#DejaVuSans-73" transform="translate(587.988281 0)"/>
      <use xlink:href="#DejaVuSans-65" transform="translate(640.087891 0)"/>
      <use xlink:href="#DejaVuSans-63" transform="translate(701.611328 0)"/>
      <use xlink:href="#DejaVuSans-6f" transform="translate(756.591797 0)"/>
      <use xlink:href="#DejaVuSans-6e" transform="translate(817.773438 0)"/>
      <use xlink:href="#DejaVuSans-64" transform="translate(881.152344 0)"/>
     </g>
    </g>
   </g>
   <g id="FillBetweenPolyCollection_3">
    <defs>
     <path id="mbb3a06c738" d="M 607.041885 -66.737983 
L 557.560615 -66.737983 
L 556.1989 -69.529961 
L 554.815288 -72.321939 
L 553.411388 -75.113916 
L 551.988884 -77.905894 
L 550.54958 -80.697872 
L 549.095452 -83.48985 
L 547.628696 -86.281827 
L 546.151767 -89.073805 
L 544.667408 -91.865783 
L 543.17867 -94.657761 
L 541.688912 -97.449738 
L 540.201785 -100.241716 
L 538.721197 -103.033694 
L 537.251265 -105.825672 
L 535.796239 -108.617649 
L 534.360421 -111.409627 
L 532.948066 -114.201605 
L 531.563273 -116.993583 
L 530.209878 -119.78556 
L 528.891334 -122.577538 
L 527.610614 -125.369516 
L 526.370105 -128.161493 
L 525.171533 -130.953471 
L 524.0159 -133.745449 
L 522.903444 -136.537427 
L 521.83363 -139.329404 
L 520.805168 -142.121382 
L 519.81606 -144.91336 
L 518.863678 -147.705338 
L 517.944869 -150.497315 
L 517.056089 -153.289293 
L 516.19355 -156.081271 
L 515.353396 -158.873249 
L 514.531879 -161.665226 
L 513.72555 -164.457204 
L 512.931434 -167.249182 
L 512.147214 -170.04116 
L 511.371385 -172.833137 
L 510.603392 -175.625115 
L 509.843743 -178.417093 
L 509.094087 -181.209071 
L 508.357254 -184.001048 
L 507.637265 -186.793026 
L 506.939297 -189.585004 
L 506.269608 -192.376982 
L 505.63543 -195.168959 
L 505.044826 -197.960937 
L 504.506514 -200.752915 
L 504.029669 -203.544893 
L 503.623705 -206.33687 
L 503.298041 -209.128848 
L 503.061867 -211.920826 
L 502.923901 -214.712804 
L 502.892159 -217.504781 
L 502.97374 -220.296759 
L 503.174623 -223.088737 
L 503.499493 -225.880714 
L 503.951595 -228.672692 
L 504.53262 -231.46467 
L 505.242625 -234.256648 
L 506.079989 -237.048625 
L 507.041411 -239.840603 
L 508.121936 -242.632581 
L 509.315031 -245.424559 
L 510.612682 -248.216536 
L 512.005534 -251.008514 
L 513.483053 -253.800492 
L 515.033722 -256.59247 
L 516.645251 -259.384447 
L 518.30481 -262.176425 
L 519.999268 -264.968403 
L 521.715448 -267.760381 
L 523.440374 -270.552358 
L 525.161522 -273.344336 
L 526.867055 -276.136314 
L 528.546046 -278.928292 
L 530.18868 -281.720269 
L 531.786432 -284.512247 
L 533.332208 -287.304225 
L 534.820463 -290.096203 
L 536.247271 -292.88818 
L 537.610361 -295.680158 
L 538.909115 -298.472136 
L 540.144514 -301.264114 
L 541.31906 -304.056091 
L 542.436642 -306.848069 
L 543.502386 -309.640047 
L 544.522459 -312.432025 
L 545.503854 -315.224002 
L 546.454163 -318.01598 
L 547.381324 -320.807958 
L 548.293377 -323.599936 
L 549.198213 -326.391913 
L 550.103338 -329.183891 
L 551.015655 -331.975869 
L 551.941264 -334.767846 
L 552.885302 -337.559824 
L 553.851802 -340.351802 
L 554.843604 -343.14378 
L 609.758896 -343.14378 
L 609.758896 -343.14378 
L 610.750698 -340.351802 
L 611.717198 -337.559824 
L 612.661236 -334.767846 
L 613.586845 -331.975869 
L 614.499162 -329.183891 
L 615.404287 -326.391913 
L 616.309123 -323.599936 
L 617.221176 -320.807958 
L 618.148337 -318.01598 
L 619.098646 -315.224002 
L 620.080041 -312.432025 
L 621.100114 -309.640047 
L 622.165858 -306.848069 
L 623.28344 -304.056091 
L 624.457986 -301.264114 
L 625.693385 -298.472136 
L 626.992139 -295.680158 
L 628.355229 -292.88818 
L 629.782037 -290.096203 
L 631.270292 -287.304225 
L 632.816068 -284.512247 
L 634.41382 -281.720269 
L 636.056454 -278.928292 
L 637.735445 -276.136314 
L 639.440978 -273.344336 
L 641.162126 -270.552358 
L 642.887052 -267.760381 
L 644.603232 -264.968403 
L 646.29769 -262.176425 
L 647.957249 -259.384447 
L 649.568778 -256.59247 
L 651.119447 -253.800492 
L 652.596966 -251.008514 
L 653.989818 -248.216536 
L 655.287469 -245.424559 
L 656.480564 -242.632581 
L 657.561089 -239.840603 
L 658.522511 -237.048625 
L 659.359875 -234.256648 
L 660.06988 -231.46467 
L 660.650905 -228.672692 
L 661.103007 -225.880714 
L 661.427877 -223.088737 
L 661.62876 -220.296759 
L 661.710341 -217.504781 
L 661.678599 -214.712804 
L 661.540633 -211.920826 
L 661.304459 -209.128848 
L 660.978795 -206.33687 
L 660.572831 -203.544893 
L 660.095986 -200.752915 
L 659.557674 -197.960937 
L 658.96707 -195.168959 
L 658.332892 -192.376982 
L 657.663203 -189.585004 
L 656.965235 -186.793026 
L 656.245246 -184.001048 
L 655.508413 -181.209071 
L 654.758757 -178.417093 
L 653.999108 -175.625115 
L 653.231115 -172.833137 
L 652.455286 -170.04116 
L 651.671066 -167.249182 
L 650.87695 -164.457204 
L 650.070621 -161.665226 
L 649.249104 -158.873249 
L 648.40895 -156.081271 
L 647.546411 -153.289293 
L 646.657631 -150.497315 
L 645.738822 -147.705338 
L 644.78644 -144.91336 
L 643.797332 -142.121382 
L 642.76887 -139.329404 
L 641.699056 -136.537427 
L 640.5866 -133.745449 
L 639.430967 -130.953471 
L 638.232395 -128.161493 
L 636.991886 -125.369516 
L 635.711166 -122.577538 
L 634.392622 -119.78556 
L 633.039227 -116.993583 
L 631.654434 -114.201605 
L 630.242079 -111.409627 
L 628.806261 -108.617649 
L 627.351235 -105.825672 
L 625.881303 -103.033694 
L 624.400715 -100.241716 
L 622.913588 -97.449738 
L 621.42383 -94.657761 
L 619.935092 -91.865783 
L 618.450733 -89.073805 
L 616.973804 -86.281827 
L 615.507048 -83.48985 
L 614.05292 -80.697872 
L 612.613616 -77.905894 
L 611.191112 -75.113916 
L 609.787212 -72.321939 
L 608.4036 -69.529961 
L 607.041885 -66.737983 
z
" style="stroke: #0f766e; stroke-opacity: 0.35"/>
    </defs>
    <g clip-path="url(#pbfeccd1b83)">
     <use xlink:href="#mbb3a06c738" x="0" y="391.52407" style="fill: #0f766e; fill-opacity: 0.35; stroke: #0f766e; stroke-opacity: 0.35"/>
    </g>
   </g>
   <g id="LineCollection_3">
    <path d="M 542.596705 179.549386 
L 622.005795 179.549386 
" clip-path="url(#pbfeccd1b83)" style="fill: none; stroke: #0f766e; stroke-width: 1.5"/>
   </g>
   <g id="patch_13">
    <path d="M 494.95125 338.606376 
L 494.95125 34.56 
" style="fill: none; stroke: #000000; stroke-width: 0.8; stroke-linejoin: miter; stroke-linecap: square"/>
   </g>
   <g id="patch_14">
    <path d="M 669.65125 338.606376 
L 669.65125 34.56 
" style="fill: none; stroke: #000000; stroke-width: 0.8; stroke-linejoin: miter; stroke-linecap: square"/>
   </g>
   <g id="patch_15">
    <path d="M 494.95125 338.606376 
L 669.65125 338.606376 
" style="fill: none; stroke: #000000; stroke-width: 0.8; stroke-linejoin: miter; stroke-linecap: square"/>
   </g>
   <g id="patch_16">
    <path d="M 494.95125 34.56 
L 669.65125 34.56 
" style="fill: none; stroke: #000000; stroke-width: 0.8; stroke-linejoin: miter; stroke-linecap: square"/>
   </g>
   <g id="PathCollection_3">
    <g clip-path="url(#pbfeccd1b83)">
     <use xlink:href="#m04ee64b7ad" x="582.30125" y="155.586211" style="fill: #111827; stroke: #111827"/>
    </g>
   </g>
   <g id="legend_1">
    <g id="patch_17">
     <path d="M 521.487578 181.545532 
L 543.487578 181.545532 
L 543.487578 173.845532 
L 521.487578 173.845532 
z
" style="fill: #0f766e; opacity: 0.35; stroke: #0f766e; stroke-linejoin: miter"/>
    </g>
    <g id="text_24">
     <!-- Reference group -->
     <g transform="translate(552.287578 181.545532) scale(0.11 -0.11)">
      <defs>
       <path id="DejaVuSans-52" d="M 2841 2188 
Q 3044 2119 3236 1894 
Q 3428 1669 3622 1275 
L 4263 0 
L 3584 0 
L 2988 1197 
Q 2756 1666 2539 1819 
Q 2322 1972 1947 1972 
L 1259 1972 
L 1259 0 
L 628 0 
L 628 4666 
L 2053 4666 
Q 2853 4666 3247 4331 
Q 3641 3997 3641 3322 
Q 3641 2881 3436 2590 
Q 3231 2300 2841 2188 
z
M 1259 4147 
L 1259 2491 
L 2053 2491 
Q 2509 2491 2742 2702 
Q 2975 2913 2975 3322 
Q 2975 3731 2742 3939 
Q 2509 4147 2053 4147 
L 1259 4147 
z
" transform="scale(0.015625)"/>
       <path id="DejaVuSans-66" d="M 2375 4863 
L 2375 4384 
L 1825 4384 
Q 1516 4384 1395 4259 
Q 1275 4134 1275 3809 
L 1275 3500 
L 2222 3500 
L 2222 3053 
L 1275 3053 
L 1275 0 
L 697 0 
L 697 3053 
L 147 3053 
L 147 3500 
L 697 3500 
L 697 3744 
Q 697 4328 969 4595 
Q 1241 4863 1831 4863 
L 2375 4863 
z
" transform="scale(0.015625)"/>
      </defs>
      <use xlink:href="#DejaVuSans-52"/>
      <use xlink:href="#DejaVuSans-65" transform="translate(64.982422 0)"/>
      <use xlink:href="#DejaVuSans-66" transform="translate(126.505859 0)"/>
      <use xlink:href="#DejaVuSans-65" transform="translate(161.710938 0)"/>
      <use xlink:href="#DejaVuSans-72" transform="translate(223.234375 0)"/>
      <use xlink:href="#DejaVuSans-65" transform="translate(262.097656 0)"/>
      <use xlink:href="#DejaVuSans-6e" transform="translate(323.621094 0)"/>
      <use xlink:href="#DejaVuSans-63" transform="translate(387 0)"/>
      <use xlink:href="#DejaVuSans-65" transform="translate(441.980469 0)"/>
      <use xlink:href="#DejaVuSans-20" transform="translate(503.503906 0)"/>
      <use xlink:href="#DejaVuSans-67" transform="translate(535.291016 0)"/>
      <use xlink:href="#DejaVuSans-72" transform="translate(598.767578 0)"/>
      <use xlink:href="#DejaVuSans-6f" transform="translate(637.630859 0)"/>
      <use xlink:href="#DejaVuSans-75" transform="translate(698.8125 0)"/>
      <use xlink:href="#DejaVuSans-70" transform="translate(762.191406 0)"/>
     </g>
    </g>
    <g id="line2d_41">
     <defs>
      <path id="m3d711c246d" d="M -0 4.242641 
L 4.242641 0 
L 0 -4.242641 
L -4.242641 -0 
z
" style="stroke: #111827; stroke-linejoin: miter"/>
     </defs>
     <g>
      <use xlink:href="#m3d711c246d" x="532.487578" y="193.841469" style="fill: #111827; stroke: #111827; stroke-linejoin: miter"/>
     </g>
    </g>
    <g id="text_25">
     <!-- Patient -->
     <g transform="translate(552.287578 197.691469) scale(0.11 -0.11)">
      <use xlink:href="#DejaVuSans-50"/>
      <use xlink:href="#DejaVuSans-61" transform="translate(55.802734 0)"/>
      <use xlink:href="#DejaVuSans-74" transform="translate(117.082031 0)"/>
      <use xlink:href="#DejaVuSans-69" transform="translate(156.291016 0)"/>
      <use xlink:href="#DejaVuSans-65" transform="translate(184.074219 0)"/>
      <use xlink:href="#DejaVuSans-6e" transform="translate(245.597656 0)"/>
      <use xlink:href="#DejaVuSans-74" transform="translate(308.976562 0)"/>
     </g>
    </g>
   </g>
  </g>
  <g id="text_26">
   <!-- Control group (male) -->
   <g transform="translate(265.552813 17.837812) scale(0.14 -0.14)">
    <defs>
     <path id="DejaVuSans-43" d="M 4122 4306 
L 4122 3641 
Q 3803 3938 3442 4084 
Q 3081 4231 2675 4231 
Q 1875 4231 1450 3742 
Q 1025 3253 1025 2328 
Q 1025 1406 1450 917 
Q 1875 428 2675 428 
Q 3081 428 3442 575 
Q 3803 722 4122 1019 
L 4122 359 
Q 3791 134 3420 21 
Q 3050 -91 2638 -91 
Q 1578 -91 968 557 
Q 359 1206 359 2328 
Q 359 3453 968 4101 
Q 1578 4750 2638 4750 
Q 3056 4750 3426 4639 
Q 3797 4528 4122 4306 
z
" transform="scale(0.015625)"/>
     <path id="DejaVuSans-28" d="M 1984 4856 
Q 1566 4138 1362 3434 
Q 1159 2731 1159 2009 
Q 1159 1288 1364 580 
Q 1569 -128 1984 -844 
L 1484 -844 
Q 1016 -109 783 600 
Q 550 1309 550 2009 
Q 550 2706 781 3412 
Q 1013 4119 1484 4856 
L 1984 4856 
z
" transform="scale(0.015625)"/>
     <path id="DejaVuSans-29" d="M 513 4856 
L 1013 4856 
Q 1481 4119 1714 3412 
Q 1947 2706 1947 2009 
Q 1947 1309 1714 600 
Q 1481 -109 1013 -844 
L 513 -844 
Q 928 -128 1133 580 
Q 1338 1288 1338 2009 
Q 1338 2731 1133 3434 
Q 928 4138 513 4856 
z
" transform="scale(0.015625)"/>
    </defs>
    <use xlink:href="#DejaVuSans-43"/>
    <use xlink:href="#DejaVuSans-6f" transform="translate(69.824219 0)"/>
    <use xlink:href="#DejaVuSans-6e" transform="translate(131.005859 0)"/>
    <use xlink:href="#DejaVuSans-74" transform="translate(194.384766 0)"/>
    <use xlink:href="#DejaVuSans-72" transform="translate(233.59375 0)"/>
    <use xlink:href="#DejaVuSans-6f" transform="translate(272.457031 0)"/>
    <use xlink:href="#DejaVuSans-6c" transform="translate(333.638672 0)"/>
    <use xlink:href="#DejaVuSans-20" transform="translate(361.421875 0)"/>
    <use xlink:href="#DejaVuSans-67" transform="translate(393.208984 0)"/>
    <use xlink:href="#DejaVuSans-72" transform="translate(456.685547 0)"/>
    <use xlink:href="#DejaVuSans-6f" transform="translate(495.548828 0)"/>
    <use xlink:href="#DejaVuSans-75" transform="translate(556.730469 0)"/>
    <use xlink:href="#DejaVuSans-70" transform="translate(620.109375 0)"/>
    <use xlink:href="#DejaVuSans-20" transform="translate(683.585938 0)"/>
    <use xlink:href="#DejaVuSans-28" transform="translate(715.373047 0)"/>
    <use xlink:href="#DejaVuSans-6d" transform="translate(754.386719 0)"/>
    <use xlink:href="#DejaVuSans-61" transform="translate(851.798828 0)"/>
    <use xlink:href="#DejaVuSans-6c" transform="translate(913.078125 0)"/>
    <use xlink:href="#DejaVuSans-65" transform="translate(940.861328 0)"/>
    <use xlink:href="#DejaVuSans-29" transform="translate(1002.384766 0)"/>
   </g>
  </g>
 </g>
 <defs>
  <clipPath id="p0027907889">
   <rect x="43.81125" y="34.56" width="174.7" height="304.046376"/>
  </clipPath>
  <clipPath id="p34e2b63029">
   <rect x="269.38125" y="34.56" width="174.7" height="304.046376"/>
  </clipPath>
  <clipPath id="pbfeccd1b83">
   <rect x="494.95125" y="34.56" width="174.7" height="304.046376"/>
  </clipPath>
 </defs>
</svg>
