<?xml version="1.0" encoding="utf-8" standalone="no"?>
<!DOCTYPE svg PUBLIC "-//W3C//DTD SVG 1.1//EN"
  "http://www.w3.org/Graphics/SVG/1.1/DTD/svg11.dtd">
<svg xmlns:xlink="http://www.w3.org/1999/xlink" width="676.85125pt" height="391.52407pt" viewBox="0 0 676.85125 391.52407" xmlns="http://www.w3.org/2000/svg" version="1.1">
 <metadata>
  <rdf:RDF xmlns:dc="http://purl.org/dc/elements/1.1/" xmlns:cc="http://creativecommons.org/ns#" xmlns:rdf="http://www.w3.org/1999/02/22-rdf-syntax-ns#">
   <cc:Work>
    <dc:type rdf:resource="http://purl.org/dc/dcmitype/StillImage"/>
    <dc:date>2026-06-23T21:39:54.600975</dc:date>
    <dc:format>image/svg+xml</dc:format>
    <dc:creator>
     <cc:Agent>
      <dc:title>Matplotlib v3.10.1, https://matplotlib.org/</dc:title>
     </cc:Agent>
    </dc:creator>
   </cc:Work>
  </rdf:RDF>
 </metadata>
 <defs>
  <style type="text/css">*{stroke-linejoin: round; stroke-linecap: butt}</style>
 </defs>
 <g id="figure_1">
  <g id="patch_1">
   <path d="M 0 391.52407 
L 676.85125 391.52407 
L 676.85125 0 
L 0 0 
z
" style="fill: #ffffff"/>
  </g>
  <g id="axes_1">
   <g id="patch_2">
    <path d="M 43.81125 338.606376 
L 218.51125 338.606376 
L 218.51125 34.56 
L 43.81125 34.56 
z
" style="fill: #ffffff"/>
   </g>
   <g id="matplotlib.axis_1">
    <g id="xtick_1">
     <g id="line2d_1">
      <path d="M 131.16125 338.606376 
L 131.16125 34.56 
" clip-path="url(#p4281ec607c)" style="fill: none; stroke: #b0b0b0; stroke-opacity: 0.2; stroke-width: 0.6; stroke-linecap: square"/>
     </g>
     <g id="line2d_2">
      <defs>
       <path id="m423d7d6fd9" d="M 0 0 
L 0 3.5 
" style="stroke: #000000; stroke-width: 0.8"/>
      </defs>
      <g>
       <use xlink:href="#m423d7d6fd9" x="131.16125" y="338.606376" style="stroke: #000000; stroke-width: 0.8"/>
      </g>
     </g>
     <g id="text_1">
      <!-- Pitch variability -->
      <g transform="translate(48.645671 375.631189) rotate(-15) scale(0.11 -0.11)">
       <defs>
        <path id="DejaVuSans-50" d="M 1259 4147 
L 1259 2394 
L 2053 2394 
Q 2494 2394 2734 2622 
Q 2975 2850 2975 3272 
Q 2975 3691 2734 3919 
Q 2494 4147 2053 4147 
L 1259 4147 
z
M 628 4666 
L 2053 4666 
Q 2838 4666 3239 4311 
Q 3641 3956 3641 3272 
Q 3641 2581 3239 2228 
Q 2838 1875 2053 1875 
L 1259 1875 
L 1259 0 
L 628 0 
L 628 4666 
z
" transform="scale(0.015625)"/>
        <path id="DejaVuSans-69" d="M 603 3500 
L 1178 3500 
L 1178 0 
L 603 0 
L 603 3500 
z
M 603 4863 
L 1178 4863 
L 1178 4134 
L 603 4134 
L 603 4863 
z
" transform="scale(0.015625)"/>
        <path id="DejaVuSans-74" d="M 1172 4494 
L 1172 3500 
L 2356 3500 
L 2356 3053 
L 1172 3053 
L 1172 1153 
Q 1172 725 1289 603 
Q 1406 481 1766 481 
L 2356 481 
L 2356 0 
L 1766 0 
Q 1100 0 847 248 
Q 594 497 594 1153 
L 594 3053 
L 172 3053 
L 172 3500 
L 594 3500 
L 594 4494 
L 1172 4494 
z
" transform="scale(0.015625)"/>
        <path id="DejaVuSans-63" d="M 3122 3366 
L 3122 2828 
Q 2878 2963 2633 3030 
Q 2388 3097 2138 3097 
Q 1578 3097 1268 2742 
Q 959 2388 959 1747 
Q 959 1106 1268 751 
Q 1578 397 2138 397 
Q 2388 397 2633 464 
Q 2878 531 3122 666 
L 3122 134 
Q 2881 22 2623 -34 
Q 2366 -91 2075 -91 
Q 1284 -91 818 406 
Q 353 903 353 1747 
Q 353 2603 823 3093 
Q 1294 3584 2113 3584 
Q 2378 3584 2631 3529 
Q 2884 3475 3122 3366 
z
" transform="scale(0.015625)"/>
        <path id="DejaVuSans-68" d="M 3513 2113 
L 3513 0 
L 2938 0 
L 2938 2094 
Q 2938 2591 2744 2837 
Q 2550 3084 2163 3084 
Q 1697 3084 1428 2787 
Q 1159 2491 1159 1978 
L 1159 0 
L 581 0 
L 581 4863 
L 1159 4863 
L 1159 2956 
Q 1366 3272 1645 3428 
Q 1925 3584 2291 3584 
Q 2894 3584 3203 3211 
Q 3513 2838 3513 2113 
z
" transform="scale(0.015625)"/>
        <path id="DejaVuSans-20" transform="scale(0.015625)"/>
        <path id="DejaVuSans-76" d="M 191 3500 
L 800 3500 
L 1894 563 
L 2988 3500 
L 3597 3500 
L 2284 0 
L 1503 0 
L 191 3500 
z
" transform="scale(0.015625)"/>
        <path id="DejaVuSans-61" d="M 2194 1759 
Q 1497 1759 1228 1600 
Q 959 1441 959 1056 
Q 959 750 1161 570 
Q 1363 391 1709 391 
Q 2188 391 2477 730 
Q 2766 1069 2766 1631 
L 2766 1759 
L 2194 1759 
z
M 3341 1997 
L 3341 0 
L 2766 0 
L 2766 531 
Q 2569 213 2275 61 
Q 1981 -91 1556 -91 
Q 1019 -91 701 211 
Q 384 513 384 1019 
Q 384 1609 779 1909 
Q 1175 2209 1959 2209 
L 2766 2209 
L 2766 2266 
Q 2766 2663 2505 2880 
Q 2244 3097 1772 3097 
Q 1472 3097 1187 3025 
Q 903 2953 641 2809 
L 641 3341 
Q 956 3463 1253 3523 
Q 1550 3584 1831 3584 
Q 2591 3584 2966 3190 
Q 3341 2797 3341 1997 
z
" transform="scale(0.015625)"/>
        <path id="DejaVuSans-72" d="M 2631 2963 
Q 2534 3019 2420 3045 
Q 2306 3072 2169 3072 
Q 1681 3072 1420 2755 
Q 1159 2438 1159 1844 
L 1159 0 
L 581 0 
L 581 3500 
L 1159 3500 
L 1159 2956 
Q 1341 3275 1631 3429 
Q 1922 3584 2338 3584 
Q 2397 3584 2469 3576 
Q 2541 3569 2628 3553 
L 2631 2963 
z
" transform="scale(0.015625)"/>
        <path id="DejaVuSans-62" d="M 3116 1747 
Q 3116 2381 2855 2742 
Q 2594 3103 2138 3103 
Q 1681 3103 1420 2742 
Q 1159 2381 1159 1747 
Q 1159 1113 1420 752 
Q 1681 391 2138 391 
Q 2594 391 2855 752 
Q 3116 1113 3116 1747 
z
M 1159 2969 
Q 1341 3281 1617 3432 
Q 1894 3584 2278 3584 
Q 2916 3584 3314 3078 
Q 3713 2572 3713 1747 
Q 3713 922 3314 415 
Q 2916 -91 2278 -91 
Q 1894 -91 1617 61 
Q 1341 213 1159 525 
L 1159 0 
L 581 0 
L 581 4863 
L 1159 4863 
L 1159 2969 
z
" transform="scale(0.015625)"/>
        <path id="DejaVuSans-6c" d="M 603 4863 
L 1178 4863 
L 1178 0 
L 603 0 
L 603 4863 
z
" transform="scale(0.015625)"/>
        <path id="DejaVuSans-79" d="M 2059 -325 
Q 1816 -950 1584 -1140 
Q 1353 -1331 966 -1331 
L 506 -1331 
L 506 -850 
L 844 -850 
Q 1081 -850 1212 -737 
Q 1344 -625 1503 -206 
L 1606 56 
L 191 3500 
L 800 3500 
L 1894 763 
L 2988 3500 
L 3597 3500 
L 2059 -325 
z
" transform="scale(0.015625)"/>
       </defs>
       <use xlink:href="#DejaVuSans-50"/>
       <use xlink:href="#DejaVuSans-69" transform="translate(58.052734 0)"/>
       <use xlink:href="#DejaVuSans-74" transform="translate(85.835938 0)"/>
       <use xlink:href="#DejaVuSans-63" transform="translate(125.044922 0)"/>
       <use xlink:href="#DejaVuSans-68" transform="translate(180.025391 0)"/>
       <use xlink:href="#DejaVuSans-20" transform="translate(243.404297 0)"/>
       <use xlink:href="#DejaVuSans-76" transform="translate(275.191406 0)"/>
       <use xlink:href="#DejaVuSans-61" transform="translate(334.371094 0)"/>
       <use xlink:href="#DejaVuSans-72" transform="translate(395.650391 0)"/>
       <use xlink:href="#DejaVuSans-69" transform="translate(436.763672 0)"/>
       <use xlink:href="#DejaVuSans-61" transform="translate(464.546875 0)"/>
       <use xlink:href="#DejaVuSans-62" transform="translate(525.826172 0)"/>
       <use xlink:href="#DejaVuSans-69" transform="translate(589.302734 0)"/>
       <use xlink:href="#DejaVuSans-6c" transform="translate(617.085938 0)"/>
       <use xlink:href="#DejaVuSans-69" transform="translate(644.869141 0)"/>
       <use xlink:href="#DejaVuSans-74" transform="translate(672.652344 0)"/>
       <use xlink:href="#DejaVuSans-79" transform="translate(711.861328 0)"/>
      </g>
     </g>
    </g>
   </g>
   <g id="matplotlib.axis_2">
    <g id="ytick_1">
     <g id="line2d_3">
      <path d="M 43.81125 311.764575 
L 218.51125 311.764575 
" clip-path="url(#p4281ec607c)" style="fill: none; stroke: #b0b0b0; stroke-opacity: 0.2; stroke-width: 0.6; stroke-linecap: square"/>
     </g>
     <g id="line2d_4">
      <defs>
       <path id="m3a38e5bc47" d="M 0 0 
L -3.5 0 
" style="stroke: #000000; stroke-width: 0.8"/>
      </defs>
      <g>
       <use xlink:href="#m3a38e5bc47" x="43.81125" y="311.764575" style="stroke: #000000; stroke-width: 0.8"/>
      </g>
     </g>
     <g id="text_2">
      <!-- 5 -->
      <g transform="translate(29.8125 315.943716) scale(0.11 -0.11)">
       <defs>
        <path id="DejaVuSans-35" d="M 691 4666 
L 3169 4666 
L 3169 4134 
L 1269 4134 
L 1269 2991 
Q 1406 3038 1543 3061 
Q 1681 3084 1819 3084 
Q 2600 3084 3056 2656 
Q 3513 2228 3513 1497 
Q 3513 744 3044 326 
Q 2575 -91 1722 -91 
Q 1428 -91 1123 -41 
Q 819 9 494 109 
L 494 744 
Q 775 591 1075 516 
Q 1375 441 1709 441 
Q 2250 441 2565 725 
Q 2881 1009 2881 1497 
Q 2881 1984 2565 2268 
Q 2250 2553 1709 2553 
Q 1456 2553 1204 2497 
Q 953 2441 691 2322 
L 691 4666 
z
" transform="scale(0.015625)"/>
       </defs>
       <use xlink:href="#DejaVuSans-35"/>
      </g>
     </g>
    </g>
    <g id="ytick_2">
     <g id="line2d_5">
      <path d="M 43.81125 245.700237 
L 218.51125 245.700237 
" clip-path="url(#p4281ec607c)" style="fill: none; stroke: #b0b0b0; stroke-opacity: 0.2; stroke-width: 0.6; stroke-linecap: square"/>
     </g>
     <g id="line2d_6">
      <g>
       <use xlink:href="#m3a38e5bc47" x="43.81125" y="245.700237" style="stroke: #000000; stroke-width: 0.8"/>
      </g>
     </g>
     <g id="text_3">
      <!-- 10 -->
      <g transform="translate(22.81375 249.879378) scale(0.11 -0.11)">
       <defs>
        <path id="DejaVuSans-31" d="M 794 531 
L 1825 531 
L 1825 4091 
L 703 3866 
L 703 4441 
L 1819 4666 
L 2450 4666 
L 2450 531 
L 3481 531 
L 3481 0 
L 794 0 
L 794 531 
z
" transform="scale(0.015625)"/>
        <path id="DejaVuSans-30" d="M 2034 4250 
Q 1547 4250 1301 3770 
Q 1056 3291 1056 2328 
Q 1056 1369 1301 889 
Q 1547 409 2034 409 
Q 2525 409 2770 889 
Q 3016 1369 3016 2328 
Q 3016 3291 2770 3770 
Q 2525 4250 2034 4250 
z
M 2034 4750 
Q 2819 4750 3233 4129 
Q 3647 3509 3647 2328 
Q 3647 1150 3233 529 
Q 2819 -91 2034 -91 
Q 1250 -91 836 529 
Q 422 1150 422 2328 
Q 422 3509 836 4129 
Q 1250 4750 2034 4750 
z
" transform="scale(0.015625)"/>
       </defs>
       <use xlink:href="#DejaVuSans-31"/>
       <use xlink:href="#DejaVuSans-30" transform="translate(63.623047 0)"/>
      </g>
     </g>
    </g>
    <g id="ytick_3">
     <g id="line2d_7">
      <path d="M 43.81125 179.635899 
L 218.51125 179.635899 
" clip-path="url(#p4281ec607c)" style="fill: none; stroke: #b0b0b0; stroke-opacity: 0.2; stroke-width: 0.6; stroke-linecap: square"/>
     </g>
     <g id="line2d_8">
      <g>
       <use xlink:href="#m3a38e5bc47" x="43.81125" y="179.635899" style="stroke: #000000; stroke-width: 0.8"/>
      </g>
     </g>
     <g id="text_4">
      <!-- 15 -->
      <g transform="translate(22.81375 183.81504) scale(0.11 -0.11)">
       <use xlink:href="#DejaVuSans-31"/>
       <use xlink:href="#DejaVuSans-35" transform="translate(63.623047 0)"/>
      </g>
     </g>
    </g>
    <g id="ytick_4">
     <g id="line2d_9">
      <path d="M 43.81125 113.571561 
L 218.51125 113.571561 
" clip-path="url(#p4281ec607c)" style="fill: none; stroke: #b0b0b0; stroke-opacity: 0.2; stroke-width: 0.6; stroke-linecap: square"/>
     </g>
     <g id="line2d_10">
      <g>
       <use xlink:href="#m3a38e5bc47" x="43.81125" y="113.571561" style="stroke: #000000; stroke-width: 0.8"/>
      </g>
     </g>
     <g id="text_5">
      <!-- 20 -->
      <g transform="translate(22.81375 117.750702) scale(0.11 -0.11)">
       <defs>
        <path id="DejaVuSans-32" d="M 1228 531 
L 3431 531 
L 3431 0 
L 469 0 
L 469 531 
Q 828 903 1448 1529 
Q 2069 2156 2228 2338 
Q 2531 2678 2651 2914 
Q 2772 3150 2772 3378 
Q 2772 3750 2511 3984 
Q 2250 4219 1831 4219 
Q 1534 4219 1204 4116 
Q 875 4013 500 3803 
L 500 4441 
Q 881 4594 1212 4672 
Q 1544 4750 1819 4750 
Q 2544 4750 2975 4387 
Q 3406 4025 3406 3419 
Q 3406 3131 3298 2873 
Q 3191 2616 2906 2266 
Q 2828 2175 2409 1742 
Q 1991 1309 1228 531 
z
" transform="scale(0.015625)"/>
       </defs>
       <use xlink:href="#DejaVuSans-32"/>
       <use xlink:href="#DejaVuSans-30" transform="translate(63.623047 0)"/>
      </g>
     </g>
    </g>
    <g id="ytick_5">
     <g id="line2d_11">
      <path d="M 43.81125 47.507223 
L 218.51125 47.507223 
" clip-path="url(#p4281ec607c)" style="fill: none; stroke: #b0b0b0; stroke-opacity: 0.2; stroke-width: 0.6; stroke-linecap: square"/>
     </g>
     <g id="line2d_12">
      <g>
       <use xlink:href="#m3a38e5bc47" x="43.81125" y="47.507223" style="stroke: #000000; stroke-width: 0.8"/>
      </g>
     </g>
     <g id="text_6">
      <!-- 25 -->
      <g transform="translate(22.81375 51.686364) scale(0.11 -0.11)">
       <use xlink:href="#DejaVuSans-32"/>
       <use xlink:href="#DejaVuSans-35" transform="translate(63.623047 0)"/>
      </g>
     </g>
    </g>
    <g id="text_7">
     <!-- semitones -->
     <g transform="translate(16.318125 217.555376) rotate(-90) scale(0.12 -0.12)">
      <defs>
       <path id="DejaVuSans-73" d="M 2834 3397 
L 2834 2853 
Q 2591 2978 2328 3040 
Q 2066 3103 1784 3103 
Q 1356 3103 1142 2972 
Q 928 2841 928 2578 
Q 928 2378 1081 2264 
Q 1234 2150 1697 2047 
L 1894 2003 
Q 2506 1872 2764 1633 
Q 3022 1394 3022 966 
Q 3022 478 2636 193 
Q 2250 -91 1575 -91 
Q 1294 -91 989 -36 
Q 684 19 347 128 
L 347 722 
Q 666 556 975 473 
Q 1284 391 1588 391 
Q 1994 391 2212 530 
Q 2431 669 2431 922 
Q 2431 1156 2273 1281 
Q 2116 1406 1581 1522 
L 1381 1569 
Q 847 1681 609 1914 
Q 372 2147 372 2553 
Q 372 3047 722 3315 
Q 1072 3584 1716 3584 
Q 2034 3584 2315 3537 
Q 2597 3491 2834 3397 
z
" transform="scale(0.015625)"/>
       <path id="DejaVuSans-65" d="M 3597 1894 
L 3597 1613 
L 953 1613 
Q 991 1019 1311 708 
Q 1631 397 2203 397 
Q 2534 397 2845 478 
Q 3156 559 3463 722 
L 3463 178 
Q 3153 47 2828 -22 
Q 2503 -91 2169 -91 
Q 1331 -91 842 396 
Q 353 884 353 1716 
Q 353 2575 817 3079 
Q 1281 3584 2069 3584 
Q 2775 3584 3186 3129 
Q 3597 2675 3597 1894 
z
M 3022 2063 
Q 3016 2534 2758 2815 
Q 2500 3097 2075 3097 
Q 1594 3097 1305 2825 
Q 1016 2553 972 2059 
L 3022 2063 
z
" transform="scale(0.015625)"/>
       <path id="DejaVuSans-6d" d="M 3328 2828 
Q 3544 3216 3844 3400 
Q 4144 3584 4550 3584 
Q 5097 3584 5394 3201 
Q 5691 2819 5691 2113 
L 5691 0 
L 5113 0 
L 5113 2094 
Q 5113 2597 4934 2840 
Q 4756 3084 4391 3084 
Q 3944 3084 3684 2787 
Q 3425 2491 3425 1978 
L 3425 0 
L 2847 0 
L 2847 2094 
Q 2847 2600 2669 2842 
Q 2491 3084 2119 3084 
Q 1678 3084 1418 2786 
Q 1159 2488 1159 1978 
L 1159 0 
L 581 0 
L 581 3500 
L 1159 3500 
L 1159 2956 
Q 1356 3278 1631 3431 
Q 1906 3584 2284 3584 
Q 2666 3584 2933 3390 
Q 3200 3197 3328 2828 
z
" transform="scale(0.015625)"/>
       <path id="DejaVuSans-6f" d="M 1959 3097 
Q 1497 3097 1228 2736 
Q 959 2375 959 1747 
Q 959 1119 1226 758 
Q 1494 397 1959 397 
Q 2419 397 2687 759 
Q 2956 1122 2956 1747 
Q 2956 2369 2687 2733 
Q 2419 3097 1959 3097 
z
M 1959 3584 
Q 2709 3584 3137 3096 
Q 3566 2609 3566 1747 
Q 3566 888 3137 398 
Q 2709 -91 1959 -91 
Q 1206 -91 779 398 
Q 353 888 353 1747 
Q 353 2609 779 3096 
Q 1206 3584 1959 3584 
z
" transform="scale(0.015625)"/>
       <path id="DejaVuSans-6e" d="M 3513 2113 
L 3513 0 
L 2938 0 
L 2938 2094 
Q 2938 2591 2744 2837 
Q 2550 3084 2163 3084 
Q 1697 3084 1428 2787 
Q 1159 2491 1159 1978 
L 1159 0 
L 581 0 
L 581 3500 
L 1159 3500 
L 1159 2956 
Q 1366 3272 1645 3428 
Q 1925 3584 2291 3584 
Q 2894 3584 3203 3211 
Q 3513 2838 3513 2113 
z
" transform="scale(0.015625)"/>
      </defs>
      <use xlink:href="#DejaVuSans-73"/>
      <use xlink:href="#DejaVuSans-65" transform="translate(52.099609 0)"/>
      <use xlink:href="#DejaVuSans-6d" transform="translate(113.623047 0)"/>
      <use xlink:href="#DejaVuSans-69" transform="translate(211.035156 0)"/>
      <use xlink:href="#DejaVuSans-74" transform="translate(238.818359 0)"/>
      <use xlink:href="#DejaVuSans-6f" transform="translate(278.027344 0)"/>
      <use xlink:href="#DejaVuSans-6e" transform="translate(339.208984 0)"/>
      <use xlink:href="#DejaVuSans-65" transform="translate(402.587891 0)"/>
      <use xlink:href="#DejaVuSans-73" transform="translate(464.111328 0)"/>
     </g>
    </g>
   </g>
   <g id="FillBetweenPolyCollection_1">
    <defs>
     <path id="m495d9f2ab3" d="M 187.064998 -68.34747 
L 75.257502 -68.34747 
L 73.299802 -71.123191 
L 71.381061 -73.898911 
L 69.509332 -76.674631 
L 67.692659 -79.450351 
L 65.939015 -82.226072 
L 64.256248 -85.001792 
L 62.652017 -87.777512 
L 61.133739 -90.553233 
L 59.708529 -93.328953 
L 58.383143 -96.104673 
L 57.163924 -98.880394 
L 56.056756 -101.656114 
L 55.067008 -104.431834 
L 54.199495 -107.207554 
L 53.458439 -109.983275 
L 52.847431 -112.758995 
L 52.369402 -115.534715 
L 52.026601 -118.310436 
L 51.820576 -121.086156 
L 51.752159 -123.861876 
L 51.821465 -126.637597 
L 52.027888 -129.413317 
L 52.370109 -132.189037 
L 52.846109 -134.964757 
L 53.453184 -137.740478 
L 54.187974 -140.516198 
L 55.046486 -143.291918 
L 56.024132 -146.067639 
L 57.115766 -148.843359 
L 58.315727 -151.619079 
L 59.61788 -154.3948 
L 61.015672 -157.17052 
L 62.502176 -159.94624 
L 64.070144 -162.72196 
L 65.712065 -165.497681 
L 67.420213 -168.273401 
L 69.186704 -171.049121 
L 71.003551 -173.824842 
L 72.86271 -176.600562 
L 74.756138 -179.376282 
L 76.675838 -182.152002 
L 78.613903 -184.927723 
L 80.562569 -187.703443 
L 82.514246 -190.479163 
L 84.461563 -193.254884 
L 86.3974 -196.030604 
L 88.314922 -198.806324 
L 90.207605 -201.582045 
L 92.069264 -204.357765 
L 93.894073 -207.133485 
L 95.676583 -209.909205 
L 97.41174 -212.684926 
L 99.094896 -215.460646 
L 100.721817 -218.236366 
L 102.288694 -221.012087 
L 103.792145 -223.787807 
L 105.229217 -226.563527 
L 106.597385 -229.339248 
L 107.894553 -232.114968 
L 109.119049 -234.890688 
L 110.269618 -237.666408 
L 111.345415 -240.442129 
L 112.346 -243.217849 
L 113.271324 -245.993569 
L 114.121723 -248.76929 
L 114.897899 -251.54501 
L 115.600914 -254.32073 
L 116.232175 -257.09645 
L 116.793413 -259.872171 
L 117.286674 -262.647891 
L 117.7143 -265.423611 
L 118.078909 -268.199332 
L 118.383376 -270.975052 
L 118.630818 -273.750772 
L 118.824568 -276.526493 
L 118.968153 -279.302213 
L 119.065274 -282.077933 
L 119.11978 -284.853653 
L 119.135645 -287.629374 
L 119.116939 -290.405094 
L 119.067805 -293.180814 
L 118.992428 -295.956535 
L 118.895012 -298.732255 
L 118.779749 -301.507975 
L 118.65079 -304.283696 
L 118.51222 -307.059416 
L 118.368027 -309.835136 
L 118.22208 -312.610856 
L 118.078095 -315.386577 
L 117.939616 -318.162297 
L 117.809988 -320.938017 
L 117.692338 -323.713738 
L 117.589549 -326.489458 
L 117.504249 -329.265178 
L 117.43879 -332.040899 
L 117.395237 -334.816619 
L 117.375357 -337.592339 
L 117.380614 -340.368059 
L 117.412161 -343.14378 
L 144.910339 -343.14378 
L 144.910339 -343.14378 
L 144.941886 -340.368059 
L 144.947143 -337.592339 
L 144.927263 -334.816619 
L 144.88371 -332.040899 
L 144.818251 -329.265178 
L 144.732951 -326.489458 
L 144.630162 -323.713738 
L 144.512512 -320.938017 
L 144.382884 -318.162297 
L 144.244405 -315.386577 
L 144.10042 -312.610856 
L 143.954473 -309.835136 
L 143.81028 -307.059416 
L 143.67171 -304.283696 
L 143.542751 -301.507975 
L 143.427488 -298.732255 
L 143.330072 -295.956535 
L 143.254695 -293.180814 
L 143.205561 -290.405094 
L 143.186855 -287.629374 
L 143.20272 -284.853653 
L 143.257226 -282.077933 
L 143.354347 -279.302213 
L 143.497932 -276.526493 
L 143.691682 -273.750772 
L 143.939124 -270.975052 
L 144.243591 -268.199332 
L 144.6082 -265.423611 
L 145.035826 -262.647891 
L 145.529087 -259.872171 
L 146.090325 -257.09645 
L 146.721586 -254.32073 
L 147.424601 -251.54501 
L 148.200777 -248.76929 
L 149.051176 -245.993569 
L 149.9765 -243.217849 
L 150.977085 -240.442129 
L 152.052882 -237.666408 
L 153.203451 -234.890688 
L 154.427947 -232.114968 
L 155.725115 -229.339248 
L 157.093283 -226.563527 
L 158.530355 -223.787807 
L 160.033806 -221.012087 
L 161.600683 -218.236366 
L 163.227604 -215.460646 
L 164.91076 -212.684926 
L 166.645917 -209.909205 
L 168.428427 -207.133485 
L 170.253236 -204.357765 
L 172.114895 -201.582045 
L 174.007578 -198.806324 
L 175.9251 -196.030604 
L 177.860937 -193.254884 
L 179.808254 -190.479163 
L 181.759931 -187.703443 
L 183.708597 -184.927723 
L 185.646662 -182.152002 
L 187.566362 -179.376282 
L 189.45979 -176.600562 
L 191.318949 -173.824842 
L 193.135796 -171.049121 
L 194.902287 -168.273401 
L 196.610435 -165.497681 
L 198.252356 -162.72196 
L 199.820324 -159.94624 
L 201.306828 -157.17052 
L 202.70462 -154.3948 
L 204.006773 -151.619079 
L 205.206734 -148.843359 
L 206.298368 -146.067639 
L 207.276014 -143.291918 
L 208.134526 -140.516198 
L 208.869316 -137.740478 
L 209.476391 -134.964757 
L 209.952391 -132.189037 
L 210.294612 -129.413317 
L 210.501035 -126.637597 
L 210.570341 -123.861876 
L 210.501924 -121.086156 
L 210.295899 -118.310436 
L 209.953098 -115.534715 
L 209.475069 -112.758995 
L 208.864061 -109.983275 
L 208.123005 -107.207554 
L 207.255492 -104.431834 
L 206.265744 -101.656114 
L 205.158576 -98.880394 
L 203.939357 -96.104673 
L 202.613971 -93.328953 
L 201.188761 -90.553233 
L 199.670483 -87.777512 
L 198.066252 -85.001792 
L 196.383485 -82.226072 
L 194.629841 -79.450351 
L 192.813168 -76.674631 
L 190.941439 -73.898911 
L 189.022698 -71.123191 
L 187.064998 -68.34747 
z
" style="stroke: #c2410c; stroke-opacity: 0.35"/>
    </defs>
    <g clip-path="url(#p4281ec607c)">
     <use xlink:href="#m495d9f2ab3" x="0" y="391.52407" style="fill: #c2410c; fill-opacity: 0.35; stroke: #c2410c; stroke-opacity: 0.35"/>
    </g>
   </g>
   <g id="LineCollection_1">
    <path d="M 91.456705 264.109571 
L 170.865795 264.109571 
" clip-path="url(#p4281ec607c)" style="fill: none; stroke: #c2410c; stroke-width: 1.5"/>
   </g>
   <g id="patch_3">
    <path d="M 43.81125 338.606376 
L 43.81125 34.56 
" style="fill: none; stroke: #000000; stroke-width: 0.8; stroke-linejoin: miter; stroke-linecap: square"/>
   </g>
   <g id="patch_4">
    <path d="M 218.51125 338.606376 
L 218.51125 34.56 
" style="fill: none; stroke: #000000; stroke-width: 0.8; stroke-linejoin: miter; stroke-linecap: square"/>
   </g>
   <g id="patch_5">
    <path d="M 43.81125 338.606376 
L 218.51125 338.606376 
" style="fill: none; stroke: #000000; stroke-width: 0.8; stroke-linejoin: miter; stroke-linecap: square"/>
   </g>
   <g id="patch_6">
    <path d="M 43.81125 34.56 
L 218.51125 34.56 
" style="fill: none; stroke: #000000; stroke-width: 0.8; stroke-linejoin: miter; stroke-linecap: square"/>
   </g>
   <g id="PathCollection_1">
    <defs>
     <path id="m1f3eea34bd" d="M -0 4.472136 
L 4.472136 0 
L 0 -4.472136 
L -4.472136 -0 
z
" style="stroke: #111827"/>
    </defs>
    <g clip-path="url(#p4281ec607c)">
     <use xlink:href="#m1f3eea34bd" x="131.16125" y="324.786086" style="fill: #111827; stroke: #111827"/>
    </g>
   </g>
  </g>
  <g id="axes_2">
   <g id="patch_7">
    <path d="M 269.38125 338.606376 
L 444.08125 338.606376 
L 444.08125 34.56 
L 269.38125 34.56 
z
" style="fill: #ffffff"/>
   </g>
   <g id="matplotlib.axis_3">
    <g id="xtick_2">
     <g id="line2d_13">
      <path d="M 356.73125 338.606376 
L 356.73125 34.56 
" clip-path="url(#pbea5e96521)" style="fill: none; stroke: #b0b0b0; stroke-opacity: 0.2; stroke-width: 0.6; stroke-linecap: square"/>
     </g>
     <g id="line2d_14">
      <g>
       <use xlink:href="#m423d7d6fd9" x="356.73125" y="338.606376" style="stroke: #000000; stroke-width: 0.8"/>
      </g>
     </g>
     <g id="text_8">
      <!-- Loudness variability -->
      <g transform="translate(250.020135 382.114363) rotate(-15) scale(0.11 -0.11)">
       <defs>
        <path id="DejaVuSans-4c" d="M 628 4666 
L 1259 4666 
L 1259 531 
L 3531 531 
L 3531 0 
L 628 0 
L 628 4666 
z
" transform="scale(0.015625)"/>
        <path id="DejaVuSans-75" d="M 544 1381 
L 544 3500 
L 1119 3500 
L 1119 1403 
Q 1119 906 1312 657 
Q 1506 409 1894 409 
Q 2359 409 2629 706 
Q 2900 1003 2900 1516 
L 2900 3500 
L 3475 3500 
L 3475 0 
L 2900 0 
L 2900 538 
Q 2691 219 2414 64 
Q 2138 -91 1772 -91 
Q 1169 -91 856 284 
Q 544 659 544 1381 
z
M 1991 3584 
L 1991 3584 
z
" transform="scale(0.015625)"/>
        <path id="DejaVuSans-64" d="M 2906 2969 
L 2906 4863 
L 3481 4863 
L 3481 0 
L 2906 0 
L 2906 525 
Q 2725 213 2448 61 
Q 2172 -91 1784 -91 
Q 1150 -91 751 415 
Q 353 922 353 1747 
Q 353 2572 751 3078 
Q 1150 3584 1784 3584 
Q 2172 3584 2448 3432 
Q 2725 3281 2906 2969 
z
M 947 1747 
Q 947 1113 1208 752 
Q 1469 391 1925 391 
Q 2381 391 2643 752 
Q 2906 1113 2906 1747 
Q 2906 2381 2643 2742 
Q 2381 3103 1925 3103 
Q 1469 3103 1208 2742 
Q 947 2381 947 1747 
z
" transform="scale(0.015625)"/>
       </defs>
       <use xlink:href="#DejaVuSans-4c"/>
       <use xlink:href="#DejaVuSans-6f" transform="translate(53.962891 0)"/>
       <use xlink:href="#DejaVuSans-75" transform="translate(115.144531 0)"/>
       <use xlink:href="#DejaVuSans-64" transform="translate(178.523438 0)"/>
       <use xlink:href="#DejaVuSans-6e" transform="translate(242 0)"/>
       <use xlink:href="#DejaVuSans-65" transform="translate(305.378906 0)"/>
       <use xlink:href="#DejaVuSans-73" transform="translate(366.902344 0)"/>
       <use xlink:href="#DejaVuSans-73" transform="translate(419.001953 0)"/>
       <use xlink:href="#DejaVuSans-20" transform="translate(471.101562 0)"/>
       <use xlink:href="#DejaVuSans-76" transform="translate(502.888672 0)"/>
       <use xlink:href="#DejaVuSans-61" transform="translate(562.068359 0)"/>
       <use xlink:href="#DejaVuSans-72" transform="translate(623.347656 0)"/>
       <use xlink:href="#DejaVuSans-69" transform="translate(664.460938 0)"/>
       <use xlink:href="#DejaVuSans-61" transform="translate(692.244141 0)"/>
       <use xlink:href="#DejaVuSans-62" transform="translate(753.523438 0)"/>
       <use xlink:href="#DejaVuSans-69" transform="translate(817 0)"/>
       <use xlink:href="#DejaVuSans-6c" transform="translate(844.783203 0)"/>
       <use xlink:href="#DejaVuSans-69" transform="translate(872.566406 0)"/>
       <use xlink:href="#DejaVuSans-74" transform="translate(900.349609 0)"/>
       <use xlink:href="#DejaVuSans-79" transform="translate(939.558594 0)"/>
      </g>
     </g>
    </g>
   </g>
   <g id="matplotlib.axis_4">
    <g id="ytick_6">
     <g id="line2d_15">
      <path d="M 269.38125 337.549678 
L 444.08125 337.549678 
" clip-path="url(#pbea5e96521)" style="fill: none; stroke: #b0b0b0; stroke-opacity: 0.2; stroke-width: 0.6; stroke-linecap: square"/>
     </g>
     <g id="line2d_16">
      <g>
       <use xlink:href="#m3a38e5bc47" x="269.38125" y="337.549678" style="stroke: #000000; stroke-width: 0.8"/>
      </g>
     </g>
     <g id="text_9">
      <!-- 0.8 -->
      <g transform="translate(244.887813 341.728819) scale(0.11 -0.11)">
       <defs>
        <path id="DejaVuSans-2e" d="M 684 794 
L 1344 794 
L 1344 0 
L 684 0 
L 684 794 
z
" transform="scale(0.015625)"/>
        <path id="DejaVuSans-38" d="M 2034 2216 
Q 1584 2216 1326 1975 
Q 1069 1734 1069 1313 
Q 1069 891 1326 650 
Q 1584 409 2034 409 
Q 2484 409 2743 651 
Q 3003 894 3003 1313 
Q 3003 1734 2745 1975 
Q 2488 2216 2034 2216 
z
M 1403 2484 
Q 997 2584 770 2862 
Q 544 3141 544 3541 
Q 544 4100 942 4425 
Q 1341 4750 2034 4750 
Q 2731 4750 3128 4425 
Q 3525 4100 3525 3541 
Q 3525 3141 3298 2862 
Q 3072 2584 2669 2484 
Q 3125 2378 3379 2068 
Q 3634 1759 3634 1313 
Q 3634 634 3220 271 
Q 2806 -91 2034 -91 
Q 1263 -91 848 271 
Q 434 634 434 1313 
Q 434 1759 690 2068 
Q 947 2378 1403 2484 
z
M 1172 3481 
Q 1172 3119 1398 2916 
Q 1625 2713 2034 2713 
Q 2441 2713 2670 2916 
Q 2900 3119 2900 3481 
Q 2900 3844 2670 4047 
Q 2441 4250 2034 4250 
Q 1625 4250 1398 4047 
Q 1172 3844 1172 3481 
z
" transform="scale(0.015625)"/>
       </defs>
       <use xlink:href="#DejaVuSans-30"/>
       <use xlink:href="#DejaVuSans-2e" transform="translate(63.623047 0)"/>
       <use xlink:href="#DejaVuSans-38" transform="translate(95.410156 0)"/>
      </g>
     </g>
    </g>
    <g id="ytick_7">
     <g id="line2d_17">
      <path d="M 269.38125 281.453253 
L 444.08125 281.453253 
" clip-path="url(#pbea5e96521)" style="fill: none; stroke: #b0b0b0; stroke-opacity: 0.2; stroke-width: 0.6; stroke-linecap: square"/>
     </g>
     <g id="line2d_18">
      <g>
       <use xlink:href="#m3a38e5bc47" x="269.38125" y="281.453253" style="stroke: #000000; stroke-width: 0.8"/>
      </g>
     </g>
     <g id="text_10">
      <!-- 0.9 -->
      <g transform="translate(244.887813 285.632393) scale(0.11 -0.11)">
       <defs>
        <path id="DejaVuSans-39" d="M 703 97 
L 703 672 
Q 941 559 1184 500 
Q 1428 441 1663 441 
Q 2288 441 2617 861 
Q 2947 1281 2994 2138 
Q 2813 1869 2534 1725 
Q 2256 1581 1919 1581 
Q 1219 1581 811 2004 
Q 403 2428 403 3163 
Q 403 3881 828 4315 
Q 1253 4750 1959 4750 
Q 2769 4750 3195 4129 
Q 3622 3509 3622 2328 
Q 3622 1225 3098 567 
Q 2575 -91 1691 -91 
Q 1453 -91 1209 -44 
Q 966 3 703 97 
z
M 1959 2075 
Q 2384 2075 2632 2365 
Q 2881 2656 2881 3163 
Q 2881 3666 2632 3958 
Q 2384 4250 1959 4250 
Q 1534 4250 1286 3958 
Q 1038 3666 1038 3163 
Q 1038 2656 1286 2365 
Q 1534 2075 1959 2075 
z
" transform="scale(0.015625)"/>
       </defs>
       <use xlink:href="#DejaVuSans-30"/>
       <use xlink:href="#DejaVuSans-2e" transform="translate(63.623047 0)"/>
       <use xlink:href="#DejaVuSans-39" transform="translate(95.410156 0)"/>
      </g>
     </g>
    </g>
    <g id="ytick_8">
     <g id="line2d_19">
      <path d="M 269.38125 225.356827 
L 444.08125 225.356827 
" clip-path="url(#pbea5e96521)" style="fill: none; stroke: #b0b0b0; stroke-opacity: 0.2; stroke-width: 0.6; stroke-linecap: square"/>
     </g>
     <g id="line2d_20">
      <g>
       <use xlink:href="#m3a38e5bc47" x="269.38125" y="225.356827" style="stroke: #000000; stroke-width: 0.8"/>
      </g>
     </g>
     <g id="text_11">
      <!-- 1.0 -->
      <g transform="translate(244.887813 229.535968) scale(0.11 -0.11)">
       <use xlink:href="#DejaVuSans-31"/>
       <use xlink:href="#DejaVuSans-2e" transform="translate(63.623047 0)"/>
       <use xlink:href="#DejaVuSans-30" transform="translate(95.410156 0)"/>
      </g>
     </g>
    </g>
    <g id="ytick_9">
     <g id="line2d_21">
      <path d="M 269.38125 169.260402 
L 444.08125 169.260402 
" clip-path="url(#pbea5e96521)" style="fill: none; stroke: #b0b0b0; stroke-opacity: 0.2; stroke-width: 0.6; stroke-linecap: square"/>
     </g>
     <g id="line2d_22">
      <g>
       <use xlink:href="#m3a38e5bc47" x="269.38125" y="169.260402" style="stroke: #000000; stroke-width: 0.8"/>
      </g>
     </g>
     <g id="text_12">
      <!-- 1.1 -->
      <g transform="translate(244.887813 173.439542) scale(0.11 -0.11)">
       <use xlink:href="#DejaVuSans-31"/>
       <use xlink:href="#DejaVuSans-2e" transform="translate(63.623047 0)"/>
       <use xlink:href="#DejaVuSans-31" transform="translate(95.410156 0)"/>
      </g>
     </g>
    </g>
    <g id="ytick_10">
     <g id="line2d_23">
      <path d="M 269.38125 113.163976 
L 444.08125 113.163976 
" clip-path="url(#pbea5e96521)" style="fill: none; stroke: #b0b0b0; stroke-opacity: 0.2; stroke-width: 0.6; stroke-linecap: square"/>
     </g>
     <g id="line2d_24">
      <g>
       <use xlink:href="#m3a38e5bc47" x="269.38125" y="113.163976" style="stroke: #000000; stroke-width: 0.8"/>
      </g>
     </g>
     <g id="text_13">
      <!-- 1.2 -->
      <g transform="translate(244.887813 117.343117) scale(0.11 -0.11)">
       <use xlink:href="#DejaVuSans-31"/>
       <use xlink:href="#DejaVuSans-2e" transform="translate(63.623047 0)"/>
       <use xlink:href="#DejaVuSans-32" transform="translate(95.410156 0)"/>
      </g>
     </g>
    </g>
    <g id="ytick_11">
     <g id="line2d_25">
      <path d="M 269.38125 57.067551 
L 444.08125 57.067551 
" clip-path="url(#pbea5e96521)" style="fill: none; stroke: #b0b0b0; stroke-opacity: 0.2; stroke-width: 0.6; stroke-linecap: square"/>
     </g>
     <g id="line2d_26">
      <g>
       <use xlink:href="#m3a38e5bc47" x="269.38125" y="57.067551" style="stroke: #000000; stroke-width: 0.8"/>
      </g>
     </g>
     <g id="text_14">
      <!-- 1.3 -->
      <g transform="translate(244.887813 61.246691) scale(0.11 -0.11)">
       <defs>
        <path id="DejaVuSans-33" d="M 2597 2516 
Q 3050 2419 3304 2112 
Q 3559 1806 3559 1356 
Q 3559 666 3084 287 
Q 2609 -91 1734 -91 
Q 1441 -91 1130 -33 
Q 819 25 488 141 
L 488 750 
Q 750 597 1062 519 
Q 1375 441 1716 441 
Q 2309 441 2620 675 
Q 2931 909 2931 1356 
Q 2931 1769 2642 2001 
Q 2353 2234 1838 2234 
L 1294 2234 
L 1294 2753 
L 1863 2753 
Q 2328 2753 2575 2939 
Q 2822 3125 2822 3475 
Q 2822 3834 2567 4026 
Q 2313 4219 1838 4219 
Q 1578 4219 1281 4162 
Q 984 4106 628 3988 
L 628 4550 
Q 988 4650 1302 4700 
Q 1616 4750 1894 4750 
Q 2613 4750 3031 4423 
Q 3450 4097 3450 3541 
Q 3450 3153 3228 2886 
Q 3006 2619 2597 2516 
z
" transform="scale(0.015625)"/>
       </defs>
       <use xlink:href="#DejaVuSans-31"/>
       <use xlink:href="#DejaVuSans-2e" transform="translate(63.623047 0)"/>
       <use xlink:href="#DejaVuSans-33" transform="translate(95.410156 0)"/>
      </g>
     </g>
    </g>
    <g id="text_15">
     <!-- normalized SD -->
     <g transform="translate(238.392188 230.259438) rotate(-90) scale(0.12 -0.12)">
      <defs>
       <path id="DejaVuSans-7a" d="M 353 3500 
L 3084 3500 
L 3084 2975 
L 922 459 
L 3084 459 
L 3084 0 
L 275 0 
L 275 525 
L 2438 3041 
L 353 3041 
L 353 3500 
z
" transform="scale(0.015625)"/>
       <path id="DejaVuSans-53" d="M 3425 4513 
L 3425 3897 
Q 3066 4069 2747 4153 
Q 2428 4238 2131 4238 
Q 1616 4238 1336 4038 
Q 1056 3838 1056 3469 
Q 1056 3159 1242 3001 
Q 1428 2844 1947 2747 
L 2328 2669 
Q 3034 2534 3370 2195 
Q 3706 1856 3706 1288 
Q 3706 609 3251 259 
Q 2797 -91 1919 -91 
Q 1588 -91 1214 -16 
Q 841 59 441 206 
L 441 856 
Q 825 641 1194 531 
Q 1563 422 1919 422 
Q 2459 422 2753 634 
Q 3047 847 3047 1241 
Q 3047 1584 2836 1778 
Q 2625 1972 2144 2069 
L 1759 2144 
Q 1053 2284 737 2584 
Q 422 2884 422 3419 
Q 422 4038 858 4394 
Q 1294 4750 2059 4750 
Q 2388 4750 2728 4690 
Q 3069 4631 3425 4513 
z
" transform="scale(0.015625)"/>
       <path id="DejaVuSans-44" d="M 1259 4147 
L 1259 519 
L 2022 519 
Q 2988 519 3436 956 
Q 3884 1394 3884 2338 
Q 3884 3275 3436 3711 
Q 2988 4147 2022 4147 
L 1259 4147 
z
M 628 4666 
L 1925 4666 
Q 3281 4666 3915 4102 
Q 4550 3538 4550 2338 
Q 4550 1131 3912 565 
Q 3275 0 1925 0 
L 628 0 
L 628 4666 
z
" transform="scale(0.015625)"/>
      </defs>
      <use xlink:href="#DejaVuSans-6e"/>
      <use xlink:href="#DejaVuSans-6f" transform="translate(63.378906 0)"/>
      <use xlink:href="#DejaVuSans-72" transform="translate(124.560547 0)"/>
      <use xlink:href="#DejaVuSans-6d" transform="translate(163.923828 0)"/>
      <use xlink:href="#DejaVuSans-61" transform="translate(261.335938 0)"/>
      <use xlink:href="#DejaVuSans-6c" transform="translate(322.615234 0)"/>
      <use xlink:href="#DejaVuSans-69" transform="translate(350.398438 0)"/>
      <use xlink:href="#DejaVuSans-7a" transform="translate(378.181641 0)"/>
      <use xlink:href="#DejaVuSans-65" transform="translate(430.671875 0)"/>
      <use xlink:href="#DejaVuSans-64" transform="translate(492.195312 0)"/>
      <use xlink:href="#DejaVuSans-20" transform="translate(555.671875 0)"/>
      <use xlink:href="#DejaVuSans-53" transform="translate(587.458984 0)"/>
      <use xlink:href="#DejaVuSans-44" transform="translate(650.935547 0)"/>
     </g>
    </g>
   </g>
   <g id="FillBetweenPolyCollection_2">
    <defs>
     <path id="ma794c0e50a" d="M 406.490431 -66.737983 
L 306.972069 -66.737983 
L 306.162635 -69.340679 
L 305.375842 -71.943375 
L 304.611039 -74.546071 
L 303.867423 -77.148767 
L 303.144049 -79.751463 
L 302.43985 -82.354159 
L 301.753652 -84.956855 
L 301.084196 -87.559551 
L 300.430154 -90.162247 
L 299.790152 -92.764943 
L 299.162791 -95.367639 
L 298.546667 -97.970335 
L 297.940392 -100.573031 
L 297.342614 -103.175727 
L 296.752037 -105.778423 
L 296.167439 -108.381119 
L 295.587687 -110.983815 
L 295.011756 -113.586511 
L 294.438739 -116.189207 
L 293.867861 -118.791903 
L 293.298487 -121.394599 
L 292.730129 -123.997295 
L 292.162454 -126.599991 
L 291.595282 -129.202687 
L 291.028588 -131.805383 
L 290.462501 -134.408079 
L 289.8973 -137.010775 
L 289.333406 -139.613472 
L 288.771372 -142.216168 
L 288.211877 -144.818864 
L 287.655712 -147.42156 
L 287.103768 -150.024256 
L 286.557019 -152.626952 
L 286.01651 -155.229648 
L 285.48334 -157.832344 
L 284.95865 -160.43504 
L 284.443599 -163.037736 
L 283.939358 -165.640432 
L 283.44709 -168.243128 
L 282.967937 -170.845824 
L 282.503007 -173.44852 
L 282.053363 -176.051216 
L 281.620013 -178.653912 
L 281.203903 -181.256608 
L 280.805908 -183.859304 
L 280.426827 -186.462 
L 280.067383 -189.064696 
L 279.72822 -191.667392 
L 279.409906 -194.270088 
L 279.112933 -196.872784 
L 278.837722 -199.47548 
L 278.584634 -202.078176 
L 278.35397 -204.680872 
L 278.145987 -207.283568 
L 277.960902 -209.886264 
L 277.798908 -212.48896 
L 277.660181 -215.091656 
L 277.544896 -217.694352 
L 277.453233 -220.297048 
L 277.385395 -222.899744 
L 277.341612 -225.50244 
L 277.322159 -228.105136 
L 277.327358 -230.707832 
L 277.357591 -233.310528 
L 277.413303 -235.913224 
L 277.495011 -238.51592 
L 277.603306 -241.118616 
L 277.738851 -243.721312 
L 277.902387 -246.324008 
L 278.094725 -248.926704 
L 278.316747 -251.5294 
L 278.569394 -254.132096 
L 278.853664 -256.734792 
L 279.170598 -259.337488 
L 279.521272 -261.940184 
L 279.90678 -264.54288 
L 280.328223 -267.145576 
L 280.786694 -269.748272 
L 281.28326 -272.350968 
L 281.818945 -274.953664 
L 282.394715 -277.55636 
L 283.01146 -280.159056 
L 283.669974 -282.761752 
L 284.370944 -285.364448 
L 285.114928 -287.967144 
L 285.902343 -290.56984 
L 286.73345 -293.172536 
L 287.608342 -295.775232 
L 288.526931 -298.377928 
L 289.488943 -300.980624 
L 290.493902 -303.58332 
L 291.541133 -306.186016 
L 292.629754 -308.788712 
L 293.758674 -311.391408 
L 294.926595 -313.994104 
L 296.132014 -316.5968 
L 297.37323 -319.199496 
L 298.648347 -321.802192 
L 299.955286 -324.404888 
L 413.507214 -324.404888 
L 413.507214 -324.404888 
L 414.814153 -321.802192 
L 416.08927 -319.199496 
L 417.330486 -316.5968 
L 418.535905 -313.994104 
L 419.703826 -311.391408 
L 420.832746 -308.788712 
L 421.921367 -306.186016 
L 422.968598 -303.58332 
L 423.973557 -300.980624 
L 424.935569 -298.377928 
L 425.854158 -295.775232 
L 426.72905 -293.172536 
L 427.560157 -290.56984 
L 428.347572 -287.967144 
L 429.091556 -285.364448 
L 429.792526 -282.761752 
L 430.45104 -280.159056 
L 431.067785 -277.55636 
L 431.643555 -274.953664 
L 432.17924 -272.350968 
L 432.675806 -269.748272 
L 433.134277 -267.145576 
L 433.55572 -264.54288 
L 433.941228 -261.940184 
L 434.291902 -259.337488 
L 434.608836 -256.734792 
L 434.893106 -254.132096 
L 435.145753 -251.5294 
L 435.367775 -248.926704 
L 435.560113 -246.324008 
L 435.723649 -243.721312 
L 435.859194 -241.118616 
L 435.967489 -238.51592 
L 436.049197 -235.913224 
L 436.104909 -233.310528 
L 436.135142 -230.707832 
L 436.140341 -228.105136 
L 436.120888 -225.50244 
L 436.077105 -222.899744 
L 436.009267 -220.297048 
L 435.917604 -217.694352 
L 435.802319 -215.091656 
L 435.663592 -212.48896 
L 435.501598 -209.886264 
L 435.316513 -207.283568 
L 435.10853 -204.680872 
L 434.877866 -202.078176 
L 434.624778 -199.47548 
L 434.349567 -196.872784 
L 434.052594 -194.270088 
L 433.73428 -191.667392 
L 433.395117 -189.064696 
L 433.035673 -186.462 
L 432.656592 -183.859304 
L 432.258597 -181.256608 
L 431.842487 -178.653912 
L 431.409137 -176.051216 
L 430.959493 -173.44852 
L 430.494563 -170.845824 
L 430.01541 -168.243128 
L 429.523142 -165.640432 
L 429.018901 -163.037736 
L 428.50385 -160.43504 
L 427.97916 -157.832344 
L 427.44599 -155.229648 
L 426.905481 -152.626952 
L 426.358732 -150.024256 
L 425.806788 -147.42156 
L 425.250623 -144.818864 
L 424.691128 -142.216168 
L 424.129094 -139.613472 
L 423.5652 -137.010775 
L 422.999999 -134.408079 
L 422.433912 -131.805383 
L 421.867218 -129.202687 
L 421.300046 -126.599991 
L 420.732371 -123.997295 
L 420.164013 -121.394599 
L 419.594639 -118.791903 
L 419.023761 -116.189207 
L 418.450744 -113.586511 
L 417.874813 -110.983815 
L 417.295061 -108.381119 
L 416.710463 -105.778423 
L 416.119886 -103.175727 
L 415.522108 -100.573031 
L 414.915833 -97.970335 
L 414.299709 -95.367639 
L 413.672348 -92.764943 
L 413.032346 -90.162247 
L 412.378304 -87.559551 
L 411.708848 -84.956855 
L 411.02265 -82.354159 
L 410.318451 -79.751463 
L 409.595077 -77.148767 
L 408.851461 -74.546071 
L 408.086658 -71.943375 
L 407.299865 -69.340679 
L 406.490431 -66.737983 
z
" style="stroke: #c2410c; stroke-opacity: 0.35"/>
    </defs>
    <g clip-path="url(#pbea5e96521)">
     <use xlink:href="#ma794c0e50a" x="0" y="391.52407" style="fill: #c2410c; fill-opacity: 0.35; stroke: #c2410c; stroke-opacity: 0.35"/>
    </g>
   </g>
   <g id="LineCollection_2">
    <path d="M 317.026705 194.946856 
L 396.435795 194.946856 
" clip-path="url(#pbea5e96521)" style="fill: none; stroke: #c2410c; stroke-width: 1.5"/>
   </g>
   <g id="patch_8">
    <path d="M 269.38125 338.606376 
L 269.38125 34.56 
" style="fill: none; stroke: #000000; stroke-width: 0.8; stroke-linejoin: miter; stroke-linecap: square"/>
   </g>
   <g id="patch_9">
    <path d="M 444.08125 338.606376 
L 444.08125 34.56 
" style="fill: none; stroke: #000000; stroke-width: 0.8; stroke-linejoin: miter; stroke-linecap: square"/>
   </g>
   <g id="patch_10">
    <path d="M 269.38125 338.606376 
L 444.08125 338.606376 
" style="fill: none; stroke: #000000; stroke-width: 0.8; stroke-linejoin: miter; stroke-linecap: square"/>
   </g>
   <g id="patch_11">
    <path d="M 269.38125 34.56 
L 444.08125 34.56 
" style="fill: none; stroke: #000000; stroke-width: 0.8; stroke-linejoin: miter; stroke-linecap: square"/>
   </g>
   <g id="PathCollection_2">
    <g clip-path="url(#pbea5e96521)">
     <use xlink:href="#m1f3eea34bd" x="356.73125" y="48.38029" style="fill: #111827; stroke: #111827"/>
    </g>
   </g>
  </g>
  <g id="axes_3">
   <g id="patch_12">
    <path d="M 494.95125 338.606376 
L 669.65125 338.606376 
L 669.65125 34.56 
L 494.95125 34.56 
z
" style="fill: #ffffff"/>
   </g>
   <g id="matplotlib.axis_5">
    <g id="xtick_3">
     <g id="line2d_27">
      <path d="M 582.30125 338.606376 
L 582.30125 34.56 
" clip-path="url(#pf5996ab2a1)" style="fill: none; stroke: #b0b0b0; stroke-opacity: 0.2; stroke-width: 0.6; stroke-linecap: square"/>
     </g>
     <g id="line2d_28">
      <g>
       <use xlink:href="#m423d7d6fd9" x="582.30125" y="338.606376" style="stroke: #000000; stroke-width: 0.8"/>
      </g>
     </g>
     <g id="text_16">
      <!-- Speech rate -->
      <g transform="translate(517.607757 370.855775) rotate(-15) scale(0.11 -0.11)">
       <defs>
        <path id="DejaVuSans-70" d="M 1159 525 
L 1159 -1331 
L 581 -1331 
L 581 3500 
L 1159 3500 
L 1159 2969 
Q 1341 3281 1617 3432 
Q 1894 3584 2278 3584 
Q 2916 3584 3314 3078 
Q 3713 2572 3713 1747 
Q 3713 922 3314 415 
Q 2916 -91 2278 -91 
Q 1894 -91 1617 61 
Q 1341 213 1159 525 
z
M 3116 1747 
Q 3116 2381 2855 2742 
Q 2594 3103 2138 3103 
Q 1681 3103 1420 2742 
Q 1159 2381 1159 1747 
Q 1159 1113 1420 752 
Q 1681 391 2138 391 
Q 2594 391 2855 752 
Q 3116 1113 3116 1747 
z
" transform="scale(0.015625)"/>
       </defs>
       <use xlink:href="#DejaVuSans-53"/>
       <use xlink:href="#DejaVuSans-70" transform="translate(63.476562 0)"/>
       <use xlink:href="#DejaVuSans-65" transform="translate(126.953125 0)"/>
       <use xlink:href="#DejaVuSans-65" transform="translate(188.476562 0)"/>
       <use xlink:href="#DejaVuSans-63" transform="translate(250 0)"/>
       <use xlink:href="#DejaVuSans-68" transform="translate(304.980469 0)"/>
       <use xlink:href="#DejaVuSans-20" transform="translate(368.359375 0)"/>
       <use xlink:href="#DejaVuSans-72" transform="translate(400.146484 0)"/>
       <use xlink:href="#DejaVuSans-61" transform="translate(441.259766 0)"/>
       <use xlink:href="#DejaVuSans-74" transform="translate(502.539062 0)"/>
       <use xlink:href="#DejaVuSans-65" transform="translate(541.748047 0)"/>
      </g>
     </g>
    </g>
   </g>
   <g id="matplotlib.axis_6">
    <g id="ytick_12">
     <g id="line2d_29">
      <path d="M 494.95125 296.418004 
L 669.65125 296.418004 
" clip-path="url(#pf5996ab2a1)" style="fill: none; stroke: #b0b0b0; stroke-opacity: 0.2; stroke-width: 0.6; stroke-linecap: square"/>
     </g>
     <g id="line2d_30">
      <g>
       <use xlink:href="#m3a38e5bc47" x="494.95125" y="296.418004" style="stroke: #000000; stroke-width: 0.8"/>
      </g>
     </g>
     <g id="text_17">
      <!-- 1.0 -->
      <g transform="translate(470.457812 300.597144) scale(0.11 -0.11)">
       <use xlink:href="#DejaVuSans-31"/>
       <use xlink:href="#DejaVuSans-2e" transform="translate(63.623047 0)"/>
       <use xlink:href="#DejaVuSans-30" transform="translate(95.410156 0)"/>
      </g>
     </g>
    </g>
    <g id="ytick_13">
     <g id="line2d_31">
      <path d="M 494.95125 235.706491 
L 669.65125 235.706491 
" clip-path="url(#pf5996ab2a1)" style="fill: none; stroke: #b0b0b0; stroke-opacity: 0.2; stroke-width: 0.6; stroke-linecap: square"/>
     </g>
     <g id="line2d_32">
      <g>
       <use xlink:href="#m3a38e5bc47" x="494.95125" y="235.706491" style="stroke: #000000; stroke-width: 0.8"/>
      </g>
     </g>
     <g id="text_18">
      <!-- 1.5 -->
      <g transform="translate(470.457812 239.885632) scale(0.11 -0.11)">
       <use xlink:href="#DejaVuSans-31"/>
       <use xlink:href="#DejaVuSans-2e" transform="translate(63.623047 0)"/>
       <use xlink:href="#DejaVuSans-35" transform="translate(95.410156 0)"/>
      </g>
     </g>
    </g>
    <g id="ytick_14">
     <g id="line2d_33">
      <path d="M 494.95125 174.994979 
L 669.65125 174.994979 
" clip-path="url(#pf5996ab2a1)" style="fill: none; stroke: #b0b0b0; stroke-opacity: 0.2; stroke-width: 0.6; stroke-linecap: square"/>
     </g>
     <g id="line2d_34">
      <g>
       <use xlink:href="#m3a38e5bc47" x="494.95125" y="174.994979" style="stroke: #000000; stroke-width: 0.8"/>
      </g>
     </g>
     <g id="text_19">
      <!-- 2.0 -->
      <g transform="translate(470.457812 179.174119) scale(0.11 -0.11)">
       <use xlink:href="#DejaVuSans-32"/>
       <use xlink:href="#DejaVuSans-2e" transform="translate(63.623047 0)"/>
       <use xlink:href="#DejaVuSans-30" transform="translate(95.410156 0)"/>
      </g>
     </g>
    </g>
    <g id="ytick_15">
     <g id="line2d_35">
      <path d="M 494.95125 114.283466 
L 669.65125 114.283466 
" clip-path="url(#pf5996ab2a1)" style="fill: none; stroke: #b0b0b0; stroke-opacity: 0.2; stroke-width: 0.6; stroke-linecap: square"/>
     </g>
     <g id="line2d_36">
      <g>
       <use xlink:href="#m3a38e5bc47" x="494.95125" y="114.283466" style="stroke: #000000; stroke-width: 0.8"/>
      </g>
     </g>
     <g id="text_20">
      <!-- 2.5 -->
      <g transform="translate(470.457812 118.462607) scale(0.11 -0.11)">
       <use xlink:href="#DejaVuSans-32"/>
       <use xlink:href="#DejaVuSans-2e" transform="translate(63.623047 0)"/>
       <use xlink:href="#DejaVuSans-35" transform="translate(95.410156 0)"/>
      </g>
     </g>
    </g>
    <g id="ytick_16">
     <g id="line2d_37">
      <path d="M 494.95125 53.571954 
L 669.65125 53.571954 
" clip-path="url(#pf5996ab2a1)" style="fill: none; stroke: #b0b0b0; stroke-opacity: 0.2; stroke-width: 0.6; stroke-linecap: square"/>
     </g>
     <g id="line2d_38">
      <g>
       <use xlink:href="#m3a38e5bc47" x="494.95125" y="53.571954" style="stroke: #000000; stroke-width: 0.8"/>
      </g>
     </g>
     <g id="text_21">
      <!-- 3.0 -->
      <g transform="translate(470.457812 57.751094) scale(0.11 -0.11)">
       <use xlink:href="#DejaVuSans-33"/>
       <use xlink:href="#DejaVuSans-2e" transform="translate(63.623047 0)"/>
       <use xlink:href="#DejaVuSans-30" transform="translate(95.410156 0)"/>
      </g>
     </g>
    </g>
    <g id="text_22">
     <!-- segments / second -->
     <g transform="translate(463.962187 243.260688) rotate(-90) scale(0.12 -0.12)">
      <defs>
       <path id="DejaVuSans-67" d="M 2906 1791 
Q 2906 2416 2648 2759 
Q 2391 3103 1925 3103 
Q 1463 3103 1205 2759 
Q 947 2416 947 1791 
Q 947 1169 1205 825 
Q 1463 481 1925 481 
Q 2391 481 2648 825 
Q 2906 1169 2906 1791 
z
M 3481 434 
Q 3481 -459 3084 -895 
Q 2688 -1331 1869 -1331 
Q 1566 -1331 1297 -1286 
Q 1028 -1241 775 -1147 
L 775 -588 
Q 1028 -725 1275 -790 
Q 1522 -856 1778 -856 
Q 2344 -856 2625 -561 
Q 2906 -266 2906 331 
L 2906 616 
Q 2728 306 2450 153 
Q 2172 0 1784 0 
Q 1141 0 747 490 
Q 353 981 353 1791 
Q 353 2603 747 3093 
Q 1141 3584 1784 3584 
Q 2172 3584 2450 3431 
Q 2728 3278 2906 2969 
L 2906 3500 
L 3481 3500 
L 3481 434 
z
" transform="scale(0.015625)"/>
       <path id="DejaVuSans-2f" d="M 1625 4666 
L 2156 4666 
L 531 -594 
L 0 -594 
L 1625 4666 
z
" transform="scale(0.015625)"/>
      </defs>
      <use xlink:href="#DejaVuSans-73"/>
      <use xlink:href="#DejaVuSans-65" transform="translate(52.099609 0)"/>
      <use xlink:href="#DejaVuSans-67" transform="translate(113.623047 0)"/>
      <use xlink:href="#DejaVuSans-6d" transform="translate(177.099609 0)"/>
      <use xlink:href="#DejaVuSans-65" transform="translate(274.511719 0)"/>
      <use xlink:href="#DejaVuSans-6e" transform="translate(336.035156 0)"/>
      <use xlink:href="#DejaVuSans-74" transform="translate(399.414062 0)"/>
      <use xlink:href="#DejaVuSans-73" transform="translate(438.623047 0)"/>
      <use xlink:href="#DejaVuSans-20" transform="translate(490.722656 0)"/>
      <use xlink:href="#DejaVuSans-2f" transform="translate(522.509766 0)"/>
      <use xlink:href="#DejaVuSans-20" transform="translate(556.201172 0)"/>
      <use xlink:href="#DejaVuSans-73" transform="translate(587.988281 0)"/>
      <use xlink:href="#DejaVuSans-65" transform="translate(640.087891 0)"/>
      <use xlink:href="#DejaVuSans-63" transform="translate(701.611328 0)"/>
      <use xlink:href="#DejaVuSans-6f" transform="translate(756.591797 0)"/>
      <use xlink:href="#DejaVuSans-6e" transform="translate(817.773438 0)"/>
      <use xlink:href="#DejaVuSans-64" transform="translate(881.152344 0)"/>
     </g>
    </g>
   </g>
   <g id="FillBetweenPolyCollection_3">
    <defs>
     <path id="m40ef5af7a2" d="M 626.595544 -66.737983 
L 538.006956 -66.737983 
L 536.063787 -69.529961 
L 534.111143 -72.321939 
L 532.155242 -75.113916 
L 530.202653 -77.905894 
L 528.26027 -80.697872 
L 526.335277 -83.48985 
L 524.435106 -86.281827 
L 522.567396 -89.073805 
L 520.73994 -91.865783 
L 518.960635 -94.657761 
L 517.237417 -97.449738 
L 515.578203 -100.241716 
L 513.990825 -103.033694 
L 512.482965 -105.825672 
L 511.062082 -108.617649 
L 509.735349 -111.409627 
L 508.509585 -114.201605 
L 507.391184 -116.993583 
L 506.386061 -119.78556 
L 505.499584 -122.577538 
L 504.736526 -125.369516 
L 504.101014 -128.161493 
L 503.596485 -130.953471 
L 503.225654 -133.745449 
L 502.990482 -136.537427 
L 502.892159 -139.329404 
L 502.93109 -142.121382 
L 503.106892 -144.91336 
L 503.4184 -147.705338 
L 503.863676 -150.497315 
L 504.440036 -153.289293 
L 505.14407 -156.081271 
L 505.971685 -158.873249 
L 506.918139 -161.665226 
L 507.978092 -164.457204 
L 509.145656 -167.249182 
L 510.414448 -170.04116 
L 511.777651 -172.833137 
L 513.228074 -175.625115 
L 514.758207 -178.417093 
L 516.360291 -181.209071 
L 518.026374 -184.001048 
L 519.748372 -186.793026 
L 521.518126 -189.585004 
L 523.327461 -192.376982 
L 525.168236 -195.168959 
L 527.032395 -197.960937 
L 528.912014 -200.752915 
L 530.799343 -203.544893 
L 532.686846 -206.33687 
L 534.567235 -209.128848 
L 536.433504 -211.920826 
L 538.278955 -214.712804 
L 540.097224 -217.504781 
L 541.882305 -220.296759 
L 543.628562 -223.088737 
L 545.330754 -225.880714 
L 546.984039 -228.672692 
L 548.583996 -231.46467 
L 550.126623 -234.256648 
L 551.608353 -237.048625 
L 553.026057 -239.840603 
L 554.377046 -242.632581 
L 555.659078 -245.424559 
L 556.870357 -248.216536 
L 558.009529 -251.008514 
L 559.07569 -253.800492 
L 560.068373 -256.59247 
L 560.987549 -259.384447 
L 561.833618 -262.176425 
L 562.607402 -264.968403 
L 563.310133 -267.760381 
L 563.943443 -270.552358 
L 564.509344 -273.344336 
L 565.010218 -276.136314 
L 565.44879 -278.928292 
L 565.828109 -281.720269 
L 566.151525 -284.512247 
L 566.422659 -287.304225 
L 566.645374 -290.096203 
L 566.823743 -292.88818 
L 566.962014 -295.680158 
L 567.064577 -298.472136 
L 567.135925 -301.264114 
L 567.180613 -304.056091 
L 567.203224 -306.848069 
L 567.208323 -309.640047 
L 567.200422 -312.432025 
L 567.183938 -315.224002 
L 567.163155 -318.01598 
L 567.142189 -320.807958 
L 567.124951 -323.599936 
L 567.115115 -326.391913 
L 567.116087 -329.183891 
L 567.130982 -331.975869 
L 567.162598 -334.767846 
L 567.213396 -337.559824 
L 567.28549 -340.351802 
L 567.380632 -343.14378 
L 597.221868 -343.14378 
L 597.221868 -343.14378 
L 597.31701 -340.351802 
L 597.389104 -337.559824 
L 597.439902 -334.767846 
L 597.471518 -331.975869 
L 597.486413 -329.183891 
L 597.487385 -326.391913 
L 597.477549 -323.599936 
L 597.460311 -320.807958 
L 597.439345 -318.01598 
L 597.418562 -315.224002 
L 597.402078 -312.432025 
L 597.394177 -309.640047 
L 597.399276 -306.848069 
L 597.421887 -304.056091 
L 597.466575 -301.264114 
L 597.537923 -298.472136 
L 597.640486 -295.680158 
L 597.778757 -292.88818 
L 597.957126 -290.096203 
L 598.179841 -287.304225 
L 598.450975 -284.512247 
L 598.774391 -281.720269 
L 599.15371 -278.928292 
L 599.592282 -276.136314 
L 600.093156 -273.344336 
L 600.659057 -270.552358 
L 601.292367 -267.760381 
L 601.995098 -264.968403 
L 602.768882 -262.176425 
L 603.614951 -259.384447 
L 604.534127 -256.59247 
L 605.52681 -253.800492 
L 606.592971 -251.008514 
L 607.732143 -248.216536 
L 608.943422 -245.424559 
L 610.225454 -242.632581 
L 611.576443 -239.840603 
L 612.994147 -237.048625 
L 614.475877 -234.256648 
L 616.018504 -231.46467 
L 617.618461 -228.672692 
L 619.271746 -225.880714 
L 620.973938 -223.088737 
L 622.720195 -220.296759 
L 624.505276 -217.504781 
L 626.323545 -214.712804 
L 628.168996 -211.920826 
L 630.035265 -209.128848 
L 631.915654 -206.33687 
L 633.803157 -203.544893 
L 635.690486 -200.752915 
L 637.570105 -197.960937 
L 639.434264 -195.168959 
L 641.275039 -192.376982 
L 643.084374 -189.585004 
L 644.854128 -186.793026 
L 646.576126 -184.001048 
L 648.242209 -181.209071 
L 649.844293 -178.417093 
L 651.374426 -175.625115 
L 652.824849 -172.833137 
L 654.188052 -170.04116 
L 655.456844 -167.249182 
L 656.624408 -164.457204 
L 657.684361 -161.665226 
L 658.630815 -158.873249 
L 659.45843 -156.081271 
L 660.162464 -153.289293 
L 660.738824 -150.497315 
L 661.1841 -147.705338 
L 661.495608 -144.91336 
L 661.67141 -142.121382 
L 661.710341 -139.329404 
L 661.612018 -136.537427 
L 661.376846 -133.745449 
L 661.006015 -130.953471 
L 660.501486 -128.161493 
L 659.865974 -125.369516 
L 659.102916 -122.577538 
L 658.216439 -119.78556 
L 657.211316 -116.993583 
L 656.092915 -114.201605 
L 654.867151 -111.409627 
L 653.540418 -108.617649 
L 652.119535 -105.825672 
L 650.611675 -103.033694 
L 649.024297 -100.241716 
L 647.365083 -97.449738 
L 645.641865 -94.657761 
L 643.86256 -91.865783 
L 642.035104 -89.073805 
L 640.167394 -86.281827 
L 638.267223 -83.48985 
L 636.34223 -80.697872 
L 634.399847 -77.905894 
L 632.447258 -75.113916 
L 630.491357 -72.321939 
L 628.538713 -69.529961 
L 626.595544 -66.737983 
z
" style="stroke: #c2410c; stroke-opacity: 0.35"/>
    </defs>
    <g clip-path="url(#pf5996ab2a1)">
     <use xlink:href="#m40ef5af7a2" x="0" y="391.52407" style="fill: #c2410c; fill-opacity: 0.35; stroke: #c2410c; stroke-opacity: 0.35"/>
    </g>
   </g>
   <g id="LineCollection_3">
    <path d="M 542.596705 252.849652 
L 622.005795 252.849652 
" clip-path="url(#pf5996ab2a1)" style="fill: none; stroke: #c2410c; stroke-width: 1.5"/>
   </g>
   <g id="patch_13">
    <path d="M 494.95125 338.606376 
L 494.95125 34.56 
" style="fill: none; stroke: #000000; stroke-width: 0.8; stroke-linejoin: miter; stroke-linecap: square"/>
   </g>
   <g id="patch_14">
    <path d="M 669.65125 338.606376 
L 669.65125 34.56 
" style="fill: none; stroke: #000000; stroke-width: 0.8; stroke-linejoin: miter; stroke-linecap: square"/>
   </g>
   <g id="patch_15">
    <path d="M 494.95125 338.606376 
L 669.65125 338.606376 
" style="fill: none; stroke: #000000; stroke-width: 0.8; stroke-linejoin: miter; stroke-linecap: square"/>
   </g>
   <g id="patch_16">
    <path d="M 494.95125 34.56 
L 669.65125 34.56 
" style="fill: none; stroke: #000000; stroke-width: 0.8; stroke-linejoin: miter; stroke-linecap: square"/>
   </g>
   <g id="PathCollection_3">
    <g clip-path="url(#pf5996ab2a1)">
     <use xlink:href="#m1f3eea34bd" x="582.30125" y="187.669996" style="fill: #111827; stroke: #111827"/>
    </g>
   </g>
   <g id="legend_1">
    <g id="patch_17">
     <path d="M 504.85125 310.272782 
L 526.85125 310.272782 
L 526.85125 302.572782 
L 504.85125 302.572782 
z
" style="fill: #c2410c; opacity: 0.35; stroke: #c2410c; stroke-linejoin: miter"/>
    </g>
    <g id="text_23">
     <!-- Reference group -->
     <g transform="translate(535.65125 310.272782) scale(0.11 -0.11)">
      <defs>
       <path id="DejaVuSans-52" d="M 2841 2188 
Q 3044 2119 3236 1894 
Q 3428 1669 3622 1275 
L 4263 0 
L 3584 0 
L 2988 1197 
Q 2756 1666 2539 1819 
Q 2322 1972 1947 1972 
L 1259 1972 
L 1259 0 
L 628 0 
L 628 4666 
L 2053 4666 
Q 2853 4666 3247 4331 
Q 3641 3997 3641 3322 
Q 3641 2881 3436 2590 
Q 3231 2300 2841 2188 
z
M 1259 4147 
L 1259 2491 
L 2053 2491 
Q 2509 2491 2742 2702 
Q 2975 2913 2975 3322 
Q 2975 3731 2742 3939 
Q 2509 4147 2053 4147 
L 1259 4147 
z
" transform="scale(0.015625)"/>
       <path id="DejaVuSans-66" d="M 2375 4863 
L 2375 4384 
L 1825 4384 
Q 1516 4384 1395 4259 
Q 1275 4134 1275 3809 
L 1275 3500 
L 2222 3500 
L 2222 3053 
L 1275 3053 
L 1275 0 
L 697 0 
L 697 3053 
L 147 3053 
L 147 3500 
L 697 3500 
L 697 3744 
Q 697 4328 969 4595 
Q 1241 4863 1831 4863 
L 2375 4863 
z
" transform="scale(0.015625)"/>
      </defs>
      <use xlink:href="#DejaVuSans-52"/>
      <use xlink:href="#DejaVuSans-65" transform="translate(64.982422 0)"/>
      <use xlink:href="#DejaVuSans-66" transform="translate(126.505859 0)"/>
      <use xlink:href="#DejaVuSans-65" transform="translate(161.710938 0)"/>
      <use xlink:href="#DejaVuSans-72" transform="translate(223.234375 0)"/>
      <use xlink:href="#DejaVuSans-65" transform="translate(262.097656 0)"/>
      <use xlink:href="#DejaVuSans-6e" transform="translate(323.621094 0)"/>
      <use xlink:href="#DejaVuSans-63" transform="translate(387 0)"/>
      <use xlink:href="#DejaVuSans-65" transform="translate(441.980469 0)"/>
      <use xlink:href="#DejaVuSans-20" transform="translate(503.503906 0)"/>
      <use xlink:href="#DejaVuSans-67" transform="translate(535.291016 0)"/>
      <use xlink:href="#DejaVuSans-72" transform="translate(598.767578 0)"/>
      <use xlink:href="#DejaVuSans-6f" transform="translate(637.630859 0)"/>
      <use xlink:href="#DejaVuSans-75" transform="translate(698.8125 0)"/>
      <use xlink:href="#DejaVuSans-70" transform="translate(762.191406 0)"/>
     </g>
    </g>
    <g id="line2d_39">
     <defs>
      <path id="m43d989c851" d="M -0 4.242641 
L 4.242641 0 
L 0 -4.242641 
L -4.242641 -0 
z
" style="stroke: #111827; stroke-linejoin: miter"/>
     </defs>
     <g>
      <use xlink:href="#m43d989c851" x="515.85125" y="322.56872" style="fill: #111827; stroke: #111827; stroke-linejoin: miter"/>
     </g>
    </g>
    <g id="text_24">
     <!-- Patient -->
     <g transform="translate(535.65125 326.41872) scale(0.11 -0.11)">
      <use xlink:href="#DejaVuSans-50"/>
      <use xlink:href="#DejaVuSans-61" transform="translate(55.802734 0)"/>
      <use xlink:href="#DejaVuSans-74" transform="translate(117.082031 0)"/>
      <use xlink:href="#DejaVuSans-69" transform="translate(156.291016 0)"/>
      <use xlink:href="#DejaVuSans-65" transform="translate(184.074219 0)"/>
      <use xlink:href="#DejaVuSans-6e" transform="translate(245.597656 0)"/>
      <use xlink:href="#DejaVuSans-74" transform="translate(308.976562 0)"/>
     </g>
    </g>
   </g>
  </g>
  <g id="text_25">
   <!-- Autism spectrum condition (ASC) (female) -->
   <g transform="translate(190.509531 17.837812) scale(0.14 -0.14)">
    <defs>
     <path id="DejaVuSans-41" d="M 2188 4044 
L 1331 1722 
L 3047 1722 
L 2188 4044 
z
M 1831 4666 
L 2547 4666 
L 4325 0 
L 3669 0 
L 3244 1197 
L 1141 1197 
L 716 0 
L 50 0 
L 1831 4666 
z
" transform="scale(0.015625)"/>
     <path id="DejaVuSans-28" d="M 1984 4856 
Q 1566 4138 1362 3434 
Q 1159 2731 1159 2009 
Q 1159 1288 1364 580 
Q 1569 -128 1984 -844 
L 1484 -844 
Q 1016 -109 783 600 
Q 550 1309 550 2009 
Q 550 2706 781 3412 
Q 1013 4119 1484 4856 
L 1984 4856 
z
" transform="scale(0.015625)"/>
     <path id="DejaVuSans-43" d="M 4122 4306 
L 4122 3641 
Q 3803 3938 3442 4084 
Q 3081 4231 2675 4231 
Q 1875 4231 1450 3742 
Q 1025 3253 1025 2328 
Q 1025 1406 1450 917 
Q 1875 428 2675 428 
Q 3081 428 3442 575 
Q 3803 722 4122 1019 
L 4122 359 
Q 3791 134 3420 21 
Q 3050 -91 2638 -91 
Q 1578 -91 968 557 
Q 359 1206 359 2328 
Q 359 3453 968 4101 
Q 1578 4750 2638 4750 
Q 3056 4750 3426 4639 
Q 3797 4528 4122 4306 
z
" transform="scale(0.015625)"/>
     <path id="DejaVuSans-29" d="M 513 4856 
L 1013 4856 
Q 1481 4119 1714 3412 
Q 1947 2706 1947 2009 
Q 1947 1309 1714 600 
Q 1481 -109 1013 -844 
L 513 -844 
Q 928 -128 1133 580 
Q 1338 1288 1338 2009 
Q 1338 2731 1133 3434 
Q 928 4138 513 4856 
z
" transform="scale(0.015625)"/>
    </defs>
    <use xlink:href="#DejaVuSans-41"/>
    <use xlink:href="#DejaVuSans-75" transform="translate(68.408203 0)"/>
    <use xlink:href="#DejaVuSans-74" transform="translate(131.787109 0)"/>
    <use xlink:href="#DejaVuSans-69" transform="translate(170.996094 0)"/>
    <use xlink:href="#DejaVuSans-73" transform="translate(198.779297 0)"/>
    <use xlink:href="#DejaVuSans-6d" transform="translate(250.878906 0)"/>
    <use xlink:href="#DejaVuSans-20" transform="translate(348.291016 0)"/>
    <use xlink:href="#DejaVuSans-73" transform="translate(380.078125 0)"/>
    <use xlink:href="#DejaVuSans-70" transform="translate(432.177734 0)"/>
    <use xlink:href="#DejaVuSans-65" transform="translate(495.654297 0)"/>
    <use xlink:href="#DejaVuSans-63" transform="translate(557.177734 0)"/>
    <use xlink:href="#DejaVuSans-74" transform="translate(612.158203 0)"/>
    <use xlink:href="#DejaVuSans-72" transform="translate(651.367188 0)"/>
    <use xlink:href="#DejaVuSans-75" transform="translate(692.480469 0)"/>
    <use xlink:href="#DejaVuSans-6d" transform="translate(755.859375 0)"/>
    <use xlink:href="#DejaVuSans-20" transform="translate(853.271484 0)"/>
    <use xlink:href="#DejaVuSans-63" transform="translate(885.058594 0)"/>
    <use xlink:href="#DejaVuSans-6f" transform="translate(940.039062 0)"/>
    <use xlink:href="#DejaVuSans-6e" transform="translate(1001.220703 0)"/>
    <use xlink:href="#DejaVuSans-64" transform="translate(1064.599609 0)"/>
    <use xlink:href="#DejaVuSans-69" transform="translate(1128.076172 0)"/>
    <use xlink:href="#DejaVuSans-74" transform="translate(1155.859375 0)"/>
    <use xlink:href="#DejaVuSans-69" transform="translate(1195.068359 0)"/>
    <use xlink:href="#DejaVuSans-6f" transform="translate(1222.851562 0)"/>
    <use xlink:href="#DejaVuSans-6e" transform="translate(1284.033203 0)"/>
    <use xlink:href="#DejaVuSans-20" transform="translate(1347.412109 0)"/>
    <use xlink:href="#DejaVuSans-28" transform="translate(1379.199219 0)"/>
    <use xlink:href="#DejaVuSans-41" transform="translate(1418.212891 0)"/>
    <use xlink:href="#DejaVuSans-53" transform="translate(1486.621094 0)"/>
    <use xlink:href="#DejaVuSans-43" transform="translate(1550.097656 0)"/>
    <use xlink:href="#DejaVuSans-29" transform="translate(1619.921875 0)"/>
    <use xlink:href="#DejaVuSans-20" transform="translate(1658.935547 0)"/>
    <use xlink:href="#DejaVuSans-28" transform="translate(1690.722656 0)"/>
    <use xlink:href="#DejaVuSans-66" transform="translate(1729.736328 0)"/>
    <use xlink:href="#DejaVuSans-65" transform="translate(1764.941406 0)"/>
    <use xlink:href="#DejaVuSans-6d" transform="translate(1826.464844 0)"/>
    <use xlink:href="#DejaVuSans-61" transform="translate(1923.876953 0)"/>
    <use xlink:href="#DejaVuSans-6c" transform="translate(1985.15625 0)"/>
    <use xlink:href="#DejaVuSans-65" transform="translate(2012.939453 0)"/>
    <use xlink:href="#DejaVuSans-29" transform="translate(2074.462891 0)"/>
   </g>
  </g>
 </g>
 <defs>
  <clipPath id="p4281ec607c">
   <rect x="43.81125" y="34.56" width="174.7" height="304.046376"/>
  </clipPath>
  <clipPath id="pbea5e96521">
   <rect x="269.38125" y="34.56" width="174.7" height="304.046376"/>
  </clipPath>
  <clipPath id="pf5996ab2a1">
   <rect x="494.95125" y="34.56" width="174.7" height="304.046376"/>
  </clipPath>
 </defs>
</svg>
