<?xml version="1.0" encoding="utf-8" standalone="no"?>
<!DOCTYPE svg PUBLIC "-//W3C//DTD SVG 1.1//EN"
  "http://www.w3.org/Graphics/SVG/1.1/DTD/svg11.dtd">
<svg xmlns:xlink="http://www.w3.org/1999/xlink" width="676.85125pt" height="391.52407pt" viewBox="0 0 676.85125 391.52407" xmlns="http://www.w3.org/2000/svg" version="1.1">
 <metadata>
  <rdf:RDF xmlns:dc="http://purl.org/dc/elements/1.1/" xmlns:cc="http://creativecommons.org/ns#" xmlns:rdf="http://www.w3.org/1999/02/22-rdf-syntax-ns#">
   <cc:Work>
    <dc:type rdf:resource="http://purl.org/dc/dcmitype/StillImage"/>
    <dc:date>2026-06-14T18:58:53.235677</dc:date>
    <dc:format>image/svg+xml</dc:format>
    <dc:creator>
     <cc:Agent>
      <dc:title>Matplotlib v3.10.1, https://matplotlib.org/</dc:title>
     </cc:Agent>
    </dc:creator>
   </cc:Work>
  </rdf:RDF>
 </metadata>
 <defs>
  <style type="text/css">*{stroke-linejoin: round; stroke-linecap: butt}</style>
 </defs>
 <g id="figure_1">
  <g id="patch_1">
   <path d="M 0 391.52407 
L 676.85125 391.52407 
L 676.85125 0 
L 0 0 
z
" style="fill: #ffffff"/>
  </g>
  <g id="axes_1">
   <g id="patch_2">
    <path d="M 43.81125 338.606376 
L 159.319093 338.606376 
L 159.319093 35.71362 
L 43.81125 35.71362 
z
" style="fill: #ffffff"/>
   </g>
   <g id="matplotlib.axis_1">
    <g id="xtick_1">
     <g id="line2d_1">
      <path d="M 101.565172 338.606376 
L 101.565172 35.71362 
" clip-path="url(#p29f9e9bfa5)" style="fill: none; stroke: #b0b0b0; stroke-opacity: 0.2; stroke-width: 0.6; stroke-linecap: square"/>
     </g>
     <g id="line2d_2">
      <defs>
       <path id="mc29810c232" d="M 0 0 
L 0 3.5 
" style="stroke: #000000; stroke-width: 0.8"/>
      </defs>
      <g>
       <use xlink:href="#mc29810c232" x="101.565172" y="338.606376" style="stroke: #000000; stroke-width: 0.8"/>
      </g>
     </g>
     <g id="text_1">
      <!-- Pitch variability -->
      <g transform="translate(19.049593 375.631189) rotate(-15) scale(0.11 -0.11)">
       <defs>
        <path id="DejaVuSans-50" d="M 1259 4147 
L 1259 2394 
L 2053 2394 
Q 2494 2394 2734 2622 
Q 2975 2850 2975 3272 
Q 2975 3691 2734 3919 
Q 2494 4147 2053 4147 
L 1259 4147 
z
M 628 4666 
L 2053 4666 
Q 2838 4666 3239 4311 
Q 3641 3956 3641 3272 
Q 3641 2581 3239 2228 
Q 2838 1875 2053 1875 
L 1259 1875 
L 1259 0 
L 628 0 
L 628 4666 
z
" transform="scale(0.015625)"/>
        <path id="DejaVuSans-69" d="M 603 3500 
L 1178 3500 
L 1178 0 
L 603 0 
L 603 3500 
z
M 603 4863 
L 1178 4863 
L 1178 4134 
L 603 4134 
L 603 4863 
z
" transform="scale(0.015625)"/>
        <path id="DejaVuSans-74" d="M 1172 4494 
L 1172 3500 
L 2356 3500 
L 2356 3053 
L 1172 3053 
L 1172 1153 
Q 1172 725 1289 603 
Q 1406 481 1766 481 
L 2356 481 
L 2356 0 
L 1766 0 
Q 1100 0 847 248 
Q 594 497 594 1153 
L 594 3053 
L 172 3053 
L 172 3500 
L 594 3500 
L 594 4494 
L 1172 4494 
z
" transform="scale(0.015625)"/>
        <path id="DejaVuSans-63" d="M 3122 3366 
L 3122 2828 
Q 2878 2963 2633 3030 
Q 2388 3097 2138 3097 
Q 1578 3097 1268 2742 
Q 959 2388 959 1747 
Q 959 1106 1268 751 
Q 1578 397 2138 397 
Q 2388 397 2633 464 
Q 2878 531 3122 666 
L 3122 134 
Q 2881 22 2623 -34 
Q 2366 -91 2075 -91 
Q 1284 -91 818 406 
Q 353 903 353 1747 
Q 353 2603 823 3093 
Q 1294 3584 2113 3584 
Q 2378 3584 2631 3529 
Q 2884 3475 3122 3366 
z
" transform="scale(0.015625)"/>
        <path id="DejaVuSans-68" d="M 3513 2113 
L 3513 0 
L 2938 0 
L 2938 2094 
Q 2938 2591 2744 2837 
Q 2550 3084 2163 3084 
Q 1697 3084 1428 2787 
Q 1159 2491 1159 1978 
L 1159 0 
L 581 0 
L 581 4863 
L 1159 4863 
L 1159 2956 
Q 1366 3272 1645 3428 
Q 1925 3584 2291 3584 
Q 2894 3584 3203 3211 
Q 3513 2838 3513 2113 
z
" transform="scale(0.015625)"/>
        <path id="DejaVuSans-20" transform="scale(0.015625)"/>
        <path id="DejaVuSans-76" d="M 191 3500 
L 800 3500 
L 1894 563 
L 2988 3500 
L 3597 3500 
L 2284 0 
L 1503 0 
L 191 3500 
z
" transform="scale(0.015625)"/>
        <path id="DejaVuSans-61" d="M 2194 1759 
Q 1497 1759 1228 1600 
Q 959 1441 959 1056 
Q 959 750 1161 570 
Q 1363 391 1709 391 
Q 2188 391 2477 730 
Q 2766 1069 2766 1631 
L 2766 1759 
L 2194 1759 
z
M 3341 1997 
L 3341 0 
L 2766 0 
L 2766 531 
Q 2569 213 2275 61 
Q 1981 -91 1556 -91 
Q 1019 -91 701 211 
Q 384 513 384 1019 
Q 384 1609 779 1909 
Q 1175 2209 1959 2209 
L 2766 2209 
L 2766 2266 
Q 2766 2663 2505 2880 
Q 2244 3097 1772 3097 
Q 1472 3097 1187 3025 
Q 903 2953 641 2809 
L 641 3341 
Q 956 3463 1253 3523 
Q 1550 3584 1831 3584 
Q 2591 3584 2966 3190 
Q 3341 2797 3341 1997 
z
" transform="scale(0.015625)"/>
        <path id="DejaVuSans-72" d="M 2631 2963 
Q 2534 3019 2420 3045 
Q 2306 3072 2169 3072 
Q 1681 3072 1420 2755 
Q 1159 2438 1159 1844 
L 1159 0 
L 581 0 
L 581 3500 
L 1159 3500 
L 1159 2956 
Q 1341 3275 1631 3429 
Q 1922 3584 2338 3584 
Q 2397 3584 2469 3576 
Q 2541 3569 2628 3553 
L 2631 2963 
z
" transform="scale(0.015625)"/>
        <path id="DejaVuSans-62" d="M 3116 1747 
Q 3116 2381 2855 2742 
Q 2594 3103 2138 3103 
Q 1681 3103 1420 2742 
Q 1159 2381 1159 1747 
Q 1159 1113 1420 752 
Q 1681 391 2138 391 
Q 2594 391 2855 752 
Q 3116 1113 3116 1747 
z
M 1159 2969 
Q 1341 3281 1617 3432 
Q 1894 3584 2278 3584 
Q 2916 3584 3314 3078 
Q 3713 2572 3713 1747 
Q 3713 922 3314 415 
Q 2916 -91 2278 -91 
Q 1894 -91 1617 61 
Q 1341 213 1159 525 
L 1159 0 
L 581 0 
L 581 4863 
L 1159 4863 
L 1159 2969 
z
" transform="scale(0.015625)"/>
        <path id="DejaVuSans-6c" d="M 603 4863 
L 1178 4863 
L 1178 0 
L 603 0 
L 603 4863 
z
" transform="scale(0.015625)"/>
        <path id="DejaVuSans-79" d="M 2059 -325 
Q 1816 -950 1584 -1140 
Q 1353 -1331 966 -1331 
L 506 -1331 
L 506 -850 
L 844 -850 
Q 1081 -850 1212 -737 
Q 1344 -625 1503 -206 
L 1606 56 
L 191 3500 
L 800 3500 
L 1894 763 
L 2988 3500 
L 3597 3500 
L 2059 -325 
z
" transform="scale(0.015625)"/>
       </defs>
       <use xlink:href="#DejaVuSans-50"/>
       <use xlink:href="#DejaVuSans-69" transform="translate(58.052734 0)"/>
       <use xlink:href="#DejaVuSans-74" transform="translate(85.835938 0)"/>
       <use xlink:href="#DejaVuSans-63" transform="translate(125.044922 0)"/>
       <use xlink:href="#DejaVuSans-68" transform="translate(180.025391 0)"/>
       <use xlink:href="#DejaVuSans-20" transform="translate(243.404297 0)"/>
       <use xlink:href="#DejaVuSans-76" transform="translate(275.191406 0)"/>
       <use xlink:href="#DejaVuSans-61" transform="translate(334.371094 0)"/>
       <use xlink:href="#DejaVuSans-72" transform="translate(395.650391 0)"/>
       <use xlink:href="#DejaVuSans-69" transform="translate(436.763672 0)"/>
       <use xlink:href="#DejaVuSans-61" transform="translate(464.546875 0)"/>
       <use xlink:href="#DejaVuSans-62" transform="translate(525.826172 0)"/>
       <use xlink:href="#DejaVuSans-69" transform="translate(589.302734 0)"/>
       <use xlink:href="#DejaVuSans-6c" transform="translate(617.085938 0)"/>
       <use xlink:href="#DejaVuSans-69" transform="translate(644.869141 0)"/>
       <use xlink:href="#DejaVuSans-74" transform="translate(672.652344 0)"/>
       <use xlink:href="#DejaVuSans-79" transform="translate(711.861328 0)"/>
      </g>
     </g>
    </g>
   </g>
   <g id="matplotlib.axis_2">
    <g id="ytick_1">
     <g id="line2d_3">
      <path d="M 43.81125 313.403212 
L 159.319093 313.403212 
" clip-path="url(#p29f9e9bfa5)" style="fill: none; stroke: #b0b0b0; stroke-opacity: 0.2; stroke-width: 0.6; stroke-linecap: square"/>
     </g>
     <g id="line2d_4">
      <defs>
       <path id="mb42415ab3f" d="M 0 0 
L -3.5 0 
" style="stroke: #000000; stroke-width: 0.8"/>
      </defs>
      <g>
       <use xlink:href="#mb42415ab3f" x="43.81125" y="313.403212" style="stroke: #000000; stroke-width: 0.8"/>
      </g>
     </g>
     <g id="text_2">
      <!-- 5 -->
      <g transform="translate(29.8125 317.582353) scale(0.11 -0.11)">
       <defs>
        <path id="DejaVuSans-35" d="M 691 4666 
L 3169 4666 
L 3169 4134 
L 1269 4134 
L 1269 2991 
Q 1406 3038 1543 3061 
Q 1681 3084 1819 3084 
Q 2600 3084 3056 2656 
Q 3513 2228 3513 1497 
Q 3513 744 3044 326 
Q 2575 -91 1722 -91 
Q 1428 -91 1123 -41 
Q 819 9 494 109 
L 494 744 
Q 775 591 1075 516 
Q 1375 441 1709 441 
Q 2250 441 2565 725 
Q 2881 1009 2881 1497 
Q 2881 1984 2565 2268 
Q 2250 2553 1709 2553 
Q 1456 2553 1204 2497 
Q 953 2441 691 2322 
L 691 4666 
z
" transform="scale(0.015625)"/>
       </defs>
       <use xlink:href="#DejaVuSans-35"/>
      </g>
     </g>
    </g>
    <g id="ytick_2">
     <g id="line2d_5">
      <path d="M 43.81125 247.204065 
L 159.319093 247.204065 
" clip-path="url(#p29f9e9bfa5)" style="fill: none; stroke: #b0b0b0; stroke-opacity: 0.2; stroke-width: 0.6; stroke-linecap: square"/>
     </g>
     <g id="line2d_6">
      <g>
       <use xlink:href="#mb42415ab3f" x="43.81125" y="247.204065" style="stroke: #000000; stroke-width: 0.8"/>
      </g>
     </g>
     <g id="text_3">
      <!-- 10 -->
      <g transform="translate(22.81375 251.383206) scale(0.11 -0.11)">
       <defs>
        <path id="DejaVuSans-31" d="M 794 531 
L 1825 531 
L 1825 4091 
L 703 3866 
L 703 4441 
L 1819 4666 
L 2450 4666 
L 2450 531 
L 3481 531 
L 3481 0 
L 794 0 
L 794 531 
z
" transform="scale(0.015625)"/>
        <path id="DejaVuSans-30" d="M 2034 4250 
Q 1547 4250 1301 3770 
Q 1056 3291 1056 2328 
Q 1056 1369 1301 889 
Q 1547 409 2034 409 
Q 2525 409 2770 889 
Q 3016 1369 3016 2328 
Q 3016 3291 2770 3770 
Q 2525 4250 2034 4250 
z
M 2034 4750 
Q 2819 4750 3233 4129 
Q 3647 3509 3647 2328 
Q 3647 1150 3233 529 
Q 2819 -91 2034 -91 
Q 1250 -91 836 529 
Q 422 1150 422 2328 
Q 422 3509 836 4129 
Q 1250 4750 2034 4750 
z
" transform="scale(0.015625)"/>
       </defs>
       <use xlink:href="#DejaVuSans-31"/>
       <use xlink:href="#DejaVuSans-30" transform="translate(63.623047 0)"/>
      </g>
     </g>
    </g>
    <g id="ytick_3">
     <g id="line2d_7">
      <path d="M 43.81125 181.004918 
L 159.319093 181.004918 
" clip-path="url(#p29f9e9bfa5)" style="fill: none; stroke: #b0b0b0; stroke-opacity: 0.2; stroke-width: 0.6; stroke-linecap: square"/>
     </g>
     <g id="line2d_8">
      <g>
       <use xlink:href="#mb42415ab3f" x="43.81125" y="181.004918" style="stroke: #000000; stroke-width: 0.8"/>
      </g>
     </g>
     <g id="text_4">
      <!-- 15 -->
      <g transform="translate(22.81375 185.184059) scale(0.11 -0.11)">
       <use xlink:href="#DejaVuSans-31"/>
       <use xlink:href="#DejaVuSans-35" transform="translate(63.623047 0)"/>
      </g>
     </g>
    </g>
    <g id="ytick_4">
     <g id="line2d_9">
      <path d="M 43.81125 114.805771 
L 159.319093 114.805771 
" clip-path="url(#p29f9e9bfa5)" style="fill: none; stroke: #b0b0b0; stroke-opacity: 0.2; stroke-width: 0.6; stroke-linecap: square"/>
     </g>
     <g id="line2d_10">
      <g>
       <use xlink:href="#mb42415ab3f" x="43.81125" y="114.805771" style="stroke: #000000; stroke-width: 0.8"/>
      </g>
     </g>
     <g id="text_5">
      <!-- 20 -->
      <g transform="translate(22.81375 118.984912) scale(0.11 -0.11)">
       <defs>
        <path id="DejaVuSans-32" d="M 1228 531 
L 3431 531 
L 3431 0 
L 469 0 
L 469 531 
Q 828 903 1448 1529 
Q 2069 2156 2228 2338 
Q 2531 2678 2651 2914 
Q 2772 3150 2772 3378 
Q 2772 3750 2511 3984 
Q 2250 4219 1831 4219 
Q 1534 4219 1204 4116 
Q 875 4013 500 3803 
L 500 4441 
Q 881 4594 1212 4672 
Q 1544 4750 1819 4750 
Q 2544 4750 2975 4387 
Q 3406 4025 3406 3419 
Q 3406 3131 3298 2873 
Q 3191 2616 2906 2266 
Q 2828 2175 2409 1742 
Q 1991 1309 1228 531 
z
" transform="scale(0.015625)"/>
       </defs>
       <use xlink:href="#DejaVuSans-32"/>
       <use xlink:href="#DejaVuSans-30" transform="translate(63.623047 0)"/>
      </g>
     </g>
    </g>
    <g id="ytick_5">
     <g id="line2d_11">
      <path d="M 43.81125 48.606624 
L 159.319093 48.606624 
" clip-path="url(#p29f9e9bfa5)" style="fill: none; stroke: #b0b0b0; stroke-opacity: 0.2; stroke-width: 0.6; stroke-linecap: square"/>
     </g>
     <g id="line2d_12">
      <g>
       <use xlink:href="#mb42415ab3f" x="43.81125" y="48.606624" style="stroke: #000000; stroke-width: 0.8"/>
      </g>
     </g>
     <g id="text_6">
      <!-- 25 -->
      <g transform="translate(22.81375 52.785765) scale(0.11 -0.11)">
       <use xlink:href="#DejaVuSans-32"/>
       <use xlink:href="#DejaVuSans-35" transform="translate(63.623047 0)"/>
      </g>
     </g>
    </g>
    <g id="text_7">
     <!-- semitones -->
     <g transform="translate(16.318125 218.132186) rotate(-90) scale(0.12 -0.12)">
      <defs>
       <path id="DejaVuSans-73" d="M 2834 3397 
L 2834 2853 
Q 2591 2978 2328 3040 
Q 2066 3103 1784 3103 
Q 1356 3103 1142 2972 
Q 928 2841 928 2578 
Q 928 2378 1081 2264 
Q 1234 2150 1697 2047 
L 1894 2003 
Q 2506 1872 2764 1633 
Q 3022 1394 3022 966 
Q 3022 478 2636 193 
Q 2250 -91 1575 -91 
Q 1294 -91 989 -36 
Q 684 19 347 128 
L 347 722 
Q 666 556 975 473 
Q 1284 391 1588 391 
Q 1994 391 2212 530 
Q 2431 669 2431 922 
Q 2431 1156 2273 1281 
Q 2116 1406 1581 1522 
L 1381 1569 
Q 847 1681 609 1914 
Q 372 2147 372 2553 
Q 372 3047 722 3315 
Q 1072 3584 1716 3584 
Q 2034 3584 2315 3537 
Q 2597 3491 2834 3397 
z
" transform="scale(0.015625)"/>
       <path id="DejaVuSans-65" d="M 3597 1894 
L 3597 1613 
L 953 1613 
Q 991 1019 1311 708 
Q 1631 397 2203 397 
Q 2534 397 2845 478 
Q 3156 559 3463 722 
L 3463 178 
Q 3153 47 2828 -22 
Q 2503 -91 2169 -91 
Q 1331 -91 842 396 
Q 353 884 353 1716 
Q 353 2575 817 3079 
Q 1281 3584 2069 3584 
Q 2775 3584 3186 3129 
Q 3597 2675 3597 1894 
z
M 3022 2063 
Q 3016 2534 2758 2815 
Q 2500 3097 2075 3097 
Q 1594 3097 1305 2825 
Q 1016 2553 972 2059 
L 3022 2063 
z
" transform="scale(0.015625)"/>
       <path id="DejaVuSans-6d" d="M 3328 2828 
Q 3544 3216 3844 3400 
Q 4144 3584 4550 3584 
Q 5097 3584 5394 3201 
Q 5691 2819 5691 2113 
L 5691 0 
L 5113 0 
L 5113 2094 
Q 5113 2597 4934 2840 
Q 4756 3084 4391 3084 
Q 3944 3084 3684 2787 
Q 3425 2491 3425 1978 
L 3425 0 
L 2847 0 
L 2847 2094 
Q 2847 2600 2669 2842 
Q 2491 3084 2119 3084 
Q 1678 3084 1418 2786 
Q 1159 2488 1159 1978 
L 1159 0 
L 581 0 
L 581 3500 
L 1159 3500 
L 1159 2956 
Q 1356 3278 1631 3431 
Q 1906 3584 2284 3584 
Q 2666 3584 2933 3390 
Q 3200 3197 3328 2828 
z
" transform="scale(0.015625)"/>
       <path id="DejaVuSans-6f" d="M 1959 3097 
Q 1497 3097 1228 2736 
Q 959 2375 959 1747 
Q 959 1119 1226 758 
Q 1494 397 1959 397 
Q 2419 397 2687 759 
Q 2956 1122 2956 1747 
Q 2956 2369 2687 2733 
Q 2419 3097 1959 3097 
z
M 1959 3584 
Q 2709 3584 3137 3096 
Q 3566 2609 3566 1747 
Q 3566 888 3137 398 
Q 2709 -91 1959 -91 
Q 1206 -91 779 398 
Q 353 888 353 1747 
Q 353 2609 779 3096 
Q 1206 3584 1959 3584 
z
" transform="scale(0.015625)"/>
       <path id="DejaVuSans-6e" d="M 3513 2113 
L 3513 0 
L 2938 0 
L 2938 2094 
Q 2938 2591 2744 2837 
Q 2550 3084 2163 3084 
Q 1697 3084 1428 2787 
Q 1159 2491 1159 1978 
L 1159 0 
L 581 0 
L 581 3500 
L 1159 3500 
L 1159 2956 
Q 1366 3272 1645 3428 
Q 1925 3584 2291 3584 
Q 2894 3584 3203 3211 
Q 3513 2838 3513 2113 
z
" transform="scale(0.015625)"/>
      </defs>
      <use xlink:href="#DejaVuSans-73"/>
      <use xlink:href="#DejaVuSans-65" transform="translate(52.099609 0)"/>
      <use xlink:href="#DejaVuSans-6d" transform="translate(113.623047 0)"/>
      <use xlink:href="#DejaVuSans-69" transform="translate(211.035156 0)"/>
      <use xlink:href="#DejaVuSans-74" transform="translate(238.818359 0)"/>
      <use xlink:href="#DejaVuSans-6f" transform="translate(278.027344 0)"/>
      <use xlink:href="#DejaVuSans-6e" transform="translate(339.208984 0)"/>
      <use xlink:href="#DejaVuSans-65" transform="translate(402.587891 0)"/>
      <use xlink:href="#DejaVuSans-73" transform="translate(464.111328 0)"/>
     </g>
    </g>
   </g>
   <g id="FillBetweenPolyCollection_1">
    <defs>
     <path id="me31685fb57" d="M 138.527515 -66.685546 
L 64.602829 -66.685546 
L 63.30844 -69.46693 
L 62.03981 -72.248315 
L 60.802263 -75.029699 
L 59.601118 -77.811083 
L 58.441647 -80.592468 
L 57.329038 -83.373852 
L 56.268356 -86.155236 
L 55.264504 -88.936621 
L 54.322185 -91.718005 
L 53.445869 -94.499389 
L 52.639748 -97.280774 
L 51.907712 -100.062158 
L 51.253312 -102.843542 
L 50.679732 -105.624927 
L 50.189762 -108.406311 
L 49.785777 -111.187696 
L 49.469714 -113.96908 
L 49.243062 -116.750464 
L 49.106842 -119.531849 
L 49.061607 -122.313233 
L 49.10743 -125.094617 
L 49.243913 -127.876002 
L 49.470182 -130.657386 
L 49.784902 -133.43877 
L 50.186287 -136.220155 
L 50.672114 -139.001539 
L 51.239744 -141.782923 
L 51.886142 -144.564308 
L 52.607907 -147.345692 
L 53.401295 -150.127077 
L 54.26225 -152.908461 
L 55.18644 -155.689845 
L 56.169284 -158.47123 
L 57.20599 -161.252614 
L 58.291593 -164.033998 
L 59.420983 -166.815383 
L 60.588949 -169.596767 
L 61.790208 -172.378151 
L 63.019444 -175.159536 
L 64.271338 -177.94092 
L 65.540601 -180.722304 
L 66.822008 -183.503689 
L 68.110423 -186.285073 
L 69.40083 -189.066458 
L 70.688353 -191.847842 
L 71.968287 -194.629226 
L 73.23611 -197.410611 
L 74.487512 -200.191995 
L 75.7184 -202.973379 
L 76.924924 -205.754764 
L 78.103481 -208.536148 
L 79.250729 -211.317532 
L 80.363595 -214.098917 
L 81.43928 -216.880301 
L 82.475265 -219.661685 
L 83.469314 -222.44307 
L 84.419475 -225.224454 
L 85.324078 -228.005838 
L 86.181737 -230.787223 
L 86.991348 -233.568607 
L 87.752078 -236.349992 
L 88.463372 -239.131376 
L 89.124937 -241.91276 
L 89.736742 -244.694145 
L 90.299006 -247.475529 
L 90.812197 -250.256913 
L 91.277016 -253.038298 
L 91.694391 -255.819682 
L 92.06547 -258.601066 
L 92.391604 -261.382451 
L 92.674341 -264.163835 
L 92.915412 -266.945219 
L 93.116719 -269.726604 
L 93.280322 -272.507988 
L 93.408425 -275.289373 
L 93.503361 -278.070757 
L 93.567575 -280.852141 
L 93.603613 -283.633526 
L 93.614103 -286.41491 
L 93.601735 -289.196294 
L 93.569248 -291.977679 
L 93.519411 -294.759063 
L 93.455002 -297.540447 
L 93.378792 -300.321832 
L 93.293527 -303.103216 
L 93.201908 -305.8846 
L 93.106571 -308.665985 
L 93.010074 -311.447369 
L 92.914874 -314.228753 
L 92.823314 -317.010138 
L 92.737608 -319.791522 
L 92.65982 -322.572907 
L 92.591858 -325.354291 
L 92.535459 -328.135675 
L 92.492179 -330.91706 
L 92.463383 -333.698444 
L 92.450239 -336.479828 
L 92.453714 -339.261213 
L 92.474573 -342.042597 
L 110.65577 -342.042597 
L 110.65577 -342.042597 
L 110.676629 -339.261213 
L 110.680104 -336.479828 
L 110.66696 -333.698444 
L 110.638164 -330.91706 
L 110.594884 -328.135675 
L 110.538485 -325.354291 
L 110.470524 -322.572907 
L 110.392736 -319.791522 
L 110.307029 -317.010138 
L 110.215469 -314.228753 
L 110.120269 -311.447369 
L 110.023772 -308.665985 
L 109.928436 -305.8846 
L 109.836816 -303.103216 
L 109.751551 -300.321832 
L 109.675342 -297.540447 
L 109.610932 -294.759063 
L 109.561095 -291.977679 
L 109.528608 -289.196294 
L 109.51624 -286.41491 
L 109.52673 -283.633526 
L 109.562768 -280.852141 
L 109.626983 -278.070757 
L 109.721918 -275.289373 
L 109.850021 -272.507988 
L 110.013624 -269.726604 
L 110.214931 -266.945219 
L 110.456003 -264.163835 
L 110.738739 -261.382451 
L 111.064873 -258.601066 
L 111.435952 -255.819682 
L 111.853327 -253.038298 
L 112.318146 -250.256913 
L 112.831337 -247.475529 
L 113.393602 -244.694145 
L 114.005406 -241.91276 
L 114.666971 -239.131376 
L 115.378265 -236.349992 
L 116.138996 -233.568607 
L 116.948606 -230.787223 
L 117.806265 -228.005838 
L 118.710868 -225.224454 
L 119.661029 -222.44307 
L 120.655078 -219.661685 
L 121.691063 -216.880301 
L 122.766748 -214.098917 
L 123.879614 -211.317532 
L 125.026862 -208.536148 
L 126.205419 -205.754764 
L 127.411943 -202.973379 
L 128.642832 -200.191995 
L 129.894233 -197.410611 
L 131.162057 -194.629226 
L 132.44199 -191.847842 
L 133.729513 -189.066458 
L 135.01992 -186.285073 
L 136.308335 -183.503689 
L 137.589742 -180.722304 
L 138.859005 -177.94092 
L 140.110899 -175.159536 
L 141.340135 -172.378151 
L 142.541394 -169.596767 
L 143.70936 -166.815383 
L 144.838751 -164.033998 
L 145.924353 -161.252614 
L 146.961059 -158.47123 
L 147.943903 -155.689845 
L 148.868093 -152.908461 
L 149.729048 -150.127077 
L 150.522436 -147.345692 
L 151.244201 -144.564308 
L 151.8906 -141.782923 
L 152.458229 -139.001539 
L 152.944056 -136.220155 
L 153.345441 -133.43877 
L 153.660161 -130.657386 
L 153.88643 -127.876002 
L 154.022913 -125.094617 
L 154.068737 -122.313233 
L 154.023501 -119.531849 
L 153.887281 -116.750464 
L 153.660629 -113.96908 
L 153.344567 -111.187696 
L 152.940581 -108.406311 
L 152.450611 -105.624927 
L 151.877031 -102.843542 
L 151.222631 -100.062158 
L 150.490595 -97.280774 
L 149.684474 -94.499389 
L 148.808158 -91.718005 
L 147.86584 -88.936621 
L 146.861987 -86.155236 
L 145.801305 -83.373852 
L 144.688696 -80.592468 
L 143.529225 -77.811083 
L 142.32808 -75.029699 
L 141.090534 -72.248315 
L 139.821903 -69.46693 
L 138.527515 -66.685546 
z
" style="stroke: #c2410c; stroke-opacity: 0.35"/>
    </defs>
    <g clip-path="url(#p29f9e9bfa5)">
     <use xlink:href="#me31685fb57" x="0" y="391.52407" style="fill: #c2410c; fill-opacity: 0.35; stroke: #c2410c; stroke-opacity: 0.35"/>
    </g>
   </g>
   <g id="LineCollection_1">
    <path d="M 75.313389 265.650965 
L 127.816954 265.650965 
" clip-path="url(#p29f9e9bfa5)" style="fill: none; stroke: #c2410c; stroke-width: 1.5"/>
   </g>
   <g id="patch_3">
    <path d="M 43.81125 338.606376 
L 43.81125 35.71362 
" style="fill: none; stroke: #000000; stroke-width: 0.8; stroke-linejoin: miter; stroke-linecap: square"/>
   </g>
   <g id="patch_4">
    <path d="M 159.319093 338.606376 
L 159.319093 35.71362 
" style="fill: none; stroke: #000000; stroke-width: 0.8; stroke-linejoin: miter; stroke-linecap: square"/>
   </g>
   <g id="patch_5">
    <path d="M 43.81125 338.606376 
L 159.319093 338.606376 
" style="fill: none; stroke: #000000; stroke-width: 0.8; stroke-linejoin: miter; stroke-linecap: square"/>
   </g>
   <g id="patch_6">
    <path d="M 43.81125 35.71362 
L 159.319093 35.71362 
" style="fill: none; stroke: #000000; stroke-width: 0.8; stroke-linejoin: miter; stroke-linecap: square"/>
   </g>
   <g id="PathCollection_1">
    <defs>
     <path id="m34bbdbce4a" d="M -0 4.472136 
L 4.472136 0 
L 0 -4.472136 
L -4.472136 -0 
z
" style="stroke: #111827"/>
    </defs>
    <g clip-path="url(#p29f9e9bfa5)">
     <use xlink:href="#m34bbdbce4a" x="101.565172" y="324.838524" style="fill: #111827; stroke: #111827"/>
    </g>
   </g>
  </g>
  <g id="axes_2">
   <g id="patch_7">
    <path d="M 298.977328 338.606376 
L 414.485172 338.606376 
L 414.485172 35.71362 
L 298.977328 35.71362 
z
" style="fill: #ffffff"/>
   </g>
   <g id="matplotlib.axis_3">
    <g id="xtick_2">
     <g id="line2d_13">
      <path d="M 356.73125 338.606376 
L 356.73125 35.71362 
" clip-path="url(#p4b7d78e122)" style="fill: none; stroke: #b0b0b0; stroke-opacity: 0.2; stroke-width: 0.6; stroke-linecap: square"/>
     </g>
     <g id="line2d_14">
      <g>
       <use xlink:href="#mc29810c232" x="356.73125" y="338.606376" style="stroke: #000000; stroke-width: 0.8"/>
      </g>
     </g>
     <g id="text_8">
      <!-- Loudness variability -->
      <g transform="translate(250.020135 382.114363) rotate(-15) scale(0.11 -0.11)">
       <defs>
        <path id="DejaVuSans-4c" d="M 628 4666 
L 1259 4666 
L 1259 531 
L 3531 531 
L 3531 0 
L 628 0 
L 628 4666 
z
" transform="scale(0.015625)"/>
        <path id="DejaVuSans-75" d="M 544 1381 
L 544 3500 
L 1119 3500 
L 1119 1403 
Q 1119 906 1312 657 
Q 1506 409 1894 409 
Q 2359 409 2629 706 
Q 2900 1003 2900 1516 
L 2900 3500 
L 3475 3500 
L 3475 0 
L 2900 0 
L 2900 538 
Q 2691 219 2414 64 
Q 2138 -91 1772 -91 
Q 1169 -91 856 284 
Q 544 659 544 1381 
z
M 1991 3584 
L 1991 3584 
z
" transform="scale(0.015625)"/>
        <path id="DejaVuSans-64" d="M 2906 2969 
L 2906 4863 
L 3481 4863 
L 3481 0 
L 2906 0 
L 2906 525 
Q 2725 213 2448 61 
Q 2172 -91 1784 -91 
Q 1150 -91 751 415 
Q 353 922 353 1747 
Q 353 2572 751 3078 
Q 1150 3584 1784 3584 
Q 2172 3584 2448 3432 
Q 2725 3281 2906 2969 
z
M 947 1747 
Q 947 1113 1208 752 
Q 1469 391 1925 391 
Q 2381 391 2643 752 
Q 2906 1113 2906 1747 
Q 2906 2381 2643 2742 
Q 2381 3103 1925 3103 
Q 1469 3103 1208 2742 
Q 947 2381 947 1747 
z
" transform="scale(0.015625)"/>
       </defs>
       <use xlink:href="#DejaVuSans-4c"/>
       <use xlink:href="#DejaVuSans-6f" transform="translate(53.962891 0)"/>
       <use xlink:href="#DejaVuSans-75" transform="translate(115.144531 0)"/>
       <use xlink:href="#DejaVuSans-64" transform="translate(178.523438 0)"/>
       <use xlink:href="#DejaVuSans-6e" transform="translate(242 0)"/>
       <use xlink:href="#DejaVuSans-65" transform="translate(305.378906 0)"/>
       <use xlink:href="#DejaVuSans-73" transform="translate(366.902344 0)"/>
       <use xlink:href="#DejaVuSans-73" transform="translate(419.001953 0)"/>
       <use xlink:href="#DejaVuSans-20" transform="translate(471.101562 0)"/>
       <use xlink:href="#DejaVuSans-76" transform="translate(502.888672 0)"/>
       <use xlink:href="#DejaVuSans-61" transform="translate(562.068359 0)"/>
       <use xlink:href="#DejaVuSans-72" transform="translate(623.347656 0)"/>
       <use xlink:href="#DejaVuSans-69" transform="translate(664.460938 0)"/>
       <use xlink:href="#DejaVuSans-61" transform="translate(692.244141 0)"/>
       <use xlink:href="#DejaVuSans-62" transform="translate(753.523438 0)"/>
       <use xlink:href="#DejaVuSans-69" transform="translate(817 0)"/>
       <use xlink:href="#DejaVuSans-6c" transform="translate(844.783203 0)"/>
       <use xlink:href="#DejaVuSans-69" transform="translate(872.566406 0)"/>
       <use xlink:href="#DejaVuSans-74" transform="translate(900.349609 0)"/>
       <use xlink:href="#DejaVuSans-79" transform="translate(939.558594 0)"/>
      </g>
     </g>
    </g>
   </g>
   <g id="matplotlib.axis_4">
    <g id="ytick_6">
     <g id="line2d_15">
      <path d="M 298.977328 338.478401 
L 414.485172 338.478401 
" clip-path="url(#p4b7d78e122)" style="fill: none; stroke: #b0b0b0; stroke-opacity: 0.2; stroke-width: 0.6; stroke-linecap: square"/>
     </g>
     <g id="line2d_16">
      <g>
       <use xlink:href="#mb42415ab3f" x="298.977328" y="338.478401" style="stroke: #000000; stroke-width: 0.8"/>
      </g>
     </g>
     <g id="text_9">
      <!-- 0.8 -->
      <g transform="translate(274.483891 342.657542) scale(0.11 -0.11)">
       <defs>
        <path id="DejaVuSans-2e" d="M 684 794 
L 1344 794 
L 1344 0 
L 684 0 
L 684 794 
z
" transform="scale(0.015625)"/>
        <path id="DejaVuSans-38" d="M 2034 2216 
Q 1584 2216 1326 1975 
Q 1069 1734 1069 1313 
Q 1069 891 1326 650 
Q 1584 409 2034 409 
Q 2484 409 2743 651 
Q 3003 894 3003 1313 
Q 3003 1734 2745 1975 
Q 2488 2216 2034 2216 
z
M 1403 2484 
Q 997 2584 770 2862 
Q 544 3141 544 3541 
Q 544 4100 942 4425 
Q 1341 4750 2034 4750 
Q 2731 4750 3128 4425 
Q 3525 4100 3525 3541 
Q 3525 3141 3298 2862 
Q 3072 2584 2669 2484 
Q 3125 2378 3379 2068 
Q 3634 1759 3634 1313 
Q 3634 634 3220 271 
Q 2806 -91 2034 -91 
Q 1263 -91 848 271 
Q 434 634 434 1313 
Q 434 1759 690 2068 
Q 947 2378 1403 2484 
z
M 1172 3481 
Q 1172 3119 1398 2916 
Q 1625 2713 2034 2713 
Q 2441 2713 2670 2916 
Q 2900 3119 2900 3481 
Q 2900 3844 2670 4047 
Q 2441 4250 2034 4250 
Q 1625 4250 1398 4047 
Q 1172 3844 1172 3481 
z
" transform="scale(0.015625)"/>
       </defs>
       <use xlink:href="#DejaVuSans-30"/>
       <use xlink:href="#DejaVuSans-2e" transform="translate(63.623047 0)"/>
       <use xlink:href="#DejaVuSans-38" transform="translate(95.410156 0)"/>
      </g>
     </g>
    </g>
    <g id="ytick_7">
     <g id="line2d_17">
      <path d="M 298.977328 278.53067 
L 414.485172 278.53067 
" clip-path="url(#p4b7d78e122)" style="fill: none; stroke: #b0b0b0; stroke-opacity: 0.2; stroke-width: 0.6; stroke-linecap: square"/>
     </g>
     <g id="line2d_18">
      <g>
       <use xlink:href="#mb42415ab3f" x="298.977328" y="278.53067" style="stroke: #000000; stroke-width: 0.8"/>
      </g>
     </g>
     <g id="text_10">
      <!-- 0.9 -->
      <g transform="translate(274.483891 282.709811) scale(0.11 -0.11)">
       <defs>
        <path id="DejaVuSans-39" d="M 703 97 
L 703 672 
Q 941 559 1184 500 
Q 1428 441 1663 441 
Q 2288 441 2617 861 
Q 2947 1281 2994 2138 
Q 2813 1869 2534 1725 
Q 2256 1581 1919 1581 
Q 1219 1581 811 2004 
Q 403 2428 403 3163 
Q 403 3881 828 4315 
Q 1253 4750 1959 4750 
Q 2769 4750 3195 4129 
Q 3622 3509 3622 2328 
Q 3622 1225 3098 567 
Q 2575 -91 1691 -91 
Q 1453 -91 1209 -44 
Q 966 3 703 97 
z
M 1959 2075 
Q 2384 2075 2632 2365 
Q 2881 2656 2881 3163 
Q 2881 3666 2632 3958 
Q 2384 4250 1959 4250 
Q 1534 4250 1286 3958 
Q 1038 3666 1038 3163 
Q 1038 2656 1286 2365 
Q 1534 2075 1959 2075 
z
" transform="scale(0.015625)"/>
       </defs>
       <use xlink:href="#DejaVuSans-30"/>
       <use xlink:href="#DejaVuSans-2e" transform="translate(63.623047 0)"/>
       <use xlink:href="#DejaVuSans-39" transform="translate(95.410156 0)"/>
      </g>
     </g>
    </g>
    <g id="ytick_8">
     <g id="line2d_19">
      <path d="M 298.977328 218.582939 
L 414.485172 218.582939 
" clip-path="url(#p4b7d78e122)" style="fill: none; stroke: #b0b0b0; stroke-opacity: 0.2; stroke-width: 0.6; stroke-linecap: square"/>
     </g>
     <g id="line2d_20">
      <g>
       <use xlink:href="#mb42415ab3f" x="298.977328" y="218.582939" style="stroke: #000000; stroke-width: 0.8"/>
      </g>
     </g>
     <g id="text_11">
      <!-- 1.0 -->
      <g transform="translate(274.483891 222.76208) scale(0.11 -0.11)">
       <use xlink:href="#DejaVuSans-31"/>
       <use xlink:href="#DejaVuSans-2e" transform="translate(63.623047 0)"/>
       <use xlink:href="#DejaVuSans-30" transform="translate(95.410156 0)"/>
      </g>
     </g>
    </g>
    <g id="ytick_9">
     <g id="line2d_21">
      <path d="M 298.977328 158.635208 
L 414.485172 158.635208 
" clip-path="url(#p4b7d78e122)" style="fill: none; stroke: #b0b0b0; stroke-opacity: 0.2; stroke-width: 0.6; stroke-linecap: square"/>
     </g>
     <g id="line2d_22">
      <g>
       <use xlink:href="#mb42415ab3f" x="298.977328" y="158.635208" style="stroke: #000000; stroke-width: 0.8"/>
      </g>
     </g>
     <g id="text_12">
      <!-- 1.1 -->
      <g transform="translate(274.483891 162.814349) scale(0.11 -0.11)">
       <use xlink:href="#DejaVuSans-31"/>
       <use xlink:href="#DejaVuSans-2e" transform="translate(63.623047 0)"/>
       <use xlink:href="#DejaVuSans-31" transform="translate(95.410156 0)"/>
      </g>
     </g>
    </g>
    <g id="ytick_10">
     <g id="line2d_23">
      <path d="M 298.977328 98.687477 
L 414.485172 98.687477 
" clip-path="url(#p4b7d78e122)" style="fill: none; stroke: #b0b0b0; stroke-opacity: 0.2; stroke-width: 0.6; stroke-linecap: square"/>
     </g>
     <g id="line2d_24">
      <g>
       <use xlink:href="#mb42415ab3f" x="298.977328" y="98.687477" style="stroke: #000000; stroke-width: 0.8"/>
      </g>
     </g>
     <g id="text_13">
      <!-- 1.2 -->
      <g transform="translate(274.483891 102.866618) scale(0.11 -0.11)">
       <use xlink:href="#DejaVuSans-31"/>
       <use xlink:href="#DejaVuSans-2e" transform="translate(63.623047 0)"/>
       <use xlink:href="#DejaVuSans-32" transform="translate(95.410156 0)"/>
      </g>
     </g>
    </g>
    <g id="ytick_11">
     <g id="line2d_25">
      <path d="M 298.977328 38.739746 
L 414.485172 38.739746 
" clip-path="url(#p4b7d78e122)" style="fill: none; stroke: #b0b0b0; stroke-opacity: 0.2; stroke-width: 0.6; stroke-linecap: square"/>
     </g>
     <g id="line2d_26">
      <g>
       <use xlink:href="#mb42415ab3f" x="298.977328" y="38.739746" style="stroke: #000000; stroke-width: 0.8"/>
      </g>
     </g>
     <g id="text_14">
      <!-- 1.3 -->
      <g transform="translate(274.483891 42.918887) scale(0.11 -0.11)">
       <defs>
        <path id="DejaVuSans-33" d="M 2597 2516 
Q 3050 2419 3304 2112 
Q 3559 1806 3559 1356 
Q 3559 666 3084 287 
Q 2609 -91 1734 -91 
Q 1441 -91 1130 -33 
Q 819 25 488 141 
L 488 750 
Q 750 597 1062 519 
Q 1375 441 1716 441 
Q 2309 441 2620 675 
Q 2931 909 2931 1356 
Q 2931 1769 2642 2001 
Q 2353 2234 1838 2234 
L 1294 2234 
L 1294 2753 
L 1863 2753 
Q 2328 2753 2575 2939 
Q 2822 3125 2822 3475 
Q 2822 3834 2567 4026 
Q 2313 4219 1838 4219 
Q 1578 4219 1281 4162 
Q 984 4106 628 3988 
L 628 4550 
Q 988 4650 1302 4700 
Q 1616 4750 1894 4750 
Q 2613 4750 3031 4423 
Q 3450 4097 3450 3541 
Q 3450 3153 3228 2886 
Q 3006 2619 2597 2516 
z
" transform="scale(0.015625)"/>
       </defs>
       <use xlink:href="#DejaVuSans-31"/>
       <use xlink:href="#DejaVuSans-2e" transform="translate(63.623047 0)"/>
       <use xlink:href="#DejaVuSans-33" transform="translate(95.410156 0)"/>
      </g>
     </g>
    </g>
    <g id="text_15">
     <!-- normalized SD -->
     <g transform="translate(267.988266 230.836248) rotate(-90) scale(0.12 -0.12)">
      <defs>
       <path id="DejaVuSans-7a" d="M 353 3500 
L 3084 3500 
L 3084 2975 
L 922 459 
L 3084 459 
L 3084 0 
L 275 0 
L 275 525 
L 2438 3041 
L 353 3041 
L 353 3500 
z
" transform="scale(0.015625)"/>
       <path id="DejaVuSans-53" d="M 3425 4513 
L 3425 3897 
Q 3066 4069 2747 4153 
Q 2428 4238 2131 4238 
Q 1616 4238 1336 4038 
Q 1056 3838 1056 3469 
Q 1056 3159 1242 3001 
Q 1428 2844 1947 2747 
L 2328 2669 
Q 3034 2534 3370 2195 
Q 3706 1856 3706 1288 
Q 3706 609 3251 259 
Q 2797 -91 1919 -91 
Q 1588 -91 1214 -16 
Q 841 59 441 206 
L 441 856 
Q 825 641 1194 531 
Q 1563 422 1919 422 
Q 2459 422 2753 634 
Q 3047 847 3047 1241 
Q 3047 1584 2836 1778 
Q 2625 1972 2144 2069 
L 1759 2144 
Q 1053 2284 737 2584 
Q 422 2884 422 3419 
Q 422 4038 858 4394 
Q 1294 4750 2059 4750 
Q 2388 4750 2728 4690 
Q 3069 4631 3425 4513 
z
" transform="scale(0.015625)"/>
       <path id="DejaVuSans-44" d="M 1259 4147 
L 1259 519 
L 2022 519 
Q 2988 519 3436 956 
Q 3884 1394 3884 2338 
Q 3884 3275 3436 3711 
Q 2988 4147 2022 4147 
L 1259 4147 
z
M 628 4666 
L 1925 4666 
Q 3281 4666 3915 4102 
Q 4550 3538 4550 2338 
Q 4550 1131 3912 565 
Q 3275 0 1925 0 
L 628 0 
L 628 4666 
z
" transform="scale(0.015625)"/>
      </defs>
      <use xlink:href="#DejaVuSans-6e"/>
      <use xlink:href="#DejaVuSans-6f" transform="translate(63.378906 0)"/>
      <use xlink:href="#DejaVuSans-72" transform="translate(124.560547 0)"/>
      <use xlink:href="#DejaVuSans-6d" transform="translate(163.923828 0)"/>
      <use xlink:href="#DejaVuSans-61" transform="translate(261.335938 0)"/>
      <use xlink:href="#DejaVuSans-6c" transform="translate(322.615234 0)"/>
      <use xlink:href="#DejaVuSans-69" transform="translate(350.398438 0)"/>
      <use xlink:href="#DejaVuSans-7a" transform="translate(378.181641 0)"/>
      <use xlink:href="#DejaVuSans-65" transform="translate(430.671875 0)"/>
      <use xlink:href="#DejaVuSans-64" transform="translate(492.195312 0)"/>
      <use xlink:href="#DejaVuSans-20" transform="translate(555.671875 0)"/>
      <use xlink:href="#DejaVuSans-53" transform="translate(587.458984 0)"/>
      <use xlink:href="#DejaVuSans-44" transform="translate(650.935547 0)"/>
     </g>
    </g>
   </g>
   <g id="FillBetweenPolyCollection_2">
    <defs>
     <path id="mab1f5f4c29" d="M 389.630939 -66.685546 
L 323.831561 -66.685546 
L 323.296381 -69.46693 
L 322.77617 -72.248315 
L 322.270499 -75.029699 
L 321.778836 -77.811083 
L 321.300557 -80.592468 
L 320.834956 -83.373852 
L 320.381257 -86.155236 
L 319.938627 -88.936621 
L 319.506189 -91.718005 
L 319.083033 -94.499389 
L 318.668236 -97.280774 
L 318.260868 -100.062158 
L 317.860012 -102.843542 
L 317.464775 -105.624927 
L 317.074298 -108.406311 
L 316.687774 -111.187696 
L 316.304455 -113.96908 
L 315.923662 -116.750464 
L 315.544796 -119.531849 
L 315.167343 -122.313233 
L 314.790886 -125.094617 
L 314.4151 -127.876002 
L 314.039766 -130.657386 
L 313.664763 -133.43877 
L 313.290078 -136.220155 
L 312.915794 -139.001539 
L 312.542095 -141.782923 
L 312.16926 -144.564308 
L 311.797655 -147.345692 
L 311.42773 -150.127077 
L 311.060006 -152.908461 
L 310.695072 -155.689845 
L 310.333573 -158.47123 
L 309.976201 -161.252614 
L 309.623681 -164.033998 
L 309.276766 -166.815383 
L 308.936226 -169.596767 
L 308.602833 -172.378151 
L 308.277356 -175.159536 
L 307.960551 -177.94092 
L 307.653149 -180.722304 
L 307.355854 -183.503689 
L 307.069333 -186.285073 
L 306.79421 -189.066458 
L 306.531064 -191.847842 
L 306.280424 -194.629226 
L 306.042767 -197.410611 
L 305.81852 -200.191995 
L 305.608058 -202.973379 
L 305.411705 -205.754764 
L 305.229742 -208.536148 
L 305.062406 -211.317532 
L 304.909896 -214.098917 
L 304.772382 -216.880301 
L 304.650008 -219.661685 
L 304.542901 -222.44307 
L 304.451178 -225.224454 
L 304.374954 -228.005838 
L 304.314348 -230.787223 
L 304.269495 -233.568607 
L 304.240547 -236.349992 
L 304.227685 -239.131376 
L 304.231122 -241.91276 
L 304.251111 -244.694145 
L 304.287947 -247.475529 
L 304.341971 -250.256913 
L 304.413573 -253.038298 
L 304.503193 -255.819682 
L 304.611319 -258.601066 
L 304.738489 -261.382451 
L 304.885285 -264.163835 
L 305.052329 -266.945219 
L 305.240283 -269.726604 
L 305.449833 -272.507988 
L 305.681691 -275.289373 
L 305.93658 -278.070757 
L 306.215229 -280.852141 
L 306.51836 -283.633526 
L 306.846679 -286.41491 
L 307.200862 -289.196294 
L 307.581549 -291.977679 
L 307.989327 -294.759063 
L 308.424722 -297.540447 
L 308.888188 -300.321832 
L 309.380094 -303.103216 
L 309.900716 -305.8846 
L 310.450226 -308.665985 
L 311.028685 -311.447369 
L 311.636037 -314.228753 
L 312.272098 -317.010138 
L 312.936555 -319.791522 
L 313.628962 -322.572907 
L 314.348734 -325.354291 
L 315.095151 -328.135675 
L 315.867355 -330.91706 
L 316.664352 -333.698444 
L 317.485017 -336.479828 
L 318.328097 -339.261213 
L 319.192217 -342.042597 
L 394.270283 -342.042597 
L 394.270283 -342.042597 
L 395.134403 -339.261213 
L 395.977483 -336.479828 
L 396.798148 -333.698444 
L 397.595145 -330.91706 
L 398.367349 -328.135675 
L 399.113766 -325.354291 
L 399.833538 -322.572907 
L 400.525945 -319.791522 
L 401.190402 -317.010138 
L 401.826463 -314.228753 
L 402.433815 -311.447369 
L 403.012274 -308.665985 
L 403.561784 -305.8846 
L 404.082406 -303.103216 
L 404.574312 -300.321832 
L 405.037778 -297.540447 
L 405.473173 -294.759063 
L 405.880951 -291.977679 
L 406.261638 -289.196294 
L 406.615821 -286.41491 
L 406.94414 -283.633526 
L 407.247271 -280.852141 
L 407.52592 -278.070757 
L 407.780809 -275.289373 
L 408.012667 -272.507988 
L 408.222217 -269.726604 
L 408.410171 -266.945219 
L 408.577215 -264.163835 
L 408.724011 -261.382451 
L 408.851181 -258.601066 
L 408.959307 -255.819682 
L 409.048927 -253.038298 
L 409.120529 -250.256913 
L 409.174553 -247.475529 
L 409.211389 -244.694145 
L 409.231378 -241.91276 
L 409.234815 -239.131376 
L 409.221953 -236.349992 
L 409.193005 -233.568607 
L 409.148152 -230.787223 
L 409.087546 -228.005838 
L 409.011322 -225.224454 
L 408.919599 -222.44307 
L 408.812492 -219.661685 
L 408.690118 -216.880301 
L 408.552604 -214.098917 
L 408.400094 -211.317532 
L 408.232758 -208.536148 
L 408.050795 -205.754764 
L 407.854442 -202.973379 
L 407.64398 -200.191995 
L 407.419733 -197.410611 
L 407.182076 -194.629226 
L 406.931436 -191.847842 
L 406.66829 -189.066458 
L 406.393167 -186.285073 
L 406.106646 -183.503689 
L 405.809351 -180.722304 
L 405.501949 -177.94092 
L 405.185144 -175.159536 
L 404.859667 -172.378151 
L 404.526274 -169.596767 
L 404.185734 -166.815383 
L 403.838819 -164.033998 
L 403.486299 -161.252614 
L 403.128927 -158.47123 
L 402.767428 -155.689845 
L 402.402494 -152.908461 
L 402.03477 -150.127077 
L 401.664845 -147.345692 
L 401.29324 -144.564308 
L 400.920405 -141.782923 
L 400.546706 -139.001539 
L 400.172422 -136.220155 
L 399.797737 -133.43877 
L 399.422734 -130.657386 
L 399.0474 -127.876002 
L 398.671614 -125.094617 
L 398.295157 -122.313233 
L 397.917704 -119.531849 
L 397.538838 -116.750464 
L 397.158045 -113.96908 
L 396.774726 -111.187696 
L 396.388202 -108.406311 
L 395.997725 -105.624927 
L 395.602488 -102.843542 
L 395.201632 -100.062158 
L 394.794264 -97.280774 
L 394.379467 -94.499389 
L 393.956311 -91.718005 
L 393.523873 -88.936621 
L 393.081243 -86.155236 
L 392.627544 -83.373852 
L 392.161943 -80.592468 
L 391.683664 -77.811083 
L 391.192001 -75.029699 
L 390.68633 -72.248315 
L 390.166119 -69.46693 
L 389.630939 -66.685546 
z
" style="stroke: #c2410c; stroke-opacity: 0.35"/>
    </defs>
    <g clip-path="url(#p4b7d78e122)">
     <use xlink:href="#mab1f5f4c29" x="0" y="391.52407" style="fill: #c2410c; fill-opacity: 0.35; stroke: #c2410c; stroke-opacity: 0.35"/>
    </g>
   </g>
   <g id="LineCollection_2">
    <path d="M 330.479467 186.085168 
L 382.983033 186.085168 
" clip-path="url(#p4b7d78e122)" style="fill: none; stroke: #c2410c; stroke-width: 1.5"/>
   </g>
   <g id="patch_8">
    <path d="M 298.977328 338.606376 
L 298.977328 35.71362 
" style="fill: none; stroke: #000000; stroke-width: 0.8; stroke-linejoin: miter; stroke-linecap: square"/>
   </g>
   <g id="patch_9">
    <path d="M 414.485172 338.606376 
L 414.485172 35.71362 
" style="fill: none; stroke: #000000; stroke-width: 0.8; stroke-linejoin: miter; stroke-linecap: square"/>
   </g>
   <g id="patch_10">
    <path d="M 298.977328 338.606376 
L 414.485172 338.606376 
" style="fill: none; stroke: #000000; stroke-width: 0.8; stroke-linejoin: miter; stroke-linecap: square"/>
   </g>
   <g id="patch_11">
    <path d="M 298.977328 35.71362 
L 414.485172 35.71362 
" style="fill: none; stroke: #000000; stroke-width: 0.8; stroke-linejoin: miter; stroke-linecap: square"/>
   </g>
   <g id="PathCollection_2">
    <g clip-path="url(#p4b7d78e122)">
     <use xlink:href="#m34bbdbce4a" x="356.73125" y="175.447977" style="fill: #111827; stroke: #111827"/>
    </g>
   </g>
  </g>
  <g id="axes_3">
   <g id="patch_12">
    <path d="M 554.143407 338.606376 
L 669.65125 338.606376 
L 669.65125 35.71362 
L 554.143407 35.71362 
z
" style="fill: #ffffff"/>
   </g>
   <g id="matplotlib.axis_5">
    <g id="xtick_3">
     <g id="line2d_27">
      <path d="M 611.897328 338.606376 
L 611.897328 35.71362 
" clip-path="url(#pff96541828)" style="fill: none; stroke: #b0b0b0; stroke-opacity: 0.2; stroke-width: 0.6; stroke-linecap: square"/>
     </g>
     <g id="line2d_28">
      <g>
       <use xlink:href="#mc29810c232" x="611.897328" y="338.606376" style="stroke: #000000; stroke-width: 0.8"/>
      </g>
     </g>
     <g id="text_16">
      <!-- Speech rate -->
      <g transform="translate(547.203836 370.855775) rotate(-15) scale(0.11 -0.11)">
       <defs>
        <path id="DejaVuSans-70" d="M 1159 525 
L 1159 -1331 
L 581 -1331 
L 581 3500 
L 1159 3500 
L 1159 2969 
Q 1341 3281 1617 3432 
Q 1894 3584 2278 3584 
Q 2916 3584 3314 3078 
Q 3713 2572 3713 1747 
Q 3713 922 3314 415 
Q 2916 -91 2278 -91 
Q 1894 -91 1617 61 
Q 1341 213 1159 525 
z
M 3116 1747 
Q 3116 2381 2855 2742 
Q 2594 3103 2138 3103 
Q 1681 3103 1420 2742 
Q 1159 2381 1159 1747 
Q 1159 1113 1420 752 
Q 1681 391 2138 391 
Q 2594 391 2855 752 
Q 3116 1113 3116 1747 
z
" transform="scale(0.015625)"/>
       </defs>
       <use xlink:href="#DejaVuSans-53"/>
       <use xlink:href="#DejaVuSans-70" transform="translate(63.476562 0)"/>
       <use xlink:href="#DejaVuSans-65" transform="translate(126.953125 0)"/>
       <use xlink:href="#DejaVuSans-65" transform="translate(188.476562 0)"/>
       <use xlink:href="#DejaVuSans-63" transform="translate(250 0)"/>
       <use xlink:href="#DejaVuSans-68" transform="translate(304.980469 0)"/>
       <use xlink:href="#DejaVuSans-20" transform="translate(368.359375 0)"/>
       <use xlink:href="#DejaVuSans-72" transform="translate(400.146484 0)"/>
       <use xlink:href="#DejaVuSans-61" transform="translate(441.259766 0)"/>
       <use xlink:href="#DejaVuSans-74" transform="translate(502.539062 0)"/>
       <use xlink:href="#DejaVuSans-65" transform="translate(541.748047 0)"/>
      </g>
     </g>
    </g>
   </g>
   <g id="matplotlib.axis_6">
    <g id="ytick_12">
     <g id="line2d_29">
      <path d="M 554.143407 296.578076 
L 669.65125 296.578076 
" clip-path="url(#pff96541828)" style="fill: none; stroke: #b0b0b0; stroke-opacity: 0.2; stroke-width: 0.6; stroke-linecap: square"/>
     </g>
     <g id="line2d_30">
      <g>
       <use xlink:href="#mb42415ab3f" x="554.143407" y="296.578076" style="stroke: #000000; stroke-width: 0.8"/>
      </g>
     </g>
     <g id="text_17">
      <!-- 1.0 -->
      <g transform="translate(529.649969 300.757216) scale(0.11 -0.11)">
       <use xlink:href="#DejaVuSans-31"/>
       <use xlink:href="#DejaVuSans-2e" transform="translate(63.623047 0)"/>
       <use xlink:href="#DejaVuSans-30" transform="translate(95.410156 0)"/>
      </g>
     </g>
    </g>
    <g id="ytick_13">
     <g id="line2d_31">
      <path d="M 554.143407 236.096916 
L 669.65125 236.096916 
" clip-path="url(#pff96541828)" style="fill: none; stroke: #b0b0b0; stroke-opacity: 0.2; stroke-width: 0.6; stroke-linecap: square"/>
     </g>
     <g id="line2d_32">
      <g>
       <use xlink:href="#mb42415ab3f" x="554.143407" y="236.096916" style="stroke: #000000; stroke-width: 0.8"/>
      </g>
     </g>
     <g id="text_18">
      <!-- 1.5 -->
      <g transform="translate(529.649969 240.276057) scale(0.11 -0.11)">
       <use xlink:href="#DejaVuSans-31"/>
       <use xlink:href="#DejaVuSans-2e" transform="translate(63.623047 0)"/>
       <use xlink:href="#DejaVuSans-35" transform="translate(95.410156 0)"/>
      </g>
     </g>
    </g>
    <g id="ytick_14">
     <g id="line2d_33">
      <path d="M 554.143407 175.615757 
L 669.65125 175.615757 
" clip-path="url(#pff96541828)" style="fill: none; stroke: #b0b0b0; stroke-opacity: 0.2; stroke-width: 0.6; stroke-linecap: square"/>
     </g>
     <g id="line2d_34">
      <g>
       <use xlink:href="#mb42415ab3f" x="554.143407" y="175.615757" style="stroke: #000000; stroke-width: 0.8"/>
      </g>
     </g>
     <g id="text_19">
      <!-- 2.0 -->
      <g transform="translate(529.649969 179.794898) scale(0.11 -0.11)">
       <use xlink:href="#DejaVuSans-32"/>
       <use xlink:href="#DejaVuSans-2e" transform="translate(63.623047 0)"/>
       <use xlink:href="#DejaVuSans-30" transform="translate(95.410156 0)"/>
      </g>
     </g>
    </g>
    <g id="ytick_15">
     <g id="line2d_35">
      <path d="M 554.143407 115.134598 
L 669.65125 115.134598 
" clip-path="url(#pff96541828)" style="fill: none; stroke: #b0b0b0; stroke-opacity: 0.2; stroke-width: 0.6; stroke-linecap: square"/>
     </g>
     <g id="line2d_36">
      <g>
       <use xlink:href="#mb42415ab3f" x="554.143407" y="115.134598" style="stroke: #000000; stroke-width: 0.8"/>
      </g>
     </g>
     <g id="text_20">
      <!-- 2.5 -->
      <g transform="translate(529.649969 119.313738) scale(0.11 -0.11)">
       <use xlink:href="#DejaVuSans-32"/>
       <use xlink:href="#DejaVuSans-2e" transform="translate(63.623047 0)"/>
       <use xlink:href="#DejaVuSans-35" transform="translate(95.410156 0)"/>
      </g>
     </g>
    </g>
    <g id="ytick_16">
     <g id="line2d_37">
      <path d="M 554.143407 54.653438 
L 669.65125 54.653438 
" clip-path="url(#pff96541828)" style="fill: none; stroke: #b0b0b0; stroke-opacity: 0.2; stroke-width: 0.6; stroke-linecap: square"/>
     </g>
     <g id="line2d_38">
      <g>
       <use xlink:href="#mb42415ab3f" x="554.143407" y="54.653438" style="stroke: #000000; stroke-width: 0.8"/>
      </g>
     </g>
     <g id="text_21">
      <!-- 3.0 -->
      <g transform="translate(529.649969 58.832579) scale(0.11 -0.11)">
       <use xlink:href="#DejaVuSans-33"/>
       <use xlink:href="#DejaVuSans-2e" transform="translate(63.623047 0)"/>
       <use xlink:href="#DejaVuSans-30" transform="translate(95.410156 0)"/>
      </g>
     </g>
    </g>
    <g id="text_22">
     <!-- segments / second -->
     <g transform="translate(523.154344 243.837498) rotate(-90) scale(0.12 -0.12)">
      <defs>
       <path id="DejaVuSans-67" d="M 2906 1791 
Q 2906 2416 2648 2759 
Q 2391 3103 1925 3103 
Q 1463 3103 1205 2759 
Q 947 2416 947 1791 
Q 947 1169 1205 825 
Q 1463 481 1925 481 
Q 2391 481 2648 825 
Q 2906 1169 2906 1791 
z
M 3481 434 
Q 3481 -459 3084 -895 
Q 2688 -1331 1869 -1331 
Q 1566 -1331 1297 -1286 
Q 1028 -1241 775 -1147 
L 775 -588 
Q 1028 -725 1275 -790 
Q 1522 -856 1778 -856 
Q 2344 -856 2625 -561 
Q 2906 -266 2906 331 
L 2906 616 
Q 2728 306 2450 153 
Q 2172 0 1784 0 
Q 1141 0 747 490 
Q 353 981 353 1791 
Q 353 2603 747 3093 
Q 1141 3584 1784 3584 
Q 2172 3584 2450 3431 
Q 2728 3278 2906 2969 
L 2906 3500 
L 3481 3500 
L 3481 434 
z
" transform="scale(0.015625)"/>
       <path id="DejaVuSans-2f" d="M 1625 4666 
L 2156 4666 
L 531 -594 
L 0 -594 
L 1625 4666 
z
" transform="scale(0.015625)"/>
      </defs>
      <use xlink:href="#DejaVuSans-73"/>
      <use xlink:href="#DejaVuSans-65" transform="translate(52.099609 0)"/>
      <use xlink:href="#DejaVuSans-67" transform="translate(113.623047 0)"/>
      <use xlink:href="#DejaVuSans-6d" transform="translate(177.099609 0)"/>
      <use xlink:href="#DejaVuSans-65" transform="translate(274.511719 0)"/>
      <use xlink:href="#DejaVuSans-6e" transform="translate(336.035156 0)"/>
      <use xlink:href="#DejaVuSans-74" transform="translate(399.414062 0)"/>
      <use xlink:href="#DejaVuSans-73" transform="translate(438.623047 0)"/>
      <use xlink:href="#DejaVuSans-20" transform="translate(490.722656 0)"/>
      <use xlink:href="#DejaVuSans-2f" transform="translate(522.509766 0)"/>
      <use xlink:href="#DejaVuSans-20" transform="translate(556.201172 0)"/>
      <use xlink:href="#DejaVuSans-73" transform="translate(587.988281 0)"/>
      <use xlink:href="#DejaVuSans-65" transform="translate(640.087891 0)"/>
      <use xlink:href="#DejaVuSans-63" transform="translate(701.611328 0)"/>
      <use xlink:href="#DejaVuSans-6f" transform="translate(756.591797 0)"/>
      <use xlink:href="#DejaVuSans-6e" transform="translate(817.773438 0)"/>
      <use xlink:href="#DejaVuSans-64" transform="translate(881.152344 0)"/>
     </g>
    </g>
   </g>
   <g id="FillBetweenPolyCollection_3">
    <defs>
     <path id="mb6f376326a" d="M 641.183753 -66.685546 
L 582.610904 -66.685546 
L 581.326122 -69.46693 
L 580.035077 -72.248315 
L 578.741877 -75.029699 
L 577.450868 -77.811083 
L 576.166607 -80.592468 
L 574.893843 -83.373852 
L 573.637491 -86.155236 
L 572.402602 -88.936621 
L 571.194329 -91.718005 
L 570.017891 -94.499389 
L 568.878536 -97.280774 
L 567.7815 -100.062158 
L 566.73196 -102.843542 
L 565.734995 -105.624927 
L 564.795539 -108.406311 
L 563.918332 -111.187696 
L 563.107883 -113.96908 
L 562.368421 -116.750464 
L 561.703855 -119.531849 
L 561.117736 -122.313233 
L 560.613219 -125.094617 
L 560.193032 -127.876002 
L 559.859448 -130.657386 
L 559.614263 -133.43877 
L 559.458772 -136.220155 
L 559.393763 -139.001539 
L 559.419504 -141.782923 
L 559.53574 -144.564308 
L 559.741702 -147.345692 
L 560.036109 -150.127077 
L 560.417186 -152.908461 
L 560.882678 -155.689845 
L 561.429879 -158.47123 
L 562.055654 -161.252614 
L 562.756472 -164.033998 
L 563.528439 -166.815383 
L 564.367337 -169.596767 
L 565.268658 -172.378151 
L 566.227645 -175.159536 
L 567.239336 -177.94092 
L 568.2986 -180.722304 
L 569.400178 -183.503689 
L 570.538725 -186.285073 
L 571.708848 -189.066458 
L 572.905141 -191.847842 
L 574.122221 -194.629226 
L 575.354763 -197.410611 
L 576.597526 -200.191995 
L 577.845387 -202.973379 
L 579.093363 -205.754764 
L 580.336635 -208.536148 
L 581.570571 -211.317532 
L 582.790743 -214.098917 
L 583.992944 -216.880301 
L 585.1732 -219.661685 
L 586.327788 -222.44307 
L 587.45324 -225.224454 
L 588.546356 -228.005838 
L 589.604213 -230.787223 
L 590.624164 -233.568607 
L 591.603852 -236.349992 
L 592.541207 -239.131376 
L 593.434452 -241.91276 
L 594.282104 -244.694145 
L 595.082974 -247.475529 
L 595.836171 -250.256913 
L 596.541093 -253.038298 
L 597.197433 -255.819682 
L 597.805172 -258.601066 
L 598.364575 -261.382451 
L 598.876184 -264.163835 
L 599.340815 -266.945219 
L 599.759545 -269.726604 
L 600.133707 -272.507988 
L 600.464874 -275.289373 
L 600.754848 -278.070757 
L 601.005646 -280.852141 
L 601.219481 -283.633526 
L 601.398749 -286.41491 
L 601.546004 -289.196294 
L 601.663937 -291.977679 
L 601.755359 -294.759063 
L 601.823171 -297.540447 
L 601.870345 -300.321832 
L 601.899892 -303.103216 
L 601.914842 -305.8846 
L 601.918213 -308.665985 
L 601.912989 -311.447369 
L 601.90209 -314.228753 
L 601.888349 -317.010138 
L 601.874487 -319.791522 
L 601.86309 -322.572907 
L 601.856586 -325.354291 
L 601.857229 -328.135675 
L 601.867077 -330.91706 
L 601.88798 -333.698444 
L 601.921567 -336.479828 
L 601.969234 -339.261213 
L 602.03214 -342.042597 
L 621.762517 -342.042597 
L 621.762517 -342.042597 
L 621.825422 -339.261213 
L 621.87309 -336.479828 
L 621.906676 -333.698444 
L 621.92758 -330.91706 
L 621.937428 -328.135675 
L 621.938071 -325.354291 
L 621.931567 -322.572907 
L 621.92017 -319.791522 
L 621.906308 -317.010138 
L 621.892567 -314.228753 
L 621.881668 -311.447369 
L 621.876444 -308.665985 
L 621.879815 -305.8846 
L 621.894765 -303.103216 
L 621.924312 -300.321832 
L 621.971486 -297.540447 
L 622.039298 -294.759063 
L 622.13072 -291.977679 
L 622.248653 -289.196294 
L 622.395907 -286.41491 
L 622.575175 -283.633526 
L 622.789011 -280.852141 
L 623.039809 -278.070757 
L 623.329783 -275.289373 
L 623.66095 -272.507988 
L 624.035112 -269.726604 
L 624.453842 -266.945219 
L 624.918473 -264.163835 
L 625.430082 -261.382451 
L 625.989484 -258.601066 
L 626.597224 -255.819682 
L 627.253564 -253.038298 
L 627.958486 -250.256913 
L 628.711682 -247.475529 
L 629.512553 -244.694145 
L 630.360205 -241.91276 
L 631.25345 -239.131376 
L 632.190805 -236.349992 
L 633.170493 -233.568607 
L 634.190444 -230.787223 
L 635.248301 -228.005838 
L 636.341417 -225.224454 
L 637.466869 -222.44307 
L 638.621457 -219.661685 
L 639.801713 -216.880301 
L 641.003913 -214.098917 
L 642.224086 -211.317532 
L 643.458022 -208.536148 
L 644.701294 -205.754764 
L 645.94927 -202.973379 
L 647.197131 -200.191995 
L 648.439894 -197.410611 
L 649.672436 -194.629226 
L 650.889516 -191.847842 
L 652.085809 -189.066458 
L 653.255932 -186.285073 
L 654.394479 -183.503689 
L 655.496057 -180.722304 
L 656.55532 -177.94092 
L 657.567011 -175.159536 
L 658.525999 -172.378151 
L 659.42732 -169.596767 
L 660.266218 -166.815383 
L 661.038185 -164.033998 
L 661.739003 -161.252614 
L 662.364778 -158.47123 
L 662.911979 -155.689845 
L 663.377471 -152.908461 
L 663.758547 -150.127077 
L 664.052955 -147.345692 
L 664.258917 -144.564308 
L 664.375153 -141.782923 
L 664.400893 -139.001539 
L 664.335884 -136.220155 
L 664.180394 -133.43877 
L 663.935208 -130.657386 
L 663.601625 -127.876002 
L 663.181438 -125.094617 
L 662.676921 -122.313233 
L 662.090802 -119.531849 
L 661.426236 -116.750464 
L 660.686774 -113.96908 
L 659.876325 -111.187696 
L 658.999118 -108.406311 
L 658.059661 -105.624927 
L 657.062697 -102.843542 
L 656.013157 -100.062158 
L 654.916121 -97.280774 
L 653.776766 -94.499389 
L 652.600328 -91.718005 
L 651.392055 -88.936621 
L 650.157165 -86.155236 
L 648.900814 -83.373852 
L 647.62805 -80.592468 
L 646.343789 -77.811083 
L 645.052779 -75.029699 
L 643.75958 -72.248315 
L 642.468534 -69.46693 
L 641.183753 -66.685546 
z
" style="stroke: #c2410c; stroke-opacity: 0.35"/>
    </defs>
    <g clip-path="url(#pff96541828)">
     <use xlink:href="#mb6f376326a" x="0" y="391.52407" style="fill: #c2410c; fill-opacity: 0.35; stroke: #c2410c; stroke-opacity: 0.35"/>
    </g>
   </g>
   <g id="LineCollection_3">
    <path d="M 585.645546 253.175032 
L 638.149111 253.175032 
" clip-path="url(#pff96541828)" style="fill: none; stroke: #c2410c; stroke-width: 1.5"/>
   </g>
   <g id="patch_13">
    <path d="M 554.143407 338.606376 
L 554.143407 35.71362 
" style="fill: none; stroke: #000000; stroke-width: 0.8; stroke-linejoin: miter; stroke-linecap: square"/>
   </g>
   <g id="patch_14">
    <path d="M 669.65125 338.606376 
L 669.65125 35.71362 
" style="fill: none; stroke: #000000; stroke-width: 0.8; stroke-linejoin: miter; stroke-linecap: square"/>
   </g>
   <g id="patch_15">
    <path d="M 554.143407 338.606376 
L 669.65125 338.606376 
" style="fill: none; stroke: #000000; stroke-width: 0.8; stroke-linejoin: miter; stroke-linecap: square"/>
   </g>
   <g id="patch_16">
    <path d="M 554.143407 35.71362 
L 669.65125 35.71362 
" style="fill: none; stroke: #000000; stroke-width: 0.8; stroke-linejoin: miter; stroke-linecap: square"/>
   </g>
   <g id="PathCollection_3">
    <g clip-path="url(#pff96541828)">
     <use xlink:href="#m34bbdbce4a" x="611.897328" y="252.582197" style="fill: #111827; stroke: #111827"/>
    </g>
   </g>
   <g id="legend_1">
    <g id="patch_17">
     <path d="M 389.369531 53.971901 
L 411.369531 53.971901 
L 411.369531 46.271901 
L 389.369531 46.271901 
z
" style="fill: #c2410c; opacity: 0.35; stroke: #c2410c; stroke-linejoin: miter"/>
    </g>
    <g id="text_23">
     <!-- Reference group -->
     <g transform="translate(420.169531 53.971901) scale(0.11 -0.11)">
      <defs>
       <path id="DejaVuSans-52" d="M 2841 2188 
Q 3044 2119 3236 1894 
Q 3428 1669 3622 1275 
L 4263 0 
L 3584 0 
L 2988 1197 
Q 2756 1666 2539 1819 
Q 2322 1972 1947 1972 
L 1259 1972 
L 1259 0 
L 628 0 
L 628 4666 
L 2053 4666 
Q 2853 4666 3247 4331 
Q 3641 3997 3641 3322 
Q 3641 2881 3436 2590 
Q 3231 2300 2841 2188 
z
M 1259 4147 
L 1259 2491 
L 2053 2491 
Q 2509 2491 2742 2702 
Q 2975 2913 2975 3322 
Q 2975 3731 2742 3939 
Q 2509 4147 2053 4147 
L 1259 4147 
z
" transform="scale(0.015625)"/>
       <path id="DejaVuSans-66" d="M 2375 4863 
L 2375 4384 
L 1825 4384 
Q 1516 4384 1395 4259 
Q 1275 4134 1275 3809 
L 1275 3500 
L 2222 3500 
L 2222 3053 
L 1275 3053 
L 1275 0 
L 697 0 
L 697 3053 
L 147 3053 
L 147 3500 
L 697 3500 
L 697 3744 
Q 697 4328 969 4595 
Q 1241 4863 1831 4863 
L 2375 4863 
z
" transform="scale(0.015625)"/>
      </defs>
      <use xlink:href="#DejaVuSans-52"/>
      <use xlink:href="#DejaVuSans-65" transform="translate(64.982422 0)"/>
      <use xlink:href="#DejaVuSans-66" transform="translate(126.505859 0)"/>
      <use xlink:href="#DejaVuSans-65" transform="translate(161.710938 0)"/>
      <use xlink:href="#DejaVuSans-72" transform="translate(223.234375 0)"/>
      <use xlink:href="#DejaVuSans-65" transform="translate(262.097656 0)"/>
      <use xlink:href="#DejaVuSans-6e" transform="translate(323.621094 0)"/>
      <use xlink:href="#DejaVuSans-63" transform="translate(387 0)"/>
      <use xlink:href="#DejaVuSans-65" transform="translate(441.980469 0)"/>
      <use xlink:href="#DejaVuSans-20" transform="translate(503.503906 0)"/>
      <use xlink:href="#DejaVuSans-67" transform="translate(535.291016 0)"/>
      <use xlink:href="#DejaVuSans-72" transform="translate(598.767578 0)"/>
      <use xlink:href="#DejaVuSans-6f" transform="translate(637.630859 0)"/>
      <use xlink:href="#DejaVuSans-75" transform="translate(698.8125 0)"/>
      <use xlink:href="#DejaVuSans-70" transform="translate(762.191406 0)"/>
     </g>
    </g>
    <g id="line2d_39">
     <defs>
      <path id="m62cf107965" d="M -0 4.242641 
L 4.242641 0 
L 0 -4.242641 
L -4.242641 -0 
z
" style="stroke: #111827; stroke-linejoin: miter"/>
     </defs>
     <g>
      <use xlink:href="#m62cf107965" x="400.369531" y="66.267839" style="fill: #111827; stroke: #111827; stroke-linejoin: miter"/>
     </g>
    </g>
    <g id="text_24">
     <!-- Autism spectrum condition (ASC) prototype -->
     <g transform="translate(420.169531 70.117839) scale(0.11 -0.11)">
      <defs>
       <path id="DejaVuSans-41" d="M 2188 4044 
L 1331 1722 
L 3047 1722 
L 2188 4044 
z
M 1831 4666 
L 2547 4666 
L 4325 0 
L 3669 0 
L 3244 1197 
L 1141 1197 
L 716 0 
L 50 0 
L 1831 4666 
z
" transform="scale(0.015625)"/>
       <path id="DejaVuSans-28" d="M 1984 4856 
Q 1566 4138 1362 3434 
Q 1159 2731 1159 2009 
Q 1159 1288 1364 580 
Q 1569 -128 1984 -844 
L 1484 -844 
Q 1016 -109 783 600 
Q 550 1309 550 2009 
Q 550 2706 781 3412 
Q 1013 4119 1484 4856 
L 1984 4856 
z
" transform="scale(0.015625)"/>
       <path id="DejaVuSans-43" d="M 4122 4306 
L 4122 3641 
Q 3803 3938 3442 4084 
Q 3081 4231 2675 4231 
Q 1875 4231 1450 3742 
Q 1025 3253 1025 2328 
Q 1025 1406 1450 917 
Q 1875 428 2675 428 
Q 3081 428 3442 575 
Q 3803 722 4122 1019 
L 4122 359 
Q 3791 134 3420 21 
Q 3050 -91 2638 -91 
Q 1578 -91 968 557 
Q 359 1206 359 2328 
Q 359 3453 968 4101 
Q 1578 4750 2638 4750 
Q 3056 4750 3426 4639 
Q 3797 4528 4122 4306 
z
" transform="scale(0.015625)"/>
       <path id="DejaVuSans-29" d="M 513 4856 
L 1013 4856 
Q 1481 4119 1714 3412 
Q 1947 2706 1947 2009 
Q 1947 1309 1714 600 
Q 1481 -109 1013 -844 
L 513 -844 
Q 928 -128 1133 580 
Q 1338 1288 1338 2009 
Q 1338 2731 1133 3434 
Q 928 4138 513 4856 
z
" transform="scale(0.015625)"/>
      </defs>
      <use xlink:href="#DejaVuSans-41"/>
      <use xlink:href="#DejaVuSans-75" transform="translate(68.408203 0)"/>
      <use xlink:href="#DejaVuSans-74" transform="translate(131.787109 0)"/>
      <use xlink:href="#DejaVuSans-69" transform="translate(170.996094 0)"/>
      <use xlink:href="#DejaVuSans-73" transform="translate(198.779297 0)"/>
      <use xlink:href="#DejaVuSans-6d" transform="translate(250.878906 0)"/>
      <use xlink:href="#DejaVuSans-20" transform="translate(348.291016 0)"/>
      <use xlink:href="#DejaVuSans-73" transform="translate(380.078125 0)"/>
      <use xlink:href="#DejaVuSans-70" transform="translate(432.177734 0)"/>
      <use xlink:href="#DejaVuSans-65" transform="translate(495.654297 0)"/>
      <use xlink:href="#DejaVuSans-63" transform="translate(557.177734 0)"/>
      <use xlink:href="#DejaVuSans-74" transform="translate(612.158203 0)"/>
      <use xlink:href="#DejaVuSans-72" transform="translate(651.367188 0)"/>
      <use xlink:href="#DejaVuSans-75" transform="translate(692.480469 0)"/>
      <use xlink:href="#DejaVuSans-6d" transform="translate(755.859375 0)"/>
      <use xlink:href="#DejaVuSans-20" transform="translate(853.271484 0)"/>
      <use xlink:href="#DejaVuSans-63" transform="translate(885.058594 0)"/>
      <use xlink:href="#DejaVuSans-6f" transform="translate(940.039062 0)"/>
      <use xlink:href="#DejaVuSans-6e" transform="translate(1001.220703 0)"/>
      <use xlink:href="#DejaVuSans-64" transform="translate(1064.599609 0)"/>
      <use xlink:href="#DejaVuSans-69" transform="translate(1128.076172 0)"/>
      <use xlink:href="#DejaVuSans-74" transform="translate(1155.859375 0)"/>
      <use xlink:href="#DejaVuSans-69" transform="translate(1195.068359 0)"/>
      <use xlink:href="#DejaVuSans-6f" transform="translate(1222.851562 0)"/>
      <use xlink:href="#DejaVuSans-6e" transform="translate(1284.033203 0)"/>
      <use xlink:href="#DejaVuSans-20" transform="translate(1347.412109 0)"/>
      <use xlink:href="#DejaVuSans-28" transform="translate(1379.199219 0)"/>
      <use xlink:href="#DejaVuSans-41" transform="translate(1418.212891 0)"/>
      <use xlink:href="#DejaVuSans-53" transform="translate(1486.621094 0)"/>
      <use xlink:href="#DejaVuSans-43" transform="translate(1550.097656 0)"/>
      <use xlink:href="#DejaVuSans-29" transform="translate(1619.921875 0)"/>
      <use xlink:href="#DejaVuSans-20" transform="translate(1658.935547 0)"/>
      <use xlink:href="#DejaVuSans-70" transform="translate(1690.722656 0)"/>
      <use xlink:href="#DejaVuSans-72" transform="translate(1754.199219 0)"/>
      <use xlink:href="#DejaVuSans-6f" transform="translate(1793.0625 0)"/>
      <use xlink:href="#DejaVuSans-74" transform="translate(1854.244141 0)"/>
      <use xlink:href="#DejaVuSans-6f" transform="translate(1893.453125 0)"/>
      <use xlink:href="#DejaVuSans-74" transform="translate(1954.634766 0)"/>
      <use xlink:href="#DejaVuSans-79" transform="translate(1993.84375 0)"/>
      <use xlink:href="#DejaVuSans-70" transform="translate(2053.023438 0)"/>
      <use xlink:href="#DejaVuSans-65" transform="translate(2116.5 0)"/>
     </g>
    </g>
   </g>
  </g>
  <g id="text_25">
   <!-- Autism spectrum condition (ASC) (female) -->
   <g transform="translate(190.509531 17.837812) scale(0.14 -0.14)">
    <use xlink:href="#DejaVuSans-41"/>
    <use xlink:href="#DejaVuSans-75" transform="translate(68.408203 0)"/>
    <use xlink:href="#DejaVuSans-74" transform="translate(131.787109 0)"/>
    <use xlink:href="#DejaVuSans-69" transform="translate(170.996094 0)"/>
    <use xlink:href="#DejaVuSans-73" transform="translate(198.779297 0)"/>
    <use xlink:href="#DejaVuSans-6d" transform="translate(250.878906 0)"/>
    <use xlink:href="#DejaVuSans-20" transform="translate(348.291016 0)"/>
    <use xlink:href="#DejaVuSans-73" transform="translate(380.078125 0)"/>
    <use xlink:href="#DejaVuSans-70" transform="translate(432.177734 0)"/>
    <use xlink:href="#DejaVuSans-65" transform="translate(495.654297 0)"/>
    <use xlink:href="#DejaVuSans-63" transform="translate(557.177734 0)"/>
    <use xlink:href="#DejaVuSans-74" transform="translate(612.158203 0)"/>
    <use xlink:href="#DejaVuSans-72" transform="translate(651.367188 0)"/>
    <use xlink:href="#DejaVuSans-75" transform="translate(692.480469 0)"/>
    <use xlink:href="#DejaVuSans-6d" transform="translate(755.859375 0)"/>
    <use xlink:href="#DejaVuSans-20" transform="translate(853.271484 0)"/>
    <use xlink:href="#DejaVuSans-63" transform="translate(885.058594 0)"/>
    <use xlink:href="#DejaVuSans-6f" transform="translate(940.039062 0)"/>
    <use xlink:href="#DejaVuSans-6e" transform="translate(1001.220703 0)"/>
    <use xlink:href="#DejaVuSans-64" transform="translate(1064.599609 0)"/>
    <use xlink:href="#DejaVuSans-69" transform="translate(1128.076172 0)"/>
    <use xlink:href="#DejaVuSans-74" transform="translate(1155.859375 0)"/>
    <use xlink:href="#DejaVuSans-69" transform="translate(1195.068359 0)"/>
    <use xlink:href="#DejaVuSans-6f" transform="translate(1222.851562 0)"/>
    <use xlink:href="#DejaVuSans-6e" transform="translate(1284.033203 0)"/>
    <use xlink:href="#DejaVuSans-20" transform="translate(1347.412109 0)"/>
    <use xlink:href="#DejaVuSans-28" transform="translate(1379.199219 0)"/>
    <use xlink:href="#DejaVuSans-41" transform="translate(1418.212891 0)"/>
    <use xlink:href="#DejaVuSans-53" transform="translate(1486.621094 0)"/>
    <use xlink:href="#DejaVuSans-43" transform="translate(1550.097656 0)"/>
    <use xlink:href="#DejaVuSans-29" transform="translate(1619.921875 0)"/>
    <use xlink:href="#DejaVuSans-20" transform="translate(1658.935547 0)"/>
    <use xlink:href="#DejaVuSans-28" transform="translate(1690.722656 0)"/>
    <use xlink:href="#DejaVuSans-66" transform="translate(1729.736328 0)"/>
    <use xlink:href="#DejaVuSans-65" transform="translate(1764.941406 0)"/>
    <use xlink:href="#DejaVuSans-6d" transform="translate(1826.464844 0)"/>
    <use xlink:href="#DejaVuSans-61" transform="translate(1923.876953 0)"/>
    <use xlink:href="#DejaVuSans-6c" transform="translate(1985.15625 0)"/>
    <use xlink:href="#DejaVuSans-65" transform="translate(2012.939453 0)"/>
    <use xlink:href="#DejaVuSans-29" transform="translate(2074.462891 0)"/>
   </g>
  </g>
 </g>
 <defs>
  <clipPath id="p29f9e9bfa5">
   <rect x="43.81125" y="35.71362" width="115.507843" height="302.892756"/>
  </clipPath>
  <clipPath id="p4b7d78e122">
   <rect x="298.977328" y="35.71362" width="115.507843" height="302.892756"/>
  </clipPath>
  <clipPath id="pff96541828">
   <rect x="554.143407" y="35.71362" width="115.507843" height="302.892756"/>
  </clipPath>
 </defs>
</svg>
