<?xml version="1.0" encoding="utf-8" standalone="no"?>
<!DOCTYPE svg PUBLIC "-//W3C//DTD SVG 1.1//EN"
  "http://www.w3.org/Graphics/SVG/1.1/DTD/svg11.dtd">
<svg xmlns:xlink="http://www.w3.org/1999/xlink" width="676.845937pt" height="391.52407pt" viewBox="0 0 676.845937 391.52407" xmlns="http://www.w3.org/2000/svg" version="1.1">
 <metadata>
  <rdf:RDF xmlns:dc="http://purl.org/dc/elements/1.1/" xmlns:cc="http://creativecommons.org/ns#" xmlns:rdf="http://www.w3.org/1999/02/22-rdf-syntax-ns#">
   <cc:Work>
    <dc:type rdf:resource="http://purl.org/dc/dcmitype/StillImage"/>
    <dc:date>2026-06-14T19:00:04.725195</dc:date>
    <dc:format>image/svg+xml</dc:format>
    <dc:creator>
     <cc:Agent>
      <dc:title>Matplotlib v3.10.1, https://matplotlib.org/</dc:title>
     </cc:Agent>
    </dc:creator>
   </cc:Work>
  </rdf:RDF>
 </metadata>
 <defs>
  <style type="text/css">*{stroke-linejoin: round; stroke-linecap: butt}</style>
 </defs>
 <g id="figure_1">
  <g id="patch_1">
   <path d="M -0 391.52407 
L 676.845937 391.52407 
L 676.845937 0 
L -0 0 
z
" style="fill: #ffffff"/>
  </g>
  <g id="axes_1">
   <g id="patch_2">
    <path d="M 54.305937 338.606376 
L 166.313781 338.606376 
L 166.313781 34.56 
L 54.305937 34.56 
z
" style="fill: #ffffff"/>
   </g>
   <g id="matplotlib.axis_1">
    <g id="xtick_1">
     <g id="line2d_1">
      <path d="M 110.309859 338.606376 
L 110.309859 34.56 
" clip-path="url(#p97c7c45502)" style="fill: none; stroke: #b0b0b0; stroke-opacity: 0.2; stroke-width: 0.6; stroke-linecap: square"/>
     </g>
     <g id="line2d_2">
      <defs>
       <path id="m3baca56371" d="M 0 0 
L 0 3.5 
" style="stroke: #000000; stroke-width: 0.8"/>
      </defs>
      <g>
       <use xlink:href="#m3baca56371" x="110.309859" y="338.606376" style="stroke: #000000; stroke-width: 0.8"/>
      </g>
     </g>
     <g id="text_1">
      <!-- Pitch variability -->
      <g transform="translate(27.79428 375.631189) rotate(-15) scale(0.11 -0.11)">
       <defs>
        <path id="DejaVuSans-50" d="M 1259 4147 
L 1259 2394 
L 2053 2394 
Q 2494 2394 2734 2622 
Q 2975 2850 2975 3272 
Q 2975 3691 2734 3919 
Q 2494 4147 2053 4147 
L 1259 4147 
z
M 628 4666 
L 2053 4666 
Q 2838 4666 3239 4311 
Q 3641 3956 3641 3272 
Q 3641 2581 3239 2228 
Q 2838 1875 2053 1875 
L 1259 1875 
L 1259 0 
L 628 0 
L 628 4666 
z
" transform="scale(0.015625)"/>
        <path id="DejaVuSans-69" d="M 603 3500 
L 1178 3500 
L 1178 0 
L 603 0 
L 603 3500 
z
M 603 4863 
L 1178 4863 
L 1178 4134 
L 603 4134 
L 603 4863 
z
" transform="scale(0.015625)"/>
        <path id="DejaVuSans-74" d="M 1172 4494 
L 1172 3500 
L 2356 3500 
L 2356 3053 
L 1172 3053 
L 1172 1153 
Q 1172 725 1289 603 
Q 1406 481 1766 481 
L 2356 481 
L 2356 0 
L 1766 0 
Q 1100 0 847 248 
Q 594 497 594 1153 
L 594 3053 
L 172 3053 
L 172 3500 
L 594 3500 
L 594 4494 
L 1172 4494 
z
" transform="scale(0.015625)"/>
        <path id="DejaVuSans-63" d="M 3122 3366 
L 3122 2828 
Q 2878 2963 2633 3030 
Q 2388 3097 2138 3097 
Q 1578 3097 1268 2742 
Q 959 2388 959 1747 
Q 959 1106 1268 751 
Q 1578 397 2138 397 
Q 2388 397 2633 464 
Q 2878 531 3122 666 
L 3122 134 
Q 2881 22 2623 -34 
Q 2366 -91 2075 -91 
Q 1284 -91 818 406 
Q 353 903 353 1747 
Q 353 2603 823 3093 
Q 1294 3584 2113 3584 
Q 2378 3584 2631 3529 
Q 2884 3475 3122 3366 
z
" transform="scale(0.015625)"/>
        <path id="DejaVuSans-68" d="M 3513 2113 
L 3513 0 
L 2938 0 
L 2938 2094 
Q 2938 2591 2744 2837 
Q 2550 3084 2163 3084 
Q 1697 3084 1428 2787 
Q 1159 2491 1159 1978 
L 1159 0 
L 581 0 
L 581 4863 
L 1159 4863 
L 1159 2956 
Q 1366 3272 1645 3428 
Q 1925 3584 2291 3584 
Q 2894 3584 3203 3211 
Q 3513 2838 3513 2113 
z
" transform="scale(0.015625)"/>
        <path id="DejaVuSans-20" transform="scale(0.015625)"/>
        <path id="DejaVuSans-76" d="M 191 3500 
L 800 3500 
L 1894 563 
L 2988 3500 
L 3597 3500 
L 2284 0 
L 1503 0 
L 191 3500 
z
" transform="scale(0.015625)"/>
        <path id="DejaVuSans-61" d="M 2194 1759 
Q 1497 1759 1228 1600 
Q 959 1441 959 1056 
Q 959 750 1161 570 
Q 1363 391 1709 391 
Q 2188 391 2477 730 
Q 2766 1069 2766 1631 
L 2766 1759 
L 2194 1759 
z
M 3341 1997 
L 3341 0 
L 2766 0 
L 2766 531 
Q 2569 213 2275 61 
Q 1981 -91 1556 -91 
Q 1019 -91 701 211 
Q 384 513 384 1019 
Q 384 1609 779 1909 
Q 1175 2209 1959 2209 
L 2766 2209 
L 2766 2266 
Q 2766 2663 2505 2880 
Q 2244 3097 1772 3097 
Q 1472 3097 1187 3025 
Q 903 2953 641 2809 
L 641 3341 
Q 956 3463 1253 3523 
Q 1550 3584 1831 3584 
Q 2591 3584 2966 3190 
Q 3341 2797 3341 1997 
z
" transform="scale(0.015625)"/>
        <path id="DejaVuSans-72" d="M 2631 2963 
Q 2534 3019 2420 3045 
Q 2306 3072 2169 3072 
Q 1681 3072 1420 2755 
Q 1159 2438 1159 1844 
L 1159 0 
L 581 0 
L 581 3500 
L 1159 3500 
L 1159 2956 
Q 1341 3275 1631 3429 
Q 1922 3584 2338 3584 
Q 2397 3584 2469 3576 
Q 2541 3569 2628 3553 
L 2631 2963 
z
" transform="scale(0.015625)"/>
        <path id="DejaVuSans-62" d="M 3116 1747 
Q 3116 2381 2855 2742 
Q 2594 3103 2138 3103 
Q 1681 3103 1420 2742 
Q 1159 2381 1159 1747 
Q 1159 1113 1420 752 
Q 1681 391 2138 391 
Q 2594 391 2855 752 
Q 3116 1113 3116 1747 
z
M 1159 2969 
Q 1341 3281 1617 3432 
Q 1894 3584 2278 3584 
Q 2916 3584 3314 3078 
Q 3713 2572 3713 1747 
Q 3713 922 3314 415 
Q 2916 -91 2278 -91 
Q 1894 -91 1617 61 
Q 1341 213 1159 525 
L 1159 0 
L 581 0 
L 581 4863 
L 1159 4863 
L 1159 2969 
z
" transform="scale(0.015625)"/>
        <path id="DejaVuSans-6c" d="M 603 4863 
L 1178 4863 
L 1178 0 
L 603 0 
L 603 4863 
z
" transform="scale(0.015625)"/>
        <path id="DejaVuSans-79" d="M 2059 -325 
Q 1816 -950 1584 -1140 
Q 1353 -1331 966 -1331 
L 506 -1331 
L 506 -850 
L 844 -850 
Q 1081 -850 1212 -737 
Q 1344 -625 1503 -206 
L 1606 56 
L 191 3500 
L 800 3500 
L 1894 763 
L 2988 3500 
L 3597 3500 
L 2059 -325 
z
" transform="scale(0.015625)"/>
       </defs>
       <use xlink:href="#DejaVuSans-50"/>
       <use xlink:href="#DejaVuSans-69" transform="translate(58.052734 0)"/>
       <use xlink:href="#DejaVuSans-74" transform="translate(85.835938 0)"/>
       <use xlink:href="#DejaVuSans-63" transform="translate(125.044922 0)"/>
       <use xlink:href="#DejaVuSans-68" transform="translate(180.025391 0)"/>
       <use xlink:href="#DejaVuSans-20" transform="translate(243.404297 0)"/>
       <use xlink:href="#DejaVuSans-76" transform="translate(275.191406 0)"/>
       <use xlink:href="#DejaVuSans-61" transform="translate(334.371094 0)"/>
       <use xlink:href="#DejaVuSans-72" transform="translate(395.650391 0)"/>
       <use xlink:href="#DejaVuSans-69" transform="translate(436.763672 0)"/>
       <use xlink:href="#DejaVuSans-61" transform="translate(464.546875 0)"/>
       <use xlink:href="#DejaVuSans-62" transform="translate(525.826172 0)"/>
       <use xlink:href="#DejaVuSans-69" transform="translate(589.302734 0)"/>
       <use xlink:href="#DejaVuSans-6c" transform="translate(617.085938 0)"/>
       <use xlink:href="#DejaVuSans-69" transform="translate(644.869141 0)"/>
       <use xlink:href="#DejaVuSans-74" transform="translate(672.652344 0)"/>
       <use xlink:href="#DejaVuSans-79" transform="translate(711.861328 0)"/>
      </g>
     </g>
    </g>
   </g>
   <g id="matplotlib.axis_2">
    <g id="ytick_1">
     <g id="line2d_3">
      <path d="M 54.305937 315.582979 
L 166.313781 315.582979 
" clip-path="url(#p97c7c45502)" style="fill: none; stroke: #b0b0b0; stroke-opacity: 0.2; stroke-width: 0.6; stroke-linecap: square"/>
     </g>
     <g id="line2d_4">
      <defs>
       <path id="m87412392f7" d="M 0 0 
L -3.5 0 
" style="stroke: #000000; stroke-width: 0.8"/>
      </defs>
      <g>
       <use xlink:href="#m87412392f7" x="54.305937" y="315.582979" style="stroke: #000000; stroke-width: 0.8"/>
      </g>
     </g>
     <g id="text_2">
      <!-- 5.0 -->
      <g transform="translate(29.8125 319.762119) scale(0.11 -0.11)">
       <defs>
        <path id="DejaVuSans-35" d="M 691 4666 
L 3169 4666 
L 3169 4134 
L 1269 4134 
L 1269 2991 
Q 1406 3038 1543 3061 
Q 1681 3084 1819 3084 
Q 2600 3084 3056 2656 
Q 3513 2228 3513 1497 
Q 3513 744 3044 326 
Q 2575 -91 1722 -91 
Q 1428 -91 1123 -41 
Q 819 9 494 109 
L 494 744 
Q 775 591 1075 516 
Q 1375 441 1709 441 
Q 2250 441 2565 725 
Q 2881 1009 2881 1497 
Q 2881 1984 2565 2268 
Q 2250 2553 1709 2553 
Q 1456 2553 1204 2497 
Q 953 2441 691 2322 
L 691 4666 
z
" transform="scale(0.015625)"/>
        <path id="DejaVuSans-2e" d="M 684 794 
L 1344 794 
L 1344 0 
L 684 0 
L 684 794 
z
" transform="scale(0.015625)"/>
        <path id="DejaVuSans-30" d="M 2034 4250 
Q 1547 4250 1301 3770 
Q 1056 3291 1056 2328 
Q 1056 1369 1301 889 
Q 1547 409 2034 409 
Q 2525 409 2770 889 
Q 3016 1369 3016 2328 
Q 3016 3291 2770 3770 
Q 2525 4250 2034 4250 
z
M 2034 4750 
Q 2819 4750 3233 4129 
Q 3647 3509 3647 2328 
Q 3647 1150 3233 529 
Q 2819 -91 2034 -91 
Q 1250 -91 836 529 
Q 422 1150 422 2328 
Q 422 3509 836 4129 
Q 1250 4750 2034 4750 
z
" transform="scale(0.015625)"/>
       </defs>
       <use xlink:href="#DejaVuSans-35"/>
       <use xlink:href="#DejaVuSans-2e" transform="translate(63.623047 0)"/>
       <use xlink:href="#DejaVuSans-30" transform="translate(95.410156 0)"/>
      </g>
     </g>
    </g>
    <g id="ytick_2">
     <g id="line2d_5">
      <path d="M 54.305937 274.140527 
L 166.313781 274.140527 
" clip-path="url(#p97c7c45502)" style="fill: none; stroke: #b0b0b0; stroke-opacity: 0.2; stroke-width: 0.6; stroke-linecap: square"/>
     </g>
     <g id="line2d_6">
      <g>
       <use xlink:href="#m87412392f7" x="54.305937" y="274.140527" style="stroke: #000000; stroke-width: 0.8"/>
      </g>
     </g>
     <g id="text_3">
      <!-- 7.5 -->
      <g transform="translate(29.8125 278.319668) scale(0.11 -0.11)">
       <defs>
        <path id="DejaVuSans-37" d="M 525 4666 
L 3525 4666 
L 3525 4397 
L 1831 0 
L 1172 0 
L 2766 4134 
L 525 4134 
L 525 4666 
z
" transform="scale(0.015625)"/>
       </defs>
       <use xlink:href="#DejaVuSans-37"/>
       <use xlink:href="#DejaVuSans-2e" transform="translate(63.623047 0)"/>
       <use xlink:href="#DejaVuSans-35" transform="translate(95.410156 0)"/>
      </g>
     </g>
    </g>
    <g id="ytick_3">
     <g id="line2d_7">
      <path d="M 54.305937 232.698075 
L 166.313781 232.698075 
" clip-path="url(#p97c7c45502)" style="fill: none; stroke: #b0b0b0; stroke-opacity: 0.2; stroke-width: 0.6; stroke-linecap: square"/>
     </g>
     <g id="line2d_8">
      <g>
       <use xlink:href="#m87412392f7" x="54.305937" y="232.698075" style="stroke: #000000; stroke-width: 0.8"/>
      </g>
     </g>
     <g id="text_4">
      <!-- 10.0 -->
      <g transform="translate(22.81375 236.877216) scale(0.11 -0.11)">
       <defs>
        <path id="DejaVuSans-31" d="M 794 531 
L 1825 531 
L 1825 4091 
L 703 3866 
L 703 4441 
L 1819 4666 
L 2450 4666 
L 2450 531 
L 3481 531 
L 3481 0 
L 794 0 
L 794 531 
z
" transform="scale(0.015625)"/>
       </defs>
       <use xlink:href="#DejaVuSans-31"/>
       <use xlink:href="#DejaVuSans-30" transform="translate(63.623047 0)"/>
       <use xlink:href="#DejaVuSans-2e" transform="translate(127.246094 0)"/>
       <use xlink:href="#DejaVuSans-30" transform="translate(159.033203 0)"/>
      </g>
     </g>
    </g>
    <g id="ytick_4">
     <g id="line2d_9">
      <path d="M 54.305937 191.255623 
L 166.313781 191.255623 
" clip-path="url(#p97c7c45502)" style="fill: none; stroke: #b0b0b0; stroke-opacity: 0.2; stroke-width: 0.6; stroke-linecap: square"/>
     </g>
     <g id="line2d_10">
      <g>
       <use xlink:href="#m87412392f7" x="54.305937" y="191.255623" style="stroke: #000000; stroke-width: 0.8"/>
      </g>
     </g>
     <g id="text_5">
      <!-- 12.5 -->
      <g transform="translate(22.81375 195.434764) scale(0.11 -0.11)">
       <defs>
        <path id="DejaVuSans-32" d="M 1228 531 
L 3431 531 
L 3431 0 
L 469 0 
L 469 531 
Q 828 903 1448 1529 
Q 2069 2156 2228 2338 
Q 2531 2678 2651 2914 
Q 2772 3150 2772 3378 
Q 2772 3750 2511 3984 
Q 2250 4219 1831 4219 
Q 1534 4219 1204 4116 
Q 875 4013 500 3803 
L 500 4441 
Q 881 4594 1212 4672 
Q 1544 4750 1819 4750 
Q 2544 4750 2975 4387 
Q 3406 4025 3406 3419 
Q 3406 3131 3298 2873 
Q 3191 2616 2906 2266 
Q 2828 2175 2409 1742 
Q 1991 1309 1228 531 
z
" transform="scale(0.015625)"/>
       </defs>
       <use xlink:href="#DejaVuSans-31"/>
       <use xlink:href="#DejaVuSans-32" transform="translate(63.623047 0)"/>
       <use xlink:href="#DejaVuSans-2e" transform="translate(127.246094 0)"/>
       <use xlink:href="#DejaVuSans-35" transform="translate(159.033203 0)"/>
      </g>
     </g>
    </g>
    <g id="ytick_5">
     <g id="line2d_11">
      <path d="M 54.305937 149.813172 
L 166.313781 149.813172 
" clip-path="url(#p97c7c45502)" style="fill: none; stroke: #b0b0b0; stroke-opacity: 0.2; stroke-width: 0.6; stroke-linecap: square"/>
     </g>
     <g id="line2d_12">
      <g>
       <use xlink:href="#m87412392f7" x="54.305937" y="149.813172" style="stroke: #000000; stroke-width: 0.8"/>
      </g>
     </g>
     <g id="text_6">
      <!-- 15.0 -->
      <g transform="translate(22.81375 153.992312) scale(0.11 -0.11)">
       <use xlink:href="#DejaVuSans-31"/>
       <use xlink:href="#DejaVuSans-35" transform="translate(63.623047 0)"/>
       <use xlink:href="#DejaVuSans-2e" transform="translate(127.246094 0)"/>
       <use xlink:href="#DejaVuSans-30" transform="translate(159.033203 0)"/>
      </g>
     </g>
    </g>
    <g id="ytick_6">
     <g id="line2d_13">
      <path d="M 54.305937 108.37072 
L 166.313781 108.37072 
" clip-path="url(#p97c7c45502)" style="fill: none; stroke: #b0b0b0; stroke-opacity: 0.2; stroke-width: 0.6; stroke-linecap: square"/>
     </g>
     <g id="line2d_14">
      <g>
       <use xlink:href="#m87412392f7" x="54.305937" y="108.37072" style="stroke: #000000; stroke-width: 0.8"/>
      </g>
     </g>
     <g id="text_7">
      <!-- 17.5 -->
      <g transform="translate(22.81375 112.54986) scale(0.11 -0.11)">
       <use xlink:href="#DejaVuSans-31"/>
       <use xlink:href="#DejaVuSans-37" transform="translate(63.623047 0)"/>
       <use xlink:href="#DejaVuSans-2e" transform="translate(127.246094 0)"/>
       <use xlink:href="#DejaVuSans-35" transform="translate(159.033203 0)"/>
      </g>
     </g>
    </g>
    <g id="ytick_7">
     <g id="line2d_15">
      <path d="M 54.305937 66.928268 
L 166.313781 66.928268 
" clip-path="url(#p97c7c45502)" style="fill: none; stroke: #b0b0b0; stroke-opacity: 0.2; stroke-width: 0.6; stroke-linecap: square"/>
     </g>
     <g id="line2d_16">
      <g>
       <use xlink:href="#m87412392f7" x="54.305937" y="66.928268" style="stroke: #000000; stroke-width: 0.8"/>
      </g>
     </g>
     <g id="text_8">
      <!-- 20.0 -->
      <g transform="translate(22.81375 71.107409) scale(0.11 -0.11)">
       <use xlink:href="#DejaVuSans-32"/>
       <use xlink:href="#DejaVuSans-30" transform="translate(63.623047 0)"/>
       <use xlink:href="#DejaVuSans-2e" transform="translate(127.246094 0)"/>
       <use xlink:href="#DejaVuSans-30" transform="translate(159.033203 0)"/>
      </g>
     </g>
    </g>
    <g id="text_9">
     <!-- semitones -->
     <g transform="translate(16.318125 217.555376) rotate(-90) scale(0.12 -0.12)">
      <defs>
       <path id="DejaVuSans-73" d="M 2834 3397 
L 2834 2853 
Q 2591 2978 2328 3040 
Q 2066 3103 1784 3103 
Q 1356 3103 1142 2972 
Q 928 2841 928 2578 
Q 928 2378 1081 2264 
Q 1234 2150 1697 2047 
L 1894 2003 
Q 2506 1872 2764 1633 
Q 3022 1394 3022 966 
Q 3022 478 2636 193 
Q 2250 -91 1575 -91 
Q 1294 -91 989 -36 
Q 684 19 347 128 
L 347 722 
Q 666 556 975 473 
Q 1284 391 1588 391 
Q 1994 391 2212 530 
Q 2431 669 2431 922 
Q 2431 1156 2273 1281 
Q 2116 1406 1581 1522 
L 1381 1569 
Q 847 1681 609 1914 
Q 372 2147 372 2553 
Q 372 3047 722 3315 
Q 1072 3584 1716 3584 
Q 2034 3584 2315 3537 
Q 2597 3491 2834 3397 
z
" transform="scale(0.015625)"/>
       <path id="DejaVuSans-65" d="M 3597 1894 
L 3597 1613 
L 953 1613 
Q 991 1019 1311 708 
Q 1631 397 2203 397 
Q 2534 397 2845 478 
Q 3156 559 3463 722 
L 3463 178 
Q 3153 47 2828 -22 
Q 2503 -91 2169 -91 
Q 1331 -91 842 396 
Q 353 884 353 1716 
Q 353 2575 817 3079 
Q 1281 3584 2069 3584 
Q 2775 3584 3186 3129 
Q 3597 2675 3597 1894 
z
M 3022 2063 
Q 3016 2534 2758 2815 
Q 2500 3097 2075 3097 
Q 1594 3097 1305 2825 
Q 1016 2553 972 2059 
L 3022 2063 
z
" transform="scale(0.015625)"/>
       <path id="DejaVuSans-6d" d="M 3328 2828 
Q 3544 3216 3844 3400 
Q 4144 3584 4550 3584 
Q 5097 3584 5394 3201 
Q 5691 2819 5691 2113 
L 5691 0 
L 5113 0 
L 5113 2094 
Q 5113 2597 4934 2840 
Q 4756 3084 4391 3084 
Q 3944 3084 3684 2787 
Q 3425 2491 3425 1978 
L 3425 0 
L 2847 0 
L 2847 2094 
Q 2847 2600 2669 2842 
Q 2491 3084 2119 3084 
Q 1678 3084 1418 2786 
Q 1159 2488 1159 1978 
L 1159 0 
L 581 0 
L 581 3500 
L 1159 3500 
L 1159 2956 
Q 1356 3278 1631 3431 
Q 1906 3584 2284 3584 
Q 2666 3584 2933 3390 
Q 3200 3197 3328 2828 
z
" transform="scale(0.015625)"/>
       <path id="DejaVuSans-6f" d="M 1959 3097 
Q 1497 3097 1228 2736 
Q 959 2375 959 1747 
Q 959 1119 1226 758 
Q 1494 397 1959 397 
Q 2419 397 2687 759 
Q 2956 1122 2956 1747 
Q 2956 2369 2687 2733 
Q 2419 3097 1959 3097 
z
M 1959 3584 
Q 2709 3584 3137 3096 
Q 3566 2609 3566 1747 
Q 3566 888 3137 398 
Q 2709 -91 1959 -91 
Q 1206 -91 779 398 
Q 353 888 353 1747 
Q 353 2609 779 3096 
Q 1206 3584 1959 3584 
z
" transform="scale(0.015625)"/>
       <path id="DejaVuSans-6e" d="M 3513 2113 
L 3513 0 
L 2938 0 
L 2938 2094 
Q 2938 2591 2744 2837 
Q 2550 3084 2163 3084 
Q 1697 3084 1428 2787 
Q 1159 2491 1159 1978 
L 1159 0 
L 581 0 
L 581 3500 
L 1159 3500 
L 1159 2956 
Q 1366 3272 1645 3428 
Q 1925 3584 2291 3584 
Q 2894 3584 3203 3211 
Q 3513 2838 3513 2113 
z
" transform="scale(0.015625)"/>
      </defs>
      <use xlink:href="#DejaVuSans-73"/>
      <use xlink:href="#DejaVuSans-65" transform="translate(52.099609 0)"/>
      <use xlink:href="#DejaVuSans-6d" transform="translate(113.623047 0)"/>
      <use xlink:href="#DejaVuSans-69" transform="translate(211.035156 0)"/>
      <use xlink:href="#DejaVuSans-74" transform="translate(238.818359 0)"/>
      <use xlink:href="#DejaVuSans-6f" transform="translate(278.027344 0)"/>
      <use xlink:href="#DejaVuSans-6e" transform="translate(339.208984 0)"/>
      <use xlink:href="#DejaVuSans-65" transform="translate(402.587891 0)"/>
      <use xlink:href="#DejaVuSans-73" transform="translate(464.111328 0)"/>
     </g>
    </g>
   </g>
   <g id="FillBetweenPolyCollection_1">
    <defs>
     <path id="mbfde43f717" d="M 158.954327 -66.737983 
L 61.665391 -66.737983 
L 61.142895 -69.529961 
L 60.686587 -72.321939 
L 60.29792 -75.113916 
L 59.978026 -77.905894 
L 59.727707 -80.697872 
L 59.547432 -83.48985 
L 59.437333 -86.281827 
L 59.397203 -89.073805 
L 59.426503 -91.865783 
L 59.524364 -94.657761 
L 59.689594 -97.449738 
L 59.920691 -100.241716 
L 60.215854 -103.033694 
L 60.572996 -105.825672 
L 60.989765 -108.617649 
L 61.463555 -111.409627 
L 61.991535 -114.201605 
L 62.570662 -116.993583 
L 63.197708 -119.78556 
L 63.869286 -122.577538 
L 64.581867 -125.369516 
L 65.331811 -128.161493 
L 66.115388 -130.953471 
L 66.928808 -133.745449 
L 67.76824 -136.537427 
L 68.62984 -139.329404 
L 69.509774 -142.121382 
L 70.404242 -144.91336 
L 71.3095 -147.705338 
L 72.221878 -150.497315 
L 73.137804 -153.289293 
L 74.053823 -156.081271 
L 74.966607 -158.873249 
L 75.872981 -161.665226 
L 76.769926 -164.457204 
L 77.654599 -167.249182 
L 78.524342 -170.04116 
L 79.376689 -172.833137 
L 80.209371 -175.625115 
L 81.020329 -178.417093 
L 81.807709 -181.209071 
L 82.569872 -184.001048 
L 83.305388 -186.793026 
L 84.01304 -189.585004 
L 84.69182 -192.376982 
L 85.340926 -195.168959 
L 85.959754 -197.960937 
L 86.5479 -200.752915 
L 87.105145 -203.544893 
L 87.631452 -206.33687 
L 88.126957 -209.128848 
L 88.591958 -211.920826 
L 89.026909 -214.712804 
L 89.432404 -217.504781 
L 89.809173 -220.296759 
L 90.158066 -223.088737 
L 90.480047 -225.880714 
L 90.776177 -228.672692 
L 91.047607 -231.46467 
L 91.295568 -234.256648 
L 91.521357 -237.048625 
L 91.726325 -239.840603 
L 91.911875 -242.632581 
L 92.07944 -245.424559 
L 92.230485 -248.216536 
L 92.366488 -251.008514 
L 92.488939 -253.800492 
L 92.599327 -256.59247 
L 92.699131 -259.384447 
L 92.789819 -262.176425 
L 92.872834 -264.968403 
L 92.949592 -267.760381 
L 93.021474 -270.552358 
L 93.089823 -273.344336 
L 93.155937 -276.136314 
L 93.221065 -278.928292 
L 93.286403 -281.720269 
L 93.353091 -284.512247 
L 93.422211 -287.304225 
L 93.494781 -290.096203 
L 93.571756 -292.88818 
L 93.654026 -295.680158 
L 93.742411 -298.472136 
L 93.837664 -301.264114 
L 93.940467 -304.056091 
L 94.051431 -306.848069 
L 94.171097 -309.640047 
L 94.299936 -312.432025 
L 94.438344 -315.224002 
L 94.586652 -318.01598 
L 94.745116 -320.807958 
L 94.913925 -323.599936 
L 95.093199 -326.391913 
L 95.282993 -329.183891 
L 95.483293 -331.975869 
L 95.694025 -334.767846 
L 95.91505 -337.559824 
L 96.14617 -340.351802 
L 96.387131 -343.14378 
L 124.232588 -343.14378 
L 124.232588 -343.14378 
L 124.473548 -340.351802 
L 124.704669 -337.559824 
L 124.925693 -334.767846 
L 125.136425 -331.975869 
L 125.336726 -329.183891 
L 125.526519 -326.391913 
L 125.705794 -323.599936 
L 125.874603 -320.807958 
L 126.033066 -318.01598 
L 126.181374 -315.224002 
L 126.319783 -312.432025 
L 126.448621 -309.640047 
L 126.568287 -306.848069 
L 126.679251 -304.056091 
L 126.782054 -301.264114 
L 126.877307 -298.472136 
L 126.965692 -295.680158 
L 127.047962 -292.88818 
L 127.124937 -290.096203 
L 127.197507 -287.304225 
L 127.266627 -284.512247 
L 127.333315 -281.720269 
L 127.398653 -278.928292 
L 127.463781 -276.136314 
L 127.529895 -273.344336 
L 127.598244 -270.552358 
L 127.670127 -267.760381 
L 127.746884 -264.968403 
L 127.829899 -262.176425 
L 127.920587 -259.384447 
L 128.020391 -256.59247 
L 128.130779 -253.800492 
L 128.25323 -251.008514 
L 128.389233 -248.216536 
L 128.540278 -245.424559 
L 128.707844 -242.632581 
L 128.893393 -239.840603 
L 129.098362 -237.048625 
L 129.32415 -234.256648 
L 129.572111 -231.46467 
L 129.843541 -228.672692 
L 130.139671 -225.880714 
L 130.461652 -223.088737 
L 130.810546 -220.296759 
L 131.187314 -217.504781 
L 131.59281 -214.712804 
L 132.02776 -211.920826 
L 132.492761 -209.128848 
L 132.988266 -206.33687 
L 133.514573 -203.544893 
L 134.071818 -200.752915 
L 134.659964 -197.960937 
L 135.278793 -195.168959 
L 135.927898 -192.376982 
L 136.606678 -189.585004 
L 137.31433 -186.793026 
L 138.049846 -184.001048 
L 138.812009 -181.209071 
L 139.59939 -178.417093 
L 140.410347 -175.625115 
L 141.24303 -172.833137 
L 142.095376 -170.04116 
L 142.965119 -167.249182 
L 143.849793 -164.457204 
L 144.746738 -161.665226 
L 145.653111 -158.873249 
L 146.565895 -156.081271 
L 147.481914 -153.289293 
L 148.39784 -150.497315 
L 149.310218 -147.705338 
L 150.215476 -144.91336 
L 151.109944 -142.121382 
L 151.989878 -139.329404 
L 152.851478 -136.537427 
L 153.69091 -133.745449 
L 154.50433 -130.953471 
L 155.287907 -128.161493 
L 156.037851 -125.369516 
L 156.750432 -122.577538 
L 157.42201 -119.78556 
L 158.049057 -116.993583 
L 158.628183 -114.201605 
L 159.156163 -111.409627 
L 159.629953 -108.617649 
L 160.046722 -105.825672 
L 160.403864 -103.033694 
L 160.699027 -100.241716 
L 160.930124 -97.449738 
L 161.095354 -94.657761 
L 161.193215 -91.865783 
L 161.222515 -89.073805 
L 161.182385 -86.281827 
L 161.072286 -83.48985 
L 160.892011 -80.697872 
L 160.641692 -77.905894 
L 160.321798 -75.113916 
L 159.933131 -72.321939 
L 159.476823 -69.529961 
L 158.954327 -66.737983 
z
" style="stroke: #c2410c; stroke-opacity: 0.35"/>
    </defs>
    <g clip-path="url(#p97c7c45502)">
     <use xlink:href="#mbfde43f717" x="0" y="391.52407" style="fill: #c2410c; fill-opacity: 0.35; stroke: #c2410c; stroke-opacity: 0.35"/>
    </g>
   </g>
   <g id="LineCollection_1">
    <path d="M 84.853531 304.248656 
L 135.766187 304.248656 
" clip-path="url(#p97c7c45502)" style="fill: none; stroke: #c2410c; stroke-width: 1.5"/>
   </g>
   <g id="patch_3">
    <path d="M 54.305937 338.606376 
L 54.305937 34.56 
" style="fill: none; stroke: #000000; stroke-width: 0.8; stroke-linejoin: miter; stroke-linecap: square"/>
   </g>
   <g id="patch_4">
    <path d="M 166.313781 338.606376 
L 166.313781 34.56 
" style="fill: none; stroke: #000000; stroke-width: 0.8; stroke-linejoin: miter; stroke-linecap: square"/>
   </g>
   <g id="patch_5">
    <path d="M 54.305937 338.606376 
L 166.313781 338.606376 
" style="fill: none; stroke: #000000; stroke-width: 0.8; stroke-linejoin: miter; stroke-linecap: square"/>
   </g>
   <g id="patch_6">
    <path d="M 54.305937 34.56 
L 166.313781 34.56 
" style="fill: none; stroke: #000000; stroke-width: 0.8; stroke-linejoin: miter; stroke-linecap: square"/>
   </g>
   <g id="PathCollection_1">
    <defs>
     <path id="m1f5fe2cd14" d="M -0 4.472136 
L 4.472136 0 
L 0 -4.472136 
L -4.472136 -0 
z
" style="stroke: #111827"/>
    </defs>
    <g clip-path="url(#p97c7c45502)">
     <use xlink:href="#m1f5fe2cd14" x="110.309859" y="310.834556" style="fill: #111827; stroke: #111827"/>
    </g>
   </g>
  </g>
  <g id="axes_2">
   <g id="patch_7">
    <path d="M 305.972016 338.606376 
L 417.979859 338.606376 
L 417.979859 34.56 
L 305.972016 34.56 
z
" style="fill: #ffffff"/>
   </g>
   <g id="matplotlib.axis_3">
    <g id="xtick_2">
     <g id="line2d_17">
      <path d="M 361.975937 338.606376 
L 361.975937 34.56 
" clip-path="url(#p37bedb344e)" style="fill: none; stroke: #b0b0b0; stroke-opacity: 0.2; stroke-width: 0.6; stroke-linecap: square"/>
     </g>
     <g id="line2d_18">
      <g>
       <use xlink:href="#m3baca56371" x="361.975937" y="338.606376" style="stroke: #000000; stroke-width: 0.8"/>
      </g>
     </g>
     <g id="text_10">
      <!-- Loudness variability -->
      <g transform="translate(255.264822 382.114363) rotate(-15) scale(0.11 -0.11)">
       <defs>
        <path id="DejaVuSans-4c" d="M 628 4666 
L 1259 4666 
L 1259 531 
L 3531 531 
L 3531 0 
L 628 0 
L 628 4666 
z
" transform="scale(0.015625)"/>
        <path id="DejaVuSans-75" d="M 544 1381 
L 544 3500 
L 1119 3500 
L 1119 1403 
Q 1119 906 1312 657 
Q 1506 409 1894 409 
Q 2359 409 2629 706 
Q 2900 1003 2900 1516 
L 2900 3500 
L 3475 3500 
L 3475 0 
L 2900 0 
L 2900 538 
Q 2691 219 2414 64 
Q 2138 -91 1772 -91 
Q 1169 -91 856 284 
Q 544 659 544 1381 
z
M 1991 3584 
L 1991 3584 
z
" transform="scale(0.015625)"/>
        <path id="DejaVuSans-64" d="M 2906 2969 
L 2906 4863 
L 3481 4863 
L 3481 0 
L 2906 0 
L 2906 525 
Q 2725 213 2448 61 
Q 2172 -91 1784 -91 
Q 1150 -91 751 415 
Q 353 922 353 1747 
Q 353 2572 751 3078 
Q 1150 3584 1784 3584 
Q 2172 3584 2448 3432 
Q 2725 3281 2906 2969 
z
M 947 1747 
Q 947 1113 1208 752 
Q 1469 391 1925 391 
Q 2381 391 2643 752 
Q 2906 1113 2906 1747 
Q 2906 2381 2643 2742 
Q 2381 3103 1925 3103 
Q 1469 3103 1208 2742 
Q 947 2381 947 1747 
z
" transform="scale(0.015625)"/>
       </defs>
       <use xlink:href="#DejaVuSans-4c"/>
       <use xlink:href="#DejaVuSans-6f" transform="translate(53.962891 0)"/>
       <use xlink:href="#DejaVuSans-75" transform="translate(115.144531 0)"/>
       <use xlink:href="#DejaVuSans-64" transform="translate(178.523438 0)"/>
       <use xlink:href="#DejaVuSans-6e" transform="translate(242 0)"/>
       <use xlink:href="#DejaVuSans-65" transform="translate(305.378906 0)"/>
       <use xlink:href="#DejaVuSans-73" transform="translate(366.902344 0)"/>
       <use xlink:href="#DejaVuSans-73" transform="translate(419.001953 0)"/>
       <use xlink:href="#DejaVuSans-20" transform="translate(471.101562 0)"/>
       <use xlink:href="#DejaVuSans-76" transform="translate(502.888672 0)"/>
       <use xlink:href="#DejaVuSans-61" transform="translate(562.068359 0)"/>
       <use xlink:href="#DejaVuSans-72" transform="translate(623.347656 0)"/>
       <use xlink:href="#DejaVuSans-69" transform="translate(664.460938 0)"/>
       <use xlink:href="#DejaVuSans-61" transform="translate(692.244141 0)"/>
       <use xlink:href="#DejaVuSans-62" transform="translate(753.523438 0)"/>
       <use xlink:href="#DejaVuSans-69" transform="translate(817 0)"/>
       <use xlink:href="#DejaVuSans-6c" transform="translate(844.783203 0)"/>
       <use xlink:href="#DejaVuSans-69" transform="translate(872.566406 0)"/>
       <use xlink:href="#DejaVuSans-74" transform="translate(900.349609 0)"/>
       <use xlink:href="#DejaVuSans-79" transform="translate(939.558594 0)"/>
      </g>
     </g>
    </g>
   </g>
   <g id="matplotlib.axis_4">
    <g id="ytick_8">
     <g id="line2d_19">
      <path d="M 305.972016 296.752935 
L 417.979859 296.752935 
" clip-path="url(#p37bedb344e)" style="fill: none; stroke: #b0b0b0; stroke-opacity: 0.2; stroke-width: 0.6; stroke-linecap: square"/>
     </g>
     <g id="line2d_20">
      <g>
       <use xlink:href="#m87412392f7" x="305.972016" y="296.752935" style="stroke: #000000; stroke-width: 0.8"/>
      </g>
     </g>
     <g id="text_11">
      <!-- 0.8 -->
      <g transform="translate(281.478578 300.932075) scale(0.11 -0.11)">
       <defs>
        <path id="DejaVuSans-38" d="M 2034 2216 
Q 1584 2216 1326 1975 
Q 1069 1734 1069 1313 
Q 1069 891 1326 650 
Q 1584 409 2034 409 
Q 2484 409 2743 651 
Q 3003 894 3003 1313 
Q 3003 1734 2745 1975 
Q 2488 2216 2034 2216 
z
M 1403 2484 
Q 997 2584 770 2862 
Q 544 3141 544 3541 
Q 544 4100 942 4425 
Q 1341 4750 2034 4750 
Q 2731 4750 3128 4425 
Q 3525 4100 3525 3541 
Q 3525 3141 3298 2862 
Q 3072 2584 2669 2484 
Q 3125 2378 3379 2068 
Q 3634 1759 3634 1313 
Q 3634 634 3220 271 
Q 2806 -91 2034 -91 
Q 1263 -91 848 271 
Q 434 634 434 1313 
Q 434 1759 690 2068 
Q 947 2378 1403 2484 
z
M 1172 3481 
Q 1172 3119 1398 2916 
Q 1625 2713 2034 2713 
Q 2441 2713 2670 2916 
Q 2900 3119 2900 3481 
Q 2900 3844 2670 4047 
Q 2441 4250 2034 4250 
Q 1625 4250 1398 4047 
Q 1172 3844 1172 3481 
z
" transform="scale(0.015625)"/>
       </defs>
       <use xlink:href="#DejaVuSans-30"/>
       <use xlink:href="#DejaVuSans-2e" transform="translate(63.623047 0)"/>
       <use xlink:href="#DejaVuSans-38" transform="translate(95.410156 0)"/>
      </g>
     </g>
    </g>
    <g id="ytick_9">
     <g id="line2d_21">
      <path d="M 305.972016 254.596961 
L 417.979859 254.596961 
" clip-path="url(#p37bedb344e)" style="fill: none; stroke: #b0b0b0; stroke-opacity: 0.2; stroke-width: 0.6; stroke-linecap: square"/>
     </g>
     <g id="line2d_22">
      <g>
       <use xlink:href="#m87412392f7" x="305.972016" y="254.596961" style="stroke: #000000; stroke-width: 0.8"/>
      </g>
     </g>
     <g id="text_12">
      <!-- 1.0 -->
      <g transform="translate(281.478578 258.776102) scale(0.11 -0.11)">
       <use xlink:href="#DejaVuSans-31"/>
       <use xlink:href="#DejaVuSans-2e" transform="translate(63.623047 0)"/>
       <use xlink:href="#DejaVuSans-30" transform="translate(95.410156 0)"/>
      </g>
     </g>
    </g>
    <g id="ytick_10">
     <g id="line2d_23">
      <path d="M 305.972016 212.440988 
L 417.979859 212.440988 
" clip-path="url(#p37bedb344e)" style="fill: none; stroke: #b0b0b0; stroke-opacity: 0.2; stroke-width: 0.6; stroke-linecap: square"/>
     </g>
     <g id="line2d_24">
      <g>
       <use xlink:href="#m87412392f7" x="305.972016" y="212.440988" style="stroke: #000000; stroke-width: 0.8"/>
      </g>
     </g>
     <g id="text_13">
      <!-- 1.2 -->
      <g transform="translate(281.478578 216.620129) scale(0.11 -0.11)">
       <use xlink:href="#DejaVuSans-31"/>
       <use xlink:href="#DejaVuSans-2e" transform="translate(63.623047 0)"/>
       <use xlink:href="#DejaVuSans-32" transform="translate(95.410156 0)"/>
      </g>
     </g>
    </g>
    <g id="ytick_11">
     <g id="line2d_25">
      <path d="M 305.972016 170.285015 
L 417.979859 170.285015 
" clip-path="url(#p37bedb344e)" style="fill: none; stroke: #b0b0b0; stroke-opacity: 0.2; stroke-width: 0.6; stroke-linecap: square"/>
     </g>
     <g id="line2d_26">
      <g>
       <use xlink:href="#m87412392f7" x="305.972016" y="170.285015" style="stroke: #000000; stroke-width: 0.8"/>
      </g>
     </g>
     <g id="text_14">
      <!-- 1.4 -->
      <g transform="translate(281.478578 174.464156) scale(0.11 -0.11)">
       <defs>
        <path id="DejaVuSans-34" d="M 2419 4116 
L 825 1625 
L 2419 1625 
L 2419 4116 
z
M 2253 4666 
L 3047 4666 
L 3047 1625 
L 3713 1625 
L 3713 1100 
L 3047 1100 
L 3047 0 
L 2419 0 
L 2419 1100 
L 313 1100 
L 313 1709 
L 2253 4666 
z
" transform="scale(0.015625)"/>
       </defs>
       <use xlink:href="#DejaVuSans-31"/>
       <use xlink:href="#DejaVuSans-2e" transform="translate(63.623047 0)"/>
       <use xlink:href="#DejaVuSans-34" transform="translate(95.410156 0)"/>
      </g>
     </g>
    </g>
    <g id="ytick_12">
     <g id="line2d_27">
      <path d="M 305.972016 128.129042 
L 417.979859 128.129042 
" clip-path="url(#p37bedb344e)" style="fill: none; stroke: #b0b0b0; stroke-opacity: 0.2; stroke-width: 0.6; stroke-linecap: square"/>
     </g>
     <g id="line2d_28">
      <g>
       <use xlink:href="#m87412392f7" x="305.972016" y="128.129042" style="stroke: #000000; stroke-width: 0.8"/>
      </g>
     </g>
     <g id="text_15">
      <!-- 1.6 -->
      <g transform="translate(281.478578 132.308182) scale(0.11 -0.11)">
       <defs>
        <path id="DejaVuSans-36" d="M 2113 2584 
Q 1688 2584 1439 2293 
Q 1191 2003 1191 1497 
Q 1191 994 1439 701 
Q 1688 409 2113 409 
Q 2538 409 2786 701 
Q 3034 994 3034 1497 
Q 3034 2003 2786 2293 
Q 2538 2584 2113 2584 
z
M 3366 4563 
L 3366 3988 
Q 3128 4100 2886 4159 
Q 2644 4219 2406 4219 
Q 1781 4219 1451 3797 
Q 1122 3375 1075 2522 
Q 1259 2794 1537 2939 
Q 1816 3084 2150 3084 
Q 2853 3084 3261 2657 
Q 3669 2231 3669 1497 
Q 3669 778 3244 343 
Q 2819 -91 2113 -91 
Q 1303 -91 875 529 
Q 447 1150 447 2328 
Q 447 3434 972 4092 
Q 1497 4750 2381 4750 
Q 2619 4750 2861 4703 
Q 3103 4656 3366 4563 
z
" transform="scale(0.015625)"/>
       </defs>
       <use xlink:href="#DejaVuSans-31"/>
       <use xlink:href="#DejaVuSans-2e" transform="translate(63.623047 0)"/>
       <use xlink:href="#DejaVuSans-36" transform="translate(95.410156 0)"/>
      </g>
     </g>
    </g>
    <g id="ytick_13">
     <g id="line2d_29">
      <path d="M 305.972016 85.973069 
L 417.979859 85.973069 
" clip-path="url(#p37bedb344e)" style="fill: none; stroke: #b0b0b0; stroke-opacity: 0.2; stroke-width: 0.6; stroke-linecap: square"/>
     </g>
     <g id="line2d_30">
      <g>
       <use xlink:href="#m87412392f7" x="305.972016" y="85.973069" style="stroke: #000000; stroke-width: 0.8"/>
      </g>
     </g>
     <g id="text_16">
      <!-- 1.8 -->
      <g transform="translate(281.478578 90.152209) scale(0.11 -0.11)">
       <use xlink:href="#DejaVuSans-31"/>
       <use xlink:href="#DejaVuSans-2e" transform="translate(63.623047 0)"/>
       <use xlink:href="#DejaVuSans-38" transform="translate(95.410156 0)"/>
      </g>
     </g>
    </g>
    <g id="ytick_14">
     <g id="line2d_31">
      <path d="M 305.972016 43.817095 
L 417.979859 43.817095 
" clip-path="url(#p37bedb344e)" style="fill: none; stroke: #b0b0b0; stroke-opacity: 0.2; stroke-width: 0.6; stroke-linecap: square"/>
     </g>
     <g id="line2d_32">
      <g>
       <use xlink:href="#m87412392f7" x="305.972016" y="43.817095" style="stroke: #000000; stroke-width: 0.8"/>
      </g>
     </g>
     <g id="text_17">
      <!-- 2.0 -->
      <g transform="translate(281.478578 47.996236) scale(0.11 -0.11)">
       <use xlink:href="#DejaVuSans-32"/>
       <use xlink:href="#DejaVuSans-2e" transform="translate(63.623047 0)"/>
       <use xlink:href="#DejaVuSans-30" transform="translate(95.410156 0)"/>
      </g>
     </g>
    </g>
    <g id="text_18">
     <!-- normalized SD -->
     <g transform="translate(274.982953 230.259438) rotate(-90) scale(0.12 -0.12)">
      <defs>
       <path id="DejaVuSans-7a" d="M 353 3500 
L 3084 3500 
L 3084 2975 
L 922 459 
L 3084 459 
L 3084 0 
L 275 0 
L 275 525 
L 2438 3041 
L 353 3041 
L 353 3500 
z
" transform="scale(0.015625)"/>
       <path id="DejaVuSans-53" d="M 3425 4513 
L 3425 3897 
Q 3066 4069 2747 4153 
Q 2428 4238 2131 4238 
Q 1616 4238 1336 4038 
Q 1056 3838 1056 3469 
Q 1056 3159 1242 3001 
Q 1428 2844 1947 2747 
L 2328 2669 
Q 3034 2534 3370 2195 
Q 3706 1856 3706 1288 
Q 3706 609 3251 259 
Q 2797 -91 1919 -91 
Q 1588 -91 1214 -16 
Q 841 59 441 206 
L 441 856 
Q 825 641 1194 531 
Q 1563 422 1919 422 
Q 2459 422 2753 634 
Q 3047 847 3047 1241 
Q 3047 1584 2836 1778 
Q 2625 1972 2144 2069 
L 1759 2144 
Q 1053 2284 737 2584 
Q 422 2884 422 3419 
Q 422 4038 858 4394 
Q 1294 4750 2059 4750 
Q 2388 4750 2728 4690 
Q 3069 4631 3425 4513 
z
" transform="scale(0.015625)"/>
       <path id="DejaVuSans-44" d="M 1259 4147 
L 1259 519 
L 2022 519 
Q 2988 519 3436 956 
Q 3884 1394 3884 2338 
Q 3884 3275 3436 3711 
Q 2988 4147 2022 4147 
L 1259 4147 
z
M 628 4666 
L 1925 4666 
Q 3281 4666 3915 4102 
Q 4550 3538 4550 2338 
Q 4550 1131 3912 565 
Q 3275 0 1925 0 
L 628 0 
L 628 4666 
z
" transform="scale(0.015625)"/>
      </defs>
      <use xlink:href="#DejaVuSans-6e"/>
      <use xlink:href="#DejaVuSans-6f" transform="translate(63.378906 0)"/>
      <use xlink:href="#DejaVuSans-72" transform="translate(124.560547 0)"/>
      <use xlink:href="#DejaVuSans-6d" transform="translate(163.923828 0)"/>
      <use xlink:href="#DejaVuSans-61" transform="translate(261.335938 0)"/>
      <use xlink:href="#DejaVuSans-6c" transform="translate(322.615234 0)"/>
      <use xlink:href="#DejaVuSans-69" transform="translate(350.398438 0)"/>
      <use xlink:href="#DejaVuSans-7a" transform="translate(378.181641 0)"/>
      <use xlink:href="#DejaVuSans-65" transform="translate(430.671875 0)"/>
      <use xlink:href="#DejaVuSans-64" transform="translate(492.195312 0)"/>
      <use xlink:href="#DejaVuSans-20" transform="translate(555.671875 0)"/>
      <use xlink:href="#DejaVuSans-53" transform="translate(587.458984 0)"/>
      <use xlink:href="#DejaVuSans-44" transform="translate(650.935547 0)"/>
     </g>
    </g>
   </g>
   <g id="FillBetweenPolyCollection_2">
    <defs>
     <path id="mb6a7adaac3" d="M 397.009296 -66.737983 
L 326.942579 -66.737983 
L 325.84073 -69.529961 
L 324.756933 -72.321939 
L 323.694541 -75.113916 
L 322.656873 -77.905894 
L 321.647198 -80.697872 
L 320.668707 -83.48985 
L 319.724498 -86.281827 
L 318.817549 -89.073805 
L 317.950701 -91.865783 
L 317.126637 -94.657761 
L 316.347866 -97.449738 
L 315.616698 -100.241716 
L 314.935237 -103.033694 
L 314.30536 -105.825672 
L 313.728704 -108.617649 
L 313.206658 -111.409627 
L 312.740354 -114.201605 
L 312.330656 -116.993583 
L 311.978157 -119.78556 
L 311.683178 -122.577538 
L 311.445766 -125.369516 
L 311.265693 -128.161493 
L 311.142468 -130.953471 
L 311.075333 -133.745449 
L 311.063282 -136.537427 
L 311.105061 -139.329404 
L 311.199188 -142.121382 
L 311.343964 -144.91336 
L 311.537488 -147.705338 
L 311.777675 -150.497315 
L 312.062275 -153.289293 
L 312.388888 -156.081271 
L 312.754991 -158.873249 
L 313.157951 -161.665226 
L 313.59505 -164.457204 
L 314.063504 -167.249182 
L 314.560486 -170.04116 
L 315.083146 -172.833137 
L 315.628627 -175.625115 
L 316.19409 -178.417093 
L 316.776729 -181.209071 
L 317.37379 -184.001048 
L 317.982587 -186.793026 
L 318.600517 -189.585004 
L 319.225073 -192.376982 
L 319.853861 -195.168959 
L 320.484604 -197.960937 
L 321.11516 -200.752915 
L 321.743522 -203.544893 
L 322.367832 -206.33687 
L 322.986381 -209.128848 
L 323.597619 -211.920826 
L 324.20015 -214.712804 
L 324.79274 -217.504781 
L 325.374317 -220.296759 
L 325.943963 -223.088737 
L 326.500922 -225.880714 
L 327.04459 -228.672692 
L 327.574515 -231.46467 
L 328.090389 -234.256648 
L 328.592046 -237.048625 
L 329.079455 -239.840603 
L 329.552714 -242.632581 
L 330.01204 -245.424559 
L 330.457766 -248.216536 
L 330.890331 -251.008514 
L 331.310273 -253.800492 
L 331.718219 -256.59247 
L 332.114878 -259.384447 
L 332.501034 -262.176425 
L 332.877533 -264.968403 
L 333.245278 -267.760381 
L 333.605221 -270.552358 
L 333.95835 -273.344336 
L 334.305683 -276.136314 
L 334.648262 -278.928292 
L 334.987139 -281.720269 
L 335.32337 -284.512247 
L 335.658008 -287.304225 
L 335.992093 -290.096203 
L 336.326646 -292.88818 
L 336.662657 -295.680158 
L 337.001083 -298.472136 
L 337.342838 -301.264114 
L 337.688783 -304.056091 
L 338.039726 -306.848069 
L 338.396412 -309.640047 
L 338.759515 -312.432025 
L 339.129638 -315.224002 
L 339.507305 -318.01598 
L 339.892957 -320.807958 
L 340.286951 -323.599936 
L 340.689551 -326.391913 
L 341.100935 -329.183891 
L 341.521185 -331.975869 
L 341.950291 -334.767846 
L 342.38815 -337.559824 
L 342.834565 -340.351802 
L 343.289251 -343.14378 
L 380.662624 -343.14378 
L 380.662624 -343.14378 
L 381.11731 -340.351802 
L 381.563725 -337.559824 
L 382.001584 -334.767846 
L 382.43069 -331.975869 
L 382.85094 -329.183891 
L 383.262324 -326.391913 
L 383.664924 -323.599936 
L 384.058918 -320.807958 
L 384.44457 -318.01598 
L 384.822237 -315.224002 
L 385.19236 -312.432025 
L 385.555463 -309.640047 
L 385.912149 -306.848069 
L 386.263092 -304.056091 
L 386.609037 -301.264114 
L 386.950792 -298.472136 
L 387.289218 -295.680158 
L 387.625229 -292.88818 
L 387.959782 -290.096203 
L 388.293867 -287.304225 
L 388.628505 -284.512247 
L 388.964736 -281.720269 
L 389.303613 -278.928292 
L 389.646192 -276.136314 
L 389.993525 -273.344336 
L 390.346654 -270.552358 
L 390.706597 -267.760381 
L 391.074342 -264.968403 
L 391.450841 -262.176425 
L 391.836997 -259.384447 
L 392.233656 -256.59247 
L 392.641602 -253.800492 
L 393.061544 -251.008514 
L 393.494109 -248.216536 
L 393.939835 -245.424559 
L 394.399161 -242.632581 
L 394.87242 -239.840603 
L 395.359829 -237.048625 
L 395.861486 -234.256648 
L 396.37736 -231.46467 
L 396.907285 -228.672692 
L 397.450953 -225.880714 
L 398.007912 -223.088737 
L 398.577558 -220.296759 
L 399.159135 -217.504781 
L 399.751725 -214.712804 
L 400.354256 -211.920826 
L 400.965494 -209.128848 
L 401.584043 -206.33687 
L 402.208353 -203.544893 
L 402.836715 -200.752915 
L 403.467271 -197.960937 
L 404.098014 -195.168959 
L 404.726802 -192.376982 
L 405.351358 -189.585004 
L 405.969288 -186.793026 
L 406.578085 -184.001048 
L 407.175146 -181.209071 
L 407.757785 -178.417093 
L 408.323248 -175.625115 
L 408.868729 -172.833137 
L 409.391389 -170.04116 
L 409.888371 -167.249182 
L 410.356825 -164.457204 
L 410.793924 -161.665226 
L 411.196884 -158.873249 
L 411.562987 -156.081271 
L 411.8896 -153.289293 
L 412.1742 -150.497315 
L 412.414387 -147.705338 
L 412.607911 -144.91336 
L 412.752687 -142.121382 
L 412.846814 -139.329404 
L 412.888593 -136.537427 
L 412.876542 -133.745449 
L 412.809407 -130.953471 
L 412.686182 -128.161493 
L 412.506109 -125.369516 
L 412.268697 -122.577538 
L 411.973718 -119.78556 
L 411.621219 -116.993583 
L 411.211521 -114.201605 
L 410.745217 -111.409627 
L 410.223171 -108.617649 
L 409.646515 -105.825672 
L 409.016638 -103.033694 
L 408.335177 -100.241716 
L 407.604009 -97.449738 
L 406.825238 -94.657761 
L 406.001174 -91.865783 
L 405.134326 -89.073805 
L 404.227377 -86.281827 
L 403.283168 -83.48985 
L 402.304677 -80.697872 
L 401.295002 -77.905894 
L 400.257334 -75.113916 
L 399.194942 -72.321939 
L 398.111145 -69.529961 
L 397.009296 -66.737983 
z
" style="stroke: #c2410c; stroke-opacity: 0.35"/>
    </defs>
    <g clip-path="url(#p37bedb344e)">
     <use xlink:href="#mb6a7adaac3" x="0" y="391.52407" style="fill: #c2410c; fill-opacity: 0.35; stroke: #c2410c; stroke-opacity: 0.35"/>
    </g>
   </g>
   <g id="LineCollection_2">
    <path d="M 336.51961 237.852994 
L 387.432265 237.852994 
" clip-path="url(#p37bedb344e)" style="fill: none; stroke: #c2410c; stroke-width: 1.5"/>
   </g>
   <g id="patch_8">
    <path d="M 305.972016 338.606376 
L 305.972016 34.56 
" style="fill: none; stroke: #000000; stroke-width: 0.8; stroke-linejoin: miter; stroke-linecap: square"/>
   </g>
   <g id="patch_9">
    <path d="M 417.979859 338.606376 
L 417.979859 34.56 
" style="fill: none; stroke: #000000; stroke-width: 0.8; stroke-linejoin: miter; stroke-linecap: square"/>
   </g>
   <g id="patch_10">
    <path d="M 305.972016 338.606376 
L 417.979859 338.606376 
" style="fill: none; stroke: #000000; stroke-width: 0.8; stroke-linejoin: miter; stroke-linecap: square"/>
   </g>
   <g id="patch_11">
    <path d="M 305.972016 34.56 
L 417.979859 34.56 
" style="fill: none; stroke: #000000; stroke-width: 0.8; stroke-linejoin: miter; stroke-linecap: square"/>
   </g>
   <g id="PathCollection_2">
    <g clip-path="url(#p37bedb344e)">
     <use xlink:href="#m1f5fe2cd14" x="361.975937" y="272.645964" style="fill: #111827; stroke: #111827"/>
    </g>
   </g>
  </g>
  <g id="axes_3">
   <g id="patch_12">
    <path d="M 557.638094 338.606376 
L 669.645937 338.606376 
L 669.645937 34.56 
L 557.638094 34.56 
z
" style="fill: #ffffff"/>
   </g>
   <g id="matplotlib.axis_5">
    <g id="xtick_3">
     <g id="line2d_33">
      <path d="M 613.642016 338.606376 
L 613.642016 34.56 
" clip-path="url(#p11b280f372)" style="fill: none; stroke: #b0b0b0; stroke-opacity: 0.2; stroke-width: 0.6; stroke-linecap: square"/>
     </g>
     <g id="line2d_34">
      <g>
       <use xlink:href="#m3baca56371" x="613.642016" y="338.606376" style="stroke: #000000; stroke-width: 0.8"/>
      </g>
     </g>
     <g id="text_19">
      <!-- Speech rate -->
      <g transform="translate(548.948523 370.855775) rotate(-15) scale(0.11 -0.11)">
       <defs>
        <path id="DejaVuSans-70" d="M 1159 525 
L 1159 -1331 
L 581 -1331 
L 581 3500 
L 1159 3500 
L 1159 2969 
Q 1341 3281 1617 3432 
Q 1894 3584 2278 3584 
Q 2916 3584 3314 3078 
Q 3713 2572 3713 1747 
Q 3713 922 3314 415 
Q 2916 -91 2278 -91 
Q 1894 -91 1617 61 
Q 1341 213 1159 525 
z
M 3116 1747 
Q 3116 2381 2855 2742 
Q 2594 3103 2138 3103 
Q 1681 3103 1420 2742 
Q 1159 2381 1159 1747 
Q 1159 1113 1420 752 
Q 1681 391 2138 391 
Q 2594 391 2855 752 
Q 3116 1113 3116 1747 
z
" transform="scale(0.015625)"/>
       </defs>
       <use xlink:href="#DejaVuSans-53"/>
       <use xlink:href="#DejaVuSans-70" transform="translate(63.476562 0)"/>
       <use xlink:href="#DejaVuSans-65" transform="translate(126.953125 0)"/>
       <use xlink:href="#DejaVuSans-65" transform="translate(188.476562 0)"/>
       <use xlink:href="#DejaVuSans-63" transform="translate(250 0)"/>
       <use xlink:href="#DejaVuSans-68" transform="translate(304.980469 0)"/>
       <use xlink:href="#DejaVuSans-20" transform="translate(368.359375 0)"/>
       <use xlink:href="#DejaVuSans-72" transform="translate(400.146484 0)"/>
       <use xlink:href="#DejaVuSans-61" transform="translate(441.259766 0)"/>
       <use xlink:href="#DejaVuSans-74" transform="translate(502.539062 0)"/>
       <use xlink:href="#DejaVuSans-65" transform="translate(541.748047 0)"/>
      </g>
     </g>
    </g>
   </g>
   <g id="matplotlib.axis_6">
    <g id="ytick_15">
     <g id="line2d_35">
      <path d="M 557.638094 299.824188 
L 669.645937 299.824188 
" clip-path="url(#p11b280f372)" style="fill: none; stroke: #b0b0b0; stroke-opacity: 0.2; stroke-width: 0.6; stroke-linecap: square"/>
     </g>
     <g id="line2d_36">
      <g>
       <use xlink:href="#m87412392f7" x="557.638094" y="299.824188" style="stroke: #000000; stroke-width: 0.8"/>
      </g>
     </g>
     <g id="text_20">
      <!-- 0.8 -->
      <g transform="translate(533.144657 304.003329) scale(0.11 -0.11)">
       <use xlink:href="#DejaVuSans-30"/>
       <use xlink:href="#DejaVuSans-2e" transform="translate(63.623047 0)"/>
       <use xlink:href="#DejaVuSans-38" transform="translate(95.410156 0)"/>
      </g>
     </g>
    </g>
    <g id="ytick_16">
     <g id="line2d_37">
      <path d="M 557.638094 251.235404 
L 669.645937 251.235404 
" clip-path="url(#p11b280f372)" style="fill: none; stroke: #b0b0b0; stroke-opacity: 0.2; stroke-width: 0.6; stroke-linecap: square"/>
     </g>
     <g id="line2d_38">
      <g>
       <use xlink:href="#m87412392f7" x="557.638094" y="251.235404" style="stroke: #000000; stroke-width: 0.8"/>
      </g>
     </g>
     <g id="text_21">
      <!-- 1.0 -->
      <g transform="translate(533.144657 255.414544) scale(0.11 -0.11)">
       <use xlink:href="#DejaVuSans-31"/>
       <use xlink:href="#DejaVuSans-2e" transform="translate(63.623047 0)"/>
       <use xlink:href="#DejaVuSans-30" transform="translate(95.410156 0)"/>
      </g>
     </g>
    </g>
    <g id="ytick_17">
     <g id="line2d_39">
      <path d="M 557.638094 202.646619 
L 669.645937 202.646619 
" clip-path="url(#p11b280f372)" style="fill: none; stroke: #b0b0b0; stroke-opacity: 0.2; stroke-width: 0.6; stroke-linecap: square"/>
     </g>
     <g id="line2d_40">
      <g>
       <use xlink:href="#m87412392f7" x="557.638094" y="202.646619" style="stroke: #000000; stroke-width: 0.8"/>
      </g>
     </g>
     <g id="text_22">
      <!-- 1.2 -->
      <g transform="translate(533.144657 206.82576) scale(0.11 -0.11)">
       <use xlink:href="#DejaVuSans-31"/>
       <use xlink:href="#DejaVuSans-2e" transform="translate(63.623047 0)"/>
       <use xlink:href="#DejaVuSans-32" transform="translate(95.410156 0)"/>
      </g>
     </g>
    </g>
    <g id="ytick_18">
     <g id="line2d_41">
      <path d="M 557.638094 154.057835 
L 669.645937 154.057835 
" clip-path="url(#p11b280f372)" style="fill: none; stroke: #b0b0b0; stroke-opacity: 0.2; stroke-width: 0.6; stroke-linecap: square"/>
     </g>
     <g id="line2d_42">
      <g>
       <use xlink:href="#m87412392f7" x="557.638094" y="154.057835" style="stroke: #000000; stroke-width: 0.8"/>
      </g>
     </g>
     <g id="text_23">
      <!-- 1.4 -->
      <g transform="translate(533.144657 158.236975) scale(0.11 -0.11)">
       <use xlink:href="#DejaVuSans-31"/>
       <use xlink:href="#DejaVuSans-2e" transform="translate(63.623047 0)"/>
       <use xlink:href="#DejaVuSans-34" transform="translate(95.410156 0)"/>
      </g>
     </g>
    </g>
    <g id="ytick_19">
     <g id="line2d_43">
      <path d="M 557.638094 105.46905 
L 669.645937 105.46905 
" clip-path="url(#p11b280f372)" style="fill: none; stroke: #b0b0b0; stroke-opacity: 0.2; stroke-width: 0.6; stroke-linecap: square"/>
     </g>
     <g id="line2d_44">
      <g>
       <use xlink:href="#m87412392f7" x="557.638094" y="105.46905" style="stroke: #000000; stroke-width: 0.8"/>
      </g>
     </g>
     <g id="text_24">
      <!-- 1.6 -->
      <g transform="translate(533.144657 109.648191) scale(0.11 -0.11)">
       <use xlink:href="#DejaVuSans-31"/>
       <use xlink:href="#DejaVuSans-2e" transform="translate(63.623047 0)"/>
       <use xlink:href="#DejaVuSans-36" transform="translate(95.410156 0)"/>
      </g>
     </g>
    </g>
    <g id="ytick_20">
     <g id="line2d_45">
      <path d="M 557.638094 56.880266 
L 669.645937 56.880266 
" clip-path="url(#p11b280f372)" style="fill: none; stroke: #b0b0b0; stroke-opacity: 0.2; stroke-width: 0.6; stroke-linecap: square"/>
     </g>
     <g id="line2d_46">
      <g>
       <use xlink:href="#m87412392f7" x="557.638094" y="56.880266" style="stroke: #000000; stroke-width: 0.8"/>
      </g>
     </g>
     <g id="text_25">
      <!-- 1.8 -->
      <g transform="translate(533.144657 61.059407) scale(0.11 -0.11)">
       <use xlink:href="#DejaVuSans-31"/>
       <use xlink:href="#DejaVuSans-2e" transform="translate(63.623047 0)"/>
       <use xlink:href="#DejaVuSans-38" transform="translate(95.410156 0)"/>
      </g>
     </g>
    </g>
    <g id="text_26">
     <!-- segments / second -->
     <g transform="translate(526.649032 243.260688) rotate(-90) scale(0.12 -0.12)">
      <defs>
       <path id="DejaVuSans-67" d="M 2906 1791 
Q 2906 2416 2648 2759 
Q 2391 3103 1925 3103 
Q 1463 3103 1205 2759 
Q 947 2416 947 1791 
Q 947 1169 1205 825 
Q 1463 481 1925 481 
Q 2391 481 2648 825 
Q 2906 1169 2906 1791 
z
M 3481 434 
Q 3481 -459 3084 -895 
Q 2688 -1331 1869 -1331 
Q 1566 -1331 1297 -1286 
Q 1028 -1241 775 -1147 
L 775 -588 
Q 1028 -725 1275 -790 
Q 1522 -856 1778 -856 
Q 2344 -856 2625 -561 
Q 2906 -266 2906 331 
L 2906 616 
Q 2728 306 2450 153 
Q 2172 0 1784 0 
Q 1141 0 747 490 
Q 353 981 353 1791 
Q 353 2603 747 3093 
Q 1141 3584 1784 3584 
Q 2172 3584 2450 3431 
Q 2728 3278 2906 2969 
L 2906 3500 
L 3481 3500 
L 3481 434 
z
" transform="scale(0.015625)"/>
       <path id="DejaVuSans-2f" d="M 1625 4666 
L 2156 4666 
L 531 -594 
L 0 -594 
L 1625 4666 
z
" transform="scale(0.015625)"/>
      </defs>
      <use xlink:href="#DejaVuSans-73"/>
      <use xlink:href="#DejaVuSans-65" transform="translate(52.099609 0)"/>
      <use xlink:href="#DejaVuSans-67" transform="translate(113.623047 0)"/>
      <use xlink:href="#DejaVuSans-6d" transform="translate(177.099609 0)"/>
      <use xlink:href="#DejaVuSans-65" transform="translate(274.511719 0)"/>
      <use xlink:href="#DejaVuSans-6e" transform="translate(336.035156 0)"/>
      <use xlink:href="#DejaVuSans-74" transform="translate(399.414062 0)"/>
      <use xlink:href="#DejaVuSans-73" transform="translate(438.623047 0)"/>
      <use xlink:href="#DejaVuSans-20" transform="translate(490.722656 0)"/>
      <use xlink:href="#DejaVuSans-2f" transform="translate(522.509766 0)"/>
      <use xlink:href="#DejaVuSans-20" transform="translate(556.201172 0)"/>
      <use xlink:href="#DejaVuSans-73" transform="translate(587.988281 0)"/>
      <use xlink:href="#DejaVuSans-65" transform="translate(640.087891 0)"/>
      <use xlink:href="#DejaVuSans-63" transform="translate(701.611328 0)"/>
      <use xlink:href="#DejaVuSans-6f" transform="translate(756.591797 0)"/>
      <use xlink:href="#DejaVuSans-6e" transform="translate(817.773438 0)"/>
      <use xlink:href="#DejaVuSans-64" transform="translate(881.152344 0)"/>
     </g>
    </g>
   </g>
   <g id="FillBetweenPolyCollection_3">
    <defs>
     <path id="maa8bc5caa2" d="M 643.645001 -66.737983 
L 583.63903 -66.737983 
L 582.728579 -69.529961 
L 581.822982 -72.321939 
L 580.923888 -75.113916 
L 580.032943 -77.905894 
L 579.151784 -80.697872 
L 578.282035 -83.48985 
L 577.425291 -86.281827 
L 576.58312 -89.073805 
L 575.75705 -91.865783 
L 574.948562 -94.657761 
L 574.159084 -97.449738 
L 573.389983 -100.241716 
L 572.642555 -103.033694 
L 571.918025 -105.825672 
L 571.217532 -108.617649 
L 570.542127 -111.409627 
L 569.89277 -114.201605 
L 569.270317 -116.993583 
L 568.675523 -119.78556 
L 568.109034 -122.577538 
L 567.571386 -125.369516 
L 567.062999 -128.161493 
L 566.58418 -130.953471 
L 566.135119 -133.745449 
L 565.715891 -136.537427 
L 565.326456 -139.329404 
L 564.966662 -142.121382 
L 564.636247 -144.91336 
L 564.334845 -147.705338 
L 564.061986 -150.497315 
L 563.817107 -153.289293 
L 563.599556 -156.081271 
L 563.408598 -158.873249 
L 563.243424 -161.665226 
L 563.103156 -164.457204 
L 562.986862 -167.249182 
L 562.893558 -170.04116 
L 562.822221 -172.833137 
L 562.771795 -175.625115 
L 562.741205 -178.417093 
L 562.72936 -181.209071 
L 562.735168 -184.001048 
L 562.75754 -186.793026 
L 562.7954 -189.585004 
L 562.847695 -192.376982 
L 562.913397 -195.168959 
L 562.991517 -197.960937 
L 563.081104 -200.752915 
L 563.181258 -203.544893 
L 563.291129 -206.33687 
L 563.409925 -209.128848 
L 563.536915 -211.920826 
L 563.671431 -214.712804 
L 563.812874 -217.504781 
L 563.960714 -220.296759 
L 564.11449 -223.088737 
L 564.273816 -225.880714 
L 564.438376 -228.672692 
L 564.60793 -231.46467 
L 564.782308 -234.256648 
L 564.961417 -237.048625 
L 565.145234 -239.840603 
L 565.333806 -242.632581 
L 565.527254 -245.424559 
L 565.725766 -248.216536 
L 565.929596 -251.008514 
L 566.139065 -253.800492 
L 566.354557 -256.59247 
L 566.576515 -259.384447 
L 566.805444 -262.176425 
L 567.041899 -264.968403 
L 567.286489 -267.760381 
L 567.53987 -270.552358 
L 567.802741 -273.344336 
L 568.07584 -276.136314 
L 568.359937 -278.928292 
L 568.65583 -281.720269 
L 568.964339 -284.512247 
L 569.286296 -287.304225 
L 569.622544 -290.096203 
L 569.973921 -292.88818 
L 570.341259 -295.680158 
L 570.725371 -298.472136 
L 571.127044 -301.264114 
L 571.547029 -304.056091 
L 571.986032 -306.848069 
L 572.444705 -309.640047 
L 572.923635 -312.432025 
L 573.423334 -315.224002 
L 573.944236 -318.01598 
L 574.486679 -320.807958 
L 575.050904 -323.599936 
L 575.637045 -326.391913 
L 576.245122 -329.183891 
L 576.875037 -331.975869 
L 577.526565 -334.767846 
L 578.199357 -337.559824 
L 578.89293 -340.351802 
L 579.606672 -343.14378 
L 647.67736 -343.14378 
L 647.67736 -343.14378 
L 648.391102 -340.351802 
L 649.084675 -337.559824 
L 649.757467 -334.767846 
L 650.408995 -331.975869 
L 651.03891 -329.183891 
L 651.646987 -326.391913 
L 652.233128 -323.599936 
L 652.797353 -320.807958 
L 653.339796 -318.01598 
L 653.860697 -315.224002 
L 654.360397 -312.432025 
L 654.839327 -309.640047 
L 655.298 -306.848069 
L 655.737003 -304.056091 
L 656.156988 -301.264114 
L 656.558661 -298.472136 
L 656.942773 -295.680158 
L 657.310111 -292.88818 
L 657.661488 -290.096203 
L 657.997736 -287.304225 
L 658.319693 -284.512247 
L 658.628202 -281.720269 
L 658.924095 -278.928292 
L 659.208192 -276.136314 
L 659.481291 -273.344336 
L 659.744162 -270.552358 
L 659.997543 -267.760381 
L 660.242133 -264.968403 
L 660.478588 -262.176425 
L 660.707516 -259.384447 
L 660.929475 -256.59247 
L 661.144967 -253.800492 
L 661.354436 -251.008514 
L 661.558266 -248.216536 
L 661.756778 -245.424559 
L 661.950226 -242.632581 
L 662.138798 -239.840603 
L 662.322615 -237.048625 
L 662.501724 -234.256648 
L 662.676102 -231.46467 
L 662.845656 -228.672692 
L 663.010216 -225.880714 
L 663.169542 -223.088737 
L 663.323318 -220.296759 
L 663.471158 -217.504781 
L 663.612601 -214.712804 
L 663.747117 -211.920826 
L 663.874107 -209.128848 
L 663.992903 -206.33687 
L 664.102774 -203.544893 
L 664.202927 -200.752915 
L 664.292515 -197.960937 
L 664.370635 -195.168959 
L 664.436337 -192.376982 
L 664.488632 -189.585004 
L 664.526492 -186.793026 
L 664.548864 -184.001048 
L 664.554672 -181.209071 
L 664.542827 -178.417093 
L 664.512237 -175.625115 
L 664.461811 -172.833137 
L 664.390473 -170.04116 
L 664.29717 -167.249182 
L 664.180876 -164.457204 
L 664.040608 -161.665226 
L 663.875434 -158.873249 
L 663.684475 -156.081271 
L 663.466925 -153.289293 
L 663.222046 -150.497315 
L 662.949187 -147.705338 
L 662.647785 -144.91336 
L 662.31737 -142.121382 
L 661.957576 -139.329404 
L 661.568141 -136.537427 
L 661.148913 -133.745449 
L 660.699852 -130.953471 
L 660.221033 -128.161493 
L 659.712646 -125.369516 
L 659.174998 -122.577538 
L 658.608509 -119.78556 
L 658.013715 -116.993583 
L 657.391262 -114.201605 
L 656.741905 -111.409627 
L 656.0665 -108.617649 
L 655.366007 -105.825672 
L 654.641476 -103.033694 
L 653.894049 -100.241716 
L 653.124948 -97.449738 
L 652.33547 -94.657761 
L 651.526982 -91.865783 
L 650.700912 -89.073805 
L 649.858741 -86.281827 
L 649.001997 -83.48985 
L 648.132247 -80.697872 
L 647.251089 -77.905894 
L 646.360144 -75.113916 
L 645.46105 -72.321939 
L 644.555453 -69.529961 
L 643.645001 -66.737983 
z
" style="stroke: #c2410c; stroke-opacity: 0.35"/>
    </defs>
    <g clip-path="url(#p11b280f372)">
     <use xlink:href="#maa8bc5caa2" x="0" y="391.52407" style="fill: #c2410c; fill-opacity: 0.35; stroke: #c2410c; stroke-opacity: 0.35"/>
    </g>
   </g>
   <g id="LineCollection_3">
    <path d="M 588.185688 181.779364 
L 639.098344 181.779364 
" clip-path="url(#p11b280f372)" style="fill: none; stroke: #c2410c; stroke-width: 1.5"/>
   </g>
   <g id="patch_13">
    <path d="M 557.638094 338.606376 
L 557.638094 34.56 
" style="fill: none; stroke: #000000; stroke-width: 0.8; stroke-linejoin: miter; stroke-linecap: square"/>
   </g>
   <g id="patch_14">
    <path d="M 669.645937 338.606376 
L 669.645937 34.56 
" style="fill: none; stroke: #000000; stroke-width: 0.8; stroke-linejoin: miter; stroke-linecap: square"/>
   </g>
   <g id="patch_15">
    <path d="M 557.638094 338.606376 
L 669.645937 338.606376 
" style="fill: none; stroke: #000000; stroke-width: 0.8; stroke-linejoin: miter; stroke-linecap: square"/>
   </g>
   <g id="patch_16">
    <path d="M 557.638094 34.56 
L 669.645937 34.56 
" style="fill: none; stroke: #000000; stroke-width: 0.8; stroke-linejoin: miter; stroke-linecap: square"/>
   </g>
   <g id="PathCollection_3">
    <g clip-path="url(#p11b280f372)">
     <use xlink:href="#m1f5fe2cd14" x="613.642016" y="134.314592" style="fill: #111827; stroke: #111827"/>
    </g>
   </g>
   <g id="legend_1">
    <g id="patch_17">
     <path d="M 389.364219 181.545532 
L 411.364219 181.545532 
L 411.364219 173.845532 
L 389.364219 173.845532 
z
" style="fill: #c2410c; opacity: 0.35; stroke: #c2410c; stroke-linejoin: miter"/>
    </g>
    <g id="text_27">
     <!-- Reference group -->
     <g transform="translate(420.164219 181.545532) scale(0.11 -0.11)">
      <defs>
       <path id="DejaVuSans-52" d="M 2841 2188 
Q 3044 2119 3236 1894 
Q 3428 1669 3622 1275 
L 4263 0 
L 3584 0 
L 2988 1197 
Q 2756 1666 2539 1819 
Q 2322 1972 1947 1972 
L 1259 1972 
L 1259 0 
L 628 0 
L 628 4666 
L 2053 4666 
Q 2853 4666 3247 4331 
Q 3641 3997 3641 3322 
Q 3641 2881 3436 2590 
Q 3231 2300 2841 2188 
z
M 1259 4147 
L 1259 2491 
L 2053 2491 
Q 2509 2491 2742 2702 
Q 2975 2913 2975 3322 
Q 2975 3731 2742 3939 
Q 2509 4147 2053 4147 
L 1259 4147 
z
" transform="scale(0.015625)"/>
       <path id="DejaVuSans-66" d="M 2375 4863 
L 2375 4384 
L 1825 4384 
Q 1516 4384 1395 4259 
Q 1275 4134 1275 3809 
L 1275 3500 
L 2222 3500 
L 2222 3053 
L 1275 3053 
L 1275 0 
L 697 0 
L 697 3053 
L 147 3053 
L 147 3500 
L 697 3500 
L 697 3744 
Q 697 4328 969 4595 
Q 1241 4863 1831 4863 
L 2375 4863 
z
" transform="scale(0.015625)"/>
      </defs>
      <use xlink:href="#DejaVuSans-52"/>
      <use xlink:href="#DejaVuSans-65" transform="translate(64.982422 0)"/>
      <use xlink:href="#DejaVuSans-66" transform="translate(126.505859 0)"/>
      <use xlink:href="#DejaVuSans-65" transform="translate(161.710938 0)"/>
      <use xlink:href="#DejaVuSans-72" transform="translate(223.234375 0)"/>
      <use xlink:href="#DejaVuSans-65" transform="translate(262.097656 0)"/>
      <use xlink:href="#DejaVuSans-6e" transform="translate(323.621094 0)"/>
      <use xlink:href="#DejaVuSans-63" transform="translate(387 0)"/>
      <use xlink:href="#DejaVuSans-65" transform="translate(441.980469 0)"/>
      <use xlink:href="#DejaVuSans-20" transform="translate(503.503906 0)"/>
      <use xlink:href="#DejaVuSans-67" transform="translate(535.291016 0)"/>
      <use xlink:href="#DejaVuSans-72" transform="translate(598.767578 0)"/>
      <use xlink:href="#DejaVuSans-6f" transform="translate(637.630859 0)"/>
      <use xlink:href="#DejaVuSans-75" transform="translate(698.8125 0)"/>
      <use xlink:href="#DejaVuSans-70" transform="translate(762.191406 0)"/>
     </g>
    </g>
    <g id="line2d_47">
     <defs>
      <path id="m04cd69524f" d="M -0 4.242641 
L 4.242641 0 
L 0 -4.242641 
L -4.242641 -0 
z
" style="stroke: #111827; stroke-linejoin: miter"/>
     </defs>
     <g>
      <use xlink:href="#m04cd69524f" x="400.364219" y="193.841469" style="fill: #111827; stroke: #111827; stroke-linejoin: miter"/>
     </g>
    </g>
    <g id="text_28">
     <!-- Autism spectrum condition (ASC) prototype -->
     <g transform="translate(420.164219 197.691469) scale(0.11 -0.11)">
      <defs>
       <path id="DejaVuSans-41" d="M 2188 4044 
L 1331 1722 
L 3047 1722 
L 2188 4044 
z
M 1831 4666 
L 2547 4666 
L 4325 0 
L 3669 0 
L 3244 1197 
L 1141 1197 
L 716 0 
L 50 0 
L 1831 4666 
z
" transform="scale(0.015625)"/>
       <path id="DejaVuSans-28" d="M 1984 4856 
Q 1566 4138 1362 3434 
Q 1159 2731 1159 2009 
Q 1159 1288 1364 580 
Q 1569 -128 1984 -844 
L 1484 -844 
Q 1016 -109 783 600 
Q 550 1309 550 2009 
Q 550 2706 781 3412 
Q 1013 4119 1484 4856 
L 1984 4856 
z
" transform="scale(0.015625)"/>
       <path id="DejaVuSans-43" d="M 4122 4306 
L 4122 3641 
Q 3803 3938 3442 4084 
Q 3081 4231 2675 4231 
Q 1875 4231 1450 3742 
Q 1025 3253 1025 2328 
Q 1025 1406 1450 917 
Q 1875 428 2675 428 
Q 3081 428 3442 575 
Q 3803 722 4122 1019 
L 4122 359 
Q 3791 134 3420 21 
Q 3050 -91 2638 -91 
Q 1578 -91 968 557 
Q 359 1206 359 2328 
Q 359 3453 968 4101 
Q 1578 4750 2638 4750 
Q 3056 4750 3426 4639 
Q 3797 4528 4122 4306 
z
" transform="scale(0.015625)"/>
       <path id="DejaVuSans-29" d="M 513 4856 
L 1013 4856 
Q 1481 4119 1714 3412 
Q 1947 2706 1947 2009 
Q 1947 1309 1714 600 
Q 1481 -109 1013 -844 
L 513 -844 
Q 928 -128 1133 580 
Q 1338 1288 1338 2009 
Q 1338 2731 1133 3434 
Q 928 4138 513 4856 
z
" transform="scale(0.015625)"/>
      </defs>
      <use xlink:href="#DejaVuSans-41"/>
      <use xlink:href="#DejaVuSans-75" transform="translate(68.408203 0)"/>
      <use xlink:href="#DejaVuSans-74" transform="translate(131.787109 0)"/>
      <use xlink:href="#DejaVuSans-69" transform="translate(170.996094 0)"/>
      <use xlink:href="#DejaVuSans-73" transform="translate(198.779297 0)"/>
      <use xlink:href="#DejaVuSans-6d" transform="translate(250.878906 0)"/>
      <use xlink:href="#DejaVuSans-20" transform="translate(348.291016 0)"/>
      <use xlink:href="#DejaVuSans-73" transform="translate(380.078125 0)"/>
      <use xlink:href="#DejaVuSans-70" transform="translate(432.177734 0)"/>
      <use xlink:href="#DejaVuSans-65" transform="translate(495.654297 0)"/>
      <use xlink:href="#DejaVuSans-63" transform="translate(557.177734 0)"/>
      <use xlink:href="#DejaVuSans-74" transform="translate(612.158203 0)"/>
      <use xlink:href="#DejaVuSans-72" transform="translate(651.367188 0)"/>
      <use xlink:href="#DejaVuSans-75" transform="translate(692.480469 0)"/>
      <use xlink:href="#DejaVuSans-6d" transform="translate(755.859375 0)"/>
      <use xlink:href="#DejaVuSans-20" transform="translate(853.271484 0)"/>
      <use xlink:href="#DejaVuSans-63" transform="translate(885.058594 0)"/>
      <use xlink:href="#DejaVuSans-6f" transform="translate(940.039062 0)"/>
      <use xlink:href="#DejaVuSans-6e" transform="translate(1001.220703 0)"/>
      <use xlink:href="#DejaVuSans-64" transform="translate(1064.599609 0)"/>
      <use xlink:href="#DejaVuSans-69" transform="translate(1128.076172 0)"/>
      <use xlink:href="#DejaVuSans-74" transform="translate(1155.859375 0)"/>
      <use xlink:href="#DejaVuSans-69" transform="translate(1195.068359 0)"/>
      <use xlink:href="#DejaVuSans-6f" transform="translate(1222.851562 0)"/>
      <use xlink:href="#DejaVuSans-6e" transform="translate(1284.033203 0)"/>
      <use xlink:href="#DejaVuSans-20" transform="translate(1347.412109 0)"/>
      <use xlink:href="#DejaVuSans-28" transform="translate(1379.199219 0)"/>
      <use xlink:href="#DejaVuSans-41" transform="translate(1418.212891 0)"/>
      <use xlink:href="#DejaVuSans-53" transform="translate(1486.621094 0)"/>
      <use xlink:href="#DejaVuSans-43" transform="translate(1550.097656 0)"/>
      <use xlink:href="#DejaVuSans-29" transform="translate(1619.921875 0)"/>
      <use xlink:href="#DejaVuSans-20" transform="translate(1658.935547 0)"/>
      <use xlink:href="#DejaVuSans-70" transform="translate(1690.722656 0)"/>
      <use xlink:href="#DejaVuSans-72" transform="translate(1754.199219 0)"/>
      <use xlink:href="#DejaVuSans-6f" transform="translate(1793.0625 0)"/>
      <use xlink:href="#DejaVuSans-74" transform="translate(1854.244141 0)"/>
      <use xlink:href="#DejaVuSans-6f" transform="translate(1893.453125 0)"/>
      <use xlink:href="#DejaVuSans-74" transform="translate(1954.634766 0)"/>
      <use xlink:href="#DejaVuSans-79" transform="translate(1993.84375 0)"/>
      <use xlink:href="#DejaVuSans-70" transform="translate(2053.023438 0)"/>
      <use xlink:href="#DejaVuSans-65" transform="translate(2116.5 0)"/>
     </g>
    </g>
   </g>
  </g>
  <g id="text_29">
   <!-- Autism spectrum condition (ASC) (male) -->
   <g transform="translate(197.275625 17.837812) scale(0.14 -0.14)">
    <use xlink:href="#DejaVuSans-41"/>
    <use xlink:href="#DejaVuSans-75" transform="translate(68.408203 0)"/>
    <use xlink:href="#DejaVuSans-74" transform="translate(131.787109 0)"/>
    <use xlink:href="#DejaVuSans-69" transform="translate(170.996094 0)"/>
    <use xlink:href="#DejaVuSans-73" transform="translate(198.779297 0)"/>
    <use xlink:href="#DejaVuSans-6d" transform="translate(250.878906 0)"/>
    <use xlink:href="#DejaVuSans-20" transform="translate(348.291016 0)"/>
    <use xlink:href="#DejaVuSans-73" transform="translate(380.078125 0)"/>
    <use xlink:href="#DejaVuSans-70" transform="translate(432.177734 0)"/>
    <use xlink:href="#DejaVuSans-65" transform="translate(495.654297 0)"/>
    <use xlink:href="#DejaVuSans-63" transform="translate(557.177734 0)"/>
    <use xlink:href="#DejaVuSans-74" transform="translate(612.158203 0)"/>
    <use xlink:href="#DejaVuSans-72" transform="translate(651.367188 0)"/>
    <use xlink:href="#DejaVuSans-75" transform="translate(692.480469 0)"/>
    <use xlink:href="#DejaVuSans-6d" transform="translate(755.859375 0)"/>
    <use xlink:href="#DejaVuSans-20" transform="translate(853.271484 0)"/>
    <use xlink:href="#DejaVuSans-63" transform="translate(885.058594 0)"/>
    <use xlink:href="#DejaVuSans-6f" transform="translate(940.039062 0)"/>
    <use xlink:href="#DejaVuSans-6e" transform="translate(1001.220703 0)"/>
    <use xlink:href="#DejaVuSans-64" transform="translate(1064.599609 0)"/>
    <use xlink:href="#DejaVuSans-69" transform="translate(1128.076172 0)"/>
    <use xlink:href="#DejaVuSans-74" transform="translate(1155.859375 0)"/>
    <use xlink:href="#DejaVuSans-69" transform="translate(1195.068359 0)"/>
    <use xlink:href="#DejaVuSans-6f" transform="translate(1222.851562 0)"/>
    <use xlink:href="#DejaVuSans-6e" transform="translate(1284.033203 0)"/>
    <use xlink:href="#DejaVuSans-20" transform="translate(1347.412109 0)"/>
    <use xlink:href="#DejaVuSans-28" transform="translate(1379.199219 0)"/>
    <use xlink:href="#DejaVuSans-41" transform="translate(1418.212891 0)"/>
    <use xlink:href="#DejaVuSans-53" transform="translate(1486.621094 0)"/>
    <use xlink:href="#DejaVuSans-43" transform="translate(1550.097656 0)"/>
    <use xlink:href="#DejaVuSans-29" transform="translate(1619.921875 0)"/>
    <use xlink:href="#DejaVuSans-20" transform="translate(1658.935547 0)"/>
    <use xlink:href="#DejaVuSans-28" transform="translate(1690.722656 0)"/>
    <use xlink:href="#DejaVuSans-6d" transform="translate(1729.736328 0)"/>
    <use xlink:href="#DejaVuSans-61" transform="translate(1827.148438 0)"/>
    <use xlink:href="#DejaVuSans-6c" transform="translate(1888.427734 0)"/>
    <use xlink:href="#DejaVuSans-65" transform="translate(1916.210938 0)"/>
    <use xlink:href="#DejaVuSans-29" transform="translate(1977.734375 0)"/>
   </g>
  </g>
 </g>
 <defs>
  <clipPath id="p97c7c45502">
   <rect x="54.305937" y="34.56" width="112.007843" height="304.046376"/>
  </clipPath>
  <clipPath id="p37bedb344e">
   <rect x="305.972016" y="34.56" width="112.007843" height="304.046376"/>
  </clipPath>
  <clipPath id="p11b280f372">
   <rect x="557.638094" y="34.56" width="112.007843" height="304.046376"/>
  </clipPath>
 </defs>
</svg>
