<?xml version="1.0" encoding="utf-8" standalone="no"?>
<!DOCTYPE svg PUBLIC "-//W3C//DTD SVG 1.1//EN"
  "http://www.w3.org/Graphics/SVG/1.1/DTD/svg11.dtd">
<svg xmlns:xlink="http://www.w3.org/1999/xlink" width="676.88125pt" height="391.52407pt" viewBox="0 0 676.88125 391.52407" xmlns="http://www.w3.org/2000/svg" version="1.1">
 <metadata>
  <rdf:RDF xmlns:dc="http://purl.org/dc/elements/1.1/" xmlns:cc="http://creativecommons.org/ns#" xmlns:rdf="http://www.w3.org/1999/02/22-rdf-syntax-ns#">
   <cc:Work>
    <dc:type rdf:resource="http://purl.org/dc/dcmitype/StillImage"/>
    <dc:date>2026-06-14T19:06:20.238609</dc:date>
    <dc:format>image/svg+xml</dc:format>
    <dc:creator>
     <cc:Agent>
      <dc:title>Matplotlib v3.10.1, https://matplotlib.org/</dc:title>
     </cc:Agent>
    </dc:creator>
   </cc:Work>
  </rdf:RDF>
 </metadata>
 <defs>
  <style type="text/css">*{stroke-linejoin: round; stroke-linecap: butt}</style>
 </defs>
 <g id="figure_1">
  <g id="patch_1">
   <path d="M 0 391.52407 
L 676.88125 391.52407 
L 676.88125 0 
L 0 0 
z
" style="fill: #ffffff"/>
  </g>
  <g id="axes_1">
   <g id="patch_2">
    <path d="M 43.81125 338.606376 
L 168.329093 338.606376 
L 168.329093 34.56 
L 43.81125 34.56 
z
" style="fill: #ffffff"/>
   </g>
   <g id="matplotlib.axis_1">
    <g id="xtick_1">
     <g id="line2d_1">
      <path d="M 106.070172 338.606376 
L 106.070172 34.56 
" clip-path="url(#pd391572d07)" style="fill: none; stroke: #b0b0b0; stroke-opacity: 0.2; stroke-width: 0.6; stroke-linecap: square"/>
     </g>
     <g id="line2d_2">
      <defs>
       <path id="m280bcc6361" d="M 0 0 
L 0 3.5 
" style="stroke: #000000; stroke-width: 0.8"/>
      </defs>
      <g>
       <use xlink:href="#m280bcc6361" x="106.070172" y="338.606376" style="stroke: #000000; stroke-width: 0.8"/>
      </g>
     </g>
     <g id="text_1">
      <!-- Pitch variability -->
      <g transform="translate(23.554593 375.631189) rotate(-15) scale(0.11 -0.11)">
       <defs>
        <path id="DejaVuSans-50" d="M 1259 4147 
L 1259 2394 
L 2053 2394 
Q 2494 2394 2734 2622 
Q 2975 2850 2975 3272 
Q 2975 3691 2734 3919 
Q 2494 4147 2053 4147 
L 1259 4147 
z
M 628 4666 
L 2053 4666 
Q 2838 4666 3239 4311 
Q 3641 3956 3641 3272 
Q 3641 2581 3239 2228 
Q 2838 1875 2053 1875 
L 1259 1875 
L 1259 0 
L 628 0 
L 628 4666 
z
" transform="scale(0.015625)"/>
        <path id="DejaVuSans-69" d="M 603 3500 
L 1178 3500 
L 1178 0 
L 603 0 
L 603 3500 
z
M 603 4863 
L 1178 4863 
L 1178 4134 
L 603 4134 
L 603 4863 
z
" transform="scale(0.015625)"/>
        <path id="DejaVuSans-74" d="M 1172 4494 
L 1172 3500 
L 2356 3500 
L 2356 3053 
L 1172 3053 
L 1172 1153 
Q 1172 725 1289 603 
Q 1406 481 1766 481 
L 2356 481 
L 2356 0 
L 1766 0 
Q 1100 0 847 248 
Q 594 497 594 1153 
L 594 3053 
L 172 3053 
L 172 3500 
L 594 3500 
L 594 4494 
L 1172 4494 
z
" transform="scale(0.015625)"/>
        <path id="DejaVuSans-63" d="M 3122 3366 
L 3122 2828 
Q 2878 2963 2633 3030 
Q 2388 3097 2138 3097 
Q 1578 3097 1268 2742 
Q 959 2388 959 1747 
Q 959 1106 1268 751 
Q 1578 397 2138 397 
Q 2388 397 2633 464 
Q 2878 531 3122 666 
L 3122 134 
Q 2881 22 2623 -34 
Q 2366 -91 2075 -91 
Q 1284 -91 818 406 
Q 353 903 353 1747 
Q 353 2603 823 3093 
Q 1294 3584 2113 3584 
Q 2378 3584 2631 3529 
Q 2884 3475 3122 3366 
z
" transform="scale(0.015625)"/>
        <path id="DejaVuSans-68" d="M 3513 2113 
L 3513 0 
L 2938 0 
L 2938 2094 
Q 2938 2591 2744 2837 
Q 2550 3084 2163 3084 
Q 1697 3084 1428 2787 
Q 1159 2491 1159 1978 
L 1159 0 
L 581 0 
L 581 4863 
L 1159 4863 
L 1159 2956 
Q 1366 3272 1645 3428 
Q 1925 3584 2291 3584 
Q 2894 3584 3203 3211 
Q 3513 2838 3513 2113 
z
" transform="scale(0.015625)"/>
        <path id="DejaVuSans-20" transform="scale(0.015625)"/>
        <path id="DejaVuSans-76" d="M 191 3500 
L 800 3500 
L 1894 563 
L 2988 3500 
L 3597 3500 
L 2284 0 
L 1503 0 
L 191 3500 
z
" transform="scale(0.015625)"/>
        <path id="DejaVuSans-61" d="M 2194 1759 
Q 1497 1759 1228 1600 
Q 959 1441 959 1056 
Q 959 750 1161 570 
Q 1363 391 1709 391 
Q 2188 391 2477 730 
Q 2766 1069 2766 1631 
L 2766 1759 
L 2194 1759 
z
M 3341 1997 
L 3341 0 
L 2766 0 
L 2766 531 
Q 2569 213 2275 61 
Q 1981 -91 1556 -91 
Q 1019 -91 701 211 
Q 384 513 384 1019 
Q 384 1609 779 1909 
Q 1175 2209 1959 2209 
L 2766 2209 
L 2766 2266 
Q 2766 2663 2505 2880 
Q 2244 3097 1772 3097 
Q 1472 3097 1187 3025 
Q 903 2953 641 2809 
L 641 3341 
Q 956 3463 1253 3523 
Q 1550 3584 1831 3584 
Q 2591 3584 2966 3190 
Q 3341 2797 3341 1997 
z
" transform="scale(0.015625)"/>
        <path id="DejaVuSans-72" d="M 2631 2963 
Q 2534 3019 2420 3045 
Q 2306 3072 2169 3072 
Q 1681 3072 1420 2755 
Q 1159 2438 1159 1844 
L 1159 0 
L 581 0 
L 581 3500 
L 1159 3500 
L 1159 2956 
Q 1341 3275 1631 3429 
Q 1922 3584 2338 3584 
Q 2397 3584 2469 3576 
Q 2541 3569 2628 3553 
L 2631 2963 
z
" transform="scale(0.015625)"/>
        <path id="DejaVuSans-62" d="M 3116 1747 
Q 3116 2381 2855 2742 
Q 2594 3103 2138 3103 
Q 1681 3103 1420 2742 
Q 1159 2381 1159 1747 
Q 1159 1113 1420 752 
Q 1681 391 2138 391 
Q 2594 391 2855 752 
Q 3116 1113 3116 1747 
z
M 1159 2969 
Q 1341 3281 1617 3432 
Q 1894 3584 2278 3584 
Q 2916 3584 3314 3078 
Q 3713 2572 3713 1747 
Q 3713 922 3314 415 
Q 2916 -91 2278 -91 
Q 1894 -91 1617 61 
Q 1341 213 1159 525 
L 1159 0 
L 581 0 
L 581 4863 
L 1159 4863 
L 1159 2969 
z
" transform="scale(0.015625)"/>
        <path id="DejaVuSans-6c" d="M 603 4863 
L 1178 4863 
L 1178 0 
L 603 0 
L 603 4863 
z
" transform="scale(0.015625)"/>
        <path id="DejaVuSans-79" d="M 2059 -325 
Q 1816 -950 1584 -1140 
Q 1353 -1331 966 -1331 
L 506 -1331 
L 506 -850 
L 844 -850 
Q 1081 -850 1212 -737 
Q 1344 -625 1503 -206 
L 1606 56 
L 191 3500 
L 800 3500 
L 1894 763 
L 2988 3500 
L 3597 3500 
L 2059 -325 
z
" transform="scale(0.015625)"/>
       </defs>
       <use xlink:href="#DejaVuSans-50"/>
       <use xlink:href="#DejaVuSans-69" transform="translate(58.052734 0)"/>
       <use xlink:href="#DejaVuSans-74" transform="translate(85.835938 0)"/>
       <use xlink:href="#DejaVuSans-63" transform="translate(125.044922 0)"/>
       <use xlink:href="#DejaVuSans-68" transform="translate(180.025391 0)"/>
       <use xlink:href="#DejaVuSans-20" transform="translate(243.404297 0)"/>
       <use xlink:href="#DejaVuSans-76" transform="translate(275.191406 0)"/>
       <use xlink:href="#DejaVuSans-61" transform="translate(334.371094 0)"/>
       <use xlink:href="#DejaVuSans-72" transform="translate(395.650391 0)"/>
       <use xlink:href="#DejaVuSans-69" transform="translate(436.763672 0)"/>
       <use xlink:href="#DejaVuSans-61" transform="translate(464.546875 0)"/>
       <use xlink:href="#DejaVuSans-62" transform="translate(525.826172 0)"/>
       <use xlink:href="#DejaVuSans-69" transform="translate(589.302734 0)"/>
       <use xlink:href="#DejaVuSans-6c" transform="translate(617.085938 0)"/>
       <use xlink:href="#DejaVuSans-69" transform="translate(644.869141 0)"/>
       <use xlink:href="#DejaVuSans-74" transform="translate(672.652344 0)"/>
       <use xlink:href="#DejaVuSans-79" transform="translate(711.861328 0)"/>
      </g>
     </g>
    </g>
   </g>
   <g id="matplotlib.axis_2">
    <g id="ytick_1">
     <g id="line2d_3">
      <path d="M 43.81125 305.934041 
L 168.329093 305.934041 
" clip-path="url(#pd391572d07)" style="fill: none; stroke: #b0b0b0; stroke-opacity: 0.2; stroke-width: 0.6; stroke-linecap: square"/>
     </g>
     <g id="line2d_4">
      <defs>
       <path id="m2c76b081cf" d="M 0 0 
L -3.5 0 
" style="stroke: #000000; stroke-width: 0.8"/>
      </defs>
      <g>
       <use xlink:href="#m2c76b081cf" x="43.81125" y="305.934041" style="stroke: #000000; stroke-width: 0.8"/>
      </g>
     </g>
     <g id="text_2">
      <!-- 4 -->
      <g transform="translate(29.8125 310.113181) scale(0.11 -0.11)">
       <defs>
        <path id="DejaVuSans-34" d="M 2419 4116 
L 825 1625 
L 2419 1625 
L 2419 4116 
z
M 2253 4666 
L 3047 4666 
L 3047 1625 
L 3713 1625 
L 3713 1100 
L 3047 1100 
L 3047 0 
L 2419 0 
L 2419 1100 
L 313 1100 
L 313 1709 
L 2253 4666 
z
" transform="scale(0.015625)"/>
       </defs>
       <use xlink:href="#DejaVuSans-34"/>
      </g>
     </g>
    </g>
    <g id="ytick_2">
     <g id="line2d_5">
      <path d="M 43.81125 250.363942 
L 168.329093 250.363942 
" clip-path="url(#pd391572d07)" style="fill: none; stroke: #b0b0b0; stroke-opacity: 0.2; stroke-width: 0.6; stroke-linecap: square"/>
     </g>
     <g id="line2d_6">
      <g>
       <use xlink:href="#m2c76b081cf" x="43.81125" y="250.363942" style="stroke: #000000; stroke-width: 0.8"/>
      </g>
     </g>
     <g id="text_3">
      <!-- 6 -->
      <g transform="translate(29.8125 254.543083) scale(0.11 -0.11)">
       <defs>
        <path id="DejaVuSans-36" d="M 2113 2584 
Q 1688 2584 1439 2293 
Q 1191 2003 1191 1497 
Q 1191 994 1439 701 
Q 1688 409 2113 409 
Q 2538 409 2786 701 
Q 3034 994 3034 1497 
Q 3034 2003 2786 2293 
Q 2538 2584 2113 2584 
z
M 3366 4563 
L 3366 3988 
Q 3128 4100 2886 4159 
Q 2644 4219 2406 4219 
Q 1781 4219 1451 3797 
Q 1122 3375 1075 2522 
Q 1259 2794 1537 2939 
Q 1816 3084 2150 3084 
Q 2853 3084 3261 2657 
Q 3669 2231 3669 1497 
Q 3669 778 3244 343 
Q 2819 -91 2113 -91 
Q 1303 -91 875 529 
Q 447 1150 447 2328 
Q 447 3434 972 4092 
Q 1497 4750 2381 4750 
Q 2619 4750 2861 4703 
Q 3103 4656 3366 4563 
z
" transform="scale(0.015625)"/>
       </defs>
       <use xlink:href="#DejaVuSans-36"/>
      </g>
     </g>
    </g>
    <g id="ytick_3">
     <g id="line2d_7">
      <path d="M 43.81125 194.793843 
L 168.329093 194.793843 
" clip-path="url(#pd391572d07)" style="fill: none; stroke: #b0b0b0; stroke-opacity: 0.2; stroke-width: 0.6; stroke-linecap: square"/>
     </g>
     <g id="line2d_8">
      <g>
       <use xlink:href="#m2c76b081cf" x="43.81125" y="194.793843" style="stroke: #000000; stroke-width: 0.8"/>
      </g>
     </g>
     <g id="text_4">
      <!-- 8 -->
      <g transform="translate(29.8125 198.972984) scale(0.11 -0.11)">
       <defs>
        <path id="DejaVuSans-38" d="M 2034 2216 
Q 1584 2216 1326 1975 
Q 1069 1734 1069 1313 
Q 1069 891 1326 650 
Q 1584 409 2034 409 
Q 2484 409 2743 651 
Q 3003 894 3003 1313 
Q 3003 1734 2745 1975 
Q 2488 2216 2034 2216 
z
M 1403 2484 
Q 997 2584 770 2862 
Q 544 3141 544 3541 
Q 544 4100 942 4425 
Q 1341 4750 2034 4750 
Q 2731 4750 3128 4425 
Q 3525 4100 3525 3541 
Q 3525 3141 3298 2862 
Q 3072 2584 2669 2484 
Q 3125 2378 3379 2068 
Q 3634 1759 3634 1313 
Q 3634 634 3220 271 
Q 2806 -91 2034 -91 
Q 1263 -91 848 271 
Q 434 634 434 1313 
Q 434 1759 690 2068 
Q 947 2378 1403 2484 
z
M 1172 3481 
Q 1172 3119 1398 2916 
Q 1625 2713 2034 2713 
Q 2441 2713 2670 2916 
Q 2900 3119 2900 3481 
Q 2900 3844 2670 4047 
Q 2441 4250 2034 4250 
Q 1625 4250 1398 4047 
Q 1172 3844 1172 3481 
z
" transform="scale(0.015625)"/>
       </defs>
       <use xlink:href="#DejaVuSans-38"/>
      </g>
     </g>
    </g>
    <g id="ytick_4">
     <g id="line2d_9">
      <path d="M 43.81125 139.223745 
L 168.329093 139.223745 
" clip-path="url(#pd391572d07)" style="fill: none; stroke: #b0b0b0; stroke-opacity: 0.2; stroke-width: 0.6; stroke-linecap: square"/>
     </g>
     <g id="line2d_10">
      <g>
       <use xlink:href="#m2c76b081cf" x="43.81125" y="139.223745" style="stroke: #000000; stroke-width: 0.8"/>
      </g>
     </g>
     <g id="text_5">
      <!-- 10 -->
      <g transform="translate(22.81375 143.402885) scale(0.11 -0.11)">
       <defs>
        <path id="DejaVuSans-31" d="M 794 531 
L 1825 531 
L 1825 4091 
L 703 3866 
L 703 4441 
L 1819 4666 
L 2450 4666 
L 2450 531 
L 3481 531 
L 3481 0 
L 794 0 
L 794 531 
z
" transform="scale(0.015625)"/>
        <path id="DejaVuSans-30" d="M 2034 4250 
Q 1547 4250 1301 3770 
Q 1056 3291 1056 2328 
Q 1056 1369 1301 889 
Q 1547 409 2034 409 
Q 2525 409 2770 889 
Q 3016 1369 3016 2328 
Q 3016 3291 2770 3770 
Q 2525 4250 2034 4250 
z
M 2034 4750 
Q 2819 4750 3233 4129 
Q 3647 3509 3647 2328 
Q 3647 1150 3233 529 
Q 2819 -91 2034 -91 
Q 1250 -91 836 529 
Q 422 1150 422 2328 
Q 422 3509 836 4129 
Q 1250 4750 2034 4750 
z
" transform="scale(0.015625)"/>
       </defs>
       <use xlink:href="#DejaVuSans-31"/>
       <use xlink:href="#DejaVuSans-30" transform="translate(63.623047 0)"/>
      </g>
     </g>
    </g>
    <g id="ytick_5">
     <g id="line2d_11">
      <path d="M 43.81125 83.653646 
L 168.329093 83.653646 
" clip-path="url(#pd391572d07)" style="fill: none; stroke: #b0b0b0; stroke-opacity: 0.2; stroke-width: 0.6; stroke-linecap: square"/>
     </g>
     <g id="line2d_12">
      <g>
       <use xlink:href="#m2c76b081cf" x="43.81125" y="83.653646" style="stroke: #000000; stroke-width: 0.8"/>
      </g>
     </g>
     <g id="text_6">
      <!-- 12 -->
      <g transform="translate(22.81375 87.832787) scale(0.11 -0.11)">
       <defs>
        <path id="DejaVuSans-32" d="M 1228 531 
L 3431 531 
L 3431 0 
L 469 0 
L 469 531 
Q 828 903 1448 1529 
Q 2069 2156 2228 2338 
Q 2531 2678 2651 2914 
Q 2772 3150 2772 3378 
Q 2772 3750 2511 3984 
Q 2250 4219 1831 4219 
Q 1534 4219 1204 4116 
Q 875 4013 500 3803 
L 500 4441 
Q 881 4594 1212 4672 
Q 1544 4750 1819 4750 
Q 2544 4750 2975 4387 
Q 3406 4025 3406 3419 
Q 3406 3131 3298 2873 
Q 3191 2616 2906 2266 
Q 2828 2175 2409 1742 
Q 1991 1309 1228 531 
z
" transform="scale(0.015625)"/>
       </defs>
       <use xlink:href="#DejaVuSans-31"/>
       <use xlink:href="#DejaVuSans-32" transform="translate(63.623047 0)"/>
      </g>
     </g>
    </g>
    <g id="text_7">
     <!-- semitones -->
     <g transform="translate(16.318125 217.555376) rotate(-90) scale(0.12 -0.12)">
      <defs>
       <path id="DejaVuSans-73" d="M 2834 3397 
L 2834 2853 
Q 2591 2978 2328 3040 
Q 2066 3103 1784 3103 
Q 1356 3103 1142 2972 
Q 928 2841 928 2578 
Q 928 2378 1081 2264 
Q 1234 2150 1697 2047 
L 1894 2003 
Q 2506 1872 2764 1633 
Q 3022 1394 3022 966 
Q 3022 478 2636 193 
Q 2250 -91 1575 -91 
Q 1294 -91 989 -36 
Q 684 19 347 128 
L 347 722 
Q 666 556 975 473 
Q 1284 391 1588 391 
Q 1994 391 2212 530 
Q 2431 669 2431 922 
Q 2431 1156 2273 1281 
Q 2116 1406 1581 1522 
L 1381 1569 
Q 847 1681 609 1914 
Q 372 2147 372 2553 
Q 372 3047 722 3315 
Q 1072 3584 1716 3584 
Q 2034 3584 2315 3537 
Q 2597 3491 2834 3397 
z
" transform="scale(0.015625)"/>
       <path id="DejaVuSans-65" d="M 3597 1894 
L 3597 1613 
L 953 1613 
Q 991 1019 1311 708 
Q 1631 397 2203 397 
Q 2534 397 2845 478 
Q 3156 559 3463 722 
L 3463 178 
Q 3153 47 2828 -22 
Q 2503 -91 2169 -91 
Q 1331 -91 842 396 
Q 353 884 353 1716 
Q 353 2575 817 3079 
Q 1281 3584 2069 3584 
Q 2775 3584 3186 3129 
Q 3597 2675 3597 1894 
z
M 3022 2063 
Q 3016 2534 2758 2815 
Q 2500 3097 2075 3097 
Q 1594 3097 1305 2825 
Q 1016 2553 972 2059 
L 3022 2063 
z
" transform="scale(0.015625)"/>
       <path id="DejaVuSans-6d" d="M 3328 2828 
Q 3544 3216 3844 3400 
Q 4144 3584 4550 3584 
Q 5097 3584 5394 3201 
Q 5691 2819 5691 2113 
L 5691 0 
L 5113 0 
L 5113 2094 
Q 5113 2597 4934 2840 
Q 4756 3084 4391 3084 
Q 3944 3084 3684 2787 
Q 3425 2491 3425 1978 
L 3425 0 
L 2847 0 
L 2847 2094 
Q 2847 2600 2669 2842 
Q 2491 3084 2119 3084 
Q 1678 3084 1418 2786 
Q 1159 2488 1159 1978 
L 1159 0 
L 581 0 
L 581 3500 
L 1159 3500 
L 1159 2956 
Q 1356 3278 1631 3431 
Q 1906 3584 2284 3584 
Q 2666 3584 2933 3390 
Q 3200 3197 3328 2828 
z
" transform="scale(0.015625)"/>
       <path id="DejaVuSans-6f" d="M 1959 3097 
Q 1497 3097 1228 2736 
Q 959 2375 959 1747 
Q 959 1119 1226 758 
Q 1494 397 1959 397 
Q 2419 397 2687 759 
Q 2956 1122 2956 1747 
Q 2956 2369 2687 2733 
Q 2419 3097 1959 3097 
z
M 1959 3584 
Q 2709 3584 3137 3096 
Q 3566 2609 3566 1747 
Q 3566 888 3137 398 
Q 2709 -91 1959 -91 
Q 1206 -91 779 398 
Q 353 888 353 1747 
Q 353 2609 779 3096 
Q 1206 3584 1959 3584 
z
" transform="scale(0.015625)"/>
       <path id="DejaVuSans-6e" d="M 3513 2113 
L 3513 0 
L 2938 0 
L 2938 2094 
Q 2938 2591 2744 2837 
Q 2550 3084 2163 3084 
Q 1697 3084 1428 2787 
Q 1159 2491 1159 1978 
L 1159 0 
L 581 0 
L 581 3500 
L 1159 3500 
L 1159 2956 
Q 1366 3272 1645 3428 
Q 1925 3584 2291 3584 
Q 2894 3584 3203 3211 
Q 3513 2838 3513 2113 
z
" transform="scale(0.015625)"/>
      </defs>
      <use xlink:href="#DejaVuSans-73"/>
      <use xlink:href="#DejaVuSans-65" transform="translate(52.099609 0)"/>
      <use xlink:href="#DejaVuSans-6d" transform="translate(113.623047 0)"/>
      <use xlink:href="#DejaVuSans-69" transform="translate(211.035156 0)"/>
      <use xlink:href="#DejaVuSans-74" transform="translate(238.818359 0)"/>
      <use xlink:href="#DejaVuSans-6f" transform="translate(278.027344 0)"/>
      <use xlink:href="#DejaVuSans-6e" transform="translate(339.208984 0)"/>
      <use xlink:href="#DejaVuSans-65" transform="translate(402.587891 0)"/>
      <use xlink:href="#DejaVuSans-73" transform="translate(464.111328 0)"/>
     </g>
    </g>
   </g>
   <g id="FillBetweenPolyCollection_1">
    <defs>
     <path id="mf1d72b3652" d="M 137.870281 -66.737983 
L 74.270062 -66.737983 
L 73.192398 -69.529961 
L 72.12649 -72.321939 
L 71.073092 -75.113916 
L 70.032769 -77.905894 
L 69.00593 -80.697872 
L 67.992867 -83.48985 
L 66.993796 -86.281827 
L 66.008904 -89.073805 
L 65.038392 -91.865783 
L 64.082523 -94.657761 
L 63.141668 -97.449738 
L 62.216343 -100.241716 
L 61.307254 -103.033694 
L 60.415321 -105.825672 
L 59.541707 -108.617649 
L 58.687835 -111.409627 
L 57.855393 -114.201605 
L 57.046341 -116.993583 
L 56.262892 -119.78556 
L 55.507503 -122.577538 
L 54.782844 -125.369516 
L 54.09176 -128.161493 
L 53.437235 -130.953471 
L 52.82234 -133.745449 
L 52.250178 -136.537427 
L 51.723833 -139.329404 
L 51.246303 -142.121382 
L 50.820448 -144.91336 
L 50.448926 -147.705338 
L 50.134139 -150.497315 
L 49.878178 -153.289293 
L 49.682779 -156.081271 
L 49.549281 -158.873249 
L 49.478589 -161.665226 
L 49.471152 -164.457204 
L 49.526944 -167.249182 
L 49.645457 -170.04116 
L 49.8257 -172.833137 
L 50.066209 -175.625115 
L 50.365066 -178.417093 
L 50.719924 -181.209071 
L 51.128042 -184.001048 
L 51.586322 -186.793026 
L 52.091354 -189.585004 
L 52.639465 -192.376982 
L 53.226774 -195.168959 
L 53.849241 -197.960937 
L 54.502722 -200.752915 
L 55.183027 -203.544893 
L 55.885967 -206.33687 
L 56.607407 -209.128848 
L 57.343314 -211.920826 
L 58.089794 -214.712804 
L 58.843139 -217.504781 
L 59.599853 -220.296759 
L 60.356687 -223.088737 
L 61.110657 -225.880714 
L 61.859067 -228.672692 
L 62.599521 -231.46467 
L 63.32993 -234.256648 
L 64.048522 -237.048625 
L 64.753838 -239.840603 
L 65.444729 -242.632581 
L 66.120356 -245.424559 
L 66.780173 -248.216536 
L 67.423923 -251.008514 
L 68.051621 -253.800492 
L 68.663543 -256.59247 
L 69.260206 -259.384447 
L 69.842354 -262.176425 
L 70.410938 -264.968403 
L 70.967099 -267.760381 
L 71.512146 -270.552358 
L 72.047537 -273.344336 
L 72.574856 -276.136314 
L 73.095794 -278.928292 
L 73.61212 -281.720269 
L 74.125666 -284.512247 
L 74.638293 -287.304225 
L 75.151874 -290.096203 
L 75.668264 -292.88818 
L 76.189278 -295.680158 
L 76.71666 -298.472136 
L 77.252066 -301.264114 
L 77.797029 -304.056091 
L 78.352946 -306.848069 
L 78.921047 -309.640047 
L 79.502379 -312.432025 
L 80.097787 -315.224002 
L 80.707895 -318.01598 
L 81.333099 -320.807958 
L 81.973549 -323.599936 
L 82.629149 -326.391913 
L 83.299552 -329.183891 
L 83.984161 -331.975869 
L 84.682133 -334.767846 
L 85.392388 -337.559824 
L 86.113624 -340.351802 
L 86.844329 -343.14378 
L 125.296014 -343.14378 
L 125.296014 -343.14378 
L 126.026719 -340.351802 
L 126.747955 -337.559824 
L 127.458211 -334.767846 
L 128.156182 -331.975869 
L 128.840791 -329.183891 
L 129.511194 -326.391913 
L 130.166794 -323.599936 
L 130.807245 -320.807958 
L 131.432448 -318.01598 
L 132.042557 -315.224002 
L 132.637964 -312.432025 
L 133.219296 -309.640047 
L 133.787397 -306.848069 
L 134.343314 -304.056091 
L 134.888278 -301.264114 
L 135.423683 -298.472136 
L 135.951065 -295.680158 
L 136.472079 -292.88818 
L 136.988469 -290.096203 
L 137.50205 -287.304225 
L 138.014677 -284.512247 
L 138.528223 -281.720269 
L 139.04455 -278.928292 
L 139.565487 -276.136314 
L 140.092807 -273.344336 
L 140.628197 -270.552358 
L 141.173244 -267.760381 
L 141.729405 -264.968403 
L 142.297989 -262.176425 
L 142.880137 -259.384447 
L 143.4768 -256.59247 
L 144.088722 -253.800492 
L 144.716421 -251.008514 
L 145.36017 -248.216536 
L 146.019987 -245.424559 
L 146.695614 -242.632581 
L 147.386505 -239.840603 
L 148.091821 -237.048625 
L 148.810413 -234.256648 
L 149.540822 -231.46467 
L 150.281276 -228.672692 
L 151.029686 -225.880714 
L 151.783656 -223.088737 
L 152.54049 -220.296759 
L 153.297204 -217.504781 
L 154.050549 -214.712804 
L 154.79703 -211.920826 
L 155.532936 -209.128848 
L 156.254376 -206.33687 
L 156.957316 -203.544893 
L 157.637621 -200.752915 
L 158.291102 -197.960937 
L 158.913569 -195.168959 
L 159.500878 -192.376982 
L 160.04899 -189.585004 
L 160.554021 -186.793026 
L 161.012301 -184.001048 
L 161.420419 -181.209071 
L 161.775278 -178.417093 
L 162.074135 -175.625115 
L 162.314643 -172.833137 
L 162.494886 -170.04116 
L 162.613399 -167.249182 
L 162.669191 -164.457204 
L 162.661754 -161.665226 
L 162.591062 -158.873249 
L 162.457564 -156.081271 
L 162.262165 -153.289293 
L 162.006204 -150.497315 
L 161.691417 -147.705338 
L 161.319895 -144.91336 
L 160.89404 -142.121382 
L 160.416511 -139.329404 
L 159.890165 -136.537427 
L 159.318004 -133.745449 
L 158.703108 -130.953471 
L 158.048583 -128.161493 
L 157.357499 -125.369516 
L 156.63284 -122.577538 
L 155.877451 -119.78556 
L 155.094003 -116.993583 
L 154.28495 -114.201605 
L 153.452508 -111.409627 
L 152.598636 -108.617649 
L 151.725022 -105.825672 
L 150.833089 -103.033694 
L 149.924 -100.241716 
L 148.998676 -97.449738 
L 148.05782 -94.657761 
L 147.101951 -91.865783 
L 146.131439 -89.073805 
L 145.146547 -86.281827 
L 144.147476 -83.48985 
L 143.134413 -80.697872 
L 142.107574 -77.905894 
L 141.067251 -75.113916 
L 140.013853 -72.321939 
L 138.947945 -69.529961 
L 137.870281 -66.737983 
z
" style="stroke: #7c3aed; stroke-opacity: 0.35"/>
    </defs>
    <g clip-path="url(#pd391572d07)">
     <use xlink:href="#mf1d72b3652" x="0" y="391.52407" style="fill: #7c3aed; fill-opacity: 0.35; stroke: #7c3aed; stroke-opacity: 0.35"/>
    </g>
   </g>
   <g id="LineCollection_1">
    <path d="M 77.770662 216.147382 
L 134.369681 216.147382 
" clip-path="url(#pd391572d07)" style="fill: none; stroke: #7c3aed; stroke-width: 1.5"/>
   </g>
   <g id="patch_3">
    <path d="M 43.81125 338.606376 
L 43.81125 34.56 
" style="fill: none; stroke: #000000; stroke-width: 0.8; stroke-linejoin: miter; stroke-linecap: square"/>
   </g>
   <g id="patch_4">
    <path d="M 168.329093 338.606376 
L 168.329093 34.56 
" style="fill: none; stroke: #000000; stroke-width: 0.8; stroke-linejoin: miter; stroke-linecap: square"/>
   </g>
   <g id="patch_5">
    <path d="M 43.81125 338.606376 
L 168.329093 338.606376 
" style="fill: none; stroke: #000000; stroke-width: 0.8; stroke-linejoin: miter; stroke-linecap: square"/>
   </g>
   <g id="patch_6">
    <path d="M 43.81125 34.56 
L 168.329093 34.56 
" style="fill: none; stroke: #000000; stroke-width: 0.8; stroke-linejoin: miter; stroke-linecap: square"/>
   </g>
   <g id="PathCollection_1">
    <defs>
     <path id="mb7d029a687" d="M -0 4.472136 
L 4.472136 0 
L 0 -4.472136 
L -4.472136 -0 
z
" style="stroke: #111827"/>
    </defs>
    <g clip-path="url(#pd391572d07)">
     <use xlink:href="#mb7d029a687" x="106.070172" y="239.432253" style="fill: #111827; stroke: #111827"/>
    </g>
   </g>
  </g>
  <g id="axes_2">
   <g id="patch_7">
    <path d="M 294.487328 338.606376 
L 419.005172 338.606376 
L 419.005172 34.56 
L 294.487328 34.56 
z
" style="fill: #ffffff"/>
   </g>
   <g id="matplotlib.axis_3">
    <g id="xtick_2">
     <g id="line2d_13">
      <path d="M 356.74625 338.606376 
L 356.74625 34.56 
" clip-path="url(#p6722864b86)" style="fill: none; stroke: #b0b0b0; stroke-opacity: 0.2; stroke-width: 0.6; stroke-linecap: square"/>
     </g>
     <g id="line2d_14">
      <g>
       <use xlink:href="#m280bcc6361" x="356.74625" y="338.606376" style="stroke: #000000; stroke-width: 0.8"/>
      </g>
     </g>
     <g id="text_8">
      <!-- Loudness variability -->
      <g transform="translate(250.035135 382.114363) rotate(-15) scale(0.11 -0.11)">
       <defs>
        <path id="DejaVuSans-4c" d="M 628 4666 
L 1259 4666 
L 1259 531 
L 3531 531 
L 3531 0 
L 628 0 
L 628 4666 
z
" transform="scale(0.015625)"/>
        <path id="DejaVuSans-75" d="M 544 1381 
L 544 3500 
L 1119 3500 
L 1119 1403 
Q 1119 906 1312 657 
Q 1506 409 1894 409 
Q 2359 409 2629 706 
Q 2900 1003 2900 1516 
L 2900 3500 
L 3475 3500 
L 3475 0 
L 2900 0 
L 2900 538 
Q 2691 219 2414 64 
Q 2138 -91 1772 -91 
Q 1169 -91 856 284 
Q 544 659 544 1381 
z
M 1991 3584 
L 1991 3584 
z
" transform="scale(0.015625)"/>
        <path id="DejaVuSans-64" d="M 2906 2969 
L 2906 4863 
L 3481 4863 
L 3481 0 
L 2906 0 
L 2906 525 
Q 2725 213 2448 61 
Q 2172 -91 1784 -91 
Q 1150 -91 751 415 
Q 353 922 353 1747 
Q 353 2572 751 3078 
Q 1150 3584 1784 3584 
Q 2172 3584 2448 3432 
Q 2725 3281 2906 2969 
z
M 947 1747 
Q 947 1113 1208 752 
Q 1469 391 1925 391 
Q 2381 391 2643 752 
Q 2906 1113 2906 1747 
Q 2906 2381 2643 2742 
Q 2381 3103 1925 3103 
Q 1469 3103 1208 2742 
Q 947 2381 947 1747 
z
" transform="scale(0.015625)"/>
       </defs>
       <use xlink:href="#DejaVuSans-4c"/>
       <use xlink:href="#DejaVuSans-6f" transform="translate(53.962891 0)"/>
       <use xlink:href="#DejaVuSans-75" transform="translate(115.144531 0)"/>
       <use xlink:href="#DejaVuSans-64" transform="translate(178.523438 0)"/>
       <use xlink:href="#DejaVuSans-6e" transform="translate(242 0)"/>
       <use xlink:href="#DejaVuSans-65" transform="translate(305.378906 0)"/>
       <use xlink:href="#DejaVuSans-73" transform="translate(366.902344 0)"/>
       <use xlink:href="#DejaVuSans-73" transform="translate(419.001953 0)"/>
       <use xlink:href="#DejaVuSans-20" transform="translate(471.101562 0)"/>
       <use xlink:href="#DejaVuSans-76" transform="translate(502.888672 0)"/>
       <use xlink:href="#DejaVuSans-61" transform="translate(562.068359 0)"/>
       <use xlink:href="#DejaVuSans-72" transform="translate(623.347656 0)"/>
       <use xlink:href="#DejaVuSans-69" transform="translate(664.460938 0)"/>
       <use xlink:href="#DejaVuSans-61" transform="translate(692.244141 0)"/>
       <use xlink:href="#DejaVuSans-62" transform="translate(753.523438 0)"/>
       <use xlink:href="#DejaVuSans-69" transform="translate(817 0)"/>
       <use xlink:href="#DejaVuSans-6c" transform="translate(844.783203 0)"/>
       <use xlink:href="#DejaVuSans-69" transform="translate(872.566406 0)"/>
       <use xlink:href="#DejaVuSans-74" transform="translate(900.349609 0)"/>
       <use xlink:href="#DejaVuSans-79" transform="translate(939.558594 0)"/>
      </g>
     </g>
    </g>
   </g>
   <g id="matplotlib.axis_4">
    <g id="ytick_6">
     <g id="line2d_15">
      <path d="M 294.487328 309.535877 
L 419.005172 309.535877 
" clip-path="url(#p6722864b86)" style="fill: none; stroke: #b0b0b0; stroke-opacity: 0.2; stroke-width: 0.6; stroke-linecap: square"/>
     </g>
     <g id="line2d_16">
      <g>
       <use xlink:href="#m2c76b081cf" x="294.487328" y="309.535877" style="stroke: #000000; stroke-width: 0.8"/>
      </g>
     </g>
     <g id="text_9">
      <!-- 0.8 -->
      <g transform="translate(269.993891 313.715018) scale(0.11 -0.11)">
       <defs>
        <path id="DejaVuSans-2e" d="M 684 794 
L 1344 794 
L 1344 0 
L 684 0 
L 684 794 
z
" transform="scale(0.015625)"/>
       </defs>
       <use xlink:href="#DejaVuSans-30"/>
       <use xlink:href="#DejaVuSans-2e" transform="translate(63.623047 0)"/>
       <use xlink:href="#DejaVuSans-38" transform="translate(95.410156 0)"/>
      </g>
     </g>
    </g>
    <g id="ytick_7">
     <g id="line2d_17">
      <path d="M 294.487328 268.721284 
L 419.005172 268.721284 
" clip-path="url(#p6722864b86)" style="fill: none; stroke: #b0b0b0; stroke-opacity: 0.2; stroke-width: 0.6; stroke-linecap: square"/>
     </g>
     <g id="line2d_18">
      <g>
       <use xlink:href="#m2c76b081cf" x="294.487328" y="268.721284" style="stroke: #000000; stroke-width: 0.8"/>
      </g>
     </g>
     <g id="text_10">
      <!-- 0.9 -->
      <g transform="translate(269.993891 272.900425) scale(0.11 -0.11)">
       <defs>
        <path id="DejaVuSans-39" d="M 703 97 
L 703 672 
Q 941 559 1184 500 
Q 1428 441 1663 441 
Q 2288 441 2617 861 
Q 2947 1281 2994 2138 
Q 2813 1869 2534 1725 
Q 2256 1581 1919 1581 
Q 1219 1581 811 2004 
Q 403 2428 403 3163 
Q 403 3881 828 4315 
Q 1253 4750 1959 4750 
Q 2769 4750 3195 4129 
Q 3622 3509 3622 2328 
Q 3622 1225 3098 567 
Q 2575 -91 1691 -91 
Q 1453 -91 1209 -44 
Q 966 3 703 97 
z
M 1959 2075 
Q 2384 2075 2632 2365 
Q 2881 2656 2881 3163 
Q 2881 3666 2632 3958 
Q 2384 4250 1959 4250 
Q 1534 4250 1286 3958 
Q 1038 3666 1038 3163 
Q 1038 2656 1286 2365 
Q 1534 2075 1959 2075 
z
" transform="scale(0.015625)"/>
       </defs>
       <use xlink:href="#DejaVuSans-30"/>
       <use xlink:href="#DejaVuSans-2e" transform="translate(63.623047 0)"/>
       <use xlink:href="#DejaVuSans-39" transform="translate(95.410156 0)"/>
      </g>
     </g>
    </g>
    <g id="ytick_8">
     <g id="line2d_19">
      <path d="M 294.487328 227.906691 
L 419.005172 227.906691 
" clip-path="url(#p6722864b86)" style="fill: none; stroke: #b0b0b0; stroke-opacity: 0.2; stroke-width: 0.6; stroke-linecap: square"/>
     </g>
     <g id="line2d_20">
      <g>
       <use xlink:href="#m2c76b081cf" x="294.487328" y="227.906691" style="stroke: #000000; stroke-width: 0.8"/>
      </g>
     </g>
     <g id="text_11">
      <!-- 1.0 -->
      <g transform="translate(269.993891 232.085832) scale(0.11 -0.11)">
       <use xlink:href="#DejaVuSans-31"/>
       <use xlink:href="#DejaVuSans-2e" transform="translate(63.623047 0)"/>
       <use xlink:href="#DejaVuSans-30" transform="translate(95.410156 0)"/>
      </g>
     </g>
    </g>
    <g id="ytick_9">
     <g id="line2d_21">
      <path d="M 294.487328 187.092098 
L 419.005172 187.092098 
" clip-path="url(#p6722864b86)" style="fill: none; stroke: #b0b0b0; stroke-opacity: 0.2; stroke-width: 0.6; stroke-linecap: square"/>
     </g>
     <g id="line2d_22">
      <g>
       <use xlink:href="#m2c76b081cf" x="294.487328" y="187.092098" style="stroke: #000000; stroke-width: 0.8"/>
      </g>
     </g>
     <g id="text_12">
      <!-- 1.1 -->
      <g transform="translate(269.993891 191.271239) scale(0.11 -0.11)">
       <use xlink:href="#DejaVuSans-31"/>
       <use xlink:href="#DejaVuSans-2e" transform="translate(63.623047 0)"/>
       <use xlink:href="#DejaVuSans-31" transform="translate(95.410156 0)"/>
      </g>
     </g>
    </g>
    <g id="ytick_10">
     <g id="line2d_23">
      <path d="M 294.487328 146.277506 
L 419.005172 146.277506 
" clip-path="url(#p6722864b86)" style="fill: none; stroke: #b0b0b0; stroke-opacity: 0.2; stroke-width: 0.6; stroke-linecap: square"/>
     </g>
     <g id="line2d_24">
      <g>
       <use xlink:href="#m2c76b081cf" x="294.487328" y="146.277506" style="stroke: #000000; stroke-width: 0.8"/>
      </g>
     </g>
     <g id="text_13">
      <!-- 1.2 -->
      <g transform="translate(269.993891 150.456646) scale(0.11 -0.11)">
       <use xlink:href="#DejaVuSans-31"/>
       <use xlink:href="#DejaVuSans-2e" transform="translate(63.623047 0)"/>
       <use xlink:href="#DejaVuSans-32" transform="translate(95.410156 0)"/>
      </g>
     </g>
    </g>
    <g id="ytick_11">
     <g id="line2d_25">
      <path d="M 294.487328 105.462913 
L 419.005172 105.462913 
" clip-path="url(#p6722864b86)" style="fill: none; stroke: #b0b0b0; stroke-opacity: 0.2; stroke-width: 0.6; stroke-linecap: square"/>
     </g>
     <g id="line2d_26">
      <g>
       <use xlink:href="#m2c76b081cf" x="294.487328" y="105.462913" style="stroke: #000000; stroke-width: 0.8"/>
      </g>
     </g>
     <g id="text_14">
      <!-- 1.3 -->
      <g transform="translate(269.993891 109.642053) scale(0.11 -0.11)">
       <defs>
        <path id="DejaVuSans-33" d="M 2597 2516 
Q 3050 2419 3304 2112 
Q 3559 1806 3559 1356 
Q 3559 666 3084 287 
Q 2609 -91 1734 -91 
Q 1441 -91 1130 -33 
Q 819 25 488 141 
L 488 750 
Q 750 597 1062 519 
Q 1375 441 1716 441 
Q 2309 441 2620 675 
Q 2931 909 2931 1356 
Q 2931 1769 2642 2001 
Q 2353 2234 1838 2234 
L 1294 2234 
L 1294 2753 
L 1863 2753 
Q 2328 2753 2575 2939 
Q 2822 3125 2822 3475 
Q 2822 3834 2567 4026 
Q 2313 4219 1838 4219 
Q 1578 4219 1281 4162 
Q 984 4106 628 3988 
L 628 4550 
Q 988 4650 1302 4700 
Q 1616 4750 1894 4750 
Q 2613 4750 3031 4423 
Q 3450 4097 3450 3541 
Q 3450 3153 3228 2886 
Q 3006 2619 2597 2516 
z
" transform="scale(0.015625)"/>
       </defs>
       <use xlink:href="#DejaVuSans-31"/>
       <use xlink:href="#DejaVuSans-2e" transform="translate(63.623047 0)"/>
       <use xlink:href="#DejaVuSans-33" transform="translate(95.410156 0)"/>
      </g>
     </g>
    </g>
    <g id="ytick_12">
     <g id="line2d_27">
      <path d="M 294.487328 64.64832 
L 419.005172 64.64832 
" clip-path="url(#p6722864b86)" style="fill: none; stroke: #b0b0b0; stroke-opacity: 0.2; stroke-width: 0.6; stroke-linecap: square"/>
     </g>
     <g id="line2d_28">
      <g>
       <use xlink:href="#m2c76b081cf" x="294.487328" y="64.64832" style="stroke: #000000; stroke-width: 0.8"/>
      </g>
     </g>
     <g id="text_15">
      <!-- 1.4 -->
      <g transform="translate(269.993891 68.827461) scale(0.11 -0.11)">
       <use xlink:href="#DejaVuSans-31"/>
       <use xlink:href="#DejaVuSans-2e" transform="translate(63.623047 0)"/>
       <use xlink:href="#DejaVuSans-34" transform="translate(95.410156 0)"/>
      </g>
     </g>
    </g>
    <g id="text_16">
     <!-- normalized SD -->
     <g transform="translate(263.498266 230.259438) rotate(-90) scale(0.12 -0.12)">
      <defs>
       <path id="DejaVuSans-7a" d="M 353 3500 
L 3084 3500 
L 3084 2975 
L 922 459 
L 3084 459 
L 3084 0 
L 275 0 
L 275 525 
L 2438 3041 
L 353 3041 
L 353 3500 
z
" transform="scale(0.015625)"/>
       <path id="DejaVuSans-53" d="M 3425 4513 
L 3425 3897 
Q 3066 4069 2747 4153 
Q 2428 4238 2131 4238 
Q 1616 4238 1336 4038 
Q 1056 3838 1056 3469 
Q 1056 3159 1242 3001 
Q 1428 2844 1947 2747 
L 2328 2669 
Q 3034 2534 3370 2195 
Q 3706 1856 3706 1288 
Q 3706 609 3251 259 
Q 2797 -91 1919 -91 
Q 1588 -91 1214 -16 
Q 841 59 441 206 
L 441 856 
Q 825 641 1194 531 
Q 1563 422 1919 422 
Q 2459 422 2753 634 
Q 3047 847 3047 1241 
Q 3047 1584 2836 1778 
Q 2625 1972 2144 2069 
L 1759 2144 
Q 1053 2284 737 2584 
Q 422 2884 422 3419 
Q 422 4038 858 4394 
Q 1294 4750 2059 4750 
Q 2388 4750 2728 4690 
Q 3069 4631 3425 4513 
z
" transform="scale(0.015625)"/>
       <path id="DejaVuSans-44" d="M 1259 4147 
L 1259 519 
L 2022 519 
Q 2988 519 3436 956 
Q 3884 1394 3884 2338 
Q 3884 3275 3436 3711 
Q 2988 4147 2022 4147 
L 1259 4147 
z
M 628 4666 
L 1925 4666 
Q 3281 4666 3915 4102 
Q 4550 3538 4550 2338 
Q 4550 1131 3912 565 
Q 3275 0 1925 0 
L 628 0 
L 628 4666 
z
" transform="scale(0.015625)"/>
      </defs>
      <use xlink:href="#DejaVuSans-6e"/>
      <use xlink:href="#DejaVuSans-6f" transform="translate(63.378906 0)"/>
      <use xlink:href="#DejaVuSans-72" transform="translate(124.560547 0)"/>
      <use xlink:href="#DejaVuSans-6d" transform="translate(163.923828 0)"/>
      <use xlink:href="#DejaVuSans-61" transform="translate(261.335938 0)"/>
      <use xlink:href="#DejaVuSans-6c" transform="translate(322.615234 0)"/>
      <use xlink:href="#DejaVuSans-69" transform="translate(350.398438 0)"/>
      <use xlink:href="#DejaVuSans-7a" transform="translate(378.181641 0)"/>
      <use xlink:href="#DejaVuSans-65" transform="translate(430.671875 0)"/>
      <use xlink:href="#DejaVuSans-64" transform="translate(492.195312 0)"/>
      <use xlink:href="#DejaVuSans-20" transform="translate(555.671875 0)"/>
      <use xlink:href="#DejaVuSans-53" transform="translate(587.458984 0)"/>
      <use xlink:href="#DejaVuSans-44" transform="translate(650.935547 0)"/>
     </g>
    </g>
   </g>
   <g id="FillBetweenPolyCollection_2">
    <defs>
     <path id="m7c1960c35c" d="M 384.825922 -66.737983 
L 328.666578 -66.737983 
L 327.431285 -69.529961 
L 326.220543 -72.321939 
L 325.039917 -75.113916 
L 323.894587 -77.905894 
L 322.789259 -80.697872 
L 321.728078 -83.48985 
L 320.714549 -86.281827 
L 319.751475 -89.073805 
L 318.840896 -91.865783 
L 317.984053 -94.657761 
L 317.18136 -97.449738 
L 316.432393 -100.241716 
L 315.735902 -103.033694 
L 315.089831 -105.825672 
L 314.491362 -108.617649 
L 313.936977 -111.409627 
L 313.422531 -114.201605 
L 312.943343 -116.993583 
L 312.494297 -119.78556 
L 312.069964 -122.577538 
L 311.664718 -125.369516 
L 311.27287 -128.161493 
L 310.888803 -130.953471 
L 310.507103 -133.745449 
L 310.122697 -136.537427 
L 309.730974 -139.329404 
L 309.327911 -142.121382 
L 308.910179 -144.91336 
L 308.475238 -147.705338 
L 308.021422 -150.497315 
L 307.547999 -153.289293 
L 307.055218 -156.081271 
L 306.544332 -158.873249 
L 306.017606 -161.665226 
L 305.478299 -164.457204 
L 304.930623 -167.249182 
L 304.379692 -170.04116 
L 303.831443 -172.833137 
L 303.292537 -175.625115 
L 302.770253 -178.417093 
L 302.272363 -181.209071 
L 301.806991 -184.001048 
L 301.38247 -186.793026 
L 301.007188 -189.585004 
L 300.689434 -192.376982 
L 300.437236 -195.168959 
L 300.258215 -197.960937 
L 300.159428 -200.752915 
L 300.14723 -203.544893 
L 300.22715 -206.33687 
L 300.403765 -209.128848 
L 300.680611 -211.920826 
L 301.060093 -214.712804 
L 301.543428 -217.504781 
L 302.130599 -220.296759 
L 302.820343 -223.088737 
L 303.610146 -225.880714 
L 304.496274 -228.672692 
L 305.473821 -231.46467 
L 306.536773 -234.256648 
L 307.678102 -237.048625 
L 308.889869 -239.840603 
L 310.163353 -242.632581 
L 311.489183 -245.424559 
L 312.857488 -248.216536 
L 314.258056 -251.008514 
L 315.680495 -253.800492 
L 317.114399 -256.59247 
L 318.549506 -259.384447 
L 319.975865 -262.176425 
L 321.38398 -264.968403 
L 322.764957 -267.760381 
L 324.110627 -270.552358 
L 325.413662 -273.344336 
L 326.667669 -276.136314 
L 327.867264 -278.928292 
L 329.00813 -281.720269 
L 330.087048 -284.512247 
L 331.10191 -287.304225 
L 332.05171 -290.096203 
L 332.936513 -292.88818 
L 333.757407 -295.680158 
L 334.516431 -298.472136 
L 335.216496 -301.264114 
L 335.861279 -304.056091 
L 336.45512 -306.848069 
L 337.002897 -309.640047 
L 337.509905 -312.432025 
L 337.981723 -315.224002 
L 338.424091 -318.01598 
L 338.842776 -320.807958 
L 339.24346 -323.599936 
L 339.631621 -326.391913 
L 340.012431 -329.183891 
L 340.390666 -331.975869 
L 340.770628 -334.767846 
L 341.15608 -337.559824 
L 341.550201 -340.351802 
L 341.95555 -343.14378 
L 371.53695 -343.14378 
L 371.53695 -343.14378 
L 371.942299 -340.351802 
L 372.33642 -337.559824 
L 372.721872 -334.767846 
L 373.101834 -331.975869 
L 373.480069 -329.183891 
L 373.860879 -326.391913 
L 374.24904 -323.599936 
L 374.649724 -320.807958 
L 375.068409 -318.01598 
L 375.510777 -315.224002 
L 375.982595 -312.432025 
L 376.489603 -309.640047 
L 377.03738 -306.848069 
L 377.631221 -304.056091 
L 378.276004 -301.264114 
L 378.976069 -298.472136 
L 379.735093 -295.680158 
L 380.555987 -292.88818 
L 381.44079 -290.096203 
L 382.39059 -287.304225 
L 383.405452 -284.512247 
L 384.48437 -281.720269 
L 385.625236 -278.928292 
L 386.824831 -276.136314 
L 388.078838 -273.344336 
L 389.381873 -270.552358 
L 390.727543 -267.760381 
L 392.10852 -264.968403 
L 393.516635 -262.176425 
L 394.942994 -259.384447 
L 396.378101 -256.59247 
L 397.812005 -253.800492 
L 399.234444 -251.008514 
L 400.635012 -248.216536 
L 402.003317 -245.424559 
L 403.329147 -242.632581 
L 404.602631 -239.840603 
L 405.814398 -237.048625 
L 406.955727 -234.256648 
L 408.018679 -231.46467 
L 408.996226 -228.672692 
L 409.882354 -225.880714 
L 410.672157 -223.088737 
L 411.361901 -220.296759 
L 411.949072 -217.504781 
L 412.432407 -214.712804 
L 412.811889 -211.920826 
L 413.088735 -209.128848 
L 413.26535 -206.33687 
L 413.34527 -203.544893 
L 413.333072 -200.752915 
L 413.234285 -197.960937 
L 413.055264 -195.168959 
L 412.803066 -192.376982 
L 412.485312 -189.585004 
L 412.11003 -186.793026 
L 411.685509 -184.001048 
L 411.220137 -181.209071 
L 410.722247 -178.417093 
L 410.199963 -175.625115 
L 409.661057 -172.833137 
L 409.112808 -170.04116 
L 408.561877 -167.249182 
L 408.014201 -164.457204 
L 407.474894 -161.665226 
L 406.948168 -158.873249 
L 406.437282 -156.081271 
L 405.944501 -153.289293 
L 405.471078 -150.497315 
L 405.017262 -147.705338 
L 404.582321 -144.91336 
L 404.164589 -142.121382 
L 403.761526 -139.329404 
L 403.369803 -136.537427 
L 402.985397 -133.745449 
L 402.603697 -130.953471 
L 402.21963 -128.161493 
L 401.827782 -125.369516 
L 401.422536 -122.577538 
L 400.998203 -119.78556 
L 400.549157 -116.993583 
L 400.069969 -114.201605 
L 399.555523 -111.409627 
L 399.001138 -108.617649 
L 398.402669 -105.825672 
L 397.756598 -103.033694 
L 397.060107 -100.241716 
L 396.31114 -97.449738 
L 395.508447 -94.657761 
L 394.651604 -91.865783 
L 393.741025 -89.073805 
L 392.777951 -86.281827 
L 391.764422 -83.48985 
L 390.703241 -80.697872 
L 389.597913 -77.905894 
L 388.452583 -75.113916 
L 387.271957 -72.321939 
L 386.061215 -69.529961 
L 384.825922 -66.737983 
z
" style="stroke: #7c3aed; stroke-opacity: 0.35"/>
    </defs>
    <g clip-path="url(#p6722864b86)">
     <use xlink:href="#m7c1960c35c" x="0" y="391.52407" style="fill: #7c3aed; fill-opacity: 0.35; stroke: #7c3aed; stroke-opacity: 0.35"/>
    </g>
   </g>
   <g id="LineCollection_2">
    <path d="M 328.44674 199.256553 
L 385.04576 199.256553 
" clip-path="url(#p6722864b86)" style="fill: none; stroke: #7c3aed; stroke-width: 1.5"/>
   </g>
   <g id="patch_8">
    <path d="M 294.487328 338.606376 
L 294.487328 34.56 
" style="fill: none; stroke: #000000; stroke-width: 0.8; stroke-linejoin: miter; stroke-linecap: square"/>
   </g>
   <g id="patch_9">
    <path d="M 419.005172 338.606376 
L 419.005172 34.56 
" style="fill: none; stroke: #000000; stroke-width: 0.8; stroke-linejoin: miter; stroke-linecap: square"/>
   </g>
   <g id="patch_10">
    <path d="M 294.487328 338.606376 
L 419.005172 338.606376 
" style="fill: none; stroke: #000000; stroke-width: 0.8; stroke-linejoin: miter; stroke-linecap: square"/>
   </g>
   <g id="patch_11">
    <path d="M 294.487328 34.56 
L 419.005172 34.56 
" style="fill: none; stroke: #000000; stroke-width: 0.8; stroke-linejoin: miter; stroke-linecap: square"/>
   </g>
   <g id="PathCollection_2">
    <g clip-path="url(#p6722864b86)">
     <use xlink:href="#mb7d029a687" x="356.74625" y="216.029101" style="fill: #111827; stroke: #111827"/>
    </g>
   </g>
  </g>
  <g id="axes_3">
   <g id="patch_12">
    <path d="M 545.163407 338.606376 
L 669.68125 338.606376 
L 669.68125 34.56 
L 545.163407 34.56 
z
" style="fill: #ffffff"/>
   </g>
   <g id="matplotlib.axis_5">
    <g id="xtick_3">
     <g id="line2d_29">
      <path d="M 607.422328 338.606376 
L 607.422328 34.56 
" clip-path="url(#pac39ae77a7)" style="fill: none; stroke: #b0b0b0; stroke-opacity: 0.2; stroke-width: 0.6; stroke-linecap: square"/>
     </g>
     <g id="line2d_30">
      <g>
       <use xlink:href="#m280bcc6361" x="607.422328" y="338.606376" style="stroke: #000000; stroke-width: 0.8"/>
      </g>
     </g>
     <g id="text_17">
      <!-- Speech rate -->
      <g transform="translate(542.728836 370.855775) rotate(-15) scale(0.11 -0.11)">
       <defs>
        <path id="DejaVuSans-70" d="M 1159 525 
L 1159 -1331 
L 581 -1331 
L 581 3500 
L 1159 3500 
L 1159 2969 
Q 1341 3281 1617 3432 
Q 1894 3584 2278 3584 
Q 2916 3584 3314 3078 
Q 3713 2572 3713 1747 
Q 3713 922 3314 415 
Q 2916 -91 2278 -91 
Q 1894 -91 1617 61 
Q 1341 213 1159 525 
z
M 3116 1747 
Q 3116 2381 2855 2742 
Q 2594 3103 2138 3103 
Q 1681 3103 1420 2742 
Q 1159 2381 1159 1747 
Q 1159 1113 1420 752 
Q 1681 391 2138 391 
Q 2594 391 2855 752 
Q 3116 1113 3116 1747 
z
" transform="scale(0.015625)"/>
       </defs>
       <use xlink:href="#DejaVuSans-53"/>
       <use xlink:href="#DejaVuSans-70" transform="translate(63.476562 0)"/>
       <use xlink:href="#DejaVuSans-65" transform="translate(126.953125 0)"/>
       <use xlink:href="#DejaVuSans-65" transform="translate(188.476562 0)"/>
       <use xlink:href="#DejaVuSans-63" transform="translate(250 0)"/>
       <use xlink:href="#DejaVuSans-68" transform="translate(304.980469 0)"/>
       <use xlink:href="#DejaVuSans-20" transform="translate(368.359375 0)"/>
       <use xlink:href="#DejaVuSans-72" transform="translate(400.146484 0)"/>
       <use xlink:href="#DejaVuSans-61" transform="translate(441.259766 0)"/>
       <use xlink:href="#DejaVuSans-74" transform="translate(502.539062 0)"/>
       <use xlink:href="#DejaVuSans-65" transform="translate(541.748047 0)"/>
      </g>
     </g>
    </g>
   </g>
   <g id="matplotlib.axis_6">
    <g id="ytick_13">
     <g id="line2d_31">
      <path d="M 545.163407 304.408374 
L 669.68125 304.408374 
" clip-path="url(#pac39ae77a7)" style="fill: none; stroke: #b0b0b0; stroke-opacity: 0.2; stroke-width: 0.6; stroke-linecap: square"/>
     </g>
     <g id="line2d_32">
      <g>
       <use xlink:href="#m2c76b081cf" x="545.163407" y="304.408374" style="stroke: #000000; stroke-width: 0.8"/>
      </g>
     </g>
     <g id="text_18">
      <!-- 1.0 -->
      <g transform="translate(520.669969 308.587515) scale(0.11 -0.11)">
       <use xlink:href="#DejaVuSans-31"/>
       <use xlink:href="#DejaVuSans-2e" transform="translate(63.623047 0)"/>
       <use xlink:href="#DejaVuSans-30" transform="translate(95.410156 0)"/>
      </g>
     </g>
    </g>
    <g id="ytick_14">
     <g id="line2d_33">
      <path d="M 545.163407 264.090684 
L 669.68125 264.090684 
" clip-path="url(#pac39ae77a7)" style="fill: none; stroke: #b0b0b0; stroke-opacity: 0.2; stroke-width: 0.6; stroke-linecap: square"/>
     </g>
     <g id="line2d_34">
      <g>
       <use xlink:href="#m2c76b081cf" x="545.163407" y="264.090684" style="stroke: #000000; stroke-width: 0.8"/>
      </g>
     </g>
     <g id="text_19">
      <!-- 1.2 -->
      <g transform="translate(520.669969 268.269824) scale(0.11 -0.11)">
       <use xlink:href="#DejaVuSans-31"/>
       <use xlink:href="#DejaVuSans-2e" transform="translate(63.623047 0)"/>
       <use xlink:href="#DejaVuSans-32" transform="translate(95.410156 0)"/>
      </g>
     </g>
    </g>
    <g id="ytick_15">
     <g id="line2d_35">
      <path d="M 545.163407 223.772994 
L 669.68125 223.772994 
" clip-path="url(#pac39ae77a7)" style="fill: none; stroke: #b0b0b0; stroke-opacity: 0.2; stroke-width: 0.6; stroke-linecap: square"/>
     </g>
     <g id="line2d_36">
      <g>
       <use xlink:href="#m2c76b081cf" x="545.163407" y="223.772994" style="stroke: #000000; stroke-width: 0.8"/>
      </g>
     </g>
     <g id="text_20">
      <!-- 1.4 -->
      <g transform="translate(520.669969 227.952134) scale(0.11 -0.11)">
       <use xlink:href="#DejaVuSans-31"/>
       <use xlink:href="#DejaVuSans-2e" transform="translate(63.623047 0)"/>
       <use xlink:href="#DejaVuSans-34" transform="translate(95.410156 0)"/>
      </g>
     </g>
    </g>
    <g id="ytick_16">
     <g id="line2d_37">
      <path d="M 545.163407 183.455303 
L 669.68125 183.455303 
" clip-path="url(#pac39ae77a7)" style="fill: none; stroke: #b0b0b0; stroke-opacity: 0.2; stroke-width: 0.6; stroke-linecap: square"/>
     </g>
     <g id="line2d_38">
      <g>
       <use xlink:href="#m2c76b081cf" x="545.163407" y="183.455303" style="stroke: #000000; stroke-width: 0.8"/>
      </g>
     </g>
     <g id="text_21">
      <!-- 1.6 -->
      <g transform="translate(520.669969 187.634444) scale(0.11 -0.11)">
       <use xlink:href="#DejaVuSans-31"/>
       <use xlink:href="#DejaVuSans-2e" transform="translate(63.623047 0)"/>
       <use xlink:href="#DejaVuSans-36" transform="translate(95.410156 0)"/>
      </g>
     </g>
    </g>
    <g id="ytick_17">
     <g id="line2d_39">
      <path d="M 545.163407 143.137613 
L 669.68125 143.137613 
" clip-path="url(#pac39ae77a7)" style="fill: none; stroke: #b0b0b0; stroke-opacity: 0.2; stroke-width: 0.6; stroke-linecap: square"/>
     </g>
     <g id="line2d_40">
      <g>
       <use xlink:href="#m2c76b081cf" x="545.163407" y="143.137613" style="stroke: #000000; stroke-width: 0.8"/>
      </g>
     </g>
     <g id="text_22">
      <!-- 1.8 -->
      <g transform="translate(520.669969 147.316754) scale(0.11 -0.11)">
       <use xlink:href="#DejaVuSans-31"/>
       <use xlink:href="#DejaVuSans-2e" transform="translate(63.623047 0)"/>
       <use xlink:href="#DejaVuSans-38" transform="translate(95.410156 0)"/>
      </g>
     </g>
    </g>
    <g id="ytick_18">
     <g id="line2d_41">
      <path d="M 545.163407 102.819923 
L 669.68125 102.819923 
" clip-path="url(#pac39ae77a7)" style="fill: none; stroke: #b0b0b0; stroke-opacity: 0.2; stroke-width: 0.6; stroke-linecap: square"/>
     </g>
     <g id="line2d_42">
      <g>
       <use xlink:href="#m2c76b081cf" x="545.163407" y="102.819923" style="stroke: #000000; stroke-width: 0.8"/>
      </g>
     </g>
     <g id="text_23">
      <!-- 2.0 -->
      <g transform="translate(520.669969 106.999064) scale(0.11 -0.11)">
       <use xlink:href="#DejaVuSans-32"/>
       <use xlink:href="#DejaVuSans-2e" transform="translate(63.623047 0)"/>
       <use xlink:href="#DejaVuSans-30" transform="translate(95.410156 0)"/>
      </g>
     </g>
    </g>
    <g id="ytick_19">
     <g id="line2d_43">
      <path d="M 545.163407 62.502233 
L 669.68125 62.502233 
" clip-path="url(#pac39ae77a7)" style="fill: none; stroke: #b0b0b0; stroke-opacity: 0.2; stroke-width: 0.6; stroke-linecap: square"/>
     </g>
     <g id="line2d_44">
      <g>
       <use xlink:href="#m2c76b081cf" x="545.163407" y="62.502233" style="stroke: #000000; stroke-width: 0.8"/>
      </g>
     </g>
     <g id="text_24">
      <!-- 2.2 -->
      <g transform="translate(520.669969 66.681373) scale(0.11 -0.11)">
       <use xlink:href="#DejaVuSans-32"/>
       <use xlink:href="#DejaVuSans-2e" transform="translate(63.623047 0)"/>
       <use xlink:href="#DejaVuSans-32" transform="translate(95.410156 0)"/>
      </g>
     </g>
    </g>
    <g id="text_25">
     <!-- segments / second -->
     <g transform="translate(514.174344 243.260688) rotate(-90) scale(0.12 -0.12)">
      <defs>
       <path id="DejaVuSans-67" d="M 2906 1791 
Q 2906 2416 2648 2759 
Q 2391 3103 1925 3103 
Q 1463 3103 1205 2759 
Q 947 2416 947 1791 
Q 947 1169 1205 825 
Q 1463 481 1925 481 
Q 2391 481 2648 825 
Q 2906 1169 2906 1791 
z
M 3481 434 
Q 3481 -459 3084 -895 
Q 2688 -1331 1869 -1331 
Q 1566 -1331 1297 -1286 
Q 1028 -1241 775 -1147 
L 775 -588 
Q 1028 -725 1275 -790 
Q 1522 -856 1778 -856 
Q 2344 -856 2625 -561 
Q 2906 -266 2906 331 
L 2906 616 
Q 2728 306 2450 153 
Q 2172 0 1784 0 
Q 1141 0 747 490 
Q 353 981 353 1791 
Q 353 2603 747 3093 
Q 1141 3584 1784 3584 
Q 2172 3584 2450 3431 
Q 2728 3278 2906 2969 
L 2906 3500 
L 3481 3500 
L 3481 434 
z
" transform="scale(0.015625)"/>
       <path id="DejaVuSans-2f" d="M 1625 4666 
L 2156 4666 
L 531 -594 
L 0 -594 
L 1625 4666 
z
" transform="scale(0.015625)"/>
      </defs>
      <use xlink:href="#DejaVuSans-73"/>
      <use xlink:href="#DejaVuSans-65" transform="translate(52.099609 0)"/>
      <use xlink:href="#DejaVuSans-67" transform="translate(113.623047 0)"/>
      <use xlink:href="#DejaVuSans-6d" transform="translate(177.099609 0)"/>
      <use xlink:href="#DejaVuSans-65" transform="translate(274.511719 0)"/>
      <use xlink:href="#DejaVuSans-6e" transform="translate(336.035156 0)"/>
      <use xlink:href="#DejaVuSans-74" transform="translate(399.414062 0)"/>
      <use xlink:href="#DejaVuSans-73" transform="translate(438.623047 0)"/>
      <use xlink:href="#DejaVuSans-20" transform="translate(490.722656 0)"/>
      <use xlink:href="#DejaVuSans-2f" transform="translate(522.509766 0)"/>
      <use xlink:href="#DejaVuSans-20" transform="translate(556.201172 0)"/>
      <use xlink:href="#DejaVuSans-73" transform="translate(587.988281 0)"/>
      <use xlink:href="#DejaVuSans-65" transform="translate(640.087891 0)"/>
      <use xlink:href="#DejaVuSans-63" transform="translate(701.611328 0)"/>
      <use xlink:href="#DejaVuSans-6f" transform="translate(756.591797 0)"/>
      <use xlink:href="#DejaVuSans-6e" transform="translate(817.773438 0)"/>
      <use xlink:href="#DejaVuSans-64" transform="translate(881.152344 0)"/>
     </g>
    </g>
   </g>
   <g id="FillBetweenPolyCollection_3">
    <defs>
     <path id="m2e3ef59a2d" d="M 622.61321 -66.737983 
L 592.231447 -66.737983 
L 591.526652 -69.529961 
L 590.811226 -72.321939 
L 590.084243 -75.113916 
L 589.344572 -77.905894 
L 588.590917 -80.697872 
L 587.821866 -83.48985 
L 587.035945 -86.281827 
L 586.231682 -89.073805 
L 585.407673 -91.865783 
L 584.562652 -94.657761 
L 583.69556 -97.449738 
L 582.805612 -100.241716 
L 581.892358 -103.033694 
L 580.955738 -105.825672 
L 579.99613 -108.617649 
L 579.014377 -111.409627 
L 578.011817 -114.201605 
L 576.99028 -116.993583 
L 575.952087 -119.78556 
L 574.90002 -122.577538 
L 573.837286 -125.369516 
L 572.767464 -128.161493 
L 571.694441 -130.953471 
L 570.622333 -133.745449 
L 569.555404 -136.537427 
L 568.497977 -139.329404 
L 567.454343 -142.121382 
L 566.428669 -144.91336 
L 565.424916 -147.705338 
L 564.446754 -150.497315 
L 563.4975 -153.289293 
L 562.580054 -156.081271 
L 561.696859 -158.873249 
L 560.849872 -161.665226 
L 560.040551 -164.457204 
L 559.269858 -167.249182 
L 558.538278 -170.04116 
L 557.845853 -172.833137 
L 557.192225 -175.625115 
L 556.576696 -178.417093 
L 555.998287 -181.209071 
L 555.455811 -184.001048 
L 554.947947 -186.793026 
L 554.473307 -189.585004 
L 554.030511 -192.376982 
L 553.618251 -195.168959 
L 553.235348 -197.960937 
L 552.880805 -200.752915 
L 552.553847 -203.544893 
L 552.253951 -206.33687 
L 551.980869 -209.128848 
L 551.73464 -211.920826 
L 551.515587 -214.712804 
L 551.324315 -217.504781 
L 551.161698 -220.296759 
L 551.028854 -223.088737 
L 550.927123 -225.880714 
L 550.858042 -228.672692 
L 550.823309 -231.46467 
L 550.824755 -234.256648 
L 550.864311 -237.048625 
L 550.943975 -239.840603 
L 551.065779 -242.632581 
L 551.231763 -245.424559 
L 551.443937 -248.216536 
L 551.704256 -251.008514 
L 552.014588 -253.800492 
L 552.376684 -256.59247 
L 552.792146 -259.384447 
L 553.262401 -262.176425 
L 553.788661 -264.968403 
L 554.371903 -267.760381 
L 555.012826 -270.552358 
L 555.711831 -273.344336 
L 556.468985 -276.136314 
L 557.283998 -278.928292 
L 558.156199 -281.720269 
L 559.084515 -284.512247 
L 560.067463 -287.304225 
L 561.103137 -290.096203 
L 562.189208 -292.88818 
L 563.322936 -295.680158 
L 564.501179 -298.472136 
L 565.720417 -301.264114 
L 566.976783 -304.056091 
L 568.266102 -306.848069 
L 569.583929 -309.640047 
L 570.925603 -312.432025 
L 572.286298 -315.224002 
L 573.661075 -318.01598 
L 575.044947 -320.807958 
L 576.432926 -323.599936 
L 577.820087 -326.391913 
L 579.201614 -329.183891 
L 580.572851 -331.975869 
L 581.929348 -334.767846 
L 583.266893 -337.559824 
L 584.581549 -340.351802 
L 585.869679 -343.14378 
L 628.974978 -343.14378 
L 628.974978 -343.14378 
L 630.263108 -340.351802 
L 631.577764 -337.559824 
L 632.915309 -334.767846 
L 634.271806 -331.975869 
L 635.643043 -329.183891 
L 637.02457 -326.391913 
L 638.411731 -323.599936 
L 639.79971 -320.807958 
L 641.183582 -318.01598 
L 642.558359 -315.224002 
L 643.919053 -312.432025 
L 645.260728 -309.640047 
L 646.578555 -306.848069 
L 647.867873 -304.056091 
L 649.12424 -301.264114 
L 650.343478 -298.472136 
L 651.521721 -295.680158 
L 652.655449 -292.88818 
L 653.74152 -290.096203 
L 654.777194 -287.304225 
L 655.760142 -284.512247 
L 656.688458 -281.720269 
L 657.560659 -278.928292 
L 658.375671 -276.136314 
L 659.132825 -273.344336 
L 659.83183 -270.552358 
L 660.472754 -267.760381 
L 661.055995 -264.968403 
L 661.582256 -262.176425 
L 662.052511 -259.384447 
L 662.467973 -256.59247 
L 662.830069 -253.800492 
L 663.140401 -251.008514 
L 663.40072 -248.216536 
L 663.612894 -245.424559 
L 663.778878 -242.632581 
L 663.900682 -239.840603 
L 663.980346 -237.048625 
L 664.019902 -234.256648 
L 664.021348 -231.46467 
L 663.986615 -228.672692 
L 663.917534 -225.880714 
L 663.815803 -223.088737 
L 663.682959 -220.296759 
L 663.520341 -217.504781 
L 663.32907 -214.712804 
L 663.110017 -211.920826 
L 662.863787 -209.128848 
L 662.590706 -206.33687 
L 662.29081 -203.544893 
L 661.963852 -200.752915 
L 661.609309 -197.960937 
L 661.226406 -195.168959 
L 660.814145 -192.376982 
L 660.37135 -189.585004 
L 659.89671 -186.793026 
L 659.388845 -184.001048 
L 658.84637 -181.209071 
L 658.267961 -178.417093 
L 657.652432 -175.625115 
L 656.998804 -172.833137 
L 656.306379 -170.04116 
L 655.574799 -167.249182 
L 654.804106 -164.457204 
L 653.994784 -161.665226 
L 653.147797 -158.873249 
L 652.264603 -156.081271 
L 651.347157 -153.289293 
L 650.397902 -150.497315 
L 649.419741 -147.705338 
L 648.415987 -144.91336 
L 647.390314 -142.121382 
L 646.346679 -139.329404 
L 645.289253 -136.537427 
L 644.222324 -133.745449 
L 643.150216 -130.953471 
L 642.077193 -128.161493 
L 641.007371 -125.369516 
L 639.944637 -122.577538 
L 638.89257 -119.78556 
L 637.854377 -116.993583 
L 636.83284 -114.201605 
L 635.83028 -111.409627 
L 634.848527 -108.617649 
L 633.888918 -105.825672 
L 632.952299 -103.033694 
L 632.039045 -100.241716 
L 631.149097 -97.449738 
L 630.282005 -94.657761 
L 629.436984 -91.865783 
L 628.612975 -89.073805 
L 627.808712 -86.281827 
L 627.022791 -83.48985 
L 626.25374 -80.697872 
L 625.500085 -77.905894 
L 624.760414 -75.113916 
L 624.033431 -72.321939 
L 623.318005 -69.529961 
L 622.61321 -66.737983 
z
" style="stroke: #7c3aed; stroke-opacity: 0.35"/>
    </defs>
    <g clip-path="url(#pac39ae77a7)">
     <use xlink:href="#m2e3ef59a2d" x="0" y="391.52407" style="fill: #7c3aed; fill-opacity: 0.35; stroke: #7c3aed; stroke-opacity: 0.35"/>
    </g>
   </g>
   <g id="LineCollection_3">
    <path d="M 579.122819 172.978631 
L 635.721838 172.978631 
" clip-path="url(#pac39ae77a7)" style="fill: none; stroke: #7c3aed; stroke-width: 1.5"/>
   </g>
   <g id="patch_13">
    <path d="M 545.163407 338.606376 
L 545.163407 34.56 
" style="fill: none; stroke: #000000; stroke-width: 0.8; stroke-linejoin: miter; stroke-linecap: square"/>
   </g>
   <g id="patch_14">
    <path d="M 669.68125 338.606376 
L 669.68125 34.56 
" style="fill: none; stroke: #000000; stroke-width: 0.8; stroke-linejoin: miter; stroke-linecap: square"/>
   </g>
   <g id="patch_15">
    <path d="M 545.163407 338.606376 
L 669.68125 338.606376 
" style="fill: none; stroke: #000000; stroke-width: 0.8; stroke-linejoin: miter; stroke-linecap: square"/>
   </g>
   <g id="patch_16">
    <path d="M 545.163407 34.56 
L 669.68125 34.56 
" style="fill: none; stroke: #000000; stroke-width: 0.8; stroke-linejoin: miter; stroke-linecap: square"/>
   </g>
   <g id="PathCollection_3">
    <g clip-path="url(#pac39ae77a7)">
     <use xlink:href="#mb7d029a687" x="607.422328" y="174.466508" style="fill: #111827; stroke: #111827"/>
    </g>
   </g>
   <g id="legend_1">
    <g id="patch_17">
     <path d="M 403.063594 52.818281 
L 425.063594 52.818281 
L 425.063594 45.118281 
L 403.063594 45.118281 
z
" style="fill: #7c3aed; opacity: 0.35; stroke: #7c3aed; stroke-linejoin: miter"/>
    </g>
    <g id="text_26">
     <!-- Reference group -->
     <g transform="translate(433.863594 52.818281) scale(0.11 -0.11)">
      <defs>
       <path id="DejaVuSans-52" d="M 2841 2188 
Q 3044 2119 3236 1894 
Q 3428 1669 3622 1275 
L 4263 0 
L 3584 0 
L 2988 1197 
Q 2756 1666 2539 1819 
Q 2322 1972 1947 1972 
L 1259 1972 
L 1259 0 
L 628 0 
L 628 4666 
L 2053 4666 
Q 2853 4666 3247 4331 
Q 3641 3997 3641 3322 
Q 3641 2881 3436 2590 
Q 3231 2300 2841 2188 
z
M 1259 4147 
L 1259 2491 
L 2053 2491 
Q 2509 2491 2742 2702 
Q 2975 2913 2975 3322 
Q 2975 3731 2742 3939 
Q 2509 4147 2053 4147 
L 1259 4147 
z
" transform="scale(0.015625)"/>
       <path id="DejaVuSans-66" d="M 2375 4863 
L 2375 4384 
L 1825 4384 
Q 1516 4384 1395 4259 
Q 1275 4134 1275 3809 
L 1275 3500 
L 2222 3500 
L 2222 3053 
L 1275 3053 
L 1275 0 
L 697 0 
L 697 3053 
L 147 3053 
L 147 3500 
L 697 3500 
L 697 3744 
Q 697 4328 969 4595 
Q 1241 4863 1831 4863 
L 2375 4863 
z
" transform="scale(0.015625)"/>
      </defs>
      <use xlink:href="#DejaVuSans-52"/>
      <use xlink:href="#DejaVuSans-65" transform="translate(64.982422 0)"/>
      <use xlink:href="#DejaVuSans-66" transform="translate(126.505859 0)"/>
      <use xlink:href="#DejaVuSans-65" transform="translate(161.710938 0)"/>
      <use xlink:href="#DejaVuSans-72" transform="translate(223.234375 0)"/>
      <use xlink:href="#DejaVuSans-65" transform="translate(262.097656 0)"/>
      <use xlink:href="#DejaVuSans-6e" transform="translate(323.621094 0)"/>
      <use xlink:href="#DejaVuSans-63" transform="translate(387 0)"/>
      <use xlink:href="#DejaVuSans-65" transform="translate(441.980469 0)"/>
      <use xlink:href="#DejaVuSans-20" transform="translate(503.503906 0)"/>
      <use xlink:href="#DejaVuSans-67" transform="translate(535.291016 0)"/>
      <use xlink:href="#DejaVuSans-72" transform="translate(598.767578 0)"/>
      <use xlink:href="#DejaVuSans-6f" transform="translate(637.630859 0)"/>
      <use xlink:href="#DejaVuSans-75" transform="translate(698.8125 0)"/>
      <use xlink:href="#DejaVuSans-70" transform="translate(762.191406 0)"/>
     </g>
    </g>
    <g id="line2d_45">
     <defs>
      <path id="m5fdaecfba1" d="M -0 4.242641 
L 4.242641 0 
L 0 -4.242641 
L -4.242641 -0 
z
" style="stroke: #111827; stroke-linejoin: miter"/>
     </defs>
     <g>
      <use xlink:href="#m5fdaecfba1" x="414.063594" y="65.114219" style="fill: #111827; stroke: #111827; stroke-linejoin: miter"/>
     </g>
    </g>
    <g id="text_27">
     <!-- Depressive disorder (MDD/DD) prototype -->
     <g transform="translate(433.863594 68.964219) scale(0.11 -0.11)">
      <defs>
       <path id="DejaVuSans-28" d="M 1984 4856 
Q 1566 4138 1362 3434 
Q 1159 2731 1159 2009 
Q 1159 1288 1364 580 
Q 1569 -128 1984 -844 
L 1484 -844 
Q 1016 -109 783 600 
Q 550 1309 550 2009 
Q 550 2706 781 3412 
Q 1013 4119 1484 4856 
L 1984 4856 
z
" transform="scale(0.015625)"/>
       <path id="DejaVuSans-4d" d="M 628 4666 
L 1569 4666 
L 2759 1491 
L 3956 4666 
L 4897 4666 
L 4897 0 
L 4281 0 
L 4281 4097 
L 3078 897 
L 2444 897 
L 1241 4097 
L 1241 0 
L 628 0 
L 628 4666 
z
" transform="scale(0.015625)"/>
       <path id="DejaVuSans-29" d="M 513 4856 
L 1013 4856 
Q 1481 4119 1714 3412 
Q 1947 2706 1947 2009 
Q 1947 1309 1714 600 
Q 1481 -109 1013 -844 
L 513 -844 
Q 928 -128 1133 580 
Q 1338 1288 1338 2009 
Q 1338 2731 1133 3434 
Q 928 4138 513 4856 
z
" transform="scale(0.015625)"/>
      </defs>
      <use xlink:href="#DejaVuSans-44"/>
      <use xlink:href="#DejaVuSans-65" transform="translate(77.001953 0)"/>
      <use xlink:href="#DejaVuSans-70" transform="translate(138.525391 0)"/>
      <use xlink:href="#DejaVuSans-72" transform="translate(202.001953 0)"/>
      <use xlink:href="#DejaVuSans-65" transform="translate(240.865234 0)"/>
      <use xlink:href="#DejaVuSans-73" transform="translate(302.388672 0)"/>
      <use xlink:href="#DejaVuSans-73" transform="translate(354.488281 0)"/>
      <use xlink:href="#DejaVuSans-69" transform="translate(406.587891 0)"/>
      <use xlink:href="#DejaVuSans-76" transform="translate(434.371094 0)"/>
      <use xlink:href="#DejaVuSans-65" transform="translate(493.550781 0)"/>
      <use xlink:href="#DejaVuSans-20" transform="translate(555.074219 0)"/>
      <use xlink:href="#DejaVuSans-64" transform="translate(586.861328 0)"/>
      <use xlink:href="#DejaVuSans-69" transform="translate(650.337891 0)"/>
      <use xlink:href="#DejaVuSans-73" transform="translate(678.121094 0)"/>
      <use xlink:href="#DejaVuSans-6f" transform="translate(730.220703 0)"/>
      <use xlink:href="#DejaVuSans-72" transform="translate(791.402344 0)"/>
      <use xlink:href="#DejaVuSans-64" transform="translate(830.765625 0)"/>
      <use xlink:href="#DejaVuSans-65" transform="translate(894.242188 0)"/>
      <use xlink:href="#DejaVuSans-72" transform="translate(955.765625 0)"/>
      <use xlink:href="#DejaVuSans-20" transform="translate(996.878906 0)"/>
      <use xlink:href="#DejaVuSans-28" transform="translate(1028.666016 0)"/>
      <use xlink:href="#DejaVuSans-4d" transform="translate(1067.679688 0)"/>
      <use xlink:href="#DejaVuSans-44" transform="translate(1153.958984 0)"/>
      <use xlink:href="#DejaVuSans-44" transform="translate(1230.960938 0)"/>
      <use xlink:href="#DejaVuSans-2f" transform="translate(1307.962891 0)"/>
      <use xlink:href="#DejaVuSans-44" transform="translate(1341.654297 0)"/>
      <use xlink:href="#DejaVuSans-44" transform="translate(1418.65625 0)"/>
      <use xlink:href="#DejaVuSans-29" transform="translate(1495.658203 0)"/>
      <use xlink:href="#DejaVuSans-20" transform="translate(1534.671875 0)"/>
      <use xlink:href="#DejaVuSans-70" transform="translate(1566.458984 0)"/>
      <use xlink:href="#DejaVuSans-72" transform="translate(1629.935547 0)"/>
      <use xlink:href="#DejaVuSans-6f" transform="translate(1668.798828 0)"/>
      <use xlink:href="#DejaVuSans-74" transform="translate(1729.980469 0)"/>
      <use xlink:href="#DejaVuSans-6f" transform="translate(1769.189453 0)"/>
      <use xlink:href="#DejaVuSans-74" transform="translate(1830.371094 0)"/>
      <use xlink:href="#DejaVuSans-79" transform="translate(1869.580078 0)"/>
      <use xlink:href="#DejaVuSans-70" transform="translate(1928.759766 0)"/>
      <use xlink:href="#DejaVuSans-65" transform="translate(1992.236328 0)"/>
     </g>
    </g>
   </g>
  </g>
  <g id="text_28">
   <!-- Depressive disorder (MDD/DD) (female) -->
   <g transform="translate(199.234844 17.837812) scale(0.14 -0.14)">
    <use xlink:href="#DejaVuSans-44"/>
    <use xlink:href="#DejaVuSans-65" transform="translate(77.001953 0)"/>
    <use xlink:href="#DejaVuSans-70" transform="translate(138.525391 0)"/>
    <use xlink:href="#DejaVuSans-72" transform="translate(202.001953 0)"/>
    <use xlink:href="#DejaVuSans-65" transform="translate(240.865234 0)"/>
    <use xlink:href="#DejaVuSans-73" transform="translate(302.388672 0)"/>
    <use xlink:href="#DejaVuSans-73" transform="translate(354.488281 0)"/>
    <use xlink:href="#DejaVuSans-69" transform="translate(406.587891 0)"/>
    <use xlink:href="#DejaVuSans-76" transform="translate(434.371094 0)"/>
    <use xlink:href="#DejaVuSans-65" transform="translate(493.550781 0)"/>
    <use xlink:href="#DejaVuSans-20" transform="translate(555.074219 0)"/>
    <use xlink:href="#DejaVuSans-64" transform="translate(586.861328 0)"/>
    <use xlink:href="#DejaVuSans-69" transform="translate(650.337891 0)"/>
    <use xlink:href="#DejaVuSans-73" transform="translate(678.121094 0)"/>
    <use xlink:href="#DejaVuSans-6f" transform="translate(730.220703 0)"/>
    <use xlink:href="#DejaVuSans-72" transform="translate(791.402344 0)"/>
    <use xlink:href="#DejaVuSans-64" transform="translate(830.765625 0)"/>
    <use xlink:href="#DejaVuSans-65" transform="translate(894.242188 0)"/>
    <use xlink:href="#DejaVuSans-72" transform="translate(955.765625 0)"/>
    <use xlink:href="#DejaVuSans-20" transform="translate(996.878906 0)"/>
    <use xlink:href="#DejaVuSans-28" transform="translate(1028.666016 0)"/>
    <use xlink:href="#DejaVuSans-4d" transform="translate(1067.679688 0)"/>
    <use xlink:href="#DejaVuSans-44" transform="translate(1153.958984 0)"/>
    <use xlink:href="#DejaVuSans-44" transform="translate(1230.960938 0)"/>
    <use xlink:href="#DejaVuSans-2f" transform="translate(1307.962891 0)"/>
    <use xlink:href="#DejaVuSans-44" transform="translate(1341.654297 0)"/>
    <use xlink:href="#DejaVuSans-44" transform="translate(1418.65625 0)"/>
    <use xlink:href="#DejaVuSans-29" transform="translate(1495.658203 0)"/>
    <use xlink:href="#DejaVuSans-20" transform="translate(1534.671875 0)"/>
    <use xlink:href="#DejaVuSans-28" transform="translate(1566.458984 0)"/>
    <use xlink:href="#DejaVuSans-66" transform="translate(1605.472656 0)"/>
    <use xlink:href="#DejaVuSans-65" transform="translate(1640.677734 0)"/>
    <use xlink:href="#DejaVuSans-6d" transform="translate(1702.201172 0)"/>
    <use xlink:href="#DejaVuSans-61" transform="translate(1799.613281 0)"/>
    <use xlink:href="#DejaVuSans-6c" transform="translate(1860.892578 0)"/>
    <use xlink:href="#DejaVuSans-65" transform="translate(1888.675781 0)"/>
    <use xlink:href="#DejaVuSans-29" transform="translate(1950.199219 0)"/>
   </g>
  </g>
 </g>
 <defs>
  <clipPath id="pd391572d07">
   <rect x="43.81125" y="34.56" width="124.517843" height="304.046376"/>
  </clipPath>
  <clipPath id="p6722864b86">
   <rect x="294.487328" y="34.56" width="124.517843" height="304.046376"/>
  </clipPath>
  <clipPath id="pac39ae77a7">
   <rect x="545.163407" y="34.56" width="124.517843" height="304.046376"/>
  </clipPath>
 </defs>
</svg>
