<?xml version="1.0" encoding="utf-8" standalone="no"?>
<!DOCTYPE svg PUBLIC "-//W3C//DTD SVG 1.1//EN"
  "http://www.w3.org/Graphics/SVG/1.1/DTD/svg11.dtd">
<svg xmlns:xlink="http://www.w3.org/1999/xlink" width="676.88125pt" height="391.52407pt" viewBox="0 0 676.88125 391.52407" xmlns="http://www.w3.org/2000/svg" version="1.1">
 <metadata>
  <rdf:RDF xmlns:dc="http://purl.org/dc/elements/1.1/" xmlns:cc="http://creativecommons.org/ns#" xmlns:rdf="http://www.w3.org/1999/02/22-rdf-syntax-ns#">
   <cc:Work>
    <dc:type rdf:resource="http://purl.org/dc/dcmitype/StillImage"/>
    <dc:date>2026-06-14T19:05:07.782974</dc:date>
    <dc:format>image/svg+xml</dc:format>
    <dc:creator>
     <cc:Agent>
      <dc:title>Matplotlib v3.10.1, https://matplotlib.org/</dc:title>
     </cc:Agent>
    </dc:creator>
   </cc:Work>
  </rdf:RDF>
 </metadata>
 <defs>
  <style type="text/css">*{stroke-linejoin: round; stroke-linecap: butt}</style>
 </defs>
 <g id="figure_1">
  <g id="patch_1">
   <path d="M 0 391.52407 
L 676.88125 391.52407 
L 676.88125 0 
L 0 0 
z
" style="fill: #ffffff"/>
  </g>
  <g id="axes_1">
   <g id="patch_2">
    <path d="M 43.81125 338.606376 
L 168.329093 338.606376 
L 168.329093 34.56 
L 43.81125 34.56 
z
" style="fill: #ffffff"/>
   </g>
   <g id="matplotlib.axis_1">
    <g id="xtick_1">
     <g id="line2d_1">
      <path d="M 106.070172 338.606376 
L 106.070172 34.56 
" clip-path="url(#p211c07e77a)" style="fill: none; stroke: #b0b0b0; stroke-opacity: 0.2; stroke-width: 0.6; stroke-linecap: square"/>
     </g>
     <g id="line2d_2">
      <defs>
       <path id="mf1e0653ccc" d="M 0 0 
L 0 3.5 
" style="stroke: #000000; stroke-width: 0.8"/>
      </defs>
      <g>
       <use xlink:href="#mf1e0653ccc" x="106.070172" y="338.606376" style="stroke: #000000; stroke-width: 0.8"/>
      </g>
     </g>
     <g id="text_1">
      <!-- Pitch variability -->
      <g transform="translate(23.554593 375.631189) rotate(-15) scale(0.11 -0.11)">
       <defs>
        <path id="DejaVuSans-50" d="M 1259 4147 
L 1259 2394 
L 2053 2394 
Q 2494 2394 2734 2622 
Q 2975 2850 2975 3272 
Q 2975 3691 2734 3919 
Q 2494 4147 2053 4147 
L 1259 4147 
z
M 628 4666 
L 2053 4666 
Q 2838 4666 3239 4311 
Q 3641 3956 3641 3272 
Q 3641 2581 3239 2228 
Q 2838 1875 2053 1875 
L 1259 1875 
L 1259 0 
L 628 0 
L 628 4666 
z
" transform="scale(0.015625)"/>
        <path id="DejaVuSans-69" d="M 603 3500 
L 1178 3500 
L 1178 0 
L 603 0 
L 603 3500 
z
M 603 4863 
L 1178 4863 
L 1178 4134 
L 603 4134 
L 603 4863 
z
" transform="scale(0.015625)"/>
        <path id="DejaVuSans-74" d="M 1172 4494 
L 1172 3500 
L 2356 3500 
L 2356 3053 
L 1172 3053 
L 1172 1153 
Q 1172 725 1289 603 
Q 1406 481 1766 481 
L 2356 481 
L 2356 0 
L 1766 0 
Q 1100 0 847 248 
Q 594 497 594 1153 
L 594 3053 
L 172 3053 
L 172 3500 
L 594 3500 
L 594 4494 
L 1172 4494 
z
" transform="scale(0.015625)"/>
        <path id="DejaVuSans-63" d="M 3122 3366 
L 3122 2828 
Q 2878 2963 2633 3030 
Q 2388 3097 2138 3097 
Q 1578 3097 1268 2742 
Q 959 2388 959 1747 
Q 959 1106 1268 751 
Q 1578 397 2138 397 
Q 2388 397 2633 464 
Q 2878 531 3122 666 
L 3122 134 
Q 2881 22 2623 -34 
Q 2366 -91 2075 -91 
Q 1284 -91 818 406 
Q 353 903 353 1747 
Q 353 2603 823 3093 
Q 1294 3584 2113 3584 
Q 2378 3584 2631 3529 
Q 2884 3475 3122 3366 
z
" transform="scale(0.015625)"/>
        <path id="DejaVuSans-68" d="M 3513 2113 
L 3513 0 
L 2938 0 
L 2938 2094 
Q 2938 2591 2744 2837 
Q 2550 3084 2163 3084 
Q 1697 3084 1428 2787 
Q 1159 2491 1159 1978 
L 1159 0 
L 581 0 
L 581 4863 
L 1159 4863 
L 1159 2956 
Q 1366 3272 1645 3428 
Q 1925 3584 2291 3584 
Q 2894 3584 3203 3211 
Q 3513 2838 3513 2113 
z
" transform="scale(0.015625)"/>
        <path id="DejaVuSans-20" transform="scale(0.015625)"/>
        <path id="DejaVuSans-76" d="M 191 3500 
L 800 3500 
L 1894 563 
L 2988 3500 
L 3597 3500 
L 2284 0 
L 1503 0 
L 191 3500 
z
" transform="scale(0.015625)"/>
        <path id="DejaVuSans-61" d="M 2194 1759 
Q 1497 1759 1228 1600 
Q 959 1441 959 1056 
Q 959 750 1161 570 
Q 1363 391 1709 391 
Q 2188 391 2477 730 
Q 2766 1069 2766 1631 
L 2766 1759 
L 2194 1759 
z
M 3341 1997 
L 3341 0 
L 2766 0 
L 2766 531 
Q 2569 213 2275 61 
Q 1981 -91 1556 -91 
Q 1019 -91 701 211 
Q 384 513 384 1019 
Q 384 1609 779 1909 
Q 1175 2209 1959 2209 
L 2766 2209 
L 2766 2266 
Q 2766 2663 2505 2880 
Q 2244 3097 1772 3097 
Q 1472 3097 1187 3025 
Q 903 2953 641 2809 
L 641 3341 
Q 956 3463 1253 3523 
Q 1550 3584 1831 3584 
Q 2591 3584 2966 3190 
Q 3341 2797 3341 1997 
z
" transform="scale(0.015625)"/>
        <path id="DejaVuSans-72" d="M 2631 2963 
Q 2534 3019 2420 3045 
Q 2306 3072 2169 3072 
Q 1681 3072 1420 2755 
Q 1159 2438 1159 1844 
L 1159 0 
L 581 0 
L 581 3500 
L 1159 3500 
L 1159 2956 
Q 1341 3275 1631 3429 
Q 1922 3584 2338 3584 
Q 2397 3584 2469 3576 
Q 2541 3569 2628 3553 
L 2631 2963 
z
" transform="scale(0.015625)"/>
        <path id="DejaVuSans-62" d="M 3116 1747 
Q 3116 2381 2855 2742 
Q 2594 3103 2138 3103 
Q 1681 3103 1420 2742 
Q 1159 2381 1159 1747 
Q 1159 1113 1420 752 
Q 1681 391 2138 391 
Q 2594 391 2855 752 
Q 3116 1113 3116 1747 
z
M 1159 2969 
Q 1341 3281 1617 3432 
Q 1894 3584 2278 3584 
Q 2916 3584 3314 3078 
Q 3713 2572 3713 1747 
Q 3713 922 3314 415 
Q 2916 -91 2278 -91 
Q 1894 -91 1617 61 
Q 1341 213 1159 525 
L 1159 0 
L 581 0 
L 581 4863 
L 1159 4863 
L 1159 2969 
z
" transform="scale(0.015625)"/>
        <path id="DejaVuSans-6c" d="M 603 4863 
L 1178 4863 
L 1178 0 
L 603 0 
L 603 4863 
z
" transform="scale(0.015625)"/>
        <path id="DejaVuSans-79" d="M 2059 -325 
Q 1816 -950 1584 -1140 
Q 1353 -1331 966 -1331 
L 506 -1331 
L 506 -850 
L 844 -850 
Q 1081 -850 1212 -737 
Q 1344 -625 1503 -206 
L 1606 56 
L 191 3500 
L 800 3500 
L 1894 763 
L 2988 3500 
L 3597 3500 
L 2059 -325 
z
" transform="scale(0.015625)"/>
       </defs>
       <use xlink:href="#DejaVuSans-50"/>
       <use xlink:href="#DejaVuSans-69" transform="translate(58.052734 0)"/>
       <use xlink:href="#DejaVuSans-74" transform="translate(85.835938 0)"/>
       <use xlink:href="#DejaVuSans-63" transform="translate(125.044922 0)"/>
       <use xlink:href="#DejaVuSans-68" transform="translate(180.025391 0)"/>
       <use xlink:href="#DejaVuSans-20" transform="translate(243.404297 0)"/>
       <use xlink:href="#DejaVuSans-76" transform="translate(275.191406 0)"/>
       <use xlink:href="#DejaVuSans-61" transform="translate(334.371094 0)"/>
       <use xlink:href="#DejaVuSans-72" transform="translate(395.650391 0)"/>
       <use xlink:href="#DejaVuSans-69" transform="translate(436.763672 0)"/>
       <use xlink:href="#DejaVuSans-61" transform="translate(464.546875 0)"/>
       <use xlink:href="#DejaVuSans-62" transform="translate(525.826172 0)"/>
       <use xlink:href="#DejaVuSans-69" transform="translate(589.302734 0)"/>
       <use xlink:href="#DejaVuSans-6c" transform="translate(617.085938 0)"/>
       <use xlink:href="#DejaVuSans-69" transform="translate(644.869141 0)"/>
       <use xlink:href="#DejaVuSans-74" transform="translate(672.652344 0)"/>
       <use xlink:href="#DejaVuSans-79" transform="translate(711.861328 0)"/>
      </g>
     </g>
    </g>
   </g>
   <g id="matplotlib.axis_2">
    <g id="ytick_1">
     <g id="line2d_3">
      <path d="M 43.81125 296.395647 
L 168.329093 296.395647 
" clip-path="url(#p211c07e77a)" style="fill: none; stroke: #b0b0b0; stroke-opacity: 0.2; stroke-width: 0.6; stroke-linecap: square"/>
     </g>
     <g id="line2d_4">
      <defs>
       <path id="m70846f48b9" d="M 0 0 
L -3.5 0 
" style="stroke: #000000; stroke-width: 0.8"/>
      </defs>
      <g>
       <use xlink:href="#m70846f48b9" x="43.81125" y="296.395647" style="stroke: #000000; stroke-width: 0.8"/>
      </g>
     </g>
     <g id="text_2">
      <!-- 4 -->
      <g transform="translate(29.8125 300.574787) scale(0.11 -0.11)">
       <defs>
        <path id="DejaVuSans-34" d="M 2419 4116 
L 825 1625 
L 2419 1625 
L 2419 4116 
z
M 2253 4666 
L 3047 4666 
L 3047 1625 
L 3713 1625 
L 3713 1100 
L 3047 1100 
L 3047 0 
L 2419 0 
L 2419 1100 
L 313 1100 
L 313 1709 
L 2253 4666 
z
" transform="scale(0.015625)"/>
       </defs>
       <use xlink:href="#DejaVuSans-34"/>
      </g>
     </g>
    </g>
    <g id="ytick_2">
     <g id="line2d_5">
      <path d="M 43.81125 243.430852 
L 168.329093 243.430852 
" clip-path="url(#p211c07e77a)" style="fill: none; stroke: #b0b0b0; stroke-opacity: 0.2; stroke-width: 0.6; stroke-linecap: square"/>
     </g>
     <g id="line2d_6">
      <g>
       <use xlink:href="#m70846f48b9" x="43.81125" y="243.430852" style="stroke: #000000; stroke-width: 0.8"/>
      </g>
     </g>
     <g id="text_3">
      <!-- 6 -->
      <g transform="translate(29.8125 247.609993) scale(0.11 -0.11)">
       <defs>
        <path id="DejaVuSans-36" d="M 2113 2584 
Q 1688 2584 1439 2293 
Q 1191 2003 1191 1497 
Q 1191 994 1439 701 
Q 1688 409 2113 409 
Q 2538 409 2786 701 
Q 3034 994 3034 1497 
Q 3034 2003 2786 2293 
Q 2538 2584 2113 2584 
z
M 3366 4563 
L 3366 3988 
Q 3128 4100 2886 4159 
Q 2644 4219 2406 4219 
Q 1781 4219 1451 3797 
Q 1122 3375 1075 2522 
Q 1259 2794 1537 2939 
Q 1816 3084 2150 3084 
Q 2853 3084 3261 2657 
Q 3669 2231 3669 1497 
Q 3669 778 3244 343 
Q 2819 -91 2113 -91 
Q 1303 -91 875 529 
Q 447 1150 447 2328 
Q 447 3434 972 4092 
Q 1497 4750 2381 4750 
Q 2619 4750 2861 4703 
Q 3103 4656 3366 4563 
z
" transform="scale(0.015625)"/>
       </defs>
       <use xlink:href="#DejaVuSans-36"/>
      </g>
     </g>
    </g>
    <g id="ytick_3">
     <g id="line2d_7">
      <path d="M 43.81125 190.466057 
L 168.329093 190.466057 
" clip-path="url(#p211c07e77a)" style="fill: none; stroke: #b0b0b0; stroke-opacity: 0.2; stroke-width: 0.6; stroke-linecap: square"/>
     </g>
     <g id="line2d_8">
      <g>
       <use xlink:href="#m70846f48b9" x="43.81125" y="190.466057" style="stroke: #000000; stroke-width: 0.8"/>
      </g>
     </g>
     <g id="text_4">
      <!-- 8 -->
      <g transform="translate(29.8125 194.645198) scale(0.11 -0.11)">
       <defs>
        <path id="DejaVuSans-38" d="M 2034 2216 
Q 1584 2216 1326 1975 
Q 1069 1734 1069 1313 
Q 1069 891 1326 650 
Q 1584 409 2034 409 
Q 2484 409 2743 651 
Q 3003 894 3003 1313 
Q 3003 1734 2745 1975 
Q 2488 2216 2034 2216 
z
M 1403 2484 
Q 997 2584 770 2862 
Q 544 3141 544 3541 
Q 544 4100 942 4425 
Q 1341 4750 2034 4750 
Q 2731 4750 3128 4425 
Q 3525 4100 3525 3541 
Q 3525 3141 3298 2862 
Q 3072 2584 2669 2484 
Q 3125 2378 3379 2068 
Q 3634 1759 3634 1313 
Q 3634 634 3220 271 
Q 2806 -91 2034 -91 
Q 1263 -91 848 271 
Q 434 634 434 1313 
Q 434 1759 690 2068 
Q 947 2378 1403 2484 
z
M 1172 3481 
Q 1172 3119 1398 2916 
Q 1625 2713 2034 2713 
Q 2441 2713 2670 2916 
Q 2900 3119 2900 3481 
Q 2900 3844 2670 4047 
Q 2441 4250 2034 4250 
Q 1625 4250 1398 4047 
Q 1172 3844 1172 3481 
z
" transform="scale(0.015625)"/>
       </defs>
       <use xlink:href="#DejaVuSans-38"/>
      </g>
     </g>
    </g>
    <g id="ytick_4">
     <g id="line2d_9">
      <path d="M 43.81125 137.501263 
L 168.329093 137.501263 
" clip-path="url(#p211c07e77a)" style="fill: none; stroke: #b0b0b0; stroke-opacity: 0.2; stroke-width: 0.6; stroke-linecap: square"/>
     </g>
     <g id="line2d_10">
      <g>
       <use xlink:href="#m70846f48b9" x="43.81125" y="137.501263" style="stroke: #000000; stroke-width: 0.8"/>
      </g>
     </g>
     <g id="text_5">
      <!-- 10 -->
      <g transform="translate(22.81375 141.680404) scale(0.11 -0.11)">
       <defs>
        <path id="DejaVuSans-31" d="M 794 531 
L 1825 531 
L 1825 4091 
L 703 3866 
L 703 4441 
L 1819 4666 
L 2450 4666 
L 2450 531 
L 3481 531 
L 3481 0 
L 794 0 
L 794 531 
z
" transform="scale(0.015625)"/>
        <path id="DejaVuSans-30" d="M 2034 4250 
Q 1547 4250 1301 3770 
Q 1056 3291 1056 2328 
Q 1056 1369 1301 889 
Q 1547 409 2034 409 
Q 2525 409 2770 889 
Q 3016 1369 3016 2328 
Q 3016 3291 2770 3770 
Q 2525 4250 2034 4250 
z
M 2034 4750 
Q 2819 4750 3233 4129 
Q 3647 3509 3647 2328 
Q 3647 1150 3233 529 
Q 2819 -91 2034 -91 
Q 1250 -91 836 529 
Q 422 1150 422 2328 
Q 422 3509 836 4129 
Q 1250 4750 2034 4750 
z
" transform="scale(0.015625)"/>
       </defs>
       <use xlink:href="#DejaVuSans-31"/>
       <use xlink:href="#DejaVuSans-30" transform="translate(63.623047 0)"/>
      </g>
     </g>
    </g>
    <g id="ytick_5">
     <g id="line2d_11">
      <path d="M 43.81125 84.536468 
L 168.329093 84.536468 
" clip-path="url(#p211c07e77a)" style="fill: none; stroke: #b0b0b0; stroke-opacity: 0.2; stroke-width: 0.6; stroke-linecap: square"/>
     </g>
     <g id="line2d_12">
      <g>
       <use xlink:href="#m70846f48b9" x="43.81125" y="84.536468" style="stroke: #000000; stroke-width: 0.8"/>
      </g>
     </g>
     <g id="text_6">
      <!-- 12 -->
      <g transform="translate(22.81375 88.715609) scale(0.11 -0.11)">
       <defs>
        <path id="DejaVuSans-32" d="M 1228 531 
L 3431 531 
L 3431 0 
L 469 0 
L 469 531 
Q 828 903 1448 1529 
Q 2069 2156 2228 2338 
Q 2531 2678 2651 2914 
Q 2772 3150 2772 3378 
Q 2772 3750 2511 3984 
Q 2250 4219 1831 4219 
Q 1534 4219 1204 4116 
Q 875 4013 500 3803 
L 500 4441 
Q 881 4594 1212 4672 
Q 1544 4750 1819 4750 
Q 2544 4750 2975 4387 
Q 3406 4025 3406 3419 
Q 3406 3131 3298 2873 
Q 3191 2616 2906 2266 
Q 2828 2175 2409 1742 
Q 1991 1309 1228 531 
z
" transform="scale(0.015625)"/>
       </defs>
       <use xlink:href="#DejaVuSans-31"/>
       <use xlink:href="#DejaVuSans-32" transform="translate(63.623047 0)"/>
      </g>
     </g>
    </g>
    <g id="text_7">
     <!-- semitones -->
     <g transform="translate(16.318125 217.555376) rotate(-90) scale(0.12 -0.12)">
      <defs>
       <path id="DejaVuSans-73" d="M 2834 3397 
L 2834 2853 
Q 2591 2978 2328 3040 
Q 2066 3103 1784 3103 
Q 1356 3103 1142 2972 
Q 928 2841 928 2578 
Q 928 2378 1081 2264 
Q 1234 2150 1697 2047 
L 1894 2003 
Q 2506 1872 2764 1633 
Q 3022 1394 3022 966 
Q 3022 478 2636 193 
Q 2250 -91 1575 -91 
Q 1294 -91 989 -36 
Q 684 19 347 128 
L 347 722 
Q 666 556 975 473 
Q 1284 391 1588 391 
Q 1994 391 2212 530 
Q 2431 669 2431 922 
Q 2431 1156 2273 1281 
Q 2116 1406 1581 1522 
L 1381 1569 
Q 847 1681 609 1914 
Q 372 2147 372 2553 
Q 372 3047 722 3315 
Q 1072 3584 1716 3584 
Q 2034 3584 2315 3537 
Q 2597 3491 2834 3397 
z
" transform="scale(0.015625)"/>
       <path id="DejaVuSans-65" d="M 3597 1894 
L 3597 1613 
L 953 1613 
Q 991 1019 1311 708 
Q 1631 397 2203 397 
Q 2534 397 2845 478 
Q 3156 559 3463 722 
L 3463 178 
Q 3153 47 2828 -22 
Q 2503 -91 2169 -91 
Q 1331 -91 842 396 
Q 353 884 353 1716 
Q 353 2575 817 3079 
Q 1281 3584 2069 3584 
Q 2775 3584 3186 3129 
Q 3597 2675 3597 1894 
z
M 3022 2063 
Q 3016 2534 2758 2815 
Q 2500 3097 2075 3097 
Q 1594 3097 1305 2825 
Q 1016 2553 972 2059 
L 3022 2063 
z
" transform="scale(0.015625)"/>
       <path id="DejaVuSans-6d" d="M 3328 2828 
Q 3544 3216 3844 3400 
Q 4144 3584 4550 3584 
Q 5097 3584 5394 3201 
Q 5691 2819 5691 2113 
L 5691 0 
L 5113 0 
L 5113 2094 
Q 5113 2597 4934 2840 
Q 4756 3084 4391 3084 
Q 3944 3084 3684 2787 
Q 3425 2491 3425 1978 
L 3425 0 
L 2847 0 
L 2847 2094 
Q 2847 2600 2669 2842 
Q 2491 3084 2119 3084 
Q 1678 3084 1418 2786 
Q 1159 2488 1159 1978 
L 1159 0 
L 581 0 
L 581 3500 
L 1159 3500 
L 1159 2956 
Q 1356 3278 1631 3431 
Q 1906 3584 2284 3584 
Q 2666 3584 2933 3390 
Q 3200 3197 3328 2828 
z
" transform="scale(0.015625)"/>
       <path id="DejaVuSans-6f" d="M 1959 3097 
Q 1497 3097 1228 2736 
Q 959 2375 959 1747 
Q 959 1119 1226 758 
Q 1494 397 1959 397 
Q 2419 397 2687 759 
Q 2956 1122 2956 1747 
Q 2956 2369 2687 2733 
Q 2419 3097 1959 3097 
z
M 1959 3584 
Q 2709 3584 3137 3096 
Q 3566 2609 3566 1747 
Q 3566 888 3137 398 
Q 2709 -91 1959 -91 
Q 1206 -91 779 398 
Q 353 888 353 1747 
Q 353 2609 779 3096 
Q 1206 3584 1959 3584 
z
" transform="scale(0.015625)"/>
       <path id="DejaVuSans-6e" d="M 3513 2113 
L 3513 0 
L 2938 0 
L 2938 2094 
Q 2938 2591 2744 2837 
Q 2550 3084 2163 3084 
Q 1697 3084 1428 2787 
Q 1159 2491 1159 1978 
L 1159 0 
L 581 0 
L 581 3500 
L 1159 3500 
L 1159 2956 
Q 1366 3272 1645 3428 
Q 1925 3584 2291 3584 
Q 2894 3584 3203 3211 
Q 3513 2838 3513 2113 
z
" transform="scale(0.015625)"/>
      </defs>
      <use xlink:href="#DejaVuSans-73"/>
      <use xlink:href="#DejaVuSans-65" transform="translate(52.099609 0)"/>
      <use xlink:href="#DejaVuSans-6d" transform="translate(113.623047 0)"/>
      <use xlink:href="#DejaVuSans-69" transform="translate(211.035156 0)"/>
      <use xlink:href="#DejaVuSans-74" transform="translate(238.818359 0)"/>
      <use xlink:href="#DejaVuSans-6f" transform="translate(278.027344 0)"/>
      <use xlink:href="#DejaVuSans-6e" transform="translate(339.208984 0)"/>
      <use xlink:href="#DejaVuSans-65" transform="translate(402.587891 0)"/>
      <use xlink:href="#DejaVuSans-73" transform="translate(464.111328 0)"/>
     </g>
    </g>
   </g>
   <g id="FillBetweenPolyCollection_1">
    <defs>
     <path id="mcec3c6cfe1" d="M 142.999637 -66.737983 
L 69.140706 -66.737983 
L 67.523945 -69.529961 
L 65.952019 -72.321939 
L 64.432562 -75.113916 
L 62.972506 -77.905894 
L 61.57799 -80.697872 
L 60.254285 -83.48985 
L 59.005739 -86.281827 
L 57.835747 -89.073805 
L 56.74674 -91.865783 
L 55.7402 -94.657761 
L 54.816699 -97.449738 
L 53.975948 -100.241716 
L 53.21688 -103.033694 
L 52.537732 -105.825672 
L 51.936154 -108.617649 
L 51.409312 -111.409627 
L 50.954013 -114.201605 
L 50.566811 -116.993583 
L 50.244132 -119.78556 
L 49.982375 -122.577538 
L 49.778015 -125.369516 
L 49.627689 -128.161493 
L 49.528271 -130.953471 
L 49.476925 -133.745449 
L 49.471152 -136.537427 
L 49.508806 -139.329404 
L 49.588106 -142.121382 
L 49.707622 -144.91336 
L 49.86625 -147.705338 
L 50.063177 -150.497315 
L 50.297827 -153.289293 
L 50.56981 -156.081271 
L 50.878852 -158.873249 
L 51.224738 -161.665226 
L 51.607238 -164.457204 
L 52.026052 -167.249182 
L 52.480749 -170.04116 
L 52.970718 -172.833137 
L 53.495126 -175.625115 
L 54.052888 -178.417093 
L 54.64265 -181.209071 
L 55.262775 -184.001048 
L 55.911352 -186.793026 
L 56.586204 -189.585004 
L 57.284917 -192.376982 
L 58.004871 -195.168959 
L 58.743274 -197.960937 
L 59.497212 -200.752915 
L 60.263694 -203.544893 
L 61.0397 -206.33687 
L 61.82223 -209.128848 
L 62.608352 -211.920826 
L 63.395242 -214.712804 
L 64.180222 -217.504781 
L 64.960794 -220.296759 
L 65.734667 -223.088737 
L 66.499769 -225.880714 
L 67.254267 -228.672692 
L 67.996567 -231.46467 
L 68.725319 -234.256648 
L 69.439406 -237.048625 
L 70.137937 -239.840603 
L 70.820233 -242.632581 
L 71.485815 -245.424559 
L 72.134385 -248.216536 
L 72.765807 -251.008514 
L 73.380101 -253.800492 
L 73.97742 -256.59247 
L 74.558043 -259.384447 
L 75.122367 -262.176425 
L 75.670899 -264.968403 
L 76.204256 -267.760381 
L 76.723159 -270.552358 
L 77.228441 -273.344336 
L 77.721041 -276.136314 
L 78.202016 -278.928292 
L 78.672538 -281.720269 
L 79.133896 -284.512247 
L 79.587499 -287.304225 
L 80.034869 -290.096203 
L 80.477636 -292.88818 
L 80.917527 -295.680158 
L 81.356354 -298.472136 
L 81.795989 -301.264114 
L 82.238343 -304.056091 
L 82.68534 -306.848069 
L 83.138878 -309.640047 
L 83.600801 -312.432025 
L 84.072858 -315.224002 
L 84.556664 -318.01598 
L 85.053661 -320.807958 
L 85.565083 -323.599936 
L 86.091917 -326.391913 
L 86.634874 -329.183891 
L 87.194362 -331.975869 
L 87.770462 -334.767846 
L 88.362915 -337.559824 
L 88.971116 -340.351802 
L 89.594114 -343.14378 
L 122.546229 -343.14378 
L 122.546229 -343.14378 
L 123.169227 -340.351802 
L 123.777428 -337.559824 
L 124.369881 -334.767846 
L 124.945981 -331.975869 
L 125.505469 -329.183891 
L 126.048426 -326.391913 
L 126.575261 -323.599936 
L 127.086682 -320.807958 
L 127.583679 -318.01598 
L 128.067485 -315.224002 
L 128.539542 -312.432025 
L 129.001465 -309.640047 
L 129.455004 -306.848069 
L 129.902 -304.056091 
L 130.344354 -301.264114 
L 130.783989 -298.472136 
L 131.222816 -295.680158 
L 131.662708 -292.88818 
L 132.105474 -290.096203 
L 132.552844 -287.304225 
L 133.006447 -284.512247 
L 133.467805 -281.720269 
L 133.938327 -278.928292 
L 134.419302 -276.136314 
L 134.911903 -273.344336 
L 135.417184 -270.552358 
L 135.936087 -267.760381 
L 136.469444 -264.968403 
L 137.017976 -262.176425 
L 137.5823 -259.384447 
L 138.162923 -256.59247 
L 138.760242 -253.800492 
L 139.374536 -251.008514 
L 140.005959 -248.216536 
L 140.654528 -245.424559 
L 141.32011 -242.632581 
L 142.002406 -239.840603 
L 142.700937 -237.048625 
L 143.415024 -234.256648 
L 144.143776 -231.46467 
L 144.886077 -228.672692 
L 145.640574 -225.880714 
L 146.405676 -223.088737 
L 147.179549 -220.296759 
L 147.960122 -217.504781 
L 148.745102 -214.712804 
L 149.531991 -211.920826 
L 150.318113 -209.128848 
L 151.100643 -206.33687 
L 151.876649 -203.544893 
L 152.643131 -200.752915 
L 153.397069 -197.960937 
L 154.135472 -195.168959 
L 154.855426 -192.376982 
L 155.554139 -189.585004 
L 156.228992 -186.793026 
L 156.877568 -184.001048 
L 157.497693 -181.209071 
L 158.087455 -178.417093 
L 158.645217 -175.625115 
L 159.169625 -172.833137 
L 159.659594 -170.04116 
L 160.114291 -167.249182 
L 160.533105 -164.457204 
L 160.915605 -161.665226 
L 161.261491 -158.873249 
L 161.570533 -156.081271 
L 161.842516 -153.289293 
L 162.077166 -150.497315 
L 162.274093 -147.705338 
L 162.432721 -144.91336 
L 162.552237 -142.121382 
L 162.631537 -139.329404 
L 162.669191 -136.537427 
L 162.663418 -133.745449 
L 162.612073 -130.953471 
L 162.512654 -128.161493 
L 162.362329 -125.369516 
L 162.157969 -122.577538 
L 161.896211 -119.78556 
L 161.573532 -116.993583 
L 161.186331 -114.201605 
L 160.731031 -111.409627 
L 160.204189 -108.617649 
L 159.602611 -105.825672 
L 158.923464 -103.033694 
L 158.164395 -100.241716 
L 157.323645 -97.449738 
L 156.400143 -94.657761 
L 155.393603 -91.865783 
L 154.304596 -89.073805 
L 153.134604 -86.281827 
L 151.886058 -83.48985 
L 150.562353 -80.697872 
L 149.167837 -77.905894 
L 147.707781 -75.113916 
L 146.188324 -72.321939 
L 144.616398 -69.529961 
L 142.999637 -66.737983 
z
" style="stroke: #7c3aed; stroke-opacity: 0.35"/>
    </defs>
    <g clip-path="url(#p211c07e77a)">
     <use xlink:href="#mcec3c6cfe1" x="0" y="391.52407" style="fill: #7c3aed; fill-opacity: 0.35; stroke: #7c3aed; stroke-opacity: 0.35"/>
    </g>
   </g>
   <g id="LineCollection_1">
    <path d="M 77.770662 222.939363 
L 134.369681 222.939363 
" clip-path="url(#p211c07e77a)" style="fill: none; stroke: #7c3aed; stroke-width: 1.5"/>
   </g>
   <g id="patch_3">
    <path d="M 43.81125 338.606376 
L 43.81125 34.56 
" style="fill: none; stroke: #000000; stroke-width: 0.8; stroke-linejoin: miter; stroke-linecap: square"/>
   </g>
   <g id="patch_4">
    <path d="M 168.329093 338.606376 
L 168.329093 34.56 
" style="fill: none; stroke: #000000; stroke-width: 0.8; stroke-linejoin: miter; stroke-linecap: square"/>
   </g>
   <g id="patch_5">
    <path d="M 43.81125 338.606376 
L 168.329093 338.606376 
" style="fill: none; stroke: #000000; stroke-width: 0.8; stroke-linejoin: miter; stroke-linecap: square"/>
   </g>
   <g id="patch_6">
    <path d="M 43.81125 34.56 
L 168.329093 34.56 
" style="fill: none; stroke: #000000; stroke-width: 0.8; stroke-linejoin: miter; stroke-linecap: square"/>
   </g>
   <g id="PathCollection_1">
    <defs>
     <path id="m1f65896c44" d="M -0 4.472136 
L 4.472136 0 
L 0 -4.472136 
L -4.472136 -0 
z
" style="stroke: #111827"/>
    </defs>
    <g clip-path="url(#p211c07e77a)">
     <use xlink:href="#m1f65896c44" x="106.070172" y="233.011676" style="fill: #111827; stroke: #111827"/>
    </g>
   </g>
  </g>
  <g id="axes_2">
   <g id="patch_7">
    <path d="M 294.487328 338.606376 
L 419.005172 338.606376 
L 419.005172 34.56 
L 294.487328 34.56 
z
" style="fill: #ffffff"/>
   </g>
   <g id="matplotlib.axis_3">
    <g id="xtick_2">
     <g id="line2d_13">
      <path d="M 356.74625 338.606376 
L 356.74625 34.56 
" clip-path="url(#pe5be20745b)" style="fill: none; stroke: #b0b0b0; stroke-opacity: 0.2; stroke-width: 0.6; stroke-linecap: square"/>
     </g>
     <g id="line2d_14">
      <g>
       <use xlink:href="#mf1e0653ccc" x="356.74625" y="338.606376" style="stroke: #000000; stroke-width: 0.8"/>
      </g>
     </g>
     <g id="text_8">
      <!-- Loudness variability -->
      <g transform="translate(250.035135 382.114363) rotate(-15) scale(0.11 -0.11)">
       <defs>
        <path id="DejaVuSans-4c" d="M 628 4666 
L 1259 4666 
L 1259 531 
L 3531 531 
L 3531 0 
L 628 0 
L 628 4666 
z
" transform="scale(0.015625)"/>
        <path id="DejaVuSans-75" d="M 544 1381 
L 544 3500 
L 1119 3500 
L 1119 1403 
Q 1119 906 1312 657 
Q 1506 409 1894 409 
Q 2359 409 2629 706 
Q 2900 1003 2900 1516 
L 2900 3500 
L 3475 3500 
L 3475 0 
L 2900 0 
L 2900 538 
Q 2691 219 2414 64 
Q 2138 -91 1772 -91 
Q 1169 -91 856 284 
Q 544 659 544 1381 
z
M 1991 3584 
L 1991 3584 
z
" transform="scale(0.015625)"/>
        <path id="DejaVuSans-64" d="M 2906 2969 
L 2906 4863 
L 3481 4863 
L 3481 0 
L 2906 0 
L 2906 525 
Q 2725 213 2448 61 
Q 2172 -91 1784 -91 
Q 1150 -91 751 415 
Q 353 922 353 1747 
Q 353 2572 751 3078 
Q 1150 3584 1784 3584 
Q 2172 3584 2448 3432 
Q 2725 3281 2906 2969 
z
M 947 1747 
Q 947 1113 1208 752 
Q 1469 391 1925 391 
Q 2381 391 2643 752 
Q 2906 1113 2906 1747 
Q 2906 2381 2643 2742 
Q 2381 3103 1925 3103 
Q 1469 3103 1208 2742 
Q 947 2381 947 1747 
z
" transform="scale(0.015625)"/>
       </defs>
       <use xlink:href="#DejaVuSans-4c"/>
       <use xlink:href="#DejaVuSans-6f" transform="translate(53.962891 0)"/>
       <use xlink:href="#DejaVuSans-75" transform="translate(115.144531 0)"/>
       <use xlink:href="#DejaVuSans-64" transform="translate(178.523438 0)"/>
       <use xlink:href="#DejaVuSans-6e" transform="translate(242 0)"/>
       <use xlink:href="#DejaVuSans-65" transform="translate(305.378906 0)"/>
       <use xlink:href="#DejaVuSans-73" transform="translate(366.902344 0)"/>
       <use xlink:href="#DejaVuSans-73" transform="translate(419.001953 0)"/>
       <use xlink:href="#DejaVuSans-20" transform="translate(471.101562 0)"/>
       <use xlink:href="#DejaVuSans-76" transform="translate(502.888672 0)"/>
       <use xlink:href="#DejaVuSans-61" transform="translate(562.068359 0)"/>
       <use xlink:href="#DejaVuSans-72" transform="translate(623.347656 0)"/>
       <use xlink:href="#DejaVuSans-69" transform="translate(664.460938 0)"/>
       <use xlink:href="#DejaVuSans-61" transform="translate(692.244141 0)"/>
       <use xlink:href="#DejaVuSans-62" transform="translate(753.523438 0)"/>
       <use xlink:href="#DejaVuSans-69" transform="translate(817 0)"/>
       <use xlink:href="#DejaVuSans-6c" transform="translate(844.783203 0)"/>
       <use xlink:href="#DejaVuSans-69" transform="translate(872.566406 0)"/>
       <use xlink:href="#DejaVuSans-74" transform="translate(900.349609 0)"/>
       <use xlink:href="#DejaVuSans-79" transform="translate(939.558594 0)"/>
      </g>
     </g>
    </g>
   </g>
   <g id="matplotlib.axis_4">
    <g id="ytick_6">
     <g id="line2d_15">
      <path d="M 294.487328 310.96825 
L 419.005172 310.96825 
" clip-path="url(#pe5be20745b)" style="fill: none; stroke: #b0b0b0; stroke-opacity: 0.2; stroke-width: 0.6; stroke-linecap: square"/>
     </g>
     <g id="line2d_16">
      <g>
       <use xlink:href="#m70846f48b9" x="294.487328" y="310.96825" style="stroke: #000000; stroke-width: 0.8"/>
      </g>
     </g>
     <g id="text_9">
      <!-- 0.8 -->
      <g transform="translate(269.993891 315.14739) scale(0.11 -0.11)">
       <defs>
        <path id="DejaVuSans-2e" d="M 684 794 
L 1344 794 
L 1344 0 
L 684 0 
L 684 794 
z
" transform="scale(0.015625)"/>
       </defs>
       <use xlink:href="#DejaVuSans-30"/>
       <use xlink:href="#DejaVuSans-2e" transform="translate(63.623047 0)"/>
       <use xlink:href="#DejaVuSans-38" transform="translate(95.410156 0)"/>
      </g>
     </g>
    </g>
    <g id="ytick_7">
     <g id="line2d_17">
      <path d="M 294.487328 273.987159 
L 419.005172 273.987159 
" clip-path="url(#pe5be20745b)" style="fill: none; stroke: #b0b0b0; stroke-opacity: 0.2; stroke-width: 0.6; stroke-linecap: square"/>
     </g>
     <g id="line2d_18">
      <g>
       <use xlink:href="#m70846f48b9" x="294.487328" y="273.987159" style="stroke: #000000; stroke-width: 0.8"/>
      </g>
     </g>
     <g id="text_10">
      <!-- 0.9 -->
      <g transform="translate(269.993891 278.166299) scale(0.11 -0.11)">
       <defs>
        <path id="DejaVuSans-39" d="M 703 97 
L 703 672 
Q 941 559 1184 500 
Q 1428 441 1663 441 
Q 2288 441 2617 861 
Q 2947 1281 2994 2138 
Q 2813 1869 2534 1725 
Q 2256 1581 1919 1581 
Q 1219 1581 811 2004 
Q 403 2428 403 3163 
Q 403 3881 828 4315 
Q 1253 4750 1959 4750 
Q 2769 4750 3195 4129 
Q 3622 3509 3622 2328 
Q 3622 1225 3098 567 
Q 2575 -91 1691 -91 
Q 1453 -91 1209 -44 
Q 966 3 703 97 
z
M 1959 2075 
Q 2384 2075 2632 2365 
Q 2881 2656 2881 3163 
Q 2881 3666 2632 3958 
Q 2384 4250 1959 4250 
Q 1534 4250 1286 3958 
Q 1038 3666 1038 3163 
Q 1038 2656 1286 2365 
Q 1534 2075 1959 2075 
z
" transform="scale(0.015625)"/>
       </defs>
       <use xlink:href="#DejaVuSans-30"/>
       <use xlink:href="#DejaVuSans-2e" transform="translate(63.623047 0)"/>
       <use xlink:href="#DejaVuSans-39" transform="translate(95.410156 0)"/>
      </g>
     </g>
    </g>
    <g id="ytick_8">
     <g id="line2d_19">
      <path d="M 294.487328 237.006068 
L 419.005172 237.006068 
" clip-path="url(#pe5be20745b)" style="fill: none; stroke: #b0b0b0; stroke-opacity: 0.2; stroke-width: 0.6; stroke-linecap: square"/>
     </g>
     <g id="line2d_20">
      <g>
       <use xlink:href="#m70846f48b9" x="294.487328" y="237.006068" style="stroke: #000000; stroke-width: 0.8"/>
      </g>
     </g>
     <g id="text_11">
      <!-- 1.0 -->
      <g transform="translate(269.993891 241.185208) scale(0.11 -0.11)">
       <use xlink:href="#DejaVuSans-31"/>
       <use xlink:href="#DejaVuSans-2e" transform="translate(63.623047 0)"/>
       <use xlink:href="#DejaVuSans-30" transform="translate(95.410156 0)"/>
      </g>
     </g>
    </g>
    <g id="ytick_9">
     <g id="line2d_21">
      <path d="M 294.487328 200.024976 
L 419.005172 200.024976 
" clip-path="url(#pe5be20745b)" style="fill: none; stroke: #b0b0b0; stroke-opacity: 0.2; stroke-width: 0.6; stroke-linecap: square"/>
     </g>
     <g id="line2d_22">
      <g>
       <use xlink:href="#m70846f48b9" x="294.487328" y="200.024976" style="stroke: #000000; stroke-width: 0.8"/>
      </g>
     </g>
     <g id="text_12">
      <!-- 1.1 -->
      <g transform="translate(269.993891 204.204117) scale(0.11 -0.11)">
       <use xlink:href="#DejaVuSans-31"/>
       <use xlink:href="#DejaVuSans-2e" transform="translate(63.623047 0)"/>
       <use xlink:href="#DejaVuSans-31" transform="translate(95.410156 0)"/>
      </g>
     </g>
    </g>
    <g id="ytick_10">
     <g id="line2d_23">
      <path d="M 294.487328 163.043885 
L 419.005172 163.043885 
" clip-path="url(#pe5be20745b)" style="fill: none; stroke: #b0b0b0; stroke-opacity: 0.2; stroke-width: 0.6; stroke-linecap: square"/>
     </g>
     <g id="line2d_24">
      <g>
       <use xlink:href="#m70846f48b9" x="294.487328" y="163.043885" style="stroke: #000000; stroke-width: 0.8"/>
      </g>
     </g>
     <g id="text_13">
      <!-- 1.2 -->
      <g transform="translate(269.993891 167.223026) scale(0.11 -0.11)">
       <use xlink:href="#DejaVuSans-31"/>
       <use xlink:href="#DejaVuSans-2e" transform="translate(63.623047 0)"/>
       <use xlink:href="#DejaVuSans-32" transform="translate(95.410156 0)"/>
      </g>
     </g>
    </g>
    <g id="ytick_11">
     <g id="line2d_25">
      <path d="M 294.487328 126.062794 
L 419.005172 126.062794 
" clip-path="url(#pe5be20745b)" style="fill: none; stroke: #b0b0b0; stroke-opacity: 0.2; stroke-width: 0.6; stroke-linecap: square"/>
     </g>
     <g id="line2d_26">
      <g>
       <use xlink:href="#m70846f48b9" x="294.487328" y="126.062794" style="stroke: #000000; stroke-width: 0.8"/>
      </g>
     </g>
     <g id="text_14">
      <!-- 1.3 -->
      <g transform="translate(269.993891 130.241935) scale(0.11 -0.11)">
       <defs>
        <path id="DejaVuSans-33" d="M 2597 2516 
Q 3050 2419 3304 2112 
Q 3559 1806 3559 1356 
Q 3559 666 3084 287 
Q 2609 -91 1734 -91 
Q 1441 -91 1130 -33 
Q 819 25 488 141 
L 488 750 
Q 750 597 1062 519 
Q 1375 441 1716 441 
Q 2309 441 2620 675 
Q 2931 909 2931 1356 
Q 2931 1769 2642 2001 
Q 2353 2234 1838 2234 
L 1294 2234 
L 1294 2753 
L 1863 2753 
Q 2328 2753 2575 2939 
Q 2822 3125 2822 3475 
Q 2822 3834 2567 4026 
Q 2313 4219 1838 4219 
Q 1578 4219 1281 4162 
Q 984 4106 628 3988 
L 628 4550 
Q 988 4650 1302 4700 
Q 1616 4750 1894 4750 
Q 2613 4750 3031 4423 
Q 3450 4097 3450 3541 
Q 3450 3153 3228 2886 
Q 3006 2619 2597 2516 
z
" transform="scale(0.015625)"/>
       </defs>
       <use xlink:href="#DejaVuSans-31"/>
       <use xlink:href="#DejaVuSans-2e" transform="translate(63.623047 0)"/>
       <use xlink:href="#DejaVuSans-33" transform="translate(95.410156 0)"/>
      </g>
     </g>
    </g>
    <g id="ytick_12">
     <g id="line2d_27">
      <path d="M 294.487328 89.081703 
L 419.005172 89.081703 
" clip-path="url(#pe5be20745b)" style="fill: none; stroke: #b0b0b0; stroke-opacity: 0.2; stroke-width: 0.6; stroke-linecap: square"/>
     </g>
     <g id="line2d_28">
      <g>
       <use xlink:href="#m70846f48b9" x="294.487328" y="89.081703" style="stroke: #000000; stroke-width: 0.8"/>
      </g>
     </g>
     <g id="text_15">
      <!-- 1.4 -->
      <g transform="translate(269.993891 93.260844) scale(0.11 -0.11)">
       <use xlink:href="#DejaVuSans-31"/>
       <use xlink:href="#DejaVuSans-2e" transform="translate(63.623047 0)"/>
       <use xlink:href="#DejaVuSans-34" transform="translate(95.410156 0)"/>
      </g>
     </g>
    </g>
    <g id="ytick_13">
     <g id="line2d_29">
      <path d="M 294.487328 52.100612 
L 419.005172 52.100612 
" clip-path="url(#pe5be20745b)" style="fill: none; stroke: #b0b0b0; stroke-opacity: 0.2; stroke-width: 0.6; stroke-linecap: square"/>
     </g>
     <g id="line2d_30">
      <g>
       <use xlink:href="#m70846f48b9" x="294.487328" y="52.100612" style="stroke: #000000; stroke-width: 0.8"/>
      </g>
     </g>
     <g id="text_16">
      <!-- 1.5 -->
      <g transform="translate(269.993891 56.279753) scale(0.11 -0.11)">
       <defs>
        <path id="DejaVuSans-35" d="M 691 4666 
L 3169 4666 
L 3169 4134 
L 1269 4134 
L 1269 2991 
Q 1406 3038 1543 3061 
Q 1681 3084 1819 3084 
Q 2600 3084 3056 2656 
Q 3513 2228 3513 1497 
Q 3513 744 3044 326 
Q 2575 -91 1722 -91 
Q 1428 -91 1123 -41 
Q 819 9 494 109 
L 494 744 
Q 775 591 1075 516 
Q 1375 441 1709 441 
Q 2250 441 2565 725 
Q 2881 1009 2881 1497 
Q 2881 1984 2565 2268 
Q 2250 2553 1709 2553 
Q 1456 2553 1204 2497 
Q 953 2441 691 2322 
L 691 4666 
z
" transform="scale(0.015625)"/>
       </defs>
       <use xlink:href="#DejaVuSans-31"/>
       <use xlink:href="#DejaVuSans-2e" transform="translate(63.623047 0)"/>
       <use xlink:href="#DejaVuSans-35" transform="translate(95.410156 0)"/>
      </g>
     </g>
    </g>
    <g id="text_17">
     <!-- normalized SD -->
     <g transform="translate(263.498266 230.259438) rotate(-90) scale(0.12 -0.12)">
      <defs>
       <path id="DejaVuSans-7a" d="M 353 3500 
L 3084 3500 
L 3084 2975 
L 922 459 
L 3084 459 
L 3084 0 
L 275 0 
L 275 525 
L 2438 3041 
L 353 3041 
L 353 3500 
z
" transform="scale(0.015625)"/>
       <path id="DejaVuSans-53" d="M 3425 4513 
L 3425 3897 
Q 3066 4069 2747 4153 
Q 2428 4238 2131 4238 
Q 1616 4238 1336 4038 
Q 1056 3838 1056 3469 
Q 1056 3159 1242 3001 
Q 1428 2844 1947 2747 
L 2328 2669 
Q 3034 2534 3370 2195 
Q 3706 1856 3706 1288 
Q 3706 609 3251 259 
Q 2797 -91 1919 -91 
Q 1588 -91 1214 -16 
Q 841 59 441 206 
L 441 856 
Q 825 641 1194 531 
Q 1563 422 1919 422 
Q 2459 422 2753 634 
Q 3047 847 3047 1241 
Q 3047 1584 2836 1778 
Q 2625 1972 2144 2069 
L 1759 2144 
Q 1053 2284 737 2584 
Q 422 2884 422 3419 
Q 422 4038 858 4394 
Q 1294 4750 2059 4750 
Q 2388 4750 2728 4690 
Q 3069 4631 3425 4513 
z
" transform="scale(0.015625)"/>
       <path id="DejaVuSans-44" d="M 1259 4147 
L 1259 519 
L 2022 519 
Q 2988 519 3436 956 
Q 3884 1394 3884 2338 
Q 3884 3275 3436 3711 
Q 2988 4147 2022 4147 
L 1259 4147 
z
M 628 4666 
L 1925 4666 
Q 3281 4666 3915 4102 
Q 4550 3538 4550 2338 
Q 4550 1131 3912 565 
Q 3275 0 1925 0 
L 628 0 
L 628 4666 
z
" transform="scale(0.015625)"/>
      </defs>
      <use xlink:href="#DejaVuSans-6e"/>
      <use xlink:href="#DejaVuSans-6f" transform="translate(63.378906 0)"/>
      <use xlink:href="#DejaVuSans-72" transform="translate(124.560547 0)"/>
      <use xlink:href="#DejaVuSans-6d" transform="translate(163.923828 0)"/>
      <use xlink:href="#DejaVuSans-61" transform="translate(261.335938 0)"/>
      <use xlink:href="#DejaVuSans-6c" transform="translate(322.615234 0)"/>
      <use xlink:href="#DejaVuSans-69" transform="translate(350.398438 0)"/>
      <use xlink:href="#DejaVuSans-7a" transform="translate(378.181641 0)"/>
      <use xlink:href="#DejaVuSans-65" transform="translate(430.671875 0)"/>
      <use xlink:href="#DejaVuSans-64" transform="translate(492.195312 0)"/>
      <use xlink:href="#DejaVuSans-20" transform="translate(555.671875 0)"/>
      <use xlink:href="#DejaVuSans-53" transform="translate(587.458984 0)"/>
      <use xlink:href="#DejaVuSans-44" transform="translate(650.935547 0)"/>
     </g>
    </g>
   </g>
   <g id="FillBetweenPolyCollection_2">
    <defs>
     <path id="m747a958016" d="M 378.653937 -66.737983 
L 334.838563 -66.737983 
L 333.702474 -69.529961 
L 332.602864 -72.321939 
L 331.546885 -75.113916 
L 330.540704 -77.905894 
L 329.589319 -80.697872 
L 328.6964 -83.48985 
L 327.864164 -86.281827 
L 327.093288 -89.073805 
L 326.382863 -91.865783 
L 325.730384 -94.657761 
L 325.131796 -97.449738 
L 324.581578 -100.241716 
L 324.072868 -103.033694 
L 323.597636 -105.825672 
L 323.146882 -108.617649 
L 322.710876 -111.409627 
L 322.279411 -114.201605 
L 321.842087 -116.993583 
L 321.388589 -119.78556 
L 320.908985 -122.577538 
L 320.394007 -125.369516 
L 319.835324 -128.161493 
L 319.2258 -130.953471 
L 318.559723 -133.745449 
L 317.833005 -136.537427 
L 317.04335 -139.329404 
L 316.190379 -142.121382 
L 315.275715 -144.91336 
L 314.303028 -147.705338 
L 313.278035 -150.497315 
L 312.208449 -153.289293 
L 311.103895 -156.081271 
L 309.975772 -158.873249 
L 308.837089 -161.665226 
L 307.702251 -164.457204 
L 306.586815 -167.249182 
L 305.507225 -170.04116 
L 304.480506 -172.833137 
L 303.523954 -175.625115 
L 302.654801 -178.417093 
L 301.889876 -181.209071 
L 301.245267 -184.001048 
L 300.735978 -186.793026 
L 300.375612 -189.585004 
L 300.176061 -192.376982 
L 300.14723 -195.168959 
L 300.296791 -197.960937 
L 300.629974 -200.752915 
L 301.149412 -203.544893 
L 301.855027 -206.33687 
L 302.74398 -209.128848 
L 303.810673 -211.920826 
L 305.046812 -214.712804 
L 306.441529 -217.504781 
L 307.981569 -220.296759 
L 309.651516 -223.088737 
L 311.434088 -225.880714 
L 313.310457 -228.672692 
L 315.260616 -231.46467 
L 317.263768 -234.256648 
L 319.298732 -237.048625 
L 321.344352 -239.840603 
L 323.379902 -242.632581 
L 325.38548 -245.424559 
L 327.34237 -248.216536 
L 329.233374 -251.008514 
L 331.043097 -253.800492 
L 332.758186 -256.59247 
L 334.367518 -259.384447 
L 335.862323 -262.176425 
L 337.236253 -264.968403 
L 338.485398 -267.760381 
L 339.608233 -270.552358 
L 340.605525 -273.344336 
L 341.480186 -276.136314 
L 342.237084 -278.928292 
L 342.882823 -281.720269 
L 343.425494 -284.512247 
L 343.874405 -287.304225 
L 344.239803 -290.096203 
L 344.532591 -292.88818 
L 344.764048 -295.680158 
L 344.945562 -298.472136 
L 345.088378 -301.264114 
L 345.203364 -304.056091 
L 345.300815 -306.848069 
L 345.390268 -309.640047 
L 345.480367 -312.432025 
L 345.578741 -315.224002 
L 345.691934 -318.01598 
L 345.825351 -320.807958 
L 345.983238 -323.599936 
L 346.168699 -326.391913 
L 346.383724 -329.183891 
L 346.629248 -331.975869 
L 346.905229 -334.767846 
L 347.210739 -337.559824 
L 347.544067 -340.351802 
L 347.902828 -343.14378 
L 365.589672 -343.14378 
L 365.589672 -343.14378 
L 365.948433 -340.351802 
L 366.281761 -337.559824 
L 366.587271 -334.767846 
L 366.863252 -331.975869 
L 367.108776 -329.183891 
L 367.323801 -326.391913 
L 367.509262 -323.599936 
L 367.667149 -320.807958 
L 367.800566 -318.01598 
L 367.913759 -315.224002 
L 368.012133 -312.432025 
L 368.102232 -309.640047 
L 368.191685 -306.848069 
L 368.289136 -304.056091 
L 368.404122 -301.264114 
L 368.546938 -298.472136 
L 368.728452 -295.680158 
L 368.959909 -292.88818 
L 369.252697 -290.096203 
L 369.618095 -287.304225 
L 370.067006 -284.512247 
L 370.609677 -281.720269 
L 371.255416 -278.928292 
L 372.012314 -276.136314 
L 372.886975 -273.344336 
L 373.884267 -270.552358 
L 375.007102 -267.760381 
L 376.256247 -264.968403 
L 377.630177 -262.176425 
L 379.124982 -259.384447 
L 380.734314 -256.59247 
L 382.449403 -253.800492 
L 384.259126 -251.008514 
L 386.15013 -248.216536 
L 388.10702 -245.424559 
L 390.112598 -242.632581 
L 392.148148 -239.840603 
L 394.193768 -237.048625 
L 396.228732 -234.256648 
L 398.231884 -231.46467 
L 400.182043 -228.672692 
L 402.058412 -225.880714 
L 403.840984 -223.088737 
L 405.510931 -220.296759 
L 407.050971 -217.504781 
L 408.445688 -214.712804 
L 409.681827 -211.920826 
L 410.74852 -209.128848 
L 411.637473 -206.33687 
L 412.343088 -203.544893 
L 412.862526 -200.752915 
L 413.195709 -197.960937 
L 413.34527 -195.168959 
L 413.316439 -192.376982 
L 413.116888 -189.585004 
L 412.756522 -186.793026 
L 412.247233 -184.001048 
L 411.602624 -181.209071 
L 410.837699 -178.417093 
L 409.968546 -175.625115 
L 409.011994 -172.833137 
L 407.985275 -170.04116 
L 406.905685 -167.249182 
L 405.790249 -164.457204 
L 404.655411 -161.665226 
L 403.516728 -158.873249 
L 402.388605 -156.081271 
L 401.284051 -153.289293 
L 400.214465 -150.497315 
L 399.189472 -147.705338 
L 398.216785 -144.91336 
L 397.302121 -142.121382 
L 396.44915 -139.329404 
L 395.659495 -136.537427 
L 394.932777 -133.745449 
L 394.2667 -130.953471 
L 393.657176 -128.161493 
L 393.098493 -125.369516 
L 392.583515 -122.577538 
L 392.103911 -119.78556 
L 391.650413 -116.993583 
L 391.213089 -114.201605 
L 390.781624 -111.409627 
L 390.345618 -108.617649 
L 389.894864 -105.825672 
L 389.419632 -103.033694 
L 388.910922 -100.241716 
L 388.360704 -97.449738 
L 387.762116 -94.657761 
L 387.109637 -91.865783 
L 386.399212 -89.073805 
L 385.628336 -86.281827 
L 384.7961 -83.48985 
L 383.903181 -80.697872 
L 382.951796 -77.905894 
L 381.945615 -75.113916 
L 380.889636 -72.321939 
L 379.790026 -69.529961 
L 378.653937 -66.737983 
z
" style="stroke: #7c3aed; stroke-opacity: 0.35"/>
    </defs>
    <g clip-path="url(#pe5be20745b)">
     <use xlink:href="#m747a958016" x="0" y="391.52407" style="fill: #7c3aed; fill-opacity: 0.35; stroke: #7c3aed; stroke-opacity: 0.35"/>
    </g>
   </g>
   <g id="LineCollection_2">
    <path d="M 328.44674 208.230008 
L 385.04576 208.230008 
" clip-path="url(#pe5be20745b)" style="fill: none; stroke: #7c3aed; stroke-width: 1.5"/>
   </g>
   <g id="patch_8">
    <path d="M 294.487328 338.606376 
L 294.487328 34.56 
" style="fill: none; stroke: #000000; stroke-width: 0.8; stroke-linejoin: miter; stroke-linecap: square"/>
   </g>
   <g id="patch_9">
    <path d="M 419.005172 338.606376 
L 419.005172 34.56 
" style="fill: none; stroke: #000000; stroke-width: 0.8; stroke-linejoin: miter; stroke-linecap: square"/>
   </g>
   <g id="patch_10">
    <path d="M 294.487328 338.606376 
L 419.005172 338.606376 
" style="fill: none; stroke: #000000; stroke-width: 0.8; stroke-linejoin: miter; stroke-linecap: square"/>
   </g>
   <g id="patch_11">
    <path d="M 294.487328 34.56 
L 419.005172 34.56 
" style="fill: none; stroke: #000000; stroke-width: 0.8; stroke-linejoin: miter; stroke-linecap: square"/>
   </g>
   <g id="PathCollection_2">
    <g clip-path="url(#pe5be20745b)">
     <use xlink:href="#m1f65896c44" x="356.74625" y="226.244077" style="fill: #111827; stroke: #111827"/>
    </g>
   </g>
  </g>
  <g id="axes_3">
   <g id="patch_12">
    <path d="M 545.163407 338.606376 
L 669.68125 338.606376 
L 669.68125 34.56 
L 545.163407 34.56 
z
" style="fill: #ffffff"/>
   </g>
   <g id="matplotlib.axis_5">
    <g id="xtick_3">
     <g id="line2d_31">
      <path d="M 607.422328 338.606376 
L 607.422328 34.56 
" clip-path="url(#pc8bb9ec0b2)" style="fill: none; stroke: #b0b0b0; stroke-opacity: 0.2; stroke-width: 0.6; stroke-linecap: square"/>
     </g>
     <g id="line2d_32">
      <g>
       <use xlink:href="#mf1e0653ccc" x="607.422328" y="338.606376" style="stroke: #000000; stroke-width: 0.8"/>
      </g>
     </g>
     <g id="text_18">
      <!-- Speech rate -->
      <g transform="translate(542.728836 370.855775) rotate(-15) scale(0.11 -0.11)">
       <defs>
        <path id="DejaVuSans-70" d="M 1159 525 
L 1159 -1331 
L 581 -1331 
L 581 3500 
L 1159 3500 
L 1159 2969 
Q 1341 3281 1617 3432 
Q 1894 3584 2278 3584 
Q 2916 3584 3314 3078 
Q 3713 2572 3713 1747 
Q 3713 922 3314 415 
Q 2916 -91 2278 -91 
Q 1894 -91 1617 61 
Q 1341 213 1159 525 
z
M 3116 1747 
Q 3116 2381 2855 2742 
Q 2594 3103 2138 3103 
Q 1681 3103 1420 2742 
Q 1159 2381 1159 1747 
Q 1159 1113 1420 752 
Q 1681 391 2138 391 
Q 2594 391 2855 752 
Q 3116 1113 3116 1747 
z
" transform="scale(0.015625)"/>
       </defs>
       <use xlink:href="#DejaVuSans-53"/>
       <use xlink:href="#DejaVuSans-70" transform="translate(63.476562 0)"/>
       <use xlink:href="#DejaVuSans-65" transform="translate(126.953125 0)"/>
       <use xlink:href="#DejaVuSans-65" transform="translate(188.476562 0)"/>
       <use xlink:href="#DejaVuSans-63" transform="translate(250 0)"/>
       <use xlink:href="#DejaVuSans-68" transform="translate(304.980469 0)"/>
       <use xlink:href="#DejaVuSans-20" transform="translate(368.359375 0)"/>
       <use xlink:href="#DejaVuSans-72" transform="translate(400.146484 0)"/>
       <use xlink:href="#DejaVuSans-61" transform="translate(441.259766 0)"/>
       <use xlink:href="#DejaVuSans-74" transform="translate(502.539062 0)"/>
       <use xlink:href="#DejaVuSans-65" transform="translate(541.748047 0)"/>
      </g>
     </g>
    </g>
   </g>
   <g id="matplotlib.axis_6">
    <g id="ytick_14">
     <g id="line2d_33">
      <path d="M 545.163407 305.927687 
L 669.68125 305.927687 
" clip-path="url(#pc8bb9ec0b2)" style="fill: none; stroke: #b0b0b0; stroke-opacity: 0.2; stroke-width: 0.6; stroke-linecap: square"/>
     </g>
     <g id="line2d_34">
      <g>
       <use xlink:href="#m70846f48b9" x="545.163407" y="305.927687" style="stroke: #000000; stroke-width: 0.8"/>
      </g>
     </g>
     <g id="text_19">
      <!-- 1.0 -->
      <g transform="translate(520.669969 310.106828) scale(0.11 -0.11)">
       <use xlink:href="#DejaVuSans-31"/>
       <use xlink:href="#DejaVuSans-2e" transform="translate(63.623047 0)"/>
       <use xlink:href="#DejaVuSans-30" transform="translate(95.410156 0)"/>
      </g>
     </g>
    </g>
    <g id="ytick_15">
     <g id="line2d_35">
      <path d="M 545.163407 268.615986 
L 669.68125 268.615986 
" clip-path="url(#pc8bb9ec0b2)" style="fill: none; stroke: #b0b0b0; stroke-opacity: 0.2; stroke-width: 0.6; stroke-linecap: square"/>
     </g>
     <g id="line2d_36">
      <g>
       <use xlink:href="#m70846f48b9" x="545.163407" y="268.615986" style="stroke: #000000; stroke-width: 0.8"/>
      </g>
     </g>
     <g id="text_20">
      <!-- 1.2 -->
      <g transform="translate(520.669969 272.795127) scale(0.11 -0.11)">
       <use xlink:href="#DejaVuSans-31"/>
       <use xlink:href="#DejaVuSans-2e" transform="translate(63.623047 0)"/>
       <use xlink:href="#DejaVuSans-32" transform="translate(95.410156 0)"/>
      </g>
     </g>
    </g>
    <g id="ytick_16">
     <g id="line2d_37">
      <path d="M 545.163407 231.304286 
L 669.68125 231.304286 
" clip-path="url(#pc8bb9ec0b2)" style="fill: none; stroke: #b0b0b0; stroke-opacity: 0.2; stroke-width: 0.6; stroke-linecap: square"/>
     </g>
     <g id="line2d_38">
      <g>
       <use xlink:href="#m70846f48b9" x="545.163407" y="231.304286" style="stroke: #000000; stroke-width: 0.8"/>
      </g>
     </g>
     <g id="text_21">
      <!-- 1.4 -->
      <g transform="translate(520.669969 235.483426) scale(0.11 -0.11)">
       <use xlink:href="#DejaVuSans-31"/>
       <use xlink:href="#DejaVuSans-2e" transform="translate(63.623047 0)"/>
       <use xlink:href="#DejaVuSans-34" transform="translate(95.410156 0)"/>
      </g>
     </g>
    </g>
    <g id="ytick_17">
     <g id="line2d_39">
      <path d="M 545.163407 193.992585 
L 669.68125 193.992585 
" clip-path="url(#pc8bb9ec0b2)" style="fill: none; stroke: #b0b0b0; stroke-opacity: 0.2; stroke-width: 0.6; stroke-linecap: square"/>
     </g>
     <g id="line2d_40">
      <g>
       <use xlink:href="#m70846f48b9" x="545.163407" y="193.992585" style="stroke: #000000; stroke-width: 0.8"/>
      </g>
     </g>
     <g id="text_22">
      <!-- 1.6 -->
      <g transform="translate(520.669969 198.171725) scale(0.11 -0.11)">
       <use xlink:href="#DejaVuSans-31"/>
       <use xlink:href="#DejaVuSans-2e" transform="translate(63.623047 0)"/>
       <use xlink:href="#DejaVuSans-36" transform="translate(95.410156 0)"/>
      </g>
     </g>
    </g>
    <g id="ytick_18">
     <g id="line2d_41">
      <path d="M 545.163407 156.680884 
L 669.68125 156.680884 
" clip-path="url(#pc8bb9ec0b2)" style="fill: none; stroke: #b0b0b0; stroke-opacity: 0.2; stroke-width: 0.6; stroke-linecap: square"/>
     </g>
     <g id="line2d_42">
      <g>
       <use xlink:href="#m70846f48b9" x="545.163407" y="156.680884" style="stroke: #000000; stroke-width: 0.8"/>
      </g>
     </g>
     <g id="text_23">
      <!-- 1.8 -->
      <g transform="translate(520.669969 160.860025) scale(0.11 -0.11)">
       <use xlink:href="#DejaVuSans-31"/>
       <use xlink:href="#DejaVuSans-2e" transform="translate(63.623047 0)"/>
       <use xlink:href="#DejaVuSans-38" transform="translate(95.410156 0)"/>
      </g>
     </g>
    </g>
    <g id="ytick_19">
     <g id="line2d_43">
      <path d="M 545.163407 119.369183 
L 669.68125 119.369183 
" clip-path="url(#pc8bb9ec0b2)" style="fill: none; stroke: #b0b0b0; stroke-opacity: 0.2; stroke-width: 0.6; stroke-linecap: square"/>
     </g>
     <g id="line2d_44">
      <g>
       <use xlink:href="#m70846f48b9" x="545.163407" y="119.369183" style="stroke: #000000; stroke-width: 0.8"/>
      </g>
     </g>
     <g id="text_24">
      <!-- 2.0 -->
      <g transform="translate(520.669969 123.548324) scale(0.11 -0.11)">
       <use xlink:href="#DejaVuSans-32"/>
       <use xlink:href="#DejaVuSans-2e" transform="translate(63.623047 0)"/>
       <use xlink:href="#DejaVuSans-30" transform="translate(95.410156 0)"/>
      </g>
     </g>
    </g>
    <g id="ytick_20">
     <g id="line2d_45">
      <path d="M 545.163407 82.057483 
L 669.68125 82.057483 
" clip-path="url(#pc8bb9ec0b2)" style="fill: none; stroke: #b0b0b0; stroke-opacity: 0.2; stroke-width: 0.6; stroke-linecap: square"/>
     </g>
     <g id="line2d_46">
      <g>
       <use xlink:href="#m70846f48b9" x="545.163407" y="82.057483" style="stroke: #000000; stroke-width: 0.8"/>
      </g>
     </g>
     <g id="text_25">
      <!-- 2.2 -->
      <g transform="translate(520.669969 86.236623) scale(0.11 -0.11)">
       <use xlink:href="#DejaVuSans-32"/>
       <use xlink:href="#DejaVuSans-2e" transform="translate(63.623047 0)"/>
       <use xlink:href="#DejaVuSans-32" transform="translate(95.410156 0)"/>
      </g>
     </g>
    </g>
    <g id="ytick_21">
     <g id="line2d_47">
      <path d="M 545.163407 44.745782 
L 669.68125 44.745782 
" clip-path="url(#pc8bb9ec0b2)" style="fill: none; stroke: #b0b0b0; stroke-opacity: 0.2; stroke-width: 0.6; stroke-linecap: square"/>
     </g>
     <g id="line2d_48">
      <g>
       <use xlink:href="#m70846f48b9" x="545.163407" y="44.745782" style="stroke: #000000; stroke-width: 0.8"/>
      </g>
     </g>
     <g id="text_26">
      <!-- 2.4 -->
      <g transform="translate(520.669969 48.924923) scale(0.11 -0.11)">
       <use xlink:href="#DejaVuSans-32"/>
       <use xlink:href="#DejaVuSans-2e" transform="translate(63.623047 0)"/>
       <use xlink:href="#DejaVuSans-34" transform="translate(95.410156 0)"/>
      </g>
     </g>
    </g>
    <g id="text_27">
     <!-- segments / second -->
     <g transform="translate(514.174344 243.260688) rotate(-90) scale(0.12 -0.12)">
      <defs>
       <path id="DejaVuSans-67" d="M 2906 1791 
Q 2906 2416 2648 2759 
Q 2391 3103 1925 3103 
Q 1463 3103 1205 2759 
Q 947 2416 947 1791 
Q 947 1169 1205 825 
Q 1463 481 1925 481 
Q 2391 481 2648 825 
Q 2906 1169 2906 1791 
z
M 3481 434 
Q 3481 -459 3084 -895 
Q 2688 -1331 1869 -1331 
Q 1566 -1331 1297 -1286 
Q 1028 -1241 775 -1147 
L 775 -588 
Q 1028 -725 1275 -790 
Q 1522 -856 1778 -856 
Q 2344 -856 2625 -561 
Q 2906 -266 2906 331 
L 2906 616 
Q 2728 306 2450 153 
Q 2172 0 1784 0 
Q 1141 0 747 490 
Q 353 981 353 1791 
Q 353 2603 747 3093 
Q 1141 3584 1784 3584 
Q 2172 3584 2450 3431 
Q 2728 3278 2906 2969 
L 2906 3500 
L 3481 3500 
L 3481 434 
z
" transform="scale(0.015625)"/>
       <path id="DejaVuSans-2f" d="M 1625 4666 
L 2156 4666 
L 531 -594 
L 0 -594 
L 1625 4666 
z
" transform="scale(0.015625)"/>
      </defs>
      <use xlink:href="#DejaVuSans-73"/>
      <use xlink:href="#DejaVuSans-65" transform="translate(52.099609 0)"/>
      <use xlink:href="#DejaVuSans-67" transform="translate(113.623047 0)"/>
      <use xlink:href="#DejaVuSans-6d" transform="translate(177.099609 0)"/>
      <use xlink:href="#DejaVuSans-65" transform="translate(274.511719 0)"/>
      <use xlink:href="#DejaVuSans-6e" transform="translate(336.035156 0)"/>
      <use xlink:href="#DejaVuSans-74" transform="translate(399.414062 0)"/>
      <use xlink:href="#DejaVuSans-73" transform="translate(438.623047 0)"/>
      <use xlink:href="#DejaVuSans-20" transform="translate(490.722656 0)"/>
      <use xlink:href="#DejaVuSans-2f" transform="translate(522.509766 0)"/>
      <use xlink:href="#DejaVuSans-20" transform="translate(556.201172 0)"/>
      <use xlink:href="#DejaVuSans-73" transform="translate(587.988281 0)"/>
      <use xlink:href="#DejaVuSans-65" transform="translate(640.087891 0)"/>
      <use xlink:href="#DejaVuSans-63" transform="translate(701.611328 0)"/>
      <use xlink:href="#DejaVuSans-6f" transform="translate(756.591797 0)"/>
      <use xlink:href="#DejaVuSans-6e" transform="translate(817.773438 0)"/>
      <use xlink:href="#DejaVuSans-64" transform="translate(881.152344 0)"/>
     </g>
    </g>
   </g>
   <g id="FillBetweenPolyCollection_3">
    <defs>
     <path id="mb393888800" d="M 622.110701 -66.737983 
L 592.733956 -66.737983 
L 592.059588 -69.529961 
L 591.381806 -72.321939 
L 590.698254 -75.113916 
L 590.005999 -77.905894 
L 589.301612 -80.697872 
L 588.581282 -83.48985 
L 587.840949 -86.281827 
L 587.076453 -89.073805 
L 586.283698 -91.865783 
L 585.458815 -94.657761 
L 584.598332 -97.449738 
L 583.69933 -100.241716 
L 582.759588 -103.033694 
L 581.777704 -105.825672 
L 580.753197 -108.617649 
L 579.686569 -111.409627 
L 578.579342 -114.201605 
L 577.434054 -116.993583 
L 576.254227 -119.78556 
L 575.044289 -122.577538 
L 573.80948 -125.369516 
L 572.55572 -128.161493 
L 571.289463 -130.953471 
L 570.017535 -133.745449 
L 568.746963 -136.537427 
L 567.484807 -139.329404 
L 566.238 -142.121382 
L 565.013202 -144.91336 
L 563.81667 -147.705338 
L 562.654158 -150.497315 
L 561.530842 -153.289293 
L 560.451275 -156.081271 
L 559.419373 -158.873249 
L 558.438422 -161.665226 
L 557.511119 -164.457204 
L 556.639627 -167.249182 
L 555.82564 -170.04116 
L 555.070471 -172.833137 
L 554.375127 -175.625115 
L 553.740388 -178.417093 
L 553.166877 -181.209071 
L 552.655113 -184.001048 
L 552.205546 -186.793026 
L 551.818581 -189.585004 
L 551.494567 -192.376982 
L 551.23378 -195.168959 
L 551.036384 -197.960937 
L 550.902376 -200.752915 
L 550.831525 -203.544893 
L 550.823309 -206.33687 
L 550.876848 -209.128848 
L 550.990853 -211.920826 
L 551.16358 -214.712804 
L 551.392804 -217.504781 
L 551.675816 -220.296759 
L 552.00944 -223.088737 
L 552.390075 -225.880714 
L 552.813759 -228.672692 
L 553.276256 -231.46467 
L 553.773161 -234.256648 
L 554.300012 -237.048625 
L 554.852422 -239.840603 
L 555.426205 -242.632581 
L 556.017497 -245.424559 
L 556.622877 -248.216536 
L 557.239464 -251.008514 
L 557.864998 -253.800492 
L 558.497902 -256.59247 
L 559.137312 -259.384447 
L 559.783083 -262.176425 
L 560.435768 -264.968403 
L 561.096575 -267.760381 
L 561.767291 -270.552358 
L 562.450199 -273.344336 
L 563.147964 -276.136314 
L 563.86352 -278.928292 
L 564.599946 -281.720269 
L 565.360332 -284.512247 
L 566.147663 -287.304225 
L 566.964694 -290.096203 
L 567.813848 -292.88818 
L 568.697116 -295.680158 
L 569.615984 -298.472136 
L 570.57137 -301.264114 
L 571.563577 -304.056091 
L 572.592272 -306.848069 
L 573.656477 -309.640047 
L 574.754576 -312.432025 
L 575.884338 -315.224002 
L 577.042955 -318.01598 
L 578.227088 -320.807958 
L 579.432928 -323.599936 
L 580.656255 -326.391913 
L 581.892511 -329.183891 
L 583.136876 -331.975869 
L 584.384338 -334.767846 
L 585.629775 -337.559824 
L 586.868029 -340.351802 
L 588.093979 -343.14378 
L 626.750678 -343.14378 
L 626.750678 -343.14378 
L 627.976627 -340.351802 
L 629.214882 -337.559824 
L 630.460319 -334.767846 
L 631.707781 -331.975869 
L 632.952146 -329.183891 
L 634.188402 -326.391913 
L 635.411729 -323.599936 
L 636.617568 -320.807958 
L 637.801702 -318.01598 
L 638.960319 -315.224002 
L 640.090081 -312.432025 
L 641.188179 -309.640047 
L 642.252385 -306.848069 
L 643.28108 -304.056091 
L 644.273287 -301.264114 
L 645.228673 -298.472136 
L 646.147541 -295.680158 
L 647.030809 -292.88818 
L 647.879963 -290.096203 
L 648.696994 -287.304225 
L 649.484325 -284.512247 
L 650.244711 -281.720269 
L 650.981136 -278.928292 
L 651.696693 -276.136314 
L 652.394458 -273.344336 
L 653.077366 -270.552358 
L 653.748082 -267.760381 
L 654.408889 -264.968403 
L 655.061574 -262.176425 
L 655.707345 -259.384447 
L 656.346754 -256.59247 
L 656.979659 -253.800492 
L 657.605193 -251.008514 
L 658.22178 -248.216536 
L 658.82716 -245.424559 
L 659.418452 -242.632581 
L 659.992235 -239.840603 
L 660.544645 -237.048625 
L 661.071496 -234.256648 
L 661.568401 -231.46467 
L 662.030898 -228.672692 
L 662.454582 -225.880714 
L 662.835217 -223.088737 
L 663.168841 -220.296759 
L 663.451853 -217.504781 
L 663.681077 -214.712804 
L 663.853804 -211.920826 
L 663.967809 -209.128848 
L 664.021348 -206.33687 
L 664.013132 -203.544893 
L 663.942281 -200.752915 
L 663.808273 -197.960937 
L 663.610877 -195.168959 
L 663.35009 -192.376982 
L 663.026076 -189.585004 
L 662.639111 -186.793026 
L 662.189544 -184.001048 
L 661.67778 -181.209071 
L 661.104268 -178.417093 
L 660.46953 -175.625115 
L 659.774185 -172.833137 
L 659.019017 -170.04116 
L 658.20503 -167.249182 
L 657.333537 -164.457204 
L 656.406235 -161.665226 
L 655.425284 -158.873249 
L 654.393382 -156.081271 
L 653.313815 -153.289293 
L 652.190499 -150.497315 
L 651.027987 -147.705338 
L 649.831454 -144.91336 
L 648.606656 -142.121382 
L 647.35985 -139.329404 
L 646.097694 -136.537427 
L 644.827122 -133.745449 
L 643.555194 -130.953471 
L 642.288937 -128.161493 
L 641.035177 -125.369516 
L 639.800368 -122.577538 
L 638.59043 -119.78556 
L 637.410603 -116.993583 
L 636.265315 -114.201605 
L 635.158088 -111.409627 
L 634.09146 -108.617649 
L 633.066952 -105.825672 
L 632.085069 -103.033694 
L 631.145327 -100.241716 
L 630.246325 -97.449738 
L 629.385842 -94.657761 
L 628.560959 -91.865783 
L 627.768204 -89.073805 
L 627.003708 -86.281827 
L 626.263375 -83.48985 
L 625.543045 -80.697872 
L 624.838658 -77.905894 
L 624.146403 -75.113916 
L 623.462851 -72.321939 
L 622.785069 -69.529961 
L 622.110701 -66.737983 
z
" style="stroke: #7c3aed; stroke-opacity: 0.35"/>
    </defs>
    <g clip-path="url(#pc8bb9ec0b2)">
     <use xlink:href="#mb393888800" x="0" y="391.52407" style="fill: #7c3aed; fill-opacity: 0.35; stroke: #7c3aed; stroke-opacity: 0.35"/>
    </g>
   </g>
   <g id="LineCollection_3">
    <path d="M 579.122819 184.297027 
L 635.721838 184.297027 
" clip-path="url(#pc8bb9ec0b2)" style="fill: none; stroke: #7c3aed; stroke-width: 1.5"/>
   </g>
   <g id="patch_13">
    <path d="M 545.163407 338.606376 
L 545.163407 34.56 
" style="fill: none; stroke: #000000; stroke-width: 0.8; stroke-linejoin: miter; stroke-linecap: square"/>
   </g>
   <g id="patch_14">
    <path d="M 669.68125 338.606376 
L 669.68125 34.56 
" style="fill: none; stroke: #000000; stroke-width: 0.8; stroke-linejoin: miter; stroke-linecap: square"/>
   </g>
   <g id="patch_15">
    <path d="M 545.163407 338.606376 
L 669.68125 338.606376 
" style="fill: none; stroke: #000000; stroke-width: 0.8; stroke-linejoin: miter; stroke-linecap: square"/>
   </g>
   <g id="patch_16">
    <path d="M 545.163407 34.56 
L 669.68125 34.56 
" style="fill: none; stroke: #000000; stroke-width: 0.8; stroke-linejoin: miter; stroke-linecap: square"/>
   </g>
   <g id="PathCollection_3">
    <g clip-path="url(#pc8bb9ec0b2)">
     <use xlink:href="#m1f65896c44" x="607.422328" y="185.673972" style="fill: #111827; stroke: #111827"/>
    </g>
   </g>
   <g id="legend_1">
    <g id="patch_17">
     <path d="M 403.063594 52.818281 
L 425.063594 52.818281 
L 425.063594 45.118281 
L 403.063594 45.118281 
z
" style="fill: #7c3aed; opacity: 0.35; stroke: #7c3aed; stroke-linejoin: miter"/>
    </g>
    <g id="text_28">
     <!-- Reference group -->
     <g transform="translate(433.863594 52.818281) scale(0.11 -0.11)">
      <defs>
       <path id="DejaVuSans-52" d="M 2841 2188 
Q 3044 2119 3236 1894 
Q 3428 1669 3622 1275 
L 4263 0 
L 3584 0 
L 2988 1197 
Q 2756 1666 2539 1819 
Q 2322 1972 1947 1972 
L 1259 1972 
L 1259 0 
L 628 0 
L 628 4666 
L 2053 4666 
Q 2853 4666 3247 4331 
Q 3641 3997 3641 3322 
Q 3641 2881 3436 2590 
Q 3231 2300 2841 2188 
z
M 1259 4147 
L 1259 2491 
L 2053 2491 
Q 2509 2491 2742 2702 
Q 2975 2913 2975 3322 
Q 2975 3731 2742 3939 
Q 2509 4147 2053 4147 
L 1259 4147 
z
" transform="scale(0.015625)"/>
       <path id="DejaVuSans-66" d="M 2375 4863 
L 2375 4384 
L 1825 4384 
Q 1516 4384 1395 4259 
Q 1275 4134 1275 3809 
L 1275 3500 
L 2222 3500 
L 2222 3053 
L 1275 3053 
L 1275 0 
L 697 0 
L 697 3053 
L 147 3053 
L 147 3500 
L 697 3500 
L 697 3744 
Q 697 4328 969 4595 
Q 1241 4863 1831 4863 
L 2375 4863 
z
" transform="scale(0.015625)"/>
      </defs>
      <use xlink:href="#DejaVuSans-52"/>
      <use xlink:href="#DejaVuSans-65" transform="translate(64.982422 0)"/>
      <use xlink:href="#DejaVuSans-66" transform="translate(126.505859 0)"/>
      <use xlink:href="#DejaVuSans-65" transform="translate(161.710938 0)"/>
      <use xlink:href="#DejaVuSans-72" transform="translate(223.234375 0)"/>
      <use xlink:href="#DejaVuSans-65" transform="translate(262.097656 0)"/>
      <use xlink:href="#DejaVuSans-6e" transform="translate(323.621094 0)"/>
      <use xlink:href="#DejaVuSans-63" transform="translate(387 0)"/>
      <use xlink:href="#DejaVuSans-65" transform="translate(441.980469 0)"/>
      <use xlink:href="#DejaVuSans-20" transform="translate(503.503906 0)"/>
      <use xlink:href="#DejaVuSans-67" transform="translate(535.291016 0)"/>
      <use xlink:href="#DejaVuSans-72" transform="translate(598.767578 0)"/>
      <use xlink:href="#DejaVuSans-6f" transform="translate(637.630859 0)"/>
      <use xlink:href="#DejaVuSans-75" transform="translate(698.8125 0)"/>
      <use xlink:href="#DejaVuSans-70" transform="translate(762.191406 0)"/>
     </g>
    </g>
    <g id="line2d_49">
     <defs>
      <path id="m511b5a2f6b" d="M -0 4.242641 
L 4.242641 0 
L 0 -4.242641 
L -4.242641 -0 
z
" style="stroke: #111827; stroke-linejoin: miter"/>
     </defs>
     <g>
      <use xlink:href="#m511b5a2f6b" x="414.063594" y="65.114219" style="fill: #111827; stroke: #111827; stroke-linejoin: miter"/>
     </g>
    </g>
    <g id="text_29">
     <!-- Depressive disorder (MDD/DD) prototype -->
     <g transform="translate(433.863594 68.964219) scale(0.11 -0.11)">
      <defs>
       <path id="DejaVuSans-28" d="M 1984 4856 
Q 1566 4138 1362 3434 
Q 1159 2731 1159 2009 
Q 1159 1288 1364 580 
Q 1569 -128 1984 -844 
L 1484 -844 
Q 1016 -109 783 600 
Q 550 1309 550 2009 
Q 550 2706 781 3412 
Q 1013 4119 1484 4856 
L 1984 4856 
z
" transform="scale(0.015625)"/>
       <path id="DejaVuSans-4d" d="M 628 4666 
L 1569 4666 
L 2759 1491 
L 3956 4666 
L 4897 4666 
L 4897 0 
L 4281 0 
L 4281 4097 
L 3078 897 
L 2444 897 
L 1241 4097 
L 1241 0 
L 628 0 
L 628 4666 
z
" transform="scale(0.015625)"/>
       <path id="DejaVuSans-29" d="M 513 4856 
L 1013 4856 
Q 1481 4119 1714 3412 
Q 1947 2706 1947 2009 
Q 1947 1309 1714 600 
Q 1481 -109 1013 -844 
L 513 -844 
Q 928 -128 1133 580 
Q 1338 1288 1338 2009 
Q 1338 2731 1133 3434 
Q 928 4138 513 4856 
z
" transform="scale(0.015625)"/>
      </defs>
      <use xlink:href="#DejaVuSans-44"/>
      <use xlink:href="#DejaVuSans-65" transform="translate(77.001953 0)"/>
      <use xlink:href="#DejaVuSans-70" transform="translate(138.525391 0)"/>
      <use xlink:href="#DejaVuSans-72" transform="translate(202.001953 0)"/>
      <use xlink:href="#DejaVuSans-65" transform="translate(240.865234 0)"/>
      <use xlink:href="#DejaVuSans-73" transform="translate(302.388672 0)"/>
      <use xlink:href="#DejaVuSans-73" transform="translate(354.488281 0)"/>
      <use xlink:href="#DejaVuSans-69" transform="translate(406.587891 0)"/>
      <use xlink:href="#DejaVuSans-76" transform="translate(434.371094 0)"/>
      <use xlink:href="#DejaVuSans-65" transform="translate(493.550781 0)"/>
      <use xlink:href="#DejaVuSans-20" transform="translate(555.074219 0)"/>
      <use xlink:href="#DejaVuSans-64" transform="translate(586.861328 0)"/>
      <use xlink:href="#DejaVuSans-69" transform="translate(650.337891 0)"/>
      <use xlink:href="#DejaVuSans-73" transform="translate(678.121094 0)"/>
      <use xlink:href="#DejaVuSans-6f" transform="translate(730.220703 0)"/>
      <use xlink:href="#DejaVuSans-72" transform="translate(791.402344 0)"/>
      <use xlink:href="#DejaVuSans-64" transform="translate(830.765625 0)"/>
      <use xlink:href="#DejaVuSans-65" transform="translate(894.242188 0)"/>
      <use xlink:href="#DejaVuSans-72" transform="translate(955.765625 0)"/>
      <use xlink:href="#DejaVuSans-20" transform="translate(996.878906 0)"/>
      <use xlink:href="#DejaVuSans-28" transform="translate(1028.666016 0)"/>
      <use xlink:href="#DejaVuSans-4d" transform="translate(1067.679688 0)"/>
      <use xlink:href="#DejaVuSans-44" transform="translate(1153.958984 0)"/>
      <use xlink:href="#DejaVuSans-44" transform="translate(1230.960938 0)"/>
      <use xlink:href="#DejaVuSans-2f" transform="translate(1307.962891 0)"/>
      <use xlink:href="#DejaVuSans-44" transform="translate(1341.654297 0)"/>
      <use xlink:href="#DejaVuSans-44" transform="translate(1418.65625 0)"/>
      <use xlink:href="#DejaVuSans-29" transform="translate(1495.658203 0)"/>
      <use xlink:href="#DejaVuSans-20" transform="translate(1534.671875 0)"/>
      <use xlink:href="#DejaVuSans-70" transform="translate(1566.458984 0)"/>
      <use xlink:href="#DejaVuSans-72" transform="translate(1629.935547 0)"/>
      <use xlink:href="#DejaVuSans-6f" transform="translate(1668.798828 0)"/>
      <use xlink:href="#DejaVuSans-74" transform="translate(1729.980469 0)"/>
      <use xlink:href="#DejaVuSans-6f" transform="translate(1769.189453 0)"/>
      <use xlink:href="#DejaVuSans-74" transform="translate(1830.371094 0)"/>
      <use xlink:href="#DejaVuSans-79" transform="translate(1869.580078 0)"/>
      <use xlink:href="#DejaVuSans-70" transform="translate(1928.759766 0)"/>
      <use xlink:href="#DejaVuSans-65" transform="translate(1992.236328 0)"/>
     </g>
    </g>
   </g>
  </g>
  <g id="text_30">
   <!-- Depressive disorder (MDD/DD) -->
   <g transform="translate(231.053125 17.837812) scale(0.14 -0.14)">
    <use xlink:href="#DejaVuSans-44"/>
    <use xlink:href="#DejaVuSans-65" transform="translate(77.001953 0)"/>
    <use xlink:href="#DejaVuSans-70" transform="translate(138.525391 0)"/>
    <use xlink:href="#DejaVuSans-72" transform="translate(202.001953 0)"/>
    <use xlink:href="#DejaVuSans-65" transform="translate(240.865234 0)"/>
    <use xlink:href="#DejaVuSans-73" transform="translate(302.388672 0)"/>
    <use xlink:href="#DejaVuSans-73" transform="translate(354.488281 0)"/>
    <use xlink:href="#DejaVuSans-69" transform="translate(406.587891 0)"/>
    <use xlink:href="#DejaVuSans-76" transform="translate(434.371094 0)"/>
    <use xlink:href="#DejaVuSans-65" transform="translate(493.550781 0)"/>
    <use xlink:href="#DejaVuSans-20" transform="translate(555.074219 0)"/>
    <use xlink:href="#DejaVuSans-64" transform="translate(586.861328 0)"/>
    <use xlink:href="#DejaVuSans-69" transform="translate(650.337891 0)"/>
    <use xlink:href="#DejaVuSans-73" transform="translate(678.121094 0)"/>
    <use xlink:href="#DejaVuSans-6f" transform="translate(730.220703 0)"/>
    <use xlink:href="#DejaVuSans-72" transform="translate(791.402344 0)"/>
    <use xlink:href="#DejaVuSans-64" transform="translate(830.765625 0)"/>
    <use xlink:href="#DejaVuSans-65" transform="translate(894.242188 0)"/>
    <use xlink:href="#DejaVuSans-72" transform="translate(955.765625 0)"/>
    <use xlink:href="#DejaVuSans-20" transform="translate(996.878906 0)"/>
    <use xlink:href="#DejaVuSans-28" transform="translate(1028.666016 0)"/>
    <use xlink:href="#DejaVuSans-4d" transform="translate(1067.679688 0)"/>
    <use xlink:href="#DejaVuSans-44" transform="translate(1153.958984 0)"/>
    <use xlink:href="#DejaVuSans-44" transform="translate(1230.960938 0)"/>
    <use xlink:href="#DejaVuSans-2f" transform="translate(1307.962891 0)"/>
    <use xlink:href="#DejaVuSans-44" transform="translate(1341.654297 0)"/>
    <use xlink:href="#DejaVuSans-44" transform="translate(1418.65625 0)"/>
    <use xlink:href="#DejaVuSans-29" transform="translate(1495.658203 0)"/>
   </g>
  </g>
 </g>
 <defs>
  <clipPath id="p211c07e77a">
   <rect x="43.81125" y="34.56" width="124.517843" height="304.046376"/>
  </clipPath>
  <clipPath id="pe5be20745b">
   <rect x="294.487328" y="34.56" width="124.517843" height="304.046376"/>
  </clipPath>
  <clipPath id="pc8bb9ec0b2">
   <rect x="545.163407" y="34.56" width="124.517843" height="304.046376"/>
  </clipPath>
 </defs>
</svg>
