<?xml version="1.0" encoding="utf-8" standalone="no"?>
<!DOCTYPE svg PUBLIC "-//W3C//DTD SVG 1.1//EN"
  "http://www.w3.org/Graphics/SVG/1.1/DTD/svg11.dtd">
<svg xmlns:xlink="http://www.w3.org/1999/xlink" width="676.88125pt" height="391.52407pt" viewBox="0 0 676.88125 391.52407" xmlns="http://www.w3.org/2000/svg" version="1.1">
 <metadata>
  <rdf:RDF xmlns:dc="http://purl.org/dc/elements/1.1/" xmlns:cc="http://creativecommons.org/ns#" xmlns:rdf="http://www.w3.org/1999/02/22-rdf-syntax-ns#">
   <cc:Work>
    <dc:type rdf:resource="http://purl.org/dc/dcmitype/StillImage"/>
    <dc:date>2026-06-14T18:54:39.221036</dc:date>
    <dc:format>image/svg+xml</dc:format>
    <dc:creator>
     <cc:Agent>
      <dc:title>Matplotlib v3.10.1, https://matplotlib.org/</dc:title>
     </cc:Agent>
    </dc:creator>
   </cc:Work>
  </rdf:RDF>
 </metadata>
 <defs>
  <style type="text/css">*{stroke-linejoin: round; stroke-linecap: butt}</style>
 </defs>
 <g id="figure_1">
  <g id="patch_1">
   <path d="M 0 391.52407 
L 676.88125 391.52407 
L 676.88125 0 
L 0 0 
z
" style="fill: #ffffff"/>
  </g>
  <g id="axes_1">
   <g id="patch_2">
    <path d="M 43.81125 338.606376 
L 218.52125 338.606376 
L 218.52125 37.630378 
L 43.81125 37.630378 
z
" style="fill: #ffffff"/>
   </g>
   <g id="matplotlib.axis_1">
    <g id="xtick_1">
     <g id="line2d_1">
      <path d="M 131.16625 338.606376 
L 131.16625 37.630378 
" clip-path="url(#pd16200c83a)" style="fill: none; stroke: #b0b0b0; stroke-opacity: 0.2; stroke-width: 0.6; stroke-linecap: square"/>
     </g>
     <g id="line2d_2">
      <defs>
       <path id="m427d06e0f2" d="M 0 0 
L 0 3.5 
" style="stroke: #000000; stroke-width: 0.8"/>
      </defs>
      <g>
       <use xlink:href="#m427d06e0f2" x="131.16625" y="338.606376" style="stroke: #000000; stroke-width: 0.8"/>
      </g>
     </g>
     <g id="text_1">
      <!-- Pitch variability -->
      <g transform="translate(48.650671 375.631189) rotate(-15) scale(0.11 -0.11)">
       <defs>
        <path id="DejaVuSans-50" d="M 1259 4147 
L 1259 2394 
L 2053 2394 
Q 2494 2394 2734 2622 
Q 2975 2850 2975 3272 
Q 2975 3691 2734 3919 
Q 2494 4147 2053 4147 
L 1259 4147 
z
M 628 4666 
L 2053 4666 
Q 2838 4666 3239 4311 
Q 3641 3956 3641 3272 
Q 3641 2581 3239 2228 
Q 2838 1875 2053 1875 
L 1259 1875 
L 1259 0 
L 628 0 
L 628 4666 
z
" transform="scale(0.015625)"/>
        <path id="DejaVuSans-69" d="M 603 3500 
L 1178 3500 
L 1178 0 
L 603 0 
L 603 3500 
z
M 603 4863 
L 1178 4863 
L 1178 4134 
L 603 4134 
L 603 4863 
z
" transform="scale(0.015625)"/>
        <path id="DejaVuSans-74" d="M 1172 4494 
L 1172 3500 
L 2356 3500 
L 2356 3053 
L 1172 3053 
L 1172 1153 
Q 1172 725 1289 603 
Q 1406 481 1766 481 
L 2356 481 
L 2356 0 
L 1766 0 
Q 1100 0 847 248 
Q 594 497 594 1153 
L 594 3053 
L 172 3053 
L 172 3500 
L 594 3500 
L 594 4494 
L 1172 4494 
z
" transform="scale(0.015625)"/>
        <path id="DejaVuSans-63" d="M 3122 3366 
L 3122 2828 
Q 2878 2963 2633 3030 
Q 2388 3097 2138 3097 
Q 1578 3097 1268 2742 
Q 959 2388 959 1747 
Q 959 1106 1268 751 
Q 1578 397 2138 397 
Q 2388 397 2633 464 
Q 2878 531 3122 666 
L 3122 134 
Q 2881 22 2623 -34 
Q 2366 -91 2075 -91 
Q 1284 -91 818 406 
Q 353 903 353 1747 
Q 353 2603 823 3093 
Q 1294 3584 2113 3584 
Q 2378 3584 2631 3529 
Q 2884 3475 3122 3366 
z
" transform="scale(0.015625)"/>
        <path id="DejaVuSans-68" d="M 3513 2113 
L 3513 0 
L 2938 0 
L 2938 2094 
Q 2938 2591 2744 2837 
Q 2550 3084 2163 3084 
Q 1697 3084 1428 2787 
Q 1159 2491 1159 1978 
L 1159 0 
L 581 0 
L 581 4863 
L 1159 4863 
L 1159 2956 
Q 1366 3272 1645 3428 
Q 1925 3584 2291 3584 
Q 2894 3584 3203 3211 
Q 3513 2838 3513 2113 
z
" transform="scale(0.015625)"/>
        <path id="DejaVuSans-20" transform="scale(0.015625)"/>
        <path id="DejaVuSans-76" d="M 191 3500 
L 800 3500 
L 1894 563 
L 2988 3500 
L 3597 3500 
L 2284 0 
L 1503 0 
L 191 3500 
z
" transform="scale(0.015625)"/>
        <path id="DejaVuSans-61" d="M 2194 1759 
Q 1497 1759 1228 1600 
Q 959 1441 959 1056 
Q 959 750 1161 570 
Q 1363 391 1709 391 
Q 2188 391 2477 730 
Q 2766 1069 2766 1631 
L 2766 1759 
L 2194 1759 
z
M 3341 1997 
L 3341 0 
L 2766 0 
L 2766 531 
Q 2569 213 2275 61 
Q 1981 -91 1556 -91 
Q 1019 -91 701 211 
Q 384 513 384 1019 
Q 384 1609 779 1909 
Q 1175 2209 1959 2209 
L 2766 2209 
L 2766 2266 
Q 2766 2663 2505 2880 
Q 2244 3097 1772 3097 
Q 1472 3097 1187 3025 
Q 903 2953 641 2809 
L 641 3341 
Q 956 3463 1253 3523 
Q 1550 3584 1831 3584 
Q 2591 3584 2966 3190 
Q 3341 2797 3341 1997 
z
" transform="scale(0.015625)"/>
        <path id="DejaVuSans-72" d="M 2631 2963 
Q 2534 3019 2420 3045 
Q 2306 3072 2169 3072 
Q 1681 3072 1420 2755 
Q 1159 2438 1159 1844 
L 1159 0 
L 581 0 
L 581 3500 
L 1159 3500 
L 1159 2956 
Q 1341 3275 1631 3429 
Q 1922 3584 2338 3584 
Q 2397 3584 2469 3576 
Q 2541 3569 2628 3553 
L 2631 2963 
z
" transform="scale(0.015625)"/>
        <path id="DejaVuSans-62" d="M 3116 1747 
Q 3116 2381 2855 2742 
Q 2594 3103 2138 3103 
Q 1681 3103 1420 2742 
Q 1159 2381 1159 1747 
Q 1159 1113 1420 752 
Q 1681 391 2138 391 
Q 2594 391 2855 752 
Q 3116 1113 3116 1747 
z
M 1159 2969 
Q 1341 3281 1617 3432 
Q 1894 3584 2278 3584 
Q 2916 3584 3314 3078 
Q 3713 2572 3713 1747 
Q 3713 922 3314 415 
Q 2916 -91 2278 -91 
Q 1894 -91 1617 61 
Q 1341 213 1159 525 
L 1159 0 
L 581 0 
L 581 4863 
L 1159 4863 
L 1159 2969 
z
" transform="scale(0.015625)"/>
        <path id="DejaVuSans-6c" d="M 603 4863 
L 1178 4863 
L 1178 0 
L 603 0 
L 603 4863 
z
" transform="scale(0.015625)"/>
        <path id="DejaVuSans-79" d="M 2059 -325 
Q 1816 -950 1584 -1140 
Q 1353 -1331 966 -1331 
L 506 -1331 
L 506 -850 
L 844 -850 
Q 1081 -850 1212 -737 
Q 1344 -625 1503 -206 
L 1606 56 
L 191 3500 
L 800 3500 
L 1894 763 
L 2988 3500 
L 3597 3500 
L 2059 -325 
z
" transform="scale(0.015625)"/>
       </defs>
       <use xlink:href="#DejaVuSans-50"/>
       <use xlink:href="#DejaVuSans-69" transform="translate(58.052734 0)"/>
       <use xlink:href="#DejaVuSans-74" transform="translate(85.835938 0)"/>
       <use xlink:href="#DejaVuSans-63" transform="translate(125.044922 0)"/>
       <use xlink:href="#DejaVuSans-68" transform="translate(180.025391 0)"/>
       <use xlink:href="#DejaVuSans-20" transform="translate(243.404297 0)"/>
       <use xlink:href="#DejaVuSans-76" transform="translate(275.191406 0)"/>
       <use xlink:href="#DejaVuSans-61" transform="translate(334.371094 0)"/>
       <use xlink:href="#DejaVuSans-72" transform="translate(395.650391 0)"/>
       <use xlink:href="#DejaVuSans-69" transform="translate(436.763672 0)"/>
       <use xlink:href="#DejaVuSans-61" transform="translate(464.546875 0)"/>
       <use xlink:href="#DejaVuSans-62" transform="translate(525.826172 0)"/>
       <use xlink:href="#DejaVuSans-69" transform="translate(589.302734 0)"/>
       <use xlink:href="#DejaVuSans-6c" transform="translate(617.085938 0)"/>
       <use xlink:href="#DejaVuSans-69" transform="translate(644.869141 0)"/>
       <use xlink:href="#DejaVuSans-74" transform="translate(672.652344 0)"/>
       <use xlink:href="#DejaVuSans-79" transform="translate(711.861328 0)"/>
      </g>
     </g>
    </g>
   </g>
   <g id="matplotlib.axis_2">
    <g id="ytick_1">
     <g id="line2d_3">
      <path d="M 43.81125 328.987242 
L 218.52125 328.987242 
" clip-path="url(#pd16200c83a)" style="fill: none; stroke: #b0b0b0; stroke-opacity: 0.2; stroke-width: 0.6; stroke-linecap: square"/>
     </g>
     <g id="line2d_4">
      <defs>
       <path id="m3f23558454" d="M 0 0 
L -3.5 0 
" style="stroke: #000000; stroke-width: 0.8"/>
      </defs>
      <g>
       <use xlink:href="#m3f23558454" x="43.81125" y="328.987242" style="stroke: #000000; stroke-width: 0.8"/>
      </g>
     </g>
     <g id="text_2">
      <!-- 2 -->
      <g transform="translate(29.8125 333.166383) scale(0.11 -0.11)">
       <defs>
        <path id="DejaVuSans-32" d="M 1228 531 
L 3431 531 
L 3431 0 
L 469 0 
L 469 531 
Q 828 903 1448 1529 
Q 2069 2156 2228 2338 
Q 2531 2678 2651 2914 
Q 2772 3150 2772 3378 
Q 2772 3750 2511 3984 
Q 2250 4219 1831 4219 
Q 1534 4219 1204 4116 
Q 875 4013 500 3803 
L 500 4441 
Q 881 4594 1212 4672 
Q 1544 4750 1819 4750 
Q 2544 4750 2975 4387 
Q 3406 4025 3406 3419 
Q 3406 3131 3298 2873 
Q 3191 2616 2906 2266 
Q 2828 2175 2409 1742 
Q 1991 1309 1228 531 
z
" transform="scale(0.015625)"/>
       </defs>
       <use xlink:href="#DejaVuSans-32"/>
      </g>
     </g>
    </g>
    <g id="ytick_2">
     <g id="line2d_5">
      <path d="M 43.81125 293.12533 
L 218.52125 293.12533 
" clip-path="url(#pd16200c83a)" style="fill: none; stroke: #b0b0b0; stroke-opacity: 0.2; stroke-width: 0.6; stroke-linecap: square"/>
     </g>
     <g id="line2d_6">
      <g>
       <use xlink:href="#m3f23558454" x="43.81125" y="293.12533" style="stroke: #000000; stroke-width: 0.8"/>
      </g>
     </g>
     <g id="text_3">
      <!-- 4 -->
      <g transform="translate(29.8125 297.304471) scale(0.11 -0.11)">
       <defs>
        <path id="DejaVuSans-34" d="M 2419 4116 
L 825 1625 
L 2419 1625 
L 2419 4116 
z
M 2253 4666 
L 3047 4666 
L 3047 1625 
L 3713 1625 
L 3713 1100 
L 3047 1100 
L 3047 0 
L 2419 0 
L 2419 1100 
L 313 1100 
L 313 1709 
L 2253 4666 
z
" transform="scale(0.015625)"/>
       </defs>
       <use xlink:href="#DejaVuSans-34"/>
      </g>
     </g>
    </g>
    <g id="ytick_3">
     <g id="line2d_7">
      <path d="M 43.81125 257.263418 
L 218.52125 257.263418 
" clip-path="url(#pd16200c83a)" style="fill: none; stroke: #b0b0b0; stroke-opacity: 0.2; stroke-width: 0.6; stroke-linecap: square"/>
     </g>
     <g id="line2d_8">
      <g>
       <use xlink:href="#m3f23558454" x="43.81125" y="257.263418" style="stroke: #000000; stroke-width: 0.8"/>
      </g>
     </g>
     <g id="text_4">
      <!-- 6 -->
      <g transform="translate(29.8125 261.442559) scale(0.11 -0.11)">
       <defs>
        <path id="DejaVuSans-36" d="M 2113 2584 
Q 1688 2584 1439 2293 
Q 1191 2003 1191 1497 
Q 1191 994 1439 701 
Q 1688 409 2113 409 
Q 2538 409 2786 701 
Q 3034 994 3034 1497 
Q 3034 2003 2786 2293 
Q 2538 2584 2113 2584 
z
M 3366 4563 
L 3366 3988 
Q 3128 4100 2886 4159 
Q 2644 4219 2406 4219 
Q 1781 4219 1451 3797 
Q 1122 3375 1075 2522 
Q 1259 2794 1537 2939 
Q 1816 3084 2150 3084 
Q 2853 3084 3261 2657 
Q 3669 2231 3669 1497 
Q 3669 778 3244 343 
Q 2819 -91 2113 -91 
Q 1303 -91 875 529 
Q 447 1150 447 2328 
Q 447 3434 972 4092 
Q 1497 4750 2381 4750 
Q 2619 4750 2861 4703 
Q 3103 4656 3366 4563 
z
" transform="scale(0.015625)"/>
       </defs>
       <use xlink:href="#DejaVuSans-36"/>
      </g>
     </g>
    </g>
    <g id="ytick_4">
     <g id="line2d_9">
      <path d="M 43.81125 221.401506 
L 218.52125 221.401506 
" clip-path="url(#pd16200c83a)" style="fill: none; stroke: #b0b0b0; stroke-opacity: 0.2; stroke-width: 0.6; stroke-linecap: square"/>
     </g>
     <g id="line2d_10">
      <g>
       <use xlink:href="#m3f23558454" x="43.81125" y="221.401506" style="stroke: #000000; stroke-width: 0.8"/>
      </g>
     </g>
     <g id="text_5">
      <!-- 8 -->
      <g transform="translate(29.8125 225.580647) scale(0.11 -0.11)">
       <defs>
        <path id="DejaVuSans-38" d="M 2034 2216 
Q 1584 2216 1326 1975 
Q 1069 1734 1069 1313 
Q 1069 891 1326 650 
Q 1584 409 2034 409 
Q 2484 409 2743 651 
Q 3003 894 3003 1313 
Q 3003 1734 2745 1975 
Q 2488 2216 2034 2216 
z
M 1403 2484 
Q 997 2584 770 2862 
Q 544 3141 544 3541 
Q 544 4100 942 4425 
Q 1341 4750 2034 4750 
Q 2731 4750 3128 4425 
Q 3525 4100 3525 3541 
Q 3525 3141 3298 2862 
Q 3072 2584 2669 2484 
Q 3125 2378 3379 2068 
Q 3634 1759 3634 1313 
Q 3634 634 3220 271 
Q 2806 -91 2034 -91 
Q 1263 -91 848 271 
Q 434 634 434 1313 
Q 434 1759 690 2068 
Q 947 2378 1403 2484 
z
M 1172 3481 
Q 1172 3119 1398 2916 
Q 1625 2713 2034 2713 
Q 2441 2713 2670 2916 
Q 2900 3119 2900 3481 
Q 2900 3844 2670 4047 
Q 2441 4250 2034 4250 
Q 1625 4250 1398 4047 
Q 1172 3844 1172 3481 
z
" transform="scale(0.015625)"/>
       </defs>
       <use xlink:href="#DejaVuSans-38"/>
      </g>
     </g>
    </g>
    <g id="ytick_5">
     <g id="line2d_11">
      <path d="M 43.81125 185.539594 
L 218.52125 185.539594 
" clip-path="url(#pd16200c83a)" style="fill: none; stroke: #b0b0b0; stroke-opacity: 0.2; stroke-width: 0.6; stroke-linecap: square"/>
     </g>
     <g id="line2d_12">
      <g>
       <use xlink:href="#m3f23558454" x="43.81125" y="185.539594" style="stroke: #000000; stroke-width: 0.8"/>
      </g>
     </g>
     <g id="text_6">
      <!-- 10 -->
      <g transform="translate(22.81375 189.718735) scale(0.11 -0.11)">
       <defs>
        <path id="DejaVuSans-31" d="M 794 531 
L 1825 531 
L 1825 4091 
L 703 3866 
L 703 4441 
L 1819 4666 
L 2450 4666 
L 2450 531 
L 3481 531 
L 3481 0 
L 794 0 
L 794 531 
z
" transform="scale(0.015625)"/>
        <path id="DejaVuSans-30" d="M 2034 4250 
Q 1547 4250 1301 3770 
Q 1056 3291 1056 2328 
Q 1056 1369 1301 889 
Q 1547 409 2034 409 
Q 2525 409 2770 889 
Q 3016 1369 3016 2328 
Q 3016 3291 2770 3770 
Q 2525 4250 2034 4250 
z
M 2034 4750 
Q 2819 4750 3233 4129 
Q 3647 3509 3647 2328 
Q 3647 1150 3233 529 
Q 2819 -91 2034 -91 
Q 1250 -91 836 529 
Q 422 1150 422 2328 
Q 422 3509 836 4129 
Q 1250 4750 2034 4750 
z
" transform="scale(0.015625)"/>
       </defs>
       <use xlink:href="#DejaVuSans-31"/>
       <use xlink:href="#DejaVuSans-30" transform="translate(63.623047 0)"/>
      </g>
     </g>
    </g>
    <g id="ytick_6">
     <g id="line2d_13">
      <path d="M 43.81125 149.677682 
L 218.52125 149.677682 
" clip-path="url(#pd16200c83a)" style="fill: none; stroke: #b0b0b0; stroke-opacity: 0.2; stroke-width: 0.6; stroke-linecap: square"/>
     </g>
     <g id="line2d_14">
      <g>
       <use xlink:href="#m3f23558454" x="43.81125" y="149.677682" style="stroke: #000000; stroke-width: 0.8"/>
      </g>
     </g>
     <g id="text_7">
      <!-- 12 -->
      <g transform="translate(22.81375 153.856823) scale(0.11 -0.11)">
       <use xlink:href="#DejaVuSans-31"/>
       <use xlink:href="#DejaVuSans-32" transform="translate(63.623047 0)"/>
      </g>
     </g>
    </g>
    <g id="ytick_7">
     <g id="line2d_15">
      <path d="M 43.81125 113.81577 
L 218.52125 113.81577 
" clip-path="url(#pd16200c83a)" style="fill: none; stroke: #b0b0b0; stroke-opacity: 0.2; stroke-width: 0.6; stroke-linecap: square"/>
     </g>
     <g id="line2d_16">
      <g>
       <use xlink:href="#m3f23558454" x="43.81125" y="113.81577" style="stroke: #000000; stroke-width: 0.8"/>
      </g>
     </g>
     <g id="text_8">
      <!-- 14 -->
      <g transform="translate(22.81375 117.994911) scale(0.11 -0.11)">
       <use xlink:href="#DejaVuSans-31"/>
       <use xlink:href="#DejaVuSans-34" transform="translate(63.623047 0)"/>
      </g>
     </g>
    </g>
    <g id="ytick_8">
     <g id="line2d_17">
      <path d="M 43.81125 77.953858 
L 218.52125 77.953858 
" clip-path="url(#pd16200c83a)" style="fill: none; stroke: #b0b0b0; stroke-opacity: 0.2; stroke-width: 0.6; stroke-linecap: square"/>
     </g>
     <g id="line2d_18">
      <g>
       <use xlink:href="#m3f23558454" x="43.81125" y="77.953858" style="stroke: #000000; stroke-width: 0.8"/>
      </g>
     </g>
     <g id="text_9">
      <!-- 16 -->
      <g transform="translate(22.81375 82.132998) scale(0.11 -0.11)">
       <use xlink:href="#DejaVuSans-31"/>
       <use xlink:href="#DejaVuSans-36" transform="translate(63.623047 0)"/>
      </g>
     </g>
    </g>
    <g id="ytick_9">
     <g id="line2d_19">
      <path d="M 43.81125 42.091946 
L 218.52125 42.091946 
" clip-path="url(#pd16200c83a)" style="fill: none; stroke: #b0b0b0; stroke-opacity: 0.2; stroke-width: 0.6; stroke-linecap: square"/>
     </g>
     <g id="line2d_20">
      <g>
       <use xlink:href="#m3f23558454" x="43.81125" y="42.091946" style="stroke: #000000; stroke-width: 0.8"/>
      </g>
     </g>
     <g id="text_10">
      <!-- 18 -->
      <g transform="translate(22.81375 46.271086) scale(0.11 -0.11)">
       <use xlink:href="#DejaVuSans-31"/>
       <use xlink:href="#DejaVuSans-38" transform="translate(63.623047 0)"/>
      </g>
     </g>
    </g>
    <g id="text_11">
     <!-- semitones -->
     <g transform="translate(16.318125 219.090564) rotate(-90) scale(0.12 -0.12)">
      <defs>
       <path id="DejaVuSans-73" d="M 2834 3397 
L 2834 2853 
Q 2591 2978 2328 3040 
Q 2066 3103 1784 3103 
Q 1356 3103 1142 2972 
Q 928 2841 928 2578 
Q 928 2378 1081 2264 
Q 1234 2150 1697 2047 
L 1894 2003 
Q 2506 1872 2764 1633 
Q 3022 1394 3022 966 
Q 3022 478 2636 193 
Q 2250 -91 1575 -91 
Q 1294 -91 989 -36 
Q 684 19 347 128 
L 347 722 
Q 666 556 975 473 
Q 1284 391 1588 391 
Q 1994 391 2212 530 
Q 2431 669 2431 922 
Q 2431 1156 2273 1281 
Q 2116 1406 1581 1522 
L 1381 1569 
Q 847 1681 609 1914 
Q 372 2147 372 2553 
Q 372 3047 722 3315 
Q 1072 3584 1716 3584 
Q 2034 3584 2315 3537 
Q 2597 3491 2834 3397 
z
" transform="scale(0.015625)"/>
       <path id="DejaVuSans-65" d="M 3597 1894 
L 3597 1613 
L 953 1613 
Q 991 1019 1311 708 
Q 1631 397 2203 397 
Q 2534 397 2845 478 
Q 3156 559 3463 722 
L 3463 178 
Q 3153 47 2828 -22 
Q 2503 -91 2169 -91 
Q 1331 -91 842 396 
Q 353 884 353 1716 
Q 353 2575 817 3079 
Q 1281 3584 2069 3584 
Q 2775 3584 3186 3129 
Q 3597 2675 3597 1894 
z
M 3022 2063 
Q 3016 2534 2758 2815 
Q 2500 3097 2075 3097 
Q 1594 3097 1305 2825 
Q 1016 2553 972 2059 
L 3022 2063 
z
" transform="scale(0.015625)"/>
       <path id="DejaVuSans-6d" d="M 3328 2828 
Q 3544 3216 3844 3400 
Q 4144 3584 4550 3584 
Q 5097 3584 5394 3201 
Q 5691 2819 5691 2113 
L 5691 0 
L 5113 0 
L 5113 2094 
Q 5113 2597 4934 2840 
Q 4756 3084 4391 3084 
Q 3944 3084 3684 2787 
Q 3425 2491 3425 1978 
L 3425 0 
L 2847 0 
L 2847 2094 
Q 2847 2600 2669 2842 
Q 2491 3084 2119 3084 
Q 1678 3084 1418 2786 
Q 1159 2488 1159 1978 
L 1159 0 
L 581 0 
L 581 3500 
L 1159 3500 
L 1159 2956 
Q 1356 3278 1631 3431 
Q 1906 3584 2284 3584 
Q 2666 3584 2933 3390 
Q 3200 3197 3328 2828 
z
" transform="scale(0.015625)"/>
       <path id="DejaVuSans-6f" d="M 1959 3097 
Q 1497 3097 1228 2736 
Q 959 2375 959 1747 
Q 959 1119 1226 758 
Q 1494 397 1959 397 
Q 2419 397 2687 759 
Q 2956 1122 2956 1747 
Q 2956 2369 2687 2733 
Q 2419 3097 1959 3097 
z
M 1959 3584 
Q 2709 3584 3137 3096 
Q 3566 2609 3566 1747 
Q 3566 888 3137 398 
Q 2709 -91 1959 -91 
Q 1206 -91 779 398 
Q 353 888 353 1747 
Q 353 2609 779 3096 
Q 1206 3584 1959 3584 
z
" transform="scale(0.015625)"/>
       <path id="DejaVuSans-6e" d="M 3513 2113 
L 3513 0 
L 2938 0 
L 2938 2094 
Q 2938 2591 2744 2837 
Q 2550 3084 2163 3084 
Q 1697 3084 1428 2787 
Q 1159 2491 1159 1978 
L 1159 0 
L 581 0 
L 581 3500 
L 1159 3500 
L 1159 2956 
Q 1366 3272 1645 3428 
Q 1925 3584 2291 3584 
Q 2894 3584 3203 3211 
Q 3513 2838 3513 2113 
z
" transform="scale(0.015625)"/>
      </defs>
      <use xlink:href="#DejaVuSans-73"/>
      <use xlink:href="#DejaVuSans-65" transform="translate(52.099609 0)"/>
      <use xlink:href="#DejaVuSans-6d" transform="translate(113.623047 0)"/>
      <use xlink:href="#DejaVuSans-69" transform="translate(211.035156 0)"/>
      <use xlink:href="#DejaVuSans-74" transform="translate(238.818359 0)"/>
      <use xlink:href="#DejaVuSans-6f" transform="translate(278.027344 0)"/>
      <use xlink:href="#DejaVuSans-6e" transform="translate(339.208984 0)"/>
      <use xlink:href="#DejaVuSans-65" transform="translate(402.587891 0)"/>
      <use xlink:href="#DejaVuSans-73" transform="translate(464.111328 0)"/>
     </g>
    </g>
   </g>
   <g id="FillBetweenPolyCollection_1">
    <defs>
     <path id="m9496fddfa6" d="M 168.481709 -66.598421 
L 93.850791 -66.598421 
L 90.057702 -69.362204 
L 86.196425 -72.125987 
L 82.315041 -74.88977 
L 78.465369 -77.653554 
L 74.701538 -80.417337 
L 71.078356 -83.18112 
L 67.64954 -85.944903 
L 64.465902 -88.708687 
L 61.573568 -91.47247 
L 59.012344 -94.236253 
L 56.814313 -97.000037 
L 55.002761 -99.76382 
L 53.591481 -102.527603 
L 52.58452 -105.291386 
L 51.976373 -108.05517 
L 51.752614 -110.818953 
L 51.890929 -113.582736 
L 52.362472 -116.346519 
L 53.133462 -119.110303 
L 54.16691 -121.874086 
L 55.424376 -124.637869 
L 56.867626 -127.401653 
L 58.460112 -130.165436 
L 60.168189 -132.929219 
L 61.962 -135.693002 
L 63.81602 -138.456786 
L 65.709244 -141.220569 
L 67.625046 -143.984352 
L 69.550771 -146.748135 
L 71.477108 -149.511919 
L 73.397331 -152.275702 
L 75.306485 -155.039485 
L 77.200606 -157.803269 
L 79.076016 -160.567052 
L 80.928785 -163.330835 
L 82.754357 -166.094618 
L 84.54739 -168.858402 
L 86.301789 -171.622185 
L 88.010921 -174.385968 
L 89.667971 -177.149751 
L 91.266403 -179.913535 
L 92.800473 -182.677318 
L 94.265722 -185.441101 
L 95.659432 -188.204885 
L 96.980958 -190.968668 
L 98.231938 -193.732451 
L 99.41633 -196.496234 
L 100.540279 -199.260018 
L 101.611826 -202.023801 
L 102.640456 -204.787584 
L 103.636547 -207.551367 
L 104.610737 -210.315151 
L 105.573264 -213.078934 
L 106.533341 -215.842717 
L 107.498593 -218.606501 
L 108.474612 -221.370284 
L 109.464666 -224.134067 
L 110.469561 -226.89785 
L 111.487686 -229.661634 
L 112.515219 -232.425417 
L 113.546474 -235.1892 
L 114.57436 -237.952983 
L 115.590911 -240.716767 
L 116.587836 -243.48055 
L 117.55706 -246.244333 
L 118.491191 -249.008117 
L 119.383914 -251.7719 
L 120.230246 -254.535683 
L 121.026684 -257.299466 
L 121.771216 -260.06325 
L 122.463212 -262.827033 
L 123.103231 -265.590816 
L 123.692749 -268.354599 
L 124.233855 -271.118383 
L 124.728945 -273.882166 
L 125.180432 -276.645949 
L 125.590519 -279.409733 
L 125.961028 -282.173516 
L 126.293317 -284.937299 
L 126.588274 -287.701082 
L 126.846392 -290.464866 
L 127.067903 -293.228649 
L 127.252963 -295.992432 
L 127.401862 -298.756215 
L 127.515238 -301.519999 
L 127.594278 -304.283782 
L 127.640875 -307.047565 
L 127.657741 -309.811349 
L 127.648449 -312.575132 
L 127.617415 -315.338915 
L 127.569804 -318.102698 
L 127.511379 -320.866482 
L 127.448291 -323.630265 
L 127.386837 -326.394048 
L 127.333194 -329.157831 
L 127.293145 -331.921615 
L 127.271828 -334.685398 
L 127.273508 -337.449181 
L 127.301403 -340.212965 
L 135.031097 -340.212965 
L 135.031097 -340.212965 
L 135.058992 -337.449181 
L 135.060672 -334.685398 
L 135.039355 -331.921615 
L 134.999306 -329.157831 
L 134.945663 -326.394048 
L 134.884209 -323.630265 
L 134.821121 -320.866482 
L 134.762696 -318.102698 
L 134.715085 -315.338915 
L 134.684051 -312.575132 
L 134.674759 -309.811349 
L 134.691625 -307.047565 
L 134.738222 -304.283782 
L 134.817262 -301.519999 
L 134.930638 -298.756215 
L 135.079537 -295.992432 
L 135.264597 -293.228649 
L 135.486108 -290.464866 
L 135.744226 -287.701082 
L 136.039183 -284.937299 
L 136.371472 -282.173516 
L 136.741981 -279.409733 
L 137.152068 -276.645949 
L 137.603555 -273.882166 
L 138.098645 -271.118383 
L 138.639751 -268.354599 
L 139.229269 -265.590816 
L 139.869288 -262.827033 
L 140.561284 -260.06325 
L 141.305816 -257.299466 
L 142.102254 -254.535683 
L 142.948586 -251.7719 
L 143.841309 -249.008117 
L 144.77544 -246.244333 
L 145.744664 -243.48055 
L 146.741589 -240.716767 
L 147.75814 -237.952983 
L 148.786026 -235.1892 
L 149.817281 -232.425417 
L 150.844814 -229.661634 
L 151.862939 -226.89785 
L 152.867834 -224.134067 
L 153.857888 -221.370284 
L 154.833907 -218.606501 
L 155.799159 -215.842717 
L 156.759236 -213.078934 
L 157.721763 -210.315151 
L 158.695953 -207.551367 
L 159.692044 -204.787584 
L 160.720674 -202.023801 
L 161.792221 -199.260018 
L 162.91617 -196.496234 
L 164.100562 -193.732451 
L 165.351542 -190.968668 
L 166.673068 -188.204885 
L 168.066778 -185.441101 
L 169.532027 -182.677318 
L 171.066097 -179.913535 
L 172.664529 -177.149751 
L 174.321579 -174.385968 
L 176.030711 -171.622185 
L 177.78511 -168.858402 
L 179.578143 -166.094618 
L 181.403715 -163.330835 
L 183.256484 -160.567052 
L 185.131894 -157.803269 
L 187.026015 -155.039485 
L 188.935169 -152.275702 
L 190.855392 -149.511919 
L 192.781729 -146.748135 
L 194.707454 -143.984352 
L 196.623256 -141.220569 
L 198.51648 -138.456786 
L 200.3705 -135.693002 
L 202.164311 -132.929219 
L 203.872388 -130.165436 
L 205.464874 -127.401653 
L 206.908124 -124.637869 
L 208.16559 -121.874086 
L 209.199038 -119.110303 
L 209.970028 -116.346519 
L 210.441571 -113.582736 
L 210.579886 -110.818953 
L 210.356127 -108.05517 
L 209.74798 -105.291386 
L 208.741019 -102.527603 
L 207.329739 -99.76382 
L 205.518187 -97.000037 
L 203.320156 -94.236253 
L 200.758932 -91.47247 
L 197.866598 -88.708687 
L 194.68296 -85.944903 
L 191.254144 -83.18112 
L 187.630962 -80.417337 
L 183.867131 -77.653554 
L 180.017459 -74.88977 
L 176.136075 -72.125987 
L 172.274798 -69.362204 
L 168.481709 -66.598421 
z
" style="stroke: #0f766e; stroke-opacity: 0.35"/>
    </defs>
    <g clip-path="url(#pd16200c83a)">
     <use xlink:href="#m9496fddfa6" x="0" y="391.52407" style="fill: #0f766e; fill-opacity: 0.35; stroke: #0f766e; stroke-opacity: 0.35"/>
    </g>
   </g>
   <g id="LineCollection_1">
    <path d="M 91.459432 267.047072 
L 170.873068 267.047072 
" clip-path="url(#pd16200c83a)" style="fill: none; stroke: #0f766e; stroke-width: 1.5"/>
   </g>
   <g id="patch_3">
    <path d="M 43.81125 338.606376 
L 43.81125 37.630378 
" style="fill: none; stroke: #000000; stroke-width: 0.8; stroke-linejoin: miter; stroke-linecap: square"/>
   </g>
   <g id="patch_4">
    <path d="M 218.52125 338.606376 
L 218.52125 37.630378 
" style="fill: none; stroke: #000000; stroke-width: 0.8; stroke-linejoin: miter; stroke-linecap: square"/>
   </g>
   <g id="patch_5">
    <path d="M 43.81125 338.606376 
L 218.52125 338.606376 
" style="fill: none; stroke: #000000; stroke-width: 0.8; stroke-linejoin: miter; stroke-linecap: square"/>
   </g>
   <g id="patch_6">
    <path d="M 43.81125 37.630378 
L 218.52125 37.630378 
" style="fill: none; stroke: #000000; stroke-width: 0.8; stroke-linejoin: miter; stroke-linecap: square"/>
   </g>
   <g id="PathCollection_1">
    <defs>
     <path id="m13517c90c3" d="M -0 4.472136 
L 4.472136 0 
L 0 -4.472136 
L -4.472136 -0 
z
" style="stroke: #111827"/>
    </defs>
    <g clip-path="url(#pd16200c83a)">
     <use xlink:href="#m13517c90c3" x="131.16625" y="276.289316" style="fill: #111827; stroke: #111827"/>
    </g>
   </g>
  </g>
  <g id="axes_2">
   <g id="patch_7">
    <path d="M 269.39125 338.606376 
L 444.10125 338.606376 
L 444.10125 37.630378 
L 269.39125 37.630378 
z
" style="fill: #ffffff"/>
   </g>
   <g id="matplotlib.axis_3">
    <g id="xtick_2">
     <g id="line2d_21">
      <path d="M 356.74625 338.606376 
L 356.74625 37.630378 
" clip-path="url(#p93e125f05c)" style="fill: none; stroke: #b0b0b0; stroke-opacity: 0.2; stroke-width: 0.6; stroke-linecap: square"/>
     </g>
     <g id="line2d_22">
      <g>
       <use xlink:href="#m427d06e0f2" x="356.74625" y="338.606376" style="stroke: #000000; stroke-width: 0.8"/>
      </g>
     </g>
     <g id="text_12">
      <!-- Loudness variability -->
      <g transform="translate(250.035135 382.114363) rotate(-15) scale(0.11 -0.11)">
       <defs>
        <path id="DejaVuSans-4c" d="M 628 4666 
L 1259 4666 
L 1259 531 
L 3531 531 
L 3531 0 
L 628 0 
L 628 4666 
z
" transform="scale(0.015625)"/>
        <path id="DejaVuSans-75" d="M 544 1381 
L 544 3500 
L 1119 3500 
L 1119 1403 
Q 1119 906 1312 657 
Q 1506 409 1894 409 
Q 2359 409 2629 706 
Q 2900 1003 2900 1516 
L 2900 3500 
L 3475 3500 
L 3475 0 
L 2900 0 
L 2900 538 
Q 2691 219 2414 64 
Q 2138 -91 1772 -91 
Q 1169 -91 856 284 
Q 544 659 544 1381 
z
M 1991 3584 
L 1991 3584 
z
" transform="scale(0.015625)"/>
        <path id="DejaVuSans-64" d="M 2906 2969 
L 2906 4863 
L 3481 4863 
L 3481 0 
L 2906 0 
L 2906 525 
Q 2725 213 2448 61 
Q 2172 -91 1784 -91 
Q 1150 -91 751 415 
Q 353 922 353 1747 
Q 353 2572 751 3078 
Q 1150 3584 1784 3584 
Q 2172 3584 2448 3432 
Q 2725 3281 2906 2969 
z
M 947 1747 
Q 947 1113 1208 752 
Q 1469 391 1925 391 
Q 2381 391 2643 752 
Q 2906 1113 2906 1747 
Q 2906 2381 2643 2742 
Q 2381 3103 1925 3103 
Q 1469 3103 1208 2742 
Q 947 2381 947 1747 
z
" transform="scale(0.015625)"/>
       </defs>
       <use xlink:href="#DejaVuSans-4c"/>
       <use xlink:href="#DejaVuSans-6f" transform="translate(53.962891 0)"/>
       <use xlink:href="#DejaVuSans-75" transform="translate(115.144531 0)"/>
       <use xlink:href="#DejaVuSans-64" transform="translate(178.523438 0)"/>
       <use xlink:href="#DejaVuSans-6e" transform="translate(242 0)"/>
       <use xlink:href="#DejaVuSans-65" transform="translate(305.378906 0)"/>
       <use xlink:href="#DejaVuSans-73" transform="translate(366.902344 0)"/>
       <use xlink:href="#DejaVuSans-73" transform="translate(419.001953 0)"/>
       <use xlink:href="#DejaVuSans-20" transform="translate(471.101562 0)"/>
       <use xlink:href="#DejaVuSans-76" transform="translate(502.888672 0)"/>
       <use xlink:href="#DejaVuSans-61" transform="translate(562.068359 0)"/>
       <use xlink:href="#DejaVuSans-72" transform="translate(623.347656 0)"/>
       <use xlink:href="#DejaVuSans-69" transform="translate(664.460938 0)"/>
       <use xlink:href="#DejaVuSans-61" transform="translate(692.244141 0)"/>
       <use xlink:href="#DejaVuSans-62" transform="translate(753.523438 0)"/>
       <use xlink:href="#DejaVuSans-69" transform="translate(817 0)"/>
       <use xlink:href="#DejaVuSans-6c" transform="translate(844.783203 0)"/>
       <use xlink:href="#DejaVuSans-69" transform="translate(872.566406 0)"/>
       <use xlink:href="#DejaVuSans-74" transform="translate(900.349609 0)"/>
       <use xlink:href="#DejaVuSans-79" transform="translate(939.558594 0)"/>
      </g>
     </g>
    </g>
   </g>
   <g id="matplotlib.axis_4">
    <g id="ytick_10">
     <g id="line2d_23">
      <path d="M 269.39125 319.899468 
L 444.10125 319.899468 
" clip-path="url(#p93e125f05c)" style="fill: none; stroke: #b0b0b0; stroke-opacity: 0.2; stroke-width: 0.6; stroke-linecap: square"/>
     </g>
     <g id="line2d_24">
      <g>
       <use xlink:href="#m3f23558454" x="269.39125" y="319.899468" style="stroke: #000000; stroke-width: 0.8"/>
      </g>
     </g>
     <g id="text_13">
      <!-- 0.8 -->
      <g transform="translate(244.897813 324.078608) scale(0.11 -0.11)">
       <defs>
        <path id="DejaVuSans-2e" d="M 684 794 
L 1344 794 
L 1344 0 
L 684 0 
L 684 794 
z
" transform="scale(0.015625)"/>
       </defs>
       <use xlink:href="#DejaVuSans-30"/>
       <use xlink:href="#DejaVuSans-2e" transform="translate(63.623047 0)"/>
       <use xlink:href="#DejaVuSans-38" transform="translate(95.410156 0)"/>
      </g>
     </g>
    </g>
    <g id="ytick_11">
     <g id="line2d_25">
      <path d="M 269.39125 271.811365 
L 444.10125 271.811365 
" clip-path="url(#p93e125f05c)" style="fill: none; stroke: #b0b0b0; stroke-opacity: 0.2; stroke-width: 0.6; stroke-linecap: square"/>
     </g>
     <g id="line2d_26">
      <g>
       <use xlink:href="#m3f23558454" x="269.39125" y="271.811365" style="stroke: #000000; stroke-width: 0.8"/>
      </g>
     </g>
     <g id="text_14">
      <!-- 1.0 -->
      <g transform="translate(244.897813 275.990506) scale(0.11 -0.11)">
       <use xlink:href="#DejaVuSans-31"/>
       <use xlink:href="#DejaVuSans-2e" transform="translate(63.623047 0)"/>
       <use xlink:href="#DejaVuSans-30" transform="translate(95.410156 0)"/>
      </g>
     </g>
    </g>
    <g id="ytick_12">
     <g id="line2d_27">
      <path d="M 269.39125 223.723263 
L 444.10125 223.723263 
" clip-path="url(#p93e125f05c)" style="fill: none; stroke: #b0b0b0; stroke-opacity: 0.2; stroke-width: 0.6; stroke-linecap: square"/>
     </g>
     <g id="line2d_28">
      <g>
       <use xlink:href="#m3f23558454" x="269.39125" y="223.723263" style="stroke: #000000; stroke-width: 0.8"/>
      </g>
     </g>
     <g id="text_15">
      <!-- 1.2 -->
      <g transform="translate(244.897813 227.902403) scale(0.11 -0.11)">
       <use xlink:href="#DejaVuSans-31"/>
       <use xlink:href="#DejaVuSans-2e" transform="translate(63.623047 0)"/>
       <use xlink:href="#DejaVuSans-32" transform="translate(95.410156 0)"/>
      </g>
     </g>
    </g>
    <g id="ytick_13">
     <g id="line2d_29">
      <path d="M 269.39125 175.63516 
L 444.10125 175.63516 
" clip-path="url(#p93e125f05c)" style="fill: none; stroke: #b0b0b0; stroke-opacity: 0.2; stroke-width: 0.6; stroke-linecap: square"/>
     </g>
     <g id="line2d_30">
      <g>
       <use xlink:href="#m3f23558454" x="269.39125" y="175.63516" style="stroke: #000000; stroke-width: 0.8"/>
      </g>
     </g>
     <g id="text_16">
      <!-- 1.4 -->
      <g transform="translate(244.897813 179.814301) scale(0.11 -0.11)">
       <use xlink:href="#DejaVuSans-31"/>
       <use xlink:href="#DejaVuSans-2e" transform="translate(63.623047 0)"/>
       <use xlink:href="#DejaVuSans-34" transform="translate(95.410156 0)"/>
      </g>
     </g>
    </g>
    <g id="ytick_14">
     <g id="line2d_31">
      <path d="M 269.39125 127.547057 
L 444.10125 127.547057 
" clip-path="url(#p93e125f05c)" style="fill: none; stroke: #b0b0b0; stroke-opacity: 0.2; stroke-width: 0.6; stroke-linecap: square"/>
     </g>
     <g id="line2d_32">
      <g>
       <use xlink:href="#m3f23558454" x="269.39125" y="127.547057" style="stroke: #000000; stroke-width: 0.8"/>
      </g>
     </g>
     <g id="text_17">
      <!-- 1.6 -->
      <g transform="translate(244.897813 131.726198) scale(0.11 -0.11)">
       <use xlink:href="#DejaVuSans-31"/>
       <use xlink:href="#DejaVuSans-2e" transform="translate(63.623047 0)"/>
       <use xlink:href="#DejaVuSans-36" transform="translate(95.410156 0)"/>
      </g>
     </g>
    </g>
    <g id="ytick_15">
     <g id="line2d_33">
      <path d="M 269.39125 79.458955 
L 444.10125 79.458955 
" clip-path="url(#p93e125f05c)" style="fill: none; stroke: #b0b0b0; stroke-opacity: 0.2; stroke-width: 0.6; stroke-linecap: square"/>
     </g>
     <g id="line2d_34">
      <g>
       <use xlink:href="#m3f23558454" x="269.39125" y="79.458955" style="stroke: #000000; stroke-width: 0.8"/>
      </g>
     </g>
     <g id="text_18">
      <!-- 1.8 -->
      <g transform="translate(244.897813 83.638095) scale(0.11 -0.11)">
       <use xlink:href="#DejaVuSans-31"/>
       <use xlink:href="#DejaVuSans-2e" transform="translate(63.623047 0)"/>
       <use xlink:href="#DejaVuSans-38" transform="translate(95.410156 0)"/>
      </g>
     </g>
    </g>
    <g id="text_19">
     <!-- normalized SD -->
     <g transform="translate(238.402188 231.794627) rotate(-90) scale(0.12 -0.12)">
      <defs>
       <path id="DejaVuSans-7a" d="M 353 3500 
L 3084 3500 
L 3084 2975 
L 922 459 
L 3084 459 
L 3084 0 
L 275 0 
L 275 525 
L 2438 3041 
L 353 3041 
L 353 3500 
z
" transform="scale(0.015625)"/>
       <path id="DejaVuSans-53" d="M 3425 4513 
L 3425 3897 
Q 3066 4069 2747 4153 
Q 2428 4238 2131 4238 
Q 1616 4238 1336 4038 
Q 1056 3838 1056 3469 
Q 1056 3159 1242 3001 
Q 1428 2844 1947 2747 
L 2328 2669 
Q 3034 2534 3370 2195 
Q 3706 1856 3706 1288 
Q 3706 609 3251 259 
Q 2797 -91 1919 -91 
Q 1588 -91 1214 -16 
Q 841 59 441 206 
L 441 856 
Q 825 641 1194 531 
Q 1563 422 1919 422 
Q 2459 422 2753 634 
Q 3047 847 3047 1241 
Q 3047 1584 2836 1778 
Q 2625 1972 2144 2069 
L 1759 2144 
Q 1053 2284 737 2584 
Q 422 2884 422 3419 
Q 422 4038 858 4394 
Q 1294 4750 2059 4750 
Q 2388 4750 2728 4690 
Q 3069 4631 3425 4513 
z
" transform="scale(0.015625)"/>
       <path id="DejaVuSans-44" d="M 1259 4147 
L 1259 519 
L 2022 519 
Q 2988 519 3436 956 
Q 3884 1394 3884 2338 
Q 3884 3275 3436 3711 
Q 2988 4147 2022 4147 
L 1259 4147 
z
M 628 4666 
L 1925 4666 
Q 3281 4666 3915 4102 
Q 4550 3538 4550 2338 
Q 4550 1131 3912 565 
Q 3275 0 1925 0 
L 628 0 
L 628 4666 
z
" transform="scale(0.015625)"/>
      </defs>
      <use xlink:href="#DejaVuSans-6e"/>
      <use xlink:href="#DejaVuSans-6f" transform="translate(63.378906 0)"/>
      <use xlink:href="#DejaVuSans-72" transform="translate(124.560547 0)"/>
      <use xlink:href="#DejaVuSans-6d" transform="translate(163.923828 0)"/>
      <use xlink:href="#DejaVuSans-61" transform="translate(261.335938 0)"/>
      <use xlink:href="#DejaVuSans-6c" transform="translate(322.615234 0)"/>
      <use xlink:href="#DejaVuSans-69" transform="translate(350.398438 0)"/>
      <use xlink:href="#DejaVuSans-7a" transform="translate(378.181641 0)"/>
      <use xlink:href="#DejaVuSans-65" transform="translate(430.671875 0)"/>
      <use xlink:href="#DejaVuSans-64" transform="translate(492.195312 0)"/>
      <use xlink:href="#DejaVuSans-20" transform="translate(555.671875 0)"/>
      <use xlink:href="#DejaVuSans-53" transform="translate(587.458984 0)"/>
      <use xlink:href="#DejaVuSans-44" transform="translate(650.935547 0)"/>
     </g>
    </g>
   </g>
   <g id="FillBetweenPolyCollection_2">
    <defs>
     <path id="mb9ee680852" d="M 415.090164 -66.598421 
L 298.402336 -66.598421 
L 295.673548 -69.362204 
L 293.093765 -72.125987 
L 290.681989 -74.88977 
L 288.454136 -77.653554 
L 286.422779 -80.417337 
L 284.597005 -83.18112 
L 282.98239 -85.944903 
L 281.581085 -88.708687 
L 280.39201 -91.47247 
L 279.411141 -94.236253 
L 278.631873 -97.000037 
L 278.045437 -99.76382 
L 277.641355 -102.527603 
L 277.407911 -105.291386 
L 277.332614 -108.05517 
L 277.402634 -110.818953 
L 277.605209 -113.582736 
L 277.927988 -116.346519 
L 278.359322 -119.110303 
L 278.888488 -121.874086 
L 279.505853 -124.637869 
L 280.202966 -127.401653 
L 280.972604 -130.165436 
L 281.808759 -132.929219 
L 282.706587 -135.693002 
L 283.662322 -138.456786 
L 284.673166 -141.220569 
L 285.737159 -143.984352 
L 286.853043 -146.748135 
L 288.020112 -149.511919 
L 289.238068 -152.275702 
L 290.506871 -155.039485 
L 291.8266 -157.803269 
L 293.197305 -160.567052 
L 294.618878 -163.330835 
L 296.090919 -166.094618 
L 297.612614 -168.858402 
L 299.182617 -171.622185 
L 300.798952 -174.385968 
L 302.458919 -177.149751 
L 304.159025 -179.913535 
L 305.894939 -182.677318 
L 307.661461 -185.441101 
L 309.452539 -188.204885 
L 311.261298 -190.968668 
L 313.080115 -193.732451 
L 314.900722 -196.496234 
L 316.714342 -199.260018 
L 318.511846 -202.023801 
L 320.283941 -204.787584 
L 322.021366 -207.551367 
L 323.715098 -210.315151 
L 325.356559 -213.078934 
L 326.937808 -215.842717 
L 328.451721 -218.606501 
L 329.89214 -221.370284 
L 331.253989 -224.134067 
L 332.533361 -226.89785 
L 333.727552 -229.661634 
L 334.835065 -232.425417 
L 335.855573 -235.1892 
L 336.789842 -237.952983 
L 337.639627 -240.716767 
L 338.407549 -243.48055 
L 339.09695 -246.244333 
L 339.711745 -249.008117 
L 340.256275 -251.7719 
L 340.735166 -254.535683 
L 341.153212 -257.299466 
L 341.515269 -260.06325 
L 341.826174 -262.827033 
L 342.090698 -265.590816 
L 342.313512 -268.354599 
L 342.499182 -271.118383 
L 342.652179 -273.882166 
L 342.776905 -276.645949 
L 342.877725 -279.409733 
L 342.958998 -282.173516 
L 343.025109 -284.937299 
L 343.080485 -287.701082 
L 343.129601 -290.464866 
L 343.176974 -293.228649 
L 343.227125 -295.992432 
L 343.28454 -298.756215 
L 343.353606 -301.519999 
L 343.438532 -304.283782 
L 343.543267 -307.047565 
L 343.671408 -309.811349 
L 343.826112 -312.575132 
L 344.010015 -315.338915 
L 344.22515 -318.102698 
L 344.472899 -320.866482 
L 344.75394 -323.630265 
L 345.068237 -326.394048 
L 345.415028 -329.157831 
L 345.792856 -331.921615 
L 346.199606 -334.685398 
L 346.632563 -337.449181 
L 347.088493 -340.212965 
L 366.404007 -340.212965 
L 366.404007 -340.212965 
L 366.859937 -337.449181 
L 367.292894 -334.685398 
L 367.699644 -331.921615 
L 368.077472 -329.157831 
L 368.424263 -326.394048 
L 368.73856 -323.630265 
L 369.019601 -320.866482 
L 369.26735 -318.102698 
L 369.482485 -315.338915 
L 369.666388 -312.575132 
L 369.821092 -309.811349 
L 369.949233 -307.047565 
L 370.053968 -304.283782 
L 370.138894 -301.519999 
L 370.20796 -298.756215 
L 370.265375 -295.992432 
L 370.315526 -293.228649 
L 370.362899 -290.464866 
L 370.412015 -287.701082 
L 370.467391 -284.937299 
L 370.533502 -282.173516 
L 370.614775 -279.409733 
L 370.715595 -276.645949 
L 370.840321 -273.882166 
L 370.993318 -271.118383 
L 371.178988 -268.354599 
L 371.401802 -265.590816 
L 371.666326 -262.827033 
L 371.977231 -260.06325 
L 372.339288 -257.299466 
L 372.757334 -254.535683 
L 373.236225 -251.7719 
L 373.780755 -249.008117 
L 374.39555 -246.244333 
L 375.084951 -243.48055 
L 375.852873 -240.716767 
L 376.702658 -237.952983 
L 377.636927 -235.1892 
L 378.657435 -232.425417 
L 379.764948 -229.661634 
L 380.959139 -226.89785 
L 382.238511 -224.134067 
L 383.60036 -221.370284 
L 385.040779 -218.606501 
L 386.554692 -215.842717 
L 388.135941 -213.078934 
L 389.777402 -210.315151 
L 391.471134 -207.551367 
L 393.208559 -204.787584 
L 394.980654 -202.023801 
L 396.778158 -199.260018 
L 398.591778 -196.496234 
L 400.412385 -193.732451 
L 402.231202 -190.968668 
L 404.039961 -188.204885 
L 405.831039 -185.441101 
L 407.597561 -182.677318 
L 409.333475 -179.913535 
L 411.033581 -177.149751 
L 412.693548 -174.385968 
L 414.309883 -171.622185 
L 415.879886 -168.858402 
L 417.401581 -166.094618 
L 418.873622 -163.330835 
L 420.295195 -160.567052 
L 421.6659 -157.803269 
L 422.985629 -155.039485 
L 424.254432 -152.275702 
L 425.472388 -149.511919 
L 426.639457 -146.748135 
L 427.755341 -143.984352 
L 428.819334 -141.220569 
L 429.830178 -138.456786 
L 430.785913 -135.693002 
L 431.683741 -132.929219 
L 432.519896 -130.165436 
L 433.289534 -127.401653 
L 433.986647 -124.637869 
L 434.604012 -121.874086 
L 435.133178 -119.110303 
L 435.564512 -116.346519 
L 435.887291 -113.582736 
L 436.089866 -110.818953 
L 436.159886 -108.05517 
L 436.084589 -105.291386 
L 435.851145 -102.527603 
L 435.447063 -99.76382 
L 434.860627 -97.000037 
L 434.081359 -94.236253 
L 433.10049 -91.47247 
L 431.911415 -88.708687 
L 430.51011 -85.944903 
L 428.895495 -83.18112 
L 427.069721 -80.417337 
L 425.038364 -77.653554 
L 422.810511 -74.88977 
L 420.398735 -72.125987 
L 417.818952 -69.362204 
L 415.090164 -66.598421 
z
" style="stroke: #0f766e; stroke-opacity: 0.35"/>
    </defs>
    <g clip-path="url(#p93e125f05c)">
     <use xlink:href="#mb9ee680852" x="0" y="391.52407" style="fill: #0f766e; fill-opacity: 0.35; stroke: #0f766e; stroke-opacity: 0.35"/>
    </g>
   </g>
   <g id="LineCollection_2">
    <path d="M 317.039432 257.593446 
L 396.453068 257.593446 
" clip-path="url(#p93e125f05c)" style="fill: none; stroke: #0f766e; stroke-width: 1.5"/>
   </g>
   <g id="patch_8">
    <path d="M 269.39125 338.606376 
L 269.39125 37.630378 
" style="fill: none; stroke: #000000; stroke-width: 0.8; stroke-linejoin: miter; stroke-linecap: square"/>
   </g>
   <g id="patch_9">
    <path d="M 444.10125 338.606376 
L 444.10125 37.630378 
" style="fill: none; stroke: #000000; stroke-width: 0.8; stroke-linejoin: miter; stroke-linecap: square"/>
   </g>
   <g id="patch_10">
    <path d="M 269.39125 338.606376 
L 444.10125 338.606376 
" style="fill: none; stroke: #000000; stroke-width: 0.8; stroke-linejoin: miter; stroke-linecap: square"/>
   </g>
   <g id="patch_11">
    <path d="M 269.39125 37.630378 
L 444.10125 37.630378 
" style="fill: none; stroke: #000000; stroke-width: 0.8; stroke-linejoin: miter; stroke-linecap: square"/>
   </g>
   <g id="PathCollection_2">
    <g clip-path="url(#p93e125f05c)">
     <use xlink:href="#m13517c90c3" x="356.74625" y="258.212574" style="fill: #111827; stroke: #111827"/>
    </g>
   </g>
  </g>
  <g id="axes_3">
   <g id="patch_12">
    <path d="M 494.97125 338.606376 
L 669.68125 338.606376 
L 669.68125 37.630378 
L 494.97125 37.630378 
z
" style="fill: #ffffff"/>
   </g>
   <g id="matplotlib.axis_5">
    <g id="xtick_3">
     <g id="line2d_35">
      <path d="M 582.32625 338.606376 
L 582.32625 37.630378 
" clip-path="url(#p57669c4428)" style="fill: none; stroke: #b0b0b0; stroke-opacity: 0.2; stroke-width: 0.6; stroke-linecap: square"/>
     </g>
     <g id="line2d_36">
      <g>
       <use xlink:href="#m427d06e0f2" x="582.32625" y="338.606376" style="stroke: #000000; stroke-width: 0.8"/>
      </g>
     </g>
     <g id="text_20">
      <!-- Speech rate -->
      <g transform="translate(517.632757 370.855775) rotate(-15) scale(0.11 -0.11)">
       <defs>
        <path id="DejaVuSans-70" d="M 1159 525 
L 1159 -1331 
L 581 -1331 
L 581 3500 
L 1159 3500 
L 1159 2969 
Q 1341 3281 1617 3432 
Q 1894 3584 2278 3584 
Q 2916 3584 3314 3078 
Q 3713 2572 3713 1747 
Q 3713 922 3314 415 
Q 2916 -91 2278 -91 
Q 1894 -91 1617 61 
Q 1341 213 1159 525 
z
M 3116 1747 
Q 3116 2381 2855 2742 
Q 2594 3103 2138 3103 
Q 1681 3103 1420 2742 
Q 1159 2381 1159 1747 
Q 1159 1113 1420 752 
Q 1681 391 2138 391 
Q 2594 391 2855 752 
Q 3116 1113 3116 1747 
z
" transform="scale(0.015625)"/>
       </defs>
       <use xlink:href="#DejaVuSans-53"/>
       <use xlink:href="#DejaVuSans-70" transform="translate(63.476562 0)"/>
       <use xlink:href="#DejaVuSans-65" transform="translate(126.953125 0)"/>
       <use xlink:href="#DejaVuSans-65" transform="translate(188.476562 0)"/>
       <use xlink:href="#DejaVuSans-63" transform="translate(250 0)"/>
       <use xlink:href="#DejaVuSans-68" transform="translate(304.980469 0)"/>
       <use xlink:href="#DejaVuSans-20" transform="translate(368.359375 0)"/>
       <use xlink:href="#DejaVuSans-72" transform="translate(400.146484 0)"/>
       <use xlink:href="#DejaVuSans-61" transform="translate(441.259766 0)"/>
       <use xlink:href="#DejaVuSans-74" transform="translate(502.539062 0)"/>
       <use xlink:href="#DejaVuSans-65" transform="translate(541.748047 0)"/>
      </g>
     </g>
    </g>
   </g>
   <g id="matplotlib.axis_6">
    <g id="ytick_16">
     <g id="line2d_37">
      <path d="M 494.97125 281.118253 
L 669.68125 281.118253 
" clip-path="url(#p57669c4428)" style="fill: none; stroke: #b0b0b0; stroke-opacity: 0.2; stroke-width: 0.6; stroke-linecap: square"/>
     </g>
     <g id="line2d_38">
      <g>
       <use xlink:href="#m3f23558454" x="494.97125" y="281.118253" style="stroke: #000000; stroke-width: 0.8"/>
      </g>
     </g>
     <g id="text_21">
      <!-- 1.0 -->
      <g transform="translate(470.477813 285.297393) scale(0.11 -0.11)">
       <use xlink:href="#DejaVuSans-31"/>
       <use xlink:href="#DejaVuSans-2e" transform="translate(63.623047 0)"/>
       <use xlink:href="#DejaVuSans-30" transform="translate(95.410156 0)"/>
      </g>
     </g>
    </g>
    <g id="ytick_17">
     <g id="line2d_39">
      <path d="M 494.97125 220.525037 
L 669.68125 220.525037 
" clip-path="url(#p57669c4428)" style="fill: none; stroke: #b0b0b0; stroke-opacity: 0.2; stroke-width: 0.6; stroke-linecap: square"/>
     </g>
     <g id="line2d_40">
      <g>
       <use xlink:href="#m3f23558454" x="494.97125" y="220.525037" style="stroke: #000000; stroke-width: 0.8"/>
      </g>
     </g>
     <g id="text_22">
      <!-- 1.5 -->
      <g transform="translate(470.477813 224.704177) scale(0.11 -0.11)">
       <defs>
        <path id="DejaVuSans-35" d="M 691 4666 
L 3169 4666 
L 3169 4134 
L 1269 4134 
L 1269 2991 
Q 1406 3038 1543 3061 
Q 1681 3084 1819 3084 
Q 2600 3084 3056 2656 
Q 3513 2228 3513 1497 
Q 3513 744 3044 326 
Q 2575 -91 1722 -91 
Q 1428 -91 1123 -41 
Q 819 9 494 109 
L 494 744 
Q 775 591 1075 516 
Q 1375 441 1709 441 
Q 2250 441 2565 725 
Q 2881 1009 2881 1497 
Q 2881 1984 2565 2268 
Q 2250 2553 1709 2553 
Q 1456 2553 1204 2497 
Q 953 2441 691 2322 
L 691 4666 
z
" transform="scale(0.015625)"/>
       </defs>
       <use xlink:href="#DejaVuSans-31"/>
       <use xlink:href="#DejaVuSans-2e" transform="translate(63.623047 0)"/>
       <use xlink:href="#DejaVuSans-35" transform="translate(95.410156 0)"/>
      </g>
     </g>
    </g>
    <g id="ytick_18">
     <g id="line2d_41">
      <path d="M 494.97125 159.931821 
L 669.68125 159.931821 
" clip-path="url(#p57669c4428)" style="fill: none; stroke: #b0b0b0; stroke-opacity: 0.2; stroke-width: 0.6; stroke-linecap: square"/>
     </g>
     <g id="line2d_42">
      <g>
       <use xlink:href="#m3f23558454" x="494.97125" y="159.931821" style="stroke: #000000; stroke-width: 0.8"/>
      </g>
     </g>
     <g id="text_23">
      <!-- 2.0 -->
      <g transform="translate(470.477813 164.110961) scale(0.11 -0.11)">
       <use xlink:href="#DejaVuSans-32"/>
       <use xlink:href="#DejaVuSans-2e" transform="translate(63.623047 0)"/>
       <use xlink:href="#DejaVuSans-30" transform="translate(95.410156 0)"/>
      </g>
     </g>
    </g>
    <g id="ytick_19">
     <g id="line2d_43">
      <path d="M 494.97125 99.338605 
L 669.68125 99.338605 
" clip-path="url(#p57669c4428)" style="fill: none; stroke: #b0b0b0; stroke-opacity: 0.2; stroke-width: 0.6; stroke-linecap: square"/>
     </g>
     <g id="line2d_44">
      <g>
       <use xlink:href="#m3f23558454" x="494.97125" y="99.338605" style="stroke: #000000; stroke-width: 0.8"/>
      </g>
     </g>
     <g id="text_24">
      <!-- 2.5 -->
      <g transform="translate(470.477813 103.517745) scale(0.11 -0.11)">
       <use xlink:href="#DejaVuSans-32"/>
       <use xlink:href="#DejaVuSans-2e" transform="translate(63.623047 0)"/>
       <use xlink:href="#DejaVuSans-35" transform="translate(95.410156 0)"/>
      </g>
     </g>
    </g>
    <g id="ytick_20">
     <g id="line2d_45">
      <path d="M 494.97125 38.745389 
L 669.68125 38.745389 
" clip-path="url(#p57669c4428)" style="fill: none; stroke: #b0b0b0; stroke-opacity: 0.2; stroke-width: 0.6; stroke-linecap: square"/>
     </g>
     <g id="line2d_46">
      <g>
       <use xlink:href="#m3f23558454" x="494.97125" y="38.745389" style="stroke: #000000; stroke-width: 0.8"/>
      </g>
     </g>
     <g id="text_25">
      <!-- 3.0 -->
      <g transform="translate(470.477813 42.924529) scale(0.11 -0.11)">
       <defs>
        <path id="DejaVuSans-33" d="M 2597 2516 
Q 3050 2419 3304 2112 
Q 3559 1806 3559 1356 
Q 3559 666 3084 287 
Q 2609 -91 1734 -91 
Q 1441 -91 1130 -33 
Q 819 25 488 141 
L 488 750 
Q 750 597 1062 519 
Q 1375 441 1716 441 
Q 2309 441 2620 675 
Q 2931 909 2931 1356 
Q 2931 1769 2642 2001 
Q 2353 2234 1838 2234 
L 1294 2234 
L 1294 2753 
L 1863 2753 
Q 2328 2753 2575 2939 
Q 2822 3125 2822 3475 
Q 2822 3834 2567 4026 
Q 2313 4219 1838 4219 
Q 1578 4219 1281 4162 
Q 984 4106 628 3988 
L 628 4550 
Q 988 4650 1302 4700 
Q 1616 4750 1894 4750 
Q 2613 4750 3031 4423 
Q 3450 4097 3450 3541 
Q 3450 3153 3228 2886 
Q 3006 2619 2597 2516 
z
" transform="scale(0.015625)"/>
       </defs>
       <use xlink:href="#DejaVuSans-33"/>
       <use xlink:href="#DejaVuSans-2e" transform="translate(63.623047 0)"/>
       <use xlink:href="#DejaVuSans-30" transform="translate(95.410156 0)"/>
      </g>
     </g>
    </g>
    <g id="text_26">
     <!-- segments / second -->
     <g transform="translate(463.982188 244.795877) rotate(-90) scale(0.12 -0.12)">
      <defs>
       <path id="DejaVuSans-67" d="M 2906 1791 
Q 2906 2416 2648 2759 
Q 2391 3103 1925 3103 
Q 1463 3103 1205 2759 
Q 947 2416 947 1791 
Q 947 1169 1205 825 
Q 1463 481 1925 481 
Q 2391 481 2648 825 
Q 2906 1169 2906 1791 
z
M 3481 434 
Q 3481 -459 3084 -895 
Q 2688 -1331 1869 -1331 
Q 1566 -1331 1297 -1286 
Q 1028 -1241 775 -1147 
L 775 -588 
Q 1028 -725 1275 -790 
Q 1522 -856 1778 -856 
Q 2344 -856 2625 -561 
Q 2906 -266 2906 331 
L 2906 616 
Q 2728 306 2450 153 
Q 2172 0 1784 0 
Q 1141 0 747 490 
Q 353 981 353 1791 
Q 353 2603 747 3093 
Q 1141 3584 1784 3584 
Q 2172 3584 2450 3431 
Q 2728 3278 2906 2969 
L 2906 3500 
L 3481 3500 
L 3481 434 
z
" transform="scale(0.015625)"/>
       <path id="DejaVuSans-2f" d="M 1625 4666 
L 2156 4666 
L 531 -594 
L 0 -594 
L 1625 4666 
z
" transform="scale(0.015625)"/>
      </defs>
      <use xlink:href="#DejaVuSans-73"/>
      <use xlink:href="#DejaVuSans-65" transform="translate(52.099609 0)"/>
      <use xlink:href="#DejaVuSans-67" transform="translate(113.623047 0)"/>
      <use xlink:href="#DejaVuSans-6d" transform="translate(177.099609 0)"/>
      <use xlink:href="#DejaVuSans-65" transform="translate(274.511719 0)"/>
      <use xlink:href="#DejaVuSans-6e" transform="translate(336.035156 0)"/>
      <use xlink:href="#DejaVuSans-74" transform="translate(399.414062 0)"/>
      <use xlink:href="#DejaVuSans-73" transform="translate(438.623047 0)"/>
      <use xlink:href="#DejaVuSans-20" transform="translate(490.722656 0)"/>
      <use xlink:href="#DejaVuSans-2f" transform="translate(522.509766 0)"/>
      <use xlink:href="#DejaVuSans-20" transform="translate(556.201172 0)"/>
      <use xlink:href="#DejaVuSans-73" transform="translate(587.988281 0)"/>
      <use xlink:href="#DejaVuSans-65" transform="translate(640.087891 0)"/>
      <use xlink:href="#DejaVuSans-63" transform="translate(701.611328 0)"/>
      <use xlink:href="#DejaVuSans-6f" transform="translate(756.591797 0)"/>
      <use xlink:href="#DejaVuSans-6e" transform="translate(817.773438 0)"/>
      <use xlink:href="#DejaVuSans-64" transform="translate(881.152344 0)"/>
     </g>
    </g>
   </g>
   <g id="FillBetweenPolyCollection_3">
    <defs>
     <path id="m81da483f8e" d="M 596.036599 -66.598421 
L 568.615901 -66.598421 
L 567.299562 -69.362204 
L 565.900498 -72.125987 
L 564.413099 -74.88977 
L 562.831132 -77.653554 
L 561.147976 -80.417337 
L 559.356945 -83.18112 
L 557.451713 -85.944903 
L 555.426807 -88.708687 
L 553.278173 -91.47247 
L 551.003768 -94.236253 
L 548.604165 -97.000037 
L 546.083124 -99.76382 
L 543.448083 -102.527603 
L 540.710539 -105.291386 
L 537.886271 -108.05517 
L 534.99537 -110.818953 
L 532.062055 -113.582736 
L 529.114264 -116.346519 
L 526.183008 -119.110303 
L 523.301525 -121.874086 
L 520.50425 -124.637869 
L 517.825664 -127.401653 
L 515.299075 -130.165436 
L 512.955404 -132.929219 
L 510.822058 -135.693002 
L 508.92195 -138.456786 
L 507.27274 -141.220569 
L 505.886342 -143.984352 
L 504.768734 -146.748135 
L 503.920074 -149.511919 
L 503.33512 -152.275702 
L 503.003902 -155.039485 
L 502.912614 -157.803269 
L 503.044627 -160.567052 
L 503.381577 -163.330835 
L 503.904421 -166.094618 
L 504.594396 -168.858402 
L 505.433823 -171.622185 
L 506.406703 -174.385968 
L 507.499074 -177.149751 
L 508.699149 -179.913535 
L 509.997219 -182.677318 
L 511.385392 -185.441101 
L 512.857184 -188.204885 
L 514.407053 -190.968668 
L 516.029903 -193.732451 
L 517.720634 -196.496234 
L 519.473771 -199.260018 
L 521.283201 -202.023801 
L 523.142042 -204.787584 
L 525.042632 -207.551367 
L 526.976626 -210.315151 
L 528.935179 -213.078934 
L 530.90918 -215.842717 
L 532.889506 -218.606501 
L 534.867252 -221.370284 
L 536.833933 -224.134067 
L 538.781626 -226.89785 
L 540.703039 -229.661634 
L 542.591537 -232.425417 
L 544.441102 -235.1892 
L 546.246267 -237.952983 
L 548.00204 -240.716767 
L 549.703826 -243.48055 
L 551.347379 -246.244333 
L 552.928786 -249.008117 
L 554.444494 -251.7719 
L 555.89137 -254.535683 
L 557.266797 -257.299466 
L 558.56879 -260.06325 
L 559.796107 -262.827033 
L 560.948357 -265.590816 
L 562.026064 -268.354599 
L 563.030708 -271.118383 
L 563.964698 -273.882166 
L 564.831309 -276.645949 
L 565.63456 -279.409733 
L 566.379061 -282.173516 
L 567.069828 -284.937299 
L 567.712087 -287.701082 
L 568.31108 -290.464866 
L 568.871898 -293.228649 
L 569.399332 -295.992432 
L 569.897777 -298.756215 
L 570.371168 -301.519999 
L 570.822976 -304.283782 
L 571.256229 -307.047565 
L 571.673567 -309.811349 
L 572.077329 -312.575132 
L 572.469626 -315.338915 
L 572.852426 -318.102698 
L 573.227617 -320.866482 
L 573.597037 -323.630265 
L 573.962489 -326.394048 
L 574.325711 -329.157831 
L 574.688325 -331.921615 
L 575.051765 -334.685398 
L 575.417189 -337.449181 
L 575.785394 -340.212965 
L 588.867106 -340.212965 
L 588.867106 -340.212965 
L 589.235311 -337.449181 
L 589.600735 -334.685398 
L 589.964175 -331.921615 
L 590.326789 -329.157831 
L 590.690011 -326.394048 
L 591.055463 -323.630265 
L 591.424883 -320.866482 
L 591.800074 -318.102698 
L 592.182874 -315.338915 
L 592.575171 -312.575132 
L 592.978933 -309.811349 
L 593.396271 -307.047565 
L 593.829524 -304.283782 
L 594.281332 -301.519999 
L 594.754723 -298.756215 
L 595.253168 -295.992432 
L 595.780602 -293.228649 
L 596.34142 -290.464866 
L 596.940413 -287.701082 
L 597.582672 -284.937299 
L 598.273439 -282.173516 
L 599.01794 -279.409733 
L 599.821191 -276.645949 
L 600.687802 -273.882166 
L 601.621792 -271.118383 
L 602.626436 -268.354599 
L 603.704143 -265.590816 
L 604.856393 -262.827033 
L 606.08371 -260.06325 
L 607.385703 -257.299466 
L 608.76113 -254.535683 
L 610.208006 -251.7719 
L 611.723714 -249.008117 
L 613.305121 -246.244333 
L 614.948674 -243.48055 
L 616.65046 -240.716767 
L 618.406233 -237.952983 
L 620.211398 -235.1892 
L 622.060963 -232.425417 
L 623.949461 -229.661634 
L 625.870874 -226.89785 
L 627.818567 -224.134067 
L 629.785248 -221.370284 
L 631.762994 -218.606501 
L 633.74332 -215.842717 
L 635.717321 -213.078934 
L 637.675874 -210.315151 
L 639.609868 -207.551367 
L 641.510458 -204.787584 
L 643.369299 -202.023801 
L 645.178729 -199.260018 
L 646.931866 -196.496234 
L 648.622597 -193.732451 
L 650.245447 -190.968668 
L 651.795316 -188.204885 
L 653.267108 -185.441101 
L 654.655281 -182.677318 
L 655.953351 -179.913535 
L 657.153426 -177.149751 
L 658.245797 -174.385968 
L 659.218677 -171.622185 
L 660.058104 -168.858402 
L 660.748079 -166.094618 
L 661.270923 -163.330835 
L 661.607873 -160.567052 
L 661.739886 -157.803269 
L 661.648598 -155.039485 
L 661.31738 -152.275702 
L 660.732426 -149.511919 
L 659.883766 -146.748135 
L 658.766158 -143.984352 
L 657.37976 -141.220569 
L 655.73055 -138.456786 
L 653.830442 -135.693002 
L 651.697096 -132.929219 
L 649.353425 -130.165436 
L 646.826836 -127.401653 
L 644.14825 -124.637869 
L 641.350975 -121.874086 
L 638.469492 -119.110303 
L 635.538236 -116.346519 
L 632.590445 -113.582736 
L 629.65713 -110.818953 
L 626.766229 -108.05517 
L 623.941961 -105.291386 
L 621.204417 -102.527603 
L 618.569376 -99.76382 
L 616.048335 -97.000037 
L 613.648732 -94.236253 
L 611.374327 -91.47247 
L 609.225693 -88.708687 
L 607.200787 -85.944903 
L 605.295555 -83.18112 
L 603.504524 -80.417337 
L 601.821368 -77.653554 
L 600.239401 -74.88977 
L 598.752002 -72.125987 
L 597.352938 -69.362204 
L 596.036599 -66.598421 
z
" style="stroke: #0f766e; stroke-opacity: 0.35"/>
    </defs>
    <g clip-path="url(#p57669c4428)">
     <use xlink:href="#m81da483f8e" x="0" y="391.52407" style="fill: #0f766e; fill-opacity: 0.35; stroke: #0f766e; stroke-opacity: 0.35"/>
    </g>
   </g>
   <g id="LineCollection_3">
    <path d="M 542.619432 223.502551 
L 622.033068 223.502551 
" clip-path="url(#p57669c4428)" style="fill: none; stroke: #0f766e; stroke-width: 1.5"/>
   </g>
   <g id="patch_13">
    <path d="M 494.97125 338.606376 
L 494.97125 37.630378 
" style="fill: none; stroke: #000000; stroke-width: 0.8; stroke-linejoin: miter; stroke-linecap: square"/>
   </g>
   <g id="patch_14">
    <path d="M 669.68125 338.606376 
L 669.68125 37.630378 
" style="fill: none; stroke: #000000; stroke-width: 0.8; stroke-linejoin: miter; stroke-linecap: square"/>
   </g>
   <g id="patch_15">
    <path d="M 494.97125 338.606376 
L 669.68125 338.606376 
" style="fill: none; stroke: #000000; stroke-width: 0.8; stroke-linejoin: miter; stroke-linecap: square"/>
   </g>
   <g id="patch_16">
    <path d="M 494.97125 37.630378 
L 669.68125 37.630378 
" style="fill: none; stroke: #000000; stroke-width: 0.8; stroke-linejoin: miter; stroke-linecap: square"/>
   </g>
   <g id="PathCollection_3">
    <g clip-path="url(#p57669c4428)">
     <use xlink:href="#m13517c90c3" x="582.32625" y="220.086499" style="fill: #111827; stroke: #111827"/>
    </g>
   </g>
   <g id="legend_1">
    <g id="patch_17">
     <path d="M 496.683906 55.888659 
L 518.683906 55.888659 
L 518.683906 48.188659 
L 496.683906 48.188659 
z
" style="fill: #0f766e; opacity: 0.35; stroke: #0f766e; stroke-linejoin: miter"/>
    </g>
    <g id="text_27">
     <!-- Reference group -->
     <g transform="translate(527.483906 55.888659) scale(0.11 -0.11)">
      <defs>
       <path id="DejaVuSans-52" d="M 2841 2188 
Q 3044 2119 3236 1894 
Q 3428 1669 3622 1275 
L 4263 0 
L 3584 0 
L 2988 1197 
Q 2756 1666 2539 1819 
Q 2322 1972 1947 1972 
L 1259 1972 
L 1259 0 
L 628 0 
L 628 4666 
L 2053 4666 
Q 2853 4666 3247 4331 
Q 3641 3997 3641 3322 
Q 3641 2881 3436 2590 
Q 3231 2300 2841 2188 
z
M 1259 4147 
L 1259 2491 
L 2053 2491 
Q 2509 2491 2742 2702 
Q 2975 2913 2975 3322 
Q 2975 3731 2742 3939 
Q 2509 4147 2053 4147 
L 1259 4147 
z
" transform="scale(0.015625)"/>
       <path id="DejaVuSans-66" d="M 2375 4863 
L 2375 4384 
L 1825 4384 
Q 1516 4384 1395 4259 
Q 1275 4134 1275 3809 
L 1275 3500 
L 2222 3500 
L 2222 3053 
L 1275 3053 
L 1275 0 
L 697 0 
L 697 3053 
L 147 3053 
L 147 3500 
L 697 3500 
L 697 3744 
Q 697 4328 969 4595 
Q 1241 4863 1831 4863 
L 2375 4863 
z
" transform="scale(0.015625)"/>
      </defs>
      <use xlink:href="#DejaVuSans-52"/>
      <use xlink:href="#DejaVuSans-65" transform="translate(64.982422 0)"/>
      <use xlink:href="#DejaVuSans-66" transform="translate(126.505859 0)"/>
      <use xlink:href="#DejaVuSans-65" transform="translate(161.710938 0)"/>
      <use xlink:href="#DejaVuSans-72" transform="translate(223.234375 0)"/>
      <use xlink:href="#DejaVuSans-65" transform="translate(262.097656 0)"/>
      <use xlink:href="#DejaVuSans-6e" transform="translate(323.621094 0)"/>
      <use xlink:href="#DejaVuSans-63" transform="translate(387 0)"/>
      <use xlink:href="#DejaVuSans-65" transform="translate(441.980469 0)"/>
      <use xlink:href="#DejaVuSans-20" transform="translate(503.503906 0)"/>
      <use xlink:href="#DejaVuSans-67" transform="translate(535.291016 0)"/>
      <use xlink:href="#DejaVuSans-72" transform="translate(598.767578 0)"/>
      <use xlink:href="#DejaVuSans-6f" transform="translate(637.630859 0)"/>
      <use xlink:href="#DejaVuSans-75" transform="translate(698.8125 0)"/>
      <use xlink:href="#DejaVuSans-70" transform="translate(762.191406 0)"/>
     </g>
    </g>
    <g id="line2d_47">
     <defs>
      <path id="m0b66631bc3" d="M -0 4.242641 
L 4.242641 0 
L 0 -4.242641 
L -4.242641 -0 
z
" style="stroke: #111827; stroke-linejoin: miter"/>
     </defs>
     <g>
      <use xlink:href="#m0b66631bc3" x="507.683906" y="68.184596" style="fill: #111827; stroke: #111827; stroke-linejoin: miter"/>
     </g>
    </g>
    <g id="text_28">
     <!-- Control group prototype -->
     <g transform="translate(527.483906 72.034596) scale(0.11 -0.11)">
      <defs>
       <path id="DejaVuSans-43" d="M 4122 4306 
L 4122 3641 
Q 3803 3938 3442 4084 
Q 3081 4231 2675 4231 
Q 1875 4231 1450 3742 
Q 1025 3253 1025 2328 
Q 1025 1406 1450 917 
Q 1875 428 2675 428 
Q 3081 428 3442 575 
Q 3803 722 4122 1019 
L 4122 359 
Q 3791 134 3420 21 
Q 3050 -91 2638 -91 
Q 1578 -91 968 557 
Q 359 1206 359 2328 
Q 359 3453 968 4101 
Q 1578 4750 2638 4750 
Q 3056 4750 3426 4639 
Q 3797 4528 4122 4306 
z
" transform="scale(0.015625)"/>
      </defs>
      <use xlink:href="#DejaVuSans-43"/>
      <use xlink:href="#DejaVuSans-6f" transform="translate(69.824219 0)"/>
      <use xlink:href="#DejaVuSans-6e" transform="translate(131.005859 0)"/>
      <use xlink:href="#DejaVuSans-74" transform="translate(194.384766 0)"/>
      <use xlink:href="#DejaVuSans-72" transform="translate(233.59375 0)"/>
      <use xlink:href="#DejaVuSans-6f" transform="translate(272.457031 0)"/>
      <use xlink:href="#DejaVuSans-6c" transform="translate(333.638672 0)"/>
      <use xlink:href="#DejaVuSans-20" transform="translate(361.421875 0)"/>
      <use xlink:href="#DejaVuSans-67" transform="translate(393.208984 0)"/>
      <use xlink:href="#DejaVuSans-72" transform="translate(456.685547 0)"/>
      <use xlink:href="#DejaVuSans-6f" transform="translate(495.548828 0)"/>
      <use xlink:href="#DejaVuSans-75" transform="translate(556.730469 0)"/>
      <use xlink:href="#DejaVuSans-70" transform="translate(620.109375 0)"/>
      <use xlink:href="#DejaVuSans-20" transform="translate(683.585938 0)"/>
      <use xlink:href="#DejaVuSans-70" transform="translate(715.373047 0)"/>
      <use xlink:href="#DejaVuSans-72" transform="translate(778.849609 0)"/>
      <use xlink:href="#DejaVuSans-6f" transform="translate(817.712891 0)"/>
      <use xlink:href="#DejaVuSans-74" transform="translate(878.894531 0)"/>
      <use xlink:href="#DejaVuSans-6f" transform="translate(918.103516 0)"/>
      <use xlink:href="#DejaVuSans-74" transform="translate(979.285156 0)"/>
      <use xlink:href="#DejaVuSans-79" transform="translate(1018.494141 0)"/>
      <use xlink:href="#DejaVuSans-70" transform="translate(1077.673828 0)"/>
      <use xlink:href="#DejaVuSans-65" transform="translate(1141.150391 0)"/>
     </g>
    </g>
   </g>
  </g>
  <g id="text_29">
   <!-- Control group (female) -->
   <g transform="translate(258.811406 17.837812) scale(0.14 -0.14)">
    <defs>
     <path id="DejaVuSans-28" d="M 1984 4856 
Q 1566 4138 1362 3434 
Q 1159 2731 1159 2009 
Q 1159 1288 1364 580 
Q 1569 -128 1984 -844 
L 1484 -844 
Q 1016 -109 783 600 
Q 550 1309 550 2009 
Q 550 2706 781 3412 
Q 1013 4119 1484 4856 
L 1984 4856 
z
" transform="scale(0.015625)"/>
     <path id="DejaVuSans-29" d="M 513 4856 
L 1013 4856 
Q 1481 4119 1714 3412 
Q 1947 2706 1947 2009 
Q 1947 1309 1714 600 
Q 1481 -109 1013 -844 
L 513 -844 
Q 928 -128 1133 580 
Q 1338 1288 1338 2009 
Q 1338 2731 1133 3434 
Q 928 4138 513 4856 
z
" transform="scale(0.015625)"/>
    </defs>
    <use xlink:href="#DejaVuSans-43"/>
    <use xlink:href="#DejaVuSans-6f" transform="translate(69.824219 0)"/>
    <use xlink:href="#DejaVuSans-6e" transform="translate(131.005859 0)"/>
    <use xlink:href="#DejaVuSans-74" transform="translate(194.384766 0)"/>
    <use xlink:href="#DejaVuSans-72" transform="translate(233.59375 0)"/>
    <use xlink:href="#DejaVuSans-6f" transform="translate(272.457031 0)"/>
    <use xlink:href="#DejaVuSans-6c" transform="translate(333.638672 0)"/>
    <use xlink:href="#DejaVuSans-20" transform="translate(361.421875 0)"/>
    <use xlink:href="#DejaVuSans-67" transform="translate(393.208984 0)"/>
    <use xlink:href="#DejaVuSans-72" transform="translate(456.685547 0)"/>
    <use xlink:href="#DejaVuSans-6f" transform="translate(495.548828 0)"/>
    <use xlink:href="#DejaVuSans-75" transform="translate(556.730469 0)"/>
    <use xlink:href="#DejaVuSans-70" transform="translate(620.109375 0)"/>
    <use xlink:href="#DejaVuSans-20" transform="translate(683.585938 0)"/>
    <use xlink:href="#DejaVuSans-28" transform="translate(715.373047 0)"/>
    <use xlink:href="#DejaVuSans-66" transform="translate(754.386719 0)"/>
    <use xlink:href="#DejaVuSans-65" transform="translate(789.591797 0)"/>
    <use xlink:href="#DejaVuSans-6d" transform="translate(851.115234 0)"/>
    <use xlink:href="#DejaVuSans-61" transform="translate(948.527344 0)"/>
    <use xlink:href="#DejaVuSans-6c" transform="translate(1009.806641 0)"/>
    <use xlink:href="#DejaVuSans-65" transform="translate(1037.589844 0)"/>
    <use xlink:href="#DejaVuSans-29" transform="translate(1099.113281 0)"/>
   </g>
  </g>
 </g>
 <defs>
  <clipPath id="pd16200c83a">
   <rect x="43.81125" y="37.630378" width="174.71" height="300.975998"/>
  </clipPath>
  <clipPath id="p93e125f05c">
   <rect x="269.39125" y="37.630378" width="174.71" height="300.975998"/>
  </clipPath>
  <clipPath id="p57669c4428">
   <rect x="494.97125" y="37.630378" width="174.71" height="300.975998"/>
  </clipPath>
 </defs>
</svg>
