<?xml version="1.0" encoding="utf-8" standalone="no"?>
<!DOCTYPE svg PUBLIC "-//W3C//DTD SVG 1.1//EN"
  "http://www.w3.org/Graphics/SVG/1.1/DTD/svg11.dtd">
<svg xmlns:xlink="http://www.w3.org/1999/xlink" width="712.837188pt" height="424.5775pt" viewBox="0 0 712.837188 424.5775" xmlns="http://www.w3.org/2000/svg" version="1.1">
 <metadata>
  <rdf:RDF xmlns:dc="http://purl.org/dc/elements/1.1/" xmlns:cc="http://creativecommons.org/ns#" xmlns:rdf="http://www.w3.org/1999/02/22-rdf-syntax-ns#">
   <cc:Work>
    <dc:type rdf:resource="http://purl.org/dc/dcmitype/StillImage"/>
    <dc:date>2026-06-14T18:51:46.844141</dc:date>
    <dc:format>image/svg+xml</dc:format>
    <dc:creator>
     <cc:Agent>
      <dc:title>Matplotlib v3.10.1, https://matplotlib.org/</dc:title>
     </cc:Agent>
    </dc:creator>
   </cc:Work>
  </rdf:RDF>
 </metadata>
 <defs>
  <style type="text/css">*{stroke-linejoin: round; stroke-linecap: butt}</style>
 </defs>
 <g id="figure_1">
  <g id="patch_1">
   <path d="M 0 424.5775 
L 712.837188 424.5775 
L 712.837188 0 
L 0 0 
z
" style="fill: #ffffff"/>
  </g>
  <g id="axes_1">
   <g id="patch_2">
    <path d="M 47.307188 384.117812 
L 705.637188 384.117812 
L 705.637188 23.837812 
L 47.307188 23.837812 
z
" style="fill: #ffffff"/>
   </g>
   <g id="matplotlib.axis_1">
    <g id="xtick_1">
     <g id="line2d_1">
      <path d="M 47.307188 384.117812 
L 47.307188 23.837812 
" clip-path="url(#pa7723ab401)" style="fill: none; stroke: #b0b0b0; stroke-opacity: 0.2; stroke-width: 0.6; stroke-linecap: square"/>
     </g>
     <g id="line2d_2">
      <defs>
       <path id="mdbf16c1f24" d="M 0 0 
L 0 3.5 
" style="stroke: #000000; stroke-width: 0.8"/>
      </defs>
      <g>
       <use xlink:href="#mdbf16c1f24" x="47.307188" y="384.117812" style="stroke: #000000; stroke-width: 0.8"/>
      </g>
     </g>
     <g id="text_1">
      <!-- 0 -->
      <g transform="translate(43.807813 399.476094) scale(0.11 -0.11)">
       <defs>
        <path id="DejaVuSans-30" d="M 2034 4250 
Q 1547 4250 1301 3770 
Q 1056 3291 1056 2328 
Q 1056 1369 1301 889 
Q 1547 409 2034 409 
Q 2525 409 2770 889 
Q 3016 1369 3016 2328 
Q 3016 3291 2770 3770 
Q 2525 4250 2034 4250 
z
M 2034 4750 
Q 2819 4750 3233 4129 
Q 3647 3509 3647 2328 
Q 3647 1150 3233 529 
Q 2819 -91 2034 -91 
Q 1250 -91 836 529 
Q 422 1150 422 2328 
Q 422 3509 836 4129 
Q 1250 4750 2034 4750 
z
" transform="scale(0.015625)"/>
       </defs>
       <use xlink:href="#DejaVuSans-30"/>
      </g>
     </g>
    </g>
    <g id="xtick_2">
     <g id="line2d_3">
      <path d="M 133.929556 384.117812 
L 133.929556 23.837812 
" clip-path="url(#pa7723ab401)" style="fill: none; stroke: #b0b0b0; stroke-opacity: 0.2; stroke-width: 0.6; stroke-linecap: square"/>
     </g>
     <g id="line2d_4">
      <g>
       <use xlink:href="#mdbf16c1f24" x="133.929556" y="384.117812" style="stroke: #000000; stroke-width: 0.8"/>
      </g>
     </g>
     <g id="text_2">
      <!-- 25 -->
      <g transform="translate(126.930806 399.476094) scale(0.11 -0.11)">
       <defs>
        <path id="DejaVuSans-32" d="M 1228 531 
L 3431 531 
L 3431 0 
L 469 0 
L 469 531 
Q 828 903 1448 1529 
Q 2069 2156 2228 2338 
Q 2531 2678 2651 2914 
Q 2772 3150 2772 3378 
Q 2772 3750 2511 3984 
Q 2250 4219 1831 4219 
Q 1534 4219 1204 4116 
Q 875 4013 500 3803 
L 500 4441 
Q 881 4594 1212 4672 
Q 1544 4750 1819 4750 
Q 2544 4750 2975 4387 
Q 3406 4025 3406 3419 
Q 3406 3131 3298 2873 
Q 3191 2616 2906 2266 
Q 2828 2175 2409 1742 
Q 1991 1309 1228 531 
z
" transform="scale(0.015625)"/>
        <path id="DejaVuSans-35" d="M 691 4666 
L 3169 4666 
L 3169 4134 
L 1269 4134 
L 1269 2991 
Q 1406 3038 1543 3061 
Q 1681 3084 1819 3084 
Q 2600 3084 3056 2656 
Q 3513 2228 3513 1497 
Q 3513 744 3044 326 
Q 2575 -91 1722 -91 
Q 1428 -91 1123 -41 
Q 819 9 494 109 
L 494 744 
Q 775 591 1075 516 
Q 1375 441 1709 441 
Q 2250 441 2565 725 
Q 2881 1009 2881 1497 
Q 2881 1984 2565 2268 
Q 2250 2553 1709 2553 
Q 1456 2553 1204 2497 
Q 953 2441 691 2322 
L 691 4666 
z
" transform="scale(0.015625)"/>
       </defs>
       <use xlink:href="#DejaVuSans-32"/>
       <use xlink:href="#DejaVuSans-35" transform="translate(63.623047 0)"/>
      </g>
     </g>
    </g>
    <g id="xtick_3">
     <g id="line2d_5">
      <path d="M 220.551924 384.117812 
L 220.551924 23.837812 
" clip-path="url(#pa7723ab401)" style="fill: none; stroke: #b0b0b0; stroke-opacity: 0.2; stroke-width: 0.6; stroke-linecap: square"/>
     </g>
     <g id="line2d_6">
      <g>
       <use xlink:href="#mdbf16c1f24" x="220.551924" y="384.117812" style="stroke: #000000; stroke-width: 0.8"/>
      </g>
     </g>
     <g id="text_3">
      <!-- 50 -->
      <g transform="translate(213.553174 399.476094) scale(0.11 -0.11)">
       <use xlink:href="#DejaVuSans-35"/>
       <use xlink:href="#DejaVuSans-30" transform="translate(63.623047 0)"/>
      </g>
     </g>
    </g>
    <g id="xtick_4">
     <g id="line2d_7">
      <path d="M 307.174293 384.117812 
L 307.174293 23.837812 
" clip-path="url(#pa7723ab401)" style="fill: none; stroke: #b0b0b0; stroke-opacity: 0.2; stroke-width: 0.6; stroke-linecap: square"/>
     </g>
     <g id="line2d_8">
      <g>
       <use xlink:href="#mdbf16c1f24" x="307.174293" y="384.117812" style="stroke: #000000; stroke-width: 0.8"/>
      </g>
     </g>
     <g id="text_4">
      <!-- 75 -->
      <g transform="translate(300.175543 399.476094) scale(0.11 -0.11)">
       <defs>
        <path id="DejaVuSans-37" d="M 525 4666 
L 3525 4666 
L 3525 4397 
L 1831 0 
L 1172 0 
L 2766 4134 
L 525 4134 
L 525 4666 
z
" transform="scale(0.015625)"/>
       </defs>
       <use xlink:href="#DejaVuSans-37"/>
       <use xlink:href="#DejaVuSans-35" transform="translate(63.623047 0)"/>
      </g>
     </g>
    </g>
    <g id="xtick_5">
     <g id="line2d_9">
      <path d="M 393.796661 384.117812 
L 393.796661 23.837812 
" clip-path="url(#pa7723ab401)" style="fill: none; stroke: #b0b0b0; stroke-opacity: 0.2; stroke-width: 0.6; stroke-linecap: square"/>
     </g>
     <g id="line2d_10">
      <g>
       <use xlink:href="#mdbf16c1f24" x="393.796661" y="384.117812" style="stroke: #000000; stroke-width: 0.8"/>
      </g>
     </g>
     <g id="text_5">
      <!-- 100 -->
      <g transform="translate(383.298536 399.476094) scale(0.11 -0.11)">
       <defs>
        <path id="DejaVuSans-31" d="M 794 531 
L 1825 531 
L 1825 4091 
L 703 3866 
L 703 4441 
L 1819 4666 
L 2450 4666 
L 2450 531 
L 3481 531 
L 3481 0 
L 794 0 
L 794 531 
z
" transform="scale(0.015625)"/>
       </defs>
       <use xlink:href="#DejaVuSans-31"/>
       <use xlink:href="#DejaVuSans-30" transform="translate(63.623047 0)"/>
       <use xlink:href="#DejaVuSans-30" transform="translate(127.246094 0)"/>
      </g>
     </g>
    </g>
    <g id="xtick_6">
     <g id="line2d_11">
      <path d="M 480.41903 384.117812 
L 480.41903 23.837812 
" clip-path="url(#pa7723ab401)" style="fill: none; stroke: #b0b0b0; stroke-opacity: 0.2; stroke-width: 0.6; stroke-linecap: square"/>
     </g>
     <g id="line2d_12">
      <g>
       <use xlink:href="#mdbf16c1f24" x="480.41903" y="384.117812" style="stroke: #000000; stroke-width: 0.8"/>
      </g>
     </g>
     <g id="text_6">
      <!-- 125 -->
      <g transform="translate(469.920905 399.476094) scale(0.11 -0.11)">
       <use xlink:href="#DejaVuSans-31"/>
       <use xlink:href="#DejaVuSans-32" transform="translate(63.623047 0)"/>
       <use xlink:href="#DejaVuSans-35" transform="translate(127.246094 0)"/>
      </g>
     </g>
    </g>
    <g id="xtick_7">
     <g id="line2d_13">
      <path d="M 567.041398 384.117812 
L 567.041398 23.837812 
" clip-path="url(#pa7723ab401)" style="fill: none; stroke: #b0b0b0; stroke-opacity: 0.2; stroke-width: 0.6; stroke-linecap: square"/>
     </g>
     <g id="line2d_14">
      <g>
       <use xlink:href="#mdbf16c1f24" x="567.041398" y="384.117812" style="stroke: #000000; stroke-width: 0.8"/>
      </g>
     </g>
     <g id="text_7">
      <!-- 150 -->
      <g transform="translate(556.543273 399.476094) scale(0.11 -0.11)">
       <use xlink:href="#DejaVuSans-31"/>
       <use xlink:href="#DejaVuSans-35" transform="translate(63.623047 0)"/>
       <use xlink:href="#DejaVuSans-30" transform="translate(127.246094 0)"/>
      </g>
     </g>
    </g>
    <g id="xtick_8">
     <g id="line2d_15">
      <path d="M 653.663766 384.117812 
L 653.663766 23.837812 
" clip-path="url(#pa7723ab401)" style="fill: none; stroke: #b0b0b0; stroke-opacity: 0.2; stroke-width: 0.6; stroke-linecap: square"/>
     </g>
     <g id="line2d_16">
      <g>
       <use xlink:href="#mdbf16c1f24" x="653.663766" y="384.117812" style="stroke: #000000; stroke-width: 0.8"/>
      </g>
     </g>
     <g id="text_8">
      <!-- 175 -->
      <g transform="translate(643.165641 399.476094) scale(0.11 -0.11)">
       <use xlink:href="#DejaVuSans-31"/>
       <use xlink:href="#DejaVuSans-37" transform="translate(63.623047 0)"/>
       <use xlink:href="#DejaVuSans-35" transform="translate(127.246094 0)"/>
      </g>
     </g>
    </g>
    <g id="text_9">
     <!-- Time (s) -->
     <g transform="translate(352.0775 414.881875) scale(0.12 -0.12)">
      <defs>
       <path id="DejaVuSans-54" d="M -19 4666 
L 3928 4666 
L 3928 4134 
L 2272 4134 
L 2272 0 
L 1638 0 
L 1638 4134 
L -19 4134 
L -19 4666 
z
" transform="scale(0.015625)"/>
       <path id="DejaVuSans-69" d="M 603 3500 
L 1178 3500 
L 1178 0 
L 603 0 
L 603 3500 
z
M 603 4863 
L 1178 4863 
L 1178 4134 
L 603 4134 
L 603 4863 
z
" transform="scale(0.015625)"/>
       <path id="DejaVuSans-6d" d="M 3328 2828 
Q 3544 3216 3844 3400 
Q 4144 3584 4550 3584 
Q 5097 3584 5394 3201 
Q 5691 2819 5691 2113 
L 5691 0 
L 5113 0 
L 5113 2094 
Q 5113 2597 4934 2840 
Q 4756 3084 4391 3084 
Q 3944 3084 3684 2787 
Q 3425 2491 3425 1978 
L 3425 0 
L 2847 0 
L 2847 2094 
Q 2847 2600 2669 2842 
Q 2491 3084 2119 3084 
Q 1678 3084 1418 2786 
Q 1159 2488 1159 1978 
L 1159 0 
L 581 0 
L 581 3500 
L 1159 3500 
L 1159 2956 
Q 1356 3278 1631 3431 
Q 1906 3584 2284 3584 
Q 2666 3584 2933 3390 
Q 3200 3197 3328 2828 
z
" transform="scale(0.015625)"/>
       <path id="DejaVuSans-65" d="M 3597 1894 
L 3597 1613 
L 953 1613 
Q 991 1019 1311 708 
Q 1631 397 2203 397 
Q 2534 397 2845 478 
Q 3156 559 3463 722 
L 3463 178 
Q 3153 47 2828 -22 
Q 2503 -91 2169 -91 
Q 1331 -91 842 396 
Q 353 884 353 1716 
Q 353 2575 817 3079 
Q 1281 3584 2069 3584 
Q 2775 3584 3186 3129 
Q 3597 2675 3597 1894 
z
M 3022 2063 
Q 3016 2534 2758 2815 
Q 2500 3097 2075 3097 
Q 1594 3097 1305 2825 
Q 1016 2553 972 2059 
L 3022 2063 
z
" transform="scale(0.015625)"/>
       <path id="DejaVuSans-20" transform="scale(0.015625)"/>
       <path id="DejaVuSans-28" d="M 1984 4856 
Q 1566 4138 1362 3434 
Q 1159 2731 1159 2009 
Q 1159 1288 1364 580 
Q 1569 -128 1984 -844 
L 1484 -844 
Q 1016 -109 783 600 
Q 550 1309 550 2009 
Q 550 2706 781 3412 
Q 1013 4119 1484 4856 
L 1984 4856 
z
" transform="scale(0.015625)"/>
       <path id="DejaVuSans-73" d="M 2834 3397 
L 2834 2853 
Q 2591 2978 2328 3040 
Q 2066 3103 1784 3103 
Q 1356 3103 1142 2972 
Q 928 2841 928 2578 
Q 928 2378 1081 2264 
Q 1234 2150 1697 2047 
L 1894 2003 
Q 2506 1872 2764 1633 
Q 3022 1394 3022 966 
Q 3022 478 2636 193 
Q 2250 -91 1575 -91 
Q 1294 -91 989 -36 
Q 684 19 347 128 
L 347 722 
Q 666 556 975 473 
Q 1284 391 1588 391 
Q 1994 391 2212 530 
Q 2431 669 2431 922 
Q 2431 1156 2273 1281 
Q 2116 1406 1581 1522 
L 1381 1569 
Q 847 1681 609 1914 
Q 372 2147 372 2553 
Q 372 3047 722 3315 
Q 1072 3584 1716 3584 
Q 2034 3584 2315 3537 
Q 2597 3491 2834 3397 
z
" transform="scale(0.015625)"/>
       <path id="DejaVuSans-29" d="M 513 4856 
L 1013 4856 
Q 1481 4119 1714 3412 
Q 1947 2706 1947 2009 
Q 1947 1309 1714 600 
Q 1481 -109 1013 -844 
L 513 -844 
Q 928 -128 1133 580 
Q 1338 1288 1338 2009 
Q 1338 2731 1133 3434 
Q 928 4138 513 4856 
z
" transform="scale(0.015625)"/>
      </defs>
      <use xlink:href="#DejaVuSans-54"/>
      <use xlink:href="#DejaVuSans-69" transform="translate(57.958984 0)"/>
      <use xlink:href="#DejaVuSans-6d" transform="translate(85.742188 0)"/>
      <use xlink:href="#DejaVuSans-65" transform="translate(183.154297 0)"/>
      <use xlink:href="#DejaVuSans-20" transform="translate(244.677734 0)"/>
      <use xlink:href="#DejaVuSans-28" transform="translate(276.464844 0)"/>
      <use xlink:href="#DejaVuSans-73" transform="translate(315.478516 0)"/>
      <use xlink:href="#DejaVuSans-29" transform="translate(367.578125 0)"/>
     </g>
    </g>
   </g>
   <g id="matplotlib.axis_2">
    <g id="ytick_1">
     <g id="line2d_17">
      <path d="M 47.307188 367.741449 
L 705.637188 367.741449 
" clip-path="url(#pa7723ab401)" style="fill: none; stroke: #b0b0b0; stroke-opacity: 0.2; stroke-width: 0.6; stroke-linecap: square"/>
     </g>
     <g id="line2d_18">
      <defs>
       <path id="mc48f2785e4" d="M 0 0 
L -3.5 0 
" style="stroke: #000000; stroke-width: 0.8"/>
      </defs>
      <g>
       <use xlink:href="#mc48f2785e4" x="47.307188" y="367.741449" style="stroke: #000000; stroke-width: 0.8"/>
      </g>
     </g>
     <g id="text_10">
      <!-- 0.0 -->
      <g transform="translate(22.81375 371.920589) scale(0.11 -0.11)">
       <defs>
        <path id="DejaVuSans-2e" d="M 684 794 
L 1344 794 
L 1344 0 
L 684 0 
L 684 794 
z
" transform="scale(0.015625)"/>
       </defs>
       <use xlink:href="#DejaVuSans-30"/>
       <use xlink:href="#DejaVuSans-2e" transform="translate(63.623047 0)"/>
       <use xlink:href="#DejaVuSans-30" transform="translate(95.410156 0)"/>
      </g>
     </g>
    </g>
    <g id="ytick_2">
     <g id="line2d_19">
      <path d="M 47.307188 317.507205 
L 705.637188 317.507205 
" clip-path="url(#pa7723ab401)" style="fill: none; stroke: #b0b0b0; stroke-opacity: 0.2; stroke-width: 0.6; stroke-linecap: square"/>
     </g>
     <g id="line2d_20">
      <g>
       <use xlink:href="#mc48f2785e4" x="47.307188" y="317.507205" style="stroke: #000000; stroke-width: 0.8"/>
      </g>
     </g>
     <g id="text_11">
      <!-- 0.5 -->
      <g transform="translate(22.81375 321.686345) scale(0.11 -0.11)">
       <use xlink:href="#DejaVuSans-30"/>
       <use xlink:href="#DejaVuSans-2e" transform="translate(63.623047 0)"/>
       <use xlink:href="#DejaVuSans-35" transform="translate(95.410156 0)"/>
      </g>
     </g>
    </g>
    <g id="ytick_3">
     <g id="line2d_21">
      <path d="M 47.307188 267.27296 
L 705.637188 267.27296 
" clip-path="url(#pa7723ab401)" style="fill: none; stroke: #b0b0b0; stroke-opacity: 0.2; stroke-width: 0.6; stroke-linecap: square"/>
     </g>
     <g id="line2d_22">
      <g>
       <use xlink:href="#mc48f2785e4" x="47.307188" y="267.27296" style="stroke: #000000; stroke-width: 0.8"/>
      </g>
     </g>
     <g id="text_12">
      <!-- 1.0 -->
      <g transform="translate(22.81375 271.452101) scale(0.11 -0.11)">
       <use xlink:href="#DejaVuSans-31"/>
       <use xlink:href="#DejaVuSans-2e" transform="translate(63.623047 0)"/>
       <use xlink:href="#DejaVuSans-30" transform="translate(95.410156 0)"/>
      </g>
     </g>
    </g>
    <g id="ytick_4">
     <g id="line2d_23">
      <path d="M 47.307188 217.038716 
L 705.637188 217.038716 
" clip-path="url(#pa7723ab401)" style="fill: none; stroke: #b0b0b0; stroke-opacity: 0.2; stroke-width: 0.6; stroke-linecap: square"/>
     </g>
     <g id="line2d_24">
      <g>
       <use xlink:href="#mc48f2785e4" x="47.307188" y="217.038716" style="stroke: #000000; stroke-width: 0.8"/>
      </g>
     </g>
     <g id="text_13">
      <!-- 1.5 -->
      <g transform="translate(22.81375 221.217857) scale(0.11 -0.11)">
       <use xlink:href="#DejaVuSans-31"/>
       <use xlink:href="#DejaVuSans-2e" transform="translate(63.623047 0)"/>
       <use xlink:href="#DejaVuSans-35" transform="translate(95.410156 0)"/>
      </g>
     </g>
    </g>
    <g id="ytick_5">
     <g id="line2d_25">
      <path d="M 47.307188 166.804472 
L 705.637188 166.804472 
" clip-path="url(#pa7723ab401)" style="fill: none; stroke: #b0b0b0; stroke-opacity: 0.2; stroke-width: 0.6; stroke-linecap: square"/>
     </g>
     <g id="line2d_26">
      <g>
       <use xlink:href="#mc48f2785e4" x="47.307188" y="166.804472" style="stroke: #000000; stroke-width: 0.8"/>
      </g>
     </g>
     <g id="text_14">
      <!-- 2.0 -->
      <g transform="translate(22.81375 170.983612) scale(0.11 -0.11)">
       <use xlink:href="#DejaVuSans-32"/>
       <use xlink:href="#DejaVuSans-2e" transform="translate(63.623047 0)"/>
       <use xlink:href="#DejaVuSans-30" transform="translate(95.410156 0)"/>
      </g>
     </g>
    </g>
    <g id="ytick_6">
     <g id="line2d_27">
      <path d="M 47.307188 116.570227 
L 705.637188 116.570227 
" clip-path="url(#pa7723ab401)" style="fill: none; stroke: #b0b0b0; stroke-opacity: 0.2; stroke-width: 0.6; stroke-linecap: square"/>
     </g>
     <g id="line2d_28">
      <g>
       <use xlink:href="#mc48f2785e4" x="47.307188" y="116.570227" style="stroke: #000000; stroke-width: 0.8"/>
      </g>
     </g>
     <g id="text_15">
      <!-- 2.5 -->
      <g transform="translate(22.81375 120.749368) scale(0.11 -0.11)">
       <use xlink:href="#DejaVuSans-32"/>
       <use xlink:href="#DejaVuSans-2e" transform="translate(63.623047 0)"/>
       <use xlink:href="#DejaVuSans-35" transform="translate(95.410156 0)"/>
      </g>
     </g>
    </g>
    <g id="ytick_7">
     <g id="line2d_29">
      <path d="M 47.307188 66.335983 
L 705.637188 66.335983 
" clip-path="url(#pa7723ab401)" style="fill: none; stroke: #b0b0b0; stroke-opacity: 0.2; stroke-width: 0.6; stroke-linecap: square"/>
     </g>
     <g id="line2d_30">
      <g>
       <use xlink:href="#mc48f2785e4" x="47.307188" y="66.335983" style="stroke: #000000; stroke-width: 0.8"/>
      </g>
     </g>
     <g id="text_16">
      <!-- 3.0 -->
      <g transform="translate(22.81375 70.515124) scale(0.11 -0.11)">
       <defs>
        <path id="DejaVuSans-33" d="M 2597 2516 
Q 3050 2419 3304 2112 
Q 3559 1806 3559 1356 
Q 3559 666 3084 287 
Q 2609 -91 1734 -91 
Q 1441 -91 1130 -33 
Q 819 25 488 141 
L 488 750 
Q 750 597 1062 519 
Q 1375 441 1716 441 
Q 2309 441 2620 675 
Q 2931 909 2931 1356 
Q 2931 1769 2642 2001 
Q 2353 2234 1838 2234 
L 1294 2234 
L 1294 2753 
L 1863 2753 
Q 2328 2753 2575 2939 
Q 2822 3125 2822 3475 
Q 2822 3834 2567 4026 
Q 2313 4219 1838 4219 
Q 1578 4219 1281 4162 
Q 984 4106 628 3988 
L 628 4550 
Q 988 4650 1302 4700 
Q 1616 4750 1894 4750 
Q 2613 4750 3031 4423 
Q 3450 4097 3450 3541 
Q 3450 3153 3228 2886 
Q 3006 2619 2597 2516 
z
" transform="scale(0.015625)"/>
       </defs>
       <use xlink:href="#DejaVuSans-33"/>
       <use xlink:href="#DejaVuSans-2e" transform="translate(63.623047 0)"/>
       <use xlink:href="#DejaVuSans-30" transform="translate(95.410156 0)"/>
      </g>
     </g>
    </g>
    <g id="text_17">
     <!-- AU mean intensity -->
     <g transform="translate(16.318125 259.314687) rotate(-90) scale(0.12 -0.12)">
      <defs>
       <path id="DejaVuSans-41" d="M 2188 4044 
L 1331 1722 
L 3047 1722 
L 2188 4044 
z
M 1831 4666 
L 2547 4666 
L 4325 0 
L 3669 0 
L 3244 1197 
L 1141 1197 
L 716 0 
L 50 0 
L 1831 4666 
z
" transform="scale(0.015625)"/>
       <path id="DejaVuSans-55" d="M 556 4666 
L 1191 4666 
L 1191 1831 
Q 1191 1081 1462 751 
Q 1734 422 2344 422 
Q 2950 422 3222 751 
Q 3494 1081 3494 1831 
L 3494 4666 
L 4128 4666 
L 4128 1753 
Q 4128 841 3676 375 
Q 3225 -91 2344 -91 
Q 1459 -91 1007 375 
Q 556 841 556 1753 
L 556 4666 
z
" transform="scale(0.015625)"/>
       <path id="DejaVuSans-61" d="M 2194 1759 
Q 1497 1759 1228 1600 
Q 959 1441 959 1056 
Q 959 750 1161 570 
Q 1363 391 1709 391 
Q 2188 391 2477 730 
Q 2766 1069 2766 1631 
L 2766 1759 
L 2194 1759 
z
M 3341 1997 
L 3341 0 
L 2766 0 
L 2766 531 
Q 2569 213 2275 61 
Q 1981 -91 1556 -91 
Q 1019 -91 701 211 
Q 384 513 384 1019 
Q 384 1609 779 1909 
Q 1175 2209 1959 2209 
L 2766 2209 
L 2766 2266 
Q 2766 2663 2505 2880 
Q 2244 3097 1772 3097 
Q 1472 3097 1187 3025 
Q 903 2953 641 2809 
L 641 3341 
Q 956 3463 1253 3523 
Q 1550 3584 1831 3584 
Q 2591 3584 2966 3190 
Q 3341 2797 3341 1997 
z
" transform="scale(0.015625)"/>
       <path id="DejaVuSans-6e" d="M 3513 2113 
L 3513 0 
L 2938 0 
L 2938 2094 
Q 2938 2591 2744 2837 
Q 2550 3084 2163 3084 
Q 1697 3084 1428 2787 
Q 1159 2491 1159 1978 
L 1159 0 
L 581 0 
L 581 3500 
L 1159 3500 
L 1159 2956 
Q 1366 3272 1645 3428 
Q 1925 3584 2291 3584 
Q 2894 3584 3203 3211 
Q 3513 2838 3513 2113 
z
" transform="scale(0.015625)"/>
       <path id="DejaVuSans-74" d="M 1172 4494 
L 1172 3500 
L 2356 3500 
L 2356 3053 
L 1172 3053 
L 1172 1153 
Q 1172 725 1289 603 
Q 1406 481 1766 481 
L 2356 481 
L 2356 0 
L 1766 0 
Q 1100 0 847 248 
Q 594 497 594 1153 
L 594 3053 
L 172 3053 
L 172 3500 
L 594 3500 
L 594 4494 
L 1172 4494 
z
" transform="scale(0.015625)"/>
       <path id="DejaVuSans-79" d="M 2059 -325 
Q 1816 -950 1584 -1140 
Q 1353 -1331 966 -1331 
L 506 -1331 
L 506 -850 
L 844 -850 
Q 1081 -850 1212 -737 
Q 1344 -625 1503 -206 
L 1606 56 
L 191 3500 
L 800 3500 
L 1894 763 
L 2988 3500 
L 3597 3500 
L 2059 -325 
z
" transform="scale(0.015625)"/>
      </defs>
      <use xlink:href="#DejaVuSans-41"/>
      <use xlink:href="#DejaVuSans-55" transform="translate(68.408203 0)"/>
      <use xlink:href="#DejaVuSans-20" transform="translate(141.601562 0)"/>
      <use xlink:href="#DejaVuSans-6d" transform="translate(173.388672 0)"/>
      <use xlink:href="#DejaVuSans-65" transform="translate(270.800781 0)"/>
      <use xlink:href="#DejaVuSans-61" transform="translate(332.324219 0)"/>
      <use xlink:href="#DejaVuSans-6e" transform="translate(393.603516 0)"/>
      <use xlink:href="#DejaVuSans-20" transform="translate(456.982422 0)"/>
      <use xlink:href="#DejaVuSans-69" transform="translate(488.769531 0)"/>
      <use xlink:href="#DejaVuSans-6e" transform="translate(516.552734 0)"/>
      <use xlink:href="#DejaVuSans-74" transform="translate(579.931641 0)"/>
      <use xlink:href="#DejaVuSans-65" transform="translate(619.140625 0)"/>
      <use xlink:href="#DejaVuSans-6e" transform="translate(680.664062 0)"/>
      <use xlink:href="#DejaVuSans-73" transform="translate(744.042969 0)"/>
      <use xlink:href="#DejaVuSans-69" transform="translate(796.142578 0)"/>
      <use xlink:href="#DejaVuSans-74" transform="translate(823.925781 0)"/>
      <use xlink:href="#DejaVuSans-79" transform="translate(863.134766 0)"/>
     </g>
    </g>
   </g>
   <g id="FillBetweenPolyCollection_1">
    <defs>
     <path id="md9312b1a55" d="M 47.307188 -155.136154 
L 47.307188 -18.32683 
L 50.772082 -8.120475 
L 54.236977 9.350789 
L 57.701872 1.269882 
L 61.166766 -2.018664 
L 64.631661 -1.936345 
L 68.096556 -5.483597 
L 71.561451 -8.627031 
L 75.026345 -10.184781 
L 78.49124 -9.236294 
L 81.956135 -7.883903 
L 85.42103 -7.125692 
L 88.885924 -7.979335 
L 92.350819 -7.835944 
L 95.815714 -8.056825 
L 99.280609 -6.325181 
L 102.745503 -3.824039 
L 106.210398 -3.406012 
L 109.675293 -4.365371 
L 113.140187 -6.473809 
L 116.605082 -7.564816 
L 120.069977 -5.313227 
L 123.534872 -4.273084 
L 126.999766 -5.666686 
L 130.464661 -5.854278 
L 133.929556 -7.928289 
L 137.394451 -5.185881 
L 140.859345 -1.484512 
L 144.32424 4.707154 
L 147.789135 13.61568 
L 151.25403 15.34613 
L 154.718924 11.930198 
L 158.183819 6.788528 
L 161.648714 4.89937 
L 165.113609 0.079741 
L 168.578503 1.062002 
L 172.043398 1.151649 
L 175.508293 11.161616 
L 178.973187 10.550225 
L 182.438082 11.323829 
L 185.902977 11.946821 
L 189.367872 14.636104 
L 192.832766 11.671273 
L 196.297661 3.103676 
L 199.762556 -4.240447 
L 203.227451 2.164806 
L 206.692345 -4.299326 
L 210.15724 -0.482366 
L 213.622135 -2.119401 
L 217.08703 -1.42108 
L 220.551924 -0.311941 
L 224.016819 -0.412491 
L 227.481714 -4.153378 
L 230.946609 -1.736074 
L 234.411503 -4.705796 
L 237.876398 -5.490467 
L 241.341293 -3.51613 
L 244.806187 5.664198 
L 248.271082 7.175801 
L 251.735977 -0.241841 
L 255.200872 1.618817 
L 258.665766 -5.302087 
L 262.130661 -6.708439 
L 265.595556 -5.798316 
L 269.060451 2.788285 
L 272.525345 6.109852 
L 275.99024 9.558178 
L 279.455135 8.065532 
L 282.92003 -1.78378 
L 286.384924 2.202629 
L 289.849819 2.14751 
L 293.314714 0.705353 
L 296.779609 -1.509393 
L 300.244503 -5.115994 
L 303.709398 -4.700207 
L 307.174293 -6.463409 
L 310.639187 -4.606761 
L 314.104082 -5.316222 
L 317.568977 -5.610261 
L 321.033872 6.269849 
L 324.498766 8.690753 
L 327.963661 3.686104 
L 331.428556 1.63909 
L 334.893451 -1.542167 
L 338.358345 -1.151117 
L 341.82324 1.047266 
L 345.288135 2.411395 
L 348.75303 9.490412 
L 352.217924 7.342328 
L 355.682819 3.868781 
L 359.147714 3.235474 
L 362.612609 3.427828 
L 366.077503 2.952804 
L 369.542398 3.164643 
L 373.007293 6.230463 
L 376.472188 9.445482 
L 379.937082 7.731453 
L 383.401977 8.321655 
L 386.866872 3.130363 
L 390.331766 6.557241 
L 393.796661 4.640061 
L 397.261556 13.089782 
L 400.726451 2.871737 
L 404.191345 -8.571304 
L 407.65624 -6.515275 
L 411.121135 -4.543355 
L 414.58603 -2.55313 
L 418.050924 -3.290351 
L 421.515819 -10.89691 
L 424.980714 -5.251008 
L 428.445609 0.837617 
L 431.910503 -6.134505 
L 435.375398 -1.321269 
L 438.840293 -2.59203 
L 442.305187 -5.179317 
L 445.770082 -2.330544 
L 449.234977 -2.204954 
L 452.699872 0.677059 
L 456.164766 -5.610207 
L 459.629661 -12.611481 
L 463.094556 -1.197601 
L 466.559451 2.028493 
L 470.024345 -2.027748 
L 473.48924 0.981333 
L 476.954135 0.319099 
L 480.41903 -5.064967 
L 483.883924 -1.362361 
L 487.348819 3.246451 
L 490.813714 2.316643 
L 494.278609 -2.385965 
L 497.743503 -11.195843 
L 501.208398 -9.622445 
L 504.673293 -10.293742 
L 508.138188 -9.259325 
L 511.603082 -4.472347 
L 515.067977 -1.824312 
L 518.532872 -3.380177 
L 521.997766 -5.944495 
L 525.462661 -8.07536 
L 528.927556 -7.485747 
L 532.392451 -7.521232 
L 535.857345 -3.041558 
L 539.32224 -2.616458 
L 542.787135 1.417404 
L 546.25203 1.209763 
L 549.716924 -3.924643 
L 553.181819 -6.471803 
L 556.646714 -4.24139 
L 560.111609 -6.063289 
L 563.576503 -4.352269 
L 567.041398 0.640435 
L 570.506293 1.040209 
L 573.971188 -0.582878 
L 577.436082 0.515007 
L 580.900977 -0.222986 
L 584.365872 -1.091043 
L 587.830766 -2.167892 
L 591.295661 -6.636375 
L 594.760556 -9.446564 
L 598.225451 -10.226139 
L 601.690345 -5.945357 
L 605.15524 -8.311969 
L 608.620135 -6.358377 
L 612.08503 -8.741367 
L 615.549924 -5.151907 
L 619.014819 -6.693904 
L 622.479714 -10.620911 
L 625.944609 -8.478505 
L 629.409503 -11.964685 
L 632.874398 -9.059461 
L 636.339293 -9.105214 
L 639.804188 -3.996823 
L 643.269082 -4.462085 
L 646.733977 4.086557 
L 650.198872 -1.005092 
L 653.663766 -4.688927 
L 657.128661 -11.05909 
L 660.593556 -7.612672 
L 664.058451 -5.789769 
L 667.523345 1.833583 
L 670.98824 -2.291952 
L 674.453135 -11.798148 
L 677.91803 -5.886305 
L 681.382924 -1.476272 
L 684.847819 -3.34577 
L 688.312714 -5.655267 
L 691.777609 -11.631644 
L 695.242503 -8.144628 
L 698.707398 -8.500495 
L 702.172293 -5.176039 
L 705.637188 -17.919293 
L 705.637188 -119.830602 
L 705.637188 -119.830602 
L 702.172293 -273.625305 
L 698.707398 -276.255003 
L 695.242503 -274.778857 
L 691.777609 -264.212638 
L 688.312714 -275.052856 
L 684.847819 -281.469455 
L 681.382924 -278.572552 
L 677.91803 -267.815195 
L 674.453135 -263.327052 
L 670.98824 -278.659263 
L 667.523345 -285.059252 
L 664.058451 -276.539389 
L 660.593556 -272.197973 
L 657.128661 -250.280882 
L 653.663766 -253.38773 
L 650.198872 -259.930318 
L 646.733977 -267.100422 
L 643.269082 -252.843496 
L 639.804188 -248.56391 
L 636.339293 -241.884441 
L 632.874398 -244.198291 
L 629.409503 -243.205019 
L 625.944609 -253.934793 
L 622.479714 -253.235377 
L 619.014819 -261.484915 
L 615.549924 -260.823131 
L 612.08503 -250.956093 
L 608.620135 -247.805722 
L 605.15524 -253.108061 
L 601.690345 -252.583855 
L 598.225451 -241.026574 
L 594.760556 -240.845005 
L 591.295661 -239.433275 
L 587.830766 -243.579761 
L 584.365872 -242.395047 
L 580.900977 -242.119861 
L 577.436082 -240.143571 
L 573.971188 -231.790828 
L 570.506293 -221.728573 
L 567.041398 -220.641565 
L 563.576503 -209.246217 
L 560.111609 -205.806633 
L 556.646714 -206.643423 
L 553.181819 -208.317155 
L 549.716924 -217.740849 
L 546.25203 -224.579607 
L 542.787135 -226.462881 
L 539.32224 -221.24689 
L 535.857345 -221.452365 
L 532.392451 -211.698763 
L 528.927556 -214.275214 
L 525.462661 -214.692889 
L 521.997766 -219.076376 
L 518.532872 -230.462623 
L 515.067977 -234.886257 
L 511.603082 -231.765418 
L 508.138188 -221.535729 
L 504.673293 -223.957856 
L 501.208398 -229.983089 
L 497.743503 -232.540599 
L 494.278609 -263.222483 
L 490.813714 -295.322972 
L 487.348819 -322.719316 
L 483.883924 -332.466657 
L 480.41903 -309.194914 
L 476.954135 -280.267102 
L 473.48924 -275.462857 
L 470.024345 -265.487832 
L 466.559451 -271.286404 
L 463.094556 -263.578482 
L 459.629661 -238.400494 
L 456.164766 -242.509393 
L 452.699872 -250.335347 
L 449.234977 -242.765063 
L 445.770082 -236.881896 
L 442.305187 -229.302828 
L 438.840293 -230.419079 
L 435.375398 -231.044887 
L 431.910503 -222.931286 
L 428.445609 -237.121971 
L 424.980714 -228.261261 
L 421.515819 -220.576889 
L 418.050924 -238.788118 
L 414.58603 -241.793931 
L 411.121135 -247.660699 
L 407.65624 -243.605041 
L 404.191345 -244.579957 
L 400.726451 -264.615351 
L 397.261556 -287.216398 
L 393.796661 -262.209334 
L 390.331766 -254.358909 
L 386.866872 -251.495059 
L 383.401977 -257.938409 
L 379.937082 -260.370294 
L 376.472188 -263.17428 
L 373.007293 -255.916201 
L 369.542398 -249.062646 
L 366.077503 -234.982899 
L 362.612609 -229.497084 
L 359.147714 -227.242637 
L 355.682819 -228.154445 
L 352.217924 -233.601746 
L 348.75303 -229.205586 
L 345.288135 -220.293222 
L 341.82324 -222.480681 
L 338.358345 -220.741715 
L 334.893451 -222.633266 
L 331.428556 -232.482935 
L 327.963661 -239.182154 
L 324.498766 -248.630164 
L 321.033872 -241.518074 
L 317.568977 -217.035717 
L 314.104082 -212.257896 
L 310.639187 -214.459106 
L 307.174293 -215.711708 
L 303.709398 -223.352949 
L 300.244503 -226.073139 
L 296.779609 -236.808269 
L 293.314714 -250.160303 
L 289.849819 -260.675985 
L 286.384924 -264.179921 
L 282.92003 -255.803908 
L 279.455135 -257.375999 
L 275.99024 -257.484429 
L 272.525345 -244.646333 
L 269.060451 -234.885408 
L 265.595556 -221.18429 
L 262.130661 -216.366039 
L 258.665766 -214.440055 
L 255.200872 -220.366485 
L 251.735977 -216.458491 
L 248.271082 -221.841568 
L 244.806187 -220.295518 
L 241.341293 -205.596249 
L 237.876398 -200.921885 
L 234.411503 -201.586983 
L 230.946609 -211.400226 
L 227.481714 -206.538212 
L 224.016819 -209.331816 
L 220.551924 -215.457396 
L 217.08703 -218.250396 
L 213.622135 -217.523755 
L 210.15724 -219.953253 
L 206.692345 -219.849628 
L 203.227451 -225.970568 
L 199.762556 -219.65752 
L 196.297661 -223.510358 
L 192.832766 -232.076045 
L 189.367872 -229.644968 
L 185.902977 -223.169111 
L 182.438082 -218.979439 
L 178.973187 -215.13434 
L 175.508293 -209.006588 
L 172.043398 -196.227534 
L 168.578503 -196.05374 
L 165.113609 -192.578543 
L 161.648714 -199.14409 
L 158.183819 -209.123519 
L 154.718924 -222.430577 
L 151.25403 -234.392478 
L 147.789135 -229.196175 
L 144.32424 -202.159774 
L 140.859345 -188.18027 
L 137.394451 -181.474848 
L 133.929556 -178.344894 
L 130.464661 -181.241949 
L 126.999766 -181.255881 
L 123.534872 -185.274088 
L 120.069977 -184.224001 
L 116.605082 -179.556822 
L 113.140187 -182.511669 
L 109.675293 -185.287867 
L 106.210398 -188.270895 
L 102.745503 -186.568534 
L 99.280609 -182.577623 
L 95.815714 -181.856055 
L 92.350819 -183.922653 
L 88.885924 -184.532725 
L 85.42103 -187.147177 
L 81.956135 -188.82128 
L 78.49124 -189.097242 
L 75.026345 -187.709046 
L 71.561451 -187.279238 
L 68.096556 -197.319486 
L 64.631661 -209.802175 
L 61.166766 -217.867193 
L 57.701872 -222.359609 
L 54.236977 -228.085014 
L 50.772082 -178.810359 
L 47.307188 -155.136154 
z
" style="stroke: #d3d3d3; stroke-opacity: 0.5"/>
    </defs>
    <g clip-path="url(#pa7723ab401)">
     <use xlink:href="#md9312b1a55" x="0" y="424.5775" style="fill: #d3d3d3; fill-opacity: 0.5; stroke: #d3d3d3; stroke-opacity: 0.5"/>
    </g>
   </g>
   <g id="FillBetweenPolyCollection_2">
    <defs>
     <path id="m45e618843b" d="M 47.307188 -120.933823 
L 47.307188 -52.529161 
L 50.772082 -50.792946 
L 54.236977 -50.008162 
L 57.701872 -54.63749 
L 61.166766 -55.980796 
L 64.631661 -53.902803 
L 68.096556 -53.442569 
L 71.561451 -53.290083 
L 75.026345 -54.565847 
L 78.49124 -54.201531 
L 81.956135 -53.118247 
L 85.42103 -52.131063 
L 88.885924 -52.117682 
L 92.350819 -51.857622 
L 95.815714 -51.506632 
L 99.280609 -50.388291 
L 102.745503 -49.510163 
L 106.210398 -49.622233 
L 109.675293 -49.595995 
L 113.140187 -50.483274 
L 116.605082 -50.562818 
L 120.069977 -50.04092 
L 123.534872 -49.523335 
L 126.999766 -49.563985 
L 130.464661 -49.701195 
L 133.929556 -50.53244 
L 137.394451 -49.258122 
L 140.859345 -48.158451 
L 144.32424 -47.009578 
L 147.789135 -47.087284 
L 151.25403 -47.088522 
L 154.718924 -46.659996 
L 158.183819 -47.189484 
L 161.648714 -46.111495 
L 165.113609 -48.08483 
L 168.578503 -48.216933 
L 172.043398 -48.193147 
L 175.508293 -43.880435 
L 178.973187 -45.870916 
L 182.438082 -46.251988 
L 185.902977 -46.832162 
L 189.367872 -46.434164 
L 192.832766 -49.265556 
L 196.297661 -53.549833 
L 199.762556 -58.094715 
L 203.227451 -54.869038 
L 206.692345 -58.186901 
L 210.15724 -55.350088 
L 213.622135 -55.970489 
L 217.08703 -55.628409 
L 220.551924 -54.098305 
L 224.016819 -52.642322 
L 227.481714 -54.749586 
L 230.946609 -54.152112 
L 234.411503 -53.926093 
L 237.876398 -54.348321 
L 241.341293 -54.036159 
L 244.806187 -50.825731 
L 248.271082 -50.078541 
L 251.735977 -54.296004 
L 255.200872 -53.877508 
L 258.665766 -57.586579 
L 262.130661 -59.122839 
L 265.595556 -59.644809 
L 269.060451 -56.630138 
L 272.525345 -56.579195 
L 275.99024 -57.202474 
L 279.455135 -58.294851 
L 282.92003 -65.288812 
L 286.384924 -64.393008 
L 289.849819 -63.558364 
L 293.314714 -62.011061 
L 296.779609 -60.334112 
L 300.244503 -60.35528 
L 303.709398 -59.363393 
L 307.174293 -58.775484 
L 310.639187 -57.069847 
L 314.104082 -57.05164 
L 317.568977 -58.466625 
L 321.033872 -55.677132 
L 324.498766 -55.639476 
L 327.963661 -57.03096 
L 331.428556 -56.891416 
L 334.893451 -56.814941 
L 338.358345 -56.048767 
L 341.82324 -54.83472 
L 345.288135 -53.264759 
L 348.75303 -50.183588 
L 352.217924 -52.893691 
L 355.682819 -54.137026 
L 359.147714 -54.384054 
L 362.612609 -54.8034 
L 366.077503 -56.531122 
L 369.542398 -59.892179 
L 373.007293 -59.306203 
L 376.472188 -58.709458 
L 379.937082 -59.293984 
L 383.401977 -58.243361 
L 386.866872 -60.525992 
L 390.331766 -58.671797 
L 393.796661 -62.072288 
L 397.261556 -61.986763 
L 400.726451 -64.000035 
L 404.191345 -67.573467 
L 407.65624 -65.787716 
L 411.121135 -65.322691 
L 414.58603 -62.36333 
L 418.050924 -62.164792 
L 421.515819 -63.316905 
L 424.980714 -61.003572 
L 428.445609 -58.65228 
L 431.910503 -60.3337 
L 435.375398 -58.752174 
L 438.840293 -59.548792 
L 442.305187 -61.210195 
L 445.770082 -60.968382 
L 449.234977 -62.344981 
L 452.699872 -62.076043 
L 456.164766 -64.835004 
L 459.629661 -69.058734 
L 463.094556 -66.792821 
L 466.559451 -66.300231 
L 470.024345 -67.892769 
L 473.48924 -68.129715 
L 476.954135 -69.827451 
L 480.41903 -81.097453 
L 483.883924 -84.138435 
L 487.348819 -78.24499 
L 490.813714 -72.093261 
L 494.278609 -67.595095 
L 497.743503 -66.532032 
L 501.208398 -64.712606 
L 504.673293 -63.70977 
L 508.138188 -62.328426 
L 511.603082 -61.295615 
L 515.067977 -60.089798 
L 518.532872 -60.150789 
L 521.997766 -59.227466 
L 525.462661 -59.729742 
L 528.927556 -59.183113 
L 532.392451 -58.565615 
L 535.857345 -57.64426 
L 539.32224 -57.274066 
L 542.787135 -55.552667 
L 546.25203 -55.23758 
L 549.716924 -57.378694 
L 553.181819 -56.933141 
L 556.646714 -54.841898 
L 560.111609 -55.999125 
L 563.576503 -55.575756 
L 567.041398 -54.680065 
L 570.506293 -54.651987 
L 573.971188 -58.384866 
L 577.436082 -59.649638 
L 580.900977 -60.697205 
L 584.365872 -61.417044 
L 587.830766 -62.520859 
L 591.295661 -64.8356 
L 594.760556 -67.296174 
L 598.225451 -67.926248 
L 601.690345 -67.604981 
L 605.15524 -69.510992 
L 608.620135 -66.720213 
L 612.08503 -69.295048 
L 615.549924 -69.069713 
L 619.014819 -70.391657 
L 622.479714 -71.274528 
L 625.944609 -69.842577 
L 629.409503 -69.774769 
L 632.874398 -67.844169 
L 636.339293 -67.300021 
L 639.804188 -65.138595 
L 643.269082 -66.557438 
L 646.733977 -63.710188 
L 650.198872 -65.736398 
L 653.663766 -66.863628 
L 657.128661 -70.864538 
L 660.593556 -73.758997 
L 664.058451 -73.477174 
L 667.523345 -69.889625 
L 670.98824 -71.38378 
L 674.453135 -74.680374 
L 677.91803 -71.368528 
L 681.382924 -70.750342 
L 684.847819 -72.876691 
L 688.312714 -73.004664 
L 691.777609 -74.776893 
L 695.242503 -74.803186 
L 698.707398 -75.439122 
L 702.172293 -72.288356 
L 705.637188 -43.39712 
L 705.637188 -94.352775 
L 705.637188 -94.352775 
L 702.172293 -206.512989 
L 698.707398 -209.316376 
L 695.242503 -208.1203 
L 691.777609 -201.06739 
L 688.312714 -207.703459 
L 684.847819 -211.938534 
L 681.382924 -209.298482 
L 677.91803 -202.332972 
L 674.453135 -200.444826 
L 670.98824 -209.567435 
L 667.523345 -213.336043 
L 664.058451 -208.851984 
L 660.593556 -206.051648 
L 657.128661 -190.475434 
L 653.663766 -191.21303 
L 650.198872 -195.199011 
L 646.733977 -199.303677 
L 643.269082 -190.748143 
L 639.804188 -187.422138 
L 636.339293 -183.689635 
L 632.874398 -185.413584 
L 629.409503 -185.394936 
L 625.944609 -192.570721 
L 622.479714 -192.581761 
L 619.014819 -197.787162 
L 615.549924 -196.905325 
L 612.08503 -190.402412 
L 608.620135 -187.443886 
L 605.15524 -191.909038 
L 601.690345 -190.92423 
L 598.225451 -183.326465 
L 594.760556 -182.995395 
L 591.295661 -181.23405 
L 587.830766 -183.226794 
L 584.365872 -182.069046 
L 580.900977 -181.645642 
L 577.436082 -179.978927 
L 573.971188 -173.988841 
L 570.506293 -166.036378 
L 567.041398 -165.321065 
L 563.576503 -158.02273 
L 560.111609 -155.870797 
L 556.646714 -156.042915 
L 553.181819 -157.855817 
L 549.716924 -164.286797 
L 546.25203 -168.132265 
L 542.787135 -169.49281 
L 539.32224 -166.589282 
L 535.857345 -166.849664 
L 532.392451 -160.65438 
L 528.927556 -162.577847 
L 525.462661 -163.038507 
L 521.997766 -165.793406 
L 518.532872 -173.692012 
L 515.067977 -176.620771 
L 511.603082 -174.942151 
L 508.138188 -168.466628 
L 504.673293 -170.541828 
L 501.208398 -174.892928 
L 497.743503 -177.20441 
L 494.278609 -198.013353 
L 490.813714 -220.913068 
L 487.348819 -241.227874 
L 483.883924 -249.690583 
L 480.41903 -233.162427 
L 476.954135 -210.120552 
L 473.48924 -206.351809 
L 470.024345 -199.622811 
L 466.559451 -202.95768 
L 463.094556 -197.983262 
L 459.629661 -181.953241 
L 456.164766 -183.284597 
L 452.699872 -187.582245 
L 449.234977 -182.625036 
L 445.770082 -178.244058 
L 442.305187 -173.27195 
L 438.840293 -173.462316 
L 435.375398 -173.613983 
L 431.910503 -168.732091 
L 428.445609 -177.632074 
L 424.980714 -172.508698 
L 421.515819 -168.156894 
L 418.050924 -179.913676 
L 414.58603 -181.98373 
L 411.121135 -186.881363 
L 407.65624 -184.3326 
L 404.191345 -185.577794 
L 400.726451 -197.743579 
L 397.261556 -212.139853 
L 393.796661 -195.496986 
L 390.331766 -189.129871 
L 386.866872 -187.838703 
L 383.401977 -191.373393 
L 379.937082 -193.344858 
L 376.472188 -195.019339 
L 373.007293 -190.379535 
L 369.542398 -186.005824 
L 366.077503 -175.498973 
L 362.612609 -171.265856 
L 359.147714 -169.62311 
L 355.682819 -170.148639 
L 352.217924 -173.365728 
L 348.75303 -169.531587 
L 345.288135 -164.617067 
L 341.82324 -166.598694 
L 338.358345 -165.844066 
L 334.893451 -167.360491 
L 331.428556 -173.952429 
L 327.963661 -178.46509 
L 324.498766 -184.299935 
L 321.033872 -179.571093 
L 317.568977 -164.179353 
L 314.104082 -160.522477 
L 310.639187 -161.99602 
L 307.174293 -163.399633 
L 303.709398 -168.689764 
L 300.244503 -170.833853 
L 296.779609 -177.98355 
L 293.314714 -187.443889 
L 289.849819 -194.970111 
L 286.384924 -197.584283 
L 282.92003 -192.298876 
L 279.455135 -191.015616 
L 275.99024 -190.723777 
L 272.525345 -181.957287 
L 269.060451 -175.466985 
L 265.595556 -167.337796 
L 262.130661 -163.951639 
L 258.665766 -162.155563 
L 255.200872 -164.870159 
L 251.735977 -162.404329 
L 248.271082 -164.587226 
L 244.806187 -163.805589 
L 241.341293 -155.076219 
L 237.876398 -152.06403 
L 234.411503 -152.366686 
L 230.946609 -158.984188 
L 227.481714 -155.942004 
L 224.016819 -157.101985 
L 220.551924 -161.671032 
L 217.08703 -164.043067 
L 213.622135 -163.672666 
L 210.15724 -165.085531 
L 206.692345 -165.962052 
L 203.227451 -168.936724 
L 199.762556 -165.803252 
L 196.297661 -166.85685 
L 192.832766 -171.139215 
L 189.367872 -168.5747 
L 185.902977 -164.390128 
L 182.438082 -161.403622 
L 178.973187 -158.713199 
L 175.508293 -153.964537 
L 172.043398 -146.882738 
L 168.578503 -146.774805 
L 165.113609 -144.413972 
L 161.648714 -148.133225 
L 158.183819 -155.145507 
L 154.718924 -163.840384 
L 151.25403 -171.957826 
L 147.789135 -168.493211 
L 144.32424 -150.443042 
L 140.859345 -141.506331 
L 137.394451 -137.402606 
L 133.929556 -135.740743 
L 130.464661 -137.395031 
L 126.999766 -137.358582 
L 123.534872 -140.023837 
L 120.069977 -139.496308 
L 116.605082 -136.558821 
L 113.140187 -138.502204 
L 109.675293 -140.057243 
L 106.210398 -142.054675 
L 102.745503 -140.88241 
L 99.280609 -138.514513 
L 95.815714 -138.406248 
L 92.350819 -139.900976 
L 88.885924 -140.394378 
L 85.42103 -142.141805 
L 81.956135 -143.586936 
L 78.49124 -144.132005 
L 75.026345 -143.32798 
L 71.561451 -142.616186 
L 68.096556 -149.360514 
L 64.631661 -157.835717 
L 61.166766 -163.90506 
L 57.701872 -166.452236 
L 54.236977 -168.726063 
L 50.772082 -136.137888 
L 47.307188 -120.933823 
z
" style="stroke: #808080; stroke-opacity: 0.7"/>
    </defs>
    <g clip-path="url(#pa7723ab401)">
     <use xlink:href="#m45e618843b" x="0" y="424.5775" style="fill: #808080; fill-opacity: 0.7; stroke: #808080; stroke-opacity: 0.7"/>
    </g>
   </g>
   <g id="line2d_31">
    <path d="M 47.307188 343.479003 
L 50.772082 344.539606 
L 54.236977 338.769314 
L 57.701872 327.972168 
L 61.166766 355.167377 
L 64.631661 354.304571 
L 68.096556 354.710849 
L 71.561451 361.504278 
L 75.026345 361.114309 
L 78.49124 357.303431 
L 81.956135 354.278319 
L 85.42103 356.019526 
L 88.885924 358.773377 
L 92.350819 358.85122 
L 95.815714 356.279071 
L 99.280609 361.04174 
L 102.745503 357.070479 
L 106.210398 363.218096 
L 109.675293 363.119811 
L 113.140187 358.663846 
L 116.605082 362.416174 
L 120.069977 365.688469 
L 123.534872 364.04044 
L 126.999766 365.254115 
L 130.464661 366.225103 
L 133.929556 363.770907 
L 137.394451 361.511992 
L 140.859345 365.475759 
L 144.32424 366.70898 
L 147.789135 365.712877 
L 151.25403 362.34606 
L 154.718924 367.285997 
L 158.183819 366.350216 
L 161.648714 350.982554 
L 165.113609 345.649541 
L 168.578503 360.570971 
L 172.043398 367.741449 
L 178.973187 367.741449 
L 182.438082 367.037983 
L 185.902977 364.391363 
L 189.367872 366.82351 
L 192.832766 360.812649 
L 196.297661 359.818429 
L 199.762556 361.60783 
L 203.227451 354.914049 
L 206.692345 348.923967 
L 210.15724 335.462112 
L 213.622135 270.682632 
L 217.08703 342.579691 
L 220.551924 366.236694 
L 224.016819 366.717477 
L 227.481714 366.234587 
L 230.946609 366.04282 
L 234.411503 364.217113 
L 237.876398 358.077907 
L 244.806187 361.994489 
L 248.271082 360.747835 
L 251.735977 359.945094 
L 255.200872 339.830651 
L 258.665766 357.656364 
L 262.130661 362.728189 
L 265.595556 366.535347 
L 269.060451 367.633849 
L 272.525345 367.625148 
L 275.99024 367.43431 
L 279.455135 335.435338 
L 282.92003 334.709587 
L 286.384924 336.345844 
L 289.849819 345.373266 
L 293.314714 343.817277 
L 296.779609 332.901037 
L 300.244503 326.437122 
L 303.709398 334.921237 
L 307.174293 320.619875 
L 310.639187 326.33806 
L 314.104082 303.561775 
L 317.568977 291.806646 
L 321.033872 310.521812 
L 324.498766 312.81867 
L 327.963661 329.15707 
L 331.428556 331.259472 
L 334.893451 329.78989 
L 338.358345 339.097815 
L 341.82324 334.414124 
L 345.288135 336.137966 
L 348.75303 333.46608 
L 352.217924 337.633796 
L 355.682819 321.64638 
L 359.147714 247.603756 
L 362.612609 303.947784 
L 366.077503 321.121734 
L 369.542398 307.05159 
L 373.007293 316.823247 
L 376.472188 325.156494 
L 379.937082 332.682726 
L 383.401977 348.458591 
L 386.866872 309.668305 
L 390.331766 332.74293 
L 393.796661 325.584318 
L 397.261556 334.065855 
L 400.726451 319.225369 
L 404.191345 306.293818 
L 407.65624 327.120165 
L 411.121135 318.249363 
L 414.58603 336.365666 
L 418.050924 311.808365 
L 421.515819 299.825658 
L 424.980714 326.197736 
L 428.445609 305.776097 
L 431.910503 275.943149 
L 435.375398 314.234995 
L 438.840293 327.928679 
L 442.305187 367.43023 
L 445.770082 337.85797 
L 449.234977 325.782512 
L 452.699872 295.497228 
L 456.164766 337.895887 
L 459.629661 332.036357 
L 463.094556 338.785304 
L 466.559451 286.290338 
L 470.024345 259.940109 
L 473.48924 242.994247 
L 476.954135 248.323768 
L 480.41903 260.398364 
L 483.883924 246.445794 
L 487.348819 289.927654 
L 490.813714 287.447223 
L 494.278609 288.783505 
L 497.743503 283.079865 
L 501.208398 303.56568 
L 504.673293 276.7274 
L 508.138188 267.272968 
L 511.603082 286.975656 
L 515.067977 288.480722 
L 518.532872 255.422228 
L 521.997766 254.915162 
L 525.462661 231.116968 
L 528.927556 216.813316 
L 532.392451 254.125727 
L 535.857345 275.208341 
L 539.32224 302.853446 
L 542.787135 269.310459 
L 546.25203 288.274786 
L 549.716924 289.369356 
L 553.181819 296.674129 
L 556.646714 286.2154 
L 560.111609 274.439785 
L 563.576503 290.774581 
L 567.041398 302.899356 
L 570.506293 309.187425 
L 573.971188 316.572535 
L 577.436082 307.650287 
L 580.900977 322.557811 
L 584.365872 334.34176 
L 587.830766 341.720477 
L 591.295661 320.437455 
L 594.760556 301.061648 
L 598.225451 293.619385 
L 601.690345 303.312371 
L 605.15524 325.534554 
L 608.620135 291.549389 
L 612.08503 330.060206 
L 615.549924 298.309727 
L 619.014819 343.869614 
L 622.479714 300.532906 
L 625.944609 289.23005 
L 629.409503 271.611518 
L 632.874398 286.618531 
L 636.339293 323.390965 
L 639.804188 293.576422 
L 643.269082 335.022628 
L 646.733977 344.866758 
L 650.198872 306.192416 
L 653.663766 270.554079 
L 657.128661 292.380239 
L 660.593556 314.953568 
L 664.058451 298.298972 
L 667.523345 294.09117 
L 670.98824 287.066342 
L 674.453135 253.553557 
L 677.91803 288.610681 
L 681.382924 276.755547 
L 684.847819 294.576676 
L 688.312714 283.161801 
L 691.777609 297.108388 
L 695.242503 311.623985 
L 698.707398 313.105652 
L 702.172293 281.974201 
L 705.637188 281.224162 
L 705.637188 281.224162 
" clip-path="url(#pa7723ab401)" style="fill: none; stroke: #ff8c00; stroke-width: 2.3; stroke-linecap: square"/>
   </g>
   <g id="line2d_32">
    <path d="M 275.99024 384.117812 
L 275.99024 23.837812 
" clip-path="url(#pa7723ab401)" style="fill: none; stroke-dasharray: 5.55,2.4; stroke-dashoffset: 0; stroke: #808080; stroke-width: 1.5"/>
   </g>
   <g id="line2d_33">
    <path d="M 473.48924 384.117812 
L 473.48924 23.837812 
" clip-path="url(#pa7723ab401)" style="fill: none; stroke-dasharray: 5.55,2.4; stroke-dashoffset: 0; stroke: #808080; stroke-width: 1.5"/>
   </g>
   <g id="patch_3">
    <path d="M 47.307188 384.117812 
L 47.307188 23.837812 
" style="fill: none; stroke: #000000; stroke-width: 0.8; stroke-linejoin: miter; stroke-linecap: square"/>
   </g>
   <g id="patch_4">
    <path d="M 705.637188 384.117812 
L 705.637188 23.837812 
" style="fill: none; stroke: #000000; stroke-width: 0.8; stroke-linejoin: miter; stroke-linecap: square"/>
   </g>
   <g id="patch_5">
    <path d="M 47.307188 384.117812 
L 705.637188 384.117812 
" style="fill: none; stroke: #000000; stroke-width: 0.8; stroke-linejoin: miter; stroke-linecap: square"/>
   </g>
   <g id="patch_6">
    <path d="M 47.307188 23.837812 
L 705.637188 23.837812 
" style="fill: none; stroke: #000000; stroke-width: 0.8; stroke-linejoin: miter; stroke-linecap: square"/>
   </g>
   <g id="text_18">
    <!-- Facial trace: Control group -->
    <g transform="translate(284.040469 17.837812) scale(0.14 -0.14)">
     <defs>
      <path id="DejaVuSans-46" d="M 628 4666 
L 3309 4666 
L 3309 4134 
L 1259 4134 
L 1259 2759 
L 3109 2759 
L 3109 2228 
L 1259 2228 
L 1259 0 
L 628 0 
L 628 4666 
z
" transform="scale(0.015625)"/>
      <path id="DejaVuSans-63" d="M 3122 3366 
L 3122 2828 
Q 2878 2963 2633 3030 
Q 2388 3097 2138 3097 
Q 1578 3097 1268 2742 
Q 959 2388 959 1747 
Q 959 1106 1268 751 
Q 1578 397 2138 397 
Q 2388 397 2633 464 
Q 2878 531 3122 666 
L 3122 134 
Q 2881 22 2623 -34 
Q 2366 -91 2075 -91 
Q 1284 -91 818 406 
Q 353 903 353 1747 
Q 353 2603 823 3093 
Q 1294 3584 2113 3584 
Q 2378 3584 2631 3529 
Q 2884 3475 3122 3366 
z
" transform="scale(0.015625)"/>
      <path id="DejaVuSans-6c" d="M 603 4863 
L 1178 4863 
L 1178 0 
L 603 0 
L 603 4863 
z
" transform="scale(0.015625)"/>
      <path id="DejaVuSans-72" d="M 2631 2963 
Q 2534 3019 2420 3045 
Q 2306 3072 2169 3072 
Q 1681 3072 1420 2755 
Q 1159 2438 1159 1844 
L 1159 0 
L 581 0 
L 581 3500 
L 1159 3500 
L 1159 2956 
Q 1341 3275 1631 3429 
Q 1922 3584 2338 3584 
Q 2397 3584 2469 3576 
Q 2541 3569 2628 3553 
L 2631 2963 
z
" transform="scale(0.015625)"/>
      <path id="DejaVuSans-3a" d="M 750 794 
L 1409 794 
L 1409 0 
L 750 0 
L 750 794 
z
M 750 3309 
L 1409 3309 
L 1409 2516 
L 750 2516 
L 750 3309 
z
" transform="scale(0.015625)"/>
      <path id="DejaVuSans-43" d="M 4122 4306 
L 4122 3641 
Q 3803 3938 3442 4084 
Q 3081 4231 2675 4231 
Q 1875 4231 1450 3742 
Q 1025 3253 1025 2328 
Q 1025 1406 1450 917 
Q 1875 428 2675 428 
Q 3081 428 3442 575 
Q 3803 722 4122 1019 
L 4122 359 
Q 3791 134 3420 21 
Q 3050 -91 2638 -91 
Q 1578 -91 968 557 
Q 359 1206 359 2328 
Q 359 3453 968 4101 
Q 1578 4750 2638 4750 
Q 3056 4750 3426 4639 
Q 3797 4528 4122 4306 
z
" transform="scale(0.015625)"/>
      <path id="DejaVuSans-6f" d="M 1959 3097 
Q 1497 3097 1228 2736 
Q 959 2375 959 1747 
Q 959 1119 1226 758 
Q 1494 397 1959 397 
Q 2419 397 2687 759 
Q 2956 1122 2956 1747 
Q 2956 2369 2687 2733 
Q 2419 3097 1959 3097 
z
M 1959 3584 
Q 2709 3584 3137 3096 
Q 3566 2609 3566 1747 
Q 3566 888 3137 398 
Q 2709 -91 1959 -91 
Q 1206 -91 779 398 
Q 353 888 353 1747 
Q 353 2609 779 3096 
Q 1206 3584 1959 3584 
z
" transform="scale(0.015625)"/>
      <path id="DejaVuSans-67" d="M 2906 1791 
Q 2906 2416 2648 2759 
Q 2391 3103 1925 3103 
Q 1463 3103 1205 2759 
Q 947 2416 947 1791 
Q 947 1169 1205 825 
Q 1463 481 1925 481 
Q 2391 481 2648 825 
Q 2906 1169 2906 1791 
z
M 3481 434 
Q 3481 -459 3084 -895 
Q 2688 -1331 1869 -1331 
Q 1566 -1331 1297 -1286 
Q 1028 -1241 775 -1147 
L 775 -588 
Q 1028 -725 1275 -790 
Q 1522 -856 1778 -856 
Q 2344 -856 2625 -561 
Q 2906 -266 2906 331 
L 2906 616 
Q 2728 306 2450 153 
Q 2172 0 1784 0 
Q 1141 0 747 490 
Q 353 981 353 1791 
Q 353 2603 747 3093 
Q 1141 3584 1784 3584 
Q 2172 3584 2450 3431 
Q 2728 3278 2906 2969 
L 2906 3500 
L 3481 3500 
L 3481 434 
z
" transform="scale(0.015625)"/>
      <path id="DejaVuSans-75" d="M 544 1381 
L 544 3500 
L 1119 3500 
L 1119 1403 
Q 1119 906 1312 657 
Q 1506 409 1894 409 
Q 2359 409 2629 706 
Q 2900 1003 2900 1516 
L 2900 3500 
L 3475 3500 
L 3475 0 
L 2900 0 
L 2900 538 
Q 2691 219 2414 64 
Q 2138 -91 1772 -91 
Q 1169 -91 856 284 
Q 544 659 544 1381 
z
M 1991 3584 
L 1991 3584 
z
" transform="scale(0.015625)"/>
      <path id="DejaVuSans-70" d="M 1159 525 
L 1159 -1331 
L 581 -1331 
L 581 3500 
L 1159 3500 
L 1159 2969 
Q 1341 3281 1617 3432 
Q 1894 3584 2278 3584 
Q 2916 3584 3314 3078 
Q 3713 2572 3713 1747 
Q 3713 922 3314 415 
Q 2916 -91 2278 -91 
Q 1894 -91 1617 61 
Q 1341 213 1159 525 
z
M 3116 1747 
Q 3116 2381 2855 2742 
Q 2594 3103 2138 3103 
Q 1681 3103 1420 2742 
Q 1159 2381 1159 1747 
Q 1159 1113 1420 752 
Q 1681 391 2138 391 
Q 2594 391 2855 752 
Q 3116 1113 3116 1747 
z
" transform="scale(0.015625)"/>
     </defs>
     <use xlink:href="#DejaVuSans-46"/>
     <use xlink:href="#DejaVuSans-61" transform="translate(48.394531 0)"/>
     <use xlink:href="#DejaVuSans-63" transform="translate(109.673828 0)"/>
     <use xlink:href="#DejaVuSans-69" transform="translate(164.654297 0)"/>
     <use xlink:href="#DejaVuSans-61" transform="translate(192.4375 0)"/>
     <use xlink:href="#DejaVuSans-6c" transform="translate(253.716797 0)"/>
     <use xlink:href="#DejaVuSans-20" transform="translate(281.5 0)"/>
     <use xlink:href="#DejaVuSans-74" transform="translate(313.287109 0)"/>
     <use xlink:href="#DejaVuSans-72" transform="translate(352.496094 0)"/>
     <use xlink:href="#DejaVuSans-61" transform="translate(393.609375 0)"/>
     <use xlink:href="#DejaVuSans-63" transform="translate(454.888672 0)"/>
     <use xlink:href="#DejaVuSans-65" transform="translate(509.869141 0)"/>
     <use xlink:href="#DejaVuSans-3a" transform="translate(571.392578 0)"/>
     <use xlink:href="#DejaVuSans-20" transform="translate(605.083984 0)"/>
     <use xlink:href="#DejaVuSans-43" transform="translate(636.871094 0)"/>
     <use xlink:href="#DejaVuSans-6f" transform="translate(706.695312 0)"/>
     <use xlink:href="#DejaVuSans-6e" transform="translate(767.876953 0)"/>
     <use xlink:href="#DejaVuSans-74" transform="translate(831.255859 0)"/>
     <use xlink:href="#DejaVuSans-72" transform="translate(870.464844 0)"/>
     <use xlink:href="#DejaVuSans-6f" transform="translate(909.328125 0)"/>
     <use xlink:href="#DejaVuSans-6c" transform="translate(970.509766 0)"/>
     <use xlink:href="#DejaVuSans-20" transform="translate(998.292969 0)"/>
     <use xlink:href="#DejaVuSans-67" transform="translate(1030.080078 0)"/>
     <use xlink:href="#DejaVuSans-72" transform="translate(1093.556641 0)"/>
     <use xlink:href="#DejaVuSans-6f" transform="translate(1132.419922 0)"/>
     <use xlink:href="#DejaVuSans-75" transform="translate(1193.601562 0)"/>
     <use xlink:href="#DejaVuSans-70" transform="translate(1256.980469 0)"/>
    </g>
   </g>
   <g id="legend_1">
    <g id="patch_7">
     <path d="M 551.080313 42.096094 
L 573.080313 42.096094 
L 573.080313 34.396094 
L 551.080313 34.396094 
z
" style="fill: #d3d3d3; fill-opacity: 0.5; stroke: #d3d3d3; stroke-opacity: 0.5; stroke-linejoin: miter"/>
    </g>
    <g id="text_19">
     <!-- Control group ±2 SD -->
     <g transform="translate(581.880313 42.096094) scale(0.11 -0.11)">
      <defs>
       <path id="DejaVuSans-b1" d="M 2944 4013 
L 2944 2803 
L 4684 2803 
L 4684 2272 
L 2944 2272 
L 2944 1063 
L 2419 1063 
L 2419 2272 
L 678 2272 
L 678 2803 
L 2419 2803 
L 2419 4013 
L 2944 4013 
z
M 678 531 
L 4684 531 
L 4684 0 
L 678 0 
L 678 531 
z
" transform="scale(0.015625)"/>
       <path id="DejaVuSans-53" d="M 3425 4513 
L 3425 3897 
Q 3066 4069 2747 4153 
Q 2428 4238 2131 4238 
Q 1616 4238 1336 4038 
Q 1056 3838 1056 3469 
Q 1056 3159 1242 3001 
Q 1428 2844 1947 2747 
L 2328 2669 
Q 3034 2534 3370 2195 
Q 3706 1856 3706 1288 
Q 3706 609 3251 259 
Q 2797 -91 1919 -91 
Q 1588 -91 1214 -16 
Q 841 59 441 206 
L 441 856 
Q 825 641 1194 531 
Q 1563 422 1919 422 
Q 2459 422 2753 634 
Q 3047 847 3047 1241 
Q 3047 1584 2836 1778 
Q 2625 1972 2144 2069 
L 1759 2144 
Q 1053 2284 737 2584 
Q 422 2884 422 3419 
Q 422 4038 858 4394 
Q 1294 4750 2059 4750 
Q 2388 4750 2728 4690 
Q 3069 4631 3425 4513 
z
" transform="scale(0.015625)"/>
       <path id="DejaVuSans-44" d="M 1259 4147 
L 1259 519 
L 2022 519 
Q 2988 519 3436 956 
Q 3884 1394 3884 2338 
Q 3884 3275 3436 3711 
Q 2988 4147 2022 4147 
L 1259 4147 
z
M 628 4666 
L 1925 4666 
Q 3281 4666 3915 4102 
Q 4550 3538 4550 2338 
Q 4550 1131 3912 565 
Q 3275 0 1925 0 
L 628 0 
L 628 4666 
z
" transform="scale(0.015625)"/>
      </defs>
      <use xlink:href="#DejaVuSans-43"/>
      <use xlink:href="#DejaVuSans-6f" transform="translate(69.824219 0)"/>
      <use xlink:href="#DejaVuSans-6e" transform="translate(131.005859 0)"/>
      <use xlink:href="#DejaVuSans-74" transform="translate(194.384766 0)"/>
      <use xlink:href="#DejaVuSans-72" transform="translate(233.59375 0)"/>
      <use xlink:href="#DejaVuSans-6f" transform="translate(272.457031 0)"/>
      <use xlink:href="#DejaVuSans-6c" transform="translate(333.638672 0)"/>
      <use xlink:href="#DejaVuSans-20" transform="translate(361.421875 0)"/>
      <use xlink:href="#DejaVuSans-67" transform="translate(393.208984 0)"/>
      <use xlink:href="#DejaVuSans-72" transform="translate(456.685547 0)"/>
      <use xlink:href="#DejaVuSans-6f" transform="translate(495.548828 0)"/>
      <use xlink:href="#DejaVuSans-75" transform="translate(556.730469 0)"/>
      <use xlink:href="#DejaVuSans-70" transform="translate(620.109375 0)"/>
      <use xlink:href="#DejaVuSans-20" transform="translate(683.585938 0)"/>
      <use xlink:href="#DejaVuSans-b1" transform="translate(715.373047 0)"/>
      <use xlink:href="#DejaVuSans-32" transform="translate(799.162109 0)"/>
      <use xlink:href="#DejaVuSans-20" transform="translate(862.785156 0)"/>
      <use xlink:href="#DejaVuSans-53" transform="translate(894.572266 0)"/>
      <use xlink:href="#DejaVuSans-44" transform="translate(958.048828 0)"/>
     </g>
    </g>
    <g id="patch_8">
     <path d="M 551.080313 58.242031 
L 573.080313 58.242031 
L 573.080313 50.542031 
L 551.080313 50.542031 
z
" style="fill: #808080; fill-opacity: 0.7; stroke: #808080; stroke-opacity: 0.7; stroke-linejoin: miter"/>
    </g>
    <g id="text_20">
     <!-- Control group ±1 SD -->
     <g transform="translate(581.880313 58.242031) scale(0.11 -0.11)">
      <use xlink:href="#DejaVuSans-43"/>
      <use xlink:href="#DejaVuSans-6f" transform="translate(69.824219 0)"/>
      <use xlink:href="#DejaVuSans-6e" transform="translate(131.005859 0)"/>
      <use xlink:href="#DejaVuSans-74" transform="translate(194.384766 0)"/>
      <use xlink:href="#DejaVuSans-72" transform="translate(233.59375 0)"/>
      <use xlink:href="#DejaVuSans-6f" transform="translate(272.457031 0)"/>
      <use xlink:href="#DejaVuSans-6c" transform="translate(333.638672 0)"/>
      <use xlink:href="#DejaVuSans-20" transform="translate(361.421875 0)"/>
      <use xlink:href="#DejaVuSans-67" transform="translate(393.208984 0)"/>
      <use xlink:href="#DejaVuSans-72" transform="translate(456.685547 0)"/>
      <use xlink:href="#DejaVuSans-6f" transform="translate(495.548828 0)"/>
      <use xlink:href="#DejaVuSans-75" transform="translate(556.730469 0)"/>
      <use xlink:href="#DejaVuSans-70" transform="translate(620.109375 0)"/>
      <use xlink:href="#DejaVuSans-20" transform="translate(683.585938 0)"/>
      <use xlink:href="#DejaVuSans-b1" transform="translate(715.373047 0)"/>
      <use xlink:href="#DejaVuSans-31" transform="translate(799.162109 0)"/>
      <use xlink:href="#DejaVuSans-20" transform="translate(862.785156 0)"/>
      <use xlink:href="#DejaVuSans-53" transform="translate(894.572266 0)"/>
      <use xlink:href="#DejaVuSans-44" transform="translate(958.048828 0)"/>
     </g>
    </g>
    <g id="line2d_34">
     <path d="M 551.080313 70.537969 
L 562.080313 70.537969 
L 573.080313 70.537969 
" style="fill: none; stroke: #ff8c00; stroke-width: 2.3; stroke-linecap: square"/>
    </g>
    <g id="text_21">
     <!-- Patient -->
     <g transform="translate(581.880313 74.387969) scale(0.11 -0.11)">
      <defs>
       <path id="DejaVuSans-50" d="M 1259 4147 
L 1259 2394 
L 2053 2394 
Q 2494 2394 2734 2622 
Q 2975 2850 2975 3272 
Q 2975 3691 2734 3919 
Q 2494 4147 2053 4147 
L 1259 4147 
z
M 628 4666 
L 2053 4666 
Q 2838 4666 3239 4311 
Q 3641 3956 3641 3272 
Q 3641 2581 3239 2228 
Q 2838 1875 2053 1875 
L 1259 1875 
L 1259 0 
L 628 0 
L 628 4666 
z
" transform="scale(0.015625)"/>
      </defs>
      <use xlink:href="#DejaVuSans-50"/>
      <use xlink:href="#DejaVuSans-61" transform="translate(55.802734 0)"/>
      <use xlink:href="#DejaVuSans-74" transform="translate(117.082031 0)"/>
      <use xlink:href="#DejaVuSans-69" transform="translate(156.291016 0)"/>
      <use xlink:href="#DejaVuSans-65" transform="translate(184.074219 0)"/>
      <use xlink:href="#DejaVuSans-6e" transform="translate(245.597656 0)"/>
      <use xlink:href="#DejaVuSans-74" transform="translate(308.976562 0)"/>
     </g>
    </g>
   </g>
  </g>
 </g>
 <defs>
  <clipPath id="pa7723ab401">
   <rect x="47.307188" y="23.837812" width="658.33" height="360.28"/>
  </clipPath>
 </defs>
</svg>
