<?xml version="1.0" encoding="utf-8" standalone="no"?>
<!DOCTYPE svg PUBLIC "-//W3C//DTD SVG 1.1//EN"
  "http://www.w3.org/Graphics/SVG/1.1/DTD/svg11.dtd">
<svg xmlns:xlink="http://www.w3.org/1999/xlink" width="712.837188pt" height="424.5775pt" viewBox="0 0 712.837188 424.5775" xmlns="http://www.w3.org/2000/svg" version="1.1">
 <metadata>
  <rdf:RDF xmlns:dc="http://purl.org/dc/elements/1.1/" xmlns:cc="http://creativecommons.org/ns#" xmlns:rdf="http://www.w3.org/1999/02/22-rdf-syntax-ns#">
   <cc:Work>
    <dc:type rdf:resource="http://purl.org/dc/dcmitype/StillImage"/>
    <dc:date>2026-06-23T21:49:55.428165</dc:date>
    <dc:format>image/svg+xml</dc:format>
    <dc:creator>
     <cc:Agent>
      <dc:title>Matplotlib v3.10.1, https://matplotlib.org/</dc:title>
     </cc:Agent>
    </dc:creator>
   </cc:Work>
  </rdf:RDF>
 </metadata>
 <defs>
  <style type="text/css">*{stroke-linejoin: round; stroke-linecap: butt}</style>
 </defs>
 <g id="figure_1">
  <g id="patch_1">
   <path d="M 0 424.5775 
L 712.837188 424.5775 
L 712.837188 0 
L 0 0 
z
" style="fill: #ffffff"/>
  </g>
  <g id="axes_1">
   <g id="patch_2">
    <path d="M 47.307188 384.117812 
L 705.637188 384.117812 
L 705.637188 23.837812 
L 47.307188 23.837812 
z
" style="fill: #ffffff"/>
   </g>
   <g id="matplotlib.axis_1">
    <g id="xtick_1">
     <g id="line2d_1">
      <path d="M 47.307188 384.117812 
L 47.307188 23.837812 
" clip-path="url(#pafcc2a2ba7)" style="fill: none; stroke: #b0b0b0; stroke-opacity: 0.2; stroke-width: 0.6; stroke-linecap: square"/>
     </g>
     <g id="line2d_2">
      <defs>
       <path id="m2a36ffb4dd" d="M 0 0 
L 0 3.5 
" style="stroke: #000000; stroke-width: 0.8"/>
      </defs>
      <g>
       <use xlink:href="#m2a36ffb4dd" x="47.307188" y="384.117812" style="stroke: #000000; stroke-width: 0.8"/>
      </g>
     </g>
     <g id="text_1">
      <!-- 0 -->
      <g transform="translate(43.807813 399.476094) scale(0.11 -0.11)">
       <defs>
        <path id="DejaVuSans-30" d="M 2034 4250 
Q 1547 4250 1301 3770 
Q 1056 3291 1056 2328 
Q 1056 1369 1301 889 
Q 1547 409 2034 409 
Q 2525 409 2770 889 
Q 3016 1369 3016 2328 
Q 3016 3291 2770 3770 
Q 2525 4250 2034 4250 
z
M 2034 4750 
Q 2819 4750 3233 4129 
Q 3647 3509 3647 2328 
Q 3647 1150 3233 529 
Q 2819 -91 2034 -91 
Q 1250 -91 836 529 
Q 422 1150 422 2328 
Q 422 3509 836 4129 
Q 1250 4750 2034 4750 
z
" transform="scale(0.015625)"/>
       </defs>
       <use xlink:href="#DejaVuSans-30"/>
      </g>
     </g>
    </g>
    <g id="xtick_2">
     <g id="line2d_3">
      <path d="M 134.387875 384.117812 
L 134.387875 23.837812 
" clip-path="url(#pafcc2a2ba7)" style="fill: none; stroke: #b0b0b0; stroke-opacity: 0.2; stroke-width: 0.6; stroke-linecap: square"/>
     </g>
     <g id="line2d_4">
      <g>
       <use xlink:href="#m2a36ffb4dd" x="134.387875" y="384.117812" style="stroke: #000000; stroke-width: 0.8"/>
      </g>
     </g>
     <g id="text_2">
      <!-- 25 -->
      <g transform="translate(127.389125 399.476094) scale(0.11 -0.11)">
       <defs>
        <path id="DejaVuSans-32" d="M 1228 531 
L 3431 531 
L 3431 0 
L 469 0 
L 469 531 
Q 828 903 1448 1529 
Q 2069 2156 2228 2338 
Q 2531 2678 2651 2914 
Q 2772 3150 2772 3378 
Q 2772 3750 2511 3984 
Q 2250 4219 1831 4219 
Q 1534 4219 1204 4116 
Q 875 4013 500 3803 
L 500 4441 
Q 881 4594 1212 4672 
Q 1544 4750 1819 4750 
Q 2544 4750 2975 4387 
Q 3406 4025 3406 3419 
Q 3406 3131 3298 2873 
Q 3191 2616 2906 2266 
Q 2828 2175 2409 1742 
Q 1991 1309 1228 531 
z
" transform="scale(0.015625)"/>
        <path id="DejaVuSans-35" d="M 691 4666 
L 3169 4666 
L 3169 4134 
L 1269 4134 
L 1269 2991 
Q 1406 3038 1543 3061 
Q 1681 3084 1819 3084 
Q 2600 3084 3056 2656 
Q 3513 2228 3513 1497 
Q 3513 744 3044 326 
Q 2575 -91 1722 -91 
Q 1428 -91 1123 -41 
Q 819 9 494 109 
L 494 744 
Q 775 591 1075 516 
Q 1375 441 1709 441 
Q 2250 441 2565 725 
Q 2881 1009 2881 1497 
Q 2881 1984 2565 2268 
Q 2250 2553 1709 2553 
Q 1456 2553 1204 2497 
Q 953 2441 691 2322 
L 691 4666 
z
" transform="scale(0.015625)"/>
       </defs>
       <use xlink:href="#DejaVuSans-32"/>
       <use xlink:href="#DejaVuSans-35" transform="translate(63.623047 0)"/>
      </g>
     </g>
    </g>
    <g id="xtick_3">
     <g id="line2d_5">
      <path d="M 221.468563 384.117812 
L 221.468563 23.837812 
" clip-path="url(#pafcc2a2ba7)" style="fill: none; stroke: #b0b0b0; stroke-opacity: 0.2; stroke-width: 0.6; stroke-linecap: square"/>
     </g>
     <g id="line2d_6">
      <g>
       <use xlink:href="#m2a36ffb4dd" x="221.468563" y="384.117812" style="stroke: #000000; stroke-width: 0.8"/>
      </g>
     </g>
     <g id="text_3">
      <!-- 50 -->
      <g transform="translate(214.469813 399.476094) scale(0.11 -0.11)">
       <use xlink:href="#DejaVuSans-35"/>
       <use xlink:href="#DejaVuSans-30" transform="translate(63.623047 0)"/>
      </g>
     </g>
    </g>
    <g id="xtick_4">
     <g id="line2d_7">
      <path d="M 308.549251 384.117812 
L 308.549251 23.837812 
" clip-path="url(#pafcc2a2ba7)" style="fill: none; stroke: #b0b0b0; stroke-opacity: 0.2; stroke-width: 0.6; stroke-linecap: square"/>
     </g>
     <g id="line2d_8">
      <g>
       <use xlink:href="#m2a36ffb4dd" x="308.549251" y="384.117812" style="stroke: #000000; stroke-width: 0.8"/>
      </g>
     </g>
     <g id="text_4">
      <!-- 75 -->
      <g transform="translate(301.550501 399.476094) scale(0.11 -0.11)">
       <defs>
        <path id="DejaVuSans-37" d="M 525 4666 
L 3525 4666 
L 3525 4397 
L 1831 0 
L 1172 0 
L 2766 4134 
L 525 4134 
L 525 4666 
z
" transform="scale(0.015625)"/>
       </defs>
       <use xlink:href="#DejaVuSans-37"/>
       <use xlink:href="#DejaVuSans-35" transform="translate(63.623047 0)"/>
      </g>
     </g>
    </g>
    <g id="xtick_5">
     <g id="line2d_9">
      <path d="M 395.629939 384.117812 
L 395.629939 23.837812 
" clip-path="url(#pafcc2a2ba7)" style="fill: none; stroke: #b0b0b0; stroke-opacity: 0.2; stroke-width: 0.6; stroke-linecap: square"/>
     </g>
     <g id="line2d_10">
      <g>
       <use xlink:href="#m2a36ffb4dd" x="395.629939" y="384.117812" style="stroke: #000000; stroke-width: 0.8"/>
      </g>
     </g>
     <g id="text_5">
      <!-- 100 -->
      <g transform="translate(385.131814 399.476094) scale(0.11 -0.11)">
       <defs>
        <path id="DejaVuSans-31" d="M 794 531 
L 1825 531 
L 1825 4091 
L 703 3866 
L 703 4441 
L 1819 4666 
L 2450 4666 
L 2450 531 
L 3481 531 
L 3481 0 
L 794 0 
L 794 531 
z
" transform="scale(0.015625)"/>
       </defs>
       <use xlink:href="#DejaVuSans-31"/>
       <use xlink:href="#DejaVuSans-30" transform="translate(63.623047 0)"/>
       <use xlink:href="#DejaVuSans-30" transform="translate(127.246094 0)"/>
      </g>
     </g>
    </g>
    <g id="xtick_6">
     <g id="line2d_11">
      <path d="M 482.710627 384.117812 
L 482.710627 23.837812 
" clip-path="url(#pafcc2a2ba7)" style="fill: none; stroke: #b0b0b0; stroke-opacity: 0.2; stroke-width: 0.6; stroke-linecap: square"/>
     </g>
     <g id="line2d_12">
      <g>
       <use xlink:href="#m2a36ffb4dd" x="482.710627" y="384.117812" style="stroke: #000000; stroke-width: 0.8"/>
      </g>
     </g>
     <g id="text_6">
      <!-- 125 -->
      <g transform="translate(472.212502 399.476094) scale(0.11 -0.11)">
       <use xlink:href="#DejaVuSans-31"/>
       <use xlink:href="#DejaVuSans-32" transform="translate(63.623047 0)"/>
       <use xlink:href="#DejaVuSans-35" transform="translate(127.246094 0)"/>
      </g>
     </g>
    </g>
    <g id="xtick_7">
     <g id="line2d_13">
      <path d="M 569.791314 384.117812 
L 569.791314 23.837812 
" clip-path="url(#pafcc2a2ba7)" style="fill: none; stroke: #b0b0b0; stroke-opacity: 0.2; stroke-width: 0.6; stroke-linecap: square"/>
     </g>
     <g id="line2d_14">
      <g>
       <use xlink:href="#m2a36ffb4dd" x="569.791314" y="384.117812" style="stroke: #000000; stroke-width: 0.8"/>
      </g>
     </g>
     <g id="text_7">
      <!-- 150 -->
      <g transform="translate(559.293189 399.476094) scale(0.11 -0.11)">
       <use xlink:href="#DejaVuSans-31"/>
       <use xlink:href="#DejaVuSans-35" transform="translate(63.623047 0)"/>
       <use xlink:href="#DejaVuSans-30" transform="translate(127.246094 0)"/>
      </g>
     </g>
    </g>
    <g id="xtick_8">
     <g id="line2d_15">
      <path d="M 656.872002 384.117812 
L 656.872002 23.837812 
" clip-path="url(#pafcc2a2ba7)" style="fill: none; stroke: #b0b0b0; stroke-opacity: 0.2; stroke-width: 0.6; stroke-linecap: square"/>
     </g>
     <g id="line2d_16">
      <g>
       <use xlink:href="#m2a36ffb4dd" x="656.872002" y="384.117812" style="stroke: #000000; stroke-width: 0.8"/>
      </g>
     </g>
     <g id="text_8">
      <!-- 175 -->
      <g transform="translate(646.373877 399.476094) scale(0.11 -0.11)">
       <use xlink:href="#DejaVuSans-31"/>
       <use xlink:href="#DejaVuSans-37" transform="translate(63.623047 0)"/>
       <use xlink:href="#DejaVuSans-35" transform="translate(127.246094 0)"/>
      </g>
     </g>
    </g>
    <g id="text_9">
     <!-- Time (s) -->
     <g transform="translate(352.0775 414.881875) scale(0.12 -0.12)">
      <defs>
       <path id="DejaVuSans-54" d="M -19 4666 
L 3928 4666 
L 3928 4134 
L 2272 4134 
L 2272 0 
L 1638 0 
L 1638 4134 
L -19 4134 
L -19 4666 
z
" transform="scale(0.015625)"/>
       <path id="DejaVuSans-69" d="M 603 3500 
L 1178 3500 
L 1178 0 
L 603 0 
L 603 3500 
z
M 603 4863 
L 1178 4863 
L 1178 4134 
L 603 4134 
L 603 4863 
z
" transform="scale(0.015625)"/>
       <path id="DejaVuSans-6d" d="M 3328 2828 
Q 3544 3216 3844 3400 
Q 4144 3584 4550 3584 
Q 5097 3584 5394 3201 
Q 5691 2819 5691 2113 
L 5691 0 
L 5113 0 
L 5113 2094 
Q 5113 2597 4934 2840 
Q 4756 3084 4391 3084 
Q 3944 3084 3684 2787 
Q 3425 2491 3425 1978 
L 3425 0 
L 2847 0 
L 2847 2094 
Q 2847 2600 2669 2842 
Q 2491 3084 2119 3084 
Q 1678 3084 1418 2786 
Q 1159 2488 1159 1978 
L 1159 0 
L 581 0 
L 581 3500 
L 1159 3500 
L 1159 2956 
Q 1356 3278 1631 3431 
Q 1906 3584 2284 3584 
Q 2666 3584 2933 3390 
Q 3200 3197 3328 2828 
z
" transform="scale(0.015625)"/>
       <path id="DejaVuSans-65" d="M 3597 1894 
L 3597 1613 
L 953 1613 
Q 991 1019 1311 708 
Q 1631 397 2203 397 
Q 2534 397 2845 478 
Q 3156 559 3463 722 
L 3463 178 
Q 3153 47 2828 -22 
Q 2503 -91 2169 -91 
Q 1331 -91 842 396 
Q 353 884 353 1716 
Q 353 2575 817 3079 
Q 1281 3584 2069 3584 
Q 2775 3584 3186 3129 
Q 3597 2675 3597 1894 
z
M 3022 2063 
Q 3016 2534 2758 2815 
Q 2500 3097 2075 3097 
Q 1594 3097 1305 2825 
Q 1016 2553 972 2059 
L 3022 2063 
z
" transform="scale(0.015625)"/>
       <path id="DejaVuSans-20" transform="scale(0.015625)"/>
       <path id="DejaVuSans-28" d="M 1984 4856 
Q 1566 4138 1362 3434 
Q 1159 2731 1159 2009 
Q 1159 1288 1364 580 
Q 1569 -128 1984 -844 
L 1484 -844 
Q 1016 -109 783 600 
Q 550 1309 550 2009 
Q 550 2706 781 3412 
Q 1013 4119 1484 4856 
L 1984 4856 
z
" transform="scale(0.015625)"/>
       <path id="DejaVuSans-73" d="M 2834 3397 
L 2834 2853 
Q 2591 2978 2328 3040 
Q 2066 3103 1784 3103 
Q 1356 3103 1142 2972 
Q 928 2841 928 2578 
Q 928 2378 1081 2264 
Q 1234 2150 1697 2047 
L 1894 2003 
Q 2506 1872 2764 1633 
Q 3022 1394 3022 966 
Q 3022 478 2636 193 
Q 2250 -91 1575 -91 
Q 1294 -91 989 -36 
Q 684 19 347 128 
L 347 722 
Q 666 556 975 473 
Q 1284 391 1588 391 
Q 1994 391 2212 530 
Q 2431 669 2431 922 
Q 2431 1156 2273 1281 
Q 2116 1406 1581 1522 
L 1381 1569 
Q 847 1681 609 1914 
Q 372 2147 372 2553 
Q 372 3047 722 3315 
Q 1072 3584 1716 3584 
Q 2034 3584 2315 3537 
Q 2597 3491 2834 3397 
z
" transform="scale(0.015625)"/>
       <path id="DejaVuSans-29" d="M 513 4856 
L 1013 4856 
Q 1481 4119 1714 3412 
Q 1947 2706 1947 2009 
Q 1947 1309 1714 600 
Q 1481 -109 1013 -844 
L 513 -844 
Q 928 -128 1133 580 
Q 1338 1288 1338 2009 
Q 1338 2731 1133 3434 
Q 928 4138 513 4856 
z
" transform="scale(0.015625)"/>
      </defs>
      <use xlink:href="#DejaVuSans-54"/>
      <use xlink:href="#DejaVuSans-69" transform="translate(57.958984 0)"/>
      <use xlink:href="#DejaVuSans-6d" transform="translate(85.742188 0)"/>
      <use xlink:href="#DejaVuSans-65" transform="translate(183.154297 0)"/>
      <use xlink:href="#DejaVuSans-20" transform="translate(244.677734 0)"/>
      <use xlink:href="#DejaVuSans-28" transform="translate(276.464844 0)"/>
      <use xlink:href="#DejaVuSans-73" transform="translate(315.478516 0)"/>
      <use xlink:href="#DejaVuSans-29" transform="translate(367.578125 0)"/>
     </g>
    </g>
   </g>
   <g id="matplotlib.axis_2">
    <g id="ytick_1">
     <g id="line2d_17">
      <path d="M 47.307188 367.741449 
L 705.637188 367.741449 
" clip-path="url(#pafcc2a2ba7)" style="fill: none; stroke: #b0b0b0; stroke-opacity: 0.2; stroke-width: 0.6; stroke-linecap: square"/>
     </g>
     <g id="line2d_18">
      <defs>
       <path id="m12ffab6fd1" d="M 0 0 
L -3.5 0 
" style="stroke: #000000; stroke-width: 0.8"/>
      </defs>
      <g>
       <use xlink:href="#m12ffab6fd1" x="47.307188" y="367.741449" style="stroke: #000000; stroke-width: 0.8"/>
      </g>
     </g>
     <g id="text_10">
      <!-- 0.0 -->
      <g transform="translate(22.81375 371.920589) scale(0.11 -0.11)">
       <defs>
        <path id="DejaVuSans-2e" d="M 684 794 
L 1344 794 
L 1344 0 
L 684 0 
L 684 794 
z
" transform="scale(0.015625)"/>
       </defs>
       <use xlink:href="#DejaVuSans-30"/>
       <use xlink:href="#DejaVuSans-2e" transform="translate(63.623047 0)"/>
       <use xlink:href="#DejaVuSans-30" transform="translate(95.410156 0)"/>
      </g>
     </g>
    </g>
    <g id="ytick_2">
     <g id="line2d_19">
      <path d="M 47.307188 317.507205 
L 705.637188 317.507205 
" clip-path="url(#pafcc2a2ba7)" style="fill: none; stroke: #b0b0b0; stroke-opacity: 0.2; stroke-width: 0.6; stroke-linecap: square"/>
     </g>
     <g id="line2d_20">
      <g>
       <use xlink:href="#m12ffab6fd1" x="47.307188" y="317.507205" style="stroke: #000000; stroke-width: 0.8"/>
      </g>
     </g>
     <g id="text_11">
      <!-- 0.5 -->
      <g transform="translate(22.81375 321.686345) scale(0.11 -0.11)">
       <use xlink:href="#DejaVuSans-30"/>
       <use xlink:href="#DejaVuSans-2e" transform="translate(63.623047 0)"/>
       <use xlink:href="#DejaVuSans-35" transform="translate(95.410156 0)"/>
      </g>
     </g>
    </g>
    <g id="ytick_3">
     <g id="line2d_21">
      <path d="M 47.307188 267.27296 
L 705.637188 267.27296 
" clip-path="url(#pafcc2a2ba7)" style="fill: none; stroke: #b0b0b0; stroke-opacity: 0.2; stroke-width: 0.6; stroke-linecap: square"/>
     </g>
     <g id="line2d_22">
      <g>
       <use xlink:href="#m12ffab6fd1" x="47.307188" y="267.27296" style="stroke: #000000; stroke-width: 0.8"/>
      </g>
     </g>
     <g id="text_12">
      <!-- 1.0 -->
      <g transform="translate(22.81375 271.452101) scale(0.11 -0.11)">
       <use xlink:href="#DejaVuSans-31"/>
       <use xlink:href="#DejaVuSans-2e" transform="translate(63.623047 0)"/>
       <use xlink:href="#DejaVuSans-30" transform="translate(95.410156 0)"/>
      </g>
     </g>
    </g>
    <g id="ytick_4">
     <g id="line2d_23">
      <path d="M 47.307188 217.038716 
L 705.637188 217.038716 
" clip-path="url(#pafcc2a2ba7)" style="fill: none; stroke: #b0b0b0; stroke-opacity: 0.2; stroke-width: 0.6; stroke-linecap: square"/>
     </g>
     <g id="line2d_24">
      <g>
       <use xlink:href="#m12ffab6fd1" x="47.307188" y="217.038716" style="stroke: #000000; stroke-width: 0.8"/>
      </g>
     </g>
     <g id="text_13">
      <!-- 1.5 -->
      <g transform="translate(22.81375 221.217857) scale(0.11 -0.11)">
       <use xlink:href="#DejaVuSans-31"/>
       <use xlink:href="#DejaVuSans-2e" transform="translate(63.623047 0)"/>
       <use xlink:href="#DejaVuSans-35" transform="translate(95.410156 0)"/>
      </g>
     </g>
    </g>
    <g id="ytick_5">
     <g id="line2d_25">
      <path d="M 47.307188 166.804472 
L 705.637188 166.804472 
" clip-path="url(#pafcc2a2ba7)" style="fill: none; stroke: #b0b0b0; stroke-opacity: 0.2; stroke-width: 0.6; stroke-linecap: square"/>
     </g>
     <g id="line2d_26">
      <g>
       <use xlink:href="#m12ffab6fd1" x="47.307188" y="166.804472" style="stroke: #000000; stroke-width: 0.8"/>
      </g>
     </g>
     <g id="text_14">
      <!-- 2.0 -->
      <g transform="translate(22.81375 170.983612) scale(0.11 -0.11)">
       <use xlink:href="#DejaVuSans-32"/>
       <use xlink:href="#DejaVuSans-2e" transform="translate(63.623047 0)"/>
       <use xlink:href="#DejaVuSans-30" transform="translate(95.410156 0)"/>
      </g>
     </g>
    </g>
    <g id="ytick_6">
     <g id="line2d_27">
      <path d="M 47.307188 116.570227 
L 705.637188 116.570227 
" clip-path="url(#pafcc2a2ba7)" style="fill: none; stroke: #b0b0b0; stroke-opacity: 0.2; stroke-width: 0.6; stroke-linecap: square"/>
     </g>
     <g id="line2d_28">
      <g>
       <use xlink:href="#m12ffab6fd1" x="47.307188" y="116.570227" style="stroke: #000000; stroke-width: 0.8"/>
      </g>
     </g>
     <g id="text_15">
      <!-- 2.5 -->
      <g transform="translate(22.81375 120.749368) scale(0.11 -0.11)">
       <use xlink:href="#DejaVuSans-32"/>
       <use xlink:href="#DejaVuSans-2e" transform="translate(63.623047 0)"/>
       <use xlink:href="#DejaVuSans-35" transform="translate(95.410156 0)"/>
      </g>
     </g>
    </g>
    <g id="ytick_7">
     <g id="line2d_29">
      <path d="M 47.307188 66.335983 
L 705.637188 66.335983 
" clip-path="url(#pafcc2a2ba7)" style="fill: none; stroke: #b0b0b0; stroke-opacity: 0.2; stroke-width: 0.6; stroke-linecap: square"/>
     </g>
     <g id="line2d_30">
      <g>
       <use xlink:href="#m12ffab6fd1" x="47.307188" y="66.335983" style="stroke: #000000; stroke-width: 0.8"/>
      </g>
     </g>
     <g id="text_16">
      <!-- 3.0 -->
      <g transform="translate(22.81375 70.515124) scale(0.11 -0.11)">
       <defs>
        <path id="DejaVuSans-33" d="M 2597 2516 
Q 3050 2419 3304 2112 
Q 3559 1806 3559 1356 
Q 3559 666 3084 287 
Q 2609 -91 1734 -91 
Q 1441 -91 1130 -33 
Q 819 25 488 141 
L 488 750 
Q 750 597 1062 519 
Q 1375 441 1716 441 
Q 2309 441 2620 675 
Q 2931 909 2931 1356 
Q 2931 1769 2642 2001 
Q 2353 2234 1838 2234 
L 1294 2234 
L 1294 2753 
L 1863 2753 
Q 2328 2753 2575 2939 
Q 2822 3125 2822 3475 
Q 2822 3834 2567 4026 
Q 2313 4219 1838 4219 
Q 1578 4219 1281 4162 
Q 984 4106 628 3988 
L 628 4550 
Q 988 4650 1302 4700 
Q 1616 4750 1894 4750 
Q 2613 4750 3031 4423 
Q 3450 4097 3450 3541 
Q 3450 3153 3228 2886 
Q 3006 2619 2597 2516 
z
" transform="scale(0.015625)"/>
       </defs>
       <use xlink:href="#DejaVuSans-33"/>
       <use xlink:href="#DejaVuSans-2e" transform="translate(63.623047 0)"/>
       <use xlink:href="#DejaVuSans-30" transform="translate(95.410156 0)"/>
      </g>
     </g>
    </g>
    <g id="text_17">
     <!-- AU mean intensity -->
     <g transform="translate(16.318125 259.314687) rotate(-90) scale(0.12 -0.12)">
      <defs>
       <path id="DejaVuSans-41" d="M 2188 4044 
L 1331 1722 
L 3047 1722 
L 2188 4044 
z
M 1831 4666 
L 2547 4666 
L 4325 0 
L 3669 0 
L 3244 1197 
L 1141 1197 
L 716 0 
L 50 0 
L 1831 4666 
z
" transform="scale(0.015625)"/>
       <path id="DejaVuSans-55" d="M 556 4666 
L 1191 4666 
L 1191 1831 
Q 1191 1081 1462 751 
Q 1734 422 2344 422 
Q 2950 422 3222 751 
Q 3494 1081 3494 1831 
L 3494 4666 
L 4128 4666 
L 4128 1753 
Q 4128 841 3676 375 
Q 3225 -91 2344 -91 
Q 1459 -91 1007 375 
Q 556 841 556 1753 
L 556 4666 
z
" transform="scale(0.015625)"/>
       <path id="DejaVuSans-61" d="M 2194 1759 
Q 1497 1759 1228 1600 
Q 959 1441 959 1056 
Q 959 750 1161 570 
Q 1363 391 1709 391 
Q 2188 391 2477 730 
Q 2766 1069 2766 1631 
L 2766 1759 
L 2194 1759 
z
M 3341 1997 
L 3341 0 
L 2766 0 
L 2766 531 
Q 2569 213 2275 61 
Q 1981 -91 1556 -91 
Q 1019 -91 701 211 
Q 384 513 384 1019 
Q 384 1609 779 1909 
Q 1175 2209 1959 2209 
L 2766 2209 
L 2766 2266 
Q 2766 2663 2505 2880 
Q 2244 3097 1772 3097 
Q 1472 3097 1187 3025 
Q 903 2953 641 2809 
L 641 3341 
Q 956 3463 1253 3523 
Q 1550 3584 1831 3584 
Q 2591 3584 2966 3190 
Q 3341 2797 3341 1997 
z
" transform="scale(0.015625)"/>
       <path id="DejaVuSans-6e" d="M 3513 2113 
L 3513 0 
L 2938 0 
L 2938 2094 
Q 2938 2591 2744 2837 
Q 2550 3084 2163 3084 
Q 1697 3084 1428 2787 
Q 1159 2491 1159 1978 
L 1159 0 
L 581 0 
L 581 3500 
L 1159 3500 
L 1159 2956 
Q 1366 3272 1645 3428 
Q 1925 3584 2291 3584 
Q 2894 3584 3203 3211 
Q 3513 2838 3513 2113 
z
" transform="scale(0.015625)"/>
       <path id="DejaVuSans-74" d="M 1172 4494 
L 1172 3500 
L 2356 3500 
L 2356 3053 
L 1172 3053 
L 1172 1153 
Q 1172 725 1289 603 
Q 1406 481 1766 481 
L 2356 481 
L 2356 0 
L 1766 0 
Q 1100 0 847 248 
Q 594 497 594 1153 
L 594 3053 
L 172 3053 
L 172 3500 
L 594 3500 
L 594 4494 
L 1172 4494 
z
" transform="scale(0.015625)"/>
       <path id="DejaVuSans-79" d="M 2059 -325 
Q 1816 -950 1584 -1140 
Q 1353 -1331 966 -1331 
L 506 -1331 
L 506 -850 
L 844 -850 
Q 1081 -850 1212 -737 
Q 1344 -625 1503 -206 
L 1606 56 
L 191 3500 
L 800 3500 
L 1894 763 
L 2988 3500 
L 3597 3500 
L 2059 -325 
z
" transform="scale(0.015625)"/>
      </defs>
      <use xlink:href="#DejaVuSans-41"/>
      <use xlink:href="#DejaVuSans-55" transform="translate(68.408203 0)"/>
      <use xlink:href="#DejaVuSans-20" transform="translate(141.601562 0)"/>
      <use xlink:href="#DejaVuSans-6d" transform="translate(173.388672 0)"/>
      <use xlink:href="#DejaVuSans-65" transform="translate(270.800781 0)"/>
      <use xlink:href="#DejaVuSans-61" transform="translate(332.324219 0)"/>
      <use xlink:href="#DejaVuSans-6e" transform="translate(393.603516 0)"/>
      <use xlink:href="#DejaVuSans-20" transform="translate(456.982422 0)"/>
      <use xlink:href="#DejaVuSans-69" transform="translate(488.769531 0)"/>
      <use xlink:href="#DejaVuSans-6e" transform="translate(516.552734 0)"/>
      <use xlink:href="#DejaVuSans-74" transform="translate(579.931641 0)"/>
      <use xlink:href="#DejaVuSans-65" transform="translate(619.140625 0)"/>
      <use xlink:href="#DejaVuSans-6e" transform="translate(680.664062 0)"/>
      <use xlink:href="#DejaVuSans-73" transform="translate(744.042969 0)"/>
      <use xlink:href="#DejaVuSans-69" transform="translate(796.142578 0)"/>
      <use xlink:href="#DejaVuSans-74" transform="translate(823.925781 0)"/>
      <use xlink:href="#DejaVuSans-79" transform="translate(863.134766 0)"/>
     </g>
    </g>
   </g>
   <g id="FillBetweenPolyCollection_1">
    <path d="M 47.307188 343.383198 
L 47.307188 382.984277 
L 50.790415 409.81435 
L 54.273643 429.808836 
L 57.75687 419.36994 
L 61.240098 414.334995 
L 64.723325 394.048002 
L 68.206553 396.713872 
L 71.68978 408.355375 
L 75.173008 413.853704 
L 78.656235 422.534735 
L 82.139463 424.659234 
L 85.62269 400.748036 
L 89.105918 425.448038 
L 92.589145 437.425217 
L 96.072373 442.610154 
L 99.5556 443.887363 
L 103.038828 432.330165 
L 106.522055 423.68068 
L 110.005283 429.353158 
L 113.48851 450.128236 
L 116.971738 490.628984 
L 120.454965 469.462594 
L 123.938193 441.094934 
L 127.42142 449.730836 
L 130.904648 444.299302 
L 134.387875 448.99074 
L 137.871103 449.365039 
L 141.35433 468.925461 
L 144.837558 467.181661 
L 148.320785 464.225318 
L 151.804013 459.158798 
L 155.28724 453.576543 
L 158.770468 432.241675 
L 162.253695 429.576522 
L 165.736923 434.742252 
L 169.22015 450.692534 
L 172.703378 446.645575 
L 176.186605 426.766868 
L 179.669833 428.654041 
L 183.153061 417.632455 
L 186.636288 400.695907 
L 190.119516 408.564106 
L 193.602743 418.079453 
L 197.085971 440.230283 
L 200.569198 427.054766 
L 204.052426 404.865604 
L 207.535653 470.232433 
L 211.018881 423.302807 
L 214.502108 414.975683 
L 217.985336 397.490382 
L 221.468563 426.490095 
L 224.951791 429.100144 
L 228.435018 442.12183 
L 231.918246 417.855565 
L 235.401473 414.926592 
L 238.884701 427.451967 
L 242.367928 411.224518 
L 245.851156 398.5323 
L 249.334383 413.418436 
L 252.817611 407.032564 
L 256.300838 416.50956 
L 259.784066 439.763966 
L 263.267293 440.590353 
L 266.750521 442.779005 
L 270.233748 451.606114 
L 273.716976 445.907568 
L 277.200203 455.13318 
L 280.683431 450.018067 
L 284.166658 448.920866 
L 287.649886 461.901557 
L 291.133113 457.208538 
L 294.616341 459.491777 
L 298.099568 449.260086 
L 301.582796 453.689739 
L 305.066023 452.935305 
L 308.549251 442.957849 
L 312.032479 434.749986 
L 315.515706 455.273165 
L 318.998934 447.391491 
L 322.482161 428.797495 
L 325.965389 442.177968 
L 329.448616 450.991062 
L 332.931844 461.288803 
L 336.415071 458.244936 
L 339.898299 427.558976 
L 343.381526 426.799821 
L 346.864754 441.488794 
L 350.347981 444.81423 
L 353.831209 449.609749 
L 357.314436 450.705981 
L 360.797664 448.644428 
L 364.280891 447.08938 
L 367.764119 451.867239 
L 371.247346 442.759604 
L 374.730574 434.947069 
L 378.213801 430.962486 
L 381.697029 405.826493 
L 385.180256 401.710145 
L 388.663484 406.214925 
L 392.146711 408.510299 
L 395.629939 394.676315 
L 399.113166 404.848269 
L 402.596394 412.621285 
L 406.079621 404.755273 
L 409.562849 415.935448 
L 413.046076 433.754803 
L 416.529304 421.289822 
L 420.012531 409.847199 
L 423.495759 433.199468 
L 426.978986 413.143716 
L 430.462214 420.587207 
L 433.945441 412.283774 
L 437.428669 427.677893 
L 440.911896 421.09803 
L 444.395124 397.702437 
L 447.878352 395.791737 
L 451.361579 403.821186 
L 454.844807 404.424992 
L 458.328034 393.982803 
L 461.811262 403.306907 
L 465.294489 404.450298 
L 468.777717 393.581418 
L 472.260944 393.119256 
L 475.744172 399.440119 
L 479.227399 406.439313 
L 482.710627 411.497033 
L 486.193854 436.925999 
L 489.677082 438.746206 
L 493.160309 427.882884 
L 496.643537 425.869446 
L 500.126764 431.007617 
L 503.609992 434.198291 
L 507.093219 442.680993 
L 510.576447 457.053468 
L 514.059674 462.334498 
L 517.542902 458.401394 
L 521.026129 459.349822 
L 524.509357 461.560492 
L 527.992584 461.440617 
L 531.475812 445.407599 
L 534.959039 435.991334 
L 538.442267 445.338714 
L 541.925494 444.859796 
L 545.408722 423.448625 
L 548.891949 440.075186 
L 552.375177 457.827595 
L 555.858404 453.740144 
L 559.341632 450.742096 
L 562.824859 442.879095 
L 566.308087 440.92128 
L 569.791314 437.736006 
L 573.274542 434.201031 
L 576.75777 413.287684 
L 580.240997 415.063923 
L 583.724225 399.732754 
L 587.207452 400.628661 
L 590.69068 405.662639 
L 594.173907 429.396954 
L 597.657135 421.610684 
L 601.140362 401.790061 
L 604.62359 411.798634 
L 608.106817 404.236105 
L 611.590045 401.048234 
L 615.073272 398.695922 
L 618.5565 390.594087 
L 622.039727 395.724829 
L 625.522955 405.056284 
L 629.006182 389.373822 
L 632.48941 396.734598 
L 635.972637 387.941115 
L 639.455865 385.637189 
L 642.939092 382.082595 
L 646.42232 392.303933 
L 649.905547 394.781397 
L 653.388775 382.382718 
L 656.872002 386.467063 
L 660.35523 407.013889 
L 663.838457 408.689671 
L 667.321685 446.138039 
L 670.804912 434.509151 
L 674.28814 425.915157 
L 677.771367 419.987889 
L 681.254595 418.522647 
L 684.737822 424.139532 
L 688.22105 432.947115 
L 691.704277 501.264747 
L 695.187505 542.385789 
L 698.670732 502.096419 
L 702.15396 426.956965 
L 705.637188 391.037698 
L 705.637188 317.254773 
L 705.637188 317.254773 
L 702.15396 243.772371 
L 698.670732 108.964917 
L 695.187505 33.455922 
L 691.704277 98.096568 
L 688.22105 184.315047 
L 684.737822 194.675777 
L 681.254595 190.591418 
L 677.771367 180.835477 
L 674.28814 176.206625 
L 670.804912 166.54229 
L 667.321685 154.4227 
L 663.838457 201.626234 
L 660.35523 200.895634 
L 656.872002 252.254287 
L 653.388775 272.62546 
L 649.905547 252.572159 
L 646.42232 255.887512 
L 642.939092 264.194101 
L 639.455865 255.216276 
L 635.972637 256.90939 
L 632.48941 235.638462 
L 629.006182 251.683132 
L 625.522955 219.014622 
L 622.039727 257.33349 
L 618.5565 263.128527 
L 615.073272 256.360218 
L 611.590045 268.992408 
L 608.106817 245.028662 
L 604.62359 236.695297 
L 601.140362 247.682572 
L 597.657135 232.657485 
L 594.173907 230.564243 
L 590.69068 239.787529 
L 587.207452 270.493776 
L 583.724225 264.206857 
L 580.240997 228.319973 
L 576.75777 232.732469 
L 573.274542 204.404838 
L 569.791314 200.986555 
L 566.308087 195.51932 
L 562.824859 207.00303 
L 559.341632 196.230373 
L 555.858404 190.756654 
L 552.375177 183.405467 
L 548.891949 207.973119 
L 545.408722 230.905969 
L 541.925494 201.198044 
L 538.442267 193.55297 
L 534.959039 202.112751 
L 531.475812 189.511538 
L 527.992584 165.906318 
L 524.509357 156.896826 
L 521.026129 159.643644 
L 517.542902 165.913699 
L 514.059674 153.426151 
L 510.576447 158.681385 
L 507.093219 175.94517 
L 503.609992 189.115003 
L 500.126764 210.707393 
L 496.643537 227.188873 
L 493.160309 223.152322 
L 489.677082 180.377485 
L 486.193854 184.712364 
L 482.710627 236.598489 
L 479.227399 241.638708 
L 475.744172 252.322877 
L 472.260944 257.095412 
L 468.777717 243.194788 
L 465.294489 226.483086 
L 461.811262 259.308989 
L 458.328034 263.586917 
L 454.844807 250.749327 
L 451.361579 258.335963 
L 447.878352 269.466854 
L 444.395124 256.818024 
L 440.911896 223.813533 
L 437.428669 217.830193 
L 433.945441 235.748358 
L 430.462214 236.795658 
L 426.978986 245.133898 
L 423.495759 217.592014 
L 420.012531 256.228957 
L 416.529304 254.350686 
L 413.046076 228.61352 
L 409.562849 259.290729 
L 406.079621 266.701274 
L 402.596394 234.143333 
L 399.113166 247.781231 
L 395.629939 274.519044 
L 392.146711 247.536282 
L 388.663484 246.53989 
L 385.180256 258.098966 
L 381.697029 261.042656 
L 378.213801 207.008403 
L 374.730574 205.40219 
L 371.247346 204.826321 
L 367.764119 203.86101 
L 364.280891 202.356219 
L 360.797664 193.716908 
L 357.314436 184.915845 
L 353.831209 188.895331 
L 350.347981 198.217507 
L 346.864754 207.491006 
L 343.381526 222.349267 
L 339.898299 234.936679 
L 336.415071 189.908103 
L 332.931844 181.148359 
L 329.448616 198.054391 
L 325.965389 211.159077 
L 322.482161 227.853624 
L 318.998934 201.455615 
L 315.515706 184.430734 
L 312.032479 222.435192 
L 308.549251 210.578459 
L 305.066023 200.656296 
L 301.582796 196.392065 
L 298.099568 198.950629 
L 294.616341 195.377393 
L 291.133113 194.327657 
L 287.649886 173.377698 
L 284.166658 185.615508 
L 280.683431 186.488934 
L 277.200203 179.224943 
L 273.716976 175.589788 
L 270.233748 184.213124 
L 266.750521 206.572373 
L 263.267293 213.159269 
L 259.784066 218.874973 
L 256.300838 261.252571 
L 252.817611 273.169569 
L 249.334383 262.374836 
L 245.851156 286.600872 
L 242.367928 264.431015 
L 238.884701 238.260185 
L 235.401473 241.356348 
L 231.918246 247.891231 
L 228.435018 227.681144 
L 224.951791 240.295852 
L 221.468563 236.085629 
L 217.985336 279.290626 
L 214.502108 249.901093 
L 211.018881 232.073793 
L 207.535653 170.8614 
L 204.052426 276.710753 
L 200.569198 248.746609 
L 197.085971 222.257061 
L 193.602743 255.221013 
L 190.119516 278.084755 
L 186.636288 283.005208 
L 183.153061 258.972444 
L 179.669833 240.36571 
L 176.186605 246.3736 
L 172.703378 221.64497 
L 169.22015 214.730915 
L 165.736923 240.392033 
L 162.253695 242.824868 
L 158.770468 236.146098 
L 155.28724 213.605105 
L 151.804013 197.788531 
L 148.320785 189.719317 
L 144.837558 190.648818 
L 141.35433 201.587814 
L 137.871103 220.496796 
L 134.387875 213.73334 
L 130.904648 222.856921 
L 127.42142 214.526255 
L 123.938193 228.98892 
L 120.454965 194.580857 
L 116.971738 165.840309 
L 113.48851 223.020893 
L 110.005283 252.049605 
L 106.522055 265.029517 
L 103.038828 251.106274 
L 99.5556 229.821849 
L 96.072373 223.800657 
L 92.589145 233.015882 
L 89.105918 254.17222 
L 85.62269 299.798966 
L 82.139463 263.076825 
L 78.656235 257.62698 
L 75.173008 268.659074 
L 71.68978 277.150224 
L 68.206553 295.046328 
L 64.723325 298.530809 
L 61.240098 269.066335 
L 57.75687 258.837258 
L 54.273643 245.379465 
L 50.790415 287.978429 
L 47.307188 343.383198 
z
" clip-path="url(#pafcc2a2ba7)" style="fill: #d3d3d3; fill-opacity: 0.5; stroke: #d3d3d3; stroke-opacity: 0.5"/>
   </g>
   <g id="FillBetweenPolyCollection_2">
    <defs>
     <path id="md4c131de52" d="M 47.307188 -71.294032 
L 47.307188 -51.493492 
L 50.790415 -45.22213 
L 54.273643 -40.876007 
L 57.75687 -45.340731 
L 61.240098 -46.55967 
L 64.723325 -54.408796 
L 68.206553 -53.280514 
L 71.68978 -49.023413 
L 75.173008 -47.022454 
L 78.656235 -43.269704 
L 82.139463 -40.313868 
L 85.62269 -49.066731 
L 89.105918 -41.948417 
L 92.589145 -38.254616 
L 96.072373 -36.66972 
L 99.5556 -34.206515 
L 103.038828 -37.553307 
L 106.522055 -40.559611 
L 110.005283 -39.55023 
L 113.48851 -31.2261 
L 116.971738 -15.145685 
L 120.454965 -23.83534 
L 123.938193 -36.50907 
L 127.42142 -33.64781 
L 130.904648 -35.638793 
L 134.387875 -34.40111 
L 137.871103 -32.429522 
L 141.35433 -22.486451 
L 144.837558 -26.52905 
L 148.320785 -28.978682 
L 151.804013 -30.761269 
L 155.28724 -30.993817 
L 158.770468 -41.35972 
L 162.253695 -41.688892 
L 165.736923 -38.422803 
L 169.22015 -32.87537 
L 172.703378 -34.182076 
L 176.186605 -42.908949 
L 179.669833 -42.995541 
L 183.153061 -46.610048 
L 186.636288 -53.304268 
L 190.119516 -48.633232 
L 193.602743 -47.212657 
L 197.085971 -38.840522 
L 200.569198 -42.099773 
L 204.052426 -51.750609 
L 207.535653 -29.187825 
L 211.018881 -49.081946 
L 214.502108 -50.870464 
L 217.985336 -56.637057 
L 221.468563 -45.688521 
L 224.951791 -42.678429 
L 228.435018 -36.065842 
L 231.918246 -49.213019 
L 235.401473 -53.043469 
L 238.884701 -44.423479 
L 242.367928 -50.051358 
L 245.851156 -54.028057 
L 249.334383 -48.919964 
L 252.817611 -51.010685 
L 256.300838 -46.882187 
L 259.784066 -40.035782 
L 263.267293 -40.844918 
L 266.750521 -40.850153 
L 270.233748 -39.819634 
L 273.716976 -46.249377 
L 277.200203 -38.421379 
L 280.683431 -40.441716 
L 284.166658 -41.482974 
L 287.649886 -34.806908 
L 291.133113 -33.089182 
L 294.616341 -31.114319 
L 298.099568 -37.894779 
L 301.582796 -35.21218 
L 305.066023 -34.711947 
L 308.549251 -39.714499 
L 312.032479 -42.906213 
L 315.515706 -37.014943 
L 318.998934 -38.669978 
L 322.482161 -46.015973 
L 325.965389 -40.154255 
L 329.448616 -36.820606 
L 332.931844 -33.323808 
L 336.415071 -33.416772 
L 339.898299 -45.174098 
L 343.381526 -48.890318 
L 346.864754 -41.588153 
L 350.347981 -41.412451 
L 353.831209 -40.146356 
L 357.314436 -40.319053 
L 360.797664 -39.664952 
L 364.280891 -38.67141 
L 367.764119 -34.711818 
L 371.247346 -41.301217 
L 374.730574 -47.016651 
L 378.213801 -49.603535 
L 381.697029 -54.946966 
L 385.180256 -58.77015 
L 388.663484 -58.281334 
L 392.146711 -56.310706 
L 395.629939 -59.940502 
L 399.113166 -58.99599 
L 402.596394 -56.575703 
L 406.079621 -54.335727 
L 409.562849 -47.803232 
L 413.046076 -42.108018 
L 416.529304 -45.022462 
L 420.012531 -53.134861 
L 423.495759 -45.279895 
L 426.978986 -53.436238 
L 430.462214 -49.93818 
L 433.945441 -56.42758 
L 437.428669 -49.361532 
L 440.911896 -52.800594 
L 444.395124 -62.096166 
L 447.878352 -60.366984 
L 451.361579 -57.127619 
L 454.844807 -58.571425 
L 458.328034 -63.193668 
L 461.811262 -57.270073 
L 465.294489 -64.619005 
L 468.777717 -68.592739 
L 472.260944 -65.464205 
L 475.744172 -61.916692 
L 479.227399 -59.338339 
L 482.710627 -56.805103 
L 486.193854 -50.70491 
L 489.677082 -50.423474 
L 493.160309 -47.877256 
L 496.643537 -48.378197 
L 500.126764 -48.644939 
L 503.609992 -51.650031 
L 507.093219 -48.580463 
L 510.576447 -42.117053 
L 514.059674 -39.470088 
L 517.542902 -39.29803 
L 521.026129 -40.154222 
L 524.509357 -39.182925 
L 527.992584 -37.020458 
L 531.475812 -43.143916 
L 534.959039 -47.055811 
L 538.442267 -42.185222 
L 541.925494 -40.633142 
L 545.408722 -49.264539 
L 548.891949 -42.527831 
L 552.375177 -35.355437 
L 555.858404 -36.583228 
L 559.341632 -37.463335 
L 562.824859 -40.667421 
L 566.308087 -45.00671 
L 569.791314 -46.028857 
L 573.274542 -47.825517 
L 576.75777 -56.42862 
L 580.240997 -56.199564 
L 583.724225 -58.72622 
L 587.207452 -56.48256 
L 590.69068 -60.383639 
L 594.173907 -44.888724 
L 597.657135 -50.205116 
L 601.140362 -61.314311 
L 604.62359 -56.5547 
L 608.106817 -60.143256 
L 611.590045 -56.543223 
L 615.073272 -61.465504 
L 618.5565 -65.849803 
L 622.039727 -63.450506 
L 625.522955 -66.031631 
L 629.006182 -69.626351 
L 632.48941 -68.116936 
L 635.972637 -69.394316 
L 639.455865 -71.545539 
L 642.939092 -71.967028 
L 646.42232 -66.377672 
L 649.905547 -65.348412 
L 653.388775 -69.634096 
L 656.872002 -71.663631 
L 660.35523 -69.093175 
L 663.838457 -67.653688 
L 667.321685 -51.368296 
L 670.804912 -57.060064 
L 674.28814 -61.089476 
L 677.771367 -64.377714 
L 681.254595 -63.03766 
L 684.737822 -57.803907 
L 688.22105 -53.788402 
L 691.704277 -24.104798 
L 695.187505 -9.424178 
L 698.670732 -20.763957 
L 702.15396 -43.416683 
L 705.637188 -51.985533 
L 705.637188 -88.876996 
L 705.637188 -88.876996 
L 702.15396 -135.00898 
L 698.670732 -217.329708 
L 695.187505 -263.889112 
L 691.704277 -225.688887 
L 688.22105 -178.104436 
L 684.737822 -172.535784 
L 681.254595 -177.003275 
L 677.771367 -183.95392 
L 674.28814 -185.943742 
L 670.804912 -191.043495 
L 667.321685 -197.225965 
L 663.838457 -171.185406 
L 660.35523 -172.152302 
L 656.872002 -138.770019 
L 653.388775 -124.512725 
L 649.905547 -136.453031 
L 646.42232 -134.585882 
L 642.939092 -130.911276 
L 639.455865 -136.755996 
L 635.972637 -134.910179 
L 632.48941 -148.665004 
L 629.006182 -138.471696 
L 625.522955 -159.052463 
L 622.039727 -132.646175 
L 618.5565 -129.582583 
L 615.073272 -132.633356 
L 611.590045 -122.571136 
L 608.106817 -139.746977 
L 604.62359 -144.106369 
L 601.140362 -138.368056 
L 597.657135 -144.681715 
L 594.173907 -144.305079 
L 590.69068 -143.321193 
L 587.207452 -121.550002 
L 583.724225 -126.489169 
L 580.240997 -149.571539 
L 576.75777 -146.706227 
L 573.274542 -162.723614 
L 569.791314 -164.403583 
L 566.308087 -167.70769 
L 562.824859 -158.605454 
L 559.341632 -164.719197 
L 555.858404 -168.074974 
L 552.375177 -172.566501 
L 548.891949 -158.578864 
L 545.408722 -145.535867 
L 541.925494 -162.464018 
L 538.442267 -168.078094 
L 534.959039 -163.995103 
L 531.475812 -171.091947 
L 527.992584 -184.787607 
L 524.509357 -191.514758 
L 521.026129 -190.007311 
L 517.542902 -185.541878 
L 514.059674 -193.924262 
L 510.576447 -191.303095 
L 507.093219 -181.948375 
L 503.609992 -174.191675 
L 500.126764 -158.795051 
L 496.643537 -147.718484 
L 493.160309 -150.242537 
L 489.677082 -179.607835 
L 486.193854 -176.811727 
L 482.710627 -144.254375 
L 479.227399 -141.738641 
L 475.744172 -135.475313 
L 472.260944 -133.476127 
L 468.777717 -143.786055 
L 465.294489 -153.602611 
L 461.811262 -129.269032 
L 458.328034 -128.391611 
L 454.844807 -135.409257 
L 451.361579 -129.870231 
L 447.878352 -123.529425 
L 444.395124 -132.538373 
L 440.911896 -151.442843 
L 437.428669 -154.285382 
L 433.945441 -144.695288 
L 430.462214 -141.833955 
L 426.978986 -137.441147 
L 423.495759 -153.083622 
L 420.012531 -129.943982 
L 416.529304 -128.49203 
L 413.046076 -144.678659 
L 409.562849 -126.125591 
L 406.079621 -123.362727 
L 402.596394 -145.814679 
L 399.113166 -137.529509 
L 395.629939 -120.019138 
L 392.146711 -136.797714 
L 388.663484 -138.118851 
L 385.180256 -130.575739 
L 381.697029 -127.338885 
L 378.213801 -161.580576 
L 374.730574 -161.789091 
L 371.247346 -160.267859 
L 367.764119 -158.714933 
L 364.280891 -161.037991 
L 360.797664 -167.128712 
L 357.314436 -173.214121 
L 353.831209 -170.503564 
L 350.347981 -164.710812 
L 346.864754 -158.587047 
L 343.381526 -151.115595 
L 339.898299 -141.485247 
L 336.415071 -167.585189 
L 332.931844 -173.39403 
L 329.448616 -163.288941 
L 325.965389 -155.6637 
L 322.482161 -146.487909 
L 318.998934 -161.637916 
L 315.515706 -172.436159 
L 312.032479 -149.06361 
L 308.549251 -155.904194 
L 305.066023 -160.851452 
L 301.582796 -163.861017 
L 298.099568 -163.049507 
L 294.616341 -163.171511 
L 291.133113 -164.529623 
L 287.649886 -179.068838 
L 284.166658 -173.135653 
L 280.683431 -172.206283 
L 277.200203 -176.375498 
L 273.716976 -181.408267 
L 270.233748 -173.516129 
L 266.750521 -158.953469 
L 263.267293 -154.56046 
L 259.784066 -150.480279 
L 256.300838 -124.510682 
L 252.817611 -117.942182 
L 249.334383 -124.441764 
L 245.851156 -109.993771 
L 242.367928 -123.448109 
L 238.884701 -139.01937 
L 235.401473 -139.828591 
L 231.918246 -134.195185 
L 228.435018 -143.286184 
L 224.951791 -137.080575 
L 221.468563 -140.890754 
L 217.985336 -115.736935 
L 214.502108 -133.407759 
L 211.018881 -144.696453 
L 207.535653 -178.873342 
L 204.052426 -115.828034 
L 200.569198 -131.253852 
L 197.085971 -147.827133 
L 193.602743 -128.641877 
L 190.119516 -113.872907 
L 186.636288 -112.149617 
L 183.153061 -125.940053 
L 179.669833 -137.139707 
L 176.186605 -133.105583 
L 172.703378 -146.682379 
L 169.22015 -150.85618 
L 165.736923 -135.597912 
L 162.253695 -135.064718 
L 158.770468 -139.407508 
L 155.28724 -150.979536 
L 151.804013 -161.446402 
L 148.320785 -166.231683 
L 144.837558 -164.795472 
L 141.35433 -156.155274 
L 137.871103 -146.863643 
L 134.387875 -152.02981 
L 130.904648 -146.359984 
L 127.42142 -151.2501 
L 123.938193 -142.562077 
L 120.454965 -161.276209 
L 116.971738 -177.540022 
L 113.48851 -144.779771 
L 110.005283 -128.202007 
L 106.522055 -119.885192 
L 103.038828 -128.165253 
L 99.5556 -141.239272 
L 96.072373 -146.074468 
L 92.589145 -140.459284 
L 89.105918 -127.586326 
L 85.62269 -99.541267 
L 82.139463 -121.105073 
L 78.656235 -125.723581 
L 75.173008 -119.619769 
L 71.68978 -114.625988 
L 68.206553 -104.114286 
L 64.723325 -102.167393 
L 61.240098 -119.194 
L 57.75687 -125.607071 
L 54.273643 -133.090692 
L 50.790415 -106.140091 
L 47.307188 -71.294032 
z
" style="stroke: #808080; stroke-opacity: 0.7"/>
    </defs>
    <g clip-path="url(#pafcc2a2ba7)">
     <use xlink:href="#md4c131de52" x="0" y="424.5775" style="fill: #808080; fill-opacity: 0.7; stroke: #808080; stroke-opacity: 0.7"/>
    </g>
   </g>
   <g id="line2d_31">
    <path d="M 47.307188 367.741449 
L 50.790415 338.647771 
L 54.273643 354.760779 
L 57.75687 346.94757 
L 61.240098 367.741449 
L 144.837558 367.741449 
L 148.320785 366.616513 
L 151.804013 367.741449 
L 186.636288 367.741449 
L 190.119516 367.554114 
L 193.602743 348.399156 
L 197.085971 356.82489 
L 200.569198 367.741449 
L 204.052426 367.741449 
L 207.535653 367.173443 
L 211.018881 367.741449 
L 242.367928 367.741449 
L 245.851156 367.444558 
L 249.334383 361.593836 
L 252.817611 367.602582 
L 256.300838 367.741449 
L 287.649886 367.741449 
L 291.133113 364.39998 
L 294.616341 364.995345 
L 298.099568 367.741449 
L 308.549251 367.741449 
L 312.032479 363.995428 
L 315.515706 364.815324 
L 318.998934 367.245143 
L 322.482161 367.691894 
L 332.931844 367.741449 
L 336.415071 367.496495 
L 339.898299 367.741449 
L 367.764119 367.741449 
L 371.247346 367.609093 
L 374.730574 348.666791 
L 378.213801 337.633614 
L 381.697029 345.230605 
L 385.180256 361.893248 
L 388.663484 363.619132 
L 392.146711 356.873645 
L 395.629939 342.230117 
L 399.113166 304.219385 
L 402.596394 315.728162 
L 406.079621 192.94083 
L 409.562849 283.279835 
L 413.046076 297.163183 
L 416.529304 296.666547 
L 420.012531 305.215429 
L 423.495759 322.397349 
L 426.978986 337.491671 
L 430.462214 317.823956 
L 433.945441 324.291091 
L 437.428669 288.935668 
L 440.911896 322.923258 
L 444.395124 323.761365 
L 447.878352 312.439472 
L 451.361579 315.586256 
L 454.844807 304.065042 
L 458.328034 282.706719 
L 461.811262 267.874074 
L 465.294489 224.798774 
L 468.777717 294.294924 
L 472.260944 319.364761 
L 475.744172 316.587172 
L 479.227399 331.400109 
L 482.710627 281.129704 
L 486.193854 218.017125 
L 489.677082 293.016294 
L 493.160309 302.741361 
L 496.643537 317.702934 
L 500.126764 285.719341 
L 503.609992 326.190078 
L 507.093219 347.596959 
L 510.576447 347.965903 
L 514.059674 347.243735 
L 517.542902 338.800565 
L 521.026129 246.294171 
L 524.509357 222.701366 
L 527.992584 210.248463 
L 531.475812 202.275624 
L 534.959039 236.070448 
L 538.442267 271.933616 
L 541.925494 312.343605 
L 545.408722 252.824214 
L 548.891949 264.811845 
L 552.375177 297.523302 
L 555.858404 296.041307 
L 559.341632 291.777077 
L 562.824859 287.953865 
L 566.308087 310.135977 
L 569.791314 326.15329 
L 573.274542 323.37968 
L 576.75777 325.635845 
L 580.240997 313.302903 
L 583.724225 304.394342 
L 587.207452 314.880524 
L 590.69068 320.408062 
L 594.173907 304.835087 
L 597.657135 321.884095 
L 601.140362 241.318037 
L 604.62359 151.76753 
L 608.106817 208.71686 
L 611.590045 115.414042 
L 615.073272 216.074827 
L 618.5565 164.70018 
L 622.039727 230.965122 
L 625.522955 203.275365 
L 629.006182 233.823172 
L 632.48941 298.57537 
L 635.972637 288.959939 
L 639.455865 296.415349 
L 642.939092 225.473226 
L 646.42232 227.218113 
L 649.905547 266.374616 
L 653.388775 252.869131 
L 656.872002 131.321488 
L 660.35523 205.935319 
L 663.838457 245.350194 
L 667.321685 243.340257 
L 670.804912 229.798469 
L 674.28814 211.100351 
L 677.771367 189.893182 
L 681.254595 208.628392 
L 684.737822 210.32877 
L 688.22105 246.117237 
L 691.704277 264.737927 
L 695.187505 273.003058 
L 698.670732 292.442822 
L 702.15396 307.210031 
L 705.637188 282.471534 
L 705.637188 282.471534 
" clip-path="url(#pafcc2a2ba7)" style="fill: none; stroke: #ff8c00; stroke-width: 2.3; stroke-linecap: square"/>
   </g>
   <g id="line2d_32">
    <path d="M 284.166658 384.117812 
L 284.166658 23.837812 
" clip-path="url(#pafcc2a2ba7)" style="fill: none; stroke-dasharray: 5.55,2.4; stroke-dashoffset: 0; stroke: #808080; stroke-width: 1.5"/>
   </g>
   <g id="line2d_33">
    <path d="M 486.193854 384.117812 
L 486.193854 23.837812 
" clip-path="url(#pafcc2a2ba7)" style="fill: none; stroke-dasharray: 5.55,2.4; stroke-dashoffset: 0; stroke: #808080; stroke-width: 1.5"/>
   </g>
   <g id="patch_3">
    <path d="M 47.307188 384.117812 
L 47.307188 23.837812 
" style="fill: none; stroke: #000000; stroke-width: 0.8; stroke-linejoin: miter; stroke-linecap: square"/>
   </g>
   <g id="patch_4">
    <path d="M 705.637188 384.117812 
L 705.637188 23.837812 
" style="fill: none; stroke: #000000; stroke-width: 0.8; stroke-linejoin: miter; stroke-linecap: square"/>
   </g>
   <g id="patch_5">
    <path d="M 47.307188 384.117812 
L 705.637188 384.117812 
" style="fill: none; stroke: #000000; stroke-width: 0.8; stroke-linejoin: miter; stroke-linecap: square"/>
   </g>
   <g id="patch_6">
    <path d="M 47.307188 23.837812 
L 705.637188 23.837812 
" style="fill: none; stroke: #000000; stroke-width: 0.8; stroke-linejoin: miter; stroke-linecap: square"/>
   </g>
   <g id="text_18">
    <!-- Facial trace: Depressive disorder (MDD/DD) (male) -->
    <g transform="translate(199.417031 17.837812) scale(0.14 -0.14)">
     <defs>
      <path id="DejaVuSans-46" d="M 628 4666 
L 3309 4666 
L 3309 4134 
L 1259 4134 
L 1259 2759 
L 3109 2759 
L 3109 2228 
L 1259 2228 
L 1259 0 
L 628 0 
L 628 4666 
z
" transform="scale(0.015625)"/>
      <path id="DejaVuSans-63" d="M 3122 3366 
L 3122 2828 
Q 2878 2963 2633 3030 
Q 2388 3097 2138 3097 
Q 1578 3097 1268 2742 
Q 959 2388 959 1747 
Q 959 1106 1268 751 
Q 1578 397 2138 397 
Q 2388 397 2633 464 
Q 2878 531 3122 666 
L 3122 134 
Q 2881 22 2623 -34 
Q 2366 -91 2075 -91 
Q 1284 -91 818 406 
Q 353 903 353 1747 
Q 353 2603 823 3093 
Q 1294 3584 2113 3584 
Q 2378 3584 2631 3529 
Q 2884 3475 3122 3366 
z
" transform="scale(0.015625)"/>
      <path id="DejaVuSans-6c" d="M 603 4863 
L 1178 4863 
L 1178 0 
L 603 0 
L 603 4863 
z
" transform="scale(0.015625)"/>
      <path id="DejaVuSans-72" d="M 2631 2963 
Q 2534 3019 2420 3045 
Q 2306 3072 2169 3072 
Q 1681 3072 1420 2755 
Q 1159 2438 1159 1844 
L 1159 0 
L 581 0 
L 581 3500 
L 1159 3500 
L 1159 2956 
Q 1341 3275 1631 3429 
Q 1922 3584 2338 3584 
Q 2397 3584 2469 3576 
Q 2541 3569 2628 3553 
L 2631 2963 
z
" transform="scale(0.015625)"/>
      <path id="DejaVuSans-3a" d="M 750 794 
L 1409 794 
L 1409 0 
L 750 0 
L 750 794 
z
M 750 3309 
L 1409 3309 
L 1409 2516 
L 750 2516 
L 750 3309 
z
" transform="scale(0.015625)"/>
      <path id="DejaVuSans-44" d="M 1259 4147 
L 1259 519 
L 2022 519 
Q 2988 519 3436 956 
Q 3884 1394 3884 2338 
Q 3884 3275 3436 3711 
Q 2988 4147 2022 4147 
L 1259 4147 
z
M 628 4666 
L 1925 4666 
Q 3281 4666 3915 4102 
Q 4550 3538 4550 2338 
Q 4550 1131 3912 565 
Q 3275 0 1925 0 
L 628 0 
L 628 4666 
z
" transform="scale(0.015625)"/>
      <path id="DejaVuSans-70" d="M 1159 525 
L 1159 -1331 
L 581 -1331 
L 581 3500 
L 1159 3500 
L 1159 2969 
Q 1341 3281 1617 3432 
Q 1894 3584 2278 3584 
Q 2916 3584 3314 3078 
Q 3713 2572 3713 1747 
Q 3713 922 3314 415 
Q 2916 -91 2278 -91 
Q 1894 -91 1617 61 
Q 1341 213 1159 525 
z
M 3116 1747 
Q 3116 2381 2855 2742 
Q 2594 3103 2138 3103 
Q 1681 3103 1420 2742 
Q 1159 2381 1159 1747 
Q 1159 1113 1420 752 
Q 1681 391 2138 391 
Q 2594 391 2855 752 
Q 3116 1113 3116 1747 
z
" transform="scale(0.015625)"/>
      <path id="DejaVuSans-76" d="M 191 3500 
L 800 3500 
L 1894 563 
L 2988 3500 
L 3597 3500 
L 2284 0 
L 1503 0 
L 191 3500 
z
" transform="scale(0.015625)"/>
      <path id="DejaVuSans-64" d="M 2906 2969 
L 2906 4863 
L 3481 4863 
L 3481 0 
L 2906 0 
L 2906 525 
Q 2725 213 2448 61 
Q 2172 -91 1784 -91 
Q 1150 -91 751 415 
Q 353 922 353 1747 
Q 353 2572 751 3078 
Q 1150 3584 1784 3584 
Q 2172 3584 2448 3432 
Q 2725 3281 2906 2969 
z
M 947 1747 
Q 947 1113 1208 752 
Q 1469 391 1925 391 
Q 2381 391 2643 752 
Q 2906 1113 2906 1747 
Q 2906 2381 2643 2742 
Q 2381 3103 1925 3103 
Q 1469 3103 1208 2742 
Q 947 2381 947 1747 
z
" transform="scale(0.015625)"/>
      <path id="DejaVuSans-6f" d="M 1959 3097 
Q 1497 3097 1228 2736 
Q 959 2375 959 1747 
Q 959 1119 1226 758 
Q 1494 397 1959 397 
Q 2419 397 2687 759 
Q 2956 1122 2956 1747 
Q 2956 2369 2687 2733 
Q 2419 3097 1959 3097 
z
M 1959 3584 
Q 2709 3584 3137 3096 
Q 3566 2609 3566 1747 
Q 3566 888 3137 398 
Q 2709 -91 1959 -91 
Q 1206 -91 779 398 
Q 353 888 353 1747 
Q 353 2609 779 3096 
Q 1206 3584 1959 3584 
z
" transform="scale(0.015625)"/>
      <path id="DejaVuSans-4d" d="M 628 4666 
L 1569 4666 
L 2759 1491 
L 3956 4666 
L 4897 4666 
L 4897 0 
L 4281 0 
L 4281 4097 
L 3078 897 
L 2444 897 
L 1241 4097 
L 1241 0 
L 628 0 
L 628 4666 
z
" transform="scale(0.015625)"/>
      <path id="DejaVuSans-2f" d="M 1625 4666 
L 2156 4666 
L 531 -594 
L 0 -594 
L 1625 4666 
z
" transform="scale(0.015625)"/>
     </defs>
     <use xlink:href="#DejaVuSans-46"/>
     <use xlink:href="#DejaVuSans-61" transform="translate(48.394531 0)"/>
     <use xlink:href="#DejaVuSans-63" transform="translate(109.673828 0)"/>
     <use xlink:href="#DejaVuSans-69" transform="translate(164.654297 0)"/>
     <use xlink:href="#DejaVuSans-61" transform="translate(192.4375 0)"/>
     <use xlink:href="#DejaVuSans-6c" transform="translate(253.716797 0)"/>
     <use xlink:href="#DejaVuSans-20" transform="translate(281.5 0)"/>
     <use xlink:href="#DejaVuSans-74" transform="translate(313.287109 0)"/>
     <use xlink:href="#DejaVuSans-72" transform="translate(352.496094 0)"/>
     <use xlink:href="#DejaVuSans-61" transform="translate(393.609375 0)"/>
     <use xlink:href="#DejaVuSans-63" transform="translate(454.888672 0)"/>
     <use xlink:href="#DejaVuSans-65" transform="translate(509.869141 0)"/>
     <use xlink:href="#DejaVuSans-3a" transform="translate(571.392578 0)"/>
     <use xlink:href="#DejaVuSans-20" transform="translate(605.083984 0)"/>
     <use xlink:href="#DejaVuSans-44" transform="translate(636.871094 0)"/>
     <use xlink:href="#DejaVuSans-65" transform="translate(713.873047 0)"/>
     <use xlink:href="#DejaVuSans-70" transform="translate(775.396484 0)"/>
     <use xlink:href="#DejaVuSans-72" transform="translate(838.873047 0)"/>
     <use xlink:href="#DejaVuSans-65" transform="translate(877.736328 0)"/>
     <use xlink:href="#DejaVuSans-73" transform="translate(939.259766 0)"/>
     <use xlink:href="#DejaVuSans-73" transform="translate(991.359375 0)"/>
     <use xlink:href="#DejaVuSans-69" transform="translate(1043.458984 0)"/>
     <use xlink:href="#DejaVuSans-76" transform="translate(1071.242188 0)"/>
     <use xlink:href="#DejaVuSans-65" transform="translate(1130.421875 0)"/>
     <use xlink:href="#DejaVuSans-20" transform="translate(1191.945312 0)"/>
     <use xlink:href="#DejaVuSans-64" transform="translate(1223.732422 0)"/>
     <use xlink:href="#DejaVuSans-69" transform="translate(1287.208984 0)"/>
     <use xlink:href="#DejaVuSans-73" transform="translate(1314.992188 0)"/>
     <use xlink:href="#DejaVuSans-6f" transform="translate(1367.091797 0)"/>
     <use xlink:href="#DejaVuSans-72" transform="translate(1428.273438 0)"/>
     <use xlink:href="#DejaVuSans-64" transform="translate(1467.636719 0)"/>
     <use xlink:href="#DejaVuSans-65" transform="translate(1531.113281 0)"/>
     <use xlink:href="#DejaVuSans-72" transform="translate(1592.636719 0)"/>
     <use xlink:href="#DejaVuSans-20" transform="translate(1633.75 0)"/>
     <use xlink:href="#DejaVuSans-28" transform="translate(1665.537109 0)"/>
     <use xlink:href="#DejaVuSans-4d" transform="translate(1704.550781 0)"/>
     <use xlink:href="#DejaVuSans-44" transform="translate(1790.830078 0)"/>
     <use xlink:href="#DejaVuSans-44" transform="translate(1867.832031 0)"/>
     <use xlink:href="#DejaVuSans-2f" transform="translate(1944.833984 0)"/>
     <use xlink:href="#DejaVuSans-44" transform="translate(1978.525391 0)"/>
     <use xlink:href="#DejaVuSans-44" transform="translate(2055.527344 0)"/>
     <use xlink:href="#DejaVuSans-29" transform="translate(2132.529297 0)"/>
     <use xlink:href="#DejaVuSans-20" transform="translate(2171.542969 0)"/>
     <use xlink:href="#DejaVuSans-28" transform="translate(2203.330078 0)"/>
     <use xlink:href="#DejaVuSans-6d" transform="translate(2242.34375 0)"/>
     <use xlink:href="#DejaVuSans-61" transform="translate(2339.755859 0)"/>
     <use xlink:href="#DejaVuSans-6c" transform="translate(2401.035156 0)"/>
     <use xlink:href="#DejaVuSans-65" transform="translate(2428.818359 0)"/>
     <use xlink:href="#DejaVuSans-29" transform="translate(2490.341797 0)"/>
    </g>
   </g>
   <g id="legend_1">
    <g id="patch_7">
     <path d="M 57.207188 42.096094 
L 79.207188 42.096094 
L 79.207188 34.396094 
L 57.207188 34.396094 
z
" style="fill: #d3d3d3; fill-opacity: 0.5; stroke: #d3d3d3; stroke-opacity: 0.5; stroke-linejoin: miter"/>
    </g>
    <g id="text_19">
     <!-- Depressive disorder (MDD/DD) ±2 SD -->
     <g transform="translate(88.007188 42.096094) scale(0.11 -0.11)">
      <defs>
       <path id="DejaVuSans-b1" d="M 2944 4013 
L 2944 2803 
L 4684 2803 
L 4684 2272 
L 2944 2272 
L 2944 1063 
L 2419 1063 
L 2419 2272 
L 678 2272 
L 678 2803 
L 2419 2803 
L 2419 4013 
L 2944 4013 
z
M 678 531 
L 4684 531 
L 4684 0 
L 678 0 
L 678 531 
z
" transform="scale(0.015625)"/>
       <path id="DejaVuSans-53" d="M 3425 4513 
L 3425 3897 
Q 3066 4069 2747 4153 
Q 2428 4238 2131 4238 
Q 1616 4238 1336 4038 
Q 1056 3838 1056 3469 
Q 1056 3159 1242 3001 
Q 1428 2844 1947 2747 
L 2328 2669 
Q 3034 2534 3370 2195 
Q 3706 1856 3706 1288 
Q 3706 609 3251 259 
Q 2797 -91 1919 -91 
Q 1588 -91 1214 -16 
Q 841 59 441 206 
L 441 856 
Q 825 641 1194 531 
Q 1563 422 1919 422 
Q 2459 422 2753 634 
Q 3047 847 3047 1241 
Q 3047 1584 2836 1778 
Q 2625 1972 2144 2069 
L 1759 2144 
Q 1053 2284 737 2584 
Q 422 2884 422 3419 
Q 422 4038 858 4394 
Q 1294 4750 2059 4750 
Q 2388 4750 2728 4690 
Q 3069 4631 3425 4513 
z
" transform="scale(0.015625)"/>
      </defs>
      <use xlink:href="#DejaVuSans-44"/>
      <use xlink:href="#DejaVuSans-65" transform="translate(77.001953 0)"/>
      <use xlink:href="#DejaVuSans-70" transform="translate(138.525391 0)"/>
      <use xlink:href="#DejaVuSans-72" transform="translate(202.001953 0)"/>
      <use xlink:href="#DejaVuSans-65" transform="translate(240.865234 0)"/>
      <use xlink:href="#DejaVuSans-73" transform="translate(302.388672 0)"/>
      <use xlink:href="#DejaVuSans-73" transform="translate(354.488281 0)"/>
      <use xlink:href="#DejaVuSans-69" transform="translate(406.587891 0)"/>
      <use xlink:href="#DejaVuSans-76" transform="translate(434.371094 0)"/>
      <use xlink:href="#DejaVuSans-65" transform="translate(493.550781 0)"/>
      <use xlink:href="#DejaVuSans-20" transform="translate(555.074219 0)"/>
      <use xlink:href="#DejaVuSans-64" transform="translate(586.861328 0)"/>
      <use xlink:href="#DejaVuSans-69" transform="translate(650.337891 0)"/>
      <use xlink:href="#DejaVuSans-73" transform="translate(678.121094 0)"/>
      <use xlink:href="#DejaVuSans-6f" transform="translate(730.220703 0)"/>
      <use xlink:href="#DejaVuSans-72" transform="translate(791.402344 0)"/>
      <use xlink:href="#DejaVuSans-64" transform="translate(830.765625 0)"/>
      <use xlink:href="#DejaVuSans-65" transform="translate(894.242188 0)"/>
      <use xlink:href="#DejaVuSans-72" transform="translate(955.765625 0)"/>
      <use xlink:href="#DejaVuSans-20" transform="translate(996.878906 0)"/>
      <use xlink:href="#DejaVuSans-28" transform="translate(1028.666016 0)"/>
      <use xlink:href="#DejaVuSans-4d" transform="translate(1067.679688 0)"/>
      <use xlink:href="#DejaVuSans-44" transform="translate(1153.958984 0)"/>
      <use xlink:href="#DejaVuSans-44" transform="translate(1230.960938 0)"/>
      <use xlink:href="#DejaVuSans-2f" transform="translate(1307.962891 0)"/>
      <use xlink:href="#DejaVuSans-44" transform="translate(1341.654297 0)"/>
      <use xlink:href="#DejaVuSans-44" transform="translate(1418.65625 0)"/>
      <use xlink:href="#DejaVuSans-29" transform="translate(1495.658203 0)"/>
      <use xlink:href="#DejaVuSans-20" transform="translate(1534.671875 0)"/>
      <use xlink:href="#DejaVuSans-b1" transform="translate(1566.458984 0)"/>
      <use xlink:href="#DejaVuSans-32" transform="translate(1650.248047 0)"/>
      <use xlink:href="#DejaVuSans-20" transform="translate(1713.871094 0)"/>
      <use xlink:href="#DejaVuSans-53" transform="translate(1745.658203 0)"/>
      <use xlink:href="#DejaVuSans-44" transform="translate(1809.134766 0)"/>
     </g>
    </g>
    <g id="patch_8">
     <path d="M 57.207188 58.242031 
L 79.207188 58.242031 
L 79.207188 50.542031 
L 57.207188 50.542031 
z
" style="fill: #808080; fill-opacity: 0.7; stroke: #808080; stroke-opacity: 0.7; stroke-linejoin: miter"/>
    </g>
    <g id="text_20">
     <!-- Depressive disorder (MDD/DD) ±1 SD -->
     <g transform="translate(88.007188 58.242031) scale(0.11 -0.11)">
      <use xlink:href="#DejaVuSans-44"/>
      <use xlink:href="#DejaVuSans-65" transform="translate(77.001953 0)"/>
      <use xlink:href="#DejaVuSans-70" transform="translate(138.525391 0)"/>
      <use xlink:href="#DejaVuSans-72" transform="translate(202.001953 0)"/>
      <use xlink:href="#DejaVuSans-65" transform="translate(240.865234 0)"/>
      <use xlink:href="#DejaVuSans-73" transform="translate(302.388672 0)"/>
      <use xlink:href="#DejaVuSans-73" transform="translate(354.488281 0)"/>
      <use xlink:href="#DejaVuSans-69" transform="translate(406.587891 0)"/>
      <use xlink:href="#DejaVuSans-76" transform="translate(434.371094 0)"/>
      <use xlink:href="#DejaVuSans-65" transform="translate(493.550781 0)"/>
      <use xlink:href="#DejaVuSans-20" transform="translate(555.074219 0)"/>
      <use xlink:href="#DejaVuSans-64" transform="translate(586.861328 0)"/>
      <use xlink:href="#DejaVuSans-69" transform="translate(650.337891 0)"/>
      <use xlink:href="#DejaVuSans-73" transform="translate(678.121094 0)"/>
      <use xlink:href="#DejaVuSans-6f" transform="translate(730.220703 0)"/>
      <use xlink:href="#DejaVuSans-72" transform="translate(791.402344 0)"/>
      <use xlink:href="#DejaVuSans-64" transform="translate(830.765625 0)"/>
      <use xlink:href="#DejaVuSans-65" transform="translate(894.242188 0)"/>
      <use xlink:href="#DejaVuSans-72" transform="translate(955.765625 0)"/>
      <use xlink:href="#DejaVuSans-20" transform="translate(996.878906 0)"/>
      <use xlink:href="#DejaVuSans-28" transform="translate(1028.666016 0)"/>
      <use xlink:href="#DejaVuSans-4d" transform="translate(1067.679688 0)"/>
      <use xlink:href="#DejaVuSans-44" transform="translate(1153.958984 0)"/>
      <use xlink:href="#DejaVuSans-44" transform="translate(1230.960938 0)"/>
      <use xlink:href="#DejaVuSans-2f" transform="translate(1307.962891 0)"/>
      <use xlink:href="#DejaVuSans-44" transform="translate(1341.654297 0)"/>
      <use xlink:href="#DejaVuSans-44" transform="translate(1418.65625 0)"/>
      <use xlink:href="#DejaVuSans-29" transform="translate(1495.658203 0)"/>
      <use xlink:href="#DejaVuSans-20" transform="translate(1534.671875 0)"/>
      <use xlink:href="#DejaVuSans-b1" transform="translate(1566.458984 0)"/>
      <use xlink:href="#DejaVuSans-31" transform="translate(1650.248047 0)"/>
      <use xlink:href="#DejaVuSans-20" transform="translate(1713.871094 0)"/>
      <use xlink:href="#DejaVuSans-53" transform="translate(1745.658203 0)"/>
      <use xlink:href="#DejaVuSans-44" transform="translate(1809.134766 0)"/>
     </g>
    </g>
    <g id="line2d_34">
     <path d="M 57.207188 70.537969 
L 68.207188 70.537969 
L 79.207188 70.537969 
" style="fill: none; stroke: #ff8c00; stroke-width: 2.3; stroke-linecap: square"/>
    </g>
    <g id="text_21">
     <!-- Patient -->
     <g transform="translate(88.007188 74.387969) scale(0.11 -0.11)">
      <defs>
       <path id="DejaVuSans-50" d="M 1259 4147 
L 1259 2394 
L 2053 2394 
Q 2494 2394 2734 2622 
Q 2975 2850 2975 3272 
Q 2975 3691 2734 3919 
Q 2494 4147 2053 4147 
L 1259 4147 
z
M 628 4666 
L 2053 4666 
Q 2838 4666 3239 4311 
Q 3641 3956 3641 3272 
Q 3641 2581 3239 2228 
Q 2838 1875 2053 1875 
L 1259 1875 
L 1259 0 
L 628 0 
L 628 4666 
z
" transform="scale(0.015625)"/>
      </defs>
      <use xlink:href="#DejaVuSans-50"/>
      <use xlink:href="#DejaVuSans-61" transform="translate(55.802734 0)"/>
      <use xlink:href="#DejaVuSans-74" transform="translate(117.082031 0)"/>
      <use xlink:href="#DejaVuSans-69" transform="translate(156.291016 0)"/>
      <use xlink:href="#DejaVuSans-65" transform="translate(184.074219 0)"/>
      <use xlink:href="#DejaVuSans-6e" transform="translate(245.597656 0)"/>
      <use xlink:href="#DejaVuSans-74" transform="translate(308.976562 0)"/>
     </g>
    </g>
   </g>
  </g>
 </g>
 <defs>
  <clipPath id="pafcc2a2ba7">
   <rect x="47.307188" y="23.837812" width="658.33" height="360.28"/>
  </clipPath>
 </defs>
</svg>
