<?xml version="1.0" encoding="utf-8" standalone="no"?>
<!DOCTYPE svg PUBLIC "-//W3C//DTD SVG 1.1//EN"
  "http://www.w3.org/Graphics/SVG/1.1/DTD/svg11.dtd">
<svg xmlns:xlink="http://www.w3.org/1999/xlink" width="712.837188pt" height="424.5775pt" viewBox="0 0 712.837188 424.5775" xmlns="http://www.w3.org/2000/svg" version="1.1">
 <metadata>
  <rdf:RDF xmlns:dc="http://purl.org/dc/elements/1.1/" xmlns:cc="http://creativecommons.org/ns#" xmlns:rdf="http://www.w3.org/1999/02/22-rdf-syntax-ns#">
   <cc:Work>
    <dc:type rdf:resource="http://purl.org/dc/dcmitype/StillImage"/>
    <dc:date>2026-06-23T21:48:32.907903</dc:date>
    <dc:format>image/svg+xml</dc:format>
    <dc:creator>
     <cc:Agent>
      <dc:title>Matplotlib v3.10.1, https://matplotlib.org/</dc:title>
     </cc:Agent>
    </dc:creator>
   </cc:Work>
  </rdf:RDF>
 </metadata>
 <defs>
  <style type="text/css">*{stroke-linejoin: round; stroke-linecap: butt}</style>
 </defs>
 <g id="figure_1">
  <g id="patch_1">
   <path d="M 0 424.5775 
L 712.837188 424.5775 
L 712.837188 0 
L 0 0 
z
" style="fill: #ffffff"/>
  </g>
  <g id="axes_1">
   <g id="patch_2">
    <path d="M 47.307188 384.117812 
L 705.637188 384.117812 
L 705.637188 23.837812 
L 47.307188 23.837812 
z
" style="fill: #ffffff"/>
   </g>
   <g id="matplotlib.axis_1">
    <g id="xtick_1">
     <g id="line2d_1">
      <path d="M 47.307188 384.117812 
L 47.307188 23.837812 
" clip-path="url(#pa896f4fe45)" style="fill: none; stroke: #b0b0b0; stroke-opacity: 0.2; stroke-width: 0.6; stroke-linecap: square"/>
     </g>
     <g id="line2d_2">
      <defs>
       <path id="m530093e6ee" d="M 0 0 
L 0 3.5 
" style="stroke: #000000; stroke-width: 0.8"/>
      </defs>
      <g>
       <use xlink:href="#m530093e6ee" x="47.307188" y="384.117812" style="stroke: #000000; stroke-width: 0.8"/>
      </g>
     </g>
     <g id="text_1">
      <!-- 0 -->
      <g transform="translate(43.807813 399.476094) scale(0.11 -0.11)">
       <defs>
        <path id="DejaVuSans-30" d="M 2034 4250 
Q 1547 4250 1301 3770 
Q 1056 3291 1056 2328 
Q 1056 1369 1301 889 
Q 1547 409 2034 409 
Q 2525 409 2770 889 
Q 3016 1369 3016 2328 
Q 3016 3291 2770 3770 
Q 2525 4250 2034 4250 
z
M 2034 4750 
Q 2819 4750 3233 4129 
Q 3647 3509 3647 2328 
Q 3647 1150 3233 529 
Q 2819 -91 2034 -91 
Q 1250 -91 836 529 
Q 422 1150 422 2328 
Q 422 3509 836 4129 
Q 1250 4750 2034 4750 
z
" transform="scale(0.015625)"/>
       </defs>
       <use xlink:href="#DejaVuSans-30"/>
      </g>
     </g>
    </g>
    <g id="xtick_2">
     <g id="line2d_3">
      <path d="M 134.387875 384.117812 
L 134.387875 23.837812 
" clip-path="url(#pa896f4fe45)" style="fill: none; stroke: #b0b0b0; stroke-opacity: 0.2; stroke-width: 0.6; stroke-linecap: square"/>
     </g>
     <g id="line2d_4">
      <g>
       <use xlink:href="#m530093e6ee" x="134.387875" y="384.117812" style="stroke: #000000; stroke-width: 0.8"/>
      </g>
     </g>
     <g id="text_2">
      <!-- 25 -->
      <g transform="translate(127.389125 399.476094) scale(0.11 -0.11)">
       <defs>
        <path id="DejaVuSans-32" d="M 1228 531 
L 3431 531 
L 3431 0 
L 469 0 
L 469 531 
Q 828 903 1448 1529 
Q 2069 2156 2228 2338 
Q 2531 2678 2651 2914 
Q 2772 3150 2772 3378 
Q 2772 3750 2511 3984 
Q 2250 4219 1831 4219 
Q 1534 4219 1204 4116 
Q 875 4013 500 3803 
L 500 4441 
Q 881 4594 1212 4672 
Q 1544 4750 1819 4750 
Q 2544 4750 2975 4387 
Q 3406 4025 3406 3419 
Q 3406 3131 3298 2873 
Q 3191 2616 2906 2266 
Q 2828 2175 2409 1742 
Q 1991 1309 1228 531 
z
" transform="scale(0.015625)"/>
        <path id="DejaVuSans-35" d="M 691 4666 
L 3169 4666 
L 3169 4134 
L 1269 4134 
L 1269 2991 
Q 1406 3038 1543 3061 
Q 1681 3084 1819 3084 
Q 2600 3084 3056 2656 
Q 3513 2228 3513 1497 
Q 3513 744 3044 326 
Q 2575 -91 1722 -91 
Q 1428 -91 1123 -41 
Q 819 9 494 109 
L 494 744 
Q 775 591 1075 516 
Q 1375 441 1709 441 
Q 2250 441 2565 725 
Q 2881 1009 2881 1497 
Q 2881 1984 2565 2268 
Q 2250 2553 1709 2553 
Q 1456 2553 1204 2497 
Q 953 2441 691 2322 
L 691 4666 
z
" transform="scale(0.015625)"/>
       </defs>
       <use xlink:href="#DejaVuSans-32"/>
       <use xlink:href="#DejaVuSans-35" transform="translate(63.623047 0)"/>
      </g>
     </g>
    </g>
    <g id="xtick_3">
     <g id="line2d_5">
      <path d="M 221.468563 384.117812 
L 221.468563 23.837812 
" clip-path="url(#pa896f4fe45)" style="fill: none; stroke: #b0b0b0; stroke-opacity: 0.2; stroke-width: 0.6; stroke-linecap: square"/>
     </g>
     <g id="line2d_6">
      <g>
       <use xlink:href="#m530093e6ee" x="221.468563" y="384.117812" style="stroke: #000000; stroke-width: 0.8"/>
      </g>
     </g>
     <g id="text_3">
      <!-- 50 -->
      <g transform="translate(214.469813 399.476094) scale(0.11 -0.11)">
       <use xlink:href="#DejaVuSans-35"/>
       <use xlink:href="#DejaVuSans-30" transform="translate(63.623047 0)"/>
      </g>
     </g>
    </g>
    <g id="xtick_4">
     <g id="line2d_7">
      <path d="M 308.549251 384.117812 
L 308.549251 23.837812 
" clip-path="url(#pa896f4fe45)" style="fill: none; stroke: #b0b0b0; stroke-opacity: 0.2; stroke-width: 0.6; stroke-linecap: square"/>
     </g>
     <g id="line2d_8">
      <g>
       <use xlink:href="#m530093e6ee" x="308.549251" y="384.117812" style="stroke: #000000; stroke-width: 0.8"/>
      </g>
     </g>
     <g id="text_4">
      <!-- 75 -->
      <g transform="translate(301.550501 399.476094) scale(0.11 -0.11)">
       <defs>
        <path id="DejaVuSans-37" d="M 525 4666 
L 3525 4666 
L 3525 4397 
L 1831 0 
L 1172 0 
L 2766 4134 
L 525 4134 
L 525 4666 
z
" transform="scale(0.015625)"/>
       </defs>
       <use xlink:href="#DejaVuSans-37"/>
       <use xlink:href="#DejaVuSans-35" transform="translate(63.623047 0)"/>
      </g>
     </g>
    </g>
    <g id="xtick_5">
     <g id="line2d_9">
      <path d="M 395.629939 384.117812 
L 395.629939 23.837812 
" clip-path="url(#pa896f4fe45)" style="fill: none; stroke: #b0b0b0; stroke-opacity: 0.2; stroke-width: 0.6; stroke-linecap: square"/>
     </g>
     <g id="line2d_10">
      <g>
       <use xlink:href="#m530093e6ee" x="395.629939" y="384.117812" style="stroke: #000000; stroke-width: 0.8"/>
      </g>
     </g>
     <g id="text_5">
      <!-- 100 -->
      <g transform="translate(385.131814 399.476094) scale(0.11 -0.11)">
       <defs>
        <path id="DejaVuSans-31" d="M 794 531 
L 1825 531 
L 1825 4091 
L 703 3866 
L 703 4441 
L 1819 4666 
L 2450 4666 
L 2450 531 
L 3481 531 
L 3481 0 
L 794 0 
L 794 531 
z
" transform="scale(0.015625)"/>
       </defs>
       <use xlink:href="#DejaVuSans-31"/>
       <use xlink:href="#DejaVuSans-30" transform="translate(63.623047 0)"/>
       <use xlink:href="#DejaVuSans-30" transform="translate(127.246094 0)"/>
      </g>
     </g>
    </g>
    <g id="xtick_6">
     <g id="line2d_11">
      <path d="M 482.710627 384.117812 
L 482.710627 23.837812 
" clip-path="url(#pa896f4fe45)" style="fill: none; stroke: #b0b0b0; stroke-opacity: 0.2; stroke-width: 0.6; stroke-linecap: square"/>
     </g>
     <g id="line2d_12">
      <g>
       <use xlink:href="#m530093e6ee" x="482.710627" y="384.117812" style="stroke: #000000; stroke-width: 0.8"/>
      </g>
     </g>
     <g id="text_6">
      <!-- 125 -->
      <g transform="translate(472.212502 399.476094) scale(0.11 -0.11)">
       <use xlink:href="#DejaVuSans-31"/>
       <use xlink:href="#DejaVuSans-32" transform="translate(63.623047 0)"/>
       <use xlink:href="#DejaVuSans-35" transform="translate(127.246094 0)"/>
      </g>
     </g>
    </g>
    <g id="xtick_7">
     <g id="line2d_13">
      <path d="M 569.791314 384.117812 
L 569.791314 23.837812 
" clip-path="url(#pa896f4fe45)" style="fill: none; stroke: #b0b0b0; stroke-opacity: 0.2; stroke-width: 0.6; stroke-linecap: square"/>
     </g>
     <g id="line2d_14">
      <g>
       <use xlink:href="#m530093e6ee" x="569.791314" y="384.117812" style="stroke: #000000; stroke-width: 0.8"/>
      </g>
     </g>
     <g id="text_7">
      <!-- 150 -->
      <g transform="translate(559.293189 399.476094) scale(0.11 -0.11)">
       <use xlink:href="#DejaVuSans-31"/>
       <use xlink:href="#DejaVuSans-35" transform="translate(63.623047 0)"/>
       <use xlink:href="#DejaVuSans-30" transform="translate(127.246094 0)"/>
      </g>
     </g>
    </g>
    <g id="xtick_8">
     <g id="line2d_15">
      <path d="M 656.872002 384.117812 
L 656.872002 23.837812 
" clip-path="url(#pa896f4fe45)" style="fill: none; stroke: #b0b0b0; stroke-opacity: 0.2; stroke-width: 0.6; stroke-linecap: square"/>
     </g>
     <g id="line2d_16">
      <g>
       <use xlink:href="#m530093e6ee" x="656.872002" y="384.117812" style="stroke: #000000; stroke-width: 0.8"/>
      </g>
     </g>
     <g id="text_8">
      <!-- 175 -->
      <g transform="translate(646.373877 399.476094) scale(0.11 -0.11)">
       <use xlink:href="#DejaVuSans-31"/>
       <use xlink:href="#DejaVuSans-37" transform="translate(63.623047 0)"/>
       <use xlink:href="#DejaVuSans-35" transform="translate(127.246094 0)"/>
      </g>
     </g>
    </g>
    <g id="text_9">
     <!-- Time (s) -->
     <g transform="translate(352.0775 414.881875) scale(0.12 -0.12)">
      <defs>
       <path id="DejaVuSans-54" d="M -19 4666 
L 3928 4666 
L 3928 4134 
L 2272 4134 
L 2272 0 
L 1638 0 
L 1638 4134 
L -19 4134 
L -19 4666 
z
" transform="scale(0.015625)"/>
       <path id="DejaVuSans-69" d="M 603 3500 
L 1178 3500 
L 1178 0 
L 603 0 
L 603 3500 
z
M 603 4863 
L 1178 4863 
L 1178 4134 
L 603 4134 
L 603 4863 
z
" transform="scale(0.015625)"/>
       <path id="DejaVuSans-6d" d="M 3328 2828 
Q 3544 3216 3844 3400 
Q 4144 3584 4550 3584 
Q 5097 3584 5394 3201 
Q 5691 2819 5691 2113 
L 5691 0 
L 5113 0 
L 5113 2094 
Q 5113 2597 4934 2840 
Q 4756 3084 4391 3084 
Q 3944 3084 3684 2787 
Q 3425 2491 3425 1978 
L 3425 0 
L 2847 0 
L 2847 2094 
Q 2847 2600 2669 2842 
Q 2491 3084 2119 3084 
Q 1678 3084 1418 2786 
Q 1159 2488 1159 1978 
L 1159 0 
L 581 0 
L 581 3500 
L 1159 3500 
L 1159 2956 
Q 1356 3278 1631 3431 
Q 1906 3584 2284 3584 
Q 2666 3584 2933 3390 
Q 3200 3197 3328 2828 
z
" transform="scale(0.015625)"/>
       <path id="DejaVuSans-65" d="M 3597 1894 
L 3597 1613 
L 953 1613 
Q 991 1019 1311 708 
Q 1631 397 2203 397 
Q 2534 397 2845 478 
Q 3156 559 3463 722 
L 3463 178 
Q 3153 47 2828 -22 
Q 2503 -91 2169 -91 
Q 1331 -91 842 396 
Q 353 884 353 1716 
Q 353 2575 817 3079 
Q 1281 3584 2069 3584 
Q 2775 3584 3186 3129 
Q 3597 2675 3597 1894 
z
M 3022 2063 
Q 3016 2534 2758 2815 
Q 2500 3097 2075 3097 
Q 1594 3097 1305 2825 
Q 1016 2553 972 2059 
L 3022 2063 
z
" transform="scale(0.015625)"/>
       <path id="DejaVuSans-20" transform="scale(0.015625)"/>
       <path id="DejaVuSans-28" d="M 1984 4856 
Q 1566 4138 1362 3434 
Q 1159 2731 1159 2009 
Q 1159 1288 1364 580 
Q 1569 -128 1984 -844 
L 1484 -844 
Q 1016 -109 783 600 
Q 550 1309 550 2009 
Q 550 2706 781 3412 
Q 1013 4119 1484 4856 
L 1984 4856 
z
" transform="scale(0.015625)"/>
       <path id="DejaVuSans-73" d="M 2834 3397 
L 2834 2853 
Q 2591 2978 2328 3040 
Q 2066 3103 1784 3103 
Q 1356 3103 1142 2972 
Q 928 2841 928 2578 
Q 928 2378 1081 2264 
Q 1234 2150 1697 2047 
L 1894 2003 
Q 2506 1872 2764 1633 
Q 3022 1394 3022 966 
Q 3022 478 2636 193 
Q 2250 -91 1575 -91 
Q 1294 -91 989 -36 
Q 684 19 347 128 
L 347 722 
Q 666 556 975 473 
Q 1284 391 1588 391 
Q 1994 391 2212 530 
Q 2431 669 2431 922 
Q 2431 1156 2273 1281 
Q 2116 1406 1581 1522 
L 1381 1569 
Q 847 1681 609 1914 
Q 372 2147 372 2553 
Q 372 3047 722 3315 
Q 1072 3584 1716 3584 
Q 2034 3584 2315 3537 
Q 2597 3491 2834 3397 
z
" transform="scale(0.015625)"/>
       <path id="DejaVuSans-29" d="M 513 4856 
L 1013 4856 
Q 1481 4119 1714 3412 
Q 1947 2706 1947 2009 
Q 1947 1309 1714 600 
Q 1481 -109 1013 -844 
L 513 -844 
Q 928 -128 1133 580 
Q 1338 1288 1338 2009 
Q 1338 2731 1133 3434 
Q 928 4138 513 4856 
z
" transform="scale(0.015625)"/>
      </defs>
      <use xlink:href="#DejaVuSans-54"/>
      <use xlink:href="#DejaVuSans-69" transform="translate(57.958984 0)"/>
      <use xlink:href="#DejaVuSans-6d" transform="translate(85.742188 0)"/>
      <use xlink:href="#DejaVuSans-65" transform="translate(183.154297 0)"/>
      <use xlink:href="#DejaVuSans-20" transform="translate(244.677734 0)"/>
      <use xlink:href="#DejaVuSans-28" transform="translate(276.464844 0)"/>
      <use xlink:href="#DejaVuSans-73" transform="translate(315.478516 0)"/>
      <use xlink:href="#DejaVuSans-29" transform="translate(367.578125 0)"/>
     </g>
    </g>
   </g>
   <g id="matplotlib.axis_2">
    <g id="ytick_1">
     <g id="line2d_17">
      <path d="M 47.307188 367.741449 
L 705.637188 367.741449 
" clip-path="url(#pa896f4fe45)" style="fill: none; stroke: #b0b0b0; stroke-opacity: 0.2; stroke-width: 0.6; stroke-linecap: square"/>
     </g>
     <g id="line2d_18">
      <defs>
       <path id="m3f1fe05221" d="M 0 0 
L -3.5 0 
" style="stroke: #000000; stroke-width: 0.8"/>
      </defs>
      <g>
       <use xlink:href="#m3f1fe05221" x="47.307188" y="367.741449" style="stroke: #000000; stroke-width: 0.8"/>
      </g>
     </g>
     <g id="text_10">
      <!-- 0.0 -->
      <g transform="translate(22.81375 371.920589) scale(0.11 -0.11)">
       <defs>
        <path id="DejaVuSans-2e" d="M 684 794 
L 1344 794 
L 1344 0 
L 684 0 
L 684 794 
z
" transform="scale(0.015625)"/>
       </defs>
       <use xlink:href="#DejaVuSans-30"/>
       <use xlink:href="#DejaVuSans-2e" transform="translate(63.623047 0)"/>
       <use xlink:href="#DejaVuSans-30" transform="translate(95.410156 0)"/>
      </g>
     </g>
    </g>
    <g id="ytick_2">
     <g id="line2d_19">
      <path d="M 47.307188 317.507205 
L 705.637188 317.507205 
" clip-path="url(#pa896f4fe45)" style="fill: none; stroke: #b0b0b0; stroke-opacity: 0.2; stroke-width: 0.6; stroke-linecap: square"/>
     </g>
     <g id="line2d_20">
      <g>
       <use xlink:href="#m3f1fe05221" x="47.307188" y="317.507205" style="stroke: #000000; stroke-width: 0.8"/>
      </g>
     </g>
     <g id="text_11">
      <!-- 0.5 -->
      <g transform="translate(22.81375 321.686345) scale(0.11 -0.11)">
       <use xlink:href="#DejaVuSans-30"/>
       <use xlink:href="#DejaVuSans-2e" transform="translate(63.623047 0)"/>
       <use xlink:href="#DejaVuSans-35" transform="translate(95.410156 0)"/>
      </g>
     </g>
    </g>
    <g id="ytick_3">
     <g id="line2d_21">
      <path d="M 47.307188 267.27296 
L 705.637188 267.27296 
" clip-path="url(#pa896f4fe45)" style="fill: none; stroke: #b0b0b0; stroke-opacity: 0.2; stroke-width: 0.6; stroke-linecap: square"/>
     </g>
     <g id="line2d_22">
      <g>
       <use xlink:href="#m3f1fe05221" x="47.307188" y="267.27296" style="stroke: #000000; stroke-width: 0.8"/>
      </g>
     </g>
     <g id="text_12">
      <!-- 1.0 -->
      <g transform="translate(22.81375 271.452101) scale(0.11 -0.11)">
       <use xlink:href="#DejaVuSans-31"/>
       <use xlink:href="#DejaVuSans-2e" transform="translate(63.623047 0)"/>
       <use xlink:href="#DejaVuSans-30" transform="translate(95.410156 0)"/>
      </g>
     </g>
    </g>
    <g id="ytick_4">
     <g id="line2d_23">
      <path d="M 47.307188 217.038716 
L 705.637188 217.038716 
" clip-path="url(#pa896f4fe45)" style="fill: none; stroke: #b0b0b0; stroke-opacity: 0.2; stroke-width: 0.6; stroke-linecap: square"/>
     </g>
     <g id="line2d_24">
      <g>
       <use xlink:href="#m3f1fe05221" x="47.307188" y="217.038716" style="stroke: #000000; stroke-width: 0.8"/>
      </g>
     </g>
     <g id="text_13">
      <!-- 1.5 -->
      <g transform="translate(22.81375 221.217857) scale(0.11 -0.11)">
       <use xlink:href="#DejaVuSans-31"/>
       <use xlink:href="#DejaVuSans-2e" transform="translate(63.623047 0)"/>
       <use xlink:href="#DejaVuSans-35" transform="translate(95.410156 0)"/>
      </g>
     </g>
    </g>
    <g id="ytick_5">
     <g id="line2d_25">
      <path d="M 47.307188 166.804472 
L 705.637188 166.804472 
" clip-path="url(#pa896f4fe45)" style="fill: none; stroke: #b0b0b0; stroke-opacity: 0.2; stroke-width: 0.6; stroke-linecap: square"/>
     </g>
     <g id="line2d_26">
      <g>
       <use xlink:href="#m3f1fe05221" x="47.307188" y="166.804472" style="stroke: #000000; stroke-width: 0.8"/>
      </g>
     </g>
     <g id="text_14">
      <!-- 2.0 -->
      <g transform="translate(22.81375 170.983612) scale(0.11 -0.11)">
       <use xlink:href="#DejaVuSans-32"/>
       <use xlink:href="#DejaVuSans-2e" transform="translate(63.623047 0)"/>
       <use xlink:href="#DejaVuSans-30" transform="translate(95.410156 0)"/>
      </g>
     </g>
    </g>
    <g id="ytick_6">
     <g id="line2d_27">
      <path d="M 47.307188 116.570227 
L 705.637188 116.570227 
" clip-path="url(#pa896f4fe45)" style="fill: none; stroke: #b0b0b0; stroke-opacity: 0.2; stroke-width: 0.6; stroke-linecap: square"/>
     </g>
     <g id="line2d_28">
      <g>
       <use xlink:href="#m3f1fe05221" x="47.307188" y="116.570227" style="stroke: #000000; stroke-width: 0.8"/>
      </g>
     </g>
     <g id="text_15">
      <!-- 2.5 -->
      <g transform="translate(22.81375 120.749368) scale(0.11 -0.11)">
       <use xlink:href="#DejaVuSans-32"/>
       <use xlink:href="#DejaVuSans-2e" transform="translate(63.623047 0)"/>
       <use xlink:href="#DejaVuSans-35" transform="translate(95.410156 0)"/>
      </g>
     </g>
    </g>
    <g id="ytick_7">
     <g id="line2d_29">
      <path d="M 47.307188 66.335983 
L 705.637188 66.335983 
" clip-path="url(#pa896f4fe45)" style="fill: none; stroke: #b0b0b0; stroke-opacity: 0.2; stroke-width: 0.6; stroke-linecap: square"/>
     </g>
     <g id="line2d_30">
      <g>
       <use xlink:href="#m3f1fe05221" x="47.307188" y="66.335983" style="stroke: #000000; stroke-width: 0.8"/>
      </g>
     </g>
     <g id="text_16">
      <!-- 3.0 -->
      <g transform="translate(22.81375 70.515124) scale(0.11 -0.11)">
       <defs>
        <path id="DejaVuSans-33" d="M 2597 2516 
Q 3050 2419 3304 2112 
Q 3559 1806 3559 1356 
Q 3559 666 3084 287 
Q 2609 -91 1734 -91 
Q 1441 -91 1130 -33 
Q 819 25 488 141 
L 488 750 
Q 750 597 1062 519 
Q 1375 441 1716 441 
Q 2309 441 2620 675 
Q 2931 909 2931 1356 
Q 2931 1769 2642 2001 
Q 2353 2234 1838 2234 
L 1294 2234 
L 1294 2753 
L 1863 2753 
Q 2328 2753 2575 2939 
Q 2822 3125 2822 3475 
Q 2822 3834 2567 4026 
Q 2313 4219 1838 4219 
Q 1578 4219 1281 4162 
Q 984 4106 628 3988 
L 628 4550 
Q 988 4650 1302 4700 
Q 1616 4750 1894 4750 
Q 2613 4750 3031 4423 
Q 3450 4097 3450 3541 
Q 3450 3153 3228 2886 
Q 3006 2619 2597 2516 
z
" transform="scale(0.015625)"/>
       </defs>
       <use xlink:href="#DejaVuSans-33"/>
       <use xlink:href="#DejaVuSans-2e" transform="translate(63.623047 0)"/>
       <use xlink:href="#DejaVuSans-30" transform="translate(95.410156 0)"/>
      </g>
     </g>
    </g>
    <g id="text_17">
     <!-- AU mean intensity -->
     <g transform="translate(16.318125 259.314687) rotate(-90) scale(0.12 -0.12)">
      <defs>
       <path id="DejaVuSans-41" d="M 2188 4044 
L 1331 1722 
L 3047 1722 
L 2188 4044 
z
M 1831 4666 
L 2547 4666 
L 4325 0 
L 3669 0 
L 3244 1197 
L 1141 1197 
L 716 0 
L 50 0 
L 1831 4666 
z
" transform="scale(0.015625)"/>
       <path id="DejaVuSans-55" d="M 556 4666 
L 1191 4666 
L 1191 1831 
Q 1191 1081 1462 751 
Q 1734 422 2344 422 
Q 2950 422 3222 751 
Q 3494 1081 3494 1831 
L 3494 4666 
L 4128 4666 
L 4128 1753 
Q 4128 841 3676 375 
Q 3225 -91 2344 -91 
Q 1459 -91 1007 375 
Q 556 841 556 1753 
L 556 4666 
z
" transform="scale(0.015625)"/>
       <path id="DejaVuSans-61" d="M 2194 1759 
Q 1497 1759 1228 1600 
Q 959 1441 959 1056 
Q 959 750 1161 570 
Q 1363 391 1709 391 
Q 2188 391 2477 730 
Q 2766 1069 2766 1631 
L 2766 1759 
L 2194 1759 
z
M 3341 1997 
L 3341 0 
L 2766 0 
L 2766 531 
Q 2569 213 2275 61 
Q 1981 -91 1556 -91 
Q 1019 -91 701 211 
Q 384 513 384 1019 
Q 384 1609 779 1909 
Q 1175 2209 1959 2209 
L 2766 2209 
L 2766 2266 
Q 2766 2663 2505 2880 
Q 2244 3097 1772 3097 
Q 1472 3097 1187 3025 
Q 903 2953 641 2809 
L 641 3341 
Q 956 3463 1253 3523 
Q 1550 3584 1831 3584 
Q 2591 3584 2966 3190 
Q 3341 2797 3341 1997 
z
" transform="scale(0.015625)"/>
       <path id="DejaVuSans-6e" d="M 3513 2113 
L 3513 0 
L 2938 0 
L 2938 2094 
Q 2938 2591 2744 2837 
Q 2550 3084 2163 3084 
Q 1697 3084 1428 2787 
Q 1159 2491 1159 1978 
L 1159 0 
L 581 0 
L 581 3500 
L 1159 3500 
L 1159 2956 
Q 1366 3272 1645 3428 
Q 1925 3584 2291 3584 
Q 2894 3584 3203 3211 
Q 3513 2838 3513 2113 
z
" transform="scale(0.015625)"/>
       <path id="DejaVuSans-74" d="M 1172 4494 
L 1172 3500 
L 2356 3500 
L 2356 3053 
L 1172 3053 
L 1172 1153 
Q 1172 725 1289 603 
Q 1406 481 1766 481 
L 2356 481 
L 2356 0 
L 1766 0 
Q 1100 0 847 248 
Q 594 497 594 1153 
L 594 3053 
L 172 3053 
L 172 3500 
L 594 3500 
L 594 4494 
L 1172 4494 
z
" transform="scale(0.015625)"/>
       <path id="DejaVuSans-79" d="M 2059 -325 
Q 1816 -950 1584 -1140 
Q 1353 -1331 966 -1331 
L 506 -1331 
L 506 -850 
L 844 -850 
Q 1081 -850 1212 -737 
Q 1344 -625 1503 -206 
L 1606 56 
L 191 3500 
L 800 3500 
L 1894 763 
L 2988 3500 
L 3597 3500 
L 2059 -325 
z
" transform="scale(0.015625)"/>
      </defs>
      <use xlink:href="#DejaVuSans-41"/>
      <use xlink:href="#DejaVuSans-55" transform="translate(68.408203 0)"/>
      <use xlink:href="#DejaVuSans-20" transform="translate(141.601562 0)"/>
      <use xlink:href="#DejaVuSans-6d" transform="translate(173.388672 0)"/>
      <use xlink:href="#DejaVuSans-65" transform="translate(270.800781 0)"/>
      <use xlink:href="#DejaVuSans-61" transform="translate(332.324219 0)"/>
      <use xlink:href="#DejaVuSans-6e" transform="translate(393.603516 0)"/>
      <use xlink:href="#DejaVuSans-20" transform="translate(456.982422 0)"/>
      <use xlink:href="#DejaVuSans-69" transform="translate(488.769531 0)"/>
      <use xlink:href="#DejaVuSans-6e" transform="translate(516.552734 0)"/>
      <use xlink:href="#DejaVuSans-74" transform="translate(579.931641 0)"/>
      <use xlink:href="#DejaVuSans-65" transform="translate(619.140625 0)"/>
      <use xlink:href="#DejaVuSans-6e" transform="translate(680.664062 0)"/>
      <use xlink:href="#DejaVuSans-73" transform="translate(744.042969 0)"/>
      <use xlink:href="#DejaVuSans-69" transform="translate(796.142578 0)"/>
      <use xlink:href="#DejaVuSans-74" transform="translate(823.925781 0)"/>
      <use xlink:href="#DejaVuSans-79" transform="translate(863.134766 0)"/>
     </g>
    </g>
   </g>
   <g id="FillBetweenPolyCollection_1">
    <defs>
     <path id="m9f9ac87c64" d="M 47.307188 -111.72716 
L 47.307188 -31.612696 
L 50.790415 8.204148 
L 54.273643 32.817815 
L 57.75687 23.367832 
L 61.240098 22.029315 
L 64.723325 -12.847969 
L 68.206553 -24.374132 
L 71.68978 -22.207943 
L 75.173008 -24.058954 
L 78.656235 -26.444882 
L 82.139463 -25.078943 
L 85.62269 -26.871978 
L 89.105918 -25.07218 
L 92.589145 -27.854624 
L 96.072373 -31.068779 
L 99.5556 -27.820949 
L 103.038828 -27.620481 
L 106.522055 -26.816701 
L 110.005283 -25.620053 
L 113.48851 -28.016566 
L 116.971738 -28.210894 
L 120.454965 -28.644857 
L 123.938193 -32.48992 
L 127.42142 -31.928708 
L 130.904648 -29.980155 
L 134.387875 -30.730512 
L 137.871103 -32.40488 
L 141.35433 -21.644703 
L 144.837558 -19.537731 
L 148.320785 -4.398751 
L 151.804013 -6.647683 
L 155.28724 -8.677016 
L 158.770468 -10.988818 
L 162.253695 -16.713219 
L 165.736923 -25.851422 
L 169.22015 -27.025281 
L 172.703378 -23.480921 
L 176.186605 -24.041313 
L 179.669833 -22.635381 
L 183.153061 -14.462819 
L 186.636288 -1.733044 
L 190.119516 12.364496 
L 193.602743 13.402161 
L 197.085971 4.223966 
L 200.569198 10.749948 
L 204.052426 4.619608 
L 207.535653 -12.839836 
L 211.018881 -12.424697 
L 214.502108 -2.626194 
L 217.985336 0.473649 
L 221.468563 13.069773 
L 224.951791 -2.441978 
L 228.435018 19.959756 
L 231.918246 -2.662183 
L 235.401473 14.524834 
L 238.884701 20.783759 
L 242.367928 3.462807 
L 245.851156 -1.061286 
L 249.334383 16.379649 
L 252.817611 11.243066 
L 256.300838 35.268054 
L 259.784066 19.301344 
L 263.267293 -10.282259 
L 266.750521 18.027895 
L 270.233748 10.456567 
L 273.716976 16.228214 
L 277.200203 40.679088 
L 280.683431 22.43103 
L 284.166658 -9.079442 
L 287.649886 -18.409855 
L 291.133113 -20.476744 
L 294.616341 -22.800393 
L 298.099568 -29.215939 
L 301.582796 -26.042652 
L 305.066023 -1.264487 
L 308.549251 -9.373738 
L 312.032479 -11.58707 
L 315.515706 -7.018606 
L 318.998934 -3.143614 
L 322.482161 -11.297664 
L 325.965389 -18.506625 
L 329.448616 -17.500026 
L 332.931844 -16.399745 
L 336.415071 -17.36889 
L 339.898299 -26.10416 
L 343.381526 -0.913621 
L 346.864754 -13.332529 
L 350.347981 -26.431916 
L 353.831209 -23.60491 
L 357.314436 -17.319639 
L 360.797664 7.798177 
L 364.280891 -1.513931 
L 367.764119 -10.828727 
L 371.247346 -18.51379 
L 374.730574 -24.381082 
L 378.213801 -27.656049 
L 381.697029 -25.40906 
L 385.180256 -11.611094 
L 388.663484 -11.968968 
L 392.146711 -3.056235 
L 395.629939 -7.312109 
L 399.113166 -7.753998 
L 402.596394 -20.508624 
L 406.079621 -35.237957 
L 409.562849 -25.612434 
L 413.046076 -13.766435 
L 416.529304 -10.380684 
L 420.012531 -2.403485 
L 423.495759 5.205429 
L 426.978986 -12.610375 
L 430.462214 -23.028337 
L 433.945441 -19.110346 
L 437.428669 -19.330862 
L 440.911896 -17.030307 
L 444.395124 -18.034651 
L 447.878352 -18.481679 
L 451.361579 3.339269 
L 454.844807 19.421472 
L 458.328034 -3.92455 
L 461.811262 -8.835814 
L 465.294489 6.717374 
L 468.777717 3.779075 
L 472.260944 27.267993 
L 475.744172 51.062429 
L 479.227399 28.120145 
L 482.710627 0.423109 
L 486.193854 10.877759 
L 489.677082 2.790349 
L 493.160309 -27.381289 
L 496.643537 -23.05177 
L 500.126764 -22.387063 
L 503.609992 -15.501114 
L 507.093219 -13.647348 
L 510.576447 -11.083176 
L 514.059674 -16.563918 
L 517.542902 -15.214171 
L 521.026129 -18.771961 
L 524.509357 -19.792167 
L 527.992584 -25.942628 
L 531.475812 -26.696146 
L 534.959039 -24.026385 
L 538.442267 -22.329845 
L 541.925494 -18.434015 
L 545.408722 -20.790484 
L 548.891949 -23.618311 
L 552.375177 -24.520876 
L 555.858404 -28.480589 
L 559.341632 -27.959546 
L 562.824859 -26.873255 
L 566.308087 -23.474886 
L 569.791314 -24.894615 
L 573.274542 -21.380815 
L 576.75777 -23.48507 
L 580.240997 -24.771013 
L 583.724225 -16.616231 
L 587.207452 1.02396 
L 590.69068 -4.838586 
L 594.173907 -14.145957 
L 597.657135 -17.081541 
L 601.140362 7.388112 
L 604.62359 9.303034 
L 608.106817 17.97358 
L 611.590045 27.814155 
L 615.073272 7.73781 
L 618.5565 16.824332 
L 622.039727 24.838374 
L 625.522955 6.832296 
L 629.006182 3.509798 
L 632.48941 -0.640281 
L 635.972637 -11.661981 
L 639.455865 15.765171 
L 642.939092 -0.925184 
L 646.42232 -13.37489 
L 649.905547 -0.124515 
L 653.388775 5.056198 
L 656.872002 4.879099 
L 660.35523 6.570076 
L 663.838457 6.530714 
L 667.321685 5.28041 
L 670.804912 -14.858701 
L 674.28814 -26.785769 
L 677.771367 -31.193539 
L 681.254595 -30.841262 
L 684.737822 12.574494 
L 688.22105 -5.004118 
L 691.704277 -17.180794 
L 695.187505 -25.657737 
L 698.670732 -22.987783 
L 702.15396 -25.263877 
L 705.637188 -28.111035 
L 705.637188 -185.229529 
L 705.637188 -185.229529 
L 702.15396 -206.462439 
L 698.670732 -220.352629 
L 695.187505 -211.229119 
L 691.704277 -225.572385 
L 688.22105 -239.589286 
L 684.737822 -260.446412 
L 681.254595 -194.440465 
L 677.771367 -197.42022 
L 674.28814 -227.25816 
L 670.804912 -257.655508 
L 667.321685 -306.132742 
L 663.838457 -272.603121 
L 660.35523 -246.432125 
L 656.872002 -239.582105 
L 653.388775 -253.287444 
L 649.905547 -223.712405 
L 646.42232 -199.810583 
L 642.939092 -225.703661 
L 639.455865 -265.544432 
L 635.972637 -212.346123 
L 632.48941 -224.374547 
L 629.006182 -235.514623 
L 625.522955 -245.50855 
L 622.039727 -258.795508 
L 618.5565 -261.96336 
L 615.073272 -249.330957 
L 611.590045 -274.137071 
L 608.106817 -278.639436 
L 604.62359 -254.262858 
L 601.140362 -237.483425 
L 597.657135 -198.734796 
L 594.173907 -220.404207 
L 590.69068 -231.732977 
L 587.207452 -243.768521 
L 583.724225 -207.302403 
L 580.240997 -171.878279 
L 576.75777 -159.451991 
L 573.274542 -157.127088 
L 569.791314 -155.826382 
L 566.308087 -162.49377 
L 562.824859 -152.620005 
L 559.341632 -159.851372 
L 555.858404 -153.761734 
L 552.375177 -160.722288 
L 548.891949 -157.964389 
L 545.408722 -162.484067 
L 541.925494 -177.650844 
L 538.442267 -170.606392 
L 534.959039 -167.620322 
L 531.475812 -169.384571 
L 527.992584 -175.13134 
L 524.509357 -189.475804 
L 521.026129 -197.227392 
L 517.542902 -194.355409 
L 514.059674 -186.77488 
L 510.576447 -190.265514 
L 507.093219 -183.682406 
L 503.609992 -187.498275 
L 500.126764 -184.244128 
L 496.643537 -181.32524 
L 493.160309 -187.183034 
L 489.677082 -246.267333 
L 486.193854 -254.094317 
L 482.710627 -247.458434 
L 479.227399 -275.626244 
L 475.744172 -304.796922 
L 472.260944 -272.601749 
L 468.777717 -228.165021 
L 465.294489 -232.18943 
L 461.811262 -201.516953 
L 458.328034 -191.243985 
L 454.844807 -244.119357 
L 451.361579 -212.734449 
L 447.878352 -182.616239 
L 444.395124 -181.538009 
L 440.911896 -184.320808 
L 437.428669 -177.576699 
L 433.945441 -190.282299 
L 430.462214 -169.220093 
L 426.978986 -188.5159 
L 423.495759 -225.709663 
L 420.012531 -222.841304 
L 416.529304 -195.749271 
L 413.046076 -199.671282 
L 409.562849 -190.366883 
L 406.079621 -178.4327 
L 402.596394 -192.084675 
L 399.113166 -231.939214 
L 395.629939 -209.589448 
L 392.146711 -208.64759 
L 388.663484 -194.778369 
L 385.180256 -197.418973 
L 381.697029 -182.252847 
L 378.213801 -182.451623 
L 374.730574 -193.291245 
L 371.247346 -207.23122 
L 367.764119 -216.150356 
L 364.280891 -205.593866 
L 360.797664 -210.152894 
L 357.314436 -175.242508 
L 353.831209 -163.658443 
L 350.347981 -158.214287 
L 346.864754 -174.565463 
L 343.381526 -194.579533 
L 339.898299 -155.907606 
L 336.415071 -172.126538 
L 332.931844 -170.815675 
L 329.448616 -170.699034 
L 325.965389 -166.96977 
L 322.482161 -172.481592 
L 318.998934 -189.90818 
L 315.515706 -194.269715 
L 312.032479 -178.504356 
L 308.549251 -186.55694 
L 305.066023 -192.884025 
L 301.582796 -160.922833 
L 298.099568 -174.381213 
L 294.616341 -203.661767 
L 291.133113 -209.733053 
L 287.649886 -213.168906 
L 284.166658 -214.997015 
L 280.683431 -272.196158 
L 277.200203 -288.157297 
L 273.716976 -234.813466 
L 270.233748 -212.056708 
L 266.750521 -221.624389 
L 263.267293 -177.347614 
L 259.784066 -208.579551 
L 256.300838 -241.432171 
L 252.817611 -201.587094 
L 249.334383 -207.427739 
L 245.851156 -191.161686 
L 242.367928 -208.547889 
L 238.884701 -237.638833 
L 235.401473 -214.971589 
L 231.918246 -190.748885 
L 228.435018 -230.697382 
L 224.951791 -185.163113 
L 221.468563 -207.307308 
L 217.985336 -201.814188 
L 214.502108 -187.537316 
L 211.018881 -171.976814 
L 207.535653 -177.933729 
L 204.052426 -204.280917 
L 200.569198 -223.045122 
L 197.085971 -207.486245 
L 193.602743 -214.136786 
L 190.119516 -211.086333 
L 186.636288 -191.364451 
L 183.153061 -172.376021 
L 179.669833 -156.440373 
L 176.186605 -152.226937 
L 172.703378 -150.853559 
L 169.22015 -144.720868 
L 165.736923 -149.253252 
L 162.253695 -155.165394 
L 158.770468 -165.944116 
L 155.28724 -179.541482 
L 151.804013 -213.240773 
L 148.320785 -212.941344 
L 144.837558 -149.247152 
L 141.35433 -137.02424 
L 137.871103 -120.424373 
L 134.387875 -119.159156 
L 130.904648 -120.779499 
L 127.42142 -118.488776 
L 123.938193 -119.394523 
L 120.454965 -126.476101 
L 116.971738 -117.496739 
L 113.48851 -116.802806 
L 110.005283 -122.823297 
L 106.522055 -123.380689 
L 103.038828 -122.918028 
L 99.5556 -124.501972 
L 96.072373 -121.013933 
L 92.589145 -127.472162 
L 89.105918 -127.15542 
L 85.62269 -122.824089 
L 82.139463 -132.07104 
L 78.656235 -131.449659 
L 75.173008 -134.040428 
L 71.68978 -133.24723 
L 68.206553 -137.885065 
L 64.723325 -167.842525 
L 61.240098 -236.29573 
L 57.75687 -257.33108 
L 54.273643 -274.469995 
L 50.790415 -202.422225 
L 47.307188 -111.72716 
z
" style="stroke: #d3d3d3; stroke-opacity: 0.5"/>
    </defs>
    <g clip-path="url(#pa896f4fe45)">
     <use xlink:href="#m9f9ac87c64" x="0" y="424.5775" style="fill: #d3d3d3; fill-opacity: 0.5; stroke: #d3d3d3; stroke-opacity: 0.5"/>
    </g>
   </g>
   <g id="FillBetweenPolyCollection_2">
    <defs>
     <path id="m34f0e299cd" d="M 47.307188 -91.698544 
L 47.307188 -51.641312 
L 50.790415 -44.452445 
L 54.273643 -44.004138 
L 57.75687 -46.806896 
L 61.240098 -42.551946 
L 64.723325 -51.596608 
L 68.206553 -52.751865 
L 71.68978 -49.967765 
L 75.173008 -51.554323 
L 78.656235 -52.696076 
L 82.139463 -51.826968 
L 85.62269 -50.860006 
L 89.105918 -50.59299 
L 92.589145 -52.759008 
L 96.072373 -53.555067 
L 99.5556 -51.991205 
L 103.038828 -51.444868 
L 106.522055 -50.957698 
L 110.005283 -49.920864 
L 113.48851 -50.213126 
L 116.971738 -50.532355 
L 120.454965 -53.102668 
L 123.938193 -54.216071 
L 127.42142 -53.568725 
L 130.904648 -52.679991 
L 134.387875 -52.837673 
L 137.871103 -54.409753 
L 141.35433 -50.489587 
L 144.837558 -51.965086 
L 148.320785 -56.534399 
L 151.804013 -58.295955 
L 155.28724 -51.393133 
L 158.770468 -49.727643 
L 162.253695 -51.326263 
L 165.736923 -56.70188 
L 169.22015 -56.449178 
L 172.703378 -55.324081 
L 176.186605 -56.087719 
L 179.669833 -56.086629 
L 183.153061 -53.941119 
L 186.636288 -49.140895 
L 190.119516 -43.498211 
L 193.602743 -43.482576 
L 197.085971 -48.703587 
L 200.569198 -47.698819 
L 204.052426 -47.605523 
L 207.535653 -54.113309 
L 211.018881 -52.312726 
L 214.502108 -48.853974 
L 217.985336 -50.09831 
L 221.468563 -42.024498 
L 224.951791 -48.122261 
L 228.435018 -42.704529 
L 231.918246 -49.683859 
L 235.401473 -42.849272 
L 238.884701 -43.821889 
L 242.367928 -49.539867 
L 245.851156 -48.586386 
L 249.334383 -39.572198 
L 252.817611 -41.964474 
L 256.300838 -33.907002 
L 259.784066 -37.668879 
L 263.267293 -52.048598 
L 266.750521 -41.885176 
L 270.233748 -45.171752 
L 273.716976 -46.532206 
L 277.200203 -41.530008 
L 280.683431 -51.225767 
L 284.166658 -60.558835 
L 287.649886 -67.099618 
L 291.133113 -67.790821 
L 294.616341 -68.015736 
L 298.099568 -65.507257 
L 301.582796 -59.762697 
L 305.066023 -49.169372 
L 308.549251 -53.669538 
L 312.032479 -53.316392 
L 315.515706 -53.831383 
L 318.998934 -49.834756 
L 322.482161 -51.593646 
L 325.965389 -55.622411 
L 329.448616 -55.799778 
L 332.931844 -55.003727 
L 336.415071 -56.058302 
L 339.898299 -58.555021 
L 343.381526 -49.330099 
L 346.864754 -53.640762 
L 350.347981 -59.377508 
L 353.831209 -58.618293 
L 357.314436 -56.800356 
L 360.797664 -46.689591 
L 364.280891 -52.533915 
L 367.764119 -62.159134 
L 371.247346 -65.693148 
L 374.730574 -66.608623 
L 378.213801 -66.354943 
L 381.697029 -64.620007 
L 385.180256 -58.063064 
L 388.663484 -57.671318 
L 392.146711 -54.454074 
L 395.629939 -57.881444 
L 399.113166 -63.800302 
L 402.596394 -63.402637 
L 406.079621 -71.036643 
L 409.562849 -66.801046 
L 413.046076 -60.242647 
L 416.529304 -56.72283 
L 420.012531 -57.51294 
L 423.495759 -52.523344 
L 426.978986 -56.586756 
L 430.462214 -59.576276 
L 433.945441 -61.903334 
L 437.428669 -58.892321 
L 440.911896 -58.852932 
L 444.395124 -58.910491 
L 447.878352 -59.515319 
L 451.361579 -50.679161 
L 454.844807 -46.463735 
L 458.328034 -50.754409 
L 461.811262 -57.006099 
L 465.294489 -53.009327 
L 468.777717 -54.206949 
L 472.260944 -47.699442 
L 475.744172 -37.902409 
L 479.227399 -47.816452 
L 482.710627 -61.547276 
L 486.193854 -55.36526 
L 489.677082 -59.474072 
L 493.160309 -67.331725 
L 496.643537 -62.620138 
L 500.126764 -62.851329 
L 503.609992 -58.500405 
L 507.093219 -56.156112 
L 510.576447 -55.87876 
L 514.059674 -59.116659 
L 517.542902 -59.999481 
L 521.026129 -63.385819 
L 524.509357 -62.213076 
L 527.992584 -63.239806 
L 531.475812 -62.368253 
L 534.959039 -59.924869 
L 538.442267 -59.398982 
L 541.925494 -58.238222 
L 545.408722 -56.21388 
L 548.891949 -57.20483 
L 552.375177 -58.571229 
L 555.858404 -59.800875 
L 559.341632 -60.932502 
L 562.824859 -58.309943 
L 566.308087 -58.229607 
L 569.791314 -57.627557 
L 573.274542 -55.317383 
L 576.75777 -57.4768 
L 580.240997 -61.547829 
L 583.724225 -64.287774 
L 587.207452 -60.17416 
L 590.69068 -61.562184 
L 594.173907 -65.710519 
L 597.657135 -62.494855 
L 601.140362 -53.829772 
L 604.62359 -56.588439 
L 608.106817 -56.179674 
L 611.590045 -47.673652 
L 615.073272 -56.529382 
L 618.5565 -52.872591 
L 622.039727 -46.070096 
L 625.522955 -56.252915 
L 629.006182 -56.246308 
L 632.48941 -56.573847 
L 635.972637 -61.833017 
L 639.455865 -54.56223 
L 642.939092 -57.119803 
L 646.42232 -59.983813 
L 649.905547 -56.021488 
L 653.388775 -59.529712 
L 656.872002 -56.236202 
L 660.35523 -56.680474 
L 663.838457 -63.252744 
L 667.321685 -72.572878 
L 670.804912 -75.557903 
L 674.28814 -76.903867 
L 677.771367 -72.750209 
L 681.254595 -71.741062 
L 684.737822 -55.680732 
L 688.22105 -63.65041 
L 691.704277 -69.278692 
L 695.187505 -72.050583 
L 698.670732 -72.328994 
L 702.15396 -70.563517 
L 705.637188 -67.390658 
L 705.637188 -145.949906 
L 705.637188 -145.949906 
L 702.15396 -161.162798 
L 698.670732 -171.011417 
L 695.187505 -164.836273 
L 691.704277 -173.474488 
L 688.22105 -180.942994 
L 684.737822 -192.191186 
L 681.254595 -153.540664 
L 677.771367 -155.86355 
L 674.28814 -177.140063 
L 670.804912 -196.956306 
L 667.321685 -228.279454 
L 663.838457 -202.819662 
L 660.35523 -183.181575 
L 656.872002 -178.466804 
L 653.388775 -188.701533 
L 649.905547 -167.815433 
L 646.42232 -153.20166 
L 642.939092 -169.509041 
L 639.455865 -195.217031 
L 635.972637 -162.175088 
L 632.48941 -168.44098 
L 629.006182 -175.758518 
L 625.522955 -182.423339 
L 622.039727 -187.887038 
L 618.5565 -192.266437 
L 615.073272 -185.063765 
L 611.590045 -198.649265 
L 608.106817 -204.486182 
L 604.62359 -188.371385 
L 601.140362 -176.265541 
L 597.657135 -153.321482 
L 594.173907 -168.839644 
L 590.69068 -175.009379 
L 587.207452 -182.5704 
L 583.724225 -159.63086 
L 580.240997 -135.101463 
L 576.75777 -125.46026 
L 573.274542 -123.19052 
L 569.791314 -123.09344 
L 566.308087 -127.739049 
L 562.824859 -121.183318 
L 559.341632 -126.878416 
L 555.858404 -122.441447 
L 552.375177 -126.671935 
L 548.891949 -124.37787 
L 545.408722 -127.060672 
L 541.925494 -137.846637 
L 538.442267 -133.537256 
L 534.959039 -131.721838 
L 531.475812 -133.712465 
L 527.992584 -137.834162 
L 524.509357 -147.054895 
L 521.026129 -152.613534 
L 517.542902 -149.5701 
L 514.059674 -144.22214 
L 510.576447 -145.46993 
L 507.093219 -141.173641 
L 503.609992 -144.498985 
L 500.126764 -143.779862 
L 496.643537 -141.756873 
L 493.160309 -147.232597 
L 489.677082 -184.002913 
L 486.193854 -187.851298 
L 482.710627 -185.488048 
L 479.227399 -199.689647 
L 475.744172 -215.832084 
L 472.260944 -197.634314 
L 468.777717 -170.178997 
L 465.294489 -172.462729 
L 461.811262 -153.346668 
L 458.328034 -144.414127 
L 454.844807 -178.234149 
L 451.361579 -158.71602 
L 447.878352 -141.582599 
L 444.395124 -140.662169 
L 440.911896 -142.498182 
L 437.428669 -138.015239 
L 433.945441 -147.48931 
L 430.462214 -132.672154 
L 426.978986 -144.539519 
L 423.495759 -167.98089 
L 420.012531 -167.73185 
L 416.529304 -149.407124 
L 413.046076 -153.19507 
L 409.562849 -149.178271 
L 406.079621 -142.634014 
L 402.596394 -149.190663 
L 399.113166 -175.89291 
L 395.629939 -159.020113 
L 392.146711 -157.249751 
L 388.663484 -149.076019 
L 385.180256 -150.967003 
L 381.697029 -143.0419 
L 378.213801 -143.75273 
L 374.730574 -151.063704 
L 371.247346 -160.051863 
L 367.764119 -164.819949 
L 364.280891 -154.573882 
L 360.797664 -155.665126 
L 357.314436 -135.761791 
L 353.831209 -128.64506 
L 350.347981 -125.268694 
L 346.864754 -134.257229 
L 343.381526 -146.163055 
L 339.898299 -123.456744 
L 336.415071 -133.437126 
L 332.931844 -132.211692 
L 329.448616 -132.399282 
L 325.965389 -129.853983 
L 322.482161 -132.18561 
L 318.998934 -143.217039 
L 315.515706 -147.456938 
L 312.032479 -136.775034 
L 308.549251 -142.261139 
L 305.066023 -144.97914 
L 301.582796 -127.202788 
L 298.099568 -138.089894 
L 294.616341 -158.446423 
L 291.133113 -162.418976 
L 287.649886 -164.479143 
L 284.166658 -163.517622 
L 280.683431 -198.539361 
L 277.200203 -205.9482 
L 273.716976 -172.053046 
L 270.233748 -156.428389 
L 266.750521 -161.711318 
L 263.267293 -135.581275 
L 259.784066 -151.609327 
L 256.300838 -172.257115 
L 252.817611 -148.379554 
L 249.334383 -151.475892 
L 245.851156 -143.636586 
L 242.367928 -155.545215 
L 238.884701 -173.033185 
L 235.401473 -157.597483 
L 231.918246 -143.72721 
L 228.435018 -168.033097 
L 224.951791 -139.482829 
L 221.468563 -152.213038 
L 217.985336 -151.242229 
L 214.502108 -141.309535 
L 211.018881 -132.088784 
L 207.535653 -136.660256 
L 204.052426 -152.055786 
L 200.569198 -164.596354 
L 197.085971 -154.558692 
L 193.602743 -157.252049 
L 190.119516 -155.223625 
L 186.636288 -143.956599 
L 183.153061 -132.89772 
L 179.669833 -122.989125 
L 176.186605 -120.180531 
L 172.703378 -119.010399 
L 169.22015 -115.296971 
L 165.736923 -118.402795 
L 162.253695 -120.55235 
L 158.770468 -127.205292 
L 155.28724 -136.825365 
L 151.804013 -161.592501 
L 148.320785 -160.805696 
L 144.837558 -116.819797 
L 141.35433 -108.179356 
L 137.871103 -98.4195 
L 134.387875 -97.051995 
L 130.904648 -98.079663 
L 127.42142 -96.848759 
L 123.938193 -97.668372 
L 120.454965 -102.01829 
L 116.971738 -95.175278 
L 113.48851 -94.606246 
L 110.005283 -98.522486 
L 106.522055 -99.239692 
L 103.038828 -99.093641 
L 99.5556 -100.331716 
L 96.072373 -98.527644 
L 92.589145 -102.567778 
L 89.105918 -101.63461 
L 85.62269 -98.836062 
L 82.139463 -105.323016 
L 78.656235 -105.198464 
L 75.173008 -106.54506 
L 71.68978 -105.487409 
L 68.206553 -109.507332 
L 64.723325 -129.093886 
L 61.240098 -171.714469 
L 57.75687 -187.156352 
L 54.273643 -197.648043 
L 50.790415 -149.765632 
L 47.307188 -91.698544 
z
" style="stroke: #808080; stroke-opacity: 0.7"/>
    </defs>
    <g clip-path="url(#pa896f4fe45)">
     <use xlink:href="#m34f0e299cd" x="0" y="424.5775" style="fill: #808080; fill-opacity: 0.7; stroke: #808080; stroke-opacity: 0.7"/>
    </g>
   </g>
   <g id="line2d_31">
    <path d="M 47.307188 367.741449 
L 50.790415 338.647771 
L 54.273643 354.760779 
L 57.75687 346.94757 
L 61.240098 367.741449 
L 144.837558 367.741449 
L 148.320785 366.616513 
L 151.804013 367.741449 
L 186.636288 367.741449 
L 190.119516 367.554114 
L 193.602743 348.399156 
L 197.085971 356.82489 
L 200.569198 367.741449 
L 204.052426 367.741449 
L 207.535653 367.173443 
L 211.018881 367.741449 
L 242.367928 367.741449 
L 245.851156 367.444558 
L 249.334383 361.593836 
L 252.817611 367.602582 
L 256.300838 367.741449 
L 287.649886 367.741449 
L 291.133113 364.39998 
L 294.616341 364.995345 
L 298.099568 367.741449 
L 308.549251 367.741449 
L 312.032479 363.995428 
L 315.515706 364.815324 
L 318.998934 367.245143 
L 322.482161 367.691894 
L 332.931844 367.741449 
L 336.415071 367.496495 
L 339.898299 367.741449 
L 367.764119 367.741449 
L 371.247346 367.609093 
L 374.730574 348.666791 
L 378.213801 337.633614 
L 381.697029 345.230605 
L 385.180256 361.893248 
L 388.663484 363.619132 
L 392.146711 356.873645 
L 395.629939 342.230117 
L 399.113166 304.219385 
L 402.596394 315.728162 
L 406.079621 192.94083 
L 409.562849 283.279835 
L 413.046076 297.163183 
L 416.529304 296.666547 
L 420.012531 305.215429 
L 423.495759 322.397349 
L 426.978986 337.491671 
L 430.462214 317.823956 
L 433.945441 324.291091 
L 437.428669 288.935668 
L 440.911896 322.923258 
L 444.395124 323.761365 
L 447.878352 312.439472 
L 451.361579 315.586256 
L 454.844807 304.065042 
L 458.328034 282.706719 
L 461.811262 267.874074 
L 465.294489 224.798774 
L 468.777717 294.294924 
L 472.260944 319.364761 
L 475.744172 316.587172 
L 479.227399 331.400109 
L 482.710627 281.129704 
L 486.193854 218.017125 
L 489.677082 293.016294 
L 493.160309 302.741361 
L 496.643537 317.702934 
L 500.126764 285.719341 
L 503.609992 326.190078 
L 507.093219 347.596959 
L 510.576447 347.965903 
L 514.059674 347.243735 
L 517.542902 338.800565 
L 521.026129 246.294171 
L 524.509357 222.701366 
L 527.992584 210.248463 
L 531.475812 202.275624 
L 534.959039 236.070448 
L 538.442267 271.933616 
L 541.925494 312.343605 
L 545.408722 252.824214 
L 548.891949 264.811845 
L 552.375177 297.523302 
L 555.858404 296.041307 
L 559.341632 291.777077 
L 562.824859 287.953865 
L 566.308087 310.135977 
L 569.791314 326.15329 
L 573.274542 323.37968 
L 576.75777 325.635845 
L 580.240997 313.302903 
L 583.724225 304.394342 
L 587.207452 314.880524 
L 590.69068 320.408062 
L 594.173907 304.835087 
L 597.657135 321.884095 
L 601.140362 241.318037 
L 604.62359 151.76753 
L 608.106817 208.71686 
L 611.590045 115.414042 
L 615.073272 216.074827 
L 618.5565 164.70018 
L 622.039727 230.965122 
L 625.522955 203.275365 
L 629.006182 233.823172 
L 632.48941 298.57537 
L 635.972637 288.959939 
L 639.455865 296.415349 
L 642.939092 225.473226 
L 646.42232 227.218113 
L 649.905547 266.374616 
L 653.388775 252.869131 
L 656.872002 131.321488 
L 660.35523 205.935319 
L 663.838457 245.350194 
L 667.321685 243.340257 
L 670.804912 229.798469 
L 674.28814 211.100351 
L 677.771367 189.893182 
L 681.254595 208.628392 
L 684.737822 210.32877 
L 688.22105 246.117237 
L 691.704277 264.737927 
L 695.187505 273.003058 
L 698.670732 292.442822 
L 702.15396 307.210031 
L 705.637188 282.471534 
L 705.637188 282.471534 
" clip-path="url(#pa896f4fe45)" style="fill: none; stroke: #ff8c00; stroke-width: 2.3; stroke-linecap: square"/>
   </g>
   <g id="line2d_32">
    <path d="M 284.166658 384.117812 
L 284.166658 23.837812 
" clip-path="url(#pa896f4fe45)" style="fill: none; stroke-dasharray: 5.55,2.4; stroke-dashoffset: 0; stroke: #808080; stroke-width: 1.5"/>
   </g>
   <g id="line2d_33">
    <path d="M 486.193854 384.117812 
L 486.193854 23.837812 
" clip-path="url(#pa896f4fe45)" style="fill: none; stroke-dasharray: 5.55,2.4; stroke-dashoffset: 0; stroke: #808080; stroke-width: 1.5"/>
   </g>
   <g id="patch_3">
    <path d="M 47.307188 384.117812 
L 47.307188 23.837812 
" style="fill: none; stroke: #000000; stroke-width: 0.8; stroke-linejoin: miter; stroke-linecap: square"/>
   </g>
   <g id="patch_4">
    <path d="M 705.637188 384.117812 
L 705.637188 23.837812 
" style="fill: none; stroke: #000000; stroke-width: 0.8; stroke-linejoin: miter; stroke-linecap: square"/>
   </g>
   <g id="patch_5">
    <path d="M 47.307188 384.117812 
L 705.637188 384.117812 
" style="fill: none; stroke: #000000; stroke-width: 0.8; stroke-linejoin: miter; stroke-linecap: square"/>
   </g>
   <g id="patch_6">
    <path d="M 47.307188 23.837812 
L 705.637188 23.837812 
" style="fill: none; stroke: #000000; stroke-width: 0.8; stroke-linejoin: miter; stroke-linecap: square"/>
   </g>
   <g id="text_18">
    <!-- Facial trace: Depressive disorder (MDD/DD) (female) -->
    <g transform="translate(192.645625 17.837812) scale(0.14 -0.14)">
     <defs>
      <path id="DejaVuSans-46" d="M 628 4666 
L 3309 4666 
L 3309 4134 
L 1259 4134 
L 1259 2759 
L 3109 2759 
L 3109 2228 
L 1259 2228 
L 1259 0 
L 628 0 
L 628 4666 
z
" transform="scale(0.015625)"/>
      <path id="DejaVuSans-63" d="M 3122 3366 
L 3122 2828 
Q 2878 2963 2633 3030 
Q 2388 3097 2138 3097 
Q 1578 3097 1268 2742 
Q 959 2388 959 1747 
Q 959 1106 1268 751 
Q 1578 397 2138 397 
Q 2388 397 2633 464 
Q 2878 531 3122 666 
L 3122 134 
Q 2881 22 2623 -34 
Q 2366 -91 2075 -91 
Q 1284 -91 818 406 
Q 353 903 353 1747 
Q 353 2603 823 3093 
Q 1294 3584 2113 3584 
Q 2378 3584 2631 3529 
Q 2884 3475 3122 3366 
z
" transform="scale(0.015625)"/>
      <path id="DejaVuSans-6c" d="M 603 4863 
L 1178 4863 
L 1178 0 
L 603 0 
L 603 4863 
z
" transform="scale(0.015625)"/>
      <path id="DejaVuSans-72" d="M 2631 2963 
Q 2534 3019 2420 3045 
Q 2306 3072 2169 3072 
Q 1681 3072 1420 2755 
Q 1159 2438 1159 1844 
L 1159 0 
L 581 0 
L 581 3500 
L 1159 3500 
L 1159 2956 
Q 1341 3275 1631 3429 
Q 1922 3584 2338 3584 
Q 2397 3584 2469 3576 
Q 2541 3569 2628 3553 
L 2631 2963 
z
" transform="scale(0.015625)"/>
      <path id="DejaVuSans-3a" d="M 750 794 
L 1409 794 
L 1409 0 
L 750 0 
L 750 794 
z
M 750 3309 
L 1409 3309 
L 1409 2516 
L 750 2516 
L 750 3309 
z
" transform="scale(0.015625)"/>
      <path id="DejaVuSans-44" d="M 1259 4147 
L 1259 519 
L 2022 519 
Q 2988 519 3436 956 
Q 3884 1394 3884 2338 
Q 3884 3275 3436 3711 
Q 2988 4147 2022 4147 
L 1259 4147 
z
M 628 4666 
L 1925 4666 
Q 3281 4666 3915 4102 
Q 4550 3538 4550 2338 
Q 4550 1131 3912 565 
Q 3275 0 1925 0 
L 628 0 
L 628 4666 
z
" transform="scale(0.015625)"/>
      <path id="DejaVuSans-70" d="M 1159 525 
L 1159 -1331 
L 581 -1331 
L 581 3500 
L 1159 3500 
L 1159 2969 
Q 1341 3281 1617 3432 
Q 1894 3584 2278 3584 
Q 2916 3584 3314 3078 
Q 3713 2572 3713 1747 
Q 3713 922 3314 415 
Q 2916 -91 2278 -91 
Q 1894 -91 1617 61 
Q 1341 213 1159 525 
z
M 3116 1747 
Q 3116 2381 2855 2742 
Q 2594 3103 2138 3103 
Q 1681 3103 1420 2742 
Q 1159 2381 1159 1747 
Q 1159 1113 1420 752 
Q 1681 391 2138 391 
Q 2594 391 2855 752 
Q 3116 1113 3116 1747 
z
" transform="scale(0.015625)"/>
      <path id="DejaVuSans-76" d="M 191 3500 
L 800 3500 
L 1894 563 
L 2988 3500 
L 3597 3500 
L 2284 0 
L 1503 0 
L 191 3500 
z
" transform="scale(0.015625)"/>
      <path id="DejaVuSans-64" d="M 2906 2969 
L 2906 4863 
L 3481 4863 
L 3481 0 
L 2906 0 
L 2906 525 
Q 2725 213 2448 61 
Q 2172 -91 1784 -91 
Q 1150 -91 751 415 
Q 353 922 353 1747 
Q 353 2572 751 3078 
Q 1150 3584 1784 3584 
Q 2172 3584 2448 3432 
Q 2725 3281 2906 2969 
z
M 947 1747 
Q 947 1113 1208 752 
Q 1469 391 1925 391 
Q 2381 391 2643 752 
Q 2906 1113 2906 1747 
Q 2906 2381 2643 2742 
Q 2381 3103 1925 3103 
Q 1469 3103 1208 2742 
Q 947 2381 947 1747 
z
" transform="scale(0.015625)"/>
      <path id="DejaVuSans-6f" d="M 1959 3097 
Q 1497 3097 1228 2736 
Q 959 2375 959 1747 
Q 959 1119 1226 758 
Q 1494 397 1959 397 
Q 2419 397 2687 759 
Q 2956 1122 2956 1747 
Q 2956 2369 2687 2733 
Q 2419 3097 1959 3097 
z
M 1959 3584 
Q 2709 3584 3137 3096 
Q 3566 2609 3566 1747 
Q 3566 888 3137 398 
Q 2709 -91 1959 -91 
Q 1206 -91 779 398 
Q 353 888 353 1747 
Q 353 2609 779 3096 
Q 1206 3584 1959 3584 
z
" transform="scale(0.015625)"/>
      <path id="DejaVuSans-4d" d="M 628 4666 
L 1569 4666 
L 2759 1491 
L 3956 4666 
L 4897 4666 
L 4897 0 
L 4281 0 
L 4281 4097 
L 3078 897 
L 2444 897 
L 1241 4097 
L 1241 0 
L 628 0 
L 628 4666 
z
" transform="scale(0.015625)"/>
      <path id="DejaVuSans-2f" d="M 1625 4666 
L 2156 4666 
L 531 -594 
L 0 -594 
L 1625 4666 
z
" transform="scale(0.015625)"/>
      <path id="DejaVuSans-66" d="M 2375 4863 
L 2375 4384 
L 1825 4384 
Q 1516 4384 1395 4259 
Q 1275 4134 1275 3809 
L 1275 3500 
L 2222 3500 
L 2222 3053 
L 1275 3053 
L 1275 0 
L 697 0 
L 697 3053 
L 147 3053 
L 147 3500 
L 697 3500 
L 697 3744 
Q 697 4328 969 4595 
Q 1241 4863 1831 4863 
L 2375 4863 
z
" transform="scale(0.015625)"/>
     </defs>
     <use xlink:href="#DejaVuSans-46"/>
     <use xlink:href="#DejaVuSans-61" transform="translate(48.394531 0)"/>
     <use xlink:href="#DejaVuSans-63" transform="translate(109.673828 0)"/>
     <use xlink:href="#DejaVuSans-69" transform="translate(164.654297 0)"/>
     <use xlink:href="#DejaVuSans-61" transform="translate(192.4375 0)"/>
     <use xlink:href="#DejaVuSans-6c" transform="translate(253.716797 0)"/>
     <use xlink:href="#DejaVuSans-20" transform="translate(281.5 0)"/>
     <use xlink:href="#DejaVuSans-74" transform="translate(313.287109 0)"/>
     <use xlink:href="#DejaVuSans-72" transform="translate(352.496094 0)"/>
     <use xlink:href="#DejaVuSans-61" transform="translate(393.609375 0)"/>
     <use xlink:href="#DejaVuSans-63" transform="translate(454.888672 0)"/>
     <use xlink:href="#DejaVuSans-65" transform="translate(509.869141 0)"/>
     <use xlink:href="#DejaVuSans-3a" transform="translate(571.392578 0)"/>
     <use xlink:href="#DejaVuSans-20" transform="translate(605.083984 0)"/>
     <use xlink:href="#DejaVuSans-44" transform="translate(636.871094 0)"/>
     <use xlink:href="#DejaVuSans-65" transform="translate(713.873047 0)"/>
     <use xlink:href="#DejaVuSans-70" transform="translate(775.396484 0)"/>
     <use xlink:href="#DejaVuSans-72" transform="translate(838.873047 0)"/>
     <use xlink:href="#DejaVuSans-65" transform="translate(877.736328 0)"/>
     <use xlink:href="#DejaVuSans-73" transform="translate(939.259766 0)"/>
     <use xlink:href="#DejaVuSans-73" transform="translate(991.359375 0)"/>
     <use xlink:href="#DejaVuSans-69" transform="translate(1043.458984 0)"/>
     <use xlink:href="#DejaVuSans-76" transform="translate(1071.242188 0)"/>
     <use xlink:href="#DejaVuSans-65" transform="translate(1130.421875 0)"/>
     <use xlink:href="#DejaVuSans-20" transform="translate(1191.945312 0)"/>
     <use xlink:href="#DejaVuSans-64" transform="translate(1223.732422 0)"/>
     <use xlink:href="#DejaVuSans-69" transform="translate(1287.208984 0)"/>
     <use xlink:href="#DejaVuSans-73" transform="translate(1314.992188 0)"/>
     <use xlink:href="#DejaVuSans-6f" transform="translate(1367.091797 0)"/>
     <use xlink:href="#DejaVuSans-72" transform="translate(1428.273438 0)"/>
     <use xlink:href="#DejaVuSans-64" transform="translate(1467.636719 0)"/>
     <use xlink:href="#DejaVuSans-65" transform="translate(1531.113281 0)"/>
     <use xlink:href="#DejaVuSans-72" transform="translate(1592.636719 0)"/>
     <use xlink:href="#DejaVuSans-20" transform="translate(1633.75 0)"/>
     <use xlink:href="#DejaVuSans-28" transform="translate(1665.537109 0)"/>
     <use xlink:href="#DejaVuSans-4d" transform="translate(1704.550781 0)"/>
     <use xlink:href="#DejaVuSans-44" transform="translate(1790.830078 0)"/>
     <use xlink:href="#DejaVuSans-44" transform="translate(1867.832031 0)"/>
     <use xlink:href="#DejaVuSans-2f" transform="translate(1944.833984 0)"/>
     <use xlink:href="#DejaVuSans-44" transform="translate(1978.525391 0)"/>
     <use xlink:href="#DejaVuSans-44" transform="translate(2055.527344 0)"/>
     <use xlink:href="#DejaVuSans-29" transform="translate(2132.529297 0)"/>
     <use xlink:href="#DejaVuSans-20" transform="translate(2171.542969 0)"/>
     <use xlink:href="#DejaVuSans-28" transform="translate(2203.330078 0)"/>
     <use xlink:href="#DejaVuSans-66" transform="translate(2242.34375 0)"/>
     <use xlink:href="#DejaVuSans-65" transform="translate(2277.548828 0)"/>
     <use xlink:href="#DejaVuSans-6d" transform="translate(2339.072266 0)"/>
     <use xlink:href="#DejaVuSans-61" transform="translate(2436.484375 0)"/>
     <use xlink:href="#DejaVuSans-6c" transform="translate(2497.763672 0)"/>
     <use xlink:href="#DejaVuSans-65" transform="translate(2525.546875 0)"/>
     <use xlink:href="#DejaVuSans-29" transform="translate(2587.070312 0)"/>
    </g>
   </g>
   <g id="legend_1">
    <g id="patch_7">
     <path d="M 457.46 42.096094 
L 479.46 42.096094 
L 479.46 34.396094 
L 457.46 34.396094 
z
" style="fill: #d3d3d3; fill-opacity: 0.5; stroke: #d3d3d3; stroke-opacity: 0.5; stroke-linejoin: miter"/>
    </g>
    <g id="text_19">
     <!-- Depressive disorder (MDD/DD) ±2 SD -->
     <g transform="translate(488.26 42.096094) scale(0.11 -0.11)">
      <defs>
       <path id="DejaVuSans-b1" d="M 2944 4013 
L 2944 2803 
L 4684 2803 
L 4684 2272 
L 2944 2272 
L 2944 1063 
L 2419 1063 
L 2419 2272 
L 678 2272 
L 678 2803 
L 2419 2803 
L 2419 4013 
L 2944 4013 
z
M 678 531 
L 4684 531 
L 4684 0 
L 678 0 
L 678 531 
z
" transform="scale(0.015625)"/>
       <path id="DejaVuSans-53" d="M 3425 4513 
L 3425 3897 
Q 3066 4069 2747 4153 
Q 2428 4238 2131 4238 
Q 1616 4238 1336 4038 
Q 1056 3838 1056 3469 
Q 1056 3159 1242 3001 
Q 1428 2844 1947 2747 
L 2328 2669 
Q 3034 2534 3370 2195 
Q 3706 1856 3706 1288 
Q 3706 609 3251 259 
Q 2797 -91 1919 -91 
Q 1588 -91 1214 -16 
Q 841 59 441 206 
L 441 856 
Q 825 641 1194 531 
Q 1563 422 1919 422 
Q 2459 422 2753 634 
Q 3047 847 3047 1241 
Q 3047 1584 2836 1778 
Q 2625 1972 2144 2069 
L 1759 2144 
Q 1053 2284 737 2584 
Q 422 2884 422 3419 
Q 422 4038 858 4394 
Q 1294 4750 2059 4750 
Q 2388 4750 2728 4690 
Q 3069 4631 3425 4513 
z
" transform="scale(0.015625)"/>
      </defs>
      <use xlink:href="#DejaVuSans-44"/>
      <use xlink:href="#DejaVuSans-65" transform="translate(77.001953 0)"/>
      <use xlink:href="#DejaVuSans-70" transform="translate(138.525391 0)"/>
      <use xlink:href="#DejaVuSans-72" transform="translate(202.001953 0)"/>
      <use xlink:href="#DejaVuSans-65" transform="translate(240.865234 0)"/>
      <use xlink:href="#DejaVuSans-73" transform="translate(302.388672 0)"/>
      <use xlink:href="#DejaVuSans-73" transform="translate(354.488281 0)"/>
      <use xlink:href="#DejaVuSans-69" transform="translate(406.587891 0)"/>
      <use xlink:href="#DejaVuSans-76" transform="translate(434.371094 0)"/>
      <use xlink:href="#DejaVuSans-65" transform="translate(493.550781 0)"/>
      <use xlink:href="#DejaVuSans-20" transform="translate(555.074219 0)"/>
      <use xlink:href="#DejaVuSans-64" transform="translate(586.861328 0)"/>
      <use xlink:href="#DejaVuSans-69" transform="translate(650.337891 0)"/>
      <use xlink:href="#DejaVuSans-73" transform="translate(678.121094 0)"/>
      <use xlink:href="#DejaVuSans-6f" transform="translate(730.220703 0)"/>
      <use xlink:href="#DejaVuSans-72" transform="translate(791.402344 0)"/>
      <use xlink:href="#DejaVuSans-64" transform="translate(830.765625 0)"/>
      <use xlink:href="#DejaVuSans-65" transform="translate(894.242188 0)"/>
      <use xlink:href="#DejaVuSans-72" transform="translate(955.765625 0)"/>
      <use xlink:href="#DejaVuSans-20" transform="translate(996.878906 0)"/>
      <use xlink:href="#DejaVuSans-28" transform="translate(1028.666016 0)"/>
      <use xlink:href="#DejaVuSans-4d" transform="translate(1067.679688 0)"/>
      <use xlink:href="#DejaVuSans-44" transform="translate(1153.958984 0)"/>
      <use xlink:href="#DejaVuSans-44" transform="translate(1230.960938 0)"/>
      <use xlink:href="#DejaVuSans-2f" transform="translate(1307.962891 0)"/>
      <use xlink:href="#DejaVuSans-44" transform="translate(1341.654297 0)"/>
      <use xlink:href="#DejaVuSans-44" transform="translate(1418.65625 0)"/>
      <use xlink:href="#DejaVuSans-29" transform="translate(1495.658203 0)"/>
      <use xlink:href="#DejaVuSans-20" transform="translate(1534.671875 0)"/>
      <use xlink:href="#DejaVuSans-b1" transform="translate(1566.458984 0)"/>
      <use xlink:href="#DejaVuSans-32" transform="translate(1650.248047 0)"/>
      <use xlink:href="#DejaVuSans-20" transform="translate(1713.871094 0)"/>
      <use xlink:href="#DejaVuSans-53" transform="translate(1745.658203 0)"/>
      <use xlink:href="#DejaVuSans-44" transform="translate(1809.134766 0)"/>
     </g>
    </g>
    <g id="patch_8">
     <path d="M 457.46 58.242031 
L 479.46 58.242031 
L 479.46 50.542031 
L 457.46 50.542031 
z
" style="fill: #808080; fill-opacity: 0.7; stroke: #808080; stroke-opacity: 0.7; stroke-linejoin: miter"/>
    </g>
    <g id="text_20">
     <!-- Depressive disorder (MDD/DD) ±1 SD -->
     <g transform="translate(488.26 58.242031) scale(0.11 -0.11)">
      <use xlink:href="#DejaVuSans-44"/>
      <use xlink:href="#DejaVuSans-65" transform="translate(77.001953 0)"/>
      <use xlink:href="#DejaVuSans-70" transform="translate(138.525391 0)"/>
      <use xlink:href="#DejaVuSans-72" transform="translate(202.001953 0)"/>
      <use xlink:href="#DejaVuSans-65" transform="translate(240.865234 0)"/>
      <use xlink:href="#DejaVuSans-73" transform="translate(302.388672 0)"/>
      <use xlink:href="#DejaVuSans-73" transform="translate(354.488281 0)"/>
      <use xlink:href="#DejaVuSans-69" transform="translate(406.587891 0)"/>
      <use xlink:href="#DejaVuSans-76" transform="translate(434.371094 0)"/>
      <use xlink:href="#DejaVuSans-65" transform="translate(493.550781 0)"/>
      <use xlink:href="#DejaVuSans-20" transform="translate(555.074219 0)"/>
      <use xlink:href="#DejaVuSans-64" transform="translate(586.861328 0)"/>
      <use xlink:href="#DejaVuSans-69" transform="translate(650.337891 0)"/>
      <use xlink:href="#DejaVuSans-73" transform="translate(678.121094 0)"/>
      <use xlink:href="#DejaVuSans-6f" transform="translate(730.220703 0)"/>
      <use xlink:href="#DejaVuSans-72" transform="translate(791.402344 0)"/>
      <use xlink:href="#DejaVuSans-64" transform="translate(830.765625 0)"/>
      <use xlink:href="#DejaVuSans-65" transform="translate(894.242188 0)"/>
      <use xlink:href="#DejaVuSans-72" transform="translate(955.765625 0)"/>
      <use xlink:href="#DejaVuSans-20" transform="translate(996.878906 0)"/>
      <use xlink:href="#DejaVuSans-28" transform="translate(1028.666016 0)"/>
      <use xlink:href="#DejaVuSans-4d" transform="translate(1067.679688 0)"/>
      <use xlink:href="#DejaVuSans-44" transform="translate(1153.958984 0)"/>
      <use xlink:href="#DejaVuSans-44" transform="translate(1230.960938 0)"/>
      <use xlink:href="#DejaVuSans-2f" transform="translate(1307.962891 0)"/>
      <use xlink:href="#DejaVuSans-44" transform="translate(1341.654297 0)"/>
      <use xlink:href="#DejaVuSans-44" transform="translate(1418.65625 0)"/>
      <use xlink:href="#DejaVuSans-29" transform="translate(1495.658203 0)"/>
      <use xlink:href="#DejaVuSans-20" transform="translate(1534.671875 0)"/>
      <use xlink:href="#DejaVuSans-b1" transform="translate(1566.458984 0)"/>
      <use xlink:href="#DejaVuSans-31" transform="translate(1650.248047 0)"/>
      <use xlink:href="#DejaVuSans-20" transform="translate(1713.871094 0)"/>
      <use xlink:href="#DejaVuSans-53" transform="translate(1745.658203 0)"/>
      <use xlink:href="#DejaVuSans-44" transform="translate(1809.134766 0)"/>
     </g>
    </g>
    <g id="line2d_34">
     <path d="M 457.46 70.537969 
L 468.46 70.537969 
L 479.46 70.537969 
" style="fill: none; stroke: #ff8c00; stroke-width: 2.3; stroke-linecap: square"/>
    </g>
    <g id="text_21">
     <!-- Patient -->
     <g transform="translate(488.26 74.387969) scale(0.11 -0.11)">
      <defs>
       <path id="DejaVuSans-50" d="M 1259 4147 
L 1259 2394 
L 2053 2394 
Q 2494 2394 2734 2622 
Q 2975 2850 2975 3272 
Q 2975 3691 2734 3919 
Q 2494 4147 2053 4147 
L 1259 4147 
z
M 628 4666 
L 2053 4666 
Q 2838 4666 3239 4311 
Q 3641 3956 3641 3272 
Q 3641 2581 3239 2228 
Q 2838 1875 2053 1875 
L 1259 1875 
L 1259 0 
L 628 0 
L 628 4666 
z
" transform="scale(0.015625)"/>
      </defs>
      <use xlink:href="#DejaVuSans-50"/>
      <use xlink:href="#DejaVuSans-61" transform="translate(55.802734 0)"/>
      <use xlink:href="#DejaVuSans-74" transform="translate(117.082031 0)"/>
      <use xlink:href="#DejaVuSans-69" transform="translate(156.291016 0)"/>
      <use xlink:href="#DejaVuSans-65" transform="translate(184.074219 0)"/>
      <use xlink:href="#DejaVuSans-6e" transform="translate(245.597656 0)"/>
      <use xlink:href="#DejaVuSans-74" transform="translate(308.976562 0)"/>
     </g>
    </g>
   </g>
  </g>
 </g>
 <defs>
  <clipPath id="pa896f4fe45">
   <rect x="47.307188" y="23.837812" width="658.33" height="360.28"/>
  </clipPath>
 </defs>
</svg>
