<?xml version="1.0" encoding="utf-8" standalone="no"?>
<!DOCTYPE svg PUBLIC "-//W3C//DTD SVG 1.1//EN"
  "http://www.w3.org/Graphics/SVG/1.1/DTD/svg11.dtd">
<svg xmlns:xlink="http://www.w3.org/1999/xlink" width="712.837188pt" height="424.5775pt" viewBox="0 0 712.837188 424.5775" xmlns="http://www.w3.org/2000/svg" version="1.1">
 <metadata>
  <rdf:RDF xmlns:dc="http://purl.org/dc/elements/1.1/" xmlns:cc="http://creativecommons.org/ns#" xmlns:rdf="http://www.w3.org/1999/02/22-rdf-syntax-ns#">
   <cc:Work>
    <dc:type rdf:resource="http://purl.org/dc/dcmitype/StillImage"/>
    <dc:date>2026-06-14T19:08:56.133926</dc:date>
    <dc:format>image/svg+xml</dc:format>
    <dc:creator>
     <cc:Agent>
      <dc:title>Matplotlib v3.10.1, https://matplotlib.org/</dc:title>
     </cc:Agent>
    </dc:creator>
   </cc:Work>
  </rdf:RDF>
 </metadata>
 <defs>
  <style type="text/css">*{stroke-linejoin: round; stroke-linecap: butt}</style>
 </defs>
 <g id="figure_1">
  <g id="patch_1">
   <path d="M 0 424.5775 
L 712.837188 424.5775 
L 712.837188 0 
L 0 0 
z
" style="fill: #ffffff"/>
  </g>
  <g id="axes_1">
   <g id="patch_2">
    <path d="M 47.307188 384.117812 
L 705.637188 384.117812 
L 705.637188 23.837812 
L 47.307188 23.837812 
z
" style="fill: #ffffff"/>
   </g>
   <g id="matplotlib.axis_1">
    <g id="xtick_1">
     <g id="line2d_1">
      <path d="M 47.307188 384.117812 
L 47.307188 23.837812 
" clip-path="url(#pf68eb2a74c)" style="fill: none; stroke: #b0b0b0; stroke-opacity: 0.2; stroke-width: 0.6; stroke-linecap: square"/>
     </g>
     <g id="line2d_2">
      <defs>
       <path id="mb002e2ab3d" d="M 0 0 
L 0 3.5 
" style="stroke: #000000; stroke-width: 0.8"/>
      </defs>
      <g>
       <use xlink:href="#mb002e2ab3d" x="47.307188" y="384.117812" style="stroke: #000000; stroke-width: 0.8"/>
      </g>
     </g>
     <g id="text_1">
      <!-- 0 -->
      <g transform="translate(43.807813 399.476094) scale(0.11 -0.11)">
       <defs>
        <path id="DejaVuSans-30" d="M 2034 4250 
Q 1547 4250 1301 3770 
Q 1056 3291 1056 2328 
Q 1056 1369 1301 889 
Q 1547 409 2034 409 
Q 2525 409 2770 889 
Q 3016 1369 3016 2328 
Q 3016 3291 2770 3770 
Q 2525 4250 2034 4250 
z
M 2034 4750 
Q 2819 4750 3233 4129 
Q 3647 3509 3647 2328 
Q 3647 1150 3233 529 
Q 2819 -91 2034 -91 
Q 1250 -91 836 529 
Q 422 1150 422 2328 
Q 422 3509 836 4129 
Q 1250 4750 2034 4750 
z
" transform="scale(0.015625)"/>
       </defs>
       <use xlink:href="#DejaVuSans-30"/>
      </g>
     </g>
    </g>
    <g id="xtick_2">
     <g id="line2d_3">
      <path d="M 134.387875 384.117812 
L 134.387875 23.837812 
" clip-path="url(#pf68eb2a74c)" style="fill: none; stroke: #b0b0b0; stroke-opacity: 0.2; stroke-width: 0.6; stroke-linecap: square"/>
     </g>
     <g id="line2d_4">
      <g>
       <use xlink:href="#mb002e2ab3d" x="134.387875" y="384.117812" style="stroke: #000000; stroke-width: 0.8"/>
      </g>
     </g>
     <g id="text_2">
      <!-- 25 -->
      <g transform="translate(127.389125 399.476094) scale(0.11 -0.11)">
       <defs>
        <path id="DejaVuSans-32" d="M 1228 531 
L 3431 531 
L 3431 0 
L 469 0 
L 469 531 
Q 828 903 1448 1529 
Q 2069 2156 2228 2338 
Q 2531 2678 2651 2914 
Q 2772 3150 2772 3378 
Q 2772 3750 2511 3984 
Q 2250 4219 1831 4219 
Q 1534 4219 1204 4116 
Q 875 4013 500 3803 
L 500 4441 
Q 881 4594 1212 4672 
Q 1544 4750 1819 4750 
Q 2544 4750 2975 4387 
Q 3406 4025 3406 3419 
Q 3406 3131 3298 2873 
Q 3191 2616 2906 2266 
Q 2828 2175 2409 1742 
Q 1991 1309 1228 531 
z
" transform="scale(0.015625)"/>
        <path id="DejaVuSans-35" d="M 691 4666 
L 3169 4666 
L 3169 4134 
L 1269 4134 
L 1269 2991 
Q 1406 3038 1543 3061 
Q 1681 3084 1819 3084 
Q 2600 3084 3056 2656 
Q 3513 2228 3513 1497 
Q 3513 744 3044 326 
Q 2575 -91 1722 -91 
Q 1428 -91 1123 -41 
Q 819 9 494 109 
L 494 744 
Q 775 591 1075 516 
Q 1375 441 1709 441 
Q 2250 441 2565 725 
Q 2881 1009 2881 1497 
Q 2881 1984 2565 2268 
Q 2250 2553 1709 2553 
Q 1456 2553 1204 2497 
Q 953 2441 691 2322 
L 691 4666 
z
" transform="scale(0.015625)"/>
       </defs>
       <use xlink:href="#DejaVuSans-32"/>
       <use xlink:href="#DejaVuSans-35" transform="translate(63.623047 0)"/>
      </g>
     </g>
    </g>
    <g id="xtick_3">
     <g id="line2d_5">
      <path d="M 221.468563 384.117812 
L 221.468563 23.837812 
" clip-path="url(#pf68eb2a74c)" style="fill: none; stroke: #b0b0b0; stroke-opacity: 0.2; stroke-width: 0.6; stroke-linecap: square"/>
     </g>
     <g id="line2d_6">
      <g>
       <use xlink:href="#mb002e2ab3d" x="221.468563" y="384.117812" style="stroke: #000000; stroke-width: 0.8"/>
      </g>
     </g>
     <g id="text_3">
      <!-- 50 -->
      <g transform="translate(214.469813 399.476094) scale(0.11 -0.11)">
       <use xlink:href="#DejaVuSans-35"/>
       <use xlink:href="#DejaVuSans-30" transform="translate(63.623047 0)"/>
      </g>
     </g>
    </g>
    <g id="xtick_4">
     <g id="line2d_7">
      <path d="M 308.549251 384.117812 
L 308.549251 23.837812 
" clip-path="url(#pf68eb2a74c)" style="fill: none; stroke: #b0b0b0; stroke-opacity: 0.2; stroke-width: 0.6; stroke-linecap: square"/>
     </g>
     <g id="line2d_8">
      <g>
       <use xlink:href="#mb002e2ab3d" x="308.549251" y="384.117812" style="stroke: #000000; stroke-width: 0.8"/>
      </g>
     </g>
     <g id="text_4">
      <!-- 75 -->
      <g transform="translate(301.550501 399.476094) scale(0.11 -0.11)">
       <defs>
        <path id="DejaVuSans-37" d="M 525 4666 
L 3525 4666 
L 3525 4397 
L 1831 0 
L 1172 0 
L 2766 4134 
L 525 4134 
L 525 4666 
z
" transform="scale(0.015625)"/>
       </defs>
       <use xlink:href="#DejaVuSans-37"/>
       <use xlink:href="#DejaVuSans-35" transform="translate(63.623047 0)"/>
      </g>
     </g>
    </g>
    <g id="xtick_5">
     <g id="line2d_9">
      <path d="M 395.629939 384.117812 
L 395.629939 23.837812 
" clip-path="url(#pf68eb2a74c)" style="fill: none; stroke: #b0b0b0; stroke-opacity: 0.2; stroke-width: 0.6; stroke-linecap: square"/>
     </g>
     <g id="line2d_10">
      <g>
       <use xlink:href="#mb002e2ab3d" x="395.629939" y="384.117812" style="stroke: #000000; stroke-width: 0.8"/>
      </g>
     </g>
     <g id="text_5">
      <!-- 100 -->
      <g transform="translate(385.131814 399.476094) scale(0.11 -0.11)">
       <defs>
        <path id="DejaVuSans-31" d="M 794 531 
L 1825 531 
L 1825 4091 
L 703 3866 
L 703 4441 
L 1819 4666 
L 2450 4666 
L 2450 531 
L 3481 531 
L 3481 0 
L 794 0 
L 794 531 
z
" transform="scale(0.015625)"/>
       </defs>
       <use xlink:href="#DejaVuSans-31"/>
       <use xlink:href="#DejaVuSans-30" transform="translate(63.623047 0)"/>
       <use xlink:href="#DejaVuSans-30" transform="translate(127.246094 0)"/>
      </g>
     </g>
    </g>
    <g id="xtick_6">
     <g id="line2d_11">
      <path d="M 482.710627 384.117812 
L 482.710627 23.837812 
" clip-path="url(#pf68eb2a74c)" style="fill: none; stroke: #b0b0b0; stroke-opacity: 0.2; stroke-width: 0.6; stroke-linecap: square"/>
     </g>
     <g id="line2d_12">
      <g>
       <use xlink:href="#mb002e2ab3d" x="482.710627" y="384.117812" style="stroke: #000000; stroke-width: 0.8"/>
      </g>
     </g>
     <g id="text_6">
      <!-- 125 -->
      <g transform="translate(472.212502 399.476094) scale(0.11 -0.11)">
       <use xlink:href="#DejaVuSans-31"/>
       <use xlink:href="#DejaVuSans-32" transform="translate(63.623047 0)"/>
       <use xlink:href="#DejaVuSans-35" transform="translate(127.246094 0)"/>
      </g>
     </g>
    </g>
    <g id="xtick_7">
     <g id="line2d_13">
      <path d="M 569.791314 384.117812 
L 569.791314 23.837812 
" clip-path="url(#pf68eb2a74c)" style="fill: none; stroke: #b0b0b0; stroke-opacity: 0.2; stroke-width: 0.6; stroke-linecap: square"/>
     </g>
     <g id="line2d_14">
      <g>
       <use xlink:href="#mb002e2ab3d" x="569.791314" y="384.117812" style="stroke: #000000; stroke-width: 0.8"/>
      </g>
     </g>
     <g id="text_7">
      <!-- 150 -->
      <g transform="translate(559.293189 399.476094) scale(0.11 -0.11)">
       <use xlink:href="#DejaVuSans-31"/>
       <use xlink:href="#DejaVuSans-35" transform="translate(63.623047 0)"/>
       <use xlink:href="#DejaVuSans-30" transform="translate(127.246094 0)"/>
      </g>
     </g>
    </g>
    <g id="xtick_8">
     <g id="line2d_15">
      <path d="M 656.872002 384.117812 
L 656.872002 23.837812 
" clip-path="url(#pf68eb2a74c)" style="fill: none; stroke: #b0b0b0; stroke-opacity: 0.2; stroke-width: 0.6; stroke-linecap: square"/>
     </g>
     <g id="line2d_16">
      <g>
       <use xlink:href="#mb002e2ab3d" x="656.872002" y="384.117812" style="stroke: #000000; stroke-width: 0.8"/>
      </g>
     </g>
     <g id="text_8">
      <!-- 175 -->
      <g transform="translate(646.373877 399.476094) scale(0.11 -0.11)">
       <use xlink:href="#DejaVuSans-31"/>
       <use xlink:href="#DejaVuSans-37" transform="translate(63.623047 0)"/>
       <use xlink:href="#DejaVuSans-35" transform="translate(127.246094 0)"/>
      </g>
     </g>
    </g>
    <g id="text_9">
     <!-- Time (s) -->
     <g transform="translate(352.0775 414.881875) scale(0.12 -0.12)">
      <defs>
       <path id="DejaVuSans-54" d="M -19 4666 
L 3928 4666 
L 3928 4134 
L 2272 4134 
L 2272 0 
L 1638 0 
L 1638 4134 
L -19 4134 
L -19 4666 
z
" transform="scale(0.015625)"/>
       <path id="DejaVuSans-69" d="M 603 3500 
L 1178 3500 
L 1178 0 
L 603 0 
L 603 3500 
z
M 603 4863 
L 1178 4863 
L 1178 4134 
L 603 4134 
L 603 4863 
z
" transform="scale(0.015625)"/>
       <path id="DejaVuSans-6d" d="M 3328 2828 
Q 3544 3216 3844 3400 
Q 4144 3584 4550 3584 
Q 5097 3584 5394 3201 
Q 5691 2819 5691 2113 
L 5691 0 
L 5113 0 
L 5113 2094 
Q 5113 2597 4934 2840 
Q 4756 3084 4391 3084 
Q 3944 3084 3684 2787 
Q 3425 2491 3425 1978 
L 3425 0 
L 2847 0 
L 2847 2094 
Q 2847 2600 2669 2842 
Q 2491 3084 2119 3084 
Q 1678 3084 1418 2786 
Q 1159 2488 1159 1978 
L 1159 0 
L 581 0 
L 581 3500 
L 1159 3500 
L 1159 2956 
Q 1356 3278 1631 3431 
Q 1906 3584 2284 3584 
Q 2666 3584 2933 3390 
Q 3200 3197 3328 2828 
z
" transform="scale(0.015625)"/>
       <path id="DejaVuSans-65" d="M 3597 1894 
L 3597 1613 
L 953 1613 
Q 991 1019 1311 708 
Q 1631 397 2203 397 
Q 2534 397 2845 478 
Q 3156 559 3463 722 
L 3463 178 
Q 3153 47 2828 -22 
Q 2503 -91 2169 -91 
Q 1331 -91 842 396 
Q 353 884 353 1716 
Q 353 2575 817 3079 
Q 1281 3584 2069 3584 
Q 2775 3584 3186 3129 
Q 3597 2675 3597 1894 
z
M 3022 2063 
Q 3016 2534 2758 2815 
Q 2500 3097 2075 3097 
Q 1594 3097 1305 2825 
Q 1016 2553 972 2059 
L 3022 2063 
z
" transform="scale(0.015625)"/>
       <path id="DejaVuSans-20" transform="scale(0.015625)"/>
       <path id="DejaVuSans-28" d="M 1984 4856 
Q 1566 4138 1362 3434 
Q 1159 2731 1159 2009 
Q 1159 1288 1364 580 
Q 1569 -128 1984 -844 
L 1484 -844 
Q 1016 -109 783 600 
Q 550 1309 550 2009 
Q 550 2706 781 3412 
Q 1013 4119 1484 4856 
L 1984 4856 
z
" transform="scale(0.015625)"/>
       <path id="DejaVuSans-73" d="M 2834 3397 
L 2834 2853 
Q 2591 2978 2328 3040 
Q 2066 3103 1784 3103 
Q 1356 3103 1142 2972 
Q 928 2841 928 2578 
Q 928 2378 1081 2264 
Q 1234 2150 1697 2047 
L 1894 2003 
Q 2506 1872 2764 1633 
Q 3022 1394 3022 966 
Q 3022 478 2636 193 
Q 2250 -91 1575 -91 
Q 1294 -91 989 -36 
Q 684 19 347 128 
L 347 722 
Q 666 556 975 473 
Q 1284 391 1588 391 
Q 1994 391 2212 530 
Q 2431 669 2431 922 
Q 2431 1156 2273 1281 
Q 2116 1406 1581 1522 
L 1381 1569 
Q 847 1681 609 1914 
Q 372 2147 372 2553 
Q 372 3047 722 3315 
Q 1072 3584 1716 3584 
Q 2034 3584 2315 3537 
Q 2597 3491 2834 3397 
z
" transform="scale(0.015625)"/>
       <path id="DejaVuSans-29" d="M 513 4856 
L 1013 4856 
Q 1481 4119 1714 3412 
Q 1947 2706 1947 2009 
Q 1947 1309 1714 600 
Q 1481 -109 1013 -844 
L 513 -844 
Q 928 -128 1133 580 
Q 1338 1288 1338 2009 
Q 1338 2731 1133 3434 
Q 928 4138 513 4856 
z
" transform="scale(0.015625)"/>
      </defs>
      <use xlink:href="#DejaVuSans-54"/>
      <use xlink:href="#DejaVuSans-69" transform="translate(57.958984 0)"/>
      <use xlink:href="#DejaVuSans-6d" transform="translate(85.742188 0)"/>
      <use xlink:href="#DejaVuSans-65" transform="translate(183.154297 0)"/>
      <use xlink:href="#DejaVuSans-20" transform="translate(244.677734 0)"/>
      <use xlink:href="#DejaVuSans-28" transform="translate(276.464844 0)"/>
      <use xlink:href="#DejaVuSans-73" transform="translate(315.478516 0)"/>
      <use xlink:href="#DejaVuSans-29" transform="translate(367.578125 0)"/>
     </g>
    </g>
   </g>
   <g id="matplotlib.axis_2">
    <g id="ytick_1">
     <g id="line2d_17">
      <path d="M 47.307188 367.741449 
L 705.637188 367.741449 
" clip-path="url(#pf68eb2a74c)" style="fill: none; stroke: #b0b0b0; stroke-opacity: 0.2; stroke-width: 0.6; stroke-linecap: square"/>
     </g>
     <g id="line2d_18">
      <defs>
       <path id="m21e5e24e3e" d="M 0 0 
L -3.5 0 
" style="stroke: #000000; stroke-width: 0.8"/>
      </defs>
      <g>
       <use xlink:href="#m21e5e24e3e" x="47.307188" y="367.741449" style="stroke: #000000; stroke-width: 0.8"/>
      </g>
     </g>
     <g id="text_10">
      <!-- 0.0 -->
      <g transform="translate(22.81375 371.920589) scale(0.11 -0.11)">
       <defs>
        <path id="DejaVuSans-2e" d="M 684 794 
L 1344 794 
L 1344 0 
L 684 0 
L 684 794 
z
" transform="scale(0.015625)"/>
       </defs>
       <use xlink:href="#DejaVuSans-30"/>
       <use xlink:href="#DejaVuSans-2e" transform="translate(63.623047 0)"/>
       <use xlink:href="#DejaVuSans-30" transform="translate(95.410156 0)"/>
      </g>
     </g>
    </g>
    <g id="ytick_2">
     <g id="line2d_19">
      <path d="M 47.307188 317.507205 
L 705.637188 317.507205 
" clip-path="url(#pf68eb2a74c)" style="fill: none; stroke: #b0b0b0; stroke-opacity: 0.2; stroke-width: 0.6; stroke-linecap: square"/>
     </g>
     <g id="line2d_20">
      <g>
       <use xlink:href="#m21e5e24e3e" x="47.307188" y="317.507205" style="stroke: #000000; stroke-width: 0.8"/>
      </g>
     </g>
     <g id="text_11">
      <!-- 0.5 -->
      <g transform="translate(22.81375 321.686345) scale(0.11 -0.11)">
       <use xlink:href="#DejaVuSans-30"/>
       <use xlink:href="#DejaVuSans-2e" transform="translate(63.623047 0)"/>
       <use xlink:href="#DejaVuSans-35" transform="translate(95.410156 0)"/>
      </g>
     </g>
    </g>
    <g id="ytick_3">
     <g id="line2d_21">
      <path d="M 47.307188 267.27296 
L 705.637188 267.27296 
" clip-path="url(#pf68eb2a74c)" style="fill: none; stroke: #b0b0b0; stroke-opacity: 0.2; stroke-width: 0.6; stroke-linecap: square"/>
     </g>
     <g id="line2d_22">
      <g>
       <use xlink:href="#m21e5e24e3e" x="47.307188" y="267.27296" style="stroke: #000000; stroke-width: 0.8"/>
      </g>
     </g>
     <g id="text_12">
      <!-- 1.0 -->
      <g transform="translate(22.81375 271.452101) scale(0.11 -0.11)">
       <use xlink:href="#DejaVuSans-31"/>
       <use xlink:href="#DejaVuSans-2e" transform="translate(63.623047 0)"/>
       <use xlink:href="#DejaVuSans-30" transform="translate(95.410156 0)"/>
      </g>
     </g>
    </g>
    <g id="ytick_4">
     <g id="line2d_23">
      <path d="M 47.307188 217.038716 
L 705.637188 217.038716 
" clip-path="url(#pf68eb2a74c)" style="fill: none; stroke: #b0b0b0; stroke-opacity: 0.2; stroke-width: 0.6; stroke-linecap: square"/>
     </g>
     <g id="line2d_24">
      <g>
       <use xlink:href="#m21e5e24e3e" x="47.307188" y="217.038716" style="stroke: #000000; stroke-width: 0.8"/>
      </g>
     </g>
     <g id="text_13">
      <!-- 1.5 -->
      <g transform="translate(22.81375 221.217857) scale(0.11 -0.11)">
       <use xlink:href="#DejaVuSans-31"/>
       <use xlink:href="#DejaVuSans-2e" transform="translate(63.623047 0)"/>
       <use xlink:href="#DejaVuSans-35" transform="translate(95.410156 0)"/>
      </g>
     </g>
    </g>
    <g id="ytick_5">
     <g id="line2d_25">
      <path d="M 47.307188 166.804472 
L 705.637188 166.804472 
" clip-path="url(#pf68eb2a74c)" style="fill: none; stroke: #b0b0b0; stroke-opacity: 0.2; stroke-width: 0.6; stroke-linecap: square"/>
     </g>
     <g id="line2d_26">
      <g>
       <use xlink:href="#m21e5e24e3e" x="47.307188" y="166.804472" style="stroke: #000000; stroke-width: 0.8"/>
      </g>
     </g>
     <g id="text_14">
      <!-- 2.0 -->
      <g transform="translate(22.81375 170.983612) scale(0.11 -0.11)">
       <use xlink:href="#DejaVuSans-32"/>
       <use xlink:href="#DejaVuSans-2e" transform="translate(63.623047 0)"/>
       <use xlink:href="#DejaVuSans-30" transform="translate(95.410156 0)"/>
      </g>
     </g>
    </g>
    <g id="ytick_6">
     <g id="line2d_27">
      <path d="M 47.307188 116.570227 
L 705.637188 116.570227 
" clip-path="url(#pf68eb2a74c)" style="fill: none; stroke: #b0b0b0; stroke-opacity: 0.2; stroke-width: 0.6; stroke-linecap: square"/>
     </g>
     <g id="line2d_28">
      <g>
       <use xlink:href="#m21e5e24e3e" x="47.307188" y="116.570227" style="stroke: #000000; stroke-width: 0.8"/>
      </g>
     </g>
     <g id="text_15">
      <!-- 2.5 -->
      <g transform="translate(22.81375 120.749368) scale(0.11 -0.11)">
       <use xlink:href="#DejaVuSans-32"/>
       <use xlink:href="#DejaVuSans-2e" transform="translate(63.623047 0)"/>
       <use xlink:href="#DejaVuSans-35" transform="translate(95.410156 0)"/>
      </g>
     </g>
    </g>
    <g id="ytick_7">
     <g id="line2d_29">
      <path d="M 47.307188 66.335983 
L 705.637188 66.335983 
" clip-path="url(#pf68eb2a74c)" style="fill: none; stroke: #b0b0b0; stroke-opacity: 0.2; stroke-width: 0.6; stroke-linecap: square"/>
     </g>
     <g id="line2d_30">
      <g>
       <use xlink:href="#m21e5e24e3e" x="47.307188" y="66.335983" style="stroke: #000000; stroke-width: 0.8"/>
      </g>
     </g>
     <g id="text_16">
      <!-- 3.0 -->
      <g transform="translate(22.81375 70.515124) scale(0.11 -0.11)">
       <defs>
        <path id="DejaVuSans-33" d="M 2597 2516 
Q 3050 2419 3304 2112 
Q 3559 1806 3559 1356 
Q 3559 666 3084 287 
Q 2609 -91 1734 -91 
Q 1441 -91 1130 -33 
Q 819 25 488 141 
L 488 750 
Q 750 597 1062 519 
Q 1375 441 1716 441 
Q 2309 441 2620 675 
Q 2931 909 2931 1356 
Q 2931 1769 2642 2001 
Q 2353 2234 1838 2234 
L 1294 2234 
L 1294 2753 
L 1863 2753 
Q 2328 2753 2575 2939 
Q 2822 3125 2822 3475 
Q 2822 3834 2567 4026 
Q 2313 4219 1838 4219 
Q 1578 4219 1281 4162 
Q 984 4106 628 3988 
L 628 4550 
Q 988 4650 1302 4700 
Q 1616 4750 1894 4750 
Q 2613 4750 3031 4423 
Q 3450 4097 3450 3541 
Q 3450 3153 3228 2886 
Q 3006 2619 2597 2516 
z
" transform="scale(0.015625)"/>
       </defs>
       <use xlink:href="#DejaVuSans-33"/>
       <use xlink:href="#DejaVuSans-2e" transform="translate(63.623047 0)"/>
       <use xlink:href="#DejaVuSans-30" transform="translate(95.410156 0)"/>
      </g>
     </g>
    </g>
    <g id="text_17">
     <!-- AU mean intensity -->
     <g transform="translate(16.318125 259.314687) rotate(-90) scale(0.12 -0.12)">
      <defs>
       <path id="DejaVuSans-41" d="M 2188 4044 
L 1331 1722 
L 3047 1722 
L 2188 4044 
z
M 1831 4666 
L 2547 4666 
L 4325 0 
L 3669 0 
L 3244 1197 
L 1141 1197 
L 716 0 
L 50 0 
L 1831 4666 
z
" transform="scale(0.015625)"/>
       <path id="DejaVuSans-55" d="M 556 4666 
L 1191 4666 
L 1191 1831 
Q 1191 1081 1462 751 
Q 1734 422 2344 422 
Q 2950 422 3222 751 
Q 3494 1081 3494 1831 
L 3494 4666 
L 4128 4666 
L 4128 1753 
Q 4128 841 3676 375 
Q 3225 -91 2344 -91 
Q 1459 -91 1007 375 
Q 556 841 556 1753 
L 556 4666 
z
" transform="scale(0.015625)"/>
       <path id="DejaVuSans-61" d="M 2194 1759 
Q 1497 1759 1228 1600 
Q 959 1441 959 1056 
Q 959 750 1161 570 
Q 1363 391 1709 391 
Q 2188 391 2477 730 
Q 2766 1069 2766 1631 
L 2766 1759 
L 2194 1759 
z
M 3341 1997 
L 3341 0 
L 2766 0 
L 2766 531 
Q 2569 213 2275 61 
Q 1981 -91 1556 -91 
Q 1019 -91 701 211 
Q 384 513 384 1019 
Q 384 1609 779 1909 
Q 1175 2209 1959 2209 
L 2766 2209 
L 2766 2266 
Q 2766 2663 2505 2880 
Q 2244 3097 1772 3097 
Q 1472 3097 1187 3025 
Q 903 2953 641 2809 
L 641 3341 
Q 956 3463 1253 3523 
Q 1550 3584 1831 3584 
Q 2591 3584 2966 3190 
Q 3341 2797 3341 1997 
z
" transform="scale(0.015625)"/>
       <path id="DejaVuSans-6e" d="M 3513 2113 
L 3513 0 
L 2938 0 
L 2938 2094 
Q 2938 2591 2744 2837 
Q 2550 3084 2163 3084 
Q 1697 3084 1428 2787 
Q 1159 2491 1159 1978 
L 1159 0 
L 581 0 
L 581 3500 
L 1159 3500 
L 1159 2956 
Q 1366 3272 1645 3428 
Q 1925 3584 2291 3584 
Q 2894 3584 3203 3211 
Q 3513 2838 3513 2113 
z
" transform="scale(0.015625)"/>
       <path id="DejaVuSans-74" d="M 1172 4494 
L 1172 3500 
L 2356 3500 
L 2356 3053 
L 1172 3053 
L 1172 1153 
Q 1172 725 1289 603 
Q 1406 481 1766 481 
L 2356 481 
L 2356 0 
L 1766 0 
Q 1100 0 847 248 
Q 594 497 594 1153 
L 594 3053 
L 172 3053 
L 172 3500 
L 594 3500 
L 594 4494 
L 1172 4494 
z
" transform="scale(0.015625)"/>
       <path id="DejaVuSans-79" d="M 2059 -325 
Q 1816 -950 1584 -1140 
Q 1353 -1331 966 -1331 
L 506 -1331 
L 506 -850 
L 844 -850 
Q 1081 -850 1212 -737 
Q 1344 -625 1503 -206 
L 1606 56 
L 191 3500 
L 800 3500 
L 1894 763 
L 2988 3500 
L 3597 3500 
L 2059 -325 
z
" transform="scale(0.015625)"/>
      </defs>
      <use xlink:href="#DejaVuSans-41"/>
      <use xlink:href="#DejaVuSans-55" transform="translate(68.408203 0)"/>
      <use xlink:href="#DejaVuSans-20" transform="translate(141.601562 0)"/>
      <use xlink:href="#DejaVuSans-6d" transform="translate(173.388672 0)"/>
      <use xlink:href="#DejaVuSans-65" transform="translate(270.800781 0)"/>
      <use xlink:href="#DejaVuSans-61" transform="translate(332.324219 0)"/>
      <use xlink:href="#DejaVuSans-6e" transform="translate(393.603516 0)"/>
      <use xlink:href="#DejaVuSans-20" transform="translate(456.982422 0)"/>
      <use xlink:href="#DejaVuSans-69" transform="translate(488.769531 0)"/>
      <use xlink:href="#DejaVuSans-6e" transform="translate(516.552734 0)"/>
      <use xlink:href="#DejaVuSans-74" transform="translate(579.931641 0)"/>
      <use xlink:href="#DejaVuSans-65" transform="translate(619.140625 0)"/>
      <use xlink:href="#DejaVuSans-6e" transform="translate(680.664062 0)"/>
      <use xlink:href="#DejaVuSans-73" transform="translate(744.042969 0)"/>
      <use xlink:href="#DejaVuSans-69" transform="translate(796.142578 0)"/>
      <use xlink:href="#DejaVuSans-74" transform="translate(823.925781 0)"/>
      <use xlink:href="#DejaVuSans-79" transform="translate(863.134766 0)"/>
     </g>
    </g>
   </g>
   <g id="FillBetweenPolyCollection_1">
    <defs>
     <path id="m36f7bf2a37" d="M 47.307188 -126.522931 
L 47.307188 -47.610793 
L 50.790415 -41.988396 
L 54.273643 -33.327605 
L 57.75687 -30.940833 
L 61.240098 -32.993358 
L 64.723325 -33.845414 
L 68.206553 -33.741591 
L 71.68978 -30.252918 
L 75.173008 -30.329684 
L 78.656235 -37.723553 
L 82.139463 -34.180286 
L 85.62269 -37.778036 
L 89.105918 -36.43812 
L 92.589145 -35.221282 
L 96.072373 -39.725909 
L 99.5556 -38.918812 
L 103.038828 -39.965519 
L 106.522055 -40.322906 
L 110.005283 -39.325823 
L 113.48851 -35.787196 
L 116.971738 -36.626908 
L 120.454965 -35.937623 
L 123.938193 -33.973515 
L 127.42142 -39.695621 
L 130.904648 -44.276795 
L 134.387875 -44.89026 
L 137.871103 -43.78882 
L 141.35433 -47.06197 
L 144.837558 -46.235764 
L 148.320785 -45.512642 
L 151.804013 -33.529115 
L 155.28724 -28.303013 
L 158.770468 -33.867518 
L 162.253695 -35.533547 
L 165.736923 -40.503301 
L 169.22015 -40.128788 
L 172.703378 -32.47828 
L 176.186605 -35.449652 
L 179.669833 -35.93601 
L 183.153061 -36.154314 
L 186.636288 -32.881597 
L 190.119516 -43.687251 
L 193.602743 -41.10759 
L 197.085971 -43.094988 
L 200.569198 -46.490897 
L 204.052426 -42.506854 
L 207.535653 -40.943089 
L 211.018881 -37.191198 
L 214.502108 -41.221673 
L 217.985336 -41.354881 
L 221.468563 -38.707474 
L 224.951791 -42.82985 
L 228.435018 -38.865784 
L 231.918246 -39.884502 
L 235.401473 -32.061738 
L 238.884701 -33.457299 
L 242.367928 -32.477569 
L 245.851156 -31.632361 
L 249.334383 -40.657385 
L 252.817611 -30.768415 
L 256.300838 -31.156722 
L 259.784066 -33.590621 
L 263.267293 -32.861601 
L 266.750521 -27.833612 
L 270.233748 -33.303862 
L 273.716976 -3.099397 
L 277.200203 19.832926 
L 280.683431 14.376583 
L 284.166658 12.641032 
L 287.649886 -0.727788 
L 291.133113 -6.871313 
L 294.616341 -29.513987 
L 298.099568 -31.020416 
L 301.582796 -18.366062 
L 305.066023 -26.745078 
L 308.549251 -31.515195 
L 312.032479 -15.572397 
L 315.515706 -25.986566 
L 318.998934 -20.416205 
L 322.482161 -15.182256 
L 325.965389 -13.677769 
L 329.448616 -18.689078 
L 332.931844 -20.490323 
L 336.415071 -19.507251 
L 339.898299 -25.218101 
L 343.381526 -30.263674 
L 346.864754 -36.610899 
L 350.347981 -41.504417 
L 353.831209 -38.15069 
L 357.314436 -37.001462 
L 360.797664 -39.706623 
L 364.280891 -26.847956 
L 367.764119 -18.047947 
L 371.247346 -12.580297 
L 374.730574 -10.967293 
L 378.213801 -18.595549 
L 381.697029 -13.886127 
L 385.180256 -15.593506 
L 388.663484 5.65756 
L 392.146711 1.835243 
L 395.629939 -41.646396 
L 399.113166 -17.14712 
L 402.596394 -24.547041 
L 406.079621 -31.901784 
L 409.562849 -33.031463 
L 413.046076 -26.618022 
L 416.529304 -34.592458 
L 420.012531 -37.80648 
L 423.495759 -37.998654 
L 426.978986 -30.581308 
L 430.462214 -31.181338 
L 433.945441 -34.283113 
L 437.428669 -30.955372 
L 440.911896 -31.044571 
L 444.395124 -33.246256 
L 447.878352 -41.677925 
L 451.361579 -39.774634 
L 454.844807 -35.189917 
L 458.328034 -35.049041 
L 461.811262 -39.868434 
L 465.294489 -32.431344 
L 468.777717 -33.45554 
L 472.260944 -15.167001 
L 475.744172 10.516066 
L 479.227399 14.767093 
L 482.710627 15.847501 
L 486.193854 17.102179 
L 489.677082 -13.958476 
L 493.160309 -23.204888 
L 496.643537 -12.708151 
L 500.126764 -12.4889 
L 503.609992 -2.874057 
L 507.093219 -11.01282 
L 510.576447 2.206414 
L 514.059674 3.654073 
L 517.542902 -17.390374 
L 521.026129 -13.562984 
L 524.509357 -17.564884 
L 527.992584 9.414336 
L 531.475812 23.59725 
L 534.959039 -17.756247 
L 538.442267 -14.480179 
L 541.925494 1.379823 
L 545.408722 9.180174 
L 548.891949 7.393106 
L 552.375177 11.564343 
L 555.858404 3.611544 
L 559.341632 -3.332008 
L 562.824859 -1.879562 
L 566.308087 -7.805254 
L 569.791314 -10.204014 
L 573.274542 -15.23474 
L 576.75777 -7.97743 
L 580.240997 -22.578809 
L 583.724225 -25.970865 
L 587.207452 -22.965021 
L 590.69068 -31.201298 
L 594.173907 -15.684145 
L 597.657135 -15.790563 
L 601.140362 -27.108066 
L 604.62359 -34.637765 
L 608.106817 -33.430326 
L 611.590045 -26.903051 
L 615.073272 -34.924807 
L 618.5565 -24.942136 
L 622.039727 -33.279147 
L 625.522955 -45.078514 
L 629.006182 -34.87505 
L 632.48941 -39.076123 
L 635.972637 -29.242514 
L 639.455865 -32.67723 
L 642.939092 -22.090397 
L 646.42232 -18.853057 
L 649.905547 -16.505633 
L 653.388775 -17.784442 
L 656.872002 -17.863297 
L 660.35523 -21.459433 
L 663.838457 -28.305756 
L 667.321685 -33.864378 
L 670.804912 -30.246233 
L 674.28814 -33.183113 
L 677.771367 -33.032188 
L 681.254595 -29.22874 
L 684.737822 -20.130554 
L 688.22105 -17.076598 
L 691.704277 -32.734039 
L 695.187505 -37.083864 
L 698.670732 -35.505572 
L 702.15396 -37.187565 
L 705.637188 -36.100769 
L 705.637188 -117.722847 
L 705.637188 -117.722847 
L 702.15396 -119.453721 
L 698.670732 -111.430838 
L 695.187505 -116.521762 
L 691.704277 -120.790564 
L 688.22105 -174.769952 
L 684.737822 -174.522615 
L 681.254595 -162.638635 
L 677.771367 -149.958841 
L 674.28814 -148.706282 
L 670.804912 -154.256153 
L 667.321685 -158.622823 
L 663.838457 -174.900225 
L 660.35523 -187.297181 
L 656.872002 -197.749677 
L 653.388775 -190.234863 
L 649.905547 -195.326781 
L 646.42232 -198.856596 
L 642.939092 -175.741387 
L 639.455865 -151.488911 
L 635.972637 -162.756035 
L 632.48941 -132.871753 
L 629.006182 -161.354435 
L 625.522955 -177.788251 
L 622.039727 -166.973407 
L 618.5565 -173.868908 
L 615.073272 -179.492938 
L 611.590045 -177.429709 
L 608.106817 -167.545428 
L 604.62359 -168.844254 
L 601.140362 -158.979298 
L 597.657135 -180.261648 
L 594.173907 -178.605258 
L 590.69068 -141.289432 
L 587.207452 -153.105807 
L 583.724225 -146.864213 
L 580.240997 -159.13038 
L 576.75777 -182.508503 
L 573.274542 -172.125802 
L 569.791314 -178.993654 
L 566.308087 -182.209908 
L 562.824859 -194.144291 
L 559.341632 -193.027392 
L 555.858404 -211.002921 
L 552.375177 -215.77934 
L 548.891949 -208.306697 
L 545.408722 -214.239626 
L 541.925494 -200.482549 
L 538.442267 -171.338691 
L 534.959039 -159.478379 
L 531.475812 -233.589185 
L 527.992584 -214.824701 
L 524.509357 -160.303118 
L 521.026129 -168.836857 
L 517.542902 -155.930563 
L 514.059674 -194.103546 
L 510.576447 -190.528336 
L 507.093219 -173.201935 
L 503.609992 -187.483217 
L 500.126764 -167.306052 
L 496.643537 -166.727506 
L 493.160309 -149.727418 
L 489.677082 -180.196681 
L 486.193854 -233.18327 
L 482.710627 -236.934275 
L 479.227399 -239.189499 
L 475.744172 -223.79488 
L 472.260944 -177.202717 
L 468.777717 -133.027477 
L 465.294489 -148.173837 
L 461.811262 -138.25507 
L 458.328034 -139.041894 
L 454.844807 -127.140114 
L 451.361579 -125.424029 
L 447.878352 -134.540142 
L 444.395124 -148.744418 
L 440.911896 -147.29546 
L 437.428669 -143.366478 
L 433.945441 -146.663902 
L 430.462214 -156.92252 
L 426.978986 -148.45594 
L 423.495759 -145.778577 
L 420.012531 -134.622366 
L 416.529304 -132.311739 
L 413.046076 -145.758857 
L 409.562849 -140.459902 
L 406.079621 -142.519109 
L 402.596394 -164.460224 
L 399.113166 -178.073349 
L 395.629939 -137.52873 
L 392.146711 -201.663405 
L 388.663484 -210.286054 
L 385.180256 -169.493503 
L 381.697029 -176.733495 
L 378.213801 -164.858848 
L 374.730574 -176.690939 
L 371.247346 -180.431597 
L 367.764119 -165.109459 
L 364.280891 -153.007763 
L 360.797664 -135.551042 
L 357.314436 -135.349434 
L 353.831209 -137.431067 
L 350.347981 -129.586293 
L 346.864754 -136.900721 
L 343.381526 -150.449491 
L 339.898299 -154.722692 
L 336.415071 -157.741484 
L 332.931844 -158.810389 
L 329.448616 -169.238765 
L 325.965389 -170.030592 
L 322.482161 -162.109784 
L 318.998934 -153.536991 
L 315.515706 -149.040603 
L 312.032479 -165.413593 
L 308.549251 -141.926996 
L 305.066023 -154.192298 
L 301.582796 -165.815865 
L 298.099568 -139.947083 
L 294.616341 -138.285513 
L 291.133113 -181.844269 
L 287.649886 -194.284815 
L 284.166658 -223.325993 
L 280.683431 -227.135732 
L 277.200203 -238.129995 
L 273.716976 -187.11497 
L 270.233748 -130.424234 
L 266.750521 -135.120016 
L 263.267293 -137.631913 
L 259.784066 -137.313875 
L 256.300838 -145.95637 
L 252.817611 -147.229503 
L 249.334383 -144.387856 
L 245.851156 -144.533739 
L 242.367928 -142.986705 
L 238.884701 -147.9271 
L 235.401473 -139.323029 
L 231.918246 -130.322778 
L 228.435018 -120.916494 
L 224.951791 -125.298772 
L 221.468563 -131.510562 
L 217.985336 -128.709491 
L 214.502108 -127.643279 
L 211.018881 -130.712235 
L 207.535653 -124.587768 
L 204.052426 -127.57051 
L 200.569198 -119.278978 
L 197.085971 -113.284883 
L 193.602743 -118.058913 
L 190.119516 -118.525855 
L 186.636288 -132.633056 
L 183.153061 -129.367323 
L 179.669833 -121.970586 
L 176.186605 -123.394296 
L 172.703378 -126.732785 
L 169.22015 -122.530364 
L 165.736923 -123.800058 
L 162.253695 -120.006199 
L 158.770468 -123.496224 
L 155.28724 -134.109298 
L 151.804013 -133.942242 
L 148.320785 -124.690307 
L 144.837558 -120.919604 
L 141.35433 -116.22511 
L 137.871103 -121.742037 
L 134.387875 -116.495713 
L 130.904648 -114.727662 
L 127.42142 -115.489021 
L 123.938193 -122.474666 
L 120.454965 -120.14344 
L 116.971738 -118.557316 
L 113.48851 -121.060373 
L 110.005283 -120.991206 
L 106.522055 -119.447777 
L 103.038828 -117.904615 
L 99.5556 -117.863799 
L 96.072373 -122.596438 
L 92.589145 -122.189257 
L 89.105918 -118.519239 
L 85.62269 -122.802457 
L 82.139463 -119.598188 
L 78.656235 -113.2085 
L 75.173008 -131.818464 
L 71.68978 -130.323245 
L 68.206553 -121.385916 
L 64.723325 -120.46446 
L 61.240098 -123.203653 
L 57.75687 -127.136609 
L 54.273643 -122.176659 
L 50.790415 -120.285338 
L 47.307188 -126.522931 
z
" style="stroke: #d3d3d3; stroke-opacity: 0.5"/>
    </defs>
    <g clip-path="url(#pf68eb2a74c)">
     <use xlink:href="#m36f7bf2a37" x="0" y="424.5775" style="fill: #d3d3d3; fill-opacity: 0.5; stroke: #d3d3d3; stroke-opacity: 0.5"/>
    </g>
   </g>
   <g id="FillBetweenPolyCollection_2">
    <defs>
     <path id="mf8c0abcebc" d="M 47.307188 -106.794897 
L 47.307188 -67.338828 
L 50.790415 -61.562631 
L 54.273643 -55.539868 
L 57.75687 -54.989777 
L 61.240098 -55.545932 
L 64.723325 -55.500175 
L 68.206553 -55.652672 
L 71.68978 -55.270499 
L 75.173008 -55.701879 
L 78.656235 -56.59479 
L 82.139463 -55.534762 
L 85.62269 -59.034141 
L 89.105918 -56.9584 
L 92.589145 -56.963276 
L 96.072373 -60.443542 
L 99.5556 -58.655059 
L 103.038828 -59.450293 
L 106.522055 -60.104123 
L 110.005283 -59.742169 
L 113.48851 -57.10549 
L 116.971738 -57.10951 
L 120.454965 -56.989078 
L 123.938193 -56.098803 
L 127.42142 -58.643971 
L 130.904648 -61.889512 
L 134.387875 -62.791623 
L 137.871103 -63.277124 
L 141.35433 -64.352755 
L 144.837558 -64.906724 
L 148.320785 -65.307059 
L 151.804013 -58.632397 
L 155.28724 -54.754584 
L 158.770468 -56.274694 
L 162.253695 -56.65171 
L 165.736923 -61.32749 
L 169.22015 -60.729182 
L 172.703378 -56.041906 
L 176.186605 -57.435813 
L 179.669833 -57.444654 
L 183.153061 -59.457567 
L 186.636288 -57.819462 
L 190.119516 -62.396902 
L 193.602743 -60.345421 
L 197.085971 -60.642462 
L 200.569198 -64.687917 
L 204.052426 -63.772768 
L 207.535653 -61.854259 
L 211.018881 -60.571458 
L 214.502108 -62.827075 
L 217.985336 -63.193533 
L 221.468563 -61.908246 
L 224.951791 -63.44708 
L 228.435018 -59.378461 
L 231.918246 -62.494071 
L 235.401473 -58.877061 
L 238.884701 -62.074749 
L 242.367928 -60.104853 
L 245.851156 -59.857706 
L 249.334383 -66.590003 
L 252.817611 -59.883687 
L 256.300838 -59.856634 
L 259.784066 -59.521435 
L 263.267293 -59.054179 
L 266.750521 -54.655213 
L 270.233748 -57.583955 
L 273.716976 -49.10329 
L 277.200203 -44.657804 
L 280.683431 -46.001496 
L 284.166658 -46.350724 
L 287.649886 -49.117045 
L 291.133113 -50.614552 
L 294.616341 -56.706869 
L 298.099568 -58.252082 
L 301.582796 -55.228513 
L 305.066023 -58.606883 
L 308.549251 -59.118146 
L 312.032479 -53.032696 
L 315.515706 -56.750075 
L 318.998934 -53.696401 
L 322.482161 -51.914138 
L 325.965389 -52.765975 
L 329.448616 -56.3265 
L 332.931844 -55.070339 
L 336.415071 -54.065809 
L 339.898299 -57.594249 
L 343.381526 -60.310129 
L 346.864754 -61.683355 
L 350.347981 -63.524886 
L 353.831209 -62.970785 
L 357.314436 -61.588455 
L 360.797664 -63.667728 
L 364.280891 -58.387908 
L 367.764119 -54.813325 
L 371.247346 -54.543122 
L 374.730574 -52.398204 
L 378.213801 -55.161373 
L 381.697029 -54.597969 
L 385.180256 -54.068506 
L 388.663484 -48.328343 
L 392.146711 -49.039419 
L 395.629939 -65.61698 
L 399.113166 -57.378677 
L 402.596394 -59.525336 
L 406.079621 -59.556115 
L 409.562849 -59.888572 
L 413.046076 -56.403231 
L 416.529304 -59.022278 
L 420.012531 -62.010452 
L 423.495759 -64.943635 
L 426.978986 -60.049966 
L 430.462214 -62.616634 
L 433.945441 -62.37831 
L 437.428669 -59.058149 
L 440.911896 -60.107293 
L 444.395124 -62.120797 
L 447.878352 -64.893479 
L 451.361579 -61.186983 
L 454.844807 -58.177466 
L 458.328034 -61.047254 
L 461.811262 -64.465093 
L 465.294489 -61.366968 
L 468.777717 -58.348524 
L 472.260944 -55.67593 
L 475.744172 -48.06167 
L 479.227399 -48.722055 
L 482.710627 -47.347943 
L 486.193854 -45.469183 
L 489.677082 -55.518027 
L 493.160309 -54.835521 
L 496.643537 -51.21299 
L 500.126764 -51.193188 
L 503.609992 -49.026347 
L 507.093219 -51.560099 
L 510.576447 -45.977273 
L 514.059674 -45.785332 
L 517.542902 -52.025421 
L 521.026129 -52.381452 
L 524.509357 -53.249442 
L 527.992584 -46.645424 
L 531.475812 -40.699359 
L 534.959039 -53.18678 
L 538.442267 -53.694807 
L 541.925494 -49.08577 
L 545.408722 -46.674776 
L 548.891949 -46.531844 
L 552.375177 -45.271578 
L 555.858404 -50.042072 
L 559.341632 -50.755854 
L 562.824859 -49.945745 
L 566.308087 -51.406418 
L 569.791314 -52.401424 
L 573.274542 -54.457505 
L 576.75777 -51.610199 
L 580.240997 -56.716702 
L 583.724225 -56.194202 
L 587.207452 -55.500218 
L 590.69068 -58.723332 
L 594.173907 -56.414423 
L 597.657135 -56.908335 
L 601.140362 -60.075874 
L 604.62359 -68.189387 
L 608.106817 -66.959102 
L 611.590045 -64.534715 
L 615.073272 -71.06684 
L 618.5565 -62.173829 
L 622.039727 -66.702712 
L 625.522955 -78.255948 
L 629.006182 -66.494896 
L 632.48941 -62.525031 
L 635.972637 -62.620894 
L 639.455865 -62.38015 
L 642.939092 -60.503144 
L 646.42232 -63.853942 
L 649.905547 -61.21092 
L 653.388775 -60.897047 
L 656.872002 -62.834892 
L 660.35523 -62.91887 
L 663.838457 -64.954373 
L 667.321685 -65.053989 
L 670.804912 -61.248713 
L 674.28814 -62.063906 
L 677.771367 -62.263851 
L 681.254595 -62.581214 
L 684.737822 -58.728569 
L 688.22105 -56.499937 
L 691.704277 -54.74817 
L 695.187505 -56.943338 
L 698.670732 -54.486889 
L 702.15396 -57.754104 
L 705.637188 -56.506289 
L 705.637188 -97.317328 
L 705.637188 -97.317328 
L 702.15396 -98.887182 
L 698.670732 -92.449522 
L 695.187505 -96.662287 
L 691.704277 -98.776433 
L 688.22105 -135.346613 
L 684.737822 -135.9246 
L 681.254595 -129.286161 
L 677.771367 -120.727178 
L 674.28814 -119.82549 
L 670.804912 -123.253673 
L 667.321685 -127.433212 
L 663.838457 -138.251608 
L 660.35523 -145.837744 
L 656.872002 -152.778082 
L 653.388775 -147.122258 
L 649.905547 -150.621494 
L 646.42232 -153.855711 
L 642.939092 -137.328639 
L 639.455865 -121.785991 
L 635.972637 -129.377655 
L 632.48941 -109.422846 
L 629.006182 -129.734589 
L 625.522955 -144.610817 
L 622.039727 -133.549842 
L 618.5565 -136.637215 
L 615.073272 -143.350905 
L 611.590045 -139.798044 
L 608.106817 -134.016653 
L 604.62359 -135.292631 
L 601.140362 -126.01149 
L 597.657135 -139.143877 
L 594.173907 -137.87498 
L 590.69068 -113.767399 
L 587.207452 -120.570611 
L 583.724225 -116.640876 
L 580.240997 -124.992487 
L 576.75777 -138.875735 
L 573.274542 -132.903037 
L 569.791314 -136.796244 
L 566.308087 -138.608744 
L 562.824859 -146.078109 
L 559.341632 -145.603546 
L 555.858404 -157.349305 
L 552.375177 -158.943419 
L 548.891949 -154.381746 
L 545.408722 -158.384676 
L 541.925494 -150.016956 
L 538.442267 -132.124063 
L 534.959039 -124.047846 
L 531.475812 -169.292576 
L 527.992584 -158.764942 
L 524.509357 -124.61856 
L 521.026129 -130.018388 
L 517.542902 -121.295515 
L 514.059674 -144.664141 
L 510.576447 -142.344648 
L 507.093219 -132.654656 
L 503.609992 -141.330927 
L 500.126764 -128.601764 
L 496.643537 -128.222667 
L 493.160309 -118.096785 
L 489.677082 -138.637129 
L 486.193854 -170.611908 
L 482.710627 -173.738831 
L 479.227399 -175.700351 
L 475.744172 -165.217144 
L 472.260944 -136.693788 
L 468.777717 -108.134493 
L 465.294489 -119.238214 
L 461.811262 -113.658411 
L 458.328034 -113.043681 
L 454.844807 -104.152565 
L 451.361579 -104.01168 
L 447.878352 -111.324588 
L 444.395124 -119.869878 
L 440.911896 -118.232738 
L 437.428669 -115.263701 
L 433.945441 -118.568705 
L 430.462214 -125.487224 
L 426.978986 -118.987282 
L 423.495759 -118.833596 
L 420.012531 -110.418394 
L 416.529304 -107.881919 
L 413.046076 -115.973648 
L 409.562849 -113.602792 
L 406.079621 -114.864778 
L 402.596394 -129.481928 
L 399.113166 -137.841792 
L 395.629939 -113.558146 
L 392.146711 -150.788743 
L 388.663484 -156.30015 
L 385.180256 -131.018504 
L 381.697029 -136.021653 
L 378.213801 -128.293023 
L 374.730574 -135.260027 
L 371.247346 -138.468772 
L 367.764119 -128.344081 
L 364.280891 -121.467811 
L 360.797664 -111.589937 
L 357.314436 -110.762441 
L 353.831209 -112.610973 
L 350.347981 -107.565824 
L 346.864754 -111.828266 
L 343.381526 -120.403037 
L 339.898299 -122.346544 
L 336.415071 -123.182926 
L 332.931844 -124.230372 
L 329.448616 -131.601343 
L 325.965389 -130.942387 
L 322.482161 -125.377902 
L 318.998934 -120.256794 
L 315.515706 -118.277094 
L 312.032479 -127.953294 
L 308.549251 -114.324046 
L 305.066023 -122.330493 
L 301.582796 -128.953414 
L 298.099568 -112.715416 
L 294.616341 -111.092632 
L 291.133113 -138.10103 
L 287.649886 -145.895558 
L 284.166658 -164.334237 
L 280.683431 -166.757653 
L 277.200203 -173.639265 
L 273.716976 -141.111077 
L 270.233748 -106.144141 
L 266.750521 -108.298415 
L 263.267293 -111.439335 
L 259.784066 -111.383062 
L 256.300838 -117.256458 
L 252.817611 -118.114231 
L 249.334383 -118.455238 
L 245.851156 -116.308395 
L 242.367928 -115.359421 
L 238.884701 -119.30965 
L 235.401473 -112.507706 
L 231.918246 -107.713209 
L 228.435018 -100.403816 
L 224.951791 -104.681541 
L 221.468563 -108.30979 
L 217.985336 -106.870839 
L 214.502108 -106.037878 
L 211.018881 -107.331976 
L 207.535653 -103.676598 
L 204.052426 -106.304596 
L 200.569198 -101.081958 
L 197.085971 -95.737409 
L 193.602743 -98.821082 
L 190.119516 -99.816204 
L 186.636288 -107.695191 
L 183.153061 -106.064071 
L 179.669833 -100.461942 
L 176.186605 -101.408135 
L 172.703378 -103.169159 
L 169.22015 -101.92997 
L 165.736923 -102.975869 
L 162.253695 -98.888036 
L 158.770468 -101.089047 
L 155.28724 -107.657726 
L 151.804013 -108.838961 
L 148.320785 -104.895891 
L 144.837558 -102.248644 
L 141.35433 -98.934325 
L 137.871103 -102.253733 
L 134.387875 -98.59435 
L 130.904648 -97.114945 
L 127.42142 -96.540671 
L 123.938193 -100.349379 
L 120.454965 -99.091986 
L 116.971738 -98.074714 
L 113.48851 -99.742079 
L 110.005283 -100.57486 
L 106.522055 -99.666559 
L 103.038828 -98.419841 
L 99.5556 -98.127552 
L 96.072373 -101.878806 
L 92.589145 -100.447263 
L 89.105918 -97.998959 
L 85.62269 -101.546352 
L 82.139463 -98.243713 
L 78.656235 -94.337264 
L 75.173008 -106.446269 
L 71.68978 -105.305663 
L 68.206553 -99.474835 
L 64.723325 -98.809698 
L 61.240098 -100.651079 
L 57.75687 -103.087665 
L 54.273643 -99.964396 
L 50.790415 -100.711102 
L 47.307188 -106.794897 
z
" style="stroke: #808080; stroke-opacity: 0.7"/>
    </defs>
    <g clip-path="url(#pf68eb2a74c)">
     <use xlink:href="#mf8c0abcebc" x="0" y="424.5775" style="fill: #808080; fill-opacity: 0.7; stroke: #808080; stroke-opacity: 0.7"/>
    </g>
   </g>
   <g id="line2d_31">
    <path d="M 47.307188 355.610226 
L 50.790415 356.074738 
L 54.273643 353.111152 
L 57.75687 343.923366 
L 61.240098 356.405299 
L 64.723325 355.384818 
L 68.206553 357.848763 
L 71.68978 363.294577 
L 75.173008 358.358388 
L 78.656235 354.335167 
L 82.139463 357.534049 
L 85.62269 355.864781 
L 89.105918 356.768653 
L 92.589145 355.074392 
L 96.072373 354.779078 
L 99.5556 359.404537 
L 103.038828 356.642956 
L 106.522055 360.459592 
L 113.48851 352.560534 
L 116.971738 359.107571 
L 120.454965 362.671211 
L 123.938193 361.183184 
L 127.42142 359.991798 
L 130.904648 363.852021 
L 134.387875 360.177731 
L 137.871103 357.347356 
L 141.35433 359.893756 
L 144.837558 358.89663 
L 148.320785 356.197029 
L 151.804013 348.996753 
L 155.28724 358.201349 
L 158.770468 358.085097 
L 162.253695 351.887412 
L 165.736923 356.049377 
L 169.22015 358.758096 
L 172.703378 361.704879 
L 176.186605 362.056696 
L 179.669833 362.558253 
L 183.153061 361.438771 
L 186.636288 362.500185 
L 190.119516 362.140149 
L 193.602743 363.598756 
L 197.085971 359.191041 
L 200.569198 361.096695 
L 204.052426 356.345279 
L 207.535653 349.382036 
L 211.018881 346.821645 
L 214.502108 318.158606 
L 217.985336 345.186855 
L 221.468563 355.187738 
L 224.951791 354.041083 
L 228.435018 357.440341 
L 231.918246 350.260412 
L 235.401473 340.857091 
L 238.884701 342.470582 
L 242.367928 345.618456 
L 245.851156 342.834422 
L 249.334383 348.798061 
L 252.817611 338.58943 
L 256.300838 339.321861 
L 259.784066 343.647475 
L 263.267293 344.061268 
L 266.750521 351.308305 
L 270.233748 351.60142 
L 273.716976 350.839015 
L 277.200203 356.001059 
L 280.683431 343.818161 
L 284.166658 340.635569 
L 287.649886 343.311429 
L 291.133113 348.786805 
L 294.616341 349.647356 
L 298.099568 341.052352 
L 301.582796 334.841315 
L 305.066023 339.60511 
L 308.549251 331.716862 
L 312.032479 336.559996 
L 315.515706 321.180594 
L 318.998934 320.521487 
L 322.482161 331.144998 
L 325.965389 325.865427 
L 329.448616 338.56523 
L 332.931844 340.161626 
L 336.415071 340.053468 
L 339.898299 346.311915 
L 343.381526 340.408582 
L 346.864754 342.404434 
L 350.347981 337.483674 
L 353.831209 339.275558 
L 357.314436 335.665269 
L 360.797664 303.038898 
L 364.280891 333.583337 
L 367.764119 339.347736 
L 371.247346 331.046847 
L 374.730574 336.388085 
L 381.697029 340.112733 
L 385.180256 346.131096 
L 388.663484 328.545082 
L 392.146711 347.383029 
L 395.629939 342.673394 
L 399.113166 346.163817 
L 402.596394 341.029228 
L 406.079621 331.409623 
L 409.562849 343.508031 
L 413.046076 334.248671 
L 416.529304 340.527334 
L 420.012531 323.58851 
L 423.495759 317.479749 
L 426.978986 339.827462 
L 430.462214 326.290253 
L 433.945441 307.131608 
L 437.428669 335.888503 
L 440.911896 338.86193 
L 444.395124 351.664558 
L 447.878352 349.745981 
L 451.361579 334.360448 
L 454.844807 321.695968 
L 458.328034 347.201271 
L 461.811262 348.20218 
L 465.294489 343.202111 
L 468.777717 321.8307 
L 472.260944 309.24583 
L 475.744172 300.331665 
L 479.227399 293.672947 
L 482.710627 300.118225 
L 486.193854 297.025173 
L 489.677082 324.258525 
L 493.160309 321.309676 
L 496.643537 321.274983 
L 500.126764 316.340318 
L 503.609992 328.952839 
L 507.093219 314.762327 
L 510.576447 315.690403 
L 514.059674 326.853372 
L 517.542902 327.795393 
L 521.026129 311.208572 
L 524.509357 308.247325 
L 527.992584 297.881444 
L 531.475812 282.929945 
L 534.959039 303.351748 
L 541.925494 329.742232 
L 545.408722 309.003571 
L 548.891949 316.867133 
L 552.375177 322.269392 
L 555.858404 325.548447 
L 559.341632 320.34002 
L 562.824859 312.641967 
L 566.308087 318.62875 
L 569.791314 325.773634 
L 573.274542 331.492675 
L 576.75777 332.959449 
L 580.240997 324.2147 
L 583.724225 325.025149 
L 587.207452 305.522475 
L 590.69068 304.398969 
L 594.173907 299.309662 
L 597.657135 292.044584 
L 601.140362 299.323822 
L 604.62359 302.36305 
L 608.106817 318.379142 
L 611.590045 286.226207 
L 615.073272 323.536992 
L 618.5565 301.830568 
L 622.039727 325.142055 
L 625.522955 288.204875 
L 629.006182 285.712153 
L 632.48941 289.215559 
L 635.972637 297.748829 
L 639.455865 320.877527 
L 642.939092 308.749481 
L 646.42232 330.206152 
L 649.905547 323.349279 
L 653.388775 285.490512 
L 656.872002 275.485419 
L 660.35523 273.930772 
L 663.838457 282.865774 
L 667.321685 278.913014 
L 670.804912 295.689907 
L 674.28814 295.651274 
L 677.771367 291.332895 
L 681.254595 312.301253 
L 684.737822 297.517702 
L 688.22105 308.899123 
L 691.704277 299.718778 
L 695.187505 310.935236 
L 698.670732 322.609317 
L 702.15396 323.80094 
L 705.637188 298.763658 
L 705.637188 298.763658 
" clip-path="url(#pf68eb2a74c)" style="fill: none; stroke: #ff8c00; stroke-width: 2.3; stroke-linecap: square"/>
   </g>
   <g id="line2d_32">
    <path d="M 277.200203 384.117812 
L 277.200203 23.837812 
" clip-path="url(#pf68eb2a74c)" style="fill: none; stroke-dasharray: 5.55,2.4; stroke-dashoffset: 0; stroke: #808080; stroke-width: 1.5"/>
   </g>
   <g id="line2d_33">
    <path d="M 475.744172 384.117812 
L 475.744172 23.837812 
" clip-path="url(#pf68eb2a74c)" style="fill: none; stroke-dasharray: 5.55,2.4; stroke-dashoffset: 0; stroke: #808080; stroke-width: 1.5"/>
   </g>
   <g id="patch_3">
    <path d="M 47.307188 384.117812 
L 47.307188 23.837812 
" style="fill: none; stroke: #000000; stroke-width: 0.8; stroke-linejoin: miter; stroke-linecap: square"/>
   </g>
   <g id="patch_4">
    <path d="M 705.637188 384.117812 
L 705.637188 23.837812 
" style="fill: none; stroke: #000000; stroke-width: 0.8; stroke-linejoin: miter; stroke-linecap: square"/>
   </g>
   <g id="patch_5">
    <path d="M 47.307188 384.117812 
L 705.637188 384.117812 
" style="fill: none; stroke: #000000; stroke-width: 0.8; stroke-linejoin: miter; stroke-linecap: square"/>
   </g>
   <g id="patch_6">
    <path d="M 47.307188 23.837812 
L 705.637188 23.837812 
" style="fill: none; stroke: #000000; stroke-width: 0.8; stroke-linejoin: miter; stroke-linecap: square"/>
   </g>
   <g id="text_18">
    <!-- Facial trace: Social anxiety disorder (SAD) (female) -->
    <g transform="translate(197.718437 17.837812) scale(0.14 -0.14)">
     <defs>
      <path id="DejaVuSans-46" d="M 628 4666 
L 3309 4666 
L 3309 4134 
L 1259 4134 
L 1259 2759 
L 3109 2759 
L 3109 2228 
L 1259 2228 
L 1259 0 
L 628 0 
L 628 4666 
z
" transform="scale(0.015625)"/>
      <path id="DejaVuSans-63" d="M 3122 3366 
L 3122 2828 
Q 2878 2963 2633 3030 
Q 2388 3097 2138 3097 
Q 1578 3097 1268 2742 
Q 959 2388 959 1747 
Q 959 1106 1268 751 
Q 1578 397 2138 397 
Q 2388 397 2633 464 
Q 2878 531 3122 666 
L 3122 134 
Q 2881 22 2623 -34 
Q 2366 -91 2075 -91 
Q 1284 -91 818 406 
Q 353 903 353 1747 
Q 353 2603 823 3093 
Q 1294 3584 2113 3584 
Q 2378 3584 2631 3529 
Q 2884 3475 3122 3366 
z
" transform="scale(0.015625)"/>
      <path id="DejaVuSans-6c" d="M 603 4863 
L 1178 4863 
L 1178 0 
L 603 0 
L 603 4863 
z
" transform="scale(0.015625)"/>
      <path id="DejaVuSans-72" d="M 2631 2963 
Q 2534 3019 2420 3045 
Q 2306 3072 2169 3072 
Q 1681 3072 1420 2755 
Q 1159 2438 1159 1844 
L 1159 0 
L 581 0 
L 581 3500 
L 1159 3500 
L 1159 2956 
Q 1341 3275 1631 3429 
Q 1922 3584 2338 3584 
Q 2397 3584 2469 3576 
Q 2541 3569 2628 3553 
L 2631 2963 
z
" transform="scale(0.015625)"/>
      <path id="DejaVuSans-3a" d="M 750 794 
L 1409 794 
L 1409 0 
L 750 0 
L 750 794 
z
M 750 3309 
L 1409 3309 
L 1409 2516 
L 750 2516 
L 750 3309 
z
" transform="scale(0.015625)"/>
      <path id="DejaVuSans-53" d="M 3425 4513 
L 3425 3897 
Q 3066 4069 2747 4153 
Q 2428 4238 2131 4238 
Q 1616 4238 1336 4038 
Q 1056 3838 1056 3469 
Q 1056 3159 1242 3001 
Q 1428 2844 1947 2747 
L 2328 2669 
Q 3034 2534 3370 2195 
Q 3706 1856 3706 1288 
Q 3706 609 3251 259 
Q 2797 -91 1919 -91 
Q 1588 -91 1214 -16 
Q 841 59 441 206 
L 441 856 
Q 825 641 1194 531 
Q 1563 422 1919 422 
Q 2459 422 2753 634 
Q 3047 847 3047 1241 
Q 3047 1584 2836 1778 
Q 2625 1972 2144 2069 
L 1759 2144 
Q 1053 2284 737 2584 
Q 422 2884 422 3419 
Q 422 4038 858 4394 
Q 1294 4750 2059 4750 
Q 2388 4750 2728 4690 
Q 3069 4631 3425 4513 
z
" transform="scale(0.015625)"/>
      <path id="DejaVuSans-6f" d="M 1959 3097 
Q 1497 3097 1228 2736 
Q 959 2375 959 1747 
Q 959 1119 1226 758 
Q 1494 397 1959 397 
Q 2419 397 2687 759 
Q 2956 1122 2956 1747 
Q 2956 2369 2687 2733 
Q 2419 3097 1959 3097 
z
M 1959 3584 
Q 2709 3584 3137 3096 
Q 3566 2609 3566 1747 
Q 3566 888 3137 398 
Q 2709 -91 1959 -91 
Q 1206 -91 779 398 
Q 353 888 353 1747 
Q 353 2609 779 3096 
Q 1206 3584 1959 3584 
z
" transform="scale(0.015625)"/>
      <path id="DejaVuSans-78" d="M 3513 3500 
L 2247 1797 
L 3578 0 
L 2900 0 
L 1881 1375 
L 863 0 
L 184 0 
L 1544 1831 
L 300 3500 
L 978 3500 
L 1906 2253 
L 2834 3500 
L 3513 3500 
z
" transform="scale(0.015625)"/>
      <path id="DejaVuSans-64" d="M 2906 2969 
L 2906 4863 
L 3481 4863 
L 3481 0 
L 2906 0 
L 2906 525 
Q 2725 213 2448 61 
Q 2172 -91 1784 -91 
Q 1150 -91 751 415 
Q 353 922 353 1747 
Q 353 2572 751 3078 
Q 1150 3584 1784 3584 
Q 2172 3584 2448 3432 
Q 2725 3281 2906 2969 
z
M 947 1747 
Q 947 1113 1208 752 
Q 1469 391 1925 391 
Q 2381 391 2643 752 
Q 2906 1113 2906 1747 
Q 2906 2381 2643 2742 
Q 2381 3103 1925 3103 
Q 1469 3103 1208 2742 
Q 947 2381 947 1747 
z
" transform="scale(0.015625)"/>
      <path id="DejaVuSans-44" d="M 1259 4147 
L 1259 519 
L 2022 519 
Q 2988 519 3436 956 
Q 3884 1394 3884 2338 
Q 3884 3275 3436 3711 
Q 2988 4147 2022 4147 
L 1259 4147 
z
M 628 4666 
L 1925 4666 
Q 3281 4666 3915 4102 
Q 4550 3538 4550 2338 
Q 4550 1131 3912 565 
Q 3275 0 1925 0 
L 628 0 
L 628 4666 
z
" transform="scale(0.015625)"/>
      <path id="DejaVuSans-66" d="M 2375 4863 
L 2375 4384 
L 1825 4384 
Q 1516 4384 1395 4259 
Q 1275 4134 1275 3809 
L 1275 3500 
L 2222 3500 
L 2222 3053 
L 1275 3053 
L 1275 0 
L 697 0 
L 697 3053 
L 147 3053 
L 147 3500 
L 697 3500 
L 697 3744 
Q 697 4328 969 4595 
Q 1241 4863 1831 4863 
L 2375 4863 
z
" transform="scale(0.015625)"/>
     </defs>
     <use xlink:href="#DejaVuSans-46"/>
     <use xlink:href="#DejaVuSans-61" transform="translate(48.394531 0)"/>
     <use xlink:href="#DejaVuSans-63" transform="translate(109.673828 0)"/>
     <use xlink:href="#DejaVuSans-69" transform="translate(164.654297 0)"/>
     <use xlink:href="#DejaVuSans-61" transform="translate(192.4375 0)"/>
     <use xlink:href="#DejaVuSans-6c" transform="translate(253.716797 0)"/>
     <use xlink:href="#DejaVuSans-20" transform="translate(281.5 0)"/>
     <use xlink:href="#DejaVuSans-74" transform="translate(313.287109 0)"/>
     <use xlink:href="#DejaVuSans-72" transform="translate(352.496094 0)"/>
     <use xlink:href="#DejaVuSans-61" transform="translate(393.609375 0)"/>
     <use xlink:href="#DejaVuSans-63" transform="translate(454.888672 0)"/>
     <use xlink:href="#DejaVuSans-65" transform="translate(509.869141 0)"/>
     <use xlink:href="#DejaVuSans-3a" transform="translate(571.392578 0)"/>
     <use xlink:href="#DejaVuSans-20" transform="translate(605.083984 0)"/>
     <use xlink:href="#DejaVuSans-53" transform="translate(636.871094 0)"/>
     <use xlink:href="#DejaVuSans-6f" transform="translate(700.347656 0)"/>
     <use xlink:href="#DejaVuSans-63" transform="translate(761.529297 0)"/>
     <use xlink:href="#DejaVuSans-69" transform="translate(816.509766 0)"/>
     <use xlink:href="#DejaVuSans-61" transform="translate(844.292969 0)"/>
     <use xlink:href="#DejaVuSans-6c" transform="translate(905.572266 0)"/>
     <use xlink:href="#DejaVuSans-20" transform="translate(933.355469 0)"/>
     <use xlink:href="#DejaVuSans-61" transform="translate(965.142578 0)"/>
     <use xlink:href="#DejaVuSans-6e" transform="translate(1026.421875 0)"/>
     <use xlink:href="#DejaVuSans-78" transform="translate(1089.800781 0)"/>
     <use xlink:href="#DejaVuSans-69" transform="translate(1148.980469 0)"/>
     <use xlink:href="#DejaVuSans-65" transform="translate(1176.763672 0)"/>
     <use xlink:href="#DejaVuSans-74" transform="translate(1238.287109 0)"/>
     <use xlink:href="#DejaVuSans-79" transform="translate(1277.496094 0)"/>
     <use xlink:href="#DejaVuSans-20" transform="translate(1336.675781 0)"/>
     <use xlink:href="#DejaVuSans-64" transform="translate(1368.462891 0)"/>
     <use xlink:href="#DejaVuSans-69" transform="translate(1431.939453 0)"/>
     <use xlink:href="#DejaVuSans-73" transform="translate(1459.722656 0)"/>
     <use xlink:href="#DejaVuSans-6f" transform="translate(1511.822266 0)"/>
     <use xlink:href="#DejaVuSans-72" transform="translate(1573.003906 0)"/>
     <use xlink:href="#DejaVuSans-64" transform="translate(1612.367188 0)"/>
     <use xlink:href="#DejaVuSans-65" transform="translate(1675.84375 0)"/>
     <use xlink:href="#DejaVuSans-72" transform="translate(1737.367188 0)"/>
     <use xlink:href="#DejaVuSans-20" transform="translate(1778.480469 0)"/>
     <use xlink:href="#DejaVuSans-28" transform="translate(1810.267578 0)"/>
     <use xlink:href="#DejaVuSans-53" transform="translate(1849.28125 0)"/>
     <use xlink:href="#DejaVuSans-41" transform="translate(1914.632812 0)"/>
     <use xlink:href="#DejaVuSans-44" transform="translate(1983.041016 0)"/>
     <use xlink:href="#DejaVuSans-29" transform="translate(2060.042969 0)"/>
     <use xlink:href="#DejaVuSans-20" transform="translate(2099.056641 0)"/>
     <use xlink:href="#DejaVuSans-28" transform="translate(2130.84375 0)"/>
     <use xlink:href="#DejaVuSans-66" transform="translate(2169.857422 0)"/>
     <use xlink:href="#DejaVuSans-65" transform="translate(2205.0625 0)"/>
     <use xlink:href="#DejaVuSans-6d" transform="translate(2266.585938 0)"/>
     <use xlink:href="#DejaVuSans-61" transform="translate(2363.998047 0)"/>
     <use xlink:href="#DejaVuSans-6c" transform="translate(2425.277344 0)"/>
     <use xlink:href="#DejaVuSans-65" transform="translate(2453.060547 0)"/>
     <use xlink:href="#DejaVuSans-29" transform="translate(2514.583984 0)"/>
    </g>
   </g>
   <g id="legend_1">
    <g id="patch_7">
     <path d="M 465.431562 42.096094 
L 487.431562 42.096094 
L 487.431562 34.396094 
L 465.431562 34.396094 
z
" style="fill: #d3d3d3; fill-opacity: 0.5; stroke: #d3d3d3; stroke-opacity: 0.5; stroke-linejoin: miter"/>
    </g>
    <g id="text_19">
     <!-- Social anxiety disorder (SAD) ±2 SD -->
     <g transform="translate(496.231562 42.096094) scale(0.11 -0.11)">
      <defs>
       <path id="DejaVuSans-b1" d="M 2944 4013 
L 2944 2803 
L 4684 2803 
L 4684 2272 
L 2944 2272 
L 2944 1063 
L 2419 1063 
L 2419 2272 
L 678 2272 
L 678 2803 
L 2419 2803 
L 2419 4013 
L 2944 4013 
z
M 678 531 
L 4684 531 
L 4684 0 
L 678 0 
L 678 531 
z
" transform="scale(0.015625)"/>
      </defs>
      <use xlink:href="#DejaVuSans-53"/>
      <use xlink:href="#DejaVuSans-6f" transform="translate(63.476562 0)"/>
      <use xlink:href="#DejaVuSans-63" transform="translate(124.658203 0)"/>
      <use xlink:href="#DejaVuSans-69" transform="translate(179.638672 0)"/>
      <use xlink:href="#DejaVuSans-61" transform="translate(207.421875 0)"/>
      <use xlink:href="#DejaVuSans-6c" transform="translate(268.701172 0)"/>
      <use xlink:href="#DejaVuSans-20" transform="translate(296.484375 0)"/>
      <use xlink:href="#DejaVuSans-61" transform="translate(328.271484 0)"/>
      <use xlink:href="#DejaVuSans-6e" transform="translate(389.550781 0)"/>
      <use xlink:href="#DejaVuSans-78" transform="translate(452.929688 0)"/>
      <use xlink:href="#DejaVuSans-69" transform="translate(512.109375 0)"/>
      <use xlink:href="#DejaVuSans-65" transform="translate(539.892578 0)"/>
      <use xlink:href="#DejaVuSans-74" transform="translate(601.416016 0)"/>
      <use xlink:href="#DejaVuSans-79" transform="translate(640.625 0)"/>
      <use xlink:href="#DejaVuSans-20" transform="translate(699.804688 0)"/>
      <use xlink:href="#DejaVuSans-64" transform="translate(731.591797 0)"/>
      <use xlink:href="#DejaVuSans-69" transform="translate(795.068359 0)"/>
      <use xlink:href="#DejaVuSans-73" transform="translate(822.851562 0)"/>
      <use xlink:href="#DejaVuSans-6f" transform="translate(874.951172 0)"/>
      <use xlink:href="#DejaVuSans-72" transform="translate(936.132812 0)"/>
      <use xlink:href="#DejaVuSans-64" transform="translate(975.496094 0)"/>
      <use xlink:href="#DejaVuSans-65" transform="translate(1038.972656 0)"/>
      <use xlink:href="#DejaVuSans-72" transform="translate(1100.496094 0)"/>
      <use xlink:href="#DejaVuSans-20" transform="translate(1141.609375 0)"/>
      <use xlink:href="#DejaVuSans-28" transform="translate(1173.396484 0)"/>
      <use xlink:href="#DejaVuSans-53" transform="translate(1212.410156 0)"/>
      <use xlink:href="#DejaVuSans-41" transform="translate(1277.761719 0)"/>
      <use xlink:href="#DejaVuSans-44" transform="translate(1346.169922 0)"/>
      <use xlink:href="#DejaVuSans-29" transform="translate(1423.171875 0)"/>
      <use xlink:href="#DejaVuSans-20" transform="translate(1462.185547 0)"/>
      <use xlink:href="#DejaVuSans-b1" transform="translate(1493.972656 0)"/>
      <use xlink:href="#DejaVuSans-32" transform="translate(1577.761719 0)"/>
      <use xlink:href="#DejaVuSans-20" transform="translate(1641.384766 0)"/>
      <use xlink:href="#DejaVuSans-53" transform="translate(1673.171875 0)"/>
      <use xlink:href="#DejaVuSans-44" transform="translate(1736.648438 0)"/>
     </g>
    </g>
    <g id="patch_8">
     <path d="M 465.431562 58.242031 
L 487.431562 58.242031 
L 487.431562 50.542031 
L 465.431562 50.542031 
z
" style="fill: #808080; fill-opacity: 0.7; stroke: #808080; stroke-opacity: 0.7; stroke-linejoin: miter"/>
    </g>
    <g id="text_20">
     <!-- Social anxiety disorder (SAD) ±1 SD -->
     <g transform="translate(496.231562 58.242031) scale(0.11 -0.11)">
      <use xlink:href="#DejaVuSans-53"/>
      <use xlink:href="#DejaVuSans-6f" transform="translate(63.476562 0)"/>
      <use xlink:href="#DejaVuSans-63" transform="translate(124.658203 0)"/>
      <use xlink:href="#DejaVuSans-69" transform="translate(179.638672 0)"/>
      <use xlink:href="#DejaVuSans-61" transform="translate(207.421875 0)"/>
      <use xlink:href="#DejaVuSans-6c" transform="translate(268.701172 0)"/>
      <use xlink:href="#DejaVuSans-20" transform="translate(296.484375 0)"/>
      <use xlink:href="#DejaVuSans-61" transform="translate(328.271484 0)"/>
      <use xlink:href="#DejaVuSans-6e" transform="translate(389.550781 0)"/>
      <use xlink:href="#DejaVuSans-78" transform="translate(452.929688 0)"/>
      <use xlink:href="#DejaVuSans-69" transform="translate(512.109375 0)"/>
      <use xlink:href="#DejaVuSans-65" transform="translate(539.892578 0)"/>
      <use xlink:href="#DejaVuSans-74" transform="translate(601.416016 0)"/>
      <use xlink:href="#DejaVuSans-79" transform="translate(640.625 0)"/>
      <use xlink:href="#DejaVuSans-20" transform="translate(699.804688 0)"/>
      <use xlink:href="#DejaVuSans-64" transform="translate(731.591797 0)"/>
      <use xlink:href="#DejaVuSans-69" transform="translate(795.068359 0)"/>
      <use xlink:href="#DejaVuSans-73" transform="translate(822.851562 0)"/>
      <use xlink:href="#DejaVuSans-6f" transform="translate(874.951172 0)"/>
      <use xlink:href="#DejaVuSans-72" transform="translate(936.132812 0)"/>
      <use xlink:href="#DejaVuSans-64" transform="translate(975.496094 0)"/>
      <use xlink:href="#DejaVuSans-65" transform="translate(1038.972656 0)"/>
      <use xlink:href="#DejaVuSans-72" transform="translate(1100.496094 0)"/>
      <use xlink:href="#DejaVuSans-20" transform="translate(1141.609375 0)"/>
      <use xlink:href="#DejaVuSans-28" transform="translate(1173.396484 0)"/>
      <use xlink:href="#DejaVuSans-53" transform="translate(1212.410156 0)"/>
      <use xlink:href="#DejaVuSans-41" transform="translate(1277.761719 0)"/>
      <use xlink:href="#DejaVuSans-44" transform="translate(1346.169922 0)"/>
      <use xlink:href="#DejaVuSans-29" transform="translate(1423.171875 0)"/>
      <use xlink:href="#DejaVuSans-20" transform="translate(1462.185547 0)"/>
      <use xlink:href="#DejaVuSans-b1" transform="translate(1493.972656 0)"/>
      <use xlink:href="#DejaVuSans-31" transform="translate(1577.761719 0)"/>
      <use xlink:href="#DejaVuSans-20" transform="translate(1641.384766 0)"/>
      <use xlink:href="#DejaVuSans-53" transform="translate(1673.171875 0)"/>
      <use xlink:href="#DejaVuSans-44" transform="translate(1736.648438 0)"/>
     </g>
    </g>
    <g id="line2d_34">
     <path d="M 465.431562 70.537969 
L 476.431562 70.537969 
L 487.431562 70.537969 
" style="fill: none; stroke: #ff8c00; stroke-width: 2.3; stroke-linecap: square"/>
    </g>
    <g id="text_21">
     <!-- Patient -->
     <g transform="translate(496.231562 74.387969) scale(0.11 -0.11)">
      <defs>
       <path id="DejaVuSans-50" d="M 1259 4147 
L 1259 2394 
L 2053 2394 
Q 2494 2394 2734 2622 
Q 2975 2850 2975 3272 
Q 2975 3691 2734 3919 
Q 2494 4147 2053 4147 
L 1259 4147 
z
M 628 4666 
L 2053 4666 
Q 2838 4666 3239 4311 
Q 3641 3956 3641 3272 
Q 3641 2581 3239 2228 
Q 2838 1875 2053 1875 
L 1259 1875 
L 1259 0 
L 628 0 
L 628 4666 
z
" transform="scale(0.015625)"/>
      </defs>
      <use xlink:href="#DejaVuSans-50"/>
      <use xlink:href="#DejaVuSans-61" transform="translate(55.802734 0)"/>
      <use xlink:href="#DejaVuSans-74" transform="translate(117.082031 0)"/>
      <use xlink:href="#DejaVuSans-69" transform="translate(156.291016 0)"/>
      <use xlink:href="#DejaVuSans-65" transform="translate(184.074219 0)"/>
      <use xlink:href="#DejaVuSans-6e" transform="translate(245.597656 0)"/>
      <use xlink:href="#DejaVuSans-74" transform="translate(308.976562 0)"/>
     </g>
    </g>
   </g>
  </g>
 </g>
 <defs>
  <clipPath id="pf68eb2a74c">
   <rect x="47.307188" y="23.837812" width="658.33" height="360.28"/>
  </clipPath>
 </defs>
</svg>
