<?xml version="1.0" encoding="utf-8" standalone="no"?>
<!DOCTYPE svg PUBLIC "-//W3C//DTD SVG 1.1//EN"
  "http://www.w3.org/Graphics/SVG/1.1/DTD/svg11.dtd">
<svg xmlns:xlink="http://www.w3.org/1999/xlink" width="712.837188pt" height="424.5775pt" viewBox="0 0 712.837188 424.5775" xmlns="http://www.w3.org/2000/svg" version="1.1">
 <metadata>
  <rdf:RDF xmlns:dc="http://purl.org/dc/elements/1.1/" xmlns:cc="http://creativecommons.org/ns#" xmlns:rdf="http://www.w3.org/1999/02/22-rdf-syntax-ns#">
   <cc:Work>
    <dc:type rdf:resource="http://purl.org/dc/dcmitype/StillImage"/>
    <dc:date>2026-06-14T19:06:49.725526</dc:date>
    <dc:format>image/svg+xml</dc:format>
    <dc:creator>
     <cc:Agent>
      <dc:title>Matplotlib v3.10.1, https://matplotlib.org/</dc:title>
     </cc:Agent>
    </dc:creator>
   </cc:Work>
  </rdf:RDF>
 </metadata>
 <defs>
  <style type="text/css">*{stroke-linejoin: round; stroke-linecap: butt}</style>
 </defs>
 <g id="figure_1">
  <g id="patch_1">
   <path d="M 0 424.5775 
L 712.837188 424.5775 
L 712.837188 0 
L 0 0 
z
" style="fill: #ffffff"/>
  </g>
  <g id="axes_1">
   <g id="patch_2">
    <path d="M 47.307188 384.117812 
L 705.637188 384.117812 
L 705.637188 23.837812 
L 47.307188 23.837812 
z
" style="fill: #ffffff"/>
   </g>
   <g id="matplotlib.axis_1">
    <g id="xtick_1">
     <g id="line2d_1">
      <path d="M 47.307188 384.117812 
L 47.307188 23.837812 
" clip-path="url(#p8449227450)" style="fill: none; stroke: #b0b0b0; stroke-opacity: 0.2; stroke-width: 0.6; stroke-linecap: square"/>
     </g>
     <g id="line2d_2">
      <defs>
       <path id="m7f1b54b477" d="M 0 0 
L 0 3.5 
" style="stroke: #000000; stroke-width: 0.8"/>
      </defs>
      <g>
       <use xlink:href="#m7f1b54b477" x="47.307188" y="384.117812" style="stroke: #000000; stroke-width: 0.8"/>
      </g>
     </g>
     <g id="text_1">
      <!-- 0 -->
      <g transform="translate(43.807813 399.476094) scale(0.11 -0.11)">
       <defs>
        <path id="DejaVuSans-30" d="M 2034 4250 
Q 1547 4250 1301 3770 
Q 1056 3291 1056 2328 
Q 1056 1369 1301 889 
Q 1547 409 2034 409 
Q 2525 409 2770 889 
Q 3016 1369 3016 2328 
Q 3016 3291 2770 3770 
Q 2525 4250 2034 4250 
z
M 2034 4750 
Q 2819 4750 3233 4129 
Q 3647 3509 3647 2328 
Q 3647 1150 3233 529 
Q 2819 -91 2034 -91 
Q 1250 -91 836 529 
Q 422 1150 422 2328 
Q 422 3509 836 4129 
Q 1250 4750 2034 4750 
z
" transform="scale(0.015625)"/>
       </defs>
       <use xlink:href="#DejaVuSans-30"/>
      </g>
     </g>
    </g>
    <g id="xtick_2">
     <g id="line2d_3">
      <path d="M 134.387875 384.117812 
L 134.387875 23.837812 
" clip-path="url(#p8449227450)" style="fill: none; stroke: #b0b0b0; stroke-opacity: 0.2; stroke-width: 0.6; stroke-linecap: square"/>
     </g>
     <g id="line2d_4">
      <g>
       <use xlink:href="#m7f1b54b477" x="134.387875" y="384.117812" style="stroke: #000000; stroke-width: 0.8"/>
      </g>
     </g>
     <g id="text_2">
      <!-- 25 -->
      <g transform="translate(127.389125 399.476094) scale(0.11 -0.11)">
       <defs>
        <path id="DejaVuSans-32" d="M 1228 531 
L 3431 531 
L 3431 0 
L 469 0 
L 469 531 
Q 828 903 1448 1529 
Q 2069 2156 2228 2338 
Q 2531 2678 2651 2914 
Q 2772 3150 2772 3378 
Q 2772 3750 2511 3984 
Q 2250 4219 1831 4219 
Q 1534 4219 1204 4116 
Q 875 4013 500 3803 
L 500 4441 
Q 881 4594 1212 4672 
Q 1544 4750 1819 4750 
Q 2544 4750 2975 4387 
Q 3406 4025 3406 3419 
Q 3406 3131 3298 2873 
Q 3191 2616 2906 2266 
Q 2828 2175 2409 1742 
Q 1991 1309 1228 531 
z
" transform="scale(0.015625)"/>
        <path id="DejaVuSans-35" d="M 691 4666 
L 3169 4666 
L 3169 4134 
L 1269 4134 
L 1269 2991 
Q 1406 3038 1543 3061 
Q 1681 3084 1819 3084 
Q 2600 3084 3056 2656 
Q 3513 2228 3513 1497 
Q 3513 744 3044 326 
Q 2575 -91 1722 -91 
Q 1428 -91 1123 -41 
Q 819 9 494 109 
L 494 744 
Q 775 591 1075 516 
Q 1375 441 1709 441 
Q 2250 441 2565 725 
Q 2881 1009 2881 1497 
Q 2881 1984 2565 2268 
Q 2250 2553 1709 2553 
Q 1456 2553 1204 2497 
Q 953 2441 691 2322 
L 691 4666 
z
" transform="scale(0.015625)"/>
       </defs>
       <use xlink:href="#DejaVuSans-32"/>
       <use xlink:href="#DejaVuSans-35" transform="translate(63.623047 0)"/>
      </g>
     </g>
    </g>
    <g id="xtick_3">
     <g id="line2d_5">
      <path d="M 221.468563 384.117812 
L 221.468563 23.837812 
" clip-path="url(#p8449227450)" style="fill: none; stroke: #b0b0b0; stroke-opacity: 0.2; stroke-width: 0.6; stroke-linecap: square"/>
     </g>
     <g id="line2d_6">
      <g>
       <use xlink:href="#m7f1b54b477" x="221.468563" y="384.117812" style="stroke: #000000; stroke-width: 0.8"/>
      </g>
     </g>
     <g id="text_3">
      <!-- 50 -->
      <g transform="translate(214.469813 399.476094) scale(0.11 -0.11)">
       <use xlink:href="#DejaVuSans-35"/>
       <use xlink:href="#DejaVuSans-30" transform="translate(63.623047 0)"/>
      </g>
     </g>
    </g>
    <g id="xtick_4">
     <g id="line2d_7">
      <path d="M 308.549251 384.117812 
L 308.549251 23.837812 
" clip-path="url(#p8449227450)" style="fill: none; stroke: #b0b0b0; stroke-opacity: 0.2; stroke-width: 0.6; stroke-linecap: square"/>
     </g>
     <g id="line2d_8">
      <g>
       <use xlink:href="#m7f1b54b477" x="308.549251" y="384.117812" style="stroke: #000000; stroke-width: 0.8"/>
      </g>
     </g>
     <g id="text_4">
      <!-- 75 -->
      <g transform="translate(301.550501 399.476094) scale(0.11 -0.11)">
       <defs>
        <path id="DejaVuSans-37" d="M 525 4666 
L 3525 4666 
L 3525 4397 
L 1831 0 
L 1172 0 
L 2766 4134 
L 525 4134 
L 525 4666 
z
" transform="scale(0.015625)"/>
       </defs>
       <use xlink:href="#DejaVuSans-37"/>
       <use xlink:href="#DejaVuSans-35" transform="translate(63.623047 0)"/>
      </g>
     </g>
    </g>
    <g id="xtick_5">
     <g id="line2d_9">
      <path d="M 395.629939 384.117812 
L 395.629939 23.837812 
" clip-path="url(#p8449227450)" style="fill: none; stroke: #b0b0b0; stroke-opacity: 0.2; stroke-width: 0.6; stroke-linecap: square"/>
     </g>
     <g id="line2d_10">
      <g>
       <use xlink:href="#m7f1b54b477" x="395.629939" y="384.117812" style="stroke: #000000; stroke-width: 0.8"/>
      </g>
     </g>
     <g id="text_5">
      <!-- 100 -->
      <g transform="translate(385.131814 399.476094) scale(0.11 -0.11)">
       <defs>
        <path id="DejaVuSans-31" d="M 794 531 
L 1825 531 
L 1825 4091 
L 703 3866 
L 703 4441 
L 1819 4666 
L 2450 4666 
L 2450 531 
L 3481 531 
L 3481 0 
L 794 0 
L 794 531 
z
" transform="scale(0.015625)"/>
       </defs>
       <use xlink:href="#DejaVuSans-31"/>
       <use xlink:href="#DejaVuSans-30" transform="translate(63.623047 0)"/>
       <use xlink:href="#DejaVuSans-30" transform="translate(127.246094 0)"/>
      </g>
     </g>
    </g>
    <g id="xtick_6">
     <g id="line2d_11">
      <path d="M 482.710627 384.117812 
L 482.710627 23.837812 
" clip-path="url(#p8449227450)" style="fill: none; stroke: #b0b0b0; stroke-opacity: 0.2; stroke-width: 0.6; stroke-linecap: square"/>
     </g>
     <g id="line2d_12">
      <g>
       <use xlink:href="#m7f1b54b477" x="482.710627" y="384.117812" style="stroke: #000000; stroke-width: 0.8"/>
      </g>
     </g>
     <g id="text_6">
      <!-- 125 -->
      <g transform="translate(472.212502 399.476094) scale(0.11 -0.11)">
       <use xlink:href="#DejaVuSans-31"/>
       <use xlink:href="#DejaVuSans-32" transform="translate(63.623047 0)"/>
       <use xlink:href="#DejaVuSans-35" transform="translate(127.246094 0)"/>
      </g>
     </g>
    </g>
    <g id="xtick_7">
     <g id="line2d_13">
      <path d="M 569.791314 384.117812 
L 569.791314 23.837812 
" clip-path="url(#p8449227450)" style="fill: none; stroke: #b0b0b0; stroke-opacity: 0.2; stroke-width: 0.6; stroke-linecap: square"/>
     </g>
     <g id="line2d_14">
      <g>
       <use xlink:href="#m7f1b54b477" x="569.791314" y="384.117812" style="stroke: #000000; stroke-width: 0.8"/>
      </g>
     </g>
     <g id="text_7">
      <!-- 150 -->
      <g transform="translate(559.293189 399.476094) scale(0.11 -0.11)">
       <use xlink:href="#DejaVuSans-31"/>
       <use xlink:href="#DejaVuSans-35" transform="translate(63.623047 0)"/>
       <use xlink:href="#DejaVuSans-30" transform="translate(127.246094 0)"/>
      </g>
     </g>
    </g>
    <g id="xtick_8">
     <g id="line2d_15">
      <path d="M 656.872002 384.117812 
L 656.872002 23.837812 
" clip-path="url(#p8449227450)" style="fill: none; stroke: #b0b0b0; stroke-opacity: 0.2; stroke-width: 0.6; stroke-linecap: square"/>
     </g>
     <g id="line2d_16">
      <g>
       <use xlink:href="#m7f1b54b477" x="656.872002" y="384.117812" style="stroke: #000000; stroke-width: 0.8"/>
      </g>
     </g>
     <g id="text_8">
      <!-- 175 -->
      <g transform="translate(646.373877 399.476094) scale(0.11 -0.11)">
       <use xlink:href="#DejaVuSans-31"/>
       <use xlink:href="#DejaVuSans-37" transform="translate(63.623047 0)"/>
       <use xlink:href="#DejaVuSans-35" transform="translate(127.246094 0)"/>
      </g>
     </g>
    </g>
    <g id="text_9">
     <!-- Time (s) -->
     <g transform="translate(352.0775 414.881875) scale(0.12 -0.12)">
      <defs>
       <path id="DejaVuSans-54" d="M -19 4666 
L 3928 4666 
L 3928 4134 
L 2272 4134 
L 2272 0 
L 1638 0 
L 1638 4134 
L -19 4134 
L -19 4666 
z
" transform="scale(0.015625)"/>
       <path id="DejaVuSans-69" d="M 603 3500 
L 1178 3500 
L 1178 0 
L 603 0 
L 603 3500 
z
M 603 4863 
L 1178 4863 
L 1178 4134 
L 603 4134 
L 603 4863 
z
" transform="scale(0.015625)"/>
       <path id="DejaVuSans-6d" d="M 3328 2828 
Q 3544 3216 3844 3400 
Q 4144 3584 4550 3584 
Q 5097 3584 5394 3201 
Q 5691 2819 5691 2113 
L 5691 0 
L 5113 0 
L 5113 2094 
Q 5113 2597 4934 2840 
Q 4756 3084 4391 3084 
Q 3944 3084 3684 2787 
Q 3425 2491 3425 1978 
L 3425 0 
L 2847 0 
L 2847 2094 
Q 2847 2600 2669 2842 
Q 2491 3084 2119 3084 
Q 1678 3084 1418 2786 
Q 1159 2488 1159 1978 
L 1159 0 
L 581 0 
L 581 3500 
L 1159 3500 
L 1159 2956 
Q 1356 3278 1631 3431 
Q 1906 3584 2284 3584 
Q 2666 3584 2933 3390 
Q 3200 3197 3328 2828 
z
" transform="scale(0.015625)"/>
       <path id="DejaVuSans-65" d="M 3597 1894 
L 3597 1613 
L 953 1613 
Q 991 1019 1311 708 
Q 1631 397 2203 397 
Q 2534 397 2845 478 
Q 3156 559 3463 722 
L 3463 178 
Q 3153 47 2828 -22 
Q 2503 -91 2169 -91 
Q 1331 -91 842 396 
Q 353 884 353 1716 
Q 353 2575 817 3079 
Q 1281 3584 2069 3584 
Q 2775 3584 3186 3129 
Q 3597 2675 3597 1894 
z
M 3022 2063 
Q 3016 2534 2758 2815 
Q 2500 3097 2075 3097 
Q 1594 3097 1305 2825 
Q 1016 2553 972 2059 
L 3022 2063 
z
" transform="scale(0.015625)"/>
       <path id="DejaVuSans-20" transform="scale(0.015625)"/>
       <path id="DejaVuSans-28" d="M 1984 4856 
Q 1566 4138 1362 3434 
Q 1159 2731 1159 2009 
Q 1159 1288 1364 580 
Q 1569 -128 1984 -844 
L 1484 -844 
Q 1016 -109 783 600 
Q 550 1309 550 2009 
Q 550 2706 781 3412 
Q 1013 4119 1484 4856 
L 1984 4856 
z
" transform="scale(0.015625)"/>
       <path id="DejaVuSans-73" d="M 2834 3397 
L 2834 2853 
Q 2591 2978 2328 3040 
Q 2066 3103 1784 3103 
Q 1356 3103 1142 2972 
Q 928 2841 928 2578 
Q 928 2378 1081 2264 
Q 1234 2150 1697 2047 
L 1894 2003 
Q 2506 1872 2764 1633 
Q 3022 1394 3022 966 
Q 3022 478 2636 193 
Q 2250 -91 1575 -91 
Q 1294 -91 989 -36 
Q 684 19 347 128 
L 347 722 
Q 666 556 975 473 
Q 1284 391 1588 391 
Q 1994 391 2212 530 
Q 2431 669 2431 922 
Q 2431 1156 2273 1281 
Q 2116 1406 1581 1522 
L 1381 1569 
Q 847 1681 609 1914 
Q 372 2147 372 2553 
Q 372 3047 722 3315 
Q 1072 3584 1716 3584 
Q 2034 3584 2315 3537 
Q 2597 3491 2834 3397 
z
" transform="scale(0.015625)"/>
       <path id="DejaVuSans-29" d="M 513 4856 
L 1013 4856 
Q 1481 4119 1714 3412 
Q 1947 2706 1947 2009 
Q 1947 1309 1714 600 
Q 1481 -109 1013 -844 
L 513 -844 
Q 928 -128 1133 580 
Q 1338 1288 1338 2009 
Q 1338 2731 1133 3434 
Q 928 4138 513 4856 
z
" transform="scale(0.015625)"/>
      </defs>
      <use xlink:href="#DejaVuSans-54"/>
      <use xlink:href="#DejaVuSans-69" transform="translate(57.958984 0)"/>
      <use xlink:href="#DejaVuSans-6d" transform="translate(85.742188 0)"/>
      <use xlink:href="#DejaVuSans-65" transform="translate(183.154297 0)"/>
      <use xlink:href="#DejaVuSans-20" transform="translate(244.677734 0)"/>
      <use xlink:href="#DejaVuSans-28" transform="translate(276.464844 0)"/>
      <use xlink:href="#DejaVuSans-73" transform="translate(315.478516 0)"/>
      <use xlink:href="#DejaVuSans-29" transform="translate(367.578125 0)"/>
     </g>
    </g>
   </g>
   <g id="matplotlib.axis_2">
    <g id="ytick_1">
     <g id="line2d_17">
      <path d="M 47.307188 367.741449 
L 705.637188 367.741449 
" clip-path="url(#p8449227450)" style="fill: none; stroke: #b0b0b0; stroke-opacity: 0.2; stroke-width: 0.6; stroke-linecap: square"/>
     </g>
     <g id="line2d_18">
      <defs>
       <path id="m1e205e01ad" d="M 0 0 
L -3.5 0 
" style="stroke: #000000; stroke-width: 0.8"/>
      </defs>
      <g>
       <use xlink:href="#m1e205e01ad" x="47.307188" y="367.741449" style="stroke: #000000; stroke-width: 0.8"/>
      </g>
     </g>
     <g id="text_10">
      <!-- 0.0 -->
      <g transform="translate(22.81375 371.920589) scale(0.11 -0.11)">
       <defs>
        <path id="DejaVuSans-2e" d="M 684 794 
L 1344 794 
L 1344 0 
L 684 0 
L 684 794 
z
" transform="scale(0.015625)"/>
       </defs>
       <use xlink:href="#DejaVuSans-30"/>
       <use xlink:href="#DejaVuSans-2e" transform="translate(63.623047 0)"/>
       <use xlink:href="#DejaVuSans-30" transform="translate(95.410156 0)"/>
      </g>
     </g>
    </g>
    <g id="ytick_2">
     <g id="line2d_19">
      <path d="M 47.307188 317.507205 
L 705.637188 317.507205 
" clip-path="url(#p8449227450)" style="fill: none; stroke: #b0b0b0; stroke-opacity: 0.2; stroke-width: 0.6; stroke-linecap: square"/>
     </g>
     <g id="line2d_20">
      <g>
       <use xlink:href="#m1e205e01ad" x="47.307188" y="317.507205" style="stroke: #000000; stroke-width: 0.8"/>
      </g>
     </g>
     <g id="text_11">
      <!-- 0.5 -->
      <g transform="translate(22.81375 321.686345) scale(0.11 -0.11)">
       <use xlink:href="#DejaVuSans-30"/>
       <use xlink:href="#DejaVuSans-2e" transform="translate(63.623047 0)"/>
       <use xlink:href="#DejaVuSans-35" transform="translate(95.410156 0)"/>
      </g>
     </g>
    </g>
    <g id="ytick_3">
     <g id="line2d_21">
      <path d="M 47.307188 267.27296 
L 705.637188 267.27296 
" clip-path="url(#p8449227450)" style="fill: none; stroke: #b0b0b0; stroke-opacity: 0.2; stroke-width: 0.6; stroke-linecap: square"/>
     </g>
     <g id="line2d_22">
      <g>
       <use xlink:href="#m1e205e01ad" x="47.307188" y="267.27296" style="stroke: #000000; stroke-width: 0.8"/>
      </g>
     </g>
     <g id="text_12">
      <!-- 1.0 -->
      <g transform="translate(22.81375 271.452101) scale(0.11 -0.11)">
       <use xlink:href="#DejaVuSans-31"/>
       <use xlink:href="#DejaVuSans-2e" transform="translate(63.623047 0)"/>
       <use xlink:href="#DejaVuSans-30" transform="translate(95.410156 0)"/>
      </g>
     </g>
    </g>
    <g id="ytick_4">
     <g id="line2d_23">
      <path d="M 47.307188 217.038716 
L 705.637188 217.038716 
" clip-path="url(#p8449227450)" style="fill: none; stroke: #b0b0b0; stroke-opacity: 0.2; stroke-width: 0.6; stroke-linecap: square"/>
     </g>
     <g id="line2d_24">
      <g>
       <use xlink:href="#m1e205e01ad" x="47.307188" y="217.038716" style="stroke: #000000; stroke-width: 0.8"/>
      </g>
     </g>
     <g id="text_13">
      <!-- 1.5 -->
      <g transform="translate(22.81375 221.217857) scale(0.11 -0.11)">
       <use xlink:href="#DejaVuSans-31"/>
       <use xlink:href="#DejaVuSans-2e" transform="translate(63.623047 0)"/>
       <use xlink:href="#DejaVuSans-35" transform="translate(95.410156 0)"/>
      </g>
     </g>
    </g>
    <g id="ytick_5">
     <g id="line2d_25">
      <path d="M 47.307188 166.804472 
L 705.637188 166.804472 
" clip-path="url(#p8449227450)" style="fill: none; stroke: #b0b0b0; stroke-opacity: 0.2; stroke-width: 0.6; stroke-linecap: square"/>
     </g>
     <g id="line2d_26">
      <g>
       <use xlink:href="#m1e205e01ad" x="47.307188" y="166.804472" style="stroke: #000000; stroke-width: 0.8"/>
      </g>
     </g>
     <g id="text_14">
      <!-- 2.0 -->
      <g transform="translate(22.81375 170.983612) scale(0.11 -0.11)">
       <use xlink:href="#DejaVuSans-32"/>
       <use xlink:href="#DejaVuSans-2e" transform="translate(63.623047 0)"/>
       <use xlink:href="#DejaVuSans-30" transform="translate(95.410156 0)"/>
      </g>
     </g>
    </g>
    <g id="ytick_6">
     <g id="line2d_27">
      <path d="M 47.307188 116.570227 
L 705.637188 116.570227 
" clip-path="url(#p8449227450)" style="fill: none; stroke: #b0b0b0; stroke-opacity: 0.2; stroke-width: 0.6; stroke-linecap: square"/>
     </g>
     <g id="line2d_28">
      <g>
       <use xlink:href="#m1e205e01ad" x="47.307188" y="116.570227" style="stroke: #000000; stroke-width: 0.8"/>
      </g>
     </g>
     <g id="text_15">
      <!-- 2.5 -->
      <g transform="translate(22.81375 120.749368) scale(0.11 -0.11)">
       <use xlink:href="#DejaVuSans-32"/>
       <use xlink:href="#DejaVuSans-2e" transform="translate(63.623047 0)"/>
       <use xlink:href="#DejaVuSans-35" transform="translate(95.410156 0)"/>
      </g>
     </g>
    </g>
    <g id="ytick_7">
     <g id="line2d_29">
      <path d="M 47.307188 66.335983 
L 705.637188 66.335983 
" clip-path="url(#p8449227450)" style="fill: none; stroke: #b0b0b0; stroke-opacity: 0.2; stroke-width: 0.6; stroke-linecap: square"/>
     </g>
     <g id="line2d_30">
      <g>
       <use xlink:href="#m1e205e01ad" x="47.307188" y="66.335983" style="stroke: #000000; stroke-width: 0.8"/>
      </g>
     </g>
     <g id="text_16">
      <!-- 3.0 -->
      <g transform="translate(22.81375 70.515124) scale(0.11 -0.11)">
       <defs>
        <path id="DejaVuSans-33" d="M 2597 2516 
Q 3050 2419 3304 2112 
Q 3559 1806 3559 1356 
Q 3559 666 3084 287 
Q 2609 -91 1734 -91 
Q 1441 -91 1130 -33 
Q 819 25 488 141 
L 488 750 
Q 750 597 1062 519 
Q 1375 441 1716 441 
Q 2309 441 2620 675 
Q 2931 909 2931 1356 
Q 2931 1769 2642 2001 
Q 2353 2234 1838 2234 
L 1294 2234 
L 1294 2753 
L 1863 2753 
Q 2328 2753 2575 2939 
Q 2822 3125 2822 3475 
Q 2822 3834 2567 4026 
Q 2313 4219 1838 4219 
Q 1578 4219 1281 4162 
Q 984 4106 628 3988 
L 628 4550 
Q 988 4650 1302 4700 
Q 1616 4750 1894 4750 
Q 2613 4750 3031 4423 
Q 3450 4097 3450 3541 
Q 3450 3153 3228 2886 
Q 3006 2619 2597 2516 
z
" transform="scale(0.015625)"/>
       </defs>
       <use xlink:href="#DejaVuSans-33"/>
       <use xlink:href="#DejaVuSans-2e" transform="translate(63.623047 0)"/>
       <use xlink:href="#DejaVuSans-30" transform="translate(95.410156 0)"/>
      </g>
     </g>
    </g>
    <g id="text_17">
     <!-- AU mean intensity -->
     <g transform="translate(16.318125 259.314687) rotate(-90) scale(0.12 -0.12)">
      <defs>
       <path id="DejaVuSans-41" d="M 2188 4044 
L 1331 1722 
L 3047 1722 
L 2188 4044 
z
M 1831 4666 
L 2547 4666 
L 4325 0 
L 3669 0 
L 3244 1197 
L 1141 1197 
L 716 0 
L 50 0 
L 1831 4666 
z
" transform="scale(0.015625)"/>
       <path id="DejaVuSans-55" d="M 556 4666 
L 1191 4666 
L 1191 1831 
Q 1191 1081 1462 751 
Q 1734 422 2344 422 
Q 2950 422 3222 751 
Q 3494 1081 3494 1831 
L 3494 4666 
L 4128 4666 
L 4128 1753 
Q 4128 841 3676 375 
Q 3225 -91 2344 -91 
Q 1459 -91 1007 375 
Q 556 841 556 1753 
L 556 4666 
z
" transform="scale(0.015625)"/>
       <path id="DejaVuSans-61" d="M 2194 1759 
Q 1497 1759 1228 1600 
Q 959 1441 959 1056 
Q 959 750 1161 570 
Q 1363 391 1709 391 
Q 2188 391 2477 730 
Q 2766 1069 2766 1631 
L 2766 1759 
L 2194 1759 
z
M 3341 1997 
L 3341 0 
L 2766 0 
L 2766 531 
Q 2569 213 2275 61 
Q 1981 -91 1556 -91 
Q 1019 -91 701 211 
Q 384 513 384 1019 
Q 384 1609 779 1909 
Q 1175 2209 1959 2209 
L 2766 2209 
L 2766 2266 
Q 2766 2663 2505 2880 
Q 2244 3097 1772 3097 
Q 1472 3097 1187 3025 
Q 903 2953 641 2809 
L 641 3341 
Q 956 3463 1253 3523 
Q 1550 3584 1831 3584 
Q 2591 3584 2966 3190 
Q 3341 2797 3341 1997 
z
" transform="scale(0.015625)"/>
       <path id="DejaVuSans-6e" d="M 3513 2113 
L 3513 0 
L 2938 0 
L 2938 2094 
Q 2938 2591 2744 2837 
Q 2550 3084 2163 3084 
Q 1697 3084 1428 2787 
Q 1159 2491 1159 1978 
L 1159 0 
L 581 0 
L 581 3500 
L 1159 3500 
L 1159 2956 
Q 1366 3272 1645 3428 
Q 1925 3584 2291 3584 
Q 2894 3584 3203 3211 
Q 3513 2838 3513 2113 
z
" transform="scale(0.015625)"/>
       <path id="DejaVuSans-74" d="M 1172 4494 
L 1172 3500 
L 2356 3500 
L 2356 3053 
L 1172 3053 
L 1172 1153 
Q 1172 725 1289 603 
Q 1406 481 1766 481 
L 2356 481 
L 2356 0 
L 1766 0 
Q 1100 0 847 248 
Q 594 497 594 1153 
L 594 3053 
L 172 3053 
L 172 3500 
L 594 3500 
L 594 4494 
L 1172 4494 
z
" transform="scale(0.015625)"/>
       <path id="DejaVuSans-79" d="M 2059 -325 
Q 1816 -950 1584 -1140 
Q 1353 -1331 966 -1331 
L 506 -1331 
L 506 -850 
L 844 -850 
Q 1081 -850 1212 -737 
Q 1344 -625 1503 -206 
L 1606 56 
L 191 3500 
L 800 3500 
L 1894 763 
L 2988 3500 
L 3597 3500 
L 2059 -325 
z
" transform="scale(0.015625)"/>
      </defs>
      <use xlink:href="#DejaVuSans-41"/>
      <use xlink:href="#DejaVuSans-55" transform="translate(68.408203 0)"/>
      <use xlink:href="#DejaVuSans-20" transform="translate(141.601562 0)"/>
      <use xlink:href="#DejaVuSans-6d" transform="translate(173.388672 0)"/>
      <use xlink:href="#DejaVuSans-65" transform="translate(270.800781 0)"/>
      <use xlink:href="#DejaVuSans-61" transform="translate(332.324219 0)"/>
      <use xlink:href="#DejaVuSans-6e" transform="translate(393.603516 0)"/>
      <use xlink:href="#DejaVuSans-20" transform="translate(456.982422 0)"/>
      <use xlink:href="#DejaVuSans-69" transform="translate(488.769531 0)"/>
      <use xlink:href="#DejaVuSans-6e" transform="translate(516.552734 0)"/>
      <use xlink:href="#DejaVuSans-74" transform="translate(579.931641 0)"/>
      <use xlink:href="#DejaVuSans-65" transform="translate(619.140625 0)"/>
      <use xlink:href="#DejaVuSans-6e" transform="translate(680.664062 0)"/>
      <use xlink:href="#DejaVuSans-73" transform="translate(744.042969 0)"/>
      <use xlink:href="#DejaVuSans-69" transform="translate(796.142578 0)"/>
      <use xlink:href="#DejaVuSans-74" transform="translate(823.925781 0)"/>
      <use xlink:href="#DejaVuSans-79" transform="translate(863.134766 0)"/>
     </g>
    </g>
   </g>
   <g id="FillBetweenPolyCollection_1">
    <defs>
     <path id="mba972f7ede" d="M 47.307188 -121.003179 
L 47.307188 -37.659968 
L 50.790415 -28.474263 
L 54.273643 -11.074211 
L 57.75687 -22.285073 
L 61.240098 -28.946218 
L 64.723325 -41.602873 
L 68.206553 -38.369376 
L 71.68978 -28.025254 
L 75.173008 -33.834908 
L 78.656235 -34.817819 
L 82.139463 -29.502686 
L 85.62269 -30.064552 
L 89.105918 -32.341309 
L 92.589145 -30.824838 
L 96.072373 -25.74537 
L 99.5556 -27.090806 
L 103.038828 -36.008813 
L 106.522055 -26.368826 
L 110.005283 -27.253863 
L 113.48851 -22.019748 
L 116.971738 3.786287 
L 120.454965 -2.243731 
L 123.938193 -7.904088 
L 127.42142 -4.140986 
L 130.904648 -6.189211 
L 134.387875 -5.944102 
L 137.871103 -4.720764 
L 141.35433 0.471443 
L 144.837558 -0.466356 
L 148.320785 -0.461254 
L 151.804013 -1.3885 
L 155.28724 -6.625264 
L 158.770468 -14.137773 
L 162.253695 -12.018261 
L 165.736923 -18.028184 
L 169.22015 -9.623283 
L 172.703378 -12.514577 
L 176.186605 -20.748671 
L 179.669833 -16.606006 
L 183.153061 -21.580669 
L 186.636288 -37.800744 
L 190.119516 -31.231622 
L 193.602743 -36.707059 
L 197.085971 -41.01356 
L 200.569198 -46.601011 
L 204.052426 -49.002601 
L 207.535653 -28.203332 
L 211.018881 -45.025055 
L 214.502108 -46.751919 
L 217.985336 -48.913417 
L 221.468563 -46.987814 
L 224.951791 -37.187965 
L 228.435018 -40.790729 
L 231.918246 -48.178471 
L 235.401473 -44.977386 
L 238.884701 -43.230554 
L 242.367928 -48.047651 
L 245.851156 -47.926601 
L 249.334383 -49.217928 
L 252.817611 -51.096892 
L 256.300838 -44.673024 
L 259.784066 -33.710327 
L 263.267293 -29.44469 
L 266.750521 -30.787145 
L 270.233748 -23.926344 
L 273.716976 -32.139968 
L 277.200203 -26.299724 
L 280.683431 -27.699554 
L 284.166658 -28.253571 
L 287.649886 -15.874779 
L 291.133113 -17.938384 
L 294.616341 -14.918505 
L 298.099568 -14.34755 
L 301.582796 -14.091152 
L 305.066023 -21.676365 
L 308.549251 -20.813338 
L 312.032479 -25.220165 
L 315.515706 -21.056895 
L 318.998934 -28.502821 
L 322.482161 -35.646488 
L 325.965389 -28.506243 
L 329.448616 -21.666198 
L 332.931844 -10.38041 
L 336.415071 -13.687777 
L 339.898299 -31.842973 
L 343.381526 -29.1473 
L 346.864754 -23.553488 
L 350.347981 -20.803174 
L 353.831209 -15.387428 
L 357.314436 -14.963211 
L 360.797664 -16.645015 
L 364.280891 -16.998543 
L 367.764119 -13.353582 
L 371.247346 -21.414659 
L 374.730574 -23.636495 
L 378.213801 -28.288878 
L 381.697029 -43.554069 
L 385.180256 -41.453838 
L 388.663484 -41.507757 
L 392.146711 -37.360495 
L 395.629939 -37.242184 
L 399.113166 -43.197127 
L 402.596394 -52.283545 
L 406.079621 -43.063041 
L 409.562849 -48.78311 
L 413.046076 -47.80137 
L 416.529304 -49.234883 
L 420.012531 -47.556552 
L 423.495759 -24.835841 
L 426.978986 -46.558358 
L 430.462214 -46.297173 
L 433.945441 -47.337294 
L 437.428669 -46.988964 
L 440.911896 -45.558939 
L 444.395124 -53.301358 
L 447.878352 -51.964274 
L 451.361579 -50.022897 
L 454.844807 -46.918049 
L 458.328034 -48.315747 
L 461.811262 -42.32474 
L 465.294489 -49.447108 
L 468.777717 -51.910927 
L 472.260944 -47.924568 
L 475.744172 -46.699504 
L 479.227399 -47.78846 
L 482.710627 -50.028332 
L 486.193854 -30.392037 
L 489.677082 -22.521068 
L 493.160309 -38.351421 
L 496.643537 -38.877557 
L 500.126764 -30.014708 
L 503.609992 -32.151087 
L 507.093219 -23.139747 
L 510.576447 -12.466589 
L 514.059674 -8.695602 
L 517.542902 -13.661924 
L 521.026129 -9.405407 
L 524.509357 -5.514535 
L 527.992584 -6.888515 
L 531.475812 -7.490365 
L 534.959039 -13.708499 
L 538.442267 -16.705937 
L 541.925494 -17.692993 
L 545.408722 -27.023457 
L 548.891949 -24.265143 
L 552.375177 -10.255604 
L 555.858404 -13.273997 
L 559.341632 -12.984194 
L 562.824859 -15.531946 
L 566.308087 -15.230835 
L 569.791314 -20.607022 
L 573.274542 -20.815302 
L 576.75777 -36.565413 
L 580.240997 -39.015667 
L 583.724225 -42.546533 
L 587.207452 -43.157012 
L 590.69068 -47.688058 
L 594.173907 -36.357171 
L 597.657135 -32.927691 
L 601.140362 -45.719328 
L 604.62359 -50.825379 
L 608.106817 -48.721446 
L 611.590045 -37.972449 
L 615.073272 -50.779388 
L 618.5565 -53.065002 
L 622.039727 -53.361876 
L 625.522955 -49.527898 
L 629.006182 -55.356352 
L 632.48941 -52.322673 
L 635.972637 -50.144701 
L 639.455865 -53.326029 
L 642.939092 -53.760997 
L 646.42232 -47.695163 
L 649.905547 -50.651249 
L 653.388775 -49.643255 
L 656.872002 -56.413887 
L 660.35523 -44.969063 
L 663.838457 -32.809964 
L 667.321685 -28.559804 
L 670.804912 -29.15334 
L 674.28814 -36.668046 
L 677.771367 -34.296772 
L 681.254595 -34.880802 
L 684.737822 -49.265157 
L 688.22105 -48.517241 
L 691.704277 -31.071129 
L 695.187505 -6.499703 
L 698.670732 -27.990096 
L 702.15396 -58.663566 
L 705.637188 -53.009987 
L 705.637188 -130.825654 
L 705.637188 -130.825654 
L 702.15396 -148.797491 
L 698.670732 -209.764054 
L 695.187505 -253.606842 
L 691.704277 -217.099857 
L 688.22105 -179.992876 
L 684.737822 -179.444808 
L 681.254595 -201.742314 
L 677.771367 -211.140619 
L 674.28814 -206.035844 
L 670.804912 -216.617502 
L 667.321685 -220.594866 
L 663.838457 -214.66278 
L 660.35523 -198.235819 
L 656.872002 -172.576119 
L 653.388775 -167.057662 
L 649.905547 -166.971095 
L 646.42232 -170.090111 
L 642.939092 -159.829615 
L 639.455865 -165.511193 
L 635.972637 -162.822314 
L 632.48941 -165.781292 
L 629.006182 -157.749241 
L 625.522955 -173.961394 
L 622.039727 -153.344624 
L 618.5565 -157.507878 
L 615.073272 -163.808691 
L 611.590045 -164.237509 
L 608.106817 -171.497777 
L 604.62359 -176.952729 
L 601.140362 -177.382591 
L 597.657135 -181.288522 
L 594.173907 -179.255802 
L 590.69068 -165.809751 
L 587.207452 -163.441225 
L 583.724225 -170.631235 
L 580.240997 -174.212624 
L 576.75777 -178.981198 
L 573.274542 -200.027519 
L 569.791314 -202.732378 
L 566.308087 -205.122635 
L 562.824859 -199.417524 
L 559.341632 -203.581498 
L 555.858404 -203.937365 
L 552.375177 -208.358433 
L 548.891949 -191.294701 
L 545.408722 -186.39249 
L 541.925494 -200.525754 
L 538.442267 -208.58579 
L 534.959039 -213.89676 
L 531.475812 -221.029056 
L 527.992584 -225.154102 
L 524.509357 -231.414792 
L 521.026129 -229.82935 
L 517.542902 -219.462304 
L 514.059674 -227.164547 
L 510.576447 -220.530609 
L 507.093219 -209.362 
L 503.609992 -196.392874 
L 500.126764 -186.015069 
L 496.643537 -169.962455 
L 493.160309 -170.33652 
L 489.677082 -195.157511 
L 486.193854 -187.763253 
L 482.710627 -159.579629 
L 479.227399 -167.75219 
L 475.744172 -168.232744 
L 472.260944 -165.97636 
L 468.777717 -169.646772 
L 465.294489 -169.113013 
L 461.811262 -164.807526 
L 458.328034 -159.238877 
L 454.844807 -161.712608 
L 451.361579 -153.747234 
L 447.878352 -150.062523 
L 444.395124 -161.099205 
L 440.911896 -172.472287 
L 437.428669 -161.184448 
L 433.945441 -164.275751 
L 430.462214 -162.393477 
L 426.978986 -162.063663 
L 423.495759 -189.884271 
L 420.012531 -157.872931 
L 416.529304 -151.135296 
L 413.046076 -154.487393 
L 409.562849 -149.323144 
L 406.079621 -162.780982 
L 402.596394 -164.741114 
L 399.113166 -170.887328 
L 395.629939 -180.65582 
L 392.146711 -175.288902 
L 388.663484 -177.202661 
L 385.180256 -173.977873 
L 381.697029 -156.239297 
L 378.213801 -187.469572 
L 374.730574 -188.777717 
L 371.247346 -189.261352 
L 367.764119 -192.800982 
L 364.280891 -193.897693 
L 360.797664 -203.831049 
L 357.314436 -223.332998 
L 353.831209 -220.520433 
L 350.347981 -204.370239 
L 346.864754 -196.421587 
L 343.381526 -187.710834 
L 339.898299 -178.694563 
L 336.415071 -198.509655 
L 332.931844 -206.915054 
L 329.448616 -186.496662 
L 325.965389 -169.517415 
L 322.482161 -164.930857 
L 318.998934 -178.079615 
L 315.515706 -188.977155 
L 312.032479 -172.711419 
L 308.549251 -182.837076 
L 305.066023 -180.521745 
L 301.582796 -192.632331 
L 298.099568 -191.602557 
L 294.616341 -187.865404 
L 291.133113 -184.98142 
L 287.649886 -193.901622 
L 284.166658 -184.989015 
L 280.683431 -190.384713 
L 277.200203 -193.554337 
L 273.716976 -194.479791 
L 270.233748 -197.834458 
L 266.750521 -181.972004 
L 263.267293 -182.520434 
L 259.784066 -175.158555 
L 256.300838 -153.650532 
L 252.817611 -142.714708 
L 249.334383 -148.240032 
L 245.851156 -151.301059 
L 242.367928 -151.931475 
L 238.884701 -154.147967 
L 235.401473 -154.356256 
L 231.918246 -152.355568 
L 228.435018 -157.15607 
L 224.951791 -160.160242 
L 221.468563 -151.319537 
L 217.985336 -146.734332 
L 214.502108 -158.725966 
L 211.018881 -169.526937 
L 207.535653 -189.908735 
L 204.052426 -147.405879 
L 200.569198 -151.985869 
L 197.085971 -164.014135 
L 193.602743 -167.2719 
L 190.119516 -168.013361 
L 186.636288 -165.45306 
L 183.153061 -181.684497 
L 179.669833 -189.025822 
L 176.186605 -179.962921 
L 172.703378 -191.471134 
L 169.22015 -195.410185 
L 165.736923 -180.175188 
L 162.253695 -190.532366 
L 158.770468 -193.013236 
L 155.28724 -198.541008 
L 151.804013 -211.253166 
L 148.320785 -213.901638 
L 144.837558 -206.583375 
L 141.35433 -200.019563 
L 137.871103 -199.726682 
L 134.387875 -203.350616 
L 130.904648 -200.111057 
L 127.42142 -204.431976 
L 123.938193 -197.928948 
L 120.454965 -203.7439 
L 116.971738 -210.398493 
L 113.48851 -172.109425 
L 110.005283 -168.676815 
L 106.522055 -160.069311 
L 103.038828 -146.18982 
L 99.5556 -163.351636 
L 96.072373 -171.013092 
L 92.589145 -163.806678 
L 89.105918 -156.819899 
L 85.62269 -148.298575 
L 82.139463 -155.502043 
L 78.656235 -156.238115 
L 75.173008 -157.384283 
L 71.68978 -164.367373 
L 68.206553 -146.570534 
L 64.723325 -141.183177 
L 61.240098 -160.011082 
L 57.75687 -176.180412 
L 54.273643 -191.548964 
L 50.790415 -158.405589 
L 47.307188 -121.003179 
z
" style="stroke: #d3d3d3; stroke-opacity: 0.5"/>
    </defs>
    <g clip-path="url(#p8449227450)">
     <use xlink:href="#mba972f7ede" x="0" y="424.5775" style="fill: #d3d3d3; fill-opacity: 0.5; stroke: #d3d3d3; stroke-opacity: 0.5"/>
    </g>
   </g>
   <g id="FillBetweenPolyCollection_2">
    <defs>
     <path id="m82b578c84d" d="M 47.307188 -100.167376 
L 47.307188 -58.495771 
L 50.790415 -60.957094 
L 54.273643 -56.192899 
L 57.75687 -60.758908 
L 61.240098 -61.712434 
L 64.723325 -66.497949 
L 68.206553 -65.419666 
L 71.68978 -62.110784 
L 75.173008 -64.722252 
L 78.656235 -65.172893 
L 82.139463 -61.002525 
L 85.62269 -59.623058 
L 89.105918 -63.460956 
L 92.589145 -64.070298 
L 96.072373 -62.062301 
L 99.5556 -61.156013 
L 103.038828 -63.554065 
L 106.522055 -59.793947 
L 110.005283 -62.609601 
L 113.48851 -59.542167 
L 116.971738 -49.759908 
L 120.454965 -52.618773 
L 123.938193 -55.410303 
L 127.42142 -54.213733 
L 130.904648 -54.669672 
L 134.387875 -55.295731 
L 137.871103 -53.472244 
L 141.35433 -49.651309 
L 144.837558 -51.99561 
L 148.320785 -53.82135 
L 151.804013 -53.854667 
L 155.28724 -54.6042 
L 158.770468 -58.856639 
L 162.253695 -56.646787 
L 165.736923 -58.564935 
L 169.22015 -56.070009 
L 172.703378 -57.253716 
L 176.186605 -60.552233 
L 179.669833 -59.71096 
L 183.153061 -61.606626 
L 186.636288 -69.713823 
L 190.119516 -65.427057 
L 193.602743 -69.34827 
L 197.085971 -71.763704 
L 200.569198 -72.947226 
L 204.052426 -73.603421 
L 207.535653 -68.629683 
L 211.018881 -76.150526 
L 214.502108 -74.745431 
L 217.985336 -73.368646 
L 221.468563 -73.070745 
L 224.951791 -67.931034 
L 228.435018 -69.882064 
L 231.918246 -74.222746 
L 235.401473 -72.322104 
L 238.884701 -70.959907 
L 242.367928 -74.018607 
L 245.851156 -73.770216 
L 249.334383 -73.973454 
L 252.817611 -74.001346 
L 256.300838 -71.917401 
L 259.784066 -69.072384 
L 263.267293 -67.713626 
L 266.750521 -68.58336 
L 270.233748 -67.403372 
L 273.716976 -72.724924 
L 277.200203 -68.113377 
L 280.683431 -68.370844 
L 284.166658 -67.437432 
L 287.649886 -60.38149 
L 291.133113 -59.699143 
L 294.616341 -58.15523 
L 298.099568 -58.661302 
L 301.582796 -58.726447 
L 305.066023 -61.38771 
L 308.549251 -61.319272 
L 312.032479 -62.092979 
L 315.515706 -63.03696 
L 318.998934 -65.89702 
L 322.482161 -67.96758 
L 325.965389 -63.759036 
L 329.448616 -62.873814 
L 332.931844 -59.514071 
L 336.415071 -59.893247 
L 339.898299 -68.555871 
L 343.381526 -68.788184 
L 346.864754 -66.770513 
L 350.347981 -66.69494 
L 353.831209 -66.670679 
L 357.314436 -67.055658 
L 360.797664 -63.441523 
L 364.280891 -61.223331 
L 367.764119 -58.215432 
L 371.247346 -63.376332 
L 374.730574 -64.9218 
L 378.213801 -68.084051 
L 381.697029 -71.725376 
L 385.180256 -74.584847 
L 388.663484 -75.431483 
L 392.146711 -71.842597 
L 395.629939 -73.095593 
L 399.113166 -75.119677 
L 402.596394 -80.397937 
L 406.079621 -72.992527 
L 409.562849 -73.918118 
L 413.046076 -74.472876 
L 416.529304 -74.709986 
L 420.012531 -75.135647 
L 423.495759 -66.097949 
L 426.978986 -75.434684 
L 430.462214 -75.321249 
L 433.945441 -76.571908 
L 437.428669 -75.537835 
L 440.911896 -77.287276 
L 444.395124 -80.25082 
L 447.878352 -76.488837 
L 451.361579 -75.953981 
L 454.844807 -75.616689 
L 458.328034 -76.04653 
L 461.811262 -72.945437 
L 465.294489 -79.363584 
L 468.777717 -81.344888 
L 472.260944 -77.437516 
L 475.744172 -77.082814 
L 479.227399 -77.779393 
L 482.710627 -77.416156 
L 486.193854 -69.734841 
L 489.677082 -65.680178 
L 493.160309 -71.347696 
L 496.643537 -71.648781 
L 500.126764 -69.014798 
L 503.609992 -73.211534 
L 507.093219 -69.695311 
L 510.576447 -64.482594 
L 514.059674 -63.312839 
L 517.542902 -65.112019 
L 521.026129 -64.511393 
L 524.509357 -61.989599 
L 527.992584 -61.454912 
L 531.475812 -60.875038 
L 534.959039 -63.755564 
L 538.442267 -64.6759 
L 541.925494 -63.401184 
L 545.408722 -66.865716 
L 548.891949 -66.022532 
L 552.375177 -59.781311 
L 555.858404 -60.939839 
L 559.341632 -60.63352 
L 562.824859 -61.503341 
L 566.308087 -62.703785 
L 569.791314 -66.138361 
L 573.274542 -65.618356 
L 576.75777 -72.169359 
L 580.240997 -72.814906 
L 583.724225 -74.567708 
L 587.207452 -73.228065 
L 590.69068 -77.218481 
L 594.173907 -72.081829 
L 597.657135 -70.017898 
L 601.140362 -78.635143 
L 604.62359 -82.357216 
L 608.106817 -79.415529 
L 611.590045 -69.538714 
L 615.073272 -79.036714 
L 618.5565 -79.175721 
L 622.039727 -78.357563 
L 625.522955 -80.636272 
L 629.006182 -80.954574 
L 632.48941 -80.687328 
L 635.972637 -78.314104 
L 639.455865 -81.37232 
L 642.939092 -80.278152 
L 646.42232 -78.2939 
L 649.905547 -79.73121 
L 653.388775 -78.996857 
L 656.872002 -85.454445 
L 660.35523 -83.285752 
L 663.838457 -78.273168 
L 667.321685 -76.568569 
L 670.804912 -76.019381 
L 674.28814 -79.009996 
L 677.771367 -78.507734 
L 681.254595 -76.59618 
L 684.737822 -81.81007 
L 688.22105 -81.38615 
L 691.704277 -77.578311 
L 695.187505 -68.276488 
L 698.670732 -73.433585 
L 702.15396 -81.197047 
L 705.637188 -72.463904 
L 705.637188 -111.371738 
L 705.637188 -111.371738 
L 702.15396 -126.264009 
L 698.670732 -164.320565 
L 695.187505 -191.830057 
L 691.704277 -170.592675 
L 688.22105 -147.123967 
L 684.737822 -146.899895 
L 681.254595 -160.026936 
L 677.771367 -166.929657 
L 674.28814 -163.693895 
L 670.804912 -169.751462 
L 667.321685 -172.5861 
L 663.838457 -169.199576 
L 660.35523 -159.91913 
L 656.872002 -143.535561 
L 653.388775 -137.70406 
L 649.905547 -137.891133 
L 646.42232 -139.491374 
L 642.939092 -133.312461 
L 639.455865 -137.464902 
L 635.972637 -134.652911 
L 632.48941 -137.416637 
L 629.006182 -132.151018 
L 625.522955 -142.85302 
L 622.039727 -128.348937 
L 618.5565 -131.397159 
L 615.073272 -135.551366 
L 611.590045 -132.671244 
L 608.106817 -140.803694 
L 604.62359 -145.420891 
L 601.140362 -144.466775 
L 597.657135 -144.198314 
L 594.173907 -143.531145 
L 590.69068 -136.279328 
L 587.207452 -133.370172 
L 583.724225 -138.61006 
L 580.240997 -140.413385 
L 576.75777 -143.377252 
L 573.274542 -155.224464 
L 569.791314 -157.201039 
L 566.308087 -157.649685 
L 562.824859 -153.446129 
L 559.341632 -155.932172 
L 555.858404 -156.271523 
L 552.375177 -158.832726 
L 548.891949 -149.537311 
L 545.408722 -146.550232 
L 541.925494 -154.817564 
L 538.442267 -160.615827 
L 534.959039 -163.849695 
L 531.475812 -167.644384 
L 527.992584 -170.587705 
L 524.509357 -174.939728 
L 521.026129 -174.723364 
L 517.542902 -168.012209 
L 514.059674 -172.547311 
L 510.576447 -168.514604 
L 507.093219 -162.806437 
L 503.609992 -155.332427 
L 500.126764 -147.014978 
L 496.643537 -137.191231 
L 493.160309 -137.340245 
L 489.677082 -151.9984 
L 486.193854 -148.420449 
L 482.710627 -132.191805 
L 479.227399 -137.761258 
L 475.744172 -137.849434 
L 472.260944 -136.463412 
L 468.777717 -140.212811 
L 465.294489 -139.196537 
L 461.811262 -134.186829 
L 458.328034 -131.508095 
L 454.844807 -133.013968 
L 451.361579 -127.81615 
L 447.878352 -125.537961 
L 444.395124 -134.149743 
L 440.911896 -140.74395 
L 437.428669 -132.635577 
L 433.945441 -135.041137 
L 430.462214 -133.369401 
L 426.978986 -133.187336 
L 423.495759 -148.622164 
L 420.012531 -130.293837 
L 416.529304 -125.660193 
L 413.046076 -127.815888 
L 409.562849 -124.188135 
L 406.079621 -132.851497 
L 402.596394 -136.626722 
L 399.113166 -138.964778 
L 395.629939 -144.802411 
L 392.146711 -140.8068 
L 388.663484 -143.278935 
L 385.180256 -140.846865 
L 381.697029 -128.06799 
L 378.213801 -147.674399 
L 374.730574 -147.492412 
L 371.247346 -147.299679 
L 367.764119 -147.939132 
L 364.280891 -149.672905 
L 360.797664 -157.03454 
L 357.314436 -171.240551 
L 353.831209 -169.237182 
L 350.347981 -158.478473 
L 346.864754 -153.204562 
L 343.381526 -148.06995 
L 339.898299 -141.981666 
L 336.415071 -152.304186 
L 332.931844 -157.781393 
L 329.448616 -145.289046 
L 325.965389 -134.264622 
L 322.482161 -132.609765 
L 318.998934 -140.685416 
L 315.515706 -146.99709 
L 312.032479 -135.838606 
L 308.549251 -142.331142 
L 305.066023 -140.8104 
L 301.582796 -147.997036 
L 298.099568 -147.288805 
L 294.616341 -144.628679 
L 291.133113 -143.220661 
L 287.649886 -149.394911 
L 284.166658 -145.805154 
L 280.683431 -149.713424 
L 277.200203 -151.740684 
L 273.716976 -153.894835 
L 270.233748 -154.357429 
L 266.750521 -144.175789 
L 263.267293 -144.251498 
L 259.784066 -139.796498 
L 256.300838 -126.406155 
L 252.817611 -119.810254 
L 249.334383 -123.484506 
L 245.851156 -125.457445 
L 242.367928 -125.960519 
L 238.884701 -126.418614 
L 235.401473 -127.011539 
L 231.918246 -126.311294 
L 228.435018 -128.064735 
L 224.951791 -129.417173 
L 221.468563 -125.236606 
L 217.985336 -122.279103 
L 214.502108 -130.732454 
L 211.018881 -138.401466 
L 207.535653 -149.482384 
L 204.052426 -122.805059 
L 200.569198 -125.639655 
L 197.085971 -133.263991 
L 193.602743 -134.63069 
L 190.119516 -133.817926 
L 186.636288 -133.539981 
L 183.153061 -141.65854 
L 179.669833 -145.920868 
L 176.186605 -140.159358 
L 172.703378 -146.731995 
L 169.22015 -148.96346 
L 165.736923 -139.638437 
L 162.253695 -145.90384 
L 158.770468 -148.29437 
L 155.28724 -150.562072 
L 151.804013 -158.786999 
L 148.320785 -160.541542 
L 144.837558 -155.05412 
L 141.35433 -149.896812 
L 137.871103 -150.975203 
L 134.387875 -153.998988 
L 130.904648 -151.630595 
L 127.42142 -154.359229 
L 123.938193 -150.422733 
L 120.454965 -153.368858 
L 116.971738 -156.852298 
L 113.48851 -134.587006 
L 110.005283 -133.321077 
L 106.522055 -126.64419 
L 103.038828 -118.644568 
L 99.5556 -129.286429 
L 96.072373 -134.696161 
L 92.589145 -130.561218 
L 89.105918 -125.700251 
L 85.62269 -118.740069 
L 82.139463 -124.002204 
L 78.656235 -125.883041 
L 75.173008 -126.49694 
L 71.68978 -130.281844 
L 68.206553 -119.520245 
L 64.723325 -116.288101 
L 61.240098 -127.244866 
L 57.75687 -137.706578 
L 54.273643 -146.430276 
L 50.790415 -125.922758 
L 47.307188 -100.167376 
z
" style="stroke: #808080; stroke-opacity: 0.7"/>
    </defs>
    <g clip-path="url(#p8449227450)">
     <use xlink:href="#m82b578c84d" x="0" y="424.5775" style="fill: #808080; fill-opacity: 0.7; stroke: #808080; stroke-opacity: 0.7"/>
    </g>
   </g>
   <g id="line2d_31">
    <path d="M 47.307188 354.001485 
L 50.790415 362.836459 
L 54.273643 348.027056 
L 57.75687 353.460482 
L 61.240098 350.582484 
L 64.723325 346.826474 
L 68.206553 343.686863 
L 71.68978 344.979074 
L 75.173008 342.049158 
L 78.656235 345.362399 
L 82.139463 339.962281 
L 85.62269 338.291567 
L 89.105918 334.397568 
L 92.589145 328.2822 
L 96.072373 334.32541 
L 99.5556 339.84863 
L 103.038828 330.803476 
L 106.522055 337.701934 
L 110.005283 332.464777 
L 113.48851 336.356669 
L 116.971738 335.837064 
L 120.454965 339.069718 
L 123.938193 329.964309 
L 127.42142 334.357035 
L 130.904648 344.480696 
L 134.387875 337.617836 
L 137.871103 346.909517 
L 141.35433 353.04187 
L 144.837558 329.84983 
L 148.320785 327.686369 
L 151.804013 317.373778 
L 155.28724 327.986964 
L 158.770468 328.196032 
L 162.253695 327.996102 
L 165.736923 325.611047 
L 169.22015 325.518676 
L 172.703378 330.239858 
L 176.186605 334.087107 
L 179.669833 338.587746 
L 183.153061 335.14434 
L 186.636288 314.113057 
L 190.119516 329.824959 
L 193.602743 344.234583 
L 197.085971 312.432679 
L 200.569198 325.935562 
L 204.052426 313.533607 
L 207.535653 297.684347 
L 211.018881 314.631824 
L 214.502108 333.647665 
L 217.985336 345.53681 
L 221.468563 321.432205 
L 224.951791 307.914938 
L 228.435018 332.089611 
L 231.918246 341.882708 
L 235.401473 346.188778 
L 238.884701 339.071898 
L 242.367928 341.819951 
L 245.851156 329.940874 
L 249.334383 334.451281 
L 252.817611 338.093479 
L 256.300838 349.515843 
L 259.784066 346.345605 
L 263.267293 329.594196 
L 266.750521 320.712883 
L 270.233748 315.456721 
L 273.716976 313.360968 
L 277.200203 319.044552 
L 280.683431 319.846511 
L 284.166658 310.969079 
L 287.649886 319.6133 
L 291.133113 332.603615 
L 298.099568 336.973202 
L 301.582796 332.170215 
L 305.066023 331.081454 
L 308.549251 326.956914 
L 312.032479 334.732483 
L 315.515706 331.758979 
L 318.998934 331.067988 
L 322.482161 336.521728 
L 325.965389 332.566283 
L 329.448616 335.163939 
L 332.931844 331.428015 
L 336.415071 334.607321 
L 339.898299 335.314568 
L 343.381526 329.813727 
L 346.864754 336.122903 
L 350.347981 333.899946 
L 353.831209 334.58481 
L 357.314436 327.265025 
L 360.797664 332.00846 
L 364.280891 343.908422 
L 367.764119 353.848106 
L 371.247346 339.980887 
L 374.730574 336.805646 
L 378.213801 337.776016 
L 381.697029 333.319212 
L 385.180256 317.751855 
L 388.663484 298.211698 
L 392.146711 302.63193 
L 395.629939 319.340232 
L 399.113166 316.576072 
L 402.596394 324.662912 
L 406.079621 325.311032 
L 409.562849 316.787169 
L 413.046076 274.515685 
L 416.529304 317.82922 
L 420.012531 329.416928 
L 423.495759 318.99426 
L 426.978986 330.26612 
L 430.462214 314.941445 
L 433.945441 324.918986 
L 437.428669 334.309141 
L 440.911896 320.108556 
L 444.395124 315.251997 
L 447.878352 332.898652 
L 451.361579 346.627819 
L 454.844807 321.982721 
L 458.328034 307.326796 
L 461.811262 312.847793 
L 465.294489 328.010765 
L 468.777717 315.658275 
L 472.260944 309.304418 
L 475.744172 309.392624 
L 479.227399 310.703961 
L 482.710627 326.762377 
L 486.193854 324.305827 
L 489.677082 334.591947 
L 493.160309 333.124544 
L 496.643537 334.012059 
L 500.126764 323.411978 
L 503.609992 333.131343 
L 507.093219 323.228338 
L 510.576447 325.008855 
L 514.059674 336.470753 
L 517.542902 326.547308 
L 521.026129 323.645126 
L 524.509357 322.569984 
L 527.992584 315.570186 
L 531.475812 307.960167 
L 534.959039 324.840799 
L 538.442267 328.193981 
L 541.925494 343.718448 
L 545.408722 328.399683 
L 548.891949 345.302966 
L 552.375177 340.290913 
L 559.341632 341.043703 
L 562.824859 336.211727 
L 566.308087 337.839439 
L 569.791314 344.906718 
L 573.274542 342.473383 
L 576.75777 343.522062 
L 580.240997 336.876881 
L 583.724225 326.35928 
L 587.207452 310.135752 
L 590.69068 320.895439 
L 594.173907 339.060918 
L 597.657135 352.398199 
L 601.140362 338.350427 
L 604.62359 317.961013 
L 608.106817 329.540658 
L 611.590045 340.163515 
L 615.073272 338.124994 
L 618.5565 328.802402 
L 622.039727 326.662125 
L 625.522955 328.144 
L 629.006182 313.672105 
L 632.48941 341.964386 
L 635.972637 336.580056 
L 639.455865 326.050533 
L 642.939092 329.33753 
L 646.42232 330.394885 
L 649.905547 333.973711 
L 653.388775 334.039457 
L 656.872002 315.398169 
L 660.35523 301.539833 
L 663.838457 317.135325 
L 667.321685 308.079491 
L 670.804912 293.820198 
L 674.28814 283.083941 
L 677.771367 302.792836 
L 681.254595 313.053938 
L 684.737822 300.910739 
L 688.22105 306.80127 
L 691.704277 297.293626 
L 695.187505 308.909975 
L 698.670732 321.000262 
L 702.15396 322.234368 
L 705.637188 296.304454 
L 705.637188 296.304454 
" clip-path="url(#p8449227450)" style="fill: none; stroke: #ff8c00; stroke-width: 2.3; stroke-linecap: square"/>
   </g>
   <g id="line2d_32">
    <path d="M 284.166658 384.117812 
L 284.166658 23.837812 
" clip-path="url(#p8449227450)" style="fill: none; stroke-dasharray: 5.55,2.4; stroke-dashoffset: 0; stroke: #808080; stroke-width: 1.5"/>
   </g>
   <g id="line2d_33">
    <path d="M 486.193854 384.117812 
L 486.193854 23.837812 
" clip-path="url(#p8449227450)" style="fill: none; stroke-dasharray: 5.55,2.4; stroke-dashoffset: 0; stroke: #808080; stroke-width: 1.5"/>
   </g>
   <g id="patch_3">
    <path d="M 47.307188 384.117812 
L 47.307188 23.837812 
" style="fill: none; stroke: #000000; stroke-width: 0.8; stroke-linejoin: miter; stroke-linecap: square"/>
   </g>
   <g id="patch_4">
    <path d="M 705.637188 384.117812 
L 705.637188 23.837812 
" style="fill: none; stroke: #000000; stroke-width: 0.8; stroke-linejoin: miter; stroke-linecap: square"/>
   </g>
   <g id="patch_5">
    <path d="M 47.307188 384.117812 
L 705.637188 384.117812 
" style="fill: none; stroke: #000000; stroke-width: 0.8; stroke-linejoin: miter; stroke-linecap: square"/>
   </g>
   <g id="patch_6">
    <path d="M 47.307188 23.837812 
L 705.637188 23.837812 
" style="fill: none; stroke: #000000; stroke-width: 0.8; stroke-linejoin: miter; stroke-linecap: square"/>
   </g>
   <g id="text_18">
    <!-- Facial trace: Depressive disorder (MDD/DD) (male) -->
    <g transform="translate(199.417031 17.837812) scale(0.14 -0.14)">
     <defs>
      <path id="DejaVuSans-46" d="M 628 4666 
L 3309 4666 
L 3309 4134 
L 1259 4134 
L 1259 2759 
L 3109 2759 
L 3109 2228 
L 1259 2228 
L 1259 0 
L 628 0 
L 628 4666 
z
" transform="scale(0.015625)"/>
      <path id="DejaVuSans-63" d="M 3122 3366 
L 3122 2828 
Q 2878 2963 2633 3030 
Q 2388 3097 2138 3097 
Q 1578 3097 1268 2742 
Q 959 2388 959 1747 
Q 959 1106 1268 751 
Q 1578 397 2138 397 
Q 2388 397 2633 464 
Q 2878 531 3122 666 
L 3122 134 
Q 2881 22 2623 -34 
Q 2366 -91 2075 -91 
Q 1284 -91 818 406 
Q 353 903 353 1747 
Q 353 2603 823 3093 
Q 1294 3584 2113 3584 
Q 2378 3584 2631 3529 
Q 2884 3475 3122 3366 
z
" transform="scale(0.015625)"/>
      <path id="DejaVuSans-6c" d="M 603 4863 
L 1178 4863 
L 1178 0 
L 603 0 
L 603 4863 
z
" transform="scale(0.015625)"/>
      <path id="DejaVuSans-72" d="M 2631 2963 
Q 2534 3019 2420 3045 
Q 2306 3072 2169 3072 
Q 1681 3072 1420 2755 
Q 1159 2438 1159 1844 
L 1159 0 
L 581 0 
L 581 3500 
L 1159 3500 
L 1159 2956 
Q 1341 3275 1631 3429 
Q 1922 3584 2338 3584 
Q 2397 3584 2469 3576 
Q 2541 3569 2628 3553 
L 2631 2963 
z
" transform="scale(0.015625)"/>
      <path id="DejaVuSans-3a" d="M 750 794 
L 1409 794 
L 1409 0 
L 750 0 
L 750 794 
z
M 750 3309 
L 1409 3309 
L 1409 2516 
L 750 2516 
L 750 3309 
z
" transform="scale(0.015625)"/>
      <path id="DejaVuSans-44" d="M 1259 4147 
L 1259 519 
L 2022 519 
Q 2988 519 3436 956 
Q 3884 1394 3884 2338 
Q 3884 3275 3436 3711 
Q 2988 4147 2022 4147 
L 1259 4147 
z
M 628 4666 
L 1925 4666 
Q 3281 4666 3915 4102 
Q 4550 3538 4550 2338 
Q 4550 1131 3912 565 
Q 3275 0 1925 0 
L 628 0 
L 628 4666 
z
" transform="scale(0.015625)"/>
      <path id="DejaVuSans-70" d="M 1159 525 
L 1159 -1331 
L 581 -1331 
L 581 3500 
L 1159 3500 
L 1159 2969 
Q 1341 3281 1617 3432 
Q 1894 3584 2278 3584 
Q 2916 3584 3314 3078 
Q 3713 2572 3713 1747 
Q 3713 922 3314 415 
Q 2916 -91 2278 -91 
Q 1894 -91 1617 61 
Q 1341 213 1159 525 
z
M 3116 1747 
Q 3116 2381 2855 2742 
Q 2594 3103 2138 3103 
Q 1681 3103 1420 2742 
Q 1159 2381 1159 1747 
Q 1159 1113 1420 752 
Q 1681 391 2138 391 
Q 2594 391 2855 752 
Q 3116 1113 3116 1747 
z
" transform="scale(0.015625)"/>
      <path id="DejaVuSans-76" d="M 191 3500 
L 800 3500 
L 1894 563 
L 2988 3500 
L 3597 3500 
L 2284 0 
L 1503 0 
L 191 3500 
z
" transform="scale(0.015625)"/>
      <path id="DejaVuSans-64" d="M 2906 2969 
L 2906 4863 
L 3481 4863 
L 3481 0 
L 2906 0 
L 2906 525 
Q 2725 213 2448 61 
Q 2172 -91 1784 -91 
Q 1150 -91 751 415 
Q 353 922 353 1747 
Q 353 2572 751 3078 
Q 1150 3584 1784 3584 
Q 2172 3584 2448 3432 
Q 2725 3281 2906 2969 
z
M 947 1747 
Q 947 1113 1208 752 
Q 1469 391 1925 391 
Q 2381 391 2643 752 
Q 2906 1113 2906 1747 
Q 2906 2381 2643 2742 
Q 2381 3103 1925 3103 
Q 1469 3103 1208 2742 
Q 947 2381 947 1747 
z
" transform="scale(0.015625)"/>
      <path id="DejaVuSans-6f" d="M 1959 3097 
Q 1497 3097 1228 2736 
Q 959 2375 959 1747 
Q 959 1119 1226 758 
Q 1494 397 1959 397 
Q 2419 397 2687 759 
Q 2956 1122 2956 1747 
Q 2956 2369 2687 2733 
Q 2419 3097 1959 3097 
z
M 1959 3584 
Q 2709 3584 3137 3096 
Q 3566 2609 3566 1747 
Q 3566 888 3137 398 
Q 2709 -91 1959 -91 
Q 1206 -91 779 398 
Q 353 888 353 1747 
Q 353 2609 779 3096 
Q 1206 3584 1959 3584 
z
" transform="scale(0.015625)"/>
      <path id="DejaVuSans-4d" d="M 628 4666 
L 1569 4666 
L 2759 1491 
L 3956 4666 
L 4897 4666 
L 4897 0 
L 4281 0 
L 4281 4097 
L 3078 897 
L 2444 897 
L 1241 4097 
L 1241 0 
L 628 0 
L 628 4666 
z
" transform="scale(0.015625)"/>
      <path id="DejaVuSans-2f" d="M 1625 4666 
L 2156 4666 
L 531 -594 
L 0 -594 
L 1625 4666 
z
" transform="scale(0.015625)"/>
     </defs>
     <use xlink:href="#DejaVuSans-46"/>
     <use xlink:href="#DejaVuSans-61" transform="translate(48.394531 0)"/>
     <use xlink:href="#DejaVuSans-63" transform="translate(109.673828 0)"/>
     <use xlink:href="#DejaVuSans-69" transform="translate(164.654297 0)"/>
     <use xlink:href="#DejaVuSans-61" transform="translate(192.4375 0)"/>
     <use xlink:href="#DejaVuSans-6c" transform="translate(253.716797 0)"/>
     <use xlink:href="#DejaVuSans-20" transform="translate(281.5 0)"/>
     <use xlink:href="#DejaVuSans-74" transform="translate(313.287109 0)"/>
     <use xlink:href="#DejaVuSans-72" transform="translate(352.496094 0)"/>
     <use xlink:href="#DejaVuSans-61" transform="translate(393.609375 0)"/>
     <use xlink:href="#DejaVuSans-63" transform="translate(454.888672 0)"/>
     <use xlink:href="#DejaVuSans-65" transform="translate(509.869141 0)"/>
     <use xlink:href="#DejaVuSans-3a" transform="translate(571.392578 0)"/>
     <use xlink:href="#DejaVuSans-20" transform="translate(605.083984 0)"/>
     <use xlink:href="#DejaVuSans-44" transform="translate(636.871094 0)"/>
     <use xlink:href="#DejaVuSans-65" transform="translate(713.873047 0)"/>
     <use xlink:href="#DejaVuSans-70" transform="translate(775.396484 0)"/>
     <use xlink:href="#DejaVuSans-72" transform="translate(838.873047 0)"/>
     <use xlink:href="#DejaVuSans-65" transform="translate(877.736328 0)"/>
     <use xlink:href="#DejaVuSans-73" transform="translate(939.259766 0)"/>
     <use xlink:href="#DejaVuSans-73" transform="translate(991.359375 0)"/>
     <use xlink:href="#DejaVuSans-69" transform="translate(1043.458984 0)"/>
     <use xlink:href="#DejaVuSans-76" transform="translate(1071.242188 0)"/>
     <use xlink:href="#DejaVuSans-65" transform="translate(1130.421875 0)"/>
     <use xlink:href="#DejaVuSans-20" transform="translate(1191.945312 0)"/>
     <use xlink:href="#DejaVuSans-64" transform="translate(1223.732422 0)"/>
     <use xlink:href="#DejaVuSans-69" transform="translate(1287.208984 0)"/>
     <use xlink:href="#DejaVuSans-73" transform="translate(1314.992188 0)"/>
     <use xlink:href="#DejaVuSans-6f" transform="translate(1367.091797 0)"/>
     <use xlink:href="#DejaVuSans-72" transform="translate(1428.273438 0)"/>
     <use xlink:href="#DejaVuSans-64" transform="translate(1467.636719 0)"/>
     <use xlink:href="#DejaVuSans-65" transform="translate(1531.113281 0)"/>
     <use xlink:href="#DejaVuSans-72" transform="translate(1592.636719 0)"/>
     <use xlink:href="#DejaVuSans-20" transform="translate(1633.75 0)"/>
     <use xlink:href="#DejaVuSans-28" transform="translate(1665.537109 0)"/>
     <use xlink:href="#DejaVuSans-4d" transform="translate(1704.550781 0)"/>
     <use xlink:href="#DejaVuSans-44" transform="translate(1790.830078 0)"/>
     <use xlink:href="#DejaVuSans-44" transform="translate(1867.832031 0)"/>
     <use xlink:href="#DejaVuSans-2f" transform="translate(1944.833984 0)"/>
     <use xlink:href="#DejaVuSans-44" transform="translate(1978.525391 0)"/>
     <use xlink:href="#DejaVuSans-44" transform="translate(2055.527344 0)"/>
     <use xlink:href="#DejaVuSans-29" transform="translate(2132.529297 0)"/>
     <use xlink:href="#DejaVuSans-20" transform="translate(2171.542969 0)"/>
     <use xlink:href="#DejaVuSans-28" transform="translate(2203.330078 0)"/>
     <use xlink:href="#DejaVuSans-6d" transform="translate(2242.34375 0)"/>
     <use xlink:href="#DejaVuSans-61" transform="translate(2339.755859 0)"/>
     <use xlink:href="#DejaVuSans-6c" transform="translate(2401.035156 0)"/>
     <use xlink:href="#DejaVuSans-65" transform="translate(2428.818359 0)"/>
     <use xlink:href="#DejaVuSans-29" transform="translate(2490.341797 0)"/>
    </g>
   </g>
   <g id="legend_1">
    <g id="patch_7">
     <path d="M 439.019531 42.096094 
L 461.019531 42.096094 
L 461.019531 34.396094 
L 439.019531 34.396094 
z
" style="fill: #d3d3d3; fill-opacity: 0.5; stroke: #d3d3d3; stroke-opacity: 0.5; stroke-linejoin: miter"/>
    </g>
    <g id="text_19">
     <!-- Depressive disorder (MDD/DD) ±2 SD -->
     <g transform="translate(469.819531 42.096094) scale(0.11 -0.11)">
      <defs>
       <path id="DejaVuSans-b1" d="M 2944 4013 
L 2944 2803 
L 4684 2803 
L 4684 2272 
L 2944 2272 
L 2944 1063 
L 2419 1063 
L 2419 2272 
L 678 2272 
L 678 2803 
L 2419 2803 
L 2419 4013 
L 2944 4013 
z
M 678 531 
L 4684 531 
L 4684 0 
L 678 0 
L 678 531 
z
" transform="scale(0.015625)"/>
       <path id="DejaVuSans-53" d="M 3425 4513 
L 3425 3897 
Q 3066 4069 2747 4153 
Q 2428 4238 2131 4238 
Q 1616 4238 1336 4038 
Q 1056 3838 1056 3469 
Q 1056 3159 1242 3001 
Q 1428 2844 1947 2747 
L 2328 2669 
Q 3034 2534 3370 2195 
Q 3706 1856 3706 1288 
Q 3706 609 3251 259 
Q 2797 -91 1919 -91 
Q 1588 -91 1214 -16 
Q 841 59 441 206 
L 441 856 
Q 825 641 1194 531 
Q 1563 422 1919 422 
Q 2459 422 2753 634 
Q 3047 847 3047 1241 
Q 3047 1584 2836 1778 
Q 2625 1972 2144 2069 
L 1759 2144 
Q 1053 2284 737 2584 
Q 422 2884 422 3419 
Q 422 4038 858 4394 
Q 1294 4750 2059 4750 
Q 2388 4750 2728 4690 
Q 3069 4631 3425 4513 
z
" transform="scale(0.015625)"/>
      </defs>
      <use xlink:href="#DejaVuSans-44"/>
      <use xlink:href="#DejaVuSans-65" transform="translate(77.001953 0)"/>
      <use xlink:href="#DejaVuSans-70" transform="translate(138.525391 0)"/>
      <use xlink:href="#DejaVuSans-72" transform="translate(202.001953 0)"/>
      <use xlink:href="#DejaVuSans-65" transform="translate(240.865234 0)"/>
      <use xlink:href="#DejaVuSans-73" transform="translate(302.388672 0)"/>
      <use xlink:href="#DejaVuSans-73" transform="translate(354.488281 0)"/>
      <use xlink:href="#DejaVuSans-69" transform="translate(406.587891 0)"/>
      <use xlink:href="#DejaVuSans-76" transform="translate(434.371094 0)"/>
      <use xlink:href="#DejaVuSans-65" transform="translate(493.550781 0)"/>
      <use xlink:href="#DejaVuSans-20" transform="translate(555.074219 0)"/>
      <use xlink:href="#DejaVuSans-64" transform="translate(586.861328 0)"/>
      <use xlink:href="#DejaVuSans-69" transform="translate(650.337891 0)"/>
      <use xlink:href="#DejaVuSans-73" transform="translate(678.121094 0)"/>
      <use xlink:href="#DejaVuSans-6f" transform="translate(730.220703 0)"/>
      <use xlink:href="#DejaVuSans-72" transform="translate(791.402344 0)"/>
      <use xlink:href="#DejaVuSans-64" transform="translate(830.765625 0)"/>
      <use xlink:href="#DejaVuSans-65" transform="translate(894.242188 0)"/>
      <use xlink:href="#DejaVuSans-72" transform="translate(955.765625 0)"/>
      <use xlink:href="#DejaVuSans-20" transform="translate(996.878906 0)"/>
      <use xlink:href="#DejaVuSans-28" transform="translate(1028.666016 0)"/>
      <use xlink:href="#DejaVuSans-4d" transform="translate(1067.679688 0)"/>
      <use xlink:href="#DejaVuSans-44" transform="translate(1153.958984 0)"/>
      <use xlink:href="#DejaVuSans-44" transform="translate(1230.960938 0)"/>
      <use xlink:href="#DejaVuSans-2f" transform="translate(1307.962891 0)"/>
      <use xlink:href="#DejaVuSans-44" transform="translate(1341.654297 0)"/>
      <use xlink:href="#DejaVuSans-44" transform="translate(1418.65625 0)"/>
      <use xlink:href="#DejaVuSans-29" transform="translate(1495.658203 0)"/>
      <use xlink:href="#DejaVuSans-20" transform="translate(1534.671875 0)"/>
      <use xlink:href="#DejaVuSans-b1" transform="translate(1566.458984 0)"/>
      <use xlink:href="#DejaVuSans-32" transform="translate(1650.248047 0)"/>
      <use xlink:href="#DejaVuSans-20" transform="translate(1713.871094 0)"/>
      <use xlink:href="#DejaVuSans-53" transform="translate(1745.658203 0)"/>
      <use xlink:href="#DejaVuSans-44" transform="translate(1809.134766 0)"/>
     </g>
    </g>
    <g id="patch_8">
     <path d="M 439.019531 58.242031 
L 461.019531 58.242031 
L 461.019531 50.542031 
L 439.019531 50.542031 
z
" style="fill: #808080; fill-opacity: 0.7; stroke: #808080; stroke-opacity: 0.7; stroke-linejoin: miter"/>
    </g>
    <g id="text_20">
     <!-- Depressive disorder (MDD/DD) ±1 SD -->
     <g transform="translate(469.819531 58.242031) scale(0.11 -0.11)">
      <use xlink:href="#DejaVuSans-44"/>
      <use xlink:href="#DejaVuSans-65" transform="translate(77.001953 0)"/>
      <use xlink:href="#DejaVuSans-70" transform="translate(138.525391 0)"/>
      <use xlink:href="#DejaVuSans-72" transform="translate(202.001953 0)"/>
      <use xlink:href="#DejaVuSans-65" transform="translate(240.865234 0)"/>
      <use xlink:href="#DejaVuSans-73" transform="translate(302.388672 0)"/>
      <use xlink:href="#DejaVuSans-73" transform="translate(354.488281 0)"/>
      <use xlink:href="#DejaVuSans-69" transform="translate(406.587891 0)"/>
      <use xlink:href="#DejaVuSans-76" transform="translate(434.371094 0)"/>
      <use xlink:href="#DejaVuSans-65" transform="translate(493.550781 0)"/>
      <use xlink:href="#DejaVuSans-20" transform="translate(555.074219 0)"/>
      <use xlink:href="#DejaVuSans-64" transform="translate(586.861328 0)"/>
      <use xlink:href="#DejaVuSans-69" transform="translate(650.337891 0)"/>
      <use xlink:href="#DejaVuSans-73" transform="translate(678.121094 0)"/>
      <use xlink:href="#DejaVuSans-6f" transform="translate(730.220703 0)"/>
      <use xlink:href="#DejaVuSans-72" transform="translate(791.402344 0)"/>
      <use xlink:href="#DejaVuSans-64" transform="translate(830.765625 0)"/>
      <use xlink:href="#DejaVuSans-65" transform="translate(894.242188 0)"/>
      <use xlink:href="#DejaVuSans-72" transform="translate(955.765625 0)"/>
      <use xlink:href="#DejaVuSans-20" transform="translate(996.878906 0)"/>
      <use xlink:href="#DejaVuSans-28" transform="translate(1028.666016 0)"/>
      <use xlink:href="#DejaVuSans-4d" transform="translate(1067.679688 0)"/>
      <use xlink:href="#DejaVuSans-44" transform="translate(1153.958984 0)"/>
      <use xlink:href="#DejaVuSans-44" transform="translate(1230.960938 0)"/>
      <use xlink:href="#DejaVuSans-2f" transform="translate(1307.962891 0)"/>
      <use xlink:href="#DejaVuSans-44" transform="translate(1341.654297 0)"/>
      <use xlink:href="#DejaVuSans-44" transform="translate(1418.65625 0)"/>
      <use xlink:href="#DejaVuSans-29" transform="translate(1495.658203 0)"/>
      <use xlink:href="#DejaVuSans-20" transform="translate(1534.671875 0)"/>
      <use xlink:href="#DejaVuSans-b1" transform="translate(1566.458984 0)"/>
      <use xlink:href="#DejaVuSans-31" transform="translate(1650.248047 0)"/>
      <use xlink:href="#DejaVuSans-20" transform="translate(1713.871094 0)"/>
      <use xlink:href="#DejaVuSans-53" transform="translate(1745.658203 0)"/>
      <use xlink:href="#DejaVuSans-44" transform="translate(1809.134766 0)"/>
     </g>
    </g>
    <g id="line2d_34">
     <path d="M 439.019531 70.537969 
L 450.019531 70.537969 
L 461.019531 70.537969 
" style="fill: none; stroke: #ff8c00; stroke-width: 2.3; stroke-linecap: square"/>
    </g>
    <g id="text_21">
     <!-- Depressive disorder (MDD/DD) prototype -->
     <g transform="translate(469.819531 74.387969) scale(0.11 -0.11)">
      <use xlink:href="#DejaVuSans-44"/>
      <use xlink:href="#DejaVuSans-65" transform="translate(77.001953 0)"/>
      <use xlink:href="#DejaVuSans-70" transform="translate(138.525391 0)"/>
      <use xlink:href="#DejaVuSans-72" transform="translate(202.001953 0)"/>
      <use xlink:href="#DejaVuSans-65" transform="translate(240.865234 0)"/>
      <use xlink:href="#DejaVuSans-73" transform="translate(302.388672 0)"/>
      <use xlink:href="#DejaVuSans-73" transform="translate(354.488281 0)"/>
      <use xlink:href="#DejaVuSans-69" transform="translate(406.587891 0)"/>
      <use xlink:href="#DejaVuSans-76" transform="translate(434.371094 0)"/>
      <use xlink:href="#DejaVuSans-65" transform="translate(493.550781 0)"/>
      <use xlink:href="#DejaVuSans-20" transform="translate(555.074219 0)"/>
      <use xlink:href="#DejaVuSans-64" transform="translate(586.861328 0)"/>
      <use xlink:href="#DejaVuSans-69" transform="translate(650.337891 0)"/>
      <use xlink:href="#DejaVuSans-73" transform="translate(678.121094 0)"/>
      <use xlink:href="#DejaVuSans-6f" transform="translate(730.220703 0)"/>
      <use xlink:href="#DejaVuSans-72" transform="translate(791.402344 0)"/>
      <use xlink:href="#DejaVuSans-64" transform="translate(830.765625 0)"/>
      <use xlink:href="#DejaVuSans-65" transform="translate(894.242188 0)"/>
      <use xlink:href="#DejaVuSans-72" transform="translate(955.765625 0)"/>
      <use xlink:href="#DejaVuSans-20" transform="translate(996.878906 0)"/>
      <use xlink:href="#DejaVuSans-28" transform="translate(1028.666016 0)"/>
      <use xlink:href="#DejaVuSans-4d" transform="translate(1067.679688 0)"/>
      <use xlink:href="#DejaVuSans-44" transform="translate(1153.958984 0)"/>
      <use xlink:href="#DejaVuSans-44" transform="translate(1230.960938 0)"/>
      <use xlink:href="#DejaVuSans-2f" transform="translate(1307.962891 0)"/>
      <use xlink:href="#DejaVuSans-44" transform="translate(1341.654297 0)"/>
      <use xlink:href="#DejaVuSans-44" transform="translate(1418.65625 0)"/>
      <use xlink:href="#DejaVuSans-29" transform="translate(1495.658203 0)"/>
      <use xlink:href="#DejaVuSans-20" transform="translate(1534.671875 0)"/>
      <use xlink:href="#DejaVuSans-70" transform="translate(1566.458984 0)"/>
      <use xlink:href="#DejaVuSans-72" transform="translate(1629.935547 0)"/>
      <use xlink:href="#DejaVuSans-6f" transform="translate(1668.798828 0)"/>
      <use xlink:href="#DejaVuSans-74" transform="translate(1729.980469 0)"/>
      <use xlink:href="#DejaVuSans-6f" transform="translate(1769.189453 0)"/>
      <use xlink:href="#DejaVuSans-74" transform="translate(1830.371094 0)"/>
      <use xlink:href="#DejaVuSans-79" transform="translate(1869.580078 0)"/>
      <use xlink:href="#DejaVuSans-70" transform="translate(1928.759766 0)"/>
      <use xlink:href="#DejaVuSans-65" transform="translate(1992.236328 0)"/>
     </g>
    </g>
   </g>
  </g>
 </g>
 <defs>
  <clipPath id="p8449227450">
   <rect x="47.307188" y="23.837812" width="658.33" height="360.28"/>
  </clipPath>
 </defs>
</svg>
