<?xml version="1.0" encoding="utf-8" standalone="no"?>
<!DOCTYPE svg PUBLIC "-//W3C//DTD SVG 1.1//EN"
  "http://www.w3.org/Graphics/SVG/1.1/DTD/svg11.dtd">
<svg xmlns:xlink="http://www.w3.org/1999/xlink" width="712.837188pt" height="424.5775pt" viewBox="0 0 712.837188 424.5775" xmlns="http://www.w3.org/2000/svg" version="1.1">
 <metadata>
  <rdf:RDF xmlns:dc="http://purl.org/dc/elements/1.1/" xmlns:cc="http://creativecommons.org/ns#" xmlns:rdf="http://www.w3.org/1999/02/22-rdf-syntax-ns#">
   <cc:Work>
    <dc:type rdf:resource="http://purl.org/dc/dcmitype/StillImage"/>
    <dc:date>2026-06-23T21:52:47.935970</dc:date>
    <dc:format>image/svg+xml</dc:format>
    <dc:creator>
     <cc:Agent>
      <dc:title>Matplotlib v3.10.1, https://matplotlib.org/</dc:title>
     </cc:Agent>
    </dc:creator>
   </cc:Work>
  </rdf:RDF>
 </metadata>
 <defs>
  <style type="text/css">*{stroke-linejoin: round; stroke-linecap: butt}</style>
 </defs>
 <g id="figure_1">
  <g id="patch_1">
   <path d="M 0 424.5775 
L 712.837188 424.5775 
L 712.837188 0 
L 0 0 
z
" style="fill: #ffffff"/>
  </g>
  <g id="axes_1">
   <g id="patch_2">
    <path d="M 47.307188 384.117812 
L 705.637188 384.117812 
L 705.637188 23.837812 
L 47.307188 23.837812 
z
" style="fill: #ffffff"/>
   </g>
   <g id="matplotlib.axis_1">
    <g id="xtick_1">
     <g id="line2d_1">
      <path d="M 47.307188 384.117812 
L 47.307188 23.837812 
" clip-path="url(#pf640bdf0b6)" style="fill: none; stroke: #b0b0b0; stroke-opacity: 0.2; stroke-width: 0.6; stroke-linecap: square"/>
     </g>
     <g id="line2d_2">
      <defs>
       <path id="md28c92a557" d="M 0 0 
L 0 3.5 
" style="stroke: #000000; stroke-width: 0.8"/>
      </defs>
      <g>
       <use xlink:href="#md28c92a557" x="47.307188" y="384.117812" style="stroke: #000000; stroke-width: 0.8"/>
      </g>
     </g>
     <g id="text_1">
      <!-- 0 -->
      <g transform="translate(43.807813 399.476094) scale(0.11 -0.11)">
       <defs>
        <path id="DejaVuSans-30" d="M 2034 4250 
Q 1547 4250 1301 3770 
Q 1056 3291 1056 2328 
Q 1056 1369 1301 889 
Q 1547 409 2034 409 
Q 2525 409 2770 889 
Q 3016 1369 3016 2328 
Q 3016 3291 2770 3770 
Q 2525 4250 2034 4250 
z
M 2034 4750 
Q 2819 4750 3233 4129 
Q 3647 3509 3647 2328 
Q 3647 1150 3233 529 
Q 2819 -91 2034 -91 
Q 1250 -91 836 529 
Q 422 1150 422 2328 
Q 422 3509 836 4129 
Q 1250 4750 2034 4750 
z
" transform="scale(0.015625)"/>
       </defs>
       <use xlink:href="#DejaVuSans-30"/>
      </g>
     </g>
    </g>
    <g id="xtick_2">
     <g id="line2d_3">
      <path d="M 134.387875 384.117812 
L 134.387875 23.837812 
" clip-path="url(#pf640bdf0b6)" style="fill: none; stroke: #b0b0b0; stroke-opacity: 0.2; stroke-width: 0.6; stroke-linecap: square"/>
     </g>
     <g id="line2d_4">
      <g>
       <use xlink:href="#md28c92a557" x="134.387875" y="384.117812" style="stroke: #000000; stroke-width: 0.8"/>
      </g>
     </g>
     <g id="text_2">
      <!-- 25 -->
      <g transform="translate(127.389125 399.476094) scale(0.11 -0.11)">
       <defs>
        <path id="DejaVuSans-32" d="M 1228 531 
L 3431 531 
L 3431 0 
L 469 0 
L 469 531 
Q 828 903 1448 1529 
Q 2069 2156 2228 2338 
Q 2531 2678 2651 2914 
Q 2772 3150 2772 3378 
Q 2772 3750 2511 3984 
Q 2250 4219 1831 4219 
Q 1534 4219 1204 4116 
Q 875 4013 500 3803 
L 500 4441 
Q 881 4594 1212 4672 
Q 1544 4750 1819 4750 
Q 2544 4750 2975 4387 
Q 3406 4025 3406 3419 
Q 3406 3131 3298 2873 
Q 3191 2616 2906 2266 
Q 2828 2175 2409 1742 
Q 1991 1309 1228 531 
z
" transform="scale(0.015625)"/>
        <path id="DejaVuSans-35" d="M 691 4666 
L 3169 4666 
L 3169 4134 
L 1269 4134 
L 1269 2991 
Q 1406 3038 1543 3061 
Q 1681 3084 1819 3084 
Q 2600 3084 3056 2656 
Q 3513 2228 3513 1497 
Q 3513 744 3044 326 
Q 2575 -91 1722 -91 
Q 1428 -91 1123 -41 
Q 819 9 494 109 
L 494 744 
Q 775 591 1075 516 
Q 1375 441 1709 441 
Q 2250 441 2565 725 
Q 2881 1009 2881 1497 
Q 2881 1984 2565 2268 
Q 2250 2553 1709 2553 
Q 1456 2553 1204 2497 
Q 953 2441 691 2322 
L 691 4666 
z
" transform="scale(0.015625)"/>
       </defs>
       <use xlink:href="#DejaVuSans-32"/>
       <use xlink:href="#DejaVuSans-35" transform="translate(63.623047 0)"/>
      </g>
     </g>
    </g>
    <g id="xtick_3">
     <g id="line2d_5">
      <path d="M 221.468563 384.117812 
L 221.468563 23.837812 
" clip-path="url(#pf640bdf0b6)" style="fill: none; stroke: #b0b0b0; stroke-opacity: 0.2; stroke-width: 0.6; stroke-linecap: square"/>
     </g>
     <g id="line2d_6">
      <g>
       <use xlink:href="#md28c92a557" x="221.468563" y="384.117812" style="stroke: #000000; stroke-width: 0.8"/>
      </g>
     </g>
     <g id="text_3">
      <!-- 50 -->
      <g transform="translate(214.469813 399.476094) scale(0.11 -0.11)">
       <use xlink:href="#DejaVuSans-35"/>
       <use xlink:href="#DejaVuSans-30" transform="translate(63.623047 0)"/>
      </g>
     </g>
    </g>
    <g id="xtick_4">
     <g id="line2d_7">
      <path d="M 308.549251 384.117812 
L 308.549251 23.837812 
" clip-path="url(#pf640bdf0b6)" style="fill: none; stroke: #b0b0b0; stroke-opacity: 0.2; stroke-width: 0.6; stroke-linecap: square"/>
     </g>
     <g id="line2d_8">
      <g>
       <use xlink:href="#md28c92a557" x="308.549251" y="384.117812" style="stroke: #000000; stroke-width: 0.8"/>
      </g>
     </g>
     <g id="text_4">
      <!-- 75 -->
      <g transform="translate(301.550501 399.476094) scale(0.11 -0.11)">
       <defs>
        <path id="DejaVuSans-37" d="M 525 4666 
L 3525 4666 
L 3525 4397 
L 1831 0 
L 1172 0 
L 2766 4134 
L 525 4134 
L 525 4666 
z
" transform="scale(0.015625)"/>
       </defs>
       <use xlink:href="#DejaVuSans-37"/>
       <use xlink:href="#DejaVuSans-35" transform="translate(63.623047 0)"/>
      </g>
     </g>
    </g>
    <g id="xtick_5">
     <g id="line2d_9">
      <path d="M 395.629939 384.117812 
L 395.629939 23.837812 
" clip-path="url(#pf640bdf0b6)" style="fill: none; stroke: #b0b0b0; stroke-opacity: 0.2; stroke-width: 0.6; stroke-linecap: square"/>
     </g>
     <g id="line2d_10">
      <g>
       <use xlink:href="#md28c92a557" x="395.629939" y="384.117812" style="stroke: #000000; stroke-width: 0.8"/>
      </g>
     </g>
     <g id="text_5">
      <!-- 100 -->
      <g transform="translate(385.131814 399.476094) scale(0.11 -0.11)">
       <defs>
        <path id="DejaVuSans-31" d="M 794 531 
L 1825 531 
L 1825 4091 
L 703 3866 
L 703 4441 
L 1819 4666 
L 2450 4666 
L 2450 531 
L 3481 531 
L 3481 0 
L 794 0 
L 794 531 
z
" transform="scale(0.015625)"/>
       </defs>
       <use xlink:href="#DejaVuSans-31"/>
       <use xlink:href="#DejaVuSans-30" transform="translate(63.623047 0)"/>
       <use xlink:href="#DejaVuSans-30" transform="translate(127.246094 0)"/>
      </g>
     </g>
    </g>
    <g id="xtick_6">
     <g id="line2d_11">
      <path d="M 482.710627 384.117812 
L 482.710627 23.837812 
" clip-path="url(#pf640bdf0b6)" style="fill: none; stroke: #b0b0b0; stroke-opacity: 0.2; stroke-width: 0.6; stroke-linecap: square"/>
     </g>
     <g id="line2d_12">
      <g>
       <use xlink:href="#md28c92a557" x="482.710627" y="384.117812" style="stroke: #000000; stroke-width: 0.8"/>
      </g>
     </g>
     <g id="text_6">
      <!-- 125 -->
      <g transform="translate(472.212502 399.476094) scale(0.11 -0.11)">
       <use xlink:href="#DejaVuSans-31"/>
       <use xlink:href="#DejaVuSans-32" transform="translate(63.623047 0)"/>
       <use xlink:href="#DejaVuSans-35" transform="translate(127.246094 0)"/>
      </g>
     </g>
    </g>
    <g id="xtick_7">
     <g id="line2d_13">
      <path d="M 569.791314 384.117812 
L 569.791314 23.837812 
" clip-path="url(#pf640bdf0b6)" style="fill: none; stroke: #b0b0b0; stroke-opacity: 0.2; stroke-width: 0.6; stroke-linecap: square"/>
     </g>
     <g id="line2d_14">
      <g>
       <use xlink:href="#md28c92a557" x="569.791314" y="384.117812" style="stroke: #000000; stroke-width: 0.8"/>
      </g>
     </g>
     <g id="text_7">
      <!-- 150 -->
      <g transform="translate(559.293189 399.476094) scale(0.11 -0.11)">
       <use xlink:href="#DejaVuSans-31"/>
       <use xlink:href="#DejaVuSans-35" transform="translate(63.623047 0)"/>
       <use xlink:href="#DejaVuSans-30" transform="translate(127.246094 0)"/>
      </g>
     </g>
    </g>
    <g id="xtick_8">
     <g id="line2d_15">
      <path d="M 656.872002 384.117812 
L 656.872002 23.837812 
" clip-path="url(#pf640bdf0b6)" style="fill: none; stroke: #b0b0b0; stroke-opacity: 0.2; stroke-width: 0.6; stroke-linecap: square"/>
     </g>
     <g id="line2d_16">
      <g>
       <use xlink:href="#md28c92a557" x="656.872002" y="384.117812" style="stroke: #000000; stroke-width: 0.8"/>
      </g>
     </g>
     <g id="text_8">
      <!-- 175 -->
      <g transform="translate(646.373877 399.476094) scale(0.11 -0.11)">
       <use xlink:href="#DejaVuSans-31"/>
       <use xlink:href="#DejaVuSans-37" transform="translate(63.623047 0)"/>
       <use xlink:href="#DejaVuSans-35" transform="translate(127.246094 0)"/>
      </g>
     </g>
    </g>
    <g id="text_9">
     <!-- Time (s) -->
     <g transform="translate(352.0775 414.881875) scale(0.12 -0.12)">
      <defs>
       <path id="DejaVuSans-54" d="M -19 4666 
L 3928 4666 
L 3928 4134 
L 2272 4134 
L 2272 0 
L 1638 0 
L 1638 4134 
L -19 4134 
L -19 4666 
z
" transform="scale(0.015625)"/>
       <path id="DejaVuSans-69" d="M 603 3500 
L 1178 3500 
L 1178 0 
L 603 0 
L 603 3500 
z
M 603 4863 
L 1178 4863 
L 1178 4134 
L 603 4134 
L 603 4863 
z
" transform="scale(0.015625)"/>
       <path id="DejaVuSans-6d" d="M 3328 2828 
Q 3544 3216 3844 3400 
Q 4144 3584 4550 3584 
Q 5097 3584 5394 3201 
Q 5691 2819 5691 2113 
L 5691 0 
L 5113 0 
L 5113 2094 
Q 5113 2597 4934 2840 
Q 4756 3084 4391 3084 
Q 3944 3084 3684 2787 
Q 3425 2491 3425 1978 
L 3425 0 
L 2847 0 
L 2847 2094 
Q 2847 2600 2669 2842 
Q 2491 3084 2119 3084 
Q 1678 3084 1418 2786 
Q 1159 2488 1159 1978 
L 1159 0 
L 581 0 
L 581 3500 
L 1159 3500 
L 1159 2956 
Q 1356 3278 1631 3431 
Q 1906 3584 2284 3584 
Q 2666 3584 2933 3390 
Q 3200 3197 3328 2828 
z
" transform="scale(0.015625)"/>
       <path id="DejaVuSans-65" d="M 3597 1894 
L 3597 1613 
L 953 1613 
Q 991 1019 1311 708 
Q 1631 397 2203 397 
Q 2534 397 2845 478 
Q 3156 559 3463 722 
L 3463 178 
Q 3153 47 2828 -22 
Q 2503 -91 2169 -91 
Q 1331 -91 842 396 
Q 353 884 353 1716 
Q 353 2575 817 3079 
Q 1281 3584 2069 3584 
Q 2775 3584 3186 3129 
Q 3597 2675 3597 1894 
z
M 3022 2063 
Q 3016 2534 2758 2815 
Q 2500 3097 2075 3097 
Q 1594 3097 1305 2825 
Q 1016 2553 972 2059 
L 3022 2063 
z
" transform="scale(0.015625)"/>
       <path id="DejaVuSans-20" transform="scale(0.015625)"/>
       <path id="DejaVuSans-28" d="M 1984 4856 
Q 1566 4138 1362 3434 
Q 1159 2731 1159 2009 
Q 1159 1288 1364 580 
Q 1569 -128 1984 -844 
L 1484 -844 
Q 1016 -109 783 600 
Q 550 1309 550 2009 
Q 550 2706 781 3412 
Q 1013 4119 1484 4856 
L 1984 4856 
z
" transform="scale(0.015625)"/>
       <path id="DejaVuSans-73" d="M 2834 3397 
L 2834 2853 
Q 2591 2978 2328 3040 
Q 2066 3103 1784 3103 
Q 1356 3103 1142 2972 
Q 928 2841 928 2578 
Q 928 2378 1081 2264 
Q 1234 2150 1697 2047 
L 1894 2003 
Q 2506 1872 2764 1633 
Q 3022 1394 3022 966 
Q 3022 478 2636 193 
Q 2250 -91 1575 -91 
Q 1294 -91 989 -36 
Q 684 19 347 128 
L 347 722 
Q 666 556 975 473 
Q 1284 391 1588 391 
Q 1994 391 2212 530 
Q 2431 669 2431 922 
Q 2431 1156 2273 1281 
Q 2116 1406 1581 1522 
L 1381 1569 
Q 847 1681 609 1914 
Q 372 2147 372 2553 
Q 372 3047 722 3315 
Q 1072 3584 1716 3584 
Q 2034 3584 2315 3537 
Q 2597 3491 2834 3397 
z
" transform="scale(0.015625)"/>
       <path id="DejaVuSans-29" d="M 513 4856 
L 1013 4856 
Q 1481 4119 1714 3412 
Q 1947 2706 1947 2009 
Q 1947 1309 1714 600 
Q 1481 -109 1013 -844 
L 513 -844 
Q 928 -128 1133 580 
Q 1338 1288 1338 2009 
Q 1338 2731 1133 3434 
Q 928 4138 513 4856 
z
" transform="scale(0.015625)"/>
      </defs>
      <use xlink:href="#DejaVuSans-54"/>
      <use xlink:href="#DejaVuSans-69" transform="translate(57.958984 0)"/>
      <use xlink:href="#DejaVuSans-6d" transform="translate(85.742188 0)"/>
      <use xlink:href="#DejaVuSans-65" transform="translate(183.154297 0)"/>
      <use xlink:href="#DejaVuSans-20" transform="translate(244.677734 0)"/>
      <use xlink:href="#DejaVuSans-28" transform="translate(276.464844 0)"/>
      <use xlink:href="#DejaVuSans-73" transform="translate(315.478516 0)"/>
      <use xlink:href="#DejaVuSans-29" transform="translate(367.578125 0)"/>
     </g>
    </g>
   </g>
   <g id="matplotlib.axis_2">
    <g id="ytick_1">
     <g id="line2d_17">
      <path d="M 47.307188 367.741449 
L 705.637188 367.741449 
" clip-path="url(#pf640bdf0b6)" style="fill: none; stroke: #b0b0b0; stroke-opacity: 0.2; stroke-width: 0.6; stroke-linecap: square"/>
     </g>
     <g id="line2d_18">
      <defs>
       <path id="mcca279ac35" d="M 0 0 
L -3.5 0 
" style="stroke: #000000; stroke-width: 0.8"/>
      </defs>
      <g>
       <use xlink:href="#mcca279ac35" x="47.307188" y="367.741449" style="stroke: #000000; stroke-width: 0.8"/>
      </g>
     </g>
     <g id="text_10">
      <!-- 0.0 -->
      <g transform="translate(22.81375 371.920589) scale(0.11 -0.11)">
       <defs>
        <path id="DejaVuSans-2e" d="M 684 794 
L 1344 794 
L 1344 0 
L 684 0 
L 684 794 
z
" transform="scale(0.015625)"/>
       </defs>
       <use xlink:href="#DejaVuSans-30"/>
       <use xlink:href="#DejaVuSans-2e" transform="translate(63.623047 0)"/>
       <use xlink:href="#DejaVuSans-30" transform="translate(95.410156 0)"/>
      </g>
     </g>
    </g>
    <g id="ytick_2">
     <g id="line2d_19">
      <path d="M 47.307188 317.507205 
L 705.637188 317.507205 
" clip-path="url(#pf640bdf0b6)" style="fill: none; stroke: #b0b0b0; stroke-opacity: 0.2; stroke-width: 0.6; stroke-linecap: square"/>
     </g>
     <g id="line2d_20">
      <g>
       <use xlink:href="#mcca279ac35" x="47.307188" y="317.507205" style="stroke: #000000; stroke-width: 0.8"/>
      </g>
     </g>
     <g id="text_11">
      <!-- 0.5 -->
      <g transform="translate(22.81375 321.686345) scale(0.11 -0.11)">
       <use xlink:href="#DejaVuSans-30"/>
       <use xlink:href="#DejaVuSans-2e" transform="translate(63.623047 0)"/>
       <use xlink:href="#DejaVuSans-35" transform="translate(95.410156 0)"/>
      </g>
     </g>
    </g>
    <g id="ytick_3">
     <g id="line2d_21">
      <path d="M 47.307188 267.27296 
L 705.637188 267.27296 
" clip-path="url(#pf640bdf0b6)" style="fill: none; stroke: #b0b0b0; stroke-opacity: 0.2; stroke-width: 0.6; stroke-linecap: square"/>
     </g>
     <g id="line2d_22">
      <g>
       <use xlink:href="#mcca279ac35" x="47.307188" y="267.27296" style="stroke: #000000; stroke-width: 0.8"/>
      </g>
     </g>
     <g id="text_12">
      <!-- 1.0 -->
      <g transform="translate(22.81375 271.452101) scale(0.11 -0.11)">
       <use xlink:href="#DejaVuSans-31"/>
       <use xlink:href="#DejaVuSans-2e" transform="translate(63.623047 0)"/>
       <use xlink:href="#DejaVuSans-30" transform="translate(95.410156 0)"/>
      </g>
     </g>
    </g>
    <g id="ytick_4">
     <g id="line2d_23">
      <path d="M 47.307188 217.038716 
L 705.637188 217.038716 
" clip-path="url(#pf640bdf0b6)" style="fill: none; stroke: #b0b0b0; stroke-opacity: 0.2; stroke-width: 0.6; stroke-linecap: square"/>
     </g>
     <g id="line2d_24">
      <g>
       <use xlink:href="#mcca279ac35" x="47.307188" y="217.038716" style="stroke: #000000; stroke-width: 0.8"/>
      </g>
     </g>
     <g id="text_13">
      <!-- 1.5 -->
      <g transform="translate(22.81375 221.217857) scale(0.11 -0.11)">
       <use xlink:href="#DejaVuSans-31"/>
       <use xlink:href="#DejaVuSans-2e" transform="translate(63.623047 0)"/>
       <use xlink:href="#DejaVuSans-35" transform="translate(95.410156 0)"/>
      </g>
     </g>
    </g>
    <g id="ytick_5">
     <g id="line2d_25">
      <path d="M 47.307188 166.804472 
L 705.637188 166.804472 
" clip-path="url(#pf640bdf0b6)" style="fill: none; stroke: #b0b0b0; stroke-opacity: 0.2; stroke-width: 0.6; stroke-linecap: square"/>
     </g>
     <g id="line2d_26">
      <g>
       <use xlink:href="#mcca279ac35" x="47.307188" y="166.804472" style="stroke: #000000; stroke-width: 0.8"/>
      </g>
     </g>
     <g id="text_14">
      <!-- 2.0 -->
      <g transform="translate(22.81375 170.983612) scale(0.11 -0.11)">
       <use xlink:href="#DejaVuSans-32"/>
       <use xlink:href="#DejaVuSans-2e" transform="translate(63.623047 0)"/>
       <use xlink:href="#DejaVuSans-30" transform="translate(95.410156 0)"/>
      </g>
     </g>
    </g>
    <g id="ytick_6">
     <g id="line2d_27">
      <path d="M 47.307188 116.570227 
L 705.637188 116.570227 
" clip-path="url(#pf640bdf0b6)" style="fill: none; stroke: #b0b0b0; stroke-opacity: 0.2; stroke-width: 0.6; stroke-linecap: square"/>
     </g>
     <g id="line2d_28">
      <g>
       <use xlink:href="#mcca279ac35" x="47.307188" y="116.570227" style="stroke: #000000; stroke-width: 0.8"/>
      </g>
     </g>
     <g id="text_15">
      <!-- 2.5 -->
      <g transform="translate(22.81375 120.749368) scale(0.11 -0.11)">
       <use xlink:href="#DejaVuSans-32"/>
       <use xlink:href="#DejaVuSans-2e" transform="translate(63.623047 0)"/>
       <use xlink:href="#DejaVuSans-35" transform="translate(95.410156 0)"/>
      </g>
     </g>
    </g>
    <g id="ytick_7">
     <g id="line2d_29">
      <path d="M 47.307188 66.335983 
L 705.637188 66.335983 
" clip-path="url(#pf640bdf0b6)" style="fill: none; stroke: #b0b0b0; stroke-opacity: 0.2; stroke-width: 0.6; stroke-linecap: square"/>
     </g>
     <g id="line2d_30">
      <g>
       <use xlink:href="#mcca279ac35" x="47.307188" y="66.335983" style="stroke: #000000; stroke-width: 0.8"/>
      </g>
     </g>
     <g id="text_16">
      <!-- 3.0 -->
      <g transform="translate(22.81375 70.515124) scale(0.11 -0.11)">
       <defs>
        <path id="DejaVuSans-33" d="M 2597 2516 
Q 3050 2419 3304 2112 
Q 3559 1806 3559 1356 
Q 3559 666 3084 287 
Q 2609 -91 1734 -91 
Q 1441 -91 1130 -33 
Q 819 25 488 141 
L 488 750 
Q 750 597 1062 519 
Q 1375 441 1716 441 
Q 2309 441 2620 675 
Q 2931 909 2931 1356 
Q 2931 1769 2642 2001 
Q 2353 2234 1838 2234 
L 1294 2234 
L 1294 2753 
L 1863 2753 
Q 2328 2753 2575 2939 
Q 2822 3125 2822 3475 
Q 2822 3834 2567 4026 
Q 2313 4219 1838 4219 
Q 1578 4219 1281 4162 
Q 984 4106 628 3988 
L 628 4550 
Q 988 4650 1302 4700 
Q 1616 4750 1894 4750 
Q 2613 4750 3031 4423 
Q 3450 4097 3450 3541 
Q 3450 3153 3228 2886 
Q 3006 2619 2597 2516 
z
" transform="scale(0.015625)"/>
       </defs>
       <use xlink:href="#DejaVuSans-33"/>
       <use xlink:href="#DejaVuSans-2e" transform="translate(63.623047 0)"/>
       <use xlink:href="#DejaVuSans-30" transform="translate(95.410156 0)"/>
      </g>
     </g>
    </g>
    <g id="text_17">
     <!-- AU mean intensity -->
     <g transform="translate(16.318125 259.314687) rotate(-90) scale(0.12 -0.12)">
      <defs>
       <path id="DejaVuSans-41" d="M 2188 4044 
L 1331 1722 
L 3047 1722 
L 2188 4044 
z
M 1831 4666 
L 2547 4666 
L 4325 0 
L 3669 0 
L 3244 1197 
L 1141 1197 
L 716 0 
L 50 0 
L 1831 4666 
z
" transform="scale(0.015625)"/>
       <path id="DejaVuSans-55" d="M 556 4666 
L 1191 4666 
L 1191 1831 
Q 1191 1081 1462 751 
Q 1734 422 2344 422 
Q 2950 422 3222 751 
Q 3494 1081 3494 1831 
L 3494 4666 
L 4128 4666 
L 4128 1753 
Q 4128 841 3676 375 
Q 3225 -91 2344 -91 
Q 1459 -91 1007 375 
Q 556 841 556 1753 
L 556 4666 
z
" transform="scale(0.015625)"/>
       <path id="DejaVuSans-61" d="M 2194 1759 
Q 1497 1759 1228 1600 
Q 959 1441 959 1056 
Q 959 750 1161 570 
Q 1363 391 1709 391 
Q 2188 391 2477 730 
Q 2766 1069 2766 1631 
L 2766 1759 
L 2194 1759 
z
M 3341 1997 
L 3341 0 
L 2766 0 
L 2766 531 
Q 2569 213 2275 61 
Q 1981 -91 1556 -91 
Q 1019 -91 701 211 
Q 384 513 384 1019 
Q 384 1609 779 1909 
Q 1175 2209 1959 2209 
L 2766 2209 
L 2766 2266 
Q 2766 2663 2505 2880 
Q 2244 3097 1772 3097 
Q 1472 3097 1187 3025 
Q 903 2953 641 2809 
L 641 3341 
Q 956 3463 1253 3523 
Q 1550 3584 1831 3584 
Q 2591 3584 2966 3190 
Q 3341 2797 3341 1997 
z
" transform="scale(0.015625)"/>
       <path id="DejaVuSans-6e" d="M 3513 2113 
L 3513 0 
L 2938 0 
L 2938 2094 
Q 2938 2591 2744 2837 
Q 2550 3084 2163 3084 
Q 1697 3084 1428 2787 
Q 1159 2491 1159 1978 
L 1159 0 
L 581 0 
L 581 3500 
L 1159 3500 
L 1159 2956 
Q 1366 3272 1645 3428 
Q 1925 3584 2291 3584 
Q 2894 3584 3203 3211 
Q 3513 2838 3513 2113 
z
" transform="scale(0.015625)"/>
       <path id="DejaVuSans-74" d="M 1172 4494 
L 1172 3500 
L 2356 3500 
L 2356 3053 
L 1172 3053 
L 1172 1153 
Q 1172 725 1289 603 
Q 1406 481 1766 481 
L 2356 481 
L 2356 0 
L 1766 0 
Q 1100 0 847 248 
Q 594 497 594 1153 
L 594 3053 
L 172 3053 
L 172 3500 
L 594 3500 
L 594 4494 
L 1172 4494 
z
" transform="scale(0.015625)"/>
       <path id="DejaVuSans-79" d="M 2059 -325 
Q 1816 -950 1584 -1140 
Q 1353 -1331 966 -1331 
L 506 -1331 
L 506 -850 
L 844 -850 
Q 1081 -850 1212 -737 
Q 1344 -625 1503 -206 
L 1606 56 
L 191 3500 
L 800 3500 
L 1894 763 
L 2988 3500 
L 3597 3500 
L 2059 -325 
z
" transform="scale(0.015625)"/>
      </defs>
      <use xlink:href="#DejaVuSans-41"/>
      <use xlink:href="#DejaVuSans-55" transform="translate(68.408203 0)"/>
      <use xlink:href="#DejaVuSans-20" transform="translate(141.601562 0)"/>
      <use xlink:href="#DejaVuSans-6d" transform="translate(173.388672 0)"/>
      <use xlink:href="#DejaVuSans-65" transform="translate(270.800781 0)"/>
      <use xlink:href="#DejaVuSans-61" transform="translate(332.324219 0)"/>
      <use xlink:href="#DejaVuSans-6e" transform="translate(393.603516 0)"/>
      <use xlink:href="#DejaVuSans-20" transform="translate(456.982422 0)"/>
      <use xlink:href="#DejaVuSans-69" transform="translate(488.769531 0)"/>
      <use xlink:href="#DejaVuSans-6e" transform="translate(516.552734 0)"/>
      <use xlink:href="#DejaVuSans-74" transform="translate(579.931641 0)"/>
      <use xlink:href="#DejaVuSans-65" transform="translate(619.140625 0)"/>
      <use xlink:href="#DejaVuSans-6e" transform="translate(680.664062 0)"/>
      <use xlink:href="#DejaVuSans-73" transform="translate(744.042969 0)"/>
      <use xlink:href="#DejaVuSans-69" transform="translate(796.142578 0)"/>
      <use xlink:href="#DejaVuSans-74" transform="translate(823.925781 0)"/>
      <use xlink:href="#DejaVuSans-79" transform="translate(863.134766 0)"/>
     </g>
    </g>
   </g>
   <g id="FillBetweenPolyCollection_1">
    <defs>
     <path id="m6acb932b28" d="M 47.307188 -153.086476 
L 47.307188 -20.756832 
L 50.790415 -32.444311 
L 54.273643 -33.825294 
L 57.75687 -34.291006 
L 61.240098 -33.49039 
L 64.723325 -36.683867 
L 68.206553 -37.340376 
L 71.68978 -34.6323 
L 75.173008 -38.869379 
L 78.656235 -42.480643 
L 82.139463 -43.066622 
L 85.62269 -41.111811 
L 89.105918 -38.645159 
L 92.589145 -38.809443 
L 96.072373 -38.597793 
L 99.5556 -41.398249 
L 103.038828 -41.146322 
L 106.522055 -40.911865 
L 110.005283 -41.561557 
L 113.48851 -38.979394 
L 116.971738 -41.509328 
L 120.454965 -38.002752 
L 123.938193 -39.590065 
L 127.42142 -46.084696 
L 130.904648 -46.859881 
L 134.387875 -45.599707 
L 137.871103 -42.931349 
L 141.35433 -46.109956 
L 144.837558 -41.668406 
L 148.320785 -31.876052 
L 151.804013 -23.082468 
L 155.28724 -23.651267 
L 158.770468 -32.606926 
L 162.253695 -30.437708 
L 165.736923 -31.467309 
L 169.22015 -32.944888 
L 172.703378 -26.328187 
L 176.186605 -29.376365 
L 179.669833 -33.722684 
L 183.153061 -34.353897 
L 186.636288 -35.541754 
L 190.119516 -40.449139 
L 193.602743 -44.147727 
L 197.085971 -51.456191 
L 200.569198 -39.620195 
L 204.052426 -37.678521 
L 207.535653 -39.796248 
L 211.018881 -41.254634 
L 214.502108 -35.560785 
L 217.985336 -30.678061 
L 221.468563 -31.845863 
L 224.951791 -36.426173 
L 228.435018 -25.817359 
L 231.918246 -33.154324 
L 235.401473 -41.632586 
L 238.884701 -33.465695 
L 242.367928 -33.716641 
L 245.851156 -29.765745 
L 249.334383 -36.847385 
L 252.817611 -35.104634 
L 256.300838 -46.26696 
L 259.784066 -37.732731 
L 263.267293 -41.932501 
L 266.750521 -43.797844 
L 270.233748 -42.662095 
L 273.716976 5.478309 
L 277.200203 46.813494 
L 280.683431 40.747468 
L 284.166658 34.653693 
L 287.649886 4.235302 
L 291.133113 4.828473 
L 294.616341 -24.562726 
L 298.099568 -29.707948 
L 301.582796 -19.709252 
L 305.066023 -35.283694 
L 308.549251 -34.905128 
L 312.032479 -11.491728 
L 315.515706 -18.156874 
L 318.998934 -10.382528 
L 322.482161 -12.343425 
L 325.965389 -4.980674 
L 329.448616 -14.016271 
L 332.931844 -20.825283 
L 336.415071 -18.238816 
L 339.898299 -22.076023 
L 343.381526 -23.619457 
L 346.864754 -28.44165 
L 350.347981 -32.526285 
L 353.831209 -34.465946 
L 357.314436 -36.728889 
L 360.797664 -38.756997 
L 364.280891 -17.852024 
L 367.764119 0.885594 
L 371.247346 2.974911 
L 374.730574 -0.177663 
L 378.213801 -7.379959 
L 381.697029 0.842674 
L 385.180256 0.472264 
L 388.663484 56.991552 
L 392.146711 36.25915 
L 395.629939 -23.963804 
L 399.113166 -9.331659 
L 402.596394 -11.927582 
L 406.079621 -28.953952 
L 409.562849 -25.265942 
L 413.046076 -5.843246 
L 416.529304 -32.014183 
L 420.012531 -33.811078 
L 423.495759 -19.116696 
L 426.978986 -22.605276 
L 430.462214 -16.104984 
L 433.945441 -30.018271 
L 437.428669 -25.119263 
L 440.911896 -18.304032 
L 444.395124 -22.59054 
L 447.878352 -30.248589 
L 451.361579 -33.612204 
L 454.844807 -30.445812 
L 458.328034 -22.86148 
L 461.811262 -27.387816 
L 465.294489 -11.40505 
L 468.777717 -21.051839 
L 472.260944 19.386515 
L 475.744172 50.697275 
L 479.227399 55.115195 
L 482.710627 52.882568 
L 486.193854 37.679027 
L 489.677082 -13.827592 
L 493.160309 -32.950888 
L 496.643537 -14.014325 
L 500.126764 -18.511273 
L 503.609992 -3.321588 
L 507.093219 -2.926009 
L 510.576447 25.646489 
L 514.059674 7.9246 
L 517.542902 3.214648 
L 521.026129 2.791819 
L 524.509357 -5.45107 
L 527.992584 52.62983 
L 531.475812 59.250622 
L 534.959039 -6.03517 
L 538.442267 10.587238 
L 541.925494 21.864252 
L 545.408722 28.399298 
L 548.891949 15.844712 
L 552.375177 14.285895 
L 555.858404 3.969099 
L 559.341632 -8.292954 
L 562.824859 -7.087693 
L 566.308087 -6.957565 
L 569.791314 9.134019 
L 573.274542 -13.920248 
L 576.75777 -10.435362 
L 580.240997 -23.036802 
L 583.724225 -18.91728 
L 587.207452 -24.518862 
L 590.69068 -36.886577 
L 594.173907 -14.967288 
L 597.657135 -11.707793 
L 601.140362 6.133787 
L 604.62359 -7.022216 
L 608.106817 -1.453848 
L 611.590045 11.212451 
L 615.073272 -13.81942 
L 618.5565 -12.084048 
L 622.039727 -18.960916 
L 625.522955 -18.610179 
L 629.006182 -11.011009 
L 632.48941 -16.259669 
L 635.972637 -5.892261 
L 639.455865 -3.941125 
L 642.939092 -9.323519 
L 646.42232 2.838988 
L 649.905547 3.80406 
L 653.388775 5.581308 
L 656.872002 15.256958 
L 660.35523 24.069569 
L 663.838457 -4.627482 
L 667.321685 -10.769382 
L 670.804912 -17.277932 
L 674.28814 -21.344318 
L 677.771367 -19.611589 
L 681.254595 -19.128161 
L 684.737822 -17.852168 
L 688.22105 -16.478371 
L 691.704277 -20.500951 
L 695.187505 -24.013438 
L 698.670732 -27.047635 
L 702.15396 -22.0205 
L 705.637188 -29.859815 
L 705.637188 -113.432551 
L 705.637188 -113.432551 
L 702.15396 -129.20305 
L 698.670732 -118.139238 
L 695.187505 -125.179137 
L 691.704277 -132.423151 
L 688.22105 -170.386271 
L 684.737822 -169.326491 
L 681.254595 -160.723507 
L 677.771367 -153.527465 
L 674.28814 -151.069441 
L 670.804912 -162.963205 
L 667.321685 -182.653634 
L 663.838457 -193.057063 
L 660.35523 -248.597305 
L 656.872002 -248.244052 
L 653.388775 -229.088154 
L 649.905547 -228.251332 
L 646.42232 -228.031113 
L 642.939092 -189.409017 
L 639.455865 -157.599351 
L 635.972637 -172.088335 
L 632.48941 -130.988354 
L 629.006182 -196.789674 
L 625.522955 -201.250634 
L 622.039727 -156.456002 
L 618.5565 -167.524551 
L 615.073272 -163.113185 
L 611.590045 -233.836147 
L 608.106817 -212.712726 
L 604.62359 -193.214833 
L 601.140362 -212.340832 
L 597.657135 -179.438478 
L 594.173907 -168.677652 
L 590.69068 -104.552099 
L 587.207452 -130.189421 
L 583.724225 -137.097428 
L 580.240997 -137.656286 
L 576.75777 -165.737863 
L 573.274542 -162.587965 
L 569.791314 -202.232943 
L 566.308087 -171.715918 
L 562.824859 -175.35671 
L 559.341632 -176.755081 
L 555.858404 -208.630002 
L 552.375177 -213.070397 
L 548.891949 -215.830589 
L 545.408722 -232.718228 
L 541.925494 -218.511983 
L 538.442267 -196.536025 
L 534.959039 -165.584563 
L 531.475812 -284.425424 
L 527.992584 -277.368226 
L 524.509357 -170.208357 
L 521.026129 -187.877571 
L 517.542902 -186.23599 
L 514.059674 -187.573711 
L 510.576447 -216.298241 
L 507.093219 -174.973006 
L 503.609992 -177.915573 
L 500.126764 -146.051359 
L 496.643537 -158.197994 
L 493.160309 -118.064703 
L 489.677082 -153.82034 
L 486.193854 -257.304873 
L 482.710627 -288.736478 
L 479.227399 -301.049201 
L 475.744172 -293.982389 
L 472.260944 -222.589004 
L 468.777717 -132.062806 
L 465.294489 -147.194292 
L 461.811262 -132.8982 
L 458.328034 -125.042829 
L 454.844807 -104.870321 
L 451.361579 -109.268681 
L 447.878352 -116.855269 
L 444.395124 -155.664975 
L 440.911896 -162.422125 
L 437.428669 -142.279174 
L 433.945441 -148.776466 
L 430.462214 -173.801635 
L 426.978986 -151.34792 
L 423.495759 -146.588361 
L 420.012531 -118.108338 
L 416.529304 -113.151549 
L 413.046076 -158.30561 
L 409.562849 -128.885239 
L 406.079621 -135.584653 
L 402.596394 -177.120194 
L 399.113166 -203.717636 
L 395.629939 -150.734803 
L 392.146711 -237.979757 
L 388.663484 -278.732098 
L 385.180256 -178.712692 
L 381.697029 -182.087937 
L 378.213801 -167.777126 
L 374.730574 -181.415999 
L 371.247346 -193.947122 
L 367.764119 -172.82942 
L 364.280891 -144.044953 
L 360.797664 -103.475704 
L 357.314436 -108.079784 
L 353.831209 -117.602944 
L 350.347981 -118.743551 
L 346.864754 -130.214408 
L 343.381526 -141.57739 
L 339.898299 -144.034148 
L 336.415071 -151.652335 
L 332.931844 -150.284006 
L 329.448616 -170.979797 
L 325.965389 -172.091906 
L 322.482161 -152.706184 
L 318.998934 -155.047051 
L 315.515706 -140.769353 
L 312.032479 -151.474752 
L 308.549251 -109.600407 
L 305.066023 -108.731512 
L 301.582796 -141.139735 
L 298.099568 -120.513618 
L 294.616341 -130.587272 
L 291.133113 -185.895485 
L 287.649886 -183.047361 
L 284.166658 -239.735916 
L 280.683431 -254.498311 
L 277.200203 -268.521631 
L 273.716976 -182.402253 
L 270.233748 -95.025217 
L 266.750521 -92.271803 
L 263.267293 -100.632394 
L 259.784066 -112.064721 
L 256.300838 -94.086008 
L 252.817611 -111.418932 
L 249.334383 -113.779296 
L 245.851156 -123.3489 
L 242.367928 -115.905355 
L 238.884701 -116.279791 
L 235.401473 -96.314 
L 231.918246 -103.06256 
L 228.435018 -111.845646 
L 224.951791 -93.303566 
L 221.468563 -101.052992 
L 217.985336 -107.392294 
L 214.502108 -94.631901 
L 211.018881 -85.833476 
L 207.535653 -87.503919 
L 204.052426 -93.714144 
L 200.569198 -88.360565 
L 197.085971 -65.056744 
L 193.602743 -76.03052 
L 190.119516 -86.959431 
L 186.636288 -105.4675 
L 183.153061 -102.962944 
L 179.669833 -98.924999 
L 176.186605 -106.164956 
L 172.703378 -111.010726 
L 169.22015 -99.954804 
L 165.736923 -102.525355 
L 162.253695 -103.102904 
L 158.770468 -100.534997 
L 155.28724 -116.497747 
L 151.804013 -118.36431 
L 148.320785 -99.048915 
L 144.837558 -84.18145 
L 141.35433 -76.578327 
L 137.871103 -82.96712 
L 134.387875 -78.820791 
L 130.904648 -74.865905 
L 127.42142 -76.309111 
L 123.938193 -87.815431 
L 120.454965 -90.479792 
L 116.971738 -85.239882 
L 113.48851 -89.070096 
L 110.005283 -84.531367 
L 106.522055 -86.271517 
L 103.038828 -86.234867 
L 99.5556 -84.832415 
L 96.072373 -89.682752 
L 92.589145 -93.483974 
L 89.105918 -89.991887 
L 85.62269 -86.712491 
L 82.139463 -82.52396 
L 78.656235 -82.753996 
L 75.173008 -89.11138 
L 71.68978 -97.583167 
L 68.206553 -93.014356 
L 64.723325 -94.301728 
L 61.240098 -99.46518 
L 57.75687 -98.816553 
L 54.273643 -99.049253 
L 50.790415 -109.021186 
L 47.307188 -153.086476 
z
" style="stroke: #d3d3d3; stroke-opacity: 0.5"/>
    </defs>
    <g clip-path="url(#pf640bdf0b6)">
     <use xlink:href="#m6acb932b28" x="0" y="424.5775" style="fill: #d3d3d3; fill-opacity: 0.5; stroke: #d3d3d3; stroke-opacity: 0.5"/>
    </g>
   </g>
   <g id="FillBetweenPolyCollection_2">
    <defs>
     <path id="m25d81d06b7" d="M 47.307188 -120.004065 
L 47.307188 -53.839243 
L 50.790415 -51.58853 
L 54.273643 -50.131284 
L 57.75687 -50.422392 
L 61.240098 -49.984088 
L 64.723325 -51.088332 
L 68.206553 -51.258871 
L 71.68978 -50.370017 
L 75.173008 -51.42988 
L 78.656235 -52.548981 
L 82.139463 -52.930956 
L 85.62269 -52.511981 
L 89.105918 -51.481841 
L 92.589145 -52.478076 
L 96.072373 -51.369032 
L 99.5556 -52.25679 
L 103.038828 -52.418459 
L 106.522055 -52.251778 
L 110.005283 -52.30401 
L 113.48851 -51.502069 
L 116.971738 -52.441967 
L 120.454965 -51.122012 
L 123.938193 -51.646407 
L 127.42142 -53.6408 
L 130.904648 -53.861387 
L 134.387875 -53.904978 
L 137.871103 -52.940292 
L 141.35433 -53.727049 
L 144.837558 -52.296667 
L 148.320785 -48.669268 
L 151.804013 -46.902928 
L 155.28724 -46.862887 
L 158.770468 -49.588944 
L 162.253695 -48.604007 
L 165.736923 -49.231821 
L 169.22015 -49.697367 
L 172.703378 -47.498822 
L 176.186605 -48.573512 
L 179.669833 -50.023263 
L 183.153061 -51.506159 
L 186.636288 -53.02319 
L 190.119516 -52.076712 
L 193.602743 -52.118425 
L 197.085971 -54.856329 
L 200.569198 -51.805287 
L 204.052426 -51.687427 
L 207.535653 -51.723166 
L 211.018881 -52.399344 
L 214.502108 -50.328564 
L 217.985336 -49.856619 
L 221.468563 -49.147645 
L 224.951791 -50.645521 
L 228.435018 -47.324431 
L 231.918246 -50.631383 
L 235.401473 -55.302939 
L 238.884701 -54.169219 
L 242.367928 -54.26382 
L 245.851156 -53.161534 
L 249.334383 -56.080363 
L 252.817611 -54.183208 
L 256.300838 -58.221722 
L 259.784066 -56.315729 
L 263.267293 -56.607474 
L 266.750521 -55.916333 
L 270.233748 -55.752876 
L 273.716976 -41.491832 
L 277.200203 -32.020287 
L 280.683431 -33.063977 
L 284.166658 -33.943709 
L 287.649886 -42.585364 
L 291.133113 -42.852517 
L 294.616341 -51.068862 
L 298.099568 -52.409366 
L 301.582796 -50.066872 
L 305.066023 -53.645649 
L 308.549251 -53.578948 
L 312.032479 -46.487484 
L 315.515706 -48.809994 
L 318.998934 -46.548659 
L 322.482161 -47.434115 
L 325.965389 -46.758482 
L 329.448616 -53.257152 
L 332.931844 -53.189964 
L 336.415071 -51.592195 
L 339.898299 -52.565554 
L 343.381526 -53.10894 
L 346.864754 -53.884839 
L 350.347981 -54.080601 
L 353.831209 -55.250195 
L 357.314436 -54.566613 
L 360.797664 -54.936674 
L 364.280891 -49.400256 
L 367.764119 -42.543159 
L 371.247346 -46.255597 
L 374.730574 -45.487247 
L 378.213801 -47.479251 
L 381.697029 -44.889979 
L 385.180256 -44.323975 
L 388.663484 -26.93936 
L 392.146711 -32.300577 
L 395.629939 -55.656553 
L 399.113166 -57.928153 
L 402.596394 -53.225735 
L 406.079621 -55.611627 
L 409.562849 -51.170766 
L 413.046076 -43.958837 
L 416.529304 -52.298525 
L 420.012531 -54.885393 
L 423.495759 -50.984612 
L 426.978986 -54.790937 
L 430.462214 -55.529147 
L 433.945441 -59.70782 
L 437.428669 -54.409241 
L 440.911896 -54.333555 
L 444.395124 -55.859149 
L 447.878352 -51.900259 
L 451.361579 -52.526323 
L 454.844807 -49.051939 
L 458.328034 -48.406817 
L 461.811262 -53.765412 
L 465.294489 -45.35236 
L 468.777717 -48.804581 
L 472.260944 -41.107365 
L 475.744172 -35.472641 
L 479.227399 -33.925904 
L 482.710627 -32.522193 
L 486.193854 -36.066948 
L 489.677082 -48.825779 
L 493.160309 -54.229342 
L 496.643537 -50.060242 
L 500.126764 -50.396295 
L 503.609992 -46.970084 
L 507.093219 -45.937758 
L 510.576447 -34.839693 
L 514.059674 -40.949977 
L 517.542902 -44.148012 
L 521.026129 -44.875528 
L 524.509357 -46.640392 
L 527.992584 -29.869684 
L 531.475812 -26.66839 
L 534.959039 -45.922519 
L 538.442267 -41.193577 
L 541.925494 -38.229807 
L 545.408722 -36.880083 
L 548.891949 -42.074113 
L 552.375177 -42.553178 
L 555.858404 -49.180676 
L 559.341632 -50.408485 
L 562.824859 -49.154947 
L 566.308087 -48.147153 
L 569.791314 -43.707722 
L 573.274542 -51.087177 
L 576.75777 -49.260987 
L 580.240997 -51.691673 
L 583.724225 -48.462317 
L 587.207452 -50.936502 
L 590.69068 -53.802957 
L 594.173907 -53.394879 
L 597.657135 -53.640464 
L 601.140362 -48.484868 
L 604.62359 -53.57037 
L 608.106817 -54.268567 
L 611.590045 -50.049699 
L 615.073272 -51.142862 
L 618.5565 -50.944174 
L 622.039727 -53.334687 
L 625.522955 -64.270293 
L 629.006182 -57.455675 
L 632.48941 -44.94184 
L 635.972637 -47.441279 
L 639.455865 -42.355681 
L 642.939092 -54.344893 
L 646.42232 -54.878537 
L 649.905547 -54.209788 
L 653.388775 -53.086058 
L 656.872002 -50.618294 
L 660.35523 -44.09715 
L 663.838457 -51.734877 
L 667.321685 -53.740445 
L 670.804912 -53.69925 
L 674.28814 -53.775599 
L 677.771367 -53.090558 
L 681.254595 -54.526998 
L 684.737822 -55.720749 
L 688.22105 -54.955346 
L 691.704277 -48.481501 
L 695.187505 -49.304862 
L 698.670732 -49.820536 
L 702.15396 -48.816138 
L 705.637188 -50.752999 
L 705.637188 -92.539367 
L 705.637188 -92.539367 
L 702.15396 -102.407413 
L 698.670732 -95.366337 
L 695.187505 -99.887712 
L 691.704277 -104.442601 
L 688.22105 -131.909296 
L 684.737822 -131.45791 
L 681.254595 -125.32467 
L 677.771367 -120.048496 
L 674.28814 -118.63816 
L 670.804912 -126.541887 
L 667.321685 -139.682571 
L 663.838457 -145.949668 
L 660.35523 -180.430586 
L 656.872002 -182.368799 
L 653.388775 -170.420789 
L 649.905547 -170.237484 
L 646.42232 -170.313588 
L 642.939092 -144.387642 
L 639.455865 -119.184794 
L 635.972637 -130.539317 
L 632.48941 -102.306183 
L 629.006182 -150.345008 
L 625.522955 -155.59052 
L 622.039727 -122.08223 
L 618.5565 -128.664425 
L 615.073272 -125.789744 
L 611.590045 -172.573998 
L 608.106817 -159.898007 
L 604.62359 -146.666678 
L 601.140362 -157.722177 
L 597.657135 -137.505807 
L 594.173907 -130.250061 
L 590.69068 -87.635718 
L 587.207452 -103.771781 
L 583.724225 -107.552391 
L 580.240997 -109.001415 
L 576.75777 -126.912238 
L 573.274542 -125.421036 
L 569.791314 -149.391203 
L 566.308087 -130.526329 
L 562.824859 -133.289456 
L 559.341632 -134.639549 
L 555.858404 -155.480227 
L 552.375177 -156.231324 
L 548.891949 -157.911764 
L 545.408722 -167.438847 
L 541.925494 -158.417924 
L 538.442267 -144.755209 
L 534.959039 -125.697215 
L 531.475812 -198.506413 
L 527.992584 -194.868712 
L 524.509357 -129.019036 
L 521.026129 -140.210224 
L 517.542902 -138.873331 
L 514.059674 -138.699133 
L 510.576447 -155.812058 
L 507.093219 -131.961256 
L 503.609992 -134.267077 
L 500.126764 -114.166338 
L 496.643537 -122.152077 
L 493.160309 -96.786249 
L 489.677082 -118.822153 
L 486.193854 -183.558898 
L 482.710627 -203.331716 
L 479.227399 -212.008102 
L 475.744172 -207.812473 
L 472.260944 -162.095125 
L 468.777717 -104.310065 
L 465.294489 -113.246982 
L 461.811262 -106.520604 
L 458.328034 -99.497492 
L 454.844807 -86.264194 
L 451.361579 -90.354562 
L 447.878352 -95.203599 
L 444.395124 -122.396366 
L 440.911896 -126.392602 
L 437.428669 -112.989196 
L 433.945441 -119.086917 
L 430.462214 -134.377472 
L 426.978986 -119.162259 
L 423.495759 -114.720445 
L 420.012531 -97.034023 
L 416.529304 -92.867208 
L 413.046076 -120.190019 
L 409.562849 -102.980415 
L 406.079621 -108.926978 
L 402.596394 -135.822041 
L 399.113166 -155.121142 
L 395.629939 -119.042053 
L 392.146711 -169.42003 
L 388.663484 -194.801186 
L 385.180256 -133.916453 
L 381.697029 -136.355284 
L 378.213801 -127.677834 
L 374.730574 -136.106415 
L 371.247346 -144.716614 
L 367.764119 -129.400666 
L 364.280891 -112.496721 
L 360.797664 -87.296027 
L 357.314436 -90.24206 
L 353.831209 -96.818694 
L 350.347981 -97.189234 
L 346.864754 -104.771218 
L 343.381526 -112.087907 
L 339.898299 -113.544617 
L 336.415071 -118.298955 
L 332.931844 -117.919325 
L 329.448616 -131.738916 
L 325.965389 -130.314098 
L 322.482161 -117.615494 
L 318.998934 -118.88092 
L 315.515706 -110.116234 
L 312.032479 -116.478996 
L 308.549251 -90.926587 
L 305.066023 -90.369558 
L 301.582796 -110.782114 
L 298.099568 -97.8122 
L 294.616341 -104.081136 
L 291.133113 -138.214496 
L 287.649886 -136.226696 
L 284.166658 -171.138513 
L 280.683431 -180.686866 
L 277.200203 -189.68785 
L 273.716976 -135.432113 
L 270.233748 -81.934436 
L 266.750521 -80.153313 
L 263.267293 -85.957421 
L 259.784066 -93.481724 
L 256.300838 -82.131246 
L 252.817611 -92.340357 
L 249.334383 -94.546318 
L 245.851156 -99.953111 
L 242.367928 -95.358176 
L 238.884701 -95.576267 
L 235.401473 -82.643646 
L 231.918246 -85.585501 
L 228.435018 -90.338574 
L 224.951791 -79.084217 
L 221.468563 -83.751209 
L 217.985336 -88.213736 
L 214.502108 -79.864122 
L 211.018881 -74.688765 
L 207.535653 -75.577001 
L 204.052426 -79.705238 
L 200.569198 -76.175472 
L 197.085971 -61.656606 
L 193.602743 -68.059822 
L 190.119516 -75.331858 
L 186.636288 -87.986063 
L 183.153061 -85.810682 
L 179.669833 -82.62442 
L 176.186605 -86.967808 
L 172.703378 -89.840092 
L 169.22015 -83.202325 
L 165.736923 -84.760843 
L 162.253695 -84.936605 
L 158.770468 -83.552979 
L 155.28724 -93.286127 
L 151.804013 -94.54385 
L 148.320785 -82.255699 
L 144.837558 -73.553189 
L 141.35433 -68.961234 
L 137.871103 -72.958177 
L 134.387875 -70.51552 
L 130.904648 -67.864399 
L 127.42142 -68.753007 
L 123.938193 -75.75909 
L 120.454965 -77.360532 
L 116.971738 -74.307244 
L 113.48851 -76.54742 
L 110.005283 -73.788915 
L 106.522055 -74.931604 
L 103.038828 -74.962731 
L 99.5556 -73.973873 
L 96.072373 -76.911512 
L 92.589145 -79.815341 
L 89.105918 -77.155205 
L 85.62269 -75.312321 
L 82.139463 -72.659625 
L 78.656235 -72.685658 
L 75.173008 -76.55088 
L 71.68978 -81.84545 
L 68.206553 -79.095861 
L 64.723325 -79.897263 
L 61.240098 -82.971483 
L 57.75687 -82.685166 
L 54.273643 -82.743264 
L 50.790415 -89.876967 
L 47.307188 -120.004065 
z
" style="stroke: #808080; stroke-opacity: 0.7"/>
    </defs>
    <g clip-path="url(#pf640bdf0b6)">
     <use xlink:href="#m25d81d06b7" x="0" y="424.5775" style="fill: #808080; fill-opacity: 0.7; stroke: #808080; stroke-opacity: 0.7"/>
    </g>
   </g>
   <g id="line2d_31">
    <path d="M 47.307188 367.741449 
L 50.790415 338.647771 
L 54.273643 354.760779 
L 57.75687 346.94757 
L 61.240098 367.741449 
L 144.837558 367.741449 
L 148.320785 366.616513 
L 151.804013 367.741449 
L 186.636288 367.741449 
L 190.119516 367.554114 
L 193.602743 348.399156 
L 197.085971 356.82489 
L 200.569198 367.741449 
L 204.052426 367.741449 
L 207.535653 367.173443 
L 211.018881 367.741449 
L 242.367928 367.741449 
L 245.851156 367.444558 
L 249.334383 361.593836 
L 252.817611 367.602582 
L 256.300838 367.741449 
L 287.649886 367.741449 
L 291.133113 364.39998 
L 294.616341 364.995345 
L 298.099568 367.741449 
L 308.549251 367.741449 
L 312.032479 363.995428 
L 315.515706 364.815324 
L 318.998934 367.245143 
L 322.482161 367.691894 
L 332.931844 367.741449 
L 336.415071 367.496495 
L 339.898299 367.741449 
L 367.764119 367.741449 
L 371.247346 367.609093 
L 374.730574 348.666791 
L 378.213801 337.633614 
L 381.697029 345.230605 
L 385.180256 361.893248 
L 388.663484 363.619132 
L 392.146711 356.873645 
L 395.629939 342.230117 
L 399.113166 304.219385 
L 402.596394 315.728162 
L 406.079621 192.94083 
L 409.562849 283.279835 
L 413.046076 297.163183 
L 416.529304 296.666547 
L 420.012531 305.215429 
L 423.495759 322.397349 
L 426.978986 337.491671 
L 430.462214 317.823956 
L 433.945441 324.291091 
L 437.428669 288.935668 
L 440.911896 322.923258 
L 444.395124 323.761365 
L 447.878352 312.439472 
L 451.361579 315.586256 
L 454.844807 304.065042 
L 458.328034 282.706719 
L 461.811262 267.874074 
L 465.294489 224.798774 
L 468.777717 294.294924 
L 472.260944 319.364761 
L 475.744172 316.587172 
L 479.227399 331.400109 
L 482.710627 281.129704 
L 486.193854 218.017125 
L 489.677082 293.016294 
L 493.160309 302.741361 
L 496.643537 317.702934 
L 500.126764 285.719341 
L 503.609992 326.190078 
L 507.093219 347.596959 
L 510.576447 347.965903 
L 514.059674 347.243735 
L 517.542902 338.800565 
L 521.026129 246.294171 
L 524.509357 222.701366 
L 527.992584 210.248463 
L 531.475812 202.275624 
L 534.959039 236.070448 
L 538.442267 271.933616 
L 541.925494 312.343605 
L 545.408722 252.824214 
L 548.891949 264.811845 
L 552.375177 297.523302 
L 555.858404 296.041307 
L 559.341632 291.777077 
L 562.824859 287.953865 
L 566.308087 310.135977 
L 569.791314 326.15329 
L 573.274542 323.37968 
L 576.75777 325.635845 
L 580.240997 313.302903 
L 583.724225 304.394342 
L 587.207452 314.880524 
L 590.69068 320.408062 
L 594.173907 304.835087 
L 597.657135 321.884095 
L 601.140362 241.318037 
L 604.62359 151.76753 
L 608.106817 208.71686 
L 611.590045 115.414042 
L 615.073272 216.074827 
L 618.5565 164.70018 
L 622.039727 230.965122 
L 625.522955 203.275365 
L 629.006182 233.823172 
L 632.48941 298.57537 
L 635.972637 288.959939 
L 639.455865 296.415349 
L 642.939092 225.473226 
L 646.42232 227.218113 
L 649.905547 266.374616 
L 653.388775 252.869131 
L 656.872002 131.321488 
L 660.35523 205.935319 
L 663.838457 245.350194 
L 667.321685 243.340257 
L 670.804912 229.798469 
L 674.28814 211.100351 
L 677.771367 189.893182 
L 681.254595 208.628392 
L 684.737822 210.32877 
L 688.22105 246.117237 
L 691.704277 264.737927 
L 695.187505 273.003058 
L 698.670732 292.442822 
L 702.15396 307.210031 
L 705.637188 282.471534 
L 705.637188 282.471534 
" clip-path="url(#pf640bdf0b6)" style="fill: none; stroke: #ff8c00; stroke-width: 2.3; stroke-linecap: square"/>
   </g>
   <g id="line2d_32">
    <path d="M 277.200203 384.117812 
L 277.200203 23.837812 
" clip-path="url(#pf640bdf0b6)" style="fill: none; stroke-dasharray: 5.55,2.4; stroke-dashoffset: 0; stroke: #808080; stroke-width: 1.5"/>
   </g>
   <g id="line2d_33">
    <path d="M 475.744172 384.117812 
L 475.744172 23.837812 
" clip-path="url(#pf640bdf0b6)" style="fill: none; stroke-dasharray: 5.55,2.4; stroke-dashoffset: 0; stroke: #808080; stroke-width: 1.5"/>
   </g>
   <g id="patch_3">
    <path d="M 47.307188 384.117812 
L 47.307188 23.837812 
" style="fill: none; stroke: #000000; stroke-width: 0.8; stroke-linejoin: miter; stroke-linecap: square"/>
   </g>
   <g id="patch_4">
    <path d="M 705.637188 384.117812 
L 705.637188 23.837812 
" style="fill: none; stroke: #000000; stroke-width: 0.8; stroke-linejoin: miter; stroke-linecap: square"/>
   </g>
   <g id="patch_5">
    <path d="M 47.307188 384.117812 
L 705.637188 384.117812 
" style="fill: none; stroke: #000000; stroke-width: 0.8; stroke-linejoin: miter; stroke-linecap: square"/>
   </g>
   <g id="patch_6">
    <path d="M 47.307188 23.837812 
L 705.637188 23.837812 
" style="fill: none; stroke: #000000; stroke-width: 0.8; stroke-linejoin: miter; stroke-linecap: square"/>
   </g>
   <g id="text_18">
    <!-- Facial trace: Social anxiety disorder (SAD) (female) -->
    <g transform="translate(197.718437 17.837812) scale(0.14 -0.14)">
     <defs>
      <path id="DejaVuSans-46" d="M 628 4666 
L 3309 4666 
L 3309 4134 
L 1259 4134 
L 1259 2759 
L 3109 2759 
L 3109 2228 
L 1259 2228 
L 1259 0 
L 628 0 
L 628 4666 
z
" transform="scale(0.015625)"/>
      <path id="DejaVuSans-63" d="M 3122 3366 
L 3122 2828 
Q 2878 2963 2633 3030 
Q 2388 3097 2138 3097 
Q 1578 3097 1268 2742 
Q 959 2388 959 1747 
Q 959 1106 1268 751 
Q 1578 397 2138 397 
Q 2388 397 2633 464 
Q 2878 531 3122 666 
L 3122 134 
Q 2881 22 2623 -34 
Q 2366 -91 2075 -91 
Q 1284 -91 818 406 
Q 353 903 353 1747 
Q 353 2603 823 3093 
Q 1294 3584 2113 3584 
Q 2378 3584 2631 3529 
Q 2884 3475 3122 3366 
z
" transform="scale(0.015625)"/>
      <path id="DejaVuSans-6c" d="M 603 4863 
L 1178 4863 
L 1178 0 
L 603 0 
L 603 4863 
z
" transform="scale(0.015625)"/>
      <path id="DejaVuSans-72" d="M 2631 2963 
Q 2534 3019 2420 3045 
Q 2306 3072 2169 3072 
Q 1681 3072 1420 2755 
Q 1159 2438 1159 1844 
L 1159 0 
L 581 0 
L 581 3500 
L 1159 3500 
L 1159 2956 
Q 1341 3275 1631 3429 
Q 1922 3584 2338 3584 
Q 2397 3584 2469 3576 
Q 2541 3569 2628 3553 
L 2631 2963 
z
" transform="scale(0.015625)"/>
      <path id="DejaVuSans-3a" d="M 750 794 
L 1409 794 
L 1409 0 
L 750 0 
L 750 794 
z
M 750 3309 
L 1409 3309 
L 1409 2516 
L 750 2516 
L 750 3309 
z
" transform="scale(0.015625)"/>
      <path id="DejaVuSans-53" d="M 3425 4513 
L 3425 3897 
Q 3066 4069 2747 4153 
Q 2428 4238 2131 4238 
Q 1616 4238 1336 4038 
Q 1056 3838 1056 3469 
Q 1056 3159 1242 3001 
Q 1428 2844 1947 2747 
L 2328 2669 
Q 3034 2534 3370 2195 
Q 3706 1856 3706 1288 
Q 3706 609 3251 259 
Q 2797 -91 1919 -91 
Q 1588 -91 1214 -16 
Q 841 59 441 206 
L 441 856 
Q 825 641 1194 531 
Q 1563 422 1919 422 
Q 2459 422 2753 634 
Q 3047 847 3047 1241 
Q 3047 1584 2836 1778 
Q 2625 1972 2144 2069 
L 1759 2144 
Q 1053 2284 737 2584 
Q 422 2884 422 3419 
Q 422 4038 858 4394 
Q 1294 4750 2059 4750 
Q 2388 4750 2728 4690 
Q 3069 4631 3425 4513 
z
" transform="scale(0.015625)"/>
      <path id="DejaVuSans-6f" d="M 1959 3097 
Q 1497 3097 1228 2736 
Q 959 2375 959 1747 
Q 959 1119 1226 758 
Q 1494 397 1959 397 
Q 2419 397 2687 759 
Q 2956 1122 2956 1747 
Q 2956 2369 2687 2733 
Q 2419 3097 1959 3097 
z
M 1959 3584 
Q 2709 3584 3137 3096 
Q 3566 2609 3566 1747 
Q 3566 888 3137 398 
Q 2709 -91 1959 -91 
Q 1206 -91 779 398 
Q 353 888 353 1747 
Q 353 2609 779 3096 
Q 1206 3584 1959 3584 
z
" transform="scale(0.015625)"/>
      <path id="DejaVuSans-78" d="M 3513 3500 
L 2247 1797 
L 3578 0 
L 2900 0 
L 1881 1375 
L 863 0 
L 184 0 
L 1544 1831 
L 300 3500 
L 978 3500 
L 1906 2253 
L 2834 3500 
L 3513 3500 
z
" transform="scale(0.015625)"/>
      <path id="DejaVuSans-64" d="M 2906 2969 
L 2906 4863 
L 3481 4863 
L 3481 0 
L 2906 0 
L 2906 525 
Q 2725 213 2448 61 
Q 2172 -91 1784 -91 
Q 1150 -91 751 415 
Q 353 922 353 1747 
Q 353 2572 751 3078 
Q 1150 3584 1784 3584 
Q 2172 3584 2448 3432 
Q 2725 3281 2906 2969 
z
M 947 1747 
Q 947 1113 1208 752 
Q 1469 391 1925 391 
Q 2381 391 2643 752 
Q 2906 1113 2906 1747 
Q 2906 2381 2643 2742 
Q 2381 3103 1925 3103 
Q 1469 3103 1208 2742 
Q 947 2381 947 1747 
z
" transform="scale(0.015625)"/>
      <path id="DejaVuSans-44" d="M 1259 4147 
L 1259 519 
L 2022 519 
Q 2988 519 3436 956 
Q 3884 1394 3884 2338 
Q 3884 3275 3436 3711 
Q 2988 4147 2022 4147 
L 1259 4147 
z
M 628 4666 
L 1925 4666 
Q 3281 4666 3915 4102 
Q 4550 3538 4550 2338 
Q 4550 1131 3912 565 
Q 3275 0 1925 0 
L 628 0 
L 628 4666 
z
" transform="scale(0.015625)"/>
      <path id="DejaVuSans-66" d="M 2375 4863 
L 2375 4384 
L 1825 4384 
Q 1516 4384 1395 4259 
Q 1275 4134 1275 3809 
L 1275 3500 
L 2222 3500 
L 2222 3053 
L 1275 3053 
L 1275 0 
L 697 0 
L 697 3053 
L 147 3053 
L 147 3500 
L 697 3500 
L 697 3744 
Q 697 4328 969 4595 
Q 1241 4863 1831 4863 
L 2375 4863 
z
" transform="scale(0.015625)"/>
     </defs>
     <use xlink:href="#DejaVuSans-46"/>
     <use xlink:href="#DejaVuSans-61" transform="translate(48.394531 0)"/>
     <use xlink:href="#DejaVuSans-63" transform="translate(109.673828 0)"/>
     <use xlink:href="#DejaVuSans-69" transform="translate(164.654297 0)"/>
     <use xlink:href="#DejaVuSans-61" transform="translate(192.4375 0)"/>
     <use xlink:href="#DejaVuSans-6c" transform="translate(253.716797 0)"/>
     <use xlink:href="#DejaVuSans-20" transform="translate(281.5 0)"/>
     <use xlink:href="#DejaVuSans-74" transform="translate(313.287109 0)"/>
     <use xlink:href="#DejaVuSans-72" transform="translate(352.496094 0)"/>
     <use xlink:href="#DejaVuSans-61" transform="translate(393.609375 0)"/>
     <use xlink:href="#DejaVuSans-63" transform="translate(454.888672 0)"/>
     <use xlink:href="#DejaVuSans-65" transform="translate(509.869141 0)"/>
     <use xlink:href="#DejaVuSans-3a" transform="translate(571.392578 0)"/>
     <use xlink:href="#DejaVuSans-20" transform="translate(605.083984 0)"/>
     <use xlink:href="#DejaVuSans-53" transform="translate(636.871094 0)"/>
     <use xlink:href="#DejaVuSans-6f" transform="translate(700.347656 0)"/>
     <use xlink:href="#DejaVuSans-63" transform="translate(761.529297 0)"/>
     <use xlink:href="#DejaVuSans-69" transform="translate(816.509766 0)"/>
     <use xlink:href="#DejaVuSans-61" transform="translate(844.292969 0)"/>
     <use xlink:href="#DejaVuSans-6c" transform="translate(905.572266 0)"/>
     <use xlink:href="#DejaVuSans-20" transform="translate(933.355469 0)"/>
     <use xlink:href="#DejaVuSans-61" transform="translate(965.142578 0)"/>
     <use xlink:href="#DejaVuSans-6e" transform="translate(1026.421875 0)"/>
     <use xlink:href="#DejaVuSans-78" transform="translate(1089.800781 0)"/>
     <use xlink:href="#DejaVuSans-69" transform="translate(1148.980469 0)"/>
     <use xlink:href="#DejaVuSans-65" transform="translate(1176.763672 0)"/>
     <use xlink:href="#DejaVuSans-74" transform="translate(1238.287109 0)"/>
     <use xlink:href="#DejaVuSans-79" transform="translate(1277.496094 0)"/>
     <use xlink:href="#DejaVuSans-20" transform="translate(1336.675781 0)"/>
     <use xlink:href="#DejaVuSans-64" transform="translate(1368.462891 0)"/>
     <use xlink:href="#DejaVuSans-69" transform="translate(1431.939453 0)"/>
     <use xlink:href="#DejaVuSans-73" transform="translate(1459.722656 0)"/>
     <use xlink:href="#DejaVuSans-6f" transform="translate(1511.822266 0)"/>
     <use xlink:href="#DejaVuSans-72" transform="translate(1573.003906 0)"/>
     <use xlink:href="#DejaVuSans-64" transform="translate(1612.367188 0)"/>
     <use xlink:href="#DejaVuSans-65" transform="translate(1675.84375 0)"/>
     <use xlink:href="#DejaVuSans-72" transform="translate(1737.367188 0)"/>
     <use xlink:href="#DejaVuSans-20" transform="translate(1778.480469 0)"/>
     <use xlink:href="#DejaVuSans-28" transform="translate(1810.267578 0)"/>
     <use xlink:href="#DejaVuSans-53" transform="translate(1849.28125 0)"/>
     <use xlink:href="#DejaVuSans-41" transform="translate(1914.632812 0)"/>
     <use xlink:href="#DejaVuSans-44" transform="translate(1983.041016 0)"/>
     <use xlink:href="#DejaVuSans-29" transform="translate(2060.042969 0)"/>
     <use xlink:href="#DejaVuSans-20" transform="translate(2099.056641 0)"/>
     <use xlink:href="#DejaVuSans-28" transform="translate(2130.84375 0)"/>
     <use xlink:href="#DejaVuSans-66" transform="translate(2169.857422 0)"/>
     <use xlink:href="#DejaVuSans-65" transform="translate(2205.0625 0)"/>
     <use xlink:href="#DejaVuSans-6d" transform="translate(2266.585938 0)"/>
     <use xlink:href="#DejaVuSans-61" transform="translate(2363.998047 0)"/>
     <use xlink:href="#DejaVuSans-6c" transform="translate(2425.277344 0)"/>
     <use xlink:href="#DejaVuSans-65" transform="translate(2453.060547 0)"/>
     <use xlink:href="#DejaVuSans-29" transform="translate(2514.583984 0)"/>
    </g>
   </g>
   <g id="legend_1">
    <g id="patch_7">
     <path d="M 465.431562 42.096094 
L 487.431562 42.096094 
L 487.431562 34.396094 
L 465.431562 34.396094 
z
" style="fill: #d3d3d3; fill-opacity: 0.5; stroke: #d3d3d3; stroke-opacity: 0.5; stroke-linejoin: miter"/>
    </g>
    <g id="text_19">
     <!-- Social anxiety disorder (SAD) ±2 SD -->
     <g transform="translate(496.231562 42.096094) scale(0.11 -0.11)">
      <defs>
       <path id="DejaVuSans-b1" d="M 2944 4013 
L 2944 2803 
L 4684 2803 
L 4684 2272 
L 2944 2272 
L 2944 1063 
L 2419 1063 
L 2419 2272 
L 678 2272 
L 678 2803 
L 2419 2803 
L 2419 4013 
L 2944 4013 
z
M 678 531 
L 4684 531 
L 4684 0 
L 678 0 
L 678 531 
z
" transform="scale(0.015625)"/>
      </defs>
      <use xlink:href="#DejaVuSans-53"/>
      <use xlink:href="#DejaVuSans-6f" transform="translate(63.476562 0)"/>
      <use xlink:href="#DejaVuSans-63" transform="translate(124.658203 0)"/>
      <use xlink:href="#DejaVuSans-69" transform="translate(179.638672 0)"/>
      <use xlink:href="#DejaVuSans-61" transform="translate(207.421875 0)"/>
      <use xlink:href="#DejaVuSans-6c" transform="translate(268.701172 0)"/>
      <use xlink:href="#DejaVuSans-20" transform="translate(296.484375 0)"/>
      <use xlink:href="#DejaVuSans-61" transform="translate(328.271484 0)"/>
      <use xlink:href="#DejaVuSans-6e" transform="translate(389.550781 0)"/>
      <use xlink:href="#DejaVuSans-78" transform="translate(452.929688 0)"/>
      <use xlink:href="#DejaVuSans-69" transform="translate(512.109375 0)"/>
      <use xlink:href="#DejaVuSans-65" transform="translate(539.892578 0)"/>
      <use xlink:href="#DejaVuSans-74" transform="translate(601.416016 0)"/>
      <use xlink:href="#DejaVuSans-79" transform="translate(640.625 0)"/>
      <use xlink:href="#DejaVuSans-20" transform="translate(699.804688 0)"/>
      <use xlink:href="#DejaVuSans-64" transform="translate(731.591797 0)"/>
      <use xlink:href="#DejaVuSans-69" transform="translate(795.068359 0)"/>
      <use xlink:href="#DejaVuSans-73" transform="translate(822.851562 0)"/>
      <use xlink:href="#DejaVuSans-6f" transform="translate(874.951172 0)"/>
      <use xlink:href="#DejaVuSans-72" transform="translate(936.132812 0)"/>
      <use xlink:href="#DejaVuSans-64" transform="translate(975.496094 0)"/>
      <use xlink:href="#DejaVuSans-65" transform="translate(1038.972656 0)"/>
      <use xlink:href="#DejaVuSans-72" transform="translate(1100.496094 0)"/>
      <use xlink:href="#DejaVuSans-20" transform="translate(1141.609375 0)"/>
      <use xlink:href="#DejaVuSans-28" transform="translate(1173.396484 0)"/>
      <use xlink:href="#DejaVuSans-53" transform="translate(1212.410156 0)"/>
      <use xlink:href="#DejaVuSans-41" transform="translate(1277.761719 0)"/>
      <use xlink:href="#DejaVuSans-44" transform="translate(1346.169922 0)"/>
      <use xlink:href="#DejaVuSans-29" transform="translate(1423.171875 0)"/>
      <use xlink:href="#DejaVuSans-20" transform="translate(1462.185547 0)"/>
      <use xlink:href="#DejaVuSans-b1" transform="translate(1493.972656 0)"/>
      <use xlink:href="#DejaVuSans-32" transform="translate(1577.761719 0)"/>
      <use xlink:href="#DejaVuSans-20" transform="translate(1641.384766 0)"/>
      <use xlink:href="#DejaVuSans-53" transform="translate(1673.171875 0)"/>
      <use xlink:href="#DejaVuSans-44" transform="translate(1736.648438 0)"/>
     </g>
    </g>
    <g id="patch_8">
     <path d="M 465.431562 58.242031 
L 487.431562 58.242031 
L 487.431562 50.542031 
L 465.431562 50.542031 
z
" style="fill: #808080; fill-opacity: 0.7; stroke: #808080; stroke-opacity: 0.7; stroke-linejoin: miter"/>
    </g>
    <g id="text_20">
     <!-- Social anxiety disorder (SAD) ±1 SD -->
     <g transform="translate(496.231562 58.242031) scale(0.11 -0.11)">
      <use xlink:href="#DejaVuSans-53"/>
      <use xlink:href="#DejaVuSans-6f" transform="translate(63.476562 0)"/>
      <use xlink:href="#DejaVuSans-63" transform="translate(124.658203 0)"/>
      <use xlink:href="#DejaVuSans-69" transform="translate(179.638672 0)"/>
      <use xlink:href="#DejaVuSans-61" transform="translate(207.421875 0)"/>
      <use xlink:href="#DejaVuSans-6c" transform="translate(268.701172 0)"/>
      <use xlink:href="#DejaVuSans-20" transform="translate(296.484375 0)"/>
      <use xlink:href="#DejaVuSans-61" transform="translate(328.271484 0)"/>
      <use xlink:href="#DejaVuSans-6e" transform="translate(389.550781 0)"/>
      <use xlink:href="#DejaVuSans-78" transform="translate(452.929688 0)"/>
      <use xlink:href="#DejaVuSans-69" transform="translate(512.109375 0)"/>
      <use xlink:href="#DejaVuSans-65" transform="translate(539.892578 0)"/>
      <use xlink:href="#DejaVuSans-74" transform="translate(601.416016 0)"/>
      <use xlink:href="#DejaVuSans-79" transform="translate(640.625 0)"/>
      <use xlink:href="#DejaVuSans-20" transform="translate(699.804688 0)"/>
      <use xlink:href="#DejaVuSans-64" transform="translate(731.591797 0)"/>
      <use xlink:href="#DejaVuSans-69" transform="translate(795.068359 0)"/>
      <use xlink:href="#DejaVuSans-73" transform="translate(822.851562 0)"/>
      <use xlink:href="#DejaVuSans-6f" transform="translate(874.951172 0)"/>
      <use xlink:href="#DejaVuSans-72" transform="translate(936.132812 0)"/>
      <use xlink:href="#DejaVuSans-64" transform="translate(975.496094 0)"/>
      <use xlink:href="#DejaVuSans-65" transform="translate(1038.972656 0)"/>
      <use xlink:href="#DejaVuSans-72" transform="translate(1100.496094 0)"/>
      <use xlink:href="#DejaVuSans-20" transform="translate(1141.609375 0)"/>
      <use xlink:href="#DejaVuSans-28" transform="translate(1173.396484 0)"/>
      <use xlink:href="#DejaVuSans-53" transform="translate(1212.410156 0)"/>
      <use xlink:href="#DejaVuSans-41" transform="translate(1277.761719 0)"/>
      <use xlink:href="#DejaVuSans-44" transform="translate(1346.169922 0)"/>
      <use xlink:href="#DejaVuSans-29" transform="translate(1423.171875 0)"/>
      <use xlink:href="#DejaVuSans-20" transform="translate(1462.185547 0)"/>
      <use xlink:href="#DejaVuSans-b1" transform="translate(1493.972656 0)"/>
      <use xlink:href="#DejaVuSans-31" transform="translate(1577.761719 0)"/>
      <use xlink:href="#DejaVuSans-20" transform="translate(1641.384766 0)"/>
      <use xlink:href="#DejaVuSans-53" transform="translate(1673.171875 0)"/>
      <use xlink:href="#DejaVuSans-44" transform="translate(1736.648438 0)"/>
     </g>
    </g>
    <g id="line2d_34">
     <path d="M 465.431562 70.537969 
L 476.431562 70.537969 
L 487.431562 70.537969 
" style="fill: none; stroke: #ff8c00; stroke-width: 2.3; stroke-linecap: square"/>
    </g>
    <g id="text_21">
     <!-- Patient -->
     <g transform="translate(496.231562 74.387969) scale(0.11 -0.11)">
      <defs>
       <path id="DejaVuSans-50" d="M 1259 4147 
L 1259 2394 
L 2053 2394 
Q 2494 2394 2734 2622 
Q 2975 2850 2975 3272 
Q 2975 3691 2734 3919 
Q 2494 4147 2053 4147 
L 1259 4147 
z
M 628 4666 
L 2053 4666 
Q 2838 4666 3239 4311 
Q 3641 3956 3641 3272 
Q 3641 2581 3239 2228 
Q 2838 1875 2053 1875 
L 1259 1875 
L 1259 0 
L 628 0 
L 628 4666 
z
" transform="scale(0.015625)"/>
      </defs>
      <use xlink:href="#DejaVuSans-50"/>
      <use xlink:href="#DejaVuSans-61" transform="translate(55.802734 0)"/>
      <use xlink:href="#DejaVuSans-74" transform="translate(117.082031 0)"/>
      <use xlink:href="#DejaVuSans-69" transform="translate(156.291016 0)"/>
      <use xlink:href="#DejaVuSans-65" transform="translate(184.074219 0)"/>
      <use xlink:href="#DejaVuSans-6e" transform="translate(245.597656 0)"/>
      <use xlink:href="#DejaVuSans-74" transform="translate(308.976562 0)"/>
     </g>
    </g>
   </g>
  </g>
 </g>
 <defs>
  <clipPath id="pf640bdf0b6">
   <rect x="47.307188" y="23.837812" width="658.33" height="360.28"/>
  </clipPath>
 </defs>
</svg>
