<?xml version="1.0" encoding="utf-8" standalone="no"?>
<!DOCTYPE svg PUBLIC "-//W3C//DTD SVG 1.1//EN"
  "http://www.w3.org/Graphics/SVG/1.1/DTD/svg11.dtd">
<svg xmlns:xlink="http://www.w3.org/1999/xlink" width="712.837188pt" height="424.5775pt" viewBox="0 0 712.837188 424.5775" xmlns="http://www.w3.org/2000/svg" version="1.1">
 <metadata>
  <rdf:RDF xmlns:dc="http://purl.org/dc/elements/1.1/" xmlns:cc="http://creativecommons.org/ns#" xmlns:rdf="http://www.w3.org/1999/02/22-rdf-syntax-ns#">
   <cc:Work>
    <dc:type rdf:resource="http://purl.org/dc/dcmitype/StillImage"/>
    <dc:date>2026-06-23T21:52:53.389898</dc:date>
    <dc:format>image/svg+xml</dc:format>
    <dc:creator>
     <cc:Agent>
      <dc:title>Matplotlib v3.10.1, https://matplotlib.org/</dc:title>
     </cc:Agent>
    </dc:creator>
   </cc:Work>
  </rdf:RDF>
 </metadata>
 <defs>
  <style type="text/css">*{stroke-linejoin: round; stroke-linecap: butt}</style>
 </defs>
 <g id="figure_1">
  <g id="patch_1">
   <path d="M 0 424.5775 
L 712.837188 424.5775 
L 712.837188 0 
L 0 0 
z
" style="fill: #ffffff"/>
  </g>
  <g id="axes_1">
   <g id="patch_2">
    <path d="M 47.307188 384.117812 
L 705.637188 384.117812 
L 705.637188 23.837812 
L 47.307188 23.837812 
z
" style="fill: #ffffff"/>
   </g>
   <g id="matplotlib.axis_1">
    <g id="xtick_1">
     <g id="line2d_1">
      <path d="M 47.307188 384.117812 
L 47.307188 23.837812 
" clip-path="url(#pe46eae227f)" style="fill: none; stroke: #b0b0b0; stroke-opacity: 0.2; stroke-width: 0.6; stroke-linecap: square"/>
     </g>
     <g id="line2d_2">
      <defs>
       <path id="m8298f540c9" d="M 0 0 
L 0 3.5 
" style="stroke: #000000; stroke-width: 0.8"/>
      </defs>
      <g>
       <use xlink:href="#m8298f540c9" x="47.307188" y="384.117812" style="stroke: #000000; stroke-width: 0.8"/>
      </g>
     </g>
     <g id="text_1">
      <!-- 0 -->
      <g transform="translate(43.807813 399.476094) scale(0.11 -0.11)">
       <defs>
        <path id="DejaVuSans-30" d="M 2034 4250 
Q 1547 4250 1301 3770 
Q 1056 3291 1056 2328 
Q 1056 1369 1301 889 
Q 1547 409 2034 409 
Q 2525 409 2770 889 
Q 3016 1369 3016 2328 
Q 3016 3291 2770 3770 
Q 2525 4250 2034 4250 
z
M 2034 4750 
Q 2819 4750 3233 4129 
Q 3647 3509 3647 2328 
Q 3647 1150 3233 529 
Q 2819 -91 2034 -91 
Q 1250 -91 836 529 
Q 422 1150 422 2328 
Q 422 3509 836 4129 
Q 1250 4750 2034 4750 
z
" transform="scale(0.015625)"/>
       </defs>
       <use xlink:href="#DejaVuSans-30"/>
      </g>
     </g>
    </g>
    <g id="xtick_2">
     <g id="line2d_3">
      <path d="M 134.387875 384.117812 
L 134.387875 23.837812 
" clip-path="url(#pe46eae227f)" style="fill: none; stroke: #b0b0b0; stroke-opacity: 0.2; stroke-width: 0.6; stroke-linecap: square"/>
     </g>
     <g id="line2d_4">
      <g>
       <use xlink:href="#m8298f540c9" x="134.387875" y="384.117812" style="stroke: #000000; stroke-width: 0.8"/>
      </g>
     </g>
     <g id="text_2">
      <!-- 25 -->
      <g transform="translate(127.389125 399.476094) scale(0.11 -0.11)">
       <defs>
        <path id="DejaVuSans-32" d="M 1228 531 
L 3431 531 
L 3431 0 
L 469 0 
L 469 531 
Q 828 903 1448 1529 
Q 2069 2156 2228 2338 
Q 2531 2678 2651 2914 
Q 2772 3150 2772 3378 
Q 2772 3750 2511 3984 
Q 2250 4219 1831 4219 
Q 1534 4219 1204 4116 
Q 875 4013 500 3803 
L 500 4441 
Q 881 4594 1212 4672 
Q 1544 4750 1819 4750 
Q 2544 4750 2975 4387 
Q 3406 4025 3406 3419 
Q 3406 3131 3298 2873 
Q 3191 2616 2906 2266 
Q 2828 2175 2409 1742 
Q 1991 1309 1228 531 
z
" transform="scale(0.015625)"/>
        <path id="DejaVuSans-35" d="M 691 4666 
L 3169 4666 
L 3169 4134 
L 1269 4134 
L 1269 2991 
Q 1406 3038 1543 3061 
Q 1681 3084 1819 3084 
Q 2600 3084 3056 2656 
Q 3513 2228 3513 1497 
Q 3513 744 3044 326 
Q 2575 -91 1722 -91 
Q 1428 -91 1123 -41 
Q 819 9 494 109 
L 494 744 
Q 775 591 1075 516 
Q 1375 441 1709 441 
Q 2250 441 2565 725 
Q 2881 1009 2881 1497 
Q 2881 1984 2565 2268 
Q 2250 2553 1709 2553 
Q 1456 2553 1204 2497 
Q 953 2441 691 2322 
L 691 4666 
z
" transform="scale(0.015625)"/>
       </defs>
       <use xlink:href="#DejaVuSans-32"/>
       <use xlink:href="#DejaVuSans-35" transform="translate(63.623047 0)"/>
      </g>
     </g>
    </g>
    <g id="xtick_3">
     <g id="line2d_5">
      <path d="M 221.468563 384.117812 
L 221.468563 23.837812 
" clip-path="url(#pe46eae227f)" style="fill: none; stroke: #b0b0b0; stroke-opacity: 0.2; stroke-width: 0.6; stroke-linecap: square"/>
     </g>
     <g id="line2d_6">
      <g>
       <use xlink:href="#m8298f540c9" x="221.468563" y="384.117812" style="stroke: #000000; stroke-width: 0.8"/>
      </g>
     </g>
     <g id="text_3">
      <!-- 50 -->
      <g transform="translate(214.469813 399.476094) scale(0.11 -0.11)">
       <use xlink:href="#DejaVuSans-35"/>
       <use xlink:href="#DejaVuSans-30" transform="translate(63.623047 0)"/>
      </g>
     </g>
    </g>
    <g id="xtick_4">
     <g id="line2d_7">
      <path d="M 308.549251 384.117812 
L 308.549251 23.837812 
" clip-path="url(#pe46eae227f)" style="fill: none; stroke: #b0b0b0; stroke-opacity: 0.2; stroke-width: 0.6; stroke-linecap: square"/>
     </g>
     <g id="line2d_8">
      <g>
       <use xlink:href="#m8298f540c9" x="308.549251" y="384.117812" style="stroke: #000000; stroke-width: 0.8"/>
      </g>
     </g>
     <g id="text_4">
      <!-- 75 -->
      <g transform="translate(301.550501 399.476094) scale(0.11 -0.11)">
       <defs>
        <path id="DejaVuSans-37" d="M 525 4666 
L 3525 4666 
L 3525 4397 
L 1831 0 
L 1172 0 
L 2766 4134 
L 525 4134 
L 525 4666 
z
" transform="scale(0.015625)"/>
       </defs>
       <use xlink:href="#DejaVuSans-37"/>
       <use xlink:href="#DejaVuSans-35" transform="translate(63.623047 0)"/>
      </g>
     </g>
    </g>
    <g id="xtick_5">
     <g id="line2d_9">
      <path d="M 395.629939 384.117812 
L 395.629939 23.837812 
" clip-path="url(#pe46eae227f)" style="fill: none; stroke: #b0b0b0; stroke-opacity: 0.2; stroke-width: 0.6; stroke-linecap: square"/>
     </g>
     <g id="line2d_10">
      <g>
       <use xlink:href="#m8298f540c9" x="395.629939" y="384.117812" style="stroke: #000000; stroke-width: 0.8"/>
      </g>
     </g>
     <g id="text_5">
      <!-- 100 -->
      <g transform="translate(385.131814 399.476094) scale(0.11 -0.11)">
       <defs>
        <path id="DejaVuSans-31" d="M 794 531 
L 1825 531 
L 1825 4091 
L 703 3866 
L 703 4441 
L 1819 4666 
L 2450 4666 
L 2450 531 
L 3481 531 
L 3481 0 
L 794 0 
L 794 531 
z
" transform="scale(0.015625)"/>
       </defs>
       <use xlink:href="#DejaVuSans-31"/>
       <use xlink:href="#DejaVuSans-30" transform="translate(63.623047 0)"/>
       <use xlink:href="#DejaVuSans-30" transform="translate(127.246094 0)"/>
      </g>
     </g>
    </g>
    <g id="xtick_6">
     <g id="line2d_11">
      <path d="M 482.710627 384.117812 
L 482.710627 23.837812 
" clip-path="url(#pe46eae227f)" style="fill: none; stroke: #b0b0b0; stroke-opacity: 0.2; stroke-width: 0.6; stroke-linecap: square"/>
     </g>
     <g id="line2d_12">
      <g>
       <use xlink:href="#m8298f540c9" x="482.710627" y="384.117812" style="stroke: #000000; stroke-width: 0.8"/>
      </g>
     </g>
     <g id="text_6">
      <!-- 125 -->
      <g transform="translate(472.212502 399.476094) scale(0.11 -0.11)">
       <use xlink:href="#DejaVuSans-31"/>
       <use xlink:href="#DejaVuSans-32" transform="translate(63.623047 0)"/>
       <use xlink:href="#DejaVuSans-35" transform="translate(127.246094 0)"/>
      </g>
     </g>
    </g>
    <g id="xtick_7">
     <g id="line2d_13">
      <path d="M 569.791314 384.117812 
L 569.791314 23.837812 
" clip-path="url(#pe46eae227f)" style="fill: none; stroke: #b0b0b0; stroke-opacity: 0.2; stroke-width: 0.6; stroke-linecap: square"/>
     </g>
     <g id="line2d_14">
      <g>
       <use xlink:href="#m8298f540c9" x="569.791314" y="384.117812" style="stroke: #000000; stroke-width: 0.8"/>
      </g>
     </g>
     <g id="text_7">
      <!-- 150 -->
      <g transform="translate(559.293189 399.476094) scale(0.11 -0.11)">
       <use xlink:href="#DejaVuSans-31"/>
       <use xlink:href="#DejaVuSans-35" transform="translate(63.623047 0)"/>
       <use xlink:href="#DejaVuSans-30" transform="translate(127.246094 0)"/>
      </g>
     </g>
    </g>
    <g id="xtick_8">
     <g id="line2d_15">
      <path d="M 656.872002 384.117812 
L 656.872002 23.837812 
" clip-path="url(#pe46eae227f)" style="fill: none; stroke: #b0b0b0; stroke-opacity: 0.2; stroke-width: 0.6; stroke-linecap: square"/>
     </g>
     <g id="line2d_16">
      <g>
       <use xlink:href="#m8298f540c9" x="656.872002" y="384.117812" style="stroke: #000000; stroke-width: 0.8"/>
      </g>
     </g>
     <g id="text_8">
      <!-- 175 -->
      <g transform="translate(646.373877 399.476094) scale(0.11 -0.11)">
       <use xlink:href="#DejaVuSans-31"/>
       <use xlink:href="#DejaVuSans-37" transform="translate(63.623047 0)"/>
       <use xlink:href="#DejaVuSans-35" transform="translate(127.246094 0)"/>
      </g>
     </g>
    </g>
    <g id="text_9">
     <!-- Time (s) -->
     <g transform="translate(352.0775 414.881875) scale(0.12 -0.12)">
      <defs>
       <path id="DejaVuSans-54" d="M -19 4666 
L 3928 4666 
L 3928 4134 
L 2272 4134 
L 2272 0 
L 1638 0 
L 1638 4134 
L -19 4134 
L -19 4666 
z
" transform="scale(0.015625)"/>
       <path id="DejaVuSans-69" d="M 603 3500 
L 1178 3500 
L 1178 0 
L 603 0 
L 603 3500 
z
M 603 4863 
L 1178 4863 
L 1178 4134 
L 603 4134 
L 603 4863 
z
" transform="scale(0.015625)"/>
       <path id="DejaVuSans-6d" d="M 3328 2828 
Q 3544 3216 3844 3400 
Q 4144 3584 4550 3584 
Q 5097 3584 5394 3201 
Q 5691 2819 5691 2113 
L 5691 0 
L 5113 0 
L 5113 2094 
Q 5113 2597 4934 2840 
Q 4756 3084 4391 3084 
Q 3944 3084 3684 2787 
Q 3425 2491 3425 1978 
L 3425 0 
L 2847 0 
L 2847 2094 
Q 2847 2600 2669 2842 
Q 2491 3084 2119 3084 
Q 1678 3084 1418 2786 
Q 1159 2488 1159 1978 
L 1159 0 
L 581 0 
L 581 3500 
L 1159 3500 
L 1159 2956 
Q 1356 3278 1631 3431 
Q 1906 3584 2284 3584 
Q 2666 3584 2933 3390 
Q 3200 3197 3328 2828 
z
" transform="scale(0.015625)"/>
       <path id="DejaVuSans-65" d="M 3597 1894 
L 3597 1613 
L 953 1613 
Q 991 1019 1311 708 
Q 1631 397 2203 397 
Q 2534 397 2845 478 
Q 3156 559 3463 722 
L 3463 178 
Q 3153 47 2828 -22 
Q 2503 -91 2169 -91 
Q 1331 -91 842 396 
Q 353 884 353 1716 
Q 353 2575 817 3079 
Q 1281 3584 2069 3584 
Q 2775 3584 3186 3129 
Q 3597 2675 3597 1894 
z
M 3022 2063 
Q 3016 2534 2758 2815 
Q 2500 3097 2075 3097 
Q 1594 3097 1305 2825 
Q 1016 2553 972 2059 
L 3022 2063 
z
" transform="scale(0.015625)"/>
       <path id="DejaVuSans-20" transform="scale(0.015625)"/>
       <path id="DejaVuSans-28" d="M 1984 4856 
Q 1566 4138 1362 3434 
Q 1159 2731 1159 2009 
Q 1159 1288 1364 580 
Q 1569 -128 1984 -844 
L 1484 -844 
Q 1016 -109 783 600 
Q 550 1309 550 2009 
Q 550 2706 781 3412 
Q 1013 4119 1484 4856 
L 1984 4856 
z
" transform="scale(0.015625)"/>
       <path id="DejaVuSans-73" d="M 2834 3397 
L 2834 2853 
Q 2591 2978 2328 3040 
Q 2066 3103 1784 3103 
Q 1356 3103 1142 2972 
Q 928 2841 928 2578 
Q 928 2378 1081 2264 
Q 1234 2150 1697 2047 
L 1894 2003 
Q 2506 1872 2764 1633 
Q 3022 1394 3022 966 
Q 3022 478 2636 193 
Q 2250 -91 1575 -91 
Q 1294 -91 989 -36 
Q 684 19 347 128 
L 347 722 
Q 666 556 975 473 
Q 1284 391 1588 391 
Q 1994 391 2212 530 
Q 2431 669 2431 922 
Q 2431 1156 2273 1281 
Q 2116 1406 1581 1522 
L 1381 1569 
Q 847 1681 609 1914 
Q 372 2147 372 2553 
Q 372 3047 722 3315 
Q 1072 3584 1716 3584 
Q 2034 3584 2315 3537 
Q 2597 3491 2834 3397 
z
" transform="scale(0.015625)"/>
       <path id="DejaVuSans-29" d="M 513 4856 
L 1013 4856 
Q 1481 4119 1714 3412 
Q 1947 2706 1947 2009 
Q 1947 1309 1714 600 
Q 1481 -109 1013 -844 
L 513 -844 
Q 928 -128 1133 580 
Q 1338 1288 1338 2009 
Q 1338 2731 1133 3434 
Q 928 4138 513 4856 
z
" transform="scale(0.015625)"/>
      </defs>
      <use xlink:href="#DejaVuSans-54"/>
      <use xlink:href="#DejaVuSans-69" transform="translate(57.958984 0)"/>
      <use xlink:href="#DejaVuSans-6d" transform="translate(85.742188 0)"/>
      <use xlink:href="#DejaVuSans-65" transform="translate(183.154297 0)"/>
      <use xlink:href="#DejaVuSans-20" transform="translate(244.677734 0)"/>
      <use xlink:href="#DejaVuSans-28" transform="translate(276.464844 0)"/>
      <use xlink:href="#DejaVuSans-73" transform="translate(315.478516 0)"/>
      <use xlink:href="#DejaVuSans-29" transform="translate(367.578125 0)"/>
     </g>
    </g>
   </g>
   <g id="matplotlib.axis_2">
    <g id="ytick_1">
     <g id="line2d_17">
      <path d="M 47.307188 367.741449 
L 705.637188 367.741449 
" clip-path="url(#pe46eae227f)" style="fill: none; stroke: #b0b0b0; stroke-opacity: 0.2; stroke-width: 0.6; stroke-linecap: square"/>
     </g>
     <g id="line2d_18">
      <defs>
       <path id="mf167bfde0e" d="M 0 0 
L -3.5 0 
" style="stroke: #000000; stroke-width: 0.8"/>
      </defs>
      <g>
       <use xlink:href="#mf167bfde0e" x="47.307188" y="367.741449" style="stroke: #000000; stroke-width: 0.8"/>
      </g>
     </g>
     <g id="text_10">
      <!-- 0.0 -->
      <g transform="translate(22.81375 371.920589) scale(0.11 -0.11)">
       <defs>
        <path id="DejaVuSans-2e" d="M 684 794 
L 1344 794 
L 1344 0 
L 684 0 
L 684 794 
z
" transform="scale(0.015625)"/>
       </defs>
       <use xlink:href="#DejaVuSans-30"/>
       <use xlink:href="#DejaVuSans-2e" transform="translate(63.623047 0)"/>
       <use xlink:href="#DejaVuSans-30" transform="translate(95.410156 0)"/>
      </g>
     </g>
    </g>
    <g id="ytick_2">
     <g id="line2d_19">
      <path d="M 47.307188 317.507205 
L 705.637188 317.507205 
" clip-path="url(#pe46eae227f)" style="fill: none; stroke: #b0b0b0; stroke-opacity: 0.2; stroke-width: 0.6; stroke-linecap: square"/>
     </g>
     <g id="line2d_20">
      <g>
       <use xlink:href="#mf167bfde0e" x="47.307188" y="317.507205" style="stroke: #000000; stroke-width: 0.8"/>
      </g>
     </g>
     <g id="text_11">
      <!-- 0.5 -->
      <g transform="translate(22.81375 321.686345) scale(0.11 -0.11)">
       <use xlink:href="#DejaVuSans-30"/>
       <use xlink:href="#DejaVuSans-2e" transform="translate(63.623047 0)"/>
       <use xlink:href="#DejaVuSans-35" transform="translate(95.410156 0)"/>
      </g>
     </g>
    </g>
    <g id="ytick_3">
     <g id="line2d_21">
      <path d="M 47.307188 267.27296 
L 705.637188 267.27296 
" clip-path="url(#pe46eae227f)" style="fill: none; stroke: #b0b0b0; stroke-opacity: 0.2; stroke-width: 0.6; stroke-linecap: square"/>
     </g>
     <g id="line2d_22">
      <g>
       <use xlink:href="#mf167bfde0e" x="47.307188" y="267.27296" style="stroke: #000000; stroke-width: 0.8"/>
      </g>
     </g>
     <g id="text_12">
      <!-- 1.0 -->
      <g transform="translate(22.81375 271.452101) scale(0.11 -0.11)">
       <use xlink:href="#DejaVuSans-31"/>
       <use xlink:href="#DejaVuSans-2e" transform="translate(63.623047 0)"/>
       <use xlink:href="#DejaVuSans-30" transform="translate(95.410156 0)"/>
      </g>
     </g>
    </g>
    <g id="ytick_4">
     <g id="line2d_23">
      <path d="M 47.307188 217.038716 
L 705.637188 217.038716 
" clip-path="url(#pe46eae227f)" style="fill: none; stroke: #b0b0b0; stroke-opacity: 0.2; stroke-width: 0.6; stroke-linecap: square"/>
     </g>
     <g id="line2d_24">
      <g>
       <use xlink:href="#mf167bfde0e" x="47.307188" y="217.038716" style="stroke: #000000; stroke-width: 0.8"/>
      </g>
     </g>
     <g id="text_13">
      <!-- 1.5 -->
      <g transform="translate(22.81375 221.217857) scale(0.11 -0.11)">
       <use xlink:href="#DejaVuSans-31"/>
       <use xlink:href="#DejaVuSans-2e" transform="translate(63.623047 0)"/>
       <use xlink:href="#DejaVuSans-35" transform="translate(95.410156 0)"/>
      </g>
     </g>
    </g>
    <g id="ytick_5">
     <g id="line2d_25">
      <path d="M 47.307188 166.804472 
L 705.637188 166.804472 
" clip-path="url(#pe46eae227f)" style="fill: none; stroke: #b0b0b0; stroke-opacity: 0.2; stroke-width: 0.6; stroke-linecap: square"/>
     </g>
     <g id="line2d_26">
      <g>
       <use xlink:href="#mf167bfde0e" x="47.307188" y="166.804472" style="stroke: #000000; stroke-width: 0.8"/>
      </g>
     </g>
     <g id="text_14">
      <!-- 2.0 -->
      <g transform="translate(22.81375 170.983612) scale(0.11 -0.11)">
       <use xlink:href="#DejaVuSans-32"/>
       <use xlink:href="#DejaVuSans-2e" transform="translate(63.623047 0)"/>
       <use xlink:href="#DejaVuSans-30" transform="translate(95.410156 0)"/>
      </g>
     </g>
    </g>
    <g id="ytick_6">
     <g id="line2d_27">
      <path d="M 47.307188 116.570227 
L 705.637188 116.570227 
" clip-path="url(#pe46eae227f)" style="fill: none; stroke: #b0b0b0; stroke-opacity: 0.2; stroke-width: 0.6; stroke-linecap: square"/>
     </g>
     <g id="line2d_28">
      <g>
       <use xlink:href="#mf167bfde0e" x="47.307188" y="116.570227" style="stroke: #000000; stroke-width: 0.8"/>
      </g>
     </g>
     <g id="text_15">
      <!-- 2.5 -->
      <g transform="translate(22.81375 120.749368) scale(0.11 -0.11)">
       <use xlink:href="#DejaVuSans-32"/>
       <use xlink:href="#DejaVuSans-2e" transform="translate(63.623047 0)"/>
       <use xlink:href="#DejaVuSans-35" transform="translate(95.410156 0)"/>
      </g>
     </g>
    </g>
    <g id="ytick_7">
     <g id="line2d_29">
      <path d="M 47.307188 66.335983 
L 705.637188 66.335983 
" clip-path="url(#pe46eae227f)" style="fill: none; stroke: #b0b0b0; stroke-opacity: 0.2; stroke-width: 0.6; stroke-linecap: square"/>
     </g>
     <g id="line2d_30">
      <g>
       <use xlink:href="#mf167bfde0e" x="47.307188" y="66.335983" style="stroke: #000000; stroke-width: 0.8"/>
      </g>
     </g>
     <g id="text_16">
      <!-- 3.0 -->
      <g transform="translate(22.81375 70.515124) scale(0.11 -0.11)">
       <defs>
        <path id="DejaVuSans-33" d="M 2597 2516 
Q 3050 2419 3304 2112 
Q 3559 1806 3559 1356 
Q 3559 666 3084 287 
Q 2609 -91 1734 -91 
Q 1441 -91 1130 -33 
Q 819 25 488 141 
L 488 750 
Q 750 597 1062 519 
Q 1375 441 1716 441 
Q 2309 441 2620 675 
Q 2931 909 2931 1356 
Q 2931 1769 2642 2001 
Q 2353 2234 1838 2234 
L 1294 2234 
L 1294 2753 
L 1863 2753 
Q 2328 2753 2575 2939 
Q 2822 3125 2822 3475 
Q 2822 3834 2567 4026 
Q 2313 4219 1838 4219 
Q 1578 4219 1281 4162 
Q 984 4106 628 3988 
L 628 4550 
Q 988 4650 1302 4700 
Q 1616 4750 1894 4750 
Q 2613 4750 3031 4423 
Q 3450 4097 3450 3541 
Q 3450 3153 3228 2886 
Q 3006 2619 2597 2516 
z
" transform="scale(0.015625)"/>
       </defs>
       <use xlink:href="#DejaVuSans-33"/>
       <use xlink:href="#DejaVuSans-2e" transform="translate(63.623047 0)"/>
       <use xlink:href="#DejaVuSans-30" transform="translate(95.410156 0)"/>
      </g>
     </g>
    </g>
    <g id="text_17">
     <!-- AU mean intensity -->
     <g transform="translate(16.318125 259.314687) rotate(-90) scale(0.12 -0.12)">
      <defs>
       <path id="DejaVuSans-41" d="M 2188 4044 
L 1331 1722 
L 3047 1722 
L 2188 4044 
z
M 1831 4666 
L 2547 4666 
L 4325 0 
L 3669 0 
L 3244 1197 
L 1141 1197 
L 716 0 
L 50 0 
L 1831 4666 
z
" transform="scale(0.015625)"/>
       <path id="DejaVuSans-55" d="M 556 4666 
L 1191 4666 
L 1191 1831 
Q 1191 1081 1462 751 
Q 1734 422 2344 422 
Q 2950 422 3222 751 
Q 3494 1081 3494 1831 
L 3494 4666 
L 4128 4666 
L 4128 1753 
Q 4128 841 3676 375 
Q 3225 -91 2344 -91 
Q 1459 -91 1007 375 
Q 556 841 556 1753 
L 556 4666 
z
" transform="scale(0.015625)"/>
       <path id="DejaVuSans-61" d="M 2194 1759 
Q 1497 1759 1228 1600 
Q 959 1441 959 1056 
Q 959 750 1161 570 
Q 1363 391 1709 391 
Q 2188 391 2477 730 
Q 2766 1069 2766 1631 
L 2766 1759 
L 2194 1759 
z
M 3341 1997 
L 3341 0 
L 2766 0 
L 2766 531 
Q 2569 213 2275 61 
Q 1981 -91 1556 -91 
Q 1019 -91 701 211 
Q 384 513 384 1019 
Q 384 1609 779 1909 
Q 1175 2209 1959 2209 
L 2766 2209 
L 2766 2266 
Q 2766 2663 2505 2880 
Q 2244 3097 1772 3097 
Q 1472 3097 1187 3025 
Q 903 2953 641 2809 
L 641 3341 
Q 956 3463 1253 3523 
Q 1550 3584 1831 3584 
Q 2591 3584 2966 3190 
Q 3341 2797 3341 1997 
z
" transform="scale(0.015625)"/>
       <path id="DejaVuSans-6e" d="M 3513 2113 
L 3513 0 
L 2938 0 
L 2938 2094 
Q 2938 2591 2744 2837 
Q 2550 3084 2163 3084 
Q 1697 3084 1428 2787 
Q 1159 2491 1159 1978 
L 1159 0 
L 581 0 
L 581 3500 
L 1159 3500 
L 1159 2956 
Q 1366 3272 1645 3428 
Q 1925 3584 2291 3584 
Q 2894 3584 3203 3211 
Q 3513 2838 3513 2113 
z
" transform="scale(0.015625)"/>
       <path id="DejaVuSans-74" d="M 1172 4494 
L 1172 3500 
L 2356 3500 
L 2356 3053 
L 1172 3053 
L 1172 1153 
Q 1172 725 1289 603 
Q 1406 481 1766 481 
L 2356 481 
L 2356 0 
L 1766 0 
Q 1100 0 847 248 
Q 594 497 594 1153 
L 594 3053 
L 172 3053 
L 172 3500 
L 594 3500 
L 594 4494 
L 1172 4494 
z
" transform="scale(0.015625)"/>
       <path id="DejaVuSans-79" d="M 2059 -325 
Q 1816 -950 1584 -1140 
Q 1353 -1331 966 -1331 
L 506 -1331 
L 506 -850 
L 844 -850 
Q 1081 -850 1212 -737 
Q 1344 -625 1503 -206 
L 1606 56 
L 191 3500 
L 800 3500 
L 1894 763 
L 2988 3500 
L 3597 3500 
L 2059 -325 
z
" transform="scale(0.015625)"/>
      </defs>
      <use xlink:href="#DejaVuSans-41"/>
      <use xlink:href="#DejaVuSans-55" transform="translate(68.408203 0)"/>
      <use xlink:href="#DejaVuSans-20" transform="translate(141.601562 0)"/>
      <use xlink:href="#DejaVuSans-6d" transform="translate(173.388672 0)"/>
      <use xlink:href="#DejaVuSans-65" transform="translate(270.800781 0)"/>
      <use xlink:href="#DejaVuSans-61" transform="translate(332.324219 0)"/>
      <use xlink:href="#DejaVuSans-6e" transform="translate(393.603516 0)"/>
      <use xlink:href="#DejaVuSans-20" transform="translate(456.982422 0)"/>
      <use xlink:href="#DejaVuSans-69" transform="translate(488.769531 0)"/>
      <use xlink:href="#DejaVuSans-6e" transform="translate(516.552734 0)"/>
      <use xlink:href="#DejaVuSans-74" transform="translate(579.931641 0)"/>
      <use xlink:href="#DejaVuSans-65" transform="translate(619.140625 0)"/>
      <use xlink:href="#DejaVuSans-6e" transform="translate(680.664062 0)"/>
      <use xlink:href="#DejaVuSans-73" transform="translate(744.042969 0)"/>
      <use xlink:href="#DejaVuSans-69" transform="translate(796.142578 0)"/>
      <use xlink:href="#DejaVuSans-74" transform="translate(823.925781 0)"/>
      <use xlink:href="#DejaVuSans-79" transform="translate(863.134766 0)"/>
     </g>
    </g>
   </g>
   <g id="FillBetweenPolyCollection_1">
    <defs>
     <path id="m38b5abef69" d="M 47.307188 -143.580821 
L 47.307188 -30.843321 
L 50.790415 -33.492684 
L 54.273643 -24.667254 
L 57.75687 -21.887697 
L 61.240098 -26.91936 
L 64.723325 -25.655828 
L 68.206553 -25.150091 
L 71.68978 -21.667202 
L 75.173008 -18.041828 
L 78.656235 -26.933725 
L 82.139463 -21.941654 
L 85.62269 -31.327744 
L 89.105918 -29.235432 
L 92.589145 -28.062227 
L 96.072373 -36.070888 
L 99.5556 -30.969847 
L 103.038828 -34.794776 
L 106.522055 -35.270599 
L 110.005283 -32.72571 
L 113.48851 -28.621981 
L 116.971738 -27.636441 
L 120.454965 -29.733404 
L 123.938193 -25.082441 
L 127.42142 -30.725342 
L 130.904648 -38.355748 
L 134.387875 -40.131462 
L 137.871103 -40.319921 
L 141.35433 -43.965907 
L 144.837558 -44.263819 
L 148.320785 -46.163408 
L 151.804013 -35.558295 
L 155.28724 -25.751763 
L 158.770468 -27.888784 
L 162.253695 -29.41642 
L 165.736923 -39.255381 
L 169.22015 -37.883283 
L 172.703378 -28.741663 
L 176.186605 -31.176128 
L 179.669833 -28.674087 
L 183.153061 -32.839775 
L 186.636288 -21.491228 
L 190.119516 -40.830672 
L 193.602743 -32.241563 
L 197.085971 -29.698546 
L 200.569198 -41.225599 
L 204.052426 -32.590077 
L 207.535653 -27.742593 
L 211.018881 -18.972431 
L 214.502108 -30.990067 
L 217.985336 -31.567943 
L 221.468563 -22.244889 
L 224.951791 -27.741387 
L 228.435018 -26.869043 
L 231.918246 -29.143111 
L 235.401473 -17.175158 
L 238.884701 -18.986232 
L 242.367928 -20.002279 
L 245.851156 -18.8458 
L 249.334383 -31.373498 
L 252.817611 -11.222433 
L 256.300838 -10.261976 
L 259.784066 -26.369348 
L 263.267293 -17.570357 
L 266.750521 -8.735007 
L 270.233748 -17.397426 
L 273.716976 -5.996859 
L 277.200203 -5.266698 
L 280.683431 -9.275271 
L 284.166658 -4.981086 
L 287.649886 -4.249369 
L 291.133113 -14.360683 
L 294.616341 -30.267024 
L 298.099568 -29.059154 
L 301.582796 -15.528124 
L 305.066023 -16.744136 
L 308.549251 -25.999619 
L 312.032479 -17.657484 
L 315.515706 -28.758212 
L 318.998934 -26.582015 
L 322.482161 -16.059213 
L 325.965389 -19.955452 
L 329.448616 -21.553989 
L 332.931844 -19.258512 
L 336.415071 -20.047691 
L 339.898299 -26.758015 
L 343.381526 -34.031873 
L 346.864754 -41.407201 
L 350.347981 -44.897919 
L 353.831209 -38.470115 
L 357.314436 -34.37591 
L 360.797664 -36.807532 
L 364.280891 -31.928196 
L 367.764119 -29.639997 
L 371.247346 -25.039869 
L 374.730574 -19.897782 
L 378.213801 -26.746041 
L 381.697029 -25.840119 
L 385.180256 -27.154426 
L 388.663484 -33.444804 
L 392.146711 -26.698342 
L 395.629939 -41.497888 
L 399.113166 -18.261482 
L 402.596394 -27.368525 
L 406.079621 -26.902106 
L 409.562849 -24.930557 
L 413.046076 -26.732612 
L 416.529304 -21.653668 
L 420.012531 -30.194575 
L 423.495759 -35.206601 
L 426.978986 -31.357009 
L 430.462214 -40.023481 
L 433.945441 -30.404832 
L 437.428669 -33.191552 
L 440.911896 -34.527766 
L 444.395124 -32.340724 
L 447.878352 -40.96445 
L 451.361579 -37.978179 
L 454.844807 -30.120688 
L 458.328034 -32.348136 
L 461.811262 -33.520743 
L 465.294489 -18.899492 
L 468.777717 -23.972126 
L 472.260944 -36.450281 
L 475.744172 -25.765777 
L 479.227399 -22.338444 
L 482.710627 -14.452315 
L 486.193854 -0.867512 
L 489.677082 -11.108327 
L 493.160309 -9.223847 
L 496.643537 -10.990922 
L 500.126764 -4.459995 
L 503.609992 -1.587616 
L 507.093219 -16.483466 
L 510.576447 -15.915554 
L 514.059674 4.053829 
L 517.542902 -23.363654 
L 521.026129 -22.994129 
L 524.509357 -25.723172 
L 527.992584 -25.369723 
L 531.475812 -5.75593 
L 534.959039 -22.749318 
L 538.442267 -28.213161 
L 541.925494 -16.101143 
L 545.408722 -6.582538 
L 548.891949 -0.005347 
L 552.375177 9.657863 
L 555.858404 5.985995 
L 559.341632 3.046344 
L 562.824859 3.817286 
L 566.308087 -6.441187 
L 569.791314 -24.698464 
L 573.274542 -15.203961 
L 576.75777 -4.285038 
L 580.240997 -12.603646 
L 583.724225 -22.774876 
L 587.207452 -16.093312 
L 590.69068 -16.610976 
L 594.173907 -14.161655 
L 597.657135 -14.923208 
L 601.140362 -33.316672 
L 604.62359 -41.011196 
L 608.106817 -32.698726 
L 611.590045 -39.321355 
L 615.073272 -28.304496 
L 618.5565 -20.948299 
L 622.039727 -30.621553 
L 625.522955 -13.552037 
L 629.006182 -39.874082 
L 632.48941 -40.203165 
L 635.972637 -28.520201 
L 639.455865 -18.777041 
L 642.939092 -18.060532 
L 646.42232 -12.402994 
L 649.905547 -13.158729 
L 653.388775 -14.233655 
L 656.872002 -0.451634 
L 660.35523 -10.934795 
L 663.838457 -11.435231 
L 667.321685 -28.559164 
L 670.804912 -18.256582 
L 674.28814 -19.78475 
L 677.771367 -22.344695 
L 681.254595 -23.50596 
L 684.737822 -16.539116 
L 688.22105 -11.427937 
L 691.704277 -41.444083 
L 695.187505 -44.590364 
L 698.670732 -41.115693 
L 702.15396 -42.885041 
L 705.637188 -36.736459 
L 705.637188 -127.618408 
L 705.637188 -127.618408 
L 702.15396 -119.173982 
L 698.670732 -107.570255 
L 695.187505 -113.428313 
L 691.704277 -112.681021 
L 688.22105 -185.400521 
L 684.737822 -185.588562 
L 681.254595 -180.377122 
L 677.771367 -170.498308 
L 674.28814 -171.580282 
L 670.804912 -170.507055 
L 667.321685 -162.992221 
L 663.838457 -197.292187 
L 660.35523 -182.050697 
L 656.872002 -197.78722 
L 653.388775 -178.298109 
L 649.905547 -186.058827 
L 646.42232 -197.824187 
L 642.939092 -178.870499 
L 639.455865 -188.014766 
L 635.972637 -177.4963 
L 632.48941 -156.444565 
L 629.006182 -144.784204 
L 625.522955 -212.320681 
L 622.039727 -194.466638 
L 618.5565 -197.06519 
L 615.073272 -223.598388 
L 611.590045 -146.720468 
L 608.106817 -155.086209 
L 604.62359 -165.715793 
L 601.140362 -132.651011 
L 597.657135 -186.034945 
L 594.173907 -190.772211 
L 590.69068 -186.93181 
L 587.207452 -181.340062 
L 583.724225 -166.880572 
L 580.240997 -190.121646 
L 576.75777 -200.513604 
L 573.274542 -183.00891 
L 569.791314 -160.597948 
L 566.308087 -194.915654 
L 562.824859 -213.420591 
L 559.341632 -210.717111 
L 555.858404 -216.107846 
L 552.375177 -219.303355 
L 548.891949 -201.835956 
L 545.408722 -199.217436 
L 541.925494 -185.45658 
L 538.442267 -157.475793 
L 534.959039 -160.1002 
L 531.475812 -189.053138 
L 527.992584 -160.712611 
L 524.509357 -154.353405 
L 521.026129 -156.7198 
L 517.542902 -140.256877 
L 514.059674 -205.303665 
L 510.576447 -170.076538 
L 507.093219 -174.04703 
L 503.609992 -197.889772 
L 500.126764 -190.567277 
L 496.643537 -175.668073 
L 493.160309 -185.625174 
L 489.677082 -209.554054 
L 486.193854 -211.668824 
L 482.710627 -191.867324 
L 479.227399 -180.572363 
L 475.744172 -157.506737 
L 472.260944 -145.086665 
L 468.777717 -155.879263 
L 465.294489 -183.71153 
L 461.811262 -162.440248 
L 458.328034 -167.929424 
L 454.844807 -159.223241 
L 451.361579 -149.538262 
L 447.878352 -164.367826 
L 444.395124 -153.38511 
L 440.911896 -141.426138 
L 437.428669 -148.053711 
L 433.945441 -152.69446 
L 430.462214 -146.277616 
L 426.978986 -152.764291 
L 423.495759 -166.642805 
L 420.012531 -162.7437 
L 416.529304 -166.988993 
L 413.046076 -153.87229 
L 409.562849 -167.900991 
L 406.079621 -157.401076 
L 402.596394 -161.598227 
L 399.113166 -159.130161 
L 395.629939 -142.153757 
L 392.146711 -171.237374 
L 388.663484 -154.071637 
L 385.180256 -164.779165 
L 381.697029 -174.153861 
L 378.213801 -165.005666 
L 374.730574 -173.825019 
L 371.247346 -170.011709 
L 367.764119 -164.730988 
L 364.280891 -165.886265 
L 360.797664 -171.475098 
L 357.314436 -165.51721 
L 353.831209 -160.624509 
L 350.347981 -146.013665 
L 346.864754 -146.959982 
L 343.381526 -162.197611 
L 339.898299 -167.0134 
L 336.415071 -164.558628 
L 332.931844 -168.233623 
L 329.448616 -169.305628 
L 325.965389 -170.388692 
L 322.482161 -173.475259 
L 318.998934 -155.894797 
L 315.515706 -162.369899 
L 312.032479 -181.348015 
L 308.549251 -176.379229 
L 305.066023 -201.11541 
L 301.582796 -191.986743 
L 298.099568 -162.654278 
L 294.616341 -150.181979 
L 291.133113 -182.003467 
L 287.649886 -206.963778 
L 284.166658 -211.306614 
L 280.683431 -202.492185 
L 277.200203 -209.619304 
L 273.716976 -197.507929 
L 270.233748 -172.371454 
L 266.750521 -181.102602 
L 263.267293 -180.851776 
L 259.784066 -165.642192 
L 256.300838 -203.611239 
L 252.817611 -198.249838 
L 249.334383 -188.090303 
L 245.851156 -180.371756 
L 242.367928 -181.304272 
L 238.884701 -194.03708 
L 235.401473 -187.647791 
L 231.918246 -175.054564 
L 228.435018 -155.032506 
L 224.951791 -178.786117 
L 221.468563 -185.292329 
L 217.985336 -170.490446 
L 214.502108 -176.547151 
L 211.018881 -189.746326 
L 207.535653 -176.018954 
L 204.052426 -176.171985 
L 200.569198 -162.333392 
L 197.085971 -166.54826 
L 193.602743 -165.913195 
L 190.119516 -156.18697 
L 186.636288 -168.528823 
L 183.153061 -160.886658 
L 179.669833 -154.49142 
L 176.186605 -150.970446 
L 172.703378 -152.341554 
L 169.22015 -154.535328 
L 165.736923 -155.358673 
L 162.253695 -148.122461 
L 158.770468 -153.696776 
L 155.28724 -158.923846 
L 151.804013 -157.937642 
L 148.320785 -163.317524 
L 144.837558 -164.197061 
L 141.35433 -159.919969 
L 137.871103 -164.843325 
L 134.387875 -158.219987 
L 130.904648 -157.927379 
L 127.42142 -157.250137 
L 123.938193 -160.408426 
L 120.454965 -153.946181 
L 116.971738 -155.982795 
L 113.48851 -157.023668 
L 110.005283 -161.815424 
L 106.522055 -157.087384 
L 103.038828 -153.564304 
L 99.5556 -156.364712 
L 96.072373 -160.293262 
L 92.589145 -154.465434 
L 89.105918 -152.04224 
L 85.62269 -162.00894 
L 82.139463 -160.024713 
L 78.656235 -149.695743 
L 75.173008 -178.273709 
L 71.68978 -167.269656 
L 68.206553 -154.750191 
L 64.723325 -151.978325 
L 61.240098 -152.519091 
L 57.75687 -161.159629 
L 54.273643 -153.466727 
L 50.790415 -149.589287 
L 47.307188 -143.580821 
z
" style="stroke: #d3d3d3; stroke-opacity: 0.5"/>
    </defs>
    <g clip-path="url(#pe46eae227f)">
     <use xlink:href="#m38b5abef69" x="0" y="424.5775" style="fill: #d3d3d3; fill-opacity: 0.5; stroke: #d3d3d3; stroke-opacity: 0.5"/>
    </g>
   </g>
   <g id="FillBetweenPolyCollection_2">
    <defs>
     <path id="m853425276e" d="M 47.307188 -115.396446 
L 47.307188 -59.027696 
L 50.790415 -62.516834 
L 54.273643 -56.867122 
L 57.75687 -56.70568 
L 61.240098 -58.319293 
L 64.723325 -57.236452 
L 68.206553 -57.550116 
L 71.68978 -58.067815 
L 75.173008 -58.099798 
L 78.656235 -57.62423 
L 82.139463 -56.462419 
L 85.62269 -63.998043 
L 89.105918 -59.937134 
L 92.589145 -59.663029 
L 96.072373 -67.126481 
L 99.5556 -62.318563 
L 103.038828 -64.487158 
L 106.522055 -65.724795 
L 110.005283 -64.998138 
L 113.48851 -60.722403 
L 116.971738 -59.72303 
L 120.454965 -60.786598 
L 123.938193 -58.913937 
L 127.42142 -62.35654 
L 130.904648 -68.248656 
L 134.387875 -69.653593 
L 137.871103 -71.450772 
L 141.35433 -72.954422 
L 144.837558 -74.24713 
L 148.320785 -75.451937 
L 151.804013 -66.153132 
L 155.28724 -59.044783 
L 158.770468 -59.340782 
L 162.253695 -59.09293 
L 165.736923 -68.281204 
L 169.22015 -67.046294 
L 172.703378 -59.641636 
L 176.186605 -61.124708 
L 179.669833 -60.128421 
L 183.153061 -64.851496 
L 186.636288 -58.250627 
L 190.119516 -69.669747 
L 193.602743 -65.659471 
L 197.085971 -63.910975 
L 200.569198 -71.502547 
L 204.052426 -68.485554 
L 207.535653 -64.811684 
L 211.018881 -61.665905 
L 214.502108 -67.379338 
L 217.985336 -66.298569 
L 221.468563 -63.006749 
L 224.951791 -65.50257 
L 228.435018 -58.909909 
L 231.918246 -65.620974 
L 235.401473 -59.793316 
L 238.884701 -62.748944 
L 242.367928 -60.327778 
L 245.851156 -59.227289 
L 249.334383 -70.552699 
L 252.817611 -57.979284 
L 256.300838 -58.599292 
L 259.784066 -61.187559 
L 263.267293 -58.390712 
L 266.750521 -51.826906 
L 270.233748 -56.140933 
L 273.716976 -53.874627 
L 277.200203 -56.35485 
L 280.683431 -57.5795 
L 284.166658 -56.562468 
L 287.649886 -54.927971 
L 291.133113 -56.271379 
L 294.616341 -60.245763 
L 298.099568 -62.457935 
L 301.582796 -59.642779 
L 305.066023 -62.836954 
L 308.549251 -63.594522 
L 312.032479 -58.580117 
L 315.515706 -62.161133 
L 318.998934 -58.910211 
L 322.482161 -55.413225 
L 325.965389 -57.563762 
L 329.448616 -58.491899 
L 332.931844 -56.50229 
L 336.415071 -56.175426 
L 339.898299 -61.821861 
L 343.381526 -66.073308 
L 346.864754 -67.795396 
L 350.347981 -70.176855 
L 353.831209 -69.008714 
L 357.314436 -67.161235 
L 360.797664 -70.474423 
L 364.280891 -65.417714 
L 367.764119 -63.412745 
L 371.247346 -61.282829 
L 374.730574 -58.379591 
L 378.213801 -61.310948 
L 381.697029 -62.918554 
L 385.180256 -61.56061 
L 388.663484 -63.601512 
L 392.146711 -62.8331 
L 395.629939 -66.661855 
L 399.113166 -53.478652 
L 402.596394 -60.925951 
L 406.079621 -59.526849 
L 409.562849 -60.673166 
L 413.046076 -58.517532 
L 416.529304 -57.987499 
L 420.012531 -63.331856 
L 423.495759 -68.065652 
L 426.978986 -61.708829 
L 430.462214 -66.587015 
L 433.945441 -60.977239 
L 437.428669 -61.907092 
L 440.911896 -61.252359 
L 444.395124 -62.60182 
L 447.878352 -71.815294 
L 451.361579 -65.8682 
L 454.844807 -62.396326 
L 458.328034 -66.243458 
L 461.811262 -65.750619 
L 465.294489 -60.102501 
L 468.777717 -56.94891 
L 472.260944 -63.609377 
L 475.744172 -58.701017 
L 479.227399 -61.896924 
L 482.710627 -58.806067 
L 486.193854 -53.56784 
L 489.677082 -60.719759 
L 493.160309 -53.324179 
L 496.643537 -52.16021 
L 500.126764 -50.986815 
L 503.609992 -50.663155 
L 507.093219 -55.874357 
L 510.576447 -54.4558 
L 514.059674 -48.285544 
L 517.542902 -52.58696 
L 521.026129 -56.425547 
L 524.509357 -57.88073 
L 527.992584 -59.205445 
L 531.475812 -51.580232 
L 534.959039 -57.087038 
L 538.442267 -60.528819 
L 541.925494 -58.440002 
L 545.408722 -54.741262 
L 548.891949 -50.462999 
L 552.375177 -47.582442 
L 555.858404 -49.537465 
L 559.341632 -50.39452 
L 562.824859 -50.492183 
L 566.308087 -53.559804 
L 569.791314 -58.673335 
L 573.274542 -57.155198 
L 576.75777 -53.342179 
L 580.240997 -56.983146 
L 583.724225 -58.8013 
L 587.207452 -57.405 
L 590.69068 -59.191185 
L 594.173907 -58.314294 
L 597.657135 -57.701142 
L 601.140362 -58.150256 
L 604.62359 -72.187345 
L 608.106817 -63.295597 
L 611.590045 -66.171134 
L 615.073272 -77.127969 
L 618.5565 -64.977522 
L 622.039727 -71.582825 
L 625.522955 -63.244198 
L 629.006182 -66.101613 
L 632.48941 -69.263515 
L 635.972637 -65.764226 
L 639.455865 -61.086472 
L 642.939092 -58.263024 
L 646.42232 -58.758292 
L 649.905547 -56.383753 
L 653.388775 -55.249768 
L 656.872002 -49.78553 
L 660.35523 -53.713771 
L 663.838457 -57.89947 
L 667.321685 -62.167429 
L 670.804912 -56.3192 
L 674.28814 -57.733633 
L 677.771367 -59.383099 
L 681.254595 -62.723751 
L 684.737822 -58.801477 
L 688.22105 -54.921083 
L 691.704277 -59.253317 
L 695.187505 -61.799851 
L 698.670732 -57.729333 
L 702.15396 -61.957276 
L 705.637188 -59.456946 
L 705.637188 -104.897921 
L 705.637188 -104.897921 
L 702.15396 -100.101747 
L 698.670732 -90.956615 
L 695.187505 -96.218826 
L 691.704277 -94.871787 
L 688.22105 -141.907375 
L 684.737822 -143.3262 
L 681.254595 -141.159332 
L 677.771367 -133.459905 
L 674.28814 -133.631399 
L 670.804912 -132.444436 
L 667.321685 -129.383957 
L 663.838457 -150.827948 
L 660.35523 -139.271721 
L 656.872002 -148.453324 
L 653.388775 -137.281995 
L 649.905547 -142.833802 
L 646.42232 -151.468889 
L 642.939092 -138.668008 
L 639.455865 -145.705335 
L 635.972637 -140.252275 
L 632.48941 -127.384215 
L 629.006182 -118.556674 
L 625.522955 -162.62852 
L 622.039727 -153.505367 
L 618.5565 -153.035967 
L 615.073272 -174.774915 
L 611.590045 -119.87069 
L 608.106817 -124.489338 
L 604.62359 -134.539644 
L 601.140362 -107.817426 
L 597.657135 -143.257011 
L 594.173907 -146.619572 
L 590.69068 -144.351601 
L 587.207452 -140.028374 
L 583.724225 -130.854148 
L 580.240997 -145.742146 
L 576.75777 -151.456463 
L 573.274542 -141.057673 
L 569.791314 -126.623077 
L 566.308087 -147.797038 
L 562.824859 -159.111121 
L 559.341632 -157.276247 
L 555.858404 -160.584386 
L 552.375177 -162.06305 
L 548.891949 -151.378304 
L 545.408722 -151.058712 
L 541.925494 -143.117721 
L 538.442267 -125.160135 
L 534.959039 -125.76248 
L 531.475812 -143.228836 
L 527.992584 -126.876889 
L 524.509357 -122.195847 
L 521.026129 -123.288382 
L 517.542902 -111.033571 
L 514.059674 -152.964291 
L 510.576447 -131.536292 
L 507.093219 -134.656139 
L 503.609992 -148.814233 
L 500.126764 -144.040456 
L 496.643537 -134.498785 
L 493.160309 -141.524842 
L 489.677082 -159.942623 
L 486.193854 -158.968496 
L 482.710627 -147.513572 
L 479.227399 -141.013883 
L 475.744172 -124.571497 
L 472.260944 -117.927569 
L 468.777717 -122.902479 
L 465.294489 -142.50852 
L 461.811262 -130.210372 
L 458.328034 -134.034102 
L 454.844807 -126.947603 
L 451.361579 -121.648242 
L 447.878352 -133.516982 
L 444.395124 -123.124013 
L 440.911896 -114.701545 
L 437.428669 -119.338172 
L 433.945441 -122.122053 
L 430.462214 -119.714082 
L 426.978986 -122.41247 
L 423.495759 -133.783754 
L 420.012531 -129.606419 
L 416.529304 -130.655162 
L 413.046076 -122.087371 
L 409.562849 -132.158383 
L 406.079621 -124.776333 
L 402.596394 -128.040802 
L 399.113166 -123.912991 
L 395.629939 -116.98979 
L 392.146711 -135.102616 
L 388.663484 -123.914929 
L 385.180256 -130.37298 
L 381.697029 -137.075425 
L 378.213801 -130.44076 
L 374.730574 -135.34321 
L 371.247346 -133.768749 
L 367.764119 -130.95824 
L 364.280891 -132.396748 
L 360.797664 -137.808207 
L 357.314436 -132.731885 
L 353.831209 -130.085911 
L 350.347981 -120.734728 
L 346.864754 -120.571787 
L 343.381526 -130.156177 
L 339.898299 -131.949554 
L 336.415071 -128.430894 
L 332.931844 -130.989845 
L 329.448616 -132.367718 
L 325.965389 -132.780382 
L 322.482161 -134.121248 
L 318.998934 -123.566602 
L 315.515706 -128.966977 
L 312.032479 -140.425382 
L 308.549251 -138.784327 
L 305.066023 -155.022591 
L 301.582796 -147.872088 
L 298.099568 -129.255497 
L 294.616341 -120.20324 
L 291.133113 -140.092771 
L 287.649886 -156.285176 
L 284.166658 -159.725232 
L 280.683431 -154.187956 
L 277.200203 -158.531153 
L 273.716976 -149.630162 
L 270.233748 -133.627947 
L 266.750521 -138.010704 
L 263.267293 -140.031422 
L 259.784066 -130.823981 
L 256.300838 -155.273923 
L 252.817611 -151.492987 
L 249.334383 -148.911101 
L 245.851156 -139.990267 
L 242.367928 -140.978774 
L 238.884701 -150.274368 
L 235.401473 -145.029633 
L 231.918246 -138.576701 
L 228.435018 -122.99164 
L 224.951791 -141.024935 
L 221.468563 -144.530469 
L 217.985336 -135.75982 
L 214.502108 -140.15788 
L 211.018881 -147.052852 
L 207.535653 -138.949864 
L 204.052426 -140.276508 
L 200.569198 -132.056443 
L 197.085971 -132.335832 
L 193.602743 -132.495287 
L 190.119516 -127.347896 
L 186.636288 -131.769424 
L 183.153061 -128.874937 
L 179.669833 -123.037087 
L 176.186605 -121.021866 
L 172.703378 -121.441582 
L 169.22015 -125.372317 
L 165.736923 -126.33285 
L 162.253695 -118.445951 
L 158.770468 -122.244778 
L 155.28724 -125.630825 
L 151.804013 -127.342805 
L 148.320785 -134.028995 
L 144.837558 -134.213751 
L 141.35433 -130.931454 
L 137.871103 -133.712474 
L 134.387875 -128.697855 
L 130.904648 -128.034471 
L 127.42142 -125.618938 
L 123.938193 -126.57693 
L 120.454965 -122.892986 
L 116.971738 -123.896207 
L 113.48851 -124.923246 
L 110.005283 -129.542995 
L 106.522055 -126.633188 
L 103.038828 -123.871922 
L 99.5556 -125.015996 
L 96.072373 -129.237669 
L 92.589145 -122.864632 
L 89.105918 -121.340538 
L 85.62269 -129.338641 
L 82.139463 -125.503949 
L 78.656235 -119.005238 
L 75.173008 -138.215738 
L 71.68978 -130.869043 
L 68.206553 -122.350166 
L 64.723325 -120.397701 
L 61.240098 -121.119158 
L 57.75687 -126.341646 
L 54.273643 -121.266859 
L 50.790415 -120.565136 
L 47.307188 -115.396446 
z
" style="stroke: #808080; stroke-opacity: 0.7"/>
    </defs>
    <g clip-path="url(#pe46eae227f)">
     <use xlink:href="#m853425276e" x="0" y="424.5775" style="fill: #808080; fill-opacity: 0.7; stroke: #808080; stroke-opacity: 0.7"/>
    </g>
   </g>
   <g id="line2d_31">
    <path d="M 47.307188 312.0593 
L 50.790415 339.349528 
L 54.273643 294.544892 
L 57.75687 301.821692 
L 61.240098 303.965575 
L 64.723325 288.806759 
L 68.206553 254.594887 
L 71.68978 271.774815 
L 75.173008 252.736321 
L 78.656235 266.034976 
L 82.139463 253.836771 
L 85.62269 251.914919 
L 89.105918 191.342089 
L 92.589145 174.424544 
L 96.072373 219.545563 
L 99.5556 262.809526 
L 103.038828 243.075789 
L 106.522055 321.440108 
L 110.005283 280.682254 
L 113.48851 253.600909 
L 116.971738 261.881911 
L 120.454965 267.829759 
L 123.938193 225.012895 
L 127.42142 243.120967 
L 130.904648 246.509561 
L 134.387875 261.04545 
L 137.871103 254.436648 
L 141.35433 251.825816 
L 144.837558 255.649712 
L 148.320785 247.631534 
L 151.804013 221.359401 
L 155.28724 232.097976 
L 158.770468 238.072572 
L 162.253695 271.872052 
L 165.736923 247.032537 
L 169.22015 231.15802 
L 172.703378 241.4991 
L 176.186605 266.62703 
L 179.669833 259.462352 
L 183.153061 256.840933 
L 186.636288 237.052074 
L 190.119516 228.645631 
L 193.602743 283.487239 
L 197.085971 275.640829 
L 200.569198 280.436314 
L 204.052426 258.967958 
L 207.535653 287.780892 
L 211.018881 303.79148 
L 214.502108 301.571475 
L 217.985336 315.878131 
L 221.468563 307.314564 
L 224.951791 310.000807 
L 228.435018 309.63231 
L 231.918246 300.802271 
L 235.401473 302.631599 
L 238.884701 303.511004 
L 242.367928 317.545248 
L 245.851156 303.803871 
L 249.334383 339.696492 
L 252.817611 300.649153 
L 256.300838 320.084731 
L 259.784066 299.218812 
L 263.267293 293.223164 
L 266.750521 296.317579 
L 270.233748 309.56561 
L 273.716976 303.950266 
L 277.200203 309.538598 
L 280.683431 323.957318 
L 284.166658 309.040048 
L 287.649886 310.855844 
L 291.133113 323.987868 
L 294.616341 313.854553 
L 298.099568 305.324864 
L 301.582796 261.548936 
L 305.066023 266.980254 
L 308.549251 282.540291 
L 312.032479 300.843885 
L 315.515706 291.538062 
L 318.998934 250.613256 
L 322.482161 276.527004 
L 325.965389 282.65616 
L 329.448616 279.276658 
L 332.931844 274.460359 
L 336.415071 261.741635 
L 339.898299 286.571187 
L 343.381526 252.238941 
L 346.864754 250.23012 
L 350.347981 237.581822 
L 353.831209 265.257292 
L 357.314436 263.094183 
L 360.797664 217.805473 
L 364.280891 267.972116 
L 367.764119 274.046749 
L 371.247346 265.330877 
L 374.730574 289.397375 
L 378.213801 277.919743 
L 381.697029 274.489662 
L 385.180256 286.205453 
L 388.663484 289.881182 
L 392.146711 302.7442 
L 395.629939 288.578366 
L 399.113166 240.40755 
L 402.596394 266.031007 
L 406.079621 273.684633 
L 409.562849 289.090839 
L 413.046076 280.542707 
L 416.529304 287.426115 
L 423.495759 300.57379 
L 426.978986 315.327324 
L 430.462214 282.629707 
L 433.945441 271.081445 
L 437.428669 281.614509 
L 440.911896 298.913512 
L 444.395124 272.295659 
L 447.878352 289.221572 
L 451.361579 275.7739 
L 454.844807 281.680977 
L 458.328034 254.328313 
L 461.811262 287.012537 
L 468.777717 324.623412 
L 472.260944 295.862729 
L 475.744172 283.784205 
L 479.227399 297.1375 
L 482.710627 297.189193 
L 486.193854 267.944377 
L 489.677082 311.519666 
L 493.160309 309.7292 
L 496.643537 321.759707 
L 500.126764 349.127801 
L 503.609992 341.928192 
L 507.093219 322.607142 
L 510.576447 309.352517 
L 514.059674 304.467544 
L 517.542902 303.472423 
L 521.026129 263.447453 
L 524.509357 234.576791 
L 527.992584 238.57151 
L 531.475812 239.814734 
L 534.959039 264.14305 
L 538.442267 283.3509 
L 541.925494 293.649864 
L 545.408722 254.067439 
L 548.891949 268.753164 
L 552.375177 280.614421 
L 555.858404 283.679214 
L 559.341632 265.766062 
L 562.824859 233.032942 
L 566.308087 280.420135 
L 569.791314 282.239738 
L 573.274542 283.860835 
L 576.75777 302.232089 
L 580.240997 302.286725 
L 583.724225 291.937096 
L 587.207452 246.831946 
L 590.69068 266.00358 
L 594.173907 240.497679 
L 597.657135 261.665398 
L 601.140362 293.220573 
L 604.62359 293.458838 
L 608.106817 272.119829 
L 611.590045 199.665699 
L 615.073272 263.628221 
L 618.5565 246.044386 
L 622.039727 269.079187 
L 625.522955 279.496761 
L 629.006182 269.606781 
L 635.972637 288.374587 
L 639.455865 290.584759 
L 642.939092 257.538096 
L 646.42232 264.844003 
L 649.905547 269.230418 
L 653.388775 218.328846 
L 656.872002 257.030658 
L 660.35523 259.690309 
L 663.838457 286.927745 
L 667.321685 264.636163 
L 670.804912 269.396559 
L 674.28814 254.780796 
L 677.771367 245.197909 
L 681.254595 265.984513 
L 684.737822 251.832883 
L 688.22105 256.016882 
L 691.704277 248.540394 
L 695.187505 248.810635 
L 698.670732 269.322962 
L 702.15396 273.054856 
L 705.637188 216.465693 
L 705.637188 216.465693 
" clip-path="url(#pe46eae227f)" style="fill: none; stroke: #ff8c00; stroke-width: 2.3; stroke-linecap: square"/>
   </g>
   <g id="line2d_32">
    <path d="M 277.200203 384.117812 
L 277.200203 23.837812 
" clip-path="url(#pe46eae227f)" style="fill: none; stroke-dasharray: 5.55,2.4; stroke-dashoffset: 0; stroke: #808080; stroke-width: 1.5"/>
   </g>
   <g id="line2d_33">
    <path d="M 475.744172 384.117812 
L 475.744172 23.837812 
" clip-path="url(#pe46eae227f)" style="fill: none; stroke-dasharray: 5.55,2.4; stroke-dashoffset: 0; stroke: #808080; stroke-width: 1.5"/>
   </g>
   <g id="patch_3">
    <path d="M 47.307188 384.117812 
L 47.307188 23.837812 
" style="fill: none; stroke: #000000; stroke-width: 0.8; stroke-linejoin: miter; stroke-linecap: square"/>
   </g>
   <g id="patch_4">
    <path d="M 705.637188 384.117812 
L 705.637188 23.837812 
" style="fill: none; stroke: #000000; stroke-width: 0.8; stroke-linejoin: miter; stroke-linecap: square"/>
   </g>
   <g id="patch_5">
    <path d="M 47.307188 384.117812 
L 705.637188 384.117812 
" style="fill: none; stroke: #000000; stroke-width: 0.8; stroke-linejoin: miter; stroke-linecap: square"/>
   </g>
   <g id="patch_6">
    <path d="M 47.307188 23.837812 
L 705.637188 23.837812 
" style="fill: none; stroke: #000000; stroke-width: 0.8; stroke-linejoin: miter; stroke-linecap: square"/>
   </g>
   <g id="text_18">
    <!-- Facial trace: Social anxiety disorder (SAD) (female) -->
    <g transform="translate(197.718437 17.837812) scale(0.14 -0.14)">
     <defs>
      <path id="DejaVuSans-46" d="M 628 4666 
L 3309 4666 
L 3309 4134 
L 1259 4134 
L 1259 2759 
L 3109 2759 
L 3109 2228 
L 1259 2228 
L 1259 0 
L 628 0 
L 628 4666 
z
" transform="scale(0.015625)"/>
      <path id="DejaVuSans-63" d="M 3122 3366 
L 3122 2828 
Q 2878 2963 2633 3030 
Q 2388 3097 2138 3097 
Q 1578 3097 1268 2742 
Q 959 2388 959 1747 
Q 959 1106 1268 751 
Q 1578 397 2138 397 
Q 2388 397 2633 464 
Q 2878 531 3122 666 
L 3122 134 
Q 2881 22 2623 -34 
Q 2366 -91 2075 -91 
Q 1284 -91 818 406 
Q 353 903 353 1747 
Q 353 2603 823 3093 
Q 1294 3584 2113 3584 
Q 2378 3584 2631 3529 
Q 2884 3475 3122 3366 
z
" transform="scale(0.015625)"/>
      <path id="DejaVuSans-6c" d="M 603 4863 
L 1178 4863 
L 1178 0 
L 603 0 
L 603 4863 
z
" transform="scale(0.015625)"/>
      <path id="DejaVuSans-72" d="M 2631 2963 
Q 2534 3019 2420 3045 
Q 2306 3072 2169 3072 
Q 1681 3072 1420 2755 
Q 1159 2438 1159 1844 
L 1159 0 
L 581 0 
L 581 3500 
L 1159 3500 
L 1159 2956 
Q 1341 3275 1631 3429 
Q 1922 3584 2338 3584 
Q 2397 3584 2469 3576 
Q 2541 3569 2628 3553 
L 2631 2963 
z
" transform="scale(0.015625)"/>
      <path id="DejaVuSans-3a" d="M 750 794 
L 1409 794 
L 1409 0 
L 750 0 
L 750 794 
z
M 750 3309 
L 1409 3309 
L 1409 2516 
L 750 2516 
L 750 3309 
z
" transform="scale(0.015625)"/>
      <path id="DejaVuSans-53" d="M 3425 4513 
L 3425 3897 
Q 3066 4069 2747 4153 
Q 2428 4238 2131 4238 
Q 1616 4238 1336 4038 
Q 1056 3838 1056 3469 
Q 1056 3159 1242 3001 
Q 1428 2844 1947 2747 
L 2328 2669 
Q 3034 2534 3370 2195 
Q 3706 1856 3706 1288 
Q 3706 609 3251 259 
Q 2797 -91 1919 -91 
Q 1588 -91 1214 -16 
Q 841 59 441 206 
L 441 856 
Q 825 641 1194 531 
Q 1563 422 1919 422 
Q 2459 422 2753 634 
Q 3047 847 3047 1241 
Q 3047 1584 2836 1778 
Q 2625 1972 2144 2069 
L 1759 2144 
Q 1053 2284 737 2584 
Q 422 2884 422 3419 
Q 422 4038 858 4394 
Q 1294 4750 2059 4750 
Q 2388 4750 2728 4690 
Q 3069 4631 3425 4513 
z
" transform="scale(0.015625)"/>
      <path id="DejaVuSans-6f" d="M 1959 3097 
Q 1497 3097 1228 2736 
Q 959 2375 959 1747 
Q 959 1119 1226 758 
Q 1494 397 1959 397 
Q 2419 397 2687 759 
Q 2956 1122 2956 1747 
Q 2956 2369 2687 2733 
Q 2419 3097 1959 3097 
z
M 1959 3584 
Q 2709 3584 3137 3096 
Q 3566 2609 3566 1747 
Q 3566 888 3137 398 
Q 2709 -91 1959 -91 
Q 1206 -91 779 398 
Q 353 888 353 1747 
Q 353 2609 779 3096 
Q 1206 3584 1959 3584 
z
" transform="scale(0.015625)"/>
      <path id="DejaVuSans-78" d="M 3513 3500 
L 2247 1797 
L 3578 0 
L 2900 0 
L 1881 1375 
L 863 0 
L 184 0 
L 1544 1831 
L 300 3500 
L 978 3500 
L 1906 2253 
L 2834 3500 
L 3513 3500 
z
" transform="scale(0.015625)"/>
      <path id="DejaVuSans-64" d="M 2906 2969 
L 2906 4863 
L 3481 4863 
L 3481 0 
L 2906 0 
L 2906 525 
Q 2725 213 2448 61 
Q 2172 -91 1784 -91 
Q 1150 -91 751 415 
Q 353 922 353 1747 
Q 353 2572 751 3078 
Q 1150 3584 1784 3584 
Q 2172 3584 2448 3432 
Q 2725 3281 2906 2969 
z
M 947 1747 
Q 947 1113 1208 752 
Q 1469 391 1925 391 
Q 2381 391 2643 752 
Q 2906 1113 2906 1747 
Q 2906 2381 2643 2742 
Q 2381 3103 1925 3103 
Q 1469 3103 1208 2742 
Q 947 2381 947 1747 
z
" transform="scale(0.015625)"/>
      <path id="DejaVuSans-44" d="M 1259 4147 
L 1259 519 
L 2022 519 
Q 2988 519 3436 956 
Q 3884 1394 3884 2338 
Q 3884 3275 3436 3711 
Q 2988 4147 2022 4147 
L 1259 4147 
z
M 628 4666 
L 1925 4666 
Q 3281 4666 3915 4102 
Q 4550 3538 4550 2338 
Q 4550 1131 3912 565 
Q 3275 0 1925 0 
L 628 0 
L 628 4666 
z
" transform="scale(0.015625)"/>
      <path id="DejaVuSans-66" d="M 2375 4863 
L 2375 4384 
L 1825 4384 
Q 1516 4384 1395 4259 
Q 1275 4134 1275 3809 
L 1275 3500 
L 2222 3500 
L 2222 3053 
L 1275 3053 
L 1275 0 
L 697 0 
L 697 3053 
L 147 3053 
L 147 3500 
L 697 3500 
L 697 3744 
Q 697 4328 969 4595 
Q 1241 4863 1831 4863 
L 2375 4863 
z
" transform="scale(0.015625)"/>
     </defs>
     <use xlink:href="#DejaVuSans-46"/>
     <use xlink:href="#DejaVuSans-61" transform="translate(48.394531 0)"/>
     <use xlink:href="#DejaVuSans-63" transform="translate(109.673828 0)"/>
     <use xlink:href="#DejaVuSans-69" transform="translate(164.654297 0)"/>
     <use xlink:href="#DejaVuSans-61" transform="translate(192.4375 0)"/>
     <use xlink:href="#DejaVuSans-6c" transform="translate(253.716797 0)"/>
     <use xlink:href="#DejaVuSans-20" transform="translate(281.5 0)"/>
     <use xlink:href="#DejaVuSans-74" transform="translate(313.287109 0)"/>
     <use xlink:href="#DejaVuSans-72" transform="translate(352.496094 0)"/>
     <use xlink:href="#DejaVuSans-61" transform="translate(393.609375 0)"/>
     <use xlink:href="#DejaVuSans-63" transform="translate(454.888672 0)"/>
     <use xlink:href="#DejaVuSans-65" transform="translate(509.869141 0)"/>
     <use xlink:href="#DejaVuSans-3a" transform="translate(571.392578 0)"/>
     <use xlink:href="#DejaVuSans-20" transform="translate(605.083984 0)"/>
     <use xlink:href="#DejaVuSans-53" transform="translate(636.871094 0)"/>
     <use xlink:href="#DejaVuSans-6f" transform="translate(700.347656 0)"/>
     <use xlink:href="#DejaVuSans-63" transform="translate(761.529297 0)"/>
     <use xlink:href="#DejaVuSans-69" transform="translate(816.509766 0)"/>
     <use xlink:href="#DejaVuSans-61" transform="translate(844.292969 0)"/>
     <use xlink:href="#DejaVuSans-6c" transform="translate(905.572266 0)"/>
     <use xlink:href="#DejaVuSans-20" transform="translate(933.355469 0)"/>
     <use xlink:href="#DejaVuSans-61" transform="translate(965.142578 0)"/>
     <use xlink:href="#DejaVuSans-6e" transform="translate(1026.421875 0)"/>
     <use xlink:href="#DejaVuSans-78" transform="translate(1089.800781 0)"/>
     <use xlink:href="#DejaVuSans-69" transform="translate(1148.980469 0)"/>
     <use xlink:href="#DejaVuSans-65" transform="translate(1176.763672 0)"/>
     <use xlink:href="#DejaVuSans-74" transform="translate(1238.287109 0)"/>
     <use xlink:href="#DejaVuSans-79" transform="translate(1277.496094 0)"/>
     <use xlink:href="#DejaVuSans-20" transform="translate(1336.675781 0)"/>
     <use xlink:href="#DejaVuSans-64" transform="translate(1368.462891 0)"/>
     <use xlink:href="#DejaVuSans-69" transform="translate(1431.939453 0)"/>
     <use xlink:href="#DejaVuSans-73" transform="translate(1459.722656 0)"/>
     <use xlink:href="#DejaVuSans-6f" transform="translate(1511.822266 0)"/>
     <use xlink:href="#DejaVuSans-72" transform="translate(1573.003906 0)"/>
     <use xlink:href="#DejaVuSans-64" transform="translate(1612.367188 0)"/>
     <use xlink:href="#DejaVuSans-65" transform="translate(1675.84375 0)"/>
     <use xlink:href="#DejaVuSans-72" transform="translate(1737.367188 0)"/>
     <use xlink:href="#DejaVuSans-20" transform="translate(1778.480469 0)"/>
     <use xlink:href="#DejaVuSans-28" transform="translate(1810.267578 0)"/>
     <use xlink:href="#DejaVuSans-53" transform="translate(1849.28125 0)"/>
     <use xlink:href="#DejaVuSans-41" transform="translate(1914.632812 0)"/>
     <use xlink:href="#DejaVuSans-44" transform="translate(1983.041016 0)"/>
     <use xlink:href="#DejaVuSans-29" transform="translate(2060.042969 0)"/>
     <use xlink:href="#DejaVuSans-20" transform="translate(2099.056641 0)"/>
     <use xlink:href="#DejaVuSans-28" transform="translate(2130.84375 0)"/>
     <use xlink:href="#DejaVuSans-66" transform="translate(2169.857422 0)"/>
     <use xlink:href="#DejaVuSans-65" transform="translate(2205.0625 0)"/>
     <use xlink:href="#DejaVuSans-6d" transform="translate(2266.585938 0)"/>
     <use xlink:href="#DejaVuSans-61" transform="translate(2363.998047 0)"/>
     <use xlink:href="#DejaVuSans-6c" transform="translate(2425.277344 0)"/>
     <use xlink:href="#DejaVuSans-65" transform="translate(2453.060547 0)"/>
     <use xlink:href="#DejaVuSans-29" transform="translate(2514.583984 0)"/>
    </g>
   </g>
   <g id="legend_1">
    <g id="patch_7">
     <path d="M 465.431562 42.096094 
L 487.431562 42.096094 
L 487.431562 34.396094 
L 465.431562 34.396094 
z
" style="fill: #d3d3d3; fill-opacity: 0.5; stroke: #d3d3d3; stroke-opacity: 0.5; stroke-linejoin: miter"/>
    </g>
    <g id="text_19">
     <!-- Social anxiety disorder (SAD) ±2 SD -->
     <g transform="translate(496.231562 42.096094) scale(0.11 -0.11)">
      <defs>
       <path id="DejaVuSans-b1" d="M 2944 4013 
L 2944 2803 
L 4684 2803 
L 4684 2272 
L 2944 2272 
L 2944 1063 
L 2419 1063 
L 2419 2272 
L 678 2272 
L 678 2803 
L 2419 2803 
L 2419 4013 
L 2944 4013 
z
M 678 531 
L 4684 531 
L 4684 0 
L 678 0 
L 678 531 
z
" transform="scale(0.015625)"/>
      </defs>
      <use xlink:href="#DejaVuSans-53"/>
      <use xlink:href="#DejaVuSans-6f" transform="translate(63.476562 0)"/>
      <use xlink:href="#DejaVuSans-63" transform="translate(124.658203 0)"/>
      <use xlink:href="#DejaVuSans-69" transform="translate(179.638672 0)"/>
      <use xlink:href="#DejaVuSans-61" transform="translate(207.421875 0)"/>
      <use xlink:href="#DejaVuSans-6c" transform="translate(268.701172 0)"/>
      <use xlink:href="#DejaVuSans-20" transform="translate(296.484375 0)"/>
      <use xlink:href="#DejaVuSans-61" transform="translate(328.271484 0)"/>
      <use xlink:href="#DejaVuSans-6e" transform="translate(389.550781 0)"/>
      <use xlink:href="#DejaVuSans-78" transform="translate(452.929688 0)"/>
      <use xlink:href="#DejaVuSans-69" transform="translate(512.109375 0)"/>
      <use xlink:href="#DejaVuSans-65" transform="translate(539.892578 0)"/>
      <use xlink:href="#DejaVuSans-74" transform="translate(601.416016 0)"/>
      <use xlink:href="#DejaVuSans-79" transform="translate(640.625 0)"/>
      <use xlink:href="#DejaVuSans-20" transform="translate(699.804688 0)"/>
      <use xlink:href="#DejaVuSans-64" transform="translate(731.591797 0)"/>
      <use xlink:href="#DejaVuSans-69" transform="translate(795.068359 0)"/>
      <use xlink:href="#DejaVuSans-73" transform="translate(822.851562 0)"/>
      <use xlink:href="#DejaVuSans-6f" transform="translate(874.951172 0)"/>
      <use xlink:href="#DejaVuSans-72" transform="translate(936.132812 0)"/>
      <use xlink:href="#DejaVuSans-64" transform="translate(975.496094 0)"/>
      <use xlink:href="#DejaVuSans-65" transform="translate(1038.972656 0)"/>
      <use xlink:href="#DejaVuSans-72" transform="translate(1100.496094 0)"/>
      <use xlink:href="#DejaVuSans-20" transform="translate(1141.609375 0)"/>
      <use xlink:href="#DejaVuSans-28" transform="translate(1173.396484 0)"/>
      <use xlink:href="#DejaVuSans-53" transform="translate(1212.410156 0)"/>
      <use xlink:href="#DejaVuSans-41" transform="translate(1277.761719 0)"/>
      <use xlink:href="#DejaVuSans-44" transform="translate(1346.169922 0)"/>
      <use xlink:href="#DejaVuSans-29" transform="translate(1423.171875 0)"/>
      <use xlink:href="#DejaVuSans-20" transform="translate(1462.185547 0)"/>
      <use xlink:href="#DejaVuSans-b1" transform="translate(1493.972656 0)"/>
      <use xlink:href="#DejaVuSans-32" transform="translate(1577.761719 0)"/>
      <use xlink:href="#DejaVuSans-20" transform="translate(1641.384766 0)"/>
      <use xlink:href="#DejaVuSans-53" transform="translate(1673.171875 0)"/>
      <use xlink:href="#DejaVuSans-44" transform="translate(1736.648438 0)"/>
     </g>
    </g>
    <g id="patch_8">
     <path d="M 465.431562 58.242031 
L 487.431562 58.242031 
L 487.431562 50.542031 
L 465.431562 50.542031 
z
" style="fill: #808080; fill-opacity: 0.7; stroke: #808080; stroke-opacity: 0.7; stroke-linejoin: miter"/>
    </g>
    <g id="text_20">
     <!-- Social anxiety disorder (SAD) ±1 SD -->
     <g transform="translate(496.231562 58.242031) scale(0.11 -0.11)">
      <use xlink:href="#DejaVuSans-53"/>
      <use xlink:href="#DejaVuSans-6f" transform="translate(63.476562 0)"/>
      <use xlink:href="#DejaVuSans-63" transform="translate(124.658203 0)"/>
      <use xlink:href="#DejaVuSans-69" transform="translate(179.638672 0)"/>
      <use xlink:href="#DejaVuSans-61" transform="translate(207.421875 0)"/>
      <use xlink:href="#DejaVuSans-6c" transform="translate(268.701172 0)"/>
      <use xlink:href="#DejaVuSans-20" transform="translate(296.484375 0)"/>
      <use xlink:href="#DejaVuSans-61" transform="translate(328.271484 0)"/>
      <use xlink:href="#DejaVuSans-6e" transform="translate(389.550781 0)"/>
      <use xlink:href="#DejaVuSans-78" transform="translate(452.929688 0)"/>
      <use xlink:href="#DejaVuSans-69" transform="translate(512.109375 0)"/>
      <use xlink:href="#DejaVuSans-65" transform="translate(539.892578 0)"/>
      <use xlink:href="#DejaVuSans-74" transform="translate(601.416016 0)"/>
      <use xlink:href="#DejaVuSans-79" transform="translate(640.625 0)"/>
      <use xlink:href="#DejaVuSans-20" transform="translate(699.804688 0)"/>
      <use xlink:href="#DejaVuSans-64" transform="translate(731.591797 0)"/>
      <use xlink:href="#DejaVuSans-69" transform="translate(795.068359 0)"/>
      <use xlink:href="#DejaVuSans-73" transform="translate(822.851562 0)"/>
      <use xlink:href="#DejaVuSans-6f" transform="translate(874.951172 0)"/>
      <use xlink:href="#DejaVuSans-72" transform="translate(936.132812 0)"/>
      <use xlink:href="#DejaVuSans-64" transform="translate(975.496094 0)"/>
      <use xlink:href="#DejaVuSans-65" transform="translate(1038.972656 0)"/>
      <use xlink:href="#DejaVuSans-72" transform="translate(1100.496094 0)"/>
      <use xlink:href="#DejaVuSans-20" transform="translate(1141.609375 0)"/>
      <use xlink:href="#DejaVuSans-28" transform="translate(1173.396484 0)"/>
      <use xlink:href="#DejaVuSans-53" transform="translate(1212.410156 0)"/>
      <use xlink:href="#DejaVuSans-41" transform="translate(1277.761719 0)"/>
      <use xlink:href="#DejaVuSans-44" transform="translate(1346.169922 0)"/>
      <use xlink:href="#DejaVuSans-29" transform="translate(1423.171875 0)"/>
      <use xlink:href="#DejaVuSans-20" transform="translate(1462.185547 0)"/>
      <use xlink:href="#DejaVuSans-b1" transform="translate(1493.972656 0)"/>
      <use xlink:href="#DejaVuSans-31" transform="translate(1577.761719 0)"/>
      <use xlink:href="#DejaVuSans-20" transform="translate(1641.384766 0)"/>
      <use xlink:href="#DejaVuSans-53" transform="translate(1673.171875 0)"/>
      <use xlink:href="#DejaVuSans-44" transform="translate(1736.648438 0)"/>
     </g>
    </g>
    <g id="line2d_34">
     <path d="M 465.431562 70.537969 
L 476.431562 70.537969 
L 487.431562 70.537969 
" style="fill: none; stroke: #ff8c00; stroke-width: 2.3; stroke-linecap: square"/>
    </g>
    <g id="text_21">
     <!-- Patient -->
     <g transform="translate(496.231562 74.387969) scale(0.11 -0.11)">
      <defs>
       <path id="DejaVuSans-50" d="M 1259 4147 
L 1259 2394 
L 2053 2394 
Q 2494 2394 2734 2622 
Q 2975 2850 2975 3272 
Q 2975 3691 2734 3919 
Q 2494 4147 2053 4147 
L 1259 4147 
z
M 628 4666 
L 2053 4666 
Q 2838 4666 3239 4311 
Q 3641 3956 3641 3272 
Q 3641 2581 3239 2228 
Q 2838 1875 2053 1875 
L 1259 1875 
L 1259 0 
L 628 0 
L 628 4666 
z
" transform="scale(0.015625)"/>
      </defs>
      <use xlink:href="#DejaVuSans-50"/>
      <use xlink:href="#DejaVuSans-61" transform="translate(55.802734 0)"/>
      <use xlink:href="#DejaVuSans-74" transform="translate(117.082031 0)"/>
      <use xlink:href="#DejaVuSans-69" transform="translate(156.291016 0)"/>
      <use xlink:href="#DejaVuSans-65" transform="translate(184.074219 0)"/>
      <use xlink:href="#DejaVuSans-6e" transform="translate(245.597656 0)"/>
      <use xlink:href="#DejaVuSans-74" transform="translate(308.976562 0)"/>
     </g>
    </g>
   </g>
  </g>
 </g>
 <defs>
  <clipPath id="pe46eae227f">
   <rect x="47.307188" y="23.837812" width="658.33" height="360.28"/>
  </clipPath>
 </defs>
</svg>
