<?xml version="1.0" encoding="utf-8" standalone="no"?>
<!DOCTYPE svg PUBLIC "-//W3C//DTD SVG 1.1//EN"
  "http://www.w3.org/Graphics/SVG/1.1/DTD/svg11.dtd">
<svg xmlns:xlink="http://www.w3.org/1999/xlink" width="676.85125pt" height="391.52407pt" viewBox="0 0 676.85125 391.52407" xmlns="http://www.w3.org/2000/svg" version="1.1">
 <metadata>
  <rdf:RDF xmlns:dc="http://purl.org/dc/elements/1.1/" xmlns:cc="http://creativecommons.org/ns#" xmlns:rdf="http://www.w3.org/1999/02/22-rdf-syntax-ns#">
   <cc:Work>
    <dc:type rdf:resource="http://purl.org/dc/dcmitype/StillImage"/>
    <dc:date>2026-06-23T21:37:48.662598</dc:date>
    <dc:format>image/svg+xml</dc:format>
    <dc:creator>
     <cc:Agent>
      <dc:title>Matplotlib v3.10.1, https://matplotlib.org/</dc:title>
     </cc:Agent>
    </dc:creator>
   </cc:Work>
  </rdf:RDF>
 </metadata>
 <defs>
  <style type="text/css">*{stroke-linejoin: round; stroke-linecap: butt}</style>
 </defs>
 <g id="figure_1">
  <g id="patch_1">
   <path d="M 0 391.52407 
L 676.85125 391.52407 
L 676.85125 0 
L 0 0 
z
" style="fill: #ffffff"/>
  </g>
  <g id="axes_1">
   <g id="patch_2">
    <path d="M 43.81125 338.606376 
L 218.53125 338.606376 
L 218.53125 34.56 
L 43.81125 34.56 
z
" style="fill: #ffffff"/>
   </g>
   <g id="matplotlib.axis_1">
    <g id="xtick_1">
     <g id="line2d_1">
      <path d="M 131.17125 338.606376 
L 131.17125 34.56 
" clip-path="url(#p20befb1ba3)" style="fill: none; stroke: #b0b0b0; stroke-opacity: 0.2; stroke-width: 0.6; stroke-linecap: square"/>
     </g>
     <g id="line2d_2">
      <defs>
       <path id="mf555d6e7d6" d="M 0 0 
L 0 3.5 
" style="stroke: #000000; stroke-width: 0.8"/>
      </defs>
      <g>
       <use xlink:href="#mf555d6e7d6" x="131.17125" y="338.606376" style="stroke: #000000; stroke-width: 0.8"/>
      </g>
     </g>
     <g id="text_1">
      <!-- Pitch variability -->
      <g transform="translate(48.655671 375.631189) rotate(-15) scale(0.11 -0.11)">
       <defs>
        <path id="DejaVuSans-50" d="M 1259 4147 
L 1259 2394 
L 2053 2394 
Q 2494 2394 2734 2622 
Q 2975 2850 2975 3272 
Q 2975 3691 2734 3919 
Q 2494 4147 2053 4147 
L 1259 4147 
z
M 628 4666 
L 2053 4666 
Q 2838 4666 3239 4311 
Q 3641 3956 3641 3272 
Q 3641 2581 3239 2228 
Q 2838 1875 2053 1875 
L 1259 1875 
L 1259 0 
L 628 0 
L 628 4666 
z
" transform="scale(0.015625)"/>
        <path id="DejaVuSans-69" d="M 603 3500 
L 1178 3500 
L 1178 0 
L 603 0 
L 603 3500 
z
M 603 4863 
L 1178 4863 
L 1178 4134 
L 603 4134 
L 603 4863 
z
" transform="scale(0.015625)"/>
        <path id="DejaVuSans-74" d="M 1172 4494 
L 1172 3500 
L 2356 3500 
L 2356 3053 
L 1172 3053 
L 1172 1153 
Q 1172 725 1289 603 
Q 1406 481 1766 481 
L 2356 481 
L 2356 0 
L 1766 0 
Q 1100 0 847 248 
Q 594 497 594 1153 
L 594 3053 
L 172 3053 
L 172 3500 
L 594 3500 
L 594 4494 
L 1172 4494 
z
" transform="scale(0.015625)"/>
        <path id="DejaVuSans-63" d="M 3122 3366 
L 3122 2828 
Q 2878 2963 2633 3030 
Q 2388 3097 2138 3097 
Q 1578 3097 1268 2742 
Q 959 2388 959 1747 
Q 959 1106 1268 751 
Q 1578 397 2138 397 
Q 2388 397 2633 464 
Q 2878 531 3122 666 
L 3122 134 
Q 2881 22 2623 -34 
Q 2366 -91 2075 -91 
Q 1284 -91 818 406 
Q 353 903 353 1747 
Q 353 2603 823 3093 
Q 1294 3584 2113 3584 
Q 2378 3584 2631 3529 
Q 2884 3475 3122 3366 
z
" transform="scale(0.015625)"/>
        <path id="DejaVuSans-68" d="M 3513 2113 
L 3513 0 
L 2938 0 
L 2938 2094 
Q 2938 2591 2744 2837 
Q 2550 3084 2163 3084 
Q 1697 3084 1428 2787 
Q 1159 2491 1159 1978 
L 1159 0 
L 581 0 
L 581 4863 
L 1159 4863 
L 1159 2956 
Q 1366 3272 1645 3428 
Q 1925 3584 2291 3584 
Q 2894 3584 3203 3211 
Q 3513 2838 3513 2113 
z
" transform="scale(0.015625)"/>
        <path id="DejaVuSans-20" transform="scale(0.015625)"/>
        <path id="DejaVuSans-76" d="M 191 3500 
L 800 3500 
L 1894 563 
L 2988 3500 
L 3597 3500 
L 2284 0 
L 1503 0 
L 191 3500 
z
" transform="scale(0.015625)"/>
        <path id="DejaVuSans-61" d="M 2194 1759 
Q 1497 1759 1228 1600 
Q 959 1441 959 1056 
Q 959 750 1161 570 
Q 1363 391 1709 391 
Q 2188 391 2477 730 
Q 2766 1069 2766 1631 
L 2766 1759 
L 2194 1759 
z
M 3341 1997 
L 3341 0 
L 2766 0 
L 2766 531 
Q 2569 213 2275 61 
Q 1981 -91 1556 -91 
Q 1019 -91 701 211 
Q 384 513 384 1019 
Q 384 1609 779 1909 
Q 1175 2209 1959 2209 
L 2766 2209 
L 2766 2266 
Q 2766 2663 2505 2880 
Q 2244 3097 1772 3097 
Q 1472 3097 1187 3025 
Q 903 2953 641 2809 
L 641 3341 
Q 956 3463 1253 3523 
Q 1550 3584 1831 3584 
Q 2591 3584 2966 3190 
Q 3341 2797 3341 1997 
z
" transform="scale(0.015625)"/>
        <path id="DejaVuSans-72" d="M 2631 2963 
Q 2534 3019 2420 3045 
Q 2306 3072 2169 3072 
Q 1681 3072 1420 2755 
Q 1159 2438 1159 1844 
L 1159 0 
L 581 0 
L 581 3500 
L 1159 3500 
L 1159 2956 
Q 1341 3275 1631 3429 
Q 1922 3584 2338 3584 
Q 2397 3584 2469 3576 
Q 2541 3569 2628 3553 
L 2631 2963 
z
" transform="scale(0.015625)"/>
        <path id="DejaVuSans-62" d="M 3116 1747 
Q 3116 2381 2855 2742 
Q 2594 3103 2138 3103 
Q 1681 3103 1420 2742 
Q 1159 2381 1159 1747 
Q 1159 1113 1420 752 
Q 1681 391 2138 391 
Q 2594 391 2855 752 
Q 3116 1113 3116 1747 
z
M 1159 2969 
Q 1341 3281 1617 3432 
Q 1894 3584 2278 3584 
Q 2916 3584 3314 3078 
Q 3713 2572 3713 1747 
Q 3713 922 3314 415 
Q 2916 -91 2278 -91 
Q 1894 -91 1617 61 
Q 1341 213 1159 525 
L 1159 0 
L 581 0 
L 581 4863 
L 1159 4863 
L 1159 2969 
z
" transform="scale(0.015625)"/>
        <path id="DejaVuSans-6c" d="M 603 4863 
L 1178 4863 
L 1178 0 
L 603 0 
L 603 4863 
z
" transform="scale(0.015625)"/>
        <path id="DejaVuSans-79" d="M 2059 -325 
Q 1816 -950 1584 -1140 
Q 1353 -1331 966 -1331 
L 506 -1331 
L 506 -850 
L 844 -850 
Q 1081 -850 1212 -737 
Q 1344 -625 1503 -206 
L 1606 56 
L 191 3500 
L 800 3500 
L 1894 763 
L 2988 3500 
L 3597 3500 
L 2059 -325 
z
" transform="scale(0.015625)"/>
       </defs>
       <use xlink:href="#DejaVuSans-50"/>
       <use xlink:href="#DejaVuSans-69" transform="translate(58.052734 0)"/>
       <use xlink:href="#DejaVuSans-74" transform="translate(85.835938 0)"/>
       <use xlink:href="#DejaVuSans-63" transform="translate(125.044922 0)"/>
       <use xlink:href="#DejaVuSans-68" transform="translate(180.025391 0)"/>
       <use xlink:href="#DejaVuSans-20" transform="translate(243.404297 0)"/>
       <use xlink:href="#DejaVuSans-76" transform="translate(275.191406 0)"/>
       <use xlink:href="#DejaVuSans-61" transform="translate(334.371094 0)"/>
       <use xlink:href="#DejaVuSans-72" transform="translate(395.650391 0)"/>
       <use xlink:href="#DejaVuSans-69" transform="translate(436.763672 0)"/>
       <use xlink:href="#DejaVuSans-61" transform="translate(464.546875 0)"/>
       <use xlink:href="#DejaVuSans-62" transform="translate(525.826172 0)"/>
       <use xlink:href="#DejaVuSans-69" transform="translate(589.302734 0)"/>
       <use xlink:href="#DejaVuSans-6c" transform="translate(617.085938 0)"/>
       <use xlink:href="#DejaVuSans-69" transform="translate(644.869141 0)"/>
       <use xlink:href="#DejaVuSans-74" transform="translate(672.652344 0)"/>
       <use xlink:href="#DejaVuSans-79" transform="translate(711.861328 0)"/>
      </g>
     </g>
    </g>
   </g>
   <g id="matplotlib.axis_2">
    <g id="ytick_1">
     <g id="line2d_3">
      <path d="M 43.81125 304.560133 
L 218.53125 304.560133 
" clip-path="url(#p20befb1ba3)" style="fill: none; stroke: #b0b0b0; stroke-opacity: 0.2; stroke-width: 0.6; stroke-linecap: square"/>
     </g>
     <g id="line2d_4">
      <defs>
       <path id="m950438b953" d="M 0 0 
L -3.5 0 
" style="stroke: #000000; stroke-width: 0.8"/>
      </defs>
      <g>
       <use xlink:href="#m950438b953" x="43.81125" y="304.560133" style="stroke: #000000; stroke-width: 0.8"/>
      </g>
     </g>
     <g id="text_2">
      <!-- 5 -->
      <g transform="translate(29.8125 308.739273) scale(0.11 -0.11)">
       <defs>
        <path id="DejaVuSans-35" d="M 691 4666 
L 3169 4666 
L 3169 4134 
L 1269 4134 
L 1269 2991 
Q 1406 3038 1543 3061 
Q 1681 3084 1819 3084 
Q 2600 3084 3056 2656 
Q 3513 2228 3513 1497 
Q 3513 744 3044 326 
Q 2575 -91 1722 -91 
Q 1428 -91 1123 -41 
Q 819 9 494 109 
L 494 744 
Q 775 591 1075 516 
Q 1375 441 1709 441 
Q 2250 441 2565 725 
Q 2881 1009 2881 1497 
Q 2881 1984 2565 2268 
Q 2250 2553 1709 2553 
Q 1456 2553 1204 2497 
Q 953 2441 691 2322 
L 691 4666 
z
" transform="scale(0.015625)"/>
       </defs>
       <use xlink:href="#DejaVuSans-35"/>
      </g>
     </g>
    </g>
    <g id="ytick_2">
     <g id="line2d_5">
      <path d="M 43.81125 264.822802 
L 218.53125 264.822802 
" clip-path="url(#p20befb1ba3)" style="fill: none; stroke: #b0b0b0; stroke-opacity: 0.2; stroke-width: 0.6; stroke-linecap: square"/>
     </g>
     <g id="line2d_6">
      <g>
       <use xlink:href="#m950438b953" x="43.81125" y="264.822802" style="stroke: #000000; stroke-width: 0.8"/>
      </g>
     </g>
     <g id="text_3">
      <!-- 10 -->
      <g transform="translate(22.81375 269.001943) scale(0.11 -0.11)">
       <defs>
        <path id="DejaVuSans-31" d="M 794 531 
L 1825 531 
L 1825 4091 
L 703 3866 
L 703 4441 
L 1819 4666 
L 2450 4666 
L 2450 531 
L 3481 531 
L 3481 0 
L 794 0 
L 794 531 
z
" transform="scale(0.015625)"/>
        <path id="DejaVuSans-30" d="M 2034 4250 
Q 1547 4250 1301 3770 
Q 1056 3291 1056 2328 
Q 1056 1369 1301 889 
Q 1547 409 2034 409 
Q 2525 409 2770 889 
Q 3016 1369 3016 2328 
Q 3016 3291 2770 3770 
Q 2525 4250 2034 4250 
z
M 2034 4750 
Q 2819 4750 3233 4129 
Q 3647 3509 3647 2328 
Q 3647 1150 3233 529 
Q 2819 -91 2034 -91 
Q 1250 -91 836 529 
Q 422 1150 422 2328 
Q 422 3509 836 4129 
Q 1250 4750 2034 4750 
z
" transform="scale(0.015625)"/>
       </defs>
       <use xlink:href="#DejaVuSans-31"/>
       <use xlink:href="#DejaVuSans-30" transform="translate(63.623047 0)"/>
      </g>
     </g>
    </g>
    <g id="ytick_3">
     <g id="line2d_7">
      <path d="M 43.81125 225.085471 
L 218.53125 225.085471 
" clip-path="url(#p20befb1ba3)" style="fill: none; stroke: #b0b0b0; stroke-opacity: 0.2; stroke-width: 0.6; stroke-linecap: square"/>
     </g>
     <g id="line2d_8">
      <g>
       <use xlink:href="#m950438b953" x="43.81125" y="225.085471" style="stroke: #000000; stroke-width: 0.8"/>
      </g>
     </g>
     <g id="text_4">
      <!-- 15 -->
      <g transform="translate(22.81375 229.264612) scale(0.11 -0.11)">
       <use xlink:href="#DejaVuSans-31"/>
       <use xlink:href="#DejaVuSans-35" transform="translate(63.623047 0)"/>
      </g>
     </g>
    </g>
    <g id="ytick_4">
     <g id="line2d_9">
      <path d="M 43.81125 185.34814 
L 218.53125 185.34814 
" clip-path="url(#p20befb1ba3)" style="fill: none; stroke: #b0b0b0; stroke-opacity: 0.2; stroke-width: 0.6; stroke-linecap: square"/>
     </g>
     <g id="line2d_10">
      <g>
       <use xlink:href="#m950438b953" x="43.81125" y="185.34814" style="stroke: #000000; stroke-width: 0.8"/>
      </g>
     </g>
     <g id="text_5">
      <!-- 20 -->
      <g transform="translate(22.81375 189.527281) scale(0.11 -0.11)">
       <defs>
        <path id="DejaVuSans-32" d="M 1228 531 
L 3431 531 
L 3431 0 
L 469 0 
L 469 531 
Q 828 903 1448 1529 
Q 2069 2156 2228 2338 
Q 2531 2678 2651 2914 
Q 2772 3150 2772 3378 
Q 2772 3750 2511 3984 
Q 2250 4219 1831 4219 
Q 1534 4219 1204 4116 
Q 875 4013 500 3803 
L 500 4441 
Q 881 4594 1212 4672 
Q 1544 4750 1819 4750 
Q 2544 4750 2975 4387 
Q 3406 4025 3406 3419 
Q 3406 3131 3298 2873 
Q 3191 2616 2906 2266 
Q 2828 2175 2409 1742 
Q 1991 1309 1228 531 
z
" transform="scale(0.015625)"/>
       </defs>
       <use xlink:href="#DejaVuSans-32"/>
       <use xlink:href="#DejaVuSans-30" transform="translate(63.623047 0)"/>
      </g>
     </g>
    </g>
    <g id="ytick_5">
     <g id="line2d_11">
      <path d="M 43.81125 145.61081 
L 218.53125 145.61081 
" clip-path="url(#p20befb1ba3)" style="fill: none; stroke: #b0b0b0; stroke-opacity: 0.2; stroke-width: 0.6; stroke-linecap: square"/>
     </g>
     <g id="line2d_12">
      <g>
       <use xlink:href="#m950438b953" x="43.81125" y="145.61081" style="stroke: #000000; stroke-width: 0.8"/>
      </g>
     </g>
     <g id="text_6">
      <!-- 25 -->
      <g transform="translate(22.81375 149.78995) scale(0.11 -0.11)">
       <use xlink:href="#DejaVuSans-32"/>
       <use xlink:href="#DejaVuSans-35" transform="translate(63.623047 0)"/>
      </g>
     </g>
    </g>
    <g id="ytick_6">
     <g id="line2d_13">
      <path d="M 43.81125 105.873479 
L 218.53125 105.873479 
" clip-path="url(#p20befb1ba3)" style="fill: none; stroke: #b0b0b0; stroke-opacity: 0.2; stroke-width: 0.6; stroke-linecap: square"/>
     </g>
     <g id="line2d_14">
      <g>
       <use xlink:href="#m950438b953" x="43.81125" y="105.873479" style="stroke: #000000; stroke-width: 0.8"/>
      </g>
     </g>
     <g id="text_7">
      <!-- 30 -->
      <g transform="translate(22.81375 110.052619) scale(0.11 -0.11)">
       <defs>
        <path id="DejaVuSans-33" d="M 2597 2516 
Q 3050 2419 3304 2112 
Q 3559 1806 3559 1356 
Q 3559 666 3084 287 
Q 2609 -91 1734 -91 
Q 1441 -91 1130 -33 
Q 819 25 488 141 
L 488 750 
Q 750 597 1062 519 
Q 1375 441 1716 441 
Q 2309 441 2620 675 
Q 2931 909 2931 1356 
Q 2931 1769 2642 2001 
Q 2353 2234 1838 2234 
L 1294 2234 
L 1294 2753 
L 1863 2753 
Q 2328 2753 2575 2939 
Q 2822 3125 2822 3475 
Q 2822 3834 2567 4026 
Q 2313 4219 1838 4219 
Q 1578 4219 1281 4162 
Q 984 4106 628 3988 
L 628 4550 
Q 988 4650 1302 4700 
Q 1616 4750 1894 4750 
Q 2613 4750 3031 4423 
Q 3450 4097 3450 3541 
Q 3450 3153 3228 2886 
Q 3006 2619 2597 2516 
z
" transform="scale(0.015625)"/>
       </defs>
       <use xlink:href="#DejaVuSans-33"/>
       <use xlink:href="#DejaVuSans-30" transform="translate(63.623047 0)"/>
      </g>
     </g>
    </g>
    <g id="ytick_7">
     <g id="line2d_15">
      <path d="M 43.81125 66.136148 
L 218.53125 66.136148 
" clip-path="url(#p20befb1ba3)" style="fill: none; stroke: #b0b0b0; stroke-opacity: 0.2; stroke-width: 0.6; stroke-linecap: square"/>
     </g>
     <g id="line2d_16">
      <g>
       <use xlink:href="#m950438b953" x="43.81125" y="66.136148" style="stroke: #000000; stroke-width: 0.8"/>
      </g>
     </g>
     <g id="text_8">
      <!-- 35 -->
      <g transform="translate(22.81375 70.315288) scale(0.11 -0.11)">
       <use xlink:href="#DejaVuSans-33"/>
       <use xlink:href="#DejaVuSans-35" transform="translate(63.623047 0)"/>
      </g>
     </g>
    </g>
    <g id="text_9">
     <!-- semitones -->
     <g transform="translate(16.318125 217.555376) rotate(-90) scale(0.12 -0.12)">
      <defs>
       <path id="DejaVuSans-73" d="M 2834 3397 
L 2834 2853 
Q 2591 2978 2328 3040 
Q 2066 3103 1784 3103 
Q 1356 3103 1142 2972 
Q 928 2841 928 2578 
Q 928 2378 1081 2264 
Q 1234 2150 1697 2047 
L 1894 2003 
Q 2506 1872 2764 1633 
Q 3022 1394 3022 966 
Q 3022 478 2636 193 
Q 2250 -91 1575 -91 
Q 1294 -91 989 -36 
Q 684 19 347 128 
L 347 722 
Q 666 556 975 473 
Q 1284 391 1588 391 
Q 1994 391 2212 530 
Q 2431 669 2431 922 
Q 2431 1156 2273 1281 
Q 2116 1406 1581 1522 
L 1381 1569 
Q 847 1681 609 1914 
Q 372 2147 372 2553 
Q 372 3047 722 3315 
Q 1072 3584 1716 3584 
Q 2034 3584 2315 3537 
Q 2597 3491 2834 3397 
z
" transform="scale(0.015625)"/>
       <path id="DejaVuSans-65" d="M 3597 1894 
L 3597 1613 
L 953 1613 
Q 991 1019 1311 708 
Q 1631 397 2203 397 
Q 2534 397 2845 478 
Q 3156 559 3463 722 
L 3463 178 
Q 3153 47 2828 -22 
Q 2503 -91 2169 -91 
Q 1331 -91 842 396 
Q 353 884 353 1716 
Q 353 2575 817 3079 
Q 1281 3584 2069 3584 
Q 2775 3584 3186 3129 
Q 3597 2675 3597 1894 
z
M 3022 2063 
Q 3016 2534 2758 2815 
Q 2500 3097 2075 3097 
Q 1594 3097 1305 2825 
Q 1016 2553 972 2059 
L 3022 2063 
z
" transform="scale(0.015625)"/>
       <path id="DejaVuSans-6d" d="M 3328 2828 
Q 3544 3216 3844 3400 
Q 4144 3584 4550 3584 
Q 5097 3584 5394 3201 
Q 5691 2819 5691 2113 
L 5691 0 
L 5113 0 
L 5113 2094 
Q 5113 2597 4934 2840 
Q 4756 3084 4391 3084 
Q 3944 3084 3684 2787 
Q 3425 2491 3425 1978 
L 3425 0 
L 2847 0 
L 2847 2094 
Q 2847 2600 2669 2842 
Q 2491 3084 2119 3084 
Q 1678 3084 1418 2786 
Q 1159 2488 1159 1978 
L 1159 0 
L 581 0 
L 581 3500 
L 1159 3500 
L 1159 2956 
Q 1356 3278 1631 3431 
Q 1906 3584 2284 3584 
Q 2666 3584 2933 3390 
Q 3200 3197 3328 2828 
z
" transform="scale(0.015625)"/>
       <path id="DejaVuSans-6f" d="M 1959 3097 
Q 1497 3097 1228 2736 
Q 959 2375 959 1747 
Q 959 1119 1226 758 
Q 1494 397 1959 397 
Q 2419 397 2687 759 
Q 2956 1122 2956 1747 
Q 2956 2369 2687 2733 
Q 2419 3097 1959 3097 
z
M 1959 3584 
Q 2709 3584 3137 3096 
Q 3566 2609 3566 1747 
Q 3566 888 3137 398 
Q 2709 -91 1959 -91 
Q 1206 -91 779 398 
Q 353 888 353 1747 
Q 353 2609 779 3096 
Q 1206 3584 1959 3584 
z
" transform="scale(0.015625)"/>
       <path id="DejaVuSans-6e" d="M 3513 2113 
L 3513 0 
L 2938 0 
L 2938 2094 
Q 2938 2591 2744 2837 
Q 2550 3084 2163 3084 
Q 1697 3084 1428 2787 
Q 1159 2491 1159 1978 
L 1159 0 
L 581 0 
L 581 3500 
L 1159 3500 
L 1159 2956 
Q 1366 3272 1645 3428 
Q 1925 3584 2291 3584 
Q 2894 3584 3203 3211 
Q 3513 2838 3513 2113 
z
" transform="scale(0.015625)"/>
      </defs>
      <use xlink:href="#DejaVuSans-73"/>
      <use xlink:href="#DejaVuSans-65" transform="translate(52.099609 0)"/>
      <use xlink:href="#DejaVuSans-6d" transform="translate(113.623047 0)"/>
      <use xlink:href="#DejaVuSans-69" transform="translate(211.035156 0)"/>
      <use xlink:href="#DejaVuSans-74" transform="translate(238.818359 0)"/>
      <use xlink:href="#DejaVuSans-6f" transform="translate(278.027344 0)"/>
      <use xlink:href="#DejaVuSans-6e" transform="translate(339.208984 0)"/>
      <use xlink:href="#DejaVuSans-65" transform="translate(402.587891 0)"/>
      <use xlink:href="#DejaVuSans-73" transform="translate(464.111328 0)"/>
     </g>
    </g>
   </g>
   <g id="FillBetweenPolyCollection_1">
    <defs>
     <path id="m3d2dc1fdde" d="M 161.078143 -66.737983 
L 101.264357 -66.737983 
L 96.420102 -69.529961 
L 91.343082 -72.321939 
L 86.136637 -75.113916 
L 80.919242 -77.905894 
L 75.818674 -80.697872 
L 70.964823 -83.48985 
L 66.481766 -86.281827 
L 62.479956 -89.073805 
L 59.049392 -91.865783 
L 56.25459 -94.657761 
L 54.13192 -97.449738 
L 52.689532 -100.241716 
L 51.909703 -103.033694 
L 51.753068 -105.825672 
L 52.163982 -108.617649 
L 53.076137 -111.409627 
L 54.417712 -114.201605 
L 56.11552 -116.993583 
L 58.097973 -119.78556 
L 60.296972 -122.577538 
L 62.649048 -125.369516 
L 65.096182 -128.161493 
L 67.586625 -130.953471 
L 70.075914 -133.745449 
L 72.527997 -136.537427 
L 74.916231 -139.329404 
L 77.223894 -142.121382 
L 79.443898 -144.91336 
L 81.577533 -147.705338 
L 83.632311 -150.497315 
L 85.619219 -153.289293 
L 87.549841 -156.081271 
L 89.433872 -158.873249 
L 91.277484 -161.665226 
L 93.082774 -164.457204 
L 94.848327 -167.249182 
L 96.570667 -170.04116 
L 98.246171 -172.833137 
L 99.872997 -175.625115 
L 101.452571 -178.417093 
L 102.990301 -181.209071 
L 104.495387 -184.001048 
L 105.979754 -186.793026 
L 107.456308 -189.585004 
L 108.936812 -192.376982 
L 110.429751 -195.168959 
L 111.938499 -197.960937 
L 113.460084 -200.752915 
L 114.984722 -203.544893 
L 116.496204 -206.33687 
L 117.973089 -209.128848 
L 119.390579 -211.920826 
L 120.722855 -214.712804 
L 121.945614 -217.504781 
L 123.038507 -220.296759 
L 123.98721 -223.088737 
L 124.784875 -225.880714 
L 125.432799 -228.672692 
L 125.940222 -231.46467 
L 126.323287 -234.256648 
L 126.603282 -237.048625 
L 126.804384 -239.840603 
L 126.951188 -242.632581 
L 127.066334 -245.424559 
L 127.16853 -248.216536 
L 127.271204 -251.008514 
L 127.381937 -253.800492 
L 127.502706 -256.59247 
L 127.630862 -259.384447 
L 127.760637 -262.176425 
L 127.884931 -264.968403 
L 127.997083 -267.760381 
L 128.092343 -270.552358 
L 128.168835 -273.344336 
L 128.227888 -276.136314 
L 128.273714 -278.928292 
L 128.312548 -281.720269 
L 128.351413 -284.512247 
L 128.396776 -287.304225 
L 128.453333 -290.096203 
L 128.52313 -292.88818 
L 128.605198 -295.680158 
L 128.695709 -298.472136 
L 128.788653 -301.264114 
L 128.876863 -304.056091 
L 128.953228 -306.848069 
L 129.011878 -309.640047 
L 129.049151 -312.432025 
L 129.0642 -315.224002 
L 129.059177 -318.01598 
L 129.038988 -320.807958 
L 129.010681 -323.599936 
L 128.982588 -326.391913 
L 128.963344 -329.183891 
L 128.960923 -331.975869 
L 128.981812 -334.767846 
L 129.030397 -337.559824 
L 129.108619 -340.351802 
L 129.215906 -343.14378 
L 133.126594 -343.14378 
L 133.126594 -343.14378 
L 133.233881 -340.351802 
L 133.312103 -337.559824 
L 133.360688 -334.767846 
L 133.381577 -331.975869 
L 133.379156 -329.183891 
L 133.359912 -326.391913 
L 133.331819 -323.599936 
L 133.303512 -320.807958 
L 133.283323 -318.01598 
L 133.2783 -315.224002 
L 133.293349 -312.432025 
L 133.330622 -309.640047 
L 133.389272 -306.848069 
L 133.465637 -304.056091 
L 133.553847 -301.264114 
L 133.646791 -298.472136 
L 133.737302 -295.680158 
L 133.81937 -292.88818 
L 133.889167 -290.096203 
L 133.945724 -287.304225 
L 133.991087 -284.512247 
L 134.029952 -281.720269 
L 134.068786 -278.928292 
L 134.114612 -276.136314 
L 134.173665 -273.344336 
L 134.250157 -270.552358 
L 134.345417 -267.760381 
L 134.457569 -264.968403 
L 134.581863 -262.176425 
L 134.711638 -259.384447 
L 134.839794 -256.59247 
L 134.960563 -253.800492 
L 135.071296 -251.008514 
L 135.17397 -248.216536 
L 135.276166 -245.424559 
L 135.391312 -242.632581 
L 135.538116 -239.840603 
L 135.739218 -237.048625 
L 136.019213 -234.256648 
L 136.402278 -231.46467 
L 136.909701 -228.672692 
L 137.557625 -225.880714 
L 138.35529 -223.088737 
L 139.303993 -220.296759 
L 140.396886 -217.504781 
L 141.619645 -214.712804 
L 142.951921 -211.920826 
L 144.369411 -209.128848 
L 145.846296 -206.33687 
L 147.357778 -203.544893 
L 148.882416 -200.752915 
L 150.404001 -197.960937 
L 151.912749 -195.168959 
L 153.405688 -192.376982 
L 154.886192 -189.585004 
L 156.362746 -186.793026 
L 157.847113 -184.001048 
L 159.352199 -181.209071 
L 160.889929 -178.417093 
L 162.469503 -175.625115 
L 164.096329 -172.833137 
L 165.771833 -170.04116 
L 167.494173 -167.249182 
L 169.259726 -164.457204 
L 171.065016 -161.665226 
L 172.908628 -158.873249 
L 174.792659 -156.081271 
L 176.723281 -153.289293 
L 178.710189 -150.497315 
L 180.764967 -147.705338 
L 182.898602 -144.91336 
L 185.118606 -142.121382 
L 187.426269 -139.329404 
L 189.814503 -136.537427 
L 192.266586 -133.745449 
L 194.755875 -130.953471 
L 197.246318 -128.161493 
L 199.693452 -125.369516 
L 202.045528 -122.577538 
L 204.244527 -119.78556 
L 206.22698 -116.993583 
L 207.924788 -114.201605 
L 209.266363 -111.409627 
L 210.178518 -108.617649 
L 210.589432 -105.825672 
L 210.432797 -103.033694 
L 209.652968 -100.241716 
L 208.21058 -97.449738 
L 206.08791 -94.657761 
L 203.293108 -91.865783 
L 199.862544 -89.073805 
L 195.860734 -86.281827 
L 191.377677 -83.48985 
L 186.523826 -80.697872 
L 181.423258 -77.905894 
L 176.205863 -75.113916 
L 170.999418 -72.321939 
L 165.922398 -69.529961 
L 161.078143 -66.737983 
z
" style="stroke: #c2410c; stroke-opacity: 0.35"/>
    </defs>
    <g clip-path="url(#p20befb1ba3)">
     <use xlink:href="#m3d2dc1fdde" x="0" y="391.52407" style="fill: #c2410c; fill-opacity: 0.35; stroke: #c2410c; stroke-opacity: 0.35"/>
    </g>
   </g>
   <g id="LineCollection_1">
    <path d="M 91.462159 272.696896 
L 170.880341 272.696896 
" clip-path="url(#p20befb1ba3)" style="fill: none; stroke: #c2410c; stroke-width: 1.5"/>
   </g>
   <g id="patch_3">
    <path d="M 43.81125 338.606376 
L 43.81125 34.56 
" style="fill: none; stroke: #000000; stroke-width: 0.8; stroke-linejoin: miter; stroke-linecap: square"/>
   </g>
   <g id="patch_4">
    <path d="M 218.53125 338.606376 
L 218.53125 34.56 
" style="fill: none; stroke: #000000; stroke-width: 0.8; stroke-linejoin: miter; stroke-linecap: square"/>
   </g>
   <g id="patch_5">
    <path d="M 43.81125 338.606376 
L 218.53125 338.606376 
" style="fill: none; stroke: #000000; stroke-width: 0.8; stroke-linejoin: miter; stroke-linecap: square"/>
   </g>
   <g id="patch_6">
    <path d="M 43.81125 34.56 
L 218.53125 34.56 
" style="fill: none; stroke: #000000; stroke-width: 0.8; stroke-linejoin: miter; stroke-linecap: square"/>
   </g>
   <g id="PathCollection_1">
    <defs>
     <path id="mbe400d40ba" d="M -0 4.472136 
L 4.472136 0 
L 0 -4.472136 
L -4.472136 -0 
z
" style="stroke: #111827"/>
    </defs>
    <g clip-path="url(#p20befb1ba3)">
     <use xlink:href="#mbe400d40ba" x="131.17125" y="312.392499" style="fill: #111827; stroke: #111827"/>
    </g>
   </g>
  </g>
  <g id="axes_2">
   <g id="patch_7">
    <path d="M 269.37125 338.606376 
L 444.09125 338.606376 
L 444.09125 34.56 
L 269.37125 34.56 
z
" style="fill: #ffffff"/>
   </g>
   <g id="matplotlib.axis_3">
    <g id="xtick_2">
     <g id="line2d_17">
      <path d="M 356.73125 338.606376 
L 356.73125 34.56 
" clip-path="url(#p0bb3360428)" style="fill: none; stroke: #b0b0b0; stroke-opacity: 0.2; stroke-width: 0.6; stroke-linecap: square"/>
     </g>
     <g id="line2d_18">
      <g>
       <use xlink:href="#mf555d6e7d6" x="356.73125" y="338.606376" style="stroke: #000000; stroke-width: 0.8"/>
      </g>
     </g>
     <g id="text_10">
      <!-- Loudness variability -->
      <g transform="translate(250.020135 382.114363) rotate(-15) scale(0.11 -0.11)">
       <defs>
        <path id="DejaVuSans-4c" d="M 628 4666 
L 1259 4666 
L 1259 531 
L 3531 531 
L 3531 0 
L 628 0 
L 628 4666 
z
" transform="scale(0.015625)"/>
        <path id="DejaVuSans-75" d="M 544 1381 
L 544 3500 
L 1119 3500 
L 1119 1403 
Q 1119 906 1312 657 
Q 1506 409 1894 409 
Q 2359 409 2629 706 
Q 2900 1003 2900 1516 
L 2900 3500 
L 3475 3500 
L 3475 0 
L 2900 0 
L 2900 538 
Q 2691 219 2414 64 
Q 2138 -91 1772 -91 
Q 1169 -91 856 284 
Q 544 659 544 1381 
z
M 1991 3584 
L 1991 3584 
z
" transform="scale(0.015625)"/>
        <path id="DejaVuSans-64" d="M 2906 2969 
L 2906 4863 
L 3481 4863 
L 3481 0 
L 2906 0 
L 2906 525 
Q 2725 213 2448 61 
Q 2172 -91 1784 -91 
Q 1150 -91 751 415 
Q 353 922 353 1747 
Q 353 2572 751 3078 
Q 1150 3584 1784 3584 
Q 2172 3584 2448 3432 
Q 2725 3281 2906 2969 
z
M 947 1747 
Q 947 1113 1208 752 
Q 1469 391 1925 391 
Q 2381 391 2643 752 
Q 2906 1113 2906 1747 
Q 2906 2381 2643 2742 
Q 2381 3103 1925 3103 
Q 1469 3103 1208 2742 
Q 947 2381 947 1747 
z
" transform="scale(0.015625)"/>
       </defs>
       <use xlink:href="#DejaVuSans-4c"/>
       <use xlink:href="#DejaVuSans-6f" transform="translate(53.962891 0)"/>
       <use xlink:href="#DejaVuSans-75" transform="translate(115.144531 0)"/>
       <use xlink:href="#DejaVuSans-64" transform="translate(178.523438 0)"/>
       <use xlink:href="#DejaVuSans-6e" transform="translate(242 0)"/>
       <use xlink:href="#DejaVuSans-65" transform="translate(305.378906 0)"/>
       <use xlink:href="#DejaVuSans-73" transform="translate(366.902344 0)"/>
       <use xlink:href="#DejaVuSans-73" transform="translate(419.001953 0)"/>
       <use xlink:href="#DejaVuSans-20" transform="translate(471.101562 0)"/>
       <use xlink:href="#DejaVuSans-76" transform="translate(502.888672 0)"/>
       <use xlink:href="#DejaVuSans-61" transform="translate(562.068359 0)"/>
       <use xlink:href="#DejaVuSans-72" transform="translate(623.347656 0)"/>
       <use xlink:href="#DejaVuSans-69" transform="translate(664.460938 0)"/>
       <use xlink:href="#DejaVuSans-61" transform="translate(692.244141 0)"/>
       <use xlink:href="#DejaVuSans-62" transform="translate(753.523438 0)"/>
       <use xlink:href="#DejaVuSans-69" transform="translate(817 0)"/>
       <use xlink:href="#DejaVuSans-6c" transform="translate(844.783203 0)"/>
       <use xlink:href="#DejaVuSans-69" transform="translate(872.566406 0)"/>
       <use xlink:href="#DejaVuSans-74" transform="translate(900.349609 0)"/>
       <use xlink:href="#DejaVuSans-79" transform="translate(939.558594 0)"/>
      </g>
     </g>
    </g>
   </g>
   <g id="matplotlib.axis_4">
    <g id="ytick_8">
     <g id="line2d_19">
      <path d="M 269.37125 335.138145 
L 444.09125 335.138145 
" clip-path="url(#p0bb3360428)" style="fill: none; stroke: #b0b0b0; stroke-opacity: 0.2; stroke-width: 0.6; stroke-linecap: square"/>
     </g>
     <g id="line2d_20">
      <g>
       <use xlink:href="#m950438b953" x="269.37125" y="335.138145" style="stroke: #000000; stroke-width: 0.8"/>
      </g>
     </g>
     <g id="text_11">
      <!-- 0.6 -->
      <g transform="translate(244.877813 339.317286) scale(0.11 -0.11)">
       <defs>
        <path id="DejaVuSans-2e" d="M 684 794 
L 1344 794 
L 1344 0 
L 684 0 
L 684 794 
z
" transform="scale(0.015625)"/>
        <path id="DejaVuSans-36" d="M 2113 2584 
Q 1688 2584 1439 2293 
Q 1191 2003 1191 1497 
Q 1191 994 1439 701 
Q 1688 409 2113 409 
Q 2538 409 2786 701 
Q 3034 994 3034 1497 
Q 3034 2003 2786 2293 
Q 2538 2584 2113 2584 
z
M 3366 4563 
L 3366 3988 
Q 3128 4100 2886 4159 
Q 2644 4219 2406 4219 
Q 1781 4219 1451 3797 
Q 1122 3375 1075 2522 
Q 1259 2794 1537 2939 
Q 1816 3084 2150 3084 
Q 2853 3084 3261 2657 
Q 3669 2231 3669 1497 
Q 3669 778 3244 343 
Q 2819 -91 2113 -91 
Q 1303 -91 875 529 
Q 447 1150 447 2328 
Q 447 3434 972 4092 
Q 1497 4750 2381 4750 
Q 2619 4750 2861 4703 
Q 3103 4656 3366 4563 
z
" transform="scale(0.015625)"/>
       </defs>
       <use xlink:href="#DejaVuSans-30"/>
       <use xlink:href="#DejaVuSans-2e" transform="translate(63.623047 0)"/>
       <use xlink:href="#DejaVuSans-36" transform="translate(95.410156 0)"/>
      </g>
     </g>
    </g>
    <g id="ytick_9">
     <g id="line2d_21">
      <path d="M 269.37125 297.203764 
L 444.09125 297.203764 
" clip-path="url(#p0bb3360428)" style="fill: none; stroke: #b0b0b0; stroke-opacity: 0.2; stroke-width: 0.6; stroke-linecap: square"/>
     </g>
     <g id="line2d_22">
      <g>
       <use xlink:href="#m950438b953" x="269.37125" y="297.203764" style="stroke: #000000; stroke-width: 0.8"/>
      </g>
     </g>
     <g id="text_12">
      <!-- 0.8 -->
      <g transform="translate(244.877813 301.382904) scale(0.11 -0.11)">
       <defs>
        <path id="DejaVuSans-38" d="M 2034 2216 
Q 1584 2216 1326 1975 
Q 1069 1734 1069 1313 
Q 1069 891 1326 650 
Q 1584 409 2034 409 
Q 2484 409 2743 651 
Q 3003 894 3003 1313 
Q 3003 1734 2745 1975 
Q 2488 2216 2034 2216 
z
M 1403 2484 
Q 997 2584 770 2862 
Q 544 3141 544 3541 
Q 544 4100 942 4425 
Q 1341 4750 2034 4750 
Q 2731 4750 3128 4425 
Q 3525 4100 3525 3541 
Q 3525 3141 3298 2862 
Q 3072 2584 2669 2484 
Q 3125 2378 3379 2068 
Q 3634 1759 3634 1313 
Q 3634 634 3220 271 
Q 2806 -91 2034 -91 
Q 1263 -91 848 271 
Q 434 634 434 1313 
Q 434 1759 690 2068 
Q 947 2378 1403 2484 
z
M 1172 3481 
Q 1172 3119 1398 2916 
Q 1625 2713 2034 2713 
Q 2441 2713 2670 2916 
Q 2900 3119 2900 3481 
Q 2900 3844 2670 4047 
Q 2441 4250 2034 4250 
Q 1625 4250 1398 4047 
Q 1172 3844 1172 3481 
z
" transform="scale(0.015625)"/>
       </defs>
       <use xlink:href="#DejaVuSans-30"/>
       <use xlink:href="#DejaVuSans-2e" transform="translate(63.623047 0)"/>
       <use xlink:href="#DejaVuSans-38" transform="translate(95.410156 0)"/>
      </g>
     </g>
    </g>
    <g id="ytick_10">
     <g id="line2d_23">
      <path d="M 269.37125 259.269383 
L 444.09125 259.269383 
" clip-path="url(#p0bb3360428)" style="fill: none; stroke: #b0b0b0; stroke-opacity: 0.2; stroke-width: 0.6; stroke-linecap: square"/>
     </g>
     <g id="line2d_24">
      <g>
       <use xlink:href="#m950438b953" x="269.37125" y="259.269383" style="stroke: #000000; stroke-width: 0.8"/>
      </g>
     </g>
     <g id="text_13">
      <!-- 1.0 -->
      <g transform="translate(244.877813 263.448523) scale(0.11 -0.11)">
       <use xlink:href="#DejaVuSans-31"/>
       <use xlink:href="#DejaVuSans-2e" transform="translate(63.623047 0)"/>
       <use xlink:href="#DejaVuSans-30" transform="translate(95.410156 0)"/>
      </g>
     </g>
    </g>
    <g id="ytick_11">
     <g id="line2d_25">
      <path d="M 269.37125 221.335001 
L 444.09125 221.335001 
" clip-path="url(#p0bb3360428)" style="fill: none; stroke: #b0b0b0; stroke-opacity: 0.2; stroke-width: 0.6; stroke-linecap: square"/>
     </g>
     <g id="line2d_26">
      <g>
       <use xlink:href="#m950438b953" x="269.37125" y="221.335001" style="stroke: #000000; stroke-width: 0.8"/>
      </g>
     </g>
     <g id="text_14">
      <!-- 1.2 -->
      <g transform="translate(244.877813 225.514142) scale(0.11 -0.11)">
       <use xlink:href="#DejaVuSans-31"/>
       <use xlink:href="#DejaVuSans-2e" transform="translate(63.623047 0)"/>
       <use xlink:href="#DejaVuSans-32" transform="translate(95.410156 0)"/>
      </g>
     </g>
    </g>
    <g id="ytick_12">
     <g id="line2d_27">
      <path d="M 269.37125 183.40062 
L 444.09125 183.40062 
" clip-path="url(#p0bb3360428)" style="fill: none; stroke: #b0b0b0; stroke-opacity: 0.2; stroke-width: 0.6; stroke-linecap: square"/>
     </g>
     <g id="line2d_28">
      <g>
       <use xlink:href="#m950438b953" x="269.37125" y="183.40062" style="stroke: #000000; stroke-width: 0.8"/>
      </g>
     </g>
     <g id="text_15">
      <!-- 1.4 -->
      <g transform="translate(244.877813 187.579761) scale(0.11 -0.11)">
       <defs>
        <path id="DejaVuSans-34" d="M 2419 4116 
L 825 1625 
L 2419 1625 
L 2419 4116 
z
M 2253 4666 
L 3047 4666 
L 3047 1625 
L 3713 1625 
L 3713 1100 
L 3047 1100 
L 3047 0 
L 2419 0 
L 2419 1100 
L 313 1100 
L 313 1709 
L 2253 4666 
z
" transform="scale(0.015625)"/>
       </defs>
       <use xlink:href="#DejaVuSans-31"/>
       <use xlink:href="#DejaVuSans-2e" transform="translate(63.623047 0)"/>
       <use xlink:href="#DejaVuSans-34" transform="translate(95.410156 0)"/>
      </g>
     </g>
    </g>
    <g id="ytick_13">
     <g id="line2d_29">
      <path d="M 269.37125 145.466239 
L 444.09125 145.466239 
" clip-path="url(#p0bb3360428)" style="fill: none; stroke: #b0b0b0; stroke-opacity: 0.2; stroke-width: 0.6; stroke-linecap: square"/>
     </g>
     <g id="line2d_30">
      <g>
       <use xlink:href="#m950438b953" x="269.37125" y="145.466239" style="stroke: #000000; stroke-width: 0.8"/>
      </g>
     </g>
     <g id="text_16">
      <!-- 1.6 -->
      <g transform="translate(244.877813 149.645379) scale(0.11 -0.11)">
       <use xlink:href="#DejaVuSans-31"/>
       <use xlink:href="#DejaVuSans-2e" transform="translate(63.623047 0)"/>
       <use xlink:href="#DejaVuSans-36" transform="translate(95.410156 0)"/>
      </g>
     </g>
    </g>
    <g id="ytick_14">
     <g id="line2d_31">
      <path d="M 269.37125 107.531857 
L 444.09125 107.531857 
" clip-path="url(#p0bb3360428)" style="fill: none; stroke: #b0b0b0; stroke-opacity: 0.2; stroke-width: 0.6; stroke-linecap: square"/>
     </g>
     <g id="line2d_32">
      <g>
       <use xlink:href="#m950438b953" x="269.37125" y="107.531857" style="stroke: #000000; stroke-width: 0.8"/>
      </g>
     </g>
     <g id="text_17">
      <!-- 1.8 -->
      <g transform="translate(244.877813 111.710998) scale(0.11 -0.11)">
       <use xlink:href="#DejaVuSans-31"/>
       <use xlink:href="#DejaVuSans-2e" transform="translate(63.623047 0)"/>
       <use xlink:href="#DejaVuSans-38" transform="translate(95.410156 0)"/>
      </g>
     </g>
    </g>
    <g id="ytick_15">
     <g id="line2d_33">
      <path d="M 269.37125 69.597476 
L 444.09125 69.597476 
" clip-path="url(#p0bb3360428)" style="fill: none; stroke: #b0b0b0; stroke-opacity: 0.2; stroke-width: 0.6; stroke-linecap: square"/>
     </g>
     <g id="line2d_34">
      <g>
       <use xlink:href="#m950438b953" x="269.37125" y="69.597476" style="stroke: #000000; stroke-width: 0.8"/>
      </g>
     </g>
     <g id="text_18">
      <!-- 2.0 -->
      <g transform="translate(244.877813 73.776617) scale(0.11 -0.11)">
       <use xlink:href="#DejaVuSans-32"/>
       <use xlink:href="#DejaVuSans-2e" transform="translate(63.623047 0)"/>
       <use xlink:href="#DejaVuSans-30" transform="translate(95.410156 0)"/>
      </g>
     </g>
    </g>
    <g id="text_19">
     <!-- normalized SD -->
     <g transform="translate(238.382188 230.259438) rotate(-90) scale(0.12 -0.12)">
      <defs>
       <path id="DejaVuSans-7a" d="M 353 3500 
L 3084 3500 
L 3084 2975 
L 922 459 
L 3084 459 
L 3084 0 
L 275 0 
L 275 525 
L 2438 3041 
L 353 3041 
L 353 3500 
z
" transform="scale(0.015625)"/>
       <path id="DejaVuSans-53" d="M 3425 4513 
L 3425 3897 
Q 3066 4069 2747 4153 
Q 2428 4238 2131 4238 
Q 1616 4238 1336 4038 
Q 1056 3838 1056 3469 
Q 1056 3159 1242 3001 
Q 1428 2844 1947 2747 
L 2328 2669 
Q 3034 2534 3370 2195 
Q 3706 1856 3706 1288 
Q 3706 609 3251 259 
Q 2797 -91 1919 -91 
Q 1588 -91 1214 -16 
Q 841 59 441 206 
L 441 856 
Q 825 641 1194 531 
Q 1563 422 1919 422 
Q 2459 422 2753 634 
Q 3047 847 3047 1241 
Q 3047 1584 2836 1778 
Q 2625 1972 2144 2069 
L 1759 2144 
Q 1053 2284 737 2584 
Q 422 2884 422 3419 
Q 422 4038 858 4394 
Q 1294 4750 2059 4750 
Q 2388 4750 2728 4690 
Q 3069 4631 3425 4513 
z
" transform="scale(0.015625)"/>
       <path id="DejaVuSans-44" d="M 1259 4147 
L 1259 519 
L 2022 519 
Q 2988 519 3436 956 
Q 3884 1394 3884 2338 
Q 3884 3275 3436 3711 
Q 2988 4147 2022 4147 
L 1259 4147 
z
M 628 4666 
L 1925 4666 
Q 3281 4666 3915 4102 
Q 4550 3538 4550 2338 
Q 4550 1131 3912 565 
Q 3275 0 1925 0 
L 628 0 
L 628 4666 
z
" transform="scale(0.015625)"/>
      </defs>
      <use xlink:href="#DejaVuSans-6e"/>
      <use xlink:href="#DejaVuSans-6f" transform="translate(63.378906 0)"/>
      <use xlink:href="#DejaVuSans-72" transform="translate(124.560547 0)"/>
      <use xlink:href="#DejaVuSans-6d" transform="translate(163.923828 0)"/>
      <use xlink:href="#DejaVuSans-61" transform="translate(261.335938 0)"/>
      <use xlink:href="#DejaVuSans-6c" transform="translate(322.615234 0)"/>
      <use xlink:href="#DejaVuSans-69" transform="translate(350.398438 0)"/>
      <use xlink:href="#DejaVuSans-7a" transform="translate(378.181641 0)"/>
      <use xlink:href="#DejaVuSans-65" transform="translate(430.671875 0)"/>
      <use xlink:href="#DejaVuSans-64" transform="translate(492.195312 0)"/>
      <use xlink:href="#DejaVuSans-20" transform="translate(555.671875 0)"/>
      <use xlink:href="#DejaVuSans-53" transform="translate(587.458984 0)"/>
      <use xlink:href="#DejaVuSans-44" transform="translate(650.935547 0)"/>
     </g>
    </g>
   </g>
   <g id="FillBetweenPolyCollection_2">
    <defs>
     <path id="mb880a290e9" d="M 371.437255 -66.737983 
L 342.025245 -66.737983 
L 339.12539 -69.529961 
L 335.91077 -72.321939 
L 332.39835 -75.113916 
L 328.62018 -77.905894 
L 324.625357 -80.697872 
L 320.480185 -83.48985 
L 316.26582 -86.281827 
L 312.073148 -89.073805 
L 307.995242 -91.865783 
L 304.11836 -94.657761 
L 300.512937 -97.449738 
L 297.226238 -100.241716 
L 294.278146 -103.033694 
L 291.661097 -105.825672 
L 289.344375 -108.617649 
L 287.28222 -111.409627 
L 285.424447 -114.201605 
L 283.727868 -116.993583 
L 282.166648 -119.78556 
L 280.739935 -122.577538 
L 279.475537 -125.369516 
L 278.428989 -128.161493 
L 277.678021 -130.953471 
L 277.313068 -133.745449 
L 277.42503 -136.537427 
L 278.09197 -139.329404 
L 279.366652 -142.121382 
L 281.266817 -144.91336 
L 283.769731 -147.705338 
L 286.811867 -150.497315 
L 290.293717 -153.289293 
L 294.088878 -156.081271 
L 298.055874 -158.873249 
L 302.0509 -161.665226 
L 305.939798 -164.457204 
L 309.608054 -167.249182 
L 312.968161 -170.04116 
L 315.964246 -172.833137 
L 318.574111 -175.625115 
L 320.808853 -178.417093 
L 322.710124 -181.209071 
L 324.344958 -184.001048 
L 325.798206 -186.793026 
L 327.162908 -189.585004 
L 328.529444 -192.376982 
L 329.974783 -195.168959 
L 331.553385 -197.960937 
L 333.291227 -200.752915 
L 335.183921 -203.544893 
L 337.199134 -206.33687 
L 339.282705 -209.128848 
L 341.367211 -211.920826 
L 343.381415 -214.712804 
L 345.259071 -217.504781 
L 346.945938 -220.296759 
L 348.404359 -223.088737 
L 349.615281 -225.880714 
L 350.577988 -228.672692 
L 351.308051 -231.46467 
L 351.834047 -234.256648 
L 352.19359 -237.048625 
L 352.429109 -239.840603 
L 352.583751 -242.632581 
L 352.697726 -245.424559 
L 352.805352 -248.216536 
L 352.932985 -251.008514 
L 353.097953 -253.800492 
L 353.308484 -256.59247 
L 353.56452 -259.384447 
L 353.859222 -262.176425 
L 354.180881 -264.968403 
L 354.514989 -267.760381 
L 354.84617 -270.552358 
L 355.159818 -273.344336 
L 355.44328 -276.136314 
L 355.686585 -278.928292 
L 355.882725 -281.720269 
L 356.027617 -284.512247 
L 356.119863 -287.304225 
L 356.160439 -290.096203 
L 356.152402 -292.88818 
L 356.10066 -295.680158 
L 356.011773 -298.472136 
L 355.893719 -301.264114 
L 355.755539 -304.056091 
L 355.606816 -306.848069 
L 355.456989 -309.640047 
L 355.31459 -312.432025 
L 355.186547 -315.224002 
L 355.077728 -318.01598 
L 354.990838 -320.807958 
L 354.926725 -323.599936 
L 354.885005 -326.391913 
L 354.864838 -329.183891 
L 354.865632 -331.975869 
L 354.887446 -334.767846 
L 354.93099 -337.559824 
L 354.997222 -340.351802 
L 355.086672 -343.14378 
L 358.375828 -343.14378 
L 358.375828 -343.14378 
L 358.465278 -340.351802 
L 358.53151 -337.559824 
L 358.575054 -334.767846 
L 358.596868 -331.975869 
L 358.597662 -329.183891 
L 358.577495 -326.391913 
L 358.535775 -323.599936 
L 358.471662 -320.807958 
L 358.384772 -318.01598 
L 358.275953 -315.224002 
L 358.14791 -312.432025 
L 358.005511 -309.640047 
L 357.855684 -306.848069 
L 357.706961 -304.056091 
L 357.568781 -301.264114 
L 357.450727 -298.472136 
L 357.36184 -295.680158 
L 357.310098 -292.88818 
L 357.302061 -290.096203 
L 357.342637 -287.304225 
L 357.434883 -284.512247 
L 357.579775 -281.720269 
L 357.775915 -278.928292 
L 358.01922 -276.136314 
L 358.302682 -273.344336 
L 358.61633 -270.552358 
L 358.947511 -267.760381 
L 359.281619 -264.968403 
L 359.603278 -262.176425 
L 359.89798 -259.384447 
L 360.154016 -256.59247 
L 360.364547 -253.800492 
L 360.529515 -251.008514 
L 360.657148 -248.216536 
L 360.764774 -245.424559 
L 360.878749 -242.632581 
L 361.033391 -239.840603 
L 361.26891 -237.048625 
L 361.628453 -234.256648 
L 362.154449 -231.46467 
L 362.884512 -228.672692 
L 363.847219 -225.880714 
L 365.058141 -223.088737 
L 366.516562 -220.296759 
L 368.203429 -217.504781 
L 370.081085 -214.712804 
L 372.095289 -211.920826 
L 374.179795 -209.128848 
L 376.263366 -206.33687 
L 378.278579 -203.544893 
L 380.171273 -200.752915 
L 381.909115 -197.960937 
L 383.487717 -195.168959 
L 384.933056 -192.376982 
L 386.299592 -189.585004 
L 387.664294 -186.793026 
L 389.117542 -184.001048 
L 390.752376 -181.209071 
L 392.653647 -178.417093 
L 394.888389 -175.625115 
L 397.498254 -172.833137 
L 400.494339 -170.04116 
L 403.854446 -167.249182 
L 407.522702 -164.457204 
L 411.4116 -161.665226 
L 415.406626 -158.873249 
L 419.373622 -156.081271 
L 423.168783 -153.289293 
L 426.650633 -150.497315 
L 429.692769 -147.705338 
L 432.195683 -144.91336 
L 434.095848 -142.121382 
L 435.37053 -139.329404 
L 436.03747 -136.537427 
L 436.149432 -133.745449 
L 435.784479 -130.953471 
L 435.033511 -128.161493 
L 433.986963 -125.369516 
L 432.722565 -122.577538 
L 431.295852 -119.78556 
L 429.734632 -116.993583 
L 428.038053 -114.201605 
L 426.18028 -111.409627 
L 424.118125 -108.617649 
L 421.801403 -105.825672 
L 419.184354 -103.033694 
L 416.236262 -100.241716 
L 412.949563 -97.449738 
L 409.34414 -94.657761 
L 405.467258 -91.865783 
L 401.389352 -89.073805 
L 397.19668 -86.281827 
L 392.982315 -83.48985 
L 388.837143 -80.697872 
L 384.84232 -77.905894 
L 381.06415 -75.113916 
L 377.55173 -72.321939 
L 374.33711 -69.529961 
L 371.437255 -66.737983 
z
" style="stroke: #c2410c; stroke-opacity: 0.35"/>
    </defs>
    <g clip-path="url(#p0bb3360428)">
     <use xlink:href="#mb880a290e9" x="0" y="391.52407" style="fill: #c2410c; fill-opacity: 0.35; stroke: #c2410c; stroke-opacity: 0.35"/>
    </g>
   </g>
   <g id="LineCollection_2">
    <path d="M 317.022159 255.645913 
L 396.440341 255.645913 
" clip-path="url(#p0bb3360428)" style="fill: none; stroke: #c2410c; stroke-width: 1.5"/>
   </g>
   <g id="patch_8">
    <path d="M 269.37125 338.606376 
L 269.37125 34.56 
" style="fill: none; stroke: #000000; stroke-width: 0.8; stroke-linejoin: miter; stroke-linecap: square"/>
   </g>
   <g id="patch_9">
    <path d="M 444.09125 338.606376 
L 444.09125 34.56 
" style="fill: none; stroke: #000000; stroke-width: 0.8; stroke-linejoin: miter; stroke-linecap: square"/>
   </g>
   <g id="patch_10">
    <path d="M 269.37125 338.606376 
L 444.09125 338.606376 
" style="fill: none; stroke: #000000; stroke-width: 0.8; stroke-linejoin: miter; stroke-linecap: square"/>
   </g>
   <g id="patch_11">
    <path d="M 269.37125 34.56 
L 444.09125 34.56 
" style="fill: none; stroke: #000000; stroke-width: 0.8; stroke-linejoin: miter; stroke-linecap: square"/>
   </g>
   <g id="PathCollection_2">
    <g clip-path="url(#p0bb3360428)">
     <use xlink:href="#mbe400d40ba" x="356.73125" y="199.430495" style="fill: #111827; stroke: #111827"/>
    </g>
   </g>
  </g>
  <g id="axes_3">
   <g id="patch_12">
    <path d="M 494.93125 338.606376 
L 669.65125 338.606376 
L 669.65125 34.56 
L 494.93125 34.56 
z
" style="fill: #ffffff"/>
   </g>
   <g id="matplotlib.axis_5">
    <g id="xtick_3">
     <g id="line2d_35">
      <path d="M 582.29125 338.606376 
L 582.29125 34.56 
" clip-path="url(#p81cadb6cd8)" style="fill: none; stroke: #b0b0b0; stroke-opacity: 0.2; stroke-width: 0.6; stroke-linecap: square"/>
     </g>
     <g id="line2d_36">
      <g>
       <use xlink:href="#mf555d6e7d6" x="582.29125" y="338.606376" style="stroke: #000000; stroke-width: 0.8"/>
      </g>
     </g>
     <g id="text_20">
      <!-- Speech rate -->
      <g transform="translate(517.597757 370.855775) rotate(-15) scale(0.11 -0.11)">
       <defs>
        <path id="DejaVuSans-70" d="M 1159 525 
L 1159 -1331 
L 581 -1331 
L 581 3500 
L 1159 3500 
L 1159 2969 
Q 1341 3281 1617 3432 
Q 1894 3584 2278 3584 
Q 2916 3584 3314 3078 
Q 3713 2572 3713 1747 
Q 3713 922 3314 415 
Q 2916 -91 2278 -91 
Q 1894 -91 1617 61 
Q 1341 213 1159 525 
z
M 3116 1747 
Q 3116 2381 2855 2742 
Q 2594 3103 2138 3103 
Q 1681 3103 1420 2742 
Q 1159 2381 1159 1747 
Q 1159 1113 1420 752 
Q 1681 391 2138 391 
Q 2594 391 2855 752 
Q 3116 1113 3116 1747 
z
" transform="scale(0.015625)"/>
       </defs>
       <use xlink:href="#DejaVuSans-53"/>
       <use xlink:href="#DejaVuSans-70" transform="translate(63.476562 0)"/>
       <use xlink:href="#DejaVuSans-65" transform="translate(126.953125 0)"/>
       <use xlink:href="#DejaVuSans-65" transform="translate(188.476562 0)"/>
       <use xlink:href="#DejaVuSans-63" transform="translate(250 0)"/>
       <use xlink:href="#DejaVuSans-68" transform="translate(304.980469 0)"/>
       <use xlink:href="#DejaVuSans-20" transform="translate(368.359375 0)"/>
       <use xlink:href="#DejaVuSans-72" transform="translate(400.146484 0)"/>
       <use xlink:href="#DejaVuSans-61" transform="translate(441.259766 0)"/>
       <use xlink:href="#DejaVuSans-74" transform="translate(502.539062 0)"/>
       <use xlink:href="#DejaVuSans-65" transform="translate(541.748047 0)"/>
      </g>
     </g>
    </g>
   </g>
   <g id="matplotlib.axis_6">
    <g id="ytick_16">
     <g id="line2d_37">
      <path d="M 494.93125 293.990144 
L 669.65125 293.990144 
" clip-path="url(#p81cadb6cd8)" style="fill: none; stroke: #b0b0b0; stroke-opacity: 0.2; stroke-width: 0.6; stroke-linecap: square"/>
     </g>
     <g id="line2d_38">
      <g>
       <use xlink:href="#m950438b953" x="494.93125" y="293.990144" style="stroke: #000000; stroke-width: 0.8"/>
      </g>
     </g>
     <g id="text_21">
      <!-- 1 -->
      <g transform="translate(480.9325 298.169284) scale(0.11 -0.11)">
       <use xlink:href="#DejaVuSans-31"/>
      </g>
     </g>
    </g>
    <g id="ytick_17">
     <g id="line2d_39">
      <path d="M 494.93125 233.837983 
L 669.65125 233.837983 
" clip-path="url(#p81cadb6cd8)" style="fill: none; stroke: #b0b0b0; stroke-opacity: 0.2; stroke-width: 0.6; stroke-linecap: square"/>
     </g>
     <g id="line2d_40">
      <g>
       <use xlink:href="#m950438b953" x="494.93125" y="233.837983" style="stroke: #000000; stroke-width: 0.8"/>
      </g>
     </g>
     <g id="text_22">
      <!-- 2 -->
      <g transform="translate(480.9325 238.017124) scale(0.11 -0.11)">
       <use xlink:href="#DejaVuSans-32"/>
      </g>
     </g>
    </g>
    <g id="ytick_18">
     <g id="line2d_41">
      <path d="M 494.93125 173.685822 
L 669.65125 173.685822 
" clip-path="url(#p81cadb6cd8)" style="fill: none; stroke: #b0b0b0; stroke-opacity: 0.2; stroke-width: 0.6; stroke-linecap: square"/>
     </g>
     <g id="line2d_42">
      <g>
       <use xlink:href="#m950438b953" x="494.93125" y="173.685822" style="stroke: #000000; stroke-width: 0.8"/>
      </g>
     </g>
     <g id="text_23">
      <!-- 3 -->
      <g transform="translate(480.9325 177.864963) scale(0.11 -0.11)">
       <use xlink:href="#DejaVuSans-33"/>
      </g>
     </g>
    </g>
    <g id="ytick_19">
     <g id="line2d_43">
      <path d="M 494.93125 113.533662 
L 669.65125 113.533662 
" clip-path="url(#p81cadb6cd8)" style="fill: none; stroke: #b0b0b0; stroke-opacity: 0.2; stroke-width: 0.6; stroke-linecap: square"/>
     </g>
     <g id="line2d_44">
      <g>
       <use xlink:href="#m950438b953" x="494.93125" y="113.533662" style="stroke: #000000; stroke-width: 0.8"/>
      </g>
     </g>
     <g id="text_24">
      <!-- 4 -->
      <g transform="translate(480.9325 117.712802) scale(0.11 -0.11)">
       <use xlink:href="#DejaVuSans-34"/>
      </g>
     </g>
    </g>
    <g id="ytick_20">
     <g id="line2d_45">
      <path d="M 494.93125 53.381501 
L 669.65125 53.381501 
" clip-path="url(#p81cadb6cd8)" style="fill: none; stroke: #b0b0b0; stroke-opacity: 0.2; stroke-width: 0.6; stroke-linecap: square"/>
     </g>
     <g id="line2d_46">
      <g>
       <use xlink:href="#m950438b953" x="494.93125" y="53.381501" style="stroke: #000000; stroke-width: 0.8"/>
      </g>
     </g>
     <g id="text_25">
      <!-- 5 -->
      <g transform="translate(480.9325 57.560642) scale(0.11 -0.11)">
       <use xlink:href="#DejaVuSans-35"/>
      </g>
     </g>
    </g>
    <g id="text_26">
     <!-- segments / second -->
     <g transform="translate(474.436875 243.260688) rotate(-90) scale(0.12 -0.12)">
      <defs>
       <path id="DejaVuSans-67" d="M 2906 1791 
Q 2906 2416 2648 2759 
Q 2391 3103 1925 3103 
Q 1463 3103 1205 2759 
Q 947 2416 947 1791 
Q 947 1169 1205 825 
Q 1463 481 1925 481 
Q 2391 481 2648 825 
Q 2906 1169 2906 1791 
z
M 3481 434 
Q 3481 -459 3084 -895 
Q 2688 -1331 1869 -1331 
Q 1566 -1331 1297 -1286 
Q 1028 -1241 775 -1147 
L 775 -588 
Q 1028 -725 1275 -790 
Q 1522 -856 1778 -856 
Q 2344 -856 2625 -561 
Q 2906 -266 2906 331 
L 2906 616 
Q 2728 306 2450 153 
Q 2172 0 1784 0 
Q 1141 0 747 490 
Q 353 981 353 1791 
Q 353 2603 747 3093 
Q 1141 3584 1784 3584 
Q 2172 3584 2450 3431 
Q 2728 3278 2906 2969 
L 2906 3500 
L 3481 3500 
L 3481 434 
z
" transform="scale(0.015625)"/>
       <path id="DejaVuSans-2f" d="M 1625 4666 
L 2156 4666 
L 531 -594 
L 0 -594 
L 1625 4666 
z
" transform="scale(0.015625)"/>
      </defs>
      <use xlink:href="#DejaVuSans-73"/>
      <use xlink:href="#DejaVuSans-65" transform="translate(52.099609 0)"/>
      <use xlink:href="#DejaVuSans-67" transform="translate(113.623047 0)"/>
      <use xlink:href="#DejaVuSans-6d" transform="translate(177.099609 0)"/>
      <use xlink:href="#DejaVuSans-65" transform="translate(274.511719 0)"/>
      <use xlink:href="#DejaVuSans-6e" transform="translate(336.035156 0)"/>
      <use xlink:href="#DejaVuSans-74" transform="translate(399.414062 0)"/>
      <use xlink:href="#DejaVuSans-73" transform="translate(438.623047 0)"/>
      <use xlink:href="#DejaVuSans-20" transform="translate(490.722656 0)"/>
      <use xlink:href="#DejaVuSans-2f" transform="translate(522.509766 0)"/>
      <use xlink:href="#DejaVuSans-20" transform="translate(556.201172 0)"/>
      <use xlink:href="#DejaVuSans-73" transform="translate(587.988281 0)"/>
      <use xlink:href="#DejaVuSans-65" transform="translate(640.087891 0)"/>
      <use xlink:href="#DejaVuSans-63" transform="translate(701.611328 0)"/>
      <use xlink:href="#DejaVuSans-6f" transform="translate(756.591797 0)"/>
      <use xlink:href="#DejaVuSans-6e" transform="translate(817.773438 0)"/>
      <use xlink:href="#DejaVuSans-64" transform="translate(881.152344 0)"/>
     </g>
    </g>
   </g>
   <g id="FillBetweenPolyCollection_3">
    <defs>
     <path id="m62d6a3d4cc" d="M 605.13997 -66.737983 
L 559.44253 -66.737983 
L 555.70381 -69.529961 
L 551.768678 -72.321939 
L 547.680711 -75.113916 
L 543.48234 -77.905894 
L 539.214564 -80.697872 
L 534.918315 -83.48985 
L 530.637104 -86.281827 
L 526.420226 -89.073805 
L 522.325551 -91.865783 
L 518.420913 -94.657761 
L 514.783374 -97.449738 
L 511.496036 -100.241716 
L 508.642621 -103.033694 
L 506.300533 -105.825672 
L 504.533481 -108.617649 
L 503.384874 -111.409627 
L 502.873068 -114.201605 
L 502.989269 -116.993583 
L 503.698362 -119.78556 
L 504.942537 -122.577538 
L 506.647083 -125.369516 
L 508.727514 -128.161493 
L 511.097002 -130.953471 
L 513.673191 -133.745449 
L 516.383568 -136.537427 
L 519.168837 -139.329404 
L 521.984017 -142.121382 
L 524.797296 -144.91336 
L 527.586982 -147.705338 
L 530.337164 -150.497315 
L 533.032912 -153.289293 
L 535.655986 -156.081271 
L 538.181949 -158.873249 
L 540.579416 -161.665226 
L 542.811806 -164.457204 
L 544.841468 -167.249182 
L 546.635581 -170.04116 
L 548.172747 -172.833137 
L 549.448965 -175.625115 
L 550.481665 -178.417093 
L 551.310727 -181.209071 
L 551.995983 -184.001048 
L 552.61135 -186.793026 
L 553.236421 -189.585004 
L 553.946892 -192.376982 
L 554.805436 -195.168959 
L 555.854556 -197.960937 
L 557.112529 -200.752915 
L 558.572931 -203.544893 
L 560.207509 -206.33687 
L 561.971614 -209.128848 
L 563.810984 -211.920826 
L 565.668654 -214.712804 
L 567.490888 -217.504781 
L 569.231485 -220.296759 
L 570.854192 -223.088737 
L 572.333388 -225.880714 
L 573.653464 -228.672692 
L 574.807421 -231.46467 
L 575.795178 -234.256648 
L 576.621975 -237.048625 
L 577.297065 -239.840603 
L 577.832764 -242.632581 
L 578.243796 -245.424559 
L 578.546835 -248.216536 
L 578.760088 -251.008514 
L 578.902806 -253.800492 
L 578.994631 -256.59247 
L 579.054743 -259.384447 
L 579.100837 -262.176425 
L 579.148043 -264.968403 
L 579.207926 -267.760381 
L 579.287768 -270.552358 
L 579.390283 -273.344336 
L 579.513872 -276.136314 
L 579.653435 -278.928292 
L 579.801615 -281.720269 
L 579.95029 -284.512247 
L 580.092036 -287.304225 
L 580.221306 -290.096203 
L 580.335115 -292.88818 
L 580.433139 -295.680158 
L 580.517249 -298.472136 
L 580.590635 -301.264114 
L 580.656736 -304.056091 
L 580.718254 -306.848069 
L 580.776456 -309.640047 
L 580.830924 -312.432025 
L 580.879788 -315.224002 
L 580.920367 -318.01598 
L 580.95006 -320.807958 
L 580.96726 -323.599936 
L 580.972094 -326.391913 
L 580.966804 -329.183891 
L 580.955692 -331.975869 
L 580.94463 -334.767846 
L 580.940239 -337.559824 
L 580.948889 -340.351802 
L 580.975733 -343.14378 
L 583.606767 -343.14378 
L 583.606767 -343.14378 
L 583.633611 -340.351802 
L 583.642261 -337.559824 
L 583.63787 -334.767846 
L 583.626808 -331.975869 
L 583.615696 -329.183891 
L 583.610406 -326.391913 
L 583.61524 -323.599936 
L 583.63244 -320.807958 
L 583.662133 -318.01598 
L 583.702712 -315.224002 
L 583.751576 -312.432025 
L 583.806044 -309.640047 
L 583.864246 -306.848069 
L 583.925764 -304.056091 
L 583.991865 -301.264114 
L 584.065251 -298.472136 
L 584.149361 -295.680158 
L 584.247385 -292.88818 
L 584.361194 -290.096203 
L 584.490464 -287.304225 
L 584.63221 -284.512247 
L 584.780885 -281.720269 
L 584.929065 -278.928292 
L 585.068628 -276.136314 
L 585.192217 -273.344336 
L 585.294732 -270.552358 
L 585.374574 -267.760381 
L 585.434457 -264.968403 
L 585.481663 -262.176425 
L 585.527757 -259.384447 
L 585.587869 -256.59247 
L 585.679694 -253.800492 
L 585.822412 -251.008514 
L 586.035665 -248.216536 
L 586.338704 -245.424559 
L 586.749736 -242.632581 
L 587.285435 -239.840603 
L 587.960525 -237.048625 
L 588.787322 -234.256648 
L 589.775079 -231.46467 
L 590.929036 -228.672692 
L 592.249112 -225.880714 
L 593.728308 -223.088737 
L 595.351015 -220.296759 
L 597.091612 -217.504781 
L 598.913846 -214.712804 
L 600.771516 -211.920826 
L 602.610886 -209.128848 
L 604.374991 -206.33687 
L 606.009569 -203.544893 
L 607.469971 -200.752915 
L 608.727944 -197.960937 
L 609.777064 -195.168959 
L 610.635608 -192.376982 
L 611.346079 -189.585004 
L 611.97115 -186.793026 
L 612.586517 -184.001048 
L 613.271773 -181.209071 
L 614.100835 -178.417093 
L 615.133535 -175.625115 
L 616.409753 -172.833137 
L 617.946919 -170.04116 
L 619.741032 -167.249182 
L 621.770694 -164.457204 
L 624.003084 -161.665226 
L 626.400551 -158.873249 
L 628.926514 -156.081271 
L 631.549588 -153.289293 
L 634.245336 -150.497315 
L 636.995518 -147.705338 
L 639.785204 -144.91336 
L 642.598483 -142.121382 
L 645.413663 -139.329404 
L 648.198932 -136.537427 
L 650.909309 -133.745449 
L 653.485498 -130.953471 
L 655.854986 -128.161493 
L 657.935417 -125.369516 
L 659.639963 -122.577538 
L 660.884138 -119.78556 
L 661.593231 -116.993583 
L 661.709432 -114.201605 
L 661.197626 -111.409627 
L 660.049019 -108.617649 
L 658.281967 -105.825672 
L 655.939879 -103.033694 
L 653.086464 -100.241716 
L 649.799126 -97.449738 
L 646.161587 -94.657761 
L 642.256949 -91.865783 
L 638.162274 -89.073805 
L 633.945396 -86.281827 
L 629.664185 -83.48985 
L 625.367936 -80.697872 
L 621.10016 -77.905894 
L 616.901789 -75.113916 
L 612.813822 -72.321939 
L 608.87869 -69.529961 
L 605.13997 -66.737983 
z
" style="stroke: #c2410c; stroke-opacity: 0.35"/>
    </defs>
    <g clip-path="url(#p81cadb6cd8)">
     <use xlink:href="#m62d6a3d4cc" x="0" y="391.52407" style="fill: #c2410c; fill-opacity: 0.35; stroke: #c2410c; stroke-opacity: 0.35"/>
    </g>
   </g>
   <g id="LineCollection_3">
    <path d="M 542.582159 264.868656 
L 622.000341 264.868656 
" clip-path="url(#p81cadb6cd8)" style="fill: none; stroke: #c2410c; stroke-width: 1.5"/>
   </g>
   <g id="patch_13">
    <path d="M 494.93125 338.606376 
L 494.93125 34.56 
" style="fill: none; stroke: #000000; stroke-width: 0.8; stroke-linejoin: miter; stroke-linecap: square"/>
   </g>
   <g id="patch_14">
    <path d="M 669.65125 338.606376 
L 669.65125 34.56 
" style="fill: none; stroke: #000000; stroke-width: 0.8; stroke-linejoin: miter; stroke-linecap: square"/>
   </g>
   <g id="patch_15">
    <path d="M 494.93125 338.606376 
L 669.65125 338.606376 
" style="fill: none; stroke: #000000; stroke-width: 0.8; stroke-linejoin: miter; stroke-linecap: square"/>
   </g>
   <g id="patch_16">
    <path d="M 494.93125 34.56 
L 669.65125 34.56 
" style="fill: none; stroke: #000000; stroke-width: 0.8; stroke-linejoin: miter; stroke-linecap: square"/>
   </g>
   <g id="PathCollection_3">
    <g clip-path="url(#p81cadb6cd8)">
     <use xlink:href="#mbe400d40ba" x="582.29125" y="240.117103" style="fill: #111827; stroke: #111827"/>
    </g>
   </g>
   <g id="legend_1">
    <g id="patch_17">
     <path d="M 504.83125 310.272782 
L 526.83125 310.272782 
L 526.83125 302.572782 
L 504.83125 302.572782 
z
" style="fill: #c2410c; opacity: 0.35; stroke: #c2410c; stroke-linejoin: miter"/>
    </g>
    <g id="text_27">
     <!-- Reference group -->
     <g transform="translate(535.63125 310.272782) scale(0.11 -0.11)">
      <defs>
       <path id="DejaVuSans-52" d="M 2841 2188 
Q 3044 2119 3236 1894 
Q 3428 1669 3622 1275 
L 4263 0 
L 3584 0 
L 2988 1197 
Q 2756 1666 2539 1819 
Q 2322 1972 1947 1972 
L 1259 1972 
L 1259 0 
L 628 0 
L 628 4666 
L 2053 4666 
Q 2853 4666 3247 4331 
Q 3641 3997 3641 3322 
Q 3641 2881 3436 2590 
Q 3231 2300 2841 2188 
z
M 1259 4147 
L 1259 2491 
L 2053 2491 
Q 2509 2491 2742 2702 
Q 2975 2913 2975 3322 
Q 2975 3731 2742 3939 
Q 2509 4147 2053 4147 
L 1259 4147 
z
" transform="scale(0.015625)"/>
       <path id="DejaVuSans-66" d="M 2375 4863 
L 2375 4384 
L 1825 4384 
Q 1516 4384 1395 4259 
Q 1275 4134 1275 3809 
L 1275 3500 
L 2222 3500 
L 2222 3053 
L 1275 3053 
L 1275 0 
L 697 0 
L 697 3053 
L 147 3053 
L 147 3500 
L 697 3500 
L 697 3744 
Q 697 4328 969 4595 
Q 1241 4863 1831 4863 
L 2375 4863 
z
" transform="scale(0.015625)"/>
      </defs>
      <use xlink:href="#DejaVuSans-52"/>
      <use xlink:href="#DejaVuSans-65" transform="translate(64.982422 0)"/>
      <use xlink:href="#DejaVuSans-66" transform="translate(126.505859 0)"/>
      <use xlink:href="#DejaVuSans-65" transform="translate(161.710938 0)"/>
      <use xlink:href="#DejaVuSans-72" transform="translate(223.234375 0)"/>
      <use xlink:href="#DejaVuSans-65" transform="translate(262.097656 0)"/>
      <use xlink:href="#DejaVuSans-6e" transform="translate(323.621094 0)"/>
      <use xlink:href="#DejaVuSans-63" transform="translate(387 0)"/>
      <use xlink:href="#DejaVuSans-65" transform="translate(441.980469 0)"/>
      <use xlink:href="#DejaVuSans-20" transform="translate(503.503906 0)"/>
      <use xlink:href="#DejaVuSans-67" transform="translate(535.291016 0)"/>
      <use xlink:href="#DejaVuSans-72" transform="translate(598.767578 0)"/>
      <use xlink:href="#DejaVuSans-6f" transform="translate(637.630859 0)"/>
      <use xlink:href="#DejaVuSans-75" transform="translate(698.8125 0)"/>
      <use xlink:href="#DejaVuSans-70" transform="translate(762.191406 0)"/>
     </g>
    </g>
    <g id="line2d_47">
     <defs>
      <path id="mdbe8f6374d" d="M -0 4.242641 
L 4.242641 0 
L 0 -4.242641 
L -4.242641 -0 
z
" style="stroke: #111827; stroke-linejoin: miter"/>
     </defs>
     <g>
      <use xlink:href="#mdbe8f6374d" x="515.83125" y="322.56872" style="fill: #111827; stroke: #111827; stroke-linejoin: miter"/>
     </g>
    </g>
    <g id="text_28">
     <!-- Patient -->
     <g transform="translate(535.63125 326.41872) scale(0.11 -0.11)">
      <use xlink:href="#DejaVuSans-50"/>
      <use xlink:href="#DejaVuSans-61" transform="translate(55.802734 0)"/>
      <use xlink:href="#DejaVuSans-74" transform="translate(117.082031 0)"/>
      <use xlink:href="#DejaVuSans-69" transform="translate(156.291016 0)"/>
      <use xlink:href="#DejaVuSans-65" transform="translate(184.074219 0)"/>
      <use xlink:href="#DejaVuSans-6e" transform="translate(245.597656 0)"/>
      <use xlink:href="#DejaVuSans-74" transform="translate(308.976562 0)"/>
     </g>
    </g>
   </g>
  </g>
  <g id="text_29">
   <!-- Autism spectrum condition (ASC) -->
   <g transform="translate(222.327812 17.837812) scale(0.14 -0.14)">
    <defs>
     <path id="DejaVuSans-41" d="M 2188 4044 
L 1331 1722 
L 3047 1722 
L 2188 4044 
z
M 1831 4666 
L 2547 4666 
L 4325 0 
L 3669 0 
L 3244 1197 
L 1141 1197 
L 716 0 
L 50 0 
L 1831 4666 
z
" transform="scale(0.015625)"/>
     <path id="DejaVuSans-28" d="M 1984 4856 
Q 1566 4138 1362 3434 
Q 1159 2731 1159 2009 
Q 1159 1288 1364 580 
Q 1569 -128 1984 -844 
L 1484 -844 
Q 1016 -109 783 600 
Q 550 1309 550 2009 
Q 550 2706 781 3412 
Q 1013 4119 1484 4856 
L 1984 4856 
z
" transform="scale(0.015625)"/>
     <path id="DejaVuSans-43" d="M 4122 4306 
L 4122 3641 
Q 3803 3938 3442 4084 
Q 3081 4231 2675 4231 
Q 1875 4231 1450 3742 
Q 1025 3253 1025 2328 
Q 1025 1406 1450 917 
Q 1875 428 2675 428 
Q 3081 428 3442 575 
Q 3803 722 4122 1019 
L 4122 359 
Q 3791 134 3420 21 
Q 3050 -91 2638 -91 
Q 1578 -91 968 557 
Q 359 1206 359 2328 
Q 359 3453 968 4101 
Q 1578 4750 2638 4750 
Q 3056 4750 3426 4639 
Q 3797 4528 4122 4306 
z
" transform="scale(0.015625)"/>
     <path id="DejaVuSans-29" d="M 513 4856 
L 1013 4856 
Q 1481 4119 1714 3412 
Q 1947 2706 1947 2009 
Q 1947 1309 1714 600 
Q 1481 -109 1013 -844 
L 513 -844 
Q 928 -128 1133 580 
Q 1338 1288 1338 2009 
Q 1338 2731 1133 3434 
Q 928 4138 513 4856 
z
" transform="scale(0.015625)"/>
    </defs>
    <use xlink:href="#DejaVuSans-41"/>
    <use xlink:href="#DejaVuSans-75" transform="translate(68.408203 0)"/>
    <use xlink:href="#DejaVuSans-74" transform="translate(131.787109 0)"/>
    <use xlink:href="#DejaVuSans-69" transform="translate(170.996094 0)"/>
    <use xlink:href="#DejaVuSans-73" transform="translate(198.779297 0)"/>
    <use xlink:href="#DejaVuSans-6d" transform="translate(250.878906 0)"/>
    <use xlink:href="#DejaVuSans-20" transform="translate(348.291016 0)"/>
    <use xlink:href="#DejaVuSans-73" transform="translate(380.078125 0)"/>
    <use xlink:href="#DejaVuSans-70" transform="translate(432.177734 0)"/>
    <use xlink:href="#DejaVuSans-65" transform="translate(495.654297 0)"/>
    <use xlink:href="#DejaVuSans-63" transform="translate(557.177734 0)"/>
    <use xlink:href="#DejaVuSans-74" transform="translate(612.158203 0)"/>
    <use xlink:href="#DejaVuSans-72" transform="translate(651.367188 0)"/>
    <use xlink:href="#DejaVuSans-75" transform="translate(692.480469 0)"/>
    <use xlink:href="#DejaVuSans-6d" transform="translate(755.859375 0)"/>
    <use xlink:href="#DejaVuSans-20" transform="translate(853.271484 0)"/>
    <use xlink:href="#DejaVuSans-63" transform="translate(885.058594 0)"/>
    <use xlink:href="#DejaVuSans-6f" transform="translate(940.039062 0)"/>
    <use xlink:href="#DejaVuSans-6e" transform="translate(1001.220703 0)"/>
    <use xlink:href="#DejaVuSans-64" transform="translate(1064.599609 0)"/>
    <use xlink:href="#DejaVuSans-69" transform="translate(1128.076172 0)"/>
    <use xlink:href="#DejaVuSans-74" transform="translate(1155.859375 0)"/>
    <use xlink:href="#DejaVuSans-69" transform="translate(1195.068359 0)"/>
    <use xlink:href="#DejaVuSans-6f" transform="translate(1222.851562 0)"/>
    <use xlink:href="#DejaVuSans-6e" transform="translate(1284.033203 0)"/>
    <use xlink:href="#DejaVuSans-20" transform="translate(1347.412109 0)"/>
    <use xlink:href="#DejaVuSans-28" transform="translate(1379.199219 0)"/>
    <use xlink:href="#DejaVuSans-41" transform="translate(1418.212891 0)"/>
    <use xlink:href="#DejaVuSans-53" transform="translate(1486.621094 0)"/>
    <use xlink:href="#DejaVuSans-43" transform="translate(1550.097656 0)"/>
    <use xlink:href="#DejaVuSans-29" transform="translate(1619.921875 0)"/>
   </g>
  </g>
 </g>
 <defs>
  <clipPath id="p20befb1ba3">
   <rect x="43.81125" y="34.56" width="174.72" height="304.046376"/>
  </clipPath>
  <clipPath id="p0bb3360428">
   <rect x="269.37125" y="34.56" width="174.72" height="304.046376"/>
  </clipPath>
  <clipPath id="p81cadb6cd8">
   <rect x="494.93125" y="34.56" width="174.72" height="304.046376"/>
  </clipPath>
 </defs>
</svg>
