<?xml version="1.0" encoding="utf-8" standalone="no"?>
<!DOCTYPE svg PUBLIC "-//W3C//DTD SVG 1.1//EN"
  "http://www.w3.org/Graphics/SVG/1.1/DTD/svg11.dtd">
<svg xmlns:xlink="http://www.w3.org/1999/xlink" width="676.85125pt" height="391.52407pt" viewBox="0 0 676.85125 391.52407" xmlns="http://www.w3.org/2000/svg" version="1.1">
 <metadata>
  <rdf:RDF xmlns:dc="http://purl.org/dc/elements/1.1/" xmlns:cc="http://creativecommons.org/ns#" xmlns:rdf="http://www.w3.org/1999/02/22-rdf-syntax-ns#">
   <cc:Work>
    <dc:type rdf:resource="http://purl.org/dc/dcmitype/StillImage"/>
    <dc:date>2026-06-14T18:52:44.450579</dc:date>
    <dc:format>image/svg+xml</dc:format>
    <dc:creator>
     <cc:Agent>
      <dc:title>Matplotlib v3.10.1, https://matplotlib.org/</dc:title>
     </cc:Agent>
    </dc:creator>
   </cc:Work>
  </rdf:RDF>
 </metadata>
 <defs>
  <style type="text/css">*{stroke-linejoin: round; stroke-linecap: butt}</style>
 </defs>
 <g id="figure_1">
  <g id="patch_1">
   <path d="M 0 391.52407 
L 676.85125 391.52407 
L 676.85125 0 
L 0 0 
z
" style="fill: #ffffff"/>
  </g>
  <g id="axes_1">
   <g id="patch_2">
    <path d="M 43.81125 338.606376 
L 218.51125 338.606376 
L 218.51125 34.56 
L 43.81125 34.56 
z
" style="fill: #ffffff"/>
   </g>
   <g id="matplotlib.axis_1">
    <g id="xtick_1">
     <g id="line2d_1">
      <path d="M 131.16125 338.606376 
L 131.16125 34.56 
" clip-path="url(#p62d95ae426)" style="fill: none; stroke: #b0b0b0; stroke-opacity: 0.2; stroke-width: 0.6; stroke-linecap: square"/>
     </g>
     <g id="line2d_2">
      <defs>
       <path id="m8327125974" d="M 0 0 
L 0 3.5 
" style="stroke: #000000; stroke-width: 0.8"/>
      </defs>
      <g>
       <use xlink:href="#m8327125974" x="131.16125" y="338.606376" style="stroke: #000000; stroke-width: 0.8"/>
      </g>
     </g>
     <g id="text_1">
      <!-- Pitch variability -->
      <g transform="translate(48.645671 375.631189) rotate(-15) scale(0.11 -0.11)">
       <defs>
        <path id="DejaVuSans-50" d="M 1259 4147 
L 1259 2394 
L 2053 2394 
Q 2494 2394 2734 2622 
Q 2975 2850 2975 3272 
Q 2975 3691 2734 3919 
Q 2494 4147 2053 4147 
L 1259 4147 
z
M 628 4666 
L 2053 4666 
Q 2838 4666 3239 4311 
Q 3641 3956 3641 3272 
Q 3641 2581 3239 2228 
Q 2838 1875 2053 1875 
L 1259 1875 
L 1259 0 
L 628 0 
L 628 4666 
z
" transform="scale(0.015625)"/>
        <path id="DejaVuSans-69" d="M 603 3500 
L 1178 3500 
L 1178 0 
L 603 0 
L 603 3500 
z
M 603 4863 
L 1178 4863 
L 1178 4134 
L 603 4134 
L 603 4863 
z
" transform="scale(0.015625)"/>
        <path id="DejaVuSans-74" d="M 1172 4494 
L 1172 3500 
L 2356 3500 
L 2356 3053 
L 1172 3053 
L 1172 1153 
Q 1172 725 1289 603 
Q 1406 481 1766 481 
L 2356 481 
L 2356 0 
L 1766 0 
Q 1100 0 847 248 
Q 594 497 594 1153 
L 594 3053 
L 172 3053 
L 172 3500 
L 594 3500 
L 594 4494 
L 1172 4494 
z
" transform="scale(0.015625)"/>
        <path id="DejaVuSans-63" d="M 3122 3366 
L 3122 2828 
Q 2878 2963 2633 3030 
Q 2388 3097 2138 3097 
Q 1578 3097 1268 2742 
Q 959 2388 959 1747 
Q 959 1106 1268 751 
Q 1578 397 2138 397 
Q 2388 397 2633 464 
Q 2878 531 3122 666 
L 3122 134 
Q 2881 22 2623 -34 
Q 2366 -91 2075 -91 
Q 1284 -91 818 406 
Q 353 903 353 1747 
Q 353 2603 823 3093 
Q 1294 3584 2113 3584 
Q 2378 3584 2631 3529 
Q 2884 3475 3122 3366 
z
" transform="scale(0.015625)"/>
        <path id="DejaVuSans-68" d="M 3513 2113 
L 3513 0 
L 2938 0 
L 2938 2094 
Q 2938 2591 2744 2837 
Q 2550 3084 2163 3084 
Q 1697 3084 1428 2787 
Q 1159 2491 1159 1978 
L 1159 0 
L 581 0 
L 581 4863 
L 1159 4863 
L 1159 2956 
Q 1366 3272 1645 3428 
Q 1925 3584 2291 3584 
Q 2894 3584 3203 3211 
Q 3513 2838 3513 2113 
z
" transform="scale(0.015625)"/>
        <path id="DejaVuSans-20" transform="scale(0.015625)"/>
        <path id="DejaVuSans-76" d="M 191 3500 
L 800 3500 
L 1894 563 
L 2988 3500 
L 3597 3500 
L 2284 0 
L 1503 0 
L 191 3500 
z
" transform="scale(0.015625)"/>
        <path id="DejaVuSans-61" d="M 2194 1759 
Q 1497 1759 1228 1600 
Q 959 1441 959 1056 
Q 959 750 1161 570 
Q 1363 391 1709 391 
Q 2188 391 2477 730 
Q 2766 1069 2766 1631 
L 2766 1759 
L 2194 1759 
z
M 3341 1997 
L 3341 0 
L 2766 0 
L 2766 531 
Q 2569 213 2275 61 
Q 1981 -91 1556 -91 
Q 1019 -91 701 211 
Q 384 513 384 1019 
Q 384 1609 779 1909 
Q 1175 2209 1959 2209 
L 2766 2209 
L 2766 2266 
Q 2766 2663 2505 2880 
Q 2244 3097 1772 3097 
Q 1472 3097 1187 3025 
Q 903 2953 641 2809 
L 641 3341 
Q 956 3463 1253 3523 
Q 1550 3584 1831 3584 
Q 2591 3584 2966 3190 
Q 3341 2797 3341 1997 
z
" transform="scale(0.015625)"/>
        <path id="DejaVuSans-72" d="M 2631 2963 
Q 2534 3019 2420 3045 
Q 2306 3072 2169 3072 
Q 1681 3072 1420 2755 
Q 1159 2438 1159 1844 
L 1159 0 
L 581 0 
L 581 3500 
L 1159 3500 
L 1159 2956 
Q 1341 3275 1631 3429 
Q 1922 3584 2338 3584 
Q 2397 3584 2469 3576 
Q 2541 3569 2628 3553 
L 2631 2963 
z
" transform="scale(0.015625)"/>
        <path id="DejaVuSans-62" d="M 3116 1747 
Q 3116 2381 2855 2742 
Q 2594 3103 2138 3103 
Q 1681 3103 1420 2742 
Q 1159 2381 1159 1747 
Q 1159 1113 1420 752 
Q 1681 391 2138 391 
Q 2594 391 2855 752 
Q 3116 1113 3116 1747 
z
M 1159 2969 
Q 1341 3281 1617 3432 
Q 1894 3584 2278 3584 
Q 2916 3584 3314 3078 
Q 3713 2572 3713 1747 
Q 3713 922 3314 415 
Q 2916 -91 2278 -91 
Q 1894 -91 1617 61 
Q 1341 213 1159 525 
L 1159 0 
L 581 0 
L 581 4863 
L 1159 4863 
L 1159 2969 
z
" transform="scale(0.015625)"/>
        <path id="DejaVuSans-6c" d="M 603 4863 
L 1178 4863 
L 1178 0 
L 603 0 
L 603 4863 
z
" transform="scale(0.015625)"/>
        <path id="DejaVuSans-79" d="M 2059 -325 
Q 1816 -950 1584 -1140 
Q 1353 -1331 966 -1331 
L 506 -1331 
L 506 -850 
L 844 -850 
Q 1081 -850 1212 -737 
Q 1344 -625 1503 -206 
L 1606 56 
L 191 3500 
L 800 3500 
L 1894 763 
L 2988 3500 
L 3597 3500 
L 2059 -325 
z
" transform="scale(0.015625)"/>
       </defs>
       <use xlink:href="#DejaVuSans-50"/>
       <use xlink:href="#DejaVuSans-69" transform="translate(58.052734 0)"/>
       <use xlink:href="#DejaVuSans-74" transform="translate(85.835938 0)"/>
       <use xlink:href="#DejaVuSans-63" transform="translate(125.044922 0)"/>
       <use xlink:href="#DejaVuSans-68" transform="translate(180.025391 0)"/>
       <use xlink:href="#DejaVuSans-20" transform="translate(243.404297 0)"/>
       <use xlink:href="#DejaVuSans-76" transform="translate(275.191406 0)"/>
       <use xlink:href="#DejaVuSans-61" transform="translate(334.371094 0)"/>
       <use xlink:href="#DejaVuSans-72" transform="translate(395.650391 0)"/>
       <use xlink:href="#DejaVuSans-69" transform="translate(436.763672 0)"/>
       <use xlink:href="#DejaVuSans-61" transform="translate(464.546875 0)"/>
       <use xlink:href="#DejaVuSans-62" transform="translate(525.826172 0)"/>
       <use xlink:href="#DejaVuSans-69" transform="translate(589.302734 0)"/>
       <use xlink:href="#DejaVuSans-6c" transform="translate(617.085938 0)"/>
       <use xlink:href="#DejaVuSans-69" transform="translate(644.869141 0)"/>
       <use xlink:href="#DejaVuSans-74" transform="translate(672.652344 0)"/>
       <use xlink:href="#DejaVuSans-79" transform="translate(711.861328 0)"/>
      </g>
     </g>
    </g>
   </g>
   <g id="matplotlib.axis_2">
    <g id="ytick_1">
     <g id="line2d_3">
      <path d="M 43.81125 301.95523 
L 218.51125 301.95523 
" clip-path="url(#p62d95ae426)" style="fill: none; stroke: #b0b0b0; stroke-opacity: 0.2; stroke-width: 0.6; stroke-linecap: square"/>
     </g>
     <g id="line2d_4">
      <defs>
       <path id="mdc46eeb3a9" d="M 0 0 
L -3.5 0 
" style="stroke: #000000; stroke-width: 0.8"/>
      </defs>
      <g>
       <use xlink:href="#mdc46eeb3a9" x="43.81125" y="301.95523" style="stroke: #000000; stroke-width: 0.8"/>
      </g>
     </g>
     <g id="text_2">
      <!-- 5 -->
      <g transform="translate(29.8125 306.134371) scale(0.11 -0.11)">
       <defs>
        <path id="DejaVuSans-35" d="M 691 4666 
L 3169 4666 
L 3169 4134 
L 1269 4134 
L 1269 2991 
Q 1406 3038 1543 3061 
Q 1681 3084 1819 3084 
Q 2600 3084 3056 2656 
Q 3513 2228 3513 1497 
Q 3513 744 3044 326 
Q 2575 -91 1722 -91 
Q 1428 -91 1123 -41 
Q 819 9 494 109 
L 494 744 
Q 775 591 1075 516 
Q 1375 441 1709 441 
Q 2250 441 2565 725 
Q 2881 1009 2881 1497 
Q 2881 1984 2565 2268 
Q 2250 2553 1709 2553 
Q 1456 2553 1204 2497 
Q 953 2441 691 2322 
L 691 4666 
z
" transform="scale(0.015625)"/>
       </defs>
       <use xlink:href="#DejaVuSans-35"/>
      </g>
     </g>
    </g>
    <g id="ytick_2">
     <g id="line2d_5">
      <path d="M 43.81125 260.796112 
L 218.51125 260.796112 
" clip-path="url(#p62d95ae426)" style="fill: none; stroke: #b0b0b0; stroke-opacity: 0.2; stroke-width: 0.6; stroke-linecap: square"/>
     </g>
     <g id="line2d_6">
      <g>
       <use xlink:href="#mdc46eeb3a9" x="43.81125" y="260.796112" style="stroke: #000000; stroke-width: 0.8"/>
      </g>
     </g>
     <g id="text_3">
      <!-- 10 -->
      <g transform="translate(22.81375 264.975252) scale(0.11 -0.11)">
       <defs>
        <path id="DejaVuSans-31" d="M 794 531 
L 1825 531 
L 1825 4091 
L 703 3866 
L 703 4441 
L 1819 4666 
L 2450 4666 
L 2450 531 
L 3481 531 
L 3481 0 
L 794 0 
L 794 531 
z
" transform="scale(0.015625)"/>
        <path id="DejaVuSans-30" d="M 2034 4250 
Q 1547 4250 1301 3770 
Q 1056 3291 1056 2328 
Q 1056 1369 1301 889 
Q 1547 409 2034 409 
Q 2525 409 2770 889 
Q 3016 1369 3016 2328 
Q 3016 3291 2770 3770 
Q 2525 4250 2034 4250 
z
M 2034 4750 
Q 2819 4750 3233 4129 
Q 3647 3509 3647 2328 
Q 3647 1150 3233 529 
Q 2819 -91 2034 -91 
Q 1250 -91 836 529 
Q 422 1150 422 2328 
Q 422 3509 836 4129 
Q 1250 4750 2034 4750 
z
" transform="scale(0.015625)"/>
       </defs>
       <use xlink:href="#DejaVuSans-31"/>
       <use xlink:href="#DejaVuSans-30" transform="translate(63.623047 0)"/>
      </g>
     </g>
    </g>
    <g id="ytick_3">
     <g id="line2d_7">
      <path d="M 43.81125 219.636993 
L 218.51125 219.636993 
" clip-path="url(#p62d95ae426)" style="fill: none; stroke: #b0b0b0; stroke-opacity: 0.2; stroke-width: 0.6; stroke-linecap: square"/>
     </g>
     <g id="line2d_8">
      <g>
       <use xlink:href="#mdc46eeb3a9" x="43.81125" y="219.636993" style="stroke: #000000; stroke-width: 0.8"/>
      </g>
     </g>
     <g id="text_4">
      <!-- 15 -->
      <g transform="translate(22.81375 223.816134) scale(0.11 -0.11)">
       <use xlink:href="#DejaVuSans-31"/>
       <use xlink:href="#DejaVuSans-35" transform="translate(63.623047 0)"/>
      </g>
     </g>
    </g>
    <g id="ytick_4">
     <g id="line2d_9">
      <path d="M 43.81125 178.477875 
L 218.51125 178.477875 
" clip-path="url(#p62d95ae426)" style="fill: none; stroke: #b0b0b0; stroke-opacity: 0.2; stroke-width: 0.6; stroke-linecap: square"/>
     </g>
     <g id="line2d_10">
      <g>
       <use xlink:href="#mdc46eeb3a9" x="43.81125" y="178.477875" style="stroke: #000000; stroke-width: 0.8"/>
      </g>
     </g>
     <g id="text_5">
      <!-- 20 -->
      <g transform="translate(22.81375 182.657016) scale(0.11 -0.11)">
       <defs>
        <path id="DejaVuSans-32" d="M 1228 531 
L 3431 531 
L 3431 0 
L 469 0 
L 469 531 
Q 828 903 1448 1529 
Q 2069 2156 2228 2338 
Q 2531 2678 2651 2914 
Q 2772 3150 2772 3378 
Q 2772 3750 2511 3984 
Q 2250 4219 1831 4219 
Q 1534 4219 1204 4116 
Q 875 4013 500 3803 
L 500 4441 
Q 881 4594 1212 4672 
Q 1544 4750 1819 4750 
Q 2544 4750 2975 4387 
Q 3406 4025 3406 3419 
Q 3406 3131 3298 2873 
Q 3191 2616 2906 2266 
Q 2828 2175 2409 1742 
Q 1991 1309 1228 531 
z
" transform="scale(0.015625)"/>
       </defs>
       <use xlink:href="#DejaVuSans-32"/>
       <use xlink:href="#DejaVuSans-30" transform="translate(63.623047 0)"/>
      </g>
     </g>
    </g>
    <g id="ytick_5">
     <g id="line2d_11">
      <path d="M 43.81125 137.318757 
L 218.51125 137.318757 
" clip-path="url(#p62d95ae426)" style="fill: none; stroke: #b0b0b0; stroke-opacity: 0.2; stroke-width: 0.6; stroke-linecap: square"/>
     </g>
     <g id="line2d_12">
      <g>
       <use xlink:href="#mdc46eeb3a9" x="43.81125" y="137.318757" style="stroke: #000000; stroke-width: 0.8"/>
      </g>
     </g>
     <g id="text_6">
      <!-- 25 -->
      <g transform="translate(22.81375 141.497897) scale(0.11 -0.11)">
       <use xlink:href="#DejaVuSans-32"/>
       <use xlink:href="#DejaVuSans-35" transform="translate(63.623047 0)"/>
      </g>
     </g>
    </g>
    <g id="ytick_6">
     <g id="line2d_13">
      <path d="M 43.81125 96.159638 
L 218.51125 96.159638 
" clip-path="url(#p62d95ae426)" style="fill: none; stroke: #b0b0b0; stroke-opacity: 0.2; stroke-width: 0.6; stroke-linecap: square"/>
     </g>
     <g id="line2d_14">
      <g>
       <use xlink:href="#mdc46eeb3a9" x="43.81125" y="96.159638" style="stroke: #000000; stroke-width: 0.8"/>
      </g>
     </g>
     <g id="text_7">
      <!-- 30 -->
      <g transform="translate(22.81375 100.338779) scale(0.11 -0.11)">
       <defs>
        <path id="DejaVuSans-33" d="M 2597 2516 
Q 3050 2419 3304 2112 
Q 3559 1806 3559 1356 
Q 3559 666 3084 287 
Q 2609 -91 1734 -91 
Q 1441 -91 1130 -33 
Q 819 25 488 141 
L 488 750 
Q 750 597 1062 519 
Q 1375 441 1716 441 
Q 2309 441 2620 675 
Q 2931 909 2931 1356 
Q 2931 1769 2642 2001 
Q 2353 2234 1838 2234 
L 1294 2234 
L 1294 2753 
L 1863 2753 
Q 2328 2753 2575 2939 
Q 2822 3125 2822 3475 
Q 2822 3834 2567 4026 
Q 2313 4219 1838 4219 
Q 1578 4219 1281 4162 
Q 984 4106 628 3988 
L 628 4550 
Q 988 4650 1302 4700 
Q 1616 4750 1894 4750 
Q 2613 4750 3031 4423 
Q 3450 4097 3450 3541 
Q 3450 3153 3228 2886 
Q 3006 2619 2597 2516 
z
" transform="scale(0.015625)"/>
       </defs>
       <use xlink:href="#DejaVuSans-33"/>
       <use xlink:href="#DejaVuSans-30" transform="translate(63.623047 0)"/>
      </g>
     </g>
    </g>
    <g id="ytick_7">
     <g id="line2d_15">
      <path d="M 43.81125 55.00052 
L 218.51125 55.00052 
" clip-path="url(#p62d95ae426)" style="fill: none; stroke: #b0b0b0; stroke-opacity: 0.2; stroke-width: 0.6; stroke-linecap: square"/>
     </g>
     <g id="line2d_16">
      <g>
       <use xlink:href="#mdc46eeb3a9" x="43.81125" y="55.00052" style="stroke: #000000; stroke-width: 0.8"/>
      </g>
     </g>
     <g id="text_8">
      <!-- 35 -->
      <g transform="translate(22.81375 59.179661) scale(0.11 -0.11)">
       <use xlink:href="#DejaVuSans-33"/>
       <use xlink:href="#DejaVuSans-35" transform="translate(63.623047 0)"/>
      </g>
     </g>
    </g>
    <g id="text_9">
     <!-- semitones -->
     <g transform="translate(16.318125 217.555376) rotate(-90) scale(0.12 -0.12)">
      <defs>
       <path id="DejaVuSans-73" d="M 2834 3397 
L 2834 2853 
Q 2591 2978 2328 3040 
Q 2066 3103 1784 3103 
Q 1356 3103 1142 2972 
Q 928 2841 928 2578 
Q 928 2378 1081 2264 
Q 1234 2150 1697 2047 
L 1894 2003 
Q 2506 1872 2764 1633 
Q 3022 1394 3022 966 
Q 3022 478 2636 193 
Q 2250 -91 1575 -91 
Q 1294 -91 989 -36 
Q 684 19 347 128 
L 347 722 
Q 666 556 975 473 
Q 1284 391 1588 391 
Q 1994 391 2212 530 
Q 2431 669 2431 922 
Q 2431 1156 2273 1281 
Q 2116 1406 1581 1522 
L 1381 1569 
Q 847 1681 609 1914 
Q 372 2147 372 2553 
Q 372 3047 722 3315 
Q 1072 3584 1716 3584 
Q 2034 3584 2315 3537 
Q 2597 3491 2834 3397 
z
" transform="scale(0.015625)"/>
       <path id="DejaVuSans-65" d="M 3597 1894 
L 3597 1613 
L 953 1613 
Q 991 1019 1311 708 
Q 1631 397 2203 397 
Q 2534 397 2845 478 
Q 3156 559 3463 722 
L 3463 178 
Q 3153 47 2828 -22 
Q 2503 -91 2169 -91 
Q 1331 -91 842 396 
Q 353 884 353 1716 
Q 353 2575 817 3079 
Q 1281 3584 2069 3584 
Q 2775 3584 3186 3129 
Q 3597 2675 3597 1894 
z
M 3022 2063 
Q 3016 2534 2758 2815 
Q 2500 3097 2075 3097 
Q 1594 3097 1305 2825 
Q 1016 2553 972 2059 
L 3022 2063 
z
" transform="scale(0.015625)"/>
       <path id="DejaVuSans-6d" d="M 3328 2828 
Q 3544 3216 3844 3400 
Q 4144 3584 4550 3584 
Q 5097 3584 5394 3201 
Q 5691 2819 5691 2113 
L 5691 0 
L 5113 0 
L 5113 2094 
Q 5113 2597 4934 2840 
Q 4756 3084 4391 3084 
Q 3944 3084 3684 2787 
Q 3425 2491 3425 1978 
L 3425 0 
L 2847 0 
L 2847 2094 
Q 2847 2600 2669 2842 
Q 2491 3084 2119 3084 
Q 1678 3084 1418 2786 
Q 1159 2488 1159 1978 
L 1159 0 
L 581 0 
L 581 3500 
L 1159 3500 
L 1159 2956 
Q 1356 3278 1631 3431 
Q 1906 3584 2284 3584 
Q 2666 3584 2933 3390 
Q 3200 3197 3328 2828 
z
" transform="scale(0.015625)"/>
       <path id="DejaVuSans-6f" d="M 1959 3097 
Q 1497 3097 1228 2736 
Q 959 2375 959 1747 
Q 959 1119 1226 758 
Q 1494 397 1959 397 
Q 2419 397 2687 759 
Q 2956 1122 2956 1747 
Q 2956 2369 2687 2733 
Q 2419 3097 1959 3097 
z
M 1959 3584 
Q 2709 3584 3137 3096 
Q 3566 2609 3566 1747 
Q 3566 888 3137 398 
Q 2709 -91 1959 -91 
Q 1206 -91 779 398 
Q 353 888 353 1747 
Q 353 2609 779 3096 
Q 1206 3584 1959 3584 
z
" transform="scale(0.015625)"/>
       <path id="DejaVuSans-6e" d="M 3513 2113 
L 3513 0 
L 2938 0 
L 2938 2094 
Q 2938 2591 2744 2837 
Q 2550 3084 2163 3084 
Q 1697 3084 1428 2787 
Q 1159 2491 1159 1978 
L 1159 0 
L 581 0 
L 581 3500 
L 1159 3500 
L 1159 2956 
Q 1366 3272 1645 3428 
Q 1925 3584 2291 3584 
Q 2894 3584 3203 3211 
Q 3513 2838 3513 2113 
z
" transform="scale(0.015625)"/>
      </defs>
      <use xlink:href="#DejaVuSans-73"/>
      <use xlink:href="#DejaVuSans-65" transform="translate(52.099609 0)"/>
      <use xlink:href="#DejaVuSans-6d" transform="translate(113.623047 0)"/>
      <use xlink:href="#DejaVuSans-69" transform="translate(211.035156 0)"/>
      <use xlink:href="#DejaVuSans-74" transform="translate(238.818359 0)"/>
      <use xlink:href="#DejaVuSans-6f" transform="translate(278.027344 0)"/>
      <use xlink:href="#DejaVuSans-6e" transform="translate(339.208984 0)"/>
      <use xlink:href="#DejaVuSans-65" transform="translate(402.587891 0)"/>
      <use xlink:href="#DejaVuSans-73" transform="translate(464.111328 0)"/>
     </g>
    </g>
   </g>
   <g id="FillBetweenPolyCollection_1">
    <defs>
     <path id="md2382d76b6" d="M 157.662213 -66.737983 
L 104.660287 -66.737983 
L 98.872491 -69.529961 
L 92.721425 -72.321939 
L 86.403962 -75.113916 
L 80.141305 -77.905894 
L 74.159393 -80.697872 
L 68.667765 -83.48985 
L 63.839967 -86.281827 
L 59.798537 -89.073805 
L 56.606926 -91.865783 
L 54.269572 -94.657761 
L 52.73992 -97.449738 
L 51.934757 -100.241716 
L 51.752159 -103.033694 
L 52.08976 -105.825672 
L 52.860228 -108.617649 
L 54.001567 -111.409627 
L 55.481051 -114.201605 
L 57.292901 -116.993583 
L 59.45091 -119.78556 
L 61.977901 -122.577538 
L 64.894144 -125.369516 
L 68.206684 -128.161493 
L 71.901151 -130.953471 
L 75.937158 -133.745449 
L 80.247835 -136.537427 
L 84.743507 -139.329404 
L 89.318871 -142.121382 
L 93.862402 -144.91336 
L 98.266306 -147.705338 
L 102.43521 -150.497315 
L 106.292158 -153.289293 
L 109.781201 -156.081271 
L 112.866836 -158.873249 
L 115.531325 -161.665226 
L 117.771346 -164.457204 
L 119.595341 -167.249182 
L 121.022323 -170.04116 
L 122.082138 -172.833137 
L 122.8164 -175.625115 
L 123.278916 -178.417093 
L 123.534449 -181.209071 
L 123.655135 -184.001048 
L 123.714657 -186.793026 
L 123.781058 -189.585004 
L 123.909633 -192.376982 
L 124.137472 -195.168959 
L 124.480873 -197.960937 
L 124.936156 -200.752915 
L 125.483537 -203.544893 
L 126.093009 -206.33687 
L 126.730802 -209.128848 
L 127.365044 -211.920826 
L 127.969671 -214.712804 
L 128.526245 -217.504781 
L 129.023921 -220.296759 
L 129.458192 -223.088737 
L 129.82913 -225.880714 
L 130.139715 -228.672692 
L 130.394586 -231.46467 
L 130.599262 -234.256648 
L 130.75973 -237.048625 
L 130.882207 -239.840603 
L 130.97294 -242.632581 
L 131.037978 -245.424559 
L 131.082906 -248.216536 
L 131.112592 -251.008514 
L 131.130993 -253.800492 
L 131.141024 -256.59247 
L 131.144515 -259.384447 
L 131.142208 -262.176425 
L 131.13381 -264.968403 
L 131.11808 -267.760381 
L 131.093 -270.552358 
L 131.056043 -273.344336 
L 131.004603 -276.136314 
L 130.936564 -278.928292 
L 130.850972 -281.720269 
L 130.748679 -284.512247 
L 130.632771 -287.304225 
L 130.508599 -290.096203 
L 130.383253 -292.88818 
L 130.264491 -295.680158 
L 130.159249 -298.472136 
L 130.072097 -301.264114 
L 130.004034 -304.056091 
L 129.952026 -306.848069 
L 129.909528 -309.640047 
L 129.867951 -312.432025 
L 129.818789 -315.224002 
L 129.755888 -318.01598 
L 129.677289 -320.807958 
L 129.586178 -323.599936 
L 129.49069 -326.391913 
L 129.402619 -329.183891 
L 129.335328 -331.975869 
L 129.301339 -334.767846 
L 129.310096 -337.559824 
L 129.366352 -340.351802 
L 129.469437 -343.14378 
L 132.853063 -343.14378 
L 132.853063 -343.14378 
L 132.956148 -340.351802 
L 133.012404 -337.559824 
L 133.021161 -334.767846 
L 132.987172 -331.975869 
L 132.919881 -329.183891 
L 132.83181 -326.391913 
L 132.736322 -323.599936 
L 132.645211 -320.807958 
L 132.566612 -318.01598 
L 132.503711 -315.224002 
L 132.454549 -312.432025 
L 132.412972 -309.640047 
L 132.370474 -306.848069 
L 132.318466 -304.056091 
L 132.250403 -301.264114 
L 132.163251 -298.472136 
L 132.058009 -295.680158 
L 131.939247 -292.88818 
L 131.813901 -290.096203 
L 131.689729 -287.304225 
L 131.573821 -284.512247 
L 131.471528 -281.720269 
L 131.385936 -278.928292 
L 131.317897 -276.136314 
L 131.266457 -273.344336 
L 131.2295 -270.552358 
L 131.20442 -267.760381 
L 131.18869 -264.968403 
L 131.180292 -262.176425 
L 131.177985 -259.384447 
L 131.181476 -256.59247 
L 131.191507 -253.800492 
L 131.209908 -251.008514 
L 131.239594 -248.216536 
L 131.284522 -245.424559 
L 131.34956 -242.632581 
L 131.440293 -239.840603 
L 131.56277 -237.048625 
L 131.723238 -234.256648 
L 131.927914 -231.46467 
L 132.182785 -228.672692 
L 132.49337 -225.880714 
L 132.864308 -223.088737 
L 133.298579 -220.296759 
L 133.796255 -217.504781 
L 134.352829 -214.712804 
L 134.957456 -211.920826 
L 135.591698 -209.128848 
L 136.229491 -206.33687 
L 136.838963 -203.544893 
L 137.386344 -200.752915 
L 137.841627 -197.960937 
L 138.185028 -195.168959 
L 138.412867 -192.376982 
L 138.541442 -189.585004 
L 138.607843 -186.793026 
L 138.667365 -184.001048 
L 138.788051 -181.209071 
L 139.043584 -178.417093 
L 139.5061 -175.625115 
L 140.240362 -172.833137 
L 141.300177 -170.04116 
L 142.727159 -167.249182 
L 144.551154 -164.457204 
L 146.791175 -161.665226 
L 149.455664 -158.873249 
L 152.541299 -156.081271 
L 156.030342 -153.289293 
L 159.88729 -150.497315 
L 164.056194 -147.705338 
L 168.460098 -144.91336 
L 173.003629 -142.121382 
L 177.578993 -139.329404 
L 182.074665 -136.537427 
L 186.385342 -133.745449 
L 190.421349 -130.953471 
L 194.115816 -128.161493 
L 197.428356 -125.369516 
L 200.344599 -122.577538 
L 202.87159 -119.78556 
L 205.029599 -116.993583 
L 206.841449 -114.201605 
L 208.320933 -111.409627 
L 209.462272 -108.617649 
L 210.23274 -105.825672 
L 210.570341 -103.033694 
L 210.387743 -100.241716 
L 209.58258 -97.449738 
L 208.052928 -94.657761 
L 205.715574 -91.865783 
L 202.523963 -89.073805 
L 198.482533 -86.281827 
L 193.654735 -83.48985 
L 188.163107 -80.697872 
L 182.181195 -77.905894 
L 175.918538 -75.113916 
L 169.601075 -72.321939 
L 163.450009 -69.529961 
L 157.662213 -66.737983 
z
" style="stroke: #0f766e; stroke-opacity: 0.35"/>
    </defs>
    <g clip-path="url(#p62d95ae426)">
     <use xlink:href="#md2382d76b6" x="0" y="391.52407" style="fill: #0f766e; fill-opacity: 0.35; stroke: #0f766e; stroke-opacity: 0.35"/>
    </g>
   </g>
   <g id="LineCollection_1">
    <path d="M 91.456705 280.907585 
L 170.865795 280.907585 
" clip-path="url(#p62d95ae426)" style="fill: none; stroke: #0f766e; stroke-width: 1.5"/>
   </g>
   <g id="patch_3">
    <path d="M 43.81125 338.606376 
L 43.81125 34.56 
" style="fill: none; stroke: #000000; stroke-width: 0.8; stroke-linejoin: miter; stroke-linecap: square"/>
   </g>
   <g id="patch_4">
    <path d="M 218.51125 338.606376 
L 218.51125 34.56 
" style="fill: none; stroke: #000000; stroke-width: 0.8; stroke-linejoin: miter; stroke-linecap: square"/>
   </g>
   <g id="patch_5">
    <path d="M 43.81125 338.606376 
L 218.51125 338.606376 
" style="fill: none; stroke: #000000; stroke-width: 0.8; stroke-linejoin: miter; stroke-linecap: square"/>
   </g>
   <g id="patch_6">
    <path d="M 43.81125 34.56 
L 218.51125 34.56 
" style="fill: none; stroke: #000000; stroke-width: 0.8; stroke-linejoin: miter; stroke-linecap: square"/>
   </g>
  </g>
  <g id="axes_2">
   <g id="patch_7">
    <path d="M 269.38125 338.606376 
L 444.08125 338.606376 
L 444.08125 34.56 
L 269.38125 34.56 
z
" style="fill: #ffffff"/>
   </g>
   <g id="matplotlib.axis_3">
    <g id="xtick_2">
     <g id="line2d_17">
      <path d="M 356.73125 338.606376 
L 356.73125 34.56 
" clip-path="url(#p2bdb694d23)" style="fill: none; stroke: #b0b0b0; stroke-opacity: 0.2; stroke-width: 0.6; stroke-linecap: square"/>
     </g>
     <g id="line2d_18">
      <g>
       <use xlink:href="#m8327125974" x="356.73125" y="338.606376" style="stroke: #000000; stroke-width: 0.8"/>
      </g>
     </g>
     <g id="text_10">
      <!-- Loudness variability -->
      <g transform="translate(250.020135 382.114363) rotate(-15) scale(0.11 -0.11)">
       <defs>
        <path id="DejaVuSans-4c" d="M 628 4666 
L 1259 4666 
L 1259 531 
L 3531 531 
L 3531 0 
L 628 0 
L 628 4666 
z
" transform="scale(0.015625)"/>
        <path id="DejaVuSans-75" d="M 544 1381 
L 544 3500 
L 1119 3500 
L 1119 1403 
Q 1119 906 1312 657 
Q 1506 409 1894 409 
Q 2359 409 2629 706 
Q 2900 1003 2900 1516 
L 2900 3500 
L 3475 3500 
L 3475 0 
L 2900 0 
L 2900 538 
Q 2691 219 2414 64 
Q 2138 -91 1772 -91 
Q 1169 -91 856 284 
Q 544 659 544 1381 
z
M 1991 3584 
L 1991 3584 
z
" transform="scale(0.015625)"/>
        <path id="DejaVuSans-64" d="M 2906 2969 
L 2906 4863 
L 3481 4863 
L 3481 0 
L 2906 0 
L 2906 525 
Q 2725 213 2448 61 
Q 2172 -91 1784 -91 
Q 1150 -91 751 415 
Q 353 922 353 1747 
Q 353 2572 751 3078 
Q 1150 3584 1784 3584 
Q 2172 3584 2448 3432 
Q 2725 3281 2906 2969 
z
M 947 1747 
Q 947 1113 1208 752 
Q 1469 391 1925 391 
Q 2381 391 2643 752 
Q 2906 1113 2906 1747 
Q 2906 2381 2643 2742 
Q 2381 3103 1925 3103 
Q 1469 3103 1208 2742 
Q 947 2381 947 1747 
z
" transform="scale(0.015625)"/>
       </defs>
       <use xlink:href="#DejaVuSans-4c"/>
       <use xlink:href="#DejaVuSans-6f" transform="translate(53.962891 0)"/>
       <use xlink:href="#DejaVuSans-75" transform="translate(115.144531 0)"/>
       <use xlink:href="#DejaVuSans-64" transform="translate(178.523438 0)"/>
       <use xlink:href="#DejaVuSans-6e" transform="translate(242 0)"/>
       <use xlink:href="#DejaVuSans-65" transform="translate(305.378906 0)"/>
       <use xlink:href="#DejaVuSans-73" transform="translate(366.902344 0)"/>
       <use xlink:href="#DejaVuSans-73" transform="translate(419.001953 0)"/>
       <use xlink:href="#DejaVuSans-20" transform="translate(471.101562 0)"/>
       <use xlink:href="#DejaVuSans-76" transform="translate(502.888672 0)"/>
       <use xlink:href="#DejaVuSans-61" transform="translate(562.068359 0)"/>
       <use xlink:href="#DejaVuSans-72" transform="translate(623.347656 0)"/>
       <use xlink:href="#DejaVuSans-69" transform="translate(664.460938 0)"/>
       <use xlink:href="#DejaVuSans-61" transform="translate(692.244141 0)"/>
       <use xlink:href="#DejaVuSans-62" transform="translate(753.523438 0)"/>
       <use xlink:href="#DejaVuSans-69" transform="translate(817 0)"/>
       <use xlink:href="#DejaVuSans-6c" transform="translate(844.783203 0)"/>
       <use xlink:href="#DejaVuSans-69" transform="translate(872.566406 0)"/>
       <use xlink:href="#DejaVuSans-74" transform="translate(900.349609 0)"/>
       <use xlink:href="#DejaVuSans-79" transform="translate(939.558594 0)"/>
      </g>
     </g>
    </g>
   </g>
   <g id="matplotlib.axis_4">
    <g id="ytick_8">
     <g id="line2d_19">
      <path d="M 269.38125 305.123566 
L 444.08125 305.123566 
" clip-path="url(#p2bdb694d23)" style="fill: none; stroke: #b0b0b0; stroke-opacity: 0.2; stroke-width: 0.6; stroke-linecap: square"/>
     </g>
     <g id="line2d_20">
      <g>
       <use xlink:href="#mdc46eeb3a9" x="269.38125" y="305.123566" style="stroke: #000000; stroke-width: 0.8"/>
      </g>
     </g>
     <g id="text_11">
      <!-- 0.8 -->
      <g transform="translate(244.887813 309.302706) scale(0.11 -0.11)">
       <defs>
        <path id="DejaVuSans-2e" d="M 684 794 
L 1344 794 
L 1344 0 
L 684 0 
L 684 794 
z
" transform="scale(0.015625)"/>
        <path id="DejaVuSans-38" d="M 2034 2216 
Q 1584 2216 1326 1975 
Q 1069 1734 1069 1313 
Q 1069 891 1326 650 
Q 1584 409 2034 409 
Q 2484 409 2743 651 
Q 3003 894 3003 1313 
Q 3003 1734 2745 1975 
Q 2488 2216 2034 2216 
z
M 1403 2484 
Q 997 2584 770 2862 
Q 544 3141 544 3541 
Q 544 4100 942 4425 
Q 1341 4750 2034 4750 
Q 2731 4750 3128 4425 
Q 3525 4100 3525 3541 
Q 3525 3141 3298 2862 
Q 3072 2584 2669 2484 
Q 3125 2378 3379 2068 
Q 3634 1759 3634 1313 
Q 3634 634 3220 271 
Q 2806 -91 2034 -91 
Q 1263 -91 848 271 
Q 434 634 434 1313 
Q 434 1759 690 2068 
Q 947 2378 1403 2484 
z
M 1172 3481 
Q 1172 3119 1398 2916 
Q 1625 2713 2034 2713 
Q 2441 2713 2670 2916 
Q 2900 3119 2900 3481 
Q 2900 3844 2670 4047 
Q 2441 4250 2034 4250 
Q 1625 4250 1398 4047 
Q 1172 3844 1172 3481 
z
" transform="scale(0.015625)"/>
       </defs>
       <use xlink:href="#DejaVuSans-30"/>
       <use xlink:href="#DejaVuSans-2e" transform="translate(63.623047 0)"/>
       <use xlink:href="#DejaVuSans-38" transform="translate(95.410156 0)"/>
      </g>
     </g>
    </g>
    <g id="ytick_9">
     <g id="line2d_21">
      <path d="M 269.38125 268.311322 
L 444.08125 268.311322 
" clip-path="url(#p2bdb694d23)" style="fill: none; stroke: #b0b0b0; stroke-opacity: 0.2; stroke-width: 0.6; stroke-linecap: square"/>
     </g>
     <g id="line2d_22">
      <g>
       <use xlink:href="#mdc46eeb3a9" x="269.38125" y="268.311322" style="stroke: #000000; stroke-width: 0.8"/>
      </g>
     </g>
     <g id="text_12">
      <!-- 1.0 -->
      <g transform="translate(244.887813 272.490463) scale(0.11 -0.11)">
       <use xlink:href="#DejaVuSans-31"/>
       <use xlink:href="#DejaVuSans-2e" transform="translate(63.623047 0)"/>
       <use xlink:href="#DejaVuSans-30" transform="translate(95.410156 0)"/>
      </g>
     </g>
    </g>
    <g id="ytick_10">
     <g id="line2d_23">
      <path d="M 269.38125 231.499078 
L 444.08125 231.499078 
" clip-path="url(#p2bdb694d23)" style="fill: none; stroke: #b0b0b0; stroke-opacity: 0.2; stroke-width: 0.6; stroke-linecap: square"/>
     </g>
     <g id="line2d_24">
      <g>
       <use xlink:href="#mdc46eeb3a9" x="269.38125" y="231.499078" style="stroke: #000000; stroke-width: 0.8"/>
      </g>
     </g>
     <g id="text_13">
      <!-- 1.2 -->
      <g transform="translate(244.887813 235.678219) scale(0.11 -0.11)">
       <use xlink:href="#DejaVuSans-31"/>
       <use xlink:href="#DejaVuSans-2e" transform="translate(63.623047 0)"/>
       <use xlink:href="#DejaVuSans-32" transform="translate(95.410156 0)"/>
      </g>
     </g>
    </g>
    <g id="ytick_11">
     <g id="line2d_25">
      <path d="M 269.38125 194.686835 
L 444.08125 194.686835 
" clip-path="url(#p2bdb694d23)" style="fill: none; stroke: #b0b0b0; stroke-opacity: 0.2; stroke-width: 0.6; stroke-linecap: square"/>
     </g>
     <g id="line2d_26">
      <g>
       <use xlink:href="#mdc46eeb3a9" x="269.38125" y="194.686835" style="stroke: #000000; stroke-width: 0.8"/>
      </g>
     </g>
     <g id="text_14">
      <!-- 1.4 -->
      <g transform="translate(244.887813 198.865975) scale(0.11 -0.11)">
       <defs>
        <path id="DejaVuSans-34" d="M 2419 4116 
L 825 1625 
L 2419 1625 
L 2419 4116 
z
M 2253 4666 
L 3047 4666 
L 3047 1625 
L 3713 1625 
L 3713 1100 
L 3047 1100 
L 3047 0 
L 2419 0 
L 2419 1100 
L 313 1100 
L 313 1709 
L 2253 4666 
z
" transform="scale(0.015625)"/>
       </defs>
       <use xlink:href="#DejaVuSans-31"/>
       <use xlink:href="#DejaVuSans-2e" transform="translate(63.623047 0)"/>
       <use xlink:href="#DejaVuSans-34" transform="translate(95.410156 0)"/>
      </g>
     </g>
    </g>
    <g id="ytick_12">
     <g id="line2d_27">
      <path d="M 269.38125 157.874591 
L 444.08125 157.874591 
" clip-path="url(#p2bdb694d23)" style="fill: none; stroke: #b0b0b0; stroke-opacity: 0.2; stroke-width: 0.6; stroke-linecap: square"/>
     </g>
     <g id="line2d_28">
      <g>
       <use xlink:href="#mdc46eeb3a9" x="269.38125" y="157.874591" style="stroke: #000000; stroke-width: 0.8"/>
      </g>
     </g>
     <g id="text_15">
      <!-- 1.6 -->
      <g transform="translate(244.887813 162.053731) scale(0.11 -0.11)">
       <defs>
        <path id="DejaVuSans-36" d="M 2113 2584 
Q 1688 2584 1439 2293 
Q 1191 2003 1191 1497 
Q 1191 994 1439 701 
Q 1688 409 2113 409 
Q 2538 409 2786 701 
Q 3034 994 3034 1497 
Q 3034 2003 2786 2293 
Q 2538 2584 2113 2584 
z
M 3366 4563 
L 3366 3988 
Q 3128 4100 2886 4159 
Q 2644 4219 2406 4219 
Q 1781 4219 1451 3797 
Q 1122 3375 1075 2522 
Q 1259 2794 1537 2939 
Q 1816 3084 2150 3084 
Q 2853 3084 3261 2657 
Q 3669 2231 3669 1497 
Q 3669 778 3244 343 
Q 2819 -91 2113 -91 
Q 1303 -91 875 529 
Q 447 1150 447 2328 
Q 447 3434 972 4092 
Q 1497 4750 2381 4750 
Q 2619 4750 2861 4703 
Q 3103 4656 3366 4563 
z
" transform="scale(0.015625)"/>
       </defs>
       <use xlink:href="#DejaVuSans-31"/>
       <use xlink:href="#DejaVuSans-2e" transform="translate(63.623047 0)"/>
       <use xlink:href="#DejaVuSans-36" transform="translate(95.410156 0)"/>
      </g>
     </g>
    </g>
    <g id="ytick_13">
     <g id="line2d_29">
      <path d="M 269.38125 121.062347 
L 444.08125 121.062347 
" clip-path="url(#p2bdb694d23)" style="fill: none; stroke: #b0b0b0; stroke-opacity: 0.2; stroke-width: 0.6; stroke-linecap: square"/>
     </g>
     <g id="line2d_30">
      <g>
       <use xlink:href="#mdc46eeb3a9" x="269.38125" y="121.062347" style="stroke: #000000; stroke-width: 0.8"/>
      </g>
     </g>
     <g id="text_16">
      <!-- 1.8 -->
      <g transform="translate(244.887813 125.241488) scale(0.11 -0.11)">
       <use xlink:href="#DejaVuSans-31"/>
       <use xlink:href="#DejaVuSans-2e" transform="translate(63.623047 0)"/>
       <use xlink:href="#DejaVuSans-38" transform="translate(95.410156 0)"/>
      </g>
     </g>
    </g>
    <g id="ytick_14">
     <g id="line2d_31">
      <path d="M 269.38125 84.250103 
L 444.08125 84.250103 
" clip-path="url(#p2bdb694d23)" style="fill: none; stroke: #b0b0b0; stroke-opacity: 0.2; stroke-width: 0.6; stroke-linecap: square"/>
     </g>
     <g id="line2d_32">
      <g>
       <use xlink:href="#mdc46eeb3a9" x="269.38125" y="84.250103" style="stroke: #000000; stroke-width: 0.8"/>
      </g>
     </g>
     <g id="text_17">
      <!-- 2.0 -->
      <g transform="translate(244.887813 88.429244) scale(0.11 -0.11)">
       <use xlink:href="#DejaVuSans-32"/>
       <use xlink:href="#DejaVuSans-2e" transform="translate(63.623047 0)"/>
       <use xlink:href="#DejaVuSans-30" transform="translate(95.410156 0)"/>
      </g>
     </g>
    </g>
    <g id="ytick_15">
     <g id="line2d_33">
      <path d="M 269.38125 47.43786 
L 444.08125 47.43786 
" clip-path="url(#p2bdb694d23)" style="fill: none; stroke: #b0b0b0; stroke-opacity: 0.2; stroke-width: 0.6; stroke-linecap: square"/>
     </g>
     <g id="line2d_34">
      <g>
       <use xlink:href="#mdc46eeb3a9" x="269.38125" y="47.43786" style="stroke: #000000; stroke-width: 0.8"/>
      </g>
     </g>
     <g id="text_18">
      <!-- 2.2 -->
      <g transform="translate(244.887813 51.617) scale(0.11 -0.11)">
       <use xlink:href="#DejaVuSans-32"/>
       <use xlink:href="#DejaVuSans-2e" transform="translate(63.623047 0)"/>
       <use xlink:href="#DejaVuSans-32" transform="translate(95.410156 0)"/>
      </g>
     </g>
    </g>
    <g id="text_19">
     <!-- normalized SD -->
     <g transform="translate(238.392188 230.259438) rotate(-90) scale(0.12 -0.12)">
      <defs>
       <path id="DejaVuSans-7a" d="M 353 3500 
L 3084 3500 
L 3084 2975 
L 922 459 
L 3084 459 
L 3084 0 
L 275 0 
L 275 525 
L 2438 3041 
L 353 3041 
L 353 3500 
z
" transform="scale(0.015625)"/>
       <path id="DejaVuSans-53" d="M 3425 4513 
L 3425 3897 
Q 3066 4069 2747 4153 
Q 2428 4238 2131 4238 
Q 1616 4238 1336 4038 
Q 1056 3838 1056 3469 
Q 1056 3159 1242 3001 
Q 1428 2844 1947 2747 
L 2328 2669 
Q 3034 2534 3370 2195 
Q 3706 1856 3706 1288 
Q 3706 609 3251 259 
Q 2797 -91 1919 -91 
Q 1588 -91 1214 -16 
Q 841 59 441 206 
L 441 856 
Q 825 641 1194 531 
Q 1563 422 1919 422 
Q 2459 422 2753 634 
Q 3047 847 3047 1241 
Q 3047 1584 2836 1778 
Q 2625 1972 2144 2069 
L 1759 2144 
Q 1053 2284 737 2584 
Q 422 2884 422 3419 
Q 422 4038 858 4394 
Q 1294 4750 2059 4750 
Q 2388 4750 2728 4690 
Q 3069 4631 3425 4513 
z
" transform="scale(0.015625)"/>
       <path id="DejaVuSans-44" d="M 1259 4147 
L 1259 519 
L 2022 519 
Q 2988 519 3436 956 
Q 3884 1394 3884 2338 
Q 3884 3275 3436 3711 
Q 2988 4147 2022 4147 
L 1259 4147 
z
M 628 4666 
L 1925 4666 
Q 3281 4666 3915 4102 
Q 4550 3538 4550 2338 
Q 4550 1131 3912 565 
Q 3275 0 1925 0 
L 628 0 
L 628 4666 
z
" transform="scale(0.015625)"/>
      </defs>
      <use xlink:href="#DejaVuSans-6e"/>
      <use xlink:href="#DejaVuSans-6f" transform="translate(63.378906 0)"/>
      <use xlink:href="#DejaVuSans-72" transform="translate(124.560547 0)"/>
      <use xlink:href="#DejaVuSans-6d" transform="translate(163.923828 0)"/>
      <use xlink:href="#DejaVuSans-61" transform="translate(261.335938 0)"/>
      <use xlink:href="#DejaVuSans-6c" transform="translate(322.615234 0)"/>
      <use xlink:href="#DejaVuSans-69" transform="translate(350.398438 0)"/>
      <use xlink:href="#DejaVuSans-7a" transform="translate(378.181641 0)"/>
      <use xlink:href="#DejaVuSans-65" transform="translate(430.671875 0)"/>
      <use xlink:href="#DejaVuSans-64" transform="translate(492.195312 0)"/>
      <use xlink:href="#DejaVuSans-20" transform="translate(555.671875 0)"/>
      <use xlink:href="#DejaVuSans-53" transform="translate(587.458984 0)"/>
      <use xlink:href="#DejaVuSans-44" transform="translate(650.935547 0)"/>
     </g>
    </g>
   </g>
   <g id="FillBetweenPolyCollection_2">
    <defs>
     <path id="m9170d1dd08" d="M 383.461069 -66.737983 
L 330.001431 -66.737983 
L 325.013026 -69.529961 
L 319.775558 -72.321939 
L 314.413654 -75.113916 
L 309.060602 -77.905894 
L 303.849239 -80.697872 
L 298.903312 -83.48985 
L 294.330361 -86.281827 
L 290.216923 -89.073805 
L 286.626524 -91.865783 
L 283.600464 -94.657761 
L 281.161007 -97.449738 
L 279.316166 -100.241716 
L 278.065025 -103.033694 
L 277.402449 -105.825672 
L 277.322159 -108.617649 
L 277.817542 -111.409627 
L 278.880067 -114.201605 
L 280.495791 -116.993583 
L 282.640905 -119.78556 
L 285.277545 -122.577538 
L 288.351018 -125.369516 
L 291.789276 -128.161493 
L 295.504922 -130.953471 
L 299.399502 -133.745449 
L 303.369387 -136.537427 
L 307.312349 -139.329404 
L 311.133937 -142.121382 
L 314.752987 -144.91336 
L 318.105818 -147.705338 
L 321.148961 -150.497315 
L 323.860361 -153.289293 
L 326.239138 -156.081271 
L 328.30396 -158.873249 
L 330.090126 -161.665226 
L 331.645505 -164.457204 
L 333.02561 -167.249182 
L 334.288178 -170.04116 
L 335.487764 -172.833137 
L 336.670922 -175.625115 
L 337.872457 -178.417093 
L 339.113157 -181.209071 
L 340.399154 -184.001048 
L 341.722893 -186.793026 
L 343.065452 -189.585004 
L 344.399854 -192.376982 
L 345.694923 -195.168959 
L 346.919263 -197.960937 
L 348.04496 -200.752915 
L 349.05067 -203.544893 
L 349.923823 -206.33687 
L 350.661732 -209.128848 
L 351.271484 -211.920826 
L 351.768622 -214.712804 
L 352.174767 -217.504781 
L 352.514471 -220.296759 
L 352.811773 -223.088737 
L 353.086964 -225.880714 
L 353.354072 -228.672692 
L 353.619476 -231.46467 
L 353.881837 -234.256648 
L 354.133333 -237.048625 
L 354.361918 -239.840603 
L 354.554177 -242.632581 
L 354.698243 -245.424559 
L 354.786264 -248.216536 
L 354.816006 -251.008514 
L 354.791354 -253.800492 
L 354.721685 -256.59247 
L 354.62031 -259.384447 
L 354.502313 -262.176425 
L 354.382278 -264.968403 
L 354.272349 -267.760381 
L 354.180997 -270.552358 
L 354.112709 -273.344336 
L 354.068555 -276.136314 
L 354.047416 -278.928292 
L 354.04746 -281.720269 
L 354.067454 -284.512247 
L 354.107545 -287.304225 
L 354.169298 -290.096203 
L 354.255055 -292.88818 
L 354.36679 -295.680158 
L 354.504854 -298.472136 
L 354.666939 -301.264114 
L 354.847592 -304.056091 
L 355.038387 -306.848069 
L 355.228763 -309.640047 
L 355.40733 -312.432025 
L 355.563402 -315.224002 
L 355.688469 -318.01598 
L 355.777352 -320.807958 
L 355.828894 -323.599936 
L 355.846074 -326.391913 
L 355.83557 -329.183891 
L 355.80683 -331.975869 
L 355.770805 -334.767846 
L 355.738513 -337.559824 
L 355.719647 -340.351802 
L 355.721426 -343.14378 
L 357.741074 -343.14378 
L 357.741074 -343.14378 
L 357.742853 -340.351802 
L 357.723987 -337.559824 
L 357.691695 -334.767846 
L 357.65567 -331.975869 
L 357.62693 -329.183891 
L 357.616426 -326.391913 
L 357.633606 -323.599936 
L 357.685148 -320.807958 
L 357.774031 -318.01598 
L 357.899098 -315.224002 
L 358.05517 -312.432025 
L 358.233737 -309.640047 
L 358.424113 -306.848069 
L 358.614908 -304.056091 
L 358.795561 -301.264114 
L 358.957646 -298.472136 
L 359.09571 -295.680158 
L 359.207445 -292.88818 
L 359.293202 -290.096203 
L 359.354955 -287.304225 
L 359.395046 -284.512247 
L 359.41504 -281.720269 
L 359.415084 -278.928292 
L 359.393945 -276.136314 
L 359.349791 -273.344336 
L 359.281503 -270.552358 
L 359.190151 -267.760381 
L 359.080222 -264.968403 
L 358.960187 -262.176425 
L 358.84219 -259.384447 
L 358.740815 -256.59247 
L 358.671146 -253.800492 
L 358.646494 -251.008514 
L 358.676236 -248.216536 
L 358.764257 -245.424559 
L 358.908323 -242.632581 
L 359.100582 -239.840603 
L 359.329167 -237.048625 
L 359.580663 -234.256648 
L 359.843024 -231.46467 
L 360.108428 -228.672692 
L 360.375536 -225.880714 
L 360.650727 -223.088737 
L 360.948029 -220.296759 
L 361.287733 -217.504781 
L 361.693878 -214.712804 
L 362.191016 -211.920826 
L 362.800768 -209.128848 
L 363.538677 -206.33687 
L 364.41183 -203.544893 
L 365.41754 -200.752915 
L 366.543237 -197.960937 
L 367.767577 -195.168959 
L 369.062646 -192.376982 
L 370.397048 -189.585004 
L 371.739607 -186.793026 
L 373.063346 -184.001048 
L 374.349343 -181.209071 
L 375.590043 -178.417093 
L 376.791578 -175.625115 
L 377.974736 -172.833137 
L 379.174322 -170.04116 
L 380.43689 -167.249182 
L 381.816995 -164.457204 
L 383.372374 -161.665226 
L 385.15854 -158.873249 
L 387.223362 -156.081271 
L 389.602139 -153.289293 
L 392.313539 -150.497315 
L 395.356682 -147.705338 
L 398.709513 -144.91336 
L 402.328563 -142.121382 
L 406.150151 -139.329404 
L 410.093113 -136.537427 
L 414.062998 -133.745449 
L 417.957578 -130.953471 
L 421.673224 -128.161493 
L 425.111482 -125.369516 
L 428.184955 -122.577538 
L 430.821595 -119.78556 
L 432.966709 -116.993583 
L 434.582433 -114.201605 
L 435.644958 -111.409627 
L 436.140341 -108.617649 
L 436.060051 -105.825672 
L 435.397475 -103.033694 
L 434.146334 -100.241716 
L 432.301493 -97.449738 
L 429.862036 -94.657761 
L 426.835976 -91.865783 
L 423.245577 -89.073805 
L 419.132139 -86.281827 
L 414.559188 -83.48985 
L 409.613261 -80.697872 
L 404.401898 -77.905894 
L 399.048846 -75.113916 
L 393.686942 -72.321939 
L 388.449474 -69.529961 
L 383.461069 -66.737983 
z
" style="stroke: #0f766e; stroke-opacity: 0.35"/>
    </defs>
    <g clip-path="url(#p2bdb694d23)">
     <use xlink:href="#m9170d1dd08" x="0" y="391.52407" style="fill: #0f766e; fill-opacity: 0.35; stroke: #0f766e; stroke-opacity: 0.35"/>
    </g>
   </g>
   <g id="LineCollection_2">
    <path d="M 317.026705 274.820497 
L 396.435795 274.820497 
" clip-path="url(#p2bdb694d23)" style="fill: none; stroke: #0f766e; stroke-width: 1.5"/>
   </g>
   <g id="patch_8">
    <path d="M 269.38125 338.606376 
L 269.38125 34.56 
" style="fill: none; stroke: #000000; stroke-width: 0.8; stroke-linejoin: miter; stroke-linecap: square"/>
   </g>
   <g id="patch_9">
    <path d="M 444.08125 338.606376 
L 444.08125 34.56 
" style="fill: none; stroke: #000000; stroke-width: 0.8; stroke-linejoin: miter; stroke-linecap: square"/>
   </g>
   <g id="patch_10">
    <path d="M 269.38125 338.606376 
L 444.08125 338.606376 
" style="fill: none; stroke: #000000; stroke-width: 0.8; stroke-linejoin: miter; stroke-linecap: square"/>
   </g>
   <g id="patch_11">
    <path d="M 269.38125 34.56 
L 444.08125 34.56 
" style="fill: none; stroke: #000000; stroke-width: 0.8; stroke-linejoin: miter; stroke-linecap: square"/>
   </g>
  </g>
  <g id="axes_3">
   <g id="patch_12">
    <path d="M 494.95125 338.606376 
L 669.65125 338.606376 
L 669.65125 34.56 
L 494.95125 34.56 
z
" style="fill: #ffffff"/>
   </g>
   <g id="matplotlib.axis_5">
    <g id="xtick_3">
     <g id="line2d_35">
      <path d="M 582.30125 338.606376 
L 582.30125 34.56 
" clip-path="url(#pbc5ac67d3d)" style="fill: none; stroke: #b0b0b0; stroke-opacity: 0.2; stroke-width: 0.6; stroke-linecap: square"/>
     </g>
     <g id="line2d_36">
      <g>
       <use xlink:href="#m8327125974" x="582.30125" y="338.606376" style="stroke: #000000; stroke-width: 0.8"/>
      </g>
     </g>
     <g id="text_20">
      <!-- Speech rate -->
      <g transform="translate(517.607757 370.855775) rotate(-15) scale(0.11 -0.11)">
       <defs>
        <path id="DejaVuSans-70" d="M 1159 525 
L 1159 -1331 
L 581 -1331 
L 581 3500 
L 1159 3500 
L 1159 2969 
Q 1341 3281 1617 3432 
Q 1894 3584 2278 3584 
Q 2916 3584 3314 3078 
Q 3713 2572 3713 1747 
Q 3713 922 3314 415 
Q 2916 -91 2278 -91 
Q 1894 -91 1617 61 
Q 1341 213 1159 525 
z
M 3116 1747 
Q 3116 2381 2855 2742 
Q 2594 3103 2138 3103 
Q 1681 3103 1420 2742 
Q 1159 2381 1159 1747 
Q 1159 1113 1420 752 
Q 1681 391 2138 391 
Q 2594 391 2855 752 
Q 3116 1113 3116 1747 
z
" transform="scale(0.015625)"/>
       </defs>
       <use xlink:href="#DejaVuSans-53"/>
       <use xlink:href="#DejaVuSans-70" transform="translate(63.476562 0)"/>
       <use xlink:href="#DejaVuSans-65" transform="translate(126.953125 0)"/>
       <use xlink:href="#DejaVuSans-65" transform="translate(188.476562 0)"/>
       <use xlink:href="#DejaVuSans-63" transform="translate(250 0)"/>
       <use xlink:href="#DejaVuSans-68" transform="translate(304.980469 0)"/>
       <use xlink:href="#DejaVuSans-20" transform="translate(368.359375 0)"/>
       <use xlink:href="#DejaVuSans-72" transform="translate(400.146484 0)"/>
       <use xlink:href="#DejaVuSans-61" transform="translate(441.259766 0)"/>
       <use xlink:href="#DejaVuSans-74" transform="translate(502.539062 0)"/>
       <use xlink:href="#DejaVuSans-65" transform="translate(541.748047 0)"/>
      </g>
     </g>
    </g>
   </g>
   <g id="matplotlib.axis_6">
    <g id="ytick_16">
     <g id="line2d_37">
      <path d="M 494.95125 291.911565 
L 669.65125 291.911565 
" clip-path="url(#pbc5ac67d3d)" style="fill: none; stroke: #b0b0b0; stroke-opacity: 0.2; stroke-width: 0.6; stroke-linecap: square"/>
     </g>
     <g id="line2d_38">
      <g>
       <use xlink:href="#mdc46eeb3a9" x="494.95125" y="291.911565" style="stroke: #000000; stroke-width: 0.8"/>
      </g>
     </g>
     <g id="text_21">
      <!-- 1 -->
      <g transform="translate(480.9525 296.090706) scale(0.11 -0.11)">
       <use xlink:href="#DejaVuSans-31"/>
      </g>
     </g>
    </g>
    <g id="ytick_17">
     <g id="line2d_39">
      <path d="M 494.95125 231.537105 
L 669.65125 231.537105 
" clip-path="url(#pbc5ac67d3d)" style="fill: none; stroke: #b0b0b0; stroke-opacity: 0.2; stroke-width: 0.6; stroke-linecap: square"/>
     </g>
     <g id="line2d_40">
      <g>
       <use xlink:href="#mdc46eeb3a9" x="494.95125" y="231.537105" style="stroke: #000000; stroke-width: 0.8"/>
      </g>
     </g>
     <g id="text_22">
      <!-- 2 -->
      <g transform="translate(480.9525 235.716246) scale(0.11 -0.11)">
       <use xlink:href="#DejaVuSans-32"/>
      </g>
     </g>
    </g>
    <g id="ytick_18">
     <g id="line2d_41">
      <path d="M 494.95125 171.162645 
L 669.65125 171.162645 
" clip-path="url(#pbc5ac67d3d)" style="fill: none; stroke: #b0b0b0; stroke-opacity: 0.2; stroke-width: 0.6; stroke-linecap: square"/>
     </g>
     <g id="line2d_42">
      <g>
       <use xlink:href="#mdc46eeb3a9" x="494.95125" y="171.162645" style="stroke: #000000; stroke-width: 0.8"/>
      </g>
     </g>
     <g id="text_23">
      <!-- 3 -->
      <g transform="translate(480.9525 175.341786) scale(0.11 -0.11)">
       <use xlink:href="#DejaVuSans-33"/>
      </g>
     </g>
    </g>
    <g id="ytick_19">
     <g id="line2d_43">
      <path d="M 494.95125 110.788186 
L 669.65125 110.788186 
" clip-path="url(#pbc5ac67d3d)" style="fill: none; stroke: #b0b0b0; stroke-opacity: 0.2; stroke-width: 0.6; stroke-linecap: square"/>
     </g>
     <g id="line2d_44">
      <g>
       <use xlink:href="#mdc46eeb3a9" x="494.95125" y="110.788186" style="stroke: #000000; stroke-width: 0.8"/>
      </g>
     </g>
     <g id="text_24">
      <!-- 4 -->
      <g transform="translate(480.9525 114.967326) scale(0.11 -0.11)">
       <use xlink:href="#DejaVuSans-34"/>
      </g>
     </g>
    </g>
    <g id="ytick_20">
     <g id="line2d_45">
      <path d="M 494.95125 50.413726 
L 669.65125 50.413726 
" clip-path="url(#pbc5ac67d3d)" style="fill: none; stroke: #b0b0b0; stroke-opacity: 0.2; stroke-width: 0.6; stroke-linecap: square"/>
     </g>
     <g id="line2d_46">
      <g>
       <use xlink:href="#mdc46eeb3a9" x="494.95125" y="50.413726" style="stroke: #000000; stroke-width: 0.8"/>
      </g>
     </g>
     <g id="text_25">
      <!-- 5 -->
      <g transform="translate(480.9525 54.592866) scale(0.11 -0.11)">
       <use xlink:href="#DejaVuSans-35"/>
      </g>
     </g>
    </g>
    <g id="text_26">
     <!-- segments / second -->
     <g transform="translate(474.456875 243.260688) rotate(-90) scale(0.12 -0.12)">
      <defs>
       <path id="DejaVuSans-67" d="M 2906 1791 
Q 2906 2416 2648 2759 
Q 2391 3103 1925 3103 
Q 1463 3103 1205 2759 
Q 947 2416 947 1791 
Q 947 1169 1205 825 
Q 1463 481 1925 481 
Q 2391 481 2648 825 
Q 2906 1169 2906 1791 
z
M 3481 434 
Q 3481 -459 3084 -895 
Q 2688 -1331 1869 -1331 
Q 1566 -1331 1297 -1286 
Q 1028 -1241 775 -1147 
L 775 -588 
Q 1028 -725 1275 -790 
Q 1522 -856 1778 -856 
Q 2344 -856 2625 -561 
Q 2906 -266 2906 331 
L 2906 616 
Q 2728 306 2450 153 
Q 2172 0 1784 0 
Q 1141 0 747 490 
Q 353 981 353 1791 
Q 353 2603 747 3093 
Q 1141 3584 1784 3584 
Q 2172 3584 2450 3431 
Q 2728 3278 2906 2969 
L 2906 3500 
L 3481 3500 
L 3481 434 
z
" transform="scale(0.015625)"/>
       <path id="DejaVuSans-2f" d="M 1625 4666 
L 2156 4666 
L 531 -594 
L 0 -594 
L 1625 4666 
z
" transform="scale(0.015625)"/>
      </defs>
      <use xlink:href="#DejaVuSans-73"/>
      <use xlink:href="#DejaVuSans-65" transform="translate(52.099609 0)"/>
      <use xlink:href="#DejaVuSans-67" transform="translate(113.623047 0)"/>
      <use xlink:href="#DejaVuSans-6d" transform="translate(177.099609 0)"/>
      <use xlink:href="#DejaVuSans-65" transform="translate(274.511719 0)"/>
      <use xlink:href="#DejaVuSans-6e" transform="translate(336.035156 0)"/>
      <use xlink:href="#DejaVuSans-74" transform="translate(399.414062 0)"/>
      <use xlink:href="#DejaVuSans-73" transform="translate(438.623047 0)"/>
      <use xlink:href="#DejaVuSans-20" transform="translate(490.722656 0)"/>
      <use xlink:href="#DejaVuSans-2f" transform="translate(522.509766 0)"/>
      <use xlink:href="#DejaVuSans-20" transform="translate(556.201172 0)"/>
      <use xlink:href="#DejaVuSans-73" transform="translate(587.988281 0)"/>
      <use xlink:href="#DejaVuSans-65" transform="translate(640.087891 0)"/>
      <use xlink:href="#DejaVuSans-63" transform="translate(701.611328 0)"/>
      <use xlink:href="#DejaVuSans-6f" transform="translate(756.591797 0)"/>
      <use xlink:href="#DejaVuSans-6e" transform="translate(817.773438 0)"/>
      <use xlink:href="#DejaVuSans-64" transform="translate(881.152344 0)"/>
     </g>
    </g>
   </g>
   <g id="FillBetweenPolyCollection_3">
    <defs>
     <path id="m074de92b88" d="M 596.231263 -66.737983 
L 568.371237 -66.737983 
L 564.783802 -69.529961 
L 560.733905 -72.321939 
L 556.283433 -75.113916 
L 551.520714 -77.905894 
L 546.554653 -80.697872 
L 541.506428 -83.48985 
L 536.499735 -86.281827 
L 531.650856 -89.073805 
L 527.059866 -91.865783 
L 522.804264 -94.657761 
L 518.93603 -97.449738 
L 515.482628 -100.241716 
L 512.451776 -103.033694 
L 509.83894 -105.825672 
L 507.635856 -108.617649 
L 505.838005 -111.409627 
L 504.449251 -114.201605 
L 503.482595 -116.993583 
L 502.957112 -119.78556 
L 502.892159 -122.577538 
L 503.30056 -125.369516 
L 504.182561 -128.161493 
L 505.521895 -130.953471 
L 507.284646 -133.745449 
L 509.420926 -136.537427 
L 511.868934 -139.329404 
L 514.560682 -142.121382 
L 517.428536 -144.91336 
L 520.411541 -147.705338 
L 523.460416 -150.497315 
L 526.540131 -153.289293 
L 529.629342 -156.081271 
L 532.716642 -158.873249 
L 535.794469 -161.665226 
L 538.852284 -164.457204 
L 541.871003 -167.249182 
L 544.82042 -170.04116 
L 547.660545 -172.833137 
L 550.346687 -175.625115 
L 552.837057 -178.417093 
L 555.100946 -181.209071 
L 557.125402 -184.001048 
L 558.918648 -186.793026 
L 560.509287 -189.585004 
L 561.941306 -192.376982 
L 563.265866 -195.168959 
L 564.531613 -197.960937 
L 565.775628 -200.752915 
L 567.017003 -203.544893 
L 568.25442 -206.33687 
L 569.468188 -209.128848 
L 570.626118 -211.920826 
L 571.691774 -214.712804 
L 572.633164 -217.504781 
L 573.429973 -220.296759 
L 574.077926 -223.088737 
L 574.589621 -225.880714 
L 574.992007 -228.672692 
L 575.321342 -231.46467 
L 575.616913 -234.256648 
L 575.914867 -237.048625 
L 576.243308 -239.840603 
L 576.619395 -242.632581 
L 577.048651 -245.424559 
L 577.526224 -248.216536 
L 578.039468 -251.008514 
L 578.571119 -253.800492 
L 579.102369 -256.59247 
L 579.615377 -259.384447 
L 580.095001 -262.176425 
L 580.52977 -264.968403 
L 580.912224 -267.760381 
L 581.238803 -270.552358 
L 581.509439 -273.344336 
L 581.72696 -276.136314 
L 581.896366 -278.928292 
L 582.024059 -281.720269 
L 582.117074 -284.512247 
L 582.182389 -287.304225 
L 582.226367 -290.096203 
L 582.254355 -292.88818 
L 582.270452 -295.680158 
L 582.277398 -298.472136 
L 582.276578 -301.264114 
L 582.26808 -304.056091 
L 582.250821 -306.848069 
L 582.222761 -309.640047 
L 582.181222 -312.432025 
L 582.123386 -315.224002 
L 582.046951 -318.01598 
L 581.950924 -320.807958 
L 581.836417 -323.599936 
L 581.70728 -326.391913 
L 581.570351 -329.183891 
L 581.435144 -331.975869 
L 581.312913 -334.767846 
L 581.21518 -337.559824 
L 581.151961 -340.351802 
L 581.13008 -343.14378 
L 583.47242 -343.14378 
L 583.47242 -343.14378 
L 583.450539 -340.351802 
L 583.38732 -337.559824 
L 583.289587 -334.767846 
L 583.167356 -331.975869 
L 583.032149 -329.183891 
L 582.89522 -326.391913 
L 582.766083 -323.599936 
L 582.651576 -320.807958 
L 582.555549 -318.01598 
L 582.479114 -315.224002 
L 582.421278 -312.432025 
L 582.379739 -309.640047 
L 582.351679 -306.848069 
L 582.33442 -304.056091 
L 582.325922 -301.264114 
L 582.325102 -298.472136 
L 582.332048 -295.680158 
L 582.348145 -292.88818 
L 582.376133 -290.096203 
L 582.420111 -287.304225 
L 582.485426 -284.512247 
L 582.578441 -281.720269 
L 582.706134 -278.928292 
L 582.87554 -276.136314 
L 583.093061 -273.344336 
L 583.363697 -270.552358 
L 583.690276 -267.760381 
L 584.07273 -264.968403 
L 584.507499 -262.176425 
L 584.987123 -259.384447 
L 585.500131 -256.59247 
L 586.031381 -253.800492 
L 586.563032 -251.008514 
L 587.076276 -248.216536 
L 587.553849 -245.424559 
L 587.983105 -242.632581 
L 588.359192 -239.840603 
L 588.687633 -237.048625 
L 588.985587 -234.256648 
L 589.281158 -231.46467 
L 589.610493 -228.672692 
L 590.012879 -225.880714 
L 590.524574 -223.088737 
L 591.172527 -220.296759 
L 591.969336 -217.504781 
L 592.910726 -214.712804 
L 593.976382 -211.920826 
L 595.134312 -209.128848 
L 596.34808 -206.33687 
L 597.585497 -203.544893 
L 598.826872 -200.752915 
L 600.070887 -197.960937 
L 601.336634 -195.168959 
L 602.661194 -192.376982 
L 604.093213 -189.585004 
L 605.683852 -186.793026 
L 607.477098 -184.001048 
L 609.501554 -181.209071 
L 611.765443 -178.417093 
L 614.255813 -175.625115 
L 616.941955 -172.833137 
L 619.78208 -170.04116 
L 622.731497 -167.249182 
L 625.750216 -164.457204 
L 628.808031 -161.665226 
L 631.885858 -158.873249 
L 634.973158 -156.081271 
L 638.062369 -153.289293 
L 641.142084 -150.497315 
L 644.190959 -147.705338 
L 647.173964 -144.91336 
L 650.041818 -142.121382 
L 652.733566 -139.329404 
L 655.181574 -136.537427 
L 657.317854 -133.745449 
L 659.080605 -130.953471 
L 660.419939 -128.161493 
L 661.30194 -125.369516 
L 661.710341 -122.577538 
L 661.645388 -119.78556 
L 661.119905 -116.993583 
L 660.153249 -114.201605 
L 658.764495 -111.409627 
L 656.966644 -108.617649 
L 654.76356 -105.825672 
L 652.150724 -103.033694 
L 649.119872 -100.241716 
L 645.66647 -97.449738 
L 641.798236 -94.657761 
L 637.542634 -91.865783 
L 632.951644 -89.073805 
L 628.102765 -86.281827 
L 623.096072 -83.48985 
L 618.047847 -80.697872 
L 613.081786 -77.905894 
L 608.319067 -75.113916 
L 603.868595 -72.321939 
L 599.818698 -69.529961 
L 596.231263 -66.737983 
z
" style="stroke: #0f766e; stroke-opacity: 0.35"/>
    </defs>
    <g clip-path="url(#pbc5ac67d3d)">
     <use xlink:href="#m074de92b88" x="0" y="391.52407" style="fill: #0f766e; fill-opacity: 0.35; stroke: #0f766e; stroke-opacity: 0.35"/>
    </g>
   </g>
   <g id="LineCollection_3">
    <path d="M 542.596705 262.507623 
L 622.005795 262.507623 
" clip-path="url(#pbc5ac67d3d)" style="fill: none; stroke: #0f766e; stroke-width: 1.5"/>
   </g>
   <g id="patch_13">
    <path d="M 494.95125 338.606376 
L 494.95125 34.56 
" style="fill: none; stroke: #000000; stroke-width: 0.8; stroke-linejoin: miter; stroke-linecap: square"/>
   </g>
   <g id="patch_14">
    <path d="M 669.65125 338.606376 
L 669.65125 34.56 
" style="fill: none; stroke: #000000; stroke-width: 0.8; stroke-linejoin: miter; stroke-linecap: square"/>
   </g>
   <g id="patch_15">
    <path d="M 494.95125 338.606376 
L 669.65125 338.606376 
" style="fill: none; stroke: #000000; stroke-width: 0.8; stroke-linejoin: miter; stroke-linecap: square"/>
   </g>
   <g id="patch_16">
    <path d="M 494.95125 34.56 
L 669.65125 34.56 
" style="fill: none; stroke: #000000; stroke-width: 0.8; stroke-linejoin: miter; stroke-linecap: square"/>
   </g>
  </g>
  <g id="text_27">
   <!-- Control group -->
   <g transform="translate(290.599688 17.837812) scale(0.14 -0.14)">
    <defs>
     <path id="DejaVuSans-43" d="M 4122 4306 
L 4122 3641 
Q 3803 3938 3442 4084 
Q 3081 4231 2675 4231 
Q 1875 4231 1450 3742 
Q 1025 3253 1025 2328 
Q 1025 1406 1450 917 
Q 1875 428 2675 428 
Q 3081 428 3442 575 
Q 3803 722 4122 1019 
L 4122 359 
Q 3791 134 3420 21 
Q 3050 -91 2638 -91 
Q 1578 -91 968 557 
Q 359 1206 359 2328 
Q 359 3453 968 4101 
Q 1578 4750 2638 4750 
Q 3056 4750 3426 4639 
Q 3797 4528 4122 4306 
z
" transform="scale(0.015625)"/>
    </defs>
    <use xlink:href="#DejaVuSans-43"/>
    <use xlink:href="#DejaVuSans-6f" transform="translate(69.824219 0)"/>
    <use xlink:href="#DejaVuSans-6e" transform="translate(131.005859 0)"/>
    <use xlink:href="#DejaVuSans-74" transform="translate(194.384766 0)"/>
    <use xlink:href="#DejaVuSans-72" transform="translate(233.59375 0)"/>
    <use xlink:href="#DejaVuSans-6f" transform="translate(272.457031 0)"/>
    <use xlink:href="#DejaVuSans-6c" transform="translate(333.638672 0)"/>
    <use xlink:href="#DejaVuSans-20" transform="translate(361.421875 0)"/>
    <use xlink:href="#DejaVuSans-67" transform="translate(393.208984 0)"/>
    <use xlink:href="#DejaVuSans-72" transform="translate(456.685547 0)"/>
    <use xlink:href="#DejaVuSans-6f" transform="translate(495.548828 0)"/>
    <use xlink:href="#DejaVuSans-75" transform="translate(556.730469 0)"/>
    <use xlink:href="#DejaVuSans-70" transform="translate(620.109375 0)"/>
   </g>
  </g>
 </g>
 <defs>
  <clipPath id="p62d95ae426">
   <rect x="43.81125" y="34.56" width="174.7" height="304.046376"/>
  </clipPath>
  <clipPath id="p2bdb694d23">
   <rect x="269.38125" y="34.56" width="174.7" height="304.046376"/>
  </clipPath>
  <clipPath id="pbc5ac67d3d">
   <rect x="494.95125" y="34.56" width="174.7" height="304.046376"/>
  </clipPath>
 </defs>
</svg>
