<?xml version="1.0" encoding="utf-8" standalone="no"?>
<!DOCTYPE svg PUBLIC "-//W3C//DTD SVG 1.1//EN"
  "http://www.w3.org/Graphics/SVG/1.1/DTD/svg11.dtd">
<svg xmlns:xlink="http://www.w3.org/1999/xlink" width="676.88125pt" height="391.52407pt" viewBox="0 0 676.88125 391.52407" xmlns="http://www.w3.org/2000/svg" version="1.1">
 <metadata>
  <rdf:RDF xmlns:dc="http://purl.org/dc/elements/1.1/" xmlns:cc="http://creativecommons.org/ns#" xmlns:rdf="http://www.w3.org/1999/02/22-rdf-syntax-ns#">
   <cc:Work>
    <dc:type rdf:resource="http://purl.org/dc/dcmitype/StillImage"/>
    <dc:date>2026-06-14T19:07:59.214628</dc:date>
    <dc:format>image/svg+xml</dc:format>
    <dc:creator>
     <cc:Agent>
      <dc:title>Matplotlib v3.10.1, https://matplotlib.org/</dc:title>
     </cc:Agent>
    </dc:creator>
   </cc:Work>
  </rdf:RDF>
 </metadata>
 <defs>
  <style type="text/css">*{stroke-linejoin: round; stroke-linecap: butt}</style>
 </defs>
 <g id="figure_1">
  <g id="patch_1">
   <path d="M 0 391.52407 
L 676.88125 391.52407 
L 676.88125 0 
L 0 0 
z
" style="fill: #ffffff"/>
  </g>
  <g id="axes_1">
   <g id="patch_2">
    <path d="M 43.81125 338.606376 
L 213.84125 338.606376 
L 213.84125 34.56 
L 43.81125 34.56 
z
" style="fill: #ffffff"/>
   </g>
   <g id="matplotlib.axis_1">
    <g id="xtick_1">
     <g id="line2d_1">
      <path d="M 128.82625 338.606376 
L 128.82625 34.56 
" clip-path="url(#p7685f0cecb)" style="fill: none; stroke: #b0b0b0; stroke-opacity: 0.2; stroke-width: 0.6; stroke-linecap: square"/>
     </g>
     <g id="line2d_2">
      <defs>
       <path id="m1c9fb2f21c" d="M 0 0 
L 0 3.5 
" style="stroke: #000000; stroke-width: 0.8"/>
      </defs>
      <g>
       <use xlink:href="#m1c9fb2f21c" x="128.82625" y="338.606376" style="stroke: #000000; stroke-width: 0.8"/>
      </g>
     </g>
     <g id="text_1">
      <!-- Pitch variability -->
      <g transform="translate(46.310671 375.631189) rotate(-15) scale(0.11 -0.11)">
       <defs>
        <path id="DejaVuSans-50" d="M 1259 4147 
L 1259 2394 
L 2053 2394 
Q 2494 2394 2734 2622 
Q 2975 2850 2975 3272 
Q 2975 3691 2734 3919 
Q 2494 4147 2053 4147 
L 1259 4147 
z
M 628 4666 
L 2053 4666 
Q 2838 4666 3239 4311 
Q 3641 3956 3641 3272 
Q 3641 2581 3239 2228 
Q 2838 1875 2053 1875 
L 1259 1875 
L 1259 0 
L 628 0 
L 628 4666 
z
" transform="scale(0.015625)"/>
        <path id="DejaVuSans-69" d="M 603 3500 
L 1178 3500 
L 1178 0 
L 603 0 
L 603 3500 
z
M 603 4863 
L 1178 4863 
L 1178 4134 
L 603 4134 
L 603 4863 
z
" transform="scale(0.015625)"/>
        <path id="DejaVuSans-74" d="M 1172 4494 
L 1172 3500 
L 2356 3500 
L 2356 3053 
L 1172 3053 
L 1172 1153 
Q 1172 725 1289 603 
Q 1406 481 1766 481 
L 2356 481 
L 2356 0 
L 1766 0 
Q 1100 0 847 248 
Q 594 497 594 1153 
L 594 3053 
L 172 3053 
L 172 3500 
L 594 3500 
L 594 4494 
L 1172 4494 
z
" transform="scale(0.015625)"/>
        <path id="DejaVuSans-63" d="M 3122 3366 
L 3122 2828 
Q 2878 2963 2633 3030 
Q 2388 3097 2138 3097 
Q 1578 3097 1268 2742 
Q 959 2388 959 1747 
Q 959 1106 1268 751 
Q 1578 397 2138 397 
Q 2388 397 2633 464 
Q 2878 531 3122 666 
L 3122 134 
Q 2881 22 2623 -34 
Q 2366 -91 2075 -91 
Q 1284 -91 818 406 
Q 353 903 353 1747 
Q 353 2603 823 3093 
Q 1294 3584 2113 3584 
Q 2378 3584 2631 3529 
Q 2884 3475 3122 3366 
z
" transform="scale(0.015625)"/>
        <path id="DejaVuSans-68" d="M 3513 2113 
L 3513 0 
L 2938 0 
L 2938 2094 
Q 2938 2591 2744 2837 
Q 2550 3084 2163 3084 
Q 1697 3084 1428 2787 
Q 1159 2491 1159 1978 
L 1159 0 
L 581 0 
L 581 4863 
L 1159 4863 
L 1159 2956 
Q 1366 3272 1645 3428 
Q 1925 3584 2291 3584 
Q 2894 3584 3203 3211 
Q 3513 2838 3513 2113 
z
" transform="scale(0.015625)"/>
        <path id="DejaVuSans-20" transform="scale(0.015625)"/>
        <path id="DejaVuSans-76" d="M 191 3500 
L 800 3500 
L 1894 563 
L 2988 3500 
L 3597 3500 
L 2284 0 
L 1503 0 
L 191 3500 
z
" transform="scale(0.015625)"/>
        <path id="DejaVuSans-61" d="M 2194 1759 
Q 1497 1759 1228 1600 
Q 959 1441 959 1056 
Q 959 750 1161 570 
Q 1363 391 1709 391 
Q 2188 391 2477 730 
Q 2766 1069 2766 1631 
L 2766 1759 
L 2194 1759 
z
M 3341 1997 
L 3341 0 
L 2766 0 
L 2766 531 
Q 2569 213 2275 61 
Q 1981 -91 1556 -91 
Q 1019 -91 701 211 
Q 384 513 384 1019 
Q 384 1609 779 1909 
Q 1175 2209 1959 2209 
L 2766 2209 
L 2766 2266 
Q 2766 2663 2505 2880 
Q 2244 3097 1772 3097 
Q 1472 3097 1187 3025 
Q 903 2953 641 2809 
L 641 3341 
Q 956 3463 1253 3523 
Q 1550 3584 1831 3584 
Q 2591 3584 2966 3190 
Q 3341 2797 3341 1997 
z
" transform="scale(0.015625)"/>
        <path id="DejaVuSans-72" d="M 2631 2963 
Q 2534 3019 2420 3045 
Q 2306 3072 2169 3072 
Q 1681 3072 1420 2755 
Q 1159 2438 1159 1844 
L 1159 0 
L 581 0 
L 581 3500 
L 1159 3500 
L 1159 2956 
Q 1341 3275 1631 3429 
Q 1922 3584 2338 3584 
Q 2397 3584 2469 3576 
Q 2541 3569 2628 3553 
L 2631 2963 
z
" transform="scale(0.015625)"/>
        <path id="DejaVuSans-62" d="M 3116 1747 
Q 3116 2381 2855 2742 
Q 2594 3103 2138 3103 
Q 1681 3103 1420 2742 
Q 1159 2381 1159 1747 
Q 1159 1113 1420 752 
Q 1681 391 2138 391 
Q 2594 391 2855 752 
Q 3116 1113 3116 1747 
z
M 1159 2969 
Q 1341 3281 1617 3432 
Q 1894 3584 2278 3584 
Q 2916 3584 3314 3078 
Q 3713 2572 3713 1747 
Q 3713 922 3314 415 
Q 2916 -91 2278 -91 
Q 1894 -91 1617 61 
Q 1341 213 1159 525 
L 1159 0 
L 581 0 
L 581 4863 
L 1159 4863 
L 1159 2969 
z
" transform="scale(0.015625)"/>
        <path id="DejaVuSans-6c" d="M 603 4863 
L 1178 4863 
L 1178 0 
L 603 0 
L 603 4863 
z
" transform="scale(0.015625)"/>
        <path id="DejaVuSans-79" d="M 2059 -325 
Q 1816 -950 1584 -1140 
Q 1353 -1331 966 -1331 
L 506 -1331 
L 506 -850 
L 844 -850 
Q 1081 -850 1212 -737 
Q 1344 -625 1503 -206 
L 1606 56 
L 191 3500 
L 800 3500 
L 1894 763 
L 2988 3500 
L 3597 3500 
L 2059 -325 
z
" transform="scale(0.015625)"/>
       </defs>
       <use xlink:href="#DejaVuSans-50"/>
       <use xlink:href="#DejaVuSans-69" transform="translate(58.052734 0)"/>
       <use xlink:href="#DejaVuSans-74" transform="translate(85.835938 0)"/>
       <use xlink:href="#DejaVuSans-63" transform="translate(125.044922 0)"/>
       <use xlink:href="#DejaVuSans-68" transform="translate(180.025391 0)"/>
       <use xlink:href="#DejaVuSans-20" transform="translate(243.404297 0)"/>
       <use xlink:href="#DejaVuSans-76" transform="translate(275.191406 0)"/>
       <use xlink:href="#DejaVuSans-61" transform="translate(334.371094 0)"/>
       <use xlink:href="#DejaVuSans-72" transform="translate(395.650391 0)"/>
       <use xlink:href="#DejaVuSans-69" transform="translate(436.763672 0)"/>
       <use xlink:href="#DejaVuSans-61" transform="translate(464.546875 0)"/>
       <use xlink:href="#DejaVuSans-62" transform="translate(525.826172 0)"/>
       <use xlink:href="#DejaVuSans-69" transform="translate(589.302734 0)"/>
       <use xlink:href="#DejaVuSans-6c" transform="translate(617.085938 0)"/>
       <use xlink:href="#DejaVuSans-69" transform="translate(644.869141 0)"/>
       <use xlink:href="#DejaVuSans-74" transform="translate(672.652344 0)"/>
       <use xlink:href="#DejaVuSans-79" transform="translate(711.861328 0)"/>
      </g>
     </g>
    </g>
   </g>
   <g id="matplotlib.axis_2">
    <g id="ytick_1">
     <g id="line2d_3">
      <path d="M 43.81125 305.286514 
L 213.84125 305.286514 
" clip-path="url(#p7685f0cecb)" style="fill: none; stroke: #b0b0b0; stroke-opacity: 0.2; stroke-width: 0.6; stroke-linecap: square"/>
     </g>
     <g id="line2d_4">
      <defs>
       <path id="m9ba1470aea" d="M 0 0 
L -3.5 0 
" style="stroke: #000000; stroke-width: 0.8"/>
      </defs>
      <g>
       <use xlink:href="#m9ba1470aea" x="43.81125" y="305.286514" style="stroke: #000000; stroke-width: 0.8"/>
      </g>
     </g>
     <g id="text_2">
      <!-- 4 -->
      <g transform="translate(29.8125 309.465654) scale(0.11 -0.11)">
       <defs>
        <path id="DejaVuSans-34" d="M 2419 4116 
L 825 1625 
L 2419 1625 
L 2419 4116 
z
M 2253 4666 
L 3047 4666 
L 3047 1625 
L 3713 1625 
L 3713 1100 
L 3047 1100 
L 3047 0 
L 2419 0 
L 2419 1100 
L 313 1100 
L 313 1709 
L 2253 4666 
z
" transform="scale(0.015625)"/>
       </defs>
       <use xlink:href="#DejaVuSans-34"/>
      </g>
     </g>
    </g>
    <g id="ytick_2">
     <g id="line2d_5">
      <path d="M 43.81125 265.480343 
L 213.84125 265.480343 
" clip-path="url(#p7685f0cecb)" style="fill: none; stroke: #b0b0b0; stroke-opacity: 0.2; stroke-width: 0.6; stroke-linecap: square"/>
     </g>
     <g id="line2d_6">
      <g>
       <use xlink:href="#m9ba1470aea" x="43.81125" y="265.480343" style="stroke: #000000; stroke-width: 0.8"/>
      </g>
     </g>
     <g id="text_3">
      <!-- 6 -->
      <g transform="translate(29.8125 269.659484) scale(0.11 -0.11)">
       <defs>
        <path id="DejaVuSans-36" d="M 2113 2584 
Q 1688 2584 1439 2293 
Q 1191 2003 1191 1497 
Q 1191 994 1439 701 
Q 1688 409 2113 409 
Q 2538 409 2786 701 
Q 3034 994 3034 1497 
Q 3034 2003 2786 2293 
Q 2538 2584 2113 2584 
z
M 3366 4563 
L 3366 3988 
Q 3128 4100 2886 4159 
Q 2644 4219 2406 4219 
Q 1781 4219 1451 3797 
Q 1122 3375 1075 2522 
Q 1259 2794 1537 2939 
Q 1816 3084 2150 3084 
Q 2853 3084 3261 2657 
Q 3669 2231 3669 1497 
Q 3669 778 3244 343 
Q 2819 -91 2113 -91 
Q 1303 -91 875 529 
Q 447 1150 447 2328 
Q 447 3434 972 4092 
Q 1497 4750 2381 4750 
Q 2619 4750 2861 4703 
Q 3103 4656 3366 4563 
z
" transform="scale(0.015625)"/>
       </defs>
       <use xlink:href="#DejaVuSans-36"/>
      </g>
     </g>
    </g>
    <g id="ytick_3">
     <g id="line2d_7">
      <path d="M 43.81125 225.674173 
L 213.84125 225.674173 
" clip-path="url(#p7685f0cecb)" style="fill: none; stroke: #b0b0b0; stroke-opacity: 0.2; stroke-width: 0.6; stroke-linecap: square"/>
     </g>
     <g id="line2d_8">
      <g>
       <use xlink:href="#m9ba1470aea" x="43.81125" y="225.674173" style="stroke: #000000; stroke-width: 0.8"/>
      </g>
     </g>
     <g id="text_4">
      <!-- 8 -->
      <g transform="translate(29.8125 229.853314) scale(0.11 -0.11)">
       <defs>
        <path id="DejaVuSans-38" d="M 2034 2216 
Q 1584 2216 1326 1975 
Q 1069 1734 1069 1313 
Q 1069 891 1326 650 
Q 1584 409 2034 409 
Q 2484 409 2743 651 
Q 3003 894 3003 1313 
Q 3003 1734 2745 1975 
Q 2488 2216 2034 2216 
z
M 1403 2484 
Q 997 2584 770 2862 
Q 544 3141 544 3541 
Q 544 4100 942 4425 
Q 1341 4750 2034 4750 
Q 2731 4750 3128 4425 
Q 3525 4100 3525 3541 
Q 3525 3141 3298 2862 
Q 3072 2584 2669 2484 
Q 3125 2378 3379 2068 
Q 3634 1759 3634 1313 
Q 3634 634 3220 271 
Q 2806 -91 2034 -91 
Q 1263 -91 848 271 
Q 434 634 434 1313 
Q 434 1759 690 2068 
Q 947 2378 1403 2484 
z
M 1172 3481 
Q 1172 3119 1398 2916 
Q 1625 2713 2034 2713 
Q 2441 2713 2670 2916 
Q 2900 3119 2900 3481 
Q 2900 3844 2670 4047 
Q 2441 4250 2034 4250 
Q 1625 4250 1398 4047 
Q 1172 3844 1172 3481 
z
" transform="scale(0.015625)"/>
       </defs>
       <use xlink:href="#DejaVuSans-38"/>
      </g>
     </g>
    </g>
    <g id="ytick_4">
     <g id="line2d_9">
      <path d="M 43.81125 185.868003 
L 213.84125 185.868003 
" clip-path="url(#p7685f0cecb)" style="fill: none; stroke: #b0b0b0; stroke-opacity: 0.2; stroke-width: 0.6; stroke-linecap: square"/>
     </g>
     <g id="line2d_10">
      <g>
       <use xlink:href="#m9ba1470aea" x="43.81125" y="185.868003" style="stroke: #000000; stroke-width: 0.8"/>
      </g>
     </g>
     <g id="text_5">
      <!-- 10 -->
      <g transform="translate(22.81375 190.047143) scale(0.11 -0.11)">
       <defs>
        <path id="DejaVuSans-31" d="M 794 531 
L 1825 531 
L 1825 4091 
L 703 3866 
L 703 4441 
L 1819 4666 
L 2450 4666 
L 2450 531 
L 3481 531 
L 3481 0 
L 794 0 
L 794 531 
z
" transform="scale(0.015625)"/>
        <path id="DejaVuSans-30" d="M 2034 4250 
Q 1547 4250 1301 3770 
Q 1056 3291 1056 2328 
Q 1056 1369 1301 889 
Q 1547 409 2034 409 
Q 2525 409 2770 889 
Q 3016 1369 3016 2328 
Q 3016 3291 2770 3770 
Q 2525 4250 2034 4250 
z
M 2034 4750 
Q 2819 4750 3233 4129 
Q 3647 3509 3647 2328 
Q 3647 1150 3233 529 
Q 2819 -91 2034 -91 
Q 1250 -91 836 529 
Q 422 1150 422 2328 
Q 422 3509 836 4129 
Q 1250 4750 2034 4750 
z
" transform="scale(0.015625)"/>
       </defs>
       <use xlink:href="#DejaVuSans-31"/>
       <use xlink:href="#DejaVuSans-30" transform="translate(63.623047 0)"/>
      </g>
     </g>
    </g>
    <g id="ytick_5">
     <g id="line2d_11">
      <path d="M 43.81125 146.061832 
L 213.84125 146.061832 
" clip-path="url(#p7685f0cecb)" style="fill: none; stroke: #b0b0b0; stroke-opacity: 0.2; stroke-width: 0.6; stroke-linecap: square"/>
     </g>
     <g id="line2d_12">
      <g>
       <use xlink:href="#m9ba1470aea" x="43.81125" y="146.061832" style="stroke: #000000; stroke-width: 0.8"/>
      </g>
     </g>
     <g id="text_6">
      <!-- 12 -->
      <g transform="translate(22.81375 150.240973) scale(0.11 -0.11)">
       <defs>
        <path id="DejaVuSans-32" d="M 1228 531 
L 3431 531 
L 3431 0 
L 469 0 
L 469 531 
Q 828 903 1448 1529 
Q 2069 2156 2228 2338 
Q 2531 2678 2651 2914 
Q 2772 3150 2772 3378 
Q 2772 3750 2511 3984 
Q 2250 4219 1831 4219 
Q 1534 4219 1204 4116 
Q 875 4013 500 3803 
L 500 4441 
Q 881 4594 1212 4672 
Q 1544 4750 1819 4750 
Q 2544 4750 2975 4387 
Q 3406 4025 3406 3419 
Q 3406 3131 3298 2873 
Q 3191 2616 2906 2266 
Q 2828 2175 2409 1742 
Q 1991 1309 1228 531 
z
" transform="scale(0.015625)"/>
       </defs>
       <use xlink:href="#DejaVuSans-31"/>
       <use xlink:href="#DejaVuSans-32" transform="translate(63.623047 0)"/>
      </g>
     </g>
    </g>
    <g id="ytick_6">
     <g id="line2d_13">
      <path d="M 43.81125 106.255662 
L 213.84125 106.255662 
" clip-path="url(#p7685f0cecb)" style="fill: none; stroke: #b0b0b0; stroke-opacity: 0.2; stroke-width: 0.6; stroke-linecap: square"/>
     </g>
     <g id="line2d_14">
      <g>
       <use xlink:href="#m9ba1470aea" x="43.81125" y="106.255662" style="stroke: #000000; stroke-width: 0.8"/>
      </g>
     </g>
     <g id="text_7">
      <!-- 14 -->
      <g transform="translate(22.81375 110.434802) scale(0.11 -0.11)">
       <use xlink:href="#DejaVuSans-31"/>
       <use xlink:href="#DejaVuSans-34" transform="translate(63.623047 0)"/>
      </g>
     </g>
    </g>
    <g id="ytick_7">
     <g id="line2d_15">
      <path d="M 43.81125 66.449491 
L 213.84125 66.449491 
" clip-path="url(#p7685f0cecb)" style="fill: none; stroke: #b0b0b0; stroke-opacity: 0.2; stroke-width: 0.6; stroke-linecap: square"/>
     </g>
     <g id="line2d_16">
      <g>
       <use xlink:href="#m9ba1470aea" x="43.81125" y="66.449491" style="stroke: #000000; stroke-width: 0.8"/>
      </g>
     </g>
     <g id="text_8">
      <!-- 16 -->
      <g transform="translate(22.81375 70.628632) scale(0.11 -0.11)">
       <use xlink:href="#DejaVuSans-31"/>
       <use xlink:href="#DejaVuSans-36" transform="translate(63.623047 0)"/>
      </g>
     </g>
    </g>
    <g id="text_9">
     <!-- semitones -->
     <g transform="translate(16.318125 217.555376) rotate(-90) scale(0.12 -0.12)">
      <defs>
       <path id="DejaVuSans-73" d="M 2834 3397 
L 2834 2853 
Q 2591 2978 2328 3040 
Q 2066 3103 1784 3103 
Q 1356 3103 1142 2972 
Q 928 2841 928 2578 
Q 928 2378 1081 2264 
Q 1234 2150 1697 2047 
L 1894 2003 
Q 2506 1872 2764 1633 
Q 3022 1394 3022 966 
Q 3022 478 2636 193 
Q 2250 -91 1575 -91 
Q 1294 -91 989 -36 
Q 684 19 347 128 
L 347 722 
Q 666 556 975 473 
Q 1284 391 1588 391 
Q 1994 391 2212 530 
Q 2431 669 2431 922 
Q 2431 1156 2273 1281 
Q 2116 1406 1581 1522 
L 1381 1569 
Q 847 1681 609 1914 
Q 372 2147 372 2553 
Q 372 3047 722 3315 
Q 1072 3584 1716 3584 
Q 2034 3584 2315 3537 
Q 2597 3491 2834 3397 
z
" transform="scale(0.015625)"/>
       <path id="DejaVuSans-65" d="M 3597 1894 
L 3597 1613 
L 953 1613 
Q 991 1019 1311 708 
Q 1631 397 2203 397 
Q 2534 397 2845 478 
Q 3156 559 3463 722 
L 3463 178 
Q 3153 47 2828 -22 
Q 2503 -91 2169 -91 
Q 1331 -91 842 396 
Q 353 884 353 1716 
Q 353 2575 817 3079 
Q 1281 3584 2069 3584 
Q 2775 3584 3186 3129 
Q 3597 2675 3597 1894 
z
M 3022 2063 
Q 3016 2534 2758 2815 
Q 2500 3097 2075 3097 
Q 1594 3097 1305 2825 
Q 1016 2553 972 2059 
L 3022 2063 
z
" transform="scale(0.015625)"/>
       <path id="DejaVuSans-6d" d="M 3328 2828 
Q 3544 3216 3844 3400 
Q 4144 3584 4550 3584 
Q 5097 3584 5394 3201 
Q 5691 2819 5691 2113 
L 5691 0 
L 5113 0 
L 5113 2094 
Q 5113 2597 4934 2840 
Q 4756 3084 4391 3084 
Q 3944 3084 3684 2787 
Q 3425 2491 3425 1978 
L 3425 0 
L 2847 0 
L 2847 2094 
Q 2847 2600 2669 2842 
Q 2491 3084 2119 3084 
Q 1678 3084 1418 2786 
Q 1159 2488 1159 1978 
L 1159 0 
L 581 0 
L 581 3500 
L 1159 3500 
L 1159 2956 
Q 1356 3278 1631 3431 
Q 1906 3584 2284 3584 
Q 2666 3584 2933 3390 
Q 3200 3197 3328 2828 
z
" transform="scale(0.015625)"/>
       <path id="DejaVuSans-6f" d="M 1959 3097 
Q 1497 3097 1228 2736 
Q 959 2375 959 1747 
Q 959 1119 1226 758 
Q 1494 397 1959 397 
Q 2419 397 2687 759 
Q 2956 1122 2956 1747 
Q 2956 2369 2687 2733 
Q 2419 3097 1959 3097 
z
M 1959 3584 
Q 2709 3584 3137 3096 
Q 3566 2609 3566 1747 
Q 3566 888 3137 398 
Q 2709 -91 1959 -91 
Q 1206 -91 779 398 
Q 353 888 353 1747 
Q 353 2609 779 3096 
Q 1206 3584 1959 3584 
z
" transform="scale(0.015625)"/>
       <path id="DejaVuSans-6e" d="M 3513 2113 
L 3513 0 
L 2938 0 
L 2938 2094 
Q 2938 2591 2744 2837 
Q 2550 3084 2163 3084 
Q 1697 3084 1428 2787 
Q 1159 2491 1159 1978 
L 1159 0 
L 581 0 
L 581 3500 
L 1159 3500 
L 1159 2956 
Q 1366 3272 1645 3428 
Q 1925 3584 2291 3584 
Q 2894 3584 3203 3211 
Q 3513 2838 3513 2113 
z
" transform="scale(0.015625)"/>
      </defs>
      <use xlink:href="#DejaVuSans-73"/>
      <use xlink:href="#DejaVuSans-65" transform="translate(52.099609 0)"/>
      <use xlink:href="#DejaVuSans-6d" transform="translate(113.623047 0)"/>
      <use xlink:href="#DejaVuSans-69" transform="translate(211.035156 0)"/>
      <use xlink:href="#DejaVuSans-74" transform="translate(238.818359 0)"/>
      <use xlink:href="#DejaVuSans-6f" transform="translate(278.027344 0)"/>
      <use xlink:href="#DejaVuSans-6e" transform="translate(339.208984 0)"/>
      <use xlink:href="#DejaVuSans-65" transform="translate(402.587891 0)"/>
      <use xlink:href="#DejaVuSans-73" transform="translate(464.111328 0)"/>
     </g>
    </g>
   </g>
   <g id="FillBetweenPolyCollection_1">
    <defs>
     <path id="m7412e536ce" d="M 192.646616 -66.737983 
L 65.005884 -66.737983 
L 62.673226 -69.529961 
L 60.520609 -72.321939 
L 58.567461 -75.113916 
L 56.83085 -77.905894 
L 55.325134 -80.697872 
L 54.061664 -83.48985 
L 53.048538 -86.281827 
L 52.29043 -89.073805 
L 51.788485 -91.865783 
L 51.540282 -94.657761 
L 51.539886 -97.449738 
L 51.77796 -100.241716 
L 52.241954 -103.033694 
L 52.916361 -105.825672 
L 53.783029 -108.617649 
L 54.821523 -111.409627 
L 56.009534 -114.201605 
L 57.323308 -116.993583 
L 58.738106 -119.78556 
L 60.22866 -122.577538 
L 61.769635 -125.369516 
L 63.336067 -128.161493 
L 64.903786 -130.953471 
L 66.449798 -133.745449 
L 67.952629 -136.537427 
L 69.392622 -139.329404 
L 70.752182 -142.121382 
L 72.015967 -144.91336 
L 73.171024 -147.705338 
L 74.20687 -150.497315 
L 75.115526 -153.289293 
L 75.891497 -156.081271 
L 76.531707 -158.873249 
L 77.035407 -161.665226 
L 77.404035 -164.457204 
L 77.641063 -167.249182 
L 77.751815 -170.04116 
L 77.74328 -172.833137 
L 77.623909 -175.625115 
L 77.403411 -178.417093 
L 77.092551 -181.209071 
L 76.702954 -184.001048 
L 76.246911 -186.793026 
L 75.737195 -189.585004 
L 75.186891 -192.376982 
L 74.609227 -195.168959 
L 74.017427 -197.960937 
L 73.424562 -200.752915 
L 72.843416 -203.544893 
L 72.286361 -206.33687 
L 71.765238 -209.128848 
L 71.291244 -211.920826 
L 70.874832 -214.712804 
L 70.525614 -217.504781 
L 70.252274 -220.296759 
L 70.062491 -223.088737 
L 69.962875 -225.880714 
L 69.958905 -228.672692 
L 70.054896 -231.46467 
L 70.253963 -234.256648 
L 70.558013 -237.048625 
L 70.967746 -239.840603 
L 71.482678 -242.632581 
L 72.101172 -245.424559 
L 72.820499 -248.216536 
L 73.636897 -251.008514 
L 74.545662 -253.800492 
L 75.541238 -256.59247 
L 76.617327 -259.384447 
L 77.767002 -262.176425 
L 78.98283 -264.968403 
L 80.256996 -267.760381 
L 81.581434 -270.552358 
L 82.947947 -273.344336 
L 84.348336 -276.136314 
L 85.774512 -278.928292 
L 87.21861 -281.720269 
L 88.673086 -284.512247 
L 90.130808 -287.304225 
L 91.58513 -290.096203 
L 93.02996 -292.88818 
L 94.459808 -295.680158 
L 95.869819 -298.472136 
L 97.255798 -301.264114 
L 98.614213 -304.056091 
L 99.942188 -306.848069 
L 101.237484 -309.640047 
L 102.498465 -312.432025 
L 103.724051 -315.224002 
L 104.91367 -318.01598 
L 106.067195 -320.807958 
L 107.184875 -323.599936 
L 108.267268 -326.391913 
L 109.315168 -329.183891 
L 110.329533 -331.975869 
L 111.31142 -334.767846 
L 112.261918 -337.559824 
L 113.182092 -340.351802 
L 114.072933 -343.14378 
L 143.579567 -343.14378 
L 143.579567 -343.14378 
L 144.470408 -340.351802 
L 145.390582 -337.559824 
L 146.34108 -334.767846 
L 147.322967 -331.975869 
L 148.337332 -329.183891 
L 149.385232 -326.391913 
L 150.467625 -323.599936 
L 151.585305 -320.807958 
L 152.73883 -318.01598 
L 153.928449 -315.224002 
L 155.154035 -312.432025 
L 156.415016 -309.640047 
L 157.710312 -306.848069 
L 159.038287 -304.056091 
L 160.396702 -301.264114 
L 161.782681 -298.472136 
L 163.192692 -295.680158 
L 164.62254 -292.88818 
L 166.06737 -290.096203 
L 167.521692 -287.304225 
L 168.979414 -284.512247 
L 170.43389 -281.720269 
L 171.877988 -278.928292 
L 173.304164 -276.136314 
L 174.704553 -273.344336 
L 176.071066 -270.552358 
L 177.395504 -267.760381 
L 178.66967 -264.968403 
L 179.885498 -262.176425 
L 181.035173 -259.384447 
L 182.111262 -256.59247 
L 183.106838 -253.800492 
L 184.015603 -251.008514 
L 184.832001 -248.216536 
L 185.551328 -245.424559 
L 186.169822 -242.632581 
L 186.684754 -239.840603 
L 187.094487 -237.048625 
L 187.398537 -234.256648 
L 187.597604 -231.46467 
L 187.693595 -228.672692 
L 187.689625 -225.880714 
L 187.590009 -223.088737 
L 187.400226 -220.296759 
L 187.126886 -217.504781 
L 186.777668 -214.712804 
L 186.361256 -211.920826 
L 185.887262 -209.128848 
L 185.366139 -206.33687 
L 184.809084 -203.544893 
L 184.227938 -200.752915 
L 183.635073 -197.960937 
L 183.043273 -195.168959 
L 182.465609 -192.376982 
L 181.915305 -189.585004 
L 181.405589 -186.793026 
L 180.949546 -184.001048 
L 180.559949 -181.209071 
L 180.249089 -178.417093 
L 180.028591 -175.625115 
L 179.90922 -172.833137 
L 179.900685 -170.04116 
L 180.011437 -167.249182 
L 180.248465 -164.457204 
L 180.617093 -161.665226 
L 181.120793 -158.873249 
L 181.761003 -156.081271 
L 182.536974 -153.289293 
L 183.44563 -150.497315 
L 184.481476 -147.705338 
L 185.636533 -144.91336 
L 186.900318 -142.121382 
L 188.259878 -139.329404 
L 189.699871 -136.537427 
L 191.202702 -133.745449 
L 192.748714 -130.953471 
L 194.316433 -128.161493 
L 195.882865 -125.369516 
L 197.42384 -122.577538 
L 198.914394 -119.78556 
L 200.329192 -116.993583 
L 201.642966 -114.201605 
L 202.830977 -111.409627 
L 203.869471 -108.617649 
L 204.736139 -105.825672 
L 205.410546 -103.033694 
L 205.87454 -100.241716 
L 206.112614 -97.449738 
L 206.112218 -94.657761 
L 205.864015 -91.865783 
L 205.36207 -89.073805 
L 204.603962 -86.281827 
L 203.590836 -83.48985 
L 202.327366 -80.697872 
L 200.82165 -77.905894 
L 199.085039 -75.113916 
L 197.131891 -72.321939 
L 194.979274 -69.529961 
L 192.646616 -66.737983 
z
" style="stroke: #2563eb; stroke-opacity: 0.35"/>
    </defs>
    <g clip-path="url(#p7685f0cecb)">
     <use xlink:href="#m7412e536ce" x="0" y="391.52407" style="fill: #2563eb; fill-opacity: 0.35; stroke: #2563eb; stroke-opacity: 0.35"/>
    </g>
   </g>
   <g id="LineCollection_1">
    <path d="M 90.183068 225.581753 
L 167.469432 225.581753 
" clip-path="url(#p7685f0cecb)" style="fill: none; stroke: #2563eb; stroke-width: 1.5"/>
   </g>
   <g id="patch_3">
    <path d="M 43.81125 338.606376 
L 43.81125 34.56 
" style="fill: none; stroke: #000000; stroke-width: 0.8; stroke-linejoin: miter; stroke-linecap: square"/>
   </g>
   <g id="patch_4">
    <path d="M 213.84125 338.606376 
L 213.84125 34.56 
" style="fill: none; stroke: #000000; stroke-width: 0.8; stroke-linejoin: miter; stroke-linecap: square"/>
   </g>
   <g id="patch_5">
    <path d="M 43.81125 338.606376 
L 213.84125 338.606376 
" style="fill: none; stroke: #000000; stroke-width: 0.8; stroke-linejoin: miter; stroke-linecap: square"/>
   </g>
   <g id="patch_6">
    <path d="M 43.81125 34.56 
L 213.84125 34.56 
" style="fill: none; stroke: #000000; stroke-width: 0.8; stroke-linejoin: miter; stroke-linecap: square"/>
   </g>
  </g>
  <g id="axes_2">
   <g id="patch_7">
    <path d="M 271.73125 338.606376 
L 441.76125 338.606376 
L 441.76125 34.56 
L 271.73125 34.56 
z
" style="fill: #ffffff"/>
   </g>
   <g id="matplotlib.axis_3">
    <g id="xtick_2">
     <g id="line2d_17">
      <path d="M 356.74625 338.606376 
L 356.74625 34.56 
" clip-path="url(#p3f8b231aa5)" style="fill: none; stroke: #b0b0b0; stroke-opacity: 0.2; stroke-width: 0.6; stroke-linecap: square"/>
     </g>
     <g id="line2d_18">
      <g>
       <use xlink:href="#m1c9fb2f21c" x="356.74625" y="338.606376" style="stroke: #000000; stroke-width: 0.8"/>
      </g>
     </g>
     <g id="text_10">
      <!-- Loudness variability -->
      <g transform="translate(250.035135 382.114363) rotate(-15) scale(0.11 -0.11)">
       <defs>
        <path id="DejaVuSans-4c" d="M 628 4666 
L 1259 4666 
L 1259 531 
L 3531 531 
L 3531 0 
L 628 0 
L 628 4666 
z
" transform="scale(0.015625)"/>
        <path id="DejaVuSans-75" d="M 544 1381 
L 544 3500 
L 1119 3500 
L 1119 1403 
Q 1119 906 1312 657 
Q 1506 409 1894 409 
Q 2359 409 2629 706 
Q 2900 1003 2900 1516 
L 2900 3500 
L 3475 3500 
L 3475 0 
L 2900 0 
L 2900 538 
Q 2691 219 2414 64 
Q 2138 -91 1772 -91 
Q 1169 -91 856 284 
Q 544 659 544 1381 
z
M 1991 3584 
L 1991 3584 
z
" transform="scale(0.015625)"/>
        <path id="DejaVuSans-64" d="M 2906 2969 
L 2906 4863 
L 3481 4863 
L 3481 0 
L 2906 0 
L 2906 525 
Q 2725 213 2448 61 
Q 2172 -91 1784 -91 
Q 1150 -91 751 415 
Q 353 922 353 1747 
Q 353 2572 751 3078 
Q 1150 3584 1784 3584 
Q 2172 3584 2448 3432 
Q 2725 3281 2906 2969 
z
M 947 1747 
Q 947 1113 1208 752 
Q 1469 391 1925 391 
Q 2381 391 2643 752 
Q 2906 1113 2906 1747 
Q 2906 2381 2643 2742 
Q 2381 3103 1925 3103 
Q 1469 3103 1208 2742 
Q 947 2381 947 1747 
z
" transform="scale(0.015625)"/>
       </defs>
       <use xlink:href="#DejaVuSans-4c"/>
       <use xlink:href="#DejaVuSans-6f" transform="translate(53.962891 0)"/>
       <use xlink:href="#DejaVuSans-75" transform="translate(115.144531 0)"/>
       <use xlink:href="#DejaVuSans-64" transform="translate(178.523438 0)"/>
       <use xlink:href="#DejaVuSans-6e" transform="translate(242 0)"/>
       <use xlink:href="#DejaVuSans-65" transform="translate(305.378906 0)"/>
       <use xlink:href="#DejaVuSans-73" transform="translate(366.902344 0)"/>
       <use xlink:href="#DejaVuSans-73" transform="translate(419.001953 0)"/>
       <use xlink:href="#DejaVuSans-20" transform="translate(471.101562 0)"/>
       <use xlink:href="#DejaVuSans-76" transform="translate(502.888672 0)"/>
       <use xlink:href="#DejaVuSans-61" transform="translate(562.068359 0)"/>
       <use xlink:href="#DejaVuSans-72" transform="translate(623.347656 0)"/>
       <use xlink:href="#DejaVuSans-69" transform="translate(664.460938 0)"/>
       <use xlink:href="#DejaVuSans-61" transform="translate(692.244141 0)"/>
       <use xlink:href="#DejaVuSans-62" transform="translate(753.523438 0)"/>
       <use xlink:href="#DejaVuSans-69" transform="translate(817 0)"/>
       <use xlink:href="#DejaVuSans-6c" transform="translate(844.783203 0)"/>
       <use xlink:href="#DejaVuSans-69" transform="translate(872.566406 0)"/>
       <use xlink:href="#DejaVuSans-74" transform="translate(900.349609 0)"/>
       <use xlink:href="#DejaVuSans-79" transform="translate(939.558594 0)"/>
      </g>
     </g>
    </g>
   </g>
   <g id="matplotlib.axis_4">
    <g id="ytick_8">
     <g id="line2d_19">
      <path d="M 271.73125 282.52466 
L 441.76125 282.52466 
" clip-path="url(#p3f8b231aa5)" style="fill: none; stroke: #b0b0b0; stroke-opacity: 0.2; stroke-width: 0.6; stroke-linecap: square"/>
     </g>
     <g id="line2d_20">
      <g>
       <use xlink:href="#m9ba1470aea" x="271.73125" y="282.52466" style="stroke: #000000; stroke-width: 0.8"/>
      </g>
     </g>
     <g id="text_11">
      <!-- 0.8 -->
      <g transform="translate(247.237813 286.703801) scale(0.11 -0.11)">
       <defs>
        <path id="DejaVuSans-2e" d="M 684 794 
L 1344 794 
L 1344 0 
L 684 0 
L 684 794 
z
" transform="scale(0.015625)"/>
       </defs>
       <use xlink:href="#DejaVuSans-30"/>
       <use xlink:href="#DejaVuSans-2e" transform="translate(63.623047 0)"/>
       <use xlink:href="#DejaVuSans-38" transform="translate(95.410156 0)"/>
      </g>
     </g>
    </g>
    <g id="ytick_9">
     <g id="line2d_21">
      <path d="M 271.73125 215.371069 
L 441.76125 215.371069 
" clip-path="url(#p3f8b231aa5)" style="fill: none; stroke: #b0b0b0; stroke-opacity: 0.2; stroke-width: 0.6; stroke-linecap: square"/>
     </g>
     <g id="line2d_22">
      <g>
       <use xlink:href="#m9ba1470aea" x="271.73125" y="215.371069" style="stroke: #000000; stroke-width: 0.8"/>
      </g>
     </g>
     <g id="text_12">
      <!-- 1.0 -->
      <g transform="translate(247.237813 219.55021) scale(0.11 -0.11)">
       <use xlink:href="#DejaVuSans-31"/>
       <use xlink:href="#DejaVuSans-2e" transform="translate(63.623047 0)"/>
       <use xlink:href="#DejaVuSans-30" transform="translate(95.410156 0)"/>
      </g>
     </g>
    </g>
    <g id="ytick_10">
     <g id="line2d_23">
      <path d="M 271.73125 148.217478 
L 441.76125 148.217478 
" clip-path="url(#p3f8b231aa5)" style="fill: none; stroke: #b0b0b0; stroke-opacity: 0.2; stroke-width: 0.6; stroke-linecap: square"/>
     </g>
     <g id="line2d_24">
      <g>
       <use xlink:href="#m9ba1470aea" x="271.73125" y="148.217478" style="stroke: #000000; stroke-width: 0.8"/>
      </g>
     </g>
     <g id="text_13">
      <!-- 1.2 -->
      <g transform="translate(247.237813 152.396619) scale(0.11 -0.11)">
       <use xlink:href="#DejaVuSans-31"/>
       <use xlink:href="#DejaVuSans-2e" transform="translate(63.623047 0)"/>
       <use xlink:href="#DejaVuSans-32" transform="translate(95.410156 0)"/>
      </g>
     </g>
    </g>
    <g id="ytick_11">
     <g id="line2d_25">
      <path d="M 271.73125 81.063887 
L 441.76125 81.063887 
" clip-path="url(#p3f8b231aa5)" style="fill: none; stroke: #b0b0b0; stroke-opacity: 0.2; stroke-width: 0.6; stroke-linecap: square"/>
     </g>
     <g id="line2d_26">
      <g>
       <use xlink:href="#m9ba1470aea" x="271.73125" y="81.063887" style="stroke: #000000; stroke-width: 0.8"/>
      </g>
     </g>
     <g id="text_14">
      <!-- 1.4 -->
      <g transform="translate(247.237813 85.243027) scale(0.11 -0.11)">
       <use xlink:href="#DejaVuSans-31"/>
       <use xlink:href="#DejaVuSans-2e" transform="translate(63.623047 0)"/>
       <use xlink:href="#DejaVuSans-34" transform="translate(95.410156 0)"/>
      </g>
     </g>
    </g>
    <g id="text_15">
     <!-- normalized SD -->
     <g transform="translate(240.742188 230.259438) rotate(-90) scale(0.12 -0.12)">
      <defs>
       <path id="DejaVuSans-7a" d="M 353 3500 
L 3084 3500 
L 3084 2975 
L 922 459 
L 3084 459 
L 3084 0 
L 275 0 
L 275 525 
L 2438 3041 
L 353 3041 
L 353 3500 
z
" transform="scale(0.015625)"/>
       <path id="DejaVuSans-53" d="M 3425 4513 
L 3425 3897 
Q 3066 4069 2747 4153 
Q 2428 4238 2131 4238 
Q 1616 4238 1336 4038 
Q 1056 3838 1056 3469 
Q 1056 3159 1242 3001 
Q 1428 2844 1947 2747 
L 2328 2669 
Q 3034 2534 3370 2195 
Q 3706 1856 3706 1288 
Q 3706 609 3251 259 
Q 2797 -91 1919 -91 
Q 1588 -91 1214 -16 
Q 841 59 441 206 
L 441 856 
Q 825 641 1194 531 
Q 1563 422 1919 422 
Q 2459 422 2753 634 
Q 3047 847 3047 1241 
Q 3047 1584 2836 1778 
Q 2625 1972 2144 2069 
L 1759 2144 
Q 1053 2284 737 2584 
Q 422 2884 422 3419 
Q 422 4038 858 4394 
Q 1294 4750 2059 4750 
Q 2388 4750 2728 4690 
Q 3069 4631 3425 4513 
z
" transform="scale(0.015625)"/>
       <path id="DejaVuSans-44" d="M 1259 4147 
L 1259 519 
L 2022 519 
Q 2988 519 3436 956 
Q 3884 1394 3884 2338 
Q 3884 3275 3436 3711 
Q 2988 4147 2022 4147 
L 1259 4147 
z
M 628 4666 
L 1925 4666 
Q 3281 4666 3915 4102 
Q 4550 3538 4550 2338 
Q 4550 1131 3912 565 
Q 3275 0 1925 0 
L 628 0 
L 628 4666 
z
" transform="scale(0.015625)"/>
      </defs>
      <use xlink:href="#DejaVuSans-6e"/>
      <use xlink:href="#DejaVuSans-6f" transform="translate(63.378906 0)"/>
      <use xlink:href="#DejaVuSans-72" transform="translate(124.560547 0)"/>
      <use xlink:href="#DejaVuSans-6d" transform="translate(163.923828 0)"/>
      <use xlink:href="#DejaVuSans-61" transform="translate(261.335938 0)"/>
      <use xlink:href="#DejaVuSans-6c" transform="translate(322.615234 0)"/>
      <use xlink:href="#DejaVuSans-69" transform="translate(350.398438 0)"/>
      <use xlink:href="#DejaVuSans-7a" transform="translate(378.181641 0)"/>
      <use xlink:href="#DejaVuSans-65" transform="translate(430.671875 0)"/>
      <use xlink:href="#DejaVuSans-64" transform="translate(492.195312 0)"/>
      <use xlink:href="#DejaVuSans-20" transform="translate(555.671875 0)"/>
      <use xlink:href="#DejaVuSans-53" transform="translate(587.458984 0)"/>
      <use xlink:href="#DejaVuSans-44" transform="translate(650.935547 0)"/>
     </g>
    </g>
   </g>
   <g id="FillBetweenPolyCollection_2">
    <defs>
     <path id="m81e609afcb" d="M 374.825972 -66.737983 
L 338.666528 -66.737983 
L 336.730961 -69.529961 
L 334.67443 -72.321939 
L 332.4981 -75.113916 
L 330.204209 -77.905894 
L 327.796246 -80.697872 
L 325.279149 -83.48985 
L 322.659546 -86.281827 
L 319.945994 -89.073805 
L 317.149245 -91.865783 
L 314.282498 -94.657761 
L 311.361625 -97.449738 
L 308.405361 -100.241716 
L 305.435422 -103.033694 
L 302.476542 -105.825672 
L 299.556391 -108.617649 
L 296.705365 -111.409627 
L 293.956231 -114.201605 
L 291.343608 -116.993583 
L 288.903291 -119.78556 
L 286.671418 -122.577538 
L 284.683496 -125.369516 
L 282.973315 -128.161493 
L 281.57178 -130.953471 
L 280.505712 -133.745449 
L 279.796678 -136.537427 
L 279.459886 -139.329404 
L 279.503234 -142.121382 
L 279.926549 -144.91336 
L 280.721084 -147.705338 
L 281.869313 -150.497315 
L 283.345048 -153.289293 
L 285.113912 -156.081271 
L 287.134141 -158.873249 
L 289.357719 -161.665226 
L 291.731787 -164.457204 
L 294.200286 -167.249182 
L 296.705758 -170.04116 
L 299.191225 -172.833137 
L 301.602076 -175.625115 
L 303.887867 -178.417093 
L 306.003964 -181.209071 
L 307.912963 -184.001048 
L 309.58582 -186.793026 
L 311.002666 -189.585004 
L 312.153267 -192.376982 
L 313.037131 -195.168959 
L 313.663256 -197.960937 
L 314.049554 -200.752915 
L 314.221966 -203.544893 
L 314.213328 -206.33687 
L 314.062018 -209.128848 
L 313.810453 -211.920826 
L 313.50349 -214.712804 
L 313.186793 -217.504781 
L 312.905208 -220.296759 
L 312.70124 -223.088737 
L 312.613638 -225.880714 
L 312.676183 -228.672692 
L 312.916678 -231.46467 
L 313.356201 -234.256648 
L 314.008627 -237.048625 
L 314.880434 -239.840603 
L 315.970788 -242.632581 
L 317.271889 -245.424559 
L 318.769567 -248.216536 
L 320.444065 -251.008514 
L 322.270997 -253.800492 
L 324.222403 -256.59247 
L 326.267872 -259.384447 
L 328.375662 -262.176425 
L 330.513792 -264.968403 
L 332.651039 -267.760381 
L 334.757827 -270.552358 
L 336.806976 -273.344336 
L 338.774286 -276.136314 
L 340.638976 -278.928292 
L 342.383948 -281.720269 
L 343.995915 -284.512247 
L 345.465395 -287.304225 
L 346.78659 -290.096203 
L 347.957181 -292.88818 
L 348.978052 -295.680158 
L 349.852963 -298.472136 
L 350.588199 -301.264114 
L 351.192196 -304.056091 
L 351.675171 -306.848069 
L 352.048746 -309.640047 
L 352.32559 -312.432025 
L 352.519064 -315.224002 
L 352.642881 -318.01598 
L 352.710791 -320.807958 
L 352.736262 -323.599936 
L 352.732203 -326.391913 
L 352.710689 -329.183891 
L 352.68273 -331.975869 
L 352.658058 -334.767846 
L 352.644967 -337.559824 
L 352.65019 -340.351802 
L 352.678826 -343.14378 
L 360.813674 -343.14378 
L 360.813674 -343.14378 
L 360.84231 -340.351802 
L 360.847533 -337.559824 
L 360.834442 -334.767846 
L 360.80977 -331.975869 
L 360.781811 -329.183891 
L 360.760297 -326.391913 
L 360.756238 -323.599936 
L 360.781709 -320.807958 
L 360.849619 -318.01598 
L 360.973436 -315.224002 
L 361.16691 -312.432025 
L 361.443754 -309.640047 
L 361.817329 -306.848069 
L 362.300304 -304.056091 
L 362.904301 -301.264114 
L 363.639537 -298.472136 
L 364.514448 -295.680158 
L 365.535319 -292.88818 
L 366.70591 -290.096203 
L 368.027105 -287.304225 
L 369.496585 -284.512247 
L 371.108552 -281.720269 
L 372.853524 -278.928292 
L 374.718214 -276.136314 
L 376.685524 -273.344336 
L 378.734673 -270.552358 
L 380.841461 -267.760381 
L 382.978708 -264.968403 
L 385.116838 -262.176425 
L 387.224628 -259.384447 
L 389.270097 -256.59247 
L 391.221503 -253.800492 
L 393.048435 -251.008514 
L 394.722933 -248.216536 
L 396.220611 -245.424559 
L 397.521712 -242.632581 
L 398.612066 -239.840603 
L 399.483873 -237.048625 
L 400.136299 -234.256648 
L 400.575822 -231.46467 
L 400.816317 -228.672692 
L 400.878862 -225.880714 
L 400.79126 -223.088737 
L 400.587292 -220.296759 
L 400.305707 -217.504781 
L 399.98901 -214.712804 
L 399.682047 -211.920826 
L 399.430482 -209.128848 
L 399.279172 -206.33687 
L 399.270534 -203.544893 
L 399.442946 -200.752915 
L 399.829244 -197.960937 
L 400.455369 -195.168959 
L 401.339233 -192.376982 
L 402.489834 -189.585004 
L 403.90668 -186.793026 
L 405.579537 -184.001048 
L 407.488536 -181.209071 
L 409.604633 -178.417093 
L 411.890424 -175.625115 
L 414.301275 -172.833137 
L 416.786742 -170.04116 
L 419.292214 -167.249182 
L 421.760713 -164.457204 
L 424.134781 -161.665226 
L 426.358359 -158.873249 
L 428.378588 -156.081271 
L 430.147452 -153.289293 
L 431.623187 -150.497315 
L 432.771416 -147.705338 
L 433.565951 -144.91336 
L 433.989266 -142.121382 
L 434.032614 -139.329404 
L 433.695822 -136.537427 
L 432.986788 -133.745449 
L 431.92072 -130.953471 
L 430.519185 -128.161493 
L 428.809004 -125.369516 
L 426.821082 -122.577538 
L 424.589209 -119.78556 
L 422.148892 -116.993583 
L 419.536269 -114.201605 
L 416.787135 -111.409627 
L 413.936109 -108.617649 
L 411.015958 -105.825672 
L 408.057078 -103.033694 
L 405.087139 -100.241716 
L 402.130875 -97.449738 
L 399.210002 -94.657761 
L 396.343255 -91.865783 
L 393.546506 -89.073805 
L 390.832954 -86.281827 
L 388.213351 -83.48985 
L 385.696254 -80.697872 
L 383.288291 -77.905894 
L 380.9944 -75.113916 
L 378.81807 -72.321939 
L 376.761539 -69.529961 
L 374.825972 -66.737983 
z
" style="stroke: #2563eb; stroke-opacity: 0.35"/>
    </defs>
    <g clip-path="url(#p3f8b231aa5)">
     <use xlink:href="#m81e609afcb" x="0" y="391.52407" style="fill: #2563eb; fill-opacity: 0.35; stroke: #2563eb; stroke-opacity: 0.35"/>
    </g>
   </g>
   <g id="LineCollection_2">
    <path d="M 318.103068 239.218533 
L 395.389432 239.218533 
" clip-path="url(#p3f8b231aa5)" style="fill: none; stroke: #2563eb; stroke-width: 1.5"/>
   </g>
   <g id="patch_8">
    <path d="M 271.73125 338.606376 
L 271.73125 34.56 
" style="fill: none; stroke: #000000; stroke-width: 0.8; stroke-linejoin: miter; stroke-linecap: square"/>
   </g>
   <g id="patch_9">
    <path d="M 441.76125 338.606376 
L 441.76125 34.56 
" style="fill: none; stroke: #000000; stroke-width: 0.8; stroke-linejoin: miter; stroke-linecap: square"/>
   </g>
   <g id="patch_10">
    <path d="M 271.73125 338.606376 
L 441.76125 338.606376 
" style="fill: none; stroke: #000000; stroke-width: 0.8; stroke-linejoin: miter; stroke-linecap: square"/>
   </g>
   <g id="patch_11">
    <path d="M 271.73125 34.56 
L 441.76125 34.56 
" style="fill: none; stroke: #000000; stroke-width: 0.8; stroke-linejoin: miter; stroke-linecap: square"/>
   </g>
  </g>
  <g id="axes_3">
   <g id="patch_12">
    <path d="M 499.65125 338.606376 
L 669.68125 338.606376 
L 669.68125 34.56 
L 499.65125 34.56 
z
" style="fill: #ffffff"/>
   </g>
   <g id="matplotlib.axis_5">
    <g id="xtick_3">
     <g id="line2d_27">
      <path d="M 584.66625 338.606376 
L 584.66625 34.56 
" clip-path="url(#pdfe328fb63)" style="fill: none; stroke: #b0b0b0; stroke-opacity: 0.2; stroke-width: 0.6; stroke-linecap: square"/>
     </g>
     <g id="line2d_28">
      <g>
       <use xlink:href="#m1c9fb2f21c" x="584.66625" y="338.606376" style="stroke: #000000; stroke-width: 0.8"/>
      </g>
     </g>
     <g id="text_16">
      <!-- Speech rate -->
      <g transform="translate(519.972757 370.855775) rotate(-15) scale(0.11 -0.11)">
       <defs>
        <path id="DejaVuSans-70" d="M 1159 525 
L 1159 -1331 
L 581 -1331 
L 581 3500 
L 1159 3500 
L 1159 2969 
Q 1341 3281 1617 3432 
Q 1894 3584 2278 3584 
Q 2916 3584 3314 3078 
Q 3713 2572 3713 1747 
Q 3713 922 3314 415 
Q 2916 -91 2278 -91 
Q 1894 -91 1617 61 
Q 1341 213 1159 525 
z
M 3116 1747 
Q 3116 2381 2855 2742 
Q 2594 3103 2138 3103 
Q 1681 3103 1420 2742 
Q 1159 2381 1159 1747 
Q 1159 1113 1420 752 
Q 1681 391 2138 391 
Q 2594 391 2855 752 
Q 3116 1113 3116 1747 
z
" transform="scale(0.015625)"/>
       </defs>
       <use xlink:href="#DejaVuSans-53"/>
       <use xlink:href="#DejaVuSans-70" transform="translate(63.476562 0)"/>
       <use xlink:href="#DejaVuSans-65" transform="translate(126.953125 0)"/>
       <use xlink:href="#DejaVuSans-65" transform="translate(188.476562 0)"/>
       <use xlink:href="#DejaVuSans-63" transform="translate(250 0)"/>
       <use xlink:href="#DejaVuSans-68" transform="translate(304.980469 0)"/>
       <use xlink:href="#DejaVuSans-20" transform="translate(368.359375 0)"/>
       <use xlink:href="#DejaVuSans-72" transform="translate(400.146484 0)"/>
       <use xlink:href="#DejaVuSans-61" transform="translate(441.259766 0)"/>
       <use xlink:href="#DejaVuSans-74" transform="translate(502.539062 0)"/>
       <use xlink:href="#DejaVuSans-65" transform="translate(541.748047 0)"/>
      </g>
     </g>
    </g>
   </g>
   <g id="matplotlib.axis_6">
    <g id="ytick_12">
     <g id="line2d_29">
      <path d="M 499.65125 329.775966 
L 669.68125 329.775966 
" clip-path="url(#pdfe328fb63)" style="fill: none; stroke: #b0b0b0; stroke-opacity: 0.2; stroke-width: 0.6; stroke-linecap: square"/>
     </g>
     <g id="line2d_30">
      <g>
       <use xlink:href="#m9ba1470aea" x="499.65125" y="329.775966" style="stroke: #000000; stroke-width: 0.8"/>
      </g>
     </g>
     <g id="text_17">
      <!-- 0.50 -->
      <g transform="translate(468.159063 333.955107) scale(0.11 -0.11)">
       <defs>
        <path id="DejaVuSans-35" d="M 691 4666 
L 3169 4666 
L 3169 4134 
L 1269 4134 
L 1269 2991 
Q 1406 3038 1543 3061 
Q 1681 3084 1819 3084 
Q 2600 3084 3056 2656 
Q 3513 2228 3513 1497 
Q 3513 744 3044 326 
Q 2575 -91 1722 -91 
Q 1428 -91 1123 -41 
Q 819 9 494 109 
L 494 744 
Q 775 591 1075 516 
Q 1375 441 1709 441 
Q 2250 441 2565 725 
Q 2881 1009 2881 1497 
Q 2881 1984 2565 2268 
Q 2250 2553 1709 2553 
Q 1456 2553 1204 2497 
Q 953 2441 691 2322 
L 691 4666 
z
" transform="scale(0.015625)"/>
       </defs>
       <use xlink:href="#DejaVuSans-30"/>
       <use xlink:href="#DejaVuSans-2e" transform="translate(63.623047 0)"/>
       <use xlink:href="#DejaVuSans-35" transform="translate(95.410156 0)"/>
       <use xlink:href="#DejaVuSans-30" transform="translate(159.033203 0)"/>
      </g>
     </g>
    </g>
    <g id="ytick_13">
     <g id="line2d_31">
      <path d="M 499.65125 291.983538 
L 669.68125 291.983538 
" clip-path="url(#pdfe328fb63)" style="fill: none; stroke: #b0b0b0; stroke-opacity: 0.2; stroke-width: 0.6; stroke-linecap: square"/>
     </g>
     <g id="line2d_32">
      <g>
       <use xlink:href="#m9ba1470aea" x="499.65125" y="291.983538" style="stroke: #000000; stroke-width: 0.8"/>
      </g>
     </g>
     <g id="text_18">
      <!-- 0.75 -->
      <g transform="translate(468.159063 296.162679) scale(0.11 -0.11)">
       <defs>
        <path id="DejaVuSans-37" d="M 525 4666 
L 3525 4666 
L 3525 4397 
L 1831 0 
L 1172 0 
L 2766 4134 
L 525 4134 
L 525 4666 
z
" transform="scale(0.015625)"/>
       </defs>
       <use xlink:href="#DejaVuSans-30"/>
       <use xlink:href="#DejaVuSans-2e" transform="translate(63.623047 0)"/>
       <use xlink:href="#DejaVuSans-37" transform="translate(95.410156 0)"/>
       <use xlink:href="#DejaVuSans-35" transform="translate(159.033203 0)"/>
      </g>
     </g>
    </g>
    <g id="ytick_14">
     <g id="line2d_33">
      <path d="M 499.65125 254.19111 
L 669.68125 254.19111 
" clip-path="url(#pdfe328fb63)" style="fill: none; stroke: #b0b0b0; stroke-opacity: 0.2; stroke-width: 0.6; stroke-linecap: square"/>
     </g>
     <g id="line2d_34">
      <g>
       <use xlink:href="#m9ba1470aea" x="499.65125" y="254.19111" style="stroke: #000000; stroke-width: 0.8"/>
      </g>
     </g>
     <g id="text_19">
      <!-- 1.00 -->
      <g transform="translate(468.159063 258.370251) scale(0.11 -0.11)">
       <use xlink:href="#DejaVuSans-31"/>
       <use xlink:href="#DejaVuSans-2e" transform="translate(63.623047 0)"/>
       <use xlink:href="#DejaVuSans-30" transform="translate(95.410156 0)"/>
       <use xlink:href="#DejaVuSans-30" transform="translate(159.033203 0)"/>
      </g>
     </g>
    </g>
    <g id="ytick_15">
     <g id="line2d_35">
      <path d="M 499.65125 216.398682 
L 669.68125 216.398682 
" clip-path="url(#pdfe328fb63)" style="fill: none; stroke: #b0b0b0; stroke-opacity: 0.2; stroke-width: 0.6; stroke-linecap: square"/>
     </g>
     <g id="line2d_36">
      <g>
       <use xlink:href="#m9ba1470aea" x="499.65125" y="216.398682" style="stroke: #000000; stroke-width: 0.8"/>
      </g>
     </g>
     <g id="text_20">
      <!-- 1.25 -->
      <g transform="translate(468.159063 220.577823) scale(0.11 -0.11)">
       <use xlink:href="#DejaVuSans-31"/>
       <use xlink:href="#DejaVuSans-2e" transform="translate(63.623047 0)"/>
       <use xlink:href="#DejaVuSans-32" transform="translate(95.410156 0)"/>
       <use xlink:href="#DejaVuSans-35" transform="translate(159.033203 0)"/>
      </g>
     </g>
    </g>
    <g id="ytick_16">
     <g id="line2d_37">
      <path d="M 499.65125 178.606254 
L 669.68125 178.606254 
" clip-path="url(#pdfe328fb63)" style="fill: none; stroke: #b0b0b0; stroke-opacity: 0.2; stroke-width: 0.6; stroke-linecap: square"/>
     </g>
     <g id="line2d_38">
      <g>
       <use xlink:href="#m9ba1470aea" x="499.65125" y="178.606254" style="stroke: #000000; stroke-width: 0.8"/>
      </g>
     </g>
     <g id="text_21">
      <!-- 1.50 -->
      <g transform="translate(468.159063 182.785395) scale(0.11 -0.11)">
       <use xlink:href="#DejaVuSans-31"/>
       <use xlink:href="#DejaVuSans-2e" transform="translate(63.623047 0)"/>
       <use xlink:href="#DejaVuSans-35" transform="translate(95.410156 0)"/>
       <use xlink:href="#DejaVuSans-30" transform="translate(159.033203 0)"/>
      </g>
     </g>
    </g>
    <g id="ytick_17">
     <g id="line2d_39">
      <path d="M 499.65125 140.813826 
L 669.68125 140.813826 
" clip-path="url(#pdfe328fb63)" style="fill: none; stroke: #b0b0b0; stroke-opacity: 0.2; stroke-width: 0.6; stroke-linecap: square"/>
     </g>
     <g id="line2d_40">
      <g>
       <use xlink:href="#m9ba1470aea" x="499.65125" y="140.813826" style="stroke: #000000; stroke-width: 0.8"/>
      </g>
     </g>
     <g id="text_22">
      <!-- 1.75 -->
      <g transform="translate(468.159063 144.992967) scale(0.11 -0.11)">
       <use xlink:href="#DejaVuSans-31"/>
       <use xlink:href="#DejaVuSans-2e" transform="translate(63.623047 0)"/>
       <use xlink:href="#DejaVuSans-37" transform="translate(95.410156 0)"/>
       <use xlink:href="#DejaVuSans-35" transform="translate(159.033203 0)"/>
      </g>
     </g>
    </g>
    <g id="ytick_18">
     <g id="line2d_41">
      <path d="M 499.65125 103.021398 
L 669.68125 103.021398 
" clip-path="url(#pdfe328fb63)" style="fill: none; stroke: #b0b0b0; stroke-opacity: 0.2; stroke-width: 0.6; stroke-linecap: square"/>
     </g>
     <g id="line2d_42">
      <g>
       <use xlink:href="#m9ba1470aea" x="499.65125" y="103.021398" style="stroke: #000000; stroke-width: 0.8"/>
      </g>
     </g>
     <g id="text_23">
      <!-- 2.00 -->
      <g transform="translate(468.159063 107.200539) scale(0.11 -0.11)">
       <use xlink:href="#DejaVuSans-32"/>
       <use xlink:href="#DejaVuSans-2e" transform="translate(63.623047 0)"/>
       <use xlink:href="#DejaVuSans-30" transform="translate(95.410156 0)"/>
       <use xlink:href="#DejaVuSans-30" transform="translate(159.033203 0)"/>
      </g>
     </g>
    </g>
    <g id="ytick_19">
     <g id="line2d_43">
      <path d="M 499.65125 65.228971 
L 669.68125 65.228971 
" clip-path="url(#pdfe328fb63)" style="fill: none; stroke: #b0b0b0; stroke-opacity: 0.2; stroke-width: 0.6; stroke-linecap: square"/>
     </g>
     <g id="line2d_44">
      <g>
       <use xlink:href="#m9ba1470aea" x="499.65125" y="65.228971" style="stroke: #000000; stroke-width: 0.8"/>
      </g>
     </g>
     <g id="text_24">
      <!-- 2.25 -->
      <g transform="translate(468.159063 69.408111) scale(0.11 -0.11)">
       <use xlink:href="#DejaVuSans-32"/>
       <use xlink:href="#DejaVuSans-2e" transform="translate(63.623047 0)"/>
       <use xlink:href="#DejaVuSans-32" transform="translate(95.410156 0)"/>
       <use xlink:href="#DejaVuSans-35" transform="translate(159.033203 0)"/>
      </g>
     </g>
    </g>
    <g id="text_25">
     <!-- segments / second -->
     <g transform="translate(461.663438 243.260688) rotate(-90) scale(0.12 -0.12)">
      <defs>
       <path id="DejaVuSans-67" d="M 2906 1791 
Q 2906 2416 2648 2759 
Q 2391 3103 1925 3103 
Q 1463 3103 1205 2759 
Q 947 2416 947 1791 
Q 947 1169 1205 825 
Q 1463 481 1925 481 
Q 2391 481 2648 825 
Q 2906 1169 2906 1791 
z
M 3481 434 
Q 3481 -459 3084 -895 
Q 2688 -1331 1869 -1331 
Q 1566 -1331 1297 -1286 
Q 1028 -1241 775 -1147 
L 775 -588 
Q 1028 -725 1275 -790 
Q 1522 -856 1778 -856 
Q 2344 -856 2625 -561 
Q 2906 -266 2906 331 
L 2906 616 
Q 2728 306 2450 153 
Q 2172 0 1784 0 
Q 1141 0 747 490 
Q 353 981 353 1791 
Q 353 2603 747 3093 
Q 1141 3584 1784 3584 
Q 2172 3584 2450 3431 
Q 2728 3278 2906 2969 
L 2906 3500 
L 3481 3500 
L 3481 434 
z
" transform="scale(0.015625)"/>
       <path id="DejaVuSans-2f" d="M 1625 4666 
L 2156 4666 
L 531 -594 
L 0 -594 
L 1625 4666 
z
" transform="scale(0.015625)"/>
      </defs>
      <use xlink:href="#DejaVuSans-73"/>
      <use xlink:href="#DejaVuSans-65" transform="translate(52.099609 0)"/>
      <use xlink:href="#DejaVuSans-67" transform="translate(113.623047 0)"/>
      <use xlink:href="#DejaVuSans-6d" transform="translate(177.099609 0)"/>
      <use xlink:href="#DejaVuSans-65" transform="translate(274.511719 0)"/>
      <use xlink:href="#DejaVuSans-6e" transform="translate(336.035156 0)"/>
      <use xlink:href="#DejaVuSans-74" transform="translate(399.414062 0)"/>
      <use xlink:href="#DejaVuSans-73" transform="translate(438.623047 0)"/>
      <use xlink:href="#DejaVuSans-20" transform="translate(490.722656 0)"/>
      <use xlink:href="#DejaVuSans-2f" transform="translate(522.509766 0)"/>
      <use xlink:href="#DejaVuSans-20" transform="translate(556.201172 0)"/>
      <use xlink:href="#DejaVuSans-73" transform="translate(587.988281 0)"/>
      <use xlink:href="#DejaVuSans-65" transform="translate(640.087891 0)"/>
      <use xlink:href="#DejaVuSans-63" transform="translate(701.611328 0)"/>
      <use xlink:href="#DejaVuSans-6f" transform="translate(756.591797 0)"/>
      <use xlink:href="#DejaVuSans-6e" transform="translate(817.773438 0)"/>
      <use xlink:href="#DejaVuSans-64" transform="translate(881.152344 0)"/>
     </g>
    </g>
   </g>
   <g id="FillBetweenPolyCollection_3">
    <defs>
     <path id="mf883feff85" d="M 609.765072 -66.737983 
L 559.567428 -66.737983 
L 557.458695 -69.529961 
L 555.258097 -72.321939 
L 552.968738 -75.113916 
L 550.59516 -77.905894 
L 548.143637 -80.697872 
L 545.622431 -83.48985 
L 543.042011 -86.281827 
L 540.415195 -89.073805 
L 537.757202 -91.865783 
L 535.08559 -94.657761 
L 532.420086 -97.449738 
L 529.782279 -100.241716 
L 527.195202 -103.033694 
L 524.682798 -105.825672 
L 522.269309 -108.617649 
L 519.978582 -111.409627 
L 517.833361 -114.201605 
L 515.854564 -116.993583 
L 514.060609 -119.78556 
L 512.466802 -122.577538 
L 511.084834 -125.369516 
L 509.922412 -128.161493 
L 508.98303 -130.953471 
L 508.265917 -133.745449 
L 507.766142 -136.537427 
L 507.474893 -139.329404 
L 507.379886 -142.121382 
L 507.465925 -144.91336 
L 507.715538 -147.705338 
L 508.109694 -150.497315 
L 508.62854 -153.289293 
L 509.252143 -156.081271 
L 509.961182 -158.873249 
L 510.737576 -161.665226 
L 511.565008 -164.457204 
L 512.429344 -167.249182 
L 513.318913 -170.04116 
L 514.224666 -172.833137 
L 515.140201 -175.625115 
L 516.06167 -178.417093 
L 516.987584 -181.209071 
L 517.91854 -184.001048 
L 518.856876 -186.793026 
L 519.8063 -189.585004 
L 520.771496 -192.376982 
L 521.757735 -195.168959 
L 522.770511 -197.960937 
L 523.815207 -200.752915 
L 524.896818 -203.544893 
L 526.019705 -206.33687 
L 527.187424 -209.128848 
L 528.402589 -211.920826 
L 529.666791 -214.712804 
L 530.980565 -217.504781 
L 532.343379 -220.296759 
L 533.753672 -223.088737 
L 535.208905 -225.880714 
L 536.705634 -228.672692 
L 538.239596 -231.46467 
L 539.805809 -234.256648 
L 541.398672 -237.048625 
L 543.012073 -239.840603 
L 544.639488 -242.632581 
L 546.27409 -245.424559 
L 547.908844 -248.216536 
L 549.536603 -251.008514 
L 551.150193 -253.800492 
L 552.742498 -256.59247 
L 554.306536 -259.384447 
L 555.835533 -262.176425 
L 557.322991 -264.968403 
L 558.762764 -267.760381 
L 560.149125 -270.552358 
L 561.476846 -273.344336 
L 562.741273 -276.136314 
L 563.938414 -278.928292 
L 565.065017 -281.720269 
L 566.118662 -284.512247 
L 567.097839 -287.304225 
L 568.002014 -290.096203 
L 568.831693 -292.88818 
L 569.588452 -295.680158 
L 570.274946 -298.472136 
L 570.894885 -301.264114 
L 571.45298 -304.056091 
L 571.954842 -306.848069 
L 572.406861 -309.640047 
L 572.816034 -312.432025 
L 573.189783 -315.224002 
L 573.535737 -318.01598 
L 573.861512 -320.807958 
L 574.174486 -323.599936 
L 574.481576 -326.391913 
L 574.789042 -329.183891 
L 575.10231 -331.975869 
L 575.42583 -334.767846 
L 575.76298 -337.559824 
L 576.116008 -340.351802 
L 576.486018 -343.14378 
L 592.846482 -343.14378 
L 592.846482 -343.14378 
L 593.216492 -340.351802 
L 593.56952 -337.559824 
L 593.90667 -334.767846 
L 594.23019 -331.975869 
L 594.543458 -329.183891 
L 594.850924 -326.391913 
L 595.158014 -323.599936 
L 595.470988 -320.807958 
L 595.796763 -318.01598 
L 596.142717 -315.224002 
L 596.516466 -312.432025 
L 596.925639 -309.640047 
L 597.377658 -306.848069 
L 597.87952 -304.056091 
L 598.437615 -301.264114 
L 599.057554 -298.472136 
L 599.744048 -295.680158 
L 600.500807 -292.88818 
L 601.330486 -290.096203 
L 602.234661 -287.304225 
L 603.213838 -284.512247 
L 604.267483 -281.720269 
L 605.394086 -278.928292 
L 606.591227 -276.136314 
L 607.855654 -273.344336 
L 609.183375 -270.552358 
L 610.569736 -267.760381 
L 612.009509 -264.968403 
L 613.496967 -262.176425 
L 615.025964 -259.384447 
L 616.590002 -256.59247 
L 618.182307 -253.800492 
L 619.795897 -251.008514 
L 621.423656 -248.216536 
L 623.05841 -245.424559 
L 624.693012 -242.632581 
L 626.320427 -239.840603 
L 627.933828 -237.048625 
L 629.526691 -234.256648 
L 631.092904 -231.46467 
L 632.626866 -228.672692 
L 634.123595 -225.880714 
L 635.578828 -223.088737 
L 636.989121 -220.296759 
L 638.351935 -217.504781 
L 639.665709 -214.712804 
L 640.929911 -211.920826 
L 642.145076 -209.128848 
L 643.312795 -206.33687 
L 644.435682 -203.544893 
L 645.517293 -200.752915 
L 646.561989 -197.960937 
L 647.574765 -195.168959 
L 648.561004 -192.376982 
L 649.5262 -189.585004 
L 650.475624 -186.793026 
L 651.41396 -184.001048 
L 652.344916 -181.209071 
L 653.27083 -178.417093 
L 654.192299 -175.625115 
L 655.107834 -172.833137 
L 656.013587 -170.04116 
L 656.903156 -167.249182 
L 657.767492 -164.457204 
L 658.594924 -161.665226 
L 659.371318 -158.873249 
L 660.080357 -156.081271 
L 660.70396 -153.289293 
L 661.222806 -150.497315 
L 661.616962 -147.705338 
L 661.866575 -144.91336 
L 661.952614 -142.121382 
L 661.857607 -139.329404 
L 661.566358 -136.537427 
L 661.066583 -133.745449 
L 660.34947 -130.953471 
L 659.410088 -128.161493 
L 658.247666 -125.369516 
L 656.865698 -122.577538 
L 655.271891 -119.78556 
L 653.477936 -116.993583 
L 651.499139 -114.201605 
L 649.353918 -111.409627 
L 647.063191 -108.617649 
L 644.649702 -105.825672 
L 642.137298 -103.033694 
L 639.550221 -100.241716 
L 636.912414 -97.449738 
L 634.24691 -94.657761 
L 631.575298 -91.865783 
L 628.917305 -89.073805 
L 626.290489 -86.281827 
L 623.710069 -83.48985 
L 621.188863 -80.697872 
L 618.73734 -77.905894 
L 616.363762 -75.113916 
L 614.074403 -72.321939 
L 611.873805 -69.529961 
L 609.765072 -66.737983 
z
" style="stroke: #2563eb; stroke-opacity: 0.35"/>
    </defs>
    <g clip-path="url(#pdfe328fb63)">
     <use xlink:href="#mf883feff85" x="0" y="391.52407" style="fill: #2563eb; fill-opacity: 0.35; stroke: #2563eb; stroke-opacity: 0.35"/>
    </g>
   </g>
   <g id="LineCollection_3">
    <path d="M 546.023068 228.581135 
L 623.309432 228.581135 
" clip-path="url(#pdfe328fb63)" style="fill: none; stroke: #2563eb; stroke-width: 1.5"/>
   </g>
   <g id="patch_13">
    <path d="M 499.65125 338.606376 
L 499.65125 34.56 
" style="fill: none; stroke: #000000; stroke-width: 0.8; stroke-linejoin: miter; stroke-linecap: square"/>
   </g>
   <g id="patch_14">
    <path d="M 669.68125 338.606376 
L 669.68125 34.56 
" style="fill: none; stroke: #000000; stroke-width: 0.8; stroke-linejoin: miter; stroke-linecap: square"/>
   </g>
   <g id="patch_15">
    <path d="M 499.65125 338.606376 
L 669.68125 338.606376 
" style="fill: none; stroke: #000000; stroke-width: 0.8; stroke-linejoin: miter; stroke-linecap: square"/>
   </g>
   <g id="patch_16">
    <path d="M 499.65125 34.56 
L 669.68125 34.56 
" style="fill: none; stroke: #000000; stroke-width: 0.8; stroke-linejoin: miter; stroke-linecap: square"/>
   </g>
  </g>
  <g id="text_26">
   <!-- Social anxiety disorder (SAD) -->
   <g transform="translate(236.125937 17.837812) scale(0.14 -0.14)">
    <defs>
     <path id="DejaVuSans-78" d="M 3513 3500 
L 2247 1797 
L 3578 0 
L 2900 0 
L 1881 1375 
L 863 0 
L 184 0 
L 1544 1831 
L 300 3500 
L 978 3500 
L 1906 2253 
L 2834 3500 
L 3513 3500 
z
" transform="scale(0.015625)"/>
     <path id="DejaVuSans-28" d="M 1984 4856 
Q 1566 4138 1362 3434 
Q 1159 2731 1159 2009 
Q 1159 1288 1364 580 
Q 1569 -128 1984 -844 
L 1484 -844 
Q 1016 -109 783 600 
Q 550 1309 550 2009 
Q 550 2706 781 3412 
Q 1013 4119 1484 4856 
L 1984 4856 
z
" transform="scale(0.015625)"/>
     <path id="DejaVuSans-41" d="M 2188 4044 
L 1331 1722 
L 3047 1722 
L 2188 4044 
z
M 1831 4666 
L 2547 4666 
L 4325 0 
L 3669 0 
L 3244 1197 
L 1141 1197 
L 716 0 
L 50 0 
L 1831 4666 
z
" transform="scale(0.015625)"/>
     <path id="DejaVuSans-29" d="M 513 4856 
L 1013 4856 
Q 1481 4119 1714 3412 
Q 1947 2706 1947 2009 
Q 1947 1309 1714 600 
Q 1481 -109 1013 -844 
L 513 -844 
Q 928 -128 1133 580 
Q 1338 1288 1338 2009 
Q 1338 2731 1133 3434 
Q 928 4138 513 4856 
z
" transform="scale(0.015625)"/>
    </defs>
    <use xlink:href="#DejaVuSans-53"/>
    <use xlink:href="#DejaVuSans-6f" transform="translate(63.476562 0)"/>
    <use xlink:href="#DejaVuSans-63" transform="translate(124.658203 0)"/>
    <use xlink:href="#DejaVuSans-69" transform="translate(179.638672 0)"/>
    <use xlink:href="#DejaVuSans-61" transform="translate(207.421875 0)"/>
    <use xlink:href="#DejaVuSans-6c" transform="translate(268.701172 0)"/>
    <use xlink:href="#DejaVuSans-20" transform="translate(296.484375 0)"/>
    <use xlink:href="#DejaVuSans-61" transform="translate(328.271484 0)"/>
    <use xlink:href="#DejaVuSans-6e" transform="translate(389.550781 0)"/>
    <use xlink:href="#DejaVuSans-78" transform="translate(452.929688 0)"/>
    <use xlink:href="#DejaVuSans-69" transform="translate(512.109375 0)"/>
    <use xlink:href="#DejaVuSans-65" transform="translate(539.892578 0)"/>
    <use xlink:href="#DejaVuSans-74" transform="translate(601.416016 0)"/>
    <use xlink:href="#DejaVuSans-79" transform="translate(640.625 0)"/>
    <use xlink:href="#DejaVuSans-20" transform="translate(699.804688 0)"/>
    <use xlink:href="#DejaVuSans-64" transform="translate(731.591797 0)"/>
    <use xlink:href="#DejaVuSans-69" transform="translate(795.068359 0)"/>
    <use xlink:href="#DejaVuSans-73" transform="translate(822.851562 0)"/>
    <use xlink:href="#DejaVuSans-6f" transform="translate(874.951172 0)"/>
    <use xlink:href="#DejaVuSans-72" transform="translate(936.132812 0)"/>
    <use xlink:href="#DejaVuSans-64" transform="translate(975.496094 0)"/>
    <use xlink:href="#DejaVuSans-65" transform="translate(1038.972656 0)"/>
    <use xlink:href="#DejaVuSans-72" transform="translate(1100.496094 0)"/>
    <use xlink:href="#DejaVuSans-20" transform="translate(1141.609375 0)"/>
    <use xlink:href="#DejaVuSans-28" transform="translate(1173.396484 0)"/>
    <use xlink:href="#DejaVuSans-53" transform="translate(1212.410156 0)"/>
    <use xlink:href="#DejaVuSans-41" transform="translate(1277.761719 0)"/>
    <use xlink:href="#DejaVuSans-44" transform="translate(1346.169922 0)"/>
    <use xlink:href="#DejaVuSans-29" transform="translate(1423.171875 0)"/>
   </g>
  </g>
 </g>
 <defs>
  <clipPath id="p7685f0cecb">
   <rect x="43.81125" y="34.56" width="170.03" height="304.046376"/>
  </clipPath>
  <clipPath id="p3f8b231aa5">
   <rect x="271.73125" y="34.56" width="170.03" height="304.046376"/>
  </clipPath>
  <clipPath id="pdfe328fb63">
   <rect x="499.65125" y="34.56" width="170.03" height="304.046376"/>
  </clipPath>
 </defs>
</svg>
