<?xml version="1.0" encoding="utf-8" standalone="no"?>
<!DOCTYPE svg PUBLIC "-//W3C//DTD SVG 1.1//EN"
  "http://www.w3.org/Graphics/SVG/1.1/DTD/svg11.dtd">
<svg xmlns:xlink="http://www.w3.org/1999/xlink" width="712.837188pt" height="424.5775pt" viewBox="0 0 712.837188 424.5775" xmlns="http://www.w3.org/2000/svg" version="1.1">
 <metadata>
  <rdf:RDF xmlns:dc="http://purl.org/dc/elements/1.1/" xmlns:cc="http://creativecommons.org/ns#" xmlns:rdf="http://www.w3.org/1999/02/22-rdf-syntax-ns#">
   <cc:Work>
    <dc:type rdf:resource="http://purl.org/dc/dcmitype/StillImage"/>
    <dc:date>2026-06-23T21:32:12.821287</dc:date>
    <dc:format>image/svg+xml</dc:format>
    <dc:creator>
     <cc:Agent>
      <dc:title>Matplotlib v3.10.1, https://matplotlib.org/</dc:title>
     </cc:Agent>
    </dc:creator>
   </cc:Work>
  </rdf:RDF>
 </metadata>
 <defs>
  <style type="text/css">*{stroke-linejoin: round; stroke-linecap: butt}</style>
 </defs>
 <g id="figure_1">
  <g id="patch_1">
   <path d="M 0 424.5775 
L 712.837188 424.5775 
L 712.837188 0 
L 0 0 
z
" style="fill: #ffffff"/>
  </g>
  <g id="axes_1">
   <g id="patch_2">
    <path d="M 47.307188 384.117812 
L 705.637188 384.117812 
L 705.637188 23.837812 
L 47.307188 23.837812 
z
" style="fill: #ffffff"/>
   </g>
   <g id="matplotlib.axis_1">
    <g id="xtick_1">
     <g id="line2d_1">
      <path d="M 47.307188 384.117812 
L 47.307188 23.837812 
" clip-path="url(#p07cf1a1ce7)" style="fill: none; stroke: #b0b0b0; stroke-opacity: 0.2; stroke-width: 0.6; stroke-linecap: square"/>
     </g>
     <g id="line2d_2">
      <defs>
       <path id="ma77870cbb3" d="M 0 0 
L 0 3.5 
" style="stroke: #000000; stroke-width: 0.8"/>
      </defs>
      <g>
       <use xlink:href="#ma77870cbb3" x="47.307188" y="384.117812" style="stroke: #000000; stroke-width: 0.8"/>
      </g>
     </g>
     <g id="text_1">
      <!-- 0 -->
      <g transform="translate(43.807813 399.476094) scale(0.11 -0.11)">
       <defs>
        <path id="DejaVuSans-30" d="M 2034 4250 
Q 1547 4250 1301 3770 
Q 1056 3291 1056 2328 
Q 1056 1369 1301 889 
Q 1547 409 2034 409 
Q 2525 409 2770 889 
Q 3016 1369 3016 2328 
Q 3016 3291 2770 3770 
Q 2525 4250 2034 4250 
z
M 2034 4750 
Q 2819 4750 3233 4129 
Q 3647 3509 3647 2328 
Q 3647 1150 3233 529 
Q 2819 -91 2034 -91 
Q 1250 -91 836 529 
Q 422 1150 422 2328 
Q 422 3509 836 4129 
Q 1250 4750 2034 4750 
z
" transform="scale(0.015625)"/>
       </defs>
       <use xlink:href="#DejaVuSans-30"/>
      </g>
     </g>
    </g>
    <g id="xtick_2">
     <g id="line2d_3">
      <path d="M 133.929556 384.117812 
L 133.929556 23.837812 
" clip-path="url(#p07cf1a1ce7)" style="fill: none; stroke: #b0b0b0; stroke-opacity: 0.2; stroke-width: 0.6; stroke-linecap: square"/>
     </g>
     <g id="line2d_4">
      <g>
       <use xlink:href="#ma77870cbb3" x="133.929556" y="384.117812" style="stroke: #000000; stroke-width: 0.8"/>
      </g>
     </g>
     <g id="text_2">
      <!-- 25 -->
      <g transform="translate(126.930806 399.476094) scale(0.11 -0.11)">
       <defs>
        <path id="DejaVuSans-32" d="M 1228 531 
L 3431 531 
L 3431 0 
L 469 0 
L 469 531 
Q 828 903 1448 1529 
Q 2069 2156 2228 2338 
Q 2531 2678 2651 2914 
Q 2772 3150 2772 3378 
Q 2772 3750 2511 3984 
Q 2250 4219 1831 4219 
Q 1534 4219 1204 4116 
Q 875 4013 500 3803 
L 500 4441 
Q 881 4594 1212 4672 
Q 1544 4750 1819 4750 
Q 2544 4750 2975 4387 
Q 3406 4025 3406 3419 
Q 3406 3131 3298 2873 
Q 3191 2616 2906 2266 
Q 2828 2175 2409 1742 
Q 1991 1309 1228 531 
z
" transform="scale(0.015625)"/>
        <path id="DejaVuSans-35" d="M 691 4666 
L 3169 4666 
L 3169 4134 
L 1269 4134 
L 1269 2991 
Q 1406 3038 1543 3061 
Q 1681 3084 1819 3084 
Q 2600 3084 3056 2656 
Q 3513 2228 3513 1497 
Q 3513 744 3044 326 
Q 2575 -91 1722 -91 
Q 1428 -91 1123 -41 
Q 819 9 494 109 
L 494 744 
Q 775 591 1075 516 
Q 1375 441 1709 441 
Q 2250 441 2565 725 
Q 2881 1009 2881 1497 
Q 2881 1984 2565 2268 
Q 2250 2553 1709 2553 
Q 1456 2553 1204 2497 
Q 953 2441 691 2322 
L 691 4666 
z
" transform="scale(0.015625)"/>
       </defs>
       <use xlink:href="#DejaVuSans-32"/>
       <use xlink:href="#DejaVuSans-35" transform="translate(63.623047 0)"/>
      </g>
     </g>
    </g>
    <g id="xtick_3">
     <g id="line2d_5">
      <path d="M 220.551924 384.117812 
L 220.551924 23.837812 
" clip-path="url(#p07cf1a1ce7)" style="fill: none; stroke: #b0b0b0; stroke-opacity: 0.2; stroke-width: 0.6; stroke-linecap: square"/>
     </g>
     <g id="line2d_6">
      <g>
       <use xlink:href="#ma77870cbb3" x="220.551924" y="384.117812" style="stroke: #000000; stroke-width: 0.8"/>
      </g>
     </g>
     <g id="text_3">
      <!-- 50 -->
      <g transform="translate(213.553174 399.476094) scale(0.11 -0.11)">
       <use xlink:href="#DejaVuSans-35"/>
       <use xlink:href="#DejaVuSans-30" transform="translate(63.623047 0)"/>
      </g>
     </g>
    </g>
    <g id="xtick_4">
     <g id="line2d_7">
      <path d="M 307.174293 384.117812 
L 307.174293 23.837812 
" clip-path="url(#p07cf1a1ce7)" style="fill: none; stroke: #b0b0b0; stroke-opacity: 0.2; stroke-width: 0.6; stroke-linecap: square"/>
     </g>
     <g id="line2d_8">
      <g>
       <use xlink:href="#ma77870cbb3" x="307.174293" y="384.117812" style="stroke: #000000; stroke-width: 0.8"/>
      </g>
     </g>
     <g id="text_4">
      <!-- 75 -->
      <g transform="translate(300.175543 399.476094) scale(0.11 -0.11)">
       <defs>
        <path id="DejaVuSans-37" d="M 525 4666 
L 3525 4666 
L 3525 4397 
L 1831 0 
L 1172 0 
L 2766 4134 
L 525 4134 
L 525 4666 
z
" transform="scale(0.015625)"/>
       </defs>
       <use xlink:href="#DejaVuSans-37"/>
       <use xlink:href="#DejaVuSans-35" transform="translate(63.623047 0)"/>
      </g>
     </g>
    </g>
    <g id="xtick_5">
     <g id="line2d_9">
      <path d="M 393.796661 384.117812 
L 393.796661 23.837812 
" clip-path="url(#p07cf1a1ce7)" style="fill: none; stroke: #b0b0b0; stroke-opacity: 0.2; stroke-width: 0.6; stroke-linecap: square"/>
     </g>
     <g id="line2d_10">
      <g>
       <use xlink:href="#ma77870cbb3" x="393.796661" y="384.117812" style="stroke: #000000; stroke-width: 0.8"/>
      </g>
     </g>
     <g id="text_5">
      <!-- 100 -->
      <g transform="translate(383.298536 399.476094) scale(0.11 -0.11)">
       <defs>
        <path id="DejaVuSans-31" d="M 794 531 
L 1825 531 
L 1825 4091 
L 703 3866 
L 703 4441 
L 1819 4666 
L 2450 4666 
L 2450 531 
L 3481 531 
L 3481 0 
L 794 0 
L 794 531 
z
" transform="scale(0.015625)"/>
       </defs>
       <use xlink:href="#DejaVuSans-31"/>
       <use xlink:href="#DejaVuSans-30" transform="translate(63.623047 0)"/>
       <use xlink:href="#DejaVuSans-30" transform="translate(127.246094 0)"/>
      </g>
     </g>
    </g>
    <g id="xtick_6">
     <g id="line2d_11">
      <path d="M 480.41903 384.117812 
L 480.41903 23.837812 
" clip-path="url(#p07cf1a1ce7)" style="fill: none; stroke: #b0b0b0; stroke-opacity: 0.2; stroke-width: 0.6; stroke-linecap: square"/>
     </g>
     <g id="line2d_12">
      <g>
       <use xlink:href="#ma77870cbb3" x="480.41903" y="384.117812" style="stroke: #000000; stroke-width: 0.8"/>
      </g>
     </g>
     <g id="text_6">
      <!-- 125 -->
      <g transform="translate(469.920905 399.476094) scale(0.11 -0.11)">
       <use xlink:href="#DejaVuSans-31"/>
       <use xlink:href="#DejaVuSans-32" transform="translate(63.623047 0)"/>
       <use xlink:href="#DejaVuSans-35" transform="translate(127.246094 0)"/>
      </g>
     </g>
    </g>
    <g id="xtick_7">
     <g id="line2d_13">
      <path d="M 567.041398 384.117812 
L 567.041398 23.837812 
" clip-path="url(#p07cf1a1ce7)" style="fill: none; stroke: #b0b0b0; stroke-opacity: 0.2; stroke-width: 0.6; stroke-linecap: square"/>
     </g>
     <g id="line2d_14">
      <g>
       <use xlink:href="#ma77870cbb3" x="567.041398" y="384.117812" style="stroke: #000000; stroke-width: 0.8"/>
      </g>
     </g>
     <g id="text_7">
      <!-- 150 -->
      <g transform="translate(556.543273 399.476094) scale(0.11 -0.11)">
       <use xlink:href="#DejaVuSans-31"/>
       <use xlink:href="#DejaVuSans-35" transform="translate(63.623047 0)"/>
       <use xlink:href="#DejaVuSans-30" transform="translate(127.246094 0)"/>
      </g>
     </g>
    </g>
    <g id="xtick_8">
     <g id="line2d_15">
      <path d="M 653.663766 384.117812 
L 653.663766 23.837812 
" clip-path="url(#p07cf1a1ce7)" style="fill: none; stroke: #b0b0b0; stroke-opacity: 0.2; stroke-width: 0.6; stroke-linecap: square"/>
     </g>
     <g id="line2d_16">
      <g>
       <use xlink:href="#ma77870cbb3" x="653.663766" y="384.117812" style="stroke: #000000; stroke-width: 0.8"/>
      </g>
     </g>
     <g id="text_8">
      <!-- 175 -->
      <g transform="translate(643.165641 399.476094) scale(0.11 -0.11)">
       <use xlink:href="#DejaVuSans-31"/>
       <use xlink:href="#DejaVuSans-37" transform="translate(63.623047 0)"/>
       <use xlink:href="#DejaVuSans-35" transform="translate(127.246094 0)"/>
      </g>
     </g>
    </g>
    <g id="text_9">
     <!-- Time (s) -->
     <g transform="translate(352.0775 414.881875) scale(0.12 -0.12)">
      <defs>
       <path id="DejaVuSans-54" d="M -19 4666 
L 3928 4666 
L 3928 4134 
L 2272 4134 
L 2272 0 
L 1638 0 
L 1638 4134 
L -19 4134 
L -19 4666 
z
" transform="scale(0.015625)"/>
       <path id="DejaVuSans-69" d="M 603 3500 
L 1178 3500 
L 1178 0 
L 603 0 
L 603 3500 
z
M 603 4863 
L 1178 4863 
L 1178 4134 
L 603 4134 
L 603 4863 
z
" transform="scale(0.015625)"/>
       <path id="DejaVuSans-6d" d="M 3328 2828 
Q 3544 3216 3844 3400 
Q 4144 3584 4550 3584 
Q 5097 3584 5394 3201 
Q 5691 2819 5691 2113 
L 5691 0 
L 5113 0 
L 5113 2094 
Q 5113 2597 4934 2840 
Q 4756 3084 4391 3084 
Q 3944 3084 3684 2787 
Q 3425 2491 3425 1978 
L 3425 0 
L 2847 0 
L 2847 2094 
Q 2847 2600 2669 2842 
Q 2491 3084 2119 3084 
Q 1678 3084 1418 2786 
Q 1159 2488 1159 1978 
L 1159 0 
L 581 0 
L 581 3500 
L 1159 3500 
L 1159 2956 
Q 1356 3278 1631 3431 
Q 1906 3584 2284 3584 
Q 2666 3584 2933 3390 
Q 3200 3197 3328 2828 
z
" transform="scale(0.015625)"/>
       <path id="DejaVuSans-65" d="M 3597 1894 
L 3597 1613 
L 953 1613 
Q 991 1019 1311 708 
Q 1631 397 2203 397 
Q 2534 397 2845 478 
Q 3156 559 3463 722 
L 3463 178 
Q 3153 47 2828 -22 
Q 2503 -91 2169 -91 
Q 1331 -91 842 396 
Q 353 884 353 1716 
Q 353 2575 817 3079 
Q 1281 3584 2069 3584 
Q 2775 3584 3186 3129 
Q 3597 2675 3597 1894 
z
M 3022 2063 
Q 3016 2534 2758 2815 
Q 2500 3097 2075 3097 
Q 1594 3097 1305 2825 
Q 1016 2553 972 2059 
L 3022 2063 
z
" transform="scale(0.015625)"/>
       <path id="DejaVuSans-20" transform="scale(0.015625)"/>
       <path id="DejaVuSans-28" d="M 1984 4856 
Q 1566 4138 1362 3434 
Q 1159 2731 1159 2009 
Q 1159 1288 1364 580 
Q 1569 -128 1984 -844 
L 1484 -844 
Q 1016 -109 783 600 
Q 550 1309 550 2009 
Q 550 2706 781 3412 
Q 1013 4119 1484 4856 
L 1984 4856 
z
" transform="scale(0.015625)"/>
       <path id="DejaVuSans-73" d="M 2834 3397 
L 2834 2853 
Q 2591 2978 2328 3040 
Q 2066 3103 1784 3103 
Q 1356 3103 1142 2972 
Q 928 2841 928 2578 
Q 928 2378 1081 2264 
Q 1234 2150 1697 2047 
L 1894 2003 
Q 2506 1872 2764 1633 
Q 3022 1394 3022 966 
Q 3022 478 2636 193 
Q 2250 -91 1575 -91 
Q 1294 -91 989 -36 
Q 684 19 347 128 
L 347 722 
Q 666 556 975 473 
Q 1284 391 1588 391 
Q 1994 391 2212 530 
Q 2431 669 2431 922 
Q 2431 1156 2273 1281 
Q 2116 1406 1581 1522 
L 1381 1569 
Q 847 1681 609 1914 
Q 372 2147 372 2553 
Q 372 3047 722 3315 
Q 1072 3584 1716 3584 
Q 2034 3584 2315 3537 
Q 2597 3491 2834 3397 
z
" transform="scale(0.015625)"/>
       <path id="DejaVuSans-29" d="M 513 4856 
L 1013 4856 
Q 1481 4119 1714 3412 
Q 1947 2706 1947 2009 
Q 1947 1309 1714 600 
Q 1481 -109 1013 -844 
L 513 -844 
Q 928 -128 1133 580 
Q 1338 1288 1338 2009 
Q 1338 2731 1133 3434 
Q 928 4138 513 4856 
z
" transform="scale(0.015625)"/>
      </defs>
      <use xlink:href="#DejaVuSans-54"/>
      <use xlink:href="#DejaVuSans-69" transform="translate(57.958984 0)"/>
      <use xlink:href="#DejaVuSans-6d" transform="translate(85.742188 0)"/>
      <use xlink:href="#DejaVuSans-65" transform="translate(183.154297 0)"/>
      <use xlink:href="#DejaVuSans-20" transform="translate(244.677734 0)"/>
      <use xlink:href="#DejaVuSans-28" transform="translate(276.464844 0)"/>
      <use xlink:href="#DejaVuSans-73" transform="translate(315.478516 0)"/>
      <use xlink:href="#DejaVuSans-29" transform="translate(367.578125 0)"/>
     </g>
    </g>
   </g>
   <g id="matplotlib.axis_2">
    <g id="ytick_1">
     <g id="line2d_17">
      <path d="M 47.307188 367.741449 
L 705.637188 367.741449 
" clip-path="url(#p07cf1a1ce7)" style="fill: none; stroke: #b0b0b0; stroke-opacity: 0.2; stroke-width: 0.6; stroke-linecap: square"/>
     </g>
     <g id="line2d_18">
      <defs>
       <path id="me542d8045f" d="M 0 0 
L -3.5 0 
" style="stroke: #000000; stroke-width: 0.8"/>
      </defs>
      <g>
       <use xlink:href="#me542d8045f" x="47.307188" y="367.741449" style="stroke: #000000; stroke-width: 0.8"/>
      </g>
     </g>
     <g id="text_10">
      <!-- 0.0 -->
      <g transform="translate(22.81375 371.920589) scale(0.11 -0.11)">
       <defs>
        <path id="DejaVuSans-2e" d="M 684 794 
L 1344 794 
L 1344 0 
L 684 0 
L 684 794 
z
" transform="scale(0.015625)"/>
       </defs>
       <use xlink:href="#DejaVuSans-30"/>
       <use xlink:href="#DejaVuSans-2e" transform="translate(63.623047 0)"/>
       <use xlink:href="#DejaVuSans-30" transform="translate(95.410156 0)"/>
      </g>
     </g>
    </g>
    <g id="ytick_2">
     <g id="line2d_19">
      <path d="M 47.307188 317.507205 
L 705.637188 317.507205 
" clip-path="url(#p07cf1a1ce7)" style="fill: none; stroke: #b0b0b0; stroke-opacity: 0.2; stroke-width: 0.6; stroke-linecap: square"/>
     </g>
     <g id="line2d_20">
      <g>
       <use xlink:href="#me542d8045f" x="47.307188" y="317.507205" style="stroke: #000000; stroke-width: 0.8"/>
      </g>
     </g>
     <g id="text_11">
      <!-- 0.5 -->
      <g transform="translate(22.81375 321.686345) scale(0.11 -0.11)">
       <use xlink:href="#DejaVuSans-30"/>
       <use xlink:href="#DejaVuSans-2e" transform="translate(63.623047 0)"/>
       <use xlink:href="#DejaVuSans-35" transform="translate(95.410156 0)"/>
      </g>
     </g>
    </g>
    <g id="ytick_3">
     <g id="line2d_21">
      <path d="M 47.307188 267.27296 
L 705.637188 267.27296 
" clip-path="url(#p07cf1a1ce7)" style="fill: none; stroke: #b0b0b0; stroke-opacity: 0.2; stroke-width: 0.6; stroke-linecap: square"/>
     </g>
     <g id="line2d_22">
      <g>
       <use xlink:href="#me542d8045f" x="47.307188" y="267.27296" style="stroke: #000000; stroke-width: 0.8"/>
      </g>
     </g>
     <g id="text_12">
      <!-- 1.0 -->
      <g transform="translate(22.81375 271.452101) scale(0.11 -0.11)">
       <use xlink:href="#DejaVuSans-31"/>
       <use xlink:href="#DejaVuSans-2e" transform="translate(63.623047 0)"/>
       <use xlink:href="#DejaVuSans-30" transform="translate(95.410156 0)"/>
      </g>
     </g>
    </g>
    <g id="ytick_4">
     <g id="line2d_23">
      <path d="M 47.307188 217.038716 
L 705.637188 217.038716 
" clip-path="url(#p07cf1a1ce7)" style="fill: none; stroke: #b0b0b0; stroke-opacity: 0.2; stroke-width: 0.6; stroke-linecap: square"/>
     </g>
     <g id="line2d_24">
      <g>
       <use xlink:href="#me542d8045f" x="47.307188" y="217.038716" style="stroke: #000000; stroke-width: 0.8"/>
      </g>
     </g>
     <g id="text_13">
      <!-- 1.5 -->
      <g transform="translate(22.81375 221.217857) scale(0.11 -0.11)">
       <use xlink:href="#DejaVuSans-31"/>
       <use xlink:href="#DejaVuSans-2e" transform="translate(63.623047 0)"/>
       <use xlink:href="#DejaVuSans-35" transform="translate(95.410156 0)"/>
      </g>
     </g>
    </g>
    <g id="ytick_5">
     <g id="line2d_25">
      <path d="M 47.307188 166.804472 
L 705.637188 166.804472 
" clip-path="url(#p07cf1a1ce7)" style="fill: none; stroke: #b0b0b0; stroke-opacity: 0.2; stroke-width: 0.6; stroke-linecap: square"/>
     </g>
     <g id="line2d_26">
      <g>
       <use xlink:href="#me542d8045f" x="47.307188" y="166.804472" style="stroke: #000000; stroke-width: 0.8"/>
      </g>
     </g>
     <g id="text_14">
      <!-- 2.0 -->
      <g transform="translate(22.81375 170.983612) scale(0.11 -0.11)">
       <use xlink:href="#DejaVuSans-32"/>
       <use xlink:href="#DejaVuSans-2e" transform="translate(63.623047 0)"/>
       <use xlink:href="#DejaVuSans-30" transform="translate(95.410156 0)"/>
      </g>
     </g>
    </g>
    <g id="ytick_6">
     <g id="line2d_27">
      <path d="M 47.307188 116.570227 
L 705.637188 116.570227 
" clip-path="url(#p07cf1a1ce7)" style="fill: none; stroke: #b0b0b0; stroke-opacity: 0.2; stroke-width: 0.6; stroke-linecap: square"/>
     </g>
     <g id="line2d_28">
      <g>
       <use xlink:href="#me542d8045f" x="47.307188" y="116.570227" style="stroke: #000000; stroke-width: 0.8"/>
      </g>
     </g>
     <g id="text_15">
      <!-- 2.5 -->
      <g transform="translate(22.81375 120.749368) scale(0.11 -0.11)">
       <use xlink:href="#DejaVuSans-32"/>
       <use xlink:href="#DejaVuSans-2e" transform="translate(63.623047 0)"/>
       <use xlink:href="#DejaVuSans-35" transform="translate(95.410156 0)"/>
      </g>
     </g>
    </g>
    <g id="ytick_7">
     <g id="line2d_29">
      <path d="M 47.307188 66.335983 
L 705.637188 66.335983 
" clip-path="url(#p07cf1a1ce7)" style="fill: none; stroke: #b0b0b0; stroke-opacity: 0.2; stroke-width: 0.6; stroke-linecap: square"/>
     </g>
     <g id="line2d_30">
      <g>
       <use xlink:href="#me542d8045f" x="47.307188" y="66.335983" style="stroke: #000000; stroke-width: 0.8"/>
      </g>
     </g>
     <g id="text_16">
      <!-- 3.0 -->
      <g transform="translate(22.81375 70.515124) scale(0.11 -0.11)">
       <defs>
        <path id="DejaVuSans-33" d="M 2597 2516 
Q 3050 2419 3304 2112 
Q 3559 1806 3559 1356 
Q 3559 666 3084 287 
Q 2609 -91 1734 -91 
Q 1441 -91 1130 -33 
Q 819 25 488 141 
L 488 750 
Q 750 597 1062 519 
Q 1375 441 1716 441 
Q 2309 441 2620 675 
Q 2931 909 2931 1356 
Q 2931 1769 2642 2001 
Q 2353 2234 1838 2234 
L 1294 2234 
L 1294 2753 
L 1863 2753 
Q 2328 2753 2575 2939 
Q 2822 3125 2822 3475 
Q 2822 3834 2567 4026 
Q 2313 4219 1838 4219 
Q 1578 4219 1281 4162 
Q 984 4106 628 3988 
L 628 4550 
Q 988 4650 1302 4700 
Q 1616 4750 1894 4750 
Q 2613 4750 3031 4423 
Q 3450 4097 3450 3541 
Q 3450 3153 3228 2886 
Q 3006 2619 2597 2516 
z
" transform="scale(0.015625)"/>
       </defs>
       <use xlink:href="#DejaVuSans-33"/>
       <use xlink:href="#DejaVuSans-2e" transform="translate(63.623047 0)"/>
       <use xlink:href="#DejaVuSans-30" transform="translate(95.410156 0)"/>
      </g>
     </g>
    </g>
    <g id="text_17">
     <!-- AU mean intensity -->
     <g transform="translate(16.318125 259.314687) rotate(-90) scale(0.12 -0.12)">
      <defs>
       <path id="DejaVuSans-41" d="M 2188 4044 
L 1331 1722 
L 3047 1722 
L 2188 4044 
z
M 1831 4666 
L 2547 4666 
L 4325 0 
L 3669 0 
L 3244 1197 
L 1141 1197 
L 716 0 
L 50 0 
L 1831 4666 
z
" transform="scale(0.015625)"/>
       <path id="DejaVuSans-55" d="M 556 4666 
L 1191 4666 
L 1191 1831 
Q 1191 1081 1462 751 
Q 1734 422 2344 422 
Q 2950 422 3222 751 
Q 3494 1081 3494 1831 
L 3494 4666 
L 4128 4666 
L 4128 1753 
Q 4128 841 3676 375 
Q 3225 -91 2344 -91 
Q 1459 -91 1007 375 
Q 556 841 556 1753 
L 556 4666 
z
" transform="scale(0.015625)"/>
       <path id="DejaVuSans-61" d="M 2194 1759 
Q 1497 1759 1228 1600 
Q 959 1441 959 1056 
Q 959 750 1161 570 
Q 1363 391 1709 391 
Q 2188 391 2477 730 
Q 2766 1069 2766 1631 
L 2766 1759 
L 2194 1759 
z
M 3341 1997 
L 3341 0 
L 2766 0 
L 2766 531 
Q 2569 213 2275 61 
Q 1981 -91 1556 -91 
Q 1019 -91 701 211 
Q 384 513 384 1019 
Q 384 1609 779 1909 
Q 1175 2209 1959 2209 
L 2766 2209 
L 2766 2266 
Q 2766 2663 2505 2880 
Q 2244 3097 1772 3097 
Q 1472 3097 1187 3025 
Q 903 2953 641 2809 
L 641 3341 
Q 956 3463 1253 3523 
Q 1550 3584 1831 3584 
Q 2591 3584 2966 3190 
Q 3341 2797 3341 1997 
z
" transform="scale(0.015625)"/>
       <path id="DejaVuSans-6e" d="M 3513 2113 
L 3513 0 
L 2938 0 
L 2938 2094 
Q 2938 2591 2744 2837 
Q 2550 3084 2163 3084 
Q 1697 3084 1428 2787 
Q 1159 2491 1159 1978 
L 1159 0 
L 581 0 
L 581 3500 
L 1159 3500 
L 1159 2956 
Q 1366 3272 1645 3428 
Q 1925 3584 2291 3584 
Q 2894 3584 3203 3211 
Q 3513 2838 3513 2113 
z
" transform="scale(0.015625)"/>
       <path id="DejaVuSans-74" d="M 1172 4494 
L 1172 3500 
L 2356 3500 
L 2356 3053 
L 1172 3053 
L 1172 1153 
Q 1172 725 1289 603 
Q 1406 481 1766 481 
L 2356 481 
L 2356 0 
L 1766 0 
Q 1100 0 847 248 
Q 594 497 594 1153 
L 594 3053 
L 172 3053 
L 172 3500 
L 594 3500 
L 594 4494 
L 1172 4494 
z
" transform="scale(0.015625)"/>
       <path id="DejaVuSans-79" d="M 2059 -325 
Q 1816 -950 1584 -1140 
Q 1353 -1331 966 -1331 
L 506 -1331 
L 506 -850 
L 844 -850 
Q 1081 -850 1212 -737 
Q 1344 -625 1503 -206 
L 1606 56 
L 191 3500 
L 800 3500 
L 1894 763 
L 2988 3500 
L 3597 3500 
L 2059 -325 
z
" transform="scale(0.015625)"/>
      </defs>
      <use xlink:href="#DejaVuSans-41"/>
      <use xlink:href="#DejaVuSans-55" transform="translate(68.408203 0)"/>
      <use xlink:href="#DejaVuSans-20" transform="translate(141.601562 0)"/>
      <use xlink:href="#DejaVuSans-6d" transform="translate(173.388672 0)"/>
      <use xlink:href="#DejaVuSans-65" transform="translate(270.800781 0)"/>
      <use xlink:href="#DejaVuSans-61" transform="translate(332.324219 0)"/>
      <use xlink:href="#DejaVuSans-6e" transform="translate(393.603516 0)"/>
      <use xlink:href="#DejaVuSans-20" transform="translate(456.982422 0)"/>
      <use xlink:href="#DejaVuSans-69" transform="translate(488.769531 0)"/>
      <use xlink:href="#DejaVuSans-6e" transform="translate(516.552734 0)"/>
      <use xlink:href="#DejaVuSans-74" transform="translate(579.931641 0)"/>
      <use xlink:href="#DejaVuSans-65" transform="translate(619.140625 0)"/>
      <use xlink:href="#DejaVuSans-6e" transform="translate(680.664062 0)"/>
      <use xlink:href="#DejaVuSans-73" transform="translate(744.042969 0)"/>
      <use xlink:href="#DejaVuSans-69" transform="translate(796.142578 0)"/>
      <use xlink:href="#DejaVuSans-74" transform="translate(823.925781 0)"/>
      <use xlink:href="#DejaVuSans-79" transform="translate(863.134766 0)"/>
     </g>
    </g>
   </g>
   <g id="FillBetweenPolyCollection_1">
    <defs>
     <path id="m68abf5db8f" d="M 47.307188 -154.920785 
L 47.307188 -18.204397 
L 50.772082 -8.242968 
L 54.236977 9.414332 
L 57.701872 1.288128 
L 61.166766 -1.729883 
L 64.631661 -1.693019 
L 68.096556 -5.270139 
L 71.561451 -8.434433 
L 75.026345 -9.973146 
L 78.49124 -9.027317 
L 81.956135 -7.690862 
L 85.42103 -6.949568 
L 88.885924 -7.808236 
L 92.350819 -7.669566 
L 95.815714 -7.899079 
L 99.280609 -6.181255 
L 102.745503 -3.68453 
L 106.210398 -3.261907 
L 109.675293 -4.227061 
L 113.140187 -6.328729 
L 116.605082 -7.424084 
L 120.069977 -5.170937 
L 123.534872 -4.135762 
L 126.999766 -5.536151 
L 130.464661 -5.721952 
L 133.929556 -7.790186 
L 137.394451 -5.054941 
L 140.859345 -1.359828 
L 144.32424 4.842186 
L 147.789135 13.785336 
L 151.25403 15.540774 
L 154.718924 12.09738 
L 158.183819 6.9385 
L 161.648714 5.017438 
L 165.113609 0.211426 
L 168.578503 1.201715 
L 172.043398 1.291367 
L 175.508293 11.2691 
L 178.973187 10.693932 
L 182.438082 11.47942 
L 185.902977 12.11761 
L 189.367872 14.810888 
L 192.832766 11.603369 
L 196.297661 3.217622 
L 199.762556 -3.916484 
L 203.227451 2.452371 
L 206.692345 -3.982089 
L 210.15724 -0.199 
L 213.622135 -1.831416 
L 217.08703 -1.136798 
L 220.551924 -0.055235 
L 224.016819 -0.188015 
L 227.481714 -3.903893 
L 230.946609 -1.486169 
L 234.411503 -4.477467 
L 237.876398 -5.257298 
L 241.341293 -3.278735 
L 244.806187 5.879928 
L 248.271082 7.285608 
L 251.735977 0.017634 
L 255.200872 1.881503 
L 258.665766 -4.995629 
L 262.130661 -6.37481 
L 265.595556 -5.447565 
L 269.060451 3.118612 
L 272.525345 6.457694 
L 275.99024 9.939425 
L 279.455135 8.463146 
L 282.92003 -1.261861 
L 286.384924 2.709157 
L 289.849819 2.564865 
L 293.314714 1.093106 
L 296.779609 -1.118692 
L 300.244503 -4.744987 
L 303.709398 -4.349788 
L 307.174293 -6.136376 
L 310.639187 -4.371725 
L 314.104082 -5.069054 
L 317.568977 -5.293144 
L 321.033872 6.59754 
L 324.498766 9.032064 
L 327.963661 4.030495 
L 331.428556 1.968838 
L 334.893451 -1.236332 
L 338.358345 -0.855946 
L 341.82324 1.327802 
L 345.288135 2.665142 
L 348.75303 9.717449 
L 352.217924 7.615587 
L 355.682819 4.149767 
L 359.147714 3.518343 
L 362.612609 3.719324 
L 366.077503 3.281831 
L 369.542398 3.582797 
L 373.007293 6.293082 
L 376.472188 9.32529 
L 379.937082 7.733915 
L 383.401977 8.607908 
L 386.866872 3.486025 
L 390.331766 6.753416 
L 393.796661 4.740437 
L 397.261556 12.94156 
L 400.726451 2.651408 
L 404.191345 -8.36175 
L 407.65624 -6.670298 
L 411.121135 -4.898089 
L 414.58603 -2.935705 
L 418.050924 -3.619365 
L 421.515819 -11.025996 
L 424.980714 -5.405864 
L 428.445609 0.656665 
L 431.910503 -6.312839 
L 435.375398 -1.658452 
L 438.840293 -2.799131 
L 442.305187 -5.36074 
L 445.770082 -2.631512 
L 449.234977 -2.42517 
L 452.699872 0.367062 
L 456.164766 -5.928494 
L 459.629661 -12.900963 
L 463.094556 -1.290137 
L 466.559451 1.720577 
L 470.024345 -2.150587 
L 473.48924 0.92391 
L 476.954135 0.418087 
L 480.41903 -5.31959 
L 483.883924 -1.899784 
L 487.348819 2.868043 
L 490.813714 2.048278 
L 494.278609 -2.611024 
L 497.743503 -11.390329 
L 501.208398 -9.841964 
L 504.673293 -10.169489 
L 508.138188 -9.188507 
L 511.603082 -4.472654 
L 515.067977 -1.925804 
L 518.532872 -3.595531 
L 521.997766 -6.090812 
L 525.462661 -8.259863 
L 528.927556 -7.713262 
L 532.392451 -7.651116 
L 535.857345 -3.335223 
L 539.32224 -2.992537 
L 542.787135 1.293009 
L 546.25203 1.204268 
L 549.716924 -4.298162 
L 553.181819 -6.826186 
L 556.646714 -4.596567 
L 560.111609 -6.410229 
L 563.576503 -4.667079 
L 567.041398 0.404538 
L 570.506293 0.73471 
L 573.971188 -0.899761 
L 577.436082 0.201602 
L 580.900977 -0.560213 
L 584.365872 -1.248399 
L 587.830766 -2.355309 
L 591.295661 -6.886603 
L 594.760556 -9.608562 
L 598.225451 -9.951825 
L 601.690345 -4.353019 
L 605.15524 -8.175913 
L 608.620135 -6.014654 
L 612.08503 -8.720057 
L 615.549924 -5.059831 
L 619.014819 -6.751353 
L 622.479714 -10.813954 
L 625.944609 -8.857484 
L 629.409503 -12.165572 
L 632.874398 -9.41212 
L 636.339293 -9.45502 
L 639.804188 -4.229998 
L 643.269082 -4.682487 
L 646.733977 3.656855 
L 650.198872 -1.293803 
L 653.663766 -3.580529 
L 657.128661 -11.346357 
L 660.593556 -8.060168 
L 664.058451 -6.259855 
L 667.523345 1.344105 
L 670.98824 -2.762561 
L 674.453135 -11.865246 
L 677.91803 -6.040699 
L 681.382924 -1.941132 
L 684.847819 -3.828994 
L 688.312714 -6.068473 
L 691.777609 -12.075517 
L 695.242503 -8.604839 
L 698.707398 -8.852448 
L 702.172293 -5.451884 
L 705.637188 -17.919293 
L 705.637188 -119.830602 
L 705.637188 -119.830602 
L 702.172293 -273.186999 
L 698.707398 -275.785061 
L 695.242503 -274.414099 
L 691.777609 -263.906162 
L 688.312714 -274.642101 
L 684.847819 -281.312583 
L 681.382924 -278.693235 
L 677.91803 -268.672668 
L 674.453135 -264.293351 
L 670.98824 -278.723594 
L 667.523345 -285.106442 
L 664.058451 -276.547569 
L 660.593556 -272.162382 
L 657.128661 -250.637522 
L 653.663766 -256.284283 
L 650.198872 -260.415422 
L 646.733977 -267.230369 
L 643.269082 -253.515743 
L 639.804188 -249.052788 
L 636.339293 -241.652555 
L 632.874398 -243.952676 
L 629.409503 -243.005053 
L 625.944609 -254.146063 
L 622.479714 -253.824366 
L 619.014819 -262.342154 
L 615.549924 -262.092673 
L 612.08503 -252.106966 
L 608.620135 -249.516867 
L 605.15524 -254.425603 
L 601.690345 -256.211265 
L 598.225451 -242.260901 
L 594.760556 -240.471257 
L 591.295661 -239.054526 
L 587.830766 -243.170744 
L 584.365872 -241.97638 
L 580.900977 -241.777289 
L 577.436082 -239.782074 
L 573.971188 -231.437562 
L 570.506293 -221.411918 
L 567.041398 -220.286317 
L 563.576503 -209.00278 
L 560.111609 -205.682174 
L 556.646714 -206.615895 
L 553.181819 -208.283568 
L 549.716924 -217.60334 
L 546.25203 -225.278916 
L 542.787135 -226.957627 
L 539.32224 -221.168535 
L 535.857345 -221.803858 
L 532.392451 -212.373299 
L 528.927556 -214.738048 
L 525.462661 -215.261449 
L 521.997766 -219.756814 
L 518.532872 -230.878989 
L 515.067977 -234.475417 
L 511.603082 -231.369826 
L 508.138188 -221.175992 
L 504.673293 -223.60869 
L 501.208398 -229.643776 
L 497.743503 -232.595647 
L 494.278609 -262.795703 
L 490.813714 -294.853846 
L 487.348819 -322.205776 
L 483.883924 -332.077306 
L 480.41903 -308.735963 
L 476.954135 -279.791603 
L 473.48924 -274.977034 
L 470.024345 -265.024988 
L 466.559451 -270.907643 
L 463.094556 -264.540365 
L 459.629661 -238.505549 
L 456.164766 -242.206225 
L 452.699872 -249.974223 
L 449.234977 -242.3725 
L 445.770082 -236.550453 
L 442.305187 -228.930494 
L 438.840293 -230.184439 
L 435.375398 -231.014703 
L 431.910503 -222.57507 
L 428.445609 -236.777828 
L 424.980714 -227.890679 
L 421.515819 -220.237267 
L 418.050924 -238.478006 
L 414.58603 -241.60965 
L 411.121135 -247.34615 
L 407.65624 -243.78891 
L 404.191345 -245.779901 
L 400.726451 -264.179362 
L 397.261556 -286.762352 
L 393.796661 -261.802331 
L 390.331766 -253.93939 
L 386.866872 -251.13369 
L 383.401977 -257.534318 
L 379.937082 -259.90495 
L 376.472188 -262.697328 
L 373.007293 -255.498952 
L 369.542398 -248.709717 
L 366.077503 -234.643237 
L 362.612609 -229.154742 
L 359.147714 -226.902145 
L 355.682819 -227.810496 
L 352.217924 -233.238918 
L 348.75303 -228.833511 
L 345.288135 -219.958213 
L 341.82324 -222.152396 
L 338.358345 -220.42547 
L 334.893451 -222.317723 
L 331.428556 -232.150696 
L 327.963661 -238.838274 
L 324.498766 -248.2581 
L 321.033872 -241.159481 
L 317.568977 -216.742289 
L 314.104082 -211.950342 
L 310.639187 -214.143924 
L 307.174293 -215.425729 
L 303.709398 -223.057148 
L 300.244503 -225.780208 
L 296.779609 -236.494758 
L 293.314714 -249.818306 
L 289.849819 -260.321634 
L 286.384924 -263.848566 
L 282.92003 -255.486669 
L 279.455135 -257.007295 
L 275.99024 -257.107177 
L 272.525345 -244.288727 
L 269.060451 -234.546668 
L 265.595556 -220.894868 
L 262.130661 -216.081576 
L 258.665766 -214.147248 
L 255.200872 -220.035523 
L 251.735977 -216.137256 
L 248.271082 -221.460622 
L 244.806187 -219.943597 
L 241.341293 -205.294433 
L 237.876398 -200.631098 
L 234.411503 -201.292032 
L 230.946609 -211.088186 
L 227.481714 -206.239564 
L 224.016819 -209.013511 
L 220.551924 -215.137281 
L 217.08703 -217.935811 
L 213.622135 -217.213033 
L 210.15724 -219.633435 
L 206.692345 -219.548378 
L 203.227451 -225.635909 
L 199.762556 -219.358737 
L 196.297661 -223.140485 
L 192.832766 -231.647925 
L 189.367872 -229.249185 
L 185.902977 -222.788769 
L 182.438082 -218.604049 
L 178.973187 -214.76442 
L 175.508293 -208.638519 
L 172.043398 -195.907343 
L 168.578503 -195.73402 
L 165.113609 -192.264879 
L 161.648714 -198.806945 
L 158.183819 -208.772571 
L 154.718924 -222.050707 
L 151.25403 -233.991787 
L 147.789135 -228.802017 
L 144.32424 -201.82147 
L 140.859345 -187.875617 
L 137.394451 -181.180198 
L 133.929556 -178.072822 
L 130.464661 -180.959449 
L 126.999766 -180.972571 
L 123.534872 -184.982737 
L 120.069977 -183.937675 
L 116.605082 -179.282585 
L 113.140187 -182.23125 
L 109.675293 -184.996905 
L 106.210398 -187.974295 
L 102.745503 -186.274593 
L 99.280609 -182.296517 
L 95.815714 -181.583063 
L 92.350819 -183.647865 
L 88.885924 -184.2584 
L 85.42103 -186.867929 
L 81.956135 -188.545207 
L 78.49124 -188.827906 
L 75.026345 -187.444852 
L 71.561451 -187.007236 
L 68.096556 -197.029379 
L 64.631661 -209.491453 
L 61.166766 -217.555896 
L 57.701872 -221.976884 
L 54.236977 -227.68682 
L 50.772082 -178.66348 
L 47.307188 -154.920785 
z
" style="stroke: #d3d3d3; stroke-opacity: 0.5"/>
    </defs>
    <g clip-path="url(#p07cf1a1ce7)">
     <use xlink:href="#m68abf5db8f" x="0" y="424.5775" style="fill: #d3d3d3; fill-opacity: 0.5; stroke: #d3d3d3; stroke-opacity: 0.5"/>
    </g>
   </g>
   <g id="FillBetweenPolyCollection_2">
    <defs>
     <path id="mf582007d22" d="M 47.307188 -120.741688 
L 47.307188 -52.383494 
L 50.772082 -50.848096 
L 54.236977 -49.860956 
L 57.701872 -54.528125 
L 61.166766 -55.686386 
L 64.631661 -53.642628 
L 68.096556 -53.209949 
L 71.561451 -53.077634 
L 75.026345 -54.341073 
L 78.49124 -53.977464 
L 81.956135 -52.904449 
L 85.42103 -51.929158 
L 88.885924 -51.920777 
L 92.350819 -51.664141 
L 95.815714 -51.320075 
L 99.280609 -50.210071 
L 102.745503 -49.332046 
L 106.210398 -49.440004 
L 109.675293 -49.419522 
L 113.140187 -50.304359 
L 116.605082 -50.388709 
L 120.069977 -49.862621 
L 123.534872 -49.347506 
L 126.999766 -49.395256 
L 130.464661 -49.531326 
L 133.929556 -50.360845 
L 137.394451 -49.086255 
L 140.859345 -47.988775 
L 144.32424 -46.823728 
L 147.789135 -46.861502 
L 151.25403 -46.842366 
L 154.718924 -46.439642 
L 158.183819 -46.989268 
L 161.648714 -45.938658 
L 165.113609 -47.90765 
L 168.578503 -48.032219 
L 172.043398 -48.008311 
L 175.508293 -43.707805 
L 178.973187 -45.670656 
L 182.438082 -46.041447 
L 185.902977 -46.608985 
L 189.367872 -46.20413 
L 192.832766 -49.209455 
L 196.297661 -53.371905 
L 199.762556 -57.777048 
L 203.227451 -54.569699 
L 206.692345 -57.873661 
L 210.15724 -55.057609 
L 213.622135 -55.67682 
L 217.08703 -55.336551 
L 220.551924 -53.825747 
L 224.016819 -52.394389 
L 227.481714 -54.487811 
L 230.946609 -53.886673 
L 234.411503 -53.681108 
L 237.876398 -54.100748 
L 241.341293 -53.782659 
L 244.806187 -50.575953 
L 248.271082 -49.900949 
L 251.735977 -54.021089 
L 255.200872 -53.597754 
L 258.665766 -57.283533 
L 262.130661 -58.801502 
L 265.595556 -59.309391 
L 269.060451 -56.297708 
L 272.525345 -56.228911 
L 275.99024 -56.822226 
L 279.455135 -57.904464 
L 282.92003 -64.818063 
L 286.384924 -63.930274 
L 289.849819 -63.15676 
L 293.314714 -61.634747 
L 296.779609 -59.962709 
L 300.244503 -60.003792 
L 303.709398 -59.026628 
L 307.174293 -58.458715 
L 310.639187 -56.814774 
L 314.104082 -56.789376 
L 317.568977 -58.15543 
L 321.033872 -55.341715 
L 324.498766 -55.290477 
L 327.963661 -56.686697 
L 331.428556 -56.561046 
L 334.893451 -56.50668 
L 338.358345 -55.748327 
L 341.82324 -54.542247 
L 345.288135 -52.990697 
L 348.75303 -49.920291 
L 352.217924 -52.59804 
L 355.682819 -53.840299 
L 359.147714 -54.086779 
L 362.612609 -54.499192 
L 366.077503 -56.199436 
L 369.542398 -59.490332 
L 373.007293 -59.154926 
L 376.472188 -58.680365 
L 379.937082 -59.175802 
L 383.401977 -57.927649 
L 386.866872 -60.168904 
L 390.331766 -58.419786 
L 393.796661 -61.895255 
L 397.261556 -61.984418 
L 400.726451 -64.056284 
L 404.191345 -67.716287 
L 407.65624 -65.949951 
L 411.121135 -65.510104 
L 414.58603 -62.604191 
L 418.050924 -62.334026 
L 421.515819 -63.328814 
L 424.980714 -61.027068 
L 428.445609 -58.701958 
L 431.910503 -60.378397 
L 435.375398 -58.997514 
L 438.840293 -59.645458 
L 442.305187 -61.253178 
L 445.770082 -61.111247 
L 449.234977 -62.412003 
L 452.699872 -62.218259 
L 456.164766 -64.997926 
L 459.629661 -69.30211 
L 463.094556 -67.102694 
L 466.559451 -66.436478 
L 470.024345 -67.869187 
L 473.48924 -68.051326 
L 476.954135 -69.634335 
L 480.41903 -81.173683 
L 483.883924 -84.444164 
L 487.348819 -78.400412 
L 490.813714 -72.177253 
L 494.278609 -67.657193 
L 497.743503 -66.691658 
L 501.208398 -64.792417 
L 504.673293 -63.529289 
L 508.138188 -62.185379 
L 511.603082 -61.196947 
L 515.067977 -60.063208 
L 518.532872 -60.416395 
L 521.997766 -59.507313 
L 525.462661 -60.010259 
L 528.927556 -59.469458 
L 532.392451 -58.831662 
L 535.857345 -57.952382 
L 539.32224 -57.536537 
L 542.787135 -55.76965 
L 546.25203 -55.416528 
L 549.716924 -57.624457 
L 553.181819 -57.190531 
L 556.646714 -55.101399 
L 560.111609 -56.228215 
L 563.576503 -55.751004 
L 567.041398 -54.768175 
L 570.506293 -54.801947 
L 573.971188 -58.534211 
L 577.436082 -59.794317 
L 580.900977 -60.864482 
L 584.365872 -61.430395 
L 587.830766 -62.559168 
L 591.295661 -64.928583 
L 594.760556 -67.324236 
L 598.225451 -68.029094 
L 601.690345 -67.31758 
L 605.15524 -69.738336 
L 608.620135 -66.890207 
L 612.08503 -69.566784 
L 615.549924 -69.318041 
L 619.014819 -70.649053 
L 622.479714 -71.566557 
L 625.944609 -70.179629 
L 629.409503 -69.875442 
L 632.874398 -68.047259 
L 636.339293 -67.504404 
L 639.804188 -65.435695 
L 643.269082 -66.890801 
L 646.733977 -64.064951 
L 650.198872 -66.074208 
L 653.663766 -66.756467 
L 657.128661 -71.169148 
L 660.593556 -74.085721 
L 664.058451 -73.831784 
L 667.523345 -70.268532 
L 670.98824 -71.752819 
L 674.453135 -74.972272 
L 677.91803 -71.698691 
L 681.382924 -71.129158 
L 684.847819 -73.199892 
L 688.312714 -73.21188 
L 691.777609 -75.033178 
L 695.242503 -75.057154 
L 698.707398 -75.585601 
L 702.172293 -72.385663 
L 705.637188 -43.39712 
L 705.637188 -94.352775 
L 705.637188 -94.352775 
L 702.172293 -206.253221 
L 698.707398 -209.051908 
L 695.242503 -207.961784 
L 691.777609 -200.948501 
L 688.312714 -207.498694 
L 684.847819 -211.941686 
L 681.382924 -209.505209 
L 677.91803 -203.014676 
L 674.453135 -201.186324 
L 670.98824 -209.733336 
L 667.523345 -213.493805 
L 664.058451 -208.975641 
L 660.593556 -206.136829 
L 657.128661 -190.814731 
L 653.663766 -193.108344 
L 650.198872 -195.635017 
L 646.733977 -199.508563 
L 643.269082 -191.307429 
L 639.804188 -187.84709 
L 636.339293 -183.603171 
L 632.874398 -185.317537 
L 629.409503 -185.295183 
L 625.944609 -192.823918 
L 622.479714 -193.071763 
L 619.014819 -198.444454 
L 615.549924 -197.834463 
L 612.08503 -191.260239 
L 608.620135 -188.641314 
L 605.15524 -192.863181 
L 601.690345 -193.246703 
L 598.225451 -184.183632 
L 594.760556 -182.755583 
L 591.295661 -181.012545 
L 587.830766 -182.966885 
L 584.365872 -181.794385 
L 580.900977 -181.47302 
L 577.436082 -179.786155 
L 573.971188 -173.803112 
L 570.506293 -165.875261 
L 567.041398 -165.113603 
L 563.576503 -157.918855 
L 560.111609 -155.864188 
L 556.646714 -156.111063 
L 553.181819 -157.919223 
L 549.716924 -164.277046 
L 546.25203 -168.65812 
L 542.787135 -169.894968 
L 539.32224 -166.624536 
L 535.857345 -167.186699 
L 532.392451 -161.192753 
L 528.927556 -162.981851 
L 525.462661 -163.511052 
L 521.997766 -166.340314 
L 518.532872 -174.058124 
L 515.067977 -176.338014 
L 511.603082 -174.645533 
L 508.138188 -168.179121 
L 504.673293 -170.24889 
L 501.208398 -174.693323 
L 497.743503 -177.294317 
L 494.278609 -197.749533 
L 490.813714 -220.628315 
L 487.348819 -240.937322 
L 483.883924 -249.532926 
L 480.41903 -232.88187 
L 476.954135 -209.73918 
L 473.48924 -206.001798 
L 470.024345 -199.306388 
L 466.559451 -202.750588 
L 463.094556 -198.727808 
L 459.629661 -182.104403 
L 456.164766 -183.136792 
L 452.699872 -187.388902 
L 449.234977 -182.385668 
L 445.770082 -178.070718 
L 442.305187 -173.038055 
L 438.840293 -173.338112 
L 435.375398 -173.67564 
L 431.910503 -168.509512 
L 428.445609 -177.419205 
L 424.980714 -172.269476 
L 421.515819 -167.934449 
L 418.050924 -179.763346 
L 414.58603 -181.941164 
L 411.121135 -186.734135 
L 407.65624 -184.509257 
L 404.191345 -186.425363 
L 400.726451 -197.471669 
L 397.261556 -211.836374 
L 393.796661 -195.166639 
L 390.331766 -188.766189 
L 386.866872 -187.478761 
L 383.401977 -190.998762 
L 379.937082 -192.995234 
L 376.472188 -194.691674 
L 373.007293 -190.050943 
L 369.542398 -185.636588 
L 366.077503 -175.16197 
L 362.612609 -170.936225 
L 359.147714 -169.297023 
L 355.682819 -169.82043 
L 352.217924 -173.025292 
L 348.75303 -169.195771 
L 345.288135 -164.302374 
L 341.82324 -166.282346 
L 338.358345 -165.533089 
L 334.893451 -167.047376 
L 331.428556 -173.620812 
L 327.963661 -178.121082 
L 324.498766 -183.935559 
L 321.033872 -179.220226 
L 317.568977 -163.880003 
L 314.104082 -160.23002 
L 310.639187 -161.700874 
L 307.174293 -163.103391 
L 303.709398 -168.380308 
L 300.244503 -170.521403 
L 296.779609 -177.650741 
L 293.314714 -187.090453 
L 289.849819 -194.600009 
L 286.384924 -197.209135 
L 282.92003 -191.930467 
L 279.455135 -190.639685 
L 275.99024 -190.345527 
L 272.525345 -181.602122 
L 269.060451 -175.130348 
L 265.595556 -167.033042 
L 262.130661 -163.654884 
L 258.665766 -161.859343 
L 255.200872 -164.556267 
L 251.735977 -162.098534 
L 248.271082 -164.274065 
L 244.806187 -163.487715 
L 241.341293 -154.790509 
L 237.876398 -151.787648 
L 234.411503 -152.08839 
L 230.946609 -158.687682 
L 227.481714 -155.655646 
L 224.016819 -156.807137 
L 220.551924 -161.366769 
L 217.08703 -163.736058 
L 213.622135 -163.367629 
L 210.15724 -164.774826 
L 206.692345 -165.656806 
L 203.227451 -168.613839 
L 199.762556 -165.498174 
L 196.297661 -166.550958 
L 192.832766 -170.835102 
L 189.367872 -168.234167 
L 185.902977 -164.062175 
L 182.438082 -161.083182 
L 178.973187 -158.399832 
L 175.508293 -153.661614 
L 172.043398 -146.607666 
L 168.578503 -146.500086 
L 165.113609 -144.145803 
L 161.648714 -147.85085 
L 158.183819 -154.844803 
L 154.718924 -163.513685 
L 151.25403 -171.608647 
L 147.789135 -168.155179 
L 144.32424 -150.155556 
L 140.859345 -141.246669 
L 137.394451 -137.148883 
L 133.929556 -135.502163 
L 130.464661 -137.150075 
L 126.999766 -137.113466 
L 123.534872 -139.770993 
L 120.069977 -139.24599 
L 116.605082 -136.31796 
L 113.140187 -138.25562 
L 109.675293 -139.804444 
L 106.210398 -141.796198 
L 102.745503 -140.627078 
L 99.280609 -138.267701 
L 95.815714 -138.162067 
L 92.350819 -139.65329 
L 88.885924 -140.145859 
L 85.42103 -141.888339 
L 81.956135 -143.331621 
L 78.49124 -143.877758 
L 75.026345 -143.076925 
L 71.561451 -142.364035 
L 68.096556 -149.089569 
L 64.631661 -157.541845 
L 61.166766 -163.599392 
L 57.701872 -166.160631 
L 54.236977 -168.411532 
L 50.772082 -136.058352 
L 47.307188 -120.741688 
z
" style="stroke: #808080; stroke-opacity: 0.7"/>
    </defs>
    <g clip-path="url(#p07cf1a1ce7)">
     <use xlink:href="#mf582007d22" x="0" y="424.5775" style="fill: #808080; fill-opacity: 0.7; stroke: #808080; stroke-opacity: 0.7"/>
    </g>
   </g>
   <g id="line2d_31">
    <path d="M 47.307188 367.741449 
L 50.772082 338.647771 
L 54.236977 354.760779 
L 57.701872 346.94757 
L 61.166766 367.741449 
L 144.32424 367.741449 
L 147.789135 366.616513 
L 151.25403 367.741449 
L 185.902977 367.741449 
L 189.367872 367.554114 
L 192.832766 348.399156 
L 196.297661 356.82489 
L 199.762556 367.741449 
L 203.227451 367.741449 
L 206.692345 367.173443 
L 210.15724 367.741449 
L 241.341293 367.741449 
L 244.806187 367.444558 
L 248.271082 361.593836 
L 251.735977 367.602582 
L 255.200872 367.741449 
L 286.384924 367.741449 
L 289.849819 364.39998 
L 293.314714 364.995345 
L 296.779609 367.741449 
L 307.174293 367.741449 
L 310.639187 363.995428 
L 314.104082 364.815324 
L 317.568977 367.245143 
L 321.033872 367.691894 
L 331.428556 367.741449 
L 334.893451 367.496495 
L 338.358345 367.741449 
L 366.077503 367.741449 
L 369.542398 367.609093 
L 373.007293 348.666791 
L 376.472188 337.633614 
L 379.937082 345.230605 
L 383.401977 361.893248 
L 386.866872 363.619132 
L 390.331766 356.873645 
L 393.796661 342.230117 
L 397.261556 304.219385 
L 400.726451 315.728162 
L 404.191345 192.94083 
L 407.65624 283.279835 
L 411.121135 297.163183 
L 414.58603 296.666547 
L 418.050924 305.215429 
L 421.515819 322.397349 
L 424.980714 337.491671 
L 428.445609 317.823956 
L 431.910503 324.291091 
L 435.375398 288.935668 
L 438.840293 322.923258 
L 442.305187 323.761365 
L 445.770082 312.439472 
L 449.234977 315.586256 
L 452.699872 304.065042 
L 456.164766 282.706719 
L 459.629661 267.874074 
L 463.094556 224.798774 
L 466.559451 294.294924 
L 470.024345 319.364761 
L 473.48924 316.587172 
L 476.954135 331.400109 
L 480.41903 281.129704 
L 483.883924 218.017125 
L 487.348819 293.016294 
L 490.813714 302.741361 
L 494.278609 317.702934 
L 497.743503 285.719341 
L 501.208398 326.190078 
L 504.673293 347.596959 
L 508.138188 347.965903 
L 511.603082 347.243735 
L 515.067977 338.800565 
L 518.532872 246.294171 
L 521.997766 222.701366 
L 525.462661 210.248463 
L 528.927556 202.275624 
L 532.392451 236.070448 
L 535.857345 271.933616 
L 539.32224 312.343605 
L 542.787135 252.824214 
L 546.25203 264.811845 
L 549.716924 297.523302 
L 553.181819 296.041307 
L 556.646714 291.777077 
L 560.111609 287.953865 
L 563.576503 310.135977 
L 567.041398 326.15329 
L 570.506293 323.37968 
L 573.971188 325.635845 
L 577.436082 313.302903 
L 580.900977 304.394342 
L 584.365872 314.880524 
L 587.830766 320.408062 
L 591.295661 304.835087 
L 594.760556 321.884095 
L 598.225451 241.318037 
L 601.690345 151.76753 
L 605.15524 208.71686 
L 608.620135 115.414042 
L 612.08503 216.074827 
L 615.549924 164.70018 
L 619.014819 230.965122 
L 622.479714 203.275365 
L 625.944609 233.823172 
L 629.409503 298.57537 
L 632.874398 288.959939 
L 636.339293 296.415349 
L 639.804188 225.473226 
L 643.269082 227.218113 
L 646.733977 266.374616 
L 650.198872 252.869131 
L 653.663766 131.321488 
L 657.128661 205.935319 
L 660.593556 245.350194 
L 664.058451 243.340257 
L 667.523345 229.798469 
L 670.98824 211.100351 
L 674.453135 189.893182 
L 677.91803 208.628392 
L 681.382924 210.32877 
L 684.847819 246.117237 
L 688.312714 264.737927 
L 691.777609 273.003058 
L 695.242503 292.442822 
L 698.707398 307.210031 
L 702.172293 282.471534 
L 705.637188 281.725845 
L 705.637188 281.725845 
" clip-path="url(#p07cf1a1ce7)" style="fill: none; stroke: #ff8c00; stroke-width: 2.3; stroke-linecap: square"/>
   </g>
   <g id="line2d_32">
    <path d="M 282.92003 384.117812 
L 282.92003 23.837812 
" clip-path="url(#p07cf1a1ce7)" style="fill: none; stroke-dasharray: 5.55,2.4; stroke-dashoffset: 0; stroke: #808080; stroke-width: 1.5"/>
   </g>
   <g id="line2d_33">
    <path d="M 483.883924 384.117812 
L 483.883924 23.837812 
" clip-path="url(#p07cf1a1ce7)" style="fill: none; stroke-dasharray: 5.55,2.4; stroke-dashoffset: 0; stroke: #808080; stroke-width: 1.5"/>
   </g>
   <g id="patch_3">
    <path d="M 47.307188 384.117812 
L 47.307188 23.837812 
" style="fill: none; stroke: #000000; stroke-width: 0.8; stroke-linejoin: miter; stroke-linecap: square"/>
   </g>
   <g id="patch_4">
    <path d="M 705.637188 384.117812 
L 705.637188 23.837812 
" style="fill: none; stroke: #000000; stroke-width: 0.8; stroke-linejoin: miter; stroke-linecap: square"/>
   </g>
   <g id="patch_5">
    <path d="M 47.307188 384.117812 
L 705.637188 384.117812 
" style="fill: none; stroke: #000000; stroke-width: 0.8; stroke-linejoin: miter; stroke-linecap: square"/>
   </g>
   <g id="patch_6">
    <path d="M 47.307188 23.837812 
L 705.637188 23.837812 
" style="fill: none; stroke: #000000; stroke-width: 0.8; stroke-linejoin: miter; stroke-linecap: square"/>
   </g>
   <g id="text_18">
    <!-- Facial trace: Control group -->
    <g transform="translate(284.040469 17.837812) scale(0.14 -0.14)">
     <defs>
      <path id="DejaVuSans-46" d="M 628 4666 
L 3309 4666 
L 3309 4134 
L 1259 4134 
L 1259 2759 
L 3109 2759 
L 3109 2228 
L 1259 2228 
L 1259 0 
L 628 0 
L 628 4666 
z
" transform="scale(0.015625)"/>
      <path id="DejaVuSans-63" d="M 3122 3366 
L 3122 2828 
Q 2878 2963 2633 3030 
Q 2388 3097 2138 3097 
Q 1578 3097 1268 2742 
Q 959 2388 959 1747 
Q 959 1106 1268 751 
Q 1578 397 2138 397 
Q 2388 397 2633 464 
Q 2878 531 3122 666 
L 3122 134 
Q 2881 22 2623 -34 
Q 2366 -91 2075 -91 
Q 1284 -91 818 406 
Q 353 903 353 1747 
Q 353 2603 823 3093 
Q 1294 3584 2113 3584 
Q 2378 3584 2631 3529 
Q 2884 3475 3122 3366 
z
" transform="scale(0.015625)"/>
      <path id="DejaVuSans-6c" d="M 603 4863 
L 1178 4863 
L 1178 0 
L 603 0 
L 603 4863 
z
" transform="scale(0.015625)"/>
      <path id="DejaVuSans-72" d="M 2631 2963 
Q 2534 3019 2420 3045 
Q 2306 3072 2169 3072 
Q 1681 3072 1420 2755 
Q 1159 2438 1159 1844 
L 1159 0 
L 581 0 
L 581 3500 
L 1159 3500 
L 1159 2956 
Q 1341 3275 1631 3429 
Q 1922 3584 2338 3584 
Q 2397 3584 2469 3576 
Q 2541 3569 2628 3553 
L 2631 2963 
z
" transform="scale(0.015625)"/>
      <path id="DejaVuSans-3a" d="M 750 794 
L 1409 794 
L 1409 0 
L 750 0 
L 750 794 
z
M 750 3309 
L 1409 3309 
L 1409 2516 
L 750 2516 
L 750 3309 
z
" transform="scale(0.015625)"/>
      <path id="DejaVuSans-43" d="M 4122 4306 
L 4122 3641 
Q 3803 3938 3442 4084 
Q 3081 4231 2675 4231 
Q 1875 4231 1450 3742 
Q 1025 3253 1025 2328 
Q 1025 1406 1450 917 
Q 1875 428 2675 428 
Q 3081 428 3442 575 
Q 3803 722 4122 1019 
L 4122 359 
Q 3791 134 3420 21 
Q 3050 -91 2638 -91 
Q 1578 -91 968 557 
Q 359 1206 359 2328 
Q 359 3453 968 4101 
Q 1578 4750 2638 4750 
Q 3056 4750 3426 4639 
Q 3797 4528 4122 4306 
z
" transform="scale(0.015625)"/>
      <path id="DejaVuSans-6f" d="M 1959 3097 
Q 1497 3097 1228 2736 
Q 959 2375 959 1747 
Q 959 1119 1226 758 
Q 1494 397 1959 397 
Q 2419 397 2687 759 
Q 2956 1122 2956 1747 
Q 2956 2369 2687 2733 
Q 2419 3097 1959 3097 
z
M 1959 3584 
Q 2709 3584 3137 3096 
Q 3566 2609 3566 1747 
Q 3566 888 3137 398 
Q 2709 -91 1959 -91 
Q 1206 -91 779 398 
Q 353 888 353 1747 
Q 353 2609 779 3096 
Q 1206 3584 1959 3584 
z
" transform="scale(0.015625)"/>
      <path id="DejaVuSans-67" d="M 2906 1791 
Q 2906 2416 2648 2759 
Q 2391 3103 1925 3103 
Q 1463 3103 1205 2759 
Q 947 2416 947 1791 
Q 947 1169 1205 825 
Q 1463 481 1925 481 
Q 2391 481 2648 825 
Q 2906 1169 2906 1791 
z
M 3481 434 
Q 3481 -459 3084 -895 
Q 2688 -1331 1869 -1331 
Q 1566 -1331 1297 -1286 
Q 1028 -1241 775 -1147 
L 775 -588 
Q 1028 -725 1275 -790 
Q 1522 -856 1778 -856 
Q 2344 -856 2625 -561 
Q 2906 -266 2906 331 
L 2906 616 
Q 2728 306 2450 153 
Q 2172 0 1784 0 
Q 1141 0 747 490 
Q 353 981 353 1791 
Q 353 2603 747 3093 
Q 1141 3584 1784 3584 
Q 2172 3584 2450 3431 
Q 2728 3278 2906 2969 
L 2906 3500 
L 3481 3500 
L 3481 434 
z
" transform="scale(0.015625)"/>
      <path id="DejaVuSans-75" d="M 544 1381 
L 544 3500 
L 1119 3500 
L 1119 1403 
Q 1119 906 1312 657 
Q 1506 409 1894 409 
Q 2359 409 2629 706 
Q 2900 1003 2900 1516 
L 2900 3500 
L 3475 3500 
L 3475 0 
L 2900 0 
L 2900 538 
Q 2691 219 2414 64 
Q 2138 -91 1772 -91 
Q 1169 -91 856 284 
Q 544 659 544 1381 
z
M 1991 3584 
L 1991 3584 
z
" transform="scale(0.015625)"/>
      <path id="DejaVuSans-70" d="M 1159 525 
L 1159 -1331 
L 581 -1331 
L 581 3500 
L 1159 3500 
L 1159 2969 
Q 1341 3281 1617 3432 
Q 1894 3584 2278 3584 
Q 2916 3584 3314 3078 
Q 3713 2572 3713 1747 
Q 3713 922 3314 415 
Q 2916 -91 2278 -91 
Q 1894 -91 1617 61 
Q 1341 213 1159 525 
z
M 3116 1747 
Q 3116 2381 2855 2742 
Q 2594 3103 2138 3103 
Q 1681 3103 1420 2742 
Q 1159 2381 1159 1747 
Q 1159 1113 1420 752 
Q 1681 391 2138 391 
Q 2594 391 2855 752 
Q 3116 1113 3116 1747 
z
" transform="scale(0.015625)"/>
     </defs>
     <use xlink:href="#DejaVuSans-46"/>
     <use xlink:href="#DejaVuSans-61" transform="translate(48.394531 0)"/>
     <use xlink:href="#DejaVuSans-63" transform="translate(109.673828 0)"/>
     <use xlink:href="#DejaVuSans-69" transform="translate(164.654297 0)"/>
     <use xlink:href="#DejaVuSans-61" transform="translate(192.4375 0)"/>
     <use xlink:href="#DejaVuSans-6c" transform="translate(253.716797 0)"/>
     <use xlink:href="#DejaVuSans-20" transform="translate(281.5 0)"/>
     <use xlink:href="#DejaVuSans-74" transform="translate(313.287109 0)"/>
     <use xlink:href="#DejaVuSans-72" transform="translate(352.496094 0)"/>
     <use xlink:href="#DejaVuSans-61" transform="translate(393.609375 0)"/>
     <use xlink:href="#DejaVuSans-63" transform="translate(454.888672 0)"/>
     <use xlink:href="#DejaVuSans-65" transform="translate(509.869141 0)"/>
     <use xlink:href="#DejaVuSans-3a" transform="translate(571.392578 0)"/>
     <use xlink:href="#DejaVuSans-20" transform="translate(605.083984 0)"/>
     <use xlink:href="#DejaVuSans-43" transform="translate(636.871094 0)"/>
     <use xlink:href="#DejaVuSans-6f" transform="translate(706.695312 0)"/>
     <use xlink:href="#DejaVuSans-6e" transform="translate(767.876953 0)"/>
     <use xlink:href="#DejaVuSans-74" transform="translate(831.255859 0)"/>
     <use xlink:href="#DejaVuSans-72" transform="translate(870.464844 0)"/>
     <use xlink:href="#DejaVuSans-6f" transform="translate(909.328125 0)"/>
     <use xlink:href="#DejaVuSans-6c" transform="translate(970.509766 0)"/>
     <use xlink:href="#DejaVuSans-20" transform="translate(998.292969 0)"/>
     <use xlink:href="#DejaVuSans-67" transform="translate(1030.080078 0)"/>
     <use xlink:href="#DejaVuSans-72" transform="translate(1093.556641 0)"/>
     <use xlink:href="#DejaVuSans-6f" transform="translate(1132.419922 0)"/>
     <use xlink:href="#DejaVuSans-75" transform="translate(1193.601562 0)"/>
     <use xlink:href="#DejaVuSans-70" transform="translate(1256.980469 0)"/>
    </g>
   </g>
   <g id="legend_1">
    <g id="patch_7">
     <path d="M 551.080313 42.096094 
L 573.080313 42.096094 
L 573.080313 34.396094 
L 551.080313 34.396094 
z
" style="fill: #d3d3d3; fill-opacity: 0.5; stroke: #d3d3d3; stroke-opacity: 0.5; stroke-linejoin: miter"/>
    </g>
    <g id="text_19">
     <!-- Control group ±2 SD -->
     <g transform="translate(581.880313 42.096094) scale(0.11 -0.11)">
      <defs>
       <path id="DejaVuSans-b1" d="M 2944 4013 
L 2944 2803 
L 4684 2803 
L 4684 2272 
L 2944 2272 
L 2944 1063 
L 2419 1063 
L 2419 2272 
L 678 2272 
L 678 2803 
L 2419 2803 
L 2419 4013 
L 2944 4013 
z
M 678 531 
L 4684 531 
L 4684 0 
L 678 0 
L 678 531 
z
" transform="scale(0.015625)"/>
       <path id="DejaVuSans-53" d="M 3425 4513 
L 3425 3897 
Q 3066 4069 2747 4153 
Q 2428 4238 2131 4238 
Q 1616 4238 1336 4038 
Q 1056 3838 1056 3469 
Q 1056 3159 1242 3001 
Q 1428 2844 1947 2747 
L 2328 2669 
Q 3034 2534 3370 2195 
Q 3706 1856 3706 1288 
Q 3706 609 3251 259 
Q 2797 -91 1919 -91 
Q 1588 -91 1214 -16 
Q 841 59 441 206 
L 441 856 
Q 825 641 1194 531 
Q 1563 422 1919 422 
Q 2459 422 2753 634 
Q 3047 847 3047 1241 
Q 3047 1584 2836 1778 
Q 2625 1972 2144 2069 
L 1759 2144 
Q 1053 2284 737 2584 
Q 422 2884 422 3419 
Q 422 4038 858 4394 
Q 1294 4750 2059 4750 
Q 2388 4750 2728 4690 
Q 3069 4631 3425 4513 
z
" transform="scale(0.015625)"/>
       <path id="DejaVuSans-44" d="M 1259 4147 
L 1259 519 
L 2022 519 
Q 2988 519 3436 956 
Q 3884 1394 3884 2338 
Q 3884 3275 3436 3711 
Q 2988 4147 2022 4147 
L 1259 4147 
z
M 628 4666 
L 1925 4666 
Q 3281 4666 3915 4102 
Q 4550 3538 4550 2338 
Q 4550 1131 3912 565 
Q 3275 0 1925 0 
L 628 0 
L 628 4666 
z
" transform="scale(0.015625)"/>
      </defs>
      <use xlink:href="#DejaVuSans-43"/>
      <use xlink:href="#DejaVuSans-6f" transform="translate(69.824219 0)"/>
      <use xlink:href="#DejaVuSans-6e" transform="translate(131.005859 0)"/>
      <use xlink:href="#DejaVuSans-74" transform="translate(194.384766 0)"/>
      <use xlink:href="#DejaVuSans-72" transform="translate(233.59375 0)"/>
      <use xlink:href="#DejaVuSans-6f" transform="translate(272.457031 0)"/>
      <use xlink:href="#DejaVuSans-6c" transform="translate(333.638672 0)"/>
      <use xlink:href="#DejaVuSans-20" transform="translate(361.421875 0)"/>
      <use xlink:href="#DejaVuSans-67" transform="translate(393.208984 0)"/>
      <use xlink:href="#DejaVuSans-72" transform="translate(456.685547 0)"/>
      <use xlink:href="#DejaVuSans-6f" transform="translate(495.548828 0)"/>
      <use xlink:href="#DejaVuSans-75" transform="translate(556.730469 0)"/>
      <use xlink:href="#DejaVuSans-70" transform="translate(620.109375 0)"/>
      <use xlink:href="#DejaVuSans-20" transform="translate(683.585938 0)"/>
      <use xlink:href="#DejaVuSans-b1" transform="translate(715.373047 0)"/>
      <use xlink:href="#DejaVuSans-32" transform="translate(799.162109 0)"/>
      <use xlink:href="#DejaVuSans-20" transform="translate(862.785156 0)"/>
      <use xlink:href="#DejaVuSans-53" transform="translate(894.572266 0)"/>
      <use xlink:href="#DejaVuSans-44" transform="translate(958.048828 0)"/>
     </g>
    </g>
    <g id="patch_8">
     <path d="M 551.080313 58.242031 
L 573.080313 58.242031 
L 573.080313 50.542031 
L 551.080313 50.542031 
z
" style="fill: #808080; fill-opacity: 0.7; stroke: #808080; stroke-opacity: 0.7; stroke-linejoin: miter"/>
    </g>
    <g id="text_20">
     <!-- Control group ±1 SD -->
     <g transform="translate(581.880313 58.242031) scale(0.11 -0.11)">
      <use xlink:href="#DejaVuSans-43"/>
      <use xlink:href="#DejaVuSans-6f" transform="translate(69.824219 0)"/>
      <use xlink:href="#DejaVuSans-6e" transform="translate(131.005859 0)"/>
      <use xlink:href="#DejaVuSans-74" transform="translate(194.384766 0)"/>
      <use xlink:href="#DejaVuSans-72" transform="translate(233.59375 0)"/>
      <use xlink:href="#DejaVuSans-6f" transform="translate(272.457031 0)"/>
      <use xlink:href="#DejaVuSans-6c" transform="translate(333.638672 0)"/>
      <use xlink:href="#DejaVuSans-20" transform="translate(361.421875 0)"/>
      <use xlink:href="#DejaVuSans-67" transform="translate(393.208984 0)"/>
      <use xlink:href="#DejaVuSans-72" transform="translate(456.685547 0)"/>
      <use xlink:href="#DejaVuSans-6f" transform="translate(495.548828 0)"/>
      <use xlink:href="#DejaVuSans-75" transform="translate(556.730469 0)"/>
      <use xlink:href="#DejaVuSans-70" transform="translate(620.109375 0)"/>
      <use xlink:href="#DejaVuSans-20" transform="translate(683.585938 0)"/>
      <use xlink:href="#DejaVuSans-b1" transform="translate(715.373047 0)"/>
      <use xlink:href="#DejaVuSans-31" transform="translate(799.162109 0)"/>
      <use xlink:href="#DejaVuSans-20" transform="translate(862.785156 0)"/>
      <use xlink:href="#DejaVuSans-53" transform="translate(894.572266 0)"/>
      <use xlink:href="#DejaVuSans-44" transform="translate(958.048828 0)"/>
     </g>
    </g>
    <g id="line2d_34">
     <path d="M 551.080313 70.537969 
L 562.080313 70.537969 
L 573.080313 70.537969 
" style="fill: none; stroke: #ff8c00; stroke-width: 2.3; stroke-linecap: square"/>
    </g>
    <g id="text_21">
     <!-- Patient -->
     <g transform="translate(581.880313 74.387969) scale(0.11 -0.11)">
      <defs>
       <path id="DejaVuSans-50" d="M 1259 4147 
L 1259 2394 
L 2053 2394 
Q 2494 2394 2734 2622 
Q 2975 2850 2975 3272 
Q 2975 3691 2734 3919 
Q 2494 4147 2053 4147 
L 1259 4147 
z
M 628 4666 
L 2053 4666 
Q 2838 4666 3239 4311 
Q 3641 3956 3641 3272 
Q 3641 2581 3239 2228 
Q 2838 1875 2053 1875 
L 1259 1875 
L 1259 0 
L 628 0 
L 628 4666 
z
" transform="scale(0.015625)"/>
      </defs>
      <use xlink:href="#DejaVuSans-50"/>
      <use xlink:href="#DejaVuSans-61" transform="translate(55.802734 0)"/>
      <use xlink:href="#DejaVuSans-74" transform="translate(117.082031 0)"/>
      <use xlink:href="#DejaVuSans-69" transform="translate(156.291016 0)"/>
      <use xlink:href="#DejaVuSans-65" transform="translate(184.074219 0)"/>
      <use xlink:href="#DejaVuSans-6e" transform="translate(245.597656 0)"/>
      <use xlink:href="#DejaVuSans-74" transform="translate(308.976562 0)"/>
     </g>
    </g>
   </g>
  </g>
 </g>
 <defs>
  <clipPath id="p07cf1a1ce7">
   <rect x="47.307188" y="23.837812" width="658.33" height="360.28"/>
  </clipPath>
 </defs>
</svg>
