<?xml version="1.0" encoding="utf-8" standalone="no"?>
<!DOCTYPE svg PUBLIC "-//W3C//DTD SVG 1.1//EN"
  "http://www.w3.org/Graphics/SVG/1.1/DTD/svg11.dtd">
<svg xmlns:xlink="http://www.w3.org/1999/xlink" width="712.837188pt" height="424.5775pt" viewBox="0 0 712.837188 424.5775" xmlns="http://www.w3.org/2000/svg" version="1.1">
 <metadata>
  <rdf:RDF xmlns:dc="http://purl.org/dc/elements/1.1/" xmlns:cc="http://creativecommons.org/ns#" xmlns:rdf="http://www.w3.org/1999/02/22-rdf-syntax-ns#">
   <cc:Work>
    <dc:type rdf:resource="http://purl.org/dc/dcmitype/StillImage"/>
    <dc:date>2026-06-23T21:32:01.881227</dc:date>
    <dc:format>image/svg+xml</dc:format>
    <dc:creator>
     <cc:Agent>
      <dc:title>Matplotlib v3.10.1, https://matplotlib.org/</dc:title>
     </cc:Agent>
    </dc:creator>
   </cc:Work>
  </rdf:RDF>
 </metadata>
 <defs>
  <style type="text/css">*{stroke-linejoin: round; stroke-linecap: butt}</style>
 </defs>
 <g id="figure_1">
  <g id="patch_1">
   <path d="M 0 424.5775 
L 712.837188 424.5775 
L 712.837188 0 
L 0 0 
z
" style="fill: #ffffff"/>
  </g>
  <g id="axes_1">
   <g id="patch_2">
    <path d="M 47.307188 384.117812 
L 705.637188 384.117812 
L 705.637188 23.837812 
L 47.307188 23.837812 
z
" style="fill: #ffffff"/>
   </g>
   <g id="matplotlib.axis_1">
    <g id="xtick_1">
     <g id="line2d_1">
      <path d="M 47.307188 384.117812 
L 47.307188 23.837812 
" clip-path="url(#p9a17583f01)" style="fill: none; stroke: #b0b0b0; stroke-opacity: 0.2; stroke-width: 0.6; stroke-linecap: square"/>
     </g>
     <g id="line2d_2">
      <defs>
       <path id="me3051ad545" d="M 0 0 
L 0 3.5 
" style="stroke: #000000; stroke-width: 0.8"/>
      </defs>
      <g>
       <use xlink:href="#me3051ad545" x="47.307188" y="384.117812" style="stroke: #000000; stroke-width: 0.8"/>
      </g>
     </g>
     <g id="text_1">
      <!-- 0 -->
      <g transform="translate(43.807813 399.476094) scale(0.11 -0.11)">
       <defs>
        <path id="DejaVuSans-30" d="M 2034 4250 
Q 1547 4250 1301 3770 
Q 1056 3291 1056 2328 
Q 1056 1369 1301 889 
Q 1547 409 2034 409 
Q 2525 409 2770 889 
Q 3016 1369 3016 2328 
Q 3016 3291 2770 3770 
Q 2525 4250 2034 4250 
z
M 2034 4750 
Q 2819 4750 3233 4129 
Q 3647 3509 3647 2328 
Q 3647 1150 3233 529 
Q 2819 -91 2034 -91 
Q 1250 -91 836 529 
Q 422 1150 422 2328 
Q 422 3509 836 4129 
Q 1250 4750 2034 4750 
z
" transform="scale(0.015625)"/>
       </defs>
       <use xlink:href="#DejaVuSans-30"/>
      </g>
     </g>
    </g>
    <g id="xtick_2">
     <g id="line2d_3">
      <path d="M 133.929556 384.117812 
L 133.929556 23.837812 
" clip-path="url(#p9a17583f01)" style="fill: none; stroke: #b0b0b0; stroke-opacity: 0.2; stroke-width: 0.6; stroke-linecap: square"/>
     </g>
     <g id="line2d_4">
      <g>
       <use xlink:href="#me3051ad545" x="133.929556" y="384.117812" style="stroke: #000000; stroke-width: 0.8"/>
      </g>
     </g>
     <g id="text_2">
      <!-- 25 -->
      <g transform="translate(126.930806 399.476094) scale(0.11 -0.11)">
       <defs>
        <path id="DejaVuSans-32" d="M 1228 531 
L 3431 531 
L 3431 0 
L 469 0 
L 469 531 
Q 828 903 1448 1529 
Q 2069 2156 2228 2338 
Q 2531 2678 2651 2914 
Q 2772 3150 2772 3378 
Q 2772 3750 2511 3984 
Q 2250 4219 1831 4219 
Q 1534 4219 1204 4116 
Q 875 4013 500 3803 
L 500 4441 
Q 881 4594 1212 4672 
Q 1544 4750 1819 4750 
Q 2544 4750 2975 4387 
Q 3406 4025 3406 3419 
Q 3406 3131 3298 2873 
Q 3191 2616 2906 2266 
Q 2828 2175 2409 1742 
Q 1991 1309 1228 531 
z
" transform="scale(0.015625)"/>
        <path id="DejaVuSans-35" d="M 691 4666 
L 3169 4666 
L 3169 4134 
L 1269 4134 
L 1269 2991 
Q 1406 3038 1543 3061 
Q 1681 3084 1819 3084 
Q 2600 3084 3056 2656 
Q 3513 2228 3513 1497 
Q 3513 744 3044 326 
Q 2575 -91 1722 -91 
Q 1428 -91 1123 -41 
Q 819 9 494 109 
L 494 744 
Q 775 591 1075 516 
Q 1375 441 1709 441 
Q 2250 441 2565 725 
Q 2881 1009 2881 1497 
Q 2881 1984 2565 2268 
Q 2250 2553 1709 2553 
Q 1456 2553 1204 2497 
Q 953 2441 691 2322 
L 691 4666 
z
" transform="scale(0.015625)"/>
       </defs>
       <use xlink:href="#DejaVuSans-32"/>
       <use xlink:href="#DejaVuSans-35" transform="translate(63.623047 0)"/>
      </g>
     </g>
    </g>
    <g id="xtick_3">
     <g id="line2d_5">
      <path d="M 220.551924 384.117812 
L 220.551924 23.837812 
" clip-path="url(#p9a17583f01)" style="fill: none; stroke: #b0b0b0; stroke-opacity: 0.2; stroke-width: 0.6; stroke-linecap: square"/>
     </g>
     <g id="line2d_6">
      <g>
       <use xlink:href="#me3051ad545" x="220.551924" y="384.117812" style="stroke: #000000; stroke-width: 0.8"/>
      </g>
     </g>
     <g id="text_3">
      <!-- 50 -->
      <g transform="translate(213.553174 399.476094) scale(0.11 -0.11)">
       <use xlink:href="#DejaVuSans-35"/>
       <use xlink:href="#DejaVuSans-30" transform="translate(63.623047 0)"/>
      </g>
     </g>
    </g>
    <g id="xtick_4">
     <g id="line2d_7">
      <path d="M 307.174293 384.117812 
L 307.174293 23.837812 
" clip-path="url(#p9a17583f01)" style="fill: none; stroke: #b0b0b0; stroke-opacity: 0.2; stroke-width: 0.6; stroke-linecap: square"/>
     </g>
     <g id="line2d_8">
      <g>
       <use xlink:href="#me3051ad545" x="307.174293" y="384.117812" style="stroke: #000000; stroke-width: 0.8"/>
      </g>
     </g>
     <g id="text_4">
      <!-- 75 -->
      <g transform="translate(300.175543 399.476094) scale(0.11 -0.11)">
       <defs>
        <path id="DejaVuSans-37" d="M 525 4666 
L 3525 4666 
L 3525 4397 
L 1831 0 
L 1172 0 
L 2766 4134 
L 525 4134 
L 525 4666 
z
" transform="scale(0.015625)"/>
       </defs>
       <use xlink:href="#DejaVuSans-37"/>
       <use xlink:href="#DejaVuSans-35" transform="translate(63.623047 0)"/>
      </g>
     </g>
    </g>
    <g id="xtick_5">
     <g id="line2d_9">
      <path d="M 393.796661 384.117812 
L 393.796661 23.837812 
" clip-path="url(#p9a17583f01)" style="fill: none; stroke: #b0b0b0; stroke-opacity: 0.2; stroke-width: 0.6; stroke-linecap: square"/>
     </g>
     <g id="line2d_10">
      <g>
       <use xlink:href="#me3051ad545" x="393.796661" y="384.117812" style="stroke: #000000; stroke-width: 0.8"/>
      </g>
     </g>
     <g id="text_5">
      <!-- 100 -->
      <g transform="translate(383.298536 399.476094) scale(0.11 -0.11)">
       <defs>
        <path id="DejaVuSans-31" d="M 794 531 
L 1825 531 
L 1825 4091 
L 703 3866 
L 703 4441 
L 1819 4666 
L 2450 4666 
L 2450 531 
L 3481 531 
L 3481 0 
L 794 0 
L 794 531 
z
" transform="scale(0.015625)"/>
       </defs>
       <use xlink:href="#DejaVuSans-31"/>
       <use xlink:href="#DejaVuSans-30" transform="translate(63.623047 0)"/>
       <use xlink:href="#DejaVuSans-30" transform="translate(127.246094 0)"/>
      </g>
     </g>
    </g>
    <g id="xtick_6">
     <g id="line2d_11">
      <path d="M 480.41903 384.117812 
L 480.41903 23.837812 
" clip-path="url(#p9a17583f01)" style="fill: none; stroke: #b0b0b0; stroke-opacity: 0.2; stroke-width: 0.6; stroke-linecap: square"/>
     </g>
     <g id="line2d_12">
      <g>
       <use xlink:href="#me3051ad545" x="480.41903" y="384.117812" style="stroke: #000000; stroke-width: 0.8"/>
      </g>
     </g>
     <g id="text_6">
      <!-- 125 -->
      <g transform="translate(469.920905 399.476094) scale(0.11 -0.11)">
       <use xlink:href="#DejaVuSans-31"/>
       <use xlink:href="#DejaVuSans-32" transform="translate(63.623047 0)"/>
       <use xlink:href="#DejaVuSans-35" transform="translate(127.246094 0)"/>
      </g>
     </g>
    </g>
    <g id="xtick_7">
     <g id="line2d_13">
      <path d="M 567.041398 384.117812 
L 567.041398 23.837812 
" clip-path="url(#p9a17583f01)" style="fill: none; stroke: #b0b0b0; stroke-opacity: 0.2; stroke-width: 0.6; stroke-linecap: square"/>
     </g>
     <g id="line2d_14">
      <g>
       <use xlink:href="#me3051ad545" x="567.041398" y="384.117812" style="stroke: #000000; stroke-width: 0.8"/>
      </g>
     </g>
     <g id="text_7">
      <!-- 150 -->
      <g transform="translate(556.543273 399.476094) scale(0.11 -0.11)">
       <use xlink:href="#DejaVuSans-31"/>
       <use xlink:href="#DejaVuSans-35" transform="translate(63.623047 0)"/>
       <use xlink:href="#DejaVuSans-30" transform="translate(127.246094 0)"/>
      </g>
     </g>
    </g>
    <g id="xtick_8">
     <g id="line2d_15">
      <path d="M 653.663766 384.117812 
L 653.663766 23.837812 
" clip-path="url(#p9a17583f01)" style="fill: none; stroke: #b0b0b0; stroke-opacity: 0.2; stroke-width: 0.6; stroke-linecap: square"/>
     </g>
     <g id="line2d_16">
      <g>
       <use xlink:href="#me3051ad545" x="653.663766" y="384.117812" style="stroke: #000000; stroke-width: 0.8"/>
      </g>
     </g>
     <g id="text_8">
      <!-- 175 -->
      <g transform="translate(643.165641 399.476094) scale(0.11 -0.11)">
       <use xlink:href="#DejaVuSans-31"/>
       <use xlink:href="#DejaVuSans-37" transform="translate(63.623047 0)"/>
       <use xlink:href="#DejaVuSans-35" transform="translate(127.246094 0)"/>
      </g>
     </g>
    </g>
    <g id="text_9">
     <!-- Time (s) -->
     <g transform="translate(352.0775 414.881875) scale(0.12 -0.12)">
      <defs>
       <path id="DejaVuSans-54" d="M -19 4666 
L 3928 4666 
L 3928 4134 
L 2272 4134 
L 2272 0 
L 1638 0 
L 1638 4134 
L -19 4134 
L -19 4666 
z
" transform="scale(0.015625)"/>
       <path id="DejaVuSans-69" d="M 603 3500 
L 1178 3500 
L 1178 0 
L 603 0 
L 603 3500 
z
M 603 4863 
L 1178 4863 
L 1178 4134 
L 603 4134 
L 603 4863 
z
" transform="scale(0.015625)"/>
       <path id="DejaVuSans-6d" d="M 3328 2828 
Q 3544 3216 3844 3400 
Q 4144 3584 4550 3584 
Q 5097 3584 5394 3201 
Q 5691 2819 5691 2113 
L 5691 0 
L 5113 0 
L 5113 2094 
Q 5113 2597 4934 2840 
Q 4756 3084 4391 3084 
Q 3944 3084 3684 2787 
Q 3425 2491 3425 1978 
L 3425 0 
L 2847 0 
L 2847 2094 
Q 2847 2600 2669 2842 
Q 2491 3084 2119 3084 
Q 1678 3084 1418 2786 
Q 1159 2488 1159 1978 
L 1159 0 
L 581 0 
L 581 3500 
L 1159 3500 
L 1159 2956 
Q 1356 3278 1631 3431 
Q 1906 3584 2284 3584 
Q 2666 3584 2933 3390 
Q 3200 3197 3328 2828 
z
" transform="scale(0.015625)"/>
       <path id="DejaVuSans-65" d="M 3597 1894 
L 3597 1613 
L 953 1613 
Q 991 1019 1311 708 
Q 1631 397 2203 397 
Q 2534 397 2845 478 
Q 3156 559 3463 722 
L 3463 178 
Q 3153 47 2828 -22 
Q 2503 -91 2169 -91 
Q 1331 -91 842 396 
Q 353 884 353 1716 
Q 353 2575 817 3079 
Q 1281 3584 2069 3584 
Q 2775 3584 3186 3129 
Q 3597 2675 3597 1894 
z
M 3022 2063 
Q 3016 2534 2758 2815 
Q 2500 3097 2075 3097 
Q 1594 3097 1305 2825 
Q 1016 2553 972 2059 
L 3022 2063 
z
" transform="scale(0.015625)"/>
       <path id="DejaVuSans-20" transform="scale(0.015625)"/>
       <path id="DejaVuSans-28" d="M 1984 4856 
Q 1566 4138 1362 3434 
Q 1159 2731 1159 2009 
Q 1159 1288 1364 580 
Q 1569 -128 1984 -844 
L 1484 -844 
Q 1016 -109 783 600 
Q 550 1309 550 2009 
Q 550 2706 781 3412 
Q 1013 4119 1484 4856 
L 1984 4856 
z
" transform="scale(0.015625)"/>
       <path id="DejaVuSans-73" d="M 2834 3397 
L 2834 2853 
Q 2591 2978 2328 3040 
Q 2066 3103 1784 3103 
Q 1356 3103 1142 2972 
Q 928 2841 928 2578 
Q 928 2378 1081 2264 
Q 1234 2150 1697 2047 
L 1894 2003 
Q 2506 1872 2764 1633 
Q 3022 1394 3022 966 
Q 3022 478 2636 193 
Q 2250 -91 1575 -91 
Q 1294 -91 989 -36 
Q 684 19 347 128 
L 347 722 
Q 666 556 975 473 
Q 1284 391 1588 391 
Q 1994 391 2212 530 
Q 2431 669 2431 922 
Q 2431 1156 2273 1281 
Q 2116 1406 1581 1522 
L 1381 1569 
Q 847 1681 609 1914 
Q 372 2147 372 2553 
Q 372 3047 722 3315 
Q 1072 3584 1716 3584 
Q 2034 3584 2315 3537 
Q 2597 3491 2834 3397 
z
" transform="scale(0.015625)"/>
       <path id="DejaVuSans-29" d="M 513 4856 
L 1013 4856 
Q 1481 4119 1714 3412 
Q 1947 2706 1947 2009 
Q 1947 1309 1714 600 
Q 1481 -109 1013 -844 
L 513 -844 
Q 928 -128 1133 580 
Q 1338 1288 1338 2009 
Q 1338 2731 1133 3434 
Q 928 4138 513 4856 
z
" transform="scale(0.015625)"/>
      </defs>
      <use xlink:href="#DejaVuSans-54"/>
      <use xlink:href="#DejaVuSans-69" transform="translate(57.958984 0)"/>
      <use xlink:href="#DejaVuSans-6d" transform="translate(85.742188 0)"/>
      <use xlink:href="#DejaVuSans-65" transform="translate(183.154297 0)"/>
      <use xlink:href="#DejaVuSans-20" transform="translate(244.677734 0)"/>
      <use xlink:href="#DejaVuSans-28" transform="translate(276.464844 0)"/>
      <use xlink:href="#DejaVuSans-73" transform="translate(315.478516 0)"/>
      <use xlink:href="#DejaVuSans-29" transform="translate(367.578125 0)"/>
     </g>
    </g>
   </g>
   <g id="matplotlib.axis_2">
    <g id="ytick_1">
     <g id="line2d_17">
      <path d="M 47.307188 367.741449 
L 705.637188 367.741449 
" clip-path="url(#p9a17583f01)" style="fill: none; stroke: #b0b0b0; stroke-opacity: 0.2; stroke-width: 0.6; stroke-linecap: square"/>
     </g>
     <g id="line2d_18">
      <defs>
       <path id="m8a23b0e8e5" d="M 0 0 
L -3.5 0 
" style="stroke: #000000; stroke-width: 0.8"/>
      </defs>
      <g>
       <use xlink:href="#m8a23b0e8e5" x="47.307188" y="367.741449" style="stroke: #000000; stroke-width: 0.8"/>
      </g>
     </g>
     <g id="text_10">
      <!-- 0.0 -->
      <g transform="translate(22.81375 371.920589) scale(0.11 -0.11)">
       <defs>
        <path id="DejaVuSans-2e" d="M 684 794 
L 1344 794 
L 1344 0 
L 684 0 
L 684 794 
z
" transform="scale(0.015625)"/>
       </defs>
       <use xlink:href="#DejaVuSans-30"/>
       <use xlink:href="#DejaVuSans-2e" transform="translate(63.623047 0)"/>
       <use xlink:href="#DejaVuSans-30" transform="translate(95.410156 0)"/>
      </g>
     </g>
    </g>
    <g id="ytick_2">
     <g id="line2d_19">
      <path d="M 47.307188 317.507205 
L 705.637188 317.507205 
" clip-path="url(#p9a17583f01)" style="fill: none; stroke: #b0b0b0; stroke-opacity: 0.2; stroke-width: 0.6; stroke-linecap: square"/>
     </g>
     <g id="line2d_20">
      <g>
       <use xlink:href="#m8a23b0e8e5" x="47.307188" y="317.507205" style="stroke: #000000; stroke-width: 0.8"/>
      </g>
     </g>
     <g id="text_11">
      <!-- 0.5 -->
      <g transform="translate(22.81375 321.686345) scale(0.11 -0.11)">
       <use xlink:href="#DejaVuSans-30"/>
       <use xlink:href="#DejaVuSans-2e" transform="translate(63.623047 0)"/>
       <use xlink:href="#DejaVuSans-35" transform="translate(95.410156 0)"/>
      </g>
     </g>
    </g>
    <g id="ytick_3">
     <g id="line2d_21">
      <path d="M 47.307188 267.27296 
L 705.637188 267.27296 
" clip-path="url(#p9a17583f01)" style="fill: none; stroke: #b0b0b0; stroke-opacity: 0.2; stroke-width: 0.6; stroke-linecap: square"/>
     </g>
     <g id="line2d_22">
      <g>
       <use xlink:href="#m8a23b0e8e5" x="47.307188" y="267.27296" style="stroke: #000000; stroke-width: 0.8"/>
      </g>
     </g>
     <g id="text_12">
      <!-- 1.0 -->
      <g transform="translate(22.81375 271.452101) scale(0.11 -0.11)">
       <use xlink:href="#DejaVuSans-31"/>
       <use xlink:href="#DejaVuSans-2e" transform="translate(63.623047 0)"/>
       <use xlink:href="#DejaVuSans-30" transform="translate(95.410156 0)"/>
      </g>
     </g>
    </g>
    <g id="ytick_4">
     <g id="line2d_23">
      <path d="M 47.307188 217.038716 
L 705.637188 217.038716 
" clip-path="url(#p9a17583f01)" style="fill: none; stroke: #b0b0b0; stroke-opacity: 0.2; stroke-width: 0.6; stroke-linecap: square"/>
     </g>
     <g id="line2d_24">
      <g>
       <use xlink:href="#m8a23b0e8e5" x="47.307188" y="217.038716" style="stroke: #000000; stroke-width: 0.8"/>
      </g>
     </g>
     <g id="text_13">
      <!-- 1.5 -->
      <g transform="translate(22.81375 221.217857) scale(0.11 -0.11)">
       <use xlink:href="#DejaVuSans-31"/>
       <use xlink:href="#DejaVuSans-2e" transform="translate(63.623047 0)"/>
       <use xlink:href="#DejaVuSans-35" transform="translate(95.410156 0)"/>
      </g>
     </g>
    </g>
    <g id="ytick_5">
     <g id="line2d_25">
      <path d="M 47.307188 166.804472 
L 705.637188 166.804472 
" clip-path="url(#p9a17583f01)" style="fill: none; stroke: #b0b0b0; stroke-opacity: 0.2; stroke-width: 0.6; stroke-linecap: square"/>
     </g>
     <g id="line2d_26">
      <g>
       <use xlink:href="#m8a23b0e8e5" x="47.307188" y="166.804472" style="stroke: #000000; stroke-width: 0.8"/>
      </g>
     </g>
     <g id="text_14">
      <!-- 2.0 -->
      <g transform="translate(22.81375 170.983612) scale(0.11 -0.11)">
       <use xlink:href="#DejaVuSans-32"/>
       <use xlink:href="#DejaVuSans-2e" transform="translate(63.623047 0)"/>
       <use xlink:href="#DejaVuSans-30" transform="translate(95.410156 0)"/>
      </g>
     </g>
    </g>
    <g id="ytick_6">
     <g id="line2d_27">
      <path d="M 47.307188 116.570227 
L 705.637188 116.570227 
" clip-path="url(#p9a17583f01)" style="fill: none; stroke: #b0b0b0; stroke-opacity: 0.2; stroke-width: 0.6; stroke-linecap: square"/>
     </g>
     <g id="line2d_28">
      <g>
       <use xlink:href="#m8a23b0e8e5" x="47.307188" y="116.570227" style="stroke: #000000; stroke-width: 0.8"/>
      </g>
     </g>
     <g id="text_15">
      <!-- 2.5 -->
      <g transform="translate(22.81375 120.749368) scale(0.11 -0.11)">
       <use xlink:href="#DejaVuSans-32"/>
       <use xlink:href="#DejaVuSans-2e" transform="translate(63.623047 0)"/>
       <use xlink:href="#DejaVuSans-35" transform="translate(95.410156 0)"/>
      </g>
     </g>
    </g>
    <g id="ytick_7">
     <g id="line2d_29">
      <path d="M 47.307188 66.335983 
L 705.637188 66.335983 
" clip-path="url(#p9a17583f01)" style="fill: none; stroke: #b0b0b0; stroke-opacity: 0.2; stroke-width: 0.6; stroke-linecap: square"/>
     </g>
     <g id="line2d_30">
      <g>
       <use xlink:href="#m8a23b0e8e5" x="47.307188" y="66.335983" style="stroke: #000000; stroke-width: 0.8"/>
      </g>
     </g>
     <g id="text_16">
      <!-- 3.0 -->
      <g transform="translate(22.81375 70.515124) scale(0.11 -0.11)">
       <defs>
        <path id="DejaVuSans-33" d="M 2597 2516 
Q 3050 2419 3304 2112 
Q 3559 1806 3559 1356 
Q 3559 666 3084 287 
Q 2609 -91 1734 -91 
Q 1441 -91 1130 -33 
Q 819 25 488 141 
L 488 750 
Q 750 597 1062 519 
Q 1375 441 1716 441 
Q 2309 441 2620 675 
Q 2931 909 2931 1356 
Q 2931 1769 2642 2001 
Q 2353 2234 1838 2234 
L 1294 2234 
L 1294 2753 
L 1863 2753 
Q 2328 2753 2575 2939 
Q 2822 3125 2822 3475 
Q 2822 3834 2567 4026 
Q 2313 4219 1838 4219 
Q 1578 4219 1281 4162 
Q 984 4106 628 3988 
L 628 4550 
Q 988 4650 1302 4700 
Q 1616 4750 1894 4750 
Q 2613 4750 3031 4423 
Q 3450 4097 3450 3541 
Q 3450 3153 3228 2886 
Q 3006 2619 2597 2516 
z
" transform="scale(0.015625)"/>
       </defs>
       <use xlink:href="#DejaVuSans-33"/>
       <use xlink:href="#DejaVuSans-2e" transform="translate(63.623047 0)"/>
       <use xlink:href="#DejaVuSans-30" transform="translate(95.410156 0)"/>
      </g>
     </g>
    </g>
    <g id="text_17">
     <!-- AU mean intensity -->
     <g transform="translate(16.318125 259.314687) rotate(-90) scale(0.12 -0.12)">
      <defs>
       <path id="DejaVuSans-41" d="M 2188 4044 
L 1331 1722 
L 3047 1722 
L 2188 4044 
z
M 1831 4666 
L 2547 4666 
L 4325 0 
L 3669 0 
L 3244 1197 
L 1141 1197 
L 716 0 
L 50 0 
L 1831 4666 
z
" transform="scale(0.015625)"/>
       <path id="DejaVuSans-55" d="M 556 4666 
L 1191 4666 
L 1191 1831 
Q 1191 1081 1462 751 
Q 1734 422 2344 422 
Q 2950 422 3222 751 
Q 3494 1081 3494 1831 
L 3494 4666 
L 4128 4666 
L 4128 1753 
Q 4128 841 3676 375 
Q 3225 -91 2344 -91 
Q 1459 -91 1007 375 
Q 556 841 556 1753 
L 556 4666 
z
" transform="scale(0.015625)"/>
       <path id="DejaVuSans-61" d="M 2194 1759 
Q 1497 1759 1228 1600 
Q 959 1441 959 1056 
Q 959 750 1161 570 
Q 1363 391 1709 391 
Q 2188 391 2477 730 
Q 2766 1069 2766 1631 
L 2766 1759 
L 2194 1759 
z
M 3341 1997 
L 3341 0 
L 2766 0 
L 2766 531 
Q 2569 213 2275 61 
Q 1981 -91 1556 -91 
Q 1019 -91 701 211 
Q 384 513 384 1019 
Q 384 1609 779 1909 
Q 1175 2209 1959 2209 
L 2766 2209 
L 2766 2266 
Q 2766 2663 2505 2880 
Q 2244 3097 1772 3097 
Q 1472 3097 1187 3025 
Q 903 2953 641 2809 
L 641 3341 
Q 956 3463 1253 3523 
Q 1550 3584 1831 3584 
Q 2591 3584 2966 3190 
Q 3341 2797 3341 1997 
z
" transform="scale(0.015625)"/>
       <path id="DejaVuSans-6e" d="M 3513 2113 
L 3513 0 
L 2938 0 
L 2938 2094 
Q 2938 2591 2744 2837 
Q 2550 3084 2163 3084 
Q 1697 3084 1428 2787 
Q 1159 2491 1159 1978 
L 1159 0 
L 581 0 
L 581 3500 
L 1159 3500 
L 1159 2956 
Q 1366 3272 1645 3428 
Q 1925 3584 2291 3584 
Q 2894 3584 3203 3211 
Q 3513 2838 3513 2113 
z
" transform="scale(0.015625)"/>
       <path id="DejaVuSans-74" d="M 1172 4494 
L 1172 3500 
L 2356 3500 
L 2356 3053 
L 1172 3053 
L 1172 1153 
Q 1172 725 1289 603 
Q 1406 481 1766 481 
L 2356 481 
L 2356 0 
L 1766 0 
Q 1100 0 847 248 
Q 594 497 594 1153 
L 594 3053 
L 172 3053 
L 172 3500 
L 594 3500 
L 594 4494 
L 1172 4494 
z
" transform="scale(0.015625)"/>
       <path id="DejaVuSans-79" d="M 2059 -325 
Q 1816 -950 1584 -1140 
Q 1353 -1331 966 -1331 
L 506 -1331 
L 506 -850 
L 844 -850 
Q 1081 -850 1212 -737 
Q 1344 -625 1503 -206 
L 1606 56 
L 191 3500 
L 800 3500 
L 1894 763 
L 2988 3500 
L 3597 3500 
L 2059 -325 
z
" transform="scale(0.015625)"/>
      </defs>
      <use xlink:href="#DejaVuSans-41"/>
      <use xlink:href="#DejaVuSans-55" transform="translate(68.408203 0)"/>
      <use xlink:href="#DejaVuSans-20" transform="translate(141.601562 0)"/>
      <use xlink:href="#DejaVuSans-6d" transform="translate(173.388672 0)"/>
      <use xlink:href="#DejaVuSans-65" transform="translate(270.800781 0)"/>
      <use xlink:href="#DejaVuSans-61" transform="translate(332.324219 0)"/>
      <use xlink:href="#DejaVuSans-6e" transform="translate(393.603516 0)"/>
      <use xlink:href="#DejaVuSans-20" transform="translate(456.982422 0)"/>
      <use xlink:href="#DejaVuSans-69" transform="translate(488.769531 0)"/>
      <use xlink:href="#DejaVuSans-6e" transform="translate(516.552734 0)"/>
      <use xlink:href="#DejaVuSans-74" transform="translate(579.931641 0)"/>
      <use xlink:href="#DejaVuSans-65" transform="translate(619.140625 0)"/>
      <use xlink:href="#DejaVuSans-6e" transform="translate(680.664062 0)"/>
      <use xlink:href="#DejaVuSans-73" transform="translate(744.042969 0)"/>
      <use xlink:href="#DejaVuSans-69" transform="translate(796.142578 0)"/>
      <use xlink:href="#DejaVuSans-74" transform="translate(823.925781 0)"/>
      <use xlink:href="#DejaVuSans-79" transform="translate(863.134766 0)"/>
     </g>
    </g>
   </g>
   <g id="FillBetweenPolyCollection_1">
    <defs>
     <path id="m5f091defb3" d="M 47.307188 -161.104063 
L 47.307188 -25.886799 
L 50.772082 -24.399985 
L 54.236977 -23.781448 
L 57.701872 -24.841471 
L 61.166766 -26.554112 
L 64.631661 -26.579659 
L 68.096556 -25.43089 
L 71.561451 -25.322494 
L 75.026345 -25.11087 
L 78.49124 -24.965471 
L 81.956135 -24.7777 
L 85.42103 -23.699423 
L 88.885924 -23.026288 
L 92.350819 -23.131787 
L 95.815714 -23.989545 
L 99.280609 -22.969723 
L 102.745503 -22.85719 
L 106.210398 -22.577413 
L 109.675293 -21.999406 
L 113.140187 -21.708052 
L 116.605082 -21.607461 
L 120.069977 -22.520816 
L 123.534872 -21.664036 
L 126.999766 -21.768635 
L 130.464661 -22.176199 
L 133.929556 -21.304912 
L 137.394451 -20.892142 
L 140.859345 -21.510082 
L 144.32424 -20.037726 
L 147.789135 -19.545488 
L 151.25403 -19.375025 
L 154.718924 -18.460581 
L 158.183819 -18.353375 
L 161.648714 -16.767061 
L 165.113609 -16.737231 
L 168.578503 -18.802855 
L 172.043398 -18.894797 
L 175.508293 -14.840771 
L 178.973187 -18.067858 
L 182.438082 -17.535218 
L 185.902977 -17.633615 
L 189.367872 -17.11103 
L 192.832766 -20.540769 
L 196.297661 -28.63158 
L 199.762556 -30.997282 
L 203.227451 -30.312589 
L 206.692345 -30.676726 
L 210.15724 -28.143221 
L 213.622135 -31.495377 
L 217.08703 -30.841594 
L 220.551924 -28.477149 
L 224.016819 -28.722602 
L 227.481714 -29.928642 
L 230.946609 -30.630435 
L 234.411503 -31.417063 
L 237.876398 -31.906608 
L 241.341293 -28.970544 
L 244.806187 -26.642007 
L 248.271082 -26.76611 
L 251.735977 -29.512726 
L 255.200872 -28.099771 
L 258.665766 -32.342263 
L 262.130661 -32.634294 
L 265.595556 -28.879333 
L 269.060451 -26.739641 
L 272.525345 -24.455302 
L 275.99024 -25.236421 
L 279.455135 -25.762235 
L 282.92003 -29.423992 
L 286.384924 -28.832487 
L 289.849819 -29.640642 
L 293.314714 -28.865633 
L 296.779609 -29.783498 
L 300.244503 -29.626126 
L 303.709398 -28.841845 
L 307.174293 -28.946086 
L 310.639187 -28.819889 
L 314.104082 -29.097007 
L 317.568977 -29.416791 
L 321.033872 -27.623813 
L 324.498766 -25.579296 
L 327.963661 -23.891417 
L 331.428556 -24.956149 
L 334.893451 -26.949876 
L 338.358345 -28.108803 
L 341.82324 -27.546038 
L 345.288135 -25.921195 
L 348.75303 -23.071291 
L 352.217924 -24.262021 
L 355.682819 -25.504845 
L 359.147714 -24.857048 
L 362.612609 -26.803014 
L 366.077503 -26.633727 
L 369.542398 -26.908969 
L 373.007293 -25.795902 
L 376.472188 -25.978605 
L 379.937082 -26.638372 
L 383.401977 -26.537261 
L 386.866872 -27.08671 
L 390.331766 -26.801328 
L 393.796661 -27.077955 
L 397.261556 -28.314835 
L 400.726451 -30.219635 
L 404.191345 -34.808902 
L 407.65624 -34.716387 
L 411.121135 -34.107694 
L 414.58603 -35.501689 
L 418.050924 -35.370155 
L 421.515819 -37.890649 
L 424.980714 -33.082592 
L 428.445609 -31.280861 
L 431.910503 -34.428228 
L 435.375398 -34.608408 
L 438.840293 -36.08742 
L 442.305187 -35.61411 
L 445.770082 -30.185682 
L 449.234977 -34.177923 
L 452.699872 -34.573548 
L 456.164766 -34.307472 
L 459.629661 -35.543063 
L 463.094556 -28.720117 
L 466.559451 -27.722745 
L 470.024345 -32.723475 
L 473.48924 -30.685281 
L 476.954135 -31.241883 
L 480.41903 -32.852737 
L 483.883924 -32.602219 
L 487.348819 -29.769395 
L 490.813714 -29.365416 
L 494.278609 -27.61037 
L 497.743503 -28.408572 
L 501.208398 -29.368071 
L 504.673293 -28.821143 
L 508.138188 -29.885509 
L 511.603082 -27.424521 
L 515.067977 -27.697059 
L 518.532872 -25.92717 
L 521.997766 -24.197109 
L 525.462661 -24.671242 
L 528.927556 -24.868215 
L 532.392451 -24.149385 
L 535.857345 -25.920984 
L 539.32224 -24.118754 
L 542.787135 -21.437515 
L 546.25203 -20.157945 
L 549.716924 -22.921697 
L 553.181819 -23.095924 
L 556.646714 -22.345229 
L 560.111609 -21.571859 
L 563.576503 -20.366357 
L 567.041398 -19.224354 
L 570.506293 -18.951738 
L 573.971188 -22.435944 
L 577.436082 -24.633283 
L 580.900977 -22.884273 
L 584.365872 -23.122814 
L 587.830766 -28.281721 
L 591.295661 -30.755167 
L 594.760556 -35.980048 
L 598.225451 -34.425979 
L 601.690345 -33.465436 
L 605.15524 -33.493359 
L 608.620135 -31.040691 
L 612.08503 -31.185862 
L 615.549924 -33.214536 
L 619.014819 -33.176606 
L 622.479714 -33.952279 
L 625.944609 -30.612904 
L 629.409503 -33.520738 
L 632.874398 -33.378061 
L 636.339293 -34.664945 
L 639.804188 -31.567887 
L 643.269082 -32.601713 
L 646.733977 -29.74882 
L 650.198872 -30.751619 
L 653.663766 -27.718135 
L 657.128661 -29.969719 
L 660.593556 -29.872842 
L 664.058451 -30.443041 
L 667.523345 -26.521476 
L 670.98824 -25.774425 
L 674.453135 -29.91511 
L 677.91803 -25.794799 
L 681.382924 -24.612374 
L 684.847819 -26.271896 
L 688.312714 -27.89027 
L 691.777609 -33.064355 
L 695.242503 -31.583127 
L 698.707398 -30.75032 
L 702.172293 -31.252527 
L 705.637188 -20.218673 
L 705.637188 -117.548545 
L 705.637188 -117.548545 
L 702.172293 -212.857639 
L 698.707398 -219.058011 
L 695.242503 -216.977638 
L 691.777609 -212.671543 
L 688.312714 -220.884024 
L 684.847819 -224.339051 
L 681.382924 -224.617908 
L 677.91803 -221.330932 
L 674.453135 -220.601611 
L 670.98824 -228.674134 
L 667.523345 -228.691408 
L 664.058451 -227.108286 
L 660.593556 -227.78178 
L 657.128661 -218.864086 
L 653.663766 -222.359856 
L 650.198872 -220.462979 
L 646.733977 -221.465289 
L 643.269082 -216.831204 
L 639.804188 -216.572274 
L 636.339293 -214.50522 
L 632.874398 -216.419449 
L 629.409503 -221.241568 
L 625.944609 -227.586241 
L 622.479714 -224.951903 
L 619.014819 -227.52329 
L 615.549924 -224.43054 
L 612.08503 -222.91038 
L 608.620135 -220.266374 
L 605.15524 -220.698692 
L 601.690345 -215.25274 
L 598.225451 -209.01978 
L 594.760556 -207.066336 
L 591.295661 -210.919524 
L 587.830766 -207.579619 
L 584.365872 -205.384497 
L 580.900977 -204.732956 
L 577.436082 -200.705835 
L 573.971188 -197.799118 
L 570.506293 -195.026592 
L 567.041398 -194.470015 
L 563.576503 -188.986762 
L 560.111609 -188.667727 
L 556.646714 -187.080017 
L 553.181819 -188.970845 
L 549.716924 -192.165447 
L 546.25203 -195.587358 
L 542.787135 -196.390052 
L 539.32224 -192.045123 
L 535.857345 -190.232402 
L 532.392451 -189.260901 
L 528.927556 -189.919852 
L 525.462661 -190.686249 
L 521.997766 -191.929168 
L 518.532872 -194.825444 
L 515.067977 -194.597862 
L 511.603082 -195.705226 
L 508.138188 -188.022406 
L 504.673293 -190.648654 
L 501.208398 -192.635701 
L 497.743503 -197.372594 
L 494.278609 -209.644921 
L 490.813714 -220.268547 
L 487.348819 -234.064636 
L 483.883924 -238.550486 
L 480.41903 -226.230131 
L 476.954135 -211.015328 
L 473.48924 -208.551293 
L 470.024345 -205.283005 
L 466.559451 -213.802702 
L 463.094556 -212.941094 
L 459.629661 -200.205495 
L 456.164766 -198.647478 
L 452.699872 -199.077267 
L 449.234977 -198.55419 
L 445.770082 -199.192728 
L 442.305187 -189.486921 
L 438.840293 -188.31454 
L 435.375398 -190.386515 
L 431.910503 -188.018874 
L 428.445609 -195.619246 
L 424.980714 -192.743504 
L 421.515819 -185.533436 
L 418.050924 -194.454716 
L 414.58603 -196.827049 
L 411.121135 -201.385533 
L 407.65624 -199.98225 
L 404.191345 -200.622768 
L 400.726451 -209.027549 
L 397.261556 -219.03614 
L 393.796661 -211.819594 
L 390.331766 -203.138534 
L 386.866872 -199.795453 
L 383.401977 -201.600804 
L 379.937082 -204.24477 
L 376.472188 -206.132986 
L 373.007293 -202.151736 
L 369.542398 -198.186288 
L 366.077503 -192.258838 
L 362.612609 -188.187733 
L 359.147714 -189.894923 
L 355.682819 -188.849679 
L 352.217924 -192.507834 
L 348.75303 -189.181283 
L 345.288135 -185.259998 
L 341.82324 -185.745963 
L 338.358345 -185.398618 
L 334.893451 -188.403657 
L 331.428556 -193.622486 
L 327.963661 -197.583197 
L 324.498766 -197.43418 
L 321.033872 -192.163212 
L 317.568977 -183.27564 
L 314.104082 -181.29417 
L 310.639187 -181.95509 
L 307.174293 -183.512592 
L 303.709398 -186.287959 
L 300.244503 -188.597795 
L 296.779609 -190.69666 
L 293.314714 -196.864653 
L 289.849819 -201.327459 
L 286.384924 -204.273807 
L 282.92003 -201.342871 
L 279.455135 -200.974301 
L 275.99024 -201.090666 
L 272.525345 -196.224157 
L 269.060451 -192.520503 
L 265.595556 -189.344784 
L 262.130661 -183.969121 
L 258.665766 -180.353053 
L 255.200872 -184.629922 
L 251.735977 -185.493679 
L 248.271082 -186.390029 
L 244.806187 -189.971835 
L 241.341293 -183.563045 
L 237.876398 -179.049055 
L 234.411503 -180.466237 
L 230.946609 -184.999176 
L 227.481714 -184.4758 
L 224.016819 -186.160004 
L 220.551924 -188.86179 
L 217.08703 -188.252546 
L 213.622135 -188.63533 
L 210.15724 -191.758699 
L 206.692345 -191.963038 
L 203.227451 -191.723185 
L 199.762556 -192.397689 
L 196.297661 -190.641065 
L 192.832766 -192.843333 
L 189.367872 -192.485187 
L 185.902977 -189.946587 
L 182.438082 -188.378329 
L 178.973187 -187.02947 
L 175.508293 -184.992309 
L 172.043398 -180.11528 
L 168.578503 -180.604706 
L 165.113609 -181.364839 
L 161.648714 -182.287598 
L 158.183819 -184.49655 
L 154.718924 -189.014602 
L 151.25403 -192.176951 
L 147.789135 -190.647413 
L 144.32424 -181.562888 
L 140.859345 -176.025023 
L 137.394451 -175.243024 
L 133.929556 -175.233827 
L 130.464661 -175.763184 
L 126.999766 -174.872568 
L 123.534872 -176.178028 
L 120.069977 -175.010277 
L 116.605082 -174.850712 
L 113.140187 -175.714019 
L 109.675293 -174.965962 
L 106.210398 -175.672109 
L 102.745503 -174.495898 
L 99.280609 -174.119507 
L 95.815714 -172.805172 
L 92.350819 -175.73957 
L 88.885924 -176.634627 
L 85.42103 -175.618787 
L 81.956135 -175.64474 
L 78.49124 -175.908308 
L 75.026345 -175.543378 
L 71.561451 -172.725915 
L 68.096556 -176.200944 
L 64.631661 -180.02237 
L 61.166766 -184.260234 
L 57.701872 -186.877835 
L 54.236977 -185.908555 
L 50.772082 -169.093089 
L 47.307188 -161.104063 
z
" style="stroke: #d3d3d3; stroke-opacity: 0.5"/>
    </defs>
    <g clip-path="url(#p9a17583f01)">
     <use xlink:href="#m5f091defb3" x="0" y="424.5775" style="fill: #d3d3d3; fill-opacity: 0.5; stroke: #d3d3d3; stroke-opacity: 0.5"/>
    </g>
   </g>
   <g id="FillBetweenPolyCollection_2">
    <defs>
     <path id="m0ff9938774" d="M 47.307188 -127.299747 
L 47.307188 -59.691115 
L 50.772082 -60.573261 
L 54.236977 -64.313225 
L 57.701872 -65.350562 
L 61.166766 -65.980643 
L 64.631661 -64.940336 
L 68.096556 -63.123404 
L 71.561451 -62.173349 
L 75.026345 -62.718997 
L 78.49124 -62.70118 
L 81.956135 -62.49446 
L 85.42103 -61.679264 
L 88.885924 -61.428373 
L 92.350819 -61.283733 
L 95.815714 -61.193451 
L 99.280609 -60.757169 
L 102.745503 -60.766867 
L 106.210398 -60.851087 
L 109.675293 -60.241045 
L 113.140187 -60.209543 
L 116.605082 -59.918274 
L 120.069977 -60.643181 
L 123.534872 -60.292534 
L 126.999766 -60.044619 
L 130.464661 -60.572945 
L 133.929556 -59.787141 
L 137.394451 -59.479862 
L 140.859345 -60.138817 
L 144.32424 -60.419017 
L 147.789135 -62.32097 
L 151.25403 -62.575506 
L 154.718924 -61.099086 
L 158.183819 -59.889169 
L 161.648714 -58.147195 
L 165.113609 -57.894133 
L 168.578503 -59.253318 
L 172.043398 -59.199918 
L 175.508293 -57.378655 
L 178.973187 -60.308261 
L 182.438082 -60.245996 
L 185.902977 -60.711858 
L 189.367872 -60.954569 
L 192.832766 -63.61641 
L 196.297661 -69.133952 
L 199.762556 -71.347383 
L 203.227451 -70.665238 
L 206.692345 -70.998304 
L 210.15724 -69.04709 
L 213.622135 -70.780365 
L 217.08703 -70.194332 
L 220.551924 -68.573309 
L 224.016819 -68.081952 
L 227.481714 -68.565432 
L 230.946609 -69.22262 
L 234.411503 -68.679356 
L 237.876398 -68.69222 
L 241.341293 -67.61867 
L 244.806187 -67.474464 
L 248.271082 -66.67209 
L 251.735977 -68.507964 
L 255.200872 -67.232309 
L 258.665766 -69.344961 
L 262.130661 -70.468 
L 265.595556 -68.995696 
L 269.060451 -68.184857 
L 272.525345 -67.397516 
L 275.99024 -69.199982 
L 279.455135 -69.565252 
L 282.92003 -72.403712 
L 286.384924 -72.692817 
L 289.849819 -72.562346 
L 293.314714 -70.865388 
L 296.779609 -70.011788 
L 300.244503 -69.369043 
L 303.709398 -68.203373 
L 307.174293 -67.587713 
L 310.639187 -67.103689 
L 314.104082 -67.146298 
L 317.568977 -67.881503 
L 321.033872 -68.758663 
L 324.498766 -68.543017 
L 327.963661 -67.314362 
L 331.428556 -67.122734 
L 334.893451 -67.313321 
L 338.358345 -67.431257 
L 341.82324 -67.096019 
L 345.288135 -65.755895 
L 348.75303 -64.598789 
L 352.217924 -66.323474 
L 355.682819 -66.341054 
L 359.147714 -66.116517 
L 362.612609 -67.149193 
L 366.077503 -68.040005 
L 369.542398 -69.728299 
L 373.007293 -69.88486 
L 376.472188 -71.0172 
L 379.937082 -71.039971 
L 383.401977 -70.303147 
L 386.866872 -70.263896 
L 390.331766 -70.88563 
L 393.796661 -73.263365 
L 397.261556 -75.995162 
L 400.726451 -74.921614 
L 404.191345 -76.262368 
L 407.65624 -76.032853 
L 411.121135 -75.927154 
L 414.58603 -75.833029 
L 418.050924 -75.141295 
L 421.515819 -74.801345 
L 424.980714 -72.99782 
L 428.445609 -72.365457 
L 431.910503 -72.825889 
L 435.375398 -73.552935 
L 438.840293 -74.1442 
L 442.305187 -74.082313 
L 445.770082 -72.437443 
L 449.234977 -75.27199 
L 452.699872 -75.699478 
L 456.164766 -75.392473 
L 459.629661 -76.708671 
L 463.094556 -74.775362 
L 466.559451 -74.242734 
L 470.024345 -75.863358 
L 473.48924 -75.151784 
L 476.954135 -76.185244 
L 480.41903 -81.197086 
L 483.883924 -84.089286 
L 487.348819 -80.843206 
L 490.813714 -77.091199 
L 494.278609 -73.119008 
L 497.743503 -70.649578 
L 501.208398 -70.184979 
L 504.673293 -69.278021 
L 508.138188 -69.419733 
L 511.603082 -69.494697 
L 515.067977 -69.42226 
L 518.532872 -68.151739 
L 521.997766 -66.130124 
L 525.462661 -66.174994 
L 528.927556 -66.131124 
L 532.392451 -65.427264 
L 535.857345 -66.998838 
L 539.32224 -66.100346 
L 542.787135 -65.175649 
L 546.25203 -64.015298 
L 549.716924 -65.232634 
L 553.181819 -64.564654 
L 556.646714 -63.528926 
L 560.111609 -63.345826 
L 563.576503 -62.521458 
L 567.041398 -63.03577 
L 570.506293 -62.970452 
L 573.971188 -66.276738 
L 577.436082 -68.651421 
L 580.900977 -68.346444 
L 584.365872 -68.688235 
L 587.830766 -73.106196 
L 591.295661 -75.796257 
L 594.760556 -78.75162 
L 598.225451 -78.07443 
L 601.690345 -78.912262 
L 605.15524 -80.294692 
L 608.620135 -78.347112 
L 612.08503 -79.116991 
L 615.549924 -81.018537 
L 619.014819 -81.763277 
L 622.479714 -81.702185 
L 625.944609 -79.856238 
L 629.409503 -80.450946 
L 632.874398 -79.138408 
L 636.339293 -79.625013 
L 639.804188 -77.818984 
L 643.269082 -78.659086 
L 646.733977 -77.677937 
L 650.198872 -78.179459 
L 653.663766 -76.378565 
L 657.128661 -77.193311 
L 660.593556 -79.350077 
L 664.058451 -79.609352 
L 667.523345 -77.063959 
L 670.98824 -76.499352 
L 674.453135 -77.586735 
L 677.91803 -74.678832 
L 681.382924 -74.613758 
L 684.847819 -75.788685 
L 688.312714 -76.138708 
L 691.777609 -77.966152 
L 695.242503 -77.931755 
L 698.707398 -77.827243 
L 702.172293 -76.653805 
L 705.637188 -44.551141 
L 705.637188 -93.216077 
L 705.637188 -93.216077 
L 702.172293 -167.456361 
L 698.707398 -171.981088 
L 695.242503 -170.62901 
L 691.777609 -167.769746 
L 688.312714 -172.635585 
L 684.847819 -174.822262 
L 681.382924 -174.616525 
L 677.91803 -172.446898 
L 674.453135 -172.929986 
L 670.98824 -177.949207 
L 667.523345 -178.148925 
L 664.058451 -177.941975 
L 660.593556 -178.304546 
L 657.128661 -171.640494 
L 653.663766 -173.699426 
L 650.198872 -173.035139 
L 646.733977 -173.536172 
L 643.269082 -170.773831 
L 639.804188 -170.321177 
L 636.339293 -169.545151 
L 632.874398 -170.659102 
L 629.409503 -174.31136 
L 625.944609 -178.342907 
L 622.479714 -177.201997 
L 619.014819 -178.936619 
L 615.549924 -176.626539 
L 612.08503 -174.97925 
L 608.620135 -172.959953 
L 605.15524 -173.897359 
L 601.690345 -169.805914 
L 598.225451 -165.37133 
L 594.760556 -164.294764 
L 591.295661 -165.878435 
L 587.830766 -162.755144 
L 584.365872 -159.819076 
L 580.900977 -159.270785 
L 577.436082 -156.687697 
L 573.971188 -153.958325 
L 570.506293 -151.007879 
L 567.041398 -150.6586 
L 563.576503 -146.831661 
L 560.111609 -146.89376 
L 556.646714 -145.89632 
L 553.181819 -147.502115 
L 549.716924 -149.854509 
L 546.25203 -151.730005 
L 542.787135 -152.651918 
L 539.32224 -150.06353 
L 535.857345 -149.154548 
L 532.392451 -147.983022 
L 528.927556 -148.656943 
L 525.462661 -149.182498 
L 521.997766 -149.996153 
L 518.532872 -152.600876 
L 515.067977 -152.872661 
L 511.603082 -153.635049 
L 508.138188 -148.488181 
L 504.673293 -150.191776 
L 501.208398 -151.818793 
L 497.743503 -155.131589 
L 494.278609 -164.136284 
L 490.813714 -172.542765 
L 487.348819 -182.990826 
L 483.883924 -187.063419 
L 480.41903 -177.885783 
L 476.954135 -166.071967 
L 473.48924 -164.08479 
L 470.024345 -162.143123 
L 466.559451 -167.282713 
L 463.094556 -166.88585 
L 459.629661 -159.039887 
L 456.164766 -157.562476 
L 452.699872 -157.951338 
L 449.234977 -157.460123 
L 445.770082 -156.940966 
L 442.305187 -151.018718 
L 438.840293 -150.25776 
L 435.375398 -151.441988 
L 431.910503 -149.621212 
L 428.445609 -154.53465 
L 424.980714 -152.828276 
L 421.515819 -148.622739 
L 418.050924 -154.683576 
L 414.58603 -156.495709 
L 411.121135 -159.566074 
L 407.65624 -158.665784 
L 404.191345 -159.169302 
L 400.726451 -164.325571 
L 397.261556 -171.355814 
L 393.796661 -165.634185 
L 390.331766 -159.054233 
L 386.866872 -156.618267 
L 383.401977 -157.834918 
L 379.937082 -159.84317 
L 376.472188 -161.094391 
L 373.007293 -158.062778 
L 369.542398 -155.366958 
L 366.077503 -150.85256 
L 362.612609 -147.841553 
L 359.147714 -148.635454 
L 355.682819 -148.013471 
L 352.217924 -150.446381 
L 348.75303 -147.653785 
L 345.288135 -145.425297 
L 341.82324 -146.195982 
L 338.358345 -146.076165 
L 334.893451 -148.040212 
L 331.428556 -151.455902 
L 327.963661 -154.160252 
L 324.498766 -154.470459 
L 321.033872 -151.028362 
L 317.568977 -144.810928 
L 314.104082 -143.244879 
L 310.639187 -143.67129 
L 307.174293 -144.870965 
L 303.709398 -146.92643 
L 300.244503 -148.854878 
L 296.779609 -150.468369 
L 293.314714 -154.864898 
L 289.849819 -158.405755 
L 286.384924 -160.413477 
L 282.92003 -158.363151 
L 279.455135 -157.171285 
L 275.99024 -157.127105 
L 272.525345 -153.281943 
L 269.060451 -151.075287 
L 265.595556 -149.228421 
L 262.130661 -146.135414 
L 258.665766 -143.350356 
L 255.200872 -145.497384 
L 251.735977 -146.498441 
L 248.271082 -146.484049 
L 244.806187 -149.139378 
L 241.341293 -144.91492 
L 237.876398 -142.263443 
L 234.411503 -143.203943 
L 230.946609 -146.406991 
L 227.481714 -145.83901 
L 224.016819 -146.800653 
L 220.551924 -148.765629 
L 217.08703 -148.899808 
L 213.622135 -149.350341 
L 210.15724 -150.854829 
L 206.692345 -151.64146 
L 203.227451 -151.370536 
L 199.762556 -152.047587 
L 196.297661 -150.138694 
L 192.832766 -149.767692 
L 189.367872 -148.641648 
L 185.902977 -146.868344 
L 182.438082 -145.667551 
L 178.973187 -144.789067 
L 175.508293 -142.454424 
L 172.043398 -139.810159 
L 168.578503 -140.154243 
L 165.113609 -140.207937 
L 161.648714 -140.907464 
L 158.183819 -142.960756 
L 154.718924 -146.376097 
L 151.25403 -148.976469 
L 147.789135 -147.871932 
L 144.32424 -141.181598 
L 140.859345 -137.396288 
L 137.394451 -136.655303 
L 133.929556 -136.751598 
L 130.464661 -137.366438 
L 126.999766 -136.596585 
L 123.534872 -137.54953 
L 120.069977 -136.887911 
L 116.605082 -136.539899 
L 113.140187 -137.212527 
L 109.675293 -136.724323 
L 106.210398 -137.398435 
L 102.745503 -136.586221 
L 99.280609 -136.332061 
L 95.815714 -135.601265 
L 92.350819 -137.587624 
L 88.885924 -138.232543 
L 85.42103 -137.638946 
L 81.956135 -137.92798 
L 78.49124 -138.172599 
L 75.026345 -137.935251 
L 71.561451 -135.875059 
L 68.096556 -138.50843 
L 64.631661 -141.661692 
L 61.166766 -144.833703 
L 57.701872 -146.368744 
L 54.236977 -145.376778 
L 50.772082 -132.919813 
L 47.307188 -127.299747 
z
" style="stroke: #808080; stroke-opacity: 0.7"/>
    </defs>
    <g clip-path="url(#p9a17583f01)">
     <use xlink:href="#m0ff9938774" x="0" y="424.5775" style="fill: #808080; fill-opacity: 0.7; stroke: #808080; stroke-opacity: 0.7"/>
    </g>
   </g>
   <g id="line2d_31">
    <path d="M 47.307188 339.900374 
L 50.772082 338.99865 
L 54.236977 324.652835 
L 57.701872 324.384631 
L 61.166766 335.853512 
L 64.631661 328.274104 
L 68.096556 311.168168 
L 71.561451 319.758132 
L 75.026345 310.238885 
L 78.49124 316.888212 
L 81.956135 310.78911 
L 85.42103 309.828184 
L 88.885924 279.541769 
L 92.350819 271.082997 
L 95.815714 293.643506 
L 99.280609 315.275487 
L 102.745503 305.408619 
L 106.210398 344.590778 
L 109.675293 324.211851 
L 113.140187 310.671179 
L 116.605082 314.81168 
L 120.069977 317.785604 
L 123.534872 296.377172 
L 126.999766 305.431208 
L 130.464661 307.125505 
L 133.929556 314.393449 
L 137.394451 311.089048 
L 140.859345 309.783633 
L 144.32424 311.69558 
L 147.789135 307.124024 
L 151.25403 294.550425 
L 154.718924 299.919713 
L 158.183819 302.90701 
L 161.648714 319.806751 
L 165.113609 307.386993 
L 168.578503 299.449734 
L 172.043398 304.620275 
L 175.508293 317.18424 
L 178.973187 313.6019 
L 182.438082 312.291191 
L 185.902977 302.396761 
L 189.367872 298.099873 
L 192.832766 315.943198 
L 196.297661 316.23286 
L 199.762556 324.088881 
L 203.227451 313.354703 
L 206.692345 327.477167 
L 210.15724 335.766465 
L 213.622135 334.656462 
L 217.08703 341.80979 
L 220.551924 337.528007 
L 224.016819 338.871128 
L 227.481714 338.686879 
L 230.946609 334.27186 
L 234.411503 335.186524 
L 237.876398 335.626226 
L 241.341293 342.643348 
L 244.806187 335.624214 
L 248.271082 350.645164 
L 251.735977 334.125868 
L 255.200872 343.91309 
L 258.665766 333.48013 
L 262.130661 330.482307 
L 265.595556 332.029514 
L 269.060451 338.65353 
L 272.525345 335.845858 
L 275.99024 338.640024 
L 279.455135 345.849384 
L 282.92003 338.390749 
L 286.384924 339.298646 
L 289.849819 344.193924 
L 293.314714 339.424949 
L 296.779609 336.533157 
L 300.244503 314.645192 
L 303.709398 317.360851 
L 307.174293 325.14087 
L 310.639187 332.419657 
L 314.104082 328.176693 
L 317.568977 308.9292 
L 321.033872 322.109449 
L 324.498766 325.198804 
L 327.963661 323.509054 
L 331.428556 321.100904 
L 334.893451 314.619065 
L 338.358345 327.156318 
L 341.82324 309.990195 
L 345.288135 308.985785 
L 348.75303 302.661635 
L 352.217924 316.49937 
L 355.682819 315.417816 
L 359.147714 292.773461 
L 362.612609 317.805584 
L 366.077503 320.894099 
L 369.542398 316.469985 
L 373.007293 319.032083 
L 376.472188 307.776678 
L 379.937082 309.860133 
L 383.401977 324.049351 
L 386.866872 326.750157 
L 390.331766 329.808923 
L 393.796661 315.404242 
L 397.261556 272.313468 
L 400.726451 290.879584 
L 404.191345 233.312732 
L 407.65624 286.185337 
L 411.121135 288.852945 
L 414.58603 292.046331 
L 418.050924 299.63363 
L 421.515819 311.485569 
L 424.980714 326.409498 
L 428.445609 300.226832 
L 431.910503 297.686268 
L 435.375398 285.275088 
L 438.840293 310.918385 
L 442.305187 298.028512 
L 445.770082 300.830522 
L 449.234977 295.680078 
L 452.699872 292.873009 
L 456.164766 268.517516 
L 459.629661 277.443305 
L 463.094556 265.270165 
L 466.559451 309.459168 
L 470.024345 307.613745 
L 473.48924 300.185688 
L 476.954135 314.268804 
L 480.41903 289.159449 
L 483.883924 242.980751 
L 487.348819 302.26798 
L 490.813714 306.235281 
L 494.278609 319.73132 
L 497.743503 317.423571 
L 501.208398 334.059135 
L 504.673293 335.10205 
L 508.138188 328.65921 
L 511.603082 325.855639 
L 515.067977 321.136494 
L 518.532872 254.870812 
L 521.997766 228.639078 
L 525.462661 224.409987 
L 528.927556 221.045179 
L 532.392451 250.106749 
L 535.857345 277.642258 
L 539.32224 302.996735 
L 542.787135 253.445826 
L 546.25203 266.782504 
L 549.716924 289.068862 
L 553.181819 289.860261 
L 556.646714 278.77157 
L 560.111609 260.493404 
L 563.576503 295.278056 
L 567.041398 304.196514 
L 570.506293 303.620258 
L 573.971188 313.933967 
L 577.436082 307.794814 
L 580.900977 298.165719 
L 584.365872 280.856235 
L 587.830766 293.205821 
L 591.295661 272.666383 
L 594.760556 291.774746 
L 598.225451 267.269305 
L 601.690345 222.613184 
L 605.15524 240.418345 
L 608.620135 157.539871 
L 612.08503 239.851524 
L 615.549924 205.372283 
L 619.014819 250.022155 
L 622.479714 241.386063 
L 625.944609 251.714977 
L 629.409503 288.835787 
L 632.874398 288.667263 
L 636.339293 293.500054 
L 639.804188 241.505661 
L 643.269082 246.031058 
L 646.733977 267.802517 
L 650.198872 235.598989 
L 653.663766 194.176073 
L 657.128661 232.812814 
L 660.593556 266.138969 
L 664.058451 253.98821 
L 667.523345 249.597514 
L 670.98824 232.940573 
L 674.453135 217.545546 
L 677.91803 237.306452 
L 681.382924 231.080826 
L 684.847819 251.067059 
L 688.312714 256.639161 
L 691.777609 260.906846 
L 695.242503 280.882892 
L 698.707398 290.132444 
L 702.172293 249.468614 
L 705.637188 248.434312 
L 705.637188 248.434312 
" clip-path="url(#p9a17583f01)" style="fill: none; stroke: #ff8c00; stroke-width: 2.3; stroke-linecap: square"/>
   </g>
   <g id="line2d_32">
    <path d="M 282.92003 384.117812 
L 282.92003 23.837812 
" clip-path="url(#p9a17583f01)" style="fill: none; stroke-dasharray: 5.55,2.4; stroke-dashoffset: 0; stroke: #808080; stroke-width: 1.5"/>
   </g>
   <g id="line2d_33">
    <path d="M 483.883924 384.117812 
L 483.883924 23.837812 
" clip-path="url(#p9a17583f01)" style="fill: none; stroke-dasharray: 5.55,2.4; stroke-dashoffset: 0; stroke: #808080; stroke-width: 1.5"/>
   </g>
   <g id="patch_3">
    <path d="M 47.307188 384.117812 
L 47.307188 23.837812 
" style="fill: none; stroke: #000000; stroke-width: 0.8; stroke-linejoin: miter; stroke-linecap: square"/>
   </g>
   <g id="patch_4">
    <path d="M 705.637188 384.117812 
L 705.637188 23.837812 
" style="fill: none; stroke: #000000; stroke-width: 0.8; stroke-linejoin: miter; stroke-linecap: square"/>
   </g>
   <g id="patch_5">
    <path d="M 47.307188 384.117812 
L 705.637188 384.117812 
" style="fill: none; stroke: #000000; stroke-width: 0.8; stroke-linejoin: miter; stroke-linecap: square"/>
   </g>
   <g id="patch_6">
    <path d="M 47.307188 23.837812 
L 705.637188 23.837812 
" style="fill: none; stroke: #000000; stroke-width: 0.8; stroke-linejoin: miter; stroke-linecap: square"/>
   </g>
   <g id="text_18">
    <!-- Facial trace: Control group -->
    <g transform="translate(284.040469 17.837812) scale(0.14 -0.14)">
     <defs>
      <path id="DejaVuSans-46" d="M 628 4666 
L 3309 4666 
L 3309 4134 
L 1259 4134 
L 1259 2759 
L 3109 2759 
L 3109 2228 
L 1259 2228 
L 1259 0 
L 628 0 
L 628 4666 
z
" transform="scale(0.015625)"/>
      <path id="DejaVuSans-63" d="M 3122 3366 
L 3122 2828 
Q 2878 2963 2633 3030 
Q 2388 3097 2138 3097 
Q 1578 3097 1268 2742 
Q 959 2388 959 1747 
Q 959 1106 1268 751 
Q 1578 397 2138 397 
Q 2388 397 2633 464 
Q 2878 531 3122 666 
L 3122 134 
Q 2881 22 2623 -34 
Q 2366 -91 2075 -91 
Q 1284 -91 818 406 
Q 353 903 353 1747 
Q 353 2603 823 3093 
Q 1294 3584 2113 3584 
Q 2378 3584 2631 3529 
Q 2884 3475 3122 3366 
z
" transform="scale(0.015625)"/>
      <path id="DejaVuSans-6c" d="M 603 4863 
L 1178 4863 
L 1178 0 
L 603 0 
L 603 4863 
z
" transform="scale(0.015625)"/>
      <path id="DejaVuSans-72" d="M 2631 2963 
Q 2534 3019 2420 3045 
Q 2306 3072 2169 3072 
Q 1681 3072 1420 2755 
Q 1159 2438 1159 1844 
L 1159 0 
L 581 0 
L 581 3500 
L 1159 3500 
L 1159 2956 
Q 1341 3275 1631 3429 
Q 1922 3584 2338 3584 
Q 2397 3584 2469 3576 
Q 2541 3569 2628 3553 
L 2631 2963 
z
" transform="scale(0.015625)"/>
      <path id="DejaVuSans-3a" d="M 750 794 
L 1409 794 
L 1409 0 
L 750 0 
L 750 794 
z
M 750 3309 
L 1409 3309 
L 1409 2516 
L 750 2516 
L 750 3309 
z
" transform="scale(0.015625)"/>
      <path id="DejaVuSans-43" d="M 4122 4306 
L 4122 3641 
Q 3803 3938 3442 4084 
Q 3081 4231 2675 4231 
Q 1875 4231 1450 3742 
Q 1025 3253 1025 2328 
Q 1025 1406 1450 917 
Q 1875 428 2675 428 
Q 3081 428 3442 575 
Q 3803 722 4122 1019 
L 4122 359 
Q 3791 134 3420 21 
Q 3050 -91 2638 -91 
Q 1578 -91 968 557 
Q 359 1206 359 2328 
Q 359 3453 968 4101 
Q 1578 4750 2638 4750 
Q 3056 4750 3426 4639 
Q 3797 4528 4122 4306 
z
" transform="scale(0.015625)"/>
      <path id="DejaVuSans-6f" d="M 1959 3097 
Q 1497 3097 1228 2736 
Q 959 2375 959 1747 
Q 959 1119 1226 758 
Q 1494 397 1959 397 
Q 2419 397 2687 759 
Q 2956 1122 2956 1747 
Q 2956 2369 2687 2733 
Q 2419 3097 1959 3097 
z
M 1959 3584 
Q 2709 3584 3137 3096 
Q 3566 2609 3566 1747 
Q 3566 888 3137 398 
Q 2709 -91 1959 -91 
Q 1206 -91 779 398 
Q 353 888 353 1747 
Q 353 2609 779 3096 
Q 1206 3584 1959 3584 
z
" transform="scale(0.015625)"/>
      <path id="DejaVuSans-67" d="M 2906 1791 
Q 2906 2416 2648 2759 
Q 2391 3103 1925 3103 
Q 1463 3103 1205 2759 
Q 947 2416 947 1791 
Q 947 1169 1205 825 
Q 1463 481 1925 481 
Q 2391 481 2648 825 
Q 2906 1169 2906 1791 
z
M 3481 434 
Q 3481 -459 3084 -895 
Q 2688 -1331 1869 -1331 
Q 1566 -1331 1297 -1286 
Q 1028 -1241 775 -1147 
L 775 -588 
Q 1028 -725 1275 -790 
Q 1522 -856 1778 -856 
Q 2344 -856 2625 -561 
Q 2906 -266 2906 331 
L 2906 616 
Q 2728 306 2450 153 
Q 2172 0 1784 0 
Q 1141 0 747 490 
Q 353 981 353 1791 
Q 353 2603 747 3093 
Q 1141 3584 1784 3584 
Q 2172 3584 2450 3431 
Q 2728 3278 2906 2969 
L 2906 3500 
L 3481 3500 
L 3481 434 
z
" transform="scale(0.015625)"/>
      <path id="DejaVuSans-75" d="M 544 1381 
L 544 3500 
L 1119 3500 
L 1119 1403 
Q 1119 906 1312 657 
Q 1506 409 1894 409 
Q 2359 409 2629 706 
Q 2900 1003 2900 1516 
L 2900 3500 
L 3475 3500 
L 3475 0 
L 2900 0 
L 2900 538 
Q 2691 219 2414 64 
Q 2138 -91 1772 -91 
Q 1169 -91 856 284 
Q 544 659 544 1381 
z
M 1991 3584 
L 1991 3584 
z
" transform="scale(0.015625)"/>
      <path id="DejaVuSans-70" d="M 1159 525 
L 1159 -1331 
L 581 -1331 
L 581 3500 
L 1159 3500 
L 1159 2969 
Q 1341 3281 1617 3432 
Q 1894 3584 2278 3584 
Q 2916 3584 3314 3078 
Q 3713 2572 3713 1747 
Q 3713 922 3314 415 
Q 2916 -91 2278 -91 
Q 1894 -91 1617 61 
Q 1341 213 1159 525 
z
M 3116 1747 
Q 3116 2381 2855 2742 
Q 2594 3103 2138 3103 
Q 1681 3103 1420 2742 
Q 1159 2381 1159 1747 
Q 1159 1113 1420 752 
Q 1681 391 2138 391 
Q 2594 391 2855 752 
Q 3116 1113 3116 1747 
z
" transform="scale(0.015625)"/>
     </defs>
     <use xlink:href="#DejaVuSans-46"/>
     <use xlink:href="#DejaVuSans-61" transform="translate(48.394531 0)"/>
     <use xlink:href="#DejaVuSans-63" transform="translate(109.673828 0)"/>
     <use xlink:href="#DejaVuSans-69" transform="translate(164.654297 0)"/>
     <use xlink:href="#DejaVuSans-61" transform="translate(192.4375 0)"/>
     <use xlink:href="#DejaVuSans-6c" transform="translate(253.716797 0)"/>
     <use xlink:href="#DejaVuSans-20" transform="translate(281.5 0)"/>
     <use xlink:href="#DejaVuSans-74" transform="translate(313.287109 0)"/>
     <use xlink:href="#DejaVuSans-72" transform="translate(352.496094 0)"/>
     <use xlink:href="#DejaVuSans-61" transform="translate(393.609375 0)"/>
     <use xlink:href="#DejaVuSans-63" transform="translate(454.888672 0)"/>
     <use xlink:href="#DejaVuSans-65" transform="translate(509.869141 0)"/>
     <use xlink:href="#DejaVuSans-3a" transform="translate(571.392578 0)"/>
     <use xlink:href="#DejaVuSans-20" transform="translate(605.083984 0)"/>
     <use xlink:href="#DejaVuSans-43" transform="translate(636.871094 0)"/>
     <use xlink:href="#DejaVuSans-6f" transform="translate(706.695312 0)"/>
     <use xlink:href="#DejaVuSans-6e" transform="translate(767.876953 0)"/>
     <use xlink:href="#DejaVuSans-74" transform="translate(831.255859 0)"/>
     <use xlink:href="#DejaVuSans-72" transform="translate(870.464844 0)"/>
     <use xlink:href="#DejaVuSans-6f" transform="translate(909.328125 0)"/>
     <use xlink:href="#DejaVuSans-6c" transform="translate(970.509766 0)"/>
     <use xlink:href="#DejaVuSans-20" transform="translate(998.292969 0)"/>
     <use xlink:href="#DejaVuSans-67" transform="translate(1030.080078 0)"/>
     <use xlink:href="#DejaVuSans-72" transform="translate(1093.556641 0)"/>
     <use xlink:href="#DejaVuSans-6f" transform="translate(1132.419922 0)"/>
     <use xlink:href="#DejaVuSans-75" transform="translate(1193.601562 0)"/>
     <use xlink:href="#DejaVuSans-70" transform="translate(1256.980469 0)"/>
    </g>
   </g>
   <g id="legend_1">
    <g id="patch_7">
     <path d="M 551.080313 42.096094 
L 573.080313 42.096094 
L 573.080313 34.396094 
L 551.080313 34.396094 
z
" style="fill: #d3d3d3; fill-opacity: 0.5; stroke: #d3d3d3; stroke-opacity: 0.5; stroke-linejoin: miter"/>
    </g>
    <g id="text_19">
     <!-- Control group ±2 SD -->
     <g transform="translate(581.880313 42.096094) scale(0.11 -0.11)">
      <defs>
       <path id="DejaVuSans-b1" d="M 2944 4013 
L 2944 2803 
L 4684 2803 
L 4684 2272 
L 2944 2272 
L 2944 1063 
L 2419 1063 
L 2419 2272 
L 678 2272 
L 678 2803 
L 2419 2803 
L 2419 4013 
L 2944 4013 
z
M 678 531 
L 4684 531 
L 4684 0 
L 678 0 
L 678 531 
z
" transform="scale(0.015625)"/>
       <path id="DejaVuSans-53" d="M 3425 4513 
L 3425 3897 
Q 3066 4069 2747 4153 
Q 2428 4238 2131 4238 
Q 1616 4238 1336 4038 
Q 1056 3838 1056 3469 
Q 1056 3159 1242 3001 
Q 1428 2844 1947 2747 
L 2328 2669 
Q 3034 2534 3370 2195 
Q 3706 1856 3706 1288 
Q 3706 609 3251 259 
Q 2797 -91 1919 -91 
Q 1588 -91 1214 -16 
Q 841 59 441 206 
L 441 856 
Q 825 641 1194 531 
Q 1563 422 1919 422 
Q 2459 422 2753 634 
Q 3047 847 3047 1241 
Q 3047 1584 2836 1778 
Q 2625 1972 2144 2069 
L 1759 2144 
Q 1053 2284 737 2584 
Q 422 2884 422 3419 
Q 422 4038 858 4394 
Q 1294 4750 2059 4750 
Q 2388 4750 2728 4690 
Q 3069 4631 3425 4513 
z
" transform="scale(0.015625)"/>
       <path id="DejaVuSans-44" d="M 1259 4147 
L 1259 519 
L 2022 519 
Q 2988 519 3436 956 
Q 3884 1394 3884 2338 
Q 3884 3275 3436 3711 
Q 2988 4147 2022 4147 
L 1259 4147 
z
M 628 4666 
L 1925 4666 
Q 3281 4666 3915 4102 
Q 4550 3538 4550 2338 
Q 4550 1131 3912 565 
Q 3275 0 1925 0 
L 628 0 
L 628 4666 
z
" transform="scale(0.015625)"/>
      </defs>
      <use xlink:href="#DejaVuSans-43"/>
      <use xlink:href="#DejaVuSans-6f" transform="translate(69.824219 0)"/>
      <use xlink:href="#DejaVuSans-6e" transform="translate(131.005859 0)"/>
      <use xlink:href="#DejaVuSans-74" transform="translate(194.384766 0)"/>
      <use xlink:href="#DejaVuSans-72" transform="translate(233.59375 0)"/>
      <use xlink:href="#DejaVuSans-6f" transform="translate(272.457031 0)"/>
      <use xlink:href="#DejaVuSans-6c" transform="translate(333.638672 0)"/>
      <use xlink:href="#DejaVuSans-20" transform="translate(361.421875 0)"/>
      <use xlink:href="#DejaVuSans-67" transform="translate(393.208984 0)"/>
      <use xlink:href="#DejaVuSans-72" transform="translate(456.685547 0)"/>
      <use xlink:href="#DejaVuSans-6f" transform="translate(495.548828 0)"/>
      <use xlink:href="#DejaVuSans-75" transform="translate(556.730469 0)"/>
      <use xlink:href="#DejaVuSans-70" transform="translate(620.109375 0)"/>
      <use xlink:href="#DejaVuSans-20" transform="translate(683.585938 0)"/>
      <use xlink:href="#DejaVuSans-b1" transform="translate(715.373047 0)"/>
      <use xlink:href="#DejaVuSans-32" transform="translate(799.162109 0)"/>
      <use xlink:href="#DejaVuSans-20" transform="translate(862.785156 0)"/>
      <use xlink:href="#DejaVuSans-53" transform="translate(894.572266 0)"/>
      <use xlink:href="#DejaVuSans-44" transform="translate(958.048828 0)"/>
     </g>
    </g>
    <g id="patch_8">
     <path d="M 551.080313 58.242031 
L 573.080313 58.242031 
L 573.080313 50.542031 
L 551.080313 50.542031 
z
" style="fill: #808080; fill-opacity: 0.7; stroke: #808080; stroke-opacity: 0.7; stroke-linejoin: miter"/>
    </g>
    <g id="text_20">
     <!-- Control group ±1 SD -->
     <g transform="translate(581.880313 58.242031) scale(0.11 -0.11)">
      <use xlink:href="#DejaVuSans-43"/>
      <use xlink:href="#DejaVuSans-6f" transform="translate(69.824219 0)"/>
      <use xlink:href="#DejaVuSans-6e" transform="translate(131.005859 0)"/>
      <use xlink:href="#DejaVuSans-74" transform="translate(194.384766 0)"/>
      <use xlink:href="#DejaVuSans-72" transform="translate(233.59375 0)"/>
      <use xlink:href="#DejaVuSans-6f" transform="translate(272.457031 0)"/>
      <use xlink:href="#DejaVuSans-6c" transform="translate(333.638672 0)"/>
      <use xlink:href="#DejaVuSans-20" transform="translate(361.421875 0)"/>
      <use xlink:href="#DejaVuSans-67" transform="translate(393.208984 0)"/>
      <use xlink:href="#DejaVuSans-72" transform="translate(456.685547 0)"/>
      <use xlink:href="#DejaVuSans-6f" transform="translate(495.548828 0)"/>
      <use xlink:href="#DejaVuSans-75" transform="translate(556.730469 0)"/>
      <use xlink:href="#DejaVuSans-70" transform="translate(620.109375 0)"/>
      <use xlink:href="#DejaVuSans-20" transform="translate(683.585938 0)"/>
      <use xlink:href="#DejaVuSans-b1" transform="translate(715.373047 0)"/>
      <use xlink:href="#DejaVuSans-31" transform="translate(799.162109 0)"/>
      <use xlink:href="#DejaVuSans-20" transform="translate(862.785156 0)"/>
      <use xlink:href="#DejaVuSans-53" transform="translate(894.572266 0)"/>
      <use xlink:href="#DejaVuSans-44" transform="translate(958.048828 0)"/>
     </g>
    </g>
    <g id="line2d_34">
     <path d="M 551.080313 70.537969 
L 562.080313 70.537969 
L 573.080313 70.537969 
" style="fill: none; stroke: #ff8c00; stroke-width: 2.3; stroke-linecap: square"/>
    </g>
    <g id="text_21">
     <!-- Patient -->
     <g transform="translate(581.880313 74.387969) scale(0.11 -0.11)">
      <defs>
       <path id="DejaVuSans-50" d="M 1259 4147 
L 1259 2394 
L 2053 2394 
Q 2494 2394 2734 2622 
Q 2975 2850 2975 3272 
Q 2975 3691 2734 3919 
Q 2494 4147 2053 4147 
L 1259 4147 
z
M 628 4666 
L 2053 4666 
Q 2838 4666 3239 4311 
Q 3641 3956 3641 3272 
Q 3641 2581 3239 2228 
Q 2838 1875 2053 1875 
L 1259 1875 
L 1259 0 
L 628 0 
L 628 4666 
z
" transform="scale(0.015625)"/>
      </defs>
      <use xlink:href="#DejaVuSans-50"/>
      <use xlink:href="#DejaVuSans-61" transform="translate(55.802734 0)"/>
      <use xlink:href="#DejaVuSans-74" transform="translate(117.082031 0)"/>
      <use xlink:href="#DejaVuSans-69" transform="translate(156.291016 0)"/>
      <use xlink:href="#DejaVuSans-65" transform="translate(184.074219 0)"/>
      <use xlink:href="#DejaVuSans-6e" transform="translate(245.597656 0)"/>
      <use xlink:href="#DejaVuSans-74" transform="translate(308.976562 0)"/>
     </g>
    </g>
   </g>
  </g>
 </g>
 <defs>
  <clipPath id="p9a17583f01">
   <rect x="47.307188" y="23.837812" width="658.33" height="360.28"/>
  </clipPath>
 </defs>
</svg>
