<?xml version="1.0" encoding="utf-8" standalone="no"?>
<!DOCTYPE svg PUBLIC "-//W3C//DTD SVG 1.1//EN"
  "http://www.w3.org/Graphics/SVG/1.1/DTD/svg11.dtd">
<svg xmlns:xlink="http://www.w3.org/1999/xlink" width="712.837188pt" height="424.5775pt" viewBox="0 0 712.837188 424.5775" xmlns="http://www.w3.org/2000/svg" version="1.1">
 <metadata>
  <rdf:RDF xmlns:dc="http://purl.org/dc/elements/1.1/" xmlns:cc="http://creativecommons.org/ns#" xmlns:rdf="http://www.w3.org/1999/02/22-rdf-syntax-ns#">
   <cc:Work>
    <dc:type rdf:resource="http://purl.org/dc/dcmitype/StillImage"/>
    <dc:date>2026-06-23T21:32:23.733248</dc:date>
    <dc:format>image/svg+xml</dc:format>
    <dc:creator>
     <cc:Agent>
      <dc:title>Matplotlib v3.10.1, https://matplotlib.org/</dc:title>
     </cc:Agent>
    </dc:creator>
   </cc:Work>
  </rdf:RDF>
 </metadata>
 <defs>
  <style type="text/css">*{stroke-linejoin: round; stroke-linecap: butt}</style>
 </defs>
 <g id="figure_1">
  <g id="patch_1">
   <path d="M 0 424.5775 
L 712.837188 424.5775 
L 712.837188 0 
L 0 0 
z
" style="fill: #ffffff"/>
  </g>
  <g id="axes_1">
   <g id="patch_2">
    <path d="M 47.307188 384.117812 
L 705.637188 384.117812 
L 705.637188 23.837812 
L 47.307188 23.837812 
z
" style="fill: #ffffff"/>
   </g>
   <g id="matplotlib.axis_1">
    <g id="xtick_1">
     <g id="line2d_1">
      <path d="M 47.307188 384.117812 
L 47.307188 23.837812 
" clip-path="url(#p93e55762d6)" style="fill: none; stroke: #b0b0b0; stroke-opacity: 0.2; stroke-width: 0.6; stroke-linecap: square"/>
     </g>
     <g id="line2d_2">
      <defs>
       <path id="m668249786e" d="M 0 0 
L 0 3.5 
" style="stroke: #000000; stroke-width: 0.8"/>
      </defs>
      <g>
       <use xlink:href="#m668249786e" x="47.307188" y="384.117812" style="stroke: #000000; stroke-width: 0.8"/>
      </g>
     </g>
     <g id="text_1">
      <!-- 0 -->
      <g transform="translate(43.807813 399.476094) scale(0.11 -0.11)">
       <defs>
        <path id="DejaVuSans-30" d="M 2034 4250 
Q 1547 4250 1301 3770 
Q 1056 3291 1056 2328 
Q 1056 1369 1301 889 
Q 1547 409 2034 409 
Q 2525 409 2770 889 
Q 3016 1369 3016 2328 
Q 3016 3291 2770 3770 
Q 2525 4250 2034 4250 
z
M 2034 4750 
Q 2819 4750 3233 4129 
Q 3647 3509 3647 2328 
Q 3647 1150 3233 529 
Q 2819 -91 2034 -91 
Q 1250 -91 836 529 
Q 422 1150 422 2328 
Q 422 3509 836 4129 
Q 1250 4750 2034 4750 
z
" transform="scale(0.015625)"/>
       </defs>
       <use xlink:href="#DejaVuSans-30"/>
      </g>
     </g>
    </g>
    <g id="xtick_2">
     <g id="line2d_3">
      <path d="M 133.929556 384.117812 
L 133.929556 23.837812 
" clip-path="url(#p93e55762d6)" style="fill: none; stroke: #b0b0b0; stroke-opacity: 0.2; stroke-width: 0.6; stroke-linecap: square"/>
     </g>
     <g id="line2d_4">
      <g>
       <use xlink:href="#m668249786e" x="133.929556" y="384.117812" style="stroke: #000000; stroke-width: 0.8"/>
      </g>
     </g>
     <g id="text_2">
      <!-- 25 -->
      <g transform="translate(126.930806 399.476094) scale(0.11 -0.11)">
       <defs>
        <path id="DejaVuSans-32" d="M 1228 531 
L 3431 531 
L 3431 0 
L 469 0 
L 469 531 
Q 828 903 1448 1529 
Q 2069 2156 2228 2338 
Q 2531 2678 2651 2914 
Q 2772 3150 2772 3378 
Q 2772 3750 2511 3984 
Q 2250 4219 1831 4219 
Q 1534 4219 1204 4116 
Q 875 4013 500 3803 
L 500 4441 
Q 881 4594 1212 4672 
Q 1544 4750 1819 4750 
Q 2544 4750 2975 4387 
Q 3406 4025 3406 3419 
Q 3406 3131 3298 2873 
Q 3191 2616 2906 2266 
Q 2828 2175 2409 1742 
Q 1991 1309 1228 531 
z
" transform="scale(0.015625)"/>
        <path id="DejaVuSans-35" d="M 691 4666 
L 3169 4666 
L 3169 4134 
L 1269 4134 
L 1269 2991 
Q 1406 3038 1543 3061 
Q 1681 3084 1819 3084 
Q 2600 3084 3056 2656 
Q 3513 2228 3513 1497 
Q 3513 744 3044 326 
Q 2575 -91 1722 -91 
Q 1428 -91 1123 -41 
Q 819 9 494 109 
L 494 744 
Q 775 591 1075 516 
Q 1375 441 1709 441 
Q 2250 441 2565 725 
Q 2881 1009 2881 1497 
Q 2881 1984 2565 2268 
Q 2250 2553 1709 2553 
Q 1456 2553 1204 2497 
Q 953 2441 691 2322 
L 691 4666 
z
" transform="scale(0.015625)"/>
       </defs>
       <use xlink:href="#DejaVuSans-32"/>
       <use xlink:href="#DejaVuSans-35" transform="translate(63.623047 0)"/>
      </g>
     </g>
    </g>
    <g id="xtick_3">
     <g id="line2d_5">
      <path d="M 220.551924 384.117812 
L 220.551924 23.837812 
" clip-path="url(#p93e55762d6)" style="fill: none; stroke: #b0b0b0; stroke-opacity: 0.2; stroke-width: 0.6; stroke-linecap: square"/>
     </g>
     <g id="line2d_6">
      <g>
       <use xlink:href="#m668249786e" x="220.551924" y="384.117812" style="stroke: #000000; stroke-width: 0.8"/>
      </g>
     </g>
     <g id="text_3">
      <!-- 50 -->
      <g transform="translate(213.553174 399.476094) scale(0.11 -0.11)">
       <use xlink:href="#DejaVuSans-35"/>
       <use xlink:href="#DejaVuSans-30" transform="translate(63.623047 0)"/>
      </g>
     </g>
    </g>
    <g id="xtick_4">
     <g id="line2d_7">
      <path d="M 307.174293 384.117812 
L 307.174293 23.837812 
" clip-path="url(#p93e55762d6)" style="fill: none; stroke: #b0b0b0; stroke-opacity: 0.2; stroke-width: 0.6; stroke-linecap: square"/>
     </g>
     <g id="line2d_8">
      <g>
       <use xlink:href="#m668249786e" x="307.174293" y="384.117812" style="stroke: #000000; stroke-width: 0.8"/>
      </g>
     </g>
     <g id="text_4">
      <!-- 75 -->
      <g transform="translate(300.175543 399.476094) scale(0.11 -0.11)">
       <defs>
        <path id="DejaVuSans-37" d="M 525 4666 
L 3525 4666 
L 3525 4397 
L 1831 0 
L 1172 0 
L 2766 4134 
L 525 4134 
L 525 4666 
z
" transform="scale(0.015625)"/>
       </defs>
       <use xlink:href="#DejaVuSans-37"/>
       <use xlink:href="#DejaVuSans-35" transform="translate(63.623047 0)"/>
      </g>
     </g>
    </g>
    <g id="xtick_5">
     <g id="line2d_9">
      <path d="M 393.796661 384.117812 
L 393.796661 23.837812 
" clip-path="url(#p93e55762d6)" style="fill: none; stroke: #b0b0b0; stroke-opacity: 0.2; stroke-width: 0.6; stroke-linecap: square"/>
     </g>
     <g id="line2d_10">
      <g>
       <use xlink:href="#m668249786e" x="393.796661" y="384.117812" style="stroke: #000000; stroke-width: 0.8"/>
      </g>
     </g>
     <g id="text_5">
      <!-- 100 -->
      <g transform="translate(383.298536 399.476094) scale(0.11 -0.11)">
       <defs>
        <path id="DejaVuSans-31" d="M 794 531 
L 1825 531 
L 1825 4091 
L 703 3866 
L 703 4441 
L 1819 4666 
L 2450 4666 
L 2450 531 
L 3481 531 
L 3481 0 
L 794 0 
L 794 531 
z
" transform="scale(0.015625)"/>
       </defs>
       <use xlink:href="#DejaVuSans-31"/>
       <use xlink:href="#DejaVuSans-30" transform="translate(63.623047 0)"/>
       <use xlink:href="#DejaVuSans-30" transform="translate(127.246094 0)"/>
      </g>
     </g>
    </g>
    <g id="xtick_6">
     <g id="line2d_11">
      <path d="M 480.41903 384.117812 
L 480.41903 23.837812 
" clip-path="url(#p93e55762d6)" style="fill: none; stroke: #b0b0b0; stroke-opacity: 0.2; stroke-width: 0.6; stroke-linecap: square"/>
     </g>
     <g id="line2d_12">
      <g>
       <use xlink:href="#m668249786e" x="480.41903" y="384.117812" style="stroke: #000000; stroke-width: 0.8"/>
      </g>
     </g>
     <g id="text_6">
      <!-- 125 -->
      <g transform="translate(469.920905 399.476094) scale(0.11 -0.11)">
       <use xlink:href="#DejaVuSans-31"/>
       <use xlink:href="#DejaVuSans-32" transform="translate(63.623047 0)"/>
       <use xlink:href="#DejaVuSans-35" transform="translate(127.246094 0)"/>
      </g>
     </g>
    </g>
    <g id="xtick_7">
     <g id="line2d_13">
      <path d="M 567.041398 384.117812 
L 567.041398 23.837812 
" clip-path="url(#p93e55762d6)" style="fill: none; stroke: #b0b0b0; stroke-opacity: 0.2; stroke-width: 0.6; stroke-linecap: square"/>
     </g>
     <g id="line2d_14">
      <g>
       <use xlink:href="#m668249786e" x="567.041398" y="384.117812" style="stroke: #000000; stroke-width: 0.8"/>
      </g>
     </g>
     <g id="text_7">
      <!-- 150 -->
      <g transform="translate(556.543273 399.476094) scale(0.11 -0.11)">
       <use xlink:href="#DejaVuSans-31"/>
       <use xlink:href="#DejaVuSans-35" transform="translate(63.623047 0)"/>
       <use xlink:href="#DejaVuSans-30" transform="translate(127.246094 0)"/>
      </g>
     </g>
    </g>
    <g id="xtick_8">
     <g id="line2d_15">
      <path d="M 653.663766 384.117812 
L 653.663766 23.837812 
" clip-path="url(#p93e55762d6)" style="fill: none; stroke: #b0b0b0; stroke-opacity: 0.2; stroke-width: 0.6; stroke-linecap: square"/>
     </g>
     <g id="line2d_16">
      <g>
       <use xlink:href="#m668249786e" x="653.663766" y="384.117812" style="stroke: #000000; stroke-width: 0.8"/>
      </g>
     </g>
     <g id="text_8">
      <!-- 175 -->
      <g transform="translate(643.165641 399.476094) scale(0.11 -0.11)">
       <use xlink:href="#DejaVuSans-31"/>
       <use xlink:href="#DejaVuSans-37" transform="translate(63.623047 0)"/>
       <use xlink:href="#DejaVuSans-35" transform="translate(127.246094 0)"/>
      </g>
     </g>
    </g>
    <g id="text_9">
     <!-- Time (s) -->
     <g transform="translate(352.0775 414.881875) scale(0.12 -0.12)">
      <defs>
       <path id="DejaVuSans-54" d="M -19 4666 
L 3928 4666 
L 3928 4134 
L 2272 4134 
L 2272 0 
L 1638 0 
L 1638 4134 
L -19 4134 
L -19 4666 
z
" transform="scale(0.015625)"/>
       <path id="DejaVuSans-69" d="M 603 3500 
L 1178 3500 
L 1178 0 
L 603 0 
L 603 3500 
z
M 603 4863 
L 1178 4863 
L 1178 4134 
L 603 4134 
L 603 4863 
z
" transform="scale(0.015625)"/>
       <path id="DejaVuSans-6d" d="M 3328 2828 
Q 3544 3216 3844 3400 
Q 4144 3584 4550 3584 
Q 5097 3584 5394 3201 
Q 5691 2819 5691 2113 
L 5691 0 
L 5113 0 
L 5113 2094 
Q 5113 2597 4934 2840 
Q 4756 3084 4391 3084 
Q 3944 3084 3684 2787 
Q 3425 2491 3425 1978 
L 3425 0 
L 2847 0 
L 2847 2094 
Q 2847 2600 2669 2842 
Q 2491 3084 2119 3084 
Q 1678 3084 1418 2786 
Q 1159 2488 1159 1978 
L 1159 0 
L 581 0 
L 581 3500 
L 1159 3500 
L 1159 2956 
Q 1356 3278 1631 3431 
Q 1906 3584 2284 3584 
Q 2666 3584 2933 3390 
Q 3200 3197 3328 2828 
z
" transform="scale(0.015625)"/>
       <path id="DejaVuSans-65" d="M 3597 1894 
L 3597 1613 
L 953 1613 
Q 991 1019 1311 708 
Q 1631 397 2203 397 
Q 2534 397 2845 478 
Q 3156 559 3463 722 
L 3463 178 
Q 3153 47 2828 -22 
Q 2503 -91 2169 -91 
Q 1331 -91 842 396 
Q 353 884 353 1716 
Q 353 2575 817 3079 
Q 1281 3584 2069 3584 
Q 2775 3584 3186 3129 
Q 3597 2675 3597 1894 
z
M 3022 2063 
Q 3016 2534 2758 2815 
Q 2500 3097 2075 3097 
Q 1594 3097 1305 2825 
Q 1016 2553 972 2059 
L 3022 2063 
z
" transform="scale(0.015625)"/>
       <path id="DejaVuSans-20" transform="scale(0.015625)"/>
       <path id="DejaVuSans-28" d="M 1984 4856 
Q 1566 4138 1362 3434 
Q 1159 2731 1159 2009 
Q 1159 1288 1364 580 
Q 1569 -128 1984 -844 
L 1484 -844 
Q 1016 -109 783 600 
Q 550 1309 550 2009 
Q 550 2706 781 3412 
Q 1013 4119 1484 4856 
L 1984 4856 
z
" transform="scale(0.015625)"/>
       <path id="DejaVuSans-73" d="M 2834 3397 
L 2834 2853 
Q 2591 2978 2328 3040 
Q 2066 3103 1784 3103 
Q 1356 3103 1142 2972 
Q 928 2841 928 2578 
Q 928 2378 1081 2264 
Q 1234 2150 1697 2047 
L 1894 2003 
Q 2506 1872 2764 1633 
Q 3022 1394 3022 966 
Q 3022 478 2636 193 
Q 2250 -91 1575 -91 
Q 1294 -91 989 -36 
Q 684 19 347 128 
L 347 722 
Q 666 556 975 473 
Q 1284 391 1588 391 
Q 1994 391 2212 530 
Q 2431 669 2431 922 
Q 2431 1156 2273 1281 
Q 2116 1406 1581 1522 
L 1381 1569 
Q 847 1681 609 1914 
Q 372 2147 372 2553 
Q 372 3047 722 3315 
Q 1072 3584 1716 3584 
Q 2034 3584 2315 3537 
Q 2597 3491 2834 3397 
z
" transform="scale(0.015625)"/>
       <path id="DejaVuSans-29" d="M 513 4856 
L 1013 4856 
Q 1481 4119 1714 3412 
Q 1947 2706 1947 2009 
Q 1947 1309 1714 600 
Q 1481 -109 1013 -844 
L 513 -844 
Q 928 -128 1133 580 
Q 1338 1288 1338 2009 
Q 1338 2731 1133 3434 
Q 928 4138 513 4856 
z
" transform="scale(0.015625)"/>
      </defs>
      <use xlink:href="#DejaVuSans-54"/>
      <use xlink:href="#DejaVuSans-69" transform="translate(57.958984 0)"/>
      <use xlink:href="#DejaVuSans-6d" transform="translate(85.742188 0)"/>
      <use xlink:href="#DejaVuSans-65" transform="translate(183.154297 0)"/>
      <use xlink:href="#DejaVuSans-20" transform="translate(244.677734 0)"/>
      <use xlink:href="#DejaVuSans-28" transform="translate(276.464844 0)"/>
      <use xlink:href="#DejaVuSans-73" transform="translate(315.478516 0)"/>
      <use xlink:href="#DejaVuSans-29" transform="translate(367.578125 0)"/>
     </g>
    </g>
   </g>
   <g id="matplotlib.axis_2">
    <g id="ytick_1">
     <g id="line2d_17">
      <path d="M 47.307188 367.741449 
L 705.637188 367.741449 
" clip-path="url(#p93e55762d6)" style="fill: none; stroke: #b0b0b0; stroke-opacity: 0.2; stroke-width: 0.6; stroke-linecap: square"/>
     </g>
     <g id="line2d_18">
      <defs>
       <path id="ma92881c266" d="M 0 0 
L -3.5 0 
" style="stroke: #000000; stroke-width: 0.8"/>
      </defs>
      <g>
       <use xlink:href="#ma92881c266" x="47.307188" y="367.741449" style="stroke: #000000; stroke-width: 0.8"/>
      </g>
     </g>
     <g id="text_10">
      <!-- 0.0 -->
      <g transform="translate(22.81375 371.920589) scale(0.11 -0.11)">
       <defs>
        <path id="DejaVuSans-2e" d="M 684 794 
L 1344 794 
L 1344 0 
L 684 0 
L 684 794 
z
" transform="scale(0.015625)"/>
       </defs>
       <use xlink:href="#DejaVuSans-30"/>
       <use xlink:href="#DejaVuSans-2e" transform="translate(63.623047 0)"/>
       <use xlink:href="#DejaVuSans-30" transform="translate(95.410156 0)"/>
      </g>
     </g>
    </g>
    <g id="ytick_2">
     <g id="line2d_19">
      <path d="M 47.307188 317.507205 
L 705.637188 317.507205 
" clip-path="url(#p93e55762d6)" style="fill: none; stroke: #b0b0b0; stroke-opacity: 0.2; stroke-width: 0.6; stroke-linecap: square"/>
     </g>
     <g id="line2d_20">
      <g>
       <use xlink:href="#ma92881c266" x="47.307188" y="317.507205" style="stroke: #000000; stroke-width: 0.8"/>
      </g>
     </g>
     <g id="text_11">
      <!-- 0.5 -->
      <g transform="translate(22.81375 321.686345) scale(0.11 -0.11)">
       <use xlink:href="#DejaVuSans-30"/>
       <use xlink:href="#DejaVuSans-2e" transform="translate(63.623047 0)"/>
       <use xlink:href="#DejaVuSans-35" transform="translate(95.410156 0)"/>
      </g>
     </g>
    </g>
    <g id="ytick_3">
     <g id="line2d_21">
      <path d="M 47.307188 267.27296 
L 705.637188 267.27296 
" clip-path="url(#p93e55762d6)" style="fill: none; stroke: #b0b0b0; stroke-opacity: 0.2; stroke-width: 0.6; stroke-linecap: square"/>
     </g>
     <g id="line2d_22">
      <g>
       <use xlink:href="#ma92881c266" x="47.307188" y="267.27296" style="stroke: #000000; stroke-width: 0.8"/>
      </g>
     </g>
     <g id="text_12">
      <!-- 1.0 -->
      <g transform="translate(22.81375 271.452101) scale(0.11 -0.11)">
       <use xlink:href="#DejaVuSans-31"/>
       <use xlink:href="#DejaVuSans-2e" transform="translate(63.623047 0)"/>
       <use xlink:href="#DejaVuSans-30" transform="translate(95.410156 0)"/>
      </g>
     </g>
    </g>
    <g id="ytick_4">
     <g id="line2d_23">
      <path d="M 47.307188 217.038716 
L 705.637188 217.038716 
" clip-path="url(#p93e55762d6)" style="fill: none; stroke: #b0b0b0; stroke-opacity: 0.2; stroke-width: 0.6; stroke-linecap: square"/>
     </g>
     <g id="line2d_24">
      <g>
       <use xlink:href="#ma92881c266" x="47.307188" y="217.038716" style="stroke: #000000; stroke-width: 0.8"/>
      </g>
     </g>
     <g id="text_13">
      <!-- 1.5 -->
      <g transform="translate(22.81375 221.217857) scale(0.11 -0.11)">
       <use xlink:href="#DejaVuSans-31"/>
       <use xlink:href="#DejaVuSans-2e" transform="translate(63.623047 0)"/>
       <use xlink:href="#DejaVuSans-35" transform="translate(95.410156 0)"/>
      </g>
     </g>
    </g>
    <g id="ytick_5">
     <g id="line2d_25">
      <path d="M 47.307188 166.804472 
L 705.637188 166.804472 
" clip-path="url(#p93e55762d6)" style="fill: none; stroke: #b0b0b0; stroke-opacity: 0.2; stroke-width: 0.6; stroke-linecap: square"/>
     </g>
     <g id="line2d_26">
      <g>
       <use xlink:href="#ma92881c266" x="47.307188" y="166.804472" style="stroke: #000000; stroke-width: 0.8"/>
      </g>
     </g>
     <g id="text_14">
      <!-- 2.0 -->
      <g transform="translate(22.81375 170.983612) scale(0.11 -0.11)">
       <use xlink:href="#DejaVuSans-32"/>
       <use xlink:href="#DejaVuSans-2e" transform="translate(63.623047 0)"/>
       <use xlink:href="#DejaVuSans-30" transform="translate(95.410156 0)"/>
      </g>
     </g>
    </g>
    <g id="ytick_6">
     <g id="line2d_27">
      <path d="M 47.307188 116.570227 
L 705.637188 116.570227 
" clip-path="url(#p93e55762d6)" style="fill: none; stroke: #b0b0b0; stroke-opacity: 0.2; stroke-width: 0.6; stroke-linecap: square"/>
     </g>
     <g id="line2d_28">
      <g>
       <use xlink:href="#ma92881c266" x="47.307188" y="116.570227" style="stroke: #000000; stroke-width: 0.8"/>
      </g>
     </g>
     <g id="text_15">
      <!-- 2.5 -->
      <g transform="translate(22.81375 120.749368) scale(0.11 -0.11)">
       <use xlink:href="#DejaVuSans-32"/>
       <use xlink:href="#DejaVuSans-2e" transform="translate(63.623047 0)"/>
       <use xlink:href="#DejaVuSans-35" transform="translate(95.410156 0)"/>
      </g>
     </g>
    </g>
    <g id="ytick_7">
     <g id="line2d_29">
      <path d="M 47.307188 66.335983 
L 705.637188 66.335983 
" clip-path="url(#p93e55762d6)" style="fill: none; stroke: #b0b0b0; stroke-opacity: 0.2; stroke-width: 0.6; stroke-linecap: square"/>
     </g>
     <g id="line2d_30">
      <g>
       <use xlink:href="#ma92881c266" x="47.307188" y="66.335983" style="stroke: #000000; stroke-width: 0.8"/>
      </g>
     </g>
     <g id="text_16">
      <!-- 3.0 -->
      <g transform="translate(22.81375 70.515124) scale(0.11 -0.11)">
       <defs>
        <path id="DejaVuSans-33" d="M 2597 2516 
Q 3050 2419 3304 2112 
Q 3559 1806 3559 1356 
Q 3559 666 3084 287 
Q 2609 -91 1734 -91 
Q 1441 -91 1130 -33 
Q 819 25 488 141 
L 488 750 
Q 750 597 1062 519 
Q 1375 441 1716 441 
Q 2309 441 2620 675 
Q 2931 909 2931 1356 
Q 2931 1769 2642 2001 
Q 2353 2234 1838 2234 
L 1294 2234 
L 1294 2753 
L 1863 2753 
Q 2328 2753 2575 2939 
Q 2822 3125 2822 3475 
Q 2822 3834 2567 4026 
Q 2313 4219 1838 4219 
Q 1578 4219 1281 4162 
Q 984 4106 628 3988 
L 628 4550 
Q 988 4650 1302 4700 
Q 1616 4750 1894 4750 
Q 2613 4750 3031 4423 
Q 3450 4097 3450 3541 
Q 3450 3153 3228 2886 
Q 3006 2619 2597 2516 
z
" transform="scale(0.015625)"/>
       </defs>
       <use xlink:href="#DejaVuSans-33"/>
       <use xlink:href="#DejaVuSans-2e" transform="translate(63.623047 0)"/>
       <use xlink:href="#DejaVuSans-30" transform="translate(95.410156 0)"/>
      </g>
     </g>
    </g>
    <g id="text_17">
     <!-- AU mean intensity -->
     <g transform="translate(16.318125 259.314687) rotate(-90) scale(0.12 -0.12)">
      <defs>
       <path id="DejaVuSans-41" d="M 2188 4044 
L 1331 1722 
L 3047 1722 
L 2188 4044 
z
M 1831 4666 
L 2547 4666 
L 4325 0 
L 3669 0 
L 3244 1197 
L 1141 1197 
L 716 0 
L 50 0 
L 1831 4666 
z
" transform="scale(0.015625)"/>
       <path id="DejaVuSans-55" d="M 556 4666 
L 1191 4666 
L 1191 1831 
Q 1191 1081 1462 751 
Q 1734 422 2344 422 
Q 2950 422 3222 751 
Q 3494 1081 3494 1831 
L 3494 4666 
L 4128 4666 
L 4128 1753 
Q 4128 841 3676 375 
Q 3225 -91 2344 -91 
Q 1459 -91 1007 375 
Q 556 841 556 1753 
L 556 4666 
z
" transform="scale(0.015625)"/>
       <path id="DejaVuSans-61" d="M 2194 1759 
Q 1497 1759 1228 1600 
Q 959 1441 959 1056 
Q 959 750 1161 570 
Q 1363 391 1709 391 
Q 2188 391 2477 730 
Q 2766 1069 2766 1631 
L 2766 1759 
L 2194 1759 
z
M 3341 1997 
L 3341 0 
L 2766 0 
L 2766 531 
Q 2569 213 2275 61 
Q 1981 -91 1556 -91 
Q 1019 -91 701 211 
Q 384 513 384 1019 
Q 384 1609 779 1909 
Q 1175 2209 1959 2209 
L 2766 2209 
L 2766 2266 
Q 2766 2663 2505 2880 
Q 2244 3097 1772 3097 
Q 1472 3097 1187 3025 
Q 903 2953 641 2809 
L 641 3341 
Q 956 3463 1253 3523 
Q 1550 3584 1831 3584 
Q 2591 3584 2966 3190 
Q 3341 2797 3341 1997 
z
" transform="scale(0.015625)"/>
       <path id="DejaVuSans-6e" d="M 3513 2113 
L 3513 0 
L 2938 0 
L 2938 2094 
Q 2938 2591 2744 2837 
Q 2550 3084 2163 3084 
Q 1697 3084 1428 2787 
Q 1159 2491 1159 1978 
L 1159 0 
L 581 0 
L 581 3500 
L 1159 3500 
L 1159 2956 
Q 1366 3272 1645 3428 
Q 1925 3584 2291 3584 
Q 2894 3584 3203 3211 
Q 3513 2838 3513 2113 
z
" transform="scale(0.015625)"/>
       <path id="DejaVuSans-74" d="M 1172 4494 
L 1172 3500 
L 2356 3500 
L 2356 3053 
L 1172 3053 
L 1172 1153 
Q 1172 725 1289 603 
Q 1406 481 1766 481 
L 2356 481 
L 2356 0 
L 1766 0 
Q 1100 0 847 248 
Q 594 497 594 1153 
L 594 3053 
L 172 3053 
L 172 3500 
L 594 3500 
L 594 4494 
L 1172 4494 
z
" transform="scale(0.015625)"/>
       <path id="DejaVuSans-79" d="M 2059 -325 
Q 1816 -950 1584 -1140 
Q 1353 -1331 966 -1331 
L 506 -1331 
L 506 -850 
L 844 -850 
Q 1081 -850 1212 -737 
Q 1344 -625 1503 -206 
L 1606 56 
L 191 3500 
L 800 3500 
L 1894 763 
L 2988 3500 
L 3597 3500 
L 2059 -325 
z
" transform="scale(0.015625)"/>
      </defs>
      <use xlink:href="#DejaVuSans-41"/>
      <use xlink:href="#DejaVuSans-55" transform="translate(68.408203 0)"/>
      <use xlink:href="#DejaVuSans-20" transform="translate(141.601562 0)"/>
      <use xlink:href="#DejaVuSans-6d" transform="translate(173.388672 0)"/>
      <use xlink:href="#DejaVuSans-65" transform="translate(270.800781 0)"/>
      <use xlink:href="#DejaVuSans-61" transform="translate(332.324219 0)"/>
      <use xlink:href="#DejaVuSans-6e" transform="translate(393.603516 0)"/>
      <use xlink:href="#DejaVuSans-20" transform="translate(456.982422 0)"/>
      <use xlink:href="#DejaVuSans-69" transform="translate(488.769531 0)"/>
      <use xlink:href="#DejaVuSans-6e" transform="translate(516.552734 0)"/>
      <use xlink:href="#DejaVuSans-74" transform="translate(579.931641 0)"/>
      <use xlink:href="#DejaVuSans-65" transform="translate(619.140625 0)"/>
      <use xlink:href="#DejaVuSans-6e" transform="translate(680.664062 0)"/>
      <use xlink:href="#DejaVuSans-73" transform="translate(744.042969 0)"/>
      <use xlink:href="#DejaVuSans-69" transform="translate(796.142578 0)"/>
      <use xlink:href="#DejaVuSans-74" transform="translate(823.925781 0)"/>
      <use xlink:href="#DejaVuSans-79" transform="translate(863.134766 0)"/>
     </g>
    </g>
   </g>
   <g id="FillBetweenPolyCollection_1">
    <defs>
     <path id="me87d4d8470" d="M 47.307188 -203.809943 
L 47.307188 2.953401 
L 50.772082 1.776333 
L 54.236977 -1.485358 
L 57.701872 -0.249166 
L 61.166766 -1.05059 
L 64.631661 -2.754128 
L 68.096556 -1.29238 
L 71.561451 0.130008 
L 75.026345 2.264345 
L 78.49124 3.176712 
L 81.956135 0.680337 
L 85.42103 1.549709 
L 88.885924 5.237708 
L 92.350819 3.821275 
L 95.815714 2.033531 
L 99.280609 2.365169 
L 102.745503 2.895356 
L 106.210398 2.964788 
L 109.675293 4.612632 
L 113.140187 6.159748 
L 116.605082 6.311367 
L 120.069977 4.416237 
L 123.534872 5.339913 
L 126.999766 5.435741 
L 130.464661 4.297985 
L 133.929556 8.530155 
L 137.394451 7.374512 
L 140.859345 5.209012 
L 144.32424 4.449425 
L 147.789135 2.737779 
L 151.25403 1.068904 
L 154.718924 3.015828 
L 158.183819 3.18873 
L 161.648714 2.949879 
L 165.113609 5.956358 
L 168.578503 5.066395 
L 172.043398 5.575281 
L 175.508293 5.752576 
L 178.973187 2.932507 
L 182.438082 3.464132 
L 185.902977 3.803663 
L 189.367872 3.38164 
L 192.832766 2.2852 
L 196.297661 -5.320565 
L 199.762556 -3.761748 
L 203.227451 -6.178938 
L 206.692345 -5.571021 
L 210.15724 -4.127142 
L 213.622135 -8.097607 
L 217.08703 -5.82 
L 220.551924 -3.674011 
L 224.016819 -6.332362 
L 227.481714 -6.644746 
L 230.946609 -8.143285 
L 234.411503 -6.686773 
L 237.876398 -6.255768 
L 241.341293 -4.609574 
L 244.806187 -5.484219 
L 248.271082 -6.375496 
L 251.735977 -4.430738 
L 255.200872 -3.890353 
L 258.665766 -3.943597 
L 262.130661 -2.21073 
L 265.595556 1.44709 
L 269.060451 -0.500042 
L 272.525345 -0.149789 
L 275.99024 -0.347494 
L 279.455135 -0.588056 
L 282.92003 -1.994841 
L 286.384924 -3.666759 
L 289.849819 -3.537137 
L 293.314714 -1.935081 
L 296.779609 -1.854354 
L 300.244503 -0.796708 
L 303.709398 -0.044467 
L 307.174293 0.812763 
L 310.639187 1.768095 
L 314.104082 1.517625 
L 317.568977 2.576967 
L 321.033872 0.904941 
L 324.498766 0.872789 
L 327.963661 3.063751 
L 331.428556 1.861321 
L 334.893451 -0.006231 
L 338.358345 0.496717 
L 341.82324 0.861674 
L 345.288135 0.241714 
L 348.75303 0.920769 
L 352.217924 1.615542 
L 355.682819 1.119796 
L 359.147714 3.145889 
L 362.612609 -0.376344 
L 366.077503 -0.95409 
L 369.542398 -2.165522 
L 373.007293 -0.667226 
L 376.472188 -1.603791 
L 379.937082 0.282066 
L 383.401977 -1.44628 
L 386.866872 0.818521 
L 390.331766 -1.845452 
L 393.796661 -3.499499 
L 397.261556 -2.139968 
L 400.726451 -2.119716 
L 404.191345 -3.827143 
L 407.65624 -5.590349 
L 411.121135 -5.885982 
L 414.58603 -6.931277 
L 418.050924 -8.314612 
L 421.515819 -8.920809 
L 424.980714 -9.901252 
L 428.445609 -9.225631 
L 431.910503 -7.818642 
L 435.375398 -11.342847 
L 438.840293 -9.966228 
L 442.305187 -13.161351 
L 445.770082 -2.912178 
L 449.234977 -7.497093 
L 452.699872 -5.522743 
L 456.164766 -4.094311 
L 459.629661 -6.931342 
L 463.094556 -7.762513 
L 466.559451 -5.408264 
L 470.024345 -10.78482 
L 473.48924 -3.905733 
L 476.954135 -5.540181 
L 480.41903 -2.128125 
L 483.883924 -2.609746 
L 487.348819 0.461149 
L 490.813714 -0.811977 
L 494.278609 2.148673 
L 497.743503 1.293166 
L 501.208398 -0.36747 
L 504.673293 1.745793 
L 508.138188 -0.020079 
L 511.603082 3.121608 
L 515.067977 -1.75974 
L 518.532872 -2.414944 
L 521.997766 -1.12372 
L 525.462661 0.395286 
L 528.927556 -1.141399 
L 532.392451 0.374213 
L 535.857345 -2.645216 
L 539.32224 -0.47541 
L 542.787135 1.81748 
L 546.25203 2.538197 
L 549.716924 2.948697 
L 553.181819 2.391824 
L 556.646714 0.312016 
L 560.111609 3.15318 
L 563.576503 4.355621 
L 567.041398 4.190823 
L 570.506293 5.089647 
L 573.971188 2.669937 
L 577.436082 2.524847 
L 580.900977 4.601206 
L 584.365872 7.039149 
L 587.830766 1.262041 
L 591.295661 2.236698 
L 594.760556 -4.367112 
L 598.225451 -1.125499 
L 601.690345 1.085786 
L 605.15524 1.928148 
L 608.620135 0.104064 
L 612.08503 3.466742 
L 615.549924 5.083503 
L 619.014819 2.835247 
L 622.479714 3.929518 
L 625.944609 9.203732 
L 629.409503 4.997096 
L 632.874398 -0.002153 
L 636.339293 -2.294812 
L 639.804188 -3.309813 
L 643.269082 -3.06527 
L 646.733977 4.342192 
L 650.198872 9.263505 
L 653.663766 12.251421 
L 657.128661 13.010369 
L 660.593556 13.096116 
L 664.058451 9.275099 
L 667.523345 5.70502 
L 670.98824 8.053941 
L 674.453135 8.140471 
L 677.91803 8.835798 
L 681.382924 8.095839 
L 684.847819 3.531488 
L 688.312714 -1.866221 
L 691.777609 -1.960725 
L 695.242503 -0.044313 
L 698.707398 -1.629479 
L 702.172293 -7.609075 
L 705.637188 -18.335409 
L 705.637188 -119.44913 
L 705.637188 -119.44913 
L 702.172293 -201.972373 
L 698.707398 -213.349674 
L 695.242503 -214.058279 
L 691.777609 -213.529392 
L 688.312714 -214.971793 
L 684.847819 -219.611804 
L 681.382924 -225.922036 
L 677.91803 -228.373893 
L 674.453135 -233.015316 
L 670.98824 -235.464905 
L 667.523345 -232.368451 
L 664.058451 -241.570329 
L 660.593556 -248.182811 
L 657.128661 -248.6941 
L 653.663766 -252.542592 
L 650.198872 -249.983477 
L 646.733977 -243.196895 
L 643.269082 -237.602335 
L 639.804188 -239.687724 
L 636.339293 -244.937942 
L 632.874398 -246.22807 
L 629.409503 -259.351083 
L 625.944609 -262.598475 
L 622.479714 -257.099562 
L 619.014819 -255.141533 
L 615.549924 -253.22115 
L 612.08503 -250.832201 
L 608.620135 -247.186674 
L 605.15524 -247.710735 
L 601.690345 -237.957853 
L 598.225451 -233.553294 
L 594.760556 -231.645836 
L 591.295661 -239.644953 
L 587.830766 -227.458667 
L 584.365872 -220.828991 
L 580.900977 -217.498163 
L 577.436082 -213.622611 
L 573.971188 -210.80274 
L 570.506293 -212.3691 
L 567.041398 -211.697784 
L 563.576503 -209.392001 
L 560.111609 -211.539949 
L 556.646714 -207.950046 
L 553.181819 -211.415608 
L 549.716924 -211.221482 
L 546.25203 -209.954156 
L 542.787135 -211.807996 
L 539.32224 -207.69127 
L 535.857345 -204.522474 
L 532.392451 -207.170369 
L 528.927556 -205.983426 
L 525.462661 -207.588958 
L 521.997766 -205.281209 
L 518.532872 -204.615766 
L 515.067977 -206.428881 
L 511.603082 -213.538621 
L 508.138188 -205.43125 
L 504.673293 -206.907207 
L 501.208398 -204.154334 
L 497.743503 -208.869522 
L 494.278609 -211.25253 
L 490.813714 -205.650382 
L 487.348819 -208.791478 
L 483.883924 -205.718574 
L 480.41903 -201.982058 
L 476.954135 -199.600725 
L 473.48924 -200.514292 
L 470.024345 -198.052565 
L 466.559451 -208.455564 
L 463.094556 -209.729408 
L 459.629661 -213.159261 
L 456.164766 -213.68087 
L 452.699872 -212.171728 
L 449.234977 -213.169464 
L 445.770082 -216.662676 
L 442.305187 -202.749477 
L 438.840293 -205.854123 
L 435.375398 -205.973845 
L 431.910503 -208.187653 
L 428.445609 -208.45342 
L 424.980714 -208.454397 
L 421.515819 -206.664096 
L 418.050924 -209.237758 
L 414.58603 -213.180845 
L 411.121135 -212.856234 
L 407.65624 -213.347717 
L 404.191345 -212.894547 
L 400.726451 -214.8467 
L 397.261556 -218.741192 
L 393.796661 -217.233707 
L 390.331766 -210.848298 
L 386.866872 -206.935182 
L 383.401977 -205.90344 
L 379.937082 -209.877314 
L 376.472188 -209.247352 
L 373.007293 -206.022181 
L 369.542398 -202.898072 
L 366.077503 -205.469635 
L 362.612609 -204.169731 
L 359.147714 -209.26603 
L 355.682819 -206.168116 
L 352.217924 -209.53192 
L 348.75303 -206.309856 
L 345.288135 -205.311027 
L 341.82324 -206.621083 
L 338.358345 -206.230145 
L 334.893451 -207.146779 
L 331.428556 -208.836734 
L 327.963661 -211.205201 
L 324.498766 -207.673705 
L 321.033872 -205.91705 
L 317.568977 -205.926396 
L 314.104082 -205.280583 
L 310.639187 -204.802404 
L 307.174293 -204.168014 
L 303.709398 -202.808204 
L 300.244503 -205.125941 
L 296.779609 -201.492512 
L 293.314714 -200.800291 
L 289.849819 -200.642298 
L 286.384924 -201.406418 
L 282.92003 -202.790354 
L 279.455135 -204.340868 
L 275.99024 -205.138927 
L 272.525345 -203.378096 
L 269.060451 -206.592191 
L 265.595556 -211.552892 
L 262.130661 -208.539714 
L 258.665766 -202.304159 
L 255.200872 -203.415011 
L 251.735977 -209.46245 
L 248.271082 -205.761767 
L 244.806187 -213.679796 
L 241.341293 -211.884437 
L 237.876398 -209.767164 
L 234.411503 -211.310329 
L 230.946609 -210.541582 
L 227.481714 -212.020681 
L 224.016819 -214.231322 
L 220.551924 -215.81135 
L 217.08703 -213.29567 
L 213.622135 -213.119356 
L 210.15724 -215.844262 
L 206.692345 -216.178039 
L 203.227451 -214.709072 
L 199.762556 -219.752972 
L 196.297661 -213.301864 
L 192.832766 -209.008847 
L 189.367872 -208.135777 
L 185.902977 -208.292907 
L 182.438082 -208.166596 
L 178.973187 -209.056676 
L 175.508293 -208.049315 
L 172.043398 -208.979458 
L 168.578503 -209.349213 
L 165.113609 -210.107045 
L 161.648714 -207.26969 
L 158.183819 -207.054509 
L 154.718924 -208.012867 
L 151.25403 -205.721842 
L 147.789135 -208.106901 
L 144.32424 -210.67137 
L 140.859345 -211.043777 
L 137.394451 -213.409705 
L 133.929556 -215.744625 
L 130.464661 -213.49535 
L 126.999766 -212.209426 
L 123.534872 -211.905543 
L 120.069977 -210.36981 
L 116.605082 -212.521045 
L 113.140187 -212.44391 
L 109.675293 -209.319402 
L 106.210398 -208.227629 
L 102.745503 -207.642409 
L 99.280609 -208.065859 
L 95.815714 -206.140823 
L 92.350819 -210.246559 
L 88.885924 -212.492903 
L 85.42103 -206.368633 
L 81.956135 -205.289147 
L 78.49124 -207.069048 
L 75.026345 -206.154843 
L 71.561451 -200.785156 
L 68.096556 -199.67177 
L 64.631661 -199.265457 
L 61.166766 -201.292323 
L 57.701872 -202.50069 
L 54.236977 -199.622161 
L 50.772082 -201.856033 
L 47.307188 -203.809943 
z
" style="stroke: #d3d3d3; stroke-opacity: 0.5"/>
    </defs>
    <g clip-path="url(#p93e55762d6)">
     <use xlink:href="#me87d4d8470" x="0" y="424.5775" style="fill: #d3d3d3; fill-opacity: 0.5; stroke: #d3d3d3; stroke-opacity: 0.5"/>
    </g>
   </g>
   <g id="FillBetweenPolyCollection_2">
    <defs>
     <path id="ma386429afa" d="M 47.307188 -152.119107 
L 47.307188 -48.737435 
L 50.772082 -49.131758 
L 54.236977 -51.019559 
L 57.701872 -50.812047 
L 61.166766 -51.111023 
L 64.631661 -51.881961 
L 68.096556 -50.887227 
L 71.561451 -50.098783 
L 75.026345 -49.840452 
L 78.49124 -49.384728 
L 81.956135 -50.812034 
L 85.42103 -50.429876 
L 88.885924 -49.194944 
L 92.350819 -49.695684 
L 95.815714 -50.010057 
L 99.280609 -50.242588 
L 102.745503 -49.739085 
L 106.210398 -49.833316 
L 109.675293 -48.870377 
L 113.140187 -48.491167 
L 116.605082 -48.396736 
L 120.069977 -49.280275 
L 123.534872 -48.971451 
L 126.999766 -48.975551 
L 130.464661 -50.150349 
L 133.929556 -47.53854 
L 137.394451 -47.821542 
L 140.859345 -48.854185 
L 144.32424 -49.330774 
L 147.789135 -49.973391 
L 151.25403 -50.628782 
L 154.718924 -49.741346 
L 158.183819 -49.37208 
L 161.648714 -49.605013 
L 165.113609 -48.059493 
L 168.578503 -48.537507 
L 172.043398 -48.063404 
L 175.508293 -47.697897 
L 178.973187 -50.064789 
L 182.438082 -49.44355 
L 185.902977 -49.220479 
L 189.367872 -49.497714 
L 192.832766 -50.538312 
L 196.297661 -57.31589 
L 199.762556 -57.759554 
L 203.227451 -58.311471 
L 206.692345 -58.222775 
L 210.15724 -57.056422 
L 213.622135 -59.353044 
L 217.08703 -57.688917 
L 220.551924 -56.708346 
L 224.016819 -58.307102 
L 227.481714 -57.98873 
L 230.946609 -58.742859 
L 234.411503 -57.842662 
L 237.876398 -57.133617 
L 241.341293 -56.42829 
L 244.806187 -57.533113 
L 248.271082 -56.222064 
L 251.735977 -55.688666 
L 255.200872 -53.771518 
L 258.665766 -53.533738 
L 262.130661 -53.792976 
L 265.595556 -51.802905 
L 269.060451 -52.023079 
L 272.525345 -50.956866 
L 275.99024 -51.545353 
L 279.455135 -51.526259 
L 282.92003 -52.193719 
L 286.384924 -53.101674 
L 289.849819 -52.813427 
L 293.314714 -51.651383 
L 296.779609 -51.763893 
L 300.244503 -51.879016 
L 303.709398 -50.735402 
L 307.174293 -50.432431 
L 310.639187 -49.87453 
L 314.104082 -50.181927 
L 317.568977 -49.548874 
L 321.033872 -50.800557 
L 324.498766 -51.263835 
L 327.963661 -50.503487 
L 331.428556 -50.813193 
L 334.893451 -51.791368 
L 338.358345 -51.184998 
L 341.82324 -51.009015 
L 345.288135 -51.146472 
L 348.75303 -50.886887 
L 352.217924 -51.171324 
L 355.682819 -50.702182 
L 359.147714 -49.95709 
L 362.612609 -51.324691 
L 366.077503 -52.082976 
L 369.542398 -52.348659 
L 373.007293 -52.005965 
L 376.472188 -53.514682 
L 379.937082 -52.257779 
L 383.401977 -52.56057 
L 386.866872 -51.119905 
L 390.331766 -54.096164 
L 393.796661 -56.933051 
L 397.261556 -56.290274 
L 400.726451 -55.301462 
L 404.191345 -56.093994 
L 407.65624 -57.529691 
L 411.121135 -57.628545 
L 414.58603 -58.493669 
L 418.050924 -58.545398 
L 421.515819 -58.356631 
L 424.980714 -59.539538 
L 428.445609 -59.032579 
L 431.910503 -57.910894 
L 435.375398 -60.000596 
L 438.840293 -58.938201 
L 442.305187 -60.558383 
L 445.770082 -56.349802 
L 449.234977 -58.915186 
L 452.699872 -57.184989 
L 456.164766 -56.490951 
L 459.629661 -58.488322 
L 463.094556 -58.254237 
L 466.559451 -56.170089 
L 470.024345 -57.601757 
L 473.48924 -53.057873 
L 476.954135 -54.055317 
L 480.41903 -52.091608 
L 483.883924 -53.386953 
L 487.348819 -51.852008 
L 490.813714 -52.021578 
L 494.278609 -51.201628 
L 497.743503 -51.247506 
L 501.208398 -51.314186 
L 504.673293 -50.417457 
L 508.138188 -51.372872 
L 511.603082 -51.043449 
L 515.067977 -52.927025 
L 518.532872 -52.96515 
L 521.997766 -52.163092 
L 525.462661 -51.600775 
L 528.927556 -52.351906 
L 532.392451 -51.511932 
L 535.857345 -53.114531 
L 539.32224 -52.279375 
L 542.787135 -51.588889 
L 546.25203 -50.584891 
L 549.716924 -50.593848 
L 553.181819 -51.060034 
L 556.646714 -51.7535 
L 560.111609 -50.520103 
L 563.576503 -49.081285 
L 567.041398 -49.781328 
L 570.506293 -49.275039 
L 573.971188 -50.698232 
L 577.436082 -51.512017 
L 580.900977 -50.923636 
L 584.365872 -49.927886 
L 587.830766 -55.918136 
L 591.295661 -58.233715 
L 594.760556 -61.186793 
L 598.225451 -59.232448 
L 601.690345 -58.675124 
L 605.15524 -60.481572 
L 608.620135 -61.71862 
L 612.08503 -60.107994 
L 615.549924 -59.492661 
L 619.014819 -61.658948 
L 622.479714 -61.327752 
L 625.944609 -58.74682 
L 629.409503 -61.089949 
L 632.874398 -61.558632 
L 636.339293 -62.955595 
L 639.804188 -62.40429 
L 643.269082 -61.699536 
L 646.733977 -57.54258 
L 650.198872 -55.54824 
L 653.663766 -53.947082 
L 657.128661 -52.415748 
L 660.593556 -52.223616 
L 664.058451 -53.436258 
L 667.523345 -53.813348 
L 670.98824 -52.825771 
L 674.453135 -52.148476 
L 677.91803 -50.466624 
L 681.382924 -50.40863 
L 684.847819 -52.254335 
L 688.312714 -55.142614 
L 691.777609 -54.852891 
L 695.242503 -53.547805 
L 698.707398 -54.559528 
L 702.172293 -56.1999 
L 705.637188 -43.61384 
L 705.637188 -94.1707 
L 705.637188 -94.1707 
L 702.172293 -153.381549 
L 698.707398 -160.419626 
L 695.242503 -160.554787 
L 691.777609 -160.637225 
L 688.312714 -161.6954 
L 684.847819 -163.825981 
L 681.382924 -167.417567 
L 677.91803 -169.07147 
L 674.453135 -172.726369 
L 670.98824 -174.585193 
L 667.523345 -172.850083 
L 664.058451 -178.858972 
L 660.593556 -182.863079 
L 657.128661 -183.267982 
L 653.663766 -186.344088 
L 650.198872 -185.171731 
L 646.733977 -181.312124 
L 643.269082 -178.968068 
L 639.804188 -180.593246 
L 636.339293 -184.277159 
L 632.874398 -184.67159 
L 629.409503 -193.264038 
L 625.944609 -194.647923 
L 622.479714 -191.842292 
L 619.014819 -190.647338 
L 615.549924 -188.644987 
L 612.08503 -187.257466 
L 608.620135 -185.363989 
L 605.15524 -185.301014 
L 601.690345 -178.196943 
L 598.225451 -175.446345 
L 594.760556 -174.826155 
L 591.295661 -179.17454 
L 587.830766 -170.27849 
L 584.365872 -163.861956 
L 580.900977 -161.973321 
L 577.436082 -159.585747 
L 573.971188 -157.43457 
L 570.506293 -158.004413 
L 567.041398 -157.725632 
L 563.576503 -155.955096 
L 560.111609 -157.866667 
L 556.646714 -155.884531 
L 553.181819 -157.96375 
L 549.716924 -157.678937 
L 546.25203 -156.831068 
L 542.787135 -158.401627 
L 539.32224 -155.887305 
L 535.857345 -154.05316 
L 532.392451 -155.284223 
L 528.927556 -154.772919 
L 525.462661 -155.592897 
L 521.997766 -154.241836 
L 518.532872 -154.065561 
L 515.067977 -155.261595 
L 511.603082 -159.373564 
L 508.138188 -154.078457 
L 504.673293 -154.743957 
L 501.208398 -153.207618 
L 497.743503 -156.32885 
L 494.278609 -157.902229 
L 490.813714 -154.440781 
L 487.348819 -156.478322 
L 483.883924 -154.941367 
L 480.41903 -152.018575 
L 476.954135 -151.085589 
L 473.48924 -151.362152 
L 470.024345 -151.235629 
L 466.559451 -157.693739 
L 463.094556 -159.237684 
L 459.629661 -161.602282 
L 456.164766 -161.28423 
L 452.699872 -160.509481 
L 449.234977 -161.751371 
L 445.770082 -163.225052 
L 442.305187 -155.352446 
L 438.840293 -156.882149 
L 435.375398 -157.316095 
L 431.910503 -158.0954 
L 428.445609 -158.646473 
L 424.980714 -158.81611 
L 421.515819 -157.228275 
L 418.050924 -159.006972 
L 414.58603 -161.618453 
L 411.121135 -161.113671 
L 407.65624 -161.408375 
L 404.191345 -160.627696 
L 400.726451 -161.664954 
L 397.261556 -164.590886 
L 393.796661 -163.800155 
L 390.331766 -158.597587 
L 386.866872 -154.996756 
L 383.401977 -154.78915 
L 379.937082 -157.337469 
L 376.472188 -157.336462 
L 373.007293 -154.683442 
L 369.542398 -152.714934 
L 366.077503 -154.340749 
L 362.612609 -153.221384 
L 359.147714 -156.16305 
L 355.682819 -154.346138 
L 352.217924 -156.745055 
L 348.75303 -154.502199 
L 345.288135 -153.922842 
L 341.82324 -154.750394 
L 338.358345 -154.548429 
L 334.893451 -155.361642 
L 331.428556 -156.16222 
L 327.963661 -157.637963 
L 324.498766 -155.537082 
L 321.033872 -154.211553 
L 317.568977 -153.800555 
L 314.104082 -153.581031 
L 310.639187 -153.15978 
L 307.174293 -152.92282 
L 303.709398 -152.11727 
L 300.244503 -154.043632 
L 296.779609 -151.582972 
L 293.314714 -151.083989 
L 289.849819 -151.366007 
L 286.384924 -151.971504 
L 282.92003 -152.591476 
L 279.455135 -153.402665 
L 275.99024 -153.941069 
L 272.525345 -152.571019 
L 269.060451 -155.069154 
L 265.595556 -158.302896 
L 262.130661 -156.957468 
L 258.665766 -152.714019 
L 255.200872 -153.533847 
L 251.735977 -158.204522 
L 248.271082 -155.915199 
L 244.806187 -161.630902 
L 241.341293 -160.065721 
L 237.876398 -158.889315 
L 234.411503 -160.15444 
L 230.946609 -159.942008 
L 227.481714 -160.676697 
L 224.016819 -162.256582 
L 220.551924 -162.777015 
L 217.08703 -161.426752 
L 213.622135 -161.863919 
L 210.15724 -162.914982 
L 206.692345 -163.526285 
L 203.227451 -162.576539 
L 199.762556 -165.755166 
L 196.297661 -161.306539 
L 192.832766 -156.185335 
L 189.367872 -155.256423 
L 185.902977 -155.268765 
L 182.438082 -155.258914 
L 178.973187 -156.05938 
L 175.508293 -154.598843 
L 172.043398 -155.340773 
L 168.578503 -155.745311 
L 165.113609 -156.091194 
L 161.648714 -154.714798 
L 158.183819 -154.493699 
L 154.718924 -155.255693 
L 151.25403 -154.024155 
L 147.789135 -155.395731 
L 144.32424 -156.891171 
L 140.859345 -156.98058 
L 137.394451 -158.213651 
L 133.929556 -159.67593 
L 130.464661 -159.047017 
L 126.999766 -157.798134 
L 123.534872 -157.594179 
L 120.069977 -156.673298 
L 116.605082 -157.812942 
L 113.140187 -157.792996 
L 109.675293 -155.836393 
L 106.210398 -155.429525 
L 102.745503 -155.007968 
L 99.280609 -155.458102 
L 95.815714 -154.097234 
L 92.350819 -156.7296 
L 88.885924 -158.06025 
L 85.42103 -154.389047 
L 81.956135 -153.796776 
L 78.49124 -154.507608 
L 75.026345 -154.050046 
L 71.561451 -150.556365 
L 68.096556 -150.076922 
L 64.631661 -150.137625 
L 61.166766 -151.23189 
L 57.701872 -151.937809 
L 54.236977 -150.08796 
L 50.772082 -150.947942 
L 47.307188 -152.119107 
z
" style="stroke: #808080; stroke-opacity: 0.7"/>
    </defs>
    <g clip-path="url(#p93e55762d6)">
     <use xlink:href="#ma386429afa" x="0" y="424.5775" style="fill: #808080; fill-opacity: 0.7; stroke: #808080; stroke-opacity: 0.7"/>
    </g>
   </g>
   <g id="line2d_31">
    <path d="M 47.307188 312.0593 
L 50.772082 339.349528 
L 54.236977 294.544892 
L 57.701872 301.821692 
L 61.166766 303.965575 
L 64.631661 288.806759 
L 68.096556 254.594887 
L 71.561451 271.774815 
L 75.026345 252.736321 
L 78.49124 266.034976 
L 81.956135 253.836771 
L 85.42103 251.914919 
L 88.885924 191.342089 
L 92.350819 174.424544 
L 95.815714 219.545563 
L 99.280609 262.809526 
L 102.745503 243.075789 
L 106.210398 321.440108 
L 109.675293 280.682254 
L 113.140187 253.600909 
L 116.605082 261.881911 
L 120.069977 267.829759 
L 123.534872 225.012895 
L 126.999766 243.120967 
L 130.464661 246.509561 
L 133.929556 261.04545 
L 137.394451 254.436648 
L 140.859345 251.825816 
L 144.32424 255.649712 
L 147.789135 247.631534 
L 151.25403 221.359401 
L 154.718924 232.097976 
L 158.183819 238.072572 
L 161.648714 271.872052 
L 165.113609 247.032537 
L 168.578503 231.15802 
L 172.043398 241.4991 
L 175.508293 266.62703 
L 178.973187 259.462352 
L 182.438082 256.840933 
L 185.902977 237.052074 
L 189.367872 228.645631 
L 192.832766 283.487239 
L 196.297661 275.640829 
L 199.762556 280.436314 
L 203.227451 258.967958 
L 206.692345 287.780892 
L 210.15724 303.79148 
L 213.622135 301.571475 
L 217.08703 315.878131 
L 220.551924 307.314564 
L 224.016819 310.000807 
L 227.481714 309.63231 
L 230.946609 300.802271 
L 234.411503 302.631599 
L 237.876398 303.511004 
L 241.341293 317.545248 
L 244.806187 303.803871 
L 248.271082 339.696492 
L 251.735977 300.649153 
L 255.200872 320.084731 
L 258.665766 299.218812 
L 262.130661 293.223164 
L 265.595556 296.317579 
L 269.060451 309.56561 
L 272.525345 303.950266 
L 275.99024 309.538598 
L 279.455135 323.957318 
L 282.92003 309.040048 
L 286.384924 310.855844 
L 289.849819 323.987868 
L 293.314714 313.854553 
L 296.779609 305.324864 
L 300.244503 261.548936 
L 303.709398 266.980254 
L 307.174293 282.540291 
L 310.639187 300.843885 
L 314.104082 291.538062 
L 317.568977 250.613256 
L 321.033872 276.527004 
L 324.498766 282.65616 
L 327.963661 279.276658 
L 331.428556 274.460359 
L 334.893451 261.741635 
L 338.358345 286.571187 
L 341.82324 252.238941 
L 345.288135 250.23012 
L 348.75303 237.581822 
L 352.217924 265.257292 
L 355.682819 263.094183 
L 359.147714 217.805473 
L 362.612609 267.972116 
L 366.077503 274.046749 
L 369.542398 265.330877 
L 373.007293 289.397375 
L 376.472188 277.919743 
L 379.937082 274.489662 
L 383.401977 286.205453 
L 386.866872 289.881182 
L 390.331766 302.7442 
L 393.796661 288.578366 
L 397.261556 240.40755 
L 400.726451 266.031007 
L 404.191345 273.684633 
L 407.65624 289.090839 
L 411.121135 280.542707 
L 414.58603 287.426115 
L 421.515819 300.57379 
L 424.980714 315.327324 
L 428.445609 282.629707 
L 431.910503 271.081445 
L 435.375398 281.614509 
L 438.840293 298.913512 
L 442.305187 272.295659 
L 445.770082 289.221572 
L 449.234977 275.7739 
L 452.699872 281.680977 
L 456.164766 254.328313 
L 459.629661 287.012537 
L 466.559451 324.623412 
L 470.024345 295.862729 
L 473.48924 283.784205 
L 476.954135 297.1375 
L 480.41903 297.189193 
L 483.883924 267.944377 
L 487.348819 311.519666 
L 490.813714 309.7292 
L 494.278609 321.759707 
L 497.743503 349.127801 
L 501.208398 341.928192 
L 504.673293 322.607142 
L 508.138188 309.352517 
L 511.603082 304.467544 
L 515.067977 303.472423 
L 518.532872 263.447453 
L 521.997766 234.576791 
L 525.462661 238.57151 
L 528.927556 239.814734 
L 532.392451 264.14305 
L 535.857345 283.3509 
L 539.32224 293.649864 
L 542.787135 254.067439 
L 546.25203 268.753164 
L 549.716924 280.614421 
L 553.181819 283.679214 
L 556.646714 265.766062 
L 560.111609 233.032942 
L 563.576503 280.420135 
L 567.041398 282.239738 
L 570.506293 283.860835 
L 573.971188 302.232089 
L 577.436082 302.286725 
L 580.900977 291.937096 
L 584.365872 246.831946 
L 587.830766 266.00358 
L 591.295661 240.497679 
L 594.760556 261.665398 
L 598.225451 293.220573 
L 601.690345 293.458838 
L 605.15524 272.119829 
L 608.620135 199.665699 
L 612.08503 263.628221 
L 615.549924 246.044386 
L 619.014819 269.079187 
L 622.479714 279.496761 
L 625.944609 269.606781 
L 632.874398 288.374587 
L 636.339293 290.584759 
L 639.804188 257.538096 
L 643.269082 264.844003 
L 646.733977 269.230418 
L 650.198872 218.328846 
L 653.663766 257.030658 
L 657.128661 259.690309 
L 660.593556 286.927745 
L 664.058451 264.636163 
L 667.523345 269.396559 
L 670.98824 254.780796 
L 674.453135 245.197909 
L 677.91803 265.984513 
L 681.382924 251.832883 
L 684.847819 256.016882 
L 688.312714 248.540394 
L 691.777609 248.810635 
L 695.242503 269.322962 
L 698.707398 273.054856 
L 702.172293 216.465693 
L 705.637188 215.142779 
L 705.637188 215.142779 
" clip-path="url(#p93e55762d6)" style="fill: none; stroke: #ff8c00; stroke-width: 2.3; stroke-linecap: square"/>
   </g>
   <g id="line2d_32">
    <path d="M 282.92003 384.117812 
L 282.92003 23.837812 
" clip-path="url(#p93e55762d6)" style="fill: none; stroke-dasharray: 5.55,2.4; stroke-dashoffset: 0; stroke: #808080; stroke-width: 1.5"/>
   </g>
   <g id="line2d_33">
    <path d="M 483.883924 384.117812 
L 483.883924 23.837812 
" clip-path="url(#p93e55762d6)" style="fill: none; stroke-dasharray: 5.55,2.4; stroke-dashoffset: 0; stroke: #808080; stroke-width: 1.5"/>
   </g>
   <g id="patch_3">
    <path d="M 47.307188 384.117812 
L 47.307188 23.837812 
" style="fill: none; stroke: #000000; stroke-width: 0.8; stroke-linejoin: miter; stroke-linecap: square"/>
   </g>
   <g id="patch_4">
    <path d="M 705.637188 384.117812 
L 705.637188 23.837812 
" style="fill: none; stroke: #000000; stroke-width: 0.8; stroke-linejoin: miter; stroke-linecap: square"/>
   </g>
   <g id="patch_5">
    <path d="M 47.307188 384.117812 
L 705.637188 384.117812 
" style="fill: none; stroke: #000000; stroke-width: 0.8; stroke-linejoin: miter; stroke-linecap: square"/>
   </g>
   <g id="patch_6">
    <path d="M 47.307188 23.837812 
L 705.637188 23.837812 
" style="fill: none; stroke: #000000; stroke-width: 0.8; stroke-linejoin: miter; stroke-linecap: square"/>
   </g>
   <g id="text_18">
    <!-- Facial trace: Control group -->
    <g transform="translate(284.040469 17.837812) scale(0.14 -0.14)">
     <defs>
      <path id="DejaVuSans-46" d="M 628 4666 
L 3309 4666 
L 3309 4134 
L 1259 4134 
L 1259 2759 
L 3109 2759 
L 3109 2228 
L 1259 2228 
L 1259 0 
L 628 0 
L 628 4666 
z
" transform="scale(0.015625)"/>
      <path id="DejaVuSans-63" d="M 3122 3366 
L 3122 2828 
Q 2878 2963 2633 3030 
Q 2388 3097 2138 3097 
Q 1578 3097 1268 2742 
Q 959 2388 959 1747 
Q 959 1106 1268 751 
Q 1578 397 2138 397 
Q 2388 397 2633 464 
Q 2878 531 3122 666 
L 3122 134 
Q 2881 22 2623 -34 
Q 2366 -91 2075 -91 
Q 1284 -91 818 406 
Q 353 903 353 1747 
Q 353 2603 823 3093 
Q 1294 3584 2113 3584 
Q 2378 3584 2631 3529 
Q 2884 3475 3122 3366 
z
" transform="scale(0.015625)"/>
      <path id="DejaVuSans-6c" d="M 603 4863 
L 1178 4863 
L 1178 0 
L 603 0 
L 603 4863 
z
" transform="scale(0.015625)"/>
      <path id="DejaVuSans-72" d="M 2631 2963 
Q 2534 3019 2420 3045 
Q 2306 3072 2169 3072 
Q 1681 3072 1420 2755 
Q 1159 2438 1159 1844 
L 1159 0 
L 581 0 
L 581 3500 
L 1159 3500 
L 1159 2956 
Q 1341 3275 1631 3429 
Q 1922 3584 2338 3584 
Q 2397 3584 2469 3576 
Q 2541 3569 2628 3553 
L 2631 2963 
z
" transform="scale(0.015625)"/>
      <path id="DejaVuSans-3a" d="M 750 794 
L 1409 794 
L 1409 0 
L 750 0 
L 750 794 
z
M 750 3309 
L 1409 3309 
L 1409 2516 
L 750 2516 
L 750 3309 
z
" transform="scale(0.015625)"/>
      <path id="DejaVuSans-43" d="M 4122 4306 
L 4122 3641 
Q 3803 3938 3442 4084 
Q 3081 4231 2675 4231 
Q 1875 4231 1450 3742 
Q 1025 3253 1025 2328 
Q 1025 1406 1450 917 
Q 1875 428 2675 428 
Q 3081 428 3442 575 
Q 3803 722 4122 1019 
L 4122 359 
Q 3791 134 3420 21 
Q 3050 -91 2638 -91 
Q 1578 -91 968 557 
Q 359 1206 359 2328 
Q 359 3453 968 4101 
Q 1578 4750 2638 4750 
Q 3056 4750 3426 4639 
Q 3797 4528 4122 4306 
z
" transform="scale(0.015625)"/>
      <path id="DejaVuSans-6f" d="M 1959 3097 
Q 1497 3097 1228 2736 
Q 959 2375 959 1747 
Q 959 1119 1226 758 
Q 1494 397 1959 397 
Q 2419 397 2687 759 
Q 2956 1122 2956 1747 
Q 2956 2369 2687 2733 
Q 2419 3097 1959 3097 
z
M 1959 3584 
Q 2709 3584 3137 3096 
Q 3566 2609 3566 1747 
Q 3566 888 3137 398 
Q 2709 -91 1959 -91 
Q 1206 -91 779 398 
Q 353 888 353 1747 
Q 353 2609 779 3096 
Q 1206 3584 1959 3584 
z
" transform="scale(0.015625)"/>
      <path id="DejaVuSans-67" d="M 2906 1791 
Q 2906 2416 2648 2759 
Q 2391 3103 1925 3103 
Q 1463 3103 1205 2759 
Q 947 2416 947 1791 
Q 947 1169 1205 825 
Q 1463 481 1925 481 
Q 2391 481 2648 825 
Q 2906 1169 2906 1791 
z
M 3481 434 
Q 3481 -459 3084 -895 
Q 2688 -1331 1869 -1331 
Q 1566 -1331 1297 -1286 
Q 1028 -1241 775 -1147 
L 775 -588 
Q 1028 -725 1275 -790 
Q 1522 -856 1778 -856 
Q 2344 -856 2625 -561 
Q 2906 -266 2906 331 
L 2906 616 
Q 2728 306 2450 153 
Q 2172 0 1784 0 
Q 1141 0 747 490 
Q 353 981 353 1791 
Q 353 2603 747 3093 
Q 1141 3584 1784 3584 
Q 2172 3584 2450 3431 
Q 2728 3278 2906 2969 
L 2906 3500 
L 3481 3500 
L 3481 434 
z
" transform="scale(0.015625)"/>
      <path id="DejaVuSans-75" d="M 544 1381 
L 544 3500 
L 1119 3500 
L 1119 1403 
Q 1119 906 1312 657 
Q 1506 409 1894 409 
Q 2359 409 2629 706 
Q 2900 1003 2900 1516 
L 2900 3500 
L 3475 3500 
L 3475 0 
L 2900 0 
L 2900 538 
Q 2691 219 2414 64 
Q 2138 -91 1772 -91 
Q 1169 -91 856 284 
Q 544 659 544 1381 
z
M 1991 3584 
L 1991 3584 
z
" transform="scale(0.015625)"/>
      <path id="DejaVuSans-70" d="M 1159 525 
L 1159 -1331 
L 581 -1331 
L 581 3500 
L 1159 3500 
L 1159 2969 
Q 1341 3281 1617 3432 
Q 1894 3584 2278 3584 
Q 2916 3584 3314 3078 
Q 3713 2572 3713 1747 
Q 3713 922 3314 415 
Q 2916 -91 2278 -91 
Q 1894 -91 1617 61 
Q 1341 213 1159 525 
z
M 3116 1747 
Q 3116 2381 2855 2742 
Q 2594 3103 2138 3103 
Q 1681 3103 1420 2742 
Q 1159 2381 1159 1747 
Q 1159 1113 1420 752 
Q 1681 391 2138 391 
Q 2594 391 2855 752 
Q 3116 1113 3116 1747 
z
" transform="scale(0.015625)"/>
     </defs>
     <use xlink:href="#DejaVuSans-46"/>
     <use xlink:href="#DejaVuSans-61" transform="translate(48.394531 0)"/>
     <use xlink:href="#DejaVuSans-63" transform="translate(109.673828 0)"/>
     <use xlink:href="#DejaVuSans-69" transform="translate(164.654297 0)"/>
     <use xlink:href="#DejaVuSans-61" transform="translate(192.4375 0)"/>
     <use xlink:href="#DejaVuSans-6c" transform="translate(253.716797 0)"/>
     <use xlink:href="#DejaVuSans-20" transform="translate(281.5 0)"/>
     <use xlink:href="#DejaVuSans-74" transform="translate(313.287109 0)"/>
     <use xlink:href="#DejaVuSans-72" transform="translate(352.496094 0)"/>
     <use xlink:href="#DejaVuSans-61" transform="translate(393.609375 0)"/>
     <use xlink:href="#DejaVuSans-63" transform="translate(454.888672 0)"/>
     <use xlink:href="#DejaVuSans-65" transform="translate(509.869141 0)"/>
     <use xlink:href="#DejaVuSans-3a" transform="translate(571.392578 0)"/>
     <use xlink:href="#DejaVuSans-20" transform="translate(605.083984 0)"/>
     <use xlink:href="#DejaVuSans-43" transform="translate(636.871094 0)"/>
     <use xlink:href="#DejaVuSans-6f" transform="translate(706.695312 0)"/>
     <use xlink:href="#DejaVuSans-6e" transform="translate(767.876953 0)"/>
     <use xlink:href="#DejaVuSans-74" transform="translate(831.255859 0)"/>
     <use xlink:href="#DejaVuSans-72" transform="translate(870.464844 0)"/>
     <use xlink:href="#DejaVuSans-6f" transform="translate(909.328125 0)"/>
     <use xlink:href="#DejaVuSans-6c" transform="translate(970.509766 0)"/>
     <use xlink:href="#DejaVuSans-20" transform="translate(998.292969 0)"/>
     <use xlink:href="#DejaVuSans-67" transform="translate(1030.080078 0)"/>
     <use xlink:href="#DejaVuSans-72" transform="translate(1093.556641 0)"/>
     <use xlink:href="#DejaVuSans-6f" transform="translate(1132.419922 0)"/>
     <use xlink:href="#DejaVuSans-75" transform="translate(1193.601562 0)"/>
     <use xlink:href="#DejaVuSans-70" transform="translate(1256.980469 0)"/>
    </g>
   </g>
   <g id="legend_1">
    <g id="patch_7">
     <path d="M 551.080313 42.096094 
L 573.080313 42.096094 
L 573.080313 34.396094 
L 551.080313 34.396094 
z
" style="fill: #d3d3d3; fill-opacity: 0.5; stroke: #d3d3d3; stroke-opacity: 0.5; stroke-linejoin: miter"/>
    </g>
    <g id="text_19">
     <!-- Control group ±2 SD -->
     <g transform="translate(581.880313 42.096094) scale(0.11 -0.11)">
      <defs>
       <path id="DejaVuSans-b1" d="M 2944 4013 
L 2944 2803 
L 4684 2803 
L 4684 2272 
L 2944 2272 
L 2944 1063 
L 2419 1063 
L 2419 2272 
L 678 2272 
L 678 2803 
L 2419 2803 
L 2419 4013 
L 2944 4013 
z
M 678 531 
L 4684 531 
L 4684 0 
L 678 0 
L 678 531 
z
" transform="scale(0.015625)"/>
       <path id="DejaVuSans-53" d="M 3425 4513 
L 3425 3897 
Q 3066 4069 2747 4153 
Q 2428 4238 2131 4238 
Q 1616 4238 1336 4038 
Q 1056 3838 1056 3469 
Q 1056 3159 1242 3001 
Q 1428 2844 1947 2747 
L 2328 2669 
Q 3034 2534 3370 2195 
Q 3706 1856 3706 1288 
Q 3706 609 3251 259 
Q 2797 -91 1919 -91 
Q 1588 -91 1214 -16 
Q 841 59 441 206 
L 441 856 
Q 825 641 1194 531 
Q 1563 422 1919 422 
Q 2459 422 2753 634 
Q 3047 847 3047 1241 
Q 3047 1584 2836 1778 
Q 2625 1972 2144 2069 
L 1759 2144 
Q 1053 2284 737 2584 
Q 422 2884 422 3419 
Q 422 4038 858 4394 
Q 1294 4750 2059 4750 
Q 2388 4750 2728 4690 
Q 3069 4631 3425 4513 
z
" transform="scale(0.015625)"/>
       <path id="DejaVuSans-44" d="M 1259 4147 
L 1259 519 
L 2022 519 
Q 2988 519 3436 956 
Q 3884 1394 3884 2338 
Q 3884 3275 3436 3711 
Q 2988 4147 2022 4147 
L 1259 4147 
z
M 628 4666 
L 1925 4666 
Q 3281 4666 3915 4102 
Q 4550 3538 4550 2338 
Q 4550 1131 3912 565 
Q 3275 0 1925 0 
L 628 0 
L 628 4666 
z
" transform="scale(0.015625)"/>
      </defs>
      <use xlink:href="#DejaVuSans-43"/>
      <use xlink:href="#DejaVuSans-6f" transform="translate(69.824219 0)"/>
      <use xlink:href="#DejaVuSans-6e" transform="translate(131.005859 0)"/>
      <use xlink:href="#DejaVuSans-74" transform="translate(194.384766 0)"/>
      <use xlink:href="#DejaVuSans-72" transform="translate(233.59375 0)"/>
      <use xlink:href="#DejaVuSans-6f" transform="translate(272.457031 0)"/>
      <use xlink:href="#DejaVuSans-6c" transform="translate(333.638672 0)"/>
      <use xlink:href="#DejaVuSans-20" transform="translate(361.421875 0)"/>
      <use xlink:href="#DejaVuSans-67" transform="translate(393.208984 0)"/>
      <use xlink:href="#DejaVuSans-72" transform="translate(456.685547 0)"/>
      <use xlink:href="#DejaVuSans-6f" transform="translate(495.548828 0)"/>
      <use xlink:href="#DejaVuSans-75" transform="translate(556.730469 0)"/>
      <use xlink:href="#DejaVuSans-70" transform="translate(620.109375 0)"/>
      <use xlink:href="#DejaVuSans-20" transform="translate(683.585938 0)"/>
      <use xlink:href="#DejaVuSans-b1" transform="translate(715.373047 0)"/>
      <use xlink:href="#DejaVuSans-32" transform="translate(799.162109 0)"/>
      <use xlink:href="#DejaVuSans-20" transform="translate(862.785156 0)"/>
      <use xlink:href="#DejaVuSans-53" transform="translate(894.572266 0)"/>
      <use xlink:href="#DejaVuSans-44" transform="translate(958.048828 0)"/>
     </g>
    </g>
    <g id="patch_8">
     <path d="M 551.080313 58.242031 
L 573.080313 58.242031 
L 573.080313 50.542031 
L 551.080313 50.542031 
z
" style="fill: #808080; fill-opacity: 0.7; stroke: #808080; stroke-opacity: 0.7; stroke-linejoin: miter"/>
    </g>
    <g id="text_20">
     <!-- Control group ±1 SD -->
     <g transform="translate(581.880313 58.242031) scale(0.11 -0.11)">
      <use xlink:href="#DejaVuSans-43"/>
      <use xlink:href="#DejaVuSans-6f" transform="translate(69.824219 0)"/>
      <use xlink:href="#DejaVuSans-6e" transform="translate(131.005859 0)"/>
      <use xlink:href="#DejaVuSans-74" transform="translate(194.384766 0)"/>
      <use xlink:href="#DejaVuSans-72" transform="translate(233.59375 0)"/>
      <use xlink:href="#DejaVuSans-6f" transform="translate(272.457031 0)"/>
      <use xlink:href="#DejaVuSans-6c" transform="translate(333.638672 0)"/>
      <use xlink:href="#DejaVuSans-20" transform="translate(361.421875 0)"/>
      <use xlink:href="#DejaVuSans-67" transform="translate(393.208984 0)"/>
      <use xlink:href="#DejaVuSans-72" transform="translate(456.685547 0)"/>
      <use xlink:href="#DejaVuSans-6f" transform="translate(495.548828 0)"/>
      <use xlink:href="#DejaVuSans-75" transform="translate(556.730469 0)"/>
      <use xlink:href="#DejaVuSans-70" transform="translate(620.109375 0)"/>
      <use xlink:href="#DejaVuSans-20" transform="translate(683.585938 0)"/>
      <use xlink:href="#DejaVuSans-b1" transform="translate(715.373047 0)"/>
      <use xlink:href="#DejaVuSans-31" transform="translate(799.162109 0)"/>
      <use xlink:href="#DejaVuSans-20" transform="translate(862.785156 0)"/>
      <use xlink:href="#DejaVuSans-53" transform="translate(894.572266 0)"/>
      <use xlink:href="#DejaVuSans-44" transform="translate(958.048828 0)"/>
     </g>
    </g>
    <g id="line2d_34">
     <path d="M 551.080313 70.537969 
L 562.080313 70.537969 
L 573.080313 70.537969 
" style="fill: none; stroke: #ff8c00; stroke-width: 2.3; stroke-linecap: square"/>
    </g>
    <g id="text_21">
     <!-- Patient -->
     <g transform="translate(581.880313 74.387969) scale(0.11 -0.11)">
      <defs>
       <path id="DejaVuSans-50" d="M 1259 4147 
L 1259 2394 
L 2053 2394 
Q 2494 2394 2734 2622 
Q 2975 2850 2975 3272 
Q 2975 3691 2734 3919 
Q 2494 4147 2053 4147 
L 1259 4147 
z
M 628 4666 
L 2053 4666 
Q 2838 4666 3239 4311 
Q 3641 3956 3641 3272 
Q 3641 2581 3239 2228 
Q 2838 1875 2053 1875 
L 1259 1875 
L 1259 0 
L 628 0 
L 628 4666 
z
" transform="scale(0.015625)"/>
      </defs>
      <use xlink:href="#DejaVuSans-50"/>
      <use xlink:href="#DejaVuSans-61" transform="translate(55.802734 0)"/>
      <use xlink:href="#DejaVuSans-74" transform="translate(117.082031 0)"/>
      <use xlink:href="#DejaVuSans-69" transform="translate(156.291016 0)"/>
      <use xlink:href="#DejaVuSans-65" transform="translate(184.074219 0)"/>
      <use xlink:href="#DejaVuSans-6e" transform="translate(245.597656 0)"/>
      <use xlink:href="#DejaVuSans-74" transform="translate(308.976562 0)"/>
     </g>
    </g>
   </g>
  </g>
 </g>
 <defs>
  <clipPath id="p93e55762d6">
   <rect x="47.307188" y="23.837812" width="658.33" height="360.28"/>
  </clipPath>
 </defs>
</svg>
