<?xml version="1.0" encoding="utf-8" standalone="no"?>
<!DOCTYPE svg PUBLIC "-//W3C//DTD SVG 1.1//EN"
  "http://www.w3.org/Graphics/SVG/1.1/DTD/svg11.dtd">
<svg xmlns:xlink="http://www.w3.org/1999/xlink" width="712.837188pt" height="424.5775pt" viewBox="0 0 712.837188 424.5775" xmlns="http://www.w3.org/2000/svg" version="1.1">
 <metadata>
  <rdf:RDF xmlns:dc="http://purl.org/dc/elements/1.1/" xmlns:cc="http://creativecommons.org/ns#" xmlns:rdf="http://www.w3.org/1999/02/22-rdf-syntax-ns#">
   <cc:Work>
    <dc:type rdf:resource="http://purl.org/dc/dcmitype/StillImage"/>
    <dc:date>2026-06-23T21:47:14.179839</dc:date>
    <dc:format>image/svg+xml</dc:format>
    <dc:creator>
     <cc:Agent>
      <dc:title>Matplotlib v3.10.1, https://matplotlib.org/</dc:title>
     </cc:Agent>
    </dc:creator>
   </cc:Work>
  </rdf:RDF>
 </metadata>
 <defs>
  <style type="text/css">*{stroke-linejoin: round; stroke-linecap: butt}</style>
 </defs>
 <g id="figure_1">
  <g id="patch_1">
   <path d="M 0 424.5775 
L 712.837188 424.5775 
L 712.837188 0 
L 0 0 
z
" style="fill: #ffffff"/>
  </g>
  <g id="axes_1">
   <g id="patch_2">
    <path d="M 47.307188 384.117812 
L 705.637188 384.117812 
L 705.637188 23.837812 
L 47.307188 23.837812 
z
" style="fill: #ffffff"/>
   </g>
   <g id="matplotlib.axis_1">
    <g id="xtick_1">
     <g id="line2d_1">
      <path d="M 47.307188 384.117812 
L 47.307188 23.837812 
" clip-path="url(#p77afce2f53)" style="fill: none; stroke: #b0b0b0; stroke-opacity: 0.2; stroke-width: 0.6; stroke-linecap: square"/>
     </g>
     <g id="line2d_2">
      <defs>
       <path id="m50cb16ea7b" d="M 0 0 
L 0 3.5 
" style="stroke: #000000; stroke-width: 0.8"/>
      </defs>
      <g>
       <use xlink:href="#m50cb16ea7b" x="47.307188" y="384.117812" style="stroke: #000000; stroke-width: 0.8"/>
      </g>
     </g>
     <g id="text_1">
      <!-- 0 -->
      <g transform="translate(43.807813 399.476094) scale(0.11 -0.11)">
       <defs>
        <path id="DejaVuSans-30" d="M 2034 4250 
Q 1547 4250 1301 3770 
Q 1056 3291 1056 2328 
Q 1056 1369 1301 889 
Q 1547 409 2034 409 
Q 2525 409 2770 889 
Q 3016 1369 3016 2328 
Q 3016 3291 2770 3770 
Q 2525 4250 2034 4250 
z
M 2034 4750 
Q 2819 4750 3233 4129 
Q 3647 3509 3647 2328 
Q 3647 1150 3233 529 
Q 2819 -91 2034 -91 
Q 1250 -91 836 529 
Q 422 1150 422 2328 
Q 422 3509 836 4129 
Q 1250 4750 2034 4750 
z
" transform="scale(0.015625)"/>
       </defs>
       <use xlink:href="#DejaVuSans-30"/>
      </g>
     </g>
    </g>
    <g id="xtick_2">
     <g id="line2d_3">
      <path d="M 134.387875 384.117812 
L 134.387875 23.837812 
" clip-path="url(#p77afce2f53)" style="fill: none; stroke: #b0b0b0; stroke-opacity: 0.2; stroke-width: 0.6; stroke-linecap: square"/>
     </g>
     <g id="line2d_4">
      <g>
       <use xlink:href="#m50cb16ea7b" x="134.387875" y="384.117812" style="stroke: #000000; stroke-width: 0.8"/>
      </g>
     </g>
     <g id="text_2">
      <!-- 25 -->
      <g transform="translate(127.389125 399.476094) scale(0.11 -0.11)">
       <defs>
        <path id="DejaVuSans-32" d="M 1228 531 
L 3431 531 
L 3431 0 
L 469 0 
L 469 531 
Q 828 903 1448 1529 
Q 2069 2156 2228 2338 
Q 2531 2678 2651 2914 
Q 2772 3150 2772 3378 
Q 2772 3750 2511 3984 
Q 2250 4219 1831 4219 
Q 1534 4219 1204 4116 
Q 875 4013 500 3803 
L 500 4441 
Q 881 4594 1212 4672 
Q 1544 4750 1819 4750 
Q 2544 4750 2975 4387 
Q 3406 4025 3406 3419 
Q 3406 3131 3298 2873 
Q 3191 2616 2906 2266 
Q 2828 2175 2409 1742 
Q 1991 1309 1228 531 
z
" transform="scale(0.015625)"/>
        <path id="DejaVuSans-35" d="M 691 4666 
L 3169 4666 
L 3169 4134 
L 1269 4134 
L 1269 2991 
Q 1406 3038 1543 3061 
Q 1681 3084 1819 3084 
Q 2600 3084 3056 2656 
Q 3513 2228 3513 1497 
Q 3513 744 3044 326 
Q 2575 -91 1722 -91 
Q 1428 -91 1123 -41 
Q 819 9 494 109 
L 494 744 
Q 775 591 1075 516 
Q 1375 441 1709 441 
Q 2250 441 2565 725 
Q 2881 1009 2881 1497 
Q 2881 1984 2565 2268 
Q 2250 2553 1709 2553 
Q 1456 2553 1204 2497 
Q 953 2441 691 2322 
L 691 4666 
z
" transform="scale(0.015625)"/>
       </defs>
       <use xlink:href="#DejaVuSans-32"/>
       <use xlink:href="#DejaVuSans-35" transform="translate(63.623047 0)"/>
      </g>
     </g>
    </g>
    <g id="xtick_3">
     <g id="line2d_5">
      <path d="M 221.468563 384.117812 
L 221.468563 23.837812 
" clip-path="url(#p77afce2f53)" style="fill: none; stroke: #b0b0b0; stroke-opacity: 0.2; stroke-width: 0.6; stroke-linecap: square"/>
     </g>
     <g id="line2d_6">
      <g>
       <use xlink:href="#m50cb16ea7b" x="221.468563" y="384.117812" style="stroke: #000000; stroke-width: 0.8"/>
      </g>
     </g>
     <g id="text_3">
      <!-- 50 -->
      <g transform="translate(214.469813 399.476094) scale(0.11 -0.11)">
       <use xlink:href="#DejaVuSans-35"/>
       <use xlink:href="#DejaVuSans-30" transform="translate(63.623047 0)"/>
      </g>
     </g>
    </g>
    <g id="xtick_4">
     <g id="line2d_7">
      <path d="M 308.549251 384.117812 
L 308.549251 23.837812 
" clip-path="url(#p77afce2f53)" style="fill: none; stroke: #b0b0b0; stroke-opacity: 0.2; stroke-width: 0.6; stroke-linecap: square"/>
     </g>
     <g id="line2d_8">
      <g>
       <use xlink:href="#m50cb16ea7b" x="308.549251" y="384.117812" style="stroke: #000000; stroke-width: 0.8"/>
      </g>
     </g>
     <g id="text_4">
      <!-- 75 -->
      <g transform="translate(301.550501 399.476094) scale(0.11 -0.11)">
       <defs>
        <path id="DejaVuSans-37" d="M 525 4666 
L 3525 4666 
L 3525 4397 
L 1831 0 
L 1172 0 
L 2766 4134 
L 525 4134 
L 525 4666 
z
" transform="scale(0.015625)"/>
       </defs>
       <use xlink:href="#DejaVuSans-37"/>
       <use xlink:href="#DejaVuSans-35" transform="translate(63.623047 0)"/>
      </g>
     </g>
    </g>
    <g id="xtick_5">
     <g id="line2d_9">
      <path d="M 395.629939 384.117812 
L 395.629939 23.837812 
" clip-path="url(#p77afce2f53)" style="fill: none; stroke: #b0b0b0; stroke-opacity: 0.2; stroke-width: 0.6; stroke-linecap: square"/>
     </g>
     <g id="line2d_10">
      <g>
       <use xlink:href="#m50cb16ea7b" x="395.629939" y="384.117812" style="stroke: #000000; stroke-width: 0.8"/>
      </g>
     </g>
     <g id="text_5">
      <!-- 100 -->
      <g transform="translate(385.131814 399.476094) scale(0.11 -0.11)">
       <defs>
        <path id="DejaVuSans-31" d="M 794 531 
L 1825 531 
L 1825 4091 
L 703 3866 
L 703 4441 
L 1819 4666 
L 2450 4666 
L 2450 531 
L 3481 531 
L 3481 0 
L 794 0 
L 794 531 
z
" transform="scale(0.015625)"/>
       </defs>
       <use xlink:href="#DejaVuSans-31"/>
       <use xlink:href="#DejaVuSans-30" transform="translate(63.623047 0)"/>
       <use xlink:href="#DejaVuSans-30" transform="translate(127.246094 0)"/>
      </g>
     </g>
    </g>
    <g id="xtick_6">
     <g id="line2d_11">
      <path d="M 482.710627 384.117812 
L 482.710627 23.837812 
" clip-path="url(#p77afce2f53)" style="fill: none; stroke: #b0b0b0; stroke-opacity: 0.2; stroke-width: 0.6; stroke-linecap: square"/>
     </g>
     <g id="line2d_12">
      <g>
       <use xlink:href="#m50cb16ea7b" x="482.710627" y="384.117812" style="stroke: #000000; stroke-width: 0.8"/>
      </g>
     </g>
     <g id="text_6">
      <!-- 125 -->
      <g transform="translate(472.212502 399.476094) scale(0.11 -0.11)">
       <use xlink:href="#DejaVuSans-31"/>
       <use xlink:href="#DejaVuSans-32" transform="translate(63.623047 0)"/>
       <use xlink:href="#DejaVuSans-35" transform="translate(127.246094 0)"/>
      </g>
     </g>
    </g>
    <g id="xtick_7">
     <g id="line2d_13">
      <path d="M 569.791314 384.117812 
L 569.791314 23.837812 
" clip-path="url(#p77afce2f53)" style="fill: none; stroke: #b0b0b0; stroke-opacity: 0.2; stroke-width: 0.6; stroke-linecap: square"/>
     </g>
     <g id="line2d_14">
      <g>
       <use xlink:href="#m50cb16ea7b" x="569.791314" y="384.117812" style="stroke: #000000; stroke-width: 0.8"/>
      </g>
     </g>
     <g id="text_7">
      <!-- 150 -->
      <g transform="translate(559.293189 399.476094) scale(0.11 -0.11)">
       <use xlink:href="#DejaVuSans-31"/>
       <use xlink:href="#DejaVuSans-35" transform="translate(63.623047 0)"/>
       <use xlink:href="#DejaVuSans-30" transform="translate(127.246094 0)"/>
      </g>
     </g>
    </g>
    <g id="xtick_8">
     <g id="line2d_15">
      <path d="M 656.872002 384.117812 
L 656.872002 23.837812 
" clip-path="url(#p77afce2f53)" style="fill: none; stroke: #b0b0b0; stroke-opacity: 0.2; stroke-width: 0.6; stroke-linecap: square"/>
     </g>
     <g id="line2d_16">
      <g>
       <use xlink:href="#m50cb16ea7b" x="656.872002" y="384.117812" style="stroke: #000000; stroke-width: 0.8"/>
      </g>
     </g>
     <g id="text_8">
      <!-- 175 -->
      <g transform="translate(646.373877 399.476094) scale(0.11 -0.11)">
       <use xlink:href="#DejaVuSans-31"/>
       <use xlink:href="#DejaVuSans-37" transform="translate(63.623047 0)"/>
       <use xlink:href="#DejaVuSans-35" transform="translate(127.246094 0)"/>
      </g>
     </g>
    </g>
    <g id="text_9">
     <!-- Time (s) -->
     <g transform="translate(352.0775 414.881875) scale(0.12 -0.12)">
      <defs>
       <path id="DejaVuSans-54" d="M -19 4666 
L 3928 4666 
L 3928 4134 
L 2272 4134 
L 2272 0 
L 1638 0 
L 1638 4134 
L -19 4134 
L -19 4666 
z
" transform="scale(0.015625)"/>
       <path id="DejaVuSans-69" d="M 603 3500 
L 1178 3500 
L 1178 0 
L 603 0 
L 603 3500 
z
M 603 4863 
L 1178 4863 
L 1178 4134 
L 603 4134 
L 603 4863 
z
" transform="scale(0.015625)"/>
       <path id="DejaVuSans-6d" d="M 3328 2828 
Q 3544 3216 3844 3400 
Q 4144 3584 4550 3584 
Q 5097 3584 5394 3201 
Q 5691 2819 5691 2113 
L 5691 0 
L 5113 0 
L 5113 2094 
Q 5113 2597 4934 2840 
Q 4756 3084 4391 3084 
Q 3944 3084 3684 2787 
Q 3425 2491 3425 1978 
L 3425 0 
L 2847 0 
L 2847 2094 
Q 2847 2600 2669 2842 
Q 2491 3084 2119 3084 
Q 1678 3084 1418 2786 
Q 1159 2488 1159 1978 
L 1159 0 
L 581 0 
L 581 3500 
L 1159 3500 
L 1159 2956 
Q 1356 3278 1631 3431 
Q 1906 3584 2284 3584 
Q 2666 3584 2933 3390 
Q 3200 3197 3328 2828 
z
" transform="scale(0.015625)"/>
       <path id="DejaVuSans-65" d="M 3597 1894 
L 3597 1613 
L 953 1613 
Q 991 1019 1311 708 
Q 1631 397 2203 397 
Q 2534 397 2845 478 
Q 3156 559 3463 722 
L 3463 178 
Q 3153 47 2828 -22 
Q 2503 -91 2169 -91 
Q 1331 -91 842 396 
Q 353 884 353 1716 
Q 353 2575 817 3079 
Q 1281 3584 2069 3584 
Q 2775 3584 3186 3129 
Q 3597 2675 3597 1894 
z
M 3022 2063 
Q 3016 2534 2758 2815 
Q 2500 3097 2075 3097 
Q 1594 3097 1305 2825 
Q 1016 2553 972 2059 
L 3022 2063 
z
" transform="scale(0.015625)"/>
       <path id="DejaVuSans-20" transform="scale(0.015625)"/>
       <path id="DejaVuSans-28" d="M 1984 4856 
Q 1566 4138 1362 3434 
Q 1159 2731 1159 2009 
Q 1159 1288 1364 580 
Q 1569 -128 1984 -844 
L 1484 -844 
Q 1016 -109 783 600 
Q 550 1309 550 2009 
Q 550 2706 781 3412 
Q 1013 4119 1484 4856 
L 1984 4856 
z
" transform="scale(0.015625)"/>
       <path id="DejaVuSans-73" d="M 2834 3397 
L 2834 2853 
Q 2591 2978 2328 3040 
Q 2066 3103 1784 3103 
Q 1356 3103 1142 2972 
Q 928 2841 928 2578 
Q 928 2378 1081 2264 
Q 1234 2150 1697 2047 
L 1894 2003 
Q 2506 1872 2764 1633 
Q 3022 1394 3022 966 
Q 3022 478 2636 193 
Q 2250 -91 1575 -91 
Q 1294 -91 989 -36 
Q 684 19 347 128 
L 347 722 
Q 666 556 975 473 
Q 1284 391 1588 391 
Q 1994 391 2212 530 
Q 2431 669 2431 922 
Q 2431 1156 2273 1281 
Q 2116 1406 1581 1522 
L 1381 1569 
Q 847 1681 609 1914 
Q 372 2147 372 2553 
Q 372 3047 722 3315 
Q 1072 3584 1716 3584 
Q 2034 3584 2315 3537 
Q 2597 3491 2834 3397 
z
" transform="scale(0.015625)"/>
       <path id="DejaVuSans-29" d="M 513 4856 
L 1013 4856 
Q 1481 4119 1714 3412 
Q 1947 2706 1947 2009 
Q 1947 1309 1714 600 
Q 1481 -109 1013 -844 
L 513 -844 
Q 928 -128 1133 580 
Q 1338 1288 1338 2009 
Q 1338 2731 1133 3434 
Q 928 4138 513 4856 
z
" transform="scale(0.015625)"/>
      </defs>
      <use xlink:href="#DejaVuSans-54"/>
      <use xlink:href="#DejaVuSans-69" transform="translate(57.958984 0)"/>
      <use xlink:href="#DejaVuSans-6d" transform="translate(85.742188 0)"/>
      <use xlink:href="#DejaVuSans-65" transform="translate(183.154297 0)"/>
      <use xlink:href="#DejaVuSans-20" transform="translate(244.677734 0)"/>
      <use xlink:href="#DejaVuSans-28" transform="translate(276.464844 0)"/>
      <use xlink:href="#DejaVuSans-73" transform="translate(315.478516 0)"/>
      <use xlink:href="#DejaVuSans-29" transform="translate(367.578125 0)"/>
     </g>
    </g>
   </g>
   <g id="matplotlib.axis_2">
    <g id="ytick_1">
     <g id="line2d_17">
      <path d="M 47.307188 367.741449 
L 705.637188 367.741449 
" clip-path="url(#p77afce2f53)" style="fill: none; stroke: #b0b0b0; stroke-opacity: 0.2; stroke-width: 0.6; stroke-linecap: square"/>
     </g>
     <g id="line2d_18">
      <defs>
       <path id="m4c1f0f5307" d="M 0 0 
L -3.5 0 
" style="stroke: #000000; stroke-width: 0.8"/>
      </defs>
      <g>
       <use xlink:href="#m4c1f0f5307" x="47.307188" y="367.741449" style="stroke: #000000; stroke-width: 0.8"/>
      </g>
     </g>
     <g id="text_10">
      <!-- 0.0 -->
      <g transform="translate(22.81375 371.920589) scale(0.11 -0.11)">
       <defs>
        <path id="DejaVuSans-2e" d="M 684 794 
L 1344 794 
L 1344 0 
L 684 0 
L 684 794 
z
" transform="scale(0.015625)"/>
       </defs>
       <use xlink:href="#DejaVuSans-30"/>
       <use xlink:href="#DejaVuSans-2e" transform="translate(63.623047 0)"/>
       <use xlink:href="#DejaVuSans-30" transform="translate(95.410156 0)"/>
      </g>
     </g>
    </g>
    <g id="ytick_2">
     <g id="line2d_19">
      <path d="M 47.307188 317.507205 
L 705.637188 317.507205 
" clip-path="url(#p77afce2f53)" style="fill: none; stroke: #b0b0b0; stroke-opacity: 0.2; stroke-width: 0.6; stroke-linecap: square"/>
     </g>
     <g id="line2d_20">
      <g>
       <use xlink:href="#m4c1f0f5307" x="47.307188" y="317.507205" style="stroke: #000000; stroke-width: 0.8"/>
      </g>
     </g>
     <g id="text_11">
      <!-- 0.5 -->
      <g transform="translate(22.81375 321.686345) scale(0.11 -0.11)">
       <use xlink:href="#DejaVuSans-30"/>
       <use xlink:href="#DejaVuSans-2e" transform="translate(63.623047 0)"/>
       <use xlink:href="#DejaVuSans-35" transform="translate(95.410156 0)"/>
      </g>
     </g>
    </g>
    <g id="ytick_3">
     <g id="line2d_21">
      <path d="M 47.307188 267.27296 
L 705.637188 267.27296 
" clip-path="url(#p77afce2f53)" style="fill: none; stroke: #b0b0b0; stroke-opacity: 0.2; stroke-width: 0.6; stroke-linecap: square"/>
     </g>
     <g id="line2d_22">
      <g>
       <use xlink:href="#m4c1f0f5307" x="47.307188" y="267.27296" style="stroke: #000000; stroke-width: 0.8"/>
      </g>
     </g>
     <g id="text_12">
      <!-- 1.0 -->
      <g transform="translate(22.81375 271.452101) scale(0.11 -0.11)">
       <use xlink:href="#DejaVuSans-31"/>
       <use xlink:href="#DejaVuSans-2e" transform="translate(63.623047 0)"/>
       <use xlink:href="#DejaVuSans-30" transform="translate(95.410156 0)"/>
      </g>
     </g>
    </g>
    <g id="ytick_4">
     <g id="line2d_23">
      <path d="M 47.307188 217.038716 
L 705.637188 217.038716 
" clip-path="url(#p77afce2f53)" style="fill: none; stroke: #b0b0b0; stroke-opacity: 0.2; stroke-width: 0.6; stroke-linecap: square"/>
     </g>
     <g id="line2d_24">
      <g>
       <use xlink:href="#m4c1f0f5307" x="47.307188" y="217.038716" style="stroke: #000000; stroke-width: 0.8"/>
      </g>
     </g>
     <g id="text_13">
      <!-- 1.5 -->
      <g transform="translate(22.81375 221.217857) scale(0.11 -0.11)">
       <use xlink:href="#DejaVuSans-31"/>
       <use xlink:href="#DejaVuSans-2e" transform="translate(63.623047 0)"/>
       <use xlink:href="#DejaVuSans-35" transform="translate(95.410156 0)"/>
      </g>
     </g>
    </g>
    <g id="ytick_5">
     <g id="line2d_25">
      <path d="M 47.307188 166.804472 
L 705.637188 166.804472 
" clip-path="url(#p77afce2f53)" style="fill: none; stroke: #b0b0b0; stroke-opacity: 0.2; stroke-width: 0.6; stroke-linecap: square"/>
     </g>
     <g id="line2d_26">
      <g>
       <use xlink:href="#m4c1f0f5307" x="47.307188" y="166.804472" style="stroke: #000000; stroke-width: 0.8"/>
      </g>
     </g>
     <g id="text_14">
      <!-- 2.0 -->
      <g transform="translate(22.81375 170.983612) scale(0.11 -0.11)">
       <use xlink:href="#DejaVuSans-32"/>
       <use xlink:href="#DejaVuSans-2e" transform="translate(63.623047 0)"/>
       <use xlink:href="#DejaVuSans-30" transform="translate(95.410156 0)"/>
      </g>
     </g>
    </g>
    <g id="ytick_6">
     <g id="line2d_27">
      <path d="M 47.307188 116.570227 
L 705.637188 116.570227 
" clip-path="url(#p77afce2f53)" style="fill: none; stroke: #b0b0b0; stroke-opacity: 0.2; stroke-width: 0.6; stroke-linecap: square"/>
     </g>
     <g id="line2d_28">
      <g>
       <use xlink:href="#m4c1f0f5307" x="47.307188" y="116.570227" style="stroke: #000000; stroke-width: 0.8"/>
      </g>
     </g>
     <g id="text_15">
      <!-- 2.5 -->
      <g transform="translate(22.81375 120.749368) scale(0.11 -0.11)">
       <use xlink:href="#DejaVuSans-32"/>
       <use xlink:href="#DejaVuSans-2e" transform="translate(63.623047 0)"/>
       <use xlink:href="#DejaVuSans-35" transform="translate(95.410156 0)"/>
      </g>
     </g>
    </g>
    <g id="ytick_7">
     <g id="line2d_29">
      <path d="M 47.307188 66.335983 
L 705.637188 66.335983 
" clip-path="url(#p77afce2f53)" style="fill: none; stroke: #b0b0b0; stroke-opacity: 0.2; stroke-width: 0.6; stroke-linecap: square"/>
     </g>
     <g id="line2d_30">
      <g>
       <use xlink:href="#m4c1f0f5307" x="47.307188" y="66.335983" style="stroke: #000000; stroke-width: 0.8"/>
      </g>
     </g>
     <g id="text_16">
      <!-- 3.0 -->
      <g transform="translate(22.81375 70.515124) scale(0.11 -0.11)">
       <defs>
        <path id="DejaVuSans-33" d="M 2597 2516 
Q 3050 2419 3304 2112 
Q 3559 1806 3559 1356 
Q 3559 666 3084 287 
Q 2609 -91 1734 -91 
Q 1441 -91 1130 -33 
Q 819 25 488 141 
L 488 750 
Q 750 597 1062 519 
Q 1375 441 1716 441 
Q 2309 441 2620 675 
Q 2931 909 2931 1356 
Q 2931 1769 2642 2001 
Q 2353 2234 1838 2234 
L 1294 2234 
L 1294 2753 
L 1863 2753 
Q 2328 2753 2575 2939 
Q 2822 3125 2822 3475 
Q 2822 3834 2567 4026 
Q 2313 4219 1838 4219 
Q 1578 4219 1281 4162 
Q 984 4106 628 3988 
L 628 4550 
Q 988 4650 1302 4700 
Q 1616 4750 1894 4750 
Q 2613 4750 3031 4423 
Q 3450 4097 3450 3541 
Q 3450 3153 3228 2886 
Q 3006 2619 2597 2516 
z
" transform="scale(0.015625)"/>
       </defs>
       <use xlink:href="#DejaVuSans-33"/>
       <use xlink:href="#DejaVuSans-2e" transform="translate(63.623047 0)"/>
       <use xlink:href="#DejaVuSans-30" transform="translate(95.410156 0)"/>
      </g>
     </g>
    </g>
    <g id="text_17">
     <!-- AU mean intensity -->
     <g transform="translate(16.318125 259.314687) rotate(-90) scale(0.12 -0.12)">
      <defs>
       <path id="DejaVuSans-41" d="M 2188 4044 
L 1331 1722 
L 3047 1722 
L 2188 4044 
z
M 1831 4666 
L 2547 4666 
L 4325 0 
L 3669 0 
L 3244 1197 
L 1141 1197 
L 716 0 
L 50 0 
L 1831 4666 
z
" transform="scale(0.015625)"/>
       <path id="DejaVuSans-55" d="M 556 4666 
L 1191 4666 
L 1191 1831 
Q 1191 1081 1462 751 
Q 1734 422 2344 422 
Q 2950 422 3222 751 
Q 3494 1081 3494 1831 
L 3494 4666 
L 4128 4666 
L 4128 1753 
Q 4128 841 3676 375 
Q 3225 -91 2344 -91 
Q 1459 -91 1007 375 
Q 556 841 556 1753 
L 556 4666 
z
" transform="scale(0.015625)"/>
       <path id="DejaVuSans-61" d="M 2194 1759 
Q 1497 1759 1228 1600 
Q 959 1441 959 1056 
Q 959 750 1161 570 
Q 1363 391 1709 391 
Q 2188 391 2477 730 
Q 2766 1069 2766 1631 
L 2766 1759 
L 2194 1759 
z
M 3341 1997 
L 3341 0 
L 2766 0 
L 2766 531 
Q 2569 213 2275 61 
Q 1981 -91 1556 -91 
Q 1019 -91 701 211 
Q 384 513 384 1019 
Q 384 1609 779 1909 
Q 1175 2209 1959 2209 
L 2766 2209 
L 2766 2266 
Q 2766 2663 2505 2880 
Q 2244 3097 1772 3097 
Q 1472 3097 1187 3025 
Q 903 2953 641 2809 
L 641 3341 
Q 956 3463 1253 3523 
Q 1550 3584 1831 3584 
Q 2591 3584 2966 3190 
Q 3341 2797 3341 1997 
z
" transform="scale(0.015625)"/>
       <path id="DejaVuSans-6e" d="M 3513 2113 
L 3513 0 
L 2938 0 
L 2938 2094 
Q 2938 2591 2744 2837 
Q 2550 3084 2163 3084 
Q 1697 3084 1428 2787 
Q 1159 2491 1159 1978 
L 1159 0 
L 581 0 
L 581 3500 
L 1159 3500 
L 1159 2956 
Q 1366 3272 1645 3428 
Q 1925 3584 2291 3584 
Q 2894 3584 3203 3211 
Q 3513 2838 3513 2113 
z
" transform="scale(0.015625)"/>
       <path id="DejaVuSans-74" d="M 1172 4494 
L 1172 3500 
L 2356 3500 
L 2356 3053 
L 1172 3053 
L 1172 1153 
Q 1172 725 1289 603 
Q 1406 481 1766 481 
L 2356 481 
L 2356 0 
L 1766 0 
Q 1100 0 847 248 
Q 594 497 594 1153 
L 594 3053 
L 172 3053 
L 172 3500 
L 594 3500 
L 594 4494 
L 1172 4494 
z
" transform="scale(0.015625)"/>
       <path id="DejaVuSans-79" d="M 2059 -325 
Q 1816 -950 1584 -1140 
Q 1353 -1331 966 -1331 
L 506 -1331 
L 506 -850 
L 844 -850 
Q 1081 -850 1212 -737 
Q 1344 -625 1503 -206 
L 1606 56 
L 191 3500 
L 800 3500 
L 1894 763 
L 2988 3500 
L 3597 3500 
L 2059 -325 
z
" transform="scale(0.015625)"/>
      </defs>
      <use xlink:href="#DejaVuSans-41"/>
      <use xlink:href="#DejaVuSans-55" transform="translate(68.408203 0)"/>
      <use xlink:href="#DejaVuSans-20" transform="translate(141.601562 0)"/>
      <use xlink:href="#DejaVuSans-6d" transform="translate(173.388672 0)"/>
      <use xlink:href="#DejaVuSans-65" transform="translate(270.800781 0)"/>
      <use xlink:href="#DejaVuSans-61" transform="translate(332.324219 0)"/>
      <use xlink:href="#DejaVuSans-6e" transform="translate(393.603516 0)"/>
      <use xlink:href="#DejaVuSans-20" transform="translate(456.982422 0)"/>
      <use xlink:href="#DejaVuSans-69" transform="translate(488.769531 0)"/>
      <use xlink:href="#DejaVuSans-6e" transform="translate(516.552734 0)"/>
      <use xlink:href="#DejaVuSans-74" transform="translate(579.931641 0)"/>
      <use xlink:href="#DejaVuSans-65" transform="translate(619.140625 0)"/>
      <use xlink:href="#DejaVuSans-6e" transform="translate(680.664062 0)"/>
      <use xlink:href="#DejaVuSans-73" transform="translate(744.042969 0)"/>
      <use xlink:href="#DejaVuSans-69" transform="translate(796.142578 0)"/>
      <use xlink:href="#DejaVuSans-74" transform="translate(823.925781 0)"/>
      <use xlink:href="#DejaVuSans-79" transform="translate(863.134766 0)"/>
     </g>
    </g>
   </g>
   <g id="FillBetweenPolyCollection_1">
    <defs>
     <path id="m59996341cd" d="M 47.307188 -169.152479 
L 47.307188 -14.838904 
L 50.790415 -14.420584 
L 54.273643 -5.227767 
L 57.75687 -4.049608 
L 61.240098 -8.880197 
L 64.723325 -10.553574 
L 68.206553 -9.503496 
L 71.68978 -9.000338 
L 75.173008 -13.081136 
L 78.656235 -15.446153 
L 82.139463 -11.248222 
L 85.62269 -8.2309 
L 89.105918 -11.574025 
L 92.589145 -10.41508 
L 96.072373 -12.429959 
L 99.5556 -18.654566 
L 103.038828 -18.42464 
L 106.522055 -14.14012 
L 110.005283 -11.690746 
L 113.48851 -16.754739 
L 116.971738 -12.917682 
L 120.454965 -11.229939 
L 123.938193 -6.614743 
L 127.42142 -6.794017 
L 130.904648 -6.057744 
L 134.387875 -8.007888 
L 137.871103 -7.432194 
L 141.35433 -8.750025 
L 144.837558 -6.840795 
L 148.320785 -4.41236 
L 151.804013 -3.959829 
L 155.28724 -8.472618 
L 158.770468 -2.781717 
L 162.253695 -2.893692 
L 165.736923 -5.779106 
L 169.22015 -3.842681 
L 172.703378 -3.094223 
L 176.186605 -5.813999 
L 179.669833 -3.282464 
L 183.153061 -4.776949 
L 186.636288 -10.967057 
L 190.119516 -13.450511 
L 193.602743 -21.022061 
L 197.085971 -25.255748 
L 200.569198 -22.600394 
L 204.052426 -17.013428 
L 207.535653 -13.550351 
L 211.018881 -18.879919 
L 214.502108 -17.603349 
L 217.985336 -16.625128 
L 221.468563 -19.201705 
L 224.951791 -21.486874 
L 228.435018 -23.277942 
L 231.918246 -21.200753 
L 235.401473 -18.845728 
L 238.884701 -19.613147 
L 242.367928 -17.944069 
L 245.851156 -19.286928 
L 249.334383 -16.128736 
L 252.817611 -16.602759 
L 256.300838 -14.371225 
L 259.784066 -10.106602 
L 263.267293 -10.795663 
L 266.750521 -16.45763 
L 270.233748 -13.938556 
L 273.716976 -19.584518 
L 277.200203 -15.430686 
L 280.683431 -10.116058 
L 284.166658 -15.425653 
L 287.649886 -13.933413 
L 291.133113 -15.968087 
L 294.616341 -19.516836 
L 298.099568 -15.147373 
L 301.582796 -15.523308 
L 305.066023 -18.034011 
L 308.549251 -16.29722 
L 312.032479 -17.716523 
L 315.515706 -20.130763 
L 318.998934 -16.766465 
L 322.482161 -18.846337 
L 325.965389 -21.288259 
L 329.448616 -18.438247 
L 332.931844 -16.688737 
L 336.415071 -17.253656 
L 339.898299 -14.618768 
L 343.381526 -17.231065 
L 346.864754 -15.622085 
L 350.347981 -12.67863 
L 353.831209 -2.287189 
L 357.314436 -0.054619 
L 360.797664 -11.505812 
L 364.280891 -12.533955 
L 367.764119 -11.815823 
L 371.247346 -17.979315 
L 374.730574 -12.822135 
L 378.213801 -13.223655 
L 381.697029 -12.937669 
L 385.180256 -13.552027 
L 388.663484 -16.392048 
L 392.146711 -14.685631 
L 395.629939 -4.608375 
L 399.113166 -15.841158 
L 402.596394 -22.946236 
L 406.079621 -21.625877 
L 409.562849 -20.090345 
L 413.046076 -23.461266 
L 416.529304 -23.116419 
L 420.012531 -23.903043 
L 423.495759 -20.781593 
L 426.978986 -23.133796 
L 430.462214 -22.970577 
L 433.945441 -19.1836 
L 437.428669 -22.544544 
L 440.911896 -19.456716 
L 444.395124 -2.946576 
L 447.878352 -14.862662 
L 451.361579 -20.861318 
L 454.844807 -15.482314 
L 458.328034 -23.416285 
L 461.811262 -17.995585 
L 465.294489 -19.163606 
L 468.777717 -14.379592 
L 472.260944 -11.28149 
L 475.744172 -12.559977 
L 479.227399 -14.688267 
L 482.710627 -15.560505 
L 486.193854 -15.244955 
L 489.677082 -16.741409 
L 493.160309 -17.734536 
L 496.643537 -17.738365 
L 500.126764 -16.601833 
L 503.609992 -14.706377 
L 507.093219 -11.398505 
L 510.576447 8.995051 
L 514.059674 -8.986277 
L 517.542902 -14.233803 
L 521.026129 -7.965804 
L 524.509357 -8.474334 
L 527.992584 -11.429415 
L 531.475812 -7.000373 
L 534.959039 -9.031121 
L 538.442267 -13.088023 
L 541.925494 -13.77072 
L 545.408722 -13.119797 
L 548.891949 -17.565566 
L 552.375177 -15.701752 
L 555.858404 -15.99665 
L 559.341632 -14.379928 
L 562.824859 -14.820858 
L 566.308087 -15.626473 
L 569.791314 -15.43465 
L 573.274542 -15.033099 
L 576.75777 -18.831906 
L 580.240997 -19.091938 
L 583.724225 -15.861743 
L 587.207452 -21.995707 
L 590.69068 -23.478395 
L 594.173907 -14.715361 
L 597.657135 -15.833554 
L 601.140362 -20.956379 
L 604.62359 -22.799315 
L 608.106817 -23.809255 
L 611.590045 -26.873725 
L 615.073272 -23.214632 
L 618.5565 -19.271337 
L 622.039727 -31.23625 
L 625.522955 -29.618954 
L 629.006182 -16.044587 
L 632.48941 -20.020757 
L 635.972637 -19.742273 
L 639.455865 -16.661443 
L 642.939092 -15.0603 
L 646.42232 -22.3624 
L 649.905547 -20.79966 
L 653.388775 -19.620366 
L 656.872002 -15.38261 
L 660.35523 -13.522856 
L 663.838457 -6.348634 
L 667.321685 -3.716358 
L 670.804912 -8.637667 
L 674.28814 -11.835347 
L 677.771367 -4.963089 
L 681.254595 -8.488426 
L 684.737822 -15.4425 
L 688.22105 -15.699085 
L 691.704277 -32.002896 
L 695.187505 -33.269157 
L 698.670732 -28.60318 
L 702.15396 -29.483453 
L 705.637188 -25.593732 
L 705.637188 -165.335994 
L 705.637188 -165.335994 
L 702.15396 -159.952332 
L 698.670732 -159.719704 
L 695.187505 -164.672241 
L 691.704277 -172.540705 
L 688.22105 -191.277816 
L 684.737822 -194.886022 
L 681.254595 -207.195513 
L 677.771367 -216.248524 
L 674.28814 -212.681772 
L 670.804912 -213.40302 
L 667.321685 -224.521113 
L 663.838457 -222.188458 
L 660.35523 -208.03944 
L 656.872002 -208.133447 
L 653.388775 -204.945926 
L 649.905547 -201.385578 
L 646.42232 -196.145608 
L 642.939092 -195.492814 
L 639.455865 -199.676267 
L 635.972637 -193.699459 
L 632.48941 -196.495762 
L 629.006182 -198.376742 
L 625.522955 -195.827973 
L 622.039727 -191.474625 
L 618.5565 -199.138327 
L 615.073272 -191.532831 
L 611.590045 -186.398523 
L 608.106817 -192.506759 
L 604.62359 -200.175574 
L 601.140362 -198.285287 
L 597.657135 -202.753801 
L 594.173907 -206.649165 
L 590.69068 -188.945627 
L 587.207452 -196.377463 
L 583.724225 -199.885897 
L 580.240997 -187.360006 
L 576.75777 -186.512612 
L 573.274542 -193.456886 
L 569.791314 -192.243102 
L 566.308087 -192.679539 
L 562.824859 -197.084617 
L 559.341632 -195.756258 
L 555.858404 -193.223331 
L 552.375177 -193.684206 
L 548.891949 -191.098989 
L 545.408722 -191.935623 
L 541.925494 -190.060395 
L 538.442267 -195.603855 
L 534.959039 -200.934272 
L 531.475812 -200.794337 
L 527.992584 -198.904773 
L 524.509357 -201.329746 
L 521.026129 -209.154197 
L 517.542902 -201.709487 
L 514.059674 -213.219732 
L 510.576447 -226.871254 
L 507.093219 -191.223413 
L 503.609992 -184.133377 
L 500.126764 -177.713274 
L 496.643537 -174.94426 
L 493.160309 -173.110837 
L 489.677082 -171.018178 
L 486.193854 -174.939583 
L 482.710627 -177.554749 
L 479.227399 -188.267206 
L 475.744172 -186.774293 
L 472.260944 -191.364158 
L 468.777717 -188.705898 
L 465.294489 -177.644767 
L 461.811262 -183.124527 
L 458.328034 -174.626896 
L 454.844807 -183.714035 
L 451.361579 -179.406763 
L 447.878352 -194.611197 
L 444.395124 -219.121484 
L 440.911896 -183.332719 
L 437.428669 -178.189397 
L 433.945441 -192.442306 
L 430.462214 -179.371983 
L 426.978986 -178.444072 
L 423.495759 -189.941947 
L 420.012531 -175.021031 
L 416.529304 -179.093679 
L 413.046076 -180.948744 
L 409.562849 -186.480871 
L 406.079621 -187.28203 
L 402.596394 -185.025927 
L 399.113166 -193.266497 
L 395.629939 -211.321565 
L 392.146711 -186.615206 
L 388.663484 -187.956513 
L 385.180256 -189.891345 
L 381.697029 -182.767235 
L 378.213801 -181.72686 
L 374.730574 -184.227587 
L 371.247346 -182.612451 
L 367.764119 -184.753446 
L 364.280891 -182.166875 
L 360.797664 -188.390705 
L 357.314436 -213.787539 
L 353.831209 -212.046481 
L 350.347981 -194.045127 
L 346.864754 -189.572882 
L 343.381526 -184.892544 
L 339.898299 -185.585328 
L 336.415071 -182.094882 
L 332.931844 -187.369083 
L 329.448616 -181.005409 
L 325.965389 -170.871623 
L 322.482161 -173.549068 
L 318.998934 -174.866939 
L 315.515706 -172.389485 
L 312.032479 -172.349798 
L 308.549251 -175.507264 
L 305.066023 -173.651031 
L 301.582796 -178.975396 
L 298.099568 -177.546844 
L 294.616341 -174.194766 
L 291.133113 -176.87543 
L 287.649886 -174.820158 
L 284.166658 -179.461872 
L 280.683431 -190.446354 
L 277.200203 -183.967076 
L 273.716976 -181.234739 
L 270.233748 -186.77122 
L 266.750521 -186.775977 
L 263.267293 -189.787828 
L 259.784066 -193.020683 
L 256.300838 -186.835864 
L 252.817611 -184.175881 
L 249.334383 -184.336294 
L 245.851156 -188.519728 
L 242.367928 -183.477591 
L 238.884701 -173.300041 
L 235.401473 -174.299295 
L 231.918246 -182.719768 
L 228.435018 -180.259256 
L 224.951791 -178.610826 
L 221.468563 -175.203924 
L 217.985336 -184.621807 
L 214.502108 -194.613924 
L 211.018881 -198.979559 
L 207.535653 -193.204297 
L 204.052426 -189.530503 
L 200.569198 -184.002267 
L 197.085971 -177.522705 
L 193.602743 -183.424829 
L 190.119516 -187.734304 
L 186.636288 -192.595845 
L 183.153061 -195.76396 
L 179.669833 -193.31358 
L 176.186605 -190.198063 
L 172.703378 -194.411513 
L 169.22015 -192.05828 
L 165.736923 -187.646425 
L 162.253695 -195.808679 
L 158.770468 -196.474115 
L 155.28724 -188.704209 
L 151.804013 -193.513498 
L 148.320785 -192.017822 
L 144.837558 -182.931437 
L 141.35433 -182.967337 
L 137.871103 -189.929242 
L 134.387875 -191.337195 
L 130.904648 -192.238105 
L 127.42142 -192.984716 
L 123.938193 -195.525507 
L 120.454965 -187.876217 
L 116.971738 -182.737377 
L 113.48851 -175.220663 
L 110.005283 -183.64581 
L 106.522055 -175.149751 
L 103.038828 -169.466742 
L 99.5556 -171.542031 
L 96.072373 -177.024887 
L 92.589145 -177.462737 
L 89.105918 -177.117529 
L 85.62269 -181.105562 
L 82.139463 -177.312578 
L 78.656235 -175.960605 
L 75.173008 -176.589399 
L 71.68978 -180.522487 
L 68.206553 -177.346322 
L 64.723325 -176.209653 
L 61.240098 -183.928442 
L 57.75687 -194.749528 
L 54.273643 -192.986501 
L 50.790415 -183.830216 
L 47.307188 -169.152479 
z
" style="stroke: #d3d3d3; stroke-opacity: 0.5"/>
    </defs>
    <g clip-path="url(#p77afce2f53)">
     <use xlink:href="#m59996341cd" x="0" y="424.5775" style="fill: #d3d3d3; fill-opacity: 0.5; stroke: #d3d3d3; stroke-opacity: 0.5"/>
    </g>
   </g>
   <g id="FillBetweenPolyCollection_2">
    <defs>
     <path id="m3ae9ace4e0" d="M 47.307188 -130.574086 
L 47.307188 -53.417298 
L 50.790415 -56.772992 
L 54.273643 -52.16745 
L 57.75687 -51.724588 
L 61.240098 -52.642258 
L 64.723325 -51.967593 
L 68.206553 -51.464202 
L 71.68978 -51.880875 
L 75.173008 -53.958202 
L 78.656235 -55.574766 
L 82.139463 -52.764311 
L 85.62269 -51.449565 
L 89.105918 -52.959901 
L 92.589145 -52.176994 
L 96.072373 -53.578691 
L 99.5556 -56.876432 
L 103.038828 -56.185166 
L 106.522055 -54.392528 
L 110.005283 -54.679512 
L 113.48851 -56.37122 
L 116.971738 -55.372606 
L 120.454965 -55.391509 
L 123.938193 -53.842434 
L 127.42142 -53.341692 
L 130.904648 -52.602835 
L 134.387875 -53.840215 
L 137.871103 -53.056456 
L 141.35433 -52.304353 
L 144.837558 -50.863456 
L 148.320785 -51.313726 
L 151.804013 -51.348246 
L 155.28724 -53.530516 
L 158.770468 -51.204817 
L 162.253695 -51.122439 
L 165.736923 -51.245936 
L 169.22015 -50.896581 
L 172.703378 -50.923546 
L 176.186605 -51.910015 
L 179.669833 -50.790243 
L 183.153061 -52.523702 
L 186.636288 -56.374254 
L 190.119516 -57.021459 
L 193.602743 -61.622753 
L 197.085971 -63.322487 
L 200.569198 -62.950862 
L 204.052426 -60.142697 
L 207.535653 -58.463838 
L 211.018881 -63.904829 
L 214.502108 -61.855993 
L 217.985336 -58.624298 
L 221.468563 -58.20226 
L 224.951791 -60.767862 
L 228.435018 -62.523271 
L 231.918246 -61.580506 
L 235.401473 -57.70912 
L 238.884701 -58.034871 
L 242.367928 -59.327449 
L 245.851156 -61.595128 
L 249.334383 -58.180625 
L 252.817611 -58.49604 
L 256.300838 -57.487385 
L 259.784066 -55.835122 
L 263.267293 -55.543704 
L 266.750521 -59.037217 
L 270.233748 -57.146722 
L 273.716976 -59.997074 
L 277.200203 -57.564784 
L 280.683431 -55.198632 
L 284.166658 -56.434708 
L 287.649886 -54.155099 
L 291.133113 -56.194922 
L 294.616341 -58.186318 
L 298.099568 -55.747241 
L 301.582796 -56.38633 
L 305.066023 -56.938266 
L 308.549251 -56.099731 
L 312.032479 -56.374841 
L 315.515706 -58.195443 
L 318.998934 -56.291584 
L 322.482161 -57.52202 
L 325.965389 -58.6841 
L 329.448616 -59.080038 
L 332.931844 -59.358824 
L 336.415071 -58.463962 
L 339.898299 -57.360408 
L 343.381526 -59.146434 
L 346.864754 -59.109784 
L 350.347981 -58.020254 
L 353.831209 -54.727012 
L 357.314436 -53.487849 
L 360.797664 -55.727035 
L 364.280891 -54.942185 
L 367.764119 -55.050229 
L 371.247346 -59.137599 
L 374.730574 -55.673498 
L 378.213801 -55.349456 
L 381.697029 -55.39506 
L 385.180256 -57.636856 
L 388.663484 -59.283164 
L 392.146711 -57.668025 
L 395.629939 -56.286673 
L 399.113166 -60.197493 
L 402.596394 -63.466159 
L 406.079621 -63.039915 
L 409.562849 -61.687977 
L 413.046076 -62.833135 
L 416.529304 -62.110734 
L 420.012531 -61.68254 
L 423.495759 -63.071681 
L 426.978986 -61.961365 
L 430.462214 -62.070928 
L 433.945441 -62.498277 
L 437.428669 -61.455757 
L 440.911896 -60.425717 
L 444.395124 -56.990303 
L 447.878352 -59.799796 
L 451.361579 -60.497679 
L 454.844807 -57.540244 
L 458.328034 -61.218938 
L 461.811262 -59.277821 
L 465.294489 -58.783896 
L 468.777717 -57.961169 
L 472.260944 -56.302157 
L 475.744172 -56.113556 
L 479.227399 -58.083002 
L 482.710627 -56.059066 
L 486.193854 -55.168612 
L 489.677082 -55.310601 
L 493.160309 -56.578611 
L 496.643537 -57.039838 
L 500.126764 -56.879693 
L 503.609992 -57.063127 
L 507.093219 -56.354732 
L 510.576447 -49.971525 
L 514.059674 -60.04464 
L 517.542902 -61.102724 
L 521.026129 -58.262902 
L 524.509357 -56.688187 
L 527.992584 -58.298254 
L 531.475812 -55.448864 
L 534.959039 -57.006909 
L 538.442267 -58.716981 
L 541.925494 -57.843139 
L 545.408722 -57.823754 
L 548.891949 -60.948922 
L 552.375177 -60.197366 
L 555.858404 -60.303321 
L 559.341632 -59.724011 
L 562.824859 -60.386797 
L 566.308087 -59.889739 
L 569.791314 -59.636763 
L 573.274542 -59.639046 
L 576.75777 -60.752083 
L 580.240997 -61.158955 
L 583.724225 -61.867781 
L 587.207452 -65.591146 
L 590.69068 -64.845203 
L 594.173907 -62.698812 
L 597.657135 -62.563616 
L 601.140362 -65.288606 
L 604.62359 -67.14338 
L 608.106817 -65.983631 
L 611.590045 -66.754925 
L 615.073272 -65.294182 
L 618.5565 -64.238084 
L 622.039727 -71.295844 
L 625.522955 -71.171209 
L 629.006182 -61.627626 
L 632.48941 -64.139509 
L 635.972637 -63.231569 
L 639.455865 -62.415149 
L 642.939092 -60.168428 
L 646.42232 -65.808202 
L 649.905547 -65.946139 
L 653.388775 -65.951756 
L 656.872002 -63.570319 
L 660.35523 -62.152002 
L 663.838457 -60.30859 
L 667.321685 -58.917546 
L 670.804912 -59.829005 
L 674.28814 -62.046953 
L 677.771367 -57.784448 
L 681.254595 -58.165198 
L 684.737822 -60.303381 
L 688.22105 -59.593767 
L 691.704277 -67.137348 
L 695.187505 -66.119928 
L 698.670732 -61.382311 
L 702.15396 -62.100673 
L 705.637188 -60.529297 
L 705.637188 -130.400429 
L 705.637188 -130.400429 
L 702.15396 -127.335113 
L 698.670732 -126.940573 
L 695.187505 -131.82147 
L 691.704277 -137.406253 
L 688.22105 -147.383133 
L 684.737822 -150.025142 
L 681.254595 -157.518741 
L 677.771367 -163.427165 
L 674.28814 -162.470166 
L 670.804912 -162.211682 
L 667.321685 -169.319924 
L 663.838457 -168.228502 
L 660.35523 -159.410294 
L 656.872002 -159.945738 
L 653.388775 -158.614536 
L 649.905547 -156.239098 
L 646.42232 -152.699806 
L 642.939092 -150.384685 
L 639.455865 -153.922561 
L 635.972637 -150.210162 
L 632.48941 -152.377011 
L 629.006182 -152.793703 
L 625.522955 -154.275719 
L 622.039727 -151.415032 
L 618.5565 -154.171579 
L 615.073272 -149.453282 
L 611.590045 -146.517323 
L 608.106817 -150.332383 
L 604.62359 -155.831509 
L 601.140362 -153.95306 
L 597.657135 -156.023739 
L 594.173907 -158.665714 
L 590.69068 -147.578819 
L 587.207452 -152.782024 
L 583.724225 -153.879858 
L 580.240997 -145.292989 
L 576.75777 -144.592436 
L 573.274542 -148.850939 
L 569.791314 -148.040989 
L 566.308087 -148.416273 
L 562.824859 -151.518677 
L 559.341632 -150.412176 
L 555.858404 -148.916661 
L 552.375177 -149.188593 
L 548.891949 -147.715633 
L 545.408722 -147.231667 
L 541.925494 -145.987977 
L 538.442267 -149.974897 
L 534.959039 -152.958484 
L 531.475812 -152.345846 
L 527.992584 -152.035933 
L 524.509357 -153.115893 
L 521.026129 -158.857099 
L 517.542902 -154.840566 
L 514.059674 -162.161368 
L 510.576447 -167.904678 
L 507.093219 -146.267186 
L 503.609992 -141.776627 
L 500.126764 -137.435414 
L 496.643537 -135.642786 
L 493.160309 -134.266761 
L 489.677082 -132.448986 
L 486.193854 -135.015926 
L 482.710627 -137.056188 
L 479.227399 -144.872471 
L 475.744172 -143.220714 
L 472.260944 -146.343491 
L 468.777717 -145.124321 
L 465.294489 -138.024477 
L 461.811262 -141.842292 
L 458.328034 -136.824244 
L 454.844807 -141.656105 
L 451.361579 -139.770402 
L 447.878352 -149.674063 
L 444.395124 -165.077757 
L 440.911896 -142.363718 
L 437.428669 -139.278184 
L 433.945441 -149.127629 
L 430.462214 -140.271631 
L 426.978986 -139.616503 
L 423.495759 -147.651858 
L 420.012531 -137.241534 
L 416.529304 -140.099364 
L 413.046076 -141.576874 
L 409.562849 -144.88324 
L 406.079621 -145.867992 
L 402.596394 -144.506004 
L 399.113166 -148.910162 
L 395.629939 -159.643268 
L 392.146711 -143.632812 
L 388.663484 -145.065397 
L 385.180256 -145.806516 
L 381.697029 -140.309843 
L 378.213801 -139.601059 
L 374.730574 -141.376224 
L 371.247346 -141.454167 
L 367.764119 -141.519041 
L 364.280891 -139.758645 
L 360.797664 -144.169481 
L 357.314436 -160.354309 
L 353.831209 -159.606658 
L 350.347981 -148.703503 
L 346.864754 -146.085183 
L 343.381526 -142.977174 
L 339.898299 -142.843688 
L 336.415071 -140.884576 
L 332.931844 -144.698997 
L 329.448616 -140.363618 
L 325.965389 -133.475782 
L 322.482161 -134.873385 
L 318.998934 -135.341821 
L 315.515706 -134.324804 
L 312.032479 -133.691479 
L 308.549251 -135.704753 
L 305.066023 -134.746776 
L 301.582796 -138.112374 
L 298.099568 -136.946976 
L 294.616341 -135.525284 
L 291.133113 -136.648594 
L 287.649886 -134.598472 
L 284.166658 -138.452817 
L 280.683431 -145.36378 
L 277.200203 -141.832978 
L 273.716976 -140.822184 
L 270.233748 -143.563054 
L 266.750521 -144.196391 
L 263.267293 -145.039787 
L 259.784066 -147.292163 
L 256.300838 -143.719704 
L 252.817611 -142.282601 
L 249.334383 -142.284405 
L 245.851156 -146.211528 
L 242.367928 -142.094211 
L 238.884701 -134.878317 
L 235.401473 -135.435904 
L 231.918246 -142.340014 
L 228.435018 -141.013927 
L 224.951791 -139.329838 
L 221.468563 -136.203369 
L 217.985336 -142.622638 
L 214.502108 -150.36128 
L 211.018881 -153.954649 
L 207.535653 -148.290811 
L 204.052426 -146.401234 
L 200.569198 -143.651798 
L 197.085971 -139.455966 
L 193.602743 -142.824137 
L 190.119516 -144.163356 
L 186.636288 -147.188648 
L 183.153061 -148.017207 
L 179.669833 -145.805801 
L 176.186605 -144.102047 
L 172.703378 -146.58219 
L 169.22015 -145.00438 
L 165.736923 -142.179595 
L 162.253695 -147.579932 
L 158.770468 -148.051015 
L 155.28724 -143.646311 
L 151.804013 -146.125081 
L 148.320785 -145.116457 
L 144.837558 -138.908777 
L 141.35433 -139.413009 
L 137.871103 -144.30498 
L 134.387875 -145.504868 
L 130.904648 -145.693015 
L 127.42142 -146.437042 
L 123.938193 -148.297816 
L 120.454965 -143.714648 
L 116.971738 -140.282454 
L 113.48851 -135.604182 
L 110.005283 -140.657044 
L 106.522055 -134.897343 
L 103.038828 -131.706217 
L 99.5556 -133.320165 
L 96.072373 -135.876155 
L 92.589145 -135.700823 
L 89.105918 -135.731653 
L 85.62269 -137.886897 
L 82.139463 -135.796489 
L 78.656235 -135.831992 
L 75.173008 -135.712333 
L 71.68978 -137.64195 
L 68.206553 -135.385616 
L 64.723325 -134.795633 
L 61.240098 -140.166381 
L 57.75687 -147.074548 
L 54.273643 -146.046817 
L 50.790415 -141.477808 
L 47.307188 -130.574086 
z
" style="stroke: #808080; stroke-opacity: 0.7"/>
    </defs>
    <g clip-path="url(#p77afce2f53)">
     <use xlink:href="#m3ae9ace4e0" x="0" y="424.5775" style="fill: #808080; fill-opacity: 0.7; stroke: #808080; stroke-opacity: 0.7"/>
    </g>
   </g>
   <g id="line2d_31">
    <path d="M 47.307188 312.0593 
L 50.790415 339.349528 
L 54.273643 294.544892 
L 57.75687 301.821692 
L 61.240098 303.965575 
L 64.723325 288.806759 
L 68.206553 254.594887 
L 71.68978 271.774815 
L 75.173008 252.736321 
L 78.656235 266.034976 
L 82.139463 253.836771 
L 85.62269 251.914919 
L 89.105918 191.342089 
L 92.589145 174.424544 
L 96.072373 219.545563 
L 99.5556 262.809526 
L 103.038828 243.075789 
L 106.522055 321.440108 
L 110.005283 280.682254 
L 113.48851 253.600909 
L 116.971738 261.881911 
L 120.454965 267.829759 
L 123.938193 225.012895 
L 127.42142 243.120967 
L 130.904648 246.509561 
L 134.387875 261.04545 
L 137.871103 254.436648 
L 141.35433 251.825816 
L 144.837558 255.649712 
L 148.320785 247.631534 
L 151.804013 221.359401 
L 155.28724 232.097976 
L 158.770468 238.072572 
L 162.253695 271.872052 
L 165.736923 247.032537 
L 169.22015 231.15802 
L 172.703378 241.4991 
L 176.186605 266.62703 
L 179.669833 259.462352 
L 183.153061 256.840933 
L 186.636288 237.052074 
L 190.119516 228.645631 
L 193.602743 283.487239 
L 197.085971 275.640829 
L 200.569198 280.436314 
L 204.052426 258.967958 
L 207.535653 287.780892 
L 211.018881 303.79148 
L 214.502108 301.571475 
L 217.985336 315.878131 
L 221.468563 307.314564 
L 224.951791 310.000807 
L 228.435018 309.63231 
L 231.918246 300.802271 
L 235.401473 302.631599 
L 238.884701 303.511004 
L 242.367928 317.545248 
L 245.851156 303.803871 
L 249.334383 339.696492 
L 252.817611 300.649153 
L 256.300838 320.084731 
L 259.784066 299.218812 
L 263.267293 293.223164 
L 266.750521 296.317579 
L 270.233748 309.56561 
L 273.716976 303.950266 
L 277.200203 309.538598 
L 280.683431 323.957318 
L 284.166658 309.040048 
L 287.649886 310.855844 
L 291.133113 323.987868 
L 294.616341 313.854553 
L 298.099568 305.324864 
L 301.582796 261.548936 
L 305.066023 266.980254 
L 308.549251 282.540291 
L 312.032479 300.843885 
L 315.515706 291.538062 
L 318.998934 250.613256 
L 322.482161 276.527004 
L 325.965389 282.65616 
L 329.448616 279.276658 
L 332.931844 274.460359 
L 336.415071 261.741635 
L 339.898299 286.571187 
L 343.381526 252.238941 
L 346.864754 250.23012 
L 350.347981 237.581822 
L 353.831209 265.257292 
L 357.314436 263.094183 
L 360.797664 217.805473 
L 364.280891 267.972116 
L 367.764119 274.046749 
L 371.247346 265.330877 
L 374.730574 289.397375 
L 378.213801 277.919743 
L 381.697029 274.489662 
L 385.180256 286.205453 
L 388.663484 289.881182 
L 392.146711 302.7442 
L 395.629939 288.578366 
L 399.113166 240.40755 
L 402.596394 266.031007 
L 406.079621 273.684633 
L 409.562849 289.090839 
L 413.046076 280.542707 
L 416.529304 287.426115 
L 423.495759 300.57379 
L 426.978986 315.327324 
L 430.462214 282.629707 
L 433.945441 271.081445 
L 437.428669 281.614509 
L 440.911896 298.913512 
L 444.395124 272.295659 
L 447.878352 289.221572 
L 451.361579 275.7739 
L 454.844807 281.680977 
L 458.328034 254.328313 
L 461.811262 287.012537 
L 468.777717 324.623412 
L 472.260944 295.862729 
L 475.744172 283.784205 
L 479.227399 297.1375 
L 482.710627 297.189193 
L 486.193854 267.944377 
L 489.677082 311.519666 
L 493.160309 309.7292 
L 496.643537 321.759707 
L 500.126764 349.127801 
L 503.609992 341.928192 
L 507.093219 322.607142 
L 510.576447 309.352517 
L 514.059674 304.467544 
L 517.542902 303.472423 
L 521.026129 263.447453 
L 524.509357 234.576791 
L 527.992584 238.57151 
L 531.475812 239.814734 
L 534.959039 264.14305 
L 538.442267 283.3509 
L 541.925494 293.649864 
L 545.408722 254.067439 
L 548.891949 268.753164 
L 552.375177 280.614421 
L 555.858404 283.679214 
L 559.341632 265.766062 
L 562.824859 233.032942 
L 566.308087 280.420135 
L 569.791314 282.239738 
L 573.274542 283.860835 
L 576.75777 302.232089 
L 580.240997 302.286725 
L 583.724225 291.937096 
L 587.207452 246.831946 
L 590.69068 266.00358 
L 594.173907 240.497679 
L 597.657135 261.665398 
L 601.140362 293.220573 
L 604.62359 293.458838 
L 608.106817 272.119829 
L 611.590045 199.665699 
L 615.073272 263.628221 
L 618.5565 246.044386 
L 622.039727 269.079187 
L 625.522955 279.496761 
L 629.006182 269.606781 
L 635.972637 288.374587 
L 639.455865 290.584759 
L 642.939092 257.538096 
L 646.42232 264.844003 
L 649.905547 269.230418 
L 653.388775 218.328846 
L 656.872002 257.030658 
L 660.35523 259.690309 
L 663.838457 286.927745 
L 667.321685 264.636163 
L 670.804912 269.396559 
L 674.28814 254.780796 
L 677.771367 245.197909 
L 681.254595 265.984513 
L 684.737822 251.832883 
L 688.22105 256.016882 
L 691.704277 248.540394 
L 695.187505 248.810635 
L 698.670732 269.322962 
L 702.15396 273.054856 
L 705.637188 216.465693 
L 705.637188 216.465693 
" clip-path="url(#p77afce2f53)" style="fill: none; stroke: #ff8c00; stroke-width: 2.3; stroke-linecap: square"/>
   </g>
   <g id="line2d_32">
    <path d="M 284.166658 384.117812 
L 284.166658 23.837812 
" clip-path="url(#p77afce2f53)" style="fill: none; stroke-dasharray: 5.55,2.4; stroke-dashoffset: 0; stroke: #808080; stroke-width: 1.5"/>
   </g>
   <g id="line2d_33">
    <path d="M 486.193854 384.117812 
L 486.193854 23.837812 
" clip-path="url(#p77afce2f53)" style="fill: none; stroke-dasharray: 5.55,2.4; stroke-dashoffset: 0; stroke: #808080; stroke-width: 1.5"/>
   </g>
   <g id="patch_3">
    <path d="M 47.307188 384.117812 
L 47.307188 23.837812 
" style="fill: none; stroke: #000000; stroke-width: 0.8; stroke-linejoin: miter; stroke-linecap: square"/>
   </g>
   <g id="patch_4">
    <path d="M 705.637188 384.117812 
L 705.637188 23.837812 
" style="fill: none; stroke: #000000; stroke-width: 0.8; stroke-linejoin: miter; stroke-linecap: square"/>
   </g>
   <g id="patch_5">
    <path d="M 47.307188 384.117812 
L 705.637188 384.117812 
" style="fill: none; stroke: #000000; stroke-width: 0.8; stroke-linejoin: miter; stroke-linecap: square"/>
   </g>
   <g id="patch_6">
    <path d="M 47.307188 23.837812 
L 705.637188 23.837812 
" style="fill: none; stroke: #000000; stroke-width: 0.8; stroke-linejoin: miter; stroke-linecap: square"/>
   </g>
   <g id="text_18">
    <!-- Facial trace: Depressive disorder (MDD/DD) -->
    <g transform="translate(224.463906 17.837812) scale(0.14 -0.14)">
     <defs>
      <path id="DejaVuSans-46" d="M 628 4666 
L 3309 4666 
L 3309 4134 
L 1259 4134 
L 1259 2759 
L 3109 2759 
L 3109 2228 
L 1259 2228 
L 1259 0 
L 628 0 
L 628 4666 
z
" transform="scale(0.015625)"/>
      <path id="DejaVuSans-63" d="M 3122 3366 
L 3122 2828 
Q 2878 2963 2633 3030 
Q 2388 3097 2138 3097 
Q 1578 3097 1268 2742 
Q 959 2388 959 1747 
Q 959 1106 1268 751 
Q 1578 397 2138 397 
Q 2388 397 2633 464 
Q 2878 531 3122 666 
L 3122 134 
Q 2881 22 2623 -34 
Q 2366 -91 2075 -91 
Q 1284 -91 818 406 
Q 353 903 353 1747 
Q 353 2603 823 3093 
Q 1294 3584 2113 3584 
Q 2378 3584 2631 3529 
Q 2884 3475 3122 3366 
z
" transform="scale(0.015625)"/>
      <path id="DejaVuSans-6c" d="M 603 4863 
L 1178 4863 
L 1178 0 
L 603 0 
L 603 4863 
z
" transform="scale(0.015625)"/>
      <path id="DejaVuSans-72" d="M 2631 2963 
Q 2534 3019 2420 3045 
Q 2306 3072 2169 3072 
Q 1681 3072 1420 2755 
Q 1159 2438 1159 1844 
L 1159 0 
L 581 0 
L 581 3500 
L 1159 3500 
L 1159 2956 
Q 1341 3275 1631 3429 
Q 1922 3584 2338 3584 
Q 2397 3584 2469 3576 
Q 2541 3569 2628 3553 
L 2631 2963 
z
" transform="scale(0.015625)"/>
      <path id="DejaVuSans-3a" d="M 750 794 
L 1409 794 
L 1409 0 
L 750 0 
L 750 794 
z
M 750 3309 
L 1409 3309 
L 1409 2516 
L 750 2516 
L 750 3309 
z
" transform="scale(0.015625)"/>
      <path id="DejaVuSans-44" d="M 1259 4147 
L 1259 519 
L 2022 519 
Q 2988 519 3436 956 
Q 3884 1394 3884 2338 
Q 3884 3275 3436 3711 
Q 2988 4147 2022 4147 
L 1259 4147 
z
M 628 4666 
L 1925 4666 
Q 3281 4666 3915 4102 
Q 4550 3538 4550 2338 
Q 4550 1131 3912 565 
Q 3275 0 1925 0 
L 628 0 
L 628 4666 
z
" transform="scale(0.015625)"/>
      <path id="DejaVuSans-70" d="M 1159 525 
L 1159 -1331 
L 581 -1331 
L 581 3500 
L 1159 3500 
L 1159 2969 
Q 1341 3281 1617 3432 
Q 1894 3584 2278 3584 
Q 2916 3584 3314 3078 
Q 3713 2572 3713 1747 
Q 3713 922 3314 415 
Q 2916 -91 2278 -91 
Q 1894 -91 1617 61 
Q 1341 213 1159 525 
z
M 3116 1747 
Q 3116 2381 2855 2742 
Q 2594 3103 2138 3103 
Q 1681 3103 1420 2742 
Q 1159 2381 1159 1747 
Q 1159 1113 1420 752 
Q 1681 391 2138 391 
Q 2594 391 2855 752 
Q 3116 1113 3116 1747 
z
" transform="scale(0.015625)"/>
      <path id="DejaVuSans-76" d="M 191 3500 
L 800 3500 
L 1894 563 
L 2988 3500 
L 3597 3500 
L 2284 0 
L 1503 0 
L 191 3500 
z
" transform="scale(0.015625)"/>
      <path id="DejaVuSans-64" d="M 2906 2969 
L 2906 4863 
L 3481 4863 
L 3481 0 
L 2906 0 
L 2906 525 
Q 2725 213 2448 61 
Q 2172 -91 1784 -91 
Q 1150 -91 751 415 
Q 353 922 353 1747 
Q 353 2572 751 3078 
Q 1150 3584 1784 3584 
Q 2172 3584 2448 3432 
Q 2725 3281 2906 2969 
z
M 947 1747 
Q 947 1113 1208 752 
Q 1469 391 1925 391 
Q 2381 391 2643 752 
Q 2906 1113 2906 1747 
Q 2906 2381 2643 2742 
Q 2381 3103 1925 3103 
Q 1469 3103 1208 2742 
Q 947 2381 947 1747 
z
" transform="scale(0.015625)"/>
      <path id="DejaVuSans-6f" d="M 1959 3097 
Q 1497 3097 1228 2736 
Q 959 2375 959 1747 
Q 959 1119 1226 758 
Q 1494 397 1959 397 
Q 2419 397 2687 759 
Q 2956 1122 2956 1747 
Q 2956 2369 2687 2733 
Q 2419 3097 1959 3097 
z
M 1959 3584 
Q 2709 3584 3137 3096 
Q 3566 2609 3566 1747 
Q 3566 888 3137 398 
Q 2709 -91 1959 -91 
Q 1206 -91 779 398 
Q 353 888 353 1747 
Q 353 2609 779 3096 
Q 1206 3584 1959 3584 
z
" transform="scale(0.015625)"/>
      <path id="DejaVuSans-4d" d="M 628 4666 
L 1569 4666 
L 2759 1491 
L 3956 4666 
L 4897 4666 
L 4897 0 
L 4281 0 
L 4281 4097 
L 3078 897 
L 2444 897 
L 1241 4097 
L 1241 0 
L 628 0 
L 628 4666 
z
" transform="scale(0.015625)"/>
      <path id="DejaVuSans-2f" d="M 1625 4666 
L 2156 4666 
L 531 -594 
L 0 -594 
L 1625 4666 
z
" transform="scale(0.015625)"/>
     </defs>
     <use xlink:href="#DejaVuSans-46"/>
     <use xlink:href="#DejaVuSans-61" transform="translate(48.394531 0)"/>
     <use xlink:href="#DejaVuSans-63" transform="translate(109.673828 0)"/>
     <use xlink:href="#DejaVuSans-69" transform="translate(164.654297 0)"/>
     <use xlink:href="#DejaVuSans-61" transform="translate(192.4375 0)"/>
     <use xlink:href="#DejaVuSans-6c" transform="translate(253.716797 0)"/>
     <use xlink:href="#DejaVuSans-20" transform="translate(281.5 0)"/>
     <use xlink:href="#DejaVuSans-74" transform="translate(313.287109 0)"/>
     <use xlink:href="#DejaVuSans-72" transform="translate(352.496094 0)"/>
     <use xlink:href="#DejaVuSans-61" transform="translate(393.609375 0)"/>
     <use xlink:href="#DejaVuSans-63" transform="translate(454.888672 0)"/>
     <use xlink:href="#DejaVuSans-65" transform="translate(509.869141 0)"/>
     <use xlink:href="#DejaVuSans-3a" transform="translate(571.392578 0)"/>
     <use xlink:href="#DejaVuSans-20" transform="translate(605.083984 0)"/>
     <use xlink:href="#DejaVuSans-44" transform="translate(636.871094 0)"/>
     <use xlink:href="#DejaVuSans-65" transform="translate(713.873047 0)"/>
     <use xlink:href="#DejaVuSans-70" transform="translate(775.396484 0)"/>
     <use xlink:href="#DejaVuSans-72" transform="translate(838.873047 0)"/>
     <use xlink:href="#DejaVuSans-65" transform="translate(877.736328 0)"/>
     <use xlink:href="#DejaVuSans-73" transform="translate(939.259766 0)"/>
     <use xlink:href="#DejaVuSans-73" transform="translate(991.359375 0)"/>
     <use xlink:href="#DejaVuSans-69" transform="translate(1043.458984 0)"/>
     <use xlink:href="#DejaVuSans-76" transform="translate(1071.242188 0)"/>
     <use xlink:href="#DejaVuSans-65" transform="translate(1130.421875 0)"/>
     <use xlink:href="#DejaVuSans-20" transform="translate(1191.945312 0)"/>
     <use xlink:href="#DejaVuSans-64" transform="translate(1223.732422 0)"/>
     <use xlink:href="#DejaVuSans-69" transform="translate(1287.208984 0)"/>
     <use xlink:href="#DejaVuSans-73" transform="translate(1314.992188 0)"/>
     <use xlink:href="#DejaVuSans-6f" transform="translate(1367.091797 0)"/>
     <use xlink:href="#DejaVuSans-72" transform="translate(1428.273438 0)"/>
     <use xlink:href="#DejaVuSans-64" transform="translate(1467.636719 0)"/>
     <use xlink:href="#DejaVuSans-65" transform="translate(1531.113281 0)"/>
     <use xlink:href="#DejaVuSans-72" transform="translate(1592.636719 0)"/>
     <use xlink:href="#DejaVuSans-20" transform="translate(1633.75 0)"/>
     <use xlink:href="#DejaVuSans-28" transform="translate(1665.537109 0)"/>
     <use xlink:href="#DejaVuSans-4d" transform="translate(1704.550781 0)"/>
     <use xlink:href="#DejaVuSans-44" transform="translate(1790.830078 0)"/>
     <use xlink:href="#DejaVuSans-44" transform="translate(1867.832031 0)"/>
     <use xlink:href="#DejaVuSans-2f" transform="translate(1944.833984 0)"/>
     <use xlink:href="#DejaVuSans-44" transform="translate(1978.525391 0)"/>
     <use xlink:href="#DejaVuSans-44" transform="translate(2055.527344 0)"/>
     <use xlink:href="#DejaVuSans-29" transform="translate(2132.529297 0)"/>
    </g>
   </g>
   <g id="legend_1">
    <g id="patch_7">
     <path d="M 457.46 42.096094 
L 479.46 42.096094 
L 479.46 34.396094 
L 457.46 34.396094 
z
" style="fill: #d3d3d3; fill-opacity: 0.5; stroke: #d3d3d3; stroke-opacity: 0.5; stroke-linejoin: miter"/>
    </g>
    <g id="text_19">
     <!-- Depressive disorder (MDD/DD) ±2 SD -->
     <g transform="translate(488.26 42.096094) scale(0.11 -0.11)">
      <defs>
       <path id="DejaVuSans-b1" d="M 2944 4013 
L 2944 2803 
L 4684 2803 
L 4684 2272 
L 2944 2272 
L 2944 1063 
L 2419 1063 
L 2419 2272 
L 678 2272 
L 678 2803 
L 2419 2803 
L 2419 4013 
L 2944 4013 
z
M 678 531 
L 4684 531 
L 4684 0 
L 678 0 
L 678 531 
z
" transform="scale(0.015625)"/>
       <path id="DejaVuSans-53" d="M 3425 4513 
L 3425 3897 
Q 3066 4069 2747 4153 
Q 2428 4238 2131 4238 
Q 1616 4238 1336 4038 
Q 1056 3838 1056 3469 
Q 1056 3159 1242 3001 
Q 1428 2844 1947 2747 
L 2328 2669 
Q 3034 2534 3370 2195 
Q 3706 1856 3706 1288 
Q 3706 609 3251 259 
Q 2797 -91 1919 -91 
Q 1588 -91 1214 -16 
Q 841 59 441 206 
L 441 856 
Q 825 641 1194 531 
Q 1563 422 1919 422 
Q 2459 422 2753 634 
Q 3047 847 3047 1241 
Q 3047 1584 2836 1778 
Q 2625 1972 2144 2069 
L 1759 2144 
Q 1053 2284 737 2584 
Q 422 2884 422 3419 
Q 422 4038 858 4394 
Q 1294 4750 2059 4750 
Q 2388 4750 2728 4690 
Q 3069 4631 3425 4513 
z
" transform="scale(0.015625)"/>
      </defs>
      <use xlink:href="#DejaVuSans-44"/>
      <use xlink:href="#DejaVuSans-65" transform="translate(77.001953 0)"/>
      <use xlink:href="#DejaVuSans-70" transform="translate(138.525391 0)"/>
      <use xlink:href="#DejaVuSans-72" transform="translate(202.001953 0)"/>
      <use xlink:href="#DejaVuSans-65" transform="translate(240.865234 0)"/>
      <use xlink:href="#DejaVuSans-73" transform="translate(302.388672 0)"/>
      <use xlink:href="#DejaVuSans-73" transform="translate(354.488281 0)"/>
      <use xlink:href="#DejaVuSans-69" transform="translate(406.587891 0)"/>
      <use xlink:href="#DejaVuSans-76" transform="translate(434.371094 0)"/>
      <use xlink:href="#DejaVuSans-65" transform="translate(493.550781 0)"/>
      <use xlink:href="#DejaVuSans-20" transform="translate(555.074219 0)"/>
      <use xlink:href="#DejaVuSans-64" transform="translate(586.861328 0)"/>
      <use xlink:href="#DejaVuSans-69" transform="translate(650.337891 0)"/>
      <use xlink:href="#DejaVuSans-73" transform="translate(678.121094 0)"/>
      <use xlink:href="#DejaVuSans-6f" transform="translate(730.220703 0)"/>
      <use xlink:href="#DejaVuSans-72" transform="translate(791.402344 0)"/>
      <use xlink:href="#DejaVuSans-64" transform="translate(830.765625 0)"/>
      <use xlink:href="#DejaVuSans-65" transform="translate(894.242188 0)"/>
      <use xlink:href="#DejaVuSans-72" transform="translate(955.765625 0)"/>
      <use xlink:href="#DejaVuSans-20" transform="translate(996.878906 0)"/>
      <use xlink:href="#DejaVuSans-28" transform="translate(1028.666016 0)"/>
      <use xlink:href="#DejaVuSans-4d" transform="translate(1067.679688 0)"/>
      <use xlink:href="#DejaVuSans-44" transform="translate(1153.958984 0)"/>
      <use xlink:href="#DejaVuSans-44" transform="translate(1230.960938 0)"/>
      <use xlink:href="#DejaVuSans-2f" transform="translate(1307.962891 0)"/>
      <use xlink:href="#DejaVuSans-44" transform="translate(1341.654297 0)"/>
      <use xlink:href="#DejaVuSans-44" transform="translate(1418.65625 0)"/>
      <use xlink:href="#DejaVuSans-29" transform="translate(1495.658203 0)"/>
      <use xlink:href="#DejaVuSans-20" transform="translate(1534.671875 0)"/>
      <use xlink:href="#DejaVuSans-b1" transform="translate(1566.458984 0)"/>
      <use xlink:href="#DejaVuSans-32" transform="translate(1650.248047 0)"/>
      <use xlink:href="#DejaVuSans-20" transform="translate(1713.871094 0)"/>
      <use xlink:href="#DejaVuSans-53" transform="translate(1745.658203 0)"/>
      <use xlink:href="#DejaVuSans-44" transform="translate(1809.134766 0)"/>
     </g>
    </g>
    <g id="patch_8">
     <path d="M 457.46 58.242031 
L 479.46 58.242031 
L 479.46 50.542031 
L 457.46 50.542031 
z
" style="fill: #808080; fill-opacity: 0.7; stroke: #808080; stroke-opacity: 0.7; stroke-linejoin: miter"/>
    </g>
    <g id="text_20">
     <!-- Depressive disorder (MDD/DD) ±1 SD -->
     <g transform="translate(488.26 58.242031) scale(0.11 -0.11)">
      <use xlink:href="#DejaVuSans-44"/>
      <use xlink:href="#DejaVuSans-65" transform="translate(77.001953 0)"/>
      <use xlink:href="#DejaVuSans-70" transform="translate(138.525391 0)"/>
      <use xlink:href="#DejaVuSans-72" transform="translate(202.001953 0)"/>
      <use xlink:href="#DejaVuSans-65" transform="translate(240.865234 0)"/>
      <use xlink:href="#DejaVuSans-73" transform="translate(302.388672 0)"/>
      <use xlink:href="#DejaVuSans-73" transform="translate(354.488281 0)"/>
      <use xlink:href="#DejaVuSans-69" transform="translate(406.587891 0)"/>
      <use xlink:href="#DejaVuSans-76" transform="translate(434.371094 0)"/>
      <use xlink:href="#DejaVuSans-65" transform="translate(493.550781 0)"/>
      <use xlink:href="#DejaVuSans-20" transform="translate(555.074219 0)"/>
      <use xlink:href="#DejaVuSans-64" transform="translate(586.861328 0)"/>
      <use xlink:href="#DejaVuSans-69" transform="translate(650.337891 0)"/>
      <use xlink:href="#DejaVuSans-73" transform="translate(678.121094 0)"/>
      <use xlink:href="#DejaVuSans-6f" transform="translate(730.220703 0)"/>
      <use xlink:href="#DejaVuSans-72" transform="translate(791.402344 0)"/>
      <use xlink:href="#DejaVuSans-64" transform="translate(830.765625 0)"/>
      <use xlink:href="#DejaVuSans-65" transform="translate(894.242188 0)"/>
      <use xlink:href="#DejaVuSans-72" transform="translate(955.765625 0)"/>
      <use xlink:href="#DejaVuSans-20" transform="translate(996.878906 0)"/>
      <use xlink:href="#DejaVuSans-28" transform="translate(1028.666016 0)"/>
      <use xlink:href="#DejaVuSans-4d" transform="translate(1067.679688 0)"/>
      <use xlink:href="#DejaVuSans-44" transform="translate(1153.958984 0)"/>
      <use xlink:href="#DejaVuSans-44" transform="translate(1230.960938 0)"/>
      <use xlink:href="#DejaVuSans-2f" transform="translate(1307.962891 0)"/>
      <use xlink:href="#DejaVuSans-44" transform="translate(1341.654297 0)"/>
      <use xlink:href="#DejaVuSans-44" transform="translate(1418.65625 0)"/>
      <use xlink:href="#DejaVuSans-29" transform="translate(1495.658203 0)"/>
      <use xlink:href="#DejaVuSans-20" transform="translate(1534.671875 0)"/>
      <use xlink:href="#DejaVuSans-b1" transform="translate(1566.458984 0)"/>
      <use xlink:href="#DejaVuSans-31" transform="translate(1650.248047 0)"/>
      <use xlink:href="#DejaVuSans-20" transform="translate(1713.871094 0)"/>
      <use xlink:href="#DejaVuSans-53" transform="translate(1745.658203 0)"/>
      <use xlink:href="#DejaVuSans-44" transform="translate(1809.134766 0)"/>
     </g>
    </g>
    <g id="line2d_34">
     <path d="M 457.46 70.537969 
L 468.46 70.537969 
L 479.46 70.537969 
" style="fill: none; stroke: #ff8c00; stroke-width: 2.3; stroke-linecap: square"/>
    </g>
    <g id="text_21">
     <!-- Patient -->
     <g transform="translate(488.26 74.387969) scale(0.11 -0.11)">
      <defs>
       <path id="DejaVuSans-50" d="M 1259 4147 
L 1259 2394 
L 2053 2394 
Q 2494 2394 2734 2622 
Q 2975 2850 2975 3272 
Q 2975 3691 2734 3919 
Q 2494 4147 2053 4147 
L 1259 4147 
z
M 628 4666 
L 2053 4666 
Q 2838 4666 3239 4311 
Q 3641 3956 3641 3272 
Q 3641 2581 3239 2228 
Q 2838 1875 2053 1875 
L 1259 1875 
L 1259 0 
L 628 0 
L 628 4666 
z
" transform="scale(0.015625)"/>
      </defs>
      <use xlink:href="#DejaVuSans-50"/>
      <use xlink:href="#DejaVuSans-61" transform="translate(55.802734 0)"/>
      <use xlink:href="#DejaVuSans-74" transform="translate(117.082031 0)"/>
      <use xlink:href="#DejaVuSans-69" transform="translate(156.291016 0)"/>
      <use xlink:href="#DejaVuSans-65" transform="translate(184.074219 0)"/>
      <use xlink:href="#DejaVuSans-6e" transform="translate(245.597656 0)"/>
      <use xlink:href="#DejaVuSans-74" transform="translate(308.976562 0)"/>
     </g>
    </g>
   </g>
  </g>
 </g>
 <defs>
  <clipPath id="p77afce2f53">
   <rect x="47.307188" y="23.837812" width="658.33" height="360.28"/>
  </clipPath>
 </defs>
</svg>
