<?xml version="1.0" encoding="utf-8" standalone="no"?>
<!DOCTYPE svg PUBLIC "-//W3C//DTD SVG 1.1//EN"
  "http://www.w3.org/Graphics/SVG/1.1/DTD/svg11.dtd">
<svg xmlns:xlink="http://www.w3.org/1999/xlink" width="712.837188pt" height="424.5775pt" viewBox="0 0 712.837188 424.5775" xmlns="http://www.w3.org/2000/svg" version="1.1">
 <metadata>
  <rdf:RDF xmlns:dc="http://purl.org/dc/elements/1.1/" xmlns:cc="http://creativecommons.org/ns#" xmlns:rdf="http://www.w3.org/1999/02/22-rdf-syntax-ns#">
   <cc:Work>
    <dc:type rdf:resource="http://purl.org/dc/dcmitype/StillImage"/>
    <dc:date>2026-06-14T19:10:34.481909</dc:date>
    <dc:format>image/svg+xml</dc:format>
    <dc:creator>
     <cc:Agent>
      <dc:title>Matplotlib v3.10.1, https://matplotlib.org/</dc:title>
     </cc:Agent>
    </dc:creator>
   </cc:Work>
  </rdf:RDF>
 </metadata>
 <defs>
  <style type="text/css">*{stroke-linejoin: round; stroke-linecap: butt}</style>
 </defs>
 <g id="figure_1">
  <g id="patch_1">
   <path d="M 0 424.5775 
L 712.837188 424.5775 
L 712.837188 0 
L 0 0 
z
" style="fill: #ffffff"/>
  </g>
  <g id="axes_1">
   <g id="patch_2">
    <path d="M 47.307188 384.117812 
L 705.637188 384.117812 
L 705.637188 23.837812 
L 47.307188 23.837812 
z
" style="fill: #ffffff"/>
   </g>
   <g id="matplotlib.axis_1">
    <g id="xtick_1">
     <g id="line2d_1">
      <path d="M 47.307188 384.117812 
L 47.307188 23.837812 
" clip-path="url(#pb0f78edf28)" style="fill: none; stroke: #b0b0b0; stroke-opacity: 0.2; stroke-width: 0.6; stroke-linecap: square"/>
     </g>
     <g id="line2d_2">
      <defs>
       <path id="m0bdb3bb85a" d="M 0 0 
L 0 3.5 
" style="stroke: #000000; stroke-width: 0.8"/>
      </defs>
      <g>
       <use xlink:href="#m0bdb3bb85a" x="47.307188" y="384.117812" style="stroke: #000000; stroke-width: 0.8"/>
      </g>
     </g>
     <g id="text_1">
      <!-- 0 -->
      <g transform="translate(43.807813 399.476094) scale(0.11 -0.11)">
       <defs>
        <path id="DejaVuSans-30" d="M 2034 4250 
Q 1547 4250 1301 3770 
Q 1056 3291 1056 2328 
Q 1056 1369 1301 889 
Q 1547 409 2034 409 
Q 2525 409 2770 889 
Q 3016 1369 3016 2328 
Q 3016 3291 2770 3770 
Q 2525 4250 2034 4250 
z
M 2034 4750 
Q 2819 4750 3233 4129 
Q 3647 3509 3647 2328 
Q 3647 1150 3233 529 
Q 2819 -91 2034 -91 
Q 1250 -91 836 529 
Q 422 1150 422 2328 
Q 422 3509 836 4129 
Q 1250 4750 2034 4750 
z
" transform="scale(0.015625)"/>
       </defs>
       <use xlink:href="#DejaVuSans-30"/>
      </g>
     </g>
    </g>
    <g id="xtick_2">
     <g id="line2d_3">
      <path d="M 134.387875 384.117812 
L 134.387875 23.837812 
" clip-path="url(#pb0f78edf28)" style="fill: none; stroke: #b0b0b0; stroke-opacity: 0.2; stroke-width: 0.6; stroke-linecap: square"/>
     </g>
     <g id="line2d_4">
      <g>
       <use xlink:href="#m0bdb3bb85a" x="134.387875" y="384.117812" style="stroke: #000000; stroke-width: 0.8"/>
      </g>
     </g>
     <g id="text_2">
      <!-- 25 -->
      <g transform="translate(127.389125 399.476094) scale(0.11 -0.11)">
       <defs>
        <path id="DejaVuSans-32" d="M 1228 531 
L 3431 531 
L 3431 0 
L 469 0 
L 469 531 
Q 828 903 1448 1529 
Q 2069 2156 2228 2338 
Q 2531 2678 2651 2914 
Q 2772 3150 2772 3378 
Q 2772 3750 2511 3984 
Q 2250 4219 1831 4219 
Q 1534 4219 1204 4116 
Q 875 4013 500 3803 
L 500 4441 
Q 881 4594 1212 4672 
Q 1544 4750 1819 4750 
Q 2544 4750 2975 4387 
Q 3406 4025 3406 3419 
Q 3406 3131 3298 2873 
Q 3191 2616 2906 2266 
Q 2828 2175 2409 1742 
Q 1991 1309 1228 531 
z
" transform="scale(0.015625)"/>
        <path id="DejaVuSans-35" d="M 691 4666 
L 3169 4666 
L 3169 4134 
L 1269 4134 
L 1269 2991 
Q 1406 3038 1543 3061 
Q 1681 3084 1819 3084 
Q 2600 3084 3056 2656 
Q 3513 2228 3513 1497 
Q 3513 744 3044 326 
Q 2575 -91 1722 -91 
Q 1428 -91 1123 -41 
Q 819 9 494 109 
L 494 744 
Q 775 591 1075 516 
Q 1375 441 1709 441 
Q 2250 441 2565 725 
Q 2881 1009 2881 1497 
Q 2881 1984 2565 2268 
Q 2250 2553 1709 2553 
Q 1456 2553 1204 2497 
Q 953 2441 691 2322 
L 691 4666 
z
" transform="scale(0.015625)"/>
       </defs>
       <use xlink:href="#DejaVuSans-32"/>
       <use xlink:href="#DejaVuSans-35" transform="translate(63.623047 0)"/>
      </g>
     </g>
    </g>
    <g id="xtick_3">
     <g id="line2d_5">
      <path d="M 221.468563 384.117812 
L 221.468563 23.837812 
" clip-path="url(#pb0f78edf28)" style="fill: none; stroke: #b0b0b0; stroke-opacity: 0.2; stroke-width: 0.6; stroke-linecap: square"/>
     </g>
     <g id="line2d_6">
      <g>
       <use xlink:href="#m0bdb3bb85a" x="221.468563" y="384.117812" style="stroke: #000000; stroke-width: 0.8"/>
      </g>
     </g>
     <g id="text_3">
      <!-- 50 -->
      <g transform="translate(214.469813 399.476094) scale(0.11 -0.11)">
       <use xlink:href="#DejaVuSans-35"/>
       <use xlink:href="#DejaVuSans-30" transform="translate(63.623047 0)"/>
      </g>
     </g>
    </g>
    <g id="xtick_4">
     <g id="line2d_7">
      <path d="M 308.549251 384.117812 
L 308.549251 23.837812 
" clip-path="url(#pb0f78edf28)" style="fill: none; stroke: #b0b0b0; stroke-opacity: 0.2; stroke-width: 0.6; stroke-linecap: square"/>
     </g>
     <g id="line2d_8">
      <g>
       <use xlink:href="#m0bdb3bb85a" x="308.549251" y="384.117812" style="stroke: #000000; stroke-width: 0.8"/>
      </g>
     </g>
     <g id="text_4">
      <!-- 75 -->
      <g transform="translate(301.550501 399.476094) scale(0.11 -0.11)">
       <defs>
        <path id="DejaVuSans-37" d="M 525 4666 
L 3525 4666 
L 3525 4397 
L 1831 0 
L 1172 0 
L 2766 4134 
L 525 4134 
L 525 4666 
z
" transform="scale(0.015625)"/>
       </defs>
       <use xlink:href="#DejaVuSans-37"/>
       <use xlink:href="#DejaVuSans-35" transform="translate(63.623047 0)"/>
      </g>
     </g>
    </g>
    <g id="xtick_5">
     <g id="line2d_9">
      <path d="M 395.629939 384.117812 
L 395.629939 23.837812 
" clip-path="url(#pb0f78edf28)" style="fill: none; stroke: #b0b0b0; stroke-opacity: 0.2; stroke-width: 0.6; stroke-linecap: square"/>
     </g>
     <g id="line2d_10">
      <g>
       <use xlink:href="#m0bdb3bb85a" x="395.629939" y="384.117812" style="stroke: #000000; stroke-width: 0.8"/>
      </g>
     </g>
     <g id="text_5">
      <!-- 100 -->
      <g transform="translate(385.131814 399.476094) scale(0.11 -0.11)">
       <defs>
        <path id="DejaVuSans-31" d="M 794 531 
L 1825 531 
L 1825 4091 
L 703 3866 
L 703 4441 
L 1819 4666 
L 2450 4666 
L 2450 531 
L 3481 531 
L 3481 0 
L 794 0 
L 794 531 
z
" transform="scale(0.015625)"/>
       </defs>
       <use xlink:href="#DejaVuSans-31"/>
       <use xlink:href="#DejaVuSans-30" transform="translate(63.623047 0)"/>
       <use xlink:href="#DejaVuSans-30" transform="translate(127.246094 0)"/>
      </g>
     </g>
    </g>
    <g id="xtick_6">
     <g id="line2d_11">
      <path d="M 482.710627 384.117812 
L 482.710627 23.837812 
" clip-path="url(#pb0f78edf28)" style="fill: none; stroke: #b0b0b0; stroke-opacity: 0.2; stroke-width: 0.6; stroke-linecap: square"/>
     </g>
     <g id="line2d_12">
      <g>
       <use xlink:href="#m0bdb3bb85a" x="482.710627" y="384.117812" style="stroke: #000000; stroke-width: 0.8"/>
      </g>
     </g>
     <g id="text_6">
      <!-- 125 -->
      <g transform="translate(472.212502 399.476094) scale(0.11 -0.11)">
       <use xlink:href="#DejaVuSans-31"/>
       <use xlink:href="#DejaVuSans-32" transform="translate(63.623047 0)"/>
       <use xlink:href="#DejaVuSans-35" transform="translate(127.246094 0)"/>
      </g>
     </g>
    </g>
    <g id="xtick_7">
     <g id="line2d_13">
      <path d="M 569.791314 384.117812 
L 569.791314 23.837812 
" clip-path="url(#pb0f78edf28)" style="fill: none; stroke: #b0b0b0; stroke-opacity: 0.2; stroke-width: 0.6; stroke-linecap: square"/>
     </g>
     <g id="line2d_14">
      <g>
       <use xlink:href="#m0bdb3bb85a" x="569.791314" y="384.117812" style="stroke: #000000; stroke-width: 0.8"/>
      </g>
     </g>
     <g id="text_7">
      <!-- 150 -->
      <g transform="translate(559.293189 399.476094) scale(0.11 -0.11)">
       <use xlink:href="#DejaVuSans-31"/>
       <use xlink:href="#DejaVuSans-35" transform="translate(63.623047 0)"/>
       <use xlink:href="#DejaVuSans-30" transform="translate(127.246094 0)"/>
      </g>
     </g>
    </g>
    <g id="xtick_8">
     <g id="line2d_15">
      <path d="M 656.872002 384.117812 
L 656.872002 23.837812 
" clip-path="url(#pb0f78edf28)" style="fill: none; stroke: #b0b0b0; stroke-opacity: 0.2; stroke-width: 0.6; stroke-linecap: square"/>
     </g>
     <g id="line2d_16">
      <g>
       <use xlink:href="#m0bdb3bb85a" x="656.872002" y="384.117812" style="stroke: #000000; stroke-width: 0.8"/>
      </g>
     </g>
     <g id="text_8">
      <!-- 175 -->
      <g transform="translate(646.373877 399.476094) scale(0.11 -0.11)">
       <use xlink:href="#DejaVuSans-31"/>
       <use xlink:href="#DejaVuSans-37" transform="translate(63.623047 0)"/>
       <use xlink:href="#DejaVuSans-35" transform="translate(127.246094 0)"/>
      </g>
     </g>
    </g>
    <g id="text_9">
     <!-- Time (s) -->
     <g transform="translate(352.0775 414.881875) scale(0.12 -0.12)">
      <defs>
       <path id="DejaVuSans-54" d="M -19 4666 
L 3928 4666 
L 3928 4134 
L 2272 4134 
L 2272 0 
L 1638 0 
L 1638 4134 
L -19 4134 
L -19 4666 
z
" transform="scale(0.015625)"/>
       <path id="DejaVuSans-69" d="M 603 3500 
L 1178 3500 
L 1178 0 
L 603 0 
L 603 3500 
z
M 603 4863 
L 1178 4863 
L 1178 4134 
L 603 4134 
L 603 4863 
z
" transform="scale(0.015625)"/>
       <path id="DejaVuSans-6d" d="M 3328 2828 
Q 3544 3216 3844 3400 
Q 4144 3584 4550 3584 
Q 5097 3584 5394 3201 
Q 5691 2819 5691 2113 
L 5691 0 
L 5113 0 
L 5113 2094 
Q 5113 2597 4934 2840 
Q 4756 3084 4391 3084 
Q 3944 3084 3684 2787 
Q 3425 2491 3425 1978 
L 3425 0 
L 2847 0 
L 2847 2094 
Q 2847 2600 2669 2842 
Q 2491 3084 2119 3084 
Q 1678 3084 1418 2786 
Q 1159 2488 1159 1978 
L 1159 0 
L 581 0 
L 581 3500 
L 1159 3500 
L 1159 2956 
Q 1356 3278 1631 3431 
Q 1906 3584 2284 3584 
Q 2666 3584 2933 3390 
Q 3200 3197 3328 2828 
z
" transform="scale(0.015625)"/>
       <path id="DejaVuSans-65" d="M 3597 1894 
L 3597 1613 
L 953 1613 
Q 991 1019 1311 708 
Q 1631 397 2203 397 
Q 2534 397 2845 478 
Q 3156 559 3463 722 
L 3463 178 
Q 3153 47 2828 -22 
Q 2503 -91 2169 -91 
Q 1331 -91 842 396 
Q 353 884 353 1716 
Q 353 2575 817 3079 
Q 1281 3584 2069 3584 
Q 2775 3584 3186 3129 
Q 3597 2675 3597 1894 
z
M 3022 2063 
Q 3016 2534 2758 2815 
Q 2500 3097 2075 3097 
Q 1594 3097 1305 2825 
Q 1016 2553 972 2059 
L 3022 2063 
z
" transform="scale(0.015625)"/>
       <path id="DejaVuSans-20" transform="scale(0.015625)"/>
       <path id="DejaVuSans-28" d="M 1984 4856 
Q 1566 4138 1362 3434 
Q 1159 2731 1159 2009 
Q 1159 1288 1364 580 
Q 1569 -128 1984 -844 
L 1484 -844 
Q 1016 -109 783 600 
Q 550 1309 550 2009 
Q 550 2706 781 3412 
Q 1013 4119 1484 4856 
L 1984 4856 
z
" transform="scale(0.015625)"/>
       <path id="DejaVuSans-73" d="M 2834 3397 
L 2834 2853 
Q 2591 2978 2328 3040 
Q 2066 3103 1784 3103 
Q 1356 3103 1142 2972 
Q 928 2841 928 2578 
Q 928 2378 1081 2264 
Q 1234 2150 1697 2047 
L 1894 2003 
Q 2506 1872 2764 1633 
Q 3022 1394 3022 966 
Q 3022 478 2636 193 
Q 2250 -91 1575 -91 
Q 1294 -91 989 -36 
Q 684 19 347 128 
L 347 722 
Q 666 556 975 473 
Q 1284 391 1588 391 
Q 1994 391 2212 530 
Q 2431 669 2431 922 
Q 2431 1156 2273 1281 
Q 2116 1406 1581 1522 
L 1381 1569 
Q 847 1681 609 1914 
Q 372 2147 372 2553 
Q 372 3047 722 3315 
Q 1072 3584 1716 3584 
Q 2034 3584 2315 3537 
Q 2597 3491 2834 3397 
z
" transform="scale(0.015625)"/>
       <path id="DejaVuSans-29" d="M 513 4856 
L 1013 4856 
Q 1481 4119 1714 3412 
Q 1947 2706 1947 2009 
Q 1947 1309 1714 600 
Q 1481 -109 1013 -844 
L 513 -844 
Q 928 -128 1133 580 
Q 1338 1288 1338 2009 
Q 1338 2731 1133 3434 
Q 928 4138 513 4856 
z
" transform="scale(0.015625)"/>
      </defs>
      <use xlink:href="#DejaVuSans-54"/>
      <use xlink:href="#DejaVuSans-69" transform="translate(57.958984 0)"/>
      <use xlink:href="#DejaVuSans-6d" transform="translate(85.742188 0)"/>
      <use xlink:href="#DejaVuSans-65" transform="translate(183.154297 0)"/>
      <use xlink:href="#DejaVuSans-20" transform="translate(244.677734 0)"/>
      <use xlink:href="#DejaVuSans-28" transform="translate(276.464844 0)"/>
      <use xlink:href="#DejaVuSans-73" transform="translate(315.478516 0)"/>
      <use xlink:href="#DejaVuSans-29" transform="translate(367.578125 0)"/>
     </g>
    </g>
   </g>
   <g id="matplotlib.axis_2">
    <g id="ytick_1">
     <g id="line2d_17">
      <path d="M 47.307188 367.741449 
L 705.637188 367.741449 
" clip-path="url(#pb0f78edf28)" style="fill: none; stroke: #b0b0b0; stroke-opacity: 0.2; stroke-width: 0.6; stroke-linecap: square"/>
     </g>
     <g id="line2d_18">
      <defs>
       <path id="m68cd1ab70c" d="M 0 0 
L -3.5 0 
" style="stroke: #000000; stroke-width: 0.8"/>
      </defs>
      <g>
       <use xlink:href="#m68cd1ab70c" x="47.307188" y="367.741449" style="stroke: #000000; stroke-width: 0.8"/>
      </g>
     </g>
     <g id="text_10">
      <!-- 0.0 -->
      <g transform="translate(22.81375 371.920589) scale(0.11 -0.11)">
       <defs>
        <path id="DejaVuSans-2e" d="M 684 794 
L 1344 794 
L 1344 0 
L 684 0 
L 684 794 
z
" transform="scale(0.015625)"/>
       </defs>
       <use xlink:href="#DejaVuSans-30"/>
       <use xlink:href="#DejaVuSans-2e" transform="translate(63.623047 0)"/>
       <use xlink:href="#DejaVuSans-30" transform="translate(95.410156 0)"/>
      </g>
     </g>
    </g>
    <g id="ytick_2">
     <g id="line2d_19">
      <path d="M 47.307188 317.507205 
L 705.637188 317.507205 
" clip-path="url(#pb0f78edf28)" style="fill: none; stroke: #b0b0b0; stroke-opacity: 0.2; stroke-width: 0.6; stroke-linecap: square"/>
     </g>
     <g id="line2d_20">
      <g>
       <use xlink:href="#m68cd1ab70c" x="47.307188" y="317.507205" style="stroke: #000000; stroke-width: 0.8"/>
      </g>
     </g>
     <g id="text_11">
      <!-- 0.5 -->
      <g transform="translate(22.81375 321.686345) scale(0.11 -0.11)">
       <use xlink:href="#DejaVuSans-30"/>
       <use xlink:href="#DejaVuSans-2e" transform="translate(63.623047 0)"/>
       <use xlink:href="#DejaVuSans-35" transform="translate(95.410156 0)"/>
      </g>
     </g>
    </g>
    <g id="ytick_3">
     <g id="line2d_21">
      <path d="M 47.307188 267.27296 
L 705.637188 267.27296 
" clip-path="url(#pb0f78edf28)" style="fill: none; stroke: #b0b0b0; stroke-opacity: 0.2; stroke-width: 0.6; stroke-linecap: square"/>
     </g>
     <g id="line2d_22">
      <g>
       <use xlink:href="#m68cd1ab70c" x="47.307188" y="267.27296" style="stroke: #000000; stroke-width: 0.8"/>
      </g>
     </g>
     <g id="text_12">
      <!-- 1.0 -->
      <g transform="translate(22.81375 271.452101) scale(0.11 -0.11)">
       <use xlink:href="#DejaVuSans-31"/>
       <use xlink:href="#DejaVuSans-2e" transform="translate(63.623047 0)"/>
       <use xlink:href="#DejaVuSans-30" transform="translate(95.410156 0)"/>
      </g>
     </g>
    </g>
    <g id="ytick_4">
     <g id="line2d_23">
      <path d="M 47.307188 217.038716 
L 705.637188 217.038716 
" clip-path="url(#pb0f78edf28)" style="fill: none; stroke: #b0b0b0; stroke-opacity: 0.2; stroke-width: 0.6; stroke-linecap: square"/>
     </g>
     <g id="line2d_24">
      <g>
       <use xlink:href="#m68cd1ab70c" x="47.307188" y="217.038716" style="stroke: #000000; stroke-width: 0.8"/>
      </g>
     </g>
     <g id="text_13">
      <!-- 1.5 -->
      <g transform="translate(22.81375 221.217857) scale(0.11 -0.11)">
       <use xlink:href="#DejaVuSans-31"/>
       <use xlink:href="#DejaVuSans-2e" transform="translate(63.623047 0)"/>
       <use xlink:href="#DejaVuSans-35" transform="translate(95.410156 0)"/>
      </g>
     </g>
    </g>
    <g id="ytick_5">
     <g id="line2d_25">
      <path d="M 47.307188 166.804472 
L 705.637188 166.804472 
" clip-path="url(#pb0f78edf28)" style="fill: none; stroke: #b0b0b0; stroke-opacity: 0.2; stroke-width: 0.6; stroke-linecap: square"/>
     </g>
     <g id="line2d_26">
      <g>
       <use xlink:href="#m68cd1ab70c" x="47.307188" y="166.804472" style="stroke: #000000; stroke-width: 0.8"/>
      </g>
     </g>
     <g id="text_14">
      <!-- 2.0 -->
      <g transform="translate(22.81375 170.983612) scale(0.11 -0.11)">
       <use xlink:href="#DejaVuSans-32"/>
       <use xlink:href="#DejaVuSans-2e" transform="translate(63.623047 0)"/>
       <use xlink:href="#DejaVuSans-30" transform="translate(95.410156 0)"/>
      </g>
     </g>
    </g>
    <g id="ytick_6">
     <g id="line2d_27">
      <path d="M 47.307188 116.570227 
L 705.637188 116.570227 
" clip-path="url(#pb0f78edf28)" style="fill: none; stroke: #b0b0b0; stroke-opacity: 0.2; stroke-width: 0.6; stroke-linecap: square"/>
     </g>
     <g id="line2d_28">
      <g>
       <use xlink:href="#m68cd1ab70c" x="47.307188" y="116.570227" style="stroke: #000000; stroke-width: 0.8"/>
      </g>
     </g>
     <g id="text_15">
      <!-- 2.5 -->
      <g transform="translate(22.81375 120.749368) scale(0.11 -0.11)">
       <use xlink:href="#DejaVuSans-32"/>
       <use xlink:href="#DejaVuSans-2e" transform="translate(63.623047 0)"/>
       <use xlink:href="#DejaVuSans-35" transform="translate(95.410156 0)"/>
      </g>
     </g>
    </g>
    <g id="ytick_7">
     <g id="line2d_29">
      <path d="M 47.307188 66.335983 
L 705.637188 66.335983 
" clip-path="url(#pb0f78edf28)" style="fill: none; stroke: #b0b0b0; stroke-opacity: 0.2; stroke-width: 0.6; stroke-linecap: square"/>
     </g>
     <g id="line2d_30">
      <g>
       <use xlink:href="#m68cd1ab70c" x="47.307188" y="66.335983" style="stroke: #000000; stroke-width: 0.8"/>
      </g>
     </g>
     <g id="text_16">
      <!-- 3.0 -->
      <g transform="translate(22.81375 70.515124) scale(0.11 -0.11)">
       <defs>
        <path id="DejaVuSans-33" d="M 2597 2516 
Q 3050 2419 3304 2112 
Q 3559 1806 3559 1356 
Q 3559 666 3084 287 
Q 2609 -91 1734 -91 
Q 1441 -91 1130 -33 
Q 819 25 488 141 
L 488 750 
Q 750 597 1062 519 
Q 1375 441 1716 441 
Q 2309 441 2620 675 
Q 2931 909 2931 1356 
Q 2931 1769 2642 2001 
Q 2353 2234 1838 2234 
L 1294 2234 
L 1294 2753 
L 1863 2753 
Q 2328 2753 2575 2939 
Q 2822 3125 2822 3475 
Q 2822 3834 2567 4026 
Q 2313 4219 1838 4219 
Q 1578 4219 1281 4162 
Q 984 4106 628 3988 
L 628 4550 
Q 988 4650 1302 4700 
Q 1616 4750 1894 4750 
Q 2613 4750 3031 4423 
Q 3450 4097 3450 3541 
Q 3450 3153 3228 2886 
Q 3006 2619 2597 2516 
z
" transform="scale(0.015625)"/>
       </defs>
       <use xlink:href="#DejaVuSans-33"/>
       <use xlink:href="#DejaVuSans-2e" transform="translate(63.623047 0)"/>
       <use xlink:href="#DejaVuSans-30" transform="translate(95.410156 0)"/>
      </g>
     </g>
    </g>
    <g id="text_17">
     <!-- AU mean intensity -->
     <g transform="translate(16.318125 259.314687) rotate(-90) scale(0.12 -0.12)">
      <defs>
       <path id="DejaVuSans-41" d="M 2188 4044 
L 1331 1722 
L 3047 1722 
L 2188 4044 
z
M 1831 4666 
L 2547 4666 
L 4325 0 
L 3669 0 
L 3244 1197 
L 1141 1197 
L 716 0 
L 50 0 
L 1831 4666 
z
" transform="scale(0.015625)"/>
       <path id="DejaVuSans-55" d="M 556 4666 
L 1191 4666 
L 1191 1831 
Q 1191 1081 1462 751 
Q 1734 422 2344 422 
Q 2950 422 3222 751 
Q 3494 1081 3494 1831 
L 3494 4666 
L 4128 4666 
L 4128 1753 
Q 4128 841 3676 375 
Q 3225 -91 2344 -91 
Q 1459 -91 1007 375 
Q 556 841 556 1753 
L 556 4666 
z
" transform="scale(0.015625)"/>
       <path id="DejaVuSans-61" d="M 2194 1759 
Q 1497 1759 1228 1600 
Q 959 1441 959 1056 
Q 959 750 1161 570 
Q 1363 391 1709 391 
Q 2188 391 2477 730 
Q 2766 1069 2766 1631 
L 2766 1759 
L 2194 1759 
z
M 3341 1997 
L 3341 0 
L 2766 0 
L 2766 531 
Q 2569 213 2275 61 
Q 1981 -91 1556 -91 
Q 1019 -91 701 211 
Q 384 513 384 1019 
Q 384 1609 779 1909 
Q 1175 2209 1959 2209 
L 2766 2209 
L 2766 2266 
Q 2766 2663 2505 2880 
Q 2244 3097 1772 3097 
Q 1472 3097 1187 3025 
Q 903 2953 641 2809 
L 641 3341 
Q 956 3463 1253 3523 
Q 1550 3584 1831 3584 
Q 2591 3584 2966 3190 
Q 3341 2797 3341 1997 
z
" transform="scale(0.015625)"/>
       <path id="DejaVuSans-6e" d="M 3513 2113 
L 3513 0 
L 2938 0 
L 2938 2094 
Q 2938 2591 2744 2837 
Q 2550 3084 2163 3084 
Q 1697 3084 1428 2787 
Q 1159 2491 1159 1978 
L 1159 0 
L 581 0 
L 581 3500 
L 1159 3500 
L 1159 2956 
Q 1366 3272 1645 3428 
Q 1925 3584 2291 3584 
Q 2894 3584 3203 3211 
Q 3513 2838 3513 2113 
z
" transform="scale(0.015625)"/>
       <path id="DejaVuSans-74" d="M 1172 4494 
L 1172 3500 
L 2356 3500 
L 2356 3053 
L 1172 3053 
L 1172 1153 
Q 1172 725 1289 603 
Q 1406 481 1766 481 
L 2356 481 
L 2356 0 
L 1766 0 
Q 1100 0 847 248 
Q 594 497 594 1153 
L 594 3053 
L 172 3053 
L 172 3500 
L 594 3500 
L 594 4494 
L 1172 4494 
z
" transform="scale(0.015625)"/>
       <path id="DejaVuSans-79" d="M 2059 -325 
Q 1816 -950 1584 -1140 
Q 1353 -1331 966 -1331 
L 506 -1331 
L 506 -850 
L 844 -850 
Q 1081 -850 1212 -737 
Q 1344 -625 1503 -206 
L 1606 56 
L 191 3500 
L 800 3500 
L 1894 763 
L 2988 3500 
L 3597 3500 
L 2059 -325 
z
" transform="scale(0.015625)"/>
      </defs>
      <use xlink:href="#DejaVuSans-41"/>
      <use xlink:href="#DejaVuSans-55" transform="translate(68.408203 0)"/>
      <use xlink:href="#DejaVuSans-20" transform="translate(141.601562 0)"/>
      <use xlink:href="#DejaVuSans-6d" transform="translate(173.388672 0)"/>
      <use xlink:href="#DejaVuSans-65" transform="translate(270.800781 0)"/>
      <use xlink:href="#DejaVuSans-61" transform="translate(332.324219 0)"/>
      <use xlink:href="#DejaVuSans-6e" transform="translate(393.603516 0)"/>
      <use xlink:href="#DejaVuSans-20" transform="translate(456.982422 0)"/>
      <use xlink:href="#DejaVuSans-69" transform="translate(488.769531 0)"/>
      <use xlink:href="#DejaVuSans-6e" transform="translate(516.552734 0)"/>
      <use xlink:href="#DejaVuSans-74" transform="translate(579.931641 0)"/>
      <use xlink:href="#DejaVuSans-65" transform="translate(619.140625 0)"/>
      <use xlink:href="#DejaVuSans-6e" transform="translate(680.664062 0)"/>
      <use xlink:href="#DejaVuSans-73" transform="translate(744.042969 0)"/>
      <use xlink:href="#DejaVuSans-69" transform="translate(796.142578 0)"/>
      <use xlink:href="#DejaVuSans-74" transform="translate(823.925781 0)"/>
      <use xlink:href="#DejaVuSans-79" transform="translate(863.134766 0)"/>
     </g>
    </g>
   </g>
   <g id="FillBetweenPolyCollection_1">
    <defs>
     <path id="mf197b50098" d="M 47.307188 -217.474376 
L 47.307188 20.769254 
L 50.790415 11.961188 
L 54.273643 11.637064 
L 57.75687 14.778109 
L 61.240098 7.507733 
L 64.723325 1.93009 
L 68.206553 6.363408 
L 71.68978 4.798608 
L 75.173008 3.499208 
L 78.656235 1.020558 
L 82.139463 9.519879 
L 85.62269 5.645091 
L 89.105918 6.178697 
L 92.589145 0.569448 
L 96.072373 0.607868 
L 99.5556 -2.672045 
L 103.038828 -1.4227 
L 106.522055 3.228077 
L 110.005283 6.627617 
L 113.48851 5.288656 
L 116.971738 6.59159 
L 120.454965 4.219297 
L 123.938193 5.306036 
L 127.42142 2.553095 
L 130.904648 2.985068 
L 134.387875 7.444195 
L 137.871103 -0.923767 
L 141.35433 1.199022 
L 144.837558 0.554085 
L 148.320785 0.450805 
L 151.804013 5.856298 
L 155.28724 3.377341 
L 158.770468 1.831241 
L 162.253695 0.803352 
L 165.736923 3.986758 
L 169.22015 -4.029065 
L 172.703378 -1.98742 
L 176.186605 -2.055555 
L 179.669833 -0.841989 
L 183.153061 2.517872 
L 186.636288 -1.178415 
L 190.119516 -2.892236 
L 193.602743 -6.982198 
L 197.085971 -10.460146 
L 200.569198 -23.395427 
L 204.052426 -10.659129 
L 207.535653 0.423857 
L 211.018881 13.150252 
L 214.502108 10.012041 
L 217.985336 8.474464 
L 221.468563 3.957141 
L 224.951791 0.218463 
L 228.435018 -23.889088 
L 231.918246 -22.034584 
L 235.401473 -9.270168 
L 238.884701 -14.79827 
L 242.367928 -4.88347 
L 245.851156 -11.466294 
L 249.334383 -1.088262 
L 252.817611 0.446419 
L 256.300838 8.167032 
L 259.784066 -3.231645 
L 263.267293 -17.039096 
L 266.750521 12.675595 
L 270.233748 18.321299 
L 273.716976 3.003591 
L 277.200203 2.21542 
L 280.683431 -2.846581 
L 284.166658 8.879764 
L 287.649886 5.546536 
L 291.133113 7.230192 
L 294.616341 10.582265 
L 298.099568 6.502354 
L 301.582796 9.477183 
L 305.066023 12.676683 
L 308.549251 12.467834 
L 312.032479 11.628796 
L 315.515706 38.02299 
L 318.998934 45.259221 
L 322.482161 65.851926 
L 325.965389 57.983796 
L 329.448616 50.443619 
L 332.931844 52.398168 
L 336.415071 51.452444 
L 339.898299 49.358771 
L 343.381526 41.789325 
L 346.864754 39.684627 
L 350.347981 40.460284 
L 353.831209 35.70593 
L 357.314436 34.651793 
L 360.797664 36.553832 
L 364.280891 35.187534 
L 367.764119 37.898411 
L 371.247346 31.875677 
L 374.730574 31.906941 
L 378.213801 23.660663 
L 381.697029 32.79312 
L 385.180256 28.286489 
L 388.663484 25.844321 
L 392.146711 22.394875 
L 395.629939 16.978275 
L 399.113166 30.353621 
L 402.596394 34.3634 
L 406.079621 22.396516 
L 409.562849 23.375281 
L 413.046076 30.824002 
L 416.529304 25.498714 
L 420.012531 6.16493 
L 423.495759 -9.262129 
L 426.978986 -12.006721 
L 430.462214 2.085194 
L 433.945441 11.747744 
L 437.428669 21.253944 
L 440.911896 20.813832 
L 444.395124 -6.355587 
L 447.878352 17.081605 
L 451.361579 17.90138 
L 454.844807 2.695184 
L 458.328034 -13.991325 
L 461.811262 -10.770519 
L 465.294489 0.925868 
L 468.777717 4.057359 
L 472.260944 -17.702936 
L 475.744172 -21.668136 
L 479.227399 -7.017869 
L 482.710627 33.788382 
L 486.193854 62.75463 
L 489.677082 59.09665 
L 493.160309 49.445476 
L 496.643537 46.153057 
L 500.126764 48.606945 
L 503.609992 50.247229 
L 507.093219 52.624813 
L 510.576447 58.865101 
L 514.059674 76.470706 
L 517.542902 75.891243 
L 521.026129 69.070895 
L 524.509357 52.537662 
L 527.992584 55.618985 
L 531.475812 51.414556 
L 534.959039 60.21028 
L 538.442267 69.490338 
L 541.925494 76.245666 
L 545.408722 72.723134 
L 548.891949 70.014647 
L 552.375177 63.564043 
L 555.858404 58.961301 
L 559.341632 53.112168 
L 562.824859 50.392029 
L 566.308087 53.106826 
L 569.791314 47.706832 
L 573.274542 46.314891 
L 576.75777 42.437244 
L 580.240997 34.494912 
L 583.724225 46.765407 
L 587.207452 51.941924 
L 590.69068 34.331587 
L 594.173907 18.015079 
L 597.657135 30.009544 
L 601.140362 7.178382 
L 604.62359 -9.853391 
L 608.106817 14.265846 
L 611.590045 36.198429 
L 615.073272 38.951147 
L 618.5565 39.162286 
L 622.039727 56.866603 
L 625.522955 63.217029 
L 629.006182 60.883913 
L 632.48941 62.446633 
L 635.972637 69.314577 
L 639.455865 69.072448 
L 642.939092 56.989476 
L 646.42232 47.636205 
L 649.905547 45.228222 
L 653.388775 52.883143 
L 656.872002 47.206752 
L 660.35523 43.105494 
L 663.838457 56.174394 
L 667.321685 47.390982 
L 670.804912 47.520884 
L 674.28814 49.832675 
L 677.771367 47.020383 
L 681.254595 48.945309 
L 684.737822 44.325865 
L 688.22105 47.429519 
L 691.704277 -214.280059 
L 695.187505 -208.448733 
L 698.670732 -211.017084 
L 702.15396 -200.21651 
L 705.637188 -226.284197 
L 705.637188 -238.381747 
L 705.637188 -238.381747 
L 702.15396 -237.644718 
L 698.670732 -223.322719 
L 695.187505 -233.366417 
L 691.704277 -235.164661 
L 688.22105 -286.947268 
L 684.737822 -267.450879 
L 681.254595 -277.183898 
L 677.771367 -273.124808 
L 674.28814 -279.129963 
L 670.804912 -274.237358 
L 667.321685 -273.998308 
L 663.838457 -292.729852 
L 660.35523 -288.499347 
L 656.872002 -286.441369 
L 653.388775 -290.401563 
L 649.905547 -269.42721 
L 646.42232 -274.405576 
L 642.939092 -293.902924 
L 639.455865 -319.878636 
L 635.972637 -320.25897 
L 632.48941 -305.258554 
L 629.006182 -301.966226 
L 625.522955 -306.903998 
L 622.039727 -294.957957 
L 618.5565 -256.792266 
L 615.073272 -256.024956 
L 611.590045 -254.897912 
L 608.106817 -232.991034 
L 604.62359 -241.309298 
L 601.140362 -248.89584 
L 597.657135 -252.436084 
L 594.173907 -235.331398 
L 590.69068 -258.508224 
L 587.207452 -283.323832 
L 583.724225 -272.702943 
L 580.240997 -247.088057 
L 576.75777 -263.54581 
L 573.274542 -271.830362 
L 569.791314 -274.692265 
L 566.308087 -285.886054 
L 562.824859 -280.315896 
L 559.341632 -285.937588 
L 555.858404 -298.143392 
L 552.375177 -307.498737 
L 548.891949 -321.252957 
L 545.408722 -326.635389 
L 541.925494 -334.138664 
L 538.442267 -320.042095 
L 534.959039 -300.764361 
L 531.475812 -282.311443 
L 527.992584 -291.236066 
L 524.509357 -284.427685 
L 521.026129 -319.16408 
L 517.542902 -333.38341 
L 514.059674 -334.363703 
L 510.576447 -297.926496 
L 507.093219 -284.979368 
L 503.609992 -279.989306 
L 500.126764 -276.521441 
L 496.643537 -271.426018 
L 493.160309 -278.213414 
L 489.677082 -299.266663 
L 486.193854 -313.398772 
L 482.710627 -290.241219 
L 479.227399 -225.909249 
L 475.744172 -208.374192 
L 472.260944 -176.127896 
L 468.777717 -192.341749 
L 465.294489 -211.220568 
L 461.811262 -201.857271 
L 458.328034 -154.80881 
L 454.844807 -223.31426 
L 451.361579 -267.530034 
L 447.878352 -232.989055 
L 444.395124 -196.441787 
L 440.911896 -227.575186 
L 437.428669 -220.49711 
L 433.945441 -206.799322 
L 430.462214 -179.462961 
L 426.978986 -149.416784 
L 423.495759 -166.300722 
L 420.012531 -195.915929 
L 416.529304 -227.820754 
L 413.046076 -239.363763 
L 409.562849 -223.741966 
L 406.079621 -221.108843 
L 402.596394 -246.926744 
L 399.113166 -240.602501 
L 395.629939 -238.85386 
L 392.146711 -248.25679 
L 388.663484 -237.489404 
L 385.180256 -233.858388 
L 381.697029 -243.26067 
L 378.213801 -223.943531 
L 374.730574 -241.747913 
L 371.247346 -241.639537 
L 367.764119 -254.286039 
L 364.280891 -248.404277 
L 360.797664 -251.191364 
L 357.314436 -247.395064 
L 353.831209 -249.716884 
L 350.347981 -259.555011 
L 346.864754 -258.027609 
L 343.381526 -262.339113 
L 339.898299 -278.115907 
L 336.415071 -282.360879 
L 332.931844 -284.482647 
L 329.448616 -280.231888 
L 325.965389 -296.042368 
L 322.482161 -312.350299 
L 318.998934 -269.187387 
L 315.515706 -250.454462 
L 312.032479 -199.474731 
L 308.549251 -201.225696 
L 305.066023 -201.656939 
L 301.582796 -194.608941 
L 298.099568 -188.763105 
L 294.616341 -197.042055 
L 291.133113 -190.063506 
L 287.649886 -186.763488 
L 284.166658 -193.365946 
L 280.683431 -169.824775 
L 277.200203 -181.786208 
L 273.716976 -181.379709 
L 270.233748 -212.584253 
L 266.750521 -199.412539 
L 263.267293 -138.851378 
L 259.784066 -164.035199 
L 256.300838 -192.231895 
L 252.817611 -175.866224 
L 249.334383 -176.602793 
L 245.851156 -161.655438 
L 242.367928 -172.159401 
L 238.884701 -167.354078 
L 235.401473 -162.533218 
L 231.918246 -164.910226 
L 228.435018 -175.051593 
L 224.951791 -175.245632 
L 221.468563 -182.804124 
L 217.985336 -192.832499 
L 214.502108 -195.989045 
L 211.018881 -202.624097 
L 207.535653 -175.770648 
L 204.052426 -152.554331 
L 200.569198 -126.607378 
L 197.085971 -159.855397 
L 193.602743 -174.306277 
L 190.119516 -169.120878 
L 186.636288 -172.753175 
L 183.153061 -180.385874 
L 179.669833 -173.478511 
L 176.186605 -170.846763 
L 172.703378 -170.647802 
L 169.22015 -166.33267 
L 165.736923 -183.28747 
L 162.253695 -176.86985 
L 158.770468 -179.036158 
L 155.28724 -181.256891 
L 151.804013 -187.328426 
L 148.320785 -176.147764 
L 144.837558 -176.106134 
L 141.35433 -177.600415 
L 137.871103 -173.321111 
L 134.387875 -190.462651 
L 130.904648 -181.464747 
L 127.42142 -180.374904 
L 123.938193 -186.324434 
L 120.454965 -183.946543 
L 116.971738 -188.992781 
L 113.48851 -186.216905 
L 110.005283 -188.985596 
L 106.522055 -181.650388 
L 103.038828 -172.119979 
L 99.5556 -169.618223 
L 96.072373 -176.192326 
L 92.589145 -176.324147 
L 89.105918 -188.136962 
L 85.62269 -186.885139 
L 82.139463 -194.924322 
L 78.656235 -177.225633 
L 75.173008 -182.411009 
L 71.68978 -184.91849 
L 68.206553 -188.213643 
L 64.723325 -178.481608 
L 61.240098 -190.870396 
L 57.75687 -205.730111 
L 54.273643 -199.41818 
L 50.790415 -200.095452 
L 47.307188 -217.474376 
z
" style="stroke: #d3d3d3; stroke-opacity: 0.5"/>
    </defs>
    <g clip-path="url(#pb0f78edf28)">
     <use xlink:href="#mf197b50098" x="0" y="424.5775" style="fill: #d3d3d3; fill-opacity: 0.5; stroke: #d3d3d3; stroke-opacity: 0.5"/>
    </g>
   </g>
   <g id="FillBetweenPolyCollection_2">
    <defs>
     <path id="m0b0c333cfc" d="M 47.307188 -157.913469 
L 47.307188 -38.791653 
L 50.790415 -41.052972 
L 54.273643 -41.126747 
L 57.75687 -40.348946 
L 61.240098 -42.086799 
L 64.723325 -43.172835 
L 68.206553 -42.280855 
L 71.68978 -42.630666 
L 75.173008 -42.978346 
L 78.656235 -43.54099 
L 82.139463 -41.591171 
L 85.62269 -42.487467 
L 89.105918 -42.400218 
L 92.589145 -43.653951 
L 96.072373 -43.59218 
L 99.5556 -44.40859 
L 103.038828 -44.09702 
L 106.522055 -42.991539 
L 110.005283 -42.275686 
L 113.48851 -42.587734 
L 116.971738 -42.304503 
L 120.454965 -42.822163 
L 123.938193 -42.601582 
L 127.42142 -43.178905 
L 130.904648 -43.127386 
L 134.387875 -42.032516 
L 137.871103 -44.023103 
L 141.35433 -43.500837 
L 144.837558 -43.61097 
L 148.320785 -43.698837 
L 151.804013 -42.439883 
L 155.28724 -42.781217 
L 158.770468 -43.385609 
L 162.253695 -43.614948 
L 165.736923 -42.831799 
L 169.22015 -44.604967 
L 172.703378 -44.152515 
L 176.186605 -44.253357 
L 179.669833 -44.001119 
L 183.153061 -43.208065 
L 186.636288 -44.072105 
L 190.119516 -44.449397 
L 193.602743 -48.813218 
L 197.085971 -47.808959 
L 200.569198 -49.198414 
L 204.052426 -46.13293 
L 207.535653 -43.624769 
L 211.018881 -40.793335 
L 214.502108 -41.488231 
L 217.985336 -41.852277 
L 221.468563 -42.733175 
L 224.951791 -43.647561 
L 228.435018 -61.679714 
L 231.918246 -57.753495 
L 235.401473 -47.58593 
L 238.884701 -52.937222 
L 242.367928 -46.702453 
L 245.851156 -49.01358 
L 249.334383 -44.966895 
L 252.817611 -43.631741 
L 256.300838 -41.9327 
L 259.784066 -43.432534 
L 263.267293 -47.492166 
L 266.750521 -40.346439 
L 270.233748 -39.405089 
L 273.716976 -43.092234 
L 277.200203 -43.784987 
L 280.683431 -44.591129 
L 284.166658 -41.681664 
L 287.649886 -42.53097 
L 291.133113 -42.093232 
L 294.616341 -41.323815 
L 298.099568 -42.314011 
L 301.582796 -41.544348 
L 305.066023 -40.906723 
L 308.549251 -40.955549 
L 312.032479 -41.147086 
L 315.515706 -34.096373 
L 318.998934 -33.352431 
L 322.482161 -28.69863 
L 325.965389 -30.522745 
L 329.448616 -32.225258 
L 332.931844 -31.822036 
L 336.415071 -32.000887 
L 339.898299 -32.509898 
L 343.381526 -34.242784 
L 346.864754 -34.743432 
L 350.347981 -34.54354 
L 353.831209 -35.649774 
L 357.314436 -35.859921 
L 360.797664 -35.382467 
L 364.280891 -35.710419 
L 367.764119 -35.147701 
L 371.247346 -36.503127 
L 374.730574 -36.506772 
L 378.213801 -38.240386 
L 381.697029 -36.220327 
L 385.180256 -37.24973 
L 388.663484 -39.98911 
L 392.146711 -45.268041 
L 395.629939 -46.979758 
L 399.113166 -37.38541 
L 402.596394 -35.959136 
L 406.079621 -38.479823 
L 409.562849 -38.404031 
L 413.046076 -36.72294 
L 416.529304 -37.831153 
L 420.012531 -44.355285 
L 423.495759 -48.521778 
L 426.978986 -46.359236 
L 430.462214 -43.301845 
L 433.945441 -42.889023 
L 437.428669 -39.18382 
L 440.911896 -41.283422 
L 444.395124 -53.877137 
L 447.878352 -45.43606 
L 451.361579 -53.456473 
L 454.844807 -53.807177 
L 458.328034 -49.195696 
L 461.811262 -58.542207 
L 465.294489 -52.110741 
L 468.777717 -45.042418 
L 472.260944 -57.309176 
L 475.744172 -68.34465 
L 479.227399 -61.740714 
L 482.710627 -47.219018 
L 486.193854 -31.28372 
L 489.677082 -30.494178 
L 493.160309 -32.469247 
L 496.643537 -33.241712 
L 500.126764 -32.675152 
L 503.609992 -32.311905 
L 507.093219 -31.776233 
L 510.576447 -30.332799 
L 514.059674 -26.237896 
L 517.542902 -26.42742 
L 521.026129 -27.987849 
L 524.509357 -31.703675 
L 527.992584 -31.094778 
L 531.475812 -32.016944 
L 534.959039 -30.03338 
L 538.442267 -27.89277 
L 541.925494 -26.350416 
L 545.408722 -27.116497 
L 548.891949 -27.802254 
L 552.375177 -29.201652 
L 555.858404 -30.314872 
L 559.341632 -31.650271 
L 562.824859 -32.284952 
L 566.308087 -31.641394 
L 569.791314 -32.892942 
L 573.274542 -33.221422 
L 576.75777 -34.05852 
L 580.240997 -35.90083 
L 583.724225 -33.10168 
L 587.207452 -31.874515 
L 590.69068 -38.878365 
L 594.173907 -45.32154 
L 597.657135 -40.601863 
L 601.140362 -56.840174 
L 604.62359 -67.717368 
L 608.106817 -47.548374 
L 611.590045 -36.575657 
L 615.073272 -34.792879 
L 618.5565 -34.826352 
L 622.039727 -31.089537 
L 625.522955 -29.313228 
L 629.006182 -29.828622 
L 632.48941 -29.479664 
L 635.972637 -28.078809 
L 639.455865 -28.165323 
L 642.939092 -30.733624 
L 646.42232 -32.874241 
L 649.905547 -33.435636 
L 653.388775 -32.938034 
L 656.872002 -36.205278 
L 660.35523 -39.795716 
L 663.838457 -31.051667 
L 667.321685 -32.956341 
L 670.804912 -32.918677 
L 674.28814 -32.407985 
L 677.771367 -33.015915 
L 681.254595 -32.586993 
L 684.737822 -33.618321 
L 688.22105 -36.164678 
L 691.704277 -219.501209 
L 695.187505 -214.678154 
L 698.670732 -214.093492 
L 702.15396 -209.573562 
L 705.637188 -229.308584 
L 705.637188 -235.357359 
L 705.637188 -235.357359 
L 702.15396 -228.287666 
L 698.670732 -220.24631 
L 695.187505 -227.136996 
L 691.704277 -229.943511 
L 688.22105 -203.353071 
L 684.737822 -189.506693 
L 681.254595 -195.651596 
L 677.771367 -193.08851 
L 674.28814 -196.889304 
L 670.804912 -193.797797 
L 667.321685 -193.650985 
L 663.838457 -205.50379 
L 660.35523 -205.598137 
L 656.872002 -203.029339 
L 653.388775 -204.580386 
L 649.905547 -190.763352 
L 646.42232 -193.895131 
L 642.939092 -206.179824 
L 639.455865 -222.640865 
L 635.972637 -222.865583 
L 632.48941 -213.332257 
L 629.006182 -211.253691 
L 625.522955 -214.373741 
L 622.039727 -207.001817 
L 618.5565 -182.803628 
L 615.073272 -182.28093 
L 611.590045 -182.123827 
L 608.106817 -171.176814 
L 604.62359 -183.445321 
L 601.140362 -184.877285 
L 597.657135 -181.824677 
L 594.173907 -171.994779 
L 590.69068 -185.298271 
L 587.207452 -199.507393 
L 583.724225 -192.835856 
L 580.240997 -176.692315 
L 576.75777 -187.050047 
L 573.274542 -192.294049 
L 569.791314 -194.092491 
L 566.308087 -201.137834 
L 562.824859 -197.638914 
L 559.341632 -201.175149 
L 555.858404 -208.867219 
L 552.375177 -214.733042 
L 548.891949 -223.436056 
L 545.408722 -226.795758 
L 541.925494 -231.542581 
L 538.442267 -222.658987 
L 534.959039 -210.520701 
L 531.475812 -198.879943 
L 527.992584 -204.522303 
L 524.509357 -200.186349 
L 521.026129 -222.105337 
L 517.542902 -231.064746 
L 514.059674 -231.655101 
L 510.576447 -208.728597 
L 507.093219 -200.578323 
L 503.609992 -197.430172 
L 500.126764 -195.239345 
L 496.643537 -192.03125 
L 493.160309 -196.298692 
L 489.677082 -209.675835 
L 486.193854 -219.360421 
L 482.710627 -209.233819 
L 479.227399 -171.186404 
L 475.744172 -161.697678 
L 472.260944 -136.521656 
L 468.777717 -143.241972 
L 465.294489 -158.183959 
L 461.811262 -154.085583 
L 458.328034 -119.604438 
L 454.844807 -166.811899 
L 451.361579 -196.17218 
L 447.878352 -170.47139 
L 444.395124 -148.920237 
L 440.911896 -165.477931 
L 437.428669 -160.059347 
L 433.945441 -152.162555 
L 430.462214 -134.075922 
L 426.978986 -115.064268 
L 423.495759 -127.041074 
L 420.012531 -145.395714 
L 416.529304 -164.490887 
L 413.046076 -171.816822 
L 409.562849 -161.962654 
L 406.079621 -160.232503 
L 402.596394 -176.604208 
L 399.113166 -172.863471 
L 395.629939 -174.895826 
L 392.146711 -180.593874 
L 388.663484 -171.655973 
L 385.180256 -168.322169 
L 381.697029 -174.247222 
L 378.213801 -162.042483 
L 374.730574 -173.334199 
L 371.247346 -173.260734 
L 367.764119 -181.239927 
L 364.280891 -177.506324 
L 360.797664 -179.255065 
L 357.314436 -176.88335 
L 353.831209 -178.36118 
L 350.347981 -184.551187 
L 346.864754 -183.59955 
L 343.381526 -186.307003 
L 339.898299 -196.247237 
L 336.415071 -198.907548 
L 332.931844 -200.262443 
L 329.448616 -197.563011 
L 325.965389 -207.535827 
L 322.482161 -217.799743 
L 318.998934 -190.575735 
L 315.515706 -178.335099 
L 312.032479 -146.698849 
L 308.549251 -147.802314 
L 305.066023 -148.073534 
L 301.582796 -143.58741 
L 298.099568 -139.94674 
L 294.616341 -145.135975 
L 291.133113 -140.740081 
L 287.649886 -138.685982 
L 284.166658 -142.804519 
L 280.683431 -128.080227 
L 277.200203 -135.785801 
L 273.716976 -135.283884 
L 270.233748 -154.857865 
L 266.750521 -146.390506 
L 263.267293 -108.398307 
L 259.784066 -123.83431 
L 256.300838 -142.132163 
L 252.817611 -131.788063 
L 249.334383 -132.724161 
L 245.851156 -124.108152 
L 242.367928 -130.340418 
L 238.884701 -129.215126 
L 235.401473 -124.217456 
L 231.918246 -129.191316 
L 228.435018 -137.260967 
L 224.951791 -131.379608 
L 221.468563 -136.113808 
L 217.985336 -142.505758 
L 214.502108 -144.488774 
L 211.018881 -148.680509 
L 207.535653 -131.722021 
L 204.052426 -117.080531 
L 200.569198 -100.80439 
L 197.085971 -122.506585 
L 193.602743 -132.475258 
L 190.119516 -127.563718 
L 186.636288 -129.859485 
L 183.153061 -134.659937 
L 179.669833 -130.31938 
L 176.186605 -128.648961 
L 172.703378 -128.482706 
L 169.22015 -125.756769 
L 165.736923 -136.468913 
L 162.253695 -132.45155 
L 158.770468 -133.819309 
L 155.28724 -135.098333 
L 151.804013 -139.032245 
L 148.320785 -131.998122 
L 144.837558 -131.941079 
L 141.35433 -132.900556 
L 137.871103 -130.221775 
L 134.387875 -140.985939 
L 130.904648 -135.352293 
L 127.42142 -134.642905 
L 123.938193 -138.416817 
L 120.454965 -136.905083 
L 116.971738 -140.096688 
L 113.48851 -138.340515 
L 110.005283 -140.082293 
L 106.522055 -135.430772 
L 103.038828 -129.445659 
L 99.5556 -127.881679 
L 96.072373 -131.992277 
L 92.589145 -132.100748 
L 89.105918 -139.558047 
L 85.62269 -138.752581 
L 82.139463 -143.813271 
L 78.656235 -132.664085 
L 75.173008 -135.933455 
L 71.68978 -137.489216 
L 68.206553 -139.56938 
L 64.723325 -133.378684 
L 61.240098 -141.275864 
L 57.75687 -150.603056 
L 54.273643 -146.654369 
L 50.790415 -147.081292 
L 47.307188 -157.913469 
z
" style="stroke: #808080; stroke-opacity: 0.7"/>
    </defs>
    <g clip-path="url(#pb0f78edf28)">
     <use xlink:href="#m0b0c333cfc" x="0" y="424.5775" style="fill: #808080; fill-opacity: 0.7; stroke: #808080; stroke-opacity: 0.7"/>
    </g>
   </g>
   <g id="line2d_31">
    <path d="M 47.307188 367.741449 
L 190.119516 367.741449 
L 193.602743 358.79965 
L 197.085971 361.987401 
L 200.569198 366.142091 
L 204.052426 367.741449 
L 221.468563 367.741449 
L 224.951791 367.494937 
L 228.435018 332.767066 
L 231.918246 339.392484 
L 235.401473 363.162824 
L 238.884701 353.159994 
L 242.367928 361.635876 
L 245.851156 358.961961 
L 249.334383 365.598245 
L 252.817611 367.741449 
L 385.180256 367.741449 
L 388.663484 361.575149 
L 392.146711 351.754102 
L 395.629939 349.429541 
L 399.113166 365.878632 
L 402.596394 367.634078 
L 413.046076 367.741449 
L 416.529304 367.699763 
L 420.012531 361.789722 
L 423.495759 358.763864 
L 426.978986 367.536105 
L 430.462214 366.671295 
L 433.945441 362.772106 
L 437.428669 366.900106 
L 440.911896 362.91237 
L 444.395124 341.730137 
L 447.878352 353.246208 
L 451.361579 326.839032 
L 454.844807 337.363075 
L 458.328034 356.928713 
L 461.811262 330.950842 
L 465.294489 347.138829 
L 468.777717 360.946445 
L 472.260944 337.510204 
L 475.744172 292.355101 
L 479.227399 312.19919 
L 482.710627 335.458226 
L 486.193854 361.892066 
L 489.677082 367.200581 
L 493.160309 367.741449 
L 587.207452 367.741449 
L 594.173907 349.157737 
L 597.657135 358.701898 
L 601.140362 333.286939 
L 604.62359 310.116991 
L 608.106817 350.296756 
L 611.590045 363.765096 
L 615.073272 367.741449 
L 618.5565 367.741449 
L 622.039727 366.932742 
L 625.522955 367.741449 
L 632.48941 367.741449 
L 635.972637 367.362692 
L 639.455865 367.186155 
L 642.939092 367.741449 
L 649.905547 367.741449 
L 653.388775 365.121784 
L 656.872002 358.998317 
L 660.35523 348.359989 
L 663.838457 367.422167 
L 667.321685 367.741449 
L 705.637188 367.741449 
L 705.637188 367.741449 
" clip-path="url(#pb0f78edf28)" style="fill: none; stroke: #ff8c00; stroke-width: 2.3; stroke-linecap: square"/>
   </g>
   <g id="line2d_32">
    <path d="M 277.200203 384.117812 
L 277.200203 23.837812 
" clip-path="url(#pb0f78edf28)" style="fill: none; stroke-dasharray: 5.55,2.4; stroke-dashoffset: 0; stroke: #808080; stroke-width: 1.5"/>
   </g>
   <g id="line2d_33">
    <path d="M 475.744172 384.117812 
L 475.744172 23.837812 
" clip-path="url(#pb0f78edf28)" style="fill: none; stroke-dasharray: 5.55,2.4; stroke-dashoffset: 0; stroke: #808080; stroke-width: 1.5"/>
   </g>
   <g id="patch_3">
    <path d="M 47.307188 384.117812 
L 47.307188 23.837812 
" style="fill: none; stroke: #000000; stroke-width: 0.8; stroke-linejoin: miter; stroke-linecap: square"/>
   </g>
   <g id="patch_4">
    <path d="M 705.637188 384.117812 
L 705.637188 23.837812 
" style="fill: none; stroke: #000000; stroke-width: 0.8; stroke-linejoin: miter; stroke-linecap: square"/>
   </g>
   <g id="patch_5">
    <path d="M 47.307188 384.117812 
L 705.637188 384.117812 
" style="fill: none; stroke: #000000; stroke-width: 0.8; stroke-linejoin: miter; stroke-linecap: square"/>
   </g>
   <g id="patch_6">
    <path d="M 47.307188 23.837812 
L 705.637188 23.837812 
" style="fill: none; stroke: #000000; stroke-width: 0.8; stroke-linejoin: miter; stroke-linecap: square"/>
   </g>
   <g id="text_18">
    <!-- Facial trace: Social anxiety disorder (SAD) (male) -->
    <g transform="translate(204.489844 17.837812) scale(0.14 -0.14)">
     <defs>
      <path id="DejaVuSans-46" d="M 628 4666 
L 3309 4666 
L 3309 4134 
L 1259 4134 
L 1259 2759 
L 3109 2759 
L 3109 2228 
L 1259 2228 
L 1259 0 
L 628 0 
L 628 4666 
z
" transform="scale(0.015625)"/>
      <path id="DejaVuSans-63" d="M 3122 3366 
L 3122 2828 
Q 2878 2963 2633 3030 
Q 2388 3097 2138 3097 
Q 1578 3097 1268 2742 
Q 959 2388 959 1747 
Q 959 1106 1268 751 
Q 1578 397 2138 397 
Q 2388 397 2633 464 
Q 2878 531 3122 666 
L 3122 134 
Q 2881 22 2623 -34 
Q 2366 -91 2075 -91 
Q 1284 -91 818 406 
Q 353 903 353 1747 
Q 353 2603 823 3093 
Q 1294 3584 2113 3584 
Q 2378 3584 2631 3529 
Q 2884 3475 3122 3366 
z
" transform="scale(0.015625)"/>
      <path id="DejaVuSans-6c" d="M 603 4863 
L 1178 4863 
L 1178 0 
L 603 0 
L 603 4863 
z
" transform="scale(0.015625)"/>
      <path id="DejaVuSans-72" d="M 2631 2963 
Q 2534 3019 2420 3045 
Q 2306 3072 2169 3072 
Q 1681 3072 1420 2755 
Q 1159 2438 1159 1844 
L 1159 0 
L 581 0 
L 581 3500 
L 1159 3500 
L 1159 2956 
Q 1341 3275 1631 3429 
Q 1922 3584 2338 3584 
Q 2397 3584 2469 3576 
Q 2541 3569 2628 3553 
L 2631 2963 
z
" transform="scale(0.015625)"/>
      <path id="DejaVuSans-3a" d="M 750 794 
L 1409 794 
L 1409 0 
L 750 0 
L 750 794 
z
M 750 3309 
L 1409 3309 
L 1409 2516 
L 750 2516 
L 750 3309 
z
" transform="scale(0.015625)"/>
      <path id="DejaVuSans-53" d="M 3425 4513 
L 3425 3897 
Q 3066 4069 2747 4153 
Q 2428 4238 2131 4238 
Q 1616 4238 1336 4038 
Q 1056 3838 1056 3469 
Q 1056 3159 1242 3001 
Q 1428 2844 1947 2747 
L 2328 2669 
Q 3034 2534 3370 2195 
Q 3706 1856 3706 1288 
Q 3706 609 3251 259 
Q 2797 -91 1919 -91 
Q 1588 -91 1214 -16 
Q 841 59 441 206 
L 441 856 
Q 825 641 1194 531 
Q 1563 422 1919 422 
Q 2459 422 2753 634 
Q 3047 847 3047 1241 
Q 3047 1584 2836 1778 
Q 2625 1972 2144 2069 
L 1759 2144 
Q 1053 2284 737 2584 
Q 422 2884 422 3419 
Q 422 4038 858 4394 
Q 1294 4750 2059 4750 
Q 2388 4750 2728 4690 
Q 3069 4631 3425 4513 
z
" transform="scale(0.015625)"/>
      <path id="DejaVuSans-6f" d="M 1959 3097 
Q 1497 3097 1228 2736 
Q 959 2375 959 1747 
Q 959 1119 1226 758 
Q 1494 397 1959 397 
Q 2419 397 2687 759 
Q 2956 1122 2956 1747 
Q 2956 2369 2687 2733 
Q 2419 3097 1959 3097 
z
M 1959 3584 
Q 2709 3584 3137 3096 
Q 3566 2609 3566 1747 
Q 3566 888 3137 398 
Q 2709 -91 1959 -91 
Q 1206 -91 779 398 
Q 353 888 353 1747 
Q 353 2609 779 3096 
Q 1206 3584 1959 3584 
z
" transform="scale(0.015625)"/>
      <path id="DejaVuSans-78" d="M 3513 3500 
L 2247 1797 
L 3578 0 
L 2900 0 
L 1881 1375 
L 863 0 
L 184 0 
L 1544 1831 
L 300 3500 
L 978 3500 
L 1906 2253 
L 2834 3500 
L 3513 3500 
z
" transform="scale(0.015625)"/>
      <path id="DejaVuSans-64" d="M 2906 2969 
L 2906 4863 
L 3481 4863 
L 3481 0 
L 2906 0 
L 2906 525 
Q 2725 213 2448 61 
Q 2172 -91 1784 -91 
Q 1150 -91 751 415 
Q 353 922 353 1747 
Q 353 2572 751 3078 
Q 1150 3584 1784 3584 
Q 2172 3584 2448 3432 
Q 2725 3281 2906 2969 
z
M 947 1747 
Q 947 1113 1208 752 
Q 1469 391 1925 391 
Q 2381 391 2643 752 
Q 2906 1113 2906 1747 
Q 2906 2381 2643 2742 
Q 2381 3103 1925 3103 
Q 1469 3103 1208 2742 
Q 947 2381 947 1747 
z
" transform="scale(0.015625)"/>
      <path id="DejaVuSans-44" d="M 1259 4147 
L 1259 519 
L 2022 519 
Q 2988 519 3436 956 
Q 3884 1394 3884 2338 
Q 3884 3275 3436 3711 
Q 2988 4147 2022 4147 
L 1259 4147 
z
M 628 4666 
L 1925 4666 
Q 3281 4666 3915 4102 
Q 4550 3538 4550 2338 
Q 4550 1131 3912 565 
Q 3275 0 1925 0 
L 628 0 
L 628 4666 
z
" transform="scale(0.015625)"/>
     </defs>
     <use xlink:href="#DejaVuSans-46"/>
     <use xlink:href="#DejaVuSans-61" transform="translate(48.394531 0)"/>
     <use xlink:href="#DejaVuSans-63" transform="translate(109.673828 0)"/>
     <use xlink:href="#DejaVuSans-69" transform="translate(164.654297 0)"/>
     <use xlink:href="#DejaVuSans-61" transform="translate(192.4375 0)"/>
     <use xlink:href="#DejaVuSans-6c" transform="translate(253.716797 0)"/>
     <use xlink:href="#DejaVuSans-20" transform="translate(281.5 0)"/>
     <use xlink:href="#DejaVuSans-74" transform="translate(313.287109 0)"/>
     <use xlink:href="#DejaVuSans-72" transform="translate(352.496094 0)"/>
     <use xlink:href="#DejaVuSans-61" transform="translate(393.609375 0)"/>
     <use xlink:href="#DejaVuSans-63" transform="translate(454.888672 0)"/>
     <use xlink:href="#DejaVuSans-65" transform="translate(509.869141 0)"/>
     <use xlink:href="#DejaVuSans-3a" transform="translate(571.392578 0)"/>
     <use xlink:href="#DejaVuSans-20" transform="translate(605.083984 0)"/>
     <use xlink:href="#DejaVuSans-53" transform="translate(636.871094 0)"/>
     <use xlink:href="#DejaVuSans-6f" transform="translate(700.347656 0)"/>
     <use xlink:href="#DejaVuSans-63" transform="translate(761.529297 0)"/>
     <use xlink:href="#DejaVuSans-69" transform="translate(816.509766 0)"/>
     <use xlink:href="#DejaVuSans-61" transform="translate(844.292969 0)"/>
     <use xlink:href="#DejaVuSans-6c" transform="translate(905.572266 0)"/>
     <use xlink:href="#DejaVuSans-20" transform="translate(933.355469 0)"/>
     <use xlink:href="#DejaVuSans-61" transform="translate(965.142578 0)"/>
     <use xlink:href="#DejaVuSans-6e" transform="translate(1026.421875 0)"/>
     <use xlink:href="#DejaVuSans-78" transform="translate(1089.800781 0)"/>
     <use xlink:href="#DejaVuSans-69" transform="translate(1148.980469 0)"/>
     <use xlink:href="#DejaVuSans-65" transform="translate(1176.763672 0)"/>
     <use xlink:href="#DejaVuSans-74" transform="translate(1238.287109 0)"/>
     <use xlink:href="#DejaVuSans-79" transform="translate(1277.496094 0)"/>
     <use xlink:href="#DejaVuSans-20" transform="translate(1336.675781 0)"/>
     <use xlink:href="#DejaVuSans-64" transform="translate(1368.462891 0)"/>
     <use xlink:href="#DejaVuSans-69" transform="translate(1431.939453 0)"/>
     <use xlink:href="#DejaVuSans-73" transform="translate(1459.722656 0)"/>
     <use xlink:href="#DejaVuSans-6f" transform="translate(1511.822266 0)"/>
     <use xlink:href="#DejaVuSans-72" transform="translate(1573.003906 0)"/>
     <use xlink:href="#DejaVuSans-64" transform="translate(1612.367188 0)"/>
     <use xlink:href="#DejaVuSans-65" transform="translate(1675.84375 0)"/>
     <use xlink:href="#DejaVuSans-72" transform="translate(1737.367188 0)"/>
     <use xlink:href="#DejaVuSans-20" transform="translate(1778.480469 0)"/>
     <use xlink:href="#DejaVuSans-28" transform="translate(1810.267578 0)"/>
     <use xlink:href="#DejaVuSans-53" transform="translate(1849.28125 0)"/>
     <use xlink:href="#DejaVuSans-41" transform="translate(1914.632812 0)"/>
     <use xlink:href="#DejaVuSans-44" transform="translate(1983.041016 0)"/>
     <use xlink:href="#DejaVuSans-29" transform="translate(2060.042969 0)"/>
     <use xlink:href="#DejaVuSans-20" transform="translate(2099.056641 0)"/>
     <use xlink:href="#DejaVuSans-28" transform="translate(2130.84375 0)"/>
     <use xlink:href="#DejaVuSans-6d" transform="translate(2169.857422 0)"/>
     <use xlink:href="#DejaVuSans-61" transform="translate(2267.269531 0)"/>
     <use xlink:href="#DejaVuSans-6c" transform="translate(2328.548828 0)"/>
     <use xlink:href="#DejaVuSans-65" transform="translate(2356.332031 0)"/>
     <use xlink:href="#DejaVuSans-29" transform="translate(2417.855469 0)"/>
    </g>
   </g>
   <g id="legend_1">
    <g id="patch_7">
     <path d="M 446.991094 42.096094 
L 468.991094 42.096094 
L 468.991094 34.396094 
L 446.991094 34.396094 
z
" style="fill: #d3d3d3; fill-opacity: 0.5; stroke: #d3d3d3; stroke-opacity: 0.5; stroke-linejoin: miter"/>
    </g>
    <g id="text_19">
     <!-- Social anxiety disorder (SAD) ±2 SD -->
     <g transform="translate(477.791094 42.096094) scale(0.11 -0.11)">
      <defs>
       <path id="DejaVuSans-b1" d="M 2944 4013 
L 2944 2803 
L 4684 2803 
L 4684 2272 
L 2944 2272 
L 2944 1063 
L 2419 1063 
L 2419 2272 
L 678 2272 
L 678 2803 
L 2419 2803 
L 2419 4013 
L 2944 4013 
z
M 678 531 
L 4684 531 
L 4684 0 
L 678 0 
L 678 531 
z
" transform="scale(0.015625)"/>
      </defs>
      <use xlink:href="#DejaVuSans-53"/>
      <use xlink:href="#DejaVuSans-6f" transform="translate(63.476562 0)"/>
      <use xlink:href="#DejaVuSans-63" transform="translate(124.658203 0)"/>
      <use xlink:href="#DejaVuSans-69" transform="translate(179.638672 0)"/>
      <use xlink:href="#DejaVuSans-61" transform="translate(207.421875 0)"/>
      <use xlink:href="#DejaVuSans-6c" transform="translate(268.701172 0)"/>
      <use xlink:href="#DejaVuSans-20" transform="translate(296.484375 0)"/>
      <use xlink:href="#DejaVuSans-61" transform="translate(328.271484 0)"/>
      <use xlink:href="#DejaVuSans-6e" transform="translate(389.550781 0)"/>
      <use xlink:href="#DejaVuSans-78" transform="translate(452.929688 0)"/>
      <use xlink:href="#DejaVuSans-69" transform="translate(512.109375 0)"/>
      <use xlink:href="#DejaVuSans-65" transform="translate(539.892578 0)"/>
      <use xlink:href="#DejaVuSans-74" transform="translate(601.416016 0)"/>
      <use xlink:href="#DejaVuSans-79" transform="translate(640.625 0)"/>
      <use xlink:href="#DejaVuSans-20" transform="translate(699.804688 0)"/>
      <use xlink:href="#DejaVuSans-64" transform="translate(731.591797 0)"/>
      <use xlink:href="#DejaVuSans-69" transform="translate(795.068359 0)"/>
      <use xlink:href="#DejaVuSans-73" transform="translate(822.851562 0)"/>
      <use xlink:href="#DejaVuSans-6f" transform="translate(874.951172 0)"/>
      <use xlink:href="#DejaVuSans-72" transform="translate(936.132812 0)"/>
      <use xlink:href="#DejaVuSans-64" transform="translate(975.496094 0)"/>
      <use xlink:href="#DejaVuSans-65" transform="translate(1038.972656 0)"/>
      <use xlink:href="#DejaVuSans-72" transform="translate(1100.496094 0)"/>
      <use xlink:href="#DejaVuSans-20" transform="translate(1141.609375 0)"/>
      <use xlink:href="#DejaVuSans-28" transform="translate(1173.396484 0)"/>
      <use xlink:href="#DejaVuSans-53" transform="translate(1212.410156 0)"/>
      <use xlink:href="#DejaVuSans-41" transform="translate(1277.761719 0)"/>
      <use xlink:href="#DejaVuSans-44" transform="translate(1346.169922 0)"/>
      <use xlink:href="#DejaVuSans-29" transform="translate(1423.171875 0)"/>
      <use xlink:href="#DejaVuSans-20" transform="translate(1462.185547 0)"/>
      <use xlink:href="#DejaVuSans-b1" transform="translate(1493.972656 0)"/>
      <use xlink:href="#DejaVuSans-32" transform="translate(1577.761719 0)"/>
      <use xlink:href="#DejaVuSans-20" transform="translate(1641.384766 0)"/>
      <use xlink:href="#DejaVuSans-53" transform="translate(1673.171875 0)"/>
      <use xlink:href="#DejaVuSans-44" transform="translate(1736.648438 0)"/>
     </g>
    </g>
    <g id="patch_8">
     <path d="M 446.991094 58.242031 
L 468.991094 58.242031 
L 468.991094 50.542031 
L 446.991094 50.542031 
z
" style="fill: #808080; fill-opacity: 0.7; stroke: #808080; stroke-opacity: 0.7; stroke-linejoin: miter"/>
    </g>
    <g id="text_20">
     <!-- Social anxiety disorder (SAD) ±1 SD -->
     <g transform="translate(477.791094 58.242031) scale(0.11 -0.11)">
      <use xlink:href="#DejaVuSans-53"/>
      <use xlink:href="#DejaVuSans-6f" transform="translate(63.476562 0)"/>
      <use xlink:href="#DejaVuSans-63" transform="translate(124.658203 0)"/>
      <use xlink:href="#DejaVuSans-69" transform="translate(179.638672 0)"/>
      <use xlink:href="#DejaVuSans-61" transform="translate(207.421875 0)"/>
      <use xlink:href="#DejaVuSans-6c" transform="translate(268.701172 0)"/>
      <use xlink:href="#DejaVuSans-20" transform="translate(296.484375 0)"/>
      <use xlink:href="#DejaVuSans-61" transform="translate(328.271484 0)"/>
      <use xlink:href="#DejaVuSans-6e" transform="translate(389.550781 0)"/>
      <use xlink:href="#DejaVuSans-78" transform="translate(452.929688 0)"/>
      <use xlink:href="#DejaVuSans-69" transform="translate(512.109375 0)"/>
      <use xlink:href="#DejaVuSans-65" transform="translate(539.892578 0)"/>
      <use xlink:href="#DejaVuSans-74" transform="translate(601.416016 0)"/>
      <use xlink:href="#DejaVuSans-79" transform="translate(640.625 0)"/>
      <use xlink:href="#DejaVuSans-20" transform="translate(699.804688 0)"/>
      <use xlink:href="#DejaVuSans-64" transform="translate(731.591797 0)"/>
      <use xlink:href="#DejaVuSans-69" transform="translate(795.068359 0)"/>
      <use xlink:href="#DejaVuSans-73" transform="translate(822.851562 0)"/>
      <use xlink:href="#DejaVuSans-6f" transform="translate(874.951172 0)"/>
      <use xlink:href="#DejaVuSans-72" transform="translate(936.132812 0)"/>
      <use xlink:href="#DejaVuSans-64" transform="translate(975.496094 0)"/>
      <use xlink:href="#DejaVuSans-65" transform="translate(1038.972656 0)"/>
      <use xlink:href="#DejaVuSans-72" transform="translate(1100.496094 0)"/>
      <use xlink:href="#DejaVuSans-20" transform="translate(1141.609375 0)"/>
      <use xlink:href="#DejaVuSans-28" transform="translate(1173.396484 0)"/>
      <use xlink:href="#DejaVuSans-53" transform="translate(1212.410156 0)"/>
      <use xlink:href="#DejaVuSans-41" transform="translate(1277.761719 0)"/>
      <use xlink:href="#DejaVuSans-44" transform="translate(1346.169922 0)"/>
      <use xlink:href="#DejaVuSans-29" transform="translate(1423.171875 0)"/>
      <use xlink:href="#DejaVuSans-20" transform="translate(1462.185547 0)"/>
      <use xlink:href="#DejaVuSans-b1" transform="translate(1493.972656 0)"/>
      <use xlink:href="#DejaVuSans-31" transform="translate(1577.761719 0)"/>
      <use xlink:href="#DejaVuSans-20" transform="translate(1641.384766 0)"/>
      <use xlink:href="#DejaVuSans-53" transform="translate(1673.171875 0)"/>
      <use xlink:href="#DejaVuSans-44" transform="translate(1736.648438 0)"/>
     </g>
    </g>
    <g id="line2d_34">
     <path d="M 446.991094 70.537969 
L 457.991094 70.537969 
L 468.991094 70.537969 
" style="fill: none; stroke: #ff8c00; stroke-width: 2.3; stroke-linecap: square"/>
    </g>
    <g id="text_21">
     <!-- Social anxiety disorder (SAD) prototype -->
     <g transform="translate(477.791094 74.387969) scale(0.11 -0.11)">
      <defs>
       <path id="DejaVuSans-70" d="M 1159 525 
L 1159 -1331 
L 581 -1331 
L 581 3500 
L 1159 3500 
L 1159 2969 
Q 1341 3281 1617 3432 
Q 1894 3584 2278 3584 
Q 2916 3584 3314 3078 
Q 3713 2572 3713 1747 
Q 3713 922 3314 415 
Q 2916 -91 2278 -91 
Q 1894 -91 1617 61 
Q 1341 213 1159 525 
z
M 3116 1747 
Q 3116 2381 2855 2742 
Q 2594 3103 2138 3103 
Q 1681 3103 1420 2742 
Q 1159 2381 1159 1747 
Q 1159 1113 1420 752 
Q 1681 391 2138 391 
Q 2594 391 2855 752 
Q 3116 1113 3116 1747 
z
" transform="scale(0.015625)"/>
      </defs>
      <use xlink:href="#DejaVuSans-53"/>
      <use xlink:href="#DejaVuSans-6f" transform="translate(63.476562 0)"/>
      <use xlink:href="#DejaVuSans-63" transform="translate(124.658203 0)"/>
      <use xlink:href="#DejaVuSans-69" transform="translate(179.638672 0)"/>
      <use xlink:href="#DejaVuSans-61" transform="translate(207.421875 0)"/>
      <use xlink:href="#DejaVuSans-6c" transform="translate(268.701172 0)"/>
      <use xlink:href="#DejaVuSans-20" transform="translate(296.484375 0)"/>
      <use xlink:href="#DejaVuSans-61" transform="translate(328.271484 0)"/>
      <use xlink:href="#DejaVuSans-6e" transform="translate(389.550781 0)"/>
      <use xlink:href="#DejaVuSans-78" transform="translate(452.929688 0)"/>
      <use xlink:href="#DejaVuSans-69" transform="translate(512.109375 0)"/>
      <use xlink:href="#DejaVuSans-65" transform="translate(539.892578 0)"/>
      <use xlink:href="#DejaVuSans-74" transform="translate(601.416016 0)"/>
      <use xlink:href="#DejaVuSans-79" transform="translate(640.625 0)"/>
      <use xlink:href="#DejaVuSans-20" transform="translate(699.804688 0)"/>
      <use xlink:href="#DejaVuSans-64" transform="translate(731.591797 0)"/>
      <use xlink:href="#DejaVuSans-69" transform="translate(795.068359 0)"/>
      <use xlink:href="#DejaVuSans-73" transform="translate(822.851562 0)"/>
      <use xlink:href="#DejaVuSans-6f" transform="translate(874.951172 0)"/>
      <use xlink:href="#DejaVuSans-72" transform="translate(936.132812 0)"/>
      <use xlink:href="#DejaVuSans-64" transform="translate(975.496094 0)"/>
      <use xlink:href="#DejaVuSans-65" transform="translate(1038.972656 0)"/>
      <use xlink:href="#DejaVuSans-72" transform="translate(1100.496094 0)"/>
      <use xlink:href="#DejaVuSans-20" transform="translate(1141.609375 0)"/>
      <use xlink:href="#DejaVuSans-28" transform="translate(1173.396484 0)"/>
      <use xlink:href="#DejaVuSans-53" transform="translate(1212.410156 0)"/>
      <use xlink:href="#DejaVuSans-41" transform="translate(1277.761719 0)"/>
      <use xlink:href="#DejaVuSans-44" transform="translate(1346.169922 0)"/>
      <use xlink:href="#DejaVuSans-29" transform="translate(1423.171875 0)"/>
      <use xlink:href="#DejaVuSans-20" transform="translate(1462.185547 0)"/>
      <use xlink:href="#DejaVuSans-70" transform="translate(1493.972656 0)"/>
      <use xlink:href="#DejaVuSans-72" transform="translate(1557.449219 0)"/>
      <use xlink:href="#DejaVuSans-6f" transform="translate(1596.3125 0)"/>
      <use xlink:href="#DejaVuSans-74" transform="translate(1657.494141 0)"/>
      <use xlink:href="#DejaVuSans-6f" transform="translate(1696.703125 0)"/>
      <use xlink:href="#DejaVuSans-74" transform="translate(1757.884766 0)"/>
      <use xlink:href="#DejaVuSans-79" transform="translate(1797.09375 0)"/>
      <use xlink:href="#DejaVuSans-70" transform="translate(1856.273438 0)"/>
      <use xlink:href="#DejaVuSans-65" transform="translate(1919.75 0)"/>
     </g>
    </g>
   </g>
  </g>
 </g>
 <defs>
  <clipPath id="pb0f78edf28">
   <rect x="47.307188" y="23.837812" width="658.33" height="360.28"/>
  </clipPath>
 </defs>
</svg>
