<?xml version="1.0" encoding="utf-8" standalone="no"?>
<!DOCTYPE svg PUBLIC "-//W3C//DTD SVG 1.1//EN"
  "http://www.w3.org/Graphics/SVG/1.1/DTD/svg11.dtd">
<svg xmlns:xlink="http://www.w3.org/1999/xlink" width="712.837188pt" height="424.5775pt" viewBox="0 0 712.837188 424.5775" xmlns="http://www.w3.org/2000/svg" version="1.1">
 <metadata>
  <rdf:RDF xmlns:dc="http://purl.org/dc/elements/1.1/" xmlns:cc="http://creativecommons.org/ns#" xmlns:rdf="http://www.w3.org/1999/02/22-rdf-syntax-ns#">
   <cc:Work>
    <dc:type rdf:resource="http://purl.org/dc/dcmitype/StillImage"/>
    <dc:date>2026-06-14T19:05:22.928915</dc:date>
    <dc:format>image/svg+xml</dc:format>
    <dc:creator>
     <cc:Agent>
      <dc:title>Matplotlib v3.10.1, https://matplotlib.org/</dc:title>
     </cc:Agent>
    </dc:creator>
   </cc:Work>
  </rdf:RDF>
 </metadata>
 <defs>
  <style type="text/css">*{stroke-linejoin: round; stroke-linecap: butt}</style>
 </defs>
 <g id="figure_1">
  <g id="patch_1">
   <path d="M 0 424.5775 
L 712.837188 424.5775 
L 712.837188 0 
L 0 0 
z
" style="fill: #ffffff"/>
  </g>
  <g id="axes_1">
   <g id="patch_2">
    <path d="M 47.307188 384.117812 
L 705.637188 384.117812 
L 705.637188 23.837812 
L 47.307188 23.837812 
z
" style="fill: #ffffff"/>
   </g>
   <g id="matplotlib.axis_1">
    <g id="xtick_1">
     <g id="line2d_1">
      <path d="M 47.307188 384.117812 
L 47.307188 23.837812 
" clip-path="url(#p4b81a0137a)" style="fill: none; stroke: #b0b0b0; stroke-opacity: 0.2; stroke-width: 0.6; stroke-linecap: square"/>
     </g>
     <g id="line2d_2">
      <defs>
       <path id="me64d9031ec" d="M 0 0 
L 0 3.5 
" style="stroke: #000000; stroke-width: 0.8"/>
      </defs>
      <g>
       <use xlink:href="#me64d9031ec" x="47.307188" y="384.117812" style="stroke: #000000; stroke-width: 0.8"/>
      </g>
     </g>
     <g id="text_1">
      <!-- 0 -->
      <g transform="translate(43.807813 399.476094) scale(0.11 -0.11)">
       <defs>
        <path id="DejaVuSans-30" d="M 2034 4250 
Q 1547 4250 1301 3770 
Q 1056 3291 1056 2328 
Q 1056 1369 1301 889 
Q 1547 409 2034 409 
Q 2525 409 2770 889 
Q 3016 1369 3016 2328 
Q 3016 3291 2770 3770 
Q 2525 4250 2034 4250 
z
M 2034 4750 
Q 2819 4750 3233 4129 
Q 3647 3509 3647 2328 
Q 3647 1150 3233 529 
Q 2819 -91 2034 -91 
Q 1250 -91 836 529 
Q 422 1150 422 2328 
Q 422 3509 836 4129 
Q 1250 4750 2034 4750 
z
" transform="scale(0.015625)"/>
       </defs>
       <use xlink:href="#DejaVuSans-30"/>
      </g>
     </g>
    </g>
    <g id="xtick_2">
     <g id="line2d_3">
      <path d="M 134.387875 384.117812 
L 134.387875 23.837812 
" clip-path="url(#p4b81a0137a)" style="fill: none; stroke: #b0b0b0; stroke-opacity: 0.2; stroke-width: 0.6; stroke-linecap: square"/>
     </g>
     <g id="line2d_4">
      <g>
       <use xlink:href="#me64d9031ec" x="134.387875" y="384.117812" style="stroke: #000000; stroke-width: 0.8"/>
      </g>
     </g>
     <g id="text_2">
      <!-- 25 -->
      <g transform="translate(127.389125 399.476094) scale(0.11 -0.11)">
       <defs>
        <path id="DejaVuSans-32" d="M 1228 531 
L 3431 531 
L 3431 0 
L 469 0 
L 469 531 
Q 828 903 1448 1529 
Q 2069 2156 2228 2338 
Q 2531 2678 2651 2914 
Q 2772 3150 2772 3378 
Q 2772 3750 2511 3984 
Q 2250 4219 1831 4219 
Q 1534 4219 1204 4116 
Q 875 4013 500 3803 
L 500 4441 
Q 881 4594 1212 4672 
Q 1544 4750 1819 4750 
Q 2544 4750 2975 4387 
Q 3406 4025 3406 3419 
Q 3406 3131 3298 2873 
Q 3191 2616 2906 2266 
Q 2828 2175 2409 1742 
Q 1991 1309 1228 531 
z
" transform="scale(0.015625)"/>
        <path id="DejaVuSans-35" d="M 691 4666 
L 3169 4666 
L 3169 4134 
L 1269 4134 
L 1269 2991 
Q 1406 3038 1543 3061 
Q 1681 3084 1819 3084 
Q 2600 3084 3056 2656 
Q 3513 2228 3513 1497 
Q 3513 744 3044 326 
Q 2575 -91 1722 -91 
Q 1428 -91 1123 -41 
Q 819 9 494 109 
L 494 744 
Q 775 591 1075 516 
Q 1375 441 1709 441 
Q 2250 441 2565 725 
Q 2881 1009 2881 1497 
Q 2881 1984 2565 2268 
Q 2250 2553 1709 2553 
Q 1456 2553 1204 2497 
Q 953 2441 691 2322 
L 691 4666 
z
" transform="scale(0.015625)"/>
       </defs>
       <use xlink:href="#DejaVuSans-32"/>
       <use xlink:href="#DejaVuSans-35" transform="translate(63.623047 0)"/>
      </g>
     </g>
    </g>
    <g id="xtick_3">
     <g id="line2d_5">
      <path d="M 221.468563 384.117812 
L 221.468563 23.837812 
" clip-path="url(#p4b81a0137a)" style="fill: none; stroke: #b0b0b0; stroke-opacity: 0.2; stroke-width: 0.6; stroke-linecap: square"/>
     </g>
     <g id="line2d_6">
      <g>
       <use xlink:href="#me64d9031ec" x="221.468563" y="384.117812" style="stroke: #000000; stroke-width: 0.8"/>
      </g>
     </g>
     <g id="text_3">
      <!-- 50 -->
      <g transform="translate(214.469813 399.476094) scale(0.11 -0.11)">
       <use xlink:href="#DejaVuSans-35"/>
       <use xlink:href="#DejaVuSans-30" transform="translate(63.623047 0)"/>
      </g>
     </g>
    </g>
    <g id="xtick_4">
     <g id="line2d_7">
      <path d="M 308.549251 384.117812 
L 308.549251 23.837812 
" clip-path="url(#p4b81a0137a)" style="fill: none; stroke: #b0b0b0; stroke-opacity: 0.2; stroke-width: 0.6; stroke-linecap: square"/>
     </g>
     <g id="line2d_8">
      <g>
       <use xlink:href="#me64d9031ec" x="308.549251" y="384.117812" style="stroke: #000000; stroke-width: 0.8"/>
      </g>
     </g>
     <g id="text_4">
      <!-- 75 -->
      <g transform="translate(301.550501 399.476094) scale(0.11 -0.11)">
       <defs>
        <path id="DejaVuSans-37" d="M 525 4666 
L 3525 4666 
L 3525 4397 
L 1831 0 
L 1172 0 
L 2766 4134 
L 525 4134 
L 525 4666 
z
" transform="scale(0.015625)"/>
       </defs>
       <use xlink:href="#DejaVuSans-37"/>
       <use xlink:href="#DejaVuSans-35" transform="translate(63.623047 0)"/>
      </g>
     </g>
    </g>
    <g id="xtick_5">
     <g id="line2d_9">
      <path d="M 395.629939 384.117812 
L 395.629939 23.837812 
" clip-path="url(#p4b81a0137a)" style="fill: none; stroke: #b0b0b0; stroke-opacity: 0.2; stroke-width: 0.6; stroke-linecap: square"/>
     </g>
     <g id="line2d_10">
      <g>
       <use xlink:href="#me64d9031ec" x="395.629939" y="384.117812" style="stroke: #000000; stroke-width: 0.8"/>
      </g>
     </g>
     <g id="text_5">
      <!-- 100 -->
      <g transform="translate(385.131814 399.476094) scale(0.11 -0.11)">
       <defs>
        <path id="DejaVuSans-31" d="M 794 531 
L 1825 531 
L 1825 4091 
L 703 3866 
L 703 4441 
L 1819 4666 
L 2450 4666 
L 2450 531 
L 3481 531 
L 3481 0 
L 794 0 
L 794 531 
z
" transform="scale(0.015625)"/>
       </defs>
       <use xlink:href="#DejaVuSans-31"/>
       <use xlink:href="#DejaVuSans-30" transform="translate(63.623047 0)"/>
       <use xlink:href="#DejaVuSans-30" transform="translate(127.246094 0)"/>
      </g>
     </g>
    </g>
    <g id="xtick_6">
     <g id="line2d_11">
      <path d="M 482.710627 384.117812 
L 482.710627 23.837812 
" clip-path="url(#p4b81a0137a)" style="fill: none; stroke: #b0b0b0; stroke-opacity: 0.2; stroke-width: 0.6; stroke-linecap: square"/>
     </g>
     <g id="line2d_12">
      <g>
       <use xlink:href="#me64d9031ec" x="482.710627" y="384.117812" style="stroke: #000000; stroke-width: 0.8"/>
      </g>
     </g>
     <g id="text_6">
      <!-- 125 -->
      <g transform="translate(472.212502 399.476094) scale(0.11 -0.11)">
       <use xlink:href="#DejaVuSans-31"/>
       <use xlink:href="#DejaVuSans-32" transform="translate(63.623047 0)"/>
       <use xlink:href="#DejaVuSans-35" transform="translate(127.246094 0)"/>
      </g>
     </g>
    </g>
    <g id="xtick_7">
     <g id="line2d_13">
      <path d="M 569.791314 384.117812 
L 569.791314 23.837812 
" clip-path="url(#p4b81a0137a)" style="fill: none; stroke: #b0b0b0; stroke-opacity: 0.2; stroke-width: 0.6; stroke-linecap: square"/>
     </g>
     <g id="line2d_14">
      <g>
       <use xlink:href="#me64d9031ec" x="569.791314" y="384.117812" style="stroke: #000000; stroke-width: 0.8"/>
      </g>
     </g>
     <g id="text_7">
      <!-- 150 -->
      <g transform="translate(559.293189 399.476094) scale(0.11 -0.11)">
       <use xlink:href="#DejaVuSans-31"/>
       <use xlink:href="#DejaVuSans-35" transform="translate(63.623047 0)"/>
       <use xlink:href="#DejaVuSans-30" transform="translate(127.246094 0)"/>
      </g>
     </g>
    </g>
    <g id="xtick_8">
     <g id="line2d_15">
      <path d="M 656.872002 384.117812 
L 656.872002 23.837812 
" clip-path="url(#p4b81a0137a)" style="fill: none; stroke: #b0b0b0; stroke-opacity: 0.2; stroke-width: 0.6; stroke-linecap: square"/>
     </g>
     <g id="line2d_16">
      <g>
       <use xlink:href="#me64d9031ec" x="656.872002" y="384.117812" style="stroke: #000000; stroke-width: 0.8"/>
      </g>
     </g>
     <g id="text_8">
      <!-- 175 -->
      <g transform="translate(646.373877 399.476094) scale(0.11 -0.11)">
       <use xlink:href="#DejaVuSans-31"/>
       <use xlink:href="#DejaVuSans-37" transform="translate(63.623047 0)"/>
       <use xlink:href="#DejaVuSans-35" transform="translate(127.246094 0)"/>
      </g>
     </g>
    </g>
    <g id="text_9">
     <!-- Time (s) -->
     <g transform="translate(352.0775 414.881875) scale(0.12 -0.12)">
      <defs>
       <path id="DejaVuSans-54" d="M -19 4666 
L 3928 4666 
L 3928 4134 
L 2272 4134 
L 2272 0 
L 1638 0 
L 1638 4134 
L -19 4134 
L -19 4666 
z
" transform="scale(0.015625)"/>
       <path id="DejaVuSans-69" d="M 603 3500 
L 1178 3500 
L 1178 0 
L 603 0 
L 603 3500 
z
M 603 4863 
L 1178 4863 
L 1178 4134 
L 603 4134 
L 603 4863 
z
" transform="scale(0.015625)"/>
       <path id="DejaVuSans-6d" d="M 3328 2828 
Q 3544 3216 3844 3400 
Q 4144 3584 4550 3584 
Q 5097 3584 5394 3201 
Q 5691 2819 5691 2113 
L 5691 0 
L 5113 0 
L 5113 2094 
Q 5113 2597 4934 2840 
Q 4756 3084 4391 3084 
Q 3944 3084 3684 2787 
Q 3425 2491 3425 1978 
L 3425 0 
L 2847 0 
L 2847 2094 
Q 2847 2600 2669 2842 
Q 2491 3084 2119 3084 
Q 1678 3084 1418 2786 
Q 1159 2488 1159 1978 
L 1159 0 
L 581 0 
L 581 3500 
L 1159 3500 
L 1159 2956 
Q 1356 3278 1631 3431 
Q 1906 3584 2284 3584 
Q 2666 3584 2933 3390 
Q 3200 3197 3328 2828 
z
" transform="scale(0.015625)"/>
       <path id="DejaVuSans-65" d="M 3597 1894 
L 3597 1613 
L 953 1613 
Q 991 1019 1311 708 
Q 1631 397 2203 397 
Q 2534 397 2845 478 
Q 3156 559 3463 722 
L 3463 178 
Q 3153 47 2828 -22 
Q 2503 -91 2169 -91 
Q 1331 -91 842 396 
Q 353 884 353 1716 
Q 353 2575 817 3079 
Q 1281 3584 2069 3584 
Q 2775 3584 3186 3129 
Q 3597 2675 3597 1894 
z
M 3022 2063 
Q 3016 2534 2758 2815 
Q 2500 3097 2075 3097 
Q 1594 3097 1305 2825 
Q 1016 2553 972 2059 
L 3022 2063 
z
" transform="scale(0.015625)"/>
       <path id="DejaVuSans-20" transform="scale(0.015625)"/>
       <path id="DejaVuSans-28" d="M 1984 4856 
Q 1566 4138 1362 3434 
Q 1159 2731 1159 2009 
Q 1159 1288 1364 580 
Q 1569 -128 1984 -844 
L 1484 -844 
Q 1016 -109 783 600 
Q 550 1309 550 2009 
Q 550 2706 781 3412 
Q 1013 4119 1484 4856 
L 1984 4856 
z
" transform="scale(0.015625)"/>
       <path id="DejaVuSans-73" d="M 2834 3397 
L 2834 2853 
Q 2591 2978 2328 3040 
Q 2066 3103 1784 3103 
Q 1356 3103 1142 2972 
Q 928 2841 928 2578 
Q 928 2378 1081 2264 
Q 1234 2150 1697 2047 
L 1894 2003 
Q 2506 1872 2764 1633 
Q 3022 1394 3022 966 
Q 3022 478 2636 193 
Q 2250 -91 1575 -91 
Q 1294 -91 989 -36 
Q 684 19 347 128 
L 347 722 
Q 666 556 975 473 
Q 1284 391 1588 391 
Q 1994 391 2212 530 
Q 2431 669 2431 922 
Q 2431 1156 2273 1281 
Q 2116 1406 1581 1522 
L 1381 1569 
Q 847 1681 609 1914 
Q 372 2147 372 2553 
Q 372 3047 722 3315 
Q 1072 3584 1716 3584 
Q 2034 3584 2315 3537 
Q 2597 3491 2834 3397 
z
" transform="scale(0.015625)"/>
       <path id="DejaVuSans-29" d="M 513 4856 
L 1013 4856 
Q 1481 4119 1714 3412 
Q 1947 2706 1947 2009 
Q 1947 1309 1714 600 
Q 1481 -109 1013 -844 
L 513 -844 
Q 928 -128 1133 580 
Q 1338 1288 1338 2009 
Q 1338 2731 1133 3434 
Q 928 4138 513 4856 
z
" transform="scale(0.015625)"/>
      </defs>
      <use xlink:href="#DejaVuSans-54"/>
      <use xlink:href="#DejaVuSans-69" transform="translate(57.958984 0)"/>
      <use xlink:href="#DejaVuSans-6d" transform="translate(85.742188 0)"/>
      <use xlink:href="#DejaVuSans-65" transform="translate(183.154297 0)"/>
      <use xlink:href="#DejaVuSans-20" transform="translate(244.677734 0)"/>
      <use xlink:href="#DejaVuSans-28" transform="translate(276.464844 0)"/>
      <use xlink:href="#DejaVuSans-73" transform="translate(315.478516 0)"/>
      <use xlink:href="#DejaVuSans-29" transform="translate(367.578125 0)"/>
     </g>
    </g>
   </g>
   <g id="matplotlib.axis_2">
    <g id="ytick_1">
     <g id="line2d_17">
      <path d="M 47.307188 367.741449 
L 705.637188 367.741449 
" clip-path="url(#p4b81a0137a)" style="fill: none; stroke: #b0b0b0; stroke-opacity: 0.2; stroke-width: 0.6; stroke-linecap: square"/>
     </g>
     <g id="line2d_18">
      <defs>
       <path id="m9d692c0617" d="M 0 0 
L -3.5 0 
" style="stroke: #000000; stroke-width: 0.8"/>
      </defs>
      <g>
       <use xlink:href="#m9d692c0617" x="47.307188" y="367.741449" style="stroke: #000000; stroke-width: 0.8"/>
      </g>
     </g>
     <g id="text_10">
      <!-- 0.0 -->
      <g transform="translate(22.81375 371.920589) scale(0.11 -0.11)">
       <defs>
        <path id="DejaVuSans-2e" d="M 684 794 
L 1344 794 
L 1344 0 
L 684 0 
L 684 794 
z
" transform="scale(0.015625)"/>
       </defs>
       <use xlink:href="#DejaVuSans-30"/>
       <use xlink:href="#DejaVuSans-2e" transform="translate(63.623047 0)"/>
       <use xlink:href="#DejaVuSans-30" transform="translate(95.410156 0)"/>
      </g>
     </g>
    </g>
    <g id="ytick_2">
     <g id="line2d_19">
      <path d="M 47.307188 317.507205 
L 705.637188 317.507205 
" clip-path="url(#p4b81a0137a)" style="fill: none; stroke: #b0b0b0; stroke-opacity: 0.2; stroke-width: 0.6; stroke-linecap: square"/>
     </g>
     <g id="line2d_20">
      <g>
       <use xlink:href="#m9d692c0617" x="47.307188" y="317.507205" style="stroke: #000000; stroke-width: 0.8"/>
      </g>
     </g>
     <g id="text_11">
      <!-- 0.5 -->
      <g transform="translate(22.81375 321.686345) scale(0.11 -0.11)">
       <use xlink:href="#DejaVuSans-30"/>
       <use xlink:href="#DejaVuSans-2e" transform="translate(63.623047 0)"/>
       <use xlink:href="#DejaVuSans-35" transform="translate(95.410156 0)"/>
      </g>
     </g>
    </g>
    <g id="ytick_3">
     <g id="line2d_21">
      <path d="M 47.307188 267.27296 
L 705.637188 267.27296 
" clip-path="url(#p4b81a0137a)" style="fill: none; stroke: #b0b0b0; stroke-opacity: 0.2; stroke-width: 0.6; stroke-linecap: square"/>
     </g>
     <g id="line2d_22">
      <g>
       <use xlink:href="#m9d692c0617" x="47.307188" y="267.27296" style="stroke: #000000; stroke-width: 0.8"/>
      </g>
     </g>
     <g id="text_12">
      <!-- 1.0 -->
      <g transform="translate(22.81375 271.452101) scale(0.11 -0.11)">
       <use xlink:href="#DejaVuSans-31"/>
       <use xlink:href="#DejaVuSans-2e" transform="translate(63.623047 0)"/>
       <use xlink:href="#DejaVuSans-30" transform="translate(95.410156 0)"/>
      </g>
     </g>
    </g>
    <g id="ytick_4">
     <g id="line2d_23">
      <path d="M 47.307188 217.038716 
L 705.637188 217.038716 
" clip-path="url(#p4b81a0137a)" style="fill: none; stroke: #b0b0b0; stroke-opacity: 0.2; stroke-width: 0.6; stroke-linecap: square"/>
     </g>
     <g id="line2d_24">
      <g>
       <use xlink:href="#m9d692c0617" x="47.307188" y="217.038716" style="stroke: #000000; stroke-width: 0.8"/>
      </g>
     </g>
     <g id="text_13">
      <!-- 1.5 -->
      <g transform="translate(22.81375 221.217857) scale(0.11 -0.11)">
       <use xlink:href="#DejaVuSans-31"/>
       <use xlink:href="#DejaVuSans-2e" transform="translate(63.623047 0)"/>
       <use xlink:href="#DejaVuSans-35" transform="translate(95.410156 0)"/>
      </g>
     </g>
    </g>
    <g id="ytick_5">
     <g id="line2d_25">
      <path d="M 47.307188 166.804472 
L 705.637188 166.804472 
" clip-path="url(#p4b81a0137a)" style="fill: none; stroke: #b0b0b0; stroke-opacity: 0.2; stroke-width: 0.6; stroke-linecap: square"/>
     </g>
     <g id="line2d_26">
      <g>
       <use xlink:href="#m9d692c0617" x="47.307188" y="166.804472" style="stroke: #000000; stroke-width: 0.8"/>
      </g>
     </g>
     <g id="text_14">
      <!-- 2.0 -->
      <g transform="translate(22.81375 170.983612) scale(0.11 -0.11)">
       <use xlink:href="#DejaVuSans-32"/>
       <use xlink:href="#DejaVuSans-2e" transform="translate(63.623047 0)"/>
       <use xlink:href="#DejaVuSans-30" transform="translate(95.410156 0)"/>
      </g>
     </g>
    </g>
    <g id="ytick_6">
     <g id="line2d_27">
      <path d="M 47.307188 116.570227 
L 705.637188 116.570227 
" clip-path="url(#p4b81a0137a)" style="fill: none; stroke: #b0b0b0; stroke-opacity: 0.2; stroke-width: 0.6; stroke-linecap: square"/>
     </g>
     <g id="line2d_28">
      <g>
       <use xlink:href="#m9d692c0617" x="47.307188" y="116.570227" style="stroke: #000000; stroke-width: 0.8"/>
      </g>
     </g>
     <g id="text_15">
      <!-- 2.5 -->
      <g transform="translate(22.81375 120.749368) scale(0.11 -0.11)">
       <use xlink:href="#DejaVuSans-32"/>
       <use xlink:href="#DejaVuSans-2e" transform="translate(63.623047 0)"/>
       <use xlink:href="#DejaVuSans-35" transform="translate(95.410156 0)"/>
      </g>
     </g>
    </g>
    <g id="ytick_7">
     <g id="line2d_29">
      <path d="M 47.307188 66.335983 
L 705.637188 66.335983 
" clip-path="url(#p4b81a0137a)" style="fill: none; stroke: #b0b0b0; stroke-opacity: 0.2; stroke-width: 0.6; stroke-linecap: square"/>
     </g>
     <g id="line2d_30">
      <g>
       <use xlink:href="#m9d692c0617" x="47.307188" y="66.335983" style="stroke: #000000; stroke-width: 0.8"/>
      </g>
     </g>
     <g id="text_16">
      <!-- 3.0 -->
      <g transform="translate(22.81375 70.515124) scale(0.11 -0.11)">
       <defs>
        <path id="DejaVuSans-33" d="M 2597 2516 
Q 3050 2419 3304 2112 
Q 3559 1806 3559 1356 
Q 3559 666 3084 287 
Q 2609 -91 1734 -91 
Q 1441 -91 1130 -33 
Q 819 25 488 141 
L 488 750 
Q 750 597 1062 519 
Q 1375 441 1716 441 
Q 2309 441 2620 675 
Q 2931 909 2931 1356 
Q 2931 1769 2642 2001 
Q 2353 2234 1838 2234 
L 1294 2234 
L 1294 2753 
L 1863 2753 
Q 2328 2753 2575 2939 
Q 2822 3125 2822 3475 
Q 2822 3834 2567 4026 
Q 2313 4219 1838 4219 
Q 1578 4219 1281 4162 
Q 984 4106 628 3988 
L 628 4550 
Q 988 4650 1302 4700 
Q 1616 4750 1894 4750 
Q 2613 4750 3031 4423 
Q 3450 4097 3450 3541 
Q 3450 3153 3228 2886 
Q 3006 2619 2597 2516 
z
" transform="scale(0.015625)"/>
       </defs>
       <use xlink:href="#DejaVuSans-33"/>
       <use xlink:href="#DejaVuSans-2e" transform="translate(63.623047 0)"/>
       <use xlink:href="#DejaVuSans-30" transform="translate(95.410156 0)"/>
      </g>
     </g>
    </g>
    <g id="text_17">
     <!-- AU mean intensity -->
     <g transform="translate(16.318125 259.314687) rotate(-90) scale(0.12 -0.12)">
      <defs>
       <path id="DejaVuSans-41" d="M 2188 4044 
L 1331 1722 
L 3047 1722 
L 2188 4044 
z
M 1831 4666 
L 2547 4666 
L 4325 0 
L 3669 0 
L 3244 1197 
L 1141 1197 
L 716 0 
L 50 0 
L 1831 4666 
z
" transform="scale(0.015625)"/>
       <path id="DejaVuSans-55" d="M 556 4666 
L 1191 4666 
L 1191 1831 
Q 1191 1081 1462 751 
Q 1734 422 2344 422 
Q 2950 422 3222 751 
Q 3494 1081 3494 1831 
L 3494 4666 
L 4128 4666 
L 4128 1753 
Q 4128 841 3676 375 
Q 3225 -91 2344 -91 
Q 1459 -91 1007 375 
Q 556 841 556 1753 
L 556 4666 
z
" transform="scale(0.015625)"/>
       <path id="DejaVuSans-61" d="M 2194 1759 
Q 1497 1759 1228 1600 
Q 959 1441 959 1056 
Q 959 750 1161 570 
Q 1363 391 1709 391 
Q 2188 391 2477 730 
Q 2766 1069 2766 1631 
L 2766 1759 
L 2194 1759 
z
M 3341 1997 
L 3341 0 
L 2766 0 
L 2766 531 
Q 2569 213 2275 61 
Q 1981 -91 1556 -91 
Q 1019 -91 701 211 
Q 384 513 384 1019 
Q 384 1609 779 1909 
Q 1175 2209 1959 2209 
L 2766 2209 
L 2766 2266 
Q 2766 2663 2505 2880 
Q 2244 3097 1772 3097 
Q 1472 3097 1187 3025 
Q 903 2953 641 2809 
L 641 3341 
Q 956 3463 1253 3523 
Q 1550 3584 1831 3584 
Q 2591 3584 2966 3190 
Q 3341 2797 3341 1997 
z
" transform="scale(0.015625)"/>
       <path id="DejaVuSans-6e" d="M 3513 2113 
L 3513 0 
L 2938 0 
L 2938 2094 
Q 2938 2591 2744 2837 
Q 2550 3084 2163 3084 
Q 1697 3084 1428 2787 
Q 1159 2491 1159 1978 
L 1159 0 
L 581 0 
L 581 3500 
L 1159 3500 
L 1159 2956 
Q 1366 3272 1645 3428 
Q 1925 3584 2291 3584 
Q 2894 3584 3203 3211 
Q 3513 2838 3513 2113 
z
" transform="scale(0.015625)"/>
       <path id="DejaVuSans-74" d="M 1172 4494 
L 1172 3500 
L 2356 3500 
L 2356 3053 
L 1172 3053 
L 1172 1153 
Q 1172 725 1289 603 
Q 1406 481 1766 481 
L 2356 481 
L 2356 0 
L 1766 0 
Q 1100 0 847 248 
Q 594 497 594 1153 
L 594 3053 
L 172 3053 
L 172 3500 
L 594 3500 
L 594 4494 
L 1172 4494 
z
" transform="scale(0.015625)"/>
       <path id="DejaVuSans-79" d="M 2059 -325 
Q 1816 -950 1584 -1140 
Q 1353 -1331 966 -1331 
L 506 -1331 
L 506 -850 
L 844 -850 
Q 1081 -850 1212 -737 
Q 1344 -625 1503 -206 
L 1606 56 
L 191 3500 
L 800 3500 
L 1894 763 
L 2988 3500 
L 3597 3500 
L 2059 -325 
z
" transform="scale(0.015625)"/>
      </defs>
      <use xlink:href="#DejaVuSans-41"/>
      <use xlink:href="#DejaVuSans-55" transform="translate(68.408203 0)"/>
      <use xlink:href="#DejaVuSans-20" transform="translate(141.601562 0)"/>
      <use xlink:href="#DejaVuSans-6d" transform="translate(173.388672 0)"/>
      <use xlink:href="#DejaVuSans-65" transform="translate(270.800781 0)"/>
      <use xlink:href="#DejaVuSans-61" transform="translate(332.324219 0)"/>
      <use xlink:href="#DejaVuSans-6e" transform="translate(393.603516 0)"/>
      <use xlink:href="#DejaVuSans-20" transform="translate(456.982422 0)"/>
      <use xlink:href="#DejaVuSans-69" transform="translate(488.769531 0)"/>
      <use xlink:href="#DejaVuSans-6e" transform="translate(516.552734 0)"/>
      <use xlink:href="#DejaVuSans-74" transform="translate(579.931641 0)"/>
      <use xlink:href="#DejaVuSans-65" transform="translate(619.140625 0)"/>
      <use xlink:href="#DejaVuSans-6e" transform="translate(680.664062 0)"/>
      <use xlink:href="#DejaVuSans-73" transform="translate(744.042969 0)"/>
      <use xlink:href="#DejaVuSans-69" transform="translate(796.142578 0)"/>
      <use xlink:href="#DejaVuSans-74" transform="translate(823.925781 0)"/>
      <use xlink:href="#DejaVuSans-79" transform="translate(863.134766 0)"/>
     </g>
    </g>
   </g>
   <g id="FillBetweenPolyCollection_1">
    <defs>
     <path id="mc9056b02c7" d="M 47.307188 -160.248392 
L 47.307188 -16.297776 
L 50.790415 -20.601646 
L 54.273643 -16.632853 
L 57.75687 -8.737082 
L 61.240098 -10.87261 
L 64.723325 -11.011651 
L 68.206553 -10.106072 
L 71.68978 -11.061531 
L 75.173008 -9.941893 
L 78.656235 -12.813885 
L 82.139463 -8.599472 
L 85.62269 -9.155428 
L 89.105918 -8.194165 
L 92.589145 -5.33392 
L 96.072373 -6.450672 
L 99.5556 -11.681129 
L 103.038828 -11.12551 
L 106.522055 -13.342821 
L 110.005283 -13.643999 
L 113.48851 -13.581686 
L 116.971738 -10.881799 
L 120.454965 -12.98313 
L 123.938193 -13.183951 
L 127.42142 -13.180762 
L 130.904648 -11.936875 
L 134.387875 -11.295779 
L 137.871103 -9.931489 
L 141.35433 -8.28431 
L 144.837558 -8.208668 
L 148.320785 -9.09159 
L 151.804013 -10.597561 
L 155.28724 -13.731479 
L 158.770468 -5.516737 
L 162.253695 -6.364086 
L 165.736923 -3.708165 
L 169.22015 -4.744329 
L 172.703378 -0.216509 
L 176.186605 -5.75174 
L 179.669833 -5.620589 
L 183.153061 -8.082261 
L 186.636288 -13.663354 
L 190.119516 -16.895317 
L 193.602743 -21.941456 
L 197.085971 -21.148606 
L 200.569198 -19.527427 
L 204.052426 -13.447141 
L 207.535653 -6.282014 
L 211.018881 -14.5476 
L 214.502108 -15.040422 
L 217.985336 -15.878264 
L 221.468563 -19.055214 
L 224.951791 -21.818818 
L 228.435018 -19.919698 
L 231.918246 -19.490601 
L 235.401473 -23.029803 
L 238.884701 -24.228607 
L 242.367928 -18.78672 
L 245.851156 -22.963289 
L 249.334383 -17.890157 
L 252.817611 -14.746156 
L 256.300838 -10.553659 
L 259.784066 -12.52923 
L 263.267293 -12.523859 
L 266.750521 -15.350013 
L 270.233748 -18.518081 
L 273.716976 -22.404225 
L 277.200203 -17.636509 
L 280.683431 -13.49155 
L 284.166658 -18.311832 
L 287.649886 -14.738373 
L 291.133113 -14.259525 
L 294.616341 -21.867761 
L 298.099568 -17.779077 
L 301.582796 -18.100661 
L 305.066023 -16.174639 
L 308.549251 -16.472491 
L 312.032479 -15.74408 
L 315.515706 -19.440604 
L 318.998934 -16.792695 
L 322.482161 -17.015326 
L 325.965389 -20.359971 
L 329.448616 -19.219166 
L 332.931844 -20.054766 
L 336.415071 -17.736906 
L 339.898299 -16.358993 
L 343.381526 -17.451121 
L 346.864754 -12.709902 
L 350.347981 -13.889409 
L 353.831209 -14.097521 
L 357.314436 -13.023224 
L 360.797664 -16.19843 
L 364.280891 -16.269853 
L 367.764119 -14.604881 
L 371.247346 -24.093595 
L 374.730574 -14.538908 
L 378.213801 -11.810326 
L 381.697029 -13.423386 
L 385.180256 -22.220001 
L 388.663484 -21.503383 
L 392.146711 -19.125284 
L 395.629939 -15.696933 
L 399.113166 -11.997408 
L 402.596394 -17.843884 
L 406.079621 -24.902954 
L 409.562849 -22.463993 
L 413.046076 -27.17389 
L 416.529304 -17.949947 
L 420.012531 -24.382013 
L 423.495759 -24.836668 
L 426.978986 -15.779959 
L 430.462214 -16.279345 
L 433.945441 -8.742604 
L 437.428669 -18.425875 
L 440.911896 -24.467702 
L 444.395124 10.322171 
L 447.878352 -6.249915 
L 451.361579 -21.872955 
L 454.844807 -15.344836 
L 458.328034 -27.411425 
L 461.811262 -21.515752 
L 465.294489 -17.422674 
L 468.777717 -19.759006 
L 472.260944 -18.371618 
L 475.744172 -17.612297 
L 479.227399 -16.207472 
L 482.710627 -13.126811 
L 486.193854 -11.891555 
L 489.677082 -13.148876 
L 493.160309 -15.685908 
L 496.643537 -15.587016 
L 500.126764 -17.709868 
L 503.609992 -15.393787 
L 507.093219 -9.618837 
L 510.576447 25.802507 
L 514.059674 -2.791889 
L 517.542902 -15.737913 
L 521.026129 -15.866058 
L 524.509357 -18.806793 
L 527.992584 -20.864343 
L 531.475812 -22.866745 
L 534.959039 -21.37747 
L 538.442267 -19.968543 
L 541.925494 -21.460773 
L 545.408722 -20.884024 
L 548.891949 -24.474094 
L 552.375177 -18.972741 
L 555.858404 -18.1375 
L 559.341632 -17.343834 
L 562.824859 -18.171314 
L 566.308087 -21.327979 
L 569.791314 -19.774126 
L 573.274542 -21.156115 
L 576.75777 -19.834832 
L 580.240997 -18.777593 
L 583.724225 -19.764105 
L 587.207452 -19.470698 
L 590.69068 -23.123746 
L 594.173907 -11.553749 
L 597.657135 -18.691527 
L 601.140362 -18.540844 
L 604.62359 -20.221682 
L 608.106817 -26.104847 
L 611.590045 -31.175609 
L 615.073272 -18.837206 
L 618.5565 -9.871338 
L 622.039727 -30.425902 
L 625.522955 -22.538632 
L 629.006182 -12.161333 
L 632.48941 -16.342329 
L 635.972637 -16.976735 
L 639.455865 -8.995177 
L 642.939092 -4.432488 
L 646.42232 -18.127962 
L 649.905547 -13.275539 
L 653.388775 -20.555847 
L 656.872002 -12.405453 
L 660.35523 -9.782643 
L 663.838457 -18.204866 
L 667.321685 -10.439396 
L 670.804912 -17.869825 
L 674.28814 -14.311834 
L 677.771367 -10.795702 
L 681.254595 -13.917081 
L 684.737822 -13.013136 
L 688.22105 -16.965002 
L 691.704277 -23.78952 
L 695.187505 -26.342311 
L 698.670732 -27.416093 
L 702.15396 -31.630228 
L 705.637188 -28.516118 
L 705.637188 -147.796227 
L 705.637188 -147.796227 
L 702.15396 -139.705302 
L 698.670732 -142.025348 
L 695.187505 -152.768932 
L 691.704277 -164.127226 
L 688.22105 -177.502773 
L 684.737822 -185.490645 
L 681.254595 -189.398841 
L 677.771367 -195.358358 
L 674.28814 -200.42356 
L 670.804912 -189.066788 
L 667.321685 -202.637411 
L 663.838457 -190.871542 
L 660.35523 -195.119423 
L 656.872002 -194.148034 
L 653.388775 -193.641937 
L 649.905547 -200.962871 
L 646.42232 -189.016057 
L 642.939092 -196.414878 
L 639.455865 -198.141216 
L 635.972637 -190.68537 
L 632.48941 -198.120448 
L 629.006182 -199.654013 
L 625.522955 -205.415899 
L 622.039727 -196.092895 
L 618.5565 -203.382766 
L 615.073272 -181.559784 
L 611.590045 -173.602539 
L 608.106817 -173.106086 
L 604.62359 -180.22126 
L 601.140362 -181.444491 
L 597.657135 -189.337072 
L 594.173907 -195.22187 
L 590.69068 -181.629619 
L 587.207452 -187.050184 
L 583.724225 -178.059412 
L 580.240997 -177.627151 
L 576.75777 -169.194466 
L 573.274542 -171.348088 
L 569.791314 -167.737549 
L 566.308087 -173.08166 
L 562.824859 -180.519626 
L 559.341632 -178.101059 
L 555.858404 -176.580454 
L 552.375177 -176.351915 
L 548.891949 -169.120977 
L 545.408722 -165.129466 
L 541.925494 -161.540306 
L 538.442267 -166.397504 
L 534.959039 -164.450833 
L 531.475812 -160.216244 
L 527.992584 -166.921857 
L 524.509357 -167.451245 
L 521.026129 -179.238899 
L 517.542902 -182.2299 
L 514.059674 -208.035339 
L 510.576447 -233.303619 
L 507.093219 -170.518794 
L 503.609992 -160.570816 
L 500.126764 -155.213859 
L 496.643537 -156.695101 
L 493.160309 -155.044243 
L 489.677082 -162.250579 
L 486.193854 -164.944314 
L 482.710627 -162.24031 
L 479.227399 -167.597004 
L 475.744172 -158.404959 
L 472.260944 -165.712789 
L 468.777717 -163.870358 
L 465.294489 -163.745463 
L 461.811262 -160.884088 
L 458.328034 -152.590971 
L 454.844807 -166.905112 
L 451.361579 -164.040592 
L 447.878352 -195.706846 
L 444.395124 -223.824288 
L 440.911896 -157.895679 
L 437.428669 -173.835976 
L 433.945441 -195.511159 
L 430.462214 -169.590103 
L 426.978986 -168.355798 
L 423.495759 -171.476518 
L 420.012531 -154.238106 
L 416.529304 -166.548605 
L 413.046076 -167.820972 
L 409.562849 -172.982556 
L 406.079621 -166.356748 
L 402.596394 -173.35768 
L 399.113166 -181.253434 
L 395.629939 -171.978647 
L 392.146711 -160.440778 
L 388.663484 -156.880779 
L 385.180256 -154.433285 
L 381.697029 -166.991237 
L 378.213801 -165.280484 
L 374.730574 -169.077669 
L 371.247346 -162.745148 
L 367.764119 -166.166367 
L 364.280891 -159.164037 
L 360.797664 -159.440105 
L 357.314436 -166.188362 
L 353.831209 -167.078285 
L 350.347981 -166.448397 
L 346.864754 -168.001908 
L 343.381526 -162.447135 
L 339.898299 -159.622745 
L 336.415071 -164.693318 
L 332.931844 -167.14148 
L 329.448616 -168.422861 
L 325.965389 -166.086596 
L 322.482161 -163.942306 
L 318.998934 -159.814095 
L 315.515706 -160.346246 
L 312.032479 -164.532495 
L 308.549251 -161.345501 
L 305.066023 -163.369513 
L 301.582796 -162.41337 
L 298.099568 -161.985569 
L 294.616341 -159.480806 
L 291.133113 -167.696637 
L 287.649886 -162.107343 
L 284.166658 -164.335003 
L 280.683431 -170.865126 
L 277.200203 -163.751736 
L 273.716976 -160.93554 
L 270.233748 -161.38506 
L 266.750521 -172.014605 
L 263.267293 -168.336307 
L 259.784066 -173.59023 
L 256.300838 -173.678969 
L 252.817611 -173.403054 
L 249.334383 -167.688406 
L 245.851156 -166.047952 
L 242.367928 -164.961677 
L 238.884701 -155.695636 
L 235.401473 -161.185667 
L 231.918246 -174.731551 
L 228.435018 -174.437942 
L 224.951791 -167.803793 
L 221.468563 -164.317617 
L 217.985336 -172.892505 
L 214.502108 -186.9696 
L 211.018881 -190.982861 
L 207.535653 -185.360879 
L 204.052426 -179.900752 
L 200.569198 -174.921721 
L 197.085971 -167.082119 
L 193.602743 -162.983204 
L 190.119516 -159.72549 
L 186.636288 -163.435439 
L 183.153061 -168.85442 
L 179.669833 -166.599668 
L 176.186605 -169.509788 
L 172.703378 -176.39424 
L 169.22015 -169.673508 
L 165.736923 -169.274662 
L 162.253695 -171.412211 
L 158.770468 -169.542184 
L 155.28724 -161.434267 
L 151.804013 -161.744707 
L 148.320785 -161.160779 
L 144.837558 -158.267536 
L 141.35433 -163.148003 
L 137.871103 -164.401166 
L 134.387875 -164.886879 
L 130.904648 -163.554804 
L 127.42142 -163.678479 
L 123.938193 -167.458883 
L 120.454965 -166.529458 
L 116.971738 -167.208334 
L 113.48851 -164.080488 
L 110.005283 -161.382513 
L 106.522055 -159.611804 
L 103.038828 -169.15129 
L 99.5556 -167.756056 
L 96.072373 -167.956252 
L 92.589145 -166.540617 
L 89.105918 -166.311893 
L 85.62269 -166.923297 
L 82.139463 -165.822704 
L 78.656235 -163.266878 
L 75.173008 -161.287024 
L 71.68978 -156.146214 
L 68.206553 -158.648308 
L 64.723325 -160.057915 
L 61.240098 -168.275588 
L 57.75687 -170.873325 
L 54.273643 -158.241145 
L 50.790415 -160.604437 
L 47.307188 -160.248392 
z
" style="stroke: #d3d3d3; stroke-opacity: 0.5"/>
    </defs>
    <g clip-path="url(#p4b81a0137a)">
     <use xlink:href="#mc9056b02c7" x="0" y="424.5775" style="fill: #d3d3d3; fill-opacity: 0.5; stroke: #d3d3d3; stroke-opacity: 0.5"/>
    </g>
   </g>
   <g id="FillBetweenPolyCollection_2">
    <defs>
     <path id="m793f7aaba3" d="M 47.307188 -124.260738 
L 47.307188 -52.28543 
L 50.790415 -55.602344 
L 54.273643 -52.034926 
L 57.75687 -49.271143 
L 61.240098 -50.223355 
L 64.723325 -48.273217 
L 68.206553 -47.241631 
L 71.68978 -47.332702 
L 75.173008 -47.778176 
L 78.656235 -50.427133 
L 82.139463 -47.90528 
L 85.62269 -48.597396 
L 89.105918 -47.723597 
L 92.589145 -45.635594 
L 96.072373 -46.827067 
L 99.5556 -50.699861 
L 103.038828 -50.631955 
L 106.522055 -49.910066 
L 110.005283 -50.578627 
L 113.48851 -51.206386 
L 116.971738 -49.963433 
L 120.454965 -51.369712 
L 123.938193 -51.752684 
L 127.42142 -50.805191 
L 130.904648 -49.841357 
L 134.387875 -49.693554 
L 137.871103 -48.548909 
L 141.35433 -47.000233 
L 144.837558 -45.723385 
L 148.320785 -47.108887 
L 151.804013 -48.384347 
L 155.28724 -50.657176 
L 158.770468 -46.523099 
L 162.253695 -47.626117 
L 165.736923 -45.099789 
L 169.22015 -45.976623 
L 172.703378 -44.260942 
L 176.186605 -46.691252 
L 179.669833 -45.865359 
L 183.153061 -48.275301 
L 186.636288 -51.106375 
L 190.119516 -52.60286 
L 193.602743 -57.201893 
L 197.085971 -57.631985 
L 200.569198 -58.376001 
L 204.052426 -55.060544 
L 207.535653 -51.051731 
L 211.018881 -58.656416 
L 214.502108 -58.022716 
L 217.985336 -55.131824 
L 221.468563 -55.370815 
L 224.951791 -58.315062 
L 228.435018 -58.549259 
L 231.918246 -58.300839 
L 235.401473 -57.568769 
L 238.884701 -57.095364 
L 242.367928 -55.330459 
L 245.851156 -58.734455 
L 249.334383 -55.339719 
L 252.817611 -54.41038 
L 256.300838 -51.334987 
L 259.784066 -52.79448 
L 263.267293 -51.476971 
L 266.750521 -54.516161 
L 270.233748 -54.234826 
L 273.716976 -57.037054 
L 277.200203 -54.165316 
L 280.683431 -52.834944 
L 284.166658 -54.817625 
L 287.649886 -51.580615 
L 291.133113 -52.618803 
L 294.616341 -56.271022 
L 298.099568 -53.8307 
L 301.582796 -54.178838 
L 305.066023 -52.973357 
L 308.549251 -52.690743 
L 312.032479 -52.941183 
L 315.515706 -54.667014 
L 318.998934 -52.548045 
L 322.482161 -53.747071 
L 325.965389 -56.791627 
L 329.448616 -56.52009 
L 332.931844 -56.826445 
L 336.415071 -54.476009 
L 339.898299 -52.174931 
L 343.381526 -53.700125 
L 346.864754 -51.532904 
L 350.347981 -52.029156 
L 353.831209 -52.342712 
L 357.314436 -51.314509 
L 360.797664 -52.008849 
L 364.280891 -51.993399 
L 367.764119 -52.495252 
L 371.247346 -58.756484 
L 374.730574 -53.173598 
L 378.213801 -50.177866 
L 381.697029 -51.815349 
L 385.180256 -55.273322 
L 388.663484 -55.347732 
L 392.146711 -54.454157 
L 395.629939 -54.767362 
L 399.113166 -54.311415 
L 402.596394 -56.722333 
L 406.079621 -60.266403 
L 409.562849 -60.093634 
L 413.046076 -62.335661 
L 416.529304 -55.099611 
L 420.012531 -56.846036 
L 423.495759 -61.496631 
L 426.978986 -53.923919 
L 430.462214 -54.607035 
L 433.945441 -55.434742 
L 437.428669 -57.278401 
L 440.911896 -57.824696 
L 444.395124 -48.214444 
L 447.878352 -53.614148 
L 451.361579 -57.414864 
L 454.844807 -53.234905 
L 458.328034 -58.706311 
L 461.811262 -56.357836 
L 465.294489 -54.003371 
L 468.777717 -55.786844 
L 472.260944 -55.206911 
L 475.744172 -52.810463 
L 479.227399 -54.054855 
L 482.710627 -50.405185 
L 486.193854 -50.154744 
L 489.677082 -50.424302 
L 493.160309 -50.525492 
L 496.643537 -50.864037 
L 500.126764 -52.085866 
L 503.609992 -51.688044 
L 507.093219 -49.843826 
L 510.576447 -38.974024 
L 514.059674 -54.102752 
L 517.542902 -57.36091 
L 521.026129 -56.709269 
L 524.509357 -55.967906 
L 527.992584 -57.378722 
L 531.475812 -57.20412 
L 534.959039 -57.145811 
L 538.442267 -56.575783 
L 541.925494 -56.480656 
L 545.408722 -56.945385 
L 548.891949 -60.635815 
L 552.375177 -58.317535 
L 555.858404 -57.748238 
L 559.341632 -57.53314 
L 562.824859 -58.758392 
L 566.308087 -59.2664 
L 569.791314 -56.764982 
L 573.274542 -58.704108 
L 576.75777 -57.174741 
L 580.240997 -58.489983 
L 583.724225 -59.337932 
L 587.207452 -61.365569 
L 590.69068 -62.750214 
L 594.173907 -57.470779 
L 597.657135 -61.352913 
L 601.140362 -59.266756 
L 604.62359 -60.221576 
L 608.106817 -62.855156 
L 611.590045 -66.782342 
L 615.073272 -59.517851 
L 618.5565 -58.249195 
L 622.039727 -71.842651 
L 625.522955 -68.257949 
L 629.006182 -59.034503 
L 632.48941 -61.786858 
L 635.972637 -60.403894 
L 639.455865 -56.281687 
L 642.939092 -52.428086 
L 646.42232 -60.849986 
L 649.905547 -60.197372 
L 653.388775 -63.827369 
L 656.872002 -57.841099 
L 660.35523 -56.116838 
L 663.838457 -61.371535 
L 667.321685 -58.4889 
L 670.804912 -60.669066 
L 674.28814 -60.839766 
L 677.771367 -56.936366 
L 681.254595 -57.787521 
L 684.737822 -56.132513 
L 688.22105 -57.099445 
L 691.704277 -58.873946 
L 695.187505 -57.948966 
L 698.670732 -56.068407 
L 702.15396 -58.648996 
L 705.637188 -58.336145 
L 705.637188 -117.976199 
L 705.637188 -117.976199 
L 702.15396 -112.686534 
L 698.670732 -113.373034 
L 695.187505 -121.162276 
L 691.704277 -129.042799 
L 688.22105 -137.36833 
L 684.737822 -142.371268 
L 681.254595 -145.528401 
L 677.771367 -149.217694 
L 674.28814 -153.895629 
L 670.804912 -146.267547 
L 667.321685 -154.587907 
L 663.838457 -147.704873 
L 660.35523 -148.785228 
L 656.872002 -148.712389 
L 653.388775 -150.370414 
L 649.905547 -154.041038 
L 646.42232 -146.294033 
L 642.939092 -148.419281 
L 639.455865 -150.854706 
L 635.972637 -147.258212 
L 632.48941 -152.675918 
L 629.006182 -152.780843 
L 625.522955 -159.696582 
L 622.039727 -154.676147 
L 618.5565 -155.004909 
L 615.073272 -140.87914 
L 611.590045 -137.995806 
L 608.106817 -136.355776 
L 604.62359 -140.221366 
L 601.140362 -140.718579 
L 597.657135 -146.675686 
L 594.173907 -149.30484 
L 590.69068 -142.00315 
L 587.207452 -145.155312 
L 583.724225 -138.485585 
L 580.240997 -137.914761 
L 576.75777 -131.854558 
L 573.274542 -133.800094 
L 569.791314 -130.746694 
L 566.308087 -135.14324 
L 562.824859 -139.932548 
L 559.341632 -137.911753 
L 555.858404 -136.969716 
L 552.375177 -137.007122 
L 548.891949 -132.959256 
L 545.408722 -129.068105 
L 541.925494 -126.520423 
L 538.442267 -129.790263 
L 534.959039 -128.682493 
L 531.475812 -125.878869 
L 527.992584 -130.407479 
L 524.509357 -130.290132 
L 521.026129 -138.395689 
L 517.542902 -140.606903 
L 514.059674 -156.724476 
L 510.576447 -168.527087 
L 507.093219 -130.293805 
L 503.609992 -124.276559 
L 500.126764 -120.837861 
L 496.643537 -121.41808 
L 493.160309 -120.204659 
L 489.677082 -124.975154 
L 486.193854 -126.681124 
L 482.710627 -124.961935 
L 479.227399 -129.749621 
L 475.744172 -123.206793 
L 472.260944 -128.877496 
L 468.777717 -127.84252 
L 465.294489 -127.164766 
L 461.811262 -126.042004 
L 458.328034 -121.296084 
L 454.844807 -129.015043 
L 451.361579 -128.498683 
L 447.878352 -148.342613 
L 444.395124 -165.287673 
L 440.911896 -124.538684 
L 437.428669 -134.983451 
L 433.945441 -148.81902 
L 430.462214 -131.262414 
L 426.978986 -130.211839 
L 423.495759 -134.816555 
L 420.012531 -121.774083 
L 416.529304 -129.398941 
L 413.046076 -132.659201 
L 409.562849 -135.352916 
L 406.079621 -130.9933 
L 402.596394 -134.479231 
L 399.113166 -138.939428 
L 395.629939 -132.908219 
L 392.146711 -125.111905 
L 388.663484 -123.03643 
L 385.180256 -121.379964 
L 381.697029 -128.599274 
L 378.213801 -126.912944 
L 374.730574 -130.442979 
L 371.247346 -128.08226 
L 367.764119 -128.275996 
L 364.280891 -123.440491 
L 360.797664 -123.629686 
L 357.314436 -127.897078 
L 353.831209 -128.833094 
L 350.347981 -128.30865 
L 346.864754 -129.178907 
L 343.381526 -126.198132 
L 339.898299 -123.806807 
L 336.415071 -127.954215 
L 332.931844 -130.369801 
L 329.448616 -131.121937 
L 325.965389 -129.65494 
L 322.482161 -127.210561 
L 318.998934 -124.058745 
L 315.515706 -125.119835 
L 312.032479 -127.335391 
L 308.549251 -125.127248 
L 305.066023 -126.570795 
L 301.582796 -126.335192 
L 298.099568 -125.933946 
L 294.616341 -125.077545 
L 291.133113 -129.337359 
L 287.649886 -125.2651 
L 284.166658 -127.82921 
L 280.683431 -131.521732 
L 277.200203 -127.222929 
L 273.716976 -126.302711 
L 270.233748 -125.668315 
L 266.750521 -132.848457 
L 263.267293 -129.383195 
L 259.784066 -133.32498 
L 256.300838 -132.897641 
L 252.817611 -133.738829 
L 249.334383 -130.238844 
L 245.851156 -130.276786 
L 242.367928 -128.417938 
L 238.884701 -122.828879 
L 235.401473 -126.646701 
L 231.918246 -135.921314 
L 228.435018 -135.808381 
L 224.951791 -131.307549 
L 221.468563 -128.002016 
L 217.985336 -133.638945 
L 214.502108 -143.987305 
L 211.018881 -146.874046 
L 207.535653 -140.591163 
L 204.052426 -138.287349 
L 200.569198 -136.073148 
L 197.085971 -130.598741 
L 193.602743 -127.722767 
L 190.119516 -124.017947 
L 186.636288 -125.992418 
L 183.153061 -128.66138 
L 179.669833 -126.354898 
L 176.186605 -128.570276 
L 172.703378 -132.349807 
L 169.22015 -128.441213 
L 165.736923 -127.883037 
L 162.253695 -130.15018 
L 158.770468 -128.535822 
L 155.28724 -124.50857 
L 151.804013 -123.957921 
L 148.320785 -123.143481 
L 144.837558 -120.752819 
L 141.35433 -124.432079 
L 137.871103 -125.783747 
L 134.387875 -126.489104 
L 130.904648 -125.650322 
L 127.42142 -126.05405 
L 123.938193 -128.89015 
L 120.454965 -128.142876 
L 116.971738 -128.1267 
L 113.48851 -126.455788 
L 110.005283 -124.447884 
L 106.522055 -123.044558 
L 103.038828 -129.644845 
L 99.5556 -128.737324 
L 96.072373 -127.579857 
L 92.589145 -126.238943 
L 89.105918 -126.782461 
L 85.62269 -127.48133 
L 82.139463 -126.516896 
L 78.656235 -125.65363 
L 75.173008 -123.450741 
L 71.68978 -119.875043 
L 68.206553 -121.512749 
L 64.723325 -122.796349 
L 61.240098 -128.924843 
L 57.75687 -130.339264 
L 54.273643 -122.839072 
L 50.790415 -125.603739 
L 47.307188 -124.260738 
z
" style="stroke: #808080; stroke-opacity: 0.7"/>
    </defs>
    <g clip-path="url(#p4b81a0137a)">
     <use xlink:href="#m793f7aaba3" x="0" y="424.5775" style="fill: #808080; fill-opacity: 0.7; stroke: #808080; stroke-opacity: 0.7"/>
    </g>
   </g>
   <g id="line2d_31">
    <path d="M 47.307188 367.741449 
L 54.273643 367.45299 
L 57.75687 359.874563 
L 61.240098 357.64322 
L 64.723325 356.465065 
L 68.206553 360.986677 
L 71.68978 365.084876 
L 75.173008 355.602468 
L 78.656235 351.366903 
L 82.139463 360.789779 
L 85.62269 355.710036 
L 89.105918 354.763928 
L 92.589145 351.297564 
L 96.072373 353.279084 
L 99.5556 357.767333 
L 103.038828 356.215433 
L 106.522055 357.701088 
L 110.005283 349.86011 
L 113.48851 346.457221 
L 116.971738 355.798968 
L 120.454965 359.653952 
L 123.938193 358.325928 
L 127.42142 354.72948 
L 130.904648 361.478939 
L 134.387875 356.584555 
L 137.871103 353.182719 
L 141.35433 354.311753 
L 144.837558 351.084279 
L 148.320785 346.681181 
L 151.804013 335.647447 
L 155.28724 349.116701 
L 158.770468 349.819977 
L 162.253695 352.792271 
L 165.736923 366.449214 
L 169.22015 356.945221 
L 172.703378 355.66831 
L 176.186605 356.371943 
L 179.669833 357.375057 
L 183.153061 355.839559 
L 186.636288 360.609008 
L 190.119516 357.456788 
L 193.602743 366.384863 
L 197.085971 358.563653 
L 200.569198 360.585561 
L 204.052426 357.776509 
L 207.535653 349.840105 
L 211.018881 358.181179 
L 214.502108 365.63458 
L 217.985336 347.794019 
L 221.468563 344.138782 
L 224.951791 341.364689 
L 228.435018 348.646094 
L 231.918246 334.478004 
L 235.401473 317.497068 
L 238.884701 326.863258 
L 242.367928 331.185689 
L 245.851156 323.674355 
L 249.334383 336.848286 
L 252.817611 317.233766 
L 256.300838 338.81307 
L 259.784066 329.638585 
L 263.267293 325.394346 
L 266.750521 336.081264 
L 270.233748 335.568991 
L 273.716976 334.052881 
L 277.200203 344.567807 
L 280.683431 352.200984 
L 284.166658 346.56155 
L 287.649886 350.277013 
L 291.133113 352.200345 
L 294.616341 355.477435 
L 298.099568 349.203667 
L 301.582796 343.245507 
L 305.066023 344.288983 
L 308.549251 342.81385 
L 312.032479 346.781931 
L 315.515706 338.799413 
L 318.998934 349.236329 
L 322.482161 351.768184 
L 325.965389 338.912184 
L 329.448616 347.973391 
L 332.931844 349.06378 
L 336.415071 350.317046 
L 339.898299 353.526015 
L 343.381526 346.403039 
L 346.864754 348.670901 
L 350.347981 341.501268 
L 353.831209 340.91732 
L 360.797664 358.47404 
L 364.280891 363.218891 
L 367.764119 357.573738 
L 371.247346 355.042104 
L 374.730574 355.952923 
L 378.213801 351.385571 
L 385.180256 343.8036 
L 388.663484 347.42186 
L 392.146711 362.023128 
L 395.629939 359.76247 
L 399.113166 358.26178 
L 402.596394 362.833088 
L 406.079621 356.525429 
L 409.562849 359.895897 
L 413.046076 350.247978 
L 416.529304 344.689003 
L 420.012531 335.368656 
L 423.495759 335.13384 
L 426.978986 353.457188 
L 430.462214 346.804409 
L 433.945441 338.320067 
L 437.428669 357.542012 
L 440.911896 349.795182 
L 444.395124 335.898886 
L 447.878352 361.633993 
L 451.361579 342.938384 
L 454.844807 347.894708 
L 458.328034 356.506655 
L 461.811262 364.368002 
L 465.294489 347.618917 
L 468.777717 357.371063 
L 472.260944 358.551552 
L 475.744172 357.669082 
L 479.227399 339.022126 
L 482.710627 339.838086 
L 486.193854 347.604552 
L 489.677082 358.589397 
L 493.160309 355.172128 
L 496.643537 353.76646 
L 500.126764 349.600771 
L 503.609992 354.339998 
L 507.093219 352.797254 
L 510.576447 364.107839 
L 514.059674 366.731087 
L 517.542902 367.110065 
L 521.026129 366.994916 
L 524.509357 361.579488 
L 527.992584 364.645919 
L 531.475812 349.046574 
L 534.959039 352.577769 
L 538.442267 358.020531 
L 541.925494 356.631018 
L 545.408722 348.696683 
L 548.891949 345.45948 
L 552.375177 355.169428 
L 555.858404 354.422765 
L 559.341632 354.46464 
L 562.824859 350.844149 
L 566.308087 346.48292 
L 569.791314 348.647912 
L 573.274542 353.797925 
L 576.75777 349.346364 
L 580.240997 340.779113 
L 583.724225 327.492488 
L 587.207452 276.70319 
L 590.69068 267.077462 
L 594.173907 278.18187 
L 597.657135 283.02752 
L 601.140362 305.028258 
L 604.62359 301.41373 
L 608.106817 311.22373 
L 611.590045 280.903024 
L 615.073272 317.013778 
L 618.5565 305.351409 
L 622.039727 306.414496 
L 625.522955 275.876845 
L 629.006182 282.194256 
L 632.48941 306.8196 
L 635.972637 308.879128 
L 639.455865 318.36409 
L 642.939092 323.922541 
L 646.42232 325.389675 
L 649.905547 301.831801 
L 653.388775 264.788608 
L 656.872002 280.416758 
L 660.35523 255.481306 
L 663.838457 250.77798 
L 667.321685 259.527055 
L 670.804912 297.288644 
L 674.28814 304.236206 
L 677.771367 329.112233 
L 681.254595 335.991825 
L 684.737822 318.279856 
L 688.22105 323.221569 
L 691.704277 316.275755 
L 695.187505 324.762085 
L 698.670732 333.59465 
L 702.15396 334.496227 
L 705.637188 315.553115 
L 705.637188 315.553115 
" clip-path="url(#p4b81a0137a)" style="fill: none; stroke: #ff8c00; stroke-width: 2.3; stroke-linecap: square"/>
   </g>
   <g id="line2d_32">
    <path d="M 284.166658 384.117812 
L 284.166658 23.837812 
" clip-path="url(#p4b81a0137a)" style="fill: none; stroke-dasharray: 5.55,2.4; stroke-dashoffset: 0; stroke: #808080; stroke-width: 1.5"/>
   </g>
   <g id="line2d_33">
    <path d="M 486.193854 384.117812 
L 486.193854 23.837812 
" clip-path="url(#p4b81a0137a)" style="fill: none; stroke-dasharray: 5.55,2.4; stroke-dashoffset: 0; stroke: #808080; stroke-width: 1.5"/>
   </g>
   <g id="patch_3">
    <path d="M 47.307188 384.117812 
L 47.307188 23.837812 
" style="fill: none; stroke: #000000; stroke-width: 0.8; stroke-linejoin: miter; stroke-linecap: square"/>
   </g>
   <g id="patch_4">
    <path d="M 705.637188 384.117812 
L 705.637188 23.837812 
" style="fill: none; stroke: #000000; stroke-width: 0.8; stroke-linejoin: miter; stroke-linecap: square"/>
   </g>
   <g id="patch_5">
    <path d="M 47.307188 384.117812 
L 705.637188 384.117812 
" style="fill: none; stroke: #000000; stroke-width: 0.8; stroke-linejoin: miter; stroke-linecap: square"/>
   </g>
   <g id="patch_6">
    <path d="M 47.307188 23.837812 
L 705.637188 23.837812 
" style="fill: none; stroke: #000000; stroke-width: 0.8; stroke-linejoin: miter; stroke-linecap: square"/>
   </g>
   <g id="text_18">
    <!-- Facial trace: Depressive disorder (MDD/DD) (female) -->
    <g transform="translate(192.645625 17.837812) scale(0.14 -0.14)">
     <defs>
      <path id="DejaVuSans-46" d="M 628 4666 
L 3309 4666 
L 3309 4134 
L 1259 4134 
L 1259 2759 
L 3109 2759 
L 3109 2228 
L 1259 2228 
L 1259 0 
L 628 0 
L 628 4666 
z
" transform="scale(0.015625)"/>
      <path id="DejaVuSans-63" d="M 3122 3366 
L 3122 2828 
Q 2878 2963 2633 3030 
Q 2388 3097 2138 3097 
Q 1578 3097 1268 2742 
Q 959 2388 959 1747 
Q 959 1106 1268 751 
Q 1578 397 2138 397 
Q 2388 397 2633 464 
Q 2878 531 3122 666 
L 3122 134 
Q 2881 22 2623 -34 
Q 2366 -91 2075 -91 
Q 1284 -91 818 406 
Q 353 903 353 1747 
Q 353 2603 823 3093 
Q 1294 3584 2113 3584 
Q 2378 3584 2631 3529 
Q 2884 3475 3122 3366 
z
" transform="scale(0.015625)"/>
      <path id="DejaVuSans-6c" d="M 603 4863 
L 1178 4863 
L 1178 0 
L 603 0 
L 603 4863 
z
" transform="scale(0.015625)"/>
      <path id="DejaVuSans-72" d="M 2631 2963 
Q 2534 3019 2420 3045 
Q 2306 3072 2169 3072 
Q 1681 3072 1420 2755 
Q 1159 2438 1159 1844 
L 1159 0 
L 581 0 
L 581 3500 
L 1159 3500 
L 1159 2956 
Q 1341 3275 1631 3429 
Q 1922 3584 2338 3584 
Q 2397 3584 2469 3576 
Q 2541 3569 2628 3553 
L 2631 2963 
z
" transform="scale(0.015625)"/>
      <path id="DejaVuSans-3a" d="M 750 794 
L 1409 794 
L 1409 0 
L 750 0 
L 750 794 
z
M 750 3309 
L 1409 3309 
L 1409 2516 
L 750 2516 
L 750 3309 
z
" transform="scale(0.015625)"/>
      <path id="DejaVuSans-44" d="M 1259 4147 
L 1259 519 
L 2022 519 
Q 2988 519 3436 956 
Q 3884 1394 3884 2338 
Q 3884 3275 3436 3711 
Q 2988 4147 2022 4147 
L 1259 4147 
z
M 628 4666 
L 1925 4666 
Q 3281 4666 3915 4102 
Q 4550 3538 4550 2338 
Q 4550 1131 3912 565 
Q 3275 0 1925 0 
L 628 0 
L 628 4666 
z
" transform="scale(0.015625)"/>
      <path id="DejaVuSans-70" d="M 1159 525 
L 1159 -1331 
L 581 -1331 
L 581 3500 
L 1159 3500 
L 1159 2969 
Q 1341 3281 1617 3432 
Q 1894 3584 2278 3584 
Q 2916 3584 3314 3078 
Q 3713 2572 3713 1747 
Q 3713 922 3314 415 
Q 2916 -91 2278 -91 
Q 1894 -91 1617 61 
Q 1341 213 1159 525 
z
M 3116 1747 
Q 3116 2381 2855 2742 
Q 2594 3103 2138 3103 
Q 1681 3103 1420 2742 
Q 1159 2381 1159 1747 
Q 1159 1113 1420 752 
Q 1681 391 2138 391 
Q 2594 391 2855 752 
Q 3116 1113 3116 1747 
z
" transform="scale(0.015625)"/>
      <path id="DejaVuSans-76" d="M 191 3500 
L 800 3500 
L 1894 563 
L 2988 3500 
L 3597 3500 
L 2284 0 
L 1503 0 
L 191 3500 
z
" transform="scale(0.015625)"/>
      <path id="DejaVuSans-64" d="M 2906 2969 
L 2906 4863 
L 3481 4863 
L 3481 0 
L 2906 0 
L 2906 525 
Q 2725 213 2448 61 
Q 2172 -91 1784 -91 
Q 1150 -91 751 415 
Q 353 922 353 1747 
Q 353 2572 751 3078 
Q 1150 3584 1784 3584 
Q 2172 3584 2448 3432 
Q 2725 3281 2906 2969 
z
M 947 1747 
Q 947 1113 1208 752 
Q 1469 391 1925 391 
Q 2381 391 2643 752 
Q 2906 1113 2906 1747 
Q 2906 2381 2643 2742 
Q 2381 3103 1925 3103 
Q 1469 3103 1208 2742 
Q 947 2381 947 1747 
z
" transform="scale(0.015625)"/>
      <path id="DejaVuSans-6f" d="M 1959 3097 
Q 1497 3097 1228 2736 
Q 959 2375 959 1747 
Q 959 1119 1226 758 
Q 1494 397 1959 397 
Q 2419 397 2687 759 
Q 2956 1122 2956 1747 
Q 2956 2369 2687 2733 
Q 2419 3097 1959 3097 
z
M 1959 3584 
Q 2709 3584 3137 3096 
Q 3566 2609 3566 1747 
Q 3566 888 3137 398 
Q 2709 -91 1959 -91 
Q 1206 -91 779 398 
Q 353 888 353 1747 
Q 353 2609 779 3096 
Q 1206 3584 1959 3584 
z
" transform="scale(0.015625)"/>
      <path id="DejaVuSans-4d" d="M 628 4666 
L 1569 4666 
L 2759 1491 
L 3956 4666 
L 4897 4666 
L 4897 0 
L 4281 0 
L 4281 4097 
L 3078 897 
L 2444 897 
L 1241 4097 
L 1241 0 
L 628 0 
L 628 4666 
z
" transform="scale(0.015625)"/>
      <path id="DejaVuSans-2f" d="M 1625 4666 
L 2156 4666 
L 531 -594 
L 0 -594 
L 1625 4666 
z
" transform="scale(0.015625)"/>
      <path id="DejaVuSans-66" d="M 2375 4863 
L 2375 4384 
L 1825 4384 
Q 1516 4384 1395 4259 
Q 1275 4134 1275 3809 
L 1275 3500 
L 2222 3500 
L 2222 3053 
L 1275 3053 
L 1275 0 
L 697 0 
L 697 3053 
L 147 3053 
L 147 3500 
L 697 3500 
L 697 3744 
Q 697 4328 969 4595 
Q 1241 4863 1831 4863 
L 2375 4863 
z
" transform="scale(0.015625)"/>
     </defs>
     <use xlink:href="#DejaVuSans-46"/>
     <use xlink:href="#DejaVuSans-61" transform="translate(48.394531 0)"/>
     <use xlink:href="#DejaVuSans-63" transform="translate(109.673828 0)"/>
     <use xlink:href="#DejaVuSans-69" transform="translate(164.654297 0)"/>
     <use xlink:href="#DejaVuSans-61" transform="translate(192.4375 0)"/>
     <use xlink:href="#DejaVuSans-6c" transform="translate(253.716797 0)"/>
     <use xlink:href="#DejaVuSans-20" transform="translate(281.5 0)"/>
     <use xlink:href="#DejaVuSans-74" transform="translate(313.287109 0)"/>
     <use xlink:href="#DejaVuSans-72" transform="translate(352.496094 0)"/>
     <use xlink:href="#DejaVuSans-61" transform="translate(393.609375 0)"/>
     <use xlink:href="#DejaVuSans-63" transform="translate(454.888672 0)"/>
     <use xlink:href="#DejaVuSans-65" transform="translate(509.869141 0)"/>
     <use xlink:href="#DejaVuSans-3a" transform="translate(571.392578 0)"/>
     <use xlink:href="#DejaVuSans-20" transform="translate(605.083984 0)"/>
     <use xlink:href="#DejaVuSans-44" transform="translate(636.871094 0)"/>
     <use xlink:href="#DejaVuSans-65" transform="translate(713.873047 0)"/>
     <use xlink:href="#DejaVuSans-70" transform="translate(775.396484 0)"/>
     <use xlink:href="#DejaVuSans-72" transform="translate(838.873047 0)"/>
     <use xlink:href="#DejaVuSans-65" transform="translate(877.736328 0)"/>
     <use xlink:href="#DejaVuSans-73" transform="translate(939.259766 0)"/>
     <use xlink:href="#DejaVuSans-73" transform="translate(991.359375 0)"/>
     <use xlink:href="#DejaVuSans-69" transform="translate(1043.458984 0)"/>
     <use xlink:href="#DejaVuSans-76" transform="translate(1071.242188 0)"/>
     <use xlink:href="#DejaVuSans-65" transform="translate(1130.421875 0)"/>
     <use xlink:href="#DejaVuSans-20" transform="translate(1191.945312 0)"/>
     <use xlink:href="#DejaVuSans-64" transform="translate(1223.732422 0)"/>
     <use xlink:href="#DejaVuSans-69" transform="translate(1287.208984 0)"/>
     <use xlink:href="#DejaVuSans-73" transform="translate(1314.992188 0)"/>
     <use xlink:href="#DejaVuSans-6f" transform="translate(1367.091797 0)"/>
     <use xlink:href="#DejaVuSans-72" transform="translate(1428.273438 0)"/>
     <use xlink:href="#DejaVuSans-64" transform="translate(1467.636719 0)"/>
     <use xlink:href="#DejaVuSans-65" transform="translate(1531.113281 0)"/>
     <use xlink:href="#DejaVuSans-72" transform="translate(1592.636719 0)"/>
     <use xlink:href="#DejaVuSans-20" transform="translate(1633.75 0)"/>
     <use xlink:href="#DejaVuSans-28" transform="translate(1665.537109 0)"/>
     <use xlink:href="#DejaVuSans-4d" transform="translate(1704.550781 0)"/>
     <use xlink:href="#DejaVuSans-44" transform="translate(1790.830078 0)"/>
     <use xlink:href="#DejaVuSans-44" transform="translate(1867.832031 0)"/>
     <use xlink:href="#DejaVuSans-2f" transform="translate(1944.833984 0)"/>
     <use xlink:href="#DejaVuSans-44" transform="translate(1978.525391 0)"/>
     <use xlink:href="#DejaVuSans-44" transform="translate(2055.527344 0)"/>
     <use xlink:href="#DejaVuSans-29" transform="translate(2132.529297 0)"/>
     <use xlink:href="#DejaVuSans-20" transform="translate(2171.542969 0)"/>
     <use xlink:href="#DejaVuSans-28" transform="translate(2203.330078 0)"/>
     <use xlink:href="#DejaVuSans-66" transform="translate(2242.34375 0)"/>
     <use xlink:href="#DejaVuSans-65" transform="translate(2277.548828 0)"/>
     <use xlink:href="#DejaVuSans-6d" transform="translate(2339.072266 0)"/>
     <use xlink:href="#DejaVuSans-61" transform="translate(2436.484375 0)"/>
     <use xlink:href="#DejaVuSans-6c" transform="translate(2497.763672 0)"/>
     <use xlink:href="#DejaVuSans-65" transform="translate(2525.546875 0)"/>
     <use xlink:href="#DejaVuSans-29" transform="translate(2587.070312 0)"/>
    </g>
   </g>
   <g id="legend_1">
    <g id="patch_7">
     <path d="M 457.46 42.096094 
L 479.46 42.096094 
L 479.46 34.396094 
L 457.46 34.396094 
z
" style="fill: #d3d3d3; fill-opacity: 0.5; stroke: #d3d3d3; stroke-opacity: 0.5; stroke-linejoin: miter"/>
    </g>
    <g id="text_19">
     <!-- Depressive disorder (MDD/DD) ±2 SD -->
     <g transform="translate(488.26 42.096094) scale(0.11 -0.11)">
      <defs>
       <path id="DejaVuSans-b1" d="M 2944 4013 
L 2944 2803 
L 4684 2803 
L 4684 2272 
L 2944 2272 
L 2944 1063 
L 2419 1063 
L 2419 2272 
L 678 2272 
L 678 2803 
L 2419 2803 
L 2419 4013 
L 2944 4013 
z
M 678 531 
L 4684 531 
L 4684 0 
L 678 0 
L 678 531 
z
" transform="scale(0.015625)"/>
       <path id="DejaVuSans-53" d="M 3425 4513 
L 3425 3897 
Q 3066 4069 2747 4153 
Q 2428 4238 2131 4238 
Q 1616 4238 1336 4038 
Q 1056 3838 1056 3469 
Q 1056 3159 1242 3001 
Q 1428 2844 1947 2747 
L 2328 2669 
Q 3034 2534 3370 2195 
Q 3706 1856 3706 1288 
Q 3706 609 3251 259 
Q 2797 -91 1919 -91 
Q 1588 -91 1214 -16 
Q 841 59 441 206 
L 441 856 
Q 825 641 1194 531 
Q 1563 422 1919 422 
Q 2459 422 2753 634 
Q 3047 847 3047 1241 
Q 3047 1584 2836 1778 
Q 2625 1972 2144 2069 
L 1759 2144 
Q 1053 2284 737 2584 
Q 422 2884 422 3419 
Q 422 4038 858 4394 
Q 1294 4750 2059 4750 
Q 2388 4750 2728 4690 
Q 3069 4631 3425 4513 
z
" transform="scale(0.015625)"/>
      </defs>
      <use xlink:href="#DejaVuSans-44"/>
      <use xlink:href="#DejaVuSans-65" transform="translate(77.001953 0)"/>
      <use xlink:href="#DejaVuSans-70" transform="translate(138.525391 0)"/>
      <use xlink:href="#DejaVuSans-72" transform="translate(202.001953 0)"/>
      <use xlink:href="#DejaVuSans-65" transform="translate(240.865234 0)"/>
      <use xlink:href="#DejaVuSans-73" transform="translate(302.388672 0)"/>
      <use xlink:href="#DejaVuSans-73" transform="translate(354.488281 0)"/>
      <use xlink:href="#DejaVuSans-69" transform="translate(406.587891 0)"/>
      <use xlink:href="#DejaVuSans-76" transform="translate(434.371094 0)"/>
      <use xlink:href="#DejaVuSans-65" transform="translate(493.550781 0)"/>
      <use xlink:href="#DejaVuSans-20" transform="translate(555.074219 0)"/>
      <use xlink:href="#DejaVuSans-64" transform="translate(586.861328 0)"/>
      <use xlink:href="#DejaVuSans-69" transform="translate(650.337891 0)"/>
      <use xlink:href="#DejaVuSans-73" transform="translate(678.121094 0)"/>
      <use xlink:href="#DejaVuSans-6f" transform="translate(730.220703 0)"/>
      <use xlink:href="#DejaVuSans-72" transform="translate(791.402344 0)"/>
      <use xlink:href="#DejaVuSans-64" transform="translate(830.765625 0)"/>
      <use xlink:href="#DejaVuSans-65" transform="translate(894.242188 0)"/>
      <use xlink:href="#DejaVuSans-72" transform="translate(955.765625 0)"/>
      <use xlink:href="#DejaVuSans-20" transform="translate(996.878906 0)"/>
      <use xlink:href="#DejaVuSans-28" transform="translate(1028.666016 0)"/>
      <use xlink:href="#DejaVuSans-4d" transform="translate(1067.679688 0)"/>
      <use xlink:href="#DejaVuSans-44" transform="translate(1153.958984 0)"/>
      <use xlink:href="#DejaVuSans-44" transform="translate(1230.960938 0)"/>
      <use xlink:href="#DejaVuSans-2f" transform="translate(1307.962891 0)"/>
      <use xlink:href="#DejaVuSans-44" transform="translate(1341.654297 0)"/>
      <use xlink:href="#DejaVuSans-44" transform="translate(1418.65625 0)"/>
      <use xlink:href="#DejaVuSans-29" transform="translate(1495.658203 0)"/>
      <use xlink:href="#DejaVuSans-20" transform="translate(1534.671875 0)"/>
      <use xlink:href="#DejaVuSans-b1" transform="translate(1566.458984 0)"/>
      <use xlink:href="#DejaVuSans-32" transform="translate(1650.248047 0)"/>
      <use xlink:href="#DejaVuSans-20" transform="translate(1713.871094 0)"/>
      <use xlink:href="#DejaVuSans-53" transform="translate(1745.658203 0)"/>
      <use xlink:href="#DejaVuSans-44" transform="translate(1809.134766 0)"/>
     </g>
    </g>
    <g id="patch_8">
     <path d="M 457.46 58.242031 
L 479.46 58.242031 
L 479.46 50.542031 
L 457.46 50.542031 
z
" style="fill: #808080; fill-opacity: 0.7; stroke: #808080; stroke-opacity: 0.7; stroke-linejoin: miter"/>
    </g>
    <g id="text_20">
     <!-- Depressive disorder (MDD/DD) ±1 SD -->
     <g transform="translate(488.26 58.242031) scale(0.11 -0.11)">
      <use xlink:href="#DejaVuSans-44"/>
      <use xlink:href="#DejaVuSans-65" transform="translate(77.001953 0)"/>
      <use xlink:href="#DejaVuSans-70" transform="translate(138.525391 0)"/>
      <use xlink:href="#DejaVuSans-72" transform="translate(202.001953 0)"/>
      <use xlink:href="#DejaVuSans-65" transform="translate(240.865234 0)"/>
      <use xlink:href="#DejaVuSans-73" transform="translate(302.388672 0)"/>
      <use xlink:href="#DejaVuSans-73" transform="translate(354.488281 0)"/>
      <use xlink:href="#DejaVuSans-69" transform="translate(406.587891 0)"/>
      <use xlink:href="#DejaVuSans-76" transform="translate(434.371094 0)"/>
      <use xlink:href="#DejaVuSans-65" transform="translate(493.550781 0)"/>
      <use xlink:href="#DejaVuSans-20" transform="translate(555.074219 0)"/>
      <use xlink:href="#DejaVuSans-64" transform="translate(586.861328 0)"/>
      <use xlink:href="#DejaVuSans-69" transform="translate(650.337891 0)"/>
      <use xlink:href="#DejaVuSans-73" transform="translate(678.121094 0)"/>
      <use xlink:href="#DejaVuSans-6f" transform="translate(730.220703 0)"/>
      <use xlink:href="#DejaVuSans-72" transform="translate(791.402344 0)"/>
      <use xlink:href="#DejaVuSans-64" transform="translate(830.765625 0)"/>
      <use xlink:href="#DejaVuSans-65" transform="translate(894.242188 0)"/>
      <use xlink:href="#DejaVuSans-72" transform="translate(955.765625 0)"/>
      <use xlink:href="#DejaVuSans-20" transform="translate(996.878906 0)"/>
      <use xlink:href="#DejaVuSans-28" transform="translate(1028.666016 0)"/>
      <use xlink:href="#DejaVuSans-4d" transform="translate(1067.679688 0)"/>
      <use xlink:href="#DejaVuSans-44" transform="translate(1153.958984 0)"/>
      <use xlink:href="#DejaVuSans-44" transform="translate(1230.960938 0)"/>
      <use xlink:href="#DejaVuSans-2f" transform="translate(1307.962891 0)"/>
      <use xlink:href="#DejaVuSans-44" transform="translate(1341.654297 0)"/>
      <use xlink:href="#DejaVuSans-44" transform="translate(1418.65625 0)"/>
      <use xlink:href="#DejaVuSans-29" transform="translate(1495.658203 0)"/>
      <use xlink:href="#DejaVuSans-20" transform="translate(1534.671875 0)"/>
      <use xlink:href="#DejaVuSans-b1" transform="translate(1566.458984 0)"/>
      <use xlink:href="#DejaVuSans-31" transform="translate(1650.248047 0)"/>
      <use xlink:href="#DejaVuSans-20" transform="translate(1713.871094 0)"/>
      <use xlink:href="#DejaVuSans-53" transform="translate(1745.658203 0)"/>
      <use xlink:href="#DejaVuSans-44" transform="translate(1809.134766 0)"/>
     </g>
    </g>
    <g id="line2d_34">
     <path d="M 457.46 70.537969 
L 468.46 70.537969 
L 479.46 70.537969 
" style="fill: none; stroke: #ff8c00; stroke-width: 2.3; stroke-linecap: square"/>
    </g>
    <g id="text_21">
     <!-- Patient -->
     <g transform="translate(488.26 74.387969) scale(0.11 -0.11)">
      <defs>
       <path id="DejaVuSans-50" d="M 1259 4147 
L 1259 2394 
L 2053 2394 
Q 2494 2394 2734 2622 
Q 2975 2850 2975 3272 
Q 2975 3691 2734 3919 
Q 2494 4147 2053 4147 
L 1259 4147 
z
M 628 4666 
L 2053 4666 
Q 2838 4666 3239 4311 
Q 3641 3956 3641 3272 
Q 3641 2581 3239 2228 
Q 2838 1875 2053 1875 
L 1259 1875 
L 1259 0 
L 628 0 
L 628 4666 
z
" transform="scale(0.015625)"/>
      </defs>
      <use xlink:href="#DejaVuSans-50"/>
      <use xlink:href="#DejaVuSans-61" transform="translate(55.802734 0)"/>
      <use xlink:href="#DejaVuSans-74" transform="translate(117.082031 0)"/>
      <use xlink:href="#DejaVuSans-69" transform="translate(156.291016 0)"/>
      <use xlink:href="#DejaVuSans-65" transform="translate(184.074219 0)"/>
      <use xlink:href="#DejaVuSans-6e" transform="translate(245.597656 0)"/>
      <use xlink:href="#DejaVuSans-74" transform="translate(308.976562 0)"/>
     </g>
    </g>
   </g>
  </g>
 </g>
 <defs>
  <clipPath id="p4b81a0137a">
   <rect x="47.307188" y="23.837812" width="658.33" height="360.28"/>
  </clipPath>
 </defs>
</svg>
