<?xml version="1.0" encoding="utf-8" standalone="no"?>
<!DOCTYPE svg PUBLIC "-//W3C//DTD SVG 1.1//EN"
  "http://www.w3.org/Graphics/SVG/1.1/DTD/svg11.dtd">
<svg xmlns:xlink="http://www.w3.org/1999/xlink" width="712.837188pt" height="424.5775pt" viewBox="0 0 712.837188 424.5775" xmlns="http://www.w3.org/2000/svg" version="1.1">
 <metadata>
  <rdf:RDF xmlns:dc="http://purl.org/dc/elements/1.1/" xmlns:cc="http://creativecommons.org/ns#" xmlns:rdf="http://www.w3.org/1999/02/22-rdf-syntax-ns#">
   <cc:Work>
    <dc:type rdf:resource="http://purl.org/dc/dcmitype/StillImage"/>
    <dc:date>2026-06-14T19:00:51.168326</dc:date>
    <dc:format>image/svg+xml</dc:format>
    <dc:creator>
     <cc:Agent>
      <dc:title>Matplotlib v3.10.1, https://matplotlib.org/</dc:title>
     </cc:Agent>
    </dc:creator>
   </cc:Work>
  </rdf:RDF>
 </metadata>
 <defs>
  <style type="text/css">*{stroke-linejoin: round; stroke-linecap: butt}</style>
 </defs>
 <g id="figure_1">
  <g id="patch_1">
   <path d="M 0 424.5775 
L 712.837188 424.5775 
L 712.837188 0 
L 0 0 
z
" style="fill: #ffffff"/>
  </g>
  <g id="axes_1">
   <g id="patch_2">
    <path d="M 47.307188 384.117812 
L 705.637188 384.117812 
L 705.637188 23.837812 
L 47.307188 23.837812 
z
" style="fill: #ffffff"/>
   </g>
   <g id="matplotlib.axis_1">
    <g id="xtick_1">
     <g id="line2d_1">
      <path d="M 47.307188 384.117812 
L 47.307188 23.837812 
" clip-path="url(#pea6b70890e)" style="fill: none; stroke: #b0b0b0; stroke-opacity: 0.2; stroke-width: 0.6; stroke-linecap: square"/>
     </g>
     <g id="line2d_2">
      <defs>
       <path id="m3cdf90a3d4" d="M 0 0 
L 0 3.5 
" style="stroke: #000000; stroke-width: 0.8"/>
      </defs>
      <g>
       <use xlink:href="#m3cdf90a3d4" x="47.307188" y="384.117812" style="stroke: #000000; stroke-width: 0.8"/>
      </g>
     </g>
     <g id="text_1">
      <!-- 0 -->
      <g transform="translate(43.807813 399.476094) scale(0.11 -0.11)">
       <defs>
        <path id="DejaVuSans-30" d="M 2034 4250 
Q 1547 4250 1301 3770 
Q 1056 3291 1056 2328 
Q 1056 1369 1301 889 
Q 1547 409 2034 409 
Q 2525 409 2770 889 
Q 3016 1369 3016 2328 
Q 3016 3291 2770 3770 
Q 2525 4250 2034 4250 
z
M 2034 4750 
Q 2819 4750 3233 4129 
Q 3647 3509 3647 2328 
Q 3647 1150 3233 529 
Q 2819 -91 2034 -91 
Q 1250 -91 836 529 
Q 422 1150 422 2328 
Q 422 3509 836 4129 
Q 1250 4750 2034 4750 
z
" transform="scale(0.015625)"/>
       </defs>
       <use xlink:href="#DejaVuSans-30"/>
      </g>
     </g>
    </g>
    <g id="xtick_2">
     <g id="line2d_3">
      <path d="M 134.387875 384.117812 
L 134.387875 23.837812 
" clip-path="url(#pea6b70890e)" style="fill: none; stroke: #b0b0b0; stroke-opacity: 0.2; stroke-width: 0.6; stroke-linecap: square"/>
     </g>
     <g id="line2d_4">
      <g>
       <use xlink:href="#m3cdf90a3d4" x="134.387875" y="384.117812" style="stroke: #000000; stroke-width: 0.8"/>
      </g>
     </g>
     <g id="text_2">
      <!-- 25 -->
      <g transform="translate(127.389125 399.476094) scale(0.11 -0.11)">
       <defs>
        <path id="DejaVuSans-32" d="M 1228 531 
L 3431 531 
L 3431 0 
L 469 0 
L 469 531 
Q 828 903 1448 1529 
Q 2069 2156 2228 2338 
Q 2531 2678 2651 2914 
Q 2772 3150 2772 3378 
Q 2772 3750 2511 3984 
Q 2250 4219 1831 4219 
Q 1534 4219 1204 4116 
Q 875 4013 500 3803 
L 500 4441 
Q 881 4594 1212 4672 
Q 1544 4750 1819 4750 
Q 2544 4750 2975 4387 
Q 3406 4025 3406 3419 
Q 3406 3131 3298 2873 
Q 3191 2616 2906 2266 
Q 2828 2175 2409 1742 
Q 1991 1309 1228 531 
z
" transform="scale(0.015625)"/>
        <path id="DejaVuSans-35" d="M 691 4666 
L 3169 4666 
L 3169 4134 
L 1269 4134 
L 1269 2991 
Q 1406 3038 1543 3061 
Q 1681 3084 1819 3084 
Q 2600 3084 3056 2656 
Q 3513 2228 3513 1497 
Q 3513 744 3044 326 
Q 2575 -91 1722 -91 
Q 1428 -91 1123 -41 
Q 819 9 494 109 
L 494 744 
Q 775 591 1075 516 
Q 1375 441 1709 441 
Q 2250 441 2565 725 
Q 2881 1009 2881 1497 
Q 2881 1984 2565 2268 
Q 2250 2553 1709 2553 
Q 1456 2553 1204 2497 
Q 953 2441 691 2322 
L 691 4666 
z
" transform="scale(0.015625)"/>
       </defs>
       <use xlink:href="#DejaVuSans-32"/>
       <use xlink:href="#DejaVuSans-35" transform="translate(63.623047 0)"/>
      </g>
     </g>
    </g>
    <g id="xtick_3">
     <g id="line2d_5">
      <path d="M 221.468563 384.117812 
L 221.468563 23.837812 
" clip-path="url(#pea6b70890e)" style="fill: none; stroke: #b0b0b0; stroke-opacity: 0.2; stroke-width: 0.6; stroke-linecap: square"/>
     </g>
     <g id="line2d_6">
      <g>
       <use xlink:href="#m3cdf90a3d4" x="221.468563" y="384.117812" style="stroke: #000000; stroke-width: 0.8"/>
      </g>
     </g>
     <g id="text_3">
      <!-- 50 -->
      <g transform="translate(214.469813 399.476094) scale(0.11 -0.11)">
       <use xlink:href="#DejaVuSans-35"/>
       <use xlink:href="#DejaVuSans-30" transform="translate(63.623047 0)"/>
      </g>
     </g>
    </g>
    <g id="xtick_4">
     <g id="line2d_7">
      <path d="M 308.549251 384.117812 
L 308.549251 23.837812 
" clip-path="url(#pea6b70890e)" style="fill: none; stroke: #b0b0b0; stroke-opacity: 0.2; stroke-width: 0.6; stroke-linecap: square"/>
     </g>
     <g id="line2d_8">
      <g>
       <use xlink:href="#m3cdf90a3d4" x="308.549251" y="384.117812" style="stroke: #000000; stroke-width: 0.8"/>
      </g>
     </g>
     <g id="text_4">
      <!-- 75 -->
      <g transform="translate(301.550501 399.476094) scale(0.11 -0.11)">
       <defs>
        <path id="DejaVuSans-37" d="M 525 4666 
L 3525 4666 
L 3525 4397 
L 1831 0 
L 1172 0 
L 2766 4134 
L 525 4134 
L 525 4666 
z
" transform="scale(0.015625)"/>
       </defs>
       <use xlink:href="#DejaVuSans-37"/>
       <use xlink:href="#DejaVuSans-35" transform="translate(63.623047 0)"/>
      </g>
     </g>
    </g>
    <g id="xtick_5">
     <g id="line2d_9">
      <path d="M 395.629939 384.117812 
L 395.629939 23.837812 
" clip-path="url(#pea6b70890e)" style="fill: none; stroke: #b0b0b0; stroke-opacity: 0.2; stroke-width: 0.6; stroke-linecap: square"/>
     </g>
     <g id="line2d_10">
      <g>
       <use xlink:href="#m3cdf90a3d4" x="395.629939" y="384.117812" style="stroke: #000000; stroke-width: 0.8"/>
      </g>
     </g>
     <g id="text_5">
      <!-- 100 -->
      <g transform="translate(385.131814 399.476094) scale(0.11 -0.11)">
       <defs>
        <path id="DejaVuSans-31" d="M 794 531 
L 1825 531 
L 1825 4091 
L 703 3866 
L 703 4441 
L 1819 4666 
L 2450 4666 
L 2450 531 
L 3481 531 
L 3481 0 
L 794 0 
L 794 531 
z
" transform="scale(0.015625)"/>
       </defs>
       <use xlink:href="#DejaVuSans-31"/>
       <use xlink:href="#DejaVuSans-30" transform="translate(63.623047 0)"/>
       <use xlink:href="#DejaVuSans-30" transform="translate(127.246094 0)"/>
      </g>
     </g>
    </g>
    <g id="xtick_6">
     <g id="line2d_11">
      <path d="M 482.710627 384.117812 
L 482.710627 23.837812 
" clip-path="url(#pea6b70890e)" style="fill: none; stroke: #b0b0b0; stroke-opacity: 0.2; stroke-width: 0.6; stroke-linecap: square"/>
     </g>
     <g id="line2d_12">
      <g>
       <use xlink:href="#m3cdf90a3d4" x="482.710627" y="384.117812" style="stroke: #000000; stroke-width: 0.8"/>
      </g>
     </g>
     <g id="text_6">
      <!-- 125 -->
      <g transform="translate(472.212502 399.476094) scale(0.11 -0.11)">
       <use xlink:href="#DejaVuSans-31"/>
       <use xlink:href="#DejaVuSans-32" transform="translate(63.623047 0)"/>
       <use xlink:href="#DejaVuSans-35" transform="translate(127.246094 0)"/>
      </g>
     </g>
    </g>
    <g id="xtick_7">
     <g id="line2d_13">
      <path d="M 569.791314 384.117812 
L 569.791314 23.837812 
" clip-path="url(#pea6b70890e)" style="fill: none; stroke: #b0b0b0; stroke-opacity: 0.2; stroke-width: 0.6; stroke-linecap: square"/>
     </g>
     <g id="line2d_14">
      <g>
       <use xlink:href="#m3cdf90a3d4" x="569.791314" y="384.117812" style="stroke: #000000; stroke-width: 0.8"/>
      </g>
     </g>
     <g id="text_7">
      <!-- 150 -->
      <g transform="translate(559.293189 399.476094) scale(0.11 -0.11)">
       <use xlink:href="#DejaVuSans-31"/>
       <use xlink:href="#DejaVuSans-35" transform="translate(63.623047 0)"/>
       <use xlink:href="#DejaVuSans-30" transform="translate(127.246094 0)"/>
      </g>
     </g>
    </g>
    <g id="xtick_8">
     <g id="line2d_15">
      <path d="M 656.872002 384.117812 
L 656.872002 23.837812 
" clip-path="url(#pea6b70890e)" style="fill: none; stroke: #b0b0b0; stroke-opacity: 0.2; stroke-width: 0.6; stroke-linecap: square"/>
     </g>
     <g id="line2d_16">
      <g>
       <use xlink:href="#m3cdf90a3d4" x="656.872002" y="384.117812" style="stroke: #000000; stroke-width: 0.8"/>
      </g>
     </g>
     <g id="text_8">
      <!-- 175 -->
      <g transform="translate(646.373877 399.476094) scale(0.11 -0.11)">
       <use xlink:href="#DejaVuSans-31"/>
       <use xlink:href="#DejaVuSans-37" transform="translate(63.623047 0)"/>
       <use xlink:href="#DejaVuSans-35" transform="translate(127.246094 0)"/>
      </g>
     </g>
    </g>
    <g id="text_9">
     <!-- Time (s) -->
     <g transform="translate(352.0775 414.881875) scale(0.12 -0.12)">
      <defs>
       <path id="DejaVuSans-54" d="M -19 4666 
L 3928 4666 
L 3928 4134 
L 2272 4134 
L 2272 0 
L 1638 0 
L 1638 4134 
L -19 4134 
L -19 4666 
z
" transform="scale(0.015625)"/>
       <path id="DejaVuSans-69" d="M 603 3500 
L 1178 3500 
L 1178 0 
L 603 0 
L 603 3500 
z
M 603 4863 
L 1178 4863 
L 1178 4134 
L 603 4134 
L 603 4863 
z
" transform="scale(0.015625)"/>
       <path id="DejaVuSans-6d" d="M 3328 2828 
Q 3544 3216 3844 3400 
Q 4144 3584 4550 3584 
Q 5097 3584 5394 3201 
Q 5691 2819 5691 2113 
L 5691 0 
L 5113 0 
L 5113 2094 
Q 5113 2597 4934 2840 
Q 4756 3084 4391 3084 
Q 3944 3084 3684 2787 
Q 3425 2491 3425 1978 
L 3425 0 
L 2847 0 
L 2847 2094 
Q 2847 2600 2669 2842 
Q 2491 3084 2119 3084 
Q 1678 3084 1418 2786 
Q 1159 2488 1159 1978 
L 1159 0 
L 581 0 
L 581 3500 
L 1159 3500 
L 1159 2956 
Q 1356 3278 1631 3431 
Q 1906 3584 2284 3584 
Q 2666 3584 2933 3390 
Q 3200 3197 3328 2828 
z
" transform="scale(0.015625)"/>
       <path id="DejaVuSans-65" d="M 3597 1894 
L 3597 1613 
L 953 1613 
Q 991 1019 1311 708 
Q 1631 397 2203 397 
Q 2534 397 2845 478 
Q 3156 559 3463 722 
L 3463 178 
Q 3153 47 2828 -22 
Q 2503 -91 2169 -91 
Q 1331 -91 842 396 
Q 353 884 353 1716 
Q 353 2575 817 3079 
Q 1281 3584 2069 3584 
Q 2775 3584 3186 3129 
Q 3597 2675 3597 1894 
z
M 3022 2063 
Q 3016 2534 2758 2815 
Q 2500 3097 2075 3097 
Q 1594 3097 1305 2825 
Q 1016 2553 972 2059 
L 3022 2063 
z
" transform="scale(0.015625)"/>
       <path id="DejaVuSans-20" transform="scale(0.015625)"/>
       <path id="DejaVuSans-28" d="M 1984 4856 
Q 1566 4138 1362 3434 
Q 1159 2731 1159 2009 
Q 1159 1288 1364 580 
Q 1569 -128 1984 -844 
L 1484 -844 
Q 1016 -109 783 600 
Q 550 1309 550 2009 
Q 550 2706 781 3412 
Q 1013 4119 1484 4856 
L 1984 4856 
z
" transform="scale(0.015625)"/>
       <path id="DejaVuSans-73" d="M 2834 3397 
L 2834 2853 
Q 2591 2978 2328 3040 
Q 2066 3103 1784 3103 
Q 1356 3103 1142 2972 
Q 928 2841 928 2578 
Q 928 2378 1081 2264 
Q 1234 2150 1697 2047 
L 1894 2003 
Q 2506 1872 2764 1633 
Q 3022 1394 3022 966 
Q 3022 478 2636 193 
Q 2250 -91 1575 -91 
Q 1294 -91 989 -36 
Q 684 19 347 128 
L 347 722 
Q 666 556 975 473 
Q 1284 391 1588 391 
Q 1994 391 2212 530 
Q 2431 669 2431 922 
Q 2431 1156 2273 1281 
Q 2116 1406 1581 1522 
L 1381 1569 
Q 847 1681 609 1914 
Q 372 2147 372 2553 
Q 372 3047 722 3315 
Q 1072 3584 1716 3584 
Q 2034 3584 2315 3537 
Q 2597 3491 2834 3397 
z
" transform="scale(0.015625)"/>
       <path id="DejaVuSans-29" d="M 513 4856 
L 1013 4856 
Q 1481 4119 1714 3412 
Q 1947 2706 1947 2009 
Q 1947 1309 1714 600 
Q 1481 -109 1013 -844 
L 513 -844 
Q 928 -128 1133 580 
Q 1338 1288 1338 2009 
Q 1338 2731 1133 3434 
Q 928 4138 513 4856 
z
" transform="scale(0.015625)"/>
      </defs>
      <use xlink:href="#DejaVuSans-54"/>
      <use xlink:href="#DejaVuSans-69" transform="translate(57.958984 0)"/>
      <use xlink:href="#DejaVuSans-6d" transform="translate(85.742188 0)"/>
      <use xlink:href="#DejaVuSans-65" transform="translate(183.154297 0)"/>
      <use xlink:href="#DejaVuSans-20" transform="translate(244.677734 0)"/>
      <use xlink:href="#DejaVuSans-28" transform="translate(276.464844 0)"/>
      <use xlink:href="#DejaVuSans-73" transform="translate(315.478516 0)"/>
      <use xlink:href="#DejaVuSans-29" transform="translate(367.578125 0)"/>
     </g>
    </g>
   </g>
   <g id="matplotlib.axis_2">
    <g id="ytick_1">
     <g id="line2d_17">
      <path d="M 47.307188 367.741449 
L 705.637188 367.741449 
" clip-path="url(#pea6b70890e)" style="fill: none; stroke: #b0b0b0; stroke-opacity: 0.2; stroke-width: 0.6; stroke-linecap: square"/>
     </g>
     <g id="line2d_18">
      <defs>
       <path id="m5824d1f601" d="M 0 0 
L -3.5 0 
" style="stroke: #000000; stroke-width: 0.8"/>
      </defs>
      <g>
       <use xlink:href="#m5824d1f601" x="47.307188" y="367.741449" style="stroke: #000000; stroke-width: 0.8"/>
      </g>
     </g>
     <g id="text_10">
      <!-- 0.0 -->
      <g transform="translate(22.81375 371.920589) scale(0.11 -0.11)">
       <defs>
        <path id="DejaVuSans-2e" d="M 684 794 
L 1344 794 
L 1344 0 
L 684 0 
L 684 794 
z
" transform="scale(0.015625)"/>
       </defs>
       <use xlink:href="#DejaVuSans-30"/>
       <use xlink:href="#DejaVuSans-2e" transform="translate(63.623047 0)"/>
       <use xlink:href="#DejaVuSans-30" transform="translate(95.410156 0)"/>
      </g>
     </g>
    </g>
    <g id="ytick_2">
     <g id="line2d_19">
      <path d="M 47.307188 317.507205 
L 705.637188 317.507205 
" clip-path="url(#pea6b70890e)" style="fill: none; stroke: #b0b0b0; stroke-opacity: 0.2; stroke-width: 0.6; stroke-linecap: square"/>
     </g>
     <g id="line2d_20">
      <g>
       <use xlink:href="#m5824d1f601" x="47.307188" y="317.507205" style="stroke: #000000; stroke-width: 0.8"/>
      </g>
     </g>
     <g id="text_11">
      <!-- 0.5 -->
      <g transform="translate(22.81375 321.686345) scale(0.11 -0.11)">
       <use xlink:href="#DejaVuSans-30"/>
       <use xlink:href="#DejaVuSans-2e" transform="translate(63.623047 0)"/>
       <use xlink:href="#DejaVuSans-35" transform="translate(95.410156 0)"/>
      </g>
     </g>
    </g>
    <g id="ytick_3">
     <g id="line2d_21">
      <path d="M 47.307188 267.27296 
L 705.637188 267.27296 
" clip-path="url(#pea6b70890e)" style="fill: none; stroke: #b0b0b0; stroke-opacity: 0.2; stroke-width: 0.6; stroke-linecap: square"/>
     </g>
     <g id="line2d_22">
      <g>
       <use xlink:href="#m5824d1f601" x="47.307188" y="267.27296" style="stroke: #000000; stroke-width: 0.8"/>
      </g>
     </g>
     <g id="text_12">
      <!-- 1.0 -->
      <g transform="translate(22.81375 271.452101) scale(0.11 -0.11)">
       <use xlink:href="#DejaVuSans-31"/>
       <use xlink:href="#DejaVuSans-2e" transform="translate(63.623047 0)"/>
       <use xlink:href="#DejaVuSans-30" transform="translate(95.410156 0)"/>
      </g>
     </g>
    </g>
    <g id="ytick_4">
     <g id="line2d_23">
      <path d="M 47.307188 217.038716 
L 705.637188 217.038716 
" clip-path="url(#pea6b70890e)" style="fill: none; stroke: #b0b0b0; stroke-opacity: 0.2; stroke-width: 0.6; stroke-linecap: square"/>
     </g>
     <g id="line2d_24">
      <g>
       <use xlink:href="#m5824d1f601" x="47.307188" y="217.038716" style="stroke: #000000; stroke-width: 0.8"/>
      </g>
     </g>
     <g id="text_13">
      <!-- 1.5 -->
      <g transform="translate(22.81375 221.217857) scale(0.11 -0.11)">
       <use xlink:href="#DejaVuSans-31"/>
       <use xlink:href="#DejaVuSans-2e" transform="translate(63.623047 0)"/>
       <use xlink:href="#DejaVuSans-35" transform="translate(95.410156 0)"/>
      </g>
     </g>
    </g>
    <g id="ytick_5">
     <g id="line2d_25">
      <path d="M 47.307188 166.804472 
L 705.637188 166.804472 
" clip-path="url(#pea6b70890e)" style="fill: none; stroke: #b0b0b0; stroke-opacity: 0.2; stroke-width: 0.6; stroke-linecap: square"/>
     </g>
     <g id="line2d_26">
      <g>
       <use xlink:href="#m5824d1f601" x="47.307188" y="166.804472" style="stroke: #000000; stroke-width: 0.8"/>
      </g>
     </g>
     <g id="text_14">
      <!-- 2.0 -->
      <g transform="translate(22.81375 170.983612) scale(0.11 -0.11)">
       <use xlink:href="#DejaVuSans-32"/>
       <use xlink:href="#DejaVuSans-2e" transform="translate(63.623047 0)"/>
       <use xlink:href="#DejaVuSans-30" transform="translate(95.410156 0)"/>
      </g>
     </g>
    </g>
    <g id="ytick_6">
     <g id="line2d_27">
      <path d="M 47.307188 116.570227 
L 705.637188 116.570227 
" clip-path="url(#pea6b70890e)" style="fill: none; stroke: #b0b0b0; stroke-opacity: 0.2; stroke-width: 0.6; stroke-linecap: square"/>
     </g>
     <g id="line2d_28">
      <g>
       <use xlink:href="#m5824d1f601" x="47.307188" y="116.570227" style="stroke: #000000; stroke-width: 0.8"/>
      </g>
     </g>
     <g id="text_15">
      <!-- 2.5 -->
      <g transform="translate(22.81375 120.749368) scale(0.11 -0.11)">
       <use xlink:href="#DejaVuSans-32"/>
       <use xlink:href="#DejaVuSans-2e" transform="translate(63.623047 0)"/>
       <use xlink:href="#DejaVuSans-35" transform="translate(95.410156 0)"/>
      </g>
     </g>
    </g>
    <g id="ytick_7">
     <g id="line2d_29">
      <path d="M 47.307188 66.335983 
L 705.637188 66.335983 
" clip-path="url(#pea6b70890e)" style="fill: none; stroke: #b0b0b0; stroke-opacity: 0.2; stroke-width: 0.6; stroke-linecap: square"/>
     </g>
     <g id="line2d_30">
      <g>
       <use xlink:href="#m5824d1f601" x="47.307188" y="66.335983" style="stroke: #000000; stroke-width: 0.8"/>
      </g>
     </g>
     <g id="text_16">
      <!-- 3.0 -->
      <g transform="translate(22.81375 70.515124) scale(0.11 -0.11)">
       <defs>
        <path id="DejaVuSans-33" d="M 2597 2516 
Q 3050 2419 3304 2112 
Q 3559 1806 3559 1356 
Q 3559 666 3084 287 
Q 2609 -91 1734 -91 
Q 1441 -91 1130 -33 
Q 819 25 488 141 
L 488 750 
Q 750 597 1062 519 
Q 1375 441 1716 441 
Q 2309 441 2620 675 
Q 2931 909 2931 1356 
Q 2931 1769 2642 2001 
Q 2353 2234 1838 2234 
L 1294 2234 
L 1294 2753 
L 1863 2753 
Q 2328 2753 2575 2939 
Q 2822 3125 2822 3475 
Q 2822 3834 2567 4026 
Q 2313 4219 1838 4219 
Q 1578 4219 1281 4162 
Q 984 4106 628 3988 
L 628 4550 
Q 988 4650 1302 4700 
Q 1616 4750 1894 4750 
Q 2613 4750 3031 4423 
Q 3450 4097 3450 3541 
Q 3450 3153 3228 2886 
Q 3006 2619 2597 2516 
z
" transform="scale(0.015625)"/>
       </defs>
       <use xlink:href="#DejaVuSans-33"/>
       <use xlink:href="#DejaVuSans-2e" transform="translate(63.623047 0)"/>
       <use xlink:href="#DejaVuSans-30" transform="translate(95.410156 0)"/>
      </g>
     </g>
    </g>
    <g id="text_17">
     <!-- AU mean intensity -->
     <g transform="translate(16.318125 259.314687) rotate(-90) scale(0.12 -0.12)">
      <defs>
       <path id="DejaVuSans-41" d="M 2188 4044 
L 1331 1722 
L 3047 1722 
L 2188 4044 
z
M 1831 4666 
L 2547 4666 
L 4325 0 
L 3669 0 
L 3244 1197 
L 1141 1197 
L 716 0 
L 50 0 
L 1831 4666 
z
" transform="scale(0.015625)"/>
       <path id="DejaVuSans-55" d="M 556 4666 
L 1191 4666 
L 1191 1831 
Q 1191 1081 1462 751 
Q 1734 422 2344 422 
Q 2950 422 3222 751 
Q 3494 1081 3494 1831 
L 3494 4666 
L 4128 4666 
L 4128 1753 
Q 4128 841 3676 375 
Q 3225 -91 2344 -91 
Q 1459 -91 1007 375 
Q 556 841 556 1753 
L 556 4666 
z
" transform="scale(0.015625)"/>
       <path id="DejaVuSans-61" d="M 2194 1759 
Q 1497 1759 1228 1600 
Q 959 1441 959 1056 
Q 959 750 1161 570 
Q 1363 391 1709 391 
Q 2188 391 2477 730 
Q 2766 1069 2766 1631 
L 2766 1759 
L 2194 1759 
z
M 3341 1997 
L 3341 0 
L 2766 0 
L 2766 531 
Q 2569 213 2275 61 
Q 1981 -91 1556 -91 
Q 1019 -91 701 211 
Q 384 513 384 1019 
Q 384 1609 779 1909 
Q 1175 2209 1959 2209 
L 2766 2209 
L 2766 2266 
Q 2766 2663 2505 2880 
Q 2244 3097 1772 3097 
Q 1472 3097 1187 3025 
Q 903 2953 641 2809 
L 641 3341 
Q 956 3463 1253 3523 
Q 1550 3584 1831 3584 
Q 2591 3584 2966 3190 
Q 3341 2797 3341 1997 
z
" transform="scale(0.015625)"/>
       <path id="DejaVuSans-6e" d="M 3513 2113 
L 3513 0 
L 2938 0 
L 2938 2094 
Q 2938 2591 2744 2837 
Q 2550 3084 2163 3084 
Q 1697 3084 1428 2787 
Q 1159 2491 1159 1978 
L 1159 0 
L 581 0 
L 581 3500 
L 1159 3500 
L 1159 2956 
Q 1366 3272 1645 3428 
Q 1925 3584 2291 3584 
Q 2894 3584 3203 3211 
Q 3513 2838 3513 2113 
z
" transform="scale(0.015625)"/>
       <path id="DejaVuSans-74" d="M 1172 4494 
L 1172 3500 
L 2356 3500 
L 2356 3053 
L 1172 3053 
L 1172 1153 
Q 1172 725 1289 603 
Q 1406 481 1766 481 
L 2356 481 
L 2356 0 
L 1766 0 
Q 1100 0 847 248 
Q 594 497 594 1153 
L 594 3053 
L 172 3053 
L 172 3500 
L 594 3500 
L 594 4494 
L 1172 4494 
z
" transform="scale(0.015625)"/>
       <path id="DejaVuSans-79" d="M 2059 -325 
Q 1816 -950 1584 -1140 
Q 1353 -1331 966 -1331 
L 506 -1331 
L 506 -850 
L 844 -850 
Q 1081 -850 1212 -737 
Q 1344 -625 1503 -206 
L 1606 56 
L 191 3500 
L 800 3500 
L 1894 763 
L 2988 3500 
L 3597 3500 
L 2059 -325 
z
" transform="scale(0.015625)"/>
      </defs>
      <use xlink:href="#DejaVuSans-41"/>
      <use xlink:href="#DejaVuSans-55" transform="translate(68.408203 0)"/>
      <use xlink:href="#DejaVuSans-20" transform="translate(141.601562 0)"/>
      <use xlink:href="#DejaVuSans-6d" transform="translate(173.388672 0)"/>
      <use xlink:href="#DejaVuSans-65" transform="translate(270.800781 0)"/>
      <use xlink:href="#DejaVuSans-61" transform="translate(332.324219 0)"/>
      <use xlink:href="#DejaVuSans-6e" transform="translate(393.603516 0)"/>
      <use xlink:href="#DejaVuSans-20" transform="translate(456.982422 0)"/>
      <use xlink:href="#DejaVuSans-69" transform="translate(488.769531 0)"/>
      <use xlink:href="#DejaVuSans-6e" transform="translate(516.552734 0)"/>
      <use xlink:href="#DejaVuSans-74" transform="translate(579.931641 0)"/>
      <use xlink:href="#DejaVuSans-65" transform="translate(619.140625 0)"/>
      <use xlink:href="#DejaVuSans-6e" transform="translate(680.664062 0)"/>
      <use xlink:href="#DejaVuSans-73" transform="translate(744.042969 0)"/>
      <use xlink:href="#DejaVuSans-69" transform="translate(796.142578 0)"/>
      <use xlink:href="#DejaVuSans-74" transform="translate(823.925781 0)"/>
      <use xlink:href="#DejaVuSans-79" transform="translate(863.134766 0)"/>
     </g>
    </g>
   </g>
   <g id="FillBetweenPolyCollection_1">
    <defs>
     <path id="m733bcf9883" d="M 47.307188 -139.936863 
L 47.307188 -12.855157 
L 50.790415 -15.090801 
L 54.273643 3.408402 
L 57.75687 13.403265 
L 61.240098 -10.083283 
L 64.723325 -6.119258 
L 68.206553 -9.541277 
L 71.68978 -24.98779 
L 75.173008 -21.51238 
L 78.656235 -18.965913 
L 82.139463 -16.684416 
L 85.62269 -18.130365 
L 89.105918 -12.562896 
L 92.589145 -29.079381 
L 96.072373 -14.554433 
L 99.5556 -18.842643 
L 103.038828 -27.485344 
L 106.522055 -2.355221 
L 110.005283 -31.214267 
L 113.48851 -33.723993 
L 116.971738 -31.175273 
L 120.454965 -14.009318 
L 123.938193 -15.901719 
L 127.42142 -21.865211 
L 130.904648 15.472181 
L 134.387875 -14.539444 
L 137.871103 -33.198447 
L 141.35433 -29.072838 
L 144.837558 -28.589964 
L 148.320785 -34.376354 
L 151.804013 -30.919947 
L 155.28724 -28.561217 
L 158.770468 -27.781807 
L 162.253695 -28.55442 
L 165.736923 -27.677942 
L 169.22015 -22.018415 
L 172.703378 -29.045717 
L 176.186605 -26.502252 
L 179.669833 -23.515976 
L 183.153061 -23.146589 
L 186.636288 -21.289689 
L 190.119516 12.254132 
L 193.602743 17.82051 
L 197.085971 8.927519 
L 200.569198 19.797163 
L 204.052426 -4.791147 
L 207.535653 16.047248 
L 211.018881 4.029737 
L 214.502108 13.571058 
L 217.985336 -13.145869 
L 221.468563 -6.36518 
L 224.951791 -10.678785 
L 228.435018 -15.386046 
L 231.918246 -11.54882 
L 235.401473 -12.536361 
L 238.884701 -8.416409 
L 242.367928 17.701894 
L 245.851156 4.472281 
L 249.334383 9.172813 
L 252.817611 -6.729723 
L 256.300838 -15.501146 
L 259.784066 -9.692065 
L 263.267293 8.166226 
L 266.750521 -25.675924 
L 270.233748 -13.434262 
L 273.716976 -7.007654 
L 277.200203 7.289392 
L 280.683431 23.090055 
L 284.166658 46.145889 
L 287.649886 39.162242 
L 291.133113 62.399478 
L 294.616341 71.558203 
L 298.099568 27.89509 
L 301.582796 35.016662 
L 305.066023 -20.298571 
L 308.549251 7.843058 
L 312.032479 24.688233 
L 315.515706 27.355213 
L 318.998934 36.66887 
L 322.482161 30.399038 
L 325.965389 34.197214 
L 329.448616 32.74383 
L 332.931844 0.470235 
L 336.415071 -6.289799 
L 339.898299 2.059529 
L 343.381526 -4.497978 
L 346.864754 -15.282987 
L 350.347981 -17.686649 
L 353.831209 -7.281123 
L 357.314436 35.362309 
L 360.797664 20.625651 
L 364.280891 -13.441582 
L 367.764119 -5.563781 
L 371.247346 5.968564 
L 374.730574 3.701313 
L 378.213801 -8.611722 
L 381.697029 -10.489777 
L 385.180256 7.30574 
L 388.663484 9.088785 
L 392.146711 10.312933 
L 395.629939 -6.553424 
L 399.113166 -2.458535 
L 402.596394 -7.361067 
L 406.079621 -7.65388 
L 409.562849 -3.794585 
L 413.046076 10.342032 
L 416.529304 -3.092536 
L 420.012531 10.792667 
L 423.495759 3.578947 
L 426.978986 -16.986744 
L 430.462214 -3.373558 
L 433.945441 10.017673 
L 437.428669 14.356214 
L 440.911896 0.519689 
L 444.395124 -15.275336 
L 447.878352 -6.233506 
L 451.361579 11.867356 
L 454.844807 20.174194 
L 458.328034 11.197901 
L 461.811262 6.719679 
L 465.294489 -0.448563 
L 468.777717 -7.96967 
L 472.260944 21.353423 
L 475.744172 23.89459 
L 479.227399 20.943291 
L 482.710627 12.938584 
L 486.193854 17.750053 
L 489.677082 -7.944631 
L 493.160309 -14.091433 
L 496.643537 -21.006902 
L 500.126764 -9.525218 
L 503.609992 24.530232 
L 507.093219 35.990636 
L 510.576447 31.578999 
L 514.059674 25.27037 
L 517.542902 20.776823 
L 521.026129 23.307141 
L 524.509357 25.906856 
L 527.992584 26.855319 
L 531.475812 -7.176261 
L 534.959039 -16.97578 
L 538.442267 -14.299821 
L 541.925494 -13.039074 
L 545.408722 -13.75188 
L 548.891949 -1.431191 
L 552.375177 20.866513 
L 555.858404 13.809501 
L 559.341632 7.276925 
L 562.824859 -4.441793 
L 566.308087 -9.855798 
L 569.791314 -20.037345 
L 573.274542 -18.889695 
L 576.75777 -25.807568 
L 580.240997 -19.241251 
L 583.724225 -2.989477 
L 587.207452 -9.841776 
L 590.69068 5.315005 
L 594.173907 -0.635619 
L 597.657135 -12.880487 
L 601.140362 -1.089339 
L 604.62359 7.340421 
L 608.106817 -5.665459 
L 611.590045 -5.613977 
L 615.073272 -0.235867 
L 618.5565 0.001884 
L 622.039727 -1.204867 
L 625.522955 -10.748531 
L 629.006182 -13.337187 
L 632.48941 -20.714288 
L 635.972637 -23.641569 
L 639.455865 -22.107379 
L 642.939092 -6.195342 
L 646.42232 -20.791433 
L 649.905547 -36.224973 
L 653.388775 -29.103471 
L 656.872002 -19.186799 
L 660.35523 -12.338093 
L 663.838457 -5.139202 
L 667.321685 1.036612 
L 670.804912 -15.232138 
L 674.28814 -3.957602 
L 677.771367 -15.425604 
L 681.254595 4.354265 
L 684.737822 18.977393 
L 688.22105 16.122539 
L 691.704277 7.727609 
L 695.187505 -9.526995 
L 698.670732 -3.870573 
L 702.15396 -13.605067 
L 705.637188 4.878396 
L 705.637188 -197.247194 
L 705.637188 -197.247194 
L 702.15396 -171.468532 
L 698.670732 -177.648073 
L 695.187505 -162.433036 
L 691.704277 -188.065679 
L 688.22105 -249.21089 
L 684.737822 -252.033775 
L 681.254595 -221.979797 
L 677.771367 -188.823018 
L 674.28814 -192.773534 
L 670.804912 -167.534976 
L 667.321685 -198.822 
L 663.838457 -190.362752 
L 660.35523 -168.537324 
L 656.872002 -154.051093 
L 653.388775 -134.6618 
L 649.905547 -129.436006 
L 646.42232 -159.88381 
L 642.939092 -184.684654 
L 639.455865 -150.877353 
L 635.972637 -154.699226 
L 632.48941 -180.662801 
L 629.006182 -182.971775 
L 625.522955 -183.826441 
L 622.039727 -220.659366 
L 618.5565 -221.362099 
L 615.073272 -226.674207 
L 611.590045 -204.042707 
L 608.106817 -189.249579 
L 604.62359 -216.234536 
L 601.140362 -202.280948 
L 597.657135 -175.912305 
L 594.173907 -179.188768 
L 590.69068 -183.039105 
L 587.207452 -167.502486 
L 583.724225 -187.568662 
L 580.240997 -153.24058 
L 576.75777 -135.58407 
L 573.274542 -144.111823 
L 569.791314 -143.154093 
L 566.308087 -163.697969 
L 562.824859 -166.991111 
L 559.341632 -181.817036 
L 555.858404 -192.048335 
L 552.375177 -205.956834 
L 548.891949 -178.088759 
L 545.408722 -168.016664 
L 541.925494 -165.266485 
L 538.442267 -171.348885 
L 534.959039 -170.158423 
L 531.475812 -188.853509 
L 527.992584 -262.603307 
L 524.509357 -281.249717 
L 521.026129 -263.641983 
L 517.542902 -240.829362 
L 514.059674 -239.89138 
L 510.576447 -263.017289 
L 507.093219 -283.196227 
L 503.609992 -256.160084 
L 500.126764 -191.989134 
L 496.643537 -168.466943 
L 493.160309 -181.616385 
L 489.677082 -213.800281 
L 486.193854 -269.369759 
L 482.710627 -262.122665 
L 479.227399 -256.17065 
L 475.744172 -257.992514 
L 472.260944 -236.75229 
L 468.777717 -170.633953 
L 465.294489 -204.376915 
L 461.811262 -209.632264 
L 458.328034 -205.575818 
L 454.844807 -218.181671 
L 451.361579 -213.181276 
L 447.878352 -190.372225 
L 444.395124 -192.713254 
L 440.911896 -214.91095 
L 437.428669 -249.527435 
L 433.945441 -251.768047 
L 430.462214 -233.402448 
L 426.978986 -193.945272 
L 423.495759 -228.109025 
L 420.012531 -248.42604 
L 416.529304 -189.711568 
L 413.046076 -207.62758 
L 409.562849 -178.116722 
L 406.079621 -182.733233 
L 402.596394 -186.662596 
L 399.113166 -203.141231 
L 395.629939 -170.884228 
L 392.146711 -201.89524 
L 388.663484 -203.788046 
L 385.180256 -201.89809 
L 381.697029 -167.84609 
L 378.213801 -175.087519 
L 374.730574 -186.714095 
L 371.247346 -210.373077 
L 367.764119 -184.694733 
L 364.280891 -160.613887 
L 360.797664 -199.697126 
L 357.314436 -214.338929 
L 353.831209 -161.367956 
L 350.347981 -141.779833 
L 346.864754 -144.136154 
L 343.381526 -159.921741 
L 339.898299 -174.433104 
L 336.415071 -161.26229 
L 332.931844 -171.035765 
L 329.448616 -232.762683 
L 325.965389 -231.043287 
L 322.482161 -224.275475 
L 318.998934 -221.449045 
L 315.515706 -203.787033 
L 312.032479 -195.06986 
L 308.549251 -171.47066 
L 305.066023 -144.980264 
L 301.582796 -224.364999 
L 298.099568 -223.28737 
L 294.616341 -289.08785 
L 291.133113 -318.063173 
L 287.649886 -309.228286 
L 284.166658 -267.118735 
L 280.683431 -219.4357 
L 277.200203 -186.378491 
L 273.716976 -163.371064 
L 270.233748 -145.235141 
L 266.750521 -123.200907 
L 263.267293 -168.774461 
L 259.784066 -145.66529 
L 256.300838 -141.126477 
L 252.817611 -156.667149 
L 249.334383 -185.152536 
L 245.851156 -189.269145 
L 242.367928 -202.637992 
L 238.884701 -164.627883 
L 235.401473 -155.009347 
L 231.918246 -160.219746 
L 228.435018 -150.499167 
L 224.951791 -161.917168 
L 221.468563 -165.304121 
L 217.985336 -152.453973 
L 214.502108 -203.805105 
L 211.018881 -183.536211 
L 207.535653 -208.887375 
L 204.052426 -171.709424 
L 200.569198 -208.706247 
L 197.085971 -174.072909 
L 193.602743 -185.591176 
L 190.119516 -168.059825 
L 186.636288 -119.33542 
L 183.153061 -118.954223 
L 179.669833 -115.585902 
L 176.186605 -110.05751 
L 172.703378 -105.81437 
L 169.22015 -114.551536 
L 165.736923 -107.138297 
L 162.253695 -107.296152 
L 158.770468 -116.404501 
L 155.28724 -112.779459 
L 151.804013 -115.306233 
L 148.320785 -106.511907 
L 144.837558 -106.273936 
L 141.35433 -103.537472 
L 137.871103 -99.414296 
L 134.387875 -127.043742 
L 130.904648 -169.865477 
L 127.42142 -113.669486 
L 123.938193 -121.865662 
L 120.454965 -125.499285 
L 116.971738 -100.634537 
L 113.48851 -98.401297 
L 110.005283 -103.661072 
L 106.522055 -142.125859 
L 103.038828 -109.368861 
L 99.5556 -127.641693 
L 96.072373 -131.094102 
L 92.589145 -112.446744 
L 89.105918 -143.601467 
L 85.62269 -131.223335 
L 82.139463 -135.581313 
L 78.656235 -133.002413 
L 75.173008 -127.834614 
L 71.68978 -120.072054 
L 68.206553 -149.225353 
L 64.723325 -158.779546 
L 61.240098 -148.568962 
L 57.75687 -200.384757 
L 54.273643 -190.948674 
L 50.790415 -139.149784 
L 47.307188 -139.936863 
z
" style="stroke: #d3d3d3; stroke-opacity: 0.5"/>
    </defs>
    <g clip-path="url(#pea6b70890e)">
     <use xlink:href="#m733bcf9883" x="0" y="424.5775" style="fill: #d3d3d3; fill-opacity: 0.5; stroke: #d3d3d3; stroke-opacity: 0.5"/>
    </g>
   </g>
   <g id="FillBetweenPolyCollection_2">
    <defs>
     <path id="m56a249682f" d="M 47.307188 -108.166437 
L 47.307188 -44.625583 
L 50.790415 -46.105547 
L 54.273643 -45.180867 
L 57.75687 -40.043741 
L 61.240098 -44.704703 
L 64.723325 -44.28433 
L 68.206553 -44.462296 
L 71.68978 -48.758856 
L 75.173008 -48.092939 
L 78.656235 -47.475038 
L 82.139463 -46.40864 
L 85.62269 -46.403607 
L 89.105918 -45.322539 
L 92.589145 -49.921221 
L 96.072373 -43.68935 
L 99.5556 -46.042406 
L 103.038828 -47.956223 
L 106.522055 -37.297881 
L 110.005283 -49.325968 
L 113.48851 -49.893319 
L 116.971738 -48.540089 
L 120.454965 -41.88181 
L 123.938193 -42.392705 
L 127.42142 -44.81628 
L 130.904648 -30.862234 
L 134.387875 -42.665519 
L 137.871103 -49.75241 
L 141.35433 -47.688997 
L 144.837558 -48.010957 
L 148.320785 -52.410243 
L 151.804013 -52.016519 
L 155.28724 -49.615777 
L 158.770468 -49.93748 
L 162.253695 -48.239853 
L 165.736923 -47.543031 
L 169.22015 -45.151695 
L 172.703378 -48.23788 
L 176.186605 -47.391066 
L 179.669833 -46.533457 
L 183.153061 -47.098498 
L 186.636288 -45.801122 
L 190.119516 -32.824357 
L 193.602743 -33.032411 
L 197.085971 -36.822588 
L 200.569198 -37.328689 
L 204.052426 -46.520716 
L 207.535653 -40.186408 
L 211.018881 -42.86175 
L 214.502108 -40.772983 
L 217.985336 -47.972895 
L 221.468563 -46.099915 
L 224.951791 -48.488381 
L 228.435018 -49.164326 
L 231.918246 -48.716551 
L 235.401473 -48.154608 
L 238.884701 -47.469278 
L 242.367928 -37.383077 
L 245.851156 -43.963075 
L 249.334383 -39.408524 
L 252.817611 -44.214079 
L 256.300838 -46.907479 
L 259.784066 -43.685371 
L 263.267293 -36.068946 
L 266.750521 -50.05717 
L 270.233748 -46.384482 
L 273.716976 -46.098507 
L 277.200203 -41.127578 
L 280.683431 -37.541384 
L 284.166658 -32.170267 
L 287.649886 -47.93539 
L 291.133113 -32.716185 
L 294.616341 -18.603311 
L 298.099568 -34.900525 
L 301.582796 -29.828753 
L 305.066023 -51.468994 
L 308.549251 -36.985371 
L 312.032479 -30.251291 
L 315.515706 -30.430348 
L 318.998934 -27.860609 
L 322.482161 -33.269591 
L 325.965389 -32.112911 
L 329.448616 -33.632798 
L 332.931844 -42.406265 
L 336.415071 -45.032922 
L 339.898299 -42.063629 
L 343.381526 -43.353918 
L 346.864754 -47.496279 
L 350.347981 -48.709945 
L 353.831209 -45.802831 
L 357.314436 -27.063001 
L 360.797664 -34.455043 
L 364.280891 -50.234658 
L 367.764119 -50.346519 
L 371.247346 -48.116847 
L 374.730574 -43.902539 
L 378.213801 -50.230671 
L 381.697029 -49.828855 
L 385.180256 -44.995218 
L 388.663484 -44.130423 
L 392.146711 -42.73911 
L 395.629939 -47.636125 
L 399.113166 -52.629209 
L 402.596394 -52.186449 
L 406.079621 -51.423718 
L 409.562849 -47.375119 
L 413.046076 -44.150371 
L 416.529304 -49.747294 
L 420.012531 -54.012009 
L 423.495759 -54.343046 
L 426.978986 -61.226376 
L 430.462214 -60.88078 
L 433.945441 -55.428757 
L 437.428669 -51.614698 
L 440.911896 -53.337971 
L 444.395124 -59.634815 
L 447.878352 -52.268186 
L 451.361579 -44.394802 
L 454.844807 -39.414772 
L 458.328034 -42.995528 
L 461.811262 -47.368307 
L 465.294489 -51.430651 
L 468.777717 -48.635741 
L 472.260944 -43.173005 
L 475.744172 -46.577186 
L 479.227399 -48.335194 
L 482.710627 -55.826728 
L 486.193854 -54.0299 
L 489.677082 -59.408544 
L 493.160309 -55.972671 
L 496.643537 -57.871912 
L 500.126764 -55.141197 
L 503.609992 -45.642347 
L 507.093219 -43.806079 
L 510.576447 -42.070073 
L 514.059674 -41.020067 
L 517.542902 -44.624724 
L 521.026129 -48.43014 
L 524.509357 -50.882287 
L 527.992584 -45.509338 
L 531.475812 -52.595573 
L 534.959039 -55.271441 
L 538.442267 -53.562087 
L 541.925494 -51.095927 
L 545.408722 -52.318076 
L 548.891949 -45.595583 
L 552.375177 -35.839324 
L 555.858404 -37.654958 
L 559.341632 -39.996565 
L 562.824859 -45.079123 
L 566.308087 -48.316341 
L 569.791314 -50.816532 
L 573.274542 -50.195227 
L 576.75777 -53.251694 
L 580.240997 -52.741084 
L 583.724225 -49.134273 
L 587.207452 -49.256953 
L 590.69068 -41.773523 
L 594.173907 -45.273906 
L 597.657135 -53.638441 
L 601.140362 -51.387241 
L 604.62359 -48.553318 
L 608.106817 -51.561489 
L 611.590045 -55.22116 
L 615.073272 -56.845452 
L 618.5565 -55.339111 
L 622.039727 -56.068492 
L 625.522955 -54.018009 
L 629.006182 -55.745834 
L 632.48941 -60.701416 
L 635.972637 -56.405983 
L 639.455865 -54.299873 
L 642.939092 -50.81767 
L 646.42232 -55.564527 
L 649.905547 -59.527731 
L 653.388775 -55.493053 
L 656.872002 -52.902873 
L 660.35523 -51.387901 
L 663.838457 -51.44509 
L 667.321685 -48.928041 
L 670.804912 -53.307848 
L 674.28814 -51.161585 
L 677.771367 -58.774958 
L 681.254595 -52.229251 
L 684.737822 -48.775399 
L 688.22105 -50.210818 
L 691.704277 -41.220713 
L 695.187505 -47.753505 
L 698.670732 -47.314948 
L 702.15396 -53.070933 
L 705.637188 -45.653001 
L 705.637188 -146.715797 
L 705.637188 -146.715797 
L 702.15396 -132.002666 
L 698.670732 -134.203698 
L 695.187505 -124.206525 
L 691.704277 -139.117357 
L 688.22105 -182.877533 
L 684.737822 -184.280983 
L 681.254595 -165.396281 
L 677.771367 -145.473665 
L 674.28814 -145.569551 
L 670.804912 -129.459267 
L 667.321685 -148.857347 
L 663.838457 -144.056864 
L 660.35523 -129.487517 
L 656.872002 -120.33502 
L 653.388775 -108.272218 
L 649.905547 -106.133248 
L 646.42232 -125.110716 
L 642.939092 -140.062326 
L 639.455865 -118.68486 
L 635.972637 -121.934812 
L 632.48941 -140.675673 
L 629.006182 -140.563128 
L 625.522955 -140.556964 
L 622.039727 -165.795742 
L 618.5565 -166.021103 
L 615.073272 -170.064622 
L 611.590045 -154.435525 
L 608.106817 -143.353549 
L 604.62359 -160.340797 
L 601.140362 -151.983046 
L 597.657135 -135.15435 
L 594.173907 -134.55048 
L 590.69068 -135.950577 
L 587.207452 -128.087308 
L 583.724225 -141.423866 
L 580.240997 -119.740748 
L 576.75777 -108.139945 
L 573.274542 -112.806291 
L 569.791314 -112.374906 
L 566.308087 -125.237426 
L 562.824859 -126.353782 
L 559.341632 -134.543546 
L 555.858404 -140.583876 
L 552.375177 -149.250997 
L 548.891949 -133.924367 
L 545.408722 -129.450468 
L 541.925494 -127.209632 
L 538.442267 -132.086619 
L 534.959039 -131.862763 
L 531.475812 -143.434197 
L 527.992584 -190.238651 
L 524.509357 -204.460573 
L 521.026129 -191.904702 
L 517.542902 -175.427816 
L 514.059674 -173.600942 
L 510.576447 -189.368217 
L 507.093219 -203.399511 
L 503.609992 -185.987505 
L 500.126764 -146.373155 
L 496.643537 -131.601932 
L 493.160309 -139.735147 
L 489.677082 -162.336369 
L 486.193854 -197.589806 
L 482.710627 -193.357353 
L 479.227399 -186.892165 
L 475.744172 -187.520738 
L 472.260944 -172.225862 
L 468.777717 -129.967882 
L 465.294489 -153.394827 
L 461.811262 -155.544278 
L 458.328034 -151.382388 
L 454.844807 -158.592705 
L 451.361579 -156.919118 
L 447.878352 -144.337545 
L 444.395124 -148.353774 
L 440.911896 -161.05329 
L 437.428669 -183.556522 
L 433.945441 -186.321617 
L 430.462214 -175.895226 
L 426.978986 -149.70564 
L 423.495759 -170.187032 
L 420.012531 -183.621363 
L 416.529304 -143.05681 
L 413.046076 -153.135177 
L 409.562849 -134.536187 
L 406.079621 -138.963395 
L 402.596394 -141.837214 
L 399.113166 -152.970557 
L 395.629939 -129.801527 
L 392.146711 -148.843197 
L 388.663484 -150.568838 
L 385.180256 -149.597133 
L 381.697029 -128.507012 
L 378.213801 -133.468569 
L 374.730574 -139.110243 
L 371.247346 -156.287667 
L 367.764119 -139.911995 
L 364.280891 -123.820811 
L 360.797664 -144.616432 
L 357.314436 -151.913619 
L 353.831209 -122.846248 
L 350.347981 -110.756537 
L 346.864754 -111.922862 
L 343.381526 -121.0658 
L 339.898299 -130.309946 
L 336.415071 -122.519167 
L 332.931844 -128.159265 
L 329.448616 -166.386055 
L 325.965389 -164.733162 
L 322.482161 -160.606847 
L 318.998934 -156.919566 
L 315.515706 -146.001471 
L 312.032479 -140.130337 
L 308.549251 -126.64223 
L 305.066023 -113.809841 
L 301.582796 -159.519584 
L 298.099568 -160.491755 
L 294.616341 -198.926337 
L 291.133113 -222.94751 
L 287.649886 -222.130654 
L 284.166658 -188.802579 
L 280.683431 -158.804261 
L 277.200203 -137.96152 
L 273.716976 -124.280211 
L 270.233748 -112.284921 
L 266.750521 -98.819661 
L 263.267293 -124.539289 
L 259.784066 -111.671984 
L 256.300838 -109.720145 
L 252.817611 -119.182792 
L 249.334383 -136.571199 
L 245.851156 -140.833788 
L 242.367928 -147.553021 
L 238.884701 -125.575014 
L 235.401473 -119.3911 
L 231.918246 -123.052015 
L 228.435018 -116.720887 
L 224.951791 -124.107573 
L 221.468563 -125.569386 
L 217.985336 -117.626947 
L 214.502108 -149.461064 
L 211.018881 -136.644724 
L 207.535653 -152.65372 
L 204.052426 -129.979855 
L 200.569198 -151.580394 
L 197.085971 -128.322802 
L 193.602743 -134.738254 
L 190.119516 -122.981336 
L 186.636288 -94.823988 
L 183.153061 -95.002315 
L 179.669833 -92.568421 
L 176.186605 -89.168695 
L 172.703378 -86.622207 
L 169.22015 -91.418256 
L 165.736923 -87.273208 
L 162.253695 -87.610719 
L 158.770468 -94.248827 
L 155.28724 -91.724898 
L 151.804013 -94.209662 
L 148.320785 -88.478019 
L 144.837558 -86.852943 
L 141.35433 -84.921314 
L 137.871103 -82.860334 
L 134.387875 -98.917667 
L 130.904648 -123.531062 
L 127.42142 -90.718418 
L 123.938193 -95.374677 
L 120.454965 -97.626793 
L 116.971738 -83.269721 
L 113.48851 -82.231971 
L 110.005283 -85.54937 
L 106.522055 -107.1832 
L 103.038828 -88.897982 
L 99.5556 -100.44193 
L 96.072373 -101.959184 
L 92.589145 -91.604903 
L 89.105918 -110.841824 
L 85.62269 -102.950093 
L 82.139463 -105.857088 
L 78.656235 -104.493288 
L 75.173008 -101.254056 
L 71.68978 -96.300988 
L 68.206553 -114.304334 
L 64.723325 -120.614474 
L 61.240098 -113.947542 
L 57.75687 -146.937752 
L 54.273643 -142.359405 
L 50.790415 -108.135038 
L 47.307188 -108.166437 
z
" style="stroke: #808080; stroke-opacity: 0.7"/>
    </defs>
    <g clip-path="url(#pea6b70890e)">
     <use xlink:href="#m56a249682f" x="0" y="424.5775" style="fill: #808080; fill-opacity: 0.7; stroke: #808080; stroke-opacity: 0.7"/>
    </g>
   </g>
   <g id="line2d_31">
    <path d="M 47.307188 360.584192 
L 50.790415 358.106909 
L 54.273643 326.834309 
L 57.75687 315.341666 
L 61.240098 341.802412 
L 64.723325 322.106242 
L 68.206553 306.519101 
L 71.68978 319.708631 
L 75.173008 336.060486 
L 78.656235 338.149442 
L 82.139463 312.788403 
L 85.62269 343.775338 
L 89.105918 352.734657 
L 92.589145 355.428786 
L 96.072373 355.845547 
L 99.5556 357.918227 
L 103.038828 352.846553 
L 106.522055 356.455312 
L 110.005283 353.491397 
L 113.48851 356.944603 
L 116.971738 358.477361 
L 120.454965 355.905708 
L 123.938193 352.649769 
L 127.42142 357.419861 
L 130.904648 361.160506 
L 134.387875 362.359888 
L 137.871103 364.224256 
L 141.35433 359.263382 
L 144.837558 360.617412 
L 148.320785 358.465342 
L 151.804013 361.339777 
L 155.28724 362.210956 
L 158.770468 360.366419 
L 162.253695 363.62016 
L 165.736923 360.412883 
L 169.22015 358.403623 
L 172.703378 358.439716 
L 179.669833 366.19359 
L 183.153061 360.440609 
L 186.636288 357.511079 
L 190.119516 339.62255 
L 193.602743 362.271343 
L 197.085971 367.400867 
L 200.569198 361.195625 
L 204.052426 358.044865 
L 207.535653 341.979638 
L 211.018881 344.180934 
L 214.502108 339.030894 
L 217.985336 347.024118 
L 221.468563 353.556179 
L 224.951791 352.552531 
L 228.435018 353.356619 
L 231.918246 347.291934 
L 235.401473 351.731324 
L 238.884701 350.544417 
L 242.367928 347.529361 
L 245.851156 349.100941 
L 249.334383 353.119719 
L 252.817611 352.862909 
L 256.300838 358.643789 
L 259.784066 352.14494 
L 263.267293 349.514432 
L 270.233748 347.853346 
L 273.716976 344.694437 
L 277.200203 348.115263 
L 280.683431 353.184354 
L 284.166658 352.341212 
L 287.649886 341.309244 
L 291.133113 344.914633 
L 294.616341 354.64354 
L 298.099568 342.777609 
L 301.582796 319.587193 
L 308.549251 359.712621 
L 315.515706 354.387679 
L 318.998934 347.711961 
L 322.482161 351.636037 
L 325.965389 348.850922 
L 329.448616 347.739357 
L 332.931844 348.435573 
L 336.415071 347.720532 
L 339.898299 345.760053 
L 343.381526 346.03129 
L 346.864754 350.433345 
L 350.347981 347.592739 
L 353.831209 349.638636 
L 357.314436 360.588766 
L 360.797664 360.577029 
L 364.280891 359.498447 
L 367.764119 358.969901 
L 371.247346 357.797623 
L 374.730574 365.320807 
L 378.213801 352.660407 
L 381.697029 337.852556 
L 385.180256 337.704973 
L 388.663484 353.021341 
L 392.146711 362.352455 
L 395.629939 365.708491 
L 399.113166 354.784521 
L 402.596394 354.19744 
L 406.079621 351.812007 
L 409.562849 363.142813 
L 413.046076 367.22101 
L 416.529304 364.434347 
L 420.012531 365.028645 
L 423.495759 360.898778 
L 426.978986 357.358729 
L 430.462214 330.734843 
L 433.945441 295.443785 
L 437.428669 297.009607 
L 440.911896 298.28953 
L 444.395124 279.633863 
L 447.878352 292.77761 
L 451.361579 274.398747 
L 454.844807 273.252195 
L 458.328034 263.332226 
L 461.811262 283.872894 
L 465.294489 295.714581 
L 468.777717 265.264958 
L 472.260944 274.520073 
L 475.744172 262.74276 
L 479.227399 252.681812 
L 482.710627 249.156721 
L 486.193854 239.588578 
L 489.677082 293.571395 
L 493.160309 302.726712 
L 496.643537 300.044036 
L 500.126764 295.255022 
L 503.609992 310.039612 
L 507.093219 283.152339 
L 510.576447 295.152971 
L 514.059674 315.632042 
L 517.542902 317.818056 
L 521.026129 298.805951 
L 524.509357 299.901378 
L 527.992584 289.826748 
L 531.475812 283.502491 
L 534.959039 314.556692 
L 538.442267 304.621862 
L 541.925494 335.369092 
L 545.408722 334.246444 
L 548.891949 339.326959 
L 552.375177 336.977357 
L 555.858404 339.23505 
L 559.341632 340.831748 
L 562.824859 340.017848 
L 566.308087 342.280859 
L 569.791314 340.690954 
L 573.274542 345.355728 
L 576.75777 350.887377 
L 580.240997 349.531033 
L 583.724225 356.891589 
L 587.207452 366.053932 
L 590.69068 354.607054 
L 594.173907 360.208586 
L 597.657135 344.010755 
L 601.140362 359.081531 
L 604.62359 344.819166 
L 608.106817 346.205743 
L 611.590045 341.211049 
L 615.073272 338.641384 
L 618.5565 364.23885 
L 622.039727 339.361821 
L 625.522955 342.549788 
L 629.006182 359.954437 
L 632.48941 358.421197 
L 635.972637 347.013097 
L 639.455865 356.927822 
L 642.939092 365.967254 
L 646.42232 365.446451 
L 649.905547 359.004391 
L 653.388775 364.034623 
L 656.872002 348.922392 
L 660.35523 334.891177 
L 663.838457 363.040915 
L 667.321685 364.399042 
L 670.804912 361.834252 
L 674.28814 346.792664 
L 677.771367 329.487968 
L 681.254595 334.334397 
L 684.737822 346.777328 
L 688.22105 338.715137 
L 691.704277 331.68773 
L 695.187505 337.632733 
L 698.670732 343.820289 
L 702.15396 344.451878 
L 705.637188 331.181492 
L 705.637188 331.181492 
" clip-path="url(#pea6b70890e)" style="fill: none; stroke: #ff8c00; stroke-width: 2.3; stroke-linecap: square"/>
   </g>
   <g id="line2d_32">
    <path d="M 284.166658 384.117812 
L 284.166658 23.837812 
" clip-path="url(#pea6b70890e)" style="fill: none; stroke-dasharray: 5.55,2.4; stroke-dashoffset: 0; stroke: #808080; stroke-width: 1.5"/>
   </g>
   <g id="line2d_33">
    <path d="M 486.193854 384.117812 
L 486.193854 23.837812 
" clip-path="url(#pea6b70890e)" style="fill: none; stroke-dasharray: 5.55,2.4; stroke-dashoffset: 0; stroke: #808080; stroke-width: 1.5"/>
   </g>
   <g id="patch_3">
    <path d="M 47.307188 384.117812 
L 47.307188 23.837812 
" style="fill: none; stroke: #000000; stroke-width: 0.8; stroke-linejoin: miter; stroke-linecap: square"/>
   </g>
   <g id="patch_4">
    <path d="M 705.637188 384.117812 
L 705.637188 23.837812 
" style="fill: none; stroke: #000000; stroke-width: 0.8; stroke-linejoin: miter; stroke-linecap: square"/>
   </g>
   <g id="patch_5">
    <path d="M 47.307188 384.117812 
L 705.637188 384.117812 
" style="fill: none; stroke: #000000; stroke-width: 0.8; stroke-linejoin: miter; stroke-linecap: square"/>
   </g>
   <g id="patch_6">
    <path d="M 47.307188 23.837812 
L 705.637188 23.837812 
" style="fill: none; stroke: #000000; stroke-width: 0.8; stroke-linejoin: miter; stroke-linecap: square"/>
   </g>
   <g id="text_18">
    <!-- Facial trace: ADHD -->
    <g transform="translate(311.059375 17.837812) scale(0.14 -0.14)">
     <defs>
      <path id="DejaVuSans-46" d="M 628 4666 
L 3309 4666 
L 3309 4134 
L 1259 4134 
L 1259 2759 
L 3109 2759 
L 3109 2228 
L 1259 2228 
L 1259 0 
L 628 0 
L 628 4666 
z
" transform="scale(0.015625)"/>
      <path id="DejaVuSans-63" d="M 3122 3366 
L 3122 2828 
Q 2878 2963 2633 3030 
Q 2388 3097 2138 3097 
Q 1578 3097 1268 2742 
Q 959 2388 959 1747 
Q 959 1106 1268 751 
Q 1578 397 2138 397 
Q 2388 397 2633 464 
Q 2878 531 3122 666 
L 3122 134 
Q 2881 22 2623 -34 
Q 2366 -91 2075 -91 
Q 1284 -91 818 406 
Q 353 903 353 1747 
Q 353 2603 823 3093 
Q 1294 3584 2113 3584 
Q 2378 3584 2631 3529 
Q 2884 3475 3122 3366 
z
" transform="scale(0.015625)"/>
      <path id="DejaVuSans-6c" d="M 603 4863 
L 1178 4863 
L 1178 0 
L 603 0 
L 603 4863 
z
" transform="scale(0.015625)"/>
      <path id="DejaVuSans-72" d="M 2631 2963 
Q 2534 3019 2420 3045 
Q 2306 3072 2169 3072 
Q 1681 3072 1420 2755 
Q 1159 2438 1159 1844 
L 1159 0 
L 581 0 
L 581 3500 
L 1159 3500 
L 1159 2956 
Q 1341 3275 1631 3429 
Q 1922 3584 2338 3584 
Q 2397 3584 2469 3576 
Q 2541 3569 2628 3553 
L 2631 2963 
z
" transform="scale(0.015625)"/>
      <path id="DejaVuSans-3a" d="M 750 794 
L 1409 794 
L 1409 0 
L 750 0 
L 750 794 
z
M 750 3309 
L 1409 3309 
L 1409 2516 
L 750 2516 
L 750 3309 
z
" transform="scale(0.015625)"/>
      <path id="DejaVuSans-44" d="M 1259 4147 
L 1259 519 
L 2022 519 
Q 2988 519 3436 956 
Q 3884 1394 3884 2338 
Q 3884 3275 3436 3711 
Q 2988 4147 2022 4147 
L 1259 4147 
z
M 628 4666 
L 1925 4666 
Q 3281 4666 3915 4102 
Q 4550 3538 4550 2338 
Q 4550 1131 3912 565 
Q 3275 0 1925 0 
L 628 0 
L 628 4666 
z
" transform="scale(0.015625)"/>
      <path id="DejaVuSans-48" d="M 628 4666 
L 1259 4666 
L 1259 2753 
L 3553 2753 
L 3553 4666 
L 4184 4666 
L 4184 0 
L 3553 0 
L 3553 2222 
L 1259 2222 
L 1259 0 
L 628 0 
L 628 4666 
z
" transform="scale(0.015625)"/>
     </defs>
     <use xlink:href="#DejaVuSans-46"/>
     <use xlink:href="#DejaVuSans-61" transform="translate(48.394531 0)"/>
     <use xlink:href="#DejaVuSans-63" transform="translate(109.673828 0)"/>
     <use xlink:href="#DejaVuSans-69" transform="translate(164.654297 0)"/>
     <use xlink:href="#DejaVuSans-61" transform="translate(192.4375 0)"/>
     <use xlink:href="#DejaVuSans-6c" transform="translate(253.716797 0)"/>
     <use xlink:href="#DejaVuSans-20" transform="translate(281.5 0)"/>
     <use xlink:href="#DejaVuSans-74" transform="translate(313.287109 0)"/>
     <use xlink:href="#DejaVuSans-72" transform="translate(352.496094 0)"/>
     <use xlink:href="#DejaVuSans-61" transform="translate(393.609375 0)"/>
     <use xlink:href="#DejaVuSans-63" transform="translate(454.888672 0)"/>
     <use xlink:href="#DejaVuSans-65" transform="translate(509.869141 0)"/>
     <use xlink:href="#DejaVuSans-3a" transform="translate(571.392578 0)"/>
     <use xlink:href="#DejaVuSans-20" transform="translate(605.083984 0)"/>
     <use xlink:href="#DejaVuSans-41" transform="translate(636.871094 0)"/>
     <use xlink:href="#DejaVuSans-44" transform="translate(705.279297 0)"/>
     <use xlink:href="#DejaVuSans-48" transform="translate(782.28125 0)"/>
     <use xlink:href="#DejaVuSans-44" transform="translate(857.476562 0)"/>
    </g>
   </g>
   <g id="legend_1">
    <g id="patch_7">
     <path d="M 575.098125 42.096094 
L 597.098125 42.096094 
L 597.098125 34.396094 
L 575.098125 34.396094 
z
" style="fill: #d3d3d3; fill-opacity: 0.5; stroke: #d3d3d3; stroke-opacity: 0.5; stroke-linejoin: miter"/>
    </g>
    <g id="text_19">
     <!-- ADHD ±2 SD -->
     <g transform="translate(605.898125 42.096094) scale(0.11 -0.11)">
      <defs>
       <path id="DejaVuSans-b1" d="M 2944 4013 
L 2944 2803 
L 4684 2803 
L 4684 2272 
L 2944 2272 
L 2944 1063 
L 2419 1063 
L 2419 2272 
L 678 2272 
L 678 2803 
L 2419 2803 
L 2419 4013 
L 2944 4013 
z
M 678 531 
L 4684 531 
L 4684 0 
L 678 0 
L 678 531 
z
" transform="scale(0.015625)"/>
       <path id="DejaVuSans-53" d="M 3425 4513 
L 3425 3897 
Q 3066 4069 2747 4153 
Q 2428 4238 2131 4238 
Q 1616 4238 1336 4038 
Q 1056 3838 1056 3469 
Q 1056 3159 1242 3001 
Q 1428 2844 1947 2747 
L 2328 2669 
Q 3034 2534 3370 2195 
Q 3706 1856 3706 1288 
Q 3706 609 3251 259 
Q 2797 -91 1919 -91 
Q 1588 -91 1214 -16 
Q 841 59 441 206 
L 441 856 
Q 825 641 1194 531 
Q 1563 422 1919 422 
Q 2459 422 2753 634 
Q 3047 847 3047 1241 
Q 3047 1584 2836 1778 
Q 2625 1972 2144 2069 
L 1759 2144 
Q 1053 2284 737 2584 
Q 422 2884 422 3419 
Q 422 4038 858 4394 
Q 1294 4750 2059 4750 
Q 2388 4750 2728 4690 
Q 3069 4631 3425 4513 
z
" transform="scale(0.015625)"/>
      </defs>
      <use xlink:href="#DejaVuSans-41"/>
      <use xlink:href="#DejaVuSans-44" transform="translate(68.408203 0)"/>
      <use xlink:href="#DejaVuSans-48" transform="translate(145.410156 0)"/>
      <use xlink:href="#DejaVuSans-44" transform="translate(220.605469 0)"/>
      <use xlink:href="#DejaVuSans-20" transform="translate(297.607422 0)"/>
      <use xlink:href="#DejaVuSans-b1" transform="translate(329.394531 0)"/>
      <use xlink:href="#DejaVuSans-32" transform="translate(413.183594 0)"/>
      <use xlink:href="#DejaVuSans-20" transform="translate(476.806641 0)"/>
      <use xlink:href="#DejaVuSans-53" transform="translate(508.59375 0)"/>
      <use xlink:href="#DejaVuSans-44" transform="translate(572.070312 0)"/>
     </g>
    </g>
    <g id="patch_8">
     <path d="M 575.098125 58.242031 
L 597.098125 58.242031 
L 597.098125 50.542031 
L 575.098125 50.542031 
z
" style="fill: #808080; fill-opacity: 0.7; stroke: #808080; stroke-opacity: 0.7; stroke-linejoin: miter"/>
    </g>
    <g id="text_20">
     <!-- ADHD ±1 SD -->
     <g transform="translate(605.898125 58.242031) scale(0.11 -0.11)">
      <use xlink:href="#DejaVuSans-41"/>
      <use xlink:href="#DejaVuSans-44" transform="translate(68.408203 0)"/>
      <use xlink:href="#DejaVuSans-48" transform="translate(145.410156 0)"/>
      <use xlink:href="#DejaVuSans-44" transform="translate(220.605469 0)"/>
      <use xlink:href="#DejaVuSans-20" transform="translate(297.607422 0)"/>
      <use xlink:href="#DejaVuSans-b1" transform="translate(329.394531 0)"/>
      <use xlink:href="#DejaVuSans-31" transform="translate(413.183594 0)"/>
      <use xlink:href="#DejaVuSans-20" transform="translate(476.806641 0)"/>
      <use xlink:href="#DejaVuSans-53" transform="translate(508.59375 0)"/>
      <use xlink:href="#DejaVuSans-44" transform="translate(572.070312 0)"/>
     </g>
    </g>
    <g id="line2d_34">
     <path d="M 575.098125 70.537969 
L 586.098125 70.537969 
L 597.098125 70.537969 
" style="fill: none; stroke: #ff8c00; stroke-width: 2.3; stroke-linecap: square"/>
    </g>
    <g id="text_21">
     <!-- ADHD prototype -->
     <g transform="translate(605.898125 74.387969) scale(0.11 -0.11)">
      <defs>
       <path id="DejaVuSans-70" d="M 1159 525 
L 1159 -1331 
L 581 -1331 
L 581 3500 
L 1159 3500 
L 1159 2969 
Q 1341 3281 1617 3432 
Q 1894 3584 2278 3584 
Q 2916 3584 3314 3078 
Q 3713 2572 3713 1747 
Q 3713 922 3314 415 
Q 2916 -91 2278 -91 
Q 1894 -91 1617 61 
Q 1341 213 1159 525 
z
M 3116 1747 
Q 3116 2381 2855 2742 
Q 2594 3103 2138 3103 
Q 1681 3103 1420 2742 
Q 1159 2381 1159 1747 
Q 1159 1113 1420 752 
Q 1681 391 2138 391 
Q 2594 391 2855 752 
Q 3116 1113 3116 1747 
z
" transform="scale(0.015625)"/>
       <path id="DejaVuSans-6f" d="M 1959 3097 
Q 1497 3097 1228 2736 
Q 959 2375 959 1747 
Q 959 1119 1226 758 
Q 1494 397 1959 397 
Q 2419 397 2687 759 
Q 2956 1122 2956 1747 
Q 2956 2369 2687 2733 
Q 2419 3097 1959 3097 
z
M 1959 3584 
Q 2709 3584 3137 3096 
Q 3566 2609 3566 1747 
Q 3566 888 3137 398 
Q 2709 -91 1959 -91 
Q 1206 -91 779 398 
Q 353 888 353 1747 
Q 353 2609 779 3096 
Q 1206 3584 1959 3584 
z
" transform="scale(0.015625)"/>
      </defs>
      <use xlink:href="#DejaVuSans-41"/>
      <use xlink:href="#DejaVuSans-44" transform="translate(68.408203 0)"/>
      <use xlink:href="#DejaVuSans-48" transform="translate(145.410156 0)"/>
      <use xlink:href="#DejaVuSans-44" transform="translate(220.605469 0)"/>
      <use xlink:href="#DejaVuSans-20" transform="translate(297.607422 0)"/>
      <use xlink:href="#DejaVuSans-70" transform="translate(329.394531 0)"/>
      <use xlink:href="#DejaVuSans-72" transform="translate(392.871094 0)"/>
      <use xlink:href="#DejaVuSans-6f" transform="translate(431.734375 0)"/>
      <use xlink:href="#DejaVuSans-74" transform="translate(492.916016 0)"/>
      <use xlink:href="#DejaVuSans-6f" transform="translate(532.125 0)"/>
      <use xlink:href="#DejaVuSans-74" transform="translate(593.306641 0)"/>
      <use xlink:href="#DejaVuSans-79" transform="translate(632.515625 0)"/>
      <use xlink:href="#DejaVuSans-70" transform="translate(691.695312 0)"/>
      <use xlink:href="#DejaVuSans-65" transform="translate(755.171875 0)"/>
     </g>
    </g>
   </g>
  </g>
 </g>
 <defs>
  <clipPath id="pea6b70890e">
   <rect x="47.307188" y="23.837812" width="658.33" height="360.28"/>
  </clipPath>
 </defs>
</svg>
