<?xml version="1.0" encoding="utf-8" standalone="no"?>
<!DOCTYPE svg PUBLIC "-//W3C//DTD SVG 1.1//EN"
  "http://www.w3.org/Graphics/SVG/1.1/DTD/svg11.dtd">
<svg xmlns:xlink="http://www.w3.org/1999/xlink" width="712.837188pt" height="424.5775pt" viewBox="0 0 712.837188 424.5775" xmlns="http://www.w3.org/2000/svg" version="1.1">
 <metadata>
  <rdf:RDF xmlns:dc="http://purl.org/dc/elements/1.1/" xmlns:cc="http://creativecommons.org/ns#" xmlns:rdf="http://www.w3.org/1999/02/22-rdf-syntax-ns#">
   <cc:Work>
    <dc:type rdf:resource="http://purl.org/dc/dcmitype/StillImage"/>
    <dc:date>2026-06-14T19:00:46.481715</dc:date>
    <dc:format>image/svg+xml</dc:format>
    <dc:creator>
     <cc:Agent>
      <dc:title>Matplotlib v3.10.1, https://matplotlib.org/</dc:title>
     </cc:Agent>
    </dc:creator>
   </cc:Work>
  </rdf:RDF>
 </metadata>
 <defs>
  <style type="text/css">*{stroke-linejoin: round; stroke-linecap: butt}</style>
 </defs>
 <g id="figure_1">
  <g id="patch_1">
   <path d="M 0 424.5775 
L 712.837188 424.5775 
L 712.837188 0 
L 0 0 
z
" style="fill: #ffffff"/>
  </g>
  <g id="axes_1">
   <g id="patch_2">
    <path d="M 47.307188 384.117812 
L 705.637188 384.117812 
L 705.637188 23.837812 
L 47.307188 23.837812 
z
" style="fill: #ffffff"/>
   </g>
   <g id="matplotlib.axis_1">
    <g id="xtick_1">
     <g id="line2d_1">
      <path d="M 47.307188 384.117812 
L 47.307188 23.837812 
" clip-path="url(#pa7e716a4e6)" style="fill: none; stroke: #b0b0b0; stroke-opacity: 0.2; stroke-width: 0.6; stroke-linecap: square"/>
     </g>
     <g id="line2d_2">
      <defs>
       <path id="m52800d78e2" d="M 0 0 
L 0 3.5 
" style="stroke: #000000; stroke-width: 0.8"/>
      </defs>
      <g>
       <use xlink:href="#m52800d78e2" x="47.307188" y="384.117812" style="stroke: #000000; stroke-width: 0.8"/>
      </g>
     </g>
     <g id="text_1">
      <!-- 0 -->
      <g transform="translate(43.807813 399.476094) scale(0.11 -0.11)">
       <defs>
        <path id="DejaVuSans-30" d="M 2034 4250 
Q 1547 4250 1301 3770 
Q 1056 3291 1056 2328 
Q 1056 1369 1301 889 
Q 1547 409 2034 409 
Q 2525 409 2770 889 
Q 3016 1369 3016 2328 
Q 3016 3291 2770 3770 
Q 2525 4250 2034 4250 
z
M 2034 4750 
Q 2819 4750 3233 4129 
Q 3647 3509 3647 2328 
Q 3647 1150 3233 529 
Q 2819 -91 2034 -91 
Q 1250 -91 836 529 
Q 422 1150 422 2328 
Q 422 3509 836 4129 
Q 1250 4750 2034 4750 
z
" transform="scale(0.015625)"/>
       </defs>
       <use xlink:href="#DejaVuSans-30"/>
      </g>
     </g>
    </g>
    <g id="xtick_2">
     <g id="line2d_3">
      <path d="M 134.387875 384.117812 
L 134.387875 23.837812 
" clip-path="url(#pa7e716a4e6)" style="fill: none; stroke: #b0b0b0; stroke-opacity: 0.2; stroke-width: 0.6; stroke-linecap: square"/>
     </g>
     <g id="line2d_4">
      <g>
       <use xlink:href="#m52800d78e2" x="134.387875" y="384.117812" style="stroke: #000000; stroke-width: 0.8"/>
      </g>
     </g>
     <g id="text_2">
      <!-- 25 -->
      <g transform="translate(127.389125 399.476094) scale(0.11 -0.11)">
       <defs>
        <path id="DejaVuSans-32" d="M 1228 531 
L 3431 531 
L 3431 0 
L 469 0 
L 469 531 
Q 828 903 1448 1529 
Q 2069 2156 2228 2338 
Q 2531 2678 2651 2914 
Q 2772 3150 2772 3378 
Q 2772 3750 2511 3984 
Q 2250 4219 1831 4219 
Q 1534 4219 1204 4116 
Q 875 4013 500 3803 
L 500 4441 
Q 881 4594 1212 4672 
Q 1544 4750 1819 4750 
Q 2544 4750 2975 4387 
Q 3406 4025 3406 3419 
Q 3406 3131 3298 2873 
Q 3191 2616 2906 2266 
Q 2828 2175 2409 1742 
Q 1991 1309 1228 531 
z
" transform="scale(0.015625)"/>
        <path id="DejaVuSans-35" d="M 691 4666 
L 3169 4666 
L 3169 4134 
L 1269 4134 
L 1269 2991 
Q 1406 3038 1543 3061 
Q 1681 3084 1819 3084 
Q 2600 3084 3056 2656 
Q 3513 2228 3513 1497 
Q 3513 744 3044 326 
Q 2575 -91 1722 -91 
Q 1428 -91 1123 -41 
Q 819 9 494 109 
L 494 744 
Q 775 591 1075 516 
Q 1375 441 1709 441 
Q 2250 441 2565 725 
Q 2881 1009 2881 1497 
Q 2881 1984 2565 2268 
Q 2250 2553 1709 2553 
Q 1456 2553 1204 2497 
Q 953 2441 691 2322 
L 691 4666 
z
" transform="scale(0.015625)"/>
       </defs>
       <use xlink:href="#DejaVuSans-32"/>
       <use xlink:href="#DejaVuSans-35" transform="translate(63.623047 0)"/>
      </g>
     </g>
    </g>
    <g id="xtick_3">
     <g id="line2d_5">
      <path d="M 221.468563 384.117812 
L 221.468563 23.837812 
" clip-path="url(#pa7e716a4e6)" style="fill: none; stroke: #b0b0b0; stroke-opacity: 0.2; stroke-width: 0.6; stroke-linecap: square"/>
     </g>
     <g id="line2d_6">
      <g>
       <use xlink:href="#m52800d78e2" x="221.468563" y="384.117812" style="stroke: #000000; stroke-width: 0.8"/>
      </g>
     </g>
     <g id="text_3">
      <!-- 50 -->
      <g transform="translate(214.469813 399.476094) scale(0.11 -0.11)">
       <use xlink:href="#DejaVuSans-35"/>
       <use xlink:href="#DejaVuSans-30" transform="translate(63.623047 0)"/>
      </g>
     </g>
    </g>
    <g id="xtick_4">
     <g id="line2d_7">
      <path d="M 308.549251 384.117812 
L 308.549251 23.837812 
" clip-path="url(#pa7e716a4e6)" style="fill: none; stroke: #b0b0b0; stroke-opacity: 0.2; stroke-width: 0.6; stroke-linecap: square"/>
     </g>
     <g id="line2d_8">
      <g>
       <use xlink:href="#m52800d78e2" x="308.549251" y="384.117812" style="stroke: #000000; stroke-width: 0.8"/>
      </g>
     </g>
     <g id="text_4">
      <!-- 75 -->
      <g transform="translate(301.550501 399.476094) scale(0.11 -0.11)">
       <defs>
        <path id="DejaVuSans-37" d="M 525 4666 
L 3525 4666 
L 3525 4397 
L 1831 0 
L 1172 0 
L 2766 4134 
L 525 4134 
L 525 4666 
z
" transform="scale(0.015625)"/>
       </defs>
       <use xlink:href="#DejaVuSans-37"/>
       <use xlink:href="#DejaVuSans-35" transform="translate(63.623047 0)"/>
      </g>
     </g>
    </g>
    <g id="xtick_5">
     <g id="line2d_9">
      <path d="M 395.629939 384.117812 
L 395.629939 23.837812 
" clip-path="url(#pa7e716a4e6)" style="fill: none; stroke: #b0b0b0; stroke-opacity: 0.2; stroke-width: 0.6; stroke-linecap: square"/>
     </g>
     <g id="line2d_10">
      <g>
       <use xlink:href="#m52800d78e2" x="395.629939" y="384.117812" style="stroke: #000000; stroke-width: 0.8"/>
      </g>
     </g>
     <g id="text_5">
      <!-- 100 -->
      <g transform="translate(385.131814 399.476094) scale(0.11 -0.11)">
       <defs>
        <path id="DejaVuSans-31" d="M 794 531 
L 1825 531 
L 1825 4091 
L 703 3866 
L 703 4441 
L 1819 4666 
L 2450 4666 
L 2450 531 
L 3481 531 
L 3481 0 
L 794 0 
L 794 531 
z
" transform="scale(0.015625)"/>
       </defs>
       <use xlink:href="#DejaVuSans-31"/>
       <use xlink:href="#DejaVuSans-30" transform="translate(63.623047 0)"/>
       <use xlink:href="#DejaVuSans-30" transform="translate(127.246094 0)"/>
      </g>
     </g>
    </g>
    <g id="xtick_6">
     <g id="line2d_11">
      <path d="M 482.710627 384.117812 
L 482.710627 23.837812 
" clip-path="url(#pa7e716a4e6)" style="fill: none; stroke: #b0b0b0; stroke-opacity: 0.2; stroke-width: 0.6; stroke-linecap: square"/>
     </g>
     <g id="line2d_12">
      <g>
       <use xlink:href="#m52800d78e2" x="482.710627" y="384.117812" style="stroke: #000000; stroke-width: 0.8"/>
      </g>
     </g>
     <g id="text_6">
      <!-- 125 -->
      <g transform="translate(472.212502 399.476094) scale(0.11 -0.11)">
       <use xlink:href="#DejaVuSans-31"/>
       <use xlink:href="#DejaVuSans-32" transform="translate(63.623047 0)"/>
       <use xlink:href="#DejaVuSans-35" transform="translate(127.246094 0)"/>
      </g>
     </g>
    </g>
    <g id="xtick_7">
     <g id="line2d_13">
      <path d="M 569.791314 384.117812 
L 569.791314 23.837812 
" clip-path="url(#pa7e716a4e6)" style="fill: none; stroke: #b0b0b0; stroke-opacity: 0.2; stroke-width: 0.6; stroke-linecap: square"/>
     </g>
     <g id="line2d_14">
      <g>
       <use xlink:href="#m52800d78e2" x="569.791314" y="384.117812" style="stroke: #000000; stroke-width: 0.8"/>
      </g>
     </g>
     <g id="text_7">
      <!-- 150 -->
      <g transform="translate(559.293189 399.476094) scale(0.11 -0.11)">
       <use xlink:href="#DejaVuSans-31"/>
       <use xlink:href="#DejaVuSans-35" transform="translate(63.623047 0)"/>
       <use xlink:href="#DejaVuSans-30" transform="translate(127.246094 0)"/>
      </g>
     </g>
    </g>
    <g id="xtick_8">
     <g id="line2d_15">
      <path d="M 656.872002 384.117812 
L 656.872002 23.837812 
" clip-path="url(#pa7e716a4e6)" style="fill: none; stroke: #b0b0b0; stroke-opacity: 0.2; stroke-width: 0.6; stroke-linecap: square"/>
     </g>
     <g id="line2d_16">
      <g>
       <use xlink:href="#m52800d78e2" x="656.872002" y="384.117812" style="stroke: #000000; stroke-width: 0.8"/>
      </g>
     </g>
     <g id="text_8">
      <!-- 175 -->
      <g transform="translate(646.373877 399.476094) scale(0.11 -0.11)">
       <use xlink:href="#DejaVuSans-31"/>
       <use xlink:href="#DejaVuSans-37" transform="translate(63.623047 0)"/>
       <use xlink:href="#DejaVuSans-35" transform="translate(127.246094 0)"/>
      </g>
     </g>
    </g>
    <g id="text_9">
     <!-- Time (s) -->
     <g transform="translate(352.0775 414.881875) scale(0.12 -0.12)">
      <defs>
       <path id="DejaVuSans-54" d="M -19 4666 
L 3928 4666 
L 3928 4134 
L 2272 4134 
L 2272 0 
L 1638 0 
L 1638 4134 
L -19 4134 
L -19 4666 
z
" transform="scale(0.015625)"/>
       <path id="DejaVuSans-69" d="M 603 3500 
L 1178 3500 
L 1178 0 
L 603 0 
L 603 3500 
z
M 603 4863 
L 1178 4863 
L 1178 4134 
L 603 4134 
L 603 4863 
z
" transform="scale(0.015625)"/>
       <path id="DejaVuSans-6d" d="M 3328 2828 
Q 3544 3216 3844 3400 
Q 4144 3584 4550 3584 
Q 5097 3584 5394 3201 
Q 5691 2819 5691 2113 
L 5691 0 
L 5113 0 
L 5113 2094 
Q 5113 2597 4934 2840 
Q 4756 3084 4391 3084 
Q 3944 3084 3684 2787 
Q 3425 2491 3425 1978 
L 3425 0 
L 2847 0 
L 2847 2094 
Q 2847 2600 2669 2842 
Q 2491 3084 2119 3084 
Q 1678 3084 1418 2786 
Q 1159 2488 1159 1978 
L 1159 0 
L 581 0 
L 581 3500 
L 1159 3500 
L 1159 2956 
Q 1356 3278 1631 3431 
Q 1906 3584 2284 3584 
Q 2666 3584 2933 3390 
Q 3200 3197 3328 2828 
z
" transform="scale(0.015625)"/>
       <path id="DejaVuSans-65" d="M 3597 1894 
L 3597 1613 
L 953 1613 
Q 991 1019 1311 708 
Q 1631 397 2203 397 
Q 2534 397 2845 478 
Q 3156 559 3463 722 
L 3463 178 
Q 3153 47 2828 -22 
Q 2503 -91 2169 -91 
Q 1331 -91 842 396 
Q 353 884 353 1716 
Q 353 2575 817 3079 
Q 1281 3584 2069 3584 
Q 2775 3584 3186 3129 
Q 3597 2675 3597 1894 
z
M 3022 2063 
Q 3016 2534 2758 2815 
Q 2500 3097 2075 3097 
Q 1594 3097 1305 2825 
Q 1016 2553 972 2059 
L 3022 2063 
z
" transform="scale(0.015625)"/>
       <path id="DejaVuSans-20" transform="scale(0.015625)"/>
       <path id="DejaVuSans-28" d="M 1984 4856 
Q 1566 4138 1362 3434 
Q 1159 2731 1159 2009 
Q 1159 1288 1364 580 
Q 1569 -128 1984 -844 
L 1484 -844 
Q 1016 -109 783 600 
Q 550 1309 550 2009 
Q 550 2706 781 3412 
Q 1013 4119 1484 4856 
L 1984 4856 
z
" transform="scale(0.015625)"/>
       <path id="DejaVuSans-73" d="M 2834 3397 
L 2834 2853 
Q 2591 2978 2328 3040 
Q 2066 3103 1784 3103 
Q 1356 3103 1142 2972 
Q 928 2841 928 2578 
Q 928 2378 1081 2264 
Q 1234 2150 1697 2047 
L 1894 2003 
Q 2506 1872 2764 1633 
Q 3022 1394 3022 966 
Q 3022 478 2636 193 
Q 2250 -91 1575 -91 
Q 1294 -91 989 -36 
Q 684 19 347 128 
L 347 722 
Q 666 556 975 473 
Q 1284 391 1588 391 
Q 1994 391 2212 530 
Q 2431 669 2431 922 
Q 2431 1156 2273 1281 
Q 2116 1406 1581 1522 
L 1381 1569 
Q 847 1681 609 1914 
Q 372 2147 372 2553 
Q 372 3047 722 3315 
Q 1072 3584 1716 3584 
Q 2034 3584 2315 3537 
Q 2597 3491 2834 3397 
z
" transform="scale(0.015625)"/>
       <path id="DejaVuSans-29" d="M 513 4856 
L 1013 4856 
Q 1481 4119 1714 3412 
Q 1947 2706 1947 2009 
Q 1947 1309 1714 600 
Q 1481 -109 1013 -844 
L 513 -844 
Q 928 -128 1133 580 
Q 1338 1288 1338 2009 
Q 1338 2731 1133 3434 
Q 928 4138 513 4856 
z
" transform="scale(0.015625)"/>
      </defs>
      <use xlink:href="#DejaVuSans-54"/>
      <use xlink:href="#DejaVuSans-69" transform="translate(57.958984 0)"/>
      <use xlink:href="#DejaVuSans-6d" transform="translate(85.742188 0)"/>
      <use xlink:href="#DejaVuSans-65" transform="translate(183.154297 0)"/>
      <use xlink:href="#DejaVuSans-20" transform="translate(244.677734 0)"/>
      <use xlink:href="#DejaVuSans-28" transform="translate(276.464844 0)"/>
      <use xlink:href="#DejaVuSans-73" transform="translate(315.478516 0)"/>
      <use xlink:href="#DejaVuSans-29" transform="translate(367.578125 0)"/>
     </g>
    </g>
   </g>
   <g id="matplotlib.axis_2">
    <g id="ytick_1">
     <g id="line2d_17">
      <path d="M 47.307188 367.741449 
L 705.637188 367.741449 
" clip-path="url(#pa7e716a4e6)" style="fill: none; stroke: #b0b0b0; stroke-opacity: 0.2; stroke-width: 0.6; stroke-linecap: square"/>
     </g>
     <g id="line2d_18">
      <defs>
       <path id="m2e5c170611" d="M 0 0 
L -3.5 0 
" style="stroke: #000000; stroke-width: 0.8"/>
      </defs>
      <g>
       <use xlink:href="#m2e5c170611" x="47.307188" y="367.741449" style="stroke: #000000; stroke-width: 0.8"/>
      </g>
     </g>
     <g id="text_10">
      <!-- 0.0 -->
      <g transform="translate(22.81375 371.920589) scale(0.11 -0.11)">
       <defs>
        <path id="DejaVuSans-2e" d="M 684 794 
L 1344 794 
L 1344 0 
L 684 0 
L 684 794 
z
" transform="scale(0.015625)"/>
       </defs>
       <use xlink:href="#DejaVuSans-30"/>
       <use xlink:href="#DejaVuSans-2e" transform="translate(63.623047 0)"/>
       <use xlink:href="#DejaVuSans-30" transform="translate(95.410156 0)"/>
      </g>
     </g>
    </g>
    <g id="ytick_2">
     <g id="line2d_19">
      <path d="M 47.307188 317.507205 
L 705.637188 317.507205 
" clip-path="url(#pa7e716a4e6)" style="fill: none; stroke: #b0b0b0; stroke-opacity: 0.2; stroke-width: 0.6; stroke-linecap: square"/>
     </g>
     <g id="line2d_20">
      <g>
       <use xlink:href="#m2e5c170611" x="47.307188" y="317.507205" style="stroke: #000000; stroke-width: 0.8"/>
      </g>
     </g>
     <g id="text_11">
      <!-- 0.5 -->
      <g transform="translate(22.81375 321.686345) scale(0.11 -0.11)">
       <use xlink:href="#DejaVuSans-30"/>
       <use xlink:href="#DejaVuSans-2e" transform="translate(63.623047 0)"/>
       <use xlink:href="#DejaVuSans-35" transform="translate(95.410156 0)"/>
      </g>
     </g>
    </g>
    <g id="ytick_3">
     <g id="line2d_21">
      <path d="M 47.307188 267.27296 
L 705.637188 267.27296 
" clip-path="url(#pa7e716a4e6)" style="fill: none; stroke: #b0b0b0; stroke-opacity: 0.2; stroke-width: 0.6; stroke-linecap: square"/>
     </g>
     <g id="line2d_22">
      <g>
       <use xlink:href="#m2e5c170611" x="47.307188" y="267.27296" style="stroke: #000000; stroke-width: 0.8"/>
      </g>
     </g>
     <g id="text_12">
      <!-- 1.0 -->
      <g transform="translate(22.81375 271.452101) scale(0.11 -0.11)">
       <use xlink:href="#DejaVuSans-31"/>
       <use xlink:href="#DejaVuSans-2e" transform="translate(63.623047 0)"/>
       <use xlink:href="#DejaVuSans-30" transform="translate(95.410156 0)"/>
      </g>
     </g>
    </g>
    <g id="ytick_4">
     <g id="line2d_23">
      <path d="M 47.307188 217.038716 
L 705.637188 217.038716 
" clip-path="url(#pa7e716a4e6)" style="fill: none; stroke: #b0b0b0; stroke-opacity: 0.2; stroke-width: 0.6; stroke-linecap: square"/>
     </g>
     <g id="line2d_24">
      <g>
       <use xlink:href="#m2e5c170611" x="47.307188" y="217.038716" style="stroke: #000000; stroke-width: 0.8"/>
      </g>
     </g>
     <g id="text_13">
      <!-- 1.5 -->
      <g transform="translate(22.81375 221.217857) scale(0.11 -0.11)">
       <use xlink:href="#DejaVuSans-31"/>
       <use xlink:href="#DejaVuSans-2e" transform="translate(63.623047 0)"/>
       <use xlink:href="#DejaVuSans-35" transform="translate(95.410156 0)"/>
      </g>
     </g>
    </g>
    <g id="ytick_5">
     <g id="line2d_25">
      <path d="M 47.307188 166.804472 
L 705.637188 166.804472 
" clip-path="url(#pa7e716a4e6)" style="fill: none; stroke: #b0b0b0; stroke-opacity: 0.2; stroke-width: 0.6; stroke-linecap: square"/>
     </g>
     <g id="line2d_26">
      <g>
       <use xlink:href="#m2e5c170611" x="47.307188" y="166.804472" style="stroke: #000000; stroke-width: 0.8"/>
      </g>
     </g>
     <g id="text_14">
      <!-- 2.0 -->
      <g transform="translate(22.81375 170.983612) scale(0.11 -0.11)">
       <use xlink:href="#DejaVuSans-32"/>
       <use xlink:href="#DejaVuSans-2e" transform="translate(63.623047 0)"/>
       <use xlink:href="#DejaVuSans-30" transform="translate(95.410156 0)"/>
      </g>
     </g>
    </g>
    <g id="ytick_6">
     <g id="line2d_27">
      <path d="M 47.307188 116.570227 
L 705.637188 116.570227 
" clip-path="url(#pa7e716a4e6)" style="fill: none; stroke: #b0b0b0; stroke-opacity: 0.2; stroke-width: 0.6; stroke-linecap: square"/>
     </g>
     <g id="line2d_28">
      <g>
       <use xlink:href="#m2e5c170611" x="47.307188" y="116.570227" style="stroke: #000000; stroke-width: 0.8"/>
      </g>
     </g>
     <g id="text_15">
      <!-- 2.5 -->
      <g transform="translate(22.81375 120.749368) scale(0.11 -0.11)">
       <use xlink:href="#DejaVuSans-32"/>
       <use xlink:href="#DejaVuSans-2e" transform="translate(63.623047 0)"/>
       <use xlink:href="#DejaVuSans-35" transform="translate(95.410156 0)"/>
      </g>
     </g>
    </g>
    <g id="ytick_7">
     <g id="line2d_29">
      <path d="M 47.307188 66.335983 
L 705.637188 66.335983 
" clip-path="url(#pa7e716a4e6)" style="fill: none; stroke: #b0b0b0; stroke-opacity: 0.2; stroke-width: 0.6; stroke-linecap: square"/>
     </g>
     <g id="line2d_30">
      <g>
       <use xlink:href="#m2e5c170611" x="47.307188" y="66.335983" style="stroke: #000000; stroke-width: 0.8"/>
      </g>
     </g>
     <g id="text_16">
      <!-- 3.0 -->
      <g transform="translate(22.81375 70.515124) scale(0.11 -0.11)">
       <defs>
        <path id="DejaVuSans-33" d="M 2597 2516 
Q 3050 2419 3304 2112 
Q 3559 1806 3559 1356 
Q 3559 666 3084 287 
Q 2609 -91 1734 -91 
Q 1441 -91 1130 -33 
Q 819 25 488 141 
L 488 750 
Q 750 597 1062 519 
Q 1375 441 1716 441 
Q 2309 441 2620 675 
Q 2931 909 2931 1356 
Q 2931 1769 2642 2001 
Q 2353 2234 1838 2234 
L 1294 2234 
L 1294 2753 
L 1863 2753 
Q 2328 2753 2575 2939 
Q 2822 3125 2822 3475 
Q 2822 3834 2567 4026 
Q 2313 4219 1838 4219 
Q 1578 4219 1281 4162 
Q 984 4106 628 3988 
L 628 4550 
Q 988 4650 1302 4700 
Q 1616 4750 1894 4750 
Q 2613 4750 3031 4423 
Q 3450 4097 3450 3541 
Q 3450 3153 3228 2886 
Q 3006 2619 2597 2516 
z
" transform="scale(0.015625)"/>
       </defs>
       <use xlink:href="#DejaVuSans-33"/>
       <use xlink:href="#DejaVuSans-2e" transform="translate(63.623047 0)"/>
       <use xlink:href="#DejaVuSans-30" transform="translate(95.410156 0)"/>
      </g>
     </g>
    </g>
    <g id="text_17">
     <!-- AU mean intensity -->
     <g transform="translate(16.318125 259.314687) rotate(-90) scale(0.12 -0.12)">
      <defs>
       <path id="DejaVuSans-41" d="M 2188 4044 
L 1331 1722 
L 3047 1722 
L 2188 4044 
z
M 1831 4666 
L 2547 4666 
L 4325 0 
L 3669 0 
L 3244 1197 
L 1141 1197 
L 716 0 
L 50 0 
L 1831 4666 
z
" transform="scale(0.015625)"/>
       <path id="DejaVuSans-55" d="M 556 4666 
L 1191 4666 
L 1191 1831 
Q 1191 1081 1462 751 
Q 1734 422 2344 422 
Q 2950 422 3222 751 
Q 3494 1081 3494 1831 
L 3494 4666 
L 4128 4666 
L 4128 1753 
Q 4128 841 3676 375 
Q 3225 -91 2344 -91 
Q 1459 -91 1007 375 
Q 556 841 556 1753 
L 556 4666 
z
" transform="scale(0.015625)"/>
       <path id="DejaVuSans-61" d="M 2194 1759 
Q 1497 1759 1228 1600 
Q 959 1441 959 1056 
Q 959 750 1161 570 
Q 1363 391 1709 391 
Q 2188 391 2477 730 
Q 2766 1069 2766 1631 
L 2766 1759 
L 2194 1759 
z
M 3341 1997 
L 3341 0 
L 2766 0 
L 2766 531 
Q 2569 213 2275 61 
Q 1981 -91 1556 -91 
Q 1019 -91 701 211 
Q 384 513 384 1019 
Q 384 1609 779 1909 
Q 1175 2209 1959 2209 
L 2766 2209 
L 2766 2266 
Q 2766 2663 2505 2880 
Q 2244 3097 1772 3097 
Q 1472 3097 1187 3025 
Q 903 2953 641 2809 
L 641 3341 
Q 956 3463 1253 3523 
Q 1550 3584 1831 3584 
Q 2591 3584 2966 3190 
Q 3341 2797 3341 1997 
z
" transform="scale(0.015625)"/>
       <path id="DejaVuSans-6e" d="M 3513 2113 
L 3513 0 
L 2938 0 
L 2938 2094 
Q 2938 2591 2744 2837 
Q 2550 3084 2163 3084 
Q 1697 3084 1428 2787 
Q 1159 2491 1159 1978 
L 1159 0 
L 581 0 
L 581 3500 
L 1159 3500 
L 1159 2956 
Q 1366 3272 1645 3428 
Q 1925 3584 2291 3584 
Q 2894 3584 3203 3211 
Q 3513 2838 3513 2113 
z
" transform="scale(0.015625)"/>
       <path id="DejaVuSans-74" d="M 1172 4494 
L 1172 3500 
L 2356 3500 
L 2356 3053 
L 1172 3053 
L 1172 1153 
Q 1172 725 1289 603 
Q 1406 481 1766 481 
L 2356 481 
L 2356 0 
L 1766 0 
Q 1100 0 847 248 
Q 594 497 594 1153 
L 594 3053 
L 172 3053 
L 172 3500 
L 594 3500 
L 594 4494 
L 1172 4494 
z
" transform="scale(0.015625)"/>
       <path id="DejaVuSans-79" d="M 2059 -325 
Q 1816 -950 1584 -1140 
Q 1353 -1331 966 -1331 
L 506 -1331 
L 506 -850 
L 844 -850 
Q 1081 -850 1212 -737 
Q 1344 -625 1503 -206 
L 1606 56 
L 191 3500 
L 800 3500 
L 1894 763 
L 2988 3500 
L 3597 3500 
L 2059 -325 
z
" transform="scale(0.015625)"/>
      </defs>
      <use xlink:href="#DejaVuSans-41"/>
      <use xlink:href="#DejaVuSans-55" transform="translate(68.408203 0)"/>
      <use xlink:href="#DejaVuSans-20" transform="translate(141.601562 0)"/>
      <use xlink:href="#DejaVuSans-6d" transform="translate(173.388672 0)"/>
      <use xlink:href="#DejaVuSans-65" transform="translate(270.800781 0)"/>
      <use xlink:href="#DejaVuSans-61" transform="translate(332.324219 0)"/>
      <use xlink:href="#DejaVuSans-6e" transform="translate(393.603516 0)"/>
      <use xlink:href="#DejaVuSans-20" transform="translate(456.982422 0)"/>
      <use xlink:href="#DejaVuSans-69" transform="translate(488.769531 0)"/>
      <use xlink:href="#DejaVuSans-6e" transform="translate(516.552734 0)"/>
      <use xlink:href="#DejaVuSans-74" transform="translate(579.931641 0)"/>
      <use xlink:href="#DejaVuSans-65" transform="translate(619.140625 0)"/>
      <use xlink:href="#DejaVuSans-6e" transform="translate(680.664062 0)"/>
      <use xlink:href="#DejaVuSans-73" transform="translate(744.042969 0)"/>
      <use xlink:href="#DejaVuSans-69" transform="translate(796.142578 0)"/>
      <use xlink:href="#DejaVuSans-74" transform="translate(823.925781 0)"/>
      <use xlink:href="#DejaVuSans-79" transform="translate(863.134766 0)"/>
     </g>
    </g>
   </g>
   <g id="FillBetweenPolyCollection_1">
    <defs>
     <path id="me73a01385c" d="M 47.307188 -126.117 
L 47.307188 -43.802681 
L 50.790415 -41.427874 
L 54.273643 -34.328835 
L 57.75687 -33.895821 
L 61.240098 -41.770632 
L 64.723325 -36.338207 
L 68.206553 -38.515342 
L 71.68978 -41.215588 
L 75.173008 -42.633472 
L 78.656235 -41.112041 
L 82.139463 -40.224531 
L 85.62269 -33.917957 
L 89.105918 -29.409197 
L 92.589145 -41.145982 
L 96.072373 -39.547424 
L 99.5556 -41.301824 
L 103.038828 -42.893464 
L 106.522055 -37.490416 
L 110.005283 -41.823085 
L 113.48851 -39.834571 
L 116.971738 -38.433494 
L 120.454965 -36.669115 
L 123.938193 -34.014802 
L 127.42142 -33.874151 
L 130.904648 -32.74066 
L 134.387875 -35.373133 
L 137.871103 -39.773835 
L 141.35433 -40.311744 
L 144.837558 -41.83102 
L 148.320785 -46.547329 
L 151.804013 -47.171553 
L 155.28724 -42.238245 
L 158.770468 -39.53313 
L 162.253695 -47.842944 
L 165.736923 -46.782806 
L 169.22015 -39.335138 
L 172.703378 -44.886092 
L 176.186605 -44.573899 
L 179.669833 -39.349902 
L 183.153061 -40.22877 
L 186.636288 -38.156839 
L 190.119516 -30.894726 
L 193.602743 -29.386293 
L 197.085971 -26.682676 
L 200.569198 -24.056513 
L 204.052426 -40.216447 
L 207.535653 -33.732656 
L 211.018881 -33.771848 
L 214.502108 -40.961477 
L 217.985336 -47.449432 
L 221.468563 -39.754587 
L 224.951791 -43.361347 
L 228.435018 -43.806806 
L 231.918246 -41.847398 
L 235.401473 -38.221396 
L 238.884701 -44.18217 
L 242.367928 -32.752494 
L 245.851156 -39.979849 
L 249.334383 -36.111227 
L 252.817611 -46.247697 
L 256.300838 -48.345125 
L 259.784066 -43.940206 
L 263.267293 -41.819815 
L 266.750521 -48.064475 
L 270.233748 -45.571948 
L 273.716976 -41.209782 
L 277.200203 -35.115595 
L 280.683431 -19.493368 
L 284.166658 -18.635914 
L 287.649886 -23.905733 
L 291.133113 -10.158276 
L 294.616341 -8.801946 
L 298.099568 -33.544431 
L 301.582796 -27.099447 
L 305.066023 -50.958308 
L 308.549251 -38.988476 
L 312.032479 -36.246443 
L 315.515706 -31.868015 
L 318.998934 -24.812647 
L 322.482161 -30.279225 
L 325.965389 -28.373919 
L 329.448616 -28.138088 
L 332.931844 -41.419518 
L 336.415071 -41.22213 
L 339.898299 -37.889528 
L 343.381526 -42.432572 
L 346.864754 -45.909188 
L 350.347981 -47.387363 
L 353.831209 -42.368952 
L 357.314436 -20.418397 
L 360.797664 -26.005118 
L 364.280891 -44.349854 
L 367.764119 -47.572694 
L 371.247346 -42.033308 
L 374.730574 -43.506724 
L 378.213801 -46.98955 
L 381.697029 -47.973744 
L 385.180256 -40.125674 
L 388.663484 -41.515667 
L 392.146711 -42.811271 
L 395.629939 -48.337968 
L 399.113166 -43.39779 
L 402.596394 -40.110249 
L 406.079621 -43.255733 
L 409.562849 -43.172899 
L 413.046076 -40.879559 
L 416.529304 -37.628888 
L 420.012531 -18.722213 
L 423.495759 -35.86015 
L 426.978986 -37.494844 
L 430.462214 -42.871933 
L 433.945441 -36.58043 
L 437.428669 -32.08827 
L 440.911896 -40.532655 
L 444.395124 -50.192215 
L 447.878352 -42.889893 
L 451.361579 -42.984523 
L 454.844807 -40.905517 
L 458.328034 -45.132878 
L 461.811262 -45.583281 
L 465.294489 -50.174474 
L 468.777717 -48.182311 
L 472.260944 -21.248771 
L 475.744172 -31.831726 
L 479.227399 -29.771796 
L 482.710627 -38.119287 
L 486.193854 -35.415304 
L 489.677082 -46.372575 
L 493.160309 -45.117364 
L 496.643537 -49.489714 
L 500.126764 -25.947417 
L 503.609992 -28.534942 
L 507.093219 -26.322689 
L 510.576447 -17.004694 
L 514.059674 -17.144323 
L 517.542902 -15.884874 
L 521.026129 -20.33225 
L 524.509357 -24.569531 
L 527.992584 -23.554526 
L 531.475812 -40.070301 
L 534.959039 -40.03836 
L 538.442267 -44.552467 
L 541.925494 -46.965775 
L 545.408722 -49.281002 
L 548.891949 -52.120429 
L 552.375177 -39.999358 
L 555.858404 -43.883819 
L 559.341632 -45.331992 
L 562.824859 -47.810923 
L 566.308087 -48.39145 
L 569.791314 -51.758357 
L 573.274542 -49.14499 
L 576.75777 -54.104723 
L 580.240997 -50.865751 
L 583.724225 -47.753524 
L 587.207452 -51.603286 
L 590.69068 -36.197223 
L 594.173907 -42.257738 
L 597.657135 -53.243901 
L 601.140362 -53.826853 
L 604.62359 -49.659571 
L 608.106817 -46.812463 
L 611.590045 -48.515652 
L 615.073272 -44.463709 
L 618.5565 -45.442222 
L 622.039727 -44.61949 
L 625.522955 -49.962216 
L 629.006182 -45.534388 
L 632.48941 -50.281516 
L 635.972637 -51.782661 
L 639.455865 -54.825043 
L 642.939092 -43.341692 
L 646.42232 -51.670368 
L 649.905547 -56.507964 
L 653.388775 -49.243925 
L 656.872002 -53.052893 
L 660.35523 -54.827553 
L 663.838457 -43.557949 
L 667.321685 -33.246906 
L 670.804912 -47.439829 
L 674.28814 -50.259965 
L 677.771367 -52.221921 
L 681.254595 -40.413273 
L 684.737822 -37.219762 
L 688.22105 -38.310963 
L 691.704277 -52.085995 
L 695.187505 -59.392494 
L 698.670732 -59.606694 
L 702.15396 -68.685475 
L 705.637188 -57.82458 
L 705.637188 -145.95961 
L 705.637188 -145.95961 
L 702.15396 -133.309772 
L 698.670732 -144.404768 
L 695.187505 -134.619965 
L 691.704277 -154.595324 
L 688.22105 -178.472646 
L 684.737822 -179.978698 
L 681.254595 -171.058325 
L 677.771367 -148.893429 
L 674.28814 -148.973352 
L 670.804912 -152.311147 
L 667.321685 -163.609101 
L 663.838457 -156.60774 
L 660.35523 -139.963798 
L 656.872002 -137.806724 
L 653.388775 -134.897194 
L 649.905547 -131.930628 
L 646.42232 -143.765354 
L 642.939092 -153.934254 
L 639.455865 -131.686714 
L 635.972637 -133.355551 
L 632.48941 -149.527541 
L 629.006182 -149.763776 
L 625.522955 -149.623789 
L 622.039727 -168.711036 
L 618.5565 -167.38103 
L 615.073272 -177.090763 
L 611.590045 -168.380674 
L 608.106817 -160.721254 
L 604.62359 -162.137073 
L 601.140362 -158.34105 
L 597.657135 -150.924192 
L 594.173907 -157.01535 
L 590.69068 -163.973101 
L 587.207452 -140.536133 
L 583.724225 -147.058798 
L 580.240997 -131.981861 
L 576.75777 -123.741376 
L 573.274542 -126.448716 
L 569.791314 -125.059239 
L 566.308087 -130.75024 
L 562.824859 -130.241082 
L 559.341632 -136.105392 
L 555.858404 -139.00764 
L 552.375177 -147.497723 
L 548.891949 -137.002173 
L 545.408722 -137.654638 
L 541.925494 -138.938786 
L 538.442267 -146.101322 
L 534.959039 -152.815112 
L 531.475812 -160.910548 
L 527.992584 -195.104287 
L 524.509357 -200.488092 
L 521.026129 -194.263023 
L 517.542902 -193.838568 
L 514.059674 -184.206076 
L 510.576447 -192.324414 
L 507.093219 -191.209428 
L 503.609992 -182.79946 
L 500.126764 -177.964262 
L 496.643537 -139.97496 
L 493.160309 -151.152805 
L 489.677082 -163.707163 
L 486.193854 -187.830988 
L 482.710627 -180.039022 
L 479.227399 -186.392683 
L 475.744172 -185.261757 
L 472.260944 -185.467992 
L 468.777717 -138.679381 
L 465.294489 -150.312856 
L 461.811262 -150.018768 
L 458.328034 -149.122115 
L 454.844807 -155.00636 
L 451.361579 -158.599442 
L 447.878352 -153.662696 
L 444.395124 -148.233478 
L 440.911896 -166.277346 
L 437.428669 -187.544212 
L 433.945441 -184.980992 
L 430.462214 -176.022037 
L 426.978986 -166.680115 
L 423.495759 -172.150701 
L 420.012531 -202.496293 
L 416.529304 -149.580728 
L 413.046076 -149.369184 
L 409.562849 -136.882934 
L 406.079621 -142.088905 
L 402.596394 -146.571859 
L 399.113166 -156.121728 
L 395.629939 -141.794719 
L 392.146711 -150.872652 
L 388.663484 -151.047429 
L 385.180256 -152.225688 
L 381.697029 -133.774954 
L 378.213801 -138.451344 
L 374.730574 -140.15649 
L 371.247346 -155.58426 
L 367.764119 -143.168805 
L 364.280891 -137.458333 
L 360.797664 -157.386114 
L 357.314436 -161.543199 
L 353.831209 -135.342617 
L 350.347981 -129.238976 
L 346.864754 -128.312117 
L 343.381526 -134.160679 
L 339.898299 -138.542471 
L 336.415071 -135.882488 
L 332.931844 -141.557452 
L 329.448616 -166.993704 
L 325.965389 -161.890403 
L 322.482161 -161.004283 
L 318.998934 -160.317909 
L 315.515706 -145.473234 
L 312.032479 -140.042306 
L 308.549251 -131.995786 
L 305.066023 -123.807927 
L 301.582796 -158.678348 
L 298.099568 -155.680362 
L 294.616341 -196.363661 
L 291.133113 -212.442768 
L 287.649886 -202.492615 
L 284.166658 -186.517115 
L 280.683431 -178.989016 
L 277.200203 -150.250402 
L 273.716976 -135.701425 
L 270.233748 -125.408181 
L 266.750521 -124.556952 
L 263.267293 -134.530707 
L 259.784066 -124.23656 
L 256.300838 -120.705704 
L 252.817611 -124.114718 
L 249.334383 -140.322225 
L 245.851156 -145.974541 
L 242.367928 -166.866873 
L 238.884701 -143.46164 
L 235.401473 -141.993445 
L 231.918246 -140.108632 
L 228.435018 -135.411929 
L 224.951791 -144.722649 
L 221.468563 -148.810387 
L 217.985336 -140.073124 
L 214.502108 -160.393688 
L 211.018881 -157.021537 
L 207.535653 -172.047317 
L 204.052426 -158.314846 
L 200.569198 -177.438774 
L 197.085971 -161.548049 
L 193.602743 -156.348596 
L 190.119516 -144.404503 
L 186.636288 -128.395622 
L 183.153061 -125.959006 
L 179.669833 -124.337206 
L 176.186605 -116.471236 
L 172.703378 -116.486618 
L 169.22015 -119.333805 
L 165.736923 -115.675612 
L 162.253695 -115.570231 
L 158.770468 -130.581483 
L 155.28724 -131.378697 
L 151.804013 -122.513162 
L 148.320785 -120.822429 
L 144.837558 -121.147851 
L 141.35433 -120.914764 
L 137.871103 -119.064575 
L 134.387875 -131.201844 
L 130.904648 -138.119364 
L 127.42142 -125.193201 
L 123.938193 -125.59542 
L 120.454965 -124.997579 
L 116.971738 -120.201594 
L 113.48851 -118.883281 
L 110.005283 -116.620407 
L 106.522055 -126.509674 
L 103.038828 -119.958631 
L 99.5556 -123.483877 
L 96.072373 -123.583962 
L 92.589145 -119.934815 
L 89.105918 -143.520249 
L 85.62269 -134.740773 
L 82.139463 -125.870389 
L 78.656235 -127.657755 
L 75.173008 -122.316641 
L 71.68978 -120.016014 
L 68.206553 -131.523967 
L 64.723325 -139.425663 
L 61.240098 -128.862528 
L 57.75687 -150.829715 
L 54.273643 -147.955429 
L 50.790415 -122.710794 
L 47.307188 -126.117 
z
" style="stroke: #d3d3d3; stroke-opacity: 0.5"/>
    </defs>
    <g clip-path="url(#pa7e716a4e6)">
     <use xlink:href="#me73a01385c" x="0" y="424.5775" style="fill: #d3d3d3; fill-opacity: 0.5; stroke: #d3d3d3; stroke-opacity: 0.5"/>
    </g>
   </g>
   <g id="FillBetweenPolyCollection_2">
    <defs>
     <path id="m70a27e386f" d="M 47.307188 -105.53842 
L 47.307188 -64.381261 
L 50.790415 -61.748604 
L 54.273643 -62.735483 
L 57.75687 -63.129295 
L 61.240098 -63.543606 
L 64.723325 -62.110071 
L 68.206553 -61.767499 
L 71.68978 -60.915695 
L 75.173008 -62.554264 
L 78.656235 -62.74847 
L 82.139463 -61.635995 
L 85.62269 -59.123661 
L 89.105918 -57.93696 
L 92.589145 -60.843191 
L 96.072373 -60.556558 
L 99.5556 -61.847337 
L 103.038828 -62.159756 
L 106.522055 -59.74523 
L 110.005283 -60.522415 
L 113.48851 -59.596749 
L 116.971738 -58.875519 
L 120.454965 -58.751231 
L 123.938193 -56.909957 
L 127.42142 -56.703914 
L 130.904648 -59.085336 
L 134.387875 -59.330311 
L 137.871103 -59.59652 
L 141.35433 -60.462499 
L 144.837558 -61.660228 
L 148.320785 -65.116104 
L 151.804013 -66.006955 
L 155.28724 -64.523358 
L 158.770468 -62.295218 
L 162.253695 -64.774766 
L 165.736923 -64.006008 
L 169.22015 -59.334805 
L 172.703378 -62.786224 
L 176.186605 -62.548233 
L 179.669833 -60.596728 
L 183.153061 -61.661329 
L 186.636288 -60.716535 
L 190.119516 -59.27217 
L 193.602743 -61.126869 
L 197.085971 -60.399019 
L 200.569198 -62.402079 
L 204.052426 -69.741047 
L 207.535653 -68.311321 
L 211.018881 -64.58427 
L 214.502108 -70.81953 
L 217.985336 -70.605355 
L 221.468563 -67.018537 
L 224.951791 -68.701673 
L 228.435018 -66.708087 
L 231.918246 -66.412707 
L 235.401473 -64.164408 
L 238.884701 -69.002037 
L 242.367928 -66.281089 
L 245.851156 -66.478522 
L 249.334383 -62.163976 
L 252.817611 -65.714452 
L 256.300838 -66.43527 
L 259.784066 -64.014295 
L 263.267293 -64.997538 
L 266.750521 -67.187594 
L 270.233748 -65.531006 
L 273.716976 -64.832693 
L 277.200203 -63.899296 
L 280.683431 -59.36728 
L 284.166658 -60.606214 
L 287.649886 -68.552454 
L 291.133113 -60.729399 
L 294.616341 -55.692374 
L 298.099568 -64.078414 
L 301.582796 -59.994172 
L 305.066023 -69.170713 
L 308.549251 -62.240303 
L 312.032479 -62.195409 
L 315.515706 -60.26932 
L 318.998934 -58.688963 
L 322.482161 -62.96049 
L 325.965389 -61.75304 
L 329.448616 -62.851992 
L 332.931844 -66.454001 
L 336.415071 -64.887219 
L 339.898299 -63.052764 
L 343.381526 -65.364598 
L 346.864754 -66.50992 
L 350.347981 -67.850266 
L 353.831209 -65.612368 
L 357.314436 -55.699598 
L 360.797664 -58.850367 
L 364.280891 -67.626974 
L 367.764119 -71.471722 
L 371.247346 -70.421046 
L 374.730574 -67.669165 
L 378.213801 -69.854999 
L 381.697029 -69.424047 
L 385.180256 -68.150678 
L 388.663484 -68.898607 
L 392.146711 -69.826616 
L 395.629939 -71.702156 
L 399.113166 -71.578775 
L 402.596394 -66.725651 
L 406.079621 -67.964026 
L 409.562849 -66.600408 
L 413.046076 -68.001965 
L 416.529304 -65.616848 
L 420.012531 -64.665733 
L 423.495759 -69.932788 
L 426.978986 -69.791162 
L 430.462214 -76.159459 
L 433.945441 -73.68057 
L 437.428669 -70.952255 
L 440.911896 -71.968827 
L 444.395124 -74.702531 
L 447.878352 -70.583094 
L 451.361579 -71.888253 
L 454.844807 -69.430728 
L 458.328034 -71.130187 
L 461.811262 -71.692153 
L 465.294489 -75.209069 
L 468.777717 -70.806578 
L 472.260944 -62.303576 
L 475.744172 -70.189233 
L 479.227399 -68.927018 
L 482.710627 -73.599221 
L 486.193854 -73.519225 
L 489.677082 -75.706222 
L 493.160309 -71.626225 
L 496.643537 -72.111026 
L 500.126764 -63.951628 
L 503.609992 -67.101072 
L 507.093219 -67.544374 
L 510.576447 -60.834624 
L 514.059674 -58.909762 
L 517.542902 -60.373298 
L 521.026129 -63.814943 
L 524.509357 -68.549171 
L 527.992584 -66.441967 
L 531.475812 -70.280363 
L 534.959039 -68.232548 
L 538.442267 -69.939681 
L 541.925494 -69.959028 
L 545.408722 -71.374411 
L 548.891949 -73.340865 
L 552.375177 -66.873949 
L 555.858404 -67.664774 
L 559.341632 -68.025342 
L 562.824859 -68.418463 
L 566.308087 -68.981147 
L 569.791314 -70.083577 
L 573.274542 -68.470921 
L 576.75777 -71.513887 
L 580.240997 -71.144778 
L 583.724225 -72.579843 
L 587.207452 -73.836497 
L 590.69068 -68.141192 
L 594.173907 -70.947141 
L 597.657135 -77.663974 
L 601.140362 -79.955402 
L 604.62359 -77.778946 
L 608.106817 -75.289661 
L 611.590045 -78.481907 
L 615.073272 -77.620473 
L 618.5565 -75.926924 
L 622.039727 -75.642376 
L 625.522955 -74.877609 
L 629.006182 -71.591735 
L 632.48941 -75.093022 
L 635.972637 -72.175883 
L 639.455865 -74.040461 
L 642.939092 -70.989833 
L 646.42232 -74.694115 
L 649.905547 -75.36363 
L 653.388775 -70.657243 
L 656.872002 -74.241351 
L 660.35523 -76.111614 
L 663.838457 -71.820397 
L 667.321685 -65.837455 
L 670.804912 -73.657659 
L 674.28814 -74.938312 
L 677.771367 -76.389798 
L 681.254595 -73.074536 
L 684.737822 -72.909496 
L 688.22105 -73.351383 
L 691.704277 -77.713327 
L 695.187505 -78.199361 
L 698.670732 -80.806212 
L 702.15396 -84.841549 
L 705.637188 -79.858338 
L 705.637188 -123.925853 
L 705.637188 -123.925853 
L 702.15396 -117.153698 
L 698.670732 -123.205249 
L 695.187505 -115.813097 
L 691.704277 -128.967991 
L 688.22105 -143.432225 
L 684.737822 -144.288964 
L 681.254595 -138.397062 
L 677.771367 -124.725552 
L 674.28814 -124.295005 
L 670.804912 -126.093318 
L 667.321685 -131.018552 
L 663.838457 -128.345292 
L 660.35523 -118.679737 
L 656.872002 -116.618266 
L 653.388775 -113.483877 
L 649.905547 -113.074962 
L 646.42232 -120.741608 
L 642.939092 -126.286114 
L 639.455865 -112.471296 
L 635.972637 -112.962328 
L 632.48941 -124.716035 
L 629.006182 -123.706429 
L 625.522955 -124.708396 
L 622.039727 -137.688149 
L 618.5565 -136.896328 
L 615.073272 -143.934 
L 611.590045 -138.414418 
L 608.106817 -132.244057 
L 604.62359 -134.017697 
L 601.140362 -132.212501 
L 597.657135 -126.504119 
L 594.173907 -128.325947 
L 590.69068 -132.029131 
L 587.207452 -118.302921 
L 583.724225 -122.232479 
L 580.240997 -111.702833 
L 576.75777 -106.332213 
L 573.274542 -107.122784 
L 569.791314 -106.734019 
L 566.308087 -110.160542 
L 562.824859 -109.633542 
L 559.341632 -113.412042 
L 555.858404 -115.226685 
L 552.375177 -120.623132 
L 548.891949 -115.781737 
L 545.408722 -115.561229 
L 541.925494 -115.945533 
L 538.442267 -120.714108 
L 534.959039 -124.620924 
L 531.475812 -130.700486 
L 527.992584 -152.216847 
L 524.509357 -156.508452 
L 521.026129 -150.780329 
L 517.542902 -149.350144 
L 514.059674 -142.440638 
L 510.576447 -148.494484 
L 507.093219 -149.987743 
L 503.609992 -144.23333 
L 500.126764 -139.96005 
L 496.643537 -117.353649 
L 493.160309 -124.643945 
L 489.677082 -134.373516 
L 486.193854 -149.727067 
L 482.710627 -144.559088 
L 479.227399 -147.237461 
L 475.744172 -146.904249 
L 472.260944 -144.413187 
L 468.777717 -116.055113 
L 465.294489 -125.27826 
L 461.811262 -123.909896 
L 458.328034 -123.124806 
L 454.844807 -126.481149 
L 451.361579 -129.695712 
L 447.878352 -125.969495 
L 444.395124 -123.723162 
L 440.911896 -134.841173 
L 437.428669 -148.680226 
L 433.945441 -147.880852 
L 430.462214 -142.734511 
L 426.978986 -134.383797 
L 423.495759 -138.078064 
L 420.012531 -156.552773 
L 416.529304 -121.592768 
L 413.046076 -122.246778 
L 409.562849 -113.455426 
L 406.079621 -117.380612 
L 402.596394 -119.956456 
L 399.113166 -127.940743 
L 395.629939 -118.430531 
L 392.146711 -123.857307 
L 388.663484 -123.664488 
L 385.180256 -124.200684 
L 381.697029 -112.324652 
L 378.213801 -115.585896 
L 374.730574 -115.994048 
L 371.247346 -127.196522 
L 367.764119 -119.269777 
L 364.280891 -114.181213 
L 360.797664 -124.540865 
L 357.314436 -126.261999 
L 353.831209 -112.099201 
L 350.347981 -108.776073 
L 346.864754 -107.711385 
L 343.381526 -111.228652 
L 339.898299 -113.379235 
L 336.415071 -112.217398 
L 332.931844 -116.522968 
L 329.448616 -132.2798 
L 325.965389 -128.511282 
L 322.482161 -128.323019 
L 318.998934 -126.441594 
L 315.515706 -117.071929 
L 312.032479 -114.09334 
L 308.549251 -108.743958 
L 305.066023 -105.595522 
L 301.582796 -125.783623 
L 298.099568 -125.146379 
L 294.616341 -149.473232 
L 291.133113 -161.871645 
L 287.649886 -157.845895 
L 284.166658 -144.546815 
L 280.683431 -139.115104 
L 277.200203 -121.4667 
L 273.716976 -112.078515 
L 270.233748 -105.449123 
L 266.750521 -105.433833 
L 263.267293 -111.352984 
L 259.784066 -104.162472 
L 256.300838 -102.615559 
L 252.817611 -104.647963 
L 249.334383 -114.269475 
L 245.851156 -119.475868 
L 242.367928 -133.338278 
L 238.884701 -118.641773 
L 235.401473 -116.050433 
L 231.918246 -115.543324 
L 228.435018 -112.510649 
L 224.951791 -119.382324 
L 221.468563 -121.546437 
L 217.985336 -116.917201 
L 214.502108 -130.535636 
L 211.018881 -126.209115 
L 207.535653 -137.468652 
L 204.052426 -128.790246 
L 200.569198 -139.093209 
L 197.085971 -127.831706 
L 193.602743 -124.608021 
L 190.119516 -116.027059 
L 186.636288 -105.835927 
L 183.153061 -104.526447 
L 179.669833 -103.09038 
L 176.186605 -98.496901 
L 172.703378 -98.586487 
L 169.22015 -99.334138 
L 165.736923 -98.452411 
L 162.253695 -98.638409 
L 158.770468 -107.819395 
L 155.28724 -109.093584 
L 151.804013 -103.677759 
L 148.320785 -102.253654 
L 144.837558 -101.318644 
L 141.35433 -100.764009 
L 137.871103 -99.24189 
L 134.387875 -107.244667 
L 130.904648 -111.774688 
L 127.42142 -102.363438 
L 123.938193 -102.700266 
L 120.454965 -102.915463 
L 116.971738 -99.759569 
L 113.48851 -99.121103 
L 110.005283 -97.921076 
L 106.522055 -104.25486 
L 103.038828 -100.692339 
L 99.5556 -102.938364 
L 96.072373 -102.574827 
L 92.589145 -100.237607 
L 89.105918 -114.992486 
L 85.62269 -109.535069 
L 82.139463 -104.458925 
L 78.656235 -106.021326 
L 75.173008 -102.395849 
L 71.68978 -100.315908 
L 68.206553 -108.271811 
L 64.723325 -113.653799 
L 61.240098 -107.089554 
L 57.75687 -121.596242 
L 54.273643 -119.54878 
L 50.790415 -102.390064 
L 47.307188 -105.53842 
z
" style="stroke: #808080; stroke-opacity: 0.7"/>
    </defs>
    <g clip-path="url(#pa7e716a4e6)">
     <use xlink:href="#m70a27e386f" x="0" y="424.5775" style="fill: #808080; fill-opacity: 0.7; stroke: #808080; stroke-opacity: 0.7"/>
    </g>
   </g>
   <g id="line2d_31">
    <path d="M 47.307188 355.82363 
L 50.790415 363.136168 
L 54.273643 362.909755 
L 57.75687 357.809012 
L 61.240098 363.701011 
L 64.723325 363.343798 
L 68.206553 364.405351 
L 71.68978 364.086599 
L 75.173008 362.415491 
L 78.656235 361.268669 
L 82.139463 358.469498 
L 85.62269 356.628833 
L 89.105918 357.97967 
L 92.589145 356.734981 
L 96.072373 358.654783 
L 99.5556 363.546586 
L 103.038828 361.568019 
L 106.522055 361.794352 
L 110.005283 357.62703 
L 113.48851 356.56637 
L 116.971738 361.116365 
L 120.454965 359.902798 
L 123.938193 360.147669 
L 127.42142 363.139036 
L 130.904648 360.500895 
L 134.387875 361.859469 
L 137.871103 361.660729 
L 141.35433 363.913529 
L 144.837558 363.284624 
L 148.320785 349.594949 
L 151.804013 332.510842 
L 155.28724 337.649061 
L 158.770468 338.420844 
L 162.253695 342.527068 
L 165.736923 339.391937 
L 169.22015 344.285478 
L 172.703378 351.535091 
L 176.186605 345.751826 
L 179.669833 348.705629 
L 183.153061 338.395496 
L 186.636288 354.575251 
L 190.119516 357.76589 
L 193.602743 350.915405 
L 197.085971 359.558511 
L 200.569198 361.813933 
L 204.052426 355.101898 
L 207.535653 360.256598 
L 211.018881 356.202884 
L 214.502108 359.394319 
L 217.985336 357.435277 
L 221.468563 358.75519 
L 224.951791 364.375615 
L 228.435018 358.731936 
L 231.918246 364.063835 
L 235.401473 362.665802 
L 238.884701 351.875699 
L 242.367928 349.510176 
L 245.851156 347.340802 
L 249.334383 354.924523 
L 252.817611 351.484164 
L 256.300838 356.753995 
L 259.784066 352.852376 
L 263.267293 352.502468 
L 266.750521 351.072738 
L 270.233748 352.937455 
L 273.716976 347.912102 
L 277.200203 350.073275 
L 280.683431 354.183844 
L 284.166658 353.722112 
L 287.649886 354.601059 
L 291.133113 358.365681 
L 294.616341 357.346511 
L 298.099568 357.613422 
L 301.582796 354.292879 
L 305.066023 355.750403 
L 308.549251 356.902531 
L 312.032479 358.952708 
L 315.515706 357.854693 
L 318.998934 351.035438 
L 322.482161 354.353309 
L 325.965389 353.067094 
L 329.448616 356.125569 
L 332.931844 354.610389 
L 336.415071 351.509156 
L 339.898299 358.44623 
L 343.381526 352.100097 
L 346.864754 354.221847 
L 350.347981 355.627926 
L 353.831209 355.441265 
L 357.314436 357.687031 
L 360.797664 356.914621 
L 364.280891 351.818632 
L 367.764119 350.721914 
L 371.247346 347.211983 
L 374.730574 347.287025 
L 378.213801 346.265883 
L 381.697029 355.583255 
L 385.180256 359.138554 
L 388.663484 349.981132 
L 392.146711 358.258317 
L 395.629939 358.104005 
L 399.113166 353.801367 
L 402.596394 356.352518 
L 406.079621 351.02323 
L 409.562849 363.275198 
L 413.046076 361.445814 
L 416.529304 350.677914 
L 420.012531 347.617376 
L 423.495759 345.233623 
L 426.978986 343.921514 
L 430.462214 323.830625 
L 433.945441 319.151319 
L 437.428669 326.892039 
L 440.911896 331.238497 
L 444.395124 324.514842 
L 447.878352 328.593135 
L 451.361579 328.113564 
L 454.844807 328.17831 
L 458.328034 321.124088 
L 461.811262 322.926382 
L 465.294489 329.293285 
L 468.777717 343.105112 
L 472.260944 334.32136 
L 475.744172 313.302704 
L 479.227399 319.930614 
L 482.710627 311.496738 
L 486.193854 293.873225 
L 489.677082 308.117892 
L 496.643537 330.044773 
L 500.126764 312.861702 
L 503.609992 305.318177 
L 507.093219 274.127252 
L 510.576447 289.694184 
L 514.059674 310.807564 
L 517.542902 307.414902 
L 521.026129 281.754468 
L 524.509357 264.050854 
L 531.475812 250.083224 
L 534.959039 298.489387 
L 538.442267 319.232741 
L 541.925494 344.914363 
L 545.408722 347.309316 
L 548.891949 308.884896 
L 552.375177 319.118265 
L 559.341632 297.465927 
L 562.824859 318.741159 
L 566.308087 331.33245 
L 569.791314 330.479787 
L 573.274542 323.328471 
L 576.75777 330.411317 
L 580.240997 315.968625 
L 583.724225 324.824226 
L 587.207452 313.653239 
L 590.69068 324.951407 
L 594.173907 327.791437 
L 597.657135 340.098114 
L 601.140362 344.980677 
L 604.62359 342.137508 
L 608.106817 331.053561 
L 611.590045 322.515775 
L 615.073272 340.084237 
L 618.5565 323.04683 
L 622.039727 336.344146 
L 625.522955 316.610135 
L 632.48941 322.350715 
L 635.972637 323.504323 
L 639.455865 322.25115 
L 642.939092 302.881703 
L 646.42232 328.024394 
L 649.905547 351.108523 
L 653.388775 340.850586 
L 656.872002 311.959559 
L 660.35523 297.972201 
L 663.838457 301.401841 
L 667.321685 314.342524 
L 670.804912 312.481159 
L 674.28814 297.637629 
L 677.771367 308.339412 
L 681.254595 315.266376 
L 684.737822 290.135827 
L 688.22105 301.187446 
L 691.704277 290.803957 
L 695.187505 303.490406 
L 698.670732 316.694453 
L 702.15396 318.042245 
L 705.637188 289.723661 
L 705.637188 289.723661 
" clip-path="url(#pa7e716a4e6)" style="fill: none; stroke: #ff8c00; stroke-width: 2.3; stroke-linecap: square"/>
   </g>
   <g id="line2d_32">
    <path d="M 284.166658 384.117812 
L 284.166658 23.837812 
" clip-path="url(#pa7e716a4e6)" style="fill: none; stroke-dasharray: 5.55,2.4; stroke-dashoffset: 0; stroke: #808080; stroke-width: 1.5"/>
   </g>
   <g id="line2d_33">
    <path d="M 486.193854 384.117812 
L 486.193854 23.837812 
" clip-path="url(#pa7e716a4e6)" style="fill: none; stroke-dasharray: 5.55,2.4; stroke-dashoffset: 0; stroke: #808080; stroke-width: 1.5"/>
   </g>
   <g id="patch_3">
    <path d="M 47.307188 384.117812 
L 47.307188 23.837812 
" style="fill: none; stroke: #000000; stroke-width: 0.8; stroke-linejoin: miter; stroke-linecap: square"/>
   </g>
   <g id="patch_4">
    <path d="M 705.637188 384.117812 
L 705.637188 23.837812 
" style="fill: none; stroke: #000000; stroke-width: 0.8; stroke-linejoin: miter; stroke-linecap: square"/>
   </g>
   <g id="patch_5">
    <path d="M 47.307188 384.117812 
L 705.637188 384.117812 
" style="fill: none; stroke: #000000; stroke-width: 0.8; stroke-linejoin: miter; stroke-linecap: square"/>
   </g>
   <g id="patch_6">
    <path d="M 47.307188 23.837812 
L 705.637188 23.837812 
" style="fill: none; stroke: #000000; stroke-width: 0.8; stroke-linejoin: miter; stroke-linecap: square"/>
   </g>
   <g id="text_18">
    <!-- Facial trace: ADHD -->
    <g transform="translate(311.059375 17.837812) scale(0.14 -0.14)">
     <defs>
      <path id="DejaVuSans-46" d="M 628 4666 
L 3309 4666 
L 3309 4134 
L 1259 4134 
L 1259 2759 
L 3109 2759 
L 3109 2228 
L 1259 2228 
L 1259 0 
L 628 0 
L 628 4666 
z
" transform="scale(0.015625)"/>
      <path id="DejaVuSans-63" d="M 3122 3366 
L 3122 2828 
Q 2878 2963 2633 3030 
Q 2388 3097 2138 3097 
Q 1578 3097 1268 2742 
Q 959 2388 959 1747 
Q 959 1106 1268 751 
Q 1578 397 2138 397 
Q 2388 397 2633 464 
Q 2878 531 3122 666 
L 3122 134 
Q 2881 22 2623 -34 
Q 2366 -91 2075 -91 
Q 1284 -91 818 406 
Q 353 903 353 1747 
Q 353 2603 823 3093 
Q 1294 3584 2113 3584 
Q 2378 3584 2631 3529 
Q 2884 3475 3122 3366 
z
" transform="scale(0.015625)"/>
      <path id="DejaVuSans-6c" d="M 603 4863 
L 1178 4863 
L 1178 0 
L 603 0 
L 603 4863 
z
" transform="scale(0.015625)"/>
      <path id="DejaVuSans-72" d="M 2631 2963 
Q 2534 3019 2420 3045 
Q 2306 3072 2169 3072 
Q 1681 3072 1420 2755 
Q 1159 2438 1159 1844 
L 1159 0 
L 581 0 
L 581 3500 
L 1159 3500 
L 1159 2956 
Q 1341 3275 1631 3429 
Q 1922 3584 2338 3584 
Q 2397 3584 2469 3576 
Q 2541 3569 2628 3553 
L 2631 2963 
z
" transform="scale(0.015625)"/>
      <path id="DejaVuSans-3a" d="M 750 794 
L 1409 794 
L 1409 0 
L 750 0 
L 750 794 
z
M 750 3309 
L 1409 3309 
L 1409 2516 
L 750 2516 
L 750 3309 
z
" transform="scale(0.015625)"/>
      <path id="DejaVuSans-44" d="M 1259 4147 
L 1259 519 
L 2022 519 
Q 2988 519 3436 956 
Q 3884 1394 3884 2338 
Q 3884 3275 3436 3711 
Q 2988 4147 2022 4147 
L 1259 4147 
z
M 628 4666 
L 1925 4666 
Q 3281 4666 3915 4102 
Q 4550 3538 4550 2338 
Q 4550 1131 3912 565 
Q 3275 0 1925 0 
L 628 0 
L 628 4666 
z
" transform="scale(0.015625)"/>
      <path id="DejaVuSans-48" d="M 628 4666 
L 1259 4666 
L 1259 2753 
L 3553 2753 
L 3553 4666 
L 4184 4666 
L 4184 0 
L 3553 0 
L 3553 2222 
L 1259 2222 
L 1259 0 
L 628 0 
L 628 4666 
z
" transform="scale(0.015625)"/>
     </defs>
     <use xlink:href="#DejaVuSans-46"/>
     <use xlink:href="#DejaVuSans-61" transform="translate(48.394531 0)"/>
     <use xlink:href="#DejaVuSans-63" transform="translate(109.673828 0)"/>
     <use xlink:href="#DejaVuSans-69" transform="translate(164.654297 0)"/>
     <use xlink:href="#DejaVuSans-61" transform="translate(192.4375 0)"/>
     <use xlink:href="#DejaVuSans-6c" transform="translate(253.716797 0)"/>
     <use xlink:href="#DejaVuSans-20" transform="translate(281.5 0)"/>
     <use xlink:href="#DejaVuSans-74" transform="translate(313.287109 0)"/>
     <use xlink:href="#DejaVuSans-72" transform="translate(352.496094 0)"/>
     <use xlink:href="#DejaVuSans-61" transform="translate(393.609375 0)"/>
     <use xlink:href="#DejaVuSans-63" transform="translate(454.888672 0)"/>
     <use xlink:href="#DejaVuSans-65" transform="translate(509.869141 0)"/>
     <use xlink:href="#DejaVuSans-3a" transform="translate(571.392578 0)"/>
     <use xlink:href="#DejaVuSans-20" transform="translate(605.083984 0)"/>
     <use xlink:href="#DejaVuSans-41" transform="translate(636.871094 0)"/>
     <use xlink:href="#DejaVuSans-44" transform="translate(705.279297 0)"/>
     <use xlink:href="#DejaVuSans-48" transform="translate(782.28125 0)"/>
     <use xlink:href="#DejaVuSans-44" transform="translate(857.476562 0)"/>
    </g>
   </g>
   <g id="legend_1">
    <g id="patch_7">
     <path d="M 575.098125 42.096094 
L 597.098125 42.096094 
L 597.098125 34.396094 
L 575.098125 34.396094 
z
" style="fill: #d3d3d3; fill-opacity: 0.5; stroke: #d3d3d3; stroke-opacity: 0.5; stroke-linejoin: miter"/>
    </g>
    <g id="text_19">
     <!-- ADHD ±2 SD -->
     <g transform="translate(605.898125 42.096094) scale(0.11 -0.11)">
      <defs>
       <path id="DejaVuSans-b1" d="M 2944 4013 
L 2944 2803 
L 4684 2803 
L 4684 2272 
L 2944 2272 
L 2944 1063 
L 2419 1063 
L 2419 2272 
L 678 2272 
L 678 2803 
L 2419 2803 
L 2419 4013 
L 2944 4013 
z
M 678 531 
L 4684 531 
L 4684 0 
L 678 0 
L 678 531 
z
" transform="scale(0.015625)"/>
       <path id="DejaVuSans-53" d="M 3425 4513 
L 3425 3897 
Q 3066 4069 2747 4153 
Q 2428 4238 2131 4238 
Q 1616 4238 1336 4038 
Q 1056 3838 1056 3469 
Q 1056 3159 1242 3001 
Q 1428 2844 1947 2747 
L 2328 2669 
Q 3034 2534 3370 2195 
Q 3706 1856 3706 1288 
Q 3706 609 3251 259 
Q 2797 -91 1919 -91 
Q 1588 -91 1214 -16 
Q 841 59 441 206 
L 441 856 
Q 825 641 1194 531 
Q 1563 422 1919 422 
Q 2459 422 2753 634 
Q 3047 847 3047 1241 
Q 3047 1584 2836 1778 
Q 2625 1972 2144 2069 
L 1759 2144 
Q 1053 2284 737 2584 
Q 422 2884 422 3419 
Q 422 4038 858 4394 
Q 1294 4750 2059 4750 
Q 2388 4750 2728 4690 
Q 3069 4631 3425 4513 
z
" transform="scale(0.015625)"/>
      </defs>
      <use xlink:href="#DejaVuSans-41"/>
      <use xlink:href="#DejaVuSans-44" transform="translate(68.408203 0)"/>
      <use xlink:href="#DejaVuSans-48" transform="translate(145.410156 0)"/>
      <use xlink:href="#DejaVuSans-44" transform="translate(220.605469 0)"/>
      <use xlink:href="#DejaVuSans-20" transform="translate(297.607422 0)"/>
      <use xlink:href="#DejaVuSans-b1" transform="translate(329.394531 0)"/>
      <use xlink:href="#DejaVuSans-32" transform="translate(413.183594 0)"/>
      <use xlink:href="#DejaVuSans-20" transform="translate(476.806641 0)"/>
      <use xlink:href="#DejaVuSans-53" transform="translate(508.59375 0)"/>
      <use xlink:href="#DejaVuSans-44" transform="translate(572.070312 0)"/>
     </g>
    </g>
    <g id="patch_8">
     <path d="M 575.098125 58.242031 
L 597.098125 58.242031 
L 597.098125 50.542031 
L 575.098125 50.542031 
z
" style="fill: #808080; fill-opacity: 0.7; stroke: #808080; stroke-opacity: 0.7; stroke-linejoin: miter"/>
    </g>
    <g id="text_20">
     <!-- ADHD ±1 SD -->
     <g transform="translate(605.898125 58.242031) scale(0.11 -0.11)">
      <use xlink:href="#DejaVuSans-41"/>
      <use xlink:href="#DejaVuSans-44" transform="translate(68.408203 0)"/>
      <use xlink:href="#DejaVuSans-48" transform="translate(145.410156 0)"/>
      <use xlink:href="#DejaVuSans-44" transform="translate(220.605469 0)"/>
      <use xlink:href="#DejaVuSans-20" transform="translate(297.607422 0)"/>
      <use xlink:href="#DejaVuSans-b1" transform="translate(329.394531 0)"/>
      <use xlink:href="#DejaVuSans-31" transform="translate(413.183594 0)"/>
      <use xlink:href="#DejaVuSans-20" transform="translate(476.806641 0)"/>
      <use xlink:href="#DejaVuSans-53" transform="translate(508.59375 0)"/>
      <use xlink:href="#DejaVuSans-44" transform="translate(572.070312 0)"/>
     </g>
    </g>
    <g id="line2d_34">
     <path d="M 575.098125 70.537969 
L 586.098125 70.537969 
L 597.098125 70.537969 
" style="fill: none; stroke: #ff8c00; stroke-width: 2.3; stroke-linecap: square"/>
    </g>
    <g id="text_21">
     <!-- ADHD prototype -->
     <g transform="translate(605.898125 74.387969) scale(0.11 -0.11)">
      <defs>
       <path id="DejaVuSans-70" d="M 1159 525 
L 1159 -1331 
L 581 -1331 
L 581 3500 
L 1159 3500 
L 1159 2969 
Q 1341 3281 1617 3432 
Q 1894 3584 2278 3584 
Q 2916 3584 3314 3078 
Q 3713 2572 3713 1747 
Q 3713 922 3314 415 
Q 2916 -91 2278 -91 
Q 1894 -91 1617 61 
Q 1341 213 1159 525 
z
M 3116 1747 
Q 3116 2381 2855 2742 
Q 2594 3103 2138 3103 
Q 1681 3103 1420 2742 
Q 1159 2381 1159 1747 
Q 1159 1113 1420 752 
Q 1681 391 2138 391 
Q 2594 391 2855 752 
Q 3116 1113 3116 1747 
z
" transform="scale(0.015625)"/>
       <path id="DejaVuSans-6f" d="M 1959 3097 
Q 1497 3097 1228 2736 
Q 959 2375 959 1747 
Q 959 1119 1226 758 
Q 1494 397 1959 397 
Q 2419 397 2687 759 
Q 2956 1122 2956 1747 
Q 2956 2369 2687 2733 
Q 2419 3097 1959 3097 
z
M 1959 3584 
Q 2709 3584 3137 3096 
Q 3566 2609 3566 1747 
Q 3566 888 3137 398 
Q 2709 -91 1959 -91 
Q 1206 -91 779 398 
Q 353 888 353 1747 
Q 353 2609 779 3096 
Q 1206 3584 1959 3584 
z
" transform="scale(0.015625)"/>
      </defs>
      <use xlink:href="#DejaVuSans-41"/>
      <use xlink:href="#DejaVuSans-44" transform="translate(68.408203 0)"/>
      <use xlink:href="#DejaVuSans-48" transform="translate(145.410156 0)"/>
      <use xlink:href="#DejaVuSans-44" transform="translate(220.605469 0)"/>
      <use xlink:href="#DejaVuSans-20" transform="translate(297.607422 0)"/>
      <use xlink:href="#DejaVuSans-70" transform="translate(329.394531 0)"/>
      <use xlink:href="#DejaVuSans-72" transform="translate(392.871094 0)"/>
      <use xlink:href="#DejaVuSans-6f" transform="translate(431.734375 0)"/>
      <use xlink:href="#DejaVuSans-74" transform="translate(492.916016 0)"/>
      <use xlink:href="#DejaVuSans-6f" transform="translate(532.125 0)"/>
      <use xlink:href="#DejaVuSans-74" transform="translate(593.306641 0)"/>
      <use xlink:href="#DejaVuSans-79" transform="translate(632.515625 0)"/>
      <use xlink:href="#DejaVuSans-70" transform="translate(691.695312 0)"/>
      <use xlink:href="#DejaVuSans-65" transform="translate(755.171875 0)"/>
     </g>
    </g>
   </g>
  </g>
 </g>
 <defs>
  <clipPath id="pa7e716a4e6">
   <rect x="47.307188" y="23.837812" width="658.33" height="360.28"/>
  </clipPath>
 </defs>
</svg>
