<?xml version="1.0" encoding="utf-8" standalone="no"?>
<!DOCTYPE svg PUBLIC "-//W3C//DTD SVG 1.1//EN"
  "http://www.w3.org/Graphics/SVG/1.1/DTD/svg11.dtd">
<svg xmlns:xlink="http://www.w3.org/1999/xlink" width="712.837188pt" height="424.5775pt" viewBox="0 0 712.837188 424.5775" xmlns="http://www.w3.org/2000/svg" version="1.1">
 <metadata>
  <rdf:RDF xmlns:dc="http://purl.org/dc/elements/1.1/" xmlns:cc="http://creativecommons.org/ns#" xmlns:rdf="http://www.w3.org/1999/02/22-rdf-syntax-ns#">
   <cc:Work>
    <dc:type rdf:resource="http://purl.org/dc/dcmitype/StillImage"/>
    <dc:date>2026-06-14T18:52:32.433676</dc:date>
    <dc:format>image/svg+xml</dc:format>
    <dc:creator>
     <cc:Agent>
      <dc:title>Matplotlib v3.10.1, https://matplotlib.org/</dc:title>
     </cc:Agent>
    </dc:creator>
   </cc:Work>
  </rdf:RDF>
 </metadata>
 <defs>
  <style type="text/css">*{stroke-linejoin: round; stroke-linecap: butt}</style>
 </defs>
 <g id="figure_1">
  <g id="patch_1">
   <path d="M 0 424.5775 
L 712.837188 424.5775 
L 712.837188 0 
L 0 0 
z
" style="fill: #ffffff"/>
  </g>
  <g id="axes_1">
   <g id="patch_2">
    <path d="M 47.307188 384.117812 
L 705.637188 384.117812 
L 705.637188 23.837812 
L 47.307188 23.837812 
z
" style="fill: #ffffff"/>
   </g>
   <g id="matplotlib.axis_1">
    <g id="xtick_1">
     <g id="line2d_1">
      <path d="M 47.307188 384.117812 
L 47.307188 23.837812 
" clip-path="url(#p5ca6055bd9)" style="fill: none; stroke: #b0b0b0; stroke-opacity: 0.2; stroke-width: 0.6; stroke-linecap: square"/>
     </g>
     <g id="line2d_2">
      <defs>
       <path id="m98054d1b1a" d="M 0 0 
L 0 3.5 
" style="stroke: #000000; stroke-width: 0.8"/>
      </defs>
      <g>
       <use xlink:href="#m98054d1b1a" x="47.307188" y="384.117812" style="stroke: #000000; stroke-width: 0.8"/>
      </g>
     </g>
     <g id="text_1">
      <!-- 0 -->
      <g transform="translate(43.807813 399.476094) scale(0.11 -0.11)">
       <defs>
        <path id="DejaVuSans-30" d="M 2034 4250 
Q 1547 4250 1301 3770 
Q 1056 3291 1056 2328 
Q 1056 1369 1301 889 
Q 1547 409 2034 409 
Q 2525 409 2770 889 
Q 3016 1369 3016 2328 
Q 3016 3291 2770 3770 
Q 2525 4250 2034 4250 
z
M 2034 4750 
Q 2819 4750 3233 4129 
Q 3647 3509 3647 2328 
Q 3647 1150 3233 529 
Q 2819 -91 2034 -91 
Q 1250 -91 836 529 
Q 422 1150 422 2328 
Q 422 3509 836 4129 
Q 1250 4750 2034 4750 
z
" transform="scale(0.015625)"/>
       </defs>
       <use xlink:href="#DejaVuSans-30"/>
      </g>
     </g>
    </g>
    <g id="xtick_2">
     <g id="line2d_3">
      <path d="M 133.929556 384.117812 
L 133.929556 23.837812 
" clip-path="url(#p5ca6055bd9)" style="fill: none; stroke: #b0b0b0; stroke-opacity: 0.2; stroke-width: 0.6; stroke-linecap: square"/>
     </g>
     <g id="line2d_4">
      <g>
       <use xlink:href="#m98054d1b1a" x="133.929556" y="384.117812" style="stroke: #000000; stroke-width: 0.8"/>
      </g>
     </g>
     <g id="text_2">
      <!-- 25 -->
      <g transform="translate(126.930806 399.476094) scale(0.11 -0.11)">
       <defs>
        <path id="DejaVuSans-32" d="M 1228 531 
L 3431 531 
L 3431 0 
L 469 0 
L 469 531 
Q 828 903 1448 1529 
Q 2069 2156 2228 2338 
Q 2531 2678 2651 2914 
Q 2772 3150 2772 3378 
Q 2772 3750 2511 3984 
Q 2250 4219 1831 4219 
Q 1534 4219 1204 4116 
Q 875 4013 500 3803 
L 500 4441 
Q 881 4594 1212 4672 
Q 1544 4750 1819 4750 
Q 2544 4750 2975 4387 
Q 3406 4025 3406 3419 
Q 3406 3131 3298 2873 
Q 3191 2616 2906 2266 
Q 2828 2175 2409 1742 
Q 1991 1309 1228 531 
z
" transform="scale(0.015625)"/>
        <path id="DejaVuSans-35" d="M 691 4666 
L 3169 4666 
L 3169 4134 
L 1269 4134 
L 1269 2991 
Q 1406 3038 1543 3061 
Q 1681 3084 1819 3084 
Q 2600 3084 3056 2656 
Q 3513 2228 3513 1497 
Q 3513 744 3044 326 
Q 2575 -91 1722 -91 
Q 1428 -91 1123 -41 
Q 819 9 494 109 
L 494 744 
Q 775 591 1075 516 
Q 1375 441 1709 441 
Q 2250 441 2565 725 
Q 2881 1009 2881 1497 
Q 2881 1984 2565 2268 
Q 2250 2553 1709 2553 
Q 1456 2553 1204 2497 
Q 953 2441 691 2322 
L 691 4666 
z
" transform="scale(0.015625)"/>
       </defs>
       <use xlink:href="#DejaVuSans-32"/>
       <use xlink:href="#DejaVuSans-35" transform="translate(63.623047 0)"/>
      </g>
     </g>
    </g>
    <g id="xtick_3">
     <g id="line2d_5">
      <path d="M 220.551924 384.117812 
L 220.551924 23.837812 
" clip-path="url(#p5ca6055bd9)" style="fill: none; stroke: #b0b0b0; stroke-opacity: 0.2; stroke-width: 0.6; stroke-linecap: square"/>
     </g>
     <g id="line2d_6">
      <g>
       <use xlink:href="#m98054d1b1a" x="220.551924" y="384.117812" style="stroke: #000000; stroke-width: 0.8"/>
      </g>
     </g>
     <g id="text_3">
      <!-- 50 -->
      <g transform="translate(213.553174 399.476094) scale(0.11 -0.11)">
       <use xlink:href="#DejaVuSans-35"/>
       <use xlink:href="#DejaVuSans-30" transform="translate(63.623047 0)"/>
      </g>
     </g>
    </g>
    <g id="xtick_4">
     <g id="line2d_7">
      <path d="M 307.174293 384.117812 
L 307.174293 23.837812 
" clip-path="url(#p5ca6055bd9)" style="fill: none; stroke: #b0b0b0; stroke-opacity: 0.2; stroke-width: 0.6; stroke-linecap: square"/>
     </g>
     <g id="line2d_8">
      <g>
       <use xlink:href="#m98054d1b1a" x="307.174293" y="384.117812" style="stroke: #000000; stroke-width: 0.8"/>
      </g>
     </g>
     <g id="text_4">
      <!-- 75 -->
      <g transform="translate(300.175543 399.476094) scale(0.11 -0.11)">
       <defs>
        <path id="DejaVuSans-37" d="M 525 4666 
L 3525 4666 
L 3525 4397 
L 1831 0 
L 1172 0 
L 2766 4134 
L 525 4134 
L 525 4666 
z
" transform="scale(0.015625)"/>
       </defs>
       <use xlink:href="#DejaVuSans-37"/>
       <use xlink:href="#DejaVuSans-35" transform="translate(63.623047 0)"/>
      </g>
     </g>
    </g>
    <g id="xtick_5">
     <g id="line2d_9">
      <path d="M 393.796661 384.117812 
L 393.796661 23.837812 
" clip-path="url(#p5ca6055bd9)" style="fill: none; stroke: #b0b0b0; stroke-opacity: 0.2; stroke-width: 0.6; stroke-linecap: square"/>
     </g>
     <g id="line2d_10">
      <g>
       <use xlink:href="#m98054d1b1a" x="393.796661" y="384.117812" style="stroke: #000000; stroke-width: 0.8"/>
      </g>
     </g>
     <g id="text_5">
      <!-- 100 -->
      <g transform="translate(383.298536 399.476094) scale(0.11 -0.11)">
       <defs>
        <path id="DejaVuSans-31" d="M 794 531 
L 1825 531 
L 1825 4091 
L 703 3866 
L 703 4441 
L 1819 4666 
L 2450 4666 
L 2450 531 
L 3481 531 
L 3481 0 
L 794 0 
L 794 531 
z
" transform="scale(0.015625)"/>
       </defs>
       <use xlink:href="#DejaVuSans-31"/>
       <use xlink:href="#DejaVuSans-30" transform="translate(63.623047 0)"/>
       <use xlink:href="#DejaVuSans-30" transform="translate(127.246094 0)"/>
      </g>
     </g>
    </g>
    <g id="xtick_6">
     <g id="line2d_11">
      <path d="M 480.41903 384.117812 
L 480.41903 23.837812 
" clip-path="url(#p5ca6055bd9)" style="fill: none; stroke: #b0b0b0; stroke-opacity: 0.2; stroke-width: 0.6; stroke-linecap: square"/>
     </g>
     <g id="line2d_12">
      <g>
       <use xlink:href="#m98054d1b1a" x="480.41903" y="384.117812" style="stroke: #000000; stroke-width: 0.8"/>
      </g>
     </g>
     <g id="text_6">
      <!-- 125 -->
      <g transform="translate(469.920905 399.476094) scale(0.11 -0.11)">
       <use xlink:href="#DejaVuSans-31"/>
       <use xlink:href="#DejaVuSans-32" transform="translate(63.623047 0)"/>
       <use xlink:href="#DejaVuSans-35" transform="translate(127.246094 0)"/>
      </g>
     </g>
    </g>
    <g id="xtick_7">
     <g id="line2d_13">
      <path d="M 567.041398 384.117812 
L 567.041398 23.837812 
" clip-path="url(#p5ca6055bd9)" style="fill: none; stroke: #b0b0b0; stroke-opacity: 0.2; stroke-width: 0.6; stroke-linecap: square"/>
     </g>
     <g id="line2d_14">
      <g>
       <use xlink:href="#m98054d1b1a" x="567.041398" y="384.117812" style="stroke: #000000; stroke-width: 0.8"/>
      </g>
     </g>
     <g id="text_7">
      <!-- 150 -->
      <g transform="translate(556.543273 399.476094) scale(0.11 -0.11)">
       <use xlink:href="#DejaVuSans-31"/>
       <use xlink:href="#DejaVuSans-35" transform="translate(63.623047 0)"/>
       <use xlink:href="#DejaVuSans-30" transform="translate(127.246094 0)"/>
      </g>
     </g>
    </g>
    <g id="xtick_8">
     <g id="line2d_15">
      <path d="M 653.663766 384.117812 
L 653.663766 23.837812 
" clip-path="url(#p5ca6055bd9)" style="fill: none; stroke: #b0b0b0; stroke-opacity: 0.2; stroke-width: 0.6; stroke-linecap: square"/>
     </g>
     <g id="line2d_16">
      <g>
       <use xlink:href="#m98054d1b1a" x="653.663766" y="384.117812" style="stroke: #000000; stroke-width: 0.8"/>
      </g>
     </g>
     <g id="text_8">
      <!-- 175 -->
      <g transform="translate(643.165641 399.476094) scale(0.11 -0.11)">
       <use xlink:href="#DejaVuSans-31"/>
       <use xlink:href="#DejaVuSans-37" transform="translate(63.623047 0)"/>
       <use xlink:href="#DejaVuSans-35" transform="translate(127.246094 0)"/>
      </g>
     </g>
    </g>
    <g id="text_9">
     <!-- Time (s) -->
     <g transform="translate(352.0775 414.881875) scale(0.12 -0.12)">
      <defs>
       <path id="DejaVuSans-54" d="M -19 4666 
L 3928 4666 
L 3928 4134 
L 2272 4134 
L 2272 0 
L 1638 0 
L 1638 4134 
L -19 4134 
L -19 4666 
z
" transform="scale(0.015625)"/>
       <path id="DejaVuSans-69" d="M 603 3500 
L 1178 3500 
L 1178 0 
L 603 0 
L 603 3500 
z
M 603 4863 
L 1178 4863 
L 1178 4134 
L 603 4134 
L 603 4863 
z
" transform="scale(0.015625)"/>
       <path id="DejaVuSans-6d" d="M 3328 2828 
Q 3544 3216 3844 3400 
Q 4144 3584 4550 3584 
Q 5097 3584 5394 3201 
Q 5691 2819 5691 2113 
L 5691 0 
L 5113 0 
L 5113 2094 
Q 5113 2597 4934 2840 
Q 4756 3084 4391 3084 
Q 3944 3084 3684 2787 
Q 3425 2491 3425 1978 
L 3425 0 
L 2847 0 
L 2847 2094 
Q 2847 2600 2669 2842 
Q 2491 3084 2119 3084 
Q 1678 3084 1418 2786 
Q 1159 2488 1159 1978 
L 1159 0 
L 581 0 
L 581 3500 
L 1159 3500 
L 1159 2956 
Q 1356 3278 1631 3431 
Q 1906 3584 2284 3584 
Q 2666 3584 2933 3390 
Q 3200 3197 3328 2828 
z
" transform="scale(0.015625)"/>
       <path id="DejaVuSans-65" d="M 3597 1894 
L 3597 1613 
L 953 1613 
Q 991 1019 1311 708 
Q 1631 397 2203 397 
Q 2534 397 2845 478 
Q 3156 559 3463 722 
L 3463 178 
Q 3153 47 2828 -22 
Q 2503 -91 2169 -91 
Q 1331 -91 842 396 
Q 353 884 353 1716 
Q 353 2575 817 3079 
Q 1281 3584 2069 3584 
Q 2775 3584 3186 3129 
Q 3597 2675 3597 1894 
z
M 3022 2063 
Q 3016 2534 2758 2815 
Q 2500 3097 2075 3097 
Q 1594 3097 1305 2825 
Q 1016 2553 972 2059 
L 3022 2063 
z
" transform="scale(0.015625)"/>
       <path id="DejaVuSans-20" transform="scale(0.015625)"/>
       <path id="DejaVuSans-28" d="M 1984 4856 
Q 1566 4138 1362 3434 
Q 1159 2731 1159 2009 
Q 1159 1288 1364 580 
Q 1569 -128 1984 -844 
L 1484 -844 
Q 1016 -109 783 600 
Q 550 1309 550 2009 
Q 550 2706 781 3412 
Q 1013 4119 1484 4856 
L 1984 4856 
z
" transform="scale(0.015625)"/>
       <path id="DejaVuSans-73" d="M 2834 3397 
L 2834 2853 
Q 2591 2978 2328 3040 
Q 2066 3103 1784 3103 
Q 1356 3103 1142 2972 
Q 928 2841 928 2578 
Q 928 2378 1081 2264 
Q 1234 2150 1697 2047 
L 1894 2003 
Q 2506 1872 2764 1633 
Q 3022 1394 3022 966 
Q 3022 478 2636 193 
Q 2250 -91 1575 -91 
Q 1294 -91 989 -36 
Q 684 19 347 128 
L 347 722 
Q 666 556 975 473 
Q 1284 391 1588 391 
Q 1994 391 2212 530 
Q 2431 669 2431 922 
Q 2431 1156 2273 1281 
Q 2116 1406 1581 1522 
L 1381 1569 
Q 847 1681 609 1914 
Q 372 2147 372 2553 
Q 372 3047 722 3315 
Q 1072 3584 1716 3584 
Q 2034 3584 2315 3537 
Q 2597 3491 2834 3397 
z
" transform="scale(0.015625)"/>
       <path id="DejaVuSans-29" d="M 513 4856 
L 1013 4856 
Q 1481 4119 1714 3412 
Q 1947 2706 1947 2009 
Q 1947 1309 1714 600 
Q 1481 -109 1013 -844 
L 513 -844 
Q 928 -128 1133 580 
Q 1338 1288 1338 2009 
Q 1338 2731 1133 3434 
Q 928 4138 513 4856 
z
" transform="scale(0.015625)"/>
      </defs>
      <use xlink:href="#DejaVuSans-54"/>
      <use xlink:href="#DejaVuSans-69" transform="translate(57.958984 0)"/>
      <use xlink:href="#DejaVuSans-6d" transform="translate(85.742188 0)"/>
      <use xlink:href="#DejaVuSans-65" transform="translate(183.154297 0)"/>
      <use xlink:href="#DejaVuSans-20" transform="translate(244.677734 0)"/>
      <use xlink:href="#DejaVuSans-28" transform="translate(276.464844 0)"/>
      <use xlink:href="#DejaVuSans-73" transform="translate(315.478516 0)"/>
      <use xlink:href="#DejaVuSans-29" transform="translate(367.578125 0)"/>
     </g>
    </g>
   </g>
   <g id="matplotlib.axis_2">
    <g id="ytick_1">
     <g id="line2d_17">
      <path d="M 47.307188 367.741449 
L 705.637188 367.741449 
" clip-path="url(#p5ca6055bd9)" style="fill: none; stroke: #b0b0b0; stroke-opacity: 0.2; stroke-width: 0.6; stroke-linecap: square"/>
     </g>
     <g id="line2d_18">
      <defs>
       <path id="ma9543baf7b" d="M 0 0 
L -3.5 0 
" style="stroke: #000000; stroke-width: 0.8"/>
      </defs>
      <g>
       <use xlink:href="#ma9543baf7b" x="47.307188" y="367.741449" style="stroke: #000000; stroke-width: 0.8"/>
      </g>
     </g>
     <g id="text_10">
      <!-- 0.0 -->
      <g transform="translate(22.81375 371.920589) scale(0.11 -0.11)">
       <defs>
        <path id="DejaVuSans-2e" d="M 684 794 
L 1344 794 
L 1344 0 
L 684 0 
L 684 794 
z
" transform="scale(0.015625)"/>
       </defs>
       <use xlink:href="#DejaVuSans-30"/>
       <use xlink:href="#DejaVuSans-2e" transform="translate(63.623047 0)"/>
       <use xlink:href="#DejaVuSans-30" transform="translate(95.410156 0)"/>
      </g>
     </g>
    </g>
    <g id="ytick_2">
     <g id="line2d_19">
      <path d="M 47.307188 317.507205 
L 705.637188 317.507205 
" clip-path="url(#p5ca6055bd9)" style="fill: none; stroke: #b0b0b0; stroke-opacity: 0.2; stroke-width: 0.6; stroke-linecap: square"/>
     </g>
     <g id="line2d_20">
      <g>
       <use xlink:href="#ma9543baf7b" x="47.307188" y="317.507205" style="stroke: #000000; stroke-width: 0.8"/>
      </g>
     </g>
     <g id="text_11">
      <!-- 0.5 -->
      <g transform="translate(22.81375 321.686345) scale(0.11 -0.11)">
       <use xlink:href="#DejaVuSans-30"/>
       <use xlink:href="#DejaVuSans-2e" transform="translate(63.623047 0)"/>
       <use xlink:href="#DejaVuSans-35" transform="translate(95.410156 0)"/>
      </g>
     </g>
    </g>
    <g id="ytick_3">
     <g id="line2d_21">
      <path d="M 47.307188 267.27296 
L 705.637188 267.27296 
" clip-path="url(#p5ca6055bd9)" style="fill: none; stroke: #b0b0b0; stroke-opacity: 0.2; stroke-width: 0.6; stroke-linecap: square"/>
     </g>
     <g id="line2d_22">
      <g>
       <use xlink:href="#ma9543baf7b" x="47.307188" y="267.27296" style="stroke: #000000; stroke-width: 0.8"/>
      </g>
     </g>
     <g id="text_12">
      <!-- 1.0 -->
      <g transform="translate(22.81375 271.452101) scale(0.11 -0.11)">
       <use xlink:href="#DejaVuSans-31"/>
       <use xlink:href="#DejaVuSans-2e" transform="translate(63.623047 0)"/>
       <use xlink:href="#DejaVuSans-30" transform="translate(95.410156 0)"/>
      </g>
     </g>
    </g>
    <g id="ytick_4">
     <g id="line2d_23">
      <path d="M 47.307188 217.038716 
L 705.637188 217.038716 
" clip-path="url(#p5ca6055bd9)" style="fill: none; stroke: #b0b0b0; stroke-opacity: 0.2; stroke-width: 0.6; stroke-linecap: square"/>
     </g>
     <g id="line2d_24">
      <g>
       <use xlink:href="#ma9543baf7b" x="47.307188" y="217.038716" style="stroke: #000000; stroke-width: 0.8"/>
      </g>
     </g>
     <g id="text_13">
      <!-- 1.5 -->
      <g transform="translate(22.81375 221.217857) scale(0.11 -0.11)">
       <use xlink:href="#DejaVuSans-31"/>
       <use xlink:href="#DejaVuSans-2e" transform="translate(63.623047 0)"/>
       <use xlink:href="#DejaVuSans-35" transform="translate(95.410156 0)"/>
      </g>
     </g>
    </g>
    <g id="ytick_5">
     <g id="line2d_25">
      <path d="M 47.307188 166.804472 
L 705.637188 166.804472 
" clip-path="url(#p5ca6055bd9)" style="fill: none; stroke: #b0b0b0; stroke-opacity: 0.2; stroke-width: 0.6; stroke-linecap: square"/>
     </g>
     <g id="line2d_26">
      <g>
       <use xlink:href="#ma9543baf7b" x="47.307188" y="166.804472" style="stroke: #000000; stroke-width: 0.8"/>
      </g>
     </g>
     <g id="text_14">
      <!-- 2.0 -->
      <g transform="translate(22.81375 170.983612) scale(0.11 -0.11)">
       <use xlink:href="#DejaVuSans-32"/>
       <use xlink:href="#DejaVuSans-2e" transform="translate(63.623047 0)"/>
       <use xlink:href="#DejaVuSans-30" transform="translate(95.410156 0)"/>
      </g>
     </g>
    </g>
    <g id="ytick_6">
     <g id="line2d_27">
      <path d="M 47.307188 116.570227 
L 705.637188 116.570227 
" clip-path="url(#p5ca6055bd9)" style="fill: none; stroke: #b0b0b0; stroke-opacity: 0.2; stroke-width: 0.6; stroke-linecap: square"/>
     </g>
     <g id="line2d_28">
      <g>
       <use xlink:href="#ma9543baf7b" x="47.307188" y="116.570227" style="stroke: #000000; stroke-width: 0.8"/>
      </g>
     </g>
     <g id="text_15">
      <!-- 2.5 -->
      <g transform="translate(22.81375 120.749368) scale(0.11 -0.11)">
       <use xlink:href="#DejaVuSans-32"/>
       <use xlink:href="#DejaVuSans-2e" transform="translate(63.623047 0)"/>
       <use xlink:href="#DejaVuSans-35" transform="translate(95.410156 0)"/>
      </g>
     </g>
    </g>
    <g id="ytick_7">
     <g id="line2d_29">
      <path d="M 47.307188 66.335983 
L 705.637188 66.335983 
" clip-path="url(#p5ca6055bd9)" style="fill: none; stroke: #b0b0b0; stroke-opacity: 0.2; stroke-width: 0.6; stroke-linecap: square"/>
     </g>
     <g id="line2d_30">
      <g>
       <use xlink:href="#ma9543baf7b" x="47.307188" y="66.335983" style="stroke: #000000; stroke-width: 0.8"/>
      </g>
     </g>
     <g id="text_16">
      <!-- 3.0 -->
      <g transform="translate(22.81375 70.515124) scale(0.11 -0.11)">
       <defs>
        <path id="DejaVuSans-33" d="M 2597 2516 
Q 3050 2419 3304 2112 
Q 3559 1806 3559 1356 
Q 3559 666 3084 287 
Q 2609 -91 1734 -91 
Q 1441 -91 1130 -33 
Q 819 25 488 141 
L 488 750 
Q 750 597 1062 519 
Q 1375 441 1716 441 
Q 2309 441 2620 675 
Q 2931 909 2931 1356 
Q 2931 1769 2642 2001 
Q 2353 2234 1838 2234 
L 1294 2234 
L 1294 2753 
L 1863 2753 
Q 2328 2753 2575 2939 
Q 2822 3125 2822 3475 
Q 2822 3834 2567 4026 
Q 2313 4219 1838 4219 
Q 1578 4219 1281 4162 
Q 984 4106 628 3988 
L 628 4550 
Q 988 4650 1302 4700 
Q 1616 4750 1894 4750 
Q 2613 4750 3031 4423 
Q 3450 4097 3450 3541 
Q 3450 3153 3228 2886 
Q 3006 2619 2597 2516 
z
" transform="scale(0.015625)"/>
       </defs>
       <use xlink:href="#DejaVuSans-33"/>
       <use xlink:href="#DejaVuSans-2e" transform="translate(63.623047 0)"/>
       <use xlink:href="#DejaVuSans-30" transform="translate(95.410156 0)"/>
      </g>
     </g>
    </g>
    <g id="text_17">
     <!-- AU mean intensity -->
     <g transform="translate(16.318125 259.314687) rotate(-90) scale(0.12 -0.12)">
      <defs>
       <path id="DejaVuSans-41" d="M 2188 4044 
L 1331 1722 
L 3047 1722 
L 2188 4044 
z
M 1831 4666 
L 2547 4666 
L 4325 0 
L 3669 0 
L 3244 1197 
L 1141 1197 
L 716 0 
L 50 0 
L 1831 4666 
z
" transform="scale(0.015625)"/>
       <path id="DejaVuSans-55" d="M 556 4666 
L 1191 4666 
L 1191 1831 
Q 1191 1081 1462 751 
Q 1734 422 2344 422 
Q 2950 422 3222 751 
Q 3494 1081 3494 1831 
L 3494 4666 
L 4128 4666 
L 4128 1753 
Q 4128 841 3676 375 
Q 3225 -91 2344 -91 
Q 1459 -91 1007 375 
Q 556 841 556 1753 
L 556 4666 
z
" transform="scale(0.015625)"/>
       <path id="DejaVuSans-61" d="M 2194 1759 
Q 1497 1759 1228 1600 
Q 959 1441 959 1056 
Q 959 750 1161 570 
Q 1363 391 1709 391 
Q 2188 391 2477 730 
Q 2766 1069 2766 1631 
L 2766 1759 
L 2194 1759 
z
M 3341 1997 
L 3341 0 
L 2766 0 
L 2766 531 
Q 2569 213 2275 61 
Q 1981 -91 1556 -91 
Q 1019 -91 701 211 
Q 384 513 384 1019 
Q 384 1609 779 1909 
Q 1175 2209 1959 2209 
L 2766 2209 
L 2766 2266 
Q 2766 2663 2505 2880 
Q 2244 3097 1772 3097 
Q 1472 3097 1187 3025 
Q 903 2953 641 2809 
L 641 3341 
Q 956 3463 1253 3523 
Q 1550 3584 1831 3584 
Q 2591 3584 2966 3190 
Q 3341 2797 3341 1997 
z
" transform="scale(0.015625)"/>
       <path id="DejaVuSans-6e" d="M 3513 2113 
L 3513 0 
L 2938 0 
L 2938 2094 
Q 2938 2591 2744 2837 
Q 2550 3084 2163 3084 
Q 1697 3084 1428 2787 
Q 1159 2491 1159 1978 
L 1159 0 
L 581 0 
L 581 3500 
L 1159 3500 
L 1159 2956 
Q 1366 3272 1645 3428 
Q 1925 3584 2291 3584 
Q 2894 3584 3203 3211 
Q 3513 2838 3513 2113 
z
" transform="scale(0.015625)"/>
       <path id="DejaVuSans-74" d="M 1172 4494 
L 1172 3500 
L 2356 3500 
L 2356 3053 
L 1172 3053 
L 1172 1153 
Q 1172 725 1289 603 
Q 1406 481 1766 481 
L 2356 481 
L 2356 0 
L 1766 0 
Q 1100 0 847 248 
Q 594 497 594 1153 
L 594 3053 
L 172 3053 
L 172 3500 
L 594 3500 
L 594 4494 
L 1172 4494 
z
" transform="scale(0.015625)"/>
       <path id="DejaVuSans-79" d="M 2059 -325 
Q 1816 -950 1584 -1140 
Q 1353 -1331 966 -1331 
L 506 -1331 
L 506 -850 
L 844 -850 
Q 1081 -850 1212 -737 
Q 1344 -625 1503 -206 
L 1606 56 
L 191 3500 
L 800 3500 
L 1894 763 
L 2988 3500 
L 3597 3500 
L 2059 -325 
z
" transform="scale(0.015625)"/>
      </defs>
      <use xlink:href="#DejaVuSans-41"/>
      <use xlink:href="#DejaVuSans-55" transform="translate(68.408203 0)"/>
      <use xlink:href="#DejaVuSans-20" transform="translate(141.601562 0)"/>
      <use xlink:href="#DejaVuSans-6d" transform="translate(173.388672 0)"/>
      <use xlink:href="#DejaVuSans-65" transform="translate(270.800781 0)"/>
      <use xlink:href="#DejaVuSans-61" transform="translate(332.324219 0)"/>
      <use xlink:href="#DejaVuSans-6e" transform="translate(393.603516 0)"/>
      <use xlink:href="#DejaVuSans-20" transform="translate(456.982422 0)"/>
      <use xlink:href="#DejaVuSans-69" transform="translate(488.769531 0)"/>
      <use xlink:href="#DejaVuSans-6e" transform="translate(516.552734 0)"/>
      <use xlink:href="#DejaVuSans-74" transform="translate(579.931641 0)"/>
      <use xlink:href="#DejaVuSans-65" transform="translate(619.140625 0)"/>
      <use xlink:href="#DejaVuSans-6e" transform="translate(680.664062 0)"/>
      <use xlink:href="#DejaVuSans-73" transform="translate(744.042969 0)"/>
      <use xlink:href="#DejaVuSans-69" transform="translate(796.142578 0)"/>
      <use xlink:href="#DejaVuSans-74" transform="translate(823.925781 0)"/>
      <use xlink:href="#DejaVuSans-79" transform="translate(863.134766 0)"/>
     </g>
    </g>
   </g>
   <g id="FillBetweenPolyCollection_1">
    <defs>
     <path id="md3d2ebb01c" d="M 47.307188 -203.982617 
L 47.307188 3.235803 
L 50.772082 1.989018 
L 54.236977 -1.148366 
L 57.701872 0.078966 
L 61.166766 -0.752056 
L 64.631661 -2.542714 
L 68.096556 -1.163841 
L 71.561451 0.355065 
L 75.026345 2.408968 
L 78.49124 3.319776 
L 81.956135 0.882799 
L 85.42103 1.79782 
L 88.885924 4.437447 
L 92.350819 3.245566 
L 95.815714 1.880443 
L 99.280609 2.477044 
L 102.745503 3.024286 
L 106.210398 3.192812 
L 109.675293 4.981918 
L 113.140187 6.34461 
L 116.605082 6.565258 
L 120.069977 4.638383 
L 123.534872 5.480573 
L 126.999766 5.510034 
L 130.464661 4.358507 
L 133.929556 8.768132 
L 137.394451 7.650812 
L 140.859345 5.434078 
L 144.32424 4.699168 
L 147.789135 2.913536 
L 151.25403 1.247265 
L 154.718924 2.812959 
L 158.183819 3.026039 
L 161.648714 3.159067 
L 165.113609 6.170778 
L 168.578503 5.221566 
L 172.043398 5.588709 
L 175.508293 5.91463 
L 178.973187 3.021389 
L 182.438082 3.709259 
L 185.902977 3.934807 
L 189.367872 3.403557 
L 192.832766 2.585873 
L 196.297661 -4.986403 
L 199.762556 -3.387095 
L 203.227451 -5.893836 
L 206.692345 -5.263594 
L 210.15724 -3.804905 
L 213.622135 -7.784073 
L 217.08703 -5.551776 
L 220.551924 -3.359255 
L 224.016819 -6.050427 
L 227.481714 -6.30226 
L 230.946609 -7.808495 
L 234.411503 -6.331873 
L 237.876398 -5.936314 
L 241.341293 -4.325767 
L 244.806187 -5.198383 
L 248.271082 -6.225091 
L 251.735977 -4.11893 
L 255.200872 -3.556995 
L 258.665766 -3.599472 
L 262.130661 -1.852099 
L 265.595556 1.803965 
L 269.060451 -0.183229 
L 272.525345 0.173949 
L 275.99024 -0.010349 
L 279.455135 -0.295444 
L 282.92003 -1.673084 
L 286.384924 -3.334535 
L 289.849819 -3.233529 
L 293.314714 -1.600197 
L 296.779609 -1.518231 
L 300.244503 -0.529823 
L 303.709398 0.216573 
L 307.174293 1.157957 
L 310.639187 2.123095 
L 314.104082 1.846847 
L 317.568977 2.738263 
L 321.033872 1.203668 
L 324.498766 1.21468 
L 327.963661 3.369049 
L 331.428556 2.161383 
L 334.893451 0.156779 
L 338.358345 0.779876 
L 341.82324 1.076701 
L 345.288135 0.262615 
L 348.75303 0.907605 
L 352.217924 1.912595 
L 355.682819 1.342493 
L 359.147714 3.074803 
L 362.612609 -0.167946 
L 366.077503 -0.695279 
L 369.542398 -2.011095 
L 373.007293 -0.429185 
L 376.472188 -1.431708 
L 379.937082 0.451634 
L 383.401977 -1.181223 
L 386.866872 1.178361 
L 390.331766 -1.477601 
L 393.796661 -3.128162 
L 397.261556 -1.841171 
L 400.726451 -1.877024 
L 404.191345 -3.486849 
L 407.65624 -5.244487 
L 411.121135 -5.534952 
L 414.58603 -6.596526 
L 418.050924 -7.968672 
L 421.515819 -8.605196 
L 424.980714 -9.562829 
L 428.445609 -8.879272 
L 431.910503 -7.528632 
L 435.375398 -11.050543 
L 438.840293 -9.639085 
L 442.305187 -12.87552 
L 445.770082 -2.539596 
L 449.234977 -7.158981 
L 452.699872 -5.169723 
L 456.164766 -3.748506 
L 459.629661 -6.586052 
L 463.094556 -7.408609 
L 466.559451 -5.229048 
L 470.024345 -10.455399 
L 473.48924 -3.55895 
L 476.954135 -5.204309 
L 480.41903 -1.779912 
L 483.883924 -2.262839 
L 487.348819 0.82759 
L 490.813714 -0.467489 
L 494.278609 2.471613 
L 497.743503 1.333321 
L 501.208398 -0.223389 
L 504.673293 2.005474 
L 508.138188 0.31521 
L 511.603082 3.495449 
L 515.067977 -1.401418 
L 518.532872 -2.160225 
L 521.997766 -1.007853 
L 525.462661 0.682856 
L 528.927556 -0.812207 
L 532.392451 0.669522 
L 535.857345 -2.377854 
L 539.32224 -0.267996 
L 542.787135 2.066125 
L 546.25203 2.737712 
L 549.716924 3.286734 
L 553.181819 2.734268 
L 556.646714 0.568003 
L 560.111609 3.343452 
L 563.576503 4.683066 
L 567.041398 4.538741 
L 570.506293 5.397813 
L 573.971188 3.002245 
L 577.436082 2.903983 
L 580.900977 4.993595 
L 584.365872 7.41126 
L 587.830766 1.630569 
L 591.295661 2.626045 
L 594.760556 -4.032671 
L 598.225451 -0.723819 
L 601.690345 1.497855 
L 605.15524 2.359269 
L 608.620135 0.4528 
L 612.08503 3.880308 
L 615.549924 5.516115 
L 619.014819 3.256406 
L 622.479714 4.310165 
L 625.944609 9.663813 
L 629.409503 5.446027 
L 632.874398 0.362006 
L 636.339293 -1.886749 
L 639.804188 -2.919532 
L 643.269082 -2.69942 
L 646.733977 4.705406 
L 650.198872 8.878803 
L 653.663766 12.699838 
L 657.128661 13.460485 
L 660.593556 13.524201 
L 664.058451 9.697272 
L 667.523345 6.110496 
L 670.98824 8.476422 
L 674.453135 8.454189 
L 677.91803 9.189029 
L 681.382924 8.47566 
L 684.847819 3.850968 
L 688.312714 -1.498467 
L 691.777609 -1.729676 
L 695.242503 0.147778 
L 698.707398 -1.436734 
L 702.172293 -7.565846 
L 705.637188 -18.335409 
L 705.637188 -119.44913 
L 705.637188 -119.44913 
L 702.172293 -201.173386 
L 698.707398 -212.67555 
L 695.242503 -213.363001 
L 691.777609 -212.954162 
L 688.312714 -214.780765 
L 684.847819 -219.316439 
L 681.382924 -225.763962 
L 677.91803 -228.096349 
L 674.453135 -232.612692 
L 670.98824 -235.460259 
L 667.523345 -232.344312 
L 664.058451 -241.473618 
L 660.593556 -248.403937 
L 657.128661 -248.844747 
L 653.663766 -252.484105 
L 650.198872 -248.220117 
L 646.733977 -242.899775 
L 643.269082 -237.434814 
L 639.804188 -239.639035 
L 636.339293 -245.132597 
L 632.874398 -246.437955 
L 629.409503 -259.567773 
L 625.944609 -262.798146 
L 622.479714 -257.392975 
L 619.014819 -255.053586 
L 615.549924 -253.189353 
L 612.08503 -250.656032 
L 608.620135 -246.84569 
L 605.15524 -247.67324 
L 601.690345 -238.082914 
L 598.225451 -233.612631 
L 594.760556 -231.3724 
L 591.295661 -239.47716 
L 587.830766 -227.332586 
L 584.365872 -220.683972 
L 580.900977 -217.58591 
L 577.436082 -213.752971 
L 573.971188 -210.662839 
L 570.506293 -212.080626 
L 567.041398 -211.583561 
L 563.576503 -209.269111 
L 560.111609 -210.948619 
L 556.646714 -207.556119 
L 553.181819 -211.247998 
L 549.716924 -211.041159 
L 546.25203 -209.405223 
L 542.787135 -211.362025 
L 539.32224 -207.197775 
L 535.857345 -204.194925 
L 532.392451 -206.886435 
L 528.927556 -205.832025 
L 525.462661 -207.278366 
L 521.997766 -204.579728 
L 518.532872 -204.269004 
L 515.067977 -206.462648 
L 511.603082 -213.539592 
L 508.138188 -205.601621 
L 504.673293 -207.218438 
L 501.208398 -204.444936 
L 497.743503 -209.21857 
L 494.278609 -211.51083 
L 490.813714 -205.792881 
L 487.348819 -208.918222 
L 483.883924 -205.660712 
L 480.41903 -202.083131 
L 476.954135 -199.743305 
L 473.48924 -200.584199 
L 470.024345 -198.131987 
L 466.559451 -208.726904 
L 463.094556 -209.84087 
L 459.629661 -213.157665 
L 456.164766 -213.57905 
L 452.699872 -212.141019 
L 449.234977 -213.105657 
L 445.770082 -216.667724 
L 442.305187 -202.543208 
L 438.840293 -205.762873 
L 435.375398 -205.780563 
L 431.910503 -207.998518 
L 428.445609 -208.482718 
L 424.980714 -208.583707 
L 421.515819 -206.880929 
L 418.050924 -209.291678 
L 414.58603 -213.056021 
L 411.121135 -212.781852 
L 407.65624 -213.252378 
L 404.191345 -212.857985 
L 400.726451 -214.455238 
L 397.261556 -218.438155 
L 393.796661 -217.259668 
L 390.331766 -210.924081 
L 386.866872 -206.985554 
L 383.401977 -205.611232 
L 379.937082 -209.269936 
L 376.472188 -208.6679 
L 373.007293 -205.596771 
L 369.542398 -202.371219 
L 366.077503 -205.118544 
L 362.612609 -203.743716 
L 359.147714 -208.171021 
L 355.682819 -205.795473 
L 352.217924 -209.278193 
L 348.75303 -205.341491 
L 345.288135 -204.414731 
L 341.82324 -206.136153 
L 338.358345 -205.91237 
L 334.893451 -206.563225 
L 331.428556 -208.545865 
L 327.963661 -210.931158 
L 324.498766 -207.639858 
L 321.033872 -205.64779 
L 317.568977 -205.380405 
L 314.104082 -205.275852 
L 310.639187 -204.852889 
L 307.174293 -204.145443 
L 303.709398 -202.454889 
L 300.244503 -204.793988 
L 296.779609 -201.515399 
L 293.314714 -200.90345 
L 289.849819 -200.845298 
L 286.384924 -201.592441 
L 282.92003 -203.036432 
L 279.455135 -204.61736 
L 275.99024 -205.299843 
L 272.525345 -203.56457 
L 269.060451 -206.842439 
L 265.595556 -211.711652 
L 262.130661 -208.623307 
L 258.665766 -202.354433 
L 255.200872 -203.555958 
L 251.735977 -209.677973 
L 248.271082 -206.105373 
L 244.806187 -213.971537 
L 241.341293 -212.157493 
L 237.876398 -209.860904 
L 234.411503 -211.461933 
L 230.946609 -210.674051 
L 227.481714 -212.114686 
L 224.016819 -214.52121 
L 220.551924 -216.06919 
L 217.08703 -213.579563 
L 213.622135 -213.361507 
L 210.15724 -216.06735 
L 206.692345 -216.295939 
L 203.227451 -214.406552 
L 199.762556 -219.776693 
L 196.297661 -213.220957 
L 192.832766 -208.774612 
L 189.367872 -207.213649 
L 185.902977 -207.603915 
L 182.438082 -207.780758 
L 178.973187 -208.266762 
L 175.508293 -207.400207 
L 172.043398 -208.043209 
L 168.578503 -208.691907 
L 165.113609 -209.579875 
L 161.648714 -206.753026 
L 158.183819 -205.808129 
L 154.718924 -206.687418 
L 151.25403 -205.158153 
L 147.789135 -207.521628 
L 144.32424 -210.247456 
L 140.859345 -210.543725 
L 137.394451 -212.996911 
L 133.929556 -215.234025 
L 130.464661 -212.626406 
L 126.999766 -211.362958 
L 123.534872 -211.203429 
L 120.069977 -209.851766 
L 116.605082 -212.06346 
L 113.140187 -211.848139 
L 109.675293 -209.331803 
L 106.210398 -208.361512 
L 102.745503 -206.946407 
L 99.280609 -207.33178 
L 95.815714 -204.927883 
L 92.350819 -208.318797 
L 88.885924 -210.239485 
L 85.42103 -205.955929 
L 81.956135 -204.864766 
L 78.49124 -206.399385 
L 75.026345 -205.501892 
L 71.561451 -200.359598 
L 68.096556 -199.034721 
L 64.631661 -198.864126 
L 61.166766 -201.070097 
L 57.701872 -202.678475 
L 54.236977 -199.708324 
L 50.772082 -202.177401 
L 47.307188 -203.982617 
z
" style="stroke: #d3d3d3; stroke-opacity: 0.5"/>
    </defs>
    <g clip-path="url(#p5ca6055bd9)">
     <use xlink:href="#md3d2ebb01c" x="0" y="424.5775" style="fill: #d3d3d3; fill-opacity: 0.5; stroke: #d3d3d3; stroke-opacity: 0.5"/>
    </g>
   </g>
   <g id="FillBetweenPolyCollection_2">
    <defs>
     <path id="m0b0942da1e" d="M 47.307188 -152.178012 
L 47.307188 -48.568802 
L 50.772082 -49.052587 
L 54.236977 -50.788356 
L 57.701872 -50.610395 
L 61.166766 -50.831566 
L 64.631661 -51.623067 
L 68.096556 -50.631561 
L 71.561451 -49.8236 
L 75.026345 -49.568747 
L 78.49124 -49.110014 
L 81.956135 -50.554092 
L 85.42103 -50.140618 
L 88.885924 -49.231786 
L 92.350819 -49.645525 
L 95.815714 -49.821639 
L 99.280609 -49.975162 
L 102.745503 -49.468387 
L 106.210398 -49.695769 
L 109.675293 -48.596512 
L 113.140187 -48.203577 
L 116.605082 -48.091921 
L 120.069977 -48.984154 
L 123.534872 -48.690428 
L 126.999766 -48.708214 
L 130.464661 -49.887721 
L 133.929556 -47.232407 
L 137.394451 -47.511119 
L 140.859345 -48.560373 
L 144.32424 -49.037488 
L 147.789135 -49.695255 
L 151.25403 -50.354089 
L 154.718924 -49.562135 
L 158.183819 -49.182503 
L 161.648714 -49.318956 
L 165.113609 -47.766886 
L 168.578503 -48.256802 
L 172.043398 -47.81927 
L 175.508293 -47.414079 
L 178.973187 -49.800649 
L 182.438082 -49.163245 
L 185.902977 -48.949874 
L 189.367872 -49.250744 
L 192.832766 -50.254248 
L 196.297661 -57.045041 
L 199.762556 -57.484495 
L 203.227451 -58.022015 
L 206.692345 -58.02168 
L 210.15724 -56.870516 
L 213.622135 -59.178431 
L 217.08703 -57.558723 
L 220.551924 -56.536739 
L 224.016819 -58.168123 
L 227.481714 -57.755367 
L 230.946609 -58.524884 
L 234.411503 -57.614388 
L 237.876398 -56.917462 
L 241.341293 -56.283698 
L 244.806187 -57.391672 
L 248.271082 -56.195161 
L 251.735977 -55.508691 
L 255.200872 -53.556736 
L 258.665766 -53.288212 
L 262.130661 -53.544901 
L 265.595556 -51.574939 
L 269.060451 -51.848032 
L 272.525345 -50.76068 
L 275.99024 -51.332722 
L 279.455135 -51.375923 
L 282.92003 -52.013921 
L 286.384924 -52.899012 
L 289.849819 -52.636471 
L 293.314714 -51.42601 
L 296.779609 -51.517523 
L 300.244503 -51.595865 
L 303.709398 -50.451293 
L 307.174293 -50.167893 
L 310.639187 -49.620901 
L 314.104082 -49.933827 
L 317.568977 -49.291404 
L 321.033872 -50.509197 
L 324.498766 -50.998955 
L 327.963661 -50.206003 
L 331.428556 -50.515429 
L 334.893451 -51.523222 
L 338.358345 -50.893185 
L 341.82324 -50.726512 
L 345.288135 -50.906721 
L 348.75303 -50.654669 
L 352.217924 -50.885102 
L 355.682819 -50.441998 
L 359.147714 -49.736653 
L 362.612609 -51.061889 
L 366.077503 -51.801095 
L 369.542398 -52.101126 
L 373.007293 -51.721082 
L 376.472188 -53.240756 
L 379.937082 -51.978759 
L 383.401977 -52.288725 
L 386.866872 -50.862618 
L 390.331766 -53.839221 
L 393.796661 -56.661039 
L 397.261556 -55.990417 
L 400.726451 -55.021578 
L 404.191345 -55.829633 
L 407.65624 -57.24646 
L 411.121135 -57.346677 
L 414.58603 -58.2114 
L 418.050924 -58.299423 
L 421.515819 -58.174129 
L 424.980714 -59.318048 
L 428.445609 -58.780134 
L 431.910503 -57.646104 
L 435.375398 -59.733048 
L 438.840293 -58.670032 
L 442.305187 -60.292442 
L 445.770082 -56.071628 
L 449.234977 -58.64565 
L 452.699872 -56.912547 
L 456.164766 -56.206142 
L 459.629661 -58.228955 
L 463.094556 -58.016674 
L 466.559451 -56.103512 
L 470.024345 -57.374546 
L 473.48924 -52.815263 
L 476.954135 -53.839058 
L 480.41903 -51.855716 
L 483.883924 -53.112307 
L 487.348819 -51.608863 
L 490.813714 -51.798837 
L 494.278609 -51.023998 
L 497.743503 -51.304652 
L 501.208398 -51.278776 
L 504.673293 -50.300504 
L 508.138188 -51.163998 
L 511.603082 -50.763311 
L 515.067977 -52.666726 
L 518.532872 -52.68742 
L 521.997766 -51.900822 
L 525.462661 -51.30745 
L 528.927556 -52.067162 
L 532.392451 -51.219467 
L 535.857345 -52.832121 
L 539.32224 -52.000441 
L 542.787135 -51.290912 
L 546.25203 -50.298021 
L 549.716924 -50.295239 
L 553.181819 -50.761298 
L 556.646714 -51.463028 
L 560.111609 -50.229566 
L 563.576503 -48.804979 
L 567.041398 -49.491834 
L 570.506293 -48.971797 
L 573.971188 -50.414026 
L 577.436082 -51.260256 
L 580.900977 -50.651281 
L 584.365872 -49.612548 
L 587.830766 -55.61022 
L 591.295661 -57.899756 
L 594.760556 -60.867603 
L 598.225451 -58.946022 
L 601.690345 -58.397338 
L 605.15524 -60.148858 
L 608.620135 -61.371823 
L 612.08503 -59.753777 
L 615.549924 -59.160252 
L 619.014819 -61.321092 
L 622.479714 -61.11562 
L 625.944609 -58.451676 
L 629.409503 -60.807423 
L 632.874398 -61.337984 
L 636.339293 -62.698211 
L 639.804188 -62.099408 
L 643.269082 -61.383269 
L 646.733977 -57.195889 
L 650.198872 -55.395927 
L 653.663766 -53.596148 
L 657.128661 -52.115823 
L 660.593556 -51.957833 
L 664.058451 -53.09545 
L 667.523345 -53.503206 
L 670.98824 -52.507749 
L 674.453135 -51.812532 
L 677.91803 -50.132316 
L 681.382924 -50.084245 
L 684.847819 -51.940883 
L 688.312714 -54.819041 
L 691.777609 -54.535798 
L 695.242503 -53.229917 
L 698.707398 -54.246438 
L 702.172293 -55.967731 
L 705.637188 -43.61384 
L 705.637188 -94.1707 
L 705.637188 -94.1707 
L 702.172293 -152.771501 
L 698.707398 -159.865846 
L 695.242503 -159.985307 
L 691.777609 -160.14804 
L 688.312714 -161.460191 
L 684.847819 -163.524587 
L 681.382924 -167.204056 
L 677.91803 -168.775004 
L 674.453135 -172.345972 
L 670.98824 -174.476089 
L 667.523345 -172.73061 
L 664.058451 -178.680896 
L 660.593556 -182.921902 
L 657.128661 -183.268439 
L 653.663766 -186.188119 
L 650.198872 -183.945387 
L 646.733977 -180.99848 
L 643.269082 -178.750965 
L 639.804188 -180.45916 
L 636.339293 -184.321135 
L 632.874398 -184.737965 
L 629.409503 -193.314323 
L 625.944609 -194.682656 
L 622.479714 -191.96719 
L 619.014819 -190.476088 
L 615.549924 -188.512986 
L 612.08503 -187.021947 
L 608.620135 -185.021068 
L 605.15524 -185.165113 
L 601.690345 -178.187722 
L 598.225451 -175.390428 
L 594.760556 -174.537468 
L 591.295661 -178.951359 
L 587.830766 -170.091797 
L 584.365872 -163.660164 
L 580.900977 -161.941034 
L 577.436082 -159.588732 
L 573.971188 -157.246568 
L 570.506293 -157.711017 
L 567.041398 -157.552985 
L 563.576503 -155.781067 
L 560.111609 -157.375601 
L 556.646714 -155.525089 
L 553.181819 -157.752431 
L 549.716924 -157.459186 
L 546.25203 -156.369489 
L 542.787135 -158.004987 
L 539.32224 -155.46533 
L 535.857345 -153.740657 
L 532.392451 -154.997445 
L 528.927556 -154.57707 
L 525.462661 -155.288061 
L 521.997766 -153.686759 
L 518.532872 -153.741809 
L 515.067977 -155.19734 
L 511.603082 -159.280832 
L 508.138188 -154.122413 
L 504.673293 -154.91246 
L 501.208398 -153.38955 
L 497.743503 -156.580597 
L 494.278609 -158.015219 
L 490.813714 -154.461533 
L 487.348819 -156.481769 
L 483.883924 -154.811244 
L 480.41903 -152.007326 
L 476.954135 -151.108556 
L 473.48924 -151.327887 
L 470.024345 -151.21284 
L 466.559451 -157.85244 
L 463.094556 -159.232805 
L 459.629661 -161.514762 
L 456.164766 -161.121414 
L 452.699872 -160.398195 
L 449.234977 -161.618988 
L 445.770082 -163.135692 
L 442.305187 -155.126286 
L 438.840293 -156.731926 
L 435.375398 -157.098058 
L 431.910503 -157.881047 
L 428.445609 -158.581857 
L 424.980714 -158.828487 
L 421.515819 -157.311995 
L 418.050924 -158.960927 
L 414.58603 -161.441147 
L 411.121135 -160.970127 
L 407.65624 -161.250405 
L 404.191345 -160.515201 
L 400.726451 -161.310685 
L 397.261556 -164.288909 
L 393.796661 -163.726792 
L 390.331766 -158.562461 
L 386.866872 -154.944576 
L 383.401977 -154.50373 
L 379.937082 -156.839544 
L 376.472188 -156.858852 
L 373.007293 -154.304874 
L 369.542398 -152.281188 
L 366.077503 -154.012728 
L 362.612609 -152.849774 
L 359.147714 -155.359565 
L 355.682819 -154.010982 
L 352.217924 -156.480496 
L 348.75303 -153.779217 
L 345.288135 -153.245394 
L 341.82324 -154.33294 
L 338.358345 -154.239308 
L 334.893451 -154.883224 
L 331.428556 -155.869053 
L 327.963661 -157.356107 
L 324.498766 -155.426223 
L 321.033872 -153.934925 
L 317.568977 -153.350738 
L 314.104082 -153.495177 
L 310.639187 -153.108893 
L 307.174293 -152.819593 
L 303.709398 -151.787023 
L 300.244503 -153.727947 
L 296.779609 -151.516107 
L 293.314714 -151.077637 
L 289.849819 -151.442355 
L 286.384924 -152.027965 
L 282.92003 -152.695595 
L 279.455135 -153.536881 
L 275.99024 -153.977469 
L 272.525345 -152.62994 
L 269.060451 -155.177637 
L 265.595556 -158.332747 
L 262.130661 -156.930505 
L 258.665766 -152.665693 
L 255.200872 -153.556217 
L 251.735977 -158.288213 
L 248.271082 -156.135303 
L 244.806187 -161.778249 
L 241.341293 -160.199561 
L 237.876398 -158.879757 
L 234.411503 -160.179418 
L 230.946609 -159.957662 
L 227.481714 -160.66158 
L 224.016819 -162.403514 
L 220.551924 -162.891706 
L 217.08703 -161.572616 
L 213.622135 -161.967148 
L 210.15724 -163.001739 
L 206.692345 -163.537853 
L 203.227451 -162.278373 
L 199.762556 -165.679293 
L 196.297661 -161.162319 
L 192.832766 -155.93449 
L 189.367872 -154.559347 
L 185.902977 -154.719234 
L 182.438082 -154.908253 
L 178.973187 -155.444724 
L 175.508293 -154.071498 
L 172.043398 -154.63523 
L 168.578503 -155.213539 
L 165.113609 -155.642212 
L 161.648714 -154.275003 
L 158.183819 -153.599587 
L 154.718924 -154.312324 
L 151.25403 -153.556798 
L 147.789135 -154.912837 
L 144.32424 -156.5108 
L 140.859345 -156.549274 
L 137.394451 -157.83498 
L 133.929556 -159.233485 
L 130.464661 -158.380177 
L 126.999766 -157.14471 
L 123.534872 -157.032429 
L 120.069977 -156.229229 
L 116.605082 -157.40628 
L 113.140187 -157.299952 
L 109.675293 -155.753373 
L 106.210398 -155.472931 
L 102.745503 -154.453734 
L 99.280609 -154.879574 
L 95.815714 -153.225802 
L 92.350819 -155.427706 
L 88.885924 -156.570252 
L 85.42103 -154.017492 
L 81.956135 -153.427875 
L 78.49124 -153.969594 
L 75.026345 -153.524177 
L 71.561451 -150.180932 
L 68.096556 -149.567001 
L 64.631661 -149.783773 
L 61.166766 -150.990586 
L 57.701872 -151.989115 
L 54.236977 -150.068334 
L 50.772082 -151.135797 
L 47.307188 -152.178012 
z
" style="stroke: #808080; stroke-opacity: 0.7"/>
    </defs>
    <g clip-path="url(#p5ca6055bd9)">
     <use xlink:href="#m0b0942da1e" x="0" y="424.5775" style="fill: #808080; fill-opacity: 0.7; stroke: #808080; stroke-opacity: 0.7"/>
    </g>
   </g>
   <g id="line2d_31">
    <path d="M 47.307188 343.840149 
L 50.772082 360.694638 
L 54.236977 353.246367 
L 57.701872 359.499008 
L 61.166766 362.251038 
L 64.631661 356.20023 
L 68.096556 354.066751 
L 71.561451 353.056046 
L 75.026345 351.011961 
L 78.49124 359.659916 
L 81.956135 355.580611 
L 85.42103 356.677191 
L 88.885924 353.716562 
L 92.350819 348.280151 
L 95.815714 343.67219 
L 99.280609 353.678097 
L 102.745503 348.349013 
L 106.210398 351.931958 
L 109.675293 348.356244 
L 113.140187 353.402963 
L 116.605082 349.843483 
L 120.069977 344.800953 
L 123.534872 344.499879 
L 126.999766 356.04929 
L 130.464661 348.756793 
L 133.929556 353.713296 
L 137.394451 350.19048 
L 140.859345 349.488026 
L 144.32424 348.141742 
L 147.789135 347.271311 
L 151.25403 334.855267 
L 154.718924 349.523354 
L 158.183819 350.34356 
L 161.648714 347.317496 
L 165.113609 351.561958 
L 168.578503 352.914359 
L 172.043398 354.919711 
L 175.508293 359.990201 
L 178.973187 353.313703 
L 182.438082 349.204161 
L 185.902977 341.643199 
L 189.367872 339.379016 
L 192.832766 339.194792 
L 196.297661 321.350557 
L 199.762556 337.50205 
L 203.227451 331.746011 
L 206.692345 333.166387 
L 210.15724 338.451934 
L 213.622135 336.334816 
L 217.08703 330.873699 
L 220.551924 337.646358 
L 224.016819 335.31567 
L 227.481714 342.643974 
L 230.946609 335.137666 
L 234.411503 341.534847 
L 237.876398 340.144754 
L 241.341293 364.867324 
L 244.806187 336.695142 
L 248.271082 339.188891 
L 251.735977 322.034575 
L 255.200872 336.511398 
L 258.665766 324.12716 
L 262.130661 332.764834 
L 265.595556 331.80337 
L 269.060451 324.773105 
L 272.525345 337.193013 
L 275.99024 350.971657 
L 279.455135 362.760117 
L 282.92003 359.163407 
L 286.384924 363.282802 
L 289.849819 355.908719 
L 293.314714 359.460005 
L 296.779609 359.611088 
L 300.244503 354.693079 
L 303.709398 358.919879 
L 307.174293 356.615787 
L 310.639187 353.697662 
L 314.104082 356.764047 
L 317.568977 353.135875 
L 321.033872 352.511511 
L 324.498766 347.569621 
L 327.963661 352.201602 
L 331.428556 354.610389 
L 334.893451 350.953926 
L 338.358345 356.052612 
L 341.82324 348.503423 
L 345.288135 350.6593 
L 348.75303 350.074449 
L 352.217924 349.708129 
L 355.682819 352.419551 
L 359.147714 359.881974 
L 362.612609 360.283495 
L 366.077503 355.403614 
L 369.542398 353.638673 
L 373.007293 362.403934 
L 376.472188 354.450603 
L 379.937082 355.98593 
L 383.401977 346.131096 
L 386.866872 331.155883 
L 390.331766 346.275292 
L 393.796661 328.16755 
L 397.261556 322.640577 
L 400.726451 333.52097 
L 404.191345 363.432035 
L 407.65624 363.686288 
L 411.121135 360.488877 
L 414.58603 345.453249 
L 418.050924 342.898742 
L 421.515819 352.632831 
L 424.980714 349.080788 
L 428.445609 365.497578 
L 431.910503 352.528442 
L 435.375398 340.139499 
L 438.840293 346.241197 
L 442.305187 338.126555 
L 445.770082 350.997771 
L 449.234977 332.842749 
L 452.699872 323.877024 
L 456.164766 315.4062 
L 459.629661 335.493305 
L 463.094556 337.399908 
L 466.559451 359.345527 
L 470.024345 331.634696 
L 473.48924 339.547163 
L 480.41903 354.163881 
L 483.883924 351.023279 
L 487.348819 359.201431 
L 490.813714 360.035781 
L 494.278609 361.000045 
L 497.743503 359.289022 
L 501.208398 358.532247 
L 504.673293 350.205981 
L 508.138188 349.422696 
L 511.603082 352.282914 
L 515.067977 351.545713 
L 518.532872 349.7059 
L 521.997766 351.517551 
L 525.462661 344.051168 
L 528.927556 334.633348 
L 532.392451 347.551895 
L 535.857345 355.040826 
L 539.32224 357.281331 
L 542.787135 345.813842 
L 546.25203 356.842351 
L 549.716924 354.357282 
L 553.181819 359.279302 
L 556.646714 354.617247 
L 560.111609 346.314395 
L 563.576503 345.809172 
L 567.041398 352.01736 
L 570.506293 356.168177 
L 573.971188 357.803735 
L 577.436082 346.897427 
L 580.900977 346.347133 
L 584.365872 347.294002 
L 587.830766 364.040688 
L 591.295661 338.087012 
L 594.760556 338.209253 
L 598.225451 324.213965 
L 601.690345 327.800687 
L 605.15524 332.913813 
L 608.620135 298.775236 
L 612.08503 310.99936 
L 615.549924 317.117952 
L 619.014819 326.512365 
L 622.479714 310.820116 
L 625.944609 311.436775 
L 629.409503 328.624875 
L 632.874398 318.43414 
L 636.339293 320.468363 
L 639.804188 331.111725 
L 643.269082 351.344292 
L 646.733977 358.905428 
L 650.198872 361.126794 
L 653.663766 355.835152 
L 657.128661 349.181747 
L 660.593556 354.579954 
L 664.058451 361.693284 
L 667.523345 361.220048 
L 670.98824 360.861876 
L 674.453135 359.725752 
L 677.91803 359.895277 
L 684.847819 346.137636 
L 688.312714 342.767095 
L 695.242503 351.171299 
L 698.707398 351.6088 
L 702.172293 342.416425 
L 705.637188 342.194956 
L 705.637188 342.194956 
" clip-path="url(#p5ca6055bd9)" style="fill: none; stroke: #ff8c00; stroke-width: 2.3; stroke-linecap: square"/>
   </g>
   <g id="line2d_32">
    <path d="M 275.99024 384.117812 
L 275.99024 23.837812 
" clip-path="url(#p5ca6055bd9)" style="fill: none; stroke-dasharray: 5.55,2.4; stroke-dashoffset: 0; stroke: #808080; stroke-width: 1.5"/>
   </g>
   <g id="line2d_33">
    <path d="M 473.48924 384.117812 
L 473.48924 23.837812 
" clip-path="url(#p5ca6055bd9)" style="fill: none; stroke-dasharray: 5.55,2.4; stroke-dashoffset: 0; stroke: #808080; stroke-width: 1.5"/>
   </g>
   <g id="patch_3">
    <path d="M 47.307188 384.117812 
L 47.307188 23.837812 
" style="fill: none; stroke: #000000; stroke-width: 0.8; stroke-linejoin: miter; stroke-linecap: square"/>
   </g>
   <g id="patch_4">
    <path d="M 705.637188 384.117812 
L 705.637188 23.837812 
" style="fill: none; stroke: #000000; stroke-width: 0.8; stroke-linejoin: miter; stroke-linecap: square"/>
   </g>
   <g id="patch_5">
    <path d="M 47.307188 384.117812 
L 705.637188 384.117812 
" style="fill: none; stroke: #000000; stroke-width: 0.8; stroke-linejoin: miter; stroke-linecap: square"/>
   </g>
   <g id="patch_6">
    <path d="M 47.307188 23.837812 
L 705.637188 23.837812 
" style="fill: none; stroke: #000000; stroke-width: 0.8; stroke-linejoin: miter; stroke-linecap: square"/>
   </g>
   <g id="text_18">
    <!-- Facial trace: Control group -->
    <g transform="translate(284.040469 17.837812) scale(0.14 -0.14)">
     <defs>
      <path id="DejaVuSans-46" d="M 628 4666 
L 3309 4666 
L 3309 4134 
L 1259 4134 
L 1259 2759 
L 3109 2759 
L 3109 2228 
L 1259 2228 
L 1259 0 
L 628 0 
L 628 4666 
z
" transform="scale(0.015625)"/>
      <path id="DejaVuSans-63" d="M 3122 3366 
L 3122 2828 
Q 2878 2963 2633 3030 
Q 2388 3097 2138 3097 
Q 1578 3097 1268 2742 
Q 959 2388 959 1747 
Q 959 1106 1268 751 
Q 1578 397 2138 397 
Q 2388 397 2633 464 
Q 2878 531 3122 666 
L 3122 134 
Q 2881 22 2623 -34 
Q 2366 -91 2075 -91 
Q 1284 -91 818 406 
Q 353 903 353 1747 
Q 353 2603 823 3093 
Q 1294 3584 2113 3584 
Q 2378 3584 2631 3529 
Q 2884 3475 3122 3366 
z
" transform="scale(0.015625)"/>
      <path id="DejaVuSans-6c" d="M 603 4863 
L 1178 4863 
L 1178 0 
L 603 0 
L 603 4863 
z
" transform="scale(0.015625)"/>
      <path id="DejaVuSans-72" d="M 2631 2963 
Q 2534 3019 2420 3045 
Q 2306 3072 2169 3072 
Q 1681 3072 1420 2755 
Q 1159 2438 1159 1844 
L 1159 0 
L 581 0 
L 581 3500 
L 1159 3500 
L 1159 2956 
Q 1341 3275 1631 3429 
Q 1922 3584 2338 3584 
Q 2397 3584 2469 3576 
Q 2541 3569 2628 3553 
L 2631 2963 
z
" transform="scale(0.015625)"/>
      <path id="DejaVuSans-3a" d="M 750 794 
L 1409 794 
L 1409 0 
L 750 0 
L 750 794 
z
M 750 3309 
L 1409 3309 
L 1409 2516 
L 750 2516 
L 750 3309 
z
" transform="scale(0.015625)"/>
      <path id="DejaVuSans-43" d="M 4122 4306 
L 4122 3641 
Q 3803 3938 3442 4084 
Q 3081 4231 2675 4231 
Q 1875 4231 1450 3742 
Q 1025 3253 1025 2328 
Q 1025 1406 1450 917 
Q 1875 428 2675 428 
Q 3081 428 3442 575 
Q 3803 722 4122 1019 
L 4122 359 
Q 3791 134 3420 21 
Q 3050 -91 2638 -91 
Q 1578 -91 968 557 
Q 359 1206 359 2328 
Q 359 3453 968 4101 
Q 1578 4750 2638 4750 
Q 3056 4750 3426 4639 
Q 3797 4528 4122 4306 
z
" transform="scale(0.015625)"/>
      <path id="DejaVuSans-6f" d="M 1959 3097 
Q 1497 3097 1228 2736 
Q 959 2375 959 1747 
Q 959 1119 1226 758 
Q 1494 397 1959 397 
Q 2419 397 2687 759 
Q 2956 1122 2956 1747 
Q 2956 2369 2687 2733 
Q 2419 3097 1959 3097 
z
M 1959 3584 
Q 2709 3584 3137 3096 
Q 3566 2609 3566 1747 
Q 3566 888 3137 398 
Q 2709 -91 1959 -91 
Q 1206 -91 779 398 
Q 353 888 353 1747 
Q 353 2609 779 3096 
Q 1206 3584 1959 3584 
z
" transform="scale(0.015625)"/>
      <path id="DejaVuSans-67" d="M 2906 1791 
Q 2906 2416 2648 2759 
Q 2391 3103 1925 3103 
Q 1463 3103 1205 2759 
Q 947 2416 947 1791 
Q 947 1169 1205 825 
Q 1463 481 1925 481 
Q 2391 481 2648 825 
Q 2906 1169 2906 1791 
z
M 3481 434 
Q 3481 -459 3084 -895 
Q 2688 -1331 1869 -1331 
Q 1566 -1331 1297 -1286 
Q 1028 -1241 775 -1147 
L 775 -588 
Q 1028 -725 1275 -790 
Q 1522 -856 1778 -856 
Q 2344 -856 2625 -561 
Q 2906 -266 2906 331 
L 2906 616 
Q 2728 306 2450 153 
Q 2172 0 1784 0 
Q 1141 0 747 490 
Q 353 981 353 1791 
Q 353 2603 747 3093 
Q 1141 3584 1784 3584 
Q 2172 3584 2450 3431 
Q 2728 3278 2906 2969 
L 2906 3500 
L 3481 3500 
L 3481 434 
z
" transform="scale(0.015625)"/>
      <path id="DejaVuSans-75" d="M 544 1381 
L 544 3500 
L 1119 3500 
L 1119 1403 
Q 1119 906 1312 657 
Q 1506 409 1894 409 
Q 2359 409 2629 706 
Q 2900 1003 2900 1516 
L 2900 3500 
L 3475 3500 
L 3475 0 
L 2900 0 
L 2900 538 
Q 2691 219 2414 64 
Q 2138 -91 1772 -91 
Q 1169 -91 856 284 
Q 544 659 544 1381 
z
M 1991 3584 
L 1991 3584 
z
" transform="scale(0.015625)"/>
      <path id="DejaVuSans-70" d="M 1159 525 
L 1159 -1331 
L 581 -1331 
L 581 3500 
L 1159 3500 
L 1159 2969 
Q 1341 3281 1617 3432 
Q 1894 3584 2278 3584 
Q 2916 3584 3314 3078 
Q 3713 2572 3713 1747 
Q 3713 922 3314 415 
Q 2916 -91 2278 -91 
Q 1894 -91 1617 61 
Q 1341 213 1159 525 
z
M 3116 1747 
Q 3116 2381 2855 2742 
Q 2594 3103 2138 3103 
Q 1681 3103 1420 2742 
Q 1159 2381 1159 1747 
Q 1159 1113 1420 752 
Q 1681 391 2138 391 
Q 2594 391 2855 752 
Q 3116 1113 3116 1747 
z
" transform="scale(0.015625)"/>
     </defs>
     <use xlink:href="#DejaVuSans-46"/>
     <use xlink:href="#DejaVuSans-61" transform="translate(48.394531 0)"/>
     <use xlink:href="#DejaVuSans-63" transform="translate(109.673828 0)"/>
     <use xlink:href="#DejaVuSans-69" transform="translate(164.654297 0)"/>
     <use xlink:href="#DejaVuSans-61" transform="translate(192.4375 0)"/>
     <use xlink:href="#DejaVuSans-6c" transform="translate(253.716797 0)"/>
     <use xlink:href="#DejaVuSans-20" transform="translate(281.5 0)"/>
     <use xlink:href="#DejaVuSans-74" transform="translate(313.287109 0)"/>
     <use xlink:href="#DejaVuSans-72" transform="translate(352.496094 0)"/>
     <use xlink:href="#DejaVuSans-61" transform="translate(393.609375 0)"/>
     <use xlink:href="#DejaVuSans-63" transform="translate(454.888672 0)"/>
     <use xlink:href="#DejaVuSans-65" transform="translate(509.869141 0)"/>
     <use xlink:href="#DejaVuSans-3a" transform="translate(571.392578 0)"/>
     <use xlink:href="#DejaVuSans-20" transform="translate(605.083984 0)"/>
     <use xlink:href="#DejaVuSans-43" transform="translate(636.871094 0)"/>
     <use xlink:href="#DejaVuSans-6f" transform="translate(706.695312 0)"/>
     <use xlink:href="#DejaVuSans-6e" transform="translate(767.876953 0)"/>
     <use xlink:href="#DejaVuSans-74" transform="translate(831.255859 0)"/>
     <use xlink:href="#DejaVuSans-72" transform="translate(870.464844 0)"/>
     <use xlink:href="#DejaVuSans-6f" transform="translate(909.328125 0)"/>
     <use xlink:href="#DejaVuSans-6c" transform="translate(970.509766 0)"/>
     <use xlink:href="#DejaVuSans-20" transform="translate(998.292969 0)"/>
     <use xlink:href="#DejaVuSans-67" transform="translate(1030.080078 0)"/>
     <use xlink:href="#DejaVuSans-72" transform="translate(1093.556641 0)"/>
     <use xlink:href="#DejaVuSans-6f" transform="translate(1132.419922 0)"/>
     <use xlink:href="#DejaVuSans-75" transform="translate(1193.601562 0)"/>
     <use xlink:href="#DejaVuSans-70" transform="translate(1256.980469 0)"/>
    </g>
   </g>
   <g id="legend_1">
    <g id="patch_7">
     <path d="M 532.639844 42.096094 
L 554.639844 42.096094 
L 554.639844 34.396094 
L 532.639844 34.396094 
z
" style="fill: #d3d3d3; fill-opacity: 0.5; stroke: #d3d3d3; stroke-opacity: 0.5; stroke-linejoin: miter"/>
    </g>
    <g id="text_19">
     <!-- Control group ±2 SD -->
     <g transform="translate(563.439844 42.096094) scale(0.11 -0.11)">
      <defs>
       <path id="DejaVuSans-b1" d="M 2944 4013 
L 2944 2803 
L 4684 2803 
L 4684 2272 
L 2944 2272 
L 2944 1063 
L 2419 1063 
L 2419 2272 
L 678 2272 
L 678 2803 
L 2419 2803 
L 2419 4013 
L 2944 4013 
z
M 678 531 
L 4684 531 
L 4684 0 
L 678 0 
L 678 531 
z
" transform="scale(0.015625)"/>
       <path id="DejaVuSans-53" d="M 3425 4513 
L 3425 3897 
Q 3066 4069 2747 4153 
Q 2428 4238 2131 4238 
Q 1616 4238 1336 4038 
Q 1056 3838 1056 3469 
Q 1056 3159 1242 3001 
Q 1428 2844 1947 2747 
L 2328 2669 
Q 3034 2534 3370 2195 
Q 3706 1856 3706 1288 
Q 3706 609 3251 259 
Q 2797 -91 1919 -91 
Q 1588 -91 1214 -16 
Q 841 59 441 206 
L 441 856 
Q 825 641 1194 531 
Q 1563 422 1919 422 
Q 2459 422 2753 634 
Q 3047 847 3047 1241 
Q 3047 1584 2836 1778 
Q 2625 1972 2144 2069 
L 1759 2144 
Q 1053 2284 737 2584 
Q 422 2884 422 3419 
Q 422 4038 858 4394 
Q 1294 4750 2059 4750 
Q 2388 4750 2728 4690 
Q 3069 4631 3425 4513 
z
" transform="scale(0.015625)"/>
       <path id="DejaVuSans-44" d="M 1259 4147 
L 1259 519 
L 2022 519 
Q 2988 519 3436 956 
Q 3884 1394 3884 2338 
Q 3884 3275 3436 3711 
Q 2988 4147 2022 4147 
L 1259 4147 
z
M 628 4666 
L 1925 4666 
Q 3281 4666 3915 4102 
Q 4550 3538 4550 2338 
Q 4550 1131 3912 565 
Q 3275 0 1925 0 
L 628 0 
L 628 4666 
z
" transform="scale(0.015625)"/>
      </defs>
      <use xlink:href="#DejaVuSans-43"/>
      <use xlink:href="#DejaVuSans-6f" transform="translate(69.824219 0)"/>
      <use xlink:href="#DejaVuSans-6e" transform="translate(131.005859 0)"/>
      <use xlink:href="#DejaVuSans-74" transform="translate(194.384766 0)"/>
      <use xlink:href="#DejaVuSans-72" transform="translate(233.59375 0)"/>
      <use xlink:href="#DejaVuSans-6f" transform="translate(272.457031 0)"/>
      <use xlink:href="#DejaVuSans-6c" transform="translate(333.638672 0)"/>
      <use xlink:href="#DejaVuSans-20" transform="translate(361.421875 0)"/>
      <use xlink:href="#DejaVuSans-67" transform="translate(393.208984 0)"/>
      <use xlink:href="#DejaVuSans-72" transform="translate(456.685547 0)"/>
      <use xlink:href="#DejaVuSans-6f" transform="translate(495.548828 0)"/>
      <use xlink:href="#DejaVuSans-75" transform="translate(556.730469 0)"/>
      <use xlink:href="#DejaVuSans-70" transform="translate(620.109375 0)"/>
      <use xlink:href="#DejaVuSans-20" transform="translate(683.585938 0)"/>
      <use xlink:href="#DejaVuSans-b1" transform="translate(715.373047 0)"/>
      <use xlink:href="#DejaVuSans-32" transform="translate(799.162109 0)"/>
      <use xlink:href="#DejaVuSans-20" transform="translate(862.785156 0)"/>
      <use xlink:href="#DejaVuSans-53" transform="translate(894.572266 0)"/>
      <use xlink:href="#DejaVuSans-44" transform="translate(958.048828 0)"/>
     </g>
    </g>
    <g id="patch_8">
     <path d="M 532.639844 58.242031 
L 554.639844 58.242031 
L 554.639844 50.542031 
L 532.639844 50.542031 
z
" style="fill: #808080; fill-opacity: 0.7; stroke: #808080; stroke-opacity: 0.7; stroke-linejoin: miter"/>
    </g>
    <g id="text_20">
     <!-- Control group ±1 SD -->
     <g transform="translate(563.439844 58.242031) scale(0.11 -0.11)">
      <use xlink:href="#DejaVuSans-43"/>
      <use xlink:href="#DejaVuSans-6f" transform="translate(69.824219 0)"/>
      <use xlink:href="#DejaVuSans-6e" transform="translate(131.005859 0)"/>
      <use xlink:href="#DejaVuSans-74" transform="translate(194.384766 0)"/>
      <use xlink:href="#DejaVuSans-72" transform="translate(233.59375 0)"/>
      <use xlink:href="#DejaVuSans-6f" transform="translate(272.457031 0)"/>
      <use xlink:href="#DejaVuSans-6c" transform="translate(333.638672 0)"/>
      <use xlink:href="#DejaVuSans-20" transform="translate(361.421875 0)"/>
      <use xlink:href="#DejaVuSans-67" transform="translate(393.208984 0)"/>
      <use xlink:href="#DejaVuSans-72" transform="translate(456.685547 0)"/>
      <use xlink:href="#DejaVuSans-6f" transform="translate(495.548828 0)"/>
      <use xlink:href="#DejaVuSans-75" transform="translate(556.730469 0)"/>
      <use xlink:href="#DejaVuSans-70" transform="translate(620.109375 0)"/>
      <use xlink:href="#DejaVuSans-20" transform="translate(683.585938 0)"/>
      <use xlink:href="#DejaVuSans-b1" transform="translate(715.373047 0)"/>
      <use xlink:href="#DejaVuSans-31" transform="translate(799.162109 0)"/>
      <use xlink:href="#DejaVuSans-20" transform="translate(862.785156 0)"/>
      <use xlink:href="#DejaVuSans-53" transform="translate(894.572266 0)"/>
      <use xlink:href="#DejaVuSans-44" transform="translate(958.048828 0)"/>
     </g>
    </g>
    <g id="line2d_34">
     <path d="M 532.639844 70.537969 
L 543.639844 70.537969 
L 554.639844 70.537969 
" style="fill: none; stroke: #ff8c00; stroke-width: 2.3; stroke-linecap: square"/>
    </g>
    <g id="text_21">
     <!-- Control group prototype -->
     <g transform="translate(563.439844 74.387969) scale(0.11 -0.11)">
      <use xlink:href="#DejaVuSans-43"/>
      <use xlink:href="#DejaVuSans-6f" transform="translate(69.824219 0)"/>
      <use xlink:href="#DejaVuSans-6e" transform="translate(131.005859 0)"/>
      <use xlink:href="#DejaVuSans-74" transform="translate(194.384766 0)"/>
      <use xlink:href="#DejaVuSans-72" transform="translate(233.59375 0)"/>
      <use xlink:href="#DejaVuSans-6f" transform="translate(272.457031 0)"/>
      <use xlink:href="#DejaVuSans-6c" transform="translate(333.638672 0)"/>
      <use xlink:href="#DejaVuSans-20" transform="translate(361.421875 0)"/>
      <use xlink:href="#DejaVuSans-67" transform="translate(393.208984 0)"/>
      <use xlink:href="#DejaVuSans-72" transform="translate(456.685547 0)"/>
      <use xlink:href="#DejaVuSans-6f" transform="translate(495.548828 0)"/>
      <use xlink:href="#DejaVuSans-75" transform="translate(556.730469 0)"/>
      <use xlink:href="#DejaVuSans-70" transform="translate(620.109375 0)"/>
      <use xlink:href="#DejaVuSans-20" transform="translate(683.585938 0)"/>
      <use xlink:href="#DejaVuSans-70" transform="translate(715.373047 0)"/>
      <use xlink:href="#DejaVuSans-72" transform="translate(778.849609 0)"/>
      <use xlink:href="#DejaVuSans-6f" transform="translate(817.712891 0)"/>
      <use xlink:href="#DejaVuSans-74" transform="translate(878.894531 0)"/>
      <use xlink:href="#DejaVuSans-6f" transform="translate(918.103516 0)"/>
      <use xlink:href="#DejaVuSans-74" transform="translate(979.285156 0)"/>
      <use xlink:href="#DejaVuSans-79" transform="translate(1018.494141 0)"/>
      <use xlink:href="#DejaVuSans-70" transform="translate(1077.673828 0)"/>
      <use xlink:href="#DejaVuSans-65" transform="translate(1141.150391 0)"/>
     </g>
    </g>
   </g>
  </g>
 </g>
 <defs>
  <clipPath id="p5ca6055bd9">
   <rect x="47.307188" y="23.837812" width="658.33" height="360.28"/>
  </clipPath>
 </defs>
</svg>
