<?xml version="1.0" encoding="utf-8" standalone="no"?>
<!DOCTYPE svg PUBLIC "-//W3C//DTD SVG 1.1//EN"
  "http://www.w3.org/Graphics/SVG/1.1/DTD/svg11.dtd">
<svg xmlns:xlink="http://www.w3.org/1999/xlink" width="712.837188pt" height="424.5775pt" viewBox="0 0 712.837188 424.5775" xmlns="http://www.w3.org/2000/svg" version="1.1">
 <metadata>
  <rdf:RDF xmlns:dc="http://purl.org/dc/elements/1.1/" xmlns:cc="http://creativecommons.org/ns#" xmlns:rdf="http://www.w3.org/1999/02/22-rdf-syntax-ns#">
   <cc:Work>
    <dc:type rdf:resource="http://purl.org/dc/dcmitype/StillImage"/>
    <dc:date>2026-06-23T21:41:02.150056</dc:date>
    <dc:format>image/svg+xml</dc:format>
    <dc:creator>
     <cc:Agent>
      <dc:title>Matplotlib v3.10.1, https://matplotlib.org/</dc:title>
     </cc:Agent>
    </dc:creator>
   </cc:Work>
  </rdf:RDF>
 </metadata>
 <defs>
  <style type="text/css">*{stroke-linejoin: round; stroke-linecap: butt}</style>
 </defs>
 <g id="figure_1">
  <g id="patch_1">
   <path d="M 0 424.5775 
L 712.837188 424.5775 
L 712.837188 0 
L 0 0 
z
" style="fill: #ffffff"/>
  </g>
  <g id="axes_1">
   <g id="patch_2">
    <path d="M 47.307188 384.117812 
L 705.637188 384.117812 
L 705.637188 23.837812 
L 47.307188 23.837812 
z
" style="fill: #ffffff"/>
   </g>
   <g id="matplotlib.axis_1">
    <g id="xtick_1">
     <g id="line2d_1">
      <path d="M 47.307188 384.117812 
L 47.307188 23.837812 
" clip-path="url(#p6eb3f990b8)" style="fill: none; stroke: #b0b0b0; stroke-opacity: 0.2; stroke-width: 0.6; stroke-linecap: square"/>
     </g>
     <g id="line2d_2">
      <defs>
       <path id="m2da33bc5fc" d="M 0 0 
L 0 3.5 
" style="stroke: #000000; stroke-width: 0.8"/>
      </defs>
      <g>
       <use xlink:href="#m2da33bc5fc" x="47.307188" y="384.117812" style="stroke: #000000; stroke-width: 0.8"/>
      </g>
     </g>
     <g id="text_1">
      <!-- 0 -->
      <g transform="translate(43.807813 399.476094) scale(0.11 -0.11)">
       <defs>
        <path id="DejaVuSans-30" d="M 2034 4250 
Q 1547 4250 1301 3770 
Q 1056 3291 1056 2328 
Q 1056 1369 1301 889 
Q 1547 409 2034 409 
Q 2525 409 2770 889 
Q 3016 1369 3016 2328 
Q 3016 3291 2770 3770 
Q 2525 4250 2034 4250 
z
M 2034 4750 
Q 2819 4750 3233 4129 
Q 3647 3509 3647 2328 
Q 3647 1150 3233 529 
Q 2819 -91 2034 -91 
Q 1250 -91 836 529 
Q 422 1150 422 2328 
Q 422 3509 836 4129 
Q 1250 4750 2034 4750 
z
" transform="scale(0.015625)"/>
       </defs>
       <use xlink:href="#DejaVuSans-30"/>
      </g>
     </g>
    </g>
    <g id="xtick_2">
     <g id="line2d_3">
      <path d="M 134.387875 384.117812 
L 134.387875 23.837812 
" clip-path="url(#p6eb3f990b8)" style="fill: none; stroke: #b0b0b0; stroke-opacity: 0.2; stroke-width: 0.6; stroke-linecap: square"/>
     </g>
     <g id="line2d_4">
      <g>
       <use xlink:href="#m2da33bc5fc" x="134.387875" y="384.117812" style="stroke: #000000; stroke-width: 0.8"/>
      </g>
     </g>
     <g id="text_2">
      <!-- 25 -->
      <g transform="translate(127.389125 399.476094) scale(0.11 -0.11)">
       <defs>
        <path id="DejaVuSans-32" d="M 1228 531 
L 3431 531 
L 3431 0 
L 469 0 
L 469 531 
Q 828 903 1448 1529 
Q 2069 2156 2228 2338 
Q 2531 2678 2651 2914 
Q 2772 3150 2772 3378 
Q 2772 3750 2511 3984 
Q 2250 4219 1831 4219 
Q 1534 4219 1204 4116 
Q 875 4013 500 3803 
L 500 4441 
Q 881 4594 1212 4672 
Q 1544 4750 1819 4750 
Q 2544 4750 2975 4387 
Q 3406 4025 3406 3419 
Q 3406 3131 3298 2873 
Q 3191 2616 2906 2266 
Q 2828 2175 2409 1742 
Q 1991 1309 1228 531 
z
" transform="scale(0.015625)"/>
        <path id="DejaVuSans-35" d="M 691 4666 
L 3169 4666 
L 3169 4134 
L 1269 4134 
L 1269 2991 
Q 1406 3038 1543 3061 
Q 1681 3084 1819 3084 
Q 2600 3084 3056 2656 
Q 3513 2228 3513 1497 
Q 3513 744 3044 326 
Q 2575 -91 1722 -91 
Q 1428 -91 1123 -41 
Q 819 9 494 109 
L 494 744 
Q 775 591 1075 516 
Q 1375 441 1709 441 
Q 2250 441 2565 725 
Q 2881 1009 2881 1497 
Q 2881 1984 2565 2268 
Q 2250 2553 1709 2553 
Q 1456 2553 1204 2497 
Q 953 2441 691 2322 
L 691 4666 
z
" transform="scale(0.015625)"/>
       </defs>
       <use xlink:href="#DejaVuSans-32"/>
       <use xlink:href="#DejaVuSans-35" transform="translate(63.623047 0)"/>
      </g>
     </g>
    </g>
    <g id="xtick_3">
     <g id="line2d_5">
      <path d="M 221.468563 384.117812 
L 221.468563 23.837812 
" clip-path="url(#p6eb3f990b8)" style="fill: none; stroke: #b0b0b0; stroke-opacity: 0.2; stroke-width: 0.6; stroke-linecap: square"/>
     </g>
     <g id="line2d_6">
      <g>
       <use xlink:href="#m2da33bc5fc" x="221.468563" y="384.117812" style="stroke: #000000; stroke-width: 0.8"/>
      </g>
     </g>
     <g id="text_3">
      <!-- 50 -->
      <g transform="translate(214.469813 399.476094) scale(0.11 -0.11)">
       <use xlink:href="#DejaVuSans-35"/>
       <use xlink:href="#DejaVuSans-30" transform="translate(63.623047 0)"/>
      </g>
     </g>
    </g>
    <g id="xtick_4">
     <g id="line2d_7">
      <path d="M 308.549251 384.117812 
L 308.549251 23.837812 
" clip-path="url(#p6eb3f990b8)" style="fill: none; stroke: #b0b0b0; stroke-opacity: 0.2; stroke-width: 0.6; stroke-linecap: square"/>
     </g>
     <g id="line2d_8">
      <g>
       <use xlink:href="#m2da33bc5fc" x="308.549251" y="384.117812" style="stroke: #000000; stroke-width: 0.8"/>
      </g>
     </g>
     <g id="text_4">
      <!-- 75 -->
      <g transform="translate(301.550501 399.476094) scale(0.11 -0.11)">
       <defs>
        <path id="DejaVuSans-37" d="M 525 4666 
L 3525 4666 
L 3525 4397 
L 1831 0 
L 1172 0 
L 2766 4134 
L 525 4134 
L 525 4666 
z
" transform="scale(0.015625)"/>
       </defs>
       <use xlink:href="#DejaVuSans-37"/>
       <use xlink:href="#DejaVuSans-35" transform="translate(63.623047 0)"/>
      </g>
     </g>
    </g>
    <g id="xtick_5">
     <g id="line2d_9">
      <path d="M 395.629939 384.117812 
L 395.629939 23.837812 
" clip-path="url(#p6eb3f990b8)" style="fill: none; stroke: #b0b0b0; stroke-opacity: 0.2; stroke-width: 0.6; stroke-linecap: square"/>
     </g>
     <g id="line2d_10">
      <g>
       <use xlink:href="#m2da33bc5fc" x="395.629939" y="384.117812" style="stroke: #000000; stroke-width: 0.8"/>
      </g>
     </g>
     <g id="text_5">
      <!-- 100 -->
      <g transform="translate(385.131814 399.476094) scale(0.11 -0.11)">
       <defs>
        <path id="DejaVuSans-31" d="M 794 531 
L 1825 531 
L 1825 4091 
L 703 3866 
L 703 4441 
L 1819 4666 
L 2450 4666 
L 2450 531 
L 3481 531 
L 3481 0 
L 794 0 
L 794 531 
z
" transform="scale(0.015625)"/>
       </defs>
       <use xlink:href="#DejaVuSans-31"/>
       <use xlink:href="#DejaVuSans-30" transform="translate(63.623047 0)"/>
       <use xlink:href="#DejaVuSans-30" transform="translate(127.246094 0)"/>
      </g>
     </g>
    </g>
    <g id="xtick_6">
     <g id="line2d_11">
      <path d="M 482.710627 384.117812 
L 482.710627 23.837812 
" clip-path="url(#p6eb3f990b8)" style="fill: none; stroke: #b0b0b0; stroke-opacity: 0.2; stroke-width: 0.6; stroke-linecap: square"/>
     </g>
     <g id="line2d_12">
      <g>
       <use xlink:href="#m2da33bc5fc" x="482.710627" y="384.117812" style="stroke: #000000; stroke-width: 0.8"/>
      </g>
     </g>
     <g id="text_6">
      <!-- 125 -->
      <g transform="translate(472.212502 399.476094) scale(0.11 -0.11)">
       <use xlink:href="#DejaVuSans-31"/>
       <use xlink:href="#DejaVuSans-32" transform="translate(63.623047 0)"/>
       <use xlink:href="#DejaVuSans-35" transform="translate(127.246094 0)"/>
      </g>
     </g>
    </g>
    <g id="xtick_7">
     <g id="line2d_13">
      <path d="M 569.791314 384.117812 
L 569.791314 23.837812 
" clip-path="url(#p6eb3f990b8)" style="fill: none; stroke: #b0b0b0; stroke-opacity: 0.2; stroke-width: 0.6; stroke-linecap: square"/>
     </g>
     <g id="line2d_14">
      <g>
       <use xlink:href="#m2da33bc5fc" x="569.791314" y="384.117812" style="stroke: #000000; stroke-width: 0.8"/>
      </g>
     </g>
     <g id="text_7">
      <!-- 150 -->
      <g transform="translate(559.293189 399.476094) scale(0.11 -0.11)">
       <use xlink:href="#DejaVuSans-31"/>
       <use xlink:href="#DejaVuSans-35" transform="translate(63.623047 0)"/>
       <use xlink:href="#DejaVuSans-30" transform="translate(127.246094 0)"/>
      </g>
     </g>
    </g>
    <g id="xtick_8">
     <g id="line2d_15">
      <path d="M 656.872002 384.117812 
L 656.872002 23.837812 
" clip-path="url(#p6eb3f990b8)" style="fill: none; stroke: #b0b0b0; stroke-opacity: 0.2; stroke-width: 0.6; stroke-linecap: square"/>
     </g>
     <g id="line2d_16">
      <g>
       <use xlink:href="#m2da33bc5fc" x="656.872002" y="384.117812" style="stroke: #000000; stroke-width: 0.8"/>
      </g>
     </g>
     <g id="text_8">
      <!-- 175 -->
      <g transform="translate(646.373877 399.476094) scale(0.11 -0.11)">
       <use xlink:href="#DejaVuSans-31"/>
       <use xlink:href="#DejaVuSans-37" transform="translate(63.623047 0)"/>
       <use xlink:href="#DejaVuSans-35" transform="translate(127.246094 0)"/>
      </g>
     </g>
    </g>
    <g id="text_9">
     <!-- Time (s) -->
     <g transform="translate(352.0775 414.881875) scale(0.12 -0.12)">
      <defs>
       <path id="DejaVuSans-54" d="M -19 4666 
L 3928 4666 
L 3928 4134 
L 2272 4134 
L 2272 0 
L 1638 0 
L 1638 4134 
L -19 4134 
L -19 4666 
z
" transform="scale(0.015625)"/>
       <path id="DejaVuSans-69" d="M 603 3500 
L 1178 3500 
L 1178 0 
L 603 0 
L 603 3500 
z
M 603 4863 
L 1178 4863 
L 1178 4134 
L 603 4134 
L 603 4863 
z
" transform="scale(0.015625)"/>
       <path id="DejaVuSans-6d" d="M 3328 2828 
Q 3544 3216 3844 3400 
Q 4144 3584 4550 3584 
Q 5097 3584 5394 3201 
Q 5691 2819 5691 2113 
L 5691 0 
L 5113 0 
L 5113 2094 
Q 5113 2597 4934 2840 
Q 4756 3084 4391 3084 
Q 3944 3084 3684 2787 
Q 3425 2491 3425 1978 
L 3425 0 
L 2847 0 
L 2847 2094 
Q 2847 2600 2669 2842 
Q 2491 3084 2119 3084 
Q 1678 3084 1418 2786 
Q 1159 2488 1159 1978 
L 1159 0 
L 581 0 
L 581 3500 
L 1159 3500 
L 1159 2956 
Q 1356 3278 1631 3431 
Q 1906 3584 2284 3584 
Q 2666 3584 2933 3390 
Q 3200 3197 3328 2828 
z
" transform="scale(0.015625)"/>
       <path id="DejaVuSans-65" d="M 3597 1894 
L 3597 1613 
L 953 1613 
Q 991 1019 1311 708 
Q 1631 397 2203 397 
Q 2534 397 2845 478 
Q 3156 559 3463 722 
L 3463 178 
Q 3153 47 2828 -22 
Q 2503 -91 2169 -91 
Q 1331 -91 842 396 
Q 353 884 353 1716 
Q 353 2575 817 3079 
Q 1281 3584 2069 3584 
Q 2775 3584 3186 3129 
Q 3597 2675 3597 1894 
z
M 3022 2063 
Q 3016 2534 2758 2815 
Q 2500 3097 2075 3097 
Q 1594 3097 1305 2825 
Q 1016 2553 972 2059 
L 3022 2063 
z
" transform="scale(0.015625)"/>
       <path id="DejaVuSans-20" transform="scale(0.015625)"/>
       <path id="DejaVuSans-28" d="M 1984 4856 
Q 1566 4138 1362 3434 
Q 1159 2731 1159 2009 
Q 1159 1288 1364 580 
Q 1569 -128 1984 -844 
L 1484 -844 
Q 1016 -109 783 600 
Q 550 1309 550 2009 
Q 550 2706 781 3412 
Q 1013 4119 1484 4856 
L 1984 4856 
z
" transform="scale(0.015625)"/>
       <path id="DejaVuSans-73" d="M 2834 3397 
L 2834 2853 
Q 2591 2978 2328 3040 
Q 2066 3103 1784 3103 
Q 1356 3103 1142 2972 
Q 928 2841 928 2578 
Q 928 2378 1081 2264 
Q 1234 2150 1697 2047 
L 1894 2003 
Q 2506 1872 2764 1633 
Q 3022 1394 3022 966 
Q 3022 478 2636 193 
Q 2250 -91 1575 -91 
Q 1294 -91 989 -36 
Q 684 19 347 128 
L 347 722 
Q 666 556 975 473 
Q 1284 391 1588 391 
Q 1994 391 2212 530 
Q 2431 669 2431 922 
Q 2431 1156 2273 1281 
Q 2116 1406 1581 1522 
L 1381 1569 
Q 847 1681 609 1914 
Q 372 2147 372 2553 
Q 372 3047 722 3315 
Q 1072 3584 1716 3584 
Q 2034 3584 2315 3537 
Q 2597 3491 2834 3397 
z
" transform="scale(0.015625)"/>
       <path id="DejaVuSans-29" d="M 513 4856 
L 1013 4856 
Q 1481 4119 1714 3412 
Q 1947 2706 1947 2009 
Q 1947 1309 1714 600 
Q 1481 -109 1013 -844 
L 513 -844 
Q 928 -128 1133 580 
Q 1338 1288 1338 2009 
Q 1338 2731 1133 3434 
Q 928 4138 513 4856 
z
" transform="scale(0.015625)"/>
      </defs>
      <use xlink:href="#DejaVuSans-54"/>
      <use xlink:href="#DejaVuSans-69" transform="translate(57.958984 0)"/>
      <use xlink:href="#DejaVuSans-6d" transform="translate(85.742188 0)"/>
      <use xlink:href="#DejaVuSans-65" transform="translate(183.154297 0)"/>
      <use xlink:href="#DejaVuSans-20" transform="translate(244.677734 0)"/>
      <use xlink:href="#DejaVuSans-28" transform="translate(276.464844 0)"/>
      <use xlink:href="#DejaVuSans-73" transform="translate(315.478516 0)"/>
      <use xlink:href="#DejaVuSans-29" transform="translate(367.578125 0)"/>
     </g>
    </g>
   </g>
   <g id="matplotlib.axis_2">
    <g id="ytick_1">
     <g id="line2d_17">
      <path d="M 47.307188 367.741449 
L 705.637188 367.741449 
" clip-path="url(#p6eb3f990b8)" style="fill: none; stroke: #b0b0b0; stroke-opacity: 0.2; stroke-width: 0.6; stroke-linecap: square"/>
     </g>
     <g id="line2d_18">
      <defs>
       <path id="m38580d1c5f" d="M 0 0 
L -3.5 0 
" style="stroke: #000000; stroke-width: 0.8"/>
      </defs>
      <g>
       <use xlink:href="#m38580d1c5f" x="47.307188" y="367.741449" style="stroke: #000000; stroke-width: 0.8"/>
      </g>
     </g>
     <g id="text_10">
      <!-- 0.0 -->
      <g transform="translate(22.81375 371.920589) scale(0.11 -0.11)">
       <defs>
        <path id="DejaVuSans-2e" d="M 684 794 
L 1344 794 
L 1344 0 
L 684 0 
L 684 794 
z
" transform="scale(0.015625)"/>
       </defs>
       <use xlink:href="#DejaVuSans-30"/>
       <use xlink:href="#DejaVuSans-2e" transform="translate(63.623047 0)"/>
       <use xlink:href="#DejaVuSans-30" transform="translate(95.410156 0)"/>
      </g>
     </g>
    </g>
    <g id="ytick_2">
     <g id="line2d_19">
      <path d="M 47.307188 317.507205 
L 705.637188 317.507205 
" clip-path="url(#p6eb3f990b8)" style="fill: none; stroke: #b0b0b0; stroke-opacity: 0.2; stroke-width: 0.6; stroke-linecap: square"/>
     </g>
     <g id="line2d_20">
      <g>
       <use xlink:href="#m38580d1c5f" x="47.307188" y="317.507205" style="stroke: #000000; stroke-width: 0.8"/>
      </g>
     </g>
     <g id="text_11">
      <!-- 0.5 -->
      <g transform="translate(22.81375 321.686345) scale(0.11 -0.11)">
       <use xlink:href="#DejaVuSans-30"/>
       <use xlink:href="#DejaVuSans-2e" transform="translate(63.623047 0)"/>
       <use xlink:href="#DejaVuSans-35" transform="translate(95.410156 0)"/>
      </g>
     </g>
    </g>
    <g id="ytick_3">
     <g id="line2d_21">
      <path d="M 47.307188 267.27296 
L 705.637188 267.27296 
" clip-path="url(#p6eb3f990b8)" style="fill: none; stroke: #b0b0b0; stroke-opacity: 0.2; stroke-width: 0.6; stroke-linecap: square"/>
     </g>
     <g id="line2d_22">
      <g>
       <use xlink:href="#m38580d1c5f" x="47.307188" y="267.27296" style="stroke: #000000; stroke-width: 0.8"/>
      </g>
     </g>
     <g id="text_12">
      <!-- 1.0 -->
      <g transform="translate(22.81375 271.452101) scale(0.11 -0.11)">
       <use xlink:href="#DejaVuSans-31"/>
       <use xlink:href="#DejaVuSans-2e" transform="translate(63.623047 0)"/>
       <use xlink:href="#DejaVuSans-30" transform="translate(95.410156 0)"/>
      </g>
     </g>
    </g>
    <g id="ytick_4">
     <g id="line2d_23">
      <path d="M 47.307188 217.038716 
L 705.637188 217.038716 
" clip-path="url(#p6eb3f990b8)" style="fill: none; stroke: #b0b0b0; stroke-opacity: 0.2; stroke-width: 0.6; stroke-linecap: square"/>
     </g>
     <g id="line2d_24">
      <g>
       <use xlink:href="#m38580d1c5f" x="47.307188" y="217.038716" style="stroke: #000000; stroke-width: 0.8"/>
      </g>
     </g>
     <g id="text_13">
      <!-- 1.5 -->
      <g transform="translate(22.81375 221.217857) scale(0.11 -0.11)">
       <use xlink:href="#DejaVuSans-31"/>
       <use xlink:href="#DejaVuSans-2e" transform="translate(63.623047 0)"/>
       <use xlink:href="#DejaVuSans-35" transform="translate(95.410156 0)"/>
      </g>
     </g>
    </g>
    <g id="ytick_5">
     <g id="line2d_25">
      <path d="M 47.307188 166.804472 
L 705.637188 166.804472 
" clip-path="url(#p6eb3f990b8)" style="fill: none; stroke: #b0b0b0; stroke-opacity: 0.2; stroke-width: 0.6; stroke-linecap: square"/>
     </g>
     <g id="line2d_26">
      <g>
       <use xlink:href="#m38580d1c5f" x="47.307188" y="166.804472" style="stroke: #000000; stroke-width: 0.8"/>
      </g>
     </g>
     <g id="text_14">
      <!-- 2.0 -->
      <g transform="translate(22.81375 170.983612) scale(0.11 -0.11)">
       <use xlink:href="#DejaVuSans-32"/>
       <use xlink:href="#DejaVuSans-2e" transform="translate(63.623047 0)"/>
       <use xlink:href="#DejaVuSans-30" transform="translate(95.410156 0)"/>
      </g>
     </g>
    </g>
    <g id="ytick_6">
     <g id="line2d_27">
      <path d="M 47.307188 116.570227 
L 705.637188 116.570227 
" clip-path="url(#p6eb3f990b8)" style="fill: none; stroke: #b0b0b0; stroke-opacity: 0.2; stroke-width: 0.6; stroke-linecap: square"/>
     </g>
     <g id="line2d_28">
      <g>
       <use xlink:href="#m38580d1c5f" x="47.307188" y="116.570227" style="stroke: #000000; stroke-width: 0.8"/>
      </g>
     </g>
     <g id="text_15">
      <!-- 2.5 -->
      <g transform="translate(22.81375 120.749368) scale(0.11 -0.11)">
       <use xlink:href="#DejaVuSans-32"/>
       <use xlink:href="#DejaVuSans-2e" transform="translate(63.623047 0)"/>
       <use xlink:href="#DejaVuSans-35" transform="translate(95.410156 0)"/>
      </g>
     </g>
    </g>
    <g id="ytick_7">
     <g id="line2d_29">
      <path d="M 47.307188 66.335983 
L 705.637188 66.335983 
" clip-path="url(#p6eb3f990b8)" style="fill: none; stroke: #b0b0b0; stroke-opacity: 0.2; stroke-width: 0.6; stroke-linecap: square"/>
     </g>
     <g id="line2d_30">
      <g>
       <use xlink:href="#m38580d1c5f" x="47.307188" y="66.335983" style="stroke: #000000; stroke-width: 0.8"/>
      </g>
     </g>
     <g id="text_16">
      <!-- 3.0 -->
      <g transform="translate(22.81375 70.515124) scale(0.11 -0.11)">
       <defs>
        <path id="DejaVuSans-33" d="M 2597 2516 
Q 3050 2419 3304 2112 
Q 3559 1806 3559 1356 
Q 3559 666 3084 287 
Q 2609 -91 1734 -91 
Q 1441 -91 1130 -33 
Q 819 25 488 141 
L 488 750 
Q 750 597 1062 519 
Q 1375 441 1716 441 
Q 2309 441 2620 675 
Q 2931 909 2931 1356 
Q 2931 1769 2642 2001 
Q 2353 2234 1838 2234 
L 1294 2234 
L 1294 2753 
L 1863 2753 
Q 2328 2753 2575 2939 
Q 2822 3125 2822 3475 
Q 2822 3834 2567 4026 
Q 2313 4219 1838 4219 
Q 1578 4219 1281 4162 
Q 984 4106 628 3988 
L 628 4550 
Q 988 4650 1302 4700 
Q 1616 4750 1894 4750 
Q 2613 4750 3031 4423 
Q 3450 4097 3450 3541 
Q 3450 3153 3228 2886 
Q 3006 2619 2597 2516 
z
" transform="scale(0.015625)"/>
       </defs>
       <use xlink:href="#DejaVuSans-33"/>
       <use xlink:href="#DejaVuSans-2e" transform="translate(63.623047 0)"/>
       <use xlink:href="#DejaVuSans-30" transform="translate(95.410156 0)"/>
      </g>
     </g>
    </g>
    <g id="text_17">
     <!-- AU mean intensity -->
     <g transform="translate(16.318125 259.314687) rotate(-90) scale(0.12 -0.12)">
      <defs>
       <path id="DejaVuSans-41" d="M 2188 4044 
L 1331 1722 
L 3047 1722 
L 2188 4044 
z
M 1831 4666 
L 2547 4666 
L 4325 0 
L 3669 0 
L 3244 1197 
L 1141 1197 
L 716 0 
L 50 0 
L 1831 4666 
z
" transform="scale(0.015625)"/>
       <path id="DejaVuSans-55" d="M 556 4666 
L 1191 4666 
L 1191 1831 
Q 1191 1081 1462 751 
Q 1734 422 2344 422 
Q 2950 422 3222 751 
Q 3494 1081 3494 1831 
L 3494 4666 
L 4128 4666 
L 4128 1753 
Q 4128 841 3676 375 
Q 3225 -91 2344 -91 
Q 1459 -91 1007 375 
Q 556 841 556 1753 
L 556 4666 
z
" transform="scale(0.015625)"/>
       <path id="DejaVuSans-61" d="M 2194 1759 
Q 1497 1759 1228 1600 
Q 959 1441 959 1056 
Q 959 750 1161 570 
Q 1363 391 1709 391 
Q 2188 391 2477 730 
Q 2766 1069 2766 1631 
L 2766 1759 
L 2194 1759 
z
M 3341 1997 
L 3341 0 
L 2766 0 
L 2766 531 
Q 2569 213 2275 61 
Q 1981 -91 1556 -91 
Q 1019 -91 701 211 
Q 384 513 384 1019 
Q 384 1609 779 1909 
Q 1175 2209 1959 2209 
L 2766 2209 
L 2766 2266 
Q 2766 2663 2505 2880 
Q 2244 3097 1772 3097 
Q 1472 3097 1187 3025 
Q 903 2953 641 2809 
L 641 3341 
Q 956 3463 1253 3523 
Q 1550 3584 1831 3584 
Q 2591 3584 2966 3190 
Q 3341 2797 3341 1997 
z
" transform="scale(0.015625)"/>
       <path id="DejaVuSans-6e" d="M 3513 2113 
L 3513 0 
L 2938 0 
L 2938 2094 
Q 2938 2591 2744 2837 
Q 2550 3084 2163 3084 
Q 1697 3084 1428 2787 
Q 1159 2491 1159 1978 
L 1159 0 
L 581 0 
L 581 3500 
L 1159 3500 
L 1159 2956 
Q 1366 3272 1645 3428 
Q 1925 3584 2291 3584 
Q 2894 3584 3203 3211 
Q 3513 2838 3513 2113 
z
" transform="scale(0.015625)"/>
       <path id="DejaVuSans-74" d="M 1172 4494 
L 1172 3500 
L 2356 3500 
L 2356 3053 
L 1172 3053 
L 1172 1153 
Q 1172 725 1289 603 
Q 1406 481 1766 481 
L 2356 481 
L 2356 0 
L 1766 0 
Q 1100 0 847 248 
Q 594 497 594 1153 
L 594 3053 
L 172 3053 
L 172 3500 
L 594 3500 
L 594 4494 
L 1172 4494 
z
" transform="scale(0.015625)"/>
       <path id="DejaVuSans-79" d="M 2059 -325 
Q 1816 -950 1584 -1140 
Q 1353 -1331 966 -1331 
L 506 -1331 
L 506 -850 
L 844 -850 
Q 1081 -850 1212 -737 
Q 1344 -625 1503 -206 
L 1606 56 
L 191 3500 
L 800 3500 
L 1894 763 
L 2988 3500 
L 3597 3500 
L 2059 -325 
z
" transform="scale(0.015625)"/>
      </defs>
      <use xlink:href="#DejaVuSans-41"/>
      <use xlink:href="#DejaVuSans-55" transform="translate(68.408203 0)"/>
      <use xlink:href="#DejaVuSans-20" transform="translate(141.601562 0)"/>
      <use xlink:href="#DejaVuSans-6d" transform="translate(173.388672 0)"/>
      <use xlink:href="#DejaVuSans-65" transform="translate(270.800781 0)"/>
      <use xlink:href="#DejaVuSans-61" transform="translate(332.324219 0)"/>
      <use xlink:href="#DejaVuSans-6e" transform="translate(393.603516 0)"/>
      <use xlink:href="#DejaVuSans-20" transform="translate(456.982422 0)"/>
      <use xlink:href="#DejaVuSans-69" transform="translate(488.769531 0)"/>
      <use xlink:href="#DejaVuSans-6e" transform="translate(516.552734 0)"/>
      <use xlink:href="#DejaVuSans-74" transform="translate(579.931641 0)"/>
      <use xlink:href="#DejaVuSans-65" transform="translate(619.140625 0)"/>
      <use xlink:href="#DejaVuSans-6e" transform="translate(680.664062 0)"/>
      <use xlink:href="#DejaVuSans-73" transform="translate(744.042969 0)"/>
      <use xlink:href="#DejaVuSans-69" transform="translate(796.142578 0)"/>
      <use xlink:href="#DejaVuSans-74" transform="translate(823.925781 0)"/>
      <use xlink:href="#DejaVuSans-79" transform="translate(863.134766 0)"/>
     </g>
    </g>
   </g>
   <g id="FillBetweenPolyCollection_1">
    <defs>
     <path id="m6781ecaab7" d="M 47.307188 -114.304279 
L 47.307188 -48.92312 
L 50.790415 -43.99202 
L 54.273643 -39.52205 
L 57.75687 -40.976874 
L 61.240098 -38.85587 
L 64.723325 -41.873848 
L 68.206553 -40.390512 
L 71.68978 -40.883758 
L 75.173008 -37.103906 
L 78.656235 -40.050641 
L 82.139463 -40.225917 
L 85.62269 -36.717913 
L 89.105918 -35.538781 
L 92.589145 -36.098731 
L 96.072373 -36.439157 
L 99.5556 -37.821448 
L 103.038828 -45.389069 
L 106.522055 -45.286056 
L 110.005283 -41.640928 
L 113.48851 -35.095785 
L 116.971738 -34.995112 
L 120.454965 -40.179494 
L 123.938193 -39.144112 
L 127.42142 -42.847324 
L 130.904648 -38.632828 
L 134.387875 -38.373434 
L 137.871103 -36.607362 
L 141.35433 -37.80325 
L 144.837558 -38.79321 
L 148.320785 -41.378049 
L 151.804013 -35.664231 
L 155.28724 -36.684009 
L 158.770468 -38.160481 
L 162.253695 -39.99155 
L 165.736923 -34.441193 
L 169.22015 -34.655778 
L 172.703378 -38.990251 
L 176.186605 -40.169333 
L 179.669833 -48.497119 
L 183.153061 -39.903013 
L 186.636288 -33.829429 
L 190.119516 -40.535908 
L 193.602743 -29.091745 
L 197.085971 -21.614939 
L 200.569198 -20.355808 
L 204.052426 -13.839118 
L 207.535653 -22.996722 
L 211.018881 -24.201174 
L 214.502108 -33.205781 
L 217.985336 -23.384106 
L 221.468563 -18.093839 
L 224.951791 -30.612183 
L 228.435018 -28.151985 
L 231.918246 -28.033878 
L 235.401473 -34.07291 
L 238.884701 -39.128312 
L 242.367928 -39.731657 
L 245.851156 -32.213561 
L 249.334383 -43.99342 
L 252.817611 -46.909822 
L 256.300838 -40.104032 
L 259.784066 -34.680523 
L 263.267293 -29.910229 
L 266.750521 -36.330826 
L 270.233748 -41.3861 
L 273.716976 -27.857738 
L 277.200203 -31.369145 
L 280.683431 -33.725229 
L 284.166658 -26.319216 
L 287.649886 -27.528629 
L 291.133113 -34.467106 
L 294.616341 -32.648691 
L 298.099568 -34.533472 
L 301.582796 -35.944987 
L 305.066023 -39.82348 
L 308.549251 -36.730804 
L 312.032479 -34.013603 
L 315.515706 -28.387999 
L 318.998934 -29.412052 
L 322.482161 -37.754446 
L 325.965389 -44.825441 
L 329.448616 -40.028698 
L 332.931844 -38.473868 
L 336.415071 -34.747079 
L 339.898299 -37.883931 
L 343.381526 -37.734442 
L 346.864754 -37.162461 
L 350.347981 -37.167511 
L 353.831209 -35.425976 
L 357.314436 -35.334632 
L 360.797664 -29.277229 
L 364.280891 -28.276356 
L 367.764119 -39.299946 
L 371.247346 -31.627355 
L 374.730574 -32.207731 
L 378.213801 -32.348979 
L 381.697029 -27.712445 
L 385.180256 -35.617782 
L 388.663484 -33.659765 
L 392.146711 -25.824593 
L 395.629939 -11.571958 
L 399.113166 -8.014039 
L 402.596394 -0.94327 
L 406.079621 -13.145649 
L 409.562849 -14.966025 
L 413.046076 -28.152641 
L 416.529304 -13.032213 
L 420.012531 -10.072106 
L 423.495759 -24.697536 
L 426.978986 -39.922863 
L 430.462214 -29.395996 
L 433.945441 -32.538837 
L 437.428669 -26.469303 
L 440.911896 -36.799862 
L 444.395124 -34.61214 
L 447.878352 -24.616906 
L 451.361579 -34.08723 
L 454.844807 -29.855225 
L 458.328034 -33.211272 
L 461.811262 -36.197807 
L 465.294489 -38.681675 
L 468.777717 -34.942596 
L 472.260944 -28.725293 
L 475.744172 -6.782235 
L 479.227399 -32.796438 
L 482.710627 -30.647789 
L 486.193854 -17.257483 
L 489.677082 -20.611343 
L 493.160309 -40.982157 
L 496.643537 -26.098281 
L 500.126764 -24.923013 
L 503.609992 -23.430031 
L 507.093219 -24.736809 
L 510.576447 -30.297089 
L 514.059674 -27.165444 
L 517.542902 -37.059691 
L 521.026129 -44.360519 
L 524.509357 -33.718298 
L 527.992584 -33.439147 
L 531.475812 -28.94058 
L 534.959039 -23.500381 
L 538.442267 -16.80663 
L 541.925494 -30.490103 
L 545.408722 -35.407091 
L 548.891949 -34.52857 
L 552.375177 -35.801328 
L 555.858404 -39.392973 
L 559.341632 -30.368359 
L 562.824859 -32.22464 
L 566.308087 -27.637162 
L 569.791314 -27.290391 
L 573.274542 -23.870261 
L 576.75777 -31.451168 
L 580.240997 -33.106465 
L 583.724225 -35.219619 
L 587.207452 -21.826675 
L 590.69068 -15.961689 
L 594.173907 -15.485673 
L 597.657135 -22.370326 
L 601.140362 -10.122216 
L 604.62359 -17.578556 
L 608.106817 -34.704709 
L 611.590045 -37.97799 
L 615.073272 -36.840052 
L 618.5565 -36.428419 
L 622.039727 -40.818414 
L 625.522955 -42.555588 
L 629.006182 -21.256821 
L 632.48941 -21.465973 
L 635.972637 -19.728869 
L 639.455865 -32.577142 
L 642.939092 -19.080905 
L 646.42232 -28.241385 
L 649.905547 -32.303623 
L 653.388775 -28.441122 
L 656.872002 -3.571512 
L 660.35523 -13.082975 
L 663.838457 -23.639401 
L 667.321685 -33.542986 
L 670.804912 -38.235131 
L 674.28814 -30.659831 
L 677.771367 -22.466801 
L 681.254595 -29.781333 
L 684.737822 -33.699457 
L 688.22105 -35.121875 
L 691.704277 -37.077213 
L 695.187505 -29.96322 
L 698.670732 -22.990318 
L 702.15396 -18.913657 
L 705.637188 -28.580658 
L 705.637188 -173.8948 
L 705.637188 -173.8948 
L 702.15396 -183.853334 
L 698.670732 -175.23338 
L 695.187505 -177.594254 
L 691.704277 -168.047198 
L 688.22105 -168.949585 
L 684.737822 -151.824937 
L 681.254595 -174.302281 
L 677.771367 -188.692214 
L 674.28814 -177.406062 
L 670.804912 -176.823534 
L 667.321685 -166.062083 
L 663.838457 -168.476072 
L 660.35523 -186.919107 
L 656.872002 -203.69435 
L 653.388775 -173.232059 
L 649.905547 -159.658116 
L 646.42232 -181.657653 
L 642.939092 -222.941857 
L 639.455865 -208.623096 
L 635.972637 -206.108506 
L 632.48941 -216.908589 
L 629.006182 -206.537957 
L 625.522955 -166.78034 
L 622.039727 -159.163482 
L 618.5565 -182.131975 
L 615.073272 -199.3105 
L 611.590045 -199.720031 
L 608.106817 -196.71906 
L 604.62359 -224.484578 
L 601.140362 -228.349504 
L 597.657135 -201.426177 
L 594.173907 -199.774362 
L 590.69068 -184.182183 
L 587.207452 -170.50749 
L 583.724225 -147.396958 
L 580.240997 -164.437338 
L 576.75777 -162.794231 
L 573.274542 -170.56205 
L 569.791314 -171.393042 
L 566.308087 -168.668107 
L 562.824859 -156.725908 
L 559.341632 -163.271463 
L 555.858404 -154.394647 
L 552.375177 -165.650785 
L 548.891949 -162.649861 
L 545.408722 -155.822786 
L 541.925494 -168.855693 
L 538.442267 -189.448051 
L 534.959039 -172.83136 
L 531.475812 -168.072732 
L 527.992584 -156.892842 
L 524.509357 -157.078526 
L 521.026129 -164.738417 
L 517.542902 -176.810241 
L 514.059674 -179.731693 
L 510.576447 -157.150064 
L 507.093219 -165.805841 
L 503.609992 -206.787683 
L 500.126764 -214.727661 
L 496.643537 -207.152976 
L 493.160309 -183.211359 
L 489.677082 -216.405317 
L 486.193854 -223.746275 
L 482.710627 -197.413318 
L 479.227399 -200.844357 
L 475.744172 -216.03892 
L 472.260944 -175.02005 
L 468.777717 -183.407278 
L 465.294489 -180.052918 
L 461.811262 -168.17309 
L 458.328034 -164.670033 
L 454.844807 -171.60988 
L 451.361579 -158.51948 
L 447.878352 -169.382351 
L 444.395124 -145.113942 
L 440.911896 -135.492572 
L 437.428669 -166.18602 
L 433.945441 -174.52782 
L 430.462214 -169.317821 
L 426.978986 -153.413822 
L 423.495759 -191.638778 
L 420.012531 -203.421069 
L 416.529304 -195.533997 
L 413.046076 -161.907992 
L 409.562849 -162.754739 
L 406.079621 -163.241309 
L 402.596394 -169.438838 
L 399.113166 -167.348746 
L 395.629939 -178.812696 
L 392.146711 -161.133209 
L 388.663484 -157.668807 
L 385.180256 -159.492258 
L 381.697029 -167.790836 
L 378.213801 -176.770352 
L 374.730574 -184.108327 
L 371.247346 -176.976642 
L 367.764119 -157.327529 
L 364.280891 -160.825062 
L 360.797664 -152.160464 
L 357.314436 -150.921623 
L 353.831209 -152.66978 
L 350.347981 -152.009692 
L 346.864754 -153.497672 
L 343.381526 -153.898176 
L 339.898299 -164.913444 
L 336.415071 -172.854399 
L 332.931844 -168.218686 
L 329.448616 -175.937215 
L 325.965389 -176.234512 
L 322.482161 -155.15135 
L 318.998934 -152.876382 
L 315.515706 -160.059509 
L 312.032479 -149.775782 
L 308.549251 -156.909019 
L 305.066023 -156.972118 
L 301.582796 -149.902032 
L 298.099568 -149.016895 
L 294.616341 -147.051129 
L 291.133113 -157.29494 
L 287.649886 -167.202489 
L 284.166658 -172.973915 
L 280.683431 -161.425951 
L 277.200203 -165.221869 
L 273.716976 -165.656499 
L 270.233748 -134.264527 
L 266.750521 -138.027274 
L 263.267293 -145.756602 
L 259.784066 -144.56026 
L 256.300838 -135.911198 
L 252.817611 -122.11522 
L 249.334383 -130.707212 
L 245.851156 -137.601805 
L 242.367928 -148.607168 
L 238.884701 -126.722446 
L 235.401473 -145.946881 
L 231.918246 -161.193126 
L 228.435018 -158.706145 
L 224.951791 -145.85489 
L 221.468563 -166.501725 
L 217.985336 -153.544169 
L 214.502108 -146.244824 
L 211.018881 -155.388217 
L 207.535653 -155.226384 
L 204.052426 -172.477765 
L 200.569198 -166.664368 
L 197.085971 -163.155941 
L 193.602743 -142.064133 
L 190.119516 -126.43646 
L 186.636288 -134.371135 
L 183.153061 -125.802672 
L 179.669833 -123.981458 
L 176.186605 -133.870473 
L 172.703378 -137.472631 
L 169.22015 -138.598035 
L 165.736923 -137.84293 
L 162.253695 -131.556031 
L 158.770468 -138.70549 
L 155.28724 -140.346034 
L 151.804013 -141.805361 
L 148.320785 -137.366887 
L 144.837558 -132.147956 
L 141.35433 -131.24128 
L 137.871103 -134.005662 
L 134.387875 -129.722708 
L 130.904648 -135.587743 
L 127.42142 -134.425229 
L 123.938193 -142.684517 
L 120.454965 -143.290059 
L 116.971738 -144.988218 
L 113.48851 -139.472347 
L 110.005283 -139.110095 
L 106.522055 -138.330735 
L 103.038828 -139.060652 
L 99.5556 -144.511339 
L 96.072373 -146.807373 
L 92.589145 -142.724155 
L 89.105918 -143.745726 
L 85.62269 -141.407756 
L 82.139463 -144.414209 
L 78.656235 -142.899247 
L 75.173008 -140.744469 
L 71.68978 -132.712168 
L 68.206553 -134.247328 
L 64.723325 -131.713417 
L 61.240098 -144.765391 
L 57.75687 -139.881364 
L 54.273643 -132.458236 
L 50.790415 -116.716224 
L 47.307188 -114.304279 
z
" style="stroke: #d3d3d3; stroke-opacity: 0.5"/>
    </defs>
    <g clip-path="url(#p6eb3f990b8)">
     <use xlink:href="#m6781ecaab7" x="0" y="424.5775" style="fill: #d3d3d3; fill-opacity: 0.5; stroke: #d3d3d3; stroke-opacity: 0.5"/>
    </g>
   </g>
   <g id="FillBetweenPolyCollection_2">
    <defs>
     <path id="m86f0a3e39e" d="M 47.307188 -97.958989 
L 47.307188 -65.26841 
L 50.790415 -62.173071 
L 54.273643 -62.756096 
L 57.75687 -65.702997 
L 61.240098 -65.333251 
L 64.723325 -64.33374 
L 68.206553 -63.854716 
L 71.68978 -63.84086 
L 75.173008 -63.014047 
L 78.656235 -65.762793 
L 82.139463 -66.27299 
L 85.62269 -62.890374 
L 89.105918 -62.590517 
L 92.589145 -62.755087 
L 96.072373 -64.031211 
L 99.5556 -64.493921 
L 103.038828 -68.806965 
L 106.522055 -68.547226 
L 110.005283 -66.00822 
L 113.48851 -61.189925 
L 116.971738 -62.493389 
L 120.454965 -65.957135 
L 123.938193 -65.029213 
L 127.42142 -65.7418 
L 130.904648 -62.871557 
L 134.387875 -61.210753 
L 137.871103 -60.956937 
L 141.35433 -61.162758 
L 144.837558 -62.131897 
L 148.320785 -65.375258 
L 151.804013 -62.199514 
L 155.28724 -62.599515 
L 158.770468 -63.296733 
L 162.253695 -62.88267 
L 165.736923 -60.291627 
L 169.22015 -60.641342 
L 172.703378 -63.610846 
L 176.186605 -63.594618 
L 179.669833 -67.368204 
L 183.153061 -61.377928 
L 186.636288 -58.964855 
L 190.119516 -62.011046 
L 193.602743 -57.334842 
L 197.085971 -57.00019 
L 200.569198 -56.932948 
L 204.052426 -53.498779 
L 207.535653 -56.054138 
L 211.018881 -56.997935 
L 214.502108 -61.465541 
L 217.985336 -55.924122 
L 221.468563 -55.19581 
L 224.951791 -59.42286 
L 228.435018 -60.790525 
L 231.918246 -61.32369 
L 235.401473 -62.041403 
L 238.884701 -61.026846 
L 242.367928 -66.950535 
L 245.851156 -58.560622 
L 249.334383 -65.671868 
L 252.817611 -65.711172 
L 256.300838 -64.055824 
L 259.784066 -62.150457 
L 263.267293 -58.871822 
L 266.750521 -61.754938 
L 270.233748 -64.605707 
L 273.716976 -62.307428 
L 277.200203 -64.832326 
L 280.683431 -65.65041 
L 284.166658 -62.982891 
L 287.649886 -62.447094 
L 291.133113 -65.174064 
L 294.616341 -61.2493 
L 298.099568 -63.154328 
L 301.582796 -64.434248 
L 305.066023 -69.110639 
L 308.549251 -66.775357 
L 312.032479 -62.954147 
L 315.515706 -61.305876 
L 318.998934 -60.278134 
L 322.482161 -67.103672 
L 325.965389 -77.677709 
L 329.448616 -74.005827 
L 332.931844 -70.910072 
L 336.415071 -69.273909 
L 339.898299 -69.641309 
L 343.381526 -66.775376 
L 346.864754 -66.246264 
L 350.347981 -65.878056 
L 353.831209 -64.736927 
L 357.314436 -64.23138 
L 360.797664 -59.998037 
L 364.280891 -61.413533 
L 367.764119 -68.806842 
L 371.247346 -67.964677 
L 374.730574 -70.18288 
L 378.213801 -68.454323 
L 381.697029 -62.732043 
L 385.180256 -66.586401 
L 388.663484 -64.662026 
L 392.146711 -59.651747 
L 395.629939 -53.382143 
L 399.113166 -47.847716 
L 402.596394 -43.067162 
L 406.079621 -50.669564 
L 409.562849 -51.913203 
L 413.046076 -61.591479 
L 416.529304 -58.657659 
L 420.012531 -58.409347 
L 423.495759 -66.432846 
L 426.978986 -68.295603 
L 430.462214 -64.376452 
L 433.945441 -68.036083 
L 437.428669 -61.398483 
L 440.911896 -61.473039 
L 444.395124 -62.237591 
L 447.878352 -60.808267 
L 451.361579 -65.195292 
L 454.844807 -65.293889 
L 458.328034 -66.075962 
L 461.811262 -69.191628 
L 465.294489 -74.024486 
L 468.777717 -72.058766 
L 472.260944 -65.298982 
L 475.744172 -59.096406 
L 479.227399 -74.808418 
L 482.710627 -72.339171 
L 486.193854 -68.879681 
L 489.677082 -69.559836 
L 493.160309 -76.539458 
L 496.643537 -71.361954 
L 500.126764 -72.374175 
L 503.609992 -69.269444 
L 507.093219 -60.004067 
L 510.576447 -62.010333 
L 514.059674 -65.307006 
L 517.542902 -71.997328 
L 521.026129 -74.454993 
L 524.509357 -64.558355 
L 527.992584 -64.302571 
L 531.475812 -63.723618 
L 534.959039 -60.833126 
L 538.442267 -59.966985 
L 541.925494 -65.0815 
L 545.408722 -65.511015 
L 548.891949 -66.558893 
L 552.375177 -68.263693 
L 555.858404 -68.143391 
L 559.341632 -63.594135 
L 562.824859 -63.349957 
L 566.308087 -62.894898 
L 569.791314 -63.316054 
L 573.274542 -60.543208 
L 576.75777 -64.286934 
L 580.240997 -65.939183 
L 583.724225 -63.263954 
L 587.207452 -58.996879 
L 590.69068 -58.016812 
L 594.173907 -61.557845 
L 597.657135 -67.134289 
L 601.140362 -64.679038 
L 604.62359 -69.305061 
L 608.106817 -75.208297 
L 611.590045 -78.4135 
L 615.073272 -77.457664 
L 618.5565 -72.854308 
L 622.039727 -70.404681 
L 625.522955 -73.611776 
L 629.006182 -67.577105 
L 632.48941 -70.326627 
L 635.972637 -66.323778 
L 639.455865 -76.588631 
L 642.939092 -70.046143 
L 646.42232 -66.595452 
L 649.905547 -64.142246 
L 653.388775 -64.638856 
L 656.872002 -53.602221 
L 660.35523 -56.542008 
L 663.838457 -59.848569 
L 667.321685 -66.67276 
L 670.804912 -72.882232 
L 674.28814 -67.346389 
L 677.771367 -64.023154 
L 681.254595 -65.91157 
L 684.737822 -63.230827 
L 688.22105 -68.578803 
L 691.704277 -69.819709 
L 695.187505 -66.870979 
L 698.670732 -61.051083 
L 702.15396 -60.148576 
L 705.637188 -64.909193 
L 705.637188 -137.566264 
L 705.637188 -137.566264 
L 702.15396 -142.618415 
L 698.670732 -137.172614 
L 695.187505 -140.686495 
L 691.704277 -135.304701 
L 688.22105 -135.492658 
L 684.737822 -122.293567 
L 681.254595 -138.172044 
L 677.771367 -147.135861 
L 674.28814 -140.719504 
L 670.804912 -142.176433 
L 667.321685 -132.932309 
L 663.838457 -132.266904 
L 660.35523 -143.460074 
L 656.872002 -153.66364 
L 653.388775 -137.034325 
L 649.905547 -127.819493 
L 646.42232 -143.303586 
L 642.939092 -171.976619 
L 639.455865 -164.611608 
L 635.972637 -159.513597 
L 632.48941 -168.047935 
L 629.006182 -160.217673 
L 625.522955 -135.724152 
L 622.039727 -129.577215 
L 618.5565 -145.706086 
L 615.073272 -158.692888 
L 611.590045 -159.284521 
L 608.106817 -156.215472 
L 604.62359 -172.758072 
L 601.140362 -173.792682 
L 597.657135 -156.662215 
L 594.173907 -153.70219 
L 590.69068 -142.12706 
L 587.207452 -133.337287 
L 583.724225 -119.352623 
L 580.240997 -131.60462 
L 576.75777 -129.958465 
L 573.274542 -133.889103 
L 569.791314 -135.367379 
L 566.308087 -133.410371 
L 562.824859 -125.600591 
L 559.341632 -130.045687 
L 555.858404 -125.644228 
L 552.375177 -133.188421 
L 548.891949 -130.619538 
L 545.408722 -125.718863 
L 541.925494 -134.264295 
L 538.442267 -146.287696 
L 534.959039 -135.498615 
L 531.475812 -133.289694 
L 527.992584 -126.029419 
L 524.509357 -126.238469 
L 521.026129 -134.643943 
L 517.542902 -141.872604 
L 514.059674 -141.590131 
L 510.576447 -125.43682 
L 507.093219 -130.538583 
L 503.609992 -160.94827 
L 500.126764 -167.276499 
L 496.643537 -161.889302 
L 493.160309 -147.654059 
L 489.677082 -167.456823 
L 486.193854 -172.124077 
L 482.710627 -155.721935 
L 479.227399 -158.832377 
L 475.744172 -163.724749 
L 472.260944 -138.446361 
L 468.777717 -146.291108 
L 465.294489 -144.710108 
L 461.811262 -135.179269 
L 458.328034 -131.805343 
L 454.844807 -136.171216 
L 451.361579 -127.411417 
L 447.878352 -133.19099 
L 444.395124 -117.488492 
L 440.911896 -110.819395 
L 437.428669 -131.256841 
L 433.945441 -139.030574 
L 430.462214 -134.337365 
L 426.978986 -125.041082 
L 423.495759 -149.903467 
L 420.012531 -155.083828 
L 416.529304 -149.908551 
L 413.046076 -128.469154 
L 409.562849 -125.80756 
L 406.079621 -125.717394 
L 402.596394 -127.314946 
L 399.113166 -127.51507 
L 395.629939 -137.002512 
L 392.146711 -127.306055 
L 388.663484 -126.666547 
L 385.180256 -128.523639 
L 381.697029 -132.771238 
L 378.213801 -140.665009 
L 374.730574 -146.133178 
L 371.247346 -140.639321 
L 367.764119 -127.820633 
L 364.280891 -127.687886 
L 360.797664 -121.439655 
L 357.314436 -122.024875 
L 353.831209 -123.358829 
L 350.347981 -123.299147 
L 346.864754 -124.413869 
L 343.381526 -124.857242 
L 339.898299 -133.156066 
L 336.415071 -138.327569 
L 332.931844 -135.782481 
L 329.448616 -141.960086 
L 325.965389 -143.382244 
L 322.482161 -125.802124 
L 318.998934 -122.0103 
L 315.515706 -127.141631 
L 312.032479 -120.835237 
L 308.549251 -126.864465 
L 305.066023 -127.684958 
L 301.582796 -121.41277 
L 298.099568 -120.396039 
L 294.616341 -118.450519 
L 291.133113 -126.587981 
L 287.649886 -132.284024 
L 284.166658 -136.31024 
L 280.683431 -129.500771 
L 277.200203 -131.758688 
L 273.716976 -131.206809 
L 270.233748 -111.04492 
L 266.750521 -112.603162 
L 263.267293 -116.795009 
L 259.784066 -117.090326 
L 256.300838 -111.959407 
L 252.817611 -103.313871 
L 249.334383 -109.028764 
L 245.851156 -111.254744 
L 242.367928 -121.38829 
L 238.884701 -104.823912 
L 235.401473 -117.978388 
L 231.918246 -127.903314 
L 228.435018 -126.067605 
L 224.951791 -117.044213 
L 221.468563 -129.399753 
L 217.985336 -121.004153 
L 214.502108 -117.985063 
L 211.018881 -122.591456 
L 207.535653 -122.168968 
L 204.052426 -132.818103 
L 200.569198 -130.087228 
L 197.085971 -127.77069 
L 193.602743 -113.821036 
L 190.119516 -104.961322 
L 186.636288 -109.235709 
L 183.153061 -104.327758 
L 179.669833 -105.110373 
L 176.186605 -110.445188 
L 172.703378 -112.852036 
L 169.22015 -112.612471 
L 165.736923 -111.992495 
L 162.253695 -108.664911 
L 158.770468 -113.569238 
L 155.28724 -114.430528 
L 151.804013 -115.270079 
L 148.320785 -113.369678 
L 144.837558 -108.80927 
L 141.35433 -107.881773 
L 137.871103 -109.656087 
L 134.387875 -106.88539 
L 130.904648 -111.349014 
L 127.42142 -111.530753 
L 123.938193 -116.799415 
L 120.454965 -117.512418 
L 116.971738 -117.489942 
L 113.48851 -113.378207 
L 110.005283 -114.742803 
L 106.522055 -115.069566 
L 103.038828 -115.642757 
L 99.5556 -117.838866 
L 96.072373 -119.215319 
L 92.589145 -116.067799 
L 89.105918 -116.69399 
L 85.62269 -115.235295 
L 82.139463 -118.367136 
L 78.656235 -117.187096 
L 75.173008 -114.834328 
L 71.68978 -109.755066 
L 68.206553 -110.783124 
L 64.723325 -109.253525 
L 61.240098 -118.288011 
L 57.75687 -115.155242 
L 54.273643 -109.22419 
L 50.790415 -98.535173 
L 47.307188 -97.958989 
z
" style="stroke: #808080; stroke-opacity: 0.7"/>
    </defs>
    <g clip-path="url(#p6eb3f990b8)">
     <use xlink:href="#m86f0a3e39e" x="0" y="424.5775" style="fill: #808080; fill-opacity: 0.7; stroke: #808080; stroke-opacity: 0.7"/>
    </g>
   </g>
   <g id="line2d_31">
    <path d="M 47.307188 339.900374 
L 50.790415 338.99865 
L 54.273643 324.652835 
L 57.75687 324.384631 
L 61.240098 335.853512 
L 64.723325 328.274104 
L 68.206553 311.168168 
L 71.68978 319.758132 
L 75.173008 310.238885 
L 78.656235 316.888212 
L 82.139463 310.78911 
L 85.62269 309.828184 
L 89.105918 279.541769 
L 92.589145 271.082997 
L 96.072373 293.643506 
L 99.5556 315.275487 
L 103.038828 305.408619 
L 106.522055 344.590778 
L 110.005283 324.211851 
L 113.48851 310.671179 
L 116.971738 314.81168 
L 120.454965 317.785604 
L 123.938193 296.377172 
L 127.42142 305.431208 
L 130.904648 307.125505 
L 134.387875 314.393449 
L 137.871103 311.089048 
L 141.35433 309.783633 
L 144.837558 311.69558 
L 148.320785 307.124024 
L 151.804013 294.550425 
L 155.28724 299.919713 
L 158.770468 302.90701 
L 162.253695 319.806751 
L 165.736923 307.386993 
L 169.22015 299.449734 
L 172.703378 304.620275 
L 176.186605 317.18424 
L 179.669833 313.6019 
L 183.153061 312.291191 
L 186.636288 302.396761 
L 190.119516 298.099873 
L 193.602743 315.943198 
L 197.085971 316.23286 
L 200.569198 324.088881 
L 204.052426 313.354703 
L 207.535653 327.477167 
L 211.018881 335.766465 
L 214.502108 334.656462 
L 217.985336 341.80979 
L 221.468563 337.528007 
L 224.951791 338.871128 
L 228.435018 338.686879 
L 231.918246 334.27186 
L 235.401473 335.186524 
L 238.884701 335.626226 
L 242.367928 342.643348 
L 245.851156 335.624214 
L 249.334383 350.645164 
L 252.817611 334.125868 
L 256.300838 343.91309 
L 259.784066 333.48013 
L 263.267293 330.482307 
L 266.750521 332.029514 
L 270.233748 338.65353 
L 273.716976 335.845858 
L 277.200203 338.640024 
L 280.683431 345.849384 
L 284.166658 338.390749 
L 287.649886 339.298646 
L 291.133113 344.193924 
L 294.616341 339.424949 
L 298.099568 336.533157 
L 301.582796 314.645192 
L 305.066023 317.360851 
L 308.549251 325.14087 
L 312.032479 332.419657 
L 315.515706 328.176693 
L 318.998934 308.9292 
L 322.482161 322.109449 
L 325.965389 325.198804 
L 329.448616 323.509054 
L 332.931844 321.100904 
L 336.415071 314.619065 
L 339.898299 327.156318 
L 343.381526 309.990195 
L 346.864754 308.985785 
L 350.347981 302.661635 
L 353.831209 316.49937 
L 357.314436 315.417816 
L 360.797664 292.773461 
L 364.280891 317.805584 
L 367.764119 320.894099 
L 371.247346 316.469985 
L 374.730574 319.032083 
L 378.213801 307.776678 
L 381.697029 309.860133 
L 385.180256 324.049351 
L 388.663484 326.750157 
L 392.146711 329.808923 
L 395.629939 315.404242 
L 399.113166 272.313468 
L 402.596394 290.879584 
L 406.079621 233.312732 
L 409.562849 286.185337 
L 413.046076 288.852945 
L 416.529304 292.046331 
L 420.012531 299.63363 
L 423.495759 311.485569 
L 426.978986 326.409498 
L 430.462214 300.226832 
L 433.945441 297.686268 
L 437.428669 285.275088 
L 440.911896 310.918385 
L 444.395124 298.028512 
L 447.878352 300.830522 
L 451.361579 295.680078 
L 454.844807 292.873009 
L 458.328034 268.517516 
L 461.811262 277.443305 
L 465.294489 265.270165 
L 468.777717 309.459168 
L 472.260944 307.613745 
L 475.744172 300.185688 
L 479.227399 314.268804 
L 482.710627 289.159449 
L 486.193854 242.980751 
L 489.677082 302.26798 
L 493.160309 306.235281 
L 496.643537 319.73132 
L 500.126764 317.423571 
L 503.609992 334.059135 
L 507.093219 335.10205 
L 510.576447 328.65921 
L 514.059674 325.855639 
L 517.542902 321.136494 
L 521.026129 254.870812 
L 524.509357 228.639078 
L 527.992584 224.409987 
L 531.475812 221.045179 
L 534.959039 250.106749 
L 538.442267 277.642258 
L 541.925494 302.996735 
L 545.408722 253.445826 
L 548.891949 266.782504 
L 552.375177 289.068862 
L 555.858404 289.860261 
L 559.341632 278.77157 
L 562.824859 260.493404 
L 566.308087 295.278056 
L 569.791314 304.196514 
L 573.274542 303.620258 
L 576.75777 313.933967 
L 580.240997 307.794814 
L 583.724225 298.165719 
L 587.207452 280.856235 
L 590.69068 293.205821 
L 594.173907 272.666383 
L 597.657135 291.774746 
L 601.140362 267.269305 
L 604.62359 222.613184 
L 608.106817 240.418345 
L 611.590045 157.539871 
L 615.073272 239.851524 
L 618.5565 205.372283 
L 622.039727 250.022155 
L 625.522955 241.386063 
L 629.006182 251.714977 
L 632.48941 288.835787 
L 635.972637 288.667263 
L 639.455865 293.500054 
L 642.939092 241.505661 
L 646.42232 246.031058 
L 649.905547 267.802517 
L 653.388775 235.598989 
L 656.872002 194.176073 
L 660.35523 232.812814 
L 663.838457 266.138969 
L 667.321685 253.98821 
L 670.804912 249.597514 
L 674.28814 232.940573 
L 677.771367 217.545546 
L 681.254595 237.306452 
L 684.737822 231.080826 
L 688.22105 251.067059 
L 691.704277 256.639161 
L 695.187505 260.906846 
L 698.670732 280.882892 
L 702.15396 290.132444 
L 705.637188 249.468614 
L 705.637188 249.468614 
" clip-path="url(#p6eb3f990b8)" style="fill: none; stroke: #ff8c00; stroke-width: 2.3; stroke-linecap: square"/>
   </g>
   <g id="line2d_32">
    <path d="M 277.200203 384.117812 
L 277.200203 23.837812 
" clip-path="url(#p6eb3f990b8)" style="fill: none; stroke-dasharray: 5.55,2.4; stroke-dashoffset: 0; stroke: #808080; stroke-width: 1.5"/>
   </g>
   <g id="line2d_33">
    <path d="M 475.744172 384.117812 
L 475.744172 23.837812 
" clip-path="url(#p6eb3f990b8)" style="fill: none; stroke-dasharray: 5.55,2.4; stroke-dashoffset: 0; stroke: #808080; stroke-width: 1.5"/>
   </g>
   <g id="patch_3">
    <path d="M 47.307188 384.117812 
L 47.307188 23.837812 
" style="fill: none; stroke: #000000; stroke-width: 0.8; stroke-linejoin: miter; stroke-linecap: square"/>
   </g>
   <g id="patch_4">
    <path d="M 705.637188 384.117812 
L 705.637188 23.837812 
" style="fill: none; stroke: #000000; stroke-width: 0.8; stroke-linejoin: miter; stroke-linecap: square"/>
   </g>
   <g id="patch_5">
    <path d="M 47.307188 384.117812 
L 705.637188 384.117812 
" style="fill: none; stroke: #000000; stroke-width: 0.8; stroke-linejoin: miter; stroke-linecap: square"/>
   </g>
   <g id="patch_6">
    <path d="M 47.307188 23.837812 
L 705.637188 23.837812 
" style="fill: none; stroke: #000000; stroke-width: 0.8; stroke-linejoin: miter; stroke-linecap: square"/>
   </g>
   <g id="text_18">
    <!-- Facial trace: Autism spectrum condition (ASC) (male) -->
    <g transform="translate(190.721719 17.837812) scale(0.14 -0.14)">
     <defs>
      <path id="DejaVuSans-46" d="M 628 4666 
L 3309 4666 
L 3309 4134 
L 1259 4134 
L 1259 2759 
L 3109 2759 
L 3109 2228 
L 1259 2228 
L 1259 0 
L 628 0 
L 628 4666 
z
" transform="scale(0.015625)"/>
      <path id="DejaVuSans-63" d="M 3122 3366 
L 3122 2828 
Q 2878 2963 2633 3030 
Q 2388 3097 2138 3097 
Q 1578 3097 1268 2742 
Q 959 2388 959 1747 
Q 959 1106 1268 751 
Q 1578 397 2138 397 
Q 2388 397 2633 464 
Q 2878 531 3122 666 
L 3122 134 
Q 2881 22 2623 -34 
Q 2366 -91 2075 -91 
Q 1284 -91 818 406 
Q 353 903 353 1747 
Q 353 2603 823 3093 
Q 1294 3584 2113 3584 
Q 2378 3584 2631 3529 
Q 2884 3475 3122 3366 
z
" transform="scale(0.015625)"/>
      <path id="DejaVuSans-6c" d="M 603 4863 
L 1178 4863 
L 1178 0 
L 603 0 
L 603 4863 
z
" transform="scale(0.015625)"/>
      <path id="DejaVuSans-72" d="M 2631 2963 
Q 2534 3019 2420 3045 
Q 2306 3072 2169 3072 
Q 1681 3072 1420 2755 
Q 1159 2438 1159 1844 
L 1159 0 
L 581 0 
L 581 3500 
L 1159 3500 
L 1159 2956 
Q 1341 3275 1631 3429 
Q 1922 3584 2338 3584 
Q 2397 3584 2469 3576 
Q 2541 3569 2628 3553 
L 2631 2963 
z
" transform="scale(0.015625)"/>
      <path id="DejaVuSans-3a" d="M 750 794 
L 1409 794 
L 1409 0 
L 750 0 
L 750 794 
z
M 750 3309 
L 1409 3309 
L 1409 2516 
L 750 2516 
L 750 3309 
z
" transform="scale(0.015625)"/>
      <path id="DejaVuSans-75" d="M 544 1381 
L 544 3500 
L 1119 3500 
L 1119 1403 
Q 1119 906 1312 657 
Q 1506 409 1894 409 
Q 2359 409 2629 706 
Q 2900 1003 2900 1516 
L 2900 3500 
L 3475 3500 
L 3475 0 
L 2900 0 
L 2900 538 
Q 2691 219 2414 64 
Q 2138 -91 1772 -91 
Q 1169 -91 856 284 
Q 544 659 544 1381 
z
M 1991 3584 
L 1991 3584 
z
" transform="scale(0.015625)"/>
      <path id="DejaVuSans-70" d="M 1159 525 
L 1159 -1331 
L 581 -1331 
L 581 3500 
L 1159 3500 
L 1159 2969 
Q 1341 3281 1617 3432 
Q 1894 3584 2278 3584 
Q 2916 3584 3314 3078 
Q 3713 2572 3713 1747 
Q 3713 922 3314 415 
Q 2916 -91 2278 -91 
Q 1894 -91 1617 61 
Q 1341 213 1159 525 
z
M 3116 1747 
Q 3116 2381 2855 2742 
Q 2594 3103 2138 3103 
Q 1681 3103 1420 2742 
Q 1159 2381 1159 1747 
Q 1159 1113 1420 752 
Q 1681 391 2138 391 
Q 2594 391 2855 752 
Q 3116 1113 3116 1747 
z
" transform="scale(0.015625)"/>
      <path id="DejaVuSans-6f" d="M 1959 3097 
Q 1497 3097 1228 2736 
Q 959 2375 959 1747 
Q 959 1119 1226 758 
Q 1494 397 1959 397 
Q 2419 397 2687 759 
Q 2956 1122 2956 1747 
Q 2956 2369 2687 2733 
Q 2419 3097 1959 3097 
z
M 1959 3584 
Q 2709 3584 3137 3096 
Q 3566 2609 3566 1747 
Q 3566 888 3137 398 
Q 2709 -91 1959 -91 
Q 1206 -91 779 398 
Q 353 888 353 1747 
Q 353 2609 779 3096 
Q 1206 3584 1959 3584 
z
" transform="scale(0.015625)"/>
      <path id="DejaVuSans-64" d="M 2906 2969 
L 2906 4863 
L 3481 4863 
L 3481 0 
L 2906 0 
L 2906 525 
Q 2725 213 2448 61 
Q 2172 -91 1784 -91 
Q 1150 -91 751 415 
Q 353 922 353 1747 
Q 353 2572 751 3078 
Q 1150 3584 1784 3584 
Q 2172 3584 2448 3432 
Q 2725 3281 2906 2969 
z
M 947 1747 
Q 947 1113 1208 752 
Q 1469 391 1925 391 
Q 2381 391 2643 752 
Q 2906 1113 2906 1747 
Q 2906 2381 2643 2742 
Q 2381 3103 1925 3103 
Q 1469 3103 1208 2742 
Q 947 2381 947 1747 
z
" transform="scale(0.015625)"/>
      <path id="DejaVuSans-53" d="M 3425 4513 
L 3425 3897 
Q 3066 4069 2747 4153 
Q 2428 4238 2131 4238 
Q 1616 4238 1336 4038 
Q 1056 3838 1056 3469 
Q 1056 3159 1242 3001 
Q 1428 2844 1947 2747 
L 2328 2669 
Q 3034 2534 3370 2195 
Q 3706 1856 3706 1288 
Q 3706 609 3251 259 
Q 2797 -91 1919 -91 
Q 1588 -91 1214 -16 
Q 841 59 441 206 
L 441 856 
Q 825 641 1194 531 
Q 1563 422 1919 422 
Q 2459 422 2753 634 
Q 3047 847 3047 1241 
Q 3047 1584 2836 1778 
Q 2625 1972 2144 2069 
L 1759 2144 
Q 1053 2284 737 2584 
Q 422 2884 422 3419 
Q 422 4038 858 4394 
Q 1294 4750 2059 4750 
Q 2388 4750 2728 4690 
Q 3069 4631 3425 4513 
z
" transform="scale(0.015625)"/>
      <path id="DejaVuSans-43" d="M 4122 4306 
L 4122 3641 
Q 3803 3938 3442 4084 
Q 3081 4231 2675 4231 
Q 1875 4231 1450 3742 
Q 1025 3253 1025 2328 
Q 1025 1406 1450 917 
Q 1875 428 2675 428 
Q 3081 428 3442 575 
Q 3803 722 4122 1019 
L 4122 359 
Q 3791 134 3420 21 
Q 3050 -91 2638 -91 
Q 1578 -91 968 557 
Q 359 1206 359 2328 
Q 359 3453 968 4101 
Q 1578 4750 2638 4750 
Q 3056 4750 3426 4639 
Q 3797 4528 4122 4306 
z
" transform="scale(0.015625)"/>
     </defs>
     <use xlink:href="#DejaVuSans-46"/>
     <use xlink:href="#DejaVuSans-61" transform="translate(48.394531 0)"/>
     <use xlink:href="#DejaVuSans-63" transform="translate(109.673828 0)"/>
     <use xlink:href="#DejaVuSans-69" transform="translate(164.654297 0)"/>
     <use xlink:href="#DejaVuSans-61" transform="translate(192.4375 0)"/>
     <use xlink:href="#DejaVuSans-6c" transform="translate(253.716797 0)"/>
     <use xlink:href="#DejaVuSans-20" transform="translate(281.5 0)"/>
     <use xlink:href="#DejaVuSans-74" transform="translate(313.287109 0)"/>
     <use xlink:href="#DejaVuSans-72" transform="translate(352.496094 0)"/>
     <use xlink:href="#DejaVuSans-61" transform="translate(393.609375 0)"/>
     <use xlink:href="#DejaVuSans-63" transform="translate(454.888672 0)"/>
     <use xlink:href="#DejaVuSans-65" transform="translate(509.869141 0)"/>
     <use xlink:href="#DejaVuSans-3a" transform="translate(571.392578 0)"/>
     <use xlink:href="#DejaVuSans-20" transform="translate(605.083984 0)"/>
     <use xlink:href="#DejaVuSans-41" transform="translate(636.871094 0)"/>
     <use xlink:href="#DejaVuSans-75" transform="translate(705.279297 0)"/>
     <use xlink:href="#DejaVuSans-74" transform="translate(768.658203 0)"/>
     <use xlink:href="#DejaVuSans-69" transform="translate(807.867188 0)"/>
     <use xlink:href="#DejaVuSans-73" transform="translate(835.650391 0)"/>
     <use xlink:href="#DejaVuSans-6d" transform="translate(887.75 0)"/>
     <use xlink:href="#DejaVuSans-20" transform="translate(985.162109 0)"/>
     <use xlink:href="#DejaVuSans-73" transform="translate(1016.949219 0)"/>
     <use xlink:href="#DejaVuSans-70" transform="translate(1069.048828 0)"/>
     <use xlink:href="#DejaVuSans-65" transform="translate(1132.525391 0)"/>
     <use xlink:href="#DejaVuSans-63" transform="translate(1194.048828 0)"/>
     <use xlink:href="#DejaVuSans-74" transform="translate(1249.029297 0)"/>
     <use xlink:href="#DejaVuSans-72" transform="translate(1288.238281 0)"/>
     <use xlink:href="#DejaVuSans-75" transform="translate(1329.351562 0)"/>
     <use xlink:href="#DejaVuSans-6d" transform="translate(1392.730469 0)"/>
     <use xlink:href="#DejaVuSans-20" transform="translate(1490.142578 0)"/>
     <use xlink:href="#DejaVuSans-63" transform="translate(1521.929688 0)"/>
     <use xlink:href="#DejaVuSans-6f" transform="translate(1576.910156 0)"/>
     <use xlink:href="#DejaVuSans-6e" transform="translate(1638.091797 0)"/>
     <use xlink:href="#DejaVuSans-64" transform="translate(1701.470703 0)"/>
     <use xlink:href="#DejaVuSans-69" transform="translate(1764.947266 0)"/>
     <use xlink:href="#DejaVuSans-74" transform="translate(1792.730469 0)"/>
     <use xlink:href="#DejaVuSans-69" transform="translate(1831.939453 0)"/>
     <use xlink:href="#DejaVuSans-6f" transform="translate(1859.722656 0)"/>
     <use xlink:href="#DejaVuSans-6e" transform="translate(1920.904297 0)"/>
     <use xlink:href="#DejaVuSans-20" transform="translate(1984.283203 0)"/>
     <use xlink:href="#DejaVuSans-28" transform="translate(2016.070312 0)"/>
     <use xlink:href="#DejaVuSans-41" transform="translate(2055.083984 0)"/>
     <use xlink:href="#DejaVuSans-53" transform="translate(2123.492188 0)"/>
     <use xlink:href="#DejaVuSans-43" transform="translate(2186.96875 0)"/>
     <use xlink:href="#DejaVuSans-29" transform="translate(2256.792969 0)"/>
     <use xlink:href="#DejaVuSans-20" transform="translate(2295.806641 0)"/>
     <use xlink:href="#DejaVuSans-28" transform="translate(2327.59375 0)"/>
     <use xlink:href="#DejaVuSans-6d" transform="translate(2366.607422 0)"/>
     <use xlink:href="#DejaVuSans-61" transform="translate(2464.019531 0)"/>
     <use xlink:href="#DejaVuSans-6c" transform="translate(2525.298828 0)"/>
     <use xlink:href="#DejaVuSans-65" transform="translate(2553.082031 0)"/>
     <use xlink:href="#DejaVuSans-29" transform="translate(2614.605469 0)"/>
    </g>
   </g>
   <g id="legend_1">
    <g id="patch_7">
     <path d="M 443.795938 42.096094 
L 465.795938 42.096094 
L 465.795938 34.396094 
L 443.795938 34.396094 
z
" style="fill: #d3d3d3; fill-opacity: 0.5; stroke: #d3d3d3; stroke-opacity: 0.5; stroke-linejoin: miter"/>
    </g>
    <g id="text_19">
     <!-- Autism spectrum condition (ASC) ±2 SD -->
     <g transform="translate(474.595938 42.096094) scale(0.11 -0.11)">
      <defs>
       <path id="DejaVuSans-b1" d="M 2944 4013 
L 2944 2803 
L 4684 2803 
L 4684 2272 
L 2944 2272 
L 2944 1063 
L 2419 1063 
L 2419 2272 
L 678 2272 
L 678 2803 
L 2419 2803 
L 2419 4013 
L 2944 4013 
z
M 678 531 
L 4684 531 
L 4684 0 
L 678 0 
L 678 531 
z
" transform="scale(0.015625)"/>
       <path id="DejaVuSans-44" d="M 1259 4147 
L 1259 519 
L 2022 519 
Q 2988 519 3436 956 
Q 3884 1394 3884 2338 
Q 3884 3275 3436 3711 
Q 2988 4147 2022 4147 
L 1259 4147 
z
M 628 4666 
L 1925 4666 
Q 3281 4666 3915 4102 
Q 4550 3538 4550 2338 
Q 4550 1131 3912 565 
Q 3275 0 1925 0 
L 628 0 
L 628 4666 
z
" transform="scale(0.015625)"/>
      </defs>
      <use xlink:href="#DejaVuSans-41"/>
      <use xlink:href="#DejaVuSans-75" transform="translate(68.408203 0)"/>
      <use xlink:href="#DejaVuSans-74" transform="translate(131.787109 0)"/>
      <use xlink:href="#DejaVuSans-69" transform="translate(170.996094 0)"/>
      <use xlink:href="#DejaVuSans-73" transform="translate(198.779297 0)"/>
      <use xlink:href="#DejaVuSans-6d" transform="translate(250.878906 0)"/>
      <use xlink:href="#DejaVuSans-20" transform="translate(348.291016 0)"/>
      <use xlink:href="#DejaVuSans-73" transform="translate(380.078125 0)"/>
      <use xlink:href="#DejaVuSans-70" transform="translate(432.177734 0)"/>
      <use xlink:href="#DejaVuSans-65" transform="translate(495.654297 0)"/>
      <use xlink:href="#DejaVuSans-63" transform="translate(557.177734 0)"/>
      <use xlink:href="#DejaVuSans-74" transform="translate(612.158203 0)"/>
      <use xlink:href="#DejaVuSans-72" transform="translate(651.367188 0)"/>
      <use xlink:href="#DejaVuSans-75" transform="translate(692.480469 0)"/>
      <use xlink:href="#DejaVuSans-6d" transform="translate(755.859375 0)"/>
      <use xlink:href="#DejaVuSans-20" transform="translate(853.271484 0)"/>
      <use xlink:href="#DejaVuSans-63" transform="translate(885.058594 0)"/>
      <use xlink:href="#DejaVuSans-6f" transform="translate(940.039062 0)"/>
      <use xlink:href="#DejaVuSans-6e" transform="translate(1001.220703 0)"/>
      <use xlink:href="#DejaVuSans-64" transform="translate(1064.599609 0)"/>
      <use xlink:href="#DejaVuSans-69" transform="translate(1128.076172 0)"/>
      <use xlink:href="#DejaVuSans-74" transform="translate(1155.859375 0)"/>
      <use xlink:href="#DejaVuSans-69" transform="translate(1195.068359 0)"/>
      <use xlink:href="#DejaVuSans-6f" transform="translate(1222.851562 0)"/>
      <use xlink:href="#DejaVuSans-6e" transform="translate(1284.033203 0)"/>
      <use xlink:href="#DejaVuSans-20" transform="translate(1347.412109 0)"/>
      <use xlink:href="#DejaVuSans-28" transform="translate(1379.199219 0)"/>
      <use xlink:href="#DejaVuSans-41" transform="translate(1418.212891 0)"/>
      <use xlink:href="#DejaVuSans-53" transform="translate(1486.621094 0)"/>
      <use xlink:href="#DejaVuSans-43" transform="translate(1550.097656 0)"/>
      <use xlink:href="#DejaVuSans-29" transform="translate(1619.921875 0)"/>
      <use xlink:href="#DejaVuSans-20" transform="translate(1658.935547 0)"/>
      <use xlink:href="#DejaVuSans-b1" transform="translate(1690.722656 0)"/>
      <use xlink:href="#DejaVuSans-32" transform="translate(1774.511719 0)"/>
      <use xlink:href="#DejaVuSans-20" transform="translate(1838.134766 0)"/>
      <use xlink:href="#DejaVuSans-53" transform="translate(1869.921875 0)"/>
      <use xlink:href="#DejaVuSans-44" transform="translate(1933.398438 0)"/>
     </g>
    </g>
    <g id="patch_8">
     <path d="M 443.795938 58.242031 
L 465.795938 58.242031 
L 465.795938 50.542031 
L 443.795938 50.542031 
z
" style="fill: #808080; fill-opacity: 0.7; stroke: #808080; stroke-opacity: 0.7; stroke-linejoin: miter"/>
    </g>
    <g id="text_20">
     <!-- Autism spectrum condition (ASC) ±1 SD -->
     <g transform="translate(474.595938 58.242031) scale(0.11 -0.11)">
      <use xlink:href="#DejaVuSans-41"/>
      <use xlink:href="#DejaVuSans-75" transform="translate(68.408203 0)"/>
      <use xlink:href="#DejaVuSans-74" transform="translate(131.787109 0)"/>
      <use xlink:href="#DejaVuSans-69" transform="translate(170.996094 0)"/>
      <use xlink:href="#DejaVuSans-73" transform="translate(198.779297 0)"/>
      <use xlink:href="#DejaVuSans-6d" transform="translate(250.878906 0)"/>
      <use xlink:href="#DejaVuSans-20" transform="translate(348.291016 0)"/>
      <use xlink:href="#DejaVuSans-73" transform="translate(380.078125 0)"/>
      <use xlink:href="#DejaVuSans-70" transform="translate(432.177734 0)"/>
      <use xlink:href="#DejaVuSans-65" transform="translate(495.654297 0)"/>
      <use xlink:href="#DejaVuSans-63" transform="translate(557.177734 0)"/>
      <use xlink:href="#DejaVuSans-74" transform="translate(612.158203 0)"/>
      <use xlink:href="#DejaVuSans-72" transform="translate(651.367188 0)"/>
      <use xlink:href="#DejaVuSans-75" transform="translate(692.480469 0)"/>
      <use xlink:href="#DejaVuSans-6d" transform="translate(755.859375 0)"/>
      <use xlink:href="#DejaVuSans-20" transform="translate(853.271484 0)"/>
      <use xlink:href="#DejaVuSans-63" transform="translate(885.058594 0)"/>
      <use xlink:href="#DejaVuSans-6f" transform="translate(940.039062 0)"/>
      <use xlink:href="#DejaVuSans-6e" transform="translate(1001.220703 0)"/>
      <use xlink:href="#DejaVuSans-64" transform="translate(1064.599609 0)"/>
      <use xlink:href="#DejaVuSans-69" transform="translate(1128.076172 0)"/>
      <use xlink:href="#DejaVuSans-74" transform="translate(1155.859375 0)"/>
      <use xlink:href="#DejaVuSans-69" transform="translate(1195.068359 0)"/>
      <use xlink:href="#DejaVuSans-6f" transform="translate(1222.851562 0)"/>
      <use xlink:href="#DejaVuSans-6e" transform="translate(1284.033203 0)"/>
      <use xlink:href="#DejaVuSans-20" transform="translate(1347.412109 0)"/>
      <use xlink:href="#DejaVuSans-28" transform="translate(1379.199219 0)"/>
      <use xlink:href="#DejaVuSans-41" transform="translate(1418.212891 0)"/>
      <use xlink:href="#DejaVuSans-53" transform="translate(1486.621094 0)"/>
      <use xlink:href="#DejaVuSans-43" transform="translate(1550.097656 0)"/>
      <use xlink:href="#DejaVuSans-29" transform="translate(1619.921875 0)"/>
      <use xlink:href="#DejaVuSans-20" transform="translate(1658.935547 0)"/>
      <use xlink:href="#DejaVuSans-b1" transform="translate(1690.722656 0)"/>
      <use xlink:href="#DejaVuSans-31" transform="translate(1774.511719 0)"/>
      <use xlink:href="#DejaVuSans-20" transform="translate(1838.134766 0)"/>
      <use xlink:href="#DejaVuSans-53" transform="translate(1869.921875 0)"/>
      <use xlink:href="#DejaVuSans-44" transform="translate(1933.398438 0)"/>
     </g>
    </g>
    <g id="line2d_34">
     <path d="M 443.795938 70.537969 
L 454.795938 70.537969 
L 465.795938 70.537969 
" style="fill: none; stroke: #ff8c00; stroke-width: 2.3; stroke-linecap: square"/>
    </g>
    <g id="text_21">
     <!-- Patient -->
     <g transform="translate(474.595938 74.387969) scale(0.11 -0.11)">
      <defs>
       <path id="DejaVuSans-50" d="M 1259 4147 
L 1259 2394 
L 2053 2394 
Q 2494 2394 2734 2622 
Q 2975 2850 2975 3272 
Q 2975 3691 2734 3919 
Q 2494 4147 2053 4147 
L 1259 4147 
z
M 628 4666 
L 2053 4666 
Q 2838 4666 3239 4311 
Q 3641 3956 3641 3272 
Q 3641 2581 3239 2228 
Q 2838 1875 2053 1875 
L 1259 1875 
L 1259 0 
L 628 0 
L 628 4666 
z
" transform="scale(0.015625)"/>
      </defs>
      <use xlink:href="#DejaVuSans-50"/>
      <use xlink:href="#DejaVuSans-61" transform="translate(55.802734 0)"/>
      <use xlink:href="#DejaVuSans-74" transform="translate(117.082031 0)"/>
      <use xlink:href="#DejaVuSans-69" transform="translate(156.291016 0)"/>
      <use xlink:href="#DejaVuSans-65" transform="translate(184.074219 0)"/>
      <use xlink:href="#DejaVuSans-6e" transform="translate(245.597656 0)"/>
      <use xlink:href="#DejaVuSans-74" transform="translate(308.976562 0)"/>
     </g>
    </g>
   </g>
  </g>
 </g>
 <defs>
  <clipPath id="p6eb3f990b8">
   <rect x="47.307188" y="23.837812" width="658.33" height="360.28"/>
  </clipPath>
 </defs>
</svg>
