<?xml version="1.0" encoding="utf-8" standalone="no"?>
<!DOCTYPE svg PUBLIC "-//W3C//DTD SVG 1.1//EN"
  "http://www.w3.org/Graphics/SVG/1.1/DTD/svg11.dtd">
<svg xmlns:xlink="http://www.w3.org/1999/xlink" width="676.845937pt" height="391.52407pt" viewBox="0 0 676.845937 391.52407" xmlns="http://www.w3.org/2000/svg" version="1.1">
 <metadata>
  <rdf:RDF xmlns:dc="http://purl.org/dc/elements/1.1/" xmlns:cc="http://creativecommons.org/ns#" xmlns:rdf="http://www.w3.org/1999/02/22-rdf-syntax-ns#">
   <cc:Work>
    <dc:type rdf:resource="http://purl.org/dc/dcmitype/StillImage"/>
    <dc:date>2026-06-23T21:41:27.463032</dc:date>
    <dc:format>image/svg+xml</dc:format>
    <dc:creator>
     <cc:Agent>
      <dc:title>Matplotlib v3.10.1, https://matplotlib.org/</dc:title>
     </cc:Agent>
    </dc:creator>
   </cc:Work>
  </rdf:RDF>
 </metadata>
 <defs>
  <style type="text/css">*{stroke-linejoin: round; stroke-linecap: butt}</style>
 </defs>
 <g id="figure_1">
  <g id="patch_1">
   <path d="M -0 391.52407 
L 676.845937 391.52407 
L 676.845937 0 
L -0 0 
z
" style="fill: #ffffff"/>
  </g>
  <g id="axes_1">
   <g id="patch_2">
    <path d="M 54.305937 338.606376 
L 225.525937 338.606376 
L 225.525937 34.56 
L 54.305937 34.56 
z
" style="fill: #ffffff"/>
   </g>
   <g id="matplotlib.axis_1">
    <g id="xtick_1">
     <g id="line2d_1">
      <path d="M 139.915937 338.606376 
L 139.915937 34.56 
" clip-path="url(#pad32e8572f)" style="fill: none; stroke: #b0b0b0; stroke-opacity: 0.2; stroke-width: 0.6; stroke-linecap: square"/>
     </g>
     <g id="line2d_2">
      <defs>
       <path id="mad2678c426" d="M 0 0 
L 0 3.5 
" style="stroke: #000000; stroke-width: 0.8"/>
      </defs>
      <g>
       <use xlink:href="#mad2678c426" x="139.915937" y="338.606376" style="stroke: #000000; stroke-width: 0.8"/>
      </g>
     </g>
     <g id="text_1">
      <!-- Pitch variability -->
      <g transform="translate(57.400359 375.631189) rotate(-15) scale(0.11 -0.11)">
       <defs>
        <path id="DejaVuSans-50" d="M 1259 4147 
L 1259 2394 
L 2053 2394 
Q 2494 2394 2734 2622 
Q 2975 2850 2975 3272 
Q 2975 3691 2734 3919 
Q 2494 4147 2053 4147 
L 1259 4147 
z
M 628 4666 
L 2053 4666 
Q 2838 4666 3239 4311 
Q 3641 3956 3641 3272 
Q 3641 2581 3239 2228 
Q 2838 1875 2053 1875 
L 1259 1875 
L 1259 0 
L 628 0 
L 628 4666 
z
" transform="scale(0.015625)"/>
        <path id="DejaVuSans-69" d="M 603 3500 
L 1178 3500 
L 1178 0 
L 603 0 
L 603 3500 
z
M 603 4863 
L 1178 4863 
L 1178 4134 
L 603 4134 
L 603 4863 
z
" transform="scale(0.015625)"/>
        <path id="DejaVuSans-74" d="M 1172 4494 
L 1172 3500 
L 2356 3500 
L 2356 3053 
L 1172 3053 
L 1172 1153 
Q 1172 725 1289 603 
Q 1406 481 1766 481 
L 2356 481 
L 2356 0 
L 1766 0 
Q 1100 0 847 248 
Q 594 497 594 1153 
L 594 3053 
L 172 3053 
L 172 3500 
L 594 3500 
L 594 4494 
L 1172 4494 
z
" transform="scale(0.015625)"/>
        <path id="DejaVuSans-63" d="M 3122 3366 
L 3122 2828 
Q 2878 2963 2633 3030 
Q 2388 3097 2138 3097 
Q 1578 3097 1268 2742 
Q 959 2388 959 1747 
Q 959 1106 1268 751 
Q 1578 397 2138 397 
Q 2388 397 2633 464 
Q 2878 531 3122 666 
L 3122 134 
Q 2881 22 2623 -34 
Q 2366 -91 2075 -91 
Q 1284 -91 818 406 
Q 353 903 353 1747 
Q 353 2603 823 3093 
Q 1294 3584 2113 3584 
Q 2378 3584 2631 3529 
Q 2884 3475 3122 3366 
z
" transform="scale(0.015625)"/>
        <path id="DejaVuSans-68" d="M 3513 2113 
L 3513 0 
L 2938 0 
L 2938 2094 
Q 2938 2591 2744 2837 
Q 2550 3084 2163 3084 
Q 1697 3084 1428 2787 
Q 1159 2491 1159 1978 
L 1159 0 
L 581 0 
L 581 4863 
L 1159 4863 
L 1159 2956 
Q 1366 3272 1645 3428 
Q 1925 3584 2291 3584 
Q 2894 3584 3203 3211 
Q 3513 2838 3513 2113 
z
" transform="scale(0.015625)"/>
        <path id="DejaVuSans-20" transform="scale(0.015625)"/>
        <path id="DejaVuSans-76" d="M 191 3500 
L 800 3500 
L 1894 563 
L 2988 3500 
L 3597 3500 
L 2284 0 
L 1503 0 
L 191 3500 
z
" transform="scale(0.015625)"/>
        <path id="DejaVuSans-61" d="M 2194 1759 
Q 1497 1759 1228 1600 
Q 959 1441 959 1056 
Q 959 750 1161 570 
Q 1363 391 1709 391 
Q 2188 391 2477 730 
Q 2766 1069 2766 1631 
L 2766 1759 
L 2194 1759 
z
M 3341 1997 
L 3341 0 
L 2766 0 
L 2766 531 
Q 2569 213 2275 61 
Q 1981 -91 1556 -91 
Q 1019 -91 701 211 
Q 384 513 384 1019 
Q 384 1609 779 1909 
Q 1175 2209 1959 2209 
L 2766 2209 
L 2766 2266 
Q 2766 2663 2505 2880 
Q 2244 3097 1772 3097 
Q 1472 3097 1187 3025 
Q 903 2953 641 2809 
L 641 3341 
Q 956 3463 1253 3523 
Q 1550 3584 1831 3584 
Q 2591 3584 2966 3190 
Q 3341 2797 3341 1997 
z
" transform="scale(0.015625)"/>
        <path id="DejaVuSans-72" d="M 2631 2963 
Q 2534 3019 2420 3045 
Q 2306 3072 2169 3072 
Q 1681 3072 1420 2755 
Q 1159 2438 1159 1844 
L 1159 0 
L 581 0 
L 581 3500 
L 1159 3500 
L 1159 2956 
Q 1341 3275 1631 3429 
Q 1922 3584 2338 3584 
Q 2397 3584 2469 3576 
Q 2541 3569 2628 3553 
L 2631 2963 
z
" transform="scale(0.015625)"/>
        <path id="DejaVuSans-62" d="M 3116 1747 
Q 3116 2381 2855 2742 
Q 2594 3103 2138 3103 
Q 1681 3103 1420 2742 
Q 1159 2381 1159 1747 
Q 1159 1113 1420 752 
Q 1681 391 2138 391 
Q 2594 391 2855 752 
Q 3116 1113 3116 1747 
z
M 1159 2969 
Q 1341 3281 1617 3432 
Q 1894 3584 2278 3584 
Q 2916 3584 3314 3078 
Q 3713 2572 3713 1747 
Q 3713 922 3314 415 
Q 2916 -91 2278 -91 
Q 1894 -91 1617 61 
Q 1341 213 1159 525 
L 1159 0 
L 581 0 
L 581 4863 
L 1159 4863 
L 1159 2969 
z
" transform="scale(0.015625)"/>
        <path id="DejaVuSans-6c" d="M 603 4863 
L 1178 4863 
L 1178 0 
L 603 0 
L 603 4863 
z
" transform="scale(0.015625)"/>
        <path id="DejaVuSans-79" d="M 2059 -325 
Q 1816 -950 1584 -1140 
Q 1353 -1331 966 -1331 
L 506 -1331 
L 506 -850 
L 844 -850 
Q 1081 -850 1212 -737 
Q 1344 -625 1503 -206 
L 1606 56 
L 191 3500 
L 800 3500 
L 1894 763 
L 2988 3500 
L 3597 3500 
L 2059 -325 
z
" transform="scale(0.015625)"/>
       </defs>
       <use xlink:href="#DejaVuSans-50"/>
       <use xlink:href="#DejaVuSans-69" transform="translate(58.052734 0)"/>
       <use xlink:href="#DejaVuSans-74" transform="translate(85.835938 0)"/>
       <use xlink:href="#DejaVuSans-63" transform="translate(125.044922 0)"/>
       <use xlink:href="#DejaVuSans-68" transform="translate(180.025391 0)"/>
       <use xlink:href="#DejaVuSans-20" transform="translate(243.404297 0)"/>
       <use xlink:href="#DejaVuSans-76" transform="translate(275.191406 0)"/>
       <use xlink:href="#DejaVuSans-61" transform="translate(334.371094 0)"/>
       <use xlink:href="#DejaVuSans-72" transform="translate(395.650391 0)"/>
       <use xlink:href="#DejaVuSans-69" transform="translate(436.763672 0)"/>
       <use xlink:href="#DejaVuSans-61" transform="translate(464.546875 0)"/>
       <use xlink:href="#DejaVuSans-62" transform="translate(525.826172 0)"/>
       <use xlink:href="#DejaVuSans-69" transform="translate(589.302734 0)"/>
       <use xlink:href="#DejaVuSans-6c" transform="translate(617.085938 0)"/>
       <use xlink:href="#DejaVuSans-69" transform="translate(644.869141 0)"/>
       <use xlink:href="#DejaVuSans-74" transform="translate(672.652344 0)"/>
       <use xlink:href="#DejaVuSans-79" transform="translate(711.861328 0)"/>
      </g>
     </g>
    </g>
   </g>
   <g id="matplotlib.axis_2">
    <g id="ytick_1">
     <g id="line2d_3">
      <path d="M 54.305937 308.860216 
L 225.525937 308.860216 
" clip-path="url(#pad32e8572f)" style="fill: none; stroke: #b0b0b0; stroke-opacity: 0.2; stroke-width: 0.6; stroke-linecap: square"/>
     </g>
     <g id="line2d_4">
      <defs>
       <path id="m7998e7c2f3" d="M 0 0 
L -3.5 0 
" style="stroke: #000000; stroke-width: 0.8"/>
      </defs>
      <g>
       <use xlink:href="#m7998e7c2f3" x="54.305937" y="308.860216" style="stroke: #000000; stroke-width: 0.8"/>
      </g>
     </g>
     <g id="text_2">
      <!-- 5.0 -->
      <g transform="translate(29.8125 313.039357) scale(0.11 -0.11)">
       <defs>
        <path id="DejaVuSans-35" d="M 691 4666 
L 3169 4666 
L 3169 4134 
L 1269 4134 
L 1269 2991 
Q 1406 3038 1543 3061 
Q 1681 3084 1819 3084 
Q 2600 3084 3056 2656 
Q 3513 2228 3513 1497 
Q 3513 744 3044 326 
Q 2575 -91 1722 -91 
Q 1428 -91 1123 -41 
Q 819 9 494 109 
L 494 744 
Q 775 591 1075 516 
Q 1375 441 1709 441 
Q 2250 441 2565 725 
Q 2881 1009 2881 1497 
Q 2881 1984 2565 2268 
Q 2250 2553 1709 2553 
Q 1456 2553 1204 2497 
Q 953 2441 691 2322 
L 691 4666 
z
" transform="scale(0.015625)"/>
        <path id="DejaVuSans-2e" d="M 684 794 
L 1344 794 
L 1344 0 
L 684 0 
L 684 794 
z
" transform="scale(0.015625)"/>
        <path id="DejaVuSans-30" d="M 2034 4250 
Q 1547 4250 1301 3770 
Q 1056 3291 1056 2328 
Q 1056 1369 1301 889 
Q 1547 409 2034 409 
Q 2525 409 2770 889 
Q 3016 1369 3016 2328 
Q 3016 3291 2770 3770 
Q 2525 4250 2034 4250 
z
M 2034 4750 
Q 2819 4750 3233 4129 
Q 3647 3509 3647 2328 
Q 3647 1150 3233 529 
Q 2819 -91 2034 -91 
Q 1250 -91 836 529 
Q 422 1150 422 2328 
Q 422 3509 836 4129 
Q 1250 4750 2034 4750 
z
" transform="scale(0.015625)"/>
       </defs>
       <use xlink:href="#DejaVuSans-35"/>
       <use xlink:href="#DejaVuSans-2e" transform="translate(63.623047 0)"/>
       <use xlink:href="#DejaVuSans-30" transform="translate(95.410156 0)"/>
      </g>
     </g>
    </g>
    <g id="ytick_2">
     <g id="line2d_5">
      <path d="M 54.305937 268.460447 
L 225.525937 268.460447 
" clip-path="url(#pad32e8572f)" style="fill: none; stroke: #b0b0b0; stroke-opacity: 0.2; stroke-width: 0.6; stroke-linecap: square"/>
     </g>
     <g id="line2d_6">
      <g>
       <use xlink:href="#m7998e7c2f3" x="54.305937" y="268.460447" style="stroke: #000000; stroke-width: 0.8"/>
      </g>
     </g>
     <g id="text_3">
      <!-- 7.5 -->
      <g transform="translate(29.8125 272.639588) scale(0.11 -0.11)">
       <defs>
        <path id="DejaVuSans-37" d="M 525 4666 
L 3525 4666 
L 3525 4397 
L 1831 0 
L 1172 0 
L 2766 4134 
L 525 4134 
L 525 4666 
z
" transform="scale(0.015625)"/>
       </defs>
       <use xlink:href="#DejaVuSans-37"/>
       <use xlink:href="#DejaVuSans-2e" transform="translate(63.623047 0)"/>
       <use xlink:href="#DejaVuSans-35" transform="translate(95.410156 0)"/>
      </g>
     </g>
    </g>
    <g id="ytick_3">
     <g id="line2d_7">
      <path d="M 54.305937 228.060679 
L 225.525937 228.060679 
" clip-path="url(#pad32e8572f)" style="fill: none; stroke: #b0b0b0; stroke-opacity: 0.2; stroke-width: 0.6; stroke-linecap: square"/>
     </g>
     <g id="line2d_8">
      <g>
       <use xlink:href="#m7998e7c2f3" x="54.305937" y="228.060679" style="stroke: #000000; stroke-width: 0.8"/>
      </g>
     </g>
     <g id="text_4">
      <!-- 10.0 -->
      <g transform="translate(22.81375 232.23982) scale(0.11 -0.11)">
       <defs>
        <path id="DejaVuSans-31" d="M 794 531 
L 1825 531 
L 1825 4091 
L 703 3866 
L 703 4441 
L 1819 4666 
L 2450 4666 
L 2450 531 
L 3481 531 
L 3481 0 
L 794 0 
L 794 531 
z
" transform="scale(0.015625)"/>
       </defs>
       <use xlink:href="#DejaVuSans-31"/>
       <use xlink:href="#DejaVuSans-30" transform="translate(63.623047 0)"/>
       <use xlink:href="#DejaVuSans-2e" transform="translate(127.246094 0)"/>
       <use xlink:href="#DejaVuSans-30" transform="translate(159.033203 0)"/>
      </g>
     </g>
    </g>
    <g id="ytick_4">
     <g id="line2d_9">
      <path d="M 54.305937 187.66091 
L 225.525937 187.66091 
" clip-path="url(#pad32e8572f)" style="fill: none; stroke: #b0b0b0; stroke-opacity: 0.2; stroke-width: 0.6; stroke-linecap: square"/>
     </g>
     <g id="line2d_10">
      <g>
       <use xlink:href="#m7998e7c2f3" x="54.305937" y="187.66091" style="stroke: #000000; stroke-width: 0.8"/>
      </g>
     </g>
     <g id="text_5">
      <!-- 12.5 -->
      <g transform="translate(22.81375 191.840051) scale(0.11 -0.11)">
       <defs>
        <path id="DejaVuSans-32" d="M 1228 531 
L 3431 531 
L 3431 0 
L 469 0 
L 469 531 
Q 828 903 1448 1529 
Q 2069 2156 2228 2338 
Q 2531 2678 2651 2914 
Q 2772 3150 2772 3378 
Q 2772 3750 2511 3984 
Q 2250 4219 1831 4219 
Q 1534 4219 1204 4116 
Q 875 4013 500 3803 
L 500 4441 
Q 881 4594 1212 4672 
Q 1544 4750 1819 4750 
Q 2544 4750 2975 4387 
Q 3406 4025 3406 3419 
Q 3406 3131 3298 2873 
Q 3191 2616 2906 2266 
Q 2828 2175 2409 1742 
Q 1991 1309 1228 531 
z
" transform="scale(0.015625)"/>
       </defs>
       <use xlink:href="#DejaVuSans-31"/>
       <use xlink:href="#DejaVuSans-32" transform="translate(63.623047 0)"/>
       <use xlink:href="#DejaVuSans-2e" transform="translate(127.246094 0)"/>
       <use xlink:href="#DejaVuSans-35" transform="translate(159.033203 0)"/>
      </g>
     </g>
    </g>
    <g id="ytick_5">
     <g id="line2d_11">
      <path d="M 54.305937 147.261142 
L 225.525937 147.261142 
" clip-path="url(#pad32e8572f)" style="fill: none; stroke: #b0b0b0; stroke-opacity: 0.2; stroke-width: 0.6; stroke-linecap: square"/>
     </g>
     <g id="line2d_12">
      <g>
       <use xlink:href="#m7998e7c2f3" x="54.305937" y="147.261142" style="stroke: #000000; stroke-width: 0.8"/>
      </g>
     </g>
     <g id="text_6">
      <!-- 15.0 -->
      <g transform="translate(22.81375 151.440282) scale(0.11 -0.11)">
       <use xlink:href="#DejaVuSans-31"/>
       <use xlink:href="#DejaVuSans-35" transform="translate(63.623047 0)"/>
       <use xlink:href="#DejaVuSans-2e" transform="translate(127.246094 0)"/>
       <use xlink:href="#DejaVuSans-30" transform="translate(159.033203 0)"/>
      </g>
     </g>
    </g>
    <g id="ytick_6">
     <g id="line2d_13">
      <path d="M 54.305937 106.861373 
L 225.525937 106.861373 
" clip-path="url(#pad32e8572f)" style="fill: none; stroke: #b0b0b0; stroke-opacity: 0.2; stroke-width: 0.6; stroke-linecap: square"/>
     </g>
     <g id="line2d_14">
      <g>
       <use xlink:href="#m7998e7c2f3" x="54.305937" y="106.861373" style="stroke: #000000; stroke-width: 0.8"/>
      </g>
     </g>
     <g id="text_7">
      <!-- 17.5 -->
      <g transform="translate(22.81375 111.040514) scale(0.11 -0.11)">
       <use xlink:href="#DejaVuSans-31"/>
       <use xlink:href="#DejaVuSans-37" transform="translate(63.623047 0)"/>
       <use xlink:href="#DejaVuSans-2e" transform="translate(127.246094 0)"/>
       <use xlink:href="#DejaVuSans-35" transform="translate(159.033203 0)"/>
      </g>
     </g>
    </g>
    <g id="ytick_7">
     <g id="line2d_15">
      <path d="M 54.305937 66.461605 
L 225.525937 66.461605 
" clip-path="url(#pad32e8572f)" style="fill: none; stroke: #b0b0b0; stroke-opacity: 0.2; stroke-width: 0.6; stroke-linecap: square"/>
     </g>
     <g id="line2d_16">
      <g>
       <use xlink:href="#m7998e7c2f3" x="54.305937" y="66.461605" style="stroke: #000000; stroke-width: 0.8"/>
      </g>
     </g>
     <g id="text_8">
      <!-- 20.0 -->
      <g transform="translate(22.81375 70.640745) scale(0.11 -0.11)">
       <use xlink:href="#DejaVuSans-32"/>
       <use xlink:href="#DejaVuSans-30" transform="translate(63.623047 0)"/>
       <use xlink:href="#DejaVuSans-2e" transform="translate(127.246094 0)"/>
       <use xlink:href="#DejaVuSans-30" transform="translate(159.033203 0)"/>
      </g>
     </g>
    </g>
    <g id="text_9">
     <!-- semitones -->
     <g transform="translate(16.318125 217.555376) rotate(-90) scale(0.12 -0.12)">
      <defs>
       <path id="DejaVuSans-73" d="M 2834 3397 
L 2834 2853 
Q 2591 2978 2328 3040 
Q 2066 3103 1784 3103 
Q 1356 3103 1142 2972 
Q 928 2841 928 2578 
Q 928 2378 1081 2264 
Q 1234 2150 1697 2047 
L 1894 2003 
Q 2506 1872 2764 1633 
Q 3022 1394 3022 966 
Q 3022 478 2636 193 
Q 2250 -91 1575 -91 
Q 1294 -91 989 -36 
Q 684 19 347 128 
L 347 722 
Q 666 556 975 473 
Q 1284 391 1588 391 
Q 1994 391 2212 530 
Q 2431 669 2431 922 
Q 2431 1156 2273 1281 
Q 2116 1406 1581 1522 
L 1381 1569 
Q 847 1681 609 1914 
Q 372 2147 372 2553 
Q 372 3047 722 3315 
Q 1072 3584 1716 3584 
Q 2034 3584 2315 3537 
Q 2597 3491 2834 3397 
z
" transform="scale(0.015625)"/>
       <path id="DejaVuSans-65" d="M 3597 1894 
L 3597 1613 
L 953 1613 
Q 991 1019 1311 708 
Q 1631 397 2203 397 
Q 2534 397 2845 478 
Q 3156 559 3463 722 
L 3463 178 
Q 3153 47 2828 -22 
Q 2503 -91 2169 -91 
Q 1331 -91 842 396 
Q 353 884 353 1716 
Q 353 2575 817 3079 
Q 1281 3584 2069 3584 
Q 2775 3584 3186 3129 
Q 3597 2675 3597 1894 
z
M 3022 2063 
Q 3016 2534 2758 2815 
Q 2500 3097 2075 3097 
Q 1594 3097 1305 2825 
Q 1016 2553 972 2059 
L 3022 2063 
z
" transform="scale(0.015625)"/>
       <path id="DejaVuSans-6d" d="M 3328 2828 
Q 3544 3216 3844 3400 
Q 4144 3584 4550 3584 
Q 5097 3584 5394 3201 
Q 5691 2819 5691 2113 
L 5691 0 
L 5113 0 
L 5113 2094 
Q 5113 2597 4934 2840 
Q 4756 3084 4391 3084 
Q 3944 3084 3684 2787 
Q 3425 2491 3425 1978 
L 3425 0 
L 2847 0 
L 2847 2094 
Q 2847 2600 2669 2842 
Q 2491 3084 2119 3084 
Q 1678 3084 1418 2786 
Q 1159 2488 1159 1978 
L 1159 0 
L 581 0 
L 581 3500 
L 1159 3500 
L 1159 2956 
Q 1356 3278 1631 3431 
Q 1906 3584 2284 3584 
Q 2666 3584 2933 3390 
Q 3200 3197 3328 2828 
z
" transform="scale(0.015625)"/>
       <path id="DejaVuSans-6f" d="M 1959 3097 
Q 1497 3097 1228 2736 
Q 959 2375 959 1747 
Q 959 1119 1226 758 
Q 1494 397 1959 397 
Q 2419 397 2687 759 
Q 2956 1122 2956 1747 
Q 2956 2369 2687 2733 
Q 2419 3097 1959 3097 
z
M 1959 3584 
Q 2709 3584 3137 3096 
Q 3566 2609 3566 1747 
Q 3566 888 3137 398 
Q 2709 -91 1959 -91 
Q 1206 -91 779 398 
Q 353 888 353 1747 
Q 353 2609 779 3096 
Q 1206 3584 1959 3584 
z
" transform="scale(0.015625)"/>
       <path id="DejaVuSans-6e" d="M 3513 2113 
L 3513 0 
L 2938 0 
L 2938 2094 
Q 2938 2591 2744 2837 
Q 2550 3084 2163 3084 
Q 1697 3084 1428 2787 
Q 1159 2491 1159 1978 
L 1159 0 
L 581 0 
L 581 3500 
L 1159 3500 
L 1159 2956 
Q 1366 3272 1645 3428 
Q 1925 3584 2291 3584 
Q 2894 3584 3203 3211 
Q 3513 2838 3513 2113 
z
" transform="scale(0.015625)"/>
      </defs>
      <use xlink:href="#DejaVuSans-73"/>
      <use xlink:href="#DejaVuSans-65" transform="translate(52.099609 0)"/>
      <use xlink:href="#DejaVuSans-6d" transform="translate(113.623047 0)"/>
      <use xlink:href="#DejaVuSans-69" transform="translate(211.035156 0)"/>
      <use xlink:href="#DejaVuSans-74" transform="translate(238.818359 0)"/>
      <use xlink:href="#DejaVuSans-6f" transform="translate(278.027344 0)"/>
      <use xlink:href="#DejaVuSans-6e" transform="translate(339.208984 0)"/>
      <use xlink:href="#DejaVuSans-65" transform="translate(402.587891 0)"/>
      <use xlink:href="#DejaVuSans-73" transform="translate(464.111328 0)"/>
     </g>
    </g>
   </g>
   <g id="FillBetweenPolyCollection_1">
    <defs>
     <path id="m3b6405c528" d="M 214.275961 -73.692294 
L 65.555914 -73.692294 
L 64.757205 -76.414026 
L 64.059673 -79.135759 
L 63.465539 -81.857491 
L 62.976535 -84.579223 
L 62.593887 -87.300955 
L 62.318311 -90.022687 
L 62.150009 -92.744419 
L 62.088665 -95.466152 
L 62.133454 -98.187884 
L 62.283048 -100.909616 
L 62.535626 -103.631348 
L 62.888891 -106.35308 
L 63.340089 -109.074813 
L 63.886033 -111.796545 
L 64.523123 -114.518277 
L 65.247379 -117.240009 
L 66.054471 -119.961741 
L 66.93975 -122.683473 
L 67.898281 -125.405206 
L 68.924883 -128.126938 
L 70.014165 -130.84867 
L 71.160561 -133.570402 
L 72.358372 -136.292134 
L 73.6018 -139.013866 
L 74.884991 -141.735599 
L 76.20207 -144.457331 
L 77.547175 -147.179063 
L 78.914498 -149.900795 
L 80.298313 -152.622527 
L 81.693013 -155.34426 
L 83.093138 -158.065992 
L 84.493403 -160.787724 
L 85.888725 -163.509456 
L 87.274246 -166.231188 
L 88.645355 -168.95292 
L 89.997705 -171.674653 
L 91.327232 -174.396385 
L 92.630164 -177.118117 
L 93.903039 -179.839849 
L 95.142703 -182.561581 
L 96.346327 -185.283313 
L 97.511402 -188.005046 
L 98.635743 -190.726778 
L 99.717491 -193.44851 
L 100.755103 -196.170242 
L 101.747353 -198.891974 
L 102.693321 -201.613707 
L 103.592386 -204.335439 
L 104.444215 -207.057171 
L 105.24875 -209.778903 
L 106.0062 -212.500635 
L 106.717022 -215.222367 
L 107.381905 -217.9441 
L 108.001763 -220.665832 
L 108.577708 -223.387564 
L 109.111041 -226.109296 
L 109.603235 -228.831028 
L 110.055912 -231.55276 
L 110.470832 -234.274493 
L 110.849876 -236.996225 
L 111.195025 -239.717957 
L 111.50835 -242.439689 
L 111.791988 -245.161421 
L 112.048136 -247.883154 
L 112.279029 -250.604886 
L 112.48693 -253.326618 
L 112.674114 -256.04835 
L 112.842857 -258.770082 
L 112.995423 -261.491814 
L 113.134052 -264.213547 
L 113.260952 -266.935279 
L 113.378287 -269.657011 
L 113.48817 -272.378743 
L 113.592651 -275.100475 
L 113.693716 -277.822207 
L 113.793273 -280.54394 
L 113.893151 -283.265672 
L 113.995094 -285.987404 
L 114.100753 -288.709136 
L 114.211687 -291.430868 
L 114.329355 -294.152601 
L 114.455116 -296.874333 
L 114.590225 -299.596065 
L 114.735833 -302.317797 
L 114.892981 -305.039529 
L 115.062606 -307.761261 
L 115.245533 -310.482994 
L 115.442481 -313.204726 
L 115.654059 -315.926458 
L 115.880768 -318.64819 
L 116.123002 -321.369922 
L 116.381051 -324.091654 
L 116.655097 -326.813387 
L 116.945224 -329.535119 
L 117.251412 -332.256851 
L 117.573545 -334.978583 
L 117.911413 -337.700315 
L 118.264714 -340.422048 
L 118.633057 -343.14378 
L 161.198818 -343.14378 
L 161.198818 -343.14378 
L 161.567161 -340.422048 
L 161.920462 -337.700315 
L 162.25833 -334.978583 
L 162.580463 -332.256851 
L 162.886651 -329.535119 
L 163.176778 -326.813387 
L 163.450824 -324.091654 
L 163.708873 -321.369922 
L 163.951107 -318.64819 
L 164.177816 -315.926458 
L 164.389394 -313.204726 
L 164.586342 -310.482994 
L 164.769269 -307.761261 
L 164.938894 -305.039529 
L 165.096042 -302.317797 
L 165.24165 -299.596065 
L 165.376759 -296.874333 
L 165.50252 -294.152601 
L 165.620188 -291.430868 
L 165.731122 -288.709136 
L 165.836781 -285.987404 
L 165.938724 -283.265672 
L 166.038602 -280.54394 
L 166.138159 -277.822207 
L 166.239224 -275.100475 
L 166.343705 -272.378743 
L 166.453588 -269.657011 
L 166.570923 -266.935279 
L 166.697823 -264.213547 
L 166.836452 -261.491814 
L 166.989018 -258.770082 
L 167.157761 -256.04835 
L 167.344945 -253.326618 
L 167.552846 -250.604886 
L 167.783739 -247.883154 
L 168.039887 -245.161421 
L 168.323525 -242.439689 
L 168.63685 -239.717957 
L 168.981999 -236.996225 
L 169.361043 -234.274493 
L 169.775963 -231.55276 
L 170.22864 -228.831028 
L 170.720834 -226.109296 
L 171.254167 -223.387564 
L 171.830112 -220.665832 
L 172.44997 -217.9441 
L 173.114853 -215.222367 
L 173.825675 -212.500635 
L 174.583125 -209.778903 
L 175.38766 -207.057171 
L 176.239489 -204.335439 
L 177.138554 -201.613707 
L 178.084522 -198.891974 
L 179.076772 -196.170242 
L 180.114384 -193.44851 
L 181.196132 -190.726778 
L 182.320473 -188.005046 
L 183.485548 -185.283313 
L 184.689172 -182.561581 
L 185.928836 -179.839849 
L 187.201711 -177.118117 
L 188.504643 -174.396385 
L 189.83417 -171.674653 
L 191.18652 -168.95292 
L 192.557629 -166.231188 
L 193.94315 -163.509456 
L 195.338472 -160.787724 
L 196.738737 -158.065992 
L 198.138862 -155.34426 
L 199.533562 -152.622527 
L 200.917377 -149.900795 
L 202.2847 -147.179063 
L 203.629805 -144.457331 
L 204.946884 -141.735599 
L 206.230075 -139.013866 
L 207.473503 -136.292134 
L 208.671314 -133.570402 
L 209.81771 -130.84867 
L 210.906992 -128.126938 
L 211.933594 -125.405206 
L 212.892125 -122.683473 
L 213.777404 -119.961741 
L 214.584496 -117.240009 
L 215.308752 -114.518277 
L 215.945842 -111.796545 
L 216.491786 -109.074813 
L 216.942984 -106.35308 
L 217.296249 -103.631348 
L 217.548827 -100.909616 
L 217.698421 -98.187884 
L 217.74321 -95.466152 
L 217.681866 -92.744419 
L 217.513564 -90.022687 
L 217.237988 -87.300955 
L 216.85534 -84.579223 
L 216.366336 -81.857491 
L 215.772202 -79.135759 
L 215.07467 -76.414026 
L 214.275961 -73.692294 
z
" style="stroke: #c2410c; stroke-opacity: 0.35"/>
    </defs>
    <g clip-path="url(#pad32e8572f)">
     <use xlink:href="#m3b6405c528" x="0" y="391.52407" style="fill: #c2410c; fill-opacity: 0.35; stroke: #c2410c; stroke-opacity: 0.35"/>
    </g>
   </g>
   <g id="LineCollection_1">
    <path d="M 101.002301 297.811062 
L 178.829574 297.811062 
" clip-path="url(#pad32e8572f)" style="fill: none; stroke: #c2410c; stroke-width: 1.5"/>
   </g>
   <g id="patch_3">
    <path d="M 54.305937 338.606376 
L 54.305937 34.56 
" style="fill: none; stroke: #000000; stroke-width: 0.8; stroke-linejoin: miter; stroke-linecap: square"/>
   </g>
   <g id="patch_4">
    <path d="M 225.525937 338.606376 
L 225.525937 34.56 
" style="fill: none; stroke: #000000; stroke-width: 0.8; stroke-linejoin: miter; stroke-linecap: square"/>
   </g>
   <g id="patch_5">
    <path d="M 54.305938 338.606376 
L 225.525937 338.606376 
" style="fill: none; stroke: #000000; stroke-width: 0.8; stroke-linejoin: miter; stroke-linecap: square"/>
   </g>
   <g id="patch_6">
    <path d="M 54.305938 34.56 
L 225.525937 34.56 
" style="fill: none; stroke: #000000; stroke-width: 0.8; stroke-linejoin: miter; stroke-linecap: square"/>
   </g>
   <g id="PathCollection_1">
    <defs>
     <path id="m1b1274a96f" d="M -0 4.472136 
L 4.472136 0 
L 0 -4.472136 
L -4.472136 -0 
z
" style="stroke: #111827"/>
    </defs>
    <g clip-path="url(#pad32e8572f)">
     <use xlink:href="#m1b1274a96f" x="139.915937" y="324.786086" style="fill: #111827; stroke: #111827"/>
    </g>
   </g>
  </g>
  <g id="axes_2">
   <g id="patch_7">
    <path d="M 276.365938 338.606376 
L 447.585937 338.606376 
L 447.585937 34.56 
L 276.365938 34.56 
z
" style="fill: #ffffff"/>
   </g>
   <g id="matplotlib.axis_3">
    <g id="xtick_2">
     <g id="line2d_17">
      <path d="M 361.975937 338.606376 
L 361.975937 34.56 
" clip-path="url(#pe24c3e908d)" style="fill: none; stroke: #b0b0b0; stroke-opacity: 0.2; stroke-width: 0.6; stroke-linecap: square"/>
     </g>
     <g id="line2d_18">
      <g>
       <use xlink:href="#mad2678c426" x="361.975937" y="338.606376" style="stroke: #000000; stroke-width: 0.8"/>
      </g>
     </g>
     <g id="text_10">
      <!-- Loudness variability -->
      <g transform="translate(255.264822 382.114363) rotate(-15) scale(0.11 -0.11)">
       <defs>
        <path id="DejaVuSans-4c" d="M 628 4666 
L 1259 4666 
L 1259 531 
L 3531 531 
L 3531 0 
L 628 0 
L 628 4666 
z
" transform="scale(0.015625)"/>
        <path id="DejaVuSans-75" d="M 544 1381 
L 544 3500 
L 1119 3500 
L 1119 1403 
Q 1119 906 1312 657 
Q 1506 409 1894 409 
Q 2359 409 2629 706 
Q 2900 1003 2900 1516 
L 2900 3500 
L 3475 3500 
L 3475 0 
L 2900 0 
L 2900 538 
Q 2691 219 2414 64 
Q 2138 -91 1772 -91 
Q 1169 -91 856 284 
Q 544 659 544 1381 
z
M 1991 3584 
L 1991 3584 
z
" transform="scale(0.015625)"/>
        <path id="DejaVuSans-64" d="M 2906 2969 
L 2906 4863 
L 3481 4863 
L 3481 0 
L 2906 0 
L 2906 525 
Q 2725 213 2448 61 
Q 2172 -91 1784 -91 
Q 1150 -91 751 415 
Q 353 922 353 1747 
Q 353 2572 751 3078 
Q 1150 3584 1784 3584 
Q 2172 3584 2448 3432 
Q 2725 3281 2906 2969 
z
M 947 1747 
Q 947 1113 1208 752 
Q 1469 391 1925 391 
Q 2381 391 2643 752 
Q 2906 1113 2906 1747 
Q 2906 2381 2643 2742 
Q 2381 3103 1925 3103 
Q 1469 3103 1208 2742 
Q 947 2381 947 1747 
z
" transform="scale(0.015625)"/>
       </defs>
       <use xlink:href="#DejaVuSans-4c"/>
       <use xlink:href="#DejaVuSans-6f" transform="translate(53.962891 0)"/>
       <use xlink:href="#DejaVuSans-75" transform="translate(115.144531 0)"/>
       <use xlink:href="#DejaVuSans-64" transform="translate(178.523438 0)"/>
       <use xlink:href="#DejaVuSans-6e" transform="translate(242 0)"/>
       <use xlink:href="#DejaVuSans-65" transform="translate(305.378906 0)"/>
       <use xlink:href="#DejaVuSans-73" transform="translate(366.902344 0)"/>
       <use xlink:href="#DejaVuSans-73" transform="translate(419.001953 0)"/>
       <use xlink:href="#DejaVuSans-20" transform="translate(471.101562 0)"/>
       <use xlink:href="#DejaVuSans-76" transform="translate(502.888672 0)"/>
       <use xlink:href="#DejaVuSans-61" transform="translate(562.068359 0)"/>
       <use xlink:href="#DejaVuSans-72" transform="translate(623.347656 0)"/>
       <use xlink:href="#DejaVuSans-69" transform="translate(664.460938 0)"/>
       <use xlink:href="#DejaVuSans-61" transform="translate(692.244141 0)"/>
       <use xlink:href="#DejaVuSans-62" transform="translate(753.523438 0)"/>
       <use xlink:href="#DejaVuSans-69" transform="translate(817 0)"/>
       <use xlink:href="#DejaVuSans-6c" transform="translate(844.783203 0)"/>
       <use xlink:href="#DejaVuSans-69" transform="translate(872.566406 0)"/>
       <use xlink:href="#DejaVuSans-74" transform="translate(900.349609 0)"/>
       <use xlink:href="#DejaVuSans-79" transform="translate(939.558594 0)"/>
      </g>
     </g>
    </g>
   </g>
   <g id="matplotlib.axis_4">
    <g id="ytick_8">
     <g id="line2d_19">
      <path d="M 276.365938 296.752935 
L 447.585937 296.752935 
" clip-path="url(#pe24c3e908d)" style="fill: none; stroke: #b0b0b0; stroke-opacity: 0.2; stroke-width: 0.6; stroke-linecap: square"/>
     </g>
     <g id="line2d_20">
      <g>
       <use xlink:href="#m7998e7c2f3" x="276.365938" y="296.752935" style="stroke: #000000; stroke-width: 0.8"/>
      </g>
     </g>
     <g id="text_11">
      <!-- 0.8 -->
      <g transform="translate(251.8725 300.932075) scale(0.11 -0.11)">
       <defs>
        <path id="DejaVuSans-38" d="M 2034 2216 
Q 1584 2216 1326 1975 
Q 1069 1734 1069 1313 
Q 1069 891 1326 650 
Q 1584 409 2034 409 
Q 2484 409 2743 651 
Q 3003 894 3003 1313 
Q 3003 1734 2745 1975 
Q 2488 2216 2034 2216 
z
M 1403 2484 
Q 997 2584 770 2862 
Q 544 3141 544 3541 
Q 544 4100 942 4425 
Q 1341 4750 2034 4750 
Q 2731 4750 3128 4425 
Q 3525 4100 3525 3541 
Q 3525 3141 3298 2862 
Q 3072 2584 2669 2484 
Q 3125 2378 3379 2068 
Q 3634 1759 3634 1313 
Q 3634 634 3220 271 
Q 2806 -91 2034 -91 
Q 1263 -91 848 271 
Q 434 634 434 1313 
Q 434 1759 690 2068 
Q 947 2378 1403 2484 
z
M 1172 3481 
Q 1172 3119 1398 2916 
Q 1625 2713 2034 2713 
Q 2441 2713 2670 2916 
Q 2900 3119 2900 3481 
Q 2900 3844 2670 4047 
Q 2441 4250 2034 4250 
Q 1625 4250 1398 4047 
Q 1172 3844 1172 3481 
z
" transform="scale(0.015625)"/>
       </defs>
       <use xlink:href="#DejaVuSans-30"/>
       <use xlink:href="#DejaVuSans-2e" transform="translate(63.623047 0)"/>
       <use xlink:href="#DejaVuSans-38" transform="translate(95.410156 0)"/>
      </g>
     </g>
    </g>
    <g id="ytick_9">
     <g id="line2d_21">
      <path d="M 276.365938 254.596961 
L 447.585937 254.596961 
" clip-path="url(#pe24c3e908d)" style="fill: none; stroke: #b0b0b0; stroke-opacity: 0.2; stroke-width: 0.6; stroke-linecap: square"/>
     </g>
     <g id="line2d_22">
      <g>
       <use xlink:href="#m7998e7c2f3" x="276.365938" y="254.596961" style="stroke: #000000; stroke-width: 0.8"/>
      </g>
     </g>
     <g id="text_12">
      <!-- 1.0 -->
      <g transform="translate(251.8725 258.776102) scale(0.11 -0.11)">
       <use xlink:href="#DejaVuSans-31"/>
       <use xlink:href="#DejaVuSans-2e" transform="translate(63.623047 0)"/>
       <use xlink:href="#DejaVuSans-30" transform="translate(95.410156 0)"/>
      </g>
     </g>
    </g>
    <g id="ytick_10">
     <g id="line2d_23">
      <path d="M 276.365938 212.440988 
L 447.585937 212.440988 
" clip-path="url(#pe24c3e908d)" style="fill: none; stroke: #b0b0b0; stroke-opacity: 0.2; stroke-width: 0.6; stroke-linecap: square"/>
     </g>
     <g id="line2d_24">
      <g>
       <use xlink:href="#m7998e7c2f3" x="276.365938" y="212.440988" style="stroke: #000000; stroke-width: 0.8"/>
      </g>
     </g>
     <g id="text_13">
      <!-- 1.2 -->
      <g transform="translate(251.8725 216.620129) scale(0.11 -0.11)">
       <use xlink:href="#DejaVuSans-31"/>
       <use xlink:href="#DejaVuSans-2e" transform="translate(63.623047 0)"/>
       <use xlink:href="#DejaVuSans-32" transform="translate(95.410156 0)"/>
      </g>
     </g>
    </g>
    <g id="ytick_11">
     <g id="line2d_25">
      <path d="M 276.365938 170.285015 
L 447.585937 170.285015 
" clip-path="url(#pe24c3e908d)" style="fill: none; stroke: #b0b0b0; stroke-opacity: 0.2; stroke-width: 0.6; stroke-linecap: square"/>
     </g>
     <g id="line2d_26">
      <g>
       <use xlink:href="#m7998e7c2f3" x="276.365938" y="170.285015" style="stroke: #000000; stroke-width: 0.8"/>
      </g>
     </g>
     <g id="text_14">
      <!-- 1.4 -->
      <g transform="translate(251.8725 174.464156) scale(0.11 -0.11)">
       <defs>
        <path id="DejaVuSans-34" d="M 2419 4116 
L 825 1625 
L 2419 1625 
L 2419 4116 
z
M 2253 4666 
L 3047 4666 
L 3047 1625 
L 3713 1625 
L 3713 1100 
L 3047 1100 
L 3047 0 
L 2419 0 
L 2419 1100 
L 313 1100 
L 313 1709 
L 2253 4666 
z
" transform="scale(0.015625)"/>
       </defs>
       <use xlink:href="#DejaVuSans-31"/>
       <use xlink:href="#DejaVuSans-2e" transform="translate(63.623047 0)"/>
       <use xlink:href="#DejaVuSans-34" transform="translate(95.410156 0)"/>
      </g>
     </g>
    </g>
    <g id="ytick_12">
     <g id="line2d_27">
      <path d="M 276.365938 128.129042 
L 447.585937 128.129042 
" clip-path="url(#pe24c3e908d)" style="fill: none; stroke: #b0b0b0; stroke-opacity: 0.2; stroke-width: 0.6; stroke-linecap: square"/>
     </g>
     <g id="line2d_28">
      <g>
       <use xlink:href="#m7998e7c2f3" x="276.365938" y="128.129042" style="stroke: #000000; stroke-width: 0.8"/>
      </g>
     </g>
     <g id="text_15">
      <!-- 1.6 -->
      <g transform="translate(251.8725 132.308182) scale(0.11 -0.11)">
       <defs>
        <path id="DejaVuSans-36" d="M 2113 2584 
Q 1688 2584 1439 2293 
Q 1191 2003 1191 1497 
Q 1191 994 1439 701 
Q 1688 409 2113 409 
Q 2538 409 2786 701 
Q 3034 994 3034 1497 
Q 3034 2003 2786 2293 
Q 2538 2584 2113 2584 
z
M 3366 4563 
L 3366 3988 
Q 3128 4100 2886 4159 
Q 2644 4219 2406 4219 
Q 1781 4219 1451 3797 
Q 1122 3375 1075 2522 
Q 1259 2794 1537 2939 
Q 1816 3084 2150 3084 
Q 2853 3084 3261 2657 
Q 3669 2231 3669 1497 
Q 3669 778 3244 343 
Q 2819 -91 2113 -91 
Q 1303 -91 875 529 
Q 447 1150 447 2328 
Q 447 3434 972 4092 
Q 1497 4750 2381 4750 
Q 2619 4750 2861 4703 
Q 3103 4656 3366 4563 
z
" transform="scale(0.015625)"/>
       </defs>
       <use xlink:href="#DejaVuSans-31"/>
       <use xlink:href="#DejaVuSans-2e" transform="translate(63.623047 0)"/>
       <use xlink:href="#DejaVuSans-36" transform="translate(95.410156 0)"/>
      </g>
     </g>
    </g>
    <g id="ytick_13">
     <g id="line2d_29">
      <path d="M 276.365938 85.973069 
L 447.585937 85.973069 
" clip-path="url(#pe24c3e908d)" style="fill: none; stroke: #b0b0b0; stroke-opacity: 0.2; stroke-width: 0.6; stroke-linecap: square"/>
     </g>
     <g id="line2d_30">
      <g>
       <use xlink:href="#m7998e7c2f3" x="276.365938" y="85.973069" style="stroke: #000000; stroke-width: 0.8"/>
      </g>
     </g>
     <g id="text_16">
      <!-- 1.8 -->
      <g transform="translate(251.8725 90.152209) scale(0.11 -0.11)">
       <use xlink:href="#DejaVuSans-31"/>
       <use xlink:href="#DejaVuSans-2e" transform="translate(63.623047 0)"/>
       <use xlink:href="#DejaVuSans-38" transform="translate(95.410156 0)"/>
      </g>
     </g>
    </g>
    <g id="ytick_14">
     <g id="line2d_31">
      <path d="M 276.365938 43.817095 
L 447.585937 43.817095 
" clip-path="url(#pe24c3e908d)" style="fill: none; stroke: #b0b0b0; stroke-opacity: 0.2; stroke-width: 0.6; stroke-linecap: square"/>
     </g>
     <g id="line2d_32">
      <g>
       <use xlink:href="#m7998e7c2f3" x="276.365938" y="43.817095" style="stroke: #000000; stroke-width: 0.8"/>
      </g>
     </g>
     <g id="text_17">
      <!-- 2.0 -->
      <g transform="translate(251.8725 47.996236) scale(0.11 -0.11)">
       <use xlink:href="#DejaVuSans-32"/>
       <use xlink:href="#DejaVuSans-2e" transform="translate(63.623047 0)"/>
       <use xlink:href="#DejaVuSans-30" transform="translate(95.410156 0)"/>
      </g>
     </g>
    </g>
    <g id="text_18">
     <!-- normalized SD -->
     <g transform="translate(245.376875 230.259438) rotate(-90) scale(0.12 -0.12)">
      <defs>
       <path id="DejaVuSans-7a" d="M 353 3500 
L 3084 3500 
L 3084 2975 
L 922 459 
L 3084 459 
L 3084 0 
L 275 0 
L 275 525 
L 2438 3041 
L 353 3041 
L 353 3500 
z
" transform="scale(0.015625)"/>
       <path id="DejaVuSans-53" d="M 3425 4513 
L 3425 3897 
Q 3066 4069 2747 4153 
Q 2428 4238 2131 4238 
Q 1616 4238 1336 4038 
Q 1056 3838 1056 3469 
Q 1056 3159 1242 3001 
Q 1428 2844 1947 2747 
L 2328 2669 
Q 3034 2534 3370 2195 
Q 3706 1856 3706 1288 
Q 3706 609 3251 259 
Q 2797 -91 1919 -91 
Q 1588 -91 1214 -16 
Q 841 59 441 206 
L 441 856 
Q 825 641 1194 531 
Q 1563 422 1919 422 
Q 2459 422 2753 634 
Q 3047 847 3047 1241 
Q 3047 1584 2836 1778 
Q 2625 1972 2144 2069 
L 1759 2144 
Q 1053 2284 737 2584 
Q 422 2884 422 3419 
Q 422 4038 858 4394 
Q 1294 4750 2059 4750 
Q 2388 4750 2728 4690 
Q 3069 4631 3425 4513 
z
" transform="scale(0.015625)"/>
       <path id="DejaVuSans-44" d="M 1259 4147 
L 1259 519 
L 2022 519 
Q 2988 519 3436 956 
Q 3884 1394 3884 2338 
Q 3884 3275 3436 3711 
Q 2988 4147 2022 4147 
L 1259 4147 
z
M 628 4666 
L 1925 4666 
Q 3281 4666 3915 4102 
Q 4550 3538 4550 2338 
Q 4550 1131 3912 565 
Q 3275 0 1925 0 
L 628 0 
L 628 4666 
z
" transform="scale(0.015625)"/>
      </defs>
      <use xlink:href="#DejaVuSans-6e"/>
      <use xlink:href="#DejaVuSans-6f" transform="translate(63.378906 0)"/>
      <use xlink:href="#DejaVuSans-72" transform="translate(124.560547 0)"/>
      <use xlink:href="#DejaVuSans-6d" transform="translate(163.923828 0)"/>
      <use xlink:href="#DejaVuSans-61" transform="translate(261.335938 0)"/>
      <use xlink:href="#DejaVuSans-6c" transform="translate(322.615234 0)"/>
      <use xlink:href="#DejaVuSans-69" transform="translate(350.398438 0)"/>
      <use xlink:href="#DejaVuSans-7a" transform="translate(378.181641 0)"/>
      <use xlink:href="#DejaVuSans-65" transform="translate(430.671875 0)"/>
      <use xlink:href="#DejaVuSans-64" transform="translate(492.195312 0)"/>
      <use xlink:href="#DejaVuSans-20" transform="translate(555.671875 0)"/>
      <use xlink:href="#DejaVuSans-53" transform="translate(587.458984 0)"/>
      <use xlink:href="#DejaVuSans-44" transform="translate(650.935547 0)"/>
     </g>
    </g>
   </g>
   <g id="FillBetweenPolyCollection_2">
    <defs>
     <path id="m33e7979a79" d="M 415.529433 -66.737983 
L 308.422442 -66.737983 
L 306.738108 -69.529961 
L 305.081369 -72.321939 
L 303.45735 -75.113916 
L 301.871126 -77.905894 
L 300.327693 -80.697872 
L 298.831931 -83.48985 
L 297.388572 -86.281827 
L 296.00217 -89.073805 
L 294.67707 -91.865783 
L 293.417371 -94.657761 
L 292.226907 -97.449738 
L 291.109213 -100.241716 
L 290.067503 -103.033694 
L 289.104644 -105.825672 
L 288.223143 -108.617649 
L 287.425123 -111.409627 
L 286.712311 -114.201605 
L 286.086028 -116.993583 
L 285.547183 -119.78556 
L 285.096266 -122.577538 
L 284.733346 -125.369516 
L 284.45808 -128.161493 
L 284.269712 -130.953471 
L 284.167088 -133.745449 
L 284.148665 -136.537427 
L 284.21253 -139.329404 
L 284.356417 -142.121382 
L 284.577727 -144.91336 
L 284.873557 -147.705338 
L 285.240717 -150.497315 
L 285.675769 -153.289293 
L 286.175044 -156.081271 
L 286.734685 -158.873249 
L 287.350666 -161.665226 
L 288.018834 -164.457204 
L 288.734933 -167.249182 
L 289.494642 -170.04116 
L 290.293602 -172.833137 
L 291.127448 -175.625115 
L 291.991839 -178.417093 
L 292.882486 -181.209071 
L 293.795179 -184.001048 
L 294.725812 -186.793026 
L 295.670406 -189.585004 
L 296.62513 -192.376982 
L 297.586322 -195.168959 
L 298.550504 -197.960937 
L 299.514398 -200.752915 
L 300.474939 -203.544893 
L 301.429286 -206.33687 
L 302.374827 -209.128848 
L 303.309191 -211.920826 
L 304.230246 -214.712804 
L 305.136105 -217.504781 
L 306.025128 -220.296759 
L 306.895914 -223.088737 
L 307.747305 -225.880714 
L 308.57838 -228.672692 
L 309.388445 -231.46467 
L 310.177032 -234.256648 
L 310.943887 -237.048625 
L 311.688962 -239.840603 
L 312.412405 -242.632581 
L 313.114551 -245.424559 
L 313.795907 -248.216536 
L 314.457145 -251.008514 
L 315.099086 -253.800492 
L 315.72269 -256.59247 
L 316.32904 -259.384447 
L 316.919334 -262.176425 
L 317.494866 -264.968403 
L 318.057018 -267.760381 
L 318.607241 -270.552358 
L 319.147049 -273.344336 
L 319.677999 -276.136314 
L 320.201679 -278.928292 
L 320.7197 -281.720269 
L 321.233678 -284.512247 
L 321.74522 -287.304225 
L 322.255917 -290.096203 
L 322.767328 -292.88818 
L 323.28097 -295.680158 
L 323.798303 -298.472136 
L 324.320723 -301.264114 
L 324.84955 -304.056091 
L 325.386017 -306.848069 
L 325.931261 -309.640047 
L 326.486317 -312.432025 
L 327.052103 -315.224002 
L 327.629421 -318.01598 
L 328.218946 -320.807958 
L 328.821221 -323.599936 
L 329.436653 -326.391913 
L 330.065512 -329.183891 
L 330.707924 -331.975869 
L 331.363874 -334.767846 
L 332.033203 -337.559824 
L 332.715613 -340.351802 
L 333.410666 -343.14378 
L 390.541209 -343.14378 
L 390.541209 -343.14378 
L 391.236262 -340.351802 
L 391.918672 -337.559824 
L 392.588001 -334.767846 
L 393.243951 -331.975869 
L 393.886363 -329.183891 
L 394.515222 -326.391913 
L 395.130654 -323.599936 
L 395.732929 -320.807958 
L 396.322454 -318.01598 
L 396.899772 -315.224002 
L 397.465558 -312.432025 
L 398.020614 -309.640047 
L 398.565858 -306.848069 
L 399.102325 -304.056091 
L 399.631152 -301.264114 
L 400.153572 -298.472136 
L 400.670905 -295.680158 
L 401.184547 -292.88818 
L 401.695958 -290.096203 
L 402.206655 -287.304225 
L 402.718197 -284.512247 
L 403.232175 -281.720269 
L 403.750196 -278.928292 
L 404.273876 -276.136314 
L 404.804826 -273.344336 
L 405.344634 -270.552358 
L 405.894857 -267.760381 
L 406.457009 -264.968403 
L 407.032541 -262.176425 
L 407.622835 -259.384447 
L 408.229185 -256.59247 
L 408.852789 -253.800492 
L 409.49473 -251.008514 
L 410.155968 -248.216536 
L 410.837324 -245.424559 
L 411.53947 -242.632581 
L 412.262913 -239.840603 
L 413.007988 -237.048625 
L 413.774843 -234.256648 
L 414.56343 -231.46467 
L 415.373495 -228.672692 
L 416.20457 -225.880714 
L 417.055961 -223.088737 
L 417.926747 -220.296759 
L 418.81577 -217.504781 
L 419.721629 -214.712804 
L 420.642684 -211.920826 
L 421.577048 -209.128848 
L 422.522589 -206.33687 
L 423.476936 -203.544893 
L 424.437477 -200.752915 
L 425.401371 -197.960937 
L 426.365553 -195.168959 
L 427.326745 -192.376982 
L 428.281469 -189.585004 
L 429.226063 -186.793026 
L 430.156696 -184.001048 
L 431.069389 -181.209071 
L 431.960036 -178.417093 
L 432.824427 -175.625115 
L 433.658273 -172.833137 
L 434.457233 -170.04116 
L 435.216942 -167.249182 
L 435.933041 -164.457204 
L 436.601209 -161.665226 
L 437.21719 -158.873249 
L 437.776831 -156.081271 
L 438.276106 -153.289293 
L 438.711158 -150.497315 
L 439.078318 -147.705338 
L 439.374148 -144.91336 
L 439.595458 -142.121382 
L 439.739345 -139.329404 
L 439.80321 -136.537427 
L 439.784787 -133.745449 
L 439.682163 -130.953471 
L 439.493795 -128.161493 
L 439.218529 -125.369516 
L 438.855609 -122.577538 
L 438.404692 -119.78556 
L 437.865847 -116.993583 
L 437.239564 -114.201605 
L 436.526752 -111.409627 
L 435.728732 -108.617649 
L 434.847231 -105.825672 
L 433.884372 -103.033694 
L 432.842662 -100.241716 
L 431.724968 -97.449738 
L 430.534504 -94.657761 
L 429.274805 -91.865783 
L 427.949705 -89.073805 
L 426.563303 -86.281827 
L 425.119944 -83.48985 
L 423.624182 -80.697872 
L 422.080749 -77.905894 
L 420.494525 -75.113916 
L 418.870506 -72.321939 
L 417.213767 -69.529961 
L 415.529433 -66.737983 
z
" style="stroke: #c2410c; stroke-opacity: 0.35"/>
    </defs>
    <g clip-path="url(#pe24c3e908d)">
     <use xlink:href="#m33e7979a79" x="0" y="391.52407" style="fill: #c2410c; fill-opacity: 0.35; stroke: #c2410c; stroke-opacity: 0.35"/>
    </g>
   </g>
   <g id="LineCollection_2">
    <path d="M 323.062301 237.852994 
L 400.889574 237.852994 
" clip-path="url(#pe24c3e908d)" style="fill: none; stroke: #c2410c; stroke-width: 1.5"/>
   </g>
   <g id="patch_8">
    <path d="M 276.365938 338.606376 
L 276.365938 34.56 
" style="fill: none; stroke: #000000; stroke-width: 0.8; stroke-linejoin: miter; stroke-linecap: square"/>
   </g>
   <g id="patch_9">
    <path d="M 447.585937 338.606376 
L 447.585937 34.56 
" style="fill: none; stroke: #000000; stroke-width: 0.8; stroke-linejoin: miter; stroke-linecap: square"/>
   </g>
   <g id="patch_10">
    <path d="M 276.365938 338.606376 
L 447.585937 338.606376 
" style="fill: none; stroke: #000000; stroke-width: 0.8; stroke-linejoin: miter; stroke-linecap: square"/>
   </g>
   <g id="patch_11">
    <path d="M 276.365938 34.56 
L 447.585937 34.56 
" style="fill: none; stroke: #000000; stroke-width: 0.8; stroke-linejoin: miter; stroke-linecap: square"/>
   </g>
   <g id="PathCollection_2">
    <g clip-path="url(#pe24c3e908d)">
     <use xlink:href="#m1b1274a96f" x="361.975937" y="188.098801" style="fill: #111827; stroke: #111827"/>
    </g>
   </g>
  </g>
  <g id="axes_3">
   <g id="patch_12">
    <path d="M 498.425938 338.606376 
L 669.645937 338.606376 
L 669.645937 34.56 
L 498.425938 34.56 
z
" style="fill: #ffffff"/>
   </g>
   <g id="matplotlib.axis_5">
    <g id="xtick_3">
     <g id="line2d_33">
      <path d="M 584.035938 338.606376 
L 584.035938 34.56 
" clip-path="url(#p187b088140)" style="fill: none; stroke: #b0b0b0; stroke-opacity: 0.2; stroke-width: 0.6; stroke-linecap: square"/>
     </g>
     <g id="line2d_34">
      <g>
       <use xlink:href="#mad2678c426" x="584.035938" y="338.606376" style="stroke: #000000; stroke-width: 0.8"/>
      </g>
     </g>
     <g id="text_19">
      <!-- Speech rate -->
      <g transform="translate(519.342445 370.855775) rotate(-15) scale(0.11 -0.11)">
       <defs>
        <path id="DejaVuSans-70" d="M 1159 525 
L 1159 -1331 
L 581 -1331 
L 581 3500 
L 1159 3500 
L 1159 2969 
Q 1341 3281 1617 3432 
Q 1894 3584 2278 3584 
Q 2916 3584 3314 3078 
Q 3713 2572 3713 1747 
Q 3713 922 3314 415 
Q 2916 -91 2278 -91 
Q 1894 -91 1617 61 
Q 1341 213 1159 525 
z
M 3116 1747 
Q 3116 2381 2855 2742 
Q 2594 3103 2138 3103 
Q 1681 3103 1420 2742 
Q 1159 2381 1159 1747 
Q 1159 1113 1420 752 
Q 1681 391 2138 391 
Q 2594 391 2855 752 
Q 3116 1113 3116 1747 
z
" transform="scale(0.015625)"/>
       </defs>
       <use xlink:href="#DejaVuSans-53"/>
       <use xlink:href="#DejaVuSans-70" transform="translate(63.476562 0)"/>
       <use xlink:href="#DejaVuSans-65" transform="translate(126.953125 0)"/>
       <use xlink:href="#DejaVuSans-65" transform="translate(188.476562 0)"/>
       <use xlink:href="#DejaVuSans-63" transform="translate(250 0)"/>
       <use xlink:href="#DejaVuSans-68" transform="translate(304.980469 0)"/>
       <use xlink:href="#DejaVuSans-20" transform="translate(368.359375 0)"/>
       <use xlink:href="#DejaVuSans-72" transform="translate(400.146484 0)"/>
       <use xlink:href="#DejaVuSans-61" transform="translate(441.259766 0)"/>
       <use xlink:href="#DejaVuSans-74" transform="translate(502.539062 0)"/>
       <use xlink:href="#DejaVuSans-65" transform="translate(541.748047 0)"/>
      </g>
     </g>
    </g>
   </g>
   <g id="matplotlib.axis_6">
    <g id="ytick_15">
     <g id="line2d_35">
      <path d="M 498.425938 301.087016 
L 669.645937 301.087016 
" clip-path="url(#p187b088140)" style="fill: none; stroke: #b0b0b0; stroke-opacity: 0.2; stroke-width: 0.6; stroke-linecap: square"/>
     </g>
     <g id="line2d_36">
      <g>
       <use xlink:href="#m7998e7c2f3" x="498.425938" y="301.087016" style="stroke: #000000; stroke-width: 0.8"/>
      </g>
     </g>
     <g id="text_20">
      <!-- 0.8 -->
      <g transform="translate(473.9325 305.266157) scale(0.11 -0.11)">
       <use xlink:href="#DejaVuSans-30"/>
       <use xlink:href="#DejaVuSans-2e" transform="translate(63.623047 0)"/>
       <use xlink:href="#DejaVuSans-38" transform="translate(95.410156 0)"/>
      </g>
     </g>
    </g>
    <g id="ytick_16">
     <g id="line2d_37">
      <path d="M 498.425938 254.95635 
L 669.645937 254.95635 
" clip-path="url(#p187b088140)" style="fill: none; stroke: #b0b0b0; stroke-opacity: 0.2; stroke-width: 0.6; stroke-linecap: square"/>
     </g>
     <g id="line2d_38">
      <g>
       <use xlink:href="#m7998e7c2f3" x="498.425938" y="254.95635" style="stroke: #000000; stroke-width: 0.8"/>
      </g>
     </g>
     <g id="text_21">
      <!-- 1.0 -->
      <g transform="translate(473.9325 259.135491) scale(0.11 -0.11)">
       <use xlink:href="#DejaVuSans-31"/>
       <use xlink:href="#DejaVuSans-2e" transform="translate(63.623047 0)"/>
       <use xlink:href="#DejaVuSans-30" transform="translate(95.410156 0)"/>
      </g>
     </g>
    </g>
    <g id="ytick_17">
     <g id="line2d_39">
      <path d="M 498.425938 208.825684 
L 669.645937 208.825684 
" clip-path="url(#p187b088140)" style="fill: none; stroke: #b0b0b0; stroke-opacity: 0.2; stroke-width: 0.6; stroke-linecap: square"/>
     </g>
     <g id="line2d_40">
      <g>
       <use xlink:href="#m7998e7c2f3" x="498.425938" y="208.825684" style="stroke: #000000; stroke-width: 0.8"/>
      </g>
     </g>
     <g id="text_22">
      <!-- 1.2 -->
      <g transform="translate(473.9325 213.004825) scale(0.11 -0.11)">
       <use xlink:href="#DejaVuSans-31"/>
       <use xlink:href="#DejaVuSans-2e" transform="translate(63.623047 0)"/>
       <use xlink:href="#DejaVuSans-32" transform="translate(95.410156 0)"/>
      </g>
     </g>
    </g>
    <g id="ytick_18">
     <g id="line2d_41">
      <path d="M 498.425938 162.695018 
L 669.645937 162.695018 
" clip-path="url(#p187b088140)" style="fill: none; stroke: #b0b0b0; stroke-opacity: 0.2; stroke-width: 0.6; stroke-linecap: square"/>
     </g>
     <g id="line2d_42">
      <g>
       <use xlink:href="#m7998e7c2f3" x="498.425938" y="162.695018" style="stroke: #000000; stroke-width: 0.8"/>
      </g>
     </g>
     <g id="text_23">
      <!-- 1.4 -->
      <g transform="translate(473.9325 166.874158) scale(0.11 -0.11)">
       <use xlink:href="#DejaVuSans-31"/>
       <use xlink:href="#DejaVuSans-2e" transform="translate(63.623047 0)"/>
       <use xlink:href="#DejaVuSans-34" transform="translate(95.410156 0)"/>
      </g>
     </g>
    </g>
    <g id="ytick_19">
     <g id="line2d_43">
      <path d="M 498.425938 116.564351 
L 669.645937 116.564351 
" clip-path="url(#p187b088140)" style="fill: none; stroke: #b0b0b0; stroke-opacity: 0.2; stroke-width: 0.6; stroke-linecap: square"/>
     </g>
     <g id="line2d_44">
      <g>
       <use xlink:href="#m7998e7c2f3" x="498.425938" y="116.564351" style="stroke: #000000; stroke-width: 0.8"/>
      </g>
     </g>
     <g id="text_24">
      <!-- 1.6 -->
      <g transform="translate(473.9325 120.743492) scale(0.11 -0.11)">
       <use xlink:href="#DejaVuSans-31"/>
       <use xlink:href="#DejaVuSans-2e" transform="translate(63.623047 0)"/>
       <use xlink:href="#DejaVuSans-36" transform="translate(95.410156 0)"/>
      </g>
     </g>
    </g>
    <g id="ytick_20">
     <g id="line2d_45">
      <path d="M 498.425938 70.433685 
L 669.645937 70.433685 
" clip-path="url(#p187b088140)" style="fill: none; stroke: #b0b0b0; stroke-opacity: 0.2; stroke-width: 0.6; stroke-linecap: square"/>
     </g>
     <g id="line2d_46">
      <g>
       <use xlink:href="#m7998e7c2f3" x="498.425938" y="70.433685" style="stroke: #000000; stroke-width: 0.8"/>
      </g>
     </g>
     <g id="text_25">
      <!-- 1.8 -->
      <g transform="translate(473.9325 74.612826) scale(0.11 -0.11)">
       <use xlink:href="#DejaVuSans-31"/>
       <use xlink:href="#DejaVuSans-2e" transform="translate(63.623047 0)"/>
       <use xlink:href="#DejaVuSans-38" transform="translate(95.410156 0)"/>
      </g>
     </g>
    </g>
    <g id="text_26">
     <!-- segments / second -->
     <g transform="translate(467.436875 243.260688) rotate(-90) scale(0.12 -0.12)">
      <defs>
       <path id="DejaVuSans-67" d="M 2906 1791 
Q 2906 2416 2648 2759 
Q 2391 3103 1925 3103 
Q 1463 3103 1205 2759 
Q 947 2416 947 1791 
Q 947 1169 1205 825 
Q 1463 481 1925 481 
Q 2391 481 2648 825 
Q 2906 1169 2906 1791 
z
M 3481 434 
Q 3481 -459 3084 -895 
Q 2688 -1331 1869 -1331 
Q 1566 -1331 1297 -1286 
Q 1028 -1241 775 -1147 
L 775 -588 
Q 1028 -725 1275 -790 
Q 1522 -856 1778 -856 
Q 2344 -856 2625 -561 
Q 2906 -266 2906 331 
L 2906 616 
Q 2728 306 2450 153 
Q 2172 0 1784 0 
Q 1141 0 747 490 
Q 353 981 353 1791 
Q 353 2603 747 3093 
Q 1141 3584 1784 3584 
Q 2172 3584 2450 3431 
Q 2728 3278 2906 2969 
L 2906 3500 
L 3481 3500 
L 3481 434 
z
" transform="scale(0.015625)"/>
       <path id="DejaVuSans-2f" d="M 1625 4666 
L 2156 4666 
L 531 -594 
L 0 -594 
L 1625 4666 
z
" transform="scale(0.015625)"/>
      </defs>
      <use xlink:href="#DejaVuSans-73"/>
      <use xlink:href="#DejaVuSans-65" transform="translate(52.099609 0)"/>
      <use xlink:href="#DejaVuSans-67" transform="translate(113.623047 0)"/>
      <use xlink:href="#DejaVuSans-6d" transform="translate(177.099609 0)"/>
      <use xlink:href="#DejaVuSans-65" transform="translate(274.511719 0)"/>
      <use xlink:href="#DejaVuSans-6e" transform="translate(336.035156 0)"/>
      <use xlink:href="#DejaVuSans-74" transform="translate(399.414062 0)"/>
      <use xlink:href="#DejaVuSans-73" transform="translate(438.623047 0)"/>
      <use xlink:href="#DejaVuSans-20" transform="translate(490.722656 0)"/>
      <use xlink:href="#DejaVuSans-2f" transform="translate(522.509766 0)"/>
      <use xlink:href="#DejaVuSans-20" transform="translate(556.201172 0)"/>
      <use xlink:href="#DejaVuSans-73" transform="translate(587.988281 0)"/>
      <use xlink:href="#DejaVuSans-65" transform="translate(640.087891 0)"/>
      <use xlink:href="#DejaVuSans-63" transform="translate(701.611328 0)"/>
      <use xlink:href="#DejaVuSans-6f" transform="translate(756.591797 0)"/>
      <use xlink:href="#DejaVuSans-6e" transform="translate(817.773438 0)"/>
      <use xlink:href="#DejaVuSans-64" transform="translate(881.152344 0)"/>
     </g>
    </g>
   </g>
   <g id="FillBetweenPolyCollection_3">
    <defs>
     <path id="m7c29637044" d="M 629.89979 -66.737983 
L 538.172085 -66.737983 
L 536.78033 -69.388714 
L 535.395996 -72.039445 
L 534.021601 -74.690176 
L 532.659664 -77.340907 
L 531.312688 -79.991638 
L 529.983151 -82.642369 
L 528.673496 -85.2931 
L 527.386118 -87.943831 
L 526.123351 -90.594561 
L 524.887462 -93.245292 
L 523.680632 -95.896023 
L 522.50495 -98.546754 
L 521.362401 -101.197485 
L 520.254853 -103.848216 
L 519.184049 -106.498947 
L 518.151597 -109.149678 
L 517.15896 -111.800409 
L 516.207452 -114.45114 
L 515.298225 -117.101871 
L 514.432266 -119.752602 
L 513.610393 -122.403333 
L 512.833251 -125.054063 
L 512.101308 -127.704794 
L 511.414854 -130.355525 
L 510.774004 -133.006256 
L 510.178697 -135.656987 
L 509.628701 -138.307718 
L 509.123615 -140.958449 
L 508.662878 -143.60918 
L 508.245774 -146.259911 
L 507.871442 -148.910642 
L 507.538884 -151.561373 
L 507.246978 -154.212104 
L 506.994485 -156.862835 
L 506.780066 -159.513565 
L 506.602294 -162.164296 
L 506.459666 -164.815027 
L 506.350616 -167.465758 
L 506.273533 -170.116489 
L 506.226771 -172.76722 
L 506.208665 -175.417951 
L 506.217543 -178.068682 
L 506.251742 -180.719413 
L 506.309617 -183.370144 
L 506.389556 -186.020875 
L 506.489992 -188.671606 
L 506.609409 -191.322337 
L 506.746356 -193.973067 
L 506.899456 -196.623798 
L 507.067409 -199.274529 
L 507.249006 -201.92526 
L 507.443127 -204.575991 
L 507.648755 -207.226722 
L 507.864971 -209.877453 
L 508.090965 -212.528184 
L 508.326035 -215.178915 
L 508.569587 -217.829646 
L 508.82114 -220.480377 
L 509.080327 -223.131108 
L 509.34689 -225.781839 
L 509.620683 -228.43257 
L 509.901673 -231.0833 
L 510.189933 -233.734031 
L 510.485646 -236.384762 
L 510.789099 -239.035493 
L 511.100683 -241.686224 
L 511.420886 -244.336955 
L 511.750296 -246.987686 
L 512.089592 -249.638417 
L 512.439542 -252.289148 
L 512.800997 -254.939879 
L 513.174888 -257.59061 
L 513.562217 -260.241341 
L 513.964053 -262.892072 
L 514.381523 -265.542802 
L 514.815806 -268.193533 
L 515.268121 -270.844264 
L 515.739721 -273.494995 
L 516.231879 -276.145726 
L 516.745882 -278.796457 
L 517.283012 -281.447188 
L 517.84454 -284.097919 
L 518.43171 -286.74865 
L 519.045725 -289.399381 
L 519.687732 -292.050112 
L 520.358812 -294.700843 
L 521.059959 -297.351574 
L 521.792071 -300.002304 
L 522.555933 -302.653035 
L 523.352206 -305.303766 
L 524.181407 -307.954497 
L 525.043906 -310.605228 
L 525.939906 -313.255959 
L 526.869439 -315.90669 
L 527.832354 -318.557421 
L 528.828308 -321.208152 
L 529.856766 -323.858883 
L 530.916992 -326.509614 
L 532.008049 -329.160345 
L 636.063826 -329.160345 
L 636.063826 -329.160345 
L 637.154883 -326.509614 
L 638.215109 -323.858883 
L 639.243567 -321.208152 
L 640.239521 -318.557421 
L 641.202436 -315.90669 
L 642.131969 -313.255959 
L 643.027969 -310.605228 
L 643.890468 -307.954497 
L 644.719669 -305.303766 
L 645.515942 -302.653035 
L 646.279804 -300.002304 
L 647.011916 -297.351574 
L 647.713063 -294.700843 
L 648.384143 -292.050112 
L 649.02615 -289.399381 
L 649.640165 -286.74865 
L 650.227335 -284.097919 
L 650.788863 -281.447188 
L 651.325993 -278.796457 
L 651.839996 -276.145726 
L 652.332154 -273.494995 
L 652.803754 -270.844264 
L 653.256069 -268.193533 
L 653.690352 -265.542802 
L 654.107822 -262.892072 
L 654.509658 -260.241341 
L 654.896987 -257.59061 
L 655.270878 -254.939879 
L 655.632333 -252.289148 
L 655.982283 -249.638417 
L 656.321579 -246.987686 
L 656.650989 -244.336955 
L 656.971192 -241.686224 
L 657.282776 -239.035493 
L 657.586229 -236.384762 
L 657.881942 -233.734031 
L 658.170202 -231.0833 
L 658.451192 -228.43257 
L 658.724985 -225.781839 
L 658.991548 -223.131108 
L 659.250735 -220.480377 
L 659.502288 -217.829646 
L 659.74584 -215.178915 
L 659.98091 -212.528184 
L 660.206904 -209.877453 
L 660.42312 -207.226722 
L 660.628748 -204.575991 
L 660.822869 -201.92526 
L 661.004466 -199.274529 
L 661.172419 -196.623798 
L 661.325519 -193.973067 
L 661.462466 -191.322337 
L 661.581883 -188.671606 
L 661.682319 -186.020875 
L 661.762258 -183.370144 
L 661.820133 -180.719413 
L 661.854332 -178.068682 
L 661.86321 -175.417951 
L 661.845104 -172.76722 
L 661.798342 -170.116489 
L 661.721259 -167.465758 
L 661.612209 -164.815027 
L 661.469581 -162.164296 
L 661.291809 -159.513565 
L 661.07739 -156.862835 
L 660.824897 -154.212104 
L 660.532991 -151.561373 
L 660.200433 -148.910642 
L 659.826101 -146.259911 
L 659.408997 -143.60918 
L 658.94826 -140.958449 
L 658.443174 -138.307718 
L 657.893178 -135.656987 
L 657.297871 -133.006256 
L 656.657021 -130.355525 
L 655.970567 -127.704794 
L 655.238624 -125.054063 
L 654.461482 -122.403333 
L 653.639609 -119.752602 
L 652.77365 -117.101871 
L 651.864423 -114.45114 
L 650.912915 -111.800409 
L 649.920278 -109.149678 
L 648.887826 -106.498947 
L 647.817022 -103.848216 
L 646.709474 -101.197485 
L 645.566925 -98.546754 
L 644.391243 -95.896023 
L 643.184413 -93.245292 
L 641.948524 -90.594561 
L 640.685757 -87.943831 
L 639.398379 -85.2931 
L 638.088724 -82.642369 
L 636.759187 -79.991638 
L 635.412211 -77.340907 
L 634.050274 -74.690176 
L 632.675879 -72.039445 
L 631.291545 -69.388714 
L 629.89979 -66.737983 
z
" style="stroke: #c2410c; stroke-opacity: 0.35"/>
    </defs>
    <g clip-path="url(#p187b088140)">
     <use xlink:href="#m7c29637044" x="0" y="391.52407" style="fill: #c2410c; fill-opacity: 0.35; stroke: #c2410c; stroke-opacity: 0.35"/>
    </g>
   </g>
   <g id="LineCollection_3">
    <path d="M 545.122301 189.014108 
L 622.949574 189.014108 
" clip-path="url(#p187b088140)" style="fill: none; stroke: #c2410c; stroke-width: 1.5"/>
   </g>
   <g id="patch_13">
    <path d="M 498.425938 338.606376 
L 498.425938 34.56 
" style="fill: none; stroke: #000000; stroke-width: 0.8; stroke-linejoin: miter; stroke-linecap: square"/>
   </g>
   <g id="patch_14">
    <path d="M 669.645937 338.606376 
L 669.645937 34.56 
" style="fill: none; stroke: #000000; stroke-width: 0.8; stroke-linejoin: miter; stroke-linecap: square"/>
   </g>
   <g id="patch_15">
    <path d="M 498.425938 338.606376 
L 669.645937 338.606376 
" style="fill: none; stroke: #000000; stroke-width: 0.8; stroke-linejoin: miter; stroke-linecap: square"/>
   </g>
   <g id="patch_16">
    <path d="M 498.425938 34.56 
L 669.645937 34.56 
" style="fill: none; stroke: #000000; stroke-width: 0.8; stroke-linejoin: miter; stroke-linecap: square"/>
   </g>
   <g id="PathCollection_3">
    <g clip-path="url(#p187b088140)">
     <use xlink:href="#m1b1274a96f" x="584.035938" y="48.38029" style="fill: #111827; stroke: #111827"/>
    </g>
   </g>
   <g id="legend_1">
    <g id="patch_17">
     <path d="M 523.222266 181.545532 
L 545.222266 181.545532 
L 545.222266 173.845532 
L 523.222266 173.845532 
z
" style="fill: #c2410c; opacity: 0.35; stroke: #c2410c; stroke-linejoin: miter"/>
    </g>
    <g id="text_27">
     <!-- Reference group -->
     <g transform="translate(554.022266 181.545532) scale(0.11 -0.11)">
      <defs>
       <path id="DejaVuSans-52" d="M 2841 2188 
Q 3044 2119 3236 1894 
Q 3428 1669 3622 1275 
L 4263 0 
L 3584 0 
L 2988 1197 
Q 2756 1666 2539 1819 
Q 2322 1972 1947 1972 
L 1259 1972 
L 1259 0 
L 628 0 
L 628 4666 
L 2053 4666 
Q 2853 4666 3247 4331 
Q 3641 3997 3641 3322 
Q 3641 2881 3436 2590 
Q 3231 2300 2841 2188 
z
M 1259 4147 
L 1259 2491 
L 2053 2491 
Q 2509 2491 2742 2702 
Q 2975 2913 2975 3322 
Q 2975 3731 2742 3939 
Q 2509 4147 2053 4147 
L 1259 4147 
z
" transform="scale(0.015625)"/>
       <path id="DejaVuSans-66" d="M 2375 4863 
L 2375 4384 
L 1825 4384 
Q 1516 4384 1395 4259 
Q 1275 4134 1275 3809 
L 1275 3500 
L 2222 3500 
L 2222 3053 
L 1275 3053 
L 1275 0 
L 697 0 
L 697 3053 
L 147 3053 
L 147 3500 
L 697 3500 
L 697 3744 
Q 697 4328 969 4595 
Q 1241 4863 1831 4863 
L 2375 4863 
z
" transform="scale(0.015625)"/>
      </defs>
      <use xlink:href="#DejaVuSans-52"/>
      <use xlink:href="#DejaVuSans-65" transform="translate(64.982422 0)"/>
      <use xlink:href="#DejaVuSans-66" transform="translate(126.505859 0)"/>
      <use xlink:href="#DejaVuSans-65" transform="translate(161.710938 0)"/>
      <use xlink:href="#DejaVuSans-72" transform="translate(223.234375 0)"/>
      <use xlink:href="#DejaVuSans-65" transform="translate(262.097656 0)"/>
      <use xlink:href="#DejaVuSans-6e" transform="translate(323.621094 0)"/>
      <use xlink:href="#DejaVuSans-63" transform="translate(387 0)"/>
      <use xlink:href="#DejaVuSans-65" transform="translate(441.980469 0)"/>
      <use xlink:href="#DejaVuSans-20" transform="translate(503.503906 0)"/>
      <use xlink:href="#DejaVuSans-67" transform="translate(535.291016 0)"/>
      <use xlink:href="#DejaVuSans-72" transform="translate(598.767578 0)"/>
      <use xlink:href="#DejaVuSans-6f" transform="translate(637.630859 0)"/>
      <use xlink:href="#DejaVuSans-75" transform="translate(698.8125 0)"/>
      <use xlink:href="#DejaVuSans-70" transform="translate(762.191406 0)"/>
     </g>
    </g>
    <g id="line2d_47">
     <defs>
      <path id="mbb300d8f69" d="M -0 4.242641 
L 4.242641 0 
L 0 -4.242641 
L -4.242641 -0 
z
" style="stroke: #111827; stroke-linejoin: miter"/>
     </defs>
     <g>
      <use xlink:href="#mbb300d8f69" x="534.222266" y="193.841469" style="fill: #111827; stroke: #111827; stroke-linejoin: miter"/>
     </g>
    </g>
    <g id="text_28">
     <!-- Patient -->
     <g transform="translate(554.022266 197.691469) scale(0.11 -0.11)">
      <use xlink:href="#DejaVuSans-50"/>
      <use xlink:href="#DejaVuSans-61" transform="translate(55.802734 0)"/>
      <use xlink:href="#DejaVuSans-74" transform="translate(117.082031 0)"/>
      <use xlink:href="#DejaVuSans-69" transform="translate(156.291016 0)"/>
      <use xlink:href="#DejaVuSans-65" transform="translate(184.074219 0)"/>
      <use xlink:href="#DejaVuSans-6e" transform="translate(245.597656 0)"/>
      <use xlink:href="#DejaVuSans-74" transform="translate(308.976562 0)"/>
     </g>
    </g>
   </g>
  </g>
  <g id="text_29">
   <!-- Autism spectrum condition (ASC) (male) -->
   <g transform="translate(197.275625 17.837812) scale(0.14 -0.14)">
    <defs>
     <path id="DejaVuSans-41" d="M 2188 4044 
L 1331 1722 
L 3047 1722 
L 2188 4044 
z
M 1831 4666 
L 2547 4666 
L 4325 0 
L 3669 0 
L 3244 1197 
L 1141 1197 
L 716 0 
L 50 0 
L 1831 4666 
z
" transform="scale(0.015625)"/>
     <path id="DejaVuSans-28" d="M 1984 4856 
Q 1566 4138 1362 3434 
Q 1159 2731 1159 2009 
Q 1159 1288 1364 580 
Q 1569 -128 1984 -844 
L 1484 -844 
Q 1016 -109 783 600 
Q 550 1309 550 2009 
Q 550 2706 781 3412 
Q 1013 4119 1484 4856 
L 1984 4856 
z
" transform="scale(0.015625)"/>
     <path id="DejaVuSans-43" d="M 4122 4306 
L 4122 3641 
Q 3803 3938 3442 4084 
Q 3081 4231 2675 4231 
Q 1875 4231 1450 3742 
Q 1025 3253 1025 2328 
Q 1025 1406 1450 917 
Q 1875 428 2675 428 
Q 3081 428 3442 575 
Q 3803 722 4122 1019 
L 4122 359 
Q 3791 134 3420 21 
Q 3050 -91 2638 -91 
Q 1578 -91 968 557 
Q 359 1206 359 2328 
Q 359 3453 968 4101 
Q 1578 4750 2638 4750 
Q 3056 4750 3426 4639 
Q 3797 4528 4122 4306 
z
" transform="scale(0.015625)"/>
     <path id="DejaVuSans-29" d="M 513 4856 
L 1013 4856 
Q 1481 4119 1714 3412 
Q 1947 2706 1947 2009 
Q 1947 1309 1714 600 
Q 1481 -109 1013 -844 
L 513 -844 
Q 928 -128 1133 580 
Q 1338 1288 1338 2009 
Q 1338 2731 1133 3434 
Q 928 4138 513 4856 
z
" transform="scale(0.015625)"/>
    </defs>
    <use xlink:href="#DejaVuSans-41"/>
    <use xlink:href="#DejaVuSans-75" transform="translate(68.408203 0)"/>
    <use xlink:href="#DejaVuSans-74" transform="translate(131.787109 0)"/>
    <use xlink:href="#DejaVuSans-69" transform="translate(170.996094 0)"/>
    <use xlink:href="#DejaVuSans-73" transform="translate(198.779297 0)"/>
    <use xlink:href="#DejaVuSans-6d" transform="translate(250.878906 0)"/>
    <use xlink:href="#DejaVuSans-20" transform="translate(348.291016 0)"/>
    <use xlink:href="#DejaVuSans-73" transform="translate(380.078125 0)"/>
    <use xlink:href="#DejaVuSans-70" transform="translate(432.177734 0)"/>
    <use xlink:href="#DejaVuSans-65" transform="translate(495.654297 0)"/>
    <use xlink:href="#DejaVuSans-63" transform="translate(557.177734 0)"/>
    <use xlink:href="#DejaVuSans-74" transform="translate(612.158203 0)"/>
    <use xlink:href="#DejaVuSans-72" transform="translate(651.367188 0)"/>
    <use xlink:href="#DejaVuSans-75" transform="translate(692.480469 0)"/>
    <use xlink:href="#DejaVuSans-6d" transform="translate(755.859375 0)"/>
    <use xlink:href="#DejaVuSans-20" transform="translate(853.271484 0)"/>
    <use xlink:href="#DejaVuSans-63" transform="translate(885.058594 0)"/>
    <use xlink:href="#DejaVuSans-6f" transform="translate(940.039062 0)"/>
    <use xlink:href="#DejaVuSans-6e" transform="translate(1001.220703 0)"/>
    <use xlink:href="#DejaVuSans-64" transform="translate(1064.599609 0)"/>
    <use xlink:href="#DejaVuSans-69" transform="translate(1128.076172 0)"/>
    <use xlink:href="#DejaVuSans-74" transform="translate(1155.859375 0)"/>
    <use xlink:href="#DejaVuSans-69" transform="translate(1195.068359 0)"/>
    <use xlink:href="#DejaVuSans-6f" transform="translate(1222.851562 0)"/>
    <use xlink:href="#DejaVuSans-6e" transform="translate(1284.033203 0)"/>
    <use xlink:href="#DejaVuSans-20" transform="translate(1347.412109 0)"/>
    <use xlink:href="#DejaVuSans-28" transform="translate(1379.199219 0)"/>
    <use xlink:href="#DejaVuSans-41" transform="translate(1418.212891 0)"/>
    <use xlink:href="#DejaVuSans-53" transform="translate(1486.621094 0)"/>
    <use xlink:href="#DejaVuSans-43" transform="translate(1550.097656 0)"/>
    <use xlink:href="#DejaVuSans-29" transform="translate(1619.921875 0)"/>
    <use xlink:href="#DejaVuSans-20" transform="translate(1658.935547 0)"/>
    <use xlink:href="#DejaVuSans-28" transform="translate(1690.722656 0)"/>
    <use xlink:href="#DejaVuSans-6d" transform="translate(1729.736328 0)"/>
    <use xlink:href="#DejaVuSans-61" transform="translate(1827.148438 0)"/>
    <use xlink:href="#DejaVuSans-6c" transform="translate(1888.427734 0)"/>
    <use xlink:href="#DejaVuSans-65" transform="translate(1916.210938 0)"/>
    <use xlink:href="#DejaVuSans-29" transform="translate(1977.734375 0)"/>
   </g>
  </g>
 </g>
 <defs>
  <clipPath id="pad32e8572f">
   <rect x="54.305937" y="34.56" width="171.22" height="304.046376"/>
  </clipPath>
  <clipPath id="pe24c3e908d">
   <rect x="276.365938" y="34.56" width="171.22" height="304.046376"/>
  </clipPath>
  <clipPath id="p187b088140">
   <rect x="498.425938" y="34.56" width="171.22" height="304.046376"/>
  </clipPath>
 </defs>
</svg>
