<?xml version="1.0" encoding="utf-8" standalone="no"?>
<!DOCTYPE svg PUBLIC "-//W3C//DTD SVG 1.1//EN"
  "http://www.w3.org/Graphics/SVG/1.1/DTD/svg11.dtd">
<svg xmlns:xlink="http://www.w3.org/1999/xlink" width="712.837188pt" height="424.5775pt" viewBox="0 0 712.837188 424.5775" xmlns="http://www.w3.org/2000/svg" version="1.1">
 <metadata>
  <rdf:RDF xmlns:dc="http://purl.org/dc/elements/1.1/" xmlns:cc="http://creativecommons.org/ns#" xmlns:rdf="http://www.w3.org/1999/02/22-rdf-syntax-ns#">
   <cc:Work>
    <dc:type rdf:resource="http://purl.org/dc/dcmitype/StillImage"/>
    <dc:date>2026-06-14T19:08:15.069592</dc:date>
    <dc:format>image/svg+xml</dc:format>
    <dc:creator>
     <cc:Agent>
      <dc:title>Matplotlib v3.10.1, https://matplotlib.org/</dc:title>
     </cc:Agent>
    </dc:creator>
   </cc:Work>
  </rdf:RDF>
 </metadata>
 <defs>
  <style type="text/css">*{stroke-linejoin: round; stroke-linecap: butt}</style>
 </defs>
 <g id="figure_1">
  <g id="patch_1">
   <path d="M 0 424.5775 
L 712.837188 424.5775 
L 712.837188 0 
L 0 0 
z
" style="fill: #ffffff"/>
  </g>
  <g id="axes_1">
   <g id="patch_2">
    <path d="M 47.307188 384.117812 
L 705.637188 384.117812 
L 705.637188 23.837812 
L 47.307188 23.837812 
z
" style="fill: #ffffff"/>
   </g>
   <g id="matplotlib.axis_1">
    <g id="xtick_1">
     <g id="line2d_1">
      <path d="M 47.307188 384.117812 
L 47.307188 23.837812 
" clip-path="url(#p3ca98fcae9)" style="fill: none; stroke: #b0b0b0; stroke-opacity: 0.2; stroke-width: 0.6; stroke-linecap: square"/>
     </g>
     <g id="line2d_2">
      <defs>
       <path id="mf5f662c6c4" d="M 0 0 
L 0 3.5 
" style="stroke: #000000; stroke-width: 0.8"/>
      </defs>
      <g>
       <use xlink:href="#mf5f662c6c4" x="47.307188" y="384.117812" style="stroke: #000000; stroke-width: 0.8"/>
      </g>
     </g>
     <g id="text_1">
      <!-- 0 -->
      <g transform="translate(43.807813 399.476094) scale(0.11 -0.11)">
       <defs>
        <path id="DejaVuSans-30" d="M 2034 4250 
Q 1547 4250 1301 3770 
Q 1056 3291 1056 2328 
Q 1056 1369 1301 889 
Q 1547 409 2034 409 
Q 2525 409 2770 889 
Q 3016 1369 3016 2328 
Q 3016 3291 2770 3770 
Q 2525 4250 2034 4250 
z
M 2034 4750 
Q 2819 4750 3233 4129 
Q 3647 3509 3647 2328 
Q 3647 1150 3233 529 
Q 2819 -91 2034 -91 
Q 1250 -91 836 529 
Q 422 1150 422 2328 
Q 422 3509 836 4129 
Q 1250 4750 2034 4750 
z
" transform="scale(0.015625)"/>
       </defs>
       <use xlink:href="#DejaVuSans-30"/>
      </g>
     </g>
    </g>
    <g id="xtick_2">
     <g id="line2d_3">
      <path d="M 133.929556 384.117812 
L 133.929556 23.837812 
" clip-path="url(#p3ca98fcae9)" style="fill: none; stroke: #b0b0b0; stroke-opacity: 0.2; stroke-width: 0.6; stroke-linecap: square"/>
     </g>
     <g id="line2d_4">
      <g>
       <use xlink:href="#mf5f662c6c4" x="133.929556" y="384.117812" style="stroke: #000000; stroke-width: 0.8"/>
      </g>
     </g>
     <g id="text_2">
      <!-- 25 -->
      <g transform="translate(126.930806 399.476094) scale(0.11 -0.11)">
       <defs>
        <path id="DejaVuSans-32" d="M 1228 531 
L 3431 531 
L 3431 0 
L 469 0 
L 469 531 
Q 828 903 1448 1529 
Q 2069 2156 2228 2338 
Q 2531 2678 2651 2914 
Q 2772 3150 2772 3378 
Q 2772 3750 2511 3984 
Q 2250 4219 1831 4219 
Q 1534 4219 1204 4116 
Q 875 4013 500 3803 
L 500 4441 
Q 881 4594 1212 4672 
Q 1544 4750 1819 4750 
Q 2544 4750 2975 4387 
Q 3406 4025 3406 3419 
Q 3406 3131 3298 2873 
Q 3191 2616 2906 2266 
Q 2828 2175 2409 1742 
Q 1991 1309 1228 531 
z
" transform="scale(0.015625)"/>
        <path id="DejaVuSans-35" d="M 691 4666 
L 3169 4666 
L 3169 4134 
L 1269 4134 
L 1269 2991 
Q 1406 3038 1543 3061 
Q 1681 3084 1819 3084 
Q 2600 3084 3056 2656 
Q 3513 2228 3513 1497 
Q 3513 744 3044 326 
Q 2575 -91 1722 -91 
Q 1428 -91 1123 -41 
Q 819 9 494 109 
L 494 744 
Q 775 591 1075 516 
Q 1375 441 1709 441 
Q 2250 441 2565 725 
Q 2881 1009 2881 1497 
Q 2881 1984 2565 2268 
Q 2250 2553 1709 2553 
Q 1456 2553 1204 2497 
Q 953 2441 691 2322 
L 691 4666 
z
" transform="scale(0.015625)"/>
       </defs>
       <use xlink:href="#DejaVuSans-32"/>
       <use xlink:href="#DejaVuSans-35" transform="translate(63.623047 0)"/>
      </g>
     </g>
    </g>
    <g id="xtick_3">
     <g id="line2d_5">
      <path d="M 220.551924 384.117812 
L 220.551924 23.837812 
" clip-path="url(#p3ca98fcae9)" style="fill: none; stroke: #b0b0b0; stroke-opacity: 0.2; stroke-width: 0.6; stroke-linecap: square"/>
     </g>
     <g id="line2d_6">
      <g>
       <use xlink:href="#mf5f662c6c4" x="220.551924" y="384.117812" style="stroke: #000000; stroke-width: 0.8"/>
      </g>
     </g>
     <g id="text_3">
      <!-- 50 -->
      <g transform="translate(213.553174 399.476094) scale(0.11 -0.11)">
       <use xlink:href="#DejaVuSans-35"/>
       <use xlink:href="#DejaVuSans-30" transform="translate(63.623047 0)"/>
      </g>
     </g>
    </g>
    <g id="xtick_4">
     <g id="line2d_7">
      <path d="M 307.174293 384.117812 
L 307.174293 23.837812 
" clip-path="url(#p3ca98fcae9)" style="fill: none; stroke: #b0b0b0; stroke-opacity: 0.2; stroke-width: 0.6; stroke-linecap: square"/>
     </g>
     <g id="line2d_8">
      <g>
       <use xlink:href="#mf5f662c6c4" x="307.174293" y="384.117812" style="stroke: #000000; stroke-width: 0.8"/>
      </g>
     </g>
     <g id="text_4">
      <!-- 75 -->
      <g transform="translate(300.175543 399.476094) scale(0.11 -0.11)">
       <defs>
        <path id="DejaVuSans-37" d="M 525 4666 
L 3525 4666 
L 3525 4397 
L 1831 0 
L 1172 0 
L 2766 4134 
L 525 4134 
L 525 4666 
z
" transform="scale(0.015625)"/>
       </defs>
       <use xlink:href="#DejaVuSans-37"/>
       <use xlink:href="#DejaVuSans-35" transform="translate(63.623047 0)"/>
      </g>
     </g>
    </g>
    <g id="xtick_5">
     <g id="line2d_9">
      <path d="M 393.796661 384.117812 
L 393.796661 23.837812 
" clip-path="url(#p3ca98fcae9)" style="fill: none; stroke: #b0b0b0; stroke-opacity: 0.2; stroke-width: 0.6; stroke-linecap: square"/>
     </g>
     <g id="line2d_10">
      <g>
       <use xlink:href="#mf5f662c6c4" x="393.796661" y="384.117812" style="stroke: #000000; stroke-width: 0.8"/>
      </g>
     </g>
     <g id="text_5">
      <!-- 100 -->
      <g transform="translate(383.298536 399.476094) scale(0.11 -0.11)">
       <defs>
        <path id="DejaVuSans-31" d="M 794 531 
L 1825 531 
L 1825 4091 
L 703 3866 
L 703 4441 
L 1819 4666 
L 2450 4666 
L 2450 531 
L 3481 531 
L 3481 0 
L 794 0 
L 794 531 
z
" transform="scale(0.015625)"/>
       </defs>
       <use xlink:href="#DejaVuSans-31"/>
       <use xlink:href="#DejaVuSans-30" transform="translate(63.623047 0)"/>
       <use xlink:href="#DejaVuSans-30" transform="translate(127.246094 0)"/>
      </g>
     </g>
    </g>
    <g id="xtick_6">
     <g id="line2d_11">
      <path d="M 480.41903 384.117812 
L 480.41903 23.837812 
" clip-path="url(#p3ca98fcae9)" style="fill: none; stroke: #b0b0b0; stroke-opacity: 0.2; stroke-width: 0.6; stroke-linecap: square"/>
     </g>
     <g id="line2d_12">
      <g>
       <use xlink:href="#mf5f662c6c4" x="480.41903" y="384.117812" style="stroke: #000000; stroke-width: 0.8"/>
      </g>
     </g>
     <g id="text_6">
      <!-- 125 -->
      <g transform="translate(469.920905 399.476094) scale(0.11 -0.11)">
       <use xlink:href="#DejaVuSans-31"/>
       <use xlink:href="#DejaVuSans-32" transform="translate(63.623047 0)"/>
       <use xlink:href="#DejaVuSans-35" transform="translate(127.246094 0)"/>
      </g>
     </g>
    </g>
    <g id="xtick_7">
     <g id="line2d_13">
      <path d="M 567.041398 384.117812 
L 567.041398 23.837812 
" clip-path="url(#p3ca98fcae9)" style="fill: none; stroke: #b0b0b0; stroke-opacity: 0.2; stroke-width: 0.6; stroke-linecap: square"/>
     </g>
     <g id="line2d_14">
      <g>
       <use xlink:href="#mf5f662c6c4" x="567.041398" y="384.117812" style="stroke: #000000; stroke-width: 0.8"/>
      </g>
     </g>
     <g id="text_7">
      <!-- 150 -->
      <g transform="translate(556.543273 399.476094) scale(0.11 -0.11)">
       <use xlink:href="#DejaVuSans-31"/>
       <use xlink:href="#DejaVuSans-35" transform="translate(63.623047 0)"/>
       <use xlink:href="#DejaVuSans-30" transform="translate(127.246094 0)"/>
      </g>
     </g>
    </g>
    <g id="xtick_8">
     <g id="line2d_15">
      <path d="M 653.663766 384.117812 
L 653.663766 23.837812 
" clip-path="url(#p3ca98fcae9)" style="fill: none; stroke: #b0b0b0; stroke-opacity: 0.2; stroke-width: 0.6; stroke-linecap: square"/>
     </g>
     <g id="line2d_16">
      <g>
       <use xlink:href="#mf5f662c6c4" x="653.663766" y="384.117812" style="stroke: #000000; stroke-width: 0.8"/>
      </g>
     </g>
     <g id="text_8">
      <!-- 175 -->
      <g transform="translate(643.165641 399.476094) scale(0.11 -0.11)">
       <use xlink:href="#DejaVuSans-31"/>
       <use xlink:href="#DejaVuSans-37" transform="translate(63.623047 0)"/>
       <use xlink:href="#DejaVuSans-35" transform="translate(127.246094 0)"/>
      </g>
     </g>
    </g>
    <g id="text_9">
     <!-- Time (s) -->
     <g transform="translate(352.0775 414.881875) scale(0.12 -0.12)">
      <defs>
       <path id="DejaVuSans-54" d="M -19 4666 
L 3928 4666 
L 3928 4134 
L 2272 4134 
L 2272 0 
L 1638 0 
L 1638 4134 
L -19 4134 
L -19 4666 
z
" transform="scale(0.015625)"/>
       <path id="DejaVuSans-69" d="M 603 3500 
L 1178 3500 
L 1178 0 
L 603 0 
L 603 3500 
z
M 603 4863 
L 1178 4863 
L 1178 4134 
L 603 4134 
L 603 4863 
z
" transform="scale(0.015625)"/>
       <path id="DejaVuSans-6d" d="M 3328 2828 
Q 3544 3216 3844 3400 
Q 4144 3584 4550 3584 
Q 5097 3584 5394 3201 
Q 5691 2819 5691 2113 
L 5691 0 
L 5113 0 
L 5113 2094 
Q 5113 2597 4934 2840 
Q 4756 3084 4391 3084 
Q 3944 3084 3684 2787 
Q 3425 2491 3425 1978 
L 3425 0 
L 2847 0 
L 2847 2094 
Q 2847 2600 2669 2842 
Q 2491 3084 2119 3084 
Q 1678 3084 1418 2786 
Q 1159 2488 1159 1978 
L 1159 0 
L 581 0 
L 581 3500 
L 1159 3500 
L 1159 2956 
Q 1356 3278 1631 3431 
Q 1906 3584 2284 3584 
Q 2666 3584 2933 3390 
Q 3200 3197 3328 2828 
z
" transform="scale(0.015625)"/>
       <path id="DejaVuSans-65" d="M 3597 1894 
L 3597 1613 
L 953 1613 
Q 991 1019 1311 708 
Q 1631 397 2203 397 
Q 2534 397 2845 478 
Q 3156 559 3463 722 
L 3463 178 
Q 3153 47 2828 -22 
Q 2503 -91 2169 -91 
Q 1331 -91 842 396 
Q 353 884 353 1716 
Q 353 2575 817 3079 
Q 1281 3584 2069 3584 
Q 2775 3584 3186 3129 
Q 3597 2675 3597 1894 
z
M 3022 2063 
Q 3016 2534 2758 2815 
Q 2500 3097 2075 3097 
Q 1594 3097 1305 2825 
Q 1016 2553 972 2059 
L 3022 2063 
z
" transform="scale(0.015625)"/>
       <path id="DejaVuSans-20" transform="scale(0.015625)"/>
       <path id="DejaVuSans-28" d="M 1984 4856 
Q 1566 4138 1362 3434 
Q 1159 2731 1159 2009 
Q 1159 1288 1364 580 
Q 1569 -128 1984 -844 
L 1484 -844 
Q 1016 -109 783 600 
Q 550 1309 550 2009 
Q 550 2706 781 3412 
Q 1013 4119 1484 4856 
L 1984 4856 
z
" transform="scale(0.015625)"/>
       <path id="DejaVuSans-73" d="M 2834 3397 
L 2834 2853 
Q 2591 2978 2328 3040 
Q 2066 3103 1784 3103 
Q 1356 3103 1142 2972 
Q 928 2841 928 2578 
Q 928 2378 1081 2264 
Q 1234 2150 1697 2047 
L 1894 2003 
Q 2506 1872 2764 1633 
Q 3022 1394 3022 966 
Q 3022 478 2636 193 
Q 2250 -91 1575 -91 
Q 1294 -91 989 -36 
Q 684 19 347 128 
L 347 722 
Q 666 556 975 473 
Q 1284 391 1588 391 
Q 1994 391 2212 530 
Q 2431 669 2431 922 
Q 2431 1156 2273 1281 
Q 2116 1406 1581 1522 
L 1381 1569 
Q 847 1681 609 1914 
Q 372 2147 372 2553 
Q 372 3047 722 3315 
Q 1072 3584 1716 3584 
Q 2034 3584 2315 3537 
Q 2597 3491 2834 3397 
z
" transform="scale(0.015625)"/>
       <path id="DejaVuSans-29" d="M 513 4856 
L 1013 4856 
Q 1481 4119 1714 3412 
Q 1947 2706 1947 2009 
Q 1947 1309 1714 600 
Q 1481 -109 1013 -844 
L 513 -844 
Q 928 -128 1133 580 
Q 1338 1288 1338 2009 
Q 1338 2731 1133 3434 
Q 928 4138 513 4856 
z
" transform="scale(0.015625)"/>
      </defs>
      <use xlink:href="#DejaVuSans-54"/>
      <use xlink:href="#DejaVuSans-69" transform="translate(57.958984 0)"/>
      <use xlink:href="#DejaVuSans-6d" transform="translate(85.742188 0)"/>
      <use xlink:href="#DejaVuSans-65" transform="translate(183.154297 0)"/>
      <use xlink:href="#DejaVuSans-20" transform="translate(244.677734 0)"/>
      <use xlink:href="#DejaVuSans-28" transform="translate(276.464844 0)"/>
      <use xlink:href="#DejaVuSans-73" transform="translate(315.478516 0)"/>
      <use xlink:href="#DejaVuSans-29" transform="translate(367.578125 0)"/>
     </g>
    </g>
   </g>
   <g id="matplotlib.axis_2">
    <g id="ytick_1">
     <g id="line2d_17">
      <path d="M 47.307188 367.741449 
L 705.637188 367.741449 
" clip-path="url(#p3ca98fcae9)" style="fill: none; stroke: #b0b0b0; stroke-opacity: 0.2; stroke-width: 0.6; stroke-linecap: square"/>
     </g>
     <g id="line2d_18">
      <defs>
       <path id="mc53a4238d5" d="M 0 0 
L -3.5 0 
" style="stroke: #000000; stroke-width: 0.8"/>
      </defs>
      <g>
       <use xlink:href="#mc53a4238d5" x="47.307188" y="367.741449" style="stroke: #000000; stroke-width: 0.8"/>
      </g>
     </g>
     <g id="text_10">
      <!-- 0.0 -->
      <g transform="translate(22.81375 371.920589) scale(0.11 -0.11)">
       <defs>
        <path id="DejaVuSans-2e" d="M 684 794 
L 1344 794 
L 1344 0 
L 684 0 
L 684 794 
z
" transform="scale(0.015625)"/>
       </defs>
       <use xlink:href="#DejaVuSans-30"/>
       <use xlink:href="#DejaVuSans-2e" transform="translate(63.623047 0)"/>
       <use xlink:href="#DejaVuSans-30" transform="translate(95.410156 0)"/>
      </g>
     </g>
    </g>
    <g id="ytick_2">
     <g id="line2d_19">
      <path d="M 47.307188 317.507205 
L 705.637188 317.507205 
" clip-path="url(#p3ca98fcae9)" style="fill: none; stroke: #b0b0b0; stroke-opacity: 0.2; stroke-width: 0.6; stroke-linecap: square"/>
     </g>
     <g id="line2d_20">
      <g>
       <use xlink:href="#mc53a4238d5" x="47.307188" y="317.507205" style="stroke: #000000; stroke-width: 0.8"/>
      </g>
     </g>
     <g id="text_11">
      <!-- 0.5 -->
      <g transform="translate(22.81375 321.686345) scale(0.11 -0.11)">
       <use xlink:href="#DejaVuSans-30"/>
       <use xlink:href="#DejaVuSans-2e" transform="translate(63.623047 0)"/>
       <use xlink:href="#DejaVuSans-35" transform="translate(95.410156 0)"/>
      </g>
     </g>
    </g>
    <g id="ytick_3">
     <g id="line2d_21">
      <path d="M 47.307188 267.27296 
L 705.637188 267.27296 
" clip-path="url(#p3ca98fcae9)" style="fill: none; stroke: #b0b0b0; stroke-opacity: 0.2; stroke-width: 0.6; stroke-linecap: square"/>
     </g>
     <g id="line2d_22">
      <g>
       <use xlink:href="#mc53a4238d5" x="47.307188" y="267.27296" style="stroke: #000000; stroke-width: 0.8"/>
      </g>
     </g>
     <g id="text_12">
      <!-- 1.0 -->
      <g transform="translate(22.81375 271.452101) scale(0.11 -0.11)">
       <use xlink:href="#DejaVuSans-31"/>
       <use xlink:href="#DejaVuSans-2e" transform="translate(63.623047 0)"/>
       <use xlink:href="#DejaVuSans-30" transform="translate(95.410156 0)"/>
      </g>
     </g>
    </g>
    <g id="ytick_4">
     <g id="line2d_23">
      <path d="M 47.307188 217.038716 
L 705.637188 217.038716 
" clip-path="url(#p3ca98fcae9)" style="fill: none; stroke: #b0b0b0; stroke-opacity: 0.2; stroke-width: 0.6; stroke-linecap: square"/>
     </g>
     <g id="line2d_24">
      <g>
       <use xlink:href="#mc53a4238d5" x="47.307188" y="217.038716" style="stroke: #000000; stroke-width: 0.8"/>
      </g>
     </g>
     <g id="text_13">
      <!-- 1.5 -->
      <g transform="translate(22.81375 221.217857) scale(0.11 -0.11)">
       <use xlink:href="#DejaVuSans-31"/>
       <use xlink:href="#DejaVuSans-2e" transform="translate(63.623047 0)"/>
       <use xlink:href="#DejaVuSans-35" transform="translate(95.410156 0)"/>
      </g>
     </g>
    </g>
    <g id="ytick_5">
     <g id="line2d_25">
      <path d="M 47.307188 166.804472 
L 705.637188 166.804472 
" clip-path="url(#p3ca98fcae9)" style="fill: none; stroke: #b0b0b0; stroke-opacity: 0.2; stroke-width: 0.6; stroke-linecap: square"/>
     </g>
     <g id="line2d_26">
      <g>
       <use xlink:href="#mc53a4238d5" x="47.307188" y="166.804472" style="stroke: #000000; stroke-width: 0.8"/>
      </g>
     </g>
     <g id="text_14">
      <!-- 2.0 -->
      <g transform="translate(22.81375 170.983612) scale(0.11 -0.11)">
       <use xlink:href="#DejaVuSans-32"/>
       <use xlink:href="#DejaVuSans-2e" transform="translate(63.623047 0)"/>
       <use xlink:href="#DejaVuSans-30" transform="translate(95.410156 0)"/>
      </g>
     </g>
    </g>
    <g id="ytick_6">
     <g id="line2d_27">
      <path d="M 47.307188 116.570227 
L 705.637188 116.570227 
" clip-path="url(#p3ca98fcae9)" style="fill: none; stroke: #b0b0b0; stroke-opacity: 0.2; stroke-width: 0.6; stroke-linecap: square"/>
     </g>
     <g id="line2d_28">
      <g>
       <use xlink:href="#mc53a4238d5" x="47.307188" y="116.570227" style="stroke: #000000; stroke-width: 0.8"/>
      </g>
     </g>
     <g id="text_15">
      <!-- 2.5 -->
      <g transform="translate(22.81375 120.749368) scale(0.11 -0.11)">
       <use xlink:href="#DejaVuSans-32"/>
       <use xlink:href="#DejaVuSans-2e" transform="translate(63.623047 0)"/>
       <use xlink:href="#DejaVuSans-35" transform="translate(95.410156 0)"/>
      </g>
     </g>
    </g>
    <g id="ytick_7">
     <g id="line2d_29">
      <path d="M 47.307188 66.335983 
L 705.637188 66.335983 
" clip-path="url(#p3ca98fcae9)" style="fill: none; stroke: #b0b0b0; stroke-opacity: 0.2; stroke-width: 0.6; stroke-linecap: square"/>
     </g>
     <g id="line2d_30">
      <g>
       <use xlink:href="#mc53a4238d5" x="47.307188" y="66.335983" style="stroke: #000000; stroke-width: 0.8"/>
      </g>
     </g>
     <g id="text_16">
      <!-- 3.0 -->
      <g transform="translate(22.81375 70.515124) scale(0.11 -0.11)">
       <defs>
        <path id="DejaVuSans-33" d="M 2597 2516 
Q 3050 2419 3304 2112 
Q 3559 1806 3559 1356 
Q 3559 666 3084 287 
Q 2609 -91 1734 -91 
Q 1441 -91 1130 -33 
Q 819 25 488 141 
L 488 750 
Q 750 597 1062 519 
Q 1375 441 1716 441 
Q 2309 441 2620 675 
Q 2931 909 2931 1356 
Q 2931 1769 2642 2001 
Q 2353 2234 1838 2234 
L 1294 2234 
L 1294 2753 
L 1863 2753 
Q 2328 2753 2575 2939 
Q 2822 3125 2822 3475 
Q 2822 3834 2567 4026 
Q 2313 4219 1838 4219 
Q 1578 4219 1281 4162 
Q 984 4106 628 3988 
L 628 4550 
Q 988 4650 1302 4700 
Q 1616 4750 1894 4750 
Q 2613 4750 3031 4423 
Q 3450 4097 3450 3541 
Q 3450 3153 3228 2886 
Q 3006 2619 2597 2516 
z
" transform="scale(0.015625)"/>
       </defs>
       <use xlink:href="#DejaVuSans-33"/>
       <use xlink:href="#DejaVuSans-2e" transform="translate(63.623047 0)"/>
       <use xlink:href="#DejaVuSans-30" transform="translate(95.410156 0)"/>
      </g>
     </g>
    </g>
    <g id="text_17">
     <!-- AU mean intensity -->
     <g transform="translate(16.318125 259.314687) rotate(-90) scale(0.12 -0.12)">
      <defs>
       <path id="DejaVuSans-41" d="M 2188 4044 
L 1331 1722 
L 3047 1722 
L 2188 4044 
z
M 1831 4666 
L 2547 4666 
L 4325 0 
L 3669 0 
L 3244 1197 
L 1141 1197 
L 716 0 
L 50 0 
L 1831 4666 
z
" transform="scale(0.015625)"/>
       <path id="DejaVuSans-55" d="M 556 4666 
L 1191 4666 
L 1191 1831 
Q 1191 1081 1462 751 
Q 1734 422 2344 422 
Q 2950 422 3222 751 
Q 3494 1081 3494 1831 
L 3494 4666 
L 4128 4666 
L 4128 1753 
Q 4128 841 3676 375 
Q 3225 -91 2344 -91 
Q 1459 -91 1007 375 
Q 556 841 556 1753 
L 556 4666 
z
" transform="scale(0.015625)"/>
       <path id="DejaVuSans-61" d="M 2194 1759 
Q 1497 1759 1228 1600 
Q 959 1441 959 1056 
Q 959 750 1161 570 
Q 1363 391 1709 391 
Q 2188 391 2477 730 
Q 2766 1069 2766 1631 
L 2766 1759 
L 2194 1759 
z
M 3341 1997 
L 3341 0 
L 2766 0 
L 2766 531 
Q 2569 213 2275 61 
Q 1981 -91 1556 -91 
Q 1019 -91 701 211 
Q 384 513 384 1019 
Q 384 1609 779 1909 
Q 1175 2209 1959 2209 
L 2766 2209 
L 2766 2266 
Q 2766 2663 2505 2880 
Q 2244 3097 1772 3097 
Q 1472 3097 1187 3025 
Q 903 2953 641 2809 
L 641 3341 
Q 956 3463 1253 3523 
Q 1550 3584 1831 3584 
Q 2591 3584 2966 3190 
Q 3341 2797 3341 1997 
z
" transform="scale(0.015625)"/>
       <path id="DejaVuSans-6e" d="M 3513 2113 
L 3513 0 
L 2938 0 
L 2938 2094 
Q 2938 2591 2744 2837 
Q 2550 3084 2163 3084 
Q 1697 3084 1428 2787 
Q 1159 2491 1159 1978 
L 1159 0 
L 581 0 
L 581 3500 
L 1159 3500 
L 1159 2956 
Q 1366 3272 1645 3428 
Q 1925 3584 2291 3584 
Q 2894 3584 3203 3211 
Q 3513 2838 3513 2113 
z
" transform="scale(0.015625)"/>
       <path id="DejaVuSans-74" d="M 1172 4494 
L 1172 3500 
L 2356 3500 
L 2356 3053 
L 1172 3053 
L 1172 1153 
Q 1172 725 1289 603 
Q 1406 481 1766 481 
L 2356 481 
L 2356 0 
L 1766 0 
Q 1100 0 847 248 
Q 594 497 594 1153 
L 594 3053 
L 172 3053 
L 172 3500 
L 594 3500 
L 594 4494 
L 1172 4494 
z
" transform="scale(0.015625)"/>
       <path id="DejaVuSans-79" d="M 2059 -325 
Q 1816 -950 1584 -1140 
Q 1353 -1331 966 -1331 
L 506 -1331 
L 506 -850 
L 844 -850 
Q 1081 -850 1212 -737 
Q 1344 -625 1503 -206 
L 1606 56 
L 191 3500 
L 800 3500 
L 1894 763 
L 2988 3500 
L 3597 3500 
L 2059 -325 
z
" transform="scale(0.015625)"/>
      </defs>
      <use xlink:href="#DejaVuSans-41"/>
      <use xlink:href="#DejaVuSans-55" transform="translate(68.408203 0)"/>
      <use xlink:href="#DejaVuSans-20" transform="translate(141.601562 0)"/>
      <use xlink:href="#DejaVuSans-6d" transform="translate(173.388672 0)"/>
      <use xlink:href="#DejaVuSans-65" transform="translate(270.800781 0)"/>
      <use xlink:href="#DejaVuSans-61" transform="translate(332.324219 0)"/>
      <use xlink:href="#DejaVuSans-6e" transform="translate(393.603516 0)"/>
      <use xlink:href="#DejaVuSans-20" transform="translate(456.982422 0)"/>
      <use xlink:href="#DejaVuSans-69" transform="translate(488.769531 0)"/>
      <use xlink:href="#DejaVuSans-6e" transform="translate(516.552734 0)"/>
      <use xlink:href="#DejaVuSans-74" transform="translate(579.931641 0)"/>
      <use xlink:href="#DejaVuSans-65" transform="translate(619.140625 0)"/>
      <use xlink:href="#DejaVuSans-6e" transform="translate(680.664062 0)"/>
      <use xlink:href="#DejaVuSans-73" transform="translate(744.042969 0)"/>
      <use xlink:href="#DejaVuSans-69" transform="translate(796.142578 0)"/>
      <use xlink:href="#DejaVuSans-74" transform="translate(823.925781 0)"/>
      <use xlink:href="#DejaVuSans-79" transform="translate(863.134766 0)"/>
     </g>
    </g>
   </g>
   <g id="FillBetweenPolyCollection_1">
    <defs>
     <path id="m23af1c960f" d="M 47.307188 -157.596468 
L 47.307188 -17.496417 
L 50.772082 -15.271433 
L 54.236977 -13.715946 
L 57.701872 -6.152332 
L 61.166766 -10.498192 
L 64.631661 -12.414922 
L 68.096556 -10.936439 
L 71.561451 -11.99036 
L 75.026345 -12.842084 
L 78.49124 -18.31916 
L 81.956135 -14.896155 
L 85.42103 -15.830798 
L 88.885924 -15.04185 
L 92.350819 -17.461246 
L 95.815714 -17.708977 
L 99.280609 -17.281427 
L 102.745503 -16.833341 
L 106.210398 -17.947622 
L 109.675293 -18.5828 
L 113.140187 -14.799173 
L 116.605082 -17.294937 
L 120.069977 -18.045229 
L 123.534872 -17.598616 
L 126.999766 -18.12864 
L 130.464661 -18.349988 
L 133.929556 -15.212915 
L 137.394451 -16.063537 
L 140.859345 -15.965151 
L 144.32424 -21.023816 
L 147.789135 -16.486117 
L 151.25403 -14.895131 
L 154.718924 -13.790089 
L 158.183819 -14.659946 
L 161.648714 -16.200042 
L 165.113609 -16.417773 
L 168.578503 -17.892939 
L 172.043398 -17.817913 
L 175.508293 -18.2444 
L 178.973187 -15.469016 
L 182.438082 -17.166419 
L 185.902977 -15.45879 
L 189.367872 -16.12026 
L 192.832766 -14.709736 
L 196.297661 -13.220692 
L 199.762556 -12.656275 
L 203.227451 -7.455764 
L 206.692345 -5.429844 
L 210.15724 -10.805516 
L 213.622135 -12.793379 
L 217.08703 -12.400191 
L 220.551924 -11.558813 
L 224.016819 -12.408893 
L 227.481714 -13.439274 
L 230.946609 -17.986739 
L 234.411503 -14.180467 
L 237.876398 -13.44108 
L 241.341293 -15.355045 
L 244.806187 -18.33299 
L 248.271082 -16.417759 
L 251.735977 -16.296797 
L 255.200872 -14.615553 
L 258.665766 -18.593498 
L 262.130661 -16.221878 
L 265.595556 -12.360766 
L 269.060451 -15.312555 
L 272.525345 -10.340822 
L 275.99024 -11.893639 
L 279.455135 -12.815248 
L 282.92003 -12.677418 
L 286.384924 -14.098891 
L 289.849819 -12.20443 
L 293.314714 -20.638863 
L 296.779609 -19.62222 
L 300.244503 -16.088907 
L 303.709398 -20.278167 
L 307.174293 -20.260292 
L 310.639187 -16.209525 
L 314.104082 -12.841258 
L 317.568977 -13.09013 
L 321.033872 -15.077931 
L 324.498766 -18.098689 
L 327.963661 -15.198201 
L 331.428556 -14.47231 
L 334.893451 -13.77567 
L 338.358345 -13.932206 
L 341.82324 -12.755709 
L 345.288135 -14.732458 
L 348.75303 -14.515416 
L 352.217924 -15.012517 
L 355.682819 -13.710619 
L 359.147714 -15.307378 
L 362.612609 -15.289187 
L 366.077503 -14.63213 
L 369.542398 -16.081721 
L 373.007293 -14.073999 
L 376.472188 -12.861677 
L 379.937082 -13.973984 
L 383.401977 -16.910614 
L 386.866872 -16.78136 
L 390.331766 -13.027905 
L 393.796661 -6.64077 
L 397.261556 -6.279113 
L 400.726451 -9.568862 
L 404.191345 -9.546519 
L 407.65624 -8.950526 
L 411.121135 -9.408278 
L 414.58603 -10.152769 
L 418.050924 -12.985231 
L 421.515819 -19.386585 
L 424.980714 -15.789641 
L 428.445609 -19.269419 
L 431.910503 -14.052078 
L 435.375398 -13.993249 
L 438.840293 -17.411814 
L 442.305187 -13.326226 
L 445.770082 -19.328396 
L 449.234977 -17.256685 
L 452.699872 -13.459526 
L 456.164766 -13.301212 
L 459.629661 -16.280273 
L 463.094556 -13.189175 
L 466.559451 -10.698004 
L 470.024345 -17.257211 
L 473.48924 -16.654321 
L 476.954135 -16.179735 
L 480.41903 -13.343743 
L 483.883924 -14.013658 
L 487.348819 -14.14058 
L 490.813714 -16.182364 
L 494.278609 -18.259407 
L 497.743503 -18.299303 
L 501.208398 -19.044559 
L 504.673293 -17.443409 
L 508.138188 -17.502586 
L 511.603082 -16.613028 
L 515.067977 -19.300809 
L 518.532872 -21.49257 
L 521.997766 -22.164394 
L 525.462661 -15.574751 
L 528.927556 -13.590974 
L 532.392451 -15.454028 
L 535.857345 -13.260878 
L 539.32224 -14.002196 
L 542.787135 -10.810127 
L 546.25203 -10.589779 
L 549.716924 -11.882989 
L 553.181819 -10.768864 
L 556.646714 -12.666325 
L 560.111609 -14.888151 
L 563.576503 -15.567851 
L 567.041398 -17.393247 
L 570.506293 -13.835813 
L 573.971188 -9.425136 
L 577.436082 -9.926909 
L 580.900977 -14.332983 
L 584.365872 -12.614243 
L 587.830766 -13.979461 
L 591.295661 -3.592794 
L 594.760556 -11.183634 
L 598.225451 -10.661095 
L 601.690345 -5.869374 
L 605.15524 -5.659175 
L 608.620135 -15.151375 
L 612.08503 -9.338833 
L 615.549924 -2.828239 
L 619.014819 1.988351 
L 622.479714 -5.734502 
L 625.944609 -12.983572 
L 629.409503 -11.054225 
L 632.874398 -2.999858 
L 636.339293 -8.860139 
L 639.804188 -4.290875 
L 643.269082 -10.615087 
L 646.733977 -8.209459 
L 650.198872 -4.989665 
L 653.663766 -5.815498 
L 657.128661 -9.437805 
L 660.593556 -9.753408 
L 664.058451 -15.476444 
L 667.523345 -15.187883 
L 670.98824 -12.759897 
L 674.453135 -13.068687 
L 677.91803 -13.013405 
L 681.382924 -12.973149 
L 684.847819 -11.182662 
L 688.312714 -15.468402 
L 691.777609 -12.40615 
L 695.242503 -9.955985 
L 698.707398 -13.175858 
L 702.172293 -14.912405 
L 705.637188 -56.054231 
L 705.637188 -71.68346 
L 705.637188 -71.68346 
L 702.172293 -164.374543 
L 698.707398 -164.023512 
L 695.242503 -167.611454 
L 691.777609 -162.733922 
L 688.312714 -167.353736 
L 684.847819 -171.130917 
L 681.382924 -167.415226 
L 677.91803 -169.159571 
L 674.453135 -165.848171 
L 670.98824 -164.263259 
L 667.523345 -159.529219 
L 664.058451 -163.286275 
L 660.593556 -173.691461 
L 657.128661 -177.572243 
L 653.663766 -186.217694 
L 650.198872 -195.419152 
L 646.733977 -188.571736 
L 643.269082 -185.819553 
L 639.804188 -192.621102 
L 636.339293 -188.162728 
L 632.874398 -192.417217 
L 629.409503 -175.468064 
L 625.944609 -173.704871 
L 622.479714 -191.478769 
L 619.014819 -204.957019 
L 615.549924 -191.002323 
L 612.08503 -184.152885 
L 608.620135 -174.28126 
L 605.15524 -189.337839 
L 601.690345 -188.256111 
L 598.225451 -175.271236 
L 594.760556 -171.93569 
L 591.295661 -182.874791 
L 587.830766 -166.449091 
L 584.365872 -162.174746 
L 580.900977 -160.132277 
L 577.436082 -169.972115 
L 573.971188 -170.738471 
L 570.506293 -159.731098 
L 567.041398 -152.05264 
L 563.576503 -156.306686 
L 560.111609 -156.175765 
L 556.646714 -159.400488 
L 553.181819 -162.906422 
L 549.716924 -162.359486 
L 546.25203 -163.274291 
L 542.787135 -164.123502 
L 539.32224 -160.629161 
L 535.857345 -156.054311 
L 532.392451 -155.279315 
L 528.927556 -163.594535 
L 525.462661 -158.982876 
L 521.997766 -147.14733 
L 518.532872 -147.663255 
L 515.067977 -153.186932 
L 511.603082 -155.51634 
L 508.138188 -149.700166 
L 504.673293 -152.884819 
L 501.208398 -149.669551 
L 497.743503 -151.882273 
L 494.278609 -148.776186 
L 490.813714 -159.290823 
L 487.348819 -164.341492 
L 483.883924 -162.62788 
L 480.41903 -168.526543 
L 476.954135 -161.480262 
L 473.48924 -160.085143 
L 470.024345 -159.29034 
L 466.559451 -164.788202 
L 463.094556 -166.658442 
L 459.629661 -161.204044 
L 456.164766 -164.808462 
L 452.699872 -165.933692 
L 449.234977 -159.853976 
L 445.770082 -163.178479 
L 442.305187 -161.902271 
L 438.840293 -163.782042 
L 435.375398 -167.157217 
L 431.910503 -170.639987 
L 428.445609 -165.688317 
L 424.980714 -172.037733 
L 421.515819 -163.406217 
L 418.050924 -174.312085 
L 414.58603 -179.067586 
L 411.121135 -180.620741 
L 407.65624 -186.861047 
L 404.191345 -183.330263 
L 400.726451 -182.848659 
L 397.261556 -181.718018 
L 393.796661 -180.30851 
L 390.331766 -168.481214 
L 386.866872 -157.465139 
L 383.401977 -157.470438 
L 379.937082 -159.606506 
L 376.472188 -161.610317 
L 373.007293 -156.126212 
L 369.542398 -156.491765 
L 366.077503 -158.367425 
L 362.612609 -156.837387 
L 359.147714 -159.053363 
L 355.682819 -160.100535 
L 352.217924 -155.389441 
L 348.75303 -159.195269 
L 345.288135 -158.951742 
L 341.82324 -163.270082 
L 338.358345 -158.618481 
L 334.893451 -157.949031 
L 331.428556 -159.368264 
L 327.963661 -160.327846 
L 324.498766 -158.456154 
L 321.033872 -157.273832 
L 317.568977 -158.924186 
L 314.104082 -160.708331 
L 310.639187 -157.102779 
L 307.174293 -150.870259 
L 303.709398 -152.373799 
L 300.244503 -155.181087 
L 296.779609 -149.584649 
L 293.314714 -153.292679 
L 289.849819 -163.451868 
L 286.384924 -156.00359 
L 282.92003 -158.03972 
L 279.455135 -155.875477 
L 275.99024 -161.235553 
L 272.525345 -163.387185 
L 269.060451 -157.456894 
L 265.595556 -160.552234 
L 262.130661 -160.191985 
L 258.665766 -154.495322 
L 255.200872 -162.896171 
L 251.735977 -161.29405 
L 248.271082 -160.282115 
L 244.806187 -156.812835 
L 241.341293 -161.426662 
L 237.876398 -170.843913 
L 234.411503 -176.239028 
L 230.946609 -167.715207 
L 227.481714 -171.89927 
L 224.016819 -171.900352 
L 220.551924 -177.90542 
L 217.08703 -179.252781 
L 213.622135 -175.770689 
L 210.15724 -178.526287 
L 206.692345 -187.263966 
L 203.227451 -184.451844 
L 199.762556 -178.479462 
L 196.297661 -174.342519 
L 192.832766 -162.711242 
L 189.367872 -157.709948 
L 185.902977 -158.533297 
L 182.438082 -155.258097 
L 178.973187 -156.521803 
L 175.508293 -152.039098 
L 172.043398 -151.871853 
L 168.578503 -152.700625 
L 165.113609 -155.93927 
L 161.648714 -154.933973 
L 158.183819 -154.81592 
L 154.718924 -159.274479 
L 151.25403 -157.685535 
L 147.789135 -154.595066 
L 144.32424 -149.393537 
L 140.859345 -156.921866 
L 137.394451 -157.040538 
L 133.929556 -162.126761 
L 130.464661 -156.041541 
L 126.999766 -152.282176 
L 123.534872 -154.277961 
L 120.069977 -149.519557 
L 116.605082 -151.029592 
L 113.140187 -156.106189 
L 109.675293 -153.047467 
L 106.210398 -155.110018 
L 102.745503 -154.037741 
L 99.280609 -151.063721 
L 95.815714 -151.865737 
L 92.350819 -151.142002 
L 88.885924 -155.594265 
L 85.42103 -154.649306 
L 81.956135 -155.675951 
L 78.49124 -150.819343 
L 75.026345 -157.637656 
L 71.561451 -159.012007 
L 68.096556 -160.629819 
L 64.631661 -159.230962 
L 61.166766 -162.086526 
L 57.701872 -168.322261 
L 54.236977 -155.518472 
L 50.772082 -153.355201 
L 47.307188 -157.596468 
z
" style="stroke: #d3d3d3; stroke-opacity: 0.5"/>
    </defs>
    <g clip-path="url(#p3ca98fcae9)">
     <use xlink:href="#m23af1c960f" x="0" y="424.5775" style="fill: #d3d3d3; fill-opacity: 0.5; stroke: #d3d3d3; stroke-opacity: 0.5"/>
    </g>
   </g>
   <g id="FillBetweenPolyCollection_2">
    <defs>
     <path id="m76339ad4d8" d="M 47.307188 -122.571455 
L 47.307188 -52.52143 
L 50.772082 -49.792375 
L 54.236977 -49.166577 
L 57.701872 -46.694814 
L 61.166766 -48.395275 
L 64.631661 -49.118932 
L 68.096556 -48.359784 
L 71.561451 -48.745771 
L 75.026345 -49.040977 
L 78.49124 -51.444206 
L 81.956135 -50.091104 
L 85.42103 -50.535425 
L 88.885924 -50.179954 
L 92.350819 -50.881435 
L 95.815714 -51.248167 
L 99.280609 -50.727001 
L 102.745503 -51.134441 
L 106.210398 -52.238221 
L 109.675293 -52.198967 
L 113.140187 -50.125927 
L 116.605082 -50.728601 
L 120.069977 -50.913811 
L 123.534872 -51.768452 
L 126.999766 -51.667024 
L 130.464661 -52.772877 
L 133.929556 -51.941377 
L 137.394451 -51.307787 
L 140.859345 -51.204329 
L 144.32424 -53.116246 
L 147.789135 -51.013354 
L 151.25403 -50.592732 
L 154.718924 -50.161187 
L 158.183819 -49.698939 
L 161.648714 -50.883525 
L 165.113609 -51.298147 
L 168.578503 -51.594861 
L 172.043398 -51.331398 
L 175.508293 -51.693074 
L 178.973187 -50.732213 
L 182.438082 -51.689338 
L 185.902977 -51.227416 
L 189.367872 -51.517682 
L 192.832766 -51.710113 
L 196.297661 -53.501149 
L 199.762556 -54.112072 
L 203.227451 -51.704784 
L 206.692345 -50.888374 
L 210.15724 -52.735709 
L 213.622135 -53.537707 
L 217.08703 -54.113338 
L 220.551924 -53.145465 
L 224.016819 -52.281758 
L 227.481714 -53.054273 
L 230.946609 -55.418856 
L 234.411503 -54.695107 
L 237.876398 -52.791789 
L 241.341293 -51.87295 
L 244.806187 -52.952952 
L 248.271082 -52.383848 
L 251.735977 -52.546111 
L 255.200872 -51.685708 
L 258.665766 -52.568954 
L 262.130661 -52.214405 
L 265.595556 -49.408633 
L 269.060451 -50.84864 
L 272.525345 -48.602413 
L 275.99024 -49.229117 
L 279.455135 -48.580305 
L 282.92003 -49.017993 
L 286.384924 -49.575066 
L 289.849819 -50.01629 
L 293.314714 -53.802317 
L 296.779609 -52.112828 
L 300.244503 -50.861952 
L 303.709398 -53.302075 
L 307.174293 -52.912783 
L 310.639187 -51.432838 
L 314.104082 -49.808027 
L 317.568977 -49.548644 
L 321.033872 -50.626906 
L 324.498766 -53.188056 
L 327.963661 -51.480612 
L 331.428556 -50.696298 
L 334.893451 -49.81901 
L 338.358345 -50.103775 
L 341.82324 -50.384302 
L 345.288135 -50.787279 
L 348.75303 -50.685379 
L 352.217924 -50.106748 
L 355.682819 -50.308098 
L 359.147714 -51.243874 
L 362.612609 -50.676237 
L 366.077503 -50.565954 
L 369.542398 -51.184232 
L 373.007293 -49.587052 
L 376.472188 -50.048837 
L 379.937082 -50.382114 
L 383.401977 -52.05057 
L 386.866872 -51.952304 
L 390.331766 -51.891232 
L 393.796661 -50.057705 
L 397.261556 -50.138839 
L 400.726451 -52.888811 
L 404.191345 -52.992455 
L 407.65624 -53.428157 
L 411.121135 -52.211394 
L 414.58603 -52.381473 
L 418.050924 -53.316944 
L 421.515819 -55.391493 
L 424.980714 -54.851664 
L 428.445609 -55.874143 
L 431.910503 -53.199055 
L 435.375398 -52.284241 
L 438.840293 -54.004371 
L 442.305187 -50.470237 
L 445.770082 -55.290916 
L 449.234977 -52.906007 
L 452.699872 -51.578067 
L 456.164766 -51.178025 
L 459.629661 -52.511215 
L 463.094556 -51.556492 
L 466.559451 -49.220554 
L 470.024345 -52.765493 
L 473.48924 -52.512026 
L 476.954135 -52.504866 
L 480.41903 -52.139443 
L 483.883924 -51.167213 
L 487.348819 -51.690808 
L 490.813714 -51.959478 
L 494.278609 -50.888602 
L 497.743503 -51.695046 
L 501.208398 -51.700807 
L 504.673293 -51.303761 
L 508.138188 -50.551981 
L 511.603082 -51.338856 
L 515.067977 -52.77234 
L 518.532872 -53.035241 
L 521.997766 -53.410128 
L 525.462661 -51.426782 
L 528.927556 -51.091864 
L 532.392451 -50.410349 
L 535.857345 -48.959236 
L 539.32224 -50.658938 
L 542.787135 -49.138471 
L 546.25203 -48.760907 
L 549.716924 -49.502113 
L 553.181819 -48.803254 
L 556.646714 -49.349866 
L 560.111609 -50.210055 
L 563.576503 -50.75256 
L 567.041398 -51.058096 
L 570.506293 -50.309634 
L 573.971188 -49.753469 
L 577.436082 -49.938211 
L 580.900977 -50.782807 
L 584.365872 -50.004369 
L 587.830766 -52.096868 
L 591.295661 -48.413293 
L 594.760556 -51.371648 
L 598.225451 -51.81363 
L 601.690345 -51.466059 
L 605.15524 -51.578841 
L 608.620135 -54.933846 
L 612.08503 -53.042346 
L 615.549924 -49.87176 
L 619.014819 -49.747992 
L 622.479714 -52.170569 
L 625.944609 -53.163896 
L 629.409503 -52.157685 
L 632.874398 -50.354198 
L 636.339293 -53.685786 
L 639.804188 -51.373432 
L 643.269082 -54.416204 
L 646.733977 -53.300028 
L 650.198872 -52.597037 
L 653.663766 -50.916047 
L 657.128661 -51.471415 
L 660.593556 -50.737921 
L 664.058451 -52.428902 
L 667.523345 -51.273217 
L 670.98824 -50.635738 
L 674.453135 -51.263558 
L 677.91803 -52.049946 
L 681.382924 -51.583668 
L 684.847819 -51.169726 
L 688.312714 -53.439735 
L 691.777609 -49.988093 
L 695.242503 -49.369852 
L 698.707398 -50.887772 
L 702.172293 -52.277939 
L 705.637188 -59.961538 
L 705.637188 -67.776153 
L 705.637188 -67.776153 
L 702.172293 -127.009008 
L 698.707398 -126.311598 
L 695.242503 -128.197587 
L 691.777609 -125.151979 
L 688.312714 -129.382402 
L 684.847819 -131.143854 
L 681.382924 -128.804707 
L 677.91803 -130.12303 
L 674.453135 -127.6533 
L 670.98824 -126.387418 
L 667.523345 -123.443885 
L 664.058451 -126.333817 
L 660.593556 -132.706948 
L 657.128661 -135.538633 
L 653.663766 -141.117145 
L 650.198872 -147.81178 
L 646.733977 -143.481167 
L 643.269082 -142.018436 
L 639.804188 -145.538545 
L 636.339293 -143.337081 
L 632.874398 -145.062877 
L 629.409503 -134.364605 
L 625.944609 -133.524546 
L 622.479714 -145.042702 
L 619.014819 -153.220676 
L 615.549924 -143.958802 
L 612.08503 -140.449372 
L 608.620135 -134.498789 
L 605.15524 -143.418173 
L 601.690345 -142.659427 
L 598.225451 -134.118701 
L 594.760556 -131.747676 
L 591.295661 -138.054292 
L 587.830766 -128.331683 
L 584.365872 -124.784621 
L 580.900977 -123.682454 
L 577.436082 -129.960814 
L 573.971188 -130.410137 
L 570.506293 -123.257277 
L 567.041398 -118.387792 
L 563.576503 -121.121977 
L 560.111609 -120.853861 
L 556.646714 -122.716947 
L 553.181819 -124.872033 
L 549.716924 -124.740362 
L 546.25203 -125.103163 
L 542.787135 -125.795158 
L 539.32224 -123.97242 
L 535.857345 -120.355953 
L 532.392451 -120.322993 
L 528.927556 -126.093645 
L 525.462661 -123.130844 
L 521.997766 -115.901596 
L 518.532872 -116.120584 
L 515.067977 -119.715402 
L 511.603082 -120.790512 
L 508.138188 -116.650771 
L 504.673293 -119.024466 
L 501.208398 -117.013303 
L 497.743503 -118.48653 
L 494.278609 -116.146992 
L 490.813714 -123.513708 
L 487.348819 -126.791264 
L 483.883924 -125.474324 
L 480.41903 -129.730843 
L 476.954135 -125.15513 
L 473.48924 -124.227438 
L 470.024345 -123.782058 
L 466.559451 -126.265652 
L 463.094556 -128.291125 
L 459.629661 -124.973101 
L 456.164766 -126.931649 
L 452.699872 -127.81515 
L 449.234977 -124.204653 
L 445.770082 -127.215958 
L 442.305187 -124.75826 
L 438.840293 -127.189485 
L 435.375398 -128.866225 
L 431.910503 -131.493009 
L 428.445609 -129.083592 
L 424.980714 -132.97571 
L 421.515819 -127.401309 
L 418.050924 -133.980372 
L 414.58603 -136.838882 
L 411.121135 -137.817626 
L 407.65624 -142.383417 
L 404.191345 -139.884327 
L 400.726451 -139.52871 
L 397.261556 -137.858292 
L 393.796661 -136.891575 
L 390.331766 -129.617887 
L 386.866872 -122.294194 
L 383.401977 -122.330482 
L 379.937082 -123.198375 
L 376.472188 -124.423157 
L 373.007293 -120.613159 
L 369.542398 -121.389254 
L 366.077503 -122.433601 
L 362.612609 -121.450337 
L 359.147714 -123.116867 
L 355.682819 -123.503056 
L 352.217924 -120.29521 
L 348.75303 -123.025306 
L 345.288135 -122.896921 
L 341.82324 -125.641489 
L 338.358345 -122.446913 
L 334.893451 -121.90569 
L 331.428556 -123.144275 
L 327.963661 -124.045435 
L 324.498766 -123.366788 
L 321.033872 -121.724856 
L 317.568977 -122.465672 
L 314.104082 -123.741563 
L 310.639187 -121.879465 
L 307.174293 -118.217767 
L 303.709398 -119.349891 
L 300.244503 -120.408042 
L 296.779609 -117.094042 
L 293.314714 -120.129225 
L 289.849819 -125.640009 
L 286.384924 -120.527415 
L 282.92003 -121.699144 
L 279.455135 -120.11042 
L 275.99024 -123.900075 
L 272.525345 -125.125594 
L 269.060451 -121.92081 
L 265.595556 -123.504367 
L 262.130661 -124.199458 
L 258.665766 -120.519866 
L 255.200872 -125.826017 
L 251.735977 -125.044737 
L 248.271082 -124.316026 
L 244.806187 -122.192874 
L 241.341293 -124.908758 
L 237.876398 -131.493205 
L 234.411503 -135.724388 
L 230.946609 -130.28309 
L 227.481714 -132.284271 
L 224.016819 -132.027487 
L 220.551924 -136.318769 
L 217.08703 -137.539633 
L 213.622135 -135.026362 
L 210.15724 -136.596094 
L 206.692345 -141.805435 
L 203.227451 -140.202824 
L 199.762556 -137.023666 
L 196.297661 -134.062063 
L 192.832766 -125.710866 
L 189.367872 -122.312526 
L 185.902977 -122.76467 
L 182.438082 -120.735177 
L 178.973187 -121.258606 
L 175.508293 -118.590423 
L 172.043398 -118.358368 
L 168.578503 -118.998703 
L 165.113609 -121.058896 
L 161.648714 -120.25049 
L 158.183819 -119.776926 
L 154.718924 -122.903382 
L 151.25403 -121.987934 
L 147.789135 -120.067829 
L 144.32424 -117.301107 
L 140.859345 -121.682687 
L 137.394451 -121.796288 
L 133.929556 -125.3983 
L 130.464661 -121.618653 
L 126.999766 -118.743792 
L 123.534872 -120.108125 
L 120.069977 -116.650975 
L 116.605082 -117.595929 
L 113.140187 -120.779435 
L 109.675293 -119.4313 
L 106.210398 -120.819419 
L 102.745503 -119.736641 
L 99.280609 -117.618148 
L 95.815714 -118.326547 
L 92.350819 -117.721813 
L 88.885924 -120.456161 
L 85.42103 -119.944679 
L 81.956135 -120.481002 
L 78.49124 -117.694297 
L 75.026345 -121.438763 
L 71.561451 -122.256595 
L 68.096556 -123.206474 
L 64.631661 -122.526952 
L 61.166766 -124.189442 
L 57.701872 -127.779778 
L 54.236977 -120.06784 
L 50.772082 -118.834259 
L 47.307188 -122.571455 
z
" style="stroke: #808080; stroke-opacity: 0.7"/>
    </defs>
    <g clip-path="url(#p3ca98fcae9)">
     <use xlink:href="#m76339ad4d8" x="0" y="424.5775" style="fill: #808080; fill-opacity: 0.7; stroke: #808080; stroke-opacity: 0.7"/>
    </g>
   </g>
   <g id="line2d_31">
    <path d="M 47.307188 367.741449 
L 50.772082 367.302851 
L 54.236977 367.362846 
L 57.701872 367.741449 
L 68.096556 367.642357 
L 71.561451 367.543443 
L 75.026345 367.741449 
L 78.49124 357.424277 
L 81.956135 365.320287 
L 85.42103 364.859326 
L 88.885924 361.113585 
L 92.350819 363.508971 
L 95.815714 357.87444 
L 99.280609 367.741449 
L 102.745503 358.729267 
L 106.210398 358.590928 
L 109.675293 362.753014 
L 113.140187 367.741449 
L 116.605082 367.741449 
L 120.069977 344.116627 
L 123.534872 313.932995 
L 126.999766 346.641416 
L 130.464661 349.545293 
L 133.929556 353.073415 
L 137.394451 366.726537 
L 140.859345 354.695459 
L 144.32424 326.924501 
L 147.789135 352.951313 
L 151.25403 366.435422 
L 154.718924 367.741449 
L 161.648714 367.589372 
L 165.113609 365.74114 
L 168.578503 367.741449 
L 172.043398 367.614028 
L 175.508293 367.650614 
L 178.973187 365.895379 
L 182.438082 363.995966 
L 185.902977 358.465673 
L 189.367872 361.353345 
L 192.832766 363.759212 
L 196.297661 367.454643 
L 199.762556 361.14616 
L 206.692345 355.868296 
L 210.15724 350.57235 
L 213.622135 360.403117 
L 217.08703 346.534181 
L 220.551924 352.288127 
L 224.016819 351.433747 
L 227.481714 358.029156 
L 230.946609 347.88563 
L 234.411503 337.001407 
L 237.876398 343.120561 
L 241.341293 341.532538 
L 244.806187 342.145211 
L 248.271082 350.060013 
L 251.735977 351.275865 
L 255.200872 361.381567 
L 258.665766 362.493256 
L 262.130661 357.515727 
L 265.595556 351.722903 
L 269.060451 359.1155 
L 275.99024 345.320298 
L 279.455135 358.875001 
L 282.92003 349.469671 
L 286.384924 353.221402 
L 289.849819 354.388679 
L 293.314714 350.013983 
L 300.244503 367.518082 
L 303.709398 366.963562 
L 307.174293 359.120017 
L 310.639187 358.126156 
L 314.104082 365.66656 
L 317.568977 367.422395 
L 321.033872 364.850734 
L 324.498766 353.17964 
L 327.963661 362.779932 
L 331.428556 325.83544 
L 334.893451 338.150991 
L 338.358345 363.725489 
L 341.82324 358.577829 
L 345.288135 349.740419 
L 348.75303 364.773809 
L 352.217924 366.438463 
L 355.682819 355.653969 
L 359.147714 355.176982 
L 362.612609 357.2969 
L 366.077503 343.369293 
L 369.542398 341.230284 
L 373.007293 359.075551 
L 376.472188 365.490142 
L 379.937082 361.7273 
L 383.401977 351.655214 
L 386.866872 342.320493 
L 390.331766 355.107253 
L 393.796661 351.003937 
L 397.261556 362.711843 
L 400.726451 361.007791 
L 404.191345 359.988351 
L 407.65624 339.856993 
L 414.58603 364.36487 
L 418.050924 363.252991 
L 421.515819 364.694179 
L 424.980714 361.786465 
L 428.445609 363.478095 
L 431.910503 361.659834 
L 435.375398 366.486815 
L 438.840293 364.635103 
L 442.305187 365.792238 
L 445.770082 361.139656 
L 449.234977 350.166323 
L 452.699872 356.288733 
L 456.164766 344.427744 
L 459.629661 354.982473 
L 463.094556 360.114913 
L 466.559451 361.978147 
L 470.024345 358.250244 
L 473.48924 342.070468 
L 476.954135 354.813195 
L 480.41903 347.721836 
L 483.883924 345.924831 
L 490.813714 364.445298 
L 494.278609 364.147028 
L 497.743503 357.625999 
L 501.208398 365.349805 
L 504.673293 345.165421 
L 508.138188 335.122682 
L 511.603082 341.82567 
L 515.067977 350.576612 
L 518.532872 347.466303 
L 521.997766 360.233996 
L 525.462661 351.568884 
L 528.927556 344.914285 
L 532.392451 355.67591 
L 535.857345 365.691058 
L 539.32224 360.31245 
L 542.787135 345.417452 
L 546.25203 350.638686 
L 549.716924 362.933544 
L 553.181819 367.623715 
L 556.646714 361.026741 
L 560.111609 342.179349 
L 563.576503 333.043416 
L 567.041398 364.751657 
L 570.506293 366.380748 
L 573.971188 363.264017 
L 577.436082 364.36915 
L 580.900977 359.527703 
L 584.365872 366.755238 
L 587.830766 363.6607 
L 591.295661 352.457091 
L 594.760556 345.824662 
L 598.225451 356.688658 
L 601.690345 362.73846 
L 605.15524 367.38638 
L 608.620135 364.534712 
L 612.08503 360.739815 
L 615.549924 360.535582 
L 619.014819 360.777582 
L 622.479714 358.13759 
L 625.944609 356.546475 
L 629.409503 367.330029 
L 632.874398 356.395947 
L 636.339293 358.944417 
L 639.804188 362.215572 
L 643.269082 355.360538 
L 646.733977 364.051526 
L 650.198872 363.51069 
L 653.663766 365.289107 
L 657.128661 361.007043 
L 660.593556 364.442206 
L 664.058451 366.054329 
L 667.523345 364.056225 
L 670.98824 365.008999 
L 674.453135 364.05566 
L 677.91803 359.469516 
L 681.382924 347.322637 
L 684.847819 348.856237 
L 688.312714 337.477637 
L 691.777609 359.699508 
L 695.242503 366.850592 
L 698.707398 367.741449 
L 702.172293 366.515214 
L 705.637188 366.504491 
L 705.637188 366.504491 
" clip-path="url(#p3ca98fcae9)" style="fill: none; stroke: #ff8c00; stroke-width: 2.3; stroke-linecap: square"/>
   </g>
   <g id="line2d_32">
    <path d="M 275.99024 384.117812 
L 275.99024 23.837812 
" clip-path="url(#p3ca98fcae9)" style="fill: none; stroke-dasharray: 5.55,2.4; stroke-dashoffset: 0; stroke: #808080; stroke-width: 1.5"/>
   </g>
   <g id="line2d_33">
    <path d="M 473.48924 384.117812 
L 473.48924 23.837812 
" clip-path="url(#p3ca98fcae9)" style="fill: none; stroke-dasharray: 5.55,2.4; stroke-dashoffset: 0; stroke: #808080; stroke-width: 1.5"/>
   </g>
   <g id="patch_3">
    <path d="M 47.307188 384.117812 
L 47.307188 23.837812 
" style="fill: none; stroke: #000000; stroke-width: 0.8; stroke-linejoin: miter; stroke-linecap: square"/>
   </g>
   <g id="patch_4">
    <path d="M 705.637188 384.117812 
L 705.637188 23.837812 
" style="fill: none; stroke: #000000; stroke-width: 0.8; stroke-linejoin: miter; stroke-linecap: square"/>
   </g>
   <g id="patch_5">
    <path d="M 47.307188 384.117812 
L 705.637188 384.117812 
" style="fill: none; stroke: #000000; stroke-width: 0.8; stroke-linejoin: miter; stroke-linecap: square"/>
   </g>
   <g id="patch_6">
    <path d="M 47.307188 23.837812 
L 705.637188 23.837812 
" style="fill: none; stroke: #000000; stroke-width: 0.8; stroke-linejoin: miter; stroke-linecap: square"/>
   </g>
   <g id="text_18">
    <!-- Facial trace: Social anxiety disorder (SAD) -->
    <g transform="translate(229.536719 17.837812) scale(0.14 -0.14)">
     <defs>
      <path id="DejaVuSans-46" d="M 628 4666 
L 3309 4666 
L 3309 4134 
L 1259 4134 
L 1259 2759 
L 3109 2759 
L 3109 2228 
L 1259 2228 
L 1259 0 
L 628 0 
L 628 4666 
z
" transform="scale(0.015625)"/>
      <path id="DejaVuSans-63" d="M 3122 3366 
L 3122 2828 
Q 2878 2963 2633 3030 
Q 2388 3097 2138 3097 
Q 1578 3097 1268 2742 
Q 959 2388 959 1747 
Q 959 1106 1268 751 
Q 1578 397 2138 397 
Q 2388 397 2633 464 
Q 2878 531 3122 666 
L 3122 134 
Q 2881 22 2623 -34 
Q 2366 -91 2075 -91 
Q 1284 -91 818 406 
Q 353 903 353 1747 
Q 353 2603 823 3093 
Q 1294 3584 2113 3584 
Q 2378 3584 2631 3529 
Q 2884 3475 3122 3366 
z
" transform="scale(0.015625)"/>
      <path id="DejaVuSans-6c" d="M 603 4863 
L 1178 4863 
L 1178 0 
L 603 0 
L 603 4863 
z
" transform="scale(0.015625)"/>
      <path id="DejaVuSans-72" d="M 2631 2963 
Q 2534 3019 2420 3045 
Q 2306 3072 2169 3072 
Q 1681 3072 1420 2755 
Q 1159 2438 1159 1844 
L 1159 0 
L 581 0 
L 581 3500 
L 1159 3500 
L 1159 2956 
Q 1341 3275 1631 3429 
Q 1922 3584 2338 3584 
Q 2397 3584 2469 3576 
Q 2541 3569 2628 3553 
L 2631 2963 
z
" transform="scale(0.015625)"/>
      <path id="DejaVuSans-3a" d="M 750 794 
L 1409 794 
L 1409 0 
L 750 0 
L 750 794 
z
M 750 3309 
L 1409 3309 
L 1409 2516 
L 750 2516 
L 750 3309 
z
" transform="scale(0.015625)"/>
      <path id="DejaVuSans-53" d="M 3425 4513 
L 3425 3897 
Q 3066 4069 2747 4153 
Q 2428 4238 2131 4238 
Q 1616 4238 1336 4038 
Q 1056 3838 1056 3469 
Q 1056 3159 1242 3001 
Q 1428 2844 1947 2747 
L 2328 2669 
Q 3034 2534 3370 2195 
Q 3706 1856 3706 1288 
Q 3706 609 3251 259 
Q 2797 -91 1919 -91 
Q 1588 -91 1214 -16 
Q 841 59 441 206 
L 441 856 
Q 825 641 1194 531 
Q 1563 422 1919 422 
Q 2459 422 2753 634 
Q 3047 847 3047 1241 
Q 3047 1584 2836 1778 
Q 2625 1972 2144 2069 
L 1759 2144 
Q 1053 2284 737 2584 
Q 422 2884 422 3419 
Q 422 4038 858 4394 
Q 1294 4750 2059 4750 
Q 2388 4750 2728 4690 
Q 3069 4631 3425 4513 
z
" transform="scale(0.015625)"/>
      <path id="DejaVuSans-6f" d="M 1959 3097 
Q 1497 3097 1228 2736 
Q 959 2375 959 1747 
Q 959 1119 1226 758 
Q 1494 397 1959 397 
Q 2419 397 2687 759 
Q 2956 1122 2956 1747 
Q 2956 2369 2687 2733 
Q 2419 3097 1959 3097 
z
M 1959 3584 
Q 2709 3584 3137 3096 
Q 3566 2609 3566 1747 
Q 3566 888 3137 398 
Q 2709 -91 1959 -91 
Q 1206 -91 779 398 
Q 353 888 353 1747 
Q 353 2609 779 3096 
Q 1206 3584 1959 3584 
z
" transform="scale(0.015625)"/>
      <path id="DejaVuSans-78" d="M 3513 3500 
L 2247 1797 
L 3578 0 
L 2900 0 
L 1881 1375 
L 863 0 
L 184 0 
L 1544 1831 
L 300 3500 
L 978 3500 
L 1906 2253 
L 2834 3500 
L 3513 3500 
z
" transform="scale(0.015625)"/>
      <path id="DejaVuSans-64" d="M 2906 2969 
L 2906 4863 
L 3481 4863 
L 3481 0 
L 2906 0 
L 2906 525 
Q 2725 213 2448 61 
Q 2172 -91 1784 -91 
Q 1150 -91 751 415 
Q 353 922 353 1747 
Q 353 2572 751 3078 
Q 1150 3584 1784 3584 
Q 2172 3584 2448 3432 
Q 2725 3281 2906 2969 
z
M 947 1747 
Q 947 1113 1208 752 
Q 1469 391 1925 391 
Q 2381 391 2643 752 
Q 2906 1113 2906 1747 
Q 2906 2381 2643 2742 
Q 2381 3103 1925 3103 
Q 1469 3103 1208 2742 
Q 947 2381 947 1747 
z
" transform="scale(0.015625)"/>
      <path id="DejaVuSans-44" d="M 1259 4147 
L 1259 519 
L 2022 519 
Q 2988 519 3436 956 
Q 3884 1394 3884 2338 
Q 3884 3275 3436 3711 
Q 2988 4147 2022 4147 
L 1259 4147 
z
M 628 4666 
L 1925 4666 
Q 3281 4666 3915 4102 
Q 4550 3538 4550 2338 
Q 4550 1131 3912 565 
Q 3275 0 1925 0 
L 628 0 
L 628 4666 
z
" transform="scale(0.015625)"/>
     </defs>
     <use xlink:href="#DejaVuSans-46"/>
     <use xlink:href="#DejaVuSans-61" transform="translate(48.394531 0)"/>
     <use xlink:href="#DejaVuSans-63" transform="translate(109.673828 0)"/>
     <use xlink:href="#DejaVuSans-69" transform="translate(164.654297 0)"/>
     <use xlink:href="#DejaVuSans-61" transform="translate(192.4375 0)"/>
     <use xlink:href="#DejaVuSans-6c" transform="translate(253.716797 0)"/>
     <use xlink:href="#DejaVuSans-20" transform="translate(281.5 0)"/>
     <use xlink:href="#DejaVuSans-74" transform="translate(313.287109 0)"/>
     <use xlink:href="#DejaVuSans-72" transform="translate(352.496094 0)"/>
     <use xlink:href="#DejaVuSans-61" transform="translate(393.609375 0)"/>
     <use xlink:href="#DejaVuSans-63" transform="translate(454.888672 0)"/>
     <use xlink:href="#DejaVuSans-65" transform="translate(509.869141 0)"/>
     <use xlink:href="#DejaVuSans-3a" transform="translate(571.392578 0)"/>
     <use xlink:href="#DejaVuSans-20" transform="translate(605.083984 0)"/>
     <use xlink:href="#DejaVuSans-53" transform="translate(636.871094 0)"/>
     <use xlink:href="#DejaVuSans-6f" transform="translate(700.347656 0)"/>
     <use xlink:href="#DejaVuSans-63" transform="translate(761.529297 0)"/>
     <use xlink:href="#DejaVuSans-69" transform="translate(816.509766 0)"/>
     <use xlink:href="#DejaVuSans-61" transform="translate(844.292969 0)"/>
     <use xlink:href="#DejaVuSans-6c" transform="translate(905.572266 0)"/>
     <use xlink:href="#DejaVuSans-20" transform="translate(933.355469 0)"/>
     <use xlink:href="#DejaVuSans-61" transform="translate(965.142578 0)"/>
     <use xlink:href="#DejaVuSans-6e" transform="translate(1026.421875 0)"/>
     <use xlink:href="#DejaVuSans-78" transform="translate(1089.800781 0)"/>
     <use xlink:href="#DejaVuSans-69" transform="translate(1148.980469 0)"/>
     <use xlink:href="#DejaVuSans-65" transform="translate(1176.763672 0)"/>
     <use xlink:href="#DejaVuSans-74" transform="translate(1238.287109 0)"/>
     <use xlink:href="#DejaVuSans-79" transform="translate(1277.496094 0)"/>
     <use xlink:href="#DejaVuSans-20" transform="translate(1336.675781 0)"/>
     <use xlink:href="#DejaVuSans-64" transform="translate(1368.462891 0)"/>
     <use xlink:href="#DejaVuSans-69" transform="translate(1431.939453 0)"/>
     <use xlink:href="#DejaVuSans-73" transform="translate(1459.722656 0)"/>
     <use xlink:href="#DejaVuSans-6f" transform="translate(1511.822266 0)"/>
     <use xlink:href="#DejaVuSans-72" transform="translate(1573.003906 0)"/>
     <use xlink:href="#DejaVuSans-64" transform="translate(1612.367188 0)"/>
     <use xlink:href="#DejaVuSans-65" transform="translate(1675.84375 0)"/>
     <use xlink:href="#DejaVuSans-72" transform="translate(1737.367188 0)"/>
     <use xlink:href="#DejaVuSans-20" transform="translate(1778.480469 0)"/>
     <use xlink:href="#DejaVuSans-28" transform="translate(1810.267578 0)"/>
     <use xlink:href="#DejaVuSans-53" transform="translate(1849.28125 0)"/>
     <use xlink:href="#DejaVuSans-41" transform="translate(1914.632812 0)"/>
     <use xlink:href="#DejaVuSans-44" transform="translate(1983.041016 0)"/>
     <use xlink:href="#DejaVuSans-29" transform="translate(2060.042969 0)"/>
    </g>
   </g>
   <g id="legend_1">
    <g id="patch_7">
     <path d="M 446.991094 42.096094 
L 468.991094 42.096094 
L 468.991094 34.396094 
L 446.991094 34.396094 
z
" style="fill: #d3d3d3; fill-opacity: 0.5; stroke: #d3d3d3; stroke-opacity: 0.5; stroke-linejoin: miter"/>
    </g>
    <g id="text_19">
     <!-- Social anxiety disorder (SAD) ±2 SD -->
     <g transform="translate(477.791094 42.096094) scale(0.11 -0.11)">
      <defs>
       <path id="DejaVuSans-b1" d="M 2944 4013 
L 2944 2803 
L 4684 2803 
L 4684 2272 
L 2944 2272 
L 2944 1063 
L 2419 1063 
L 2419 2272 
L 678 2272 
L 678 2803 
L 2419 2803 
L 2419 4013 
L 2944 4013 
z
M 678 531 
L 4684 531 
L 4684 0 
L 678 0 
L 678 531 
z
" transform="scale(0.015625)"/>
      </defs>
      <use xlink:href="#DejaVuSans-53"/>
      <use xlink:href="#DejaVuSans-6f" transform="translate(63.476562 0)"/>
      <use xlink:href="#DejaVuSans-63" transform="translate(124.658203 0)"/>
      <use xlink:href="#DejaVuSans-69" transform="translate(179.638672 0)"/>
      <use xlink:href="#DejaVuSans-61" transform="translate(207.421875 0)"/>
      <use xlink:href="#DejaVuSans-6c" transform="translate(268.701172 0)"/>
      <use xlink:href="#DejaVuSans-20" transform="translate(296.484375 0)"/>
      <use xlink:href="#DejaVuSans-61" transform="translate(328.271484 0)"/>
      <use xlink:href="#DejaVuSans-6e" transform="translate(389.550781 0)"/>
      <use xlink:href="#DejaVuSans-78" transform="translate(452.929688 0)"/>
      <use xlink:href="#DejaVuSans-69" transform="translate(512.109375 0)"/>
      <use xlink:href="#DejaVuSans-65" transform="translate(539.892578 0)"/>
      <use xlink:href="#DejaVuSans-74" transform="translate(601.416016 0)"/>
      <use xlink:href="#DejaVuSans-79" transform="translate(640.625 0)"/>
      <use xlink:href="#DejaVuSans-20" transform="translate(699.804688 0)"/>
      <use xlink:href="#DejaVuSans-64" transform="translate(731.591797 0)"/>
      <use xlink:href="#DejaVuSans-69" transform="translate(795.068359 0)"/>
      <use xlink:href="#DejaVuSans-73" transform="translate(822.851562 0)"/>
      <use xlink:href="#DejaVuSans-6f" transform="translate(874.951172 0)"/>
      <use xlink:href="#DejaVuSans-72" transform="translate(936.132812 0)"/>
      <use xlink:href="#DejaVuSans-64" transform="translate(975.496094 0)"/>
      <use xlink:href="#DejaVuSans-65" transform="translate(1038.972656 0)"/>
      <use xlink:href="#DejaVuSans-72" transform="translate(1100.496094 0)"/>
      <use xlink:href="#DejaVuSans-20" transform="translate(1141.609375 0)"/>
      <use xlink:href="#DejaVuSans-28" transform="translate(1173.396484 0)"/>
      <use xlink:href="#DejaVuSans-53" transform="translate(1212.410156 0)"/>
      <use xlink:href="#DejaVuSans-41" transform="translate(1277.761719 0)"/>
      <use xlink:href="#DejaVuSans-44" transform="translate(1346.169922 0)"/>
      <use xlink:href="#DejaVuSans-29" transform="translate(1423.171875 0)"/>
      <use xlink:href="#DejaVuSans-20" transform="translate(1462.185547 0)"/>
      <use xlink:href="#DejaVuSans-b1" transform="translate(1493.972656 0)"/>
      <use xlink:href="#DejaVuSans-32" transform="translate(1577.761719 0)"/>
      <use xlink:href="#DejaVuSans-20" transform="translate(1641.384766 0)"/>
      <use xlink:href="#DejaVuSans-53" transform="translate(1673.171875 0)"/>
      <use xlink:href="#DejaVuSans-44" transform="translate(1736.648438 0)"/>
     </g>
    </g>
    <g id="patch_8">
     <path d="M 446.991094 58.242031 
L 468.991094 58.242031 
L 468.991094 50.542031 
L 446.991094 50.542031 
z
" style="fill: #808080; fill-opacity: 0.7; stroke: #808080; stroke-opacity: 0.7; stroke-linejoin: miter"/>
    </g>
    <g id="text_20">
     <!-- Social anxiety disorder (SAD) ±1 SD -->
     <g transform="translate(477.791094 58.242031) scale(0.11 -0.11)">
      <use xlink:href="#DejaVuSans-53"/>
      <use xlink:href="#DejaVuSans-6f" transform="translate(63.476562 0)"/>
      <use xlink:href="#DejaVuSans-63" transform="translate(124.658203 0)"/>
      <use xlink:href="#DejaVuSans-69" transform="translate(179.638672 0)"/>
      <use xlink:href="#DejaVuSans-61" transform="translate(207.421875 0)"/>
      <use xlink:href="#DejaVuSans-6c" transform="translate(268.701172 0)"/>
      <use xlink:href="#DejaVuSans-20" transform="translate(296.484375 0)"/>
      <use xlink:href="#DejaVuSans-61" transform="translate(328.271484 0)"/>
      <use xlink:href="#DejaVuSans-6e" transform="translate(389.550781 0)"/>
      <use xlink:href="#DejaVuSans-78" transform="translate(452.929688 0)"/>
      <use xlink:href="#DejaVuSans-69" transform="translate(512.109375 0)"/>
      <use xlink:href="#DejaVuSans-65" transform="translate(539.892578 0)"/>
      <use xlink:href="#DejaVuSans-74" transform="translate(601.416016 0)"/>
      <use xlink:href="#DejaVuSans-79" transform="translate(640.625 0)"/>
      <use xlink:href="#DejaVuSans-20" transform="translate(699.804688 0)"/>
      <use xlink:href="#DejaVuSans-64" transform="translate(731.591797 0)"/>
      <use xlink:href="#DejaVuSans-69" transform="translate(795.068359 0)"/>
      <use xlink:href="#DejaVuSans-73" transform="translate(822.851562 0)"/>
      <use xlink:href="#DejaVuSans-6f" transform="translate(874.951172 0)"/>
      <use xlink:href="#DejaVuSans-72" transform="translate(936.132812 0)"/>
      <use xlink:href="#DejaVuSans-64" transform="translate(975.496094 0)"/>
      <use xlink:href="#DejaVuSans-65" transform="translate(1038.972656 0)"/>
      <use xlink:href="#DejaVuSans-72" transform="translate(1100.496094 0)"/>
      <use xlink:href="#DejaVuSans-20" transform="translate(1141.609375 0)"/>
      <use xlink:href="#DejaVuSans-28" transform="translate(1173.396484 0)"/>
      <use xlink:href="#DejaVuSans-53" transform="translate(1212.410156 0)"/>
      <use xlink:href="#DejaVuSans-41" transform="translate(1277.761719 0)"/>
      <use xlink:href="#DejaVuSans-44" transform="translate(1346.169922 0)"/>
      <use xlink:href="#DejaVuSans-29" transform="translate(1423.171875 0)"/>
      <use xlink:href="#DejaVuSans-20" transform="translate(1462.185547 0)"/>
      <use xlink:href="#DejaVuSans-b1" transform="translate(1493.972656 0)"/>
      <use xlink:href="#DejaVuSans-31" transform="translate(1577.761719 0)"/>
      <use xlink:href="#DejaVuSans-20" transform="translate(1641.384766 0)"/>
      <use xlink:href="#DejaVuSans-53" transform="translate(1673.171875 0)"/>
      <use xlink:href="#DejaVuSans-44" transform="translate(1736.648438 0)"/>
     </g>
    </g>
    <g id="line2d_34">
     <path d="M 446.991094 70.537969 
L 457.991094 70.537969 
L 468.991094 70.537969 
" style="fill: none; stroke: #ff8c00; stroke-width: 2.3; stroke-linecap: square"/>
    </g>
    <g id="text_21">
     <!-- Social anxiety disorder (SAD) prototype -->
     <g transform="translate(477.791094 74.387969) scale(0.11 -0.11)">
      <defs>
       <path id="DejaVuSans-70" d="M 1159 525 
L 1159 -1331 
L 581 -1331 
L 581 3500 
L 1159 3500 
L 1159 2969 
Q 1341 3281 1617 3432 
Q 1894 3584 2278 3584 
Q 2916 3584 3314 3078 
Q 3713 2572 3713 1747 
Q 3713 922 3314 415 
Q 2916 -91 2278 -91 
Q 1894 -91 1617 61 
Q 1341 213 1159 525 
z
M 3116 1747 
Q 3116 2381 2855 2742 
Q 2594 3103 2138 3103 
Q 1681 3103 1420 2742 
Q 1159 2381 1159 1747 
Q 1159 1113 1420 752 
Q 1681 391 2138 391 
Q 2594 391 2855 752 
Q 3116 1113 3116 1747 
z
" transform="scale(0.015625)"/>
      </defs>
      <use xlink:href="#DejaVuSans-53"/>
      <use xlink:href="#DejaVuSans-6f" transform="translate(63.476562 0)"/>
      <use xlink:href="#DejaVuSans-63" transform="translate(124.658203 0)"/>
      <use xlink:href="#DejaVuSans-69" transform="translate(179.638672 0)"/>
      <use xlink:href="#DejaVuSans-61" transform="translate(207.421875 0)"/>
      <use xlink:href="#DejaVuSans-6c" transform="translate(268.701172 0)"/>
      <use xlink:href="#DejaVuSans-20" transform="translate(296.484375 0)"/>
      <use xlink:href="#DejaVuSans-61" transform="translate(328.271484 0)"/>
      <use xlink:href="#DejaVuSans-6e" transform="translate(389.550781 0)"/>
      <use xlink:href="#DejaVuSans-78" transform="translate(452.929688 0)"/>
      <use xlink:href="#DejaVuSans-69" transform="translate(512.109375 0)"/>
      <use xlink:href="#DejaVuSans-65" transform="translate(539.892578 0)"/>
      <use xlink:href="#DejaVuSans-74" transform="translate(601.416016 0)"/>
      <use xlink:href="#DejaVuSans-79" transform="translate(640.625 0)"/>
      <use xlink:href="#DejaVuSans-20" transform="translate(699.804688 0)"/>
      <use xlink:href="#DejaVuSans-64" transform="translate(731.591797 0)"/>
      <use xlink:href="#DejaVuSans-69" transform="translate(795.068359 0)"/>
      <use xlink:href="#DejaVuSans-73" transform="translate(822.851562 0)"/>
      <use xlink:href="#DejaVuSans-6f" transform="translate(874.951172 0)"/>
      <use xlink:href="#DejaVuSans-72" transform="translate(936.132812 0)"/>
      <use xlink:href="#DejaVuSans-64" transform="translate(975.496094 0)"/>
      <use xlink:href="#DejaVuSans-65" transform="translate(1038.972656 0)"/>
      <use xlink:href="#DejaVuSans-72" transform="translate(1100.496094 0)"/>
      <use xlink:href="#DejaVuSans-20" transform="translate(1141.609375 0)"/>
      <use xlink:href="#DejaVuSans-28" transform="translate(1173.396484 0)"/>
      <use xlink:href="#DejaVuSans-53" transform="translate(1212.410156 0)"/>
      <use xlink:href="#DejaVuSans-41" transform="translate(1277.761719 0)"/>
      <use xlink:href="#DejaVuSans-44" transform="translate(1346.169922 0)"/>
      <use xlink:href="#DejaVuSans-29" transform="translate(1423.171875 0)"/>
      <use xlink:href="#DejaVuSans-20" transform="translate(1462.185547 0)"/>
      <use xlink:href="#DejaVuSans-70" transform="translate(1493.972656 0)"/>
      <use xlink:href="#DejaVuSans-72" transform="translate(1557.449219 0)"/>
      <use xlink:href="#DejaVuSans-6f" transform="translate(1596.3125 0)"/>
      <use xlink:href="#DejaVuSans-74" transform="translate(1657.494141 0)"/>
      <use xlink:href="#DejaVuSans-6f" transform="translate(1696.703125 0)"/>
      <use xlink:href="#DejaVuSans-74" transform="translate(1757.884766 0)"/>
      <use xlink:href="#DejaVuSans-79" transform="translate(1797.09375 0)"/>
      <use xlink:href="#DejaVuSans-70" transform="translate(1856.273438 0)"/>
      <use xlink:href="#DejaVuSans-65" transform="translate(1919.75 0)"/>
     </g>
    </g>
   </g>
  </g>
 </g>
 <defs>
  <clipPath id="p3ca98fcae9">
   <rect x="47.307188" y="23.837812" width="658.33" height="360.28"/>
  </clipPath>
 </defs>
</svg>
