<?xml version="1.0" encoding="utf-8" standalone="no"?>
<!DOCTYPE svg PUBLIC "-//W3C//DTD SVG 1.1//EN"
  "http://www.w3.org/Graphics/SVG/1.1/DTD/svg11.dtd">
<svg xmlns:xlink="http://www.w3.org/1999/xlink" width="712.837188pt" height="424.5775pt" viewBox="0 0 712.837188 424.5775" xmlns="http://www.w3.org/2000/svg" version="1.1">
 <metadata>
  <rdf:RDF xmlns:dc="http://purl.org/dc/elements/1.1/" xmlns:cc="http://creativecommons.org/ns#" xmlns:rdf="http://www.w3.org/1999/02/22-rdf-syntax-ns#">
   <cc:Work>
    <dc:type rdf:resource="http://purl.org/dc/dcmitype/StillImage"/>
    <dc:date>2026-06-14T18:52:51.464737</dc:date>
    <dc:format>image/svg+xml</dc:format>
    <dc:creator>
     <cc:Agent>
      <dc:title>Matplotlib v3.10.1, https://matplotlib.org/</dc:title>
     </cc:Agent>
    </dc:creator>
   </cc:Work>
  </rdf:RDF>
 </metadata>
 <defs>
  <style type="text/css">*{stroke-linejoin: round; stroke-linecap: butt}</style>
 </defs>
 <g id="figure_1">
  <g id="patch_1">
   <path d="M 0 424.5775 
L 712.837188 424.5775 
L 712.837188 0 
L 0 0 
z
" style="fill: #ffffff"/>
  </g>
  <g id="axes_1">
   <g id="patch_2">
    <path d="M 47.307188 384.117812 
L 705.637188 384.117812 
L 705.637188 23.837812 
L 47.307188 23.837812 
z
" style="fill: #ffffff"/>
   </g>
   <g id="matplotlib.axis_1">
    <g id="xtick_1">
     <g id="line2d_1">
      <path d="M 47.307188 384.117812 
L 47.307188 23.837812 
" clip-path="url(#pb4eed4a2bd)" style="fill: none; stroke: #b0b0b0; stroke-opacity: 0.2; stroke-width: 0.6; stroke-linecap: square"/>
     </g>
     <g id="line2d_2">
      <defs>
       <path id="m9b9d3a4d34" d="M 0 0 
L 0 3.5 
" style="stroke: #000000; stroke-width: 0.8"/>
      </defs>
      <g>
       <use xlink:href="#m9b9d3a4d34" x="47.307188" y="384.117812" style="stroke: #000000; stroke-width: 0.8"/>
      </g>
     </g>
     <g id="text_1">
      <!-- 0 -->
      <g transform="translate(43.807813 399.476094) scale(0.11 -0.11)">
       <defs>
        <path id="DejaVuSans-30" d="M 2034 4250 
Q 1547 4250 1301 3770 
Q 1056 3291 1056 2328 
Q 1056 1369 1301 889 
Q 1547 409 2034 409 
Q 2525 409 2770 889 
Q 3016 1369 3016 2328 
Q 3016 3291 2770 3770 
Q 2525 4250 2034 4250 
z
M 2034 4750 
Q 2819 4750 3233 4129 
Q 3647 3509 3647 2328 
Q 3647 1150 3233 529 
Q 2819 -91 2034 -91 
Q 1250 -91 836 529 
Q 422 1150 422 2328 
Q 422 3509 836 4129 
Q 1250 4750 2034 4750 
z
" transform="scale(0.015625)"/>
       </defs>
       <use xlink:href="#DejaVuSans-30"/>
      </g>
     </g>
    </g>
    <g id="xtick_2">
     <g id="line2d_3">
      <path d="M 133.929556 384.117812 
L 133.929556 23.837812 
" clip-path="url(#pb4eed4a2bd)" style="fill: none; stroke: #b0b0b0; stroke-opacity: 0.2; stroke-width: 0.6; stroke-linecap: square"/>
     </g>
     <g id="line2d_4">
      <g>
       <use xlink:href="#m9b9d3a4d34" x="133.929556" y="384.117812" style="stroke: #000000; stroke-width: 0.8"/>
      </g>
     </g>
     <g id="text_2">
      <!-- 25 -->
      <g transform="translate(126.930806 399.476094) scale(0.11 -0.11)">
       <defs>
        <path id="DejaVuSans-32" d="M 1228 531 
L 3431 531 
L 3431 0 
L 469 0 
L 469 531 
Q 828 903 1448 1529 
Q 2069 2156 2228 2338 
Q 2531 2678 2651 2914 
Q 2772 3150 2772 3378 
Q 2772 3750 2511 3984 
Q 2250 4219 1831 4219 
Q 1534 4219 1204 4116 
Q 875 4013 500 3803 
L 500 4441 
Q 881 4594 1212 4672 
Q 1544 4750 1819 4750 
Q 2544 4750 2975 4387 
Q 3406 4025 3406 3419 
Q 3406 3131 3298 2873 
Q 3191 2616 2906 2266 
Q 2828 2175 2409 1742 
Q 1991 1309 1228 531 
z
" transform="scale(0.015625)"/>
        <path id="DejaVuSans-35" d="M 691 4666 
L 3169 4666 
L 3169 4134 
L 1269 4134 
L 1269 2991 
Q 1406 3038 1543 3061 
Q 1681 3084 1819 3084 
Q 2600 3084 3056 2656 
Q 3513 2228 3513 1497 
Q 3513 744 3044 326 
Q 2575 -91 1722 -91 
Q 1428 -91 1123 -41 
Q 819 9 494 109 
L 494 744 
Q 775 591 1075 516 
Q 1375 441 1709 441 
Q 2250 441 2565 725 
Q 2881 1009 2881 1497 
Q 2881 1984 2565 2268 
Q 2250 2553 1709 2553 
Q 1456 2553 1204 2497 
Q 953 2441 691 2322 
L 691 4666 
z
" transform="scale(0.015625)"/>
       </defs>
       <use xlink:href="#DejaVuSans-32"/>
       <use xlink:href="#DejaVuSans-35" transform="translate(63.623047 0)"/>
      </g>
     </g>
    </g>
    <g id="xtick_3">
     <g id="line2d_5">
      <path d="M 220.551924 384.117812 
L 220.551924 23.837812 
" clip-path="url(#pb4eed4a2bd)" style="fill: none; stroke: #b0b0b0; stroke-opacity: 0.2; stroke-width: 0.6; stroke-linecap: square"/>
     </g>
     <g id="line2d_6">
      <g>
       <use xlink:href="#m9b9d3a4d34" x="220.551924" y="384.117812" style="stroke: #000000; stroke-width: 0.8"/>
      </g>
     </g>
     <g id="text_3">
      <!-- 50 -->
      <g transform="translate(213.553174 399.476094) scale(0.11 -0.11)">
       <use xlink:href="#DejaVuSans-35"/>
       <use xlink:href="#DejaVuSans-30" transform="translate(63.623047 0)"/>
      </g>
     </g>
    </g>
    <g id="xtick_4">
     <g id="line2d_7">
      <path d="M 307.174293 384.117812 
L 307.174293 23.837812 
" clip-path="url(#pb4eed4a2bd)" style="fill: none; stroke: #b0b0b0; stroke-opacity: 0.2; stroke-width: 0.6; stroke-linecap: square"/>
     </g>
     <g id="line2d_8">
      <g>
       <use xlink:href="#m9b9d3a4d34" x="307.174293" y="384.117812" style="stroke: #000000; stroke-width: 0.8"/>
      </g>
     </g>
     <g id="text_4">
      <!-- 75 -->
      <g transform="translate(300.175543 399.476094) scale(0.11 -0.11)">
       <defs>
        <path id="DejaVuSans-37" d="M 525 4666 
L 3525 4666 
L 3525 4397 
L 1831 0 
L 1172 0 
L 2766 4134 
L 525 4134 
L 525 4666 
z
" transform="scale(0.015625)"/>
       </defs>
       <use xlink:href="#DejaVuSans-37"/>
       <use xlink:href="#DejaVuSans-35" transform="translate(63.623047 0)"/>
      </g>
     </g>
    </g>
    <g id="xtick_5">
     <g id="line2d_9">
      <path d="M 393.796661 384.117812 
L 393.796661 23.837812 
" clip-path="url(#pb4eed4a2bd)" style="fill: none; stroke: #b0b0b0; stroke-opacity: 0.2; stroke-width: 0.6; stroke-linecap: square"/>
     </g>
     <g id="line2d_10">
      <g>
       <use xlink:href="#m9b9d3a4d34" x="393.796661" y="384.117812" style="stroke: #000000; stroke-width: 0.8"/>
      </g>
     </g>
     <g id="text_5">
      <!-- 100 -->
      <g transform="translate(383.298536 399.476094) scale(0.11 -0.11)">
       <defs>
        <path id="DejaVuSans-31" d="M 794 531 
L 1825 531 
L 1825 4091 
L 703 3866 
L 703 4441 
L 1819 4666 
L 2450 4666 
L 2450 531 
L 3481 531 
L 3481 0 
L 794 0 
L 794 531 
z
" transform="scale(0.015625)"/>
       </defs>
       <use xlink:href="#DejaVuSans-31"/>
       <use xlink:href="#DejaVuSans-30" transform="translate(63.623047 0)"/>
       <use xlink:href="#DejaVuSans-30" transform="translate(127.246094 0)"/>
      </g>
     </g>
    </g>
    <g id="xtick_6">
     <g id="line2d_11">
      <path d="M 480.41903 384.117812 
L 480.41903 23.837812 
" clip-path="url(#pb4eed4a2bd)" style="fill: none; stroke: #b0b0b0; stroke-opacity: 0.2; stroke-width: 0.6; stroke-linecap: square"/>
     </g>
     <g id="line2d_12">
      <g>
       <use xlink:href="#m9b9d3a4d34" x="480.41903" y="384.117812" style="stroke: #000000; stroke-width: 0.8"/>
      </g>
     </g>
     <g id="text_6">
      <!-- 125 -->
      <g transform="translate(469.920905 399.476094) scale(0.11 -0.11)">
       <use xlink:href="#DejaVuSans-31"/>
       <use xlink:href="#DejaVuSans-32" transform="translate(63.623047 0)"/>
       <use xlink:href="#DejaVuSans-35" transform="translate(127.246094 0)"/>
      </g>
     </g>
    </g>
    <g id="xtick_7">
     <g id="line2d_13">
      <path d="M 567.041398 384.117812 
L 567.041398 23.837812 
" clip-path="url(#pb4eed4a2bd)" style="fill: none; stroke: #b0b0b0; stroke-opacity: 0.2; stroke-width: 0.6; stroke-linecap: square"/>
     </g>
     <g id="line2d_14">
      <g>
       <use xlink:href="#m9b9d3a4d34" x="567.041398" y="384.117812" style="stroke: #000000; stroke-width: 0.8"/>
      </g>
     </g>
     <g id="text_7">
      <!-- 150 -->
      <g transform="translate(556.543273 399.476094) scale(0.11 -0.11)">
       <use xlink:href="#DejaVuSans-31"/>
       <use xlink:href="#DejaVuSans-35" transform="translate(63.623047 0)"/>
       <use xlink:href="#DejaVuSans-30" transform="translate(127.246094 0)"/>
      </g>
     </g>
    </g>
    <g id="xtick_8">
     <g id="line2d_15">
      <path d="M 653.663766 384.117812 
L 653.663766 23.837812 
" clip-path="url(#pb4eed4a2bd)" style="fill: none; stroke: #b0b0b0; stroke-opacity: 0.2; stroke-width: 0.6; stroke-linecap: square"/>
     </g>
     <g id="line2d_16">
      <g>
       <use xlink:href="#m9b9d3a4d34" x="653.663766" y="384.117812" style="stroke: #000000; stroke-width: 0.8"/>
      </g>
     </g>
     <g id="text_8">
      <!-- 175 -->
      <g transform="translate(643.165641 399.476094) scale(0.11 -0.11)">
       <use xlink:href="#DejaVuSans-31"/>
       <use xlink:href="#DejaVuSans-37" transform="translate(63.623047 0)"/>
       <use xlink:href="#DejaVuSans-35" transform="translate(127.246094 0)"/>
      </g>
     </g>
    </g>
    <g id="text_9">
     <!-- Time (s) -->
     <g transform="translate(352.0775 414.881875) scale(0.12 -0.12)">
      <defs>
       <path id="DejaVuSans-54" d="M -19 4666 
L 3928 4666 
L 3928 4134 
L 2272 4134 
L 2272 0 
L 1638 0 
L 1638 4134 
L -19 4134 
L -19 4666 
z
" transform="scale(0.015625)"/>
       <path id="DejaVuSans-69" d="M 603 3500 
L 1178 3500 
L 1178 0 
L 603 0 
L 603 3500 
z
M 603 4863 
L 1178 4863 
L 1178 4134 
L 603 4134 
L 603 4863 
z
" transform="scale(0.015625)"/>
       <path id="DejaVuSans-6d" d="M 3328 2828 
Q 3544 3216 3844 3400 
Q 4144 3584 4550 3584 
Q 5097 3584 5394 3201 
Q 5691 2819 5691 2113 
L 5691 0 
L 5113 0 
L 5113 2094 
Q 5113 2597 4934 2840 
Q 4756 3084 4391 3084 
Q 3944 3084 3684 2787 
Q 3425 2491 3425 1978 
L 3425 0 
L 2847 0 
L 2847 2094 
Q 2847 2600 2669 2842 
Q 2491 3084 2119 3084 
Q 1678 3084 1418 2786 
Q 1159 2488 1159 1978 
L 1159 0 
L 581 0 
L 581 3500 
L 1159 3500 
L 1159 2956 
Q 1356 3278 1631 3431 
Q 1906 3584 2284 3584 
Q 2666 3584 2933 3390 
Q 3200 3197 3328 2828 
z
" transform="scale(0.015625)"/>
       <path id="DejaVuSans-65" d="M 3597 1894 
L 3597 1613 
L 953 1613 
Q 991 1019 1311 708 
Q 1631 397 2203 397 
Q 2534 397 2845 478 
Q 3156 559 3463 722 
L 3463 178 
Q 3153 47 2828 -22 
Q 2503 -91 2169 -91 
Q 1331 -91 842 396 
Q 353 884 353 1716 
Q 353 2575 817 3079 
Q 1281 3584 2069 3584 
Q 2775 3584 3186 3129 
Q 3597 2675 3597 1894 
z
M 3022 2063 
Q 3016 2534 2758 2815 
Q 2500 3097 2075 3097 
Q 1594 3097 1305 2825 
Q 1016 2553 972 2059 
L 3022 2063 
z
" transform="scale(0.015625)"/>
       <path id="DejaVuSans-20" transform="scale(0.015625)"/>
       <path id="DejaVuSans-28" d="M 1984 4856 
Q 1566 4138 1362 3434 
Q 1159 2731 1159 2009 
Q 1159 1288 1364 580 
Q 1569 -128 1984 -844 
L 1484 -844 
Q 1016 -109 783 600 
Q 550 1309 550 2009 
Q 550 2706 781 3412 
Q 1013 4119 1484 4856 
L 1984 4856 
z
" transform="scale(0.015625)"/>
       <path id="DejaVuSans-73" d="M 2834 3397 
L 2834 2853 
Q 2591 2978 2328 3040 
Q 2066 3103 1784 3103 
Q 1356 3103 1142 2972 
Q 928 2841 928 2578 
Q 928 2378 1081 2264 
Q 1234 2150 1697 2047 
L 1894 2003 
Q 2506 1872 2764 1633 
Q 3022 1394 3022 966 
Q 3022 478 2636 193 
Q 2250 -91 1575 -91 
Q 1294 -91 989 -36 
Q 684 19 347 128 
L 347 722 
Q 666 556 975 473 
Q 1284 391 1588 391 
Q 1994 391 2212 530 
Q 2431 669 2431 922 
Q 2431 1156 2273 1281 
Q 2116 1406 1581 1522 
L 1381 1569 
Q 847 1681 609 1914 
Q 372 2147 372 2553 
Q 372 3047 722 3315 
Q 1072 3584 1716 3584 
Q 2034 3584 2315 3537 
Q 2597 3491 2834 3397 
z
" transform="scale(0.015625)"/>
       <path id="DejaVuSans-29" d="M 513 4856 
L 1013 4856 
Q 1481 4119 1714 3412 
Q 1947 2706 1947 2009 
Q 1947 1309 1714 600 
Q 1481 -109 1013 -844 
L 513 -844 
Q 928 -128 1133 580 
Q 1338 1288 1338 2009 
Q 1338 2731 1133 3434 
Q 928 4138 513 4856 
z
" transform="scale(0.015625)"/>
      </defs>
      <use xlink:href="#DejaVuSans-54"/>
      <use xlink:href="#DejaVuSans-69" transform="translate(57.958984 0)"/>
      <use xlink:href="#DejaVuSans-6d" transform="translate(85.742188 0)"/>
      <use xlink:href="#DejaVuSans-65" transform="translate(183.154297 0)"/>
      <use xlink:href="#DejaVuSans-20" transform="translate(244.677734 0)"/>
      <use xlink:href="#DejaVuSans-28" transform="translate(276.464844 0)"/>
      <use xlink:href="#DejaVuSans-73" transform="translate(315.478516 0)"/>
      <use xlink:href="#DejaVuSans-29" transform="translate(367.578125 0)"/>
     </g>
    </g>
   </g>
   <g id="matplotlib.axis_2">
    <g id="ytick_1">
     <g id="line2d_17">
      <path d="M 47.307188 367.741449 
L 705.637188 367.741449 
" clip-path="url(#pb4eed4a2bd)" style="fill: none; stroke: #b0b0b0; stroke-opacity: 0.2; stroke-width: 0.6; stroke-linecap: square"/>
     </g>
     <g id="line2d_18">
      <defs>
       <path id="m295eb98384" d="M 0 0 
L -3.5 0 
" style="stroke: #000000; stroke-width: 0.8"/>
      </defs>
      <g>
       <use xlink:href="#m295eb98384" x="47.307188" y="367.741449" style="stroke: #000000; stroke-width: 0.8"/>
      </g>
     </g>
     <g id="text_10">
      <!-- 0.0 -->
      <g transform="translate(22.81375 371.920589) scale(0.11 -0.11)">
       <defs>
        <path id="DejaVuSans-2e" d="M 684 794 
L 1344 794 
L 1344 0 
L 684 0 
L 684 794 
z
" transform="scale(0.015625)"/>
       </defs>
       <use xlink:href="#DejaVuSans-30"/>
       <use xlink:href="#DejaVuSans-2e" transform="translate(63.623047 0)"/>
       <use xlink:href="#DejaVuSans-30" transform="translate(95.410156 0)"/>
      </g>
     </g>
    </g>
    <g id="ytick_2">
     <g id="line2d_19">
      <path d="M 47.307188 317.507205 
L 705.637188 317.507205 
" clip-path="url(#pb4eed4a2bd)" style="fill: none; stroke: #b0b0b0; stroke-opacity: 0.2; stroke-width: 0.6; stroke-linecap: square"/>
     </g>
     <g id="line2d_20">
      <g>
       <use xlink:href="#m295eb98384" x="47.307188" y="317.507205" style="stroke: #000000; stroke-width: 0.8"/>
      </g>
     </g>
     <g id="text_11">
      <!-- 0.5 -->
      <g transform="translate(22.81375 321.686345) scale(0.11 -0.11)">
       <use xlink:href="#DejaVuSans-30"/>
       <use xlink:href="#DejaVuSans-2e" transform="translate(63.623047 0)"/>
       <use xlink:href="#DejaVuSans-35" transform="translate(95.410156 0)"/>
      </g>
     </g>
    </g>
    <g id="ytick_3">
     <g id="line2d_21">
      <path d="M 47.307188 267.27296 
L 705.637188 267.27296 
" clip-path="url(#pb4eed4a2bd)" style="fill: none; stroke: #b0b0b0; stroke-opacity: 0.2; stroke-width: 0.6; stroke-linecap: square"/>
     </g>
     <g id="line2d_22">
      <g>
       <use xlink:href="#m295eb98384" x="47.307188" y="267.27296" style="stroke: #000000; stroke-width: 0.8"/>
      </g>
     </g>
     <g id="text_12">
      <!-- 1.0 -->
      <g transform="translate(22.81375 271.452101) scale(0.11 -0.11)">
       <use xlink:href="#DejaVuSans-31"/>
       <use xlink:href="#DejaVuSans-2e" transform="translate(63.623047 0)"/>
       <use xlink:href="#DejaVuSans-30" transform="translate(95.410156 0)"/>
      </g>
     </g>
    </g>
    <g id="ytick_4">
     <g id="line2d_23">
      <path d="M 47.307188 217.038716 
L 705.637188 217.038716 
" clip-path="url(#pb4eed4a2bd)" style="fill: none; stroke: #b0b0b0; stroke-opacity: 0.2; stroke-width: 0.6; stroke-linecap: square"/>
     </g>
     <g id="line2d_24">
      <g>
       <use xlink:href="#m295eb98384" x="47.307188" y="217.038716" style="stroke: #000000; stroke-width: 0.8"/>
      </g>
     </g>
     <g id="text_13">
      <!-- 1.5 -->
      <g transform="translate(22.81375 221.217857) scale(0.11 -0.11)">
       <use xlink:href="#DejaVuSans-31"/>
       <use xlink:href="#DejaVuSans-2e" transform="translate(63.623047 0)"/>
       <use xlink:href="#DejaVuSans-35" transform="translate(95.410156 0)"/>
      </g>
     </g>
    </g>
    <g id="ytick_5">
     <g id="line2d_25">
      <path d="M 47.307188 166.804472 
L 705.637188 166.804472 
" clip-path="url(#pb4eed4a2bd)" style="fill: none; stroke: #b0b0b0; stroke-opacity: 0.2; stroke-width: 0.6; stroke-linecap: square"/>
     </g>
     <g id="line2d_26">
      <g>
       <use xlink:href="#m295eb98384" x="47.307188" y="166.804472" style="stroke: #000000; stroke-width: 0.8"/>
      </g>
     </g>
     <g id="text_14">
      <!-- 2.0 -->
      <g transform="translate(22.81375 170.983612) scale(0.11 -0.11)">
       <use xlink:href="#DejaVuSans-32"/>
       <use xlink:href="#DejaVuSans-2e" transform="translate(63.623047 0)"/>
       <use xlink:href="#DejaVuSans-30" transform="translate(95.410156 0)"/>
      </g>
     </g>
    </g>
    <g id="ytick_6">
     <g id="line2d_27">
      <path d="M 47.307188 116.570227 
L 705.637188 116.570227 
" clip-path="url(#pb4eed4a2bd)" style="fill: none; stroke: #b0b0b0; stroke-opacity: 0.2; stroke-width: 0.6; stroke-linecap: square"/>
     </g>
     <g id="line2d_28">
      <g>
       <use xlink:href="#m295eb98384" x="47.307188" y="116.570227" style="stroke: #000000; stroke-width: 0.8"/>
      </g>
     </g>
     <g id="text_15">
      <!-- 2.5 -->
      <g transform="translate(22.81375 120.749368) scale(0.11 -0.11)">
       <use xlink:href="#DejaVuSans-32"/>
       <use xlink:href="#DejaVuSans-2e" transform="translate(63.623047 0)"/>
       <use xlink:href="#DejaVuSans-35" transform="translate(95.410156 0)"/>
      </g>
     </g>
    </g>
    <g id="ytick_7">
     <g id="line2d_29">
      <path d="M 47.307188 66.335983 
L 705.637188 66.335983 
" clip-path="url(#pb4eed4a2bd)" style="fill: none; stroke: #b0b0b0; stroke-opacity: 0.2; stroke-width: 0.6; stroke-linecap: square"/>
     </g>
     <g id="line2d_30">
      <g>
       <use xlink:href="#m295eb98384" x="47.307188" y="66.335983" style="stroke: #000000; stroke-width: 0.8"/>
      </g>
     </g>
     <g id="text_16">
      <!-- 3.0 -->
      <g transform="translate(22.81375 70.515124) scale(0.11 -0.11)">
       <defs>
        <path id="DejaVuSans-33" d="M 2597 2516 
Q 3050 2419 3304 2112 
Q 3559 1806 3559 1356 
Q 3559 666 3084 287 
Q 2609 -91 1734 -91 
Q 1441 -91 1130 -33 
Q 819 25 488 141 
L 488 750 
Q 750 597 1062 519 
Q 1375 441 1716 441 
Q 2309 441 2620 675 
Q 2931 909 2931 1356 
Q 2931 1769 2642 2001 
Q 2353 2234 1838 2234 
L 1294 2234 
L 1294 2753 
L 1863 2753 
Q 2328 2753 2575 2939 
Q 2822 3125 2822 3475 
Q 2822 3834 2567 4026 
Q 2313 4219 1838 4219 
Q 1578 4219 1281 4162 
Q 984 4106 628 3988 
L 628 4550 
Q 988 4650 1302 4700 
Q 1616 4750 1894 4750 
Q 2613 4750 3031 4423 
Q 3450 4097 3450 3541 
Q 3450 3153 3228 2886 
Q 3006 2619 2597 2516 
z
" transform="scale(0.015625)"/>
       </defs>
       <use xlink:href="#DejaVuSans-33"/>
       <use xlink:href="#DejaVuSans-2e" transform="translate(63.623047 0)"/>
       <use xlink:href="#DejaVuSans-30" transform="translate(95.410156 0)"/>
      </g>
     </g>
    </g>
    <g id="text_17">
     <!-- AU mean intensity -->
     <g transform="translate(16.318125 259.314687) rotate(-90) scale(0.12 -0.12)">
      <defs>
       <path id="DejaVuSans-41" d="M 2188 4044 
L 1331 1722 
L 3047 1722 
L 2188 4044 
z
M 1831 4666 
L 2547 4666 
L 4325 0 
L 3669 0 
L 3244 1197 
L 1141 1197 
L 716 0 
L 50 0 
L 1831 4666 
z
" transform="scale(0.015625)"/>
       <path id="DejaVuSans-55" d="M 556 4666 
L 1191 4666 
L 1191 1831 
Q 1191 1081 1462 751 
Q 1734 422 2344 422 
Q 2950 422 3222 751 
Q 3494 1081 3494 1831 
L 3494 4666 
L 4128 4666 
L 4128 1753 
Q 4128 841 3676 375 
Q 3225 -91 2344 -91 
Q 1459 -91 1007 375 
Q 556 841 556 1753 
L 556 4666 
z
" transform="scale(0.015625)"/>
       <path id="DejaVuSans-61" d="M 2194 1759 
Q 1497 1759 1228 1600 
Q 959 1441 959 1056 
Q 959 750 1161 570 
Q 1363 391 1709 391 
Q 2188 391 2477 730 
Q 2766 1069 2766 1631 
L 2766 1759 
L 2194 1759 
z
M 3341 1997 
L 3341 0 
L 2766 0 
L 2766 531 
Q 2569 213 2275 61 
Q 1981 -91 1556 -91 
Q 1019 -91 701 211 
Q 384 513 384 1019 
Q 384 1609 779 1909 
Q 1175 2209 1959 2209 
L 2766 2209 
L 2766 2266 
Q 2766 2663 2505 2880 
Q 2244 3097 1772 3097 
Q 1472 3097 1187 3025 
Q 903 2953 641 2809 
L 641 3341 
Q 956 3463 1253 3523 
Q 1550 3584 1831 3584 
Q 2591 3584 2966 3190 
Q 3341 2797 3341 1997 
z
" transform="scale(0.015625)"/>
       <path id="DejaVuSans-6e" d="M 3513 2113 
L 3513 0 
L 2938 0 
L 2938 2094 
Q 2938 2591 2744 2837 
Q 2550 3084 2163 3084 
Q 1697 3084 1428 2787 
Q 1159 2491 1159 1978 
L 1159 0 
L 581 0 
L 581 3500 
L 1159 3500 
L 1159 2956 
Q 1366 3272 1645 3428 
Q 1925 3584 2291 3584 
Q 2894 3584 3203 3211 
Q 3513 2838 3513 2113 
z
" transform="scale(0.015625)"/>
       <path id="DejaVuSans-74" d="M 1172 4494 
L 1172 3500 
L 2356 3500 
L 2356 3053 
L 1172 3053 
L 1172 1153 
Q 1172 725 1289 603 
Q 1406 481 1766 481 
L 2356 481 
L 2356 0 
L 1766 0 
Q 1100 0 847 248 
Q 594 497 594 1153 
L 594 3053 
L 172 3053 
L 172 3500 
L 594 3500 
L 594 4494 
L 1172 4494 
z
" transform="scale(0.015625)"/>
       <path id="DejaVuSans-79" d="M 2059 -325 
Q 1816 -950 1584 -1140 
Q 1353 -1331 966 -1331 
L 506 -1331 
L 506 -850 
L 844 -850 
Q 1081 -850 1212 -737 
Q 1344 -625 1503 -206 
L 1606 56 
L 191 3500 
L 800 3500 
L 1894 763 
L 2988 3500 
L 3597 3500 
L 2059 -325 
z
" transform="scale(0.015625)"/>
      </defs>
      <use xlink:href="#DejaVuSans-41"/>
      <use xlink:href="#DejaVuSans-55" transform="translate(68.408203 0)"/>
      <use xlink:href="#DejaVuSans-20" transform="translate(141.601562 0)"/>
      <use xlink:href="#DejaVuSans-6d" transform="translate(173.388672 0)"/>
      <use xlink:href="#DejaVuSans-65" transform="translate(270.800781 0)"/>
      <use xlink:href="#DejaVuSans-61" transform="translate(332.324219 0)"/>
      <use xlink:href="#DejaVuSans-6e" transform="translate(393.603516 0)"/>
      <use xlink:href="#DejaVuSans-20" transform="translate(456.982422 0)"/>
      <use xlink:href="#DejaVuSans-69" transform="translate(488.769531 0)"/>
      <use xlink:href="#DejaVuSans-6e" transform="translate(516.552734 0)"/>
      <use xlink:href="#DejaVuSans-74" transform="translate(579.931641 0)"/>
      <use xlink:href="#DejaVuSans-65" transform="translate(619.140625 0)"/>
      <use xlink:href="#DejaVuSans-6e" transform="translate(680.664062 0)"/>
      <use xlink:href="#DejaVuSans-73" transform="translate(744.042969 0)"/>
      <use xlink:href="#DejaVuSans-69" transform="translate(796.142578 0)"/>
      <use xlink:href="#DejaVuSans-74" transform="translate(823.925781 0)"/>
      <use xlink:href="#DejaVuSans-79" transform="translate(863.134766 0)"/>
     </g>
    </g>
   </g>
   <g id="FillBetweenPolyCollection_1">
    <defs>
     <path id="mbad53357df" d="M 47.307188 -161.314722 
L 47.307188 -25.790177 
L 50.772082 -24.270318 
L 54.236977 -23.619903 
L 57.701872 -24.696039 
L 61.166766 -26.354042 
L 64.631661 -26.359732 
L 68.096556 -25.175759 
L 71.561451 -25.081529 
L 75.026345 -24.850719 
L 78.49124 -24.702333 
L 81.956135 -24.553909 
L 85.42103 -23.446789 
L 88.885924 -22.887254 
L 92.350819 -22.940777 
L 95.815714 -23.746042 
L 99.280609 -22.704424 
L 102.745503 -22.592288 
L 106.210398 -22.519862 
L 109.675293 -21.804624 
L 113.140187 -21.444833 
L 116.605082 -21.342388 
L 120.069977 -22.255181 
L 123.534872 -21.393878 
L 126.999766 -21.50058 
L 130.464661 -21.909559 
L 133.929556 -21.039322 
L 137.394451 -20.627709 
L 140.859345 -21.246872 
L 144.32424 -19.775835 
L 147.789135 -19.268496 
L 151.25403 -19.103127 
L 154.718924 -18.161727 
L 158.183819 -18.066027 
L 161.648714 -16.48683 
L 165.113609 -16.457273 
L 168.578503 -18.522473 
L 172.043398 -18.61632 
L 175.508293 -14.545371 
L 178.973187 -17.773631 
L 182.438082 -17.282152 
L 185.902977 -17.346105 
L 189.367872 -16.805067 
L 192.832766 -20.272225 
L 196.297661 -28.437051 
L 199.762556 -30.858646 
L 203.227451 -30.096379 
L 206.692345 -30.623136 
L 210.15724 -28.111976 
L 213.622135 -31.485226 
L 217.08703 -30.883826 
L 220.551924 -28.45796 
L 224.016819 -28.724965 
L 227.481714 -29.8166 
L 230.946609 -30.544156 
L 234.411503 -31.316403 
L 237.876398 -31.812211 
L 241.341293 -28.968316 
L 244.806187 -26.644594 
L 248.271082 -26.840391 
L 251.735977 -29.485121 
L 255.200872 -28.027606 
L 258.665766 -32.238908 
L 262.130661 -32.542026 
L 265.595556 -28.819885 
L 269.060451 -26.753342 
L 272.525345 -24.44163 
L 275.99024 -25.221922 
L 279.455135 -25.844333 
L 282.92003 -29.509733 
L 286.384924 -28.877595 
L 289.849819 -29.688617 
L 293.314714 -28.820009 
L 296.779609 -29.700137 
L 300.244503 -29.421927 
L 303.709398 -28.628223 
L 307.174293 -28.809577 
L 310.639187 -28.683254 
L 314.104082 -28.9638 
L 317.568977 -29.199939 
L 321.033872 -27.424627 
L 324.498766 -25.455925 
L 327.963661 -23.678776 
L 331.428556 -24.736365 
L 334.893451 -26.703315 
L 338.358345 -27.888883 
L 341.82324 -27.304923 
L 345.288135 -25.644287 
L 348.75303 -22.781721 
L 352.217924 -24.054064 
L 355.682819 -25.301858 
L 359.147714 -24.568712 
L 362.612609 -26.589513 
L 366.077503 -26.418896 
L 369.542398 -26.707026 
L 373.007293 -25.523552 
L 376.472188 -25.666278 
L 379.937082 -26.337967 
L 383.401977 -26.342974 
L 386.866872 -26.990854 
L 390.331766 -26.660016 
L 393.796661 -26.880817 
L 397.261556 -28.023261 
L 400.726451 -29.933688 
L 404.191345 -34.808404 
L 407.65624 -34.544146 
L 411.121135 -33.814733 
L 414.58603 -35.241129 
L 418.050924 -35.104705 
L 421.515819 -37.727343 
L 424.980714 -32.873102 
L 428.445609 -31.04165 
L 431.910503 -34.173695 
L 435.375398 -34.388023 
L 438.840293 -35.853737 
L 442.305187 -35.352051 
L 445.770082 -29.894519 
L 449.234977 -33.909997 
L 452.699872 -34.296341 
L 456.164766 -34.027326 
L 459.629661 -35.289451 
L 463.094556 -28.562201 
L 466.559451 -27.544875 
L 470.024345 -32.505083 
L 473.48924 -30.478764 
L 476.954135 -31.118431 
L 480.41903 -32.588459 
L 483.883924 -32.239343 
L 487.348819 -29.45816 
L 490.813714 -29.112934 
L 494.278609 -27.403111 
L 497.743503 -28.288627 
L 501.208398 -29.242628 
L 504.673293 -28.799534 
L 508.138188 -29.755101 
L 511.603082 -27.193843 
L 515.067977 -27.457704 
L 518.532872 -25.819244 
L 521.997766 -24.265271 
L 525.462661 -24.585636 
L 528.927556 -24.712077 
L 532.392451 -24.085687 
L 535.857345 -25.796274 
L 539.32224 -23.894508 
L 542.787135 -21.358329 
L 546.25203 -20.192756 
L 549.716924 -22.642274 
L 553.181819 -22.837603 
L 556.646714 -22.126727 
L 560.111609 -21.352396 
L 563.576503 -20.089098 
L 567.041398 -18.92955 
L 570.506293 -18.645506 
L 573.971188 -22.128459 
L 577.436082 -24.344462 
L 580.900977 -22.573518 
L 584.365872 -22.817735 
L 587.830766 -27.990428 
L 591.295661 -30.440826 
L 594.760556 -35.687933 
L 598.225451 -34.376606 
L 601.690345 -33.957949 
L 605.15524 -33.478602 
L 608.620135 -31.257683 
L 612.08503 -31.168174 
L 615.549924 -33.202368 
L 619.014819 -33.046868 
L 622.479714 -33.707719 
L 625.944609 -30.283972 
L 629.409503 -33.263221 
L 632.874398 -33.092658 
L 636.339293 -34.373001 
L 639.804188 -31.404698 
L 643.269082 -32.492272 
L 646.733977 -29.525254 
L 650.198872 -31.095531 
L 653.663766 -28.088673 
L 657.128661 -29.698647 
L 660.593556 -29.535655 
L 664.058451 -30.140816 
L 667.523345 -26.203141 
L 670.98824 -25.451252 
L 674.453135 -29.951409 
L 677.91803 -25.7315 
L 681.382924 -24.328763 
L 684.847819 -25.955402 
L 688.312714 -27.520479 
L 691.777609 -32.753371 
L 695.242503 -31.254196 
L 698.707398 -30.387427 
L 702.172293 -30.948943 
L 705.637188 -20.218673 
L 705.637188 -117.548545 
L 705.637188 -117.548545 
L 702.172293 -212.821346 
L 698.707398 -219.046464 
L 695.242503 -216.815158 
L 691.777609 -212.510689 
L 688.312714 -220.973199 
L 684.847819 -224.184946 
L 681.382924 -224.339801 
L 677.91803 -220.57291 
L 674.453135 -219.690442 
L 670.98824 -228.516274 
L 667.523345 -228.526601 
L 664.058451 -226.911936 
L 660.593556 -227.809536 
L 657.128661 -218.66347 
L 653.663766 -220.84179 
L 650.198872 -219.042831 
L 646.733977 -221.078863 
L 643.269082 -216.227636 
L 639.804188 -216.154952 
L 636.339293 -214.6315 
L 632.874398 -216.574193 
L 629.409503 -221.382504 
L 625.944609 -227.489843 
L 622.479714 -224.761831 
L 619.014819 -226.941132 
L 615.549924 -223.62177 
L 612.08503 -222.068418 
L 608.620135 -219.020812 
L 605.15524 -219.888398 
L 601.690345 -213.599187 
L 598.225451 -208.417976 
L 594.760556 -207.160387 
L 591.295661 -211.019556 
L 587.830766 -207.734407 
L 584.365872 -205.561666 
L 580.900977 -204.894063 
L 577.436082 -200.894315 
L 573.971188 -197.888691 
L 570.506293 -195.040083 
L 567.041398 -194.593425 
L 563.576503 -189.003168 
L 560.111609 -188.385148 
L 556.646714 -186.809738 
L 553.181819 -188.813741 
L 549.716924 -192.067684 
L 546.25203 -194.825921 
L 542.787135 -195.812359 
L 539.32224 -191.770051 
L 535.857345 -189.737077 
L 532.392451 -188.632767 
L 528.927556 -189.490519 
L 525.462661 -190.096243 
L 521.997766 -191.038955 
L 518.532872 -194.316771 
L 515.067977 -194.829614 
L 511.603082 -195.947111 
L 508.138188 -188.285632 
L 504.673293 -190.932747 
L 501.208398 -192.894302 
L 497.743503 -197.522219 
L 494.278609 -209.920721 
L 490.813714 -220.520416 
L 487.348819 -234.323588 
L 483.883924 -238.636941 
L 480.41903 -226.473002 
L 476.954135 -211.329377 
L 473.48924 -208.833573 
L 470.024345 -205.546401 
L 466.559451 -214.062057 
L 463.094556 -212.45058 
L 459.629661 -200.088395 
L 456.164766 -198.696252 
L 452.699872 -199.188174 
L 449.234977 -198.707331 
L 445.770082 -199.31536 
L 442.305187 -189.598386 
L 438.840293 -188.352797 
L 435.375398 -190.210608 
L 431.910503 -188.122775 
L 428.445609 -195.781522 
L 424.980714 -192.956301 
L 421.515819 -185.752618 
L 418.050924 -194.564704 
L 414.58603 -196.758675 
L 411.121135 -201.445696 
L 407.65624 -199.764444 
L 404.191345 -199.939644 
L 400.726451 -209.10425 
L 397.261556 -219.17971 
L 393.796661 -212.097735 
L 390.331766 -203.441659 
L 386.866872 -200.09509 
L 383.401977 -201.861631 
L 379.937082 -204.390604 
L 376.472188 -206.247925 
L 373.007293 -202.332295 
L 369.542398 -198.433133 
L 366.077503 -192.503063 
L 362.612609 -188.400946 
L 359.147714 -189.982978 
L 355.682819 -189.067464 
L 352.217924 -192.758443 
L 348.75303 -189.29281 
L 345.288135 -185.372684 
L 341.82324 -185.94151 
L 338.358345 -185.62378 
L 334.893451 -188.587625 
L 331.428556 -193.877799 
L 327.963661 -197.850304 
L 324.498766 -197.72637 
L 321.033872 -192.421546 
L 317.568977 -183.44412 
L 314.104082 -181.53776 
L 310.639187 -182.214577 
L 307.174293 -183.771725 
L 303.709398 -186.517513 
L 300.244503 -188.834546 
L 296.779609 -190.975509 
L 293.314714 -197.159289 
L 289.849819 -201.615033 
L 286.384924 -204.574539 
L 282.92003 -201.638869 
L 279.455135 -201.267303 
L 275.99024 -201.396299 
L 272.525345 -196.52192 
L 269.060451 -192.808055 
L 265.595556 -189.625261 
L 262.130661 -184.232916 
L 258.665766 -180.609115 
L 255.200872 -184.902705 
L 251.735977 -185.763497 
L 248.271082 -186.657725 
L 244.806187 -190.256026 
L 241.341293 -183.829503 
L 237.876398 -179.292574 
L 234.411503 -180.72689 
L 230.946609 -185.265267 
L 227.481714 -184.737668 
L 224.016819 -186.433007 
L 220.551924 -189.140931 
L 217.08703 -188.517581 
L 213.622135 -188.909141 
L 210.15724 -192.041961 
L 206.692345 -192.231108 
L 203.227451 -191.956695 
L 199.762556 -192.672231 
L 196.297661 -190.86997 
L 192.832766 -193.02453 
L 189.367872 -192.604411 
L 185.902977 -190.099594 
L 182.438082 -188.581403 
L 178.973187 -187.141113 
L 175.508293 -185.119903 
L 172.043398 -180.148872 
L 168.578503 -180.708567 
L 165.113609 -181.496677 
L 161.648714 -182.43251 
L 158.183819 -184.492513 
L 154.718924 -189.025693 
L 151.25403 -192.37549 
L 147.789135 -190.825797 
L 144.32424 -181.72462 
L 140.859345 -176.140342 
L 137.394451 -175.375705 
L 133.929556 -175.330216 
L 130.464661 -175.772503 
L 126.999766 -174.887166 
L 123.534872 -176.241135 
L 120.069977 -175.120124 
L 116.605082 -174.967532 
L 113.140187 -175.79967 
L 109.675293 -175.196937 
L 106.210398 -175.902942 
L 102.745503 -174.565059 
L 99.280609 -174.174346 
L 95.815714 -172.734119 
L 92.350819 -175.475137 
L 88.885924 -176.269795 
L 85.42103 -175.7687 
L 81.956135 -175.789667 
L 78.49124 -176.004239 
L 75.026345 -175.642657 
L 71.561451 -172.873872 
L 68.096556 -176.325064 
L 64.631661 -180.212948 
L 61.166766 -184.499962 
L 57.701872 -187.148579 
L 54.236977 -186.175554 
L 50.772082 -169.289291 
L 47.307188 -161.314722 
z
" style="stroke: #d3d3d3; stroke-opacity: 0.5"/>
    </defs>
    <g clip-path="url(#pb4eed4a2bd)">
     <use xlink:href="#mbad53357df" x="0" y="424.5775" style="fill: #d3d3d3; fill-opacity: 0.5; stroke: #d3d3d3; stroke-opacity: 0.5"/>
    </g>
   </g>
   <g id="FillBetweenPolyCollection_2">
    <defs>
     <path id="m05e15d7888" d="M 47.307188 -127.433585 
L 47.307188 -59.671313 
L 50.772082 -60.525062 
L 54.236977 -64.258816 
L 57.701872 -65.309174 
L 61.166766 -65.890522 
L 64.631661 -64.823036 
L 68.096556 -62.963085 
L 71.561451 -62.029615 
L 75.026345 -62.548703 
L 78.49124 -62.52781 
L 81.956135 -62.362848 
L 85.42103 -61.527267 
L 88.885924 -61.232889 
L 92.350819 -61.074367 
L 95.815714 -60.993061 
L 99.280609 -60.571905 
L 102.745503 -60.585481 
L 106.210398 -60.865632 
L 109.675293 -60.152703 
L 113.140187 -60.033542 
L 116.605082 -59.748674 
L 120.069977 -60.471417 
L 123.534872 -60.105693 
L 126.999766 -59.847226 
L 130.464661 -60.375295 
L 133.929556 -59.612046 
L 137.394451 -59.314708 
L 140.859345 -59.97024 
L 144.32424 -60.263031 
L 147.789135 -62.157821 
L 151.25403 -62.421218 
L 154.718924 -60.877718 
L 158.183819 -59.672649 
L 161.648714 -57.97325 
L 165.113609 -57.717124 
L 168.578503 -59.068996 
L 172.043398 -58.999458 
L 175.508293 -57.189004 
L 178.973187 -60.115502 
L 182.438082 -60.106964 
L 185.902977 -60.534477 
L 189.367872 -60.754903 
L 192.832766 -63.460301 
L 196.297661 -69.045281 
L 199.762556 -71.312043 
L 203.227451 -70.561458 
L 206.692345 -71.025129 
L 210.15724 -69.094472 
L 213.622135 -70.841205 
L 217.08703 -70.292265 
L 220.551924 -68.628703 
L 224.016819 -68.151976 
L 227.481714 -68.546867 
L 230.946609 -69.224434 
L 234.411503 -68.669025 
L 237.876398 -68.682302 
L 241.341293 -67.683613 
L 244.806187 -67.547452 
L 248.271082 -66.794724 
L 251.735977 -68.554715 
L 255.200872 -67.24638 
L 258.665766 -69.33146 
L 262.130661 -70.464749 
L 265.595556 -69.021229 
L 269.060451 -68.26702 
L 272.525345 -67.461703 
L 275.99024 -69.265516 
L 279.455135 -69.700075 
L 282.92003 -72.542017 
L 286.384924 -72.801831 
L 289.849819 -72.670221 
L 293.314714 -70.904829 
L 296.779609 -70.01898 
L 300.244503 -69.275081 
L 303.709398 -68.100545 
L 307.174293 -67.550114 
L 310.639187 -67.066085 
L 314.104082 -67.10729 
L 317.568977 -67.760985 
L 321.033872 -68.673857 
L 324.498766 -68.523536 
L 327.963661 -67.221658 
L 331.428556 -67.021723 
L 334.893451 -67.174392 
L 338.358345 -67.322607 
L 341.82324 -66.96407 
L 345.288135 -65.576386 
L 348.75303 -64.409493 
L 352.217924 -66.230159 
L 355.682819 -66.24326 
L 359.147714 -65.922279 
L 362.612609 -67.042371 
L 366.077503 -67.939938 
L 369.542398 -69.638552 
L 373.007293 -69.725738 
L 376.472188 -70.811689 
L 379.937082 -70.851127 
L 383.401977 -70.222638 
L 386.866872 -70.266913 
L 390.331766 -70.855427 
L 393.796661 -73.185047 
L 397.261556 -75.812373 
L 400.726451 -74.726329 
L 404.191345 -76.091214 
L 407.65624 -75.849221 
L 411.121135 -75.722474 
L 414.58603 -75.620516 
L 418.050924 -74.969705 
L 421.515819 -74.733662 
L 424.980714 -72.893902 
L 428.445609 -72.226618 
L 431.910503 -72.660965 
L 435.375398 -73.343669 
L 438.840293 -73.978502 
L 442.305187 -73.913635 
L 445.770082 -72.24973 
L 449.234977 -75.10933 
L 452.699872 -75.519299 
L 456.164766 -75.194558 
L 459.629661 -76.489187 
L 463.094556 -74.534296 
L 466.559451 -74.17417 
L 470.024345 -75.765412 
L 473.48924 -75.067466 
L 476.954135 -76.171168 
L 480.41903 -81.059595 
L 483.883924 -83.838743 
L 487.348819 -80.674517 
L 490.813714 -76.964804 
L 494.278609 -73.032514 
L 497.743503 -70.597025 
L 501.208398 -70.155547 
L 504.673293 -69.332837 
L 508.138188 -69.387734 
L 511.603082 -69.38216 
L 515.067977 -69.300681 
L 518.532872 -67.943625 
L 521.997766 -65.958692 
L 525.462661 -65.963288 
L 528.927556 -65.906688 
L 532.392451 -65.222457 
L 535.857345 -66.781475 
L 539.32224 -65.863394 
L 542.787135 -64.971837 
L 546.25203 -63.851047 
L 549.716924 -64.998627 
L 553.181819 -64.331638 
L 556.646714 -63.29748 
L 560.111609 -63.110584 
L 563.576503 -62.317615 
L 567.041398 -62.845519 
L 570.506293 -62.74415 
L 573.971188 -66.068517 
L 577.436082 -68.481925 
L 580.900977 -68.153654 
L 584.365872 -68.503718 
L 587.830766 -72.926423 
L 591.295661 -75.585509 
L 594.760556 -78.556047 
L 598.225451 -77.886948 
L 601.690345 -78.868258 
L 605.15524 -80.081051 
L 608.620135 -78.198465 
L 612.08503 -78.893235 
L 615.549924 -80.807219 
L 619.014819 -81.520434 
L 622.479714 -81.471247 
L 625.944609 -79.58544 
L 629.409503 -80.293042 
L 632.874398 -78.963042 
L 636.339293 -79.437626 
L 639.804188 -77.592262 
L 643.269082 -78.426113 
L 646.733977 -77.413656 
L 650.198872 -78.082356 
L 653.663766 -76.276952 
L 657.128661 -76.939853 
L 660.593556 -79.104125 
L 664.058451 -79.333596 
L 667.523345 -76.784006 
L 670.98824 -76.217507 
L 674.453135 -77.386168 
L 677.91803 -74.441853 
L 681.382924 -74.331522 
L 684.847819 -75.512788 
L 688.312714 -75.883659 
L 691.777609 -77.692701 
L 695.242503 -77.644437 
L 698.707398 -77.552186 
L 702.172293 -76.417043 
L 705.637188 -44.551141 
L 705.637188 -93.216077 
L 705.637188 -93.216077 
L 702.172293 -167.353245 
L 698.707398 -171.881705 
L 695.242503 -170.424918 
L 691.777609 -167.571359 
L 688.312714 -172.610019 
L 684.847819 -174.62756 
L 681.382924 -174.337041 
L 677.91803 -171.862557 
L 674.453135 -172.255684 
L 670.98824 -177.750019 
L 667.523345 -177.945736 
L 664.058451 -177.719156 
L 660.593556 -178.241065 
L 657.128661 -171.422264 
L 653.663766 -172.65351 
L 650.198872 -172.056006 
L 646.733977 -173.190461 
L 643.269082 -170.293795 
L 639.804188 -169.967389 
L 636.339293 -169.566875 
L 632.874398 -170.703809 
L 629.409503 -174.352683 
L 625.944609 -178.188375 
L 622.479714 -176.998303 
L 619.014819 -178.467566 
L 615.549924 -176.01692 
L 612.08503 -174.343357 
L 608.620135 -172.08003 
L 605.15524 -173.285949 
L 601.690345 -168.688877 
L 598.225451 -164.907633 
L 594.760556 -164.292273 
L 591.295661 -165.874874 
L 587.830766 -162.798412 
L 584.365872 -159.875683 
L 580.900977 -159.313927 
L 577.436082 -156.756851 
L 573.971188 -153.948633 
L 570.506293 -150.941439 
L 567.041398 -150.677456 
L 563.576503 -146.774651 
L 560.111609 -146.62696 
L 556.646714 -145.638985 
L 553.181819 -147.319706 
L 549.716924 -149.711331 
L 546.25203 -151.16763 
L 542.787135 -152.198852 
L 539.32224 -149.801165 
L 535.857345 -148.751876 
L 532.392451 -147.495997 
L 528.927556 -148.295909 
L 525.462661 -148.718592 
L 521.997766 -149.345534 
L 518.532872 -152.192389 
L 515.067977 -152.986636 
L 511.603082 -153.758794 
L 508.138188 -148.652999 
L 504.673293 -150.399444 
L 501.208398 -151.981383 
L 497.743503 -155.213821 
L 494.278609 -164.291319 
L 490.813714 -172.668545 
L 487.348819 -183.107231 
L 483.883924 -187.037542 
L 480.41903 -178.001867 
L 476.954135 -166.276641 
L 473.48924 -164.244871 
L 470.024345 -162.286071 
L 466.559451 -167.432761 
L 463.094556 -166.478485 
L 459.629661 -158.888659 
L 456.164766 -157.529021 
L 452.699872 -157.965216 
L 449.234977 -157.507997 
L 445.770082 -156.96015 
L 442.305187 -151.036802 
L 438.840293 -150.228032 
L 435.375398 -151.254962 
L 431.910503 -149.635505 
L 428.445609 -154.596554 
L 424.980714 -152.935501 
L 421.515819 -148.7463 
L 418.050924 -154.699704 
L 414.58603 -156.379288 
L 411.121135 -159.537956 
L 407.65624 -158.45937 
L 404.191345 -158.656834 
L 400.726451 -164.311609 
L 397.261556 -171.390598 
L 393.796661 -165.793506 
L 390.331766 -159.246249 
L 386.866872 -156.819031 
L 383.401977 -157.981967 
L 379.937082 -159.877445 
L 376.472188 -161.102513 
L 373.007293 -158.130109 
L 369.542398 -155.501606 
L 366.077503 -150.982021 
L 362.612609 -147.948088 
L 359.147714 -148.629412 
L 355.682819 -148.126062 
L 352.217924 -150.582348 
L 348.75303 -147.665037 
L 345.288135 -145.440585 
L 341.82324 -146.282363 
L 338.358345 -146.190056 
L 334.893451 -148.116547 
L 331.428556 -151.59244 
L 327.963661 -154.307422 
L 324.498766 -154.658759 
L 321.033872 -151.172316 
L 317.568977 -144.883075 
L 314.104082 -143.39427 
L 310.639187 -143.831746 
L 307.174293 -145.031188 
L 303.709398 -147.045191 
L 300.244503 -148.981391 
L 296.779609 -150.656666 
L 293.314714 -155.074469 
L 289.849819 -158.633429 
L 286.384924 -160.650303 
L 282.92003 -158.606585 
L 279.455135 -157.41156 
L 275.99024 -157.352705 
L 272.525345 -153.501848 
L 269.060451 -151.294376 
L 265.595556 -149.423917 
L 262.130661 -146.310194 
L 258.665766 -143.516564 
L 255.200872 -145.68393 
L 251.735977 -146.693903 
L 248.271082 -146.703391 
L 244.806187 -149.353168 
L 241.341293 -145.114206 
L 237.876398 -142.422483 
L 234.411503 -143.374268 
L 230.946609 -146.584989 
L 227.481714 -146.007401 
L 224.016819 -147.005997 
L 220.551924 -148.970188 
L 217.08703 -149.109143 
L 213.622135 -149.553163 
L 210.15724 -151.059465 
L 206.692345 -151.829115 
L 203.227451 -151.491616 
L 199.762556 -152.218835 
L 196.297661 -150.26174 
L 192.832766 -149.836454 
L 189.367872 -148.654575 
L 185.902977 -146.911222 
L 182.438082 -145.75659 
L 178.973187 -144.799242 
L 175.508293 -142.47627 
L 172.043398 -139.765734 
L 168.578503 -140.162043 
L 165.113609 -140.236826 
L 161.648714 -140.94609 
L 158.183819 -142.885892 
L 154.718924 -146.309701 
L 151.25403 -149.0574 
L 147.789135 -147.936472 
L 144.32424 -141.237423 
L 140.859345 -137.416975 
L 137.394451 -136.688706 
L 133.929556 -136.757492 
L 130.464661 -137.306767 
L 126.999766 -136.54052 
L 123.534872 -137.529321 
L 120.069977 -136.903888 
L 116.605082 -136.561246 
L 113.140187 -137.210961 
L 109.675293 -136.848859 
L 106.210398 -137.557172 
L 102.745503 -136.571866 
L 99.280609 -136.306865 
L 95.815714 -135.487099 
L 92.350819 -137.341547 
L 88.885924 -137.92416 
L 85.42103 -137.688222 
L 81.956135 -137.980727 
L 78.49124 -138.178762 
L 75.026345 -137.944672 
L 71.561451 -135.925786 
L 68.096556 -138.537738 
L 64.631661 -141.749644 
L 61.166766 -144.963482 
L 57.701872 -146.535444 
L 54.236977 -145.536642 
L 50.772082 -133.034548 
L 47.307188 -127.433585 
z
" style="stroke: #808080; stroke-opacity: 0.7"/>
    </defs>
    <g clip-path="url(#pb4eed4a2bd)">
     <use xlink:href="#m05e15d7888" x="0" y="424.5775" style="fill: #808080; fill-opacity: 0.7; stroke: #808080; stroke-opacity: 0.7"/>
    </g>
   </g>
   <g id="line2d_31">
    <path d="M 47.307188 324.420343 
L 50.772082 314.707622 
L 57.701872 312.900559 
L 61.166766 330.070815 
L 64.631661 323.897362 
L 68.096556 298.657802 
L 71.561451 300.295848 
L 75.026345 313.180689 
L 78.49124 328.021091 
L 81.956135 304.95631 
L 85.42103 294.315011 
L 88.885924 314.882192 
L 92.350819 300.568584 
L 95.815714 318.666518 
L 99.280609 346.752046 
L 102.745503 328.845421 
L 106.210398 319.289661 
L 109.675293 315.051104 
L 113.140187 314.187031 
L 116.605082 311.85757 
L 120.069977 319.543079 
L 123.534872 309.091001 
L 126.999766 319.915272 
L 130.464661 329.203507 
L 133.929556 326.47735 
L 137.394451 323.566553 
L 140.859345 326.228158 
L 144.32424 319.542346 
L 147.789135 308.590128 
L 151.25403 307.43941 
L 154.718924 324.188817 
L 158.183819 331.367444 
L 161.648714 330.756301 
L 165.113609 315.795372 
L 168.578503 314.013502 
L 172.043398 319.13034 
L 175.508293 319.621644 
L 178.973187 317.890463 
L 182.438082 318.907577 
L 185.902977 311.069161 
L 189.367872 315.456408 
L 192.832766 334.330045 
L 196.297661 321.601512 
L 199.762556 311.294021 
L 203.227451 308.944725 
L 206.692345 274.075461 
L 210.15724 315.795527 
L 213.622135 284.76116 
L 217.08703 311.066251 
L 220.551924 299.816153 
L 224.016819 311.745352 
L 227.481714 316.552476 
L 230.946609 322.216541 
L 234.411503 345.465838 
L 237.876398 340.927861 
L 241.341293 337.982606 
L 244.806187 317.916792 
L 248.271082 341.268645 
L 251.735977 319.386194 
L 255.200872 332.156393 
L 258.665766 320.672238 
L 262.130661 333.628044 
L 265.595556 315.634061 
L 269.060451 323.679169 
L 272.525345 320.125818 
L 275.99024 319.927577 
L 279.455135 325.77091 
L 282.92003 249.02062 
L 286.384924 286.11456 
L 289.849819 316.826642 
L 293.314714 329.698565 
L 296.779609 316.814936 
L 300.244503 314.477667 
L 303.709398 320.927546 
L 307.174293 320.906619 
L 310.639187 322.622371 
L 314.104082 323.095876 
L 317.568977 330.367842 
L 321.033872 323.092292 
L 324.498766 320.367955 
L 327.963661 335.842637 
L 331.428556 330.661909 
L 334.893451 330.96567 
L 338.358345 340.56723 
L 341.82324 329.441977 
L 345.288135 323.996686 
L 348.75303 321.682295 
L 352.217924 324.63 
L 355.682819 316.286488 
L 359.147714 315.37168 
L 362.612609 317.498391 
L 366.077503 331.076986 
L 369.542398 327.110392 
L 373.007293 339.359423 
L 376.472188 328.547016 
L 379.937082 331.312331 
L 383.401977 331.900965 
L 386.866872 322.687957 
L 390.331766 328.663762 
L 393.796661 322.519595 
L 397.261556 306.610001 
L 400.726451 305.405265 
L 404.191345 287.69023 
L 407.65624 332.311049 
L 411.121135 349.442136 
L 414.58603 346.064646 
L 418.050924 319.280906 
L 421.515819 305.381906 
L 424.980714 344.2937 
L 428.445609 310.617679 
L 431.910503 280.015499 
L 435.375398 330.685462 
L 438.840293 307.377965 
L 442.305187 322.663911 
L 445.770082 327.173909 
L 449.234977 320.063888 
L 452.699872 310.538694 
L 456.164766 292.414064 
L 459.629661 303.529065 
L 463.094556 329.265851 
L 466.559451 313.043444 
L 470.024345 279.633941 
L 473.48924 264.640452 
L 476.954135 277.307491 
L 480.41903 286.650153 
L 483.883924 272.560524 
L 487.348819 295.649466 
L 490.813714 306.476998 
L 494.278609 332.759232 
L 497.743503 331.986462 
L 501.208398 337.433552 
L 504.673293 325.970473 
L 508.138188 329.881576 
L 511.603082 344.458925 
L 515.067977 328.889303 
L 518.532872 330.762636 
L 521.997766 336.258898 
L 525.462661 310.389912 
L 528.927556 312.179583 
L 532.392451 321.019759 
L 535.857345 323.363025 
L 539.32224 342.963424 
L 542.787135 308.003585 
L 546.25203 322.579911 
L 549.716924 317.453366 
L 553.181819 316.556496 
L 556.646714 312.61641 
L 560.111609 307.350988 
L 563.576503 324.657024 
L 567.041398 320.110431 
L 570.506293 332.034029 
L 573.971188 341.987116 
L 577.436082 332.227925 
L 580.900977 320.612873 
L 584.365872 302.541926 
L 587.830766 312.205261 
L 591.295661 310.102128 
L 594.760556 313.586597 
L 598.225451 318.018135 
L 601.690345 316.332616 
L 605.15524 332.983283 
L 608.620135 295.814349 
L 612.08503 312.768753 
L 615.549924 309.036435 
L 619.014819 316.673095 
L 622.479714 293.394653 
L 625.944609 306.682117 
L 629.409503 311.297751 
L 632.874398 333.610255 
L 636.339293 305.921112 
L 639.804188 292.273498 
L 643.269082 308.350825 
L 646.733977 320.026936 
L 650.198872 308.294697 
L 653.663766 301.217236 
L 657.128661 307.572738 
L 660.593556 304.550312 
L 664.058451 288.231962 
L 667.523345 226.998422 
L 670.98824 253.666499 
L 674.453135 260.245233 
L 677.91803 279.81415 
L 681.382924 247.712766 
L 684.847819 275.798926 
L 688.312714 274.211353 
L 691.777609 281.794247 
L 695.242503 293.694264 
L 698.707398 297.260984 
L 702.172293 259.941804 
L 705.637188 258.999091 
L 705.637188 258.999091 
" clip-path="url(#pb4eed4a2bd)" style="fill: none; stroke: #ff8c00; stroke-width: 2.3; stroke-linecap: square"/>
   </g>
   <g id="line2d_32">
    <path d="M 275.99024 384.117812 
L 275.99024 23.837812 
" clip-path="url(#pb4eed4a2bd)" style="fill: none; stroke-dasharray: 5.55,2.4; stroke-dashoffset: 0; stroke: #808080; stroke-width: 1.5"/>
   </g>
   <g id="line2d_33">
    <path d="M 473.48924 384.117812 
L 473.48924 23.837812 
" clip-path="url(#pb4eed4a2bd)" style="fill: none; stroke-dasharray: 5.55,2.4; stroke-dashoffset: 0; stroke: #808080; stroke-width: 1.5"/>
   </g>
   <g id="patch_3">
    <path d="M 47.307188 384.117812 
L 47.307188 23.837812 
" style="fill: none; stroke: #000000; stroke-width: 0.8; stroke-linejoin: miter; stroke-linecap: square"/>
   </g>
   <g id="patch_4">
    <path d="M 705.637188 384.117812 
L 705.637188 23.837812 
" style="fill: none; stroke: #000000; stroke-width: 0.8; stroke-linejoin: miter; stroke-linecap: square"/>
   </g>
   <g id="patch_5">
    <path d="M 47.307188 384.117812 
L 705.637188 384.117812 
" style="fill: none; stroke: #000000; stroke-width: 0.8; stroke-linejoin: miter; stroke-linecap: square"/>
   </g>
   <g id="patch_6">
    <path d="M 47.307188 23.837812 
L 705.637188 23.837812 
" style="fill: none; stroke: #000000; stroke-width: 0.8; stroke-linejoin: miter; stroke-linecap: square"/>
   </g>
   <g id="text_18">
    <!-- Facial trace: Control group -->
    <g transform="translate(284.040469 17.837812) scale(0.14 -0.14)">
     <defs>
      <path id="DejaVuSans-46" d="M 628 4666 
L 3309 4666 
L 3309 4134 
L 1259 4134 
L 1259 2759 
L 3109 2759 
L 3109 2228 
L 1259 2228 
L 1259 0 
L 628 0 
L 628 4666 
z
" transform="scale(0.015625)"/>
      <path id="DejaVuSans-63" d="M 3122 3366 
L 3122 2828 
Q 2878 2963 2633 3030 
Q 2388 3097 2138 3097 
Q 1578 3097 1268 2742 
Q 959 2388 959 1747 
Q 959 1106 1268 751 
Q 1578 397 2138 397 
Q 2388 397 2633 464 
Q 2878 531 3122 666 
L 3122 134 
Q 2881 22 2623 -34 
Q 2366 -91 2075 -91 
Q 1284 -91 818 406 
Q 353 903 353 1747 
Q 353 2603 823 3093 
Q 1294 3584 2113 3584 
Q 2378 3584 2631 3529 
Q 2884 3475 3122 3366 
z
" transform="scale(0.015625)"/>
      <path id="DejaVuSans-6c" d="M 603 4863 
L 1178 4863 
L 1178 0 
L 603 0 
L 603 4863 
z
" transform="scale(0.015625)"/>
      <path id="DejaVuSans-72" d="M 2631 2963 
Q 2534 3019 2420 3045 
Q 2306 3072 2169 3072 
Q 1681 3072 1420 2755 
Q 1159 2438 1159 1844 
L 1159 0 
L 581 0 
L 581 3500 
L 1159 3500 
L 1159 2956 
Q 1341 3275 1631 3429 
Q 1922 3584 2338 3584 
Q 2397 3584 2469 3576 
Q 2541 3569 2628 3553 
L 2631 2963 
z
" transform="scale(0.015625)"/>
      <path id="DejaVuSans-3a" d="M 750 794 
L 1409 794 
L 1409 0 
L 750 0 
L 750 794 
z
M 750 3309 
L 1409 3309 
L 1409 2516 
L 750 2516 
L 750 3309 
z
" transform="scale(0.015625)"/>
      <path id="DejaVuSans-43" d="M 4122 4306 
L 4122 3641 
Q 3803 3938 3442 4084 
Q 3081 4231 2675 4231 
Q 1875 4231 1450 3742 
Q 1025 3253 1025 2328 
Q 1025 1406 1450 917 
Q 1875 428 2675 428 
Q 3081 428 3442 575 
Q 3803 722 4122 1019 
L 4122 359 
Q 3791 134 3420 21 
Q 3050 -91 2638 -91 
Q 1578 -91 968 557 
Q 359 1206 359 2328 
Q 359 3453 968 4101 
Q 1578 4750 2638 4750 
Q 3056 4750 3426 4639 
Q 3797 4528 4122 4306 
z
" transform="scale(0.015625)"/>
      <path id="DejaVuSans-6f" d="M 1959 3097 
Q 1497 3097 1228 2736 
Q 959 2375 959 1747 
Q 959 1119 1226 758 
Q 1494 397 1959 397 
Q 2419 397 2687 759 
Q 2956 1122 2956 1747 
Q 2956 2369 2687 2733 
Q 2419 3097 1959 3097 
z
M 1959 3584 
Q 2709 3584 3137 3096 
Q 3566 2609 3566 1747 
Q 3566 888 3137 398 
Q 2709 -91 1959 -91 
Q 1206 -91 779 398 
Q 353 888 353 1747 
Q 353 2609 779 3096 
Q 1206 3584 1959 3584 
z
" transform="scale(0.015625)"/>
      <path id="DejaVuSans-67" d="M 2906 1791 
Q 2906 2416 2648 2759 
Q 2391 3103 1925 3103 
Q 1463 3103 1205 2759 
Q 947 2416 947 1791 
Q 947 1169 1205 825 
Q 1463 481 1925 481 
Q 2391 481 2648 825 
Q 2906 1169 2906 1791 
z
M 3481 434 
Q 3481 -459 3084 -895 
Q 2688 -1331 1869 -1331 
Q 1566 -1331 1297 -1286 
Q 1028 -1241 775 -1147 
L 775 -588 
Q 1028 -725 1275 -790 
Q 1522 -856 1778 -856 
Q 2344 -856 2625 -561 
Q 2906 -266 2906 331 
L 2906 616 
Q 2728 306 2450 153 
Q 2172 0 1784 0 
Q 1141 0 747 490 
Q 353 981 353 1791 
Q 353 2603 747 3093 
Q 1141 3584 1784 3584 
Q 2172 3584 2450 3431 
Q 2728 3278 2906 2969 
L 2906 3500 
L 3481 3500 
L 3481 434 
z
" transform="scale(0.015625)"/>
      <path id="DejaVuSans-75" d="M 544 1381 
L 544 3500 
L 1119 3500 
L 1119 1403 
Q 1119 906 1312 657 
Q 1506 409 1894 409 
Q 2359 409 2629 706 
Q 2900 1003 2900 1516 
L 2900 3500 
L 3475 3500 
L 3475 0 
L 2900 0 
L 2900 538 
Q 2691 219 2414 64 
Q 2138 -91 1772 -91 
Q 1169 -91 856 284 
Q 544 659 544 1381 
z
M 1991 3584 
L 1991 3584 
z
" transform="scale(0.015625)"/>
      <path id="DejaVuSans-70" d="M 1159 525 
L 1159 -1331 
L 581 -1331 
L 581 3500 
L 1159 3500 
L 1159 2969 
Q 1341 3281 1617 3432 
Q 1894 3584 2278 3584 
Q 2916 3584 3314 3078 
Q 3713 2572 3713 1747 
Q 3713 922 3314 415 
Q 2916 -91 2278 -91 
Q 1894 -91 1617 61 
Q 1341 213 1159 525 
z
M 3116 1747 
Q 3116 2381 2855 2742 
Q 2594 3103 2138 3103 
Q 1681 3103 1420 2742 
Q 1159 2381 1159 1747 
Q 1159 1113 1420 752 
Q 1681 391 2138 391 
Q 2594 391 2855 752 
Q 3116 1113 3116 1747 
z
" transform="scale(0.015625)"/>
     </defs>
     <use xlink:href="#DejaVuSans-46"/>
     <use xlink:href="#DejaVuSans-61" transform="translate(48.394531 0)"/>
     <use xlink:href="#DejaVuSans-63" transform="translate(109.673828 0)"/>
     <use xlink:href="#DejaVuSans-69" transform="translate(164.654297 0)"/>
     <use xlink:href="#DejaVuSans-61" transform="translate(192.4375 0)"/>
     <use xlink:href="#DejaVuSans-6c" transform="translate(253.716797 0)"/>
     <use xlink:href="#DejaVuSans-20" transform="translate(281.5 0)"/>
     <use xlink:href="#DejaVuSans-74" transform="translate(313.287109 0)"/>
     <use xlink:href="#DejaVuSans-72" transform="translate(352.496094 0)"/>
     <use xlink:href="#DejaVuSans-61" transform="translate(393.609375 0)"/>
     <use xlink:href="#DejaVuSans-63" transform="translate(454.888672 0)"/>
     <use xlink:href="#DejaVuSans-65" transform="translate(509.869141 0)"/>
     <use xlink:href="#DejaVuSans-3a" transform="translate(571.392578 0)"/>
     <use xlink:href="#DejaVuSans-20" transform="translate(605.083984 0)"/>
     <use xlink:href="#DejaVuSans-43" transform="translate(636.871094 0)"/>
     <use xlink:href="#DejaVuSans-6f" transform="translate(706.695312 0)"/>
     <use xlink:href="#DejaVuSans-6e" transform="translate(767.876953 0)"/>
     <use xlink:href="#DejaVuSans-74" transform="translate(831.255859 0)"/>
     <use xlink:href="#DejaVuSans-72" transform="translate(870.464844 0)"/>
     <use xlink:href="#DejaVuSans-6f" transform="translate(909.328125 0)"/>
     <use xlink:href="#DejaVuSans-6c" transform="translate(970.509766 0)"/>
     <use xlink:href="#DejaVuSans-20" transform="translate(998.292969 0)"/>
     <use xlink:href="#DejaVuSans-67" transform="translate(1030.080078 0)"/>
     <use xlink:href="#DejaVuSans-72" transform="translate(1093.556641 0)"/>
     <use xlink:href="#DejaVuSans-6f" transform="translate(1132.419922 0)"/>
     <use xlink:href="#DejaVuSans-75" transform="translate(1193.601562 0)"/>
     <use xlink:href="#DejaVuSans-70" transform="translate(1256.980469 0)"/>
    </g>
   </g>
   <g id="legend_1">
    <g id="patch_7">
     <path d="M 532.639844 42.096094 
L 554.639844 42.096094 
L 554.639844 34.396094 
L 532.639844 34.396094 
z
" style="fill: #d3d3d3; fill-opacity: 0.5; stroke: #d3d3d3; stroke-opacity: 0.5; stroke-linejoin: miter"/>
    </g>
    <g id="text_19">
     <!-- Control group ±2 SD -->
     <g transform="translate(563.439844 42.096094) scale(0.11 -0.11)">
      <defs>
       <path id="DejaVuSans-b1" d="M 2944 4013 
L 2944 2803 
L 4684 2803 
L 4684 2272 
L 2944 2272 
L 2944 1063 
L 2419 1063 
L 2419 2272 
L 678 2272 
L 678 2803 
L 2419 2803 
L 2419 4013 
L 2944 4013 
z
M 678 531 
L 4684 531 
L 4684 0 
L 678 0 
L 678 531 
z
" transform="scale(0.015625)"/>
       <path id="DejaVuSans-53" d="M 3425 4513 
L 3425 3897 
Q 3066 4069 2747 4153 
Q 2428 4238 2131 4238 
Q 1616 4238 1336 4038 
Q 1056 3838 1056 3469 
Q 1056 3159 1242 3001 
Q 1428 2844 1947 2747 
L 2328 2669 
Q 3034 2534 3370 2195 
Q 3706 1856 3706 1288 
Q 3706 609 3251 259 
Q 2797 -91 1919 -91 
Q 1588 -91 1214 -16 
Q 841 59 441 206 
L 441 856 
Q 825 641 1194 531 
Q 1563 422 1919 422 
Q 2459 422 2753 634 
Q 3047 847 3047 1241 
Q 3047 1584 2836 1778 
Q 2625 1972 2144 2069 
L 1759 2144 
Q 1053 2284 737 2584 
Q 422 2884 422 3419 
Q 422 4038 858 4394 
Q 1294 4750 2059 4750 
Q 2388 4750 2728 4690 
Q 3069 4631 3425 4513 
z
" transform="scale(0.015625)"/>
       <path id="DejaVuSans-44" d="M 1259 4147 
L 1259 519 
L 2022 519 
Q 2988 519 3436 956 
Q 3884 1394 3884 2338 
Q 3884 3275 3436 3711 
Q 2988 4147 2022 4147 
L 1259 4147 
z
M 628 4666 
L 1925 4666 
Q 3281 4666 3915 4102 
Q 4550 3538 4550 2338 
Q 4550 1131 3912 565 
Q 3275 0 1925 0 
L 628 0 
L 628 4666 
z
" transform="scale(0.015625)"/>
      </defs>
      <use xlink:href="#DejaVuSans-43"/>
      <use xlink:href="#DejaVuSans-6f" transform="translate(69.824219 0)"/>
      <use xlink:href="#DejaVuSans-6e" transform="translate(131.005859 0)"/>
      <use xlink:href="#DejaVuSans-74" transform="translate(194.384766 0)"/>
      <use xlink:href="#DejaVuSans-72" transform="translate(233.59375 0)"/>
      <use xlink:href="#DejaVuSans-6f" transform="translate(272.457031 0)"/>
      <use xlink:href="#DejaVuSans-6c" transform="translate(333.638672 0)"/>
      <use xlink:href="#DejaVuSans-20" transform="translate(361.421875 0)"/>
      <use xlink:href="#DejaVuSans-67" transform="translate(393.208984 0)"/>
      <use xlink:href="#DejaVuSans-72" transform="translate(456.685547 0)"/>
      <use xlink:href="#DejaVuSans-6f" transform="translate(495.548828 0)"/>
      <use xlink:href="#DejaVuSans-75" transform="translate(556.730469 0)"/>
      <use xlink:href="#DejaVuSans-70" transform="translate(620.109375 0)"/>
      <use xlink:href="#DejaVuSans-20" transform="translate(683.585938 0)"/>
      <use xlink:href="#DejaVuSans-b1" transform="translate(715.373047 0)"/>
      <use xlink:href="#DejaVuSans-32" transform="translate(799.162109 0)"/>
      <use xlink:href="#DejaVuSans-20" transform="translate(862.785156 0)"/>
      <use xlink:href="#DejaVuSans-53" transform="translate(894.572266 0)"/>
      <use xlink:href="#DejaVuSans-44" transform="translate(958.048828 0)"/>
     </g>
    </g>
    <g id="patch_8">
     <path d="M 532.639844 58.242031 
L 554.639844 58.242031 
L 554.639844 50.542031 
L 532.639844 50.542031 
z
" style="fill: #808080; fill-opacity: 0.7; stroke: #808080; stroke-opacity: 0.7; stroke-linejoin: miter"/>
    </g>
    <g id="text_20">
     <!-- Control group ±1 SD -->
     <g transform="translate(563.439844 58.242031) scale(0.11 -0.11)">
      <use xlink:href="#DejaVuSans-43"/>
      <use xlink:href="#DejaVuSans-6f" transform="translate(69.824219 0)"/>
      <use xlink:href="#DejaVuSans-6e" transform="translate(131.005859 0)"/>
      <use xlink:href="#DejaVuSans-74" transform="translate(194.384766 0)"/>
      <use xlink:href="#DejaVuSans-72" transform="translate(233.59375 0)"/>
      <use xlink:href="#DejaVuSans-6f" transform="translate(272.457031 0)"/>
      <use xlink:href="#DejaVuSans-6c" transform="translate(333.638672 0)"/>
      <use xlink:href="#DejaVuSans-20" transform="translate(361.421875 0)"/>
      <use xlink:href="#DejaVuSans-67" transform="translate(393.208984 0)"/>
      <use xlink:href="#DejaVuSans-72" transform="translate(456.685547 0)"/>
      <use xlink:href="#DejaVuSans-6f" transform="translate(495.548828 0)"/>
      <use xlink:href="#DejaVuSans-75" transform="translate(556.730469 0)"/>
      <use xlink:href="#DejaVuSans-70" transform="translate(620.109375 0)"/>
      <use xlink:href="#DejaVuSans-20" transform="translate(683.585938 0)"/>
      <use xlink:href="#DejaVuSans-b1" transform="translate(715.373047 0)"/>
      <use xlink:href="#DejaVuSans-31" transform="translate(799.162109 0)"/>
      <use xlink:href="#DejaVuSans-20" transform="translate(862.785156 0)"/>
      <use xlink:href="#DejaVuSans-53" transform="translate(894.572266 0)"/>
      <use xlink:href="#DejaVuSans-44" transform="translate(958.048828 0)"/>
     </g>
    </g>
    <g id="line2d_34">
     <path d="M 532.639844 70.537969 
L 543.639844 70.537969 
L 554.639844 70.537969 
" style="fill: none; stroke: #ff8c00; stroke-width: 2.3; stroke-linecap: square"/>
    </g>
    <g id="text_21">
     <!-- Control group prototype -->
     <g transform="translate(563.439844 74.387969) scale(0.11 -0.11)">
      <use xlink:href="#DejaVuSans-43"/>
      <use xlink:href="#DejaVuSans-6f" transform="translate(69.824219 0)"/>
      <use xlink:href="#DejaVuSans-6e" transform="translate(131.005859 0)"/>
      <use xlink:href="#DejaVuSans-74" transform="translate(194.384766 0)"/>
      <use xlink:href="#DejaVuSans-72" transform="translate(233.59375 0)"/>
      <use xlink:href="#DejaVuSans-6f" transform="translate(272.457031 0)"/>
      <use xlink:href="#DejaVuSans-6c" transform="translate(333.638672 0)"/>
      <use xlink:href="#DejaVuSans-20" transform="translate(361.421875 0)"/>
      <use xlink:href="#DejaVuSans-67" transform="translate(393.208984 0)"/>
      <use xlink:href="#DejaVuSans-72" transform="translate(456.685547 0)"/>
      <use xlink:href="#DejaVuSans-6f" transform="translate(495.548828 0)"/>
      <use xlink:href="#DejaVuSans-75" transform="translate(556.730469 0)"/>
      <use xlink:href="#DejaVuSans-70" transform="translate(620.109375 0)"/>
      <use xlink:href="#DejaVuSans-20" transform="translate(683.585938 0)"/>
      <use xlink:href="#DejaVuSans-70" transform="translate(715.373047 0)"/>
      <use xlink:href="#DejaVuSans-72" transform="translate(778.849609 0)"/>
      <use xlink:href="#DejaVuSans-6f" transform="translate(817.712891 0)"/>
      <use xlink:href="#DejaVuSans-74" transform="translate(878.894531 0)"/>
      <use xlink:href="#DejaVuSans-6f" transform="translate(918.103516 0)"/>
      <use xlink:href="#DejaVuSans-74" transform="translate(979.285156 0)"/>
      <use xlink:href="#DejaVuSans-79" transform="translate(1018.494141 0)"/>
      <use xlink:href="#DejaVuSans-70" transform="translate(1077.673828 0)"/>
      <use xlink:href="#DejaVuSans-65" transform="translate(1141.150391 0)"/>
     </g>
    </g>
   </g>
  </g>
 </g>
 <defs>
  <clipPath id="pb4eed4a2bd">
   <rect x="47.307188" y="23.837812" width="658.33" height="360.28"/>
  </clipPath>
 </defs>
</svg>
