<?xml version="1.0" encoding="utf-8" standalone="no"?>
<!DOCTYPE svg PUBLIC "-//W3C//DTD SVG 1.1//EN"
  "http://www.w3.org/Graphics/SVG/1.1/DTD/svg11.dtd">
<svg xmlns:xlink="http://www.w3.org/1999/xlink" width="712.837188pt" height="424.5775pt" viewBox="0 0 712.837188 424.5775" xmlns="http://www.w3.org/2000/svg" version="1.1">
 <metadata>
  <rdf:RDF xmlns:dc="http://purl.org/dc/elements/1.1/" xmlns:cc="http://creativecommons.org/ns#" xmlns:rdf="http://www.w3.org/1999/02/22-rdf-syntax-ns#">
   <cc:Work>
    <dc:type rdf:resource="http://purl.org/dc/dcmitype/StillImage"/>
    <dc:date>2026-06-14T19:08:35.690667</dc:date>
    <dc:format>image/svg+xml</dc:format>
    <dc:creator>
     <cc:Agent>
      <dc:title>Matplotlib v3.10.1, https://matplotlib.org/</dc:title>
     </cc:Agent>
    </dc:creator>
   </cc:Work>
  </rdf:RDF>
 </metadata>
 <defs>
  <style type="text/css">*{stroke-linejoin: round; stroke-linecap: butt}</style>
 </defs>
 <g id="figure_1">
  <g id="patch_1">
   <path d="M 0 424.5775 
L 712.837188 424.5775 
L 712.837188 0 
L 0 0 
z
" style="fill: #ffffff"/>
  </g>
  <g id="axes_1">
   <g id="patch_2">
    <path d="M 47.307188 384.117812 
L 705.637188 384.117812 
L 705.637188 23.837812 
L 47.307188 23.837812 
z
" style="fill: #ffffff"/>
   </g>
   <g id="matplotlib.axis_1">
    <g id="xtick_1">
     <g id="line2d_1">
      <path d="M 47.307188 384.117812 
L 47.307188 23.837812 
" clip-path="url(#p65376a5f89)" style="fill: none; stroke: #b0b0b0; stroke-opacity: 0.2; stroke-width: 0.6; stroke-linecap: square"/>
     </g>
     <g id="line2d_2">
      <defs>
       <path id="ma68196175e" d="M 0 0 
L 0 3.5 
" style="stroke: #000000; stroke-width: 0.8"/>
      </defs>
      <g>
       <use xlink:href="#ma68196175e" x="47.307188" y="384.117812" style="stroke: #000000; stroke-width: 0.8"/>
      </g>
     </g>
     <g id="text_1">
      <!-- 0 -->
      <g transform="translate(43.807813 399.476094) scale(0.11 -0.11)">
       <defs>
        <path id="DejaVuSans-30" d="M 2034 4250 
Q 1547 4250 1301 3770 
Q 1056 3291 1056 2328 
Q 1056 1369 1301 889 
Q 1547 409 2034 409 
Q 2525 409 2770 889 
Q 3016 1369 3016 2328 
Q 3016 3291 2770 3770 
Q 2525 4250 2034 4250 
z
M 2034 4750 
Q 2819 4750 3233 4129 
Q 3647 3509 3647 2328 
Q 3647 1150 3233 529 
Q 2819 -91 2034 -91 
Q 1250 -91 836 529 
Q 422 1150 422 2328 
Q 422 3509 836 4129 
Q 1250 4750 2034 4750 
z
" transform="scale(0.015625)"/>
       </defs>
       <use xlink:href="#DejaVuSans-30"/>
      </g>
     </g>
    </g>
    <g id="xtick_2">
     <g id="line2d_3">
      <path d="M 133.929556 384.117812 
L 133.929556 23.837812 
" clip-path="url(#p65376a5f89)" style="fill: none; stroke: #b0b0b0; stroke-opacity: 0.2; stroke-width: 0.6; stroke-linecap: square"/>
     </g>
     <g id="line2d_4">
      <g>
       <use xlink:href="#ma68196175e" x="133.929556" y="384.117812" style="stroke: #000000; stroke-width: 0.8"/>
      </g>
     </g>
     <g id="text_2">
      <!-- 25 -->
      <g transform="translate(126.930806 399.476094) scale(0.11 -0.11)">
       <defs>
        <path id="DejaVuSans-32" d="M 1228 531 
L 3431 531 
L 3431 0 
L 469 0 
L 469 531 
Q 828 903 1448 1529 
Q 2069 2156 2228 2338 
Q 2531 2678 2651 2914 
Q 2772 3150 2772 3378 
Q 2772 3750 2511 3984 
Q 2250 4219 1831 4219 
Q 1534 4219 1204 4116 
Q 875 4013 500 3803 
L 500 4441 
Q 881 4594 1212 4672 
Q 1544 4750 1819 4750 
Q 2544 4750 2975 4387 
Q 3406 4025 3406 3419 
Q 3406 3131 3298 2873 
Q 3191 2616 2906 2266 
Q 2828 2175 2409 1742 
Q 1991 1309 1228 531 
z
" transform="scale(0.015625)"/>
        <path id="DejaVuSans-35" d="M 691 4666 
L 3169 4666 
L 3169 4134 
L 1269 4134 
L 1269 2991 
Q 1406 3038 1543 3061 
Q 1681 3084 1819 3084 
Q 2600 3084 3056 2656 
Q 3513 2228 3513 1497 
Q 3513 744 3044 326 
Q 2575 -91 1722 -91 
Q 1428 -91 1123 -41 
Q 819 9 494 109 
L 494 744 
Q 775 591 1075 516 
Q 1375 441 1709 441 
Q 2250 441 2565 725 
Q 2881 1009 2881 1497 
Q 2881 1984 2565 2268 
Q 2250 2553 1709 2553 
Q 1456 2553 1204 2497 
Q 953 2441 691 2322 
L 691 4666 
z
" transform="scale(0.015625)"/>
       </defs>
       <use xlink:href="#DejaVuSans-32"/>
       <use xlink:href="#DejaVuSans-35" transform="translate(63.623047 0)"/>
      </g>
     </g>
    </g>
    <g id="xtick_3">
     <g id="line2d_5">
      <path d="M 220.551924 384.117812 
L 220.551924 23.837812 
" clip-path="url(#p65376a5f89)" style="fill: none; stroke: #b0b0b0; stroke-opacity: 0.2; stroke-width: 0.6; stroke-linecap: square"/>
     </g>
     <g id="line2d_6">
      <g>
       <use xlink:href="#ma68196175e" x="220.551924" y="384.117812" style="stroke: #000000; stroke-width: 0.8"/>
      </g>
     </g>
     <g id="text_3">
      <!-- 50 -->
      <g transform="translate(213.553174 399.476094) scale(0.11 -0.11)">
       <use xlink:href="#DejaVuSans-35"/>
       <use xlink:href="#DejaVuSans-30" transform="translate(63.623047 0)"/>
      </g>
     </g>
    </g>
    <g id="xtick_4">
     <g id="line2d_7">
      <path d="M 307.174293 384.117812 
L 307.174293 23.837812 
" clip-path="url(#p65376a5f89)" style="fill: none; stroke: #b0b0b0; stroke-opacity: 0.2; stroke-width: 0.6; stroke-linecap: square"/>
     </g>
     <g id="line2d_8">
      <g>
       <use xlink:href="#ma68196175e" x="307.174293" y="384.117812" style="stroke: #000000; stroke-width: 0.8"/>
      </g>
     </g>
     <g id="text_4">
      <!-- 75 -->
      <g transform="translate(300.175543 399.476094) scale(0.11 -0.11)">
       <defs>
        <path id="DejaVuSans-37" d="M 525 4666 
L 3525 4666 
L 3525 4397 
L 1831 0 
L 1172 0 
L 2766 4134 
L 525 4134 
L 525 4666 
z
" transform="scale(0.015625)"/>
       </defs>
       <use xlink:href="#DejaVuSans-37"/>
       <use xlink:href="#DejaVuSans-35" transform="translate(63.623047 0)"/>
      </g>
     </g>
    </g>
    <g id="xtick_5">
     <g id="line2d_9">
      <path d="M 393.796661 384.117812 
L 393.796661 23.837812 
" clip-path="url(#p65376a5f89)" style="fill: none; stroke: #b0b0b0; stroke-opacity: 0.2; stroke-width: 0.6; stroke-linecap: square"/>
     </g>
     <g id="line2d_10">
      <g>
       <use xlink:href="#ma68196175e" x="393.796661" y="384.117812" style="stroke: #000000; stroke-width: 0.8"/>
      </g>
     </g>
     <g id="text_5">
      <!-- 100 -->
      <g transform="translate(383.298536 399.476094) scale(0.11 -0.11)">
       <defs>
        <path id="DejaVuSans-31" d="M 794 531 
L 1825 531 
L 1825 4091 
L 703 3866 
L 703 4441 
L 1819 4666 
L 2450 4666 
L 2450 531 
L 3481 531 
L 3481 0 
L 794 0 
L 794 531 
z
" transform="scale(0.015625)"/>
       </defs>
       <use xlink:href="#DejaVuSans-31"/>
       <use xlink:href="#DejaVuSans-30" transform="translate(63.623047 0)"/>
       <use xlink:href="#DejaVuSans-30" transform="translate(127.246094 0)"/>
      </g>
     </g>
    </g>
    <g id="xtick_6">
     <g id="line2d_11">
      <path d="M 480.41903 384.117812 
L 480.41903 23.837812 
" clip-path="url(#p65376a5f89)" style="fill: none; stroke: #b0b0b0; stroke-opacity: 0.2; stroke-width: 0.6; stroke-linecap: square"/>
     </g>
     <g id="line2d_12">
      <g>
       <use xlink:href="#ma68196175e" x="480.41903" y="384.117812" style="stroke: #000000; stroke-width: 0.8"/>
      </g>
     </g>
     <g id="text_6">
      <!-- 125 -->
      <g transform="translate(469.920905 399.476094) scale(0.11 -0.11)">
       <use xlink:href="#DejaVuSans-31"/>
       <use xlink:href="#DejaVuSans-32" transform="translate(63.623047 0)"/>
       <use xlink:href="#DejaVuSans-35" transform="translate(127.246094 0)"/>
      </g>
     </g>
    </g>
    <g id="xtick_7">
     <g id="line2d_13">
      <path d="M 567.041398 384.117812 
L 567.041398 23.837812 
" clip-path="url(#p65376a5f89)" style="fill: none; stroke: #b0b0b0; stroke-opacity: 0.2; stroke-width: 0.6; stroke-linecap: square"/>
     </g>
     <g id="line2d_14">
      <g>
       <use xlink:href="#ma68196175e" x="567.041398" y="384.117812" style="stroke: #000000; stroke-width: 0.8"/>
      </g>
     </g>
     <g id="text_7">
      <!-- 150 -->
      <g transform="translate(556.543273 399.476094) scale(0.11 -0.11)">
       <use xlink:href="#DejaVuSans-31"/>
       <use xlink:href="#DejaVuSans-35" transform="translate(63.623047 0)"/>
       <use xlink:href="#DejaVuSans-30" transform="translate(127.246094 0)"/>
      </g>
     </g>
    </g>
    <g id="xtick_8">
     <g id="line2d_15">
      <path d="M 653.663766 384.117812 
L 653.663766 23.837812 
" clip-path="url(#p65376a5f89)" style="fill: none; stroke: #b0b0b0; stroke-opacity: 0.2; stroke-width: 0.6; stroke-linecap: square"/>
     </g>
     <g id="line2d_16">
      <g>
       <use xlink:href="#ma68196175e" x="653.663766" y="384.117812" style="stroke: #000000; stroke-width: 0.8"/>
      </g>
     </g>
     <g id="text_8">
      <!-- 175 -->
      <g transform="translate(643.165641 399.476094) scale(0.11 -0.11)">
       <use xlink:href="#DejaVuSans-31"/>
       <use xlink:href="#DejaVuSans-37" transform="translate(63.623047 0)"/>
       <use xlink:href="#DejaVuSans-35" transform="translate(127.246094 0)"/>
      </g>
     </g>
    </g>
    <g id="text_9">
     <!-- Time (s) -->
     <g transform="translate(352.0775 414.881875) scale(0.12 -0.12)">
      <defs>
       <path id="DejaVuSans-54" d="M -19 4666 
L 3928 4666 
L 3928 4134 
L 2272 4134 
L 2272 0 
L 1638 0 
L 1638 4134 
L -19 4134 
L -19 4666 
z
" transform="scale(0.015625)"/>
       <path id="DejaVuSans-69" d="M 603 3500 
L 1178 3500 
L 1178 0 
L 603 0 
L 603 3500 
z
M 603 4863 
L 1178 4863 
L 1178 4134 
L 603 4134 
L 603 4863 
z
" transform="scale(0.015625)"/>
       <path id="DejaVuSans-6d" d="M 3328 2828 
Q 3544 3216 3844 3400 
Q 4144 3584 4550 3584 
Q 5097 3584 5394 3201 
Q 5691 2819 5691 2113 
L 5691 0 
L 5113 0 
L 5113 2094 
Q 5113 2597 4934 2840 
Q 4756 3084 4391 3084 
Q 3944 3084 3684 2787 
Q 3425 2491 3425 1978 
L 3425 0 
L 2847 0 
L 2847 2094 
Q 2847 2600 2669 2842 
Q 2491 3084 2119 3084 
Q 1678 3084 1418 2786 
Q 1159 2488 1159 1978 
L 1159 0 
L 581 0 
L 581 3500 
L 1159 3500 
L 1159 2956 
Q 1356 3278 1631 3431 
Q 1906 3584 2284 3584 
Q 2666 3584 2933 3390 
Q 3200 3197 3328 2828 
z
" transform="scale(0.015625)"/>
       <path id="DejaVuSans-65" d="M 3597 1894 
L 3597 1613 
L 953 1613 
Q 991 1019 1311 708 
Q 1631 397 2203 397 
Q 2534 397 2845 478 
Q 3156 559 3463 722 
L 3463 178 
Q 3153 47 2828 -22 
Q 2503 -91 2169 -91 
Q 1331 -91 842 396 
Q 353 884 353 1716 
Q 353 2575 817 3079 
Q 1281 3584 2069 3584 
Q 2775 3584 3186 3129 
Q 3597 2675 3597 1894 
z
M 3022 2063 
Q 3016 2534 2758 2815 
Q 2500 3097 2075 3097 
Q 1594 3097 1305 2825 
Q 1016 2553 972 2059 
L 3022 2063 
z
" transform="scale(0.015625)"/>
       <path id="DejaVuSans-20" transform="scale(0.015625)"/>
       <path id="DejaVuSans-28" d="M 1984 4856 
Q 1566 4138 1362 3434 
Q 1159 2731 1159 2009 
Q 1159 1288 1364 580 
Q 1569 -128 1984 -844 
L 1484 -844 
Q 1016 -109 783 600 
Q 550 1309 550 2009 
Q 550 2706 781 3412 
Q 1013 4119 1484 4856 
L 1984 4856 
z
" transform="scale(0.015625)"/>
       <path id="DejaVuSans-73" d="M 2834 3397 
L 2834 2853 
Q 2591 2978 2328 3040 
Q 2066 3103 1784 3103 
Q 1356 3103 1142 2972 
Q 928 2841 928 2578 
Q 928 2378 1081 2264 
Q 1234 2150 1697 2047 
L 1894 2003 
Q 2506 1872 2764 1633 
Q 3022 1394 3022 966 
Q 3022 478 2636 193 
Q 2250 -91 1575 -91 
Q 1294 -91 989 -36 
Q 684 19 347 128 
L 347 722 
Q 666 556 975 473 
Q 1284 391 1588 391 
Q 1994 391 2212 530 
Q 2431 669 2431 922 
Q 2431 1156 2273 1281 
Q 2116 1406 1581 1522 
L 1381 1569 
Q 847 1681 609 1914 
Q 372 2147 372 2553 
Q 372 3047 722 3315 
Q 1072 3584 1716 3584 
Q 2034 3584 2315 3537 
Q 2597 3491 2834 3397 
z
" transform="scale(0.015625)"/>
       <path id="DejaVuSans-29" d="M 513 4856 
L 1013 4856 
Q 1481 4119 1714 3412 
Q 1947 2706 1947 2009 
Q 1947 1309 1714 600 
Q 1481 -109 1013 -844 
L 513 -844 
Q 928 -128 1133 580 
Q 1338 1288 1338 2009 
Q 1338 2731 1133 3434 
Q 928 4138 513 4856 
z
" transform="scale(0.015625)"/>
      </defs>
      <use xlink:href="#DejaVuSans-54"/>
      <use xlink:href="#DejaVuSans-69" transform="translate(57.958984 0)"/>
      <use xlink:href="#DejaVuSans-6d" transform="translate(85.742188 0)"/>
      <use xlink:href="#DejaVuSans-65" transform="translate(183.154297 0)"/>
      <use xlink:href="#DejaVuSans-20" transform="translate(244.677734 0)"/>
      <use xlink:href="#DejaVuSans-28" transform="translate(276.464844 0)"/>
      <use xlink:href="#DejaVuSans-73" transform="translate(315.478516 0)"/>
      <use xlink:href="#DejaVuSans-29" transform="translate(367.578125 0)"/>
     </g>
    </g>
   </g>
   <g id="matplotlib.axis_2">
    <g id="ytick_1">
     <g id="line2d_17">
      <path d="M 47.307188 367.741449 
L 705.637188 367.741449 
" clip-path="url(#p65376a5f89)" style="fill: none; stroke: #b0b0b0; stroke-opacity: 0.2; stroke-width: 0.6; stroke-linecap: square"/>
     </g>
     <g id="line2d_18">
      <defs>
       <path id="m8fe1b5f3b9" d="M 0 0 
L -3.5 0 
" style="stroke: #000000; stroke-width: 0.8"/>
      </defs>
      <g>
       <use xlink:href="#m8fe1b5f3b9" x="47.307188" y="367.741449" style="stroke: #000000; stroke-width: 0.8"/>
      </g>
     </g>
     <g id="text_10">
      <!-- 0.0 -->
      <g transform="translate(22.81375 371.920589) scale(0.11 -0.11)">
       <defs>
        <path id="DejaVuSans-2e" d="M 684 794 
L 1344 794 
L 1344 0 
L 684 0 
L 684 794 
z
" transform="scale(0.015625)"/>
       </defs>
       <use xlink:href="#DejaVuSans-30"/>
       <use xlink:href="#DejaVuSans-2e" transform="translate(63.623047 0)"/>
       <use xlink:href="#DejaVuSans-30" transform="translate(95.410156 0)"/>
      </g>
     </g>
    </g>
    <g id="ytick_2">
     <g id="line2d_19">
      <path d="M 47.307188 317.507205 
L 705.637188 317.507205 
" clip-path="url(#p65376a5f89)" style="fill: none; stroke: #b0b0b0; stroke-opacity: 0.2; stroke-width: 0.6; stroke-linecap: square"/>
     </g>
     <g id="line2d_20">
      <g>
       <use xlink:href="#m8fe1b5f3b9" x="47.307188" y="317.507205" style="stroke: #000000; stroke-width: 0.8"/>
      </g>
     </g>
     <g id="text_11">
      <!-- 0.5 -->
      <g transform="translate(22.81375 321.686345) scale(0.11 -0.11)">
       <use xlink:href="#DejaVuSans-30"/>
       <use xlink:href="#DejaVuSans-2e" transform="translate(63.623047 0)"/>
       <use xlink:href="#DejaVuSans-35" transform="translate(95.410156 0)"/>
      </g>
     </g>
    </g>
    <g id="ytick_3">
     <g id="line2d_21">
      <path d="M 47.307188 267.27296 
L 705.637188 267.27296 
" clip-path="url(#p65376a5f89)" style="fill: none; stroke: #b0b0b0; stroke-opacity: 0.2; stroke-width: 0.6; stroke-linecap: square"/>
     </g>
     <g id="line2d_22">
      <g>
       <use xlink:href="#m8fe1b5f3b9" x="47.307188" y="267.27296" style="stroke: #000000; stroke-width: 0.8"/>
      </g>
     </g>
     <g id="text_12">
      <!-- 1.0 -->
      <g transform="translate(22.81375 271.452101) scale(0.11 -0.11)">
       <use xlink:href="#DejaVuSans-31"/>
       <use xlink:href="#DejaVuSans-2e" transform="translate(63.623047 0)"/>
       <use xlink:href="#DejaVuSans-30" transform="translate(95.410156 0)"/>
      </g>
     </g>
    </g>
    <g id="ytick_4">
     <g id="line2d_23">
      <path d="M 47.307188 217.038716 
L 705.637188 217.038716 
" clip-path="url(#p65376a5f89)" style="fill: none; stroke: #b0b0b0; stroke-opacity: 0.2; stroke-width: 0.6; stroke-linecap: square"/>
     </g>
     <g id="line2d_24">
      <g>
       <use xlink:href="#m8fe1b5f3b9" x="47.307188" y="217.038716" style="stroke: #000000; stroke-width: 0.8"/>
      </g>
     </g>
     <g id="text_13">
      <!-- 1.5 -->
      <g transform="translate(22.81375 221.217857) scale(0.11 -0.11)">
       <use xlink:href="#DejaVuSans-31"/>
       <use xlink:href="#DejaVuSans-2e" transform="translate(63.623047 0)"/>
       <use xlink:href="#DejaVuSans-35" transform="translate(95.410156 0)"/>
      </g>
     </g>
    </g>
    <g id="ytick_5">
     <g id="line2d_25">
      <path d="M 47.307188 166.804472 
L 705.637188 166.804472 
" clip-path="url(#p65376a5f89)" style="fill: none; stroke: #b0b0b0; stroke-opacity: 0.2; stroke-width: 0.6; stroke-linecap: square"/>
     </g>
     <g id="line2d_26">
      <g>
       <use xlink:href="#m8fe1b5f3b9" x="47.307188" y="166.804472" style="stroke: #000000; stroke-width: 0.8"/>
      </g>
     </g>
     <g id="text_14">
      <!-- 2.0 -->
      <g transform="translate(22.81375 170.983612) scale(0.11 -0.11)">
       <use xlink:href="#DejaVuSans-32"/>
       <use xlink:href="#DejaVuSans-2e" transform="translate(63.623047 0)"/>
       <use xlink:href="#DejaVuSans-30" transform="translate(95.410156 0)"/>
      </g>
     </g>
    </g>
    <g id="ytick_6">
     <g id="line2d_27">
      <path d="M 47.307188 116.570227 
L 705.637188 116.570227 
" clip-path="url(#p65376a5f89)" style="fill: none; stroke: #b0b0b0; stroke-opacity: 0.2; stroke-width: 0.6; stroke-linecap: square"/>
     </g>
     <g id="line2d_28">
      <g>
       <use xlink:href="#m8fe1b5f3b9" x="47.307188" y="116.570227" style="stroke: #000000; stroke-width: 0.8"/>
      </g>
     </g>
     <g id="text_15">
      <!-- 2.5 -->
      <g transform="translate(22.81375 120.749368) scale(0.11 -0.11)">
       <use xlink:href="#DejaVuSans-32"/>
       <use xlink:href="#DejaVuSans-2e" transform="translate(63.623047 0)"/>
       <use xlink:href="#DejaVuSans-35" transform="translate(95.410156 0)"/>
      </g>
     </g>
    </g>
    <g id="ytick_7">
     <g id="line2d_29">
      <path d="M 47.307188 66.335983 
L 705.637188 66.335983 
" clip-path="url(#p65376a5f89)" style="fill: none; stroke: #b0b0b0; stroke-opacity: 0.2; stroke-width: 0.6; stroke-linecap: square"/>
     </g>
     <g id="line2d_30">
      <g>
       <use xlink:href="#m8fe1b5f3b9" x="47.307188" y="66.335983" style="stroke: #000000; stroke-width: 0.8"/>
      </g>
     </g>
     <g id="text_16">
      <!-- 3.0 -->
      <g transform="translate(22.81375 70.515124) scale(0.11 -0.11)">
       <defs>
        <path id="DejaVuSans-33" d="M 2597 2516 
Q 3050 2419 3304 2112 
Q 3559 1806 3559 1356 
Q 3559 666 3084 287 
Q 2609 -91 1734 -91 
Q 1441 -91 1130 -33 
Q 819 25 488 141 
L 488 750 
Q 750 597 1062 519 
Q 1375 441 1716 441 
Q 2309 441 2620 675 
Q 2931 909 2931 1356 
Q 2931 1769 2642 2001 
Q 2353 2234 1838 2234 
L 1294 2234 
L 1294 2753 
L 1863 2753 
Q 2328 2753 2575 2939 
Q 2822 3125 2822 3475 
Q 2822 3834 2567 4026 
Q 2313 4219 1838 4219 
Q 1578 4219 1281 4162 
Q 984 4106 628 3988 
L 628 4550 
Q 988 4650 1302 4700 
Q 1616 4750 1894 4750 
Q 2613 4750 3031 4423 
Q 3450 4097 3450 3541 
Q 3450 3153 3228 2886 
Q 3006 2619 2597 2516 
z
" transform="scale(0.015625)"/>
       </defs>
       <use xlink:href="#DejaVuSans-33"/>
       <use xlink:href="#DejaVuSans-2e" transform="translate(63.623047 0)"/>
       <use xlink:href="#DejaVuSans-30" transform="translate(95.410156 0)"/>
      </g>
     </g>
    </g>
    <g id="text_17">
     <!-- AU mean intensity -->
     <g transform="translate(16.318125 259.314687) rotate(-90) scale(0.12 -0.12)">
      <defs>
       <path id="DejaVuSans-41" d="M 2188 4044 
L 1331 1722 
L 3047 1722 
L 2188 4044 
z
M 1831 4666 
L 2547 4666 
L 4325 0 
L 3669 0 
L 3244 1197 
L 1141 1197 
L 716 0 
L 50 0 
L 1831 4666 
z
" transform="scale(0.015625)"/>
       <path id="DejaVuSans-55" d="M 556 4666 
L 1191 4666 
L 1191 1831 
Q 1191 1081 1462 751 
Q 1734 422 2344 422 
Q 2950 422 3222 751 
Q 3494 1081 3494 1831 
L 3494 4666 
L 4128 4666 
L 4128 1753 
Q 4128 841 3676 375 
Q 3225 -91 2344 -91 
Q 1459 -91 1007 375 
Q 556 841 556 1753 
L 556 4666 
z
" transform="scale(0.015625)"/>
       <path id="DejaVuSans-61" d="M 2194 1759 
Q 1497 1759 1228 1600 
Q 959 1441 959 1056 
Q 959 750 1161 570 
Q 1363 391 1709 391 
Q 2188 391 2477 730 
Q 2766 1069 2766 1631 
L 2766 1759 
L 2194 1759 
z
M 3341 1997 
L 3341 0 
L 2766 0 
L 2766 531 
Q 2569 213 2275 61 
Q 1981 -91 1556 -91 
Q 1019 -91 701 211 
Q 384 513 384 1019 
Q 384 1609 779 1909 
Q 1175 2209 1959 2209 
L 2766 2209 
L 2766 2266 
Q 2766 2663 2505 2880 
Q 2244 3097 1772 3097 
Q 1472 3097 1187 3025 
Q 903 2953 641 2809 
L 641 3341 
Q 956 3463 1253 3523 
Q 1550 3584 1831 3584 
Q 2591 3584 2966 3190 
Q 3341 2797 3341 1997 
z
" transform="scale(0.015625)"/>
       <path id="DejaVuSans-6e" d="M 3513 2113 
L 3513 0 
L 2938 0 
L 2938 2094 
Q 2938 2591 2744 2837 
Q 2550 3084 2163 3084 
Q 1697 3084 1428 2787 
Q 1159 2491 1159 1978 
L 1159 0 
L 581 0 
L 581 3500 
L 1159 3500 
L 1159 2956 
Q 1366 3272 1645 3428 
Q 1925 3584 2291 3584 
Q 2894 3584 3203 3211 
Q 3513 2838 3513 2113 
z
" transform="scale(0.015625)"/>
       <path id="DejaVuSans-74" d="M 1172 4494 
L 1172 3500 
L 2356 3500 
L 2356 3053 
L 1172 3053 
L 1172 1153 
Q 1172 725 1289 603 
Q 1406 481 1766 481 
L 2356 481 
L 2356 0 
L 1766 0 
Q 1100 0 847 248 
Q 594 497 594 1153 
L 594 3053 
L 172 3053 
L 172 3500 
L 594 3500 
L 594 4494 
L 1172 4494 
z
" transform="scale(0.015625)"/>
       <path id="DejaVuSans-79" d="M 2059 -325 
Q 1816 -950 1584 -1140 
Q 1353 -1331 966 -1331 
L 506 -1331 
L 506 -850 
L 844 -850 
Q 1081 -850 1212 -737 
Q 1344 -625 1503 -206 
L 1606 56 
L 191 3500 
L 800 3500 
L 1894 763 
L 2988 3500 
L 3597 3500 
L 2059 -325 
z
" transform="scale(0.015625)"/>
      </defs>
      <use xlink:href="#DejaVuSans-41"/>
      <use xlink:href="#DejaVuSans-55" transform="translate(68.408203 0)"/>
      <use xlink:href="#DejaVuSans-20" transform="translate(141.601562 0)"/>
      <use xlink:href="#DejaVuSans-6d" transform="translate(173.388672 0)"/>
      <use xlink:href="#DejaVuSans-65" transform="translate(270.800781 0)"/>
      <use xlink:href="#DejaVuSans-61" transform="translate(332.324219 0)"/>
      <use xlink:href="#DejaVuSans-6e" transform="translate(393.603516 0)"/>
      <use xlink:href="#DejaVuSans-20" transform="translate(456.982422 0)"/>
      <use xlink:href="#DejaVuSans-69" transform="translate(488.769531 0)"/>
      <use xlink:href="#DejaVuSans-6e" transform="translate(516.552734 0)"/>
      <use xlink:href="#DejaVuSans-74" transform="translate(579.931641 0)"/>
      <use xlink:href="#DejaVuSans-65" transform="translate(619.140625 0)"/>
      <use xlink:href="#DejaVuSans-6e" transform="translate(680.664062 0)"/>
      <use xlink:href="#DejaVuSans-73" transform="translate(744.042969 0)"/>
      <use xlink:href="#DejaVuSans-69" transform="translate(796.142578 0)"/>
      <use xlink:href="#DejaVuSans-74" transform="translate(823.925781 0)"/>
      <use xlink:href="#DejaVuSans-79" transform="translate(863.134766 0)"/>
     </g>
    </g>
   </g>
   <g id="FillBetweenPolyCollection_1">
    <defs>
     <path id="me38079e157" d="M 47.307188 -167.206461 
L 47.307188 -7.13762 
L 50.772082 -3.109588 
L 54.236977 4.42687 
L 57.701872 -6.138165 
L 61.166766 -5.651958 
L 64.631661 -0.904891 
L 68.096556 -2.233242 
L 71.561451 -3.297848 
L 75.026345 -4.612991 
L 78.49124 -6.677028 
L 81.956135 -4.553512 
L 85.42103 -4.919775 
L 88.885924 -6.971515 
L 92.350819 -10.276195 
L 95.815714 -10.115735 
L 99.280609 -11.456209 
L 102.745503 -9.8312 
L 106.210398 -0.253052 
L 109.675293 6.018266 
L 113.140187 4.391589 
L 116.605082 3.092261 
L 120.069977 1.92504 
L 123.534872 0.215084 
L 126.999766 -0.591671 
L 130.464661 -2.194064 
L 133.929556 -3.921357 
L 137.394451 -6.589201 
L 140.859345 -8.680005 
L 144.32424 5.865809 
L 147.789135 6.599395 
L 151.25403 -4.246141 
L 154.718924 -1.988207 
L 158.183819 -4.170904 
L 161.648714 -7.344491 
L 165.113609 -11.294413 
L 168.578503 -5.068725 
L 172.043398 -5.936661 
L 175.508293 -13.359929 
L 178.973187 -4.399822 
L 182.438082 -0.356604 
L 185.902977 0.357476 
L 189.367872 1.401574 
L 192.832766 1.24166 
L 196.297661 -2.167305 
L 199.762556 -2.318881 
L 203.227451 -5.143739 
L 206.692345 -3.98885 
L 210.15724 -4.996886 
L 213.622135 -0.943013 
L 217.08703 2.634023 
L 220.551924 8.98458 
L 224.016819 -0.320578 
L 227.481714 -1.810223 
L 230.946609 -0.009217 
L 234.411503 0.872632 
L 237.876398 -5.405309 
L 241.341293 -2.128442 
L 244.806187 5.79993 
L 248.271082 -3.780574 
L 251.735977 -0.307339 
L 255.200872 -8.238471 
L 258.665766 -6.83564 
L 262.130661 -6.390172 
L 265.595556 1.611656 
L 269.060451 -0.919791 
L 272.525345 1.611198 
L 275.99024 -4.785722 
L 279.455135 -8.141208 
L 282.92003 -1.181459 
L 286.384924 10.212134 
L 289.849819 8.898465 
L 293.314714 9.478474 
L 296.779609 3.40846 
L 300.244503 -8.481403 
L 303.709398 -10.253367 
L 307.174293 -9.718039 
L 310.639187 -12.277604 
L 314.104082 -7.079427 
L 317.568977 -4.759396 
L 321.033872 2.170268 
L 324.498766 22.630337 
L 327.963661 10.587397 
L 331.428556 5.636994 
L 334.893451 8.532788 
L 338.358345 5.808846 
L 341.82324 6.112533 
L 345.288135 1.913637 
L 348.75303 4.433729 
L 352.217924 4.438979 
L 355.682819 6.19822 
L 359.147714 4.974142 
L 362.612609 3.17929 
L 366.077503 19.212407 
L 369.542398 21.939387 
L 373.007293 3.821983 
L 376.472188 4.01457 
L 379.937082 0.916968 
L 383.401977 0.475868 
L 386.866872 8.942469 
L 390.331766 14.372392 
L 393.796661 22.821207 
L 397.261556 20.328811 
L 400.726451 5.165012 
L 404.191345 9.779533 
L 407.65624 6.914912 
L 411.121135 0.261106 
L 414.58603 3.091185 
L 418.050924 0.035571 
L 421.515819 0.242819 
L 424.980714 -0.025986 
L 428.445609 0.22658 
L 431.910503 -5.715967 
L 435.375398 -6.870858 
L 438.840293 2.036526 
L 442.305187 0.895735 
L 445.770082 -0.373273 
L 449.234977 10.414718 
L 452.699872 12.107358 
L 456.164766 3.378578 
L 459.629661 5.647295 
L 463.094556 12.291274 
L 466.559451 17.44541 
L 470.024345 2.847395 
L 473.48924 -2.424575 
L 476.954135 -1.590333 
L 480.41903 -4.344988 
L 483.883924 13.975214 
L 487.348819 17.721508 
L 490.813714 13.710373 
L 494.278609 6.052923 
L 497.743503 -1.746416 
L 501.208398 -6.160676 
L 504.673293 -4.89094 
L 508.138188 1.820189 
L 511.603082 5.554054 
L 515.067977 -1.659511 
L 518.532872 -0.202205 
L 521.997766 1.971367 
L 525.462661 12.141468 
L 528.927556 10.380701 
L 532.392451 -6.129816 
L 535.857345 -1.0576 
L 539.32224 3.114122 
L 542.787135 6.390549 
L 546.25203 4.637884 
L 549.716924 2.273759 
L 553.181819 0.081579 
L 556.646714 14.593806 
L 560.111609 8.925375 
L 563.576503 1.291396 
L 567.041398 -5.803582 
L 570.506293 -4.000208 
L 573.971188 1.524394 
L 577.436082 8.530051 
L 580.900977 13.264071 
L 584.365872 15.437585 
L 587.830766 14.970662 
L 591.295661 19.049715 
L 594.760556 15.665087 
L 598.225451 8.056169 
L 601.690345 10.053511 
L 605.15524 15.649752 
L 608.620135 6.987395 
L 612.08503 16.265831 
L 615.549924 21.715211 
L 619.014819 12.642758 
L 622.479714 7.092822 
L 625.944609 -3.43519 
L 629.409503 22.062064 
L 632.874398 10.20359 
L 636.339293 -0.49173 
L 639.804188 -4.928435 
L 643.269082 1.790469 
L 646.733977 1.657687 
L 650.198872 7.948899 
L 653.663766 2.880806 
L 657.128661 3.170117 
L 660.593556 -0.322612 
L 664.058451 5.275588 
L 667.523345 4.336957 
L 670.98824 3.018348 
L 674.453135 -0.243796 
L 677.91803 -0.544031 
L 681.382924 -4.287895 
L 684.847819 -0.866013 
L 688.312714 -2.183272 
L 691.777609 -1.622362 
L 695.242503 -0.794219 
L 698.707398 3.240241 
L 702.172293 6.245624 
L 705.637188 -56.836051 
L 705.637188 -56.836051 
L 705.637188 -56.836051 
L 702.172293 -262.964424 
L 698.707398 -267.304999 
L 695.242503 -257.684529 
L 691.777609 -255.829169 
L 688.312714 -270.381664 
L 684.847819 -272.031068 
L 681.382924 -272.504326 
L 677.91803 -274.494238 
L 674.453135 -287.496892 
L 670.98824 -286.513795 
L 667.523345 -292.15646 
L 664.058451 -294.489636 
L 660.593556 -289.572085 
L 657.128661 -289.024953 
L 653.663766 -294.169937 
L 650.198872 -305.063497 
L 646.733977 -291.310741 
L 643.269082 -271.464207 
L 639.804188 -265.737806 
L 636.339293 -268.493312 
L 632.874398 -288.523625 
L 629.409503 -303.19407 
L 625.944609 -280.702489 
L 622.479714 -291.54272 
L 619.014819 -284.738943 
L 615.549924 -284.997856 
L 612.08503 -292.831998 
L 608.620135 -277.249359 
L 605.15524 -290.224737 
L 601.690345 -284.398223 
L 598.225451 -278.188022 
L 594.760556 -283.853674 
L 591.295661 -277.734223 
L 587.830766 -263.126318 
L 584.365872 -264.308227 
L 580.900977 -253.395212 
L 577.436082 -240.969764 
L 573.971188 -234.104193 
L 570.506293 -209.80953 
L 567.041398 -202.282162 
L 563.576503 -219.165777 
L 560.111609 -228.984694 
L 556.646714 -239.589324 
L 553.181819 -220.274586 
L 549.716924 -218.713 
L 546.25203 -222.044511 
L 542.787135 -229.60102 
L 539.32224 -229.612337 
L 535.857345 -223.820128 
L 532.392451 -209.600446 
L 528.927556 -235.248035 
L 525.462661 -240.901845 
L 521.997766 -230.553437 
L 518.532872 -245.039054 
L 515.067977 -245.02854 
L 511.603082 -246.250735 
L 508.138188 -238.698704 
L 504.673293 -226.540764 
L 501.208398 -221.437496 
L 497.743503 -234.500483 
L 494.278609 -260.510826 
L 490.813714 -279.259231 
L 487.348819 -303.221575 
L 483.883924 -316.065433 
L 480.41903 -292.678642 
L 476.954135 -257.446708 
L 473.48924 -257.373747 
L 470.024345 -261.638937 
L 466.559451 -275.010907 
L 463.094556 -272.031595 
L 459.629661 -267.040988 
L 456.164766 -252.853288 
L 452.699872 -263.932293 
L 449.234977 -261.774023 
L 445.770082 -242.564531 
L 442.305187 -239.948459 
L 438.840293 -241.054327 
L 435.375398 -230.400172 
L 431.910503 -238.09574 
L 428.445609 -232.749663 
L 424.980714 -236.776312 
L 421.515819 -237.026091 
L 418.050924 -235.261553 
L 414.58603 -246.843242 
L 411.121135 -240.087852 
L 407.65624 -257.957416 
L 404.191345 -273.391328 
L 400.726451 -272.224139 
L 397.261556 -295.929267 
L 393.796661 -277.713113 
L 390.331766 -257.092804 
L 386.866872 -245.90156 
L 383.401977 -232.416704 
L 379.937082 -235.911252 
L 376.472188 -238.251457 
L 373.007293 -234.041583 
L 369.542398 -252.199108 
L 366.077503 -239.617694 
L 362.612609 -214.430546 
L 359.147714 -212.410892 
L 355.682819 -212.044964 
L 352.217924 -214.952981 
L 348.75303 -213.611523 
L 345.288135 -205.758639 
L 341.82324 -216.146907 
L 338.358345 -220.090417 
L 334.893451 -226.264261 
L 331.428556 -220.870585 
L 327.963661 -231.173561 
L 324.498766 -250.833275 
L 321.033872 -218.468333 
L 317.568977 -209.444393 
L 314.104082 -204.464573 
L 310.639187 -197.567149 
L 307.174293 -200.160436 
L 303.709398 -206.632283 
L 300.244503 -210.492935 
L 296.779609 -223.261171 
L 293.314714 -241.050348 
L 289.849819 -255.85174 
L 286.384924 -265.969198 
L 282.92003 -249.55721 
L 279.455135 -225.992613 
L 275.99024 -231.279686 
L 272.525345 -229.594788 
L 269.060451 -214.116103 
L 265.595556 -222.080029 
L 262.130661 -207.86304 
L 258.665766 -205.687062 
L 255.200872 -214.775756 
L 251.735977 -230.697234 
L 248.271082 -239.532339 
L 244.806187 -247.47495 
L 241.341293 -240.679697 
L 237.876398 -232.753314 
L 234.411503 -226.685393 
L 230.946609 -227.741389 
L 227.481714 -219.204357 
L 224.016819 -216.470302 
L 220.551924 -239.810232 
L 217.08703 -229.664894 
L 213.622135 -227.288284 
L 210.15724 -216.104612 
L 206.692345 -225.851563 
L 203.227451 -222.181609 
L 199.762556 -219.01493 
L 196.297661 -204.436417 
L 192.832766 -203.824323 
L 189.367872 -201.676647 
L 185.902977 -205.545028 
L 182.438082 -201.667141 
L 178.973187 -190.31308 
L 175.508293 -173.374417 
L 172.043398 -182.627407 
L 168.578503 -181.182333 
L 165.113609 -168.781689 
L 161.648714 -174.285883 
L 158.183819 -184.124978 
L 154.718924 -192.148762 
L 151.25403 -190.904285 
L 147.789135 -203.345946 
L 144.32424 -199.402257 
L 140.859345 -174.282442 
L 137.394451 -173.584939 
L 133.929556 -180.361905 
L 130.464661 -181.661759 
L 126.999766 -183.719306 
L 123.534872 -183.822978 
L 120.069977 -186.106967 
L 116.605082 -187.281899 
L 113.140187 -189.619774 
L 109.675293 -192.001753 
L 106.210398 -184.470192 
L 102.745503 -168.144786 
L 99.280609 -164.888309 
L 95.815714 -166.144994 
L 92.350819 -167.286937 
L 88.885924 -174.63106 
L 85.42103 -176.922795 
L 81.956135 -175.495852 
L 78.49124 -174.465727 
L 75.026345 -178.648934 
L 71.561451 -178.840064 
L 68.096556 -182.774728 
L 64.631661 -186.510216 
L 61.166766 -185.921304 
L 57.701872 -190.112972 
L 54.236977 -203.47126 
L 50.772082 -170.252922 
L 47.307188 -167.206461 
z
" style="stroke: #d3d3d3; stroke-opacity: 0.5"/>
    </defs>
    <g clip-path="url(#p65376a5f89)">
     <use xlink:href="#me38079e157" x="0" y="424.5775" style="fill: #d3d3d3; fill-opacity: 0.5; stroke: #d3d3d3; stroke-opacity: 0.5"/>
    </g>
   </g>
   <g id="FillBetweenPolyCollection_2">
    <defs>
     <path id="m087c4ee4dc" d="M 47.307188 -127.18925 
L 47.307188 -47.15483 
L 50.772082 -44.895422 
L 54.236977 -47.547663 
L 57.701872 -52.131867 
L 61.166766 -50.719294 
L 64.631661 -47.306222 
L 68.096556 -47.368613 
L 71.561451 -47.183402 
L 75.026345 -48.121977 
L 78.49124 -48.624203 
L 81.956135 -47.289097 
L 85.42103 -47.92053 
L 88.885924 -48.886401 
L 92.350819 -49.528881 
L 95.815714 -49.12305 
L 99.280609 -49.814234 
L 102.745503 -49.409597 
L 106.210398 -46.307337 
L 109.675293 -43.486739 
L 113.140187 -44.111252 
L 116.605082 -44.501279 
L 120.069977 -45.082961 
L 123.534872 -45.794431 
L 126.999766 -46.37358 
L 130.464661 -47.060988 
L 133.929556 -48.031494 
L 137.394451 -48.338135 
L 140.859345 -50.080614 
L 144.32424 -45.451208 
L 147.789135 -45.88694 
L 151.25403 -50.910677 
L 154.718924 -49.528345 
L 158.183819 -49.159423 
L 161.648714 -49.079839 
L 165.113609 -50.666232 
L 168.578503 -49.097127 
L 172.043398 -50.109348 
L 175.508293 -53.363551 
L 178.973187 -50.878136 
L 182.438082 -50.684238 
L 185.902977 -51.11815 
L 189.367872 -49.367982 
L 192.832766 -50.024836 
L 196.297661 -52.734583 
L 199.762556 -56.492893 
L 203.227451 -59.403206 
L 206.692345 -59.454528 
L 210.15724 -57.773818 
L 213.622135 -57.52933 
L 217.08703 -55.440706 
L 220.551924 -53.214123 
L 224.016819 -54.358009 
L 227.481714 -56.158757 
L 230.946609 -56.94226 
L 234.411503 -56.016874 
L 237.876398 -62.24231 
L 241.341293 -61.766256 
L 244.806187 -57.51879 
L 248.271082 -62.718515 
L 251.735977 -57.904813 
L 255.200872 -59.872792 
L 258.665766 -56.548495 
L 262.130661 -56.758389 
L 265.595556 -54.311266 
L 269.060451 -54.218869 
L 272.525345 -56.190298 
L 275.99024 -61.409213 
L 279.455135 -62.604059 
L 282.92003 -63.275396 
L 286.384924 -58.833199 
L 289.849819 -57.289087 
L 293.314714 -53.153731 
L 296.779609 -53.258948 
L 300.244503 -58.984286 
L 303.709398 -59.348096 
L 307.174293 -57.328638 
L 310.639187 -58.59999 
L 314.104082 -56.425713 
L 317.568977 -55.930645 
L 321.033872 -52.989382 
L 324.498766 -45.735566 
L 327.963661 -49.852843 
L 331.428556 -50.989901 
L 334.893451 -50.166474 
L 338.358345 -50.66597 
L 341.82324 -49.452327 
L 345.288135 -50.004432 
L 348.75303 -50.077584 
L 352.217924 -50.409011 
L 355.682819 -48.362576 
L 359.147714 -49.372116 
L 362.612609 -51.223169 
L 366.077503 -45.495118 
L 369.542398 -46.595237 
L 373.007293 -55.643908 
L 376.472188 -56.551937 
L 379.937082 -58.290087 
L 383.401977 -57.747275 
L 386.866872 -54.768538 
L 390.331766 -53.493907 
L 393.796661 -52.312373 
L 397.261556 -58.735709 
L 400.726451 -64.182275 
L 404.191345 -61.013182 
L 407.65624 -59.30317 
L 411.121135 -59.826133 
L 414.58603 -59.392422 
L 418.050924 -58.78871 
L 421.515819 -59.074408 
L 424.980714 -59.213567 
L 428.445609 -58.017481 
L 431.910503 -63.81091 
L 435.375398 -62.753186 
L 438.840293 -58.736187 
L 442.305187 -59.315314 
L 445.770082 -60.921088 
L 449.234977 -57.632467 
L 452.699872 -56.902555 
L 456.164766 -60.679389 
L 459.629661 -62.524775 
L 463.094556 -58.789443 
L 466.559451 -55.668669 
L 470.024345 -63.274188 
L 473.48924 -66.161868 
L 476.954135 -65.554427 
L 480.41903 -76.428401 
L 483.883924 -68.534948 
L 487.348819 -62.514263 
L 490.813714 -59.532028 
L 494.278609 -60.588014 
L 497.743503 -59.934933 
L 501.208398 -59.979881 
L 504.673293 -60.303396 
L 508.138188 -58.309534 
L 511.603082 -57.397143 
L 515.067977 -62.501768 
L 518.532872 -61.411418 
L 521.997766 -56.159834 
L 525.462661 -51.11936 
L 528.927556 -51.026483 
L 532.392451 -56.997473 
L 535.857345 -56.748232 
L 539.32224 -55.067493 
L 542.787135 -52.607343 
L 546.25203 -52.032715 
L 549.716924 -52.972931 
L 553.181819 -55.007462 
L 556.646714 -48.951977 
L 560.111609 -50.552142 
L 563.576503 -53.822897 
L 567.041398 -54.923227 
L 570.506293 -55.452538 
L 573.971188 -57.382753 
L 577.436082 -53.844903 
L 580.900977 -53.400749 
L 584.365872 -54.498868 
L 587.830766 -54.553583 
L 591.295661 -55.14627 
L 594.760556 -59.214603 
L 598.225451 -63.504879 
L 601.690345 -63.559422 
L 605.15524 -60.81887 
L 608.620135 -64.071794 
L 612.08503 -61.008626 
L 615.549924 -54.963056 
L 619.014819 -61.702667 
L 622.479714 -67.566063 
L 625.944609 -72.752015 
L 629.409503 -59.25197 
L 632.874398 -64.478214 
L 636.339293 -67.492126 
L 639.804188 -70.130778 
L 643.269082 -66.5232 
L 646.733977 -71.58442 
L 650.198872 -70.3042 
L 653.663766 -71.38188 
L 657.128661 -69.87865 
L 660.593556 -72.63498 
L 664.058451 -69.665718 
L 667.523345 -69.786397 
L 670.98824 -69.364688 
L 674.453135 -72.05707 
L 677.91803 -69.031583 
L 681.382924 -71.342003 
L 684.847819 -68.657276 
L 688.312714 -69.23287 
L 691.777609 -65.174064 
L 695.242503 -65.016797 
L 698.707398 -64.396069 
L 702.172293 -61.056888 
L 705.637188 -56.836051 
L 705.637188 -56.836051 
L 705.637188 -56.836051 
L 702.172293 -195.661912 
L 698.707398 -199.668689 
L 695.242503 -193.461952 
L 691.777609 -192.277467 
L 688.312714 -203.332066 
L 684.847819 -204.239804 
L 681.382924 -205.450218 
L 677.91803 -206.006686 
L 674.453135 -215.683618 
L 670.98824 -214.130759 
L 667.523345 -218.033106 
L 664.058451 -219.54833 
L 660.593556 -217.259717 
L 657.128661 -215.976186 
L 653.663766 -219.907251 
L 650.198872 -226.810398 
L 646.733977 -218.068634 
L 643.269082 -203.150538 
L 639.804188 -200.535463 
L 636.339293 -201.492917 
L 632.874398 -213.841821 
L 629.409503 -221.880037 
L 625.944609 -211.385665 
L 622.479714 -216.883834 
L 619.014819 -210.393518 
L 615.549924 -208.319589 
L 612.08503 -215.55754 
L 608.620135 -206.190171 
L 605.15524 -213.756115 
L 601.690345 -210.78529 
L 598.225451 -206.626974 
L 594.760556 -208.973984 
L 591.295661 -203.538238 
L 587.830766 -193.602073 
L 584.365872 -194.371774 
L 580.900977 -186.730391 
L 577.436082 -178.59481 
L 573.971188 -175.197046 
L 570.506293 -158.3572 
L 567.041398 -153.162517 
L 563.576503 -164.051484 
L 560.111609 -169.507177 
L 556.646714 -176.043542 
L 553.181819 -165.185545 
L 549.716924 -163.46631 
L 546.25203 -165.373912 
L 542.787135 -170.603127 
L 539.32224 -171.430722 
L 535.857345 -168.129496 
L 532.392451 -158.732788 
L 528.927556 -173.840851 
L 525.462661 -177.641016 
L 521.997766 -172.422236 
L 518.532872 -183.829842 
L 515.067977 -184.186283 
L 511.603082 -183.299538 
L 508.138188 -178.568981 
L 504.673293 -171.128308 
L 501.208398 -167.618291 
L 497.743503 -176.311967 
L 494.278609 -193.869888 
L 490.813714 -206.01683 
L 487.348819 -222.985804 
L 483.883924 -233.555272 
L 480.41903 -220.595228 
L 476.954135 -193.482615 
L 473.48924 -193.636454 
L 470.024345 -195.517354 
L 466.559451 -201.896828 
L 463.094556 -200.950878 
L 459.629661 -198.868917 
L 456.164766 -188.795321 
L 452.699872 -194.92238 
L 449.234977 -193.726838 
L 445.770082 -182.016717 
L 442.305187 -179.737411 
L 438.840293 -180.281614 
L 435.375398 -174.517843 
L 431.910503 -180.000797 
L 428.445609 -174.505602 
L 424.980714 -177.58873 
L 421.515819 -177.708863 
L 418.050924 -176.437272 
L 414.58603 -184.359636 
L 411.121135 -180.000612 
L 407.65624 -191.739334 
L 404.191345 -202.598612 
L 400.726451 -202.876851 
L 397.261556 -216.864748 
L 393.796661 -202.579533 
L 390.331766 -189.226505 
L 386.866872 -182.190553 
L 383.401977 -174.193561 
L 379.937082 -176.704197 
L 376.472188 -177.68495 
L 373.007293 -174.575692 
L 369.542398 -183.664484 
L 366.077503 -174.910169 
L 362.612609 -160.028087 
L 359.147714 -158.064634 
L 355.682819 -157.484168 
L 352.217924 -160.104991 
L 348.75303 -159.10021 
L 345.288135 -153.84057 
L 341.82324 -160.582047 
L 338.358345 -163.615601 
L 334.893451 -167.564999 
L 331.428556 -164.24369 
L 327.963661 -170.733321 
L 324.498766 -182.467372 
L 321.033872 -163.308683 
L 317.568977 -158.273144 
L 314.104082 -155.118287 
L 310.639187 -151.244763 
L 307.174293 -152.549837 
L 303.709398 -157.537554 
L 300.244503 -159.990052 
L 296.779609 -166.593763 
L 293.314714 -178.418142 
L 289.849819 -189.664189 
L 286.384924 -196.923865 
L 282.92003 -187.463272 
L 279.455135 -171.529761 
L 275.99024 -174.656195 
L 272.525345 -171.793291 
L 269.060451 -160.817025 
L 265.595556 -166.157108 
L 262.130661 -157.494823 
L 258.665766 -155.974206 
L 255.200872 -163.141435 
L 251.735977 -173.09976 
L 248.271082 -180.594398 
L 244.806187 -184.15623 
L 241.341293 -181.041884 
L 237.876398 -175.916312 
L 234.411503 -169.795887 
L 230.946609 -170.808346 
L 227.481714 -164.855823 
L 224.016819 -162.432871 
L 220.551924 -177.611529 
L 217.08703 -171.590165 
L 213.622135 -170.701966 
L 210.15724 -163.32768 
L 206.692345 -170.385885 
L 203.227451 -167.922141 
L 199.762556 -164.840918 
L 196.297661 -153.869139 
L 192.832766 -152.557827 
L 189.367872 -150.907092 
L 185.902977 -154.069402 
L 182.438082 -151.339507 
L 178.973187 -143.834766 
L 175.508293 -133.370795 
L 172.043398 -138.454721 
L 168.578503 -137.153931 
L 165.113609 -129.40987 
L 161.648714 -132.550535 
L 158.183819 -139.13646 
L 154.718924 -144.608623 
L 151.25403 -144.239749 
L 147.789135 -150.859611 
L 144.32424 -148.085241 
L 140.859345 -132.881833 
L 137.394451 -131.836004 
L 133.929556 -136.251768 
L 130.464661 -136.794835 
L 126.999766 -137.937397 
L 123.534872 -137.813462 
L 120.069977 -139.098965 
L 116.605082 -139.688359 
L 113.140187 -141.116933 
L 109.675293 -142.496748 
L 106.210398 -138.415907 
L 102.745503 -128.566389 
L 99.280609 -126.530284 
L 95.815714 -127.13768 
L 92.350819 -128.034251 
L 88.885924 -132.716173 
L 85.42103 -133.92204 
L 81.956135 -132.760267 
L 78.49124 -132.518552 
L 75.026345 -135.139948 
L 71.561451 -134.95451 
L 68.096556 -137.639357 
L 64.631661 -140.108885 
L 61.166766 -140.853967 
L 57.701872 -144.11927 
L 54.236977 -151.496728 
L 50.772082 -128.467088 
L 47.307188 -127.18925 
z
" style="stroke: #808080; stroke-opacity: 0.7"/>
    </defs>
    <g clip-path="url(#p65376a5f89)">
     <use xlink:href="#m087c4ee4dc" x="0" y="424.5775" style="fill: #808080; fill-opacity: 0.7; stroke: #808080; stroke-opacity: 0.7"/>
    </g>
   </g>
   <g id="line2d_31">
    <path d="M 47.307188 367.741449 
L 50.772082 367.741449 
L 57.701872 365.922973 
L 61.166766 367.317346 
L 64.631661 366.500907 
L 68.096556 366.205523 
L 71.561451 366.784423 
L 75.026345 367.595975 
L 78.49124 367.514864 
L 81.956135 366.512526 
L 85.42103 365.865167 
L 88.885924 367.299591 
L 92.350819 361.868633 
L 95.815714 367.741449 
L 99.280609 367.575465 
L 102.745503 366.304972 
L 106.210398 366.970254 
L 109.675293 367.521371 
L 113.140187 367.689872 
L 123.534872 367.741449 
L 126.999766 367.589163 
L 130.464661 367.695958 
L 137.394451 367.373981 
L 140.859345 367.010581 
L 144.32424 367.689825 
L 175.508293 367.741449 
L 178.973187 367.301232 
L 182.438082 361.809517 
L 185.902977 366.660776 
L 189.367872 367.629048 
L 192.832766 367.697688 
L 196.297661 363.457282 
L 199.762556 339.332243 
L 203.227451 334.375896 
L 206.692345 336.977522 
L 210.15724 341.298531 
L 213.622135 331.335465 
L 217.08703 324.119569 
L 220.551924 327.620297 
L 224.016819 332.585078 
L 227.481714 330.247188 
L 230.946609 328.936846 
L 234.411503 343.221709 
L 237.876398 324.106721 
L 241.341293 322.066169 
L 244.806187 299.880669 
L 248.271082 326.541165 
L 251.735977 316.539434 
L 255.200872 349.727839 
L 258.665766 338.144276 
L 262.130661 337.744893 
L 265.595556 344.787815 
L 269.060451 337.541661 
L 272.525345 335.332194 
L 275.99024 341.542488 
L 279.455135 344.930497 
L 282.92003 342.702346 
L 286.384924 349.250683 
L 289.849819 349.304405 
L 293.314714 351.480488 
L 296.779609 351.564545 
L 300.244503 344.827692 
L 303.709398 350.809993 
L 307.174293 349.294261 
L 310.639187 354.061648 
L 314.104082 349.351197 
L 317.568977 349.71491 
L 321.033872 349.472131 
L 324.498766 340.2108 
L 327.963661 323.118997 
L 331.428556 332.868295 
L 334.893451 338.069339 
L 338.358345 341.850476 
L 341.82324 330.306294 
L 345.288135 340.687181 
L 348.75303 344.121815 
L 352.217924 337.824901 
L 355.682819 346.579118 
L 359.147714 344.537284 
L 362.612609 347.910459 
L 366.077503 353.703937 
L 369.542398 333.049304 
L 373.007293 348.291592 
L 376.472188 347.710245 
L 379.937082 348.010363 
L 383.401977 349.033099 
L 386.866872 347.181392 
L 390.331766 349.329055 
L 393.796661 323.322079 
L 397.261556 251.605151 
L 400.726451 308.120202 
L 404.191345 305.966764 
L 407.65624 314.940747 
L 411.121135 280.425188 
L 414.58603 327.111339 
L 418.050924 324.895588 
L 421.515819 291.559711 
L 424.980714 312.978699 
L 428.445609 308.74491 
L 431.910503 318.693852 
L 435.375398 327.401273 
L 438.840293 310.213014 
L 442.305187 294.687009 
L 445.770082 329.565863 
L 449.234977 320.2819 
L 452.699872 326.37959 
L 456.164766 294.403768 
L 459.629661 309.407546 
L 463.094556 301.118997 
L 466.559451 302.673058 
L 470.024345 314.778182 
L 473.48924 305.826631 
L 476.954135 312.746224 
L 480.41903 326.917497 
L 483.883924 324.957954 
L 487.348819 345.224269 
L 490.813714 339.599648 
L 494.278609 342.401527 
L 497.743503 343.986162 
L 501.208398 344.649718 
L 504.673293 337.888557 
L 508.138188 346.458876 
L 511.603082 349.567567 
L 515.067977 347.126024 
L 518.532872 338.932078 
L 521.997766 339.15463 
L 525.462661 334.406592 
L 528.927556 338.541597 
L 532.392451 346.106096 
L 535.857345 349.287931 
L 539.32224 352.685051 
L 542.787135 341.273368 
L 546.25203 339.085073 
L 549.716924 338.293033 
L 553.181819 343.517633 
L 556.646714 343.154766 
L 560.111609 331.240274 
L 563.576503 334.816438 
L 567.041398 336.324909 
L 570.506293 337.484147 
L 573.971188 344.95387 
L 577.436082 336.812647 
L 580.900977 339.93366 
L 584.365872 331.163968 
L 587.830766 335.111977 
L 591.295661 307.736928 
L 594.760556 308.871939 
L 598.225451 321.735633 
L 601.690345 282.441175 
L 605.15524 281.135494 
L 608.620135 261.705362 
L 612.08503 300.09443 
L 615.549924 288.221513 
L 619.014819 313.573052 
L 622.479714 266.476144 
L 625.944609 260.738749 
L 629.409503 306.993662 
L 632.874398 271.7437 
L 636.339293 287.501414 
L 639.804188 262.546499 
L 643.269082 246.015959 
L 646.733977 259.927855 
L 650.198872 260.505455 
L 653.663766 206.08237 
L 657.128661 165.368539 
L 660.593556 253.953057 
L 664.058451 269.74527 
L 667.523345 277.724442 
L 670.98824 275.245103 
L 674.453135 284.614382 
L 677.91803 297.277964 
L 681.382924 294.770958 
L 684.847819 298.771621 
L 688.312714 295.300114 
L 691.777609 312.996312 
L 695.242503 329.151786 
L 698.707398 322.973958 
L 702.172293 313.280857 
L 705.637188 312.804597 
L 705.637188 312.804597 
" clip-path="url(#p65376a5f89)" style="fill: none; stroke: #ff8c00; stroke-width: 2.3; stroke-linecap: square"/>
   </g>
   <g id="line2d_32">
    <path d="M 275.99024 384.117812 
L 275.99024 23.837812 
" clip-path="url(#p65376a5f89)" style="fill: none; stroke-dasharray: 5.55,2.4; stroke-dashoffset: 0; stroke: #808080; stroke-width: 1.5"/>
   </g>
   <g id="line2d_33">
    <path d="M 473.48924 384.117812 
L 473.48924 23.837812 
" clip-path="url(#p65376a5f89)" style="fill: none; stroke-dasharray: 5.55,2.4; stroke-dashoffset: 0; stroke: #808080; stroke-width: 1.5"/>
   </g>
   <g id="patch_3">
    <path d="M 47.307188 384.117812 
L 47.307188 23.837812 
" style="fill: none; stroke: #000000; stroke-width: 0.8; stroke-linejoin: miter; stroke-linecap: square"/>
   </g>
   <g id="patch_4">
    <path d="M 705.637188 384.117812 
L 705.637188 23.837812 
" style="fill: none; stroke: #000000; stroke-width: 0.8; stroke-linejoin: miter; stroke-linecap: square"/>
   </g>
   <g id="patch_5">
    <path d="M 47.307188 384.117812 
L 705.637188 384.117812 
" style="fill: none; stroke: #000000; stroke-width: 0.8; stroke-linejoin: miter; stroke-linecap: square"/>
   </g>
   <g id="patch_6">
    <path d="M 47.307188 23.837812 
L 705.637188 23.837812 
" style="fill: none; stroke: #000000; stroke-width: 0.8; stroke-linejoin: miter; stroke-linecap: square"/>
   </g>
   <g id="text_18">
    <!-- Facial trace: Social anxiety disorder (SAD) -->
    <g transform="translate(229.536719 17.837812) scale(0.14 -0.14)">
     <defs>
      <path id="DejaVuSans-46" d="M 628 4666 
L 3309 4666 
L 3309 4134 
L 1259 4134 
L 1259 2759 
L 3109 2759 
L 3109 2228 
L 1259 2228 
L 1259 0 
L 628 0 
L 628 4666 
z
" transform="scale(0.015625)"/>
      <path id="DejaVuSans-63" d="M 3122 3366 
L 3122 2828 
Q 2878 2963 2633 3030 
Q 2388 3097 2138 3097 
Q 1578 3097 1268 2742 
Q 959 2388 959 1747 
Q 959 1106 1268 751 
Q 1578 397 2138 397 
Q 2388 397 2633 464 
Q 2878 531 3122 666 
L 3122 134 
Q 2881 22 2623 -34 
Q 2366 -91 2075 -91 
Q 1284 -91 818 406 
Q 353 903 353 1747 
Q 353 2603 823 3093 
Q 1294 3584 2113 3584 
Q 2378 3584 2631 3529 
Q 2884 3475 3122 3366 
z
" transform="scale(0.015625)"/>
      <path id="DejaVuSans-6c" d="M 603 4863 
L 1178 4863 
L 1178 0 
L 603 0 
L 603 4863 
z
" transform="scale(0.015625)"/>
      <path id="DejaVuSans-72" d="M 2631 2963 
Q 2534 3019 2420 3045 
Q 2306 3072 2169 3072 
Q 1681 3072 1420 2755 
Q 1159 2438 1159 1844 
L 1159 0 
L 581 0 
L 581 3500 
L 1159 3500 
L 1159 2956 
Q 1341 3275 1631 3429 
Q 1922 3584 2338 3584 
Q 2397 3584 2469 3576 
Q 2541 3569 2628 3553 
L 2631 2963 
z
" transform="scale(0.015625)"/>
      <path id="DejaVuSans-3a" d="M 750 794 
L 1409 794 
L 1409 0 
L 750 0 
L 750 794 
z
M 750 3309 
L 1409 3309 
L 1409 2516 
L 750 2516 
L 750 3309 
z
" transform="scale(0.015625)"/>
      <path id="DejaVuSans-53" d="M 3425 4513 
L 3425 3897 
Q 3066 4069 2747 4153 
Q 2428 4238 2131 4238 
Q 1616 4238 1336 4038 
Q 1056 3838 1056 3469 
Q 1056 3159 1242 3001 
Q 1428 2844 1947 2747 
L 2328 2669 
Q 3034 2534 3370 2195 
Q 3706 1856 3706 1288 
Q 3706 609 3251 259 
Q 2797 -91 1919 -91 
Q 1588 -91 1214 -16 
Q 841 59 441 206 
L 441 856 
Q 825 641 1194 531 
Q 1563 422 1919 422 
Q 2459 422 2753 634 
Q 3047 847 3047 1241 
Q 3047 1584 2836 1778 
Q 2625 1972 2144 2069 
L 1759 2144 
Q 1053 2284 737 2584 
Q 422 2884 422 3419 
Q 422 4038 858 4394 
Q 1294 4750 2059 4750 
Q 2388 4750 2728 4690 
Q 3069 4631 3425 4513 
z
" transform="scale(0.015625)"/>
      <path id="DejaVuSans-6f" d="M 1959 3097 
Q 1497 3097 1228 2736 
Q 959 2375 959 1747 
Q 959 1119 1226 758 
Q 1494 397 1959 397 
Q 2419 397 2687 759 
Q 2956 1122 2956 1747 
Q 2956 2369 2687 2733 
Q 2419 3097 1959 3097 
z
M 1959 3584 
Q 2709 3584 3137 3096 
Q 3566 2609 3566 1747 
Q 3566 888 3137 398 
Q 2709 -91 1959 -91 
Q 1206 -91 779 398 
Q 353 888 353 1747 
Q 353 2609 779 3096 
Q 1206 3584 1959 3584 
z
" transform="scale(0.015625)"/>
      <path id="DejaVuSans-78" d="M 3513 3500 
L 2247 1797 
L 3578 0 
L 2900 0 
L 1881 1375 
L 863 0 
L 184 0 
L 1544 1831 
L 300 3500 
L 978 3500 
L 1906 2253 
L 2834 3500 
L 3513 3500 
z
" transform="scale(0.015625)"/>
      <path id="DejaVuSans-64" d="M 2906 2969 
L 2906 4863 
L 3481 4863 
L 3481 0 
L 2906 0 
L 2906 525 
Q 2725 213 2448 61 
Q 2172 -91 1784 -91 
Q 1150 -91 751 415 
Q 353 922 353 1747 
Q 353 2572 751 3078 
Q 1150 3584 1784 3584 
Q 2172 3584 2448 3432 
Q 2725 3281 2906 2969 
z
M 947 1747 
Q 947 1113 1208 752 
Q 1469 391 1925 391 
Q 2381 391 2643 752 
Q 2906 1113 2906 1747 
Q 2906 2381 2643 2742 
Q 2381 3103 1925 3103 
Q 1469 3103 1208 2742 
Q 947 2381 947 1747 
z
" transform="scale(0.015625)"/>
      <path id="DejaVuSans-44" d="M 1259 4147 
L 1259 519 
L 2022 519 
Q 2988 519 3436 956 
Q 3884 1394 3884 2338 
Q 3884 3275 3436 3711 
Q 2988 4147 2022 4147 
L 1259 4147 
z
M 628 4666 
L 1925 4666 
Q 3281 4666 3915 4102 
Q 4550 3538 4550 2338 
Q 4550 1131 3912 565 
Q 3275 0 1925 0 
L 628 0 
L 628 4666 
z
" transform="scale(0.015625)"/>
     </defs>
     <use xlink:href="#DejaVuSans-46"/>
     <use xlink:href="#DejaVuSans-61" transform="translate(48.394531 0)"/>
     <use xlink:href="#DejaVuSans-63" transform="translate(109.673828 0)"/>
     <use xlink:href="#DejaVuSans-69" transform="translate(164.654297 0)"/>
     <use xlink:href="#DejaVuSans-61" transform="translate(192.4375 0)"/>
     <use xlink:href="#DejaVuSans-6c" transform="translate(253.716797 0)"/>
     <use xlink:href="#DejaVuSans-20" transform="translate(281.5 0)"/>
     <use xlink:href="#DejaVuSans-74" transform="translate(313.287109 0)"/>
     <use xlink:href="#DejaVuSans-72" transform="translate(352.496094 0)"/>
     <use xlink:href="#DejaVuSans-61" transform="translate(393.609375 0)"/>
     <use xlink:href="#DejaVuSans-63" transform="translate(454.888672 0)"/>
     <use xlink:href="#DejaVuSans-65" transform="translate(509.869141 0)"/>
     <use xlink:href="#DejaVuSans-3a" transform="translate(571.392578 0)"/>
     <use xlink:href="#DejaVuSans-20" transform="translate(605.083984 0)"/>
     <use xlink:href="#DejaVuSans-53" transform="translate(636.871094 0)"/>
     <use xlink:href="#DejaVuSans-6f" transform="translate(700.347656 0)"/>
     <use xlink:href="#DejaVuSans-63" transform="translate(761.529297 0)"/>
     <use xlink:href="#DejaVuSans-69" transform="translate(816.509766 0)"/>
     <use xlink:href="#DejaVuSans-61" transform="translate(844.292969 0)"/>
     <use xlink:href="#DejaVuSans-6c" transform="translate(905.572266 0)"/>
     <use xlink:href="#DejaVuSans-20" transform="translate(933.355469 0)"/>
     <use xlink:href="#DejaVuSans-61" transform="translate(965.142578 0)"/>
     <use xlink:href="#DejaVuSans-6e" transform="translate(1026.421875 0)"/>
     <use xlink:href="#DejaVuSans-78" transform="translate(1089.800781 0)"/>
     <use xlink:href="#DejaVuSans-69" transform="translate(1148.980469 0)"/>
     <use xlink:href="#DejaVuSans-65" transform="translate(1176.763672 0)"/>
     <use xlink:href="#DejaVuSans-74" transform="translate(1238.287109 0)"/>
     <use xlink:href="#DejaVuSans-79" transform="translate(1277.496094 0)"/>
     <use xlink:href="#DejaVuSans-20" transform="translate(1336.675781 0)"/>
     <use xlink:href="#DejaVuSans-64" transform="translate(1368.462891 0)"/>
     <use xlink:href="#DejaVuSans-69" transform="translate(1431.939453 0)"/>
     <use xlink:href="#DejaVuSans-73" transform="translate(1459.722656 0)"/>
     <use xlink:href="#DejaVuSans-6f" transform="translate(1511.822266 0)"/>
     <use xlink:href="#DejaVuSans-72" transform="translate(1573.003906 0)"/>
     <use xlink:href="#DejaVuSans-64" transform="translate(1612.367188 0)"/>
     <use xlink:href="#DejaVuSans-65" transform="translate(1675.84375 0)"/>
     <use xlink:href="#DejaVuSans-72" transform="translate(1737.367188 0)"/>
     <use xlink:href="#DejaVuSans-20" transform="translate(1778.480469 0)"/>
     <use xlink:href="#DejaVuSans-28" transform="translate(1810.267578 0)"/>
     <use xlink:href="#DejaVuSans-53" transform="translate(1849.28125 0)"/>
     <use xlink:href="#DejaVuSans-41" transform="translate(1914.632812 0)"/>
     <use xlink:href="#DejaVuSans-44" transform="translate(1983.041016 0)"/>
     <use xlink:href="#DejaVuSans-29" transform="translate(2060.042969 0)"/>
    </g>
   </g>
   <g id="legend_1">
    <g id="patch_7">
     <path d="M 446.991094 42.096094 
L 468.991094 42.096094 
L 468.991094 34.396094 
L 446.991094 34.396094 
z
" style="fill: #d3d3d3; fill-opacity: 0.5; stroke: #d3d3d3; stroke-opacity: 0.5; stroke-linejoin: miter"/>
    </g>
    <g id="text_19">
     <!-- Social anxiety disorder (SAD) ±2 SD -->
     <g transform="translate(477.791094 42.096094) scale(0.11 -0.11)">
      <defs>
       <path id="DejaVuSans-b1" d="M 2944 4013 
L 2944 2803 
L 4684 2803 
L 4684 2272 
L 2944 2272 
L 2944 1063 
L 2419 1063 
L 2419 2272 
L 678 2272 
L 678 2803 
L 2419 2803 
L 2419 4013 
L 2944 4013 
z
M 678 531 
L 4684 531 
L 4684 0 
L 678 0 
L 678 531 
z
" transform="scale(0.015625)"/>
      </defs>
      <use xlink:href="#DejaVuSans-53"/>
      <use xlink:href="#DejaVuSans-6f" transform="translate(63.476562 0)"/>
      <use xlink:href="#DejaVuSans-63" transform="translate(124.658203 0)"/>
      <use xlink:href="#DejaVuSans-69" transform="translate(179.638672 0)"/>
      <use xlink:href="#DejaVuSans-61" transform="translate(207.421875 0)"/>
      <use xlink:href="#DejaVuSans-6c" transform="translate(268.701172 0)"/>
      <use xlink:href="#DejaVuSans-20" transform="translate(296.484375 0)"/>
      <use xlink:href="#DejaVuSans-61" transform="translate(328.271484 0)"/>
      <use xlink:href="#DejaVuSans-6e" transform="translate(389.550781 0)"/>
      <use xlink:href="#DejaVuSans-78" transform="translate(452.929688 0)"/>
      <use xlink:href="#DejaVuSans-69" transform="translate(512.109375 0)"/>
      <use xlink:href="#DejaVuSans-65" transform="translate(539.892578 0)"/>
      <use xlink:href="#DejaVuSans-74" transform="translate(601.416016 0)"/>
      <use xlink:href="#DejaVuSans-79" transform="translate(640.625 0)"/>
      <use xlink:href="#DejaVuSans-20" transform="translate(699.804688 0)"/>
      <use xlink:href="#DejaVuSans-64" transform="translate(731.591797 0)"/>
      <use xlink:href="#DejaVuSans-69" transform="translate(795.068359 0)"/>
      <use xlink:href="#DejaVuSans-73" transform="translate(822.851562 0)"/>
      <use xlink:href="#DejaVuSans-6f" transform="translate(874.951172 0)"/>
      <use xlink:href="#DejaVuSans-72" transform="translate(936.132812 0)"/>
      <use xlink:href="#DejaVuSans-64" transform="translate(975.496094 0)"/>
      <use xlink:href="#DejaVuSans-65" transform="translate(1038.972656 0)"/>
      <use xlink:href="#DejaVuSans-72" transform="translate(1100.496094 0)"/>
      <use xlink:href="#DejaVuSans-20" transform="translate(1141.609375 0)"/>
      <use xlink:href="#DejaVuSans-28" transform="translate(1173.396484 0)"/>
      <use xlink:href="#DejaVuSans-53" transform="translate(1212.410156 0)"/>
      <use xlink:href="#DejaVuSans-41" transform="translate(1277.761719 0)"/>
      <use xlink:href="#DejaVuSans-44" transform="translate(1346.169922 0)"/>
      <use xlink:href="#DejaVuSans-29" transform="translate(1423.171875 0)"/>
      <use xlink:href="#DejaVuSans-20" transform="translate(1462.185547 0)"/>
      <use xlink:href="#DejaVuSans-b1" transform="translate(1493.972656 0)"/>
      <use xlink:href="#DejaVuSans-32" transform="translate(1577.761719 0)"/>
      <use xlink:href="#DejaVuSans-20" transform="translate(1641.384766 0)"/>
      <use xlink:href="#DejaVuSans-53" transform="translate(1673.171875 0)"/>
      <use xlink:href="#DejaVuSans-44" transform="translate(1736.648438 0)"/>
     </g>
    </g>
    <g id="patch_8">
     <path d="M 446.991094 58.242031 
L 468.991094 58.242031 
L 468.991094 50.542031 
L 446.991094 50.542031 
z
" style="fill: #808080; fill-opacity: 0.7; stroke: #808080; stroke-opacity: 0.7; stroke-linejoin: miter"/>
    </g>
    <g id="text_20">
     <!-- Social anxiety disorder (SAD) ±1 SD -->
     <g transform="translate(477.791094 58.242031) scale(0.11 -0.11)">
      <use xlink:href="#DejaVuSans-53"/>
      <use xlink:href="#DejaVuSans-6f" transform="translate(63.476562 0)"/>
      <use xlink:href="#DejaVuSans-63" transform="translate(124.658203 0)"/>
      <use xlink:href="#DejaVuSans-69" transform="translate(179.638672 0)"/>
      <use xlink:href="#DejaVuSans-61" transform="translate(207.421875 0)"/>
      <use xlink:href="#DejaVuSans-6c" transform="translate(268.701172 0)"/>
      <use xlink:href="#DejaVuSans-20" transform="translate(296.484375 0)"/>
      <use xlink:href="#DejaVuSans-61" transform="translate(328.271484 0)"/>
      <use xlink:href="#DejaVuSans-6e" transform="translate(389.550781 0)"/>
      <use xlink:href="#DejaVuSans-78" transform="translate(452.929688 0)"/>
      <use xlink:href="#DejaVuSans-69" transform="translate(512.109375 0)"/>
      <use xlink:href="#DejaVuSans-65" transform="translate(539.892578 0)"/>
      <use xlink:href="#DejaVuSans-74" transform="translate(601.416016 0)"/>
      <use xlink:href="#DejaVuSans-79" transform="translate(640.625 0)"/>
      <use xlink:href="#DejaVuSans-20" transform="translate(699.804688 0)"/>
      <use xlink:href="#DejaVuSans-64" transform="translate(731.591797 0)"/>
      <use xlink:href="#DejaVuSans-69" transform="translate(795.068359 0)"/>
      <use xlink:href="#DejaVuSans-73" transform="translate(822.851562 0)"/>
      <use xlink:href="#DejaVuSans-6f" transform="translate(874.951172 0)"/>
      <use xlink:href="#DejaVuSans-72" transform="translate(936.132812 0)"/>
      <use xlink:href="#DejaVuSans-64" transform="translate(975.496094 0)"/>
      <use xlink:href="#DejaVuSans-65" transform="translate(1038.972656 0)"/>
      <use xlink:href="#DejaVuSans-72" transform="translate(1100.496094 0)"/>
      <use xlink:href="#DejaVuSans-20" transform="translate(1141.609375 0)"/>
      <use xlink:href="#DejaVuSans-28" transform="translate(1173.396484 0)"/>
      <use xlink:href="#DejaVuSans-53" transform="translate(1212.410156 0)"/>
      <use xlink:href="#DejaVuSans-41" transform="translate(1277.761719 0)"/>
      <use xlink:href="#DejaVuSans-44" transform="translate(1346.169922 0)"/>
      <use xlink:href="#DejaVuSans-29" transform="translate(1423.171875 0)"/>
      <use xlink:href="#DejaVuSans-20" transform="translate(1462.185547 0)"/>
      <use xlink:href="#DejaVuSans-b1" transform="translate(1493.972656 0)"/>
      <use xlink:href="#DejaVuSans-31" transform="translate(1577.761719 0)"/>
      <use xlink:href="#DejaVuSans-20" transform="translate(1641.384766 0)"/>
      <use xlink:href="#DejaVuSans-53" transform="translate(1673.171875 0)"/>
      <use xlink:href="#DejaVuSans-44" transform="translate(1736.648438 0)"/>
     </g>
    </g>
    <g id="line2d_34">
     <path d="M 446.991094 70.537969 
L 457.991094 70.537969 
L 468.991094 70.537969 
" style="fill: none; stroke: #ff8c00; stroke-width: 2.3; stroke-linecap: square"/>
    </g>
    <g id="text_21">
     <!-- Social anxiety disorder (SAD) prototype -->
     <g transform="translate(477.791094 74.387969) scale(0.11 -0.11)">
      <defs>
       <path id="DejaVuSans-70" d="M 1159 525 
L 1159 -1331 
L 581 -1331 
L 581 3500 
L 1159 3500 
L 1159 2969 
Q 1341 3281 1617 3432 
Q 1894 3584 2278 3584 
Q 2916 3584 3314 3078 
Q 3713 2572 3713 1747 
Q 3713 922 3314 415 
Q 2916 -91 2278 -91 
Q 1894 -91 1617 61 
Q 1341 213 1159 525 
z
M 3116 1747 
Q 3116 2381 2855 2742 
Q 2594 3103 2138 3103 
Q 1681 3103 1420 2742 
Q 1159 2381 1159 1747 
Q 1159 1113 1420 752 
Q 1681 391 2138 391 
Q 2594 391 2855 752 
Q 3116 1113 3116 1747 
z
" transform="scale(0.015625)"/>
      </defs>
      <use xlink:href="#DejaVuSans-53"/>
      <use xlink:href="#DejaVuSans-6f" transform="translate(63.476562 0)"/>
      <use xlink:href="#DejaVuSans-63" transform="translate(124.658203 0)"/>
      <use xlink:href="#DejaVuSans-69" transform="translate(179.638672 0)"/>
      <use xlink:href="#DejaVuSans-61" transform="translate(207.421875 0)"/>
      <use xlink:href="#DejaVuSans-6c" transform="translate(268.701172 0)"/>
      <use xlink:href="#DejaVuSans-20" transform="translate(296.484375 0)"/>
      <use xlink:href="#DejaVuSans-61" transform="translate(328.271484 0)"/>
      <use xlink:href="#DejaVuSans-6e" transform="translate(389.550781 0)"/>
      <use xlink:href="#DejaVuSans-78" transform="translate(452.929688 0)"/>
      <use xlink:href="#DejaVuSans-69" transform="translate(512.109375 0)"/>
      <use xlink:href="#DejaVuSans-65" transform="translate(539.892578 0)"/>
      <use xlink:href="#DejaVuSans-74" transform="translate(601.416016 0)"/>
      <use xlink:href="#DejaVuSans-79" transform="translate(640.625 0)"/>
      <use xlink:href="#DejaVuSans-20" transform="translate(699.804688 0)"/>
      <use xlink:href="#DejaVuSans-64" transform="translate(731.591797 0)"/>
      <use xlink:href="#DejaVuSans-69" transform="translate(795.068359 0)"/>
      <use xlink:href="#DejaVuSans-73" transform="translate(822.851562 0)"/>
      <use xlink:href="#DejaVuSans-6f" transform="translate(874.951172 0)"/>
      <use xlink:href="#DejaVuSans-72" transform="translate(936.132812 0)"/>
      <use xlink:href="#DejaVuSans-64" transform="translate(975.496094 0)"/>
      <use xlink:href="#DejaVuSans-65" transform="translate(1038.972656 0)"/>
      <use xlink:href="#DejaVuSans-72" transform="translate(1100.496094 0)"/>
      <use xlink:href="#DejaVuSans-20" transform="translate(1141.609375 0)"/>
      <use xlink:href="#DejaVuSans-28" transform="translate(1173.396484 0)"/>
      <use xlink:href="#DejaVuSans-53" transform="translate(1212.410156 0)"/>
      <use xlink:href="#DejaVuSans-41" transform="translate(1277.761719 0)"/>
      <use xlink:href="#DejaVuSans-44" transform="translate(1346.169922 0)"/>
      <use xlink:href="#DejaVuSans-29" transform="translate(1423.171875 0)"/>
      <use xlink:href="#DejaVuSans-20" transform="translate(1462.185547 0)"/>
      <use xlink:href="#DejaVuSans-70" transform="translate(1493.972656 0)"/>
      <use xlink:href="#DejaVuSans-72" transform="translate(1557.449219 0)"/>
      <use xlink:href="#DejaVuSans-6f" transform="translate(1596.3125 0)"/>
      <use xlink:href="#DejaVuSans-74" transform="translate(1657.494141 0)"/>
      <use xlink:href="#DejaVuSans-6f" transform="translate(1696.703125 0)"/>
      <use xlink:href="#DejaVuSans-74" transform="translate(1757.884766 0)"/>
      <use xlink:href="#DejaVuSans-79" transform="translate(1797.09375 0)"/>
      <use xlink:href="#DejaVuSans-70" transform="translate(1856.273438 0)"/>
      <use xlink:href="#DejaVuSans-65" transform="translate(1919.75 0)"/>
     </g>
    </g>
   </g>
  </g>
 </g>
 <defs>
  <clipPath id="p65376a5f89">
   <rect x="47.307188" y="23.837812" width="658.33" height="360.28"/>
  </clipPath>
 </defs>
</svg>
