<?xml version="1.0" encoding="utf-8" standalone="no"?>
<!DOCTYPE svg PUBLIC "-//W3C//DTD SVG 1.1//EN"
  "http://www.w3.org/Graphics/SVG/1.1/DTD/svg11.dtd">
<svg xmlns:xlink="http://www.w3.org/1999/xlink" width="712.837188pt" height="424.5775pt" viewBox="0 0 712.837188 424.5775" xmlns="http://www.w3.org/2000/svg" version="1.1">
 <metadata>
  <rdf:RDF xmlns:dc="http://purl.org/dc/elements/1.1/" xmlns:cc="http://creativecommons.org/ns#" xmlns:rdf="http://www.w3.org/1999/02/22-rdf-syntax-ns#">
   <cc:Work>
    <dc:type rdf:resource="http://purl.org/dc/dcmitype/StillImage"/>
    <dc:date>2026-06-14T18:54:23.857045</dc:date>
    <dc:format>image/svg+xml</dc:format>
    <dc:creator>
     <cc:Agent>
      <dc:title>Matplotlib v3.10.1, https://matplotlib.org/</dc:title>
     </cc:Agent>
    </dc:creator>
   </cc:Work>
  </rdf:RDF>
 </metadata>
 <defs>
  <style type="text/css">*{stroke-linejoin: round; stroke-linecap: butt}</style>
 </defs>
 <g id="figure_1">
  <g id="patch_1">
   <path d="M 0 424.5775 
L 712.837188 424.5775 
L 712.837188 0 
L 0 0 
z
" style="fill: #ffffff"/>
  </g>
  <g id="axes_1">
   <g id="patch_2">
    <path d="M 47.307188 384.117812 
L 705.637188 384.117812 
L 705.637188 23.837812 
L 47.307188 23.837812 
z
" style="fill: #ffffff"/>
   </g>
   <g id="matplotlib.axis_1">
    <g id="xtick_1">
     <g id="line2d_1">
      <path d="M 47.307188 384.117812 
L 47.307188 23.837812 
" clip-path="url(#p529494e8f6)" style="fill: none; stroke: #b0b0b0; stroke-opacity: 0.2; stroke-width: 0.6; stroke-linecap: square"/>
     </g>
     <g id="line2d_2">
      <defs>
       <path id="m59ce80665d" d="M 0 0 
L 0 3.5 
" style="stroke: #000000; stroke-width: 0.8"/>
      </defs>
      <g>
       <use xlink:href="#m59ce80665d" x="47.307188" y="384.117812" style="stroke: #000000; stroke-width: 0.8"/>
      </g>
     </g>
     <g id="text_1">
      <!-- 0 -->
      <g transform="translate(43.807813 399.476094) scale(0.11 -0.11)">
       <defs>
        <path id="DejaVuSans-30" d="M 2034 4250 
Q 1547 4250 1301 3770 
Q 1056 3291 1056 2328 
Q 1056 1369 1301 889 
Q 1547 409 2034 409 
Q 2525 409 2770 889 
Q 3016 1369 3016 2328 
Q 3016 3291 2770 3770 
Q 2525 4250 2034 4250 
z
M 2034 4750 
Q 2819 4750 3233 4129 
Q 3647 3509 3647 2328 
Q 3647 1150 3233 529 
Q 2819 -91 2034 -91 
Q 1250 -91 836 529 
Q 422 1150 422 2328 
Q 422 3509 836 4129 
Q 1250 4750 2034 4750 
z
" transform="scale(0.015625)"/>
       </defs>
       <use xlink:href="#DejaVuSans-30"/>
      </g>
     </g>
    </g>
    <g id="xtick_2">
     <g id="line2d_3">
      <path d="M 133.929556 384.117812 
L 133.929556 23.837812 
" clip-path="url(#p529494e8f6)" style="fill: none; stroke: #b0b0b0; stroke-opacity: 0.2; stroke-width: 0.6; stroke-linecap: square"/>
     </g>
     <g id="line2d_4">
      <g>
       <use xlink:href="#m59ce80665d" x="133.929556" y="384.117812" style="stroke: #000000; stroke-width: 0.8"/>
      </g>
     </g>
     <g id="text_2">
      <!-- 25 -->
      <g transform="translate(126.930806 399.476094) scale(0.11 -0.11)">
       <defs>
        <path id="DejaVuSans-32" d="M 1228 531 
L 3431 531 
L 3431 0 
L 469 0 
L 469 531 
Q 828 903 1448 1529 
Q 2069 2156 2228 2338 
Q 2531 2678 2651 2914 
Q 2772 3150 2772 3378 
Q 2772 3750 2511 3984 
Q 2250 4219 1831 4219 
Q 1534 4219 1204 4116 
Q 875 4013 500 3803 
L 500 4441 
Q 881 4594 1212 4672 
Q 1544 4750 1819 4750 
Q 2544 4750 2975 4387 
Q 3406 4025 3406 3419 
Q 3406 3131 3298 2873 
Q 3191 2616 2906 2266 
Q 2828 2175 2409 1742 
Q 1991 1309 1228 531 
z
" transform="scale(0.015625)"/>
        <path id="DejaVuSans-35" d="M 691 4666 
L 3169 4666 
L 3169 4134 
L 1269 4134 
L 1269 2991 
Q 1406 3038 1543 3061 
Q 1681 3084 1819 3084 
Q 2600 3084 3056 2656 
Q 3513 2228 3513 1497 
Q 3513 744 3044 326 
Q 2575 -91 1722 -91 
Q 1428 -91 1123 -41 
Q 819 9 494 109 
L 494 744 
Q 775 591 1075 516 
Q 1375 441 1709 441 
Q 2250 441 2565 725 
Q 2881 1009 2881 1497 
Q 2881 1984 2565 2268 
Q 2250 2553 1709 2553 
Q 1456 2553 1204 2497 
Q 953 2441 691 2322 
L 691 4666 
z
" transform="scale(0.015625)"/>
       </defs>
       <use xlink:href="#DejaVuSans-32"/>
       <use xlink:href="#DejaVuSans-35" transform="translate(63.623047 0)"/>
      </g>
     </g>
    </g>
    <g id="xtick_3">
     <g id="line2d_5">
      <path d="M 220.551924 384.117812 
L 220.551924 23.837812 
" clip-path="url(#p529494e8f6)" style="fill: none; stroke: #b0b0b0; stroke-opacity: 0.2; stroke-width: 0.6; stroke-linecap: square"/>
     </g>
     <g id="line2d_6">
      <g>
       <use xlink:href="#m59ce80665d" x="220.551924" y="384.117812" style="stroke: #000000; stroke-width: 0.8"/>
      </g>
     </g>
     <g id="text_3">
      <!-- 50 -->
      <g transform="translate(213.553174 399.476094) scale(0.11 -0.11)">
       <use xlink:href="#DejaVuSans-35"/>
       <use xlink:href="#DejaVuSans-30" transform="translate(63.623047 0)"/>
      </g>
     </g>
    </g>
    <g id="xtick_4">
     <g id="line2d_7">
      <path d="M 307.174293 384.117812 
L 307.174293 23.837812 
" clip-path="url(#p529494e8f6)" style="fill: none; stroke: #b0b0b0; stroke-opacity: 0.2; stroke-width: 0.6; stroke-linecap: square"/>
     </g>
     <g id="line2d_8">
      <g>
       <use xlink:href="#m59ce80665d" x="307.174293" y="384.117812" style="stroke: #000000; stroke-width: 0.8"/>
      </g>
     </g>
     <g id="text_4">
      <!-- 75 -->
      <g transform="translate(300.175543 399.476094) scale(0.11 -0.11)">
       <defs>
        <path id="DejaVuSans-37" d="M 525 4666 
L 3525 4666 
L 3525 4397 
L 1831 0 
L 1172 0 
L 2766 4134 
L 525 4134 
L 525 4666 
z
" transform="scale(0.015625)"/>
       </defs>
       <use xlink:href="#DejaVuSans-37"/>
       <use xlink:href="#DejaVuSans-35" transform="translate(63.623047 0)"/>
      </g>
     </g>
    </g>
    <g id="xtick_5">
     <g id="line2d_9">
      <path d="M 393.796661 384.117812 
L 393.796661 23.837812 
" clip-path="url(#p529494e8f6)" style="fill: none; stroke: #b0b0b0; stroke-opacity: 0.2; stroke-width: 0.6; stroke-linecap: square"/>
     </g>
     <g id="line2d_10">
      <g>
       <use xlink:href="#m59ce80665d" x="393.796661" y="384.117812" style="stroke: #000000; stroke-width: 0.8"/>
      </g>
     </g>
     <g id="text_5">
      <!-- 100 -->
      <g transform="translate(383.298536 399.476094) scale(0.11 -0.11)">
       <defs>
        <path id="DejaVuSans-31" d="M 794 531 
L 1825 531 
L 1825 4091 
L 703 3866 
L 703 4441 
L 1819 4666 
L 2450 4666 
L 2450 531 
L 3481 531 
L 3481 0 
L 794 0 
L 794 531 
z
" transform="scale(0.015625)"/>
       </defs>
       <use xlink:href="#DejaVuSans-31"/>
       <use xlink:href="#DejaVuSans-30" transform="translate(63.623047 0)"/>
       <use xlink:href="#DejaVuSans-30" transform="translate(127.246094 0)"/>
      </g>
     </g>
    </g>
    <g id="xtick_6">
     <g id="line2d_11">
      <path d="M 480.41903 384.117812 
L 480.41903 23.837812 
" clip-path="url(#p529494e8f6)" style="fill: none; stroke: #b0b0b0; stroke-opacity: 0.2; stroke-width: 0.6; stroke-linecap: square"/>
     </g>
     <g id="line2d_12">
      <g>
       <use xlink:href="#m59ce80665d" x="480.41903" y="384.117812" style="stroke: #000000; stroke-width: 0.8"/>
      </g>
     </g>
     <g id="text_6">
      <!-- 125 -->
      <g transform="translate(469.920905 399.476094) scale(0.11 -0.11)">
       <use xlink:href="#DejaVuSans-31"/>
       <use xlink:href="#DejaVuSans-32" transform="translate(63.623047 0)"/>
       <use xlink:href="#DejaVuSans-35" transform="translate(127.246094 0)"/>
      </g>
     </g>
    </g>
    <g id="xtick_7">
     <g id="line2d_13">
      <path d="M 567.041398 384.117812 
L 567.041398 23.837812 
" clip-path="url(#p529494e8f6)" style="fill: none; stroke: #b0b0b0; stroke-opacity: 0.2; stroke-width: 0.6; stroke-linecap: square"/>
     </g>
     <g id="line2d_14">
      <g>
       <use xlink:href="#m59ce80665d" x="567.041398" y="384.117812" style="stroke: #000000; stroke-width: 0.8"/>
      </g>
     </g>
     <g id="text_7">
      <!-- 150 -->
      <g transform="translate(556.543273 399.476094) scale(0.11 -0.11)">
       <use xlink:href="#DejaVuSans-31"/>
       <use xlink:href="#DejaVuSans-35" transform="translate(63.623047 0)"/>
       <use xlink:href="#DejaVuSans-30" transform="translate(127.246094 0)"/>
      </g>
     </g>
    </g>
    <g id="xtick_8">
     <g id="line2d_15">
      <path d="M 653.663766 384.117812 
L 653.663766 23.837812 
" clip-path="url(#p529494e8f6)" style="fill: none; stroke: #b0b0b0; stroke-opacity: 0.2; stroke-width: 0.6; stroke-linecap: square"/>
     </g>
     <g id="line2d_16">
      <g>
       <use xlink:href="#m59ce80665d" x="653.663766" y="384.117812" style="stroke: #000000; stroke-width: 0.8"/>
      </g>
     </g>
     <g id="text_8">
      <!-- 175 -->
      <g transform="translate(643.165641 399.476094) scale(0.11 -0.11)">
       <use xlink:href="#DejaVuSans-31"/>
       <use xlink:href="#DejaVuSans-37" transform="translate(63.623047 0)"/>
       <use xlink:href="#DejaVuSans-35" transform="translate(127.246094 0)"/>
      </g>
     </g>
    </g>
    <g id="text_9">
     <!-- Time (s) -->
     <g transform="translate(352.0775 414.881875) scale(0.12 -0.12)">
      <defs>
       <path id="DejaVuSans-54" d="M -19 4666 
L 3928 4666 
L 3928 4134 
L 2272 4134 
L 2272 0 
L 1638 0 
L 1638 4134 
L -19 4134 
L -19 4666 
z
" transform="scale(0.015625)"/>
       <path id="DejaVuSans-69" d="M 603 3500 
L 1178 3500 
L 1178 0 
L 603 0 
L 603 3500 
z
M 603 4863 
L 1178 4863 
L 1178 4134 
L 603 4134 
L 603 4863 
z
" transform="scale(0.015625)"/>
       <path id="DejaVuSans-6d" d="M 3328 2828 
Q 3544 3216 3844 3400 
Q 4144 3584 4550 3584 
Q 5097 3584 5394 3201 
Q 5691 2819 5691 2113 
L 5691 0 
L 5113 0 
L 5113 2094 
Q 5113 2597 4934 2840 
Q 4756 3084 4391 3084 
Q 3944 3084 3684 2787 
Q 3425 2491 3425 1978 
L 3425 0 
L 2847 0 
L 2847 2094 
Q 2847 2600 2669 2842 
Q 2491 3084 2119 3084 
Q 1678 3084 1418 2786 
Q 1159 2488 1159 1978 
L 1159 0 
L 581 0 
L 581 3500 
L 1159 3500 
L 1159 2956 
Q 1356 3278 1631 3431 
Q 1906 3584 2284 3584 
Q 2666 3584 2933 3390 
Q 3200 3197 3328 2828 
z
" transform="scale(0.015625)"/>
       <path id="DejaVuSans-65" d="M 3597 1894 
L 3597 1613 
L 953 1613 
Q 991 1019 1311 708 
Q 1631 397 2203 397 
Q 2534 397 2845 478 
Q 3156 559 3463 722 
L 3463 178 
Q 3153 47 2828 -22 
Q 2503 -91 2169 -91 
Q 1331 -91 842 396 
Q 353 884 353 1716 
Q 353 2575 817 3079 
Q 1281 3584 2069 3584 
Q 2775 3584 3186 3129 
Q 3597 2675 3597 1894 
z
M 3022 2063 
Q 3016 2534 2758 2815 
Q 2500 3097 2075 3097 
Q 1594 3097 1305 2825 
Q 1016 2553 972 2059 
L 3022 2063 
z
" transform="scale(0.015625)"/>
       <path id="DejaVuSans-20" transform="scale(0.015625)"/>
       <path id="DejaVuSans-28" d="M 1984 4856 
Q 1566 4138 1362 3434 
Q 1159 2731 1159 2009 
Q 1159 1288 1364 580 
Q 1569 -128 1984 -844 
L 1484 -844 
Q 1016 -109 783 600 
Q 550 1309 550 2009 
Q 550 2706 781 3412 
Q 1013 4119 1484 4856 
L 1984 4856 
z
" transform="scale(0.015625)"/>
       <path id="DejaVuSans-73" d="M 2834 3397 
L 2834 2853 
Q 2591 2978 2328 3040 
Q 2066 3103 1784 3103 
Q 1356 3103 1142 2972 
Q 928 2841 928 2578 
Q 928 2378 1081 2264 
Q 1234 2150 1697 2047 
L 1894 2003 
Q 2506 1872 2764 1633 
Q 3022 1394 3022 966 
Q 3022 478 2636 193 
Q 2250 -91 1575 -91 
Q 1294 -91 989 -36 
Q 684 19 347 128 
L 347 722 
Q 666 556 975 473 
Q 1284 391 1588 391 
Q 1994 391 2212 530 
Q 2431 669 2431 922 
Q 2431 1156 2273 1281 
Q 2116 1406 1581 1522 
L 1381 1569 
Q 847 1681 609 1914 
Q 372 2147 372 2553 
Q 372 3047 722 3315 
Q 1072 3584 1716 3584 
Q 2034 3584 2315 3537 
Q 2597 3491 2834 3397 
z
" transform="scale(0.015625)"/>
       <path id="DejaVuSans-29" d="M 513 4856 
L 1013 4856 
Q 1481 4119 1714 3412 
Q 1947 2706 1947 2009 
Q 1947 1309 1714 600 
Q 1481 -109 1013 -844 
L 513 -844 
Q 928 -128 1133 580 
Q 1338 1288 1338 2009 
Q 1338 2731 1133 3434 
Q 928 4138 513 4856 
z
" transform="scale(0.015625)"/>
      </defs>
      <use xlink:href="#DejaVuSans-54"/>
      <use xlink:href="#DejaVuSans-69" transform="translate(57.958984 0)"/>
      <use xlink:href="#DejaVuSans-6d" transform="translate(85.742188 0)"/>
      <use xlink:href="#DejaVuSans-65" transform="translate(183.154297 0)"/>
      <use xlink:href="#DejaVuSans-20" transform="translate(244.677734 0)"/>
      <use xlink:href="#DejaVuSans-28" transform="translate(276.464844 0)"/>
      <use xlink:href="#DejaVuSans-73" transform="translate(315.478516 0)"/>
      <use xlink:href="#DejaVuSans-29" transform="translate(367.578125 0)"/>
     </g>
    </g>
   </g>
   <g id="matplotlib.axis_2">
    <g id="ytick_1">
     <g id="line2d_17">
      <path d="M 47.307188 367.741449 
L 705.637188 367.741449 
" clip-path="url(#p529494e8f6)" style="fill: none; stroke: #b0b0b0; stroke-opacity: 0.2; stroke-width: 0.6; stroke-linecap: square"/>
     </g>
     <g id="line2d_18">
      <defs>
       <path id="mb728f1f788" d="M 0 0 
L -3.5 0 
" style="stroke: #000000; stroke-width: 0.8"/>
      </defs>
      <g>
       <use xlink:href="#mb728f1f788" x="47.307188" y="367.741449" style="stroke: #000000; stroke-width: 0.8"/>
      </g>
     </g>
     <g id="text_10">
      <!-- 0.0 -->
      <g transform="translate(22.81375 371.920589) scale(0.11 -0.11)">
       <defs>
        <path id="DejaVuSans-2e" d="M 684 794 
L 1344 794 
L 1344 0 
L 684 0 
L 684 794 
z
" transform="scale(0.015625)"/>
       </defs>
       <use xlink:href="#DejaVuSans-30"/>
       <use xlink:href="#DejaVuSans-2e" transform="translate(63.623047 0)"/>
       <use xlink:href="#DejaVuSans-30" transform="translate(95.410156 0)"/>
      </g>
     </g>
    </g>
    <g id="ytick_2">
     <g id="line2d_19">
      <path d="M 47.307188 317.507205 
L 705.637188 317.507205 
" clip-path="url(#p529494e8f6)" style="fill: none; stroke: #b0b0b0; stroke-opacity: 0.2; stroke-width: 0.6; stroke-linecap: square"/>
     </g>
     <g id="line2d_20">
      <g>
       <use xlink:href="#mb728f1f788" x="47.307188" y="317.507205" style="stroke: #000000; stroke-width: 0.8"/>
      </g>
     </g>
     <g id="text_11">
      <!-- 0.5 -->
      <g transform="translate(22.81375 321.686345) scale(0.11 -0.11)">
       <use xlink:href="#DejaVuSans-30"/>
       <use xlink:href="#DejaVuSans-2e" transform="translate(63.623047 0)"/>
       <use xlink:href="#DejaVuSans-35" transform="translate(95.410156 0)"/>
      </g>
     </g>
    </g>
    <g id="ytick_3">
     <g id="line2d_21">
      <path d="M 47.307188 267.27296 
L 705.637188 267.27296 
" clip-path="url(#p529494e8f6)" style="fill: none; stroke: #b0b0b0; stroke-opacity: 0.2; stroke-width: 0.6; stroke-linecap: square"/>
     </g>
     <g id="line2d_22">
      <g>
       <use xlink:href="#mb728f1f788" x="47.307188" y="267.27296" style="stroke: #000000; stroke-width: 0.8"/>
      </g>
     </g>
     <g id="text_12">
      <!-- 1.0 -->
      <g transform="translate(22.81375 271.452101) scale(0.11 -0.11)">
       <use xlink:href="#DejaVuSans-31"/>
       <use xlink:href="#DejaVuSans-2e" transform="translate(63.623047 0)"/>
       <use xlink:href="#DejaVuSans-30" transform="translate(95.410156 0)"/>
      </g>
     </g>
    </g>
    <g id="ytick_4">
     <g id="line2d_23">
      <path d="M 47.307188 217.038716 
L 705.637188 217.038716 
" clip-path="url(#p529494e8f6)" style="fill: none; stroke: #b0b0b0; stroke-opacity: 0.2; stroke-width: 0.6; stroke-linecap: square"/>
     </g>
     <g id="line2d_24">
      <g>
       <use xlink:href="#mb728f1f788" x="47.307188" y="217.038716" style="stroke: #000000; stroke-width: 0.8"/>
      </g>
     </g>
     <g id="text_13">
      <!-- 1.5 -->
      <g transform="translate(22.81375 221.217857) scale(0.11 -0.11)">
       <use xlink:href="#DejaVuSans-31"/>
       <use xlink:href="#DejaVuSans-2e" transform="translate(63.623047 0)"/>
       <use xlink:href="#DejaVuSans-35" transform="translate(95.410156 0)"/>
      </g>
     </g>
    </g>
    <g id="ytick_5">
     <g id="line2d_25">
      <path d="M 47.307188 166.804472 
L 705.637188 166.804472 
" clip-path="url(#p529494e8f6)" style="fill: none; stroke: #b0b0b0; stroke-opacity: 0.2; stroke-width: 0.6; stroke-linecap: square"/>
     </g>
     <g id="line2d_26">
      <g>
       <use xlink:href="#mb728f1f788" x="47.307188" y="166.804472" style="stroke: #000000; stroke-width: 0.8"/>
      </g>
     </g>
     <g id="text_14">
      <!-- 2.0 -->
      <g transform="translate(22.81375 170.983612) scale(0.11 -0.11)">
       <use xlink:href="#DejaVuSans-32"/>
       <use xlink:href="#DejaVuSans-2e" transform="translate(63.623047 0)"/>
       <use xlink:href="#DejaVuSans-30" transform="translate(95.410156 0)"/>
      </g>
     </g>
    </g>
    <g id="ytick_6">
     <g id="line2d_27">
      <path d="M 47.307188 116.570227 
L 705.637188 116.570227 
" clip-path="url(#p529494e8f6)" style="fill: none; stroke: #b0b0b0; stroke-opacity: 0.2; stroke-width: 0.6; stroke-linecap: square"/>
     </g>
     <g id="line2d_28">
      <g>
       <use xlink:href="#mb728f1f788" x="47.307188" y="116.570227" style="stroke: #000000; stroke-width: 0.8"/>
      </g>
     </g>
     <g id="text_15">
      <!-- 2.5 -->
      <g transform="translate(22.81375 120.749368) scale(0.11 -0.11)">
       <use xlink:href="#DejaVuSans-32"/>
       <use xlink:href="#DejaVuSans-2e" transform="translate(63.623047 0)"/>
       <use xlink:href="#DejaVuSans-35" transform="translate(95.410156 0)"/>
      </g>
     </g>
    </g>
    <g id="ytick_7">
     <g id="line2d_29">
      <path d="M 47.307188 66.335983 
L 705.637188 66.335983 
" clip-path="url(#p529494e8f6)" style="fill: none; stroke: #b0b0b0; stroke-opacity: 0.2; stroke-width: 0.6; stroke-linecap: square"/>
     </g>
     <g id="line2d_30">
      <g>
       <use xlink:href="#mb728f1f788" x="47.307188" y="66.335983" style="stroke: #000000; stroke-width: 0.8"/>
      </g>
     </g>
     <g id="text_16">
      <!-- 3.0 -->
      <g transform="translate(22.81375 70.515124) scale(0.11 -0.11)">
       <defs>
        <path id="DejaVuSans-33" d="M 2597 2516 
Q 3050 2419 3304 2112 
Q 3559 1806 3559 1356 
Q 3559 666 3084 287 
Q 2609 -91 1734 -91 
Q 1441 -91 1130 -33 
Q 819 25 488 141 
L 488 750 
Q 750 597 1062 519 
Q 1375 441 1716 441 
Q 2309 441 2620 675 
Q 2931 909 2931 1356 
Q 2931 1769 2642 2001 
Q 2353 2234 1838 2234 
L 1294 2234 
L 1294 2753 
L 1863 2753 
Q 2328 2753 2575 2939 
Q 2822 3125 2822 3475 
Q 2822 3834 2567 4026 
Q 2313 4219 1838 4219 
Q 1578 4219 1281 4162 
Q 984 4106 628 3988 
L 628 4550 
Q 988 4650 1302 4700 
Q 1616 4750 1894 4750 
Q 2613 4750 3031 4423 
Q 3450 4097 3450 3541 
Q 3450 3153 3228 2886 
Q 3006 2619 2597 2516 
z
" transform="scale(0.015625)"/>
       </defs>
       <use xlink:href="#DejaVuSans-33"/>
       <use xlink:href="#DejaVuSans-2e" transform="translate(63.623047 0)"/>
       <use xlink:href="#DejaVuSans-30" transform="translate(95.410156 0)"/>
      </g>
     </g>
    </g>
    <g id="text_17">
     <!-- AU mean intensity -->
     <g transform="translate(16.318125 259.314687) rotate(-90) scale(0.12 -0.12)">
      <defs>
       <path id="DejaVuSans-41" d="M 2188 4044 
L 1331 1722 
L 3047 1722 
L 2188 4044 
z
M 1831 4666 
L 2547 4666 
L 4325 0 
L 3669 0 
L 3244 1197 
L 1141 1197 
L 716 0 
L 50 0 
L 1831 4666 
z
" transform="scale(0.015625)"/>
       <path id="DejaVuSans-55" d="M 556 4666 
L 1191 4666 
L 1191 1831 
Q 1191 1081 1462 751 
Q 1734 422 2344 422 
Q 2950 422 3222 751 
Q 3494 1081 3494 1831 
L 3494 4666 
L 4128 4666 
L 4128 1753 
Q 4128 841 3676 375 
Q 3225 -91 2344 -91 
Q 1459 -91 1007 375 
Q 556 841 556 1753 
L 556 4666 
z
" transform="scale(0.015625)"/>
       <path id="DejaVuSans-61" d="M 2194 1759 
Q 1497 1759 1228 1600 
Q 959 1441 959 1056 
Q 959 750 1161 570 
Q 1363 391 1709 391 
Q 2188 391 2477 730 
Q 2766 1069 2766 1631 
L 2766 1759 
L 2194 1759 
z
M 3341 1997 
L 3341 0 
L 2766 0 
L 2766 531 
Q 2569 213 2275 61 
Q 1981 -91 1556 -91 
Q 1019 -91 701 211 
Q 384 513 384 1019 
Q 384 1609 779 1909 
Q 1175 2209 1959 2209 
L 2766 2209 
L 2766 2266 
Q 2766 2663 2505 2880 
Q 2244 3097 1772 3097 
Q 1472 3097 1187 3025 
Q 903 2953 641 2809 
L 641 3341 
Q 956 3463 1253 3523 
Q 1550 3584 1831 3584 
Q 2591 3584 2966 3190 
Q 3341 2797 3341 1997 
z
" transform="scale(0.015625)"/>
       <path id="DejaVuSans-6e" d="M 3513 2113 
L 3513 0 
L 2938 0 
L 2938 2094 
Q 2938 2591 2744 2837 
Q 2550 3084 2163 3084 
Q 1697 3084 1428 2787 
Q 1159 2491 1159 1978 
L 1159 0 
L 581 0 
L 581 3500 
L 1159 3500 
L 1159 2956 
Q 1366 3272 1645 3428 
Q 1925 3584 2291 3584 
Q 2894 3584 3203 3211 
Q 3513 2838 3513 2113 
z
" transform="scale(0.015625)"/>
       <path id="DejaVuSans-74" d="M 1172 4494 
L 1172 3500 
L 2356 3500 
L 2356 3053 
L 1172 3053 
L 1172 1153 
Q 1172 725 1289 603 
Q 1406 481 1766 481 
L 2356 481 
L 2356 0 
L 1766 0 
Q 1100 0 847 248 
Q 594 497 594 1153 
L 594 3053 
L 172 3053 
L 172 3500 
L 594 3500 
L 594 4494 
L 1172 4494 
z
" transform="scale(0.015625)"/>
       <path id="DejaVuSans-79" d="M 2059 -325 
Q 1816 -950 1584 -1140 
Q 1353 -1331 966 -1331 
L 506 -1331 
L 506 -850 
L 844 -850 
Q 1081 -850 1212 -737 
Q 1344 -625 1503 -206 
L 1606 56 
L 191 3500 
L 800 3500 
L 1894 763 
L 2988 3500 
L 3597 3500 
L 2059 -325 
z
" transform="scale(0.015625)"/>
      </defs>
      <use xlink:href="#DejaVuSans-41"/>
      <use xlink:href="#DejaVuSans-55" transform="translate(68.408203 0)"/>
      <use xlink:href="#DejaVuSans-20" transform="translate(141.601562 0)"/>
      <use xlink:href="#DejaVuSans-6d" transform="translate(173.388672 0)"/>
      <use xlink:href="#DejaVuSans-65" transform="translate(270.800781 0)"/>
      <use xlink:href="#DejaVuSans-61" transform="translate(332.324219 0)"/>
      <use xlink:href="#DejaVuSans-6e" transform="translate(393.603516 0)"/>
      <use xlink:href="#DejaVuSans-20" transform="translate(456.982422 0)"/>
      <use xlink:href="#DejaVuSans-69" transform="translate(488.769531 0)"/>
      <use xlink:href="#DejaVuSans-6e" transform="translate(516.552734 0)"/>
      <use xlink:href="#DejaVuSans-74" transform="translate(579.931641 0)"/>
      <use xlink:href="#DejaVuSans-65" transform="translate(619.140625 0)"/>
      <use xlink:href="#DejaVuSans-6e" transform="translate(680.664062 0)"/>
      <use xlink:href="#DejaVuSans-73" transform="translate(744.042969 0)"/>
      <use xlink:href="#DejaVuSans-69" transform="translate(796.142578 0)"/>
      <use xlink:href="#DejaVuSans-74" transform="translate(823.925781 0)"/>
      <use xlink:href="#DejaVuSans-79" transform="translate(863.134766 0)"/>
     </g>
    </g>
   </g>
   <g id="FillBetweenPolyCollection_1">
    <defs>
     <path id="mae4ed5a19c" d="M 47.307188 -142.467299 
L 47.307188 -24.096753 
L 50.772082 -9.269485 
L 54.236977 26.744039 
L 57.701872 12.318434 
L 61.166766 3.503012 
L 64.631661 10.94765 
L 68.096556 6.163872 
L 71.561451 -1.032188 
L 75.026345 -10.74203 
L 78.49124 -4.76516 
L 81.956135 0.505618 
L 85.42103 -0.003593 
L 88.885924 -2.012311 
L 92.350819 -5.757882 
L 95.815714 -1.619084 
L 99.280609 4.660348 
L 102.745503 14.364138 
L 106.210398 8.063095 
L 109.675293 2.591292 
L 113.140187 -1.566317 
L 116.605082 -3.582774 
L 120.069977 -0.378057 
L 123.534872 0.206186 
L 126.999766 -2.617165 
L 130.464661 -5.800187 
L 133.929556 -4.402432 
L 137.394451 1.385349 
L 140.859345 15.63809 
L 144.32424 22.997819 
L 147.789135 32.0191 
L 151.25403 16.940173 
L 154.718924 9.553851 
L 158.183819 1.904543 
L 161.648714 -3.393158 
L 165.113609 -3.426172 
L 168.578503 6.790706 
L 172.043398 16.5842 
L 175.508293 22.299067 
L 178.973187 8.163621 
L 182.438082 10.272314 
L 185.902977 14.550524 
L 189.367872 22.840174 
L 192.832766 20.058293 
L 196.297661 11.092259 
L 199.762556 -16.517581 
L 203.227451 -5.422148 
L 206.692345 -7.272383 
L 210.15724 0.091064 
L 213.622135 -3.645433 
L 217.08703 5.26084 
L 220.551924 3.663191 
L 224.016819 9.938217 
L 227.481714 6.992853 
L 230.946609 8.44001 
L 234.411503 1.396296 
L 237.876398 9.17155 
L 241.341293 8.356363 
L 244.806187 -1.918521 
L 248.271082 -4.199742 
L 251.735977 1.870379 
L 255.200872 9.228527 
L 258.665766 -5.375008 
L 262.130661 -4.423936 
L 265.595556 0.636328 
L 269.060451 2.830753 
L 272.525345 4.39657 
L 275.99024 16.010593 
L 279.455135 17.044274 
L 282.92003 2.240008 
L 286.384924 -1.047198 
L 289.849819 0.91756 
L 293.314714 -3.874349 
L 296.779609 -4.536424 
L 300.244503 -4.316613 
L 303.709398 -4.404875 
L 307.174293 -8.236128 
L 310.639187 3.425977 
L 314.104082 0.897805 
L 317.568977 1.913405 
L 321.033872 28.11019 
L 324.498766 28.360262 
L 327.963661 26.048021 
L 331.428556 17.686933 
L 334.893451 8.793998 
L 338.358345 3.920728 
L 341.82324 6.385925 
L 345.288135 8.569196 
L 348.75303 5.554852 
L 352.217924 7.603893 
L 355.682819 2.809284 
L 359.147714 9.87358 
L 362.612609 14.386071 
L 366.077503 15.908916 
L 369.542398 17.082177 
L 373.007293 22.96035 
L 376.472188 22.648281 
L 379.937082 18.069516 
L 383.401977 12.622584 
L 386.866872 5.237846 
L 390.331766 14.670031 
L 393.796661 3.286477 
L 397.261556 11.463719 
L 400.726451 -0.886066 
L 404.191345 -11.733391 
L 407.65624 -11.807005 
L 411.121135 -2.966911 
L 414.58603 -3.538107 
L 418.050924 -6.701423 
L 421.515819 -7.837833 
L 424.980714 -9.208303 
L 428.445609 2.193836 
L 431.910503 9.238596 
L 435.375398 4.242416 
L 438.840293 4.820839 
L 442.305187 -2.379632 
L 445.770082 -3.892892 
L 449.234977 -0.430048 
L 452.699872 9.13299 
L 456.164766 -2.545285 
L 459.629661 -14.135633 
L 463.094556 -0.108528 
L 466.559451 11.411848 
L 470.024345 -0.917785 
L 473.48924 -0.723414 
L 476.954135 3.109236 
L 480.41903 3.994201 
L 483.883924 -1.704697 
L 487.348819 19.335587 
L 490.813714 13.004888 
L 494.278609 5.899643 
L 497.743503 1.277476 
L 501.208398 1.929016 
L 504.673293 -4.565389 
L 508.138188 -2.777386 
L 511.603082 8.06722 
L 515.067977 14.694063 
L 518.532872 8.058607 
L 521.997766 -6.933501 
L 525.462661 -11.512216 
L 528.927556 -11.38469 
L 532.392451 -10.257616 
L 535.857345 -4.455197 
L 539.32224 5.413038 
L 542.787135 10.61762 
L 546.25203 7.080521 
L 549.716924 -9.907777 
L 553.181819 -9.571157 
L 556.646714 -1.888891 
L 560.111609 -6.192157 
L 563.576503 -7.613904 
L 567.041398 -0.427749 
L 570.506293 1.488941 
L 573.971188 -1.27334 
L 577.436082 7.688358 
L 580.900977 4.161234 
L 584.365872 -0.361125 
L 587.830766 -1.300955 
L 591.295661 4.15443 
L 594.760556 -4.110524 
L 598.225451 -1.366454 
L 601.690345 1.724764 
L 605.15524 -6.679292 
L 608.620135 -2.287777 
L 612.08503 -4.060175 
L 615.549924 13.59869 
L 619.014819 12.393466 
L 622.479714 6.38171 
L 625.944609 9.114036 
L 629.409503 4.273197 
L 632.874398 -4.524502 
L 636.339293 -5.959141 
L 639.804188 -3.699456 
L 643.269082 -3.241654 
L 646.733977 -1.565259 
L 650.198872 5.73794 
L 653.663766 7.728271 
L 657.128661 3.518436 
L 660.593556 11.643397 
L 664.058451 12.391988 
L 667.523345 19.816208 
L 670.98824 6.869509 
L 674.453135 -3.836152 
L 677.91803 -3.864758 
L 681.382924 6.449929 
L 684.847819 1.32738 
L 688.312714 -3.56185 
L 691.777609 3.202177 
L 695.242503 8.415992 
L 698.707398 5.286423 
L 702.172293 9.928861 
L 705.637188 -42.75389 
L 705.637188 -166.865619 
L 705.637188 -166.865619 
L 702.172293 -250.910927 
L 698.707398 -273.455368 
L 695.242503 -288.961916 
L 691.777609 -274.705491 
L 688.312714 -277.093568 
L 684.847819 -298.182631 
L 681.382924 -299.738036 
L 677.91803 -279.380328 
L 674.453135 -281.47597 
L 670.98824 -302.19512 
L 667.523345 -306.947155 
L 664.058451 -300.235128 
L 660.593556 -300.852137 
L 657.128661 -271.816403 
L 653.663766 -267.009527 
L 650.198872 -263.425139 
L 646.733977 -256.48266 
L 643.269082 -250.506208 
L 639.804188 -237.559832 
L 636.339293 -248.036651 
L 632.874398 -255.14477 
L 629.409503 -270.132373 
L 625.944609 -276.155617 
L 622.479714 -268.6937 
L 619.014819 -287.192773 
L 615.549924 -287.292787 
L 612.08503 -263.545242 
L 608.620135 -262.607225 
L 605.15524 -265.356266 
L 601.690345 -262.078429 
L 598.225451 -254.599342 
L 594.760556 -238.947977 
L 591.295661 -248.593199 
L 587.830766 -256.250125 
L 584.365872 -254.937767 
L 580.900977 -255.859215 
L 577.436082 -258.551914 
L 573.971188 -236.615895 
L 570.506293 -220.470208 
L 567.041398 -221.39625 
L 563.576503 -203.493578 
L 560.111609 -198.162479 
L 556.646714 -200.62074 
L 553.181819 -194.89529 
L 549.716924 -202.533511 
L 546.25203 -229.776327 
L 542.787135 -241.999816 
L 539.32224 -228.948243 
L 535.857345 -215.340211 
L 532.392451 -195.781488 
L 528.927556 -193.965774 
L 525.462661 -196.392036 
L 521.997766 -207.666993 
L 518.532872 -243.611139 
L 515.067977 -258.486716 
L 511.603082 -249.698096 
L 508.138188 -232.575047 
L 504.673293 -232.333745 
L 501.208398 -245.362234 
L 497.743503 -243.950308 
L 494.278609 -265.156648 
L 490.813714 -291.453414 
L 487.348819 -317.240048 
L 483.883924 -315.404752 
L 480.41903 -335.352936 
L 476.954135 -314.80635 
L 473.48924 -301.263878 
L 470.024345 -289.949943 
L 466.559451 -303.564488 
L 463.094556 -285.531597 
L 459.629661 -251.694263 
L 456.164766 -267.417704 
L 452.699872 -299.379327 
L 449.234977 -257.50184 
L 445.770082 -238.664691 
L 442.305187 -241.95174 
L 438.840293 -239.598177 
L 435.375398 -234.542229 
L 431.910503 -243.362023 
L 428.445609 -231.612119 
L 424.980714 -214.523564 
L 421.515819 -223.563082 
L 418.050924 -230.196147 
L 414.58603 -231.576901 
L 411.121135 -250.257655 
L 407.65624 -236.589289 
L 404.191345 -240.237916 
L 400.726451 -260.855522 
L 397.261556 -296.565377 
L 393.796661 -267.79743 
L 390.331766 -279.464063 
L 386.866872 -254.705264 
L 383.401977 -262.240677 
L 379.937082 -273.897238 
L 376.472188 -290.184409 
L 373.007293 -295.723494 
L 369.542398 -293.917703 
L 366.077503 -267.627152 
L 362.612609 -256.415329 
L 359.147714 -239.682394 
L 355.682819 -223.495917 
L 352.217924 -230.994067 
L 348.75303 -213.043736 
L 345.288135 -222.123991 
L 341.82324 -230.010395 
L 338.358345 -228.420917 
L 334.893451 -239.038994 
L 331.428556 -260.689528 
L 327.963661 -278.562378 
L 324.498766 -283.443383 
L 321.033872 -274.967132 
L 317.568977 -225.917733 
L 314.104082 -221.053513 
L 310.639187 -224.484309 
L 307.174293 -210.320746 
L 303.709398 -213.900297 
L 300.244503 -220.054442 
L 296.779609 -224.051374 
L 293.314714 -233.842558 
L 289.849819 -249.390016 
L 286.384924 -253.959817 
L 282.92003 -266.919489 
L 279.455135 -283.806102 
L 275.99024 -286.168848 
L 272.525345 -259.837505 
L 269.060451 -252.104526 
L 265.595556 -243.332488 
L 262.130661 -228.936925 
L 258.665766 -227.95593 
L 255.200872 -241.889349 
L 251.735977 -218.987782 
L 248.271082 -203.652656 
L 244.806187 -200.150261 
L 241.341293 -220.076798 
L 237.876398 -216.942785 
L 234.411503 -205.804407 
L 230.946609 -213.638905 
L 227.481714 -205.784451 
L 224.016819 -209.531664 
L 220.551924 -211.159898 
L 217.08703 -217.465681 
L 213.622135 -202.906546 
L 210.15724 -211.446253 
L 206.692345 -193.467008 
L 203.227451 -200.240115 
L 199.762556 -186.569045 
L 196.297661 -240.607993 
L 192.832766 -254.274757 
L 189.367872 -247.340278 
L 185.902977 -226.882682 
L 182.438082 -213.386488 
L 178.973187 -208.409582 
L 175.508293 -217.708347 
L 172.043398 -206.233977 
L 168.578503 -189.682133 
L 165.113609 -171.896311 
L 161.648714 -173.077813 
L 158.183819 -195.772375 
L 154.718924 -222.448113 
L 151.25403 -246.76276 
L 147.789135 -267.193115 
L 144.32424 -218.902569 
L 140.859345 -196.504557 
L 137.394451 -175.81658 
L 133.929556 -165.671468 
L 130.464661 -164.408127 
L 126.999766 -167.897583 
L 123.534872 -175.886791 
L 120.069977 -178.83068 
L 116.605082 -172.487552 
L 113.140187 -175.871229 
L 109.675293 -183.287219 
L 106.210398 -194.353994 
L 102.745503 -202.571705 
L 99.280609 -189.154939 
L 95.815714 -179.166779 
L 92.350819 -178.68994 
L 88.885924 -187.042757 
L 85.42103 -186.950745 
L 81.956135 -188.451481 
L 78.49124 -187.46897 
L 75.026345 -178.943396 
L 71.561451 -197.860577 
L 68.096556 -216.952542 
L 64.631661 -237.082965 
L 61.166766 -237.380799 
L 57.701872 -244.770273 
L 54.236977 -258.289986 
L 50.772082 -176.368369 
L 47.307188 -142.467299 
z
" style="stroke: #d3d3d3; stroke-opacity: 0.5"/>
    </defs>
    <g clip-path="url(#p529494e8f6)">
     <use xlink:href="#mae4ed5a19c" x="0" y="424.5775" style="fill: #d3d3d3; fill-opacity: 0.5; stroke: #d3d3d3; stroke-opacity: 0.5"/>
    </g>
   </g>
   <g id="FillBetweenPolyCollection_2">
    <defs>
     <path id="mea4810b96a" d="M 47.307188 -112.874662 
L 47.307188 -53.68939 
L 50.772082 -51.044206 
L 54.236977 -44.514467 
L 57.701872 -51.953743 
L 61.166766 -56.717941 
L 64.631661 -51.060004 
L 68.096556 -49.615232 
L 71.561451 -50.239285 
L 75.026345 -52.792372 
L 78.49124 -50.441113 
L 81.956135 -46.733657 
L 85.42103 -46.740381 
L 88.885924 -48.269922 
L 92.350819 -48.990896 
L 95.815714 -46.006008 
L 99.280609 -43.793474 
L 102.745503 -39.869823 
L 106.210398 -42.541177 
L 109.675293 -43.878336 
L 113.140187 -45.142545 
L 116.605082 -45.808968 
L 120.069977 -44.991212 
L 123.534872 -43.817059 
L 126.999766 -43.937269 
L 130.464661 -45.452172 
L 133.929556 -44.719691 
L 137.394451 -42.915133 
L 140.859345 -37.397572 
L 144.32424 -37.477278 
L 147.789135 -42.783954 
L 151.25403 -48.985561 
L 154.718924 -48.44664 
L 158.183819 -47.514687 
L 161.648714 -45.814321 
L 165.113609 -45.543707 
L 168.578503 -42.327503 
L 172.043398 -39.120344 
L 175.508293 -37.702787 
L 178.973187 -45.97968 
L 182.438082 -45.642387 
L 185.902977 -45.807778 
L 189.367872 -44.704939 
L 192.832766 -48.524969 
L 196.297661 -51.832804 
L 199.762556 -59.030447 
L 203.227451 -54.12664 
L 206.692345 -53.821039 
L 210.15724 -52.793265 
L 213.622135 -53.460711 
L 217.08703 -50.42079 
L 220.551924 -50.042581 
L 224.016819 -44.929253 
L 227.481714 -46.201473 
L 230.946609 -47.079719 
L 234.411503 -50.40388 
L 237.876398 -47.357034 
L 241.341293 -48.751927 
L 244.806187 -51.476456 
L 248.271082 -54.06297 
L 251.735977 -53.344161 
L 255.200872 -53.550942 
L 258.665766 -61.020239 
L 262.130661 -60.552183 
L 265.595556 -60.355876 
L 269.060451 -60.903067 
L 272.525345 -61.661949 
L 275.99024 -59.534267 
L 279.455135 -58.16832 
L 282.92003 -65.049867 
L 286.384924 -64.275352 
L 289.849819 -61.659334 
L 293.314714 -61.366401 
L 296.779609 -59.415161 
L 300.244503 -58.25107 
L 303.709398 -56.77873 
L 307.174293 -58.757282 
L 310.639187 -53.551595 
L 314.104082 -54.590025 
L 317.568977 -55.044379 
L 321.033872 -47.65914 
L 324.498766 -49.590649 
L 327.963661 -50.104579 
L 331.428556 -51.907182 
L 334.893451 -53.16425 
L 338.358345 -54.164683 
L 341.82324 -52.713155 
L 345.288135 -49.104101 
L 348.75303 -49.094795 
L 352.217924 -52.045597 
L 355.682819 -53.767016 
L 359.147714 -52.515413 
L 362.612609 -53.314279 
L 366.077503 -54.975101 
L 369.542398 -60.667793 
L 373.007293 -56.710611 
L 376.472188 -55.559892 
L 379.937082 -54.922172 
L 383.401977 -56.093231 
L 386.866872 -59.747932 
L 390.331766 -58.863492 
L 393.796661 -64.4845 
L 397.261556 -65.543555 
L 400.726451 -65.87843 
L 404.191345 -68.859522 
L 407.65624 -68.002576 
L 411.121135 -64.789597 
L 414.58603 -60.547806 
L 418.050924 -62.575104 
L 421.515819 -61.769145 
L 424.980714 -60.537118 
L 428.445609 -56.257653 
L 431.910503 -53.911559 
L 435.375398 -55.453745 
L 438.840293 -56.283915 
L 442.305187 -62.272659 
L 445.770082 -62.585842 
L 449.234977 -64.697996 
L 452.699872 -67.995089 
L 456.164766 -68.76339 
L 459.629661 -73.52529 
L 463.094556 -71.464295 
L 466.559451 -67.332236 
L 470.024345 -73.175824 
L 473.48924 -75.85853 
L 476.954135 -76.36966 
L 480.41903 -80.842584 
L 483.883924 -80.12971 
L 487.348819 -64.808322 
L 490.813714 -63.109687 
L 494.278609 -61.86443 
L 497.743503 -60.02947 
L 501.208398 -59.893796 
L 504.673293 -61.507478 
L 508.138188 -60.226801 
L 511.603082 -56.374109 
L 515.067977 -53.601132 
L 518.532872 -54.85883 
L 521.997766 -57.116874 
L 525.462661 -57.732171 
L 528.927556 -57.029961 
L 532.392451 -56.638584 
L 535.857345 -57.176451 
L 539.32224 -53.177282 
L 542.787135 -52.536739 
L 546.25203 -52.133691 
L 549.716924 -58.06421 
L 553.181819 -55.902191 
L 556.646714 -51.571853 
L 560.111609 -54.184737 
L 563.576503 -56.583822 
L 567.041398 -55.669875 
L 570.506293 -54.000846 
L 573.971188 -60.108979 
L 577.436082 -58.87171 
L 580.900977 -60.843878 
L 584.365872 -64.005286 
L 587.830766 -65.038248 
L 591.295661 -59.032477 
L 594.760556 -62.819887 
L 598.225451 -64.674676 
L 601.690345 -64.226034 
L 605.15524 -71.348535 
L 608.620135 -67.367639 
L 612.08503 -68.931442 
L 615.549924 -61.62418 
L 619.014819 -62.503094 
L 622.479714 -62.387142 
L 625.944609 -62.203377 
L 629.409503 -64.328195 
L 632.874398 -67.179569 
L 636.339293 -66.478519 
L 639.804188 -62.16455 
L 643.269082 -65.057793 
L 646.733977 -65.294609 
L 650.198872 -61.55283 
L 653.663766 -60.956178 
L 657.128661 -65.315274 
L 660.593556 -66.480486 
L 664.058451 -65.764791 
L 667.523345 -61.874633 
L 670.98824 -70.396649 
L 674.453135 -73.246106 
L 677.91803 -72.743651 
L 681.382924 -70.097062 
L 684.847819 -73.550123 
L 688.312714 -71.944779 
L 691.777609 -66.27474 
L 695.242503 -65.928485 
L 698.707398 -64.399025 
L 702.172293 -55.281086 
L 705.637188 -73.781822 
L 705.637188 -135.837687 
L 705.637188 -135.837687 
L 702.172293 -185.70098 
L 698.707398 -203.76992 
L 695.242503 -214.617439 
L 691.777609 -205.228574 
L 688.312714 -208.710639 
L 684.847819 -223.305128 
L 681.382924 -223.191045 
L 677.91803 -210.501435 
L 674.453135 -212.066015 
L 670.98824 -224.928963 
L 667.523345 -225.256315 
L 664.058451 -222.078349 
L 660.593556 -222.728254 
L 657.128661 -202.982693 
L 653.663766 -198.325078 
L 650.198872 -196.134369 
L 646.733977 -192.753309 
L 643.269082 -188.690069 
L 639.804188 -179.094738 
L 636.339293 -187.517274 
L 632.874398 -192.489703 
L 629.409503 -201.530981 
L 625.944609 -204.838203 
L 622.479714 -199.924848 
L 619.014819 -212.296213 
L 615.549924 -212.069918 
L 612.08503 -198.673975 
L 608.620135 -197.527363 
L 605.15524 -200.687022 
L 601.690345 -196.127631 
L 598.225451 -191.29112 
L 594.760556 -180.238614 
L 591.295661 -185.406292 
L 587.830766 -192.512833 
L 584.365872 -191.293607 
L 580.900977 -190.854103 
L 577.436082 -191.991846 
L 573.971188 -177.780256 
L 570.506293 -164.98042 
L 567.041398 -166.154125 
L 563.576503 -154.523659 
L 560.111609 -150.169898 
L 556.646714 -150.937778 
L 553.181819 -148.564257 
L 549.716924 -154.377077 
L 546.25203 -170.562115 
L 542.787135 -178.845457 
L 539.32224 -170.357923 
L 535.857345 -162.618957 
L 532.392451 -149.40052 
L 528.927556 -148.320503 
L 525.462661 -150.172081 
L 521.997766 -157.48362 
L 518.532872 -180.693703 
L 515.067977 -190.191521 
L 511.603082 -185.256767 
L 508.138188 -175.125632 
L 504.673293 -175.391656 
L 501.208398 -183.539422 
L 497.743503 -182.643362 
L 494.278609 -197.392575 
L 490.813714 -215.338838 
L 487.348819 -233.096139 
L 483.883924 -236.979738 
L 480.41903 -250.516152 
L 476.954135 -235.327453 
L 473.48924 -226.128762 
L 470.024345 -217.691903 
L 466.559451 -224.820404 
L 463.094556 -214.17583 
L 459.629661 -192.304606 
L 456.164766 -201.1996 
L 452.699872 -222.251248 
L 449.234977 -193.233892 
L 445.770082 -179.971741 
L 442.305187 -182.058713 
L 438.840293 -178.493423 
L 435.375398 -174.846068 
L 431.910503 -180.211868 
L 428.445609 -173.16063 
L 424.980714 -163.194749 
L 421.515819 -169.63177 
L 418.050924 -174.322466 
L 414.58603 -174.567203 
L 411.121135 -188.434969 
L 407.65624 -180.393718 
L 404.191345 -183.111785 
L 400.726451 -195.863158 
L 397.261556 -219.558103 
L 393.796661 -200.026454 
L 390.331766 -205.930539 
L 386.866872 -189.719486 
L 383.401977 -193.524862 
L 379.937082 -200.905549 
L 376.472188 -211.976236 
L 373.007293 -216.052533 
L 369.542398 -216.167733 
L 366.077503 -196.743135 
L 362.612609 -188.714979 
L 359.147714 -177.2934 
L 355.682819 -166.919617 
L 352.217924 -171.344577 
L 348.75303 -158.394089 
L 345.288135 -164.450694 
L 341.82324 -170.911315 
L 338.358345 -170.335506 
L 334.893451 -177.080746 
L 331.428556 -191.095413 
L 327.963661 -202.409778 
L 324.498766 -205.492471 
L 321.033872 -199.197801 
L 317.568977 -168.959948 
L 314.104082 -165.565684 
L 310.639187 -167.506738 
L 307.174293 -159.799591 
L 303.709398 -161.526441 
L 300.244503 -166.119985 
L 296.779609 -169.172636 
L 293.314714 -176.350506 
L 289.849819 -186.813122 
L 286.384924 -190.731662 
L 282.92003 -199.629615 
L 279.455135 -208.593508 
L 275.99024 -210.623988 
L 272.525345 -193.778986 
L 269.060451 -188.370706 
L 265.595556 -182.340284 
L 262.130661 -172.808678 
L 258.665766 -172.310699 
L 255.200872 -179.10988 
L 251.735977 -163.773242 
L 248.271082 -153.789427 
L 244.806187 -150.592326 
L 241.341293 -162.968507 
L 237.876398 -160.414201 
L 234.411503 -154.004231 
L 230.946609 -158.119176 
L 227.481714 -152.590125 
L 224.016819 -154.664193 
L 220.551924 -157.454126 
L 217.08703 -161.78405 
L 213.622135 -153.091268 
L 210.15724 -158.561924 
L 206.692345 -146.918352 
L 203.227451 -151.535623 
L 199.762556 -144.056179 
L 196.297661 -177.68293 
L 192.832766 -185.691494 
L 189.367872 -179.795165 
L 185.902977 -166.52438 
L 182.438082 -157.471788 
L 178.973187 -154.266281 
L 175.508293 -157.706494 
L 172.043398 -150.529432 
L 168.578503 -140.563923 
L 165.113609 -129.778777 
L 161.648714 -130.656649 
L 158.183819 -146.353146 
L 154.718924 -164.447622 
L 151.25403 -180.837027 
L 147.789135 -192.390061 
L 144.32424 -158.427472 
L 140.859345 -143.468895 
L 137.394451 -131.516098 
L 133.929556 -125.354209 
L 130.464661 -124.756142 
L 126.999766 -126.577479 
L 123.534872 -131.863547 
L 120.069977 -134.217524 
L 116.605082 -130.261358 
L 113.140187 -132.295001 
L 109.675293 -136.817591 
L 106.210398 -143.749722 
L 102.745503 -148.337744 
L 99.280609 -140.701118 
L 95.815714 -134.779855 
L 92.350819 -135.456926 
L 88.885924 -140.785145 
L 85.42103 -140.213957 
L 81.956135 -141.212206 
L 78.49124 -141.793017 
L 75.026345 -136.893055 
L 71.561451 -148.65348 
L 68.096556 -161.173439 
L 64.631661 -175.075312 
L 61.166766 -177.159847 
L 57.701872 -180.498096 
L 54.236977 -187.031479 
L 50.772082 -134.593648 
L 47.307188 -112.874662 
z
" style="stroke: #808080; stroke-opacity: 0.7"/>
    </defs>
    <g clip-path="url(#p529494e8f6)">
     <use xlink:href="#mea4810b96a" x="0" y="424.5775" style="fill: #808080; fill-opacity: 0.7; stroke: #808080; stroke-opacity: 0.7"/>
    </g>
   </g>
   <g id="line2d_31">
    <path d="M 47.307188 367.741449 
L 50.772082 353.443149 
L 54.236977 272.694097 
L 57.701872 254.422718 
L 61.166766 314.65984 
L 64.631661 329.814327 
L 68.096556 339.45068 
L 71.561451 365.068376 
L 75.026345 367.353519 
L 78.49124 367.741449 
L 189.367872 367.741449 
L 192.832766 365.349189 
L 196.297661 328.915069 
L 199.762556 348.763505 
L 203.227451 311.028954 
L 206.692345 308.522264 
L 210.15724 339.955796 
L 213.622135 341.173473 
L 217.08703 352.203451 
L 220.551924 352.930606 
L 224.016819 350.428738 
L 227.481714 359.751284 
L 230.946609 339.194586 
L 234.411503 336.68512 
L 237.876398 360.254945 
L 241.341293 357.332456 
L 244.806187 361.315881 
L 248.271082 363.906241 
L 251.735977 362.067766 
L 255.200872 359.358518 
L 258.665766 364.714278 
L 262.130661 354.627293 
L 265.595556 283.088145 
L 269.060451 230.264267 
L 272.525345 264.504792 
L 275.99024 304.470804 
L 279.455135 309.754881 
L 282.92003 296.794276 
L 286.384924 309.190161 
L 289.849819 335.663352 
L 293.314714 347.253501 
L 296.779609 345.962699 
L 300.244503 345.29304 
L 303.709398 356.470362 
L 307.174293 358.087739 
L 310.639187 360.385902 
L 314.104082 357.828092 
L 317.568977 362.530237 
L 321.033872 362.273868 
L 324.498766 360.278738 
L 327.963661 355.618496 
L 331.428556 357.230472 
L 334.893451 361.944201 
L 338.358345 363.951553 
L 341.82324 364.674517 
L 345.288135 364.412388 
L 348.75303 363.576341 
L 355.682819 366.835812 
L 359.147714 364.319637 
L 362.612609 366.751606 
L 366.077503 364.266216 
L 369.542398 313.589527 
L 373.007293 340.158235 
L 376.472188 345.255508 
L 379.937082 338.541001 
L 383.401977 337.395622 
L 386.866872 335.278201 
L 390.331766 336.620012 
L 393.796661 324.636623 
L 397.261556 281.886278 
L 400.726451 327.400857 
L 404.191345 272.126318 
L 407.65624 283.851181 
L 414.58603 330.418441 
L 418.050924 309.440827 
L 421.515819 262.32782 
L 424.980714 318.959351 
L 428.445609 300.425328 
L 431.910503 333.458363 
L 435.375398 303.961756 
L 438.840293 330.953636 
L 442.305187 286.26773 
L 445.770082 316.330384 
L 449.234977 292.913002 
L 452.699872 288.476139 
L 456.164766 269.040065 
L 463.094556 303.107932 
L 466.559451 288.051347 
L 470.024345 297.687317 
L 473.48924 353.206377 
L 476.954135 346.625908 
L 480.41903 214.099586 
L 483.883924 204.63061 
L 487.348819 328.428901 
L 490.813714 328.436685 
L 494.278609 324.981263 
L 497.743503 317.469342 
L 501.208398 321.640457 
L 504.673293 309.437792 
L 508.138188 328.357804 
L 511.603082 332.808191 
L 515.067977 341.472934 
L 518.532872 336.760347 
L 521.997766 333.733664 
L 525.462661 328.44717 
L 528.927556 323.705185 
L 532.392451 333.197175 
L 535.857345 345.541173 
L 539.32224 353.401498 
L 542.787135 340.967066 
L 546.25203 335.727126 
L 549.716924 336.181454 
L 553.181819 347.255694 
L 556.646714 341.42522 
L 560.111609 341.408727 
L 563.576503 345.578679 
L 567.041398 346.243424 
L 570.506293 340.571329 
L 573.971188 348.1087 
L 577.436082 337.422872 
L 580.900977 332.893307 
L 584.365872 317.773411 
L 587.830766 283.499586 
L 591.295661 284.641449 
L 594.760556 358.761862 
L 598.225451 340.494042 
L 601.690345 338.042263 
L 605.15524 293.82535 
L 608.620135 278.508661 
L 612.08503 320.780384 
L 615.549924 286.014146 
L 619.014819 302.56565 
L 625.944609 262.002993 
L 629.409503 209.835181 
L 632.874398 309.430047 
L 636.339293 335.125212 
L 639.804188 318.544513 
L 643.269082 296.234141 
L 646.733977 288.867591 
L 650.198872 296.015017 
L 653.663766 277.306904 
L 657.128661 230.868655 
L 660.593556 229.155525 
L 664.058451 238.278899 
L 667.523345 314.793456 
L 670.98824 278.946507 
L 674.453135 292.075421 
L 677.91803 307.070472 
L 681.382924 314.725246 
L 684.847819 313.569349 
L 688.312714 296.813305 
L 691.777609 291.401286 
L 695.242503 254.744017 
L 698.707398 297.937133 
L 702.172293 266.725366 
L 705.637188 265.841975 
L 705.637188 265.841975 
" clip-path="url(#p529494e8f6)" style="fill: none; stroke: #ff8c00; stroke-width: 2.3; stroke-linecap: square"/>
   </g>
   <g id="line2d_32">
    <path d="M 275.99024 384.117812 
L 275.99024 23.837812 
" clip-path="url(#p529494e8f6)" style="fill: none; stroke-dasharray: 5.55,2.4; stroke-dashoffset: 0; stroke: #808080; stroke-width: 1.5"/>
   </g>
   <g id="line2d_33">
    <path d="M 473.48924 384.117812 
L 473.48924 23.837812 
" clip-path="url(#p529494e8f6)" style="fill: none; stroke-dasharray: 5.55,2.4; stroke-dashoffset: 0; stroke: #808080; stroke-width: 1.5"/>
   </g>
   <g id="patch_3">
    <path d="M 47.307188 384.117812 
L 47.307188 23.837812 
" style="fill: none; stroke: #000000; stroke-width: 0.8; stroke-linejoin: miter; stroke-linecap: square"/>
   </g>
   <g id="patch_4">
    <path d="M 705.637188 384.117812 
L 705.637188 23.837812 
" style="fill: none; stroke: #000000; stroke-width: 0.8; stroke-linejoin: miter; stroke-linecap: square"/>
   </g>
   <g id="patch_5">
    <path d="M 47.307188 384.117812 
L 705.637188 384.117812 
" style="fill: none; stroke: #000000; stroke-width: 0.8; stroke-linejoin: miter; stroke-linecap: square"/>
   </g>
   <g id="patch_6">
    <path d="M 47.307188 23.837812 
L 705.637188 23.837812 
" style="fill: none; stroke: #000000; stroke-width: 0.8; stroke-linejoin: miter; stroke-linecap: square"/>
   </g>
   <g id="text_18">
    <!-- Facial trace: Control group (female) -->
    <g transform="translate(252.222188 17.837812) scale(0.14 -0.14)">
     <defs>
      <path id="DejaVuSans-46" d="M 628 4666 
L 3309 4666 
L 3309 4134 
L 1259 4134 
L 1259 2759 
L 3109 2759 
L 3109 2228 
L 1259 2228 
L 1259 0 
L 628 0 
L 628 4666 
z
" transform="scale(0.015625)"/>
      <path id="DejaVuSans-63" d="M 3122 3366 
L 3122 2828 
Q 2878 2963 2633 3030 
Q 2388 3097 2138 3097 
Q 1578 3097 1268 2742 
Q 959 2388 959 1747 
Q 959 1106 1268 751 
Q 1578 397 2138 397 
Q 2388 397 2633 464 
Q 2878 531 3122 666 
L 3122 134 
Q 2881 22 2623 -34 
Q 2366 -91 2075 -91 
Q 1284 -91 818 406 
Q 353 903 353 1747 
Q 353 2603 823 3093 
Q 1294 3584 2113 3584 
Q 2378 3584 2631 3529 
Q 2884 3475 3122 3366 
z
" transform="scale(0.015625)"/>
      <path id="DejaVuSans-6c" d="M 603 4863 
L 1178 4863 
L 1178 0 
L 603 0 
L 603 4863 
z
" transform="scale(0.015625)"/>
      <path id="DejaVuSans-72" d="M 2631 2963 
Q 2534 3019 2420 3045 
Q 2306 3072 2169 3072 
Q 1681 3072 1420 2755 
Q 1159 2438 1159 1844 
L 1159 0 
L 581 0 
L 581 3500 
L 1159 3500 
L 1159 2956 
Q 1341 3275 1631 3429 
Q 1922 3584 2338 3584 
Q 2397 3584 2469 3576 
Q 2541 3569 2628 3553 
L 2631 2963 
z
" transform="scale(0.015625)"/>
      <path id="DejaVuSans-3a" d="M 750 794 
L 1409 794 
L 1409 0 
L 750 0 
L 750 794 
z
M 750 3309 
L 1409 3309 
L 1409 2516 
L 750 2516 
L 750 3309 
z
" transform="scale(0.015625)"/>
      <path id="DejaVuSans-43" d="M 4122 4306 
L 4122 3641 
Q 3803 3938 3442 4084 
Q 3081 4231 2675 4231 
Q 1875 4231 1450 3742 
Q 1025 3253 1025 2328 
Q 1025 1406 1450 917 
Q 1875 428 2675 428 
Q 3081 428 3442 575 
Q 3803 722 4122 1019 
L 4122 359 
Q 3791 134 3420 21 
Q 3050 -91 2638 -91 
Q 1578 -91 968 557 
Q 359 1206 359 2328 
Q 359 3453 968 4101 
Q 1578 4750 2638 4750 
Q 3056 4750 3426 4639 
Q 3797 4528 4122 4306 
z
" transform="scale(0.015625)"/>
      <path id="DejaVuSans-6f" d="M 1959 3097 
Q 1497 3097 1228 2736 
Q 959 2375 959 1747 
Q 959 1119 1226 758 
Q 1494 397 1959 397 
Q 2419 397 2687 759 
Q 2956 1122 2956 1747 
Q 2956 2369 2687 2733 
Q 2419 3097 1959 3097 
z
M 1959 3584 
Q 2709 3584 3137 3096 
Q 3566 2609 3566 1747 
Q 3566 888 3137 398 
Q 2709 -91 1959 -91 
Q 1206 -91 779 398 
Q 353 888 353 1747 
Q 353 2609 779 3096 
Q 1206 3584 1959 3584 
z
" transform="scale(0.015625)"/>
      <path id="DejaVuSans-67" d="M 2906 1791 
Q 2906 2416 2648 2759 
Q 2391 3103 1925 3103 
Q 1463 3103 1205 2759 
Q 947 2416 947 1791 
Q 947 1169 1205 825 
Q 1463 481 1925 481 
Q 2391 481 2648 825 
Q 2906 1169 2906 1791 
z
M 3481 434 
Q 3481 -459 3084 -895 
Q 2688 -1331 1869 -1331 
Q 1566 -1331 1297 -1286 
Q 1028 -1241 775 -1147 
L 775 -588 
Q 1028 -725 1275 -790 
Q 1522 -856 1778 -856 
Q 2344 -856 2625 -561 
Q 2906 -266 2906 331 
L 2906 616 
Q 2728 306 2450 153 
Q 2172 0 1784 0 
Q 1141 0 747 490 
Q 353 981 353 1791 
Q 353 2603 747 3093 
Q 1141 3584 1784 3584 
Q 2172 3584 2450 3431 
Q 2728 3278 2906 2969 
L 2906 3500 
L 3481 3500 
L 3481 434 
z
" transform="scale(0.015625)"/>
      <path id="DejaVuSans-75" d="M 544 1381 
L 544 3500 
L 1119 3500 
L 1119 1403 
Q 1119 906 1312 657 
Q 1506 409 1894 409 
Q 2359 409 2629 706 
Q 2900 1003 2900 1516 
L 2900 3500 
L 3475 3500 
L 3475 0 
L 2900 0 
L 2900 538 
Q 2691 219 2414 64 
Q 2138 -91 1772 -91 
Q 1169 -91 856 284 
Q 544 659 544 1381 
z
M 1991 3584 
L 1991 3584 
z
" transform="scale(0.015625)"/>
      <path id="DejaVuSans-70" d="M 1159 525 
L 1159 -1331 
L 581 -1331 
L 581 3500 
L 1159 3500 
L 1159 2969 
Q 1341 3281 1617 3432 
Q 1894 3584 2278 3584 
Q 2916 3584 3314 3078 
Q 3713 2572 3713 1747 
Q 3713 922 3314 415 
Q 2916 -91 2278 -91 
Q 1894 -91 1617 61 
Q 1341 213 1159 525 
z
M 3116 1747 
Q 3116 2381 2855 2742 
Q 2594 3103 2138 3103 
Q 1681 3103 1420 2742 
Q 1159 2381 1159 1747 
Q 1159 1113 1420 752 
Q 1681 391 2138 391 
Q 2594 391 2855 752 
Q 3116 1113 3116 1747 
z
" transform="scale(0.015625)"/>
      <path id="DejaVuSans-66" d="M 2375 4863 
L 2375 4384 
L 1825 4384 
Q 1516 4384 1395 4259 
Q 1275 4134 1275 3809 
L 1275 3500 
L 2222 3500 
L 2222 3053 
L 1275 3053 
L 1275 0 
L 697 0 
L 697 3053 
L 147 3053 
L 147 3500 
L 697 3500 
L 697 3744 
Q 697 4328 969 4595 
Q 1241 4863 1831 4863 
L 2375 4863 
z
" transform="scale(0.015625)"/>
     </defs>
     <use xlink:href="#DejaVuSans-46"/>
     <use xlink:href="#DejaVuSans-61" transform="translate(48.394531 0)"/>
     <use xlink:href="#DejaVuSans-63" transform="translate(109.673828 0)"/>
     <use xlink:href="#DejaVuSans-69" transform="translate(164.654297 0)"/>
     <use xlink:href="#DejaVuSans-61" transform="translate(192.4375 0)"/>
     <use xlink:href="#DejaVuSans-6c" transform="translate(253.716797 0)"/>
     <use xlink:href="#DejaVuSans-20" transform="translate(281.5 0)"/>
     <use xlink:href="#DejaVuSans-74" transform="translate(313.287109 0)"/>
     <use xlink:href="#DejaVuSans-72" transform="translate(352.496094 0)"/>
     <use xlink:href="#DejaVuSans-61" transform="translate(393.609375 0)"/>
     <use xlink:href="#DejaVuSans-63" transform="translate(454.888672 0)"/>
     <use xlink:href="#DejaVuSans-65" transform="translate(509.869141 0)"/>
     <use xlink:href="#DejaVuSans-3a" transform="translate(571.392578 0)"/>
     <use xlink:href="#DejaVuSans-20" transform="translate(605.083984 0)"/>
     <use xlink:href="#DejaVuSans-43" transform="translate(636.871094 0)"/>
     <use xlink:href="#DejaVuSans-6f" transform="translate(706.695312 0)"/>
     <use xlink:href="#DejaVuSans-6e" transform="translate(767.876953 0)"/>
     <use xlink:href="#DejaVuSans-74" transform="translate(831.255859 0)"/>
     <use xlink:href="#DejaVuSans-72" transform="translate(870.464844 0)"/>
     <use xlink:href="#DejaVuSans-6f" transform="translate(909.328125 0)"/>
     <use xlink:href="#DejaVuSans-6c" transform="translate(970.509766 0)"/>
     <use xlink:href="#DejaVuSans-20" transform="translate(998.292969 0)"/>
     <use xlink:href="#DejaVuSans-67" transform="translate(1030.080078 0)"/>
     <use xlink:href="#DejaVuSans-72" transform="translate(1093.556641 0)"/>
     <use xlink:href="#DejaVuSans-6f" transform="translate(1132.419922 0)"/>
     <use xlink:href="#DejaVuSans-75" transform="translate(1193.601562 0)"/>
     <use xlink:href="#DejaVuSans-70" transform="translate(1256.980469 0)"/>
     <use xlink:href="#DejaVuSans-20" transform="translate(1320.457031 0)"/>
     <use xlink:href="#DejaVuSans-28" transform="translate(1352.244141 0)"/>
     <use xlink:href="#DejaVuSans-66" transform="translate(1391.257812 0)"/>
     <use xlink:href="#DejaVuSans-65" transform="translate(1426.462891 0)"/>
     <use xlink:href="#DejaVuSans-6d" transform="translate(1487.986328 0)"/>
     <use xlink:href="#DejaVuSans-61" transform="translate(1585.398438 0)"/>
     <use xlink:href="#DejaVuSans-6c" transform="translate(1646.677734 0)"/>
     <use xlink:href="#DejaVuSans-65" transform="translate(1674.460938 0)"/>
     <use xlink:href="#DejaVuSans-29" transform="translate(1735.984375 0)"/>
    </g>
   </g>
   <g id="legend_1">
    <g id="patch_7">
     <path d="M 532.639844 42.096094 
L 554.639844 42.096094 
L 554.639844 34.396094 
L 532.639844 34.396094 
z
" style="fill: #d3d3d3; fill-opacity: 0.5; stroke: #d3d3d3; stroke-opacity: 0.5; stroke-linejoin: miter"/>
    </g>
    <g id="text_19">
     <!-- Control group ±2 SD -->
     <g transform="translate(563.439844 42.096094) scale(0.11 -0.11)">
      <defs>
       <path id="DejaVuSans-b1" d="M 2944 4013 
L 2944 2803 
L 4684 2803 
L 4684 2272 
L 2944 2272 
L 2944 1063 
L 2419 1063 
L 2419 2272 
L 678 2272 
L 678 2803 
L 2419 2803 
L 2419 4013 
L 2944 4013 
z
M 678 531 
L 4684 531 
L 4684 0 
L 678 0 
L 678 531 
z
" transform="scale(0.015625)"/>
       <path id="DejaVuSans-53" d="M 3425 4513 
L 3425 3897 
Q 3066 4069 2747 4153 
Q 2428 4238 2131 4238 
Q 1616 4238 1336 4038 
Q 1056 3838 1056 3469 
Q 1056 3159 1242 3001 
Q 1428 2844 1947 2747 
L 2328 2669 
Q 3034 2534 3370 2195 
Q 3706 1856 3706 1288 
Q 3706 609 3251 259 
Q 2797 -91 1919 -91 
Q 1588 -91 1214 -16 
Q 841 59 441 206 
L 441 856 
Q 825 641 1194 531 
Q 1563 422 1919 422 
Q 2459 422 2753 634 
Q 3047 847 3047 1241 
Q 3047 1584 2836 1778 
Q 2625 1972 2144 2069 
L 1759 2144 
Q 1053 2284 737 2584 
Q 422 2884 422 3419 
Q 422 4038 858 4394 
Q 1294 4750 2059 4750 
Q 2388 4750 2728 4690 
Q 3069 4631 3425 4513 
z
" transform="scale(0.015625)"/>
       <path id="DejaVuSans-44" d="M 1259 4147 
L 1259 519 
L 2022 519 
Q 2988 519 3436 956 
Q 3884 1394 3884 2338 
Q 3884 3275 3436 3711 
Q 2988 4147 2022 4147 
L 1259 4147 
z
M 628 4666 
L 1925 4666 
Q 3281 4666 3915 4102 
Q 4550 3538 4550 2338 
Q 4550 1131 3912 565 
Q 3275 0 1925 0 
L 628 0 
L 628 4666 
z
" transform="scale(0.015625)"/>
      </defs>
      <use xlink:href="#DejaVuSans-43"/>
      <use xlink:href="#DejaVuSans-6f" transform="translate(69.824219 0)"/>
      <use xlink:href="#DejaVuSans-6e" transform="translate(131.005859 0)"/>
      <use xlink:href="#DejaVuSans-74" transform="translate(194.384766 0)"/>
      <use xlink:href="#DejaVuSans-72" transform="translate(233.59375 0)"/>
      <use xlink:href="#DejaVuSans-6f" transform="translate(272.457031 0)"/>
      <use xlink:href="#DejaVuSans-6c" transform="translate(333.638672 0)"/>
      <use xlink:href="#DejaVuSans-20" transform="translate(361.421875 0)"/>
      <use xlink:href="#DejaVuSans-67" transform="translate(393.208984 0)"/>
      <use xlink:href="#DejaVuSans-72" transform="translate(456.685547 0)"/>
      <use xlink:href="#DejaVuSans-6f" transform="translate(495.548828 0)"/>
      <use xlink:href="#DejaVuSans-75" transform="translate(556.730469 0)"/>
      <use xlink:href="#DejaVuSans-70" transform="translate(620.109375 0)"/>
      <use xlink:href="#DejaVuSans-20" transform="translate(683.585938 0)"/>
      <use xlink:href="#DejaVuSans-b1" transform="translate(715.373047 0)"/>
      <use xlink:href="#DejaVuSans-32" transform="translate(799.162109 0)"/>
      <use xlink:href="#DejaVuSans-20" transform="translate(862.785156 0)"/>
      <use xlink:href="#DejaVuSans-53" transform="translate(894.572266 0)"/>
      <use xlink:href="#DejaVuSans-44" transform="translate(958.048828 0)"/>
     </g>
    </g>
    <g id="patch_8">
     <path d="M 532.639844 58.242031 
L 554.639844 58.242031 
L 554.639844 50.542031 
L 532.639844 50.542031 
z
" style="fill: #808080; fill-opacity: 0.7; stroke: #808080; stroke-opacity: 0.7; stroke-linejoin: miter"/>
    </g>
    <g id="text_20">
     <!-- Control group ±1 SD -->
     <g transform="translate(563.439844 58.242031) scale(0.11 -0.11)">
      <use xlink:href="#DejaVuSans-43"/>
      <use xlink:href="#DejaVuSans-6f" transform="translate(69.824219 0)"/>
      <use xlink:href="#DejaVuSans-6e" transform="translate(131.005859 0)"/>
      <use xlink:href="#DejaVuSans-74" transform="translate(194.384766 0)"/>
      <use xlink:href="#DejaVuSans-72" transform="translate(233.59375 0)"/>
      <use xlink:href="#DejaVuSans-6f" transform="translate(272.457031 0)"/>
      <use xlink:href="#DejaVuSans-6c" transform="translate(333.638672 0)"/>
      <use xlink:href="#DejaVuSans-20" transform="translate(361.421875 0)"/>
      <use xlink:href="#DejaVuSans-67" transform="translate(393.208984 0)"/>
      <use xlink:href="#DejaVuSans-72" transform="translate(456.685547 0)"/>
      <use xlink:href="#DejaVuSans-6f" transform="translate(495.548828 0)"/>
      <use xlink:href="#DejaVuSans-75" transform="translate(556.730469 0)"/>
      <use xlink:href="#DejaVuSans-70" transform="translate(620.109375 0)"/>
      <use xlink:href="#DejaVuSans-20" transform="translate(683.585938 0)"/>
      <use xlink:href="#DejaVuSans-b1" transform="translate(715.373047 0)"/>
      <use xlink:href="#DejaVuSans-31" transform="translate(799.162109 0)"/>
      <use xlink:href="#DejaVuSans-20" transform="translate(862.785156 0)"/>
      <use xlink:href="#DejaVuSans-53" transform="translate(894.572266 0)"/>
      <use xlink:href="#DejaVuSans-44" transform="translate(958.048828 0)"/>
     </g>
    </g>
    <g id="line2d_34">
     <path d="M 532.639844 70.537969 
L 543.639844 70.537969 
L 554.639844 70.537969 
" style="fill: none; stroke: #ff8c00; stroke-width: 2.3; stroke-linecap: square"/>
    </g>
    <g id="text_21">
     <!-- Control group prototype -->
     <g transform="translate(563.439844 74.387969) scale(0.11 -0.11)">
      <use xlink:href="#DejaVuSans-43"/>
      <use xlink:href="#DejaVuSans-6f" transform="translate(69.824219 0)"/>
      <use xlink:href="#DejaVuSans-6e" transform="translate(131.005859 0)"/>
      <use xlink:href="#DejaVuSans-74" transform="translate(194.384766 0)"/>
      <use xlink:href="#DejaVuSans-72" transform="translate(233.59375 0)"/>
      <use xlink:href="#DejaVuSans-6f" transform="translate(272.457031 0)"/>
      <use xlink:href="#DejaVuSans-6c" transform="translate(333.638672 0)"/>
      <use xlink:href="#DejaVuSans-20" transform="translate(361.421875 0)"/>
      <use xlink:href="#DejaVuSans-67" transform="translate(393.208984 0)"/>
      <use xlink:href="#DejaVuSans-72" transform="translate(456.685547 0)"/>
      <use xlink:href="#DejaVuSans-6f" transform="translate(495.548828 0)"/>
      <use xlink:href="#DejaVuSans-75" transform="translate(556.730469 0)"/>
      <use xlink:href="#DejaVuSans-70" transform="translate(620.109375 0)"/>
      <use xlink:href="#DejaVuSans-20" transform="translate(683.585938 0)"/>
      <use xlink:href="#DejaVuSans-70" transform="translate(715.373047 0)"/>
      <use xlink:href="#DejaVuSans-72" transform="translate(778.849609 0)"/>
      <use xlink:href="#DejaVuSans-6f" transform="translate(817.712891 0)"/>
      <use xlink:href="#DejaVuSans-74" transform="translate(878.894531 0)"/>
      <use xlink:href="#DejaVuSans-6f" transform="translate(918.103516 0)"/>
      <use xlink:href="#DejaVuSans-74" transform="translate(979.285156 0)"/>
      <use xlink:href="#DejaVuSans-79" transform="translate(1018.494141 0)"/>
      <use xlink:href="#DejaVuSans-70" transform="translate(1077.673828 0)"/>
      <use xlink:href="#DejaVuSans-65" transform="translate(1141.150391 0)"/>
     </g>
    </g>
   </g>
  </g>
 </g>
 <defs>
  <clipPath id="p529494e8f6">
   <rect x="47.307188" y="23.837812" width="658.33" height="360.28"/>
  </clipPath>
 </defs>
</svg>
