<?xml version="1.0" encoding="utf-8" standalone="no"?>
<!DOCTYPE svg PUBLIC "-//W3C//DTD SVG 1.1//EN"
  "http://www.w3.org/Graphics/SVG/1.1/DTD/svg11.dtd">
<svg xmlns:xlink="http://www.w3.org/1999/xlink" width="712.837188pt" height="424.5775pt" viewBox="0 0 712.837188 424.5775" xmlns="http://www.w3.org/2000/svg" version="1.1">
 <metadata>
  <rdf:RDF xmlns:dc="http://purl.org/dc/elements/1.1/" xmlns:cc="http://creativecommons.org/ns#" xmlns:rdf="http://www.w3.org/1999/02/22-rdf-syntax-ns#">
   <cc:Work>
    <dc:type rdf:resource="http://purl.org/dc/dcmitype/StillImage"/>
    <dc:date>2026-06-14T19:06:01.178559</dc:date>
    <dc:format>image/svg+xml</dc:format>
    <dc:creator>
     <cc:Agent>
      <dc:title>Matplotlib v3.10.1, https://matplotlib.org/</dc:title>
     </cc:Agent>
    </dc:creator>
   </cc:Work>
  </rdf:RDF>
 </metadata>
 <defs>
  <style type="text/css">*{stroke-linejoin: round; stroke-linecap: butt}</style>
 </defs>
 <g id="figure_1">
  <g id="patch_1">
   <path d="M 0 424.5775 
L 712.837188 424.5775 
L 712.837188 0 
L 0 0 
z
" style="fill: #ffffff"/>
  </g>
  <g id="axes_1">
   <g id="patch_2">
    <path d="M 47.307188 384.117812 
L 705.637188 384.117812 
L 705.637188 23.837812 
L 47.307188 23.837812 
z
" style="fill: #ffffff"/>
   </g>
   <g id="matplotlib.axis_1">
    <g id="xtick_1">
     <g id="line2d_1">
      <path d="M 47.307188 384.117812 
L 47.307188 23.837812 
" clip-path="url(#p61c296eda2)" style="fill: none; stroke: #b0b0b0; stroke-opacity: 0.2; stroke-width: 0.6; stroke-linecap: square"/>
     </g>
     <g id="line2d_2">
      <defs>
       <path id="mcd5e31c723" d="M 0 0 
L 0 3.5 
" style="stroke: #000000; stroke-width: 0.8"/>
      </defs>
      <g>
       <use xlink:href="#mcd5e31c723" x="47.307188" y="384.117812" style="stroke: #000000; stroke-width: 0.8"/>
      </g>
     </g>
     <g id="text_1">
      <!-- 0 -->
      <g transform="translate(43.807813 399.476094) scale(0.11 -0.11)">
       <defs>
        <path id="DejaVuSans-30" d="M 2034 4250 
Q 1547 4250 1301 3770 
Q 1056 3291 1056 2328 
Q 1056 1369 1301 889 
Q 1547 409 2034 409 
Q 2525 409 2770 889 
Q 3016 1369 3016 2328 
Q 3016 3291 2770 3770 
Q 2525 4250 2034 4250 
z
M 2034 4750 
Q 2819 4750 3233 4129 
Q 3647 3509 3647 2328 
Q 3647 1150 3233 529 
Q 2819 -91 2034 -91 
Q 1250 -91 836 529 
Q 422 1150 422 2328 
Q 422 3509 836 4129 
Q 1250 4750 2034 4750 
z
" transform="scale(0.015625)"/>
       </defs>
       <use xlink:href="#DejaVuSans-30"/>
      </g>
     </g>
    </g>
    <g id="xtick_2">
     <g id="line2d_3">
      <path d="M 134.387875 384.117812 
L 134.387875 23.837812 
" clip-path="url(#p61c296eda2)" style="fill: none; stroke: #b0b0b0; stroke-opacity: 0.2; stroke-width: 0.6; stroke-linecap: square"/>
     </g>
     <g id="line2d_4">
      <g>
       <use xlink:href="#mcd5e31c723" x="134.387875" y="384.117812" style="stroke: #000000; stroke-width: 0.8"/>
      </g>
     </g>
     <g id="text_2">
      <!-- 25 -->
      <g transform="translate(127.389125 399.476094) scale(0.11 -0.11)">
       <defs>
        <path id="DejaVuSans-32" d="M 1228 531 
L 3431 531 
L 3431 0 
L 469 0 
L 469 531 
Q 828 903 1448 1529 
Q 2069 2156 2228 2338 
Q 2531 2678 2651 2914 
Q 2772 3150 2772 3378 
Q 2772 3750 2511 3984 
Q 2250 4219 1831 4219 
Q 1534 4219 1204 4116 
Q 875 4013 500 3803 
L 500 4441 
Q 881 4594 1212 4672 
Q 1544 4750 1819 4750 
Q 2544 4750 2975 4387 
Q 3406 4025 3406 3419 
Q 3406 3131 3298 2873 
Q 3191 2616 2906 2266 
Q 2828 2175 2409 1742 
Q 1991 1309 1228 531 
z
" transform="scale(0.015625)"/>
        <path id="DejaVuSans-35" d="M 691 4666 
L 3169 4666 
L 3169 4134 
L 1269 4134 
L 1269 2991 
Q 1406 3038 1543 3061 
Q 1681 3084 1819 3084 
Q 2600 3084 3056 2656 
Q 3513 2228 3513 1497 
Q 3513 744 3044 326 
Q 2575 -91 1722 -91 
Q 1428 -91 1123 -41 
Q 819 9 494 109 
L 494 744 
Q 775 591 1075 516 
Q 1375 441 1709 441 
Q 2250 441 2565 725 
Q 2881 1009 2881 1497 
Q 2881 1984 2565 2268 
Q 2250 2553 1709 2553 
Q 1456 2553 1204 2497 
Q 953 2441 691 2322 
L 691 4666 
z
" transform="scale(0.015625)"/>
       </defs>
       <use xlink:href="#DejaVuSans-32"/>
       <use xlink:href="#DejaVuSans-35" transform="translate(63.623047 0)"/>
      </g>
     </g>
    </g>
    <g id="xtick_3">
     <g id="line2d_5">
      <path d="M 221.468563 384.117812 
L 221.468563 23.837812 
" clip-path="url(#p61c296eda2)" style="fill: none; stroke: #b0b0b0; stroke-opacity: 0.2; stroke-width: 0.6; stroke-linecap: square"/>
     </g>
     <g id="line2d_6">
      <g>
       <use xlink:href="#mcd5e31c723" x="221.468563" y="384.117812" style="stroke: #000000; stroke-width: 0.8"/>
      </g>
     </g>
     <g id="text_3">
      <!-- 50 -->
      <g transform="translate(214.469813 399.476094) scale(0.11 -0.11)">
       <use xlink:href="#DejaVuSans-35"/>
       <use xlink:href="#DejaVuSans-30" transform="translate(63.623047 0)"/>
      </g>
     </g>
    </g>
    <g id="xtick_4">
     <g id="line2d_7">
      <path d="M 308.549251 384.117812 
L 308.549251 23.837812 
" clip-path="url(#p61c296eda2)" style="fill: none; stroke: #b0b0b0; stroke-opacity: 0.2; stroke-width: 0.6; stroke-linecap: square"/>
     </g>
     <g id="line2d_8">
      <g>
       <use xlink:href="#mcd5e31c723" x="308.549251" y="384.117812" style="stroke: #000000; stroke-width: 0.8"/>
      </g>
     </g>
     <g id="text_4">
      <!-- 75 -->
      <g transform="translate(301.550501 399.476094) scale(0.11 -0.11)">
       <defs>
        <path id="DejaVuSans-37" d="M 525 4666 
L 3525 4666 
L 3525 4397 
L 1831 0 
L 1172 0 
L 2766 4134 
L 525 4134 
L 525 4666 
z
" transform="scale(0.015625)"/>
       </defs>
       <use xlink:href="#DejaVuSans-37"/>
       <use xlink:href="#DejaVuSans-35" transform="translate(63.623047 0)"/>
      </g>
     </g>
    </g>
    <g id="xtick_5">
     <g id="line2d_9">
      <path d="M 395.629939 384.117812 
L 395.629939 23.837812 
" clip-path="url(#p61c296eda2)" style="fill: none; stroke: #b0b0b0; stroke-opacity: 0.2; stroke-width: 0.6; stroke-linecap: square"/>
     </g>
     <g id="line2d_10">
      <g>
       <use xlink:href="#mcd5e31c723" x="395.629939" y="384.117812" style="stroke: #000000; stroke-width: 0.8"/>
      </g>
     </g>
     <g id="text_5">
      <!-- 100 -->
      <g transform="translate(385.131814 399.476094) scale(0.11 -0.11)">
       <defs>
        <path id="DejaVuSans-31" d="M 794 531 
L 1825 531 
L 1825 4091 
L 703 3866 
L 703 4441 
L 1819 4666 
L 2450 4666 
L 2450 531 
L 3481 531 
L 3481 0 
L 794 0 
L 794 531 
z
" transform="scale(0.015625)"/>
       </defs>
       <use xlink:href="#DejaVuSans-31"/>
       <use xlink:href="#DejaVuSans-30" transform="translate(63.623047 0)"/>
       <use xlink:href="#DejaVuSans-30" transform="translate(127.246094 0)"/>
      </g>
     </g>
    </g>
    <g id="xtick_6">
     <g id="line2d_11">
      <path d="M 482.710627 384.117812 
L 482.710627 23.837812 
" clip-path="url(#p61c296eda2)" style="fill: none; stroke: #b0b0b0; stroke-opacity: 0.2; stroke-width: 0.6; stroke-linecap: square"/>
     </g>
     <g id="line2d_12">
      <g>
       <use xlink:href="#mcd5e31c723" x="482.710627" y="384.117812" style="stroke: #000000; stroke-width: 0.8"/>
      </g>
     </g>
     <g id="text_6">
      <!-- 125 -->
      <g transform="translate(472.212502 399.476094) scale(0.11 -0.11)">
       <use xlink:href="#DejaVuSans-31"/>
       <use xlink:href="#DejaVuSans-32" transform="translate(63.623047 0)"/>
       <use xlink:href="#DejaVuSans-35" transform="translate(127.246094 0)"/>
      </g>
     </g>
    </g>
    <g id="xtick_7">
     <g id="line2d_13">
      <path d="M 569.791314 384.117812 
L 569.791314 23.837812 
" clip-path="url(#p61c296eda2)" style="fill: none; stroke: #b0b0b0; stroke-opacity: 0.2; stroke-width: 0.6; stroke-linecap: square"/>
     </g>
     <g id="line2d_14">
      <g>
       <use xlink:href="#mcd5e31c723" x="569.791314" y="384.117812" style="stroke: #000000; stroke-width: 0.8"/>
      </g>
     </g>
     <g id="text_7">
      <!-- 150 -->
      <g transform="translate(559.293189 399.476094) scale(0.11 -0.11)">
       <use xlink:href="#DejaVuSans-31"/>
       <use xlink:href="#DejaVuSans-35" transform="translate(63.623047 0)"/>
       <use xlink:href="#DejaVuSans-30" transform="translate(127.246094 0)"/>
      </g>
     </g>
    </g>
    <g id="xtick_8">
     <g id="line2d_15">
      <path d="M 656.872002 384.117812 
L 656.872002 23.837812 
" clip-path="url(#p61c296eda2)" style="fill: none; stroke: #b0b0b0; stroke-opacity: 0.2; stroke-width: 0.6; stroke-linecap: square"/>
     </g>
     <g id="line2d_16">
      <g>
       <use xlink:href="#mcd5e31c723" x="656.872002" y="384.117812" style="stroke: #000000; stroke-width: 0.8"/>
      </g>
     </g>
     <g id="text_8">
      <!-- 175 -->
      <g transform="translate(646.373877 399.476094) scale(0.11 -0.11)">
       <use xlink:href="#DejaVuSans-31"/>
       <use xlink:href="#DejaVuSans-37" transform="translate(63.623047 0)"/>
       <use xlink:href="#DejaVuSans-35" transform="translate(127.246094 0)"/>
      </g>
     </g>
    </g>
    <g id="text_9">
     <!-- Time (s) -->
     <g transform="translate(352.0775 414.881875) scale(0.12 -0.12)">
      <defs>
       <path id="DejaVuSans-54" d="M -19 4666 
L 3928 4666 
L 3928 4134 
L 2272 4134 
L 2272 0 
L 1638 0 
L 1638 4134 
L -19 4134 
L -19 4666 
z
" transform="scale(0.015625)"/>
       <path id="DejaVuSans-69" d="M 603 3500 
L 1178 3500 
L 1178 0 
L 603 0 
L 603 3500 
z
M 603 4863 
L 1178 4863 
L 1178 4134 
L 603 4134 
L 603 4863 
z
" transform="scale(0.015625)"/>
       <path id="DejaVuSans-6d" d="M 3328 2828 
Q 3544 3216 3844 3400 
Q 4144 3584 4550 3584 
Q 5097 3584 5394 3201 
Q 5691 2819 5691 2113 
L 5691 0 
L 5113 0 
L 5113 2094 
Q 5113 2597 4934 2840 
Q 4756 3084 4391 3084 
Q 3944 3084 3684 2787 
Q 3425 2491 3425 1978 
L 3425 0 
L 2847 0 
L 2847 2094 
Q 2847 2600 2669 2842 
Q 2491 3084 2119 3084 
Q 1678 3084 1418 2786 
Q 1159 2488 1159 1978 
L 1159 0 
L 581 0 
L 581 3500 
L 1159 3500 
L 1159 2956 
Q 1356 3278 1631 3431 
Q 1906 3584 2284 3584 
Q 2666 3584 2933 3390 
Q 3200 3197 3328 2828 
z
" transform="scale(0.015625)"/>
       <path id="DejaVuSans-65" d="M 3597 1894 
L 3597 1613 
L 953 1613 
Q 991 1019 1311 708 
Q 1631 397 2203 397 
Q 2534 397 2845 478 
Q 3156 559 3463 722 
L 3463 178 
Q 3153 47 2828 -22 
Q 2503 -91 2169 -91 
Q 1331 -91 842 396 
Q 353 884 353 1716 
Q 353 2575 817 3079 
Q 1281 3584 2069 3584 
Q 2775 3584 3186 3129 
Q 3597 2675 3597 1894 
z
M 3022 2063 
Q 3016 2534 2758 2815 
Q 2500 3097 2075 3097 
Q 1594 3097 1305 2825 
Q 1016 2553 972 2059 
L 3022 2063 
z
" transform="scale(0.015625)"/>
       <path id="DejaVuSans-20" transform="scale(0.015625)"/>
       <path id="DejaVuSans-28" d="M 1984 4856 
Q 1566 4138 1362 3434 
Q 1159 2731 1159 2009 
Q 1159 1288 1364 580 
Q 1569 -128 1984 -844 
L 1484 -844 
Q 1016 -109 783 600 
Q 550 1309 550 2009 
Q 550 2706 781 3412 
Q 1013 4119 1484 4856 
L 1984 4856 
z
" transform="scale(0.015625)"/>
       <path id="DejaVuSans-73" d="M 2834 3397 
L 2834 2853 
Q 2591 2978 2328 3040 
Q 2066 3103 1784 3103 
Q 1356 3103 1142 2972 
Q 928 2841 928 2578 
Q 928 2378 1081 2264 
Q 1234 2150 1697 2047 
L 1894 2003 
Q 2506 1872 2764 1633 
Q 3022 1394 3022 966 
Q 3022 478 2636 193 
Q 2250 -91 1575 -91 
Q 1294 -91 989 -36 
Q 684 19 347 128 
L 347 722 
Q 666 556 975 473 
Q 1284 391 1588 391 
Q 1994 391 2212 530 
Q 2431 669 2431 922 
Q 2431 1156 2273 1281 
Q 2116 1406 1581 1522 
L 1381 1569 
Q 847 1681 609 1914 
Q 372 2147 372 2553 
Q 372 3047 722 3315 
Q 1072 3584 1716 3584 
Q 2034 3584 2315 3537 
Q 2597 3491 2834 3397 
z
" transform="scale(0.015625)"/>
       <path id="DejaVuSans-29" d="M 513 4856 
L 1013 4856 
Q 1481 4119 1714 3412 
Q 1947 2706 1947 2009 
Q 1947 1309 1714 600 
Q 1481 -109 1013 -844 
L 513 -844 
Q 928 -128 1133 580 
Q 1338 1288 1338 2009 
Q 1338 2731 1133 3434 
Q 928 4138 513 4856 
z
" transform="scale(0.015625)"/>
      </defs>
      <use xlink:href="#DejaVuSans-54"/>
      <use xlink:href="#DejaVuSans-69" transform="translate(57.958984 0)"/>
      <use xlink:href="#DejaVuSans-6d" transform="translate(85.742188 0)"/>
      <use xlink:href="#DejaVuSans-65" transform="translate(183.154297 0)"/>
      <use xlink:href="#DejaVuSans-20" transform="translate(244.677734 0)"/>
      <use xlink:href="#DejaVuSans-28" transform="translate(276.464844 0)"/>
      <use xlink:href="#DejaVuSans-73" transform="translate(315.478516 0)"/>
      <use xlink:href="#DejaVuSans-29" transform="translate(367.578125 0)"/>
     </g>
    </g>
   </g>
   <g id="matplotlib.axis_2">
    <g id="ytick_1">
     <g id="line2d_17">
      <path d="M 47.307188 367.741449 
L 705.637188 367.741449 
" clip-path="url(#p61c296eda2)" style="fill: none; stroke: #b0b0b0; stroke-opacity: 0.2; stroke-width: 0.6; stroke-linecap: square"/>
     </g>
     <g id="line2d_18">
      <defs>
       <path id="m597be964ee" d="M 0 0 
L -3.5 0 
" style="stroke: #000000; stroke-width: 0.8"/>
      </defs>
      <g>
       <use xlink:href="#m597be964ee" x="47.307188" y="367.741449" style="stroke: #000000; stroke-width: 0.8"/>
      </g>
     </g>
     <g id="text_10">
      <!-- 0.0 -->
      <g transform="translate(22.81375 371.920589) scale(0.11 -0.11)">
       <defs>
        <path id="DejaVuSans-2e" d="M 684 794 
L 1344 794 
L 1344 0 
L 684 0 
L 684 794 
z
" transform="scale(0.015625)"/>
       </defs>
       <use xlink:href="#DejaVuSans-30"/>
       <use xlink:href="#DejaVuSans-2e" transform="translate(63.623047 0)"/>
       <use xlink:href="#DejaVuSans-30" transform="translate(95.410156 0)"/>
      </g>
     </g>
    </g>
    <g id="ytick_2">
     <g id="line2d_19">
      <path d="M 47.307188 317.507205 
L 705.637188 317.507205 
" clip-path="url(#p61c296eda2)" style="fill: none; stroke: #b0b0b0; stroke-opacity: 0.2; stroke-width: 0.6; stroke-linecap: square"/>
     </g>
     <g id="line2d_20">
      <g>
       <use xlink:href="#m597be964ee" x="47.307188" y="317.507205" style="stroke: #000000; stroke-width: 0.8"/>
      </g>
     </g>
     <g id="text_11">
      <!-- 0.5 -->
      <g transform="translate(22.81375 321.686345) scale(0.11 -0.11)">
       <use xlink:href="#DejaVuSans-30"/>
       <use xlink:href="#DejaVuSans-2e" transform="translate(63.623047 0)"/>
       <use xlink:href="#DejaVuSans-35" transform="translate(95.410156 0)"/>
      </g>
     </g>
    </g>
    <g id="ytick_3">
     <g id="line2d_21">
      <path d="M 47.307188 267.27296 
L 705.637188 267.27296 
" clip-path="url(#p61c296eda2)" style="fill: none; stroke: #b0b0b0; stroke-opacity: 0.2; stroke-width: 0.6; stroke-linecap: square"/>
     </g>
     <g id="line2d_22">
      <g>
       <use xlink:href="#m597be964ee" x="47.307188" y="267.27296" style="stroke: #000000; stroke-width: 0.8"/>
      </g>
     </g>
     <g id="text_12">
      <!-- 1.0 -->
      <g transform="translate(22.81375 271.452101) scale(0.11 -0.11)">
       <use xlink:href="#DejaVuSans-31"/>
       <use xlink:href="#DejaVuSans-2e" transform="translate(63.623047 0)"/>
       <use xlink:href="#DejaVuSans-30" transform="translate(95.410156 0)"/>
      </g>
     </g>
    </g>
    <g id="ytick_4">
     <g id="line2d_23">
      <path d="M 47.307188 217.038716 
L 705.637188 217.038716 
" clip-path="url(#p61c296eda2)" style="fill: none; stroke: #b0b0b0; stroke-opacity: 0.2; stroke-width: 0.6; stroke-linecap: square"/>
     </g>
     <g id="line2d_24">
      <g>
       <use xlink:href="#m597be964ee" x="47.307188" y="217.038716" style="stroke: #000000; stroke-width: 0.8"/>
      </g>
     </g>
     <g id="text_13">
      <!-- 1.5 -->
      <g transform="translate(22.81375 221.217857) scale(0.11 -0.11)">
       <use xlink:href="#DejaVuSans-31"/>
       <use xlink:href="#DejaVuSans-2e" transform="translate(63.623047 0)"/>
       <use xlink:href="#DejaVuSans-35" transform="translate(95.410156 0)"/>
      </g>
     </g>
    </g>
    <g id="ytick_5">
     <g id="line2d_25">
      <path d="M 47.307188 166.804472 
L 705.637188 166.804472 
" clip-path="url(#p61c296eda2)" style="fill: none; stroke: #b0b0b0; stroke-opacity: 0.2; stroke-width: 0.6; stroke-linecap: square"/>
     </g>
     <g id="line2d_26">
      <g>
       <use xlink:href="#m597be964ee" x="47.307188" y="166.804472" style="stroke: #000000; stroke-width: 0.8"/>
      </g>
     </g>
     <g id="text_14">
      <!-- 2.0 -->
      <g transform="translate(22.81375 170.983612) scale(0.11 -0.11)">
       <use xlink:href="#DejaVuSans-32"/>
       <use xlink:href="#DejaVuSans-2e" transform="translate(63.623047 0)"/>
       <use xlink:href="#DejaVuSans-30" transform="translate(95.410156 0)"/>
      </g>
     </g>
    </g>
    <g id="ytick_6">
     <g id="line2d_27">
      <path d="M 47.307188 116.570227 
L 705.637188 116.570227 
" clip-path="url(#p61c296eda2)" style="fill: none; stroke: #b0b0b0; stroke-opacity: 0.2; stroke-width: 0.6; stroke-linecap: square"/>
     </g>
     <g id="line2d_28">
      <g>
       <use xlink:href="#m597be964ee" x="47.307188" y="116.570227" style="stroke: #000000; stroke-width: 0.8"/>
      </g>
     </g>
     <g id="text_15">
      <!-- 2.5 -->
      <g transform="translate(22.81375 120.749368) scale(0.11 -0.11)">
       <use xlink:href="#DejaVuSans-32"/>
       <use xlink:href="#DejaVuSans-2e" transform="translate(63.623047 0)"/>
       <use xlink:href="#DejaVuSans-35" transform="translate(95.410156 0)"/>
      </g>
     </g>
    </g>
    <g id="ytick_7">
     <g id="line2d_29">
      <path d="M 47.307188 66.335983 
L 705.637188 66.335983 
" clip-path="url(#p61c296eda2)" style="fill: none; stroke: #b0b0b0; stroke-opacity: 0.2; stroke-width: 0.6; stroke-linecap: square"/>
     </g>
     <g id="line2d_30">
      <g>
       <use xlink:href="#m597be964ee" x="47.307188" y="66.335983" style="stroke: #000000; stroke-width: 0.8"/>
      </g>
     </g>
     <g id="text_16">
      <!-- 3.0 -->
      <g transform="translate(22.81375 70.515124) scale(0.11 -0.11)">
       <defs>
        <path id="DejaVuSans-33" d="M 2597 2516 
Q 3050 2419 3304 2112 
Q 3559 1806 3559 1356 
Q 3559 666 3084 287 
Q 2609 -91 1734 -91 
Q 1441 -91 1130 -33 
Q 819 25 488 141 
L 488 750 
Q 750 597 1062 519 
Q 1375 441 1716 441 
Q 2309 441 2620 675 
Q 2931 909 2931 1356 
Q 2931 1769 2642 2001 
Q 2353 2234 1838 2234 
L 1294 2234 
L 1294 2753 
L 1863 2753 
Q 2328 2753 2575 2939 
Q 2822 3125 2822 3475 
Q 2822 3834 2567 4026 
Q 2313 4219 1838 4219 
Q 1578 4219 1281 4162 
Q 984 4106 628 3988 
L 628 4550 
Q 988 4650 1302 4700 
Q 1616 4750 1894 4750 
Q 2613 4750 3031 4423 
Q 3450 4097 3450 3541 
Q 3450 3153 3228 2886 
Q 3006 2619 2597 2516 
z
" transform="scale(0.015625)"/>
       </defs>
       <use xlink:href="#DejaVuSans-33"/>
       <use xlink:href="#DejaVuSans-2e" transform="translate(63.623047 0)"/>
       <use xlink:href="#DejaVuSans-30" transform="translate(95.410156 0)"/>
      </g>
     </g>
    </g>
    <g id="text_17">
     <!-- AU mean intensity -->
     <g transform="translate(16.318125 259.314687) rotate(-90) scale(0.12 -0.12)">
      <defs>
       <path id="DejaVuSans-41" d="M 2188 4044 
L 1331 1722 
L 3047 1722 
L 2188 4044 
z
M 1831 4666 
L 2547 4666 
L 4325 0 
L 3669 0 
L 3244 1197 
L 1141 1197 
L 716 0 
L 50 0 
L 1831 4666 
z
" transform="scale(0.015625)"/>
       <path id="DejaVuSans-55" d="M 556 4666 
L 1191 4666 
L 1191 1831 
Q 1191 1081 1462 751 
Q 1734 422 2344 422 
Q 2950 422 3222 751 
Q 3494 1081 3494 1831 
L 3494 4666 
L 4128 4666 
L 4128 1753 
Q 4128 841 3676 375 
Q 3225 -91 2344 -91 
Q 1459 -91 1007 375 
Q 556 841 556 1753 
L 556 4666 
z
" transform="scale(0.015625)"/>
       <path id="DejaVuSans-61" d="M 2194 1759 
Q 1497 1759 1228 1600 
Q 959 1441 959 1056 
Q 959 750 1161 570 
Q 1363 391 1709 391 
Q 2188 391 2477 730 
Q 2766 1069 2766 1631 
L 2766 1759 
L 2194 1759 
z
M 3341 1997 
L 3341 0 
L 2766 0 
L 2766 531 
Q 2569 213 2275 61 
Q 1981 -91 1556 -91 
Q 1019 -91 701 211 
Q 384 513 384 1019 
Q 384 1609 779 1909 
Q 1175 2209 1959 2209 
L 2766 2209 
L 2766 2266 
Q 2766 2663 2505 2880 
Q 2244 3097 1772 3097 
Q 1472 3097 1187 3025 
Q 903 2953 641 2809 
L 641 3341 
Q 956 3463 1253 3523 
Q 1550 3584 1831 3584 
Q 2591 3584 2966 3190 
Q 3341 2797 3341 1997 
z
" transform="scale(0.015625)"/>
       <path id="DejaVuSans-6e" d="M 3513 2113 
L 3513 0 
L 2938 0 
L 2938 2094 
Q 2938 2591 2744 2837 
Q 2550 3084 2163 3084 
Q 1697 3084 1428 2787 
Q 1159 2491 1159 1978 
L 1159 0 
L 581 0 
L 581 3500 
L 1159 3500 
L 1159 2956 
Q 1366 3272 1645 3428 
Q 1925 3584 2291 3584 
Q 2894 3584 3203 3211 
Q 3513 2838 3513 2113 
z
" transform="scale(0.015625)"/>
       <path id="DejaVuSans-74" d="M 1172 4494 
L 1172 3500 
L 2356 3500 
L 2356 3053 
L 1172 3053 
L 1172 1153 
Q 1172 725 1289 603 
Q 1406 481 1766 481 
L 2356 481 
L 2356 0 
L 1766 0 
Q 1100 0 847 248 
Q 594 497 594 1153 
L 594 3053 
L 172 3053 
L 172 3500 
L 594 3500 
L 594 4494 
L 1172 4494 
z
" transform="scale(0.015625)"/>
       <path id="DejaVuSans-79" d="M 2059 -325 
Q 1816 -950 1584 -1140 
Q 1353 -1331 966 -1331 
L 506 -1331 
L 506 -850 
L 844 -850 
Q 1081 -850 1212 -737 
Q 1344 -625 1503 -206 
L 1606 56 
L 191 3500 
L 800 3500 
L 1894 763 
L 2988 3500 
L 3597 3500 
L 2059 -325 
z
" transform="scale(0.015625)"/>
      </defs>
      <use xlink:href="#DejaVuSans-41"/>
      <use xlink:href="#DejaVuSans-55" transform="translate(68.408203 0)"/>
      <use xlink:href="#DejaVuSans-20" transform="translate(141.601562 0)"/>
      <use xlink:href="#DejaVuSans-6d" transform="translate(173.388672 0)"/>
      <use xlink:href="#DejaVuSans-65" transform="translate(270.800781 0)"/>
      <use xlink:href="#DejaVuSans-61" transform="translate(332.324219 0)"/>
      <use xlink:href="#DejaVuSans-6e" transform="translate(393.603516 0)"/>
      <use xlink:href="#DejaVuSans-20" transform="translate(456.982422 0)"/>
      <use xlink:href="#DejaVuSans-69" transform="translate(488.769531 0)"/>
      <use xlink:href="#DejaVuSans-6e" transform="translate(516.552734 0)"/>
      <use xlink:href="#DejaVuSans-74" transform="translate(579.931641 0)"/>
      <use xlink:href="#DejaVuSans-65" transform="translate(619.140625 0)"/>
      <use xlink:href="#DejaVuSans-6e" transform="translate(680.664062 0)"/>
      <use xlink:href="#DejaVuSans-73" transform="translate(744.042969 0)"/>
      <use xlink:href="#DejaVuSans-69" transform="translate(796.142578 0)"/>
      <use xlink:href="#DejaVuSans-74" transform="translate(823.925781 0)"/>
      <use xlink:href="#DejaVuSans-79" transform="translate(863.134766 0)"/>
     </g>
    </g>
   </g>
   <g id="FillBetweenPolyCollection_1">
    <defs>
     <path id="mae18aa3f39" d="M 47.307188 -123.408491 
L 47.307188 -36.534521 
L 50.790415 -30.342878 
L 54.273643 -14.099756 
L 57.75687 -22.612943 
L 61.240098 -19.702443 
L 64.723325 -33.160856 
L 68.206553 -36.3737 
L 71.68978 -33.416438 
L 75.173008 -32.836724 
L 78.656235 -36.248101 
L 82.139463 -33.677686 
L 85.62269 -34.357738 
L 89.105918 -34.242146 
L 92.589145 -34.18109 
L 96.072373 -34.576701 
L 99.5556 -34.629385 
L 103.038828 -33.537721 
L 106.522055 -34.328311 
L 110.005283 -33.629575 
L 113.48851 -34.091829 
L 116.971738 -34.010245 
L 120.454965 -34.408837 
L 123.938193 -36.022949 
L 127.42142 -36.691579 
L 130.904648 -35.772546 
L 134.387875 -35.325063 
L 137.871103 -36.681408 
L 141.35433 -33.36359 
L 144.837558 -35.435406 
L 148.320785 -35.014088 
L 151.804013 -38.032062 
L 155.28724 -36.18453 
L 158.770468 -33.046121 
L 162.253695 -35.39305 
L 165.736923 -38.748727 
L 169.22015 -36.798132 
L 172.703378 -32.660711 
L 176.186605 -35.403223 
L 179.669833 -35.67979 
L 183.153061 -28.353341 
L 186.636288 -24.798623 
L 190.119516 -19.504078 
L 193.602743 -22.639397 
L 197.085971 -28.99953 
L 200.569198 -23.376323 
L 204.052426 -23.066101 
L 207.535653 -24.123237 
L 211.018881 -30.963825 
L 214.502108 -37.280795 
L 217.985336 -27.817617 
L 221.468563 -23.416554 
L 224.951791 -27.134659 
L 228.435018 -24.956592 
L 231.918246 -30.353405 
L 235.401473 -26.772493 
L 238.884701 -24.719855 
L 242.367928 -30.746047 
L 245.851156 -28.85568 
L 249.334383 -21.835941 
L 252.817611 -22.408561 
L 256.300838 -11.826113 
L 259.784066 -18.478694 
L 263.267293 -33.39575 
L 266.750521 -22.706986 
L 270.233748 -29.306917 
L 273.716976 -28.932168 
L 277.200203 -21.401888 
L 280.683431 -30.932734 
L 284.166658 -45.819797 
L 287.649886 -50.84701 
L 291.133113 -48.132219 
L 294.616341 -48.43867 
L 298.099568 -44.808456 
L 301.582796 -40.545984 
L 305.066023 -29.32427 
L 308.549251 -32.82616 
L 312.032479 -30.223908 
L 315.515706 -33.986255 
L 318.998934 -35.959096 
L 322.482161 -38.706168 
L 325.965389 -41.112967 
L 329.448616 -40.972166 
L 332.931844 -40.172462 
L 336.415071 -44.331077 
L 339.898299 -43.387883 
L 343.381526 -28.969748 
L 346.864754 -32.969125 
L 350.347981 -40.053493 
L 353.831209 -40.518079 
L 357.314436 -36.595819 
L 360.797664 -26.8524 
L 364.280891 -31.762995 
L 367.764119 -40.067531 
L 371.247346 -45.039615 
L 374.730574 -43.460799 
L 378.213801 -42.527461 
L 381.697029 -41.142064 
L 385.180256 -36.613867 
L 388.663484 -35.106694 
L 392.146711 -33.891658 
L 395.629939 -32.691274 
L 399.113166 -35.134509 
L 402.596394 -35.433176 
L 406.079621 -48.696513 
L 409.562849 -49.360622 
L 413.046076 -40.088653 
L 416.529304 -34.507515 
L 420.012531 -37.67156 
L 423.495759 -34.845733 
L 426.978986 -38.578679 
L 430.462214 -39.364942 
L 433.945441 -32.470604 
L 437.428669 -36.665127 
L 440.911896 -42.236129 
L 444.395124 -20.017901 
L 447.878352 -32.351148 
L 451.361579 -25.84385 
L 454.844807 -18.551269 
L 458.328034 -33.26016 
L 461.811262 -37.871547 
L 465.294489 -34.60517 
L 468.777717 -29.744416 
L 472.260944 -23.065204 
L 475.744172 -11.417781 
L 479.227399 -20.023103 
L 482.710627 -38.114872 
L 486.193854 -29.523327 
L 489.677082 -34.705583 
L 493.160309 -45.16187 
L 496.643537 -41.708608 
L 500.126764 -38.547506 
L 503.609992 -37.023494 
L 507.093219 -35.535896 
L 510.576447 -22.421909 
L 514.059674 -29.234209 
L 517.542902 -41.977239 
L 521.026129 -47.474096 
L 524.509357 -49.828824 
L 527.992584 -52.698435 
L 531.475812 -49.894844 
L 534.959039 -45.556842 
L 538.442267 -43.772071 
L 541.925494 -40.113818 
L 545.408722 -39.724058 
L 548.891949 -43.357298 
L 552.375177 -45.958398 
L 555.858404 -47.152369 
L 559.341632 -47.431237 
L 562.824859 -45.553624 
L 566.308087 -43.806182 
L 569.791314 -40.384628 
L 573.274542 -40.542365 
L 576.75777 -40.65662 
L 580.240997 -38.369147 
L 583.724225 -45.735264 
L 587.207452 -42.568734 
L 590.69068 -40.294757 
L 594.173907 -33.941916 
L 597.657135 -35.496808 
L 601.140362 -28.168348 
L 604.62359 -31.463231 
L 608.106817 -25.789595 
L 611.590045 -28.39977 
L 615.073272 -33.389879 
L 618.5565 -23.226609 
L 622.039727 -28.956401 
L 625.522955 -34.644171 
L 629.006182 -39.798715 
L 632.48941 -38.589686 
L 635.972637 -38.788883 
L 639.455865 -16.294772 
L 642.939092 -17.59065 
L 646.42232 -30.84316 
L 649.905547 -24.74356 
L 653.388775 -20.078901 
L 656.872002 -22.554916 
L 660.35523 -24.237587 
L 663.838457 -26.739761 
L 667.321685 -27.961259 
L 670.804912 -45.361893 
L 674.28814 -47.871378 
L 677.771367 -47.261796 
L 681.254595 -42.548661 
L 684.737822 -28.062986 
L 688.22105 -36.911157 
L 691.704277 -32.614797 
L 695.187505 -42.718917 
L 698.670732 -42.489907 
L 702.15396 -41.055001 
L 705.637188 -40.069128 
L 705.637188 -154.757326 
L 705.637188 -154.757326 
L 702.15396 -160.475922 
L 698.670732 -163.901019 
L 695.187505 -165.280132 
L 691.704277 -182.720165 
L 688.22105 -182.619432 
L 684.737822 -195.124863 
L 681.254595 -171.750163 
L 677.771367 -170.122114 
L 674.28814 -186.518284 
L 670.804912 -194.363518 
L 667.321685 -229.003311 
L 663.838457 -210.834646 
L 660.35523 -198.14447 
L 656.872002 -198.073331 
L 653.388775 -211.135613 
L 649.905547 -194.294106 
L 646.42232 -179.321586 
L 642.939092 -196.147456 
L 639.455865 -212.163055 
L 635.972637 -177.046222 
L 632.48941 -181.149115 
L 629.006182 -182.111372 
L 625.522955 -198.671221 
L 622.039727 -201.281564 
L 618.5565 -205.969957 
L 615.073272 -187.60519 
L 611.590045 -197.150762 
L 608.106817 -204.148799 
L 604.62359 -191.238152 
L 601.140362 -186.871976 
L 597.657135 -176.42566 
L 594.173907 -186.720974 
L 590.69068 -180.367707 
L 587.207452 -182.063987 
L 583.724225 -165.135811 
L 580.240997 -158.157871 
L 576.75777 -145.326559 
L 573.274542 -144.963687 
L 569.791314 -143.731708 
L 566.308087 -146.382965 
L 562.824859 -143.538476 
L 559.341632 -144.196669 
L 555.858404 -141.327769 
L 552.375177 -144.325512 
L 548.891949 -144.231588 
L 545.408722 -144.919963 
L 541.925494 -149.429151 
L 538.442267 -145.879071 
L 534.959039 -143.180663 
L 531.475812 -139.68701 
L 527.992584 -141.731649 
L 524.509357 -147.934181 
L 521.026129 -158.078059 
L 517.542902 -161.791458 
L 514.059674 -177.848805 
L 510.576447 -182.002991 
L 507.093219 -153.197797 
L 503.609992 -152.458502 
L 500.126764 -151.229953 
L 496.643537 -146.620956 
L 493.160309 -147.485367 
L 489.677082 -174.732637 
L 486.193854 -180.502886 
L 482.710627 -173.086351 
L 479.227399 -195.632185 
L 475.744172 -203.458093 
L 472.260944 -191.643878 
L 468.777717 -174.263239 
L 465.294489 -168.714927 
L 461.811262 -158.504757 
L 458.328034 -154.325305 
L 454.844807 -184.922647 
L 451.361579 -171.810514 
L 447.878352 -169.176192 
L 444.395124 -186.519488 
L 440.911896 -149.621118 
L 437.428669 -157.919579 
L 433.945441 -174.352599 
L 430.462214 -149.693998 
L 426.978986 -154.052338 
L 423.495759 -173.562977 
L 420.012531 -164.260894 
L 416.529304 -160.806739 
L 413.046076 -164.127637 
L 409.562849 -156.352312 
L 406.079621 -153.768667 
L 402.596394 -166.464256 
L 399.113166 -181.337518 
L 395.629939 -169.597295 
L 392.146711 -161.743286 
L 388.663484 -157.459056 
L 385.180256 -156.22781 
L 381.697029 -152.896201 
L 378.213801 -151.07178 
L 374.730574 -157.183653 
L 371.247346 -161.252262 
L 367.764119 -163.807634 
L 364.280891 -159.507848 
L 360.797664 -162.144226 
L 357.314436 -149.291048 
L 353.831209 -143.701501 
L 350.347981 -142.438511 
L 346.864754 -151.335776 
L 343.381526 -158.725957 
L 339.898299 -135.608869 
L 336.415071 -141.631749 
L 332.931844 -147.03337 
L 329.448616 -146.948377 
L 325.965389 -144.848514 
L 322.482161 -143.662276 
L 318.998934 -148.870197 
L 315.515706 -156.55133 
L 312.032479 -154.960092 
L 308.549251 -154.048175 
L 305.066023 -157.522062 
L 301.582796 -143.193774 
L 298.099568 -146.872443 
L 294.616341 -155.466694 
L 291.133113 -157.950761 
L 287.649886 -153.365228 
L 284.166658 -157.541849 
L 280.683431 -186.128168 
L 277.200203 -193.031339 
L 273.716976 -172.03034 
L 270.233748 -161.444724 
L 266.750521 -172.77357 
L 263.267293 -150.849269 
L 259.784066 -169.220139 
L 256.300838 -183.37226 
L 252.817611 -166.838058 
L 249.334383 -166.477385 
L 245.851156 -161.761426 
L 242.367928 -163.670692 
L 238.884701 -173.669804 
L 235.401473 -165.558619 
L 231.918246 -163.463205 
L 228.435018 -177.591041 
L 224.951791 -161.479192 
L 221.468563 -165.388629 
L 217.985336 -167.238036 
L 214.502108 -158.80597 
L 211.018881 -164.002161 
L 207.535653 -167.084992 
L 204.052426 -173.4385 
L 200.569198 -179.995838 
L 197.085971 -166.746972 
L 193.602743 -170.190245 
L 190.119516 -168.167243 
L 186.636288 -160.299521 
L 183.153061 -153.534419 
L 179.669833 -139.968215 
L 176.186605 -140.361666 
L 172.703378 -142.811903 
L 169.22015 -136.283861 
L 165.736923 -135.295023 
L 162.253695 -139.434405 
L 158.770468 -142.949807 
L 155.28724 -145.507593 
L 151.804013 -158.0833 
L 148.320785 -158.782143 
L 144.837558 -132.195138 
L 141.35433 -131.687038 
L 137.871103 -126.899546 
L 134.387875 -127.7111 
L 130.904648 -127.353121 
L 127.42142 -126.946783 
L 123.938193 -130.24069 
L 120.454965 -132.907935 
L 116.971738 -127.888638 
L 113.48851 -127.148943 
L 110.005283 -128.105356 
L 106.522055 -127.247696 
L 103.038828 -131.869934 
L 99.5556 -131.250668 
L 96.072373 -128.668117 
L 92.589145 -129.419571 
L 89.105918 -129.124683 
L 85.62269 -128.529659 
L 82.139463 -132.108393 
L 78.656235 -130.739551 
L 75.173008 -131.827425 
L 71.68978 -127.915021 
L 68.206553 -129.133088 
L 64.723325 -142.719174 
L 61.240098 -177.004864 
L 57.75687 -184.173885 
L 54.273643 -194.163332 
L 50.790415 -157.369202 
L 47.307188 -123.408491 
z
" style="stroke: #d3d3d3; stroke-opacity: 0.5"/>
    </defs>
    <g clip-path="url(#p61c296eda2)">
     <use xlink:href="#mae18aa3f39" x="0" y="424.5775" style="fill: #d3d3d3; fill-opacity: 0.5; stroke: #d3d3d3; stroke-opacity: 0.5"/>
    </g>
   </g>
   <g id="FillBetweenPolyCollection_2">
    <defs>
     <path id="m9bdd0c5510" d="M 47.307188 -101.689999 
L 47.307188 -58.253014 
L 50.790415 -62.099459 
L 54.273643 -59.11565 
L 57.75687 -63.003178 
L 61.240098 -59.028048 
L 64.723325 -60.550436 
L 68.206553 -59.563547 
L 71.68978 -57.041084 
L 75.173008 -57.5844 
L 78.656235 -59.870963 
L 82.139463 -58.285363 
L 85.62269 -57.900718 
L 89.105918 -57.96278 
L 92.589145 -57.990711 
L 96.072373 -58.099555 
L 99.5556 -58.784706 
L 103.038828 -58.120774 
L 106.522055 -57.558158 
L 110.005283 -57.24852 
L 113.48851 -57.356108 
L 116.971738 -57.479843 
L 120.454965 -59.033612 
L 123.938193 -59.577384 
L 127.42142 -59.25538 
L 130.904648 -58.66769 
L 134.387875 -58.421572 
L 137.871103 -59.235943 
L 141.35433 -57.944452 
L 144.837558 -59.625339 
L 148.320785 -65.956102 
L 151.804013 -68.044872 
L 155.28724 -63.515295 
L 158.770468 -60.522042 
L 162.253695 -61.403389 
L 165.736923 -62.885301 
L 169.22015 -61.669564 
L 172.703378 -60.198509 
L 176.186605 -61.642834 
L 179.669833 -61.751896 
L 183.153061 -59.648611 
L 186.636288 -58.673847 
L 190.119516 -56.66987 
L 193.602743 -59.527109 
L 197.085971 -63.43639 
L 200.569198 -62.531202 
L 204.052426 -60.659201 
L 207.535653 -59.863676 
L 211.018881 -64.223409 
L 214.502108 -67.662089 
L 217.985336 -62.672722 
L 221.468563 -58.909573 
L 224.951791 -60.720792 
L 228.435018 -63.115204 
L 231.918246 -63.630855 
L 235.401473 -61.469025 
L 238.884701 -61.957342 
L 242.367928 -63.977208 
L 245.851156 -62.082117 
L 249.334383 -57.996302 
L 252.817611 -58.515935 
L 256.300838 -54.71265 
L 259.784066 -56.164055 
L 263.267293 -62.75913 
L 266.750521 -60.223632 
L 270.233748 -62.341369 
L 273.716976 -64.706711 
L 277.200203 -64.309251 
L 280.683431 -69.731593 
L 284.166658 -73.75031 
L 287.649886 -76.476564 
L 291.133113 -75.586854 
L 294.616341 -75.195676 
L 298.099568 -70.324453 
L 301.582796 -66.207931 
L 305.066023 -61.373718 
L 308.549251 -63.131663 
L 312.032479 -61.407954 
L 315.515706 -64.627524 
L 318.998934 -64.186871 
L 322.482161 -64.945195 
L 325.965389 -67.046853 
L 329.448616 -67.466219 
L 332.931844 -66.887689 
L 336.415071 -68.656245 
L 339.898299 -66.443129 
L 343.381526 -61.4088 
L 346.864754 -62.560788 
L 350.347981 -65.649747 
L 353.831209 -66.313934 
L 357.314436 -64.769626 
L 360.797664 -60.675357 
L 364.280891 -63.699208 
L 367.764119 -71.002557 
L 371.247346 -74.092777 
L 374.730574 -71.891512 
L 378.213801 -69.663541 
L 381.697029 -69.080598 
L 385.180256 -66.517352 
L 388.663484 -65.694784 
L 392.146711 -65.854565 
L 395.629939 -66.917779 
L 399.113166 -71.685261 
L 402.596394 -68.190946 
L 406.079621 -74.964551 
L 409.562849 -76.108544 
L 413.046076 -71.098399 
L 416.529304 -66.082321 
L 420.012531 -69.318894 
L 423.495759 -69.525044 
L 426.978986 -67.447094 
L 430.462214 -66.947206 
L 433.945441 -67.941103 
L 437.428669 -66.97874 
L 440.911896 -69.082376 
L 444.395124 -61.643298 
L 447.878352 -66.557409 
L 451.361579 -62.335516 
L 454.844807 -60.144114 
L 458.328034 -63.526446 
L 461.811262 -68.029849 
L 465.294489 -68.132609 
L 468.777717 -65.874122 
L 472.260944 -65.209872 
L 475.744172 -59.427859 
L 479.227399 -63.925373 
L 482.710627 -71.857741 
L 486.193854 -67.268217 
L 489.677082 -69.712347 
L 493.160309 -70.742744 
L 496.643537 -67.936695 
L 500.126764 -66.718118 
L 503.609992 -65.882246 
L 507.093219 -64.951371 
L 510.576447 -62.31718 
L 514.059674 -66.387858 
L 517.542902 -71.930794 
L 521.026129 -75.125087 
L 524.509357 -74.355163 
L 527.992584 -74.956739 
L 531.475812 -72.342885 
L 534.959039 -69.962798 
L 538.442267 -69.298821 
L 541.925494 -67.442651 
L 545.408722 -66.023034 
L 548.891949 -68.57587 
L 552.375177 -70.550177 
L 555.858404 -70.696219 
L 559.341632 -71.622595 
L 562.824859 -70.049837 
L 566.308087 -69.450378 
L 569.791314 -66.221398 
L 573.274542 -66.647696 
L 576.75777 -66.824105 
L 580.240997 -68.316328 
L 583.724225 -75.585401 
L 587.207452 -77.442547 
L 590.69068 -75.312994 
L 594.173907 -72.136681 
L 597.657135 -70.729021 
L 601.140362 -67.844255 
L 604.62359 -71.406961 
L 608.106817 -70.379396 
L 611.590045 -70.587518 
L 615.073272 -71.943707 
L 618.5565 -68.912446 
L 622.039727 -72.037692 
L 625.522955 -75.650934 
L 629.006182 -75.376879 
L 632.48941 -74.229544 
L 635.972637 -73.353218 
L 639.455865 -65.261843 
L 642.939092 -62.229851 
L 646.42232 -67.962767 
L 649.905547 -67.131196 
L 653.388775 -67.843079 
L 656.872002 -66.43452 
L 660.35523 -67.714308 
L 663.838457 -72.763482 
L 667.321685 -78.221772 
L 670.804912 -82.6123 
L 674.28814 -82.533105 
L 677.771367 -77.976875 
L 681.254595 -74.849037 
L 684.737822 -69.828456 
L 688.22105 -73.338226 
L 691.704277 -70.141139 
L 695.187505 -73.359221 
L 698.670732 -72.842685 
L 702.15396 -70.910231 
L 705.637188 -68.741178 
L 705.637188 -126.085276 
L 705.637188 -126.085276 
L 702.15396 -130.620692 
L 698.670732 -133.548241 
L 695.187505 -134.639828 
L 691.704277 -145.193823 
L 688.22105 -146.192364 
L 684.737822 -153.359394 
L 681.254595 -139.449787 
L 677.771367 -139.407034 
L 674.28814 -151.856557 
L 670.804912 -157.113112 
L 667.321685 -178.742798 
L 663.838457 -164.810925 
L 660.35523 -154.667749 
L 656.872002 -154.193727 
L 653.388775 -163.371435 
L 649.905547 -151.906469 
L 646.42232 -142.201979 
L 642.939092 -151.508254 
L 639.455865 -163.195984 
L 635.972637 -142.481887 
L 632.48941 -145.509258 
L 629.006182 -146.533207 
L 625.522955 -157.664459 
L 622.039727 -158.200274 
L 618.5565 -160.28412 
L 615.073272 -149.051362 
L 611.590045 -154.963014 
L 608.106817 -159.558998 
L 604.62359 -151.294422 
L 601.140362 -147.196069 
L 597.657135 -141.193447 
L 594.173907 -148.52621 
L 590.69068 -145.349469 
L 587.207452 -147.190174 
L 583.724225 -135.285675 
L 580.240997 -128.21069 
L 576.75777 -119.159074 
L 573.274542 -118.858357 
L 569.791314 -117.894938 
L 566.308087 -120.73877 
L 562.824859 -119.042263 
L 559.341632 -120.005311 
L 555.858404 -117.783919 
L 552.375177 -119.733733 
L 548.891949 -119.013015 
L 545.408722 -118.620987 
L 541.925494 -122.100318 
L 538.442267 -120.352321 
L 534.959039 -118.774708 
L 531.475812 -117.238968 
L 527.992584 -119.473345 
L 524.509357 -123.407841 
L 521.026129 -130.427069 
L 517.542902 -131.837903 
L 514.059674 -140.695156 
L 510.576447 -142.107721 
L 507.093219 -123.782321 
L 503.609992 -123.59975 
L 500.126764 -123.059341 
L 496.643537 -120.392869 
L 493.160309 -121.904493 
L 489.677082 -139.725873 
L 486.193854 -142.757996 
L 482.710627 -139.343481 
L 479.227399 -151.729914 
L 475.744172 -155.448015 
L 472.260944 -149.499209 
L 468.777717 -138.133533 
L 465.294489 -135.187487 
L 461.811262 -128.346454 
L 458.328034 -124.059019 
L 454.844807 -143.329803 
L 451.361579 -135.318848 
L 447.878352 -134.969931 
L 444.395124 -144.894091 
L 440.911896 -122.774871 
L 437.428669 -127.605966 
L 433.945441 -138.882101 
L 430.462214 -122.111734 
L 426.978986 -125.183923 
L 423.495759 -138.883666 
L 420.012531 -132.613561 
L 416.529304 -129.231933 
L 413.046076 -133.117891 
L 409.562849 -129.604389 
L 406.079621 -127.500629 
L 402.596394 -133.706486 
L 399.113166 -144.786766 
L 395.629939 -135.37079 
L 392.146711 -129.780379 
L 388.663484 -126.870966 
L 385.180256 -126.324324 
L 381.697029 -124.957667 
L 378.213801 -123.9357 
L 374.730574 -128.75294 
L 371.247346 -132.1991 
L 367.764119 -132.872609 
L 364.280891 -127.571635 
L 360.797664 -128.321269 
L 357.314436 -121.11724 
L 353.831209 -117.905645 
L 350.347981 -116.842257 
L 346.864754 -121.744113 
L 343.381526 -126.286905 
L 339.898299 -112.553623 
L 336.415071 -117.306581 
L 332.931844 -120.318143 
L 329.448616 -120.454324 
L 325.965389 -118.914627 
L 322.482161 -117.423249 
L 318.998934 -120.642422 
L 315.515706 -125.910062 
L 312.032479 -123.776046 
L 308.549251 -123.742671 
L 305.066023 -125.472614 
L 301.582796 -117.531826 
L 298.099568 -121.356446 
L 294.616341 -128.709688 
L 291.133113 -130.496125 
L 287.649886 -127.735674 
L 284.166658 -129.611336 
L 280.683431 -147.32931 
L 277.200203 -150.123976 
L 273.716976 -136.255797 
L 270.233748 -128.410272 
L 266.750521 -135.256924 
L 263.267293 -121.48589 
L 259.784066 -131.534778 
L 256.300838 -140.485723 
L 252.817611 -130.730683 
L 249.334383 -130.317024 
L 245.851156 -128.53499 
L 242.367928 -130.439531 
L 238.884701 -136.432317 
L 235.401473 -130.862088 
L 231.918246 -130.185755 
L 228.435018 -139.432429 
L 224.951791 -127.893059 
L 221.468563 -129.89561 
L 217.985336 -132.382932 
L 214.502108 -128.424677 
L 211.018881 -130.742577 
L 207.535653 -131.344553 
L 204.052426 -135.8454 
L 200.569198 -140.840959 
L 197.085971 -132.310112 
L 193.602743 -133.302533 
L 190.119516 -131.001452 
L 186.636288 -126.424296 
L 183.153061 -122.23915 
L 179.669833 -113.896109 
L 176.186605 -114.122055 
L 172.703378 -115.274105 
L 169.22015 -111.412429 
L 165.736923 -111.158449 
L 162.253695 -113.424066 
L 158.770468 -115.473885 
L 155.28724 -118.176827 
L 151.804013 -128.07049 
L 148.320785 -127.840129 
L 144.837558 -108.005205 
L 141.35433 -107.106176 
L 137.871103 -104.345012 
L 134.387875 -104.614591 
L 130.904648 -104.457977 
L 127.42142 -104.382982 
L 123.938193 -106.686254 
L 120.454965 -108.283161 
L 116.971738 -104.41904 
L 113.48851 -103.884665 
L 110.005283 -104.486411 
L 106.522055 -104.01785 
L 103.038828 -107.286881 
L 99.5556 -107.095347 
L 96.072373 -105.145263 
L 92.589145 -105.609951 
L 89.105918 -105.404049 
L 85.62269 -104.986678 
L 82.139463 -107.500716 
L 78.656235 -107.116689 
L 75.173008 -107.07975 
L 71.68978 -104.290376 
L 68.206553 -105.943241 
L 64.723325 -115.329595 
L 61.240098 -137.679258 
L 57.75687 -143.783649 
L 54.273643 -149.147438 
L 50.790415 -125.612621 
L 47.307188 -101.689999 
z
" style="stroke: #808080; stroke-opacity: 0.7"/>
    </defs>
    <g clip-path="url(#p61c296eda2)">
     <use xlink:href="#m9bdd0c5510" x="0" y="424.5775" style="fill: #808080; fill-opacity: 0.7; stroke: #808080; stroke-opacity: 0.7"/>
    </g>
   </g>
   <g id="line2d_31">
    <path d="M 47.307188 351.703283 
L 50.790415 355.080582 
L 54.273643 349.893027 
L 57.75687 350.515341 
L 61.240098 354.754737 
L 64.723325 352.401942 
L 68.206553 348.856163 
L 71.68978 352.47028 
L 75.173008 351.448382 
L 78.656235 351.06479 
L 82.139463 345.36404 
L 85.62269 345.748335 
L 89.105918 350.173519 
L 92.589145 347.713121 
L 96.072373 348.839797 
L 99.5556 351.014811 
L 103.038828 346.288353 
L 106.522055 355.394919 
L 110.005283 353.463888 
L 113.48851 349.947284 
L 116.971738 341.516832 
L 120.454965 344.847612 
L 123.938193 343.857476 
L 127.42142 350.304734 
L 130.904648 350.773534 
L 134.387875 347.831316 
L 137.871103 347.647115 
L 141.35433 349.287037 
L 144.837558 355.257176 
L 148.320785 353.956379 
L 151.804013 346.299059 
L 155.28724 354.208007 
L 158.770468 354.44246 
L 162.253695 353.271314 
L 169.22015 341.277523 
L 172.703378 348.102688 
L 176.186605 352.708268 
L 179.669833 351.517335 
L 183.153061 345.278058 
L 186.636288 347.118608 
L 190.119516 345.148916 
L 193.602743 354.955989 
L 197.085971 341.516613 
L 200.569198 347.419715 
L 204.052426 350.566687 
L 207.535653 357.535667 
L 211.018881 351.700247 
L 214.502108 352.609487 
L 217.985336 357.067824 
L 221.468563 339.032761 
L 224.951791 344.616749 
L 228.435018 344.78397 
L 231.918246 342.377454 
L 235.401473 322.482347 
L 238.884701 305.116373 
L 242.367928 290.901334 
L 245.851156 290.189302 
L 249.334383 345.900505 
L 252.817611 340.672425 
L 256.300838 349.715725 
L 259.784066 344.470075 
L 263.267293 345.754488 
L 266.750521 343.977465 
L 270.233748 342.939604 
L 273.716976 343.531425 
L 277.200203 335.952557 
L 280.683431 334.266579 
L 284.166658 323.314874 
L 287.649886 319.135748 
L 291.133113 330.098605 
L 294.616341 330.389884 
L 298.099568 339.845138 
L 301.582796 339.167814 
L 305.066023 339.847303 
L 308.549251 320.416605 
L 312.032479 346.475071 
L 315.515706 343.595598 
L 318.998934 343.24373 
L 322.482161 348.332638 
L 325.965389 343.953987 
L 329.448616 346.2418 
L 332.931844 346.652078 
L 336.415071 346.091043 
L 339.898299 349.067235 
L 343.381526 343.844165 
L 346.864754 346.097281 
L 350.347981 343.835464 
L 353.831209 341.405505 
L 357.314436 346.525211 
L 360.797664 340.071403 
L 364.280891 344.727603 
L 367.764119 348.186563 
L 371.247346 346.455057 
L 374.730574 352.458323 
L 378.213801 351.524357 
L 381.697029 351.661285 
L 385.180256 349.84183 
L 388.663484 342.564683 
L 392.146711 348.640461 
L 395.629939 345.281083 
L 399.113166 343.531726 
L 402.596394 357.232955 
L 406.079621 345.127284 
L 409.562849 348.078564 
L 413.046076 339.495313 
L 416.529304 337.021297 
L 420.012531 317.709672 
L 423.495759 301.540279 
L 426.978986 337.96653 
L 430.462214 333.594627 
L 433.945441 330.456425 
L 437.428669 334.048865 
L 440.911896 340.158954 
L 444.395124 214.891958 
L 447.878352 299.106986 
L 451.361579 342.163603 
L 454.844807 340.181649 
L 458.328034 329.434955 
L 461.811262 341.040008 
L 465.294489 348.564004 
L 468.777717 347.210575 
L 472.260944 346.258182 
L 475.744172 340.759114 
L 479.227399 348.72014 
L 482.710627 331.279109 
L 486.193854 305.285451 
L 489.677082 322.288865 
L 493.160309 307.7122 
L 496.643537 321.319726 
L 500.126764 329.69027 
L 503.609992 333.117598 
L 507.093219 312.002443 
L 510.576447 329.839714 
L 514.059674 334.405826 
L 517.542902 344.87213 
L 521.026129 319.590097 
L 524.509357 320.493248 
L 527.992584 301.956172 
L 531.475812 295.252133 
L 534.959039 310.924982 
L 538.442267 325.494546 
L 541.925494 336.14065 
L 545.408722 323.039401 
L 548.891949 332.120179 
L 552.375177 332.689226 
L 555.858404 334.57719 
L 559.341632 334.379864 
L 562.824859 329.00359 
L 566.308087 317.946137 
L 569.791314 334.09443 
L 573.274542 347.396779 
L 576.75777 348.776068 
L 580.240997 350.422283 
L 583.724225 345.318405 
L 587.207452 339.459101 
L 590.69068 344.13258 
L 594.173907 343.503121 
L 597.657135 350.921589 
L 601.140362 348.726661 
L 604.62359 343.92528 
L 608.106817 342.971528 
L 611.590045 340.420054 
L 615.073272 348.156619 
L 618.5565 346.607279 
L 622.039727 350.698696 
L 625.522955 328.162469 
L 629.006182 327.945239 
L 632.48941 326.987105 
L 635.972637 305.806029 
L 639.455865 322.141553 
L 642.939092 319.912122 
L 646.42232 327.148671 
L 649.905547 325.61837 
L 653.388775 332.926099 
L 656.872002 329.339199 
L 660.35523 313.665772 
L 663.838457 319.50333 
L 667.321685 326.335397 
L 670.804912 307.811402 
L 674.28814 255.148998 
L 677.771367 286.537791 
L 681.254595 297.437624 
L 684.737822 287.873802 
L 688.22105 302.747001 
L 691.704277 297.878932 
L 698.670732 337.66442 
L 702.15396 354.083243 
L 705.637188 342.599448 
L 705.637188 342.599448 
" clip-path="url(#p61c296eda2)" style="fill: none; stroke: #ff8c00; stroke-width: 2.3; stroke-linecap: square"/>
   </g>
   <g id="line2d_32">
    <path d="M 284.166658 384.117812 
L 284.166658 23.837812 
" clip-path="url(#p61c296eda2)" style="fill: none; stroke-dasharray: 5.55,2.4; stroke-dashoffset: 0; stroke: #808080; stroke-width: 1.5"/>
   </g>
   <g id="line2d_33">
    <path d="M 486.193854 384.117812 
L 486.193854 23.837812 
" clip-path="url(#p61c296eda2)" style="fill: none; stroke-dasharray: 5.55,2.4; stroke-dashoffset: 0; stroke: #808080; stroke-width: 1.5"/>
   </g>
   <g id="patch_3">
    <path d="M 47.307188 384.117812 
L 47.307188 23.837812 
" style="fill: none; stroke: #000000; stroke-width: 0.8; stroke-linejoin: miter; stroke-linecap: square"/>
   </g>
   <g id="patch_4">
    <path d="M 705.637188 384.117812 
L 705.637188 23.837812 
" style="fill: none; stroke: #000000; stroke-width: 0.8; stroke-linejoin: miter; stroke-linecap: square"/>
   </g>
   <g id="patch_5">
    <path d="M 47.307188 384.117812 
L 705.637188 384.117812 
" style="fill: none; stroke: #000000; stroke-width: 0.8; stroke-linejoin: miter; stroke-linecap: square"/>
   </g>
   <g id="patch_6">
    <path d="M 47.307188 23.837812 
L 705.637188 23.837812 
" style="fill: none; stroke: #000000; stroke-width: 0.8; stroke-linejoin: miter; stroke-linecap: square"/>
   </g>
   <g id="text_18">
    <!-- Facial trace: Depressive disorder (MDD/DD) (female) -->
    <g transform="translate(192.645625 17.837812) scale(0.14 -0.14)">
     <defs>
      <path id="DejaVuSans-46" d="M 628 4666 
L 3309 4666 
L 3309 4134 
L 1259 4134 
L 1259 2759 
L 3109 2759 
L 3109 2228 
L 1259 2228 
L 1259 0 
L 628 0 
L 628 4666 
z
" transform="scale(0.015625)"/>
      <path id="DejaVuSans-63" d="M 3122 3366 
L 3122 2828 
Q 2878 2963 2633 3030 
Q 2388 3097 2138 3097 
Q 1578 3097 1268 2742 
Q 959 2388 959 1747 
Q 959 1106 1268 751 
Q 1578 397 2138 397 
Q 2388 397 2633 464 
Q 2878 531 3122 666 
L 3122 134 
Q 2881 22 2623 -34 
Q 2366 -91 2075 -91 
Q 1284 -91 818 406 
Q 353 903 353 1747 
Q 353 2603 823 3093 
Q 1294 3584 2113 3584 
Q 2378 3584 2631 3529 
Q 2884 3475 3122 3366 
z
" transform="scale(0.015625)"/>
      <path id="DejaVuSans-6c" d="M 603 4863 
L 1178 4863 
L 1178 0 
L 603 0 
L 603 4863 
z
" transform="scale(0.015625)"/>
      <path id="DejaVuSans-72" d="M 2631 2963 
Q 2534 3019 2420 3045 
Q 2306 3072 2169 3072 
Q 1681 3072 1420 2755 
Q 1159 2438 1159 1844 
L 1159 0 
L 581 0 
L 581 3500 
L 1159 3500 
L 1159 2956 
Q 1341 3275 1631 3429 
Q 1922 3584 2338 3584 
Q 2397 3584 2469 3576 
Q 2541 3569 2628 3553 
L 2631 2963 
z
" transform="scale(0.015625)"/>
      <path id="DejaVuSans-3a" d="M 750 794 
L 1409 794 
L 1409 0 
L 750 0 
L 750 794 
z
M 750 3309 
L 1409 3309 
L 1409 2516 
L 750 2516 
L 750 3309 
z
" transform="scale(0.015625)"/>
      <path id="DejaVuSans-44" d="M 1259 4147 
L 1259 519 
L 2022 519 
Q 2988 519 3436 956 
Q 3884 1394 3884 2338 
Q 3884 3275 3436 3711 
Q 2988 4147 2022 4147 
L 1259 4147 
z
M 628 4666 
L 1925 4666 
Q 3281 4666 3915 4102 
Q 4550 3538 4550 2338 
Q 4550 1131 3912 565 
Q 3275 0 1925 0 
L 628 0 
L 628 4666 
z
" transform="scale(0.015625)"/>
      <path id="DejaVuSans-70" d="M 1159 525 
L 1159 -1331 
L 581 -1331 
L 581 3500 
L 1159 3500 
L 1159 2969 
Q 1341 3281 1617 3432 
Q 1894 3584 2278 3584 
Q 2916 3584 3314 3078 
Q 3713 2572 3713 1747 
Q 3713 922 3314 415 
Q 2916 -91 2278 -91 
Q 1894 -91 1617 61 
Q 1341 213 1159 525 
z
M 3116 1747 
Q 3116 2381 2855 2742 
Q 2594 3103 2138 3103 
Q 1681 3103 1420 2742 
Q 1159 2381 1159 1747 
Q 1159 1113 1420 752 
Q 1681 391 2138 391 
Q 2594 391 2855 752 
Q 3116 1113 3116 1747 
z
" transform="scale(0.015625)"/>
      <path id="DejaVuSans-76" d="M 191 3500 
L 800 3500 
L 1894 563 
L 2988 3500 
L 3597 3500 
L 2284 0 
L 1503 0 
L 191 3500 
z
" transform="scale(0.015625)"/>
      <path id="DejaVuSans-64" d="M 2906 2969 
L 2906 4863 
L 3481 4863 
L 3481 0 
L 2906 0 
L 2906 525 
Q 2725 213 2448 61 
Q 2172 -91 1784 -91 
Q 1150 -91 751 415 
Q 353 922 353 1747 
Q 353 2572 751 3078 
Q 1150 3584 1784 3584 
Q 2172 3584 2448 3432 
Q 2725 3281 2906 2969 
z
M 947 1747 
Q 947 1113 1208 752 
Q 1469 391 1925 391 
Q 2381 391 2643 752 
Q 2906 1113 2906 1747 
Q 2906 2381 2643 2742 
Q 2381 3103 1925 3103 
Q 1469 3103 1208 2742 
Q 947 2381 947 1747 
z
" transform="scale(0.015625)"/>
      <path id="DejaVuSans-6f" d="M 1959 3097 
Q 1497 3097 1228 2736 
Q 959 2375 959 1747 
Q 959 1119 1226 758 
Q 1494 397 1959 397 
Q 2419 397 2687 759 
Q 2956 1122 2956 1747 
Q 2956 2369 2687 2733 
Q 2419 3097 1959 3097 
z
M 1959 3584 
Q 2709 3584 3137 3096 
Q 3566 2609 3566 1747 
Q 3566 888 3137 398 
Q 2709 -91 1959 -91 
Q 1206 -91 779 398 
Q 353 888 353 1747 
Q 353 2609 779 3096 
Q 1206 3584 1959 3584 
z
" transform="scale(0.015625)"/>
      <path id="DejaVuSans-4d" d="M 628 4666 
L 1569 4666 
L 2759 1491 
L 3956 4666 
L 4897 4666 
L 4897 0 
L 4281 0 
L 4281 4097 
L 3078 897 
L 2444 897 
L 1241 4097 
L 1241 0 
L 628 0 
L 628 4666 
z
" transform="scale(0.015625)"/>
      <path id="DejaVuSans-2f" d="M 1625 4666 
L 2156 4666 
L 531 -594 
L 0 -594 
L 1625 4666 
z
" transform="scale(0.015625)"/>
      <path id="DejaVuSans-66" d="M 2375 4863 
L 2375 4384 
L 1825 4384 
Q 1516 4384 1395 4259 
Q 1275 4134 1275 3809 
L 1275 3500 
L 2222 3500 
L 2222 3053 
L 1275 3053 
L 1275 0 
L 697 0 
L 697 3053 
L 147 3053 
L 147 3500 
L 697 3500 
L 697 3744 
Q 697 4328 969 4595 
Q 1241 4863 1831 4863 
L 2375 4863 
z
" transform="scale(0.015625)"/>
     </defs>
     <use xlink:href="#DejaVuSans-46"/>
     <use xlink:href="#DejaVuSans-61" transform="translate(48.394531 0)"/>
     <use xlink:href="#DejaVuSans-63" transform="translate(109.673828 0)"/>
     <use xlink:href="#DejaVuSans-69" transform="translate(164.654297 0)"/>
     <use xlink:href="#DejaVuSans-61" transform="translate(192.4375 0)"/>
     <use xlink:href="#DejaVuSans-6c" transform="translate(253.716797 0)"/>
     <use xlink:href="#DejaVuSans-20" transform="translate(281.5 0)"/>
     <use xlink:href="#DejaVuSans-74" transform="translate(313.287109 0)"/>
     <use xlink:href="#DejaVuSans-72" transform="translate(352.496094 0)"/>
     <use xlink:href="#DejaVuSans-61" transform="translate(393.609375 0)"/>
     <use xlink:href="#DejaVuSans-63" transform="translate(454.888672 0)"/>
     <use xlink:href="#DejaVuSans-65" transform="translate(509.869141 0)"/>
     <use xlink:href="#DejaVuSans-3a" transform="translate(571.392578 0)"/>
     <use xlink:href="#DejaVuSans-20" transform="translate(605.083984 0)"/>
     <use xlink:href="#DejaVuSans-44" transform="translate(636.871094 0)"/>
     <use xlink:href="#DejaVuSans-65" transform="translate(713.873047 0)"/>
     <use xlink:href="#DejaVuSans-70" transform="translate(775.396484 0)"/>
     <use xlink:href="#DejaVuSans-72" transform="translate(838.873047 0)"/>
     <use xlink:href="#DejaVuSans-65" transform="translate(877.736328 0)"/>
     <use xlink:href="#DejaVuSans-73" transform="translate(939.259766 0)"/>
     <use xlink:href="#DejaVuSans-73" transform="translate(991.359375 0)"/>
     <use xlink:href="#DejaVuSans-69" transform="translate(1043.458984 0)"/>
     <use xlink:href="#DejaVuSans-76" transform="translate(1071.242188 0)"/>
     <use xlink:href="#DejaVuSans-65" transform="translate(1130.421875 0)"/>
     <use xlink:href="#DejaVuSans-20" transform="translate(1191.945312 0)"/>
     <use xlink:href="#DejaVuSans-64" transform="translate(1223.732422 0)"/>
     <use xlink:href="#DejaVuSans-69" transform="translate(1287.208984 0)"/>
     <use xlink:href="#DejaVuSans-73" transform="translate(1314.992188 0)"/>
     <use xlink:href="#DejaVuSans-6f" transform="translate(1367.091797 0)"/>
     <use xlink:href="#DejaVuSans-72" transform="translate(1428.273438 0)"/>
     <use xlink:href="#DejaVuSans-64" transform="translate(1467.636719 0)"/>
     <use xlink:href="#DejaVuSans-65" transform="translate(1531.113281 0)"/>
     <use xlink:href="#DejaVuSans-72" transform="translate(1592.636719 0)"/>
     <use xlink:href="#DejaVuSans-20" transform="translate(1633.75 0)"/>
     <use xlink:href="#DejaVuSans-28" transform="translate(1665.537109 0)"/>
     <use xlink:href="#DejaVuSans-4d" transform="translate(1704.550781 0)"/>
     <use xlink:href="#DejaVuSans-44" transform="translate(1790.830078 0)"/>
     <use xlink:href="#DejaVuSans-44" transform="translate(1867.832031 0)"/>
     <use xlink:href="#DejaVuSans-2f" transform="translate(1944.833984 0)"/>
     <use xlink:href="#DejaVuSans-44" transform="translate(1978.525391 0)"/>
     <use xlink:href="#DejaVuSans-44" transform="translate(2055.527344 0)"/>
     <use xlink:href="#DejaVuSans-29" transform="translate(2132.529297 0)"/>
     <use xlink:href="#DejaVuSans-20" transform="translate(2171.542969 0)"/>
     <use xlink:href="#DejaVuSans-28" transform="translate(2203.330078 0)"/>
     <use xlink:href="#DejaVuSans-66" transform="translate(2242.34375 0)"/>
     <use xlink:href="#DejaVuSans-65" transform="translate(2277.548828 0)"/>
     <use xlink:href="#DejaVuSans-6d" transform="translate(2339.072266 0)"/>
     <use xlink:href="#DejaVuSans-61" transform="translate(2436.484375 0)"/>
     <use xlink:href="#DejaVuSans-6c" transform="translate(2497.763672 0)"/>
     <use xlink:href="#DejaVuSans-65" transform="translate(2525.546875 0)"/>
     <use xlink:href="#DejaVuSans-29" transform="translate(2587.070312 0)"/>
    </g>
   </g>
   <g id="legend_1">
    <g id="patch_7">
     <path d="M 439.019531 42.096094 
L 461.019531 42.096094 
L 461.019531 34.396094 
L 439.019531 34.396094 
z
" style="fill: #d3d3d3; fill-opacity: 0.5; stroke: #d3d3d3; stroke-opacity: 0.5; stroke-linejoin: miter"/>
    </g>
    <g id="text_19">
     <!-- Depressive disorder (MDD/DD) ±2 SD -->
     <g transform="translate(469.819531 42.096094) scale(0.11 -0.11)">
      <defs>
       <path id="DejaVuSans-b1" d="M 2944 4013 
L 2944 2803 
L 4684 2803 
L 4684 2272 
L 2944 2272 
L 2944 1063 
L 2419 1063 
L 2419 2272 
L 678 2272 
L 678 2803 
L 2419 2803 
L 2419 4013 
L 2944 4013 
z
M 678 531 
L 4684 531 
L 4684 0 
L 678 0 
L 678 531 
z
" transform="scale(0.015625)"/>
       <path id="DejaVuSans-53" d="M 3425 4513 
L 3425 3897 
Q 3066 4069 2747 4153 
Q 2428 4238 2131 4238 
Q 1616 4238 1336 4038 
Q 1056 3838 1056 3469 
Q 1056 3159 1242 3001 
Q 1428 2844 1947 2747 
L 2328 2669 
Q 3034 2534 3370 2195 
Q 3706 1856 3706 1288 
Q 3706 609 3251 259 
Q 2797 -91 1919 -91 
Q 1588 -91 1214 -16 
Q 841 59 441 206 
L 441 856 
Q 825 641 1194 531 
Q 1563 422 1919 422 
Q 2459 422 2753 634 
Q 3047 847 3047 1241 
Q 3047 1584 2836 1778 
Q 2625 1972 2144 2069 
L 1759 2144 
Q 1053 2284 737 2584 
Q 422 2884 422 3419 
Q 422 4038 858 4394 
Q 1294 4750 2059 4750 
Q 2388 4750 2728 4690 
Q 3069 4631 3425 4513 
z
" transform="scale(0.015625)"/>
      </defs>
      <use xlink:href="#DejaVuSans-44"/>
      <use xlink:href="#DejaVuSans-65" transform="translate(77.001953 0)"/>
      <use xlink:href="#DejaVuSans-70" transform="translate(138.525391 0)"/>
      <use xlink:href="#DejaVuSans-72" transform="translate(202.001953 0)"/>
      <use xlink:href="#DejaVuSans-65" transform="translate(240.865234 0)"/>
      <use xlink:href="#DejaVuSans-73" transform="translate(302.388672 0)"/>
      <use xlink:href="#DejaVuSans-73" transform="translate(354.488281 0)"/>
      <use xlink:href="#DejaVuSans-69" transform="translate(406.587891 0)"/>
      <use xlink:href="#DejaVuSans-76" transform="translate(434.371094 0)"/>
      <use xlink:href="#DejaVuSans-65" transform="translate(493.550781 0)"/>
      <use xlink:href="#DejaVuSans-20" transform="translate(555.074219 0)"/>
      <use xlink:href="#DejaVuSans-64" transform="translate(586.861328 0)"/>
      <use xlink:href="#DejaVuSans-69" transform="translate(650.337891 0)"/>
      <use xlink:href="#DejaVuSans-73" transform="translate(678.121094 0)"/>
      <use xlink:href="#DejaVuSans-6f" transform="translate(730.220703 0)"/>
      <use xlink:href="#DejaVuSans-72" transform="translate(791.402344 0)"/>
      <use xlink:href="#DejaVuSans-64" transform="translate(830.765625 0)"/>
      <use xlink:href="#DejaVuSans-65" transform="translate(894.242188 0)"/>
      <use xlink:href="#DejaVuSans-72" transform="translate(955.765625 0)"/>
      <use xlink:href="#DejaVuSans-20" transform="translate(996.878906 0)"/>
      <use xlink:href="#DejaVuSans-28" transform="translate(1028.666016 0)"/>
      <use xlink:href="#DejaVuSans-4d" transform="translate(1067.679688 0)"/>
      <use xlink:href="#DejaVuSans-44" transform="translate(1153.958984 0)"/>
      <use xlink:href="#DejaVuSans-44" transform="translate(1230.960938 0)"/>
      <use xlink:href="#DejaVuSans-2f" transform="translate(1307.962891 0)"/>
      <use xlink:href="#DejaVuSans-44" transform="translate(1341.654297 0)"/>
      <use xlink:href="#DejaVuSans-44" transform="translate(1418.65625 0)"/>
      <use xlink:href="#DejaVuSans-29" transform="translate(1495.658203 0)"/>
      <use xlink:href="#DejaVuSans-20" transform="translate(1534.671875 0)"/>
      <use xlink:href="#DejaVuSans-b1" transform="translate(1566.458984 0)"/>
      <use xlink:href="#DejaVuSans-32" transform="translate(1650.248047 0)"/>
      <use xlink:href="#DejaVuSans-20" transform="translate(1713.871094 0)"/>
      <use xlink:href="#DejaVuSans-53" transform="translate(1745.658203 0)"/>
      <use xlink:href="#DejaVuSans-44" transform="translate(1809.134766 0)"/>
     </g>
    </g>
    <g id="patch_8">
     <path d="M 439.019531 58.242031 
L 461.019531 58.242031 
L 461.019531 50.542031 
L 439.019531 50.542031 
z
" style="fill: #808080; fill-opacity: 0.7; stroke: #808080; stroke-opacity: 0.7; stroke-linejoin: miter"/>
    </g>
    <g id="text_20">
     <!-- Depressive disorder (MDD/DD) ±1 SD -->
     <g transform="translate(469.819531 58.242031) scale(0.11 -0.11)">
      <use xlink:href="#DejaVuSans-44"/>
      <use xlink:href="#DejaVuSans-65" transform="translate(77.001953 0)"/>
      <use xlink:href="#DejaVuSans-70" transform="translate(138.525391 0)"/>
      <use xlink:href="#DejaVuSans-72" transform="translate(202.001953 0)"/>
      <use xlink:href="#DejaVuSans-65" transform="translate(240.865234 0)"/>
      <use xlink:href="#DejaVuSans-73" transform="translate(302.388672 0)"/>
      <use xlink:href="#DejaVuSans-73" transform="translate(354.488281 0)"/>
      <use xlink:href="#DejaVuSans-69" transform="translate(406.587891 0)"/>
      <use xlink:href="#DejaVuSans-76" transform="translate(434.371094 0)"/>
      <use xlink:href="#DejaVuSans-65" transform="translate(493.550781 0)"/>
      <use xlink:href="#DejaVuSans-20" transform="translate(555.074219 0)"/>
      <use xlink:href="#DejaVuSans-64" transform="translate(586.861328 0)"/>
      <use xlink:href="#DejaVuSans-69" transform="translate(650.337891 0)"/>
      <use xlink:href="#DejaVuSans-73" transform="translate(678.121094 0)"/>
      <use xlink:href="#DejaVuSans-6f" transform="translate(730.220703 0)"/>
      <use xlink:href="#DejaVuSans-72" transform="translate(791.402344 0)"/>
      <use xlink:href="#DejaVuSans-64" transform="translate(830.765625 0)"/>
      <use xlink:href="#DejaVuSans-65" transform="translate(894.242188 0)"/>
      <use xlink:href="#DejaVuSans-72" transform="translate(955.765625 0)"/>
      <use xlink:href="#DejaVuSans-20" transform="translate(996.878906 0)"/>
      <use xlink:href="#DejaVuSans-28" transform="translate(1028.666016 0)"/>
      <use xlink:href="#DejaVuSans-4d" transform="translate(1067.679688 0)"/>
      <use xlink:href="#DejaVuSans-44" transform="translate(1153.958984 0)"/>
      <use xlink:href="#DejaVuSans-44" transform="translate(1230.960938 0)"/>
      <use xlink:href="#DejaVuSans-2f" transform="translate(1307.962891 0)"/>
      <use xlink:href="#DejaVuSans-44" transform="translate(1341.654297 0)"/>
      <use xlink:href="#DejaVuSans-44" transform="translate(1418.65625 0)"/>
      <use xlink:href="#DejaVuSans-29" transform="translate(1495.658203 0)"/>
      <use xlink:href="#DejaVuSans-20" transform="translate(1534.671875 0)"/>
      <use xlink:href="#DejaVuSans-b1" transform="translate(1566.458984 0)"/>
      <use xlink:href="#DejaVuSans-31" transform="translate(1650.248047 0)"/>
      <use xlink:href="#DejaVuSans-20" transform="translate(1713.871094 0)"/>
      <use xlink:href="#DejaVuSans-53" transform="translate(1745.658203 0)"/>
      <use xlink:href="#DejaVuSans-44" transform="translate(1809.134766 0)"/>
     </g>
    </g>
    <g id="line2d_34">
     <path d="M 439.019531 70.537969 
L 450.019531 70.537969 
L 461.019531 70.537969 
" style="fill: none; stroke: #ff8c00; stroke-width: 2.3; stroke-linecap: square"/>
    </g>
    <g id="text_21">
     <!-- Depressive disorder (MDD/DD) prototype -->
     <g transform="translate(469.819531 74.387969) scale(0.11 -0.11)">
      <use xlink:href="#DejaVuSans-44"/>
      <use xlink:href="#DejaVuSans-65" transform="translate(77.001953 0)"/>
      <use xlink:href="#DejaVuSans-70" transform="translate(138.525391 0)"/>
      <use xlink:href="#DejaVuSans-72" transform="translate(202.001953 0)"/>
      <use xlink:href="#DejaVuSans-65" transform="translate(240.865234 0)"/>
      <use xlink:href="#DejaVuSans-73" transform="translate(302.388672 0)"/>
      <use xlink:href="#DejaVuSans-73" transform="translate(354.488281 0)"/>
      <use xlink:href="#DejaVuSans-69" transform="translate(406.587891 0)"/>
      <use xlink:href="#DejaVuSans-76" transform="translate(434.371094 0)"/>
      <use xlink:href="#DejaVuSans-65" transform="translate(493.550781 0)"/>
      <use xlink:href="#DejaVuSans-20" transform="translate(555.074219 0)"/>
      <use xlink:href="#DejaVuSans-64" transform="translate(586.861328 0)"/>
      <use xlink:href="#DejaVuSans-69" transform="translate(650.337891 0)"/>
      <use xlink:href="#DejaVuSans-73" transform="translate(678.121094 0)"/>
      <use xlink:href="#DejaVuSans-6f" transform="translate(730.220703 0)"/>
      <use xlink:href="#DejaVuSans-72" transform="translate(791.402344 0)"/>
      <use xlink:href="#DejaVuSans-64" transform="translate(830.765625 0)"/>
      <use xlink:href="#DejaVuSans-65" transform="translate(894.242188 0)"/>
      <use xlink:href="#DejaVuSans-72" transform="translate(955.765625 0)"/>
      <use xlink:href="#DejaVuSans-20" transform="translate(996.878906 0)"/>
      <use xlink:href="#DejaVuSans-28" transform="translate(1028.666016 0)"/>
      <use xlink:href="#DejaVuSans-4d" transform="translate(1067.679688 0)"/>
      <use xlink:href="#DejaVuSans-44" transform="translate(1153.958984 0)"/>
      <use xlink:href="#DejaVuSans-44" transform="translate(1230.960938 0)"/>
      <use xlink:href="#DejaVuSans-2f" transform="translate(1307.962891 0)"/>
      <use xlink:href="#DejaVuSans-44" transform="translate(1341.654297 0)"/>
      <use xlink:href="#DejaVuSans-44" transform="translate(1418.65625 0)"/>
      <use xlink:href="#DejaVuSans-29" transform="translate(1495.658203 0)"/>
      <use xlink:href="#DejaVuSans-20" transform="translate(1534.671875 0)"/>
      <use xlink:href="#DejaVuSans-70" transform="translate(1566.458984 0)"/>
      <use xlink:href="#DejaVuSans-72" transform="translate(1629.935547 0)"/>
      <use xlink:href="#DejaVuSans-6f" transform="translate(1668.798828 0)"/>
      <use xlink:href="#DejaVuSans-74" transform="translate(1729.980469 0)"/>
      <use xlink:href="#DejaVuSans-6f" transform="translate(1769.189453 0)"/>
      <use xlink:href="#DejaVuSans-74" transform="translate(1830.371094 0)"/>
      <use xlink:href="#DejaVuSans-79" transform="translate(1869.580078 0)"/>
      <use xlink:href="#DejaVuSans-70" transform="translate(1928.759766 0)"/>
      <use xlink:href="#DejaVuSans-65" transform="translate(1992.236328 0)"/>
     </g>
    </g>
   </g>
  </g>
 </g>
 <defs>
  <clipPath id="p61c296eda2">
   <rect x="47.307188" y="23.837812" width="658.33" height="360.28"/>
  </clipPath>
 </defs>
</svg>
