<?xml version="1.0" encoding="utf-8" standalone="no"?>
<!DOCTYPE svg PUBLIC "-//W3C//DTD SVG 1.1//EN"
  "http://www.w3.org/Graphics/SVG/1.1/DTD/svg11.dtd">
<svg xmlns:xlink="http://www.w3.org/1999/xlink" width="712.837188pt" height="424.5775pt" viewBox="0 0 712.837188 424.5775" xmlns="http://www.w3.org/2000/svg" version="1.1">
 <metadata>
  <rdf:RDF xmlns:dc="http://purl.org/dc/elements/1.1/" xmlns:cc="http://creativecommons.org/ns#" xmlns:rdf="http://www.w3.org/1999/02/22-rdf-syntax-ns#">
   <cc:Work>
    <dc:type rdf:resource="http://purl.org/dc/dcmitype/StillImage"/>
    <dc:date>2026-06-14T18:57:22.632430</dc:date>
    <dc:format>image/svg+xml</dc:format>
    <dc:creator>
     <cc:Agent>
      <dc:title>Matplotlib v3.10.1, https://matplotlib.org/</dc:title>
     </cc:Agent>
    </dc:creator>
   </cc:Work>
  </rdf:RDF>
 </metadata>
 <defs>
  <style type="text/css">*{stroke-linejoin: round; stroke-linecap: butt}</style>
 </defs>
 <g id="figure_1">
  <g id="patch_1">
   <path d="M 0 424.5775 
L 712.837188 424.5775 
L 712.837188 0 
L 0 0 
z
" style="fill: #ffffff"/>
  </g>
  <g id="axes_1">
   <g id="patch_2">
    <path d="M 47.307188 384.117812 
L 705.637188 384.117812 
L 705.637188 23.837812 
L 47.307188 23.837812 
z
" style="fill: #ffffff"/>
   </g>
   <g id="matplotlib.axis_1">
    <g id="xtick_1">
     <g id="line2d_1">
      <path d="M 47.307188 384.117812 
L 47.307188 23.837812 
" clip-path="url(#pe51b40593f)" style="fill: none; stroke: #b0b0b0; stroke-opacity: 0.2; stroke-width: 0.6; stroke-linecap: square"/>
     </g>
     <g id="line2d_2">
      <defs>
       <path id="m8f86f0284c" d="M 0 0 
L 0 3.5 
" style="stroke: #000000; stroke-width: 0.8"/>
      </defs>
      <g>
       <use xlink:href="#m8f86f0284c" x="47.307188" y="384.117812" style="stroke: #000000; stroke-width: 0.8"/>
      </g>
     </g>
     <g id="text_1">
      <!-- 0 -->
      <g transform="translate(43.807813 399.476094) scale(0.11 -0.11)">
       <defs>
        <path id="DejaVuSans-30" d="M 2034 4250 
Q 1547 4250 1301 3770 
Q 1056 3291 1056 2328 
Q 1056 1369 1301 889 
Q 1547 409 2034 409 
Q 2525 409 2770 889 
Q 3016 1369 3016 2328 
Q 3016 3291 2770 3770 
Q 2525 4250 2034 4250 
z
M 2034 4750 
Q 2819 4750 3233 4129 
Q 3647 3509 3647 2328 
Q 3647 1150 3233 529 
Q 2819 -91 2034 -91 
Q 1250 -91 836 529 
Q 422 1150 422 2328 
Q 422 3509 836 4129 
Q 1250 4750 2034 4750 
z
" transform="scale(0.015625)"/>
       </defs>
       <use xlink:href="#DejaVuSans-30"/>
      </g>
     </g>
    </g>
    <g id="xtick_2">
     <g id="line2d_3">
      <path d="M 133.929556 384.117812 
L 133.929556 23.837812 
" clip-path="url(#pe51b40593f)" style="fill: none; stroke: #b0b0b0; stroke-opacity: 0.2; stroke-width: 0.6; stroke-linecap: square"/>
     </g>
     <g id="line2d_4">
      <g>
       <use xlink:href="#m8f86f0284c" x="133.929556" y="384.117812" style="stroke: #000000; stroke-width: 0.8"/>
      </g>
     </g>
     <g id="text_2">
      <!-- 25 -->
      <g transform="translate(126.930806 399.476094) scale(0.11 -0.11)">
       <defs>
        <path id="DejaVuSans-32" d="M 1228 531 
L 3431 531 
L 3431 0 
L 469 0 
L 469 531 
Q 828 903 1448 1529 
Q 2069 2156 2228 2338 
Q 2531 2678 2651 2914 
Q 2772 3150 2772 3378 
Q 2772 3750 2511 3984 
Q 2250 4219 1831 4219 
Q 1534 4219 1204 4116 
Q 875 4013 500 3803 
L 500 4441 
Q 881 4594 1212 4672 
Q 1544 4750 1819 4750 
Q 2544 4750 2975 4387 
Q 3406 4025 3406 3419 
Q 3406 3131 3298 2873 
Q 3191 2616 2906 2266 
Q 2828 2175 2409 1742 
Q 1991 1309 1228 531 
z
" transform="scale(0.015625)"/>
        <path id="DejaVuSans-35" d="M 691 4666 
L 3169 4666 
L 3169 4134 
L 1269 4134 
L 1269 2991 
Q 1406 3038 1543 3061 
Q 1681 3084 1819 3084 
Q 2600 3084 3056 2656 
Q 3513 2228 3513 1497 
Q 3513 744 3044 326 
Q 2575 -91 1722 -91 
Q 1428 -91 1123 -41 
Q 819 9 494 109 
L 494 744 
Q 775 591 1075 516 
Q 1375 441 1709 441 
Q 2250 441 2565 725 
Q 2881 1009 2881 1497 
Q 2881 1984 2565 2268 
Q 2250 2553 1709 2553 
Q 1456 2553 1204 2497 
Q 953 2441 691 2322 
L 691 4666 
z
" transform="scale(0.015625)"/>
       </defs>
       <use xlink:href="#DejaVuSans-32"/>
       <use xlink:href="#DejaVuSans-35" transform="translate(63.623047 0)"/>
      </g>
     </g>
    </g>
    <g id="xtick_3">
     <g id="line2d_5">
      <path d="M 220.551924 384.117812 
L 220.551924 23.837812 
" clip-path="url(#pe51b40593f)" style="fill: none; stroke: #b0b0b0; stroke-opacity: 0.2; stroke-width: 0.6; stroke-linecap: square"/>
     </g>
     <g id="line2d_6">
      <g>
       <use xlink:href="#m8f86f0284c" x="220.551924" y="384.117812" style="stroke: #000000; stroke-width: 0.8"/>
      </g>
     </g>
     <g id="text_3">
      <!-- 50 -->
      <g transform="translate(213.553174 399.476094) scale(0.11 -0.11)">
       <use xlink:href="#DejaVuSans-35"/>
       <use xlink:href="#DejaVuSans-30" transform="translate(63.623047 0)"/>
      </g>
     </g>
    </g>
    <g id="xtick_4">
     <g id="line2d_7">
      <path d="M 307.174293 384.117812 
L 307.174293 23.837812 
" clip-path="url(#pe51b40593f)" style="fill: none; stroke: #b0b0b0; stroke-opacity: 0.2; stroke-width: 0.6; stroke-linecap: square"/>
     </g>
     <g id="line2d_8">
      <g>
       <use xlink:href="#m8f86f0284c" x="307.174293" y="384.117812" style="stroke: #000000; stroke-width: 0.8"/>
      </g>
     </g>
     <g id="text_4">
      <!-- 75 -->
      <g transform="translate(300.175543 399.476094) scale(0.11 -0.11)">
       <defs>
        <path id="DejaVuSans-37" d="M 525 4666 
L 3525 4666 
L 3525 4397 
L 1831 0 
L 1172 0 
L 2766 4134 
L 525 4134 
L 525 4666 
z
" transform="scale(0.015625)"/>
       </defs>
       <use xlink:href="#DejaVuSans-37"/>
       <use xlink:href="#DejaVuSans-35" transform="translate(63.623047 0)"/>
      </g>
     </g>
    </g>
    <g id="xtick_5">
     <g id="line2d_9">
      <path d="M 393.796661 384.117812 
L 393.796661 23.837812 
" clip-path="url(#pe51b40593f)" style="fill: none; stroke: #b0b0b0; stroke-opacity: 0.2; stroke-width: 0.6; stroke-linecap: square"/>
     </g>
     <g id="line2d_10">
      <g>
       <use xlink:href="#m8f86f0284c" x="393.796661" y="384.117812" style="stroke: #000000; stroke-width: 0.8"/>
      </g>
     </g>
     <g id="text_5">
      <!-- 100 -->
      <g transform="translate(383.298536 399.476094) scale(0.11 -0.11)">
       <defs>
        <path id="DejaVuSans-31" d="M 794 531 
L 1825 531 
L 1825 4091 
L 703 3866 
L 703 4441 
L 1819 4666 
L 2450 4666 
L 2450 531 
L 3481 531 
L 3481 0 
L 794 0 
L 794 531 
z
" transform="scale(0.015625)"/>
       </defs>
       <use xlink:href="#DejaVuSans-31"/>
       <use xlink:href="#DejaVuSans-30" transform="translate(63.623047 0)"/>
       <use xlink:href="#DejaVuSans-30" transform="translate(127.246094 0)"/>
      </g>
     </g>
    </g>
    <g id="xtick_6">
     <g id="line2d_11">
      <path d="M 480.41903 384.117812 
L 480.41903 23.837812 
" clip-path="url(#pe51b40593f)" style="fill: none; stroke: #b0b0b0; stroke-opacity: 0.2; stroke-width: 0.6; stroke-linecap: square"/>
     </g>
     <g id="line2d_12">
      <g>
       <use xlink:href="#m8f86f0284c" x="480.41903" y="384.117812" style="stroke: #000000; stroke-width: 0.8"/>
      </g>
     </g>
     <g id="text_6">
      <!-- 125 -->
      <g transform="translate(469.920905 399.476094) scale(0.11 -0.11)">
       <use xlink:href="#DejaVuSans-31"/>
       <use xlink:href="#DejaVuSans-32" transform="translate(63.623047 0)"/>
       <use xlink:href="#DejaVuSans-35" transform="translate(127.246094 0)"/>
      </g>
     </g>
    </g>
    <g id="xtick_7">
     <g id="line2d_13">
      <path d="M 567.041398 384.117812 
L 567.041398 23.837812 
" clip-path="url(#pe51b40593f)" style="fill: none; stroke: #b0b0b0; stroke-opacity: 0.2; stroke-width: 0.6; stroke-linecap: square"/>
     </g>
     <g id="line2d_14">
      <g>
       <use xlink:href="#m8f86f0284c" x="567.041398" y="384.117812" style="stroke: #000000; stroke-width: 0.8"/>
      </g>
     </g>
     <g id="text_7">
      <!-- 150 -->
      <g transform="translate(556.543273 399.476094) scale(0.11 -0.11)">
       <use xlink:href="#DejaVuSans-31"/>
       <use xlink:href="#DejaVuSans-35" transform="translate(63.623047 0)"/>
       <use xlink:href="#DejaVuSans-30" transform="translate(127.246094 0)"/>
      </g>
     </g>
    </g>
    <g id="xtick_8">
     <g id="line2d_15">
      <path d="M 653.663766 384.117812 
L 653.663766 23.837812 
" clip-path="url(#pe51b40593f)" style="fill: none; stroke: #b0b0b0; stroke-opacity: 0.2; stroke-width: 0.6; stroke-linecap: square"/>
     </g>
     <g id="line2d_16">
      <g>
       <use xlink:href="#m8f86f0284c" x="653.663766" y="384.117812" style="stroke: #000000; stroke-width: 0.8"/>
      </g>
     </g>
     <g id="text_8">
      <!-- 175 -->
      <g transform="translate(643.165641 399.476094) scale(0.11 -0.11)">
       <use xlink:href="#DejaVuSans-31"/>
       <use xlink:href="#DejaVuSans-37" transform="translate(63.623047 0)"/>
       <use xlink:href="#DejaVuSans-35" transform="translate(127.246094 0)"/>
      </g>
     </g>
    </g>
    <g id="text_9">
     <!-- Time (s) -->
     <g transform="translate(352.0775 414.881875) scale(0.12 -0.12)">
      <defs>
       <path id="DejaVuSans-54" d="M -19 4666 
L 3928 4666 
L 3928 4134 
L 2272 4134 
L 2272 0 
L 1638 0 
L 1638 4134 
L -19 4134 
L -19 4666 
z
" transform="scale(0.015625)"/>
       <path id="DejaVuSans-69" d="M 603 3500 
L 1178 3500 
L 1178 0 
L 603 0 
L 603 3500 
z
M 603 4863 
L 1178 4863 
L 1178 4134 
L 603 4134 
L 603 4863 
z
" transform="scale(0.015625)"/>
       <path id="DejaVuSans-6d" d="M 3328 2828 
Q 3544 3216 3844 3400 
Q 4144 3584 4550 3584 
Q 5097 3584 5394 3201 
Q 5691 2819 5691 2113 
L 5691 0 
L 5113 0 
L 5113 2094 
Q 5113 2597 4934 2840 
Q 4756 3084 4391 3084 
Q 3944 3084 3684 2787 
Q 3425 2491 3425 1978 
L 3425 0 
L 2847 0 
L 2847 2094 
Q 2847 2600 2669 2842 
Q 2491 3084 2119 3084 
Q 1678 3084 1418 2786 
Q 1159 2488 1159 1978 
L 1159 0 
L 581 0 
L 581 3500 
L 1159 3500 
L 1159 2956 
Q 1356 3278 1631 3431 
Q 1906 3584 2284 3584 
Q 2666 3584 2933 3390 
Q 3200 3197 3328 2828 
z
" transform="scale(0.015625)"/>
       <path id="DejaVuSans-65" d="M 3597 1894 
L 3597 1613 
L 953 1613 
Q 991 1019 1311 708 
Q 1631 397 2203 397 
Q 2534 397 2845 478 
Q 3156 559 3463 722 
L 3463 178 
Q 3153 47 2828 -22 
Q 2503 -91 2169 -91 
Q 1331 -91 842 396 
Q 353 884 353 1716 
Q 353 2575 817 3079 
Q 1281 3584 2069 3584 
Q 2775 3584 3186 3129 
Q 3597 2675 3597 1894 
z
M 3022 2063 
Q 3016 2534 2758 2815 
Q 2500 3097 2075 3097 
Q 1594 3097 1305 2825 
Q 1016 2553 972 2059 
L 3022 2063 
z
" transform="scale(0.015625)"/>
       <path id="DejaVuSans-20" transform="scale(0.015625)"/>
       <path id="DejaVuSans-28" d="M 1984 4856 
Q 1566 4138 1362 3434 
Q 1159 2731 1159 2009 
Q 1159 1288 1364 580 
Q 1569 -128 1984 -844 
L 1484 -844 
Q 1016 -109 783 600 
Q 550 1309 550 2009 
Q 550 2706 781 3412 
Q 1013 4119 1484 4856 
L 1984 4856 
z
" transform="scale(0.015625)"/>
       <path id="DejaVuSans-73" d="M 2834 3397 
L 2834 2853 
Q 2591 2978 2328 3040 
Q 2066 3103 1784 3103 
Q 1356 3103 1142 2972 
Q 928 2841 928 2578 
Q 928 2378 1081 2264 
Q 1234 2150 1697 2047 
L 1894 2003 
Q 2506 1872 2764 1633 
Q 3022 1394 3022 966 
Q 3022 478 2636 193 
Q 2250 -91 1575 -91 
Q 1294 -91 989 -36 
Q 684 19 347 128 
L 347 722 
Q 666 556 975 473 
Q 1284 391 1588 391 
Q 1994 391 2212 530 
Q 2431 669 2431 922 
Q 2431 1156 2273 1281 
Q 2116 1406 1581 1522 
L 1381 1569 
Q 847 1681 609 1914 
Q 372 2147 372 2553 
Q 372 3047 722 3315 
Q 1072 3584 1716 3584 
Q 2034 3584 2315 3537 
Q 2597 3491 2834 3397 
z
" transform="scale(0.015625)"/>
       <path id="DejaVuSans-29" d="M 513 4856 
L 1013 4856 
Q 1481 4119 1714 3412 
Q 1947 2706 1947 2009 
Q 1947 1309 1714 600 
Q 1481 -109 1013 -844 
L 513 -844 
Q 928 -128 1133 580 
Q 1338 1288 1338 2009 
Q 1338 2731 1133 3434 
Q 928 4138 513 4856 
z
" transform="scale(0.015625)"/>
      </defs>
      <use xlink:href="#DejaVuSans-54"/>
      <use xlink:href="#DejaVuSans-69" transform="translate(57.958984 0)"/>
      <use xlink:href="#DejaVuSans-6d" transform="translate(85.742188 0)"/>
      <use xlink:href="#DejaVuSans-65" transform="translate(183.154297 0)"/>
      <use xlink:href="#DejaVuSans-20" transform="translate(244.677734 0)"/>
      <use xlink:href="#DejaVuSans-28" transform="translate(276.464844 0)"/>
      <use xlink:href="#DejaVuSans-73" transform="translate(315.478516 0)"/>
      <use xlink:href="#DejaVuSans-29" transform="translate(367.578125 0)"/>
     </g>
    </g>
   </g>
   <g id="matplotlib.axis_2">
    <g id="ytick_1">
     <g id="line2d_17">
      <path d="M 47.307188 367.741449 
L 705.637188 367.741449 
" clip-path="url(#pe51b40593f)" style="fill: none; stroke: #b0b0b0; stroke-opacity: 0.2; stroke-width: 0.6; stroke-linecap: square"/>
     </g>
     <g id="line2d_18">
      <defs>
       <path id="m866c07d353" d="M 0 0 
L -3.5 0 
" style="stroke: #000000; stroke-width: 0.8"/>
      </defs>
      <g>
       <use xlink:href="#m866c07d353" x="47.307188" y="367.741449" style="stroke: #000000; stroke-width: 0.8"/>
      </g>
     </g>
     <g id="text_10">
      <!-- 0.0 -->
      <g transform="translate(22.81375 371.920589) scale(0.11 -0.11)">
       <defs>
        <path id="DejaVuSans-2e" d="M 684 794 
L 1344 794 
L 1344 0 
L 684 0 
L 684 794 
z
" transform="scale(0.015625)"/>
       </defs>
       <use xlink:href="#DejaVuSans-30"/>
       <use xlink:href="#DejaVuSans-2e" transform="translate(63.623047 0)"/>
       <use xlink:href="#DejaVuSans-30" transform="translate(95.410156 0)"/>
      </g>
     </g>
    </g>
    <g id="ytick_2">
     <g id="line2d_19">
      <path d="M 47.307188 317.507205 
L 705.637188 317.507205 
" clip-path="url(#pe51b40593f)" style="fill: none; stroke: #b0b0b0; stroke-opacity: 0.2; stroke-width: 0.6; stroke-linecap: square"/>
     </g>
     <g id="line2d_20">
      <g>
       <use xlink:href="#m866c07d353" x="47.307188" y="317.507205" style="stroke: #000000; stroke-width: 0.8"/>
      </g>
     </g>
     <g id="text_11">
      <!-- 0.5 -->
      <g transform="translate(22.81375 321.686345) scale(0.11 -0.11)">
       <use xlink:href="#DejaVuSans-30"/>
       <use xlink:href="#DejaVuSans-2e" transform="translate(63.623047 0)"/>
       <use xlink:href="#DejaVuSans-35" transform="translate(95.410156 0)"/>
      </g>
     </g>
    </g>
    <g id="ytick_3">
     <g id="line2d_21">
      <path d="M 47.307188 267.27296 
L 705.637188 267.27296 
" clip-path="url(#pe51b40593f)" style="fill: none; stroke: #b0b0b0; stroke-opacity: 0.2; stroke-width: 0.6; stroke-linecap: square"/>
     </g>
     <g id="line2d_22">
      <g>
       <use xlink:href="#m866c07d353" x="47.307188" y="267.27296" style="stroke: #000000; stroke-width: 0.8"/>
      </g>
     </g>
     <g id="text_12">
      <!-- 1.0 -->
      <g transform="translate(22.81375 271.452101) scale(0.11 -0.11)">
       <use xlink:href="#DejaVuSans-31"/>
       <use xlink:href="#DejaVuSans-2e" transform="translate(63.623047 0)"/>
       <use xlink:href="#DejaVuSans-30" transform="translate(95.410156 0)"/>
      </g>
     </g>
    </g>
    <g id="ytick_4">
     <g id="line2d_23">
      <path d="M 47.307188 217.038716 
L 705.637188 217.038716 
" clip-path="url(#pe51b40593f)" style="fill: none; stroke: #b0b0b0; stroke-opacity: 0.2; stroke-width: 0.6; stroke-linecap: square"/>
     </g>
     <g id="line2d_24">
      <g>
       <use xlink:href="#m866c07d353" x="47.307188" y="217.038716" style="stroke: #000000; stroke-width: 0.8"/>
      </g>
     </g>
     <g id="text_13">
      <!-- 1.5 -->
      <g transform="translate(22.81375 221.217857) scale(0.11 -0.11)">
       <use xlink:href="#DejaVuSans-31"/>
       <use xlink:href="#DejaVuSans-2e" transform="translate(63.623047 0)"/>
       <use xlink:href="#DejaVuSans-35" transform="translate(95.410156 0)"/>
      </g>
     </g>
    </g>
    <g id="ytick_5">
     <g id="line2d_25">
      <path d="M 47.307188 166.804472 
L 705.637188 166.804472 
" clip-path="url(#pe51b40593f)" style="fill: none; stroke: #b0b0b0; stroke-opacity: 0.2; stroke-width: 0.6; stroke-linecap: square"/>
     </g>
     <g id="line2d_26">
      <g>
       <use xlink:href="#m866c07d353" x="47.307188" y="166.804472" style="stroke: #000000; stroke-width: 0.8"/>
      </g>
     </g>
     <g id="text_14">
      <!-- 2.0 -->
      <g transform="translate(22.81375 170.983612) scale(0.11 -0.11)">
       <use xlink:href="#DejaVuSans-32"/>
       <use xlink:href="#DejaVuSans-2e" transform="translate(63.623047 0)"/>
       <use xlink:href="#DejaVuSans-30" transform="translate(95.410156 0)"/>
      </g>
     </g>
    </g>
    <g id="ytick_6">
     <g id="line2d_27">
      <path d="M 47.307188 116.570227 
L 705.637188 116.570227 
" clip-path="url(#pe51b40593f)" style="fill: none; stroke: #b0b0b0; stroke-opacity: 0.2; stroke-width: 0.6; stroke-linecap: square"/>
     </g>
     <g id="line2d_28">
      <g>
       <use xlink:href="#m866c07d353" x="47.307188" y="116.570227" style="stroke: #000000; stroke-width: 0.8"/>
      </g>
     </g>
     <g id="text_15">
      <!-- 2.5 -->
      <g transform="translate(22.81375 120.749368) scale(0.11 -0.11)">
       <use xlink:href="#DejaVuSans-32"/>
       <use xlink:href="#DejaVuSans-2e" transform="translate(63.623047 0)"/>
       <use xlink:href="#DejaVuSans-35" transform="translate(95.410156 0)"/>
      </g>
     </g>
    </g>
    <g id="ytick_7">
     <g id="line2d_29">
      <path d="M 47.307188 66.335983 
L 705.637188 66.335983 
" clip-path="url(#pe51b40593f)" style="fill: none; stroke: #b0b0b0; stroke-opacity: 0.2; stroke-width: 0.6; stroke-linecap: square"/>
     </g>
     <g id="line2d_30">
      <g>
       <use xlink:href="#m866c07d353" x="47.307188" y="66.335983" style="stroke: #000000; stroke-width: 0.8"/>
      </g>
     </g>
     <g id="text_16">
      <!-- 3.0 -->
      <g transform="translate(22.81375 70.515124) scale(0.11 -0.11)">
       <defs>
        <path id="DejaVuSans-33" d="M 2597 2516 
Q 3050 2419 3304 2112 
Q 3559 1806 3559 1356 
Q 3559 666 3084 287 
Q 2609 -91 1734 -91 
Q 1441 -91 1130 -33 
Q 819 25 488 141 
L 488 750 
Q 750 597 1062 519 
Q 1375 441 1716 441 
Q 2309 441 2620 675 
Q 2931 909 2931 1356 
Q 2931 1769 2642 2001 
Q 2353 2234 1838 2234 
L 1294 2234 
L 1294 2753 
L 1863 2753 
Q 2328 2753 2575 2939 
Q 2822 3125 2822 3475 
Q 2822 3834 2567 4026 
Q 2313 4219 1838 4219 
Q 1578 4219 1281 4162 
Q 984 4106 628 3988 
L 628 4550 
Q 988 4650 1302 4700 
Q 1616 4750 1894 4750 
Q 2613 4750 3031 4423 
Q 3450 4097 3450 3541 
Q 3450 3153 3228 2886 
Q 3006 2619 2597 2516 
z
" transform="scale(0.015625)"/>
       </defs>
       <use xlink:href="#DejaVuSans-33"/>
       <use xlink:href="#DejaVuSans-2e" transform="translate(63.623047 0)"/>
       <use xlink:href="#DejaVuSans-30" transform="translate(95.410156 0)"/>
      </g>
     </g>
    </g>
    <g id="text_17">
     <!-- AU mean intensity -->
     <g transform="translate(16.318125 259.314687) rotate(-90) scale(0.12 -0.12)">
      <defs>
       <path id="DejaVuSans-41" d="M 2188 4044 
L 1331 1722 
L 3047 1722 
L 2188 4044 
z
M 1831 4666 
L 2547 4666 
L 4325 0 
L 3669 0 
L 3244 1197 
L 1141 1197 
L 716 0 
L 50 0 
L 1831 4666 
z
" transform="scale(0.015625)"/>
       <path id="DejaVuSans-55" d="M 556 4666 
L 1191 4666 
L 1191 1831 
Q 1191 1081 1462 751 
Q 1734 422 2344 422 
Q 2950 422 3222 751 
Q 3494 1081 3494 1831 
L 3494 4666 
L 4128 4666 
L 4128 1753 
Q 4128 841 3676 375 
Q 3225 -91 2344 -91 
Q 1459 -91 1007 375 
Q 556 841 556 1753 
L 556 4666 
z
" transform="scale(0.015625)"/>
       <path id="DejaVuSans-61" d="M 2194 1759 
Q 1497 1759 1228 1600 
Q 959 1441 959 1056 
Q 959 750 1161 570 
Q 1363 391 1709 391 
Q 2188 391 2477 730 
Q 2766 1069 2766 1631 
L 2766 1759 
L 2194 1759 
z
M 3341 1997 
L 3341 0 
L 2766 0 
L 2766 531 
Q 2569 213 2275 61 
Q 1981 -91 1556 -91 
Q 1019 -91 701 211 
Q 384 513 384 1019 
Q 384 1609 779 1909 
Q 1175 2209 1959 2209 
L 2766 2209 
L 2766 2266 
Q 2766 2663 2505 2880 
Q 2244 3097 1772 3097 
Q 1472 3097 1187 3025 
Q 903 2953 641 2809 
L 641 3341 
Q 956 3463 1253 3523 
Q 1550 3584 1831 3584 
Q 2591 3584 2966 3190 
Q 3341 2797 3341 1997 
z
" transform="scale(0.015625)"/>
       <path id="DejaVuSans-6e" d="M 3513 2113 
L 3513 0 
L 2938 0 
L 2938 2094 
Q 2938 2591 2744 2837 
Q 2550 3084 2163 3084 
Q 1697 3084 1428 2787 
Q 1159 2491 1159 1978 
L 1159 0 
L 581 0 
L 581 3500 
L 1159 3500 
L 1159 2956 
Q 1366 3272 1645 3428 
Q 1925 3584 2291 3584 
Q 2894 3584 3203 3211 
Q 3513 2838 3513 2113 
z
" transform="scale(0.015625)"/>
       <path id="DejaVuSans-74" d="M 1172 4494 
L 1172 3500 
L 2356 3500 
L 2356 3053 
L 1172 3053 
L 1172 1153 
Q 1172 725 1289 603 
Q 1406 481 1766 481 
L 2356 481 
L 2356 0 
L 1766 0 
Q 1100 0 847 248 
Q 594 497 594 1153 
L 594 3053 
L 172 3053 
L 172 3500 
L 594 3500 
L 594 4494 
L 1172 4494 
z
" transform="scale(0.015625)"/>
       <path id="DejaVuSans-79" d="M 2059 -325 
Q 1816 -950 1584 -1140 
Q 1353 -1331 966 -1331 
L 506 -1331 
L 506 -850 
L 844 -850 
Q 1081 -850 1212 -737 
Q 1344 -625 1503 -206 
L 1606 56 
L 191 3500 
L 800 3500 
L 1894 763 
L 2988 3500 
L 3597 3500 
L 2059 -325 
z
" transform="scale(0.015625)"/>
      </defs>
      <use xlink:href="#DejaVuSans-41"/>
      <use xlink:href="#DejaVuSans-55" transform="translate(68.408203 0)"/>
      <use xlink:href="#DejaVuSans-20" transform="translate(141.601562 0)"/>
      <use xlink:href="#DejaVuSans-6d" transform="translate(173.388672 0)"/>
      <use xlink:href="#DejaVuSans-65" transform="translate(270.800781 0)"/>
      <use xlink:href="#DejaVuSans-61" transform="translate(332.324219 0)"/>
      <use xlink:href="#DejaVuSans-6e" transform="translate(393.603516 0)"/>
      <use xlink:href="#DejaVuSans-20" transform="translate(456.982422 0)"/>
      <use xlink:href="#DejaVuSans-69" transform="translate(488.769531 0)"/>
      <use xlink:href="#DejaVuSans-6e" transform="translate(516.552734 0)"/>
      <use xlink:href="#DejaVuSans-74" transform="translate(579.931641 0)"/>
      <use xlink:href="#DejaVuSans-65" transform="translate(619.140625 0)"/>
      <use xlink:href="#DejaVuSans-6e" transform="translate(680.664062 0)"/>
      <use xlink:href="#DejaVuSans-73" transform="translate(744.042969 0)"/>
      <use xlink:href="#DejaVuSans-69" transform="translate(796.142578 0)"/>
      <use xlink:href="#DejaVuSans-74" transform="translate(823.925781 0)"/>
      <use xlink:href="#DejaVuSans-79" transform="translate(863.134766 0)"/>
     </g>
    </g>
   </g>
   <g id="FillBetweenPolyCollection_1">
    <defs>
     <path id="m38b87b2228" d="M 47.307188 -164.576345 
L 47.307188 -7.679406 
L 50.772082 -4.750849 
L 54.236977 3.325208 
L 57.701872 0.297513 
L 61.166766 -2.748539 
L 64.631661 -0.165156 
L 68.096556 -6.109107 
L 71.561451 0.585065 
L 75.026345 0.259902 
L 78.49124 -3.3503 
L 81.956135 -4.315641 
L 85.42103 -5.416404 
L 88.885924 -7.834801 
L 92.350819 -9.38601 
L 95.815714 -9.212509 
L 99.280609 -10.954467 
L 102.745503 -9.995031 
L 106.210398 -8.608881 
L 109.675293 -9.773909 
L 113.140187 -10.203294 
L 116.605082 -10.24931 
L 120.069977 -9.046842 
L 123.534872 -9.053294 
L 126.999766 -9.290133 
L 130.464661 -7.007774 
L 133.929556 -7.735629 
L 137.394451 -7.419801 
L 140.859345 -4.225556 
L 144.32424 -1.509504 
L 147.789135 -1.693317 
L 151.25403 1.556842 
L 154.718924 -5.547475 
L 158.183819 -8.319067 
L 161.648714 -9.085137 
L 165.113609 -10.068446 
L 168.578503 -9.171934 
L 172.043398 -7.132688 
L 175.508293 -8.299227 
L 178.973187 -6.231229 
L 182.438082 -4.525939 
L 185.902977 -5.183397 
L 189.367872 -2.241612 
L 192.832766 0.630036 
L 196.297661 -1.2224 
L 199.762556 1.20281 
L 203.227451 -1.37914 
L 206.692345 2.889295 
L 210.15724 6.925361 
L 213.622135 4.019908 
L 217.08703 10.056131 
L 220.551924 14.497228 
L 224.016819 11.194299 
L 227.481714 7.15094 
L 230.946609 6.450343 
L 234.411503 11.443703 
L 237.876398 9.602324 
L 241.341293 12.044894 
L 244.806187 2.08859 
L 248.271082 1.958714 
L 251.735977 3.278764 
L 255.200872 7.310847 
L 258.665766 -0.191166 
L 262.130661 6.109775 
L 265.595556 10.659158 
L 269.060451 6.068484 
L 272.525345 10.466745 
L 275.99024 11.384824 
L 279.455135 15.510156 
L 282.92003 21.636669 
L 286.384924 23.630685 
L 289.849819 20.260745 
L 293.314714 11.867462 
L 296.779609 8.745575 
L 300.244503 4.160716 
L 303.709398 3.01756 
L 307.174293 -0.101365 
L 310.639187 -0.083728 
L 314.104082 -1.007148 
L 317.568977 3.204539 
L 321.033872 8.539455 
L 324.498766 7.165574 
L 327.963661 10.643256 
L 331.428556 7.691858 
L 334.893451 16.674788 
L 338.358345 12.855359 
L 341.82324 10.822819 
L 345.288135 6.943667 
L 348.75303 6.569318 
L 352.217924 12.500274 
L 355.682819 11.841032 
L 359.147714 7.672644 
L 362.612609 8.410514 
L 366.077503 10.244848 
L 369.542398 20.90679 
L 373.007293 19.922515 
L 376.472188 15.168786 
L 379.937082 14.262337 
L 383.401977 12.13507 
L 386.866872 9.160822 
L 390.331766 7.021224 
L 393.796661 3.580391 
L 397.261556 6.237301 
L 400.726451 3.185021 
L 404.191345 2.536105 
L 407.65624 1.175015 
L 411.121135 1.905742 
L 414.58603 -0.108576 
L 418.050924 -1.732311 
L 421.515819 1.298753 
L 424.980714 4.718194 
L 428.445609 3.835977 
L 431.910503 1.759113 
L 435.375398 9.977846 
L 438.840293 6.45069 
L 442.305187 7.199297 
L 445.770082 8.469779 
L 449.234977 8.661395 
L 452.699872 4.719329 
L 456.164766 10.096964 
L 459.629661 8.001936 
L 463.094556 10.07396 
L 466.559451 12.719376 
L 470.024345 13.27581 
L 473.48924 15.637594 
L 476.954135 12.623754 
L 480.41903 24.9054 
L 483.883924 33.19821 
L 487.348819 29.22431 
L 490.813714 21.981594 
L 494.278609 22.701883 
L 497.743503 16.146543 
L 501.208398 14.642578 
L 504.673293 4.095083 
L 508.138188 4.71906 
L 511.603082 6.329398 
L 515.067977 11.632245 
L 518.532872 8.161004 
L 521.997766 4.383603 
L 525.462661 1.534467 
L 528.927556 6.520471 
L 532.392451 5.339729 
L 535.857345 6.310168 
L 539.32224 4.531878 
L 542.787135 2.797071 
L 546.25203 4.754325 
L 549.716924 4.958486 
L 553.181819 5.851162 
L 556.646714 4.398571 
L 560.111609 2.223097 
L 563.576503 1.200266 
L 567.041398 4.019447 
L 570.506293 1.843294 
L 573.971188 1.640088 
L 577.436082 10.485816 
L 580.900977 13.769562 
L 584.365872 4.693754 
L 587.830766 6.989711 
L 591.295661 2.529694 
L 594.760556 0.864223 
L 598.225451 2.702694 
L 601.690345 3.002674 
L 605.15524 1.864656 
L 608.620135 -0.055683 
L 612.08503 1.617919 
L 615.549924 -2.185532 
L 619.014819 -4.543751 
L 622.479714 -1.650905 
L 625.944609 4.723251 
L 629.409503 4.878411 
L 632.874398 1.979628 
L 636.339293 5.573006 
L 639.804188 7.992419 
L 643.269082 6.902078 
L 646.733977 11.622512 
L 650.198872 7.96606 
L 653.663766 5.18575 
L 657.128661 4.27459 
L 660.593556 9.41641 
L 664.058451 3.450328 
L 667.523345 4.50188 
L 670.98824 5.026813 
L 674.453135 12.280613 
L 677.91803 6.725947 
L 681.382924 13.153135 
L 684.847819 16.56878 
L 688.312714 17.965663 
L 691.777609 12.334556 
L 695.242503 11.310419 
L 698.707398 11.863642 
L 702.172293 10.007329 
L 705.637188 6.480461 
L 705.637188 -160.674853 
L 705.637188 -160.674853 
L 702.172293 -238.211387 
L 698.707398 -241.347639 
L 695.242503 -236.67189 
L 691.777609 -240.13754 
L 688.312714 -252.4493 
L 684.847819 -250.831503 
L 681.382924 -245.781638 
L 677.91803 -238.591208 
L 674.453135 -251.953158 
L 670.98824 -243.526277 
L 667.523345 -248.136474 
L 664.058451 -245.450406 
L 660.593556 -248.195851 
L 657.128661 -237.733373 
L 653.663766 -238.145848 
L 650.198872 -244.634826 
L 646.733977 -248.339492 
L 643.269082 -240.855206 
L 639.804188 -243.291457 
L 636.339293 -238.576166 
L 632.874398 -236.871258 
L 629.409503 -240.819864 
L 625.944609 -239.427713 
L 622.479714 -235.541038 
L 619.014819 -220.819345 
L 615.549924 -221.519347 
L 612.08503 -226.211192 
L 608.620135 -223.66498 
L 605.15524 -229.435765 
L 601.690345 -232.085375 
L 598.225451 -229.357978 
L 594.760556 -218.686414 
L 591.295661 -216.995806 
L 587.830766 -216.467588 
L 584.365872 -210.202288 
L 580.900977 -219.147887 
L 577.436082 -217.474383 
L 573.971188 -208.688959 
L 570.506293 -203.457268 
L 567.041398 -203.49046 
L 563.576503 -199.566449 
L 560.111609 -198.703626 
L 556.646714 -206.448524 
L 553.181819 -212.79586 
L 549.716924 -217.13155 
L 546.25203 -219.851828 
L 542.787135 -211.856197 
L 539.32224 -216.321119 
L 535.857345 -221.152868 
L 532.392451 -215.196414 
L 528.927556 -217.367828 
L 525.462661 -209.015811 
L 521.997766 -213.998838 
L 518.532872 -223.538826 
L 515.067977 -231.003901 
L 511.603082 -222.863218 
L 508.138188 -214.101908 
L 504.673293 -215.184159 
L 501.208398 -241.8245 
L 497.743503 -252.355898 
L 494.278609 -268.41941 
L 490.813714 -277.490448 
L 487.348819 -294.535907 
L 483.883924 -311.887806 
L 480.41903 -286.112981 
L 476.954135 -250.738067 
L 473.48924 -251.995058 
L 470.024345 -249.373596 
L 466.559451 -255.640467 
L 463.094556 -248.256052 
L 459.629661 -236.923787 
L 456.164766 -231.343601 
L 452.699872 -223.667428 
L 449.234977 -230.047589 
L 445.770082 -228.85552 
L 442.305187 -218.792707 
L 438.840293 -219.312202 
L 435.375398 -222.29809 
L 431.910503 -211.22107 
L 428.445609 -216.920522 
L 424.980714 -216.585143 
L 421.515819 -213.288733 
L 418.050924 -205.816539 
L 414.58603 -207.074156 
L 411.121135 -215.076285 
L 407.65624 -211.666492 
L 404.191345 -215.605887 
L 400.726451 -219.117752 
L 397.261556 -221.461521 
L 393.796661 -208.141639 
L 390.331766 -208.006448 
L 386.866872 -212.264404 
L 383.401977 -215.389663 
L 379.937082 -221.52653 
L 376.472188 -224.028877 
L 373.007293 -228.274327 
L 369.542398 -226.406101 
L 366.077503 -206.178604 
L 362.612609 -200.168471 
L 359.147714 -199.109209 
L 355.682819 -206.051436 
L 352.217924 -206.42466 
L 348.75303 -199.82002 
L 345.288135 -201.867686 
L 341.82324 -209.068606 
L 338.358345 -214.639568 
L 334.893451 -221.20666 
L 331.428556 -209.300726 
L 327.963661 -215.706597 
L 324.498766 -214.545749 
L 321.033872 -208.935408 
L 317.568977 -198.151291 
L 314.104082 -190.872936 
L 310.639187 -194.034102 
L 307.174293 -198.851773 
L 303.709398 -207.017212 
L 300.244503 -209.093382 
L 296.779609 -216.818062 
L 293.314714 -226.627912 
L 289.849819 -244.516385 
L 286.384924 -250.165538 
L 282.92003 -246.41526 
L 279.455135 -231.533012 
L 275.99024 -223.310225 
L 272.525345 -219.56524 
L 269.060451 -207.777625 
L 265.595556 -219.553611 
L 262.130661 -209.654034 
L 258.665766 -199.103439 
L 255.200872 -210.970853 
L 251.735977 -201.243839 
L 248.271082 -198.509953 
L 244.806187 -198.692638 
L 241.341293 -209.574092 
L 237.876398 -203.186244 
L 234.411503 -208.803068 
L 230.946609 -205.724478 
L 227.481714 -202.508932 
L 224.016819 -206.299194 
L 220.551924 -213.094456 
L 217.08703 -208.558642 
L 213.622135 -199.004143 
L 210.15724 -204.70754 
L 206.692345 -199.006799 
L 203.227451 -192.782935 
L 199.762556 -196.670235 
L 196.297661 -182.802391 
L 192.832766 -181.178501 
L 189.367872 -176.20927 
L 185.902977 -170.642797 
L 182.438082 -170.620686 
L 178.973187 -168.05637 
L 175.508293 -163.403438 
L 172.043398 -162.616572 
L 168.578503 -160.488742 
L 165.113609 -158.565012 
L 161.648714 -160.473181 
L 158.183819 -165.839317 
L 154.718924 -168.991074 
L 151.25403 -180.79021 
L 147.789135 -175.41566 
L 144.32424 -171.247918 
L 140.859345 -166.19212 
L 137.394451 -162.573457 
L 133.929556 -161.833037 
L 130.464661 -163.252247 
L 126.999766 -161.264996 
L 123.534872 -161.933829 
L 120.069977 -161.221684 
L 116.605082 -158.804626 
L 113.140187 -159.68257 
L 109.675293 -162.198748 
L 106.210398 -165.423726 
L 102.745503 -162.618234 
L 99.280609 -161.643326 
L 95.815714 -166.363671 
L 92.350819 -165.160413 
L 88.885924 -166.516354 
L 85.42103 -170.101635 
L 81.956135 -172.880157 
L 78.49124 -174.993499 
L 75.026345 -178.71566 
L 71.561451 -178.636862 
L 68.096556 -170.550255 
L 64.631661 -182.068254 
L 61.166766 -183.273291 
L 57.701872 -188.236884 
L 54.236977 -190.569749 
L 50.772082 -170.399375 
L 47.307188 -164.576345 
z
" style="stroke: #d3d3d3; stroke-opacity: 0.5"/>
    </defs>
    <g clip-path="url(#pe51b40593f)">
     <use xlink:href="#m38b87b2228" x="0" y="424.5775" style="fill: #d3d3d3; fill-opacity: 0.5; stroke: #d3d3d3; stroke-opacity: 0.5"/>
    </g>
   </g>
   <g id="FillBetweenPolyCollection_2">
    <defs>
     <path id="m82c29713c3" d="M 47.307188 -125.35211 
L 47.307188 -46.903641 
L 50.772082 -46.16298 
L 54.236977 -45.148531 
L 57.701872 -46.836087 
L 61.166766 -47.879727 
L 64.631661 -45.64093 
L 68.096556 -47.219394 
L 71.561451 -44.220417 
L 75.026345 -44.483988 
L 78.49124 -46.2611 
L 81.956135 -46.45677 
L 85.42103 -46.587711 
L 88.885924 -47.505189 
L 92.350819 -48.329611 
L 95.815714 -48.5003 
L 99.280609 -48.626682 
L 102.745503 -48.150832 
L 106.210398 -47.812592 
L 109.675293 -47.880119 
L 113.140187 -47.573113 
L 116.605082 -47.388139 
L 120.069977 -47.090553 
L 123.534872 -47.273428 
L 126.999766 -47.283849 
L 130.464661 -46.068892 
L 133.929556 -46.259981 
L 137.394451 -46.208215 
L 140.859345 -44.717197 
L 144.32424 -43.944108 
L 147.789135 -45.123903 
L 151.25403 -44.029921 
L 154.718924 -46.408375 
L 158.183819 -47.699129 
L 161.648714 -46.932148 
L 165.113609 -47.192588 
L 168.578503 -47.001136 
L 172.043398 -46.003659 
L 175.508293 -47.07528 
L 178.973187 -46.687514 
L 182.438082 -46.049625 
L 185.902977 -46.548247 
L 189.367872 -45.733526 
L 192.832766 -44.822099 
L 196.297661 -46.617397 
L 199.762556 -48.265452 
L 203.227451 -49.230088 
L 206.692345 -47.584728 
L 210.15724 -45.982864 
L 213.622135 -46.736104 
L 217.08703 -44.597562 
L 220.551924 -42.400693 
L 224.016819 -43.179074 
L 227.481714 -45.264028 
L 230.946609 -46.593362 
L 234.411503 -43.61799 
L 237.876398 -43.594818 
L 241.341293 -43.359852 
L 244.806187 -48.106717 
L 248.271082 -48.158453 
L 251.735977 -47.851886 
L 255.200872 -47.259578 
L 258.665766 -49.919235 
L 262.130661 -47.831177 
L 265.595556 -46.894034 
L 269.060451 -47.393043 
L 272.525345 -47.041251 
L 275.99024 -47.288939 
L 279.455135 -46.250636 
L 282.92003 -45.376314 
L 286.384924 -44.818371 
L 289.849819 -45.933537 
L 293.314714 -47.756382 
L 296.779609 -47.645335 
L 300.244503 -49.152809 
L 303.709398 -49.491133 
L 307.174293 -49.788967 
L 310.639187 -48.571321 
L 314.104082 -48.473595 
L 317.568977 -47.134419 
L 321.033872 -45.829261 
L 324.498766 -48.262257 
L 327.963661 -45.944207 
L 331.428556 -46.556288 
L 334.893451 -42.795574 
L 338.358345 -44.018373 
L 341.82324 -44.150038 
L 345.288135 -45.259171 
L 348.75303 -45.028017 
L 352.217924 -42.23096 
L 355.682819 -42.632085 
L 359.147714 -44.022819 
L 362.612609 -43.734232 
L 366.077503 -43.861015 
L 369.542398 -40.921433 
L 373.007293 -42.126696 
L 376.472188 -44.63063 
L 379.937082 -44.68488 
L 383.401977 -44.746113 
L 386.866872 -46.195484 
L 390.331766 -46.735694 
L 393.796661 -49.350117 
L 397.261556 -50.687404 
L 400.726451 -52.390672 
L 404.191345 -51.999393 
L 407.65624 -52.035362 
L 411.121135 -52.339764 
L 414.58603 -51.849971 
L 418.050924 -52.753368 
L 421.515819 -52.348118 
L 424.980714 -50.60764 
L 428.445609 -51.353148 
L 431.910503 -51.485933 
L 435.375398 -48.091138 
L 438.840293 -49.990033 
L 442.305187 -49.298704 
L 445.770082 -50.861546 
L 449.234977 -51.015851 
L 452.699872 -52.37736 
L 456.164766 -50.263177 
L 459.629661 -53.229495 
L 463.094556 -54.508543 
L 466.559451 -54.370584 
L 470.024345 -52.386542 
L 473.48924 -51.270569 
L 476.954135 -53.216701 
L 480.41903 -52.849195 
L 483.883924 -53.073294 
L 487.348819 -51.715744 
L 490.813714 -52.886417 
L 494.278609 -50.07844 
L 497.743503 -50.979068 
L 501.208398 -49.474192 
L 504.673293 -50.724728 
L 508.138188 -49.986182 
L 511.603082 -50.968756 
L 515.067977 -49.026792 
L 518.532872 -49.763953 
L 521.997766 -50.212007 
L 525.462661 -51.103103 
L 528.927556 -49.451604 
L 532.392451 -49.794307 
L 535.857345 -50.555591 
L 539.32224 -50.681371 
L 542.787135 -50.866246 
L 546.25203 -51.397214 
L 549.716924 -50.564023 
L 553.181819 -48.810594 
L 556.646714 -48.313203 
L 560.111609 -48.008584 
L 563.576503 -48.991413 
L 567.041398 -47.85803 
L 570.506293 -49.481847 
L 573.971188 -50.942174 
L 577.436082 -46.504233 
L 580.900977 -44.4598 
L 584.365872 -49.030257 
L 587.830766 -48.874613 
L 591.295661 -52.351681 
L 594.760556 -54.023436 
L 598.225451 -55.312474 
L 601.690345 -55.769338 
L 605.15524 -55.960449 
L 608.620135 -55.958007 
L 612.08503 -55.339359 
L 615.549924 -57.018986 
L 619.014819 -58.61265 
L 622.479714 -60.123438 
L 625.944609 -56.31449 
L 629.409503 -56.546158 
L 632.874398 -57.733094 
L 636.339293 -55.464287 
L 639.804188 -54.82855 
L 643.269082 -55.037243 
L 646.733977 -53.367989 
L 650.198872 -55.184161 
L 653.663766 -55.647149 
L 657.128661 -56.227401 
L 660.593556 -54.986656 
L 664.058451 -58.774855 
L 667.523345 -58.657708 
L 670.98824 -57.111459 
L 674.453135 -53.777829 
L 677.91803 -54.603342 
L 681.382924 -51.580558 
L 684.847819 -50.281291 
L 688.312714 -49.638077 
L 691.777609 -50.783468 
L 695.242503 -50.685159 
L 698.707398 -51.439178 
L 702.172293 -52.04735 
L 705.637188 -35.308368 
L 705.637188 -118.886025 
L 705.637188 -118.886025 
L 702.172293 -176.156708 
L 698.707398 -178.044818 
L 695.242503 -174.676313 
L 691.777609 -177.019516 
L 688.312714 -184.845559 
L 684.847819 -183.981432 
L 681.382924 -181.047944 
L 677.91803 -177.261919 
L 674.453135 -185.894715 
L 670.98824 -181.388005 
L 667.523345 -184.976885 
L 664.058451 -183.225222 
L 660.593556 -183.792786 
L 657.128661 -177.231382 
L 653.663766 -177.312949 
L 650.198872 -181.484604 
L 646.733977 -183.348991 
L 643.269082 -178.915885 
L 639.804188 -180.470488 
L 636.339293 -177.538873 
L 632.874398 -177.158537 
L 629.409503 -179.395296 
L 625.944609 -178.389972 
L 622.479714 -177.068505 
L 619.014819 -166.750447 
L 615.549924 -166.685893 
L 612.08503 -169.253914 
L 608.620135 -167.762656 
L 605.15524 -171.61066 
L 601.690345 -173.313363 
L 598.225451 -171.34281 
L 594.760556 -163.798754 
L 591.295661 -162.114431 
L 587.830766 -160.603263 
L 584.365872 -156.478278 
L 580.900977 -160.918524 
L 577.436082 -160.484333 
L 573.971188 -156.106697 
L 570.506293 -152.132128 
L 567.041398 -151.612983 
L 563.576503 -149.37477 
L 560.111609 -148.471945 
L 556.646714 -153.73675 
L 553.181819 -158.134105 
L 549.716924 -161.609041 
L 546.25203 -163.70029 
L 542.787135 -158.19288 
L 539.32224 -161.10787 
L 535.857345 -164.287109 
L 532.392451 -160.062378 
L 528.927556 -161.395753 
L 525.462661 -156.378241 
L 521.997766 -159.403227 
L 518.532872 -165.613869 
L 515.067977 -170.344864 
L 511.603082 -165.565064 
L 508.138188 -159.396666 
L 504.673293 -160.364349 
L 501.208398 -177.707731 
L 497.743503 -185.230288 
L 494.278609 -195.639086 
L 490.813714 -202.622437 
L 487.348819 -213.595852 
L 483.883924 -225.616302 
L 480.41903 -208.358386 
L 476.954135 -184.897612 
L 473.48924 -185.086895 
L 470.024345 -183.711245 
L 466.559451 -188.550506 
L 463.094556 -183.673549 
L 459.629661 -175.692356 
L 456.164766 -170.98346 
L 452.699872 -166.570739 
L 449.234977 -170.370343 
L 445.770082 -169.524195 
L 442.305187 -162.294706 
L 438.840293 -162.871479 
L 435.375398 -164.229106 
L 431.910503 -157.976025 
L 428.445609 -161.731398 
L 424.980714 -161.259309 
L 421.515819 -159.641862 
L 418.050924 -154.795482 
L 414.58603 -155.332761 
L 411.121135 -160.830778 
L 407.65624 -158.456116 
L 404.191345 -161.070389 
L 400.726451 -163.542059 
L 397.261556 -164.536816 
L 393.796661 -155.211131 
L 390.331766 -154.24953 
L 386.866872 -156.908097 
L 383.401977 -158.50848 
L 379.937082 -162.579313 
L 376.472188 -164.229461 
L 373.007293 -166.225117 
L 369.542398 -164.577878 
L 366.077503 -152.072741 
L 362.612609 -148.023725 
L 359.147714 -147.413746 
L 355.682819 -151.578319 
L 352.217924 -151.693426 
L 348.75303 -148.222686 
L 345.288135 -149.664848 
L 341.82324 -154.09575 
L 338.358345 -157.765836 
L 334.893451 -161.736298 
L 331.428556 -155.05258 
L 327.963661 -159.119134 
L 324.498766 -159.117918 
L 321.033872 -154.566692 
L 317.568977 -147.812334 
L 314.104082 -143.406489 
L 310.639187 -145.546508 
L 307.174293 -149.164171 
L 303.709398 -154.508519 
L 300.244503 -155.779858 
L 296.779609 -160.427153 
L 293.314714 -167.004068 
L 289.849819 -178.322102 
L 286.384924 -181.716482 
L 282.92003 -179.402278 
L 279.455135 -169.77222 
L 275.99024 -164.636463 
L 272.525345 -162.057244 
L 269.060451 -154.316098 
L 265.595556 -162.000419 
L 262.130661 -155.713082 
L 258.665766 -149.375371 
L 255.200872 -156.400428 
L 251.735977 -150.113188 
L 248.271082 -148.392787 
L 244.806187 -148.497331 
L 241.341293 -154.169345 
L 237.876398 -149.989102 
L 234.411503 -153.741375 
L 230.946609 -152.680772 
L 227.481714 -150.093964 
L 224.016819 -151.92582 
L 220.551924 -156.196535 
L 217.08703 -153.904949 
L 213.622135 -148.24813 
L 210.15724 -151.799315 
L 206.692345 -148.532775 
L 203.227451 -144.931986 
L 199.762556 -147.201974 
L 196.297661 -137.407393 
L 192.832766 -135.726367 
L 189.367872 -132.717355 
L 185.902977 -129.277947 
L 182.438082 -129.096999 
L 178.973187 -127.600085 
L 175.508293 -124.627385 
L 172.043398 -123.745601 
L 168.578503 -122.65954 
L 165.113609 -121.440871 
L 161.648714 -122.62617 
L 158.183819 -126.459254 
L 154.718924 -128.130175 
L 151.25403 -135.203447 
L 147.789135 -131.985074 
L 144.32424 -128.813315 
L 140.859345 -125.700479 
L 137.394451 -123.785043 
L 133.929556 -123.308685 
L 130.464661 -124.191129 
L 126.999766 -123.27128 
L 123.534872 -123.713695 
L 120.069977 -123.177973 
L 116.605082 -121.665797 
L 113.140187 -122.312751 
L 109.675293 -124.092538 
L 106.210398 -126.220015 
L 102.745503 -124.462433 
L 99.280609 -123.971111 
L 95.815714 -127.075881 
L 92.350819 -126.216812 
L 88.885924 -126.845966 
L 85.42103 -128.930327 
L 81.956135 -130.739028 
L 78.49124 -132.082699 
L 75.026345 -133.97177 
L 71.561451 -133.83138 
L 68.096556 -129.439968 
L 64.631661 -136.592479 
L 61.166766 -138.142103 
L 57.701872 -141.103285 
L 54.236977 -142.09601 
L 50.772082 -128.987243 
L 47.307188 -125.35211 
z
" style="stroke: #808080; stroke-opacity: 0.7"/>
    </defs>
    <g clip-path="url(#pe51b40593f)">
     <use xlink:href="#m82c29713c3" x="0" y="424.5775" style="fill: #808080; fill-opacity: 0.7; stroke: #808080; stroke-opacity: 0.7"/>
    </g>
   </g>
   <g id="line2d_31">
    <path d="M 47.307188 367.741449 
L 50.772082 367.741449 
L 54.236977 367.471018 
L 57.701872 367.741449 
L 192.832766 367.741449 
L 196.297661 367.203687 
L 199.762556 355.886417 
L 203.227451 339.617777 
L 206.692345 307.752708 
L 210.15724 315.750769 
L 213.622135 332.728141 
L 217.08703 344.766909 
L 220.551924 338.508633 
L 224.016819 352.23017 
L 227.481714 357.788565 
L 230.946609 347.3579 
L 234.411503 325.539784 
L 237.876398 343.496453 
L 241.341293 339.699312 
L 244.806187 346.301684 
L 248.271082 346.182505 
L 251.735977 333.619998 
L 255.200872 343.004535 
L 258.665766 347.916772 
L 262.130661 354.610693 
L 265.595556 353.758201 
L 269.060451 355.564694 
L 272.525345 356.072566 
L 275.99024 357.559789 
L 279.455135 357.440249 
L 282.92003 355.944355 
L 286.384924 360.557139 
L 289.849819 360.652294 
L 293.314714 363.255667 
L 296.779609 365.324692 
L 300.244503 366.512929 
L 307.174293 366.670938 
L 310.639187 366.270339 
L 314.104082 365.134538 
L 317.568977 367.138792 
L 321.033872 367.642339 
L 324.498766 364.486253 
L 327.963661 364.340157 
L 331.428556 366.684222 
L 334.893451 367.594476 
L 338.358345 366.757406 
L 341.82324 367.499812 
L 345.288135 364.999869 
L 348.75303 367.429066 
L 352.217924 365.482941 
L 355.682819 364.821232 
L 359.147714 367.581051 
L 362.612609 366.632142 
L 366.077503 366.421164 
L 369.542398 367.091078 
L 373.007293 367.523591 
L 376.472188 364.852724 
L 379.937082 366.390538 
L 383.401977 366.386198 
L 386.866872 366.144051 
L 390.331766 349.44881 
L 393.796661 338.882615 
L 397.261556 322.081732 
L 400.726451 326.618587 
L 404.191345 327.225259 
L 407.65624 335.592803 
L 411.121135 329.984427 
L 414.58603 325.596741 
L 418.050924 324.418793 
L 421.515819 324.495768 
L 424.980714 341.264872 
L 428.445609 342.886266 
L 431.910503 349.209566 
L 435.375398 324.582036 
L 438.840293 338.794106 
L 442.305187 333.884156 
L 445.770082 325.977932 
L 449.234977 322.41171 
L 452.699872 321.82631 
L 456.164766 324.470408 
L 459.629661 330.80054 
L 463.094556 345.273346 
L 466.559451 343.834418 
L 470.024345 344.758337 
L 473.48924 342.904619 
L 476.954135 343.088417 
L 480.41903 347.338598 
L 483.883924 344.679861 
L 487.348819 347.985541 
L 490.813714 355.743461 
L 494.278609 360.761412 
L 497.743503 366.047912 
L 501.208398 367.741449 
L 504.673293 367.741449 
L 508.138188 367.289341 
L 511.603082 367.526747 
L 515.067977 367.609299 
L 518.532872 367.334249 
L 525.462661 366.288445 
L 532.392451 367.741449 
L 570.506293 367.741449 
L 573.971188 363.846447 
L 577.436082 366.617349 
L 580.900977 367.259233 
L 584.365872 367.609954 
L 587.830766 367.09712 
L 591.295661 336.27833 
L 594.760556 348.028333 
L 598.225451 350.364639 
L 601.690345 346.662372 
L 605.15524 341.327404 
L 608.620135 332.788021 
L 612.08503 344.30648 
L 615.549924 306.318273 
L 619.014819 349.201091 
L 622.479714 329.529172 
L 625.944609 338.49893 
L 629.409503 319.763515 
L 632.874398 324.132715 
L 636.339293 311.919752 
L 639.804188 308.26897 
L 643.269082 314.911197 
L 646.733977 322.430333 
L 650.198872 327.136639 
L 653.663766 330.121105 
L 657.128661 318.856877 
L 660.593556 325.933306 
L 664.058451 321.05917 
L 667.523345 293.928587 
L 670.98824 343.013744 
L 674.453135 350.028191 
L 677.91803 341.724396 
L 681.382924 337.971589 
L 684.847819 344.389324 
L 688.312714 340.461393 
L 691.777609 343.665576 
L 695.242503 349.641497 
L 698.707398 347.688807 
L 702.172293 313.528256 
L 705.637188 313.054158 
L 705.637188 313.054158 
" clip-path="url(#pe51b40593f)" style="fill: none; stroke: #ff8c00; stroke-width: 2.3; stroke-linecap: square"/>
   </g>
   <g id="line2d_32">
    <path d="M 282.92003 384.117812 
L 282.92003 23.837812 
" clip-path="url(#pe51b40593f)" style="fill: none; stroke-dasharray: 5.55,2.4; stroke-dashoffset: 0; stroke: #808080; stroke-width: 1.5"/>
   </g>
   <g id="line2d_33">
    <path d="M 483.883924 384.117812 
L 483.883924 23.837812 
" clip-path="url(#pe51b40593f)" style="fill: none; stroke-dasharray: 5.55,2.4; stroke-dashoffset: 0; stroke: #808080; stroke-width: 1.5"/>
   </g>
   <g id="patch_3">
    <path d="M 47.307188 384.117812 
L 47.307188 23.837812 
" style="fill: none; stroke: #000000; stroke-width: 0.8; stroke-linejoin: miter; stroke-linecap: square"/>
   </g>
   <g id="patch_4">
    <path d="M 705.637188 384.117812 
L 705.637188 23.837812 
" style="fill: none; stroke: #000000; stroke-width: 0.8; stroke-linejoin: miter; stroke-linecap: square"/>
   </g>
   <g id="patch_5">
    <path d="M 47.307188 384.117812 
L 705.637188 384.117812 
" style="fill: none; stroke: #000000; stroke-width: 0.8; stroke-linejoin: miter; stroke-linecap: square"/>
   </g>
   <g id="patch_6">
    <path d="M 47.307188 23.837812 
L 705.637188 23.837812 
" style="fill: none; stroke: #000000; stroke-width: 0.8; stroke-linejoin: miter; stroke-linecap: square"/>
   </g>
   <g id="text_18">
    <!-- Facial trace: Autism spectrum condition (ASC) -->
    <g transform="translate(215.768594 17.837812) scale(0.14 -0.14)">
     <defs>
      <path id="DejaVuSans-46" d="M 628 4666 
L 3309 4666 
L 3309 4134 
L 1259 4134 
L 1259 2759 
L 3109 2759 
L 3109 2228 
L 1259 2228 
L 1259 0 
L 628 0 
L 628 4666 
z
" transform="scale(0.015625)"/>
      <path id="DejaVuSans-63" d="M 3122 3366 
L 3122 2828 
Q 2878 2963 2633 3030 
Q 2388 3097 2138 3097 
Q 1578 3097 1268 2742 
Q 959 2388 959 1747 
Q 959 1106 1268 751 
Q 1578 397 2138 397 
Q 2388 397 2633 464 
Q 2878 531 3122 666 
L 3122 134 
Q 2881 22 2623 -34 
Q 2366 -91 2075 -91 
Q 1284 -91 818 406 
Q 353 903 353 1747 
Q 353 2603 823 3093 
Q 1294 3584 2113 3584 
Q 2378 3584 2631 3529 
Q 2884 3475 3122 3366 
z
" transform="scale(0.015625)"/>
      <path id="DejaVuSans-6c" d="M 603 4863 
L 1178 4863 
L 1178 0 
L 603 0 
L 603 4863 
z
" transform="scale(0.015625)"/>
      <path id="DejaVuSans-72" d="M 2631 2963 
Q 2534 3019 2420 3045 
Q 2306 3072 2169 3072 
Q 1681 3072 1420 2755 
Q 1159 2438 1159 1844 
L 1159 0 
L 581 0 
L 581 3500 
L 1159 3500 
L 1159 2956 
Q 1341 3275 1631 3429 
Q 1922 3584 2338 3584 
Q 2397 3584 2469 3576 
Q 2541 3569 2628 3553 
L 2631 2963 
z
" transform="scale(0.015625)"/>
      <path id="DejaVuSans-3a" d="M 750 794 
L 1409 794 
L 1409 0 
L 750 0 
L 750 794 
z
M 750 3309 
L 1409 3309 
L 1409 2516 
L 750 2516 
L 750 3309 
z
" transform="scale(0.015625)"/>
      <path id="DejaVuSans-75" d="M 544 1381 
L 544 3500 
L 1119 3500 
L 1119 1403 
Q 1119 906 1312 657 
Q 1506 409 1894 409 
Q 2359 409 2629 706 
Q 2900 1003 2900 1516 
L 2900 3500 
L 3475 3500 
L 3475 0 
L 2900 0 
L 2900 538 
Q 2691 219 2414 64 
Q 2138 -91 1772 -91 
Q 1169 -91 856 284 
Q 544 659 544 1381 
z
M 1991 3584 
L 1991 3584 
z
" transform="scale(0.015625)"/>
      <path id="DejaVuSans-70" d="M 1159 525 
L 1159 -1331 
L 581 -1331 
L 581 3500 
L 1159 3500 
L 1159 2969 
Q 1341 3281 1617 3432 
Q 1894 3584 2278 3584 
Q 2916 3584 3314 3078 
Q 3713 2572 3713 1747 
Q 3713 922 3314 415 
Q 2916 -91 2278 -91 
Q 1894 -91 1617 61 
Q 1341 213 1159 525 
z
M 3116 1747 
Q 3116 2381 2855 2742 
Q 2594 3103 2138 3103 
Q 1681 3103 1420 2742 
Q 1159 2381 1159 1747 
Q 1159 1113 1420 752 
Q 1681 391 2138 391 
Q 2594 391 2855 752 
Q 3116 1113 3116 1747 
z
" transform="scale(0.015625)"/>
      <path id="DejaVuSans-6f" d="M 1959 3097 
Q 1497 3097 1228 2736 
Q 959 2375 959 1747 
Q 959 1119 1226 758 
Q 1494 397 1959 397 
Q 2419 397 2687 759 
Q 2956 1122 2956 1747 
Q 2956 2369 2687 2733 
Q 2419 3097 1959 3097 
z
M 1959 3584 
Q 2709 3584 3137 3096 
Q 3566 2609 3566 1747 
Q 3566 888 3137 398 
Q 2709 -91 1959 -91 
Q 1206 -91 779 398 
Q 353 888 353 1747 
Q 353 2609 779 3096 
Q 1206 3584 1959 3584 
z
" transform="scale(0.015625)"/>
      <path id="DejaVuSans-64" d="M 2906 2969 
L 2906 4863 
L 3481 4863 
L 3481 0 
L 2906 0 
L 2906 525 
Q 2725 213 2448 61 
Q 2172 -91 1784 -91 
Q 1150 -91 751 415 
Q 353 922 353 1747 
Q 353 2572 751 3078 
Q 1150 3584 1784 3584 
Q 2172 3584 2448 3432 
Q 2725 3281 2906 2969 
z
M 947 1747 
Q 947 1113 1208 752 
Q 1469 391 1925 391 
Q 2381 391 2643 752 
Q 2906 1113 2906 1747 
Q 2906 2381 2643 2742 
Q 2381 3103 1925 3103 
Q 1469 3103 1208 2742 
Q 947 2381 947 1747 
z
" transform="scale(0.015625)"/>
      <path id="DejaVuSans-53" d="M 3425 4513 
L 3425 3897 
Q 3066 4069 2747 4153 
Q 2428 4238 2131 4238 
Q 1616 4238 1336 4038 
Q 1056 3838 1056 3469 
Q 1056 3159 1242 3001 
Q 1428 2844 1947 2747 
L 2328 2669 
Q 3034 2534 3370 2195 
Q 3706 1856 3706 1288 
Q 3706 609 3251 259 
Q 2797 -91 1919 -91 
Q 1588 -91 1214 -16 
Q 841 59 441 206 
L 441 856 
Q 825 641 1194 531 
Q 1563 422 1919 422 
Q 2459 422 2753 634 
Q 3047 847 3047 1241 
Q 3047 1584 2836 1778 
Q 2625 1972 2144 2069 
L 1759 2144 
Q 1053 2284 737 2584 
Q 422 2884 422 3419 
Q 422 4038 858 4394 
Q 1294 4750 2059 4750 
Q 2388 4750 2728 4690 
Q 3069 4631 3425 4513 
z
" transform="scale(0.015625)"/>
      <path id="DejaVuSans-43" d="M 4122 4306 
L 4122 3641 
Q 3803 3938 3442 4084 
Q 3081 4231 2675 4231 
Q 1875 4231 1450 3742 
Q 1025 3253 1025 2328 
Q 1025 1406 1450 917 
Q 1875 428 2675 428 
Q 3081 428 3442 575 
Q 3803 722 4122 1019 
L 4122 359 
Q 3791 134 3420 21 
Q 3050 -91 2638 -91 
Q 1578 -91 968 557 
Q 359 1206 359 2328 
Q 359 3453 968 4101 
Q 1578 4750 2638 4750 
Q 3056 4750 3426 4639 
Q 3797 4528 4122 4306 
z
" transform="scale(0.015625)"/>
     </defs>
     <use xlink:href="#DejaVuSans-46"/>
     <use xlink:href="#DejaVuSans-61" transform="translate(48.394531 0)"/>
     <use xlink:href="#DejaVuSans-63" transform="translate(109.673828 0)"/>
     <use xlink:href="#DejaVuSans-69" transform="translate(164.654297 0)"/>
     <use xlink:href="#DejaVuSans-61" transform="translate(192.4375 0)"/>
     <use xlink:href="#DejaVuSans-6c" transform="translate(253.716797 0)"/>
     <use xlink:href="#DejaVuSans-20" transform="translate(281.5 0)"/>
     <use xlink:href="#DejaVuSans-74" transform="translate(313.287109 0)"/>
     <use xlink:href="#DejaVuSans-72" transform="translate(352.496094 0)"/>
     <use xlink:href="#DejaVuSans-61" transform="translate(393.609375 0)"/>
     <use xlink:href="#DejaVuSans-63" transform="translate(454.888672 0)"/>
     <use xlink:href="#DejaVuSans-65" transform="translate(509.869141 0)"/>
     <use xlink:href="#DejaVuSans-3a" transform="translate(571.392578 0)"/>
     <use xlink:href="#DejaVuSans-20" transform="translate(605.083984 0)"/>
     <use xlink:href="#DejaVuSans-41" transform="translate(636.871094 0)"/>
     <use xlink:href="#DejaVuSans-75" transform="translate(705.279297 0)"/>
     <use xlink:href="#DejaVuSans-74" transform="translate(768.658203 0)"/>
     <use xlink:href="#DejaVuSans-69" transform="translate(807.867188 0)"/>
     <use xlink:href="#DejaVuSans-73" transform="translate(835.650391 0)"/>
     <use xlink:href="#DejaVuSans-6d" transform="translate(887.75 0)"/>
     <use xlink:href="#DejaVuSans-20" transform="translate(985.162109 0)"/>
     <use xlink:href="#DejaVuSans-73" transform="translate(1016.949219 0)"/>
     <use xlink:href="#DejaVuSans-70" transform="translate(1069.048828 0)"/>
     <use xlink:href="#DejaVuSans-65" transform="translate(1132.525391 0)"/>
     <use xlink:href="#DejaVuSans-63" transform="translate(1194.048828 0)"/>
     <use xlink:href="#DejaVuSans-74" transform="translate(1249.029297 0)"/>
     <use xlink:href="#DejaVuSans-72" transform="translate(1288.238281 0)"/>
     <use xlink:href="#DejaVuSans-75" transform="translate(1329.351562 0)"/>
     <use xlink:href="#DejaVuSans-6d" transform="translate(1392.730469 0)"/>
     <use xlink:href="#DejaVuSans-20" transform="translate(1490.142578 0)"/>
     <use xlink:href="#DejaVuSans-63" transform="translate(1521.929688 0)"/>
     <use xlink:href="#DejaVuSans-6f" transform="translate(1576.910156 0)"/>
     <use xlink:href="#DejaVuSans-6e" transform="translate(1638.091797 0)"/>
     <use xlink:href="#DejaVuSans-64" transform="translate(1701.470703 0)"/>
     <use xlink:href="#DejaVuSans-69" transform="translate(1764.947266 0)"/>
     <use xlink:href="#DejaVuSans-74" transform="translate(1792.730469 0)"/>
     <use xlink:href="#DejaVuSans-69" transform="translate(1831.939453 0)"/>
     <use xlink:href="#DejaVuSans-6f" transform="translate(1859.722656 0)"/>
     <use xlink:href="#DejaVuSans-6e" transform="translate(1920.904297 0)"/>
     <use xlink:href="#DejaVuSans-20" transform="translate(1984.283203 0)"/>
     <use xlink:href="#DejaVuSans-28" transform="translate(2016.070312 0)"/>
     <use xlink:href="#DejaVuSans-41" transform="translate(2055.083984 0)"/>
     <use xlink:href="#DejaVuSans-53" transform="translate(2123.492188 0)"/>
     <use xlink:href="#DejaVuSans-43" transform="translate(2186.96875 0)"/>
     <use xlink:href="#DejaVuSans-29" transform="translate(2256.792969 0)"/>
    </g>
   </g>
   <g id="legend_1">
    <g id="patch_7">
     <path d="M 425.355469 42.096094 
L 447.355469 42.096094 
L 447.355469 34.396094 
L 425.355469 34.396094 
z
" style="fill: #d3d3d3; fill-opacity: 0.5; stroke: #d3d3d3; stroke-opacity: 0.5; stroke-linejoin: miter"/>
    </g>
    <g id="text_19">
     <!-- Autism spectrum condition (ASC) ±2 SD -->
     <g transform="translate(456.155469 42.096094) scale(0.11 -0.11)">
      <defs>
       <path id="DejaVuSans-b1" d="M 2944 4013 
L 2944 2803 
L 4684 2803 
L 4684 2272 
L 2944 2272 
L 2944 1063 
L 2419 1063 
L 2419 2272 
L 678 2272 
L 678 2803 
L 2419 2803 
L 2419 4013 
L 2944 4013 
z
M 678 531 
L 4684 531 
L 4684 0 
L 678 0 
L 678 531 
z
" transform="scale(0.015625)"/>
       <path id="DejaVuSans-44" d="M 1259 4147 
L 1259 519 
L 2022 519 
Q 2988 519 3436 956 
Q 3884 1394 3884 2338 
Q 3884 3275 3436 3711 
Q 2988 4147 2022 4147 
L 1259 4147 
z
M 628 4666 
L 1925 4666 
Q 3281 4666 3915 4102 
Q 4550 3538 4550 2338 
Q 4550 1131 3912 565 
Q 3275 0 1925 0 
L 628 0 
L 628 4666 
z
" transform="scale(0.015625)"/>
      </defs>
      <use xlink:href="#DejaVuSans-41"/>
      <use xlink:href="#DejaVuSans-75" transform="translate(68.408203 0)"/>
      <use xlink:href="#DejaVuSans-74" transform="translate(131.787109 0)"/>
      <use xlink:href="#DejaVuSans-69" transform="translate(170.996094 0)"/>
      <use xlink:href="#DejaVuSans-73" transform="translate(198.779297 0)"/>
      <use xlink:href="#DejaVuSans-6d" transform="translate(250.878906 0)"/>
      <use xlink:href="#DejaVuSans-20" transform="translate(348.291016 0)"/>
      <use xlink:href="#DejaVuSans-73" transform="translate(380.078125 0)"/>
      <use xlink:href="#DejaVuSans-70" transform="translate(432.177734 0)"/>
      <use xlink:href="#DejaVuSans-65" transform="translate(495.654297 0)"/>
      <use xlink:href="#DejaVuSans-63" transform="translate(557.177734 0)"/>
      <use xlink:href="#DejaVuSans-74" transform="translate(612.158203 0)"/>
      <use xlink:href="#DejaVuSans-72" transform="translate(651.367188 0)"/>
      <use xlink:href="#DejaVuSans-75" transform="translate(692.480469 0)"/>
      <use xlink:href="#DejaVuSans-6d" transform="translate(755.859375 0)"/>
      <use xlink:href="#DejaVuSans-20" transform="translate(853.271484 0)"/>
      <use xlink:href="#DejaVuSans-63" transform="translate(885.058594 0)"/>
      <use xlink:href="#DejaVuSans-6f" transform="translate(940.039062 0)"/>
      <use xlink:href="#DejaVuSans-6e" transform="translate(1001.220703 0)"/>
      <use xlink:href="#DejaVuSans-64" transform="translate(1064.599609 0)"/>
      <use xlink:href="#DejaVuSans-69" transform="translate(1128.076172 0)"/>
      <use xlink:href="#DejaVuSans-74" transform="translate(1155.859375 0)"/>
      <use xlink:href="#DejaVuSans-69" transform="translate(1195.068359 0)"/>
      <use xlink:href="#DejaVuSans-6f" transform="translate(1222.851562 0)"/>
      <use xlink:href="#DejaVuSans-6e" transform="translate(1284.033203 0)"/>
      <use xlink:href="#DejaVuSans-20" transform="translate(1347.412109 0)"/>
      <use xlink:href="#DejaVuSans-28" transform="translate(1379.199219 0)"/>
      <use xlink:href="#DejaVuSans-41" transform="translate(1418.212891 0)"/>
      <use xlink:href="#DejaVuSans-53" transform="translate(1486.621094 0)"/>
      <use xlink:href="#DejaVuSans-43" transform="translate(1550.097656 0)"/>
      <use xlink:href="#DejaVuSans-29" transform="translate(1619.921875 0)"/>
      <use xlink:href="#DejaVuSans-20" transform="translate(1658.935547 0)"/>
      <use xlink:href="#DejaVuSans-b1" transform="translate(1690.722656 0)"/>
      <use xlink:href="#DejaVuSans-32" transform="translate(1774.511719 0)"/>
      <use xlink:href="#DejaVuSans-20" transform="translate(1838.134766 0)"/>
      <use xlink:href="#DejaVuSans-53" transform="translate(1869.921875 0)"/>
      <use xlink:href="#DejaVuSans-44" transform="translate(1933.398438 0)"/>
     </g>
    </g>
    <g id="patch_8">
     <path d="M 425.355469 58.242031 
L 447.355469 58.242031 
L 447.355469 50.542031 
L 425.355469 50.542031 
z
" style="fill: #808080; fill-opacity: 0.7; stroke: #808080; stroke-opacity: 0.7; stroke-linejoin: miter"/>
    </g>
    <g id="text_20">
     <!-- Autism spectrum condition (ASC) ±1 SD -->
     <g transform="translate(456.155469 58.242031) scale(0.11 -0.11)">
      <use xlink:href="#DejaVuSans-41"/>
      <use xlink:href="#DejaVuSans-75" transform="translate(68.408203 0)"/>
      <use xlink:href="#DejaVuSans-74" transform="translate(131.787109 0)"/>
      <use xlink:href="#DejaVuSans-69" transform="translate(170.996094 0)"/>
      <use xlink:href="#DejaVuSans-73" transform="translate(198.779297 0)"/>
      <use xlink:href="#DejaVuSans-6d" transform="translate(250.878906 0)"/>
      <use xlink:href="#DejaVuSans-20" transform="translate(348.291016 0)"/>
      <use xlink:href="#DejaVuSans-73" transform="translate(380.078125 0)"/>
      <use xlink:href="#DejaVuSans-70" transform="translate(432.177734 0)"/>
      <use xlink:href="#DejaVuSans-65" transform="translate(495.654297 0)"/>
      <use xlink:href="#DejaVuSans-63" transform="translate(557.177734 0)"/>
      <use xlink:href="#DejaVuSans-74" transform="translate(612.158203 0)"/>
      <use xlink:href="#DejaVuSans-72" transform="translate(651.367188 0)"/>
      <use xlink:href="#DejaVuSans-75" transform="translate(692.480469 0)"/>
      <use xlink:href="#DejaVuSans-6d" transform="translate(755.859375 0)"/>
      <use xlink:href="#DejaVuSans-20" transform="translate(853.271484 0)"/>
      <use xlink:href="#DejaVuSans-63" transform="translate(885.058594 0)"/>
      <use xlink:href="#DejaVuSans-6f" transform="translate(940.039062 0)"/>
      <use xlink:href="#DejaVuSans-6e" transform="translate(1001.220703 0)"/>
      <use xlink:href="#DejaVuSans-64" transform="translate(1064.599609 0)"/>
      <use xlink:href="#DejaVuSans-69" transform="translate(1128.076172 0)"/>
      <use xlink:href="#DejaVuSans-74" transform="translate(1155.859375 0)"/>
      <use xlink:href="#DejaVuSans-69" transform="translate(1195.068359 0)"/>
      <use xlink:href="#DejaVuSans-6f" transform="translate(1222.851562 0)"/>
      <use xlink:href="#DejaVuSans-6e" transform="translate(1284.033203 0)"/>
      <use xlink:href="#DejaVuSans-20" transform="translate(1347.412109 0)"/>
      <use xlink:href="#DejaVuSans-28" transform="translate(1379.199219 0)"/>
      <use xlink:href="#DejaVuSans-41" transform="translate(1418.212891 0)"/>
      <use xlink:href="#DejaVuSans-53" transform="translate(1486.621094 0)"/>
      <use xlink:href="#DejaVuSans-43" transform="translate(1550.097656 0)"/>
      <use xlink:href="#DejaVuSans-29" transform="translate(1619.921875 0)"/>
      <use xlink:href="#DejaVuSans-20" transform="translate(1658.935547 0)"/>
      <use xlink:href="#DejaVuSans-b1" transform="translate(1690.722656 0)"/>
      <use xlink:href="#DejaVuSans-31" transform="translate(1774.511719 0)"/>
      <use xlink:href="#DejaVuSans-20" transform="translate(1838.134766 0)"/>
      <use xlink:href="#DejaVuSans-53" transform="translate(1869.921875 0)"/>
      <use xlink:href="#DejaVuSans-44" transform="translate(1933.398438 0)"/>
     </g>
    </g>
    <g id="line2d_34">
     <path d="M 425.355469 70.537969 
L 436.355469 70.537969 
L 447.355469 70.537969 
" style="fill: none; stroke: #ff8c00; stroke-width: 2.3; stroke-linecap: square"/>
    </g>
    <g id="text_21">
     <!-- Autism spectrum condition (ASC) prototype -->
     <g transform="translate(456.155469 74.387969) scale(0.11 -0.11)">
      <use xlink:href="#DejaVuSans-41"/>
      <use xlink:href="#DejaVuSans-75" transform="translate(68.408203 0)"/>
      <use xlink:href="#DejaVuSans-74" transform="translate(131.787109 0)"/>
      <use xlink:href="#DejaVuSans-69" transform="translate(170.996094 0)"/>
      <use xlink:href="#DejaVuSans-73" transform="translate(198.779297 0)"/>
      <use xlink:href="#DejaVuSans-6d" transform="translate(250.878906 0)"/>
      <use xlink:href="#DejaVuSans-20" transform="translate(348.291016 0)"/>
      <use xlink:href="#DejaVuSans-73" transform="translate(380.078125 0)"/>
      <use xlink:href="#DejaVuSans-70" transform="translate(432.177734 0)"/>
      <use xlink:href="#DejaVuSans-65" transform="translate(495.654297 0)"/>
      <use xlink:href="#DejaVuSans-63" transform="translate(557.177734 0)"/>
      <use xlink:href="#DejaVuSans-74" transform="translate(612.158203 0)"/>
      <use xlink:href="#DejaVuSans-72" transform="translate(651.367188 0)"/>
      <use xlink:href="#DejaVuSans-75" transform="translate(692.480469 0)"/>
      <use xlink:href="#DejaVuSans-6d" transform="translate(755.859375 0)"/>
      <use xlink:href="#DejaVuSans-20" transform="translate(853.271484 0)"/>
      <use xlink:href="#DejaVuSans-63" transform="translate(885.058594 0)"/>
      <use xlink:href="#DejaVuSans-6f" transform="translate(940.039062 0)"/>
      <use xlink:href="#DejaVuSans-6e" transform="translate(1001.220703 0)"/>
      <use xlink:href="#DejaVuSans-64" transform="translate(1064.599609 0)"/>
      <use xlink:href="#DejaVuSans-69" transform="translate(1128.076172 0)"/>
      <use xlink:href="#DejaVuSans-74" transform="translate(1155.859375 0)"/>
      <use xlink:href="#DejaVuSans-69" transform="translate(1195.068359 0)"/>
      <use xlink:href="#DejaVuSans-6f" transform="translate(1222.851562 0)"/>
      <use xlink:href="#DejaVuSans-6e" transform="translate(1284.033203 0)"/>
      <use xlink:href="#DejaVuSans-20" transform="translate(1347.412109 0)"/>
      <use xlink:href="#DejaVuSans-28" transform="translate(1379.199219 0)"/>
      <use xlink:href="#DejaVuSans-41" transform="translate(1418.212891 0)"/>
      <use xlink:href="#DejaVuSans-53" transform="translate(1486.621094 0)"/>
      <use xlink:href="#DejaVuSans-43" transform="translate(1550.097656 0)"/>
      <use xlink:href="#DejaVuSans-29" transform="translate(1619.921875 0)"/>
      <use xlink:href="#DejaVuSans-20" transform="translate(1658.935547 0)"/>
      <use xlink:href="#DejaVuSans-70" transform="translate(1690.722656 0)"/>
      <use xlink:href="#DejaVuSans-72" transform="translate(1754.199219 0)"/>
      <use xlink:href="#DejaVuSans-6f" transform="translate(1793.0625 0)"/>
      <use xlink:href="#DejaVuSans-74" transform="translate(1854.244141 0)"/>
      <use xlink:href="#DejaVuSans-6f" transform="translate(1893.453125 0)"/>
      <use xlink:href="#DejaVuSans-74" transform="translate(1954.634766 0)"/>
      <use xlink:href="#DejaVuSans-79" transform="translate(1993.84375 0)"/>
      <use xlink:href="#DejaVuSans-70" transform="translate(2053.023438 0)"/>
      <use xlink:href="#DejaVuSans-65" transform="translate(2116.5 0)"/>
     </g>
    </g>
   </g>
  </g>
 </g>
 <defs>
  <clipPath id="pe51b40593f">
   <rect x="47.307188" y="23.837812" width="658.33" height="360.28"/>
  </clipPath>
 </defs>
</svg>
