<?xml version="1.0" encoding="utf-8" standalone="no"?>
<!DOCTYPE svg PUBLIC "-//W3C//DTD SVG 1.1//EN"
  "http://www.w3.org/Graphics/SVG/1.1/DTD/svg11.dtd">
<svg xmlns:xlink="http://www.w3.org/1999/xlink" width="712.837188pt" height="424.5775pt" viewBox="0 0 712.837188 424.5775" xmlns="http://www.w3.org/2000/svg" version="1.1">
 <metadata>
  <rdf:RDF xmlns:dc="http://purl.org/dc/elements/1.1/" xmlns:cc="http://creativecommons.org/ns#" xmlns:rdf="http://www.w3.org/1999/02/22-rdf-syntax-ns#">
   <cc:Work>
    <dc:type rdf:resource="http://purl.org/dc/dcmitype/StillImage"/>
    <dc:date>2026-06-14T18:55:46.221227</dc:date>
    <dc:format>image/svg+xml</dc:format>
    <dc:creator>
     <cc:Agent>
      <dc:title>Matplotlib v3.10.1, https://matplotlib.org/</dc:title>
     </cc:Agent>
    </dc:creator>
   </cc:Work>
  </rdf:RDF>
 </metadata>
 <defs>
  <style type="text/css">*{stroke-linejoin: round; stroke-linecap: butt}</style>
 </defs>
 <g id="figure_1">
  <g id="patch_1">
   <path d="M 0 424.5775 
L 712.837188 424.5775 
L 712.837188 0 
L 0 0 
z
" style="fill: #ffffff"/>
  </g>
  <g id="axes_1">
   <g id="patch_2">
    <path d="M 47.307188 384.117812 
L 705.637188 384.117812 
L 705.637188 23.837812 
L 47.307188 23.837812 
z
" style="fill: #ffffff"/>
   </g>
   <g id="matplotlib.axis_1">
    <g id="xtick_1">
     <g id="line2d_1">
      <path d="M 47.307188 384.117812 
L 47.307188 23.837812 
" clip-path="url(#pbe0362c4cf)" style="fill: none; stroke: #b0b0b0; stroke-opacity: 0.2; stroke-width: 0.6; stroke-linecap: square"/>
     </g>
     <g id="line2d_2">
      <defs>
       <path id="md746550134" d="M 0 0 
L 0 3.5 
" style="stroke: #000000; stroke-width: 0.8"/>
      </defs>
      <g>
       <use xlink:href="#md746550134" x="47.307188" y="384.117812" style="stroke: #000000; stroke-width: 0.8"/>
      </g>
     </g>
     <g id="text_1">
      <!-- 0 -->
      <g transform="translate(43.807813 399.476094) scale(0.11 -0.11)">
       <defs>
        <path id="DejaVuSans-30" d="M 2034 4250 
Q 1547 4250 1301 3770 
Q 1056 3291 1056 2328 
Q 1056 1369 1301 889 
Q 1547 409 2034 409 
Q 2525 409 2770 889 
Q 3016 1369 3016 2328 
Q 3016 3291 2770 3770 
Q 2525 4250 2034 4250 
z
M 2034 4750 
Q 2819 4750 3233 4129 
Q 3647 3509 3647 2328 
Q 3647 1150 3233 529 
Q 2819 -91 2034 -91 
Q 1250 -91 836 529 
Q 422 1150 422 2328 
Q 422 3509 836 4129 
Q 1250 4750 2034 4750 
z
" transform="scale(0.015625)"/>
       </defs>
       <use xlink:href="#DejaVuSans-30"/>
      </g>
     </g>
    </g>
    <g id="xtick_2">
     <g id="line2d_3">
      <path d="M 134.387875 384.117812 
L 134.387875 23.837812 
" clip-path="url(#pbe0362c4cf)" style="fill: none; stroke: #b0b0b0; stroke-opacity: 0.2; stroke-width: 0.6; stroke-linecap: square"/>
     </g>
     <g id="line2d_4">
      <g>
       <use xlink:href="#md746550134" x="134.387875" y="384.117812" style="stroke: #000000; stroke-width: 0.8"/>
      </g>
     </g>
     <g id="text_2">
      <!-- 25 -->
      <g transform="translate(127.389125 399.476094) scale(0.11 -0.11)">
       <defs>
        <path id="DejaVuSans-32" d="M 1228 531 
L 3431 531 
L 3431 0 
L 469 0 
L 469 531 
Q 828 903 1448 1529 
Q 2069 2156 2228 2338 
Q 2531 2678 2651 2914 
Q 2772 3150 2772 3378 
Q 2772 3750 2511 3984 
Q 2250 4219 1831 4219 
Q 1534 4219 1204 4116 
Q 875 4013 500 3803 
L 500 4441 
Q 881 4594 1212 4672 
Q 1544 4750 1819 4750 
Q 2544 4750 2975 4387 
Q 3406 4025 3406 3419 
Q 3406 3131 3298 2873 
Q 3191 2616 2906 2266 
Q 2828 2175 2409 1742 
Q 1991 1309 1228 531 
z
" transform="scale(0.015625)"/>
        <path id="DejaVuSans-35" d="M 691 4666 
L 3169 4666 
L 3169 4134 
L 1269 4134 
L 1269 2991 
Q 1406 3038 1543 3061 
Q 1681 3084 1819 3084 
Q 2600 3084 3056 2656 
Q 3513 2228 3513 1497 
Q 3513 744 3044 326 
Q 2575 -91 1722 -91 
Q 1428 -91 1123 -41 
Q 819 9 494 109 
L 494 744 
Q 775 591 1075 516 
Q 1375 441 1709 441 
Q 2250 441 2565 725 
Q 2881 1009 2881 1497 
Q 2881 1984 2565 2268 
Q 2250 2553 1709 2553 
Q 1456 2553 1204 2497 
Q 953 2441 691 2322 
L 691 4666 
z
" transform="scale(0.015625)"/>
       </defs>
       <use xlink:href="#DejaVuSans-32"/>
       <use xlink:href="#DejaVuSans-35" transform="translate(63.623047 0)"/>
      </g>
     </g>
    </g>
    <g id="xtick_3">
     <g id="line2d_5">
      <path d="M 221.468563 384.117812 
L 221.468563 23.837812 
" clip-path="url(#pbe0362c4cf)" style="fill: none; stroke: #b0b0b0; stroke-opacity: 0.2; stroke-width: 0.6; stroke-linecap: square"/>
     </g>
     <g id="line2d_6">
      <g>
       <use xlink:href="#md746550134" x="221.468563" y="384.117812" style="stroke: #000000; stroke-width: 0.8"/>
      </g>
     </g>
     <g id="text_3">
      <!-- 50 -->
      <g transform="translate(214.469813 399.476094) scale(0.11 -0.11)">
       <use xlink:href="#DejaVuSans-35"/>
       <use xlink:href="#DejaVuSans-30" transform="translate(63.623047 0)"/>
      </g>
     </g>
    </g>
    <g id="xtick_4">
     <g id="line2d_7">
      <path d="M 308.549251 384.117812 
L 308.549251 23.837812 
" clip-path="url(#pbe0362c4cf)" style="fill: none; stroke: #b0b0b0; stroke-opacity: 0.2; stroke-width: 0.6; stroke-linecap: square"/>
     </g>
     <g id="line2d_8">
      <g>
       <use xlink:href="#md746550134" x="308.549251" y="384.117812" style="stroke: #000000; stroke-width: 0.8"/>
      </g>
     </g>
     <g id="text_4">
      <!-- 75 -->
      <g transform="translate(301.550501 399.476094) scale(0.11 -0.11)">
       <defs>
        <path id="DejaVuSans-37" d="M 525 4666 
L 3525 4666 
L 3525 4397 
L 1831 0 
L 1172 0 
L 2766 4134 
L 525 4134 
L 525 4666 
z
" transform="scale(0.015625)"/>
       </defs>
       <use xlink:href="#DejaVuSans-37"/>
       <use xlink:href="#DejaVuSans-35" transform="translate(63.623047 0)"/>
      </g>
     </g>
    </g>
    <g id="xtick_5">
     <g id="line2d_9">
      <path d="M 395.629939 384.117812 
L 395.629939 23.837812 
" clip-path="url(#pbe0362c4cf)" style="fill: none; stroke: #b0b0b0; stroke-opacity: 0.2; stroke-width: 0.6; stroke-linecap: square"/>
     </g>
     <g id="line2d_10">
      <g>
       <use xlink:href="#md746550134" x="395.629939" y="384.117812" style="stroke: #000000; stroke-width: 0.8"/>
      </g>
     </g>
     <g id="text_5">
      <!-- 100 -->
      <g transform="translate(385.131814 399.476094) scale(0.11 -0.11)">
       <defs>
        <path id="DejaVuSans-31" d="M 794 531 
L 1825 531 
L 1825 4091 
L 703 3866 
L 703 4441 
L 1819 4666 
L 2450 4666 
L 2450 531 
L 3481 531 
L 3481 0 
L 794 0 
L 794 531 
z
" transform="scale(0.015625)"/>
       </defs>
       <use xlink:href="#DejaVuSans-31"/>
       <use xlink:href="#DejaVuSans-30" transform="translate(63.623047 0)"/>
       <use xlink:href="#DejaVuSans-30" transform="translate(127.246094 0)"/>
      </g>
     </g>
    </g>
    <g id="xtick_6">
     <g id="line2d_11">
      <path d="M 482.710627 384.117812 
L 482.710627 23.837812 
" clip-path="url(#pbe0362c4cf)" style="fill: none; stroke: #b0b0b0; stroke-opacity: 0.2; stroke-width: 0.6; stroke-linecap: square"/>
     </g>
     <g id="line2d_12">
      <g>
       <use xlink:href="#md746550134" x="482.710627" y="384.117812" style="stroke: #000000; stroke-width: 0.8"/>
      </g>
     </g>
     <g id="text_6">
      <!-- 125 -->
      <g transform="translate(472.212502 399.476094) scale(0.11 -0.11)">
       <use xlink:href="#DejaVuSans-31"/>
       <use xlink:href="#DejaVuSans-32" transform="translate(63.623047 0)"/>
       <use xlink:href="#DejaVuSans-35" transform="translate(127.246094 0)"/>
      </g>
     </g>
    </g>
    <g id="xtick_7">
     <g id="line2d_13">
      <path d="M 569.791314 384.117812 
L 569.791314 23.837812 
" clip-path="url(#pbe0362c4cf)" style="fill: none; stroke: #b0b0b0; stroke-opacity: 0.2; stroke-width: 0.6; stroke-linecap: square"/>
     </g>
     <g id="line2d_14">
      <g>
       <use xlink:href="#md746550134" x="569.791314" y="384.117812" style="stroke: #000000; stroke-width: 0.8"/>
      </g>
     </g>
     <g id="text_7">
      <!-- 150 -->
      <g transform="translate(559.293189 399.476094) scale(0.11 -0.11)">
       <use xlink:href="#DejaVuSans-31"/>
       <use xlink:href="#DejaVuSans-35" transform="translate(63.623047 0)"/>
       <use xlink:href="#DejaVuSans-30" transform="translate(127.246094 0)"/>
      </g>
     </g>
    </g>
    <g id="xtick_8">
     <g id="line2d_15">
      <path d="M 656.872002 384.117812 
L 656.872002 23.837812 
" clip-path="url(#pbe0362c4cf)" style="fill: none; stroke: #b0b0b0; stroke-opacity: 0.2; stroke-width: 0.6; stroke-linecap: square"/>
     </g>
     <g id="line2d_16">
      <g>
       <use xlink:href="#md746550134" x="656.872002" y="384.117812" style="stroke: #000000; stroke-width: 0.8"/>
      </g>
     </g>
     <g id="text_8">
      <!-- 175 -->
      <g transform="translate(646.373877 399.476094) scale(0.11 -0.11)">
       <use xlink:href="#DejaVuSans-31"/>
       <use xlink:href="#DejaVuSans-37" transform="translate(63.623047 0)"/>
       <use xlink:href="#DejaVuSans-35" transform="translate(127.246094 0)"/>
      </g>
     </g>
    </g>
    <g id="text_9">
     <!-- Time (s) -->
     <g transform="translate(352.0775 414.881875) scale(0.12 -0.12)">
      <defs>
       <path id="DejaVuSans-54" d="M -19 4666 
L 3928 4666 
L 3928 4134 
L 2272 4134 
L 2272 0 
L 1638 0 
L 1638 4134 
L -19 4134 
L -19 4666 
z
" transform="scale(0.015625)"/>
       <path id="DejaVuSans-69" d="M 603 3500 
L 1178 3500 
L 1178 0 
L 603 0 
L 603 3500 
z
M 603 4863 
L 1178 4863 
L 1178 4134 
L 603 4134 
L 603 4863 
z
" transform="scale(0.015625)"/>
       <path id="DejaVuSans-6d" d="M 3328 2828 
Q 3544 3216 3844 3400 
Q 4144 3584 4550 3584 
Q 5097 3584 5394 3201 
Q 5691 2819 5691 2113 
L 5691 0 
L 5113 0 
L 5113 2094 
Q 5113 2597 4934 2840 
Q 4756 3084 4391 3084 
Q 3944 3084 3684 2787 
Q 3425 2491 3425 1978 
L 3425 0 
L 2847 0 
L 2847 2094 
Q 2847 2600 2669 2842 
Q 2491 3084 2119 3084 
Q 1678 3084 1418 2786 
Q 1159 2488 1159 1978 
L 1159 0 
L 581 0 
L 581 3500 
L 1159 3500 
L 1159 2956 
Q 1356 3278 1631 3431 
Q 1906 3584 2284 3584 
Q 2666 3584 2933 3390 
Q 3200 3197 3328 2828 
z
" transform="scale(0.015625)"/>
       <path id="DejaVuSans-65" d="M 3597 1894 
L 3597 1613 
L 953 1613 
Q 991 1019 1311 708 
Q 1631 397 2203 397 
Q 2534 397 2845 478 
Q 3156 559 3463 722 
L 3463 178 
Q 3153 47 2828 -22 
Q 2503 -91 2169 -91 
Q 1331 -91 842 396 
Q 353 884 353 1716 
Q 353 2575 817 3079 
Q 1281 3584 2069 3584 
Q 2775 3584 3186 3129 
Q 3597 2675 3597 1894 
z
M 3022 2063 
Q 3016 2534 2758 2815 
Q 2500 3097 2075 3097 
Q 1594 3097 1305 2825 
Q 1016 2553 972 2059 
L 3022 2063 
z
" transform="scale(0.015625)"/>
       <path id="DejaVuSans-20" transform="scale(0.015625)"/>
       <path id="DejaVuSans-28" d="M 1984 4856 
Q 1566 4138 1362 3434 
Q 1159 2731 1159 2009 
Q 1159 1288 1364 580 
Q 1569 -128 1984 -844 
L 1484 -844 
Q 1016 -109 783 600 
Q 550 1309 550 2009 
Q 550 2706 781 3412 
Q 1013 4119 1484 4856 
L 1984 4856 
z
" transform="scale(0.015625)"/>
       <path id="DejaVuSans-73" d="M 2834 3397 
L 2834 2853 
Q 2591 2978 2328 3040 
Q 2066 3103 1784 3103 
Q 1356 3103 1142 2972 
Q 928 2841 928 2578 
Q 928 2378 1081 2264 
Q 1234 2150 1697 2047 
L 1894 2003 
Q 2506 1872 2764 1633 
Q 3022 1394 3022 966 
Q 3022 478 2636 193 
Q 2250 -91 1575 -91 
Q 1294 -91 989 -36 
Q 684 19 347 128 
L 347 722 
Q 666 556 975 473 
Q 1284 391 1588 391 
Q 1994 391 2212 530 
Q 2431 669 2431 922 
Q 2431 1156 2273 1281 
Q 2116 1406 1581 1522 
L 1381 1569 
Q 847 1681 609 1914 
Q 372 2147 372 2553 
Q 372 3047 722 3315 
Q 1072 3584 1716 3584 
Q 2034 3584 2315 3537 
Q 2597 3491 2834 3397 
z
" transform="scale(0.015625)"/>
       <path id="DejaVuSans-29" d="M 513 4856 
L 1013 4856 
Q 1481 4119 1714 3412 
Q 1947 2706 1947 2009 
Q 1947 1309 1714 600 
Q 1481 -109 1013 -844 
L 513 -844 
Q 928 -128 1133 580 
Q 1338 1288 1338 2009 
Q 1338 2731 1133 3434 
Q 928 4138 513 4856 
z
" transform="scale(0.015625)"/>
      </defs>
      <use xlink:href="#DejaVuSans-54"/>
      <use xlink:href="#DejaVuSans-69" transform="translate(57.958984 0)"/>
      <use xlink:href="#DejaVuSans-6d" transform="translate(85.742188 0)"/>
      <use xlink:href="#DejaVuSans-65" transform="translate(183.154297 0)"/>
      <use xlink:href="#DejaVuSans-20" transform="translate(244.677734 0)"/>
      <use xlink:href="#DejaVuSans-28" transform="translate(276.464844 0)"/>
      <use xlink:href="#DejaVuSans-73" transform="translate(315.478516 0)"/>
      <use xlink:href="#DejaVuSans-29" transform="translate(367.578125 0)"/>
     </g>
    </g>
   </g>
   <g id="matplotlib.axis_2">
    <g id="ytick_1">
     <g id="line2d_17">
      <path d="M 47.307188 367.741449 
L 705.637188 367.741449 
" clip-path="url(#pbe0362c4cf)" style="fill: none; stroke: #b0b0b0; stroke-opacity: 0.2; stroke-width: 0.6; stroke-linecap: square"/>
     </g>
     <g id="line2d_18">
      <defs>
       <path id="maecf2a676a" d="M 0 0 
L -3.5 0 
" style="stroke: #000000; stroke-width: 0.8"/>
      </defs>
      <g>
       <use xlink:href="#maecf2a676a" x="47.307188" y="367.741449" style="stroke: #000000; stroke-width: 0.8"/>
      </g>
     </g>
     <g id="text_10">
      <!-- 0.0 -->
      <g transform="translate(22.81375 371.920589) scale(0.11 -0.11)">
       <defs>
        <path id="DejaVuSans-2e" d="M 684 794 
L 1344 794 
L 1344 0 
L 684 0 
L 684 794 
z
" transform="scale(0.015625)"/>
       </defs>
       <use xlink:href="#DejaVuSans-30"/>
       <use xlink:href="#DejaVuSans-2e" transform="translate(63.623047 0)"/>
       <use xlink:href="#DejaVuSans-30" transform="translate(95.410156 0)"/>
      </g>
     </g>
    </g>
    <g id="ytick_2">
     <g id="line2d_19">
      <path d="M 47.307188 317.507205 
L 705.637188 317.507205 
" clip-path="url(#pbe0362c4cf)" style="fill: none; stroke: #b0b0b0; stroke-opacity: 0.2; stroke-width: 0.6; stroke-linecap: square"/>
     </g>
     <g id="line2d_20">
      <g>
       <use xlink:href="#maecf2a676a" x="47.307188" y="317.507205" style="stroke: #000000; stroke-width: 0.8"/>
      </g>
     </g>
     <g id="text_11">
      <!-- 0.5 -->
      <g transform="translate(22.81375 321.686345) scale(0.11 -0.11)">
       <use xlink:href="#DejaVuSans-30"/>
       <use xlink:href="#DejaVuSans-2e" transform="translate(63.623047 0)"/>
       <use xlink:href="#DejaVuSans-35" transform="translate(95.410156 0)"/>
      </g>
     </g>
    </g>
    <g id="ytick_3">
     <g id="line2d_21">
      <path d="M 47.307188 267.27296 
L 705.637188 267.27296 
" clip-path="url(#pbe0362c4cf)" style="fill: none; stroke: #b0b0b0; stroke-opacity: 0.2; stroke-width: 0.6; stroke-linecap: square"/>
     </g>
     <g id="line2d_22">
      <g>
       <use xlink:href="#maecf2a676a" x="47.307188" y="267.27296" style="stroke: #000000; stroke-width: 0.8"/>
      </g>
     </g>
     <g id="text_12">
      <!-- 1.0 -->
      <g transform="translate(22.81375 271.452101) scale(0.11 -0.11)">
       <use xlink:href="#DejaVuSans-31"/>
       <use xlink:href="#DejaVuSans-2e" transform="translate(63.623047 0)"/>
       <use xlink:href="#DejaVuSans-30" transform="translate(95.410156 0)"/>
      </g>
     </g>
    </g>
    <g id="ytick_4">
     <g id="line2d_23">
      <path d="M 47.307188 217.038716 
L 705.637188 217.038716 
" clip-path="url(#pbe0362c4cf)" style="fill: none; stroke: #b0b0b0; stroke-opacity: 0.2; stroke-width: 0.6; stroke-linecap: square"/>
     </g>
     <g id="line2d_24">
      <g>
       <use xlink:href="#maecf2a676a" x="47.307188" y="217.038716" style="stroke: #000000; stroke-width: 0.8"/>
      </g>
     </g>
     <g id="text_13">
      <!-- 1.5 -->
      <g transform="translate(22.81375 221.217857) scale(0.11 -0.11)">
       <use xlink:href="#DejaVuSans-31"/>
       <use xlink:href="#DejaVuSans-2e" transform="translate(63.623047 0)"/>
       <use xlink:href="#DejaVuSans-35" transform="translate(95.410156 0)"/>
      </g>
     </g>
    </g>
    <g id="ytick_5">
     <g id="line2d_25">
      <path d="M 47.307188 166.804472 
L 705.637188 166.804472 
" clip-path="url(#pbe0362c4cf)" style="fill: none; stroke: #b0b0b0; stroke-opacity: 0.2; stroke-width: 0.6; stroke-linecap: square"/>
     </g>
     <g id="line2d_26">
      <g>
       <use xlink:href="#maecf2a676a" x="47.307188" y="166.804472" style="stroke: #000000; stroke-width: 0.8"/>
      </g>
     </g>
     <g id="text_14">
      <!-- 2.0 -->
      <g transform="translate(22.81375 170.983612) scale(0.11 -0.11)">
       <use xlink:href="#DejaVuSans-32"/>
       <use xlink:href="#DejaVuSans-2e" transform="translate(63.623047 0)"/>
       <use xlink:href="#DejaVuSans-30" transform="translate(95.410156 0)"/>
      </g>
     </g>
    </g>
    <g id="ytick_6">
     <g id="line2d_27">
      <path d="M 47.307188 116.570227 
L 705.637188 116.570227 
" clip-path="url(#pbe0362c4cf)" style="fill: none; stroke: #b0b0b0; stroke-opacity: 0.2; stroke-width: 0.6; stroke-linecap: square"/>
     </g>
     <g id="line2d_28">
      <g>
       <use xlink:href="#maecf2a676a" x="47.307188" y="116.570227" style="stroke: #000000; stroke-width: 0.8"/>
      </g>
     </g>
     <g id="text_15">
      <!-- 2.5 -->
      <g transform="translate(22.81375 120.749368) scale(0.11 -0.11)">
       <use xlink:href="#DejaVuSans-32"/>
       <use xlink:href="#DejaVuSans-2e" transform="translate(63.623047 0)"/>
       <use xlink:href="#DejaVuSans-35" transform="translate(95.410156 0)"/>
      </g>
     </g>
    </g>
    <g id="ytick_7">
     <g id="line2d_29">
      <path d="M 47.307188 66.335983 
L 705.637188 66.335983 
" clip-path="url(#pbe0362c4cf)" style="fill: none; stroke: #b0b0b0; stroke-opacity: 0.2; stroke-width: 0.6; stroke-linecap: square"/>
     </g>
     <g id="line2d_30">
      <g>
       <use xlink:href="#maecf2a676a" x="47.307188" y="66.335983" style="stroke: #000000; stroke-width: 0.8"/>
      </g>
     </g>
     <g id="text_16">
      <!-- 3.0 -->
      <g transform="translate(22.81375 70.515124) scale(0.11 -0.11)">
       <defs>
        <path id="DejaVuSans-33" d="M 2597 2516 
Q 3050 2419 3304 2112 
Q 3559 1806 3559 1356 
Q 3559 666 3084 287 
Q 2609 -91 1734 -91 
Q 1441 -91 1130 -33 
Q 819 25 488 141 
L 488 750 
Q 750 597 1062 519 
Q 1375 441 1716 441 
Q 2309 441 2620 675 
Q 2931 909 2931 1356 
Q 2931 1769 2642 2001 
Q 2353 2234 1838 2234 
L 1294 2234 
L 1294 2753 
L 1863 2753 
Q 2328 2753 2575 2939 
Q 2822 3125 2822 3475 
Q 2822 3834 2567 4026 
Q 2313 4219 1838 4219 
Q 1578 4219 1281 4162 
Q 984 4106 628 3988 
L 628 4550 
Q 988 4650 1302 4700 
Q 1616 4750 1894 4750 
Q 2613 4750 3031 4423 
Q 3450 4097 3450 3541 
Q 3450 3153 3228 2886 
Q 3006 2619 2597 2516 
z
" transform="scale(0.015625)"/>
       </defs>
       <use xlink:href="#DejaVuSans-33"/>
       <use xlink:href="#DejaVuSans-2e" transform="translate(63.623047 0)"/>
       <use xlink:href="#DejaVuSans-30" transform="translate(95.410156 0)"/>
      </g>
     </g>
    </g>
    <g id="text_17">
     <!-- AU mean intensity -->
     <g transform="translate(16.318125 259.314687) rotate(-90) scale(0.12 -0.12)">
      <defs>
       <path id="DejaVuSans-41" d="M 2188 4044 
L 1331 1722 
L 3047 1722 
L 2188 4044 
z
M 1831 4666 
L 2547 4666 
L 4325 0 
L 3669 0 
L 3244 1197 
L 1141 1197 
L 716 0 
L 50 0 
L 1831 4666 
z
" transform="scale(0.015625)"/>
       <path id="DejaVuSans-55" d="M 556 4666 
L 1191 4666 
L 1191 1831 
Q 1191 1081 1462 751 
Q 1734 422 2344 422 
Q 2950 422 3222 751 
Q 3494 1081 3494 1831 
L 3494 4666 
L 4128 4666 
L 4128 1753 
Q 4128 841 3676 375 
Q 3225 -91 2344 -91 
Q 1459 -91 1007 375 
Q 556 841 556 1753 
L 556 4666 
z
" transform="scale(0.015625)"/>
       <path id="DejaVuSans-61" d="M 2194 1759 
Q 1497 1759 1228 1600 
Q 959 1441 959 1056 
Q 959 750 1161 570 
Q 1363 391 1709 391 
Q 2188 391 2477 730 
Q 2766 1069 2766 1631 
L 2766 1759 
L 2194 1759 
z
M 3341 1997 
L 3341 0 
L 2766 0 
L 2766 531 
Q 2569 213 2275 61 
Q 1981 -91 1556 -91 
Q 1019 -91 701 211 
Q 384 513 384 1019 
Q 384 1609 779 1909 
Q 1175 2209 1959 2209 
L 2766 2209 
L 2766 2266 
Q 2766 2663 2505 2880 
Q 2244 3097 1772 3097 
Q 1472 3097 1187 3025 
Q 903 2953 641 2809 
L 641 3341 
Q 956 3463 1253 3523 
Q 1550 3584 1831 3584 
Q 2591 3584 2966 3190 
Q 3341 2797 3341 1997 
z
" transform="scale(0.015625)"/>
       <path id="DejaVuSans-6e" d="M 3513 2113 
L 3513 0 
L 2938 0 
L 2938 2094 
Q 2938 2591 2744 2837 
Q 2550 3084 2163 3084 
Q 1697 3084 1428 2787 
Q 1159 2491 1159 1978 
L 1159 0 
L 581 0 
L 581 3500 
L 1159 3500 
L 1159 2956 
Q 1366 3272 1645 3428 
Q 1925 3584 2291 3584 
Q 2894 3584 3203 3211 
Q 3513 2838 3513 2113 
z
" transform="scale(0.015625)"/>
       <path id="DejaVuSans-74" d="M 1172 4494 
L 1172 3500 
L 2356 3500 
L 2356 3053 
L 1172 3053 
L 1172 1153 
Q 1172 725 1289 603 
Q 1406 481 1766 481 
L 2356 481 
L 2356 0 
L 1766 0 
Q 1100 0 847 248 
Q 594 497 594 1153 
L 594 3053 
L 172 3053 
L 172 3500 
L 594 3500 
L 594 4494 
L 1172 4494 
z
" transform="scale(0.015625)"/>
       <path id="DejaVuSans-79" d="M 2059 -325 
Q 1816 -950 1584 -1140 
Q 1353 -1331 966 -1331 
L 506 -1331 
L 506 -850 
L 844 -850 
Q 1081 -850 1212 -737 
Q 1344 -625 1503 -206 
L 1606 56 
L 191 3500 
L 800 3500 
L 1894 763 
L 2988 3500 
L 3597 3500 
L 2059 -325 
z
" transform="scale(0.015625)"/>
      </defs>
      <use xlink:href="#DejaVuSans-41"/>
      <use xlink:href="#DejaVuSans-55" transform="translate(68.408203 0)"/>
      <use xlink:href="#DejaVuSans-20" transform="translate(141.601562 0)"/>
      <use xlink:href="#DejaVuSans-6d" transform="translate(173.388672 0)"/>
      <use xlink:href="#DejaVuSans-65" transform="translate(270.800781 0)"/>
      <use xlink:href="#DejaVuSans-61" transform="translate(332.324219 0)"/>
      <use xlink:href="#DejaVuSans-6e" transform="translate(393.603516 0)"/>
      <use xlink:href="#DejaVuSans-20" transform="translate(456.982422 0)"/>
      <use xlink:href="#DejaVuSans-69" transform="translate(488.769531 0)"/>
      <use xlink:href="#DejaVuSans-6e" transform="translate(516.552734 0)"/>
      <use xlink:href="#DejaVuSans-74" transform="translate(579.931641 0)"/>
      <use xlink:href="#DejaVuSans-65" transform="translate(619.140625 0)"/>
      <use xlink:href="#DejaVuSans-6e" transform="translate(680.664062 0)"/>
      <use xlink:href="#DejaVuSans-73" transform="translate(744.042969 0)"/>
      <use xlink:href="#DejaVuSans-69" transform="translate(796.142578 0)"/>
      <use xlink:href="#DejaVuSans-74" transform="translate(823.925781 0)"/>
      <use xlink:href="#DejaVuSans-79" transform="translate(863.134766 0)"/>
     </g>
    </g>
   </g>
   <g id="FillBetweenPolyCollection_1">
    <defs>
     <path id="mfe65da3555" d="M 47.307188 -203.178104 
L 47.307188 -0.958808 
L 50.790415 -4.417455 
L 54.273643 -7.363656 
L 57.75687 -4.408526 
L 61.240098 -2.879327 
L 64.723325 -3.833392 
L 68.206553 -5.616333 
L 71.68978 -5.884701 
L 75.173008 -2.166502 
L 78.656235 -1.076401 
L 82.139463 -3.115007 
L 85.62269 0.196618 
L 89.105918 2.844279 
L 92.589145 0.07973 
L 96.072373 -1.313024 
L 99.5556 -0.684274 
L 103.038828 1.895467 
L 106.522055 -1.121257 
L 110.005283 5.802295 
L 113.48851 9.293362 
L 116.971738 5.876391 
L 120.454965 4.228271 
L 123.938193 3.532046 
L 127.42142 6.020715 
L 130.904648 1.817123 
L 134.387875 9.458413 
L 137.871103 11.75831 
L 141.35433 12.417876 
L 144.837558 7.6751 
L 148.320785 5.689522 
L 151.804013 1.596402 
L 155.28724 1.961338 
L 158.770468 -0.965005 
L 162.253695 -0.510742 
L 165.736923 3.52516 
L 169.22015 1.926572 
L 172.703378 5.323177 
L 176.186605 7.351689 
L 179.669833 1.30597 
L 183.153061 6.471525 
L 186.636288 9.603121 
L 190.119516 5.438447 
L 193.602743 5.61202 
L 197.085971 -3.609746 
L 200.569198 -2.284047 
L 204.052426 -1.616209 
L 207.535653 -1.546502 
L 211.018881 2.570313 
L 214.502108 -0.21607 
L 217.985336 2.192931 
L 221.468563 -2.949447 
L 224.951791 -3.428153 
L 228.435018 -6.62952 
L 231.918246 -7.515635 
L 235.401473 2.83921 
L 238.884701 1.661255 
L 242.367928 2.187057 
L 245.851156 3.971451 
L 249.334383 -1.159463 
L 252.817611 -4.87455 
L 256.300838 -9.296418 
L 259.784066 0.295797 
L 263.267293 -2.935769 
L 266.750521 0.244043 
L 270.233748 -2.254673 
L 273.716976 5.114551 
L 277.200203 6.084801 
L 280.683431 9.862784 
L 284.166658 5.828415 
L 287.649886 2.650589 
L 291.133113 2.684458 
L 294.616341 12.447851 
L 298.099568 6.447894 
L 301.582796 5.892936 
L 305.066023 7.322028 
L 308.549251 10.524135 
L 312.032479 10.319074 
L 315.515706 12.715633 
L 318.998934 10.273502 
L 322.482161 11.123505 
L 325.965389 11.890261 
L 329.448616 13.515509 
L 332.931844 3.275914 
L 336.415071 2.998713 
L 339.898299 3.989285 
L 343.381526 5.172022 
L 346.864754 0.041689 
L 350.347981 -0.829461 
L 353.831209 6.390174 
L 357.314436 7.948876 
L 360.797664 13.754341 
L 364.280891 13.370012 
L 367.764119 6.001843 
L 371.247346 5.347749 
L 374.730574 8.09653 
L 378.213801 3.740572 
L 381.697029 12.389266 
L 385.180256 9.664549 
L 388.663484 10.511412 
L 392.146711 2.026907 
L 395.629939 3.858984 
L 399.113166 0.435649 
L 402.596394 5.262245 
L 406.079621 0.276089 
L 409.562849 -1.295442 
L 413.046076 1.819951 
L 416.529304 5.544855 
L 420.012531 4.377937 
L 423.495759 4.860736 
L 426.978986 0.905926 
L 430.462214 -7.223415 
L 433.945441 -4.670516 
L 437.428669 -8.037974 
L 440.911896 -7.463128 
L 444.395124 -10.832254 
L 447.878352 -1.936714 
L 451.361579 -5.149608 
L 454.844807 8.09566 
L 458.328034 7.10462 
L 461.811262 -3.765291 
L 465.294489 -2.147411 
L 468.777717 3.534971 
L 472.260944 0.398519 
L 475.744172 5.577323 
L 479.227399 3.932223 
L 482.710627 7.712461 
L 486.193854 5.63681 
L 489.677082 8.603338 
L 493.160309 10.568638 
L 496.643537 11.286007 
L 500.126764 6.184441 
L 503.609992 6.175509 
L 507.093219 4.98261 
L 510.576447 4.061948 
L 514.059674 6.65411 
L 517.542902 3.198496 
L 521.026129 4.309639 
L 524.509357 8.64277 
L 527.992584 11.093796 
L 531.475812 9.821283 
L 534.959039 8.216639 
L 538.442267 0.515853 
L 541.925494 2.300692 
L 545.408722 9.733107 
L 548.891949 8.984621 
L 552.375177 18.195924 
L 555.858404 13.795808 
L 559.341632 7.036972 
L 562.824859 10.199754 
L 566.308087 13.439144 
L 569.791314 18.967023 
L 573.274542 19.546024 
L 576.75777 16.746899 
L 580.240997 15.692939 
L 583.724225 14.229503 
L 587.207452 14.645471 
L 590.69068 4.077661 
L 594.173907 -3.851356 
L 597.657135 -9.799926 
L 601.140362 -3.210648 
L 604.62359 11.163343 
L 608.106817 14.363481 
L 611.590045 10.426967 
L 615.073272 7.677134 
L 618.5565 7.159905 
L 622.039727 10.16183 
L 625.522955 15.608271 
L 629.006182 11.696604 
L 632.48941 10.912524 
L 635.972637 2.280863 
L 639.455865 3.235478 
L 642.939092 4.127475 
L 646.42232 9.036751 
L 649.905547 18.943071 
L 653.388775 19.666359 
L 656.872002 19.687182 
L 660.35523 21.680832 
L 663.838457 28.545289 
L 667.321685 24.50136 
L 670.804912 22.944002 
L 674.28814 26.250246 
L 677.771367 23.304403 
L 681.254595 28.695245 
L 684.737822 28.40383 
L 688.22105 22.37669 
L 691.704277 4.210583 
L 695.187505 2.502103 
L 698.670732 12.781313 
L 702.15396 10.280164 
L 705.637188 -0.903039 
L 705.637188 -198.634244 
L 705.637188 -198.634244 
L 702.15396 -214.100921 
L 698.670732 -217.192184 
L 695.187505 -211.575641 
L 691.704277 -215.253505 
L 688.22105 -242.967173 
L 684.737822 -242.351712 
L 681.254595 -247.859261 
L 677.771367 -247.380331 
L 674.28814 -247.483386 
L 670.804912 -247.066483 
L 667.321685 -252.952634 
L 663.838457 -264.39162 
L 660.35523 -256.216931 
L 656.872002 -262.936569 
L 653.388775 -260.735948 
L 649.905547 -251.580474 
L 646.42232 -245.102159 
L 642.939092 -244.4256 
L 639.455865 -241.146184 
L 635.972637 -240.467851 
L 632.48941 -259.420023 
L 629.006182 -259.602402 
L 625.522955 -256.692039 
L 622.039727 -248.959423 
L 618.5565 -248.135305 
L 615.073272 -253.759775 
L 611.590045 -254.829638 
L 608.106817 -259.54104 
L 604.62359 -243.166461 
L 601.140362 -224.758434 
L 597.657135 -221.219776 
L 594.173907 -224.935115 
L 590.69068 -233.037354 
L 587.207452 -240.051957 
L 583.724225 -236.244514 
L 580.240997 -232.471911 
L 576.75777 -235.361983 
L 573.274542 -236.664943 
L 569.791314 -232.492852 
L 566.308087 -220.231894 
L 562.824859 -224.041573 
L 559.341632 -224.726439 
L 555.858404 -229.975139 
L 552.375177 -240.392399 
L 548.891949 -219.83973 
L 545.408722 -221.649967 
L 541.925494 -209.023629 
L 538.442267 -206.670931 
L 534.959039 -219.477875 
L 531.475812 -219.150646 
L 527.992584 -223.48429 
L 524.509357 -214.379951 
L 521.026129 -209.638981 
L 517.542902 -213.755567 
L 514.059674 -217.66215 
L 510.576447 -211.766276 
L 507.093219 -214.963684 
L 503.609992 -215.523277 
L 500.126764 -216.05816 
L 496.643537 -215.355931 
L 493.160309 -216.767965 
L 489.677082 -219.135508 
L 486.193854 -215.407224 
L 482.710627 -211.448934 
L 479.227399 -211.21118 
L 475.744172 -208.358912 
L 472.260944 -199.803056 
L 468.777717 -206.423741 
L 465.294489 -207.652374 
L 461.811262 -204.366678 
L 458.328034 -217.688303 
L 454.844807 -215.338786 
L 451.361579 -201.322158 
L 447.878352 -204.918829 
L 444.395124 -199.739275 
L 440.911896 -211.667326 
L 437.428669 -201.663571 
L 433.945441 -201.646958 
L 430.462214 -202.799183 
L 426.978986 -214.340639 
L 423.495759 -218.547599 
L 420.012531 -223.629646 
L 416.529304 -223.012452 
L 413.046076 -216.859129 
L 409.562849 -209.119105 
L 406.079621 -214.674346 
L 402.596394 -219.942651 
L 399.113166 -217.05006 
L 395.629939 -219.654469 
L 392.146711 -218.858927 
L 388.663484 -220.764926 
L 385.180256 -224.043319 
L 381.697029 -231.327429 
L 378.213801 -231.644696 
L 374.730574 -232.877463 
L 371.247346 -219.724354 
L 367.764119 -225.046349 
L 364.280891 -230.920902 
L 360.797664 -233.316382 
L 357.314436 -221.168145 
L 353.831209 -221.959807 
L 350.347981 -213.494095 
L 346.864754 -218.387372 
L 343.381526 -223.058528 
L 339.898299 -216.916557 
L 336.415071 -219.191979 
L 332.931844 -222.92708 
L 329.448616 -232.681689 
L 325.965389 -228.25797 
L 322.482161 -223.131306 
L 318.998934 -216.151775 
L 315.515706 -224.596765 
L 312.032479 -226.224952 
L 308.549251 -224.697205 
L 305.066023 -218.386784 
L 301.582796 -217.778399 
L 298.099568 -219.889662 
L 294.616341 -221.637554 
L 291.133113 -214.435884 
L 287.649886 -217.867319 
L 284.166658 -215.535023 
L 280.683431 -216.960837 
L 277.200203 -214.229692 
L 273.716976 -207.167527 
L 270.233748 -207.130882 
L 266.750521 -212.251843 
L 263.267293 -211.526888 
L 259.784066 -206.827632 
L 256.300838 -200.895315 
L 252.817611 -208.724724 
L 249.334383 -208.409406 
L 245.851156 -226.034761 
L 242.367928 -214.128887 
L 238.884701 -216.329089 
L 235.401473 -216.997018 
L 231.918246 -210.029842 
L 228.435018 -212.133431 
L 224.951791 -215.708797 
L 221.468563 -215.900605 
L 217.985336 -219.867241 
L 214.502108 -228.569424 
L 211.018881 -228.716239 
L 207.535653 -223.035925 
L 204.052426 -218.194139 
L 200.569198 -221.635004 
L 197.085971 -213.189796 
L 193.602743 -213.589801 
L 190.119516 -215.691297 
L 186.636288 -221.510516 
L 183.153061 -220.403167 
L 179.669833 -218.555817 
L 176.186605 -219.149459 
L 172.703378 -220.054223 
L 169.22015 -217.591513 
L 165.736923 -217.334569 
L 162.253695 -209.807066 
L 158.770468 -205.364971 
L 155.28724 -212.162222 
L 151.804013 -212.824217 
L 148.320785 -220.040144 
L 144.837558 -225.246001 
L 141.35433 -231.276588 
L 137.871103 -233.00259 
L 134.387875 -233.129436 
L 130.904648 -226.500828 
L 127.42142 -225.354704 
L 123.938193 -226.067629 
L 120.454965 -226.089129 
L 116.971738 -228.337028 
L 113.48851 -229.014934 
L 110.005283 -223.391426 
L 106.522055 -213.023665 
L 103.038828 -215.378759 
L 99.5556 -211.011728 
L 96.072373 -208.857441 
L 92.589145 -217.919683 
L 89.105918 -221.771303 
L 85.62269 -215.941673 
L 82.139463 -207.016972 
L 78.656235 -207.845891 
L 75.173008 -203.059536 
L 71.68978 -200.942693 
L 68.206553 -198.989879 
L 64.723325 -201.359224 
L 61.240098 -203.046547 
L 57.75687 -200.246021 
L 54.273643 -196.180143 
L 50.790415 -203.306361 
L 47.307188 -203.178104 
z
" style="stroke: #d3d3d3; stroke-opacity: 0.5"/>
    </defs>
    <g clip-path="url(#pbe0362c4cf)">
     <use xlink:href="#mfe65da3555" x="0" y="424.5775" style="fill: #d3d3d3; fill-opacity: 0.5; stroke: #d3d3d3; stroke-opacity: 0.5"/>
    </g>
   </g>
   <g id="FillBetweenPolyCollection_2">
    <defs>
     <path id="ma65260c530" d="M 47.307188 -152.62328 
L 47.307188 -51.513632 
L 50.790415 -54.139681 
L 54.273643 -54.567778 
L 57.75687 -53.3679 
L 61.240098 -52.921132 
L 64.723325 -53.21485 
L 68.206553 -53.95972 
L 71.68978 -54.649199 
L 75.173008 -52.389761 
L 78.656235 -52.768774 
L 82.139463 -54.090498 
L 85.62269 -53.837955 
L 89.105918 -53.309616 
L 92.589145 -54.420123 
L 96.072373 -53.199128 
L 99.5556 -53.266137 
L 103.038828 -52.42309 
L 106.522055 -54.096859 
L 110.005283 -51.496135 
L 113.48851 -50.283712 
L 116.971738 -52.676964 
L 120.454965 -53.351079 
L 123.938193 -53.867873 
L 127.42142 -51.82314 
L 130.904648 -55.262365 
L 134.387875 -51.188549 
L 137.871103 -49.431915 
L 141.35433 -48.50574 
L 144.837558 -50.555175 
L 148.320785 -50.742894 
L 151.804013 -52.008753 
L 155.28724 -51.569552 
L 158.770468 -52.064996 
L 162.253695 -52.834823 
L 165.736923 -51.689773 
L 169.22015 -52.952949 
L 172.703378 -51.021173 
L 176.186605 -49.273598 
L 179.669833 -53.659477 
L 183.153061 -50.247148 
L 186.636288 -48.175288 
L 190.119516 -49.843989 
L 193.602743 -49.188435 
L 197.085971 -56.004758 
L 200.569198 -57.121787 
L 204.052426 -55.760692 
L 207.535653 -56.918857 
L 211.018881 -55.251325 
L 214.502108 -57.304408 
L 217.985336 -53.322112 
L 221.468563 -56.187236 
L 224.951791 -56.498314 
L 228.435018 -58.005498 
L 231.918246 -58.144187 
L 235.401473 -52.119847 
L 238.884701 -52.836331 
L 242.367928 -51.891929 
L 245.851156 -53.530102 
L 249.334383 -52.971949 
L 252.817611 -55.837093 
L 256.300838 -57.196143 
L 259.784066 -51.48506 
L 263.267293 -55.083549 
L 266.750521 -52.879929 
L 270.233748 -53.473725 
L 273.716976 -47.955968 
L 277.200203 -48.993822 
L 280.683431 -46.843121 
L 284.166658 -49.512445 
L 287.649886 -52.478888 
L 291.133113 -51.595628 
L 294.616341 -46.0735 
L 298.099568 -50.136495 
L 301.582796 -50.024898 
L 305.066023 -49.105175 
L 308.549251 -48.2812 
L 312.032479 -48.816933 
L 315.515706 -46.612467 
L 318.998934 -46.332817 
L 322.482161 -47.440198 
L 325.965389 -48.146797 
L 329.448616 -48.033791 
L 332.931844 -53.274834 
L 336.415071 -52.54896 
L 339.898299 -51.237175 
L 343.381526 -51.885616 
L 346.864754 -54.565576 
L 350.347981 -53.995619 
L 353.831209 -50.697322 
L 357.314436 -49.330379 
L 360.797664 -48.01334 
L 364.280891 -47.702716 
L 367.764119 -51.760205 
L 371.247346 -50.920277 
L 374.730574 -52.146968 
L 378.213801 -55.105745 
L 381.697029 -48.539908 
L 385.180256 -48.762418 
L 388.663484 -47.307672 
L 392.146711 -53.194552 
L 395.629939 -52.019379 
L 399.113166 -53.935778 
L 402.596394 -51.038979 
L 406.079621 -53.46152 
L 409.562849 -53.251358 
L 413.046076 -52.849819 
L 416.529304 -51.594472 
L 420.012531 -52.623958 
L 423.495759 -50.991347 
L 426.978986 -52.905715 
L 430.462214 -56.117357 
L 433.945441 -53.914626 
L 437.428669 -56.444373 
L 440.911896 -58.514177 
L 444.395124 -58.059009 
L 447.878352 -52.682243 
L 451.361579 -54.192746 
L 454.844807 -47.762952 
L 458.328034 -49.09361 
L 461.811262 -53.915638 
L 465.294489 -53.523652 
L 468.777717 -48.954707 
L 472.260944 -49.651875 
L 475.744172 -47.906735 
L 479.227399 -49.853628 
L 482.710627 -47.077887 
L 486.193854 -49.624198 
L 489.677082 -48.331373 
L 493.160309 -46.265512 
L 496.643537 -45.374477 
L 500.126764 -49.376209 
L 503.609992 -49.249187 
L 507.093219 -50.003963 
L 510.576447 -49.895108 
L 514.059674 -49.424955 
L 517.542902 -51.040019 
L 521.026129 -49.177516 
L 524.509357 -47.11291 
L 527.992584 -47.550726 
L 531.475812 -47.421699 
L 534.959039 -48.70699 
L 538.442267 -51.280843 
L 541.925494 -50.530389 
L 545.408722 -48.112661 
L 548.891949 -48.221467 
L 552.375177 -46.451157 
L 555.858404 -47.146929 
L 559.341632 -50.903881 
L 562.824859 -48.360578 
L 566.308087 -44.978615 
L 569.791314 -43.897946 
L 573.274542 -44.506718 
L 576.75777 -46.280322 
L 580.240997 -46.348273 
L 583.724225 -48.389001 
L 587.207452 -49.028886 
L 590.69068 -55.201093 
L 594.173907 -59.122296 
L 597.657135 -62.654889 
L 601.140362 -58.597595 
L 604.62359 -52.419108 
L 608.106817 -54.112649 
L 611.590045 -55.887185 
L 615.073272 -57.682093 
L 618.5565 -56.663897 
L 622.039727 -54.618483 
L 625.522955 -52.466807 
L 629.006182 -56.128147 
L 632.48941 -56.670612 
L 635.972637 -58.406315 
L 639.455865 -57.859937 
L 642.939092 -58.010793 
L 646.42232 -54.497977 
L 649.905547 -48.687815 
L 653.388775 -50.434218 
L 656.872002 -50.968756 
L 660.35523 -47.793609 
L 663.838457 -44.688938 
L 667.321685 -44.862139 
L 670.804912 -44.55862 
L 674.28814 -42.183162 
L 677.771367 -44.366781 
L 681.254595 -40.443381 
L 684.737822 -39.285055 
L 688.22105 -43.959276 
L 691.704277 -50.655439 
L 695.187505 -51.017333 
L 698.670732 -44.712061 
L 702.15396 -45.815107 
L 705.637188 -50.335841 
L 705.637188 -149.201443 
L 705.637188 -149.201443 
L 702.15396 -158.00565 
L 698.670732 -159.698809 
L 695.187505 -158.056205 
L 691.704277 -160.387483 
L 688.22105 -176.631207 
L 684.737822 -174.662827 
L 681.254595 -178.720634 
L 677.771367 -179.709148 
L 674.28814 -179.049978 
L 670.804912 -179.563862 
L 667.321685 -183.589135 
L 663.838457 -191.157393 
L 660.35523 -186.74249 
L 656.872002 -192.280631 
L 653.388775 -190.635371 
L 649.905547 -183.949588 
L 646.42232 -181.567431 
L 642.939092 -182.287331 
L 639.455865 -180.050769 
L 635.972637 -179.780672 
L 632.48941 -191.836886 
L 629.006182 -191.777651 
L 625.522955 -188.616962 
L 622.039727 -184.17911 
L 618.5565 -184.311503 
L 615.073272 -188.400548 
L 611.590045 -188.515487 
L 608.106817 -191.064909 
L 604.62359 -179.58401 
L 601.140362 -169.371488 
L 597.657135 -168.364813 
L 594.173907 -169.664175 
L 590.69068 -173.7586 
L 587.207452 -176.3776 
L 583.724225 -173.62601 
L 580.240997 -170.430698 
L 576.75777 -172.334763 
L 573.274542 -172.612201 
L 569.791314 -169.627883 
L 566.308087 -161.814135 
L 562.824859 -165.481241 
L 559.341632 -166.785586 
L 555.858404 -169.032402 
L 552.375177 -175.745318 
L 548.891949 -162.633642 
L 545.408722 -163.804198 
L 541.925494 -156.192549 
L 538.442267 -154.874235 
L 534.959039 -162.554247 
L 531.475812 -161.907663 
L 527.992584 -164.839769 
L 524.509357 -158.624271 
L 521.026129 -156.151826 
L 517.542902 -159.517051 
L 514.059674 -161.583085 
L 510.576447 -157.80922 
L 507.093219 -159.977111 
L 503.609992 -160.09858 
L 500.126764 -160.497509 
L 496.643537 -158.695447 
L 493.160309 -159.933814 
L 489.677082 -162.200797 
L 486.193854 -160.146216 
L 482.710627 -156.658585 
L 479.227399 -157.42533 
L 475.744172 -154.874853 
L 472.260944 -149.752662 
L 468.777717 -153.934063 
L 465.294489 -156.276133 
L 461.811262 -154.216331 
L 458.328034 -161.490072 
L 454.844807 -159.480174 
L 451.361579 -152.279021 
L 447.878352 -154.1733 
L 444.395124 -152.51252 
L 440.911896 -160.616276 
L 437.428669 -153.257171 
L 433.945441 -152.402847 
L 430.462214 -153.905241 
L 426.978986 -160.528998 
L 423.495759 -162.695515 
L 420.012531 -166.62775 
L 416.529304 -165.873125 
L 413.046076 -162.189359 
L 409.562849 -157.163189 
L 406.079621 -160.936738 
L 402.596394 -163.641427 
L 399.113166 -162.678633 
L 395.629939 -163.776106 
L 392.146711 -163.637469 
L 388.663484 -162.945841 
L 385.180256 -165.616352 
L 381.697029 -170.398256 
L 378.213801 -172.798379 
L 374.730574 -172.633965 
L 371.247346 -163.456328 
L 367.764119 -167.284301 
L 364.280891 -169.848173 
L 360.797664 -171.548701 
L 357.314436 -163.88889 
L 353.831209 -164.872312 
L 350.347981 -160.327937 
L 346.864754 -163.780107 
L 343.381526 -166.000891 
L 339.898299 -161.690096 
L 336.415071 -163.644306 
L 332.931844 -166.376332 
L 329.448616 -171.13239 
L 325.965389 -168.220913 
L 322.482161 -164.567603 
L 318.998934 -159.545456 
L 315.515706 -165.268666 
L 312.032479 -167.088946 
L 308.549251 -165.89187 
L 305.066023 -161.959581 
L 301.582796 -161.860565 
L 298.099568 -163.305273 
L 294.616341 -163.116203 
L 291.133113 -160.155798 
L 287.649886 -162.737842 
L 284.166658 -160.194164 
L 280.683431 -160.254932 
L 277.200203 -159.151069 
L 273.716976 -154.097007 
L 270.233748 -155.91183 
L 266.750521 -159.127872 
L 263.267293 -159.379108 
L 259.784066 -155.046775 
L 256.300838 -152.995591 
L 252.817611 -157.76218 
L 249.334383 -156.59692 
L 245.851156 -168.533208 
L 242.367928 -160.049901 
L 238.884701 -161.831503 
L 235.401473 -162.037961 
L 231.918246 -159.40129 
L 228.435018 -160.757453 
L 224.951791 -162.638636 
L 221.468563 -162.662815 
L 217.985336 -164.352198 
L 214.502108 -171.481085 
L 211.018881 -170.894601 
L 207.535653 -167.663569 
L 204.052426 -164.049656 
L 200.569198 -166.797265 
L 197.085971 -160.794783 
L 193.602743 -158.789346 
L 190.119516 -160.408861 
L 186.636288 -163.732107 
L 183.153061 -163.684494 
L 179.669833 -163.590371 
L 176.186605 -162.524172 
L 172.703378 -163.709873 
L 169.22015 -162.711991 
L 165.736923 -162.119637 
L 162.253695 -157.482985 
L 158.770468 -154.26498 
L 155.28724 -158.631332 
L 151.804013 -159.219062 
L 148.320785 -163.607728 
L 144.837558 -167.015726 
L 141.35433 -170.352972 
L 137.871103 -171.812365 
L 134.387875 -172.482474 
L 130.904648 -169.421341 
L 127.42142 -167.510849 
L 123.938193 -168.667711 
L 120.454965 -168.509779 
L 116.971738 -169.783674 
L 113.48851 -169.43786 
L 110.005283 -166.092996 
L 106.522055 -160.048063 
L 103.038828 -161.060202 
L 99.5556 -158.429864 
L 96.072373 -156.971337 
L 92.589145 -163.41983 
L 89.105918 -165.617407 
L 85.62269 -161.9071 
L 82.139463 -156.041481 
L 78.656235 -156.153518 
L 75.173008 -152.836277 
L 71.68978 -152.178195 
L 68.206553 -150.646493 
L 64.723325 -151.977766 
L 61.240098 -153.004742 
L 57.75687 -151.286647 
L 54.273643 -148.976021 
L 50.790415 -153.584134 
L 47.307188 -152.62328 
z
" style="stroke: #808080; stroke-opacity: 0.7"/>
    </defs>
    <g clip-path="url(#pbe0362c4cf)">
     <use xlink:href="#ma65260c530" x="0" y="424.5775" style="fill: #808080; fill-opacity: 0.7; stroke: #808080; stroke-opacity: 0.7"/>
    </g>
   </g>
   <g id="line2d_31">
    <path d="M 47.307188 326.308152 
L 50.790415 334.15945 
L 54.273643 319.406481 
L 57.75687 317.002014 
L 61.240098 346.479004 
L 64.723325 346.917075 
L 68.206553 346.800004 
L 71.68978 352.363027 
L 75.173008 342.994738 
L 78.656235 340.022545 
L 82.139463 330.561935 
L 85.62269 338.920218 
L 89.105918 345.190348 
L 92.589145 340.685993 
L 96.072373 342.388958 
L 99.5556 344.654615 
L 103.038828 337.301823 
L 106.522055 342.811098 
L 110.005283 329.539573 
L 113.48851 334.302173 
L 116.971738 334.671175 
L 120.454965 340.35283 
L 123.938193 329.734195 
L 127.42142 340.194654 
L 130.904648 341.190225 
L 134.387875 340.685982 
L 137.871103 332.289542 
L 141.35433 334.907213 
L 144.837558 333.033277 
L 148.320785 337.663256 
L 151.804013 330.252058 
L 155.28724 342.642771 
L 158.770468 338.166533 
L 162.253695 342.876845 
L 165.736923 333.134333 
L 169.22015 333.246183 
L 172.703378 336.204753 
L 176.186605 344.018392 
L 179.669833 344.764979 
L 183.153061 337.701536 
L 186.636288 334.99706 
L 190.119516 335.426259 
L 193.602743 336.350338 
L 197.085971 315.66821 
L 200.569198 331.088132 
L 204.052426 334.322225 
L 207.535653 327.101551 
L 211.018881 330.12698 
L 214.502108 323.907859 
L 217.985336 323.717121 
L 221.468563 322.767886 
L 224.951791 317.149649 
L 228.435018 333.210261 
L 231.918246 330.025287 
L 235.401473 325.328926 
L 238.884701 331.48359 
L 242.367928 334.867676 
L 245.851156 314.195053 
L 249.334383 328.360069 
L 252.817611 326.101375 
L 256.300838 331.508291 
L 259.784066 323.041328 
L 263.267293 319.202473 
L 266.750521 324.7929 
L 270.233748 315.160821 
L 273.716976 327.966454 
L 277.200203 333.695085 
L 280.683431 327.874676 
L 284.166658 317.260862 
L 287.649886 338.280729 
L 291.133113 346.565711 
L 294.616341 345.269405 
L 298.099568 342.805548 
L 301.582796 339.448264 
L 305.066023 339.505805 
L 308.549251 335.721718 
L 312.032479 342.823585 
L 315.515706 343.995502 
L 318.998934 340.285097 
L 322.482161 347.110004 
L 325.965389 341.544045 
L 329.448616 346.210336 
L 332.931844 343.547815 
L 336.415071 346.005853 
L 339.898299 351.132396 
L 343.381526 339.562852 
L 346.864754 346.441485 
L 350.347981 346.134951 
L 353.831209 342.793619 
L 357.314436 341.256191 
L 360.797664 335.555026 
L 364.280891 340.179445 
L 367.764119 344.477119 
L 371.247346 343.746191 
L 374.730574 346.972342 
L 378.213801 341.688679 
L 381.697029 342.009203 
L 385.180256 342.7577 
L 388.663484 335.948077 
L 392.146711 333.79079 
L 395.629939 321.487831 
L 399.113166 306.972215 
L 402.596394 312.077568 
L 406.079621 299.483404 
L 409.562849 320.041052 
L 413.046076 318.28294 
L 416.529304 324.596274 
L 420.012531 317.053119 
L 423.495759 305.938444 
L 426.978986 328.366685 
L 430.462214 310.419183 
L 433.945441 307.104698 
L 437.428669 310.38253 
L 440.911896 321.485386 
L 444.395124 321.025919 
L 447.878352 322.645142 
L 454.844807 314.405506 
L 458.328034 307.567972 
L 461.811262 321.515212 
L 465.294489 321.735333 
L 468.777717 322.915766 
L 472.260944 334.346469 
L 475.744172 338.692159 
L 479.227399 335.138179 
L 482.710627 335.403478 
L 486.193854 329.582128 
L 489.677082 342.363363 
L 493.160309 342.060774 
L 496.643537 340.746005 
L 500.126764 337.3951 
L 503.609992 342.106878 
L 507.093219 328.322143 
L 510.576447 336.629709 
L 514.059674 340.613236 
L 517.542902 338.360064 
L 521.026129 327.598356 
L 524.509357 322.092237 
L 527.992584 321.898124 
L 531.475812 315.291247 
L 534.959039 331.596468 
L 538.442267 338.327928 
L 541.925494 339.12768 
L 545.408722 326.192508 
L 548.891949 334.090839 
L 552.375177 327.361548 
L 555.858404 327.22616 
L 559.341632 320.840232 
L 562.824859 315.169983 
L 566.308087 322.635779 
L 569.791314 327.656095 
L 573.274542 335.011476 
L 576.75777 335.161763 
L 580.240997 326.90451 
L 583.724225 321.320123 
L 587.207452 305.632054 
L 590.69068 321.928018 
L 594.173907 306.0475 
L 597.657135 317.057005 
L 601.140362 321.55047 
L 604.62359 313.941991 
L 608.106817 315.129489 
L 611.590045 293.00311 
L 615.073272 313.763562 
L 618.5565 300.736006 
L 622.039727 314.786112 
L 625.522955 299.997306 
L 629.006182 307.955522 
L 632.48941 309.114059 
L 635.972637 311.031158 
L 639.455865 315.163841 
L 642.939092 311.595585 
L 646.42232 316.526755 
L 649.905547 324.027886 
L 653.388775 321.831817 
L 656.872002 307.410288 
L 660.35523 298.012287 
L 663.838457 307.060219 
L 667.321685 334.41288 
L 670.804912 333.65313 
L 674.28814 326.115187 
L 677.771367 328.056594 
L 681.254595 331.156394 
L 684.737822 322.581743 
L 688.22105 331.678456 
L 691.704277 318.168473 
L 698.670732 330.240612 
L 702.15396 331.577146 
L 705.637188 316.348595 
L 705.637188 316.348595 
" clip-path="url(#pbe0362c4cf)" style="fill: none; stroke: #ff8c00; stroke-width: 2.3; stroke-linecap: square"/>
   </g>
   <g id="line2d_32">
    <path d="M 277.200203 384.117812 
L 277.200203 23.837812 
" clip-path="url(#pbe0362c4cf)" style="fill: none; stroke-dasharray: 5.55,2.4; stroke-dashoffset: 0; stroke: #808080; stroke-width: 1.5"/>
   </g>
   <g id="line2d_33">
    <path d="M 475.744172 384.117812 
L 475.744172 23.837812 
" clip-path="url(#pbe0362c4cf)" style="fill: none; stroke-dasharray: 5.55,2.4; stroke-dashoffset: 0; stroke: #808080; stroke-width: 1.5"/>
   </g>
   <g id="patch_3">
    <path d="M 47.307188 384.117812 
L 47.307188 23.837812 
" style="fill: none; stroke: #000000; stroke-width: 0.8; stroke-linejoin: miter; stroke-linecap: square"/>
   </g>
   <g id="patch_4">
    <path d="M 705.637188 384.117812 
L 705.637188 23.837812 
" style="fill: none; stroke: #000000; stroke-width: 0.8; stroke-linejoin: miter; stroke-linecap: square"/>
   </g>
   <g id="patch_5">
    <path d="M 47.307188 384.117812 
L 705.637188 384.117812 
" style="fill: none; stroke: #000000; stroke-width: 0.8; stroke-linejoin: miter; stroke-linecap: square"/>
   </g>
   <g id="patch_6">
    <path d="M 47.307188 23.837812 
L 705.637188 23.837812 
" style="fill: none; stroke: #000000; stroke-width: 0.8; stroke-linejoin: miter; stroke-linecap: square"/>
   </g>
   <g id="text_18">
    <!-- Facial trace: Control group (male) -->
    <g transform="translate(258.993594 17.837812) scale(0.14 -0.14)">
     <defs>
      <path id="DejaVuSans-46" d="M 628 4666 
L 3309 4666 
L 3309 4134 
L 1259 4134 
L 1259 2759 
L 3109 2759 
L 3109 2228 
L 1259 2228 
L 1259 0 
L 628 0 
L 628 4666 
z
" transform="scale(0.015625)"/>
      <path id="DejaVuSans-63" d="M 3122 3366 
L 3122 2828 
Q 2878 2963 2633 3030 
Q 2388 3097 2138 3097 
Q 1578 3097 1268 2742 
Q 959 2388 959 1747 
Q 959 1106 1268 751 
Q 1578 397 2138 397 
Q 2388 397 2633 464 
Q 2878 531 3122 666 
L 3122 134 
Q 2881 22 2623 -34 
Q 2366 -91 2075 -91 
Q 1284 -91 818 406 
Q 353 903 353 1747 
Q 353 2603 823 3093 
Q 1294 3584 2113 3584 
Q 2378 3584 2631 3529 
Q 2884 3475 3122 3366 
z
" transform="scale(0.015625)"/>
      <path id="DejaVuSans-6c" d="M 603 4863 
L 1178 4863 
L 1178 0 
L 603 0 
L 603 4863 
z
" transform="scale(0.015625)"/>
      <path id="DejaVuSans-72" d="M 2631 2963 
Q 2534 3019 2420 3045 
Q 2306 3072 2169 3072 
Q 1681 3072 1420 2755 
Q 1159 2438 1159 1844 
L 1159 0 
L 581 0 
L 581 3500 
L 1159 3500 
L 1159 2956 
Q 1341 3275 1631 3429 
Q 1922 3584 2338 3584 
Q 2397 3584 2469 3576 
Q 2541 3569 2628 3553 
L 2631 2963 
z
" transform="scale(0.015625)"/>
      <path id="DejaVuSans-3a" d="M 750 794 
L 1409 794 
L 1409 0 
L 750 0 
L 750 794 
z
M 750 3309 
L 1409 3309 
L 1409 2516 
L 750 2516 
L 750 3309 
z
" transform="scale(0.015625)"/>
      <path id="DejaVuSans-43" d="M 4122 4306 
L 4122 3641 
Q 3803 3938 3442 4084 
Q 3081 4231 2675 4231 
Q 1875 4231 1450 3742 
Q 1025 3253 1025 2328 
Q 1025 1406 1450 917 
Q 1875 428 2675 428 
Q 3081 428 3442 575 
Q 3803 722 4122 1019 
L 4122 359 
Q 3791 134 3420 21 
Q 3050 -91 2638 -91 
Q 1578 -91 968 557 
Q 359 1206 359 2328 
Q 359 3453 968 4101 
Q 1578 4750 2638 4750 
Q 3056 4750 3426 4639 
Q 3797 4528 4122 4306 
z
" transform="scale(0.015625)"/>
      <path id="DejaVuSans-6f" d="M 1959 3097 
Q 1497 3097 1228 2736 
Q 959 2375 959 1747 
Q 959 1119 1226 758 
Q 1494 397 1959 397 
Q 2419 397 2687 759 
Q 2956 1122 2956 1747 
Q 2956 2369 2687 2733 
Q 2419 3097 1959 3097 
z
M 1959 3584 
Q 2709 3584 3137 3096 
Q 3566 2609 3566 1747 
Q 3566 888 3137 398 
Q 2709 -91 1959 -91 
Q 1206 -91 779 398 
Q 353 888 353 1747 
Q 353 2609 779 3096 
Q 1206 3584 1959 3584 
z
" transform="scale(0.015625)"/>
      <path id="DejaVuSans-67" d="M 2906 1791 
Q 2906 2416 2648 2759 
Q 2391 3103 1925 3103 
Q 1463 3103 1205 2759 
Q 947 2416 947 1791 
Q 947 1169 1205 825 
Q 1463 481 1925 481 
Q 2391 481 2648 825 
Q 2906 1169 2906 1791 
z
M 3481 434 
Q 3481 -459 3084 -895 
Q 2688 -1331 1869 -1331 
Q 1566 -1331 1297 -1286 
Q 1028 -1241 775 -1147 
L 775 -588 
Q 1028 -725 1275 -790 
Q 1522 -856 1778 -856 
Q 2344 -856 2625 -561 
Q 2906 -266 2906 331 
L 2906 616 
Q 2728 306 2450 153 
Q 2172 0 1784 0 
Q 1141 0 747 490 
Q 353 981 353 1791 
Q 353 2603 747 3093 
Q 1141 3584 1784 3584 
Q 2172 3584 2450 3431 
Q 2728 3278 2906 2969 
L 2906 3500 
L 3481 3500 
L 3481 434 
z
" transform="scale(0.015625)"/>
      <path id="DejaVuSans-75" d="M 544 1381 
L 544 3500 
L 1119 3500 
L 1119 1403 
Q 1119 906 1312 657 
Q 1506 409 1894 409 
Q 2359 409 2629 706 
Q 2900 1003 2900 1516 
L 2900 3500 
L 3475 3500 
L 3475 0 
L 2900 0 
L 2900 538 
Q 2691 219 2414 64 
Q 2138 -91 1772 -91 
Q 1169 -91 856 284 
Q 544 659 544 1381 
z
M 1991 3584 
L 1991 3584 
z
" transform="scale(0.015625)"/>
      <path id="DejaVuSans-70" d="M 1159 525 
L 1159 -1331 
L 581 -1331 
L 581 3500 
L 1159 3500 
L 1159 2969 
Q 1341 3281 1617 3432 
Q 1894 3584 2278 3584 
Q 2916 3584 3314 3078 
Q 3713 2572 3713 1747 
Q 3713 922 3314 415 
Q 2916 -91 2278 -91 
Q 1894 -91 1617 61 
Q 1341 213 1159 525 
z
M 3116 1747 
Q 3116 2381 2855 2742 
Q 2594 3103 2138 3103 
Q 1681 3103 1420 2742 
Q 1159 2381 1159 1747 
Q 1159 1113 1420 752 
Q 1681 391 2138 391 
Q 2594 391 2855 752 
Q 3116 1113 3116 1747 
z
" transform="scale(0.015625)"/>
     </defs>
     <use xlink:href="#DejaVuSans-46"/>
     <use xlink:href="#DejaVuSans-61" transform="translate(48.394531 0)"/>
     <use xlink:href="#DejaVuSans-63" transform="translate(109.673828 0)"/>
     <use xlink:href="#DejaVuSans-69" transform="translate(164.654297 0)"/>
     <use xlink:href="#DejaVuSans-61" transform="translate(192.4375 0)"/>
     <use xlink:href="#DejaVuSans-6c" transform="translate(253.716797 0)"/>
     <use xlink:href="#DejaVuSans-20" transform="translate(281.5 0)"/>
     <use xlink:href="#DejaVuSans-74" transform="translate(313.287109 0)"/>
     <use xlink:href="#DejaVuSans-72" transform="translate(352.496094 0)"/>
     <use xlink:href="#DejaVuSans-61" transform="translate(393.609375 0)"/>
     <use xlink:href="#DejaVuSans-63" transform="translate(454.888672 0)"/>
     <use xlink:href="#DejaVuSans-65" transform="translate(509.869141 0)"/>
     <use xlink:href="#DejaVuSans-3a" transform="translate(571.392578 0)"/>
     <use xlink:href="#DejaVuSans-20" transform="translate(605.083984 0)"/>
     <use xlink:href="#DejaVuSans-43" transform="translate(636.871094 0)"/>
     <use xlink:href="#DejaVuSans-6f" transform="translate(706.695312 0)"/>
     <use xlink:href="#DejaVuSans-6e" transform="translate(767.876953 0)"/>
     <use xlink:href="#DejaVuSans-74" transform="translate(831.255859 0)"/>
     <use xlink:href="#DejaVuSans-72" transform="translate(870.464844 0)"/>
     <use xlink:href="#DejaVuSans-6f" transform="translate(909.328125 0)"/>
     <use xlink:href="#DejaVuSans-6c" transform="translate(970.509766 0)"/>
     <use xlink:href="#DejaVuSans-20" transform="translate(998.292969 0)"/>
     <use xlink:href="#DejaVuSans-67" transform="translate(1030.080078 0)"/>
     <use xlink:href="#DejaVuSans-72" transform="translate(1093.556641 0)"/>
     <use xlink:href="#DejaVuSans-6f" transform="translate(1132.419922 0)"/>
     <use xlink:href="#DejaVuSans-75" transform="translate(1193.601562 0)"/>
     <use xlink:href="#DejaVuSans-70" transform="translate(1256.980469 0)"/>
     <use xlink:href="#DejaVuSans-20" transform="translate(1320.457031 0)"/>
     <use xlink:href="#DejaVuSans-28" transform="translate(1352.244141 0)"/>
     <use xlink:href="#DejaVuSans-6d" transform="translate(1391.257812 0)"/>
     <use xlink:href="#DejaVuSans-61" transform="translate(1488.669922 0)"/>
     <use xlink:href="#DejaVuSans-6c" transform="translate(1549.949219 0)"/>
     <use xlink:href="#DejaVuSans-65" transform="translate(1577.732422 0)"/>
     <use xlink:href="#DejaVuSans-29" transform="translate(1639.255859 0)"/>
    </g>
   </g>
   <g id="legend_1">
    <g id="patch_7">
     <path d="M 532.639844 42.096094 
L 554.639844 42.096094 
L 554.639844 34.396094 
L 532.639844 34.396094 
z
" style="fill: #d3d3d3; fill-opacity: 0.5; stroke: #d3d3d3; stroke-opacity: 0.5; stroke-linejoin: miter"/>
    </g>
    <g id="text_19">
     <!-- Control group ±2 SD -->
     <g transform="translate(563.439844 42.096094) scale(0.11 -0.11)">
      <defs>
       <path id="DejaVuSans-b1" d="M 2944 4013 
L 2944 2803 
L 4684 2803 
L 4684 2272 
L 2944 2272 
L 2944 1063 
L 2419 1063 
L 2419 2272 
L 678 2272 
L 678 2803 
L 2419 2803 
L 2419 4013 
L 2944 4013 
z
M 678 531 
L 4684 531 
L 4684 0 
L 678 0 
L 678 531 
z
" transform="scale(0.015625)"/>
       <path id="DejaVuSans-53" d="M 3425 4513 
L 3425 3897 
Q 3066 4069 2747 4153 
Q 2428 4238 2131 4238 
Q 1616 4238 1336 4038 
Q 1056 3838 1056 3469 
Q 1056 3159 1242 3001 
Q 1428 2844 1947 2747 
L 2328 2669 
Q 3034 2534 3370 2195 
Q 3706 1856 3706 1288 
Q 3706 609 3251 259 
Q 2797 -91 1919 -91 
Q 1588 -91 1214 -16 
Q 841 59 441 206 
L 441 856 
Q 825 641 1194 531 
Q 1563 422 1919 422 
Q 2459 422 2753 634 
Q 3047 847 3047 1241 
Q 3047 1584 2836 1778 
Q 2625 1972 2144 2069 
L 1759 2144 
Q 1053 2284 737 2584 
Q 422 2884 422 3419 
Q 422 4038 858 4394 
Q 1294 4750 2059 4750 
Q 2388 4750 2728 4690 
Q 3069 4631 3425 4513 
z
" transform="scale(0.015625)"/>
       <path id="DejaVuSans-44" d="M 1259 4147 
L 1259 519 
L 2022 519 
Q 2988 519 3436 956 
Q 3884 1394 3884 2338 
Q 3884 3275 3436 3711 
Q 2988 4147 2022 4147 
L 1259 4147 
z
M 628 4666 
L 1925 4666 
Q 3281 4666 3915 4102 
Q 4550 3538 4550 2338 
Q 4550 1131 3912 565 
Q 3275 0 1925 0 
L 628 0 
L 628 4666 
z
" transform="scale(0.015625)"/>
      </defs>
      <use xlink:href="#DejaVuSans-43"/>
      <use xlink:href="#DejaVuSans-6f" transform="translate(69.824219 0)"/>
      <use xlink:href="#DejaVuSans-6e" transform="translate(131.005859 0)"/>
      <use xlink:href="#DejaVuSans-74" transform="translate(194.384766 0)"/>
      <use xlink:href="#DejaVuSans-72" transform="translate(233.59375 0)"/>
      <use xlink:href="#DejaVuSans-6f" transform="translate(272.457031 0)"/>
      <use xlink:href="#DejaVuSans-6c" transform="translate(333.638672 0)"/>
      <use xlink:href="#DejaVuSans-20" transform="translate(361.421875 0)"/>
      <use xlink:href="#DejaVuSans-67" transform="translate(393.208984 0)"/>
      <use xlink:href="#DejaVuSans-72" transform="translate(456.685547 0)"/>
      <use xlink:href="#DejaVuSans-6f" transform="translate(495.548828 0)"/>
      <use xlink:href="#DejaVuSans-75" transform="translate(556.730469 0)"/>
      <use xlink:href="#DejaVuSans-70" transform="translate(620.109375 0)"/>
      <use xlink:href="#DejaVuSans-20" transform="translate(683.585938 0)"/>
      <use xlink:href="#DejaVuSans-b1" transform="translate(715.373047 0)"/>
      <use xlink:href="#DejaVuSans-32" transform="translate(799.162109 0)"/>
      <use xlink:href="#DejaVuSans-20" transform="translate(862.785156 0)"/>
      <use xlink:href="#DejaVuSans-53" transform="translate(894.572266 0)"/>
      <use xlink:href="#DejaVuSans-44" transform="translate(958.048828 0)"/>
     </g>
    </g>
    <g id="patch_8">
     <path d="M 532.639844 58.242031 
L 554.639844 58.242031 
L 554.639844 50.542031 
L 532.639844 50.542031 
z
" style="fill: #808080; fill-opacity: 0.7; stroke: #808080; stroke-opacity: 0.7; stroke-linejoin: miter"/>
    </g>
    <g id="text_20">
     <!-- Control group ±1 SD -->
     <g transform="translate(563.439844 58.242031) scale(0.11 -0.11)">
      <use xlink:href="#DejaVuSans-43"/>
      <use xlink:href="#DejaVuSans-6f" transform="translate(69.824219 0)"/>
      <use xlink:href="#DejaVuSans-6e" transform="translate(131.005859 0)"/>
      <use xlink:href="#DejaVuSans-74" transform="translate(194.384766 0)"/>
      <use xlink:href="#DejaVuSans-72" transform="translate(233.59375 0)"/>
      <use xlink:href="#DejaVuSans-6f" transform="translate(272.457031 0)"/>
      <use xlink:href="#DejaVuSans-6c" transform="translate(333.638672 0)"/>
      <use xlink:href="#DejaVuSans-20" transform="translate(361.421875 0)"/>
      <use xlink:href="#DejaVuSans-67" transform="translate(393.208984 0)"/>
      <use xlink:href="#DejaVuSans-72" transform="translate(456.685547 0)"/>
      <use xlink:href="#DejaVuSans-6f" transform="translate(495.548828 0)"/>
      <use xlink:href="#DejaVuSans-75" transform="translate(556.730469 0)"/>
      <use xlink:href="#DejaVuSans-70" transform="translate(620.109375 0)"/>
      <use xlink:href="#DejaVuSans-20" transform="translate(683.585938 0)"/>
      <use xlink:href="#DejaVuSans-b1" transform="translate(715.373047 0)"/>
      <use xlink:href="#DejaVuSans-31" transform="translate(799.162109 0)"/>
      <use xlink:href="#DejaVuSans-20" transform="translate(862.785156 0)"/>
      <use xlink:href="#DejaVuSans-53" transform="translate(894.572266 0)"/>
      <use xlink:href="#DejaVuSans-44" transform="translate(958.048828 0)"/>
     </g>
    </g>
    <g id="line2d_34">
     <path d="M 532.639844 70.537969 
L 543.639844 70.537969 
L 554.639844 70.537969 
" style="fill: none; stroke: #ff8c00; stroke-width: 2.3; stroke-linecap: square"/>
    </g>
    <g id="text_21">
     <!-- Control group prototype -->
     <g transform="translate(563.439844 74.387969) scale(0.11 -0.11)">
      <use xlink:href="#DejaVuSans-43"/>
      <use xlink:href="#DejaVuSans-6f" transform="translate(69.824219 0)"/>
      <use xlink:href="#DejaVuSans-6e" transform="translate(131.005859 0)"/>
      <use xlink:href="#DejaVuSans-74" transform="translate(194.384766 0)"/>
      <use xlink:href="#DejaVuSans-72" transform="translate(233.59375 0)"/>
      <use xlink:href="#DejaVuSans-6f" transform="translate(272.457031 0)"/>
      <use xlink:href="#DejaVuSans-6c" transform="translate(333.638672 0)"/>
      <use xlink:href="#DejaVuSans-20" transform="translate(361.421875 0)"/>
      <use xlink:href="#DejaVuSans-67" transform="translate(393.208984 0)"/>
      <use xlink:href="#DejaVuSans-72" transform="translate(456.685547 0)"/>
      <use xlink:href="#DejaVuSans-6f" transform="translate(495.548828 0)"/>
      <use xlink:href="#DejaVuSans-75" transform="translate(556.730469 0)"/>
      <use xlink:href="#DejaVuSans-70" transform="translate(620.109375 0)"/>
      <use xlink:href="#DejaVuSans-20" transform="translate(683.585938 0)"/>
      <use xlink:href="#DejaVuSans-70" transform="translate(715.373047 0)"/>
      <use xlink:href="#DejaVuSans-72" transform="translate(778.849609 0)"/>
      <use xlink:href="#DejaVuSans-6f" transform="translate(817.712891 0)"/>
      <use xlink:href="#DejaVuSans-74" transform="translate(878.894531 0)"/>
      <use xlink:href="#DejaVuSans-6f" transform="translate(918.103516 0)"/>
      <use xlink:href="#DejaVuSans-74" transform="translate(979.285156 0)"/>
      <use xlink:href="#DejaVuSans-79" transform="translate(1018.494141 0)"/>
      <use xlink:href="#DejaVuSans-70" transform="translate(1077.673828 0)"/>
      <use xlink:href="#DejaVuSans-65" transform="translate(1141.150391 0)"/>
     </g>
    </g>
   </g>
  </g>
 </g>
 <defs>
  <clipPath id="pbe0362c4cf">
   <rect x="47.307188" y="23.837812" width="658.33" height="360.28"/>
  </clipPath>
 </defs>
</svg>
