<?xml version="1.0" encoding="utf-8" standalone="no"?>
<!DOCTYPE svg PUBLIC "-//W3C//DTD SVG 1.1//EN"
  "http://www.w3.org/Graphics/SVG/1.1/DTD/svg11.dtd">
<svg xmlns:xlink="http://www.w3.org/1999/xlink" width="712.837188pt" height="424.5775pt" viewBox="0 0 712.837188 424.5775" xmlns="http://www.w3.org/2000/svg" version="1.1">
 <metadata>
  <rdf:RDF xmlns:dc="http://purl.org/dc/elements/1.1/" xmlns:cc="http://creativecommons.org/ns#" xmlns:rdf="http://www.w3.org/1999/02/22-rdf-syntax-ns#">
   <cc:Work>
    <dc:type rdf:resource="http://purl.org/dc/dcmitype/StillImage"/>
    <dc:date>2026-06-14T19:11:02.179059</dc:date>
    <dc:format>image/svg+xml</dc:format>
    <dc:creator>
     <cc:Agent>
      <dc:title>Matplotlib v3.10.1, https://matplotlib.org/</dc:title>
     </cc:Agent>
    </dc:creator>
   </cc:Work>
  </rdf:RDF>
 </metadata>
 <defs>
  <style type="text/css">*{stroke-linejoin: round; stroke-linecap: butt}</style>
 </defs>
 <g id="figure_1">
  <g id="patch_1">
   <path d="M 0 424.5775 
L 712.837188 424.5775 
L 712.837188 0 
L 0 0 
z
" style="fill: #ffffff"/>
  </g>
  <g id="axes_1">
   <g id="patch_2">
    <path d="M 47.307188 384.117812 
L 705.637188 384.117812 
L 705.637188 23.837812 
L 47.307188 23.837812 
z
" style="fill: #ffffff"/>
   </g>
   <g id="matplotlib.axis_1">
    <g id="xtick_1">
     <g id="line2d_1">
      <path d="M 47.307188 384.117812 
L 47.307188 23.837812 
" clip-path="url(#p838838c4e7)" style="fill: none; stroke: #b0b0b0; stroke-opacity: 0.2; stroke-width: 0.6; stroke-linecap: square"/>
     </g>
     <g id="line2d_2">
      <defs>
       <path id="mb834654c2c" d="M 0 0 
L 0 3.5 
" style="stroke: #000000; stroke-width: 0.8"/>
      </defs>
      <g>
       <use xlink:href="#mb834654c2c" x="47.307188" y="384.117812" style="stroke: #000000; stroke-width: 0.8"/>
      </g>
     </g>
     <g id="text_1">
      <!-- 0 -->
      <g transform="translate(43.807813 399.476094) scale(0.11 -0.11)">
       <defs>
        <path id="DejaVuSans-30" d="M 2034 4250 
Q 1547 4250 1301 3770 
Q 1056 3291 1056 2328 
Q 1056 1369 1301 889 
Q 1547 409 2034 409 
Q 2525 409 2770 889 
Q 3016 1369 3016 2328 
Q 3016 3291 2770 3770 
Q 2525 4250 2034 4250 
z
M 2034 4750 
Q 2819 4750 3233 4129 
Q 3647 3509 3647 2328 
Q 3647 1150 3233 529 
Q 2819 -91 2034 -91 
Q 1250 -91 836 529 
Q 422 1150 422 2328 
Q 422 3509 836 4129 
Q 1250 4750 2034 4750 
z
" transform="scale(0.015625)"/>
       </defs>
       <use xlink:href="#DejaVuSans-30"/>
      </g>
     </g>
    </g>
    <g id="xtick_2">
     <g id="line2d_3">
      <path d="M 134.387875 384.117812 
L 134.387875 23.837812 
" clip-path="url(#p838838c4e7)" style="fill: none; stroke: #b0b0b0; stroke-opacity: 0.2; stroke-width: 0.6; stroke-linecap: square"/>
     </g>
     <g id="line2d_4">
      <g>
       <use xlink:href="#mb834654c2c" x="134.387875" y="384.117812" style="stroke: #000000; stroke-width: 0.8"/>
      </g>
     </g>
     <g id="text_2">
      <!-- 25 -->
      <g transform="translate(127.389125 399.476094) scale(0.11 -0.11)">
       <defs>
        <path id="DejaVuSans-32" d="M 1228 531 
L 3431 531 
L 3431 0 
L 469 0 
L 469 531 
Q 828 903 1448 1529 
Q 2069 2156 2228 2338 
Q 2531 2678 2651 2914 
Q 2772 3150 2772 3378 
Q 2772 3750 2511 3984 
Q 2250 4219 1831 4219 
Q 1534 4219 1204 4116 
Q 875 4013 500 3803 
L 500 4441 
Q 881 4594 1212 4672 
Q 1544 4750 1819 4750 
Q 2544 4750 2975 4387 
Q 3406 4025 3406 3419 
Q 3406 3131 3298 2873 
Q 3191 2616 2906 2266 
Q 2828 2175 2409 1742 
Q 1991 1309 1228 531 
z
" transform="scale(0.015625)"/>
        <path id="DejaVuSans-35" d="M 691 4666 
L 3169 4666 
L 3169 4134 
L 1269 4134 
L 1269 2991 
Q 1406 3038 1543 3061 
Q 1681 3084 1819 3084 
Q 2600 3084 3056 2656 
Q 3513 2228 3513 1497 
Q 3513 744 3044 326 
Q 2575 -91 1722 -91 
Q 1428 -91 1123 -41 
Q 819 9 494 109 
L 494 744 
Q 775 591 1075 516 
Q 1375 441 1709 441 
Q 2250 441 2565 725 
Q 2881 1009 2881 1497 
Q 2881 1984 2565 2268 
Q 2250 2553 1709 2553 
Q 1456 2553 1204 2497 
Q 953 2441 691 2322 
L 691 4666 
z
" transform="scale(0.015625)"/>
       </defs>
       <use xlink:href="#DejaVuSans-32"/>
       <use xlink:href="#DejaVuSans-35" transform="translate(63.623047 0)"/>
      </g>
     </g>
    </g>
    <g id="xtick_3">
     <g id="line2d_5">
      <path d="M 221.468563 384.117812 
L 221.468563 23.837812 
" clip-path="url(#p838838c4e7)" style="fill: none; stroke: #b0b0b0; stroke-opacity: 0.2; stroke-width: 0.6; stroke-linecap: square"/>
     </g>
     <g id="line2d_6">
      <g>
       <use xlink:href="#mb834654c2c" x="221.468563" y="384.117812" style="stroke: #000000; stroke-width: 0.8"/>
      </g>
     </g>
     <g id="text_3">
      <!-- 50 -->
      <g transform="translate(214.469813 399.476094) scale(0.11 -0.11)">
       <use xlink:href="#DejaVuSans-35"/>
       <use xlink:href="#DejaVuSans-30" transform="translate(63.623047 0)"/>
      </g>
     </g>
    </g>
    <g id="xtick_4">
     <g id="line2d_7">
      <path d="M 308.549251 384.117812 
L 308.549251 23.837812 
" clip-path="url(#p838838c4e7)" style="fill: none; stroke: #b0b0b0; stroke-opacity: 0.2; stroke-width: 0.6; stroke-linecap: square"/>
     </g>
     <g id="line2d_8">
      <g>
       <use xlink:href="#mb834654c2c" x="308.549251" y="384.117812" style="stroke: #000000; stroke-width: 0.8"/>
      </g>
     </g>
     <g id="text_4">
      <!-- 75 -->
      <g transform="translate(301.550501 399.476094) scale(0.11 -0.11)">
       <defs>
        <path id="DejaVuSans-37" d="M 525 4666 
L 3525 4666 
L 3525 4397 
L 1831 0 
L 1172 0 
L 2766 4134 
L 525 4134 
L 525 4666 
z
" transform="scale(0.015625)"/>
       </defs>
       <use xlink:href="#DejaVuSans-37"/>
       <use xlink:href="#DejaVuSans-35" transform="translate(63.623047 0)"/>
      </g>
     </g>
    </g>
    <g id="xtick_5">
     <g id="line2d_9">
      <path d="M 395.629939 384.117812 
L 395.629939 23.837812 
" clip-path="url(#p838838c4e7)" style="fill: none; stroke: #b0b0b0; stroke-opacity: 0.2; stroke-width: 0.6; stroke-linecap: square"/>
     </g>
     <g id="line2d_10">
      <g>
       <use xlink:href="#mb834654c2c" x="395.629939" y="384.117812" style="stroke: #000000; stroke-width: 0.8"/>
      </g>
     </g>
     <g id="text_5">
      <!-- 100 -->
      <g transform="translate(385.131814 399.476094) scale(0.11 -0.11)">
       <defs>
        <path id="DejaVuSans-31" d="M 794 531 
L 1825 531 
L 1825 4091 
L 703 3866 
L 703 4441 
L 1819 4666 
L 2450 4666 
L 2450 531 
L 3481 531 
L 3481 0 
L 794 0 
L 794 531 
z
" transform="scale(0.015625)"/>
       </defs>
       <use xlink:href="#DejaVuSans-31"/>
       <use xlink:href="#DejaVuSans-30" transform="translate(63.623047 0)"/>
       <use xlink:href="#DejaVuSans-30" transform="translate(127.246094 0)"/>
      </g>
     </g>
    </g>
    <g id="xtick_6">
     <g id="line2d_11">
      <path d="M 482.710627 384.117812 
L 482.710627 23.837812 
" clip-path="url(#p838838c4e7)" style="fill: none; stroke: #b0b0b0; stroke-opacity: 0.2; stroke-width: 0.6; stroke-linecap: square"/>
     </g>
     <g id="line2d_12">
      <g>
       <use xlink:href="#mb834654c2c" x="482.710627" y="384.117812" style="stroke: #000000; stroke-width: 0.8"/>
      </g>
     </g>
     <g id="text_6">
      <!-- 125 -->
      <g transform="translate(472.212502 399.476094) scale(0.11 -0.11)">
       <use xlink:href="#DejaVuSans-31"/>
       <use xlink:href="#DejaVuSans-32" transform="translate(63.623047 0)"/>
       <use xlink:href="#DejaVuSans-35" transform="translate(127.246094 0)"/>
      </g>
     </g>
    </g>
    <g id="xtick_7">
     <g id="line2d_13">
      <path d="M 569.791314 384.117812 
L 569.791314 23.837812 
" clip-path="url(#p838838c4e7)" style="fill: none; stroke: #b0b0b0; stroke-opacity: 0.2; stroke-width: 0.6; stroke-linecap: square"/>
     </g>
     <g id="line2d_14">
      <g>
       <use xlink:href="#mb834654c2c" x="569.791314" y="384.117812" style="stroke: #000000; stroke-width: 0.8"/>
      </g>
     </g>
     <g id="text_7">
      <!-- 150 -->
      <g transform="translate(559.293189 399.476094) scale(0.11 -0.11)">
       <use xlink:href="#DejaVuSans-31"/>
       <use xlink:href="#DejaVuSans-35" transform="translate(63.623047 0)"/>
       <use xlink:href="#DejaVuSans-30" transform="translate(127.246094 0)"/>
      </g>
     </g>
    </g>
    <g id="xtick_8">
     <g id="line2d_15">
      <path d="M 656.872002 384.117812 
L 656.872002 23.837812 
" clip-path="url(#p838838c4e7)" style="fill: none; stroke: #b0b0b0; stroke-opacity: 0.2; stroke-width: 0.6; stroke-linecap: square"/>
     </g>
     <g id="line2d_16">
      <g>
       <use xlink:href="#mb834654c2c" x="656.872002" y="384.117812" style="stroke: #000000; stroke-width: 0.8"/>
      </g>
     </g>
     <g id="text_8">
      <!-- 175 -->
      <g transform="translate(646.373877 399.476094) scale(0.11 -0.11)">
       <use xlink:href="#DejaVuSans-31"/>
       <use xlink:href="#DejaVuSans-37" transform="translate(63.623047 0)"/>
       <use xlink:href="#DejaVuSans-35" transform="translate(127.246094 0)"/>
      </g>
     </g>
    </g>
    <g id="text_9">
     <!-- Time (s) -->
     <g transform="translate(352.0775 414.881875) scale(0.12 -0.12)">
      <defs>
       <path id="DejaVuSans-54" d="M -19 4666 
L 3928 4666 
L 3928 4134 
L 2272 4134 
L 2272 0 
L 1638 0 
L 1638 4134 
L -19 4134 
L -19 4666 
z
" transform="scale(0.015625)"/>
       <path id="DejaVuSans-69" d="M 603 3500 
L 1178 3500 
L 1178 0 
L 603 0 
L 603 3500 
z
M 603 4863 
L 1178 4863 
L 1178 4134 
L 603 4134 
L 603 4863 
z
" transform="scale(0.015625)"/>
       <path id="DejaVuSans-6d" d="M 3328 2828 
Q 3544 3216 3844 3400 
Q 4144 3584 4550 3584 
Q 5097 3584 5394 3201 
Q 5691 2819 5691 2113 
L 5691 0 
L 5113 0 
L 5113 2094 
Q 5113 2597 4934 2840 
Q 4756 3084 4391 3084 
Q 3944 3084 3684 2787 
Q 3425 2491 3425 1978 
L 3425 0 
L 2847 0 
L 2847 2094 
Q 2847 2600 2669 2842 
Q 2491 3084 2119 3084 
Q 1678 3084 1418 2786 
Q 1159 2488 1159 1978 
L 1159 0 
L 581 0 
L 581 3500 
L 1159 3500 
L 1159 2956 
Q 1356 3278 1631 3431 
Q 1906 3584 2284 3584 
Q 2666 3584 2933 3390 
Q 3200 3197 3328 2828 
z
" transform="scale(0.015625)"/>
       <path id="DejaVuSans-65" d="M 3597 1894 
L 3597 1613 
L 953 1613 
Q 991 1019 1311 708 
Q 1631 397 2203 397 
Q 2534 397 2845 478 
Q 3156 559 3463 722 
L 3463 178 
Q 3153 47 2828 -22 
Q 2503 -91 2169 -91 
Q 1331 -91 842 396 
Q 353 884 353 1716 
Q 353 2575 817 3079 
Q 1281 3584 2069 3584 
Q 2775 3584 3186 3129 
Q 3597 2675 3597 1894 
z
M 3022 2063 
Q 3016 2534 2758 2815 
Q 2500 3097 2075 3097 
Q 1594 3097 1305 2825 
Q 1016 2553 972 2059 
L 3022 2063 
z
" transform="scale(0.015625)"/>
       <path id="DejaVuSans-20" transform="scale(0.015625)"/>
       <path id="DejaVuSans-28" d="M 1984 4856 
Q 1566 4138 1362 3434 
Q 1159 2731 1159 2009 
Q 1159 1288 1364 580 
Q 1569 -128 1984 -844 
L 1484 -844 
Q 1016 -109 783 600 
Q 550 1309 550 2009 
Q 550 2706 781 3412 
Q 1013 4119 1484 4856 
L 1984 4856 
z
" transform="scale(0.015625)"/>
       <path id="DejaVuSans-73" d="M 2834 3397 
L 2834 2853 
Q 2591 2978 2328 3040 
Q 2066 3103 1784 3103 
Q 1356 3103 1142 2972 
Q 928 2841 928 2578 
Q 928 2378 1081 2264 
Q 1234 2150 1697 2047 
L 1894 2003 
Q 2506 1872 2764 1633 
Q 3022 1394 3022 966 
Q 3022 478 2636 193 
Q 2250 -91 1575 -91 
Q 1294 -91 989 -36 
Q 684 19 347 128 
L 347 722 
Q 666 556 975 473 
Q 1284 391 1588 391 
Q 1994 391 2212 530 
Q 2431 669 2431 922 
Q 2431 1156 2273 1281 
Q 2116 1406 1581 1522 
L 1381 1569 
Q 847 1681 609 1914 
Q 372 2147 372 2553 
Q 372 3047 722 3315 
Q 1072 3584 1716 3584 
Q 2034 3584 2315 3537 
Q 2597 3491 2834 3397 
z
" transform="scale(0.015625)"/>
       <path id="DejaVuSans-29" d="M 513 4856 
L 1013 4856 
Q 1481 4119 1714 3412 
Q 1947 2706 1947 2009 
Q 1947 1309 1714 600 
Q 1481 -109 1013 -844 
L 513 -844 
Q 928 -128 1133 580 
Q 1338 1288 1338 2009 
Q 1338 2731 1133 3434 
Q 928 4138 513 4856 
z
" transform="scale(0.015625)"/>
      </defs>
      <use xlink:href="#DejaVuSans-54"/>
      <use xlink:href="#DejaVuSans-69" transform="translate(57.958984 0)"/>
      <use xlink:href="#DejaVuSans-6d" transform="translate(85.742188 0)"/>
      <use xlink:href="#DejaVuSans-65" transform="translate(183.154297 0)"/>
      <use xlink:href="#DejaVuSans-20" transform="translate(244.677734 0)"/>
      <use xlink:href="#DejaVuSans-28" transform="translate(276.464844 0)"/>
      <use xlink:href="#DejaVuSans-73" transform="translate(315.478516 0)"/>
      <use xlink:href="#DejaVuSans-29" transform="translate(367.578125 0)"/>
     </g>
    </g>
   </g>
   <g id="matplotlib.axis_2">
    <g id="ytick_1">
     <g id="line2d_17">
      <path d="M 47.307188 367.741449 
L 705.637188 367.741449 
" clip-path="url(#p838838c4e7)" style="fill: none; stroke: #b0b0b0; stroke-opacity: 0.2; stroke-width: 0.6; stroke-linecap: square"/>
     </g>
     <g id="line2d_18">
      <defs>
       <path id="m944ff317af" d="M 0 0 
L -3.5 0 
" style="stroke: #000000; stroke-width: 0.8"/>
      </defs>
      <g>
       <use xlink:href="#m944ff317af" x="47.307188" y="367.741449" style="stroke: #000000; stroke-width: 0.8"/>
      </g>
     </g>
     <g id="text_10">
      <!-- 0.0 -->
      <g transform="translate(22.81375 371.920589) scale(0.11 -0.11)">
       <defs>
        <path id="DejaVuSans-2e" d="M 684 794 
L 1344 794 
L 1344 0 
L 684 0 
L 684 794 
z
" transform="scale(0.015625)"/>
       </defs>
       <use xlink:href="#DejaVuSans-30"/>
       <use xlink:href="#DejaVuSans-2e" transform="translate(63.623047 0)"/>
       <use xlink:href="#DejaVuSans-30" transform="translate(95.410156 0)"/>
      </g>
     </g>
    </g>
    <g id="ytick_2">
     <g id="line2d_19">
      <path d="M 47.307188 317.507205 
L 705.637188 317.507205 
" clip-path="url(#p838838c4e7)" style="fill: none; stroke: #b0b0b0; stroke-opacity: 0.2; stroke-width: 0.6; stroke-linecap: square"/>
     </g>
     <g id="line2d_20">
      <g>
       <use xlink:href="#m944ff317af" x="47.307188" y="317.507205" style="stroke: #000000; stroke-width: 0.8"/>
      </g>
     </g>
     <g id="text_11">
      <!-- 0.5 -->
      <g transform="translate(22.81375 321.686345) scale(0.11 -0.11)">
       <use xlink:href="#DejaVuSans-30"/>
       <use xlink:href="#DejaVuSans-2e" transform="translate(63.623047 0)"/>
       <use xlink:href="#DejaVuSans-35" transform="translate(95.410156 0)"/>
      </g>
     </g>
    </g>
    <g id="ytick_3">
     <g id="line2d_21">
      <path d="M 47.307188 267.27296 
L 705.637188 267.27296 
" clip-path="url(#p838838c4e7)" style="fill: none; stroke: #b0b0b0; stroke-opacity: 0.2; stroke-width: 0.6; stroke-linecap: square"/>
     </g>
     <g id="line2d_22">
      <g>
       <use xlink:href="#m944ff317af" x="47.307188" y="267.27296" style="stroke: #000000; stroke-width: 0.8"/>
      </g>
     </g>
     <g id="text_12">
      <!-- 1.0 -->
      <g transform="translate(22.81375 271.452101) scale(0.11 -0.11)">
       <use xlink:href="#DejaVuSans-31"/>
       <use xlink:href="#DejaVuSans-2e" transform="translate(63.623047 0)"/>
       <use xlink:href="#DejaVuSans-30" transform="translate(95.410156 0)"/>
      </g>
     </g>
    </g>
    <g id="ytick_4">
     <g id="line2d_23">
      <path d="M 47.307188 217.038716 
L 705.637188 217.038716 
" clip-path="url(#p838838c4e7)" style="fill: none; stroke: #b0b0b0; stroke-opacity: 0.2; stroke-width: 0.6; stroke-linecap: square"/>
     </g>
     <g id="line2d_24">
      <g>
       <use xlink:href="#m944ff317af" x="47.307188" y="217.038716" style="stroke: #000000; stroke-width: 0.8"/>
      </g>
     </g>
     <g id="text_13">
      <!-- 1.5 -->
      <g transform="translate(22.81375 221.217857) scale(0.11 -0.11)">
       <use xlink:href="#DejaVuSans-31"/>
       <use xlink:href="#DejaVuSans-2e" transform="translate(63.623047 0)"/>
       <use xlink:href="#DejaVuSans-35" transform="translate(95.410156 0)"/>
      </g>
     </g>
    </g>
    <g id="ytick_5">
     <g id="line2d_25">
      <path d="M 47.307188 166.804472 
L 705.637188 166.804472 
" clip-path="url(#p838838c4e7)" style="fill: none; stroke: #b0b0b0; stroke-opacity: 0.2; stroke-width: 0.6; stroke-linecap: square"/>
     </g>
     <g id="line2d_26">
      <g>
       <use xlink:href="#m944ff317af" x="47.307188" y="166.804472" style="stroke: #000000; stroke-width: 0.8"/>
      </g>
     </g>
     <g id="text_14">
      <!-- 2.0 -->
      <g transform="translate(22.81375 170.983612) scale(0.11 -0.11)">
       <use xlink:href="#DejaVuSans-32"/>
       <use xlink:href="#DejaVuSans-2e" transform="translate(63.623047 0)"/>
       <use xlink:href="#DejaVuSans-30" transform="translate(95.410156 0)"/>
      </g>
     </g>
    </g>
    <g id="ytick_6">
     <g id="line2d_27">
      <path d="M 47.307188 116.570227 
L 705.637188 116.570227 
" clip-path="url(#p838838c4e7)" style="fill: none; stroke: #b0b0b0; stroke-opacity: 0.2; stroke-width: 0.6; stroke-linecap: square"/>
     </g>
     <g id="line2d_28">
      <g>
       <use xlink:href="#m944ff317af" x="47.307188" y="116.570227" style="stroke: #000000; stroke-width: 0.8"/>
      </g>
     </g>
     <g id="text_15">
      <!-- 2.5 -->
      <g transform="translate(22.81375 120.749368) scale(0.11 -0.11)">
       <use xlink:href="#DejaVuSans-32"/>
       <use xlink:href="#DejaVuSans-2e" transform="translate(63.623047 0)"/>
       <use xlink:href="#DejaVuSans-35" transform="translate(95.410156 0)"/>
      </g>
     </g>
    </g>
    <g id="ytick_7">
     <g id="line2d_29">
      <path d="M 47.307188 66.335983 
L 705.637188 66.335983 
" clip-path="url(#p838838c4e7)" style="fill: none; stroke: #b0b0b0; stroke-opacity: 0.2; stroke-width: 0.6; stroke-linecap: square"/>
     </g>
     <g id="line2d_30">
      <g>
       <use xlink:href="#m944ff317af" x="47.307188" y="66.335983" style="stroke: #000000; stroke-width: 0.8"/>
      </g>
     </g>
     <g id="text_16">
      <!-- 3.0 -->
      <g transform="translate(22.81375 70.515124) scale(0.11 -0.11)">
       <defs>
        <path id="DejaVuSans-33" d="M 2597 2516 
Q 3050 2419 3304 2112 
Q 3559 1806 3559 1356 
Q 3559 666 3084 287 
Q 2609 -91 1734 -91 
Q 1441 -91 1130 -33 
Q 819 25 488 141 
L 488 750 
Q 750 597 1062 519 
Q 1375 441 1716 441 
Q 2309 441 2620 675 
Q 2931 909 2931 1356 
Q 2931 1769 2642 2001 
Q 2353 2234 1838 2234 
L 1294 2234 
L 1294 2753 
L 1863 2753 
Q 2328 2753 2575 2939 
Q 2822 3125 2822 3475 
Q 2822 3834 2567 4026 
Q 2313 4219 1838 4219 
Q 1578 4219 1281 4162 
Q 984 4106 628 3988 
L 628 4550 
Q 988 4650 1302 4700 
Q 1616 4750 1894 4750 
Q 2613 4750 3031 4423 
Q 3450 4097 3450 3541 
Q 3450 3153 3228 2886 
Q 3006 2619 2597 2516 
z
" transform="scale(0.015625)"/>
       </defs>
       <use xlink:href="#DejaVuSans-33"/>
       <use xlink:href="#DejaVuSans-2e" transform="translate(63.623047 0)"/>
       <use xlink:href="#DejaVuSans-30" transform="translate(95.410156 0)"/>
      </g>
     </g>
    </g>
    <g id="text_17">
     <!-- AU mean intensity -->
     <g transform="translate(16.318125 259.314687) rotate(-90) scale(0.12 -0.12)">
      <defs>
       <path id="DejaVuSans-41" d="M 2188 4044 
L 1331 1722 
L 3047 1722 
L 2188 4044 
z
M 1831 4666 
L 2547 4666 
L 4325 0 
L 3669 0 
L 3244 1197 
L 1141 1197 
L 716 0 
L 50 0 
L 1831 4666 
z
" transform="scale(0.015625)"/>
       <path id="DejaVuSans-55" d="M 556 4666 
L 1191 4666 
L 1191 1831 
Q 1191 1081 1462 751 
Q 1734 422 2344 422 
Q 2950 422 3222 751 
Q 3494 1081 3494 1831 
L 3494 4666 
L 4128 4666 
L 4128 1753 
Q 4128 841 3676 375 
Q 3225 -91 2344 -91 
Q 1459 -91 1007 375 
Q 556 841 556 1753 
L 556 4666 
z
" transform="scale(0.015625)"/>
       <path id="DejaVuSans-61" d="M 2194 1759 
Q 1497 1759 1228 1600 
Q 959 1441 959 1056 
Q 959 750 1161 570 
Q 1363 391 1709 391 
Q 2188 391 2477 730 
Q 2766 1069 2766 1631 
L 2766 1759 
L 2194 1759 
z
M 3341 1997 
L 3341 0 
L 2766 0 
L 2766 531 
Q 2569 213 2275 61 
Q 1981 -91 1556 -91 
Q 1019 -91 701 211 
Q 384 513 384 1019 
Q 384 1609 779 1909 
Q 1175 2209 1959 2209 
L 2766 2209 
L 2766 2266 
Q 2766 2663 2505 2880 
Q 2244 3097 1772 3097 
Q 1472 3097 1187 3025 
Q 903 2953 641 2809 
L 641 3341 
Q 956 3463 1253 3523 
Q 1550 3584 1831 3584 
Q 2591 3584 2966 3190 
Q 3341 2797 3341 1997 
z
" transform="scale(0.015625)"/>
       <path id="DejaVuSans-6e" d="M 3513 2113 
L 3513 0 
L 2938 0 
L 2938 2094 
Q 2938 2591 2744 2837 
Q 2550 3084 2163 3084 
Q 1697 3084 1428 2787 
Q 1159 2491 1159 1978 
L 1159 0 
L 581 0 
L 581 3500 
L 1159 3500 
L 1159 2956 
Q 1366 3272 1645 3428 
Q 1925 3584 2291 3584 
Q 2894 3584 3203 3211 
Q 3513 2838 3513 2113 
z
" transform="scale(0.015625)"/>
       <path id="DejaVuSans-74" d="M 1172 4494 
L 1172 3500 
L 2356 3500 
L 2356 3053 
L 1172 3053 
L 1172 1153 
Q 1172 725 1289 603 
Q 1406 481 1766 481 
L 2356 481 
L 2356 0 
L 1766 0 
Q 1100 0 847 248 
Q 594 497 594 1153 
L 594 3053 
L 172 3053 
L 172 3500 
L 594 3500 
L 594 4494 
L 1172 4494 
z
" transform="scale(0.015625)"/>
       <path id="DejaVuSans-79" d="M 2059 -325 
Q 1816 -950 1584 -1140 
Q 1353 -1331 966 -1331 
L 506 -1331 
L 506 -850 
L 844 -850 
Q 1081 -850 1212 -737 
Q 1344 -625 1503 -206 
L 1606 56 
L 191 3500 
L 800 3500 
L 1894 763 
L 2988 3500 
L 3597 3500 
L 2059 -325 
z
" transform="scale(0.015625)"/>
      </defs>
      <use xlink:href="#DejaVuSans-41"/>
      <use xlink:href="#DejaVuSans-55" transform="translate(68.408203 0)"/>
      <use xlink:href="#DejaVuSans-20" transform="translate(141.601562 0)"/>
      <use xlink:href="#DejaVuSans-6d" transform="translate(173.388672 0)"/>
      <use xlink:href="#DejaVuSans-65" transform="translate(270.800781 0)"/>
      <use xlink:href="#DejaVuSans-61" transform="translate(332.324219 0)"/>
      <use xlink:href="#DejaVuSans-6e" transform="translate(393.603516 0)"/>
      <use xlink:href="#DejaVuSans-20" transform="translate(456.982422 0)"/>
      <use xlink:href="#DejaVuSans-69" transform="translate(488.769531 0)"/>
      <use xlink:href="#DejaVuSans-6e" transform="translate(516.552734 0)"/>
      <use xlink:href="#DejaVuSans-74" transform="translate(579.931641 0)"/>
      <use xlink:href="#DejaVuSans-65" transform="translate(619.140625 0)"/>
      <use xlink:href="#DejaVuSans-6e" transform="translate(680.664062 0)"/>
      <use xlink:href="#DejaVuSans-73" transform="translate(744.042969 0)"/>
      <use xlink:href="#DejaVuSans-69" transform="translate(796.142578 0)"/>
      <use xlink:href="#DejaVuSans-74" transform="translate(823.925781 0)"/>
      <use xlink:href="#DejaVuSans-79" transform="translate(863.134766 0)"/>
     </g>
    </g>
   </g>
   <g id="FillBetweenPolyCollection_1">
    <defs>
     <path id="mc9d00c0acd" d="M 47.307188 -182.230882 
L 47.307188 -7.860065 
L 50.790415 -23.853587 
L 54.273643 -45.460987 
L 57.75687 -44.240594 
L 61.240098 -47.972622 
L 64.723325 -47.116734 
L 68.206553 -45.250903 
L 71.68978 -49.26725 
L 75.173008 -43.900836 
L 78.656235 -48.929954 
L 82.139463 -45.588499 
L 85.62269 -49.789173 
L 89.105918 -48.023513 
L 92.589145 -46.339608 
L 96.072373 -43.577691 
L 99.5556 -46.25725 
L 103.038828 -47.844054 
L 106.522055 -41.245946 
L 110.005283 -47.245136 
L 113.48851 -42.177196 
L 116.971738 -44.595129 
L 120.454965 -48.268137 
L 123.938193 -40.223022 
L 127.42142 -42.25677 
L 130.904648 -43.914501 
L 134.387875 -39.042226 
L 137.871103 -40.756594 
L 141.35433 -45.294231 
L 144.837558 -42.986971 
L 148.320785 -41.316361 
L 151.804013 -40.723146 
L 155.28724 -39.291986 
L 158.770468 -36.817386 
L 162.253695 -40.091286 
L 165.736923 -36.447842 
L 169.22015 -39.399218 
L 172.703378 -44.88624 
L 176.186605 -43.556768 
L 179.669833 -43.244826 
L 183.153061 -41.251045 
L 186.636288 -46.221429 
L 190.119516 -48.534199 
L 193.602743 -42.095397 
L 197.085971 -52.077367 
L 200.569198 -44.399305 
L 204.052426 -51.044563 
L 207.535653 -48.601286 
L 211.018881 -45.18058 
L 214.502108 -37.377304 
L 217.985336 -28.734574 
L 221.468563 -31.121802 
L 224.951791 -40.734095 
L 228.435018 -45.435988 
L 231.918246 -36.393045 
L 235.401473 -38.368078 
L 238.884701 -41.130586 
L 242.367928 -32.171123 
L 245.851156 -42.348849 
L 249.334383 -39.855653 
L 252.817611 -42.312531 
L 256.300838 -37.165819 
L 259.784066 -21.511512 
L 263.267293 -35.194093 
L 266.750521 -28.193453 
L 270.233748 -28.411776 
L 273.716976 -37.414604 
L 277.200203 -39.265646 
L 280.683431 -34.728074 
L 284.166658 -40.308676 
L 287.649886 -37.043535 
L 291.133113 -38.610858 
L 294.616341 -36.977501 
L 298.099568 -45.269455 
L 301.582796 -38.39332 
L 305.066023 -48.372444 
L 308.549251 -41.330058 
L 312.032479 -41.781466 
L 315.515706 -47.131649 
L 318.998934 -45.195293 
L 322.482161 -49.022399 
L 325.965389 -49.22732 
L 329.448616 -49.887134 
L 332.931844 -50.790853 
L 336.415071 -51.813229 
L 339.898299 -47.941433 
L 343.381526 -45.344567 
L 346.864754 -46.875434 
L 350.347981 -47.00767 
L 353.831209 -47.746015 
L 357.314436 -45.773924 
L 360.797664 -43.776596 
L 364.280891 -41.268097 
L 367.764119 -44.916613 
L 371.247346 -46.200338 
L 374.730574 -46.865815 
L 378.213801 -50.807868 
L 381.697029 -39.463001 
L 385.180256 -46.320495 
L 388.663484 -46.132983 
L 392.146711 -39.954871 
L 395.629939 -45.361111 
L 399.113166 -38.458636 
L 402.596394 -31.59509 
L 406.079621 -24.16206 
L 409.562849 -28.960884 
L 413.046076 -33.699737 
L 416.529304 -38.246136 
L 420.012531 -33.132228 
L 423.495759 -38.431252 
L 426.978986 -18.814678 
L 430.462214 -31.448234 
L 433.945441 -31.176895 
L 437.428669 -40.329191 
L 440.911896 -27.860056 
L 444.395124 -31.693632 
L 447.878352 -46.297565 
L 451.361579 -38.929913 
L 454.844807 -37.695773 
L 458.328034 -25.392251 
L 461.811262 -25.399745 
L 465.294489 -30.777546 
L 468.777717 -32.342602 
L 472.260944 -36.7058 
L 475.744172 -41.524777 
L 479.227399 -47.675606 
L 482.710627 -50.607473 
L 486.193854 -48.385228 
L 489.677082 -50.682799 
L 493.160309 -49.789985 
L 496.643537 -44.650795 
L 500.126764 -45.27585 
L 503.609992 -44.236804 
L 507.093219 -47.027363 
L 510.576447 -51.649569 
L 514.059674 -54.79531 
L 517.542902 -51.069151 
L 521.026129 -49.928528 
L 524.509357 -48.959631 
L 527.992584 -44.584206 
L 531.475812 -51.606713 
L 534.959039 -48.950374 
L 538.442267 -50.436717 
L 541.925494 -53.269694 
L 545.408722 -50.084369 
L 548.891949 -41.724774 
L 552.375177 -43.828718 
L 555.858404 -50.26815 
L 559.341632 -49.385032 
L 562.824859 -48.08423 
L 566.308087 -46.287565 
L 569.791314 -42.06949 
L 573.274542 -44.409116 
L 576.75777 -48.215982 
L 580.240997 -43.598856 
L 583.724225 -52.67511 
L 587.207452 -47.464972 
L 590.69068 -47.994394 
L 594.173907 -42.913701 
L 597.657135 -39.535556 
L 601.140362 -44.138246 
L 604.62359 -42.624421 
L 608.106817 -46.901997 
L 611.590045 -43.516776 
L 615.073272 -39.221408 
L 618.5565 -29.629383 
L 622.039727 -34.450149 
L 625.522955 -40.780434 
L 629.006182 -39.996079 
L 632.48941 -45.828999 
L 635.972637 -40.766164 
L 639.455865 -34.126129 
L 642.939092 -35.532325 
L 646.42232 -35.316505 
L 649.905547 -43.28882 
L 653.388775 -46.977384 
L 656.872002 -49.997125 
L 660.35523 -48.628042 
L 663.838457 -39.986856 
L 667.321685 -42.894606 
L 670.804912 -42.772241 
L 674.28814 -43.43446 
L 677.771367 -42.286331 
L 681.254595 -41.436725 
L 684.737822 -42.173131 
L 688.22105 -43.771612 
L 691.704277 -69.859995 
L 695.187505 -63.848843 
L 698.670732 -70.590148 
L 702.15396 -70.184319 
L 705.637188 -83.485947 
L 705.637188 -112.929132 
L 705.637188 -112.929132 
L 702.15396 -116.376051 
L 698.670732 -83.303994 
L 695.187505 -105.080928 
L 691.704277 -84.657744 
L 688.22105 -86.282763 
L 684.737822 -94.860782 
L 681.254595 -93.376972 
L 677.771367 -91.802816 
L 674.28814 -85.837266 
L 670.804912 -87.51758 
L 667.321685 -86.323105 
L 663.838457 -98.444377 
L 660.35523 -83.279631 
L 656.872002 -89.808333 
L 653.388775 -82.467191 
L 649.905547 -106.759804 
L 646.42232 -134.812406 
L 642.939092 -106.432627 
L 639.455865 -107.633938 
L 635.972637 -90.020225 
L 632.48941 -91.869116 
L 629.006182 -94.785954 
L 625.522955 -95.372843 
L 622.039727 -107.29539 
L 618.5565 -125.774953 
L 615.073272 -106.161783 
L 611.590045 -91.653423 
L 608.106817 -84.427153 
L 604.62359 -115.210604 
L 601.140362 -117.423836 
L 597.657135 -99.037607 
L 594.173907 -98.242885 
L 590.69068 -97.535942 
L 587.207452 -81.577654 
L 583.724225 -67.684088 
L 580.240997 -83.584526 
L 576.75777 -76.691306 
L 573.274542 -90.072667 
L 569.791314 -88.963135 
L 566.308087 -78.851802 
L 562.824859 -78.746003 
L 559.341632 -71.331413 
L 555.858404 -68.82709 
L 552.375177 -80.329062 
L 548.891949 -83.560621 
L 545.408722 -70.123959 
L 541.925494 -74.846104 
L 538.442267 -69.748515 
L 534.959039 -73.817908 
L 531.475812 -66.268898 
L 527.992584 -83.283121 
L 524.509357 -72.114805 
L 521.026129 -73.758014 
L 517.542902 -69.393236 
L 514.059674 -61.944862 
L 510.576447 -67.473238 
L 507.093219 -76.842831 
L 503.609992 -91.238115 
L 500.126764 -83.304479 
L 496.643537 -84.946141 
L 493.160309 -89.398953 
L 489.677082 -78.46376 
L 486.193854 -77.397109 
L 482.710627 -74.023779 
L 479.227399 -86.695166 
L 475.744172 -100.601849 
L 472.260944 -110.423389 
L 468.777717 -124.450113 
L 465.294489 -124.918472 
L 461.811262 -122.281518 
L 458.328034 -126.425468 
L 454.844807 -110.04323 
L 451.361579 -101.90109 
L 447.878352 -110.587536 
L 444.395124 -109.893586 
L 440.911896 -128.228225 
L 437.428669 -104.585371 
L 433.945441 -121.897331 
L 430.462214 -127.056581 
L 426.978986 -142.239287 
L 423.495759 -134.279591 
L 420.012531 -118.371457 
L 416.529304 -126.113939 
L 413.046076 -118.161939 
L 409.562849 -119.799568 
L 406.079621 -129.951496 
L 402.596394 -115.544903 
L 399.113166 -115.574083 
L 395.629939 -107.27764 
L 392.146711 -110.105301 
L 388.663484 -99.224504 
L 385.180256 -95.910064 
L 381.697029 -93.006432 
L 378.213801 -72.599284 
L 374.730574 -79.456675 
L 371.247346 -82.045469 
L 367.764119 -82.410562 
L 364.280891 -91.989586 
L 360.797664 -89.567885 
L 357.314436 -77.171305 
L 353.831209 -75.238328 
L 350.347981 -79.217219 
L 346.864754 -78.604416 
L 343.381526 -81.538564 
L 339.898299 -75.237365 
L 336.415071 -65.623555 
L 332.931844 -68.812131 
L 329.448616 -71.395168 
L 325.965389 -76.198515 
L 322.482161 -74.604167 
L 318.998934 -79.258266 
L 315.515706 -78.042363 
L 312.032479 -87.900776 
L 308.549251 -91.407961 
L 305.066023 -84.820794 
L 301.582796 -94.044448 
L 298.099568 -81.960492 
L 294.616341 -102.481513 
L 291.133113 -101.161445 
L 287.649886 -98.962597 
L 284.166658 -92.927774 
L 280.683431 -102.317387 
L 277.200203 -92.717648 
L 273.716976 -99.596213 
L 270.233748 -118.242078 
L 266.750521 -120.296177 
L 263.267293 -105.518076 
L 259.784066 -128.791171 
L 256.300838 -104.010882 
L 252.817611 -91.418625 
L 249.334383 -101.461488 
L 245.851156 -106.926052 
L 242.367928 -118.825563 
L 238.884701 -110.130589 
L 235.401473 -108.199352 
L 231.918246 -114.556331 
L 228.435018 -105.225803 
L 224.951791 -97.189022 
L 221.468563 -109.147442 
L 217.985336 -115.112719 
L 214.502108 -103.756185 
L 211.018881 -100.445121 
L 207.535653 -94.455148 
L 204.052426 -77.998063 
L 200.569198 -85.823091 
L 197.085971 -87.416292 
L 193.602743 -100.291247 
L 190.119516 -86.132353 
L 186.636288 -91.660338 
L 183.153061 -91.671743 
L 179.669833 -92.27107 
L 176.186605 -104.805833 
L 172.703378 -91.601932 
L 169.22015 -93.384993 
L 165.736923 -105.528286 
L 162.253695 -100.880529 
L 158.770468 -101.982641 
L 155.28724 -99.508787 
L 151.804013 -97.050591 
L 148.320785 -90.532454 
L 144.837558 -92.593744 
L 141.35433 -90.965959 
L 137.871103 -94.683681 
L 134.387875 -96.120894 
L 130.904648 -104.284192 
L 127.42142 -94.730951 
L 123.938193 -95.465723 
L 120.454965 -79.781353 
L 116.971738 -84.01761 
L 113.48851 -89.879485 
L 110.005283 -80.741025 
L 106.522055 -95.118177 
L 103.038828 -77.268493 
L 99.5556 -85.776335 
L 96.072373 -84.721759 
L 92.589145 -79.169299 
L 89.105918 -73.286355 
L 85.62269 -73.236892 
L 82.139463 -87.766785 
L 78.656235 -73.045234 
L 75.173008 -81.168498 
L 71.68978 -76.599648 
L 68.206553 -83.783156 
L 64.723325 -78.103471 
L 61.240098 -88.137442 
L 57.75687 -99.66444 
L 54.273643 -84.329286 
L 50.790415 -124.682236 
L 47.307188 -182.230882 
z
" style="stroke: #d3d3d3; stroke-opacity: 0.5"/>
    </defs>
    <g clip-path="url(#p838838c4e7)">
     <use xlink:href="#mc9d00c0acd" x="0" y="424.5775" style="fill: #d3d3d3; fill-opacity: 0.5; stroke: #d3d3d3; stroke-opacity: 0.5"/>
    </g>
   </g>
   <g id="FillBetweenPolyCollection_2">
    <defs>
     <path id="m240e694c5e" d="M 47.307188 -138.638178 
L 47.307188 -51.452769 
L 50.790415 -49.060749 
L 54.273643 -55.178062 
L 57.75687 -58.096555 
L 61.240098 -58.013827 
L 64.723325 -54.863418 
L 68.206553 -54.883966 
L 71.68978 -56.10035 
L 75.173008 -53.217751 
L 78.656235 -54.958774 
L 82.139463 -56.13307 
L 85.62269 -55.651103 
L 89.105918 -54.339224 
L 92.589145 -54.547031 
L 96.072373 -53.863708 
L 99.5556 -56.137021 
L 103.038828 -55.200163 
L 106.522055 -54.714004 
L 110.005283 -55.619109 
L 113.48851 -54.102768 
L 116.971738 -54.450749 
L 120.454965 -56.146441 
L 123.938193 -54.033698 
L 127.42142 -55.375315 
L 130.904648 -59.006923 
L 134.387875 -53.311893 
L 137.871103 -54.238366 
L 141.35433 -56.712163 
L 144.837558 -55.388664 
L 148.320785 -53.620384 
L 151.804013 -54.805007 
L 155.28724 -54.346186 
L 158.770468 -53.1087 
L 162.253695 -55.288597 
L 165.736923 -53.717953 
L 169.22015 -52.895662 
L 172.703378 -56.565163 
L 176.186605 -58.869034 
L 179.669833 -55.501387 
L 183.153061 -53.85622 
L 186.636288 -57.581156 
L 190.119516 -57.933738 
L 193.602743 -56.64436 
L 197.085971 -60.912098 
L 200.569198 -54.755251 
L 204.052426 -57.782938 
L 207.535653 -60.064752 
L 211.018881 -58.996715 
L 214.502108 -53.972024 
L 217.985336 -50.32911 
L 221.468563 -50.628212 
L 224.951791 -54.847827 
L 228.435018 -60.383442 
L 231.918246 -55.933867 
L 235.401473 -55.825897 
L 238.884701 -58.380587 
L 242.367928 -53.834733 
L 245.851156 -58.49315 
L 249.334383 -55.257112 
L 252.817611 -54.589054 
L 256.300838 -53.877085 
L 259.784066 -48.331426 
L 263.267293 -52.775089 
L 266.750521 -51.219134 
L 270.233748 -50.869352 
L 273.716976 -52.960006 
L 277.200203 -52.628647 
L 280.683431 -51.625402 
L 284.166658 -53.46345 
L 287.649886 -52.5233 
L 291.133113 -54.248505 
L 294.616341 -53.353504 
L 298.099568 -54.442214 
L 301.582796 -52.306102 
L 305.066023 -57.484531 
L 308.549251 -53.849534 
L 312.032479 -53.311293 
L 315.515706 -54.859328 
L 318.998934 -53.711037 
L 322.482161 -55.417841 
L 325.965389 -55.970119 
L 329.448616 -55.264142 
L 332.931844 -55.296172 
L 336.415071 -55.26581 
L 339.898299 -54.765416 
L 343.381526 -54.393067 
L 346.864754 -54.80768 
L 350.347981 -55.060057 
L 353.831209 -54.619093 
L 357.314436 -53.623269 
L 360.797664 -55.224418 
L 364.280891 -53.94847 
L 367.764119 -54.2901 
L 371.247346 -55.161621 
L 374.730574 -55.01353 
L 378.213801 -56.255722 
L 381.697029 -52.848858 
L 385.180256 -58.717887 
L 388.663484 -59.405863 
L 392.146711 -57.492479 
L 395.629939 -60.840244 
L 399.113166 -57.737498 
L 402.596394 -52.582543 
L 406.079621 -50.609419 
L 409.562849 -51.670555 
L 413.046076 -54.815287 
L 416.529304 -60.213087 
L 420.012531 -54.442035 
L 423.495759 -62.393337 
L 426.978986 -49.67083 
L 430.462214 -55.350321 
L 433.945441 -53.857004 
L 437.428669 -56.393236 
L 440.911896 -52.952099 
L 444.395124 -51.24362 
L 447.878352 -62.370058 
L 451.361579 -54.672707 
L 454.844807 -55.782638 
L 458.328034 -50.650555 
L 461.811262 -49.620188 
L 465.294489 -54.312778 
L 468.777717 -55.36948 
L 472.260944 -55.135198 
L 475.744172 -56.294045 
L 479.227399 -57.430496 
L 482.710627 -56.461549 
L 486.193854 -55.638198 
L 489.677082 -57.628039 
L 493.160309 -59.692227 
L 496.643537 -54.724631 
L 500.126764 -54.783008 
L 503.609992 -55.987132 
L 507.093219 -54.48123 
L 510.576447 -55.605486 
L 514.059674 -56.582698 
L 517.542902 -55.650172 
L 521.026129 -55.885899 
L 524.509357 -54.748424 
L 527.992584 -54.258935 
L 531.475812 -55.27226 
L 534.959039 -55.167257 
L 538.442267 -55.264666 
L 541.925494 -58.663796 
L 545.408722 -55.094266 
L 548.891949 -52.183736 
L 552.375177 -52.953804 
L 555.858404 -54.907885 
L 559.341632 -54.871627 
L 562.824859 -55.749673 
L 566.308087 -54.428625 
L 569.791314 -53.792901 
L 573.274542 -55.825003 
L 576.75777 -55.334813 
L 580.240997 -53.595273 
L 583.724225 -56.427355 
L 587.207452 -55.993142 
L 590.69068 -60.379781 
L 594.173907 -56.745997 
L 597.657135 -54.411069 
L 601.140362 -62.459643 
L 604.62359 -60.770967 
L 608.106817 -56.283286 
L 611.590045 -55.550937 
L 615.073272 -55.956501 
L 618.5565 -53.665775 
L 622.039727 -52.661459 
L 625.522955 -54.428536 
L 629.006182 -53.693548 
L 632.48941 -57.339028 
L 635.972637 -53.07968 
L 639.455865 -52.503081 
L 642.939092 -53.257401 
L 646.42232 -60.19048 
L 649.905547 -59.156566 
L 653.388775 -55.849835 
L 656.872002 -59.949927 
L 660.35523 -57.29094 
L 663.838457 -54.601236 
L 667.321685 -53.75173 
L 670.804912 -53.958576 
L 674.28814 -54.035161 
L 677.771367 -54.665452 
L 681.254595 -54.421787 
L 684.737822 -55.345044 
L 688.22105 -54.3994 
L 691.704277 -73.559433 
L 695.187505 -74.156864 
L 698.670732 -73.768609 
L 702.15396 -81.732252 
L 705.637188 -90.846743 
L 705.637188 -105.568336 
L 705.637188 -105.568336 
L 702.15396 -104.828118 
L 698.670732 -80.125533 
L 695.187505 -94.772907 
L 691.704277 -80.958307 
L 688.22105 -75.654976 
L 684.737822 -81.688869 
L 681.254595 -80.39191 
L 677.771367 -79.423695 
L 674.28814 -75.236564 
L 670.804912 -76.331245 
L 667.321685 -75.46598 
L 663.838457 -83.829997 
L 660.35523 -74.616734 
L 656.872002 -79.855531 
L 653.388775 -73.594739 
L 649.905547 -90.892058 
L 646.42232 -109.938431 
L 642.939092 -88.707552 
L 639.455865 -89.256986 
L 635.972637 -77.70671 
L 632.48941 -80.359087 
L 629.006182 -81.088485 
L 625.522955 -81.724741 
L 622.039727 -89.08408 
L 618.5565 -101.73856 
L 615.073272 -89.426689 
L 611.590045 -79.619261 
L 608.106817 -75.045864 
L 604.62359 -97.064058 
L 601.140362 -99.102438 
L 597.657135 -84.162094 
L 594.173907 -84.410589 
L 590.69068 -85.150555 
L 587.207452 -73.049484 
L 583.724225 -63.931844 
L 580.240997 -73.588108 
L 576.75777 -69.572475 
L 573.274542 -78.656779 
L 569.791314 -77.239724 
L 566.308087 -70.710743 
L 562.824859 -71.08056 
L 559.341632 -65.844817 
L 555.858404 -64.187355 
L 552.375177 -71.203976 
L 548.891949 -73.101659 
L 545.408722 -65.114062 
L 541.925494 -69.452001 
L 538.442267 -64.920566 
L 534.959039 -67.601024 
L 531.475812 -62.603352 
L 527.992584 -73.608393 
L 524.509357 -66.326012 
L 521.026129 -67.800643 
L 517.542902 -64.812214 
L 514.059674 -60.157474 
L 510.576447 -63.517321 
L 507.093219 -69.388964 
L 503.609992 -79.487787 
L 500.126764 -73.797322 
L 496.643537 -74.872304 
L 493.160309 -79.496711 
L 489.677082 -71.51852 
L 486.193854 -70.144138 
L 482.710627 -68.169702 
L 479.227399 -76.940276 
L 475.744172 -85.832581 
L 472.260944 -91.993992 
L 468.777717 -101.423236 
L 465.294489 -101.383241 
L 461.811262 -98.061075 
L 458.328034 -101.167164 
L 454.844807 -91.956366 
L 451.361579 -86.158296 
L 447.878352 -94.515043 
L 444.395124 -90.343598 
L 440.911896 -103.136183 
L 437.428669 -88.521326 
L 433.945441 -99.217222 
L 430.462214 -103.154494 
L 426.978986 -111.383135 
L 423.495759 -110.317506 
L 420.012531 -97.06165 
L 416.529304 -104.146989 
L 413.046076 -97.046389 
L 409.562849 -97.089897 
L 406.079621 -103.504137 
L 402.596394 -94.557449 
L 399.113166 -96.295221 
L 395.629939 -91.798508 
L 392.146711 -92.567693 
L 388.663484 -85.951624 
L 385.180256 -83.512672 
L 381.697029 -79.620574 
L 378.213801 -67.15143 
L 374.730574 -71.30896 
L 371.247346 -73.084186 
L 367.764119 -73.037074 
L 364.280891 -79.309214 
L 360.797664 -78.120062 
L 357.314436 -69.321959 
L 353.831209 -68.365249 
L 350.347981 -71.164832 
L 346.864754 -70.672171 
L 343.381526 -72.490065 
L 339.898299 -68.413382 
L 336.415071 -62.170973 
L 332.931844 -64.306812 
L 329.448616 -66.018159 
L 325.965389 -69.455716 
L 322.482161 -68.208725 
L 318.998934 -70.742523 
L 315.515706 -70.314684 
L 312.032479 -76.370949 
L 308.549251 -78.888485 
L 305.066023 -75.708706 
L 301.582796 -80.131666 
L 298.099568 -72.787733 
L 294.616341 -86.10551 
L 291.133113 -85.523798 
L 287.649886 -83.482832 
L 284.166658 -79.773 
L 280.683431 -85.420059 
L 277.200203 -79.354648 
L 273.716976 -84.050811 
L 270.233748 -95.784503 
L 266.750521 -97.270496 
L 263.267293 -87.937081 
L 259.784066 -101.971256 
L 256.300838 -87.299616 
L 252.817611 -79.142101 
L 249.334383 -86.060029 
L 245.851156 -90.781751 
L 242.367928 -97.161953 
L 238.884701 -92.880588 
L 235.401473 -90.741533 
L 231.918246 -95.015509 
L 228.435018 -90.278349 
L 224.951791 -83.07529 
L 221.468563 -89.641032 
L 217.985336 -93.518183 
L 214.502108 -87.161465 
L 211.018881 -86.628986 
L 207.535653 -82.991683 
L 204.052426 -71.259688 
L 200.569198 -75.467144 
L 197.085971 -78.581561 
L 193.602743 -85.742285 
L 190.119516 -76.732814 
L 186.636288 -80.300611 
L 183.153061 -79.066569 
L 179.669833 -80.014509 
L 176.186605 -89.493567 
L 172.703378 -79.923009 
L 169.22015 -79.888549 
L 165.736923 -88.258175 
L 162.253695 -85.683219 
L 158.770468 -85.691328 
L 155.28724 -84.454587 
L 151.804013 -82.968729 
L 148.320785 -78.228431 
L 144.837558 -80.19205 
L 141.35433 -79.548027 
L 137.871103 -81.201909 
L 134.387875 -81.851227 
L 130.904648 -89.191769 
L 127.42142 -81.612405 
L 123.938193 -81.655048 
L 120.454965 -71.903049 
L 116.971738 -74.16199 
L 113.48851 -77.953913 
L 110.005283 -72.367053 
L 106.522055 -81.650119 
L 103.038828 -69.912383 
L 99.5556 -75.896564 
L 96.072373 -74.435742 
L 92.589145 -70.961876 
L 89.105918 -66.970644 
L 85.62269 -67.374962 
L 82.139463 -77.222213 
L 78.656235 -67.016414 
L 75.173008 -71.851583 
L 71.68978 -69.766548 
L 68.206553 -74.150092 
L 64.723325 -70.356786 
L 61.240098 -78.096237 
L 57.75687 -85.808478 
L 54.273643 -74.612211 
L 50.790415 -99.475073 
L 47.307188 -138.638178 
z
" style="stroke: #808080; stroke-opacity: 0.7"/>
    </defs>
    <g clip-path="url(#p838838c4e7)">
     <use xlink:href="#m240e694c5e" x="0" y="424.5775" style="fill: #808080; fill-opacity: 0.7; stroke: #808080; stroke-opacity: 0.7"/>
    </g>
   </g>
   <g id="line2d_31">
    <path d="M 47.307188 367.642954 
L 50.790415 367.083552 
L 54.273643 367.633277 
L 61.240098 367.741449 
L 64.723325 367.741449 
L 68.206553 367.146897 
L 71.68978 366.355411 
L 75.173008 367.547484 
L 78.656235 367.741449 
L 82.139463 366.585894 
L 85.62269 367.702763 
L 92.589145 367.741449 
L 96.072373 367.325266 
L 99.5556 367.741449 
L 110.005283 367.741449 
L 113.48851 366.83025 
L 116.971738 367.457854 
L 120.454965 367.741449 
L 123.938193 367.741449 
L 127.42142 366.98002 
L 130.904648 367.468507 
L 134.387875 367.741449 
L 141.35433 367.741449 
L 144.837558 366.554109 
L 148.320785 367.741449 
L 158.770468 367.69657 
L 162.253695 366.920233 
L 165.736923 367.741449 
L 183.153061 367.741449 
L 186.636288 364.733576 
L 190.119516 367.741449 
L 197.085971 354.494591 
L 200.569198 361.822177 
L 204.052426 364.682194 
L 207.535653 357.22418 
L 211.018881 365.718396 
L 214.502108 367.741449 
L 221.468563 367.741449 
L 224.951791 360.801194 
L 228.435018 358.788919 
L 231.918246 358.45671 
L 235.401473 363.494172 
L 238.884701 360.380242 
L 242.367928 364.541072 
L 245.851156 358.643863 
L 249.334383 361.410536 
L 252.817611 367.503392 
L 256.300838 367.547624 
L 259.784066 366.902396 
L 263.267293 367.741449 
L 266.750521 366.083058 
L 270.233748 367.741449 
L 273.716976 366.345835 
L 277.200203 367.741449 
L 284.166658 366.516014 
L 287.649886 366.630993 
L 291.133113 367.466269 
L 294.616341 367.741449 
L 305.066023 367.741449 
L 308.549251 366.995915 
L 312.032479 367.695951 
L 315.515706 367.546374 
L 318.998934 367.014715 
L 322.482161 367.080714 
L 325.965389 366.737186 
L 329.448616 367.741449 
L 332.931844 367.741449 
L 336.415071 367.545486 
L 339.898299 367.741449 
L 343.381526 367.741449 
L 346.864754 366.792441 
L 350.347981 367.741449 
L 353.831209 367.741449 
L 357.314436 367.057601 
L 360.797664 366.19094 
L 364.280891 367.587853 
L 367.764119 366.815732 
L 371.247346 367.741449 
L 374.730574 367.66883 
L 381.697029 367.741449 
L 385.180256 367.564677 
L 388.663484 357.349774 
L 392.146711 361.394412 
L 395.629939 359.181625 
L 399.113166 352.031691 
L 402.596394 367.680094 
L 406.079621 366.029226 
L 409.562849 367.741449 
L 413.046076 365.693269 
L 416.529304 356.819675 
L 420.012531 359.405742 
L 423.495759 334.951369 
L 426.978986 367.741449 
L 430.462214 367.741449 
L 433.945441 366.826516 
L 437.428669 363.711859 
L 440.911896 365.503252 
L 444.395124 366.398295 
L 447.878352 347.856338 
L 451.361579 362.861333 
L 454.844807 360.685602 
L 458.328034 361.712042 
L 461.811262 366.37203 
L 465.294489 361.212257 
L 468.777717 353.19089 
L 472.260944 361.413979 
L 475.744172 342.29986 
L 479.227399 358.460093 
L 482.710627 365.113532 
L 486.193854 363.88797 
L 489.677082 364.254275 
L 493.160309 355.245376 
L 496.643537 365.80255 
L 500.126764 365.696999 
L 507.093219 367.741449 
L 510.576447 366.904212 
L 517.542902 367.741449 
L 521.026129 367.130649 
L 524.509357 367.721949 
L 527.992584 366.87807 
L 531.475812 367.368049 
L 534.959039 366.949702 
L 538.442267 367.741449 
L 541.925494 366.484912 
L 545.408722 367.741449 
L 559.341632 367.724493 
L 562.824859 366.970827 
L 566.308087 367.741449 
L 576.75777 367.741449 
L 580.240997 366.777935 
L 583.724225 367.693227 
L 587.207452 367.741449 
L 590.69068 356.01136 
L 594.173907 356.889356 
L 597.657135 364.383473 
L 601.140362 346.348032 
L 604.62359 331.778133 
L 608.106817 359.389609 
L 611.590045 365.945676 
L 615.073272 367.057992 
L 618.5565 363.946967 
L 622.039727 364.746238 
L 625.522955 364.897229 
L 629.006182 364.003683 
L 632.48941 367.741449 
L 635.972637 366.329717 
L 639.455865 366.367826 
L 642.939092 367.501193 
L 646.42232 365.552141 
L 649.905547 366.907328 
L 653.388775 366.457813 
L 656.872002 360.793147 
L 660.35523 357.599754 
L 663.838457 367.138362 
L 667.321685 367.598203 
L 670.804912 366.603365 
L 674.28814 366.559325 
L 677.771367 363.608355 
L 681.254595 366.494577 
L 684.737822 364.631165 
L 688.22105 366.909771 
L 691.704277 366.780016 
L 698.670732 367.103551 
L 702.15396 367.120394 
L 705.637188 366.766517 
L 705.637188 366.766517 
" clip-path="url(#p838838c4e7)" style="fill: none; stroke: #ff8c00; stroke-width: 2.3; stroke-linecap: square"/>
   </g>
   <g id="line2d_32">
    <path d="M 277.200203 384.117812 
L 277.200203 23.837812 
" clip-path="url(#p838838c4e7)" style="fill: none; stroke-dasharray: 5.55,2.4; stroke-dashoffset: 0; stroke: #808080; stroke-width: 1.5"/>
   </g>
   <g id="line2d_33">
    <path d="M 475.744172 384.117812 
L 475.744172 23.837812 
" clip-path="url(#p838838c4e7)" style="fill: none; stroke-dasharray: 5.55,2.4; stroke-dashoffset: 0; stroke: #808080; stroke-width: 1.5"/>
   </g>
   <g id="patch_3">
    <path d="M 47.307188 384.117812 
L 47.307188 23.837812 
" style="fill: none; stroke: #000000; stroke-width: 0.8; stroke-linejoin: miter; stroke-linecap: square"/>
   </g>
   <g id="patch_4">
    <path d="M 705.637188 384.117812 
L 705.637188 23.837812 
" style="fill: none; stroke: #000000; stroke-width: 0.8; stroke-linejoin: miter; stroke-linecap: square"/>
   </g>
   <g id="patch_5">
    <path d="M 47.307188 384.117812 
L 705.637188 384.117812 
" style="fill: none; stroke: #000000; stroke-width: 0.8; stroke-linejoin: miter; stroke-linecap: square"/>
   </g>
   <g id="patch_6">
    <path d="M 47.307188 23.837812 
L 705.637188 23.837812 
" style="fill: none; stroke: #000000; stroke-width: 0.8; stroke-linejoin: miter; stroke-linecap: square"/>
   </g>
   <g id="text_18">
    <!-- Facial trace: Social anxiety disorder (SAD) (male) -->
    <g transform="translate(204.489844 17.837812) scale(0.14 -0.14)">
     <defs>
      <path id="DejaVuSans-46" d="M 628 4666 
L 3309 4666 
L 3309 4134 
L 1259 4134 
L 1259 2759 
L 3109 2759 
L 3109 2228 
L 1259 2228 
L 1259 0 
L 628 0 
L 628 4666 
z
" transform="scale(0.015625)"/>
      <path id="DejaVuSans-63" d="M 3122 3366 
L 3122 2828 
Q 2878 2963 2633 3030 
Q 2388 3097 2138 3097 
Q 1578 3097 1268 2742 
Q 959 2388 959 1747 
Q 959 1106 1268 751 
Q 1578 397 2138 397 
Q 2388 397 2633 464 
Q 2878 531 3122 666 
L 3122 134 
Q 2881 22 2623 -34 
Q 2366 -91 2075 -91 
Q 1284 -91 818 406 
Q 353 903 353 1747 
Q 353 2603 823 3093 
Q 1294 3584 2113 3584 
Q 2378 3584 2631 3529 
Q 2884 3475 3122 3366 
z
" transform="scale(0.015625)"/>
      <path id="DejaVuSans-6c" d="M 603 4863 
L 1178 4863 
L 1178 0 
L 603 0 
L 603 4863 
z
" transform="scale(0.015625)"/>
      <path id="DejaVuSans-72" d="M 2631 2963 
Q 2534 3019 2420 3045 
Q 2306 3072 2169 3072 
Q 1681 3072 1420 2755 
Q 1159 2438 1159 1844 
L 1159 0 
L 581 0 
L 581 3500 
L 1159 3500 
L 1159 2956 
Q 1341 3275 1631 3429 
Q 1922 3584 2338 3584 
Q 2397 3584 2469 3576 
Q 2541 3569 2628 3553 
L 2631 2963 
z
" transform="scale(0.015625)"/>
      <path id="DejaVuSans-3a" d="M 750 794 
L 1409 794 
L 1409 0 
L 750 0 
L 750 794 
z
M 750 3309 
L 1409 3309 
L 1409 2516 
L 750 2516 
L 750 3309 
z
" transform="scale(0.015625)"/>
      <path id="DejaVuSans-53" d="M 3425 4513 
L 3425 3897 
Q 3066 4069 2747 4153 
Q 2428 4238 2131 4238 
Q 1616 4238 1336 4038 
Q 1056 3838 1056 3469 
Q 1056 3159 1242 3001 
Q 1428 2844 1947 2747 
L 2328 2669 
Q 3034 2534 3370 2195 
Q 3706 1856 3706 1288 
Q 3706 609 3251 259 
Q 2797 -91 1919 -91 
Q 1588 -91 1214 -16 
Q 841 59 441 206 
L 441 856 
Q 825 641 1194 531 
Q 1563 422 1919 422 
Q 2459 422 2753 634 
Q 3047 847 3047 1241 
Q 3047 1584 2836 1778 
Q 2625 1972 2144 2069 
L 1759 2144 
Q 1053 2284 737 2584 
Q 422 2884 422 3419 
Q 422 4038 858 4394 
Q 1294 4750 2059 4750 
Q 2388 4750 2728 4690 
Q 3069 4631 3425 4513 
z
" transform="scale(0.015625)"/>
      <path id="DejaVuSans-6f" d="M 1959 3097 
Q 1497 3097 1228 2736 
Q 959 2375 959 1747 
Q 959 1119 1226 758 
Q 1494 397 1959 397 
Q 2419 397 2687 759 
Q 2956 1122 2956 1747 
Q 2956 2369 2687 2733 
Q 2419 3097 1959 3097 
z
M 1959 3584 
Q 2709 3584 3137 3096 
Q 3566 2609 3566 1747 
Q 3566 888 3137 398 
Q 2709 -91 1959 -91 
Q 1206 -91 779 398 
Q 353 888 353 1747 
Q 353 2609 779 3096 
Q 1206 3584 1959 3584 
z
" transform="scale(0.015625)"/>
      <path id="DejaVuSans-78" d="M 3513 3500 
L 2247 1797 
L 3578 0 
L 2900 0 
L 1881 1375 
L 863 0 
L 184 0 
L 1544 1831 
L 300 3500 
L 978 3500 
L 1906 2253 
L 2834 3500 
L 3513 3500 
z
" transform="scale(0.015625)"/>
      <path id="DejaVuSans-64" d="M 2906 2969 
L 2906 4863 
L 3481 4863 
L 3481 0 
L 2906 0 
L 2906 525 
Q 2725 213 2448 61 
Q 2172 -91 1784 -91 
Q 1150 -91 751 415 
Q 353 922 353 1747 
Q 353 2572 751 3078 
Q 1150 3584 1784 3584 
Q 2172 3584 2448 3432 
Q 2725 3281 2906 2969 
z
M 947 1747 
Q 947 1113 1208 752 
Q 1469 391 1925 391 
Q 2381 391 2643 752 
Q 2906 1113 2906 1747 
Q 2906 2381 2643 2742 
Q 2381 3103 1925 3103 
Q 1469 3103 1208 2742 
Q 947 2381 947 1747 
z
" transform="scale(0.015625)"/>
      <path id="DejaVuSans-44" d="M 1259 4147 
L 1259 519 
L 2022 519 
Q 2988 519 3436 956 
Q 3884 1394 3884 2338 
Q 3884 3275 3436 3711 
Q 2988 4147 2022 4147 
L 1259 4147 
z
M 628 4666 
L 1925 4666 
Q 3281 4666 3915 4102 
Q 4550 3538 4550 2338 
Q 4550 1131 3912 565 
Q 3275 0 1925 0 
L 628 0 
L 628 4666 
z
" transform="scale(0.015625)"/>
     </defs>
     <use xlink:href="#DejaVuSans-46"/>
     <use xlink:href="#DejaVuSans-61" transform="translate(48.394531 0)"/>
     <use xlink:href="#DejaVuSans-63" transform="translate(109.673828 0)"/>
     <use xlink:href="#DejaVuSans-69" transform="translate(164.654297 0)"/>
     <use xlink:href="#DejaVuSans-61" transform="translate(192.4375 0)"/>
     <use xlink:href="#DejaVuSans-6c" transform="translate(253.716797 0)"/>
     <use xlink:href="#DejaVuSans-20" transform="translate(281.5 0)"/>
     <use xlink:href="#DejaVuSans-74" transform="translate(313.287109 0)"/>
     <use xlink:href="#DejaVuSans-72" transform="translate(352.496094 0)"/>
     <use xlink:href="#DejaVuSans-61" transform="translate(393.609375 0)"/>
     <use xlink:href="#DejaVuSans-63" transform="translate(454.888672 0)"/>
     <use xlink:href="#DejaVuSans-65" transform="translate(509.869141 0)"/>
     <use xlink:href="#DejaVuSans-3a" transform="translate(571.392578 0)"/>
     <use xlink:href="#DejaVuSans-20" transform="translate(605.083984 0)"/>
     <use xlink:href="#DejaVuSans-53" transform="translate(636.871094 0)"/>
     <use xlink:href="#DejaVuSans-6f" transform="translate(700.347656 0)"/>
     <use xlink:href="#DejaVuSans-63" transform="translate(761.529297 0)"/>
     <use xlink:href="#DejaVuSans-69" transform="translate(816.509766 0)"/>
     <use xlink:href="#DejaVuSans-61" transform="translate(844.292969 0)"/>
     <use xlink:href="#DejaVuSans-6c" transform="translate(905.572266 0)"/>
     <use xlink:href="#DejaVuSans-20" transform="translate(933.355469 0)"/>
     <use xlink:href="#DejaVuSans-61" transform="translate(965.142578 0)"/>
     <use xlink:href="#DejaVuSans-6e" transform="translate(1026.421875 0)"/>
     <use xlink:href="#DejaVuSans-78" transform="translate(1089.800781 0)"/>
     <use xlink:href="#DejaVuSans-69" transform="translate(1148.980469 0)"/>
     <use xlink:href="#DejaVuSans-65" transform="translate(1176.763672 0)"/>
     <use xlink:href="#DejaVuSans-74" transform="translate(1238.287109 0)"/>
     <use xlink:href="#DejaVuSans-79" transform="translate(1277.496094 0)"/>
     <use xlink:href="#DejaVuSans-20" transform="translate(1336.675781 0)"/>
     <use xlink:href="#DejaVuSans-64" transform="translate(1368.462891 0)"/>
     <use xlink:href="#DejaVuSans-69" transform="translate(1431.939453 0)"/>
     <use xlink:href="#DejaVuSans-73" transform="translate(1459.722656 0)"/>
     <use xlink:href="#DejaVuSans-6f" transform="translate(1511.822266 0)"/>
     <use xlink:href="#DejaVuSans-72" transform="translate(1573.003906 0)"/>
     <use xlink:href="#DejaVuSans-64" transform="translate(1612.367188 0)"/>
     <use xlink:href="#DejaVuSans-65" transform="translate(1675.84375 0)"/>
     <use xlink:href="#DejaVuSans-72" transform="translate(1737.367188 0)"/>
     <use xlink:href="#DejaVuSans-20" transform="translate(1778.480469 0)"/>
     <use xlink:href="#DejaVuSans-28" transform="translate(1810.267578 0)"/>
     <use xlink:href="#DejaVuSans-53" transform="translate(1849.28125 0)"/>
     <use xlink:href="#DejaVuSans-41" transform="translate(1914.632812 0)"/>
     <use xlink:href="#DejaVuSans-44" transform="translate(1983.041016 0)"/>
     <use xlink:href="#DejaVuSans-29" transform="translate(2060.042969 0)"/>
     <use xlink:href="#DejaVuSans-20" transform="translate(2099.056641 0)"/>
     <use xlink:href="#DejaVuSans-28" transform="translate(2130.84375 0)"/>
     <use xlink:href="#DejaVuSans-6d" transform="translate(2169.857422 0)"/>
     <use xlink:href="#DejaVuSans-61" transform="translate(2267.269531 0)"/>
     <use xlink:href="#DejaVuSans-6c" transform="translate(2328.548828 0)"/>
     <use xlink:href="#DejaVuSans-65" transform="translate(2356.332031 0)"/>
     <use xlink:href="#DejaVuSans-29" transform="translate(2417.855469 0)"/>
    </g>
   </g>
   <g id="legend_1">
    <g id="patch_7">
     <path d="M 446.991094 42.096094 
L 468.991094 42.096094 
L 468.991094 34.396094 
L 446.991094 34.396094 
z
" style="fill: #d3d3d3; fill-opacity: 0.5; stroke: #d3d3d3; stroke-opacity: 0.5; stroke-linejoin: miter"/>
    </g>
    <g id="text_19">
     <!-- Social anxiety disorder (SAD) ±2 SD -->
     <g transform="translate(477.791094 42.096094) scale(0.11 -0.11)">
      <defs>
       <path id="DejaVuSans-b1" d="M 2944 4013 
L 2944 2803 
L 4684 2803 
L 4684 2272 
L 2944 2272 
L 2944 1063 
L 2419 1063 
L 2419 2272 
L 678 2272 
L 678 2803 
L 2419 2803 
L 2419 4013 
L 2944 4013 
z
M 678 531 
L 4684 531 
L 4684 0 
L 678 0 
L 678 531 
z
" transform="scale(0.015625)"/>
      </defs>
      <use xlink:href="#DejaVuSans-53"/>
      <use xlink:href="#DejaVuSans-6f" transform="translate(63.476562 0)"/>
      <use xlink:href="#DejaVuSans-63" transform="translate(124.658203 0)"/>
      <use xlink:href="#DejaVuSans-69" transform="translate(179.638672 0)"/>
      <use xlink:href="#DejaVuSans-61" transform="translate(207.421875 0)"/>
      <use xlink:href="#DejaVuSans-6c" transform="translate(268.701172 0)"/>
      <use xlink:href="#DejaVuSans-20" transform="translate(296.484375 0)"/>
      <use xlink:href="#DejaVuSans-61" transform="translate(328.271484 0)"/>
      <use xlink:href="#DejaVuSans-6e" transform="translate(389.550781 0)"/>
      <use xlink:href="#DejaVuSans-78" transform="translate(452.929688 0)"/>
      <use xlink:href="#DejaVuSans-69" transform="translate(512.109375 0)"/>
      <use xlink:href="#DejaVuSans-65" transform="translate(539.892578 0)"/>
      <use xlink:href="#DejaVuSans-74" transform="translate(601.416016 0)"/>
      <use xlink:href="#DejaVuSans-79" transform="translate(640.625 0)"/>
      <use xlink:href="#DejaVuSans-20" transform="translate(699.804688 0)"/>
      <use xlink:href="#DejaVuSans-64" transform="translate(731.591797 0)"/>
      <use xlink:href="#DejaVuSans-69" transform="translate(795.068359 0)"/>
      <use xlink:href="#DejaVuSans-73" transform="translate(822.851562 0)"/>
      <use xlink:href="#DejaVuSans-6f" transform="translate(874.951172 0)"/>
      <use xlink:href="#DejaVuSans-72" transform="translate(936.132812 0)"/>
      <use xlink:href="#DejaVuSans-64" transform="translate(975.496094 0)"/>
      <use xlink:href="#DejaVuSans-65" transform="translate(1038.972656 0)"/>
      <use xlink:href="#DejaVuSans-72" transform="translate(1100.496094 0)"/>
      <use xlink:href="#DejaVuSans-20" transform="translate(1141.609375 0)"/>
      <use xlink:href="#DejaVuSans-28" transform="translate(1173.396484 0)"/>
      <use xlink:href="#DejaVuSans-53" transform="translate(1212.410156 0)"/>
      <use xlink:href="#DejaVuSans-41" transform="translate(1277.761719 0)"/>
      <use xlink:href="#DejaVuSans-44" transform="translate(1346.169922 0)"/>
      <use xlink:href="#DejaVuSans-29" transform="translate(1423.171875 0)"/>
      <use xlink:href="#DejaVuSans-20" transform="translate(1462.185547 0)"/>
      <use xlink:href="#DejaVuSans-b1" transform="translate(1493.972656 0)"/>
      <use xlink:href="#DejaVuSans-32" transform="translate(1577.761719 0)"/>
      <use xlink:href="#DejaVuSans-20" transform="translate(1641.384766 0)"/>
      <use xlink:href="#DejaVuSans-53" transform="translate(1673.171875 0)"/>
      <use xlink:href="#DejaVuSans-44" transform="translate(1736.648438 0)"/>
     </g>
    </g>
    <g id="patch_8">
     <path d="M 446.991094 58.242031 
L 468.991094 58.242031 
L 468.991094 50.542031 
L 446.991094 50.542031 
z
" style="fill: #808080; fill-opacity: 0.7; stroke: #808080; stroke-opacity: 0.7; stroke-linejoin: miter"/>
    </g>
    <g id="text_20">
     <!-- Social anxiety disorder (SAD) ±1 SD -->
     <g transform="translate(477.791094 58.242031) scale(0.11 -0.11)">
      <use xlink:href="#DejaVuSans-53"/>
      <use xlink:href="#DejaVuSans-6f" transform="translate(63.476562 0)"/>
      <use xlink:href="#DejaVuSans-63" transform="translate(124.658203 0)"/>
      <use xlink:href="#DejaVuSans-69" transform="translate(179.638672 0)"/>
      <use xlink:href="#DejaVuSans-61" transform="translate(207.421875 0)"/>
      <use xlink:href="#DejaVuSans-6c" transform="translate(268.701172 0)"/>
      <use xlink:href="#DejaVuSans-20" transform="translate(296.484375 0)"/>
      <use xlink:href="#DejaVuSans-61" transform="translate(328.271484 0)"/>
      <use xlink:href="#DejaVuSans-6e" transform="translate(389.550781 0)"/>
      <use xlink:href="#DejaVuSans-78" transform="translate(452.929688 0)"/>
      <use xlink:href="#DejaVuSans-69" transform="translate(512.109375 0)"/>
      <use xlink:href="#DejaVuSans-65" transform="translate(539.892578 0)"/>
      <use xlink:href="#DejaVuSans-74" transform="translate(601.416016 0)"/>
      <use xlink:href="#DejaVuSans-79" transform="translate(640.625 0)"/>
      <use xlink:href="#DejaVuSans-20" transform="translate(699.804688 0)"/>
      <use xlink:href="#DejaVuSans-64" transform="translate(731.591797 0)"/>
      <use xlink:href="#DejaVuSans-69" transform="translate(795.068359 0)"/>
      <use xlink:href="#DejaVuSans-73" transform="translate(822.851562 0)"/>
      <use xlink:href="#DejaVuSans-6f" transform="translate(874.951172 0)"/>
      <use xlink:href="#DejaVuSans-72" transform="translate(936.132812 0)"/>
      <use xlink:href="#DejaVuSans-64" transform="translate(975.496094 0)"/>
      <use xlink:href="#DejaVuSans-65" transform="translate(1038.972656 0)"/>
      <use xlink:href="#DejaVuSans-72" transform="translate(1100.496094 0)"/>
      <use xlink:href="#DejaVuSans-20" transform="translate(1141.609375 0)"/>
      <use xlink:href="#DejaVuSans-28" transform="translate(1173.396484 0)"/>
      <use xlink:href="#DejaVuSans-53" transform="translate(1212.410156 0)"/>
      <use xlink:href="#DejaVuSans-41" transform="translate(1277.761719 0)"/>
      <use xlink:href="#DejaVuSans-44" transform="translate(1346.169922 0)"/>
      <use xlink:href="#DejaVuSans-29" transform="translate(1423.171875 0)"/>
      <use xlink:href="#DejaVuSans-20" transform="translate(1462.185547 0)"/>
      <use xlink:href="#DejaVuSans-b1" transform="translate(1493.972656 0)"/>
      <use xlink:href="#DejaVuSans-31" transform="translate(1577.761719 0)"/>
      <use xlink:href="#DejaVuSans-20" transform="translate(1641.384766 0)"/>
      <use xlink:href="#DejaVuSans-53" transform="translate(1673.171875 0)"/>
      <use xlink:href="#DejaVuSans-44" transform="translate(1736.648438 0)"/>
     </g>
    </g>
    <g id="line2d_34">
     <path d="M 446.991094 70.537969 
L 457.991094 70.537969 
L 468.991094 70.537969 
" style="fill: none; stroke: #ff8c00; stroke-width: 2.3; stroke-linecap: square"/>
    </g>
    <g id="text_21">
     <!-- Social anxiety disorder (SAD) prototype -->
     <g transform="translate(477.791094 74.387969) scale(0.11 -0.11)">
      <defs>
       <path id="DejaVuSans-70" d="M 1159 525 
L 1159 -1331 
L 581 -1331 
L 581 3500 
L 1159 3500 
L 1159 2969 
Q 1341 3281 1617 3432 
Q 1894 3584 2278 3584 
Q 2916 3584 3314 3078 
Q 3713 2572 3713 1747 
Q 3713 922 3314 415 
Q 2916 -91 2278 -91 
Q 1894 -91 1617 61 
Q 1341 213 1159 525 
z
M 3116 1747 
Q 3116 2381 2855 2742 
Q 2594 3103 2138 3103 
Q 1681 3103 1420 2742 
Q 1159 2381 1159 1747 
Q 1159 1113 1420 752 
Q 1681 391 2138 391 
Q 2594 391 2855 752 
Q 3116 1113 3116 1747 
z
" transform="scale(0.015625)"/>
      </defs>
      <use xlink:href="#DejaVuSans-53"/>
      <use xlink:href="#DejaVuSans-6f" transform="translate(63.476562 0)"/>
      <use xlink:href="#DejaVuSans-63" transform="translate(124.658203 0)"/>
      <use xlink:href="#DejaVuSans-69" transform="translate(179.638672 0)"/>
      <use xlink:href="#DejaVuSans-61" transform="translate(207.421875 0)"/>
      <use xlink:href="#DejaVuSans-6c" transform="translate(268.701172 0)"/>
      <use xlink:href="#DejaVuSans-20" transform="translate(296.484375 0)"/>
      <use xlink:href="#DejaVuSans-61" transform="translate(328.271484 0)"/>
      <use xlink:href="#DejaVuSans-6e" transform="translate(389.550781 0)"/>
      <use xlink:href="#DejaVuSans-78" transform="translate(452.929688 0)"/>
      <use xlink:href="#DejaVuSans-69" transform="translate(512.109375 0)"/>
      <use xlink:href="#DejaVuSans-65" transform="translate(539.892578 0)"/>
      <use xlink:href="#DejaVuSans-74" transform="translate(601.416016 0)"/>
      <use xlink:href="#DejaVuSans-79" transform="translate(640.625 0)"/>
      <use xlink:href="#DejaVuSans-20" transform="translate(699.804688 0)"/>
      <use xlink:href="#DejaVuSans-64" transform="translate(731.591797 0)"/>
      <use xlink:href="#DejaVuSans-69" transform="translate(795.068359 0)"/>
      <use xlink:href="#DejaVuSans-73" transform="translate(822.851562 0)"/>
      <use xlink:href="#DejaVuSans-6f" transform="translate(874.951172 0)"/>
      <use xlink:href="#DejaVuSans-72" transform="translate(936.132812 0)"/>
      <use xlink:href="#DejaVuSans-64" transform="translate(975.496094 0)"/>
      <use xlink:href="#DejaVuSans-65" transform="translate(1038.972656 0)"/>
      <use xlink:href="#DejaVuSans-72" transform="translate(1100.496094 0)"/>
      <use xlink:href="#DejaVuSans-20" transform="translate(1141.609375 0)"/>
      <use xlink:href="#DejaVuSans-28" transform="translate(1173.396484 0)"/>
      <use xlink:href="#DejaVuSans-53" transform="translate(1212.410156 0)"/>
      <use xlink:href="#DejaVuSans-41" transform="translate(1277.761719 0)"/>
      <use xlink:href="#DejaVuSans-44" transform="translate(1346.169922 0)"/>
      <use xlink:href="#DejaVuSans-29" transform="translate(1423.171875 0)"/>
      <use xlink:href="#DejaVuSans-20" transform="translate(1462.185547 0)"/>
      <use xlink:href="#DejaVuSans-70" transform="translate(1493.972656 0)"/>
      <use xlink:href="#DejaVuSans-72" transform="translate(1557.449219 0)"/>
      <use xlink:href="#DejaVuSans-6f" transform="translate(1596.3125 0)"/>
      <use xlink:href="#DejaVuSans-74" transform="translate(1657.494141 0)"/>
      <use xlink:href="#DejaVuSans-6f" transform="translate(1696.703125 0)"/>
      <use xlink:href="#DejaVuSans-74" transform="translate(1757.884766 0)"/>
      <use xlink:href="#DejaVuSans-79" transform="translate(1797.09375 0)"/>
      <use xlink:href="#DejaVuSans-70" transform="translate(1856.273438 0)"/>
      <use xlink:href="#DejaVuSans-65" transform="translate(1919.75 0)"/>
     </g>
    </g>
   </g>
  </g>
 </g>
 <defs>
  <clipPath id="p838838c4e7">
   <rect x="47.307188" y="23.837812" width="658.33" height="360.28"/>
  </clipPath>
 </defs>
</svg>
