<?xml version="1.0" encoding="utf-8" standalone="no"?>
<!DOCTYPE svg PUBLIC "-//W3C//DTD SVG 1.1//EN"
  "http://www.w3.org/Graphics/SVG/1.1/DTD/svg11.dtd">
<svg xmlns:xlink="http://www.w3.org/1999/xlink" width="712.837188pt" height="424.5775pt" viewBox="0 0 712.837188 424.5775" xmlns="http://www.w3.org/2000/svg" version="1.1">
 <metadata>
  <rdf:RDF xmlns:dc="http://purl.org/dc/elements/1.1/" xmlns:cc="http://creativecommons.org/ns#" xmlns:rdf="http://www.w3.org/1999/02/22-rdf-syntax-ns#">
   <cc:Work>
    <dc:type rdf:resource="http://purl.org/dc/dcmitype/StillImage"/>
    <dc:date>2026-06-14T18:54:18.360343</dc:date>
    <dc:format>image/svg+xml</dc:format>
    <dc:creator>
     <cc:Agent>
      <dc:title>Matplotlib v3.10.1, https://matplotlib.org/</dc:title>
     </cc:Agent>
    </dc:creator>
   </cc:Work>
  </rdf:RDF>
 </metadata>
 <defs>
  <style type="text/css">*{stroke-linejoin: round; stroke-linecap: butt}</style>
 </defs>
 <g id="figure_1">
  <g id="patch_1">
   <path d="M 0 424.5775 
L 712.837188 424.5775 
L 712.837188 0 
L 0 0 
z
" style="fill: #ffffff"/>
  </g>
  <g id="axes_1">
   <g id="patch_2">
    <path d="M 47.307188 384.117812 
L 705.637188 384.117812 
L 705.637188 23.837812 
L 47.307188 23.837812 
z
" style="fill: #ffffff"/>
   </g>
   <g id="matplotlib.axis_1">
    <g id="xtick_1">
     <g id="line2d_1">
      <path d="M 47.307188 384.117812 
L 47.307188 23.837812 
" clip-path="url(#p34967fafd0)" style="fill: none; stroke: #b0b0b0; stroke-opacity: 0.2; stroke-width: 0.6; stroke-linecap: square"/>
     </g>
     <g id="line2d_2">
      <defs>
       <path id="me4df9adc20" d="M 0 0 
L 0 3.5 
" style="stroke: #000000; stroke-width: 0.8"/>
      </defs>
      <g>
       <use xlink:href="#me4df9adc20" x="47.307188" y="384.117812" style="stroke: #000000; stroke-width: 0.8"/>
      </g>
     </g>
     <g id="text_1">
      <!-- 0 -->
      <g transform="translate(43.807813 399.476094) scale(0.11 -0.11)">
       <defs>
        <path id="DejaVuSans-30" d="M 2034 4250 
Q 1547 4250 1301 3770 
Q 1056 3291 1056 2328 
Q 1056 1369 1301 889 
Q 1547 409 2034 409 
Q 2525 409 2770 889 
Q 3016 1369 3016 2328 
Q 3016 3291 2770 3770 
Q 2525 4250 2034 4250 
z
M 2034 4750 
Q 2819 4750 3233 4129 
Q 3647 3509 3647 2328 
Q 3647 1150 3233 529 
Q 2819 -91 2034 -91 
Q 1250 -91 836 529 
Q 422 1150 422 2328 
Q 422 3509 836 4129 
Q 1250 4750 2034 4750 
z
" transform="scale(0.015625)"/>
       </defs>
       <use xlink:href="#DejaVuSans-30"/>
      </g>
     </g>
    </g>
    <g id="xtick_2">
     <g id="line2d_3">
      <path d="M 133.929556 384.117812 
L 133.929556 23.837812 
" clip-path="url(#p34967fafd0)" style="fill: none; stroke: #b0b0b0; stroke-opacity: 0.2; stroke-width: 0.6; stroke-linecap: square"/>
     </g>
     <g id="line2d_4">
      <g>
       <use xlink:href="#me4df9adc20" x="133.929556" y="384.117812" style="stroke: #000000; stroke-width: 0.8"/>
      </g>
     </g>
     <g id="text_2">
      <!-- 25 -->
      <g transform="translate(126.930806 399.476094) scale(0.11 -0.11)">
       <defs>
        <path id="DejaVuSans-32" d="M 1228 531 
L 3431 531 
L 3431 0 
L 469 0 
L 469 531 
Q 828 903 1448 1529 
Q 2069 2156 2228 2338 
Q 2531 2678 2651 2914 
Q 2772 3150 2772 3378 
Q 2772 3750 2511 3984 
Q 2250 4219 1831 4219 
Q 1534 4219 1204 4116 
Q 875 4013 500 3803 
L 500 4441 
Q 881 4594 1212 4672 
Q 1544 4750 1819 4750 
Q 2544 4750 2975 4387 
Q 3406 4025 3406 3419 
Q 3406 3131 3298 2873 
Q 3191 2616 2906 2266 
Q 2828 2175 2409 1742 
Q 1991 1309 1228 531 
z
" transform="scale(0.015625)"/>
        <path id="DejaVuSans-35" d="M 691 4666 
L 3169 4666 
L 3169 4134 
L 1269 4134 
L 1269 2991 
Q 1406 3038 1543 3061 
Q 1681 3084 1819 3084 
Q 2600 3084 3056 2656 
Q 3513 2228 3513 1497 
Q 3513 744 3044 326 
Q 2575 -91 1722 -91 
Q 1428 -91 1123 -41 
Q 819 9 494 109 
L 494 744 
Q 775 591 1075 516 
Q 1375 441 1709 441 
Q 2250 441 2565 725 
Q 2881 1009 2881 1497 
Q 2881 1984 2565 2268 
Q 2250 2553 1709 2553 
Q 1456 2553 1204 2497 
Q 953 2441 691 2322 
L 691 4666 
z
" transform="scale(0.015625)"/>
       </defs>
       <use xlink:href="#DejaVuSans-32"/>
       <use xlink:href="#DejaVuSans-35" transform="translate(63.623047 0)"/>
      </g>
     </g>
    </g>
    <g id="xtick_3">
     <g id="line2d_5">
      <path d="M 220.551924 384.117812 
L 220.551924 23.837812 
" clip-path="url(#p34967fafd0)" style="fill: none; stroke: #b0b0b0; stroke-opacity: 0.2; stroke-width: 0.6; stroke-linecap: square"/>
     </g>
     <g id="line2d_6">
      <g>
       <use xlink:href="#me4df9adc20" x="220.551924" y="384.117812" style="stroke: #000000; stroke-width: 0.8"/>
      </g>
     </g>
     <g id="text_3">
      <!-- 50 -->
      <g transform="translate(213.553174 399.476094) scale(0.11 -0.11)">
       <use xlink:href="#DejaVuSans-35"/>
       <use xlink:href="#DejaVuSans-30" transform="translate(63.623047 0)"/>
      </g>
     </g>
    </g>
    <g id="xtick_4">
     <g id="line2d_7">
      <path d="M 307.174293 384.117812 
L 307.174293 23.837812 
" clip-path="url(#p34967fafd0)" style="fill: none; stroke: #b0b0b0; stroke-opacity: 0.2; stroke-width: 0.6; stroke-linecap: square"/>
     </g>
     <g id="line2d_8">
      <g>
       <use xlink:href="#me4df9adc20" x="307.174293" y="384.117812" style="stroke: #000000; stroke-width: 0.8"/>
      </g>
     </g>
     <g id="text_4">
      <!-- 75 -->
      <g transform="translate(300.175543 399.476094) scale(0.11 -0.11)">
       <defs>
        <path id="DejaVuSans-37" d="M 525 4666 
L 3525 4666 
L 3525 4397 
L 1831 0 
L 1172 0 
L 2766 4134 
L 525 4134 
L 525 4666 
z
" transform="scale(0.015625)"/>
       </defs>
       <use xlink:href="#DejaVuSans-37"/>
       <use xlink:href="#DejaVuSans-35" transform="translate(63.623047 0)"/>
      </g>
     </g>
    </g>
    <g id="xtick_5">
     <g id="line2d_9">
      <path d="M 393.796661 384.117812 
L 393.796661 23.837812 
" clip-path="url(#p34967fafd0)" style="fill: none; stroke: #b0b0b0; stroke-opacity: 0.2; stroke-width: 0.6; stroke-linecap: square"/>
     </g>
     <g id="line2d_10">
      <g>
       <use xlink:href="#me4df9adc20" x="393.796661" y="384.117812" style="stroke: #000000; stroke-width: 0.8"/>
      </g>
     </g>
     <g id="text_5">
      <!-- 100 -->
      <g transform="translate(383.298536 399.476094) scale(0.11 -0.11)">
       <defs>
        <path id="DejaVuSans-31" d="M 794 531 
L 1825 531 
L 1825 4091 
L 703 3866 
L 703 4441 
L 1819 4666 
L 2450 4666 
L 2450 531 
L 3481 531 
L 3481 0 
L 794 0 
L 794 531 
z
" transform="scale(0.015625)"/>
       </defs>
       <use xlink:href="#DejaVuSans-31"/>
       <use xlink:href="#DejaVuSans-30" transform="translate(63.623047 0)"/>
       <use xlink:href="#DejaVuSans-30" transform="translate(127.246094 0)"/>
      </g>
     </g>
    </g>
    <g id="xtick_6">
     <g id="line2d_11">
      <path d="M 480.41903 384.117812 
L 480.41903 23.837812 
" clip-path="url(#p34967fafd0)" style="fill: none; stroke: #b0b0b0; stroke-opacity: 0.2; stroke-width: 0.6; stroke-linecap: square"/>
     </g>
     <g id="line2d_12">
      <g>
       <use xlink:href="#me4df9adc20" x="480.41903" y="384.117812" style="stroke: #000000; stroke-width: 0.8"/>
      </g>
     </g>
     <g id="text_6">
      <!-- 125 -->
      <g transform="translate(469.920905 399.476094) scale(0.11 -0.11)">
       <use xlink:href="#DejaVuSans-31"/>
       <use xlink:href="#DejaVuSans-32" transform="translate(63.623047 0)"/>
       <use xlink:href="#DejaVuSans-35" transform="translate(127.246094 0)"/>
      </g>
     </g>
    </g>
    <g id="xtick_7">
     <g id="line2d_13">
      <path d="M 567.041398 384.117812 
L 567.041398 23.837812 
" clip-path="url(#p34967fafd0)" style="fill: none; stroke: #b0b0b0; stroke-opacity: 0.2; stroke-width: 0.6; stroke-linecap: square"/>
     </g>
     <g id="line2d_14">
      <g>
       <use xlink:href="#me4df9adc20" x="567.041398" y="384.117812" style="stroke: #000000; stroke-width: 0.8"/>
      </g>
     </g>
     <g id="text_7">
      <!-- 150 -->
      <g transform="translate(556.543273 399.476094) scale(0.11 -0.11)">
       <use xlink:href="#DejaVuSans-31"/>
       <use xlink:href="#DejaVuSans-35" transform="translate(63.623047 0)"/>
       <use xlink:href="#DejaVuSans-30" transform="translate(127.246094 0)"/>
      </g>
     </g>
    </g>
    <g id="xtick_8">
     <g id="line2d_15">
      <path d="M 653.663766 384.117812 
L 653.663766 23.837812 
" clip-path="url(#p34967fafd0)" style="fill: none; stroke: #b0b0b0; stroke-opacity: 0.2; stroke-width: 0.6; stroke-linecap: square"/>
     </g>
     <g id="line2d_16">
      <g>
       <use xlink:href="#me4df9adc20" x="653.663766" y="384.117812" style="stroke: #000000; stroke-width: 0.8"/>
      </g>
     </g>
     <g id="text_8">
      <!-- 175 -->
      <g transform="translate(643.165641 399.476094) scale(0.11 -0.11)">
       <use xlink:href="#DejaVuSans-31"/>
       <use xlink:href="#DejaVuSans-37" transform="translate(63.623047 0)"/>
       <use xlink:href="#DejaVuSans-35" transform="translate(127.246094 0)"/>
      </g>
     </g>
    </g>
    <g id="text_9">
     <!-- Time (s) -->
     <g transform="translate(352.0775 414.881875) scale(0.12 -0.12)">
      <defs>
       <path id="DejaVuSans-54" d="M -19 4666 
L 3928 4666 
L 3928 4134 
L 2272 4134 
L 2272 0 
L 1638 0 
L 1638 4134 
L -19 4134 
L -19 4666 
z
" transform="scale(0.015625)"/>
       <path id="DejaVuSans-69" d="M 603 3500 
L 1178 3500 
L 1178 0 
L 603 0 
L 603 3500 
z
M 603 4863 
L 1178 4863 
L 1178 4134 
L 603 4134 
L 603 4863 
z
" transform="scale(0.015625)"/>
       <path id="DejaVuSans-6d" d="M 3328 2828 
Q 3544 3216 3844 3400 
Q 4144 3584 4550 3584 
Q 5097 3584 5394 3201 
Q 5691 2819 5691 2113 
L 5691 0 
L 5113 0 
L 5113 2094 
Q 5113 2597 4934 2840 
Q 4756 3084 4391 3084 
Q 3944 3084 3684 2787 
Q 3425 2491 3425 1978 
L 3425 0 
L 2847 0 
L 2847 2094 
Q 2847 2600 2669 2842 
Q 2491 3084 2119 3084 
Q 1678 3084 1418 2786 
Q 1159 2488 1159 1978 
L 1159 0 
L 581 0 
L 581 3500 
L 1159 3500 
L 1159 2956 
Q 1356 3278 1631 3431 
Q 1906 3584 2284 3584 
Q 2666 3584 2933 3390 
Q 3200 3197 3328 2828 
z
" transform="scale(0.015625)"/>
       <path id="DejaVuSans-65" d="M 3597 1894 
L 3597 1613 
L 953 1613 
Q 991 1019 1311 708 
Q 1631 397 2203 397 
Q 2534 397 2845 478 
Q 3156 559 3463 722 
L 3463 178 
Q 3153 47 2828 -22 
Q 2503 -91 2169 -91 
Q 1331 -91 842 396 
Q 353 884 353 1716 
Q 353 2575 817 3079 
Q 1281 3584 2069 3584 
Q 2775 3584 3186 3129 
Q 3597 2675 3597 1894 
z
M 3022 2063 
Q 3016 2534 2758 2815 
Q 2500 3097 2075 3097 
Q 1594 3097 1305 2825 
Q 1016 2553 972 2059 
L 3022 2063 
z
" transform="scale(0.015625)"/>
       <path id="DejaVuSans-20" transform="scale(0.015625)"/>
       <path id="DejaVuSans-28" d="M 1984 4856 
Q 1566 4138 1362 3434 
Q 1159 2731 1159 2009 
Q 1159 1288 1364 580 
Q 1569 -128 1984 -844 
L 1484 -844 
Q 1016 -109 783 600 
Q 550 1309 550 2009 
Q 550 2706 781 3412 
Q 1013 4119 1484 4856 
L 1984 4856 
z
" transform="scale(0.015625)"/>
       <path id="DejaVuSans-73" d="M 2834 3397 
L 2834 2853 
Q 2591 2978 2328 3040 
Q 2066 3103 1784 3103 
Q 1356 3103 1142 2972 
Q 928 2841 928 2578 
Q 928 2378 1081 2264 
Q 1234 2150 1697 2047 
L 1894 2003 
Q 2506 1872 2764 1633 
Q 3022 1394 3022 966 
Q 3022 478 2636 193 
Q 2250 -91 1575 -91 
Q 1294 -91 989 -36 
Q 684 19 347 128 
L 347 722 
Q 666 556 975 473 
Q 1284 391 1588 391 
Q 1994 391 2212 530 
Q 2431 669 2431 922 
Q 2431 1156 2273 1281 
Q 2116 1406 1581 1522 
L 1381 1569 
Q 847 1681 609 1914 
Q 372 2147 372 2553 
Q 372 3047 722 3315 
Q 1072 3584 1716 3584 
Q 2034 3584 2315 3537 
Q 2597 3491 2834 3397 
z
" transform="scale(0.015625)"/>
       <path id="DejaVuSans-29" d="M 513 4856 
L 1013 4856 
Q 1481 4119 1714 3412 
Q 1947 2706 1947 2009 
Q 1947 1309 1714 600 
Q 1481 -109 1013 -844 
L 513 -844 
Q 928 -128 1133 580 
Q 1338 1288 1338 2009 
Q 1338 2731 1133 3434 
Q 928 4138 513 4856 
z
" transform="scale(0.015625)"/>
      </defs>
      <use xlink:href="#DejaVuSans-54"/>
      <use xlink:href="#DejaVuSans-69" transform="translate(57.958984 0)"/>
      <use xlink:href="#DejaVuSans-6d" transform="translate(85.742188 0)"/>
      <use xlink:href="#DejaVuSans-65" transform="translate(183.154297 0)"/>
      <use xlink:href="#DejaVuSans-20" transform="translate(244.677734 0)"/>
      <use xlink:href="#DejaVuSans-28" transform="translate(276.464844 0)"/>
      <use xlink:href="#DejaVuSans-73" transform="translate(315.478516 0)"/>
      <use xlink:href="#DejaVuSans-29" transform="translate(367.578125 0)"/>
     </g>
    </g>
   </g>
   <g id="matplotlib.axis_2">
    <g id="ytick_1">
     <g id="line2d_17">
      <path d="M 47.307188 367.741449 
L 705.637188 367.741449 
" clip-path="url(#p34967fafd0)" style="fill: none; stroke: #b0b0b0; stroke-opacity: 0.2; stroke-width: 0.6; stroke-linecap: square"/>
     </g>
     <g id="line2d_18">
      <defs>
       <path id="m993cfcbbff" d="M 0 0 
L -3.5 0 
" style="stroke: #000000; stroke-width: 0.8"/>
      </defs>
      <g>
       <use xlink:href="#m993cfcbbff" x="47.307188" y="367.741449" style="stroke: #000000; stroke-width: 0.8"/>
      </g>
     </g>
     <g id="text_10">
      <!-- 0.0 -->
      <g transform="translate(22.81375 371.920589) scale(0.11 -0.11)">
       <defs>
        <path id="DejaVuSans-2e" d="M 684 794 
L 1344 794 
L 1344 0 
L 684 0 
L 684 794 
z
" transform="scale(0.015625)"/>
       </defs>
       <use xlink:href="#DejaVuSans-30"/>
       <use xlink:href="#DejaVuSans-2e" transform="translate(63.623047 0)"/>
       <use xlink:href="#DejaVuSans-30" transform="translate(95.410156 0)"/>
      </g>
     </g>
    </g>
    <g id="ytick_2">
     <g id="line2d_19">
      <path d="M 47.307188 317.507205 
L 705.637188 317.507205 
" clip-path="url(#p34967fafd0)" style="fill: none; stroke: #b0b0b0; stroke-opacity: 0.2; stroke-width: 0.6; stroke-linecap: square"/>
     </g>
     <g id="line2d_20">
      <g>
       <use xlink:href="#m993cfcbbff" x="47.307188" y="317.507205" style="stroke: #000000; stroke-width: 0.8"/>
      </g>
     </g>
     <g id="text_11">
      <!-- 0.5 -->
      <g transform="translate(22.81375 321.686345) scale(0.11 -0.11)">
       <use xlink:href="#DejaVuSans-30"/>
       <use xlink:href="#DejaVuSans-2e" transform="translate(63.623047 0)"/>
       <use xlink:href="#DejaVuSans-35" transform="translate(95.410156 0)"/>
      </g>
     </g>
    </g>
    <g id="ytick_3">
     <g id="line2d_21">
      <path d="M 47.307188 267.27296 
L 705.637188 267.27296 
" clip-path="url(#p34967fafd0)" style="fill: none; stroke: #b0b0b0; stroke-opacity: 0.2; stroke-width: 0.6; stroke-linecap: square"/>
     </g>
     <g id="line2d_22">
      <g>
       <use xlink:href="#m993cfcbbff" x="47.307188" y="267.27296" style="stroke: #000000; stroke-width: 0.8"/>
      </g>
     </g>
     <g id="text_12">
      <!-- 1.0 -->
      <g transform="translate(22.81375 271.452101) scale(0.11 -0.11)">
       <use xlink:href="#DejaVuSans-31"/>
       <use xlink:href="#DejaVuSans-2e" transform="translate(63.623047 0)"/>
       <use xlink:href="#DejaVuSans-30" transform="translate(95.410156 0)"/>
      </g>
     </g>
    </g>
    <g id="ytick_4">
     <g id="line2d_23">
      <path d="M 47.307188 217.038716 
L 705.637188 217.038716 
" clip-path="url(#p34967fafd0)" style="fill: none; stroke: #b0b0b0; stroke-opacity: 0.2; stroke-width: 0.6; stroke-linecap: square"/>
     </g>
     <g id="line2d_24">
      <g>
       <use xlink:href="#m993cfcbbff" x="47.307188" y="217.038716" style="stroke: #000000; stroke-width: 0.8"/>
      </g>
     </g>
     <g id="text_13">
      <!-- 1.5 -->
      <g transform="translate(22.81375 221.217857) scale(0.11 -0.11)">
       <use xlink:href="#DejaVuSans-31"/>
       <use xlink:href="#DejaVuSans-2e" transform="translate(63.623047 0)"/>
       <use xlink:href="#DejaVuSans-35" transform="translate(95.410156 0)"/>
      </g>
     </g>
    </g>
    <g id="ytick_5">
     <g id="line2d_25">
      <path d="M 47.307188 166.804472 
L 705.637188 166.804472 
" clip-path="url(#p34967fafd0)" style="fill: none; stroke: #b0b0b0; stroke-opacity: 0.2; stroke-width: 0.6; stroke-linecap: square"/>
     </g>
     <g id="line2d_26">
      <g>
       <use xlink:href="#m993cfcbbff" x="47.307188" y="166.804472" style="stroke: #000000; stroke-width: 0.8"/>
      </g>
     </g>
     <g id="text_14">
      <!-- 2.0 -->
      <g transform="translate(22.81375 170.983612) scale(0.11 -0.11)">
       <use xlink:href="#DejaVuSans-32"/>
       <use xlink:href="#DejaVuSans-2e" transform="translate(63.623047 0)"/>
       <use xlink:href="#DejaVuSans-30" transform="translate(95.410156 0)"/>
      </g>
     </g>
    </g>
    <g id="ytick_6">
     <g id="line2d_27">
      <path d="M 47.307188 116.570227 
L 705.637188 116.570227 
" clip-path="url(#p34967fafd0)" style="fill: none; stroke: #b0b0b0; stroke-opacity: 0.2; stroke-width: 0.6; stroke-linecap: square"/>
     </g>
     <g id="line2d_28">
      <g>
       <use xlink:href="#m993cfcbbff" x="47.307188" y="116.570227" style="stroke: #000000; stroke-width: 0.8"/>
      </g>
     </g>
     <g id="text_15">
      <!-- 2.5 -->
      <g transform="translate(22.81375 120.749368) scale(0.11 -0.11)">
       <use xlink:href="#DejaVuSans-32"/>
       <use xlink:href="#DejaVuSans-2e" transform="translate(63.623047 0)"/>
       <use xlink:href="#DejaVuSans-35" transform="translate(95.410156 0)"/>
      </g>
     </g>
    </g>
    <g id="ytick_7">
     <g id="line2d_29">
      <path d="M 47.307188 66.335983 
L 705.637188 66.335983 
" clip-path="url(#p34967fafd0)" style="fill: none; stroke: #b0b0b0; stroke-opacity: 0.2; stroke-width: 0.6; stroke-linecap: square"/>
     </g>
     <g id="line2d_30">
      <g>
       <use xlink:href="#m993cfcbbff" x="47.307188" y="66.335983" style="stroke: #000000; stroke-width: 0.8"/>
      </g>
     </g>
     <g id="text_16">
      <!-- 3.0 -->
      <g transform="translate(22.81375 70.515124) scale(0.11 -0.11)">
       <defs>
        <path id="DejaVuSans-33" d="M 2597 2516 
Q 3050 2419 3304 2112 
Q 3559 1806 3559 1356 
Q 3559 666 3084 287 
Q 2609 -91 1734 -91 
Q 1441 -91 1130 -33 
Q 819 25 488 141 
L 488 750 
Q 750 597 1062 519 
Q 1375 441 1716 441 
Q 2309 441 2620 675 
Q 2931 909 2931 1356 
Q 2931 1769 2642 2001 
Q 2353 2234 1838 2234 
L 1294 2234 
L 1294 2753 
L 1863 2753 
Q 2328 2753 2575 2939 
Q 2822 3125 2822 3475 
Q 2822 3834 2567 4026 
Q 2313 4219 1838 4219 
Q 1578 4219 1281 4162 
Q 984 4106 628 3988 
L 628 4550 
Q 988 4650 1302 4700 
Q 1616 4750 1894 4750 
Q 2613 4750 3031 4423 
Q 3450 4097 3450 3541 
Q 3450 3153 3228 2886 
Q 3006 2619 2597 2516 
z
" transform="scale(0.015625)"/>
       </defs>
       <use xlink:href="#DejaVuSans-33"/>
       <use xlink:href="#DejaVuSans-2e" transform="translate(63.623047 0)"/>
       <use xlink:href="#DejaVuSans-30" transform="translate(95.410156 0)"/>
      </g>
     </g>
    </g>
    <g id="text_17">
     <!-- AU mean intensity -->
     <g transform="translate(16.318125 259.314687) rotate(-90) scale(0.12 -0.12)">
      <defs>
       <path id="DejaVuSans-41" d="M 2188 4044 
L 1331 1722 
L 3047 1722 
L 2188 4044 
z
M 1831 4666 
L 2547 4666 
L 4325 0 
L 3669 0 
L 3244 1197 
L 1141 1197 
L 716 0 
L 50 0 
L 1831 4666 
z
" transform="scale(0.015625)"/>
       <path id="DejaVuSans-55" d="M 556 4666 
L 1191 4666 
L 1191 1831 
Q 1191 1081 1462 751 
Q 1734 422 2344 422 
Q 2950 422 3222 751 
Q 3494 1081 3494 1831 
L 3494 4666 
L 4128 4666 
L 4128 1753 
Q 4128 841 3676 375 
Q 3225 -91 2344 -91 
Q 1459 -91 1007 375 
Q 556 841 556 1753 
L 556 4666 
z
" transform="scale(0.015625)"/>
       <path id="DejaVuSans-61" d="M 2194 1759 
Q 1497 1759 1228 1600 
Q 959 1441 959 1056 
Q 959 750 1161 570 
Q 1363 391 1709 391 
Q 2188 391 2477 730 
Q 2766 1069 2766 1631 
L 2766 1759 
L 2194 1759 
z
M 3341 1997 
L 3341 0 
L 2766 0 
L 2766 531 
Q 2569 213 2275 61 
Q 1981 -91 1556 -91 
Q 1019 -91 701 211 
Q 384 513 384 1019 
Q 384 1609 779 1909 
Q 1175 2209 1959 2209 
L 2766 2209 
L 2766 2266 
Q 2766 2663 2505 2880 
Q 2244 3097 1772 3097 
Q 1472 3097 1187 3025 
Q 903 2953 641 2809 
L 641 3341 
Q 956 3463 1253 3523 
Q 1550 3584 1831 3584 
Q 2591 3584 2966 3190 
Q 3341 2797 3341 1997 
z
" transform="scale(0.015625)"/>
       <path id="DejaVuSans-6e" d="M 3513 2113 
L 3513 0 
L 2938 0 
L 2938 2094 
Q 2938 2591 2744 2837 
Q 2550 3084 2163 3084 
Q 1697 3084 1428 2787 
Q 1159 2491 1159 1978 
L 1159 0 
L 581 0 
L 581 3500 
L 1159 3500 
L 1159 2956 
Q 1366 3272 1645 3428 
Q 1925 3584 2291 3584 
Q 2894 3584 3203 3211 
Q 3513 2838 3513 2113 
z
" transform="scale(0.015625)"/>
       <path id="DejaVuSans-74" d="M 1172 4494 
L 1172 3500 
L 2356 3500 
L 2356 3053 
L 1172 3053 
L 1172 1153 
Q 1172 725 1289 603 
Q 1406 481 1766 481 
L 2356 481 
L 2356 0 
L 1766 0 
Q 1100 0 847 248 
Q 594 497 594 1153 
L 594 3053 
L 172 3053 
L 172 3500 
L 594 3500 
L 594 4494 
L 1172 4494 
z
" transform="scale(0.015625)"/>
       <path id="DejaVuSans-79" d="M 2059 -325 
Q 1816 -950 1584 -1140 
Q 1353 -1331 966 -1331 
L 506 -1331 
L 506 -850 
L 844 -850 
Q 1081 -850 1212 -737 
Q 1344 -625 1503 -206 
L 1606 56 
L 191 3500 
L 800 3500 
L 1894 763 
L 2988 3500 
L 3597 3500 
L 2059 -325 
z
" transform="scale(0.015625)"/>
      </defs>
      <use xlink:href="#DejaVuSans-41"/>
      <use xlink:href="#DejaVuSans-55" transform="translate(68.408203 0)"/>
      <use xlink:href="#DejaVuSans-20" transform="translate(141.601562 0)"/>
      <use xlink:href="#DejaVuSans-6d" transform="translate(173.388672 0)"/>
      <use xlink:href="#DejaVuSans-65" transform="translate(270.800781 0)"/>
      <use xlink:href="#DejaVuSans-61" transform="translate(332.324219 0)"/>
      <use xlink:href="#DejaVuSans-6e" transform="translate(393.603516 0)"/>
      <use xlink:href="#DejaVuSans-20" transform="translate(456.982422 0)"/>
      <use xlink:href="#DejaVuSans-69" transform="translate(488.769531 0)"/>
      <use xlink:href="#DejaVuSans-6e" transform="translate(516.552734 0)"/>
      <use xlink:href="#DejaVuSans-74" transform="translate(579.931641 0)"/>
      <use xlink:href="#DejaVuSans-65" transform="translate(619.140625 0)"/>
      <use xlink:href="#DejaVuSans-6e" transform="translate(680.664062 0)"/>
      <use xlink:href="#DejaVuSans-73" transform="translate(744.042969 0)"/>
      <use xlink:href="#DejaVuSans-69" transform="translate(796.142578 0)"/>
      <use xlink:href="#DejaVuSans-74" transform="translate(823.925781 0)"/>
      <use xlink:href="#DejaVuSans-79" transform="translate(863.134766 0)"/>
     </g>
    </g>
   </g>
   <g id="FillBetweenPolyCollection_1">
    <defs>
     <path id="m88bf5a071a" d="M 47.307188 -153.862028 
L 47.307188 -23.582447 
L 50.772082 -25.421581 
L 54.236977 -17.22169 
L 57.701872 -16.244289 
L 61.166766 -22.711581 
L 64.631661 -19.375322 
L 68.096556 -19.079893 
L 71.561451 -20.570515 
L 75.026345 -25.026444 
L 78.49124 -23.100588 
L 81.956135 -20.51841 
L 85.42103 -21.796986 
L 88.885924 -22.001121 
L 92.350819 -22.507872 
L 95.815714 -22.133371 
L 99.280609 -21.222697 
L 102.745503 -20.69071 
L 106.210398 -21.426925 
L 109.675293 -22.265793 
L 113.140187 -22.214387 
L 116.605082 -23.537436 
L 120.069977 -22.753971 
L 123.534872 -19.774816 
L 126.999766 -21.811861 
L 130.464661 -24.533138 
L 133.929556 -21.856241 
L 137.394451 -20.520952 
L 140.859345 -18.739117 
L 144.32424 -15.82097 
L 147.789135 -17.506255 
L 151.25403 -24.355844 
L 154.718924 -25.554893 
L 158.183819 -22.744141 
L 161.648714 -23.741943 
L 165.113609 -24.097776 
L 168.578503 -22.552954 
L 172.043398 -19.63999 
L 175.508293 -16.621164 
L 178.973187 -24.207356 
L 182.438082 -24.749659 
L 185.902977 -24.102133 
L 189.367872 -20.074535 
L 192.832766 -25.539944 
L 196.297661 -32.728133 
L 199.762556 -36.02618 
L 203.227451 -35.699367 
L 206.692345 -28.465774 
L 210.15724 -33.690498 
L 213.622135 -35.975002 
L 217.08703 -35.314152 
L 220.551924 -34.511525 
L 224.016819 -34.653214 
L 227.481714 -34.068327 
L 230.946609 -35.753007 
L 234.411503 -37.59522 
L 237.876398 -33.19085 
L 241.341293 -35.013803 
L 244.806187 -33.868288 
L 248.271082 -33.947666 
L 251.735977 -33.953816 
L 255.200872 -31.804579 
L 258.665766 -36.316127 
L 262.130661 -38.822006 
L 265.595556 -37.627732 
L 269.060451 -38.666973 
L 272.525345 -36.41349 
L 275.99024 -33.763783 
L 279.455135 -31.700002 
L 282.92003 -36.827493 
L 286.384924 -35.852317 
L 289.849819 -32.162168 
L 293.314714 -32.148193 
L 296.779609 -32.468974 
L 300.244503 -31.095014 
L 303.709398 -32.139584 
L 307.174293 -35.841478 
L 310.639187 -33.068634 
L 314.104082 -34.332948 
L 317.568977 -33.041986 
L 321.033872 -23.498 
L 324.498766 -21.525132 
L 327.963661 -19.544947 
L 331.428556 -22.570604 
L 334.893451 -27.583262 
L 338.358345 -29.683997 
L 341.82324 -28.225402 
L 345.288135 -28.327889 
L 348.75303 -28.090986 
L 352.217924 -26.608361 
L 355.682819 -28.904448 
L 359.147714 -28.529027 
L 362.612609 -27.163695 
L 366.077503 -24.059695 
L 369.542398 -24.759274 
L 373.007293 -20.640135 
L 376.472188 -23.217233 
L 379.937082 -25.489804 
L 383.401977 -28.615628 
L 386.866872 -31.549759 
L 390.331766 -32.970192 
L 393.796661 -40.878259 
L 397.261556 -43.714108 
L 400.726451 -47.960315 
L 404.191345 -44.222015 
L 407.65624 -39.942818 
L 411.121135 -36.291411 
L 414.58603 -43.242127 
L 418.050924 -43.642837 
L 421.515819 -45.010113 
L 424.980714 -40.735125 
L 428.445609 -32.458849 
L 431.910503 -32.483636 
L 435.375398 -37.665562 
L 438.840293 -39.044031 
L 442.305187 -40.69892 
L 445.770082 -43.921241 
L 449.234977 -42.514305 
L 452.699872 -39.036208 
L 456.164766 -40.958318 
L 459.629661 -41.140438 
L 463.094556 -32.155467 
L 466.559451 -29.823037 
L 470.024345 -38.203386 
L 473.48924 -36.435558 
L 476.954135 -35.869323 
L 480.41903 -32.22806 
L 483.883924 -27.719232 
L 487.348819 -13.953864 
L 490.813714 -18.092607 
L 494.278609 -19.091796 
L 497.743503 -23.211514 
L 501.208398 -23.270876 
L 504.673293 -27.386217 
L 508.138188 -30.780789 
L 511.603082 -29.112264 
L 515.067977 -24.382648 
L 518.532872 -26.280739 
L 521.997766 -26.940176 
L 525.462661 -27.310911 
L 528.927556 -24.481957 
L 532.392451 -27.360151 
L 535.857345 -29.133501 
L 539.32224 -21.266383 
L 542.787135 -19.582588 
L 546.25203 -21.181906 
L 549.716924 -30.058097 
L 553.181819 -29.306471 
L 556.646714 -27.214008 
L 560.111609 -26.528554 
L 563.576503 -29.077341 
L 567.041398 -30.266444 
L 570.506293 -28.937901 
L 573.971188 -32.224606 
L 577.436082 -31.532618 
L 580.900977 -29.819379 
L 584.365872 -30.312785 
L 587.830766 -35.034882 
L 591.295661 -29.876527 
L 594.760556 -32.163328 
L 598.225451 -26.094349 
L 601.690345 -31.96269 
L 605.15524 -34.955265 
L 608.620135 -31.61007 
L 612.08503 -31.667708 
L 615.549924 -33.776931 
L 619.014819 -34.907419 
L 622.479714 -33.54075 
L 625.944609 -30.888218 
L 629.409503 -32.646856 
L 632.874398 -35.941878 
L 636.339293 -37.100249 
L 639.804188 -35.889969 
L 643.269082 -34.336911 
L 646.733977 -32.956685 
L 650.198872 -32.668834 
L 653.663766 -29.548265 
L 657.128661 -32.28887 
L 660.593556 -25.945952 
L 664.058451 -26.59633 
L 667.523345 -25.424621 
L 670.98824 -25.949775 
L 674.453135 -25.796859 
L 677.91803 -29.712476 
L 681.382924 -24.336119 
L 684.847819 -26.171751 
L 688.312714 -26.303175 
L 691.777609 -25.223409 
L 695.242503 -22.184491 
L 698.707398 -22.467701 
L 702.172293 -20.432158 
L 705.637188 -61.063505 
L 705.637188 -141.104591 
L 705.637188 -141.104591 
L 702.172293 -201.569557 
L 698.707398 -216.649759 
L 695.242503 -222.72267 
L 691.777609 -212.891182 
L 688.312714 -215.099748 
L 684.847819 -218.189333 
L 681.382924 -220.705461 
L 677.91803 -211.328958 
L 674.453135 -220.167126 
L 670.98824 -227.422545 
L 667.523345 -220.82388 
L 664.058451 -223.399357 
L 660.593556 -227.185939 
L 657.128661 -208.673566 
L 653.663766 -208.353556 
L 650.198872 -201.173303 
L 646.733977 -206.676053 
L 643.269082 -205.420308 
L 639.804188 -197.235268 
L 636.339293 -203.376454 
L 632.874398 -204.411895 
L 629.409503 -213.757893 
L 625.944609 -215.202652 
L 622.479714 -211.633261 
L 619.014819 -217.165223 
L 615.549924 -217.482715 
L 612.08503 -216.287891 
L 608.620135 -212.814073 
L 605.15524 -211.682984 
L 601.690345 -209.196632 
L 598.225451 -210.584528 
L 594.760556 -196.559778 
L 591.295661 -198.741487 
L 587.830766 -195.459386 
L 584.365872 -192.049332 
L 580.900977 -192.246474 
L 577.436082 -188.354164 
L 573.971188 -179.868129 
L 570.506293 -172.95203 
L 567.041398 -173.493888 
L 563.576503 -170.515673 
L 560.111609 -170.292565 
L 556.646714 -168.805445 
L 553.181819 -169.88133 
L 549.716924 -171.446416 
L 546.25203 -187.521639 
L 542.787135 -195.066408 
L 539.32224 -188.636707 
L 535.857345 -177.267552 
L 532.392451 -170.248107 
L 528.927556 -174.879805 
L 525.462661 -172.629998 
L 521.997766 -176.830941 
L 518.532872 -190.172653 
L 515.067977 -198.030137 
L 511.603082 -190.792301 
L 508.138188 -182.438696 
L 504.673293 -185.338497 
L 501.208398 -191.767436 
L 497.743503 -191.967386 
L 494.278609 -207.380869 
L 490.813714 -215.384927 
L 487.348819 -230.609192 
L 483.883924 -227.167408 
L 480.41903 -225.9108 
L 476.954135 -215.798679 
L 473.48924 -209.65661 
L 470.024345 -208.588248 
L 466.559451 -221.385229 
L 463.094556 -217.390138 
L 459.629661 -198.501827 
L 456.164766 -197.402471 
L 452.699872 -208.490235 
L 449.234977 -189.696435 
L 445.770082 -176.249625 
L 442.305187 -179.697455 
L 438.840293 -177.161794 
L 435.375398 -180.072854 
L 431.910503 -188.357163 
L 428.445609 -184.94008 
L 424.980714 -174.002647 
L 421.515819 -172.791906 
L 418.050924 -180.224575 
L 414.58603 -179.298521 
L 411.121135 -193.441716 
L 407.65624 -189.914609 
L 404.191345 -182.785038 
L 400.726451 -183.962388 
L 397.261556 -204.267474 
L 393.796661 -193.975856 
L 390.331766 -198.576565 
L 386.866872 -186.076846 
L 383.401977 -188.184346 
L 379.937082 -196.56025 
L 376.472188 -205.217165 
L 373.007293 -207.207923 
L 369.542398 -205.872006 
L 366.077503 -193.929892 
L 362.612609 -185.299678 
L 359.147714 -178.407406 
L 355.682819 -174.031308 
L 352.217924 -180.853912 
L 348.75303 -168.804535 
L 345.288135 -170.383497 
L 341.82324 -175.598548 
L 338.358345 -176.415064 
L 334.893451 -181.618783 
L 331.428556 -192.300814 
L 327.963661 -199.721702 
L 324.498766 -198.765507 
L 321.033872 -191.809238 
L 317.568977 -170.864998 
L 314.104082 -167.304513 
L 310.639187 -169.374265 
L 307.174293 -165.524458 
L 303.709398 -169.305516 
L 300.244503 -175.345014 
L 296.779609 -175.071485 
L 293.314714 -181.461907 
L 289.849819 -188.734524 
L 286.384924 -187.586372 
L 282.92003 -191.336959 
L 279.455135 -196.633062 
L 275.99024 -195.237232 
L 272.525345 -187.319676 
L 269.060451 -181.82906 
L 265.595556 -180.79273 
L 262.130661 -174.459337 
L 258.665766 -176.884737 
L 255.200872 -180.750797 
L 251.735977 -174.716872 
L 248.271082 -170.206033 
L 244.806187 -168.132505 
L 241.341293 -171.04029 
L 237.876398 -170.922813 
L 234.411503 -166.921867 
L 230.946609 -167.86351 
L 227.481714 -164.57743 
L 224.016819 -166.679377 
L 220.551924 -169.467569 
L 217.08703 -172.694396 
L 213.622135 -169.866811 
L 210.15724 -173.026251 
L 206.692345 -175.200977 
L 203.227451 -171.440042 
L 199.762556 -167.381298 
L 196.297661 -184.665559 
L 192.832766 -187.881973 
L 189.367872 -185.770044 
L 185.902977 -174.048168 
L 182.438082 -167.986813 
L 178.973187 -167.895796 
L 175.508293 -170.982321 
L 172.043398 -164.497793 
L 168.578503 -160.144031 
L 165.113609 -154.992276 
L 161.648714 -156.916658 
L 158.183819 -167.224056 
L 154.718924 -172.751518 
L 151.25403 -181.638292 
L 147.789135 -189.985227 
L 144.32424 -173.45691 
L 140.859345 -162.827597 
L 137.394451 -158.786647 
L 133.929556 -154.797478 
L 130.464661 -155.527164 
L 126.999766 -158.092793 
L 123.534872 -163.093743 
L 120.069977 -160.080725 
L 116.605082 -157.039793 
L 113.140187 -158.126785 
L 109.675293 -159.321387 
L 106.210398 -164.336514 
L 102.745503 -165.714502 
L 99.280609 -163.639557 
L 95.815714 -160.916274 
L 92.350819 -162.731139 
L 88.885924 -166.053313 
L 85.42103 -165.053852 
L 81.956135 -166.935644 
L 78.49124 -166.240309 
L 75.026345 -162.877287 
L 71.561451 -170.497834 
L 68.096556 -178.568471 
L 64.631661 -185.6287 
L 61.166766 -188.566063 
L 57.701872 -195.593322 
L 54.236977 -190.37589 
L 50.772082 -158.756448 
L 47.307188 -153.862028 
z
" style="stroke: #d3d3d3; stroke-opacity: 0.5"/>
    </defs>
    <g clip-path="url(#p34967fafd0)">
     <use xlink:href="#m88bf5a071a" x="0" y="424.5775" style="fill: #d3d3d3; fill-opacity: 0.5; stroke: #d3d3d3; stroke-opacity: 0.5"/>
    </g>
   </g>
   <g id="FillBetweenPolyCollection_2">
    <defs>
     <path id="m2800b1bb54" d="M 47.307188 -121.292133 
L 47.307188 -56.152342 
L 50.772082 -58.755298 
L 54.236977 -60.51024 
L 57.701872 -61.081547 
L 61.166766 -64.175202 
L 64.631661 -60.938666 
L 68.096556 -58.952038 
L 71.561451 -58.052345 
L 75.026345 -59.489155 
L 78.49124 -58.885518 
L 81.956135 -57.122718 
L 85.42103 -57.611202 
L 88.885924 -58.014169 
L 92.350819 -57.563689 
L 95.815714 -56.829097 
L 99.280609 -56.826912 
L 102.745503 -56.946658 
L 106.210398 -57.154323 
L 109.675293 -56.529692 
L 113.140187 -56.192487 
L 116.605082 -56.913025 
L 120.069977 -57.08566 
L 123.534872 -55.604547 
L 126.999766 -55.882094 
L 130.464661 -57.281645 
L 133.929556 -55.09155 
L 137.394451 -55.087376 
L 140.859345 -54.761237 
L 144.32424 -55.229955 
L 147.789135 -60.625998 
L 151.25403 -63.676456 
L 154.718924 -62.354049 
L 158.183819 -58.86412 
L 161.648714 -57.035622 
L 165.113609 -56.821401 
L 168.578503 -56.950724 
L 172.043398 -55.854441 
L 175.508293 -55.211453 
L 178.973187 -60.129466 
L 182.438082 -60.558947 
L 185.902977 -61.588642 
L 189.367872 -61.498412 
L 192.832766 -66.125451 
L 196.297661 -70.712489 
L 199.762556 -68.864959 
L 203.227451 -69.634536 
L 206.692345 -65.149575 
L 210.15724 -68.524436 
L 213.622135 -69.447954 
L 217.08703 -69.659213 
L 220.551924 -68.250536 
L 224.016819 -67.659755 
L 227.481714 -66.695603 
L 230.946609 -68.780633 
L 234.411503 -69.926882 
L 237.876398 -67.623841 
L 241.341293 -69.020424 
L 244.806187 -67.434342 
L 248.271082 -68.012258 
L 251.735977 -69.14458 
L 255.200872 -69.041134 
L 258.665766 -71.45828 
L 262.130661 -72.731338 
L 265.595556 -73.418981 
L 269.060451 -74.457495 
L 272.525345 -74.140037 
L 275.99024 -74.132145 
L 279.455135 -72.933267 
L 282.92003 -75.45486 
L 286.384924 -73.785831 
L 289.849819 -71.305257 
L 293.314714 -69.476622 
L 296.779609 -68.119602 
L 300.244503 -67.157514 
L 303.709398 -66.431067 
L 307.174293 -68.262223 
L 310.639187 -67.145042 
L 314.104082 -67.575839 
L 317.568977 -67.497739 
L 321.033872 -65.575809 
L 324.498766 -65.835226 
L 327.963661 -64.589136 
L 331.428556 -65.003157 
L 334.893451 -66.092142 
L 338.358345 -66.366764 
L 341.82324 -65.068688 
L 345.288135 -63.841791 
L 348.75303 -63.269373 
L 352.217924 -65.169748 
L 355.682819 -65.186163 
L 359.147714 -65.998622 
L 362.612609 -66.697691 
L 366.077503 -66.527244 
L 369.542398 -70.037457 
L 373.007293 -67.282082 
L 376.472188 -68.717216 
L 379.937082 -68.257415 
L 383.401977 -68.507808 
L 386.866872 -70.18153 
L 390.331766 -74.371785 
L 393.796661 -79.152658 
L 397.261556 -83.85245 
L 400.726451 -81.960833 
L 404.191345 -78.862771 
L 407.65624 -77.435766 
L 411.121135 -75.578987 
L 414.58603 -77.256225 
L 418.050924 -77.788272 
L 421.515819 -76.955561 
L 424.980714 -74.052006 
L 428.445609 -70.579157 
L 431.910503 -71.452018 
L 435.375398 -73.267385 
L 438.840293 -73.573472 
L 442.305187 -75.448554 
L 445.770082 -77.003337 
L 449.234977 -79.309837 
L 452.699872 -81.399715 
L 456.164766 -80.069356 
L 459.629661 -80.480785 
L 463.094556 -78.464135 
L 466.559451 -77.713585 
L 470.024345 -80.799602 
L 473.48924 -79.740821 
L 476.954135 -80.851662 
L 480.41903 -80.648745 
L 483.883924 -77.581276 
L 487.348819 -68.117696 
L 490.813714 -67.415687 
L 494.278609 -66.164064 
L 497.743503 -65.400482 
L 501.208398 -65.395016 
L 504.673293 -66.874287 
L 508.138188 -68.695266 
L 511.603082 -69.532273 
L 515.067977 -67.79452 
L 518.532872 -67.253717 
L 521.997766 -64.412867 
L 525.462661 -63.640683 
L 528.927556 -62.081419 
L 532.392451 -63.08214 
L 535.857345 -66.167014 
L 539.32224 -63.108964 
L 542.787135 -63.453543 
L 546.25203 -62.766839 
L 549.716924 -65.405177 
L 553.181819 -64.450186 
L 556.646714 -62.611868 
L 560.111609 -62.469557 
L 563.576503 -64.436924 
L 567.041398 -66.073305 
L 570.506293 -64.941433 
L 573.971188 -69.135487 
L 577.436082 -70.738005 
L 580.900977 -70.426153 
L 584.365872 -70.746922 
L 587.830766 -75.141008 
L 591.295661 -72.092767 
L 594.760556 -73.26244 
L 598.225451 -72.216894 
L 601.690345 -76.271176 
L 605.15524 -79.137195 
L 608.620135 -76.911071 
L 612.08503 -77.822754 
L 615.549924 -79.703377 
L 619.014819 -80.47187 
L 622.479714 -78.063878 
L 625.944609 -76.966826 
L 629.409503 -77.924615 
L 632.874398 -78.059382 
L 636.339293 -78.669301 
L 639.804188 -76.226294 
L 643.269082 -77.107761 
L 646.733977 -76.386527 
L 650.198872 -74.794952 
L 653.663766 -74.249588 
L 657.128661 -76.385044 
L 660.593556 -76.255949 
L 664.058451 -75.797087 
L 667.523345 -74.274436 
L 670.98824 -76.317968 
L 674.453135 -74.389426 
L 677.91803 -75.116596 
L 681.382924 -73.428455 
L 684.847819 -74.176146 
L 688.312714 -73.502318 
L 691.777609 -72.140352 
L 695.242503 -72.319036 
L 698.707398 -71.013215 
L 702.172293 -65.716508 
L 705.637188 -81.073776 
L 705.637188 -121.09432 
L 705.637188 -121.09432 
L 702.172293 -156.285208 
L 698.707398 -168.104244 
L 695.242503 -172.588125 
L 691.777609 -165.974239 
L 688.312714 -167.900605 
L 684.847819 -170.184937 
L 681.382924 -171.613125 
L 677.91803 -165.924837 
L 674.453135 -171.574559 
L 670.98824 -177.054353 
L 667.523345 -171.974065 
L 664.058451 -174.198601 
L 660.593556 -176.875942 
L 657.128661 -164.577392 
L 653.663766 -163.652234 
L 650.198872 -159.047186 
L 646.733977 -163.246211 
L 643.269082 -162.649459 
L 639.804188 -156.898944 
L 636.339293 -161.807403 
L 632.874398 -162.29439 
L 629.409503 -168.480134 
L 625.944609 -169.124043 
L 622.479714 -167.110133 
L 619.014819 -171.600772 
L 615.549924 -171.556269 
L 612.08503 -170.132845 
L 608.620135 -167.513072 
L 605.15524 -167.501054 
L 601.690345 -164.888147 
L 598.225451 -164.461984 
L 594.760556 -155.460665 
L 591.295661 -156.525247 
L 587.830766 -155.35326 
L 584.365872 -151.615196 
L 580.900977 -151.6397 
L 577.436082 -149.148777 
L 573.971188 -142.957248 
L 570.506293 -136.948498 
L 567.041398 -137.687027 
L 563.576503 -135.15609 
L 560.111609 -134.351563 
L 556.646714 -133.407586 
L 553.181819 -134.737615 
L 549.716924 -136.099336 
L 546.25203 -145.936705 
L 542.787135 -151.195453 
L 539.32224 -146.794126 
L 535.857345 -140.234039 
L 532.392451 -134.526118 
L 528.927556 -137.280343 
L 525.462661 -136.300226 
L 521.997766 -139.35825 
L 518.532872 -149.199674 
L 515.067977 -154.618265 
L 511.603082 -150.372292 
L 508.138188 -144.524219 
L 504.673293 -145.850427 
L 501.208398 -149.643296 
L 497.743503 -149.778418 
L 494.278609 -160.308601 
L 490.813714 -166.061847 
L 487.348819 -176.44536 
L 483.883924 -177.305364 
L 480.41903 -177.490115 
L 476.954135 -170.81634 
L 473.48924 -166.351347 
L 470.024345 -165.992033 
L 466.559451 -173.494681 
L 463.094556 -171.08147 
L 459.629661 -159.16148 
L 456.164766 -158.291433 
L 452.699872 -166.126728 
L 449.234977 -152.900902 
L 445.770082 -143.167529 
L 442.305187 -144.947821 
L 438.840293 -142.632353 
L 435.375398 -144.471031 
L 431.910503 -149.388782 
L 428.445609 -146.819773 
L 424.980714 -140.685766 
L 421.515819 -140.846458 
L 418.050924 -146.079141 
L 414.58603 -145.284422 
L 411.121135 -154.15414 
L 407.65624 -152.421662 
L 404.191345 -148.144282 
L 400.726451 -149.96187 
L 397.261556 -164.129133 
L 393.796661 -155.701456 
L 390.331766 -157.174971 
L 386.866872 -147.445074 
L 383.401977 -148.292167 
L 379.937082 -153.792638 
L 376.472188 -159.717182 
L 373.007293 -160.565976 
L 369.542398 -160.593823 
L 366.077503 -151.462343 
L 362.612609 -145.765682 
L 359.147714 -140.937811 
L 355.682819 -137.749593 
L 352.217924 -142.292524 
L 348.75303 -133.626148 
L 345.288135 -134.869595 
L 341.82324 -138.755261 
L 338.358345 -139.732297 
L 334.893451 -143.109903 
L 331.428556 -149.868261 
L 327.963661 -154.677513 
L 324.498766 -154.455414 
L 321.033872 -149.731429 
L 317.568977 -136.409245 
L 314.104082 -134.061622 
L 310.639187 -135.297857 
L 307.174293 -133.103713 
L 303.709398 -135.014033 
L 300.244503 -139.282514 
L 296.779609 -139.420857 
L 293.314714 -144.133478 
L 289.849819 -149.591435 
L 286.384924 -149.652859 
L 282.92003 -152.709593 
L 279.455135 -155.399797 
L 275.99024 -154.868869 
L 272.525345 -149.59313 
L 269.060451 -146.038538 
L 265.595556 -145.00148 
L 262.130661 -140.550004 
L 258.665766 -141.742584 
L 255.200872 -143.514243 
L 251.735977 -139.526108 
L 248.271082 -136.141441 
L 244.806187 -134.566451 
L 241.341293 -137.033668 
L 237.876398 -136.489822 
L 234.411503 -134.590205 
L 230.946609 -134.835884 
L 227.481714 -131.950154 
L 224.016819 -133.672836 
L 220.551924 -135.728558 
L 217.08703 -138.349335 
L 213.622135 -136.393859 
L 210.15724 -138.192313 
L 206.692345 -138.517176 
L 203.227451 -137.504874 
L 199.762556 -134.542518 
L 196.297661 -146.681202 
L 192.832766 -147.296466 
L 189.367872 -144.346167 
L 185.902977 -136.56166 
L 182.438082 -132.177525 
L 178.973187 -131.973686 
L 175.508293 -132.392032 
L 172.043398 -128.283342 
L 168.578503 -125.746262 
L 165.113609 -122.268651 
L 161.648714 -123.622979 
L 158.183819 -131.104077 
L 154.718924 -135.952361 
L 151.25403 -142.31768 
L 147.789135 -146.865484 
L 144.32424 -134.047925 
L 140.859345 -126.805477 
L 137.394451 -124.220223 
L 133.929556 -121.562169 
L 130.464661 -122.778657 
L 126.999766 -124.02256 
L 123.534872 -127.264011 
L 120.069977 -125.749037 
L 116.605082 -123.664204 
L 113.140187 -124.148686 
L 109.675293 -125.057488 
L 106.210398 -128.609117 
L 102.745503 -129.458554 
L 99.280609 -128.035342 
L 95.815714 -126.220548 
L 92.350819 -127.675322 
L 88.885924 -130.040265 
L 85.42103 -129.239635 
L 81.956135 -130.331335 
L 78.49124 -130.455379 
L 75.026345 -128.414576 
L 71.561451 -133.016004 
L 68.096556 -138.696327 
L 64.631661 -144.065355 
L 61.166766 -147.102442 
L 57.701872 -150.756064 
L 54.236977 -147.08734 
L 50.772082 -125.422731 
L 47.307188 -121.292133 
z
" style="stroke: #808080; stroke-opacity: 0.7"/>
    </defs>
    <g clip-path="url(#p34967fafd0)">
     <use xlink:href="#m2800b1bb54" x="0" y="424.5775" style="fill: #808080; fill-opacity: 0.7; stroke: #808080; stroke-opacity: 0.7"/>
    </g>
   </g>
   <g id="line2d_31">
    <path d="M 47.307188 339.128835 
L 50.772082 334.15214 
L 54.236977 325.509199 
L 57.701872 322.991125 
L 61.166766 344.931602 
L 64.631661 339.606243 
L 68.096556 334.991539 
L 71.561451 337.685874 
L 75.026345 327.526023 
L 78.49124 338.300499 
L 81.956135 334.312902 
L 85.42103 328.745743 
L 88.885924 327.597871 
L 92.350819 327.563286 
L 95.815714 332.573972 
L 99.280609 335.480239 
L 102.745503 333.120649 
L 106.210398 338.717835 
L 109.675293 336.261123 
L 113.140187 330.726148 
L 116.605082 338.129453 
L 120.069977 336.239094 
L 123.534872 332.639391 
L 126.999766 331.006749 
L 130.464661 329.635666 
L 133.929556 335.329032 
L 137.394451 340.295094 
L 140.859345 338.561552 
L 144.32424 334.07435 
L 147.789135 333.375592 
L 151.25403 327.265325 
L 154.718924 331.980306 
L 158.183819 331.861107 
L 161.648714 342.070836 
L 165.113609 331.151726 
L 168.578503 331.949825 
L 172.043398 350.13346 
L 175.508293 341.565849 
L 178.973187 345.84422 
L 182.438082 335.153847 
L 185.902977 335.915632 
L 189.367872 340.493655 
L 192.832766 344.183528 
L 196.297661 337.581991 
L 199.762556 323.26447 
L 203.227451 339.07212 
L 206.692345 306.231918 
L 210.15724 303.379709 
L 213.622135 301.892862 
L 217.08703 308.380347 
L 220.551924 307.585082 
L 224.016819 322.478095 
L 227.481714 356.186733 
L 230.946609 340.530401 
L 234.411503 342.694565 
L 237.876398 339.040573 
L 241.341293 330.370059 
L 244.806187 324.384773 
L 248.271082 339.823392 
L 251.735977 324.474655 
L 255.200872 336.32363 
L 258.665766 338.703645 
L 262.130661 326.921564 
L 265.595556 330.559577 
L 269.060451 318.290193 
L 272.525345 325.582281 
L 275.99024 325.325546 
L 279.455135 327.068635 
L 282.92003 304.677296 
L 286.384924 315.987494 
L 289.849819 321.190207 
L 293.314714 316.456881 
L 296.779609 328.060538 
L 300.244503 297.148091 
L 303.709398 323.054322 
L 307.174293 316.060648 
L 310.639187 335.088886 
L 314.104082 327.733341 
L 317.568977 324.784401 
L 321.033872 335.390219 
L 324.498766 321.406847 
L 327.963661 329.476916 
L 331.428556 321.07026 
L 334.893451 319.991725 
L 338.358345 333.466162 
L 341.82324 326.821145 
L 345.288135 327.574296 
L 348.75303 333.27518 
L 352.217924 301.497664 
L 355.682819 309.420282 
L 359.147714 319.916275 
L 362.612609 321.056705 
L 366.077503 324.202399 
L 369.542398 318.59567 
L 373.007293 336.25495 
L 376.472188 326.241461 
L 379.937082 324.869527 
L 383.401977 332.917403 
L 386.866872 330.013658 
L 390.331766 333.850668 
L 393.796661 341.939695 
L 397.261556 295.950547 
L 400.726451 292.835259 
L 404.191345 253.301488 
L 407.65624 282.318302 
L 411.121135 302.87962 
L 414.58603 321.893621 
L 418.050924 290.048389 
L 421.515819 287.517973 
L 424.980714 330.676808 
L 428.445609 315.39022 
L 431.910503 344.320952 
L 435.375398 345.881295 
L 438.840293 340.666052 
L 442.305187 336.210104 
L 445.770082 313.364361 
L 449.234977 298.774172 
L 452.699872 296.496517 
L 456.164766 244.661164 
L 459.629661 234.95792 
L 463.094556 304.939123 
L 466.559451 294.170408 
L 470.024345 299.980607 
L 473.48924 282.418284 
L 476.954135 279.568568 
L 480.41903 275.518008 
L 483.883924 263.954421 
L 487.348819 289.884954 
L 490.813714 288.274923 
L 494.278609 309.842934 
L 497.743503 318.850109 
L 501.208398 325.516569 
L 504.673293 307.139368 
L 508.138188 310.164637 
L 511.603082 319.919764 
L 515.067977 316.87098 
L 518.532872 309.181058 
L 521.997766 293.749167 
L 525.462661 306.536293 
L 528.927556 314.171048 
L 532.392451 320.985335 
L 535.857345 326.313227 
L 539.32224 335.650159 
L 542.787135 320.264667 
L 546.25203 328.555918 
L 549.716924 328.65286 
L 553.181819 323.333572 
L 556.646714 323.824546 
L 560.111609 326.14665 
L 563.576503 358.131672 
L 567.041398 348.940564 
L 570.506293 353.615035 
L 573.971188 346.834634 
L 577.436082 343.645567 
L 580.900977 343.011806 
L 584.365872 338.922164 
L 587.830766 333.022038 
L 591.295661 312.387825 
L 594.760556 324.095262 
L 598.225451 340.771786 
L 601.690345 335.720932 
L 605.15524 325.928217 
L 608.620135 304.012905 
L 612.08503 327.584574 
L 615.549924 315.020041 
L 619.014819 338.994908 
L 622.479714 334.017129 
L 625.944609 349.922934 
L 629.409503 348.760733 
L 632.874398 343.105011 
L 636.339293 344.842863 
L 639.804188 338.652051 
L 643.269082 328.356564 
L 646.733977 339.444975 
L 650.198872 350.012865 
L 653.663766 331.587179 
L 657.128661 320.109556 
L 660.593556 328.576247 
L 664.058451 340.190469 
L 667.523345 334.21314 
L 670.98824 287.715541 
L 674.453135 323.333059 
L 677.91803 334.23556 
L 681.382924 322.500956 
L 684.847819 296.081125 
L 688.312714 276.566389 
L 691.777609 280.936773 
L 695.242503 296.571874 
L 698.707398 303.958077 
L 702.172293 285.246518 
L 705.637188 284.525095 
L 705.637188 284.525095 
" clip-path="url(#p34967fafd0)" style="fill: none; stroke: #ff8c00; stroke-width: 2.3; stroke-linecap: square"/>
   </g>
   <g id="line2d_32">
    <path d="M 275.99024 384.117812 
L 275.99024 23.837812 
" clip-path="url(#p34967fafd0)" style="fill: none; stroke-dasharray: 5.55,2.4; stroke-dashoffset: 0; stroke: #808080; stroke-width: 1.5"/>
   </g>
   <g id="line2d_33">
    <path d="M 473.48924 384.117812 
L 473.48924 23.837812 
" clip-path="url(#p34967fafd0)" style="fill: none; stroke-dasharray: 5.55,2.4; stroke-dashoffset: 0; stroke: #808080; stroke-width: 1.5"/>
   </g>
   <g id="patch_3">
    <path d="M 47.307188 384.117812 
L 47.307188 23.837812 
" style="fill: none; stroke: #000000; stroke-width: 0.8; stroke-linejoin: miter; stroke-linecap: square"/>
   </g>
   <g id="patch_4">
    <path d="M 705.637188 384.117812 
L 705.637188 23.837812 
" style="fill: none; stroke: #000000; stroke-width: 0.8; stroke-linejoin: miter; stroke-linecap: square"/>
   </g>
   <g id="patch_5">
    <path d="M 47.307188 384.117812 
L 705.637188 384.117812 
" style="fill: none; stroke: #000000; stroke-width: 0.8; stroke-linejoin: miter; stroke-linecap: square"/>
   </g>
   <g id="patch_6">
    <path d="M 47.307188 23.837812 
L 705.637188 23.837812 
" style="fill: none; stroke: #000000; stroke-width: 0.8; stroke-linejoin: miter; stroke-linecap: square"/>
   </g>
   <g id="text_18">
    <!-- Facial trace: Control group (female) -->
    <g transform="translate(252.222188 17.837812) scale(0.14 -0.14)">
     <defs>
      <path id="DejaVuSans-46" d="M 628 4666 
L 3309 4666 
L 3309 4134 
L 1259 4134 
L 1259 2759 
L 3109 2759 
L 3109 2228 
L 1259 2228 
L 1259 0 
L 628 0 
L 628 4666 
z
" transform="scale(0.015625)"/>
      <path id="DejaVuSans-63" d="M 3122 3366 
L 3122 2828 
Q 2878 2963 2633 3030 
Q 2388 3097 2138 3097 
Q 1578 3097 1268 2742 
Q 959 2388 959 1747 
Q 959 1106 1268 751 
Q 1578 397 2138 397 
Q 2388 397 2633 464 
Q 2878 531 3122 666 
L 3122 134 
Q 2881 22 2623 -34 
Q 2366 -91 2075 -91 
Q 1284 -91 818 406 
Q 353 903 353 1747 
Q 353 2603 823 3093 
Q 1294 3584 2113 3584 
Q 2378 3584 2631 3529 
Q 2884 3475 3122 3366 
z
" transform="scale(0.015625)"/>
      <path id="DejaVuSans-6c" d="M 603 4863 
L 1178 4863 
L 1178 0 
L 603 0 
L 603 4863 
z
" transform="scale(0.015625)"/>
      <path id="DejaVuSans-72" d="M 2631 2963 
Q 2534 3019 2420 3045 
Q 2306 3072 2169 3072 
Q 1681 3072 1420 2755 
Q 1159 2438 1159 1844 
L 1159 0 
L 581 0 
L 581 3500 
L 1159 3500 
L 1159 2956 
Q 1341 3275 1631 3429 
Q 1922 3584 2338 3584 
Q 2397 3584 2469 3576 
Q 2541 3569 2628 3553 
L 2631 2963 
z
" transform="scale(0.015625)"/>
      <path id="DejaVuSans-3a" d="M 750 794 
L 1409 794 
L 1409 0 
L 750 0 
L 750 794 
z
M 750 3309 
L 1409 3309 
L 1409 2516 
L 750 2516 
L 750 3309 
z
" transform="scale(0.015625)"/>
      <path id="DejaVuSans-43" d="M 4122 4306 
L 4122 3641 
Q 3803 3938 3442 4084 
Q 3081 4231 2675 4231 
Q 1875 4231 1450 3742 
Q 1025 3253 1025 2328 
Q 1025 1406 1450 917 
Q 1875 428 2675 428 
Q 3081 428 3442 575 
Q 3803 722 4122 1019 
L 4122 359 
Q 3791 134 3420 21 
Q 3050 -91 2638 -91 
Q 1578 -91 968 557 
Q 359 1206 359 2328 
Q 359 3453 968 4101 
Q 1578 4750 2638 4750 
Q 3056 4750 3426 4639 
Q 3797 4528 4122 4306 
z
" transform="scale(0.015625)"/>
      <path id="DejaVuSans-6f" d="M 1959 3097 
Q 1497 3097 1228 2736 
Q 959 2375 959 1747 
Q 959 1119 1226 758 
Q 1494 397 1959 397 
Q 2419 397 2687 759 
Q 2956 1122 2956 1747 
Q 2956 2369 2687 2733 
Q 2419 3097 1959 3097 
z
M 1959 3584 
Q 2709 3584 3137 3096 
Q 3566 2609 3566 1747 
Q 3566 888 3137 398 
Q 2709 -91 1959 -91 
Q 1206 -91 779 398 
Q 353 888 353 1747 
Q 353 2609 779 3096 
Q 1206 3584 1959 3584 
z
" transform="scale(0.015625)"/>
      <path id="DejaVuSans-67" d="M 2906 1791 
Q 2906 2416 2648 2759 
Q 2391 3103 1925 3103 
Q 1463 3103 1205 2759 
Q 947 2416 947 1791 
Q 947 1169 1205 825 
Q 1463 481 1925 481 
Q 2391 481 2648 825 
Q 2906 1169 2906 1791 
z
M 3481 434 
Q 3481 -459 3084 -895 
Q 2688 -1331 1869 -1331 
Q 1566 -1331 1297 -1286 
Q 1028 -1241 775 -1147 
L 775 -588 
Q 1028 -725 1275 -790 
Q 1522 -856 1778 -856 
Q 2344 -856 2625 -561 
Q 2906 -266 2906 331 
L 2906 616 
Q 2728 306 2450 153 
Q 2172 0 1784 0 
Q 1141 0 747 490 
Q 353 981 353 1791 
Q 353 2603 747 3093 
Q 1141 3584 1784 3584 
Q 2172 3584 2450 3431 
Q 2728 3278 2906 2969 
L 2906 3500 
L 3481 3500 
L 3481 434 
z
" transform="scale(0.015625)"/>
      <path id="DejaVuSans-75" d="M 544 1381 
L 544 3500 
L 1119 3500 
L 1119 1403 
Q 1119 906 1312 657 
Q 1506 409 1894 409 
Q 2359 409 2629 706 
Q 2900 1003 2900 1516 
L 2900 3500 
L 3475 3500 
L 3475 0 
L 2900 0 
L 2900 538 
Q 2691 219 2414 64 
Q 2138 -91 1772 -91 
Q 1169 -91 856 284 
Q 544 659 544 1381 
z
M 1991 3584 
L 1991 3584 
z
" transform="scale(0.015625)"/>
      <path id="DejaVuSans-70" d="M 1159 525 
L 1159 -1331 
L 581 -1331 
L 581 3500 
L 1159 3500 
L 1159 2969 
Q 1341 3281 1617 3432 
Q 1894 3584 2278 3584 
Q 2916 3584 3314 3078 
Q 3713 2572 3713 1747 
Q 3713 922 3314 415 
Q 2916 -91 2278 -91 
Q 1894 -91 1617 61 
Q 1341 213 1159 525 
z
M 3116 1747 
Q 3116 2381 2855 2742 
Q 2594 3103 2138 3103 
Q 1681 3103 1420 2742 
Q 1159 2381 1159 1747 
Q 1159 1113 1420 752 
Q 1681 391 2138 391 
Q 2594 391 2855 752 
Q 3116 1113 3116 1747 
z
" transform="scale(0.015625)"/>
      <path id="DejaVuSans-66" d="M 2375 4863 
L 2375 4384 
L 1825 4384 
Q 1516 4384 1395 4259 
Q 1275 4134 1275 3809 
L 1275 3500 
L 2222 3500 
L 2222 3053 
L 1275 3053 
L 1275 0 
L 697 0 
L 697 3053 
L 147 3053 
L 147 3500 
L 697 3500 
L 697 3744 
Q 697 4328 969 4595 
Q 1241 4863 1831 4863 
L 2375 4863 
z
" transform="scale(0.015625)"/>
     </defs>
     <use xlink:href="#DejaVuSans-46"/>
     <use xlink:href="#DejaVuSans-61" transform="translate(48.394531 0)"/>
     <use xlink:href="#DejaVuSans-63" transform="translate(109.673828 0)"/>
     <use xlink:href="#DejaVuSans-69" transform="translate(164.654297 0)"/>
     <use xlink:href="#DejaVuSans-61" transform="translate(192.4375 0)"/>
     <use xlink:href="#DejaVuSans-6c" transform="translate(253.716797 0)"/>
     <use xlink:href="#DejaVuSans-20" transform="translate(281.5 0)"/>
     <use xlink:href="#DejaVuSans-74" transform="translate(313.287109 0)"/>
     <use xlink:href="#DejaVuSans-72" transform="translate(352.496094 0)"/>
     <use xlink:href="#DejaVuSans-61" transform="translate(393.609375 0)"/>
     <use xlink:href="#DejaVuSans-63" transform="translate(454.888672 0)"/>
     <use xlink:href="#DejaVuSans-65" transform="translate(509.869141 0)"/>
     <use xlink:href="#DejaVuSans-3a" transform="translate(571.392578 0)"/>
     <use xlink:href="#DejaVuSans-20" transform="translate(605.083984 0)"/>
     <use xlink:href="#DejaVuSans-43" transform="translate(636.871094 0)"/>
     <use xlink:href="#DejaVuSans-6f" transform="translate(706.695312 0)"/>
     <use xlink:href="#DejaVuSans-6e" transform="translate(767.876953 0)"/>
     <use xlink:href="#DejaVuSans-74" transform="translate(831.255859 0)"/>
     <use xlink:href="#DejaVuSans-72" transform="translate(870.464844 0)"/>
     <use xlink:href="#DejaVuSans-6f" transform="translate(909.328125 0)"/>
     <use xlink:href="#DejaVuSans-6c" transform="translate(970.509766 0)"/>
     <use xlink:href="#DejaVuSans-20" transform="translate(998.292969 0)"/>
     <use xlink:href="#DejaVuSans-67" transform="translate(1030.080078 0)"/>
     <use xlink:href="#DejaVuSans-72" transform="translate(1093.556641 0)"/>
     <use xlink:href="#DejaVuSans-6f" transform="translate(1132.419922 0)"/>
     <use xlink:href="#DejaVuSans-75" transform="translate(1193.601562 0)"/>
     <use xlink:href="#DejaVuSans-70" transform="translate(1256.980469 0)"/>
     <use xlink:href="#DejaVuSans-20" transform="translate(1320.457031 0)"/>
     <use xlink:href="#DejaVuSans-28" transform="translate(1352.244141 0)"/>
     <use xlink:href="#DejaVuSans-66" transform="translate(1391.257812 0)"/>
     <use xlink:href="#DejaVuSans-65" transform="translate(1426.462891 0)"/>
     <use xlink:href="#DejaVuSans-6d" transform="translate(1487.986328 0)"/>
     <use xlink:href="#DejaVuSans-61" transform="translate(1585.398438 0)"/>
     <use xlink:href="#DejaVuSans-6c" transform="translate(1646.677734 0)"/>
     <use xlink:href="#DejaVuSans-65" transform="translate(1674.460938 0)"/>
     <use xlink:href="#DejaVuSans-29" transform="translate(1735.984375 0)"/>
    </g>
   </g>
   <g id="legend_1">
    <g id="patch_7">
     <path d="M 532.639844 42.096094 
L 554.639844 42.096094 
L 554.639844 34.396094 
L 532.639844 34.396094 
z
" style="fill: #d3d3d3; fill-opacity: 0.5; stroke: #d3d3d3; stroke-opacity: 0.5; stroke-linejoin: miter"/>
    </g>
    <g id="text_19">
     <!-- Control group ±2 SD -->
     <g transform="translate(563.439844 42.096094) scale(0.11 -0.11)">
      <defs>
       <path id="DejaVuSans-b1" d="M 2944 4013 
L 2944 2803 
L 4684 2803 
L 4684 2272 
L 2944 2272 
L 2944 1063 
L 2419 1063 
L 2419 2272 
L 678 2272 
L 678 2803 
L 2419 2803 
L 2419 4013 
L 2944 4013 
z
M 678 531 
L 4684 531 
L 4684 0 
L 678 0 
L 678 531 
z
" transform="scale(0.015625)"/>
       <path id="DejaVuSans-53" d="M 3425 4513 
L 3425 3897 
Q 3066 4069 2747 4153 
Q 2428 4238 2131 4238 
Q 1616 4238 1336 4038 
Q 1056 3838 1056 3469 
Q 1056 3159 1242 3001 
Q 1428 2844 1947 2747 
L 2328 2669 
Q 3034 2534 3370 2195 
Q 3706 1856 3706 1288 
Q 3706 609 3251 259 
Q 2797 -91 1919 -91 
Q 1588 -91 1214 -16 
Q 841 59 441 206 
L 441 856 
Q 825 641 1194 531 
Q 1563 422 1919 422 
Q 2459 422 2753 634 
Q 3047 847 3047 1241 
Q 3047 1584 2836 1778 
Q 2625 1972 2144 2069 
L 1759 2144 
Q 1053 2284 737 2584 
Q 422 2884 422 3419 
Q 422 4038 858 4394 
Q 1294 4750 2059 4750 
Q 2388 4750 2728 4690 
Q 3069 4631 3425 4513 
z
" transform="scale(0.015625)"/>
       <path id="DejaVuSans-44" d="M 1259 4147 
L 1259 519 
L 2022 519 
Q 2988 519 3436 956 
Q 3884 1394 3884 2338 
Q 3884 3275 3436 3711 
Q 2988 4147 2022 4147 
L 1259 4147 
z
M 628 4666 
L 1925 4666 
Q 3281 4666 3915 4102 
Q 4550 3538 4550 2338 
Q 4550 1131 3912 565 
Q 3275 0 1925 0 
L 628 0 
L 628 4666 
z
" transform="scale(0.015625)"/>
      </defs>
      <use xlink:href="#DejaVuSans-43"/>
      <use xlink:href="#DejaVuSans-6f" transform="translate(69.824219 0)"/>
      <use xlink:href="#DejaVuSans-6e" transform="translate(131.005859 0)"/>
      <use xlink:href="#DejaVuSans-74" transform="translate(194.384766 0)"/>
      <use xlink:href="#DejaVuSans-72" transform="translate(233.59375 0)"/>
      <use xlink:href="#DejaVuSans-6f" transform="translate(272.457031 0)"/>
      <use xlink:href="#DejaVuSans-6c" transform="translate(333.638672 0)"/>
      <use xlink:href="#DejaVuSans-20" transform="translate(361.421875 0)"/>
      <use xlink:href="#DejaVuSans-67" transform="translate(393.208984 0)"/>
      <use xlink:href="#DejaVuSans-72" transform="translate(456.685547 0)"/>
      <use xlink:href="#DejaVuSans-6f" transform="translate(495.548828 0)"/>
      <use xlink:href="#DejaVuSans-75" transform="translate(556.730469 0)"/>
      <use xlink:href="#DejaVuSans-70" transform="translate(620.109375 0)"/>
      <use xlink:href="#DejaVuSans-20" transform="translate(683.585938 0)"/>
      <use xlink:href="#DejaVuSans-b1" transform="translate(715.373047 0)"/>
      <use xlink:href="#DejaVuSans-32" transform="translate(799.162109 0)"/>
      <use xlink:href="#DejaVuSans-20" transform="translate(862.785156 0)"/>
      <use xlink:href="#DejaVuSans-53" transform="translate(894.572266 0)"/>
      <use xlink:href="#DejaVuSans-44" transform="translate(958.048828 0)"/>
     </g>
    </g>
    <g id="patch_8">
     <path d="M 532.639844 58.242031 
L 554.639844 58.242031 
L 554.639844 50.542031 
L 532.639844 50.542031 
z
" style="fill: #808080; fill-opacity: 0.7; stroke: #808080; stroke-opacity: 0.7; stroke-linejoin: miter"/>
    </g>
    <g id="text_20">
     <!-- Control group ±1 SD -->
     <g transform="translate(563.439844 58.242031) scale(0.11 -0.11)">
      <use xlink:href="#DejaVuSans-43"/>
      <use xlink:href="#DejaVuSans-6f" transform="translate(69.824219 0)"/>
      <use xlink:href="#DejaVuSans-6e" transform="translate(131.005859 0)"/>
      <use xlink:href="#DejaVuSans-74" transform="translate(194.384766 0)"/>
      <use xlink:href="#DejaVuSans-72" transform="translate(233.59375 0)"/>
      <use xlink:href="#DejaVuSans-6f" transform="translate(272.457031 0)"/>
      <use xlink:href="#DejaVuSans-6c" transform="translate(333.638672 0)"/>
      <use xlink:href="#DejaVuSans-20" transform="translate(361.421875 0)"/>
      <use xlink:href="#DejaVuSans-67" transform="translate(393.208984 0)"/>
      <use xlink:href="#DejaVuSans-72" transform="translate(456.685547 0)"/>
      <use xlink:href="#DejaVuSans-6f" transform="translate(495.548828 0)"/>
      <use xlink:href="#DejaVuSans-75" transform="translate(556.730469 0)"/>
      <use xlink:href="#DejaVuSans-70" transform="translate(620.109375 0)"/>
      <use xlink:href="#DejaVuSans-20" transform="translate(683.585938 0)"/>
      <use xlink:href="#DejaVuSans-b1" transform="translate(715.373047 0)"/>
      <use xlink:href="#DejaVuSans-31" transform="translate(799.162109 0)"/>
      <use xlink:href="#DejaVuSans-20" transform="translate(862.785156 0)"/>
      <use xlink:href="#DejaVuSans-53" transform="translate(894.572266 0)"/>
      <use xlink:href="#DejaVuSans-44" transform="translate(958.048828 0)"/>
     </g>
    </g>
    <g id="line2d_34">
     <path d="M 532.639844 70.537969 
L 543.639844 70.537969 
L 554.639844 70.537969 
" style="fill: none; stroke: #ff8c00; stroke-width: 2.3; stroke-linecap: square"/>
    </g>
    <g id="text_21">
     <!-- Control group prototype -->
     <g transform="translate(563.439844 74.387969) scale(0.11 -0.11)">
      <use xlink:href="#DejaVuSans-43"/>
      <use xlink:href="#DejaVuSans-6f" transform="translate(69.824219 0)"/>
      <use xlink:href="#DejaVuSans-6e" transform="translate(131.005859 0)"/>
      <use xlink:href="#DejaVuSans-74" transform="translate(194.384766 0)"/>
      <use xlink:href="#DejaVuSans-72" transform="translate(233.59375 0)"/>
      <use xlink:href="#DejaVuSans-6f" transform="translate(272.457031 0)"/>
      <use xlink:href="#DejaVuSans-6c" transform="translate(333.638672 0)"/>
      <use xlink:href="#DejaVuSans-20" transform="translate(361.421875 0)"/>
      <use xlink:href="#DejaVuSans-67" transform="translate(393.208984 0)"/>
      <use xlink:href="#DejaVuSans-72" transform="translate(456.685547 0)"/>
      <use xlink:href="#DejaVuSans-6f" transform="translate(495.548828 0)"/>
      <use xlink:href="#DejaVuSans-75" transform="translate(556.730469 0)"/>
      <use xlink:href="#DejaVuSans-70" transform="translate(620.109375 0)"/>
      <use xlink:href="#DejaVuSans-20" transform="translate(683.585938 0)"/>
      <use xlink:href="#DejaVuSans-70" transform="translate(715.373047 0)"/>
      <use xlink:href="#DejaVuSans-72" transform="translate(778.849609 0)"/>
      <use xlink:href="#DejaVuSans-6f" transform="translate(817.712891 0)"/>
      <use xlink:href="#DejaVuSans-74" transform="translate(878.894531 0)"/>
      <use xlink:href="#DejaVuSans-6f" transform="translate(918.103516 0)"/>
      <use xlink:href="#DejaVuSans-74" transform="translate(979.285156 0)"/>
      <use xlink:href="#DejaVuSans-79" transform="translate(1018.494141 0)"/>
      <use xlink:href="#DejaVuSans-70" transform="translate(1077.673828 0)"/>
      <use xlink:href="#DejaVuSans-65" transform="translate(1141.150391 0)"/>
     </g>
    </g>
   </g>
  </g>
 </g>
 <defs>
  <clipPath id="p34967fafd0">
   <rect x="47.307188" y="23.837812" width="658.33" height="360.28"/>
  </clipPath>
 </defs>
</svg>
