<?xml version="1.0" encoding="utf-8" standalone="no"?>
<!DOCTYPE svg PUBLIC "-//W3C//DTD SVG 1.1//EN"
  "http://www.w3.org/Graphics/SVG/1.1/DTD/svg11.dtd">
<svg xmlns:xlink="http://www.w3.org/1999/xlink" width="712.837188pt" height="424.5775pt" viewBox="0 0 712.837188 424.5775" xmlns="http://www.w3.org/2000/svg" version="1.1">
 <metadata>
  <rdf:RDF xmlns:dc="http://purl.org/dc/elements/1.1/" xmlns:cc="http://creativecommons.org/ns#" xmlns:rdf="http://www.w3.org/1999/02/22-rdf-syntax-ns#">
   <cc:Work>
    <dc:type rdf:resource="http://purl.org/dc/dcmitype/StillImage"/>
    <dc:date>2026-06-14T18:59:55.139486</dc:date>
    <dc:format>image/svg+xml</dc:format>
    <dc:creator>
     <cc:Agent>
      <dc:title>Matplotlib v3.10.1, https://matplotlib.org/</dc:title>
     </cc:Agent>
    </dc:creator>
   </cc:Work>
  </rdf:RDF>
 </metadata>
 <defs>
  <style type="text/css">*{stroke-linejoin: round; stroke-linecap: butt}</style>
 </defs>
 <g id="figure_1">
  <g id="patch_1">
   <path d="M 0 424.5775 
L 712.837188 424.5775 
L 712.837188 0 
L 0 0 
z
" style="fill: #ffffff"/>
  </g>
  <g id="axes_1">
   <g id="patch_2">
    <path d="M 47.307188 384.117812 
L 705.637188 384.117812 
L 705.637188 23.837812 
L 47.307188 23.837812 
z
" style="fill: #ffffff"/>
   </g>
   <g id="matplotlib.axis_1">
    <g id="xtick_1">
     <g id="line2d_1">
      <path d="M 47.307188 384.117812 
L 47.307188 23.837812 
" clip-path="url(#p62b4ad44c0)" style="fill: none; stroke: #b0b0b0; stroke-opacity: 0.2; stroke-width: 0.6; stroke-linecap: square"/>
     </g>
     <g id="line2d_2">
      <defs>
       <path id="mfafed7dede" d="M 0 0 
L 0 3.5 
" style="stroke: #000000; stroke-width: 0.8"/>
      </defs>
      <g>
       <use xlink:href="#mfafed7dede" x="47.307188" y="384.117812" style="stroke: #000000; stroke-width: 0.8"/>
      </g>
     </g>
     <g id="text_1">
      <!-- 0 -->
      <g transform="translate(43.807813 399.476094) scale(0.11 -0.11)">
       <defs>
        <path id="DejaVuSans-30" d="M 2034 4250 
Q 1547 4250 1301 3770 
Q 1056 3291 1056 2328 
Q 1056 1369 1301 889 
Q 1547 409 2034 409 
Q 2525 409 2770 889 
Q 3016 1369 3016 2328 
Q 3016 3291 2770 3770 
Q 2525 4250 2034 4250 
z
M 2034 4750 
Q 2819 4750 3233 4129 
Q 3647 3509 3647 2328 
Q 3647 1150 3233 529 
Q 2819 -91 2034 -91 
Q 1250 -91 836 529 
Q 422 1150 422 2328 
Q 422 3509 836 4129 
Q 1250 4750 2034 4750 
z
" transform="scale(0.015625)"/>
       </defs>
       <use xlink:href="#DejaVuSans-30"/>
      </g>
     </g>
    </g>
    <g id="xtick_2">
     <g id="line2d_3">
      <path d="M 134.387875 384.117812 
L 134.387875 23.837812 
" clip-path="url(#p62b4ad44c0)" style="fill: none; stroke: #b0b0b0; stroke-opacity: 0.2; stroke-width: 0.6; stroke-linecap: square"/>
     </g>
     <g id="line2d_4">
      <g>
       <use xlink:href="#mfafed7dede" x="134.387875" y="384.117812" style="stroke: #000000; stroke-width: 0.8"/>
      </g>
     </g>
     <g id="text_2">
      <!-- 25 -->
      <g transform="translate(127.389125 399.476094) scale(0.11 -0.11)">
       <defs>
        <path id="DejaVuSans-32" d="M 1228 531 
L 3431 531 
L 3431 0 
L 469 0 
L 469 531 
Q 828 903 1448 1529 
Q 2069 2156 2228 2338 
Q 2531 2678 2651 2914 
Q 2772 3150 2772 3378 
Q 2772 3750 2511 3984 
Q 2250 4219 1831 4219 
Q 1534 4219 1204 4116 
Q 875 4013 500 3803 
L 500 4441 
Q 881 4594 1212 4672 
Q 1544 4750 1819 4750 
Q 2544 4750 2975 4387 
Q 3406 4025 3406 3419 
Q 3406 3131 3298 2873 
Q 3191 2616 2906 2266 
Q 2828 2175 2409 1742 
Q 1991 1309 1228 531 
z
" transform="scale(0.015625)"/>
        <path id="DejaVuSans-35" d="M 691 4666 
L 3169 4666 
L 3169 4134 
L 1269 4134 
L 1269 2991 
Q 1406 3038 1543 3061 
Q 1681 3084 1819 3084 
Q 2600 3084 3056 2656 
Q 3513 2228 3513 1497 
Q 3513 744 3044 326 
Q 2575 -91 1722 -91 
Q 1428 -91 1123 -41 
Q 819 9 494 109 
L 494 744 
Q 775 591 1075 516 
Q 1375 441 1709 441 
Q 2250 441 2565 725 
Q 2881 1009 2881 1497 
Q 2881 1984 2565 2268 
Q 2250 2553 1709 2553 
Q 1456 2553 1204 2497 
Q 953 2441 691 2322 
L 691 4666 
z
" transform="scale(0.015625)"/>
       </defs>
       <use xlink:href="#DejaVuSans-32"/>
       <use xlink:href="#DejaVuSans-35" transform="translate(63.623047 0)"/>
      </g>
     </g>
    </g>
    <g id="xtick_3">
     <g id="line2d_5">
      <path d="M 221.468563 384.117812 
L 221.468563 23.837812 
" clip-path="url(#p62b4ad44c0)" style="fill: none; stroke: #b0b0b0; stroke-opacity: 0.2; stroke-width: 0.6; stroke-linecap: square"/>
     </g>
     <g id="line2d_6">
      <g>
       <use xlink:href="#mfafed7dede" x="221.468563" y="384.117812" style="stroke: #000000; stroke-width: 0.8"/>
      </g>
     </g>
     <g id="text_3">
      <!-- 50 -->
      <g transform="translate(214.469813 399.476094) scale(0.11 -0.11)">
       <use xlink:href="#DejaVuSans-35"/>
       <use xlink:href="#DejaVuSans-30" transform="translate(63.623047 0)"/>
      </g>
     </g>
    </g>
    <g id="xtick_4">
     <g id="line2d_7">
      <path d="M 308.549251 384.117812 
L 308.549251 23.837812 
" clip-path="url(#p62b4ad44c0)" style="fill: none; stroke: #b0b0b0; stroke-opacity: 0.2; stroke-width: 0.6; stroke-linecap: square"/>
     </g>
     <g id="line2d_8">
      <g>
       <use xlink:href="#mfafed7dede" x="308.549251" y="384.117812" style="stroke: #000000; stroke-width: 0.8"/>
      </g>
     </g>
     <g id="text_4">
      <!-- 75 -->
      <g transform="translate(301.550501 399.476094) scale(0.11 -0.11)">
       <defs>
        <path id="DejaVuSans-37" d="M 525 4666 
L 3525 4666 
L 3525 4397 
L 1831 0 
L 1172 0 
L 2766 4134 
L 525 4134 
L 525 4666 
z
" transform="scale(0.015625)"/>
       </defs>
       <use xlink:href="#DejaVuSans-37"/>
       <use xlink:href="#DejaVuSans-35" transform="translate(63.623047 0)"/>
      </g>
     </g>
    </g>
    <g id="xtick_5">
     <g id="line2d_9">
      <path d="M 395.629939 384.117812 
L 395.629939 23.837812 
" clip-path="url(#p62b4ad44c0)" style="fill: none; stroke: #b0b0b0; stroke-opacity: 0.2; stroke-width: 0.6; stroke-linecap: square"/>
     </g>
     <g id="line2d_10">
      <g>
       <use xlink:href="#mfafed7dede" x="395.629939" y="384.117812" style="stroke: #000000; stroke-width: 0.8"/>
      </g>
     </g>
     <g id="text_5">
      <!-- 100 -->
      <g transform="translate(385.131814 399.476094) scale(0.11 -0.11)">
       <defs>
        <path id="DejaVuSans-31" d="M 794 531 
L 1825 531 
L 1825 4091 
L 703 3866 
L 703 4441 
L 1819 4666 
L 2450 4666 
L 2450 531 
L 3481 531 
L 3481 0 
L 794 0 
L 794 531 
z
" transform="scale(0.015625)"/>
       </defs>
       <use xlink:href="#DejaVuSans-31"/>
       <use xlink:href="#DejaVuSans-30" transform="translate(63.623047 0)"/>
       <use xlink:href="#DejaVuSans-30" transform="translate(127.246094 0)"/>
      </g>
     </g>
    </g>
    <g id="xtick_6">
     <g id="line2d_11">
      <path d="M 482.710627 384.117812 
L 482.710627 23.837812 
" clip-path="url(#p62b4ad44c0)" style="fill: none; stroke: #b0b0b0; stroke-opacity: 0.2; stroke-width: 0.6; stroke-linecap: square"/>
     </g>
     <g id="line2d_12">
      <g>
       <use xlink:href="#mfafed7dede" x="482.710627" y="384.117812" style="stroke: #000000; stroke-width: 0.8"/>
      </g>
     </g>
     <g id="text_6">
      <!-- 125 -->
      <g transform="translate(472.212502 399.476094) scale(0.11 -0.11)">
       <use xlink:href="#DejaVuSans-31"/>
       <use xlink:href="#DejaVuSans-32" transform="translate(63.623047 0)"/>
       <use xlink:href="#DejaVuSans-35" transform="translate(127.246094 0)"/>
      </g>
     </g>
    </g>
    <g id="xtick_7">
     <g id="line2d_13">
      <path d="M 569.791314 384.117812 
L 569.791314 23.837812 
" clip-path="url(#p62b4ad44c0)" style="fill: none; stroke: #b0b0b0; stroke-opacity: 0.2; stroke-width: 0.6; stroke-linecap: square"/>
     </g>
     <g id="line2d_14">
      <g>
       <use xlink:href="#mfafed7dede" x="569.791314" y="384.117812" style="stroke: #000000; stroke-width: 0.8"/>
      </g>
     </g>
     <g id="text_7">
      <!-- 150 -->
      <g transform="translate(559.293189 399.476094) scale(0.11 -0.11)">
       <use xlink:href="#DejaVuSans-31"/>
       <use xlink:href="#DejaVuSans-35" transform="translate(63.623047 0)"/>
       <use xlink:href="#DejaVuSans-30" transform="translate(127.246094 0)"/>
      </g>
     </g>
    </g>
    <g id="xtick_8">
     <g id="line2d_15">
      <path d="M 656.872002 384.117812 
L 656.872002 23.837812 
" clip-path="url(#p62b4ad44c0)" style="fill: none; stroke: #b0b0b0; stroke-opacity: 0.2; stroke-width: 0.6; stroke-linecap: square"/>
     </g>
     <g id="line2d_16">
      <g>
       <use xlink:href="#mfafed7dede" x="656.872002" y="384.117812" style="stroke: #000000; stroke-width: 0.8"/>
      </g>
     </g>
     <g id="text_8">
      <!-- 175 -->
      <g transform="translate(646.373877 399.476094) scale(0.11 -0.11)">
       <use xlink:href="#DejaVuSans-31"/>
       <use xlink:href="#DejaVuSans-37" transform="translate(63.623047 0)"/>
       <use xlink:href="#DejaVuSans-35" transform="translate(127.246094 0)"/>
      </g>
     </g>
    </g>
    <g id="text_9">
     <!-- Time (s) -->
     <g transform="translate(352.0775 414.881875) scale(0.12 -0.12)">
      <defs>
       <path id="DejaVuSans-54" d="M -19 4666 
L 3928 4666 
L 3928 4134 
L 2272 4134 
L 2272 0 
L 1638 0 
L 1638 4134 
L -19 4134 
L -19 4666 
z
" transform="scale(0.015625)"/>
       <path id="DejaVuSans-69" d="M 603 3500 
L 1178 3500 
L 1178 0 
L 603 0 
L 603 3500 
z
M 603 4863 
L 1178 4863 
L 1178 4134 
L 603 4134 
L 603 4863 
z
" transform="scale(0.015625)"/>
       <path id="DejaVuSans-6d" d="M 3328 2828 
Q 3544 3216 3844 3400 
Q 4144 3584 4550 3584 
Q 5097 3584 5394 3201 
Q 5691 2819 5691 2113 
L 5691 0 
L 5113 0 
L 5113 2094 
Q 5113 2597 4934 2840 
Q 4756 3084 4391 3084 
Q 3944 3084 3684 2787 
Q 3425 2491 3425 1978 
L 3425 0 
L 2847 0 
L 2847 2094 
Q 2847 2600 2669 2842 
Q 2491 3084 2119 3084 
Q 1678 3084 1418 2786 
Q 1159 2488 1159 1978 
L 1159 0 
L 581 0 
L 581 3500 
L 1159 3500 
L 1159 2956 
Q 1356 3278 1631 3431 
Q 1906 3584 2284 3584 
Q 2666 3584 2933 3390 
Q 3200 3197 3328 2828 
z
" transform="scale(0.015625)"/>
       <path id="DejaVuSans-65" d="M 3597 1894 
L 3597 1613 
L 953 1613 
Q 991 1019 1311 708 
Q 1631 397 2203 397 
Q 2534 397 2845 478 
Q 3156 559 3463 722 
L 3463 178 
Q 3153 47 2828 -22 
Q 2503 -91 2169 -91 
Q 1331 -91 842 396 
Q 353 884 353 1716 
Q 353 2575 817 3079 
Q 1281 3584 2069 3584 
Q 2775 3584 3186 3129 
Q 3597 2675 3597 1894 
z
M 3022 2063 
Q 3016 2534 2758 2815 
Q 2500 3097 2075 3097 
Q 1594 3097 1305 2825 
Q 1016 2553 972 2059 
L 3022 2063 
z
" transform="scale(0.015625)"/>
       <path id="DejaVuSans-20" transform="scale(0.015625)"/>
       <path id="DejaVuSans-28" d="M 1984 4856 
Q 1566 4138 1362 3434 
Q 1159 2731 1159 2009 
Q 1159 1288 1364 580 
Q 1569 -128 1984 -844 
L 1484 -844 
Q 1016 -109 783 600 
Q 550 1309 550 2009 
Q 550 2706 781 3412 
Q 1013 4119 1484 4856 
L 1984 4856 
z
" transform="scale(0.015625)"/>
       <path id="DejaVuSans-73" d="M 2834 3397 
L 2834 2853 
Q 2591 2978 2328 3040 
Q 2066 3103 1784 3103 
Q 1356 3103 1142 2972 
Q 928 2841 928 2578 
Q 928 2378 1081 2264 
Q 1234 2150 1697 2047 
L 1894 2003 
Q 2506 1872 2764 1633 
Q 3022 1394 3022 966 
Q 3022 478 2636 193 
Q 2250 -91 1575 -91 
Q 1294 -91 989 -36 
Q 684 19 347 128 
L 347 722 
Q 666 556 975 473 
Q 1284 391 1588 391 
Q 1994 391 2212 530 
Q 2431 669 2431 922 
Q 2431 1156 2273 1281 
Q 2116 1406 1581 1522 
L 1381 1569 
Q 847 1681 609 1914 
Q 372 2147 372 2553 
Q 372 3047 722 3315 
Q 1072 3584 1716 3584 
Q 2034 3584 2315 3537 
Q 2597 3491 2834 3397 
z
" transform="scale(0.015625)"/>
       <path id="DejaVuSans-29" d="M 513 4856 
L 1013 4856 
Q 1481 4119 1714 3412 
Q 1947 2706 1947 2009 
Q 1947 1309 1714 600 
Q 1481 -109 1013 -844 
L 513 -844 
Q 928 -128 1133 580 
Q 1338 1288 1338 2009 
Q 1338 2731 1133 3434 
Q 928 4138 513 4856 
z
" transform="scale(0.015625)"/>
      </defs>
      <use xlink:href="#DejaVuSans-54"/>
      <use xlink:href="#DejaVuSans-69" transform="translate(57.958984 0)"/>
      <use xlink:href="#DejaVuSans-6d" transform="translate(85.742188 0)"/>
      <use xlink:href="#DejaVuSans-65" transform="translate(183.154297 0)"/>
      <use xlink:href="#DejaVuSans-20" transform="translate(244.677734 0)"/>
      <use xlink:href="#DejaVuSans-28" transform="translate(276.464844 0)"/>
      <use xlink:href="#DejaVuSans-73" transform="translate(315.478516 0)"/>
      <use xlink:href="#DejaVuSans-29" transform="translate(367.578125 0)"/>
     </g>
    </g>
   </g>
   <g id="matplotlib.axis_2">
    <g id="ytick_1">
     <g id="line2d_17">
      <path d="M 47.307188 367.741449 
L 705.637188 367.741449 
" clip-path="url(#p62b4ad44c0)" style="fill: none; stroke: #b0b0b0; stroke-opacity: 0.2; stroke-width: 0.6; stroke-linecap: square"/>
     </g>
     <g id="line2d_18">
      <defs>
       <path id="mc1f4dd6d3a" d="M 0 0 
L -3.5 0 
" style="stroke: #000000; stroke-width: 0.8"/>
      </defs>
      <g>
       <use xlink:href="#mc1f4dd6d3a" x="47.307188" y="367.741449" style="stroke: #000000; stroke-width: 0.8"/>
      </g>
     </g>
     <g id="text_10">
      <!-- 0.0 -->
      <g transform="translate(22.81375 371.920589) scale(0.11 -0.11)">
       <defs>
        <path id="DejaVuSans-2e" d="M 684 794 
L 1344 794 
L 1344 0 
L 684 0 
L 684 794 
z
" transform="scale(0.015625)"/>
       </defs>
       <use xlink:href="#DejaVuSans-30"/>
       <use xlink:href="#DejaVuSans-2e" transform="translate(63.623047 0)"/>
       <use xlink:href="#DejaVuSans-30" transform="translate(95.410156 0)"/>
      </g>
     </g>
    </g>
    <g id="ytick_2">
     <g id="line2d_19">
      <path d="M 47.307188 317.507205 
L 705.637188 317.507205 
" clip-path="url(#p62b4ad44c0)" style="fill: none; stroke: #b0b0b0; stroke-opacity: 0.2; stroke-width: 0.6; stroke-linecap: square"/>
     </g>
     <g id="line2d_20">
      <g>
       <use xlink:href="#mc1f4dd6d3a" x="47.307188" y="317.507205" style="stroke: #000000; stroke-width: 0.8"/>
      </g>
     </g>
     <g id="text_11">
      <!-- 0.5 -->
      <g transform="translate(22.81375 321.686345) scale(0.11 -0.11)">
       <use xlink:href="#DejaVuSans-30"/>
       <use xlink:href="#DejaVuSans-2e" transform="translate(63.623047 0)"/>
       <use xlink:href="#DejaVuSans-35" transform="translate(95.410156 0)"/>
      </g>
     </g>
    </g>
    <g id="ytick_3">
     <g id="line2d_21">
      <path d="M 47.307188 267.27296 
L 705.637188 267.27296 
" clip-path="url(#p62b4ad44c0)" style="fill: none; stroke: #b0b0b0; stroke-opacity: 0.2; stroke-width: 0.6; stroke-linecap: square"/>
     </g>
     <g id="line2d_22">
      <g>
       <use xlink:href="#mc1f4dd6d3a" x="47.307188" y="267.27296" style="stroke: #000000; stroke-width: 0.8"/>
      </g>
     </g>
     <g id="text_12">
      <!-- 1.0 -->
      <g transform="translate(22.81375 271.452101) scale(0.11 -0.11)">
       <use xlink:href="#DejaVuSans-31"/>
       <use xlink:href="#DejaVuSans-2e" transform="translate(63.623047 0)"/>
       <use xlink:href="#DejaVuSans-30" transform="translate(95.410156 0)"/>
      </g>
     </g>
    </g>
    <g id="ytick_4">
     <g id="line2d_23">
      <path d="M 47.307188 217.038716 
L 705.637188 217.038716 
" clip-path="url(#p62b4ad44c0)" style="fill: none; stroke: #b0b0b0; stroke-opacity: 0.2; stroke-width: 0.6; stroke-linecap: square"/>
     </g>
     <g id="line2d_24">
      <g>
       <use xlink:href="#mc1f4dd6d3a" x="47.307188" y="217.038716" style="stroke: #000000; stroke-width: 0.8"/>
      </g>
     </g>
     <g id="text_13">
      <!-- 1.5 -->
      <g transform="translate(22.81375 221.217857) scale(0.11 -0.11)">
       <use xlink:href="#DejaVuSans-31"/>
       <use xlink:href="#DejaVuSans-2e" transform="translate(63.623047 0)"/>
       <use xlink:href="#DejaVuSans-35" transform="translate(95.410156 0)"/>
      </g>
     </g>
    </g>
    <g id="ytick_5">
     <g id="line2d_25">
      <path d="M 47.307188 166.804472 
L 705.637188 166.804472 
" clip-path="url(#p62b4ad44c0)" style="fill: none; stroke: #b0b0b0; stroke-opacity: 0.2; stroke-width: 0.6; stroke-linecap: square"/>
     </g>
     <g id="line2d_26">
      <g>
       <use xlink:href="#mc1f4dd6d3a" x="47.307188" y="166.804472" style="stroke: #000000; stroke-width: 0.8"/>
      </g>
     </g>
     <g id="text_14">
      <!-- 2.0 -->
      <g transform="translate(22.81375 170.983612) scale(0.11 -0.11)">
       <use xlink:href="#DejaVuSans-32"/>
       <use xlink:href="#DejaVuSans-2e" transform="translate(63.623047 0)"/>
       <use xlink:href="#DejaVuSans-30" transform="translate(95.410156 0)"/>
      </g>
     </g>
    </g>
    <g id="ytick_6">
     <g id="line2d_27">
      <path d="M 47.307188 116.570227 
L 705.637188 116.570227 
" clip-path="url(#p62b4ad44c0)" style="fill: none; stroke: #b0b0b0; stroke-opacity: 0.2; stroke-width: 0.6; stroke-linecap: square"/>
     </g>
     <g id="line2d_28">
      <g>
       <use xlink:href="#mc1f4dd6d3a" x="47.307188" y="116.570227" style="stroke: #000000; stroke-width: 0.8"/>
      </g>
     </g>
     <g id="text_15">
      <!-- 2.5 -->
      <g transform="translate(22.81375 120.749368) scale(0.11 -0.11)">
       <use xlink:href="#DejaVuSans-32"/>
       <use xlink:href="#DejaVuSans-2e" transform="translate(63.623047 0)"/>
       <use xlink:href="#DejaVuSans-35" transform="translate(95.410156 0)"/>
      </g>
     </g>
    </g>
    <g id="ytick_7">
     <g id="line2d_29">
      <path d="M 47.307188 66.335983 
L 705.637188 66.335983 
" clip-path="url(#p62b4ad44c0)" style="fill: none; stroke: #b0b0b0; stroke-opacity: 0.2; stroke-width: 0.6; stroke-linecap: square"/>
     </g>
     <g id="line2d_30">
      <g>
       <use xlink:href="#mc1f4dd6d3a" x="47.307188" y="66.335983" style="stroke: #000000; stroke-width: 0.8"/>
      </g>
     </g>
     <g id="text_16">
      <!-- 3.0 -->
      <g transform="translate(22.81375 70.515124) scale(0.11 -0.11)">
       <defs>
        <path id="DejaVuSans-33" d="M 2597 2516 
Q 3050 2419 3304 2112 
Q 3559 1806 3559 1356 
Q 3559 666 3084 287 
Q 2609 -91 1734 -91 
Q 1441 -91 1130 -33 
Q 819 25 488 141 
L 488 750 
Q 750 597 1062 519 
Q 1375 441 1716 441 
Q 2309 441 2620 675 
Q 2931 909 2931 1356 
Q 2931 1769 2642 2001 
Q 2353 2234 1838 2234 
L 1294 2234 
L 1294 2753 
L 1863 2753 
Q 2328 2753 2575 2939 
Q 2822 3125 2822 3475 
Q 2822 3834 2567 4026 
Q 2313 4219 1838 4219 
Q 1578 4219 1281 4162 
Q 984 4106 628 3988 
L 628 4550 
Q 988 4650 1302 4700 
Q 1616 4750 1894 4750 
Q 2613 4750 3031 4423 
Q 3450 4097 3450 3541 
Q 3450 3153 3228 2886 
Q 3006 2619 2597 2516 
z
" transform="scale(0.015625)"/>
       </defs>
       <use xlink:href="#DejaVuSans-33"/>
       <use xlink:href="#DejaVuSans-2e" transform="translate(63.623047 0)"/>
       <use xlink:href="#DejaVuSans-30" transform="translate(95.410156 0)"/>
      </g>
     </g>
    </g>
    <g id="text_17">
     <!-- AU mean intensity -->
     <g transform="translate(16.318125 259.314687) rotate(-90) scale(0.12 -0.12)">
      <defs>
       <path id="DejaVuSans-41" d="M 2188 4044 
L 1331 1722 
L 3047 1722 
L 2188 4044 
z
M 1831 4666 
L 2547 4666 
L 4325 0 
L 3669 0 
L 3244 1197 
L 1141 1197 
L 716 0 
L 50 0 
L 1831 4666 
z
" transform="scale(0.015625)"/>
       <path id="DejaVuSans-55" d="M 556 4666 
L 1191 4666 
L 1191 1831 
Q 1191 1081 1462 751 
Q 1734 422 2344 422 
Q 2950 422 3222 751 
Q 3494 1081 3494 1831 
L 3494 4666 
L 4128 4666 
L 4128 1753 
Q 4128 841 3676 375 
Q 3225 -91 2344 -91 
Q 1459 -91 1007 375 
Q 556 841 556 1753 
L 556 4666 
z
" transform="scale(0.015625)"/>
       <path id="DejaVuSans-61" d="M 2194 1759 
Q 1497 1759 1228 1600 
Q 959 1441 959 1056 
Q 959 750 1161 570 
Q 1363 391 1709 391 
Q 2188 391 2477 730 
Q 2766 1069 2766 1631 
L 2766 1759 
L 2194 1759 
z
M 3341 1997 
L 3341 0 
L 2766 0 
L 2766 531 
Q 2569 213 2275 61 
Q 1981 -91 1556 -91 
Q 1019 -91 701 211 
Q 384 513 384 1019 
Q 384 1609 779 1909 
Q 1175 2209 1959 2209 
L 2766 2209 
L 2766 2266 
Q 2766 2663 2505 2880 
Q 2244 3097 1772 3097 
Q 1472 3097 1187 3025 
Q 903 2953 641 2809 
L 641 3341 
Q 956 3463 1253 3523 
Q 1550 3584 1831 3584 
Q 2591 3584 2966 3190 
Q 3341 2797 3341 1997 
z
" transform="scale(0.015625)"/>
       <path id="DejaVuSans-6e" d="M 3513 2113 
L 3513 0 
L 2938 0 
L 2938 2094 
Q 2938 2591 2744 2837 
Q 2550 3084 2163 3084 
Q 1697 3084 1428 2787 
Q 1159 2491 1159 1978 
L 1159 0 
L 581 0 
L 581 3500 
L 1159 3500 
L 1159 2956 
Q 1366 3272 1645 3428 
Q 1925 3584 2291 3584 
Q 2894 3584 3203 3211 
Q 3513 2838 3513 2113 
z
" transform="scale(0.015625)"/>
       <path id="DejaVuSans-74" d="M 1172 4494 
L 1172 3500 
L 2356 3500 
L 2356 3053 
L 1172 3053 
L 1172 1153 
Q 1172 725 1289 603 
Q 1406 481 1766 481 
L 2356 481 
L 2356 0 
L 1766 0 
Q 1100 0 847 248 
Q 594 497 594 1153 
L 594 3053 
L 172 3053 
L 172 3500 
L 594 3500 
L 594 4494 
L 1172 4494 
z
" transform="scale(0.015625)"/>
       <path id="DejaVuSans-79" d="M 2059 -325 
Q 1816 -950 1584 -1140 
Q 1353 -1331 966 -1331 
L 506 -1331 
L 506 -850 
L 844 -850 
Q 1081 -850 1212 -737 
Q 1344 -625 1503 -206 
L 1606 56 
L 191 3500 
L 800 3500 
L 1894 763 
L 2988 3500 
L 3597 3500 
L 2059 -325 
z
" transform="scale(0.015625)"/>
      </defs>
      <use xlink:href="#DejaVuSans-41"/>
      <use xlink:href="#DejaVuSans-55" transform="translate(68.408203 0)"/>
      <use xlink:href="#DejaVuSans-20" transform="translate(141.601562 0)"/>
      <use xlink:href="#DejaVuSans-6d" transform="translate(173.388672 0)"/>
      <use xlink:href="#DejaVuSans-65" transform="translate(270.800781 0)"/>
      <use xlink:href="#DejaVuSans-61" transform="translate(332.324219 0)"/>
      <use xlink:href="#DejaVuSans-6e" transform="translate(393.603516 0)"/>
      <use xlink:href="#DejaVuSans-20" transform="translate(456.982422 0)"/>
      <use xlink:href="#DejaVuSans-69" transform="translate(488.769531 0)"/>
      <use xlink:href="#DejaVuSans-6e" transform="translate(516.552734 0)"/>
      <use xlink:href="#DejaVuSans-74" transform="translate(579.931641 0)"/>
      <use xlink:href="#DejaVuSans-65" transform="translate(619.140625 0)"/>
      <use xlink:href="#DejaVuSans-6e" transform="translate(680.664062 0)"/>
      <use xlink:href="#DejaVuSans-73" transform="translate(744.042969 0)"/>
      <use xlink:href="#DejaVuSans-69" transform="translate(796.142578 0)"/>
      <use xlink:href="#DejaVuSans-74" transform="translate(823.925781 0)"/>
      <use xlink:href="#DejaVuSans-79" transform="translate(863.134766 0)"/>
     </g>
    </g>
   </g>
   <g id="FillBetweenPolyCollection_1">
    <defs>
     <path id="m834cd94cd3" d="M 47.307188 -152.903085 
L 47.307188 -28.153546 
L 50.790415 -25.051464 
L 54.273643 -16.736424 
L 57.75687 -16.717303 
L 61.240098 -4.255269 
L 64.723325 -4.342203 
L 68.206553 -3.285398 
L 71.68978 -2.328987 
L 75.173008 -3.663957 
L 78.656235 -5.614187 
L 82.139463 -9.708558 
L 85.62269 -6.346052 
L 89.105918 -2.532341 
L 92.589145 -8.296046 
L 96.072373 -7.239827 
L 99.5556 -2.290108 
L 103.038828 -12.094453 
L 106.522055 -19.891176 
L 110.005283 -16.157304 
L 113.48851 -1.640355 
L 116.971738 2.157435 
L 120.454965 -7.980108 
L 123.938193 -9.110778 
L 127.42142 -18.783511 
L 130.904648 -10.048578 
L 134.387875 -3.726417 
L 137.871103 -0.884712 
L 141.35433 -4.484111 
L 144.837558 -4.671626 
L 148.320785 -9.69268 
L 151.804013 -2.419414 
L 155.28724 -4.542888 
L 158.770468 -9.332487 
L 162.253695 -15.521905 
L 165.736923 -3.590861 
L 169.22015 -4.066227 
L 172.703378 -12.501254 
L 176.186605 -11.318824 
L 179.669833 -29.682047 
L 183.153061 -27.900138 
L 186.636288 -23.985891 
L 190.119516 -27.219747 
L 193.602743 -9.620308 
L 197.085971 1.94137 
L 200.569198 -0.563158 
L 204.052426 -1.531757 
L 207.535653 -9.748366 
L 211.018881 -4.390152 
L 214.502108 -14.044477 
L 217.985336 -16.271612 
L 221.468563 -9.383841 
L 224.951791 -11.708659 
L 228.435018 -9.728288 
L 231.918246 -13.482455 
L 235.401473 -20.71622 
L 238.884701 -23.2774 
L 242.367928 -17.358794 
L 245.851156 -20.550942 
L 249.334383 -28.30322 
L 252.817611 -25.093301 
L 256.300838 -24.382593 
L 259.784066 -29.318645 
L 263.267293 -40.10915 
L 266.750521 -37.748781 
L 270.233748 -39.443696 
L 273.716976 -14.306506 
L 277.200203 -16.080061 
L 280.683431 -21.274421 
L 284.166658 -5.852861 
L 287.649886 -7.616867 
L 291.133113 -8.99116 
L 294.616341 -10.20444 
L 298.099568 -9.627947 
L 301.582796 -5.745619 
L 305.066023 -19.560038 
L 308.549251 -18.369072 
L 312.032479 -21.975759 
L 315.515706 -20.375353 
L 318.998934 -23.699703 
L 322.482161 -22.491463 
L 325.965389 -26.420959 
L 329.448616 -18.288891 
L 332.931844 -20.42719 
L 336.415071 -15.795997 
L 339.898299 -21.059369 
L 343.381526 -29.636974 
L 346.864754 -24.747907 
L 350.347981 -22.056729 
L 353.831209 -22.002417 
L 357.314436 -19.864366 
L 360.797664 -17.186088 
L 364.280891 -16.635245 
L 367.764119 -22.377475 
L 371.247346 -19.865216 
L 374.730574 -18.139756 
L 378.213801 -18.6199 
L 381.697029 -15.938796 
L 385.180256 -18.972799 
L 388.663484 -21.353066 
L 392.146711 -10.440573 
L 395.629939 -0.381169 
L 399.113166 -5.14004 
L 402.596394 -4.907514 
L 406.079621 -21.067719 
L 409.562849 -17.205897 
L 413.046076 -22.722855 
L 416.529304 -22.035672 
L 420.012531 -14.860993 
L 423.495759 -11.936198 
L 426.978986 -22.331079 
L 430.462214 -25.868095 
L 433.945441 -30.345605 
L 437.428669 -21.895389 
L 440.911896 -40.027898 
L 444.395124 -29.987706 
L 447.878352 -20.108413 
L 451.361579 -32.236631 
L 454.844807 -31.902326 
L 458.328034 -27.624915 
L 461.811262 -20.779352 
L 465.294489 -9.045045 
L 468.777717 -10.242637 
L 472.260944 -15.490837 
L 475.744172 -20.291834 
L 479.227399 -5.681532 
L 482.710627 1.018083 
L 486.193854 -14.427547 
L 489.677082 -17.846694 
L 493.160309 -12.776222 
L 496.643537 -1.455978 
L 500.126764 -1.532957 
L 503.609992 -6.263567 
L 507.093219 -2.970549 
L 510.576447 -9.026295 
L 514.059674 -9.166274 
L 517.542902 -10.089746 
L 521.026129 -4.09643 
L 524.509357 2.46532 
L 527.992584 -4.642154 
L 531.475812 0.90796 
L 534.959039 10.605189 
L 538.442267 15.81232 
L 541.925494 2.550145 
L 545.408722 1.380682 
L 548.891949 3.658678 
L 552.375177 2.148528 
L 555.858404 3.417794 
L 559.341632 18.350082 
L 562.824859 10.439882 
L 566.308087 8.342535 
L 569.791314 2.278249 
L 573.274542 6.838253 
L 576.75777 -1.444795 
L 580.240997 -2.024281 
L 583.724225 -6.275693 
L 587.207452 6.848926 
L 590.69068 1.770463 
L 594.173907 -3.756825 
L 597.657135 -2.570199 
L 601.140362 -4.562758 
L 604.62359 -2.180315 
L 608.106817 -8.526365 
L 611.590045 0.489013 
L 615.073272 -4.744228 
L 618.5565 -24.183864 
L 622.039727 -18.377378 
L 625.522955 -4.174898 
L 629.006182 -0.48359 
L 632.48941 -7.705404 
L 635.972637 -1.04944 
L 639.455865 -10.753554 
L 642.939092 -0.06126 
L 646.42232 -2.087852 
L 649.905547 -10.903964 
L 653.388775 -1.795418 
L 656.872002 17.123701 
L 660.35523 -2.244471 
L 663.838457 -6.132375 
L 667.321685 -11.81149 
L 670.804912 -12.77261 
L 674.28814 -0.350934 
L 677.771367 -1.916779 
L 681.254595 -0.56255 
L 684.737822 -3.73888 
L 688.22105 -4.770527 
L 691.704277 -2.109616 
L 695.187505 3.257005 
L 698.670732 -1.24802 
L 702.15396 0.785095 
L 705.637188 -3.645112 
L 705.637188 -173.807623 
L 705.637188 -173.807623 
L 702.15396 -192.393197 
L 698.670732 -192.309523 
L 695.187505 -205.726236 
L 691.704277 -193.864367 
L 688.22105 -192.298523 
L 684.737822 -189.251362 
L 681.254595 -199.557015 
L 677.771367 -198.803473 
L 674.28814 -202.596333 
L 670.804912 -191.827805 
L 667.321685 -185.812568 
L 663.838457 -190.634096 
L 660.35523 -210.247303 
L 656.872002 -237.954973 
L 653.388775 -213.588875 
L 649.905547 -199.152929 
L 646.42232 -230.137067 
L 642.939092 -253.179761 
L 639.455865 -231.088792 
L 635.972637 -221.643964 
L 632.48941 -228.550408 
L 629.006182 -225.31914 
L 625.522955 -213.486141 
L 622.039727 -192.510979 
L 618.5565 -194.032183 
L 615.073272 -234.807962 
L 611.590045 -238.150573 
L 608.106817 -229.406203 
L 604.62359 -226.860401 
L 601.140362 -213.111552 
L 597.657135 -223.861577 
L 594.173907 -224.445024 
L 590.69068 -214.837499 
L 587.207452 -208.374659 
L 583.724225 -192.608272 
L 580.240997 -197.747583 
L 576.75777 -189.620453 
L 573.274542 -196.151868 
L 569.791314 -195.316406 
L 566.308087 -212.574855 
L 562.824859 -224.017363 
L 559.341632 -229.294736 
L 555.858404 -202.763589 
L 552.375177 -204.782879 
L 548.891949 -195.26678 
L 545.408722 -197.363325 
L 541.925494 -205.675662 
L 538.442267 -220.04464 
L 534.959039 -215.411933 
L 531.475812 -208.981467 
L 527.992584 -199.204468 
L 524.509357 -203.432414 
L 521.026129 -199.413947 
L 517.542902 -212.257215 
L 514.059674 -201.368794 
L 510.576447 -185.856392 
L 507.093219 -194.017478 
L 503.609992 -189.476567 
L 500.126764 -196.293658 
L 496.643537 -197.436788 
L 493.160309 -200.618958 
L 489.677082 -192.985365 
L 486.193854 -182.580736 
L 482.710627 -197.286542 
L 479.227399 -196.937592 
L 475.744172 -157.610812 
L 472.260944 -182.372239 
L 468.777717 -178.832798 
L 465.294489 -183.020836 
L 461.811262 -186.393403 
L 458.328034 -184.34426 
L 454.844807 -162.573291 
L 451.361579 -160.801526 
L 447.878352 -171.309843 
L 444.395124 -167.587738 
L 440.911896 -146.371265 
L 437.428669 -187.379772 
L 433.945441 -189.727823 
L 430.462214 -178.286414 
L 426.978986 -176.176268 
L 423.495759 -206.887521 
L 420.012531 -206.45097 
L 416.529304 -179.898808 
L 413.046076 -176.546667 
L 409.562849 -178.092801 
L 406.079621 -171.892209 
L 402.596394 -178.160766 
L 399.113166 -189.92886 
L 395.629939 -210.506349 
L 392.146711 -193.029572 
L 388.663484 -179.726621 
L 385.180256 -184.345776 
L 381.697029 -191.59032 
L 378.213801 -187.236372 
L 374.730574 -194.04413 
L 371.247346 -187.026054 
L 367.764119 -187.201522 
L 364.280891 -195.552273 
L 360.797664 -181.795105 
L 357.314436 -184.129774 
L 353.831209 -184.282996 
L 350.347981 -184.518411 
L 346.864754 -181.44433 
L 343.381526 -172.165913 
L 339.898299 -179.031838 
L 336.415071 -191.329121 
L 332.931844 -186.429435 
L 329.448616 -192.053818 
L 325.965389 -185.224125 
L 322.482161 -180.376736 
L 318.998934 -177.0802 
L 315.515706 -185.528554 
L 312.032479 -179.492839 
L 308.549251 -183.503104 
L 305.066023 -186.692966 
L 301.582796 -184.667952 
L 298.099568 -172.095352 
L 294.616341 -170.127638 
L 291.133113 -184.646568 
L 287.649886 -175.395815 
L 284.166658 -178.617117 
L 280.683431 -164.782629 
L 277.200203 -176.042537 
L 273.716976 -170.217533 
L 270.233748 -132.28947 
L 266.750521 -131.224295 
L 263.267293 -145.167006 
L 259.784066 -163.108626 
L 256.300838 -166.390972 
L 252.817611 -164.207322 
L 249.334383 -159.991042 
L 245.851156 -170.919281 
L 242.367928 -196.372631 
L 238.884701 -166.434624 
L 235.401473 -188.777703 
L 231.918246 -202.117527 
L 228.435018 -201.309123 
L 224.951791 -184.5598 
L 221.468563 -188.92486 
L 217.985336 -177.446161 
L 214.502108 -184.750362 
L 211.018881 -190.592137 
L 207.535653 -176.670214 
L 204.052426 -184.079248 
L 200.569198 -198.426137 
L 197.085971 -196.953973 
L 193.602743 -171.665467 
L 190.119516 -157.525149 
L 186.636288 -160.192404 
L 183.153061 -152.076836 
L 179.669833 -156.849966 
L 176.186605 -180.324621 
L 172.703378 -186.155847 
L 169.22015 -188.339392 
L 165.736923 -190.94217 
L 162.253695 -172.83033 
L 158.770468 -185.204595 
L 155.28724 -188.854424 
L 151.804013 -192.482272 
L 148.320785 -188.918601 
L 144.837558 -187.147135 
L 141.35433 -185.401135 
L 137.871103 -187.814664 
L 134.387875 -184.998245 
L 130.904648 -183.933496 
L 127.42142 -176.887334 
L 123.938193 -191.964858 
L 120.454965 -196.914784 
L 116.971738 -208.860117 
L 113.48851 -190.466457 
L 110.005283 -173.16595 
L 106.522055 -171.691641 
L 103.038828 -179.878252 
L 99.5556 -191.059569 
L 96.072373 -192.507032 
L 92.589145 -184.616246 
L 89.105918 -188.848896 
L 85.62269 -184.097834 
L 82.139463 -191.666863 
L 78.656235 -196.465855 
L 75.173008 -187.676769 
L 71.68978 -186.499608 
L 68.206553 -190.10926 
L 64.723325 -182.567963 
L 61.240098 -177.545002 
L 57.75687 -168.72048 
L 54.273643 -160.275388 
L 50.790415 -151.94177 
L 47.307188 -152.903085 
z
" style="stroke: #d3d3d3; stroke-opacity: 0.5"/>
    </defs>
    <g clip-path="url(#p62b4ad44c0)">
     <use xlink:href="#m834cd94cd3" x="0" y="424.5775" style="fill: #d3d3d3; fill-opacity: 0.5; stroke: #d3d3d3; stroke-opacity: 0.5"/>
    </g>
   </g>
   <g id="FillBetweenPolyCollection_2">
    <defs>
     <path id="m18b1815908" d="M 47.307188 -121.715701 
L 47.307188 -59.340931 
L 50.790415 -56.77404 
L 54.273643 -52.621165 
L 57.75687 -54.718097 
L 61.240098 -47.577702 
L 64.723325 -48.898643 
L 68.206553 -49.991364 
L 71.68978 -48.371642 
L 75.173008 -49.66716 
L 78.656235 -53.327104 
L 82.139463 -55.198134 
L 85.62269 -50.783997 
L 89.105918 -49.11148 
L 92.589145 -52.376096 
L 96.072373 -53.556629 
L 99.5556 -49.482473 
L 103.038828 -54.040403 
L 106.522055 -57.841292 
L 110.005283 -55.409466 
L 113.48851 -48.84688 
L 116.971738 -50.596953 
L 120.454965 -55.213777 
L 123.938193 -54.824298 
L 127.42142 -58.309467 
L 130.904648 -53.519808 
L 134.387875 -49.044374 
L 137.871103 -47.6172 
L 141.35433 -49.713367 
L 144.837558 -50.290503 
L 148.320785 -54.49916 
L 151.804013 -49.935128 
L 155.28724 -50.620772 
L 158.770468 -53.300514 
L 162.253695 -54.849011 
L 165.736923 -50.428688 
L 169.22015 -50.134518 
L 172.703378 -55.914902 
L 176.186605 -53.570273 
L 179.669833 -61.474026 
L 183.153061 -58.944313 
L 186.636288 -58.037519 
L 190.119516 -59.796098 
L 193.602743 -50.131598 
L 197.085971 -47.782466 
L 200.569198 -50.028902 
L 204.052426 -47.168629 
L 207.535653 -51.478828 
L 211.018881 -50.940648 
L 214.502108 -56.720949 
L 217.985336 -56.565249 
L 221.468563 -54.269096 
L 224.951791 -54.921444 
L 228.435018 -57.623497 
L 231.918246 -60.641223 
L 235.401473 -62.731591 
L 238.884701 -59.066706 
L 242.367928 -62.112253 
L 245.851156 -58.143027 
L 249.334383 -61.225175 
L 252.817611 -59.871806 
L 256.300838 -59.884688 
L 259.784066 -62.766141 
L 263.267293 -66.373614 
L 266.750521 -61.11766 
L 270.233748 -62.65514 
L 273.716976 -53.284263 
L 277.200203 -56.07068 
L 280.683431 -57.151473 
L 284.166658 -49.043925 
L 287.649886 -49.561604 
L 291.133113 -52.905012 
L 294.616341 -50.18524 
L 298.099568 -50.244798 
L 301.582796 -50.476203 
L 305.066023 -61.34327 
L 308.549251 -59.65258 
L 312.032479 -61.355029 
L 315.515706 -61.663653 
L 318.998934 -62.044827 
L 322.482161 -61.962782 
L 325.965389 -66.12175 
L 329.448616 -61.730123 
L 332.931844 -61.927751 
L 336.415071 -59.679278 
L 339.898299 -60.552486 
L 343.381526 -65.269209 
L 346.864754 -63.922013 
L 350.347981 -62.67215 
L 353.831209 -62.572562 
L 357.314436 -60.930718 
L 360.797664 -58.338342 
L 364.280891 -61.364502 
L 367.764119 -63.583487 
L 371.247346 -61.655425 
L 374.730574 -62.11585 
L 378.213801 -60.774018 
L 381.697029 -59.851677 
L 385.180256 -60.316044 
L 388.663484 -60.946455 
L 392.146711 -56.087823 
L 395.629939 -52.912464 
L 399.113166 -51.337245 
L 402.596394 -48.220827 
L 406.079621 -58.773842 
L 409.562849 -57.427623 
L 413.046076 -61.178808 
L 416.529304 -61.501456 
L 420.012531 -62.758487 
L 423.495759 -60.674029 
L 426.978986 -60.792377 
L 430.462214 -63.972675 
L 433.945441 -70.19116 
L 437.428669 -63.266485 
L 440.911896 -66.613739 
L 444.395124 -64.387714 
L 447.878352 -57.908771 
L 451.361579 -64.377855 
L 454.844807 -64.570067 
L 458.328034 -66.804751 
L 461.811262 -62.182865 
L 465.294489 -52.538993 
L 468.777717 -52.390177 
L 472.260944 -57.211187 
L 475.744172 -54.621579 
L 479.227399 -53.495547 
L 482.710627 -48.558073 
L 486.193854 -56.465844 
L 489.677082 -61.631362 
L 493.160309 -59.736906 
L 496.643537 -50.45118 
L 500.126764 -50.223132 
L 503.609992 -52.066817 
L 507.093219 -50.732281 
L 510.576447 -53.233819 
L 514.059674 -57.216904 
L 517.542902 -60.631613 
L 521.026129 -52.925809 
L 524.509357 -49.009113 
L 527.992584 -53.282732 
L 531.475812 -51.564397 
L 534.959039 -45.899092 
L 538.442267 -43.15192 
L 541.925494 -49.506307 
L 545.408722 -48.30532 
L 548.891949 -46.072686 
L 552.375177 -49.584323 
L 555.858404 -48.127552 
L 559.341632 -43.561122 
L 562.824859 -48.174429 
L 566.308087 -46.886812 
L 569.791314 -47.120415 
L 573.274542 -43.909277 
L 576.75777 -48.488709 
L 580.240997 -50.955107 
L 583.724225 -52.858838 
L 587.207452 -46.95697 
L 590.69068 -52.381528 
L 594.173907 -58.928874 
L 597.657135 -57.893044 
L 601.140362 -56.699957 
L 604.62359 -58.350336 
L 608.106817 -63.746325 
L 611.590045 -59.170884 
L 615.073272 -62.260161 
L 618.5565 -66.645943 
L 622.039727 -61.910778 
L 625.522955 -56.502709 
L 629.006182 -56.692478 
L 632.48941 -62.916655 
L 635.972637 -56.198071 
L 639.455865 -65.837363 
L 642.939092 -63.340885 
L 646.42232 -59.100156 
L 649.905547 -57.966206 
L 653.388775 -54.743783 
L 656.872002 -46.645968 
L 660.35523 -54.245179 
L 663.838457 -52.257805 
L 667.321685 -55.311759 
L 670.804912 -57.536409 
L 674.28814 -50.912284 
L 677.771367 -51.138453 
L 681.254595 -50.311166 
L 684.737822 -50.117 
L 688.22105 -51.652526 
L 691.704277 -50.048304 
L 695.187505 -48.988805 
L 698.670732 -49.013395 
L 702.15396 -47.509478 
L 705.637188 -46.18574 
L 705.637188 -131.266995 
L 705.637188 -131.266995 
L 702.15396 -144.098624 
L 698.670732 -144.544147 
L 695.187505 -153.480426 
L 691.704277 -145.925679 
L 688.22105 -145.416524 
L 684.737822 -142.873241 
L 681.254595 -149.808399 
L 677.771367 -149.5818 
L 674.28814 -152.034983 
L 670.804912 -147.064006 
L 667.321685 -142.312298 
L 663.838457 -144.508666 
L 660.35523 -158.246595 
L 656.872002 -174.185305 
L 653.388775 -160.640511 
L 649.905547 -152.090688 
L 646.42232 -173.124763 
L 642.939092 -189.900136 
L 639.455865 -176.004983 
L 635.972637 -166.495333 
L 632.48941 -173.339157 
L 629.006182 -169.110253 
L 625.522955 -161.15833 
L 622.039727 -148.977579 
L 618.5565 -151.570103 
L 615.073272 -177.292028 
L 611.590045 -178.490677 
L 608.106817 -174.186244 
L 604.62359 -170.690379 
L 601.140362 -160.974353 
L 597.657135 -168.538733 
L 594.173907 -169.272974 
L 590.69068 -160.685509 
L 587.207452 -154.568763 
L 583.724225 -146.025127 
L 580.240997 -148.816758 
L 576.75777 -142.576538 
L 573.274542 -145.404338 
L 569.791314 -145.917742 
L 566.308087 -157.345507 
L 562.824859 -165.403052 
L 559.341632 -167.383531 
L 555.858404 -151.218244 
L 552.375177 -153.050027 
L 548.891949 -145.535415 
L 545.408722 -147.677324 
L 541.925494 -153.619211 
L 538.442267 -161.0804 
L 534.959039 -158.907652 
L 531.475812 -156.50911 
L 527.992584 -150.56389 
L 524.509357 -151.95798 
L 521.026129 -150.584568 
L 517.542902 -161.715348 
L 514.059674 -153.318164 
L 510.576447 -141.648868 
L 507.093219 -146.255746 
L 503.609992 -143.673317 
L 500.126764 -147.603483 
L 496.643537 -148.441585 
L 493.160309 -153.658274 
L 489.677082 -149.200698 
L 486.193854 -140.542438 
L 482.710627 -147.710386 
L 479.227399 -149.123577 
L 475.744172 -123.281068 
L 472.260944 -140.651888 
L 468.777717 -136.685258 
L 465.294489 -139.526889 
L 461.811262 -144.98989 
L 458.328034 -145.164424 
L 454.844807 -129.905549 
L 451.361579 -128.660302 
L 447.878352 -133.509486 
L 444.395124 -133.18773 
L 440.911896 -119.785423 
L 437.428669 -146.008677 
L 433.945441 -149.882269 
L 430.462214 -140.181834 
L 426.978986 -137.714971 
L 423.495759 -158.14969 
L 420.012531 -158.553475 
L 416.529304 -140.433024 
L 413.046076 -138.090714 
L 409.562849 -137.871075 
L 406.079621 -134.186086 
L 402.596394 -134.847453 
L 399.113166 -143.731655 
L 395.629939 -157.975054 
L 392.146711 -147.382322 
L 388.663484 -140.133232 
L 385.180256 -143.002532 
L 381.697029 -147.677439 
L 378.213801 -145.082254 
L 374.730574 -150.068036 
L 371.247346 -145.235844 
L 367.764119 -145.99551 
L 364.280891 -150.823016 
L 360.797664 -140.64285 
L 357.314436 -143.063422 
L 353.831209 -143.712852 
L 350.347981 -143.902991 
L 346.864754 -142.270224 
L 343.381526 -136.533678 
L 339.898299 -139.538721 
L 336.415071 -147.44584 
L 332.931844 -144.928874 
L 329.448616 -148.612586 
L 325.965389 -145.523333 
L 322.482161 -140.905418 
L 318.998934 -138.735075 
L 315.515706 -144.240254 
L 312.032479 -140.113569 
L 308.549251 -142.219596 
L 305.066023 -144.909734 
L 301.582796 -139.937369 
L 298.099568 -131.478501 
L 294.616341 -130.146839 
L 291.133113 -140.732716 
L 287.649886 -133.451078 
L 284.166658 -135.426053 
L 280.683431 -128.905577 
L 277.200203 -136.051918 
L 273.716976 -131.239776 
L 270.233748 -109.078026 
L 266.750521 -107.855417 
L 263.267293 -118.902542 
L 259.784066 -129.661131 
L 256.300838 -130.888877 
L 252.817611 -129.428817 
L 249.334383 -127.069086 
L 245.851156 -133.327196 
L 242.367928 -151.619172 
L 238.884701 -130.645318 
L 235.401473 -146.762332 
L 231.918246 -154.958759 
L 228.435018 -153.413914 
L 224.951791 -141.347015 
L 221.468563 -144.039605 
L 217.985336 -137.152523 
L 214.502108 -142.073891 
L 211.018881 -144.041641 
L 207.535653 -134.939752 
L 204.052426 -138.442375 
L 200.569198 -148.960392 
L 197.085971 -147.230137 
L 193.602743 -131.154177 
L 190.119516 -124.948799 
L 186.636288 -126.140776 
L 183.153061 -121.032662 
L 179.669833 -125.057986 
L 176.186605 -138.073171 
L 172.703378 -142.742198 
L 169.22015 -142.271101 
L 165.736923 -144.104343 
L 162.253695 -133.503224 
L 158.770468 -141.236568 
L 155.28724 -142.77654 
L 151.804013 -144.966557 
L 148.320785 -144.11212 
L 144.837558 -141.528258 
L 141.35433 -140.171879 
L 137.871103 -141.082176 
L 134.387875 -139.680288 
L 130.904648 -140.462267 
L 127.42142 -137.361378 
L 123.938193 -146.251338 
L 120.454965 -149.681115 
L 116.971738 -156.105729 
L 113.48851 -143.259932 
L 110.005283 -133.913788 
L 106.522055 -133.741525 
L 103.038828 -137.932302 
L 99.5556 -143.867204 
L 96.072373 -146.190231 
L 92.589145 -140.536196 
L 89.105918 -142.269757 
L 85.62269 -139.659888 
L 82.139463 -146.177287 
L 78.656235 -148.752938 
L 75.173008 -141.673566 
L 71.68978 -140.456952 
L 68.206553 -143.403294 
L 64.723325 -138.011523 
L 61.240098 -134.222569 
L 57.75687 -130.719686 
L 54.273643 -124.390647 
L 50.790415 -120.219193 
L 47.307188 -121.715701 
z
" style="stroke: #808080; stroke-opacity: 0.7"/>
    </defs>
    <g clip-path="url(#p62b4ad44c0)">
     <use xlink:href="#m18b1815908" x="0" y="424.5775" style="fill: #808080; fill-opacity: 0.7; stroke: #808080; stroke-opacity: 0.7"/>
    </g>
   </g>
   <g id="line2d_31">
    <path d="M 47.307188 324.962062 
L 50.790415 349.598105 
L 54.273643 353.300453 
L 57.75687 337.776126 
L 61.240098 356.027045 
L 64.723325 350.164786 
L 68.206553 343.546483 
L 71.68978 346.323861 
L 75.173008 354.309367 
L 78.656235 348.164501 
L 82.139463 329.938302 
L 85.62269 352.286306 
L 89.105918 354.633008 
L 92.589145 341.799803 
L 96.072373 333.874544 
L 99.5556 349.377608 
L 103.038828 334.924796 
L 106.522055 347.171314 
L 110.005283 345.953725 
L 113.48851 353.317 
L 116.971738 343.525627 
L 120.454965 341.861459 
L 123.938193 328.295979 
L 127.42142 336.37059 
L 130.904648 346.724889 
L 134.387875 341.112569 
L 137.871103 331.817084 
L 141.35433 337.24599 
L 144.837558 343.03102 
L 148.320785 345.334947 
L 151.804013 339.330014 
L 155.28724 350.239065 
L 158.770468 339.213698 
L 162.253695 345.583817 
L 165.736923 349.968792 
L 169.22015 345.74388 
L 172.703378 339.008015 
L 176.186605 346.75858 
L 179.669833 350.686604 
L 183.153061 357.132416 
L 186.636288 361.023266 
L 190.119516 349.13914 
L 193.602743 349.989134 
L 197.085971 343.990316 
L 200.569198 344.031386 
L 204.052426 358.527905 
L 207.535653 328.017689 
L 211.018881 334.226796 
L 214.502108 338.584523 
L 217.985336 329.088929 
L 221.468563 325.87884 
L 224.951791 331.693843 
L 228.435018 343.011192 
L 231.918246 326.875403 
L 235.401473 329.380406 
L 238.884701 335.226842 
L 242.367928 322.439028 
L 245.851156 317.84257 
L 249.334383 351.314916 
L 252.817611 349.907039 
L 256.300838 355.639501 
L 259.784066 351.73364 
L 263.267293 353.53168 
L 266.750521 352.09981 
L 270.233748 329.166779 
L 273.716976 341.806292 
L 277.200203 336.321124 
L 280.683431 342.512375 
L 284.166658 344.494773 
L 287.649886 358.824155 
L 291.133113 360.180557 
L 294.616341 366.778156 
L 298.099568 365.059268 
L 301.582796 357.987746 
L 305.066023 346.12612 
L 308.549251 354.837975 
L 312.032479 351.013266 
L 315.515706 360.11579 
L 318.998934 349.34268 
L 322.482161 352.907952 
L 325.965389 344.643408 
L 329.448616 356.070962 
L 332.931844 353.277364 
L 336.415071 354.219981 
L 339.898299 356.877081 
L 343.381526 349.284096 
L 346.864754 351.322099 
L 350.347981 342.5599 
L 353.831209 343.697022 
L 357.314436 353.362153 
L 360.797664 350.347236 
L 364.280891 351.221313 
L 367.764119 347.891649 
L 371.247346 350.780464 
L 374.730574 350.264415 
L 381.697029 354.933779 
L 385.180256 345.379815 
L 388.663484 336.772541 
L 392.146711 347.143518 
L 395.629939 341.236567 
L 399.113166 332.18234 
L 402.596394 356.927716 
L 406.079621 334.497395 
L 409.562849 328.959619 
L 413.046076 330.420924 
L 416.529304 342.549113 
L 420.012531 340.21882 
L 423.495759 334.805392 
L 426.978986 348.182407 
L 430.462214 333.392967 
L 433.945441 329.278374 
L 437.428669 350.088009 
L 440.911896 343.60962 
L 444.395124 338.241214 
L 447.878352 336.917135 
L 451.361579 334.888708 
L 454.844807 324.415771 
L 458.328034 333.635106 
L 461.811262 340.302971 
L 465.294489 330.953017 
L 468.777717 332.43233 
L 472.260944 337.493464 
L 475.744172 336.731905 
L 479.227399 320.860573 
L 482.710627 345.093919 
L 486.193854 348.236918 
L 493.160309 300.265586 
L 496.643537 340.611774 
L 500.126764 336.037219 
L 503.609992 354.161312 
L 507.093219 361.387504 
L 510.576447 359.653736 
L 514.059674 365.632319 
L 517.542902 357.169436 
L 521.026129 349.892533 
L 524.509357 356.392521 
L 527.992584 352.579669 
L 531.475812 339.512436 
L 534.959039 347.207658 
L 538.442267 359.554636 
L 541.925494 361.150142 
L 545.408722 358.174021 
L 548.891949 357.55378 
L 552.375177 348.932146 
L 555.858404 352.215248 
L 559.341632 349.767736 
L 562.824859 345.261838 
L 566.308087 353.823229 
L 569.791314 351.447876 
L 573.274542 357.133836 
L 576.75777 357.233439 
L 580.240997 350.863894 
L 583.724225 350.735298 
L 587.207452 358.164242 
L 590.69068 353.929682 
L 594.173907 359.135302 
L 597.657135 354.039709 
L 601.140362 353.882731 
L 604.62359 354.049057 
L 608.106817 340.169571 
L 611.590045 322.847138 
L 615.073272 346.129031 
L 618.5565 332.879646 
L 622.039727 347.628605 
L 625.522955 344.65525 
L 629.006182 328.531555 
L 632.48941 334.416406 
L 635.972637 333.618863 
L 639.455865 331.077408 
L 642.939092 329.596267 
L 646.42232 337.815882 
L 649.905547 338.123107 
L 653.388775 340.103981 
L 660.35523 327.775956 
L 663.838457 362.242711 
L 667.321685 342.625651 
L 670.804912 318.298032 
L 677.771367 336.573272 
L 681.254595 336.79773 
L 684.737822 339.89027 
L 688.22105 337.128435 
L 691.704277 348.943786 
L 695.187505 349.859369 
L 698.670732 356.20273 
L 702.15396 356.047294 
L 705.637188 342.290269 
L 705.637188 342.290269 
" clip-path="url(#p62b4ad44c0)" style="fill: none; stroke: #ff8c00; stroke-width: 2.3; stroke-linecap: square"/>
   </g>
   <g id="line2d_32">
    <path d="M 277.200203 384.117812 
L 277.200203 23.837812 
" clip-path="url(#p62b4ad44c0)" style="fill: none; stroke-dasharray: 5.55,2.4; stroke-dashoffset: 0; stroke: #808080; stroke-width: 1.5"/>
   </g>
   <g id="line2d_33">
    <path d="M 475.744172 384.117812 
L 475.744172 23.837812 
" clip-path="url(#p62b4ad44c0)" style="fill: none; stroke-dasharray: 5.55,2.4; stroke-dashoffset: 0; stroke: #808080; stroke-width: 1.5"/>
   </g>
   <g id="patch_3">
    <path d="M 47.307188 384.117812 
L 47.307188 23.837812 
" style="fill: none; stroke: #000000; stroke-width: 0.8; stroke-linejoin: miter; stroke-linecap: square"/>
   </g>
   <g id="patch_4">
    <path d="M 705.637188 384.117812 
L 705.637188 23.837812 
" style="fill: none; stroke: #000000; stroke-width: 0.8; stroke-linejoin: miter; stroke-linecap: square"/>
   </g>
   <g id="patch_5">
    <path d="M 47.307188 384.117812 
L 705.637188 384.117812 
" style="fill: none; stroke: #000000; stroke-width: 0.8; stroke-linejoin: miter; stroke-linecap: square"/>
   </g>
   <g id="patch_6">
    <path d="M 47.307188 23.837812 
L 705.637188 23.837812 
" style="fill: none; stroke: #000000; stroke-width: 0.8; stroke-linejoin: miter; stroke-linecap: square"/>
   </g>
   <g id="text_18">
    <!-- Facial trace: Autism spectrum condition (ASC) (male) -->
    <g transform="translate(190.721719 17.837812) scale(0.14 -0.14)">
     <defs>
      <path id="DejaVuSans-46" d="M 628 4666 
L 3309 4666 
L 3309 4134 
L 1259 4134 
L 1259 2759 
L 3109 2759 
L 3109 2228 
L 1259 2228 
L 1259 0 
L 628 0 
L 628 4666 
z
" transform="scale(0.015625)"/>
      <path id="DejaVuSans-63" d="M 3122 3366 
L 3122 2828 
Q 2878 2963 2633 3030 
Q 2388 3097 2138 3097 
Q 1578 3097 1268 2742 
Q 959 2388 959 1747 
Q 959 1106 1268 751 
Q 1578 397 2138 397 
Q 2388 397 2633 464 
Q 2878 531 3122 666 
L 3122 134 
Q 2881 22 2623 -34 
Q 2366 -91 2075 -91 
Q 1284 -91 818 406 
Q 353 903 353 1747 
Q 353 2603 823 3093 
Q 1294 3584 2113 3584 
Q 2378 3584 2631 3529 
Q 2884 3475 3122 3366 
z
" transform="scale(0.015625)"/>
      <path id="DejaVuSans-6c" d="M 603 4863 
L 1178 4863 
L 1178 0 
L 603 0 
L 603 4863 
z
" transform="scale(0.015625)"/>
      <path id="DejaVuSans-72" d="M 2631 2963 
Q 2534 3019 2420 3045 
Q 2306 3072 2169 3072 
Q 1681 3072 1420 2755 
Q 1159 2438 1159 1844 
L 1159 0 
L 581 0 
L 581 3500 
L 1159 3500 
L 1159 2956 
Q 1341 3275 1631 3429 
Q 1922 3584 2338 3584 
Q 2397 3584 2469 3576 
Q 2541 3569 2628 3553 
L 2631 2963 
z
" transform="scale(0.015625)"/>
      <path id="DejaVuSans-3a" d="M 750 794 
L 1409 794 
L 1409 0 
L 750 0 
L 750 794 
z
M 750 3309 
L 1409 3309 
L 1409 2516 
L 750 2516 
L 750 3309 
z
" transform="scale(0.015625)"/>
      <path id="DejaVuSans-75" d="M 544 1381 
L 544 3500 
L 1119 3500 
L 1119 1403 
Q 1119 906 1312 657 
Q 1506 409 1894 409 
Q 2359 409 2629 706 
Q 2900 1003 2900 1516 
L 2900 3500 
L 3475 3500 
L 3475 0 
L 2900 0 
L 2900 538 
Q 2691 219 2414 64 
Q 2138 -91 1772 -91 
Q 1169 -91 856 284 
Q 544 659 544 1381 
z
M 1991 3584 
L 1991 3584 
z
" transform="scale(0.015625)"/>
      <path id="DejaVuSans-70" d="M 1159 525 
L 1159 -1331 
L 581 -1331 
L 581 3500 
L 1159 3500 
L 1159 2969 
Q 1341 3281 1617 3432 
Q 1894 3584 2278 3584 
Q 2916 3584 3314 3078 
Q 3713 2572 3713 1747 
Q 3713 922 3314 415 
Q 2916 -91 2278 -91 
Q 1894 -91 1617 61 
Q 1341 213 1159 525 
z
M 3116 1747 
Q 3116 2381 2855 2742 
Q 2594 3103 2138 3103 
Q 1681 3103 1420 2742 
Q 1159 2381 1159 1747 
Q 1159 1113 1420 752 
Q 1681 391 2138 391 
Q 2594 391 2855 752 
Q 3116 1113 3116 1747 
z
" transform="scale(0.015625)"/>
      <path id="DejaVuSans-6f" d="M 1959 3097 
Q 1497 3097 1228 2736 
Q 959 2375 959 1747 
Q 959 1119 1226 758 
Q 1494 397 1959 397 
Q 2419 397 2687 759 
Q 2956 1122 2956 1747 
Q 2956 2369 2687 2733 
Q 2419 3097 1959 3097 
z
M 1959 3584 
Q 2709 3584 3137 3096 
Q 3566 2609 3566 1747 
Q 3566 888 3137 398 
Q 2709 -91 1959 -91 
Q 1206 -91 779 398 
Q 353 888 353 1747 
Q 353 2609 779 3096 
Q 1206 3584 1959 3584 
z
" transform="scale(0.015625)"/>
      <path id="DejaVuSans-64" d="M 2906 2969 
L 2906 4863 
L 3481 4863 
L 3481 0 
L 2906 0 
L 2906 525 
Q 2725 213 2448 61 
Q 2172 -91 1784 -91 
Q 1150 -91 751 415 
Q 353 922 353 1747 
Q 353 2572 751 3078 
Q 1150 3584 1784 3584 
Q 2172 3584 2448 3432 
Q 2725 3281 2906 2969 
z
M 947 1747 
Q 947 1113 1208 752 
Q 1469 391 1925 391 
Q 2381 391 2643 752 
Q 2906 1113 2906 1747 
Q 2906 2381 2643 2742 
Q 2381 3103 1925 3103 
Q 1469 3103 1208 2742 
Q 947 2381 947 1747 
z
" transform="scale(0.015625)"/>
      <path id="DejaVuSans-53" d="M 3425 4513 
L 3425 3897 
Q 3066 4069 2747 4153 
Q 2428 4238 2131 4238 
Q 1616 4238 1336 4038 
Q 1056 3838 1056 3469 
Q 1056 3159 1242 3001 
Q 1428 2844 1947 2747 
L 2328 2669 
Q 3034 2534 3370 2195 
Q 3706 1856 3706 1288 
Q 3706 609 3251 259 
Q 2797 -91 1919 -91 
Q 1588 -91 1214 -16 
Q 841 59 441 206 
L 441 856 
Q 825 641 1194 531 
Q 1563 422 1919 422 
Q 2459 422 2753 634 
Q 3047 847 3047 1241 
Q 3047 1584 2836 1778 
Q 2625 1972 2144 2069 
L 1759 2144 
Q 1053 2284 737 2584 
Q 422 2884 422 3419 
Q 422 4038 858 4394 
Q 1294 4750 2059 4750 
Q 2388 4750 2728 4690 
Q 3069 4631 3425 4513 
z
" transform="scale(0.015625)"/>
      <path id="DejaVuSans-43" d="M 4122 4306 
L 4122 3641 
Q 3803 3938 3442 4084 
Q 3081 4231 2675 4231 
Q 1875 4231 1450 3742 
Q 1025 3253 1025 2328 
Q 1025 1406 1450 917 
Q 1875 428 2675 428 
Q 3081 428 3442 575 
Q 3803 722 4122 1019 
L 4122 359 
Q 3791 134 3420 21 
Q 3050 -91 2638 -91 
Q 1578 -91 968 557 
Q 359 1206 359 2328 
Q 359 3453 968 4101 
Q 1578 4750 2638 4750 
Q 3056 4750 3426 4639 
Q 3797 4528 4122 4306 
z
" transform="scale(0.015625)"/>
     </defs>
     <use xlink:href="#DejaVuSans-46"/>
     <use xlink:href="#DejaVuSans-61" transform="translate(48.394531 0)"/>
     <use xlink:href="#DejaVuSans-63" transform="translate(109.673828 0)"/>
     <use xlink:href="#DejaVuSans-69" transform="translate(164.654297 0)"/>
     <use xlink:href="#DejaVuSans-61" transform="translate(192.4375 0)"/>
     <use xlink:href="#DejaVuSans-6c" transform="translate(253.716797 0)"/>
     <use xlink:href="#DejaVuSans-20" transform="translate(281.5 0)"/>
     <use xlink:href="#DejaVuSans-74" transform="translate(313.287109 0)"/>
     <use xlink:href="#DejaVuSans-72" transform="translate(352.496094 0)"/>
     <use xlink:href="#DejaVuSans-61" transform="translate(393.609375 0)"/>
     <use xlink:href="#DejaVuSans-63" transform="translate(454.888672 0)"/>
     <use xlink:href="#DejaVuSans-65" transform="translate(509.869141 0)"/>
     <use xlink:href="#DejaVuSans-3a" transform="translate(571.392578 0)"/>
     <use xlink:href="#DejaVuSans-20" transform="translate(605.083984 0)"/>
     <use xlink:href="#DejaVuSans-41" transform="translate(636.871094 0)"/>
     <use xlink:href="#DejaVuSans-75" transform="translate(705.279297 0)"/>
     <use xlink:href="#DejaVuSans-74" transform="translate(768.658203 0)"/>
     <use xlink:href="#DejaVuSans-69" transform="translate(807.867188 0)"/>
     <use xlink:href="#DejaVuSans-73" transform="translate(835.650391 0)"/>
     <use xlink:href="#DejaVuSans-6d" transform="translate(887.75 0)"/>
     <use xlink:href="#DejaVuSans-20" transform="translate(985.162109 0)"/>
     <use xlink:href="#DejaVuSans-73" transform="translate(1016.949219 0)"/>
     <use xlink:href="#DejaVuSans-70" transform="translate(1069.048828 0)"/>
     <use xlink:href="#DejaVuSans-65" transform="translate(1132.525391 0)"/>
     <use xlink:href="#DejaVuSans-63" transform="translate(1194.048828 0)"/>
     <use xlink:href="#DejaVuSans-74" transform="translate(1249.029297 0)"/>
     <use xlink:href="#DejaVuSans-72" transform="translate(1288.238281 0)"/>
     <use xlink:href="#DejaVuSans-75" transform="translate(1329.351562 0)"/>
     <use xlink:href="#DejaVuSans-6d" transform="translate(1392.730469 0)"/>
     <use xlink:href="#DejaVuSans-20" transform="translate(1490.142578 0)"/>
     <use xlink:href="#DejaVuSans-63" transform="translate(1521.929688 0)"/>
     <use xlink:href="#DejaVuSans-6f" transform="translate(1576.910156 0)"/>
     <use xlink:href="#DejaVuSans-6e" transform="translate(1638.091797 0)"/>
     <use xlink:href="#DejaVuSans-64" transform="translate(1701.470703 0)"/>
     <use xlink:href="#DejaVuSans-69" transform="translate(1764.947266 0)"/>
     <use xlink:href="#DejaVuSans-74" transform="translate(1792.730469 0)"/>
     <use xlink:href="#DejaVuSans-69" transform="translate(1831.939453 0)"/>
     <use xlink:href="#DejaVuSans-6f" transform="translate(1859.722656 0)"/>
     <use xlink:href="#DejaVuSans-6e" transform="translate(1920.904297 0)"/>
     <use xlink:href="#DejaVuSans-20" transform="translate(1984.283203 0)"/>
     <use xlink:href="#DejaVuSans-28" transform="translate(2016.070312 0)"/>
     <use xlink:href="#DejaVuSans-41" transform="translate(2055.083984 0)"/>
     <use xlink:href="#DejaVuSans-53" transform="translate(2123.492188 0)"/>
     <use xlink:href="#DejaVuSans-43" transform="translate(2186.96875 0)"/>
     <use xlink:href="#DejaVuSans-29" transform="translate(2256.792969 0)"/>
     <use xlink:href="#DejaVuSans-20" transform="translate(2295.806641 0)"/>
     <use xlink:href="#DejaVuSans-28" transform="translate(2327.59375 0)"/>
     <use xlink:href="#DejaVuSans-6d" transform="translate(2366.607422 0)"/>
     <use xlink:href="#DejaVuSans-61" transform="translate(2464.019531 0)"/>
     <use xlink:href="#DejaVuSans-6c" transform="translate(2525.298828 0)"/>
     <use xlink:href="#DejaVuSans-65" transform="translate(2553.082031 0)"/>
     <use xlink:href="#DejaVuSans-29" transform="translate(2614.605469 0)"/>
    </g>
   </g>
   <g id="legend_1">
    <g id="patch_7">
     <path d="M 425.355469 42.096094 
L 447.355469 42.096094 
L 447.355469 34.396094 
L 425.355469 34.396094 
z
" style="fill: #d3d3d3; fill-opacity: 0.5; stroke: #d3d3d3; stroke-opacity: 0.5; stroke-linejoin: miter"/>
    </g>
    <g id="text_19">
     <!-- Autism spectrum condition (ASC) ±2 SD -->
     <g transform="translate(456.155469 42.096094) scale(0.11 -0.11)">
      <defs>
       <path id="DejaVuSans-b1" d="M 2944 4013 
L 2944 2803 
L 4684 2803 
L 4684 2272 
L 2944 2272 
L 2944 1063 
L 2419 1063 
L 2419 2272 
L 678 2272 
L 678 2803 
L 2419 2803 
L 2419 4013 
L 2944 4013 
z
M 678 531 
L 4684 531 
L 4684 0 
L 678 0 
L 678 531 
z
" transform="scale(0.015625)"/>
       <path id="DejaVuSans-44" d="M 1259 4147 
L 1259 519 
L 2022 519 
Q 2988 519 3436 956 
Q 3884 1394 3884 2338 
Q 3884 3275 3436 3711 
Q 2988 4147 2022 4147 
L 1259 4147 
z
M 628 4666 
L 1925 4666 
Q 3281 4666 3915 4102 
Q 4550 3538 4550 2338 
Q 4550 1131 3912 565 
Q 3275 0 1925 0 
L 628 0 
L 628 4666 
z
" transform="scale(0.015625)"/>
      </defs>
      <use xlink:href="#DejaVuSans-41"/>
      <use xlink:href="#DejaVuSans-75" transform="translate(68.408203 0)"/>
      <use xlink:href="#DejaVuSans-74" transform="translate(131.787109 0)"/>
      <use xlink:href="#DejaVuSans-69" transform="translate(170.996094 0)"/>
      <use xlink:href="#DejaVuSans-73" transform="translate(198.779297 0)"/>
      <use xlink:href="#DejaVuSans-6d" transform="translate(250.878906 0)"/>
      <use xlink:href="#DejaVuSans-20" transform="translate(348.291016 0)"/>
      <use xlink:href="#DejaVuSans-73" transform="translate(380.078125 0)"/>
      <use xlink:href="#DejaVuSans-70" transform="translate(432.177734 0)"/>
      <use xlink:href="#DejaVuSans-65" transform="translate(495.654297 0)"/>
      <use xlink:href="#DejaVuSans-63" transform="translate(557.177734 0)"/>
      <use xlink:href="#DejaVuSans-74" transform="translate(612.158203 0)"/>
      <use xlink:href="#DejaVuSans-72" transform="translate(651.367188 0)"/>
      <use xlink:href="#DejaVuSans-75" transform="translate(692.480469 0)"/>
      <use xlink:href="#DejaVuSans-6d" transform="translate(755.859375 0)"/>
      <use xlink:href="#DejaVuSans-20" transform="translate(853.271484 0)"/>
      <use xlink:href="#DejaVuSans-63" transform="translate(885.058594 0)"/>
      <use xlink:href="#DejaVuSans-6f" transform="translate(940.039062 0)"/>
      <use xlink:href="#DejaVuSans-6e" transform="translate(1001.220703 0)"/>
      <use xlink:href="#DejaVuSans-64" transform="translate(1064.599609 0)"/>
      <use xlink:href="#DejaVuSans-69" transform="translate(1128.076172 0)"/>
      <use xlink:href="#DejaVuSans-74" transform="translate(1155.859375 0)"/>
      <use xlink:href="#DejaVuSans-69" transform="translate(1195.068359 0)"/>
      <use xlink:href="#DejaVuSans-6f" transform="translate(1222.851562 0)"/>
      <use xlink:href="#DejaVuSans-6e" transform="translate(1284.033203 0)"/>
      <use xlink:href="#DejaVuSans-20" transform="translate(1347.412109 0)"/>
      <use xlink:href="#DejaVuSans-28" transform="translate(1379.199219 0)"/>
      <use xlink:href="#DejaVuSans-41" transform="translate(1418.212891 0)"/>
      <use xlink:href="#DejaVuSans-53" transform="translate(1486.621094 0)"/>
      <use xlink:href="#DejaVuSans-43" transform="translate(1550.097656 0)"/>
      <use xlink:href="#DejaVuSans-29" transform="translate(1619.921875 0)"/>
      <use xlink:href="#DejaVuSans-20" transform="translate(1658.935547 0)"/>
      <use xlink:href="#DejaVuSans-b1" transform="translate(1690.722656 0)"/>
      <use xlink:href="#DejaVuSans-32" transform="translate(1774.511719 0)"/>
      <use xlink:href="#DejaVuSans-20" transform="translate(1838.134766 0)"/>
      <use xlink:href="#DejaVuSans-53" transform="translate(1869.921875 0)"/>
      <use xlink:href="#DejaVuSans-44" transform="translate(1933.398438 0)"/>
     </g>
    </g>
    <g id="patch_8">
     <path d="M 425.355469 58.242031 
L 447.355469 58.242031 
L 447.355469 50.542031 
L 425.355469 50.542031 
z
" style="fill: #808080; fill-opacity: 0.7; stroke: #808080; stroke-opacity: 0.7; stroke-linejoin: miter"/>
    </g>
    <g id="text_20">
     <!-- Autism spectrum condition (ASC) ±1 SD -->
     <g transform="translate(456.155469 58.242031) scale(0.11 -0.11)">
      <use xlink:href="#DejaVuSans-41"/>
      <use xlink:href="#DejaVuSans-75" transform="translate(68.408203 0)"/>
      <use xlink:href="#DejaVuSans-74" transform="translate(131.787109 0)"/>
      <use xlink:href="#DejaVuSans-69" transform="translate(170.996094 0)"/>
      <use xlink:href="#DejaVuSans-73" transform="translate(198.779297 0)"/>
      <use xlink:href="#DejaVuSans-6d" transform="translate(250.878906 0)"/>
      <use xlink:href="#DejaVuSans-20" transform="translate(348.291016 0)"/>
      <use xlink:href="#DejaVuSans-73" transform="translate(380.078125 0)"/>
      <use xlink:href="#DejaVuSans-70" transform="translate(432.177734 0)"/>
      <use xlink:href="#DejaVuSans-65" transform="translate(495.654297 0)"/>
      <use xlink:href="#DejaVuSans-63" transform="translate(557.177734 0)"/>
      <use xlink:href="#DejaVuSans-74" transform="translate(612.158203 0)"/>
      <use xlink:href="#DejaVuSans-72" transform="translate(651.367188 0)"/>
      <use xlink:href="#DejaVuSans-75" transform="translate(692.480469 0)"/>
      <use xlink:href="#DejaVuSans-6d" transform="translate(755.859375 0)"/>
      <use xlink:href="#DejaVuSans-20" transform="translate(853.271484 0)"/>
      <use xlink:href="#DejaVuSans-63" transform="translate(885.058594 0)"/>
      <use xlink:href="#DejaVuSans-6f" transform="translate(940.039062 0)"/>
      <use xlink:href="#DejaVuSans-6e" transform="translate(1001.220703 0)"/>
      <use xlink:href="#DejaVuSans-64" transform="translate(1064.599609 0)"/>
      <use xlink:href="#DejaVuSans-69" transform="translate(1128.076172 0)"/>
      <use xlink:href="#DejaVuSans-74" transform="translate(1155.859375 0)"/>
      <use xlink:href="#DejaVuSans-69" transform="translate(1195.068359 0)"/>
      <use xlink:href="#DejaVuSans-6f" transform="translate(1222.851562 0)"/>
      <use xlink:href="#DejaVuSans-6e" transform="translate(1284.033203 0)"/>
      <use xlink:href="#DejaVuSans-20" transform="translate(1347.412109 0)"/>
      <use xlink:href="#DejaVuSans-28" transform="translate(1379.199219 0)"/>
      <use xlink:href="#DejaVuSans-41" transform="translate(1418.212891 0)"/>
      <use xlink:href="#DejaVuSans-53" transform="translate(1486.621094 0)"/>
      <use xlink:href="#DejaVuSans-43" transform="translate(1550.097656 0)"/>
      <use xlink:href="#DejaVuSans-29" transform="translate(1619.921875 0)"/>
      <use xlink:href="#DejaVuSans-20" transform="translate(1658.935547 0)"/>
      <use xlink:href="#DejaVuSans-b1" transform="translate(1690.722656 0)"/>
      <use xlink:href="#DejaVuSans-31" transform="translate(1774.511719 0)"/>
      <use xlink:href="#DejaVuSans-20" transform="translate(1838.134766 0)"/>
      <use xlink:href="#DejaVuSans-53" transform="translate(1869.921875 0)"/>
      <use xlink:href="#DejaVuSans-44" transform="translate(1933.398438 0)"/>
     </g>
    </g>
    <g id="line2d_34">
     <path d="M 425.355469 70.537969 
L 436.355469 70.537969 
L 447.355469 70.537969 
" style="fill: none; stroke: #ff8c00; stroke-width: 2.3; stroke-linecap: square"/>
    </g>
    <g id="text_21">
     <!-- Autism spectrum condition (ASC) prototype -->
     <g transform="translate(456.155469 74.387969) scale(0.11 -0.11)">
      <use xlink:href="#DejaVuSans-41"/>
      <use xlink:href="#DejaVuSans-75" transform="translate(68.408203 0)"/>
      <use xlink:href="#DejaVuSans-74" transform="translate(131.787109 0)"/>
      <use xlink:href="#DejaVuSans-69" transform="translate(170.996094 0)"/>
      <use xlink:href="#DejaVuSans-73" transform="translate(198.779297 0)"/>
      <use xlink:href="#DejaVuSans-6d" transform="translate(250.878906 0)"/>
      <use xlink:href="#DejaVuSans-20" transform="translate(348.291016 0)"/>
      <use xlink:href="#DejaVuSans-73" transform="translate(380.078125 0)"/>
      <use xlink:href="#DejaVuSans-70" transform="translate(432.177734 0)"/>
      <use xlink:href="#DejaVuSans-65" transform="translate(495.654297 0)"/>
      <use xlink:href="#DejaVuSans-63" transform="translate(557.177734 0)"/>
      <use xlink:href="#DejaVuSans-74" transform="translate(612.158203 0)"/>
      <use xlink:href="#DejaVuSans-72" transform="translate(651.367188 0)"/>
      <use xlink:href="#DejaVuSans-75" transform="translate(692.480469 0)"/>
      <use xlink:href="#DejaVuSans-6d" transform="translate(755.859375 0)"/>
      <use xlink:href="#DejaVuSans-20" transform="translate(853.271484 0)"/>
      <use xlink:href="#DejaVuSans-63" transform="translate(885.058594 0)"/>
      <use xlink:href="#DejaVuSans-6f" transform="translate(940.039062 0)"/>
      <use xlink:href="#DejaVuSans-6e" transform="translate(1001.220703 0)"/>
      <use xlink:href="#DejaVuSans-64" transform="translate(1064.599609 0)"/>
      <use xlink:href="#DejaVuSans-69" transform="translate(1128.076172 0)"/>
      <use xlink:href="#DejaVuSans-74" transform="translate(1155.859375 0)"/>
      <use xlink:href="#DejaVuSans-69" transform="translate(1195.068359 0)"/>
      <use xlink:href="#DejaVuSans-6f" transform="translate(1222.851562 0)"/>
      <use xlink:href="#DejaVuSans-6e" transform="translate(1284.033203 0)"/>
      <use xlink:href="#DejaVuSans-20" transform="translate(1347.412109 0)"/>
      <use xlink:href="#DejaVuSans-28" transform="translate(1379.199219 0)"/>
      <use xlink:href="#DejaVuSans-41" transform="translate(1418.212891 0)"/>
      <use xlink:href="#DejaVuSans-53" transform="translate(1486.621094 0)"/>
      <use xlink:href="#DejaVuSans-43" transform="translate(1550.097656 0)"/>
      <use xlink:href="#DejaVuSans-29" transform="translate(1619.921875 0)"/>
      <use xlink:href="#DejaVuSans-20" transform="translate(1658.935547 0)"/>
      <use xlink:href="#DejaVuSans-70" transform="translate(1690.722656 0)"/>
      <use xlink:href="#DejaVuSans-72" transform="translate(1754.199219 0)"/>
      <use xlink:href="#DejaVuSans-6f" transform="translate(1793.0625 0)"/>
      <use xlink:href="#DejaVuSans-74" transform="translate(1854.244141 0)"/>
      <use xlink:href="#DejaVuSans-6f" transform="translate(1893.453125 0)"/>
      <use xlink:href="#DejaVuSans-74" transform="translate(1954.634766 0)"/>
      <use xlink:href="#DejaVuSans-79" transform="translate(1993.84375 0)"/>
      <use xlink:href="#DejaVuSans-70" transform="translate(2053.023438 0)"/>
      <use xlink:href="#DejaVuSans-65" transform="translate(2116.5 0)"/>
     </g>
    </g>
   </g>
  </g>
 </g>
 <defs>
  <clipPath id="p62b4ad44c0">
   <rect x="47.307188" y="23.837812" width="658.33" height="360.28"/>
  </clipPath>
 </defs>
</svg>
