<?xml version="1.0" encoding="utf-8" standalone="no"?>
<!DOCTYPE svg PUBLIC "-//W3C//DTD SVG 1.1//EN"
  "http://www.w3.org/Graphics/SVG/1.1/DTD/svg11.dtd">
<svg xmlns:xlink="http://www.w3.org/1999/xlink" width="712.837188pt" height="424.5775pt" viewBox="0 0 712.837188 424.5775" xmlns="http://www.w3.org/2000/svg" version="1.1">
 <metadata>
  <rdf:RDF xmlns:dc="http://purl.org/dc/elements/1.1/" xmlns:cc="http://creativecommons.org/ns#" xmlns:rdf="http://www.w3.org/1999/02/22-rdf-syntax-ns#">
   <cc:Work>
    <dc:type rdf:resource="http://purl.org/dc/dcmitype/StillImage"/>
    <dc:date>2026-06-14T19:02:55.868756</dc:date>
    <dc:format>image/svg+xml</dc:format>
    <dc:creator>
     <cc:Agent>
      <dc:title>Matplotlib v3.10.1, https://matplotlib.org/</dc:title>
     </cc:Agent>
    </dc:creator>
   </cc:Work>
  </rdf:RDF>
 </metadata>
 <defs>
  <style type="text/css">*{stroke-linejoin: round; stroke-linecap: butt}</style>
 </defs>
 <g id="figure_1">
  <g id="patch_1">
   <path d="M 0 424.5775 
L 712.837188 424.5775 
L 712.837188 0 
L 0 0 
z
" style="fill: #ffffff"/>
  </g>
  <g id="axes_1">
   <g id="patch_2">
    <path d="M 47.307188 384.117812 
L 705.637188 384.117812 
L 705.637188 23.837812 
L 47.307188 23.837812 
z
" style="fill: #ffffff"/>
   </g>
   <g id="matplotlib.axis_1">
    <g id="xtick_1">
     <g id="line2d_1">
      <path d="M 47.307188 384.117812 
L 47.307188 23.837812 
" clip-path="url(#p2858be3a57)" style="fill: none; stroke: #b0b0b0; stroke-opacity: 0.2; stroke-width: 0.6; stroke-linecap: square"/>
     </g>
     <g id="line2d_2">
      <defs>
       <path id="m20126e50a7" d="M 0 0 
L 0 3.5 
" style="stroke: #000000; stroke-width: 0.8"/>
      </defs>
      <g>
       <use xlink:href="#m20126e50a7" x="47.307188" y="384.117812" style="stroke: #000000; stroke-width: 0.8"/>
      </g>
     </g>
     <g id="text_1">
      <!-- 0 -->
      <g transform="translate(43.807813 399.476094) scale(0.11 -0.11)">
       <defs>
        <path id="DejaVuSans-30" d="M 2034 4250 
Q 1547 4250 1301 3770 
Q 1056 3291 1056 2328 
Q 1056 1369 1301 889 
Q 1547 409 2034 409 
Q 2525 409 2770 889 
Q 3016 1369 3016 2328 
Q 3016 3291 2770 3770 
Q 2525 4250 2034 4250 
z
M 2034 4750 
Q 2819 4750 3233 4129 
Q 3647 3509 3647 2328 
Q 3647 1150 3233 529 
Q 2819 -91 2034 -91 
Q 1250 -91 836 529 
Q 422 1150 422 2328 
Q 422 3509 836 4129 
Q 1250 4750 2034 4750 
z
" transform="scale(0.015625)"/>
       </defs>
       <use xlink:href="#DejaVuSans-30"/>
      </g>
     </g>
    </g>
    <g id="xtick_2">
     <g id="line2d_3">
      <path d="M 134.387875 384.117812 
L 134.387875 23.837812 
" clip-path="url(#p2858be3a57)" style="fill: none; stroke: #b0b0b0; stroke-opacity: 0.2; stroke-width: 0.6; stroke-linecap: square"/>
     </g>
     <g id="line2d_4">
      <g>
       <use xlink:href="#m20126e50a7" x="134.387875" y="384.117812" style="stroke: #000000; stroke-width: 0.8"/>
      </g>
     </g>
     <g id="text_2">
      <!-- 25 -->
      <g transform="translate(127.389125 399.476094) scale(0.11 -0.11)">
       <defs>
        <path id="DejaVuSans-32" d="M 1228 531 
L 3431 531 
L 3431 0 
L 469 0 
L 469 531 
Q 828 903 1448 1529 
Q 2069 2156 2228 2338 
Q 2531 2678 2651 2914 
Q 2772 3150 2772 3378 
Q 2772 3750 2511 3984 
Q 2250 4219 1831 4219 
Q 1534 4219 1204 4116 
Q 875 4013 500 3803 
L 500 4441 
Q 881 4594 1212 4672 
Q 1544 4750 1819 4750 
Q 2544 4750 2975 4387 
Q 3406 4025 3406 3419 
Q 3406 3131 3298 2873 
Q 3191 2616 2906 2266 
Q 2828 2175 2409 1742 
Q 1991 1309 1228 531 
z
" transform="scale(0.015625)"/>
        <path id="DejaVuSans-35" d="M 691 4666 
L 3169 4666 
L 3169 4134 
L 1269 4134 
L 1269 2991 
Q 1406 3038 1543 3061 
Q 1681 3084 1819 3084 
Q 2600 3084 3056 2656 
Q 3513 2228 3513 1497 
Q 3513 744 3044 326 
Q 2575 -91 1722 -91 
Q 1428 -91 1123 -41 
Q 819 9 494 109 
L 494 744 
Q 775 591 1075 516 
Q 1375 441 1709 441 
Q 2250 441 2565 725 
Q 2881 1009 2881 1497 
Q 2881 1984 2565 2268 
Q 2250 2553 1709 2553 
Q 1456 2553 1204 2497 
Q 953 2441 691 2322 
L 691 4666 
z
" transform="scale(0.015625)"/>
       </defs>
       <use xlink:href="#DejaVuSans-32"/>
       <use xlink:href="#DejaVuSans-35" transform="translate(63.623047 0)"/>
      </g>
     </g>
    </g>
    <g id="xtick_3">
     <g id="line2d_5">
      <path d="M 221.468563 384.117812 
L 221.468563 23.837812 
" clip-path="url(#p2858be3a57)" style="fill: none; stroke: #b0b0b0; stroke-opacity: 0.2; stroke-width: 0.6; stroke-linecap: square"/>
     </g>
     <g id="line2d_6">
      <g>
       <use xlink:href="#m20126e50a7" x="221.468563" y="384.117812" style="stroke: #000000; stroke-width: 0.8"/>
      </g>
     </g>
     <g id="text_3">
      <!-- 50 -->
      <g transform="translate(214.469813 399.476094) scale(0.11 -0.11)">
       <use xlink:href="#DejaVuSans-35"/>
       <use xlink:href="#DejaVuSans-30" transform="translate(63.623047 0)"/>
      </g>
     </g>
    </g>
    <g id="xtick_4">
     <g id="line2d_7">
      <path d="M 308.549251 384.117812 
L 308.549251 23.837812 
" clip-path="url(#p2858be3a57)" style="fill: none; stroke: #b0b0b0; stroke-opacity: 0.2; stroke-width: 0.6; stroke-linecap: square"/>
     </g>
     <g id="line2d_8">
      <g>
       <use xlink:href="#m20126e50a7" x="308.549251" y="384.117812" style="stroke: #000000; stroke-width: 0.8"/>
      </g>
     </g>
     <g id="text_4">
      <!-- 75 -->
      <g transform="translate(301.550501 399.476094) scale(0.11 -0.11)">
       <defs>
        <path id="DejaVuSans-37" d="M 525 4666 
L 3525 4666 
L 3525 4397 
L 1831 0 
L 1172 0 
L 2766 4134 
L 525 4134 
L 525 4666 
z
" transform="scale(0.015625)"/>
       </defs>
       <use xlink:href="#DejaVuSans-37"/>
       <use xlink:href="#DejaVuSans-35" transform="translate(63.623047 0)"/>
      </g>
     </g>
    </g>
    <g id="xtick_5">
     <g id="line2d_9">
      <path d="M 395.629939 384.117812 
L 395.629939 23.837812 
" clip-path="url(#p2858be3a57)" style="fill: none; stroke: #b0b0b0; stroke-opacity: 0.2; stroke-width: 0.6; stroke-linecap: square"/>
     </g>
     <g id="line2d_10">
      <g>
       <use xlink:href="#m20126e50a7" x="395.629939" y="384.117812" style="stroke: #000000; stroke-width: 0.8"/>
      </g>
     </g>
     <g id="text_5">
      <!-- 100 -->
      <g transform="translate(385.131814 399.476094) scale(0.11 -0.11)">
       <defs>
        <path id="DejaVuSans-31" d="M 794 531 
L 1825 531 
L 1825 4091 
L 703 3866 
L 703 4441 
L 1819 4666 
L 2450 4666 
L 2450 531 
L 3481 531 
L 3481 0 
L 794 0 
L 794 531 
z
" transform="scale(0.015625)"/>
       </defs>
       <use xlink:href="#DejaVuSans-31"/>
       <use xlink:href="#DejaVuSans-30" transform="translate(63.623047 0)"/>
       <use xlink:href="#DejaVuSans-30" transform="translate(127.246094 0)"/>
      </g>
     </g>
    </g>
    <g id="xtick_6">
     <g id="line2d_11">
      <path d="M 482.710627 384.117812 
L 482.710627 23.837812 
" clip-path="url(#p2858be3a57)" style="fill: none; stroke: #b0b0b0; stroke-opacity: 0.2; stroke-width: 0.6; stroke-linecap: square"/>
     </g>
     <g id="line2d_12">
      <g>
       <use xlink:href="#m20126e50a7" x="482.710627" y="384.117812" style="stroke: #000000; stroke-width: 0.8"/>
      </g>
     </g>
     <g id="text_6">
      <!-- 125 -->
      <g transform="translate(472.212502 399.476094) scale(0.11 -0.11)">
       <use xlink:href="#DejaVuSans-31"/>
       <use xlink:href="#DejaVuSans-32" transform="translate(63.623047 0)"/>
       <use xlink:href="#DejaVuSans-35" transform="translate(127.246094 0)"/>
      </g>
     </g>
    </g>
    <g id="xtick_7">
     <g id="line2d_13">
      <path d="M 569.791314 384.117812 
L 569.791314 23.837812 
" clip-path="url(#p2858be3a57)" style="fill: none; stroke: #b0b0b0; stroke-opacity: 0.2; stroke-width: 0.6; stroke-linecap: square"/>
     </g>
     <g id="line2d_14">
      <g>
       <use xlink:href="#m20126e50a7" x="569.791314" y="384.117812" style="stroke: #000000; stroke-width: 0.8"/>
      </g>
     </g>
     <g id="text_7">
      <!-- 150 -->
      <g transform="translate(559.293189 399.476094) scale(0.11 -0.11)">
       <use xlink:href="#DejaVuSans-31"/>
       <use xlink:href="#DejaVuSans-35" transform="translate(63.623047 0)"/>
       <use xlink:href="#DejaVuSans-30" transform="translate(127.246094 0)"/>
      </g>
     </g>
    </g>
    <g id="xtick_8">
     <g id="line2d_15">
      <path d="M 656.872002 384.117812 
L 656.872002 23.837812 
" clip-path="url(#p2858be3a57)" style="fill: none; stroke: #b0b0b0; stroke-opacity: 0.2; stroke-width: 0.6; stroke-linecap: square"/>
     </g>
     <g id="line2d_16">
      <g>
       <use xlink:href="#m20126e50a7" x="656.872002" y="384.117812" style="stroke: #000000; stroke-width: 0.8"/>
      </g>
     </g>
     <g id="text_8">
      <!-- 175 -->
      <g transform="translate(646.373877 399.476094) scale(0.11 -0.11)">
       <use xlink:href="#DejaVuSans-31"/>
       <use xlink:href="#DejaVuSans-37" transform="translate(63.623047 0)"/>
       <use xlink:href="#DejaVuSans-35" transform="translate(127.246094 0)"/>
      </g>
     </g>
    </g>
    <g id="text_9">
     <!-- Time (s) -->
     <g transform="translate(352.0775 414.881875) scale(0.12 -0.12)">
      <defs>
       <path id="DejaVuSans-54" d="M -19 4666 
L 3928 4666 
L 3928 4134 
L 2272 4134 
L 2272 0 
L 1638 0 
L 1638 4134 
L -19 4134 
L -19 4666 
z
" transform="scale(0.015625)"/>
       <path id="DejaVuSans-69" d="M 603 3500 
L 1178 3500 
L 1178 0 
L 603 0 
L 603 3500 
z
M 603 4863 
L 1178 4863 
L 1178 4134 
L 603 4134 
L 603 4863 
z
" transform="scale(0.015625)"/>
       <path id="DejaVuSans-6d" d="M 3328 2828 
Q 3544 3216 3844 3400 
Q 4144 3584 4550 3584 
Q 5097 3584 5394 3201 
Q 5691 2819 5691 2113 
L 5691 0 
L 5113 0 
L 5113 2094 
Q 5113 2597 4934 2840 
Q 4756 3084 4391 3084 
Q 3944 3084 3684 2787 
Q 3425 2491 3425 1978 
L 3425 0 
L 2847 0 
L 2847 2094 
Q 2847 2600 2669 2842 
Q 2491 3084 2119 3084 
Q 1678 3084 1418 2786 
Q 1159 2488 1159 1978 
L 1159 0 
L 581 0 
L 581 3500 
L 1159 3500 
L 1159 2956 
Q 1356 3278 1631 3431 
Q 1906 3584 2284 3584 
Q 2666 3584 2933 3390 
Q 3200 3197 3328 2828 
z
" transform="scale(0.015625)"/>
       <path id="DejaVuSans-65" d="M 3597 1894 
L 3597 1613 
L 953 1613 
Q 991 1019 1311 708 
Q 1631 397 2203 397 
Q 2534 397 2845 478 
Q 3156 559 3463 722 
L 3463 178 
Q 3153 47 2828 -22 
Q 2503 -91 2169 -91 
Q 1331 -91 842 396 
Q 353 884 353 1716 
Q 353 2575 817 3079 
Q 1281 3584 2069 3584 
Q 2775 3584 3186 3129 
Q 3597 2675 3597 1894 
z
M 3022 2063 
Q 3016 2534 2758 2815 
Q 2500 3097 2075 3097 
Q 1594 3097 1305 2825 
Q 1016 2553 972 2059 
L 3022 2063 
z
" transform="scale(0.015625)"/>
       <path id="DejaVuSans-20" transform="scale(0.015625)"/>
       <path id="DejaVuSans-28" d="M 1984 4856 
Q 1566 4138 1362 3434 
Q 1159 2731 1159 2009 
Q 1159 1288 1364 580 
Q 1569 -128 1984 -844 
L 1484 -844 
Q 1016 -109 783 600 
Q 550 1309 550 2009 
Q 550 2706 781 3412 
Q 1013 4119 1484 4856 
L 1984 4856 
z
" transform="scale(0.015625)"/>
       <path id="DejaVuSans-73" d="M 2834 3397 
L 2834 2853 
Q 2591 2978 2328 3040 
Q 2066 3103 1784 3103 
Q 1356 3103 1142 2972 
Q 928 2841 928 2578 
Q 928 2378 1081 2264 
Q 1234 2150 1697 2047 
L 1894 2003 
Q 2506 1872 2764 1633 
Q 3022 1394 3022 966 
Q 3022 478 2636 193 
Q 2250 -91 1575 -91 
Q 1294 -91 989 -36 
Q 684 19 347 128 
L 347 722 
Q 666 556 975 473 
Q 1284 391 1588 391 
Q 1994 391 2212 530 
Q 2431 669 2431 922 
Q 2431 1156 2273 1281 
Q 2116 1406 1581 1522 
L 1381 1569 
Q 847 1681 609 1914 
Q 372 2147 372 2553 
Q 372 3047 722 3315 
Q 1072 3584 1716 3584 
Q 2034 3584 2315 3537 
Q 2597 3491 2834 3397 
z
" transform="scale(0.015625)"/>
       <path id="DejaVuSans-29" d="M 513 4856 
L 1013 4856 
Q 1481 4119 1714 3412 
Q 1947 2706 1947 2009 
Q 1947 1309 1714 600 
Q 1481 -109 1013 -844 
L 513 -844 
Q 928 -128 1133 580 
Q 1338 1288 1338 2009 
Q 1338 2731 1133 3434 
Q 928 4138 513 4856 
z
" transform="scale(0.015625)"/>
      </defs>
      <use xlink:href="#DejaVuSans-54"/>
      <use xlink:href="#DejaVuSans-69" transform="translate(57.958984 0)"/>
      <use xlink:href="#DejaVuSans-6d" transform="translate(85.742188 0)"/>
      <use xlink:href="#DejaVuSans-65" transform="translate(183.154297 0)"/>
      <use xlink:href="#DejaVuSans-20" transform="translate(244.677734 0)"/>
      <use xlink:href="#DejaVuSans-28" transform="translate(276.464844 0)"/>
      <use xlink:href="#DejaVuSans-73" transform="translate(315.478516 0)"/>
      <use xlink:href="#DejaVuSans-29" transform="translate(367.578125 0)"/>
     </g>
    </g>
   </g>
   <g id="matplotlib.axis_2">
    <g id="ytick_1">
     <g id="line2d_17">
      <path d="M 47.307188 367.741449 
L 705.637188 367.741449 
" clip-path="url(#p2858be3a57)" style="fill: none; stroke: #b0b0b0; stroke-opacity: 0.2; stroke-width: 0.6; stroke-linecap: square"/>
     </g>
     <g id="line2d_18">
      <defs>
       <path id="m20a7c81a86" d="M 0 0 
L -3.5 0 
" style="stroke: #000000; stroke-width: 0.8"/>
      </defs>
      <g>
       <use xlink:href="#m20a7c81a86" x="47.307188" y="367.741449" style="stroke: #000000; stroke-width: 0.8"/>
      </g>
     </g>
     <g id="text_10">
      <!-- 0.0 -->
      <g transform="translate(22.81375 371.920589) scale(0.11 -0.11)">
       <defs>
        <path id="DejaVuSans-2e" d="M 684 794 
L 1344 794 
L 1344 0 
L 684 0 
L 684 794 
z
" transform="scale(0.015625)"/>
       </defs>
       <use xlink:href="#DejaVuSans-30"/>
       <use xlink:href="#DejaVuSans-2e" transform="translate(63.623047 0)"/>
       <use xlink:href="#DejaVuSans-30" transform="translate(95.410156 0)"/>
      </g>
     </g>
    </g>
    <g id="ytick_2">
     <g id="line2d_19">
      <path d="M 47.307188 317.507205 
L 705.637188 317.507205 
" clip-path="url(#p2858be3a57)" style="fill: none; stroke: #b0b0b0; stroke-opacity: 0.2; stroke-width: 0.6; stroke-linecap: square"/>
     </g>
     <g id="line2d_20">
      <g>
       <use xlink:href="#m20a7c81a86" x="47.307188" y="317.507205" style="stroke: #000000; stroke-width: 0.8"/>
      </g>
     </g>
     <g id="text_11">
      <!-- 0.5 -->
      <g transform="translate(22.81375 321.686345) scale(0.11 -0.11)">
       <use xlink:href="#DejaVuSans-30"/>
       <use xlink:href="#DejaVuSans-2e" transform="translate(63.623047 0)"/>
       <use xlink:href="#DejaVuSans-35" transform="translate(95.410156 0)"/>
      </g>
     </g>
    </g>
    <g id="ytick_3">
     <g id="line2d_21">
      <path d="M 47.307188 267.27296 
L 705.637188 267.27296 
" clip-path="url(#p2858be3a57)" style="fill: none; stroke: #b0b0b0; stroke-opacity: 0.2; stroke-width: 0.6; stroke-linecap: square"/>
     </g>
     <g id="line2d_22">
      <g>
       <use xlink:href="#m20a7c81a86" x="47.307188" y="267.27296" style="stroke: #000000; stroke-width: 0.8"/>
      </g>
     </g>
     <g id="text_12">
      <!-- 1.0 -->
      <g transform="translate(22.81375 271.452101) scale(0.11 -0.11)">
       <use xlink:href="#DejaVuSans-31"/>
       <use xlink:href="#DejaVuSans-2e" transform="translate(63.623047 0)"/>
       <use xlink:href="#DejaVuSans-30" transform="translate(95.410156 0)"/>
      </g>
     </g>
    </g>
    <g id="ytick_4">
     <g id="line2d_23">
      <path d="M 47.307188 217.038716 
L 705.637188 217.038716 
" clip-path="url(#p2858be3a57)" style="fill: none; stroke: #b0b0b0; stroke-opacity: 0.2; stroke-width: 0.6; stroke-linecap: square"/>
     </g>
     <g id="line2d_24">
      <g>
       <use xlink:href="#m20a7c81a86" x="47.307188" y="217.038716" style="stroke: #000000; stroke-width: 0.8"/>
      </g>
     </g>
     <g id="text_13">
      <!-- 1.5 -->
      <g transform="translate(22.81375 221.217857) scale(0.11 -0.11)">
       <use xlink:href="#DejaVuSans-31"/>
       <use xlink:href="#DejaVuSans-2e" transform="translate(63.623047 0)"/>
       <use xlink:href="#DejaVuSans-35" transform="translate(95.410156 0)"/>
      </g>
     </g>
    </g>
    <g id="ytick_5">
     <g id="line2d_25">
      <path d="M 47.307188 166.804472 
L 705.637188 166.804472 
" clip-path="url(#p2858be3a57)" style="fill: none; stroke: #b0b0b0; stroke-opacity: 0.2; stroke-width: 0.6; stroke-linecap: square"/>
     </g>
     <g id="line2d_26">
      <g>
       <use xlink:href="#m20a7c81a86" x="47.307188" y="166.804472" style="stroke: #000000; stroke-width: 0.8"/>
      </g>
     </g>
     <g id="text_14">
      <!-- 2.0 -->
      <g transform="translate(22.81375 170.983612) scale(0.11 -0.11)">
       <use xlink:href="#DejaVuSans-32"/>
       <use xlink:href="#DejaVuSans-2e" transform="translate(63.623047 0)"/>
       <use xlink:href="#DejaVuSans-30" transform="translate(95.410156 0)"/>
      </g>
     </g>
    </g>
    <g id="ytick_6">
     <g id="line2d_27">
      <path d="M 47.307188 116.570227 
L 705.637188 116.570227 
" clip-path="url(#p2858be3a57)" style="fill: none; stroke: #b0b0b0; stroke-opacity: 0.2; stroke-width: 0.6; stroke-linecap: square"/>
     </g>
     <g id="line2d_28">
      <g>
       <use xlink:href="#m20a7c81a86" x="47.307188" y="116.570227" style="stroke: #000000; stroke-width: 0.8"/>
      </g>
     </g>
     <g id="text_15">
      <!-- 2.5 -->
      <g transform="translate(22.81375 120.749368) scale(0.11 -0.11)">
       <use xlink:href="#DejaVuSans-32"/>
       <use xlink:href="#DejaVuSans-2e" transform="translate(63.623047 0)"/>
       <use xlink:href="#DejaVuSans-35" transform="translate(95.410156 0)"/>
      </g>
     </g>
    </g>
    <g id="ytick_7">
     <g id="line2d_29">
      <path d="M 47.307188 66.335983 
L 705.637188 66.335983 
" clip-path="url(#p2858be3a57)" style="fill: none; stroke: #b0b0b0; stroke-opacity: 0.2; stroke-width: 0.6; stroke-linecap: square"/>
     </g>
     <g id="line2d_30">
      <g>
       <use xlink:href="#m20a7c81a86" x="47.307188" y="66.335983" style="stroke: #000000; stroke-width: 0.8"/>
      </g>
     </g>
     <g id="text_16">
      <!-- 3.0 -->
      <g transform="translate(22.81375 70.515124) scale(0.11 -0.11)">
       <defs>
        <path id="DejaVuSans-33" d="M 2597 2516 
Q 3050 2419 3304 2112 
Q 3559 1806 3559 1356 
Q 3559 666 3084 287 
Q 2609 -91 1734 -91 
Q 1441 -91 1130 -33 
Q 819 25 488 141 
L 488 750 
Q 750 597 1062 519 
Q 1375 441 1716 441 
Q 2309 441 2620 675 
Q 2931 909 2931 1356 
Q 2931 1769 2642 2001 
Q 2353 2234 1838 2234 
L 1294 2234 
L 1294 2753 
L 1863 2753 
Q 2328 2753 2575 2939 
Q 2822 3125 2822 3475 
Q 2822 3834 2567 4026 
Q 2313 4219 1838 4219 
Q 1578 4219 1281 4162 
Q 984 4106 628 3988 
L 628 4550 
Q 988 4650 1302 4700 
Q 1616 4750 1894 4750 
Q 2613 4750 3031 4423 
Q 3450 4097 3450 3541 
Q 3450 3153 3228 2886 
Q 3006 2619 2597 2516 
z
" transform="scale(0.015625)"/>
       </defs>
       <use xlink:href="#DejaVuSans-33"/>
       <use xlink:href="#DejaVuSans-2e" transform="translate(63.623047 0)"/>
       <use xlink:href="#DejaVuSans-30" transform="translate(95.410156 0)"/>
      </g>
     </g>
    </g>
    <g id="text_17">
     <!-- AU mean intensity -->
     <g transform="translate(16.318125 259.314687) rotate(-90) scale(0.12 -0.12)">
      <defs>
       <path id="DejaVuSans-41" d="M 2188 4044 
L 1331 1722 
L 3047 1722 
L 2188 4044 
z
M 1831 4666 
L 2547 4666 
L 4325 0 
L 3669 0 
L 3244 1197 
L 1141 1197 
L 716 0 
L 50 0 
L 1831 4666 
z
" transform="scale(0.015625)"/>
       <path id="DejaVuSans-55" d="M 556 4666 
L 1191 4666 
L 1191 1831 
Q 1191 1081 1462 751 
Q 1734 422 2344 422 
Q 2950 422 3222 751 
Q 3494 1081 3494 1831 
L 3494 4666 
L 4128 4666 
L 4128 1753 
Q 4128 841 3676 375 
Q 3225 -91 2344 -91 
Q 1459 -91 1007 375 
Q 556 841 556 1753 
L 556 4666 
z
" transform="scale(0.015625)"/>
       <path id="DejaVuSans-61" d="M 2194 1759 
Q 1497 1759 1228 1600 
Q 959 1441 959 1056 
Q 959 750 1161 570 
Q 1363 391 1709 391 
Q 2188 391 2477 730 
Q 2766 1069 2766 1631 
L 2766 1759 
L 2194 1759 
z
M 3341 1997 
L 3341 0 
L 2766 0 
L 2766 531 
Q 2569 213 2275 61 
Q 1981 -91 1556 -91 
Q 1019 -91 701 211 
Q 384 513 384 1019 
Q 384 1609 779 1909 
Q 1175 2209 1959 2209 
L 2766 2209 
L 2766 2266 
Q 2766 2663 2505 2880 
Q 2244 3097 1772 3097 
Q 1472 3097 1187 3025 
Q 903 2953 641 2809 
L 641 3341 
Q 956 3463 1253 3523 
Q 1550 3584 1831 3584 
Q 2591 3584 2966 3190 
Q 3341 2797 3341 1997 
z
" transform="scale(0.015625)"/>
       <path id="DejaVuSans-6e" d="M 3513 2113 
L 3513 0 
L 2938 0 
L 2938 2094 
Q 2938 2591 2744 2837 
Q 2550 3084 2163 3084 
Q 1697 3084 1428 2787 
Q 1159 2491 1159 1978 
L 1159 0 
L 581 0 
L 581 3500 
L 1159 3500 
L 1159 2956 
Q 1366 3272 1645 3428 
Q 1925 3584 2291 3584 
Q 2894 3584 3203 3211 
Q 3513 2838 3513 2113 
z
" transform="scale(0.015625)"/>
       <path id="DejaVuSans-74" d="M 1172 4494 
L 1172 3500 
L 2356 3500 
L 2356 3053 
L 1172 3053 
L 1172 1153 
Q 1172 725 1289 603 
Q 1406 481 1766 481 
L 2356 481 
L 2356 0 
L 1766 0 
Q 1100 0 847 248 
Q 594 497 594 1153 
L 594 3053 
L 172 3053 
L 172 3500 
L 594 3500 
L 594 4494 
L 1172 4494 
z
" transform="scale(0.015625)"/>
       <path id="DejaVuSans-79" d="M 2059 -325 
Q 1816 -950 1584 -1140 
Q 1353 -1331 966 -1331 
L 506 -1331 
L 506 -850 
L 844 -850 
Q 1081 -850 1212 -737 
Q 1344 -625 1503 -206 
L 1606 56 
L 191 3500 
L 800 3500 
L 1894 763 
L 2988 3500 
L 3597 3500 
L 2059 -325 
z
" transform="scale(0.015625)"/>
      </defs>
      <use xlink:href="#DejaVuSans-41"/>
      <use xlink:href="#DejaVuSans-55" transform="translate(68.408203 0)"/>
      <use xlink:href="#DejaVuSans-20" transform="translate(141.601562 0)"/>
      <use xlink:href="#DejaVuSans-6d" transform="translate(173.388672 0)"/>
      <use xlink:href="#DejaVuSans-65" transform="translate(270.800781 0)"/>
      <use xlink:href="#DejaVuSans-61" transform="translate(332.324219 0)"/>
      <use xlink:href="#DejaVuSans-6e" transform="translate(393.603516 0)"/>
      <use xlink:href="#DejaVuSans-20" transform="translate(456.982422 0)"/>
      <use xlink:href="#DejaVuSans-69" transform="translate(488.769531 0)"/>
      <use xlink:href="#DejaVuSans-6e" transform="translate(516.552734 0)"/>
      <use xlink:href="#DejaVuSans-74" transform="translate(579.931641 0)"/>
      <use xlink:href="#DejaVuSans-65" transform="translate(619.140625 0)"/>
      <use xlink:href="#DejaVuSans-6e" transform="translate(680.664062 0)"/>
      <use xlink:href="#DejaVuSans-73" transform="translate(744.042969 0)"/>
      <use xlink:href="#DejaVuSans-69" transform="translate(796.142578 0)"/>
      <use xlink:href="#DejaVuSans-74" transform="translate(823.925781 0)"/>
      <use xlink:href="#DejaVuSans-79" transform="translate(863.134766 0)"/>
     </g>
    </g>
   </g>
   <g id="FillBetweenPolyCollection_1">
    <defs>
     <path id="m6d373f349a" d="M 47.307188 -180.529248 
L 47.307188 -31.036838 
L 50.790415 -21.053417 
L 54.273643 -4.12539 
L 57.75687 -12.877157 
L 61.240098 -24.008792 
L 64.723325 -15.692385 
L 68.206553 -17.821907 
L 71.68978 -12.647085 
L 75.173008 -16.052593 
L 78.656235 7.033407 
L 82.139463 -25.898655 
L 85.62269 -20.828773 
L 89.105918 -14.715189 
L 92.589145 -12.241414 
L 96.072373 -14.58933 
L 99.5556 -11.995629 
L 103.038828 -11.187945 
L 106.522055 -9.546623 
L 110.005283 -7.711365 
L 113.48851 -13.545327 
L 116.971738 -10.955003 
L 120.454965 -29.249514 
L 123.938193 -15.434903 
L 127.42142 -12.496514 
L 130.904648 -11.906118 
L 134.387875 -2.829521 
L 137.871103 -10.440638 
L 141.35433 -20.431452 
L 144.837558 -23.565048 
L 148.320785 -24.212882 
L 151.804013 -21.713358 
L 155.28724 -17.80975 
L 158.770468 -6.862667 
L 162.253695 -32.688486 
L 165.736923 -27.816009 
L 169.22015 -19.073032 
L 172.703378 -28.247954 
L 176.186605 -32.364934 
L 179.669833 -18.406216 
L 183.153061 -20.71356 
L 186.636288 -24.115589 
L 190.119516 -14.793566 
L 193.602743 -27.238349 
L 197.085971 -35.124945 
L 200.569198 -50.708492 
L 204.052426 -39.171825 
L 207.535653 -45.675049 
L 211.018881 -58.194862 
L 214.502108 -65.929801 
L 217.985336 -56.356603 
L 221.468563 -54.425358 
L 224.951791 -39.085565 
L 228.435018 -43.342288 
L 231.918246 -52.105025 
L 235.401473 -46.473563 
L 238.884701 -41.798475 
L 242.367928 -40.701718 
L 245.851156 -35.706263 
L 249.334383 -35.727887 
L 252.817611 -27.046395 
L 256.300838 -38.087016 
L 259.784066 -30.027857 
L 263.267293 -39.567904 
L 266.750521 -30.136103 
L 270.233748 -21.77041 
L 273.716976 -26.061166 
L 277.200203 -23.030749 
L 280.683431 -35.767746 
L 284.166658 -28.714802 
L 287.649886 -38.528071 
L 291.133113 -29.377472 
L 294.616341 -17.427859 
L 298.099568 -33.010744 
L 301.582796 -29.696424 
L 305.066023 -24.838163 
L 308.549251 -40.096169 
L 312.032479 -40.510691 
L 315.515706 -30.406752 
L 318.998934 -26.644117 
L 322.482161 -23.715251 
L 325.965389 -20.158113 
L 329.448616 -10.802301 
L 332.931844 -17.397796 
L 336.415071 -16.50381 
L 339.898299 -24.007121 
L 343.381526 -32.582553 
L 346.864754 -20.447324 
L 350.347981 -34.181975 
L 353.831209 -37.288567 
L 357.314436 -32.324931 
L 360.797664 -33.410145 
L 364.280891 -28.530418 
L 367.764119 -30.217493 
L 371.247346 -25.010466 
L 374.730574 -27.597117 
L 378.213801 -37.051668 
L 381.697029 -33.055919 
L 385.180256 -33.318971 
L 388.663484 -31.12042 
L 392.146711 -55.154079 
L 395.629939 -38.905003 
L 399.113166 -37.546416 
L 402.596394 -42.466376 
L 406.079621 -40.683137 
L 409.562849 -41.2438 
L 413.046076 -39.700698 
L 416.529304 -31.527241 
L 420.012531 -37.121176 
L 423.495759 -43.548494 
L 426.978986 -40.997749 
L 430.462214 -44.489449 
L 433.945441 -41.53656 
L 437.428669 -48.83784 
L 440.911896 -42.954283 
L 444.395124 -31.21844 
L 447.878352 -29.2139 
L 451.361579 -25.821897 
L 454.844807 -28.781698 
L 458.328034 -22.369425 
L 461.811262 -21.896285 
L 465.294489 -27.517826 
L 468.777717 -27.935725 
L 472.260944 -20.38041 
L 475.744172 -21.56659 
L 479.227399 -23.274422 
L 482.710627 -22.001266 
L 486.193854 -12.372319 
L 489.677082 -17.617115 
L 493.160309 -23.956399 
L 496.643537 -33.280376 
L 500.126764 -53.281073 
L 503.609992 -47.33979 
L 507.093219 -42.024682 
L 510.576447 -43.640011 
L 514.059674 -51.068049 
L 517.542902 -43.41325 
L 521.026129 -41.567193 
L 524.509357 -32.040099 
L 527.992584 -32.614838 
L 531.475812 -36.973088 
L 534.959039 -36.380475 
L 538.442267 -33.420621 
L 541.925494 -32.920617 
L 545.408722 -39.418968 
L 548.891949 -42.099757 
L 552.375177 -40.161052 
L 555.858404 -29.801718 
L 559.341632 -32.535598 
L 562.824859 -39.687543 
L 566.308087 -38.628524 
L 569.791314 -36.542846 
L 573.274542 -28.629626 
L 576.75777 -31.337881 
L 580.240997 -39.907662 
L 583.724225 -55.858708 
L 587.207452 -42.796795 
L 590.69068 -38.08126 
L 594.173907 -37.708496 
L 597.657135 -44.834883 
L 601.140362 -40.181643 
L 604.62359 -34.752672 
L 608.106817 -51.91127 
L 611.590045 -49.054531 
L 615.073272 -42.273579 
L 618.5565 -38.689376 
L 622.039727 -36.498219 
L 625.522955 -41.32231 
L 629.006182 -47.108354 
L 632.48941 -44.18562 
L 635.972637 -41.146968 
L 639.455865 -36.482296 
L 642.939092 -33.325627 
L 646.42232 -42.020061 
L 649.905547 -39.610845 
L 653.388775 -31.914657 
L 656.872002 -30.061107 
L 660.35523 -37.80349 
L 663.838457 -35.359006 
L 667.321685 -34.066632 
L 670.804912 -34.976502 
L 674.28814 -42.375958 
L 677.771367 -33.299946 
L 681.254595 -37.014541 
L 684.737822 -50.323166 
L 688.22105 -28.072265 
L 691.704277 -58.667497 
L 695.187505 -84.997657 
L 698.670732 -72.118868 
L 702.15396 -84.240259 
L 705.637188 -55.109364 
L 705.637188 -228.833993 
L 705.637188 -228.833993 
L 702.15396 -203.744671 
L 698.670732 -200.657212 
L 695.187505 -192.032967 
L 691.704277 -195.032561 
L 688.22105 -190.872239 
L 684.737822 -165.06462 
L 681.254595 -180.885515 
L 677.771367 -179.316296 
L 674.28814 -178.740711 
L 670.804912 -181.805718 
L 667.321685 -180.341335 
L 663.838457 -174.295147 
L 660.35523 -171.18404 
L 656.872002 -178.770244 
L 653.388775 -187.46812 
L 649.905547 -168.986657 
L 646.42232 -158.921887 
L 642.939092 -184.366005 
L 639.455865 -163.454968 
L 635.972637 -149.755954 
L 632.48941 -144.238279 
L 629.006182 -131.487179 
L 625.522955 -143.625703 
L 622.039727 -164.165737 
L 618.5565 -159.538302 
L 615.073272 -160.235186 
L 611.590045 -148.37102 
L 608.106817 -123.817446 
L 604.62359 -181.624153 
L 601.140362 -193.792814 
L 597.657135 -181.564484 
L 594.173907 -182.356272 
L 590.69068 -193.009337 
L 587.207452 -189.610006 
L 583.724225 -169.009325 
L 580.240997 -186.159232 
L 576.75777 -184.468598 
L 573.274542 -186.714854 
L 569.791314 -177.735483 
L 566.308087 -165.456557 
L 562.824859 -164.179335 
L 559.341632 -170.250321 
L 555.858404 -177.022499 
L 552.375177 -176.811711 
L 548.891949 -182.654843 
L 545.408722 -178.056137 
L 541.925494 -188.75511 
L 538.442267 -189.73615 
L 534.959039 -177.946468 
L 531.475812 -178.648547 
L 527.992584 -174.962892 
L 524.509357 -168.234109 
L 521.026129 -154.197387 
L 517.542902 -149.360464 
L 514.059674 -149.282432 
L 510.576447 -151.203701 
L 507.093219 -155.433278 
L 503.609992 -140.297907 
L 500.126764 -126.408549 
L 496.643537 -156.314724 
L 493.160309 -183.291395 
L 489.677082 -198.907474 
L 486.193854 -185.335714 
L 482.710627 -179.338254 
L 479.227399 -188.90621 
L 475.744172 -189.313032 
L 472.260944 -181.703962 
L 468.777717 -179.018814 
L 465.294489 -171.890131 
L 461.811262 -186.590824 
L 458.328034 -181.26315 
L 454.844807 -156.401831 
L 451.361579 -161.851012 
L 447.878352 -158.949626 
L 444.395124 -152.229851 
L 440.911896 -127.627258 
L 437.428669 -120.306044 
L 433.945441 -139.185487 
L 430.462214 -142.368183 
L 426.978986 -127.565908 
L 423.495759 -124.294241 
L 420.012531 -152.762235 
L 416.529304 -142.920061 
L 413.046076 -146.402373 
L 409.562849 -155.874794 
L 406.079621 -143.027422 
L 402.596394 -134.731457 
L 399.113166 -158.314018 
L 395.629939 -166.144013 
L 392.146711 -166.870734 
L 388.663484 -163.280584 
L 385.180256 -166.509117 
L 381.697029 -167.274372 
L 378.213801 -169.025901 
L 374.730574 -179.354213 
L 371.247346 -198.683934 
L 367.764119 -180.909044 
L 364.280891 -184.971602 
L 360.797664 -186.964433 
L 357.314436 -189.861653 
L 353.831209 -174.562659 
L 350.347981 -191.572092 
L 346.864754 -197.415542 
L 343.381526 -173.775987 
L 339.898299 -173.070297 
L 336.415071 -183.375364 
L 332.931844 -183.22896 
L 329.448616 -198.817208 
L 325.965389 -201.534084 
L 322.482161 -193.226538 
L 318.998934 -188.089402 
L 315.515706 -180.319613 
L 312.032479 -170.409967 
L 308.549251 -176.990362 
L 305.066023 -202.90685 
L 301.582796 -193.588502 
L 298.099568 -187.841471 
L 294.616341 -209.313864 
L 291.133113 -177.903262 
L 287.649886 -158.175277 
L 284.166658 -181.017301 
L 280.683431 -177.411465 
L 277.200203 -193.216439 
L 273.716976 -179.548265 
L 270.233748 -175.395867 
L 266.750521 -168.838943 
L 263.267293 -160.798781 
L 259.784066 -165.881168 
L 256.300838 -146.334348 
L 252.817611 -157.646536 
L 249.334383 -160.320273 
L 245.851156 -157.093435 
L 242.367928 -159.875627 
L 238.884701 -147.441521 
L 235.401473 -130.57471 
L 231.918246 -141.976513 
L 228.435018 -163.093018 
L 224.951791 -170.395367 
L 221.468563 -152.090971 
L 217.985336 -148.430025 
L 214.502108 -148.397142 
L 211.018881 -154.551295 
L 207.535653 -186.177164 
L 204.052426 -184.09754 
L 200.569198 -160.815057 
L 197.085971 -184.013087 
L 193.602743 -203.900862 
L 190.119516 -208.458477 
L 186.636288 -203.677373 
L 183.153061 -201.992835 
L 179.669833 -201.673359 
L 176.186605 -172.534288 
L 172.703378 -193.727558 
L 169.22015 -193.560531 
L 165.736923 -185.652091 
L 162.253695 -183.496119 
L 158.770468 -201.314633 
L 155.28724 -207.616223 
L 151.804013 -191.082251 
L 148.320785 -185.086167 
L 144.837558 -189.319687 
L 141.35433 -203.141051 
L 137.871103 -205.793046 
L 134.387875 -203.542084 
L 130.904648 -207.095851 
L 127.42142 -194.83647 
L 123.938193 -193.293353 
L 120.454965 -180.673132 
L 116.971738 -209.383846 
L 113.48851 -207.169021 
L 110.005283 -205.14096 
L 106.522055 -205.624636 
L 103.038828 -207.036203 
L 99.5556 -201.157599 
L 96.072373 -193.012707 
L 92.589145 -208.43829 
L 89.105918 -217.047899 
L 85.62269 -198.586414 
L 82.139463 -168.034806 
L 78.656235 -230.744488 
L 75.173008 -189.775041 
L 71.68978 -196.677947 
L 68.206553 -187.017246 
L 64.723325 -192.653945 
L 61.240098 -172.136596 
L 57.75687 -193.51177 
L 54.273643 -202.552984 
L 50.790415 -172.343896 
L 47.307188 -180.529248 
z
" style="stroke: #d3d3d3; stroke-opacity: 0.5"/>
    </defs>
    <g clip-path="url(#p2858be3a57)">
     <use xlink:href="#m6d373f349a" x="0" y="424.5775" style="fill: #d3d3d3; fill-opacity: 0.5; stroke: #d3d3d3; stroke-opacity: 0.5"/>
    </g>
   </g>
   <g id="FillBetweenPolyCollection_2">
    <defs>
     <path id="madcac59bcf" d="M 47.307188 -143.156145 
L 47.307188 -68.40994 
L 50.790415 -58.876037 
L 54.273643 -53.732289 
L 57.75687 -58.03581 
L 61.240098 -61.040743 
L 64.723325 -59.932775 
L 68.206553 -60.120742 
L 71.68978 -58.654801 
L 75.173008 -59.483205 
L 78.656235 -52.411067 
L 82.139463 -61.432693 
L 85.62269 -65.268183 
L 89.105918 -65.298367 
L 92.589145 -61.290633 
L 96.072373 -59.195174 
L 99.5556 -59.286122 
L 103.038828 -60.15001 
L 106.522055 -58.566126 
L 110.005283 -57.068764 
L 113.48851 -61.95125 
L 116.971738 -60.562213 
L 120.454965 -67.105419 
L 123.938193 -59.899516 
L 127.42142 -58.081503 
L 130.904648 -60.703552 
L 134.387875 -53.007662 
L 137.871103 -59.27874 
L 141.35433 -66.108852 
L 144.837558 -65.003708 
L 148.320785 -64.431203 
L 151.804013 -64.055581 
L 155.28724 -65.261369 
L 158.770468 -55.475658 
L 162.253695 -70.390394 
L 165.736923 -67.275029 
L 169.22015 -62.694907 
L 172.703378 -69.617855 
L 176.186605 -67.407273 
L 179.669833 -64.223002 
L 183.153061 -66.033379 
L 186.636288 -69.006035 
L 190.119516 -63.209794 
L 193.602743 -71.403977 
L 197.085971 -72.34698 
L 200.569198 -78.235133 
L 204.052426 -75.403254 
L 207.535653 -80.800578 
L 211.018881 -82.283971 
L 214.502108 -86.546637 
L 217.985336 -79.374958 
L 221.468563 -78.841761 
L 224.951791 -71.913015 
L 228.435018 -73.27997 
L 231.918246 -74.572897 
L 235.401473 -67.49885 
L 238.884701 -68.209236 
L 242.367928 -70.495195 
L 245.851156 -66.053056 
L 249.334383 -66.875984 
L 252.817611 -59.69643 
L 256.300838 -65.148849 
L 259.784066 -63.991184 
L 263.267293 -69.875623 
L 266.750521 -64.811813 
L 270.233748 -60.176775 
L 273.716976 -64.43294 
L 277.200203 -65.577172 
L 280.683431 -71.178676 
L 284.166658 -66.790426 
L 287.649886 -68.439873 
L 291.133113 -66.50892 
L 294.616341 -65.399361 
L 298.099568 -71.718426 
L 301.582796 -70.669443 
L 305.066023 -69.355334 
L 308.549251 -74.319717 
L 312.032479 -72.98551 
L 315.515706 -67.884967 
L 318.998934 -67.005439 
L 322.482161 -66.093073 
L 325.965389 -65.502106 
L 329.448616 -57.806028 
L 332.931844 -58.855587 
L 336.415071 -58.221698 
L 339.898299 -61.272915 
L 343.381526 -67.880912 
L 346.864754 -64.689378 
L 350.347981 -73.529504 
L 353.831209 -71.60709 
L 357.314436 -71.709111 
L 360.797664 -71.798717 
L 364.280891 -67.640714 
L 367.764119 -67.89038 
L 371.247346 -68.428833 
L 374.730574 -65.536391 
L 378.213801 -70.045226 
L 381.697029 -66.610532 
L 385.180256 -66.616508 
L 388.663484 -64.160461 
L 392.146711 -83.083243 
L 395.629939 -70.714755 
L 399.113166 -67.738317 
L 402.596394 -65.532646 
L 406.079621 -66.269208 
L 409.562849 -69.901548 
L 413.046076 -66.376117 
L 416.529304 -59.375446 
L 420.012531 -66.031441 
L 423.495759 -63.734931 
L 426.978986 -62.639789 
L 430.462214 -68.959132 
L 433.945441 -65.948792 
L 437.428669 -66.704891 
L 440.911896 -64.122527 
L 444.395124 -61.471293 
L 447.878352 -61.647832 
L 451.361579 -59.829176 
L 454.844807 -60.686731 
L 458.328034 -62.092856 
L 461.811262 -63.06992 
L 465.294489 -63.610903 
L 468.777717 -65.706498 
L 472.260944 -60.711298 
L 475.744172 -63.5032 
L 479.227399 -64.682369 
L 482.710627 -61.335513 
L 486.193854 -55.613168 
L 489.677082 -62.939705 
L 493.160309 -63.790148 
L 496.643537 -64.038963 
L 500.126764 -71.562942 
L 503.609992 -70.579319 
L 507.093219 -70.376831 
L 510.576447 -70.530933 
L 514.059674 -75.621645 
L 517.542902 -69.900054 
L 521.026129 -69.724741 
L 524.509357 -66.088601 
L 527.992584 -68.201852 
L 531.475812 -72.391952 
L 534.959039 -71.771974 
L 538.442267 -72.499504 
L 541.925494 -71.879241 
L 545.408722 -74.07826 
L 548.891949 -77.238529 
L 552.375177 -74.323717 
L 555.858404 -66.606913 
L 559.341632 -66.964279 
L 562.824859 -70.810491 
L 566.308087 -70.335532 
L 569.791314 -71.841006 
L 573.274542 -68.150933 
L 576.75777 -69.62056 
L 580.240997 -76.470554 
L 583.724225 -84.146362 
L 587.207452 -79.500098 
L 590.69068 -76.813279 
L 594.173907 -73.87044 
L 597.657135 -79.017283 
L 601.140362 -78.584435 
L 604.62359 -71.470542 
L 608.106817 -69.887814 
L 611.590045 -73.883653 
L 615.073272 -71.763981 
L 618.5565 -68.901608 
L 622.039727 -68.415098 
L 625.522955 -66.898158 
L 629.006182 -68.20306 
L 632.48941 -69.198785 
L 635.972637 -68.299215 
L 639.455865 -68.225464 
L 642.939092 -71.085721 
L 646.42232 -71.245518 
L 649.905547 -71.954798 
L 653.388775 -70.803023 
L 656.872002 -67.238391 
L 660.35523 -71.148627 
L 663.838457 -70.093041 
L 667.321685 -70.635308 
L 670.804912 -71.683806 
L 674.28814 -76.467146 
L 677.771367 -69.804033 
L 681.254595 -72.982285 
L 684.737822 -79.008529 
L 688.22105 -68.772259 
L 691.704277 -92.758763 
L 695.187505 -111.756484 
L 698.670732 -104.253454 
L 702.15396 -114.116362 
L 705.637188 -98.540521 
L 705.637188 -185.402836 
L 705.637188 -185.402836 
L 702.15396 -173.868568 
L 698.670732 -168.522626 
L 695.187505 -165.274139 
L 691.704277 -160.941295 
L 688.22105 -150.172246 
L 684.737822 -136.379256 
L 681.254595 -144.917772 
L 677.771367 -142.812208 
L 674.28814 -144.649523 
L 670.804912 -145.098414 
L 667.321685 -143.772659 
L 663.838457 -139.561112 
L 660.35523 -137.838902 
L 656.872002 -141.59296 
L 653.388775 -148.579754 
L 649.905547 -136.642704 
L 646.42232 -129.696431 
L 642.939092 -146.605911 
L 639.455865 -131.7118 
L 635.972637 -122.603708 
L 632.48941 -119.225114 
L 629.006182 -110.392472 
L 625.522955 -118.049855 
L 622.039727 -132.248857 
L 618.5565 -129.326071 
L 615.073272 -130.744784 
L 611.590045 -123.541898 
L 608.106817 -105.840902 
L 604.62359 -144.906283 
L 601.140362 -155.390021 
L 597.657135 -147.382084 
L 594.173907 -146.194328 
L 590.69068 -154.277318 
L 587.207452 -152.906703 
L 583.724225 -140.721671 
L 580.240997 -149.596339 
L 576.75777 -146.185918 
L 573.274542 -147.193547 
L 569.791314 -142.437324 
L 566.308087 -133.749549 
L 562.824859 -133.056387 
L 559.341632 -135.82164 
L 555.858404 -140.217303 
L 552.375177 -142.649046 
L 548.891949 -147.516072 
L 545.408722 -143.396845 
L 541.925494 -149.796487 
L 538.442267 -150.657268 
L 534.959039 -142.55497 
L 531.475812 -143.229682 
L 527.992584 -139.375878 
L 524.509357 -134.185606 
L 521.026129 -126.039839 
L 517.542902 -122.873661 
L 514.059674 -124.728836 
L 510.576447 -124.312779 
L 507.093219 -127.081129 
L 503.609992 -117.058377 
L 500.126764 -108.12668 
L 496.643537 -125.556137 
L 493.160309 -143.457646 
L 489.677082 -153.584884 
L 486.193854 -142.094865 
L 482.710627 -140.004007 
L 479.227399 -147.498263 
L 475.744172 -147.376422 
L 472.260944 -141.373074 
L 468.777717 -141.248042 
L 465.294489 -135.797055 
L 461.811262 -145.41719 
L 458.328034 -141.539719 
L 454.844807 -124.496798 
L 451.361579 -127.843733 
L 447.878352 -126.515695 
L 444.395124 -121.976998 
L 440.911896 -106.459014 
L 437.428669 -102.438993 
L 433.945441 -114.773255 
L 430.462214 -117.898499 
L 426.978986 -105.923868 
L 423.495759 -104.107804 
L 420.012531 -123.85197 
L 416.529304 -115.071856 
L 413.046076 -119.726954 
L 409.562849 -127.217045 
L 406.079621 -117.441351 
L 402.596394 -111.665187 
L 399.113166 -128.122118 
L 395.629939 -134.334261 
L 392.146711 -138.94157 
L 388.663484 -130.240543 
L 385.180256 -133.211581 
L 381.697029 -133.719759 
L 378.213801 -136.032343 
L 374.730574 -141.414939 
L 371.247346 -155.265567 
L 367.764119 -143.236156 
L 364.280891 -145.861306 
L 360.797664 -148.575861 
L 357.314436 -150.477473 
L 353.831209 -140.244136 
L 350.347981 -152.224563 
L 346.864754 -153.173488 
L 343.381526 -138.477628 
L 339.898299 -135.804503 
L 336.415071 -141.657476 
L 332.931844 -141.771169 
L 329.448616 -151.813481 
L 325.965389 -156.190092 
L 322.482161 -150.848716 
L 318.998934 -147.728081 
L 315.515706 -142.841398 
L 312.032479 -137.935148 
L 308.549251 -142.766814 
L 305.066023 -158.389678 
L 301.582796 -152.615483 
L 298.099568 -149.133789 
L 294.616341 -161.342363 
L 291.133113 -140.771814 
L 287.649886 -128.263476 
L 284.166658 -142.941676 
L 280.683431 -142.000535 
L 277.200203 -150.670016 
L 273.716976 -141.17649 
L 270.233748 -136.989503 
L 266.750521 -134.163233 
L 263.267293 -130.491062 
L 259.784066 -131.91784 
L 256.300838 -119.272515 
L 252.817611 -124.9965 
L 249.334383 -129.172177 
L 245.851156 -126.746642 
L 242.367928 -130.08215 
L 238.884701 -121.030759 
L 235.401473 -109.549423 
L 231.918246 -119.508641 
L 228.435018 -133.155336 
L 224.951791 -137.567916 
L 221.468563 -127.674568 
L 217.985336 -125.41167 
L 214.502108 -127.780307 
L 211.018881 -130.462187 
L 207.535653 -151.051635 
L 204.052426 -147.866112 
L 200.569198 -133.288416 
L 197.085971 -146.791052 
L 193.602743 -159.735234 
L 190.119516 -160.04225 
L 186.636288 -158.786927 
L 183.153061 -156.673016 
L 179.669833 -155.856573 
L 176.186605 -137.49195 
L 172.703378 -152.357657 
L 169.22015 -149.938657 
L 165.736923 -146.193071 
L 162.253695 -145.794211 
L 158.770468 -152.701641 
L 155.28724 -160.164605 
L 151.804013 -148.740028 
L 148.320785 -144.867846 
L 144.837558 -147.881027 
L 141.35433 -157.463651 
L 137.871103 -156.954944 
L 134.387875 -153.363944 
L 130.904648 -158.298418 
L 127.42142 -149.251481 
L 123.938193 -148.82874 
L 120.454965 -142.817228 
L 116.971738 -159.776635 
L 113.48851 -158.763098 
L 110.005283 -155.783561 
L 106.522055 -156.605132 
L 103.038828 -158.074139 
L 99.5556 -153.867106 
L 96.072373 -148.406863 
L 92.589145 -159.389071 
L 89.105918 -166.464721 
L 85.62269 -154.147004 
L 82.139463 -132.500768 
L 78.656235 -171.300014 
L 75.173008 -146.344429 
L 71.68978 -150.670231 
L 68.206553 -144.718412 
L 64.723325 -148.413555 
L 61.240098 -135.104645 
L 57.75687 -148.353117 
L 54.273643 -152.946086 
L 50.790415 -134.521276 
L 47.307188 -143.156145 
z
" style="stroke: #808080; stroke-opacity: 0.7"/>
    </defs>
    <g clip-path="url(#p2858be3a57)">
     <use xlink:href="#madcac59bcf" x="0" y="424.5775" style="fill: #808080; fill-opacity: 0.7; stroke: #808080; stroke-opacity: 0.7"/>
    </g>
   </g>
   <g id="line2d_31">
    <path d="M 47.307188 367.741449 
L 54.273643 367.45299 
L 57.75687 359.874563 
L 61.240098 357.64322 
L 64.723325 356.465065 
L 68.206553 360.986677 
L 71.68978 365.084876 
L 75.173008 355.602468 
L 78.656235 351.366903 
L 82.139463 360.789779 
L 85.62269 355.710036 
L 89.105918 354.763928 
L 92.589145 351.297564 
L 96.072373 353.279084 
L 99.5556 357.767333 
L 103.038828 356.215433 
L 106.522055 357.701088 
L 110.005283 349.86011 
L 113.48851 346.457221 
L 116.971738 355.798968 
L 120.454965 359.653952 
L 123.938193 358.325928 
L 127.42142 354.72948 
L 130.904648 361.478939 
L 134.387875 356.584555 
L 137.871103 353.182719 
L 141.35433 354.311753 
L 144.837558 351.084279 
L 148.320785 346.681181 
L 151.804013 335.647447 
L 155.28724 349.116701 
L 158.770468 349.819977 
L 162.253695 352.792271 
L 165.736923 366.449214 
L 169.22015 356.945221 
L 172.703378 355.66831 
L 176.186605 356.371943 
L 179.669833 357.375057 
L 183.153061 355.839559 
L 186.636288 360.609008 
L 190.119516 357.456788 
L 193.602743 366.384863 
L 197.085971 358.563653 
L 200.569198 360.585561 
L 204.052426 357.776509 
L 207.535653 349.840105 
L 211.018881 358.181179 
L 214.502108 365.63458 
L 217.985336 347.794019 
L 221.468563 344.138782 
L 224.951791 341.364689 
L 228.435018 348.646094 
L 231.918246 334.478004 
L 235.401473 317.497068 
L 238.884701 326.863258 
L 242.367928 331.185689 
L 245.851156 323.674355 
L 249.334383 336.848286 
L 252.817611 317.233766 
L 256.300838 338.81307 
L 259.784066 329.638585 
L 263.267293 325.394346 
L 266.750521 336.081264 
L 270.233748 335.568991 
L 273.716976 334.052881 
L 277.200203 344.567807 
L 280.683431 352.200984 
L 284.166658 346.56155 
L 287.649886 350.277013 
L 291.133113 352.200345 
L 294.616341 355.477435 
L 298.099568 349.203667 
L 301.582796 343.245507 
L 305.066023 344.288983 
L 308.549251 342.81385 
L 312.032479 346.781931 
L 315.515706 338.799413 
L 318.998934 349.236329 
L 322.482161 351.768184 
L 325.965389 338.912184 
L 329.448616 347.973391 
L 332.931844 349.06378 
L 336.415071 350.317046 
L 339.898299 353.526015 
L 343.381526 346.403039 
L 346.864754 348.670901 
L 350.347981 341.501268 
L 353.831209 340.91732 
L 360.797664 358.47404 
L 364.280891 363.218891 
L 367.764119 357.573738 
L 371.247346 355.042104 
L 374.730574 355.952923 
L 378.213801 351.385571 
L 385.180256 343.8036 
L 388.663484 347.42186 
L 392.146711 362.023128 
L 395.629939 359.76247 
L 399.113166 358.26178 
L 402.596394 362.833088 
L 406.079621 356.525429 
L 409.562849 359.895897 
L 413.046076 350.247978 
L 416.529304 344.689003 
L 420.012531 335.368656 
L 423.495759 335.13384 
L 426.978986 353.457188 
L 430.462214 346.804409 
L 433.945441 338.320067 
L 437.428669 357.542012 
L 440.911896 349.795182 
L 444.395124 335.898886 
L 447.878352 361.633993 
L 451.361579 342.938384 
L 454.844807 347.894708 
L 458.328034 356.506655 
L 461.811262 364.368002 
L 465.294489 347.618917 
L 468.777717 357.371063 
L 472.260944 358.551552 
L 475.744172 357.669082 
L 479.227399 339.022126 
L 482.710627 339.838086 
L 486.193854 347.604552 
L 489.677082 358.589397 
L 493.160309 355.172128 
L 496.643537 353.76646 
L 500.126764 349.600771 
L 503.609992 354.339998 
L 507.093219 352.797254 
L 510.576447 364.107839 
L 514.059674 366.731087 
L 517.542902 367.110065 
L 521.026129 366.994916 
L 524.509357 361.579488 
L 527.992584 364.645919 
L 531.475812 349.046574 
L 534.959039 352.577769 
L 538.442267 358.020531 
L 541.925494 356.631018 
L 545.408722 348.696683 
L 548.891949 345.45948 
L 552.375177 355.169428 
L 555.858404 354.422765 
L 559.341632 354.46464 
L 562.824859 350.844149 
L 566.308087 346.48292 
L 569.791314 348.647912 
L 573.274542 353.797925 
L 576.75777 349.346364 
L 580.240997 340.779113 
L 583.724225 327.492488 
L 587.207452 276.70319 
L 590.69068 267.077462 
L 594.173907 278.18187 
L 597.657135 283.02752 
L 601.140362 305.028258 
L 604.62359 301.41373 
L 608.106817 311.22373 
L 611.590045 280.903024 
L 615.073272 317.013778 
L 618.5565 305.351409 
L 622.039727 306.414496 
L 625.522955 275.876845 
L 629.006182 282.194256 
L 632.48941 306.8196 
L 635.972637 308.879128 
L 639.455865 318.36409 
L 642.939092 323.922541 
L 646.42232 325.389675 
L 649.905547 301.831801 
L 653.388775 264.788608 
L 656.872002 280.416758 
L 660.35523 255.481306 
L 663.838457 250.77798 
L 667.321685 259.527055 
L 670.804912 297.288644 
L 674.28814 304.236206 
L 677.771367 329.112233 
L 681.254595 335.991825 
L 684.737822 318.279856 
L 688.22105 323.221569 
L 691.704277 316.275755 
L 695.187505 324.762085 
L 698.670732 333.59465 
L 702.15396 334.496227 
L 705.637188 315.553115 
L 705.637188 315.553115 
" clip-path="url(#p2858be3a57)" style="fill: none; stroke: #ff8c00; stroke-width: 2.3; stroke-linecap: square"/>
   </g>
   <g id="line2d_32">
    <path d="M 284.166658 384.117812 
L 284.166658 23.837812 
" clip-path="url(#p2858be3a57)" style="fill: none; stroke-dasharray: 5.55,2.4; stroke-dashoffset: 0; stroke: #808080; stroke-width: 1.5"/>
   </g>
   <g id="line2d_33">
    <path d="M 486.193854 384.117812 
L 486.193854 23.837812 
" clip-path="url(#p2858be3a57)" style="fill: none; stroke-dasharray: 5.55,2.4; stroke-dashoffset: 0; stroke: #808080; stroke-width: 1.5"/>
   </g>
   <g id="patch_3">
    <path d="M 47.307188 384.117812 
L 47.307188 23.837812 
" style="fill: none; stroke: #000000; stroke-width: 0.8; stroke-linejoin: miter; stroke-linecap: square"/>
   </g>
   <g id="patch_4">
    <path d="M 705.637188 384.117812 
L 705.637188 23.837812 
" style="fill: none; stroke: #000000; stroke-width: 0.8; stroke-linejoin: miter; stroke-linecap: square"/>
   </g>
   <g id="patch_5">
    <path d="M 47.307188 384.117812 
L 705.637188 384.117812 
" style="fill: none; stroke: #000000; stroke-width: 0.8; stroke-linejoin: miter; stroke-linecap: square"/>
   </g>
   <g id="patch_6">
    <path d="M 47.307188 23.837812 
L 705.637188 23.837812 
" style="fill: none; stroke: #000000; stroke-width: 0.8; stroke-linejoin: miter; stroke-linecap: square"/>
   </g>
   <g id="text_18">
    <!-- Facial trace: ADHD (male) -->
    <g transform="translate(286.0125 17.837812) scale(0.14 -0.14)">
     <defs>
      <path id="DejaVuSans-46" d="M 628 4666 
L 3309 4666 
L 3309 4134 
L 1259 4134 
L 1259 2759 
L 3109 2759 
L 3109 2228 
L 1259 2228 
L 1259 0 
L 628 0 
L 628 4666 
z
" transform="scale(0.015625)"/>
      <path id="DejaVuSans-63" d="M 3122 3366 
L 3122 2828 
Q 2878 2963 2633 3030 
Q 2388 3097 2138 3097 
Q 1578 3097 1268 2742 
Q 959 2388 959 1747 
Q 959 1106 1268 751 
Q 1578 397 2138 397 
Q 2388 397 2633 464 
Q 2878 531 3122 666 
L 3122 134 
Q 2881 22 2623 -34 
Q 2366 -91 2075 -91 
Q 1284 -91 818 406 
Q 353 903 353 1747 
Q 353 2603 823 3093 
Q 1294 3584 2113 3584 
Q 2378 3584 2631 3529 
Q 2884 3475 3122 3366 
z
" transform="scale(0.015625)"/>
      <path id="DejaVuSans-6c" d="M 603 4863 
L 1178 4863 
L 1178 0 
L 603 0 
L 603 4863 
z
" transform="scale(0.015625)"/>
      <path id="DejaVuSans-72" d="M 2631 2963 
Q 2534 3019 2420 3045 
Q 2306 3072 2169 3072 
Q 1681 3072 1420 2755 
Q 1159 2438 1159 1844 
L 1159 0 
L 581 0 
L 581 3500 
L 1159 3500 
L 1159 2956 
Q 1341 3275 1631 3429 
Q 1922 3584 2338 3584 
Q 2397 3584 2469 3576 
Q 2541 3569 2628 3553 
L 2631 2963 
z
" transform="scale(0.015625)"/>
      <path id="DejaVuSans-3a" d="M 750 794 
L 1409 794 
L 1409 0 
L 750 0 
L 750 794 
z
M 750 3309 
L 1409 3309 
L 1409 2516 
L 750 2516 
L 750 3309 
z
" transform="scale(0.015625)"/>
      <path id="DejaVuSans-44" d="M 1259 4147 
L 1259 519 
L 2022 519 
Q 2988 519 3436 956 
Q 3884 1394 3884 2338 
Q 3884 3275 3436 3711 
Q 2988 4147 2022 4147 
L 1259 4147 
z
M 628 4666 
L 1925 4666 
Q 3281 4666 3915 4102 
Q 4550 3538 4550 2338 
Q 4550 1131 3912 565 
Q 3275 0 1925 0 
L 628 0 
L 628 4666 
z
" transform="scale(0.015625)"/>
      <path id="DejaVuSans-48" d="M 628 4666 
L 1259 4666 
L 1259 2753 
L 3553 2753 
L 3553 4666 
L 4184 4666 
L 4184 0 
L 3553 0 
L 3553 2222 
L 1259 2222 
L 1259 0 
L 628 0 
L 628 4666 
z
" transform="scale(0.015625)"/>
     </defs>
     <use xlink:href="#DejaVuSans-46"/>
     <use xlink:href="#DejaVuSans-61" transform="translate(48.394531 0)"/>
     <use xlink:href="#DejaVuSans-63" transform="translate(109.673828 0)"/>
     <use xlink:href="#DejaVuSans-69" transform="translate(164.654297 0)"/>
     <use xlink:href="#DejaVuSans-61" transform="translate(192.4375 0)"/>
     <use xlink:href="#DejaVuSans-6c" transform="translate(253.716797 0)"/>
     <use xlink:href="#DejaVuSans-20" transform="translate(281.5 0)"/>
     <use xlink:href="#DejaVuSans-74" transform="translate(313.287109 0)"/>
     <use xlink:href="#DejaVuSans-72" transform="translate(352.496094 0)"/>
     <use xlink:href="#DejaVuSans-61" transform="translate(393.609375 0)"/>
     <use xlink:href="#DejaVuSans-63" transform="translate(454.888672 0)"/>
     <use xlink:href="#DejaVuSans-65" transform="translate(509.869141 0)"/>
     <use xlink:href="#DejaVuSans-3a" transform="translate(571.392578 0)"/>
     <use xlink:href="#DejaVuSans-20" transform="translate(605.083984 0)"/>
     <use xlink:href="#DejaVuSans-41" transform="translate(636.871094 0)"/>
     <use xlink:href="#DejaVuSans-44" transform="translate(705.279297 0)"/>
     <use xlink:href="#DejaVuSans-48" transform="translate(782.28125 0)"/>
     <use xlink:href="#DejaVuSans-44" transform="translate(857.476562 0)"/>
     <use xlink:href="#DejaVuSans-20" transform="translate(934.478516 0)"/>
     <use xlink:href="#DejaVuSans-28" transform="translate(966.265625 0)"/>
     <use xlink:href="#DejaVuSans-6d" transform="translate(1005.279297 0)"/>
     <use xlink:href="#DejaVuSans-61" transform="translate(1102.691406 0)"/>
     <use xlink:href="#DejaVuSans-6c" transform="translate(1163.970703 0)"/>
     <use xlink:href="#DejaVuSans-65" transform="translate(1191.753906 0)"/>
     <use xlink:href="#DejaVuSans-29" transform="translate(1253.277344 0)"/>
    </g>
   </g>
   <g id="legend_1">
    <g id="patch_7">
     <path d="M 593.538594 42.096094 
L 615.538594 42.096094 
L 615.538594 34.396094 
L 593.538594 34.396094 
z
" style="fill: #d3d3d3; fill-opacity: 0.5; stroke: #d3d3d3; stroke-opacity: 0.5; stroke-linejoin: miter"/>
    </g>
    <g id="text_19">
     <!-- ADHD ±2 SD -->
     <g transform="translate(624.338594 42.096094) scale(0.11 -0.11)">
      <defs>
       <path id="DejaVuSans-b1" d="M 2944 4013 
L 2944 2803 
L 4684 2803 
L 4684 2272 
L 2944 2272 
L 2944 1063 
L 2419 1063 
L 2419 2272 
L 678 2272 
L 678 2803 
L 2419 2803 
L 2419 4013 
L 2944 4013 
z
M 678 531 
L 4684 531 
L 4684 0 
L 678 0 
L 678 531 
z
" transform="scale(0.015625)"/>
       <path id="DejaVuSans-53" d="M 3425 4513 
L 3425 3897 
Q 3066 4069 2747 4153 
Q 2428 4238 2131 4238 
Q 1616 4238 1336 4038 
Q 1056 3838 1056 3469 
Q 1056 3159 1242 3001 
Q 1428 2844 1947 2747 
L 2328 2669 
Q 3034 2534 3370 2195 
Q 3706 1856 3706 1288 
Q 3706 609 3251 259 
Q 2797 -91 1919 -91 
Q 1588 -91 1214 -16 
Q 841 59 441 206 
L 441 856 
Q 825 641 1194 531 
Q 1563 422 1919 422 
Q 2459 422 2753 634 
Q 3047 847 3047 1241 
Q 3047 1584 2836 1778 
Q 2625 1972 2144 2069 
L 1759 2144 
Q 1053 2284 737 2584 
Q 422 2884 422 3419 
Q 422 4038 858 4394 
Q 1294 4750 2059 4750 
Q 2388 4750 2728 4690 
Q 3069 4631 3425 4513 
z
" transform="scale(0.015625)"/>
      </defs>
      <use xlink:href="#DejaVuSans-41"/>
      <use xlink:href="#DejaVuSans-44" transform="translate(68.408203 0)"/>
      <use xlink:href="#DejaVuSans-48" transform="translate(145.410156 0)"/>
      <use xlink:href="#DejaVuSans-44" transform="translate(220.605469 0)"/>
      <use xlink:href="#DejaVuSans-20" transform="translate(297.607422 0)"/>
      <use xlink:href="#DejaVuSans-b1" transform="translate(329.394531 0)"/>
      <use xlink:href="#DejaVuSans-32" transform="translate(413.183594 0)"/>
      <use xlink:href="#DejaVuSans-20" transform="translate(476.806641 0)"/>
      <use xlink:href="#DejaVuSans-53" transform="translate(508.59375 0)"/>
      <use xlink:href="#DejaVuSans-44" transform="translate(572.070312 0)"/>
     </g>
    </g>
    <g id="patch_8">
     <path d="M 593.538594 58.242031 
L 615.538594 58.242031 
L 615.538594 50.542031 
L 593.538594 50.542031 
z
" style="fill: #808080; fill-opacity: 0.7; stroke: #808080; stroke-opacity: 0.7; stroke-linejoin: miter"/>
    </g>
    <g id="text_20">
     <!-- ADHD ±1 SD -->
     <g transform="translate(624.338594 58.242031) scale(0.11 -0.11)">
      <use xlink:href="#DejaVuSans-41"/>
      <use xlink:href="#DejaVuSans-44" transform="translate(68.408203 0)"/>
      <use xlink:href="#DejaVuSans-48" transform="translate(145.410156 0)"/>
      <use xlink:href="#DejaVuSans-44" transform="translate(220.605469 0)"/>
      <use xlink:href="#DejaVuSans-20" transform="translate(297.607422 0)"/>
      <use xlink:href="#DejaVuSans-b1" transform="translate(329.394531 0)"/>
      <use xlink:href="#DejaVuSans-31" transform="translate(413.183594 0)"/>
      <use xlink:href="#DejaVuSans-20" transform="translate(476.806641 0)"/>
      <use xlink:href="#DejaVuSans-53" transform="translate(508.59375 0)"/>
      <use xlink:href="#DejaVuSans-44" transform="translate(572.070312 0)"/>
     </g>
    </g>
    <g id="line2d_34">
     <path d="M 593.538594 70.537969 
L 604.538594 70.537969 
L 615.538594 70.537969 
" style="fill: none; stroke: #ff8c00; stroke-width: 2.3; stroke-linecap: square"/>
    </g>
    <g id="text_21">
     <!-- Patient -->
     <g transform="translate(624.338594 74.387969) scale(0.11 -0.11)">
      <defs>
       <path id="DejaVuSans-50" d="M 1259 4147 
L 1259 2394 
L 2053 2394 
Q 2494 2394 2734 2622 
Q 2975 2850 2975 3272 
Q 2975 3691 2734 3919 
Q 2494 4147 2053 4147 
L 1259 4147 
z
M 628 4666 
L 2053 4666 
Q 2838 4666 3239 4311 
Q 3641 3956 3641 3272 
Q 3641 2581 3239 2228 
Q 2838 1875 2053 1875 
L 1259 1875 
L 1259 0 
L 628 0 
L 628 4666 
z
" transform="scale(0.015625)"/>
      </defs>
      <use xlink:href="#DejaVuSans-50"/>
      <use xlink:href="#DejaVuSans-61" transform="translate(55.802734 0)"/>
      <use xlink:href="#DejaVuSans-74" transform="translate(117.082031 0)"/>
      <use xlink:href="#DejaVuSans-69" transform="translate(156.291016 0)"/>
      <use xlink:href="#DejaVuSans-65" transform="translate(184.074219 0)"/>
      <use xlink:href="#DejaVuSans-6e" transform="translate(245.597656 0)"/>
      <use xlink:href="#DejaVuSans-74" transform="translate(308.976562 0)"/>
     </g>
    </g>
   </g>
  </g>
 </g>
 <defs>
  <clipPath id="p2858be3a57">
   <rect x="47.307188" y="23.837812" width="658.33" height="360.28"/>
  </clipPath>
 </defs>
</svg>
