<?xml version="1.0" encoding="utf-8" standalone="no"?>
<!DOCTYPE svg PUBLIC "-//W3C//DTD SVG 1.1//EN"
  "http://www.w3.org/Graphics/SVG/1.1/DTD/svg11.dtd">
<svg xmlns:xlink="http://www.w3.org/1999/xlink" width="712.837188pt" height="424.5775pt" viewBox="0 0 712.837188 424.5775" xmlns="http://www.w3.org/2000/svg" version="1.1">
 <metadata>
  <rdf:RDF xmlns:dc="http://purl.org/dc/elements/1.1/" xmlns:cc="http://creativecommons.org/ns#" xmlns:rdf="http://www.w3.org/1999/02/22-rdf-syntax-ns#">
   <cc:Work>
    <dc:type rdf:resource="http://purl.org/dc/dcmitype/StillImage"/>
    <dc:date>2026-06-14T19:02:51.235268</dc:date>
    <dc:format>image/svg+xml</dc:format>
    <dc:creator>
     <cc:Agent>
      <dc:title>Matplotlib v3.10.1, https://matplotlib.org/</dc:title>
     </cc:Agent>
    </dc:creator>
   </cc:Work>
  </rdf:RDF>
 </metadata>
 <defs>
  <style type="text/css">*{stroke-linejoin: round; stroke-linecap: butt}</style>
 </defs>
 <g id="figure_1">
  <g id="patch_1">
   <path d="M 0 424.5775 
L 712.837188 424.5775 
L 712.837188 0 
L 0 0 
z
" style="fill: #ffffff"/>
  </g>
  <g id="axes_1">
   <g id="patch_2">
    <path d="M 47.307188 384.117812 
L 705.637188 384.117812 
L 705.637188 23.837812 
L 47.307188 23.837812 
z
" style="fill: #ffffff"/>
   </g>
   <g id="matplotlib.axis_1">
    <g id="xtick_1">
     <g id="line2d_1">
      <path d="M 47.307188 384.117812 
L 47.307188 23.837812 
" clip-path="url(#pb26817d449)" style="fill: none; stroke: #b0b0b0; stroke-opacity: 0.2; stroke-width: 0.6; stroke-linecap: square"/>
     </g>
     <g id="line2d_2">
      <defs>
       <path id="m8d2da042aa" d="M 0 0 
L 0 3.5 
" style="stroke: #000000; stroke-width: 0.8"/>
      </defs>
      <g>
       <use xlink:href="#m8d2da042aa" x="47.307188" y="384.117812" style="stroke: #000000; stroke-width: 0.8"/>
      </g>
     </g>
     <g id="text_1">
      <!-- 0 -->
      <g transform="translate(43.807813 399.476094) scale(0.11 -0.11)">
       <defs>
        <path id="DejaVuSans-30" d="M 2034 4250 
Q 1547 4250 1301 3770 
Q 1056 3291 1056 2328 
Q 1056 1369 1301 889 
Q 1547 409 2034 409 
Q 2525 409 2770 889 
Q 3016 1369 3016 2328 
Q 3016 3291 2770 3770 
Q 2525 4250 2034 4250 
z
M 2034 4750 
Q 2819 4750 3233 4129 
Q 3647 3509 3647 2328 
Q 3647 1150 3233 529 
Q 2819 -91 2034 -91 
Q 1250 -91 836 529 
Q 422 1150 422 2328 
Q 422 3509 836 4129 
Q 1250 4750 2034 4750 
z
" transform="scale(0.015625)"/>
       </defs>
       <use xlink:href="#DejaVuSans-30"/>
      </g>
     </g>
    </g>
    <g id="xtick_2">
     <g id="line2d_3">
      <path d="M 134.387875 384.117812 
L 134.387875 23.837812 
" clip-path="url(#pb26817d449)" style="fill: none; stroke: #b0b0b0; stroke-opacity: 0.2; stroke-width: 0.6; stroke-linecap: square"/>
     </g>
     <g id="line2d_4">
      <g>
       <use xlink:href="#m8d2da042aa" x="134.387875" y="384.117812" style="stroke: #000000; stroke-width: 0.8"/>
      </g>
     </g>
     <g id="text_2">
      <!-- 25 -->
      <g transform="translate(127.389125 399.476094) scale(0.11 -0.11)">
       <defs>
        <path id="DejaVuSans-32" d="M 1228 531 
L 3431 531 
L 3431 0 
L 469 0 
L 469 531 
Q 828 903 1448 1529 
Q 2069 2156 2228 2338 
Q 2531 2678 2651 2914 
Q 2772 3150 2772 3378 
Q 2772 3750 2511 3984 
Q 2250 4219 1831 4219 
Q 1534 4219 1204 4116 
Q 875 4013 500 3803 
L 500 4441 
Q 881 4594 1212 4672 
Q 1544 4750 1819 4750 
Q 2544 4750 2975 4387 
Q 3406 4025 3406 3419 
Q 3406 3131 3298 2873 
Q 3191 2616 2906 2266 
Q 2828 2175 2409 1742 
Q 1991 1309 1228 531 
z
" transform="scale(0.015625)"/>
        <path id="DejaVuSans-35" d="M 691 4666 
L 3169 4666 
L 3169 4134 
L 1269 4134 
L 1269 2991 
Q 1406 3038 1543 3061 
Q 1681 3084 1819 3084 
Q 2600 3084 3056 2656 
Q 3513 2228 3513 1497 
Q 3513 744 3044 326 
Q 2575 -91 1722 -91 
Q 1428 -91 1123 -41 
Q 819 9 494 109 
L 494 744 
Q 775 591 1075 516 
Q 1375 441 1709 441 
Q 2250 441 2565 725 
Q 2881 1009 2881 1497 
Q 2881 1984 2565 2268 
Q 2250 2553 1709 2553 
Q 1456 2553 1204 2497 
Q 953 2441 691 2322 
L 691 4666 
z
" transform="scale(0.015625)"/>
       </defs>
       <use xlink:href="#DejaVuSans-32"/>
       <use xlink:href="#DejaVuSans-35" transform="translate(63.623047 0)"/>
      </g>
     </g>
    </g>
    <g id="xtick_3">
     <g id="line2d_5">
      <path d="M 221.468563 384.117812 
L 221.468563 23.837812 
" clip-path="url(#pb26817d449)" style="fill: none; stroke: #b0b0b0; stroke-opacity: 0.2; stroke-width: 0.6; stroke-linecap: square"/>
     </g>
     <g id="line2d_6">
      <g>
       <use xlink:href="#m8d2da042aa" x="221.468563" y="384.117812" style="stroke: #000000; stroke-width: 0.8"/>
      </g>
     </g>
     <g id="text_3">
      <!-- 50 -->
      <g transform="translate(214.469813 399.476094) scale(0.11 -0.11)">
       <use xlink:href="#DejaVuSans-35"/>
       <use xlink:href="#DejaVuSans-30" transform="translate(63.623047 0)"/>
      </g>
     </g>
    </g>
    <g id="xtick_4">
     <g id="line2d_7">
      <path d="M 308.549251 384.117812 
L 308.549251 23.837812 
" clip-path="url(#pb26817d449)" style="fill: none; stroke: #b0b0b0; stroke-opacity: 0.2; stroke-width: 0.6; stroke-linecap: square"/>
     </g>
     <g id="line2d_8">
      <g>
       <use xlink:href="#m8d2da042aa" x="308.549251" y="384.117812" style="stroke: #000000; stroke-width: 0.8"/>
      </g>
     </g>
     <g id="text_4">
      <!-- 75 -->
      <g transform="translate(301.550501 399.476094) scale(0.11 -0.11)">
       <defs>
        <path id="DejaVuSans-37" d="M 525 4666 
L 3525 4666 
L 3525 4397 
L 1831 0 
L 1172 0 
L 2766 4134 
L 525 4134 
L 525 4666 
z
" transform="scale(0.015625)"/>
       </defs>
       <use xlink:href="#DejaVuSans-37"/>
       <use xlink:href="#DejaVuSans-35" transform="translate(63.623047 0)"/>
      </g>
     </g>
    </g>
    <g id="xtick_5">
     <g id="line2d_9">
      <path d="M 395.629939 384.117812 
L 395.629939 23.837812 
" clip-path="url(#pb26817d449)" style="fill: none; stroke: #b0b0b0; stroke-opacity: 0.2; stroke-width: 0.6; stroke-linecap: square"/>
     </g>
     <g id="line2d_10">
      <g>
       <use xlink:href="#m8d2da042aa" x="395.629939" y="384.117812" style="stroke: #000000; stroke-width: 0.8"/>
      </g>
     </g>
     <g id="text_5">
      <!-- 100 -->
      <g transform="translate(385.131814 399.476094) scale(0.11 -0.11)">
       <defs>
        <path id="DejaVuSans-31" d="M 794 531 
L 1825 531 
L 1825 4091 
L 703 3866 
L 703 4441 
L 1819 4666 
L 2450 4666 
L 2450 531 
L 3481 531 
L 3481 0 
L 794 0 
L 794 531 
z
" transform="scale(0.015625)"/>
       </defs>
       <use xlink:href="#DejaVuSans-31"/>
       <use xlink:href="#DejaVuSans-30" transform="translate(63.623047 0)"/>
       <use xlink:href="#DejaVuSans-30" transform="translate(127.246094 0)"/>
      </g>
     </g>
    </g>
    <g id="xtick_6">
     <g id="line2d_11">
      <path d="M 482.710627 384.117812 
L 482.710627 23.837812 
" clip-path="url(#pb26817d449)" style="fill: none; stroke: #b0b0b0; stroke-opacity: 0.2; stroke-width: 0.6; stroke-linecap: square"/>
     </g>
     <g id="line2d_12">
      <g>
       <use xlink:href="#m8d2da042aa" x="482.710627" y="384.117812" style="stroke: #000000; stroke-width: 0.8"/>
      </g>
     </g>
     <g id="text_6">
      <!-- 125 -->
      <g transform="translate(472.212502 399.476094) scale(0.11 -0.11)">
       <use xlink:href="#DejaVuSans-31"/>
       <use xlink:href="#DejaVuSans-32" transform="translate(63.623047 0)"/>
       <use xlink:href="#DejaVuSans-35" transform="translate(127.246094 0)"/>
      </g>
     </g>
    </g>
    <g id="xtick_7">
     <g id="line2d_13">
      <path d="M 569.791314 384.117812 
L 569.791314 23.837812 
" clip-path="url(#pb26817d449)" style="fill: none; stroke: #b0b0b0; stroke-opacity: 0.2; stroke-width: 0.6; stroke-linecap: square"/>
     </g>
     <g id="line2d_14">
      <g>
       <use xlink:href="#m8d2da042aa" x="569.791314" y="384.117812" style="stroke: #000000; stroke-width: 0.8"/>
      </g>
     </g>
     <g id="text_7">
      <!-- 150 -->
      <g transform="translate(559.293189 399.476094) scale(0.11 -0.11)">
       <use xlink:href="#DejaVuSans-31"/>
       <use xlink:href="#DejaVuSans-35" transform="translate(63.623047 0)"/>
       <use xlink:href="#DejaVuSans-30" transform="translate(127.246094 0)"/>
      </g>
     </g>
    </g>
    <g id="xtick_8">
     <g id="line2d_15">
      <path d="M 656.872002 384.117812 
L 656.872002 23.837812 
" clip-path="url(#pb26817d449)" style="fill: none; stroke: #b0b0b0; stroke-opacity: 0.2; stroke-width: 0.6; stroke-linecap: square"/>
     </g>
     <g id="line2d_16">
      <g>
       <use xlink:href="#m8d2da042aa" x="656.872002" y="384.117812" style="stroke: #000000; stroke-width: 0.8"/>
      </g>
     </g>
     <g id="text_8">
      <!-- 175 -->
      <g transform="translate(646.373877 399.476094) scale(0.11 -0.11)">
       <use xlink:href="#DejaVuSans-31"/>
       <use xlink:href="#DejaVuSans-37" transform="translate(63.623047 0)"/>
       <use xlink:href="#DejaVuSans-35" transform="translate(127.246094 0)"/>
      </g>
     </g>
    </g>
    <g id="text_9">
     <!-- Time (s) -->
     <g transform="translate(352.0775 414.881875) scale(0.12 -0.12)">
      <defs>
       <path id="DejaVuSans-54" d="M -19 4666 
L 3928 4666 
L 3928 4134 
L 2272 4134 
L 2272 0 
L 1638 0 
L 1638 4134 
L -19 4134 
L -19 4666 
z
" transform="scale(0.015625)"/>
       <path id="DejaVuSans-69" d="M 603 3500 
L 1178 3500 
L 1178 0 
L 603 0 
L 603 3500 
z
M 603 4863 
L 1178 4863 
L 1178 4134 
L 603 4134 
L 603 4863 
z
" transform="scale(0.015625)"/>
       <path id="DejaVuSans-6d" d="M 3328 2828 
Q 3544 3216 3844 3400 
Q 4144 3584 4550 3584 
Q 5097 3584 5394 3201 
Q 5691 2819 5691 2113 
L 5691 0 
L 5113 0 
L 5113 2094 
Q 5113 2597 4934 2840 
Q 4756 3084 4391 3084 
Q 3944 3084 3684 2787 
Q 3425 2491 3425 1978 
L 3425 0 
L 2847 0 
L 2847 2094 
Q 2847 2600 2669 2842 
Q 2491 3084 2119 3084 
Q 1678 3084 1418 2786 
Q 1159 2488 1159 1978 
L 1159 0 
L 581 0 
L 581 3500 
L 1159 3500 
L 1159 2956 
Q 1356 3278 1631 3431 
Q 1906 3584 2284 3584 
Q 2666 3584 2933 3390 
Q 3200 3197 3328 2828 
z
" transform="scale(0.015625)"/>
       <path id="DejaVuSans-65" d="M 3597 1894 
L 3597 1613 
L 953 1613 
Q 991 1019 1311 708 
Q 1631 397 2203 397 
Q 2534 397 2845 478 
Q 3156 559 3463 722 
L 3463 178 
Q 3153 47 2828 -22 
Q 2503 -91 2169 -91 
Q 1331 -91 842 396 
Q 353 884 353 1716 
Q 353 2575 817 3079 
Q 1281 3584 2069 3584 
Q 2775 3584 3186 3129 
Q 3597 2675 3597 1894 
z
M 3022 2063 
Q 3016 2534 2758 2815 
Q 2500 3097 2075 3097 
Q 1594 3097 1305 2825 
Q 1016 2553 972 2059 
L 3022 2063 
z
" transform="scale(0.015625)"/>
       <path id="DejaVuSans-20" transform="scale(0.015625)"/>
       <path id="DejaVuSans-28" d="M 1984 4856 
Q 1566 4138 1362 3434 
Q 1159 2731 1159 2009 
Q 1159 1288 1364 580 
Q 1569 -128 1984 -844 
L 1484 -844 
Q 1016 -109 783 600 
Q 550 1309 550 2009 
Q 550 2706 781 3412 
Q 1013 4119 1484 4856 
L 1984 4856 
z
" transform="scale(0.015625)"/>
       <path id="DejaVuSans-73" d="M 2834 3397 
L 2834 2853 
Q 2591 2978 2328 3040 
Q 2066 3103 1784 3103 
Q 1356 3103 1142 2972 
Q 928 2841 928 2578 
Q 928 2378 1081 2264 
Q 1234 2150 1697 2047 
L 1894 2003 
Q 2506 1872 2764 1633 
Q 3022 1394 3022 966 
Q 3022 478 2636 193 
Q 2250 -91 1575 -91 
Q 1294 -91 989 -36 
Q 684 19 347 128 
L 347 722 
Q 666 556 975 473 
Q 1284 391 1588 391 
Q 1994 391 2212 530 
Q 2431 669 2431 922 
Q 2431 1156 2273 1281 
Q 2116 1406 1581 1522 
L 1381 1569 
Q 847 1681 609 1914 
Q 372 2147 372 2553 
Q 372 3047 722 3315 
Q 1072 3584 1716 3584 
Q 2034 3584 2315 3537 
Q 2597 3491 2834 3397 
z
" transform="scale(0.015625)"/>
       <path id="DejaVuSans-29" d="M 513 4856 
L 1013 4856 
Q 1481 4119 1714 3412 
Q 1947 2706 1947 2009 
Q 1947 1309 1714 600 
Q 1481 -109 1013 -844 
L 513 -844 
Q 928 -128 1133 580 
Q 1338 1288 1338 2009 
Q 1338 2731 1133 3434 
Q 928 4138 513 4856 
z
" transform="scale(0.015625)"/>
      </defs>
      <use xlink:href="#DejaVuSans-54"/>
      <use xlink:href="#DejaVuSans-69" transform="translate(57.958984 0)"/>
      <use xlink:href="#DejaVuSans-6d" transform="translate(85.742188 0)"/>
      <use xlink:href="#DejaVuSans-65" transform="translate(183.154297 0)"/>
      <use xlink:href="#DejaVuSans-20" transform="translate(244.677734 0)"/>
      <use xlink:href="#DejaVuSans-28" transform="translate(276.464844 0)"/>
      <use xlink:href="#DejaVuSans-73" transform="translate(315.478516 0)"/>
      <use xlink:href="#DejaVuSans-29" transform="translate(367.578125 0)"/>
     </g>
    </g>
   </g>
   <g id="matplotlib.axis_2">
    <g id="ytick_1">
     <g id="line2d_17">
      <path d="M 47.307188 367.741449 
L 705.637188 367.741449 
" clip-path="url(#pb26817d449)" style="fill: none; stroke: #b0b0b0; stroke-opacity: 0.2; stroke-width: 0.6; stroke-linecap: square"/>
     </g>
     <g id="line2d_18">
      <defs>
       <path id="m7862cc9b79" d="M 0 0 
L -3.5 0 
" style="stroke: #000000; stroke-width: 0.8"/>
      </defs>
      <g>
       <use xlink:href="#m7862cc9b79" x="47.307188" y="367.741449" style="stroke: #000000; stroke-width: 0.8"/>
      </g>
     </g>
     <g id="text_10">
      <!-- 0.0 -->
      <g transform="translate(22.81375 371.920589) scale(0.11 -0.11)">
       <defs>
        <path id="DejaVuSans-2e" d="M 684 794 
L 1344 794 
L 1344 0 
L 684 0 
L 684 794 
z
" transform="scale(0.015625)"/>
       </defs>
       <use xlink:href="#DejaVuSans-30"/>
       <use xlink:href="#DejaVuSans-2e" transform="translate(63.623047 0)"/>
       <use xlink:href="#DejaVuSans-30" transform="translate(95.410156 0)"/>
      </g>
     </g>
    </g>
    <g id="ytick_2">
     <g id="line2d_19">
      <path d="M 47.307188 317.507205 
L 705.637188 317.507205 
" clip-path="url(#pb26817d449)" style="fill: none; stroke: #b0b0b0; stroke-opacity: 0.2; stroke-width: 0.6; stroke-linecap: square"/>
     </g>
     <g id="line2d_20">
      <g>
       <use xlink:href="#m7862cc9b79" x="47.307188" y="317.507205" style="stroke: #000000; stroke-width: 0.8"/>
      </g>
     </g>
     <g id="text_11">
      <!-- 0.5 -->
      <g transform="translate(22.81375 321.686345) scale(0.11 -0.11)">
       <use xlink:href="#DejaVuSans-30"/>
       <use xlink:href="#DejaVuSans-2e" transform="translate(63.623047 0)"/>
       <use xlink:href="#DejaVuSans-35" transform="translate(95.410156 0)"/>
      </g>
     </g>
    </g>
    <g id="ytick_3">
     <g id="line2d_21">
      <path d="M 47.307188 267.27296 
L 705.637188 267.27296 
" clip-path="url(#pb26817d449)" style="fill: none; stroke: #b0b0b0; stroke-opacity: 0.2; stroke-width: 0.6; stroke-linecap: square"/>
     </g>
     <g id="line2d_22">
      <g>
       <use xlink:href="#m7862cc9b79" x="47.307188" y="267.27296" style="stroke: #000000; stroke-width: 0.8"/>
      </g>
     </g>
     <g id="text_12">
      <!-- 1.0 -->
      <g transform="translate(22.81375 271.452101) scale(0.11 -0.11)">
       <use xlink:href="#DejaVuSans-31"/>
       <use xlink:href="#DejaVuSans-2e" transform="translate(63.623047 0)"/>
       <use xlink:href="#DejaVuSans-30" transform="translate(95.410156 0)"/>
      </g>
     </g>
    </g>
    <g id="ytick_4">
     <g id="line2d_23">
      <path d="M 47.307188 217.038716 
L 705.637188 217.038716 
" clip-path="url(#pb26817d449)" style="fill: none; stroke: #b0b0b0; stroke-opacity: 0.2; stroke-width: 0.6; stroke-linecap: square"/>
     </g>
     <g id="line2d_24">
      <g>
       <use xlink:href="#m7862cc9b79" x="47.307188" y="217.038716" style="stroke: #000000; stroke-width: 0.8"/>
      </g>
     </g>
     <g id="text_13">
      <!-- 1.5 -->
      <g transform="translate(22.81375 221.217857) scale(0.11 -0.11)">
       <use xlink:href="#DejaVuSans-31"/>
       <use xlink:href="#DejaVuSans-2e" transform="translate(63.623047 0)"/>
       <use xlink:href="#DejaVuSans-35" transform="translate(95.410156 0)"/>
      </g>
     </g>
    </g>
    <g id="ytick_5">
     <g id="line2d_25">
      <path d="M 47.307188 166.804472 
L 705.637188 166.804472 
" clip-path="url(#pb26817d449)" style="fill: none; stroke: #b0b0b0; stroke-opacity: 0.2; stroke-width: 0.6; stroke-linecap: square"/>
     </g>
     <g id="line2d_26">
      <g>
       <use xlink:href="#m7862cc9b79" x="47.307188" y="166.804472" style="stroke: #000000; stroke-width: 0.8"/>
      </g>
     </g>
     <g id="text_14">
      <!-- 2.0 -->
      <g transform="translate(22.81375 170.983612) scale(0.11 -0.11)">
       <use xlink:href="#DejaVuSans-32"/>
       <use xlink:href="#DejaVuSans-2e" transform="translate(63.623047 0)"/>
       <use xlink:href="#DejaVuSans-30" transform="translate(95.410156 0)"/>
      </g>
     </g>
    </g>
    <g id="ytick_6">
     <g id="line2d_27">
      <path d="M 47.307188 116.570227 
L 705.637188 116.570227 
" clip-path="url(#pb26817d449)" style="fill: none; stroke: #b0b0b0; stroke-opacity: 0.2; stroke-width: 0.6; stroke-linecap: square"/>
     </g>
     <g id="line2d_28">
      <g>
       <use xlink:href="#m7862cc9b79" x="47.307188" y="116.570227" style="stroke: #000000; stroke-width: 0.8"/>
      </g>
     </g>
     <g id="text_15">
      <!-- 2.5 -->
      <g transform="translate(22.81375 120.749368) scale(0.11 -0.11)">
       <use xlink:href="#DejaVuSans-32"/>
       <use xlink:href="#DejaVuSans-2e" transform="translate(63.623047 0)"/>
       <use xlink:href="#DejaVuSans-35" transform="translate(95.410156 0)"/>
      </g>
     </g>
    </g>
    <g id="ytick_7">
     <g id="line2d_29">
      <path d="M 47.307188 66.335983 
L 705.637188 66.335983 
" clip-path="url(#pb26817d449)" style="fill: none; stroke: #b0b0b0; stroke-opacity: 0.2; stroke-width: 0.6; stroke-linecap: square"/>
     </g>
     <g id="line2d_30">
      <g>
       <use xlink:href="#m7862cc9b79" x="47.307188" y="66.335983" style="stroke: #000000; stroke-width: 0.8"/>
      </g>
     </g>
     <g id="text_16">
      <!-- 3.0 -->
      <g transform="translate(22.81375 70.515124) scale(0.11 -0.11)">
       <defs>
        <path id="DejaVuSans-33" d="M 2597 2516 
Q 3050 2419 3304 2112 
Q 3559 1806 3559 1356 
Q 3559 666 3084 287 
Q 2609 -91 1734 -91 
Q 1441 -91 1130 -33 
Q 819 25 488 141 
L 488 750 
Q 750 597 1062 519 
Q 1375 441 1716 441 
Q 2309 441 2620 675 
Q 2931 909 2931 1356 
Q 2931 1769 2642 2001 
Q 2353 2234 1838 2234 
L 1294 2234 
L 1294 2753 
L 1863 2753 
Q 2328 2753 2575 2939 
Q 2822 3125 2822 3475 
Q 2822 3834 2567 4026 
Q 2313 4219 1838 4219 
Q 1578 4219 1281 4162 
Q 984 4106 628 3988 
L 628 4550 
Q 988 4650 1302 4700 
Q 1616 4750 1894 4750 
Q 2613 4750 3031 4423 
Q 3450 4097 3450 3541 
Q 3450 3153 3228 2886 
Q 3006 2619 2597 2516 
z
" transform="scale(0.015625)"/>
       </defs>
       <use xlink:href="#DejaVuSans-33"/>
       <use xlink:href="#DejaVuSans-2e" transform="translate(63.623047 0)"/>
       <use xlink:href="#DejaVuSans-30" transform="translate(95.410156 0)"/>
      </g>
     </g>
    </g>
    <g id="text_17">
     <!-- AU mean intensity -->
     <g transform="translate(16.318125 259.314687) rotate(-90) scale(0.12 -0.12)">
      <defs>
       <path id="DejaVuSans-41" d="M 2188 4044 
L 1331 1722 
L 3047 1722 
L 2188 4044 
z
M 1831 4666 
L 2547 4666 
L 4325 0 
L 3669 0 
L 3244 1197 
L 1141 1197 
L 716 0 
L 50 0 
L 1831 4666 
z
" transform="scale(0.015625)"/>
       <path id="DejaVuSans-55" d="M 556 4666 
L 1191 4666 
L 1191 1831 
Q 1191 1081 1462 751 
Q 1734 422 2344 422 
Q 2950 422 3222 751 
Q 3494 1081 3494 1831 
L 3494 4666 
L 4128 4666 
L 4128 1753 
Q 4128 841 3676 375 
Q 3225 -91 2344 -91 
Q 1459 -91 1007 375 
Q 556 841 556 1753 
L 556 4666 
z
" transform="scale(0.015625)"/>
       <path id="DejaVuSans-61" d="M 2194 1759 
Q 1497 1759 1228 1600 
Q 959 1441 959 1056 
Q 959 750 1161 570 
Q 1363 391 1709 391 
Q 2188 391 2477 730 
Q 2766 1069 2766 1631 
L 2766 1759 
L 2194 1759 
z
M 3341 1997 
L 3341 0 
L 2766 0 
L 2766 531 
Q 2569 213 2275 61 
Q 1981 -91 1556 -91 
Q 1019 -91 701 211 
Q 384 513 384 1019 
Q 384 1609 779 1909 
Q 1175 2209 1959 2209 
L 2766 2209 
L 2766 2266 
Q 2766 2663 2505 2880 
Q 2244 3097 1772 3097 
Q 1472 3097 1187 3025 
Q 903 2953 641 2809 
L 641 3341 
Q 956 3463 1253 3523 
Q 1550 3584 1831 3584 
Q 2591 3584 2966 3190 
Q 3341 2797 3341 1997 
z
" transform="scale(0.015625)"/>
       <path id="DejaVuSans-6e" d="M 3513 2113 
L 3513 0 
L 2938 0 
L 2938 2094 
Q 2938 2591 2744 2837 
Q 2550 3084 2163 3084 
Q 1697 3084 1428 2787 
Q 1159 2491 1159 1978 
L 1159 0 
L 581 0 
L 581 3500 
L 1159 3500 
L 1159 2956 
Q 1366 3272 1645 3428 
Q 1925 3584 2291 3584 
Q 2894 3584 3203 3211 
Q 3513 2838 3513 2113 
z
" transform="scale(0.015625)"/>
       <path id="DejaVuSans-74" d="M 1172 4494 
L 1172 3500 
L 2356 3500 
L 2356 3053 
L 1172 3053 
L 1172 1153 
Q 1172 725 1289 603 
Q 1406 481 1766 481 
L 2356 481 
L 2356 0 
L 1766 0 
Q 1100 0 847 248 
Q 594 497 594 1153 
L 594 3053 
L 172 3053 
L 172 3500 
L 594 3500 
L 594 4494 
L 1172 4494 
z
" transform="scale(0.015625)"/>
       <path id="DejaVuSans-79" d="M 2059 -325 
Q 1816 -950 1584 -1140 
Q 1353 -1331 966 -1331 
L 506 -1331 
L 506 -850 
L 844 -850 
Q 1081 -850 1212 -737 
Q 1344 -625 1503 -206 
L 1606 56 
L 191 3500 
L 800 3500 
L 1894 763 
L 2988 3500 
L 3597 3500 
L 2059 -325 
z
" transform="scale(0.015625)"/>
      </defs>
      <use xlink:href="#DejaVuSans-41"/>
      <use xlink:href="#DejaVuSans-55" transform="translate(68.408203 0)"/>
      <use xlink:href="#DejaVuSans-20" transform="translate(141.601562 0)"/>
      <use xlink:href="#DejaVuSans-6d" transform="translate(173.388672 0)"/>
      <use xlink:href="#DejaVuSans-65" transform="translate(270.800781 0)"/>
      <use xlink:href="#DejaVuSans-61" transform="translate(332.324219 0)"/>
      <use xlink:href="#DejaVuSans-6e" transform="translate(393.603516 0)"/>
      <use xlink:href="#DejaVuSans-20" transform="translate(456.982422 0)"/>
      <use xlink:href="#DejaVuSans-69" transform="translate(488.769531 0)"/>
      <use xlink:href="#DejaVuSans-6e" transform="translate(516.552734 0)"/>
      <use xlink:href="#DejaVuSans-74" transform="translate(579.931641 0)"/>
      <use xlink:href="#DejaVuSans-65" transform="translate(619.140625 0)"/>
      <use xlink:href="#DejaVuSans-6e" transform="translate(680.664062 0)"/>
      <use xlink:href="#DejaVuSans-73" transform="translate(744.042969 0)"/>
      <use xlink:href="#DejaVuSans-69" transform="translate(796.142578 0)"/>
      <use xlink:href="#DejaVuSans-74" transform="translate(823.925781 0)"/>
      <use xlink:href="#DejaVuSans-79" transform="translate(863.134766 0)"/>
     </g>
    </g>
   </g>
   <g id="FillBetweenPolyCollection_1">
    <defs>
     <path id="m2f767f8f58" d="M 47.307188 -73.753907 
L 47.307188 -47.516125 
L 50.790415 -53.623681 
L 54.273643 -45.637394 
L 57.75687 -39.137021 
L 61.240098 -47.669499 
L 64.723325 -49.502514 
L 68.206553 -50.015187 
L 71.68978 -50.524948 
L 75.173008 -49.918465 
L 78.656235 -49.759844 
L 82.139463 -48.853 
L 85.62269 -51.732538 
L 89.105918 -52.307878 
L 92.589145 -51.265891 
L 96.072373 -51.386524 
L 99.5556 -52.537706 
L 103.038828 -51.852176 
L 106.522055 -53.383529 
L 110.005283 -51.571863 
L 113.48851 -50.048932 
L 116.971738 -51.836579 
L 120.454965 -51.511415 
L 123.938193 -50.451583 
L 127.42142 -50.266293 
L 130.904648 -53.267933 
L 134.387875 -52.300183 
L 137.871103 -51.918771 
L 141.35433 -52.552865 
L 144.837558 -51.476654 
L 148.320785 -48.531954 
L 151.804013 -30.888443 
L 155.28724 -36.110983 
L 158.770468 -50.894086 
L 162.253695 -52.830225 
L 165.736923 -53.193014 
L 169.22015 -52.462978 
L 172.703378 -50.76808 
L 176.186605 -51.293256 
L 179.669833 -51.002437 
L 183.153061 -47.852755 
L 186.636288 -50.076334 
L 190.119516 -52.487093 
L 193.602743 -34.496926 
L 197.085971 -43.384973 
L 200.569198 -37.108411 
L 204.052426 -39.29531 
L 207.535653 -36.724473 
L 211.018881 -46.574425 
L 214.502108 -32.919515 
L 217.985336 -44.49116 
L 221.468563 -43.258118 
L 224.951791 -46.257342 
L 228.435018 -51.007999 
L 231.918246 -49.523885 
L 235.401473 -50.487838 
L 238.884701 -50.548686 
L 242.367928 -51.845777 
L 245.851156 -54.070503 
L 249.334383 -52.381783 
L 252.817611 -53.822882 
L 256.300838 -53.740022 
L 259.784066 -45.686116 
L 263.267293 -41.419063 
L 266.750521 -49.208272 
L 270.233748 -52.023308 
L 273.716976 -44.85857 
L 277.200203 -41.658182 
L 280.683431 -37.320937 
L 284.166658 -37.916084 
L 287.649886 -40.90239 
L 291.133113 -44.692966 
L 294.616341 -42.51525 
L 298.099568 -40.666709 
L 301.582796 -42.709469 
L 305.066023 -44.601142 
L 308.549251 -43.914117 
L 312.032479 -44.267435 
L 315.515706 -43.725514 
L 318.998934 -42.354771 
L 322.482161 -43.38286 
L 325.965389 -43.364674 
L 329.448616 -45.721435 
L 332.931844 -41.409527 
L 336.415071 -41.438065 
L 339.898299 -42.22448 
L 343.381526 -45.206625 
L 346.864754 -43.807086 
L 350.347981 -44.918298 
L 353.831209 -42.596906 
L 357.314436 -36.981799 
L 360.797664 -6.496583 
L 364.280891 -13.413186 
L 367.764119 -15.318377 
L 371.247346 -34.820488 
L 374.730574 -40.017197 
L 378.213801 -38.836168 
L 381.697029 -42.198686 
L 385.180256 -43.699445 
L 388.663484 -37.858389 
L 392.146711 -43.61889 
L 395.629939 -45.506677 
L 399.113166 -45.495368 
L 402.596394 -49.079456 
L 406.079621 -52.765439 
L 409.562849 -45.679103 
L 413.046076 -45.967362 
L 416.529304 -45.815009 
L 420.012531 -36.261435 
L 423.495759 -52.641825 
L 426.978986 -51.453883 
L 430.462214 -50.047711 
L 433.945441 -50.567619 
L 437.428669 -52.889959 
L 440.911896 -50.762684 
L 444.395124 -52.837428 
L 447.878352 -51.774548 
L 451.361579 -49.621979 
L 454.844807 -47.86536 
L 458.328034 -51.441217 
L 461.811262 -40.739363 
L 465.294489 -39.680964 
L 468.777717 -42.513711 
L 472.260944 -43.475472 
L 475.744172 -40.089759 
L 479.227399 -37.074284 
L 482.710627 -42.56914 
L 486.193854 -31.27223 
L 489.677082 -33.045425 
L 493.160309 -39.466955 
L 496.643537 -40.108227 
L 500.126764 -42.351174 
L 503.609992 -39.017612 
L 507.093219 -42.416544 
L 510.576447 -45.911386 
L 514.059674 -46.457596 
L 517.542902 -47.22878 
L 521.026129 -43.365225 
L 524.509357 -42.282103 
L 527.992584 -43.144546 
L 531.475812 -43.948287 
L 534.959039 -47.074305 
L 538.442267 -47.421085 
L 541.925494 -43.566328 
L 545.408722 -44.788674 
L 548.891949 -36.360815 
L 552.375177 -29.525623 
L 555.858404 -34.623678 
L 559.341632 -36.341327 
L 562.824859 -38.020549 
L 566.308087 -36.401023 
L 569.791314 -42.242039 
L 573.274542 -38.852911 
L 576.75777 -39.462077 
L 580.240997 -42.628198 
L 583.724225 -33.80767 
L 587.207452 -30.224378 
L 590.69068 -36.363197 
L 594.173907 -41.363703 
L 597.657135 -38.511873 
L 601.140362 -16.788916 
L 604.62359 -27.26749 
L 608.106817 -44.584833 
L 611.590045 -13.451877 
L 615.073272 -22.308923 
L 618.5565 -28.384114 
L 622.039727 -31.675447 
L 625.522955 -36.998339 
L 629.006182 -45.560397 
L 632.48941 -51.302782 
L 635.972637 -47.968985 
L 639.455865 -50.44223 
L 642.939092 -47.488039 
L 646.42232 -44.387809 
L 649.905547 -50.149723 
L 653.388775 -47.062127 
L 656.872002 -50.229357 
L 660.35523 -48.302471 
L 663.838457 -39.400241 
L 667.321685 -41.345463 
L 670.804912 -43.907179 
L 674.28814 -44.82731 
L 677.771367 -46.599873 
L 681.254595 -22.430541 
L 684.737822 -3.720993 
L 688.22105 -17.47671 
L 691.704277 -41.986663 
L 695.187505 -54.847042 
L 698.670732 -52.638744 
L 702.15396 -55.131065 
L 705.637188 -50.980854 
L 705.637188 -68.924862 
L 705.637188 -68.924862 
L 702.15396 -59.821201 
L 698.670732 -65.121387 
L 695.187505 -61.352977 
L 691.704277 -78.247287 
L 688.22105 -141.144487 
L 684.737822 -174.900523 
L 681.254595 -125.149677 
L 677.771367 -90.067388 
L 674.28814 -87.609713 
L 670.804912 -85.961137 
L 667.321685 -91.788358 
L 663.838457 -98.63547 
L 660.35523 -89.595501 
L 656.872002 -81.977449 
L 653.388775 -87.975734 
L 649.905547 -83.72001 
L 646.42232 -93.469652 
L 642.939092 -95.744318 
L 639.455865 -84.709063 
L 635.972637 -88.473088 
L 632.48941 -88.126524 
L 629.006182 -101.084424 
L 625.522955 -120.385658 
L 622.039727 -138.172398 
L 618.5565 -159.302475 
L 615.073272 -163.587897 
L 611.590045 -171.33409 
L 608.106817 -90.436823 
L 604.62359 -160.597351 
L 601.140362 -157.424111 
L 597.657135 -103.048337 
L 594.173907 -92.739879 
L 590.69068 -99.703655 
L 587.207452 -106.42556 
L 583.724225 -102.291591 
L 580.240997 -83.602465 
L 576.75777 -89.33182 
L 573.274542 -89.265867 
L 569.791314 -83.170293 
L 566.308087 -94.437333 
L 562.824859 -90.851463 
L 559.341632 -93.856109 
L 555.858404 -96.905888 
L 552.375177 -106.647956 
L 548.891949 -94.561078 
L 545.408722 -82.299436 
L 541.925494 -82.307834 
L 538.442267 -79.294598 
L 534.959039 -78.856573 
L 531.475812 -80.004513 
L 527.992584 -81.635806 
L 524.509357 -83.29898 
L 521.026129 -81.909368 
L 517.542902 -77.269668 
L 514.059674 -79.910807 
L 510.576447 -86.841068 
L 507.093219 -82.768923 
L 503.609992 -89.490915 
L 500.126764 -86.35069 
L 496.643537 -87.707413 
L 493.160309 -90.271871 
L 489.677082 -103.896201 
L 486.193854 -107.56808 
L 482.710627 -83.921356 
L 479.227399 -92.878655 
L 475.744172 -86.864618 
L 472.260944 -81.058756 
L 468.777717 -82.388725 
L 465.294489 -88.394366 
L 461.811262 -88.633069 
L 458.328034 -73.125952 
L 454.844807 -75.530049 
L 451.361579 -72.845234 
L 447.878352 -66.955036 
L 444.395124 -63.988726 
L 440.911896 -69.371756 
L 437.428669 -65.336166 
L 433.945441 -72.010419 
L 430.462214 -74.815922 
L 426.978986 -79.612891 
L 423.495759 -75.120571 
L 420.012531 -107.5427 
L 416.529304 -78.875686 
L 413.046076 -84.835469 
L 409.562849 -95.827711 
L 406.079621 -87.794755 
L 402.596394 -98.414293 
L 399.113166 -101.978421 
L 395.629939 -89.148516 
L 392.146711 -96.21759 
L 388.663484 -104.817813 
L 385.180256 -107.878226 
L 381.697029 -89.154223 
L 378.213801 -105.248938 
L 374.730574 -89.787509 
L 371.247346 -98.815076 
L 367.764119 -132.373014 
L 364.280891 -135.754944 
L 360.797664 -149.907568 
L 357.314436 -95.924059 
L 353.831209 -86.540756 
L 350.347981 -82.572478 
L 346.864754 -82.57181 
L 343.381526 -79.823525 
L 339.898299 -84.09677 
L 336.415071 -84.400942 
L 332.931844 -84.738785 
L 329.448616 -76.635231 
L 325.965389 -81.260141 
L 322.482161 -80.898034 
L 318.998934 -84.864107 
L 315.515706 -80.964065 
L 312.032479 -79.673865 
L 308.549251 -82.606032 
L 305.066023 -80.493074 
L 301.582796 -81.937539 
L 298.099568 -86.198059 
L 294.616341 -82.8725 
L 291.133113 -87.236402 
L 287.649886 -95.98815 
L 284.166658 -91.94357 
L 280.683431 -92.045036 
L 277.200203 -85.398916 
L 273.716976 -78.150173 
L 270.233748 -67.077333 
L 266.750521 -72.310765 
L 263.267293 -85.330147 
L 259.784066 -76.958862 
L 256.300838 -66.511146 
L 252.817611 -64.838 
L 249.334383 -69.15765 
L 245.851156 -66.876904 
L 242.367928 -70.02585 
L 238.884701 -70.623908 
L 235.401473 -79.137688 
L 231.918246 -82.492377 
L 228.435018 -77.272546 
L 224.951791 -83.645618 
L 221.468563 -92.022812 
L 217.985336 -79.912016 
L 214.502108 -102.644995 
L 211.018881 -75.343022 
L 207.535653 -100.217428 
L 204.052426 -106.474742 
L 200.569198 -99.65524 
L 197.085971 -83.036234 
L 193.602743 -96.343945 
L 190.119516 -65.203749 
L 186.636288 -73.853277 
L 183.153061 -75.926824 
L 179.669833 -67.296077 
L 176.186605 -66.43223 
L 172.703378 -67.635764 
L 169.22015 -64.673555 
L 165.736923 -63.177154 
L 162.253695 -65.830657 
L 158.770468 -74.056414 
L 155.28724 -93.194363 
L 151.804013 -102.480344 
L 148.320785 -76.009799 
L 144.837558 -69.892631 
L 141.35433 -68.403203 
L 137.871103 -66.525584 
L 134.387875 -65.624508 
L 130.904648 -63.920567 
L 127.42142 -68.55915 
L 123.938193 -68.422194 
L 120.454965 -66.309343 
L 116.971738 -66.939971 
L 113.48851 -69.391448 
L 110.005283 -66.021751 
L 106.522055 -63.510494 
L 103.038828 -65.741439 
L 99.5556 -64.971253 
L 96.072373 -66.352932 
L 92.589145 -66.823361 
L 89.105918 -65.083178 
L 85.62269 -67.829097 
L 82.139463 -71.438679 
L 78.656235 -72.408775 
L 75.173008 -71.264467 
L 71.68978 -68.74221 
L 68.206553 -69.020636 
L 64.723325 -71.557486 
L 61.240098 -76.875886 
L 57.75687 -100.362412 
L 54.273643 -82.861913 
L 50.790415 -61.815281 
L 47.307188 -73.753907 
z
" style="stroke: #d3d3d3; stroke-opacity: 0.5"/>
    </defs>
    <g clip-path="url(#pb26817d449)">
     <use xlink:href="#m2f767f8f58" x="0" y="424.5775" style="fill: #d3d3d3; fill-opacity: 0.5; stroke: #d3d3d3; stroke-opacity: 0.5"/>
    </g>
   </g>
   <g id="FillBetweenPolyCollection_2">
    <defs>
     <path id="mb4739f7e7c" d="M 47.307188 -67.194461 
L 47.307188 -54.075571 
L 50.790415 -55.671581 
L 54.273643 -54.943524 
L 57.75687 -54.443369 
L 61.240098 -54.971096 
L 64.723325 -55.016257 
L 68.206553 -54.766549 
L 71.68978 -55.079263 
L 75.173008 -55.254965 
L 78.656235 -55.422076 
L 82.139463 -54.49942 
L 85.62269 -55.756678 
L 89.105918 -55.501703 
L 92.589145 -55.155258 
L 96.072373 -55.128126 
L 99.5556 -55.646093 
L 103.038828 -55.324491 
L 106.522055 -55.91527 
L 110.005283 -55.184335 
L 113.48851 -54.884561 
L 116.971738 -55.612427 
L 120.454965 -55.210897 
L 123.938193 -54.944236 
L 127.42142 -54.839507 
L 130.904648 -55.931091 
L 134.387875 -55.631264 
L 137.871103 -55.570474 
L 141.35433 -56.515449 
L 144.837558 -56.080648 
L 148.320785 -55.401415 
L 151.804013 -48.786419 
L 155.28724 -50.381828 
L 158.770468 -56.684668 
L 162.253695 -56.080333 
L 165.736923 -55.689049 
L 169.22015 -55.515622 
L 172.703378 -54.985001 
L 176.186605 -55.078 
L 179.669833 -55.075847 
L 183.153061 -54.871272 
L 186.636288 -56.02057 
L 190.119516 -55.666257 
L 193.602743 -49.95868 
L 197.085971 -53.297788 
L 200.569198 -52.745118 
L 204.052426 -56.090168 
L 207.535653 -52.597711 
L 211.018881 -53.766574 
L 214.502108 -50.350885 
L 217.985336 -53.346374 
L 221.468563 -55.449291 
L 224.951791 -55.604411 
L 228.435018 -57.574135 
L 231.918246 -57.766008 
L 235.401473 -57.650301 
L 238.884701 -55.567492 
L 242.367928 -56.390796 
L 245.851156 -57.272103 
L 249.334383 -56.57575 
L 252.817611 -56.576662 
L 256.300838 -56.932803 
L 259.784066 -53.504302 
L 263.267293 -52.396834 
L 266.750521 -54.983896 
L 270.233748 -55.786815 
L 273.716976 -53.181471 
L 277.200203 -52.593365 
L 280.683431 -51.001962 
L 284.166658 -51.422956 
L 287.649886 -54.67383 
L 291.133113 -55.328825 
L 294.616341 -52.604563 
L 298.099568 -52.049547 
L 301.582796 -52.516486 
L 305.066023 -53.574125 
L 308.549251 -53.587095 
L 312.032479 -53.119042 
L 315.515706 -53.035151 
L 318.998934 -52.982105 
L 322.482161 -52.761653 
L 325.965389 -52.838541 
L 329.448616 -53.449884 
L 332.931844 -52.241842 
L 336.415071 -52.178784 
L 339.898299 -52.692552 
L 343.381526 -53.86085 
L 346.864754 -53.498267 
L 350.347981 -54.331843 
L 353.831209 -53.582868 
L 357.314436 -51.717364 
L 360.797664 -42.349329 
L 364.280891 -43.998626 
L 367.764119 -44.582037 
L 371.247346 -50.819135 
L 374.730574 -52.459775 
L 378.213801 -55.43936 
L 381.697029 -53.93757 
L 385.180256 -59.74414 
L 388.663484 -54.598245 
L 392.146711 -56.768565 
L 395.629939 -56.417137 
L 399.113166 -59.616131 
L 402.596394 -61.413165 
L 406.079621 -61.522768 
L 409.562849 -58.216255 
L 413.046076 -55.684389 
L 416.529304 -54.080179 
L 420.012531 -54.081751 
L 423.495759 -58.261511 
L 426.978986 -58.493635 
L 430.462214 -56.239764 
L 433.945441 -55.928319 
L 437.428669 -56.001511 
L 440.911896 -55.414952 
L 444.395124 -55.625253 
L 447.878352 -55.56967 
L 451.361579 -55.427792 
L 454.844807 -54.781532 
L 458.328034 -56.8624 
L 461.811262 -52.71279 
L 465.294489 -51.859315 
L 468.777717 -52.482465 
L 472.260944 -52.871293 
L 475.744172 -51.783474 
L 479.227399 -51.025376 
L 482.710627 -52.907194 
L 486.193854 -50.346193 
L 489.677082 -50.758119 
L 493.160309 -52.168184 
L 496.643537 -52.008024 
L 500.126764 -53.351053 
L 503.609992 -51.635938 
L 507.093219 -52.504639 
L 510.576447 -56.143807 
L 514.059674 -54.820898 
L 517.542902 -54.739002 
L 521.026129 -53.00126 
L 524.509357 -52.536322 
L 527.992584 -52.767361 
L 531.475812 -52.962344 
L 534.959039 -55.019872 
L 538.442267 -55.389464 
L 541.925494 -53.251704 
L 545.408722 -54.166365 
L 548.891949 -50.910881 
L 552.375177 -48.806207 
L 555.858404 -50.194231 
L 559.341632 -50.720023 
L 562.824859 -51.228278 
L 566.308087 -50.9101 
L 569.791314 -52.474102 
L 573.274542 -51.45615 
L 576.75777 -51.929513 
L 580.240997 -52.871765 
L 583.724225 -50.928651 
L 587.207452 -49.274674 
L 590.69068 -52.198312 
L 594.173907 -54.207747 
L 597.657135 -54.645989 
L 601.140362 -51.947715 
L 604.62359 -60.599955 
L 608.106817 -56.047831 
L 611.590045 -52.92243 
L 615.073272 -57.628667 
L 618.5565 -61.113705 
L 622.039727 -58.299685 
L 625.522955 -57.845169 
L 629.006182 -59.441404 
L 632.48941 -60.508718 
L 635.972637 -58.095011 
L 639.455865 -59.008938 
L 642.939092 -59.552108 
L 646.42232 -56.658269 
L 649.905547 -58.542295 
L 653.388775 -57.290528 
L 656.872002 -58.16638 
L 660.35523 -58.625728 
L 663.838457 -54.209048 
L 667.321685 -53.956187 
L 670.804912 -54.420668 
L 674.28814 -55.522911 
L 677.771367 -57.466752 
L 681.254595 -48.110325 
L 684.737822 -46.515876 
L 688.22105 -48.393655 
L 691.704277 -51.051819 
L 695.187505 -56.473526 
L 698.670732 -55.759404 
L 702.15396 -56.303599 
L 705.637188 -55.466856 
L 705.637188 -64.43886 
L 705.637188 -64.43886 
L 702.15396 -58.648667 
L 698.670732 -62.000726 
L 695.187505 -59.726493 
L 691.704277 -69.182131 
L 688.22105 -110.227543 
L 684.737822 -132.10564 
L 681.254595 -99.469893 
L 677.771367 -79.200509 
L 674.28814 -76.914112 
L 670.804912 -75.447647 
L 667.321685 -79.177634 
L 663.838457 -83.826663 
L 660.35523 -79.272243 
L 656.872002 -74.040426 
L 653.388775 -77.747332 
L 649.905547 -75.327438 
L 646.42232 -81.199191 
L 642.939092 -83.680248 
L 639.455865 -76.142355 
L 635.972637 -78.347062 
L 632.48941 -78.920588 
L 629.006182 -87.203417 
L 625.522955 -99.538828 
L 622.039727 -111.54816 
L 618.5565 -126.572885 
L 615.073272 -128.268154 
L 611.590045 -131.863537 
L 608.106817 -78.973825 
L 604.62359 -127.264885 
L 601.140362 -122.265313 
L 597.657135 -86.914221 
L 594.173907 -79.895835 
L 590.69068 -83.868541 
L 587.207452 -87.375265 
L 583.724225 -85.170611 
L 580.240997 -73.358898 
L 576.75777 -76.864385 
L 573.274542 -76.662628 
L 569.791314 -72.938229 
L 566.308087 -79.928256 
L 562.824859 -77.643735 
L 559.341632 -79.477414 
L 555.858404 -81.335335 
L 552.375177 -87.367373 
L 548.891949 -80.011012 
L 545.408722 -72.921745 
L 541.925494 -72.622458 
L 538.442267 -71.32622 
L 534.959039 -70.911006 
L 531.475812 -70.990457 
L 527.992584 -72.012991 
L 524.509357 -73.044761 
L 521.026129 -72.273332 
L 517.542902 -69.759446 
L 514.059674 -71.547504 
L 510.576447 -76.608647 
L 507.093219 -72.680828 
L 503.609992 -76.872589 
L 500.126764 -75.350811 
L 496.643537 -75.807617 
L 493.160309 -77.570642 
L 489.677082 -86.183507 
L 486.193854 -88.494117 
L 482.710627 -73.583302 
L 479.227399 -78.927562 
L 475.744172 -75.170903 
L 472.260944 -71.662935 
L 468.777717 -72.419971 
L 465.294489 -76.216016 
L 461.811262 -76.659643 
L 458.328034 -67.704768 
L 454.844807 -68.613877 
L 451.361579 -67.03942 
L 447.878352 -63.159914 
L 444.395124 -61.200901 
L 440.911896 -64.719488 
L 437.428669 -62.224614 
L 433.945441 -66.649719 
L 430.462214 -68.623869 
L 426.978986 -72.573139 
L 423.495759 -69.500885 
L 420.012531 -89.722384 
L 416.529304 -70.610517 
L 413.046076 -75.118442 
L 409.562849 -83.290559 
L 406.079621 -79.037426 
L 402.596394 -86.080583 
L 399.113166 -87.857658 
L 395.629939 -78.238057 
L 392.146711 -83.067915 
L 388.663484 -88.077957 
L 385.180256 -91.833531 
L 381.697029 -77.415339 
L 378.213801 -88.645745 
L 374.730574 -77.344931 
L 371.247346 -82.816429 
L 367.764119 -103.109355 
L 364.280891 -105.169505 
L 360.797664 -114.054821 
L 357.314436 -81.188494 
L 353.831209 -75.554793 
L 350.347981 -73.158933 
L 346.864754 -72.880629 
L 343.381526 -71.1693 
L 339.898299 -73.628697 
L 336.415071 -73.660223 
L 332.931844 -73.90647 
L 329.448616 -68.906782 
L 325.965389 -71.786274 
L 322.482161 -71.51924 
L 318.998934 -74.236773 
L 315.515706 -71.654427 
L 312.032479 -70.822257 
L 308.549251 -72.933053 
L 305.066023 -71.520091 
L 301.582796 -72.130521 
L 298.099568 -74.815221 
L 294.616341 -72.783187 
L 291.133113 -76.600543 
L 287.649886 -82.21671 
L 284.166658 -78.436699 
L 280.683431 -78.364011 
L 277.200203 -74.463732 
L 273.716976 -69.827272 
L 270.233748 -63.313827 
L 266.750521 -66.535142 
L 263.267293 -74.352376 
L 259.784066 -69.140675 
L 256.300838 -63.318365 
L 252.817611 -62.084221 
L 249.334383 -64.963683 
L 245.851156 -63.675304 
L 242.367928 -65.480832 
L 238.884701 -65.605103 
L 235.401473 -71.975225 
L 231.918246 -74.250254 
L 228.435018 -70.706409 
L 224.951791 -74.298549 
L 221.468563 -79.831638 
L 217.985336 -71.056802 
L 214.502108 -85.213625 
L 211.018881 -68.150873 
L 207.535653 -84.344189 
L 204.052426 -89.679884 
L 200.569198 -84.018532 
L 197.085971 -73.123419 
L 193.602743 -80.88219 
L 190.119516 -62.024585 
L 186.636288 -67.909041 
L 183.153061 -68.908307 
L 179.669833 -63.222667 
L 176.186605 -62.647486 
L 172.703378 -63.418843 
L 169.22015 -61.620911 
L 165.736923 -60.681119 
L 162.253695 -62.580549 
L 158.770468 -68.265832 
L 155.28724 -78.923518 
L 151.804013 -84.582369 
L 148.320785 -69.140338 
L 144.837558 -65.288637 
L 141.35433 -64.440618 
L 137.871103 -62.873881 
L 134.387875 -62.293427 
L 130.904648 -61.257408 
L 127.42142 -63.985936 
L 123.938193 -63.929541 
L 120.454965 -62.609861 
L 116.971738 -63.164123 
L 113.48851 -64.555819 
L 110.005283 -62.409279 
L 106.522055 -60.978753 
L 103.038828 -62.269123 
L 99.5556 -61.862867 
L 96.072373 -62.61133 
L 92.589145 -62.933993 
L 89.105918 -61.889353 
L 85.62269 -63.804957 
L 82.139463 -65.792259 
L 78.656235 -66.746542 
L 75.173008 -65.927967 
L 71.68978 -64.187894 
L 68.206553 -64.269274 
L 64.723325 -66.043743 
L 61.240098 -69.574289 
L 57.75687 -85.056064 
L 54.273643 -73.555783 
L 50.790415 -59.767381 
L 47.307188 -67.194461 
z
" style="stroke: #808080; stroke-opacity: 0.7"/>
    </defs>
    <g clip-path="url(#pb26817d449)">
     <use xlink:href="#mb4739f7e7c" x="0" y="424.5775" style="fill: #808080; fill-opacity: 0.7; stroke: #808080; stroke-opacity: 0.7"/>
    </g>
   </g>
   <g id="line2d_31">
    <path d="M 47.307188 343.479003 
L 50.790415 344.539606 
L 54.273643 338.769314 
L 57.75687 327.972168 
L 61.240098 355.167377 
L 64.723325 354.304571 
L 68.206553 354.710849 
L 71.68978 361.504278 
L 75.173008 361.114309 
L 78.656235 357.303431 
L 82.139463 354.278319 
L 85.62269 356.019526 
L 89.105918 358.773377 
L 92.589145 358.85122 
L 96.072373 356.279071 
L 99.5556 361.04174 
L 103.038828 357.070479 
L 106.522055 363.218096 
L 110.005283 363.119811 
L 113.48851 358.663846 
L 116.971738 362.416174 
L 120.454965 365.688469 
L 123.938193 364.04044 
L 127.42142 365.254115 
L 130.904648 366.225103 
L 134.387875 363.770907 
L 137.871103 361.511992 
L 141.35433 365.475759 
L 144.837558 366.70898 
L 148.320785 365.712877 
L 151.804013 362.34606 
L 155.28724 367.285997 
L 158.770468 366.350216 
L 162.253695 350.982554 
L 165.736923 345.649541 
L 169.22015 360.570971 
L 172.703378 367.741449 
L 179.669833 367.741449 
L 183.153061 367.037983 
L 186.636288 364.391363 
L 190.119516 366.82351 
L 193.602743 360.812649 
L 197.085971 359.818429 
L 200.569198 361.60783 
L 204.052426 354.914049 
L 207.535653 348.923967 
L 211.018881 335.462112 
L 214.502108 270.682632 
L 217.985336 342.579691 
L 221.468563 366.236694 
L 224.951791 366.717477 
L 228.435018 366.234587 
L 231.918246 366.04282 
L 235.401473 364.217113 
L 238.884701 358.077907 
L 245.851156 361.994489 
L 249.334383 360.747835 
L 252.817611 359.945094 
L 256.300838 339.830651 
L 259.784066 357.656364 
L 263.267293 362.728189 
L 266.750521 366.535347 
L 270.233748 367.633849 
L 273.716976 367.625148 
L 277.200203 367.43431 
L 280.683431 335.435338 
L 284.166658 334.709587 
L 287.649886 336.345844 
L 291.133113 345.373266 
L 294.616341 343.817277 
L 298.099568 332.901037 
L 301.582796 326.437122 
L 305.066023 334.921237 
L 308.549251 320.619875 
L 312.032479 326.33806 
L 315.515706 303.561775 
L 318.998934 291.806646 
L 322.482161 310.521812 
L 325.965389 312.81867 
L 329.448616 329.15707 
L 332.931844 331.259472 
L 336.415071 329.78989 
L 339.898299 339.097815 
L 343.381526 334.414124 
L 346.864754 336.137966 
L 350.347981 333.46608 
L 353.831209 337.633796 
L 357.314436 321.64638 
L 360.797664 247.603756 
L 364.280891 303.947784 
L 367.764119 321.121734 
L 371.247346 307.05159 
L 374.730574 316.823247 
L 378.213801 325.156494 
L 381.697029 332.682726 
L 385.180256 348.458591 
L 388.663484 309.668305 
L 392.146711 332.74293 
L 395.629939 325.584318 
L 399.113166 334.065855 
L 402.596394 319.225369 
L 406.079621 306.293818 
L 409.562849 327.120165 
L 413.046076 318.249363 
L 416.529304 336.365666 
L 420.012531 311.808365 
L 423.495759 299.825658 
L 426.978986 326.197736 
L 430.462214 305.776097 
L 433.945441 275.943149 
L 437.428669 314.234995 
L 440.911896 327.928679 
L 444.395124 367.43023 
L 447.878352 337.85797 
L 451.361579 325.782512 
L 454.844807 295.497228 
L 458.328034 337.895887 
L 461.811262 332.036357 
L 465.294489 338.785304 
L 468.777717 286.290338 
L 472.260944 259.940109 
L 475.744172 242.994247 
L 479.227399 248.323768 
L 482.710627 260.398364 
L 486.193854 246.445794 
L 489.677082 289.927654 
L 493.160309 287.447223 
L 496.643537 288.783505 
L 500.126764 283.079865 
L 503.609992 303.56568 
L 507.093219 276.7274 
L 510.576447 267.272968 
L 514.059674 286.975656 
L 517.542902 288.480722 
L 521.026129 255.422228 
L 524.509357 254.915162 
L 527.992584 231.116968 
L 531.475812 216.813316 
L 534.959039 254.125727 
L 538.442267 275.208341 
L 541.925494 302.853446 
L 545.408722 269.310459 
L 548.891949 288.274786 
L 552.375177 289.369356 
L 555.858404 296.674129 
L 559.341632 286.2154 
L 562.824859 274.439785 
L 566.308087 290.774581 
L 569.791314 302.899356 
L 573.274542 309.187425 
L 576.75777 316.572535 
L 580.240997 307.650287 
L 583.724225 322.557811 
L 587.207452 334.34176 
L 590.69068 341.720477 
L 594.173907 320.437455 
L 597.657135 301.061648 
L 601.140362 293.619385 
L 604.62359 303.312371 
L 608.106817 325.534554 
L 611.590045 291.549389 
L 615.073272 330.060206 
L 618.5565 298.309727 
L 622.039727 343.869614 
L 625.522955 300.532906 
L 629.006182 289.23005 
L 632.48941 271.611518 
L 635.972637 286.618531 
L 639.455865 323.390965 
L 642.939092 293.576422 
L 646.42232 335.022628 
L 649.905547 344.866758 
L 653.388775 306.192416 
L 656.872002 270.554079 
L 660.35523 292.380239 
L 663.838457 314.953568 
L 667.321685 298.298972 
L 670.804912 294.09117 
L 674.28814 287.066342 
L 677.771367 253.553557 
L 681.254595 288.610681 
L 684.737822 276.755547 
L 688.22105 294.576676 
L 691.704277 283.161801 
L 695.187505 297.108388 
L 698.670732 311.623985 
L 702.15396 313.105652 
L 705.637188 281.974201 
L 705.637188 281.974201 
" clip-path="url(#pb26817d449)" style="fill: none; stroke: #ff8c00; stroke-width: 2.3; stroke-linecap: square"/>
   </g>
   <g id="line2d_32">
    <path d="M 284.166658 384.117812 
L 284.166658 23.837812 
" clip-path="url(#pb26817d449)" style="fill: none; stroke-dasharray: 5.55,2.4; stroke-dashoffset: 0; stroke: #808080; stroke-width: 1.5"/>
   </g>
   <g id="line2d_33">
    <path d="M 486.193854 384.117812 
L 486.193854 23.837812 
" clip-path="url(#pb26817d449)" style="fill: none; stroke-dasharray: 5.55,2.4; stroke-dashoffset: 0; stroke: #808080; stroke-width: 1.5"/>
   </g>
   <g id="patch_3">
    <path d="M 47.307188 384.117812 
L 47.307188 23.837812 
" style="fill: none; stroke: #000000; stroke-width: 0.8; stroke-linejoin: miter; stroke-linecap: square"/>
   </g>
   <g id="patch_4">
    <path d="M 705.637188 384.117812 
L 705.637188 23.837812 
" style="fill: none; stroke: #000000; stroke-width: 0.8; stroke-linejoin: miter; stroke-linecap: square"/>
   </g>
   <g id="patch_5">
    <path d="M 47.307188 384.117812 
L 705.637188 384.117812 
" style="fill: none; stroke: #000000; stroke-width: 0.8; stroke-linejoin: miter; stroke-linecap: square"/>
   </g>
   <g id="patch_6">
    <path d="M 47.307188 23.837812 
L 705.637188 23.837812 
" style="fill: none; stroke: #000000; stroke-width: 0.8; stroke-linejoin: miter; stroke-linecap: square"/>
   </g>
   <g id="text_18">
    <!-- Facial trace: ADHD (male) -->
    <g transform="translate(286.0125 17.837812) scale(0.14 -0.14)">
     <defs>
      <path id="DejaVuSans-46" d="M 628 4666 
L 3309 4666 
L 3309 4134 
L 1259 4134 
L 1259 2759 
L 3109 2759 
L 3109 2228 
L 1259 2228 
L 1259 0 
L 628 0 
L 628 4666 
z
" transform="scale(0.015625)"/>
      <path id="DejaVuSans-63" d="M 3122 3366 
L 3122 2828 
Q 2878 2963 2633 3030 
Q 2388 3097 2138 3097 
Q 1578 3097 1268 2742 
Q 959 2388 959 1747 
Q 959 1106 1268 751 
Q 1578 397 2138 397 
Q 2388 397 2633 464 
Q 2878 531 3122 666 
L 3122 134 
Q 2881 22 2623 -34 
Q 2366 -91 2075 -91 
Q 1284 -91 818 406 
Q 353 903 353 1747 
Q 353 2603 823 3093 
Q 1294 3584 2113 3584 
Q 2378 3584 2631 3529 
Q 2884 3475 3122 3366 
z
" transform="scale(0.015625)"/>
      <path id="DejaVuSans-6c" d="M 603 4863 
L 1178 4863 
L 1178 0 
L 603 0 
L 603 4863 
z
" transform="scale(0.015625)"/>
      <path id="DejaVuSans-72" d="M 2631 2963 
Q 2534 3019 2420 3045 
Q 2306 3072 2169 3072 
Q 1681 3072 1420 2755 
Q 1159 2438 1159 1844 
L 1159 0 
L 581 0 
L 581 3500 
L 1159 3500 
L 1159 2956 
Q 1341 3275 1631 3429 
Q 1922 3584 2338 3584 
Q 2397 3584 2469 3576 
Q 2541 3569 2628 3553 
L 2631 2963 
z
" transform="scale(0.015625)"/>
      <path id="DejaVuSans-3a" d="M 750 794 
L 1409 794 
L 1409 0 
L 750 0 
L 750 794 
z
M 750 3309 
L 1409 3309 
L 1409 2516 
L 750 2516 
L 750 3309 
z
" transform="scale(0.015625)"/>
      <path id="DejaVuSans-44" d="M 1259 4147 
L 1259 519 
L 2022 519 
Q 2988 519 3436 956 
Q 3884 1394 3884 2338 
Q 3884 3275 3436 3711 
Q 2988 4147 2022 4147 
L 1259 4147 
z
M 628 4666 
L 1925 4666 
Q 3281 4666 3915 4102 
Q 4550 3538 4550 2338 
Q 4550 1131 3912 565 
Q 3275 0 1925 0 
L 628 0 
L 628 4666 
z
" transform="scale(0.015625)"/>
      <path id="DejaVuSans-48" d="M 628 4666 
L 1259 4666 
L 1259 2753 
L 3553 2753 
L 3553 4666 
L 4184 4666 
L 4184 0 
L 3553 0 
L 3553 2222 
L 1259 2222 
L 1259 0 
L 628 0 
L 628 4666 
z
" transform="scale(0.015625)"/>
     </defs>
     <use xlink:href="#DejaVuSans-46"/>
     <use xlink:href="#DejaVuSans-61" transform="translate(48.394531 0)"/>
     <use xlink:href="#DejaVuSans-63" transform="translate(109.673828 0)"/>
     <use xlink:href="#DejaVuSans-69" transform="translate(164.654297 0)"/>
     <use xlink:href="#DejaVuSans-61" transform="translate(192.4375 0)"/>
     <use xlink:href="#DejaVuSans-6c" transform="translate(253.716797 0)"/>
     <use xlink:href="#DejaVuSans-20" transform="translate(281.5 0)"/>
     <use xlink:href="#DejaVuSans-74" transform="translate(313.287109 0)"/>
     <use xlink:href="#DejaVuSans-72" transform="translate(352.496094 0)"/>
     <use xlink:href="#DejaVuSans-61" transform="translate(393.609375 0)"/>
     <use xlink:href="#DejaVuSans-63" transform="translate(454.888672 0)"/>
     <use xlink:href="#DejaVuSans-65" transform="translate(509.869141 0)"/>
     <use xlink:href="#DejaVuSans-3a" transform="translate(571.392578 0)"/>
     <use xlink:href="#DejaVuSans-20" transform="translate(605.083984 0)"/>
     <use xlink:href="#DejaVuSans-41" transform="translate(636.871094 0)"/>
     <use xlink:href="#DejaVuSans-44" transform="translate(705.279297 0)"/>
     <use xlink:href="#DejaVuSans-48" transform="translate(782.28125 0)"/>
     <use xlink:href="#DejaVuSans-44" transform="translate(857.476562 0)"/>
     <use xlink:href="#DejaVuSans-20" transform="translate(934.478516 0)"/>
     <use xlink:href="#DejaVuSans-28" transform="translate(966.265625 0)"/>
     <use xlink:href="#DejaVuSans-6d" transform="translate(1005.279297 0)"/>
     <use xlink:href="#DejaVuSans-61" transform="translate(1102.691406 0)"/>
     <use xlink:href="#DejaVuSans-6c" transform="translate(1163.970703 0)"/>
     <use xlink:href="#DejaVuSans-65" transform="translate(1191.753906 0)"/>
     <use xlink:href="#DejaVuSans-29" transform="translate(1253.277344 0)"/>
    </g>
   </g>
   <g id="legend_1">
    <g id="patch_7">
     <path d="M 593.538594 42.096094 
L 615.538594 42.096094 
L 615.538594 34.396094 
L 593.538594 34.396094 
z
" style="fill: #d3d3d3; fill-opacity: 0.5; stroke: #d3d3d3; stroke-opacity: 0.5; stroke-linejoin: miter"/>
    </g>
    <g id="text_19">
     <!-- ADHD ±2 SD -->
     <g transform="translate(624.338594 42.096094) scale(0.11 -0.11)">
      <defs>
       <path id="DejaVuSans-b1" d="M 2944 4013 
L 2944 2803 
L 4684 2803 
L 4684 2272 
L 2944 2272 
L 2944 1063 
L 2419 1063 
L 2419 2272 
L 678 2272 
L 678 2803 
L 2419 2803 
L 2419 4013 
L 2944 4013 
z
M 678 531 
L 4684 531 
L 4684 0 
L 678 0 
L 678 531 
z
" transform="scale(0.015625)"/>
       <path id="DejaVuSans-53" d="M 3425 4513 
L 3425 3897 
Q 3066 4069 2747 4153 
Q 2428 4238 2131 4238 
Q 1616 4238 1336 4038 
Q 1056 3838 1056 3469 
Q 1056 3159 1242 3001 
Q 1428 2844 1947 2747 
L 2328 2669 
Q 3034 2534 3370 2195 
Q 3706 1856 3706 1288 
Q 3706 609 3251 259 
Q 2797 -91 1919 -91 
Q 1588 -91 1214 -16 
Q 841 59 441 206 
L 441 856 
Q 825 641 1194 531 
Q 1563 422 1919 422 
Q 2459 422 2753 634 
Q 3047 847 3047 1241 
Q 3047 1584 2836 1778 
Q 2625 1972 2144 2069 
L 1759 2144 
Q 1053 2284 737 2584 
Q 422 2884 422 3419 
Q 422 4038 858 4394 
Q 1294 4750 2059 4750 
Q 2388 4750 2728 4690 
Q 3069 4631 3425 4513 
z
" transform="scale(0.015625)"/>
      </defs>
      <use xlink:href="#DejaVuSans-41"/>
      <use xlink:href="#DejaVuSans-44" transform="translate(68.408203 0)"/>
      <use xlink:href="#DejaVuSans-48" transform="translate(145.410156 0)"/>
      <use xlink:href="#DejaVuSans-44" transform="translate(220.605469 0)"/>
      <use xlink:href="#DejaVuSans-20" transform="translate(297.607422 0)"/>
      <use xlink:href="#DejaVuSans-b1" transform="translate(329.394531 0)"/>
      <use xlink:href="#DejaVuSans-32" transform="translate(413.183594 0)"/>
      <use xlink:href="#DejaVuSans-20" transform="translate(476.806641 0)"/>
      <use xlink:href="#DejaVuSans-53" transform="translate(508.59375 0)"/>
      <use xlink:href="#DejaVuSans-44" transform="translate(572.070312 0)"/>
     </g>
    </g>
    <g id="patch_8">
     <path d="M 593.538594 58.242031 
L 615.538594 58.242031 
L 615.538594 50.542031 
L 593.538594 50.542031 
z
" style="fill: #808080; fill-opacity: 0.7; stroke: #808080; stroke-opacity: 0.7; stroke-linejoin: miter"/>
    </g>
    <g id="text_20">
     <!-- ADHD ±1 SD -->
     <g transform="translate(624.338594 58.242031) scale(0.11 -0.11)">
      <use xlink:href="#DejaVuSans-41"/>
      <use xlink:href="#DejaVuSans-44" transform="translate(68.408203 0)"/>
      <use xlink:href="#DejaVuSans-48" transform="translate(145.410156 0)"/>
      <use xlink:href="#DejaVuSans-44" transform="translate(220.605469 0)"/>
      <use xlink:href="#DejaVuSans-20" transform="translate(297.607422 0)"/>
      <use xlink:href="#DejaVuSans-b1" transform="translate(329.394531 0)"/>
      <use xlink:href="#DejaVuSans-31" transform="translate(413.183594 0)"/>
      <use xlink:href="#DejaVuSans-20" transform="translate(476.806641 0)"/>
      <use xlink:href="#DejaVuSans-53" transform="translate(508.59375 0)"/>
      <use xlink:href="#DejaVuSans-44" transform="translate(572.070312 0)"/>
     </g>
    </g>
    <g id="line2d_34">
     <path d="M 593.538594 70.537969 
L 604.538594 70.537969 
L 615.538594 70.537969 
" style="fill: none; stroke: #ff8c00; stroke-width: 2.3; stroke-linecap: square"/>
    </g>
    <g id="text_21">
     <!-- Patient -->
     <g transform="translate(624.338594 74.387969) scale(0.11 -0.11)">
      <defs>
       <path id="DejaVuSans-50" d="M 1259 4147 
L 1259 2394 
L 2053 2394 
Q 2494 2394 2734 2622 
Q 2975 2850 2975 3272 
Q 2975 3691 2734 3919 
Q 2494 4147 2053 4147 
L 1259 4147 
z
M 628 4666 
L 2053 4666 
Q 2838 4666 3239 4311 
Q 3641 3956 3641 3272 
Q 3641 2581 3239 2228 
Q 2838 1875 2053 1875 
L 1259 1875 
L 1259 0 
L 628 0 
L 628 4666 
z
" transform="scale(0.015625)"/>
      </defs>
      <use xlink:href="#DejaVuSans-50"/>
      <use xlink:href="#DejaVuSans-61" transform="translate(55.802734 0)"/>
      <use xlink:href="#DejaVuSans-74" transform="translate(117.082031 0)"/>
      <use xlink:href="#DejaVuSans-69" transform="translate(156.291016 0)"/>
      <use xlink:href="#DejaVuSans-65" transform="translate(184.074219 0)"/>
      <use xlink:href="#DejaVuSans-6e" transform="translate(245.597656 0)"/>
      <use xlink:href="#DejaVuSans-74" transform="translate(308.976562 0)"/>
     </g>
    </g>
   </g>
  </g>
 </g>
 <defs>
  <clipPath id="pb26817d449">
   <rect x="47.307188" y="23.837812" width="658.33" height="360.28"/>
  </clipPath>
 </defs>
</svg>
