<?xml version="1.0" encoding="utf-8" standalone="no"?>
<!DOCTYPE svg PUBLIC "-//W3C//DTD SVG 1.1//EN"
  "http://www.w3.org/Graphics/SVG/1.1/DTD/svg11.dtd">
<svg xmlns:xlink="http://www.w3.org/1999/xlink" width="712.837188pt" height="424.5775pt" viewBox="0 0 712.837188 424.5775" xmlns="http://www.w3.org/2000/svg" version="1.1">
 <metadata>
  <rdf:RDF xmlns:dc="http://purl.org/dc/elements/1.1/" xmlns:cc="http://creativecommons.org/ns#" xmlns:rdf="http://www.w3.org/1999/02/22-rdf-syntax-ns#">
   <cc:Work>
    <dc:type rdf:resource="http://purl.org/dc/dcmitype/StillImage"/>
    <dc:date>2026-06-23T21:37:34.233251</dc:date>
    <dc:format>image/svg+xml</dc:format>
    <dc:creator>
     <cc:Agent>
      <dc:title>Matplotlib v3.10.1, https://matplotlib.org/</dc:title>
     </cc:Agent>
    </dc:creator>
   </cc:Work>
  </rdf:RDF>
 </metadata>
 <defs>
  <style type="text/css">*{stroke-linejoin: round; stroke-linecap: butt}</style>
 </defs>
 <g id="figure_1">
  <g id="patch_1">
   <path d="M 0 424.5775 
L 712.837188 424.5775 
L 712.837188 0 
L 0 0 
z
" style="fill: #ffffff"/>
  </g>
  <g id="axes_1">
   <g id="patch_2">
    <path d="M 47.307188 384.117812 
L 705.637188 384.117812 
L 705.637188 23.837812 
L 47.307188 23.837812 
z
" style="fill: #ffffff"/>
   </g>
   <g id="matplotlib.axis_1">
    <g id="xtick_1">
     <g id="line2d_1">
      <path d="M 47.307188 384.117812 
L 47.307188 23.837812 
" clip-path="url(#p97b1a1bc24)" style="fill: none; stroke: #b0b0b0; stroke-opacity: 0.2; stroke-width: 0.6; stroke-linecap: square"/>
     </g>
     <g id="line2d_2">
      <defs>
       <path id="m6014b446a3" d="M 0 0 
L 0 3.5 
" style="stroke: #000000; stroke-width: 0.8"/>
      </defs>
      <g>
       <use xlink:href="#m6014b446a3" x="47.307188" y="384.117812" style="stroke: #000000; stroke-width: 0.8"/>
      </g>
     </g>
     <g id="text_1">
      <!-- 0 -->
      <g transform="translate(43.807813 399.476094) scale(0.11 -0.11)">
       <defs>
        <path id="DejaVuSans-30" d="M 2034 4250 
Q 1547 4250 1301 3770 
Q 1056 3291 1056 2328 
Q 1056 1369 1301 889 
Q 1547 409 2034 409 
Q 2525 409 2770 889 
Q 3016 1369 3016 2328 
Q 3016 3291 2770 3770 
Q 2525 4250 2034 4250 
z
M 2034 4750 
Q 2819 4750 3233 4129 
Q 3647 3509 3647 2328 
Q 3647 1150 3233 529 
Q 2819 -91 2034 -91 
Q 1250 -91 836 529 
Q 422 1150 422 2328 
Q 422 3509 836 4129 
Q 1250 4750 2034 4750 
z
" transform="scale(0.015625)"/>
       </defs>
       <use xlink:href="#DejaVuSans-30"/>
      </g>
     </g>
    </g>
    <g id="xtick_2">
     <g id="line2d_3">
      <path d="M 133.929556 384.117812 
L 133.929556 23.837812 
" clip-path="url(#p97b1a1bc24)" style="fill: none; stroke: #b0b0b0; stroke-opacity: 0.2; stroke-width: 0.6; stroke-linecap: square"/>
     </g>
     <g id="line2d_4">
      <g>
       <use xlink:href="#m6014b446a3" x="133.929556" y="384.117812" style="stroke: #000000; stroke-width: 0.8"/>
      </g>
     </g>
     <g id="text_2">
      <!-- 25 -->
      <g transform="translate(126.930806 399.476094) scale(0.11 -0.11)">
       <defs>
        <path id="DejaVuSans-32" d="M 1228 531 
L 3431 531 
L 3431 0 
L 469 0 
L 469 531 
Q 828 903 1448 1529 
Q 2069 2156 2228 2338 
Q 2531 2678 2651 2914 
Q 2772 3150 2772 3378 
Q 2772 3750 2511 3984 
Q 2250 4219 1831 4219 
Q 1534 4219 1204 4116 
Q 875 4013 500 3803 
L 500 4441 
Q 881 4594 1212 4672 
Q 1544 4750 1819 4750 
Q 2544 4750 2975 4387 
Q 3406 4025 3406 3419 
Q 3406 3131 3298 2873 
Q 3191 2616 2906 2266 
Q 2828 2175 2409 1742 
Q 1991 1309 1228 531 
z
" transform="scale(0.015625)"/>
        <path id="DejaVuSans-35" d="M 691 4666 
L 3169 4666 
L 3169 4134 
L 1269 4134 
L 1269 2991 
Q 1406 3038 1543 3061 
Q 1681 3084 1819 3084 
Q 2600 3084 3056 2656 
Q 3513 2228 3513 1497 
Q 3513 744 3044 326 
Q 2575 -91 1722 -91 
Q 1428 -91 1123 -41 
Q 819 9 494 109 
L 494 744 
Q 775 591 1075 516 
Q 1375 441 1709 441 
Q 2250 441 2565 725 
Q 2881 1009 2881 1497 
Q 2881 1984 2565 2268 
Q 2250 2553 1709 2553 
Q 1456 2553 1204 2497 
Q 953 2441 691 2322 
L 691 4666 
z
" transform="scale(0.015625)"/>
       </defs>
       <use xlink:href="#DejaVuSans-32"/>
       <use xlink:href="#DejaVuSans-35" transform="translate(63.623047 0)"/>
      </g>
     </g>
    </g>
    <g id="xtick_3">
     <g id="line2d_5">
      <path d="M 220.551924 384.117812 
L 220.551924 23.837812 
" clip-path="url(#p97b1a1bc24)" style="fill: none; stroke: #b0b0b0; stroke-opacity: 0.2; stroke-width: 0.6; stroke-linecap: square"/>
     </g>
     <g id="line2d_6">
      <g>
       <use xlink:href="#m6014b446a3" x="220.551924" y="384.117812" style="stroke: #000000; stroke-width: 0.8"/>
      </g>
     </g>
     <g id="text_3">
      <!-- 50 -->
      <g transform="translate(213.553174 399.476094) scale(0.11 -0.11)">
       <use xlink:href="#DejaVuSans-35"/>
       <use xlink:href="#DejaVuSans-30" transform="translate(63.623047 0)"/>
      </g>
     </g>
    </g>
    <g id="xtick_4">
     <g id="line2d_7">
      <path d="M 307.174293 384.117812 
L 307.174293 23.837812 
" clip-path="url(#p97b1a1bc24)" style="fill: none; stroke: #b0b0b0; stroke-opacity: 0.2; stroke-width: 0.6; stroke-linecap: square"/>
     </g>
     <g id="line2d_8">
      <g>
       <use xlink:href="#m6014b446a3" x="307.174293" y="384.117812" style="stroke: #000000; stroke-width: 0.8"/>
      </g>
     </g>
     <g id="text_4">
      <!-- 75 -->
      <g transform="translate(300.175543 399.476094) scale(0.11 -0.11)">
       <defs>
        <path id="DejaVuSans-37" d="M 525 4666 
L 3525 4666 
L 3525 4397 
L 1831 0 
L 1172 0 
L 2766 4134 
L 525 4134 
L 525 4666 
z
" transform="scale(0.015625)"/>
       </defs>
       <use xlink:href="#DejaVuSans-37"/>
       <use xlink:href="#DejaVuSans-35" transform="translate(63.623047 0)"/>
      </g>
     </g>
    </g>
    <g id="xtick_5">
     <g id="line2d_9">
      <path d="M 393.796661 384.117812 
L 393.796661 23.837812 
" clip-path="url(#p97b1a1bc24)" style="fill: none; stroke: #b0b0b0; stroke-opacity: 0.2; stroke-width: 0.6; stroke-linecap: square"/>
     </g>
     <g id="line2d_10">
      <g>
       <use xlink:href="#m6014b446a3" x="393.796661" y="384.117812" style="stroke: #000000; stroke-width: 0.8"/>
      </g>
     </g>
     <g id="text_5">
      <!-- 100 -->
      <g transform="translate(383.298536 399.476094) scale(0.11 -0.11)">
       <defs>
        <path id="DejaVuSans-31" d="M 794 531 
L 1825 531 
L 1825 4091 
L 703 3866 
L 703 4441 
L 1819 4666 
L 2450 4666 
L 2450 531 
L 3481 531 
L 3481 0 
L 794 0 
L 794 531 
z
" transform="scale(0.015625)"/>
       </defs>
       <use xlink:href="#DejaVuSans-31"/>
       <use xlink:href="#DejaVuSans-30" transform="translate(63.623047 0)"/>
       <use xlink:href="#DejaVuSans-30" transform="translate(127.246094 0)"/>
      </g>
     </g>
    </g>
    <g id="xtick_6">
     <g id="line2d_11">
      <path d="M 480.41903 384.117812 
L 480.41903 23.837812 
" clip-path="url(#p97b1a1bc24)" style="fill: none; stroke: #b0b0b0; stroke-opacity: 0.2; stroke-width: 0.6; stroke-linecap: square"/>
     </g>
     <g id="line2d_12">
      <g>
       <use xlink:href="#m6014b446a3" x="480.41903" y="384.117812" style="stroke: #000000; stroke-width: 0.8"/>
      </g>
     </g>
     <g id="text_6">
      <!-- 125 -->
      <g transform="translate(469.920905 399.476094) scale(0.11 -0.11)">
       <use xlink:href="#DejaVuSans-31"/>
       <use xlink:href="#DejaVuSans-32" transform="translate(63.623047 0)"/>
       <use xlink:href="#DejaVuSans-35" transform="translate(127.246094 0)"/>
      </g>
     </g>
    </g>
    <g id="xtick_7">
     <g id="line2d_13">
      <path d="M 567.041398 384.117812 
L 567.041398 23.837812 
" clip-path="url(#p97b1a1bc24)" style="fill: none; stroke: #b0b0b0; stroke-opacity: 0.2; stroke-width: 0.6; stroke-linecap: square"/>
     </g>
     <g id="line2d_14">
      <g>
       <use xlink:href="#m6014b446a3" x="567.041398" y="384.117812" style="stroke: #000000; stroke-width: 0.8"/>
      </g>
     </g>
     <g id="text_7">
      <!-- 150 -->
      <g transform="translate(556.543273 399.476094) scale(0.11 -0.11)">
       <use xlink:href="#DejaVuSans-31"/>
       <use xlink:href="#DejaVuSans-35" transform="translate(63.623047 0)"/>
       <use xlink:href="#DejaVuSans-30" transform="translate(127.246094 0)"/>
      </g>
     </g>
    </g>
    <g id="xtick_8">
     <g id="line2d_15">
      <path d="M 653.663766 384.117812 
L 653.663766 23.837812 
" clip-path="url(#p97b1a1bc24)" style="fill: none; stroke: #b0b0b0; stroke-opacity: 0.2; stroke-width: 0.6; stroke-linecap: square"/>
     </g>
     <g id="line2d_16">
      <g>
       <use xlink:href="#m6014b446a3" x="653.663766" y="384.117812" style="stroke: #000000; stroke-width: 0.8"/>
      </g>
     </g>
     <g id="text_8">
      <!-- 175 -->
      <g transform="translate(643.165641 399.476094) scale(0.11 -0.11)">
       <use xlink:href="#DejaVuSans-31"/>
       <use xlink:href="#DejaVuSans-37" transform="translate(63.623047 0)"/>
       <use xlink:href="#DejaVuSans-35" transform="translate(127.246094 0)"/>
      </g>
     </g>
    </g>
    <g id="text_9">
     <!-- Time (s) -->
     <g transform="translate(352.0775 414.881875) scale(0.12 -0.12)">
      <defs>
       <path id="DejaVuSans-54" d="M -19 4666 
L 3928 4666 
L 3928 4134 
L 2272 4134 
L 2272 0 
L 1638 0 
L 1638 4134 
L -19 4134 
L -19 4666 
z
" transform="scale(0.015625)"/>
       <path id="DejaVuSans-69" d="M 603 3500 
L 1178 3500 
L 1178 0 
L 603 0 
L 603 3500 
z
M 603 4863 
L 1178 4863 
L 1178 4134 
L 603 4134 
L 603 4863 
z
" transform="scale(0.015625)"/>
       <path id="DejaVuSans-6d" d="M 3328 2828 
Q 3544 3216 3844 3400 
Q 4144 3584 4550 3584 
Q 5097 3584 5394 3201 
Q 5691 2819 5691 2113 
L 5691 0 
L 5113 0 
L 5113 2094 
Q 5113 2597 4934 2840 
Q 4756 3084 4391 3084 
Q 3944 3084 3684 2787 
Q 3425 2491 3425 1978 
L 3425 0 
L 2847 0 
L 2847 2094 
Q 2847 2600 2669 2842 
Q 2491 3084 2119 3084 
Q 1678 3084 1418 2786 
Q 1159 2488 1159 1978 
L 1159 0 
L 581 0 
L 581 3500 
L 1159 3500 
L 1159 2956 
Q 1356 3278 1631 3431 
Q 1906 3584 2284 3584 
Q 2666 3584 2933 3390 
Q 3200 3197 3328 2828 
z
" transform="scale(0.015625)"/>
       <path id="DejaVuSans-65" d="M 3597 1894 
L 3597 1613 
L 953 1613 
Q 991 1019 1311 708 
Q 1631 397 2203 397 
Q 2534 397 2845 478 
Q 3156 559 3463 722 
L 3463 178 
Q 3153 47 2828 -22 
Q 2503 -91 2169 -91 
Q 1331 -91 842 396 
Q 353 884 353 1716 
Q 353 2575 817 3079 
Q 1281 3584 2069 3584 
Q 2775 3584 3186 3129 
Q 3597 2675 3597 1894 
z
M 3022 2063 
Q 3016 2534 2758 2815 
Q 2500 3097 2075 3097 
Q 1594 3097 1305 2825 
Q 1016 2553 972 2059 
L 3022 2063 
z
" transform="scale(0.015625)"/>
       <path id="DejaVuSans-20" transform="scale(0.015625)"/>
       <path id="DejaVuSans-28" d="M 1984 4856 
Q 1566 4138 1362 3434 
Q 1159 2731 1159 2009 
Q 1159 1288 1364 580 
Q 1569 -128 1984 -844 
L 1484 -844 
Q 1016 -109 783 600 
Q 550 1309 550 2009 
Q 550 2706 781 3412 
Q 1013 4119 1484 4856 
L 1984 4856 
z
" transform="scale(0.015625)"/>
       <path id="DejaVuSans-73" d="M 2834 3397 
L 2834 2853 
Q 2591 2978 2328 3040 
Q 2066 3103 1784 3103 
Q 1356 3103 1142 2972 
Q 928 2841 928 2578 
Q 928 2378 1081 2264 
Q 1234 2150 1697 2047 
L 1894 2003 
Q 2506 1872 2764 1633 
Q 3022 1394 3022 966 
Q 3022 478 2636 193 
Q 2250 -91 1575 -91 
Q 1294 -91 989 -36 
Q 684 19 347 128 
L 347 722 
Q 666 556 975 473 
Q 1284 391 1588 391 
Q 1994 391 2212 530 
Q 2431 669 2431 922 
Q 2431 1156 2273 1281 
Q 2116 1406 1581 1522 
L 1381 1569 
Q 847 1681 609 1914 
Q 372 2147 372 2553 
Q 372 3047 722 3315 
Q 1072 3584 1716 3584 
Q 2034 3584 2315 3537 
Q 2597 3491 2834 3397 
z
" transform="scale(0.015625)"/>
       <path id="DejaVuSans-29" d="M 513 4856 
L 1013 4856 
Q 1481 4119 1714 3412 
Q 1947 2706 1947 2009 
Q 1947 1309 1714 600 
Q 1481 -109 1013 -844 
L 513 -844 
Q 928 -128 1133 580 
Q 1338 1288 1338 2009 
Q 1338 2731 1133 3434 
Q 928 4138 513 4856 
z
" transform="scale(0.015625)"/>
      </defs>
      <use xlink:href="#DejaVuSans-54"/>
      <use xlink:href="#DejaVuSans-69" transform="translate(57.958984 0)"/>
      <use xlink:href="#DejaVuSans-6d" transform="translate(85.742188 0)"/>
      <use xlink:href="#DejaVuSans-65" transform="translate(183.154297 0)"/>
      <use xlink:href="#DejaVuSans-20" transform="translate(244.677734 0)"/>
      <use xlink:href="#DejaVuSans-28" transform="translate(276.464844 0)"/>
      <use xlink:href="#DejaVuSans-73" transform="translate(315.478516 0)"/>
      <use xlink:href="#DejaVuSans-29" transform="translate(367.578125 0)"/>
     </g>
    </g>
   </g>
   <g id="matplotlib.axis_2">
    <g id="ytick_1">
     <g id="line2d_17">
      <path d="M 47.307188 367.741449 
L 705.637188 367.741449 
" clip-path="url(#p97b1a1bc24)" style="fill: none; stroke: #b0b0b0; stroke-opacity: 0.2; stroke-width: 0.6; stroke-linecap: square"/>
     </g>
     <g id="line2d_18">
      <defs>
       <path id="m50e524c35b" d="M 0 0 
L -3.5 0 
" style="stroke: #000000; stroke-width: 0.8"/>
      </defs>
      <g>
       <use xlink:href="#m50e524c35b" x="47.307188" y="367.741449" style="stroke: #000000; stroke-width: 0.8"/>
      </g>
     </g>
     <g id="text_10">
      <!-- 0.0 -->
      <g transform="translate(22.81375 371.920589) scale(0.11 -0.11)">
       <defs>
        <path id="DejaVuSans-2e" d="M 684 794 
L 1344 794 
L 1344 0 
L 684 0 
L 684 794 
z
" transform="scale(0.015625)"/>
       </defs>
       <use xlink:href="#DejaVuSans-30"/>
       <use xlink:href="#DejaVuSans-2e" transform="translate(63.623047 0)"/>
       <use xlink:href="#DejaVuSans-30" transform="translate(95.410156 0)"/>
      </g>
     </g>
    </g>
    <g id="ytick_2">
     <g id="line2d_19">
      <path d="M 47.307188 317.507205 
L 705.637188 317.507205 
" clip-path="url(#p97b1a1bc24)" style="fill: none; stroke: #b0b0b0; stroke-opacity: 0.2; stroke-width: 0.6; stroke-linecap: square"/>
     </g>
     <g id="line2d_20">
      <g>
       <use xlink:href="#m50e524c35b" x="47.307188" y="317.507205" style="stroke: #000000; stroke-width: 0.8"/>
      </g>
     </g>
     <g id="text_11">
      <!-- 0.5 -->
      <g transform="translate(22.81375 321.686345) scale(0.11 -0.11)">
       <use xlink:href="#DejaVuSans-30"/>
       <use xlink:href="#DejaVuSans-2e" transform="translate(63.623047 0)"/>
       <use xlink:href="#DejaVuSans-35" transform="translate(95.410156 0)"/>
      </g>
     </g>
    </g>
    <g id="ytick_3">
     <g id="line2d_21">
      <path d="M 47.307188 267.27296 
L 705.637188 267.27296 
" clip-path="url(#p97b1a1bc24)" style="fill: none; stroke: #b0b0b0; stroke-opacity: 0.2; stroke-width: 0.6; stroke-linecap: square"/>
     </g>
     <g id="line2d_22">
      <g>
       <use xlink:href="#m50e524c35b" x="47.307188" y="267.27296" style="stroke: #000000; stroke-width: 0.8"/>
      </g>
     </g>
     <g id="text_12">
      <!-- 1.0 -->
      <g transform="translate(22.81375 271.452101) scale(0.11 -0.11)">
       <use xlink:href="#DejaVuSans-31"/>
       <use xlink:href="#DejaVuSans-2e" transform="translate(63.623047 0)"/>
       <use xlink:href="#DejaVuSans-30" transform="translate(95.410156 0)"/>
      </g>
     </g>
    </g>
    <g id="ytick_4">
     <g id="line2d_23">
      <path d="M 47.307188 217.038716 
L 705.637188 217.038716 
" clip-path="url(#p97b1a1bc24)" style="fill: none; stroke: #b0b0b0; stroke-opacity: 0.2; stroke-width: 0.6; stroke-linecap: square"/>
     </g>
     <g id="line2d_24">
      <g>
       <use xlink:href="#m50e524c35b" x="47.307188" y="217.038716" style="stroke: #000000; stroke-width: 0.8"/>
      </g>
     </g>
     <g id="text_13">
      <!-- 1.5 -->
      <g transform="translate(22.81375 221.217857) scale(0.11 -0.11)">
       <use xlink:href="#DejaVuSans-31"/>
       <use xlink:href="#DejaVuSans-2e" transform="translate(63.623047 0)"/>
       <use xlink:href="#DejaVuSans-35" transform="translate(95.410156 0)"/>
      </g>
     </g>
    </g>
    <g id="ytick_5">
     <g id="line2d_25">
      <path d="M 47.307188 166.804472 
L 705.637188 166.804472 
" clip-path="url(#p97b1a1bc24)" style="fill: none; stroke: #b0b0b0; stroke-opacity: 0.2; stroke-width: 0.6; stroke-linecap: square"/>
     </g>
     <g id="line2d_26">
      <g>
       <use xlink:href="#m50e524c35b" x="47.307188" y="166.804472" style="stroke: #000000; stroke-width: 0.8"/>
      </g>
     </g>
     <g id="text_14">
      <!-- 2.0 -->
      <g transform="translate(22.81375 170.983612) scale(0.11 -0.11)">
       <use xlink:href="#DejaVuSans-32"/>
       <use xlink:href="#DejaVuSans-2e" transform="translate(63.623047 0)"/>
       <use xlink:href="#DejaVuSans-30" transform="translate(95.410156 0)"/>
      </g>
     </g>
    </g>
    <g id="ytick_6">
     <g id="line2d_27">
      <path d="M 47.307188 116.570227 
L 705.637188 116.570227 
" clip-path="url(#p97b1a1bc24)" style="fill: none; stroke: #b0b0b0; stroke-opacity: 0.2; stroke-width: 0.6; stroke-linecap: square"/>
     </g>
     <g id="line2d_28">
      <g>
       <use xlink:href="#m50e524c35b" x="47.307188" y="116.570227" style="stroke: #000000; stroke-width: 0.8"/>
      </g>
     </g>
     <g id="text_15">
      <!-- 2.5 -->
      <g transform="translate(22.81375 120.749368) scale(0.11 -0.11)">
       <use xlink:href="#DejaVuSans-32"/>
       <use xlink:href="#DejaVuSans-2e" transform="translate(63.623047 0)"/>
       <use xlink:href="#DejaVuSans-35" transform="translate(95.410156 0)"/>
      </g>
     </g>
    </g>
    <g id="ytick_7">
     <g id="line2d_29">
      <path d="M 47.307188 66.335983 
L 705.637188 66.335983 
" clip-path="url(#p97b1a1bc24)" style="fill: none; stroke: #b0b0b0; stroke-opacity: 0.2; stroke-width: 0.6; stroke-linecap: square"/>
     </g>
     <g id="line2d_30">
      <g>
       <use xlink:href="#m50e524c35b" x="47.307188" y="66.335983" style="stroke: #000000; stroke-width: 0.8"/>
      </g>
     </g>
     <g id="text_16">
      <!-- 3.0 -->
      <g transform="translate(22.81375 70.515124) scale(0.11 -0.11)">
       <defs>
        <path id="DejaVuSans-33" d="M 2597 2516 
Q 3050 2419 3304 2112 
Q 3559 1806 3559 1356 
Q 3559 666 3084 287 
Q 2609 -91 1734 -91 
Q 1441 -91 1130 -33 
Q 819 25 488 141 
L 488 750 
Q 750 597 1062 519 
Q 1375 441 1716 441 
Q 2309 441 2620 675 
Q 2931 909 2931 1356 
Q 2931 1769 2642 2001 
Q 2353 2234 1838 2234 
L 1294 2234 
L 1294 2753 
L 1863 2753 
Q 2328 2753 2575 2939 
Q 2822 3125 2822 3475 
Q 2822 3834 2567 4026 
Q 2313 4219 1838 4219 
Q 1578 4219 1281 4162 
Q 984 4106 628 3988 
L 628 4550 
Q 988 4650 1302 4700 
Q 1616 4750 1894 4750 
Q 2613 4750 3031 4423 
Q 3450 4097 3450 3541 
Q 3450 3153 3228 2886 
Q 3006 2619 2597 2516 
z
" transform="scale(0.015625)"/>
       </defs>
       <use xlink:href="#DejaVuSans-33"/>
       <use xlink:href="#DejaVuSans-2e" transform="translate(63.623047 0)"/>
       <use xlink:href="#DejaVuSans-30" transform="translate(95.410156 0)"/>
      </g>
     </g>
    </g>
    <g id="text_17">
     <!-- AU mean intensity -->
     <g transform="translate(16.318125 259.314687) rotate(-90) scale(0.12 -0.12)">
      <defs>
       <path id="DejaVuSans-41" d="M 2188 4044 
L 1331 1722 
L 3047 1722 
L 2188 4044 
z
M 1831 4666 
L 2547 4666 
L 4325 0 
L 3669 0 
L 3244 1197 
L 1141 1197 
L 716 0 
L 50 0 
L 1831 4666 
z
" transform="scale(0.015625)"/>
       <path id="DejaVuSans-55" d="M 556 4666 
L 1191 4666 
L 1191 1831 
Q 1191 1081 1462 751 
Q 1734 422 2344 422 
Q 2950 422 3222 751 
Q 3494 1081 3494 1831 
L 3494 4666 
L 4128 4666 
L 4128 1753 
Q 4128 841 3676 375 
Q 3225 -91 2344 -91 
Q 1459 -91 1007 375 
Q 556 841 556 1753 
L 556 4666 
z
" transform="scale(0.015625)"/>
       <path id="DejaVuSans-61" d="M 2194 1759 
Q 1497 1759 1228 1600 
Q 959 1441 959 1056 
Q 959 750 1161 570 
Q 1363 391 1709 391 
Q 2188 391 2477 730 
Q 2766 1069 2766 1631 
L 2766 1759 
L 2194 1759 
z
M 3341 1997 
L 3341 0 
L 2766 0 
L 2766 531 
Q 2569 213 2275 61 
Q 1981 -91 1556 -91 
Q 1019 -91 701 211 
Q 384 513 384 1019 
Q 384 1609 779 1909 
Q 1175 2209 1959 2209 
L 2766 2209 
L 2766 2266 
Q 2766 2663 2505 2880 
Q 2244 3097 1772 3097 
Q 1472 3097 1187 3025 
Q 903 2953 641 2809 
L 641 3341 
Q 956 3463 1253 3523 
Q 1550 3584 1831 3584 
Q 2591 3584 2966 3190 
Q 3341 2797 3341 1997 
z
" transform="scale(0.015625)"/>
       <path id="DejaVuSans-6e" d="M 3513 2113 
L 3513 0 
L 2938 0 
L 2938 2094 
Q 2938 2591 2744 2837 
Q 2550 3084 2163 3084 
Q 1697 3084 1428 2787 
Q 1159 2491 1159 1978 
L 1159 0 
L 581 0 
L 581 3500 
L 1159 3500 
L 1159 2956 
Q 1366 3272 1645 3428 
Q 1925 3584 2291 3584 
Q 2894 3584 3203 3211 
Q 3513 2838 3513 2113 
z
" transform="scale(0.015625)"/>
       <path id="DejaVuSans-74" d="M 1172 4494 
L 1172 3500 
L 2356 3500 
L 2356 3053 
L 1172 3053 
L 1172 1153 
Q 1172 725 1289 603 
Q 1406 481 1766 481 
L 2356 481 
L 2356 0 
L 1766 0 
Q 1100 0 847 248 
Q 594 497 594 1153 
L 594 3053 
L 172 3053 
L 172 3500 
L 594 3500 
L 594 4494 
L 1172 4494 
z
" transform="scale(0.015625)"/>
       <path id="DejaVuSans-79" d="M 2059 -325 
Q 1816 -950 1584 -1140 
Q 1353 -1331 966 -1331 
L 506 -1331 
L 506 -850 
L 844 -850 
Q 1081 -850 1212 -737 
Q 1344 -625 1503 -206 
L 1606 56 
L 191 3500 
L 800 3500 
L 1894 763 
L 2988 3500 
L 3597 3500 
L 2059 -325 
z
" transform="scale(0.015625)"/>
      </defs>
      <use xlink:href="#DejaVuSans-41"/>
      <use xlink:href="#DejaVuSans-55" transform="translate(68.408203 0)"/>
      <use xlink:href="#DejaVuSans-20" transform="translate(141.601562 0)"/>
      <use xlink:href="#DejaVuSans-6d" transform="translate(173.388672 0)"/>
      <use xlink:href="#DejaVuSans-65" transform="translate(270.800781 0)"/>
      <use xlink:href="#DejaVuSans-61" transform="translate(332.324219 0)"/>
      <use xlink:href="#DejaVuSans-6e" transform="translate(393.603516 0)"/>
      <use xlink:href="#DejaVuSans-20" transform="translate(456.982422 0)"/>
      <use xlink:href="#DejaVuSans-69" transform="translate(488.769531 0)"/>
      <use xlink:href="#DejaVuSans-6e" transform="translate(516.552734 0)"/>
      <use xlink:href="#DejaVuSans-74" transform="translate(579.931641 0)"/>
      <use xlink:href="#DejaVuSans-65" transform="translate(619.140625 0)"/>
      <use xlink:href="#DejaVuSans-6e" transform="translate(680.664062 0)"/>
      <use xlink:href="#DejaVuSans-73" transform="translate(744.042969 0)"/>
      <use xlink:href="#DejaVuSans-69" transform="translate(796.142578 0)"/>
      <use xlink:href="#DejaVuSans-74" transform="translate(823.925781 0)"/>
      <use xlink:href="#DejaVuSans-79" transform="translate(863.134766 0)"/>
     </g>
    </g>
   </g>
   <g id="FillBetweenPolyCollection_1">
    <defs>
     <path id="m8308050dba" d="M 47.307188 -198.10821 
L 47.307188 -16.110668 
L 50.772082 -13.278516 
L 54.236977 -11.692165 
L 57.701872 -12.404204 
L 61.166766 -10.130931 
L 64.631661 -12.132872 
L 68.096556 -13.865598 
L 71.561451 -14.766794 
L 75.026345 -14.278864 
L 78.49124 -13.581692 
L 81.956135 -13.302886 
L 85.42103 -12.508798 
L 88.885924 -12.345242 
L 92.350819 -13.278269 
L 95.815714 -13.272612 
L 99.280609 -13.705978 
L 102.745503 -12.652978 
L 106.210398 -13.984937 
L 109.675293 -14.967002 
L 113.140187 -14.232608 
L 116.605082 -13.818463 
L 120.069977 -15.474151 
L 123.534872 -14.869068 
L 126.999766 -14.270231 
L 130.464661 -12.542902 
L 133.929556 -12.865645 
L 137.394451 -11.323552 
L 140.859345 -10.755815 
L 144.32424 -12.588072 
L 147.789135 -11.065794 
L 151.25403 -11.886869 
L 154.718924 -10.703641 
L 158.183819 -9.366426 
L 161.648714 -10.243448 
L 165.113609 -9.389979 
L 168.578503 -8.104769 
L 172.043398 -11.018815 
L 175.508293 -9.788221 
L 178.973187 -11.852266 
L 182.438082 -12.494734 
L 185.902977 -13.15556 
L 189.367872 -13.927253 
L 192.832766 -9.428097 
L 196.297661 -7.937795 
L 199.762556 -11.359338 
L 203.227451 -11.976068 
L 206.692345 -10.250727 
L 210.15724 -10.824172 
L 213.622135 -13.546948 
L 217.08703 -10.537911 
L 220.551924 -12.712042 
L 224.016819 -12.153091 
L 227.481714 -8.500313 
L 230.946609 -10.301999 
L 234.411503 -11.917928 
L 237.876398 -19.141451 
L 241.341293 -16.864574 
L 244.806187 -12.628441 
L 248.271082 -12.167322 
L 251.735977 -12.919371 
L 255.200872 -13.355377 
L 258.665766 -11.784074 
L 262.130661 -9.761105 
L 265.595556 -12.117052 
L 269.060451 -13.062578 
L 272.525345 -11.959549 
L 275.99024 -11.250273 
L 279.455135 -15.629233 
L 282.92003 -10.42072 
L 286.384924 -9.208414 
L 289.849819 -9.648831 
L 293.314714 -7.8045 
L 296.779609 -9.39792 
L 300.244503 -9.555843 
L 303.709398 -7.792064 
L 307.174293 -10.773074 
L 310.639187 -10.300608 
L 314.104082 -12.995467 
L 317.568977 -13.871746 
L 321.033872 -14.721553 
L 324.498766 -16.537526 
L 327.963661 -16.217445 
L 331.428556 -13.868934 
L 334.893451 -13.873608 
L 338.358345 -13.2895 
L 341.82324 -12.002646 
L 345.288135 -13.604035 
L 348.75303 -13.072486 
L 352.217924 -14.183102 
L 355.682819 -14.247471 
L 359.147714 -14.009356 
L 362.612609 -14.083603 
L 366.077503 -13.650771 
L 369.542398 -11.176463 
L 373.007293 -10.183799 
L 376.472188 -11.711138 
L 379.937082 -12.55869 
L 383.401977 -12.907818 
L 386.866872 -12.539849 
L 390.331766 -10.544848 
L 393.796661 -7.680931 
L 397.261556 -12.354857 
L 400.726451 -16.168326 
L 404.191345 -18.798499 
L 407.65624 -17.353257 
L 411.121135 -18.40795 
L 414.58603 -18.671392 
L 418.050924 -16.650887 
L 421.515819 -18.145563 
L 424.980714 -19.365974 
L 428.445609 -21.038534 
L 431.910503 -20.317552 
L 435.375398 -19.683488 
L 438.840293 -16.831126 
L 442.305187 -17.46479 
L 445.770082 -19.485467 
L 449.234977 -23.106285 
L 452.699872 -20.75772 
L 456.164766 -21.616025 
L 459.629661 -22.209345 
L 463.094556 -19.125324 
L 466.559451 -17.487299 
L 470.024345 -16.648345 
L 473.48924 -18.565725 
L 476.954135 -17.775571 
L 480.41903 -16.237038 
L 483.883924 -17.160387 
L 487.348819 -17.138349 
L 490.813714 -19.302525 
L 494.278609 -20.668219 
L 497.743503 -17.560695 
L 501.208398 -18.529877 
L 504.673293 -19.393817 
L 508.138188 -20.489119 
L 511.603082 -18.551529 
L 515.067977 -16.893825 
L 518.532872 -13.348433 
L 521.997766 -15.633876 
L 525.462661 -16.6026 
L 528.927556 -15.537302 
L 532.392451 -15.008501 
L 535.857345 -14.969192 
L 539.32224 -16.016956 
L 542.787135 -15.126272 
L 546.25203 -17.44744 
L 549.716924 -17.756379 
L 553.181819 -18.561449 
L 556.646714 -16.88847 
L 560.111609 -16.388211 
L 563.576503 -16.241046 
L 567.041398 -15.941863 
L 570.506293 -16.325095 
L 573.971188 -16.865828 
L 577.436082 -17.7981 
L 580.900977 -16.416287 
L 584.365872 -15.66617 
L 587.830766 -17.817852 
L 591.295661 -19.457893 
L 594.760556 -24.316501 
L 598.225451 -26.287663 
L 601.690345 -25.730536 
L 605.15524 -23.077581 
L 608.620135 -16.118918 
L 612.08503 -23.526932 
L 615.549924 -26.03333 
L 619.014819 -28.268092 
L 622.479714 -26.155082 
L 625.944609 -26.109981 
L 629.409503 -21.797676 
L 632.874398 -17.883153 
L 636.339293 -17.189032 
L 639.804188 -16.898453 
L 643.269082 -16.842466 
L 646.733977 -18.184585 
L 650.198872 -16.562495 
L 653.663766 -15.061846 
L 657.128661 -16.537149 
L 660.593556 -17.668624 
L 664.058451 -17.046906 
L 667.523345 -20.125351 
L 670.98824 -19.089853 
L 674.453135 -17.612093 
L 677.91803 -17.530522 
L 681.382924 -14.612664 
L 684.847819 -17.531611 
L 688.312714 -18.632079 
L 691.777609 -14.839083 
L 695.242503 -16.366716 
L 698.707398 -14.893217 
L 702.172293 -15.321002 
L 705.637188 -101.559679 
L 705.637188 -181.443688 
L 705.637188 -181.443688 
L 702.172293 -205.395185 
L 698.707398 -204.392333 
L 695.242503 -200.441487 
L 691.777609 -199.332425 
L 688.312714 -195.096199 
L 684.847819 -202.634141 
L 681.382924 -208.600686 
L 677.91803 -202.049131 
L 674.453135 -208.643881 
L 670.98824 -206.00336 
L 667.523345 -209.150528 
L 664.058451 -212.762055 
L 660.593556 -215.403506 
L 657.128661 -220.200645 
L 653.663766 -225.182555 
L 650.198872 -223.67949 
L 646.733977 -222.713333 
L 643.269082 -226.047181 
L 639.804188 -231.557998 
L 636.339293 -232.854838 
L 632.874398 -229.98502 
L 629.409503 -223.899575 
L 625.944609 -219.317343 
L 622.479714 -216.341025 
L 619.014819 -213.231152 
L 615.549924 -216.045034 
L 612.08503 -220.338923 
L 608.620135 -230.226096 
L 605.15524 -217.839909 
L 601.690345 -214.459888 
L 598.225451 -210.056554 
L 594.760556 -215.997878 
L 591.295661 -216.478691 
L 587.830766 -206.697468 
L 584.365872 -202.036036 
L 580.900977 -199.166512 
L 577.436082 -199.740332 
L 573.971188 -199.894857 
L 570.506293 -199.1628 
L 567.041398 -198.354039 
L 563.576503 -198.962495 
L 560.111609 -199.902119 
L 556.646714 -201.99929 
L 553.181819 -201.360394 
L 549.716924 -202.583743 
L 546.25203 -202.386225 
L 542.787135 -204.492394 
L 539.32224 -204.395024 
L 535.857345 -206.487422 
L 532.392451 -205.189241 
L 528.927556 -203.926589 
L 525.462661 -202.311612 
L 521.997766 -203.451852 
L 518.532872 -206.084536 
L 515.067977 -206.243037 
L 511.603082 -202.500217 
L 508.138188 -196.182531 
L 504.673293 -196.743937 
L 501.208398 -197.994647 
L 497.743503 -199.643616 
L 494.278609 -196.267313 
L 490.813714 -198.38509 
L 487.348819 -202.736615 
L 483.883924 -202.754932 
L 480.41903 -201.708577 
L 476.954135 -195.849311 
L 473.48924 -197.541502 
L 470.024345 -205.024751 
L 466.559451 -199.219546 
L 463.094556 -202.708378 
L 459.629661 -204.078104 
L 456.164766 -207.66788 
L 452.699872 -206.618757 
L 449.234977 -205.092316 
L 445.770082 -209.36846 
L 442.305187 -213.37845 
L 438.840293 -211.515399 
L 435.375398 -209.466333 
L 431.910503 -210.000782 
L 428.445609 -213.655051 
L 424.980714 -212.796869 
L 421.515819 -220.653064 
L 418.050924 -224.071682 
L 414.58603 -217.244949 
L 411.121135 -216.264693 
L 407.65624 -214.039792 
L 404.191345 -214.809183 
L 400.726451 -216.492945 
L 397.261556 -221.975694 
L 393.796661 -225.754325 
L 390.331766 -210.321531 
L 386.866872 -206.423566 
L 383.401977 -206.650919 
L 379.937082 -204.216225 
L 376.472188 -204.297803 
L 373.007293 -205.058725 
L 369.542398 -205.205435 
L 366.077503 -201.776145 
L 362.612609 -201.695477 
L 359.147714 -201.824233 
L 355.682819 -203.045946 
L 352.217924 -202.665697 
L 348.75303 -203.777628 
L 345.288135 -204.25871 
L 341.82324 -206.318171 
L 338.358345 -204.120685 
L 334.893451 -203.798786 
L 331.428556 -203.764584 
L 327.963661 -203.263247 
L 324.498766 -203.095258 
L 321.033872 -200.642788 
L 317.568977 -198.502595 
L 314.104082 -198.438075 
L 310.639187 -202.297066 
L 307.174293 -201.407853 
L 303.709398 -203.749776 
L 300.244503 -201.612527 
L 296.779609 -203.271744 
L 293.314714 -207.294444 
L 289.849819 -205.367412 
L 286.384924 -202.958118 
L 282.92003 -202.055427 
L 279.455135 -197.424561 
L 275.99024 -203.250186 
L 272.525345 -203.419913 
L 269.060451 -203.194922 
L 265.595556 -206.310884 
L 262.130661 -207.830644 
L 258.665766 -208.427819 
L 255.200872 -206.423992 
L 251.735977 -209.539228 
L 248.271082 -211.748007 
L 244.806187 -213.462411 
L 241.341293 -210.894401 
L 237.876398 -204.954879 
L 234.411503 -213.439399 
L 230.946609 -219.314473 
L 227.481714 -218.315217 
L 224.016819 -213.830904 
L 220.551924 -212.123582 
L 217.08703 -218.81513 
L 213.622135 -213.072233 
L 210.15724 -217.764895 
L 206.692345 -219.023482 
L 203.227451 -218.020817 
L 199.762556 -220.778875 
L 196.297661 -217.977585 
L 192.832766 -206.577495 
L 189.367872 -198.58483 
L 185.902977 -200.555714 
L 182.438082 -199.759542 
L 178.973187 -200.879998 
L 175.508293 -201.526834 
L 172.043398 -199.952409 
L 168.578503 -203.079358 
L 165.113609 -203.917023 
L 161.648714 -203.088625 
L 158.183819 -203.447492 
L 154.718924 -203.40613 
L 151.25403 -201.594595 
L 147.789135 -200.19347 
L 144.32424 -198.492586 
L 140.859345 -199.995933 
L 137.394451 -201.884644 
L 133.929556 -198.295086 
L 130.464661 -202.087404 
L 126.999766 -198.943962 
L 123.534872 -199.499019 
L 120.069977 -200.410128 
L 116.605082 -200.963156 
L 113.140187 -198.953465 
L 109.675293 -197.719173 
L 106.210398 -199.228582 
L 102.745503 -200.046877 
L 99.280609 -198.345381 
L 95.815714 -199.231946 
L 92.350819 -199.088938 
L 88.885924 -198.685119 
L 85.42103 -198.23665 
L 81.956135 -197.964862 
L 78.49124 -199.543641 
L 75.026345 -199.190394 
L 71.561451 -196.205643 
L 68.096556 -197.255677 
L 64.631661 -199.182183 
L 61.166766 -201.43355 
L 57.701872 -200.187517 
L 54.236977 -198.539962 
L 50.772082 -198.30087 
L 47.307188 -198.10821 
z
" style="stroke: #d3d3d3; stroke-opacity: 0.5"/>
    </defs>
    <g clip-path="url(#p97b1a1bc24)">
     <use xlink:href="#m8308050dba" x="0" y="424.5775" style="fill: #d3d3d3; fill-opacity: 0.5; stroke: #d3d3d3; stroke-opacity: 0.5"/>
    </g>
   </g>
   <g id="FillBetweenPolyCollection_2">
    <defs>
     <path id="m4df9e9e5d6" d="M 47.307188 -152.608825 
L 47.307188 -61.610053 
L 50.772082 -59.534105 
L 54.236977 -58.404114 
L 57.701872 -59.350032 
L 61.166766 -57.956586 
L 64.631661 -58.8952 
L 68.096556 -59.713118 
L 71.561451 -60.126506 
L 75.026345 -60.506746 
L 78.49124 -60.072179 
L 81.956135 -59.46838 
L 85.42103 -58.940761 
L 88.885924 -58.930211 
L 92.350819 -59.730936 
L 95.815714 -59.762446 
L 99.280609 -59.865829 
L 102.745503 -59.501453 
L 106.210398 -60.295848 
L 109.675293 -60.655045 
L 113.140187 -60.412822 
L 116.605082 -60.604636 
L 120.069977 -61.708145 
L 123.534872 -61.026555 
L 126.999766 -60.438664 
L 130.464661 -59.929028 
L 133.929556 -59.223005 
L 137.394451 -58.963825 
L 140.859345 -58.065844 
L 144.32424 -59.064201 
L 147.789135 -58.347713 
L 151.25403 -59.3138 
L 154.718924 -58.879263 
L 158.183819 -57.886693 
L 161.648714 -58.454743 
L 165.113609 -58.02174 
L 168.578503 -56.848416 
L 172.043398 -58.252214 
L 175.508293 -57.722874 
L 178.973187 -59.109199 
L 182.438082 -59.310936 
L 185.902977 -60.005599 
L 189.367872 -60.091647 
L 192.832766 -58.715447 
L 196.297661 -60.447743 
L 199.762556 -63.714223 
L 203.227451 -63.487255 
L 206.692345 -62.443916 
L 210.15724 -62.559352 
L 213.622135 -63.428269 
L 217.08703 -62.607215 
L 220.551924 -62.564927 
L 224.016819 -62.572544 
L 227.481714 -60.954039 
L 230.946609 -62.555118 
L 234.411503 -62.298296 
L 237.876398 -65.594808 
L 241.341293 -65.37203 
L 244.806187 -62.836934 
L 248.271082 -62.062493 
L 251.735977 -62.074335 
L 255.200872 -61.622531 
L 258.665766 -60.94501 
L 262.130661 -59.27849 
L 265.595556 -60.66551 
L 269.060451 -60.595664 
L 272.525345 -59.82464 
L 275.99024 -59.250251 
L 279.455135 -61.078065 
L 282.92003 -58.329397 
L 286.384924 -57.64584 
L 289.849819 -58.578476 
L 293.314714 -57.676986 
L 296.779609 -57.866376 
L 300.244503 -57.570014 
L 303.709398 -56.781492 
L 307.174293 -58.431769 
L 310.639187 -58.299723 
L 314.104082 -59.356119 
L 317.568977 -60.029458 
L 321.033872 -61.201862 
L 324.498766 -63.176959 
L 327.963661 -62.978896 
L 331.428556 -61.342846 
L 334.893451 -61.354903 
L 338.358345 -60.997296 
L 341.82324 -60.581528 
L 345.288135 -61.267704 
L 348.75303 -60.748771 
L 352.217924 -61.303751 
L 355.682819 -61.447089 
L 359.147714 -60.963075 
L 362.612609 -60.986571 
L 366.077503 -60.682115 
L 369.542398 -59.683706 
L 373.007293 -58.90253 
L 376.472188 -59.857804 
L 379.937082 -60.473074 
L 383.401977 -61.343593 
L 386.866872 -61.010778 
L 390.331766 -60.489019 
L 393.796661 -62.199279 
L 397.261556 -64.760066 
L 400.726451 -66.249481 
L 404.191345 -67.80117 
L 407.65624 -66.524891 
L 411.121135 -67.872136 
L 414.58603 -68.314782 
L 418.050924 -68.506086 
L 421.515819 -68.772438 
L 424.980714 -67.723698 
L 428.445609 -69.192663 
L 431.910503 -67.738359 
L 435.375398 -67.129199 
L 438.840293 -65.502194 
L 442.305187 -66.443205 
L 445.770082 -66.956216 
L 449.234977 -68.602793 
L 452.699872 -67.222979 
L 456.164766 -68.128989 
L 459.629661 -67.676535 
L 463.094556 -65.021088 
L 466.559451 -62.92036 
L 470.024345 -63.742447 
L 473.48924 -63.309669 
L 476.954135 -62.294006 
L 480.41903 -62.604923 
L 483.883924 -63.559023 
L 487.348819 -63.537916 
L 490.813714 -64.073166 
L 494.278609 -64.567992 
L 497.743503 -63.081426 
L 501.208398 -63.39607 
L 504.673293 -63.731347 
L 508.138188 -64.412472 
L 511.603082 -64.538701 
L 515.067977 -64.231128 
L 518.532872 -61.532459 
L 521.997766 -62.58837 
L 525.462661 -63.029853 
L 528.927556 -62.634624 
L 532.392451 -62.553686 
L 535.857345 -62.848749 
L 539.32224 -63.111473 
L 542.787135 -62.467802 
L 546.25203 -63.682136 
L 549.716924 -63.96322 
L 553.181819 -64.261186 
L 556.646714 -63.166175 
L 560.111609 -62.266688 
L 563.576503 -61.921408 
L 567.041398 -61.544907 
L 570.506293 -62.034521 
L 573.971188 -62.623085 
L 577.436082 -63.283658 
L 580.900977 -62.103844 
L 584.365872 -62.258636 
L 587.830766 -65.037756 
L 591.295661 -68.713092 
L 594.760556 -72.236845 
L 598.225451 -72.229886 
L 601.690345 -72.912874 
L 605.15524 -71.768163 
L 608.620135 -69.645712 
L 612.08503 -72.72993 
L 615.549924 -73.536256 
L 619.014819 -74.508857 
L 622.479714 -73.701567 
L 625.944609 -74.411821 
L 629.409503 -72.323151 
L 632.874398 -70.90862 
L 636.339293 -71.105483 
L 639.804188 -70.563339 
L 643.269082 -69.143645 
L 646.733977 -69.316772 
L 650.198872 -68.341743 
L 653.663766 -67.592023 
L 657.128661 -67.453023 
L 660.593556 -67.102344 
L 664.058451 -65.975693 
L 667.523345 -67.381645 
L 670.98824 -65.81823 
L 674.453135 -65.37004 
L 677.91803 -63.660174 
L 681.382924 -63.109669 
L 684.847819 -63.807243 
L 688.312714 -62.748109 
L 691.777609 -60.962418 
L 695.242503 -62.385408 
L 698.707398 -62.267996 
L 702.172293 -62.839548 
L 705.637188 -121.530681 
L 705.637188 -161.472686 
L 705.637188 -161.472686 
L 702.172293 -157.876639 
L 698.707398 -157.017554 
L 695.242503 -154.422794 
L 691.777609 -153.209089 
L 688.312714 -150.980169 
L 684.847819 -156.358508 
L 681.382924 -160.103681 
L 677.91803 -155.919479 
L 674.453135 -160.885934 
L 670.98824 -159.274983 
L 667.523345 -161.894233 
L 664.058451 -163.833268 
L 660.593556 -165.969785 
L 657.128661 -169.284771 
L 653.663766 -172.652377 
L 650.198872 -171.900241 
L 646.733977 -171.581146 
L 643.269082 -173.746002 
L 639.804188 -177.893112 
L 636.339293 -178.938387 
L 632.874398 -176.959553 
L 629.409503 -173.3741 
L 625.944609 -171.015503 
L 622.479714 -168.794539 
L 619.014819 -166.990387 
L 615.549924 -168.542108 
L 612.08503 -171.135926 
L 608.620135 -176.699301 
L 605.15524 -169.149327 
L 601.690345 -167.27755 
L 598.225451 -164.114331 
L 594.760556 -168.077534 
L 591.295661 -167.223491 
L 587.830766 -159.477564 
L 584.365872 -155.443569 
L 580.900977 -153.478956 
L 577.436082 -154.254774 
L 573.971188 -154.1376 
L 570.506293 -153.453374 
L 567.041398 -152.750995 
L 563.576503 -153.282133 
L 560.111609 -154.023642 
L 556.646714 -155.721585 
L 553.181819 -155.660658 
L 549.716924 -156.376902 
L 546.25203 -156.151529 
L 542.787135 -157.150863 
L 539.32224 -157.300507 
L 535.857345 -158.607864 
L 532.392451 -157.644056 
L 528.927556 -156.829267 
L 525.462661 -155.884359 
L 521.997766 -156.497358 
L 518.532872 -157.900511 
L 515.067977 -158.905734 
L 511.603082 -156.513045 
L 508.138188 -152.259178 
L 504.673293 -152.406407 
L 501.208398 -153.128454 
L 497.743503 -154.122886 
L 494.278609 -152.367539 
L 490.813714 -153.614449 
L 487.348819 -156.337049 
L 483.883924 -156.356296 
L 480.41903 -155.340692 
L 476.954135 -151.330876 
L 473.48924 -152.797558 
L 470.024345 -157.93065 
L 466.559451 -153.786484 
L 463.094556 -156.812615 
L 459.629661 -158.610915 
L 456.164766 -161.154916 
L 452.699872 -160.153497 
L 449.234977 -159.595808 
L 445.770082 -161.897712 
L 442.305187 -164.400035 
L 438.840293 -162.844331 
L 435.375398 -162.020622 
L 431.910503 -162.579975 
L 428.445609 -165.500922 
L 424.980714 -164.439145 
L 421.515819 -170.026189 
L 418.050924 -172.216483 
L 414.58603 -167.60156 
L 411.121135 -166.800507 
L 407.65624 -164.868158 
L 404.191345 -165.806512 
L 400.726451 -166.411791 
L 397.261556 -169.570485 
L 393.796661 -171.235976 
L 390.331766 -160.37736 
L 386.866872 -157.952637 
L 383.401977 -158.215144 
L 379.937082 -156.301842 
L 376.472188 -156.151137 
L 373.007293 -156.339993 
L 369.542398 -156.698192 
L 366.077503 -154.744801 
L 362.612609 -154.792508 
L 359.147714 -154.870514 
L 355.682819 -155.846327 
L 352.217924 -155.545048 
L 348.75303 -156.101342 
L 345.288135 -156.595041 
L 341.82324 -157.73929 
L 338.358345 -156.412888 
L 334.893451 -156.317492 
L 331.428556 -156.290672 
L 327.963661 -156.501797 
L 324.498766 -156.455825 
L 321.033872 -154.162479 
L 317.568977 -152.344883 
L 314.104082 -152.077423 
L 310.639187 -154.297952 
L 307.174293 -153.749158 
L 303.709398 -154.760348 
L 300.244503 -153.598356 
L 296.779609 -154.803288 
L 293.314714 -157.421958 
L 289.849819 -156.437767 
L 286.384924 -154.520692 
L 282.92003 -154.146751 
L 279.455135 -151.975729 
L 275.99024 -155.250208 
L 272.525345 -155.554822 
L 269.060451 -155.661836 
L 265.595556 -157.762426 
L 262.130661 -158.313259 
L 258.665766 -159.266883 
L 255.200872 -158.156838 
L 251.735977 -160.384264 
L 248.271082 -161.852836 
L 244.806187 -163.253918 
L 241.341293 -162.386944 
L 237.876398 -158.501522 
L 234.411503 -163.059031 
L 230.946609 -167.061355 
L 227.481714 -165.861491 
L 224.016819 -163.41145 
L 220.551924 -162.270697 
L 217.08703 -166.745825 
L 213.622135 -163.190912 
L 210.15724 -166.029714 
L 206.692345 -166.830293 
L 203.227451 -166.50963 
L 199.762556 -168.423991 
L 196.297661 -165.467638 
L 192.832766 -157.290146 
L 189.367872 -152.420436 
L 185.902977 -153.705676 
L 182.438082 -152.94334 
L 178.973187 -153.623065 
L 175.508293 -153.592181 
L 172.043398 -152.719011 
L 168.578503 -154.335711 
L 165.113609 -155.285262 
L 161.648714 -154.877331 
L 158.183819 -154.927226 
L 154.718924 -155.230508 
L 151.25403 -154.167663 
L 147.789135 -152.911551 
L 144.32424 -152.016457 
L 140.859345 -152.685904 
L 137.394451 -154.244371 
L 133.929556 -151.937726 
L 130.464661 -154.701279 
L 126.999766 -152.775529 
L 123.534872 -153.341531 
L 120.069977 -154.176134 
L 116.605082 -154.176983 
L 113.140187 -152.773251 
L 109.675293 -152.031131 
L 106.210398 -152.91767 
L 102.745503 -153.198402 
L 99.280609 -152.18553 
L 95.815714 -152.742112 
L 92.350819 -152.636271 
L 88.885924 -152.10015 
L 85.42103 -151.804687 
L 81.956135 -151.799368 
L 78.49124 -153.053154 
L 75.026345 -152.962511 
L 71.561451 -150.845931 
L 68.096556 -151.408157 
L 64.631661 -152.419855 
L 61.166766 -153.607895 
L 57.701872 -153.241688 
L 54.236977 -151.828013 
L 50.772082 -152.045282 
L 47.307188 -152.608825 
z
" style="stroke: #808080; stroke-opacity: 0.7"/>
    </defs>
    <g clip-path="url(#p97b1a1bc24)">
     <use xlink:href="#m4df9e9e5d6" x="0" y="424.5775" style="fill: #808080; fill-opacity: 0.7; stroke: #808080; stroke-opacity: 0.7"/>
    </g>
   </g>
   <g id="line2d_31">
    <path d="M 47.307188 312.0593 
L 50.772082 339.349528 
L 54.236977 294.544892 
L 57.701872 301.821692 
L 61.166766 303.965575 
L 64.631661 288.806759 
L 68.096556 254.594887 
L 71.561451 271.774815 
L 75.026345 252.736321 
L 78.49124 266.034976 
L 81.956135 253.836771 
L 85.42103 251.914919 
L 88.885924 191.342089 
L 92.350819 174.424544 
L 95.815714 219.545563 
L 99.280609 262.809526 
L 102.745503 243.075789 
L 106.210398 321.440108 
L 109.675293 280.682254 
L 113.140187 253.600909 
L 116.605082 261.881911 
L 120.069977 267.829759 
L 123.534872 225.012895 
L 126.999766 243.120967 
L 130.464661 246.509561 
L 133.929556 261.04545 
L 137.394451 254.436648 
L 140.859345 251.825816 
L 144.32424 255.649712 
L 147.789135 247.631534 
L 151.25403 221.359401 
L 154.718924 232.097976 
L 158.183819 238.072572 
L 161.648714 271.872052 
L 165.113609 247.032537 
L 168.578503 231.15802 
L 172.043398 241.4991 
L 175.508293 266.62703 
L 178.973187 259.462352 
L 182.438082 256.840933 
L 185.902977 237.052074 
L 189.367872 228.645631 
L 192.832766 283.487239 
L 196.297661 275.640829 
L 199.762556 280.436314 
L 203.227451 258.967958 
L 206.692345 287.780892 
L 210.15724 303.79148 
L 213.622135 301.571475 
L 217.08703 315.878131 
L 220.551924 307.314564 
L 224.016819 310.000807 
L 227.481714 309.63231 
L 230.946609 300.802271 
L 234.411503 302.631599 
L 237.876398 303.511004 
L 241.341293 317.545248 
L 244.806187 303.803871 
L 248.271082 339.696492 
L 251.735977 300.649153 
L 255.200872 320.084731 
L 258.665766 299.218812 
L 262.130661 293.223164 
L 265.595556 296.317579 
L 269.060451 309.56561 
L 272.525345 303.950266 
L 275.99024 309.538598 
L 279.455135 323.957318 
L 282.92003 309.040048 
L 286.384924 310.855844 
L 289.849819 323.987868 
L 293.314714 313.854553 
L 296.779609 305.324864 
L 300.244503 261.548936 
L 303.709398 266.980254 
L 307.174293 282.540291 
L 310.639187 300.843885 
L 314.104082 291.538062 
L 317.568977 250.613256 
L 321.033872 276.527004 
L 324.498766 282.65616 
L 327.963661 279.276658 
L 331.428556 274.460359 
L 334.893451 261.741635 
L 338.358345 286.571187 
L 341.82324 252.238941 
L 345.288135 250.23012 
L 348.75303 237.581822 
L 352.217924 265.257292 
L 355.682819 263.094183 
L 359.147714 217.805473 
L 362.612609 267.972116 
L 366.077503 274.046749 
L 369.542398 265.330877 
L 373.007293 289.397375 
L 376.472188 277.919743 
L 379.937082 274.489662 
L 383.401977 286.205453 
L 386.866872 289.881182 
L 390.331766 302.7442 
L 393.796661 288.578366 
L 397.261556 240.40755 
L 400.726451 266.031007 
L 404.191345 273.684633 
L 407.65624 289.090839 
L 411.121135 280.542707 
L 414.58603 287.426115 
L 421.515819 300.57379 
L 424.980714 315.327324 
L 428.445609 282.629707 
L 431.910503 271.081445 
L 435.375398 281.614509 
L 438.840293 298.913512 
L 442.305187 272.295659 
L 445.770082 289.221572 
L 449.234977 275.7739 
L 452.699872 281.680977 
L 456.164766 254.328313 
L 459.629661 287.012537 
L 466.559451 324.623412 
L 470.024345 295.862729 
L 473.48924 283.784205 
L 476.954135 297.1375 
L 480.41903 297.189193 
L 483.883924 267.944377 
L 487.348819 311.519666 
L 490.813714 309.7292 
L 494.278609 321.759707 
L 497.743503 349.127801 
L 501.208398 341.928192 
L 504.673293 322.607142 
L 508.138188 309.352517 
L 511.603082 304.467544 
L 515.067977 303.472423 
L 518.532872 263.447453 
L 521.997766 234.576791 
L 525.462661 238.57151 
L 528.927556 239.814734 
L 532.392451 264.14305 
L 535.857345 283.3509 
L 539.32224 293.649864 
L 542.787135 254.067439 
L 546.25203 268.753164 
L 549.716924 280.614421 
L 553.181819 283.679214 
L 556.646714 265.766062 
L 560.111609 233.032942 
L 563.576503 280.420135 
L 567.041398 282.239738 
L 570.506293 283.860835 
L 573.971188 302.232089 
L 577.436082 302.286725 
L 580.900977 291.937096 
L 584.365872 246.831946 
L 587.830766 266.00358 
L 591.295661 240.497679 
L 594.760556 261.665398 
L 598.225451 293.220573 
L 601.690345 293.458838 
L 605.15524 272.119829 
L 608.620135 199.665699 
L 612.08503 263.628221 
L 615.549924 246.044386 
L 619.014819 269.079187 
L 622.479714 279.496761 
L 625.944609 269.606781 
L 632.874398 288.374587 
L 636.339293 290.584759 
L 639.804188 257.538096 
L 643.269082 264.844003 
L 646.733977 269.230418 
L 650.198872 218.328846 
L 653.663766 257.030658 
L 657.128661 259.690309 
L 660.593556 286.927745 
L 664.058451 264.636163 
L 667.523345 269.396559 
L 670.98824 254.780796 
L 674.453135 245.197909 
L 677.91803 265.984513 
L 681.382924 251.832883 
L 684.847819 256.016882 
L 688.312714 248.540394 
L 691.777609 248.810635 
L 695.242503 269.322962 
L 698.707398 273.054856 
L 702.172293 216.465693 
L 705.637188 215.142779 
L 705.637188 215.142779 
" clip-path="url(#p97b1a1bc24)" style="fill: none; stroke: #ff8c00; stroke-width: 2.3; stroke-linecap: square"/>
   </g>
   <g id="line2d_32">
    <path d="M 282.92003 384.117812 
L 282.92003 23.837812 
" clip-path="url(#p97b1a1bc24)" style="fill: none; stroke-dasharray: 5.55,2.4; stroke-dashoffset: 0; stroke: #808080; stroke-width: 1.5"/>
   </g>
   <g id="line2d_33">
    <path d="M 483.883924 384.117812 
L 483.883924 23.837812 
" clip-path="url(#p97b1a1bc24)" style="fill: none; stroke-dasharray: 5.55,2.4; stroke-dashoffset: 0; stroke: #808080; stroke-width: 1.5"/>
   </g>
   <g id="patch_3">
    <path d="M 47.307188 384.117812 
L 47.307188 23.837812 
" style="fill: none; stroke: #000000; stroke-width: 0.8; stroke-linejoin: miter; stroke-linecap: square"/>
   </g>
   <g id="patch_4">
    <path d="M 705.637188 384.117812 
L 705.637188 23.837812 
" style="fill: none; stroke: #000000; stroke-width: 0.8; stroke-linejoin: miter; stroke-linecap: square"/>
   </g>
   <g id="patch_5">
    <path d="M 47.307188 384.117812 
L 705.637188 384.117812 
" style="fill: none; stroke: #000000; stroke-width: 0.8; stroke-linejoin: miter; stroke-linecap: square"/>
   </g>
   <g id="patch_6">
    <path d="M 47.307188 23.837812 
L 705.637188 23.837812 
" style="fill: none; stroke: #000000; stroke-width: 0.8; stroke-linejoin: miter; stroke-linecap: square"/>
   </g>
   <g id="text_18">
    <!-- Facial trace: Autism spectrum condition (ASC) -->
    <g transform="translate(215.768594 17.837812) scale(0.14 -0.14)">
     <defs>
      <path id="DejaVuSans-46" d="M 628 4666 
L 3309 4666 
L 3309 4134 
L 1259 4134 
L 1259 2759 
L 3109 2759 
L 3109 2228 
L 1259 2228 
L 1259 0 
L 628 0 
L 628 4666 
z
" transform="scale(0.015625)"/>
      <path id="DejaVuSans-63" d="M 3122 3366 
L 3122 2828 
Q 2878 2963 2633 3030 
Q 2388 3097 2138 3097 
Q 1578 3097 1268 2742 
Q 959 2388 959 1747 
Q 959 1106 1268 751 
Q 1578 397 2138 397 
Q 2388 397 2633 464 
Q 2878 531 3122 666 
L 3122 134 
Q 2881 22 2623 -34 
Q 2366 -91 2075 -91 
Q 1284 -91 818 406 
Q 353 903 353 1747 
Q 353 2603 823 3093 
Q 1294 3584 2113 3584 
Q 2378 3584 2631 3529 
Q 2884 3475 3122 3366 
z
" transform="scale(0.015625)"/>
      <path id="DejaVuSans-6c" d="M 603 4863 
L 1178 4863 
L 1178 0 
L 603 0 
L 603 4863 
z
" transform="scale(0.015625)"/>
      <path id="DejaVuSans-72" d="M 2631 2963 
Q 2534 3019 2420 3045 
Q 2306 3072 2169 3072 
Q 1681 3072 1420 2755 
Q 1159 2438 1159 1844 
L 1159 0 
L 581 0 
L 581 3500 
L 1159 3500 
L 1159 2956 
Q 1341 3275 1631 3429 
Q 1922 3584 2338 3584 
Q 2397 3584 2469 3576 
Q 2541 3569 2628 3553 
L 2631 2963 
z
" transform="scale(0.015625)"/>
      <path id="DejaVuSans-3a" d="M 750 794 
L 1409 794 
L 1409 0 
L 750 0 
L 750 794 
z
M 750 3309 
L 1409 3309 
L 1409 2516 
L 750 2516 
L 750 3309 
z
" transform="scale(0.015625)"/>
      <path id="DejaVuSans-75" d="M 544 1381 
L 544 3500 
L 1119 3500 
L 1119 1403 
Q 1119 906 1312 657 
Q 1506 409 1894 409 
Q 2359 409 2629 706 
Q 2900 1003 2900 1516 
L 2900 3500 
L 3475 3500 
L 3475 0 
L 2900 0 
L 2900 538 
Q 2691 219 2414 64 
Q 2138 -91 1772 -91 
Q 1169 -91 856 284 
Q 544 659 544 1381 
z
M 1991 3584 
L 1991 3584 
z
" transform="scale(0.015625)"/>
      <path id="DejaVuSans-70" d="M 1159 525 
L 1159 -1331 
L 581 -1331 
L 581 3500 
L 1159 3500 
L 1159 2969 
Q 1341 3281 1617 3432 
Q 1894 3584 2278 3584 
Q 2916 3584 3314 3078 
Q 3713 2572 3713 1747 
Q 3713 922 3314 415 
Q 2916 -91 2278 -91 
Q 1894 -91 1617 61 
Q 1341 213 1159 525 
z
M 3116 1747 
Q 3116 2381 2855 2742 
Q 2594 3103 2138 3103 
Q 1681 3103 1420 2742 
Q 1159 2381 1159 1747 
Q 1159 1113 1420 752 
Q 1681 391 2138 391 
Q 2594 391 2855 752 
Q 3116 1113 3116 1747 
z
" transform="scale(0.015625)"/>
      <path id="DejaVuSans-6f" d="M 1959 3097 
Q 1497 3097 1228 2736 
Q 959 2375 959 1747 
Q 959 1119 1226 758 
Q 1494 397 1959 397 
Q 2419 397 2687 759 
Q 2956 1122 2956 1747 
Q 2956 2369 2687 2733 
Q 2419 3097 1959 3097 
z
M 1959 3584 
Q 2709 3584 3137 3096 
Q 3566 2609 3566 1747 
Q 3566 888 3137 398 
Q 2709 -91 1959 -91 
Q 1206 -91 779 398 
Q 353 888 353 1747 
Q 353 2609 779 3096 
Q 1206 3584 1959 3584 
z
" transform="scale(0.015625)"/>
      <path id="DejaVuSans-64" d="M 2906 2969 
L 2906 4863 
L 3481 4863 
L 3481 0 
L 2906 0 
L 2906 525 
Q 2725 213 2448 61 
Q 2172 -91 1784 -91 
Q 1150 -91 751 415 
Q 353 922 353 1747 
Q 353 2572 751 3078 
Q 1150 3584 1784 3584 
Q 2172 3584 2448 3432 
Q 2725 3281 2906 2969 
z
M 947 1747 
Q 947 1113 1208 752 
Q 1469 391 1925 391 
Q 2381 391 2643 752 
Q 2906 1113 2906 1747 
Q 2906 2381 2643 2742 
Q 2381 3103 1925 3103 
Q 1469 3103 1208 2742 
Q 947 2381 947 1747 
z
" transform="scale(0.015625)"/>
      <path id="DejaVuSans-53" d="M 3425 4513 
L 3425 3897 
Q 3066 4069 2747 4153 
Q 2428 4238 2131 4238 
Q 1616 4238 1336 4038 
Q 1056 3838 1056 3469 
Q 1056 3159 1242 3001 
Q 1428 2844 1947 2747 
L 2328 2669 
Q 3034 2534 3370 2195 
Q 3706 1856 3706 1288 
Q 3706 609 3251 259 
Q 2797 -91 1919 -91 
Q 1588 -91 1214 -16 
Q 841 59 441 206 
L 441 856 
Q 825 641 1194 531 
Q 1563 422 1919 422 
Q 2459 422 2753 634 
Q 3047 847 3047 1241 
Q 3047 1584 2836 1778 
Q 2625 1972 2144 2069 
L 1759 2144 
Q 1053 2284 737 2584 
Q 422 2884 422 3419 
Q 422 4038 858 4394 
Q 1294 4750 2059 4750 
Q 2388 4750 2728 4690 
Q 3069 4631 3425 4513 
z
" transform="scale(0.015625)"/>
      <path id="DejaVuSans-43" d="M 4122 4306 
L 4122 3641 
Q 3803 3938 3442 4084 
Q 3081 4231 2675 4231 
Q 1875 4231 1450 3742 
Q 1025 3253 1025 2328 
Q 1025 1406 1450 917 
Q 1875 428 2675 428 
Q 3081 428 3442 575 
Q 3803 722 4122 1019 
L 4122 359 
Q 3791 134 3420 21 
Q 3050 -91 2638 -91 
Q 1578 -91 968 557 
Q 359 1206 359 2328 
Q 359 3453 968 4101 
Q 1578 4750 2638 4750 
Q 3056 4750 3426 4639 
Q 3797 4528 4122 4306 
z
" transform="scale(0.015625)"/>
     </defs>
     <use xlink:href="#DejaVuSans-46"/>
     <use xlink:href="#DejaVuSans-61" transform="translate(48.394531 0)"/>
     <use xlink:href="#DejaVuSans-63" transform="translate(109.673828 0)"/>
     <use xlink:href="#DejaVuSans-69" transform="translate(164.654297 0)"/>
     <use xlink:href="#DejaVuSans-61" transform="translate(192.4375 0)"/>
     <use xlink:href="#DejaVuSans-6c" transform="translate(253.716797 0)"/>
     <use xlink:href="#DejaVuSans-20" transform="translate(281.5 0)"/>
     <use xlink:href="#DejaVuSans-74" transform="translate(313.287109 0)"/>
     <use xlink:href="#DejaVuSans-72" transform="translate(352.496094 0)"/>
     <use xlink:href="#DejaVuSans-61" transform="translate(393.609375 0)"/>
     <use xlink:href="#DejaVuSans-63" transform="translate(454.888672 0)"/>
     <use xlink:href="#DejaVuSans-65" transform="translate(509.869141 0)"/>
     <use xlink:href="#DejaVuSans-3a" transform="translate(571.392578 0)"/>
     <use xlink:href="#DejaVuSans-20" transform="translate(605.083984 0)"/>
     <use xlink:href="#DejaVuSans-41" transform="translate(636.871094 0)"/>
     <use xlink:href="#DejaVuSans-75" transform="translate(705.279297 0)"/>
     <use xlink:href="#DejaVuSans-74" transform="translate(768.658203 0)"/>
     <use xlink:href="#DejaVuSans-69" transform="translate(807.867188 0)"/>
     <use xlink:href="#DejaVuSans-73" transform="translate(835.650391 0)"/>
     <use xlink:href="#DejaVuSans-6d" transform="translate(887.75 0)"/>
     <use xlink:href="#DejaVuSans-20" transform="translate(985.162109 0)"/>
     <use xlink:href="#DejaVuSans-73" transform="translate(1016.949219 0)"/>
     <use xlink:href="#DejaVuSans-70" transform="translate(1069.048828 0)"/>
     <use xlink:href="#DejaVuSans-65" transform="translate(1132.525391 0)"/>
     <use xlink:href="#DejaVuSans-63" transform="translate(1194.048828 0)"/>
     <use xlink:href="#DejaVuSans-74" transform="translate(1249.029297 0)"/>
     <use xlink:href="#DejaVuSans-72" transform="translate(1288.238281 0)"/>
     <use xlink:href="#DejaVuSans-75" transform="translate(1329.351562 0)"/>
     <use xlink:href="#DejaVuSans-6d" transform="translate(1392.730469 0)"/>
     <use xlink:href="#DejaVuSans-20" transform="translate(1490.142578 0)"/>
     <use xlink:href="#DejaVuSans-63" transform="translate(1521.929688 0)"/>
     <use xlink:href="#DejaVuSans-6f" transform="translate(1576.910156 0)"/>
     <use xlink:href="#DejaVuSans-6e" transform="translate(1638.091797 0)"/>
     <use xlink:href="#DejaVuSans-64" transform="translate(1701.470703 0)"/>
     <use xlink:href="#DejaVuSans-69" transform="translate(1764.947266 0)"/>
     <use xlink:href="#DejaVuSans-74" transform="translate(1792.730469 0)"/>
     <use xlink:href="#DejaVuSans-69" transform="translate(1831.939453 0)"/>
     <use xlink:href="#DejaVuSans-6f" transform="translate(1859.722656 0)"/>
     <use xlink:href="#DejaVuSans-6e" transform="translate(1920.904297 0)"/>
     <use xlink:href="#DejaVuSans-20" transform="translate(1984.283203 0)"/>
     <use xlink:href="#DejaVuSans-28" transform="translate(2016.070312 0)"/>
     <use xlink:href="#DejaVuSans-41" transform="translate(2055.083984 0)"/>
     <use xlink:href="#DejaVuSans-53" transform="translate(2123.492188 0)"/>
     <use xlink:href="#DejaVuSans-43" transform="translate(2186.96875 0)"/>
     <use xlink:href="#DejaVuSans-29" transform="translate(2256.792969 0)"/>
    </g>
   </g>
   <g id="legend_1">
    <g id="patch_7">
     <path d="M 443.795938 42.096094 
L 465.795938 42.096094 
L 465.795938 34.396094 
L 443.795938 34.396094 
z
" style="fill: #d3d3d3; fill-opacity: 0.5; stroke: #d3d3d3; stroke-opacity: 0.5; stroke-linejoin: miter"/>
    </g>
    <g id="text_19">
     <!-- Autism spectrum condition (ASC) ±2 SD -->
     <g transform="translate(474.595938 42.096094) scale(0.11 -0.11)">
      <defs>
       <path id="DejaVuSans-b1" d="M 2944 4013 
L 2944 2803 
L 4684 2803 
L 4684 2272 
L 2944 2272 
L 2944 1063 
L 2419 1063 
L 2419 2272 
L 678 2272 
L 678 2803 
L 2419 2803 
L 2419 4013 
L 2944 4013 
z
M 678 531 
L 4684 531 
L 4684 0 
L 678 0 
L 678 531 
z
" transform="scale(0.015625)"/>
       <path id="DejaVuSans-44" d="M 1259 4147 
L 1259 519 
L 2022 519 
Q 2988 519 3436 956 
Q 3884 1394 3884 2338 
Q 3884 3275 3436 3711 
Q 2988 4147 2022 4147 
L 1259 4147 
z
M 628 4666 
L 1925 4666 
Q 3281 4666 3915 4102 
Q 4550 3538 4550 2338 
Q 4550 1131 3912 565 
Q 3275 0 1925 0 
L 628 0 
L 628 4666 
z
" transform="scale(0.015625)"/>
      </defs>
      <use xlink:href="#DejaVuSans-41"/>
      <use xlink:href="#DejaVuSans-75" transform="translate(68.408203 0)"/>
      <use xlink:href="#DejaVuSans-74" transform="translate(131.787109 0)"/>
      <use xlink:href="#DejaVuSans-69" transform="translate(170.996094 0)"/>
      <use xlink:href="#DejaVuSans-73" transform="translate(198.779297 0)"/>
      <use xlink:href="#DejaVuSans-6d" transform="translate(250.878906 0)"/>
      <use xlink:href="#DejaVuSans-20" transform="translate(348.291016 0)"/>
      <use xlink:href="#DejaVuSans-73" transform="translate(380.078125 0)"/>
      <use xlink:href="#DejaVuSans-70" transform="translate(432.177734 0)"/>
      <use xlink:href="#DejaVuSans-65" transform="translate(495.654297 0)"/>
      <use xlink:href="#DejaVuSans-63" transform="translate(557.177734 0)"/>
      <use xlink:href="#DejaVuSans-74" transform="translate(612.158203 0)"/>
      <use xlink:href="#DejaVuSans-72" transform="translate(651.367188 0)"/>
      <use xlink:href="#DejaVuSans-75" transform="translate(692.480469 0)"/>
      <use xlink:href="#DejaVuSans-6d" transform="translate(755.859375 0)"/>
      <use xlink:href="#DejaVuSans-20" transform="translate(853.271484 0)"/>
      <use xlink:href="#DejaVuSans-63" transform="translate(885.058594 0)"/>
      <use xlink:href="#DejaVuSans-6f" transform="translate(940.039062 0)"/>
      <use xlink:href="#DejaVuSans-6e" transform="translate(1001.220703 0)"/>
      <use xlink:href="#DejaVuSans-64" transform="translate(1064.599609 0)"/>
      <use xlink:href="#DejaVuSans-69" transform="translate(1128.076172 0)"/>
      <use xlink:href="#DejaVuSans-74" transform="translate(1155.859375 0)"/>
      <use xlink:href="#DejaVuSans-69" transform="translate(1195.068359 0)"/>
      <use xlink:href="#DejaVuSans-6f" transform="translate(1222.851562 0)"/>
      <use xlink:href="#DejaVuSans-6e" transform="translate(1284.033203 0)"/>
      <use xlink:href="#DejaVuSans-20" transform="translate(1347.412109 0)"/>
      <use xlink:href="#DejaVuSans-28" transform="translate(1379.199219 0)"/>
      <use xlink:href="#DejaVuSans-41" transform="translate(1418.212891 0)"/>
      <use xlink:href="#DejaVuSans-53" transform="translate(1486.621094 0)"/>
      <use xlink:href="#DejaVuSans-43" transform="translate(1550.097656 0)"/>
      <use xlink:href="#DejaVuSans-29" transform="translate(1619.921875 0)"/>
      <use xlink:href="#DejaVuSans-20" transform="translate(1658.935547 0)"/>
      <use xlink:href="#DejaVuSans-b1" transform="translate(1690.722656 0)"/>
      <use xlink:href="#DejaVuSans-32" transform="translate(1774.511719 0)"/>
      <use xlink:href="#DejaVuSans-20" transform="translate(1838.134766 0)"/>
      <use xlink:href="#DejaVuSans-53" transform="translate(1869.921875 0)"/>
      <use xlink:href="#DejaVuSans-44" transform="translate(1933.398438 0)"/>
     </g>
    </g>
    <g id="patch_8">
     <path d="M 443.795938 58.242031 
L 465.795938 58.242031 
L 465.795938 50.542031 
L 443.795938 50.542031 
z
" style="fill: #808080; fill-opacity: 0.7; stroke: #808080; stroke-opacity: 0.7; stroke-linejoin: miter"/>
    </g>
    <g id="text_20">
     <!-- Autism spectrum condition (ASC) ±1 SD -->
     <g transform="translate(474.595938 58.242031) scale(0.11 -0.11)">
      <use xlink:href="#DejaVuSans-41"/>
      <use xlink:href="#DejaVuSans-75" transform="translate(68.408203 0)"/>
      <use xlink:href="#DejaVuSans-74" transform="translate(131.787109 0)"/>
      <use xlink:href="#DejaVuSans-69" transform="translate(170.996094 0)"/>
      <use xlink:href="#DejaVuSans-73" transform="translate(198.779297 0)"/>
      <use xlink:href="#DejaVuSans-6d" transform="translate(250.878906 0)"/>
      <use xlink:href="#DejaVuSans-20" transform="translate(348.291016 0)"/>
      <use xlink:href="#DejaVuSans-73" transform="translate(380.078125 0)"/>
      <use xlink:href="#DejaVuSans-70" transform="translate(432.177734 0)"/>
      <use xlink:href="#DejaVuSans-65" transform="translate(495.654297 0)"/>
      <use xlink:href="#DejaVuSans-63" transform="translate(557.177734 0)"/>
      <use xlink:href="#DejaVuSans-74" transform="translate(612.158203 0)"/>
      <use xlink:href="#DejaVuSans-72" transform="translate(651.367188 0)"/>
      <use xlink:href="#DejaVuSans-75" transform="translate(692.480469 0)"/>
      <use xlink:href="#DejaVuSans-6d" transform="translate(755.859375 0)"/>
      <use xlink:href="#DejaVuSans-20" transform="translate(853.271484 0)"/>
      <use xlink:href="#DejaVuSans-63" transform="translate(885.058594 0)"/>
      <use xlink:href="#DejaVuSans-6f" transform="translate(940.039062 0)"/>
      <use xlink:href="#DejaVuSans-6e" transform="translate(1001.220703 0)"/>
      <use xlink:href="#DejaVuSans-64" transform="translate(1064.599609 0)"/>
      <use xlink:href="#DejaVuSans-69" transform="translate(1128.076172 0)"/>
      <use xlink:href="#DejaVuSans-74" transform="translate(1155.859375 0)"/>
      <use xlink:href="#DejaVuSans-69" transform="translate(1195.068359 0)"/>
      <use xlink:href="#DejaVuSans-6f" transform="translate(1222.851562 0)"/>
      <use xlink:href="#DejaVuSans-6e" transform="translate(1284.033203 0)"/>
      <use xlink:href="#DejaVuSans-20" transform="translate(1347.412109 0)"/>
      <use xlink:href="#DejaVuSans-28" transform="translate(1379.199219 0)"/>
      <use xlink:href="#DejaVuSans-41" transform="translate(1418.212891 0)"/>
      <use xlink:href="#DejaVuSans-53" transform="translate(1486.621094 0)"/>
      <use xlink:href="#DejaVuSans-43" transform="translate(1550.097656 0)"/>
      <use xlink:href="#DejaVuSans-29" transform="translate(1619.921875 0)"/>
      <use xlink:href="#DejaVuSans-20" transform="translate(1658.935547 0)"/>
      <use xlink:href="#DejaVuSans-b1" transform="translate(1690.722656 0)"/>
      <use xlink:href="#DejaVuSans-31" transform="translate(1774.511719 0)"/>
      <use xlink:href="#DejaVuSans-20" transform="translate(1838.134766 0)"/>
      <use xlink:href="#DejaVuSans-53" transform="translate(1869.921875 0)"/>
      <use xlink:href="#DejaVuSans-44" transform="translate(1933.398438 0)"/>
     </g>
    </g>
    <g id="line2d_34">
     <path d="M 443.795938 70.537969 
L 454.795938 70.537969 
L 465.795938 70.537969 
" style="fill: none; stroke: #ff8c00; stroke-width: 2.3; stroke-linecap: square"/>
    </g>
    <g id="text_21">
     <!-- Patient -->
     <g transform="translate(474.595938 74.387969) scale(0.11 -0.11)">
      <defs>
       <path id="DejaVuSans-50" d="M 1259 4147 
L 1259 2394 
L 2053 2394 
Q 2494 2394 2734 2622 
Q 2975 2850 2975 3272 
Q 2975 3691 2734 3919 
Q 2494 4147 2053 4147 
L 1259 4147 
z
M 628 4666 
L 2053 4666 
Q 2838 4666 3239 4311 
Q 3641 3956 3641 3272 
Q 3641 2581 3239 2228 
Q 2838 1875 2053 1875 
L 1259 1875 
L 1259 0 
L 628 0 
L 628 4666 
z
" transform="scale(0.015625)"/>
      </defs>
      <use xlink:href="#DejaVuSans-50"/>
      <use xlink:href="#DejaVuSans-61" transform="translate(55.802734 0)"/>
      <use xlink:href="#DejaVuSans-74" transform="translate(117.082031 0)"/>
      <use xlink:href="#DejaVuSans-69" transform="translate(156.291016 0)"/>
      <use xlink:href="#DejaVuSans-65" transform="translate(184.074219 0)"/>
      <use xlink:href="#DejaVuSans-6e" transform="translate(245.597656 0)"/>
      <use xlink:href="#DejaVuSans-74" transform="translate(308.976562 0)"/>
     </g>
    </g>
   </g>
  </g>
 </g>
 <defs>
  <clipPath id="p97b1a1bc24">
   <rect x="47.307188" y="23.837812" width="658.33" height="360.28"/>
  </clipPath>
 </defs>
</svg>
