<?xml version="1.0" encoding="utf-8" standalone="no"?>
<!DOCTYPE svg PUBLIC "-//W3C//DTD SVG 1.1//EN"
  "http://www.w3.org/Graphics/SVG/1.1/DTD/svg11.dtd">
<svg xmlns:xlink="http://www.w3.org/1999/xlink" width="712.837188pt" height="424.5775pt" viewBox="0 0 712.837188 424.5775" xmlns="http://www.w3.org/2000/svg" version="1.1">
 <metadata>
  <rdf:RDF xmlns:dc="http://purl.org/dc/elements/1.1/" xmlns:cc="http://creativecommons.org/ns#" xmlns:rdf="http://www.w3.org/1999/02/22-rdf-syntax-ns#">
   <cc:Work>
    <dc:type rdf:resource="http://purl.org/dc/dcmitype/StillImage"/>
    <dc:date>2026-06-23T21:37:11.575508</dc:date>
    <dc:format>image/svg+xml</dc:format>
    <dc:creator>
     <cc:Agent>
      <dc:title>Matplotlib v3.10.1, https://matplotlib.org/</dc:title>
     </cc:Agent>
    </dc:creator>
   </cc:Work>
  </rdf:RDF>
 </metadata>
 <defs>
  <style type="text/css">*{stroke-linejoin: round; stroke-linecap: butt}</style>
 </defs>
 <g id="figure_1">
  <g id="patch_1">
   <path d="M 0 424.5775 
L 712.837188 424.5775 
L 712.837188 0 
L 0 0 
z
" style="fill: #ffffff"/>
  </g>
  <g id="axes_1">
   <g id="patch_2">
    <path d="M 47.307188 384.117812 
L 705.637188 384.117812 
L 705.637188 23.837812 
L 47.307188 23.837812 
z
" style="fill: #ffffff"/>
   </g>
   <g id="matplotlib.axis_1">
    <g id="xtick_1">
     <g id="line2d_1">
      <path d="M 47.307188 384.117812 
L 47.307188 23.837812 
" clip-path="url(#p0f34d1f832)" style="fill: none; stroke: #b0b0b0; stroke-opacity: 0.2; stroke-width: 0.6; stroke-linecap: square"/>
     </g>
     <g id="line2d_2">
      <defs>
       <path id="m0549e43211" d="M 0 0 
L 0 3.5 
" style="stroke: #000000; stroke-width: 0.8"/>
      </defs>
      <g>
       <use xlink:href="#m0549e43211" x="47.307188" y="384.117812" style="stroke: #000000; stroke-width: 0.8"/>
      </g>
     </g>
     <g id="text_1">
      <!-- 0 -->
      <g transform="translate(43.807813 399.476094) scale(0.11 -0.11)">
       <defs>
        <path id="DejaVuSans-30" d="M 2034 4250 
Q 1547 4250 1301 3770 
Q 1056 3291 1056 2328 
Q 1056 1369 1301 889 
Q 1547 409 2034 409 
Q 2525 409 2770 889 
Q 3016 1369 3016 2328 
Q 3016 3291 2770 3770 
Q 2525 4250 2034 4250 
z
M 2034 4750 
Q 2819 4750 3233 4129 
Q 3647 3509 3647 2328 
Q 3647 1150 3233 529 
Q 2819 -91 2034 -91 
Q 1250 -91 836 529 
Q 422 1150 422 2328 
Q 422 3509 836 4129 
Q 1250 4750 2034 4750 
z
" transform="scale(0.015625)"/>
       </defs>
       <use xlink:href="#DejaVuSans-30"/>
      </g>
     </g>
    </g>
    <g id="xtick_2">
     <g id="line2d_3">
      <path d="M 133.929556 384.117812 
L 133.929556 23.837812 
" clip-path="url(#p0f34d1f832)" style="fill: none; stroke: #b0b0b0; stroke-opacity: 0.2; stroke-width: 0.6; stroke-linecap: square"/>
     </g>
     <g id="line2d_4">
      <g>
       <use xlink:href="#m0549e43211" x="133.929556" y="384.117812" style="stroke: #000000; stroke-width: 0.8"/>
      </g>
     </g>
     <g id="text_2">
      <!-- 25 -->
      <g transform="translate(126.930806 399.476094) scale(0.11 -0.11)">
       <defs>
        <path id="DejaVuSans-32" d="M 1228 531 
L 3431 531 
L 3431 0 
L 469 0 
L 469 531 
Q 828 903 1448 1529 
Q 2069 2156 2228 2338 
Q 2531 2678 2651 2914 
Q 2772 3150 2772 3378 
Q 2772 3750 2511 3984 
Q 2250 4219 1831 4219 
Q 1534 4219 1204 4116 
Q 875 4013 500 3803 
L 500 4441 
Q 881 4594 1212 4672 
Q 1544 4750 1819 4750 
Q 2544 4750 2975 4387 
Q 3406 4025 3406 3419 
Q 3406 3131 3298 2873 
Q 3191 2616 2906 2266 
Q 2828 2175 2409 1742 
Q 1991 1309 1228 531 
z
" transform="scale(0.015625)"/>
        <path id="DejaVuSans-35" d="M 691 4666 
L 3169 4666 
L 3169 4134 
L 1269 4134 
L 1269 2991 
Q 1406 3038 1543 3061 
Q 1681 3084 1819 3084 
Q 2600 3084 3056 2656 
Q 3513 2228 3513 1497 
Q 3513 744 3044 326 
Q 2575 -91 1722 -91 
Q 1428 -91 1123 -41 
Q 819 9 494 109 
L 494 744 
Q 775 591 1075 516 
Q 1375 441 1709 441 
Q 2250 441 2565 725 
Q 2881 1009 2881 1497 
Q 2881 1984 2565 2268 
Q 2250 2553 1709 2553 
Q 1456 2553 1204 2497 
Q 953 2441 691 2322 
L 691 4666 
z
" transform="scale(0.015625)"/>
       </defs>
       <use xlink:href="#DejaVuSans-32"/>
       <use xlink:href="#DejaVuSans-35" transform="translate(63.623047 0)"/>
      </g>
     </g>
    </g>
    <g id="xtick_3">
     <g id="line2d_5">
      <path d="M 220.551924 384.117812 
L 220.551924 23.837812 
" clip-path="url(#p0f34d1f832)" style="fill: none; stroke: #b0b0b0; stroke-opacity: 0.2; stroke-width: 0.6; stroke-linecap: square"/>
     </g>
     <g id="line2d_6">
      <g>
       <use xlink:href="#m0549e43211" x="220.551924" y="384.117812" style="stroke: #000000; stroke-width: 0.8"/>
      </g>
     </g>
     <g id="text_3">
      <!-- 50 -->
      <g transform="translate(213.553174 399.476094) scale(0.11 -0.11)">
       <use xlink:href="#DejaVuSans-35"/>
       <use xlink:href="#DejaVuSans-30" transform="translate(63.623047 0)"/>
      </g>
     </g>
    </g>
    <g id="xtick_4">
     <g id="line2d_7">
      <path d="M 307.174293 384.117812 
L 307.174293 23.837812 
" clip-path="url(#p0f34d1f832)" style="fill: none; stroke: #b0b0b0; stroke-opacity: 0.2; stroke-width: 0.6; stroke-linecap: square"/>
     </g>
     <g id="line2d_8">
      <g>
       <use xlink:href="#m0549e43211" x="307.174293" y="384.117812" style="stroke: #000000; stroke-width: 0.8"/>
      </g>
     </g>
     <g id="text_4">
      <!-- 75 -->
      <g transform="translate(300.175543 399.476094) scale(0.11 -0.11)">
       <defs>
        <path id="DejaVuSans-37" d="M 525 4666 
L 3525 4666 
L 3525 4397 
L 1831 0 
L 1172 0 
L 2766 4134 
L 525 4134 
L 525 4666 
z
" transform="scale(0.015625)"/>
       </defs>
       <use xlink:href="#DejaVuSans-37"/>
       <use xlink:href="#DejaVuSans-35" transform="translate(63.623047 0)"/>
      </g>
     </g>
    </g>
    <g id="xtick_5">
     <g id="line2d_9">
      <path d="M 393.796661 384.117812 
L 393.796661 23.837812 
" clip-path="url(#p0f34d1f832)" style="fill: none; stroke: #b0b0b0; stroke-opacity: 0.2; stroke-width: 0.6; stroke-linecap: square"/>
     </g>
     <g id="line2d_10">
      <g>
       <use xlink:href="#m0549e43211" x="393.796661" y="384.117812" style="stroke: #000000; stroke-width: 0.8"/>
      </g>
     </g>
     <g id="text_5">
      <!-- 100 -->
      <g transform="translate(383.298536 399.476094) scale(0.11 -0.11)">
       <defs>
        <path id="DejaVuSans-31" d="M 794 531 
L 1825 531 
L 1825 4091 
L 703 3866 
L 703 4441 
L 1819 4666 
L 2450 4666 
L 2450 531 
L 3481 531 
L 3481 0 
L 794 0 
L 794 531 
z
" transform="scale(0.015625)"/>
       </defs>
       <use xlink:href="#DejaVuSans-31"/>
       <use xlink:href="#DejaVuSans-30" transform="translate(63.623047 0)"/>
       <use xlink:href="#DejaVuSans-30" transform="translate(127.246094 0)"/>
      </g>
     </g>
    </g>
    <g id="xtick_6">
     <g id="line2d_11">
      <path d="M 480.41903 384.117812 
L 480.41903 23.837812 
" clip-path="url(#p0f34d1f832)" style="fill: none; stroke: #b0b0b0; stroke-opacity: 0.2; stroke-width: 0.6; stroke-linecap: square"/>
     </g>
     <g id="line2d_12">
      <g>
       <use xlink:href="#m0549e43211" x="480.41903" y="384.117812" style="stroke: #000000; stroke-width: 0.8"/>
      </g>
     </g>
     <g id="text_6">
      <!-- 125 -->
      <g transform="translate(469.920905 399.476094) scale(0.11 -0.11)">
       <use xlink:href="#DejaVuSans-31"/>
       <use xlink:href="#DejaVuSans-32" transform="translate(63.623047 0)"/>
       <use xlink:href="#DejaVuSans-35" transform="translate(127.246094 0)"/>
      </g>
     </g>
    </g>
    <g id="xtick_7">
     <g id="line2d_13">
      <path d="M 567.041398 384.117812 
L 567.041398 23.837812 
" clip-path="url(#p0f34d1f832)" style="fill: none; stroke: #b0b0b0; stroke-opacity: 0.2; stroke-width: 0.6; stroke-linecap: square"/>
     </g>
     <g id="line2d_14">
      <g>
       <use xlink:href="#m0549e43211" x="567.041398" y="384.117812" style="stroke: #000000; stroke-width: 0.8"/>
      </g>
     </g>
     <g id="text_7">
      <!-- 150 -->
      <g transform="translate(556.543273 399.476094) scale(0.11 -0.11)">
       <use xlink:href="#DejaVuSans-31"/>
       <use xlink:href="#DejaVuSans-35" transform="translate(63.623047 0)"/>
       <use xlink:href="#DejaVuSans-30" transform="translate(127.246094 0)"/>
      </g>
     </g>
    </g>
    <g id="xtick_8">
     <g id="line2d_15">
      <path d="M 653.663766 384.117812 
L 653.663766 23.837812 
" clip-path="url(#p0f34d1f832)" style="fill: none; stroke: #b0b0b0; stroke-opacity: 0.2; stroke-width: 0.6; stroke-linecap: square"/>
     </g>
     <g id="line2d_16">
      <g>
       <use xlink:href="#m0549e43211" x="653.663766" y="384.117812" style="stroke: #000000; stroke-width: 0.8"/>
      </g>
     </g>
     <g id="text_8">
      <!-- 175 -->
      <g transform="translate(643.165641 399.476094) scale(0.11 -0.11)">
       <use xlink:href="#DejaVuSans-31"/>
       <use xlink:href="#DejaVuSans-37" transform="translate(63.623047 0)"/>
       <use xlink:href="#DejaVuSans-35" transform="translate(127.246094 0)"/>
      </g>
     </g>
    </g>
    <g id="text_9">
     <!-- Time (s) -->
     <g transform="translate(352.0775 414.881875) scale(0.12 -0.12)">
      <defs>
       <path id="DejaVuSans-54" d="M -19 4666 
L 3928 4666 
L 3928 4134 
L 2272 4134 
L 2272 0 
L 1638 0 
L 1638 4134 
L -19 4134 
L -19 4666 
z
" transform="scale(0.015625)"/>
       <path id="DejaVuSans-69" d="M 603 3500 
L 1178 3500 
L 1178 0 
L 603 0 
L 603 3500 
z
M 603 4863 
L 1178 4863 
L 1178 4134 
L 603 4134 
L 603 4863 
z
" transform="scale(0.015625)"/>
       <path id="DejaVuSans-6d" d="M 3328 2828 
Q 3544 3216 3844 3400 
Q 4144 3584 4550 3584 
Q 5097 3584 5394 3201 
Q 5691 2819 5691 2113 
L 5691 0 
L 5113 0 
L 5113 2094 
Q 5113 2597 4934 2840 
Q 4756 3084 4391 3084 
Q 3944 3084 3684 2787 
Q 3425 2491 3425 1978 
L 3425 0 
L 2847 0 
L 2847 2094 
Q 2847 2600 2669 2842 
Q 2491 3084 2119 3084 
Q 1678 3084 1418 2786 
Q 1159 2488 1159 1978 
L 1159 0 
L 581 0 
L 581 3500 
L 1159 3500 
L 1159 2956 
Q 1356 3278 1631 3431 
Q 1906 3584 2284 3584 
Q 2666 3584 2933 3390 
Q 3200 3197 3328 2828 
z
" transform="scale(0.015625)"/>
       <path id="DejaVuSans-65" d="M 3597 1894 
L 3597 1613 
L 953 1613 
Q 991 1019 1311 708 
Q 1631 397 2203 397 
Q 2534 397 2845 478 
Q 3156 559 3463 722 
L 3463 178 
Q 3153 47 2828 -22 
Q 2503 -91 2169 -91 
Q 1331 -91 842 396 
Q 353 884 353 1716 
Q 353 2575 817 3079 
Q 1281 3584 2069 3584 
Q 2775 3584 3186 3129 
Q 3597 2675 3597 1894 
z
M 3022 2063 
Q 3016 2534 2758 2815 
Q 2500 3097 2075 3097 
Q 1594 3097 1305 2825 
Q 1016 2553 972 2059 
L 3022 2063 
z
" transform="scale(0.015625)"/>
       <path id="DejaVuSans-20" transform="scale(0.015625)"/>
       <path id="DejaVuSans-28" d="M 1984 4856 
Q 1566 4138 1362 3434 
Q 1159 2731 1159 2009 
Q 1159 1288 1364 580 
Q 1569 -128 1984 -844 
L 1484 -844 
Q 1016 -109 783 600 
Q 550 1309 550 2009 
Q 550 2706 781 3412 
Q 1013 4119 1484 4856 
L 1984 4856 
z
" transform="scale(0.015625)"/>
       <path id="DejaVuSans-73" d="M 2834 3397 
L 2834 2853 
Q 2591 2978 2328 3040 
Q 2066 3103 1784 3103 
Q 1356 3103 1142 2972 
Q 928 2841 928 2578 
Q 928 2378 1081 2264 
Q 1234 2150 1697 2047 
L 1894 2003 
Q 2506 1872 2764 1633 
Q 3022 1394 3022 966 
Q 3022 478 2636 193 
Q 2250 -91 1575 -91 
Q 1294 -91 989 -36 
Q 684 19 347 128 
L 347 722 
Q 666 556 975 473 
Q 1284 391 1588 391 
Q 1994 391 2212 530 
Q 2431 669 2431 922 
Q 2431 1156 2273 1281 
Q 2116 1406 1581 1522 
L 1381 1569 
Q 847 1681 609 1914 
Q 372 2147 372 2553 
Q 372 3047 722 3315 
Q 1072 3584 1716 3584 
Q 2034 3584 2315 3537 
Q 2597 3491 2834 3397 
z
" transform="scale(0.015625)"/>
       <path id="DejaVuSans-29" d="M 513 4856 
L 1013 4856 
Q 1481 4119 1714 3412 
Q 1947 2706 1947 2009 
Q 1947 1309 1714 600 
Q 1481 -109 1013 -844 
L 513 -844 
Q 928 -128 1133 580 
Q 1338 1288 1338 2009 
Q 1338 2731 1133 3434 
Q 928 4138 513 4856 
z
" transform="scale(0.015625)"/>
      </defs>
      <use xlink:href="#DejaVuSans-54"/>
      <use xlink:href="#DejaVuSans-69" transform="translate(57.958984 0)"/>
      <use xlink:href="#DejaVuSans-6d" transform="translate(85.742188 0)"/>
      <use xlink:href="#DejaVuSans-65" transform="translate(183.154297 0)"/>
      <use xlink:href="#DejaVuSans-20" transform="translate(244.677734 0)"/>
      <use xlink:href="#DejaVuSans-28" transform="translate(276.464844 0)"/>
      <use xlink:href="#DejaVuSans-73" transform="translate(315.478516 0)"/>
      <use xlink:href="#DejaVuSans-29" transform="translate(367.578125 0)"/>
     </g>
    </g>
   </g>
   <g id="matplotlib.axis_2">
    <g id="ytick_1">
     <g id="line2d_17">
      <path d="M 47.307188 367.741449 
L 705.637188 367.741449 
" clip-path="url(#p0f34d1f832)" style="fill: none; stroke: #b0b0b0; stroke-opacity: 0.2; stroke-width: 0.6; stroke-linecap: square"/>
     </g>
     <g id="line2d_18">
      <defs>
       <path id="m7768a6cab8" d="M 0 0 
L -3.5 0 
" style="stroke: #000000; stroke-width: 0.8"/>
      </defs>
      <g>
       <use xlink:href="#m7768a6cab8" x="47.307188" y="367.741449" style="stroke: #000000; stroke-width: 0.8"/>
      </g>
     </g>
     <g id="text_10">
      <!-- 0.0 -->
      <g transform="translate(22.81375 371.920589) scale(0.11 -0.11)">
       <defs>
        <path id="DejaVuSans-2e" d="M 684 794 
L 1344 794 
L 1344 0 
L 684 0 
L 684 794 
z
" transform="scale(0.015625)"/>
       </defs>
       <use xlink:href="#DejaVuSans-30"/>
       <use xlink:href="#DejaVuSans-2e" transform="translate(63.623047 0)"/>
       <use xlink:href="#DejaVuSans-30" transform="translate(95.410156 0)"/>
      </g>
     </g>
    </g>
    <g id="ytick_2">
     <g id="line2d_19">
      <path d="M 47.307188 317.507205 
L 705.637188 317.507205 
" clip-path="url(#p0f34d1f832)" style="fill: none; stroke: #b0b0b0; stroke-opacity: 0.2; stroke-width: 0.6; stroke-linecap: square"/>
     </g>
     <g id="line2d_20">
      <g>
       <use xlink:href="#m7768a6cab8" x="47.307188" y="317.507205" style="stroke: #000000; stroke-width: 0.8"/>
      </g>
     </g>
     <g id="text_11">
      <!-- 0.5 -->
      <g transform="translate(22.81375 321.686345) scale(0.11 -0.11)">
       <use xlink:href="#DejaVuSans-30"/>
       <use xlink:href="#DejaVuSans-2e" transform="translate(63.623047 0)"/>
       <use xlink:href="#DejaVuSans-35" transform="translate(95.410156 0)"/>
      </g>
     </g>
    </g>
    <g id="ytick_3">
     <g id="line2d_21">
      <path d="M 47.307188 267.27296 
L 705.637188 267.27296 
" clip-path="url(#p0f34d1f832)" style="fill: none; stroke: #b0b0b0; stroke-opacity: 0.2; stroke-width: 0.6; stroke-linecap: square"/>
     </g>
     <g id="line2d_22">
      <g>
       <use xlink:href="#m7768a6cab8" x="47.307188" y="267.27296" style="stroke: #000000; stroke-width: 0.8"/>
      </g>
     </g>
     <g id="text_12">
      <!-- 1.0 -->
      <g transform="translate(22.81375 271.452101) scale(0.11 -0.11)">
       <use xlink:href="#DejaVuSans-31"/>
       <use xlink:href="#DejaVuSans-2e" transform="translate(63.623047 0)"/>
       <use xlink:href="#DejaVuSans-30" transform="translate(95.410156 0)"/>
      </g>
     </g>
    </g>
    <g id="ytick_4">
     <g id="line2d_23">
      <path d="M 47.307188 217.038716 
L 705.637188 217.038716 
" clip-path="url(#p0f34d1f832)" style="fill: none; stroke: #b0b0b0; stroke-opacity: 0.2; stroke-width: 0.6; stroke-linecap: square"/>
     </g>
     <g id="line2d_24">
      <g>
       <use xlink:href="#m7768a6cab8" x="47.307188" y="217.038716" style="stroke: #000000; stroke-width: 0.8"/>
      </g>
     </g>
     <g id="text_13">
      <!-- 1.5 -->
      <g transform="translate(22.81375 221.217857) scale(0.11 -0.11)">
       <use xlink:href="#DejaVuSans-31"/>
       <use xlink:href="#DejaVuSans-2e" transform="translate(63.623047 0)"/>
       <use xlink:href="#DejaVuSans-35" transform="translate(95.410156 0)"/>
      </g>
     </g>
    </g>
    <g id="ytick_5">
     <g id="line2d_25">
      <path d="M 47.307188 166.804472 
L 705.637188 166.804472 
" clip-path="url(#p0f34d1f832)" style="fill: none; stroke: #b0b0b0; stroke-opacity: 0.2; stroke-width: 0.6; stroke-linecap: square"/>
     </g>
     <g id="line2d_26">
      <g>
       <use xlink:href="#m7768a6cab8" x="47.307188" y="166.804472" style="stroke: #000000; stroke-width: 0.8"/>
      </g>
     </g>
     <g id="text_14">
      <!-- 2.0 -->
      <g transform="translate(22.81375 170.983612) scale(0.11 -0.11)">
       <use xlink:href="#DejaVuSans-32"/>
       <use xlink:href="#DejaVuSans-2e" transform="translate(63.623047 0)"/>
       <use xlink:href="#DejaVuSans-30" transform="translate(95.410156 0)"/>
      </g>
     </g>
    </g>
    <g id="ytick_6">
     <g id="line2d_27">
      <path d="M 47.307188 116.570227 
L 705.637188 116.570227 
" clip-path="url(#p0f34d1f832)" style="fill: none; stroke: #b0b0b0; stroke-opacity: 0.2; stroke-width: 0.6; stroke-linecap: square"/>
     </g>
     <g id="line2d_28">
      <g>
       <use xlink:href="#m7768a6cab8" x="47.307188" y="116.570227" style="stroke: #000000; stroke-width: 0.8"/>
      </g>
     </g>
     <g id="text_15">
      <!-- 2.5 -->
      <g transform="translate(22.81375 120.749368) scale(0.11 -0.11)">
       <use xlink:href="#DejaVuSans-32"/>
       <use xlink:href="#DejaVuSans-2e" transform="translate(63.623047 0)"/>
       <use xlink:href="#DejaVuSans-35" transform="translate(95.410156 0)"/>
      </g>
     </g>
    </g>
    <g id="ytick_7">
     <g id="line2d_29">
      <path d="M 47.307188 66.335983 
L 705.637188 66.335983 
" clip-path="url(#p0f34d1f832)" style="fill: none; stroke: #b0b0b0; stroke-opacity: 0.2; stroke-width: 0.6; stroke-linecap: square"/>
     </g>
     <g id="line2d_30">
      <g>
       <use xlink:href="#m7768a6cab8" x="47.307188" y="66.335983" style="stroke: #000000; stroke-width: 0.8"/>
      </g>
     </g>
     <g id="text_16">
      <!-- 3.0 -->
      <g transform="translate(22.81375 70.515124) scale(0.11 -0.11)">
       <defs>
        <path id="DejaVuSans-33" d="M 2597 2516 
Q 3050 2419 3304 2112 
Q 3559 1806 3559 1356 
Q 3559 666 3084 287 
Q 2609 -91 1734 -91 
Q 1441 -91 1130 -33 
Q 819 25 488 141 
L 488 750 
Q 750 597 1062 519 
Q 1375 441 1716 441 
Q 2309 441 2620 675 
Q 2931 909 2931 1356 
Q 2931 1769 2642 2001 
Q 2353 2234 1838 2234 
L 1294 2234 
L 1294 2753 
L 1863 2753 
Q 2328 2753 2575 2939 
Q 2822 3125 2822 3475 
Q 2822 3834 2567 4026 
Q 2313 4219 1838 4219 
Q 1578 4219 1281 4162 
Q 984 4106 628 3988 
L 628 4550 
Q 988 4650 1302 4700 
Q 1616 4750 1894 4750 
Q 2613 4750 3031 4423 
Q 3450 4097 3450 3541 
Q 3450 3153 3228 2886 
Q 3006 2619 2597 2516 
z
" transform="scale(0.015625)"/>
       </defs>
       <use xlink:href="#DejaVuSans-33"/>
       <use xlink:href="#DejaVuSans-2e" transform="translate(63.623047 0)"/>
       <use xlink:href="#DejaVuSans-30" transform="translate(95.410156 0)"/>
      </g>
     </g>
    </g>
    <g id="text_17">
     <!-- AU mean intensity -->
     <g transform="translate(16.318125 259.314687) rotate(-90) scale(0.12 -0.12)">
      <defs>
       <path id="DejaVuSans-41" d="M 2188 4044 
L 1331 1722 
L 3047 1722 
L 2188 4044 
z
M 1831 4666 
L 2547 4666 
L 4325 0 
L 3669 0 
L 3244 1197 
L 1141 1197 
L 716 0 
L 50 0 
L 1831 4666 
z
" transform="scale(0.015625)"/>
       <path id="DejaVuSans-55" d="M 556 4666 
L 1191 4666 
L 1191 1831 
Q 1191 1081 1462 751 
Q 1734 422 2344 422 
Q 2950 422 3222 751 
Q 3494 1081 3494 1831 
L 3494 4666 
L 4128 4666 
L 4128 1753 
Q 4128 841 3676 375 
Q 3225 -91 2344 -91 
Q 1459 -91 1007 375 
Q 556 841 556 1753 
L 556 4666 
z
" transform="scale(0.015625)"/>
       <path id="DejaVuSans-61" d="M 2194 1759 
Q 1497 1759 1228 1600 
Q 959 1441 959 1056 
Q 959 750 1161 570 
Q 1363 391 1709 391 
Q 2188 391 2477 730 
Q 2766 1069 2766 1631 
L 2766 1759 
L 2194 1759 
z
M 3341 1997 
L 3341 0 
L 2766 0 
L 2766 531 
Q 2569 213 2275 61 
Q 1981 -91 1556 -91 
Q 1019 -91 701 211 
Q 384 513 384 1019 
Q 384 1609 779 1909 
Q 1175 2209 1959 2209 
L 2766 2209 
L 2766 2266 
Q 2766 2663 2505 2880 
Q 2244 3097 1772 3097 
Q 1472 3097 1187 3025 
Q 903 2953 641 2809 
L 641 3341 
Q 956 3463 1253 3523 
Q 1550 3584 1831 3584 
Q 2591 3584 2966 3190 
Q 3341 2797 3341 1997 
z
" transform="scale(0.015625)"/>
       <path id="DejaVuSans-6e" d="M 3513 2113 
L 3513 0 
L 2938 0 
L 2938 2094 
Q 2938 2591 2744 2837 
Q 2550 3084 2163 3084 
Q 1697 3084 1428 2787 
Q 1159 2491 1159 1978 
L 1159 0 
L 581 0 
L 581 3500 
L 1159 3500 
L 1159 2956 
Q 1366 3272 1645 3428 
Q 1925 3584 2291 3584 
Q 2894 3584 3203 3211 
Q 3513 2838 3513 2113 
z
" transform="scale(0.015625)"/>
       <path id="DejaVuSans-74" d="M 1172 4494 
L 1172 3500 
L 2356 3500 
L 2356 3053 
L 1172 3053 
L 1172 1153 
Q 1172 725 1289 603 
Q 1406 481 1766 481 
L 2356 481 
L 2356 0 
L 1766 0 
Q 1100 0 847 248 
Q 594 497 594 1153 
L 594 3053 
L 172 3053 
L 172 3500 
L 594 3500 
L 594 4494 
L 1172 4494 
z
" transform="scale(0.015625)"/>
       <path id="DejaVuSans-79" d="M 2059 -325 
Q 1816 -950 1584 -1140 
Q 1353 -1331 966 -1331 
L 506 -1331 
L 506 -850 
L 844 -850 
Q 1081 -850 1212 -737 
Q 1344 -625 1503 -206 
L 1606 56 
L 191 3500 
L 800 3500 
L 1894 763 
L 2988 3500 
L 3597 3500 
L 2059 -325 
z
" transform="scale(0.015625)"/>
      </defs>
      <use xlink:href="#DejaVuSans-41"/>
      <use xlink:href="#DejaVuSans-55" transform="translate(68.408203 0)"/>
      <use xlink:href="#DejaVuSans-20" transform="translate(141.601562 0)"/>
      <use xlink:href="#DejaVuSans-6d" transform="translate(173.388672 0)"/>
      <use xlink:href="#DejaVuSans-65" transform="translate(270.800781 0)"/>
      <use xlink:href="#DejaVuSans-61" transform="translate(332.324219 0)"/>
      <use xlink:href="#DejaVuSans-6e" transform="translate(393.603516 0)"/>
      <use xlink:href="#DejaVuSans-20" transform="translate(456.982422 0)"/>
      <use xlink:href="#DejaVuSans-69" transform="translate(488.769531 0)"/>
      <use xlink:href="#DejaVuSans-6e" transform="translate(516.552734 0)"/>
      <use xlink:href="#DejaVuSans-74" transform="translate(579.931641 0)"/>
      <use xlink:href="#DejaVuSans-65" transform="translate(619.140625 0)"/>
      <use xlink:href="#DejaVuSans-6e" transform="translate(680.664062 0)"/>
      <use xlink:href="#DejaVuSans-73" transform="translate(744.042969 0)"/>
      <use xlink:href="#DejaVuSans-69" transform="translate(796.142578 0)"/>
      <use xlink:href="#DejaVuSans-74" transform="translate(823.925781 0)"/>
      <use xlink:href="#DejaVuSans-79" transform="translate(863.134766 0)"/>
     </g>
    </g>
   </g>
   <g id="FillBetweenPolyCollection_1">
    <defs>
     <path id="m0bfb65eefb" d="M 47.307188 -164.898828 
L 47.307188 -28.338486 
L 50.772082 -25.850268 
L 54.236977 -23.505122 
L 57.701872 -25.931376 
L 61.166766 -25.165236 
L 64.631661 -24.036862 
L 68.096556 -28.185775 
L 71.561451 -26.801951 
L 75.026345 -26.010827 
L 78.49124 -26.80138 
L 81.956135 -26.558231 
L 85.42103 -26.94474 
L 88.885924 -27.553172 
L 92.350819 -28.294095 
L 95.815714 -27.367028 
L 99.280609 -28.543303 
L 102.745503 -28.510583 
L 106.210398 -28.762957 
L 109.675293 -29.044433 
L 113.140187 -28.62191 
L 116.605082 -28.906803 
L 120.069977 -29.602119 
L 123.534872 -29.473014 
L 126.999766 -28.750565 
L 130.464661 -27.473402 
L 133.929556 -28.221331 
L 137.394451 -27.594023 
L 140.859345 -26.481015 
L 144.32424 -26.637759 
L 147.789135 -25.939999 
L 151.25403 -25.241063 
L 154.718924 -27.10881 
L 158.183819 -26.770352 
L 161.648714 -26.65348 
L 165.113609 -27.415908 
L 168.578503 -24.842296 
L 172.043398 -26.085694 
L 175.508293 -25.553936 
L 178.973187 -27.221116 
L 182.438082 -26.607946 
L 185.902977 -26.713717 
L 189.367872 -26.208305 
L 192.832766 -23.773032 
L 196.297661 -24.438741 
L 199.762556 -27.875842 
L 203.227451 -27.36424 
L 206.692345 -23.468133 
L 210.15724 -22.339273 
L 213.622135 -24.745812 
L 217.08703 -21.105394 
L 220.551924 -18.969834 
L 224.016819 -21.089101 
L 227.481714 -20.130413 
L 230.946609 -21.419082 
L 234.411503 -21.091938 
L 237.876398 -24.017822 
L 241.341293 -21.007891 
L 244.806187 -24.342735 
L 248.271082 -24.509154 
L 251.735977 -22.591371 
L 255.200872 -22.980358 
L 258.665766 -24.508509 
L 262.130661 -20.236159 
L 265.595556 -20.366647 
L 269.060451 -23.439345 
L 272.525345 -23.019149 
L 275.99024 -23.318001 
L 279.455135 -22.662757 
L 282.92003 -18.046264 
L 286.384924 -13.410317 
L 289.849819 -13.177676 
L 293.314714 -17.364437 
L 296.779609 -20.163001 
L 300.244503 -22.861419 
L 303.709398 -21.017845 
L 307.174293 -22.99556 
L 310.639187 -22.074519 
L 314.104082 -23.289348 
L 317.568977 -23.762989 
L 321.033872 -25.104191 
L 324.498766 -27.126651 
L 327.963661 -25.615115 
L 331.428556 -25.192765 
L 334.893451 -19.607592 
L 338.358345 -22.902823 
L 341.82324 -21.860877 
L 345.288135 -23.92781 
L 348.75303 -23.985871 
L 352.217924 -22.999647 
L 355.682819 -24.037144 
L 359.147714 -24.790214 
L 362.612609 -25.189981 
L 366.077503 -26.2566 
L 369.542398 -22.56372 
L 373.007293 -21.808757 
L 376.472188 -24.490305 
L 379.937082 -23.375636 
L 383.401977 -23.800079 
L 386.866872 -24.568499 
L 390.331766 -24.789777 
L 393.796661 -25.433893 
L 397.261556 -27.000229 
L 400.726451 -27.45627 
L 404.191345 -29.406929 
L 407.65624 -27.478428 
L 411.121135 -30.100483 
L 414.58603 -32.544331 
L 418.050924 -32.509045 
L 421.515819 -31.569736 
L 424.980714 -31.252697 
L 428.445609 -34.301211 
L 431.910503 -31.853995 
L 435.375398 -26.745458 
L 438.840293 -27.384988 
L 442.305187 -25.417739 
L 445.770082 -27.44369 
L 449.234977 -30.64299 
L 452.699872 -30.992795 
L 456.164766 -28.460712 
L 459.629661 -30.930085 
L 463.094556 -32.074243 
L 466.559451 -29.00079 
L 470.024345 -25.736399 
L 473.48924 -24.181427 
L 476.954135 -27.004592 
L 480.41903 -22.513189 
L 483.883924 -19.226067 
L 487.348819 -23.569031 
L 490.813714 -26.913452 
L 494.278609 -25.757246 
L 497.743503 -29.756393 
L 501.208398 -29.316009 
L 504.673293 -28.939927 
L 508.138188 -28.37807 
L 511.603082 -28.096789 
L 515.067977 -25.952661 
L 518.532872 -25.52782 
L 521.997766 -27.908622 
L 525.462661 -29.837261 
L 528.927556 -28.006196 
L 532.392451 -28.776642 
L 535.857345 -28.440775 
L 539.32224 -28.197049 
L 542.787135 -29.308377 
L 546.25203 -31.119425 
L 549.716924 -30.950988 
L 553.181819 -30.899182 
L 556.646714 -30.416727 
L 560.111609 -29.747553 
L 563.576503 -30.927521 
L 567.041398 -29.758695 
L 570.506293 -30.374269 
L 573.971188 -31.408556 
L 577.436082 -27.334975 
L 580.900977 -25.157139 
L 584.365872 -26.637496 
L 587.830766 -26.687288 
L 591.295661 -29.84908 
L 594.760556 -31.295443 
L 598.225451 -30.484607 
L 601.690345 -31.427307 
L 605.15524 -32.260836 
L 608.620135 -29.264924 
L 612.08503 -33.047419 
L 615.549924 -34.984137 
L 619.014819 -36.329285 
L 622.479714 -37.040644 
L 625.944609 -33.432622 
L 629.409503 -30.552493 
L 632.874398 -28.487868 
L 636.339293 -26.793243 
L 639.804188 -25.050304 
L 643.269082 -26.167318 
L 646.733977 -28.076073 
L 650.198872 -27.451563 
L 653.663766 -25.58629 
L 657.128661 -26.363654 
L 660.593556 -22.623247 
L 664.058451 -28.012293 
L 667.523345 -30.745698 
L 670.98824 -29.589889 
L 674.453135 -23.481542 
L 677.91803 -26.750932 
L 681.382924 -19.42083 
L 684.847819 -21.66528 
L 688.312714 -20.955825 
L 691.777609 -23.877885 
L 695.242503 -23.88259 
L 698.707398 -23.641322 
L 702.172293 -27.379941 
L 705.637188 -57.929565 
L 705.637188 -160.669315 
L 705.637188 -160.669315 
L 702.172293 -197.080182 
L 698.707398 -200.743451 
L 695.242503 -197.202247 
L 691.777609 -197.10936 
L 688.312714 -203.150132 
L 684.847819 -205.548957 
L 681.382924 -208.500096 
L 677.91803 -198.971524 
L 674.453135 -209.482718 
L 670.98824 -202.20645 
L 667.523345 -205.709538 
L 664.058451 -207.892226 
L 660.593556 -213.302539 
L 657.128661 -208.734635 
L 653.663766 -211.015959 
L 650.198872 -211.003812 
L 646.733977 -210.731377 
L 643.269082 -212.254069 
L 639.804188 -216.827441 
L 636.339293 -214.730272 
L 632.874398 -212.892034 
L 629.409503 -210.266859 
L 625.944609 -206.633271 
L 622.479714 -202.803381 
L 619.014819 -197.101886 
L 615.549924 -197.907485 
L 612.08503 -201.182145 
L 608.620135 -205.767915 
L 605.15524 -201.983463 
L 601.690345 -203.209256 
L 598.225451 -201.015143 
L 594.760556 -197.772842 
L 591.295661 -195.352268 
L 587.830766 -190.30931 
L 584.365872 -184.967874 
L 580.900977 -185.323423 
L 577.436082 -184.928524 
L 573.971188 -180.496221 
L 570.506293 -178.176666 
L 567.041398 -177.124762 
L 563.576503 -175.857341 
L 560.111609 -176.637877 
L 556.646714 -180.05213 
L 553.181819 -182.534089 
L 549.716924 -185.305605 
L 546.25203 -186.346159 
L 542.787135 -185.030519 
L 539.32224 -187.903561 
L 535.857345 -189.708882 
L 532.392451 -186.250572 
L 528.927556 -187.149428 
L 525.462661 -183.360517 
L 521.997766 -186.441859 
L 518.532872 -191.877575 
L 515.067977 -195.301598 
L 511.603082 -190.695993 
L 508.138188 -184.649179 
L 504.673293 -184.673489 
L 501.208398 -192.537215 
L 497.743503 -196.950441 
L 494.278609 -205.569283 
L 490.813714 -209.684782 
L 487.348819 -219.024249 
L 483.883924 -230.076391 
L 480.41903 -217.063409 
L 476.954135 -198.865005 
L 473.48924 -202.050919 
L 470.024345 -203.149043 
L 466.559451 -200.813177 
L 463.094556 -197.933654 
L 459.629661 -196.674565 
L 456.164766 -196.804559 
L 452.699872 -192.169493 
L 449.234977 -194.149408 
L 445.770082 -197.176145 
L 442.305187 -195.800586 
L 438.840293 -193.219031 
L 435.375398 -193.989575 
L 431.910503 -188.036151 
L 428.445609 -189.587854 
L 424.980714 -190.762199 
L 421.515819 -193.824567 
L 418.050924 -191.626665 
L 414.58603 -189.005206 
L 411.121135 -193.82111 
L 407.65624 -193.463835 
L 404.191345 -193.931803 
L 400.726451 -196.840731 
L 397.261556 -197.777157 
L 393.796661 -193.564358 
L 390.331766 -186.136024 
L 386.866872 -186.464999 
L 383.401977 -187.606586 
L 379.937082 -188.643918 
L 376.472188 -187.944211 
L 373.007293 -189.988411 
L 369.542398 -188.376884 
L 366.077503 -179.423736 
L 362.612609 -178.578538 
L 359.147714 -178.844863 
L 355.682819 -181.714766 
L 352.217924 -182.386946 
L 348.75303 -181.064537 
L 345.288135 -182.465572 
L 341.82324 -186.422426 
L 338.358345 -186.694374 
L 334.893451 -191.494541 
L 331.428556 -184.428428 
L 327.963661 -186.656901 
L 324.498766 -186.379829 
L 321.033872 -182.775956 
L 317.568977 -179.897558 
L 314.104082 -178.367465 
L 310.639187 -181.283233 
L 307.174293 -182.571472 
L 303.709398 -186.7529 
L 300.244503 -185.189099 
L 296.779609 -190.208074 
L 293.314714 -197.56526 
L 289.849819 -206.458265 
L 286.384924 -205.940376 
L 282.92003 -200.581106 
L 279.455135 -191.875568 
L 275.99024 -189.894929 
L 272.525345 -189.219829 
L 269.060451 -185.543976 
L 265.595556 -193.294548 
L 262.130661 -190.331845 
L 258.665766 -185.24474 
L 255.200872 -188.739329 
L 251.735977 -187.620465 
L 248.271082 -185.72413 
L 244.806187 -187.004715 
L 241.341293 -191.636195 
L 237.876398 -184.822302 
L 234.411503 -190.266408 
L 230.946609 -193.026221 
L 227.481714 -190.956348 
L 224.016819 -189.455343 
L 220.551924 -192.746591 
L 217.08703 -192.822382 
L 213.622135 -186.055896 
L 210.15724 -190.84635 
L 206.692345 -189.227724 
L 203.227451 -184.71524 
L 199.762556 -185.926978 
L 196.297661 -180.531344 
L 192.832766 -174.503997 
L 189.367872 -169.273177 
L 185.902977 -168.055017 
L 182.438082 -167.092504 
L 178.973187 -166.288816 
L 175.508293 -165.954924 
L 172.043398 -164.274549 
L 168.578503 -165.580105 
L 165.113609 -163.554322 
L 161.648714 -164.791716 
L 158.183819 -166.715799 
L 154.718924 -167.21535 
L 151.25403 -171.116353 
L 147.789135 -168.244122 
L 144.32424 -165.281281 
L 140.859345 -164.103697 
L 137.394451 -164.006704 
L 133.929556 -162.143368 
L 130.464661 -164.971762 
L 126.999766 -163.134096 
L 123.534872 -163.204591 
L 120.069977 -163.474283 
L 116.605082 -163.010974 
L 113.140187 -162.914058 
L 109.675293 -163.284984 
L 106.210398 -164.860105 
L 102.745503 -164.145977 
L 99.280609 -163.781273 
L 95.815714 -166.673342 
L 92.350819 -165.162721 
L 88.885924 -165.137586 
L 85.42103 -166.187003 
L 81.956135 -167.673541 
L 78.49124 -168.933186 
L 75.026345 -169.951681 
L 71.561451 -167.710165 
L 68.096556 -165.704544 
L 64.631661 -172.737371 
L 61.166766 -173.627919 
L 57.701872 -174.33417 
L 54.236977 -175.233212 
L 50.772082 -167.514537 
L 47.307188 -164.898828 
z
" style="stroke: #d3d3d3; stroke-opacity: 0.5"/>
    </defs>
    <g clip-path="url(#p0f34d1f832)">
     <use xlink:href="#m0bfb65eefb" x="0" y="424.5775" style="fill: #d3d3d3; fill-opacity: 0.5; stroke: #d3d3d3; stroke-opacity: 0.5"/>
    </g>
   </g>
   <g id="FillBetweenPolyCollection_2">
    <defs>
     <path id="mbe8c59d2aa" d="M 47.307188 -130.758743 
L 47.307188 -62.478572 
L 50.772082 -61.266335 
L 54.236977 -61.437144 
L 57.701872 -63.032075 
L 61.166766 -62.280907 
L 64.631661 -61.211989 
L 68.096556 -62.565467 
L 71.561451 -62.029005 
L 75.026345 -61.99604 
L 78.49124 -62.334332 
L 81.956135 -61.837059 
L 85.42103 -61.755306 
L 88.885924 -61.949275 
L 92.350819 -62.511251 
L 95.815714 -62.193606 
L 99.280609 -62.352796 
L 102.745503 -62.419431 
L 106.210398 -62.787244 
L 109.675293 -62.604571 
L 113.140187 -62.194947 
L 116.605082 -62.432846 
L 120.069977 -63.07016 
L 123.534872 -62.905908 
L 126.999766 -62.346448 
L 130.464661 -61.847992 
L 133.929556 -61.70184 
L 137.394451 -61.697193 
L 140.859345 -60.886686 
L 144.32424 -61.29864 
L 147.789135 -61.51603 
L 151.25403 -61.709885 
L 154.718924 -62.135445 
L 158.183819 -61.756714 
L 161.648714 -61.188039 
L 165.113609 -61.450512 
L 168.578503 -60.026749 
L 172.043398 -60.632907 
L 175.508293 -60.654183 
L 178.973187 -61.988041 
L 182.438082 -61.729086 
L 185.902977 -62.049042 
L 189.367872 -61.974523 
L 192.832766 -61.455773 
L 196.297661 -63.461892 
L 199.762556 -67.388626 
L 203.227451 -66.70199 
L 206.692345 -64.90803 
L 210.15724 -64.466042 
L 213.622135 -65.073333 
L 217.08703 -64.034641 
L 220.551924 -62.414024 
L 224.016819 -63.180662 
L 227.481714 -62.836897 
L 230.946609 -64.320867 
L 234.411503 -63.385555 
L 237.876398 -64.218942 
L 241.341293 -63.664967 
L 244.806187 -65.00823 
L 248.271082 -64.812898 
L 251.735977 -63.848645 
L 255.200872 -64.420101 
L 258.665766 -64.692567 
L 262.130661 -62.76008 
L 265.595556 -63.598622 
L 269.060451 -63.965503 
L 272.525345 -64.569319 
L 275.99024 -64.962233 
L 279.455135 -64.96596 
L 282.92003 -63.679974 
L 286.384924 -61.542832 
L 289.849819 -61.497823 
L 293.314714 -62.414643 
L 296.779609 -62.674269 
L 300.244503 -63.443339 
L 303.709398 -62.451609 
L 307.174293 -62.889538 
L 310.639187 -61.876698 
L 314.104082 -62.058877 
L 317.568977 -62.796631 
L 321.033872 -64.522132 
L 324.498766 -66.939945 
L 327.963661 -65.875562 
L 331.428556 -65.001681 
L 334.893451 -62.579329 
L 338.358345 -63.850711 
L 341.82324 -63.001264 
L 345.288135 -63.562251 
L 348.75303 -63.255538 
L 352.217924 -62.846471 
L 355.682819 -63.45655 
L 359.147714 -63.303876 
L 362.612609 -63.53712 
L 366.077503 -64.548384 
L 369.542398 -64.017011 
L 373.007293 -63.85367 
L 376.472188 -65.353781 
L 379.937082 -64.692707 
L 383.401977 -64.751706 
L 386.866872 -65.042624 
L 390.331766 -65.126339 
L 393.796661 -67.46651 
L 397.261556 -69.694461 
L 400.726451 -69.802385 
L 404.191345 -70.538147 
L 407.65624 -68.97478 
L 411.121135 -71.03064 
L 414.58603 -71.65955 
L 418.050924 -72.28845 
L 421.515819 -72.133444 
L 424.980714 -71.130072 
L 428.445609 -73.122872 
L 431.910503 -70.899534 
L 435.375398 -68.556487 
L 438.840293 -68.843498 
L 442.305187 -68.013451 
L 445.770082 -69.876803 
L 449.234977 -71.519594 
L 452.699872 -71.286969 
L 456.164766 -70.546674 
L 459.629661 -72.366205 
L 463.094556 -73.539096 
L 466.559451 -71.953887 
L 470.024345 -70.08956 
L 473.48924 -68.6488 
L 476.954135 -69.969696 
L 480.41903 -71.150744 
L 483.883924 -71.938648 
L 487.348819 -72.432836 
L 490.813714 -72.606285 
L 494.278609 -70.710255 
L 497.743503 -71.554905 
L 501.208398 -70.12131 
L 504.673293 -67.873317 
L 508.138188 -67.445847 
L 511.603082 -68.74659 
L 515.067977 -68.289895 
L 518.532872 -67.115259 
L 521.997766 -67.541931 
L 525.462661 -68.218075 
L 528.927556 -67.792004 
L 532.392451 -68.145124 
L 535.857345 -68.757802 
L 539.32224 -68.123677 
L 542.787135 -68.238912 
L 546.25203 -69.926109 
L 549.716924 -69.539642 
L 553.181819 -68.807909 
L 556.646714 -67.825578 
L 560.111609 -66.470134 
L 563.576503 -67.159976 
L 567.041398 -66.600212 
L 570.506293 -67.324868 
L 573.971188 -68.680473 
L 577.436082 -66.733362 
L 580.900977 -65.19871 
L 584.365872 -66.22009 
L 587.830766 -67.592794 
L 591.295661 -71.224877 
L 594.760556 -72.914793 
L 598.225451 -73.117241 
L 601.690345 -74.372794 
L 605.15524 -74.691493 
L 608.620135 -73.390671 
L 612.08503 -75.081101 
L 615.549924 -75.714974 
L 619.014819 -76.522435 
L 622.479714 -78.481328 
L 625.944609 -76.732784 
L 629.409503 -75.481084 
L 632.874398 -74.588909 
L 636.339293 -73.7775 
L 639.804188 -72.994588 
L 643.269082 -72.689006 
L 646.733977 -73.739899 
L 650.198872 -73.339625 
L 653.663766 -71.943708 
L 657.128661 -71.956399 
L 660.593556 -70.29307 
L 664.058451 -72.982276 
L 667.523345 -74.486658 
L 670.98824 -72.744029 
L 674.453135 -69.981836 
L 677.91803 -69.80608 
L 681.382924 -66.690646 
L 684.847819 -67.636199 
L 688.312714 -66.504402 
L 691.777609 -67.185754 
L 695.242503 -67.212504 
L 698.707398 -67.916854 
L 702.172293 -69.805001 
L 705.637188 -83.614503 
L 705.637188 -134.984377 
L 705.637188 -134.984377 
L 702.172293 -154.655122 
L 698.707398 -156.467919 
L 695.242503 -153.872333 
L 691.777609 -153.801492 
L 688.312714 -157.601555 
L 684.847819 -159.578038 
L 681.382924 -161.23028 
L 677.91803 -155.916376 
L 674.453135 -162.982424 
L 670.98824 -159.05231 
L 667.523345 -161.968578 
L 664.058451 -162.922243 
L 660.593556 -165.632716 
L 657.128661 -163.141889 
L 653.663766 -164.658542 
L 650.198872 -165.11575 
L 646.733977 -165.067551 
L 643.269082 -165.732382 
L 639.804188 -168.883157 
L 636.339293 -167.746015 
L 632.874398 -166.790992 
L 629.409503 -165.338267 
L 625.944609 -163.333109 
L 622.479714 -161.362697 
L 619.014819 -156.908736 
L 615.549924 -157.176648 
L 612.08503 -159.148464 
L 608.620135 -161.642167 
L 605.15524 -159.552807 
L 601.690345 -160.263768 
L 598.225451 -158.382509 
L 594.760556 -156.153492 
L 591.295661 -153.976471 
L 587.830766 -149.403805 
L 584.365872 -145.38528 
L 580.900977 -145.281852 
L 577.436082 -145.530137 
L 573.971188 -143.224305 
L 570.506293 -141.226066 
L 567.041398 -140.283246 
L 563.576503 -139.624886 
L 560.111609 -139.915296 
L 556.646714 -142.643279 
L 553.181819 -144.625362 
L 549.716924 -146.716951 
L 546.25203 -147.539476 
L 542.787135 -146.099983 
L 539.32224 -147.976933 
L 535.857345 -149.391855 
L 532.392451 -146.882089 
L 528.927556 -147.36362 
L 525.462661 -144.979703 
L 521.997766 -146.80855 
L 518.532872 -150.290137 
L 515.067977 -152.964364 
L 511.603082 -150.046192 
L 508.138188 -145.581402 
L 504.673293 -145.740098 
L 501.208398 -151.731913 
L 497.743503 -155.151929 
L 494.278609 -160.616274 
L 490.813714 -163.99195 
L 487.348819 -170.160445 
L 483.883924 -177.36381 
L 480.41903 -168.425854 
L 476.954135 -155.899902 
L 473.48924 -157.583546 
L 470.024345 -158.795882 
L 466.559451 -157.86008 
L 463.094556 -156.468801 
L 459.629661 -155.238445 
L 456.164766 -154.718597 
L 452.699872 -151.875318 
L 449.234977 -153.272803 
L 445.770082 -154.743031 
L 442.305187 -153.204874 
L 438.840293 -151.76052 
L 435.375398 -152.178545 
L 431.910503 -148.990612 
L 428.445609 -150.766193 
L 424.980714 -150.884823 
L 421.515819 -153.26086 
L 418.050924 -151.84726 
L 414.58603 -149.889987 
L 411.121135 -152.890953 
L 407.65624 -151.967483 
L 404.191345 -152.800584 
L 400.726451 -154.494616 
L 397.261556 -155.082925 
L 393.796661 -151.531742 
L 390.331766 -145.799463 
L 386.866872 -145.990874 
L 383.401977 -146.654959 
L 379.937082 -147.326848 
L 376.472188 -147.080735 
L 373.007293 -147.943498 
L 369.542398 -146.923593 
L 366.077503 -141.131952 
L 362.612609 -140.231398 
L 359.147714 -140.331201 
L 355.682819 -142.295361 
L 352.217924 -142.540121 
L 348.75303 -141.79487 
L 345.288135 -142.831132 
L 341.82324 -145.282039 
L 338.358345 -145.746486 
L 334.893451 -148.522804 
L 331.428556 -144.619512 
L 327.963661 -146.396455 
L 324.498766 -146.566534 
L 321.033872 -143.358015 
L 317.568977 -140.863915 
L 314.104082 -139.597936 
L 310.639187 -141.481054 
L 307.174293 -142.677494 
L 303.709398 -145.319137 
L 300.244503 -144.607179 
L 296.779609 -147.696806 
L 293.314714 -152.515054 
L 289.849819 -158.138118 
L 286.384924 -157.807861 
L 282.92003 -154.947395 
L 279.455135 -149.572365 
L 275.99024 -148.250697 
L 272.525345 -147.669659 
L 269.060451 -145.017818 
L 265.595556 -150.062572 
L 262.130661 -147.807923 
L 258.665766 -145.060682 
L 255.200872 -147.299587 
L 251.735977 -146.363192 
L 248.271082 -145.420386 
L 244.806187 -146.33922 
L 241.341293 -148.979119 
L 237.876398 -144.621182 
L 234.411503 -147.972791 
L 230.946609 -150.124436 
L 227.481714 -148.249865 
L 224.016819 -147.363783 
L 220.551924 -149.302402 
L 217.08703 -149.893135 
L 213.622135 -145.728375 
L 210.15724 -148.719581 
L 206.692345 -147.787826 
L 203.227451 -145.37749 
L 199.762556 -146.414194 
L 196.297661 -141.508193 
L 192.832766 -136.821256 
L 189.367872 -133.506959 
L 185.902977 -132.719692 
L 182.438082 -131.971364 
L 178.973187 -131.521891 
L 175.508293 -130.854677 
L 172.043398 -129.727335 
L 168.578503 -130.395653 
L 165.113609 -129.519718 
L 161.648714 -130.257157 
L 158.183819 -131.729437 
L 154.718924 -132.188715 
L 151.25403 -134.647531 
L 147.789135 -132.668091 
L 144.32424 -130.620401 
L 140.859345 -129.698026 
L 137.394451 -129.903534 
L 133.929556 -128.662858 
L 130.464661 -130.597172 
L 126.999766 -129.538213 
L 123.534872 -129.771697 
L 120.069977 -130.006242 
L 116.605082 -129.484932 
L 113.140187 -129.341021 
L 109.675293 -129.724846 
L 106.210398 -130.835818 
L 102.745503 -130.237129 
L 99.280609 -129.971781 
L 95.815714 -131.846763 
L 92.350819 -130.945564 
L 88.885924 -130.741483 
L 85.42103 -131.376438 
L 81.956135 -132.394714 
L 78.49124 -133.400234 
L 75.026345 -133.966467 
L 71.561451 -132.483112 
L 68.096556 -131.324852 
L 64.631661 -135.562243 
L 61.166766 -136.512249 
L 57.701872 -137.233471 
L 54.236977 -137.301189 
L 50.772082 -132.09847 
L 47.307188 -130.758743 
z
" style="stroke: #808080; stroke-opacity: 0.7"/>
    </defs>
    <g clip-path="url(#p0f34d1f832)">
     <use xlink:href="#mbe8c59d2aa" x="0" y="424.5775" style="fill: #808080; fill-opacity: 0.7; stroke: #808080; stroke-opacity: 0.7"/>
    </g>
   </g>
   <g id="line2d_31">
    <path d="M 47.307188 339.900374 
L 50.772082 338.99865 
L 54.236977 324.652835 
L 57.701872 324.384631 
L 61.166766 335.853512 
L 64.631661 328.274104 
L 68.096556 311.168168 
L 71.561451 319.758132 
L 75.026345 310.238885 
L 78.49124 316.888212 
L 81.956135 310.78911 
L 85.42103 309.828184 
L 88.885924 279.541769 
L 92.350819 271.082997 
L 95.815714 293.643506 
L 99.280609 315.275487 
L 102.745503 305.408619 
L 106.210398 344.590778 
L 109.675293 324.211851 
L 113.140187 310.671179 
L 116.605082 314.81168 
L 120.069977 317.785604 
L 123.534872 296.377172 
L 126.999766 305.431208 
L 130.464661 307.125505 
L 133.929556 314.393449 
L 137.394451 311.089048 
L 140.859345 309.783633 
L 144.32424 311.69558 
L 147.789135 307.124024 
L 151.25403 294.550425 
L 154.718924 299.919713 
L 158.183819 302.90701 
L 161.648714 319.806751 
L 165.113609 307.386993 
L 168.578503 299.449734 
L 172.043398 304.620275 
L 175.508293 317.18424 
L 178.973187 313.6019 
L 182.438082 312.291191 
L 185.902977 302.396761 
L 189.367872 298.099873 
L 192.832766 315.943198 
L 196.297661 316.23286 
L 199.762556 324.088881 
L 203.227451 313.354703 
L 206.692345 327.477167 
L 210.15724 335.766465 
L 213.622135 334.656462 
L 217.08703 341.80979 
L 220.551924 337.528007 
L 224.016819 338.871128 
L 227.481714 338.686879 
L 230.946609 334.27186 
L 234.411503 335.186524 
L 237.876398 335.626226 
L 241.341293 342.643348 
L 244.806187 335.624214 
L 248.271082 350.645164 
L 251.735977 334.125868 
L 255.200872 343.91309 
L 258.665766 333.48013 
L 262.130661 330.482307 
L 265.595556 332.029514 
L 269.060451 338.65353 
L 272.525345 335.845858 
L 275.99024 338.640024 
L 279.455135 345.849384 
L 282.92003 338.390749 
L 286.384924 339.298646 
L 289.849819 344.193924 
L 293.314714 339.424949 
L 296.779609 336.533157 
L 300.244503 314.645192 
L 303.709398 317.360851 
L 307.174293 325.14087 
L 310.639187 332.419657 
L 314.104082 328.176693 
L 317.568977 308.9292 
L 321.033872 322.109449 
L 324.498766 325.198804 
L 327.963661 323.509054 
L 331.428556 321.100904 
L 334.893451 314.619065 
L 338.358345 327.156318 
L 341.82324 309.990195 
L 345.288135 308.985785 
L 348.75303 302.661635 
L 352.217924 316.49937 
L 355.682819 315.417816 
L 359.147714 292.773461 
L 362.612609 317.805584 
L 366.077503 320.894099 
L 369.542398 316.469985 
L 373.007293 319.032083 
L 376.472188 307.776678 
L 379.937082 309.860133 
L 383.401977 324.049351 
L 386.866872 326.750157 
L 390.331766 329.808923 
L 393.796661 315.404242 
L 397.261556 272.313468 
L 400.726451 290.879584 
L 404.191345 233.312732 
L 407.65624 286.185337 
L 411.121135 288.852945 
L 414.58603 292.046331 
L 418.050924 299.63363 
L 421.515819 311.485569 
L 424.980714 326.409498 
L 428.445609 300.226832 
L 431.910503 297.686268 
L 435.375398 285.275088 
L 438.840293 310.918385 
L 442.305187 298.028512 
L 445.770082 300.830522 
L 449.234977 295.680078 
L 452.699872 292.873009 
L 456.164766 268.517516 
L 459.629661 277.443305 
L 463.094556 265.270165 
L 466.559451 309.459168 
L 470.024345 307.613745 
L 473.48924 300.185688 
L 476.954135 314.268804 
L 480.41903 289.159449 
L 483.883924 242.980751 
L 487.348819 302.26798 
L 490.813714 306.235281 
L 494.278609 319.73132 
L 497.743503 317.423571 
L 501.208398 334.059135 
L 504.673293 335.10205 
L 508.138188 328.65921 
L 511.603082 325.855639 
L 515.067977 321.136494 
L 518.532872 254.870812 
L 521.997766 228.639078 
L 525.462661 224.409987 
L 528.927556 221.045179 
L 532.392451 250.106749 
L 535.857345 277.642258 
L 539.32224 302.996735 
L 542.787135 253.445826 
L 546.25203 266.782504 
L 549.716924 289.068862 
L 553.181819 289.860261 
L 556.646714 278.77157 
L 560.111609 260.493404 
L 563.576503 295.278056 
L 567.041398 304.196514 
L 570.506293 303.620258 
L 573.971188 313.933967 
L 577.436082 307.794814 
L 580.900977 298.165719 
L 584.365872 280.856235 
L 587.830766 293.205821 
L 591.295661 272.666383 
L 594.760556 291.774746 
L 598.225451 267.269305 
L 601.690345 222.613184 
L 605.15524 240.418345 
L 608.620135 157.539871 
L 612.08503 239.851524 
L 615.549924 205.372283 
L 619.014819 250.022155 
L 622.479714 241.386063 
L 625.944609 251.714977 
L 629.409503 288.835787 
L 632.874398 288.667263 
L 636.339293 293.500054 
L 639.804188 241.505661 
L 643.269082 246.031058 
L 646.733977 267.802517 
L 650.198872 235.598989 
L 653.663766 194.176073 
L 657.128661 232.812814 
L 660.593556 266.138969 
L 664.058451 253.98821 
L 667.523345 249.597514 
L 670.98824 232.940573 
L 674.453135 217.545546 
L 677.91803 237.306452 
L 681.382924 231.080826 
L 684.847819 251.067059 
L 688.312714 256.639161 
L 691.777609 260.906846 
L 695.242503 280.882892 
L 698.707398 290.132444 
L 702.172293 249.468614 
L 705.637188 248.434312 
L 705.637188 248.434312 
" clip-path="url(#p0f34d1f832)" style="fill: none; stroke: #ff8c00; stroke-width: 2.3; stroke-linecap: square"/>
   </g>
   <g id="line2d_32">
    <path d="M 282.92003 384.117812 
L 282.92003 23.837812 
" clip-path="url(#p0f34d1f832)" style="fill: none; stroke-dasharray: 5.55,2.4; stroke-dashoffset: 0; stroke: #808080; stroke-width: 1.5"/>
   </g>
   <g id="line2d_33">
    <path d="M 483.883924 384.117812 
L 483.883924 23.837812 
" clip-path="url(#p0f34d1f832)" style="fill: none; stroke-dasharray: 5.55,2.4; stroke-dashoffset: 0; stroke: #808080; stroke-width: 1.5"/>
   </g>
   <g id="patch_3">
    <path d="M 47.307188 384.117812 
L 47.307188 23.837812 
" style="fill: none; stroke: #000000; stroke-width: 0.8; stroke-linejoin: miter; stroke-linecap: square"/>
   </g>
   <g id="patch_4">
    <path d="M 705.637188 384.117812 
L 705.637188 23.837812 
" style="fill: none; stroke: #000000; stroke-width: 0.8; stroke-linejoin: miter; stroke-linecap: square"/>
   </g>
   <g id="patch_5">
    <path d="M 47.307188 384.117812 
L 705.637188 384.117812 
" style="fill: none; stroke: #000000; stroke-width: 0.8; stroke-linejoin: miter; stroke-linecap: square"/>
   </g>
   <g id="patch_6">
    <path d="M 47.307188 23.837812 
L 705.637188 23.837812 
" style="fill: none; stroke: #000000; stroke-width: 0.8; stroke-linejoin: miter; stroke-linecap: square"/>
   </g>
   <g id="text_18">
    <!-- Facial trace: Autism spectrum condition (ASC) -->
    <g transform="translate(215.768594 17.837812) scale(0.14 -0.14)">
     <defs>
      <path id="DejaVuSans-46" d="M 628 4666 
L 3309 4666 
L 3309 4134 
L 1259 4134 
L 1259 2759 
L 3109 2759 
L 3109 2228 
L 1259 2228 
L 1259 0 
L 628 0 
L 628 4666 
z
" transform="scale(0.015625)"/>
      <path id="DejaVuSans-63" d="M 3122 3366 
L 3122 2828 
Q 2878 2963 2633 3030 
Q 2388 3097 2138 3097 
Q 1578 3097 1268 2742 
Q 959 2388 959 1747 
Q 959 1106 1268 751 
Q 1578 397 2138 397 
Q 2388 397 2633 464 
Q 2878 531 3122 666 
L 3122 134 
Q 2881 22 2623 -34 
Q 2366 -91 2075 -91 
Q 1284 -91 818 406 
Q 353 903 353 1747 
Q 353 2603 823 3093 
Q 1294 3584 2113 3584 
Q 2378 3584 2631 3529 
Q 2884 3475 3122 3366 
z
" transform="scale(0.015625)"/>
      <path id="DejaVuSans-6c" d="M 603 4863 
L 1178 4863 
L 1178 0 
L 603 0 
L 603 4863 
z
" transform="scale(0.015625)"/>
      <path id="DejaVuSans-72" d="M 2631 2963 
Q 2534 3019 2420 3045 
Q 2306 3072 2169 3072 
Q 1681 3072 1420 2755 
Q 1159 2438 1159 1844 
L 1159 0 
L 581 0 
L 581 3500 
L 1159 3500 
L 1159 2956 
Q 1341 3275 1631 3429 
Q 1922 3584 2338 3584 
Q 2397 3584 2469 3576 
Q 2541 3569 2628 3553 
L 2631 2963 
z
" transform="scale(0.015625)"/>
      <path id="DejaVuSans-3a" d="M 750 794 
L 1409 794 
L 1409 0 
L 750 0 
L 750 794 
z
M 750 3309 
L 1409 3309 
L 1409 2516 
L 750 2516 
L 750 3309 
z
" transform="scale(0.015625)"/>
      <path id="DejaVuSans-75" d="M 544 1381 
L 544 3500 
L 1119 3500 
L 1119 1403 
Q 1119 906 1312 657 
Q 1506 409 1894 409 
Q 2359 409 2629 706 
Q 2900 1003 2900 1516 
L 2900 3500 
L 3475 3500 
L 3475 0 
L 2900 0 
L 2900 538 
Q 2691 219 2414 64 
Q 2138 -91 1772 -91 
Q 1169 -91 856 284 
Q 544 659 544 1381 
z
M 1991 3584 
L 1991 3584 
z
" transform="scale(0.015625)"/>
      <path id="DejaVuSans-70" d="M 1159 525 
L 1159 -1331 
L 581 -1331 
L 581 3500 
L 1159 3500 
L 1159 2969 
Q 1341 3281 1617 3432 
Q 1894 3584 2278 3584 
Q 2916 3584 3314 3078 
Q 3713 2572 3713 1747 
Q 3713 922 3314 415 
Q 2916 -91 2278 -91 
Q 1894 -91 1617 61 
Q 1341 213 1159 525 
z
M 3116 1747 
Q 3116 2381 2855 2742 
Q 2594 3103 2138 3103 
Q 1681 3103 1420 2742 
Q 1159 2381 1159 1747 
Q 1159 1113 1420 752 
Q 1681 391 2138 391 
Q 2594 391 2855 752 
Q 3116 1113 3116 1747 
z
" transform="scale(0.015625)"/>
      <path id="DejaVuSans-6f" d="M 1959 3097 
Q 1497 3097 1228 2736 
Q 959 2375 959 1747 
Q 959 1119 1226 758 
Q 1494 397 1959 397 
Q 2419 397 2687 759 
Q 2956 1122 2956 1747 
Q 2956 2369 2687 2733 
Q 2419 3097 1959 3097 
z
M 1959 3584 
Q 2709 3584 3137 3096 
Q 3566 2609 3566 1747 
Q 3566 888 3137 398 
Q 2709 -91 1959 -91 
Q 1206 -91 779 398 
Q 353 888 353 1747 
Q 353 2609 779 3096 
Q 1206 3584 1959 3584 
z
" transform="scale(0.015625)"/>
      <path id="DejaVuSans-64" d="M 2906 2969 
L 2906 4863 
L 3481 4863 
L 3481 0 
L 2906 0 
L 2906 525 
Q 2725 213 2448 61 
Q 2172 -91 1784 -91 
Q 1150 -91 751 415 
Q 353 922 353 1747 
Q 353 2572 751 3078 
Q 1150 3584 1784 3584 
Q 2172 3584 2448 3432 
Q 2725 3281 2906 2969 
z
M 947 1747 
Q 947 1113 1208 752 
Q 1469 391 1925 391 
Q 2381 391 2643 752 
Q 2906 1113 2906 1747 
Q 2906 2381 2643 2742 
Q 2381 3103 1925 3103 
Q 1469 3103 1208 2742 
Q 947 2381 947 1747 
z
" transform="scale(0.015625)"/>
      <path id="DejaVuSans-53" d="M 3425 4513 
L 3425 3897 
Q 3066 4069 2747 4153 
Q 2428 4238 2131 4238 
Q 1616 4238 1336 4038 
Q 1056 3838 1056 3469 
Q 1056 3159 1242 3001 
Q 1428 2844 1947 2747 
L 2328 2669 
Q 3034 2534 3370 2195 
Q 3706 1856 3706 1288 
Q 3706 609 3251 259 
Q 2797 -91 1919 -91 
Q 1588 -91 1214 -16 
Q 841 59 441 206 
L 441 856 
Q 825 641 1194 531 
Q 1563 422 1919 422 
Q 2459 422 2753 634 
Q 3047 847 3047 1241 
Q 3047 1584 2836 1778 
Q 2625 1972 2144 2069 
L 1759 2144 
Q 1053 2284 737 2584 
Q 422 2884 422 3419 
Q 422 4038 858 4394 
Q 1294 4750 2059 4750 
Q 2388 4750 2728 4690 
Q 3069 4631 3425 4513 
z
" transform="scale(0.015625)"/>
      <path id="DejaVuSans-43" d="M 4122 4306 
L 4122 3641 
Q 3803 3938 3442 4084 
Q 3081 4231 2675 4231 
Q 1875 4231 1450 3742 
Q 1025 3253 1025 2328 
Q 1025 1406 1450 917 
Q 1875 428 2675 428 
Q 3081 428 3442 575 
Q 3803 722 4122 1019 
L 4122 359 
Q 3791 134 3420 21 
Q 3050 -91 2638 -91 
Q 1578 -91 968 557 
Q 359 1206 359 2328 
Q 359 3453 968 4101 
Q 1578 4750 2638 4750 
Q 3056 4750 3426 4639 
Q 3797 4528 4122 4306 
z
" transform="scale(0.015625)"/>
     </defs>
     <use xlink:href="#DejaVuSans-46"/>
     <use xlink:href="#DejaVuSans-61" transform="translate(48.394531 0)"/>
     <use xlink:href="#DejaVuSans-63" transform="translate(109.673828 0)"/>
     <use xlink:href="#DejaVuSans-69" transform="translate(164.654297 0)"/>
     <use xlink:href="#DejaVuSans-61" transform="translate(192.4375 0)"/>
     <use xlink:href="#DejaVuSans-6c" transform="translate(253.716797 0)"/>
     <use xlink:href="#DejaVuSans-20" transform="translate(281.5 0)"/>
     <use xlink:href="#DejaVuSans-74" transform="translate(313.287109 0)"/>
     <use xlink:href="#DejaVuSans-72" transform="translate(352.496094 0)"/>
     <use xlink:href="#DejaVuSans-61" transform="translate(393.609375 0)"/>
     <use xlink:href="#DejaVuSans-63" transform="translate(454.888672 0)"/>
     <use xlink:href="#DejaVuSans-65" transform="translate(509.869141 0)"/>
     <use xlink:href="#DejaVuSans-3a" transform="translate(571.392578 0)"/>
     <use xlink:href="#DejaVuSans-20" transform="translate(605.083984 0)"/>
     <use xlink:href="#DejaVuSans-41" transform="translate(636.871094 0)"/>
     <use xlink:href="#DejaVuSans-75" transform="translate(705.279297 0)"/>
     <use xlink:href="#DejaVuSans-74" transform="translate(768.658203 0)"/>
     <use xlink:href="#DejaVuSans-69" transform="translate(807.867188 0)"/>
     <use xlink:href="#DejaVuSans-73" transform="translate(835.650391 0)"/>
     <use xlink:href="#DejaVuSans-6d" transform="translate(887.75 0)"/>
     <use xlink:href="#DejaVuSans-20" transform="translate(985.162109 0)"/>
     <use xlink:href="#DejaVuSans-73" transform="translate(1016.949219 0)"/>
     <use xlink:href="#DejaVuSans-70" transform="translate(1069.048828 0)"/>
     <use xlink:href="#DejaVuSans-65" transform="translate(1132.525391 0)"/>
     <use xlink:href="#DejaVuSans-63" transform="translate(1194.048828 0)"/>
     <use xlink:href="#DejaVuSans-74" transform="translate(1249.029297 0)"/>
     <use xlink:href="#DejaVuSans-72" transform="translate(1288.238281 0)"/>
     <use xlink:href="#DejaVuSans-75" transform="translate(1329.351562 0)"/>
     <use xlink:href="#DejaVuSans-6d" transform="translate(1392.730469 0)"/>
     <use xlink:href="#DejaVuSans-20" transform="translate(1490.142578 0)"/>
     <use xlink:href="#DejaVuSans-63" transform="translate(1521.929688 0)"/>
     <use xlink:href="#DejaVuSans-6f" transform="translate(1576.910156 0)"/>
     <use xlink:href="#DejaVuSans-6e" transform="translate(1638.091797 0)"/>
     <use xlink:href="#DejaVuSans-64" transform="translate(1701.470703 0)"/>
     <use xlink:href="#DejaVuSans-69" transform="translate(1764.947266 0)"/>
     <use xlink:href="#DejaVuSans-74" transform="translate(1792.730469 0)"/>
     <use xlink:href="#DejaVuSans-69" transform="translate(1831.939453 0)"/>
     <use xlink:href="#DejaVuSans-6f" transform="translate(1859.722656 0)"/>
     <use xlink:href="#DejaVuSans-6e" transform="translate(1920.904297 0)"/>
     <use xlink:href="#DejaVuSans-20" transform="translate(1984.283203 0)"/>
     <use xlink:href="#DejaVuSans-28" transform="translate(2016.070312 0)"/>
     <use xlink:href="#DejaVuSans-41" transform="translate(2055.083984 0)"/>
     <use xlink:href="#DejaVuSans-53" transform="translate(2123.492188 0)"/>
     <use xlink:href="#DejaVuSans-43" transform="translate(2186.96875 0)"/>
     <use xlink:href="#DejaVuSans-29" transform="translate(2256.792969 0)"/>
    </g>
   </g>
   <g id="legend_1">
    <g id="patch_7">
     <path d="M 443.795938 42.096094 
L 465.795938 42.096094 
L 465.795938 34.396094 
L 443.795938 34.396094 
z
" style="fill: #d3d3d3; fill-opacity: 0.5; stroke: #d3d3d3; stroke-opacity: 0.5; stroke-linejoin: miter"/>
    </g>
    <g id="text_19">
     <!-- Autism spectrum condition (ASC) ±2 SD -->
     <g transform="translate(474.595938 42.096094) scale(0.11 -0.11)">
      <defs>
       <path id="DejaVuSans-b1" d="M 2944 4013 
L 2944 2803 
L 4684 2803 
L 4684 2272 
L 2944 2272 
L 2944 1063 
L 2419 1063 
L 2419 2272 
L 678 2272 
L 678 2803 
L 2419 2803 
L 2419 4013 
L 2944 4013 
z
M 678 531 
L 4684 531 
L 4684 0 
L 678 0 
L 678 531 
z
" transform="scale(0.015625)"/>
       <path id="DejaVuSans-44" d="M 1259 4147 
L 1259 519 
L 2022 519 
Q 2988 519 3436 956 
Q 3884 1394 3884 2338 
Q 3884 3275 3436 3711 
Q 2988 4147 2022 4147 
L 1259 4147 
z
M 628 4666 
L 1925 4666 
Q 3281 4666 3915 4102 
Q 4550 3538 4550 2338 
Q 4550 1131 3912 565 
Q 3275 0 1925 0 
L 628 0 
L 628 4666 
z
" transform="scale(0.015625)"/>
      </defs>
      <use xlink:href="#DejaVuSans-41"/>
      <use xlink:href="#DejaVuSans-75" transform="translate(68.408203 0)"/>
      <use xlink:href="#DejaVuSans-74" transform="translate(131.787109 0)"/>
      <use xlink:href="#DejaVuSans-69" transform="translate(170.996094 0)"/>
      <use xlink:href="#DejaVuSans-73" transform="translate(198.779297 0)"/>
      <use xlink:href="#DejaVuSans-6d" transform="translate(250.878906 0)"/>
      <use xlink:href="#DejaVuSans-20" transform="translate(348.291016 0)"/>
      <use xlink:href="#DejaVuSans-73" transform="translate(380.078125 0)"/>
      <use xlink:href="#DejaVuSans-70" transform="translate(432.177734 0)"/>
      <use xlink:href="#DejaVuSans-65" transform="translate(495.654297 0)"/>
      <use xlink:href="#DejaVuSans-63" transform="translate(557.177734 0)"/>
      <use xlink:href="#DejaVuSans-74" transform="translate(612.158203 0)"/>
      <use xlink:href="#DejaVuSans-72" transform="translate(651.367188 0)"/>
      <use xlink:href="#DejaVuSans-75" transform="translate(692.480469 0)"/>
      <use xlink:href="#DejaVuSans-6d" transform="translate(755.859375 0)"/>
      <use xlink:href="#DejaVuSans-20" transform="translate(853.271484 0)"/>
      <use xlink:href="#DejaVuSans-63" transform="translate(885.058594 0)"/>
      <use xlink:href="#DejaVuSans-6f" transform="translate(940.039062 0)"/>
      <use xlink:href="#DejaVuSans-6e" transform="translate(1001.220703 0)"/>
      <use xlink:href="#DejaVuSans-64" transform="translate(1064.599609 0)"/>
      <use xlink:href="#DejaVuSans-69" transform="translate(1128.076172 0)"/>
      <use xlink:href="#DejaVuSans-74" transform="translate(1155.859375 0)"/>
      <use xlink:href="#DejaVuSans-69" transform="translate(1195.068359 0)"/>
      <use xlink:href="#DejaVuSans-6f" transform="translate(1222.851562 0)"/>
      <use xlink:href="#DejaVuSans-6e" transform="translate(1284.033203 0)"/>
      <use xlink:href="#DejaVuSans-20" transform="translate(1347.412109 0)"/>
      <use xlink:href="#DejaVuSans-28" transform="translate(1379.199219 0)"/>
      <use xlink:href="#DejaVuSans-41" transform="translate(1418.212891 0)"/>
      <use xlink:href="#DejaVuSans-53" transform="translate(1486.621094 0)"/>
      <use xlink:href="#DejaVuSans-43" transform="translate(1550.097656 0)"/>
      <use xlink:href="#DejaVuSans-29" transform="translate(1619.921875 0)"/>
      <use xlink:href="#DejaVuSans-20" transform="translate(1658.935547 0)"/>
      <use xlink:href="#DejaVuSans-b1" transform="translate(1690.722656 0)"/>
      <use xlink:href="#DejaVuSans-32" transform="translate(1774.511719 0)"/>
      <use xlink:href="#DejaVuSans-20" transform="translate(1838.134766 0)"/>
      <use xlink:href="#DejaVuSans-53" transform="translate(1869.921875 0)"/>
      <use xlink:href="#DejaVuSans-44" transform="translate(1933.398438 0)"/>
     </g>
    </g>
    <g id="patch_8">
     <path d="M 443.795938 58.242031 
L 465.795938 58.242031 
L 465.795938 50.542031 
L 443.795938 50.542031 
z
" style="fill: #808080; fill-opacity: 0.7; stroke: #808080; stroke-opacity: 0.7; stroke-linejoin: miter"/>
    </g>
    <g id="text_20">
     <!-- Autism spectrum condition (ASC) ±1 SD -->
     <g transform="translate(474.595938 58.242031) scale(0.11 -0.11)">
      <use xlink:href="#DejaVuSans-41"/>
      <use xlink:href="#DejaVuSans-75" transform="translate(68.408203 0)"/>
      <use xlink:href="#DejaVuSans-74" transform="translate(131.787109 0)"/>
      <use xlink:href="#DejaVuSans-69" transform="translate(170.996094 0)"/>
      <use xlink:href="#DejaVuSans-73" transform="translate(198.779297 0)"/>
      <use xlink:href="#DejaVuSans-6d" transform="translate(250.878906 0)"/>
      <use xlink:href="#DejaVuSans-20" transform="translate(348.291016 0)"/>
      <use xlink:href="#DejaVuSans-73" transform="translate(380.078125 0)"/>
      <use xlink:href="#DejaVuSans-70" transform="translate(432.177734 0)"/>
      <use xlink:href="#DejaVuSans-65" transform="translate(495.654297 0)"/>
      <use xlink:href="#DejaVuSans-63" transform="translate(557.177734 0)"/>
      <use xlink:href="#DejaVuSans-74" transform="translate(612.158203 0)"/>
      <use xlink:href="#DejaVuSans-72" transform="translate(651.367188 0)"/>
      <use xlink:href="#DejaVuSans-75" transform="translate(692.480469 0)"/>
      <use xlink:href="#DejaVuSans-6d" transform="translate(755.859375 0)"/>
      <use xlink:href="#DejaVuSans-20" transform="translate(853.271484 0)"/>
      <use xlink:href="#DejaVuSans-63" transform="translate(885.058594 0)"/>
      <use xlink:href="#DejaVuSans-6f" transform="translate(940.039062 0)"/>
      <use xlink:href="#DejaVuSans-6e" transform="translate(1001.220703 0)"/>
      <use xlink:href="#DejaVuSans-64" transform="translate(1064.599609 0)"/>
      <use xlink:href="#DejaVuSans-69" transform="translate(1128.076172 0)"/>
      <use xlink:href="#DejaVuSans-74" transform="translate(1155.859375 0)"/>
      <use xlink:href="#DejaVuSans-69" transform="translate(1195.068359 0)"/>
      <use xlink:href="#DejaVuSans-6f" transform="translate(1222.851562 0)"/>
      <use xlink:href="#DejaVuSans-6e" transform="translate(1284.033203 0)"/>
      <use xlink:href="#DejaVuSans-20" transform="translate(1347.412109 0)"/>
      <use xlink:href="#DejaVuSans-28" transform="translate(1379.199219 0)"/>
      <use xlink:href="#DejaVuSans-41" transform="translate(1418.212891 0)"/>
      <use xlink:href="#DejaVuSans-53" transform="translate(1486.621094 0)"/>
      <use xlink:href="#DejaVuSans-43" transform="translate(1550.097656 0)"/>
      <use xlink:href="#DejaVuSans-29" transform="translate(1619.921875 0)"/>
      <use xlink:href="#DejaVuSans-20" transform="translate(1658.935547 0)"/>
      <use xlink:href="#DejaVuSans-b1" transform="translate(1690.722656 0)"/>
      <use xlink:href="#DejaVuSans-31" transform="translate(1774.511719 0)"/>
      <use xlink:href="#DejaVuSans-20" transform="translate(1838.134766 0)"/>
      <use xlink:href="#DejaVuSans-53" transform="translate(1869.921875 0)"/>
      <use xlink:href="#DejaVuSans-44" transform="translate(1933.398438 0)"/>
     </g>
    </g>
    <g id="line2d_34">
     <path d="M 443.795938 70.537969 
L 454.795938 70.537969 
L 465.795938 70.537969 
" style="fill: none; stroke: #ff8c00; stroke-width: 2.3; stroke-linecap: square"/>
    </g>
    <g id="text_21">
     <!-- Patient -->
     <g transform="translate(474.595938 74.387969) scale(0.11 -0.11)">
      <defs>
       <path id="DejaVuSans-50" d="M 1259 4147 
L 1259 2394 
L 2053 2394 
Q 2494 2394 2734 2622 
Q 2975 2850 2975 3272 
Q 2975 3691 2734 3919 
Q 2494 4147 2053 4147 
L 1259 4147 
z
M 628 4666 
L 2053 4666 
Q 2838 4666 3239 4311 
Q 3641 3956 3641 3272 
Q 3641 2581 3239 2228 
Q 2838 1875 2053 1875 
L 1259 1875 
L 1259 0 
L 628 0 
L 628 4666 
z
" transform="scale(0.015625)"/>
      </defs>
      <use xlink:href="#DejaVuSans-50"/>
      <use xlink:href="#DejaVuSans-61" transform="translate(55.802734 0)"/>
      <use xlink:href="#DejaVuSans-74" transform="translate(117.082031 0)"/>
      <use xlink:href="#DejaVuSans-69" transform="translate(156.291016 0)"/>
      <use xlink:href="#DejaVuSans-65" transform="translate(184.074219 0)"/>
      <use xlink:href="#DejaVuSans-6e" transform="translate(245.597656 0)"/>
      <use xlink:href="#DejaVuSans-74" transform="translate(308.976562 0)"/>
     </g>
    </g>
   </g>
  </g>
 </g>
 <defs>
  <clipPath id="p0f34d1f832">
   <rect x="47.307188" y="23.837812" width="658.33" height="360.28"/>
  </clipPath>
 </defs>
</svg>
