<?xml version="1.0" encoding="utf-8" standalone="no"?>
<!DOCTYPE svg PUBLIC "-//W3C//DTD SVG 1.1//EN"
  "http://www.w3.org/Graphics/SVG/1.1/DTD/svg11.dtd">
<svg xmlns:xlink="http://www.w3.org/1999/xlink" width="712.837188pt" height="424.5775pt" viewBox="0 0 712.837188 424.5775" xmlns="http://www.w3.org/2000/svg" version="1.1">
 <metadata>
  <rdf:RDF xmlns:dc="http://purl.org/dc/elements/1.1/" xmlns:cc="http://creativecommons.org/ns#" xmlns:rdf="http://www.w3.org/1999/02/22-rdf-syntax-ns#">
   <cc:Work>
    <dc:type rdf:resource="http://purl.org/dc/dcmitype/StillImage"/>
    <dc:date>2026-06-23T21:45:40.568225</dc:date>
    <dc:format>image/svg+xml</dc:format>
    <dc:creator>
     <cc:Agent>
      <dc:title>Matplotlib v3.10.1, https://matplotlib.org/</dc:title>
     </cc:Agent>
    </dc:creator>
   </cc:Work>
  </rdf:RDF>
 </metadata>
 <defs>
  <style type="text/css">*{stroke-linejoin: round; stroke-linecap: butt}</style>
 </defs>
 <g id="figure_1">
  <g id="patch_1">
   <path d="M 0 424.5775 
L 712.837188 424.5775 
L 712.837188 0 
L 0 0 
z
" style="fill: #ffffff"/>
  </g>
  <g id="axes_1">
   <g id="patch_2">
    <path d="M 47.307188 384.117812 
L 705.637188 384.117812 
L 705.637188 23.837812 
L 47.307188 23.837812 
z
" style="fill: #ffffff"/>
   </g>
   <g id="matplotlib.axis_1">
    <g id="xtick_1">
     <g id="line2d_1">
      <path d="M 47.307188 384.117812 
L 47.307188 23.837812 
" clip-path="url(#p974197e094)" style="fill: none; stroke: #b0b0b0; stroke-opacity: 0.2; stroke-width: 0.6; stroke-linecap: square"/>
     </g>
     <g id="line2d_2">
      <defs>
       <path id="m3d4f3819f1" d="M 0 0 
L 0 3.5 
" style="stroke: #000000; stroke-width: 0.8"/>
      </defs>
      <g>
       <use xlink:href="#m3d4f3819f1" x="47.307188" y="384.117812" style="stroke: #000000; stroke-width: 0.8"/>
      </g>
     </g>
     <g id="text_1">
      <!-- 0 -->
      <g transform="translate(43.807813 399.476094) scale(0.11 -0.11)">
       <defs>
        <path id="DejaVuSans-30" d="M 2034 4250 
Q 1547 4250 1301 3770 
Q 1056 3291 1056 2328 
Q 1056 1369 1301 889 
Q 1547 409 2034 409 
Q 2525 409 2770 889 
Q 3016 1369 3016 2328 
Q 3016 3291 2770 3770 
Q 2525 4250 2034 4250 
z
M 2034 4750 
Q 2819 4750 3233 4129 
Q 3647 3509 3647 2328 
Q 3647 1150 3233 529 
Q 2819 -91 2034 -91 
Q 1250 -91 836 529 
Q 422 1150 422 2328 
Q 422 3509 836 4129 
Q 1250 4750 2034 4750 
z
" transform="scale(0.015625)"/>
       </defs>
       <use xlink:href="#DejaVuSans-30"/>
      </g>
     </g>
    </g>
    <g id="xtick_2">
     <g id="line2d_3">
      <path d="M 134.387875 384.117812 
L 134.387875 23.837812 
" clip-path="url(#p974197e094)" style="fill: none; stroke: #b0b0b0; stroke-opacity: 0.2; stroke-width: 0.6; stroke-linecap: square"/>
     </g>
     <g id="line2d_4">
      <g>
       <use xlink:href="#m3d4f3819f1" x="134.387875" y="384.117812" style="stroke: #000000; stroke-width: 0.8"/>
      </g>
     </g>
     <g id="text_2">
      <!-- 25 -->
      <g transform="translate(127.389125 399.476094) scale(0.11 -0.11)">
       <defs>
        <path id="DejaVuSans-32" d="M 1228 531 
L 3431 531 
L 3431 0 
L 469 0 
L 469 531 
Q 828 903 1448 1529 
Q 2069 2156 2228 2338 
Q 2531 2678 2651 2914 
Q 2772 3150 2772 3378 
Q 2772 3750 2511 3984 
Q 2250 4219 1831 4219 
Q 1534 4219 1204 4116 
Q 875 4013 500 3803 
L 500 4441 
Q 881 4594 1212 4672 
Q 1544 4750 1819 4750 
Q 2544 4750 2975 4387 
Q 3406 4025 3406 3419 
Q 3406 3131 3298 2873 
Q 3191 2616 2906 2266 
Q 2828 2175 2409 1742 
Q 1991 1309 1228 531 
z
" transform="scale(0.015625)"/>
        <path id="DejaVuSans-35" d="M 691 4666 
L 3169 4666 
L 3169 4134 
L 1269 4134 
L 1269 2991 
Q 1406 3038 1543 3061 
Q 1681 3084 1819 3084 
Q 2600 3084 3056 2656 
Q 3513 2228 3513 1497 
Q 3513 744 3044 326 
Q 2575 -91 1722 -91 
Q 1428 -91 1123 -41 
Q 819 9 494 109 
L 494 744 
Q 775 591 1075 516 
Q 1375 441 1709 441 
Q 2250 441 2565 725 
Q 2881 1009 2881 1497 
Q 2881 1984 2565 2268 
Q 2250 2553 1709 2553 
Q 1456 2553 1204 2497 
Q 953 2441 691 2322 
L 691 4666 
z
" transform="scale(0.015625)"/>
       </defs>
       <use xlink:href="#DejaVuSans-32"/>
       <use xlink:href="#DejaVuSans-35" transform="translate(63.623047 0)"/>
      </g>
     </g>
    </g>
    <g id="xtick_3">
     <g id="line2d_5">
      <path d="M 221.468563 384.117812 
L 221.468563 23.837812 
" clip-path="url(#p974197e094)" style="fill: none; stroke: #b0b0b0; stroke-opacity: 0.2; stroke-width: 0.6; stroke-linecap: square"/>
     </g>
     <g id="line2d_6">
      <g>
       <use xlink:href="#m3d4f3819f1" x="221.468563" y="384.117812" style="stroke: #000000; stroke-width: 0.8"/>
      </g>
     </g>
     <g id="text_3">
      <!-- 50 -->
      <g transform="translate(214.469813 399.476094) scale(0.11 -0.11)">
       <use xlink:href="#DejaVuSans-35"/>
       <use xlink:href="#DejaVuSans-30" transform="translate(63.623047 0)"/>
      </g>
     </g>
    </g>
    <g id="xtick_4">
     <g id="line2d_7">
      <path d="M 308.549251 384.117812 
L 308.549251 23.837812 
" clip-path="url(#p974197e094)" style="fill: none; stroke: #b0b0b0; stroke-opacity: 0.2; stroke-width: 0.6; stroke-linecap: square"/>
     </g>
     <g id="line2d_8">
      <g>
       <use xlink:href="#m3d4f3819f1" x="308.549251" y="384.117812" style="stroke: #000000; stroke-width: 0.8"/>
      </g>
     </g>
     <g id="text_4">
      <!-- 75 -->
      <g transform="translate(301.550501 399.476094) scale(0.11 -0.11)">
       <defs>
        <path id="DejaVuSans-37" d="M 525 4666 
L 3525 4666 
L 3525 4397 
L 1831 0 
L 1172 0 
L 2766 4134 
L 525 4134 
L 525 4666 
z
" transform="scale(0.015625)"/>
       </defs>
       <use xlink:href="#DejaVuSans-37"/>
       <use xlink:href="#DejaVuSans-35" transform="translate(63.623047 0)"/>
      </g>
     </g>
    </g>
    <g id="xtick_5">
     <g id="line2d_9">
      <path d="M 395.629939 384.117812 
L 395.629939 23.837812 
" clip-path="url(#p974197e094)" style="fill: none; stroke: #b0b0b0; stroke-opacity: 0.2; stroke-width: 0.6; stroke-linecap: square"/>
     </g>
     <g id="line2d_10">
      <g>
       <use xlink:href="#m3d4f3819f1" x="395.629939" y="384.117812" style="stroke: #000000; stroke-width: 0.8"/>
      </g>
     </g>
     <g id="text_5">
      <!-- 100 -->
      <g transform="translate(385.131814 399.476094) scale(0.11 -0.11)">
       <defs>
        <path id="DejaVuSans-31" d="M 794 531 
L 1825 531 
L 1825 4091 
L 703 3866 
L 703 4441 
L 1819 4666 
L 2450 4666 
L 2450 531 
L 3481 531 
L 3481 0 
L 794 0 
L 794 531 
z
" transform="scale(0.015625)"/>
       </defs>
       <use xlink:href="#DejaVuSans-31"/>
       <use xlink:href="#DejaVuSans-30" transform="translate(63.623047 0)"/>
       <use xlink:href="#DejaVuSans-30" transform="translate(127.246094 0)"/>
      </g>
     </g>
    </g>
    <g id="xtick_6">
     <g id="line2d_11">
      <path d="M 482.710627 384.117812 
L 482.710627 23.837812 
" clip-path="url(#p974197e094)" style="fill: none; stroke: #b0b0b0; stroke-opacity: 0.2; stroke-width: 0.6; stroke-linecap: square"/>
     </g>
     <g id="line2d_12">
      <g>
       <use xlink:href="#m3d4f3819f1" x="482.710627" y="384.117812" style="stroke: #000000; stroke-width: 0.8"/>
      </g>
     </g>
     <g id="text_6">
      <!-- 125 -->
      <g transform="translate(472.212502 399.476094) scale(0.11 -0.11)">
       <use xlink:href="#DejaVuSans-31"/>
       <use xlink:href="#DejaVuSans-32" transform="translate(63.623047 0)"/>
       <use xlink:href="#DejaVuSans-35" transform="translate(127.246094 0)"/>
      </g>
     </g>
    </g>
    <g id="xtick_7">
     <g id="line2d_13">
      <path d="M 569.791314 384.117812 
L 569.791314 23.837812 
" clip-path="url(#p974197e094)" style="fill: none; stroke: #b0b0b0; stroke-opacity: 0.2; stroke-width: 0.6; stroke-linecap: square"/>
     </g>
     <g id="line2d_14">
      <g>
       <use xlink:href="#m3d4f3819f1" x="569.791314" y="384.117812" style="stroke: #000000; stroke-width: 0.8"/>
      </g>
     </g>
     <g id="text_7">
      <!-- 150 -->
      <g transform="translate(559.293189 399.476094) scale(0.11 -0.11)">
       <use xlink:href="#DejaVuSans-31"/>
       <use xlink:href="#DejaVuSans-35" transform="translate(63.623047 0)"/>
       <use xlink:href="#DejaVuSans-30" transform="translate(127.246094 0)"/>
      </g>
     </g>
    </g>
    <g id="xtick_8">
     <g id="line2d_15">
      <path d="M 656.872002 384.117812 
L 656.872002 23.837812 
" clip-path="url(#p974197e094)" style="fill: none; stroke: #b0b0b0; stroke-opacity: 0.2; stroke-width: 0.6; stroke-linecap: square"/>
     </g>
     <g id="line2d_16">
      <g>
       <use xlink:href="#m3d4f3819f1" x="656.872002" y="384.117812" style="stroke: #000000; stroke-width: 0.8"/>
      </g>
     </g>
     <g id="text_8">
      <!-- 175 -->
      <g transform="translate(646.373877 399.476094) scale(0.11 -0.11)">
       <use xlink:href="#DejaVuSans-31"/>
       <use xlink:href="#DejaVuSans-37" transform="translate(63.623047 0)"/>
       <use xlink:href="#DejaVuSans-35" transform="translate(127.246094 0)"/>
      </g>
     </g>
    </g>
    <g id="text_9">
     <!-- Time (s) -->
     <g transform="translate(352.0775 414.881875) scale(0.12 -0.12)">
      <defs>
       <path id="DejaVuSans-54" d="M -19 4666 
L 3928 4666 
L 3928 4134 
L 2272 4134 
L 2272 0 
L 1638 0 
L 1638 4134 
L -19 4134 
L -19 4666 
z
" transform="scale(0.015625)"/>
       <path id="DejaVuSans-69" d="M 603 3500 
L 1178 3500 
L 1178 0 
L 603 0 
L 603 3500 
z
M 603 4863 
L 1178 4863 
L 1178 4134 
L 603 4134 
L 603 4863 
z
" transform="scale(0.015625)"/>
       <path id="DejaVuSans-6d" d="M 3328 2828 
Q 3544 3216 3844 3400 
Q 4144 3584 4550 3584 
Q 5097 3584 5394 3201 
Q 5691 2819 5691 2113 
L 5691 0 
L 5113 0 
L 5113 2094 
Q 5113 2597 4934 2840 
Q 4756 3084 4391 3084 
Q 3944 3084 3684 2787 
Q 3425 2491 3425 1978 
L 3425 0 
L 2847 0 
L 2847 2094 
Q 2847 2600 2669 2842 
Q 2491 3084 2119 3084 
Q 1678 3084 1418 2786 
Q 1159 2488 1159 1978 
L 1159 0 
L 581 0 
L 581 3500 
L 1159 3500 
L 1159 2956 
Q 1356 3278 1631 3431 
Q 1906 3584 2284 3584 
Q 2666 3584 2933 3390 
Q 3200 3197 3328 2828 
z
" transform="scale(0.015625)"/>
       <path id="DejaVuSans-65" d="M 3597 1894 
L 3597 1613 
L 953 1613 
Q 991 1019 1311 708 
Q 1631 397 2203 397 
Q 2534 397 2845 478 
Q 3156 559 3463 722 
L 3463 178 
Q 3153 47 2828 -22 
Q 2503 -91 2169 -91 
Q 1331 -91 842 396 
Q 353 884 353 1716 
Q 353 2575 817 3079 
Q 1281 3584 2069 3584 
Q 2775 3584 3186 3129 
Q 3597 2675 3597 1894 
z
M 3022 2063 
Q 3016 2534 2758 2815 
Q 2500 3097 2075 3097 
Q 1594 3097 1305 2825 
Q 1016 2553 972 2059 
L 3022 2063 
z
" transform="scale(0.015625)"/>
       <path id="DejaVuSans-20" transform="scale(0.015625)"/>
       <path id="DejaVuSans-28" d="M 1984 4856 
Q 1566 4138 1362 3434 
Q 1159 2731 1159 2009 
Q 1159 1288 1364 580 
Q 1569 -128 1984 -844 
L 1484 -844 
Q 1016 -109 783 600 
Q 550 1309 550 2009 
Q 550 2706 781 3412 
Q 1013 4119 1484 4856 
L 1984 4856 
z
" transform="scale(0.015625)"/>
       <path id="DejaVuSans-73" d="M 2834 3397 
L 2834 2853 
Q 2591 2978 2328 3040 
Q 2066 3103 1784 3103 
Q 1356 3103 1142 2972 
Q 928 2841 928 2578 
Q 928 2378 1081 2264 
Q 1234 2150 1697 2047 
L 1894 2003 
Q 2506 1872 2764 1633 
Q 3022 1394 3022 966 
Q 3022 478 2636 193 
Q 2250 -91 1575 -91 
Q 1294 -91 989 -36 
Q 684 19 347 128 
L 347 722 
Q 666 556 975 473 
Q 1284 391 1588 391 
Q 1994 391 2212 530 
Q 2431 669 2431 922 
Q 2431 1156 2273 1281 
Q 2116 1406 1581 1522 
L 1381 1569 
Q 847 1681 609 1914 
Q 372 2147 372 2553 
Q 372 3047 722 3315 
Q 1072 3584 1716 3584 
Q 2034 3584 2315 3537 
Q 2597 3491 2834 3397 
z
" transform="scale(0.015625)"/>
       <path id="DejaVuSans-29" d="M 513 4856 
L 1013 4856 
Q 1481 4119 1714 3412 
Q 1947 2706 1947 2009 
Q 1947 1309 1714 600 
Q 1481 -109 1013 -844 
L 513 -844 
Q 928 -128 1133 580 
Q 1338 1288 1338 2009 
Q 1338 2731 1133 3434 
Q 928 4138 513 4856 
z
" transform="scale(0.015625)"/>
      </defs>
      <use xlink:href="#DejaVuSans-54"/>
      <use xlink:href="#DejaVuSans-69" transform="translate(57.958984 0)"/>
      <use xlink:href="#DejaVuSans-6d" transform="translate(85.742188 0)"/>
      <use xlink:href="#DejaVuSans-65" transform="translate(183.154297 0)"/>
      <use xlink:href="#DejaVuSans-20" transform="translate(244.677734 0)"/>
      <use xlink:href="#DejaVuSans-28" transform="translate(276.464844 0)"/>
      <use xlink:href="#DejaVuSans-73" transform="translate(315.478516 0)"/>
      <use xlink:href="#DejaVuSans-29" transform="translate(367.578125 0)"/>
     </g>
    </g>
   </g>
   <g id="matplotlib.axis_2">
    <g id="ytick_1">
     <g id="line2d_17">
      <path d="M 47.307188 367.741449 
L 705.637188 367.741449 
" clip-path="url(#p974197e094)" style="fill: none; stroke: #b0b0b0; stroke-opacity: 0.2; stroke-width: 0.6; stroke-linecap: square"/>
     </g>
     <g id="line2d_18">
      <defs>
       <path id="mfd7c092d80" d="M 0 0 
L -3.5 0 
" style="stroke: #000000; stroke-width: 0.8"/>
      </defs>
      <g>
       <use xlink:href="#mfd7c092d80" x="47.307188" y="367.741449" style="stroke: #000000; stroke-width: 0.8"/>
      </g>
     </g>
     <g id="text_10">
      <!-- 0.0 -->
      <g transform="translate(22.81375 371.920589) scale(0.11 -0.11)">
       <defs>
        <path id="DejaVuSans-2e" d="M 684 794 
L 1344 794 
L 1344 0 
L 684 0 
L 684 794 
z
" transform="scale(0.015625)"/>
       </defs>
       <use xlink:href="#DejaVuSans-30"/>
       <use xlink:href="#DejaVuSans-2e" transform="translate(63.623047 0)"/>
       <use xlink:href="#DejaVuSans-30" transform="translate(95.410156 0)"/>
      </g>
     </g>
    </g>
    <g id="ytick_2">
     <g id="line2d_19">
      <path d="M 47.307188 317.507205 
L 705.637188 317.507205 
" clip-path="url(#p974197e094)" style="fill: none; stroke: #b0b0b0; stroke-opacity: 0.2; stroke-width: 0.6; stroke-linecap: square"/>
     </g>
     <g id="line2d_20">
      <g>
       <use xlink:href="#mfd7c092d80" x="47.307188" y="317.507205" style="stroke: #000000; stroke-width: 0.8"/>
      </g>
     </g>
     <g id="text_11">
      <!-- 0.5 -->
      <g transform="translate(22.81375 321.686345) scale(0.11 -0.11)">
       <use xlink:href="#DejaVuSans-30"/>
       <use xlink:href="#DejaVuSans-2e" transform="translate(63.623047 0)"/>
       <use xlink:href="#DejaVuSans-35" transform="translate(95.410156 0)"/>
      </g>
     </g>
    </g>
    <g id="ytick_3">
     <g id="line2d_21">
      <path d="M 47.307188 267.27296 
L 705.637188 267.27296 
" clip-path="url(#p974197e094)" style="fill: none; stroke: #b0b0b0; stroke-opacity: 0.2; stroke-width: 0.6; stroke-linecap: square"/>
     </g>
     <g id="line2d_22">
      <g>
       <use xlink:href="#mfd7c092d80" x="47.307188" y="267.27296" style="stroke: #000000; stroke-width: 0.8"/>
      </g>
     </g>
     <g id="text_12">
      <!-- 1.0 -->
      <g transform="translate(22.81375 271.452101) scale(0.11 -0.11)">
       <use xlink:href="#DejaVuSans-31"/>
       <use xlink:href="#DejaVuSans-2e" transform="translate(63.623047 0)"/>
       <use xlink:href="#DejaVuSans-30" transform="translate(95.410156 0)"/>
      </g>
     </g>
    </g>
    <g id="ytick_4">
     <g id="line2d_23">
      <path d="M 47.307188 217.038716 
L 705.637188 217.038716 
" clip-path="url(#p974197e094)" style="fill: none; stroke: #b0b0b0; stroke-opacity: 0.2; stroke-width: 0.6; stroke-linecap: square"/>
     </g>
     <g id="line2d_24">
      <g>
       <use xlink:href="#mfd7c092d80" x="47.307188" y="217.038716" style="stroke: #000000; stroke-width: 0.8"/>
      </g>
     </g>
     <g id="text_13">
      <!-- 1.5 -->
      <g transform="translate(22.81375 221.217857) scale(0.11 -0.11)">
       <use xlink:href="#DejaVuSans-31"/>
       <use xlink:href="#DejaVuSans-2e" transform="translate(63.623047 0)"/>
       <use xlink:href="#DejaVuSans-35" transform="translate(95.410156 0)"/>
      </g>
     </g>
    </g>
    <g id="ytick_5">
     <g id="line2d_25">
      <path d="M 47.307188 166.804472 
L 705.637188 166.804472 
" clip-path="url(#p974197e094)" style="fill: none; stroke: #b0b0b0; stroke-opacity: 0.2; stroke-width: 0.6; stroke-linecap: square"/>
     </g>
     <g id="line2d_26">
      <g>
       <use xlink:href="#mfd7c092d80" x="47.307188" y="166.804472" style="stroke: #000000; stroke-width: 0.8"/>
      </g>
     </g>
     <g id="text_14">
      <!-- 2.0 -->
      <g transform="translate(22.81375 170.983612) scale(0.11 -0.11)">
       <use xlink:href="#DejaVuSans-32"/>
       <use xlink:href="#DejaVuSans-2e" transform="translate(63.623047 0)"/>
       <use xlink:href="#DejaVuSans-30" transform="translate(95.410156 0)"/>
      </g>
     </g>
    </g>
    <g id="ytick_6">
     <g id="line2d_27">
      <path d="M 47.307188 116.570227 
L 705.637188 116.570227 
" clip-path="url(#p974197e094)" style="fill: none; stroke: #b0b0b0; stroke-opacity: 0.2; stroke-width: 0.6; stroke-linecap: square"/>
     </g>
     <g id="line2d_28">
      <g>
       <use xlink:href="#mfd7c092d80" x="47.307188" y="116.570227" style="stroke: #000000; stroke-width: 0.8"/>
      </g>
     </g>
     <g id="text_15">
      <!-- 2.5 -->
      <g transform="translate(22.81375 120.749368) scale(0.11 -0.11)">
       <use xlink:href="#DejaVuSans-32"/>
       <use xlink:href="#DejaVuSans-2e" transform="translate(63.623047 0)"/>
       <use xlink:href="#DejaVuSans-35" transform="translate(95.410156 0)"/>
      </g>
     </g>
    </g>
    <g id="ytick_7">
     <g id="line2d_29">
      <path d="M 47.307188 66.335983 
L 705.637188 66.335983 
" clip-path="url(#p974197e094)" style="fill: none; stroke: #b0b0b0; stroke-opacity: 0.2; stroke-width: 0.6; stroke-linecap: square"/>
     </g>
     <g id="line2d_30">
      <g>
       <use xlink:href="#mfd7c092d80" x="47.307188" y="66.335983" style="stroke: #000000; stroke-width: 0.8"/>
      </g>
     </g>
     <g id="text_16">
      <!-- 3.0 -->
      <g transform="translate(22.81375 70.515124) scale(0.11 -0.11)">
       <defs>
        <path id="DejaVuSans-33" d="M 2597 2516 
Q 3050 2419 3304 2112 
Q 3559 1806 3559 1356 
Q 3559 666 3084 287 
Q 2609 -91 1734 -91 
Q 1441 -91 1130 -33 
Q 819 25 488 141 
L 488 750 
Q 750 597 1062 519 
Q 1375 441 1716 441 
Q 2309 441 2620 675 
Q 2931 909 2931 1356 
Q 2931 1769 2642 2001 
Q 2353 2234 1838 2234 
L 1294 2234 
L 1294 2753 
L 1863 2753 
Q 2328 2753 2575 2939 
Q 2822 3125 2822 3475 
Q 2822 3834 2567 4026 
Q 2313 4219 1838 4219 
Q 1578 4219 1281 4162 
Q 984 4106 628 3988 
L 628 4550 
Q 988 4650 1302 4700 
Q 1616 4750 1894 4750 
Q 2613 4750 3031 4423 
Q 3450 4097 3450 3541 
Q 3450 3153 3228 2886 
Q 3006 2619 2597 2516 
z
" transform="scale(0.015625)"/>
       </defs>
       <use xlink:href="#DejaVuSans-33"/>
       <use xlink:href="#DejaVuSans-2e" transform="translate(63.623047 0)"/>
       <use xlink:href="#DejaVuSans-30" transform="translate(95.410156 0)"/>
      </g>
     </g>
    </g>
    <g id="text_17">
     <!-- AU mean intensity -->
     <g transform="translate(16.318125 259.314687) rotate(-90) scale(0.12 -0.12)">
      <defs>
       <path id="DejaVuSans-41" d="M 2188 4044 
L 1331 1722 
L 3047 1722 
L 2188 4044 
z
M 1831 4666 
L 2547 4666 
L 4325 0 
L 3669 0 
L 3244 1197 
L 1141 1197 
L 716 0 
L 50 0 
L 1831 4666 
z
" transform="scale(0.015625)"/>
       <path id="DejaVuSans-55" d="M 556 4666 
L 1191 4666 
L 1191 1831 
Q 1191 1081 1462 751 
Q 1734 422 2344 422 
Q 2950 422 3222 751 
Q 3494 1081 3494 1831 
L 3494 4666 
L 4128 4666 
L 4128 1753 
Q 4128 841 3676 375 
Q 3225 -91 2344 -91 
Q 1459 -91 1007 375 
Q 556 841 556 1753 
L 556 4666 
z
" transform="scale(0.015625)"/>
       <path id="DejaVuSans-61" d="M 2194 1759 
Q 1497 1759 1228 1600 
Q 959 1441 959 1056 
Q 959 750 1161 570 
Q 1363 391 1709 391 
Q 2188 391 2477 730 
Q 2766 1069 2766 1631 
L 2766 1759 
L 2194 1759 
z
M 3341 1997 
L 3341 0 
L 2766 0 
L 2766 531 
Q 2569 213 2275 61 
Q 1981 -91 1556 -91 
Q 1019 -91 701 211 
Q 384 513 384 1019 
Q 384 1609 779 1909 
Q 1175 2209 1959 2209 
L 2766 2209 
L 2766 2266 
Q 2766 2663 2505 2880 
Q 2244 3097 1772 3097 
Q 1472 3097 1187 3025 
Q 903 2953 641 2809 
L 641 3341 
Q 956 3463 1253 3523 
Q 1550 3584 1831 3584 
Q 2591 3584 2966 3190 
Q 3341 2797 3341 1997 
z
" transform="scale(0.015625)"/>
       <path id="DejaVuSans-6e" d="M 3513 2113 
L 3513 0 
L 2938 0 
L 2938 2094 
Q 2938 2591 2744 2837 
Q 2550 3084 2163 3084 
Q 1697 3084 1428 2787 
Q 1159 2491 1159 1978 
L 1159 0 
L 581 0 
L 581 3500 
L 1159 3500 
L 1159 2956 
Q 1366 3272 1645 3428 
Q 1925 3584 2291 3584 
Q 2894 3584 3203 3211 
Q 3513 2838 3513 2113 
z
" transform="scale(0.015625)"/>
       <path id="DejaVuSans-74" d="M 1172 4494 
L 1172 3500 
L 2356 3500 
L 2356 3053 
L 1172 3053 
L 1172 1153 
Q 1172 725 1289 603 
Q 1406 481 1766 481 
L 2356 481 
L 2356 0 
L 1766 0 
Q 1100 0 847 248 
Q 594 497 594 1153 
L 594 3053 
L 172 3053 
L 172 3500 
L 594 3500 
L 594 4494 
L 1172 4494 
z
" transform="scale(0.015625)"/>
       <path id="DejaVuSans-79" d="M 2059 -325 
Q 1816 -950 1584 -1140 
Q 1353 -1331 966 -1331 
L 506 -1331 
L 506 -850 
L 844 -850 
Q 1081 -850 1212 -737 
Q 1344 -625 1503 -206 
L 1606 56 
L 191 3500 
L 800 3500 
L 1894 763 
L 2988 3500 
L 3597 3500 
L 2059 -325 
z
" transform="scale(0.015625)"/>
      </defs>
      <use xlink:href="#DejaVuSans-41"/>
      <use xlink:href="#DejaVuSans-55" transform="translate(68.408203 0)"/>
      <use xlink:href="#DejaVuSans-20" transform="translate(141.601562 0)"/>
      <use xlink:href="#DejaVuSans-6d" transform="translate(173.388672 0)"/>
      <use xlink:href="#DejaVuSans-65" transform="translate(270.800781 0)"/>
      <use xlink:href="#DejaVuSans-61" transform="translate(332.324219 0)"/>
      <use xlink:href="#DejaVuSans-6e" transform="translate(393.603516 0)"/>
      <use xlink:href="#DejaVuSans-20" transform="translate(456.982422 0)"/>
      <use xlink:href="#DejaVuSans-69" transform="translate(488.769531 0)"/>
      <use xlink:href="#DejaVuSans-6e" transform="translate(516.552734 0)"/>
      <use xlink:href="#DejaVuSans-74" transform="translate(579.931641 0)"/>
      <use xlink:href="#DejaVuSans-65" transform="translate(619.140625 0)"/>
      <use xlink:href="#DejaVuSans-6e" transform="translate(680.664062 0)"/>
      <use xlink:href="#DejaVuSans-73" transform="translate(744.042969 0)"/>
      <use xlink:href="#DejaVuSans-69" transform="translate(796.142578 0)"/>
      <use xlink:href="#DejaVuSans-74" transform="translate(823.925781 0)"/>
      <use xlink:href="#DejaVuSans-79" transform="translate(863.134766 0)"/>
     </g>
    </g>
   </g>
   <g id="FillBetweenPolyCollection_1">
    <defs>
     <path id="mcc2e3c13eb" d="M 47.307188 -122.657142 
L 47.307188 -43.760917 
L 50.790415 -39.622003 
L 54.273643 -38.747227 
L 57.75687 -49.996747 
L 61.240098 -45.074712 
L 64.723325 -39.470347 
L 68.206553 -39.343903 
L 71.68978 -36.911119 
L 75.173008 -38.96903 
L 78.656235 -28.437929 
L 82.139463 -43.493192 
L 85.62269 -40.907697 
L 89.105918 -36.904736 
L 92.589145 -36.031018 
L 96.072373 -37.072636 
L 99.5556 -35.714071 
L 103.038828 -35.04943 
L 106.522055 -34.298883 
L 110.005283 -33.476509 
L 113.48851 -37.431089 
L 116.971738 -35.831793 
L 120.454965 -44.16714 
L 123.938193 -37.977767 
L 127.42142 -36.215053 
L 130.904648 -35.457119 
L 134.387875 -31.605003 
L 137.871103 -35.272677 
L 141.35433 -40.957671 
L 144.837558 -41.901447 
L 148.320785 -39.649067 
L 151.804013 -42.063182 
L 155.28724 -40.07943 
L 158.770468 -37.217146 
L 162.253695 -45.900372 
L 165.736923 -42.957454 
L 169.22015 -39.297245 
L 172.703378 -44.288444 
L 176.186605 -45.529046 
L 179.669833 -38.866912 
L 183.153061 -42.40786 
L 186.636288 -43.176279 
L 190.119516 -36.728527 
L 193.602743 -44.365962 
L 197.085971 -49.947361 
L 200.569198 -50.107024 
L 204.052426 -42.204986 
L 207.535653 -45.457905 
L 211.018881 -58.532308 
L 214.502108 -54.347392 
L 217.985336 -57.014836 
L 221.468563 -55.328201 
L 224.951791 -51.162766 
L 228.435018 -55.353227 
L 231.918246 -56.912477 
L 235.401473 -61.156436 
L 238.884701 -52.640646 
L 242.367928 -52.41435 
L 245.851156 -50.501289 
L 249.334383 -49.017559 
L 252.817611 -44.342493 
L 256.300838 -49.335247 
L 259.784066 -45.586609 
L 263.267293 -50.080637 
L 266.750521 -47.048781 
L 270.233748 -41.722774 
L 273.716976 -44.820563 
L 277.200203 -43.662133 
L 280.683431 -49.664749 
L 284.166658 -44.903668 
L 287.649886 -57.523976 
L 291.133113 -50.378335 
L 294.616341 -41.08223 
L 298.099568 -48.276502 
L 301.582796 -46.008591 
L 305.066023 -44.531719 
L 308.549251 -50.735621 
L 312.032479 -50.348267 
L 315.515706 -46.516954 
L 318.998934 -43.986563 
L 322.482161 -42.516601 
L 325.965389 -41.271075 
L 329.448616 -35.351222 
L 332.931844 -38.311573 
L 336.415071 -37.809083 
L 339.898299 -42.085492 
L 343.381526 -47.27065 
L 346.864754 -41.58368 
L 350.347981 -49.116024 
L 353.831209 -49.389008 
L 357.314436 -47.669424 
L 360.797664 -43.751185 
L 364.280891 -44.09011 
L 367.764119 -44.297151 
L 371.247346 -45.104076 
L 374.730574 -45.495331 
L 378.213801 -42.134394 
L 381.697029 -41.760898 
L 385.180256 -44.514122 
L 388.663484 -54.920588 
L 392.146711 -60.325794 
L 395.629939 -51.135849 
L 399.113166 -49.659736 
L 402.596394 -58.429767 
L 406.079621 -55.131184 
L 409.562849 -59.204677 
L 413.046076 -51.491384 
L 416.529304 -48.203652 
L 420.012531 -49.69714 
L 423.495759 -55.868196 
L 426.978986 -52.552286 
L 430.462214 -55.812724 
L 433.945441 -53.967548 
L 437.428669 -54.47221 
L 440.911896 -54.315694 
L 444.395124 -46.351436 
L 447.878352 -45.552529 
L 451.361579 -44.490014 
L 454.844807 -46.047303 
L 458.328034 -43.769218 
L 461.811262 -44.030673 
L 465.294489 -44.764447 
L 468.777717 -44.7395 
L 472.260944 -41.200862 
L 475.744172 -41.249189 
L 479.227399 -43.035645 
L 482.710627 -43.378276 
L 486.193854 -28.780033 
L 489.677082 -34.003097 
L 493.160309 -43.309881 
L 496.643537 -47.002032 
L 500.126764 -54.267844 
L 503.609992 -51.983227 
L 507.093219 -51.345658 
L 510.576447 -56.435395 
L 514.059674 -54.939197 
L 517.542902 -51.357547 
L 521.026129 -50.364756 
L 524.509357 -45.362399 
L 527.992584 -45.927028 
L 531.475812 -49.819487 
L 534.959039 -49.319182 
L 538.442267 -48.097328 
L 541.925494 -47.276535 
L 545.408722 -50.238266 
L 548.891949 -53.148983 
L 552.375177 -51.516968 
L 555.858404 -46.398573 
L 559.341632 -47.007405 
L 562.824859 -49.035623 
L 566.308087 -49.149048 
L 569.791314 -48.051559 
L 573.274542 -45.992345 
L 576.75777 -46.242066 
L 580.240997 -51.20913 
L 583.724225 -58.738136 
L 587.207452 -53.385073 
L 590.69068 -54.326003 
L 594.173907 -57.282692 
L 597.657135 -62.121872 
L 601.140362 -72.676373 
L 604.62359 -56.365768 
L 608.106817 -56.560838 
L 611.590045 -63.417089 
L 615.073272 -79.54665 
L 618.5565 -65.19618 
L 622.039727 -60.471243 
L 625.522955 -72.72356 
L 629.006182 -68.880476 
L 632.48941 -60.477531 
L 635.972637 -53.504427 
L 639.455865 -53.572678 
L 642.939092 -50.850292 
L 646.42232 -50.725104 
L 649.905547 -52.562957 
L 653.388775 -49.900455 
L 656.872002 -49.439107 
L 660.35523 -54.603191 
L 663.838457 -51.516902 
L 667.321685 -47.380147 
L 670.804912 -46.752105 
L 674.28814 -51.441467 
L 677.771367 -49.121904 
L 681.254595 -56.79004 
L 684.737822 -72.131727 
L 688.22105 -63.306205 
L 691.704277 -61.113478 
L 695.187505 -72.592524 
L 698.670732 -67.411932 
L 702.15396 -71.327734 
L 705.637188 -60.802076 
L 705.637188 -141.122459 
L 705.637188 -141.122459 
L 702.15396 -130.140863 
L 698.670732 -127.856172 
L 695.187505 -124.022798 
L 691.704277 -125.853526 
L 688.22105 -125.476645 
L 684.737822 -124.872924 
L 681.254595 -125.950097 
L 677.771367 -125.519847 
L 674.28814 -125.335379 
L 670.804912 -126.573162 
L 667.321685 -126.390746 
L 663.838457 -122.32803 
L 660.35523 -118.83956 
L 656.872002 -121.079972 
L 653.388775 -127.309864 
L 649.905547 -118.670661 
L 646.42232 -118.6746 
L 642.939092 -129.611702 
L 639.455865 -113.9716 
L 635.972637 -110.168071 
L 632.48941 -103.449071 
L 629.006182 -93.7397 
L 625.522955 -98.442445 
L 622.039727 -124.784657 
L 618.5565 -127.760954 
L 615.073272 -114.656142 
L 611.590045 -127.68867 
L 608.106817 -98.814348 
L 604.62359 -145.755064 
L 601.140362 -131.417369 
L 597.657135 -121.857917 
L 594.173907 -119.801483 
L 590.69068 -129.252722 
L 587.207452 -131.143297 
L 583.724225 -121.745512 
L 580.240997 -124.939648 
L 576.75777 -126.058122 
L 573.274542 -125.739284 
L 569.791314 -121.793772 
L 566.308087 -118.31267 
L 562.824859 -117.333822 
L 559.341632 -119.484273 
L 555.858404 -122.778318 
L 552.375177 -125.056203 
L 548.891949 -124.689264 
L 545.408722 -122.043342 
L 541.925494 -126.49841 
L 538.442267 -126.838899 
L 534.959039 -120.809729 
L 531.475812 -119.967731 
L 527.992584 -120.252013 
L 524.509357 -117.565245 
L 521.026129 -110.15483 
L 517.542902 -107.278535 
L 514.059674 -108.420244 
L 510.576447 -107.362688 
L 507.093219 -109.976056 
L 503.609992 -106.089885 
L 500.126764 -99.927899 
L 496.643537 -111.703339 
L 493.160309 -125.183429 
L 489.677082 -142.73001 
L 486.193854 -139.494139 
L 482.710627 -120.536731 
L 479.227399 -128.03114 
L 475.744172 -127.66781 
L 472.260944 -122.108438 
L 468.777717 -121.188987 
L 465.294489 -118.977197 
L 461.811262 -124.899098 
L 458.328034 -120.330654 
L 454.844807 -108.242165 
L 451.361579 -110.580047 
L 447.878352 -107.894026 
L 444.395124 -103.785787 
L 440.911896 -91.042297 
L 437.428669 -89.212794 
L 433.945441 -97.682495 
L 430.462214 -100.047908 
L 426.978986 -97.262929 
L 423.495759 -91.93437 
L 420.012531 -117.146633 
L 416.529304 -101.365347 
L 413.046076 -106.961567 
L 409.562849 -110.108028 
L 406.079621 -107.004193 
L 402.596394 -103.916024 
L 399.113166 -122.007375 
L 395.629939 -118.716256 
L 392.146711 -120.604853 
L 388.663484 -113.618014 
L 385.180256 -131.188758 
L 381.697029 -124.080702 
L 378.213801 -132.946943 
L 374.730574 -122.882687 
L 371.247346 -133.560905 
L 367.764119 -135.111813 
L 364.280891 -137.244965 
L 360.797664 -144.638179 
L 357.314436 -129.876797 
L 353.831209 -121.105437 
L 350.347981 -127.506398 
L 346.864754 -130.537201 
L 343.381526 -118.423695 
L 339.898299 -119.613842 
L 336.415071 -125.050007 
L 332.931844 -125.075961 
L 329.448616 -130.636866 
L 325.965389 -131.887431 
L 322.482161 -128.09474 
L 318.998934 -126.989636 
L 315.515706 -121.191018 
L 312.032479 -117.082711 
L 308.549251 -121.067719 
L 305.066023 -131.887895 
L 301.582796 -127.957376 
L 298.099568 -125.58199 
L 294.616341 -134.982507 
L 291.133113 -119.226716 
L 287.649886 -109.272969 
L 284.166658 -124.892211 
L 280.683431 -121.607843 
L 277.200203 -127.99001 
L 273.716976 -119.488524 
L 270.233748 -116.410686 
L 266.750521 -113.19826 
L 263.267293 -113.47731 
L 259.784066 -113.690392 
L 256.300838 -103.001019 
L 252.817611 -107.334414 
L 249.334383 -109.776238 
L 245.851156 -106.372264 
L 242.367928 -108.810136 
L 238.884701 -102.565649 
L 235.401473 -92.180463 
L 231.918246 -106.136423 
L 228.435018 -112.004698 
L 224.951791 -118.52918 
L 221.468563 -115.570428 
L 217.985336 -107.580066 
L 214.502108 -120.598335 
L 211.018881 -108.799495 
L 207.535653 -138.939152 
L 204.052426 -142.314723 
L 200.569198 -124.036576 
L 197.085971 -122.832258 
L 193.602743 -136.624079 
L 190.119516 -133.742916 
L 186.636288 -132.685008 
L 183.153061 -130.835127 
L 179.669833 -130.322133 
L 176.186605 -115.783308 
L 172.703378 -125.901235 
L 169.22015 -125.587804 
L 165.736923 -121.96168 
L 162.253695 -121.522372 
L 158.770468 -129.346754 
L 155.28724 -137.28623 
L 151.804013 -131.019016 
L 148.320785 -127.271334 
L 144.837558 -125.225563 
L 141.35433 -131.306614 
L 137.871103 -132.066342 
L 134.387875 -130.543145 
L 130.904648 -132.638115 
L 127.42142 -126.86416 
L 123.938193 -125.82325 
L 120.454965 -119.704562 
L 116.971738 -133.725906 
L 113.48851 -132.646275 
L 110.005283 -131.746461 
L 106.522055 -131.733758 
L 103.038828 -132.859451 
L 99.5556 -129.617022 
L 96.072373 -125.598111 
L 92.589145 -133.353459 
L 89.105918 -137.672336 
L 85.62269 -128.580713 
L 82.139463 -113.619378 
L 78.656235 -144.50192 
L 75.173008 -124.536253 
L 71.68978 -127.384976 
L 68.206553 -122.593586 
L 64.723325 -125.232819 
L 61.240098 -115.270674 
L 57.75687 -122.947433 
L 54.273643 -128.841613 
L 50.790415 -114.796135 
L 47.307188 -122.657142 
z
" style="stroke: #d3d3d3; stroke-opacity: 0.5"/>
    </defs>
    <g clip-path="url(#p974197e094)">
     <use xlink:href="#mcc2e3c13eb" x="0" y="424.5775" style="fill: #d3d3d3; fill-opacity: 0.5; stroke: #d3d3d3; stroke-opacity: 0.5"/>
    </g>
   </g>
   <g id="FillBetweenPolyCollection_2">
    <defs>
     <path id="m76ffaba936" d="M 47.307188 -102.933086 
L 47.307188 -63.484973 
L 50.790415 -58.415536 
L 54.273643 -61.270824 
L 57.75687 -68.234418 
L 61.240098 -62.623703 
L 64.723325 -60.910965 
L 68.206553 -60.156323 
L 71.68978 -59.529583 
L 75.173008 -60.360836 
L 78.656235 -57.453927 
L 82.139463 -61.024738 
L 85.62269 -62.825951 
L 89.105918 -62.096636 
L 92.589145 -60.361628 
L 96.072373 -59.204004 
L 99.5556 -59.189809 
L 103.038828 -59.501935 
L 106.522055 -58.657602 
L 110.005283 -58.043997 
L 113.48851 -61.234885 
L 116.971738 -60.305321 
L 120.454965 -63.051495 
L 123.938193 -59.939138 
L 127.42142 -58.87733 
L 130.904648 -59.752368 
L 134.387875 -56.339538 
L 137.871103 -59.471094 
L 141.35433 -63.544907 
L 144.837558 -62.732476 
L 148.320785 -61.554634 
L 151.804013 -64.302141 
L 155.28724 -64.38113 
L 158.770468 -60.249548 
L 162.253695 -64.805872 
L 165.736923 -62.70851 
L 169.22015 -60.869884 
L 172.703378 -64.691641 
L 176.186605 -63.092612 
L 179.669833 -61.730717 
L 183.153061 -64.514677 
L 186.636288 -65.553461 
L 190.119516 -60.982124 
L 193.602743 -67.430491 
L 197.085971 -68.168586 
L 200.569198 -68.589412 
L 204.052426 -67.23242 
L 207.535653 -68.828217 
L 211.018881 -71.099104 
L 214.502108 -70.910128 
L 217.985336 -69.656144 
L 221.468563 -70.388758 
L 224.951791 -68.00437 
L 228.435018 -69.516095 
L 231.918246 -69.218464 
L 235.401473 -68.912443 
L 238.884701 -65.121897 
L 242.367928 -66.513296 
L 245.851156 -64.469032 
L 249.334383 -64.207229 
L 252.817611 -60.090473 
L 256.300838 -62.75169 
L 259.784066 -62.612555 
L 263.267293 -65.929806 
L 266.750521 -63.586151 
L 270.233748 -60.394752 
L 273.716976 -63.487553 
L 277.200203 -64.744102 
L 280.683431 -67.650523 
L 284.166658 -64.900804 
L 287.649886 -70.461224 
L 291.133113 -67.59043 
L 294.616341 -64.557299 
L 298.099568 -67.602874 
L 301.582796 -66.495787 
L 305.066023 -66.370763 
L 308.549251 -68.318645 
L 312.032479 -67.031878 
L 315.515706 -65.18547 
L 318.998934 -64.737331 
L 322.482161 -63.911136 
L 325.965389 -63.925164 
L 329.448616 -59.172633 
L 332.931844 -60.00267 
L 336.415071 -59.619314 
L 339.898299 -61.467579 
L 343.381526 -65.058911 
L 346.864754 -63.82206 
L 350.347981 -68.713617 
L 353.831209 -67.318115 
L 357.314436 -68.221267 
L 360.797664 -68.972934 
L 364.280891 -67.378824 
L 367.764119 -67.000816 
L 371.247346 -67.218283 
L 374.730574 -64.84217 
L 378.213801 -64.837531 
L 381.697029 -62.340849 
L 385.180256 -66.182781 
L 388.663484 -69.594945 
L 392.146711 -75.395559 
L 395.629939 -68.03095 
L 399.113166 -67.746646 
L 402.596394 -69.801331 
L 406.079621 -68.099436 
L 409.562849 -71.930514 
L 413.046076 -65.35893 
L 416.529304 -61.494076 
L 420.012531 -66.559513 
L 423.495759 -64.884739 
L 426.978986 -63.729947 
L 430.462214 -66.87152 
L 433.945441 -64.896284 
L 437.428669 -63.157356 
L 440.911896 -63.497344 
L 444.395124 -60.710023 
L 447.878352 -61.137903 
L 451.361579 -61.012522 
L 454.844807 -61.596019 
L 458.328034 -62.909577 
L 461.811262 -64.247779 
L 465.294489 -63.317635 
L 468.777717 -63.851872 
L 472.260944 -61.427756 
L 475.744172 -62.853844 
L 479.227399 -64.284519 
L 482.710627 -62.66789 
L 486.193854 -56.458559 
L 489.677082 -61.184825 
L 493.160309 -63.778268 
L 496.643537 -63.177358 
L 500.126764 -65.682858 
L 503.609992 -65.509891 
L 507.093219 -66.003257 
L 510.576447 -69.167218 
L 514.059674 -68.309459 
L 517.542902 -65.337794 
L 521.026129 -65.312274 
L 524.509357 -63.413111 
L 527.992584 -64.508274 
L 531.475812 -67.356548 
L 534.959039 -67.191819 
L 538.442267 -67.782721 
L 541.925494 -67.082004 
L 545.408722 -68.189535 
L 548.891949 -71.034053 
L 552.375177 -69.901777 
L 555.858404 -65.493509 
L 559.341632 -65.126622 
L 562.824859 -66.110173 
L 566.308087 -66.439954 
L 569.791314 -66.487112 
L 573.274542 -65.92908 
L 576.75777 -66.19608 
L 580.240997 -69.64176 
L 583.724225 -74.48998 
L 587.207452 -72.824629 
L 590.69068 -73.057682 
L 594.173907 -72.91239 
L 597.657135 -77.055883 
L 601.140362 -87.361622 
L 604.62359 -78.713092 
L 608.106817 -67.124216 
L 611.590045 -79.484984 
L 615.073272 -88.324023 
L 618.5565 -80.837374 
L 622.039727 -76.549597 
L 625.522955 -79.153281 
L 629.006182 -75.095282 
L 632.48941 -71.220416 
L 635.972637 -67.670338 
L 639.455865 -68.672408 
L 642.939092 -70.540645 
L 646.42232 -67.712478 
L 649.905547 -69.089883 
L 653.388775 -69.252807 
L 656.872002 -67.349323 
L 660.35523 -70.662283 
L 663.838457 -69.219684 
L 667.321685 -67.132797 
L 670.804912 -66.707369 
L 674.28814 -69.914945 
L 677.771367 -68.22139 
L 681.254595 -74.080054 
L 684.737822 -85.317026 
L 688.22105 -78.848815 
L 691.704277 -77.29849 
L 695.187505 -85.450092 
L 698.670732 -82.522992 
L 702.15396 -86.031016 
L 705.637188 -80.882172 
L 705.637188 -121.042364 
L 705.637188 -121.042364 
L 702.15396 -115.437581 
L 698.670732 -112.745112 
L 695.187505 -111.165229 
L 691.704277 -109.668514 
L 688.22105 -109.934035 
L 684.737822 -111.687625 
L 681.254595 -108.660083 
L 677.771367 -106.420361 
L 674.28814 -106.861901 
L 670.804912 -106.617898 
L 667.321685 -106.638097 
L 663.838457 -104.625248 
L 660.35523 -102.780467 
L 656.872002 -103.169756 
L 653.388775 -107.957512 
L 649.905547 -102.143735 
L 646.42232 -101.687226 
L 642.939092 -109.92135 
L 639.455865 -98.87187 
L 635.972637 -96.00216 
L 632.48941 -92.706186 
L 629.006182 -87.524894 
L 625.522955 -92.012724 
L 622.039727 -108.706304 
L 618.5565 -112.11976 
L 615.073272 -105.878769 
L 611.590045 -111.620775 
L 608.106817 -88.250971 
L 604.62359 -123.40774 
L 601.140362 -116.73212 
L 597.657135 -106.923905 
L 594.173907 -104.171785 
L 590.69068 -110.521042 
L 587.207452 -111.703741 
L 583.724225 -105.993668 
L 580.240997 -106.507019 
L 576.75777 -106.104108 
L 573.274542 -105.802549 
L 569.791314 -103.358219 
L 566.308087 -101.021765 
L 562.824859 -100.259272 
L 559.341632 -101.365056 
L 555.858404 -103.683382 
L 552.375177 -106.671394 
L 548.891949 -106.804194 
L 545.408722 -104.092073 
L 541.925494 -106.692941 
L 538.442267 -107.153507 
L 534.959039 -102.937092 
L 531.475812 -102.43067 
L 527.992584 -101.670767 
L 524.509357 -99.514534 
L 521.026129 -95.207312 
L 517.542902 -93.298288 
L 514.059674 -95.049983 
L 510.576447 -94.630865 
L 507.093219 -95.318456 
L 503.609992 -92.56322 
L 500.126764 -88.512885 
L 496.643537 -95.528012 
L 493.160309 -104.715042 
L 489.677082 -115.548282 
L 486.193854 -111.815612 
L 482.710627 -101.247118 
L 479.227399 -106.782266 
L 475.744172 -106.063155 
L 472.260944 -101.881544 
L 468.777717 -102.076616 
L 465.294489 -100.42401 
L 461.811262 -104.681992 
L 458.328034 -101.190295 
L 454.844807 -92.69345 
L 451.361579 -94.057539 
L 447.878352 -92.308652 
L 444.395124 -89.427199 
L 440.911896 -81.860646 
L 437.428669 -80.527648 
L 433.945441 -86.753758 
L 430.462214 -88.989112 
L 426.978986 -86.085268 
L 423.495759 -82.917826 
L 420.012531 -100.28426 
L 416.529304 -88.074923 
L 413.046076 -93.094021 
L 409.562849 -97.38219 
L 406.079621 -94.03594 
L 402.596394 -92.54446 
L 399.113166 -103.920466 
L 395.629939 -101.821154 
L 392.146711 -105.535088 
L 388.663484 -98.943658 
L 385.180256 -109.520099 
L 381.697029 -103.500751 
L 378.213801 -110.243806 
L 374.730574 -103.535848 
L 371.247346 -111.446698 
L 367.764119 -112.408147 
L 364.280891 -113.956251 
L 360.797664 -119.416431 
L 357.314436 -109.324954 
L 353.831209 -103.176329 
L 350.347981 -107.908805 
L 346.864754 -108.298821 
L 343.381526 -100.635434 
L 339.898299 -100.231754 
L 336.415071 -103.239776 
L 332.931844 -103.384864 
L 329.448616 -106.815455 
L 325.965389 -109.233342 
L 322.482161 -106.700205 
L 318.998934 -106.238868 
L 315.515706 -102.522502 
L 312.032479 -100.3991 
L 308.549251 -103.484695 
L 305.066023 -110.048851 
L 301.582796 -107.470179 
L 298.099568 -106.255618 
L 294.616341 -111.507437 
L 291.133113 -102.014621 
L 287.649886 -96.33572 
L 284.166658 -104.895075 
L 280.683431 -103.622069 
L 277.200203 -106.908041 
L 273.716976 -100.821534 
L 270.233748 -97.738708 
L 266.750521 -96.660891 
L 263.267293 -97.628142 
L 259.784066 -96.664446 
L 256.300838 -89.584576 
L 252.817611 -91.586433 
L 249.334383 -94.586568 
L 245.851156 -92.40452 
L 242.367928 -94.71119 
L 238.884701 -90.084398 
L 235.401473 -84.424457 
L 231.918246 -93.830436 
L 228.435018 -97.84183 
L 224.951791 -101.687576 
L 221.468563 -100.509871 
L 217.985336 -94.938758 
L 214.502108 -104.035599 
L 211.018881 -96.232698 
L 207.535653 -115.56884 
L 204.052426 -117.287289 
L 200.569198 -105.554188 
L 197.085971 -104.611034 
L 193.602743 -113.55955 
L 190.119516 -109.489319 
L 186.636288 -110.307825 
L 183.153061 -108.72831 
L 179.669833 -107.458328 
L 176.186605 -98.219742 
L 172.703378 -105.498037 
L 169.22015 -104.015164 
L 165.736923 -102.210623 
L 162.253695 -102.616872 
L 158.770468 -106.314352 
L 155.28724 -112.98453 
L 151.804013 -108.780058 
L 148.320785 -105.365767 
L 144.837558 -104.394534 
L 141.35433 -108.719378 
L 137.871103 -107.867926 
L 134.387875 -105.80861 
L 130.904648 -108.342866 
L 127.42142 -104.201884 
L 123.938193 -103.861879 
L 120.454965 -100.820207 
L 116.971738 -109.252378 
L 113.48851 -108.842478 
L 110.005283 -107.178973 
L 106.522055 -107.375039 
L 103.038828 -108.406946 
L 99.5556 -106.141285 
L 96.072373 -103.466742 
L 92.589145 -109.022849 
L 89.105918 -112.480436 
L 85.62269 -106.662459 
L 82.139463 -96.087832 
L 78.656235 -115.485923 
L 75.173008 -103.144447 
L 71.68978 -104.766512 
L 68.206553 -101.781165 
L 64.723325 -103.792201 
L 61.240098 -97.721684 
L 57.75687 -104.709762 
L 54.273643 -106.318017 
L 50.790415 -96.002602 
L 47.307188 -102.933086 
z
" style="stroke: #808080; stroke-opacity: 0.7"/>
    </defs>
    <g clip-path="url(#p974197e094)">
     <use xlink:href="#m76ffaba936" x="0" y="424.5775" style="fill: #808080; fill-opacity: 0.7; stroke: #808080; stroke-opacity: 0.7"/>
    </g>
   </g>
   <g id="line2d_31">
    <path d="M 47.307188 339.900374 
L 50.790415 338.99865 
L 54.273643 324.652835 
L 57.75687 324.384631 
L 61.240098 335.853512 
L 64.723325 328.274104 
L 68.206553 311.168168 
L 71.68978 319.758132 
L 75.173008 310.238885 
L 78.656235 316.888212 
L 82.139463 310.78911 
L 85.62269 309.828184 
L 89.105918 279.541769 
L 92.589145 271.082997 
L 96.072373 293.643506 
L 99.5556 315.275487 
L 103.038828 305.408619 
L 106.522055 344.590778 
L 110.005283 324.211851 
L 113.48851 310.671179 
L 116.971738 314.81168 
L 120.454965 317.785604 
L 123.938193 296.377172 
L 127.42142 305.431208 
L 130.904648 307.125505 
L 134.387875 314.393449 
L 137.871103 311.089048 
L 141.35433 309.783633 
L 144.837558 311.69558 
L 148.320785 307.124024 
L 151.804013 294.550425 
L 155.28724 299.919713 
L 158.770468 302.90701 
L 162.253695 319.806751 
L 165.736923 307.386993 
L 169.22015 299.449734 
L 172.703378 304.620275 
L 176.186605 317.18424 
L 179.669833 313.6019 
L 183.153061 312.291191 
L 186.636288 302.396761 
L 190.119516 298.099873 
L 193.602743 315.943198 
L 197.085971 316.23286 
L 200.569198 324.088881 
L 204.052426 313.354703 
L 207.535653 327.477167 
L 211.018881 335.766465 
L 214.502108 334.656462 
L 217.985336 341.80979 
L 221.468563 337.528007 
L 224.951791 338.871128 
L 228.435018 338.686879 
L 231.918246 334.27186 
L 235.401473 335.186524 
L 238.884701 335.626226 
L 242.367928 342.643348 
L 245.851156 335.624214 
L 249.334383 350.645164 
L 252.817611 334.125868 
L 256.300838 343.91309 
L 259.784066 333.48013 
L 263.267293 330.482307 
L 266.750521 332.029514 
L 270.233748 338.65353 
L 273.716976 335.845858 
L 277.200203 338.640024 
L 280.683431 345.849384 
L 284.166658 338.390749 
L 287.649886 339.298646 
L 291.133113 344.193924 
L 294.616341 339.424949 
L 298.099568 336.533157 
L 301.582796 314.645192 
L 305.066023 317.360851 
L 308.549251 325.14087 
L 312.032479 332.419657 
L 315.515706 328.176693 
L 318.998934 308.9292 
L 322.482161 322.109449 
L 325.965389 325.198804 
L 329.448616 323.509054 
L 332.931844 321.100904 
L 336.415071 314.619065 
L 339.898299 327.156318 
L 343.381526 309.990195 
L 346.864754 308.985785 
L 350.347981 302.661635 
L 353.831209 316.49937 
L 357.314436 315.417816 
L 360.797664 292.773461 
L 364.280891 317.805584 
L 367.764119 320.894099 
L 371.247346 316.469985 
L 374.730574 319.032083 
L 378.213801 307.776678 
L 381.697029 309.860133 
L 385.180256 324.049351 
L 388.663484 326.750157 
L 392.146711 329.808923 
L 395.629939 315.404242 
L 399.113166 272.313468 
L 402.596394 290.879584 
L 406.079621 233.312732 
L 409.562849 286.185337 
L 413.046076 288.852945 
L 416.529304 292.046331 
L 420.012531 299.63363 
L 423.495759 311.485569 
L 426.978986 326.409498 
L 430.462214 300.226832 
L 433.945441 297.686268 
L 437.428669 285.275088 
L 440.911896 310.918385 
L 444.395124 298.028512 
L 447.878352 300.830522 
L 451.361579 295.680078 
L 454.844807 292.873009 
L 458.328034 268.517516 
L 461.811262 277.443305 
L 465.294489 265.270165 
L 468.777717 309.459168 
L 472.260944 307.613745 
L 475.744172 300.185688 
L 479.227399 314.268804 
L 482.710627 289.159449 
L 486.193854 242.980751 
L 489.677082 302.26798 
L 493.160309 306.235281 
L 496.643537 319.73132 
L 500.126764 317.423571 
L 503.609992 334.059135 
L 507.093219 335.10205 
L 510.576447 328.65921 
L 514.059674 325.855639 
L 517.542902 321.136494 
L 521.026129 254.870812 
L 524.509357 228.639078 
L 527.992584 224.409987 
L 531.475812 221.045179 
L 534.959039 250.106749 
L 538.442267 277.642258 
L 541.925494 302.996735 
L 545.408722 253.445826 
L 548.891949 266.782504 
L 552.375177 289.068862 
L 555.858404 289.860261 
L 559.341632 278.77157 
L 562.824859 260.493404 
L 566.308087 295.278056 
L 569.791314 304.196514 
L 573.274542 303.620258 
L 576.75777 313.933967 
L 580.240997 307.794814 
L 583.724225 298.165719 
L 587.207452 280.856235 
L 590.69068 293.205821 
L 594.173907 272.666383 
L 597.657135 291.774746 
L 601.140362 267.269305 
L 604.62359 222.613184 
L 608.106817 240.418345 
L 611.590045 157.539871 
L 615.073272 239.851524 
L 618.5565 205.372283 
L 622.039727 250.022155 
L 625.522955 241.386063 
L 629.006182 251.714977 
L 632.48941 288.835787 
L 635.972637 288.667263 
L 639.455865 293.500054 
L 642.939092 241.505661 
L 646.42232 246.031058 
L 649.905547 267.802517 
L 653.388775 235.598989 
L 656.872002 194.176073 
L 660.35523 232.812814 
L 663.838457 266.138969 
L 667.321685 253.98821 
L 670.804912 249.597514 
L 674.28814 232.940573 
L 677.771367 217.545546 
L 681.254595 237.306452 
L 684.737822 231.080826 
L 688.22105 251.067059 
L 691.704277 256.639161 
L 695.187505 260.906846 
L 698.670732 280.882892 
L 702.15396 290.132444 
L 705.637188 249.468614 
L 705.637188 249.468614 
" clip-path="url(#p974197e094)" style="fill: none; stroke: #ff8c00; stroke-width: 2.3; stroke-linecap: square"/>
   </g>
   <g id="line2d_32">
    <path d="M 284.166658 384.117812 
L 284.166658 23.837812 
" clip-path="url(#p974197e094)" style="fill: none; stroke-dasharray: 5.55,2.4; stroke-dashoffset: 0; stroke: #808080; stroke-width: 1.5"/>
   </g>
   <g id="line2d_33">
    <path d="M 486.193854 384.117812 
L 486.193854 23.837812 
" clip-path="url(#p974197e094)" style="fill: none; stroke-dasharray: 5.55,2.4; stroke-dashoffset: 0; stroke: #808080; stroke-width: 1.5"/>
   </g>
   <g id="patch_3">
    <path d="M 47.307188 384.117812 
L 47.307188 23.837812 
" style="fill: none; stroke: #000000; stroke-width: 0.8; stroke-linejoin: miter; stroke-linecap: square"/>
   </g>
   <g id="patch_4">
    <path d="M 705.637188 384.117812 
L 705.637188 23.837812 
" style="fill: none; stroke: #000000; stroke-width: 0.8; stroke-linejoin: miter; stroke-linecap: square"/>
   </g>
   <g id="patch_5">
    <path d="M 47.307188 384.117812 
L 705.637188 384.117812 
" style="fill: none; stroke: #000000; stroke-width: 0.8; stroke-linejoin: miter; stroke-linecap: square"/>
   </g>
   <g id="patch_6">
    <path d="M 47.307188 23.837812 
L 705.637188 23.837812 
" style="fill: none; stroke: #000000; stroke-width: 0.8; stroke-linejoin: miter; stroke-linecap: square"/>
   </g>
   <g id="text_18">
    <!-- Facial trace: ADHD (male) -->
    <g transform="translate(286.0125 17.837812) scale(0.14 -0.14)">
     <defs>
      <path id="DejaVuSans-46" d="M 628 4666 
L 3309 4666 
L 3309 4134 
L 1259 4134 
L 1259 2759 
L 3109 2759 
L 3109 2228 
L 1259 2228 
L 1259 0 
L 628 0 
L 628 4666 
z
" transform="scale(0.015625)"/>
      <path id="DejaVuSans-63" d="M 3122 3366 
L 3122 2828 
Q 2878 2963 2633 3030 
Q 2388 3097 2138 3097 
Q 1578 3097 1268 2742 
Q 959 2388 959 1747 
Q 959 1106 1268 751 
Q 1578 397 2138 397 
Q 2388 397 2633 464 
Q 2878 531 3122 666 
L 3122 134 
Q 2881 22 2623 -34 
Q 2366 -91 2075 -91 
Q 1284 -91 818 406 
Q 353 903 353 1747 
Q 353 2603 823 3093 
Q 1294 3584 2113 3584 
Q 2378 3584 2631 3529 
Q 2884 3475 3122 3366 
z
" transform="scale(0.015625)"/>
      <path id="DejaVuSans-6c" d="M 603 4863 
L 1178 4863 
L 1178 0 
L 603 0 
L 603 4863 
z
" transform="scale(0.015625)"/>
      <path id="DejaVuSans-72" d="M 2631 2963 
Q 2534 3019 2420 3045 
Q 2306 3072 2169 3072 
Q 1681 3072 1420 2755 
Q 1159 2438 1159 1844 
L 1159 0 
L 581 0 
L 581 3500 
L 1159 3500 
L 1159 2956 
Q 1341 3275 1631 3429 
Q 1922 3584 2338 3584 
Q 2397 3584 2469 3576 
Q 2541 3569 2628 3553 
L 2631 2963 
z
" transform="scale(0.015625)"/>
      <path id="DejaVuSans-3a" d="M 750 794 
L 1409 794 
L 1409 0 
L 750 0 
L 750 794 
z
M 750 3309 
L 1409 3309 
L 1409 2516 
L 750 2516 
L 750 3309 
z
" transform="scale(0.015625)"/>
      <path id="DejaVuSans-44" d="M 1259 4147 
L 1259 519 
L 2022 519 
Q 2988 519 3436 956 
Q 3884 1394 3884 2338 
Q 3884 3275 3436 3711 
Q 2988 4147 2022 4147 
L 1259 4147 
z
M 628 4666 
L 1925 4666 
Q 3281 4666 3915 4102 
Q 4550 3538 4550 2338 
Q 4550 1131 3912 565 
Q 3275 0 1925 0 
L 628 0 
L 628 4666 
z
" transform="scale(0.015625)"/>
      <path id="DejaVuSans-48" d="M 628 4666 
L 1259 4666 
L 1259 2753 
L 3553 2753 
L 3553 4666 
L 4184 4666 
L 4184 0 
L 3553 0 
L 3553 2222 
L 1259 2222 
L 1259 0 
L 628 0 
L 628 4666 
z
" transform="scale(0.015625)"/>
     </defs>
     <use xlink:href="#DejaVuSans-46"/>
     <use xlink:href="#DejaVuSans-61" transform="translate(48.394531 0)"/>
     <use xlink:href="#DejaVuSans-63" transform="translate(109.673828 0)"/>
     <use xlink:href="#DejaVuSans-69" transform="translate(164.654297 0)"/>
     <use xlink:href="#DejaVuSans-61" transform="translate(192.4375 0)"/>
     <use xlink:href="#DejaVuSans-6c" transform="translate(253.716797 0)"/>
     <use xlink:href="#DejaVuSans-20" transform="translate(281.5 0)"/>
     <use xlink:href="#DejaVuSans-74" transform="translate(313.287109 0)"/>
     <use xlink:href="#DejaVuSans-72" transform="translate(352.496094 0)"/>
     <use xlink:href="#DejaVuSans-61" transform="translate(393.609375 0)"/>
     <use xlink:href="#DejaVuSans-63" transform="translate(454.888672 0)"/>
     <use xlink:href="#DejaVuSans-65" transform="translate(509.869141 0)"/>
     <use xlink:href="#DejaVuSans-3a" transform="translate(571.392578 0)"/>
     <use xlink:href="#DejaVuSans-20" transform="translate(605.083984 0)"/>
     <use xlink:href="#DejaVuSans-41" transform="translate(636.871094 0)"/>
     <use xlink:href="#DejaVuSans-44" transform="translate(705.279297 0)"/>
     <use xlink:href="#DejaVuSans-48" transform="translate(782.28125 0)"/>
     <use xlink:href="#DejaVuSans-44" transform="translate(857.476562 0)"/>
     <use xlink:href="#DejaVuSans-20" transform="translate(934.478516 0)"/>
     <use xlink:href="#DejaVuSans-28" transform="translate(966.265625 0)"/>
     <use xlink:href="#DejaVuSans-6d" transform="translate(1005.279297 0)"/>
     <use xlink:href="#DejaVuSans-61" transform="translate(1102.691406 0)"/>
     <use xlink:href="#DejaVuSans-6c" transform="translate(1163.970703 0)"/>
     <use xlink:href="#DejaVuSans-65" transform="translate(1191.753906 0)"/>
     <use xlink:href="#DejaVuSans-29" transform="translate(1253.277344 0)"/>
    </g>
   </g>
   <g id="legend_1">
    <g id="patch_7">
     <path d="M 593.538594 42.096094 
L 615.538594 42.096094 
L 615.538594 34.396094 
L 593.538594 34.396094 
z
" style="fill: #d3d3d3; fill-opacity: 0.5; stroke: #d3d3d3; stroke-opacity: 0.5; stroke-linejoin: miter"/>
    </g>
    <g id="text_19">
     <!-- ADHD ±2 SD -->
     <g transform="translate(624.338594 42.096094) scale(0.11 -0.11)">
      <defs>
       <path id="DejaVuSans-b1" d="M 2944 4013 
L 2944 2803 
L 4684 2803 
L 4684 2272 
L 2944 2272 
L 2944 1063 
L 2419 1063 
L 2419 2272 
L 678 2272 
L 678 2803 
L 2419 2803 
L 2419 4013 
L 2944 4013 
z
M 678 531 
L 4684 531 
L 4684 0 
L 678 0 
L 678 531 
z
" transform="scale(0.015625)"/>
       <path id="DejaVuSans-53" d="M 3425 4513 
L 3425 3897 
Q 3066 4069 2747 4153 
Q 2428 4238 2131 4238 
Q 1616 4238 1336 4038 
Q 1056 3838 1056 3469 
Q 1056 3159 1242 3001 
Q 1428 2844 1947 2747 
L 2328 2669 
Q 3034 2534 3370 2195 
Q 3706 1856 3706 1288 
Q 3706 609 3251 259 
Q 2797 -91 1919 -91 
Q 1588 -91 1214 -16 
Q 841 59 441 206 
L 441 856 
Q 825 641 1194 531 
Q 1563 422 1919 422 
Q 2459 422 2753 634 
Q 3047 847 3047 1241 
Q 3047 1584 2836 1778 
Q 2625 1972 2144 2069 
L 1759 2144 
Q 1053 2284 737 2584 
Q 422 2884 422 3419 
Q 422 4038 858 4394 
Q 1294 4750 2059 4750 
Q 2388 4750 2728 4690 
Q 3069 4631 3425 4513 
z
" transform="scale(0.015625)"/>
      </defs>
      <use xlink:href="#DejaVuSans-41"/>
      <use xlink:href="#DejaVuSans-44" transform="translate(68.408203 0)"/>
      <use xlink:href="#DejaVuSans-48" transform="translate(145.410156 0)"/>
      <use xlink:href="#DejaVuSans-44" transform="translate(220.605469 0)"/>
      <use xlink:href="#DejaVuSans-20" transform="translate(297.607422 0)"/>
      <use xlink:href="#DejaVuSans-b1" transform="translate(329.394531 0)"/>
      <use xlink:href="#DejaVuSans-32" transform="translate(413.183594 0)"/>
      <use xlink:href="#DejaVuSans-20" transform="translate(476.806641 0)"/>
      <use xlink:href="#DejaVuSans-53" transform="translate(508.59375 0)"/>
      <use xlink:href="#DejaVuSans-44" transform="translate(572.070312 0)"/>
     </g>
    </g>
    <g id="patch_8">
     <path d="M 593.538594 58.242031 
L 615.538594 58.242031 
L 615.538594 50.542031 
L 593.538594 50.542031 
z
" style="fill: #808080; fill-opacity: 0.7; stroke: #808080; stroke-opacity: 0.7; stroke-linejoin: miter"/>
    </g>
    <g id="text_20">
     <!-- ADHD ±1 SD -->
     <g transform="translate(624.338594 58.242031) scale(0.11 -0.11)">
      <use xlink:href="#DejaVuSans-41"/>
      <use xlink:href="#DejaVuSans-44" transform="translate(68.408203 0)"/>
      <use xlink:href="#DejaVuSans-48" transform="translate(145.410156 0)"/>
      <use xlink:href="#DejaVuSans-44" transform="translate(220.605469 0)"/>
      <use xlink:href="#DejaVuSans-20" transform="translate(297.607422 0)"/>
      <use xlink:href="#DejaVuSans-b1" transform="translate(329.394531 0)"/>
      <use xlink:href="#DejaVuSans-31" transform="translate(413.183594 0)"/>
      <use xlink:href="#DejaVuSans-20" transform="translate(476.806641 0)"/>
      <use xlink:href="#DejaVuSans-53" transform="translate(508.59375 0)"/>
      <use xlink:href="#DejaVuSans-44" transform="translate(572.070312 0)"/>
     </g>
    </g>
    <g id="line2d_34">
     <path d="M 593.538594 70.537969 
L 604.538594 70.537969 
L 615.538594 70.537969 
" style="fill: none; stroke: #ff8c00; stroke-width: 2.3; stroke-linecap: square"/>
    </g>
    <g id="text_21">
     <!-- Patient -->
     <g transform="translate(624.338594 74.387969) scale(0.11 -0.11)">
      <defs>
       <path id="DejaVuSans-50" d="M 1259 4147 
L 1259 2394 
L 2053 2394 
Q 2494 2394 2734 2622 
Q 2975 2850 2975 3272 
Q 2975 3691 2734 3919 
Q 2494 4147 2053 4147 
L 1259 4147 
z
M 628 4666 
L 2053 4666 
Q 2838 4666 3239 4311 
Q 3641 3956 3641 3272 
Q 3641 2581 3239 2228 
Q 2838 1875 2053 1875 
L 1259 1875 
L 1259 0 
L 628 0 
L 628 4666 
z
" transform="scale(0.015625)"/>
      </defs>
      <use xlink:href="#DejaVuSans-50"/>
      <use xlink:href="#DejaVuSans-61" transform="translate(55.802734 0)"/>
      <use xlink:href="#DejaVuSans-74" transform="translate(117.082031 0)"/>
      <use xlink:href="#DejaVuSans-69" transform="translate(156.291016 0)"/>
      <use xlink:href="#DejaVuSans-65" transform="translate(184.074219 0)"/>
      <use xlink:href="#DejaVuSans-6e" transform="translate(245.597656 0)"/>
      <use xlink:href="#DejaVuSans-74" transform="translate(308.976562 0)"/>
     </g>
    </g>
   </g>
  </g>
 </g>
 <defs>
  <clipPath id="p974197e094">
   <rect x="47.307188" y="23.837812" width="658.33" height="360.28"/>
  </clipPath>
 </defs>
</svg>
