<?xml version="1.0" encoding="utf-8" standalone="no"?>
<!DOCTYPE svg PUBLIC "-//W3C//DTD SVG 1.1//EN"
  "http://www.w3.org/Graphics/SVG/1.1/DTD/svg11.dtd">
<svg xmlns:xlink="http://www.w3.org/1999/xlink" width="712.837188pt" height="424.5775pt" viewBox="0 0 712.837188 424.5775" xmlns="http://www.w3.org/2000/svg" version="1.1">
 <metadata>
  <rdf:RDF xmlns:dc="http://purl.org/dc/elements/1.1/" xmlns:cc="http://creativecommons.org/ns#" xmlns:rdf="http://www.w3.org/1999/02/22-rdf-syntax-ns#">
   <cc:Work>
    <dc:type rdf:resource="http://purl.org/dc/dcmitype/StillImage"/>
    <dc:date>2026-06-14T19:06:35.348373</dc:date>
    <dc:format>image/svg+xml</dc:format>
    <dc:creator>
     <cc:Agent>
      <dc:title>Matplotlib v3.10.1, https://matplotlib.org/</dc:title>
     </cc:Agent>
    </dc:creator>
   </cc:Work>
  </rdf:RDF>
 </metadata>
 <defs>
  <style type="text/css">*{stroke-linejoin: round; stroke-linecap: butt}</style>
 </defs>
 <g id="figure_1">
  <g id="patch_1">
   <path d="M 0 424.5775 
L 712.837188 424.5775 
L 712.837188 0 
L 0 0 
z
" style="fill: #ffffff"/>
  </g>
  <g id="axes_1">
   <g id="patch_2">
    <path d="M 47.307188 384.117812 
L 705.637188 384.117812 
L 705.637188 23.837812 
L 47.307188 23.837812 
z
" style="fill: #ffffff"/>
   </g>
   <g id="matplotlib.axis_1">
    <g id="xtick_1">
     <g id="line2d_1">
      <path d="M 47.307188 384.117812 
L 47.307188 23.837812 
" clip-path="url(#pc19249e170)" style="fill: none; stroke: #b0b0b0; stroke-opacity: 0.2; stroke-width: 0.6; stroke-linecap: square"/>
     </g>
     <g id="line2d_2">
      <defs>
       <path id="m160f664d3f" d="M 0 0 
L 0 3.5 
" style="stroke: #000000; stroke-width: 0.8"/>
      </defs>
      <g>
       <use xlink:href="#m160f664d3f" x="47.307188" y="384.117812" style="stroke: #000000; stroke-width: 0.8"/>
      </g>
     </g>
     <g id="text_1">
      <!-- 0 -->
      <g transform="translate(43.807813 399.476094) scale(0.11 -0.11)">
       <defs>
        <path id="DejaVuSans-30" d="M 2034 4250 
Q 1547 4250 1301 3770 
Q 1056 3291 1056 2328 
Q 1056 1369 1301 889 
Q 1547 409 2034 409 
Q 2525 409 2770 889 
Q 3016 1369 3016 2328 
Q 3016 3291 2770 3770 
Q 2525 4250 2034 4250 
z
M 2034 4750 
Q 2819 4750 3233 4129 
Q 3647 3509 3647 2328 
Q 3647 1150 3233 529 
Q 2819 -91 2034 -91 
Q 1250 -91 836 529 
Q 422 1150 422 2328 
Q 422 3509 836 4129 
Q 1250 4750 2034 4750 
z
" transform="scale(0.015625)"/>
       </defs>
       <use xlink:href="#DejaVuSans-30"/>
      </g>
     </g>
    </g>
    <g id="xtick_2">
     <g id="line2d_3">
      <path d="M 134.387875 384.117812 
L 134.387875 23.837812 
" clip-path="url(#pc19249e170)" style="fill: none; stroke: #b0b0b0; stroke-opacity: 0.2; stroke-width: 0.6; stroke-linecap: square"/>
     </g>
     <g id="line2d_4">
      <g>
       <use xlink:href="#m160f664d3f" x="134.387875" y="384.117812" style="stroke: #000000; stroke-width: 0.8"/>
      </g>
     </g>
     <g id="text_2">
      <!-- 25 -->
      <g transform="translate(127.389125 399.476094) scale(0.11 -0.11)">
       <defs>
        <path id="DejaVuSans-32" d="M 1228 531 
L 3431 531 
L 3431 0 
L 469 0 
L 469 531 
Q 828 903 1448 1529 
Q 2069 2156 2228 2338 
Q 2531 2678 2651 2914 
Q 2772 3150 2772 3378 
Q 2772 3750 2511 3984 
Q 2250 4219 1831 4219 
Q 1534 4219 1204 4116 
Q 875 4013 500 3803 
L 500 4441 
Q 881 4594 1212 4672 
Q 1544 4750 1819 4750 
Q 2544 4750 2975 4387 
Q 3406 4025 3406 3419 
Q 3406 3131 3298 2873 
Q 3191 2616 2906 2266 
Q 2828 2175 2409 1742 
Q 1991 1309 1228 531 
z
" transform="scale(0.015625)"/>
        <path id="DejaVuSans-35" d="M 691 4666 
L 3169 4666 
L 3169 4134 
L 1269 4134 
L 1269 2991 
Q 1406 3038 1543 3061 
Q 1681 3084 1819 3084 
Q 2600 3084 3056 2656 
Q 3513 2228 3513 1497 
Q 3513 744 3044 326 
Q 2575 -91 1722 -91 
Q 1428 -91 1123 -41 
Q 819 9 494 109 
L 494 744 
Q 775 591 1075 516 
Q 1375 441 1709 441 
Q 2250 441 2565 725 
Q 2881 1009 2881 1497 
Q 2881 1984 2565 2268 
Q 2250 2553 1709 2553 
Q 1456 2553 1204 2497 
Q 953 2441 691 2322 
L 691 4666 
z
" transform="scale(0.015625)"/>
       </defs>
       <use xlink:href="#DejaVuSans-32"/>
       <use xlink:href="#DejaVuSans-35" transform="translate(63.623047 0)"/>
      </g>
     </g>
    </g>
    <g id="xtick_3">
     <g id="line2d_5">
      <path d="M 221.468563 384.117812 
L 221.468563 23.837812 
" clip-path="url(#pc19249e170)" style="fill: none; stroke: #b0b0b0; stroke-opacity: 0.2; stroke-width: 0.6; stroke-linecap: square"/>
     </g>
     <g id="line2d_6">
      <g>
       <use xlink:href="#m160f664d3f" x="221.468563" y="384.117812" style="stroke: #000000; stroke-width: 0.8"/>
      </g>
     </g>
     <g id="text_3">
      <!-- 50 -->
      <g transform="translate(214.469813 399.476094) scale(0.11 -0.11)">
       <use xlink:href="#DejaVuSans-35"/>
       <use xlink:href="#DejaVuSans-30" transform="translate(63.623047 0)"/>
      </g>
     </g>
    </g>
    <g id="xtick_4">
     <g id="line2d_7">
      <path d="M 308.549251 384.117812 
L 308.549251 23.837812 
" clip-path="url(#pc19249e170)" style="fill: none; stroke: #b0b0b0; stroke-opacity: 0.2; stroke-width: 0.6; stroke-linecap: square"/>
     </g>
     <g id="line2d_8">
      <g>
       <use xlink:href="#m160f664d3f" x="308.549251" y="384.117812" style="stroke: #000000; stroke-width: 0.8"/>
      </g>
     </g>
     <g id="text_4">
      <!-- 75 -->
      <g transform="translate(301.550501 399.476094) scale(0.11 -0.11)">
       <defs>
        <path id="DejaVuSans-37" d="M 525 4666 
L 3525 4666 
L 3525 4397 
L 1831 0 
L 1172 0 
L 2766 4134 
L 525 4134 
L 525 4666 
z
" transform="scale(0.015625)"/>
       </defs>
       <use xlink:href="#DejaVuSans-37"/>
       <use xlink:href="#DejaVuSans-35" transform="translate(63.623047 0)"/>
      </g>
     </g>
    </g>
    <g id="xtick_5">
     <g id="line2d_9">
      <path d="M 395.629939 384.117812 
L 395.629939 23.837812 
" clip-path="url(#pc19249e170)" style="fill: none; stroke: #b0b0b0; stroke-opacity: 0.2; stroke-width: 0.6; stroke-linecap: square"/>
     </g>
     <g id="line2d_10">
      <g>
       <use xlink:href="#m160f664d3f" x="395.629939" y="384.117812" style="stroke: #000000; stroke-width: 0.8"/>
      </g>
     </g>
     <g id="text_5">
      <!-- 100 -->
      <g transform="translate(385.131814 399.476094) scale(0.11 -0.11)">
       <defs>
        <path id="DejaVuSans-31" d="M 794 531 
L 1825 531 
L 1825 4091 
L 703 3866 
L 703 4441 
L 1819 4666 
L 2450 4666 
L 2450 531 
L 3481 531 
L 3481 0 
L 794 0 
L 794 531 
z
" transform="scale(0.015625)"/>
       </defs>
       <use xlink:href="#DejaVuSans-31"/>
       <use xlink:href="#DejaVuSans-30" transform="translate(63.623047 0)"/>
       <use xlink:href="#DejaVuSans-30" transform="translate(127.246094 0)"/>
      </g>
     </g>
    </g>
    <g id="xtick_6">
     <g id="line2d_11">
      <path d="M 482.710627 384.117812 
L 482.710627 23.837812 
" clip-path="url(#pc19249e170)" style="fill: none; stroke: #b0b0b0; stroke-opacity: 0.2; stroke-width: 0.6; stroke-linecap: square"/>
     </g>
     <g id="line2d_12">
      <g>
       <use xlink:href="#m160f664d3f" x="482.710627" y="384.117812" style="stroke: #000000; stroke-width: 0.8"/>
      </g>
     </g>
     <g id="text_6">
      <!-- 125 -->
      <g transform="translate(472.212502 399.476094) scale(0.11 -0.11)">
       <use xlink:href="#DejaVuSans-31"/>
       <use xlink:href="#DejaVuSans-32" transform="translate(63.623047 0)"/>
       <use xlink:href="#DejaVuSans-35" transform="translate(127.246094 0)"/>
      </g>
     </g>
    </g>
    <g id="xtick_7">
     <g id="line2d_13">
      <path d="M 569.791314 384.117812 
L 569.791314 23.837812 
" clip-path="url(#pc19249e170)" style="fill: none; stroke: #b0b0b0; stroke-opacity: 0.2; stroke-width: 0.6; stroke-linecap: square"/>
     </g>
     <g id="line2d_14">
      <g>
       <use xlink:href="#m160f664d3f" x="569.791314" y="384.117812" style="stroke: #000000; stroke-width: 0.8"/>
      </g>
     </g>
     <g id="text_7">
      <!-- 150 -->
      <g transform="translate(559.293189 399.476094) scale(0.11 -0.11)">
       <use xlink:href="#DejaVuSans-31"/>
       <use xlink:href="#DejaVuSans-35" transform="translate(63.623047 0)"/>
       <use xlink:href="#DejaVuSans-30" transform="translate(127.246094 0)"/>
      </g>
     </g>
    </g>
    <g id="xtick_8">
     <g id="line2d_15">
      <path d="M 656.872002 384.117812 
L 656.872002 23.837812 
" clip-path="url(#pc19249e170)" style="fill: none; stroke: #b0b0b0; stroke-opacity: 0.2; stroke-width: 0.6; stroke-linecap: square"/>
     </g>
     <g id="line2d_16">
      <g>
       <use xlink:href="#m160f664d3f" x="656.872002" y="384.117812" style="stroke: #000000; stroke-width: 0.8"/>
      </g>
     </g>
     <g id="text_8">
      <!-- 175 -->
      <g transform="translate(646.373877 399.476094) scale(0.11 -0.11)">
       <use xlink:href="#DejaVuSans-31"/>
       <use xlink:href="#DejaVuSans-37" transform="translate(63.623047 0)"/>
       <use xlink:href="#DejaVuSans-35" transform="translate(127.246094 0)"/>
      </g>
     </g>
    </g>
    <g id="text_9">
     <!-- Time (s) -->
     <g transform="translate(352.0775 414.881875) scale(0.12 -0.12)">
      <defs>
       <path id="DejaVuSans-54" d="M -19 4666 
L 3928 4666 
L 3928 4134 
L 2272 4134 
L 2272 0 
L 1638 0 
L 1638 4134 
L -19 4134 
L -19 4666 
z
" transform="scale(0.015625)"/>
       <path id="DejaVuSans-69" d="M 603 3500 
L 1178 3500 
L 1178 0 
L 603 0 
L 603 3500 
z
M 603 4863 
L 1178 4863 
L 1178 4134 
L 603 4134 
L 603 4863 
z
" transform="scale(0.015625)"/>
       <path id="DejaVuSans-6d" d="M 3328 2828 
Q 3544 3216 3844 3400 
Q 4144 3584 4550 3584 
Q 5097 3584 5394 3201 
Q 5691 2819 5691 2113 
L 5691 0 
L 5113 0 
L 5113 2094 
Q 5113 2597 4934 2840 
Q 4756 3084 4391 3084 
Q 3944 3084 3684 2787 
Q 3425 2491 3425 1978 
L 3425 0 
L 2847 0 
L 2847 2094 
Q 2847 2600 2669 2842 
Q 2491 3084 2119 3084 
Q 1678 3084 1418 2786 
Q 1159 2488 1159 1978 
L 1159 0 
L 581 0 
L 581 3500 
L 1159 3500 
L 1159 2956 
Q 1356 3278 1631 3431 
Q 1906 3584 2284 3584 
Q 2666 3584 2933 3390 
Q 3200 3197 3328 2828 
z
" transform="scale(0.015625)"/>
       <path id="DejaVuSans-65" d="M 3597 1894 
L 3597 1613 
L 953 1613 
Q 991 1019 1311 708 
Q 1631 397 2203 397 
Q 2534 397 2845 478 
Q 3156 559 3463 722 
L 3463 178 
Q 3153 47 2828 -22 
Q 2503 -91 2169 -91 
Q 1331 -91 842 396 
Q 353 884 353 1716 
Q 353 2575 817 3079 
Q 1281 3584 2069 3584 
Q 2775 3584 3186 3129 
Q 3597 2675 3597 1894 
z
M 3022 2063 
Q 3016 2534 2758 2815 
Q 2500 3097 2075 3097 
Q 1594 3097 1305 2825 
Q 1016 2553 972 2059 
L 3022 2063 
z
" transform="scale(0.015625)"/>
       <path id="DejaVuSans-20" transform="scale(0.015625)"/>
       <path id="DejaVuSans-28" d="M 1984 4856 
Q 1566 4138 1362 3434 
Q 1159 2731 1159 2009 
Q 1159 1288 1364 580 
Q 1569 -128 1984 -844 
L 1484 -844 
Q 1016 -109 783 600 
Q 550 1309 550 2009 
Q 550 2706 781 3412 
Q 1013 4119 1484 4856 
L 1984 4856 
z
" transform="scale(0.015625)"/>
       <path id="DejaVuSans-73" d="M 2834 3397 
L 2834 2853 
Q 2591 2978 2328 3040 
Q 2066 3103 1784 3103 
Q 1356 3103 1142 2972 
Q 928 2841 928 2578 
Q 928 2378 1081 2264 
Q 1234 2150 1697 2047 
L 1894 2003 
Q 2506 1872 2764 1633 
Q 3022 1394 3022 966 
Q 3022 478 2636 193 
Q 2250 -91 1575 -91 
Q 1294 -91 989 -36 
Q 684 19 347 128 
L 347 722 
Q 666 556 975 473 
Q 1284 391 1588 391 
Q 1994 391 2212 530 
Q 2431 669 2431 922 
Q 2431 1156 2273 1281 
Q 2116 1406 1581 1522 
L 1381 1569 
Q 847 1681 609 1914 
Q 372 2147 372 2553 
Q 372 3047 722 3315 
Q 1072 3584 1716 3584 
Q 2034 3584 2315 3537 
Q 2597 3491 2834 3397 
z
" transform="scale(0.015625)"/>
       <path id="DejaVuSans-29" d="M 513 4856 
L 1013 4856 
Q 1481 4119 1714 3412 
Q 1947 2706 1947 2009 
Q 1947 1309 1714 600 
Q 1481 -109 1013 -844 
L 513 -844 
Q 928 -128 1133 580 
Q 1338 1288 1338 2009 
Q 1338 2731 1133 3434 
Q 928 4138 513 4856 
z
" transform="scale(0.015625)"/>
      </defs>
      <use xlink:href="#DejaVuSans-54"/>
      <use xlink:href="#DejaVuSans-69" transform="translate(57.958984 0)"/>
      <use xlink:href="#DejaVuSans-6d" transform="translate(85.742188 0)"/>
      <use xlink:href="#DejaVuSans-65" transform="translate(183.154297 0)"/>
      <use xlink:href="#DejaVuSans-20" transform="translate(244.677734 0)"/>
      <use xlink:href="#DejaVuSans-28" transform="translate(276.464844 0)"/>
      <use xlink:href="#DejaVuSans-73" transform="translate(315.478516 0)"/>
      <use xlink:href="#DejaVuSans-29" transform="translate(367.578125 0)"/>
     </g>
    </g>
   </g>
   <g id="matplotlib.axis_2">
    <g id="ytick_1">
     <g id="line2d_17">
      <path d="M 47.307188 367.741449 
L 705.637188 367.741449 
" clip-path="url(#pc19249e170)" style="fill: none; stroke: #b0b0b0; stroke-opacity: 0.2; stroke-width: 0.6; stroke-linecap: square"/>
     </g>
     <g id="line2d_18">
      <defs>
       <path id="mc40c8b1397" d="M 0 0 
L -3.5 0 
" style="stroke: #000000; stroke-width: 0.8"/>
      </defs>
      <g>
       <use xlink:href="#mc40c8b1397" x="47.307188" y="367.741449" style="stroke: #000000; stroke-width: 0.8"/>
      </g>
     </g>
     <g id="text_10">
      <!-- 0.0 -->
      <g transform="translate(22.81375 371.920589) scale(0.11 -0.11)">
       <defs>
        <path id="DejaVuSans-2e" d="M 684 794 
L 1344 794 
L 1344 0 
L 684 0 
L 684 794 
z
" transform="scale(0.015625)"/>
       </defs>
       <use xlink:href="#DejaVuSans-30"/>
       <use xlink:href="#DejaVuSans-2e" transform="translate(63.623047 0)"/>
       <use xlink:href="#DejaVuSans-30" transform="translate(95.410156 0)"/>
      </g>
     </g>
    </g>
    <g id="ytick_2">
     <g id="line2d_19">
      <path d="M 47.307188 317.507205 
L 705.637188 317.507205 
" clip-path="url(#pc19249e170)" style="fill: none; stroke: #b0b0b0; stroke-opacity: 0.2; stroke-width: 0.6; stroke-linecap: square"/>
     </g>
     <g id="line2d_20">
      <g>
       <use xlink:href="#mc40c8b1397" x="47.307188" y="317.507205" style="stroke: #000000; stroke-width: 0.8"/>
      </g>
     </g>
     <g id="text_11">
      <!-- 0.5 -->
      <g transform="translate(22.81375 321.686345) scale(0.11 -0.11)">
       <use xlink:href="#DejaVuSans-30"/>
       <use xlink:href="#DejaVuSans-2e" transform="translate(63.623047 0)"/>
       <use xlink:href="#DejaVuSans-35" transform="translate(95.410156 0)"/>
      </g>
     </g>
    </g>
    <g id="ytick_3">
     <g id="line2d_21">
      <path d="M 47.307188 267.27296 
L 705.637188 267.27296 
" clip-path="url(#pc19249e170)" style="fill: none; stroke: #b0b0b0; stroke-opacity: 0.2; stroke-width: 0.6; stroke-linecap: square"/>
     </g>
     <g id="line2d_22">
      <g>
       <use xlink:href="#mc40c8b1397" x="47.307188" y="267.27296" style="stroke: #000000; stroke-width: 0.8"/>
      </g>
     </g>
     <g id="text_12">
      <!-- 1.0 -->
      <g transform="translate(22.81375 271.452101) scale(0.11 -0.11)">
       <use xlink:href="#DejaVuSans-31"/>
       <use xlink:href="#DejaVuSans-2e" transform="translate(63.623047 0)"/>
       <use xlink:href="#DejaVuSans-30" transform="translate(95.410156 0)"/>
      </g>
     </g>
    </g>
    <g id="ytick_4">
     <g id="line2d_23">
      <path d="M 47.307188 217.038716 
L 705.637188 217.038716 
" clip-path="url(#pc19249e170)" style="fill: none; stroke: #b0b0b0; stroke-opacity: 0.2; stroke-width: 0.6; stroke-linecap: square"/>
     </g>
     <g id="line2d_24">
      <g>
       <use xlink:href="#mc40c8b1397" x="47.307188" y="217.038716" style="stroke: #000000; stroke-width: 0.8"/>
      </g>
     </g>
     <g id="text_13">
      <!-- 1.5 -->
      <g transform="translate(22.81375 221.217857) scale(0.11 -0.11)">
       <use xlink:href="#DejaVuSans-31"/>
       <use xlink:href="#DejaVuSans-2e" transform="translate(63.623047 0)"/>
       <use xlink:href="#DejaVuSans-35" transform="translate(95.410156 0)"/>
      </g>
     </g>
    </g>
    <g id="ytick_5">
     <g id="line2d_25">
      <path d="M 47.307188 166.804472 
L 705.637188 166.804472 
" clip-path="url(#pc19249e170)" style="fill: none; stroke: #b0b0b0; stroke-opacity: 0.2; stroke-width: 0.6; stroke-linecap: square"/>
     </g>
     <g id="line2d_26">
      <g>
       <use xlink:href="#mc40c8b1397" x="47.307188" y="166.804472" style="stroke: #000000; stroke-width: 0.8"/>
      </g>
     </g>
     <g id="text_14">
      <!-- 2.0 -->
      <g transform="translate(22.81375 170.983612) scale(0.11 -0.11)">
       <use xlink:href="#DejaVuSans-32"/>
       <use xlink:href="#DejaVuSans-2e" transform="translate(63.623047 0)"/>
       <use xlink:href="#DejaVuSans-30" transform="translate(95.410156 0)"/>
      </g>
     </g>
    </g>
    <g id="ytick_6">
     <g id="line2d_27">
      <path d="M 47.307188 116.570227 
L 705.637188 116.570227 
" clip-path="url(#pc19249e170)" style="fill: none; stroke: #b0b0b0; stroke-opacity: 0.2; stroke-width: 0.6; stroke-linecap: square"/>
     </g>
     <g id="line2d_28">
      <g>
       <use xlink:href="#mc40c8b1397" x="47.307188" y="116.570227" style="stroke: #000000; stroke-width: 0.8"/>
      </g>
     </g>
     <g id="text_15">
      <!-- 2.5 -->
      <g transform="translate(22.81375 120.749368) scale(0.11 -0.11)">
       <use xlink:href="#DejaVuSans-32"/>
       <use xlink:href="#DejaVuSans-2e" transform="translate(63.623047 0)"/>
       <use xlink:href="#DejaVuSans-35" transform="translate(95.410156 0)"/>
      </g>
     </g>
    </g>
    <g id="ytick_7">
     <g id="line2d_29">
      <path d="M 47.307188 66.335983 
L 705.637188 66.335983 
" clip-path="url(#pc19249e170)" style="fill: none; stroke: #b0b0b0; stroke-opacity: 0.2; stroke-width: 0.6; stroke-linecap: square"/>
     </g>
     <g id="line2d_30">
      <g>
       <use xlink:href="#mc40c8b1397" x="47.307188" y="66.335983" style="stroke: #000000; stroke-width: 0.8"/>
      </g>
     </g>
     <g id="text_16">
      <!-- 3.0 -->
      <g transform="translate(22.81375 70.515124) scale(0.11 -0.11)">
       <defs>
        <path id="DejaVuSans-33" d="M 2597 2516 
Q 3050 2419 3304 2112 
Q 3559 1806 3559 1356 
Q 3559 666 3084 287 
Q 2609 -91 1734 -91 
Q 1441 -91 1130 -33 
Q 819 25 488 141 
L 488 750 
Q 750 597 1062 519 
Q 1375 441 1716 441 
Q 2309 441 2620 675 
Q 2931 909 2931 1356 
Q 2931 1769 2642 2001 
Q 2353 2234 1838 2234 
L 1294 2234 
L 1294 2753 
L 1863 2753 
Q 2328 2753 2575 2939 
Q 2822 3125 2822 3475 
Q 2822 3834 2567 4026 
Q 2313 4219 1838 4219 
Q 1578 4219 1281 4162 
Q 984 4106 628 3988 
L 628 4550 
Q 988 4650 1302 4700 
Q 1616 4750 1894 4750 
Q 2613 4750 3031 4423 
Q 3450 4097 3450 3541 
Q 3450 3153 3228 2886 
Q 3006 2619 2597 2516 
z
" transform="scale(0.015625)"/>
       </defs>
       <use xlink:href="#DejaVuSans-33"/>
       <use xlink:href="#DejaVuSans-2e" transform="translate(63.623047 0)"/>
       <use xlink:href="#DejaVuSans-30" transform="translate(95.410156 0)"/>
      </g>
     </g>
    </g>
    <g id="text_17">
     <!-- AU mean intensity -->
     <g transform="translate(16.318125 259.314687) rotate(-90) scale(0.12 -0.12)">
      <defs>
       <path id="DejaVuSans-41" d="M 2188 4044 
L 1331 1722 
L 3047 1722 
L 2188 4044 
z
M 1831 4666 
L 2547 4666 
L 4325 0 
L 3669 0 
L 3244 1197 
L 1141 1197 
L 716 0 
L 50 0 
L 1831 4666 
z
" transform="scale(0.015625)"/>
       <path id="DejaVuSans-55" d="M 556 4666 
L 1191 4666 
L 1191 1831 
Q 1191 1081 1462 751 
Q 1734 422 2344 422 
Q 2950 422 3222 751 
Q 3494 1081 3494 1831 
L 3494 4666 
L 4128 4666 
L 4128 1753 
Q 4128 841 3676 375 
Q 3225 -91 2344 -91 
Q 1459 -91 1007 375 
Q 556 841 556 1753 
L 556 4666 
z
" transform="scale(0.015625)"/>
       <path id="DejaVuSans-61" d="M 2194 1759 
Q 1497 1759 1228 1600 
Q 959 1441 959 1056 
Q 959 750 1161 570 
Q 1363 391 1709 391 
Q 2188 391 2477 730 
Q 2766 1069 2766 1631 
L 2766 1759 
L 2194 1759 
z
M 3341 1997 
L 3341 0 
L 2766 0 
L 2766 531 
Q 2569 213 2275 61 
Q 1981 -91 1556 -91 
Q 1019 -91 701 211 
Q 384 513 384 1019 
Q 384 1609 779 1909 
Q 1175 2209 1959 2209 
L 2766 2209 
L 2766 2266 
Q 2766 2663 2505 2880 
Q 2244 3097 1772 3097 
Q 1472 3097 1187 3025 
Q 903 2953 641 2809 
L 641 3341 
Q 956 3463 1253 3523 
Q 1550 3584 1831 3584 
Q 2591 3584 2966 3190 
Q 3341 2797 3341 1997 
z
" transform="scale(0.015625)"/>
       <path id="DejaVuSans-6e" d="M 3513 2113 
L 3513 0 
L 2938 0 
L 2938 2094 
Q 2938 2591 2744 2837 
Q 2550 3084 2163 3084 
Q 1697 3084 1428 2787 
Q 1159 2491 1159 1978 
L 1159 0 
L 581 0 
L 581 3500 
L 1159 3500 
L 1159 2956 
Q 1366 3272 1645 3428 
Q 1925 3584 2291 3584 
Q 2894 3584 3203 3211 
Q 3513 2838 3513 2113 
z
" transform="scale(0.015625)"/>
       <path id="DejaVuSans-74" d="M 1172 4494 
L 1172 3500 
L 2356 3500 
L 2356 3053 
L 1172 3053 
L 1172 1153 
Q 1172 725 1289 603 
Q 1406 481 1766 481 
L 2356 481 
L 2356 0 
L 1766 0 
Q 1100 0 847 248 
Q 594 497 594 1153 
L 594 3053 
L 172 3053 
L 172 3500 
L 594 3500 
L 594 4494 
L 1172 4494 
z
" transform="scale(0.015625)"/>
       <path id="DejaVuSans-79" d="M 2059 -325 
Q 1816 -950 1584 -1140 
Q 1353 -1331 966 -1331 
L 506 -1331 
L 506 -850 
L 844 -850 
Q 1081 -850 1212 -737 
Q 1344 -625 1503 -206 
L 1606 56 
L 191 3500 
L 800 3500 
L 1894 763 
L 2988 3500 
L 3597 3500 
L 2059 -325 
z
" transform="scale(0.015625)"/>
      </defs>
      <use xlink:href="#DejaVuSans-41"/>
      <use xlink:href="#DejaVuSans-55" transform="translate(68.408203 0)"/>
      <use xlink:href="#DejaVuSans-20" transform="translate(141.601562 0)"/>
      <use xlink:href="#DejaVuSans-6d" transform="translate(173.388672 0)"/>
      <use xlink:href="#DejaVuSans-65" transform="translate(270.800781 0)"/>
      <use xlink:href="#DejaVuSans-61" transform="translate(332.324219 0)"/>
      <use xlink:href="#DejaVuSans-6e" transform="translate(393.603516 0)"/>
      <use xlink:href="#DejaVuSans-20" transform="translate(456.982422 0)"/>
      <use xlink:href="#DejaVuSans-69" transform="translate(488.769531 0)"/>
      <use xlink:href="#DejaVuSans-6e" transform="translate(516.552734 0)"/>
      <use xlink:href="#DejaVuSans-74" transform="translate(579.931641 0)"/>
      <use xlink:href="#DejaVuSans-65" transform="translate(619.140625 0)"/>
      <use xlink:href="#DejaVuSans-6e" transform="translate(680.664062 0)"/>
      <use xlink:href="#DejaVuSans-73" transform="translate(744.042969 0)"/>
      <use xlink:href="#DejaVuSans-69" transform="translate(796.142578 0)"/>
      <use xlink:href="#DejaVuSans-74" transform="translate(823.925781 0)"/>
      <use xlink:href="#DejaVuSans-79" transform="translate(863.134766 0)"/>
     </g>
    </g>
   </g>
   <g id="FillBetweenPolyCollection_1">
    <defs>
     <path id="m9e4f019cc0" d="M 47.307188 -180.275103 
L 47.307188 -14.263667 
L 50.790415 -14.124963 
L 54.273643 -4.487928 
L 57.75687 -6.099084 
L 61.240098 -10.582912 
L 64.723325 -15.68652 
L 68.206553 -16.230702 
L 71.68978 -17.651827 
L 75.173008 -24.882051 
L 78.656235 -24.325723 
L 82.139463 -19.208306 
L 85.62269 -11.000043 
L 89.105918 -20.544346 
L 92.589145 -22.832888 
L 96.072373 -25.568574 
L 99.5556 -31.207818 
L 103.038828 -30.38495 
L 106.522055 -21.427381 
L 110.005283 -18.566003 
L 113.48851 -25.720492 
L 116.971738 -22.349927 
L 120.454965 -17.468369 
L 123.938193 -8.7216 
L 127.42142 -10.540492 
L 130.904648 -10.219104 
L 134.387875 -15.400968 
L 137.871103 -15.450586 
L 141.35433 -18.27872 
L 144.837558 -16.945942 
L 148.320785 -13.074965 
L 151.804013 -9.408125 
L 155.28724 -12.878111 
L 158.770468 -11.14491 
L 162.253695 -7.575251 
L 165.736923 -17.044098 
L 169.22015 -12.112678 
L 172.703378 -15.326678 
L 176.186605 -14.771634 
L 179.669833 -12.476528 
L 183.153061 -12.110695 
L 186.636288 -22.509923 
L 190.119516 -22.705742 
L 193.602743 -28.870217 
L 197.085971 -35.826742 
L 200.569198 -30.070501 
L 204.052426 -25.483422 
L 207.535653 -28.175628 
L 211.018881 -27.809924 
L 214.502108 -23.199379 
L 217.985336 -21.104339 
L 221.468563 -22.376668 
L 224.951791 -23.744046 
L 228.435018 -29.784664 
L 231.918246 -25.626251 
L 235.401473 -15.810474 
L 238.884701 -18.544572 
L 242.367928 -24.148582 
L 245.851156 -23.076461 
L 249.334383 -19.088489 
L 252.817611 -22.595196 
L 256.300838 -25.576285 
L 259.784066 -13.312278 
L 263.267293 -17.069419 
L 266.750521 -23.465601 
L 270.233748 -18.372146 
L 273.716976 -23.558439 
L 277.200203 -20.219903 
L 280.683431 -11.762803 
L 284.166658 -15.457456 
L 287.649886 -16.338946 
L 291.133113 -20.953147 
L 294.616341 -20.524787 
L 298.099568 -15.972418 
L 301.582796 -17.0864 
L 305.066023 -23.991515 
L 308.549251 -20.809301 
L 312.032479 -22.616427 
L 315.515706 -25.081529 
L 318.998934 -22.173193 
L 322.482161 -24.431718 
L 325.965389 -23.304082 
L 329.448616 -20.77577 
L 332.931844 -19.170217 
L 336.415071 -23.333969 
L 339.898299 -25.562917 
L 343.381526 -28.180789 
L 346.864754 -32.091447 
L 350.347981 -25.855644 
L 353.831209 -9.953844 
L 357.314436 -8.172608 
L 360.797664 -18.902363 
L 364.280891 -16.674683 
L 367.764119 -14.070286 
L 371.247346 -15.48503 
L 374.730574 -14.785593 
L 378.213801 -22.193656 
L 381.697029 -17.602781 
L 385.180256 -19.956525 
L 388.663484 -25.640153 
L 392.146711 -20.224951 
L 395.629939 -7.697023 
L 399.113166 -26.200377 
L 402.596394 -36.072297 
L 406.079621 -25.079015 
L 409.562849 -20.06592 
L 413.046076 -21.15793 
L 416.529304 -37.316916 
L 420.012531 -33.719513 
L 423.495759 -20.791845 
L 426.978986 -40.401676 
L 430.462214 -38.353064 
L 433.945441 -36.158131 
L 437.428669 -29.843223 
L 440.911896 -23.64704 
L 444.395124 -24.326052 
L 447.878352 -28.647809 
L 451.361579 -24.611586 
L 454.844807 -22.194031 
L 458.328034 -27.132721 
L 461.811262 -22.121341 
L 465.294489 -27.169891 
L 468.777717 -16.705224 
L 472.260944 -10.793663 
L 475.744172 -18.885997 
L 479.227399 -20.938878 
L 482.710627 -25.894465 
L 486.193854 -23.6447 
L 489.677082 -25.212796 
L 493.160309 -30.018405 
L 496.643537 -30.358451 
L 500.126764 -26.08581 
L 503.609992 -25.597054 
L 507.093219 -24.19895 
L 510.576447 -18.812695 
L 514.059674 -19.84091 
L 517.542902 -19.040572 
L 521.026129 -8.52898 
L 524.509357 -8.561561 
L 527.992584 -11.769699 
L 531.475812 -3.313469 
L 534.959039 -7.934328 
L 538.442267 -16.004678 
L 541.925494 -14.878969 
L 545.408722 -12.426843 
L 548.891949 -14.871761 
L 552.375177 -16.100547 
L 555.858404 -17.998985 
L 559.341632 -15.436609 
L 562.824859 -14.513437 
L 566.308087 -13.273049 
L 569.791314 -19.326314 
L 573.274542 -13.62304 
L 576.75777 -23.537815 
L 580.240997 -21.773915 
L 583.724225 -18.06178 
L 587.207452 -28.327465 
L 590.69068 -25.270054 
L 594.173907 -23.006385 
L 597.657135 -14.605051 
L 601.140362 -31.879178 
L 604.62359 -36.772823 
L 608.106817 -27.761673 
L 611.590045 -23.42595 
L 615.073272 -33.558322 
L 618.5565 -34.035092 
L 622.039727 -32.759093 
L 625.522955 -41.370085 
L 629.006182 -21.67584 
L 632.48941 -25.33904 
L 635.972637 -24.194816 
L 639.455865 -29.265379 
L 642.939092 -32.68886 
L 646.42232 -30.811454 
L 649.905547 -32.861863 
L 653.388775 -20.65598 
L 656.872002 -24.836966 
L 660.35523 -23.75 
L 663.838457 -0.282148 
L 667.321685 0.123229 
L 670.804912 -2.54414 
L 674.28814 -10.538764 
L 677.771367 -2.260307 
L 681.254595 -5.009633 
L 684.737822 -21.550557 
L 688.22105 -17.663565 
L 691.704277 -73.00538 
L 695.187505 -80.535012 
L 698.670732 -58.578514 
L 702.15396 -49.816863 
L 705.637188 -33.601933 
L 705.637188 -193.206821 
L 705.637188 -193.206821 
L 702.15396 -186.679587 
L 698.670732 -178.836122 
L 695.187505 -166.364788 
L 691.704277 -173.542908 
L 688.22105 -207.463832 
L 684.737822 -205.529682 
L 681.254595 -228.195664 
L 677.771367 -240.282841 
L 674.28814 -227.835799 
L 670.804912 -240.893985 
L 667.321685 -249.838307 
L 663.838457 -255.824246 
L 660.35523 -221.414288 
L 656.872002 -222.709397 
L 653.388775 -218.599033 
L 649.905547 -200.58138 
L 646.42232 -203.795541 
L 642.939092 -191.614061 
L 639.455865 -200.107531 
L 635.972637 -197.434719 
L 632.48941 -194.086949 
L 629.006182 -196.437297 
L 625.522955 -180.524404 
L 622.039727 -184.557226 
L 618.5565 -191.678281 
L 615.073272 -201.518978 
L 611.590045 -201.879607 
L 608.106817 -212.786541 
L 604.62359 -218.122324 
L 601.140362 -214.642291 
L 597.657135 -218.940542 
L 594.173907 -219.025759 
L 590.69068 -198.020731 
L 587.207452 -206.836445 
L 583.724225 -223.078367 
L 580.240997 -198.911563 
L 576.75777 -204.42056 
L 573.274542 -217.51347 
L 569.791314 -216.920045 
L 566.308087 -214.71949 
L 562.824859 -216.112629 
L 559.341632 -215.512245 
L 555.858404 -211.765536 
L 552.375177 -213.205589 
L 548.891949 -215.14123 
L 545.408722 -219.604645 
L 541.925494 -218.461366 
L 538.442267 -224.31546 
L 534.959039 -236.225275 
L 531.475812 -239.489511 
L 527.992584 -230.50747 
L 524.509357 -234.599411 
L 521.026129 -239.779 
L 517.542902 -222.367975 
L 514.059674 -218.485039 
L 510.576447 -213.761554 
L 507.093219 -210.275707 
L 503.609992 -205.649163 
L 500.126764 -198.533752 
L 496.643537 -191.224892 
L 493.160309 -189.237684 
L 489.677082 -180.113052 
L 486.193854 -185.149243 
L 482.710627 -192.261978 
L 479.227399 -209.065443 
L 475.744172 -213.586495 
L 472.260944 -218.067863 
L 468.777717 -214.03138 
L 465.294489 -191.728735 
L 461.811262 -205.604087 
L 458.328034 -196.391248 
L 454.844807 -201.086602 
L 451.361579 -195.930824 
L 447.878352 -191.509376 
L 444.395124 -209.840535 
L 440.911896 -208.171975 
L 437.428669 -182.856688 
L 433.945441 -185.945091 
L 430.462214 -187.256099 
L 426.978986 -185.96498 
L 423.495759 -210.284863 
L 420.012531 -194.060611 
L 416.529304 -189.908951 
L 413.046076 -196.63292 
L 409.562849 -202.217763 
L 406.079621 -208.910579 
L 402.596394 -195.58664 
L 399.113166 -205.443034 
L 395.629939 -248.139344 
L 392.146711 -211.965423 
L 388.663484 -215.380497 
L 385.180256 -221.561009 
L 381.697029 -199.698099 
L 378.213801 -198.139133 
L 374.730574 -201.23709 
L 371.247346 -204.297917 
L 367.764119 -204.812093 
L 364.280891 -205.408388 
L 360.797664 -215.256101 
L 357.314436 -254.886637 
L 353.831209 -251.211957 
L 350.347981 -218.367918 
L 346.864754 -207.683503 
L 343.381526 -205.529567 
L 339.898299 -208.852811 
L 336.415071 -200.058935 
L 332.931844 -208.702873 
L 329.448616 -195.440401 
L 325.965389 -176.925279 
L 322.482161 -184.21909 
L 318.998934 -190.683784 
L 315.515706 -185.535468 
L 312.032479 -181.276919 
L 308.549251 -190.872834 
L 305.066023 -184.841306 
L 301.582796 -197.287369 
L 298.099568 -194.983511 
L 294.616341 -190.757202 
L 291.133113 -187.267656 
L 287.649886 -189.33811 
L 284.166658 -196.40909 
L 280.683431 -211.757733 
L 277.200203 -204.691342 
L 273.716976 -202.023434 
L 270.233748 -211.813695 
L 266.750521 -202.249075 
L 263.267293 -211.455451 
L 259.784066 -213.909426 
L 256.300838 -199.677957 
L 252.817611 -196.075138 
L 249.334383 -202.465704 
L 245.851156 -211.357032 
L 242.367928 -202.310202 
L 238.884701 -192.769621 
L 235.401473 -189.98475 
L 231.918246 -192.033624 
L 228.435018 -186.756908 
L 224.951791 -191.193364 
L 221.468563 -187.658758 
L 217.985336 -197.817166 
L 214.502108 -203.478167 
L 211.018881 -207.515661 
L 207.535653 -199.987339 
L 204.052426 -199.754895 
L 200.569198 -193.749635 
L 197.085971 -187.560992 
L 193.602743 -203.233167 
L 190.119516 -213.278084 
L 186.636288 -218.5438 
L 183.153061 -221.869535 
L 179.669833 -218.65188 
L 176.186605 -210.637017 
L 172.703378 -211.780289 
L 169.22015 -214.222708 
L 165.736923 -205.341931 
L 162.253695 -220.772392 
L 158.770468 -222.38988 
L 155.28724 -215.481081 
L 151.804013 -223.667535 
L 148.320785 -220.440454 
L 144.837558 -205.828997 
L 141.35433 -202.175796 
L 137.871103 -214.151142 
L 134.387875 -216.757549 
L 130.904648 -220.382655 
L 127.42142 -221.707523 
L 123.938193 -223.873323 
L 120.454965 -209.395344 
L 116.971738 -198.188778 
L 113.48851 -186.531984 
L 110.005283 -205.543114 
L 106.522055 -191.00409 
L 103.038828 -168.293756 
L 99.5556 -174.231278 
L 96.072373 -185.204162 
L 92.589145 -187.716243 
L 89.105918 -188.243327 
L 85.62269 -197.118213 
L 82.139463 -189.382211 
L 78.656235 -188.792861 
L 75.173008 -190.914109 
L 71.68978 -203.484027 
L 68.206553 -196.25432 
L 64.723325 -193.309391 
L 61.240098 -201.578017 
L 57.75687 -219.884085 
L 54.273643 -226.791723 
L 50.790415 -208.272521 
L 47.307188 -180.275103 
z
" style="stroke: #d3d3d3; stroke-opacity: 0.5"/>
    </defs>
    <g clip-path="url(#pc19249e170)">
     <use xlink:href="#m9e4f019cc0" x="0" y="424.5775" style="fill: #d3d3d3; fill-opacity: 0.5; stroke: #d3d3d3; stroke-opacity: 0.5"/>
    </g>
   </g>
   <g id="FillBetweenPolyCollection_2">
    <defs>
     <path id="m02d6d7d9a3" d="M 47.307188 -138.772244 
L 47.307188 -55.766526 
L 50.790415 -62.661852 
L 54.273643 -60.063877 
L 57.75687 -59.545334 
L 61.240098 -58.331688 
L 64.723325 -60.092238 
L 68.206553 -61.236606 
L 71.68978 -64.109877 
L 75.173008 -66.390066 
L 78.656235 -65.442507 
L 82.139463 -61.751782 
L 85.62269 -57.529585 
L 89.105918 -62.469091 
L 92.589145 -64.053727 
L 96.072373 -65.477471 
L 99.5556 -66.963683 
L 103.038828 -64.862152 
L 106.522055 -63.821559 
L 110.005283 -65.310281 
L 113.48851 -65.923365 
L 116.971738 -66.30964 
L 120.454965 -65.450112 
L 123.938193 -62.509531 
L 127.42142 -63.33225 
L 130.904648 -62.759991 
L 134.387875 -65.740113 
L 137.871103 -65.125725 
L 141.35433 -64.252989 
L 144.837558 -64.166706 
L 148.320785 -64.916337 
L 151.804013 -62.972978 
L 155.28724 -63.528853 
L 158.770468 -63.956153 
L 162.253695 -60.874537 
L 165.736923 -64.118556 
L 169.22015 -62.640186 
L 172.703378 -64.440081 
L 176.186605 -63.73798 
L 179.669833 -64.020366 
L 183.153061 -64.550405 
L 186.636288 -71.518392 
L 190.119516 -70.348827 
L 193.602743 -72.460955 
L 197.085971 -73.760304 
L 200.569198 -70.990284 
L 204.052426 -69.05129 
L 207.535653 -71.128556 
L 211.018881 -72.736358 
L 214.502108 -68.269076 
L 217.985336 -65.282546 
L 221.468563 -63.697191 
L 224.951791 -65.606375 
L 228.435018 -69.027725 
L 231.918246 -67.228094 
L 235.401473 -59.354043 
L 238.884701 -62.100834 
L 242.367928 -68.688987 
L 245.851156 -70.146604 
L 249.334383 -64.932793 
L 252.817611 -65.965182 
L 256.300838 -69.101703 
L 259.784066 -63.461565 
L 263.267293 -65.665927 
L 266.750521 -68.16147 
L 270.233748 -66.732533 
L 273.716976 -68.174688 
L 277.200203 -66.337763 
L 280.683431 -61.761536 
L 284.166658 -60.695364 
L 287.649886 -59.588737 
L 291.133113 -62.531774 
L 294.616341 -63.082891 
L 298.099568 -60.725192 
L 301.582796 -62.136643 
L 305.066023 -64.203963 
L 308.549251 -63.325185 
L 312.032479 -62.28155 
L 315.515706 -65.195014 
L 318.998934 -64.300841 
L 322.482161 -64.378561 
L 325.965389 -61.709381 
L 329.448616 -64.441928 
L 332.931844 -66.553381 
L 336.415071 -67.51521 
L 339.898299 -71.38539 
L 343.381526 -72.517983 
L 346.864754 -75.989461 
L 350.347981 -73.983713 
L 353.831209 -70.268372 
L 357.314436 -69.851115 
L 360.797664 -67.990797 
L 364.280891 -63.858109 
L 367.764119 -61.755737 
L 371.247346 -62.688252 
L 374.730574 -61.398467 
L 378.213801 -66.180025 
L 381.697029 -63.12661 
L 385.180256 -70.357646 
L 388.663484 -73.075239 
L 392.146711 -68.160069 
L 395.629939 -67.807604 
L 399.113166 -71.011041 
L 402.596394 -75.950883 
L 406.079621 -71.036906 
L 409.562849 -65.603881 
L 413.046076 -65.026678 
L 416.529304 -75.464924 
L 420.012531 -73.804787 
L 423.495759 -68.165099 
L 426.978986 -76.792502 
L 430.462214 -75.578823 
L 433.945441 -73.604871 
L 437.428669 -68.096589 
L 440.911896 -69.778274 
L 444.395124 -70.704673 
L 447.878352 -69.363201 
L 451.361579 -67.441396 
L 454.844807 -66.917173 
L 458.328034 -69.447353 
L 461.811262 -67.992027 
L 465.294489 -68.309602 
L 468.777717 -66.036763 
L 472.260944 -62.612213 
L 475.744172 -67.561121 
L 479.227399 -67.970519 
L 482.710627 -67.486344 
L 486.193854 -64.020836 
L 489.677082 -63.93786 
L 493.160309 -69.823224 
L 496.643537 -70.575061 
L 500.126764 -69.197796 
L 503.609992 -70.610081 
L 507.093219 -70.718139 
L 510.576447 -67.54991 
L 514.059674 -69.501942 
L 517.542902 -69.872423 
L 521.026129 -66.341485 
L 524.509357 -65.071023 
L 527.992584 -66.454142 
L 531.475812 -62.35748 
L 534.959039 -65.007065 
L 538.442267 -68.082374 
L 541.925494 -65.774568 
L 545.408722 -64.221294 
L 548.891949 -64.939128 
L 552.375177 -65.376807 
L 555.858404 -66.440623 
L 559.341632 -65.455518 
L 562.824859 -64.913235 
L 566.308087 -63.634659 
L 569.791314 -68.724747 
L 573.274542 -64.595648 
L 576.75777 -68.758501 
L 580.240997 -66.058327 
L 583.724225 -69.315927 
L 587.207452 -72.95471 
L 590.69068 -68.457724 
L 594.173907 -72.011229 
L 597.657135 -65.688924 
L 601.140362 -77.569956 
L 604.62359 -82.110198 
L 608.106817 -74.01789 
L 611.590045 -68.039364 
L 615.073272 -75.548486 
L 618.5565 -73.445889 
L 622.039727 -70.708626 
L 625.522955 -76.158665 
L 629.006182 -65.366205 
L 632.48941 -67.526018 
L 635.972637 -67.504792 
L 639.455865 -71.975917 
L 642.939092 -72.42016 
L 646.42232 -74.057475 
L 649.905547 -74.791743 
L 653.388775 -70.141743 
L 656.872002 -74.305074 
L 660.35523 -73.166072 
L 663.838457 -64.167673 
L 667.321685 -62.367155 
L 670.804912 -62.131602 
L 674.28814 -64.863023 
L 677.771367 -61.765941 
L 681.254595 -60.806141 
L 684.737822 -67.545338 
L 688.22105 -65.113632 
L 691.704277 -98.139762 
L 695.187505 -101.992456 
L 698.670732 -88.642916 
L 702.15396 -84.032544 
L 705.637188 -73.503155 
L 705.637188 -153.305599 
L 705.637188 -153.305599 
L 702.15396 -152.463906 
L 698.670732 -148.77172 
L 695.187505 -144.907344 
L 691.704277 -148.408526 
L 688.22105 -160.013765 
L 684.737822 -159.534901 
L 681.254595 -172.399156 
L 677.771367 -180.777207 
L 674.28814 -173.51154 
L 670.804912 -181.306524 
L 667.321685 -187.347923 
L 663.838457 -191.938721 
L 660.35523 -171.998216 
L 656.872002 -173.241289 
L 653.388775 -169.113269 
L 649.905547 -158.651501 
L 646.42232 -160.549519 
L 642.939092 -151.882761 
L 639.455865 -157.396993 
L 635.972637 -154.124743 
L 632.48941 -151.899972 
L 629.006182 -152.746933 
L 625.522955 -145.735824 
L 622.039727 -146.607693 
L 618.5565 -152.267483 
L 615.073272 -159.528814 
L 611.590045 -157.266193 
L 608.106817 -166.530324 
L 604.62359 -172.784949 
L 601.140362 -168.951513 
L 597.657135 -167.856669 
L 594.173907 -170.020916 
L 590.69068 -154.833062 
L 587.207452 -162.2092 
L 583.724225 -171.82422 
L 580.240997 -154.627151 
L 576.75777 -159.199874 
L 573.274542 -166.540863 
L 569.791314 -167.521612 
L 566.308087 -164.35788 
L 562.824859 -165.712831 
L 559.341632 -165.493336 
L 555.858404 -163.323898 
L 552.375177 -163.929329 
L 548.891949 -165.073863 
L 545.408722 -167.810195 
L 541.925494 -167.565767 
L 538.442267 -172.237765 
L 534.959039 -179.152538 
L 531.475812 -180.445501 
L 527.992584 -175.823027 
L 524.509357 -178.089948 
L 521.026129 -181.966495 
L 517.542902 -171.536124 
L 514.059674 -168.824007 
L 510.576447 -165.024339 
L 507.093219 -163.756518 
L 503.609992 -160.636136 
L 500.126764 -155.421767 
L 496.643537 -151.008282 
L 493.160309 -149.432864 
L 489.677082 -141.387988 
L 486.193854 -144.773107 
L 482.710627 -150.6701 
L 479.227399 -162.033802 
L 475.744172 -164.91137 
L 472.260944 -166.249313 
L 468.777717 -164.699841 
L 465.294489 -150.589024 
L 461.811262 -159.7334 
L 458.328034 -154.076616 
L 454.844807 -156.363459 
L 451.361579 -153.101015 
L 447.878352 -150.793984 
L 444.395124 -163.461914 
L 440.911896 -162.040741 
L 437.428669 -144.603322 
L 433.945441 -148.498351 
L 430.462214 -150.030341 
L 426.978986 -149.574154 
L 423.495759 -162.911608 
L 420.012531 -153.975337 
L 416.529304 -151.760942 
L 413.046076 -152.764172 
L 409.562849 -156.679803 
L 406.079621 -162.952688 
L 402.596394 -155.708054 
L 399.113166 -160.63237 
L 395.629939 -188.028764 
L 392.146711 -164.030305 
L 388.663484 -167.945411 
L 385.180256 -171.159888 
L 381.697029 -154.17427 
L 378.213801 -154.152764 
L 374.730574 -154.624215 
L 371.247346 -157.094695 
L 367.764119 -157.126641 
L 364.280891 -158.224962 
L 360.797664 -166.167666 
L 357.314436 -193.20813 
L 353.831209 -190.897429 
L 350.347981 -170.23985 
L 346.864754 -163.785489 
L 343.381526 -161.192372 
L 339.898299 -163.030337 
L 336.415071 -155.877693 
L 332.931844 -161.319709 
L 329.448616 -151.774244 
L 325.965389 -138.51998 
L 322.482161 -144.272247 
L 318.998934 -148.556136 
L 315.515706 -145.421983 
L 312.032479 -141.611796 
L 308.549251 -148.356951 
L 305.066023 -144.628859 
L 301.582796 -152.237127 
L 298.099568 -150.230738 
L 294.616341 -148.199098 
L 291.133113 -145.689029 
L 287.649886 -146.088319 
L 284.166658 -151.171182 
L 280.683431 -161.759001 
L 277.200203 -158.573482 
L 273.716976 -157.407185 
L 270.233748 -163.453308 
L 266.750521 -157.553206 
L 263.267293 -162.858943 
L 259.784066 -163.760139 
L 256.300838 -156.152539 
L 252.817611 -152.705152 
L 249.334383 -156.6214 
L 245.851156 -164.286889 
L 242.367928 -157.769797 
L 238.884701 -149.213359 
L 235.401473 -146.441181 
L 231.918246 -150.431781 
L 228.435018 -147.513847 
L 224.951791 -149.331035 
L 221.468563 -146.338236 
L 217.985336 -153.638959 
L 214.502108 -158.40847 
L 211.018881 -162.589226 
L 207.535653 -157.034411 
L 204.052426 -156.187027 
L 200.569198 -152.829851 
L 197.085971 -149.627429 
L 193.602743 -159.64243 
L 190.119516 -165.634999 
L 186.636288 -169.53533 
L 183.153061 -169.429825 
L 179.669833 -167.108042 
L 176.186605 -161.670671 
L 172.703378 -162.666886 
L 169.22015 -163.695201 
L 165.736923 -158.267473 
L 162.253695 -167.473107 
L 158.770468 -169.578637 
L 155.28724 -164.830338 
L 151.804013 -170.102683 
L 148.320785 -168.599082 
L 144.837558 -158.608233 
L 141.35433 -156.201527 
L 137.871103 -164.476003 
L 134.387875 -166.418404 
L 130.904648 -167.841767 
L 127.42142 -168.915765 
L 123.938193 -170.085393 
L 120.454965 -161.4136 
L 116.971738 -154.229065 
L 113.48851 -146.329111 
L 110.005283 -158.798836 
L 106.522055 -148.609913 
L 103.038828 -133.816555 
L 99.5556 -138.475413 
L 96.072373 -145.295265 
L 92.589145 -146.495404 
L 89.105918 -146.318582 
L 85.62269 -150.58867 
L 82.139463 -146.838735 
L 78.656235 -147.676076 
L 75.173008 -149.406095 
L 71.68978 -157.025977 
L 68.206553 -151.248415 
L 64.723325 -148.903673 
L 61.240098 -153.829241 
L 57.75687 -166.437835 
L 54.273643 -171.215774 
L 50.790415 -159.735632 
L 47.307188 -138.772244 
z
" style="stroke: #808080; stroke-opacity: 0.7"/>
    </defs>
    <g clip-path="url(#pc19249e170)">
     <use xlink:href="#m02d6d7d9a3" x="0" y="424.5775" style="fill: #808080; fill-opacity: 0.7; stroke: #808080; stroke-opacity: 0.7"/>
    </g>
   </g>
   <g id="line2d_31">
    <path d="M 47.307188 367.741449 
L 54.273643 367.45299 
L 57.75687 359.874563 
L 61.240098 357.64322 
L 64.723325 356.465065 
L 68.206553 360.986677 
L 71.68978 365.084876 
L 75.173008 355.602468 
L 78.656235 351.366903 
L 82.139463 360.789779 
L 85.62269 355.710036 
L 89.105918 354.763928 
L 92.589145 351.297564 
L 96.072373 353.279084 
L 99.5556 357.767333 
L 103.038828 356.215433 
L 106.522055 357.701088 
L 110.005283 349.86011 
L 113.48851 346.457221 
L 116.971738 355.798968 
L 120.454965 359.653952 
L 123.938193 358.325928 
L 127.42142 354.72948 
L 130.904648 361.478939 
L 134.387875 356.584555 
L 137.871103 353.182719 
L 141.35433 354.311753 
L 144.837558 351.084279 
L 148.320785 346.681181 
L 151.804013 335.647447 
L 155.28724 349.116701 
L 158.770468 349.819977 
L 162.253695 352.792271 
L 165.736923 366.449214 
L 169.22015 356.945221 
L 172.703378 355.66831 
L 176.186605 356.371943 
L 179.669833 357.375057 
L 183.153061 355.839559 
L 186.636288 360.609008 
L 190.119516 357.456788 
L 193.602743 366.384863 
L 197.085971 358.563653 
L 200.569198 360.585561 
L 204.052426 357.776509 
L 207.535653 349.840105 
L 211.018881 358.181179 
L 214.502108 365.63458 
L 217.985336 347.794019 
L 221.468563 344.138782 
L 224.951791 341.364689 
L 228.435018 348.646094 
L 231.918246 334.478004 
L 235.401473 317.497068 
L 238.884701 326.863258 
L 242.367928 331.185689 
L 245.851156 323.674355 
L 249.334383 336.848286 
L 252.817611 317.233766 
L 256.300838 338.81307 
L 259.784066 329.638585 
L 263.267293 325.394346 
L 266.750521 336.081264 
L 270.233748 335.568991 
L 273.716976 334.052881 
L 277.200203 344.567807 
L 280.683431 352.200984 
L 284.166658 346.56155 
L 287.649886 350.277013 
L 291.133113 352.200345 
L 294.616341 355.477435 
L 298.099568 349.203667 
L 301.582796 343.245507 
L 305.066023 344.288983 
L 308.549251 342.81385 
L 312.032479 346.781931 
L 315.515706 338.799413 
L 318.998934 349.236329 
L 322.482161 351.768184 
L 325.965389 338.912184 
L 329.448616 347.973391 
L 332.931844 349.06378 
L 336.415071 350.317046 
L 339.898299 353.526015 
L 343.381526 346.403039 
L 346.864754 348.670901 
L 350.347981 341.501268 
L 353.831209 340.91732 
L 360.797664 358.47404 
L 364.280891 363.218891 
L 367.764119 357.573738 
L 371.247346 355.042104 
L 374.730574 355.952923 
L 378.213801 351.385571 
L 385.180256 343.8036 
L 388.663484 347.42186 
L 392.146711 362.023128 
L 395.629939 359.76247 
L 399.113166 358.26178 
L 402.596394 362.833088 
L 406.079621 356.525429 
L 409.562849 359.895897 
L 413.046076 350.247978 
L 416.529304 344.689003 
L 420.012531 335.368656 
L 423.495759 335.13384 
L 426.978986 353.457188 
L 430.462214 346.804409 
L 433.945441 338.320067 
L 437.428669 357.542012 
L 440.911896 349.795182 
L 444.395124 335.898886 
L 447.878352 361.633993 
L 451.361579 342.938384 
L 454.844807 347.894708 
L 458.328034 356.506655 
L 461.811262 364.368002 
L 465.294489 347.618917 
L 468.777717 357.371063 
L 472.260944 358.551552 
L 475.744172 357.669082 
L 479.227399 339.022126 
L 482.710627 339.838086 
L 486.193854 347.604552 
L 489.677082 358.589397 
L 493.160309 355.172128 
L 496.643537 353.76646 
L 500.126764 349.600771 
L 503.609992 354.339998 
L 507.093219 352.797254 
L 510.576447 364.107839 
L 514.059674 366.731087 
L 517.542902 367.110065 
L 521.026129 366.994916 
L 524.509357 361.579488 
L 527.992584 364.645919 
L 531.475812 349.046574 
L 534.959039 352.577769 
L 538.442267 358.020531 
L 541.925494 356.631018 
L 545.408722 348.696683 
L 548.891949 345.45948 
L 552.375177 355.169428 
L 555.858404 354.422765 
L 559.341632 354.46464 
L 562.824859 350.844149 
L 566.308087 346.48292 
L 569.791314 348.647912 
L 573.274542 353.797925 
L 576.75777 349.346364 
L 580.240997 340.779113 
L 583.724225 327.492488 
L 587.207452 276.70319 
L 590.69068 267.077462 
L 594.173907 278.18187 
L 597.657135 283.02752 
L 601.140362 305.028258 
L 604.62359 301.41373 
L 608.106817 311.22373 
L 611.590045 280.903024 
L 615.073272 317.013778 
L 618.5565 305.351409 
L 622.039727 306.414496 
L 625.522955 275.876845 
L 629.006182 282.194256 
L 632.48941 306.8196 
L 635.972637 308.879128 
L 639.455865 318.36409 
L 642.939092 323.922541 
L 646.42232 325.389675 
L 649.905547 301.831801 
L 653.388775 264.788608 
L 656.872002 280.416758 
L 660.35523 255.481306 
L 663.838457 250.77798 
L 667.321685 259.527055 
L 670.804912 297.288644 
L 674.28814 304.236206 
L 677.771367 329.112233 
L 681.254595 335.991825 
L 684.737822 318.279856 
L 688.22105 323.221569 
L 691.704277 316.275755 
L 695.187505 324.762085 
L 698.670732 333.59465 
L 702.15396 334.496227 
L 705.637188 315.553115 
L 705.637188 315.553115 
" clip-path="url(#pc19249e170)" style="fill: none; stroke: #ff8c00; stroke-width: 2.3; stroke-linecap: square"/>
   </g>
   <g id="line2d_32">
    <path d="M 284.166658 384.117812 
L 284.166658 23.837812 
" clip-path="url(#pc19249e170)" style="fill: none; stroke-dasharray: 5.55,2.4; stroke-dashoffset: 0; stroke: #808080; stroke-width: 1.5"/>
   </g>
   <g id="line2d_33">
    <path d="M 486.193854 384.117812 
L 486.193854 23.837812 
" clip-path="url(#pc19249e170)" style="fill: none; stroke-dasharray: 5.55,2.4; stroke-dashoffset: 0; stroke: #808080; stroke-width: 1.5"/>
   </g>
   <g id="patch_3">
    <path d="M 47.307188 384.117812 
L 47.307188 23.837812 
" style="fill: none; stroke: #000000; stroke-width: 0.8; stroke-linejoin: miter; stroke-linecap: square"/>
   </g>
   <g id="patch_4">
    <path d="M 705.637188 384.117812 
L 705.637188 23.837812 
" style="fill: none; stroke: #000000; stroke-width: 0.8; stroke-linejoin: miter; stroke-linecap: square"/>
   </g>
   <g id="patch_5">
    <path d="M 47.307188 384.117812 
L 705.637188 384.117812 
" style="fill: none; stroke: #000000; stroke-width: 0.8; stroke-linejoin: miter; stroke-linecap: square"/>
   </g>
   <g id="patch_6">
    <path d="M 47.307188 23.837812 
L 705.637188 23.837812 
" style="fill: none; stroke: #000000; stroke-width: 0.8; stroke-linejoin: miter; stroke-linecap: square"/>
   </g>
   <g id="text_18">
    <!-- Facial trace: Depressive disorder (MDD/DD) (male) -->
    <g transform="translate(199.417031 17.837812) scale(0.14 -0.14)">
     <defs>
      <path id="DejaVuSans-46" d="M 628 4666 
L 3309 4666 
L 3309 4134 
L 1259 4134 
L 1259 2759 
L 3109 2759 
L 3109 2228 
L 1259 2228 
L 1259 0 
L 628 0 
L 628 4666 
z
" transform="scale(0.015625)"/>
      <path id="DejaVuSans-63" d="M 3122 3366 
L 3122 2828 
Q 2878 2963 2633 3030 
Q 2388 3097 2138 3097 
Q 1578 3097 1268 2742 
Q 959 2388 959 1747 
Q 959 1106 1268 751 
Q 1578 397 2138 397 
Q 2388 397 2633 464 
Q 2878 531 3122 666 
L 3122 134 
Q 2881 22 2623 -34 
Q 2366 -91 2075 -91 
Q 1284 -91 818 406 
Q 353 903 353 1747 
Q 353 2603 823 3093 
Q 1294 3584 2113 3584 
Q 2378 3584 2631 3529 
Q 2884 3475 3122 3366 
z
" transform="scale(0.015625)"/>
      <path id="DejaVuSans-6c" d="M 603 4863 
L 1178 4863 
L 1178 0 
L 603 0 
L 603 4863 
z
" transform="scale(0.015625)"/>
      <path id="DejaVuSans-72" d="M 2631 2963 
Q 2534 3019 2420 3045 
Q 2306 3072 2169 3072 
Q 1681 3072 1420 2755 
Q 1159 2438 1159 1844 
L 1159 0 
L 581 0 
L 581 3500 
L 1159 3500 
L 1159 2956 
Q 1341 3275 1631 3429 
Q 1922 3584 2338 3584 
Q 2397 3584 2469 3576 
Q 2541 3569 2628 3553 
L 2631 2963 
z
" transform="scale(0.015625)"/>
      <path id="DejaVuSans-3a" d="M 750 794 
L 1409 794 
L 1409 0 
L 750 0 
L 750 794 
z
M 750 3309 
L 1409 3309 
L 1409 2516 
L 750 2516 
L 750 3309 
z
" transform="scale(0.015625)"/>
      <path id="DejaVuSans-44" d="M 1259 4147 
L 1259 519 
L 2022 519 
Q 2988 519 3436 956 
Q 3884 1394 3884 2338 
Q 3884 3275 3436 3711 
Q 2988 4147 2022 4147 
L 1259 4147 
z
M 628 4666 
L 1925 4666 
Q 3281 4666 3915 4102 
Q 4550 3538 4550 2338 
Q 4550 1131 3912 565 
Q 3275 0 1925 0 
L 628 0 
L 628 4666 
z
" transform="scale(0.015625)"/>
      <path id="DejaVuSans-70" d="M 1159 525 
L 1159 -1331 
L 581 -1331 
L 581 3500 
L 1159 3500 
L 1159 2969 
Q 1341 3281 1617 3432 
Q 1894 3584 2278 3584 
Q 2916 3584 3314 3078 
Q 3713 2572 3713 1747 
Q 3713 922 3314 415 
Q 2916 -91 2278 -91 
Q 1894 -91 1617 61 
Q 1341 213 1159 525 
z
M 3116 1747 
Q 3116 2381 2855 2742 
Q 2594 3103 2138 3103 
Q 1681 3103 1420 2742 
Q 1159 2381 1159 1747 
Q 1159 1113 1420 752 
Q 1681 391 2138 391 
Q 2594 391 2855 752 
Q 3116 1113 3116 1747 
z
" transform="scale(0.015625)"/>
      <path id="DejaVuSans-76" d="M 191 3500 
L 800 3500 
L 1894 563 
L 2988 3500 
L 3597 3500 
L 2284 0 
L 1503 0 
L 191 3500 
z
" transform="scale(0.015625)"/>
      <path id="DejaVuSans-64" d="M 2906 2969 
L 2906 4863 
L 3481 4863 
L 3481 0 
L 2906 0 
L 2906 525 
Q 2725 213 2448 61 
Q 2172 -91 1784 -91 
Q 1150 -91 751 415 
Q 353 922 353 1747 
Q 353 2572 751 3078 
Q 1150 3584 1784 3584 
Q 2172 3584 2448 3432 
Q 2725 3281 2906 2969 
z
M 947 1747 
Q 947 1113 1208 752 
Q 1469 391 1925 391 
Q 2381 391 2643 752 
Q 2906 1113 2906 1747 
Q 2906 2381 2643 2742 
Q 2381 3103 1925 3103 
Q 1469 3103 1208 2742 
Q 947 2381 947 1747 
z
" transform="scale(0.015625)"/>
      <path id="DejaVuSans-6f" d="M 1959 3097 
Q 1497 3097 1228 2736 
Q 959 2375 959 1747 
Q 959 1119 1226 758 
Q 1494 397 1959 397 
Q 2419 397 2687 759 
Q 2956 1122 2956 1747 
Q 2956 2369 2687 2733 
Q 2419 3097 1959 3097 
z
M 1959 3584 
Q 2709 3584 3137 3096 
Q 3566 2609 3566 1747 
Q 3566 888 3137 398 
Q 2709 -91 1959 -91 
Q 1206 -91 779 398 
Q 353 888 353 1747 
Q 353 2609 779 3096 
Q 1206 3584 1959 3584 
z
" transform="scale(0.015625)"/>
      <path id="DejaVuSans-4d" d="M 628 4666 
L 1569 4666 
L 2759 1491 
L 3956 4666 
L 4897 4666 
L 4897 0 
L 4281 0 
L 4281 4097 
L 3078 897 
L 2444 897 
L 1241 4097 
L 1241 0 
L 628 0 
L 628 4666 
z
" transform="scale(0.015625)"/>
      <path id="DejaVuSans-2f" d="M 1625 4666 
L 2156 4666 
L 531 -594 
L 0 -594 
L 1625 4666 
z
" transform="scale(0.015625)"/>
     </defs>
     <use xlink:href="#DejaVuSans-46"/>
     <use xlink:href="#DejaVuSans-61" transform="translate(48.394531 0)"/>
     <use xlink:href="#DejaVuSans-63" transform="translate(109.673828 0)"/>
     <use xlink:href="#DejaVuSans-69" transform="translate(164.654297 0)"/>
     <use xlink:href="#DejaVuSans-61" transform="translate(192.4375 0)"/>
     <use xlink:href="#DejaVuSans-6c" transform="translate(253.716797 0)"/>
     <use xlink:href="#DejaVuSans-20" transform="translate(281.5 0)"/>
     <use xlink:href="#DejaVuSans-74" transform="translate(313.287109 0)"/>
     <use xlink:href="#DejaVuSans-72" transform="translate(352.496094 0)"/>
     <use xlink:href="#DejaVuSans-61" transform="translate(393.609375 0)"/>
     <use xlink:href="#DejaVuSans-63" transform="translate(454.888672 0)"/>
     <use xlink:href="#DejaVuSans-65" transform="translate(509.869141 0)"/>
     <use xlink:href="#DejaVuSans-3a" transform="translate(571.392578 0)"/>
     <use xlink:href="#DejaVuSans-20" transform="translate(605.083984 0)"/>
     <use xlink:href="#DejaVuSans-44" transform="translate(636.871094 0)"/>
     <use xlink:href="#DejaVuSans-65" transform="translate(713.873047 0)"/>
     <use xlink:href="#DejaVuSans-70" transform="translate(775.396484 0)"/>
     <use xlink:href="#DejaVuSans-72" transform="translate(838.873047 0)"/>
     <use xlink:href="#DejaVuSans-65" transform="translate(877.736328 0)"/>
     <use xlink:href="#DejaVuSans-73" transform="translate(939.259766 0)"/>
     <use xlink:href="#DejaVuSans-73" transform="translate(991.359375 0)"/>
     <use xlink:href="#DejaVuSans-69" transform="translate(1043.458984 0)"/>
     <use xlink:href="#DejaVuSans-76" transform="translate(1071.242188 0)"/>
     <use xlink:href="#DejaVuSans-65" transform="translate(1130.421875 0)"/>
     <use xlink:href="#DejaVuSans-20" transform="translate(1191.945312 0)"/>
     <use xlink:href="#DejaVuSans-64" transform="translate(1223.732422 0)"/>
     <use xlink:href="#DejaVuSans-69" transform="translate(1287.208984 0)"/>
     <use xlink:href="#DejaVuSans-73" transform="translate(1314.992188 0)"/>
     <use xlink:href="#DejaVuSans-6f" transform="translate(1367.091797 0)"/>
     <use xlink:href="#DejaVuSans-72" transform="translate(1428.273438 0)"/>
     <use xlink:href="#DejaVuSans-64" transform="translate(1467.636719 0)"/>
     <use xlink:href="#DejaVuSans-65" transform="translate(1531.113281 0)"/>
     <use xlink:href="#DejaVuSans-72" transform="translate(1592.636719 0)"/>
     <use xlink:href="#DejaVuSans-20" transform="translate(1633.75 0)"/>
     <use xlink:href="#DejaVuSans-28" transform="translate(1665.537109 0)"/>
     <use xlink:href="#DejaVuSans-4d" transform="translate(1704.550781 0)"/>
     <use xlink:href="#DejaVuSans-44" transform="translate(1790.830078 0)"/>
     <use xlink:href="#DejaVuSans-44" transform="translate(1867.832031 0)"/>
     <use xlink:href="#DejaVuSans-2f" transform="translate(1944.833984 0)"/>
     <use xlink:href="#DejaVuSans-44" transform="translate(1978.525391 0)"/>
     <use xlink:href="#DejaVuSans-44" transform="translate(2055.527344 0)"/>
     <use xlink:href="#DejaVuSans-29" transform="translate(2132.529297 0)"/>
     <use xlink:href="#DejaVuSans-20" transform="translate(2171.542969 0)"/>
     <use xlink:href="#DejaVuSans-28" transform="translate(2203.330078 0)"/>
     <use xlink:href="#DejaVuSans-6d" transform="translate(2242.34375 0)"/>
     <use xlink:href="#DejaVuSans-61" transform="translate(2339.755859 0)"/>
     <use xlink:href="#DejaVuSans-6c" transform="translate(2401.035156 0)"/>
     <use xlink:href="#DejaVuSans-65" transform="translate(2428.818359 0)"/>
     <use xlink:href="#DejaVuSans-29" transform="translate(2490.341797 0)"/>
    </g>
   </g>
   <g id="legend_1">
    <g id="patch_7">
     <path d="M 457.46 42.096094 
L 479.46 42.096094 
L 479.46 34.396094 
L 457.46 34.396094 
z
" style="fill: #d3d3d3; fill-opacity: 0.5; stroke: #d3d3d3; stroke-opacity: 0.5; stroke-linejoin: miter"/>
    </g>
    <g id="text_19">
     <!-- Depressive disorder (MDD/DD) ±2 SD -->
     <g transform="translate(488.26 42.096094) scale(0.11 -0.11)">
      <defs>
       <path id="DejaVuSans-b1" d="M 2944 4013 
L 2944 2803 
L 4684 2803 
L 4684 2272 
L 2944 2272 
L 2944 1063 
L 2419 1063 
L 2419 2272 
L 678 2272 
L 678 2803 
L 2419 2803 
L 2419 4013 
L 2944 4013 
z
M 678 531 
L 4684 531 
L 4684 0 
L 678 0 
L 678 531 
z
" transform="scale(0.015625)"/>
       <path id="DejaVuSans-53" d="M 3425 4513 
L 3425 3897 
Q 3066 4069 2747 4153 
Q 2428 4238 2131 4238 
Q 1616 4238 1336 4038 
Q 1056 3838 1056 3469 
Q 1056 3159 1242 3001 
Q 1428 2844 1947 2747 
L 2328 2669 
Q 3034 2534 3370 2195 
Q 3706 1856 3706 1288 
Q 3706 609 3251 259 
Q 2797 -91 1919 -91 
Q 1588 -91 1214 -16 
Q 841 59 441 206 
L 441 856 
Q 825 641 1194 531 
Q 1563 422 1919 422 
Q 2459 422 2753 634 
Q 3047 847 3047 1241 
Q 3047 1584 2836 1778 
Q 2625 1972 2144 2069 
L 1759 2144 
Q 1053 2284 737 2584 
Q 422 2884 422 3419 
Q 422 4038 858 4394 
Q 1294 4750 2059 4750 
Q 2388 4750 2728 4690 
Q 3069 4631 3425 4513 
z
" transform="scale(0.015625)"/>
      </defs>
      <use xlink:href="#DejaVuSans-44"/>
      <use xlink:href="#DejaVuSans-65" transform="translate(77.001953 0)"/>
      <use xlink:href="#DejaVuSans-70" transform="translate(138.525391 0)"/>
      <use xlink:href="#DejaVuSans-72" transform="translate(202.001953 0)"/>
      <use xlink:href="#DejaVuSans-65" transform="translate(240.865234 0)"/>
      <use xlink:href="#DejaVuSans-73" transform="translate(302.388672 0)"/>
      <use xlink:href="#DejaVuSans-73" transform="translate(354.488281 0)"/>
      <use xlink:href="#DejaVuSans-69" transform="translate(406.587891 0)"/>
      <use xlink:href="#DejaVuSans-76" transform="translate(434.371094 0)"/>
      <use xlink:href="#DejaVuSans-65" transform="translate(493.550781 0)"/>
      <use xlink:href="#DejaVuSans-20" transform="translate(555.074219 0)"/>
      <use xlink:href="#DejaVuSans-64" transform="translate(586.861328 0)"/>
      <use xlink:href="#DejaVuSans-69" transform="translate(650.337891 0)"/>
      <use xlink:href="#DejaVuSans-73" transform="translate(678.121094 0)"/>
      <use xlink:href="#DejaVuSans-6f" transform="translate(730.220703 0)"/>
      <use xlink:href="#DejaVuSans-72" transform="translate(791.402344 0)"/>
      <use xlink:href="#DejaVuSans-64" transform="translate(830.765625 0)"/>
      <use xlink:href="#DejaVuSans-65" transform="translate(894.242188 0)"/>
      <use xlink:href="#DejaVuSans-72" transform="translate(955.765625 0)"/>
      <use xlink:href="#DejaVuSans-20" transform="translate(996.878906 0)"/>
      <use xlink:href="#DejaVuSans-28" transform="translate(1028.666016 0)"/>
      <use xlink:href="#DejaVuSans-4d" transform="translate(1067.679688 0)"/>
      <use xlink:href="#DejaVuSans-44" transform="translate(1153.958984 0)"/>
      <use xlink:href="#DejaVuSans-44" transform="translate(1230.960938 0)"/>
      <use xlink:href="#DejaVuSans-2f" transform="translate(1307.962891 0)"/>
      <use xlink:href="#DejaVuSans-44" transform="translate(1341.654297 0)"/>
      <use xlink:href="#DejaVuSans-44" transform="translate(1418.65625 0)"/>
      <use xlink:href="#DejaVuSans-29" transform="translate(1495.658203 0)"/>
      <use xlink:href="#DejaVuSans-20" transform="translate(1534.671875 0)"/>
      <use xlink:href="#DejaVuSans-b1" transform="translate(1566.458984 0)"/>
      <use xlink:href="#DejaVuSans-32" transform="translate(1650.248047 0)"/>
      <use xlink:href="#DejaVuSans-20" transform="translate(1713.871094 0)"/>
      <use xlink:href="#DejaVuSans-53" transform="translate(1745.658203 0)"/>
      <use xlink:href="#DejaVuSans-44" transform="translate(1809.134766 0)"/>
     </g>
    </g>
    <g id="patch_8">
     <path d="M 457.46 58.242031 
L 479.46 58.242031 
L 479.46 50.542031 
L 457.46 50.542031 
z
" style="fill: #808080; fill-opacity: 0.7; stroke: #808080; stroke-opacity: 0.7; stroke-linejoin: miter"/>
    </g>
    <g id="text_20">
     <!-- Depressive disorder (MDD/DD) ±1 SD -->
     <g transform="translate(488.26 58.242031) scale(0.11 -0.11)">
      <use xlink:href="#DejaVuSans-44"/>
      <use xlink:href="#DejaVuSans-65" transform="translate(77.001953 0)"/>
      <use xlink:href="#DejaVuSans-70" transform="translate(138.525391 0)"/>
      <use xlink:href="#DejaVuSans-72" transform="translate(202.001953 0)"/>
      <use xlink:href="#DejaVuSans-65" transform="translate(240.865234 0)"/>
      <use xlink:href="#DejaVuSans-73" transform="translate(302.388672 0)"/>
      <use xlink:href="#DejaVuSans-73" transform="translate(354.488281 0)"/>
      <use xlink:href="#DejaVuSans-69" transform="translate(406.587891 0)"/>
      <use xlink:href="#DejaVuSans-76" transform="translate(434.371094 0)"/>
      <use xlink:href="#DejaVuSans-65" transform="translate(493.550781 0)"/>
      <use xlink:href="#DejaVuSans-20" transform="translate(555.074219 0)"/>
      <use xlink:href="#DejaVuSans-64" transform="translate(586.861328 0)"/>
      <use xlink:href="#DejaVuSans-69" transform="translate(650.337891 0)"/>
      <use xlink:href="#DejaVuSans-73" transform="translate(678.121094 0)"/>
      <use xlink:href="#DejaVuSans-6f" transform="translate(730.220703 0)"/>
      <use xlink:href="#DejaVuSans-72" transform="translate(791.402344 0)"/>
      <use xlink:href="#DejaVuSans-64" transform="translate(830.765625 0)"/>
      <use xlink:href="#DejaVuSans-65" transform="translate(894.242188 0)"/>
      <use xlink:href="#DejaVuSans-72" transform="translate(955.765625 0)"/>
      <use xlink:href="#DejaVuSans-20" transform="translate(996.878906 0)"/>
      <use xlink:href="#DejaVuSans-28" transform="translate(1028.666016 0)"/>
      <use xlink:href="#DejaVuSans-4d" transform="translate(1067.679688 0)"/>
      <use xlink:href="#DejaVuSans-44" transform="translate(1153.958984 0)"/>
      <use xlink:href="#DejaVuSans-44" transform="translate(1230.960938 0)"/>
      <use xlink:href="#DejaVuSans-2f" transform="translate(1307.962891 0)"/>
      <use xlink:href="#DejaVuSans-44" transform="translate(1341.654297 0)"/>
      <use xlink:href="#DejaVuSans-44" transform="translate(1418.65625 0)"/>
      <use xlink:href="#DejaVuSans-29" transform="translate(1495.658203 0)"/>
      <use xlink:href="#DejaVuSans-20" transform="translate(1534.671875 0)"/>
      <use xlink:href="#DejaVuSans-b1" transform="translate(1566.458984 0)"/>
      <use xlink:href="#DejaVuSans-31" transform="translate(1650.248047 0)"/>
      <use xlink:href="#DejaVuSans-20" transform="translate(1713.871094 0)"/>
      <use xlink:href="#DejaVuSans-53" transform="translate(1745.658203 0)"/>
      <use xlink:href="#DejaVuSans-44" transform="translate(1809.134766 0)"/>
     </g>
    </g>
    <g id="line2d_34">
     <path d="M 457.46 70.537969 
L 468.46 70.537969 
L 479.46 70.537969 
" style="fill: none; stroke: #ff8c00; stroke-width: 2.3; stroke-linecap: square"/>
    </g>
    <g id="text_21">
     <!-- Patient -->
     <g transform="translate(488.26 74.387969) scale(0.11 -0.11)">
      <defs>
       <path id="DejaVuSans-50" d="M 1259 4147 
L 1259 2394 
L 2053 2394 
Q 2494 2394 2734 2622 
Q 2975 2850 2975 3272 
Q 2975 3691 2734 3919 
Q 2494 4147 2053 4147 
L 1259 4147 
z
M 628 4666 
L 2053 4666 
Q 2838 4666 3239 4311 
Q 3641 3956 3641 3272 
Q 3641 2581 3239 2228 
Q 2838 1875 2053 1875 
L 1259 1875 
L 1259 0 
L 628 0 
L 628 4666 
z
" transform="scale(0.015625)"/>
      </defs>
      <use xlink:href="#DejaVuSans-50"/>
      <use xlink:href="#DejaVuSans-61" transform="translate(55.802734 0)"/>
      <use xlink:href="#DejaVuSans-74" transform="translate(117.082031 0)"/>
      <use xlink:href="#DejaVuSans-69" transform="translate(156.291016 0)"/>
      <use xlink:href="#DejaVuSans-65" transform="translate(184.074219 0)"/>
      <use xlink:href="#DejaVuSans-6e" transform="translate(245.597656 0)"/>
      <use xlink:href="#DejaVuSans-74" transform="translate(308.976562 0)"/>
     </g>
    </g>
   </g>
  </g>
 </g>
 <defs>
  <clipPath id="pc19249e170">
   <rect x="47.307188" y="23.837812" width="658.33" height="360.28"/>
  </clipPath>
 </defs>
</svg>
