<?xml version="1.0" encoding="utf-8" standalone="no"?>
<!DOCTYPE svg PUBLIC "-//W3C//DTD SVG 1.1//EN"
  "http://www.w3.org/Graphics/SVG/1.1/DTD/svg11.dtd">
<svg xmlns:xlink="http://www.w3.org/1999/xlink" width="676.88125pt" height="391.52407pt" viewBox="0 0 676.88125 391.52407" xmlns="http://www.w3.org/2000/svg" version="1.1">
 <metadata>
  <rdf:RDF xmlns:dc="http://purl.org/dc/elements/1.1/" xmlns:cc="http://creativecommons.org/ns#" xmlns:rdf="http://www.w3.org/1999/02/22-rdf-syntax-ns#">
   <cc:Work>
    <dc:type rdf:resource="http://purl.org/dc/dcmitype/StillImage"/>
    <dc:date>2026-06-14T19:01:05.753064</dc:date>
    <dc:format>image/svg+xml</dc:format>
    <dc:creator>
     <cc:Agent>
      <dc:title>Matplotlib v3.10.1, https://matplotlib.org/</dc:title>
     </cc:Agent>
    </dc:creator>
   </cc:Work>
  </rdf:RDF>
 </metadata>
 <defs>
  <style type="text/css">*{stroke-linejoin: round; stroke-linecap: butt}</style>
 </defs>
 <g id="figure_1">
  <g id="patch_1">
   <path d="M 0 391.52407 
L 676.88125 391.52407 
L 676.88125 0 
L 0 0 
z
" style="fill: #ffffff"/>
  </g>
  <g id="axes_1">
   <g id="patch_2">
    <path d="M 43.81125 338.606376 
L 213.84125 338.606376 
L 213.84125 34.56 
L 43.81125 34.56 
z
" style="fill: #ffffff"/>
   </g>
   <g id="matplotlib.axis_1">
    <g id="xtick_1">
     <g id="line2d_1">
      <path d="M 128.82625 338.606376 
L 128.82625 34.56 
" clip-path="url(#p84461660bf)" style="fill: none; stroke: #b0b0b0; stroke-opacity: 0.2; stroke-width: 0.6; stroke-linecap: square"/>
     </g>
     <g id="line2d_2">
      <defs>
       <path id="m189ef89023" d="M 0 0 
L 0 3.5 
" style="stroke: #000000; stroke-width: 0.8"/>
      </defs>
      <g>
       <use xlink:href="#m189ef89023" x="128.82625" y="338.606376" style="stroke: #000000; stroke-width: 0.8"/>
      </g>
     </g>
     <g id="text_1">
      <!-- Pitch variability -->
      <g transform="translate(46.310671 375.631189) rotate(-15) scale(0.11 -0.11)">
       <defs>
        <path id="DejaVuSans-50" d="M 1259 4147 
L 1259 2394 
L 2053 2394 
Q 2494 2394 2734 2622 
Q 2975 2850 2975 3272 
Q 2975 3691 2734 3919 
Q 2494 4147 2053 4147 
L 1259 4147 
z
M 628 4666 
L 2053 4666 
Q 2838 4666 3239 4311 
Q 3641 3956 3641 3272 
Q 3641 2581 3239 2228 
Q 2838 1875 2053 1875 
L 1259 1875 
L 1259 0 
L 628 0 
L 628 4666 
z
" transform="scale(0.015625)"/>
        <path id="DejaVuSans-69" d="M 603 3500 
L 1178 3500 
L 1178 0 
L 603 0 
L 603 3500 
z
M 603 4863 
L 1178 4863 
L 1178 4134 
L 603 4134 
L 603 4863 
z
" transform="scale(0.015625)"/>
        <path id="DejaVuSans-74" d="M 1172 4494 
L 1172 3500 
L 2356 3500 
L 2356 3053 
L 1172 3053 
L 1172 1153 
Q 1172 725 1289 603 
Q 1406 481 1766 481 
L 2356 481 
L 2356 0 
L 1766 0 
Q 1100 0 847 248 
Q 594 497 594 1153 
L 594 3053 
L 172 3053 
L 172 3500 
L 594 3500 
L 594 4494 
L 1172 4494 
z
" transform="scale(0.015625)"/>
        <path id="DejaVuSans-63" d="M 3122 3366 
L 3122 2828 
Q 2878 2963 2633 3030 
Q 2388 3097 2138 3097 
Q 1578 3097 1268 2742 
Q 959 2388 959 1747 
Q 959 1106 1268 751 
Q 1578 397 2138 397 
Q 2388 397 2633 464 
Q 2878 531 3122 666 
L 3122 134 
Q 2881 22 2623 -34 
Q 2366 -91 2075 -91 
Q 1284 -91 818 406 
Q 353 903 353 1747 
Q 353 2603 823 3093 
Q 1294 3584 2113 3584 
Q 2378 3584 2631 3529 
Q 2884 3475 3122 3366 
z
" transform="scale(0.015625)"/>
        <path id="DejaVuSans-68" d="M 3513 2113 
L 3513 0 
L 2938 0 
L 2938 2094 
Q 2938 2591 2744 2837 
Q 2550 3084 2163 3084 
Q 1697 3084 1428 2787 
Q 1159 2491 1159 1978 
L 1159 0 
L 581 0 
L 581 4863 
L 1159 4863 
L 1159 2956 
Q 1366 3272 1645 3428 
Q 1925 3584 2291 3584 
Q 2894 3584 3203 3211 
Q 3513 2838 3513 2113 
z
" transform="scale(0.015625)"/>
        <path id="DejaVuSans-20" transform="scale(0.015625)"/>
        <path id="DejaVuSans-76" d="M 191 3500 
L 800 3500 
L 1894 563 
L 2988 3500 
L 3597 3500 
L 2284 0 
L 1503 0 
L 191 3500 
z
" transform="scale(0.015625)"/>
        <path id="DejaVuSans-61" d="M 2194 1759 
Q 1497 1759 1228 1600 
Q 959 1441 959 1056 
Q 959 750 1161 570 
Q 1363 391 1709 391 
Q 2188 391 2477 730 
Q 2766 1069 2766 1631 
L 2766 1759 
L 2194 1759 
z
M 3341 1997 
L 3341 0 
L 2766 0 
L 2766 531 
Q 2569 213 2275 61 
Q 1981 -91 1556 -91 
Q 1019 -91 701 211 
Q 384 513 384 1019 
Q 384 1609 779 1909 
Q 1175 2209 1959 2209 
L 2766 2209 
L 2766 2266 
Q 2766 2663 2505 2880 
Q 2244 3097 1772 3097 
Q 1472 3097 1187 3025 
Q 903 2953 641 2809 
L 641 3341 
Q 956 3463 1253 3523 
Q 1550 3584 1831 3584 
Q 2591 3584 2966 3190 
Q 3341 2797 3341 1997 
z
" transform="scale(0.015625)"/>
        <path id="DejaVuSans-72" d="M 2631 2963 
Q 2534 3019 2420 3045 
Q 2306 3072 2169 3072 
Q 1681 3072 1420 2755 
Q 1159 2438 1159 1844 
L 1159 0 
L 581 0 
L 581 3500 
L 1159 3500 
L 1159 2956 
Q 1341 3275 1631 3429 
Q 1922 3584 2338 3584 
Q 2397 3584 2469 3576 
Q 2541 3569 2628 3553 
L 2631 2963 
z
" transform="scale(0.015625)"/>
        <path id="DejaVuSans-62" d="M 3116 1747 
Q 3116 2381 2855 2742 
Q 2594 3103 2138 3103 
Q 1681 3103 1420 2742 
Q 1159 2381 1159 1747 
Q 1159 1113 1420 752 
Q 1681 391 2138 391 
Q 2594 391 2855 752 
Q 3116 1113 3116 1747 
z
M 1159 2969 
Q 1341 3281 1617 3432 
Q 1894 3584 2278 3584 
Q 2916 3584 3314 3078 
Q 3713 2572 3713 1747 
Q 3713 922 3314 415 
Q 2916 -91 2278 -91 
Q 1894 -91 1617 61 
Q 1341 213 1159 525 
L 1159 0 
L 581 0 
L 581 4863 
L 1159 4863 
L 1159 2969 
z
" transform="scale(0.015625)"/>
        <path id="DejaVuSans-6c" d="M 603 4863 
L 1178 4863 
L 1178 0 
L 603 0 
L 603 4863 
z
" transform="scale(0.015625)"/>
        <path id="DejaVuSans-79" d="M 2059 -325 
Q 1816 -950 1584 -1140 
Q 1353 -1331 966 -1331 
L 506 -1331 
L 506 -850 
L 844 -850 
Q 1081 -850 1212 -737 
Q 1344 -625 1503 -206 
L 1606 56 
L 191 3500 
L 800 3500 
L 1894 763 
L 2988 3500 
L 3597 3500 
L 2059 -325 
z
" transform="scale(0.015625)"/>
       </defs>
       <use xlink:href="#DejaVuSans-50"/>
       <use xlink:href="#DejaVuSans-69" transform="translate(58.052734 0)"/>
       <use xlink:href="#DejaVuSans-74" transform="translate(85.835938 0)"/>
       <use xlink:href="#DejaVuSans-63" transform="translate(125.044922 0)"/>
       <use xlink:href="#DejaVuSans-68" transform="translate(180.025391 0)"/>
       <use xlink:href="#DejaVuSans-20" transform="translate(243.404297 0)"/>
       <use xlink:href="#DejaVuSans-76" transform="translate(275.191406 0)"/>
       <use xlink:href="#DejaVuSans-61" transform="translate(334.371094 0)"/>
       <use xlink:href="#DejaVuSans-72" transform="translate(395.650391 0)"/>
       <use xlink:href="#DejaVuSans-69" transform="translate(436.763672 0)"/>
       <use xlink:href="#DejaVuSans-61" transform="translate(464.546875 0)"/>
       <use xlink:href="#DejaVuSans-62" transform="translate(525.826172 0)"/>
       <use xlink:href="#DejaVuSans-69" transform="translate(589.302734 0)"/>
       <use xlink:href="#DejaVuSans-6c" transform="translate(617.085938 0)"/>
       <use xlink:href="#DejaVuSans-69" transform="translate(644.869141 0)"/>
       <use xlink:href="#DejaVuSans-74" transform="translate(672.652344 0)"/>
       <use xlink:href="#DejaVuSans-79" transform="translate(711.861328 0)"/>
      </g>
     </g>
    </g>
   </g>
   <g id="matplotlib.axis_2">
    <g id="ytick_1">
     <g id="line2d_3">
      <path d="M 43.81125 312.612369 
L 213.84125 312.612369 
" clip-path="url(#p84461660bf)" style="fill: none; stroke: #b0b0b0; stroke-opacity: 0.2; stroke-width: 0.6; stroke-linecap: square"/>
     </g>
     <g id="line2d_4">
      <defs>
       <path id="m67307c392a" d="M 0 0 
L -3.5 0 
" style="stroke: #000000; stroke-width: 0.8"/>
      </defs>
      <g>
       <use xlink:href="#m67307c392a" x="43.81125" y="312.612369" style="stroke: #000000; stroke-width: 0.8"/>
      </g>
     </g>
     <g id="text_2">
      <!-- 4 -->
      <g transform="translate(29.8125 316.791509) scale(0.11 -0.11)">
       <defs>
        <path id="DejaVuSans-34" d="M 2419 4116 
L 825 1625 
L 2419 1625 
L 2419 4116 
z
M 2253 4666 
L 3047 4666 
L 3047 1625 
L 3713 1625 
L 3713 1100 
L 3047 1100 
L 3047 0 
L 2419 0 
L 2419 1100 
L 313 1100 
L 313 1709 
L 2253 4666 
z
" transform="scale(0.015625)"/>
       </defs>
       <use xlink:href="#DejaVuSans-34"/>
      </g>
     </g>
    </g>
    <g id="ytick_2">
     <g id="line2d_5">
      <path d="M 43.81125 267.250349 
L 213.84125 267.250349 
" clip-path="url(#p84461660bf)" style="fill: none; stroke: #b0b0b0; stroke-opacity: 0.2; stroke-width: 0.6; stroke-linecap: square"/>
     </g>
     <g id="line2d_6">
      <g>
       <use xlink:href="#m67307c392a" x="43.81125" y="267.250349" style="stroke: #000000; stroke-width: 0.8"/>
      </g>
     </g>
     <g id="text_3">
      <!-- 6 -->
      <g transform="translate(29.8125 271.42949) scale(0.11 -0.11)">
       <defs>
        <path id="DejaVuSans-36" d="M 2113 2584 
Q 1688 2584 1439 2293 
Q 1191 2003 1191 1497 
Q 1191 994 1439 701 
Q 1688 409 2113 409 
Q 2538 409 2786 701 
Q 3034 994 3034 1497 
Q 3034 2003 2786 2293 
Q 2538 2584 2113 2584 
z
M 3366 4563 
L 3366 3988 
Q 3128 4100 2886 4159 
Q 2644 4219 2406 4219 
Q 1781 4219 1451 3797 
Q 1122 3375 1075 2522 
Q 1259 2794 1537 2939 
Q 1816 3084 2150 3084 
Q 2853 3084 3261 2657 
Q 3669 2231 3669 1497 
Q 3669 778 3244 343 
Q 2819 -91 2113 -91 
Q 1303 -91 875 529 
Q 447 1150 447 2328 
Q 447 3434 972 4092 
Q 1497 4750 2381 4750 
Q 2619 4750 2861 4703 
Q 3103 4656 3366 4563 
z
" transform="scale(0.015625)"/>
       </defs>
       <use xlink:href="#DejaVuSans-36"/>
      </g>
     </g>
    </g>
    <g id="ytick_3">
     <g id="line2d_7">
      <path d="M 43.81125 221.888329 
L 213.84125 221.888329 
" clip-path="url(#p84461660bf)" style="fill: none; stroke: #b0b0b0; stroke-opacity: 0.2; stroke-width: 0.6; stroke-linecap: square"/>
     </g>
     <g id="line2d_8">
      <g>
       <use xlink:href="#m67307c392a" x="43.81125" y="221.888329" style="stroke: #000000; stroke-width: 0.8"/>
      </g>
     </g>
     <g id="text_4">
      <!-- 8 -->
      <g transform="translate(29.8125 226.06747) scale(0.11 -0.11)">
       <defs>
        <path id="DejaVuSans-38" d="M 2034 2216 
Q 1584 2216 1326 1975 
Q 1069 1734 1069 1313 
Q 1069 891 1326 650 
Q 1584 409 2034 409 
Q 2484 409 2743 651 
Q 3003 894 3003 1313 
Q 3003 1734 2745 1975 
Q 2488 2216 2034 2216 
z
M 1403 2484 
Q 997 2584 770 2862 
Q 544 3141 544 3541 
Q 544 4100 942 4425 
Q 1341 4750 2034 4750 
Q 2731 4750 3128 4425 
Q 3525 4100 3525 3541 
Q 3525 3141 3298 2862 
Q 3072 2584 2669 2484 
Q 3125 2378 3379 2068 
Q 3634 1759 3634 1313 
Q 3634 634 3220 271 
Q 2806 -91 2034 -91 
Q 1263 -91 848 271 
Q 434 634 434 1313 
Q 434 1759 690 2068 
Q 947 2378 1403 2484 
z
M 1172 3481 
Q 1172 3119 1398 2916 
Q 1625 2713 2034 2713 
Q 2441 2713 2670 2916 
Q 2900 3119 2900 3481 
Q 2900 3844 2670 4047 
Q 2441 4250 2034 4250 
Q 1625 4250 1398 4047 
Q 1172 3844 1172 3481 
z
" transform="scale(0.015625)"/>
       </defs>
       <use xlink:href="#DejaVuSans-38"/>
      </g>
     </g>
    </g>
    <g id="ytick_4">
     <g id="line2d_9">
      <path d="M 43.81125 176.52631 
L 213.84125 176.52631 
" clip-path="url(#p84461660bf)" style="fill: none; stroke: #b0b0b0; stroke-opacity: 0.2; stroke-width: 0.6; stroke-linecap: square"/>
     </g>
     <g id="line2d_10">
      <g>
       <use xlink:href="#m67307c392a" x="43.81125" y="176.52631" style="stroke: #000000; stroke-width: 0.8"/>
      </g>
     </g>
     <g id="text_5">
      <!-- 10 -->
      <g transform="translate(22.81375 180.70545) scale(0.11 -0.11)">
       <defs>
        <path id="DejaVuSans-31" d="M 794 531 
L 1825 531 
L 1825 4091 
L 703 3866 
L 703 4441 
L 1819 4666 
L 2450 4666 
L 2450 531 
L 3481 531 
L 3481 0 
L 794 0 
L 794 531 
z
" transform="scale(0.015625)"/>
        <path id="DejaVuSans-30" d="M 2034 4250 
Q 1547 4250 1301 3770 
Q 1056 3291 1056 2328 
Q 1056 1369 1301 889 
Q 1547 409 2034 409 
Q 2525 409 2770 889 
Q 3016 1369 3016 2328 
Q 3016 3291 2770 3770 
Q 2525 4250 2034 4250 
z
M 2034 4750 
Q 2819 4750 3233 4129 
Q 3647 3509 3647 2328 
Q 3647 1150 3233 529 
Q 2819 -91 2034 -91 
Q 1250 -91 836 529 
Q 422 1150 422 2328 
Q 422 3509 836 4129 
Q 1250 4750 2034 4750 
z
" transform="scale(0.015625)"/>
       </defs>
       <use xlink:href="#DejaVuSans-31"/>
       <use xlink:href="#DejaVuSans-30" transform="translate(63.623047 0)"/>
      </g>
     </g>
    </g>
    <g id="ytick_5">
     <g id="line2d_11">
      <path d="M 43.81125 131.16429 
L 213.84125 131.16429 
" clip-path="url(#p84461660bf)" style="fill: none; stroke: #b0b0b0; stroke-opacity: 0.2; stroke-width: 0.6; stroke-linecap: square"/>
     </g>
     <g id="line2d_12">
      <g>
       <use xlink:href="#m67307c392a" x="43.81125" y="131.16429" style="stroke: #000000; stroke-width: 0.8"/>
      </g>
     </g>
     <g id="text_6">
      <!-- 12 -->
      <g transform="translate(22.81375 135.343431) scale(0.11 -0.11)">
       <defs>
        <path id="DejaVuSans-32" d="M 1228 531 
L 3431 531 
L 3431 0 
L 469 0 
L 469 531 
Q 828 903 1448 1529 
Q 2069 2156 2228 2338 
Q 2531 2678 2651 2914 
Q 2772 3150 2772 3378 
Q 2772 3750 2511 3984 
Q 2250 4219 1831 4219 
Q 1534 4219 1204 4116 
Q 875 4013 500 3803 
L 500 4441 
Q 881 4594 1212 4672 
Q 1544 4750 1819 4750 
Q 2544 4750 2975 4387 
Q 3406 4025 3406 3419 
Q 3406 3131 3298 2873 
Q 3191 2616 2906 2266 
Q 2828 2175 2409 1742 
Q 1991 1309 1228 531 
z
" transform="scale(0.015625)"/>
       </defs>
       <use xlink:href="#DejaVuSans-31"/>
       <use xlink:href="#DejaVuSans-32" transform="translate(63.623047 0)"/>
      </g>
     </g>
    </g>
    <g id="ytick_6">
     <g id="line2d_13">
      <path d="M 43.81125 85.80227 
L 213.84125 85.80227 
" clip-path="url(#p84461660bf)" style="fill: none; stroke: #b0b0b0; stroke-opacity: 0.2; stroke-width: 0.6; stroke-linecap: square"/>
     </g>
     <g id="line2d_14">
      <g>
       <use xlink:href="#m67307c392a" x="43.81125" y="85.80227" style="stroke: #000000; stroke-width: 0.8"/>
      </g>
     </g>
     <g id="text_7">
      <!-- 14 -->
      <g transform="translate(22.81375 89.981411) scale(0.11 -0.11)">
       <use xlink:href="#DejaVuSans-31"/>
       <use xlink:href="#DejaVuSans-34" transform="translate(63.623047 0)"/>
      </g>
     </g>
    </g>
    <g id="ytick_7">
     <g id="line2d_15">
      <path d="M 43.81125 40.44025 
L 213.84125 40.44025 
" clip-path="url(#p84461660bf)" style="fill: none; stroke: #b0b0b0; stroke-opacity: 0.2; stroke-width: 0.6; stroke-linecap: square"/>
     </g>
     <g id="line2d_16">
      <g>
       <use xlink:href="#m67307c392a" x="43.81125" y="40.44025" style="stroke: #000000; stroke-width: 0.8"/>
      </g>
     </g>
     <g id="text_8">
      <!-- 16 -->
      <g transform="translate(22.81375 44.619391) scale(0.11 -0.11)">
       <use xlink:href="#DejaVuSans-31"/>
       <use xlink:href="#DejaVuSans-36" transform="translate(63.623047 0)"/>
      </g>
     </g>
    </g>
    <g id="text_9">
     <!-- semitones -->
     <g transform="translate(16.318125 217.555376) rotate(-90) scale(0.12 -0.12)">
      <defs>
       <path id="DejaVuSans-73" d="M 2834 3397 
L 2834 2853 
Q 2591 2978 2328 3040 
Q 2066 3103 1784 3103 
Q 1356 3103 1142 2972 
Q 928 2841 928 2578 
Q 928 2378 1081 2264 
Q 1234 2150 1697 2047 
L 1894 2003 
Q 2506 1872 2764 1633 
Q 3022 1394 3022 966 
Q 3022 478 2636 193 
Q 2250 -91 1575 -91 
Q 1294 -91 989 -36 
Q 684 19 347 128 
L 347 722 
Q 666 556 975 473 
Q 1284 391 1588 391 
Q 1994 391 2212 530 
Q 2431 669 2431 922 
Q 2431 1156 2273 1281 
Q 2116 1406 1581 1522 
L 1381 1569 
Q 847 1681 609 1914 
Q 372 2147 372 2553 
Q 372 3047 722 3315 
Q 1072 3584 1716 3584 
Q 2034 3584 2315 3537 
Q 2597 3491 2834 3397 
z
" transform="scale(0.015625)"/>
       <path id="DejaVuSans-65" d="M 3597 1894 
L 3597 1613 
L 953 1613 
Q 991 1019 1311 708 
Q 1631 397 2203 397 
Q 2534 397 2845 478 
Q 3156 559 3463 722 
L 3463 178 
Q 3153 47 2828 -22 
Q 2503 -91 2169 -91 
Q 1331 -91 842 396 
Q 353 884 353 1716 
Q 353 2575 817 3079 
Q 1281 3584 2069 3584 
Q 2775 3584 3186 3129 
Q 3597 2675 3597 1894 
z
M 3022 2063 
Q 3016 2534 2758 2815 
Q 2500 3097 2075 3097 
Q 1594 3097 1305 2825 
Q 1016 2553 972 2059 
L 3022 2063 
z
" transform="scale(0.015625)"/>
       <path id="DejaVuSans-6d" d="M 3328 2828 
Q 3544 3216 3844 3400 
Q 4144 3584 4550 3584 
Q 5097 3584 5394 3201 
Q 5691 2819 5691 2113 
L 5691 0 
L 5113 0 
L 5113 2094 
Q 5113 2597 4934 2840 
Q 4756 3084 4391 3084 
Q 3944 3084 3684 2787 
Q 3425 2491 3425 1978 
L 3425 0 
L 2847 0 
L 2847 2094 
Q 2847 2600 2669 2842 
Q 2491 3084 2119 3084 
Q 1678 3084 1418 2786 
Q 1159 2488 1159 1978 
L 1159 0 
L 581 0 
L 581 3500 
L 1159 3500 
L 1159 2956 
Q 1356 3278 1631 3431 
Q 1906 3584 2284 3584 
Q 2666 3584 2933 3390 
Q 3200 3197 3328 2828 
z
" transform="scale(0.015625)"/>
       <path id="DejaVuSans-6f" d="M 1959 3097 
Q 1497 3097 1228 2736 
Q 959 2375 959 1747 
Q 959 1119 1226 758 
Q 1494 397 1959 397 
Q 2419 397 2687 759 
Q 2956 1122 2956 1747 
Q 2956 2369 2687 2733 
Q 2419 3097 1959 3097 
z
M 1959 3584 
Q 2709 3584 3137 3096 
Q 3566 2609 3566 1747 
Q 3566 888 3137 398 
Q 2709 -91 1959 -91 
Q 1206 -91 779 398 
Q 353 888 353 1747 
Q 353 2609 779 3096 
Q 1206 3584 1959 3584 
z
" transform="scale(0.015625)"/>
       <path id="DejaVuSans-6e" d="M 3513 2113 
L 3513 0 
L 2938 0 
L 2938 2094 
Q 2938 2591 2744 2837 
Q 2550 3084 2163 3084 
Q 1697 3084 1428 2787 
Q 1159 2491 1159 1978 
L 1159 0 
L 581 0 
L 581 3500 
L 1159 3500 
L 1159 2956 
Q 1366 3272 1645 3428 
Q 1925 3584 2291 3584 
Q 2894 3584 3203 3211 
Q 3513 2838 3513 2113 
z
" transform="scale(0.015625)"/>
      </defs>
      <use xlink:href="#DejaVuSans-73"/>
      <use xlink:href="#DejaVuSans-65" transform="translate(52.099609 0)"/>
      <use xlink:href="#DejaVuSans-6d" transform="translate(113.623047 0)"/>
      <use xlink:href="#DejaVuSans-69" transform="translate(211.035156 0)"/>
      <use xlink:href="#DejaVuSans-74" transform="translate(238.818359 0)"/>
      <use xlink:href="#DejaVuSans-6f" transform="translate(278.027344 0)"/>
      <use xlink:href="#DejaVuSans-6e" transform="translate(339.208984 0)"/>
      <use xlink:href="#DejaVuSans-65" transform="translate(402.587891 0)"/>
      <use xlink:href="#DejaVuSans-73" transform="translate(464.111328 0)"/>
     </g>
    </g>
   </g>
   <g id="FillBetweenPolyCollection_1">
    <defs>
     <path id="mb5832b6125" d="M 181.000165 -66.737983 
L 76.652335 -66.737983 
L 74.257883 -69.529961 
L 71.91515 -72.321939 
L 69.63872 -75.113916 
L 67.443028 -77.905894 
L 65.342195 -80.697872 
L 63.349853 -83.48985 
L 61.478978 -86.281827 
L 59.74173 -89.073805 
L 58.149293 -91.865783 
L 56.711736 -94.657761 
L 55.437882 -97.449738 
L 54.335194 -100.241716 
L 53.409676 -103.033694 
L 52.665802 -105.825672 
L 52.106451 -108.617649 
L 51.732878 -111.409627 
L 51.544695 -114.201605 
L 51.539886 -116.993583 
L 51.714834 -119.78556 
L 52.064371 -122.577538 
L 52.581855 -125.369516 
L 53.259261 -128.161493 
L 54.087287 -130.953471 
L 55.055484 -133.745449 
L 56.152391 -136.537427 
L 57.365692 -139.329404 
L 58.682367 -142.121382 
L 60.088869 -144.91336 
L 61.571289 -147.705338 
L 63.115528 -150.497315 
L 64.707475 -153.289293 
L 66.333169 -156.081271 
L 67.978965 -158.873249 
L 69.631689 -161.665226 
L 71.278781 -164.457204 
L 72.90843 -167.249182 
L 74.50969 -170.04116 
L 76.072586 -172.833137 
L 77.588203 -175.625115 
L 79.048753 -178.417093 
L 80.447633 -181.209071 
L 81.779455 -184.001048 
L 83.040066 -186.793026 
L 84.226546 -189.585004 
L 85.337192 -192.376982 
L 86.371476 -195.168959 
L 87.330002 -197.960937 
L 88.214436 -200.752915 
L 89.027429 -203.544893 
L 89.772522 -206.33687 
L 90.454051 -209.128848 
L 91.077035 -211.920826 
L 91.64706 -214.712804 
L 92.170159 -217.504781 
L 92.65269 -220.296759 
L 93.101212 -223.088737 
L 93.522367 -225.880714 
L 93.922754 -228.672692 
L 94.308826 -231.46467 
L 94.686777 -234.256648 
L 95.062448 -237.048625 
L 95.441242 -239.840603 
L 95.828047 -242.632581 
L 96.227173 -245.424559 
L 96.642308 -248.216536 
L 97.076476 -251.008514 
L 97.532024 -253.800492 
L 98.01061 -256.59247 
L 98.513217 -259.384447 
L 99.040169 -262.176425 
L 99.591167 -264.968403 
L 100.165337 -267.760381 
L 100.761284 -270.552358 
L 101.377156 -273.344336 
L 102.010717 -276.136314 
L 102.659421 -278.928292 
L 103.320495 -281.720269 
L 103.991015 -284.512247 
L 104.667989 -287.304225 
L 105.348433 -290.096203 
L 106.029439 -292.88818 
L 106.708246 -295.680158 
L 107.382295 -298.472136 
L 108.049278 -301.264114 
L 108.707175 -304.056091 
L 109.354289 -306.848069 
L 109.989255 -309.640047 
L 110.611055 -312.432025 
L 111.219011 -315.224002 
L 111.812771 -318.01598 
L 112.392291 -320.807958 
L 112.957803 -323.599936 
L 113.509776 -326.391913 
L 114.048883 -329.183891 
L 114.575948 -331.975869 
L 115.091903 -334.767846 
L 115.597742 -337.559824 
L 116.094475 -340.351802 
L 116.583081 -343.14378 
L 141.069419 -343.14378 
L 141.069419 -343.14378 
L 141.558025 -340.351802 
L 142.054758 -337.559824 
L 142.560597 -334.767846 
L 143.076552 -331.975869 
L 143.603617 -329.183891 
L 144.142724 -326.391913 
L 144.694697 -323.599936 
L 145.260209 -320.807958 
L 145.839729 -318.01598 
L 146.433489 -315.224002 
L 147.041445 -312.432025 
L 147.663245 -309.640047 
L 148.298211 -306.848069 
L 148.945325 -304.056091 
L 149.603222 -301.264114 
L 150.270205 -298.472136 
L 150.944254 -295.680158 
L 151.623061 -292.88818 
L 152.304067 -290.096203 
L 152.984511 -287.304225 
L 153.661485 -284.512247 
L 154.332005 -281.720269 
L 154.993079 -278.928292 
L 155.641783 -276.136314 
L 156.275344 -273.344336 
L 156.891216 -270.552358 
L 157.487163 -267.760381 
L 158.061333 -264.968403 
L 158.612331 -262.176425 
L 159.139283 -259.384447 
L 159.64189 -256.59247 
L 160.120476 -253.800492 
L 160.576024 -251.008514 
L 161.010192 -248.216536 
L 161.425327 -245.424559 
L 161.824453 -242.632581 
L 162.211258 -239.840603 
L 162.590052 -237.048625 
L 162.965723 -234.256648 
L 163.343674 -231.46467 
L 163.729746 -228.672692 
L 164.130133 -225.880714 
L 164.551288 -223.088737 
L 164.99981 -220.296759 
L 165.482341 -217.504781 
L 166.00544 -214.712804 
L 166.575465 -211.920826 
L 167.198449 -209.128848 
L 167.879978 -206.33687 
L 168.625071 -203.544893 
L 169.438064 -200.752915 
L 170.322498 -197.960937 
L 171.281024 -195.168959 
L 172.315308 -192.376982 
L 173.425954 -189.585004 
L 174.612434 -186.793026 
L 175.873045 -184.001048 
L 177.204867 -181.209071 
L 178.603747 -178.417093 
L 180.064297 -175.625115 
L 181.579914 -172.833137 
L 183.14281 -170.04116 
L 184.74407 -167.249182 
L 186.373719 -164.457204 
L 188.020811 -161.665226 
L 189.673535 -158.873249 
L 191.319331 -156.081271 
L 192.945025 -153.289293 
L 194.536972 -150.497315 
L 196.081211 -147.705338 
L 197.563631 -144.91336 
L 198.970133 -142.121382 
L 200.286808 -139.329404 
L 201.500109 -136.537427 
L 202.597016 -133.745449 
L 203.565213 -130.953471 
L 204.393239 -128.161493 
L 205.070645 -125.369516 
L 205.588129 -122.577538 
L 205.937666 -119.78556 
L 206.112614 -116.993583 
L 206.107805 -114.201605 
L 205.919622 -111.409627 
L 205.546049 -108.617649 
L 204.986698 -105.825672 
L 204.242824 -103.033694 
L 203.317306 -100.241716 
L 202.214618 -97.449738 
L 200.940764 -94.657761 
L 199.503207 -91.865783 
L 197.91077 -89.073805 
L 196.173522 -86.281827 
L 194.302647 -83.48985 
L 192.310305 -80.697872 
L 190.209472 -77.905894 
L 188.01378 -75.113916 
L 185.73735 -72.321939 
L 183.394617 -69.529961 
L 181.000165 -66.737983 
z
" style="stroke: #ea580c; stroke-opacity: 0.35"/>
    </defs>
    <g clip-path="url(#p84461660bf)">
     <use xlink:href="#mb5832b6125" x="0" y="391.52407" style="fill: #ea580c; fill-opacity: 0.35; stroke: #ea580c; stroke-opacity: 0.35"/>
    </g>
   </g>
   <g id="LineCollection_1">
    <path d="M 90.183068 257.182427 
L 167.469432 257.182427 
" clip-path="url(#p84461660bf)" style="fill: none; stroke: #ea580c; stroke-width: 1.5"/>
   </g>
   <g id="patch_3">
    <path d="M 43.81125 338.606376 
L 43.81125 34.56 
" style="fill: none; stroke: #000000; stroke-width: 0.8; stroke-linejoin: miter; stroke-linecap: square"/>
   </g>
   <g id="patch_4">
    <path d="M 213.84125 338.606376 
L 213.84125 34.56 
" style="fill: none; stroke: #000000; stroke-width: 0.8; stroke-linejoin: miter; stroke-linecap: square"/>
   </g>
   <g id="patch_5">
    <path d="M 43.81125 338.606376 
L 213.84125 338.606376 
" style="fill: none; stroke: #000000; stroke-width: 0.8; stroke-linejoin: miter; stroke-linecap: square"/>
   </g>
   <g id="patch_6">
    <path d="M 43.81125 34.56 
L 213.84125 34.56 
" style="fill: none; stroke: #000000; stroke-width: 0.8; stroke-linejoin: miter; stroke-linecap: square"/>
   </g>
  </g>
  <g id="axes_2">
   <g id="patch_7">
    <path d="M 271.73125 338.606376 
L 441.76125 338.606376 
L 441.76125 34.56 
L 271.73125 34.56 
z
" style="fill: #ffffff"/>
   </g>
   <g id="matplotlib.axis_3">
    <g id="xtick_2">
     <g id="line2d_17">
      <path d="M 356.74625 338.606376 
L 356.74625 34.56 
" clip-path="url(#pa0993ea54e)" style="fill: none; stroke: #b0b0b0; stroke-opacity: 0.2; stroke-width: 0.6; stroke-linecap: square"/>
     </g>
     <g id="line2d_18">
      <g>
       <use xlink:href="#m189ef89023" x="356.74625" y="338.606376" style="stroke: #000000; stroke-width: 0.8"/>
      </g>
     </g>
     <g id="text_10">
      <!-- Loudness variability -->
      <g transform="translate(250.035135 382.114363) rotate(-15) scale(0.11 -0.11)">
       <defs>
        <path id="DejaVuSans-4c" d="M 628 4666 
L 1259 4666 
L 1259 531 
L 3531 531 
L 3531 0 
L 628 0 
L 628 4666 
z
" transform="scale(0.015625)"/>
        <path id="DejaVuSans-75" d="M 544 1381 
L 544 3500 
L 1119 3500 
L 1119 1403 
Q 1119 906 1312 657 
Q 1506 409 1894 409 
Q 2359 409 2629 706 
Q 2900 1003 2900 1516 
L 2900 3500 
L 3475 3500 
L 3475 0 
L 2900 0 
L 2900 538 
Q 2691 219 2414 64 
Q 2138 -91 1772 -91 
Q 1169 -91 856 284 
Q 544 659 544 1381 
z
M 1991 3584 
L 1991 3584 
z
" transform="scale(0.015625)"/>
        <path id="DejaVuSans-64" d="M 2906 2969 
L 2906 4863 
L 3481 4863 
L 3481 0 
L 2906 0 
L 2906 525 
Q 2725 213 2448 61 
Q 2172 -91 1784 -91 
Q 1150 -91 751 415 
Q 353 922 353 1747 
Q 353 2572 751 3078 
Q 1150 3584 1784 3584 
Q 2172 3584 2448 3432 
Q 2725 3281 2906 2969 
z
M 947 1747 
Q 947 1113 1208 752 
Q 1469 391 1925 391 
Q 2381 391 2643 752 
Q 2906 1113 2906 1747 
Q 2906 2381 2643 2742 
Q 2381 3103 1925 3103 
Q 1469 3103 1208 2742 
Q 947 2381 947 1747 
z
" transform="scale(0.015625)"/>
       </defs>
       <use xlink:href="#DejaVuSans-4c"/>
       <use xlink:href="#DejaVuSans-6f" transform="translate(53.962891 0)"/>
       <use xlink:href="#DejaVuSans-75" transform="translate(115.144531 0)"/>
       <use xlink:href="#DejaVuSans-64" transform="translate(178.523438 0)"/>
       <use xlink:href="#DejaVuSans-6e" transform="translate(242 0)"/>
       <use xlink:href="#DejaVuSans-65" transform="translate(305.378906 0)"/>
       <use xlink:href="#DejaVuSans-73" transform="translate(366.902344 0)"/>
       <use xlink:href="#DejaVuSans-73" transform="translate(419.001953 0)"/>
       <use xlink:href="#DejaVuSans-20" transform="translate(471.101562 0)"/>
       <use xlink:href="#DejaVuSans-76" transform="translate(502.888672 0)"/>
       <use xlink:href="#DejaVuSans-61" transform="translate(562.068359 0)"/>
       <use xlink:href="#DejaVuSans-72" transform="translate(623.347656 0)"/>
       <use xlink:href="#DejaVuSans-69" transform="translate(664.460938 0)"/>
       <use xlink:href="#DejaVuSans-61" transform="translate(692.244141 0)"/>
       <use xlink:href="#DejaVuSans-62" transform="translate(753.523438 0)"/>
       <use xlink:href="#DejaVuSans-69" transform="translate(817 0)"/>
       <use xlink:href="#DejaVuSans-6c" transform="translate(844.783203 0)"/>
       <use xlink:href="#DejaVuSans-69" transform="translate(872.566406 0)"/>
       <use xlink:href="#DejaVuSans-74" transform="translate(900.349609 0)"/>
       <use xlink:href="#DejaVuSans-79" transform="translate(939.558594 0)"/>
      </g>
     </g>
    </g>
   </g>
   <g id="matplotlib.axis_4">
    <g id="ytick_8">
     <g id="line2d_19">
      <path d="M 271.73125 336.41847 
L 441.76125 336.41847 
" clip-path="url(#pa0993ea54e)" style="fill: none; stroke: #b0b0b0; stroke-opacity: 0.2; stroke-width: 0.6; stroke-linecap: square"/>
     </g>
     <g id="line2d_20">
      <g>
       <use xlink:href="#m67307c392a" x="271.73125" y="336.41847" style="stroke: #000000; stroke-width: 0.8"/>
      </g>
     </g>
     <g id="text_11">
      <!-- 0.6 -->
      <g transform="translate(247.237813 340.59761) scale(0.11 -0.11)">
       <defs>
        <path id="DejaVuSans-2e" d="M 684 794 
L 1344 794 
L 1344 0 
L 684 0 
L 684 794 
z
" transform="scale(0.015625)"/>
       </defs>
       <use xlink:href="#DejaVuSans-30"/>
       <use xlink:href="#DejaVuSans-2e" transform="translate(63.623047 0)"/>
       <use xlink:href="#DejaVuSans-36" transform="translate(95.410156 0)"/>
      </g>
     </g>
    </g>
    <g id="ytick_9">
     <g id="line2d_21">
      <path d="M 271.73125 297.146024 
L 441.76125 297.146024 
" clip-path="url(#pa0993ea54e)" style="fill: none; stroke: #b0b0b0; stroke-opacity: 0.2; stroke-width: 0.6; stroke-linecap: square"/>
     </g>
     <g id="line2d_22">
      <g>
       <use xlink:href="#m67307c392a" x="271.73125" y="297.146024" style="stroke: #000000; stroke-width: 0.8"/>
      </g>
     </g>
     <g id="text_12">
      <!-- 0.8 -->
      <g transform="translate(247.237813 301.325164) scale(0.11 -0.11)">
       <use xlink:href="#DejaVuSans-30"/>
       <use xlink:href="#DejaVuSans-2e" transform="translate(63.623047 0)"/>
       <use xlink:href="#DejaVuSans-38" transform="translate(95.410156 0)"/>
      </g>
     </g>
    </g>
    <g id="ytick_10">
     <g id="line2d_23">
      <path d="M 271.73125 257.873577 
L 441.76125 257.873577 
" clip-path="url(#pa0993ea54e)" style="fill: none; stroke: #b0b0b0; stroke-opacity: 0.2; stroke-width: 0.6; stroke-linecap: square"/>
     </g>
     <g id="line2d_24">
      <g>
       <use xlink:href="#m67307c392a" x="271.73125" y="257.873577" style="stroke: #000000; stroke-width: 0.8"/>
      </g>
     </g>
     <g id="text_13">
      <!-- 1.0 -->
      <g transform="translate(247.237813 262.052718) scale(0.11 -0.11)">
       <use xlink:href="#DejaVuSans-31"/>
       <use xlink:href="#DejaVuSans-2e" transform="translate(63.623047 0)"/>
       <use xlink:href="#DejaVuSans-30" transform="translate(95.410156 0)"/>
      </g>
     </g>
    </g>
    <g id="ytick_11">
     <g id="line2d_25">
      <path d="M 271.73125 218.601131 
L 441.76125 218.601131 
" clip-path="url(#pa0993ea54e)" style="fill: none; stroke: #b0b0b0; stroke-opacity: 0.2; stroke-width: 0.6; stroke-linecap: square"/>
     </g>
     <g id="line2d_26">
      <g>
       <use xlink:href="#m67307c392a" x="271.73125" y="218.601131" style="stroke: #000000; stroke-width: 0.8"/>
      </g>
     </g>
     <g id="text_14">
      <!-- 1.2 -->
      <g transform="translate(247.237813 222.780272) scale(0.11 -0.11)">
       <use xlink:href="#DejaVuSans-31"/>
       <use xlink:href="#DejaVuSans-2e" transform="translate(63.623047 0)"/>
       <use xlink:href="#DejaVuSans-32" transform="translate(95.410156 0)"/>
      </g>
     </g>
    </g>
    <g id="ytick_12">
     <g id="line2d_27">
      <path d="M 271.73125 179.328685 
L 441.76125 179.328685 
" clip-path="url(#pa0993ea54e)" style="fill: none; stroke: #b0b0b0; stroke-opacity: 0.2; stroke-width: 0.6; stroke-linecap: square"/>
     </g>
     <g id="line2d_28">
      <g>
       <use xlink:href="#m67307c392a" x="271.73125" y="179.328685" style="stroke: #000000; stroke-width: 0.8"/>
      </g>
     </g>
     <g id="text_15">
      <!-- 1.4 -->
      <g transform="translate(247.237813 183.507826) scale(0.11 -0.11)">
       <use xlink:href="#DejaVuSans-31"/>
       <use xlink:href="#DejaVuSans-2e" transform="translate(63.623047 0)"/>
       <use xlink:href="#DejaVuSans-34" transform="translate(95.410156 0)"/>
      </g>
     </g>
    </g>
    <g id="ytick_13">
     <g id="line2d_29">
      <path d="M 271.73125 140.056239 
L 441.76125 140.056239 
" clip-path="url(#pa0993ea54e)" style="fill: none; stroke: #b0b0b0; stroke-opacity: 0.2; stroke-width: 0.6; stroke-linecap: square"/>
     </g>
     <g id="line2d_30">
      <g>
       <use xlink:href="#m67307c392a" x="271.73125" y="140.056239" style="stroke: #000000; stroke-width: 0.8"/>
      </g>
     </g>
     <g id="text_16">
      <!-- 1.6 -->
      <g transform="translate(247.237813 144.235379) scale(0.11 -0.11)">
       <use xlink:href="#DejaVuSans-31"/>
       <use xlink:href="#DejaVuSans-2e" transform="translate(63.623047 0)"/>
       <use xlink:href="#DejaVuSans-36" transform="translate(95.410156 0)"/>
      </g>
     </g>
    </g>
    <g id="ytick_14">
     <g id="line2d_31">
      <path d="M 271.73125 100.783793 
L 441.76125 100.783793 
" clip-path="url(#pa0993ea54e)" style="fill: none; stroke: #b0b0b0; stroke-opacity: 0.2; stroke-width: 0.6; stroke-linecap: square"/>
     </g>
     <g id="line2d_32">
      <g>
       <use xlink:href="#m67307c392a" x="271.73125" y="100.783793" style="stroke: #000000; stroke-width: 0.8"/>
      </g>
     </g>
     <g id="text_17">
      <!-- 1.8 -->
      <g transform="translate(247.237813 104.962933) scale(0.11 -0.11)">
       <use xlink:href="#DejaVuSans-31"/>
       <use xlink:href="#DejaVuSans-2e" transform="translate(63.623047 0)"/>
       <use xlink:href="#DejaVuSans-38" transform="translate(95.410156 0)"/>
      </g>
     </g>
    </g>
    <g id="ytick_15">
     <g id="line2d_33">
      <path d="M 271.73125 61.511346 
L 441.76125 61.511346 
" clip-path="url(#pa0993ea54e)" style="fill: none; stroke: #b0b0b0; stroke-opacity: 0.2; stroke-width: 0.6; stroke-linecap: square"/>
     </g>
     <g id="line2d_34">
      <g>
       <use xlink:href="#m67307c392a" x="271.73125" y="61.511346" style="stroke: #000000; stroke-width: 0.8"/>
      </g>
     </g>
     <g id="text_18">
      <!-- 2.0 -->
      <g transform="translate(247.237813 65.690487) scale(0.11 -0.11)">
       <use xlink:href="#DejaVuSans-32"/>
       <use xlink:href="#DejaVuSans-2e" transform="translate(63.623047 0)"/>
       <use xlink:href="#DejaVuSans-30" transform="translate(95.410156 0)"/>
      </g>
     </g>
    </g>
    <g id="text_19">
     <!-- normalized SD -->
     <g transform="translate(240.742188 230.259438) rotate(-90) scale(0.12 -0.12)">
      <defs>
       <path id="DejaVuSans-7a" d="M 353 3500 
L 3084 3500 
L 3084 2975 
L 922 459 
L 3084 459 
L 3084 0 
L 275 0 
L 275 525 
L 2438 3041 
L 353 3041 
L 353 3500 
z
" transform="scale(0.015625)"/>
       <path id="DejaVuSans-53" d="M 3425 4513 
L 3425 3897 
Q 3066 4069 2747 4153 
Q 2428 4238 2131 4238 
Q 1616 4238 1336 4038 
Q 1056 3838 1056 3469 
Q 1056 3159 1242 3001 
Q 1428 2844 1947 2747 
L 2328 2669 
Q 3034 2534 3370 2195 
Q 3706 1856 3706 1288 
Q 3706 609 3251 259 
Q 2797 -91 1919 -91 
Q 1588 -91 1214 -16 
Q 841 59 441 206 
L 441 856 
Q 825 641 1194 531 
Q 1563 422 1919 422 
Q 2459 422 2753 634 
Q 3047 847 3047 1241 
Q 3047 1584 2836 1778 
Q 2625 1972 2144 2069 
L 1759 2144 
Q 1053 2284 737 2584 
Q 422 2884 422 3419 
Q 422 4038 858 4394 
Q 1294 4750 2059 4750 
Q 2388 4750 2728 4690 
Q 3069 4631 3425 4513 
z
" transform="scale(0.015625)"/>
       <path id="DejaVuSans-44" d="M 1259 4147 
L 1259 519 
L 2022 519 
Q 2988 519 3436 956 
Q 3884 1394 3884 2338 
Q 3884 3275 3436 3711 
Q 2988 4147 2022 4147 
L 1259 4147 
z
M 628 4666 
L 1925 4666 
Q 3281 4666 3915 4102 
Q 4550 3538 4550 2338 
Q 4550 1131 3912 565 
Q 3275 0 1925 0 
L 628 0 
L 628 4666 
z
" transform="scale(0.015625)"/>
      </defs>
      <use xlink:href="#DejaVuSans-6e"/>
      <use xlink:href="#DejaVuSans-6f" transform="translate(63.378906 0)"/>
      <use xlink:href="#DejaVuSans-72" transform="translate(124.560547 0)"/>
      <use xlink:href="#DejaVuSans-6d" transform="translate(163.923828 0)"/>
      <use xlink:href="#DejaVuSans-61" transform="translate(261.335938 0)"/>
      <use xlink:href="#DejaVuSans-6c" transform="translate(322.615234 0)"/>
      <use xlink:href="#DejaVuSans-69" transform="translate(350.398438 0)"/>
      <use xlink:href="#DejaVuSans-7a" transform="translate(378.181641 0)"/>
      <use xlink:href="#DejaVuSans-65" transform="translate(430.671875 0)"/>
      <use xlink:href="#DejaVuSans-64" transform="translate(492.195312 0)"/>
      <use xlink:href="#DejaVuSans-20" transform="translate(555.671875 0)"/>
      <use xlink:href="#DejaVuSans-53" transform="translate(587.458984 0)"/>
      <use xlink:href="#DejaVuSans-44" transform="translate(650.935547 0)"/>
     </g>
    </g>
   </g>
   <g id="FillBetweenPolyCollection_2">
    <defs>
     <path id="m37470e5ec7" d="M 393.659527 -66.737983 
L 319.832973 -66.737983 
L 317.548075 -69.529961 
L 315.244051 -72.321939 
L 312.929695 -75.113916 
L 310.613992 -77.905894 
L 308.306108 -80.697872 
L 306.015407 -83.48985 
L 303.751465 -86.281827 
L 301.524088 -89.073805 
L 299.343339 -91.865783 
L 297.219542 -94.657761 
L 295.163287 -97.449738 
L 293.185412 -100.241716 
L 291.296967 -103.033694 
L 289.509147 -105.825672 
L 287.833207 -108.617649 
L 286.280349 -111.409627 
L 284.861582 -114.201605 
L 283.587563 -116.993583 
L 282.468421 -119.78556 
L 281.513572 -122.577538 
L 280.731528 -125.369516 
L 280.12971 -128.161493 
L 279.714271 -130.953471 
L 279.489941 -133.745449 
L 279.459886 -136.537427 
L 279.625612 -139.329404 
L 279.986885 -142.121382 
L 280.541704 -144.91336 
L 281.286299 -147.705338 
L 282.215176 -150.497315 
L 283.321189 -153.289293 
L 284.595655 -156.081271 
L 286.028489 -158.873249 
L 287.608368 -161.665226 
L 289.322916 -164.457204 
L 291.158899 -167.249182 
L 293.10243 -170.04116 
L 295.139181 -172.833137 
L 297.254584 -175.625115 
L 299.434038 -178.417093 
L 301.663096 -181.209071 
L 303.927642 -184.001048 
L 306.214055 -186.793026 
L 308.509347 -189.585004 
L 310.801288 -192.376982 
L 313.078501 -195.168959 
L 315.330546 -197.960937 
L 317.547969 -200.752915 
L 319.722335 -203.544893 
L 321.846242 -206.33687 
L 323.913303 -209.128848 
L 325.918123 -211.920826 
L 327.85625 -214.712804 
L 329.724109 -217.504781 
L 331.518933 -220.296759 
L 333.238676 -223.088737 
L 334.881926 -225.880714 
L 336.44781 -228.672692 
L 337.935906 -231.46467 
L 339.34615 -234.256648 
L 340.678754 -237.048625 
L 341.934135 -239.840603 
L 343.112848 -242.632581 
L 344.215533 -245.424559 
L 345.242882 -248.216536 
L 346.195604 -251.008514 
L 347.074418 -253.800492 
L 347.880054 -256.59247 
L 348.613257 -259.384447 
L 349.274816 -262.176425 
L 349.86559 -264.968403 
L 350.386548 -267.760381 
L 350.838807 -270.552358 
L 351.223681 -273.344336 
L 351.542725 -276.136314 
L 351.797782 -278.928292 
L 351.991022 -281.720269 
L 352.124983 -284.512247 
L 352.202597 -287.304225 
L 352.227216 -290.096203 
L 352.202624 -292.88818 
L 352.133035 -295.680158 
L 352.023084 -298.472136 
L 351.877806 -301.264114 
L 351.702592 -304.056091 
L 351.503142 -306.848069 
L 351.285404 -309.640047 
L 351.055492 -312.432025 
L 350.819602 -315.224002 
L 350.583918 -318.01598 
L 350.354508 -320.807958 
L 350.137222 -323.599936 
L 349.937579 -326.391913 
L 349.760673 -329.183891 
L 349.611067 -331.975869 
L 349.492714 -334.767846 
L 349.408876 -337.559824 
L 349.362067 -340.351802 
L 349.354015 -343.14378 
L 364.138485 -343.14378 
L 364.138485 -343.14378 
L 364.130433 -340.351802 
L 364.083624 -337.559824 
L 363.999786 -334.767846 
L 363.881433 -331.975869 
L 363.731827 -329.183891 
L 363.554921 -326.391913 
L 363.355278 -323.599936 
L 363.137992 -320.807958 
L 362.908582 -318.01598 
L 362.672898 -315.224002 
L 362.437008 -312.432025 
L 362.207096 -309.640047 
L 361.989358 -306.848069 
L 361.789908 -304.056091 
L 361.614694 -301.264114 
L 361.469416 -298.472136 
L 361.359465 -295.680158 
L 361.289876 -292.88818 
L 361.265284 -290.096203 
L 361.289903 -287.304225 
L 361.367517 -284.512247 
L 361.501478 -281.720269 
L 361.694718 -278.928292 
L 361.949775 -276.136314 
L 362.268819 -273.344336 
L 362.653693 -270.552358 
L 363.105952 -267.760381 
L 363.62691 -264.968403 
L 364.217684 -262.176425 
L 364.879243 -259.384447 
L 365.612446 -256.59247 
L 366.418082 -253.800492 
L 367.296896 -251.008514 
L 368.249618 -248.216536 
L 369.276967 -245.424559 
L 370.379652 -242.632581 
L 371.558365 -239.840603 
L 372.813746 -237.048625 
L 374.14635 -234.256648 
L 375.556594 -231.46467 
L 377.04469 -228.672692 
L 378.610574 -225.880714 
L 380.253824 -223.088737 
L 381.973567 -220.296759 
L 383.768391 -217.504781 
L 385.63625 -214.712804 
L 387.574377 -211.920826 
L 389.579197 -209.128848 
L 391.646258 -206.33687 
L 393.770165 -203.544893 
L 395.944531 -200.752915 
L 398.161954 -197.960937 
L 400.413999 -195.168959 
L 402.691212 -192.376982 
L 404.983153 -189.585004 
L 407.278445 -186.793026 
L 409.564858 -184.001048 
L 411.829404 -181.209071 
L 414.058462 -178.417093 
L 416.237916 -175.625115 
L 418.353319 -172.833137 
L 420.39007 -170.04116 
L 422.333601 -167.249182 
L 424.169584 -164.457204 
L 425.884132 -161.665226 
L 427.464011 -158.873249 
L 428.896845 -156.081271 
L 430.171311 -153.289293 
L 431.277324 -150.497315 
L 432.206201 -147.705338 
L 432.950796 -144.91336 
L 433.505615 -142.121382 
L 433.866888 -139.329404 
L 434.032614 -136.537427 
L 434.002559 -133.745449 
L 433.778229 -130.953471 
L 433.36279 -128.161493 
L 432.760972 -125.369516 
L 431.978928 -122.577538 
L 431.024079 -119.78556 
L 429.904937 -116.993583 
L 428.630918 -114.201605 
L 427.212151 -111.409627 
L 425.659293 -108.617649 
L 423.983353 -105.825672 
L 422.195533 -103.033694 
L 420.307088 -100.241716 
L 418.329213 -97.449738 
L 416.272958 -94.657761 
L 414.149161 -91.865783 
L 411.968412 -89.073805 
L 409.741035 -86.281827 
L 407.477093 -83.48985 
L 405.186392 -80.697872 
L 402.878508 -77.905894 
L 400.562805 -75.113916 
L 398.248449 -72.321939 
L 395.944425 -69.529961 
L 393.659527 -66.737983 
z
" style="stroke: #ea580c; stroke-opacity: 0.35"/>
    </defs>
    <g clip-path="url(#pa0993ea54e)">
     <use xlink:href="#m37470e5ec7" x="0" y="391.52407" style="fill: #ea580c; fill-opacity: 0.35; stroke: #ea580c; stroke-opacity: 0.35"/>
    </g>
   </g>
   <g id="LineCollection_2">
    <path d="M 318.103068 255.370094 
L 395.389432 255.370094 
" clip-path="url(#pa0993ea54e)" style="fill: none; stroke: #ea580c; stroke-width: 1.5"/>
   </g>
   <g id="patch_8">
    <path d="M 271.73125 338.606376 
L 271.73125 34.56 
" style="fill: none; stroke: #000000; stroke-width: 0.8; stroke-linejoin: miter; stroke-linecap: square"/>
   </g>
   <g id="patch_9">
    <path d="M 441.76125 338.606376 
L 441.76125 34.56 
" style="fill: none; stroke: #000000; stroke-width: 0.8; stroke-linejoin: miter; stroke-linecap: square"/>
   </g>
   <g id="patch_10">
    <path d="M 271.73125 338.606376 
L 441.76125 338.606376 
" style="fill: none; stroke: #000000; stroke-width: 0.8; stroke-linejoin: miter; stroke-linecap: square"/>
   </g>
   <g id="patch_11">
    <path d="M 271.73125 34.56 
L 441.76125 34.56 
" style="fill: none; stroke: #000000; stroke-width: 0.8; stroke-linejoin: miter; stroke-linecap: square"/>
   </g>
  </g>
  <g id="axes_3">
   <g id="patch_12">
    <path d="M 499.65125 338.606376 
L 669.68125 338.606376 
L 669.68125 34.56 
L 499.65125 34.56 
z
" style="fill: #ffffff"/>
   </g>
   <g id="matplotlib.axis_5">
    <g id="xtick_3">
     <g id="line2d_35">
      <path d="M 584.66625 338.606376 
L 584.66625 34.56 
" clip-path="url(#pcb5b09f900)" style="fill: none; stroke: #b0b0b0; stroke-opacity: 0.2; stroke-width: 0.6; stroke-linecap: square"/>
     </g>
     <g id="line2d_36">
      <g>
       <use xlink:href="#m189ef89023" x="584.66625" y="338.606376" style="stroke: #000000; stroke-width: 0.8"/>
      </g>
     </g>
     <g id="text_20">
      <!-- Speech rate -->
      <g transform="translate(519.972757 370.855775) rotate(-15) scale(0.11 -0.11)">
       <defs>
        <path id="DejaVuSans-70" d="M 1159 525 
L 1159 -1331 
L 581 -1331 
L 581 3500 
L 1159 3500 
L 1159 2969 
Q 1341 3281 1617 3432 
Q 1894 3584 2278 3584 
Q 2916 3584 3314 3078 
Q 3713 2572 3713 1747 
Q 3713 922 3314 415 
Q 2916 -91 2278 -91 
Q 1894 -91 1617 61 
Q 1341 213 1159 525 
z
M 3116 1747 
Q 3116 2381 2855 2742 
Q 2594 3103 2138 3103 
Q 1681 3103 1420 2742 
Q 1159 2381 1159 1747 
Q 1159 1113 1420 752 
Q 1681 391 2138 391 
Q 2594 391 2855 752 
Q 3116 1113 3116 1747 
z
" transform="scale(0.015625)"/>
       </defs>
       <use xlink:href="#DejaVuSans-53"/>
       <use xlink:href="#DejaVuSans-70" transform="translate(63.476562 0)"/>
       <use xlink:href="#DejaVuSans-65" transform="translate(126.953125 0)"/>
       <use xlink:href="#DejaVuSans-65" transform="translate(188.476562 0)"/>
       <use xlink:href="#DejaVuSans-63" transform="translate(250 0)"/>
       <use xlink:href="#DejaVuSans-68" transform="translate(304.980469 0)"/>
       <use xlink:href="#DejaVuSans-20" transform="translate(368.359375 0)"/>
       <use xlink:href="#DejaVuSans-72" transform="translate(400.146484 0)"/>
       <use xlink:href="#DejaVuSans-61" transform="translate(441.259766 0)"/>
       <use xlink:href="#DejaVuSans-74" transform="translate(502.539062 0)"/>
       <use xlink:href="#DejaVuSans-65" transform="translate(541.748047 0)"/>
      </g>
     </g>
    </g>
   </g>
   <g id="matplotlib.axis_6">
    <g id="ytick_16">
     <g id="line2d_37">
      <path d="M 499.65125 316.055208 
L 669.68125 316.055208 
" clip-path="url(#pcb5b09f900)" style="fill: none; stroke: #b0b0b0; stroke-opacity: 0.2; stroke-width: 0.6; stroke-linecap: square"/>
     </g>
     <g id="line2d_38">
      <g>
       <use xlink:href="#m67307c392a" x="499.65125" y="316.055208" style="stroke: #000000; stroke-width: 0.8"/>
      </g>
     </g>
     <g id="text_21">
      <!-- 0.50 -->
      <g transform="translate(468.159063 320.234349) scale(0.11 -0.11)">
       <defs>
        <path id="DejaVuSans-35" d="M 691 4666 
L 3169 4666 
L 3169 4134 
L 1269 4134 
L 1269 2991 
Q 1406 3038 1543 3061 
Q 1681 3084 1819 3084 
Q 2600 3084 3056 2656 
Q 3513 2228 3513 1497 
Q 3513 744 3044 326 
Q 2575 -91 1722 -91 
Q 1428 -91 1123 -41 
Q 819 9 494 109 
L 494 744 
Q 775 591 1075 516 
Q 1375 441 1709 441 
Q 2250 441 2565 725 
Q 2881 1009 2881 1497 
Q 2881 1984 2565 2268 
Q 2250 2553 1709 2553 
Q 1456 2553 1204 2497 
Q 953 2441 691 2322 
L 691 4666 
z
" transform="scale(0.015625)"/>
       </defs>
       <use xlink:href="#DejaVuSans-30"/>
       <use xlink:href="#DejaVuSans-2e" transform="translate(63.623047 0)"/>
       <use xlink:href="#DejaVuSans-35" transform="translate(95.410156 0)"/>
       <use xlink:href="#DejaVuSans-30" transform="translate(159.033203 0)"/>
      </g>
     </g>
    </g>
    <g id="ytick_17">
     <g id="line2d_39">
      <path d="M 499.65125 278.15275 
L 669.68125 278.15275 
" clip-path="url(#pcb5b09f900)" style="fill: none; stroke: #b0b0b0; stroke-opacity: 0.2; stroke-width: 0.6; stroke-linecap: square"/>
     </g>
     <g id="line2d_40">
      <g>
       <use xlink:href="#m67307c392a" x="499.65125" y="278.15275" style="stroke: #000000; stroke-width: 0.8"/>
      </g>
     </g>
     <g id="text_22">
      <!-- 0.75 -->
      <g transform="translate(468.159063 282.33189) scale(0.11 -0.11)">
       <defs>
        <path id="DejaVuSans-37" d="M 525 4666 
L 3525 4666 
L 3525 4397 
L 1831 0 
L 1172 0 
L 2766 4134 
L 525 4134 
L 525 4666 
z
" transform="scale(0.015625)"/>
       </defs>
       <use xlink:href="#DejaVuSans-30"/>
       <use xlink:href="#DejaVuSans-2e" transform="translate(63.623047 0)"/>
       <use xlink:href="#DejaVuSans-37" transform="translate(95.410156 0)"/>
       <use xlink:href="#DejaVuSans-35" transform="translate(159.033203 0)"/>
      </g>
     </g>
    </g>
    <g id="ytick_18">
     <g id="line2d_41">
      <path d="M 499.65125 240.250291 
L 669.68125 240.250291 
" clip-path="url(#pcb5b09f900)" style="fill: none; stroke: #b0b0b0; stroke-opacity: 0.2; stroke-width: 0.6; stroke-linecap: square"/>
     </g>
     <g id="line2d_42">
      <g>
       <use xlink:href="#m67307c392a" x="499.65125" y="240.250291" style="stroke: #000000; stroke-width: 0.8"/>
      </g>
     </g>
     <g id="text_23">
      <!-- 1.00 -->
      <g transform="translate(468.159063 244.429432) scale(0.11 -0.11)">
       <use xlink:href="#DejaVuSans-31"/>
       <use xlink:href="#DejaVuSans-2e" transform="translate(63.623047 0)"/>
       <use xlink:href="#DejaVuSans-30" transform="translate(95.410156 0)"/>
       <use xlink:href="#DejaVuSans-30" transform="translate(159.033203 0)"/>
      </g>
     </g>
    </g>
    <g id="ytick_19">
     <g id="line2d_43">
      <path d="M 499.65125 202.347833 
L 669.68125 202.347833 
" clip-path="url(#pcb5b09f900)" style="fill: none; stroke: #b0b0b0; stroke-opacity: 0.2; stroke-width: 0.6; stroke-linecap: square"/>
     </g>
     <g id="line2d_44">
      <g>
       <use xlink:href="#m67307c392a" x="499.65125" y="202.347833" style="stroke: #000000; stroke-width: 0.8"/>
      </g>
     </g>
     <g id="text_24">
      <!-- 1.25 -->
      <g transform="translate(468.159063 206.526974) scale(0.11 -0.11)">
       <use xlink:href="#DejaVuSans-31"/>
       <use xlink:href="#DejaVuSans-2e" transform="translate(63.623047 0)"/>
       <use xlink:href="#DejaVuSans-32" transform="translate(95.410156 0)"/>
       <use xlink:href="#DejaVuSans-35" transform="translate(159.033203 0)"/>
      </g>
     </g>
    </g>
    <g id="ytick_20">
     <g id="line2d_45">
      <path d="M 499.65125 164.445375 
L 669.68125 164.445375 
" clip-path="url(#pcb5b09f900)" style="fill: none; stroke: #b0b0b0; stroke-opacity: 0.2; stroke-width: 0.6; stroke-linecap: square"/>
     </g>
     <g id="line2d_46">
      <g>
       <use xlink:href="#m67307c392a" x="499.65125" y="164.445375" style="stroke: #000000; stroke-width: 0.8"/>
      </g>
     </g>
     <g id="text_25">
      <!-- 1.50 -->
      <g transform="translate(468.159063 168.624515) scale(0.11 -0.11)">
       <use xlink:href="#DejaVuSans-31"/>
       <use xlink:href="#DejaVuSans-2e" transform="translate(63.623047 0)"/>
       <use xlink:href="#DejaVuSans-35" transform="translate(95.410156 0)"/>
       <use xlink:href="#DejaVuSans-30" transform="translate(159.033203 0)"/>
      </g>
     </g>
    </g>
    <g id="ytick_21">
     <g id="line2d_47">
      <path d="M 499.65125 126.542916 
L 669.68125 126.542916 
" clip-path="url(#pcb5b09f900)" style="fill: none; stroke: #b0b0b0; stroke-opacity: 0.2; stroke-width: 0.6; stroke-linecap: square"/>
     </g>
     <g id="line2d_48">
      <g>
       <use xlink:href="#m67307c392a" x="499.65125" y="126.542916" style="stroke: #000000; stroke-width: 0.8"/>
      </g>
     </g>
     <g id="text_26">
      <!-- 1.75 -->
      <g transform="translate(468.159063 130.722057) scale(0.11 -0.11)">
       <use xlink:href="#DejaVuSans-31"/>
       <use xlink:href="#DejaVuSans-2e" transform="translate(63.623047 0)"/>
       <use xlink:href="#DejaVuSans-37" transform="translate(95.410156 0)"/>
       <use xlink:href="#DejaVuSans-35" transform="translate(159.033203 0)"/>
      </g>
     </g>
    </g>
    <g id="ytick_22">
     <g id="line2d_49">
      <path d="M 499.65125 88.640458 
L 669.68125 88.640458 
" clip-path="url(#pcb5b09f900)" style="fill: none; stroke: #b0b0b0; stroke-opacity: 0.2; stroke-width: 0.6; stroke-linecap: square"/>
     </g>
     <g id="line2d_50">
      <g>
       <use xlink:href="#m67307c392a" x="499.65125" y="88.640458" style="stroke: #000000; stroke-width: 0.8"/>
      </g>
     </g>
     <g id="text_27">
      <!-- 2.00 -->
      <g transform="translate(468.159063 92.819599) scale(0.11 -0.11)">
       <use xlink:href="#DejaVuSans-32"/>
       <use xlink:href="#DejaVuSans-2e" transform="translate(63.623047 0)"/>
       <use xlink:href="#DejaVuSans-30" transform="translate(95.410156 0)"/>
       <use xlink:href="#DejaVuSans-30" transform="translate(159.033203 0)"/>
      </g>
     </g>
    </g>
    <g id="ytick_23">
     <g id="line2d_51">
      <path d="M 499.65125 50.738 
L 669.68125 50.738 
" clip-path="url(#pcb5b09f900)" style="fill: none; stroke: #b0b0b0; stroke-opacity: 0.2; stroke-width: 0.6; stroke-linecap: square"/>
     </g>
     <g id="line2d_52">
      <g>
       <use xlink:href="#m67307c392a" x="499.65125" y="50.738" style="stroke: #000000; stroke-width: 0.8"/>
      </g>
     </g>
     <g id="text_28">
      <!-- 2.25 -->
      <g transform="translate(468.159063 54.91714) scale(0.11 -0.11)">
       <use xlink:href="#DejaVuSans-32"/>
       <use xlink:href="#DejaVuSans-2e" transform="translate(63.623047 0)"/>
       <use xlink:href="#DejaVuSans-32" transform="translate(95.410156 0)"/>
       <use xlink:href="#DejaVuSans-35" transform="translate(159.033203 0)"/>
      </g>
     </g>
    </g>
    <g id="text_29">
     <!-- segments / second -->
     <g transform="translate(461.663438 243.260688) rotate(-90) scale(0.12 -0.12)">
      <defs>
       <path id="DejaVuSans-67" d="M 2906 1791 
Q 2906 2416 2648 2759 
Q 2391 3103 1925 3103 
Q 1463 3103 1205 2759 
Q 947 2416 947 1791 
Q 947 1169 1205 825 
Q 1463 481 1925 481 
Q 2391 481 2648 825 
Q 2906 1169 2906 1791 
z
M 3481 434 
Q 3481 -459 3084 -895 
Q 2688 -1331 1869 -1331 
Q 1566 -1331 1297 -1286 
Q 1028 -1241 775 -1147 
L 775 -588 
Q 1028 -725 1275 -790 
Q 1522 -856 1778 -856 
Q 2344 -856 2625 -561 
Q 2906 -266 2906 331 
L 2906 616 
Q 2728 306 2450 153 
Q 2172 0 1784 0 
Q 1141 0 747 490 
Q 353 981 353 1791 
Q 353 2603 747 3093 
Q 1141 3584 1784 3584 
Q 2172 3584 2450 3431 
Q 2728 3278 2906 2969 
L 2906 3500 
L 3481 3500 
L 3481 434 
z
" transform="scale(0.015625)"/>
       <path id="DejaVuSans-2f" d="M 1625 4666 
L 2156 4666 
L 531 -594 
L 0 -594 
L 1625 4666 
z
" transform="scale(0.015625)"/>
      </defs>
      <use xlink:href="#DejaVuSans-73"/>
      <use xlink:href="#DejaVuSans-65" transform="translate(52.099609 0)"/>
      <use xlink:href="#DejaVuSans-67" transform="translate(113.623047 0)"/>
      <use xlink:href="#DejaVuSans-6d" transform="translate(177.099609 0)"/>
      <use xlink:href="#DejaVuSans-65" transform="translate(274.511719 0)"/>
      <use xlink:href="#DejaVuSans-6e" transform="translate(336.035156 0)"/>
      <use xlink:href="#DejaVuSans-74" transform="translate(399.414062 0)"/>
      <use xlink:href="#DejaVuSans-73" transform="translate(438.623047 0)"/>
      <use xlink:href="#DejaVuSans-20" transform="translate(490.722656 0)"/>
      <use xlink:href="#DejaVuSans-2f" transform="translate(522.509766 0)"/>
      <use xlink:href="#DejaVuSans-20" transform="translate(556.201172 0)"/>
      <use xlink:href="#DejaVuSans-73" transform="translate(587.988281 0)"/>
      <use xlink:href="#DejaVuSans-65" transform="translate(640.087891 0)"/>
      <use xlink:href="#DejaVuSans-63" transform="translate(701.611328 0)"/>
      <use xlink:href="#DejaVuSans-6f" transform="translate(756.591797 0)"/>
      <use xlink:href="#DejaVuSans-6e" transform="translate(817.773438 0)"/>
      <use xlink:href="#DejaVuSans-64" transform="translate(881.152344 0)"/>
     </g>
    </g>
   </g>
   <g id="FillBetweenPolyCollection_3">
    <defs>
     <path id="me0aee578bb" d="M 618.976726 -66.737983 
L 550.355774 -66.737983 
L 548.527955 -69.529961 
L 546.674806 -72.321939 
L 544.80047 -75.113916 
L 542.90934 -77.905894 
L 541.006067 -80.697872 
L 539.095578 -83.48985 
L 537.183082 -86.281827 
L 535.274079 -89.073805 
L 533.374366 -91.865783 
L 531.49003 -94.657761 
L 529.627439 -97.449738 
L 527.793228 -100.241716 
L 525.994265 -103.033694 
L 524.237619 -105.825672 
L 522.530514 -108.617649 
L 520.880276 -111.409627 
L 519.294264 -114.201605 
L 517.779808 -116.993583 
L 516.344123 -119.78556 
L 514.994236 -122.577538 
L 513.736896 -125.369516 
L 512.578491 -128.161493 
L 511.524963 -130.953471 
L 510.581728 -133.745449 
L 509.753599 -136.537427 
L 509.044714 -139.329404 
L 508.458478 -142.121382 
L 507.997513 -144.91336 
L 507.663612 -147.705338 
L 507.457715 -150.497315 
L 507.379886 -153.289293 
L 507.429317 -156.081271 
L 507.604324 -158.873249 
L 507.902374 -161.665226 
L 508.320107 -164.457204 
L 508.853382 -167.249182 
L 509.497316 -170.04116 
L 510.246344 -172.833137 
L 511.094282 -175.625115 
L 512.03439 -178.417093 
L 513.059444 -181.209071 
L 514.161816 -184.001048 
L 515.333543 -186.793026 
L 516.566413 -189.585004 
L 517.852041 -192.376982 
L 519.181952 -195.168959 
L 520.547657 -197.960937 
L 521.940738 -200.752915 
L 523.352921 -203.544893 
L 524.776152 -206.33687 
L 526.202676 -209.128848 
L 527.625102 -211.920826 
L 529.03647 -214.712804 
L 530.430316 -217.504781 
L 531.800726 -220.296759 
L 533.142386 -223.088737 
L 534.450623 -225.880714 
L 535.721442 -228.672692 
L 536.95155 -231.46467 
L 538.138368 -234.256648 
L 539.280042 -237.048625 
L 540.37543 -239.840603 
L 541.42409 -242.632581 
L 542.426253 -245.424559 
L 543.382779 -248.216536 
L 544.29512 -251.008514 
L 545.165255 -253.800492 
L 545.995632 -256.59247 
L 546.789098 -259.384447 
L 547.548827 -262.176425 
L 548.278242 -264.968403 
L 548.980942 -267.760381 
L 549.660625 -270.552358 
L 550.321015 -273.344336 
L 550.965798 -276.136314 
L 551.598554 -278.928292 
L 552.222706 -281.720269 
L 552.841471 -284.512247 
L 553.457821 -287.304225 
L 554.074449 -290.096203 
L 554.693751 -292.88818 
L 555.31781 -295.680158 
L 555.948389 -298.472136 
L 556.586929 -301.264114 
L 557.234562 -304.056091 
L 557.892114 -306.848069 
L 558.560126 -309.640047 
L 559.23887 -312.432025 
L 559.928366 -315.224002 
L 560.628407 -318.01598 
L 561.338577 -320.807958 
L 562.058268 -323.599936 
L 562.786705 -326.391913 
L 563.522956 -329.183891 
L 564.265951 -331.975869 
L 565.014498 -334.767846 
L 565.767291 -337.559824 
L 566.522924 -340.351802 
L 567.2799 -343.14378 
L 602.0526 -343.14378 
L 602.0526 -343.14378 
L 602.809576 -340.351802 
L 603.565209 -337.559824 
L 604.318002 -334.767846 
L 605.066549 -331.975869 
L 605.809544 -329.183891 
L 606.545795 -326.391913 
L 607.274232 -323.599936 
L 607.993923 -320.807958 
L 608.704093 -318.01598 
L 609.404134 -315.224002 
L 610.09363 -312.432025 
L 610.772374 -309.640047 
L 611.440386 -306.848069 
L 612.097938 -304.056091 
L 612.745571 -301.264114 
L 613.384111 -298.472136 
L 614.01469 -295.680158 
L 614.638749 -292.88818 
L 615.258051 -290.096203 
L 615.874679 -287.304225 
L 616.491029 -284.512247 
L 617.109794 -281.720269 
L 617.733946 -278.928292 
L 618.366702 -276.136314 
L 619.011485 -273.344336 
L 619.671875 -270.552358 
L 620.351558 -267.760381 
L 621.054258 -264.968403 
L 621.783673 -262.176425 
L 622.543402 -259.384447 
L 623.336868 -256.59247 
L 624.167245 -253.800492 
L 625.03738 -251.008514 
L 625.949721 -248.216536 
L 626.906247 -245.424559 
L 627.90841 -242.632581 
L 628.95707 -239.840603 
L 630.052458 -237.048625 
L 631.194132 -234.256648 
L 632.38095 -231.46467 
L 633.611058 -228.672692 
L 634.881877 -225.880714 
L 636.190114 -223.088737 
L 637.531774 -220.296759 
L 638.902184 -217.504781 
L 640.29603 -214.712804 
L 641.707398 -211.920826 
L 643.129824 -209.128848 
L 644.556348 -206.33687 
L 645.979579 -203.544893 
L 647.391762 -200.752915 
L 648.784843 -197.960937 
L 650.150548 -195.168959 
L 651.480459 -192.376982 
L 652.766087 -189.585004 
L 653.998957 -186.793026 
L 655.170684 -184.001048 
L 656.273056 -181.209071 
L 657.29811 -178.417093 
L 658.238218 -175.625115 
L 659.086156 -172.833137 
L 659.835184 -170.04116 
L 660.479118 -167.249182 
L 661.012393 -164.457204 
L 661.430126 -161.665226 
L 661.728176 -158.873249 
L 661.903183 -156.081271 
L 661.952614 -153.289293 
L 661.874785 -150.497315 
L 661.668888 -147.705338 
L 661.334987 -144.91336 
L 660.874022 -142.121382 
L 660.287786 -139.329404 
L 659.578901 -136.537427 
L 658.750772 -133.745449 
L 657.807537 -130.953471 
L 656.754009 -128.161493 
L 655.595604 -125.369516 
L 654.338264 -122.577538 
L 652.988377 -119.78556 
L 651.552692 -116.993583 
L 650.038236 -114.201605 
L 648.452224 -111.409627 
L 646.801986 -108.617649 
L 645.094881 -105.825672 
L 643.338235 -103.033694 
L 641.539272 -100.241716 
L 639.705061 -97.449738 
L 637.84247 -94.657761 
L 635.958134 -91.865783 
L 634.058421 -89.073805 
L 632.149418 -86.281827 
L 630.236922 -83.48985 
L 628.326433 -80.697872 
L 626.42316 -77.905894 
L 624.53203 -75.113916 
L 622.657694 -72.321939 
L 620.804545 -69.529961 
L 618.976726 -66.737983 
z
" style="stroke: #ea580c; stroke-opacity: 0.35"/>
    </defs>
    <g clip-path="url(#pcb5b09f900)">
     <use xlink:href="#me0aee578bb" x="0" y="391.52407" style="fill: #ea580c; fill-opacity: 0.35; stroke: #ea580c; stroke-opacity: 0.35"/>
    </g>
   </g>
   <g id="LineCollection_3">
    <path d="M 546.023068 232.365268 
L 623.309432 232.365268 
" clip-path="url(#pcb5b09f900)" style="fill: none; stroke: #ea580c; stroke-width: 1.5"/>
   </g>
   <g id="patch_13">
    <path d="M 499.65125 338.606376 
L 499.65125 34.56 
" style="fill: none; stroke: #000000; stroke-width: 0.8; stroke-linejoin: miter; stroke-linecap: square"/>
   </g>
   <g id="patch_14">
    <path d="M 669.68125 338.606376 
L 669.68125 34.56 
" style="fill: none; stroke: #000000; stroke-width: 0.8; stroke-linejoin: miter; stroke-linecap: square"/>
   </g>
   <g id="patch_15">
    <path d="M 499.65125 338.606376 
L 669.68125 338.606376 
" style="fill: none; stroke: #000000; stroke-width: 0.8; stroke-linejoin: miter; stroke-linecap: square"/>
   </g>
   <g id="patch_16">
    <path d="M 499.65125 34.56 
L 669.68125 34.56 
" style="fill: none; stroke: #000000; stroke-width: 0.8; stroke-linejoin: miter; stroke-linecap: square"/>
   </g>
  </g>
  <g id="text_30">
   <!-- ADHD -->
   <g transform="translate(317.648594 17.837812) scale(0.14 -0.14)">
    <defs>
     <path id="DejaVuSans-41" d="M 2188 4044 
L 1331 1722 
L 3047 1722 
L 2188 4044 
z
M 1831 4666 
L 2547 4666 
L 4325 0 
L 3669 0 
L 3244 1197 
L 1141 1197 
L 716 0 
L 50 0 
L 1831 4666 
z
" transform="scale(0.015625)"/>
     <path id="DejaVuSans-48" d="M 628 4666 
L 1259 4666 
L 1259 2753 
L 3553 2753 
L 3553 4666 
L 4184 4666 
L 4184 0 
L 3553 0 
L 3553 2222 
L 1259 2222 
L 1259 0 
L 628 0 
L 628 4666 
z
" transform="scale(0.015625)"/>
    </defs>
    <use xlink:href="#DejaVuSans-41"/>
    <use xlink:href="#DejaVuSans-44" transform="translate(68.408203 0)"/>
    <use xlink:href="#DejaVuSans-48" transform="translate(145.410156 0)"/>
    <use xlink:href="#DejaVuSans-44" transform="translate(220.605469 0)"/>
   </g>
  </g>
 </g>
 <defs>
  <clipPath id="p84461660bf">
   <rect x="43.81125" y="34.56" width="170.03" height="304.046376"/>
  </clipPath>
  <clipPath id="pa0993ea54e">
   <rect x="271.73125" y="34.56" width="170.03" height="304.046376"/>
  </clipPath>
  <clipPath id="pcb5b09f900">
   <rect x="499.65125" y="34.56" width="170.03" height="304.046376"/>
  </clipPath>
 </defs>
</svg>
