<?xml version="1.0" encoding="utf-8" standalone="no"?>
<!DOCTYPE svg PUBLIC "-//W3C//DTD SVG 1.1//EN"
  "http://www.w3.org/Graphics/SVG/1.1/DTD/svg11.dtd">
<svg xmlns:xlink="http://www.w3.org/1999/xlink" width="712.837188pt" height="424.5775pt" viewBox="0 0 712.837188 424.5775" xmlns="http://www.w3.org/2000/svg" version="1.1">
 <metadata>
  <rdf:RDF xmlns:dc="http://purl.org/dc/elements/1.1/" xmlns:cc="http://creativecommons.org/ns#" xmlns:rdf="http://www.w3.org/1999/02/22-rdf-syntax-ns#">
   <cc:Work>
    <dc:type rdf:resource="http://purl.org/dc/dcmitype/StillImage"/>
    <dc:date>2026-06-23T21:54:00.132767</dc:date>
    <dc:format>image/svg+xml</dc:format>
    <dc:creator>
     <cc:Agent>
      <dc:title>Matplotlib v3.10.1, https://matplotlib.org/</dc:title>
     </cc:Agent>
    </dc:creator>
   </cc:Work>
  </rdf:RDF>
 </metadata>
 <defs>
  <style type="text/css">*{stroke-linejoin: round; stroke-linecap: butt}</style>
 </defs>
 <g id="figure_1">
  <g id="patch_1">
   <path d="M 0 424.5775 
L 712.837188 424.5775 
L 712.837188 0 
L 0 0 
z
" style="fill: #ffffff"/>
  </g>
  <g id="axes_1">
   <g id="patch_2">
    <path d="M 47.307188 384.117812 
L 705.637188 384.117812 
L 705.637188 23.837812 
L 47.307188 23.837812 
z
" style="fill: #ffffff"/>
   </g>
   <g id="matplotlib.axis_1">
    <g id="xtick_1">
     <g id="line2d_1">
      <path d="M 47.307188 384.117812 
L 47.307188 23.837812 
" clip-path="url(#p67455137b4)" style="fill: none; stroke: #b0b0b0; stroke-opacity: 0.2; stroke-width: 0.6; stroke-linecap: square"/>
     </g>
     <g id="line2d_2">
      <defs>
       <path id="m09888ad379" d="M 0 0 
L 0 3.5 
" style="stroke: #000000; stroke-width: 0.8"/>
      </defs>
      <g>
       <use xlink:href="#m09888ad379" x="47.307188" y="384.117812" style="stroke: #000000; stroke-width: 0.8"/>
      </g>
     </g>
     <g id="text_1">
      <!-- 0 -->
      <g transform="translate(43.807813 399.476094) scale(0.11 -0.11)">
       <defs>
        <path id="DejaVuSans-30" d="M 2034 4250 
Q 1547 4250 1301 3770 
Q 1056 3291 1056 2328 
Q 1056 1369 1301 889 
Q 1547 409 2034 409 
Q 2525 409 2770 889 
Q 3016 1369 3016 2328 
Q 3016 3291 2770 3770 
Q 2525 4250 2034 4250 
z
M 2034 4750 
Q 2819 4750 3233 4129 
Q 3647 3509 3647 2328 
Q 3647 1150 3233 529 
Q 2819 -91 2034 -91 
Q 1250 -91 836 529 
Q 422 1150 422 2328 
Q 422 3509 836 4129 
Q 1250 4750 2034 4750 
z
" transform="scale(0.015625)"/>
       </defs>
       <use xlink:href="#DejaVuSans-30"/>
      </g>
     </g>
    </g>
    <g id="xtick_2">
     <g id="line2d_3">
      <path d="M 134.387875 384.117812 
L 134.387875 23.837812 
" clip-path="url(#p67455137b4)" style="fill: none; stroke: #b0b0b0; stroke-opacity: 0.2; stroke-width: 0.6; stroke-linecap: square"/>
     </g>
     <g id="line2d_4">
      <g>
       <use xlink:href="#m09888ad379" x="134.387875" y="384.117812" style="stroke: #000000; stroke-width: 0.8"/>
      </g>
     </g>
     <g id="text_2">
      <!-- 25 -->
      <g transform="translate(127.389125 399.476094) scale(0.11 -0.11)">
       <defs>
        <path id="DejaVuSans-32" d="M 1228 531 
L 3431 531 
L 3431 0 
L 469 0 
L 469 531 
Q 828 903 1448 1529 
Q 2069 2156 2228 2338 
Q 2531 2678 2651 2914 
Q 2772 3150 2772 3378 
Q 2772 3750 2511 3984 
Q 2250 4219 1831 4219 
Q 1534 4219 1204 4116 
Q 875 4013 500 3803 
L 500 4441 
Q 881 4594 1212 4672 
Q 1544 4750 1819 4750 
Q 2544 4750 2975 4387 
Q 3406 4025 3406 3419 
Q 3406 3131 3298 2873 
Q 3191 2616 2906 2266 
Q 2828 2175 2409 1742 
Q 1991 1309 1228 531 
z
" transform="scale(0.015625)"/>
        <path id="DejaVuSans-35" d="M 691 4666 
L 3169 4666 
L 3169 4134 
L 1269 4134 
L 1269 2991 
Q 1406 3038 1543 3061 
Q 1681 3084 1819 3084 
Q 2600 3084 3056 2656 
Q 3513 2228 3513 1497 
Q 3513 744 3044 326 
Q 2575 -91 1722 -91 
Q 1428 -91 1123 -41 
Q 819 9 494 109 
L 494 744 
Q 775 591 1075 516 
Q 1375 441 1709 441 
Q 2250 441 2565 725 
Q 2881 1009 2881 1497 
Q 2881 1984 2565 2268 
Q 2250 2553 1709 2553 
Q 1456 2553 1204 2497 
Q 953 2441 691 2322 
L 691 4666 
z
" transform="scale(0.015625)"/>
       </defs>
       <use xlink:href="#DejaVuSans-32"/>
       <use xlink:href="#DejaVuSans-35" transform="translate(63.623047 0)"/>
      </g>
     </g>
    </g>
    <g id="xtick_3">
     <g id="line2d_5">
      <path d="M 221.468563 384.117812 
L 221.468563 23.837812 
" clip-path="url(#p67455137b4)" style="fill: none; stroke: #b0b0b0; stroke-opacity: 0.2; stroke-width: 0.6; stroke-linecap: square"/>
     </g>
     <g id="line2d_6">
      <g>
       <use xlink:href="#m09888ad379" x="221.468563" y="384.117812" style="stroke: #000000; stroke-width: 0.8"/>
      </g>
     </g>
     <g id="text_3">
      <!-- 50 -->
      <g transform="translate(214.469813 399.476094) scale(0.11 -0.11)">
       <use xlink:href="#DejaVuSans-35"/>
       <use xlink:href="#DejaVuSans-30" transform="translate(63.623047 0)"/>
      </g>
     </g>
    </g>
    <g id="xtick_4">
     <g id="line2d_7">
      <path d="M 308.549251 384.117812 
L 308.549251 23.837812 
" clip-path="url(#p67455137b4)" style="fill: none; stroke: #b0b0b0; stroke-opacity: 0.2; stroke-width: 0.6; stroke-linecap: square"/>
     </g>
     <g id="line2d_8">
      <g>
       <use xlink:href="#m09888ad379" x="308.549251" y="384.117812" style="stroke: #000000; stroke-width: 0.8"/>
      </g>
     </g>
     <g id="text_4">
      <!-- 75 -->
      <g transform="translate(301.550501 399.476094) scale(0.11 -0.11)">
       <defs>
        <path id="DejaVuSans-37" d="M 525 4666 
L 3525 4666 
L 3525 4397 
L 1831 0 
L 1172 0 
L 2766 4134 
L 525 4134 
L 525 4666 
z
" transform="scale(0.015625)"/>
       </defs>
       <use xlink:href="#DejaVuSans-37"/>
       <use xlink:href="#DejaVuSans-35" transform="translate(63.623047 0)"/>
      </g>
     </g>
    </g>
    <g id="xtick_5">
     <g id="line2d_9">
      <path d="M 395.629939 384.117812 
L 395.629939 23.837812 
" clip-path="url(#p67455137b4)" style="fill: none; stroke: #b0b0b0; stroke-opacity: 0.2; stroke-width: 0.6; stroke-linecap: square"/>
     </g>
     <g id="line2d_10">
      <g>
       <use xlink:href="#m09888ad379" x="395.629939" y="384.117812" style="stroke: #000000; stroke-width: 0.8"/>
      </g>
     </g>
     <g id="text_5">
      <!-- 100 -->
      <g transform="translate(385.131814 399.476094) scale(0.11 -0.11)">
       <defs>
        <path id="DejaVuSans-31" d="M 794 531 
L 1825 531 
L 1825 4091 
L 703 3866 
L 703 4441 
L 1819 4666 
L 2450 4666 
L 2450 531 
L 3481 531 
L 3481 0 
L 794 0 
L 794 531 
z
" transform="scale(0.015625)"/>
       </defs>
       <use xlink:href="#DejaVuSans-31"/>
       <use xlink:href="#DejaVuSans-30" transform="translate(63.623047 0)"/>
       <use xlink:href="#DejaVuSans-30" transform="translate(127.246094 0)"/>
      </g>
     </g>
    </g>
    <g id="xtick_6">
     <g id="line2d_11">
      <path d="M 482.710627 384.117812 
L 482.710627 23.837812 
" clip-path="url(#p67455137b4)" style="fill: none; stroke: #b0b0b0; stroke-opacity: 0.2; stroke-width: 0.6; stroke-linecap: square"/>
     </g>
     <g id="line2d_12">
      <g>
       <use xlink:href="#m09888ad379" x="482.710627" y="384.117812" style="stroke: #000000; stroke-width: 0.8"/>
      </g>
     </g>
     <g id="text_6">
      <!-- 125 -->
      <g transform="translate(472.212502 399.476094) scale(0.11 -0.11)">
       <use xlink:href="#DejaVuSans-31"/>
       <use xlink:href="#DejaVuSans-32" transform="translate(63.623047 0)"/>
       <use xlink:href="#DejaVuSans-35" transform="translate(127.246094 0)"/>
      </g>
     </g>
    </g>
    <g id="xtick_7">
     <g id="line2d_13">
      <path d="M 569.791314 384.117812 
L 569.791314 23.837812 
" clip-path="url(#p67455137b4)" style="fill: none; stroke: #b0b0b0; stroke-opacity: 0.2; stroke-width: 0.6; stroke-linecap: square"/>
     </g>
     <g id="line2d_14">
      <g>
       <use xlink:href="#m09888ad379" x="569.791314" y="384.117812" style="stroke: #000000; stroke-width: 0.8"/>
      </g>
     </g>
     <g id="text_7">
      <!-- 150 -->
      <g transform="translate(559.293189 399.476094) scale(0.11 -0.11)">
       <use xlink:href="#DejaVuSans-31"/>
       <use xlink:href="#DejaVuSans-35" transform="translate(63.623047 0)"/>
       <use xlink:href="#DejaVuSans-30" transform="translate(127.246094 0)"/>
      </g>
     </g>
    </g>
    <g id="xtick_8">
     <g id="line2d_15">
      <path d="M 656.872002 384.117812 
L 656.872002 23.837812 
" clip-path="url(#p67455137b4)" style="fill: none; stroke: #b0b0b0; stroke-opacity: 0.2; stroke-width: 0.6; stroke-linecap: square"/>
     </g>
     <g id="line2d_16">
      <g>
       <use xlink:href="#m09888ad379" x="656.872002" y="384.117812" style="stroke: #000000; stroke-width: 0.8"/>
      </g>
     </g>
     <g id="text_8">
      <!-- 175 -->
      <g transform="translate(646.373877 399.476094) scale(0.11 -0.11)">
       <use xlink:href="#DejaVuSans-31"/>
       <use xlink:href="#DejaVuSans-37" transform="translate(63.623047 0)"/>
       <use xlink:href="#DejaVuSans-35" transform="translate(127.246094 0)"/>
      </g>
     </g>
    </g>
    <g id="text_9">
     <!-- Time (s) -->
     <g transform="translate(352.0775 414.881875) scale(0.12 -0.12)">
      <defs>
       <path id="DejaVuSans-54" d="M -19 4666 
L 3928 4666 
L 3928 4134 
L 2272 4134 
L 2272 0 
L 1638 0 
L 1638 4134 
L -19 4134 
L -19 4666 
z
" transform="scale(0.015625)"/>
       <path id="DejaVuSans-69" d="M 603 3500 
L 1178 3500 
L 1178 0 
L 603 0 
L 603 3500 
z
M 603 4863 
L 1178 4863 
L 1178 4134 
L 603 4134 
L 603 4863 
z
" transform="scale(0.015625)"/>
       <path id="DejaVuSans-6d" d="M 3328 2828 
Q 3544 3216 3844 3400 
Q 4144 3584 4550 3584 
Q 5097 3584 5394 3201 
Q 5691 2819 5691 2113 
L 5691 0 
L 5113 0 
L 5113 2094 
Q 5113 2597 4934 2840 
Q 4756 3084 4391 3084 
Q 3944 3084 3684 2787 
Q 3425 2491 3425 1978 
L 3425 0 
L 2847 0 
L 2847 2094 
Q 2847 2600 2669 2842 
Q 2491 3084 2119 3084 
Q 1678 3084 1418 2786 
Q 1159 2488 1159 1978 
L 1159 0 
L 581 0 
L 581 3500 
L 1159 3500 
L 1159 2956 
Q 1356 3278 1631 3431 
Q 1906 3584 2284 3584 
Q 2666 3584 2933 3390 
Q 3200 3197 3328 2828 
z
" transform="scale(0.015625)"/>
       <path id="DejaVuSans-65" d="M 3597 1894 
L 3597 1613 
L 953 1613 
Q 991 1019 1311 708 
Q 1631 397 2203 397 
Q 2534 397 2845 478 
Q 3156 559 3463 722 
L 3463 178 
Q 3153 47 2828 -22 
Q 2503 -91 2169 -91 
Q 1331 -91 842 396 
Q 353 884 353 1716 
Q 353 2575 817 3079 
Q 1281 3584 2069 3584 
Q 2775 3584 3186 3129 
Q 3597 2675 3597 1894 
z
M 3022 2063 
Q 3016 2534 2758 2815 
Q 2500 3097 2075 3097 
Q 1594 3097 1305 2825 
Q 1016 2553 972 2059 
L 3022 2063 
z
" transform="scale(0.015625)"/>
       <path id="DejaVuSans-20" transform="scale(0.015625)"/>
       <path id="DejaVuSans-28" d="M 1984 4856 
Q 1566 4138 1362 3434 
Q 1159 2731 1159 2009 
Q 1159 1288 1364 580 
Q 1569 -128 1984 -844 
L 1484 -844 
Q 1016 -109 783 600 
Q 550 1309 550 2009 
Q 550 2706 781 3412 
Q 1013 4119 1484 4856 
L 1984 4856 
z
" transform="scale(0.015625)"/>
       <path id="DejaVuSans-73" d="M 2834 3397 
L 2834 2853 
Q 2591 2978 2328 3040 
Q 2066 3103 1784 3103 
Q 1356 3103 1142 2972 
Q 928 2841 928 2578 
Q 928 2378 1081 2264 
Q 1234 2150 1697 2047 
L 1894 2003 
Q 2506 1872 2764 1633 
Q 3022 1394 3022 966 
Q 3022 478 2636 193 
Q 2250 -91 1575 -91 
Q 1294 -91 989 -36 
Q 684 19 347 128 
L 347 722 
Q 666 556 975 473 
Q 1284 391 1588 391 
Q 1994 391 2212 530 
Q 2431 669 2431 922 
Q 2431 1156 2273 1281 
Q 2116 1406 1581 1522 
L 1381 1569 
Q 847 1681 609 1914 
Q 372 2147 372 2553 
Q 372 3047 722 3315 
Q 1072 3584 1716 3584 
Q 2034 3584 2315 3537 
Q 2597 3491 2834 3397 
z
" transform="scale(0.015625)"/>
       <path id="DejaVuSans-29" d="M 513 4856 
L 1013 4856 
Q 1481 4119 1714 3412 
Q 1947 2706 1947 2009 
Q 1947 1309 1714 600 
Q 1481 -109 1013 -844 
L 513 -844 
Q 928 -128 1133 580 
Q 1338 1288 1338 2009 
Q 1338 2731 1133 3434 
Q 928 4138 513 4856 
z
" transform="scale(0.015625)"/>
      </defs>
      <use xlink:href="#DejaVuSans-54"/>
      <use xlink:href="#DejaVuSans-69" transform="translate(57.958984 0)"/>
      <use xlink:href="#DejaVuSans-6d" transform="translate(85.742188 0)"/>
      <use xlink:href="#DejaVuSans-65" transform="translate(183.154297 0)"/>
      <use xlink:href="#DejaVuSans-20" transform="translate(244.677734 0)"/>
      <use xlink:href="#DejaVuSans-28" transform="translate(276.464844 0)"/>
      <use xlink:href="#DejaVuSans-73" transform="translate(315.478516 0)"/>
      <use xlink:href="#DejaVuSans-29" transform="translate(367.578125 0)"/>
     </g>
    </g>
   </g>
   <g id="matplotlib.axis_2">
    <g id="ytick_1">
     <g id="line2d_17">
      <path d="M 47.307188 367.741449 
L 705.637188 367.741449 
" clip-path="url(#p67455137b4)" style="fill: none; stroke: #b0b0b0; stroke-opacity: 0.2; stroke-width: 0.6; stroke-linecap: square"/>
     </g>
     <g id="line2d_18">
      <defs>
       <path id="ma1bf3a8d36" d="M 0 0 
L -3.5 0 
" style="stroke: #000000; stroke-width: 0.8"/>
      </defs>
      <g>
       <use xlink:href="#ma1bf3a8d36" x="47.307188" y="367.741449" style="stroke: #000000; stroke-width: 0.8"/>
      </g>
     </g>
     <g id="text_10">
      <!-- 0.0 -->
      <g transform="translate(22.81375 371.920589) scale(0.11 -0.11)">
       <defs>
        <path id="DejaVuSans-2e" d="M 684 794 
L 1344 794 
L 1344 0 
L 684 0 
L 684 794 
z
" transform="scale(0.015625)"/>
       </defs>
       <use xlink:href="#DejaVuSans-30"/>
       <use xlink:href="#DejaVuSans-2e" transform="translate(63.623047 0)"/>
       <use xlink:href="#DejaVuSans-30" transform="translate(95.410156 0)"/>
      </g>
     </g>
    </g>
    <g id="ytick_2">
     <g id="line2d_19">
      <path d="M 47.307188 317.507205 
L 705.637188 317.507205 
" clip-path="url(#p67455137b4)" style="fill: none; stroke: #b0b0b0; stroke-opacity: 0.2; stroke-width: 0.6; stroke-linecap: square"/>
     </g>
     <g id="line2d_20">
      <g>
       <use xlink:href="#ma1bf3a8d36" x="47.307188" y="317.507205" style="stroke: #000000; stroke-width: 0.8"/>
      </g>
     </g>
     <g id="text_11">
      <!-- 0.5 -->
      <g transform="translate(22.81375 321.686345) scale(0.11 -0.11)">
       <use xlink:href="#DejaVuSans-30"/>
       <use xlink:href="#DejaVuSans-2e" transform="translate(63.623047 0)"/>
       <use xlink:href="#DejaVuSans-35" transform="translate(95.410156 0)"/>
      </g>
     </g>
    </g>
    <g id="ytick_3">
     <g id="line2d_21">
      <path d="M 47.307188 267.27296 
L 705.637188 267.27296 
" clip-path="url(#p67455137b4)" style="fill: none; stroke: #b0b0b0; stroke-opacity: 0.2; stroke-width: 0.6; stroke-linecap: square"/>
     </g>
     <g id="line2d_22">
      <g>
       <use xlink:href="#ma1bf3a8d36" x="47.307188" y="267.27296" style="stroke: #000000; stroke-width: 0.8"/>
      </g>
     </g>
     <g id="text_12">
      <!-- 1.0 -->
      <g transform="translate(22.81375 271.452101) scale(0.11 -0.11)">
       <use xlink:href="#DejaVuSans-31"/>
       <use xlink:href="#DejaVuSans-2e" transform="translate(63.623047 0)"/>
       <use xlink:href="#DejaVuSans-30" transform="translate(95.410156 0)"/>
      </g>
     </g>
    </g>
    <g id="ytick_4">
     <g id="line2d_23">
      <path d="M 47.307188 217.038716 
L 705.637188 217.038716 
" clip-path="url(#p67455137b4)" style="fill: none; stroke: #b0b0b0; stroke-opacity: 0.2; stroke-width: 0.6; stroke-linecap: square"/>
     </g>
     <g id="line2d_24">
      <g>
       <use xlink:href="#ma1bf3a8d36" x="47.307188" y="217.038716" style="stroke: #000000; stroke-width: 0.8"/>
      </g>
     </g>
     <g id="text_13">
      <!-- 1.5 -->
      <g transform="translate(22.81375 221.217857) scale(0.11 -0.11)">
       <use xlink:href="#DejaVuSans-31"/>
       <use xlink:href="#DejaVuSans-2e" transform="translate(63.623047 0)"/>
       <use xlink:href="#DejaVuSans-35" transform="translate(95.410156 0)"/>
      </g>
     </g>
    </g>
    <g id="ytick_5">
     <g id="line2d_25">
      <path d="M 47.307188 166.804472 
L 705.637188 166.804472 
" clip-path="url(#p67455137b4)" style="fill: none; stroke: #b0b0b0; stroke-opacity: 0.2; stroke-width: 0.6; stroke-linecap: square"/>
     </g>
     <g id="line2d_26">
      <g>
       <use xlink:href="#ma1bf3a8d36" x="47.307188" y="166.804472" style="stroke: #000000; stroke-width: 0.8"/>
      </g>
     </g>
     <g id="text_14">
      <!-- 2.0 -->
      <g transform="translate(22.81375 170.983612) scale(0.11 -0.11)">
       <use xlink:href="#DejaVuSans-32"/>
       <use xlink:href="#DejaVuSans-2e" transform="translate(63.623047 0)"/>
       <use xlink:href="#DejaVuSans-30" transform="translate(95.410156 0)"/>
      </g>
     </g>
    </g>
    <g id="ytick_6">
     <g id="line2d_27">
      <path d="M 47.307188 116.570227 
L 705.637188 116.570227 
" clip-path="url(#p67455137b4)" style="fill: none; stroke: #b0b0b0; stroke-opacity: 0.2; stroke-width: 0.6; stroke-linecap: square"/>
     </g>
     <g id="line2d_28">
      <g>
       <use xlink:href="#ma1bf3a8d36" x="47.307188" y="116.570227" style="stroke: #000000; stroke-width: 0.8"/>
      </g>
     </g>
     <g id="text_15">
      <!-- 2.5 -->
      <g transform="translate(22.81375 120.749368) scale(0.11 -0.11)">
       <use xlink:href="#DejaVuSans-32"/>
       <use xlink:href="#DejaVuSans-2e" transform="translate(63.623047 0)"/>
       <use xlink:href="#DejaVuSans-35" transform="translate(95.410156 0)"/>
      </g>
     </g>
    </g>
    <g id="ytick_7">
     <g id="line2d_29">
      <path d="M 47.307188 66.335983 
L 705.637188 66.335983 
" clip-path="url(#p67455137b4)" style="fill: none; stroke: #b0b0b0; stroke-opacity: 0.2; stroke-width: 0.6; stroke-linecap: square"/>
     </g>
     <g id="line2d_30">
      <g>
       <use xlink:href="#ma1bf3a8d36" x="47.307188" y="66.335983" style="stroke: #000000; stroke-width: 0.8"/>
      </g>
     </g>
     <g id="text_16">
      <!-- 3.0 -->
      <g transform="translate(22.81375 70.515124) scale(0.11 -0.11)">
       <defs>
        <path id="DejaVuSans-33" d="M 2597 2516 
Q 3050 2419 3304 2112 
Q 3559 1806 3559 1356 
Q 3559 666 3084 287 
Q 2609 -91 1734 -91 
Q 1441 -91 1130 -33 
Q 819 25 488 141 
L 488 750 
Q 750 597 1062 519 
Q 1375 441 1716 441 
Q 2309 441 2620 675 
Q 2931 909 2931 1356 
Q 2931 1769 2642 2001 
Q 2353 2234 1838 2234 
L 1294 2234 
L 1294 2753 
L 1863 2753 
Q 2328 2753 2575 2939 
Q 2822 3125 2822 3475 
Q 2822 3834 2567 4026 
Q 2313 4219 1838 4219 
Q 1578 4219 1281 4162 
Q 984 4106 628 3988 
L 628 4550 
Q 988 4650 1302 4700 
Q 1616 4750 1894 4750 
Q 2613 4750 3031 4423 
Q 3450 4097 3450 3541 
Q 3450 3153 3228 2886 
Q 3006 2619 2597 2516 
z
" transform="scale(0.015625)"/>
       </defs>
       <use xlink:href="#DejaVuSans-33"/>
       <use xlink:href="#DejaVuSans-2e" transform="translate(63.623047 0)"/>
       <use xlink:href="#DejaVuSans-30" transform="translate(95.410156 0)"/>
      </g>
     </g>
    </g>
    <g id="text_17">
     <!-- AU mean intensity -->
     <g transform="translate(16.318125 259.314687) rotate(-90) scale(0.12 -0.12)">
      <defs>
       <path id="DejaVuSans-41" d="M 2188 4044 
L 1331 1722 
L 3047 1722 
L 2188 4044 
z
M 1831 4666 
L 2547 4666 
L 4325 0 
L 3669 0 
L 3244 1197 
L 1141 1197 
L 716 0 
L 50 0 
L 1831 4666 
z
" transform="scale(0.015625)"/>
       <path id="DejaVuSans-55" d="M 556 4666 
L 1191 4666 
L 1191 1831 
Q 1191 1081 1462 751 
Q 1734 422 2344 422 
Q 2950 422 3222 751 
Q 3494 1081 3494 1831 
L 3494 4666 
L 4128 4666 
L 4128 1753 
Q 4128 841 3676 375 
Q 3225 -91 2344 -91 
Q 1459 -91 1007 375 
Q 556 841 556 1753 
L 556 4666 
z
" transform="scale(0.015625)"/>
       <path id="DejaVuSans-61" d="M 2194 1759 
Q 1497 1759 1228 1600 
Q 959 1441 959 1056 
Q 959 750 1161 570 
Q 1363 391 1709 391 
Q 2188 391 2477 730 
Q 2766 1069 2766 1631 
L 2766 1759 
L 2194 1759 
z
M 3341 1997 
L 3341 0 
L 2766 0 
L 2766 531 
Q 2569 213 2275 61 
Q 1981 -91 1556 -91 
Q 1019 -91 701 211 
Q 384 513 384 1019 
Q 384 1609 779 1909 
Q 1175 2209 1959 2209 
L 2766 2209 
L 2766 2266 
Q 2766 2663 2505 2880 
Q 2244 3097 1772 3097 
Q 1472 3097 1187 3025 
Q 903 2953 641 2809 
L 641 3341 
Q 956 3463 1253 3523 
Q 1550 3584 1831 3584 
Q 2591 3584 2966 3190 
Q 3341 2797 3341 1997 
z
" transform="scale(0.015625)"/>
       <path id="DejaVuSans-6e" d="M 3513 2113 
L 3513 0 
L 2938 0 
L 2938 2094 
Q 2938 2591 2744 2837 
Q 2550 3084 2163 3084 
Q 1697 3084 1428 2787 
Q 1159 2491 1159 1978 
L 1159 0 
L 581 0 
L 581 3500 
L 1159 3500 
L 1159 2956 
Q 1366 3272 1645 3428 
Q 1925 3584 2291 3584 
Q 2894 3584 3203 3211 
Q 3513 2838 3513 2113 
z
" transform="scale(0.015625)"/>
       <path id="DejaVuSans-74" d="M 1172 4494 
L 1172 3500 
L 2356 3500 
L 2356 3053 
L 1172 3053 
L 1172 1153 
Q 1172 725 1289 603 
Q 1406 481 1766 481 
L 2356 481 
L 2356 0 
L 1766 0 
Q 1100 0 847 248 
Q 594 497 594 1153 
L 594 3053 
L 172 3053 
L 172 3500 
L 594 3500 
L 594 4494 
L 1172 4494 
z
" transform="scale(0.015625)"/>
       <path id="DejaVuSans-79" d="M 2059 -325 
Q 1816 -950 1584 -1140 
Q 1353 -1331 966 -1331 
L 506 -1331 
L 506 -850 
L 844 -850 
Q 1081 -850 1212 -737 
Q 1344 -625 1503 -206 
L 1606 56 
L 191 3500 
L 800 3500 
L 1894 763 
L 2988 3500 
L 3597 3500 
L 2059 -325 
z
" transform="scale(0.015625)"/>
      </defs>
      <use xlink:href="#DejaVuSans-41"/>
      <use xlink:href="#DejaVuSans-55" transform="translate(68.408203 0)"/>
      <use xlink:href="#DejaVuSans-20" transform="translate(141.601562 0)"/>
      <use xlink:href="#DejaVuSans-6d" transform="translate(173.388672 0)"/>
      <use xlink:href="#DejaVuSans-65" transform="translate(270.800781 0)"/>
      <use xlink:href="#DejaVuSans-61" transform="translate(332.324219 0)"/>
      <use xlink:href="#DejaVuSans-6e" transform="translate(393.603516 0)"/>
      <use xlink:href="#DejaVuSans-20" transform="translate(456.982422 0)"/>
      <use xlink:href="#DejaVuSans-69" transform="translate(488.769531 0)"/>
      <use xlink:href="#DejaVuSans-6e" transform="translate(516.552734 0)"/>
      <use xlink:href="#DejaVuSans-74" transform="translate(579.931641 0)"/>
      <use xlink:href="#DejaVuSans-65" transform="translate(619.140625 0)"/>
      <use xlink:href="#DejaVuSans-6e" transform="translate(680.664062 0)"/>
      <use xlink:href="#DejaVuSans-73" transform="translate(744.042969 0)"/>
      <use xlink:href="#DejaVuSans-69" transform="translate(796.142578 0)"/>
      <use xlink:href="#DejaVuSans-74" transform="translate(823.925781 0)"/>
      <use xlink:href="#DejaVuSans-79" transform="translate(863.134766 0)"/>
     </g>
    </g>
   </g>
   <g id="FillBetweenPolyCollection_1">
    <defs>
     <path id="me4b3273e24" d="M 47.307188 -198.804995 
L 47.307188 5.406961 
L 50.790415 -6.560651 
L 54.273643 -23.278346 
L 57.75687 -19.095481 
L 61.240098 -24.296756 
L 64.723325 -23.489813 
L 68.206553 -23.190783 
L 71.68978 -27.180031 
L 75.173008 -22.213504 
L 78.656235 -24.832705 
L 82.139463 -24.077173 
L 85.62269 -23.538107 
L 89.105918 -21.812534 
L 92.589145 -25.118843 
L 96.072373 -23.867736 
L 99.5556 -27.309431 
L 103.038828 -25.131578 
L 106.522055 -25.036694 
L 110.005283 -22.9926 
L 113.48851 -18.723128 
L 116.971738 -19.273542 
L 120.454965 -22.676904 
L 123.938193 -19.022806 
L 127.42142 -20.892871 
L 130.904648 -22.640744 
L 134.387875 -18.27496 
L 137.871103 -21.663397 
L 141.35433 -23.127409 
L 144.837558 -22.1668 
L 148.320785 -20.964944 
L 151.804013 -18.176529 
L 155.28724 -18.751622 
L 158.770468 -17.731095 
L 162.253695 -21.08549 
L 165.736923 -17.17298 
L 169.22015 -22.279393 
L 172.703378 -24.724096 
L 176.186605 -26.744459 
L 179.669833 -22.883481 
L 183.153061 -19.690974 
L 186.636288 -26.477105 
L 190.119516 -28.291866 
L 193.602743 -25.511611 
L 197.085971 -33.461138 
L 200.569198 -40.243348 
L 204.052426 -31.983048 
L 207.535653 -29.977744 
L 211.018881 -17.533768 
L 214.502108 -14.453355 
L 217.985336 -10.614078 
L 221.468563 -15.798053 
L 224.951791 -21.626757 
L 228.435018 -39.221667 
L 231.918246 -31.827962 
L 235.401473 -25.282057 
L 238.884701 -29.244203 
L 242.367928 -22.520353 
L 245.851156 -27.720226 
L 249.334383 -21.105556 
L 252.817611 -22.152892 
L 256.300838 -15.581961 
L 259.784066 -14.062669 
L 263.267293 -27.450853 
L 266.750521 -8.218371 
L 270.233748 -6.206134 
L 273.716976 -17.901162 
L 277.200203 -18.744419 
L 280.683431 -19.402698 
L 284.166658 -19.061268 
L 287.649886 -16.107875 
L 291.133113 -16.878514 
L 294.616341 -13.600095 
L 298.099568 -19.857712 
L 301.582796 -14.995474 
L 305.066023 -19.120748 
L 308.549251 -15.007884 
L 312.032479 -15.396157 
L 315.515706 -7.455973 
L 318.998934 -2.569834 
L 322.482161 5.316638 
L 325.965389 3.848864 
L 329.448616 -1.600221 
L 332.931844 -0.142257 
L 336.415071 -1.150922 
L 339.898299 -2.076481 
L 343.381526 -5.187186 
L 346.864754 -3.853806 
L 350.347981 -4.638356 
L 353.831209 -7.228236 
L 357.314436 -7.009504 
L 360.797664 -5.453218 
L 364.280891 -3.529692 
L 367.764119 -3.832317 
L 371.247346 -8.780093 
L 374.730574 -9.532435 
L 378.213801 -14.495785 
L 381.697029 -4.443315 
L 385.180256 -14.652253 
L 388.663484 -12.78233 
L 392.146711 -11.559704 
L 395.629939 -16.889637 
L 399.113166 -6.269072 
L 402.596394 -0.908742 
L 406.079621 -2.795336 
L 409.562849 -4.265566 
L 413.046076 -3.868187 
L 416.529304 -8.775224 
L 420.012531 -14.261882 
L 423.495759 -27.844754 
L 426.978986 -17.89874 
L 430.462214 -16.792404 
L 433.945441 -11.265511 
L 437.428669 -11.526725 
L 440.911896 -4.024717 
L 444.395124 -19.79238 
L 447.878352 -17.924667 
L 451.361579 -11.036555 
L 454.844807 -18.862718 
L 458.328034 -22.098759 
L 461.811262 -20.519155 
L 465.294489 -17.449772 
L 468.777717 -15.193197 
L 472.260944 -28.418964 
L 475.744172 -36.243254 
L 479.227399 -27.8 
L 482.710627 -8.925433 
L 486.193854 6.363726 
L 489.677082 2.270626 
L 493.160309 -5.367016 
L 496.643537 0.413586 
L 500.126764 1.15976 
L 503.609992 1.451952 
L 507.093219 2.310756 
L 510.576447 2.932524 
L 514.059674 9.613981 
L 517.542902 7.568352 
L 521.026129 9.194483 
L 524.509357 1.160069 
L 527.992584 5.416741 
L 531.475812 -0.997286 
L 534.959039 2.227776 
L 538.442267 9.333779 
L 541.925494 9.867972 
L 545.408722 10.76118 
L 548.891949 12.192854 
L 552.375177 8.487495 
L 555.858404 2.091666 
L 559.341632 1.443928 
L 562.824859 -0.845986 
L 566.308087 2.186506 
L 569.791314 2.552537 
L 573.274542 -1.374876 
L 576.75777 -3.808961 
L 580.240997 -7.174846 
L 583.724225 -5.537635 
L 587.207452 1.128123 
L 590.69068 -12.393096 
L 594.173907 -13.218153 
L 597.657135 -5.277371 
L 601.140362 -22.035936 
L 604.62359 -33.595183 
L 608.106817 -18.676846 
L 611.590045 -4.870103 
L 615.073272 -0.740981 
L 618.5565 3.902093 
L 622.039727 10.002072 
L 625.522955 10.36872 
L 629.006182 9.052209 
L 632.48941 6.482093 
L 635.972637 13.177597 
L 639.455865 16.667841 
L 642.939092 9.895023 
L 646.42232 -6.733595 
L 649.905547 -2.451116 
L 653.388775 -0.915694 
L 656.872002 -3.151371 
L 660.35523 -4.423598 
L 663.838457 5.067312 
L 667.321685 1.979724 
L 670.804912 2.232033 
L 674.28814 2.992875 
L 677.771367 1.207052 
L 681.254595 3.348052 
L 684.737822 0.299602 
L 688.22105 1.532547 
L 691.704277 -143.842504 
L 695.187505 -136.811002 
L 698.670732 -142.528683 
L 702.15396 -135.817269 
L 705.637188 -159.544607 
L 705.637188 -170.995904 
L 705.637188 -170.995904 
L 702.15396 -176.39353 
L 698.670732 -151.588289 
L 695.187505 -168.561458 
L 691.704277 -158.138725 
L 688.22105 -186.318609 
L 684.737822 -180.379065 
L 681.254595 -184.874194 
L 677.771367 -181.303838 
L 674.28814 -182.277382 
L 670.804912 -180.735181 
L 667.321685 -179.892242 
L 663.838457 -192.560657 
L 660.35523 -184.227165 
L 656.872002 -186.368666 
L 653.388775 -182.565803 
L 649.905547 -184.67269 
L 646.42232 -191.715546 
L 642.939092 -199.334224 
L 639.455865 -212.950969 
L 635.972637 -204.042988 
L 632.48941 -196.737111 
L 629.006182 -196.984382 
L 625.522955 -200.288843 
L 622.039727 -199.920518 
L 618.5565 -190.419251 
L 615.073272 -180.487519 
L 611.590045 -172.064738 
L 608.106817 -156.350323 
L 604.62359 -170.903674 
L 601.140362 -179.603834 
L 597.657135 -175.222481 
L 594.173907 -166.018299 
L 590.69068 -172.460391 
L 587.207452 -181.340389 
L 583.724225 -167.610733 
L 580.240997 -162.713417 
L 576.75777 -169.198967 
L 573.274542 -178.623751 
L 569.791314 -181.561566 
L 566.308087 -181.145804 
L 562.824859 -177.531064 
L 559.341632 -178.214861 
L 555.858404 -181.230332 
L 552.375177 -192.533732 
L 548.891949 -200.454707 
L 545.408722 -197.821472 
L 541.925494 -202.872369 
L 538.442267 -194.702274 
L 534.959039 -183.888957 
L 531.475812 -173.388964 
L 527.992584 -187.158945 
L 524.509357 -177.642299 
L 521.026129 -196.084346 
L 517.542902 -196.545629 
L 514.059674 -196.930565 
L 510.576447 -182.024625 
L 507.093219 -180.423131 
L 503.609992 -184.06045 
L 500.126764 -179.407173 
L 496.643537 -177.848534 
L 493.160309 -178.611423 
L 489.677082 -186.928912 
L 486.193854 -194.576965 
L 482.710627 -181.616611 
L 479.227399 -155.848945 
L 475.744172 -149.841223 
L 472.260944 -142.061047 
L 468.777717 -157.345356 
L 465.294489 -165.545587 
L 461.811262 -159.635371 
L 458.328034 -138.210167 
L 454.844807 -165.316322 
L 451.361579 -184.193273 
L 447.878352 -168.471609 
L 444.395124 -152.399916 
L 440.911896 -177.4001 
L 437.428669 -160.552139 
L 433.945441 -162.797392 
L 430.462214 -151.148886 
L 426.978986 -143.339995 
L 423.495759 -146.292093 
L 420.012531 -156.36546 
L 416.529304 -174.565833 
L 413.046076 -176.332531 
L 409.562849 -170.298002 
L 406.079621 -173.617605 
L 402.596394 -178.942926 
L 399.113166 -175.871728 
L 395.629939 -170.367531 
L 392.146711 -176.401339 
L 388.663484 -165.718955 
L 385.180256 -159.248976 
L 381.697029 -167.025175 
L 378.213801 -147.349225 
L 374.730574 -158.549296 
L 371.247346 -160.224741 
L 367.764119 -168.025084 
L 364.280891 -169.707521 
L 360.797664 -168.537789 
L 357.314436 -160.834745 
L 353.831209 -161.269412 
L 350.347981 -168.021452 
L 346.864754 -168.05761 
L 343.381526 -168.529273 
L 339.898299 -173.891486 
L 336.415071 -173.021687 
L 332.931844 -175.701474 
L 329.448616 -173.935064 
L 325.965389 -185.591068 
L 322.482161 -190.379108 
L 318.998934 -171.621029 
L 315.515706 -161.346769 
L 312.032479 -143.367931 
L 308.549251 -145.740057 
L 305.066023 -141.965999 
L 301.582796 -143.789289 
L 298.099568 -134.887636 
L 294.616341 -149.359307 
L 291.133113 -144.424295 
L 287.649886 -142.503667 
L 284.166658 -139.800048 
L 280.683431 -135.455711 
L 277.200203 -137.032622 
L 273.716976 -139.792305 
L 270.233748 -164.25227 
L 266.750521 -159.394916 
L 263.267293 -120.850468 
L 259.784066 -144.722094 
L 256.300838 -147.038821 
L 252.817611 -132.422588 
L 249.334383 -138.398543 
L 245.851156 -133.478091 
L 242.367928 -141.499425 
L 238.884701 -137.462558 
L 235.401473 -133.903351 
L 231.918246 -137.119131 
L 228.435018 -135.579569 
L 224.951791 -134.848386 
L 221.468563 -143.760061 
L 217.985336 -153.488586 
L 214.502108 -149.101892 
L 211.018881 -150.016005 
L 207.535653 -129.223869 
L 204.052426 -114.144995 
L 200.569198 -99.869252 
L 197.085971 -121.443463 
L 193.602743 -136.325949 
L 190.119516 -125.047967 
L 186.636288 -129.429573 
L 183.153061 -135.704422 
L 179.669833 -132.034717 
L 176.186605 -133.888 
L 172.703378 -129.8376 
L 169.22015 -129.293581 
L 165.736923 -143.46544 
L 162.253695 -137.433667 
L 158.770468 -140.271377 
L 155.28724 -139.588539 
L 151.804013 -141.446403 
L 148.320785 -132.807943 
L 144.837558 -133.399582 
L 141.35433 -133.203382 
L 137.871103 -133.17918 
L 134.387875 -140.815827 
L 130.904648 -140.698442 
L 127.42142 -136.511894 
L 123.938193 -139.330766 
L 120.454965 -131.211464 
L 116.971738 -136.233423 
L 113.48851 -137.769337 
L 110.005283 -132.17947 
L 106.522055 -132.356523 
L 103.038828 -124.196035 
L 99.5556 -124.852495 
L 96.072373 -128.074218 
L 92.589145 -125.512961 
L 89.105918 -129.821533 
L 85.62269 -128.59495 
L 82.139463 -135.30269 
L 78.656235 -124.257427 
L 75.173008 -129.777063 
L 71.68978 -125.813359 
L 68.206553 -132.251363 
L 64.723325 -127.396049 
L 61.240098 -135.439608 
L 57.75687 -148.333037 
L 54.273643 -135.507349 
L 50.790415 -161.774392 
L 47.307188 -198.804995 
z
" style="stroke: #d3d3d3; stroke-opacity: 0.5"/>
    </defs>
    <g clip-path="url(#p67455137b4)">
     <use xlink:href="#me4b3273e24" x="0" y="424.5775" style="fill: #d3d3d3; fill-opacity: 0.5; stroke: #d3d3d3; stroke-opacity: 0.5"/>
    </g>
   </g>
   <g id="FillBetweenPolyCollection_2">
    <defs>
     <path id="m2aeed59ae8" d="M 47.307188 -147.752006 
L 47.307188 -45.646028 
L 50.790415 -45.364087 
L 54.273643 -51.335596 
L 57.75687 -51.40487 
L 61.240098 -52.082469 
L 64.723325 -49.466372 
L 68.206553 -50.455928 
L 71.68978 -51.838363 
L 75.173008 -49.104394 
L 78.656235 -49.688885 
L 82.139463 -51.883552 
L 85.62269 -49.802317 
L 89.105918 -48.814784 
L 92.589145 -50.217372 
L 96.072373 -49.919356 
L 99.5556 -51.695197 
L 103.038828 -49.897692 
L 106.522055 -51.866651 
L 110.005283 -50.289317 
L 113.48851 -48.48468 
L 116.971738 -48.513512 
L 120.454965 -49.810544 
L 123.938193 -49.099796 
L 127.42142 -49.797627 
L 130.904648 -52.155168 
L 134.387875 -48.910177 
L 137.871103 -49.542342 
L 141.35433 -50.646403 
L 144.837558 -49.974995 
L 148.320785 -48.925694 
L 151.804013 -48.993998 
L 155.28724 -48.960851 
L 158.770468 -48.366166 
L 162.253695 -50.172534 
L 165.736923 -48.746095 
L 169.22015 -49.03294 
L 172.703378 -51.002472 
L 176.186605 -53.530345 
L 179.669833 -50.17129 
L 183.153061 -48.694336 
L 186.636288 -52.215222 
L 190.119516 -52.480891 
L 193.602743 -53.215195 
L 197.085971 -55.456719 
L 200.569198 -55.149824 
L 204.052426 -52.523535 
L 207.535653 -54.789275 
L 211.018881 -50.654327 
L 214.502108 -48.115489 
L 217.985336 -46.332705 
L 221.468563 -47.788555 
L 224.951791 -49.932164 
L 228.435018 -63.311142 
L 231.918246 -58.150754 
L 235.401473 -52.437381 
L 238.884701 -56.298792 
L 242.367928 -52.265121 
L 245.851156 -54.159692 
L 249.334383 -50.428802 
L 252.817611 -49.720316 
L 256.300838 -48.446176 
L 259.784066 -46.727525 
L 263.267293 -50.800757 
L 266.750521 -46.012507 
L 270.233748 -45.717668 
L 273.716976 -48.373948 
L 277.200203 -48.31647 
L 280.683431 -48.415951 
L 284.166658 -49.245963 
L 287.649886 -47.706823 
L 291.133113 -48.764959 
L 294.616341 -47.539898 
L 298.099568 -48.615193 
L 301.582796 -47.193928 
L 305.066023 -49.832061 
L 308.549251 -47.690927 
L 312.032479 -47.389101 
L 315.515706 -45.928672 
L 318.998934 -44.832633 
L 322.482161 -43.607298 
L 325.965389 -43.511119 
L 329.448616 -44.683932 
L 332.931844 -44.032061 
L 336.415071 -44.118613 
L 339.898299 -45.030232 
L 343.381526 -46.022708 
L 346.864754 -44.904757 
L 350.347981 -45.48413 
L 353.831209 -45.73853 
L 357.314436 -45.465815 
L 360.797664 -46.22436 
L 364.280891 -45.074149 
L 367.764119 -44.880509 
L 371.247346 -46.641255 
L 374.730574 -46.78665 
L 378.213801 -47.709145 
L 381.697029 -45.08878 
L 385.180256 -50.801434 
L 388.663484 -51.016486 
L 392.146711 -52.770113 
L 395.629939 -55.25911 
L 399.113166 -48.669736 
L 402.596394 -45.417288 
L 406.079621 -45.500903 
L 409.562849 -45.773675 
L 413.046076 -46.984273 
L 416.529304 -50.222876 
L 420.012531 -49.787776 
L 423.495759 -57.456589 
L 426.978986 -49.259053 
L 430.462214 -50.381525 
L 433.945441 -49.148481 
L 437.428669 -48.783079 
L 440.911896 -47.368563 
L 444.395124 -52.944264 
L 447.878352 -55.561402 
L 451.361579 -54.325735 
L 454.844807 -55.476119 
L 458.328034 -51.126611 
L 461.811262 -55.298209 
L 465.294489 -54.473726 
L 468.777717 -50.731237 
L 472.260944 -56.829484 
L 475.744172 -64.642746 
L 479.227399 -59.812236 
L 482.710627 -52.098227 
L 486.193854 -43.871447 
L 489.677082 -45.029259 
L 493.160309 -48.678117 
L 496.643537 -44.151944 
L 500.126764 -43.981973 
L 503.609992 -44.926148 
L 507.093219 -43.372716 
L 510.576447 -43.306763 
L 514.059674 -42.022156 
L 517.542902 -43.460143 
L 521.026129 -42.125225 
L 524.509357 -43.540523 
L 527.992584 -42.727181 
L 531.475812 -44.095205 
L 534.959039 -44.301407 
L 538.442267 -41.675234 
L 541.925494 -43.317113 
L 545.408722 -41.384483 
L 548.891949 -40.969036 
L 552.375177 -41.767812 
L 555.858404 -43.738834 
L 559.341632 -43.470769 
L 562.824859 -45.017255 
L 566.308087 -43.646571 
L 569.791314 -43.475989 
L 573.274542 -45.687095 
L 576.75777 -45.156462 
L 580.240997 -46.059489 
L 583.724225 -46.055909 
L 587.207452 -44.489005 
L 590.69068 -52.409919 
L 594.173907 -51.41819 
L 597.657135 -47.763649 
L 601.140362 -61.427911 
L 604.62359 -67.922306 
L 608.106817 -53.095215 
L 611.590045 -46.668762 
L 615.073272 -45.677615 
L 618.5565 -44.678243 
L 622.039727 -42.478576 
L 625.522955 -42.295671 
L 629.006182 -42.456939 
L 632.48941 -44.322708 
L 635.972637 -41.127549 
L 639.455865 -40.736861 
L 642.939092 -42.412288 
L 646.42232 -52.979083 
L 649.905547 -48.00651 
L 653.388775 -46.328222 
L 656.872002 -48.955695 
L 660.35523 -49.37449 
L 663.838457 -44.33968 
L 667.321685 -43.488267 
L 670.804912 -43.50977 
L 674.28814 -43.324689 
L 677.771367 -44.42067 
L 681.254595 -43.70751 
L 684.737822 -44.870065 
L 688.22105 -45.430242 
L 691.704277 -147.41656 
L 695.187505 -144.748616 
L 698.670732 -144.793584 
L 702.15396 -145.961334 
L 705.637188 -162.407432 
L 705.637188 -168.13308 
L 705.637188 -168.13308 
L 702.15396 -166.249465 
L 698.670732 -149.323388 
L 695.187505 -160.623844 
L 691.704277 -154.56467 
L 688.22105 -139.35582 
L 684.737822 -135.209399 
L 681.254595 -137.818633 
L 677.771367 -135.676115 
L 674.28814 -135.959818 
L 670.804912 -134.993377 
L 667.321685 -134.424251 
L 663.838457 -143.153665 
L 660.35523 -139.276273 
L 656.872002 -140.564342 
L 653.388775 -137.153276 
L 649.905547 -139.117296 
L 646.42232 -145.470058 
L 642.939092 -147.026912 
L 639.455865 -155.546266 
L 635.972637 -149.737842 
L 632.48941 -145.93231 
L 629.006182 -145.475234 
L 625.522955 -147.624452 
L 622.039727 -147.439871 
L 618.5565 -141.838915 
L 615.073272 -135.550885 
L 611.590045 -130.266079 
L 608.106817 -121.931954 
L 604.62359 -136.576551 
L 601.140362 -140.21186 
L 597.657135 -132.736203 
L 594.173907 -127.818262 
L 590.69068 -132.443567 
L 587.207452 -135.723261 
L 583.724225 -127.092458 
L 580.240997 -123.828774 
L 576.75777 -127.851465 
L 573.274542 -134.311532 
L 569.791314 -135.53304 
L 566.308087 -135.312726 
L 562.824859 -133.359795 
L 559.341632 -133.300163 
L 555.858404 -135.399832 
L 552.375177 -142.278425 
L 548.891949 -147.292817 
L 545.408722 -145.675809 
L 541.925494 -149.687284 
L 538.442267 -143.69326 
L 534.959039 -137.359774 
L 531.475812 -130.291044 
L 527.992584 -139.015023 
L 524.509357 -132.941707 
L 521.026129 -144.764639 
L 517.542902 -145.517133 
L 514.059674 -145.294429 
L 510.576447 -135.785338 
L 507.093219 -134.739659 
L 503.609992 -137.68235 
L 500.126764 -134.26544 
L 496.643537 -133.283004 
L 493.160309 -135.300321 
L 489.677082 -139.629027 
L 486.193854 -144.341792 
L 482.710627 -138.443817 
L 479.227399 -123.836709 
L 475.744172 -121.441731 
L 472.260944 -113.650526 
L 468.777717 -121.807316 
L 465.294489 -128.521633 
L 461.811262 -124.856317 
L 458.328034 -109.182315 
L 454.844807 -128.702921 
L 451.361579 -140.904094 
L 447.878352 -130.834873 
L 444.395124 -119.248032 
L 440.911896 -134.056255 
L 437.428669 -123.295785 
L 433.945441 -124.914422 
L 430.462214 -117.559766 
L 426.978986 -111.979681 
L 423.495759 -116.680259 
L 420.012531 -120.839566 
L 416.529304 -133.118181 
L 413.046076 -133.216445 
L 409.562849 -128.789893 
L 406.079621 -130.912038 
L 402.596394 -134.43438 
L 399.113166 -133.471064 
L 395.629939 -131.998057 
L 392.146711 -135.19093 
L 388.663484 -127.484799 
L 385.180256 -123.099795 
L 381.697029 -126.37971 
L 378.213801 -114.135865 
L 374.730574 -121.295081 
L 371.247346 -122.363579 
L 367.764119 -126.976892 
L 364.280891 -128.163064 
L 360.797664 -127.766646 
L 357.314436 -122.378435 
L 353.831209 -122.759118 
L 350.347981 -127.175678 
L 346.864754 -127.006659 
L 343.381526 -127.693751 
L 339.898299 -130.937735 
L 336.415071 -130.053996 
L 332.931844 -131.81167 
L 329.448616 -130.851353 
L 325.965389 -138.231085 
L 322.482161 -141.455171 
L 318.998934 -129.35823 
L 315.515706 -122.87407 
L 312.032479 -111.374988 
L 308.549251 -113.057014 
L 305.066023 -111.254686 
L 301.582796 -111.590835 
L 298.099568 -106.130155 
L 294.616341 -115.419504 
L 291.133113 -112.537849 
L 287.649886 -110.904719 
L 284.166658 -109.615353 
L 280.683431 -106.442458 
L 277.200203 -107.460572 
L 273.716976 -109.319519 
L 270.233748 -124.740736 
L 266.750521 -121.60078 
L 263.267293 -97.500565 
L 259.784066 -112.057238 
L 256.300838 -114.174606 
L 252.817611 -104.855164 
L 249.334383 -109.075296 
L 245.851156 -107.038624 
L 242.367928 -111.754657 
L 238.884701 -110.407969 
L 235.401473 -106.748027 
L 231.918246 -110.796339 
L 228.435018 -111.490094 
L 224.951791 -106.542979 
L 221.468563 -111.769559 
L 217.985336 -117.769959 
L 214.502108 -115.439758 
L 211.018881 -116.895446 
L 207.535653 -104.412337 
L 204.052426 -93.604508 
L 200.569198 -84.962776 
L 197.085971 -99.447882 
L 193.602743 -108.622364 
L 190.119516 -100.858942 
L 186.636288 -103.691456 
L 183.153061 -106.70106 
L 179.669833 -104.746908 
L 176.186605 -107.102115 
L 172.703378 -103.559224 
L 169.22015 -102.540034 
L 165.736923 -111.892325 
L 162.253695 -108.346623 
L 158.770468 -109.636307 
L 155.28724 -109.37931 
L 151.804013 -110.628934 
L 148.320785 -104.847193 
L 144.837558 -105.591386 
L 141.35433 -105.684389 
L 137.871103 -105.300234 
L 134.387875 -110.180611 
L 130.904648 -111.184017 
L 127.42142 -107.607138 
L 123.938193 -109.253776 
L 120.454965 -104.077824 
L 116.971738 -106.993453 
L 113.48851 -108.007785 
L 110.005283 -104.882753 
L 106.522055 -105.526566 
L 103.038828 -99.429921 
L 99.5556 -100.466729 
L 96.072373 -102.022598 
L 92.589145 -100.414431 
L 89.105918 -102.819283 
L 85.62269 -102.330739 
L 82.139463 -107.496311 
L 78.656235 -99.401246 
L 75.173008 -102.886174 
L 71.68978 -101.155027 
L 68.206553 -104.986218 
L 64.723325 -101.41949 
L 61.240098 -107.653895 
L 57.75687 -116.023648 
L 54.273643 -107.450098 
L 50.790415 -122.970957 
L 47.307188 -147.752006 
z
" style="stroke: #808080; stroke-opacity: 0.7"/>
    </defs>
    <g clip-path="url(#p67455137b4)">
     <use xlink:href="#m2aeed59ae8" x="0" y="424.5775" style="fill: #808080; fill-opacity: 0.7; stroke: #808080; stroke-opacity: 0.7"/>
    </g>
   </g>
   <g id="line2d_31">
    <path d="M 47.307188 339.900374 
L 50.790415 338.99865 
L 54.273643 324.652835 
L 57.75687 324.384631 
L 61.240098 335.853512 
L 64.723325 328.274104 
L 68.206553 311.168168 
L 71.68978 319.758132 
L 75.173008 310.238885 
L 78.656235 316.888212 
L 82.139463 310.78911 
L 85.62269 309.828184 
L 89.105918 279.541769 
L 92.589145 271.082997 
L 96.072373 293.643506 
L 99.5556 315.275487 
L 103.038828 305.408619 
L 106.522055 344.590778 
L 110.005283 324.211851 
L 113.48851 310.671179 
L 116.971738 314.81168 
L 120.454965 317.785604 
L 123.938193 296.377172 
L 127.42142 305.431208 
L 130.904648 307.125505 
L 134.387875 314.393449 
L 137.871103 311.089048 
L 141.35433 309.783633 
L 144.837558 311.69558 
L 148.320785 307.124024 
L 151.804013 294.550425 
L 155.28724 299.919713 
L 158.770468 302.90701 
L 162.253695 319.806751 
L 165.736923 307.386993 
L 169.22015 299.449734 
L 172.703378 304.620275 
L 176.186605 317.18424 
L 179.669833 313.6019 
L 183.153061 312.291191 
L 186.636288 302.396761 
L 190.119516 298.099873 
L 193.602743 315.943198 
L 197.085971 316.23286 
L 200.569198 324.088881 
L 204.052426 313.354703 
L 207.535653 327.477167 
L 211.018881 335.766465 
L 214.502108 334.656462 
L 217.985336 341.80979 
L 221.468563 337.528007 
L 224.951791 338.871128 
L 228.435018 338.686879 
L 231.918246 334.27186 
L 235.401473 335.186524 
L 238.884701 335.626226 
L 242.367928 342.643348 
L 245.851156 335.624214 
L 249.334383 350.645164 
L 252.817611 334.125868 
L 256.300838 343.91309 
L 259.784066 333.48013 
L 263.267293 330.482307 
L 266.750521 332.029514 
L 270.233748 338.65353 
L 273.716976 335.845858 
L 277.200203 338.640024 
L 280.683431 345.849384 
L 284.166658 338.390749 
L 287.649886 339.298646 
L 291.133113 344.193924 
L 294.616341 339.424949 
L 298.099568 336.533157 
L 301.582796 314.645192 
L 305.066023 317.360851 
L 308.549251 325.14087 
L 312.032479 332.419657 
L 315.515706 328.176693 
L 318.998934 308.9292 
L 322.482161 322.109449 
L 325.965389 325.198804 
L 329.448616 323.509054 
L 332.931844 321.100904 
L 336.415071 314.619065 
L 339.898299 327.156318 
L 343.381526 309.990195 
L 346.864754 308.985785 
L 350.347981 302.661635 
L 353.831209 316.49937 
L 357.314436 315.417816 
L 360.797664 292.773461 
L 364.280891 317.805584 
L 367.764119 320.894099 
L 371.247346 316.469985 
L 374.730574 319.032083 
L 378.213801 307.776678 
L 381.697029 309.860133 
L 385.180256 324.049351 
L 388.663484 326.750157 
L 392.146711 329.808923 
L 395.629939 315.404242 
L 399.113166 272.313468 
L 402.596394 290.879584 
L 406.079621 233.312732 
L 409.562849 286.185337 
L 413.046076 288.852945 
L 416.529304 292.046331 
L 420.012531 299.63363 
L 423.495759 311.485569 
L 426.978986 326.409498 
L 430.462214 300.226832 
L 433.945441 297.686268 
L 437.428669 285.275088 
L 440.911896 310.918385 
L 444.395124 298.028512 
L 447.878352 300.830522 
L 451.361579 295.680078 
L 454.844807 292.873009 
L 458.328034 268.517516 
L 461.811262 277.443305 
L 465.294489 265.270165 
L 468.777717 309.459168 
L 472.260944 307.613745 
L 475.744172 300.185688 
L 479.227399 314.268804 
L 482.710627 289.159449 
L 486.193854 242.980751 
L 489.677082 302.26798 
L 493.160309 306.235281 
L 496.643537 319.73132 
L 500.126764 317.423571 
L 503.609992 334.059135 
L 507.093219 335.10205 
L 510.576447 328.65921 
L 514.059674 325.855639 
L 517.542902 321.136494 
L 521.026129 254.870812 
L 524.509357 228.639078 
L 527.992584 224.409987 
L 531.475812 221.045179 
L 534.959039 250.106749 
L 538.442267 277.642258 
L 541.925494 302.996735 
L 545.408722 253.445826 
L 548.891949 266.782504 
L 552.375177 289.068862 
L 555.858404 289.860261 
L 559.341632 278.77157 
L 562.824859 260.493404 
L 566.308087 295.278056 
L 569.791314 304.196514 
L 573.274542 303.620258 
L 576.75777 313.933967 
L 580.240997 307.794814 
L 583.724225 298.165719 
L 587.207452 280.856235 
L 590.69068 293.205821 
L 594.173907 272.666383 
L 597.657135 291.774746 
L 601.140362 267.269305 
L 604.62359 222.613184 
L 608.106817 240.418345 
L 611.590045 157.539871 
L 615.073272 239.851524 
L 618.5565 205.372283 
L 622.039727 250.022155 
L 625.522955 241.386063 
L 629.006182 251.714977 
L 632.48941 288.835787 
L 635.972637 288.667263 
L 639.455865 293.500054 
L 642.939092 241.505661 
L 646.42232 246.031058 
L 649.905547 267.802517 
L 653.388775 235.598989 
L 656.872002 194.176073 
L 660.35523 232.812814 
L 663.838457 266.138969 
L 667.321685 253.98821 
L 670.804912 249.597514 
L 674.28814 232.940573 
L 677.771367 217.545546 
L 681.254595 237.306452 
L 684.737822 231.080826 
L 688.22105 251.067059 
L 691.704277 256.639161 
L 695.187505 260.906846 
L 698.670732 280.882892 
L 702.15396 290.132444 
L 705.637188 249.468614 
L 705.637188 249.468614 
" clip-path="url(#p67455137b4)" style="fill: none; stroke: #ff8c00; stroke-width: 2.3; stroke-linecap: square"/>
   </g>
   <g id="line2d_32">
    <path d="M 277.200203 384.117812 
L 277.200203 23.837812 
" clip-path="url(#p67455137b4)" style="fill: none; stroke-dasharray: 5.55,2.4; stroke-dashoffset: 0; stroke: #808080; stroke-width: 1.5"/>
   </g>
   <g id="line2d_33">
    <path d="M 475.744172 384.117812 
L 475.744172 23.837812 
" clip-path="url(#p67455137b4)" style="fill: none; stroke-dasharray: 5.55,2.4; stroke-dashoffset: 0; stroke: #808080; stroke-width: 1.5"/>
   </g>
   <g id="patch_3">
    <path d="M 47.307188 384.117812 
L 47.307188 23.837812 
" style="fill: none; stroke: #000000; stroke-width: 0.8; stroke-linejoin: miter; stroke-linecap: square"/>
   </g>
   <g id="patch_4">
    <path d="M 705.637188 384.117812 
L 705.637188 23.837812 
" style="fill: none; stroke: #000000; stroke-width: 0.8; stroke-linejoin: miter; stroke-linecap: square"/>
   </g>
   <g id="patch_5">
    <path d="M 47.307188 384.117812 
L 705.637188 384.117812 
" style="fill: none; stroke: #000000; stroke-width: 0.8; stroke-linejoin: miter; stroke-linecap: square"/>
   </g>
   <g id="patch_6">
    <path d="M 47.307188 23.837812 
L 705.637188 23.837812 
" style="fill: none; stroke: #000000; stroke-width: 0.8; stroke-linejoin: miter; stroke-linecap: square"/>
   </g>
   <g id="text_18">
    <!-- Facial trace: Social anxiety disorder (SAD) (male) -->
    <g transform="translate(204.489844 17.837812) scale(0.14 -0.14)">
     <defs>
      <path id="DejaVuSans-46" d="M 628 4666 
L 3309 4666 
L 3309 4134 
L 1259 4134 
L 1259 2759 
L 3109 2759 
L 3109 2228 
L 1259 2228 
L 1259 0 
L 628 0 
L 628 4666 
z
" transform="scale(0.015625)"/>
      <path id="DejaVuSans-63" d="M 3122 3366 
L 3122 2828 
Q 2878 2963 2633 3030 
Q 2388 3097 2138 3097 
Q 1578 3097 1268 2742 
Q 959 2388 959 1747 
Q 959 1106 1268 751 
Q 1578 397 2138 397 
Q 2388 397 2633 464 
Q 2878 531 3122 666 
L 3122 134 
Q 2881 22 2623 -34 
Q 2366 -91 2075 -91 
Q 1284 -91 818 406 
Q 353 903 353 1747 
Q 353 2603 823 3093 
Q 1294 3584 2113 3584 
Q 2378 3584 2631 3529 
Q 2884 3475 3122 3366 
z
" transform="scale(0.015625)"/>
      <path id="DejaVuSans-6c" d="M 603 4863 
L 1178 4863 
L 1178 0 
L 603 0 
L 603 4863 
z
" transform="scale(0.015625)"/>
      <path id="DejaVuSans-72" d="M 2631 2963 
Q 2534 3019 2420 3045 
Q 2306 3072 2169 3072 
Q 1681 3072 1420 2755 
Q 1159 2438 1159 1844 
L 1159 0 
L 581 0 
L 581 3500 
L 1159 3500 
L 1159 2956 
Q 1341 3275 1631 3429 
Q 1922 3584 2338 3584 
Q 2397 3584 2469 3576 
Q 2541 3569 2628 3553 
L 2631 2963 
z
" transform="scale(0.015625)"/>
      <path id="DejaVuSans-3a" d="M 750 794 
L 1409 794 
L 1409 0 
L 750 0 
L 750 794 
z
M 750 3309 
L 1409 3309 
L 1409 2516 
L 750 2516 
L 750 3309 
z
" transform="scale(0.015625)"/>
      <path id="DejaVuSans-53" d="M 3425 4513 
L 3425 3897 
Q 3066 4069 2747 4153 
Q 2428 4238 2131 4238 
Q 1616 4238 1336 4038 
Q 1056 3838 1056 3469 
Q 1056 3159 1242 3001 
Q 1428 2844 1947 2747 
L 2328 2669 
Q 3034 2534 3370 2195 
Q 3706 1856 3706 1288 
Q 3706 609 3251 259 
Q 2797 -91 1919 -91 
Q 1588 -91 1214 -16 
Q 841 59 441 206 
L 441 856 
Q 825 641 1194 531 
Q 1563 422 1919 422 
Q 2459 422 2753 634 
Q 3047 847 3047 1241 
Q 3047 1584 2836 1778 
Q 2625 1972 2144 2069 
L 1759 2144 
Q 1053 2284 737 2584 
Q 422 2884 422 3419 
Q 422 4038 858 4394 
Q 1294 4750 2059 4750 
Q 2388 4750 2728 4690 
Q 3069 4631 3425 4513 
z
" transform="scale(0.015625)"/>
      <path id="DejaVuSans-6f" d="M 1959 3097 
Q 1497 3097 1228 2736 
Q 959 2375 959 1747 
Q 959 1119 1226 758 
Q 1494 397 1959 397 
Q 2419 397 2687 759 
Q 2956 1122 2956 1747 
Q 2956 2369 2687 2733 
Q 2419 3097 1959 3097 
z
M 1959 3584 
Q 2709 3584 3137 3096 
Q 3566 2609 3566 1747 
Q 3566 888 3137 398 
Q 2709 -91 1959 -91 
Q 1206 -91 779 398 
Q 353 888 353 1747 
Q 353 2609 779 3096 
Q 1206 3584 1959 3584 
z
" transform="scale(0.015625)"/>
      <path id="DejaVuSans-78" d="M 3513 3500 
L 2247 1797 
L 3578 0 
L 2900 0 
L 1881 1375 
L 863 0 
L 184 0 
L 1544 1831 
L 300 3500 
L 978 3500 
L 1906 2253 
L 2834 3500 
L 3513 3500 
z
" transform="scale(0.015625)"/>
      <path id="DejaVuSans-64" d="M 2906 2969 
L 2906 4863 
L 3481 4863 
L 3481 0 
L 2906 0 
L 2906 525 
Q 2725 213 2448 61 
Q 2172 -91 1784 -91 
Q 1150 -91 751 415 
Q 353 922 353 1747 
Q 353 2572 751 3078 
Q 1150 3584 1784 3584 
Q 2172 3584 2448 3432 
Q 2725 3281 2906 2969 
z
M 947 1747 
Q 947 1113 1208 752 
Q 1469 391 1925 391 
Q 2381 391 2643 752 
Q 2906 1113 2906 1747 
Q 2906 2381 2643 2742 
Q 2381 3103 1925 3103 
Q 1469 3103 1208 2742 
Q 947 2381 947 1747 
z
" transform="scale(0.015625)"/>
      <path id="DejaVuSans-44" d="M 1259 4147 
L 1259 519 
L 2022 519 
Q 2988 519 3436 956 
Q 3884 1394 3884 2338 
Q 3884 3275 3436 3711 
Q 2988 4147 2022 4147 
L 1259 4147 
z
M 628 4666 
L 1925 4666 
Q 3281 4666 3915 4102 
Q 4550 3538 4550 2338 
Q 4550 1131 3912 565 
Q 3275 0 1925 0 
L 628 0 
L 628 4666 
z
" transform="scale(0.015625)"/>
     </defs>
     <use xlink:href="#DejaVuSans-46"/>
     <use xlink:href="#DejaVuSans-61" transform="translate(48.394531 0)"/>
     <use xlink:href="#DejaVuSans-63" transform="translate(109.673828 0)"/>
     <use xlink:href="#DejaVuSans-69" transform="translate(164.654297 0)"/>
     <use xlink:href="#DejaVuSans-61" transform="translate(192.4375 0)"/>
     <use xlink:href="#DejaVuSans-6c" transform="translate(253.716797 0)"/>
     <use xlink:href="#DejaVuSans-20" transform="translate(281.5 0)"/>
     <use xlink:href="#DejaVuSans-74" transform="translate(313.287109 0)"/>
     <use xlink:href="#DejaVuSans-72" transform="translate(352.496094 0)"/>
     <use xlink:href="#DejaVuSans-61" transform="translate(393.609375 0)"/>
     <use xlink:href="#DejaVuSans-63" transform="translate(454.888672 0)"/>
     <use xlink:href="#DejaVuSans-65" transform="translate(509.869141 0)"/>
     <use xlink:href="#DejaVuSans-3a" transform="translate(571.392578 0)"/>
     <use xlink:href="#DejaVuSans-20" transform="translate(605.083984 0)"/>
     <use xlink:href="#DejaVuSans-53" transform="translate(636.871094 0)"/>
     <use xlink:href="#DejaVuSans-6f" transform="translate(700.347656 0)"/>
     <use xlink:href="#DejaVuSans-63" transform="translate(761.529297 0)"/>
     <use xlink:href="#DejaVuSans-69" transform="translate(816.509766 0)"/>
     <use xlink:href="#DejaVuSans-61" transform="translate(844.292969 0)"/>
     <use xlink:href="#DejaVuSans-6c" transform="translate(905.572266 0)"/>
     <use xlink:href="#DejaVuSans-20" transform="translate(933.355469 0)"/>
     <use xlink:href="#DejaVuSans-61" transform="translate(965.142578 0)"/>
     <use xlink:href="#DejaVuSans-6e" transform="translate(1026.421875 0)"/>
     <use xlink:href="#DejaVuSans-78" transform="translate(1089.800781 0)"/>
     <use xlink:href="#DejaVuSans-69" transform="translate(1148.980469 0)"/>
     <use xlink:href="#DejaVuSans-65" transform="translate(1176.763672 0)"/>
     <use xlink:href="#DejaVuSans-74" transform="translate(1238.287109 0)"/>
     <use xlink:href="#DejaVuSans-79" transform="translate(1277.496094 0)"/>
     <use xlink:href="#DejaVuSans-20" transform="translate(1336.675781 0)"/>
     <use xlink:href="#DejaVuSans-64" transform="translate(1368.462891 0)"/>
     <use xlink:href="#DejaVuSans-69" transform="translate(1431.939453 0)"/>
     <use xlink:href="#DejaVuSans-73" transform="translate(1459.722656 0)"/>
     <use xlink:href="#DejaVuSans-6f" transform="translate(1511.822266 0)"/>
     <use xlink:href="#DejaVuSans-72" transform="translate(1573.003906 0)"/>
     <use xlink:href="#DejaVuSans-64" transform="translate(1612.367188 0)"/>
     <use xlink:href="#DejaVuSans-65" transform="translate(1675.84375 0)"/>
     <use xlink:href="#DejaVuSans-72" transform="translate(1737.367188 0)"/>
     <use xlink:href="#DejaVuSans-20" transform="translate(1778.480469 0)"/>
     <use xlink:href="#DejaVuSans-28" transform="translate(1810.267578 0)"/>
     <use xlink:href="#DejaVuSans-53" transform="translate(1849.28125 0)"/>
     <use xlink:href="#DejaVuSans-41" transform="translate(1914.632812 0)"/>
     <use xlink:href="#DejaVuSans-44" transform="translate(1983.041016 0)"/>
     <use xlink:href="#DejaVuSans-29" transform="translate(2060.042969 0)"/>
     <use xlink:href="#DejaVuSans-20" transform="translate(2099.056641 0)"/>
     <use xlink:href="#DejaVuSans-28" transform="translate(2130.84375 0)"/>
     <use xlink:href="#DejaVuSans-6d" transform="translate(2169.857422 0)"/>
     <use xlink:href="#DejaVuSans-61" transform="translate(2267.269531 0)"/>
     <use xlink:href="#DejaVuSans-6c" transform="translate(2328.548828 0)"/>
     <use xlink:href="#DejaVuSans-65" transform="translate(2356.332031 0)"/>
     <use xlink:href="#DejaVuSans-29" transform="translate(2417.855469 0)"/>
    </g>
   </g>
   <g id="legend_1">
    <g id="patch_7">
     <path d="M 465.431562 42.096094 
L 487.431562 42.096094 
L 487.431562 34.396094 
L 465.431562 34.396094 
z
" style="fill: #d3d3d3; fill-opacity: 0.5; stroke: #d3d3d3; stroke-opacity: 0.5; stroke-linejoin: miter"/>
    </g>
    <g id="text_19">
     <!-- Social anxiety disorder (SAD) ±2 SD -->
     <g transform="translate(496.231562 42.096094) scale(0.11 -0.11)">
      <defs>
       <path id="DejaVuSans-b1" d="M 2944 4013 
L 2944 2803 
L 4684 2803 
L 4684 2272 
L 2944 2272 
L 2944 1063 
L 2419 1063 
L 2419 2272 
L 678 2272 
L 678 2803 
L 2419 2803 
L 2419 4013 
L 2944 4013 
z
M 678 531 
L 4684 531 
L 4684 0 
L 678 0 
L 678 531 
z
" transform="scale(0.015625)"/>
      </defs>
      <use xlink:href="#DejaVuSans-53"/>
      <use xlink:href="#DejaVuSans-6f" transform="translate(63.476562 0)"/>
      <use xlink:href="#DejaVuSans-63" transform="translate(124.658203 0)"/>
      <use xlink:href="#DejaVuSans-69" transform="translate(179.638672 0)"/>
      <use xlink:href="#DejaVuSans-61" transform="translate(207.421875 0)"/>
      <use xlink:href="#DejaVuSans-6c" transform="translate(268.701172 0)"/>
      <use xlink:href="#DejaVuSans-20" transform="translate(296.484375 0)"/>
      <use xlink:href="#DejaVuSans-61" transform="translate(328.271484 0)"/>
      <use xlink:href="#DejaVuSans-6e" transform="translate(389.550781 0)"/>
      <use xlink:href="#DejaVuSans-78" transform="translate(452.929688 0)"/>
      <use xlink:href="#DejaVuSans-69" transform="translate(512.109375 0)"/>
      <use xlink:href="#DejaVuSans-65" transform="translate(539.892578 0)"/>
      <use xlink:href="#DejaVuSans-74" transform="translate(601.416016 0)"/>
      <use xlink:href="#DejaVuSans-79" transform="translate(640.625 0)"/>
      <use xlink:href="#DejaVuSans-20" transform="translate(699.804688 0)"/>
      <use xlink:href="#DejaVuSans-64" transform="translate(731.591797 0)"/>
      <use xlink:href="#DejaVuSans-69" transform="translate(795.068359 0)"/>
      <use xlink:href="#DejaVuSans-73" transform="translate(822.851562 0)"/>
      <use xlink:href="#DejaVuSans-6f" transform="translate(874.951172 0)"/>
      <use xlink:href="#DejaVuSans-72" transform="translate(936.132812 0)"/>
      <use xlink:href="#DejaVuSans-64" transform="translate(975.496094 0)"/>
      <use xlink:href="#DejaVuSans-65" transform="translate(1038.972656 0)"/>
      <use xlink:href="#DejaVuSans-72" transform="translate(1100.496094 0)"/>
      <use xlink:href="#DejaVuSans-20" transform="translate(1141.609375 0)"/>
      <use xlink:href="#DejaVuSans-28" transform="translate(1173.396484 0)"/>
      <use xlink:href="#DejaVuSans-53" transform="translate(1212.410156 0)"/>
      <use xlink:href="#DejaVuSans-41" transform="translate(1277.761719 0)"/>
      <use xlink:href="#DejaVuSans-44" transform="translate(1346.169922 0)"/>
      <use xlink:href="#DejaVuSans-29" transform="translate(1423.171875 0)"/>
      <use xlink:href="#DejaVuSans-20" transform="translate(1462.185547 0)"/>
      <use xlink:href="#DejaVuSans-b1" transform="translate(1493.972656 0)"/>
      <use xlink:href="#DejaVuSans-32" transform="translate(1577.761719 0)"/>
      <use xlink:href="#DejaVuSans-20" transform="translate(1641.384766 0)"/>
      <use xlink:href="#DejaVuSans-53" transform="translate(1673.171875 0)"/>
      <use xlink:href="#DejaVuSans-44" transform="translate(1736.648438 0)"/>
     </g>
    </g>
    <g id="patch_8">
     <path d="M 465.431562 58.242031 
L 487.431562 58.242031 
L 487.431562 50.542031 
L 465.431562 50.542031 
z
" style="fill: #808080; fill-opacity: 0.7; stroke: #808080; stroke-opacity: 0.7; stroke-linejoin: miter"/>
    </g>
    <g id="text_20">
     <!-- Social anxiety disorder (SAD) ±1 SD -->
     <g transform="translate(496.231562 58.242031) scale(0.11 -0.11)">
      <use xlink:href="#DejaVuSans-53"/>
      <use xlink:href="#DejaVuSans-6f" transform="translate(63.476562 0)"/>
      <use xlink:href="#DejaVuSans-63" transform="translate(124.658203 0)"/>
      <use xlink:href="#DejaVuSans-69" transform="translate(179.638672 0)"/>
      <use xlink:href="#DejaVuSans-61" transform="translate(207.421875 0)"/>
      <use xlink:href="#DejaVuSans-6c" transform="translate(268.701172 0)"/>
      <use xlink:href="#DejaVuSans-20" transform="translate(296.484375 0)"/>
      <use xlink:href="#DejaVuSans-61" transform="translate(328.271484 0)"/>
      <use xlink:href="#DejaVuSans-6e" transform="translate(389.550781 0)"/>
      <use xlink:href="#DejaVuSans-78" transform="translate(452.929688 0)"/>
      <use xlink:href="#DejaVuSans-69" transform="translate(512.109375 0)"/>
      <use xlink:href="#DejaVuSans-65" transform="translate(539.892578 0)"/>
      <use xlink:href="#DejaVuSans-74" transform="translate(601.416016 0)"/>
      <use xlink:href="#DejaVuSans-79" transform="translate(640.625 0)"/>
      <use xlink:href="#DejaVuSans-20" transform="translate(699.804688 0)"/>
      <use xlink:href="#DejaVuSans-64" transform="translate(731.591797 0)"/>
      <use xlink:href="#DejaVuSans-69" transform="translate(795.068359 0)"/>
      <use xlink:href="#DejaVuSans-73" transform="translate(822.851562 0)"/>
      <use xlink:href="#DejaVuSans-6f" transform="translate(874.951172 0)"/>
      <use xlink:href="#DejaVuSans-72" transform="translate(936.132812 0)"/>
      <use xlink:href="#DejaVuSans-64" transform="translate(975.496094 0)"/>
      <use xlink:href="#DejaVuSans-65" transform="translate(1038.972656 0)"/>
      <use xlink:href="#DejaVuSans-72" transform="translate(1100.496094 0)"/>
      <use xlink:href="#DejaVuSans-20" transform="translate(1141.609375 0)"/>
      <use xlink:href="#DejaVuSans-28" transform="translate(1173.396484 0)"/>
      <use xlink:href="#DejaVuSans-53" transform="translate(1212.410156 0)"/>
      <use xlink:href="#DejaVuSans-41" transform="translate(1277.761719 0)"/>
      <use xlink:href="#DejaVuSans-44" transform="translate(1346.169922 0)"/>
      <use xlink:href="#DejaVuSans-29" transform="translate(1423.171875 0)"/>
      <use xlink:href="#DejaVuSans-20" transform="translate(1462.185547 0)"/>
      <use xlink:href="#DejaVuSans-b1" transform="translate(1493.972656 0)"/>
      <use xlink:href="#DejaVuSans-31" transform="translate(1577.761719 0)"/>
      <use xlink:href="#DejaVuSans-20" transform="translate(1641.384766 0)"/>
      <use xlink:href="#DejaVuSans-53" transform="translate(1673.171875 0)"/>
      <use xlink:href="#DejaVuSans-44" transform="translate(1736.648438 0)"/>
     </g>
    </g>
    <g id="line2d_34">
     <path d="M 465.431562 70.537969 
L 476.431562 70.537969 
L 487.431562 70.537969 
" style="fill: none; stroke: #ff8c00; stroke-width: 2.3; stroke-linecap: square"/>
    </g>
    <g id="text_21">
     <!-- Patient -->
     <g transform="translate(496.231562 74.387969) scale(0.11 -0.11)">
      <defs>
       <path id="DejaVuSans-50" d="M 1259 4147 
L 1259 2394 
L 2053 2394 
Q 2494 2394 2734 2622 
Q 2975 2850 2975 3272 
Q 2975 3691 2734 3919 
Q 2494 4147 2053 4147 
L 1259 4147 
z
M 628 4666 
L 2053 4666 
Q 2838 4666 3239 4311 
Q 3641 3956 3641 3272 
Q 3641 2581 3239 2228 
Q 2838 1875 2053 1875 
L 1259 1875 
L 1259 0 
L 628 0 
L 628 4666 
z
" transform="scale(0.015625)"/>
      </defs>
      <use xlink:href="#DejaVuSans-50"/>
      <use xlink:href="#DejaVuSans-61" transform="translate(55.802734 0)"/>
      <use xlink:href="#DejaVuSans-74" transform="translate(117.082031 0)"/>
      <use xlink:href="#DejaVuSans-69" transform="translate(156.291016 0)"/>
      <use xlink:href="#DejaVuSans-65" transform="translate(184.074219 0)"/>
      <use xlink:href="#DejaVuSans-6e" transform="translate(245.597656 0)"/>
      <use xlink:href="#DejaVuSans-74" transform="translate(308.976562 0)"/>
     </g>
    </g>
   </g>
  </g>
 </g>
 <defs>
  <clipPath id="p67455137b4">
   <rect x="47.307188" y="23.837812" width="658.33" height="360.28"/>
  </clipPath>
 </defs>
</svg>
