<?xml version="1.0" encoding="utf-8" standalone="no"?>
<!DOCTYPE svg PUBLIC "-//W3C//DTD SVG 1.1//EN"
  "http://www.w3.org/Graphics/SVG/1.1/DTD/svg11.dtd">
<svg xmlns:xlink="http://www.w3.org/1999/xlink" width="676.867187pt" height="391.479828pt" viewBox="0 0 676.867187 391.479828" xmlns="http://www.w3.org/2000/svg" version="1.1">
 <metadata>
  <rdf:RDF xmlns:dc="http://purl.org/dc/elements/1.1/" xmlns:cc="http://creativecommons.org/ns#" xmlns:rdf="http://www.w3.org/1999/02/22-rdf-syntax-ns#">
   <cc:Work>
    <dc:type rdf:resource="http://purl.org/dc/dcmitype/StillImage"/>
    <dc:date>2026-06-14T19:01:30.403866</dc:date>
    <dc:format>image/svg+xml</dc:format>
    <dc:creator>
     <cc:Agent>
      <dc:title>Matplotlib v3.10.1, https://matplotlib.org/</dc:title>
     </cc:Agent>
    </dc:creator>
   </cc:Work>
  </rdf:RDF>
 </metadata>
 <defs>
  <style type="text/css">*{stroke-linejoin: round; stroke-linecap: butt}</style>
 </defs>
 <g id="figure_1">
  <g id="patch_1">
   <path d="M 0 391.479828 
L 676.867187 391.479828 
L 676.867187 0 
L 0 0 
z
" style="fill: #ffffff"/>
  </g>
  <g id="axes_1">
   <g id="patch_2">
    <path d="M 47.307188 326.21412 
L 333.067187 326.21412 
L 333.067187 34.56 
L 47.307188 34.56 
z
" style="fill: #ffffff"/>
   </g>
   <g id="matplotlib.axis_1">
    <g id="xtick_1">
     <g id="line2d_1">
      <path d="M 190.187187 326.21412 
L 190.187187 34.56 
" clip-path="url(#p8a0ad0759c)" style="fill: none; stroke: #b0b0b0; stroke-opacity: 0.2; stroke-width: 0.6; stroke-linecap: square"/>
     </g>
     <g id="line2d_2">
      <defs>
       <path id="m8b64ba2c3e" d="M 0 0 
L 0 3.5 
" style="stroke: #000000; stroke-width: 0.8"/>
      </defs>
      <g>
       <use xlink:href="#m8b64ba2c3e" x="190.187187" y="326.21412" style="stroke: #000000; stroke-width: 0.8"/>
      </g>
     </g>
     <g id="text_1">
      <!-- Peak smile alignment -->
      <g transform="translate(75.611776 371.829339) rotate(-15) scale(0.11 -0.11)">
       <defs>
        <path id="DejaVuSans-50" d="M 1259 4147 
L 1259 2394 
L 2053 2394 
Q 2494 2394 2734 2622 
Q 2975 2850 2975 3272 
Q 2975 3691 2734 3919 
Q 2494 4147 2053 4147 
L 1259 4147 
z
M 628 4666 
L 2053 4666 
Q 2838 4666 3239 4311 
Q 3641 3956 3641 3272 
Q 3641 2581 3239 2228 
Q 2838 1875 2053 1875 
L 1259 1875 
L 1259 0 
L 628 0 
L 628 4666 
z
" transform="scale(0.015625)"/>
        <path id="DejaVuSans-65" d="M 3597 1894 
L 3597 1613 
L 953 1613 
Q 991 1019 1311 708 
Q 1631 397 2203 397 
Q 2534 397 2845 478 
Q 3156 559 3463 722 
L 3463 178 
Q 3153 47 2828 -22 
Q 2503 -91 2169 -91 
Q 1331 -91 842 396 
Q 353 884 353 1716 
Q 353 2575 817 3079 
Q 1281 3584 2069 3584 
Q 2775 3584 3186 3129 
Q 3597 2675 3597 1894 
z
M 3022 2063 
Q 3016 2534 2758 2815 
Q 2500 3097 2075 3097 
Q 1594 3097 1305 2825 
Q 1016 2553 972 2059 
L 3022 2063 
z
" transform="scale(0.015625)"/>
        <path id="DejaVuSans-61" d="M 2194 1759 
Q 1497 1759 1228 1600 
Q 959 1441 959 1056 
Q 959 750 1161 570 
Q 1363 391 1709 391 
Q 2188 391 2477 730 
Q 2766 1069 2766 1631 
L 2766 1759 
L 2194 1759 
z
M 3341 1997 
L 3341 0 
L 2766 0 
L 2766 531 
Q 2569 213 2275 61 
Q 1981 -91 1556 -91 
Q 1019 -91 701 211 
Q 384 513 384 1019 
Q 384 1609 779 1909 
Q 1175 2209 1959 2209 
L 2766 2209 
L 2766 2266 
Q 2766 2663 2505 2880 
Q 2244 3097 1772 3097 
Q 1472 3097 1187 3025 
Q 903 2953 641 2809 
L 641 3341 
Q 956 3463 1253 3523 
Q 1550 3584 1831 3584 
Q 2591 3584 2966 3190 
Q 3341 2797 3341 1997 
z
" transform="scale(0.015625)"/>
        <path id="DejaVuSans-6b" d="M 581 4863 
L 1159 4863 
L 1159 1991 
L 2875 3500 
L 3609 3500 
L 1753 1863 
L 3688 0 
L 2938 0 
L 1159 1709 
L 1159 0 
L 581 0 
L 581 4863 
z
" transform="scale(0.015625)"/>
        <path id="DejaVuSans-20" transform="scale(0.015625)"/>
        <path id="DejaVuSans-73" d="M 2834 3397 
L 2834 2853 
Q 2591 2978 2328 3040 
Q 2066 3103 1784 3103 
Q 1356 3103 1142 2972 
Q 928 2841 928 2578 
Q 928 2378 1081 2264 
Q 1234 2150 1697 2047 
L 1894 2003 
Q 2506 1872 2764 1633 
Q 3022 1394 3022 966 
Q 3022 478 2636 193 
Q 2250 -91 1575 -91 
Q 1294 -91 989 -36 
Q 684 19 347 128 
L 347 722 
Q 666 556 975 473 
Q 1284 391 1588 391 
Q 1994 391 2212 530 
Q 2431 669 2431 922 
Q 2431 1156 2273 1281 
Q 2116 1406 1581 1522 
L 1381 1569 
Q 847 1681 609 1914 
Q 372 2147 372 2553 
Q 372 3047 722 3315 
Q 1072 3584 1716 3584 
Q 2034 3584 2315 3537 
Q 2597 3491 2834 3397 
z
" transform="scale(0.015625)"/>
        <path id="DejaVuSans-6d" d="M 3328 2828 
Q 3544 3216 3844 3400 
Q 4144 3584 4550 3584 
Q 5097 3584 5394 3201 
Q 5691 2819 5691 2113 
L 5691 0 
L 5113 0 
L 5113 2094 
Q 5113 2597 4934 2840 
Q 4756 3084 4391 3084 
Q 3944 3084 3684 2787 
Q 3425 2491 3425 1978 
L 3425 0 
L 2847 0 
L 2847 2094 
Q 2847 2600 2669 2842 
Q 2491 3084 2119 3084 
Q 1678 3084 1418 2786 
Q 1159 2488 1159 1978 
L 1159 0 
L 581 0 
L 581 3500 
L 1159 3500 
L 1159 2956 
Q 1356 3278 1631 3431 
Q 1906 3584 2284 3584 
Q 2666 3584 2933 3390 
Q 3200 3197 3328 2828 
z
" transform="scale(0.015625)"/>
        <path id="DejaVuSans-69" d="M 603 3500 
L 1178 3500 
L 1178 0 
L 603 0 
L 603 3500 
z
M 603 4863 
L 1178 4863 
L 1178 4134 
L 603 4134 
L 603 4863 
z
" transform="scale(0.015625)"/>
        <path id="DejaVuSans-6c" d="M 603 4863 
L 1178 4863 
L 1178 0 
L 603 0 
L 603 4863 
z
" transform="scale(0.015625)"/>
        <path id="DejaVuSans-67" d="M 2906 1791 
Q 2906 2416 2648 2759 
Q 2391 3103 1925 3103 
Q 1463 3103 1205 2759 
Q 947 2416 947 1791 
Q 947 1169 1205 825 
Q 1463 481 1925 481 
Q 2391 481 2648 825 
Q 2906 1169 2906 1791 
z
M 3481 434 
Q 3481 -459 3084 -895 
Q 2688 -1331 1869 -1331 
Q 1566 -1331 1297 -1286 
Q 1028 -1241 775 -1147 
L 775 -588 
Q 1028 -725 1275 -790 
Q 1522 -856 1778 -856 
Q 2344 -856 2625 -561 
Q 2906 -266 2906 331 
L 2906 616 
Q 2728 306 2450 153 
Q 2172 0 1784 0 
Q 1141 0 747 490 
Q 353 981 353 1791 
Q 353 2603 747 3093 
Q 1141 3584 1784 3584 
Q 2172 3584 2450 3431 
Q 2728 3278 2906 2969 
L 2906 3500 
L 3481 3500 
L 3481 434 
z
" transform="scale(0.015625)"/>
        <path id="DejaVuSans-6e" d="M 3513 2113 
L 3513 0 
L 2938 0 
L 2938 2094 
Q 2938 2591 2744 2837 
Q 2550 3084 2163 3084 
Q 1697 3084 1428 2787 
Q 1159 2491 1159 1978 
L 1159 0 
L 581 0 
L 581 3500 
L 1159 3500 
L 1159 2956 
Q 1366 3272 1645 3428 
Q 1925 3584 2291 3584 
Q 2894 3584 3203 3211 
Q 3513 2838 3513 2113 
z
" transform="scale(0.015625)"/>
        <path id="DejaVuSans-74" d="M 1172 4494 
L 1172 3500 
L 2356 3500 
L 2356 3053 
L 1172 3053 
L 1172 1153 
Q 1172 725 1289 603 
Q 1406 481 1766 481 
L 2356 481 
L 2356 0 
L 1766 0 
Q 1100 0 847 248 
Q 594 497 594 1153 
L 594 3053 
L 172 3053 
L 172 3500 
L 594 3500 
L 594 4494 
L 1172 4494 
z
" transform="scale(0.015625)"/>
       </defs>
       <use xlink:href="#DejaVuSans-50"/>
       <use xlink:href="#DejaVuSans-65" transform="translate(56.677734 0)"/>
       <use xlink:href="#DejaVuSans-61" transform="translate(118.201172 0)"/>
       <use xlink:href="#DejaVuSans-6b" transform="translate(179.480469 0)"/>
       <use xlink:href="#DejaVuSans-20" transform="translate(237.390625 0)"/>
       <use xlink:href="#DejaVuSans-73" transform="translate(269.177734 0)"/>
       <use xlink:href="#DejaVuSans-6d" transform="translate(321.277344 0)"/>
       <use xlink:href="#DejaVuSans-69" transform="translate(418.689453 0)"/>
       <use xlink:href="#DejaVuSans-6c" transform="translate(446.472656 0)"/>
       <use xlink:href="#DejaVuSans-65" transform="translate(474.255859 0)"/>
       <use xlink:href="#DejaVuSans-20" transform="translate(535.779297 0)"/>
       <use xlink:href="#DejaVuSans-61" transform="translate(567.566406 0)"/>
       <use xlink:href="#DejaVuSans-6c" transform="translate(628.845703 0)"/>
       <use xlink:href="#DejaVuSans-69" transform="translate(656.628906 0)"/>
       <use xlink:href="#DejaVuSans-67" transform="translate(684.412109 0)"/>
       <use xlink:href="#DejaVuSans-6e" transform="translate(747.888672 0)"/>
       <use xlink:href="#DejaVuSans-6d" transform="translate(811.267578 0)"/>
       <use xlink:href="#DejaVuSans-65" transform="translate(908.679688 0)"/>
       <use xlink:href="#DejaVuSans-6e" transform="translate(970.203125 0)"/>
       <use xlink:href="#DejaVuSans-74" transform="translate(1033.582031 0)"/>
      </g>
     </g>
    </g>
   </g>
   <g id="matplotlib.axis_2">
    <g id="ytick_1">
     <g id="line2d_3">
      <path d="M 47.307188 282.386339 
L 333.067187 282.386339 
" clip-path="url(#p8a0ad0759c)" style="fill: none; stroke: #b0b0b0; stroke-opacity: 0.2; stroke-width: 0.6; stroke-linecap: square"/>
     </g>
     <g id="line2d_4">
      <defs>
       <path id="m937af3aefd" d="M 0 0 
L -3.5 0 
" style="stroke: #000000; stroke-width: 0.8"/>
      </defs>
      <g>
       <use xlink:href="#m937af3aefd" x="47.307188" y="282.386339" style="stroke: #000000; stroke-width: 0.8"/>
      </g>
     </g>
     <g id="text_2">
      <!-- 0.1 -->
      <g transform="translate(22.81375 286.565479) scale(0.11 -0.11)">
       <defs>
        <path id="DejaVuSans-30" d="M 2034 4250 
Q 1547 4250 1301 3770 
Q 1056 3291 1056 2328 
Q 1056 1369 1301 889 
Q 1547 409 2034 409 
Q 2525 409 2770 889 
Q 3016 1369 3016 2328 
Q 3016 3291 2770 3770 
Q 2525 4250 2034 4250 
z
M 2034 4750 
Q 2819 4750 3233 4129 
Q 3647 3509 3647 2328 
Q 3647 1150 3233 529 
Q 2819 -91 2034 -91 
Q 1250 -91 836 529 
Q 422 1150 422 2328 
Q 422 3509 836 4129 
Q 1250 4750 2034 4750 
z
" transform="scale(0.015625)"/>
        <path id="DejaVuSans-2e" d="M 684 794 
L 1344 794 
L 1344 0 
L 684 0 
L 684 794 
z
" transform="scale(0.015625)"/>
        <path id="DejaVuSans-31" d="M 794 531 
L 1825 531 
L 1825 4091 
L 703 3866 
L 703 4441 
L 1819 4666 
L 2450 4666 
L 2450 531 
L 3481 531 
L 3481 0 
L 794 0 
L 794 531 
z
" transform="scale(0.015625)"/>
       </defs>
       <use xlink:href="#DejaVuSans-30"/>
       <use xlink:href="#DejaVuSans-2e" transform="translate(63.623047 0)"/>
       <use xlink:href="#DejaVuSans-31" transform="translate(95.410156 0)"/>
      </g>
     </g>
    </g>
    <g id="ytick_2">
     <g id="line2d_5">
      <path d="M 47.307188 228.09916 
L 333.067187 228.09916 
" clip-path="url(#p8a0ad0759c)" style="fill: none; stroke: #b0b0b0; stroke-opacity: 0.2; stroke-width: 0.6; stroke-linecap: square"/>
     </g>
     <g id="line2d_6">
      <g>
       <use xlink:href="#m937af3aefd" x="47.307188" y="228.09916" style="stroke: #000000; stroke-width: 0.8"/>
      </g>
     </g>
     <g id="text_3">
      <!-- 0.2 -->
      <g transform="translate(22.81375 232.278301) scale(0.11 -0.11)">
       <defs>
        <path id="DejaVuSans-32" d="M 1228 531 
L 3431 531 
L 3431 0 
L 469 0 
L 469 531 
Q 828 903 1448 1529 
Q 2069 2156 2228 2338 
Q 2531 2678 2651 2914 
Q 2772 3150 2772 3378 
Q 2772 3750 2511 3984 
Q 2250 4219 1831 4219 
Q 1534 4219 1204 4116 
Q 875 4013 500 3803 
L 500 4441 
Q 881 4594 1212 4672 
Q 1544 4750 1819 4750 
Q 2544 4750 2975 4387 
Q 3406 4025 3406 3419 
Q 3406 3131 3298 2873 
Q 3191 2616 2906 2266 
Q 2828 2175 2409 1742 
Q 1991 1309 1228 531 
z
" transform="scale(0.015625)"/>
       </defs>
       <use xlink:href="#DejaVuSans-30"/>
       <use xlink:href="#DejaVuSans-2e" transform="translate(63.623047 0)"/>
       <use xlink:href="#DejaVuSans-32" transform="translate(95.410156 0)"/>
      </g>
     </g>
    </g>
    <g id="ytick_3">
     <g id="line2d_7">
      <path d="M 47.307188 173.811981 
L 333.067187 173.811981 
" clip-path="url(#p8a0ad0759c)" style="fill: none; stroke: #b0b0b0; stroke-opacity: 0.2; stroke-width: 0.6; stroke-linecap: square"/>
     </g>
     <g id="line2d_8">
      <g>
       <use xlink:href="#m937af3aefd" x="47.307188" y="173.811981" style="stroke: #000000; stroke-width: 0.8"/>
      </g>
     </g>
     <g id="text_4">
      <!-- 0.3 -->
      <g transform="translate(22.81375 177.991122) scale(0.11 -0.11)">
       <defs>
        <path id="DejaVuSans-33" d="M 2597 2516 
Q 3050 2419 3304 2112 
Q 3559 1806 3559 1356 
Q 3559 666 3084 287 
Q 2609 -91 1734 -91 
Q 1441 -91 1130 -33 
Q 819 25 488 141 
L 488 750 
Q 750 597 1062 519 
Q 1375 441 1716 441 
Q 2309 441 2620 675 
Q 2931 909 2931 1356 
Q 2931 1769 2642 2001 
Q 2353 2234 1838 2234 
L 1294 2234 
L 1294 2753 
L 1863 2753 
Q 2328 2753 2575 2939 
Q 2822 3125 2822 3475 
Q 2822 3834 2567 4026 
Q 2313 4219 1838 4219 
Q 1578 4219 1281 4162 
Q 984 4106 628 3988 
L 628 4550 
Q 988 4650 1302 4700 
Q 1616 4750 1894 4750 
Q 2613 4750 3031 4423 
Q 3450 4097 3450 3541 
Q 3450 3153 3228 2886 
Q 3006 2619 2597 2516 
z
" transform="scale(0.015625)"/>
       </defs>
       <use xlink:href="#DejaVuSans-30"/>
       <use xlink:href="#DejaVuSans-2e" transform="translate(63.623047 0)"/>
       <use xlink:href="#DejaVuSans-33" transform="translate(95.410156 0)"/>
      </g>
     </g>
    </g>
    <g id="ytick_4">
     <g id="line2d_9">
      <path d="M 47.307188 119.524803 
L 333.067187 119.524803 
" clip-path="url(#p8a0ad0759c)" style="fill: none; stroke: #b0b0b0; stroke-opacity: 0.2; stroke-width: 0.6; stroke-linecap: square"/>
     </g>
     <g id="line2d_10">
      <g>
       <use xlink:href="#m937af3aefd" x="47.307188" y="119.524803" style="stroke: #000000; stroke-width: 0.8"/>
      </g>
     </g>
     <g id="text_5">
      <!-- 0.4 -->
      <g transform="translate(22.81375 123.703944) scale(0.11 -0.11)">
       <defs>
        <path id="DejaVuSans-34" d="M 2419 4116 
L 825 1625 
L 2419 1625 
L 2419 4116 
z
M 2253 4666 
L 3047 4666 
L 3047 1625 
L 3713 1625 
L 3713 1100 
L 3047 1100 
L 3047 0 
L 2419 0 
L 2419 1100 
L 313 1100 
L 313 1709 
L 2253 4666 
z
" transform="scale(0.015625)"/>
       </defs>
       <use xlink:href="#DejaVuSans-30"/>
       <use xlink:href="#DejaVuSans-2e" transform="translate(63.623047 0)"/>
       <use xlink:href="#DejaVuSans-34" transform="translate(95.410156 0)"/>
      </g>
     </g>
    </g>
    <g id="ytick_5">
     <g id="line2d_11">
      <path d="M 47.307188 65.237624 
L 333.067187 65.237624 
" clip-path="url(#p8a0ad0759c)" style="fill: none; stroke: #b0b0b0; stroke-opacity: 0.2; stroke-width: 0.6; stroke-linecap: square"/>
     </g>
     <g id="line2d_12">
      <g>
       <use xlink:href="#m937af3aefd" x="47.307188" y="65.237624" style="stroke: #000000; stroke-width: 0.8"/>
      </g>
     </g>
     <g id="text_6">
      <!-- 0.5 -->
      <g transform="translate(22.81375 69.416765) scale(0.11 -0.11)">
       <defs>
        <path id="DejaVuSans-35" d="M 691 4666 
L 3169 4666 
L 3169 4134 
L 1269 4134 
L 1269 2991 
Q 1406 3038 1543 3061 
Q 1681 3084 1819 3084 
Q 2600 3084 3056 2656 
Q 3513 2228 3513 1497 
Q 3513 744 3044 326 
Q 2575 -91 1722 -91 
Q 1428 -91 1123 -41 
Q 819 9 494 109 
L 494 744 
Q 775 591 1075 516 
Q 1375 441 1709 441 
Q 2250 441 2565 725 
Q 2881 1009 2881 1497 
Q 2881 1984 2565 2268 
Q 2250 2553 1709 2553 
Q 1456 2553 1204 2497 
Q 953 2441 691 2322 
L 691 4666 
z
" transform="scale(0.015625)"/>
       </defs>
       <use xlink:href="#DejaVuSans-30"/>
       <use xlink:href="#DejaVuSans-2e" transform="translate(63.623047 0)"/>
       <use xlink:href="#DejaVuSans-35" transform="translate(95.410156 0)"/>
      </g>
     </g>
    </g>
    <g id="text_7">
     <!-- correlation (-1 to 1) -->
     <g transform="translate(16.318125 238.80456) rotate(-90) scale(0.12 -0.12)">
      <defs>
       <path id="DejaVuSans-63" d="M 3122 3366 
L 3122 2828 
Q 2878 2963 2633 3030 
Q 2388 3097 2138 3097 
Q 1578 3097 1268 2742 
Q 959 2388 959 1747 
Q 959 1106 1268 751 
Q 1578 397 2138 397 
Q 2388 397 2633 464 
Q 2878 531 3122 666 
L 3122 134 
Q 2881 22 2623 -34 
Q 2366 -91 2075 -91 
Q 1284 -91 818 406 
Q 353 903 353 1747 
Q 353 2603 823 3093 
Q 1294 3584 2113 3584 
Q 2378 3584 2631 3529 
Q 2884 3475 3122 3366 
z
" transform="scale(0.015625)"/>
       <path id="DejaVuSans-6f" d="M 1959 3097 
Q 1497 3097 1228 2736 
Q 959 2375 959 1747 
Q 959 1119 1226 758 
Q 1494 397 1959 397 
Q 2419 397 2687 759 
Q 2956 1122 2956 1747 
Q 2956 2369 2687 2733 
Q 2419 3097 1959 3097 
z
M 1959 3584 
Q 2709 3584 3137 3096 
Q 3566 2609 3566 1747 
Q 3566 888 3137 398 
Q 2709 -91 1959 -91 
Q 1206 -91 779 398 
Q 353 888 353 1747 
Q 353 2609 779 3096 
Q 1206 3584 1959 3584 
z
" transform="scale(0.015625)"/>
       <path id="DejaVuSans-72" d="M 2631 2963 
Q 2534 3019 2420 3045 
Q 2306 3072 2169 3072 
Q 1681 3072 1420 2755 
Q 1159 2438 1159 1844 
L 1159 0 
L 581 0 
L 581 3500 
L 1159 3500 
L 1159 2956 
Q 1341 3275 1631 3429 
Q 1922 3584 2338 3584 
Q 2397 3584 2469 3576 
Q 2541 3569 2628 3553 
L 2631 2963 
z
" transform="scale(0.015625)"/>
       <path id="DejaVuSans-28" d="M 1984 4856 
Q 1566 4138 1362 3434 
Q 1159 2731 1159 2009 
Q 1159 1288 1364 580 
Q 1569 -128 1984 -844 
L 1484 -844 
Q 1016 -109 783 600 
Q 550 1309 550 2009 
Q 550 2706 781 3412 
Q 1013 4119 1484 4856 
L 1984 4856 
z
" transform="scale(0.015625)"/>
       <path id="DejaVuSans-2d" d="M 313 2009 
L 1997 2009 
L 1997 1497 
L 313 1497 
L 313 2009 
z
" transform="scale(0.015625)"/>
       <path id="DejaVuSans-29" d="M 513 4856 
L 1013 4856 
Q 1481 4119 1714 3412 
Q 1947 2706 1947 2009 
Q 1947 1309 1714 600 
Q 1481 -109 1013 -844 
L 513 -844 
Q 928 -128 1133 580 
Q 1338 1288 1338 2009 
Q 1338 2731 1133 3434 
Q 928 4138 513 4856 
z
" transform="scale(0.015625)"/>
      </defs>
      <use xlink:href="#DejaVuSans-63"/>
      <use xlink:href="#DejaVuSans-6f" transform="translate(54.980469 0)"/>
      <use xlink:href="#DejaVuSans-72" transform="translate(116.162109 0)"/>
      <use xlink:href="#DejaVuSans-72" transform="translate(155.525391 0)"/>
      <use xlink:href="#DejaVuSans-65" transform="translate(194.388672 0)"/>
      <use xlink:href="#DejaVuSans-6c" transform="translate(255.912109 0)"/>
      <use xlink:href="#DejaVuSans-61" transform="translate(283.695312 0)"/>
      <use xlink:href="#DejaVuSans-74" transform="translate(344.974609 0)"/>
      <use xlink:href="#DejaVuSans-69" transform="translate(384.183594 0)"/>
      <use xlink:href="#DejaVuSans-6f" transform="translate(411.966797 0)"/>
      <use xlink:href="#DejaVuSans-6e" transform="translate(473.148438 0)"/>
      <use xlink:href="#DejaVuSans-20" transform="translate(536.527344 0)"/>
      <use xlink:href="#DejaVuSans-28" transform="translate(568.314453 0)"/>
      <use xlink:href="#DejaVuSans-2d" transform="translate(607.328125 0)"/>
      <use xlink:href="#DejaVuSans-31" transform="translate(643.412109 0)"/>
      <use xlink:href="#DejaVuSans-20" transform="translate(707.035156 0)"/>
      <use xlink:href="#DejaVuSans-74" transform="translate(738.822266 0)"/>
      <use xlink:href="#DejaVuSans-6f" transform="translate(778.03125 0)"/>
      <use xlink:href="#DejaVuSans-20" transform="translate(839.212891 0)"/>
      <use xlink:href="#DejaVuSans-31" transform="translate(871 0)"/>
      <use xlink:href="#DejaVuSans-29" transform="translate(934.623047 0)"/>
     </g>
    </g>
   </g>
   <g id="patch_3">
    <path d="M 60.296278 244.750503 
L 320.078097 244.750503 
L 320.078097 171.116722 
L 60.296278 171.116722 
L 60.296278 244.750503 
z
" clip-path="url(#p8a0ad0759c)" style="fill: #ea580c; opacity: 0.35; stroke: #ea580c; stroke-linejoin: miter"/>
   </g>
   <g id="line2d_13">
    <path d="M 190.187187 244.750503 
L 190.187187 312.957115 
" clip-path="url(#p8a0ad0759c)" style="fill: none; stroke: #000000; stroke-linecap: square"/>
   </g>
   <g id="line2d_14">
    <path d="M 190.187187 171.116722 
L 190.187187 156.872535 
" clip-path="url(#p8a0ad0759c)" style="fill: none; stroke: #000000; stroke-linecap: square"/>
   </g>
   <g id="line2d_15">
    <path d="M 125.241733 312.957115 
L 255.132642 312.957115 
" clip-path="url(#p8a0ad0759c)" style="fill: none; stroke: #000000; stroke-linecap: square"/>
   </g>
   <g id="line2d_16">
    <path d="M 125.241733 156.872535 
L 255.132642 156.872535 
" clip-path="url(#p8a0ad0759c)" style="fill: none; stroke: #000000; stroke-linecap: square"/>
   </g>
   <g id="line2d_17">
    <path d="M 60.296278 204.638886 
L 320.078097 204.638886 
" clip-path="url(#p8a0ad0759c)" style="fill: none; stroke: #ea580c"/>
   </g>
   <g id="patch_4">
    <path d="M 47.307188 326.21412 
L 47.307188 34.56 
" style="fill: none; stroke: #000000; stroke-width: 0.8; stroke-linejoin: miter; stroke-linecap: square"/>
   </g>
   <g id="patch_5">
    <path d="M 333.067187 326.21412 
L 333.067187 34.56 
" style="fill: none; stroke: #000000; stroke-width: 0.8; stroke-linejoin: miter; stroke-linecap: square"/>
   </g>
   <g id="patch_6">
    <path d="M 47.307187 326.21412 
L 333.067187 326.21412 
" style="fill: none; stroke: #000000; stroke-width: 0.8; stroke-linejoin: miter; stroke-linecap: square"/>
   </g>
   <g id="patch_7">
    <path d="M 47.307187 34.56 
L 333.067187 34.56 
" style="fill: none; stroke: #000000; stroke-width: 0.8; stroke-linejoin: miter; stroke-linecap: square"/>
   </g>
   <g id="PathCollection_1">
    <defs>
     <path id="m4721123e52" d="M 0 1.581139 
C 0.419323 1.581139 0.821528 1.41454 1.118034 1.118034 
C 1.41454 0.821528 1.581139 0.419323 1.581139 0 
C 1.581139 -0.419323 1.41454 -0.821528 1.118034 -1.118034 
C 0.821528 -1.41454 0.419323 -1.581139 0 -1.581139 
C -0.419323 -1.581139 -0.821528 -1.41454 -1.118034 -1.118034 
C -1.41454 -0.821528 -1.581139 -0.419323 -1.581139 0 
C -1.581139 0.419323 -1.41454 0.821528 -1.118034 1.118034 
C -0.821528 1.41454 -0.419323 1.581139 0 1.581139 
z
" style="stroke: #ea580c; stroke-opacity: 0.5"/>
    </defs>
    <g clip-path="url(#p8a0ad0759c)">
     <use xlink:href="#m4721123e52" x="195.464518" y="195.00239" style="fill: #ea580c; fill-opacity: 0.5; stroke: #ea580c; stroke-opacity: 0.5"/>
     <use xlink:href="#m4721123e52" x="172.175923" y="156.872535" style="fill: #ea580c; fill-opacity: 0.5; stroke: #ea580c; stroke-opacity: 0.5"/>
     <use xlink:href="#m4721123e52" x="203.184093" y="244.750503" style="fill: #ea580c; fill-opacity: 0.5; stroke: #ea580c; stroke-opacity: 0.5"/>
     <use xlink:href="#m4721123e52" x="206.476628" y="198.171179" style="fill: #ea580c; fill-opacity: 0.5; stroke: #ea580c; stroke-opacity: 0.5"/>
     <use xlink:href="#m4721123e52" x="156.397623" y="171.116722" style="fill: #ea580c; fill-opacity: 0.5; stroke: #ea580c; stroke-opacity: 0.5"/>
     <use xlink:href="#m4721123e52" x="167.635017" y="212.911962" style="fill: #ea580c; fill-opacity: 0.5; stroke: #ea580c; stroke-opacity: 0.5"/>
     <use xlink:href="#m4721123e52" x="192.401228" y="47.817005" style="fill: #ea580c; fill-opacity: 0.5; stroke: #ea580c; stroke-opacity: 0.5"/>
     <use xlink:href="#m4721123e52" x="184.710249" y="204.638886" style="fill: #ea580c; fill-opacity: 0.5; stroke: #ea580c; stroke-opacity: 0.5"/>
     <use xlink:href="#m4721123e52" x="189.896212" y="233.699227" style="fill: #ea580c; fill-opacity: 0.5; stroke: #ea580c; stroke-opacity: 0.5"/>
     <use xlink:href="#m4721123e52" x="175.413501" y="167.652784" style="fill: #ea580c; fill-opacity: 0.5; stroke: #ea580c; stroke-opacity: 0.5"/>
     <use xlink:href="#m4721123e52" x="205.417294" y="312.957115" style="fill: #ea580c; fill-opacity: 0.5; stroke: #ea580c; stroke-opacity: 0.5"/>
     <use xlink:href="#m4721123e52" x="203.657601" y="207.914258" style="fill: #ea580c; fill-opacity: 0.5; stroke: #ea580c; stroke-opacity: 0.5"/>
     <use xlink:href="#m4721123e52" x="191.330759" y="302.652978" style="fill: #ea580c; fill-opacity: 0.5; stroke: #ea580c; stroke-opacity: 0.5"/>
     <use xlink:href="#m4721123e52" x="209.709639" y="200.312909" style="fill: #ea580c; fill-opacity: 0.5; stroke: #ea580c; stroke-opacity: 0.5"/>
     <use xlink:href="#m4721123e52" x="198.283883" y="164.538554" style="fill: #ea580c; fill-opacity: 0.5; stroke: #ea580c; stroke-opacity: 0.5"/>
     <use xlink:href="#m4721123e52" x="175.305284" y="277.3564" style="fill: #ea580c; fill-opacity: 0.5; stroke: #ea580c; stroke-opacity: 0.5"/>
     <use xlink:href="#m4721123e52" x="196.573504" y="287.172328" style="fill: #ea580c; fill-opacity: 0.5; stroke: #ea580c; stroke-opacity: 0.5"/>
    </g>
   </g>
   <g id="PathCollection_2">
    <defs>
     <path id="m79562f05da" d="M -0 4.472136 
L 4.472136 0 
L 0 -4.472136 
L -4.472136 -0 
z
" style="stroke: #111827"/>
    </defs>
    <g clip-path="url(#p8a0ad0759c)">
     <use xlink:href="#m79562f05da" x="190.187187" y="200.312909" style="fill: #111827; stroke: #111827"/>
    </g>
   </g>
  </g>
  <g id="axes_2">
   <g id="patch_8">
    <path d="M 383.907187 326.21412 
L 669.667187 326.21412 
L 669.667187 34.56 
L 383.907187 34.56 
z
" style="fill: #ffffff"/>
   </g>
   <g id="matplotlib.axis_3">
    <g id="xtick_2">
     <g id="line2d_18">
      <path d="M 526.787187 326.21412 
L 526.787187 34.56 
" clip-path="url(#p18498a278d)" style="fill: none; stroke: #b0b0b0; stroke-opacity: 0.2; stroke-width: 0.6; stroke-linecap: square"/>
     </g>
     <g id="line2d_19">
      <g>
       <use xlink:href="#m8b64ba2c3e" x="526.787187" y="326.21412" style="stroke: #000000; stroke-width: 0.8"/>
      </g>
     </g>
     <g id="text_8">
      <!-- Peak smile-pattern similarity -->
      <g transform="translate(373.992657 382.070121) rotate(-15) scale(0.11 -0.11)">
       <defs>
        <path id="DejaVuSans-70" d="M 1159 525 
L 1159 -1331 
L 581 -1331 
L 581 3500 
L 1159 3500 
L 1159 2969 
Q 1341 3281 1617 3432 
Q 1894 3584 2278 3584 
Q 2916 3584 3314 3078 
Q 3713 2572 3713 1747 
Q 3713 922 3314 415 
Q 2916 -91 2278 -91 
Q 1894 -91 1617 61 
Q 1341 213 1159 525 
z
M 3116 1747 
Q 3116 2381 2855 2742 
Q 2594 3103 2138 3103 
Q 1681 3103 1420 2742 
Q 1159 2381 1159 1747 
Q 1159 1113 1420 752 
Q 1681 391 2138 391 
Q 2594 391 2855 752 
Q 3116 1113 3116 1747 
z
" transform="scale(0.015625)"/>
        <path id="DejaVuSans-79" d="M 2059 -325 
Q 1816 -950 1584 -1140 
Q 1353 -1331 966 -1331 
L 506 -1331 
L 506 -850 
L 844 -850 
Q 1081 -850 1212 -737 
Q 1344 -625 1503 -206 
L 1606 56 
L 191 3500 
L 800 3500 
L 1894 763 
L 2988 3500 
L 3597 3500 
L 2059 -325 
z
" transform="scale(0.015625)"/>
       </defs>
       <use xlink:href="#DejaVuSans-50"/>
       <use xlink:href="#DejaVuSans-65" transform="translate(56.677734 0)"/>
       <use xlink:href="#DejaVuSans-61" transform="translate(118.201172 0)"/>
       <use xlink:href="#DejaVuSans-6b" transform="translate(179.480469 0)"/>
       <use xlink:href="#DejaVuSans-20" transform="translate(237.390625 0)"/>
       <use xlink:href="#DejaVuSans-73" transform="translate(269.177734 0)"/>
       <use xlink:href="#DejaVuSans-6d" transform="translate(321.277344 0)"/>
       <use xlink:href="#DejaVuSans-69" transform="translate(418.689453 0)"/>
       <use xlink:href="#DejaVuSans-6c" transform="translate(446.472656 0)"/>
       <use xlink:href="#DejaVuSans-65" transform="translate(474.255859 0)"/>
       <use xlink:href="#DejaVuSans-2d" transform="translate(535.779297 0)"/>
       <use xlink:href="#DejaVuSans-70" transform="translate(571.863281 0)"/>
       <use xlink:href="#DejaVuSans-61" transform="translate(635.339844 0)"/>
       <use xlink:href="#DejaVuSans-74" transform="translate(696.619141 0)"/>
       <use xlink:href="#DejaVuSans-74" transform="translate(735.828125 0)"/>
       <use xlink:href="#DejaVuSans-65" transform="translate(775.037109 0)"/>
       <use xlink:href="#DejaVuSans-72" transform="translate(836.560547 0)"/>
       <use xlink:href="#DejaVuSans-6e" transform="translate(875.923828 0)"/>
       <use xlink:href="#DejaVuSans-20" transform="translate(939.302734 0)"/>
       <use xlink:href="#DejaVuSans-73" transform="translate(971.089844 0)"/>
       <use xlink:href="#DejaVuSans-69" transform="translate(1023.189453 0)"/>
       <use xlink:href="#DejaVuSans-6d" transform="translate(1050.972656 0)"/>
       <use xlink:href="#DejaVuSans-69" transform="translate(1148.384766 0)"/>
       <use xlink:href="#DejaVuSans-6c" transform="translate(1176.167969 0)"/>
       <use xlink:href="#DejaVuSans-61" transform="translate(1203.951172 0)"/>
       <use xlink:href="#DejaVuSans-72" transform="translate(1265.230469 0)"/>
       <use xlink:href="#DejaVuSans-69" transform="translate(1306.34375 0)"/>
       <use xlink:href="#DejaVuSans-74" transform="translate(1334.126953 0)"/>
       <use xlink:href="#DejaVuSans-79" transform="translate(1373.335938 0)"/>
      </g>
     </g>
    </g>
   </g>
   <g id="matplotlib.axis_4">
    <g id="ytick_6">
     <g id="line2d_20">
      <path d="M 383.907187 291.683988 
L 669.667187 291.683988 
" clip-path="url(#p18498a278d)" style="fill: none; stroke: #b0b0b0; stroke-opacity: 0.2; stroke-width: 0.6; stroke-linecap: square"/>
     </g>
     <g id="line2d_21">
      <g>
       <use xlink:href="#m937af3aefd" x="383.907187" y="291.683988" style="stroke: #000000; stroke-width: 0.8"/>
      </g>
     </g>
     <g id="text_9">
      <!-- 0.5 -->
      <g transform="translate(359.41375 295.863129) scale(0.11 -0.11)">
       <use xlink:href="#DejaVuSans-30"/>
       <use xlink:href="#DejaVuSans-2e" transform="translate(63.623047 0)"/>
       <use xlink:href="#DejaVuSans-35" transform="translate(95.410156 0)"/>
      </g>
     </g>
    </g>
    <g id="ytick_7">
     <g id="line2d_22">
      <path d="M 383.907187 242.762296 
L 669.667187 242.762296 
" clip-path="url(#p18498a278d)" style="fill: none; stroke: #b0b0b0; stroke-opacity: 0.2; stroke-width: 0.6; stroke-linecap: square"/>
     </g>
     <g id="line2d_23">
      <g>
       <use xlink:href="#m937af3aefd" x="383.907187" y="242.762296" style="stroke: #000000; stroke-width: 0.8"/>
      </g>
     </g>
     <g id="text_10">
      <!-- 0.6 -->
      <g transform="translate(359.41375 246.941437) scale(0.11 -0.11)">
       <defs>
        <path id="DejaVuSans-36" d="M 2113 2584 
Q 1688 2584 1439 2293 
Q 1191 2003 1191 1497 
Q 1191 994 1439 701 
Q 1688 409 2113 409 
Q 2538 409 2786 701 
Q 3034 994 3034 1497 
Q 3034 2003 2786 2293 
Q 2538 2584 2113 2584 
z
M 3366 4563 
L 3366 3988 
Q 3128 4100 2886 4159 
Q 2644 4219 2406 4219 
Q 1781 4219 1451 3797 
Q 1122 3375 1075 2522 
Q 1259 2794 1537 2939 
Q 1816 3084 2150 3084 
Q 2853 3084 3261 2657 
Q 3669 2231 3669 1497 
Q 3669 778 3244 343 
Q 2819 -91 2113 -91 
Q 1303 -91 875 529 
Q 447 1150 447 2328 
Q 447 3434 972 4092 
Q 1497 4750 2381 4750 
Q 2619 4750 2861 4703 
Q 3103 4656 3366 4563 
z
" transform="scale(0.015625)"/>
       </defs>
       <use xlink:href="#DejaVuSans-30"/>
       <use xlink:href="#DejaVuSans-2e" transform="translate(63.623047 0)"/>
       <use xlink:href="#DejaVuSans-36" transform="translate(95.410156 0)"/>
      </g>
     </g>
    </g>
    <g id="ytick_8">
     <g id="line2d_24">
      <path d="M 383.907187 193.840604 
L 669.667187 193.840604 
" clip-path="url(#p18498a278d)" style="fill: none; stroke: #b0b0b0; stroke-opacity: 0.2; stroke-width: 0.6; stroke-linecap: square"/>
     </g>
     <g id="line2d_25">
      <g>
       <use xlink:href="#m937af3aefd" x="383.907187" y="193.840604" style="stroke: #000000; stroke-width: 0.8"/>
      </g>
     </g>
     <g id="text_11">
      <!-- 0.7 -->
      <g transform="translate(359.41375 198.019744) scale(0.11 -0.11)">
       <defs>
        <path id="DejaVuSans-37" d="M 525 4666 
L 3525 4666 
L 3525 4397 
L 1831 0 
L 1172 0 
L 2766 4134 
L 525 4134 
L 525 4666 
z
" transform="scale(0.015625)"/>
       </defs>
       <use xlink:href="#DejaVuSans-30"/>
       <use xlink:href="#DejaVuSans-2e" transform="translate(63.623047 0)"/>
       <use xlink:href="#DejaVuSans-37" transform="translate(95.410156 0)"/>
      </g>
     </g>
    </g>
    <g id="ytick_9">
     <g id="line2d_26">
      <path d="M 383.907187 144.918912 
L 669.667187 144.918912 
" clip-path="url(#p18498a278d)" style="fill: none; stroke: #b0b0b0; stroke-opacity: 0.2; stroke-width: 0.6; stroke-linecap: square"/>
     </g>
     <g id="line2d_27">
      <g>
       <use xlink:href="#m937af3aefd" x="383.907187" y="144.918912" style="stroke: #000000; stroke-width: 0.8"/>
      </g>
     </g>
     <g id="text_12">
      <!-- 0.8 -->
      <g transform="translate(359.41375 149.098052) scale(0.11 -0.11)">
       <defs>
        <path id="DejaVuSans-38" d="M 2034 2216 
Q 1584 2216 1326 1975 
Q 1069 1734 1069 1313 
Q 1069 891 1326 650 
Q 1584 409 2034 409 
Q 2484 409 2743 651 
Q 3003 894 3003 1313 
Q 3003 1734 2745 1975 
Q 2488 2216 2034 2216 
z
M 1403 2484 
Q 997 2584 770 2862 
Q 544 3141 544 3541 
Q 544 4100 942 4425 
Q 1341 4750 2034 4750 
Q 2731 4750 3128 4425 
Q 3525 4100 3525 3541 
Q 3525 3141 3298 2862 
Q 3072 2584 2669 2484 
Q 3125 2378 3379 2068 
Q 3634 1759 3634 1313 
Q 3634 634 3220 271 
Q 2806 -91 2034 -91 
Q 1263 -91 848 271 
Q 434 634 434 1313 
Q 434 1759 690 2068 
Q 947 2378 1403 2484 
z
M 1172 3481 
Q 1172 3119 1398 2916 
Q 1625 2713 2034 2713 
Q 2441 2713 2670 2916 
Q 2900 3119 2900 3481 
Q 2900 3844 2670 4047 
Q 2441 4250 2034 4250 
Q 1625 4250 1398 4047 
Q 1172 3844 1172 3481 
z
" transform="scale(0.015625)"/>
       </defs>
       <use xlink:href="#DejaVuSans-30"/>
       <use xlink:href="#DejaVuSans-2e" transform="translate(63.623047 0)"/>
       <use xlink:href="#DejaVuSans-38" transform="translate(95.410156 0)"/>
      </g>
     </g>
    </g>
    <g id="ytick_10">
     <g id="line2d_28">
      <path d="M 383.907187 95.99722 
L 669.667187 95.99722 
" clip-path="url(#p18498a278d)" style="fill: none; stroke: #b0b0b0; stroke-opacity: 0.2; stroke-width: 0.6; stroke-linecap: square"/>
     </g>
     <g id="line2d_29">
      <g>
       <use xlink:href="#m937af3aefd" x="383.907187" y="95.99722" style="stroke: #000000; stroke-width: 0.8"/>
      </g>
     </g>
     <g id="text_13">
      <!-- 0.9 -->
      <g transform="translate(359.41375 100.17636) scale(0.11 -0.11)">
       <defs>
        <path id="DejaVuSans-39" d="M 703 97 
L 703 672 
Q 941 559 1184 500 
Q 1428 441 1663 441 
Q 2288 441 2617 861 
Q 2947 1281 2994 2138 
Q 2813 1869 2534 1725 
Q 2256 1581 1919 1581 
Q 1219 1581 811 2004 
Q 403 2428 403 3163 
Q 403 3881 828 4315 
Q 1253 4750 1959 4750 
Q 2769 4750 3195 4129 
Q 3622 3509 3622 2328 
Q 3622 1225 3098 567 
Q 2575 -91 1691 -91 
Q 1453 -91 1209 -44 
Q 966 3 703 97 
z
M 1959 2075 
Q 2384 2075 2632 2365 
Q 2881 2656 2881 3163 
Q 2881 3666 2632 3958 
Q 2384 4250 1959 4250 
Q 1534 4250 1286 3958 
Q 1038 3666 1038 3163 
Q 1038 2656 1286 2365 
Q 1534 2075 1959 2075 
z
" transform="scale(0.015625)"/>
       </defs>
       <use xlink:href="#DejaVuSans-30"/>
       <use xlink:href="#DejaVuSans-2e" transform="translate(63.623047 0)"/>
       <use xlink:href="#DejaVuSans-39" transform="translate(95.410156 0)"/>
      </g>
     </g>
    </g>
    <g id="ytick_11">
     <g id="line2d_30">
      <path d="M 383.907187 47.075528 
L 669.667187 47.075528 
" clip-path="url(#p18498a278d)" style="fill: none; stroke: #b0b0b0; stroke-opacity: 0.2; stroke-width: 0.6; stroke-linecap: square"/>
     </g>
     <g id="line2d_31">
      <g>
       <use xlink:href="#m937af3aefd" x="383.907187" y="47.075528" style="stroke: #000000; stroke-width: 0.8"/>
      </g>
     </g>
     <g id="text_14">
      <!-- 1.0 -->
      <g transform="translate(359.41375 51.254668) scale(0.11 -0.11)">
       <use xlink:href="#DejaVuSans-31"/>
       <use xlink:href="#DejaVuSans-2e" transform="translate(63.623047 0)"/>
       <use xlink:href="#DejaVuSans-30" transform="translate(95.410156 0)"/>
      </g>
     </g>
    </g>
    <g id="text_15">
     <!-- cosine similarity (0-1) -->
     <g transform="translate(352.918125 245.623935) rotate(-90) scale(0.12 -0.12)">
      <use xlink:href="#DejaVuSans-63"/>
      <use xlink:href="#DejaVuSans-6f" transform="translate(54.980469 0)"/>
      <use xlink:href="#DejaVuSans-73" transform="translate(116.162109 0)"/>
      <use xlink:href="#DejaVuSans-69" transform="translate(168.261719 0)"/>
      <use xlink:href="#DejaVuSans-6e" transform="translate(196.044922 0)"/>
      <use xlink:href="#DejaVuSans-65" transform="translate(259.423828 0)"/>
      <use xlink:href="#DejaVuSans-20" transform="translate(320.947266 0)"/>
      <use xlink:href="#DejaVuSans-73" transform="translate(352.734375 0)"/>
      <use xlink:href="#DejaVuSans-69" transform="translate(404.833984 0)"/>
      <use xlink:href="#DejaVuSans-6d" transform="translate(432.617188 0)"/>
      <use xlink:href="#DejaVuSans-69" transform="translate(530.029297 0)"/>
      <use xlink:href="#DejaVuSans-6c" transform="translate(557.8125 0)"/>
      <use xlink:href="#DejaVuSans-61" transform="translate(585.595703 0)"/>
      <use xlink:href="#DejaVuSans-72" transform="translate(646.875 0)"/>
      <use xlink:href="#DejaVuSans-69" transform="translate(687.988281 0)"/>
      <use xlink:href="#DejaVuSans-74" transform="translate(715.771484 0)"/>
      <use xlink:href="#DejaVuSans-79" transform="translate(754.980469 0)"/>
      <use xlink:href="#DejaVuSans-20" transform="translate(814.160156 0)"/>
      <use xlink:href="#DejaVuSans-28" transform="translate(845.947266 0)"/>
      <use xlink:href="#DejaVuSans-30" transform="translate(884.960938 0)"/>
      <use xlink:href="#DejaVuSans-2d" transform="translate(948.583984 0)"/>
      <use xlink:href="#DejaVuSans-31" transform="translate(984.667969 0)"/>
      <use xlink:href="#DejaVuSans-29" transform="translate(1048.291016 0)"/>
     </g>
    </g>
   </g>
   <g id="patch_9">
    <path d="M 396.896278 123.080922 
L 656.678097 123.080922 
L 656.678097 59.630748 
L 396.896278 59.630748 
L 396.896278 123.080922 
z
" clip-path="url(#p18498a278d)" style="fill: #ea580c; opacity: 0.35; stroke: #ea580c; stroke-linejoin: miter"/>
   </g>
   <g id="line2d_32">
    <path d="M 526.787187 123.080922 
L 526.787187 211.391344 
" clip-path="url(#p18498a278d)" style="fill: none; stroke: #000000; stroke-linecap: square"/>
   </g>
   <g id="line2d_33">
    <path d="M 526.787187 59.630748 
L 526.787187 47.817005 
" clip-path="url(#p18498a278d)" style="fill: none; stroke: #000000; stroke-linecap: square"/>
   </g>
   <g id="line2d_34">
    <path d="M 461.841733 211.391344 
L 591.732642 211.391344 
" clip-path="url(#p18498a278d)" style="fill: none; stroke: #000000; stroke-linecap: square"/>
   </g>
   <g id="line2d_35">
    <path d="M 461.841733 47.817005 
L 591.732642 47.817005 
" clip-path="url(#p18498a278d)" style="fill: none; stroke: #000000; stroke-linecap: square"/>
   </g>
   <g id="line2d_36">
    <path d="M 396.896278 98.149284 
L 656.678097 98.149284 
" clip-path="url(#p18498a278d)" style="fill: none; stroke: #ea580c"/>
   </g>
   <g id="patch_10">
    <path d="M 383.907187 326.21412 
L 383.907187 34.56 
" style="fill: none; stroke: #000000; stroke-width: 0.8; stroke-linejoin: miter; stroke-linecap: square"/>
   </g>
   <g id="patch_11">
    <path d="M 669.667187 326.21412 
L 669.667187 34.56 
" style="fill: none; stroke: #000000; stroke-width: 0.8; stroke-linejoin: miter; stroke-linecap: square"/>
   </g>
   <g id="patch_12">
    <path d="M 383.907187 326.21412 
L 669.667187 326.21412 
" style="fill: none; stroke: #000000; stroke-width: 0.8; stroke-linejoin: miter; stroke-linecap: square"/>
   </g>
   <g id="patch_13">
    <path d="M 383.907187 34.56 
L 669.667187 34.56 
" style="fill: none; stroke: #000000; stroke-width: 0.8; stroke-linejoin: miter; stroke-linecap: square"/>
   </g>
   <g id="PathCollection_3">
    <g clip-path="url(#p18498a278d)">
     <use xlink:href="#m4721123e52" x="532.064518" y="133.661284" style="fill: #ea580c; fill-opacity: 0.5; stroke: #ea580c; stroke-opacity: 0.5"/>
     <use xlink:href="#m4721123e52" x="508.775923" y="211.391344" style="fill: #ea580c; fill-opacity: 0.5; stroke: #ea580c; stroke-opacity: 0.5"/>
     <use xlink:href="#m4721123e52" x="539.784093" y="110.75071" style="fill: #ea580c; fill-opacity: 0.5; stroke: #ea580c; stroke-opacity: 0.5"/>
     <use xlink:href="#m4721123e52" x="543.076628" y="312.957115" style="fill: #ea580c; fill-opacity: 0.5; stroke: #ea580c; stroke-opacity: 0.5"/>
     <use xlink:href="#m4721123e52" x="492.997623" y="123.080922" style="fill: #ea580c; fill-opacity: 0.5; stroke: #ea580c; stroke-opacity: 0.5"/>
     <use xlink:href="#m4721123e52" x="504.235017" y="47.817005" style="fill: #ea580c; fill-opacity: 0.5; stroke: #ea580c; stroke-opacity: 0.5"/>
     <use xlink:href="#m4721123e52" x="529.001228" y="50.785439" style="fill: #ea580c; fill-opacity: 0.5; stroke: #ea580c; stroke-opacity: 0.5"/>
     <use xlink:href="#m4721123e52" x="521.310249" y="48.418008" style="fill: #ea580c; fill-opacity: 0.5; stroke: #ea580c; stroke-opacity: 0.5"/>
     <use xlink:href="#m4721123e52" x="526.496212" y="100.325102" style="fill: #ea580c; fill-opacity: 0.5; stroke: #ea580c; stroke-opacity: 0.5"/>
     <use xlink:href="#m4721123e52" x="512.013501" y="84.78033" style="fill: #ea580c; fill-opacity: 0.5; stroke: #ea580c; stroke-opacity: 0.5"/>
     <use xlink:href="#m4721123e52" x="542.017294" y="229.805907" style="fill: #ea580c; fill-opacity: 0.5; stroke: #ea580c; stroke-opacity: 0.5"/>
     <use xlink:href="#m4721123e52" x="540.257601" y="106.881688" style="fill: #ea580c; fill-opacity: 0.5; stroke: #ea580c; stroke-opacity: 0.5"/>
     <use xlink:href="#m4721123e52" x="527.930759" y="62.39994" style="fill: #ea580c; fill-opacity: 0.5; stroke: #ea580c; stroke-opacity: 0.5"/>
     <use xlink:href="#m4721123e52" x="546.309639" y="98.149284" style="fill: #ea580c; fill-opacity: 0.5; stroke: #ea580c; stroke-opacity: 0.5"/>
     <use xlink:href="#m4721123e52" x="534.883883" y="76.976168" style="fill: #ea580c; fill-opacity: 0.5; stroke: #ea580c; stroke-opacity: 0.5"/>
     <use xlink:href="#m4721123e52" x="511.905284" y="48.730278" style="fill: #ea580c; fill-opacity: 0.5; stroke: #ea580c; stroke-opacity: 0.5"/>
     <use xlink:href="#m4721123e52" x="533.173504" y="59.630748" style="fill: #ea580c; fill-opacity: 0.5; stroke: #ea580c; stroke-opacity: 0.5"/>
    </g>
   </g>
   <g id="PathCollection_4">
    <g clip-path="url(#p18498a278d)">
     <use xlink:href="#m79562f05da" x="526.787187" y="98.149284" style="fill: #111827; stroke: #111827"/>
    </g>
   </g>
   <g id="legend_1">
    <g id="patch_14">
     <path d="M 393.807187 297.880527 
L 415.807187 297.880527 
L 415.807187 290.180527 
L 393.807187 290.180527 
z
" style="fill: #ea580c; opacity: 0.35; stroke: #ea580c; stroke-linejoin: miter"/>
    </g>
    <g id="text_16">
     <!-- Reference group -->
     <g transform="translate(424.607187 297.880527) scale(0.11 -0.11)">
      <defs>
       <path id="DejaVuSans-52" d="M 2841 2188 
Q 3044 2119 3236 1894 
Q 3428 1669 3622 1275 
L 4263 0 
L 3584 0 
L 2988 1197 
Q 2756 1666 2539 1819 
Q 2322 1972 1947 1972 
L 1259 1972 
L 1259 0 
L 628 0 
L 628 4666 
L 2053 4666 
Q 2853 4666 3247 4331 
Q 3641 3997 3641 3322 
Q 3641 2881 3436 2590 
Q 3231 2300 2841 2188 
z
M 1259 4147 
L 1259 2491 
L 2053 2491 
Q 2509 2491 2742 2702 
Q 2975 2913 2975 3322 
Q 2975 3731 2742 3939 
Q 2509 4147 2053 4147 
L 1259 4147 
z
" transform="scale(0.015625)"/>
       <path id="DejaVuSans-66" d="M 2375 4863 
L 2375 4384 
L 1825 4384 
Q 1516 4384 1395 4259 
Q 1275 4134 1275 3809 
L 1275 3500 
L 2222 3500 
L 2222 3053 
L 1275 3053 
L 1275 0 
L 697 0 
L 697 3053 
L 147 3053 
L 147 3500 
L 697 3500 
L 697 3744 
Q 697 4328 969 4595 
Q 1241 4863 1831 4863 
L 2375 4863 
z
" transform="scale(0.015625)"/>
       <path id="DejaVuSans-75" d="M 544 1381 
L 544 3500 
L 1119 3500 
L 1119 1403 
Q 1119 906 1312 657 
Q 1506 409 1894 409 
Q 2359 409 2629 706 
Q 2900 1003 2900 1516 
L 2900 3500 
L 3475 3500 
L 3475 0 
L 2900 0 
L 2900 538 
Q 2691 219 2414 64 
Q 2138 -91 1772 -91 
Q 1169 -91 856 284 
Q 544 659 544 1381 
z
M 1991 3584 
L 1991 3584 
z
" transform="scale(0.015625)"/>
      </defs>
      <use xlink:href="#DejaVuSans-52"/>
      <use xlink:href="#DejaVuSans-65" transform="translate(64.982422 0)"/>
      <use xlink:href="#DejaVuSans-66" transform="translate(126.505859 0)"/>
      <use xlink:href="#DejaVuSans-65" transform="translate(161.710938 0)"/>
      <use xlink:href="#DejaVuSans-72" transform="translate(223.234375 0)"/>
      <use xlink:href="#DejaVuSans-65" transform="translate(262.097656 0)"/>
      <use xlink:href="#DejaVuSans-6e" transform="translate(323.621094 0)"/>
      <use xlink:href="#DejaVuSans-63" transform="translate(387 0)"/>
      <use xlink:href="#DejaVuSans-65" transform="translate(441.980469 0)"/>
      <use xlink:href="#DejaVuSans-20" transform="translate(503.503906 0)"/>
      <use xlink:href="#DejaVuSans-67" transform="translate(535.291016 0)"/>
      <use xlink:href="#DejaVuSans-72" transform="translate(598.767578 0)"/>
      <use xlink:href="#DejaVuSans-6f" transform="translate(637.630859 0)"/>
      <use xlink:href="#DejaVuSans-75" transform="translate(698.8125 0)"/>
      <use xlink:href="#DejaVuSans-70" transform="translate(762.191406 0)"/>
     </g>
    </g>
    <g id="line2d_37">
     <defs>
      <path id="m0561b92aae" d="M -0 4.242641 
L 4.242641 0 
L 0 -4.242641 
L -4.242641 -0 
z
" style="stroke: #111827; stroke-linejoin: miter"/>
     </defs>
     <g>
      <use xlink:href="#m0561b92aae" x="404.807187" y="310.176464" style="fill: #111827; stroke: #111827; stroke-linejoin: miter"/>
     </g>
    </g>
    <g id="text_17">
     <!-- ADHD prototype -->
     <g transform="translate(424.607187 314.026464) scale(0.11 -0.11)">
      <defs>
       <path id="DejaVuSans-41" d="M 2188 4044 
L 1331 1722 
L 3047 1722 
L 2188 4044 
z
M 1831 4666 
L 2547 4666 
L 4325 0 
L 3669 0 
L 3244 1197 
L 1141 1197 
L 716 0 
L 50 0 
L 1831 4666 
z
" transform="scale(0.015625)"/>
       <path id="DejaVuSans-44" d="M 1259 4147 
L 1259 519 
L 2022 519 
Q 2988 519 3436 956 
Q 3884 1394 3884 2338 
Q 3884 3275 3436 3711 
Q 2988 4147 2022 4147 
L 1259 4147 
z
M 628 4666 
L 1925 4666 
Q 3281 4666 3915 4102 
Q 4550 3538 4550 2338 
Q 4550 1131 3912 565 
Q 3275 0 1925 0 
L 628 0 
L 628 4666 
z
" transform="scale(0.015625)"/>
       <path id="DejaVuSans-48" d="M 628 4666 
L 1259 4666 
L 1259 2753 
L 3553 2753 
L 3553 4666 
L 4184 4666 
L 4184 0 
L 3553 0 
L 3553 2222 
L 1259 2222 
L 1259 0 
L 628 0 
L 628 4666 
z
" transform="scale(0.015625)"/>
      </defs>
      <use xlink:href="#DejaVuSans-41"/>
      <use xlink:href="#DejaVuSans-44" transform="translate(68.408203 0)"/>
      <use xlink:href="#DejaVuSans-48" transform="translate(145.410156 0)"/>
      <use xlink:href="#DejaVuSans-44" transform="translate(220.605469 0)"/>
      <use xlink:href="#DejaVuSans-20" transform="translate(297.607422 0)"/>
      <use xlink:href="#DejaVuSans-70" transform="translate(329.394531 0)"/>
      <use xlink:href="#DejaVuSans-72" transform="translate(392.871094 0)"/>
      <use xlink:href="#DejaVuSans-6f" transform="translate(431.734375 0)"/>
      <use xlink:href="#DejaVuSans-74" transform="translate(492.916016 0)"/>
      <use xlink:href="#DejaVuSans-6f" transform="translate(532.125 0)"/>
      <use xlink:href="#DejaVuSans-74" transform="translate(593.306641 0)"/>
      <use xlink:href="#DejaVuSans-79" transform="translate(632.515625 0)"/>
      <use xlink:href="#DejaVuSans-70" transform="translate(691.695312 0)"/>
      <use xlink:href="#DejaVuSans-65" transform="translate(755.171875 0)"/>
     </g>
    </g>
   </g>
  </g>
  <g id="text_18">
   <!-- ADHD -->
   <g transform="translate(317.634531 17.837812) scale(0.14 -0.14)">
    <use xlink:href="#DejaVuSans-41"/>
    <use xlink:href="#DejaVuSans-44" transform="translate(68.408203 0)"/>
    <use xlink:href="#DejaVuSans-48" transform="translate(145.410156 0)"/>
    <use xlink:href="#DejaVuSans-44" transform="translate(220.605469 0)"/>
   </g>
  </g>
 </g>
 <defs>
  <clipPath id="p8a0ad0759c">
   <rect x="47.307188" y="34.56" width="285.76" height="291.65412"/>
  </clipPath>
  <clipPath id="p18498a278d">
   <rect x="383.907187" y="34.56" width="285.76" height="291.65412"/>
  </clipPath>
 </defs>
</svg>
