<?xml version="1.0" encoding="utf-8" standalone="no"?>
<!DOCTYPE svg PUBLIC "-//W3C//DTD SVG 1.1//EN"
  "http://www.w3.org/Graphics/SVG/1.1/DTD/svg11.dtd">
<svg xmlns:xlink="http://www.w3.org/1999/xlink" width="712.837188pt" height="424.5775pt" viewBox="0 0 712.837188 424.5775" xmlns="http://www.w3.org/2000/svg" version="1.1">
 <metadata>
  <rdf:RDF xmlns:dc="http://purl.org/dc/elements/1.1/" xmlns:cc="http://creativecommons.org/ns#" xmlns:rdf="http://www.w3.org/1999/02/22-rdf-syntax-ns#">
   <cc:Work>
    <dc:type rdf:resource="http://purl.org/dc/dcmitype/StillImage"/>
    <dc:date>2026-06-14T19:00:32.012172</dc:date>
    <dc:format>image/svg+xml</dc:format>
    <dc:creator>
     <cc:Agent>
      <dc:title>Matplotlib v3.10.1, https://matplotlib.org/</dc:title>
     </cc:Agent>
    </dc:creator>
   </cc:Work>
  </rdf:RDF>
 </metadata>
 <defs>
  <style type="text/css">*{stroke-linejoin: round; stroke-linecap: butt}</style>
 </defs>
 <g id="figure_1">
  <g id="patch_1">
   <path d="M 0 424.5775 
L 712.837188 424.5775 
L 712.837188 0 
L 0 0 
z
" style="fill: #ffffff"/>
  </g>
  <g id="axes_1">
   <g id="patch_2">
    <path d="M 47.307188 384.117812 
L 705.637188 384.117812 
L 705.637188 23.837812 
L 47.307188 23.837812 
z
" style="fill: #ffffff"/>
   </g>
   <g id="matplotlib.axis_1">
    <g id="xtick_1">
     <g id="line2d_1">
      <path d="M 47.307188 384.117812 
L 47.307188 23.837812 
" clip-path="url(#pd7b903ccff)" style="fill: none; stroke: #b0b0b0; stroke-opacity: 0.2; stroke-width: 0.6; stroke-linecap: square"/>
     </g>
     <g id="line2d_2">
      <defs>
       <path id="m79d31f16fe" d="M 0 0 
L 0 3.5 
" style="stroke: #000000; stroke-width: 0.8"/>
      </defs>
      <g>
       <use xlink:href="#m79d31f16fe" x="47.307188" y="384.117812" style="stroke: #000000; stroke-width: 0.8"/>
      </g>
     </g>
     <g id="text_1">
      <!-- 0 -->
      <g transform="translate(43.807813 399.476094) scale(0.11 -0.11)">
       <defs>
        <path id="DejaVuSans-30" d="M 2034 4250 
Q 1547 4250 1301 3770 
Q 1056 3291 1056 2328 
Q 1056 1369 1301 889 
Q 1547 409 2034 409 
Q 2525 409 2770 889 
Q 3016 1369 3016 2328 
Q 3016 3291 2770 3770 
Q 2525 4250 2034 4250 
z
M 2034 4750 
Q 2819 4750 3233 4129 
Q 3647 3509 3647 2328 
Q 3647 1150 3233 529 
Q 2819 -91 2034 -91 
Q 1250 -91 836 529 
Q 422 1150 422 2328 
Q 422 3509 836 4129 
Q 1250 4750 2034 4750 
z
" transform="scale(0.015625)"/>
       </defs>
       <use xlink:href="#DejaVuSans-30"/>
      </g>
     </g>
    </g>
    <g id="xtick_2">
     <g id="line2d_3">
      <path d="M 134.387875 384.117812 
L 134.387875 23.837812 
" clip-path="url(#pd7b903ccff)" style="fill: none; stroke: #b0b0b0; stroke-opacity: 0.2; stroke-width: 0.6; stroke-linecap: square"/>
     </g>
     <g id="line2d_4">
      <g>
       <use xlink:href="#m79d31f16fe" x="134.387875" y="384.117812" style="stroke: #000000; stroke-width: 0.8"/>
      </g>
     </g>
     <g id="text_2">
      <!-- 25 -->
      <g transform="translate(127.389125 399.476094) scale(0.11 -0.11)">
       <defs>
        <path id="DejaVuSans-32" d="M 1228 531 
L 3431 531 
L 3431 0 
L 469 0 
L 469 531 
Q 828 903 1448 1529 
Q 2069 2156 2228 2338 
Q 2531 2678 2651 2914 
Q 2772 3150 2772 3378 
Q 2772 3750 2511 3984 
Q 2250 4219 1831 4219 
Q 1534 4219 1204 4116 
Q 875 4013 500 3803 
L 500 4441 
Q 881 4594 1212 4672 
Q 1544 4750 1819 4750 
Q 2544 4750 2975 4387 
Q 3406 4025 3406 3419 
Q 3406 3131 3298 2873 
Q 3191 2616 2906 2266 
Q 2828 2175 2409 1742 
Q 1991 1309 1228 531 
z
" transform="scale(0.015625)"/>
        <path id="DejaVuSans-35" d="M 691 4666 
L 3169 4666 
L 3169 4134 
L 1269 4134 
L 1269 2991 
Q 1406 3038 1543 3061 
Q 1681 3084 1819 3084 
Q 2600 3084 3056 2656 
Q 3513 2228 3513 1497 
Q 3513 744 3044 326 
Q 2575 -91 1722 -91 
Q 1428 -91 1123 -41 
Q 819 9 494 109 
L 494 744 
Q 775 591 1075 516 
Q 1375 441 1709 441 
Q 2250 441 2565 725 
Q 2881 1009 2881 1497 
Q 2881 1984 2565 2268 
Q 2250 2553 1709 2553 
Q 1456 2553 1204 2497 
Q 953 2441 691 2322 
L 691 4666 
z
" transform="scale(0.015625)"/>
       </defs>
       <use xlink:href="#DejaVuSans-32"/>
       <use xlink:href="#DejaVuSans-35" transform="translate(63.623047 0)"/>
      </g>
     </g>
    </g>
    <g id="xtick_3">
     <g id="line2d_5">
      <path d="M 221.468563 384.117812 
L 221.468563 23.837812 
" clip-path="url(#pd7b903ccff)" style="fill: none; stroke: #b0b0b0; stroke-opacity: 0.2; stroke-width: 0.6; stroke-linecap: square"/>
     </g>
     <g id="line2d_6">
      <g>
       <use xlink:href="#m79d31f16fe" x="221.468563" y="384.117812" style="stroke: #000000; stroke-width: 0.8"/>
      </g>
     </g>
     <g id="text_3">
      <!-- 50 -->
      <g transform="translate(214.469813 399.476094) scale(0.11 -0.11)">
       <use xlink:href="#DejaVuSans-35"/>
       <use xlink:href="#DejaVuSans-30" transform="translate(63.623047 0)"/>
      </g>
     </g>
    </g>
    <g id="xtick_4">
     <g id="line2d_7">
      <path d="M 308.549251 384.117812 
L 308.549251 23.837812 
" clip-path="url(#pd7b903ccff)" style="fill: none; stroke: #b0b0b0; stroke-opacity: 0.2; stroke-width: 0.6; stroke-linecap: square"/>
     </g>
     <g id="line2d_8">
      <g>
       <use xlink:href="#m79d31f16fe" x="308.549251" y="384.117812" style="stroke: #000000; stroke-width: 0.8"/>
      </g>
     </g>
     <g id="text_4">
      <!-- 75 -->
      <g transform="translate(301.550501 399.476094) scale(0.11 -0.11)">
       <defs>
        <path id="DejaVuSans-37" d="M 525 4666 
L 3525 4666 
L 3525 4397 
L 1831 0 
L 1172 0 
L 2766 4134 
L 525 4134 
L 525 4666 
z
" transform="scale(0.015625)"/>
       </defs>
       <use xlink:href="#DejaVuSans-37"/>
       <use xlink:href="#DejaVuSans-35" transform="translate(63.623047 0)"/>
      </g>
     </g>
    </g>
    <g id="xtick_5">
     <g id="line2d_9">
      <path d="M 395.629939 384.117812 
L 395.629939 23.837812 
" clip-path="url(#pd7b903ccff)" style="fill: none; stroke: #b0b0b0; stroke-opacity: 0.2; stroke-width: 0.6; stroke-linecap: square"/>
     </g>
     <g id="line2d_10">
      <g>
       <use xlink:href="#m79d31f16fe" x="395.629939" y="384.117812" style="stroke: #000000; stroke-width: 0.8"/>
      </g>
     </g>
     <g id="text_5">
      <!-- 100 -->
      <g transform="translate(385.131814 399.476094) scale(0.11 -0.11)">
       <defs>
        <path id="DejaVuSans-31" d="M 794 531 
L 1825 531 
L 1825 4091 
L 703 3866 
L 703 4441 
L 1819 4666 
L 2450 4666 
L 2450 531 
L 3481 531 
L 3481 0 
L 794 0 
L 794 531 
z
" transform="scale(0.015625)"/>
       </defs>
       <use xlink:href="#DejaVuSans-31"/>
       <use xlink:href="#DejaVuSans-30" transform="translate(63.623047 0)"/>
       <use xlink:href="#DejaVuSans-30" transform="translate(127.246094 0)"/>
      </g>
     </g>
    </g>
    <g id="xtick_6">
     <g id="line2d_11">
      <path d="M 482.710627 384.117812 
L 482.710627 23.837812 
" clip-path="url(#pd7b903ccff)" style="fill: none; stroke: #b0b0b0; stroke-opacity: 0.2; stroke-width: 0.6; stroke-linecap: square"/>
     </g>
     <g id="line2d_12">
      <g>
       <use xlink:href="#m79d31f16fe" x="482.710627" y="384.117812" style="stroke: #000000; stroke-width: 0.8"/>
      </g>
     </g>
     <g id="text_6">
      <!-- 125 -->
      <g transform="translate(472.212502 399.476094) scale(0.11 -0.11)">
       <use xlink:href="#DejaVuSans-31"/>
       <use xlink:href="#DejaVuSans-32" transform="translate(63.623047 0)"/>
       <use xlink:href="#DejaVuSans-35" transform="translate(127.246094 0)"/>
      </g>
     </g>
    </g>
    <g id="xtick_7">
     <g id="line2d_13">
      <path d="M 569.791314 384.117812 
L 569.791314 23.837812 
" clip-path="url(#pd7b903ccff)" style="fill: none; stroke: #b0b0b0; stroke-opacity: 0.2; stroke-width: 0.6; stroke-linecap: square"/>
     </g>
     <g id="line2d_14">
      <g>
       <use xlink:href="#m79d31f16fe" x="569.791314" y="384.117812" style="stroke: #000000; stroke-width: 0.8"/>
      </g>
     </g>
     <g id="text_7">
      <!-- 150 -->
      <g transform="translate(559.293189 399.476094) scale(0.11 -0.11)">
       <use xlink:href="#DejaVuSans-31"/>
       <use xlink:href="#DejaVuSans-35" transform="translate(63.623047 0)"/>
       <use xlink:href="#DejaVuSans-30" transform="translate(127.246094 0)"/>
      </g>
     </g>
    </g>
    <g id="xtick_8">
     <g id="line2d_15">
      <path d="M 656.872002 384.117812 
L 656.872002 23.837812 
" clip-path="url(#pd7b903ccff)" style="fill: none; stroke: #b0b0b0; stroke-opacity: 0.2; stroke-width: 0.6; stroke-linecap: square"/>
     </g>
     <g id="line2d_16">
      <g>
       <use xlink:href="#m79d31f16fe" x="656.872002" y="384.117812" style="stroke: #000000; stroke-width: 0.8"/>
      </g>
     </g>
     <g id="text_8">
      <!-- 175 -->
      <g transform="translate(646.373877 399.476094) scale(0.11 -0.11)">
       <use xlink:href="#DejaVuSans-31"/>
       <use xlink:href="#DejaVuSans-37" transform="translate(63.623047 0)"/>
       <use xlink:href="#DejaVuSans-35" transform="translate(127.246094 0)"/>
      </g>
     </g>
    </g>
    <g id="text_9">
     <!-- Time (s) -->
     <g transform="translate(352.0775 414.881875) scale(0.12 -0.12)">
      <defs>
       <path id="DejaVuSans-54" d="M -19 4666 
L 3928 4666 
L 3928 4134 
L 2272 4134 
L 2272 0 
L 1638 0 
L 1638 4134 
L -19 4134 
L -19 4666 
z
" transform="scale(0.015625)"/>
       <path id="DejaVuSans-69" d="M 603 3500 
L 1178 3500 
L 1178 0 
L 603 0 
L 603 3500 
z
M 603 4863 
L 1178 4863 
L 1178 4134 
L 603 4134 
L 603 4863 
z
" transform="scale(0.015625)"/>
       <path id="DejaVuSans-6d" d="M 3328 2828 
Q 3544 3216 3844 3400 
Q 4144 3584 4550 3584 
Q 5097 3584 5394 3201 
Q 5691 2819 5691 2113 
L 5691 0 
L 5113 0 
L 5113 2094 
Q 5113 2597 4934 2840 
Q 4756 3084 4391 3084 
Q 3944 3084 3684 2787 
Q 3425 2491 3425 1978 
L 3425 0 
L 2847 0 
L 2847 2094 
Q 2847 2600 2669 2842 
Q 2491 3084 2119 3084 
Q 1678 3084 1418 2786 
Q 1159 2488 1159 1978 
L 1159 0 
L 581 0 
L 581 3500 
L 1159 3500 
L 1159 2956 
Q 1356 3278 1631 3431 
Q 1906 3584 2284 3584 
Q 2666 3584 2933 3390 
Q 3200 3197 3328 2828 
z
" transform="scale(0.015625)"/>
       <path id="DejaVuSans-65" d="M 3597 1894 
L 3597 1613 
L 953 1613 
Q 991 1019 1311 708 
Q 1631 397 2203 397 
Q 2534 397 2845 478 
Q 3156 559 3463 722 
L 3463 178 
Q 3153 47 2828 -22 
Q 2503 -91 2169 -91 
Q 1331 -91 842 396 
Q 353 884 353 1716 
Q 353 2575 817 3079 
Q 1281 3584 2069 3584 
Q 2775 3584 3186 3129 
Q 3597 2675 3597 1894 
z
M 3022 2063 
Q 3016 2534 2758 2815 
Q 2500 3097 2075 3097 
Q 1594 3097 1305 2825 
Q 1016 2553 972 2059 
L 3022 2063 
z
" transform="scale(0.015625)"/>
       <path id="DejaVuSans-20" transform="scale(0.015625)"/>
       <path id="DejaVuSans-28" d="M 1984 4856 
Q 1566 4138 1362 3434 
Q 1159 2731 1159 2009 
Q 1159 1288 1364 580 
Q 1569 -128 1984 -844 
L 1484 -844 
Q 1016 -109 783 600 
Q 550 1309 550 2009 
Q 550 2706 781 3412 
Q 1013 4119 1484 4856 
L 1984 4856 
z
" transform="scale(0.015625)"/>
       <path id="DejaVuSans-73" d="M 2834 3397 
L 2834 2853 
Q 2591 2978 2328 3040 
Q 2066 3103 1784 3103 
Q 1356 3103 1142 2972 
Q 928 2841 928 2578 
Q 928 2378 1081 2264 
Q 1234 2150 1697 2047 
L 1894 2003 
Q 2506 1872 2764 1633 
Q 3022 1394 3022 966 
Q 3022 478 2636 193 
Q 2250 -91 1575 -91 
Q 1294 -91 989 -36 
Q 684 19 347 128 
L 347 722 
Q 666 556 975 473 
Q 1284 391 1588 391 
Q 1994 391 2212 530 
Q 2431 669 2431 922 
Q 2431 1156 2273 1281 
Q 2116 1406 1581 1522 
L 1381 1569 
Q 847 1681 609 1914 
Q 372 2147 372 2553 
Q 372 3047 722 3315 
Q 1072 3584 1716 3584 
Q 2034 3584 2315 3537 
Q 2597 3491 2834 3397 
z
" transform="scale(0.015625)"/>
       <path id="DejaVuSans-29" d="M 513 4856 
L 1013 4856 
Q 1481 4119 1714 3412 
Q 1947 2706 1947 2009 
Q 1947 1309 1714 600 
Q 1481 -109 1013 -844 
L 513 -844 
Q 928 -128 1133 580 
Q 1338 1288 1338 2009 
Q 1338 2731 1133 3434 
Q 928 4138 513 4856 
z
" transform="scale(0.015625)"/>
      </defs>
      <use xlink:href="#DejaVuSans-54"/>
      <use xlink:href="#DejaVuSans-69" transform="translate(57.958984 0)"/>
      <use xlink:href="#DejaVuSans-6d" transform="translate(85.742188 0)"/>
      <use xlink:href="#DejaVuSans-65" transform="translate(183.154297 0)"/>
      <use xlink:href="#DejaVuSans-20" transform="translate(244.677734 0)"/>
      <use xlink:href="#DejaVuSans-28" transform="translate(276.464844 0)"/>
      <use xlink:href="#DejaVuSans-73" transform="translate(315.478516 0)"/>
      <use xlink:href="#DejaVuSans-29" transform="translate(367.578125 0)"/>
     </g>
    </g>
   </g>
   <g id="matplotlib.axis_2">
    <g id="ytick_1">
     <g id="line2d_17">
      <path d="M 47.307188 367.741449 
L 705.637188 367.741449 
" clip-path="url(#pd7b903ccff)" style="fill: none; stroke: #b0b0b0; stroke-opacity: 0.2; stroke-width: 0.6; stroke-linecap: square"/>
     </g>
     <g id="line2d_18">
      <defs>
       <path id="ma5bd4b465f" d="M 0 0 
L -3.5 0 
" style="stroke: #000000; stroke-width: 0.8"/>
      </defs>
      <g>
       <use xlink:href="#ma5bd4b465f" x="47.307188" y="367.741449" style="stroke: #000000; stroke-width: 0.8"/>
      </g>
     </g>
     <g id="text_10">
      <!-- 0.0 -->
      <g transform="translate(22.81375 371.920589) scale(0.11 -0.11)">
       <defs>
        <path id="DejaVuSans-2e" d="M 684 794 
L 1344 794 
L 1344 0 
L 684 0 
L 684 794 
z
" transform="scale(0.015625)"/>
       </defs>
       <use xlink:href="#DejaVuSans-30"/>
       <use xlink:href="#DejaVuSans-2e" transform="translate(63.623047 0)"/>
       <use xlink:href="#DejaVuSans-30" transform="translate(95.410156 0)"/>
      </g>
     </g>
    </g>
    <g id="ytick_2">
     <g id="line2d_19">
      <path d="M 47.307188 317.507205 
L 705.637188 317.507205 
" clip-path="url(#pd7b903ccff)" style="fill: none; stroke: #b0b0b0; stroke-opacity: 0.2; stroke-width: 0.6; stroke-linecap: square"/>
     </g>
     <g id="line2d_20">
      <g>
       <use xlink:href="#ma5bd4b465f" x="47.307188" y="317.507205" style="stroke: #000000; stroke-width: 0.8"/>
      </g>
     </g>
     <g id="text_11">
      <!-- 0.5 -->
      <g transform="translate(22.81375 321.686345) scale(0.11 -0.11)">
       <use xlink:href="#DejaVuSans-30"/>
       <use xlink:href="#DejaVuSans-2e" transform="translate(63.623047 0)"/>
       <use xlink:href="#DejaVuSans-35" transform="translate(95.410156 0)"/>
      </g>
     </g>
    </g>
    <g id="ytick_3">
     <g id="line2d_21">
      <path d="M 47.307188 267.27296 
L 705.637188 267.27296 
" clip-path="url(#pd7b903ccff)" style="fill: none; stroke: #b0b0b0; stroke-opacity: 0.2; stroke-width: 0.6; stroke-linecap: square"/>
     </g>
     <g id="line2d_22">
      <g>
       <use xlink:href="#ma5bd4b465f" x="47.307188" y="267.27296" style="stroke: #000000; stroke-width: 0.8"/>
      </g>
     </g>
     <g id="text_12">
      <!-- 1.0 -->
      <g transform="translate(22.81375 271.452101) scale(0.11 -0.11)">
       <use xlink:href="#DejaVuSans-31"/>
       <use xlink:href="#DejaVuSans-2e" transform="translate(63.623047 0)"/>
       <use xlink:href="#DejaVuSans-30" transform="translate(95.410156 0)"/>
      </g>
     </g>
    </g>
    <g id="ytick_4">
     <g id="line2d_23">
      <path d="M 47.307188 217.038716 
L 705.637188 217.038716 
" clip-path="url(#pd7b903ccff)" style="fill: none; stroke: #b0b0b0; stroke-opacity: 0.2; stroke-width: 0.6; stroke-linecap: square"/>
     </g>
     <g id="line2d_24">
      <g>
       <use xlink:href="#ma5bd4b465f" x="47.307188" y="217.038716" style="stroke: #000000; stroke-width: 0.8"/>
      </g>
     </g>
     <g id="text_13">
      <!-- 1.5 -->
      <g transform="translate(22.81375 221.217857) scale(0.11 -0.11)">
       <use xlink:href="#DejaVuSans-31"/>
       <use xlink:href="#DejaVuSans-2e" transform="translate(63.623047 0)"/>
       <use xlink:href="#DejaVuSans-35" transform="translate(95.410156 0)"/>
      </g>
     </g>
    </g>
    <g id="ytick_5">
     <g id="line2d_25">
      <path d="M 47.307188 166.804472 
L 705.637188 166.804472 
" clip-path="url(#pd7b903ccff)" style="fill: none; stroke: #b0b0b0; stroke-opacity: 0.2; stroke-width: 0.6; stroke-linecap: square"/>
     </g>
     <g id="line2d_26">
      <g>
       <use xlink:href="#ma5bd4b465f" x="47.307188" y="166.804472" style="stroke: #000000; stroke-width: 0.8"/>
      </g>
     </g>
     <g id="text_14">
      <!-- 2.0 -->
      <g transform="translate(22.81375 170.983612) scale(0.11 -0.11)">
       <use xlink:href="#DejaVuSans-32"/>
       <use xlink:href="#DejaVuSans-2e" transform="translate(63.623047 0)"/>
       <use xlink:href="#DejaVuSans-30" transform="translate(95.410156 0)"/>
      </g>
     </g>
    </g>
    <g id="ytick_6">
     <g id="line2d_27">
      <path d="M 47.307188 116.570227 
L 705.637188 116.570227 
" clip-path="url(#pd7b903ccff)" style="fill: none; stroke: #b0b0b0; stroke-opacity: 0.2; stroke-width: 0.6; stroke-linecap: square"/>
     </g>
     <g id="line2d_28">
      <g>
       <use xlink:href="#ma5bd4b465f" x="47.307188" y="116.570227" style="stroke: #000000; stroke-width: 0.8"/>
      </g>
     </g>
     <g id="text_15">
      <!-- 2.5 -->
      <g transform="translate(22.81375 120.749368) scale(0.11 -0.11)">
       <use xlink:href="#DejaVuSans-32"/>
       <use xlink:href="#DejaVuSans-2e" transform="translate(63.623047 0)"/>
       <use xlink:href="#DejaVuSans-35" transform="translate(95.410156 0)"/>
      </g>
     </g>
    </g>
    <g id="ytick_7">
     <g id="line2d_29">
      <path d="M 47.307188 66.335983 
L 705.637188 66.335983 
" clip-path="url(#pd7b903ccff)" style="fill: none; stroke: #b0b0b0; stroke-opacity: 0.2; stroke-width: 0.6; stroke-linecap: square"/>
     </g>
     <g id="line2d_30">
      <g>
       <use xlink:href="#ma5bd4b465f" x="47.307188" y="66.335983" style="stroke: #000000; stroke-width: 0.8"/>
      </g>
     </g>
     <g id="text_16">
      <!-- 3.0 -->
      <g transform="translate(22.81375 70.515124) scale(0.11 -0.11)">
       <defs>
        <path id="DejaVuSans-33" d="M 2597 2516 
Q 3050 2419 3304 2112 
Q 3559 1806 3559 1356 
Q 3559 666 3084 287 
Q 2609 -91 1734 -91 
Q 1441 -91 1130 -33 
Q 819 25 488 141 
L 488 750 
Q 750 597 1062 519 
Q 1375 441 1716 441 
Q 2309 441 2620 675 
Q 2931 909 2931 1356 
Q 2931 1769 2642 2001 
Q 2353 2234 1838 2234 
L 1294 2234 
L 1294 2753 
L 1863 2753 
Q 2328 2753 2575 2939 
Q 2822 3125 2822 3475 
Q 2822 3834 2567 4026 
Q 2313 4219 1838 4219 
Q 1578 4219 1281 4162 
Q 984 4106 628 3988 
L 628 4550 
Q 988 4650 1302 4700 
Q 1616 4750 1894 4750 
Q 2613 4750 3031 4423 
Q 3450 4097 3450 3541 
Q 3450 3153 3228 2886 
Q 3006 2619 2597 2516 
z
" transform="scale(0.015625)"/>
       </defs>
       <use xlink:href="#DejaVuSans-33"/>
       <use xlink:href="#DejaVuSans-2e" transform="translate(63.623047 0)"/>
       <use xlink:href="#DejaVuSans-30" transform="translate(95.410156 0)"/>
      </g>
     </g>
    </g>
    <g id="text_17">
     <!-- AU mean intensity -->
     <g transform="translate(16.318125 259.314687) rotate(-90) scale(0.12 -0.12)">
      <defs>
       <path id="DejaVuSans-41" d="M 2188 4044 
L 1331 1722 
L 3047 1722 
L 2188 4044 
z
M 1831 4666 
L 2547 4666 
L 4325 0 
L 3669 0 
L 3244 1197 
L 1141 1197 
L 716 0 
L 50 0 
L 1831 4666 
z
" transform="scale(0.015625)"/>
       <path id="DejaVuSans-55" d="M 556 4666 
L 1191 4666 
L 1191 1831 
Q 1191 1081 1462 751 
Q 1734 422 2344 422 
Q 2950 422 3222 751 
Q 3494 1081 3494 1831 
L 3494 4666 
L 4128 4666 
L 4128 1753 
Q 4128 841 3676 375 
Q 3225 -91 2344 -91 
Q 1459 -91 1007 375 
Q 556 841 556 1753 
L 556 4666 
z
" transform="scale(0.015625)"/>
       <path id="DejaVuSans-61" d="M 2194 1759 
Q 1497 1759 1228 1600 
Q 959 1441 959 1056 
Q 959 750 1161 570 
Q 1363 391 1709 391 
Q 2188 391 2477 730 
Q 2766 1069 2766 1631 
L 2766 1759 
L 2194 1759 
z
M 3341 1997 
L 3341 0 
L 2766 0 
L 2766 531 
Q 2569 213 2275 61 
Q 1981 -91 1556 -91 
Q 1019 -91 701 211 
Q 384 513 384 1019 
Q 384 1609 779 1909 
Q 1175 2209 1959 2209 
L 2766 2209 
L 2766 2266 
Q 2766 2663 2505 2880 
Q 2244 3097 1772 3097 
Q 1472 3097 1187 3025 
Q 903 2953 641 2809 
L 641 3341 
Q 956 3463 1253 3523 
Q 1550 3584 1831 3584 
Q 2591 3584 2966 3190 
Q 3341 2797 3341 1997 
z
" transform="scale(0.015625)"/>
       <path id="DejaVuSans-6e" d="M 3513 2113 
L 3513 0 
L 2938 0 
L 2938 2094 
Q 2938 2591 2744 2837 
Q 2550 3084 2163 3084 
Q 1697 3084 1428 2787 
Q 1159 2491 1159 1978 
L 1159 0 
L 581 0 
L 581 3500 
L 1159 3500 
L 1159 2956 
Q 1366 3272 1645 3428 
Q 1925 3584 2291 3584 
Q 2894 3584 3203 3211 
Q 3513 2838 3513 2113 
z
" transform="scale(0.015625)"/>
       <path id="DejaVuSans-74" d="M 1172 4494 
L 1172 3500 
L 2356 3500 
L 2356 3053 
L 1172 3053 
L 1172 1153 
Q 1172 725 1289 603 
Q 1406 481 1766 481 
L 2356 481 
L 2356 0 
L 1766 0 
Q 1100 0 847 248 
Q 594 497 594 1153 
L 594 3053 
L 172 3053 
L 172 3500 
L 594 3500 
L 594 4494 
L 1172 4494 
z
" transform="scale(0.015625)"/>
       <path id="DejaVuSans-79" d="M 2059 -325 
Q 1816 -950 1584 -1140 
Q 1353 -1331 966 -1331 
L 506 -1331 
L 506 -850 
L 844 -850 
Q 1081 -850 1212 -737 
Q 1344 -625 1503 -206 
L 1606 56 
L 191 3500 
L 800 3500 
L 1894 763 
L 2988 3500 
L 3597 3500 
L 2059 -325 
z
" transform="scale(0.015625)"/>
      </defs>
      <use xlink:href="#DejaVuSans-41"/>
      <use xlink:href="#DejaVuSans-55" transform="translate(68.408203 0)"/>
      <use xlink:href="#DejaVuSans-20" transform="translate(141.601562 0)"/>
      <use xlink:href="#DejaVuSans-6d" transform="translate(173.388672 0)"/>
      <use xlink:href="#DejaVuSans-65" transform="translate(270.800781 0)"/>
      <use xlink:href="#DejaVuSans-61" transform="translate(332.324219 0)"/>
      <use xlink:href="#DejaVuSans-6e" transform="translate(393.603516 0)"/>
      <use xlink:href="#DejaVuSans-20" transform="translate(456.982422 0)"/>
      <use xlink:href="#DejaVuSans-69" transform="translate(488.769531 0)"/>
      <use xlink:href="#DejaVuSans-6e" transform="translate(516.552734 0)"/>
      <use xlink:href="#DejaVuSans-74" transform="translate(579.931641 0)"/>
      <use xlink:href="#DejaVuSans-65" transform="translate(619.140625 0)"/>
      <use xlink:href="#DejaVuSans-6e" transform="translate(680.664062 0)"/>
      <use xlink:href="#DejaVuSans-73" transform="translate(744.042969 0)"/>
      <use xlink:href="#DejaVuSans-69" transform="translate(796.142578 0)"/>
      <use xlink:href="#DejaVuSans-74" transform="translate(823.925781 0)"/>
      <use xlink:href="#DejaVuSans-79" transform="translate(863.134766 0)"/>
     </g>
    </g>
   </g>
   <g id="FillBetweenPolyCollection_1">
    <defs>
     <path id="mf41a17fb3c" d="M 47.307188 -163.083302 
L 47.307188 -23.96404 
L 50.790415 -29.299222 
L 54.273643 -24.669752 
L 57.75687 -30.219242 
L 61.240098 -33.745768 
L 64.723325 -28.933921 
L 68.206553 -26.570391 
L 71.68978 -25.540459 
L 75.173008 -27.860014 
L 78.656235 -15.337255 
L 82.139463 -29.472772 
L 85.62269 -23.001621 
L 89.105918 -15.911166 
L 92.589145 -23.299894 
L 96.072373 -30.562127 
L 99.5556 -25.30434 
L 103.038828 -29.360062 
L 106.522055 -24.201077 
L 110.005283 -27.28976 
L 113.48851 -25.615874 
L 116.971738 -25.266016 
L 120.454965 -33.219786 
L 123.938193 -27.707379 
L 127.42142 -23.824537 
L 130.904648 -24.940998 
L 134.387875 -23.530799 
L 137.871103 -23.870069 
L 141.35433 -28.899832 
L 144.837558 -33.882246 
L 148.320785 -34.609359 
L 151.804013 -28.887129 
L 155.28724 -22.740133 
L 158.770468 -17.349288 
L 162.253695 -34.723199 
L 165.736923 -36.379961 
L 169.22015 -27.952142 
L 172.703378 -31.539387 
L 176.186605 -34.58382 
L 179.669833 -25.45585 
L 183.153061 -25.443197 
L 186.636288 -24.613819 
L 190.119516 -22.209208 
L 193.602743 -29.351797 
L 197.085971 -29.235676 
L 200.569198 -31.335842 
L 204.052426 -40.883959 
L 207.535653 -46.149953 
L 211.018881 -36.031707 
L 214.502108 -43.987235 
L 217.985336 -40.778584 
L 221.468563 -38.245073 
L 224.951791 -40.079002 
L 228.435018 -37.993116 
L 231.918246 -44.232441 
L 235.401473 -32.479448 
L 238.884701 -33.161817 
L 242.367928 -37.050859 
L 245.851156 -33.790177 
L 249.334383 -36.915326 
L 252.817611 -35.446215 
L 256.300838 -36.783754 
L 259.784066 -30.720129 
L 263.267293 -33.001796 
L 266.750521 -34.631424 
L 270.233748 -32.6188 
L 273.716976 -32.437103 
L 277.200203 -20.902666 
L 280.683431 -0.088132 
L 284.166658 -26.159384 
L 287.649886 -42.13201 
L 291.133113 -35.26833 
L 294.616341 -27.582798 
L 298.099568 -29.583227 
L 301.582796 -32.714911 
L 305.066023 -30.941502 
L 308.549251 -35.506246 
L 312.032479 -37.042672 
L 315.515706 -36.224346 
L 318.998934 -34.73777 
L 322.482161 -33.504191 
L 325.965389 -27.552149 
L 329.448616 -32.552632 
L 332.931844 -40.678059 
L 336.415071 -38.614707 
L 339.898299 -36.875012 
L 343.381526 -39.757106 
L 346.864754 -36.280923 
L 350.347981 -38.899674 
L 353.831209 -41.727606 
L 357.314436 -34.669384 
L 360.797664 -31.511432 
L 364.280891 -31.935238 
L 367.764119 -34.434217 
L 371.247346 -35.44957 
L 374.730574 -39.549181 
L 378.213801 -42.014625 
L 381.697029 -39.741076 
L 385.180256 -39.285027 
L 388.663484 -37.688567 
L 392.146711 -41.319846 
L 395.629939 -38.958164 
L 399.113166 -32.182948 
L 402.596394 -38.243443 
L 406.079621 -33.379843 
L 409.562849 -35.865365 
L 413.046076 -32.812745 
L 416.529304 -28.834344 
L 420.012531 -14.079722 
L 423.495759 -30.205056 
L 426.978986 -23.328645 
L 430.462214 -30.398194 
L 433.945441 -38.569737 
L 437.428669 -20.698913 
L 440.911896 -31.298066 
L 444.395124 -32.517442 
L 447.878352 -31.656628 
L 451.361579 -26.355836 
L 454.844807 -22.916134 
L 458.328034 -27.726107 
L 461.811262 -34.349851 
L 465.294489 -33.685063 
L 468.777717 -32.303796 
L 472.260944 -14.304546 
L 475.744172 -31.304234 
L 479.227399 -27.305832 
L 482.710627 -27.390651 
L 486.193854 -25.787975 
L 489.677082 -30.172935 
L 493.160309 -26.75256 
L 496.643537 -29.888643 
L 500.126764 1.096603 
L 503.609992 -28.724055 
L 507.093219 -37.873109 
L 510.576447 -28.369184 
L 514.059674 -26.700896 
L 517.542902 -0.510485 
L 521.026129 -26.945986 
L 524.509357 -25.569562 
L 527.992584 -27.70463 
L 531.475812 -16.491649 
L 534.959039 -18.416139 
L 538.442267 -25.466265 
L 541.925494 -29.516296 
L 545.408722 -32.126932 
L 548.891949 -32.448746 
L 552.375177 -36.043366 
L 555.858404 -35.611086 
L 559.341632 -32.607788 
L 562.824859 -39.503416 
L 566.308087 -39.815661 
L 569.791314 -36.225063 
L 573.274542 -32.566072 
L 576.75777 -38.222474 
L 580.240997 -36.084279 
L 583.724225 -41.767019 
L 587.207452 -31.600262 
L 590.69068 -12.91221 
L 594.173907 -21.354724 
L 597.657135 -28.955229 
L 601.140362 -43.779978 
L 604.62359 -34.38326 
L 608.106817 -28.187755 
L 611.590045 -29.914077 
L 615.073272 -38.128314 
L 618.5565 -41.165383 
L 622.039727 -35.729244 
L 625.522955 -40.862692 
L 629.006182 -41.154573 
L 632.48941 -40.408377 
L 635.972637 -44.261052 
L 639.455865 -44.772031 
L 642.939092 -39.300788 
L 646.42232 -44.459518 
L 649.905547 -47.00594 
L 653.388775 -33.352534 
L 656.872002 -28.068267 
L 660.35523 -35.627685 
L 663.838457 -34.718727 
L 667.321685 -33.903921 
L 670.804912 -39.146281 
L 674.28814 -45.840714 
L 677.771367 -40.365819 
L 681.254595 -34.675144 
L 684.737822 -32.182256 
L 688.22105 -37.684224 
L 691.704277 -68.267434 
L 695.187505 -55.987059 
L 698.670732 -61.380994 
L 702.15396 -50.470053 
L 705.637188 -43.615574 
L 705.637188 -171.584009 
L 705.637188 -171.584009 
L 702.15396 -168.446842 
L 698.670732 -165.123284 
L 695.187505 -160.077827 
L 691.704277 -164.757132 
L 688.22105 -162.794642 
L 684.737822 -169.158283 
L 681.254595 -170.642521 
L 677.771367 -157.616259 
L 674.28814 -155.894783 
L 670.804912 -177.588557 
L 667.321685 -162.022705 
L 663.838457 -170.110697 
L 660.35523 -173.0796 
L 656.872002 -180.413074 
L 653.388775 -171.164434 
L 649.905547 -164.210264 
L 646.42232 -165.736684 
L 642.939092 -164.371109 
L 639.455865 -155.266749 
L 635.972637 -147.674576 
L 632.48941 -157.832647 
L 629.006182 -153.132792 
L 625.522955 -163.734345 
L 622.039727 -169.067574 
L 618.5565 -163.120908 
L 615.073272 -178.070556 
L 611.590045 -194.22189 
L 608.106817 -191.964642 
L 604.62359 -180.315913 
L 601.140362 -177.185541 
L 597.657135 -190.588165 
L 594.173907 -197.367067 
L 590.69068 -209.704337 
L 587.207452 -175.334313 
L 583.724225 -157.299486 
L 580.240997 -157.129113 
L 576.75777 -156.078087 
L 573.274542 -155.619819 
L 569.791314 -154.218691 
L 566.308087 -144.913952 
L 562.824859 -145.167689 
L 559.341632 -155.72687 
L 555.858404 -151.932999 
L 552.375177 -153.860476 
L 548.891949 -166.276509 
L 545.408722 -159.975804 
L 541.925494 -163.987266 
L 538.442267 -170.192607 
L 534.959039 -180.156602 
L 531.475812 -189.440279 
L 527.992584 -173.865008 
L 524.509357 -169.202823 
L 521.026129 -161.909718 
L 517.542902 -198.883859 
L 514.059674 -161.378894 
L 510.576447 -158.850743 
L 507.093219 -149.985535 
L 503.609992 -162.314897 
L 500.126764 -207.405609 
L 496.643537 -159.566861 
L 493.160309 -170.079962 
L 489.677082 -168.241631 
L 486.193854 -169.084904 
L 482.710627 -159.741886 
L 479.227399 -169.795768 
L 475.744172 -168.784806 
L 472.260944 -183.730114 
L 468.777717 -162.815965 
L 465.294489 -162.464119 
L 461.811262 -153.941662 
L 458.328034 -166.405962 
L 454.844807 -170.900143 
L 451.361579 -175.498174 
L 447.878352 -164.842819 
L 444.395124 -156.345354 
L 440.911896 -167.930675 
L 437.428669 -183.394829 
L 433.945441 -162.802733 
L 430.462214 -170.61374 
L 426.978986 -174.089257 
L 423.495759 -161.286569 
L 420.012531 -190.723917 
L 416.529304 -152.780783 
L 413.046076 -150.399193 
L 409.562849 -142.334995 
L 406.079621 -146.922319 
L 402.596394 -141.097109 
L 399.113166 -161.256321 
L 395.629939 -163.869559 
L 392.146711 -154.465694 
L 388.663484 -152.738363 
L 385.180256 -150.825346 
L 381.697029 -145.420454 
L 378.213801 -145.167924 
L 374.730574 -144.764464 
L 371.247346 -155.381054 
L 367.764119 -156.790266 
L 364.280891 -157.625667 
L 360.797664 -156.199559 
L 357.314436 -150.277189 
L 353.831209 -145.046453 
L 350.347981 -154.886522 
L 346.864754 -152.742546 
L 343.381526 -149.009676 
L 339.898299 -143.615411 
L 336.415071 -148.042438 
L 332.931844 -154.71035 
L 329.448616 -157.6921 
L 325.965389 -156.130422 
L 322.482161 -155.186388 
L 318.998934 -150.743168 
L 315.515706 -142.026334 
L 312.032479 -145.153198 
L 308.549251 -142.834675 
L 305.066023 -153.312133 
L 301.582796 -149.492343 
L 298.099568 -153.474079 
L 294.616341 -165.218768 
L 291.133113 -154.270064 
L 287.649886 -140.598642 
L 284.166658 -163.173829 
L 280.683431 -200.530989 
L 277.200203 -170.740228 
L 273.716976 -151.006595 
L 270.233748 -150.672055 
L 266.750521 -161.734599 
L 263.267293 -159.091013 
L 259.784066 -150.27605 
L 256.300838 -144.69028 
L 252.817611 -141.881744 
L 249.334383 -139.971855 
L 245.851156 -153.321741 
L 242.367928 -177.251778 
L 238.884701 -169.081512 
L 235.401473 -160.404527 
L 231.918246 -147.911053 
L 228.435018 -154.559141 
L 224.951791 -163.493037 
L 221.468563 -167.215574 
L 217.985336 -168.666684 
L 214.502108 -168.489049 
L 211.018881 -166.048589 
L 207.535653 -172.569866 
L 204.052426 -179.678056 
L 200.569198 -182.74565 
L 197.085971 -182.080385 
L 193.602743 -174.347316 
L 190.119516 -172.583557 
L 186.636288 -167.865995 
L 183.153061 -164.831542 
L 179.669833 -162.816488 
L 176.186605 -150.946687 
L 172.703378 -156.345947 
L 169.22015 -152.815793 
L 165.736923 -153.720637 
L 162.253695 -156.252579 
L 158.770468 -178.69363 
L 155.28724 -183.153075 
L 151.804013 -164.256119 
L 148.320785 -159.241895 
L 144.837558 -157.211598 
L 141.35433 -160.942872 
L 137.871103 -161.194009 
L 134.387875 -168.035969 
L 130.904648 -162.385755 
L 127.42142 -158.77547 
L 123.938193 -153.745684 
L 120.454965 -150.604999 
L 116.971738 -160.194348 
L 113.48851 -159.694541 
L 110.005283 -154.721885 
L 106.522055 -159.318023 
L 103.038828 -159.489922 
L 99.5556 -157.782725 
L 96.072373 -150.05211 
L 92.589145 -157.335576 
L 89.105918 -173.783364 
L 85.62269 -164.96214 
L 82.139463 -150.45134 
L 78.656235 -170.234011 
L 75.173008 -152.693218 
L 71.68978 -151.862902 
L 68.206553 -154.741597 
L 64.723325 -157.695015 
L 61.240098 -148.868307 
L 57.75687 -152.250339 
L 54.273643 -152.358503 
L 50.790415 -144.737528 
L 47.307188 -163.083302 
z
" style="stroke: #d3d3d3; stroke-opacity: 0.5"/>
    </defs>
    <g clip-path="url(#pd7b903ccff)">
     <use xlink:href="#mf41a17fb3c" x="0" y="424.5775" style="fill: #d3d3d3; fill-opacity: 0.5; stroke: #d3d3d3; stroke-opacity: 0.5"/>
    </g>
   </g>
   <g id="FillBetweenPolyCollection_2">
    <defs>
     <path id="m428276350a" d="M 47.307188 -128.303487 
L 47.307188 -58.743855 
L 50.790415 -58.158798 
L 54.273643 -56.59194 
L 57.75687 -60.727016 
L 61.240098 -62.526403 
L 64.723325 -61.124194 
L 68.206553 -58.613192 
L 71.68978 -57.12107 
L 75.173008 -59.068315 
L 78.656235 -54.061444 
L 82.139463 -59.717414 
L 85.62269 -58.49175 
L 89.105918 -55.379215 
L 92.589145 -56.808815 
L 96.072373 -60.434623 
L 99.5556 -58.423936 
L 103.038828 -61.892527 
L 106.522055 -57.980313 
L 110.005283 -59.147791 
L 113.48851 -59.13554 
L 116.971738 -58.998099 
L 120.454965 -62.566089 
L 123.938193 -59.216956 
L 127.42142 -57.56227 
L 130.904648 -59.302187 
L 134.387875 -59.657092 
L 137.871103 -58.201054 
L 141.35433 -61.910592 
L 144.837558 -64.714584 
L 148.320785 -65.767493 
L 151.804013 -62.729377 
L 155.28724 -62.843368 
L 158.770468 -57.685373 
L 162.253695 -65.105544 
L 165.736923 -65.71513 
L 169.22015 -59.168054 
L 172.703378 -62.741027 
L 176.186605 -63.674537 
L 179.669833 -59.79601 
L 183.153061 -60.290283 
L 186.636288 -60.426863 
L 190.119516 -59.802795 
L 193.602743 -65.600677 
L 197.085971 -67.446853 
L 200.569198 -69.188294 
L 204.052426 -75.582483 
L 207.535653 -77.754931 
L 211.018881 -68.535928 
L 214.502108 -75.112688 
L 217.985336 -72.750609 
L 221.468563 -70.487698 
L 224.951791 -70.932511 
L 228.435018 -67.134623 
L 231.918246 -70.152094 
L 235.401473 -64.460718 
L 238.884701 -67.14174 
L 242.367928 -72.101089 
L 245.851156 -63.673068 
L 249.334383 -62.679458 
L 252.817611 -62.055097 
L 256.300838 -63.760386 
L 259.784066 -60.609109 
L 263.267293 -64.5241 
L 266.750521 -66.407218 
L 270.233748 -62.132114 
L 273.716976 -62.079476 
L 277.200203 -58.362056 
L 280.683431 -50.198847 
L 284.166658 -60.412995 
L 287.649886 -66.748668 
L 291.133113 -65.018764 
L 294.616341 -61.99179 
L 298.099568 -60.55594 
L 301.582796 -61.909269 
L 305.066023 -61.53416 
L 308.549251 -62.338353 
L 312.032479 -64.070304 
L 315.515706 -62.674843 
L 318.998934 -63.739119 
L 322.482161 -63.92474 
L 325.965389 -59.696717 
L 329.448616 -63.837499 
L 332.931844 -69.186132 
L 336.415071 -65.97164 
L 339.898299 -63.560112 
L 343.381526 -67.070249 
L 346.864754 -65.396329 
L 350.347981 -67.896386 
L 353.831209 -67.557318 
L 357.314436 -63.571336 
L 360.797664 -62.683463 
L 364.280891 -63.357845 
L 367.764119 -65.02323 
L 371.247346 -65.432441 
L 374.730574 -65.853002 
L 378.213801 -67.80295 
L 381.697029 -66.16092 
L 385.180256 -67.170107 
L 388.663484 -66.451016 
L 392.146711 -69.606308 
L 395.629939 -70.186013 
L 399.113166 -64.451291 
L 402.596394 -63.95686 
L 406.079621 -61.765462 
L 409.562849 -62.482773 
L 413.046076 -62.209357 
L 416.529304 -59.820954 
L 420.012531 -58.240771 
L 423.495759 -62.975434 
L 426.978986 -61.018798 
L 430.462214 -65.452081 
L 433.945441 -69.627986 
L 437.428669 -61.372892 
L 440.911896 -65.456218 
L 444.395124 -63.47442 
L 447.878352 -64.953176 
L 451.361579 -63.641421 
L 454.844807 -59.912136 
L 458.328034 -62.39607 
L 461.811262 -64.247804 
L 465.294489 -65.879827 
L 468.777717 -64.931838 
L 472.260944 -56.660938 
L 475.744172 -65.674377 
L 479.227399 -62.928316 
L 482.710627 -60.47846 
L 486.193854 -61.612207 
L 489.677082 -64.690109 
L 493.160309 -62.584411 
L 496.643537 -62.308197 
L 500.126764 -51.02895 
L 503.609992 -62.121765 
L 507.093219 -65.901216 
L 510.576447 -60.989574 
L 514.059674 -60.370395 
L 517.542902 -50.103828 
L 521.026129 -60.686919 
L 524.509357 -61.477878 
L 527.992584 -64.244725 
L 531.475812 -59.728807 
L 534.959039 -58.851255 
L 538.442267 -61.647851 
L 541.925494 -63.134039 
L 545.408722 -64.08915 
L 548.891949 -65.905687 
L 552.375177 -65.497643 
L 555.858404 -64.691564 
L 559.341632 -63.387559 
L 562.824859 -65.919484 
L 566.308087 -66.090234 
L 569.791314 -65.72347 
L 573.274542 -63.329509 
L 576.75777 -67.686377 
L 580.240997 -66.345488 
L 583.724225 -70.650136 
L 587.207452 -67.533775 
L 590.69068 -62.110242 
L 594.173907 -65.35781 
L 597.657135 -69.363463 
L 601.140362 -77.131369 
L 604.62359 -70.866423 
L 608.106817 -69.131977 
L 611.590045 -70.99103 
L 615.073272 -73.113875 
L 618.5565 -71.654264 
L 622.039727 -69.063826 
L 625.522955 -71.580606 
L 629.006182 -69.149128 
L 632.48941 -69.764444 
L 635.972637 -70.114433 
L 639.455865 -72.395711 
L 642.939092 -70.568368 
L 646.42232 -74.77881 
L 649.905547 -76.307021 
L 653.388775 -67.805509 
L 656.872002 -66.154469 
L 660.35523 -69.990664 
L 663.838457 -68.566719 
L 667.321685 -65.933617 
L 670.804912 -73.75685 
L 674.28814 -73.354231 
L 677.771367 -69.678429 
L 681.254595 -68.666989 
L 684.737822 -66.426263 
L 688.22105 -68.961829 
L 691.704277 -92.389858 
L 695.187505 -82.009751 
L 698.670732 -87.316566 
L 702.15396 -79.96425 
L 705.637188 -75.607683 
L 705.637188 -139.5919 
L 705.637188 -139.5919 
L 702.15396 -138.952645 
L 698.670732 -139.187711 
L 695.187505 -134.055135 
L 691.704277 -140.634707 
L 688.22105 -131.517037 
L 684.737822 -134.914276 
L 681.254595 -136.650677 
L 677.771367 -128.303649 
L 674.28814 -128.381266 
L 670.804912 -142.977988 
L 667.321685 -129.993009 
L 663.838457 -136.262705 
L 660.35523 -138.716621 
L 656.872002 -142.326872 
L 653.388775 -136.711459 
L 649.905547 -134.909183 
L 646.42232 -135.417392 
L 642.939092 -133.103529 
L 639.455865 -127.64307 
L 635.972637 -121.821195 
L 632.48941 -128.476579 
L 629.006182 -125.138237 
L 625.522955 -133.016432 
L 622.039727 -135.732991 
L 618.5565 -132.632027 
L 615.073272 -143.084996 
L 611.590045 -153.144936 
L 608.106817 -151.02042 
L 604.62359 -143.83275 
L 601.140362 -143.83415 
L 597.657135 -150.179931 
L 594.173907 -153.363981 
L 590.69068 -160.506305 
L 587.207452 -139.4008 
L 583.724225 -128.416369 
L 580.240997 -126.867904 
L 576.75777 -126.614184 
L 573.274542 -124.856383 
L 569.791314 -124.720284 
L 566.308087 -118.639379 
L 562.824859 -118.751621 
L 559.341632 -124.9471 
L 555.858404 -122.85252 
L 552.375177 -124.406198 
L 548.891949 -132.819568 
L 545.408722 -128.013586 
L 541.925494 -130.369524 
L 538.442267 -134.011022 
L 534.959039 -139.721486 
L 531.475812 -146.203121 
L 527.992584 -137.324913 
L 524.509357 -133.294508 
L 521.026129 -128.168785 
L 517.542902 -149.290515 
L 514.059674 -127.709394 
L 510.576447 -126.230353 
L 507.093219 -121.957429 
L 503.609992 -128.917187 
L 500.126764 -155.280056 
L 496.643537 -127.147306 
L 493.160309 -134.248112 
L 489.677082 -133.724457 
L 486.193854 -133.260672 
L 482.710627 -126.654078 
L 479.227399 -134.173284 
L 475.744172 -134.414663 
L 472.260944 -141.373722 
L 468.777717 -130.187922 
L 465.294489 -130.269355 
L 461.811262 -124.043709 
L 458.328034 -131.735998 
L 454.844807 -133.904141 
L 451.361579 -138.21259 
L 447.878352 -131.546272 
L 444.395124 -125.388376 
L 440.911896 -133.772523 
L 437.428669 -142.72085 
L 433.945441 -131.744484 
L 430.462214 -135.559853 
L 426.978986 -136.399104 
L 423.495759 -128.516191 
L 420.012531 -146.562868 
L 416.529304 -121.794173 
L 413.046076 -121.002581 
L 409.562849 -115.717588 
L 406.079621 -118.5367 
L 402.596394 -115.383692 
L 399.113166 -128.987978 
L 395.629939 -132.64171 
L 392.146711 -126.179232 
L 388.663484 -123.975914 
L 385.180256 -122.940266 
L 381.697029 -119.000609 
L 378.213801 -119.379599 
L 374.730574 -118.460643 
L 371.247346 -125.398183 
L 367.764119 -126.201254 
L 364.280891 -126.20306 
L 360.797664 -125.027527 
L 357.314436 -121.375238 
L 353.831209 -119.216741 
L 350.347981 -125.88981 
L 346.864754 -123.62714 
L 343.381526 -121.696534 
L 339.898299 -116.930311 
L 336.415071 -120.685505 
L 332.931844 -126.202277 
L 329.448616 -126.407233 
L 325.965389 -123.985854 
L 322.482161 -124.765839 
L 318.998934 -121.741819 
L 315.515706 -115.575837 
L 312.032479 -118.125567 
L 308.549251 -116.002568 
L 305.066023 -122.719475 
L 301.582796 -120.297985 
L 298.099568 -122.501366 
L 294.616341 -130.809775 
L 291.133113 -124.51963 
L 287.649886 -115.981984 
L 284.166658 -128.920218 
L 280.683431 -150.420275 
L 277.200203 -133.280837 
L 273.716976 -121.364222 
L 270.233748 -121.158741 
L 266.750521 -129.958806 
L 263.267293 -127.568709 
L 259.784066 -120.38707 
L 256.300838 -117.713648 
L 252.817611 -115.272862 
L 249.334383 -114.207722 
L 245.851156 -123.43885 
L 242.367928 -142.201548 
L 238.884701 -135.101588 
L 235.401473 -128.423258 
L 231.918246 -121.9914 
L 228.435018 -125.417635 
L 224.951791 -132.639529 
L 221.468563 -134.972949 
L 217.985336 -136.694659 
L 214.502108 -137.363595 
L 211.018881 -133.544369 
L 207.535653 -140.964888 
L 204.052426 -144.979532 
L 200.569198 -144.893198 
L 197.085971 -143.869208 
L 193.602743 -138.098436 
L 190.119516 -134.98997 
L 186.636288 -132.052951 
L 183.153061 -129.984456 
L 179.669833 -128.476328 
L 176.186605 -121.855971 
L 172.703378 -125.144307 
L 169.22015 -121.59988 
L 165.736923 -124.385468 
L 162.253695 -125.870234 
L 158.770468 -138.357545 
L 155.28724 -143.04984 
L 151.804013 -130.413872 
L 148.320785 -128.083761 
L 144.837558 -126.37926 
L 141.35433 -127.932112 
L 137.871103 -126.863024 
L 134.387875 -131.909677 
L 130.904648 -128.024565 
L 127.42142 -125.037737 
L 123.938193 -122.236108 
L 120.454965 -121.258696 
L 116.971738 -126.462265 
L 113.48851 -126.174874 
L 110.005283 -122.863854 
L 106.522055 -125.538787 
L 103.038828 -126.957457 
L 99.5556 -124.663129 
L 96.072373 -120.179614 
L 92.589145 -123.826656 
L 89.105918 -134.315314 
L 85.62269 -129.47201 
L 82.139463 -120.206698 
L 78.656235 -131.509822 
L 75.173008 -121.484917 
L 71.68978 -120.282291 
L 68.206553 -122.698795 
L 64.723325 -125.504741 
L 61.240098 -120.087672 
L 57.75687 -121.742565 
L 54.273643 -120.436315 
L 50.790415 -115.877951 
L 47.307188 -128.303487 
z
" style="stroke: #808080; stroke-opacity: 0.7"/>
    </defs>
    <g clip-path="url(#pd7b903ccff)">
     <use xlink:href="#m428276350a" x="0" y="424.5775" style="fill: #808080; fill-opacity: 0.7; stroke: #808080; stroke-opacity: 0.7"/>
    </g>
   </g>
   <g id="line2d_31">
    <path d="M 47.307188 367.741449 
L 54.273643 367.45299 
L 57.75687 359.874563 
L 61.240098 357.64322 
L 64.723325 356.465065 
L 68.206553 360.986677 
L 71.68978 365.084876 
L 75.173008 355.602468 
L 78.656235 351.366903 
L 82.139463 360.789779 
L 85.62269 355.710036 
L 89.105918 354.763928 
L 92.589145 351.297564 
L 96.072373 353.279084 
L 99.5556 357.767333 
L 103.038828 356.215433 
L 106.522055 357.701088 
L 110.005283 349.86011 
L 113.48851 346.457221 
L 116.971738 355.798968 
L 120.454965 359.653952 
L 123.938193 358.325928 
L 127.42142 354.72948 
L 130.904648 361.478939 
L 134.387875 356.584555 
L 137.871103 353.182719 
L 141.35433 354.311753 
L 144.837558 351.084279 
L 148.320785 346.681181 
L 151.804013 335.647447 
L 155.28724 349.116701 
L 158.770468 349.819977 
L 162.253695 352.792271 
L 165.736923 366.449214 
L 169.22015 356.945221 
L 172.703378 355.66831 
L 176.186605 356.371943 
L 179.669833 357.375057 
L 183.153061 355.839559 
L 186.636288 360.609008 
L 190.119516 357.456788 
L 193.602743 366.384863 
L 197.085971 358.563653 
L 200.569198 360.585561 
L 204.052426 357.776509 
L 207.535653 349.840105 
L 211.018881 358.181179 
L 214.502108 365.63458 
L 217.985336 347.794019 
L 221.468563 344.138782 
L 224.951791 341.364689 
L 228.435018 348.646094 
L 231.918246 334.478004 
L 235.401473 317.497068 
L 238.884701 326.863258 
L 242.367928 331.185689 
L 245.851156 323.674355 
L 249.334383 336.848286 
L 252.817611 317.233766 
L 256.300838 338.81307 
L 259.784066 329.638585 
L 263.267293 325.394346 
L 266.750521 336.081264 
L 270.233748 335.568991 
L 273.716976 334.052881 
L 277.200203 344.567807 
L 280.683431 352.200984 
L 284.166658 346.56155 
L 287.649886 350.277013 
L 291.133113 352.200345 
L 294.616341 355.477435 
L 298.099568 349.203667 
L 301.582796 343.245507 
L 305.066023 344.288983 
L 308.549251 342.81385 
L 312.032479 346.781931 
L 315.515706 338.799413 
L 318.998934 349.236329 
L 322.482161 351.768184 
L 325.965389 338.912184 
L 329.448616 347.973391 
L 332.931844 349.06378 
L 336.415071 350.317046 
L 339.898299 353.526015 
L 343.381526 346.403039 
L 346.864754 348.670901 
L 350.347981 341.501268 
L 353.831209 340.91732 
L 360.797664 358.47404 
L 364.280891 363.218891 
L 367.764119 357.573738 
L 371.247346 355.042104 
L 374.730574 355.952923 
L 378.213801 351.385571 
L 385.180256 343.8036 
L 388.663484 347.42186 
L 392.146711 362.023128 
L 395.629939 359.76247 
L 399.113166 358.26178 
L 402.596394 362.833088 
L 406.079621 356.525429 
L 409.562849 359.895897 
L 413.046076 350.247978 
L 416.529304 344.689003 
L 420.012531 335.368656 
L 423.495759 335.13384 
L 426.978986 353.457188 
L 430.462214 346.804409 
L 433.945441 338.320067 
L 437.428669 357.542012 
L 440.911896 349.795182 
L 444.395124 335.898886 
L 447.878352 361.633993 
L 451.361579 342.938384 
L 454.844807 347.894708 
L 458.328034 356.506655 
L 461.811262 364.368002 
L 465.294489 347.618917 
L 468.777717 357.371063 
L 472.260944 358.551552 
L 475.744172 357.669082 
L 479.227399 339.022126 
L 482.710627 339.838086 
L 486.193854 347.604552 
L 489.677082 358.589397 
L 493.160309 355.172128 
L 496.643537 353.76646 
L 500.126764 349.600771 
L 503.609992 354.339998 
L 507.093219 352.797254 
L 510.576447 364.107839 
L 514.059674 366.731087 
L 517.542902 367.110065 
L 521.026129 366.994916 
L 524.509357 361.579488 
L 527.992584 364.645919 
L 531.475812 349.046574 
L 534.959039 352.577769 
L 538.442267 358.020531 
L 541.925494 356.631018 
L 545.408722 348.696683 
L 548.891949 345.45948 
L 552.375177 355.169428 
L 555.858404 354.422765 
L 559.341632 354.46464 
L 562.824859 350.844149 
L 566.308087 346.48292 
L 569.791314 348.647912 
L 573.274542 353.797925 
L 576.75777 349.346364 
L 580.240997 340.779113 
L 583.724225 327.492488 
L 587.207452 276.70319 
L 590.69068 267.077462 
L 594.173907 278.18187 
L 597.657135 283.02752 
L 601.140362 305.028258 
L 604.62359 301.41373 
L 608.106817 311.22373 
L 611.590045 280.903024 
L 615.073272 317.013778 
L 618.5565 305.351409 
L 622.039727 306.414496 
L 625.522955 275.876845 
L 629.006182 282.194256 
L 632.48941 306.8196 
L 635.972637 308.879128 
L 639.455865 318.36409 
L 642.939092 323.922541 
L 646.42232 325.389675 
L 649.905547 301.831801 
L 653.388775 264.788608 
L 656.872002 280.416758 
L 660.35523 255.481306 
L 663.838457 250.77798 
L 667.321685 259.527055 
L 670.804912 297.288644 
L 674.28814 304.236206 
L 677.771367 329.112233 
L 681.254595 335.991825 
L 684.737822 318.279856 
L 688.22105 323.221569 
L 691.704277 316.275755 
L 695.187505 324.762085 
L 698.670732 333.59465 
L 702.15396 334.496227 
L 705.637188 315.553115 
L 705.637188 315.553115 
" clip-path="url(#pd7b903ccff)" style="fill: none; stroke: #ff8c00; stroke-width: 2.3; stroke-linecap: square"/>
   </g>
   <g id="line2d_32">
    <path d="M 284.166658 384.117812 
L 284.166658 23.837812 
" clip-path="url(#pd7b903ccff)" style="fill: none; stroke-dasharray: 5.55,2.4; stroke-dashoffset: 0; stroke: #808080; stroke-width: 1.5"/>
   </g>
   <g id="line2d_33">
    <path d="M 486.193854 384.117812 
L 486.193854 23.837812 
" clip-path="url(#pd7b903ccff)" style="fill: none; stroke-dasharray: 5.55,2.4; stroke-dashoffset: 0; stroke: #808080; stroke-width: 1.5"/>
   </g>
   <g id="patch_3">
    <path d="M 47.307188 384.117812 
L 47.307188 23.837812 
" style="fill: none; stroke: #000000; stroke-width: 0.8; stroke-linejoin: miter; stroke-linecap: square"/>
   </g>
   <g id="patch_4">
    <path d="M 705.637188 384.117812 
L 705.637188 23.837812 
" style="fill: none; stroke: #000000; stroke-width: 0.8; stroke-linejoin: miter; stroke-linecap: square"/>
   </g>
   <g id="patch_5">
    <path d="M 47.307188 384.117812 
L 705.637188 384.117812 
" style="fill: none; stroke: #000000; stroke-width: 0.8; stroke-linejoin: miter; stroke-linecap: square"/>
   </g>
   <g id="patch_6">
    <path d="M 47.307188 23.837812 
L 705.637188 23.837812 
" style="fill: none; stroke: #000000; stroke-width: 0.8; stroke-linejoin: miter; stroke-linecap: square"/>
   </g>
   <g id="text_18">
    <!-- Facial trace: ADHD -->
    <g transform="translate(311.059375 17.837812) scale(0.14 -0.14)">
     <defs>
      <path id="DejaVuSans-46" d="M 628 4666 
L 3309 4666 
L 3309 4134 
L 1259 4134 
L 1259 2759 
L 3109 2759 
L 3109 2228 
L 1259 2228 
L 1259 0 
L 628 0 
L 628 4666 
z
" transform="scale(0.015625)"/>
      <path id="DejaVuSans-63" d="M 3122 3366 
L 3122 2828 
Q 2878 2963 2633 3030 
Q 2388 3097 2138 3097 
Q 1578 3097 1268 2742 
Q 959 2388 959 1747 
Q 959 1106 1268 751 
Q 1578 397 2138 397 
Q 2388 397 2633 464 
Q 2878 531 3122 666 
L 3122 134 
Q 2881 22 2623 -34 
Q 2366 -91 2075 -91 
Q 1284 -91 818 406 
Q 353 903 353 1747 
Q 353 2603 823 3093 
Q 1294 3584 2113 3584 
Q 2378 3584 2631 3529 
Q 2884 3475 3122 3366 
z
" transform="scale(0.015625)"/>
      <path id="DejaVuSans-6c" d="M 603 4863 
L 1178 4863 
L 1178 0 
L 603 0 
L 603 4863 
z
" transform="scale(0.015625)"/>
      <path id="DejaVuSans-72" d="M 2631 2963 
Q 2534 3019 2420 3045 
Q 2306 3072 2169 3072 
Q 1681 3072 1420 2755 
Q 1159 2438 1159 1844 
L 1159 0 
L 581 0 
L 581 3500 
L 1159 3500 
L 1159 2956 
Q 1341 3275 1631 3429 
Q 1922 3584 2338 3584 
Q 2397 3584 2469 3576 
Q 2541 3569 2628 3553 
L 2631 2963 
z
" transform="scale(0.015625)"/>
      <path id="DejaVuSans-3a" d="M 750 794 
L 1409 794 
L 1409 0 
L 750 0 
L 750 794 
z
M 750 3309 
L 1409 3309 
L 1409 2516 
L 750 2516 
L 750 3309 
z
" transform="scale(0.015625)"/>
      <path id="DejaVuSans-44" d="M 1259 4147 
L 1259 519 
L 2022 519 
Q 2988 519 3436 956 
Q 3884 1394 3884 2338 
Q 3884 3275 3436 3711 
Q 2988 4147 2022 4147 
L 1259 4147 
z
M 628 4666 
L 1925 4666 
Q 3281 4666 3915 4102 
Q 4550 3538 4550 2338 
Q 4550 1131 3912 565 
Q 3275 0 1925 0 
L 628 0 
L 628 4666 
z
" transform="scale(0.015625)"/>
      <path id="DejaVuSans-48" d="M 628 4666 
L 1259 4666 
L 1259 2753 
L 3553 2753 
L 3553 4666 
L 4184 4666 
L 4184 0 
L 3553 0 
L 3553 2222 
L 1259 2222 
L 1259 0 
L 628 0 
L 628 4666 
z
" transform="scale(0.015625)"/>
     </defs>
     <use xlink:href="#DejaVuSans-46"/>
     <use xlink:href="#DejaVuSans-61" transform="translate(48.394531 0)"/>
     <use xlink:href="#DejaVuSans-63" transform="translate(109.673828 0)"/>
     <use xlink:href="#DejaVuSans-69" transform="translate(164.654297 0)"/>
     <use xlink:href="#DejaVuSans-61" transform="translate(192.4375 0)"/>
     <use xlink:href="#DejaVuSans-6c" transform="translate(253.716797 0)"/>
     <use xlink:href="#DejaVuSans-20" transform="translate(281.5 0)"/>
     <use xlink:href="#DejaVuSans-74" transform="translate(313.287109 0)"/>
     <use xlink:href="#DejaVuSans-72" transform="translate(352.496094 0)"/>
     <use xlink:href="#DejaVuSans-61" transform="translate(393.609375 0)"/>
     <use xlink:href="#DejaVuSans-63" transform="translate(454.888672 0)"/>
     <use xlink:href="#DejaVuSans-65" transform="translate(509.869141 0)"/>
     <use xlink:href="#DejaVuSans-3a" transform="translate(571.392578 0)"/>
     <use xlink:href="#DejaVuSans-20" transform="translate(605.083984 0)"/>
     <use xlink:href="#DejaVuSans-41" transform="translate(636.871094 0)"/>
     <use xlink:href="#DejaVuSans-44" transform="translate(705.279297 0)"/>
     <use xlink:href="#DejaVuSans-48" transform="translate(782.28125 0)"/>
     <use xlink:href="#DejaVuSans-44" transform="translate(857.476562 0)"/>
    </g>
   </g>
   <g id="legend_1">
    <g id="patch_7">
     <path d="M 593.538594 42.096094 
L 615.538594 42.096094 
L 615.538594 34.396094 
L 593.538594 34.396094 
z
" style="fill: #d3d3d3; fill-opacity: 0.5; stroke: #d3d3d3; stroke-opacity: 0.5; stroke-linejoin: miter"/>
    </g>
    <g id="text_19">
     <!-- ADHD ±2 SD -->
     <g transform="translate(624.338594 42.096094) scale(0.11 -0.11)">
      <defs>
       <path id="DejaVuSans-b1" d="M 2944 4013 
L 2944 2803 
L 4684 2803 
L 4684 2272 
L 2944 2272 
L 2944 1063 
L 2419 1063 
L 2419 2272 
L 678 2272 
L 678 2803 
L 2419 2803 
L 2419 4013 
L 2944 4013 
z
M 678 531 
L 4684 531 
L 4684 0 
L 678 0 
L 678 531 
z
" transform="scale(0.015625)"/>
       <path id="DejaVuSans-53" d="M 3425 4513 
L 3425 3897 
Q 3066 4069 2747 4153 
Q 2428 4238 2131 4238 
Q 1616 4238 1336 4038 
Q 1056 3838 1056 3469 
Q 1056 3159 1242 3001 
Q 1428 2844 1947 2747 
L 2328 2669 
Q 3034 2534 3370 2195 
Q 3706 1856 3706 1288 
Q 3706 609 3251 259 
Q 2797 -91 1919 -91 
Q 1588 -91 1214 -16 
Q 841 59 441 206 
L 441 856 
Q 825 641 1194 531 
Q 1563 422 1919 422 
Q 2459 422 2753 634 
Q 3047 847 3047 1241 
Q 3047 1584 2836 1778 
Q 2625 1972 2144 2069 
L 1759 2144 
Q 1053 2284 737 2584 
Q 422 2884 422 3419 
Q 422 4038 858 4394 
Q 1294 4750 2059 4750 
Q 2388 4750 2728 4690 
Q 3069 4631 3425 4513 
z
" transform="scale(0.015625)"/>
      </defs>
      <use xlink:href="#DejaVuSans-41"/>
      <use xlink:href="#DejaVuSans-44" transform="translate(68.408203 0)"/>
      <use xlink:href="#DejaVuSans-48" transform="translate(145.410156 0)"/>
      <use xlink:href="#DejaVuSans-44" transform="translate(220.605469 0)"/>
      <use xlink:href="#DejaVuSans-20" transform="translate(297.607422 0)"/>
      <use xlink:href="#DejaVuSans-b1" transform="translate(329.394531 0)"/>
      <use xlink:href="#DejaVuSans-32" transform="translate(413.183594 0)"/>
      <use xlink:href="#DejaVuSans-20" transform="translate(476.806641 0)"/>
      <use xlink:href="#DejaVuSans-53" transform="translate(508.59375 0)"/>
      <use xlink:href="#DejaVuSans-44" transform="translate(572.070312 0)"/>
     </g>
    </g>
    <g id="patch_8">
     <path d="M 593.538594 58.242031 
L 615.538594 58.242031 
L 615.538594 50.542031 
L 593.538594 50.542031 
z
" style="fill: #808080; fill-opacity: 0.7; stroke: #808080; stroke-opacity: 0.7; stroke-linejoin: miter"/>
    </g>
    <g id="text_20">
     <!-- ADHD ±1 SD -->
     <g transform="translate(624.338594 58.242031) scale(0.11 -0.11)">
      <use xlink:href="#DejaVuSans-41"/>
      <use xlink:href="#DejaVuSans-44" transform="translate(68.408203 0)"/>
      <use xlink:href="#DejaVuSans-48" transform="translate(145.410156 0)"/>
      <use xlink:href="#DejaVuSans-44" transform="translate(220.605469 0)"/>
      <use xlink:href="#DejaVuSans-20" transform="translate(297.607422 0)"/>
      <use xlink:href="#DejaVuSans-b1" transform="translate(329.394531 0)"/>
      <use xlink:href="#DejaVuSans-31" transform="translate(413.183594 0)"/>
      <use xlink:href="#DejaVuSans-20" transform="translate(476.806641 0)"/>
      <use xlink:href="#DejaVuSans-53" transform="translate(508.59375 0)"/>
      <use xlink:href="#DejaVuSans-44" transform="translate(572.070312 0)"/>
     </g>
    </g>
    <g id="line2d_34">
     <path d="M 593.538594 70.537969 
L 604.538594 70.537969 
L 615.538594 70.537969 
" style="fill: none; stroke: #ff8c00; stroke-width: 2.3; stroke-linecap: square"/>
    </g>
    <g id="text_21">
     <!-- Patient -->
     <g transform="translate(624.338594 74.387969) scale(0.11 -0.11)">
      <defs>
       <path id="DejaVuSans-50" d="M 1259 4147 
L 1259 2394 
L 2053 2394 
Q 2494 2394 2734 2622 
Q 2975 2850 2975 3272 
Q 2975 3691 2734 3919 
Q 2494 4147 2053 4147 
L 1259 4147 
z
M 628 4666 
L 2053 4666 
Q 2838 4666 3239 4311 
Q 3641 3956 3641 3272 
Q 3641 2581 3239 2228 
Q 2838 1875 2053 1875 
L 1259 1875 
L 1259 0 
L 628 0 
L 628 4666 
z
" transform="scale(0.015625)"/>
      </defs>
      <use xlink:href="#DejaVuSans-50"/>
      <use xlink:href="#DejaVuSans-61" transform="translate(55.802734 0)"/>
      <use xlink:href="#DejaVuSans-74" transform="translate(117.082031 0)"/>
      <use xlink:href="#DejaVuSans-69" transform="translate(156.291016 0)"/>
      <use xlink:href="#DejaVuSans-65" transform="translate(184.074219 0)"/>
      <use xlink:href="#DejaVuSans-6e" transform="translate(245.597656 0)"/>
      <use xlink:href="#DejaVuSans-74" transform="translate(308.976562 0)"/>
     </g>
    </g>
   </g>
  </g>
 </g>
 <defs>
  <clipPath id="pd7b903ccff">
   <rect x="47.307188" y="23.837812" width="658.33" height="360.28"/>
  </clipPath>
 </defs>
</svg>
