<?xml version="1.0" encoding="utf-8" standalone="no"?>
<!DOCTYPE svg PUBLIC "-//W3C//DTD SVG 1.1//EN"
  "http://www.w3.org/Graphics/SVG/1.1/DTD/svg11.dtd">
<svg xmlns:xlink="http://www.w3.org/1999/xlink" width="712.837188pt" height="424.5775pt" viewBox="0 0 712.837188 424.5775" xmlns="http://www.w3.org/2000/svg" version="1.1">
 <metadata>
  <rdf:RDF xmlns:dc="http://purl.org/dc/elements/1.1/" xmlns:cc="http://creativecommons.org/ns#" xmlns:rdf="http://www.w3.org/1999/02/22-rdf-syntax-ns#">
   <cc:Work>
    <dc:type rdf:resource="http://purl.org/dc/dcmitype/StillImage"/>
    <dc:date>2026-06-14T18:58:11.420174</dc:date>
    <dc:format>image/svg+xml</dc:format>
    <dc:creator>
     <cc:Agent>
      <dc:title>Matplotlib v3.10.1, https://matplotlib.org/</dc:title>
     </cc:Agent>
    </dc:creator>
   </cc:Work>
  </rdf:RDF>
 </metadata>
 <defs>
  <style type="text/css">*{stroke-linejoin: round; stroke-linecap: butt}</style>
 </defs>
 <g id="figure_1">
  <g id="patch_1">
   <path d="M 0 424.5775 
L 712.837188 424.5775 
L 712.837188 0 
L 0 0 
z
" style="fill: #ffffff"/>
  </g>
  <g id="axes_1">
   <g id="patch_2">
    <path d="M 47.307188 384.117812 
L 705.637188 384.117812 
L 705.637188 23.837812 
L 47.307188 23.837812 
z
" style="fill: #ffffff"/>
   </g>
   <g id="matplotlib.axis_1">
    <g id="xtick_1">
     <g id="line2d_1">
      <path d="M 47.307188 384.117812 
L 47.307188 23.837812 
" clip-path="url(#pc7d7909031)" style="fill: none; stroke: #b0b0b0; stroke-opacity: 0.2; stroke-width: 0.6; stroke-linecap: square"/>
     </g>
     <g id="line2d_2">
      <defs>
       <path id="m0248b1d731" d="M 0 0 
L 0 3.5 
" style="stroke: #000000; stroke-width: 0.8"/>
      </defs>
      <g>
       <use xlink:href="#m0248b1d731" x="47.307188" y="384.117812" style="stroke: #000000; stroke-width: 0.8"/>
      </g>
     </g>
     <g id="text_1">
      <!-- 0 -->
      <g transform="translate(43.807813 399.476094) scale(0.11 -0.11)">
       <defs>
        <path id="DejaVuSans-30" d="M 2034 4250 
Q 1547 4250 1301 3770 
Q 1056 3291 1056 2328 
Q 1056 1369 1301 889 
Q 1547 409 2034 409 
Q 2525 409 2770 889 
Q 3016 1369 3016 2328 
Q 3016 3291 2770 3770 
Q 2525 4250 2034 4250 
z
M 2034 4750 
Q 2819 4750 3233 4129 
Q 3647 3509 3647 2328 
Q 3647 1150 3233 529 
Q 2819 -91 2034 -91 
Q 1250 -91 836 529 
Q 422 1150 422 2328 
Q 422 3509 836 4129 
Q 1250 4750 2034 4750 
z
" transform="scale(0.015625)"/>
       </defs>
       <use xlink:href="#DejaVuSans-30"/>
      </g>
     </g>
    </g>
    <g id="xtick_2">
     <g id="line2d_3">
      <path d="M 134.387875 384.117812 
L 134.387875 23.837812 
" clip-path="url(#pc7d7909031)" style="fill: none; stroke: #b0b0b0; stroke-opacity: 0.2; stroke-width: 0.6; stroke-linecap: square"/>
     </g>
     <g id="line2d_4">
      <g>
       <use xlink:href="#m0248b1d731" x="134.387875" y="384.117812" style="stroke: #000000; stroke-width: 0.8"/>
      </g>
     </g>
     <g id="text_2">
      <!-- 25 -->
      <g transform="translate(127.389125 399.476094) scale(0.11 -0.11)">
       <defs>
        <path id="DejaVuSans-32" d="M 1228 531 
L 3431 531 
L 3431 0 
L 469 0 
L 469 531 
Q 828 903 1448 1529 
Q 2069 2156 2228 2338 
Q 2531 2678 2651 2914 
Q 2772 3150 2772 3378 
Q 2772 3750 2511 3984 
Q 2250 4219 1831 4219 
Q 1534 4219 1204 4116 
Q 875 4013 500 3803 
L 500 4441 
Q 881 4594 1212 4672 
Q 1544 4750 1819 4750 
Q 2544 4750 2975 4387 
Q 3406 4025 3406 3419 
Q 3406 3131 3298 2873 
Q 3191 2616 2906 2266 
Q 2828 2175 2409 1742 
Q 1991 1309 1228 531 
z
" transform="scale(0.015625)"/>
        <path id="DejaVuSans-35" d="M 691 4666 
L 3169 4666 
L 3169 4134 
L 1269 4134 
L 1269 2991 
Q 1406 3038 1543 3061 
Q 1681 3084 1819 3084 
Q 2600 3084 3056 2656 
Q 3513 2228 3513 1497 
Q 3513 744 3044 326 
Q 2575 -91 1722 -91 
Q 1428 -91 1123 -41 
Q 819 9 494 109 
L 494 744 
Q 775 591 1075 516 
Q 1375 441 1709 441 
Q 2250 441 2565 725 
Q 2881 1009 2881 1497 
Q 2881 1984 2565 2268 
Q 2250 2553 1709 2553 
Q 1456 2553 1204 2497 
Q 953 2441 691 2322 
L 691 4666 
z
" transform="scale(0.015625)"/>
       </defs>
       <use xlink:href="#DejaVuSans-32"/>
       <use xlink:href="#DejaVuSans-35" transform="translate(63.623047 0)"/>
      </g>
     </g>
    </g>
    <g id="xtick_3">
     <g id="line2d_5">
      <path d="M 221.468563 384.117812 
L 221.468563 23.837812 
" clip-path="url(#pc7d7909031)" style="fill: none; stroke: #b0b0b0; stroke-opacity: 0.2; stroke-width: 0.6; stroke-linecap: square"/>
     </g>
     <g id="line2d_6">
      <g>
       <use xlink:href="#m0248b1d731" x="221.468563" y="384.117812" style="stroke: #000000; stroke-width: 0.8"/>
      </g>
     </g>
     <g id="text_3">
      <!-- 50 -->
      <g transform="translate(214.469813 399.476094) scale(0.11 -0.11)">
       <use xlink:href="#DejaVuSans-35"/>
       <use xlink:href="#DejaVuSans-30" transform="translate(63.623047 0)"/>
      </g>
     </g>
    </g>
    <g id="xtick_4">
     <g id="line2d_7">
      <path d="M 308.549251 384.117812 
L 308.549251 23.837812 
" clip-path="url(#pc7d7909031)" style="fill: none; stroke: #b0b0b0; stroke-opacity: 0.2; stroke-width: 0.6; stroke-linecap: square"/>
     </g>
     <g id="line2d_8">
      <g>
       <use xlink:href="#m0248b1d731" x="308.549251" y="384.117812" style="stroke: #000000; stroke-width: 0.8"/>
      </g>
     </g>
     <g id="text_4">
      <!-- 75 -->
      <g transform="translate(301.550501 399.476094) scale(0.11 -0.11)">
       <defs>
        <path id="DejaVuSans-37" d="M 525 4666 
L 3525 4666 
L 3525 4397 
L 1831 0 
L 1172 0 
L 2766 4134 
L 525 4134 
L 525 4666 
z
" transform="scale(0.015625)"/>
       </defs>
       <use xlink:href="#DejaVuSans-37"/>
       <use xlink:href="#DejaVuSans-35" transform="translate(63.623047 0)"/>
      </g>
     </g>
    </g>
    <g id="xtick_5">
     <g id="line2d_9">
      <path d="M 395.629939 384.117812 
L 395.629939 23.837812 
" clip-path="url(#pc7d7909031)" style="fill: none; stroke: #b0b0b0; stroke-opacity: 0.2; stroke-width: 0.6; stroke-linecap: square"/>
     </g>
     <g id="line2d_10">
      <g>
       <use xlink:href="#m0248b1d731" x="395.629939" y="384.117812" style="stroke: #000000; stroke-width: 0.8"/>
      </g>
     </g>
     <g id="text_5">
      <!-- 100 -->
      <g transform="translate(385.131814 399.476094) scale(0.11 -0.11)">
       <defs>
        <path id="DejaVuSans-31" d="M 794 531 
L 1825 531 
L 1825 4091 
L 703 3866 
L 703 4441 
L 1819 4666 
L 2450 4666 
L 2450 531 
L 3481 531 
L 3481 0 
L 794 0 
L 794 531 
z
" transform="scale(0.015625)"/>
       </defs>
       <use xlink:href="#DejaVuSans-31"/>
       <use xlink:href="#DejaVuSans-30" transform="translate(63.623047 0)"/>
       <use xlink:href="#DejaVuSans-30" transform="translate(127.246094 0)"/>
      </g>
     </g>
    </g>
    <g id="xtick_6">
     <g id="line2d_11">
      <path d="M 482.710627 384.117812 
L 482.710627 23.837812 
" clip-path="url(#pc7d7909031)" style="fill: none; stroke: #b0b0b0; stroke-opacity: 0.2; stroke-width: 0.6; stroke-linecap: square"/>
     </g>
     <g id="line2d_12">
      <g>
       <use xlink:href="#m0248b1d731" x="482.710627" y="384.117812" style="stroke: #000000; stroke-width: 0.8"/>
      </g>
     </g>
     <g id="text_6">
      <!-- 125 -->
      <g transform="translate(472.212502 399.476094) scale(0.11 -0.11)">
       <use xlink:href="#DejaVuSans-31"/>
       <use xlink:href="#DejaVuSans-32" transform="translate(63.623047 0)"/>
       <use xlink:href="#DejaVuSans-35" transform="translate(127.246094 0)"/>
      </g>
     </g>
    </g>
    <g id="xtick_7">
     <g id="line2d_13">
      <path d="M 569.791314 384.117812 
L 569.791314 23.837812 
" clip-path="url(#pc7d7909031)" style="fill: none; stroke: #b0b0b0; stroke-opacity: 0.2; stroke-width: 0.6; stroke-linecap: square"/>
     </g>
     <g id="line2d_14">
      <g>
       <use xlink:href="#m0248b1d731" x="569.791314" y="384.117812" style="stroke: #000000; stroke-width: 0.8"/>
      </g>
     </g>
     <g id="text_7">
      <!-- 150 -->
      <g transform="translate(559.293189 399.476094) scale(0.11 -0.11)">
       <use xlink:href="#DejaVuSans-31"/>
       <use xlink:href="#DejaVuSans-35" transform="translate(63.623047 0)"/>
       <use xlink:href="#DejaVuSans-30" transform="translate(127.246094 0)"/>
      </g>
     </g>
    </g>
    <g id="xtick_8">
     <g id="line2d_15">
      <path d="M 656.872002 384.117812 
L 656.872002 23.837812 
" clip-path="url(#pc7d7909031)" style="fill: none; stroke: #b0b0b0; stroke-opacity: 0.2; stroke-width: 0.6; stroke-linecap: square"/>
     </g>
     <g id="line2d_16">
      <g>
       <use xlink:href="#m0248b1d731" x="656.872002" y="384.117812" style="stroke: #000000; stroke-width: 0.8"/>
      </g>
     </g>
     <g id="text_8">
      <!-- 175 -->
      <g transform="translate(646.373877 399.476094) scale(0.11 -0.11)">
       <use xlink:href="#DejaVuSans-31"/>
       <use xlink:href="#DejaVuSans-37" transform="translate(63.623047 0)"/>
       <use xlink:href="#DejaVuSans-35" transform="translate(127.246094 0)"/>
      </g>
     </g>
    </g>
    <g id="text_9">
     <!-- Time (s) -->
     <g transform="translate(352.0775 414.881875) scale(0.12 -0.12)">
      <defs>
       <path id="DejaVuSans-54" d="M -19 4666 
L 3928 4666 
L 3928 4134 
L 2272 4134 
L 2272 0 
L 1638 0 
L 1638 4134 
L -19 4134 
L -19 4666 
z
" transform="scale(0.015625)"/>
       <path id="DejaVuSans-69" d="M 603 3500 
L 1178 3500 
L 1178 0 
L 603 0 
L 603 3500 
z
M 603 4863 
L 1178 4863 
L 1178 4134 
L 603 4134 
L 603 4863 
z
" transform="scale(0.015625)"/>
       <path id="DejaVuSans-6d" d="M 3328 2828 
Q 3544 3216 3844 3400 
Q 4144 3584 4550 3584 
Q 5097 3584 5394 3201 
Q 5691 2819 5691 2113 
L 5691 0 
L 5113 0 
L 5113 2094 
Q 5113 2597 4934 2840 
Q 4756 3084 4391 3084 
Q 3944 3084 3684 2787 
Q 3425 2491 3425 1978 
L 3425 0 
L 2847 0 
L 2847 2094 
Q 2847 2600 2669 2842 
Q 2491 3084 2119 3084 
Q 1678 3084 1418 2786 
Q 1159 2488 1159 1978 
L 1159 0 
L 581 0 
L 581 3500 
L 1159 3500 
L 1159 2956 
Q 1356 3278 1631 3431 
Q 1906 3584 2284 3584 
Q 2666 3584 2933 3390 
Q 3200 3197 3328 2828 
z
" transform="scale(0.015625)"/>
       <path id="DejaVuSans-65" d="M 3597 1894 
L 3597 1613 
L 953 1613 
Q 991 1019 1311 708 
Q 1631 397 2203 397 
Q 2534 397 2845 478 
Q 3156 559 3463 722 
L 3463 178 
Q 3153 47 2828 -22 
Q 2503 -91 2169 -91 
Q 1331 -91 842 396 
Q 353 884 353 1716 
Q 353 2575 817 3079 
Q 1281 3584 2069 3584 
Q 2775 3584 3186 3129 
Q 3597 2675 3597 1894 
z
M 3022 2063 
Q 3016 2534 2758 2815 
Q 2500 3097 2075 3097 
Q 1594 3097 1305 2825 
Q 1016 2553 972 2059 
L 3022 2063 
z
" transform="scale(0.015625)"/>
       <path id="DejaVuSans-20" transform="scale(0.015625)"/>
       <path id="DejaVuSans-28" d="M 1984 4856 
Q 1566 4138 1362 3434 
Q 1159 2731 1159 2009 
Q 1159 1288 1364 580 
Q 1569 -128 1984 -844 
L 1484 -844 
Q 1016 -109 783 600 
Q 550 1309 550 2009 
Q 550 2706 781 3412 
Q 1013 4119 1484 4856 
L 1984 4856 
z
" transform="scale(0.015625)"/>
       <path id="DejaVuSans-73" d="M 2834 3397 
L 2834 2853 
Q 2591 2978 2328 3040 
Q 2066 3103 1784 3103 
Q 1356 3103 1142 2972 
Q 928 2841 928 2578 
Q 928 2378 1081 2264 
Q 1234 2150 1697 2047 
L 1894 2003 
Q 2506 1872 2764 1633 
Q 3022 1394 3022 966 
Q 3022 478 2636 193 
Q 2250 -91 1575 -91 
Q 1294 -91 989 -36 
Q 684 19 347 128 
L 347 722 
Q 666 556 975 473 
Q 1284 391 1588 391 
Q 1994 391 2212 530 
Q 2431 669 2431 922 
Q 2431 1156 2273 1281 
Q 2116 1406 1581 1522 
L 1381 1569 
Q 847 1681 609 1914 
Q 372 2147 372 2553 
Q 372 3047 722 3315 
Q 1072 3584 1716 3584 
Q 2034 3584 2315 3537 
Q 2597 3491 2834 3397 
z
" transform="scale(0.015625)"/>
       <path id="DejaVuSans-29" d="M 513 4856 
L 1013 4856 
Q 1481 4119 1714 3412 
Q 1947 2706 1947 2009 
Q 1947 1309 1714 600 
Q 1481 -109 1013 -844 
L 513 -844 
Q 928 -128 1133 580 
Q 1338 1288 1338 2009 
Q 1338 2731 1133 3434 
Q 928 4138 513 4856 
z
" transform="scale(0.015625)"/>
      </defs>
      <use xlink:href="#DejaVuSans-54"/>
      <use xlink:href="#DejaVuSans-69" transform="translate(57.958984 0)"/>
      <use xlink:href="#DejaVuSans-6d" transform="translate(85.742188 0)"/>
      <use xlink:href="#DejaVuSans-65" transform="translate(183.154297 0)"/>
      <use xlink:href="#DejaVuSans-20" transform="translate(244.677734 0)"/>
      <use xlink:href="#DejaVuSans-28" transform="translate(276.464844 0)"/>
      <use xlink:href="#DejaVuSans-73" transform="translate(315.478516 0)"/>
      <use xlink:href="#DejaVuSans-29" transform="translate(367.578125 0)"/>
     </g>
    </g>
   </g>
   <g id="matplotlib.axis_2">
    <g id="ytick_1">
     <g id="line2d_17">
      <path d="M 47.307188 367.741449 
L 705.637188 367.741449 
" clip-path="url(#pc7d7909031)" style="fill: none; stroke: #b0b0b0; stroke-opacity: 0.2; stroke-width: 0.6; stroke-linecap: square"/>
     </g>
     <g id="line2d_18">
      <defs>
       <path id="mc4d9d5135b" d="M 0 0 
L -3.5 0 
" style="stroke: #000000; stroke-width: 0.8"/>
      </defs>
      <g>
       <use xlink:href="#mc4d9d5135b" x="47.307188" y="367.741449" style="stroke: #000000; stroke-width: 0.8"/>
      </g>
     </g>
     <g id="text_10">
      <!-- 0.0 -->
      <g transform="translate(22.81375 371.920589) scale(0.11 -0.11)">
       <defs>
        <path id="DejaVuSans-2e" d="M 684 794 
L 1344 794 
L 1344 0 
L 684 0 
L 684 794 
z
" transform="scale(0.015625)"/>
       </defs>
       <use xlink:href="#DejaVuSans-30"/>
       <use xlink:href="#DejaVuSans-2e" transform="translate(63.623047 0)"/>
       <use xlink:href="#DejaVuSans-30" transform="translate(95.410156 0)"/>
      </g>
     </g>
    </g>
    <g id="ytick_2">
     <g id="line2d_19">
      <path d="M 47.307188 317.507205 
L 705.637188 317.507205 
" clip-path="url(#pc7d7909031)" style="fill: none; stroke: #b0b0b0; stroke-opacity: 0.2; stroke-width: 0.6; stroke-linecap: square"/>
     </g>
     <g id="line2d_20">
      <g>
       <use xlink:href="#mc4d9d5135b" x="47.307188" y="317.507205" style="stroke: #000000; stroke-width: 0.8"/>
      </g>
     </g>
     <g id="text_11">
      <!-- 0.5 -->
      <g transform="translate(22.81375 321.686345) scale(0.11 -0.11)">
       <use xlink:href="#DejaVuSans-30"/>
       <use xlink:href="#DejaVuSans-2e" transform="translate(63.623047 0)"/>
       <use xlink:href="#DejaVuSans-35" transform="translate(95.410156 0)"/>
      </g>
     </g>
    </g>
    <g id="ytick_3">
     <g id="line2d_21">
      <path d="M 47.307188 267.27296 
L 705.637188 267.27296 
" clip-path="url(#pc7d7909031)" style="fill: none; stroke: #b0b0b0; stroke-opacity: 0.2; stroke-width: 0.6; stroke-linecap: square"/>
     </g>
     <g id="line2d_22">
      <g>
       <use xlink:href="#mc4d9d5135b" x="47.307188" y="267.27296" style="stroke: #000000; stroke-width: 0.8"/>
      </g>
     </g>
     <g id="text_12">
      <!-- 1.0 -->
      <g transform="translate(22.81375 271.452101) scale(0.11 -0.11)">
       <use xlink:href="#DejaVuSans-31"/>
       <use xlink:href="#DejaVuSans-2e" transform="translate(63.623047 0)"/>
       <use xlink:href="#DejaVuSans-30" transform="translate(95.410156 0)"/>
      </g>
     </g>
    </g>
    <g id="ytick_4">
     <g id="line2d_23">
      <path d="M 47.307188 217.038716 
L 705.637188 217.038716 
" clip-path="url(#pc7d7909031)" style="fill: none; stroke: #b0b0b0; stroke-opacity: 0.2; stroke-width: 0.6; stroke-linecap: square"/>
     </g>
     <g id="line2d_24">
      <g>
       <use xlink:href="#mc4d9d5135b" x="47.307188" y="217.038716" style="stroke: #000000; stroke-width: 0.8"/>
      </g>
     </g>
     <g id="text_13">
      <!-- 1.5 -->
      <g transform="translate(22.81375 221.217857) scale(0.11 -0.11)">
       <use xlink:href="#DejaVuSans-31"/>
       <use xlink:href="#DejaVuSans-2e" transform="translate(63.623047 0)"/>
       <use xlink:href="#DejaVuSans-35" transform="translate(95.410156 0)"/>
      </g>
     </g>
    </g>
    <g id="ytick_5">
     <g id="line2d_25">
      <path d="M 47.307188 166.804472 
L 705.637188 166.804472 
" clip-path="url(#pc7d7909031)" style="fill: none; stroke: #b0b0b0; stroke-opacity: 0.2; stroke-width: 0.6; stroke-linecap: square"/>
     </g>
     <g id="line2d_26">
      <g>
       <use xlink:href="#mc4d9d5135b" x="47.307188" y="166.804472" style="stroke: #000000; stroke-width: 0.8"/>
      </g>
     </g>
     <g id="text_14">
      <!-- 2.0 -->
      <g transform="translate(22.81375 170.983612) scale(0.11 -0.11)">
       <use xlink:href="#DejaVuSans-32"/>
       <use xlink:href="#DejaVuSans-2e" transform="translate(63.623047 0)"/>
       <use xlink:href="#DejaVuSans-30" transform="translate(95.410156 0)"/>
      </g>
     </g>
    </g>
    <g id="ytick_6">
     <g id="line2d_27">
      <path d="M 47.307188 116.570227 
L 705.637188 116.570227 
" clip-path="url(#pc7d7909031)" style="fill: none; stroke: #b0b0b0; stroke-opacity: 0.2; stroke-width: 0.6; stroke-linecap: square"/>
     </g>
     <g id="line2d_28">
      <g>
       <use xlink:href="#mc4d9d5135b" x="47.307188" y="116.570227" style="stroke: #000000; stroke-width: 0.8"/>
      </g>
     </g>
     <g id="text_15">
      <!-- 2.5 -->
      <g transform="translate(22.81375 120.749368) scale(0.11 -0.11)">
       <use xlink:href="#DejaVuSans-32"/>
       <use xlink:href="#DejaVuSans-2e" transform="translate(63.623047 0)"/>
       <use xlink:href="#DejaVuSans-35" transform="translate(95.410156 0)"/>
      </g>
     </g>
    </g>
    <g id="ytick_7">
     <g id="line2d_29">
      <path d="M 47.307188 66.335983 
L 705.637188 66.335983 
" clip-path="url(#pc7d7909031)" style="fill: none; stroke: #b0b0b0; stroke-opacity: 0.2; stroke-width: 0.6; stroke-linecap: square"/>
     </g>
     <g id="line2d_30">
      <g>
       <use xlink:href="#mc4d9d5135b" x="47.307188" y="66.335983" style="stroke: #000000; stroke-width: 0.8"/>
      </g>
     </g>
     <g id="text_16">
      <!-- 3.0 -->
      <g transform="translate(22.81375 70.515124) scale(0.11 -0.11)">
       <defs>
        <path id="DejaVuSans-33" d="M 2597 2516 
Q 3050 2419 3304 2112 
Q 3559 1806 3559 1356 
Q 3559 666 3084 287 
Q 2609 -91 1734 -91 
Q 1441 -91 1130 -33 
Q 819 25 488 141 
L 488 750 
Q 750 597 1062 519 
Q 1375 441 1716 441 
Q 2309 441 2620 675 
Q 2931 909 2931 1356 
Q 2931 1769 2642 2001 
Q 2353 2234 1838 2234 
L 1294 2234 
L 1294 2753 
L 1863 2753 
Q 2328 2753 2575 2939 
Q 2822 3125 2822 3475 
Q 2822 3834 2567 4026 
Q 2313 4219 1838 4219 
Q 1578 4219 1281 4162 
Q 984 4106 628 3988 
L 628 4550 
Q 988 4650 1302 4700 
Q 1616 4750 1894 4750 
Q 2613 4750 3031 4423 
Q 3450 4097 3450 3541 
Q 3450 3153 3228 2886 
Q 3006 2619 2597 2516 
z
" transform="scale(0.015625)"/>
       </defs>
       <use xlink:href="#DejaVuSans-33"/>
       <use xlink:href="#DejaVuSans-2e" transform="translate(63.623047 0)"/>
       <use xlink:href="#DejaVuSans-30" transform="translate(95.410156 0)"/>
      </g>
     </g>
    </g>
    <g id="text_17">
     <!-- AU mean intensity -->
     <g transform="translate(16.318125 259.314687) rotate(-90) scale(0.12 -0.12)">
      <defs>
       <path id="DejaVuSans-41" d="M 2188 4044 
L 1331 1722 
L 3047 1722 
L 2188 4044 
z
M 1831 4666 
L 2547 4666 
L 4325 0 
L 3669 0 
L 3244 1197 
L 1141 1197 
L 716 0 
L 50 0 
L 1831 4666 
z
" transform="scale(0.015625)"/>
       <path id="DejaVuSans-55" d="M 556 4666 
L 1191 4666 
L 1191 1831 
Q 1191 1081 1462 751 
Q 1734 422 2344 422 
Q 2950 422 3222 751 
Q 3494 1081 3494 1831 
L 3494 4666 
L 4128 4666 
L 4128 1753 
Q 4128 841 3676 375 
Q 3225 -91 2344 -91 
Q 1459 -91 1007 375 
Q 556 841 556 1753 
L 556 4666 
z
" transform="scale(0.015625)"/>
       <path id="DejaVuSans-61" d="M 2194 1759 
Q 1497 1759 1228 1600 
Q 959 1441 959 1056 
Q 959 750 1161 570 
Q 1363 391 1709 391 
Q 2188 391 2477 730 
Q 2766 1069 2766 1631 
L 2766 1759 
L 2194 1759 
z
M 3341 1997 
L 3341 0 
L 2766 0 
L 2766 531 
Q 2569 213 2275 61 
Q 1981 -91 1556 -91 
Q 1019 -91 701 211 
Q 384 513 384 1019 
Q 384 1609 779 1909 
Q 1175 2209 1959 2209 
L 2766 2209 
L 2766 2266 
Q 2766 2663 2505 2880 
Q 2244 3097 1772 3097 
Q 1472 3097 1187 3025 
Q 903 2953 641 2809 
L 641 3341 
Q 956 3463 1253 3523 
Q 1550 3584 1831 3584 
Q 2591 3584 2966 3190 
Q 3341 2797 3341 1997 
z
" transform="scale(0.015625)"/>
       <path id="DejaVuSans-6e" d="M 3513 2113 
L 3513 0 
L 2938 0 
L 2938 2094 
Q 2938 2591 2744 2837 
Q 2550 3084 2163 3084 
Q 1697 3084 1428 2787 
Q 1159 2491 1159 1978 
L 1159 0 
L 581 0 
L 581 3500 
L 1159 3500 
L 1159 2956 
Q 1366 3272 1645 3428 
Q 1925 3584 2291 3584 
Q 2894 3584 3203 3211 
Q 3513 2838 3513 2113 
z
" transform="scale(0.015625)"/>
       <path id="DejaVuSans-74" d="M 1172 4494 
L 1172 3500 
L 2356 3500 
L 2356 3053 
L 1172 3053 
L 1172 1153 
Q 1172 725 1289 603 
Q 1406 481 1766 481 
L 2356 481 
L 2356 0 
L 1766 0 
Q 1100 0 847 248 
Q 594 497 594 1153 
L 594 3053 
L 172 3053 
L 172 3500 
L 594 3500 
L 594 4494 
L 1172 4494 
z
" transform="scale(0.015625)"/>
       <path id="DejaVuSans-79" d="M 2059 -325 
Q 1816 -950 1584 -1140 
Q 1353 -1331 966 -1331 
L 506 -1331 
L 506 -850 
L 844 -850 
Q 1081 -850 1212 -737 
Q 1344 -625 1503 -206 
L 1606 56 
L 191 3500 
L 800 3500 
L 1894 763 
L 2988 3500 
L 3597 3500 
L 2059 -325 
z
" transform="scale(0.015625)"/>
      </defs>
      <use xlink:href="#DejaVuSans-41"/>
      <use xlink:href="#DejaVuSans-55" transform="translate(68.408203 0)"/>
      <use xlink:href="#DejaVuSans-20" transform="translate(141.601562 0)"/>
      <use xlink:href="#DejaVuSans-6d" transform="translate(173.388672 0)"/>
      <use xlink:href="#DejaVuSans-65" transform="translate(270.800781 0)"/>
      <use xlink:href="#DejaVuSans-61" transform="translate(332.324219 0)"/>
      <use xlink:href="#DejaVuSans-6e" transform="translate(393.603516 0)"/>
      <use xlink:href="#DejaVuSans-20" transform="translate(456.982422 0)"/>
      <use xlink:href="#DejaVuSans-69" transform="translate(488.769531 0)"/>
      <use xlink:href="#DejaVuSans-6e" transform="translate(516.552734 0)"/>
      <use xlink:href="#DejaVuSans-74" transform="translate(579.931641 0)"/>
      <use xlink:href="#DejaVuSans-65" transform="translate(619.140625 0)"/>
      <use xlink:href="#DejaVuSans-6e" transform="translate(680.664062 0)"/>
      <use xlink:href="#DejaVuSans-73" transform="translate(744.042969 0)"/>
      <use xlink:href="#DejaVuSans-69" transform="translate(796.142578 0)"/>
      <use xlink:href="#DejaVuSans-74" transform="translate(823.925781 0)"/>
      <use xlink:href="#DejaVuSans-79" transform="translate(863.134766 0)"/>
     </g>
    </g>
   </g>
   <g id="FillBetweenPolyCollection_1">
    <defs>
     <path id="mda07ecd71c" d="M 47.307188 -188.152867 
L 47.307188 -13.727428 
L 50.790415 -7.073865 
L 54.273643 1.632242 
L 57.75687 -17.612097 
L 61.240098 -11.624048 
L 64.723325 -12.696932 
L 68.206553 -20.419169 
L 71.68978 -16.387975 
L 75.173008 -10.699215 
L 78.656235 -4.988568 
L 82.139463 -7.206478 
L 85.62269 -8.204662 
L 89.105918 -5.59505 
L 92.589145 -10.254906 
L 96.072373 -16.287488 
L 99.5556 -25.949053 
L 103.038828 -20.079531 
L 106.522055 -14.237919 
L 110.005283 -21.176111 
L 113.48851 -20.336702 
L 116.971738 -23.193544 
L 120.454965 -25.779139 
L 123.938193 -22.161018 
L 127.42142 -17.291093 
L 130.904648 -11.261445 
L 134.387875 -16.674214 
L 137.871103 -16.255777 
L 141.35433 -12.335687 
L 144.837558 -15.080532 
L 148.320785 -9.99913 
L 151.804013 -8.918036 
L 155.28724 -12.759152 
L 158.770468 -11.977932 
L 162.253695 -9.705453 
L 165.736923 -10.471011 
L 169.22015 1.748078 
L 172.703378 -1.162759 
L 176.186605 4.530873 
L 179.669833 -3.615281 
L 183.153061 -6.099966 
L 186.636288 -9.714881 
L 190.119516 -3.176889 
L 193.602743 -1.409136 
L 197.085971 -0.726311 
L 200.569198 -6.212793 
L 204.052426 -5.536278 
L 207.535653 -5.745267 
L 211.018881 1.452835 
L 214.502108 1.280463 
L 217.985336 15.578532 
L 221.468563 10.476307 
L 224.951791 9.564685 
L 228.435018 7.086902 
L 231.918246 -0.927723 
L 235.401473 2.384974 
L 238.884701 1.864827 
L 242.367928 1.843325 
L 245.851156 5.530226 
L 249.334383 -1.506503 
L 252.817611 0.657409 
L 256.300838 -11.932773 
L 259.784066 -11.281363 
L 263.267293 -7.266075 
L 266.750521 -2.298714 
L 270.233748 -2.12295 
L 273.716976 -9.599285 
L 277.200203 -12.675454 
L 280.683431 -9.02114 
L 284.166658 10.669862 
L 287.649886 16.214692 
L 291.133113 6.143132 
L 294.616341 7.596159 
L 298.099568 0.620928 
L 301.582796 -5.113232 
L 305.066023 -5.504436 
L 308.549251 -7.810267 
L 312.032479 -4.675662 
L 315.515706 -7.864074 
L 318.998934 -10.402601 
L 322.482161 -15.352876 
L 325.965389 -16.492756 
L 329.448616 -10.55975 
L 332.931844 -7.234936 
L 336.415071 -6.720695 
L 339.898299 -9.013123 
L 343.381526 -3.936113 
L 346.864754 -3.550848 
L 350.347981 -4.312076 
L 353.831209 -4.524767 
L 357.314436 -6.596652 
L 360.797664 -13.453754 
L 364.280891 -13.708416 
L 367.764119 -15.508972 
L 371.247346 -16.915757 
L 374.730574 -22.071469 
L 378.213801 -24.363459 
L 381.697029 -24.68663 
L 385.180256 -20.576859 
L 388.663484 -23.618676 
L 392.146711 -15.586473 
L 395.629939 -8.033189 
L 399.113166 -16.907417 
L 402.596394 -16.477466 
L 406.079621 -21.410731 
L 409.562849 -12.698158 
L 413.046076 -7.263976 
L 416.529304 -9.993315 
L 420.012531 -10.119322 
L 423.495759 -15.012149 
L 426.978986 -6.368705 
L 430.462214 -14.460319 
L 433.945441 -8.320948 
L 437.428669 -14.402303 
L 440.911896 -12.856031 
L 444.395124 3.761681 
L 447.878352 3.579534 
L 451.361579 -18.706141 
L 454.844807 -17.000461 
L 458.328034 -12.706127 
L 461.811262 -24.792328 
L 465.294489 -22.369145 
L 468.777717 -15.549007 
L 472.260944 -21.266898 
L 475.744172 -17.355515 
L 479.227399 -21.191766 
L 482.710627 -8.392474 
L 486.193854 10.16818 
L 489.677082 -8.944714 
L 493.160309 -33.734587 
L 496.643537 -40.01703 
L 500.126764 -32.217543 
L 503.609992 -31.158373 
L 507.093219 -34.636279 
L 510.576447 -35.31438 
L 514.059674 -36.06339 
L 517.542902 -34.319423 
L 521.026129 -22.012282 
L 524.509357 -25.361624 
L 527.992584 -31.32878 
L 531.475812 -25.482792 
L 534.959039 -26.405147 
L 538.442267 -27.283712 
L 541.925494 -31.167788 
L 545.408722 -32.907017 
L 548.891949 -34.951291 
L 552.375177 -37.618343 
L 555.858404 -39.758058 
L 559.341632 -41.816374 
L 562.824859 -40.694441 
L 566.308087 -41.398791 
L 569.791314 -41.150406 
L 573.274542 -39.650027 
L 576.75777 -45.91402 
L 580.240997 -39.294497 
L 583.724225 -38.816233 
L 587.207452 -37.198246 
L 590.69068 -33.201266 
L 594.173907 -26.248691 
L 597.657135 -19.691438 
L 601.140362 -13.034156 
L 604.62359 -19.734075 
L 608.106817 -25.142312 
L 611.590045 -27.481759 
L 615.073272 -26.579165 
L 618.5565 -27.518255 
L 622.039727 -33.108994 
L 625.522955 -32.280729 
L 629.006182 -26.471305 
L 632.48941 -6.684 
L 635.972637 3.240618 
L 639.455865 4.364978 
L 642.939092 -1.320356 
L 646.42232 -5.309324 
L 649.905547 -4.084508 
L 653.388775 -6.893032 
L 656.872002 -11.490284 
L 660.35523 -17.476628 
L 663.838457 -22.043475 
L 667.321685 -23.628031 
L 670.804912 -33.564124 
L 674.28814 -27.462765 
L 677.771367 -4.233249 
L 681.254595 -16.461131 
L 684.737822 -5.299443 
L 688.22105 -21.497225 
L 691.704277 -10.846137 
L 695.187505 -18.73391 
L 698.670732 -23.638191 
L 702.15396 -25.236595 
L 705.637188 -27.468795 
L 705.637188 -160.238458 
L 705.637188 -160.238458 
L 702.15396 -163.803078 
L 698.670732 -162.691683 
L 695.187505 -171.577824 
L 691.704277 -185.08887 
L 688.22105 -193.499819 
L 684.737822 -275.109211 
L 681.254595 -228.22107 
L 677.771367 -285.421103 
L 674.28814 -248.307951 
L 670.804912 -239.798744 
L 667.321685 -254.02647 
L 663.838457 -256.217231 
L 660.35523 -271.863411 
L 656.872002 -276.421026 
L 653.388775 -300.063428 
L 649.905547 -297.050102 
L 646.42232 -257.910934 
L 642.939092 -263.927083 
L 639.455865 -287.243435 
L 635.972637 -289.870089 
L 632.48941 -258.349147 
L 629.006182 -227.196274 
L 625.522955 -217.34995 
L 622.039727 -205.338908 
L 618.5565 -215.717686 
L 615.073272 -216.142978 
L 611.590045 -203.292849 
L 608.106817 -211.408815 
L 604.62359 -212.553637 
L 601.140362 -216.380243 
L 597.657135 -219.114572 
L 594.173907 -194.690845 
L 590.69068 -188.213162 
L 587.207452 -179.157415 
L 583.724225 -179.091926 
L 580.240997 -175.428551 
L 576.75777 -171.574845 
L 573.274542 -172.938065 
L 569.791314 -170.87346 
L 566.308087 -175.405081 
L 562.824859 -181.068387 
L 559.341632 -183.25233 
L 555.858404 -191.926033 
L 552.375177 -199.640826 
L 548.891949 -201.829144 
L 545.408722 -201.641236 
L 541.925494 -204.921926 
L 538.442267 -209.884516 
L 534.959039 -212.009927 
L 531.475812 -213.699136 
L 527.992584 -207.748657 
L 524.509357 -217.28257 
L 521.026129 -225.343678 
L 517.542902 -201.889591 
L 514.059674 -200.455746 
L 510.576447 -193.489413 
L 507.093219 -189.223017 
L 503.609992 -202.978478 
L 500.126764 -209.963074 
L 496.643537 -214.919397 
L 493.160309 -222.06992 
L 489.677082 -220.47528 
L 486.193854 -281.286152 
L 482.710627 -279.980039 
L 479.227399 -244.336219 
L 475.744172 -241.280112 
L 472.260944 -254.043545 
L 468.777717 -242.737351 
L 465.294489 -244.145221 
L 461.811262 -229.065656 
L 458.328034 -223.909712 
L 454.844807 -221.114585 
L 451.361579 -214.36076 
L 447.878352 -245.318776 
L 444.395124 -235.126313 
L 440.911896 -220.026461 
L 437.428669 -226.559713 
L 433.945441 -234.280684 
L 430.462214 -222.303985 
L 426.978986 -222.322569 
L 423.495759 -232.846399 
L 420.012531 -240.233044 
L 416.529304 -233.44584 
L 413.046076 -241.49728 
L 409.562849 -228.536384 
L 406.079621 -222.441367 
L 402.596394 -239.526351 
L 399.113166 -224.333794 
L 395.629939 -247.065598 
L 392.146711 -216.123168 
L 388.663484 -210.115304 
L 385.180256 -193.298547 
L 381.697029 -193.692348 
L 378.213801 -193.74844 
L 374.730574 -200.159479 
L 371.247346 -194.243259 
L 367.764119 -197.958439 
L 364.280891 -198.058445 
L 360.797664 -200.513966 
L 357.314436 -194.929322 
L 353.831209 -205.780124 
L 350.347981 -211.167376 
L 346.864754 -213.066881 
L 343.381526 -210.700352 
L 339.898299 -204.856976 
L 336.415071 -211.928042 
L 332.931844 -213.808287 
L 329.448616 -208.502934 
L 325.965389 -203.40952 
L 322.482161 -199.555242 
L 318.998934 -207.500474 
L 315.515706 -207.279046 
L 312.032479 -206.564766 
L 308.549251 -206.578261 
L 305.066023 -206.980661 
L 301.582796 -205.87101 
L 298.099568 -219.235824 
L 294.616341 -242.283203 
L 291.133113 -256.391365 
L 287.649886 -266.717976 
L 284.166658 -268.032159 
L 280.683431 -258.079769 
L 277.200203 -243.200071 
L 273.716976 -251.378243 
L 270.233748 -259.185165 
L 266.750521 -259.334891 
L 263.267293 -242.202559 
L 259.784066 -222.994066 
L 256.300838 -220.81677 
L 252.817611 -225.654659 
L 249.334383 -222.069213 
L 245.851156 -236.711486 
L 242.367928 -237.333469 
L 238.884701 -235.003489 
L 235.401473 -232.950947 
L 231.918246 -217.926659 
L 228.435018 -228.116472 
L 224.951791 -243.913733 
L 221.468563 -243.80719 
L 217.985336 -250.384451 
L 214.502108 -224.732619 
L 211.018881 -216.894752 
L 207.535653 -211.530913 
L 204.052426 -206.144567 
L 200.569198 -210.332155 
L 197.085971 -214.189446 
L 193.602743 -217.957437 
L 190.119516 -212.481556 
L 186.636288 -194.678646 
L 183.153061 -187.338486 
L 179.669833 -192.122967 
L 176.186605 -207.279983 
L 172.703378 -196.139232 
L 169.22015 -208.626357 
L 165.736923 -187.8701 
L 162.253695 -189.278254 
L 158.770468 -188.255065 
L 155.28724 -187.172943 
L 151.804013 -202.727048 
L 148.320785 -199.910525 
L 144.837558 -175.721391 
L 141.35433 -181.081113 
L 137.871103 -176.573822 
L 134.387875 -174.161585 
L 130.904648 -184.440342 
L 127.42142 -172.648285 
L 123.938193 -167.95221 
L 120.454965 -176.909343 
L 116.971738 -163.188576 
L 113.48851 -165.339261 
L 110.005283 -166.909517 
L 106.522055 -181.264035 
L 103.038828 -173.916723 
L 99.5556 -169.944815 
L 96.072373 -184.622051 
L 92.589145 -189.129376 
L 89.105918 -194.619717 
L 85.62269 -188.815146 
L 82.139463 -193.739521 
L 78.656235 -191.78873 
L 75.173008 -186.752669 
L 71.68978 -183.840761 
L 68.206553 -181.811044 
L 64.723325 -198.451256 
L 61.240098 -206.28006 
L 57.75687 -200.458458 
L 54.273643 -230.966666 
L 50.790415 -202.729691 
L 47.307188 -188.152867 
z
" style="stroke: #d3d3d3; stroke-opacity: 0.5"/>
    </defs>
    <g clip-path="url(#pc7d7909031)">
     <use xlink:href="#mda07ecd71c" x="0" y="424.5775" style="fill: #d3d3d3; fill-opacity: 0.5; stroke: #d3d3d3; stroke-opacity: 0.5"/>
    </g>
   </g>
   <g id="FillBetweenPolyCollection_2">
    <defs>
     <path id="mcb0eac4cc0" d="M 47.307188 -144.546508 
L 47.307188 -57.333788 
L 50.790415 -55.987822 
L 54.273643 -56.517485 
L 57.75687 -63.323687 
L 61.240098 -60.288051 
L 64.723325 -59.135513 
L 68.206553 -60.767138 
L 71.68978 -58.251172 
L 75.173008 -54.712578 
L 78.656235 -51.688608 
L 82.139463 -53.839739 
L 85.62269 -53.357283 
L 89.105918 -52.851217 
L 92.589145 -54.973523 
L 96.072373 -58.371129 
L 99.5556 -61.947993 
L 103.038828 -58.538829 
L 106.522055 -55.994448 
L 110.005283 -57.609463 
L 113.48851 -56.587342 
L 116.971738 -58.192302 
L 120.454965 -63.56169 
L 123.938193 -58.608816 
L 127.42142 -56.130391 
L 130.904648 -54.556169 
L 134.387875 -56.046057 
L 137.871103 -56.335288 
L 141.35433 -54.522043 
L 144.837558 -55.240747 
L 148.320785 -57.476979 
L 151.804013 -57.370289 
L 155.28724 -56.3626 
L 158.770468 -56.047216 
L 162.253695 -54.598653 
L 165.736923 -54.820783 
L 169.22015 -50.84553 
L 172.703378 -49.906877 
L 176.186605 -48.421841 
L 179.669833 -50.742202 
L 183.153061 -51.409596 
L 186.636288 -55.955822 
L 190.119516 -55.503056 
L 193.602743 -55.546211 
L 197.085971 -54.092095 
L 200.569198 -57.242633 
L 204.052426 -55.68835 
L 207.535653 -57.191679 
L 211.018881 -53.134062 
L 214.502108 -55.222807 
L 217.985336 -50.912214 
L 221.468563 -53.094567 
L 224.951791 -53.804919 
L 228.435018 -51.713941 
L 231.918246 -55.177457 
L 235.401473 -56.449007 
L 238.884701 -57.352252 
L 242.367928 -57.950874 
L 245.851156 -55.030202 
L 249.334383 -56.647181 
L 252.817611 -55.920608 
L 256.300838 -64.153772 
L 259.784066 -64.209539 
L 263.267293 -66.000196 
L 266.750521 -66.557758 
L 270.233748 -66.388504 
L 273.716976 -70.044025 
L 277.200203 -70.306609 
L 280.683431 -71.285797 
L 284.166658 -59.005643 
L 287.649886 -54.518475 
L 291.133113 -59.490493 
L 294.616341 -54.873681 
L 298.099568 -54.34326 
L 301.582796 -55.302676 
L 305.066023 -55.873493 
L 308.549251 -57.502266 
L 312.032479 -55.147938 
L 315.515706 -57.717817 
L 318.998934 -59.677069 
L 322.482161 -61.403468 
L 325.965389 -63.221947 
L 329.448616 -60.045546 
L 332.931844 -58.878274 
L 336.415071 -58.022532 
L 339.898299 -57.974086 
L 343.381526 -55.627173 
L 346.864754 -55.929856 
L 350.347981 -56.025901 
L 353.831209 -54.838606 
L 357.314436 -53.67982 
L 360.797664 -60.218807 
L 364.280891 -59.795923 
L 367.764119 -61.121339 
L 371.247346 -61.247632 
L 374.730574 -66.593472 
L 378.213801 -66.709704 
L 381.697029 -66.938059 
L 385.180256 -63.757281 
L 388.663484 -70.242833 
L 392.146711 -65.720647 
L 395.629939 -67.791291 
L 399.113166 -68.764011 
L 402.596394 -72.239687 
L 406.079621 -71.66839 
L 409.562849 -66.657715 
L 413.046076 -65.822302 
L 416.529304 -65.856446 
L 420.012531 -67.647752 
L 423.495759 -69.470711 
L 426.978986 -60.357171 
L 430.462214 -66.421236 
L 433.945441 -64.810882 
L 437.428669 -67.441656 
L 440.911896 -64.648638 
L 444.395124 -55.960318 
L 447.878352 -58.645043 
L 451.361579 -67.619796 
L 454.844807 -68.028992 
L 458.328034 -65.507023 
L 461.811262 -75.86066 
L 465.294489 -77.813164 
L 468.777717 -72.346093 
L 472.260944 -79.46106 
L 475.744172 -73.336664 
L 479.227399 -76.977879 
L 482.710627 -76.289366 
L 486.193854 -62.695403 
L 489.677082 -61.827355 
L 493.160309 -80.81842 
L 496.643537 -83.742622 
L 500.126764 -76.653926 
L 503.609992 -74.1134 
L 507.093219 -73.282964 
L 510.576447 -74.858139 
L 514.059674 -77.161479 
L 517.542902 -76.211965 
L 521.026129 -72.845131 
L 524.509357 -73.34186 
L 527.992584 -75.433749 
L 531.475812 -72.536878 
L 534.959039 -72.806342 
L 538.442267 -72.933913 
L 541.925494 -74.606323 
L 545.408722 -75.090572 
L 548.891949 -76.670755 
L 552.375177 -78.123964 
L 555.858404 -77.800051 
L 559.341632 -77.175363 
L 562.824859 -75.787927 
L 566.308087 -74.900364 
L 569.791314 -73.581169 
L 573.274542 -72.972037 
L 576.75777 -77.329226 
L 580.240997 -73.328011 
L 583.724225 -73.885156 
L 587.207452 -72.688038 
L 590.69068 -71.95424 
L 594.173907 -68.35923 
L 597.657135 -69.547222 
L 601.140362 -63.870678 
L 604.62359 -67.938965 
L 608.106817 -71.708937 
L 611.590045 -71.434531 
L 615.073272 -73.970119 
L 618.5565 -74.568113 
L 622.039727 -76.166473 
L 625.522955 -78.548035 
L 629.006182 -76.652547 
L 632.48941 -69.600287 
L 635.972637 -70.037059 
L 639.455865 -68.537125 
L 642.939092 -66.972037 
L 646.42232 -68.459726 
L 649.905547 -77.325906 
L 653.388775 -80.185631 
L 656.872002 -77.72297 
L 660.35523 -81.073324 
L 663.838457 -80.586914 
L 667.321685 -81.227641 
L 670.804912 -85.122779 
L 674.28814 -82.674062 
L 677.771367 -74.530213 
L 681.254595 -69.401116 
L 684.737822 -72.751885 
L 688.22105 -64.497873 
L 691.704277 -54.406821 
L 695.187505 -56.944888 
L 698.670732 -58.401564 
L 702.15396 -59.878216 
L 705.637188 -60.661211 
L 705.637188 -127.046043 
L 705.637188 -127.046043 
L 702.15396 -129.161457 
L 698.670732 -127.92831 
L 695.187505 -133.366846 
L 691.704277 -141.528187 
L 688.22105 -150.49917 
L 684.737822 -207.656769 
L 681.254595 -175.281085 
L 677.771367 -215.12414 
L 674.28814 -193.096655 
L 670.804912 -188.240089 
L 667.321685 -196.42686 
L 663.838457 -197.673792 
L 660.35523 -208.266716 
L 656.872002 -210.188341 
L 653.388775 -226.770829 
L 649.905547 -223.808703 
L 646.42232 -194.760531 
L 642.939092 -198.275401 
L 639.455865 -214.341332 
L 635.972637 -216.592412 
L 632.48941 -195.43286 
L 629.006182 -177.015032 
L 625.522955 -171.082645 
L 622.039727 -162.28143 
L 618.5565 -168.667828 
L 615.073272 -168.752025 
L 611.590045 -159.340076 
L 608.106817 -164.842189 
L 604.62359 -164.348746 
L 601.140362 -165.543721 
L 597.657135 -169.258788 
L 594.173907 -152.580306 
L 590.69068 -149.460188 
L 587.207452 -143.667623 
L 583.724225 -144.023003 
L 580.240997 -141.395037 
L 576.75777 -140.159639 
L 573.274542 -139.616056 
L 569.791314 -138.442696 
L 566.308087 -141.903508 
L 562.824859 -145.9749 
L 559.341632 -147.893341 
L 555.858404 -153.884039 
L 552.375177 -159.135205 
L 548.891949 -160.109681 
L 545.408722 -159.457681 
L 541.925494 -161.483392 
L 538.442267 -164.234315 
L 534.959039 -165.608732 
L 531.475812 -166.64505 
L 527.992584 -163.643688 
L 524.509357 -169.302334 
L 521.026129 -174.510829 
L 517.542902 -159.997049 
L 514.059674 -159.357657 
L 510.576447 -153.945655 
L 507.093219 -150.576333 
L 503.609992 -160.023452 
L 500.126764 -165.526691 
L 496.643537 -171.193805 
L 493.160309 -174.986087 
L 489.677082 -167.592638 
L 486.193854 -208.422569 
L 482.710627 -212.083148 
L 479.227399 -188.550106 
L 475.744172 -185.298963 
L 472.260944 -195.849384 
L 468.777717 -185.940265 
L 465.294489 -188.701202 
L 461.811262 -177.997324 
L 458.328034 -171.108816 
L 454.844807 -170.086054 
L 451.361579 -165.447106 
L 447.878352 -183.094198 
L 444.395124 -175.404314 
L 440.911896 -168.233853 
L 437.428669 -173.520361 
L 433.945441 -177.79075 
L 430.462214 -170.343069 
L 426.978986 -168.334103 
L 423.495759 -178.387836 
L 420.012531 -182.704614 
L 416.529304 -177.582708 
L 413.046076 -182.938954 
L 409.562849 -174.576828 
L 406.079621 -172.183708 
L 402.596394 -183.76413 
L 399.113166 -172.4772 
L 395.629939 -187.307496 
L 392.146711 -165.988994 
L 388.663484 -163.491147 
L 385.180256 -150.118125 
L 381.697029 -151.440919 
L 378.213801 -151.402195 
L 374.730574 -155.637476 
L 371.247346 -149.911383 
L 367.764119 -152.346072 
L 364.280891 -151.970938 
L 360.797664 -153.748913 
L 357.314436 -147.846155 
L 353.831209 -155.466285 
L 350.347981 -159.453551 
L 346.864754 -160.687873 
L 343.381526 -159.009292 
L 339.898299 -155.896013 
L 336.415071 -160.626205 
L 332.931844 -162.16495 
L 329.448616 -159.017138 
L 325.965389 -156.680329 
L 322.482161 -153.504651 
L 318.998934 -158.226006 
L 315.515706 -157.425303 
L 312.032479 -156.09249 
L 308.549251 -156.886263 
L 305.066023 -156.611605 
L 301.582796 -155.681566 
L 298.099568 -164.271636 
L 294.616341 -179.813362 
L 291.133113 -190.757741 
L 287.649886 -195.984809 
L 284.166658 -198.356653 
L 280.683431 -195.815112 
L 277.200203 -185.568917 
L 273.716976 -190.933503 
L 270.233748 -194.919612 
L 266.750521 -195.075846 
L 263.267293 -183.468438 
L 259.784066 -170.06589 
L 256.300838 -168.595771 
L 252.817611 -169.076642 
L 249.334383 -166.928535 
L 245.851156 -176.151058 
L 242.367928 -177.539271 
L 238.884701 -175.78641 
L 235.401473 -174.116967 
L 231.918246 -163.676925 
L 228.435018 -169.315628 
L 224.951791 -180.544129 
L 221.468563 -180.236315 
L 217.985336 -183.893706 
L 214.502108 -168.229349 
L 211.018881 -162.307856 
L 207.535653 -160.084501 
L 204.052426 -155.992495 
L 200.569198 -159.302314 
L 197.085971 -160.823662 
L 193.602743 -163.820362 
L 190.119516 -160.155389 
L 186.636288 -148.437705 
L 183.153061 -142.028856 
L 179.669833 -144.996045 
L 176.186605 -154.327269 
L 172.703378 -147.395114 
L 169.22015 -156.032748 
L 165.736923 -143.520328 
L 162.253695 -144.385054 
L 158.770468 -144.185782 
L 155.28724 -143.569495 
L 151.804013 -154.274795 
L 148.320785 -152.432676 
L 144.837558 -135.561176 
L 141.35433 -138.894757 
L 137.871103 -136.494311 
L 134.387875 -134.789742 
L 130.904648 -141.145618 
L 127.42142 -133.808987 
L 123.938193 -131.504412 
L 120.454965 -139.126792 
L 116.971738 -128.189818 
L 113.48851 -129.088621 
L 110.005283 -130.476165 
L 106.522055 -139.507506 
L 103.038828 -135.457425 
L 99.5556 -133.945874 
L 96.072373 -142.53841 
L 92.589145 -144.410758 
L 89.105918 -147.36355 
L 85.62269 -143.662525 
L 82.139463 -147.10626 
L 78.656235 -145.088689 
L 75.173008 -142.739305 
L 71.68978 -141.977565 
L 68.206553 -141.463076 
L 64.723325 -152.012675 
L 61.240098 -157.616057 
L 57.75687 -154.746867 
L 54.273643 -172.816939 
L 50.790415 -153.815735 
L 47.307188 -144.546508 
z
" style="stroke: #808080; stroke-opacity: 0.7"/>
    </defs>
    <g clip-path="url(#pc7d7909031)">
     <use xlink:href="#mcb0eac4cc0" x="0" y="424.5775" style="fill: #808080; fill-opacity: 0.7; stroke: #808080; stroke-opacity: 0.7"/>
    </g>
   </g>
   <g id="line2d_31">
    <path d="M 47.307188 345.350396 
L 50.790415 346.374409 
L 54.273643 337.236874 
L 57.75687 336.728526 
L 61.240098 348.989233 
L 64.723325 343.878445 
L 68.206553 336.032005 
L 71.68978 344.979074 
L 75.173008 345.015207 
L 78.656235 348.595013 
L 82.139463 339.292793 
L 85.62269 340.535368 
L 89.105918 339.757136 
L 92.589145 328.261949 
L 96.072373 333.536396 
L 99.5556 340.203232 
L 103.038828 332.128797 
L 106.522055 339.140509 
L 110.005283 333.29007 
L 113.48851 338.514319 
L 116.971738 336.514539 
L 120.454965 338.579802 
L 123.938193 336.685572 
L 127.42142 338.900225 
L 130.904648 337.111253 
L 134.387875 339.471849 
L 137.871103 336.830396 
L 141.35433 337.218583 
L 144.837558 333.377433 
L 148.320785 328.682214 
L 151.804013 322.490833 
L 155.28724 339.446471 
L 158.770468 333.035427 
L 162.253695 346.16171 
L 165.736923 341.14442 
L 169.22015 347.273177 
L 172.703378 346.302867 
L 176.186605 341.709671 
L 179.669833 344.310562 
L 183.153061 342.226535 
L 186.636288 336.519008 
L 190.119516 345.757753 
L 193.602743 349.092036 
L 197.085971 346.974892 
L 200.569198 337.304191 
L 204.052426 346.308777 
L 207.535653 338.040243 
L 211.018881 334.620665 
L 214.502108 325.07735 
L 217.985336 328.983943 
L 221.468563 316.681239 
L 224.951791 314.703493 
L 228.435018 323.384004 
L 231.918246 317.904002 
L 235.401473 321.269915 
L 238.884701 328.774039 
L 242.367928 311.53289 
L 245.851156 299.106632 
L 249.334383 324.158261 
L 252.817611 303.991865 
L 256.300838 325.251378 
L 259.784066 301.357573 
L 263.267293 298.692929 
L 266.750521 288.35542 
L 270.233748 295.452052 
L 273.716976 293.095492 
L 277.200203 320.242394 
L 284.166658 317.608373 
L 287.649886 324.475749 
L 291.133113 334.136759 
L 294.616341 328.627441 
L 298.099568 335.394627 
L 301.582796 316.21807 
L 305.066023 314.770653 
L 308.549251 310.58384 
L 312.032479 324.313389 
L 315.515706 305.140109 
L 318.998934 310.613095 
L 322.482161 322.043376 
L 325.965389 316.437478 
L 329.448616 322.245271 
L 332.931844 323.460511 
L 336.415071 329.528606 
L 339.898299 340.779996 
L 343.381526 321.941935 
L 346.864754 327.785187 
L 350.347981 328.476628 
L 353.831209 341.19529 
L 357.314436 343.446353 
L 360.797664 320.851926 
L 364.280891 330.272484 
L 367.764119 336.547822 
L 371.247346 340.21194 
L 374.730574 343.129573 
L 378.213801 346.455752 
L 381.697029 343.593925 
L 385.180256 338.043785 
L 388.663484 327.694854 
L 392.146711 337.772658 
L 395.629939 334.342851 
L 399.113166 321.07788 
L 402.596394 327.768984 
L 406.079621 315.11465 
L 409.562849 324.096213 
L 413.046076 325.980403 
L 416.529304 335.406884 
L 420.012531 330.888419 
L 423.495759 315.928743 
L 426.978986 338.569729 
L 430.462214 320.542492 
L 433.945441 313.6079 
L 437.428669 321.371649 
L 440.911896 332.025257 
L 444.395124 328.560682 
L 447.878352 331.359828 
L 451.361579 313.632532 
L 454.844807 314.857358 
L 458.328034 311.24591 
L 461.811262 312.271635 
L 465.294489 324.01232 
L 468.777717 319.198081 
L 472.260944 314.041651 
L 475.744172 309.767992 
L 479.227399 318.335096 
L 482.710627 314.553516 
L 486.193854 306.648989 
L 489.677082 314.323638 
L 493.160309 273.2811 
L 496.643537 284.092861 
L 500.126764 304.714417 
L 503.609992 317.949904 
L 507.093219 318.595992 
L 510.576447 317.239292 
L 514.059674 321.031162 
L 517.542902 321.782561 
L 521.026129 310.792889 
L 524.509357 306.034089 
L 527.992584 297.007535 
L 531.475812 298.08997 
L 534.959039 318.567063 
L 538.442267 327.552312 
L 541.925494 332.988285 
L 545.408722 312.030553 
L 548.891949 281.430836 
L 552.375177 265.995792 
L 555.858404 273.642371 
L 559.341632 286.81735 
L 562.824859 282.6065 
L 566.308087 293.274541 
L 569.791314 313.593002 
L 573.274542 326.905797 
L 576.75777 331.04835 
L 580.240997 320.633639 
L 583.724225 315.533531 
L 587.207452 307.966088 
L 590.69068 320.399802 
L 594.173907 315.826309 
L 597.657135 312.837049 
L 601.140362 326.443039 
L 604.62359 333.898513 
L 608.106817 338.579479 
L 611.590045 312.884876 
L 615.073272 322.086545 
L 618.5565 311.781962 
L 622.039727 323.786722 
L 625.522955 293.200729 
L 629.006182 313.809523 
L 632.48941 314.32802 
L 635.972637 323.642053 
L 639.455865 317.107371 
L 642.939092 312.334833 
L 646.42232 332.855968 
L 649.905547 340.773913 
L 653.388775 335.218306 
L 656.872002 325.61626 
L 660.35523 309.376597 
L 663.838457 320.266058 
L 667.321685 319.801788 
L 670.804912 308.949486 
L 674.28814 302.094818 
L 677.771367 308.545172 
L 681.254595 312.491325 
L 684.737822 315.310949 
L 688.22105 318.777873 
L 691.704277 315.120779 
L 695.187505 324.143474 
L 698.670732 332.510176 
L 702.15396 330.063861 
L 705.637188 312.344409 
L 705.637188 312.344409 
" clip-path="url(#pc7d7909031)" style="fill: none; stroke: #ff8c00; stroke-width: 2.3; stroke-linecap: square"/>
   </g>
   <g id="line2d_32">
    <path d="M 284.166658 384.117812 
L 284.166658 23.837812 
" clip-path="url(#pc7d7909031)" style="fill: none; stroke-dasharray: 5.55,2.4; stroke-dashoffset: 0; stroke: #808080; stroke-width: 1.5"/>
   </g>
   <g id="line2d_33">
    <path d="M 486.193854 384.117812 
L 486.193854 23.837812 
" clip-path="url(#pc7d7909031)" style="fill: none; stroke-dasharray: 5.55,2.4; stroke-dashoffset: 0; stroke: #808080; stroke-width: 1.5"/>
   </g>
   <g id="patch_3">
    <path d="M 47.307188 384.117812 
L 47.307188 23.837812 
" style="fill: none; stroke: #000000; stroke-width: 0.8; stroke-linejoin: miter; stroke-linecap: square"/>
   </g>
   <g id="patch_4">
    <path d="M 705.637188 384.117812 
L 705.637188 23.837812 
" style="fill: none; stroke: #000000; stroke-width: 0.8; stroke-linejoin: miter; stroke-linecap: square"/>
   </g>
   <g id="patch_5">
    <path d="M 47.307188 384.117812 
L 705.637188 384.117812 
" style="fill: none; stroke: #000000; stroke-width: 0.8; stroke-linejoin: miter; stroke-linecap: square"/>
   </g>
   <g id="patch_6">
    <path d="M 47.307188 23.837812 
L 705.637188 23.837812 
" style="fill: none; stroke: #000000; stroke-width: 0.8; stroke-linejoin: miter; stroke-linecap: square"/>
   </g>
   <g id="text_18">
    <!-- Facial trace: Autism spectrum condition (ASC) (female) -->
    <g transform="translate(183.950312 17.837812) scale(0.14 -0.14)">
     <defs>
      <path id="DejaVuSans-46" d="M 628 4666 
L 3309 4666 
L 3309 4134 
L 1259 4134 
L 1259 2759 
L 3109 2759 
L 3109 2228 
L 1259 2228 
L 1259 0 
L 628 0 
L 628 4666 
z
" transform="scale(0.015625)"/>
      <path id="DejaVuSans-63" d="M 3122 3366 
L 3122 2828 
Q 2878 2963 2633 3030 
Q 2388 3097 2138 3097 
Q 1578 3097 1268 2742 
Q 959 2388 959 1747 
Q 959 1106 1268 751 
Q 1578 397 2138 397 
Q 2388 397 2633 464 
Q 2878 531 3122 666 
L 3122 134 
Q 2881 22 2623 -34 
Q 2366 -91 2075 -91 
Q 1284 -91 818 406 
Q 353 903 353 1747 
Q 353 2603 823 3093 
Q 1294 3584 2113 3584 
Q 2378 3584 2631 3529 
Q 2884 3475 3122 3366 
z
" transform="scale(0.015625)"/>
      <path id="DejaVuSans-6c" d="M 603 4863 
L 1178 4863 
L 1178 0 
L 603 0 
L 603 4863 
z
" transform="scale(0.015625)"/>
      <path id="DejaVuSans-72" d="M 2631 2963 
Q 2534 3019 2420 3045 
Q 2306 3072 2169 3072 
Q 1681 3072 1420 2755 
Q 1159 2438 1159 1844 
L 1159 0 
L 581 0 
L 581 3500 
L 1159 3500 
L 1159 2956 
Q 1341 3275 1631 3429 
Q 1922 3584 2338 3584 
Q 2397 3584 2469 3576 
Q 2541 3569 2628 3553 
L 2631 2963 
z
" transform="scale(0.015625)"/>
      <path id="DejaVuSans-3a" d="M 750 794 
L 1409 794 
L 1409 0 
L 750 0 
L 750 794 
z
M 750 3309 
L 1409 3309 
L 1409 2516 
L 750 2516 
L 750 3309 
z
" transform="scale(0.015625)"/>
      <path id="DejaVuSans-75" d="M 544 1381 
L 544 3500 
L 1119 3500 
L 1119 1403 
Q 1119 906 1312 657 
Q 1506 409 1894 409 
Q 2359 409 2629 706 
Q 2900 1003 2900 1516 
L 2900 3500 
L 3475 3500 
L 3475 0 
L 2900 0 
L 2900 538 
Q 2691 219 2414 64 
Q 2138 -91 1772 -91 
Q 1169 -91 856 284 
Q 544 659 544 1381 
z
M 1991 3584 
L 1991 3584 
z
" transform="scale(0.015625)"/>
      <path id="DejaVuSans-70" d="M 1159 525 
L 1159 -1331 
L 581 -1331 
L 581 3500 
L 1159 3500 
L 1159 2969 
Q 1341 3281 1617 3432 
Q 1894 3584 2278 3584 
Q 2916 3584 3314 3078 
Q 3713 2572 3713 1747 
Q 3713 922 3314 415 
Q 2916 -91 2278 -91 
Q 1894 -91 1617 61 
Q 1341 213 1159 525 
z
M 3116 1747 
Q 3116 2381 2855 2742 
Q 2594 3103 2138 3103 
Q 1681 3103 1420 2742 
Q 1159 2381 1159 1747 
Q 1159 1113 1420 752 
Q 1681 391 2138 391 
Q 2594 391 2855 752 
Q 3116 1113 3116 1747 
z
" transform="scale(0.015625)"/>
      <path id="DejaVuSans-6f" d="M 1959 3097 
Q 1497 3097 1228 2736 
Q 959 2375 959 1747 
Q 959 1119 1226 758 
Q 1494 397 1959 397 
Q 2419 397 2687 759 
Q 2956 1122 2956 1747 
Q 2956 2369 2687 2733 
Q 2419 3097 1959 3097 
z
M 1959 3584 
Q 2709 3584 3137 3096 
Q 3566 2609 3566 1747 
Q 3566 888 3137 398 
Q 2709 -91 1959 -91 
Q 1206 -91 779 398 
Q 353 888 353 1747 
Q 353 2609 779 3096 
Q 1206 3584 1959 3584 
z
" transform="scale(0.015625)"/>
      <path id="DejaVuSans-64" d="M 2906 2969 
L 2906 4863 
L 3481 4863 
L 3481 0 
L 2906 0 
L 2906 525 
Q 2725 213 2448 61 
Q 2172 -91 1784 -91 
Q 1150 -91 751 415 
Q 353 922 353 1747 
Q 353 2572 751 3078 
Q 1150 3584 1784 3584 
Q 2172 3584 2448 3432 
Q 2725 3281 2906 2969 
z
M 947 1747 
Q 947 1113 1208 752 
Q 1469 391 1925 391 
Q 2381 391 2643 752 
Q 2906 1113 2906 1747 
Q 2906 2381 2643 2742 
Q 2381 3103 1925 3103 
Q 1469 3103 1208 2742 
Q 947 2381 947 1747 
z
" transform="scale(0.015625)"/>
      <path id="DejaVuSans-53" d="M 3425 4513 
L 3425 3897 
Q 3066 4069 2747 4153 
Q 2428 4238 2131 4238 
Q 1616 4238 1336 4038 
Q 1056 3838 1056 3469 
Q 1056 3159 1242 3001 
Q 1428 2844 1947 2747 
L 2328 2669 
Q 3034 2534 3370 2195 
Q 3706 1856 3706 1288 
Q 3706 609 3251 259 
Q 2797 -91 1919 -91 
Q 1588 -91 1214 -16 
Q 841 59 441 206 
L 441 856 
Q 825 641 1194 531 
Q 1563 422 1919 422 
Q 2459 422 2753 634 
Q 3047 847 3047 1241 
Q 3047 1584 2836 1778 
Q 2625 1972 2144 2069 
L 1759 2144 
Q 1053 2284 737 2584 
Q 422 2884 422 3419 
Q 422 4038 858 4394 
Q 1294 4750 2059 4750 
Q 2388 4750 2728 4690 
Q 3069 4631 3425 4513 
z
" transform="scale(0.015625)"/>
      <path id="DejaVuSans-43" d="M 4122 4306 
L 4122 3641 
Q 3803 3938 3442 4084 
Q 3081 4231 2675 4231 
Q 1875 4231 1450 3742 
Q 1025 3253 1025 2328 
Q 1025 1406 1450 917 
Q 1875 428 2675 428 
Q 3081 428 3442 575 
Q 3803 722 4122 1019 
L 4122 359 
Q 3791 134 3420 21 
Q 3050 -91 2638 -91 
Q 1578 -91 968 557 
Q 359 1206 359 2328 
Q 359 3453 968 4101 
Q 1578 4750 2638 4750 
Q 3056 4750 3426 4639 
Q 3797 4528 4122 4306 
z
" transform="scale(0.015625)"/>
      <path id="DejaVuSans-66" d="M 2375 4863 
L 2375 4384 
L 1825 4384 
Q 1516 4384 1395 4259 
Q 1275 4134 1275 3809 
L 1275 3500 
L 2222 3500 
L 2222 3053 
L 1275 3053 
L 1275 0 
L 697 0 
L 697 3053 
L 147 3053 
L 147 3500 
L 697 3500 
L 697 3744 
Q 697 4328 969 4595 
Q 1241 4863 1831 4863 
L 2375 4863 
z
" transform="scale(0.015625)"/>
     </defs>
     <use xlink:href="#DejaVuSans-46"/>
     <use xlink:href="#DejaVuSans-61" transform="translate(48.394531 0)"/>
     <use xlink:href="#DejaVuSans-63" transform="translate(109.673828 0)"/>
     <use xlink:href="#DejaVuSans-69" transform="translate(164.654297 0)"/>
     <use xlink:href="#DejaVuSans-61" transform="translate(192.4375 0)"/>
     <use xlink:href="#DejaVuSans-6c" transform="translate(253.716797 0)"/>
     <use xlink:href="#DejaVuSans-20" transform="translate(281.5 0)"/>
     <use xlink:href="#DejaVuSans-74" transform="translate(313.287109 0)"/>
     <use xlink:href="#DejaVuSans-72" transform="translate(352.496094 0)"/>
     <use xlink:href="#DejaVuSans-61" transform="translate(393.609375 0)"/>
     <use xlink:href="#DejaVuSans-63" transform="translate(454.888672 0)"/>
     <use xlink:href="#DejaVuSans-65" transform="translate(509.869141 0)"/>
     <use xlink:href="#DejaVuSans-3a" transform="translate(571.392578 0)"/>
     <use xlink:href="#DejaVuSans-20" transform="translate(605.083984 0)"/>
     <use xlink:href="#DejaVuSans-41" transform="translate(636.871094 0)"/>
     <use xlink:href="#DejaVuSans-75" transform="translate(705.279297 0)"/>
     <use xlink:href="#DejaVuSans-74" transform="translate(768.658203 0)"/>
     <use xlink:href="#DejaVuSans-69" transform="translate(807.867188 0)"/>
     <use xlink:href="#DejaVuSans-73" transform="translate(835.650391 0)"/>
     <use xlink:href="#DejaVuSans-6d" transform="translate(887.75 0)"/>
     <use xlink:href="#DejaVuSans-20" transform="translate(985.162109 0)"/>
     <use xlink:href="#DejaVuSans-73" transform="translate(1016.949219 0)"/>
     <use xlink:href="#DejaVuSans-70" transform="translate(1069.048828 0)"/>
     <use xlink:href="#DejaVuSans-65" transform="translate(1132.525391 0)"/>
     <use xlink:href="#DejaVuSans-63" transform="translate(1194.048828 0)"/>
     <use xlink:href="#DejaVuSans-74" transform="translate(1249.029297 0)"/>
     <use xlink:href="#DejaVuSans-72" transform="translate(1288.238281 0)"/>
     <use xlink:href="#DejaVuSans-75" transform="translate(1329.351562 0)"/>
     <use xlink:href="#DejaVuSans-6d" transform="translate(1392.730469 0)"/>
     <use xlink:href="#DejaVuSans-20" transform="translate(1490.142578 0)"/>
     <use xlink:href="#DejaVuSans-63" transform="translate(1521.929688 0)"/>
     <use xlink:href="#DejaVuSans-6f" transform="translate(1576.910156 0)"/>
     <use xlink:href="#DejaVuSans-6e" transform="translate(1638.091797 0)"/>
     <use xlink:href="#DejaVuSans-64" transform="translate(1701.470703 0)"/>
     <use xlink:href="#DejaVuSans-69" transform="translate(1764.947266 0)"/>
     <use xlink:href="#DejaVuSans-74" transform="translate(1792.730469 0)"/>
     <use xlink:href="#DejaVuSans-69" transform="translate(1831.939453 0)"/>
     <use xlink:href="#DejaVuSans-6f" transform="translate(1859.722656 0)"/>
     <use xlink:href="#DejaVuSans-6e" transform="translate(1920.904297 0)"/>
     <use xlink:href="#DejaVuSans-20" transform="translate(1984.283203 0)"/>
     <use xlink:href="#DejaVuSans-28" transform="translate(2016.070312 0)"/>
     <use xlink:href="#DejaVuSans-41" transform="translate(2055.083984 0)"/>
     <use xlink:href="#DejaVuSans-53" transform="translate(2123.492188 0)"/>
     <use xlink:href="#DejaVuSans-43" transform="translate(2186.96875 0)"/>
     <use xlink:href="#DejaVuSans-29" transform="translate(2256.792969 0)"/>
     <use xlink:href="#DejaVuSans-20" transform="translate(2295.806641 0)"/>
     <use xlink:href="#DejaVuSans-28" transform="translate(2327.59375 0)"/>
     <use xlink:href="#DejaVuSans-66" transform="translate(2366.607422 0)"/>
     <use xlink:href="#DejaVuSans-65" transform="translate(2401.8125 0)"/>
     <use xlink:href="#DejaVuSans-6d" transform="translate(2463.335938 0)"/>
     <use xlink:href="#DejaVuSans-61" transform="translate(2560.748047 0)"/>
     <use xlink:href="#DejaVuSans-6c" transform="translate(2622.027344 0)"/>
     <use xlink:href="#DejaVuSans-65" transform="translate(2649.810547 0)"/>
     <use xlink:href="#DejaVuSans-29" transform="translate(2711.333984 0)"/>
    </g>
   </g>
   <g id="legend_1">
    <g id="patch_7">
     <path d="M 425.355469 42.096094 
L 447.355469 42.096094 
L 447.355469 34.396094 
L 425.355469 34.396094 
z
" style="fill: #d3d3d3; fill-opacity: 0.5; stroke: #d3d3d3; stroke-opacity: 0.5; stroke-linejoin: miter"/>
    </g>
    <g id="text_19">
     <!-- Autism spectrum condition (ASC) ±2 SD -->
     <g transform="translate(456.155469 42.096094) scale(0.11 -0.11)">
      <defs>
       <path id="DejaVuSans-b1" d="M 2944 4013 
L 2944 2803 
L 4684 2803 
L 4684 2272 
L 2944 2272 
L 2944 1063 
L 2419 1063 
L 2419 2272 
L 678 2272 
L 678 2803 
L 2419 2803 
L 2419 4013 
L 2944 4013 
z
M 678 531 
L 4684 531 
L 4684 0 
L 678 0 
L 678 531 
z
" transform="scale(0.015625)"/>
       <path id="DejaVuSans-44" d="M 1259 4147 
L 1259 519 
L 2022 519 
Q 2988 519 3436 956 
Q 3884 1394 3884 2338 
Q 3884 3275 3436 3711 
Q 2988 4147 2022 4147 
L 1259 4147 
z
M 628 4666 
L 1925 4666 
Q 3281 4666 3915 4102 
Q 4550 3538 4550 2338 
Q 4550 1131 3912 565 
Q 3275 0 1925 0 
L 628 0 
L 628 4666 
z
" transform="scale(0.015625)"/>
      </defs>
      <use xlink:href="#DejaVuSans-41"/>
      <use xlink:href="#DejaVuSans-75" transform="translate(68.408203 0)"/>
      <use xlink:href="#DejaVuSans-74" transform="translate(131.787109 0)"/>
      <use xlink:href="#DejaVuSans-69" transform="translate(170.996094 0)"/>
      <use xlink:href="#DejaVuSans-73" transform="translate(198.779297 0)"/>
      <use xlink:href="#DejaVuSans-6d" transform="translate(250.878906 0)"/>
      <use xlink:href="#DejaVuSans-20" transform="translate(348.291016 0)"/>
      <use xlink:href="#DejaVuSans-73" transform="translate(380.078125 0)"/>
      <use xlink:href="#DejaVuSans-70" transform="translate(432.177734 0)"/>
      <use xlink:href="#DejaVuSans-65" transform="translate(495.654297 0)"/>
      <use xlink:href="#DejaVuSans-63" transform="translate(557.177734 0)"/>
      <use xlink:href="#DejaVuSans-74" transform="translate(612.158203 0)"/>
      <use xlink:href="#DejaVuSans-72" transform="translate(651.367188 0)"/>
      <use xlink:href="#DejaVuSans-75" transform="translate(692.480469 0)"/>
      <use xlink:href="#DejaVuSans-6d" transform="translate(755.859375 0)"/>
      <use xlink:href="#DejaVuSans-20" transform="translate(853.271484 0)"/>
      <use xlink:href="#DejaVuSans-63" transform="translate(885.058594 0)"/>
      <use xlink:href="#DejaVuSans-6f" transform="translate(940.039062 0)"/>
      <use xlink:href="#DejaVuSans-6e" transform="translate(1001.220703 0)"/>
      <use xlink:href="#DejaVuSans-64" transform="translate(1064.599609 0)"/>
      <use xlink:href="#DejaVuSans-69" transform="translate(1128.076172 0)"/>
      <use xlink:href="#DejaVuSans-74" transform="translate(1155.859375 0)"/>
      <use xlink:href="#DejaVuSans-69" transform="translate(1195.068359 0)"/>
      <use xlink:href="#DejaVuSans-6f" transform="translate(1222.851562 0)"/>
      <use xlink:href="#DejaVuSans-6e" transform="translate(1284.033203 0)"/>
      <use xlink:href="#DejaVuSans-20" transform="translate(1347.412109 0)"/>
      <use xlink:href="#DejaVuSans-28" transform="translate(1379.199219 0)"/>
      <use xlink:href="#DejaVuSans-41" transform="translate(1418.212891 0)"/>
      <use xlink:href="#DejaVuSans-53" transform="translate(1486.621094 0)"/>
      <use xlink:href="#DejaVuSans-43" transform="translate(1550.097656 0)"/>
      <use xlink:href="#DejaVuSans-29" transform="translate(1619.921875 0)"/>
      <use xlink:href="#DejaVuSans-20" transform="translate(1658.935547 0)"/>
      <use xlink:href="#DejaVuSans-b1" transform="translate(1690.722656 0)"/>
      <use xlink:href="#DejaVuSans-32" transform="translate(1774.511719 0)"/>
      <use xlink:href="#DejaVuSans-20" transform="translate(1838.134766 0)"/>
      <use xlink:href="#DejaVuSans-53" transform="translate(1869.921875 0)"/>
      <use xlink:href="#DejaVuSans-44" transform="translate(1933.398438 0)"/>
     </g>
    </g>
    <g id="patch_8">
     <path d="M 425.355469 58.242031 
L 447.355469 58.242031 
L 447.355469 50.542031 
L 425.355469 50.542031 
z
" style="fill: #808080; fill-opacity: 0.7; stroke: #808080; stroke-opacity: 0.7; stroke-linejoin: miter"/>
    </g>
    <g id="text_20">
     <!-- Autism spectrum condition (ASC) ±1 SD -->
     <g transform="translate(456.155469 58.242031) scale(0.11 -0.11)">
      <use xlink:href="#DejaVuSans-41"/>
      <use xlink:href="#DejaVuSans-75" transform="translate(68.408203 0)"/>
      <use xlink:href="#DejaVuSans-74" transform="translate(131.787109 0)"/>
      <use xlink:href="#DejaVuSans-69" transform="translate(170.996094 0)"/>
      <use xlink:href="#DejaVuSans-73" transform="translate(198.779297 0)"/>
      <use xlink:href="#DejaVuSans-6d" transform="translate(250.878906 0)"/>
      <use xlink:href="#DejaVuSans-20" transform="translate(348.291016 0)"/>
      <use xlink:href="#DejaVuSans-73" transform="translate(380.078125 0)"/>
      <use xlink:href="#DejaVuSans-70" transform="translate(432.177734 0)"/>
      <use xlink:href="#DejaVuSans-65" transform="translate(495.654297 0)"/>
      <use xlink:href="#DejaVuSans-63" transform="translate(557.177734 0)"/>
      <use xlink:href="#DejaVuSans-74" transform="translate(612.158203 0)"/>
      <use xlink:href="#DejaVuSans-72" transform="translate(651.367188 0)"/>
      <use xlink:href="#DejaVuSans-75" transform="translate(692.480469 0)"/>
      <use xlink:href="#DejaVuSans-6d" transform="translate(755.859375 0)"/>
      <use xlink:href="#DejaVuSans-20" transform="translate(853.271484 0)"/>
      <use xlink:href="#DejaVuSans-63" transform="translate(885.058594 0)"/>
      <use xlink:href="#DejaVuSans-6f" transform="translate(940.039062 0)"/>
      <use xlink:href="#DejaVuSans-6e" transform="translate(1001.220703 0)"/>
      <use xlink:href="#DejaVuSans-64" transform="translate(1064.599609 0)"/>
      <use xlink:href="#DejaVuSans-69" transform="translate(1128.076172 0)"/>
      <use xlink:href="#DejaVuSans-74" transform="translate(1155.859375 0)"/>
      <use xlink:href="#DejaVuSans-69" transform="translate(1195.068359 0)"/>
      <use xlink:href="#DejaVuSans-6f" transform="translate(1222.851562 0)"/>
      <use xlink:href="#DejaVuSans-6e" transform="translate(1284.033203 0)"/>
      <use xlink:href="#DejaVuSans-20" transform="translate(1347.412109 0)"/>
      <use xlink:href="#DejaVuSans-28" transform="translate(1379.199219 0)"/>
      <use xlink:href="#DejaVuSans-41" transform="translate(1418.212891 0)"/>
      <use xlink:href="#DejaVuSans-53" transform="translate(1486.621094 0)"/>
      <use xlink:href="#DejaVuSans-43" transform="translate(1550.097656 0)"/>
      <use xlink:href="#DejaVuSans-29" transform="translate(1619.921875 0)"/>
      <use xlink:href="#DejaVuSans-20" transform="translate(1658.935547 0)"/>
      <use xlink:href="#DejaVuSans-b1" transform="translate(1690.722656 0)"/>
      <use xlink:href="#DejaVuSans-31" transform="translate(1774.511719 0)"/>
      <use xlink:href="#DejaVuSans-20" transform="translate(1838.134766 0)"/>
      <use xlink:href="#DejaVuSans-53" transform="translate(1869.921875 0)"/>
      <use xlink:href="#DejaVuSans-44" transform="translate(1933.398438 0)"/>
     </g>
    </g>
    <g id="line2d_34">
     <path d="M 425.355469 70.537969 
L 436.355469 70.537969 
L 447.355469 70.537969 
" style="fill: none; stroke: #ff8c00; stroke-width: 2.3; stroke-linecap: square"/>
    </g>
    <g id="text_21">
     <!-- Autism spectrum condition (ASC) prototype -->
     <g transform="translate(456.155469 74.387969) scale(0.11 -0.11)">
      <use xlink:href="#DejaVuSans-41"/>
      <use xlink:href="#DejaVuSans-75" transform="translate(68.408203 0)"/>
      <use xlink:href="#DejaVuSans-74" transform="translate(131.787109 0)"/>
      <use xlink:href="#DejaVuSans-69" transform="translate(170.996094 0)"/>
      <use xlink:href="#DejaVuSans-73" transform="translate(198.779297 0)"/>
      <use xlink:href="#DejaVuSans-6d" transform="translate(250.878906 0)"/>
      <use xlink:href="#DejaVuSans-20" transform="translate(348.291016 0)"/>
      <use xlink:href="#DejaVuSans-73" transform="translate(380.078125 0)"/>
      <use xlink:href="#DejaVuSans-70" transform="translate(432.177734 0)"/>
      <use xlink:href="#DejaVuSans-65" transform="translate(495.654297 0)"/>
      <use xlink:href="#DejaVuSans-63" transform="translate(557.177734 0)"/>
      <use xlink:href="#DejaVuSans-74" transform="translate(612.158203 0)"/>
      <use xlink:href="#DejaVuSans-72" transform="translate(651.367188 0)"/>
      <use xlink:href="#DejaVuSans-75" transform="translate(692.480469 0)"/>
      <use xlink:href="#DejaVuSans-6d" transform="translate(755.859375 0)"/>
      <use xlink:href="#DejaVuSans-20" transform="translate(853.271484 0)"/>
      <use xlink:href="#DejaVuSans-63" transform="translate(885.058594 0)"/>
      <use xlink:href="#DejaVuSans-6f" transform="translate(940.039062 0)"/>
      <use xlink:href="#DejaVuSans-6e" transform="translate(1001.220703 0)"/>
      <use xlink:href="#DejaVuSans-64" transform="translate(1064.599609 0)"/>
      <use xlink:href="#DejaVuSans-69" transform="translate(1128.076172 0)"/>
      <use xlink:href="#DejaVuSans-74" transform="translate(1155.859375 0)"/>
      <use xlink:href="#DejaVuSans-69" transform="translate(1195.068359 0)"/>
      <use xlink:href="#DejaVuSans-6f" transform="translate(1222.851562 0)"/>
      <use xlink:href="#DejaVuSans-6e" transform="translate(1284.033203 0)"/>
      <use xlink:href="#DejaVuSans-20" transform="translate(1347.412109 0)"/>
      <use xlink:href="#DejaVuSans-28" transform="translate(1379.199219 0)"/>
      <use xlink:href="#DejaVuSans-41" transform="translate(1418.212891 0)"/>
      <use xlink:href="#DejaVuSans-53" transform="translate(1486.621094 0)"/>
      <use xlink:href="#DejaVuSans-43" transform="translate(1550.097656 0)"/>
      <use xlink:href="#DejaVuSans-29" transform="translate(1619.921875 0)"/>
      <use xlink:href="#DejaVuSans-20" transform="translate(1658.935547 0)"/>
      <use xlink:href="#DejaVuSans-70" transform="translate(1690.722656 0)"/>
      <use xlink:href="#DejaVuSans-72" transform="translate(1754.199219 0)"/>
      <use xlink:href="#DejaVuSans-6f" transform="translate(1793.0625 0)"/>
      <use xlink:href="#DejaVuSans-74" transform="translate(1854.244141 0)"/>
      <use xlink:href="#DejaVuSans-6f" transform="translate(1893.453125 0)"/>
      <use xlink:href="#DejaVuSans-74" transform="translate(1954.634766 0)"/>
      <use xlink:href="#DejaVuSans-79" transform="translate(1993.84375 0)"/>
      <use xlink:href="#DejaVuSans-70" transform="translate(2053.023438 0)"/>
      <use xlink:href="#DejaVuSans-65" transform="translate(2116.5 0)"/>
     </g>
    </g>
   </g>
  </g>
 </g>
 <defs>
  <clipPath id="pc7d7909031">
   <rect x="47.307188" y="23.837812" width="658.33" height="360.28"/>
  </clipPath>
 </defs>
</svg>
