<?xml version="1.0" encoding="utf-8" standalone="no"?>
<!DOCTYPE svg PUBLIC "-//W3C//DTD SVG 1.1//EN"
  "http://www.w3.org/Graphics/SVG/1.1/DTD/svg11.dtd">
<svg xmlns:xlink="http://www.w3.org/1999/xlink" width="712.837188pt" height="424.5775pt" viewBox="0 0 712.837188 424.5775" xmlns="http://www.w3.org/2000/svg" version="1.1">
 <metadata>
  <rdf:RDF xmlns:dc="http://purl.org/dc/elements/1.1/" xmlns:cc="http://creativecommons.org/ns#" xmlns:rdf="http://www.w3.org/1999/02/22-rdf-syntax-ns#">
   <cc:Work>
    <dc:type rdf:resource="http://purl.org/dc/dcmitype/StillImage"/>
    <dc:date>2026-06-14T18:54:44.751198</dc:date>
    <dc:format>image/svg+xml</dc:format>
    <dc:creator>
     <cc:Agent>
      <dc:title>Matplotlib v3.10.1, https://matplotlib.org/</dc:title>
     </cc:Agent>
    </dc:creator>
   </cc:Work>
  </rdf:RDF>
 </metadata>
 <defs>
  <style type="text/css">*{stroke-linejoin: round; stroke-linecap: butt}</style>
 </defs>
 <g id="figure_1">
  <g id="patch_1">
   <path d="M 0 424.5775 
L 712.837188 424.5775 
L 712.837188 0 
L 0 0 
z
" style="fill: #ffffff"/>
  </g>
  <g id="axes_1">
   <g id="patch_2">
    <path d="M 47.307188 384.117812 
L 705.637188 384.117812 
L 705.637188 23.837812 
L 47.307188 23.837812 
z
" style="fill: #ffffff"/>
   </g>
   <g id="matplotlib.axis_1">
    <g id="xtick_1">
     <g id="line2d_1">
      <path d="M 47.307188 384.117812 
L 47.307188 23.837812 
" clip-path="url(#p9e7c839c52)" style="fill: none; stroke: #b0b0b0; stroke-opacity: 0.2; stroke-width: 0.6; stroke-linecap: square"/>
     </g>
     <g id="line2d_2">
      <defs>
       <path id="m587f05d335" d="M 0 0 
L 0 3.5 
" style="stroke: #000000; stroke-width: 0.8"/>
      </defs>
      <g>
       <use xlink:href="#m587f05d335" x="47.307188" y="384.117812" style="stroke: #000000; stroke-width: 0.8"/>
      </g>
     </g>
     <g id="text_1">
      <!-- 0 -->
      <g transform="translate(43.807813 399.476094) scale(0.11 -0.11)">
       <defs>
        <path id="DejaVuSans-30" d="M 2034 4250 
Q 1547 4250 1301 3770 
Q 1056 3291 1056 2328 
Q 1056 1369 1301 889 
Q 1547 409 2034 409 
Q 2525 409 2770 889 
Q 3016 1369 3016 2328 
Q 3016 3291 2770 3770 
Q 2525 4250 2034 4250 
z
M 2034 4750 
Q 2819 4750 3233 4129 
Q 3647 3509 3647 2328 
Q 3647 1150 3233 529 
Q 2819 -91 2034 -91 
Q 1250 -91 836 529 
Q 422 1150 422 2328 
Q 422 3509 836 4129 
Q 1250 4750 2034 4750 
z
" transform="scale(0.015625)"/>
       </defs>
       <use xlink:href="#DejaVuSans-30"/>
      </g>
     </g>
    </g>
    <g id="xtick_2">
     <g id="line2d_3">
      <path d="M 134.387875 384.117812 
L 134.387875 23.837812 
" clip-path="url(#p9e7c839c52)" style="fill: none; stroke: #b0b0b0; stroke-opacity: 0.2; stroke-width: 0.6; stroke-linecap: square"/>
     </g>
     <g id="line2d_4">
      <g>
       <use xlink:href="#m587f05d335" x="134.387875" y="384.117812" style="stroke: #000000; stroke-width: 0.8"/>
      </g>
     </g>
     <g id="text_2">
      <!-- 25 -->
      <g transform="translate(127.389125 399.476094) scale(0.11 -0.11)">
       <defs>
        <path id="DejaVuSans-32" d="M 1228 531 
L 3431 531 
L 3431 0 
L 469 0 
L 469 531 
Q 828 903 1448 1529 
Q 2069 2156 2228 2338 
Q 2531 2678 2651 2914 
Q 2772 3150 2772 3378 
Q 2772 3750 2511 3984 
Q 2250 4219 1831 4219 
Q 1534 4219 1204 4116 
Q 875 4013 500 3803 
L 500 4441 
Q 881 4594 1212 4672 
Q 1544 4750 1819 4750 
Q 2544 4750 2975 4387 
Q 3406 4025 3406 3419 
Q 3406 3131 3298 2873 
Q 3191 2616 2906 2266 
Q 2828 2175 2409 1742 
Q 1991 1309 1228 531 
z
" transform="scale(0.015625)"/>
        <path id="DejaVuSans-35" d="M 691 4666 
L 3169 4666 
L 3169 4134 
L 1269 4134 
L 1269 2991 
Q 1406 3038 1543 3061 
Q 1681 3084 1819 3084 
Q 2600 3084 3056 2656 
Q 3513 2228 3513 1497 
Q 3513 744 3044 326 
Q 2575 -91 1722 -91 
Q 1428 -91 1123 -41 
Q 819 9 494 109 
L 494 744 
Q 775 591 1075 516 
Q 1375 441 1709 441 
Q 2250 441 2565 725 
Q 2881 1009 2881 1497 
Q 2881 1984 2565 2268 
Q 2250 2553 1709 2553 
Q 1456 2553 1204 2497 
Q 953 2441 691 2322 
L 691 4666 
z
" transform="scale(0.015625)"/>
       </defs>
       <use xlink:href="#DejaVuSans-32"/>
       <use xlink:href="#DejaVuSans-35" transform="translate(63.623047 0)"/>
      </g>
     </g>
    </g>
    <g id="xtick_3">
     <g id="line2d_5">
      <path d="M 221.468563 384.117812 
L 221.468563 23.837812 
" clip-path="url(#p9e7c839c52)" style="fill: none; stroke: #b0b0b0; stroke-opacity: 0.2; stroke-width: 0.6; stroke-linecap: square"/>
     </g>
     <g id="line2d_6">
      <g>
       <use xlink:href="#m587f05d335" x="221.468563" y="384.117812" style="stroke: #000000; stroke-width: 0.8"/>
      </g>
     </g>
     <g id="text_3">
      <!-- 50 -->
      <g transform="translate(214.469813 399.476094) scale(0.11 -0.11)">
       <use xlink:href="#DejaVuSans-35"/>
       <use xlink:href="#DejaVuSans-30" transform="translate(63.623047 0)"/>
      </g>
     </g>
    </g>
    <g id="xtick_4">
     <g id="line2d_7">
      <path d="M 308.549251 384.117812 
L 308.549251 23.837812 
" clip-path="url(#p9e7c839c52)" style="fill: none; stroke: #b0b0b0; stroke-opacity: 0.2; stroke-width: 0.6; stroke-linecap: square"/>
     </g>
     <g id="line2d_8">
      <g>
       <use xlink:href="#m587f05d335" x="308.549251" y="384.117812" style="stroke: #000000; stroke-width: 0.8"/>
      </g>
     </g>
     <g id="text_4">
      <!-- 75 -->
      <g transform="translate(301.550501 399.476094) scale(0.11 -0.11)">
       <defs>
        <path id="DejaVuSans-37" d="M 525 4666 
L 3525 4666 
L 3525 4397 
L 1831 0 
L 1172 0 
L 2766 4134 
L 525 4134 
L 525 4666 
z
" transform="scale(0.015625)"/>
       </defs>
       <use xlink:href="#DejaVuSans-37"/>
       <use xlink:href="#DejaVuSans-35" transform="translate(63.623047 0)"/>
      </g>
     </g>
    </g>
    <g id="xtick_5">
     <g id="line2d_9">
      <path d="M 395.629939 384.117812 
L 395.629939 23.837812 
" clip-path="url(#p9e7c839c52)" style="fill: none; stroke: #b0b0b0; stroke-opacity: 0.2; stroke-width: 0.6; stroke-linecap: square"/>
     </g>
     <g id="line2d_10">
      <g>
       <use xlink:href="#m587f05d335" x="395.629939" y="384.117812" style="stroke: #000000; stroke-width: 0.8"/>
      </g>
     </g>
     <g id="text_5">
      <!-- 100 -->
      <g transform="translate(385.131814 399.476094) scale(0.11 -0.11)">
       <defs>
        <path id="DejaVuSans-31" d="M 794 531 
L 1825 531 
L 1825 4091 
L 703 3866 
L 703 4441 
L 1819 4666 
L 2450 4666 
L 2450 531 
L 3481 531 
L 3481 0 
L 794 0 
L 794 531 
z
" transform="scale(0.015625)"/>
       </defs>
       <use xlink:href="#DejaVuSans-31"/>
       <use xlink:href="#DejaVuSans-30" transform="translate(63.623047 0)"/>
       <use xlink:href="#DejaVuSans-30" transform="translate(127.246094 0)"/>
      </g>
     </g>
    </g>
    <g id="xtick_6">
     <g id="line2d_11">
      <path d="M 482.710627 384.117812 
L 482.710627 23.837812 
" clip-path="url(#p9e7c839c52)" style="fill: none; stroke: #b0b0b0; stroke-opacity: 0.2; stroke-width: 0.6; stroke-linecap: square"/>
     </g>
     <g id="line2d_12">
      <g>
       <use xlink:href="#m587f05d335" x="482.710627" y="384.117812" style="stroke: #000000; stroke-width: 0.8"/>
      </g>
     </g>
     <g id="text_6">
      <!-- 125 -->
      <g transform="translate(472.212502 399.476094) scale(0.11 -0.11)">
       <use xlink:href="#DejaVuSans-31"/>
       <use xlink:href="#DejaVuSans-32" transform="translate(63.623047 0)"/>
       <use xlink:href="#DejaVuSans-35" transform="translate(127.246094 0)"/>
      </g>
     </g>
    </g>
    <g id="xtick_7">
     <g id="line2d_13">
      <path d="M 569.791314 384.117812 
L 569.791314 23.837812 
" clip-path="url(#p9e7c839c52)" style="fill: none; stroke: #b0b0b0; stroke-opacity: 0.2; stroke-width: 0.6; stroke-linecap: square"/>
     </g>
     <g id="line2d_14">
      <g>
       <use xlink:href="#m587f05d335" x="569.791314" y="384.117812" style="stroke: #000000; stroke-width: 0.8"/>
      </g>
     </g>
     <g id="text_7">
      <!-- 150 -->
      <g transform="translate(559.293189 399.476094) scale(0.11 -0.11)">
       <use xlink:href="#DejaVuSans-31"/>
       <use xlink:href="#DejaVuSans-35" transform="translate(63.623047 0)"/>
       <use xlink:href="#DejaVuSans-30" transform="translate(127.246094 0)"/>
      </g>
     </g>
    </g>
    <g id="xtick_8">
     <g id="line2d_15">
      <path d="M 656.872002 384.117812 
L 656.872002 23.837812 
" clip-path="url(#p9e7c839c52)" style="fill: none; stroke: #b0b0b0; stroke-opacity: 0.2; stroke-width: 0.6; stroke-linecap: square"/>
     </g>
     <g id="line2d_16">
      <g>
       <use xlink:href="#m587f05d335" x="656.872002" y="384.117812" style="stroke: #000000; stroke-width: 0.8"/>
      </g>
     </g>
     <g id="text_8">
      <!-- 175 -->
      <g transform="translate(646.373877 399.476094) scale(0.11 -0.11)">
       <use xlink:href="#DejaVuSans-31"/>
       <use xlink:href="#DejaVuSans-37" transform="translate(63.623047 0)"/>
       <use xlink:href="#DejaVuSans-35" transform="translate(127.246094 0)"/>
      </g>
     </g>
    </g>
    <g id="text_9">
     <!-- Time (s) -->
     <g transform="translate(352.0775 414.881875) scale(0.12 -0.12)">
      <defs>
       <path id="DejaVuSans-54" d="M -19 4666 
L 3928 4666 
L 3928 4134 
L 2272 4134 
L 2272 0 
L 1638 0 
L 1638 4134 
L -19 4134 
L -19 4666 
z
" transform="scale(0.015625)"/>
       <path id="DejaVuSans-69" d="M 603 3500 
L 1178 3500 
L 1178 0 
L 603 0 
L 603 3500 
z
M 603 4863 
L 1178 4863 
L 1178 4134 
L 603 4134 
L 603 4863 
z
" transform="scale(0.015625)"/>
       <path id="DejaVuSans-6d" d="M 3328 2828 
Q 3544 3216 3844 3400 
Q 4144 3584 4550 3584 
Q 5097 3584 5394 3201 
Q 5691 2819 5691 2113 
L 5691 0 
L 5113 0 
L 5113 2094 
Q 5113 2597 4934 2840 
Q 4756 3084 4391 3084 
Q 3944 3084 3684 2787 
Q 3425 2491 3425 1978 
L 3425 0 
L 2847 0 
L 2847 2094 
Q 2847 2600 2669 2842 
Q 2491 3084 2119 3084 
Q 1678 3084 1418 2786 
Q 1159 2488 1159 1978 
L 1159 0 
L 581 0 
L 581 3500 
L 1159 3500 
L 1159 2956 
Q 1356 3278 1631 3431 
Q 1906 3584 2284 3584 
Q 2666 3584 2933 3390 
Q 3200 3197 3328 2828 
z
" transform="scale(0.015625)"/>
       <path id="DejaVuSans-65" d="M 3597 1894 
L 3597 1613 
L 953 1613 
Q 991 1019 1311 708 
Q 1631 397 2203 397 
Q 2534 397 2845 478 
Q 3156 559 3463 722 
L 3463 178 
Q 3153 47 2828 -22 
Q 2503 -91 2169 -91 
Q 1331 -91 842 396 
Q 353 884 353 1716 
Q 353 2575 817 3079 
Q 1281 3584 2069 3584 
Q 2775 3584 3186 3129 
Q 3597 2675 3597 1894 
z
M 3022 2063 
Q 3016 2534 2758 2815 
Q 2500 3097 2075 3097 
Q 1594 3097 1305 2825 
Q 1016 2553 972 2059 
L 3022 2063 
z
" transform="scale(0.015625)"/>
       <path id="DejaVuSans-20" transform="scale(0.015625)"/>
       <path id="DejaVuSans-28" d="M 1984 4856 
Q 1566 4138 1362 3434 
Q 1159 2731 1159 2009 
Q 1159 1288 1364 580 
Q 1569 -128 1984 -844 
L 1484 -844 
Q 1016 -109 783 600 
Q 550 1309 550 2009 
Q 550 2706 781 3412 
Q 1013 4119 1484 4856 
L 1984 4856 
z
" transform="scale(0.015625)"/>
       <path id="DejaVuSans-73" d="M 2834 3397 
L 2834 2853 
Q 2591 2978 2328 3040 
Q 2066 3103 1784 3103 
Q 1356 3103 1142 2972 
Q 928 2841 928 2578 
Q 928 2378 1081 2264 
Q 1234 2150 1697 2047 
L 1894 2003 
Q 2506 1872 2764 1633 
Q 3022 1394 3022 966 
Q 3022 478 2636 193 
Q 2250 -91 1575 -91 
Q 1294 -91 989 -36 
Q 684 19 347 128 
L 347 722 
Q 666 556 975 473 
Q 1284 391 1588 391 
Q 1994 391 2212 530 
Q 2431 669 2431 922 
Q 2431 1156 2273 1281 
Q 2116 1406 1581 1522 
L 1381 1569 
Q 847 1681 609 1914 
Q 372 2147 372 2553 
Q 372 3047 722 3315 
Q 1072 3584 1716 3584 
Q 2034 3584 2315 3537 
Q 2597 3491 2834 3397 
z
" transform="scale(0.015625)"/>
       <path id="DejaVuSans-29" d="M 513 4856 
L 1013 4856 
Q 1481 4119 1714 3412 
Q 1947 2706 1947 2009 
Q 1947 1309 1714 600 
Q 1481 -109 1013 -844 
L 513 -844 
Q 928 -128 1133 580 
Q 1338 1288 1338 2009 
Q 1338 2731 1133 3434 
Q 928 4138 513 4856 
z
" transform="scale(0.015625)"/>
      </defs>
      <use xlink:href="#DejaVuSans-54"/>
      <use xlink:href="#DejaVuSans-69" transform="translate(57.958984 0)"/>
      <use xlink:href="#DejaVuSans-6d" transform="translate(85.742188 0)"/>
      <use xlink:href="#DejaVuSans-65" transform="translate(183.154297 0)"/>
      <use xlink:href="#DejaVuSans-20" transform="translate(244.677734 0)"/>
      <use xlink:href="#DejaVuSans-28" transform="translate(276.464844 0)"/>
      <use xlink:href="#DejaVuSans-73" transform="translate(315.478516 0)"/>
      <use xlink:href="#DejaVuSans-29" transform="translate(367.578125 0)"/>
     </g>
    </g>
   </g>
   <g id="matplotlib.axis_2">
    <g id="ytick_1">
     <g id="line2d_17">
      <path d="M 47.307188 367.741449 
L 705.637188 367.741449 
" clip-path="url(#p9e7c839c52)" style="fill: none; stroke: #b0b0b0; stroke-opacity: 0.2; stroke-width: 0.6; stroke-linecap: square"/>
     </g>
     <g id="line2d_18">
      <defs>
       <path id="me25a59eae1" d="M 0 0 
L -3.5 0 
" style="stroke: #000000; stroke-width: 0.8"/>
      </defs>
      <g>
       <use xlink:href="#me25a59eae1" x="47.307188" y="367.741449" style="stroke: #000000; stroke-width: 0.8"/>
      </g>
     </g>
     <g id="text_10">
      <!-- 0.0 -->
      <g transform="translate(22.81375 371.920589) scale(0.11 -0.11)">
       <defs>
        <path id="DejaVuSans-2e" d="M 684 794 
L 1344 794 
L 1344 0 
L 684 0 
L 684 794 
z
" transform="scale(0.015625)"/>
       </defs>
       <use xlink:href="#DejaVuSans-30"/>
       <use xlink:href="#DejaVuSans-2e" transform="translate(63.623047 0)"/>
       <use xlink:href="#DejaVuSans-30" transform="translate(95.410156 0)"/>
      </g>
     </g>
    </g>
    <g id="ytick_2">
     <g id="line2d_19">
      <path d="M 47.307188 317.507205 
L 705.637188 317.507205 
" clip-path="url(#p9e7c839c52)" style="fill: none; stroke: #b0b0b0; stroke-opacity: 0.2; stroke-width: 0.6; stroke-linecap: square"/>
     </g>
     <g id="line2d_20">
      <g>
       <use xlink:href="#me25a59eae1" x="47.307188" y="317.507205" style="stroke: #000000; stroke-width: 0.8"/>
      </g>
     </g>
     <g id="text_11">
      <!-- 0.5 -->
      <g transform="translate(22.81375 321.686345) scale(0.11 -0.11)">
       <use xlink:href="#DejaVuSans-30"/>
       <use xlink:href="#DejaVuSans-2e" transform="translate(63.623047 0)"/>
       <use xlink:href="#DejaVuSans-35" transform="translate(95.410156 0)"/>
      </g>
     </g>
    </g>
    <g id="ytick_3">
     <g id="line2d_21">
      <path d="M 47.307188 267.27296 
L 705.637188 267.27296 
" clip-path="url(#p9e7c839c52)" style="fill: none; stroke: #b0b0b0; stroke-opacity: 0.2; stroke-width: 0.6; stroke-linecap: square"/>
     </g>
     <g id="line2d_22">
      <g>
       <use xlink:href="#me25a59eae1" x="47.307188" y="267.27296" style="stroke: #000000; stroke-width: 0.8"/>
      </g>
     </g>
     <g id="text_12">
      <!-- 1.0 -->
      <g transform="translate(22.81375 271.452101) scale(0.11 -0.11)">
       <use xlink:href="#DejaVuSans-31"/>
       <use xlink:href="#DejaVuSans-2e" transform="translate(63.623047 0)"/>
       <use xlink:href="#DejaVuSans-30" transform="translate(95.410156 0)"/>
      </g>
     </g>
    </g>
    <g id="ytick_4">
     <g id="line2d_23">
      <path d="M 47.307188 217.038716 
L 705.637188 217.038716 
" clip-path="url(#p9e7c839c52)" style="fill: none; stroke: #b0b0b0; stroke-opacity: 0.2; stroke-width: 0.6; stroke-linecap: square"/>
     </g>
     <g id="line2d_24">
      <g>
       <use xlink:href="#me25a59eae1" x="47.307188" y="217.038716" style="stroke: #000000; stroke-width: 0.8"/>
      </g>
     </g>
     <g id="text_13">
      <!-- 1.5 -->
      <g transform="translate(22.81375 221.217857) scale(0.11 -0.11)">
       <use xlink:href="#DejaVuSans-31"/>
       <use xlink:href="#DejaVuSans-2e" transform="translate(63.623047 0)"/>
       <use xlink:href="#DejaVuSans-35" transform="translate(95.410156 0)"/>
      </g>
     </g>
    </g>
    <g id="ytick_5">
     <g id="line2d_25">
      <path d="M 47.307188 166.804472 
L 705.637188 166.804472 
" clip-path="url(#p9e7c839c52)" style="fill: none; stroke: #b0b0b0; stroke-opacity: 0.2; stroke-width: 0.6; stroke-linecap: square"/>
     </g>
     <g id="line2d_26">
      <g>
       <use xlink:href="#me25a59eae1" x="47.307188" y="166.804472" style="stroke: #000000; stroke-width: 0.8"/>
      </g>
     </g>
     <g id="text_14">
      <!-- 2.0 -->
      <g transform="translate(22.81375 170.983612) scale(0.11 -0.11)">
       <use xlink:href="#DejaVuSans-32"/>
       <use xlink:href="#DejaVuSans-2e" transform="translate(63.623047 0)"/>
       <use xlink:href="#DejaVuSans-30" transform="translate(95.410156 0)"/>
      </g>
     </g>
    </g>
    <g id="ytick_6">
     <g id="line2d_27">
      <path d="M 47.307188 116.570227 
L 705.637188 116.570227 
" clip-path="url(#p9e7c839c52)" style="fill: none; stroke: #b0b0b0; stroke-opacity: 0.2; stroke-width: 0.6; stroke-linecap: square"/>
     </g>
     <g id="line2d_28">
      <g>
       <use xlink:href="#me25a59eae1" x="47.307188" y="116.570227" style="stroke: #000000; stroke-width: 0.8"/>
      </g>
     </g>
     <g id="text_15">
      <!-- 2.5 -->
      <g transform="translate(22.81375 120.749368) scale(0.11 -0.11)">
       <use xlink:href="#DejaVuSans-32"/>
       <use xlink:href="#DejaVuSans-2e" transform="translate(63.623047 0)"/>
       <use xlink:href="#DejaVuSans-35" transform="translate(95.410156 0)"/>
      </g>
     </g>
    </g>
    <g id="ytick_7">
     <g id="line2d_29">
      <path d="M 47.307188 66.335983 
L 705.637188 66.335983 
" clip-path="url(#p9e7c839c52)" style="fill: none; stroke: #b0b0b0; stroke-opacity: 0.2; stroke-width: 0.6; stroke-linecap: square"/>
     </g>
     <g id="line2d_30">
      <g>
       <use xlink:href="#me25a59eae1" x="47.307188" y="66.335983" style="stroke: #000000; stroke-width: 0.8"/>
      </g>
     </g>
     <g id="text_16">
      <!-- 3.0 -->
      <g transform="translate(22.81375 70.515124) scale(0.11 -0.11)">
       <defs>
        <path id="DejaVuSans-33" d="M 2597 2516 
Q 3050 2419 3304 2112 
Q 3559 1806 3559 1356 
Q 3559 666 3084 287 
Q 2609 -91 1734 -91 
Q 1441 -91 1130 -33 
Q 819 25 488 141 
L 488 750 
Q 750 597 1062 519 
Q 1375 441 1716 441 
Q 2309 441 2620 675 
Q 2931 909 2931 1356 
Q 2931 1769 2642 2001 
Q 2353 2234 1838 2234 
L 1294 2234 
L 1294 2753 
L 1863 2753 
Q 2328 2753 2575 2939 
Q 2822 3125 2822 3475 
Q 2822 3834 2567 4026 
Q 2313 4219 1838 4219 
Q 1578 4219 1281 4162 
Q 984 4106 628 3988 
L 628 4550 
Q 988 4650 1302 4700 
Q 1616 4750 1894 4750 
Q 2613 4750 3031 4423 
Q 3450 4097 3450 3541 
Q 3450 3153 3228 2886 
Q 3006 2619 2597 2516 
z
" transform="scale(0.015625)"/>
       </defs>
       <use xlink:href="#DejaVuSans-33"/>
       <use xlink:href="#DejaVuSans-2e" transform="translate(63.623047 0)"/>
       <use xlink:href="#DejaVuSans-30" transform="translate(95.410156 0)"/>
      </g>
     </g>
    </g>
    <g id="text_17">
     <!-- AU mean intensity -->
     <g transform="translate(16.318125 259.314687) rotate(-90) scale(0.12 -0.12)">
      <defs>
       <path id="DejaVuSans-41" d="M 2188 4044 
L 1331 1722 
L 3047 1722 
L 2188 4044 
z
M 1831 4666 
L 2547 4666 
L 4325 0 
L 3669 0 
L 3244 1197 
L 1141 1197 
L 716 0 
L 50 0 
L 1831 4666 
z
" transform="scale(0.015625)"/>
       <path id="DejaVuSans-55" d="M 556 4666 
L 1191 4666 
L 1191 1831 
Q 1191 1081 1462 751 
Q 1734 422 2344 422 
Q 2950 422 3222 751 
Q 3494 1081 3494 1831 
L 3494 4666 
L 4128 4666 
L 4128 1753 
Q 4128 841 3676 375 
Q 3225 -91 2344 -91 
Q 1459 -91 1007 375 
Q 556 841 556 1753 
L 556 4666 
z
" transform="scale(0.015625)"/>
       <path id="DejaVuSans-61" d="M 2194 1759 
Q 1497 1759 1228 1600 
Q 959 1441 959 1056 
Q 959 750 1161 570 
Q 1363 391 1709 391 
Q 2188 391 2477 730 
Q 2766 1069 2766 1631 
L 2766 1759 
L 2194 1759 
z
M 3341 1997 
L 3341 0 
L 2766 0 
L 2766 531 
Q 2569 213 2275 61 
Q 1981 -91 1556 -91 
Q 1019 -91 701 211 
Q 384 513 384 1019 
Q 384 1609 779 1909 
Q 1175 2209 1959 2209 
L 2766 2209 
L 2766 2266 
Q 2766 2663 2505 2880 
Q 2244 3097 1772 3097 
Q 1472 3097 1187 3025 
Q 903 2953 641 2809 
L 641 3341 
Q 956 3463 1253 3523 
Q 1550 3584 1831 3584 
Q 2591 3584 2966 3190 
Q 3341 2797 3341 1997 
z
" transform="scale(0.015625)"/>
       <path id="DejaVuSans-6e" d="M 3513 2113 
L 3513 0 
L 2938 0 
L 2938 2094 
Q 2938 2591 2744 2837 
Q 2550 3084 2163 3084 
Q 1697 3084 1428 2787 
Q 1159 2491 1159 1978 
L 1159 0 
L 581 0 
L 581 3500 
L 1159 3500 
L 1159 2956 
Q 1366 3272 1645 3428 
Q 1925 3584 2291 3584 
Q 2894 3584 3203 3211 
Q 3513 2838 3513 2113 
z
" transform="scale(0.015625)"/>
       <path id="DejaVuSans-74" d="M 1172 4494 
L 1172 3500 
L 2356 3500 
L 2356 3053 
L 1172 3053 
L 1172 1153 
Q 1172 725 1289 603 
Q 1406 481 1766 481 
L 2356 481 
L 2356 0 
L 1766 0 
Q 1100 0 847 248 
Q 594 497 594 1153 
L 594 3053 
L 172 3053 
L 172 3500 
L 594 3500 
L 594 4494 
L 1172 4494 
z
" transform="scale(0.015625)"/>
       <path id="DejaVuSans-79" d="M 2059 -325 
Q 1816 -950 1584 -1140 
Q 1353 -1331 966 -1331 
L 506 -1331 
L 506 -850 
L 844 -850 
Q 1081 -850 1212 -737 
Q 1344 -625 1503 -206 
L 1606 56 
L 191 3500 
L 800 3500 
L 1894 763 
L 2988 3500 
L 3597 3500 
L 2059 -325 
z
" transform="scale(0.015625)"/>
      </defs>
      <use xlink:href="#DejaVuSans-41"/>
      <use xlink:href="#DejaVuSans-55" transform="translate(68.408203 0)"/>
      <use xlink:href="#DejaVuSans-20" transform="translate(141.601562 0)"/>
      <use xlink:href="#DejaVuSans-6d" transform="translate(173.388672 0)"/>
      <use xlink:href="#DejaVuSans-65" transform="translate(270.800781 0)"/>
      <use xlink:href="#DejaVuSans-61" transform="translate(332.324219 0)"/>
      <use xlink:href="#DejaVuSans-6e" transform="translate(393.603516 0)"/>
      <use xlink:href="#DejaVuSans-20" transform="translate(456.982422 0)"/>
      <use xlink:href="#DejaVuSans-69" transform="translate(488.769531 0)"/>
      <use xlink:href="#DejaVuSans-6e" transform="translate(516.552734 0)"/>
      <use xlink:href="#DejaVuSans-74" transform="translate(579.931641 0)"/>
      <use xlink:href="#DejaVuSans-65" transform="translate(619.140625 0)"/>
      <use xlink:href="#DejaVuSans-6e" transform="translate(680.664062 0)"/>
      <use xlink:href="#DejaVuSans-73" transform="translate(744.042969 0)"/>
      <use xlink:href="#DejaVuSans-69" transform="translate(796.142578 0)"/>
      <use xlink:href="#DejaVuSans-74" transform="translate(823.925781 0)"/>
      <use xlink:href="#DejaVuSans-79" transform="translate(863.134766 0)"/>
     </g>
    </g>
   </g>
   <g id="FillBetweenPolyCollection_1">
    <defs>
     <path id="m43314ee4cf" d="M 47.307188 -163.905873 
L 47.307188 -25.73375 
L 50.790415 -29.340441 
L 54.273643 -27.470827 
L 57.75687 -26.82554 
L 61.240098 -24.116121 
L 64.723325 -22.382713 
L 68.206553 -25.500301 
L 71.68978 -23.901954 
L 75.173008 -24.407454 
L 78.656235 -23.69499 
L 82.139463 -25.271885 
L 85.62269 -23.803552 
L 89.105918 -22.404452 
L 92.589145 -22.421675 
L 96.072373 -24.009586 
L 99.5556 -23.318335 
L 103.038828 -22.695197 
L 106.522055 -23.784388 
L 110.005283 -22.334787 
L 113.48851 -21.330127 
L 116.971738 -22.093645 
L 120.454965 -23.668546 
L 123.938193 -23.99638 
L 127.42142 -22.661811 
L 130.904648 -23.78163 
L 134.387875 -22.025622 
L 137.871103 -19.287975 
L 141.35433 -19.749503 
L 144.837558 -21.469079 
L 148.320785 -21.800809 
L 151.804013 -24.740028 
L 155.28724 -23.802859 
L 158.770468 -24.946431 
L 162.253695 -22.2309 
L 165.736923 -19.010803 
L 169.22015 -22.726695 
L 172.703378 -20.81361 
L 176.186605 -17.636104 
L 179.669833 -21.901249 
L 183.153061 -21.00657 
L 186.636288 -20.049539 
L 190.119516 -21.403903 
L 193.602743 -20.571151 
L 197.085971 -22.964908 
L 200.569198 -23.932073 
L 204.052426 -25.645243 
L 207.535653 -28.538088 
L 211.018881 -21.342621 
L 214.502108 -23.217914 
L 217.985336 -22.897444 
L 221.468563 -24.645253 
L 224.951791 -26.017084 
L 228.435018 -29.756048 
L 231.918246 -28.449768 
L 235.401473 -22.512304 
L 238.884701 -23.36347 
L 242.367928 -24.135287 
L 245.851156 -22.385974 
L 249.334383 -25.276463 
L 252.817611 -27.286295 
L 256.300838 -24.946578 
L 259.784066 -26.248474 
L 263.267293 -29.335768 
L 266.750521 -26.460229 
L 270.233748 -20.259242 
L 273.716976 -16.086802 
L 277.200203 -15.354846 
L 280.683431 -14.645289 
L 284.166658 -18.488589 
L 287.649886 -19.731287 
L 291.133113 -15.87876 
L 294.616341 -14.058807 
L 298.099568 -17.513237 
L 301.582796 -18.381964 
L 305.066023 -18.576358 
L 308.549251 -16.838425 
L 312.032479 -18.825221 
L 315.515706 -17.944499 
L 318.998934 -19.087947 
L 322.482161 -19.037162 
L 325.965389 -17.018517 
L 329.448616 -13.737303 
L 332.931844 -18.09714 
L 336.415071 -19.058412 
L 339.898299 -18.267233 
L 343.381526 -18.82984 
L 346.864754 -18.963158 
L 350.347981 -18.134372 
L 353.831209 -15.57382 
L 357.314436 -11.978016 
L 360.797664 -10.088401 
L 364.280891 -13.394335 
L 367.764119 -17.511149 
L 371.247346 -17.805602 
L 374.730574 -16.201644 
L 378.213801 -17.404298 
L 381.697029 -16.401125 
L 385.180256 -16.428866 
L 388.663484 -15.896577 
L 392.146711 -17.79837 
L 395.629939 -16.545434 
L 399.113166 -19.705416 
L 402.596394 -20.012811 
L 406.079621 -21.301909 
L 409.562849 -19.437547 
L 413.046076 -19.048789 
L 416.529304 -17.635952 
L 420.012531 -16.017102 
L 423.495759 -20.167536 
L 426.978986 -13.817877 
L 430.462214 -12.915546 
L 433.945441 -25.249748 
L 437.428669 -25.482149 
L 440.911896 -32.985471 
L 444.395124 -28.930646 
L 447.878352 -17.620219 
L 451.361579 -22.942811 
L 454.844807 -19.590427 
L 458.328034 -18.04475 
L 461.811262 -23.010791 
L 465.294489 -12.380357 
L 468.777717 -6.11894 
L 472.260944 -6.882102 
L 475.744172 -8.622268 
L 479.227399 -12.611765 
L 482.710627 -13.730896 
L 486.193854 -19.246819 
L 489.677082 -17.96697 
L 493.160309 -11.900304 
L 496.643537 -11.533212 
L 500.126764 -13.478756 
L 503.609992 -17.519144 
L 507.093219 -17.917718 
L 510.576447 -16.902661 
L 514.059674 -11.827044 
L 517.542902 -17.567227 
L 521.026129 -15.04391 
L 524.509357 -11.122693 
L 527.992584 -14.030877 
L 531.475812 -13.17112 
L 534.959039 -10.75877 
L 538.442267 -16.153648 
L 541.925494 -13.950559 
L 545.408722 -10.062111 
L 548.891949 -12.172206 
L 552.375177 -8.754032 
L 555.858404 -8.992872 
L 559.341632 -9.983093 
L 562.824859 -9.764784 
L 566.308087 -8.028264 
L 569.791314 -4.231793 
L 573.274542 -3.231043 
L 576.75777 -4.409198 
L 580.240997 -5.923202 
L 583.724225 -5.642749 
L 587.207452 -8.795616 
L 590.69068 -13.467197 
L 594.173907 -23.005627 
L 597.657135 -27.382154 
L 601.140362 -27.412882 
L 604.62359 -22.092838 
L 608.106817 -22.435591 
L 611.590045 -20.936669 
L 615.073272 -26.808252 
L 618.5565 -22.911474 
L 622.039727 -22.858048 
L 625.522955 -15.490615 
L 629.006182 -16.665009 
L 632.48941 -25.129234 
L 635.972637 -26.174304 
L 639.455865 -20.992623 
L 642.939092 -18.947296 
L 646.42232 -12.153412 
L 649.905547 -10.115102 
L 653.388775 -11.379282 
L 656.872002 -11.968543 
L 660.35523 -12.754694 
L 663.838457 -8.735424 
L 667.321685 -6.857782 
L 670.804912 -4.233685 
L 674.28814 -0.423292 
L 677.771367 -3.889643 
L 681.254595 -0.407113 
L 684.737822 1.670244 
L 688.22105 -1.920106 
L 691.704277 -9.081331 
L 695.187505 -9.191393 
L 698.670732 -5.727583 
L 702.15396 -9.802085 
L 705.637188 -12.85666 
L 705.637188 -207.141223 
L 705.637188 -207.141223 
L 702.15396 -216.740007 
L 698.670732 -222.022224 
L 695.187505 -221.318955 
L 691.704277 -223.561662 
L 688.22105 -238.280717 
L 684.737822 -237.372585 
L 681.254595 -233.383068 
L 677.771367 -232.219227 
L 674.28814 -235.888223 
L 670.804912 -239.901297 
L 667.321685 -234.265485 
L 663.838457 -229.416378 
L 660.35523 -220.871923 
L 656.872002 -224.187421 
L 653.388775 -216.76056 
L 649.905547 -216.983542 
L 646.42232 -220.575875 
L 642.939092 -212.720607 
L 639.455865 -206.843383 
L 635.972637 -201.529532 
L 632.48941 -211.387877 
L 629.006182 -221.854347 
L 625.522955 -225.724816 
L 622.039727 -215.508116 
L 618.5565 -213.956568 
L 615.073272 -210.017864 
L 611.590045 -214.621332 
L 608.106817 -217.461418 
L 604.62359 -209.324889 
L 601.140362 -201.855362 
L 597.657135 -202.88606 
L 594.173907 -204.149855 
L 590.69068 -214.696952 
L 587.207452 -216.259555 
L 583.724225 -217.520256 
L 580.240997 -215.181436 
L 576.75777 -215.544791 
L 573.274542 -211.965657 
L 569.791314 -205.613061 
L 566.308087 -195.970748 
L 562.824859 -199.750408 
L 559.341632 -202.270465 
L 555.858404 -204.439274 
L 552.375177 -209.439401 
L 548.891949 -199.243481 
L 545.408722 -204.50179 
L 541.925494 -196.431072 
L 538.442267 -196.174072 
L 534.959039 -201.288896 
L 531.475812 -201.31862 
L 527.992584 -204.733088 
L 524.509357 -204.210419 
L 521.026129 -199.758031 
L 517.542902 -200.768032 
L 514.059674 -208.289498 
L 510.576447 -200.23791 
L 507.093219 -204.929298 
L 503.609992 -206.92488 
L 500.126764 -209.100884 
L 496.643537 -215.267707 
L 493.160309 -231.743284 
L 489.677082 -239.389145 
L 486.193854 -241.00344 
L 482.710627 -226.558027 
L 479.227399 -220.707471 
L 475.744172 -221.508295 
L 472.260944 -223.126838 
L 468.777717 -223.236456 
L 465.294489 -212.764673 
L 461.811262 -194.595855 
L 458.328034 -200.709086 
L 454.844807 -192.349167 
L 451.361579 -189.141315 
L 447.878352 -199.105162 
L 444.395124 -181.555302 
L 440.911896 -185.661045 
L 437.428669 -182.495126 
L 433.945441 -184.053632 
L 430.462214 -206.238848 
L 426.978986 -206.648006 
L 423.495759 -196.29335 
L 420.012531 -210.253327 
L 416.529304 -205.164982 
L 413.046076 -202.467791 
L 409.562849 -200.994984 
L 406.079621 -201.896544 
L 402.596394 -204.586833 
L 399.113166 -209.07889 
L 395.629939 -208.920143 
L 392.146711 -204.073856 
L 388.663484 -208.531906 
L 385.180256 -210.424562 
L 381.697029 -213.74201 
L 378.213801 -217.106062 
L 374.730574 -219.651078 
L 371.247346 -219.199148 
L 367.764119 -217.033052 
L 364.280891 -215.030536 
L 360.797664 -220.942441 
L 357.314436 -213.495594 
L 353.831209 -205.789463 
L 350.347981 -195.042133 
L 346.864754 -196.884486 
L 343.381526 -199.274276 
L 339.898299 -198.442293 
L 336.415071 -200.577632 
L 332.931844 -205.785451 
L 329.448616 -211.636163 
L 325.965389 -205.933322 
L 322.482161 -199.468611 
L 318.998934 -194.647529 
L 315.515706 -194.757812 
L 312.032479 -196.986468 
L 308.549251 -197.550631 
L 305.066023 -194.66741 
L 301.582796 -197.029098 
L 298.099568 -205.317574 
L 294.616341 -213.357049 
L 291.133113 -215.32375 
L 287.649886 -211.710345 
L 284.166658 -209.00155 
L 280.683431 -204.770981 
L 277.200203 -203.85677 
L 273.716976 -195.910714 
L 270.233748 -191.666384 
L 266.750521 -182.309412 
L 263.267293 -182.621253 
L 259.784066 -176.87631 
L 256.300838 -185.078552 
L 252.817611 -184.640308 
L 249.334383 -178.884629 
L 245.851156 -184.792193 
L 242.367928 -175.716396 
L 238.884701 -179.240566 
L 235.401473 -175.66828 
L 231.918246 -176.553928 
L 228.435018 -175.682676 
L 224.951791 -175.974181 
L 221.468563 -181.264416 
L 217.985336 -182.537682 
L 214.502108 -193.119412 
L 211.018881 -193.712255 
L 207.535653 -185.533633 
L 204.052426 -191.246323 
L 200.569198 -197.423614 
L 197.085971 -188.35975 
L 193.602743 -184.277118 
L 190.119516 -181.272671 
L 186.636288 -183.907983 
L 183.153061 -185.190189 
L 179.669833 -187.377457 
L 176.186605 -185.989398 
L 172.703378 -182.90135 
L 169.22015 -184.247937 
L 165.736923 -186.26233 
L 162.253695 -182.595244 
L 158.770468 -177.531915 
L 155.28724 -179.89085 
L 151.804013 -182.048741 
L 148.320785 -185.385478 
L 144.837558 -182.422612 
L 141.35433 -183.886826 
L 137.871103 -185.634734 
L 134.387875 -183.121523 
L 130.904648 -183.243625 
L 127.42142 -182.617416 
L 123.938193 -184.42095 
L 120.454965 -184.490489 
L 116.971738 -184.327988 
L 113.48851 -185.74898 
L 110.005283 -182.007594 
L 106.522055 -179.092473 
L 103.038828 -179.985706 
L 99.5556 -175.737367 
L 96.072373 -177.120741 
L 92.589145 -182.263185 
L 89.105918 -184.961605 
L 85.62269 -184.621811 
L 82.139463 -181.64095 
L 78.656235 -180.669951 
L 75.173008 -172.175965 
L 71.68978 -175.363779 
L 68.206553 -177.309227 
L 64.723325 -183.964533 
L 61.240098 -180.737212 
L 57.75687 -176.837855 
L 54.273643 -172.533787 
L 50.790415 -165.489197 
L 47.307188 -163.905873 
z
" style="stroke: #d3d3d3; stroke-opacity: 0.5"/>
    </defs>
    <g clip-path="url(#p9e7c839c52)">
     <use xlink:href="#m43314ee4cf" x="0" y="424.5775" style="fill: #d3d3d3; fill-opacity: 0.5; stroke: #d3d3d3; stroke-opacity: 0.5"/>
    </g>
   </g>
   <g id="FillBetweenPolyCollection_2">
    <defs>
     <path id="m59605641ba" d="M 47.307188 -129.362842 
L 47.307188 -60.276781 
L 50.790415 -63.37763 
L 54.273643 -63.736567 
L 57.75687 -64.328619 
L 61.240098 -63.271393 
L 64.723325 -62.778168 
L 68.206553 -63.452533 
L 71.68978 -61.76741 
L 75.173008 -61.349581 
L 78.656235 -62.938731 
L 82.139463 -64.364151 
L 85.62269 -64.008117 
L 89.105918 -63.04374 
L 92.589145 -62.382053 
L 96.072373 -62.287375 
L 99.5556 -61.423093 
L 103.038828 -62.017825 
L 106.522055 -62.611409 
L 110.005283 -62.252989 
L 113.48851 -62.43484 
L 116.971738 -62.652231 
L 120.454965 -63.874032 
L 123.938193 -64.102523 
L 127.42142 -62.650712 
L 130.904648 -63.647128 
L 134.387875 -62.299597 
L 137.871103 -60.874664 
L 141.35433 -60.783834 
L 144.837558 -61.707462 
L 148.320785 -62.696977 
L 151.804013 -64.067206 
L 155.28724 -62.824857 
L 158.770468 -63.092802 
L 162.253695 -62.321986 
L 165.736923 -60.823685 
L 169.22015 -63.107006 
L 172.703378 -61.335545 
L 176.186605 -59.724428 
L 179.669833 -63.270301 
L 183.153061 -62.052475 
L 186.636288 -61.01415 
L 190.119516 -61.371095 
L 193.602743 -61.497643 
L 197.085971 -64.313619 
L 200.569198 -67.304958 
L 204.052426 -67.045513 
L 207.535653 -67.786974 
L 211.018881 -64.435029 
L 214.502108 -65.693288 
L 217.985336 -62.807503 
L 221.468563 -63.800044 
L 224.951791 -63.506359 
L 228.435018 -66.237705 
L 231.918246 -65.475808 
L 235.401473 -60.801298 
L 238.884701 -62.332744 
L 242.367928 -62.030564 
L 245.851156 -62.987529 
L 249.334383 -63.678505 
L 252.817611 -66.624798 
L 256.300838 -64.979571 
L 259.784066 -63.905433 
L 263.267293 -67.65714 
L 266.750521 -65.422525 
L 270.233748 -63.111027 
L 273.716976 -61.04278 
L 277.200203 -62.480327 
L 280.683431 -62.176712 
L 284.166658 -66.116829 
L 287.649886 -67.726052 
L 291.133113 -65.740007 
L 294.616341 -63.883367 
L 298.099568 -64.464321 
L 301.582796 -63.043748 
L 305.066023 -62.599121 
L 308.549251 -62.016476 
L 312.032479 -63.365533 
L 315.515706 -62.147827 
L 318.998934 -62.977842 
L 322.482161 -64.145024 
L 325.965389 -64.247218 
L 329.448616 -63.212018 
L 332.931844 -65.019218 
L 336.415071 -64.438217 
L 339.898299 -63.310998 
L 343.381526 -63.940949 
L 346.864754 -63.44349 
L 350.347981 -62.361312 
L 353.831209 -63.127731 
L 357.314436 -62.35741 
L 360.797664 -62.801911 
L 364.280891 -63.803386 
L 367.764119 -67.391625 
L 371.247346 -68.153989 
L 374.730574 -67.064003 
L 378.213801 -67.329739 
L 381.697029 -65.736346 
L 385.180256 -64.92779 
L 388.663484 -64.055409 
L 392.146711 -64.367241 
L 395.629939 -64.639111 
L 399.113166 -67.048785 
L 402.596394 -66.156317 
L 406.079621 -66.450568 
L 409.562849 -64.826906 
L 413.046076 -64.90354 
L 416.529304 -64.51821 
L 420.012531 -64.576158 
L 423.495759 -64.19899 
L 426.978986 -62.02541 
L 430.462214 -61.246371 
L 433.945441 -64.950719 
L 437.428669 -64.735393 
L 440.911896 -71.154364 
L 444.395124 -67.08681 
L 447.878352 -62.991455 
L 451.361579 -64.492437 
L 454.844807 -62.780112 
L 458.328034 -63.710834 
L 461.811262 -65.907057 
L 465.294489 -62.476436 
L 468.777717 -60.398319 
L 472.260944 -60.943286 
L 475.744172 -61.843774 
L 479.227399 -64.635691 
L 482.710627 -66.937678 
L 486.193854 -74.685974 
L 489.677082 -73.322514 
L 493.160309 -66.861049 
L 496.643537 -62.466836 
L 500.126764 -62.384288 
L 503.609992 -64.870578 
L 507.093219 -64.670613 
L 510.576447 -62.736473 
L 514.059674 -60.942657 
L 517.542902 -63.367428 
L 521.026129 -61.22244 
L 524.509357 -59.394625 
L 527.992584 -61.706429 
L 531.475812 -60.207995 
L 534.959039 -58.391302 
L 538.442267 -61.158754 
L 541.925494 -59.570687 
L 545.408722 -58.672031 
L 548.891949 -58.940025 
L 552.375177 -58.925375 
L 555.858404 -57.854473 
L 559.341632 -58.054936 
L 562.824859 -57.26119 
L 566.308087 -55.013885 
L 569.791314 -54.57711 
L 573.274542 -55.414697 
L 576.75777 -57.193096 
L 580.240997 -58.23776 
L 583.724225 -58.612126 
L 587.207452 -60.661601 
L 590.69068 -63.774636 
L 594.173907 -68.291684 
L 597.657135 -71.25813 
L 601.140362 -71.023502 
L 604.62359 -68.900851 
L 608.106817 -71.192047 
L 611.590045 -69.357835 
L 615.073272 -72.610655 
L 618.5565 -70.672747 
L 622.039727 -71.020565 
L 625.522955 -68.049165 
L 629.006182 -67.962344 
L 632.48941 -71.693895 
L 635.972637 -70.013111 
L 639.455865 -67.455313 
L 642.939092 -67.390624 
L 646.42232 -64.259028 
L 649.905547 -61.832212 
L 653.388775 -62.724601 
L 656.872002 -65.023263 
L 660.35523 -64.784001 
L 663.838457 -63.905662 
L 667.321685 -63.709708 
L 670.804912 -63.150588 
L 674.28814 -59.289525 
L 677.771367 -60.972039 
L 681.254595 -58.651102 
L 684.737822 -58.090463 
L 688.22105 -61.010259 
L 691.704277 -62.701414 
L 695.187505 -62.223283 
L 698.670732 -59.801243 
L 702.15396 -61.536566 
L 705.637188 -61.427801 
L 705.637188 -158.570082 
L 705.637188 -158.570082 
L 702.15396 -165.005526 
L 698.670732 -167.948564 
L 695.187505 -168.287065 
L 691.704277 -169.941579 
L 688.22105 -179.190565 
L 684.737822 -177.611878 
L 681.254595 -175.139079 
L 677.771367 -175.136831 
L 674.28814 -177.02199 
L 670.804912 -180.984394 
L 667.321685 -177.413559 
L 663.838457 -174.246139 
L 660.35523 -168.842615 
L 656.872002 -171.132702 
L 653.388775 -165.41524 
L 649.905547 -165.266432 
L 646.42232 -168.470259 
L 642.939092 -164.277279 
L 639.455865 -160.380693 
L 635.972637 -157.690725 
L 632.48941 -164.823216 
L 629.006182 -170.557012 
L 625.522955 -173.166265 
L 622.039727 -167.345599 
L 618.5565 -166.195294 
L 615.073272 -164.215461 
L 611.590045 -166.200167 
L 608.106817 -168.704961 
L 604.62359 -162.516877 
L 601.140362 -158.244742 
L 597.657135 -159.010083 
L 594.173907 -158.863798 
L 590.69068 -164.389513 
L 587.207452 -164.39357 
L 583.724225 -164.550879 
L 580.240997 -162.866877 
L 576.75777 -162.760893 
L 573.274542 -159.782004 
L 569.791314 -155.267744 
L 566.308087 -148.985127 
L 562.824859 -152.254002 
L 559.341632 -154.198622 
L 555.858404 -155.577674 
L 552.375177 -159.268059 
L 548.891949 -152.475662 
L 545.408722 -155.89187 
L 541.925494 -150.810944 
L 538.442267 -151.168966 
L 534.959039 -153.656364 
L 531.475812 -154.281745 
L 527.992584 -157.057535 
L 524.509357 -155.938488 
L 521.026129 -153.579501 
L 517.542902 -154.967831 
L 514.059674 -159.173884 
L 510.576447 -154.404098 
L 507.093219 -158.176403 
L 503.609992 -159.573446 
L 500.126764 -160.195352 
L 496.643537 -164.334084 
L 493.160309 -176.782539 
L 489.677082 -184.033601 
L 486.193854 -185.564285 
L 482.710627 -173.351244 
L 479.227399 -168.683544 
L 475.744172 -168.286788 
L 472.260944 -169.065654 
L 468.777717 -168.957077 
L 465.294489 -162.668594 
L 461.811262 -151.699589 
L 458.328034 -155.043002 
L 454.844807 -149.159482 
L 451.361579 -147.591689 
L 447.878352 -153.733926 
L 444.395124 -143.399138 
L 440.911896 -147.492151 
L 437.428669 -143.241881 
L 433.945441 -144.352661 
L 430.462214 -157.908023 
L 426.978986 -158.440474 
L 423.495759 -152.261897 
L 420.012531 -161.69427 
L 416.529304 -158.282725 
L 413.046076 -156.613041 
L 409.562849 -155.605625 
L 406.079621 -156.747885 
L 402.596394 -158.443327 
L 399.113166 -161.735521 
L 395.629939 -160.826466 
L 392.146711 -157.504984 
L 388.663484 -160.373074 
L 385.180256 -161.925638 
L 381.697029 -164.406789 
L 378.213801 -167.180621 
L 374.730574 -168.78872 
L 371.247346 -168.850762 
L 367.764119 -167.152577 
L 364.280891 -164.621486 
L 360.797664 -168.228931 
L 357.314436 -163.116199 
L 353.831209 -158.235552 
L 350.347981 -150.815192 
L 346.864754 -152.404154 
L 343.381526 -154.163167 
L 339.898299 -153.398528 
L 336.415071 -155.197827 
L 332.931844 -158.863373 
L 329.448616 -162.161448 
L 325.965389 -158.704621 
L 322.482161 -154.360749 
L 318.998934 -150.757634 
L 315.515706 -150.554483 
L 312.032479 -152.446157 
L 308.549251 -152.372579 
L 305.066023 -150.644647 
L 301.582796 -152.367315 
L 298.099568 -158.36649 
L 294.616341 -163.532489 
L 291.133113 -165.462503 
L 287.649886 -163.715581 
L 284.166658 -161.37331 
L 280.683431 -157.239558 
L 277.200203 -156.731289 
L 273.716976 -150.954736 
L 270.233748 -148.814598 
L 266.750521 -143.347116 
L 263.267293 -144.299882 
L 259.784066 -139.219351 
L 256.300838 -145.045559 
L 252.817611 -145.301805 
L 249.334383 -140.482588 
L 245.851156 -144.190639 
L 242.367928 -137.821119 
L 238.884701 -140.271292 
L 235.401473 -137.379286 
L 231.918246 -139.527888 
L 228.435018 -139.201019 
L 224.951791 -138.484907 
L 221.468563 -142.109625 
L 217.985336 -142.627623 
L 214.502108 -150.644038 
L 211.018881 -150.619846 
L 207.535653 -146.284747 
L 204.052426 -149.846053 
L 200.569198 -154.050729 
L 197.085971 -147.01104 
L 193.602743 -143.350626 
L 190.119516 -141.305479 
L 186.636288 -142.943372 
L 183.153061 -144.144285 
L 179.669833 -146.008405 
L 176.186605 -143.901075 
L 172.703378 -142.379415 
L 169.22015 -143.867627 
L 165.736923 -144.449448 
L 162.253695 -142.504158 
L 158.770468 -139.385544 
L 155.28724 -140.868852 
L 151.804013 -142.721563 
L 148.320785 -144.489311 
L 144.837558 -142.184229 
L 141.35433 -142.852495 
L 137.871103 -144.048044 
L 134.387875 -142.847548 
L 130.904648 -143.378126 
L 127.42142 -142.628515 
L 123.938193 -144.314808 
L 120.454965 -144.285003 
L 116.971738 -143.769402 
L 113.48851 -144.644267 
L 110.005283 -142.089393 
L 106.522055 -140.265452 
L 103.038828 -140.663079 
L 99.5556 -137.632609 
L 96.072373 -138.842952 
L 92.589145 -142.302808 
L 89.105918 -144.322317 
L 85.62269 -144.417246 
L 82.139463 -142.548684 
L 78.656235 -141.426211 
L 75.173008 -135.233837 
L 71.68978 -137.498323 
L 68.206553 -139.356995 
L 64.723325 -143.569078 
L 61.240098 -141.581939 
L 57.75687 -139.334776 
L 54.273643 -136.268047 
L 50.790415 -131.452008 
L 47.307188 -129.362842 
z
" style="stroke: #808080; stroke-opacity: 0.7"/>
    </defs>
    <g clip-path="url(#p9e7c839c52)">
     <use xlink:href="#m59605641ba" x="0" y="424.5775" style="fill: #808080; fill-opacity: 0.7; stroke: #808080; stroke-opacity: 0.7"/>
    </g>
   </g>
   <g id="line2d_31">
    <path d="M 47.307188 355.610226 
L 50.790415 356.074738 
L 54.273643 353.111152 
L 57.75687 343.923366 
L 61.240098 356.405299 
L 64.723325 355.384818 
L 68.206553 357.848763 
L 71.68978 363.294577 
L 75.173008 358.358388 
L 78.656235 354.335167 
L 82.139463 357.534049 
L 85.62269 355.864781 
L 89.105918 356.768653 
L 92.589145 355.074392 
L 96.072373 354.779078 
L 99.5556 359.404537 
L 103.038828 356.642956 
L 106.522055 360.459592 
L 113.48851 352.560534 
L 116.971738 359.107571 
L 120.454965 362.671211 
L 123.938193 361.183184 
L 127.42142 359.991798 
L 130.904648 363.852021 
L 134.387875 360.177731 
L 137.871103 357.347356 
L 141.35433 359.893756 
L 144.837558 358.89663 
L 148.320785 356.197029 
L 151.804013 348.996753 
L 155.28724 358.201349 
L 158.770468 358.085097 
L 162.253695 351.887412 
L 165.736923 356.049377 
L 169.22015 358.758096 
L 172.703378 361.704879 
L 176.186605 362.056696 
L 179.669833 362.558253 
L 183.153061 361.438771 
L 186.636288 362.500185 
L 190.119516 362.140149 
L 193.602743 363.598756 
L 197.085971 359.191041 
L 200.569198 361.096695 
L 204.052426 356.345279 
L 207.535653 349.382036 
L 211.018881 346.821645 
L 214.502108 318.158606 
L 217.985336 345.186855 
L 221.468563 355.187738 
L 224.951791 354.041083 
L 228.435018 357.440341 
L 231.918246 350.260412 
L 235.401473 340.857091 
L 238.884701 342.470582 
L 242.367928 345.618456 
L 245.851156 342.834422 
L 249.334383 348.798061 
L 252.817611 338.58943 
L 256.300838 339.321861 
L 259.784066 343.647475 
L 263.267293 344.061268 
L 266.750521 351.308305 
L 270.233748 351.60142 
L 273.716976 350.839015 
L 277.200203 356.001059 
L 280.683431 343.818161 
L 284.166658 340.635569 
L 287.649886 343.311429 
L 291.133113 348.786805 
L 294.616341 349.647356 
L 298.099568 341.052352 
L 301.582796 334.841315 
L 305.066023 339.60511 
L 308.549251 331.716862 
L 312.032479 336.559996 
L 315.515706 321.180594 
L 318.998934 320.521487 
L 322.482161 331.144998 
L 325.965389 325.865427 
L 329.448616 338.56523 
L 332.931844 340.161626 
L 336.415071 340.053468 
L 339.898299 346.311915 
L 343.381526 340.408582 
L 346.864754 342.404434 
L 350.347981 337.483674 
L 353.831209 339.275558 
L 357.314436 335.665269 
L 360.797664 303.038898 
L 364.280891 333.583337 
L 367.764119 339.347736 
L 371.247346 331.046847 
L 374.730574 336.388085 
L 381.697029 340.112733 
L 385.180256 346.131096 
L 388.663484 328.545082 
L 392.146711 347.383029 
L 395.629939 342.673394 
L 399.113166 346.163817 
L 402.596394 341.029228 
L 406.079621 331.409623 
L 409.562849 343.508031 
L 413.046076 334.248671 
L 416.529304 340.527334 
L 420.012531 323.58851 
L 423.495759 317.479749 
L 426.978986 339.827462 
L 430.462214 326.290253 
L 433.945441 307.131608 
L 437.428669 335.888503 
L 440.911896 338.86193 
L 444.395124 351.664558 
L 447.878352 349.745981 
L 451.361579 334.360448 
L 454.844807 321.695968 
L 458.328034 347.201271 
L 461.811262 348.20218 
L 465.294489 343.202111 
L 468.777717 321.8307 
L 472.260944 309.24583 
L 475.744172 300.331665 
L 479.227399 293.672947 
L 482.710627 300.118225 
L 486.193854 297.025173 
L 489.677082 324.258525 
L 493.160309 321.309676 
L 496.643537 321.274983 
L 500.126764 316.340318 
L 503.609992 328.952839 
L 507.093219 314.762327 
L 510.576447 315.690403 
L 514.059674 326.853372 
L 517.542902 327.795393 
L 521.026129 311.208572 
L 524.509357 308.247325 
L 527.992584 297.881444 
L 531.475812 282.929945 
L 534.959039 303.351748 
L 541.925494 329.742232 
L 545.408722 309.003571 
L 548.891949 316.867133 
L 552.375177 322.269392 
L 555.858404 325.548447 
L 559.341632 320.34002 
L 562.824859 312.641967 
L 566.308087 318.62875 
L 569.791314 325.773634 
L 573.274542 331.492675 
L 576.75777 332.959449 
L 580.240997 324.2147 
L 583.724225 325.025149 
L 587.207452 305.522475 
L 590.69068 304.398969 
L 594.173907 299.309662 
L 597.657135 292.044584 
L 601.140362 299.323822 
L 604.62359 302.36305 
L 608.106817 318.379142 
L 611.590045 286.226207 
L 615.073272 323.536992 
L 618.5565 301.830568 
L 622.039727 325.142055 
L 625.522955 288.204875 
L 629.006182 285.712153 
L 632.48941 289.215559 
L 635.972637 297.748829 
L 639.455865 320.877527 
L 642.939092 308.749481 
L 646.42232 330.206152 
L 649.905547 323.349279 
L 653.388775 285.490512 
L 656.872002 275.485419 
L 660.35523 273.930772 
L 663.838457 282.865774 
L 667.321685 278.913014 
L 670.804912 295.689907 
L 674.28814 295.651274 
L 677.771367 291.332895 
L 681.254595 312.301253 
L 684.737822 297.517702 
L 688.22105 308.899123 
L 691.704277 299.718778 
L 695.187505 310.935236 
L 698.670732 322.609317 
L 702.15396 323.80094 
L 705.637188 298.763658 
L 705.637188 298.763658 
" clip-path="url(#p9e7c839c52)" style="fill: none; stroke: #ff8c00; stroke-width: 2.3; stroke-linecap: square"/>
   </g>
   <g id="line2d_32">
    <path d="M 277.200203 384.117812 
L 277.200203 23.837812 
" clip-path="url(#p9e7c839c52)" style="fill: none; stroke-dasharray: 5.55,2.4; stroke-dashoffset: 0; stroke: #808080; stroke-width: 1.5"/>
   </g>
   <g id="line2d_33">
    <path d="M 475.744172 384.117812 
L 475.744172 23.837812 
" clip-path="url(#p9e7c839c52)" style="fill: none; stroke-dasharray: 5.55,2.4; stroke-dashoffset: 0; stroke: #808080; stroke-width: 1.5"/>
   </g>
   <g id="patch_3">
    <path d="M 47.307188 384.117812 
L 47.307188 23.837812 
" style="fill: none; stroke: #000000; stroke-width: 0.8; stroke-linejoin: miter; stroke-linecap: square"/>
   </g>
   <g id="patch_4">
    <path d="M 705.637188 384.117812 
L 705.637188 23.837812 
" style="fill: none; stroke: #000000; stroke-width: 0.8; stroke-linejoin: miter; stroke-linecap: square"/>
   </g>
   <g id="patch_5">
    <path d="M 47.307188 384.117812 
L 705.637188 384.117812 
" style="fill: none; stroke: #000000; stroke-width: 0.8; stroke-linejoin: miter; stroke-linecap: square"/>
   </g>
   <g id="patch_6">
    <path d="M 47.307188 23.837812 
L 705.637188 23.837812 
" style="fill: none; stroke: #000000; stroke-width: 0.8; stroke-linejoin: miter; stroke-linecap: square"/>
   </g>
   <g id="text_18">
    <!-- Facial trace: Control group (male) -->
    <g transform="translate(258.993594 17.837812) scale(0.14 -0.14)">
     <defs>
      <path id="DejaVuSans-46" d="M 628 4666 
L 3309 4666 
L 3309 4134 
L 1259 4134 
L 1259 2759 
L 3109 2759 
L 3109 2228 
L 1259 2228 
L 1259 0 
L 628 0 
L 628 4666 
z
" transform="scale(0.015625)"/>
      <path id="DejaVuSans-63" d="M 3122 3366 
L 3122 2828 
Q 2878 2963 2633 3030 
Q 2388 3097 2138 3097 
Q 1578 3097 1268 2742 
Q 959 2388 959 1747 
Q 959 1106 1268 751 
Q 1578 397 2138 397 
Q 2388 397 2633 464 
Q 2878 531 3122 666 
L 3122 134 
Q 2881 22 2623 -34 
Q 2366 -91 2075 -91 
Q 1284 -91 818 406 
Q 353 903 353 1747 
Q 353 2603 823 3093 
Q 1294 3584 2113 3584 
Q 2378 3584 2631 3529 
Q 2884 3475 3122 3366 
z
" transform="scale(0.015625)"/>
      <path id="DejaVuSans-6c" d="M 603 4863 
L 1178 4863 
L 1178 0 
L 603 0 
L 603 4863 
z
" transform="scale(0.015625)"/>
      <path id="DejaVuSans-72" d="M 2631 2963 
Q 2534 3019 2420 3045 
Q 2306 3072 2169 3072 
Q 1681 3072 1420 2755 
Q 1159 2438 1159 1844 
L 1159 0 
L 581 0 
L 581 3500 
L 1159 3500 
L 1159 2956 
Q 1341 3275 1631 3429 
Q 1922 3584 2338 3584 
Q 2397 3584 2469 3576 
Q 2541 3569 2628 3553 
L 2631 2963 
z
" transform="scale(0.015625)"/>
      <path id="DejaVuSans-3a" d="M 750 794 
L 1409 794 
L 1409 0 
L 750 0 
L 750 794 
z
M 750 3309 
L 1409 3309 
L 1409 2516 
L 750 2516 
L 750 3309 
z
" transform="scale(0.015625)"/>
      <path id="DejaVuSans-43" d="M 4122 4306 
L 4122 3641 
Q 3803 3938 3442 4084 
Q 3081 4231 2675 4231 
Q 1875 4231 1450 3742 
Q 1025 3253 1025 2328 
Q 1025 1406 1450 917 
Q 1875 428 2675 428 
Q 3081 428 3442 575 
Q 3803 722 4122 1019 
L 4122 359 
Q 3791 134 3420 21 
Q 3050 -91 2638 -91 
Q 1578 -91 968 557 
Q 359 1206 359 2328 
Q 359 3453 968 4101 
Q 1578 4750 2638 4750 
Q 3056 4750 3426 4639 
Q 3797 4528 4122 4306 
z
" transform="scale(0.015625)"/>
      <path id="DejaVuSans-6f" d="M 1959 3097 
Q 1497 3097 1228 2736 
Q 959 2375 959 1747 
Q 959 1119 1226 758 
Q 1494 397 1959 397 
Q 2419 397 2687 759 
Q 2956 1122 2956 1747 
Q 2956 2369 2687 2733 
Q 2419 3097 1959 3097 
z
M 1959 3584 
Q 2709 3584 3137 3096 
Q 3566 2609 3566 1747 
Q 3566 888 3137 398 
Q 2709 -91 1959 -91 
Q 1206 -91 779 398 
Q 353 888 353 1747 
Q 353 2609 779 3096 
Q 1206 3584 1959 3584 
z
" transform="scale(0.015625)"/>
      <path id="DejaVuSans-67" d="M 2906 1791 
Q 2906 2416 2648 2759 
Q 2391 3103 1925 3103 
Q 1463 3103 1205 2759 
Q 947 2416 947 1791 
Q 947 1169 1205 825 
Q 1463 481 1925 481 
Q 2391 481 2648 825 
Q 2906 1169 2906 1791 
z
M 3481 434 
Q 3481 -459 3084 -895 
Q 2688 -1331 1869 -1331 
Q 1566 -1331 1297 -1286 
Q 1028 -1241 775 -1147 
L 775 -588 
Q 1028 -725 1275 -790 
Q 1522 -856 1778 -856 
Q 2344 -856 2625 -561 
Q 2906 -266 2906 331 
L 2906 616 
Q 2728 306 2450 153 
Q 2172 0 1784 0 
Q 1141 0 747 490 
Q 353 981 353 1791 
Q 353 2603 747 3093 
Q 1141 3584 1784 3584 
Q 2172 3584 2450 3431 
Q 2728 3278 2906 2969 
L 2906 3500 
L 3481 3500 
L 3481 434 
z
" transform="scale(0.015625)"/>
      <path id="DejaVuSans-75" d="M 544 1381 
L 544 3500 
L 1119 3500 
L 1119 1403 
Q 1119 906 1312 657 
Q 1506 409 1894 409 
Q 2359 409 2629 706 
Q 2900 1003 2900 1516 
L 2900 3500 
L 3475 3500 
L 3475 0 
L 2900 0 
L 2900 538 
Q 2691 219 2414 64 
Q 2138 -91 1772 -91 
Q 1169 -91 856 284 
Q 544 659 544 1381 
z
M 1991 3584 
L 1991 3584 
z
" transform="scale(0.015625)"/>
      <path id="DejaVuSans-70" d="M 1159 525 
L 1159 -1331 
L 581 -1331 
L 581 3500 
L 1159 3500 
L 1159 2969 
Q 1341 3281 1617 3432 
Q 1894 3584 2278 3584 
Q 2916 3584 3314 3078 
Q 3713 2572 3713 1747 
Q 3713 922 3314 415 
Q 2916 -91 2278 -91 
Q 1894 -91 1617 61 
Q 1341 213 1159 525 
z
M 3116 1747 
Q 3116 2381 2855 2742 
Q 2594 3103 2138 3103 
Q 1681 3103 1420 2742 
Q 1159 2381 1159 1747 
Q 1159 1113 1420 752 
Q 1681 391 2138 391 
Q 2594 391 2855 752 
Q 3116 1113 3116 1747 
z
" transform="scale(0.015625)"/>
     </defs>
     <use xlink:href="#DejaVuSans-46"/>
     <use xlink:href="#DejaVuSans-61" transform="translate(48.394531 0)"/>
     <use xlink:href="#DejaVuSans-63" transform="translate(109.673828 0)"/>
     <use xlink:href="#DejaVuSans-69" transform="translate(164.654297 0)"/>
     <use xlink:href="#DejaVuSans-61" transform="translate(192.4375 0)"/>
     <use xlink:href="#DejaVuSans-6c" transform="translate(253.716797 0)"/>
     <use xlink:href="#DejaVuSans-20" transform="translate(281.5 0)"/>
     <use xlink:href="#DejaVuSans-74" transform="translate(313.287109 0)"/>
     <use xlink:href="#DejaVuSans-72" transform="translate(352.496094 0)"/>
     <use xlink:href="#DejaVuSans-61" transform="translate(393.609375 0)"/>
     <use xlink:href="#DejaVuSans-63" transform="translate(454.888672 0)"/>
     <use xlink:href="#DejaVuSans-65" transform="translate(509.869141 0)"/>
     <use xlink:href="#DejaVuSans-3a" transform="translate(571.392578 0)"/>
     <use xlink:href="#DejaVuSans-20" transform="translate(605.083984 0)"/>
     <use xlink:href="#DejaVuSans-43" transform="translate(636.871094 0)"/>
     <use xlink:href="#DejaVuSans-6f" transform="translate(706.695312 0)"/>
     <use xlink:href="#DejaVuSans-6e" transform="translate(767.876953 0)"/>
     <use xlink:href="#DejaVuSans-74" transform="translate(831.255859 0)"/>
     <use xlink:href="#DejaVuSans-72" transform="translate(870.464844 0)"/>
     <use xlink:href="#DejaVuSans-6f" transform="translate(909.328125 0)"/>
     <use xlink:href="#DejaVuSans-6c" transform="translate(970.509766 0)"/>
     <use xlink:href="#DejaVuSans-20" transform="translate(998.292969 0)"/>
     <use xlink:href="#DejaVuSans-67" transform="translate(1030.080078 0)"/>
     <use xlink:href="#DejaVuSans-72" transform="translate(1093.556641 0)"/>
     <use xlink:href="#DejaVuSans-6f" transform="translate(1132.419922 0)"/>
     <use xlink:href="#DejaVuSans-75" transform="translate(1193.601562 0)"/>
     <use xlink:href="#DejaVuSans-70" transform="translate(1256.980469 0)"/>
     <use xlink:href="#DejaVuSans-20" transform="translate(1320.457031 0)"/>
     <use xlink:href="#DejaVuSans-28" transform="translate(1352.244141 0)"/>
     <use xlink:href="#DejaVuSans-6d" transform="translate(1391.257812 0)"/>
     <use xlink:href="#DejaVuSans-61" transform="translate(1488.669922 0)"/>
     <use xlink:href="#DejaVuSans-6c" transform="translate(1549.949219 0)"/>
     <use xlink:href="#DejaVuSans-65" transform="translate(1577.732422 0)"/>
     <use xlink:href="#DejaVuSans-29" transform="translate(1639.255859 0)"/>
    </g>
   </g>
   <g id="legend_1">
    <g id="patch_7">
     <path d="M 551.080313 42.096094 
L 573.080313 42.096094 
L 573.080313 34.396094 
L 551.080313 34.396094 
z
" style="fill: #d3d3d3; fill-opacity: 0.5; stroke: #d3d3d3; stroke-opacity: 0.5; stroke-linejoin: miter"/>
    </g>
    <g id="text_19">
     <!-- Control group ±2 SD -->
     <g transform="translate(581.880313 42.096094) scale(0.11 -0.11)">
      <defs>
       <path id="DejaVuSans-b1" d="M 2944 4013 
L 2944 2803 
L 4684 2803 
L 4684 2272 
L 2944 2272 
L 2944 1063 
L 2419 1063 
L 2419 2272 
L 678 2272 
L 678 2803 
L 2419 2803 
L 2419 4013 
L 2944 4013 
z
M 678 531 
L 4684 531 
L 4684 0 
L 678 0 
L 678 531 
z
" transform="scale(0.015625)"/>
       <path id="DejaVuSans-53" d="M 3425 4513 
L 3425 3897 
Q 3066 4069 2747 4153 
Q 2428 4238 2131 4238 
Q 1616 4238 1336 4038 
Q 1056 3838 1056 3469 
Q 1056 3159 1242 3001 
Q 1428 2844 1947 2747 
L 2328 2669 
Q 3034 2534 3370 2195 
Q 3706 1856 3706 1288 
Q 3706 609 3251 259 
Q 2797 -91 1919 -91 
Q 1588 -91 1214 -16 
Q 841 59 441 206 
L 441 856 
Q 825 641 1194 531 
Q 1563 422 1919 422 
Q 2459 422 2753 634 
Q 3047 847 3047 1241 
Q 3047 1584 2836 1778 
Q 2625 1972 2144 2069 
L 1759 2144 
Q 1053 2284 737 2584 
Q 422 2884 422 3419 
Q 422 4038 858 4394 
Q 1294 4750 2059 4750 
Q 2388 4750 2728 4690 
Q 3069 4631 3425 4513 
z
" transform="scale(0.015625)"/>
       <path id="DejaVuSans-44" d="M 1259 4147 
L 1259 519 
L 2022 519 
Q 2988 519 3436 956 
Q 3884 1394 3884 2338 
Q 3884 3275 3436 3711 
Q 2988 4147 2022 4147 
L 1259 4147 
z
M 628 4666 
L 1925 4666 
Q 3281 4666 3915 4102 
Q 4550 3538 4550 2338 
Q 4550 1131 3912 565 
Q 3275 0 1925 0 
L 628 0 
L 628 4666 
z
" transform="scale(0.015625)"/>
      </defs>
      <use xlink:href="#DejaVuSans-43"/>
      <use xlink:href="#DejaVuSans-6f" transform="translate(69.824219 0)"/>
      <use xlink:href="#DejaVuSans-6e" transform="translate(131.005859 0)"/>
      <use xlink:href="#DejaVuSans-74" transform="translate(194.384766 0)"/>
      <use xlink:href="#DejaVuSans-72" transform="translate(233.59375 0)"/>
      <use xlink:href="#DejaVuSans-6f" transform="translate(272.457031 0)"/>
      <use xlink:href="#DejaVuSans-6c" transform="translate(333.638672 0)"/>
      <use xlink:href="#DejaVuSans-20" transform="translate(361.421875 0)"/>
      <use xlink:href="#DejaVuSans-67" transform="translate(393.208984 0)"/>
      <use xlink:href="#DejaVuSans-72" transform="translate(456.685547 0)"/>
      <use xlink:href="#DejaVuSans-6f" transform="translate(495.548828 0)"/>
      <use xlink:href="#DejaVuSans-75" transform="translate(556.730469 0)"/>
      <use xlink:href="#DejaVuSans-70" transform="translate(620.109375 0)"/>
      <use xlink:href="#DejaVuSans-20" transform="translate(683.585938 0)"/>
      <use xlink:href="#DejaVuSans-b1" transform="translate(715.373047 0)"/>
      <use xlink:href="#DejaVuSans-32" transform="translate(799.162109 0)"/>
      <use xlink:href="#DejaVuSans-20" transform="translate(862.785156 0)"/>
      <use xlink:href="#DejaVuSans-53" transform="translate(894.572266 0)"/>
      <use xlink:href="#DejaVuSans-44" transform="translate(958.048828 0)"/>
     </g>
    </g>
    <g id="patch_8">
     <path d="M 551.080313 58.242031 
L 573.080313 58.242031 
L 573.080313 50.542031 
L 551.080313 50.542031 
z
" style="fill: #808080; fill-opacity: 0.7; stroke: #808080; stroke-opacity: 0.7; stroke-linejoin: miter"/>
    </g>
    <g id="text_20">
     <!-- Control group ±1 SD -->
     <g transform="translate(581.880313 58.242031) scale(0.11 -0.11)">
      <use xlink:href="#DejaVuSans-43"/>
      <use xlink:href="#DejaVuSans-6f" transform="translate(69.824219 0)"/>
      <use xlink:href="#DejaVuSans-6e" transform="translate(131.005859 0)"/>
      <use xlink:href="#DejaVuSans-74" transform="translate(194.384766 0)"/>
      <use xlink:href="#DejaVuSans-72" transform="translate(233.59375 0)"/>
      <use xlink:href="#DejaVuSans-6f" transform="translate(272.457031 0)"/>
      <use xlink:href="#DejaVuSans-6c" transform="translate(333.638672 0)"/>
      <use xlink:href="#DejaVuSans-20" transform="translate(361.421875 0)"/>
      <use xlink:href="#DejaVuSans-67" transform="translate(393.208984 0)"/>
      <use xlink:href="#DejaVuSans-72" transform="translate(456.685547 0)"/>
      <use xlink:href="#DejaVuSans-6f" transform="translate(495.548828 0)"/>
      <use xlink:href="#DejaVuSans-75" transform="translate(556.730469 0)"/>
      <use xlink:href="#DejaVuSans-70" transform="translate(620.109375 0)"/>
      <use xlink:href="#DejaVuSans-20" transform="translate(683.585938 0)"/>
      <use xlink:href="#DejaVuSans-b1" transform="translate(715.373047 0)"/>
      <use xlink:href="#DejaVuSans-31" transform="translate(799.162109 0)"/>
      <use xlink:href="#DejaVuSans-20" transform="translate(862.785156 0)"/>
      <use xlink:href="#DejaVuSans-53" transform="translate(894.572266 0)"/>
      <use xlink:href="#DejaVuSans-44" transform="translate(958.048828 0)"/>
     </g>
    </g>
    <g id="line2d_34">
     <path d="M 551.080313 70.537969 
L 562.080313 70.537969 
L 573.080313 70.537969 
" style="fill: none; stroke: #ff8c00; stroke-width: 2.3; stroke-linecap: square"/>
    </g>
    <g id="text_21">
     <!-- Patient -->
     <g transform="translate(581.880313 74.387969) scale(0.11 -0.11)">
      <defs>
       <path id="DejaVuSans-50" d="M 1259 4147 
L 1259 2394 
L 2053 2394 
Q 2494 2394 2734 2622 
Q 2975 2850 2975 3272 
Q 2975 3691 2734 3919 
Q 2494 4147 2053 4147 
L 1259 4147 
z
M 628 4666 
L 2053 4666 
Q 2838 4666 3239 4311 
Q 3641 3956 3641 3272 
Q 3641 2581 3239 2228 
Q 2838 1875 2053 1875 
L 1259 1875 
L 1259 0 
L 628 0 
L 628 4666 
z
" transform="scale(0.015625)"/>
      </defs>
      <use xlink:href="#DejaVuSans-50"/>
      <use xlink:href="#DejaVuSans-61" transform="translate(55.802734 0)"/>
      <use xlink:href="#DejaVuSans-74" transform="translate(117.082031 0)"/>
      <use xlink:href="#DejaVuSans-69" transform="translate(156.291016 0)"/>
      <use xlink:href="#DejaVuSans-65" transform="translate(184.074219 0)"/>
      <use xlink:href="#DejaVuSans-6e" transform="translate(245.597656 0)"/>
      <use xlink:href="#DejaVuSans-74" transform="translate(308.976562 0)"/>
     </g>
    </g>
   </g>
  </g>
 </g>
 <defs>
  <clipPath id="p9e7c839c52">
   <rect x="47.307188" y="23.837812" width="658.33" height="360.28"/>
  </clipPath>
 </defs>
</svg>
