<?xml version="1.0" encoding="utf-8" standalone="no"?>
<!DOCTYPE svg PUBLIC "-//W3C//DTD SVG 1.1//EN"
  "http://www.w3.org/Graphics/SVG/1.1/DTD/svg11.dtd">
<svg xmlns:xlink="http://www.w3.org/1999/xlink" width="712.837188pt" height="424.5775pt" viewBox="0 0 712.837188 424.5775" xmlns="http://www.w3.org/2000/svg" version="1.1">
 <metadata>
  <rdf:RDF xmlns:dc="http://purl.org/dc/elements/1.1/" xmlns:cc="http://creativecommons.org/ns#" xmlns:rdf="http://www.w3.org/1999/02/22-rdf-syntax-ns#">
   <cc:Work>
    <dc:type rdf:resource="http://purl.org/dc/dcmitype/StillImage"/>
    <dc:date>2026-06-14T18:57:52.353458</dc:date>
    <dc:format>image/svg+xml</dc:format>
    <dc:creator>
     <cc:Agent>
      <dc:title>Matplotlib v3.10.1, https://matplotlib.org/</dc:title>
     </cc:Agent>
    </dc:creator>
   </cc:Work>
  </rdf:RDF>
 </metadata>
 <defs>
  <style type="text/css">*{stroke-linejoin: round; stroke-linecap: butt}</style>
 </defs>
 <g id="figure_1">
  <g id="patch_1">
   <path d="M 0 424.5775 
L 712.837188 424.5775 
L 712.837188 0 
L 0 0 
z
" style="fill: #ffffff"/>
  </g>
  <g id="axes_1">
   <g id="patch_2">
    <path d="M 47.307188 384.117812 
L 705.637188 384.117812 
L 705.637188 23.837812 
L 47.307188 23.837812 
z
" style="fill: #ffffff"/>
   </g>
   <g id="matplotlib.axis_1">
    <g id="xtick_1">
     <g id="line2d_1">
      <path d="M 47.307188 384.117812 
L 47.307188 23.837812 
" clip-path="url(#p32b8b5b3da)" style="fill: none; stroke: #b0b0b0; stroke-opacity: 0.2; stroke-width: 0.6; stroke-linecap: square"/>
     </g>
     <g id="line2d_2">
      <defs>
       <path id="m4837325040" d="M 0 0 
L 0 3.5 
" style="stroke: #000000; stroke-width: 0.8"/>
      </defs>
      <g>
       <use xlink:href="#m4837325040" x="47.307188" y="384.117812" style="stroke: #000000; stroke-width: 0.8"/>
      </g>
     </g>
     <g id="text_1">
      <!-- 0 -->
      <g transform="translate(43.807813 399.476094) scale(0.11 -0.11)">
       <defs>
        <path id="DejaVuSans-30" d="M 2034 4250 
Q 1547 4250 1301 3770 
Q 1056 3291 1056 2328 
Q 1056 1369 1301 889 
Q 1547 409 2034 409 
Q 2525 409 2770 889 
Q 3016 1369 3016 2328 
Q 3016 3291 2770 3770 
Q 2525 4250 2034 4250 
z
M 2034 4750 
Q 2819 4750 3233 4129 
Q 3647 3509 3647 2328 
Q 3647 1150 3233 529 
Q 2819 -91 2034 -91 
Q 1250 -91 836 529 
Q 422 1150 422 2328 
Q 422 3509 836 4129 
Q 1250 4750 2034 4750 
z
" transform="scale(0.015625)"/>
       </defs>
       <use xlink:href="#DejaVuSans-30"/>
      </g>
     </g>
    </g>
    <g id="xtick_2">
     <g id="line2d_3">
      <path d="M 134.387875 384.117812 
L 134.387875 23.837812 
" clip-path="url(#p32b8b5b3da)" style="fill: none; stroke: #b0b0b0; stroke-opacity: 0.2; stroke-width: 0.6; stroke-linecap: square"/>
     </g>
     <g id="line2d_4">
      <g>
       <use xlink:href="#m4837325040" x="134.387875" y="384.117812" style="stroke: #000000; stroke-width: 0.8"/>
      </g>
     </g>
     <g id="text_2">
      <!-- 25 -->
      <g transform="translate(127.389125 399.476094) scale(0.11 -0.11)">
       <defs>
        <path id="DejaVuSans-32" d="M 1228 531 
L 3431 531 
L 3431 0 
L 469 0 
L 469 531 
Q 828 903 1448 1529 
Q 2069 2156 2228 2338 
Q 2531 2678 2651 2914 
Q 2772 3150 2772 3378 
Q 2772 3750 2511 3984 
Q 2250 4219 1831 4219 
Q 1534 4219 1204 4116 
Q 875 4013 500 3803 
L 500 4441 
Q 881 4594 1212 4672 
Q 1544 4750 1819 4750 
Q 2544 4750 2975 4387 
Q 3406 4025 3406 3419 
Q 3406 3131 3298 2873 
Q 3191 2616 2906 2266 
Q 2828 2175 2409 1742 
Q 1991 1309 1228 531 
z
" transform="scale(0.015625)"/>
        <path id="DejaVuSans-35" d="M 691 4666 
L 3169 4666 
L 3169 4134 
L 1269 4134 
L 1269 2991 
Q 1406 3038 1543 3061 
Q 1681 3084 1819 3084 
Q 2600 3084 3056 2656 
Q 3513 2228 3513 1497 
Q 3513 744 3044 326 
Q 2575 -91 1722 -91 
Q 1428 -91 1123 -41 
Q 819 9 494 109 
L 494 744 
Q 775 591 1075 516 
Q 1375 441 1709 441 
Q 2250 441 2565 725 
Q 2881 1009 2881 1497 
Q 2881 1984 2565 2268 
Q 2250 2553 1709 2553 
Q 1456 2553 1204 2497 
Q 953 2441 691 2322 
L 691 4666 
z
" transform="scale(0.015625)"/>
       </defs>
       <use xlink:href="#DejaVuSans-32"/>
       <use xlink:href="#DejaVuSans-35" transform="translate(63.623047 0)"/>
      </g>
     </g>
    </g>
    <g id="xtick_3">
     <g id="line2d_5">
      <path d="M 221.468563 384.117812 
L 221.468563 23.837812 
" clip-path="url(#p32b8b5b3da)" style="fill: none; stroke: #b0b0b0; stroke-opacity: 0.2; stroke-width: 0.6; stroke-linecap: square"/>
     </g>
     <g id="line2d_6">
      <g>
       <use xlink:href="#m4837325040" x="221.468563" y="384.117812" style="stroke: #000000; stroke-width: 0.8"/>
      </g>
     </g>
     <g id="text_3">
      <!-- 50 -->
      <g transform="translate(214.469813 399.476094) scale(0.11 -0.11)">
       <use xlink:href="#DejaVuSans-35"/>
       <use xlink:href="#DejaVuSans-30" transform="translate(63.623047 0)"/>
      </g>
     </g>
    </g>
    <g id="xtick_4">
     <g id="line2d_7">
      <path d="M 308.549251 384.117812 
L 308.549251 23.837812 
" clip-path="url(#p32b8b5b3da)" style="fill: none; stroke: #b0b0b0; stroke-opacity: 0.2; stroke-width: 0.6; stroke-linecap: square"/>
     </g>
     <g id="line2d_8">
      <g>
       <use xlink:href="#m4837325040" x="308.549251" y="384.117812" style="stroke: #000000; stroke-width: 0.8"/>
      </g>
     </g>
     <g id="text_4">
      <!-- 75 -->
      <g transform="translate(301.550501 399.476094) scale(0.11 -0.11)">
       <defs>
        <path id="DejaVuSans-37" d="M 525 4666 
L 3525 4666 
L 3525 4397 
L 1831 0 
L 1172 0 
L 2766 4134 
L 525 4134 
L 525 4666 
z
" transform="scale(0.015625)"/>
       </defs>
       <use xlink:href="#DejaVuSans-37"/>
       <use xlink:href="#DejaVuSans-35" transform="translate(63.623047 0)"/>
      </g>
     </g>
    </g>
    <g id="xtick_5">
     <g id="line2d_9">
      <path d="M 395.629939 384.117812 
L 395.629939 23.837812 
" clip-path="url(#p32b8b5b3da)" style="fill: none; stroke: #b0b0b0; stroke-opacity: 0.2; stroke-width: 0.6; stroke-linecap: square"/>
     </g>
     <g id="line2d_10">
      <g>
       <use xlink:href="#m4837325040" x="395.629939" y="384.117812" style="stroke: #000000; stroke-width: 0.8"/>
      </g>
     </g>
     <g id="text_5">
      <!-- 100 -->
      <g transform="translate(385.131814 399.476094) scale(0.11 -0.11)">
       <defs>
        <path id="DejaVuSans-31" d="M 794 531 
L 1825 531 
L 1825 4091 
L 703 3866 
L 703 4441 
L 1819 4666 
L 2450 4666 
L 2450 531 
L 3481 531 
L 3481 0 
L 794 0 
L 794 531 
z
" transform="scale(0.015625)"/>
       </defs>
       <use xlink:href="#DejaVuSans-31"/>
       <use xlink:href="#DejaVuSans-30" transform="translate(63.623047 0)"/>
       <use xlink:href="#DejaVuSans-30" transform="translate(127.246094 0)"/>
      </g>
     </g>
    </g>
    <g id="xtick_6">
     <g id="line2d_11">
      <path d="M 482.710627 384.117812 
L 482.710627 23.837812 
" clip-path="url(#p32b8b5b3da)" style="fill: none; stroke: #b0b0b0; stroke-opacity: 0.2; stroke-width: 0.6; stroke-linecap: square"/>
     </g>
     <g id="line2d_12">
      <g>
       <use xlink:href="#m4837325040" x="482.710627" y="384.117812" style="stroke: #000000; stroke-width: 0.8"/>
      </g>
     </g>
     <g id="text_6">
      <!-- 125 -->
      <g transform="translate(472.212502 399.476094) scale(0.11 -0.11)">
       <use xlink:href="#DejaVuSans-31"/>
       <use xlink:href="#DejaVuSans-32" transform="translate(63.623047 0)"/>
       <use xlink:href="#DejaVuSans-35" transform="translate(127.246094 0)"/>
      </g>
     </g>
    </g>
    <g id="xtick_7">
     <g id="line2d_13">
      <path d="M 569.791314 384.117812 
L 569.791314 23.837812 
" clip-path="url(#p32b8b5b3da)" style="fill: none; stroke: #b0b0b0; stroke-opacity: 0.2; stroke-width: 0.6; stroke-linecap: square"/>
     </g>
     <g id="line2d_14">
      <g>
       <use xlink:href="#m4837325040" x="569.791314" y="384.117812" style="stroke: #000000; stroke-width: 0.8"/>
      </g>
     </g>
     <g id="text_7">
      <!-- 150 -->
      <g transform="translate(559.293189 399.476094) scale(0.11 -0.11)">
       <use xlink:href="#DejaVuSans-31"/>
       <use xlink:href="#DejaVuSans-35" transform="translate(63.623047 0)"/>
       <use xlink:href="#DejaVuSans-30" transform="translate(127.246094 0)"/>
      </g>
     </g>
    </g>
    <g id="xtick_8">
     <g id="line2d_15">
      <path d="M 656.872002 384.117812 
L 656.872002 23.837812 
" clip-path="url(#p32b8b5b3da)" style="fill: none; stroke: #b0b0b0; stroke-opacity: 0.2; stroke-width: 0.6; stroke-linecap: square"/>
     </g>
     <g id="line2d_16">
      <g>
       <use xlink:href="#m4837325040" x="656.872002" y="384.117812" style="stroke: #000000; stroke-width: 0.8"/>
      </g>
     </g>
     <g id="text_8">
      <!-- 175 -->
      <g transform="translate(646.373877 399.476094) scale(0.11 -0.11)">
       <use xlink:href="#DejaVuSans-31"/>
       <use xlink:href="#DejaVuSans-37" transform="translate(63.623047 0)"/>
       <use xlink:href="#DejaVuSans-35" transform="translate(127.246094 0)"/>
      </g>
     </g>
    </g>
    <g id="text_9">
     <!-- Time (s) -->
     <g transform="translate(352.0775 414.881875) scale(0.12 -0.12)">
      <defs>
       <path id="DejaVuSans-54" d="M -19 4666 
L 3928 4666 
L 3928 4134 
L 2272 4134 
L 2272 0 
L 1638 0 
L 1638 4134 
L -19 4134 
L -19 4666 
z
" transform="scale(0.015625)"/>
       <path id="DejaVuSans-69" d="M 603 3500 
L 1178 3500 
L 1178 0 
L 603 0 
L 603 3500 
z
M 603 4863 
L 1178 4863 
L 1178 4134 
L 603 4134 
L 603 4863 
z
" transform="scale(0.015625)"/>
       <path id="DejaVuSans-6d" d="M 3328 2828 
Q 3544 3216 3844 3400 
Q 4144 3584 4550 3584 
Q 5097 3584 5394 3201 
Q 5691 2819 5691 2113 
L 5691 0 
L 5113 0 
L 5113 2094 
Q 5113 2597 4934 2840 
Q 4756 3084 4391 3084 
Q 3944 3084 3684 2787 
Q 3425 2491 3425 1978 
L 3425 0 
L 2847 0 
L 2847 2094 
Q 2847 2600 2669 2842 
Q 2491 3084 2119 3084 
Q 1678 3084 1418 2786 
Q 1159 2488 1159 1978 
L 1159 0 
L 581 0 
L 581 3500 
L 1159 3500 
L 1159 2956 
Q 1356 3278 1631 3431 
Q 1906 3584 2284 3584 
Q 2666 3584 2933 3390 
Q 3200 3197 3328 2828 
z
" transform="scale(0.015625)"/>
       <path id="DejaVuSans-65" d="M 3597 1894 
L 3597 1613 
L 953 1613 
Q 991 1019 1311 708 
Q 1631 397 2203 397 
Q 2534 397 2845 478 
Q 3156 559 3463 722 
L 3463 178 
Q 3153 47 2828 -22 
Q 2503 -91 2169 -91 
Q 1331 -91 842 396 
Q 353 884 353 1716 
Q 353 2575 817 3079 
Q 1281 3584 2069 3584 
Q 2775 3584 3186 3129 
Q 3597 2675 3597 1894 
z
M 3022 2063 
Q 3016 2534 2758 2815 
Q 2500 3097 2075 3097 
Q 1594 3097 1305 2825 
Q 1016 2553 972 2059 
L 3022 2063 
z
" transform="scale(0.015625)"/>
       <path id="DejaVuSans-20" transform="scale(0.015625)"/>
       <path id="DejaVuSans-28" d="M 1984 4856 
Q 1566 4138 1362 3434 
Q 1159 2731 1159 2009 
Q 1159 1288 1364 580 
Q 1569 -128 1984 -844 
L 1484 -844 
Q 1016 -109 783 600 
Q 550 1309 550 2009 
Q 550 2706 781 3412 
Q 1013 4119 1484 4856 
L 1984 4856 
z
" transform="scale(0.015625)"/>
       <path id="DejaVuSans-73" d="M 2834 3397 
L 2834 2853 
Q 2591 2978 2328 3040 
Q 2066 3103 1784 3103 
Q 1356 3103 1142 2972 
Q 928 2841 928 2578 
Q 928 2378 1081 2264 
Q 1234 2150 1697 2047 
L 1894 2003 
Q 2506 1872 2764 1633 
Q 3022 1394 3022 966 
Q 3022 478 2636 193 
Q 2250 -91 1575 -91 
Q 1294 -91 989 -36 
Q 684 19 347 128 
L 347 722 
Q 666 556 975 473 
Q 1284 391 1588 391 
Q 1994 391 2212 530 
Q 2431 669 2431 922 
Q 2431 1156 2273 1281 
Q 2116 1406 1581 1522 
L 1381 1569 
Q 847 1681 609 1914 
Q 372 2147 372 2553 
Q 372 3047 722 3315 
Q 1072 3584 1716 3584 
Q 2034 3584 2315 3537 
Q 2597 3491 2834 3397 
z
" transform="scale(0.015625)"/>
       <path id="DejaVuSans-29" d="M 513 4856 
L 1013 4856 
Q 1481 4119 1714 3412 
Q 1947 2706 1947 2009 
Q 1947 1309 1714 600 
Q 1481 -109 1013 -844 
L 513 -844 
Q 928 -128 1133 580 
Q 1338 1288 1338 2009 
Q 1338 2731 1133 3434 
Q 928 4138 513 4856 
z
" transform="scale(0.015625)"/>
      </defs>
      <use xlink:href="#DejaVuSans-54"/>
      <use xlink:href="#DejaVuSans-69" transform="translate(57.958984 0)"/>
      <use xlink:href="#DejaVuSans-6d" transform="translate(85.742188 0)"/>
      <use xlink:href="#DejaVuSans-65" transform="translate(183.154297 0)"/>
      <use xlink:href="#DejaVuSans-20" transform="translate(244.677734 0)"/>
      <use xlink:href="#DejaVuSans-28" transform="translate(276.464844 0)"/>
      <use xlink:href="#DejaVuSans-73" transform="translate(315.478516 0)"/>
      <use xlink:href="#DejaVuSans-29" transform="translate(367.578125 0)"/>
     </g>
    </g>
   </g>
   <g id="matplotlib.axis_2">
    <g id="ytick_1">
     <g id="line2d_17">
      <path d="M 47.307188 367.741449 
L 705.637188 367.741449 
" clip-path="url(#p32b8b5b3da)" style="fill: none; stroke: #b0b0b0; stroke-opacity: 0.2; stroke-width: 0.6; stroke-linecap: square"/>
     </g>
     <g id="line2d_18">
      <defs>
       <path id="m3b86c63663" d="M 0 0 
L -3.5 0 
" style="stroke: #000000; stroke-width: 0.8"/>
      </defs>
      <g>
       <use xlink:href="#m3b86c63663" x="47.307188" y="367.741449" style="stroke: #000000; stroke-width: 0.8"/>
      </g>
     </g>
     <g id="text_10">
      <!-- 0.0 -->
      <g transform="translate(22.81375 371.920589) scale(0.11 -0.11)">
       <defs>
        <path id="DejaVuSans-2e" d="M 684 794 
L 1344 794 
L 1344 0 
L 684 0 
L 684 794 
z
" transform="scale(0.015625)"/>
       </defs>
       <use xlink:href="#DejaVuSans-30"/>
       <use xlink:href="#DejaVuSans-2e" transform="translate(63.623047 0)"/>
       <use xlink:href="#DejaVuSans-30" transform="translate(95.410156 0)"/>
      </g>
     </g>
    </g>
    <g id="ytick_2">
     <g id="line2d_19">
      <path d="M 47.307188 317.507205 
L 705.637188 317.507205 
" clip-path="url(#p32b8b5b3da)" style="fill: none; stroke: #b0b0b0; stroke-opacity: 0.2; stroke-width: 0.6; stroke-linecap: square"/>
     </g>
     <g id="line2d_20">
      <g>
       <use xlink:href="#m3b86c63663" x="47.307188" y="317.507205" style="stroke: #000000; stroke-width: 0.8"/>
      </g>
     </g>
     <g id="text_11">
      <!-- 0.5 -->
      <g transform="translate(22.81375 321.686345) scale(0.11 -0.11)">
       <use xlink:href="#DejaVuSans-30"/>
       <use xlink:href="#DejaVuSans-2e" transform="translate(63.623047 0)"/>
       <use xlink:href="#DejaVuSans-35" transform="translate(95.410156 0)"/>
      </g>
     </g>
    </g>
    <g id="ytick_3">
     <g id="line2d_21">
      <path d="M 47.307188 267.27296 
L 705.637188 267.27296 
" clip-path="url(#p32b8b5b3da)" style="fill: none; stroke: #b0b0b0; stroke-opacity: 0.2; stroke-width: 0.6; stroke-linecap: square"/>
     </g>
     <g id="line2d_22">
      <g>
       <use xlink:href="#m3b86c63663" x="47.307188" y="267.27296" style="stroke: #000000; stroke-width: 0.8"/>
      </g>
     </g>
     <g id="text_12">
      <!-- 1.0 -->
      <g transform="translate(22.81375 271.452101) scale(0.11 -0.11)">
       <use xlink:href="#DejaVuSans-31"/>
       <use xlink:href="#DejaVuSans-2e" transform="translate(63.623047 0)"/>
       <use xlink:href="#DejaVuSans-30" transform="translate(95.410156 0)"/>
      </g>
     </g>
    </g>
    <g id="ytick_4">
     <g id="line2d_23">
      <path d="M 47.307188 217.038716 
L 705.637188 217.038716 
" clip-path="url(#p32b8b5b3da)" style="fill: none; stroke: #b0b0b0; stroke-opacity: 0.2; stroke-width: 0.6; stroke-linecap: square"/>
     </g>
     <g id="line2d_24">
      <g>
       <use xlink:href="#m3b86c63663" x="47.307188" y="217.038716" style="stroke: #000000; stroke-width: 0.8"/>
      </g>
     </g>
     <g id="text_13">
      <!-- 1.5 -->
      <g transform="translate(22.81375 221.217857) scale(0.11 -0.11)">
       <use xlink:href="#DejaVuSans-31"/>
       <use xlink:href="#DejaVuSans-2e" transform="translate(63.623047 0)"/>
       <use xlink:href="#DejaVuSans-35" transform="translate(95.410156 0)"/>
      </g>
     </g>
    </g>
    <g id="ytick_5">
     <g id="line2d_25">
      <path d="M 47.307188 166.804472 
L 705.637188 166.804472 
" clip-path="url(#p32b8b5b3da)" style="fill: none; stroke: #b0b0b0; stroke-opacity: 0.2; stroke-width: 0.6; stroke-linecap: square"/>
     </g>
     <g id="line2d_26">
      <g>
       <use xlink:href="#m3b86c63663" x="47.307188" y="166.804472" style="stroke: #000000; stroke-width: 0.8"/>
      </g>
     </g>
     <g id="text_14">
      <!-- 2.0 -->
      <g transform="translate(22.81375 170.983612) scale(0.11 -0.11)">
       <use xlink:href="#DejaVuSans-32"/>
       <use xlink:href="#DejaVuSans-2e" transform="translate(63.623047 0)"/>
       <use xlink:href="#DejaVuSans-30" transform="translate(95.410156 0)"/>
      </g>
     </g>
    </g>
    <g id="ytick_6">
     <g id="line2d_27">
      <path d="M 47.307188 116.570227 
L 705.637188 116.570227 
" clip-path="url(#p32b8b5b3da)" style="fill: none; stroke: #b0b0b0; stroke-opacity: 0.2; stroke-width: 0.6; stroke-linecap: square"/>
     </g>
     <g id="line2d_28">
      <g>
       <use xlink:href="#m3b86c63663" x="47.307188" y="116.570227" style="stroke: #000000; stroke-width: 0.8"/>
      </g>
     </g>
     <g id="text_15">
      <!-- 2.5 -->
      <g transform="translate(22.81375 120.749368) scale(0.11 -0.11)">
       <use xlink:href="#DejaVuSans-32"/>
       <use xlink:href="#DejaVuSans-2e" transform="translate(63.623047 0)"/>
       <use xlink:href="#DejaVuSans-35" transform="translate(95.410156 0)"/>
      </g>
     </g>
    </g>
    <g id="ytick_7">
     <g id="line2d_29">
      <path d="M 47.307188 66.335983 
L 705.637188 66.335983 
" clip-path="url(#p32b8b5b3da)" style="fill: none; stroke: #b0b0b0; stroke-opacity: 0.2; stroke-width: 0.6; stroke-linecap: square"/>
     </g>
     <g id="line2d_30">
      <g>
       <use xlink:href="#m3b86c63663" x="47.307188" y="66.335983" style="stroke: #000000; stroke-width: 0.8"/>
      </g>
     </g>
     <g id="text_16">
      <!-- 3.0 -->
      <g transform="translate(22.81375 70.515124) scale(0.11 -0.11)">
       <defs>
        <path id="DejaVuSans-33" d="M 2597 2516 
Q 3050 2419 3304 2112 
Q 3559 1806 3559 1356 
Q 3559 666 3084 287 
Q 2609 -91 1734 -91 
Q 1441 -91 1130 -33 
Q 819 25 488 141 
L 488 750 
Q 750 597 1062 519 
Q 1375 441 1716 441 
Q 2309 441 2620 675 
Q 2931 909 2931 1356 
Q 2931 1769 2642 2001 
Q 2353 2234 1838 2234 
L 1294 2234 
L 1294 2753 
L 1863 2753 
Q 2328 2753 2575 2939 
Q 2822 3125 2822 3475 
Q 2822 3834 2567 4026 
Q 2313 4219 1838 4219 
Q 1578 4219 1281 4162 
Q 984 4106 628 3988 
L 628 4550 
Q 988 4650 1302 4700 
Q 1616 4750 1894 4750 
Q 2613 4750 3031 4423 
Q 3450 4097 3450 3541 
Q 3450 3153 3228 2886 
Q 3006 2619 2597 2516 
z
" transform="scale(0.015625)"/>
       </defs>
       <use xlink:href="#DejaVuSans-33"/>
       <use xlink:href="#DejaVuSans-2e" transform="translate(63.623047 0)"/>
       <use xlink:href="#DejaVuSans-30" transform="translate(95.410156 0)"/>
      </g>
     </g>
    </g>
    <g id="text_17">
     <!-- AU mean intensity -->
     <g transform="translate(16.318125 259.314687) rotate(-90) scale(0.12 -0.12)">
      <defs>
       <path id="DejaVuSans-41" d="M 2188 4044 
L 1331 1722 
L 3047 1722 
L 2188 4044 
z
M 1831 4666 
L 2547 4666 
L 4325 0 
L 3669 0 
L 3244 1197 
L 1141 1197 
L 716 0 
L 50 0 
L 1831 4666 
z
" transform="scale(0.015625)"/>
       <path id="DejaVuSans-55" d="M 556 4666 
L 1191 4666 
L 1191 1831 
Q 1191 1081 1462 751 
Q 1734 422 2344 422 
Q 2950 422 3222 751 
Q 3494 1081 3494 1831 
L 3494 4666 
L 4128 4666 
L 4128 1753 
Q 4128 841 3676 375 
Q 3225 -91 2344 -91 
Q 1459 -91 1007 375 
Q 556 841 556 1753 
L 556 4666 
z
" transform="scale(0.015625)"/>
       <path id="DejaVuSans-61" d="M 2194 1759 
Q 1497 1759 1228 1600 
Q 959 1441 959 1056 
Q 959 750 1161 570 
Q 1363 391 1709 391 
Q 2188 391 2477 730 
Q 2766 1069 2766 1631 
L 2766 1759 
L 2194 1759 
z
M 3341 1997 
L 3341 0 
L 2766 0 
L 2766 531 
Q 2569 213 2275 61 
Q 1981 -91 1556 -91 
Q 1019 -91 701 211 
Q 384 513 384 1019 
Q 384 1609 779 1909 
Q 1175 2209 1959 2209 
L 2766 2209 
L 2766 2266 
Q 2766 2663 2505 2880 
Q 2244 3097 1772 3097 
Q 1472 3097 1187 3025 
Q 903 2953 641 2809 
L 641 3341 
Q 956 3463 1253 3523 
Q 1550 3584 1831 3584 
Q 2591 3584 2966 3190 
Q 3341 2797 3341 1997 
z
" transform="scale(0.015625)"/>
       <path id="DejaVuSans-6e" d="M 3513 2113 
L 3513 0 
L 2938 0 
L 2938 2094 
Q 2938 2591 2744 2837 
Q 2550 3084 2163 3084 
Q 1697 3084 1428 2787 
Q 1159 2491 1159 1978 
L 1159 0 
L 581 0 
L 581 3500 
L 1159 3500 
L 1159 2956 
Q 1366 3272 1645 3428 
Q 1925 3584 2291 3584 
Q 2894 3584 3203 3211 
Q 3513 2838 3513 2113 
z
" transform="scale(0.015625)"/>
       <path id="DejaVuSans-74" d="M 1172 4494 
L 1172 3500 
L 2356 3500 
L 2356 3053 
L 1172 3053 
L 1172 1153 
Q 1172 725 1289 603 
Q 1406 481 1766 481 
L 2356 481 
L 2356 0 
L 1766 0 
Q 1100 0 847 248 
Q 594 497 594 1153 
L 594 3053 
L 172 3053 
L 172 3500 
L 594 3500 
L 594 4494 
L 1172 4494 
z
" transform="scale(0.015625)"/>
       <path id="DejaVuSans-79" d="M 2059 -325 
Q 1816 -950 1584 -1140 
Q 1353 -1331 966 -1331 
L 506 -1331 
L 506 -850 
L 844 -850 
Q 1081 -850 1212 -737 
Q 1344 -625 1503 -206 
L 1606 56 
L 191 3500 
L 800 3500 
L 1894 763 
L 2988 3500 
L 3597 3500 
L 2059 -325 
z
" transform="scale(0.015625)"/>
      </defs>
      <use xlink:href="#DejaVuSans-41"/>
      <use xlink:href="#DejaVuSans-55" transform="translate(68.408203 0)"/>
      <use xlink:href="#DejaVuSans-20" transform="translate(141.601562 0)"/>
      <use xlink:href="#DejaVuSans-6d" transform="translate(173.388672 0)"/>
      <use xlink:href="#DejaVuSans-65" transform="translate(270.800781 0)"/>
      <use xlink:href="#DejaVuSans-61" transform="translate(332.324219 0)"/>
      <use xlink:href="#DejaVuSans-6e" transform="translate(393.603516 0)"/>
      <use xlink:href="#DejaVuSans-20" transform="translate(456.982422 0)"/>
      <use xlink:href="#DejaVuSans-69" transform="translate(488.769531 0)"/>
      <use xlink:href="#DejaVuSans-6e" transform="translate(516.552734 0)"/>
      <use xlink:href="#DejaVuSans-74" transform="translate(579.931641 0)"/>
      <use xlink:href="#DejaVuSans-65" transform="translate(619.140625 0)"/>
      <use xlink:href="#DejaVuSans-6e" transform="translate(680.664062 0)"/>
      <use xlink:href="#DejaVuSans-73" transform="translate(744.042969 0)"/>
      <use xlink:href="#DejaVuSans-69" transform="translate(796.142578 0)"/>
      <use xlink:href="#DejaVuSans-74" transform="translate(823.925781 0)"/>
      <use xlink:href="#DejaVuSans-79" transform="translate(863.134766 0)"/>
     </g>
    </g>
   </g>
   <g id="FillBetweenPolyCollection_1">
    <path d="M 47.307188 260.238034 
L 47.307188 428.519168 
L 50.790415 442.692271 
L 54.273643 462.632286 
L 57.75687 414.313842 
L 61.240098 415.943093 
L 64.723325 423.674228 
L 68.206553 421.858356 
L 71.68978 423.95904 
L 75.173008 424.86457 
L 78.656235 424.425298 
L 82.139463 422.795021 
L 85.62269 416.38115 
L 89.105918 420.272005 
L 92.589145 419.217358 
L 96.072373 412.078318 
L 99.5556 399.986649 
L 103.038828 402.046603 
L 106.522055 409.513228 
L 110.005283 407.674471 
L 113.48851 409.565565 
L 116.971738 405.734345 
L 120.454965 404.845979 
L 123.938193 406.27303 
L 127.42142 407.554811 
L 130.904648 412.311755 
L 134.387875 409.620984 
L 137.871103 407.592839 
L 141.35433 410.021299 
L 144.837558 409.627989 
L 148.320785 425.999422 
L 151.804013 424.857532 
L 155.28724 412.642027 
L 158.770468 405.9916 
L 162.253695 407.796304 
L 165.736923 411.047603 
L 169.22015 422.769704 
L 172.703378 429.574843 
L 176.186605 436.82914 
L 179.669833 430.095659 
L 183.153061 423.171954 
L 186.636288 430.015122 
L 190.119516 449.380792 
L 193.602743 439.902581 
L 197.085971 428.620828 
L 200.569198 427.516827 
L 204.052426 427.190683 
L 207.535653 424.562559 
L 211.018881 438.780684 
L 214.502108 446.529554 
L 217.985336 480.040641 
L 221.468563 485.10146 
L 224.951791 481.052186 
L 228.435018 457.401929 
L 231.918246 447.598796 
L 235.401473 455.591421 
L 238.884701 458.232619 
L 242.367928 454.4264 
L 245.851156 451.894191 
L 249.334383 442.175992 
L 252.817611 447.515984 
L 256.300838 446.306636 
L 259.784066 437.456841 
L 263.267293 454.945687 
L 266.750521 456.518365 
L 270.233748 450.258136 
L 273.716976 439.193173 
L 277.200203 432.634542 
L 280.683431 438.225351 
L 284.166658 459.135363 
L 287.649886 463.551669 
L 291.133113 463.030722 
L 294.616341 450.435136 
L 298.099568 436.381166 
L 301.582796 434.255626 
L 305.066023 436.126935 
L 308.549251 428.024432 
L 312.032479 423.738456 
L 315.515706 420.78936 
L 318.998934 415.539114 
L 322.482161 417.536417 
L 325.965389 421.139614 
L 329.448616 425.989555 
L 332.931844 437.650835 
L 336.415071 436.695943 
L 339.898299 437.667045 
L 343.381526 438.572152 
L 346.864754 440.699915 
L 350.347981 437.750964 
L 353.831209 434.39121 
L 357.314436 430.386952 
L 360.797664 424.514412 
L 364.280891 421.941482 
L 367.764119 423.132403 
L 371.247346 423.319771 
L 374.730574 414.547453 
L 378.213801 414.492073 
L 381.697029 414.709581 
L 385.180256 415.760974 
L 388.663484 418.45581 
L 392.146711 426.606808 
L 395.629939 427.992671 
L 399.113166 432.411734 
L 402.596394 436.18089 
L 406.079621 424.030929 
L 409.562849 449.959932 
L 413.046076 451.937009 
L 416.529304 447.481387 
L 420.012531 446.77783 
L 423.495759 439.425734 
L 426.978986 443.178754 
L 430.462214 436.655193 
L 433.945441 440.989409 
L 437.428669 443.664682 
L 440.911896 442.364888 
L 444.395124 457.280005 
L 447.878352 471.110079 
L 451.361579 433.11331 
L 454.844807 427.13935 
L 458.328034 432.171372 
L 461.811262 428.210384 
L 465.294489 434.456741 
L 468.777717 433.224389 
L 472.260944 430.588086 
L 475.744172 436.723969 
L 479.227399 436.611914 
L 482.710627 466.54714 
L 486.193854 502.124549 
L 489.677082 471.994469 
L 493.160309 436.798656 
L 496.643537 430.030677 
L 500.126764 428.962149 
L 503.609992 435.882753 
L 507.093219 426.277512 
L 510.576447 423.8437 
L 514.059674 419.003855 
L 517.542902 415.004366 
L 521.026129 428.781312 
L 524.509357 425.462922 
L 527.992584 424.725914 
L 531.475812 441.119813 
L 534.959039 436.999942 
L 538.442267 434.475399 
L 541.925494 432.839338 
L 545.408722 429.117398 
L 548.891949 431.044559 
L 552.375177 431.359459 
L 555.858404 425.862025 
L 559.341632 419.076925 
L 562.824859 413.88835 
L 566.308087 414.070903 
L 569.791314 412.099192 
L 573.274542 413.137747 
L 576.75777 417.419734 
L 580.240997 414.693226 
L 583.724225 411.312007 
L 587.207452 415.327932 
L 590.69068 420.523235 
L 594.173907 419.975296 
L 597.657135 429.291915 
L 601.140362 433.73658 
L 604.62359 433.58533 
L 608.106817 424.322934 
L 611.590045 424.693519 
L 615.073272 425.676902 
L 618.5565 425.477019 
L 622.039727 424.470151 
L 625.522955 426.455416 
L 629.006182 427.559467 
L 632.48941 439.277971 
L 635.972637 445.877846 
L 639.455865 449.710675 
L 642.939092 448.209213 
L 646.42232 463.438143 
L 649.905547 499.472373 
L 653.388775 486.192107 
L 656.872002 479.058012 
L 660.35523 455.076737 
L 663.838457 440.43451 
L 667.321685 431.273116 
L 670.804912 424.740819 
L 674.28814 433.250487 
L 677.771367 462.973935 
L 681.254595 445.355363 
L 684.737822 459.090618 
L 688.22105 430.87957 
L 691.704277 453.164384 
L 695.187505 429.918672 
L 698.670732 422.769426 
L 702.15396 420.070786 
L 705.637188 410.93897 
L 705.637188 287.565293 
L 705.637188 287.565293 
L 702.15396 258.712234 
L 698.670732 254.851706 
L 695.187505 248.475438 
L 691.704277 209.115095 
L 688.22105 233.690693 
L 684.737822 116.106066 
L 681.254595 166.032747 
L 677.771367 97.646157 
L 674.28814 148.29281 
L 670.804912 170.571215 
L 667.321685 152.49021 
L 663.838457 144.544859 
L 660.35523 113.87559 
L 656.872002 94.804866 
L 653.388775 62.119617 
L 649.905547 55.799504 
L 646.42232 159.479536 
L 642.939092 187.744923 
L 639.455865 167.227509 
L 635.972637 175.270179 
L 632.48941 193.901268 
L 629.006182 202.115389 
L 625.522955 207.922963 
L 622.039727 224.211437 
L 618.5565 212.405603 
L 615.073272 221.844101 
L 611.590045 234.502197 
L 608.106817 234.470461 
L 604.62359 231.448091 
L 601.140362 220.877845 
L 597.657135 214.541845 
L 594.173907 249.319655 
L 590.69068 241.929605 
L 587.207452 250.329366 
L 583.724225 253.956381 
L 580.240997 257.832306 
L 576.75777 258.499124 
L 573.274542 266.563487 
L 569.791314 267.579132 
L 566.308087 259.645527 
L 562.824859 248.698178 
L 559.341632 234.32062 
L 555.858404 213.669415 
L 552.375177 202.741207 
L 548.891949 201.85515 
L 545.408722 212.669973 
L 541.925494 202.746283 
L 538.442267 198.637904 
L 534.959039 194.680372 
L 531.475812 189.663661 
L 527.992584 226.995432 
L 524.509357 224.037138 
L 521.026129 201.529713 
L 517.542902 231.018271 
L 514.059674 219.603923 
L 510.576447 220.762851 
L 507.093219 231.860855 
L 503.609992 213.617307 
L 500.126764 207.21494 
L 496.643537 166.606501 
L 493.160309 150.259336 
L 489.677082 159.203862 
L 486.193854 80.119597 
L 482.710627 83.207631 
L 479.227399 145.068777 
L 475.744172 144.671314 
L 472.260944 151.214632 
L 468.777717 163.133368 
L 465.294489 158.800199 
L 461.811262 189.974475 
L 458.328034 228.090321 
L 454.844807 227.860958 
L 451.361579 226.896195 
L 447.878352 175.020543 
L 444.395124 194.488643 
L 440.911896 211.790277 
L 437.428669 210.210957 
L 433.945441 201.204401 
L 430.462214 211.330634 
L 426.978986 216.896722 
L 423.495759 202.487241 
L 420.012531 193.652392 
L 416.529304 205.60108 
L 413.046076 189.204684 
L 409.562849 199.534956 
L 406.079621 224.712737 
L 402.596394 198.776573 
L 399.113166 215.081465 
L 395.629939 222.002526 
L 392.146711 231.015167 
L 388.663484 240.9639 
L 385.180256 261.907268 
L 381.697029 249.554581 
L 378.213801 245.975791 
L 374.730574 253.133452 
L 371.247346 255.112615 
L 367.764119 249.270927 
L 364.280891 248.974242 
L 360.797664 247.059138 
L 357.314436 254.48225 
L 353.831209 245.886897 
L 350.347981 238.153689 
L 346.864754 234.131743 
L 343.381526 233.464679 
L 339.898299 235.435903 
L 336.415071 228.243415 
L 332.931844 230.623931 
L 329.448616 236.871443 
L 325.965389 244.584799 
L 322.482161 252.572972 
L 318.998934 247.065488 
L 315.515706 240.825483 
L 312.032479 234.538273 
L 308.549251 229.839013 
L 305.066023 229.573072 
L 301.582796 233.814209 
L 298.099568 224.116445 
L 294.616341 192.306292 
L 291.133113 154.444411 
L 287.649886 140.274389 
L 284.166658 136.558596 
L 280.683431 132.28569 
L 277.200203 164.258558 
L 273.716976 150.974181 
L 270.233748 133.703697 
L 266.750521 120.94319 
L 263.267293 147.33544 
L 259.784066 202.780198 
L 256.300838 196.878941 
L 252.817611 201.148282 
L 249.334383 217.278997 
L 245.851156 200.767161 
L 242.367928 195.532697 
L 238.884701 187.573491 
L 235.401473 195.145497 
L 231.918246 212.073699 
L 228.435018 194.700225 
L 224.951791 155.213749 
L 221.468563 145.432378 
L 217.985336 158.464182 
L 214.502108 214.027348 
L 211.018881 232.588594 
L 207.535653 244.007515 
L 204.052426 250.548817 
L 200.569198 245.537868 
L 197.085971 235.810928 
L 193.602743 204.968273 
L 190.119516 198.001634 
L 186.636288 245.109711 
L 183.153061 266.654078 
L 179.669833 258.329095 
L 176.186605 247.341209 
L 172.703378 259.157798 
L 169.22015 259.014519 
L 165.736923 284.195234 
L 162.253695 284.394203 
L 158.770468 274.703563 
L 155.28724 265.8813 
L 151.804013 234.751401 
L 148.320785 237.115851 
L 144.837558 286.809938 
L 141.35433 284.698242 
L 137.871103 287.977805 
L 134.387875 284.752114 
L 130.904648 281.022991 
L 127.42142 288.078473 
L 123.938193 289.326309 
L 120.454965 287.457121 
L 116.971738 290.63066 
L 113.48851 288.185352 
L 110.005283 290.959178 
L 106.522055 281.529686 
L 103.038828 288.978989 
L 99.5556 284.58644 
L 96.072373 263.966126 
L 92.589145 262.731425 
L 89.105918 262.955125 
L 85.62269 268.663968 
L 82.139463 261.205879 
L 78.656235 261.90166 
L 75.173008 262.766159 
L 71.68978 261.82227 
L 68.206553 261.303955 
L 64.723325 252.696821 
L 61.240098 243.738761 
L 57.75687 242.028469 
L 54.273643 164.385155 
L 50.790415 223.770508 
L 47.307188 260.238034 
z
" clip-path="url(#p32b8b5b3da)" style="fill: #d3d3d3; fill-opacity: 0.5; stroke: #d3d3d3; stroke-opacity: 0.5"/>
   </g>
   <g id="FillBetweenPolyCollection_2">
    <defs>
     <path id="m618a5057e2" d="M 47.307188 -122.269183 
L 47.307188 -38.128616 
L 50.790415 -36.61567 
L 54.273643 -36.506996 
L 57.75687 -53.335002 
L 61.240098 -51.68549 
L 64.723325 -43.647623 
L 68.206553 -42.857744 
L 71.68978 -41.152653 
L 75.173008 -40.237533 
L 78.656235 -40.783112 
L 82.139463 -42.179765 
L 85.62269 -45.125646 
L 89.105918 -43.634715 
L 92.589145 -44.481625 
L 96.072373 -49.52723 
L 99.5556 -53.440903 
L 103.038828 -50.797801 
L 106.522055 -47.060158 
L 110.005283 -46.081852 
L 113.48851 -45.356988 
L 116.971738 -47.619076 
L 120.454965 -49.078735 
L 123.938193 -47.54115 
L 127.42142 -46.891773 
L 130.904648 -45.087936 
L 134.387875 -46.173734 
L 137.871103 -46.888419 
L 141.35433 -45.886965 
L 144.837558 -45.654024 
L 148.320785 -45.798971 
L 151.804013 -47.246501 
L 155.28724 -48.625654 
L 158.770468 -51.40791 
L 162.253695 -47.631722 
L 165.736923 -45.242989 
L 169.22015 -42.746592 
L 172.703378 -37.606918 
L 176.186605 -35.120343 
L 179.669833 -37.423482 
L 183.153061 -40.535015 
L 186.636288 -40.788731 
L 190.119516 -38.041497 
L 193.602743 -43.408496 
L 197.085971 -44.159147 
L 200.569198 -42.555412 
L 204.052426 -41.547283 
L 207.535653 -45.153702 
L 211.018881 -37.344839 
L 214.502108 -36.173498 
L 217.985336 -24.930974 
L 221.468563 -24.39331 
L 224.951791 -24.984923 
L 228.435018 -32.850997 
L 231.918246 -35.859979 
L 235.401473 -34.09756 
L 238.884701 -34.009663 
L 242.367928 -34.874526 
L 245.851156 -35.465066 
L 249.334383 -38.625757 
L 252.817611 -38.653441 
L 256.300838 -40.627788 
L 259.784066 -45.78982 
L 263.267293 -46.534375 
L 266.750521 -51.952929 
L 270.233748 -53.457974 
L 273.716976 -57.439075 
L 277.200203 -59.036954 
L 280.683431 -62.837064 
L 284.166658 -46.086329 
L 287.649886 -41.845151 
L 291.133113 -38.693356 
L 294.616341 -38.674575 
L 298.099568 -41.262514 
L 301.582796 -40.432228 
L 305.066023 -40.089031 
L 308.549251 -46.099423 
L 312.032479 -48.13909 
L 315.515706 -48.77911 
L 318.998934 -51.156792 
L 322.482161 -48.281944 
L 325.965389 -47.57659 
L 329.448616 -45.867473 
L 332.931844 -38.683391 
L 336.415071 -39.994689 
L 339.898299 -37.46824 
L 343.381526 -37.282216 
L 346.864754 -35.519628 
L 350.347981 -36.725855 
L 353.831209 -37.312368 
L 357.314436 -38.166724 
L 360.797664 -44.426907 
L 364.280891 -45.877828 
L 367.764119 -44.910466 
L 371.247346 -43.309518 
L 374.730574 -50.383548 
L 378.213801 -52.214498 
L 381.697029 -51.156669 
L 385.180256 -47.279953 
L 388.663484 -50.494667 
L 392.146711 -46.868602 
L 395.629939 -48.082366 
L 399.113166 -46.498333 
L 402.596394 -47.747689 
L 406.079621 -50.376119 
L 409.562849 -37.223812 
L 413.046076 -38.323572 
L 416.529304 -37.56619 
L 420.012531 -41.08103 
L 423.495759 -44.38639 
L 426.978986 -37.969254 
L 430.462214 -44.253447 
L 433.945441 -43.534343 
L 437.428669 -39.276249 
L 440.911896 -39.856265 
L 444.395124 -32.995335 
L 447.878352 -27.489805 
L 451.361579 -43.018469 
L 454.844807 -47.257748 
L 458.328034 -43.426391 
L 461.811262 -55.926093 
L 465.294489 -59.034895 
L 468.777717 -58.875866 
L 472.260944 -63.832777 
L 475.744172 -60.866695 
L 479.227399 -60.85137 
L 482.710627 -53.865237 
L 486.193854 -27.954189 
L 489.677082 -30.780682 
L 493.160309 -59.413674 
L 496.643537 -60.402867 
L 500.126764 -51.052153 
L 503.609992 -44.261109 
L 507.093219 -46.904153 
L 510.576447 -51.504012 
L 514.059674 -55.423628 
L 517.542902 -55.569657 
L 521.026129 -52.609088 
L 524.509357 -49.471024 
L 527.992584 -49.284206 
L 531.475812 -46.321725 
L 534.959039 -48.157451 
L 538.442267 -49.061475 
L 541.925494 -49.261426 
L 545.408722 -49.571958 
L 548.891949 -50.830293 
L 552.375177 -50.372604 
L 555.858404 -51.763628 
L 559.341632 -51.689652 
L 562.824859 -51.986693 
L 566.308087 -49.112941 
L 569.791314 -48.608323 
L 573.274542 -48.083318 
L 576.75777 -46.887919 
L 580.240997 -49.099504 
L 583.724225 -52.6044 
L 587.207452 -50.499209 
L 590.69068 -48.702673 
L 594.173907 -47.266115 
L 597.657135 -48.973103 
L 601.140362 -44.055603 
L 604.62359 -41.526479 
L 608.106817 -47.717684 
L 611.590045 -47.431812 
L 615.073272 -49.858798 
L 618.5565 -52.368335 
L 622.039727 -50.172027 
L 625.522955 -52.755198 
L 629.006182 -53.379053 
L 632.48941 -46.643705 
L 635.972637 -46.351571 
L 639.455865 -45.487617 
L 642.939092 -41.48436 
L 646.42232 -37.129009 
L 649.905547 -36.023344 
L 653.388775 -44.403515 
L 656.872002 -41.582775 
L 660.35523 -54.80105 
L 663.838457 -58.115402 
L 667.321685 -63.00011 
L 670.804912 -63.379082 
L 674.28814 -62.566432 
L 677.771367 -52.935509 
L 681.254595 -49.052791 
L 684.737822 -51.23302 
L 688.22105 -42.99515 
L 691.704277 -32.425439 
L 695.187505 -40.019637 
L 698.670732 -43.787504 
L 702.15396 -44.846352 
L 705.637188 -44.481949 
L 705.637188 -106.168788 
L 705.637188 -106.168788 
L 702.15396 -125.525628 
L 698.670732 -127.746364 
L 695.187505 -130.741253 
L 691.704277 -154.450083 
L 688.22105 -141.589588 
L 684.737822 -222.725296 
L 681.254595 -188.714099 
L 677.771367 -235.599399 
L 674.28814 -205.045271 
L 670.804912 -190.463884 
L 667.321685 -202.391563 
L 663.838457 -206.060228 
L 660.35523 -225.401623 
L 656.872002 -233.709347 
L 653.388775 -256.439761 
L 649.905547 -257.859779 
L 646.42232 -189.108312 
L 642.939092 -171.716504 
L 639.455865 -186.7292 
L 635.972637 -181.655404 
L 632.48941 -169.332056 
L 629.006182 -166.101092 
L 625.522955 -162.021424 
L 622.039727 -150.301385 
L 618.5565 -158.904043 
L 615.073272 -151.775198 
L 611.590045 -142.527472 
L 608.106817 -142.643921 
L 604.62359 -142.595099 
L 601.140362 -150.484971 
L 597.657135 -156.348137 
L 594.173907 -132.593935 
L 590.69068 -137.999488 
L 587.207452 -132.998493 
L 583.724225 -131.282213 
L 580.240997 -127.529964 
L 576.75777 -126.348223 
L 573.274542 -121.370448 
L 569.791314 -120.868353 
L 566.308087 -126.325629 
L 562.824859 -134.581779 
L 559.341632 -144.067804 
L 555.858404 -157.859932 
L 552.375177 -164.68173 
L 548.891949 -165.424997 
L 545.408722 -157.795671 
L 541.925494 -164.307953 
L 538.442267 -166.980222 
L 534.959039 -169.317235 
L 531.475812 -172.049801 
L 527.992584 -148.149447 
L 524.509357 -150.183916 
L 521.026129 -166.234887 
L 517.542902 -147.562705 
L 514.059674 -155.123594 
L 510.576447 -153.044437 
L 507.093219 -144.112481 
L 503.609992 -155.393831 
L 500.126764 -161.925758 
L 496.643537 -192.114955 
L 493.160309 -202.683334 
L 489.677082 -187.175986 
L 486.193854 -238.956665 
L 482.710627 -245.534992 
L 479.227399 -206.622938 
L 475.744172 -206.893023 
L 472.260944 -203.519505 
L 468.777717 -193.921377 
L 465.294489 -196.863166 
L 461.811262 -175.044048 
L 458.328034 -145.466916 
L 454.844807 -146.896944 
L 451.361579 -146.127026 
L 447.878352 -175.534573 
L 444.395124 -164.391017 
L 440.911896 -155.14357 
L 437.428669 -156.003112 
L 433.945441 -163.426847 
L 430.462214 -156.915726 
L 426.978986 -151.11027 
L 423.495759 -162.855636 
L 420.012531 -167.643749 
L 416.529304 -158.506343 
L 413.046076 -169.689735 
L 409.562849 -162.4363 
L 406.079621 -150.035215 
L 402.596394 -166.449848 
L 399.113166 -155.163468 
L 395.629939 -151.077438 
L 392.146711 -144.664423 
L 388.663484 -139.240623 
L 385.180256 -124.206806 
L 381.697029 -133.734169 
L 378.213801 -136.472639 
L 374.730574 -131.090548 
L 371.247346 -127.413096 
L 367.764119 -131.841204 
L 364.280891 -132.361448 
L 360.797664 -133.154543 
L 357.314436 -126.119075 
L 353.831209 -131.564525 
L 350.347981 -136.524492 
L 346.864754 -138.803714 
L 343.381526 -139.835952 
L 339.898299 -138.583811 
L 336.415071 -144.220953 
L 332.931844 -142.196843 
L 329.448616 -140.426529 
L 325.965389 -135.853997 
L 322.482161 -130.763667 
L 318.998934 -135.393606 
L 315.515706 -138.761048 
L 312.032479 -142.739182 
L 308.549251 -145.192132 
L 305.066023 -143.365962 
L 301.582796 -140.652937 
L 298.099568 -147.394875 
L 294.616341 -167.738997 
L 291.133113 -192.986511 
L 287.649886 -203.483791 
L 284.166658 -207.374712 
L 280.683431 -215.806895 
L 277.200203 -193.224946 
L 273.716976 -201.548571 
L 270.233748 -211.735193 
L 266.750521 -219.740516 
L 263.267293 -200.339498 
L 259.784066 -163.128142 
L 256.300838 -165.341636 
L 252.817611 -161.837293 
L 249.334383 -151.074254 
L 245.851156 -161.028581 
L 242.367928 -164.321377 
L 238.884701 -169.339227 
L 235.401473 -164.320522 
L 231.918246 -153.622527 
L 228.435018 -164.201849 
L 224.951791 -187.904142 
L 221.468563 -194.227851 
L 217.985336 -185.719203 
L 214.502108 -152.4246 
L 211.018881 -140.440883 
L 207.535653 -135.431224 
L 204.052426 -129.868217 
L 200.569198 -133.544892 
L 197.085971 -140.564097 
L 193.602743 -160.87565 
L 190.119516 -163.731076 
L 186.636288 -133.241436 
L 183.153061 -118.793953 
L 179.669833 -123.306764 
L 176.186605 -129.864308 
L 172.703378 -122.815441 
L 169.22015 -124.624185 
L 165.736923 -108.669174 
L 162.253695 -109.332772 
L 158.770468 -117.051928 
L 155.28724 -122.006018 
L 151.804013 -142.299566 
L 148.320785 -140.240757 
L 144.837558 -107.06305 
L 141.35433 -108.548494 
L 137.871103 -106.695936 
L 134.387875 -108.608169 
L 130.904648 -110.732318 
L 127.42142 -106.629942 
L 123.938193 -106.014511 
L 120.454965 -107.773164 
L 116.971738 -105.170919 
L 113.48851 -106.047095 
L 110.005283 -104.439499 
L 106.522055 -111.051929 
L 103.038828 -107.331608 
L 99.5556 -111.141008 
L 96.072373 -123.583326 
L 92.589145 -122.724591 
L 89.105918 -122.293155 
L 85.62269 -118.984236 
L 82.139463 -122.974336 
L 78.656235 -122.044931 
L 75.173008 -121.286738 
L 71.68978 -122.221038 
L 68.206553 -123.134944 
L 64.723325 -129.136327 
L 61.240098 -137.787656 
L 57.75687 -139.477688 
L 54.273643 -185.630562 
L 50.790415 -146.076552 
L 47.307188 -122.269183 
z
" style="stroke: #808080; stroke-opacity: 0.7"/>
    </defs>
    <g clip-path="url(#p32b8b5b3da)">
     <use xlink:href="#m618a5057e2" x="0" y="424.5775" style="fill: #808080; fill-opacity: 0.7; stroke: #808080; stroke-opacity: 0.7"/>
    </g>
   </g>
   <g id="line2d_31">
    <path d="M 47.307188 343.479003 
L 50.790415 344.539606 
L 54.273643 338.769314 
L 57.75687 327.972168 
L 61.240098 355.167377 
L 64.723325 354.304571 
L 68.206553 354.710849 
L 71.68978 361.504278 
L 75.173008 361.114309 
L 78.656235 357.303431 
L 82.139463 354.278319 
L 85.62269 356.019526 
L 89.105918 358.773377 
L 92.589145 358.85122 
L 96.072373 356.279071 
L 99.5556 361.04174 
L 103.038828 357.070479 
L 106.522055 363.218096 
L 110.005283 363.119811 
L 113.48851 358.663846 
L 116.971738 362.416174 
L 120.454965 365.688469 
L 123.938193 364.04044 
L 127.42142 365.254115 
L 130.904648 366.225103 
L 134.387875 363.770907 
L 137.871103 361.511992 
L 141.35433 365.475759 
L 144.837558 366.70898 
L 148.320785 365.712877 
L 151.804013 362.34606 
L 155.28724 367.285997 
L 158.770468 366.350216 
L 162.253695 350.982554 
L 165.736923 345.649541 
L 169.22015 360.570971 
L 172.703378 367.741449 
L 179.669833 367.741449 
L 183.153061 367.037983 
L 186.636288 364.391363 
L 190.119516 366.82351 
L 193.602743 360.812649 
L 197.085971 359.818429 
L 200.569198 361.60783 
L 204.052426 354.914049 
L 207.535653 348.923967 
L 211.018881 335.462112 
L 214.502108 270.682632 
L 217.985336 342.579691 
L 221.468563 366.236694 
L 224.951791 366.717477 
L 228.435018 366.234587 
L 231.918246 366.04282 
L 235.401473 364.217113 
L 238.884701 358.077907 
L 245.851156 361.994489 
L 249.334383 360.747835 
L 252.817611 359.945094 
L 256.300838 339.830651 
L 259.784066 357.656364 
L 263.267293 362.728189 
L 266.750521 366.535347 
L 270.233748 367.633849 
L 273.716976 367.625148 
L 277.200203 367.43431 
L 280.683431 335.435338 
L 284.166658 334.709587 
L 287.649886 336.345844 
L 291.133113 345.373266 
L 294.616341 343.817277 
L 298.099568 332.901037 
L 301.582796 326.437122 
L 305.066023 334.921237 
L 308.549251 320.619875 
L 312.032479 326.33806 
L 315.515706 303.561775 
L 318.998934 291.806646 
L 322.482161 310.521812 
L 325.965389 312.81867 
L 329.448616 329.15707 
L 332.931844 331.259472 
L 336.415071 329.78989 
L 339.898299 339.097815 
L 343.381526 334.414124 
L 346.864754 336.137966 
L 350.347981 333.46608 
L 353.831209 337.633796 
L 357.314436 321.64638 
L 360.797664 247.603756 
L 364.280891 303.947784 
L 367.764119 321.121734 
L 371.247346 307.05159 
L 374.730574 316.823247 
L 378.213801 325.156494 
L 381.697029 332.682726 
L 385.180256 348.458591 
L 388.663484 309.668305 
L 392.146711 332.74293 
L 395.629939 325.584318 
L 399.113166 334.065855 
L 402.596394 319.225369 
L 406.079621 306.293818 
L 409.562849 327.120165 
L 413.046076 318.249363 
L 416.529304 336.365666 
L 420.012531 311.808365 
L 423.495759 299.825658 
L 426.978986 326.197736 
L 430.462214 305.776097 
L 433.945441 275.943149 
L 437.428669 314.234995 
L 440.911896 327.928679 
L 444.395124 367.43023 
L 447.878352 337.85797 
L 451.361579 325.782512 
L 454.844807 295.497228 
L 458.328034 337.895887 
L 461.811262 332.036357 
L 465.294489 338.785304 
L 468.777717 286.290338 
L 472.260944 259.940109 
L 475.744172 242.994247 
L 479.227399 248.323768 
L 482.710627 260.398364 
L 486.193854 246.445794 
L 489.677082 289.927654 
L 493.160309 287.447223 
L 496.643537 288.783505 
L 500.126764 283.079865 
L 503.609992 303.56568 
L 507.093219 276.7274 
L 510.576447 267.272968 
L 514.059674 286.975656 
L 517.542902 288.480722 
L 521.026129 255.422228 
L 524.509357 254.915162 
L 527.992584 231.116968 
L 531.475812 216.813316 
L 534.959039 254.125727 
L 538.442267 275.208341 
L 541.925494 302.853446 
L 545.408722 269.310459 
L 548.891949 288.274786 
L 552.375177 289.369356 
L 555.858404 296.674129 
L 559.341632 286.2154 
L 562.824859 274.439785 
L 566.308087 290.774581 
L 569.791314 302.899356 
L 573.274542 309.187425 
L 576.75777 316.572535 
L 580.240997 307.650287 
L 583.724225 322.557811 
L 587.207452 334.34176 
L 590.69068 341.720477 
L 594.173907 320.437455 
L 597.657135 301.061648 
L 601.140362 293.619385 
L 604.62359 303.312371 
L 608.106817 325.534554 
L 611.590045 291.549389 
L 615.073272 330.060206 
L 618.5565 298.309727 
L 622.039727 343.869614 
L 625.522955 300.532906 
L 629.006182 289.23005 
L 632.48941 271.611518 
L 635.972637 286.618531 
L 639.455865 323.390965 
L 642.939092 293.576422 
L 646.42232 335.022628 
L 649.905547 344.866758 
L 653.388775 306.192416 
L 656.872002 270.554079 
L 660.35523 292.380239 
L 663.838457 314.953568 
L 667.321685 298.298972 
L 670.804912 294.09117 
L 674.28814 287.066342 
L 677.771367 253.553557 
L 681.254595 288.610681 
L 684.737822 276.755547 
L 688.22105 294.576676 
L 691.704277 283.161801 
L 695.187505 297.108388 
L 698.670732 311.623985 
L 702.15396 313.105652 
L 705.637188 281.974201 
L 705.637188 281.974201 
" clip-path="url(#p32b8b5b3da)" style="fill: none; stroke: #ff8c00; stroke-width: 2.3; stroke-linecap: square"/>
   </g>
   <g id="line2d_32">
    <path d="M 284.166658 384.117812 
L 284.166658 23.837812 
" clip-path="url(#p32b8b5b3da)" style="fill: none; stroke-dasharray: 5.55,2.4; stroke-dashoffset: 0; stroke: #808080; stroke-width: 1.5"/>
   </g>
   <g id="line2d_33">
    <path d="M 486.193854 384.117812 
L 486.193854 23.837812 
" clip-path="url(#p32b8b5b3da)" style="fill: none; stroke-dasharray: 5.55,2.4; stroke-dashoffset: 0; stroke: #808080; stroke-width: 1.5"/>
   </g>
   <g id="patch_3">
    <path d="M 47.307188 384.117812 
L 47.307188 23.837812 
" style="fill: none; stroke: #000000; stroke-width: 0.8; stroke-linejoin: miter; stroke-linecap: square"/>
   </g>
   <g id="patch_4">
    <path d="M 705.637188 384.117812 
L 705.637188 23.837812 
" style="fill: none; stroke: #000000; stroke-width: 0.8; stroke-linejoin: miter; stroke-linecap: square"/>
   </g>
   <g id="patch_5">
    <path d="M 47.307188 384.117812 
L 705.637188 384.117812 
" style="fill: none; stroke: #000000; stroke-width: 0.8; stroke-linejoin: miter; stroke-linecap: square"/>
   </g>
   <g id="patch_6">
    <path d="M 47.307188 23.837812 
L 705.637188 23.837812 
" style="fill: none; stroke: #000000; stroke-width: 0.8; stroke-linejoin: miter; stroke-linecap: square"/>
   </g>
   <g id="text_18">
    <!-- Facial trace: Autism spectrum condition (ASC) (female) -->
    <g transform="translate(183.950312 17.837812) scale(0.14 -0.14)">
     <defs>
      <path id="DejaVuSans-46" d="M 628 4666 
L 3309 4666 
L 3309 4134 
L 1259 4134 
L 1259 2759 
L 3109 2759 
L 3109 2228 
L 1259 2228 
L 1259 0 
L 628 0 
L 628 4666 
z
" transform="scale(0.015625)"/>
      <path id="DejaVuSans-63" d="M 3122 3366 
L 3122 2828 
Q 2878 2963 2633 3030 
Q 2388 3097 2138 3097 
Q 1578 3097 1268 2742 
Q 959 2388 959 1747 
Q 959 1106 1268 751 
Q 1578 397 2138 397 
Q 2388 397 2633 464 
Q 2878 531 3122 666 
L 3122 134 
Q 2881 22 2623 -34 
Q 2366 -91 2075 -91 
Q 1284 -91 818 406 
Q 353 903 353 1747 
Q 353 2603 823 3093 
Q 1294 3584 2113 3584 
Q 2378 3584 2631 3529 
Q 2884 3475 3122 3366 
z
" transform="scale(0.015625)"/>
      <path id="DejaVuSans-6c" d="M 603 4863 
L 1178 4863 
L 1178 0 
L 603 0 
L 603 4863 
z
" transform="scale(0.015625)"/>
      <path id="DejaVuSans-72" d="M 2631 2963 
Q 2534 3019 2420 3045 
Q 2306 3072 2169 3072 
Q 1681 3072 1420 2755 
Q 1159 2438 1159 1844 
L 1159 0 
L 581 0 
L 581 3500 
L 1159 3500 
L 1159 2956 
Q 1341 3275 1631 3429 
Q 1922 3584 2338 3584 
Q 2397 3584 2469 3576 
Q 2541 3569 2628 3553 
L 2631 2963 
z
" transform="scale(0.015625)"/>
      <path id="DejaVuSans-3a" d="M 750 794 
L 1409 794 
L 1409 0 
L 750 0 
L 750 794 
z
M 750 3309 
L 1409 3309 
L 1409 2516 
L 750 2516 
L 750 3309 
z
" transform="scale(0.015625)"/>
      <path id="DejaVuSans-75" d="M 544 1381 
L 544 3500 
L 1119 3500 
L 1119 1403 
Q 1119 906 1312 657 
Q 1506 409 1894 409 
Q 2359 409 2629 706 
Q 2900 1003 2900 1516 
L 2900 3500 
L 3475 3500 
L 3475 0 
L 2900 0 
L 2900 538 
Q 2691 219 2414 64 
Q 2138 -91 1772 -91 
Q 1169 -91 856 284 
Q 544 659 544 1381 
z
M 1991 3584 
L 1991 3584 
z
" transform="scale(0.015625)"/>
      <path id="DejaVuSans-70" d="M 1159 525 
L 1159 -1331 
L 581 -1331 
L 581 3500 
L 1159 3500 
L 1159 2969 
Q 1341 3281 1617 3432 
Q 1894 3584 2278 3584 
Q 2916 3584 3314 3078 
Q 3713 2572 3713 1747 
Q 3713 922 3314 415 
Q 2916 -91 2278 -91 
Q 1894 -91 1617 61 
Q 1341 213 1159 525 
z
M 3116 1747 
Q 3116 2381 2855 2742 
Q 2594 3103 2138 3103 
Q 1681 3103 1420 2742 
Q 1159 2381 1159 1747 
Q 1159 1113 1420 752 
Q 1681 391 2138 391 
Q 2594 391 2855 752 
Q 3116 1113 3116 1747 
z
" transform="scale(0.015625)"/>
      <path id="DejaVuSans-6f" d="M 1959 3097 
Q 1497 3097 1228 2736 
Q 959 2375 959 1747 
Q 959 1119 1226 758 
Q 1494 397 1959 397 
Q 2419 397 2687 759 
Q 2956 1122 2956 1747 
Q 2956 2369 2687 2733 
Q 2419 3097 1959 3097 
z
M 1959 3584 
Q 2709 3584 3137 3096 
Q 3566 2609 3566 1747 
Q 3566 888 3137 398 
Q 2709 -91 1959 -91 
Q 1206 -91 779 398 
Q 353 888 353 1747 
Q 353 2609 779 3096 
Q 1206 3584 1959 3584 
z
" transform="scale(0.015625)"/>
      <path id="DejaVuSans-64" d="M 2906 2969 
L 2906 4863 
L 3481 4863 
L 3481 0 
L 2906 0 
L 2906 525 
Q 2725 213 2448 61 
Q 2172 -91 1784 -91 
Q 1150 -91 751 415 
Q 353 922 353 1747 
Q 353 2572 751 3078 
Q 1150 3584 1784 3584 
Q 2172 3584 2448 3432 
Q 2725 3281 2906 2969 
z
M 947 1747 
Q 947 1113 1208 752 
Q 1469 391 1925 391 
Q 2381 391 2643 752 
Q 2906 1113 2906 1747 
Q 2906 2381 2643 2742 
Q 2381 3103 1925 3103 
Q 1469 3103 1208 2742 
Q 947 2381 947 1747 
z
" transform="scale(0.015625)"/>
      <path id="DejaVuSans-53" d="M 3425 4513 
L 3425 3897 
Q 3066 4069 2747 4153 
Q 2428 4238 2131 4238 
Q 1616 4238 1336 4038 
Q 1056 3838 1056 3469 
Q 1056 3159 1242 3001 
Q 1428 2844 1947 2747 
L 2328 2669 
Q 3034 2534 3370 2195 
Q 3706 1856 3706 1288 
Q 3706 609 3251 259 
Q 2797 -91 1919 -91 
Q 1588 -91 1214 -16 
Q 841 59 441 206 
L 441 856 
Q 825 641 1194 531 
Q 1563 422 1919 422 
Q 2459 422 2753 634 
Q 3047 847 3047 1241 
Q 3047 1584 2836 1778 
Q 2625 1972 2144 2069 
L 1759 2144 
Q 1053 2284 737 2584 
Q 422 2884 422 3419 
Q 422 4038 858 4394 
Q 1294 4750 2059 4750 
Q 2388 4750 2728 4690 
Q 3069 4631 3425 4513 
z
" transform="scale(0.015625)"/>
      <path id="DejaVuSans-43" d="M 4122 4306 
L 4122 3641 
Q 3803 3938 3442 4084 
Q 3081 4231 2675 4231 
Q 1875 4231 1450 3742 
Q 1025 3253 1025 2328 
Q 1025 1406 1450 917 
Q 1875 428 2675 428 
Q 3081 428 3442 575 
Q 3803 722 4122 1019 
L 4122 359 
Q 3791 134 3420 21 
Q 3050 -91 2638 -91 
Q 1578 -91 968 557 
Q 359 1206 359 2328 
Q 359 3453 968 4101 
Q 1578 4750 2638 4750 
Q 3056 4750 3426 4639 
Q 3797 4528 4122 4306 
z
" transform="scale(0.015625)"/>
      <path id="DejaVuSans-66" d="M 2375 4863 
L 2375 4384 
L 1825 4384 
Q 1516 4384 1395 4259 
Q 1275 4134 1275 3809 
L 1275 3500 
L 2222 3500 
L 2222 3053 
L 1275 3053 
L 1275 0 
L 697 0 
L 697 3053 
L 147 3053 
L 147 3500 
L 697 3500 
L 697 3744 
Q 697 4328 969 4595 
Q 1241 4863 1831 4863 
L 2375 4863 
z
" transform="scale(0.015625)"/>
     </defs>
     <use xlink:href="#DejaVuSans-46"/>
     <use xlink:href="#DejaVuSans-61" transform="translate(48.394531 0)"/>
     <use xlink:href="#DejaVuSans-63" transform="translate(109.673828 0)"/>
     <use xlink:href="#DejaVuSans-69" transform="translate(164.654297 0)"/>
     <use xlink:href="#DejaVuSans-61" transform="translate(192.4375 0)"/>
     <use xlink:href="#DejaVuSans-6c" transform="translate(253.716797 0)"/>
     <use xlink:href="#DejaVuSans-20" transform="translate(281.5 0)"/>
     <use xlink:href="#DejaVuSans-74" transform="translate(313.287109 0)"/>
     <use xlink:href="#DejaVuSans-72" transform="translate(352.496094 0)"/>
     <use xlink:href="#DejaVuSans-61" transform="translate(393.609375 0)"/>
     <use xlink:href="#DejaVuSans-63" transform="translate(454.888672 0)"/>
     <use xlink:href="#DejaVuSans-65" transform="translate(509.869141 0)"/>
     <use xlink:href="#DejaVuSans-3a" transform="translate(571.392578 0)"/>
     <use xlink:href="#DejaVuSans-20" transform="translate(605.083984 0)"/>
     <use xlink:href="#DejaVuSans-41" transform="translate(636.871094 0)"/>
     <use xlink:href="#DejaVuSans-75" transform="translate(705.279297 0)"/>
     <use xlink:href="#DejaVuSans-74" transform="translate(768.658203 0)"/>
     <use xlink:href="#DejaVuSans-69" transform="translate(807.867188 0)"/>
     <use xlink:href="#DejaVuSans-73" transform="translate(835.650391 0)"/>
     <use xlink:href="#DejaVuSans-6d" transform="translate(887.75 0)"/>
     <use xlink:href="#DejaVuSans-20" transform="translate(985.162109 0)"/>
     <use xlink:href="#DejaVuSans-73" transform="translate(1016.949219 0)"/>
     <use xlink:href="#DejaVuSans-70" transform="translate(1069.048828 0)"/>
     <use xlink:href="#DejaVuSans-65" transform="translate(1132.525391 0)"/>
     <use xlink:href="#DejaVuSans-63" transform="translate(1194.048828 0)"/>
     <use xlink:href="#DejaVuSans-74" transform="translate(1249.029297 0)"/>
     <use xlink:href="#DejaVuSans-72" transform="translate(1288.238281 0)"/>
     <use xlink:href="#DejaVuSans-75" transform="translate(1329.351562 0)"/>
     <use xlink:href="#DejaVuSans-6d" transform="translate(1392.730469 0)"/>
     <use xlink:href="#DejaVuSans-20" transform="translate(1490.142578 0)"/>
     <use xlink:href="#DejaVuSans-63" transform="translate(1521.929688 0)"/>
     <use xlink:href="#DejaVuSans-6f" transform="translate(1576.910156 0)"/>
     <use xlink:href="#DejaVuSans-6e" transform="translate(1638.091797 0)"/>
     <use xlink:href="#DejaVuSans-64" transform="translate(1701.470703 0)"/>
     <use xlink:href="#DejaVuSans-69" transform="translate(1764.947266 0)"/>
     <use xlink:href="#DejaVuSans-74" transform="translate(1792.730469 0)"/>
     <use xlink:href="#DejaVuSans-69" transform="translate(1831.939453 0)"/>
     <use xlink:href="#DejaVuSans-6f" transform="translate(1859.722656 0)"/>
     <use xlink:href="#DejaVuSans-6e" transform="translate(1920.904297 0)"/>
     <use xlink:href="#DejaVuSans-20" transform="translate(1984.283203 0)"/>
     <use xlink:href="#DejaVuSans-28" transform="translate(2016.070312 0)"/>
     <use xlink:href="#DejaVuSans-41" transform="translate(2055.083984 0)"/>
     <use xlink:href="#DejaVuSans-53" transform="translate(2123.492188 0)"/>
     <use xlink:href="#DejaVuSans-43" transform="translate(2186.96875 0)"/>
     <use xlink:href="#DejaVuSans-29" transform="translate(2256.792969 0)"/>
     <use xlink:href="#DejaVuSans-20" transform="translate(2295.806641 0)"/>
     <use xlink:href="#DejaVuSans-28" transform="translate(2327.59375 0)"/>
     <use xlink:href="#DejaVuSans-66" transform="translate(2366.607422 0)"/>
     <use xlink:href="#DejaVuSans-65" transform="translate(2401.8125 0)"/>
     <use xlink:href="#DejaVuSans-6d" transform="translate(2463.335938 0)"/>
     <use xlink:href="#DejaVuSans-61" transform="translate(2560.748047 0)"/>
     <use xlink:href="#DejaVuSans-6c" transform="translate(2622.027344 0)"/>
     <use xlink:href="#DejaVuSans-65" transform="translate(2649.810547 0)"/>
     <use xlink:href="#DejaVuSans-29" transform="translate(2711.333984 0)"/>
    </g>
   </g>
   <g id="legend_1">
    <g id="patch_7">
     <path d="M 57.207188 42.096094 
L 79.207188 42.096094 
L 79.207188 34.396094 
L 57.207188 34.396094 
z
" style="fill: #d3d3d3; fill-opacity: 0.5; stroke: #d3d3d3; stroke-opacity: 0.5; stroke-linejoin: miter"/>
    </g>
    <g id="text_19">
     <!-- Autism spectrum condition (ASC) ±2 SD -->
     <g transform="translate(88.007188 42.096094) scale(0.11 -0.11)">
      <defs>
       <path id="DejaVuSans-b1" d="M 2944 4013 
L 2944 2803 
L 4684 2803 
L 4684 2272 
L 2944 2272 
L 2944 1063 
L 2419 1063 
L 2419 2272 
L 678 2272 
L 678 2803 
L 2419 2803 
L 2419 4013 
L 2944 4013 
z
M 678 531 
L 4684 531 
L 4684 0 
L 678 0 
L 678 531 
z
" transform="scale(0.015625)"/>
       <path id="DejaVuSans-44" d="M 1259 4147 
L 1259 519 
L 2022 519 
Q 2988 519 3436 956 
Q 3884 1394 3884 2338 
Q 3884 3275 3436 3711 
Q 2988 4147 2022 4147 
L 1259 4147 
z
M 628 4666 
L 1925 4666 
Q 3281 4666 3915 4102 
Q 4550 3538 4550 2338 
Q 4550 1131 3912 565 
Q 3275 0 1925 0 
L 628 0 
L 628 4666 
z
" transform="scale(0.015625)"/>
      </defs>
      <use xlink:href="#DejaVuSans-41"/>
      <use xlink:href="#DejaVuSans-75" transform="translate(68.408203 0)"/>
      <use xlink:href="#DejaVuSans-74" transform="translate(131.787109 0)"/>
      <use xlink:href="#DejaVuSans-69" transform="translate(170.996094 0)"/>
      <use xlink:href="#DejaVuSans-73" transform="translate(198.779297 0)"/>
      <use xlink:href="#DejaVuSans-6d" transform="translate(250.878906 0)"/>
      <use xlink:href="#DejaVuSans-20" transform="translate(348.291016 0)"/>
      <use xlink:href="#DejaVuSans-73" transform="translate(380.078125 0)"/>
      <use xlink:href="#DejaVuSans-70" transform="translate(432.177734 0)"/>
      <use xlink:href="#DejaVuSans-65" transform="translate(495.654297 0)"/>
      <use xlink:href="#DejaVuSans-63" transform="translate(557.177734 0)"/>
      <use xlink:href="#DejaVuSans-74" transform="translate(612.158203 0)"/>
      <use xlink:href="#DejaVuSans-72" transform="translate(651.367188 0)"/>
      <use xlink:href="#DejaVuSans-75" transform="translate(692.480469 0)"/>
      <use xlink:href="#DejaVuSans-6d" transform="translate(755.859375 0)"/>
      <use xlink:href="#DejaVuSans-20" transform="translate(853.271484 0)"/>
      <use xlink:href="#DejaVuSans-63" transform="translate(885.058594 0)"/>
      <use xlink:href="#DejaVuSans-6f" transform="translate(940.039062 0)"/>
      <use xlink:href="#DejaVuSans-6e" transform="translate(1001.220703 0)"/>
      <use xlink:href="#DejaVuSans-64" transform="translate(1064.599609 0)"/>
      <use xlink:href="#DejaVuSans-69" transform="translate(1128.076172 0)"/>
      <use xlink:href="#DejaVuSans-74" transform="translate(1155.859375 0)"/>
      <use xlink:href="#DejaVuSans-69" transform="translate(1195.068359 0)"/>
      <use xlink:href="#DejaVuSans-6f" transform="translate(1222.851562 0)"/>
      <use xlink:href="#DejaVuSans-6e" transform="translate(1284.033203 0)"/>
      <use xlink:href="#DejaVuSans-20" transform="translate(1347.412109 0)"/>
      <use xlink:href="#DejaVuSans-28" transform="translate(1379.199219 0)"/>
      <use xlink:href="#DejaVuSans-41" transform="translate(1418.212891 0)"/>
      <use xlink:href="#DejaVuSans-53" transform="translate(1486.621094 0)"/>
      <use xlink:href="#DejaVuSans-43" transform="translate(1550.097656 0)"/>
      <use xlink:href="#DejaVuSans-29" transform="translate(1619.921875 0)"/>
      <use xlink:href="#DejaVuSans-20" transform="translate(1658.935547 0)"/>
      <use xlink:href="#DejaVuSans-b1" transform="translate(1690.722656 0)"/>
      <use xlink:href="#DejaVuSans-32" transform="translate(1774.511719 0)"/>
      <use xlink:href="#DejaVuSans-20" transform="translate(1838.134766 0)"/>
      <use xlink:href="#DejaVuSans-53" transform="translate(1869.921875 0)"/>
      <use xlink:href="#DejaVuSans-44" transform="translate(1933.398438 0)"/>
     </g>
    </g>
    <g id="patch_8">
     <path d="M 57.207188 58.242031 
L 79.207188 58.242031 
L 79.207188 50.542031 
L 57.207188 50.542031 
z
" style="fill: #808080; fill-opacity: 0.7; stroke: #808080; stroke-opacity: 0.7; stroke-linejoin: miter"/>
    </g>
    <g id="text_20">
     <!-- Autism spectrum condition (ASC) ±1 SD -->
     <g transform="translate(88.007188 58.242031) scale(0.11 -0.11)">
      <use xlink:href="#DejaVuSans-41"/>
      <use xlink:href="#DejaVuSans-75" transform="translate(68.408203 0)"/>
      <use xlink:href="#DejaVuSans-74" transform="translate(131.787109 0)"/>
      <use xlink:href="#DejaVuSans-69" transform="translate(170.996094 0)"/>
      <use xlink:href="#DejaVuSans-73" transform="translate(198.779297 0)"/>
      <use xlink:href="#DejaVuSans-6d" transform="translate(250.878906 0)"/>
      <use xlink:href="#DejaVuSans-20" transform="translate(348.291016 0)"/>
      <use xlink:href="#DejaVuSans-73" transform="translate(380.078125 0)"/>
      <use xlink:href="#DejaVuSans-70" transform="translate(432.177734 0)"/>
      <use xlink:href="#DejaVuSans-65" transform="translate(495.654297 0)"/>
      <use xlink:href="#DejaVuSans-63" transform="translate(557.177734 0)"/>
      <use xlink:href="#DejaVuSans-74" transform="translate(612.158203 0)"/>
      <use xlink:href="#DejaVuSans-72" transform="translate(651.367188 0)"/>
      <use xlink:href="#DejaVuSans-75" transform="translate(692.480469 0)"/>
      <use xlink:href="#DejaVuSans-6d" transform="translate(755.859375 0)"/>
      <use xlink:href="#DejaVuSans-20" transform="translate(853.271484 0)"/>
      <use xlink:href="#DejaVuSans-63" transform="translate(885.058594 0)"/>
      <use xlink:href="#DejaVuSans-6f" transform="translate(940.039062 0)"/>
      <use xlink:href="#DejaVuSans-6e" transform="translate(1001.220703 0)"/>
      <use xlink:href="#DejaVuSans-64" transform="translate(1064.599609 0)"/>
      <use xlink:href="#DejaVuSans-69" transform="translate(1128.076172 0)"/>
      <use xlink:href="#DejaVuSans-74" transform="translate(1155.859375 0)"/>
      <use xlink:href="#DejaVuSans-69" transform="translate(1195.068359 0)"/>
      <use xlink:href="#DejaVuSans-6f" transform="translate(1222.851562 0)"/>
      <use xlink:href="#DejaVuSans-6e" transform="translate(1284.033203 0)"/>
      <use xlink:href="#DejaVuSans-20" transform="translate(1347.412109 0)"/>
      <use xlink:href="#DejaVuSans-28" transform="translate(1379.199219 0)"/>
      <use xlink:href="#DejaVuSans-41" transform="translate(1418.212891 0)"/>
      <use xlink:href="#DejaVuSans-53" transform="translate(1486.621094 0)"/>
      <use xlink:href="#DejaVuSans-43" transform="translate(1550.097656 0)"/>
      <use xlink:href="#DejaVuSans-29" transform="translate(1619.921875 0)"/>
      <use xlink:href="#DejaVuSans-20" transform="translate(1658.935547 0)"/>
      <use xlink:href="#DejaVuSans-b1" transform="translate(1690.722656 0)"/>
      <use xlink:href="#DejaVuSans-31" transform="translate(1774.511719 0)"/>
      <use xlink:href="#DejaVuSans-20" transform="translate(1838.134766 0)"/>
      <use xlink:href="#DejaVuSans-53" transform="translate(1869.921875 0)"/>
      <use xlink:href="#DejaVuSans-44" transform="translate(1933.398438 0)"/>
     </g>
    </g>
    <g id="line2d_34">
     <path d="M 57.207188 70.537969 
L 68.207188 70.537969 
L 79.207188 70.537969 
" style="fill: none; stroke: #ff8c00; stroke-width: 2.3; stroke-linecap: square"/>
    </g>
    <g id="text_21">
     <!-- Patient -->
     <g transform="translate(88.007188 74.387969) scale(0.11 -0.11)">
      <defs>
       <path id="DejaVuSans-50" d="M 1259 4147 
L 1259 2394 
L 2053 2394 
Q 2494 2394 2734 2622 
Q 2975 2850 2975 3272 
Q 2975 3691 2734 3919 
Q 2494 4147 2053 4147 
L 1259 4147 
z
M 628 4666 
L 2053 4666 
Q 2838 4666 3239 4311 
Q 3641 3956 3641 3272 
Q 3641 2581 3239 2228 
Q 2838 1875 2053 1875 
L 1259 1875 
L 1259 0 
L 628 0 
L 628 4666 
z
" transform="scale(0.015625)"/>
      </defs>
      <use xlink:href="#DejaVuSans-50"/>
      <use xlink:href="#DejaVuSans-61" transform="translate(55.802734 0)"/>
      <use xlink:href="#DejaVuSans-74" transform="translate(117.082031 0)"/>
      <use xlink:href="#DejaVuSans-69" transform="translate(156.291016 0)"/>
      <use xlink:href="#DejaVuSans-65" transform="translate(184.074219 0)"/>
      <use xlink:href="#DejaVuSans-6e" transform="translate(245.597656 0)"/>
      <use xlink:href="#DejaVuSans-74" transform="translate(308.976562 0)"/>
     </g>
    </g>
   </g>
  </g>
 </g>
 <defs>
  <clipPath id="p32b8b5b3da">
   <rect x="47.307188" y="23.837812" width="658.33" height="360.28"/>
  </clipPath>
 </defs>
</svg>
