<?xml version="1.0" encoding="utf-8" standalone="no"?>
<!DOCTYPE svg PUBLIC "-//W3C//DTD SVG 1.1//EN"
  "http://www.w3.org/Graphics/SVG/1.1/DTD/svg11.dtd">
<svg xmlns:xlink="http://www.w3.org/1999/xlink" width="712.837188pt" height="424.5775pt" viewBox="0 0 712.837188 424.5775" xmlns="http://www.w3.org/2000/svg" version="1.1">
 <metadata>
  <rdf:RDF xmlns:dc="http://purl.org/dc/elements/1.1/" xmlns:cc="http://creativecommons.org/ns#" xmlns:rdf="http://www.w3.org/1999/02/22-rdf-syntax-ns#">
   <cc:Work>
    <dc:type rdf:resource="http://purl.org/dc/dcmitype/StillImage"/>
    <dc:date>2026-06-14T18:57:57.264843</dc:date>
    <dc:format>image/svg+xml</dc:format>
    <dc:creator>
     <cc:Agent>
      <dc:title>Matplotlib v3.10.1, https://matplotlib.org/</dc:title>
     </cc:Agent>
    </dc:creator>
   </cc:Work>
  </rdf:RDF>
 </metadata>
 <defs>
  <style type="text/css">*{stroke-linejoin: round; stroke-linecap: butt}</style>
 </defs>
 <g id="figure_1">
  <g id="patch_1">
   <path d="M 0 424.5775 
L 712.837188 424.5775 
L 712.837188 0 
L 0 0 
z
" style="fill: #ffffff"/>
  </g>
  <g id="axes_1">
   <g id="patch_2">
    <path d="M 47.307188 384.117812 
L 705.637188 384.117812 
L 705.637188 23.837812 
L 47.307188 23.837812 
z
" style="fill: #ffffff"/>
   </g>
   <g id="matplotlib.axis_1">
    <g id="xtick_1">
     <g id="line2d_1">
      <path d="M 47.307188 384.117812 
L 47.307188 23.837812 
" clip-path="url(#p1da4304f2a)" style="fill: none; stroke: #b0b0b0; stroke-opacity: 0.2; stroke-width: 0.6; stroke-linecap: square"/>
     </g>
     <g id="line2d_2">
      <defs>
       <path id="m960440f3e9" d="M 0 0 
L 0 3.5 
" style="stroke: #000000; stroke-width: 0.8"/>
      </defs>
      <g>
       <use xlink:href="#m960440f3e9" x="47.307188" y="384.117812" style="stroke: #000000; stroke-width: 0.8"/>
      </g>
     </g>
     <g id="text_1">
      <!-- 0 -->
      <g transform="translate(43.807813 399.476094) scale(0.11 -0.11)">
       <defs>
        <path id="DejaVuSans-30" d="M 2034 4250 
Q 1547 4250 1301 3770 
Q 1056 3291 1056 2328 
Q 1056 1369 1301 889 
Q 1547 409 2034 409 
Q 2525 409 2770 889 
Q 3016 1369 3016 2328 
Q 3016 3291 2770 3770 
Q 2525 4250 2034 4250 
z
M 2034 4750 
Q 2819 4750 3233 4129 
Q 3647 3509 3647 2328 
Q 3647 1150 3233 529 
Q 2819 -91 2034 -91 
Q 1250 -91 836 529 
Q 422 1150 422 2328 
Q 422 3509 836 4129 
Q 1250 4750 2034 4750 
z
" transform="scale(0.015625)"/>
       </defs>
       <use xlink:href="#DejaVuSans-30"/>
      </g>
     </g>
    </g>
    <g id="xtick_2">
     <g id="line2d_3">
      <path d="M 134.387875 384.117812 
L 134.387875 23.837812 
" clip-path="url(#p1da4304f2a)" style="fill: none; stroke: #b0b0b0; stroke-opacity: 0.2; stroke-width: 0.6; stroke-linecap: square"/>
     </g>
     <g id="line2d_4">
      <g>
       <use xlink:href="#m960440f3e9" x="134.387875" y="384.117812" style="stroke: #000000; stroke-width: 0.8"/>
      </g>
     </g>
     <g id="text_2">
      <!-- 25 -->
      <g transform="translate(127.389125 399.476094) scale(0.11 -0.11)">
       <defs>
        <path id="DejaVuSans-32" d="M 1228 531 
L 3431 531 
L 3431 0 
L 469 0 
L 469 531 
Q 828 903 1448 1529 
Q 2069 2156 2228 2338 
Q 2531 2678 2651 2914 
Q 2772 3150 2772 3378 
Q 2772 3750 2511 3984 
Q 2250 4219 1831 4219 
Q 1534 4219 1204 4116 
Q 875 4013 500 3803 
L 500 4441 
Q 881 4594 1212 4672 
Q 1544 4750 1819 4750 
Q 2544 4750 2975 4387 
Q 3406 4025 3406 3419 
Q 3406 3131 3298 2873 
Q 3191 2616 2906 2266 
Q 2828 2175 2409 1742 
Q 1991 1309 1228 531 
z
" transform="scale(0.015625)"/>
        <path id="DejaVuSans-35" d="M 691 4666 
L 3169 4666 
L 3169 4134 
L 1269 4134 
L 1269 2991 
Q 1406 3038 1543 3061 
Q 1681 3084 1819 3084 
Q 2600 3084 3056 2656 
Q 3513 2228 3513 1497 
Q 3513 744 3044 326 
Q 2575 -91 1722 -91 
Q 1428 -91 1123 -41 
Q 819 9 494 109 
L 494 744 
Q 775 591 1075 516 
Q 1375 441 1709 441 
Q 2250 441 2565 725 
Q 2881 1009 2881 1497 
Q 2881 1984 2565 2268 
Q 2250 2553 1709 2553 
Q 1456 2553 1204 2497 
Q 953 2441 691 2322 
L 691 4666 
z
" transform="scale(0.015625)"/>
       </defs>
       <use xlink:href="#DejaVuSans-32"/>
       <use xlink:href="#DejaVuSans-35" transform="translate(63.623047 0)"/>
      </g>
     </g>
    </g>
    <g id="xtick_3">
     <g id="line2d_5">
      <path d="M 221.468563 384.117812 
L 221.468563 23.837812 
" clip-path="url(#p1da4304f2a)" style="fill: none; stroke: #b0b0b0; stroke-opacity: 0.2; stroke-width: 0.6; stroke-linecap: square"/>
     </g>
     <g id="line2d_6">
      <g>
       <use xlink:href="#m960440f3e9" x="221.468563" y="384.117812" style="stroke: #000000; stroke-width: 0.8"/>
      </g>
     </g>
     <g id="text_3">
      <!-- 50 -->
      <g transform="translate(214.469813 399.476094) scale(0.11 -0.11)">
       <use xlink:href="#DejaVuSans-35"/>
       <use xlink:href="#DejaVuSans-30" transform="translate(63.623047 0)"/>
      </g>
     </g>
    </g>
    <g id="xtick_4">
     <g id="line2d_7">
      <path d="M 308.549251 384.117812 
L 308.549251 23.837812 
" clip-path="url(#p1da4304f2a)" style="fill: none; stroke: #b0b0b0; stroke-opacity: 0.2; stroke-width: 0.6; stroke-linecap: square"/>
     </g>
     <g id="line2d_8">
      <g>
       <use xlink:href="#m960440f3e9" x="308.549251" y="384.117812" style="stroke: #000000; stroke-width: 0.8"/>
      </g>
     </g>
     <g id="text_4">
      <!-- 75 -->
      <g transform="translate(301.550501 399.476094) scale(0.11 -0.11)">
       <defs>
        <path id="DejaVuSans-37" d="M 525 4666 
L 3525 4666 
L 3525 4397 
L 1831 0 
L 1172 0 
L 2766 4134 
L 525 4134 
L 525 4666 
z
" transform="scale(0.015625)"/>
       </defs>
       <use xlink:href="#DejaVuSans-37"/>
       <use xlink:href="#DejaVuSans-35" transform="translate(63.623047 0)"/>
      </g>
     </g>
    </g>
    <g id="xtick_5">
     <g id="line2d_9">
      <path d="M 395.629939 384.117812 
L 395.629939 23.837812 
" clip-path="url(#p1da4304f2a)" style="fill: none; stroke: #b0b0b0; stroke-opacity: 0.2; stroke-width: 0.6; stroke-linecap: square"/>
     </g>
     <g id="line2d_10">
      <g>
       <use xlink:href="#m960440f3e9" x="395.629939" y="384.117812" style="stroke: #000000; stroke-width: 0.8"/>
      </g>
     </g>
     <g id="text_5">
      <!-- 100 -->
      <g transform="translate(385.131814 399.476094) scale(0.11 -0.11)">
       <defs>
        <path id="DejaVuSans-31" d="M 794 531 
L 1825 531 
L 1825 4091 
L 703 3866 
L 703 4441 
L 1819 4666 
L 2450 4666 
L 2450 531 
L 3481 531 
L 3481 0 
L 794 0 
L 794 531 
z
" transform="scale(0.015625)"/>
       </defs>
       <use xlink:href="#DejaVuSans-31"/>
       <use xlink:href="#DejaVuSans-30" transform="translate(63.623047 0)"/>
       <use xlink:href="#DejaVuSans-30" transform="translate(127.246094 0)"/>
      </g>
     </g>
    </g>
    <g id="xtick_6">
     <g id="line2d_11">
      <path d="M 482.710627 384.117812 
L 482.710627 23.837812 
" clip-path="url(#p1da4304f2a)" style="fill: none; stroke: #b0b0b0; stroke-opacity: 0.2; stroke-width: 0.6; stroke-linecap: square"/>
     </g>
     <g id="line2d_12">
      <g>
       <use xlink:href="#m960440f3e9" x="482.710627" y="384.117812" style="stroke: #000000; stroke-width: 0.8"/>
      </g>
     </g>
     <g id="text_6">
      <!-- 125 -->
      <g transform="translate(472.212502 399.476094) scale(0.11 -0.11)">
       <use xlink:href="#DejaVuSans-31"/>
       <use xlink:href="#DejaVuSans-32" transform="translate(63.623047 0)"/>
       <use xlink:href="#DejaVuSans-35" transform="translate(127.246094 0)"/>
      </g>
     </g>
    </g>
    <g id="xtick_7">
     <g id="line2d_13">
      <path d="M 569.791314 384.117812 
L 569.791314 23.837812 
" clip-path="url(#p1da4304f2a)" style="fill: none; stroke: #b0b0b0; stroke-opacity: 0.2; stroke-width: 0.6; stroke-linecap: square"/>
     </g>
     <g id="line2d_14">
      <g>
       <use xlink:href="#m960440f3e9" x="569.791314" y="384.117812" style="stroke: #000000; stroke-width: 0.8"/>
      </g>
     </g>
     <g id="text_7">
      <!-- 150 -->
      <g transform="translate(559.293189 399.476094) scale(0.11 -0.11)">
       <use xlink:href="#DejaVuSans-31"/>
       <use xlink:href="#DejaVuSans-35" transform="translate(63.623047 0)"/>
       <use xlink:href="#DejaVuSans-30" transform="translate(127.246094 0)"/>
      </g>
     </g>
    </g>
    <g id="xtick_8">
     <g id="line2d_15">
      <path d="M 656.872002 384.117812 
L 656.872002 23.837812 
" clip-path="url(#p1da4304f2a)" style="fill: none; stroke: #b0b0b0; stroke-opacity: 0.2; stroke-width: 0.6; stroke-linecap: square"/>
     </g>
     <g id="line2d_16">
      <g>
       <use xlink:href="#m960440f3e9" x="656.872002" y="384.117812" style="stroke: #000000; stroke-width: 0.8"/>
      </g>
     </g>
     <g id="text_8">
      <!-- 175 -->
      <g transform="translate(646.373877 399.476094) scale(0.11 -0.11)">
       <use xlink:href="#DejaVuSans-31"/>
       <use xlink:href="#DejaVuSans-37" transform="translate(63.623047 0)"/>
       <use xlink:href="#DejaVuSans-35" transform="translate(127.246094 0)"/>
      </g>
     </g>
    </g>
    <g id="text_9">
     <!-- Time (s) -->
     <g transform="translate(352.0775 414.881875) scale(0.12 -0.12)">
      <defs>
       <path id="DejaVuSans-54" d="M -19 4666 
L 3928 4666 
L 3928 4134 
L 2272 4134 
L 2272 0 
L 1638 0 
L 1638 4134 
L -19 4134 
L -19 4666 
z
" transform="scale(0.015625)"/>
       <path id="DejaVuSans-69" d="M 603 3500 
L 1178 3500 
L 1178 0 
L 603 0 
L 603 3500 
z
M 603 4863 
L 1178 4863 
L 1178 4134 
L 603 4134 
L 603 4863 
z
" transform="scale(0.015625)"/>
       <path id="DejaVuSans-6d" d="M 3328 2828 
Q 3544 3216 3844 3400 
Q 4144 3584 4550 3584 
Q 5097 3584 5394 3201 
Q 5691 2819 5691 2113 
L 5691 0 
L 5113 0 
L 5113 2094 
Q 5113 2597 4934 2840 
Q 4756 3084 4391 3084 
Q 3944 3084 3684 2787 
Q 3425 2491 3425 1978 
L 3425 0 
L 2847 0 
L 2847 2094 
Q 2847 2600 2669 2842 
Q 2491 3084 2119 3084 
Q 1678 3084 1418 2786 
Q 1159 2488 1159 1978 
L 1159 0 
L 581 0 
L 581 3500 
L 1159 3500 
L 1159 2956 
Q 1356 3278 1631 3431 
Q 1906 3584 2284 3584 
Q 2666 3584 2933 3390 
Q 3200 3197 3328 2828 
z
" transform="scale(0.015625)"/>
       <path id="DejaVuSans-65" d="M 3597 1894 
L 3597 1613 
L 953 1613 
Q 991 1019 1311 708 
Q 1631 397 2203 397 
Q 2534 397 2845 478 
Q 3156 559 3463 722 
L 3463 178 
Q 3153 47 2828 -22 
Q 2503 -91 2169 -91 
Q 1331 -91 842 396 
Q 353 884 353 1716 
Q 353 2575 817 3079 
Q 1281 3584 2069 3584 
Q 2775 3584 3186 3129 
Q 3597 2675 3597 1894 
z
M 3022 2063 
Q 3016 2534 2758 2815 
Q 2500 3097 2075 3097 
Q 1594 3097 1305 2825 
Q 1016 2553 972 2059 
L 3022 2063 
z
" transform="scale(0.015625)"/>
       <path id="DejaVuSans-20" transform="scale(0.015625)"/>
       <path id="DejaVuSans-28" d="M 1984 4856 
Q 1566 4138 1362 3434 
Q 1159 2731 1159 2009 
Q 1159 1288 1364 580 
Q 1569 -128 1984 -844 
L 1484 -844 
Q 1016 -109 783 600 
Q 550 1309 550 2009 
Q 550 2706 781 3412 
Q 1013 4119 1484 4856 
L 1984 4856 
z
" transform="scale(0.015625)"/>
       <path id="DejaVuSans-73" d="M 2834 3397 
L 2834 2853 
Q 2591 2978 2328 3040 
Q 2066 3103 1784 3103 
Q 1356 3103 1142 2972 
Q 928 2841 928 2578 
Q 928 2378 1081 2264 
Q 1234 2150 1697 2047 
L 1894 2003 
Q 2506 1872 2764 1633 
Q 3022 1394 3022 966 
Q 3022 478 2636 193 
Q 2250 -91 1575 -91 
Q 1294 -91 989 -36 
Q 684 19 347 128 
L 347 722 
Q 666 556 975 473 
Q 1284 391 1588 391 
Q 1994 391 2212 530 
Q 2431 669 2431 922 
Q 2431 1156 2273 1281 
Q 2116 1406 1581 1522 
L 1381 1569 
Q 847 1681 609 1914 
Q 372 2147 372 2553 
Q 372 3047 722 3315 
Q 1072 3584 1716 3584 
Q 2034 3584 2315 3537 
Q 2597 3491 2834 3397 
z
" transform="scale(0.015625)"/>
       <path id="DejaVuSans-29" d="M 513 4856 
L 1013 4856 
Q 1481 4119 1714 3412 
Q 1947 2706 1947 2009 
Q 1947 1309 1714 600 
Q 1481 -109 1013 -844 
L 513 -844 
Q 928 -128 1133 580 
Q 1338 1288 1338 2009 
Q 1338 2731 1133 3434 
Q 928 4138 513 4856 
z
" transform="scale(0.015625)"/>
      </defs>
      <use xlink:href="#DejaVuSans-54"/>
      <use xlink:href="#DejaVuSans-69" transform="translate(57.958984 0)"/>
      <use xlink:href="#DejaVuSans-6d" transform="translate(85.742188 0)"/>
      <use xlink:href="#DejaVuSans-65" transform="translate(183.154297 0)"/>
      <use xlink:href="#DejaVuSans-20" transform="translate(244.677734 0)"/>
      <use xlink:href="#DejaVuSans-28" transform="translate(276.464844 0)"/>
      <use xlink:href="#DejaVuSans-73" transform="translate(315.478516 0)"/>
      <use xlink:href="#DejaVuSans-29" transform="translate(367.578125 0)"/>
     </g>
    </g>
   </g>
   <g id="matplotlib.axis_2">
    <g id="ytick_1">
     <g id="line2d_17">
      <path d="M 47.307188 367.741449 
L 705.637188 367.741449 
" clip-path="url(#p1da4304f2a)" style="fill: none; stroke: #b0b0b0; stroke-opacity: 0.2; stroke-width: 0.6; stroke-linecap: square"/>
     </g>
     <g id="line2d_18">
      <defs>
       <path id="madfebc69c9" d="M 0 0 
L -3.5 0 
" style="stroke: #000000; stroke-width: 0.8"/>
      </defs>
      <g>
       <use xlink:href="#madfebc69c9" x="47.307188" y="367.741449" style="stroke: #000000; stroke-width: 0.8"/>
      </g>
     </g>
     <g id="text_10">
      <!-- 0.0 -->
      <g transform="translate(22.81375 371.920589) scale(0.11 -0.11)">
       <defs>
        <path id="DejaVuSans-2e" d="M 684 794 
L 1344 794 
L 1344 0 
L 684 0 
L 684 794 
z
" transform="scale(0.015625)"/>
       </defs>
       <use xlink:href="#DejaVuSans-30"/>
       <use xlink:href="#DejaVuSans-2e" transform="translate(63.623047 0)"/>
       <use xlink:href="#DejaVuSans-30" transform="translate(95.410156 0)"/>
      </g>
     </g>
    </g>
    <g id="ytick_2">
     <g id="line2d_19">
      <path d="M 47.307188 317.507205 
L 705.637188 317.507205 
" clip-path="url(#p1da4304f2a)" style="fill: none; stroke: #b0b0b0; stroke-opacity: 0.2; stroke-width: 0.6; stroke-linecap: square"/>
     </g>
     <g id="line2d_20">
      <g>
       <use xlink:href="#madfebc69c9" x="47.307188" y="317.507205" style="stroke: #000000; stroke-width: 0.8"/>
      </g>
     </g>
     <g id="text_11">
      <!-- 0.5 -->
      <g transform="translate(22.81375 321.686345) scale(0.11 -0.11)">
       <use xlink:href="#DejaVuSans-30"/>
       <use xlink:href="#DejaVuSans-2e" transform="translate(63.623047 0)"/>
       <use xlink:href="#DejaVuSans-35" transform="translate(95.410156 0)"/>
      </g>
     </g>
    </g>
    <g id="ytick_3">
     <g id="line2d_21">
      <path d="M 47.307188 267.27296 
L 705.637188 267.27296 
" clip-path="url(#p1da4304f2a)" style="fill: none; stroke: #b0b0b0; stroke-opacity: 0.2; stroke-width: 0.6; stroke-linecap: square"/>
     </g>
     <g id="line2d_22">
      <g>
       <use xlink:href="#madfebc69c9" x="47.307188" y="267.27296" style="stroke: #000000; stroke-width: 0.8"/>
      </g>
     </g>
     <g id="text_12">
      <!-- 1.0 -->
      <g transform="translate(22.81375 271.452101) scale(0.11 -0.11)">
       <use xlink:href="#DejaVuSans-31"/>
       <use xlink:href="#DejaVuSans-2e" transform="translate(63.623047 0)"/>
       <use xlink:href="#DejaVuSans-30" transform="translate(95.410156 0)"/>
      </g>
     </g>
    </g>
    <g id="ytick_4">
     <g id="line2d_23">
      <path d="M 47.307188 217.038716 
L 705.637188 217.038716 
" clip-path="url(#p1da4304f2a)" style="fill: none; stroke: #b0b0b0; stroke-opacity: 0.2; stroke-width: 0.6; stroke-linecap: square"/>
     </g>
     <g id="line2d_24">
      <g>
       <use xlink:href="#madfebc69c9" x="47.307188" y="217.038716" style="stroke: #000000; stroke-width: 0.8"/>
      </g>
     </g>
     <g id="text_13">
      <!-- 1.5 -->
      <g transform="translate(22.81375 221.217857) scale(0.11 -0.11)">
       <use xlink:href="#DejaVuSans-31"/>
       <use xlink:href="#DejaVuSans-2e" transform="translate(63.623047 0)"/>
       <use xlink:href="#DejaVuSans-35" transform="translate(95.410156 0)"/>
      </g>
     </g>
    </g>
    <g id="ytick_5">
     <g id="line2d_25">
      <path d="M 47.307188 166.804472 
L 705.637188 166.804472 
" clip-path="url(#p1da4304f2a)" style="fill: none; stroke: #b0b0b0; stroke-opacity: 0.2; stroke-width: 0.6; stroke-linecap: square"/>
     </g>
     <g id="line2d_26">
      <g>
       <use xlink:href="#madfebc69c9" x="47.307188" y="166.804472" style="stroke: #000000; stroke-width: 0.8"/>
      </g>
     </g>
     <g id="text_14">
      <!-- 2.0 -->
      <g transform="translate(22.81375 170.983612) scale(0.11 -0.11)">
       <use xlink:href="#DejaVuSans-32"/>
       <use xlink:href="#DejaVuSans-2e" transform="translate(63.623047 0)"/>
       <use xlink:href="#DejaVuSans-30" transform="translate(95.410156 0)"/>
      </g>
     </g>
    </g>
    <g id="ytick_6">
     <g id="line2d_27">
      <path d="M 47.307188 116.570227 
L 705.637188 116.570227 
" clip-path="url(#p1da4304f2a)" style="fill: none; stroke: #b0b0b0; stroke-opacity: 0.2; stroke-width: 0.6; stroke-linecap: square"/>
     </g>
     <g id="line2d_28">
      <g>
       <use xlink:href="#madfebc69c9" x="47.307188" y="116.570227" style="stroke: #000000; stroke-width: 0.8"/>
      </g>
     </g>
     <g id="text_15">
      <!-- 2.5 -->
      <g transform="translate(22.81375 120.749368) scale(0.11 -0.11)">
       <use xlink:href="#DejaVuSans-32"/>
       <use xlink:href="#DejaVuSans-2e" transform="translate(63.623047 0)"/>
       <use xlink:href="#DejaVuSans-35" transform="translate(95.410156 0)"/>
      </g>
     </g>
    </g>
    <g id="ytick_7">
     <g id="line2d_29">
      <path d="M 47.307188 66.335983 
L 705.637188 66.335983 
" clip-path="url(#p1da4304f2a)" style="fill: none; stroke: #b0b0b0; stroke-opacity: 0.2; stroke-width: 0.6; stroke-linecap: square"/>
     </g>
     <g id="line2d_30">
      <g>
       <use xlink:href="#madfebc69c9" x="47.307188" y="66.335983" style="stroke: #000000; stroke-width: 0.8"/>
      </g>
     </g>
     <g id="text_16">
      <!-- 3.0 -->
      <g transform="translate(22.81375 70.515124) scale(0.11 -0.11)">
       <defs>
        <path id="DejaVuSans-33" d="M 2597 2516 
Q 3050 2419 3304 2112 
Q 3559 1806 3559 1356 
Q 3559 666 3084 287 
Q 2609 -91 1734 -91 
Q 1441 -91 1130 -33 
Q 819 25 488 141 
L 488 750 
Q 750 597 1062 519 
Q 1375 441 1716 441 
Q 2309 441 2620 675 
Q 2931 909 2931 1356 
Q 2931 1769 2642 2001 
Q 2353 2234 1838 2234 
L 1294 2234 
L 1294 2753 
L 1863 2753 
Q 2328 2753 2575 2939 
Q 2822 3125 2822 3475 
Q 2822 3834 2567 4026 
Q 2313 4219 1838 4219 
Q 1578 4219 1281 4162 
Q 984 4106 628 3988 
L 628 4550 
Q 988 4650 1302 4700 
Q 1616 4750 1894 4750 
Q 2613 4750 3031 4423 
Q 3450 4097 3450 3541 
Q 3450 3153 3228 2886 
Q 3006 2619 2597 2516 
z
" transform="scale(0.015625)"/>
       </defs>
       <use xlink:href="#DejaVuSans-33"/>
       <use xlink:href="#DejaVuSans-2e" transform="translate(63.623047 0)"/>
       <use xlink:href="#DejaVuSans-30" transform="translate(95.410156 0)"/>
      </g>
     </g>
    </g>
    <g id="text_17">
     <!-- AU mean intensity -->
     <g transform="translate(16.318125 259.314687) rotate(-90) scale(0.12 -0.12)">
      <defs>
       <path id="DejaVuSans-41" d="M 2188 4044 
L 1331 1722 
L 3047 1722 
L 2188 4044 
z
M 1831 4666 
L 2547 4666 
L 4325 0 
L 3669 0 
L 3244 1197 
L 1141 1197 
L 716 0 
L 50 0 
L 1831 4666 
z
" transform="scale(0.015625)"/>
       <path id="DejaVuSans-55" d="M 556 4666 
L 1191 4666 
L 1191 1831 
Q 1191 1081 1462 751 
Q 1734 422 2344 422 
Q 2950 422 3222 751 
Q 3494 1081 3494 1831 
L 3494 4666 
L 4128 4666 
L 4128 1753 
Q 4128 841 3676 375 
Q 3225 -91 2344 -91 
Q 1459 -91 1007 375 
Q 556 841 556 1753 
L 556 4666 
z
" transform="scale(0.015625)"/>
       <path id="DejaVuSans-61" d="M 2194 1759 
Q 1497 1759 1228 1600 
Q 959 1441 959 1056 
Q 959 750 1161 570 
Q 1363 391 1709 391 
Q 2188 391 2477 730 
Q 2766 1069 2766 1631 
L 2766 1759 
L 2194 1759 
z
M 3341 1997 
L 3341 0 
L 2766 0 
L 2766 531 
Q 2569 213 2275 61 
Q 1981 -91 1556 -91 
Q 1019 -91 701 211 
Q 384 513 384 1019 
Q 384 1609 779 1909 
Q 1175 2209 1959 2209 
L 2766 2209 
L 2766 2266 
Q 2766 2663 2505 2880 
Q 2244 3097 1772 3097 
Q 1472 3097 1187 3025 
Q 903 2953 641 2809 
L 641 3341 
Q 956 3463 1253 3523 
Q 1550 3584 1831 3584 
Q 2591 3584 2966 3190 
Q 3341 2797 3341 1997 
z
" transform="scale(0.015625)"/>
       <path id="DejaVuSans-6e" d="M 3513 2113 
L 3513 0 
L 2938 0 
L 2938 2094 
Q 2938 2591 2744 2837 
Q 2550 3084 2163 3084 
Q 1697 3084 1428 2787 
Q 1159 2491 1159 1978 
L 1159 0 
L 581 0 
L 581 3500 
L 1159 3500 
L 1159 2956 
Q 1366 3272 1645 3428 
Q 1925 3584 2291 3584 
Q 2894 3584 3203 3211 
Q 3513 2838 3513 2113 
z
" transform="scale(0.015625)"/>
       <path id="DejaVuSans-74" d="M 1172 4494 
L 1172 3500 
L 2356 3500 
L 2356 3053 
L 1172 3053 
L 1172 1153 
Q 1172 725 1289 603 
Q 1406 481 1766 481 
L 2356 481 
L 2356 0 
L 1766 0 
Q 1100 0 847 248 
Q 594 497 594 1153 
L 594 3053 
L 172 3053 
L 172 3500 
L 594 3500 
L 594 4494 
L 1172 4494 
z
" transform="scale(0.015625)"/>
       <path id="DejaVuSans-79" d="M 2059 -325 
Q 1816 -950 1584 -1140 
Q 1353 -1331 966 -1331 
L 506 -1331 
L 506 -850 
L 844 -850 
Q 1081 -850 1212 -737 
Q 1344 -625 1503 -206 
L 1606 56 
L 191 3500 
L 800 3500 
L 1894 763 
L 2988 3500 
L 3597 3500 
L 2059 -325 
z
" transform="scale(0.015625)"/>
      </defs>
      <use xlink:href="#DejaVuSans-41"/>
      <use xlink:href="#DejaVuSans-55" transform="translate(68.408203 0)"/>
      <use xlink:href="#DejaVuSans-20" transform="translate(141.601562 0)"/>
      <use xlink:href="#DejaVuSans-6d" transform="translate(173.388672 0)"/>
      <use xlink:href="#DejaVuSans-65" transform="translate(270.800781 0)"/>
      <use xlink:href="#DejaVuSans-61" transform="translate(332.324219 0)"/>
      <use xlink:href="#DejaVuSans-6e" transform="translate(393.603516 0)"/>
      <use xlink:href="#DejaVuSans-20" transform="translate(456.982422 0)"/>
      <use xlink:href="#DejaVuSans-69" transform="translate(488.769531 0)"/>
      <use xlink:href="#DejaVuSans-6e" transform="translate(516.552734 0)"/>
      <use xlink:href="#DejaVuSans-74" transform="translate(579.931641 0)"/>
      <use xlink:href="#DejaVuSans-65" transform="translate(619.140625 0)"/>
      <use xlink:href="#DejaVuSans-6e" transform="translate(680.664062 0)"/>
      <use xlink:href="#DejaVuSans-73" transform="translate(744.042969 0)"/>
      <use xlink:href="#DejaVuSans-69" transform="translate(796.142578 0)"/>
      <use xlink:href="#DejaVuSans-74" transform="translate(823.925781 0)"/>
      <use xlink:href="#DejaVuSans-79" transform="translate(863.134766 0)"/>
     </g>
    </g>
   </g>
   <g id="FillBetweenPolyCollection_1">
    <defs>
     <path id="ma105190492" d="M 47.307188 -227.446712 
L 47.307188 -15.916081 
L 50.790415 -8.601421 
L 54.273643 -3.054171 
L 57.75687 -9.522398 
L 61.240098 -6.763652 
L 64.723325 -14.803642 
L 68.206553 -24.130005 
L 71.68978 -17.667916 
L 75.173008 -9.477222 
L 78.656235 1.948958 
L 82.139463 -2.611154 
L 85.62269 -1.181379 
L 89.105918 2.868201 
L 92.589145 0.211991 
L 96.072373 -3.618239 
L 99.5556 -11.838497 
L 103.038828 -3.892913 
L 106.522055 1.80291 
L 110.005283 -6.15456 
L 113.48851 -11.534425 
L 116.971738 -15.775307 
L 120.454965 -17.032766 
L 123.938193 -13.178849 
L 127.42142 -4.644626 
L 130.904648 2.827795 
L 134.387875 -0.540226 
L 137.871103 -3.309332 
L 141.35433 3.554575 
L 144.837558 -2.304228 
L 148.320785 -3.167299 
L 151.804013 0.389386 
L 155.28724 -2.221699 
L 158.770468 12.270264 
L 162.253695 8.996643 
L 165.736923 8.018863 
L 169.22015 21.340372 
L 172.703378 7.736487 
L 176.186605 10.342004 
L 179.669833 2.079621 
L 183.153061 1.708984 
L 186.636288 -10.90426 
L 190.119516 -8.964123 
L 193.602743 -2.554068 
L 197.085971 -0.285804 
L 200.569198 -6.781019 
L 204.052426 -4.905203 
L 207.535653 3.369705 
L 211.018881 -1.019175 
L 214.502108 -7.180451 
L 217.985336 1.653063 
L 221.468563 -9.176022 
L 224.951791 -8.600622 
L 228.435018 -0.839016 
L 231.918246 -7.330497 
L 235.401473 -3.266717 
L 238.884701 -15.791686 
L 242.367928 -10.107087 
L 245.851156 0.412975 
L 249.334383 -2.541303 
L 252.817611 -3.945282 
L 256.300838 -23.616613 
L 259.784066 -13.338694 
L 263.267293 -5.595247 
L 266.750521 1.221162 
L 270.233748 1.621877 
L 273.716976 1.089152 
L 277.200203 -3.334359 
L 280.683431 -15.813752 
L 284.166658 3.090896 
L 287.649886 7.573741 
L 291.133113 -13.226377 
L 294.616341 -2.257047 
L 298.099568 -4.795835 
L 301.582796 -9.65083 
L 305.066023 -10.367755 
L 308.549251 -7.39667 
L 312.032479 0.394528 
L 315.515706 -4.538765 
L 318.998934 -4.564752 
L 322.482161 -12.478892 
L 325.965389 -13.133065 
L 329.448616 -7.325619 
L 332.931844 -9.388379 
L 336.415071 -7.407494 
L 339.898299 -8.914304 
L 343.381526 -4.263601 
L 346.864754 -6.618308 
L 350.347981 -6.660808 
L 353.831209 -1.067934 
L 357.314436 -5.399116 
L 360.797664 -5.399935 
L 364.280891 -5.822147 
L 367.764119 -10.573817 
L 371.247346 -15.773055 
L 374.730574 -21.592281 
L 378.213801 -11.491074 
L 381.697029 -18.605721 
L 385.180256 -20.343253 
L 388.663484 -30.005529 
L 392.146711 -20.568665 
L 395.629939 -12.390681 
L 399.113166 -29.297512 
L 402.596394 -34.77084 
L 406.079621 -35.028815 
L 409.562849 -39.920718 
L 413.046076 -28.534567 
L 416.529304 -26.191686 
L 420.012531 -26.692661 
L 423.495759 -31.796237 
L 426.978986 -18.890141 
L 430.462214 -30.138771 
L 433.945441 -22.78813 
L 437.428669 -34.531194 
L 440.911896 -26.237056 
L 444.395124 -16.252664 
L 447.878352 -24.480894 
L 451.361579 -25.502369 
L 454.844807 -20.16633 
L 458.328034 -19.178425 
L 461.811262 -20.348165 
L 465.294489 -19.81094 
L 468.777717 -12.075876 
L 472.260944 -15.732546 
L 475.744172 -15.572219 
L 479.227399 -20.243419 
L 482.710627 -24.296243 
L 486.193854 -18.012116 
L 489.677082 -22.942703 
L 493.160309 -36.671847 
L 496.643537 -45.780438 
L 500.126764 -17.120269 
L 503.609992 -38.076154 
L 507.093219 -42.294627 
L 510.576447 -49.755672 
L 514.059674 -45.436611 
L 517.542902 -37.273626 
L 521.026129 -33.261305 
L 524.509357 -31.470768 
L 527.992584 -35.605874 
L 531.475812 -35.471993 
L 534.959039 -38.078319 
L 538.442267 -40.319264 
L 541.925494 -42.296387 
L 545.408722 -44.212877 
L 548.891949 -40.393216 
L 552.375177 -44.456677 
L 555.858404 -41.977289 
L 559.341632 -41.134316 
L 562.824859 -39.07202 
L 566.308087 -43.337077 
L 569.791314 -38.792833 
L 573.274542 -34.905542 
L 576.75777 -47.254589 
L 580.240997 -37.847552 
L 583.724225 -43.866491 
L 587.207452 -47.340457 
L 590.69068 -46.812174 
L 594.173907 -25.984597 
L 597.657135 -30.022735 
L 601.140362 -21.853698 
L 604.62359 -27.353111 
L 608.106817 -27.715223 
L 611.590045 -34.142056 
L 615.073272 -35.389543 
L 618.5565 -33.515925 
L 622.039727 -46.241464 
L 625.522955 -47.37517 
L 629.006182 -40.261335 
L 632.48941 -10.31275 
L 635.972637 -2.150936 
L 639.455865 -7.357786 
L 642.939092 -15.138324 
L 646.42232 -28.512633 
L 649.905547 -28.566225 
L 653.388775 -29.053387 
L 656.872002 -35.565582 
L 660.35523 -38.679348 
L 663.838457 -35.221369 
L 667.321685 -27.133578 
L 670.804912 -35.402912 
L 674.28814 -31.299174 
L 677.771367 -23.659617 
L 681.254595 -23.136185 
L 684.737822 -15.269543 
L 688.22105 -14.462827 
L 691.704277 -22.134648 
L 695.187505 -9.728898 
L 698.670732 -18.357316 
L 702.15396 -21.529787 
L 705.637188 -3.904572 
L 705.637188 -220.859198 
L 705.637188 -220.859198 
L 702.15396 -186.177579 
L 698.670732 -182.768564 
L 695.187505 -200.13368 
L 691.704277 -182.859846 
L 688.22105 -230.946522 
L 684.737822 -271.589447 
L 681.254595 -228.461327 
L 677.771367 -267.11418 
L 674.28814 -252.630557 
L 670.804912 -257.479857 
L 667.321685 -262.78375 
L 663.838457 -257.124413 
L 660.35523 -259.798057 
L 656.872002 -264.964918 
L 653.388775 -284.016256 
L 649.905547 -279.81987 
L 646.42232 -271.690561 
L 642.939092 -302.155689 
L 639.455865 -326.182312 
L 635.972637 -343.101033 
L 632.48941 -303.777783 
L 629.006182 -247.593679 
L 625.522955 -237.109567 
L 622.039727 -230.180928 
L 618.5565 -241.68358 
L 615.073272 -248.420748 
L 611.590045 -237.447875 
L 608.106817 -255.025425 
L 604.62359 -253.100734 
L 601.140362 -242.434526 
L 597.657135 -242.268045 
L 594.173907 -236.034425 
L 590.69068 -209.314522 
L 587.207452 -201.873163 
L 583.724225 -208.063215 
L 580.240997 -214.969076 
L 576.75777 -214.486999 
L 573.274542 -220.816878 
L 569.791314 -215.778222 
L 566.308087 -214.832097 
L 562.824859 -217.885162 
L 559.341632 -213.245636 
L 555.858404 -211.767332 
L 552.375177 -215.007328 
L 548.891949 -216.912365 
L 545.408722 -217.515999 
L 541.925494 -216.313664 
L 538.442267 -217.975496 
L 534.959039 -221.277142 
L 531.475812 -224.520337 
L 527.992584 -245.115346 
L 524.509357 -254.16268 
L 521.026129 -242.606639 
L 517.542902 -232.012039 
L 514.059674 -217.05444 
L 510.576447 -203.303467 
L 507.093219 -214.407333 
L 503.609992 -230.542609 
L 500.126764 -254.263054 
L 496.643537 -211.574594 
L 493.160309 -212.84016 
L 489.677082 -217.940616 
L 486.193854 -257.312974 
L 482.710627 -253.048554 
L 479.227399 -243.338244 
L 475.744172 -233.939316 
L 472.260944 -267.536059 
L 468.777717 -251.699597 
L 465.294489 -257.319732 
L 461.811262 -256.397662 
L 458.328034 -265.159947 
L 454.844807 -261.909069 
L 451.361579 -251.485939 
L 447.878352 -255.973212 
L 444.395124 -249.090248 
L 440.911896 -244.528092 
L 437.428669 -252.113478 
L 433.945441 -255.453943 
L 430.462214 -242.220665 
L 426.978986 -249.412882 
L 423.495759 -256.678833 
L 420.012531 -265.287292 
L 416.529304 -264.61409 
L 413.046076 -260.974638 
L 409.562849 -242.888255 
L 406.079621 -252.264047 
L 402.596394 -263.039257 
L 399.113166 -251.523109 
L 395.629939 -298.64709 
L 392.146711 -251.317591 
L 388.663484 -247.72714 
L 385.180256 -235.9208 
L 381.697029 -233.261398 
L 378.213801 -236.045588 
L 374.730574 -241.395519 
L 371.247346 -235.822361 
L 367.764119 -239.609336 
L 364.280891 -239.4723 
L 360.797664 -244.954055 
L 357.314436 -233.367035 
L 353.831209 -250.664955 
L 350.347981 -251.047749 
L 346.864754 -252.293807 
L 343.381526 -247.891161 
L 339.898299 -242.773842 
L 336.415071 -245.674338 
L 332.931844 -251.817834 
L 329.448616 -244.505747 
L 325.965389 -243.240899 
L 322.482161 -238.291733 
L 318.998934 -244.690999 
L 315.515706 -238.207318 
L 312.032479 -231.997112 
L 308.549251 -230.088831 
L 305.066023 -231.147448 
L 301.582796 -231.232489 
L 298.099568 -243.776568 
L 294.616341 -260.703468 
L 291.133113 -255.590222 
L 287.649886 -263.251369 
L 284.166658 -264.354449 
L 280.683431 -239.744107 
L 277.200203 -256.154791 
L 273.716976 -264.056562 
L 270.233748 -259.04494 
L 266.750521 -252.794925 
L 263.267293 -246.468147 
L 259.784066 -246.294202 
L 256.300838 -235.913048 
L 252.817611 -245.558485 
L 249.334383 -254.910119 
L 245.851156 -266.281845 
L 242.367928 -261.677299 
L 238.884701 -247.13675 
L 235.401473 -259.447147 
L 231.918246 -240.895761 
L 228.435018 -244.167277 
L 224.951791 -247.208408 
L 221.468563 -238.864582 
L 217.985336 -260.614725 
L 214.502108 -251.125764 
L 211.018881 -252.078938 
L 207.535653 -257.337139 
L 204.052426 -247.040987 
L 200.569198 -250.208572 
L 197.085971 -244.822466 
L 193.602743 -231.894931 
L 190.119516 -220.580193 
L 186.636288 -223.852627 
L 183.153061 -229.256922 
L 179.669833 -232.82587 
L 176.186605 -250.855573 
L 172.703378 -241.918111 
L 169.22015 -267.726151 
L 165.736923 -250.788921 
L 162.253695 -249.999563 
L 158.770468 -244.276421 
L 155.28724 -227.010817 
L 151.804013 -234.133486 
L 148.320785 -230.612283 
L 144.837558 -226.582544 
L 141.35433 -235.952715 
L 137.871103 -228.765509 
L 134.387875 -226.349469 
L 130.904648 -238.411116 
L 127.42142 -221.712414 
L 123.938193 -213.491945 
L 120.454965 -231.492299 
L 116.971738 -204.198938 
L 113.48851 -208.413417 
L 110.005283 -219.495344 
L 106.522055 -234.694731 
L 103.038828 -225.970186 
L 99.5556 -215.367328 
L 96.072373 -225.090283 
L 92.589145 -231.774338 
L 89.105918 -237.369865 
L 85.62269 -228.748354 
L 82.139463 -234.126744 
L 78.656235 -232.67551 
L 75.173008 -223.902274 
L 71.68978 -219.415867 
L 68.206553 -214.337734 
L 64.723325 -234.708785 
L 61.240098 -239.571418 
L 57.75687 -233.806021 
L 54.273643 -233.477119 
L 50.790415 -228.31347 
L 47.307188 -227.446712 
z
" style="stroke: #d3d3d3; stroke-opacity: 0.5"/>
    </defs>
    <g clip-path="url(#p1da4304f2a)">
     <use xlink:href="#ma105190492" x="0" y="424.5775" style="fill: #d3d3d3; fill-opacity: 0.5; stroke: #d3d3d3; stroke-opacity: 0.5"/>
    </g>
   </g>
   <g id="FillBetweenPolyCollection_2">
    <defs>
     <path id="m6a33269d5b" d="M 47.307188 -174.564054 
L 47.307188 -68.798738 
L 50.790415 -63.529434 
L 54.273643 -60.659908 
L 57.75687 -65.593304 
L 61.240098 -64.965593 
L 64.723325 -69.779928 
L 68.206553 -71.681937 
L 71.68978 -68.104904 
L 75.173008 -63.083485 
L 78.656235 -56.707159 
L 82.139463 -60.490052 
L 85.62269 -58.073123 
L 89.105918 -57.191316 
L 92.589145 -57.784591 
L 96.072373 -58.98625 
L 99.5556 -62.720705 
L 103.038828 -59.412231 
L 106.522055 -57.321501 
L 110.005283 -59.489756 
L 113.48851 -60.754173 
L 116.971738 -62.881215 
L 120.454965 -70.647649 
L 123.938193 -63.257123 
L 127.42142 -58.911573 
L 130.904648 -57.481933 
L 134.387875 -56.992537 
L 137.871103 -59.673376 
L 141.35433 -56.322248 
L 144.837558 -58.373807 
L 148.320785 -60.028545 
L 151.804013 -58.241332 
L 155.28724 -58.418979 
L 158.770468 -51.866407 
L 162.253695 -55.752409 
L 165.736923 -56.683083 
L 169.22015 -50.926259 
L 172.703378 -54.677162 
L 176.186605 -54.95739 
L 179.669833 -56.646752 
L 183.153061 -56.032492 
L 186.636288 -64.141352 
L 190.119516 -61.86814 
L 193.602743 -59.889284 
L 197.085971 -61.41997 
L 200.569198 -67.637907 
L 204.052426 -65.439149 
L 207.535653 -61.807006 
L 211.018881 -63.784116 
L 214.502108 -68.166779 
L 217.985336 -63.913884 
L 221.468563 -66.598162 
L 224.951791 -68.252569 
L 228.435018 -61.671081 
L 231.918246 -65.721813 
L 235.401473 -67.311824 
L 238.884701 -73.627952 
L 242.367928 -72.99964 
L 245.851156 -66.26073 
L 249.334383 -65.633507 
L 252.817611 -64.348582 
L 256.300838 -76.690722 
L 259.784066 -71.577571 
L 263.267293 -65.813472 
L 266.750521 -62.28286 
L 270.233748 -63.544828 
L 273.716976 -65.197277 
L 277.200203 -66.539467 
L 280.683431 -71.796341 
L 284.166658 -63.77044 
L 287.649886 -60.132536 
L 291.133113 -73.817339 
L 294.616341 -66.868652 
L 298.099568 -64.541018 
L 301.582796 -65.046245 
L 305.066023 -65.562678 
L 308.549251 -63.06971 
L 312.032479 -57.703382 
L 315.515706 -62.955903 
L 318.998934 -64.596314 
L 322.482161 -68.932103 
L 325.965389 -70.660024 
L 329.448616 -66.620651 
L 332.931844 -69.995743 
L 336.415071 -66.974205 
L 339.898299 -67.379189 
L 343.381526 -65.170491 
L 346.864754 -68.037183 
L 350.347981 -67.757543 
L 353.831209 -63.467189 
L 357.314436 -62.391096 
L 360.797664 -65.288465 
L 364.280891 -64.234685 
L 367.764119 -67.832697 
L 371.247346 -70.785382 
L 374.730574 -76.543091 
L 378.213801 -67.629702 
L 381.697029 -72.26964 
L 385.180256 -74.23764 
L 388.663484 -84.435932 
L 392.146711 -78.255896 
L 395.629939 -83.954783 
L 399.113166 -84.853911 
L 402.596394 -91.837944 
L 406.079621 -89.337623 
L 409.562849 -90.662602 
L 413.046076 -86.644585 
L 416.529304 -85.797287 
L 420.012531 -86.341319 
L 423.495759 -88.016886 
L 426.978986 -76.520827 
L 430.462214 -83.159244 
L 433.945441 -80.954584 
L 437.428669 -88.926765 
L 440.911896 -80.809815 
L 444.395124 -74.46206 
L 447.878352 -82.353973 
L 451.361579 -81.998262 
L 454.844807 -80.602015 
L 458.328034 -80.673805 
L 461.811262 -79.360539 
L 465.294489 -79.188138 
L 468.777717 -71.981807 
L 472.260944 -78.683424 
L 475.744172 -70.163994 
L 479.227399 -76.017125 
L 482.710627 -81.484321 
L 486.193854 -77.837331 
L 489.677082 -71.692181 
L 493.160309 -80.713925 
L 496.643537 -87.228977 
L 500.126764 -76.405965 
L 503.609992 -86.192768 
L 507.093219 -85.322803 
L 510.576447 -88.14262 
L 514.059674 -88.341068 
L 517.542902 -85.95823 
L 521.026129 -85.597639 
L 524.509357 -87.143746 
L 527.992584 -87.983242 
L 531.475812 -82.734079 
L 534.959039 -83.878025 
L 538.442267 -84.733322 
L 541.925494 -85.800706 
L 545.408722 -87.538658 
L 548.891949 -84.523003 
L 552.375177 -87.094339 
L 555.858404 -84.4248 
L 559.341632 -84.162146 
L 562.824859 -83.775306 
L 566.308087 -86.210832 
L 569.791314 -83.03918 
L 573.274542 -81.383376 
L 576.75777 -89.062692 
L 580.240997 -82.127933 
L 583.724225 -84.915672 
L 587.207452 -85.973634 
L 590.69068 -87.437761 
L 594.173907 -78.497054 
L 597.657135 -83.084062 
L 601.140362 -76.998905 
L 604.62359 -83.790016 
L 608.106817 -84.542773 
L 611.590045 -84.968511 
L 615.073272 -88.647344 
L 618.5565 -85.557839 
L 622.039727 -92.22633 
L 625.522955 -94.808769 
L 629.006182 -92.094421 
L 632.48941 -83.679008 
L 635.972637 -87.38846 
L 639.455865 -87.063917 
L 642.939092 -86.892665 
L 646.42232 -89.307115 
L 649.905547 -91.379637 
L 653.388775 -92.794104 
L 656.872002 -92.915416 
L 660.35523 -93.959025 
L 663.838457 -90.69713 
L 667.321685 -86.046121 
L 670.804912 -90.922148 
L 674.28814 -86.632019 
L 677.771367 -84.523257 
L 681.254595 -74.467471 
L 684.737822 -79.349519 
L 688.22105 -68.583751 
L 691.704277 -62.315947 
L 695.187505 -57.330093 
L 698.670732 -59.460128 
L 702.15396 -62.691735 
L 705.637188 -58.143229 
L 705.637188 -166.620542 
L 705.637188 -166.620542 
L 702.15396 -145.015631 
L 698.670732 -141.665752 
L 695.187505 -152.532484 
L 691.704277 -142.678547 
L 688.22105 -176.825598 
L 684.737822 -207.509471 
L 681.254595 -177.130041 
L 677.771367 -206.250539 
L 674.28814 -197.297711 
L 670.804912 -201.960621 
L 667.321685 -203.871207 
L 663.838457 -201.648652 
L 660.35523 -204.51838 
L 656.872002 -207.615084 
L 653.388775 -220.275539 
L 649.905547 -217.006459 
L 646.42232 -210.896079 
L 642.939092 -230.401348 
L 639.455865 -246.47618 
L 635.972637 -257.863509 
L 632.48941 -230.411524 
L 629.006182 -195.760593 
L 625.522955 -189.675968 
L 622.039727 -184.196062 
L 618.5565 -189.641666 
L 615.073272 -195.162947 
L 611.590045 -186.62142 
L 608.106817 -198.197875 
L 604.62359 -196.663828 
L 601.140362 -187.289319 
L 597.657135 -189.206717 
L 594.173907 -183.521968 
L 590.69068 -168.688935 
L 587.207452 -163.239987 
L 583.724225 -167.014034 
L 580.240997 -170.688695 
L 576.75777 -172.678897 
L 573.274542 -174.339044 
L 569.791314 -171.531875 
L 566.308087 -171.958342 
L 562.824859 -173.181876 
L 559.341632 -170.217806 
L 555.858404 -169.319821 
L 552.375177 -172.369665 
L 548.891949 -172.782577 
L 545.408722 -174.190218 
L 541.925494 -172.809344 
L 538.442267 -173.561438 
L 534.959039 -175.477437 
L 531.475812 -177.258251 
L 527.992584 -192.737978 
L 524.509357 -198.489702 
L 521.026129 -190.270305 
L 517.542902 -183.327436 
L 514.059674 -174.149983 
L 510.576447 -164.916518 
L 507.093219 -171.379156 
L 503.609992 -182.425995 
L 500.126764 -194.977357 
L 496.643537 -170.126055 
L 493.160309 -168.798082 
L 489.677082 -169.191138 
L 486.193854 -197.48776 
L 482.710627 -195.860477 
L 479.227399 -187.564538 
L 475.744172 -179.347542 
L 472.260944 -204.585181 
L 468.777717 -191.793667 
L 465.294489 -197.942534 
L 461.811262 -197.385287 
L 458.328034 -203.664566 
L 454.844807 -201.473384 
L 451.361579 -194.990047 
L 447.878352 -198.100132 
L 444.395124 -190.880852 
L 440.911896 -189.955333 
L 437.428669 -197.717907 
L 433.945441 -197.28749 
L 430.462214 -189.200192 
L 426.978986 -191.782197 
L 423.495759 -200.458184 
L 420.012531 -205.638635 
L 416.529304 -205.008489 
L 413.046076 -202.86462 
L 409.562849 -192.14637 
L 406.079621 -197.955239 
L 402.596394 -205.972153 
L 399.113166 -195.96671 
L 395.629939 -227.082988 
L 392.146711 -193.63036 
L 388.663484 -193.296738 
L 385.180256 -182.026413 
L 381.697029 -179.597479 
L 378.213801 -179.906959 
L 374.730574 -186.44471 
L 371.247346 -180.810035 
L 367.764119 -182.350456 
L 364.280891 -181.059761 
L 360.797664 -185.065525 
L 357.314436 -176.375055 
L 353.831209 -188.2657 
L 350.347981 -189.951014 
L 346.864754 -190.874933 
L 343.381526 -186.984271 
L 339.898299 -184.308958 
L 336.415071 -186.107627 
L 332.931844 -191.21047 
L 329.448616 -185.210715 
L 325.965389 -185.71394 
L 322.482161 -181.838523 
L 318.998934 -184.659437 
L 315.515706 -179.790179 
L 312.032479 -173.899202 
L 308.549251 -174.41579 
L 305.066023 -175.952525 
L 301.582796 -175.837074 
L 298.099568 -184.031385 
L 294.616341 -196.091863 
L 291.133113 -194.999261 
L 287.649886 -195.545091 
L 284.166658 -197.493113 
L 280.683431 -183.761518 
L 277.200203 -192.949683 
L 273.716976 -197.770133 
L 270.233748 -193.878236 
L 266.750521 -189.290904 
L 263.267293 -186.249922 
L 259.784066 -188.055325 
L 256.300838 -182.83894 
L 252.817611 -185.155184 
L 249.334383 -191.817915 
L 245.851156 -199.60814 
L 242.367928 -198.784746 
L 238.884701 -189.300484 
L 235.401473 -195.40204 
L 231.918246 -182.504445 
L 228.435018 -183.335212 
L 224.951791 -187.556462 
L 221.468563 -181.442442 
L 217.985336 -195.047778 
L 214.502108 -190.139435 
L 211.018881 -189.313997 
L 207.535653 -192.160428 
L 204.052426 -186.507041 
L 200.569198 -189.351684 
L 197.085971 -183.688301 
L 193.602743 -174.559715 
L 190.119516 -167.676175 
L 186.636288 -170.615535 
L 183.153061 -171.515445 
L 179.669833 -174.099497 
L 176.186605 -185.556179 
L 172.703378 -179.504461 
L 169.22015 -195.45952 
L 165.736923 -186.086975 
L 162.253695 -185.250511 
L 158.770468 -180.13975 
L 155.28724 -170.813538 
L 151.804013 -175.502768 
L 148.320785 -173.751037 
L 144.837558 -170.512965 
L 141.35433 -176.075893 
L 137.871103 -172.401465 
L 134.387875 -169.897159 
L 130.904648 -178.101388 
L 127.42142 -167.445467 
L 123.938193 -163.413671 
L 120.454965 -177.877416 
L 116.971738 -157.09303 
L 113.48851 -159.193669 
L 110.005283 -166.160148 
L 106.522055 -175.570321 
L 103.038828 -170.450868 
L 99.5556 -164.48512 
L 96.072373 -169.722272 
L 92.589145 -173.777756 
L 89.105918 -177.310349 
L 85.62269 -171.85661 
L 82.139463 -176.247847 
L 78.656235 -174.019393 
L 75.173008 -170.296011 
L 71.68978 -168.978879 
L 68.206553 -166.785802 
L 64.723325 -179.7325 
L 61.240098 -181.369477 
L 57.75687 -177.735115 
L 54.273643 -175.871382 
L 50.790415 -173.385458 
L 47.307188 -174.564054 
z
" style="stroke: #808080; stroke-opacity: 0.7"/>
    </defs>
    <g clip-path="url(#p1da4304f2a)">
     <use xlink:href="#m6a33269d5b" x="0" y="424.5775" style="fill: #808080; fill-opacity: 0.7; stroke: #808080; stroke-opacity: 0.7"/>
    </g>
   </g>
   <g id="line2d_31">
    <path d="M 47.307188 367.741449 
L 54.273643 367.45299 
L 57.75687 359.874563 
L 61.240098 357.64322 
L 64.723325 356.465065 
L 68.206553 360.986677 
L 71.68978 365.084876 
L 75.173008 355.602468 
L 78.656235 351.366903 
L 82.139463 360.789779 
L 85.62269 355.710036 
L 89.105918 354.763928 
L 92.589145 351.297564 
L 96.072373 353.279084 
L 99.5556 357.767333 
L 103.038828 356.215433 
L 106.522055 357.701088 
L 110.005283 349.86011 
L 113.48851 346.457221 
L 116.971738 355.798968 
L 120.454965 359.653952 
L 123.938193 358.325928 
L 127.42142 354.72948 
L 130.904648 361.478939 
L 134.387875 356.584555 
L 137.871103 353.182719 
L 141.35433 354.311753 
L 144.837558 351.084279 
L 148.320785 346.681181 
L 151.804013 335.647447 
L 155.28724 349.116701 
L 158.770468 349.819977 
L 162.253695 352.792271 
L 165.736923 366.449214 
L 169.22015 356.945221 
L 172.703378 355.66831 
L 176.186605 356.371943 
L 179.669833 357.375057 
L 183.153061 355.839559 
L 186.636288 360.609008 
L 190.119516 357.456788 
L 193.602743 366.384863 
L 197.085971 358.563653 
L 200.569198 360.585561 
L 204.052426 357.776509 
L 207.535653 349.840105 
L 211.018881 358.181179 
L 214.502108 365.63458 
L 217.985336 347.794019 
L 221.468563 344.138782 
L 224.951791 341.364689 
L 228.435018 348.646094 
L 231.918246 334.478004 
L 235.401473 317.497068 
L 238.884701 326.863258 
L 242.367928 331.185689 
L 245.851156 323.674355 
L 249.334383 336.848286 
L 252.817611 317.233766 
L 256.300838 338.81307 
L 259.784066 329.638585 
L 263.267293 325.394346 
L 266.750521 336.081264 
L 270.233748 335.568991 
L 273.716976 334.052881 
L 277.200203 344.567807 
L 280.683431 352.200984 
L 284.166658 346.56155 
L 287.649886 350.277013 
L 291.133113 352.200345 
L 294.616341 355.477435 
L 298.099568 349.203667 
L 301.582796 343.245507 
L 305.066023 344.288983 
L 308.549251 342.81385 
L 312.032479 346.781931 
L 315.515706 338.799413 
L 318.998934 349.236329 
L 322.482161 351.768184 
L 325.965389 338.912184 
L 329.448616 347.973391 
L 332.931844 349.06378 
L 336.415071 350.317046 
L 339.898299 353.526015 
L 343.381526 346.403039 
L 346.864754 348.670901 
L 350.347981 341.501268 
L 353.831209 340.91732 
L 360.797664 358.47404 
L 364.280891 363.218891 
L 367.764119 357.573738 
L 371.247346 355.042104 
L 374.730574 355.952923 
L 378.213801 351.385571 
L 385.180256 343.8036 
L 388.663484 347.42186 
L 392.146711 362.023128 
L 395.629939 359.76247 
L 399.113166 358.26178 
L 402.596394 362.833088 
L 406.079621 356.525429 
L 409.562849 359.895897 
L 413.046076 350.247978 
L 416.529304 344.689003 
L 420.012531 335.368656 
L 423.495759 335.13384 
L 426.978986 353.457188 
L 430.462214 346.804409 
L 433.945441 338.320067 
L 437.428669 357.542012 
L 440.911896 349.795182 
L 444.395124 335.898886 
L 447.878352 361.633993 
L 451.361579 342.938384 
L 454.844807 347.894708 
L 458.328034 356.506655 
L 461.811262 364.368002 
L 465.294489 347.618917 
L 468.777717 357.371063 
L 472.260944 358.551552 
L 475.744172 357.669082 
L 479.227399 339.022126 
L 482.710627 339.838086 
L 486.193854 347.604552 
L 489.677082 358.589397 
L 493.160309 355.172128 
L 496.643537 353.76646 
L 500.126764 349.600771 
L 503.609992 354.339998 
L 507.093219 352.797254 
L 510.576447 364.107839 
L 514.059674 366.731087 
L 517.542902 367.110065 
L 521.026129 366.994916 
L 524.509357 361.579488 
L 527.992584 364.645919 
L 531.475812 349.046574 
L 534.959039 352.577769 
L 538.442267 358.020531 
L 541.925494 356.631018 
L 545.408722 348.696683 
L 548.891949 345.45948 
L 552.375177 355.169428 
L 555.858404 354.422765 
L 559.341632 354.46464 
L 562.824859 350.844149 
L 566.308087 346.48292 
L 569.791314 348.647912 
L 573.274542 353.797925 
L 576.75777 349.346364 
L 580.240997 340.779113 
L 583.724225 327.492488 
L 587.207452 276.70319 
L 590.69068 267.077462 
L 594.173907 278.18187 
L 597.657135 283.02752 
L 601.140362 305.028258 
L 604.62359 301.41373 
L 608.106817 311.22373 
L 611.590045 280.903024 
L 615.073272 317.013778 
L 618.5565 305.351409 
L 622.039727 306.414496 
L 625.522955 275.876845 
L 629.006182 282.194256 
L 632.48941 306.8196 
L 635.972637 308.879128 
L 639.455865 318.36409 
L 642.939092 323.922541 
L 646.42232 325.389675 
L 649.905547 301.831801 
L 653.388775 264.788608 
L 656.872002 280.416758 
L 660.35523 255.481306 
L 663.838457 250.77798 
L 667.321685 259.527055 
L 670.804912 297.288644 
L 674.28814 304.236206 
L 677.771367 329.112233 
L 681.254595 335.991825 
L 684.737822 318.279856 
L 688.22105 323.221569 
L 691.704277 316.275755 
L 695.187505 324.762085 
L 698.670732 333.59465 
L 702.15396 334.496227 
L 705.637188 315.553115 
L 705.637188 315.553115 
" clip-path="url(#p1da4304f2a)" style="fill: none; stroke: #ff8c00; stroke-width: 2.3; stroke-linecap: square"/>
   </g>
   <g id="line2d_32">
    <path d="M 284.166658 384.117812 
L 284.166658 23.837812 
" clip-path="url(#p1da4304f2a)" style="fill: none; stroke-dasharray: 5.55,2.4; stroke-dashoffset: 0; stroke: #808080; stroke-width: 1.5"/>
   </g>
   <g id="line2d_33">
    <path d="M 486.193854 384.117812 
L 486.193854 23.837812 
" clip-path="url(#p1da4304f2a)" style="fill: none; stroke-dasharray: 5.55,2.4; stroke-dashoffset: 0; stroke: #808080; stroke-width: 1.5"/>
   </g>
   <g id="patch_3">
    <path d="M 47.307188 384.117812 
L 47.307188 23.837812 
" style="fill: none; stroke: #000000; stroke-width: 0.8; stroke-linejoin: miter; stroke-linecap: square"/>
   </g>
   <g id="patch_4">
    <path d="M 705.637188 384.117812 
L 705.637188 23.837812 
" style="fill: none; stroke: #000000; stroke-width: 0.8; stroke-linejoin: miter; stroke-linecap: square"/>
   </g>
   <g id="patch_5">
    <path d="M 47.307188 384.117812 
L 705.637188 384.117812 
" style="fill: none; stroke: #000000; stroke-width: 0.8; stroke-linejoin: miter; stroke-linecap: square"/>
   </g>
   <g id="patch_6">
    <path d="M 47.307188 23.837812 
L 705.637188 23.837812 
" style="fill: none; stroke: #000000; stroke-width: 0.8; stroke-linejoin: miter; stroke-linecap: square"/>
   </g>
   <g id="text_18">
    <!-- Facial trace: Autism spectrum condition (ASC) (female) -->
    <g transform="translate(183.950312 17.837812) scale(0.14 -0.14)">
     <defs>
      <path id="DejaVuSans-46" d="M 628 4666 
L 3309 4666 
L 3309 4134 
L 1259 4134 
L 1259 2759 
L 3109 2759 
L 3109 2228 
L 1259 2228 
L 1259 0 
L 628 0 
L 628 4666 
z
" transform="scale(0.015625)"/>
      <path id="DejaVuSans-63" d="M 3122 3366 
L 3122 2828 
Q 2878 2963 2633 3030 
Q 2388 3097 2138 3097 
Q 1578 3097 1268 2742 
Q 959 2388 959 1747 
Q 959 1106 1268 751 
Q 1578 397 2138 397 
Q 2388 397 2633 464 
Q 2878 531 3122 666 
L 3122 134 
Q 2881 22 2623 -34 
Q 2366 -91 2075 -91 
Q 1284 -91 818 406 
Q 353 903 353 1747 
Q 353 2603 823 3093 
Q 1294 3584 2113 3584 
Q 2378 3584 2631 3529 
Q 2884 3475 3122 3366 
z
" transform="scale(0.015625)"/>
      <path id="DejaVuSans-6c" d="M 603 4863 
L 1178 4863 
L 1178 0 
L 603 0 
L 603 4863 
z
" transform="scale(0.015625)"/>
      <path id="DejaVuSans-72" d="M 2631 2963 
Q 2534 3019 2420 3045 
Q 2306 3072 2169 3072 
Q 1681 3072 1420 2755 
Q 1159 2438 1159 1844 
L 1159 0 
L 581 0 
L 581 3500 
L 1159 3500 
L 1159 2956 
Q 1341 3275 1631 3429 
Q 1922 3584 2338 3584 
Q 2397 3584 2469 3576 
Q 2541 3569 2628 3553 
L 2631 2963 
z
" transform="scale(0.015625)"/>
      <path id="DejaVuSans-3a" d="M 750 794 
L 1409 794 
L 1409 0 
L 750 0 
L 750 794 
z
M 750 3309 
L 1409 3309 
L 1409 2516 
L 750 2516 
L 750 3309 
z
" transform="scale(0.015625)"/>
      <path id="DejaVuSans-75" d="M 544 1381 
L 544 3500 
L 1119 3500 
L 1119 1403 
Q 1119 906 1312 657 
Q 1506 409 1894 409 
Q 2359 409 2629 706 
Q 2900 1003 2900 1516 
L 2900 3500 
L 3475 3500 
L 3475 0 
L 2900 0 
L 2900 538 
Q 2691 219 2414 64 
Q 2138 -91 1772 -91 
Q 1169 -91 856 284 
Q 544 659 544 1381 
z
M 1991 3584 
L 1991 3584 
z
" transform="scale(0.015625)"/>
      <path id="DejaVuSans-70" d="M 1159 525 
L 1159 -1331 
L 581 -1331 
L 581 3500 
L 1159 3500 
L 1159 2969 
Q 1341 3281 1617 3432 
Q 1894 3584 2278 3584 
Q 2916 3584 3314 3078 
Q 3713 2572 3713 1747 
Q 3713 922 3314 415 
Q 2916 -91 2278 -91 
Q 1894 -91 1617 61 
Q 1341 213 1159 525 
z
M 3116 1747 
Q 3116 2381 2855 2742 
Q 2594 3103 2138 3103 
Q 1681 3103 1420 2742 
Q 1159 2381 1159 1747 
Q 1159 1113 1420 752 
Q 1681 391 2138 391 
Q 2594 391 2855 752 
Q 3116 1113 3116 1747 
z
" transform="scale(0.015625)"/>
      <path id="DejaVuSans-6f" d="M 1959 3097 
Q 1497 3097 1228 2736 
Q 959 2375 959 1747 
Q 959 1119 1226 758 
Q 1494 397 1959 397 
Q 2419 397 2687 759 
Q 2956 1122 2956 1747 
Q 2956 2369 2687 2733 
Q 2419 3097 1959 3097 
z
M 1959 3584 
Q 2709 3584 3137 3096 
Q 3566 2609 3566 1747 
Q 3566 888 3137 398 
Q 2709 -91 1959 -91 
Q 1206 -91 779 398 
Q 353 888 353 1747 
Q 353 2609 779 3096 
Q 1206 3584 1959 3584 
z
" transform="scale(0.015625)"/>
      <path id="DejaVuSans-64" d="M 2906 2969 
L 2906 4863 
L 3481 4863 
L 3481 0 
L 2906 0 
L 2906 525 
Q 2725 213 2448 61 
Q 2172 -91 1784 -91 
Q 1150 -91 751 415 
Q 353 922 353 1747 
Q 353 2572 751 3078 
Q 1150 3584 1784 3584 
Q 2172 3584 2448 3432 
Q 2725 3281 2906 2969 
z
M 947 1747 
Q 947 1113 1208 752 
Q 1469 391 1925 391 
Q 2381 391 2643 752 
Q 2906 1113 2906 1747 
Q 2906 2381 2643 2742 
Q 2381 3103 1925 3103 
Q 1469 3103 1208 2742 
Q 947 2381 947 1747 
z
" transform="scale(0.015625)"/>
      <path id="DejaVuSans-53" d="M 3425 4513 
L 3425 3897 
Q 3066 4069 2747 4153 
Q 2428 4238 2131 4238 
Q 1616 4238 1336 4038 
Q 1056 3838 1056 3469 
Q 1056 3159 1242 3001 
Q 1428 2844 1947 2747 
L 2328 2669 
Q 3034 2534 3370 2195 
Q 3706 1856 3706 1288 
Q 3706 609 3251 259 
Q 2797 -91 1919 -91 
Q 1588 -91 1214 -16 
Q 841 59 441 206 
L 441 856 
Q 825 641 1194 531 
Q 1563 422 1919 422 
Q 2459 422 2753 634 
Q 3047 847 3047 1241 
Q 3047 1584 2836 1778 
Q 2625 1972 2144 2069 
L 1759 2144 
Q 1053 2284 737 2584 
Q 422 2884 422 3419 
Q 422 4038 858 4394 
Q 1294 4750 2059 4750 
Q 2388 4750 2728 4690 
Q 3069 4631 3425 4513 
z
" transform="scale(0.015625)"/>
      <path id="DejaVuSans-43" d="M 4122 4306 
L 4122 3641 
Q 3803 3938 3442 4084 
Q 3081 4231 2675 4231 
Q 1875 4231 1450 3742 
Q 1025 3253 1025 2328 
Q 1025 1406 1450 917 
Q 1875 428 2675 428 
Q 3081 428 3442 575 
Q 3803 722 4122 1019 
L 4122 359 
Q 3791 134 3420 21 
Q 3050 -91 2638 -91 
Q 1578 -91 968 557 
Q 359 1206 359 2328 
Q 359 3453 968 4101 
Q 1578 4750 2638 4750 
Q 3056 4750 3426 4639 
Q 3797 4528 4122 4306 
z
" transform="scale(0.015625)"/>
      <path id="DejaVuSans-66" d="M 2375 4863 
L 2375 4384 
L 1825 4384 
Q 1516 4384 1395 4259 
Q 1275 4134 1275 3809 
L 1275 3500 
L 2222 3500 
L 2222 3053 
L 1275 3053 
L 1275 0 
L 697 0 
L 697 3053 
L 147 3053 
L 147 3500 
L 697 3500 
L 697 3744 
Q 697 4328 969 4595 
Q 1241 4863 1831 4863 
L 2375 4863 
z
" transform="scale(0.015625)"/>
     </defs>
     <use xlink:href="#DejaVuSans-46"/>
     <use xlink:href="#DejaVuSans-61" transform="translate(48.394531 0)"/>
     <use xlink:href="#DejaVuSans-63" transform="translate(109.673828 0)"/>
     <use xlink:href="#DejaVuSans-69" transform="translate(164.654297 0)"/>
     <use xlink:href="#DejaVuSans-61" transform="translate(192.4375 0)"/>
     <use xlink:href="#DejaVuSans-6c" transform="translate(253.716797 0)"/>
     <use xlink:href="#DejaVuSans-20" transform="translate(281.5 0)"/>
     <use xlink:href="#DejaVuSans-74" transform="translate(313.287109 0)"/>
     <use xlink:href="#DejaVuSans-72" transform="translate(352.496094 0)"/>
     <use xlink:href="#DejaVuSans-61" transform="translate(393.609375 0)"/>
     <use xlink:href="#DejaVuSans-63" transform="translate(454.888672 0)"/>
     <use xlink:href="#DejaVuSans-65" transform="translate(509.869141 0)"/>
     <use xlink:href="#DejaVuSans-3a" transform="translate(571.392578 0)"/>
     <use xlink:href="#DejaVuSans-20" transform="translate(605.083984 0)"/>
     <use xlink:href="#DejaVuSans-41" transform="translate(636.871094 0)"/>
     <use xlink:href="#DejaVuSans-75" transform="translate(705.279297 0)"/>
     <use xlink:href="#DejaVuSans-74" transform="translate(768.658203 0)"/>
     <use xlink:href="#DejaVuSans-69" transform="translate(807.867188 0)"/>
     <use xlink:href="#DejaVuSans-73" transform="translate(835.650391 0)"/>
     <use xlink:href="#DejaVuSans-6d" transform="translate(887.75 0)"/>
     <use xlink:href="#DejaVuSans-20" transform="translate(985.162109 0)"/>
     <use xlink:href="#DejaVuSans-73" transform="translate(1016.949219 0)"/>
     <use xlink:href="#DejaVuSans-70" transform="translate(1069.048828 0)"/>
     <use xlink:href="#DejaVuSans-65" transform="translate(1132.525391 0)"/>
     <use xlink:href="#DejaVuSans-63" transform="translate(1194.048828 0)"/>
     <use xlink:href="#DejaVuSans-74" transform="translate(1249.029297 0)"/>
     <use xlink:href="#DejaVuSans-72" transform="translate(1288.238281 0)"/>
     <use xlink:href="#DejaVuSans-75" transform="translate(1329.351562 0)"/>
     <use xlink:href="#DejaVuSans-6d" transform="translate(1392.730469 0)"/>
     <use xlink:href="#DejaVuSans-20" transform="translate(1490.142578 0)"/>
     <use xlink:href="#DejaVuSans-63" transform="translate(1521.929688 0)"/>
     <use xlink:href="#DejaVuSans-6f" transform="translate(1576.910156 0)"/>
     <use xlink:href="#DejaVuSans-6e" transform="translate(1638.091797 0)"/>
     <use xlink:href="#DejaVuSans-64" transform="translate(1701.470703 0)"/>
     <use xlink:href="#DejaVuSans-69" transform="translate(1764.947266 0)"/>
     <use xlink:href="#DejaVuSans-74" transform="translate(1792.730469 0)"/>
     <use xlink:href="#DejaVuSans-69" transform="translate(1831.939453 0)"/>
     <use xlink:href="#DejaVuSans-6f" transform="translate(1859.722656 0)"/>
     <use xlink:href="#DejaVuSans-6e" transform="translate(1920.904297 0)"/>
     <use xlink:href="#DejaVuSans-20" transform="translate(1984.283203 0)"/>
     <use xlink:href="#DejaVuSans-28" transform="translate(2016.070312 0)"/>
     <use xlink:href="#DejaVuSans-41" transform="translate(2055.083984 0)"/>
     <use xlink:href="#DejaVuSans-53" transform="translate(2123.492188 0)"/>
     <use xlink:href="#DejaVuSans-43" transform="translate(2186.96875 0)"/>
     <use xlink:href="#DejaVuSans-29" transform="translate(2256.792969 0)"/>
     <use xlink:href="#DejaVuSans-20" transform="translate(2295.806641 0)"/>
     <use xlink:href="#DejaVuSans-28" transform="translate(2327.59375 0)"/>
     <use xlink:href="#DejaVuSans-66" transform="translate(2366.607422 0)"/>
     <use xlink:href="#DejaVuSans-65" transform="translate(2401.8125 0)"/>
     <use xlink:href="#DejaVuSans-6d" transform="translate(2463.335938 0)"/>
     <use xlink:href="#DejaVuSans-61" transform="translate(2560.748047 0)"/>
     <use xlink:href="#DejaVuSans-6c" transform="translate(2622.027344 0)"/>
     <use xlink:href="#DejaVuSans-65" transform="translate(2649.810547 0)"/>
     <use xlink:href="#DejaVuSans-29" transform="translate(2711.333984 0)"/>
    </g>
   </g>
   <g id="legend_1">
    <g id="patch_7">
     <path d="M 443.795938 42.096094 
L 465.795938 42.096094 
L 465.795938 34.396094 
L 443.795938 34.396094 
z
" style="fill: #d3d3d3; fill-opacity: 0.5; stroke: #d3d3d3; stroke-opacity: 0.5; stroke-linejoin: miter"/>
    </g>
    <g id="text_19">
     <!-- Autism spectrum condition (ASC) ±2 SD -->
     <g transform="translate(474.595938 42.096094) scale(0.11 -0.11)">
      <defs>
       <path id="DejaVuSans-b1" d="M 2944 4013 
L 2944 2803 
L 4684 2803 
L 4684 2272 
L 2944 2272 
L 2944 1063 
L 2419 1063 
L 2419 2272 
L 678 2272 
L 678 2803 
L 2419 2803 
L 2419 4013 
L 2944 4013 
z
M 678 531 
L 4684 531 
L 4684 0 
L 678 0 
L 678 531 
z
" transform="scale(0.015625)"/>
       <path id="DejaVuSans-44" d="M 1259 4147 
L 1259 519 
L 2022 519 
Q 2988 519 3436 956 
Q 3884 1394 3884 2338 
Q 3884 3275 3436 3711 
Q 2988 4147 2022 4147 
L 1259 4147 
z
M 628 4666 
L 1925 4666 
Q 3281 4666 3915 4102 
Q 4550 3538 4550 2338 
Q 4550 1131 3912 565 
Q 3275 0 1925 0 
L 628 0 
L 628 4666 
z
" transform="scale(0.015625)"/>
      </defs>
      <use xlink:href="#DejaVuSans-41"/>
      <use xlink:href="#DejaVuSans-75" transform="translate(68.408203 0)"/>
      <use xlink:href="#DejaVuSans-74" transform="translate(131.787109 0)"/>
      <use xlink:href="#DejaVuSans-69" transform="translate(170.996094 0)"/>
      <use xlink:href="#DejaVuSans-73" transform="translate(198.779297 0)"/>
      <use xlink:href="#DejaVuSans-6d" transform="translate(250.878906 0)"/>
      <use xlink:href="#DejaVuSans-20" transform="translate(348.291016 0)"/>
      <use xlink:href="#DejaVuSans-73" transform="translate(380.078125 0)"/>
      <use xlink:href="#DejaVuSans-70" transform="translate(432.177734 0)"/>
      <use xlink:href="#DejaVuSans-65" transform="translate(495.654297 0)"/>
      <use xlink:href="#DejaVuSans-63" transform="translate(557.177734 0)"/>
      <use xlink:href="#DejaVuSans-74" transform="translate(612.158203 0)"/>
      <use xlink:href="#DejaVuSans-72" transform="translate(651.367188 0)"/>
      <use xlink:href="#DejaVuSans-75" transform="translate(692.480469 0)"/>
      <use xlink:href="#DejaVuSans-6d" transform="translate(755.859375 0)"/>
      <use xlink:href="#DejaVuSans-20" transform="translate(853.271484 0)"/>
      <use xlink:href="#DejaVuSans-63" transform="translate(885.058594 0)"/>
      <use xlink:href="#DejaVuSans-6f" transform="translate(940.039062 0)"/>
      <use xlink:href="#DejaVuSans-6e" transform="translate(1001.220703 0)"/>
      <use xlink:href="#DejaVuSans-64" transform="translate(1064.599609 0)"/>
      <use xlink:href="#DejaVuSans-69" transform="translate(1128.076172 0)"/>
      <use xlink:href="#DejaVuSans-74" transform="translate(1155.859375 0)"/>
      <use xlink:href="#DejaVuSans-69" transform="translate(1195.068359 0)"/>
      <use xlink:href="#DejaVuSans-6f" transform="translate(1222.851562 0)"/>
      <use xlink:href="#DejaVuSans-6e" transform="translate(1284.033203 0)"/>
      <use xlink:href="#DejaVuSans-20" transform="translate(1347.412109 0)"/>
      <use xlink:href="#DejaVuSans-28" transform="translate(1379.199219 0)"/>
      <use xlink:href="#DejaVuSans-41" transform="translate(1418.212891 0)"/>
      <use xlink:href="#DejaVuSans-53" transform="translate(1486.621094 0)"/>
      <use xlink:href="#DejaVuSans-43" transform="translate(1550.097656 0)"/>
      <use xlink:href="#DejaVuSans-29" transform="translate(1619.921875 0)"/>
      <use xlink:href="#DejaVuSans-20" transform="translate(1658.935547 0)"/>
      <use xlink:href="#DejaVuSans-b1" transform="translate(1690.722656 0)"/>
      <use xlink:href="#DejaVuSans-32" transform="translate(1774.511719 0)"/>
      <use xlink:href="#DejaVuSans-20" transform="translate(1838.134766 0)"/>
      <use xlink:href="#DejaVuSans-53" transform="translate(1869.921875 0)"/>
      <use xlink:href="#DejaVuSans-44" transform="translate(1933.398438 0)"/>
     </g>
    </g>
    <g id="patch_8">
     <path d="M 443.795938 58.242031 
L 465.795938 58.242031 
L 465.795938 50.542031 
L 443.795938 50.542031 
z
" style="fill: #808080; fill-opacity: 0.7; stroke: #808080; stroke-opacity: 0.7; stroke-linejoin: miter"/>
    </g>
    <g id="text_20">
     <!-- Autism spectrum condition (ASC) ±1 SD -->
     <g transform="translate(474.595938 58.242031) scale(0.11 -0.11)">
      <use xlink:href="#DejaVuSans-41"/>
      <use xlink:href="#DejaVuSans-75" transform="translate(68.408203 0)"/>
      <use xlink:href="#DejaVuSans-74" transform="translate(131.787109 0)"/>
      <use xlink:href="#DejaVuSans-69" transform="translate(170.996094 0)"/>
      <use xlink:href="#DejaVuSans-73" transform="translate(198.779297 0)"/>
      <use xlink:href="#DejaVuSans-6d" transform="translate(250.878906 0)"/>
      <use xlink:href="#DejaVuSans-20" transform="translate(348.291016 0)"/>
      <use xlink:href="#DejaVuSans-73" transform="translate(380.078125 0)"/>
      <use xlink:href="#DejaVuSans-70" transform="translate(432.177734 0)"/>
      <use xlink:href="#DejaVuSans-65" transform="translate(495.654297 0)"/>
      <use xlink:href="#DejaVuSans-63" transform="translate(557.177734 0)"/>
      <use xlink:href="#DejaVuSans-74" transform="translate(612.158203 0)"/>
      <use xlink:href="#DejaVuSans-72" transform="translate(651.367188 0)"/>
      <use xlink:href="#DejaVuSans-75" transform="translate(692.480469 0)"/>
      <use xlink:href="#DejaVuSans-6d" transform="translate(755.859375 0)"/>
      <use xlink:href="#DejaVuSans-20" transform="translate(853.271484 0)"/>
      <use xlink:href="#DejaVuSans-63" transform="translate(885.058594 0)"/>
      <use xlink:href="#DejaVuSans-6f" transform="translate(940.039062 0)"/>
      <use xlink:href="#DejaVuSans-6e" transform="translate(1001.220703 0)"/>
      <use xlink:href="#DejaVuSans-64" transform="translate(1064.599609 0)"/>
      <use xlink:href="#DejaVuSans-69" transform="translate(1128.076172 0)"/>
      <use xlink:href="#DejaVuSans-74" transform="translate(1155.859375 0)"/>
      <use xlink:href="#DejaVuSans-69" transform="translate(1195.068359 0)"/>
      <use xlink:href="#DejaVuSans-6f" transform="translate(1222.851562 0)"/>
      <use xlink:href="#DejaVuSans-6e" transform="translate(1284.033203 0)"/>
      <use xlink:href="#DejaVuSans-20" transform="translate(1347.412109 0)"/>
      <use xlink:href="#DejaVuSans-28" transform="translate(1379.199219 0)"/>
      <use xlink:href="#DejaVuSans-41" transform="translate(1418.212891 0)"/>
      <use xlink:href="#DejaVuSans-53" transform="translate(1486.621094 0)"/>
      <use xlink:href="#DejaVuSans-43" transform="translate(1550.097656 0)"/>
      <use xlink:href="#DejaVuSans-29" transform="translate(1619.921875 0)"/>
      <use xlink:href="#DejaVuSans-20" transform="translate(1658.935547 0)"/>
      <use xlink:href="#DejaVuSans-b1" transform="translate(1690.722656 0)"/>
      <use xlink:href="#DejaVuSans-31" transform="translate(1774.511719 0)"/>
      <use xlink:href="#DejaVuSans-20" transform="translate(1838.134766 0)"/>
      <use xlink:href="#DejaVuSans-53" transform="translate(1869.921875 0)"/>
      <use xlink:href="#DejaVuSans-44" transform="translate(1933.398438 0)"/>
     </g>
    </g>
    <g id="line2d_34">
     <path d="M 443.795938 70.537969 
L 454.795938 70.537969 
L 465.795938 70.537969 
" style="fill: none; stroke: #ff8c00; stroke-width: 2.3; stroke-linecap: square"/>
    </g>
    <g id="text_21">
     <!-- Patient -->
     <g transform="translate(474.595938 74.387969) scale(0.11 -0.11)">
      <defs>
       <path id="DejaVuSans-50" d="M 1259 4147 
L 1259 2394 
L 2053 2394 
Q 2494 2394 2734 2622 
Q 2975 2850 2975 3272 
Q 2975 3691 2734 3919 
Q 2494 4147 2053 4147 
L 1259 4147 
z
M 628 4666 
L 2053 4666 
Q 2838 4666 3239 4311 
Q 3641 3956 3641 3272 
Q 3641 2581 3239 2228 
Q 2838 1875 2053 1875 
L 1259 1875 
L 1259 0 
L 628 0 
L 628 4666 
z
" transform="scale(0.015625)"/>
      </defs>
      <use xlink:href="#DejaVuSans-50"/>
      <use xlink:href="#DejaVuSans-61" transform="translate(55.802734 0)"/>
      <use xlink:href="#DejaVuSans-74" transform="translate(117.082031 0)"/>
      <use xlink:href="#DejaVuSans-69" transform="translate(156.291016 0)"/>
      <use xlink:href="#DejaVuSans-65" transform="translate(184.074219 0)"/>
      <use xlink:href="#DejaVuSans-6e" transform="translate(245.597656 0)"/>
      <use xlink:href="#DejaVuSans-74" transform="translate(308.976562 0)"/>
     </g>
    </g>
   </g>
  </g>
 </g>
 <defs>
  <clipPath id="p1da4304f2a">
   <rect x="47.307188" y="23.837812" width="658.33" height="360.28"/>
  </clipPath>
 </defs>
</svg>
