<?xml version="1.0" encoding="utf-8" standalone="no"?>
<!DOCTYPE svg PUBLIC "-//W3C//DTD SVG 1.1//EN"
  "http://www.w3.org/Graphics/SVG/1.1/DTD/svg11.dtd">
<svg xmlns:xlink="http://www.w3.org/1999/xlink" width="712.837188pt" height="424.5775pt" viewBox="0 0 712.837188 424.5775" xmlns="http://www.w3.org/2000/svg" version="1.1">
 <metadata>
  <rdf:RDF xmlns:dc="http://purl.org/dc/elements/1.1/" xmlns:cc="http://creativecommons.org/ns#" xmlns:rdf="http://www.w3.org/1999/02/22-rdf-syntax-ns#">
   <cc:Work>
    <dc:type rdf:resource="http://purl.org/dc/dcmitype/StillImage"/>
    <dc:date>2026-06-14T19:02:03.120338</dc:date>
    <dc:format>image/svg+xml</dc:format>
    <dc:creator>
     <cc:Agent>
      <dc:title>Matplotlib v3.10.1, https://matplotlib.org/</dc:title>
     </cc:Agent>
    </dc:creator>
   </cc:Work>
  </rdf:RDF>
 </metadata>
 <defs>
  <style type="text/css">*{stroke-linejoin: round; stroke-linecap: butt}</style>
 </defs>
 <g id="figure_1">
  <g id="patch_1">
   <path d="M 0 424.5775 
L 712.837188 424.5775 
L 712.837188 0 
L 0 0 
z
" style="fill: #ffffff"/>
  </g>
  <g id="axes_1">
   <g id="patch_2">
    <path d="M 47.307188 384.117812 
L 705.637188 384.117812 
L 705.637188 23.837812 
L 47.307188 23.837812 
z
" style="fill: #ffffff"/>
   </g>
   <g id="matplotlib.axis_1">
    <g id="xtick_1">
     <g id="line2d_1">
      <path d="M 47.307188 384.117812 
L 47.307188 23.837812 
" clip-path="url(#pc0253b096d)" style="fill: none; stroke: #b0b0b0; stroke-opacity: 0.2; stroke-width: 0.6; stroke-linecap: square"/>
     </g>
     <g id="line2d_2">
      <defs>
       <path id="m1baa2ad850" d="M 0 0 
L 0 3.5 
" style="stroke: #000000; stroke-width: 0.8"/>
      </defs>
      <g>
       <use xlink:href="#m1baa2ad850" x="47.307188" y="384.117812" style="stroke: #000000; stroke-width: 0.8"/>
      </g>
     </g>
     <g id="text_1">
      <!-- 0 -->
      <g transform="translate(43.807813 399.476094) scale(0.11 -0.11)">
       <defs>
        <path id="DejaVuSans-30" d="M 2034 4250 
Q 1547 4250 1301 3770 
Q 1056 3291 1056 2328 
Q 1056 1369 1301 889 
Q 1547 409 2034 409 
Q 2525 409 2770 889 
Q 3016 1369 3016 2328 
Q 3016 3291 2770 3770 
Q 2525 4250 2034 4250 
z
M 2034 4750 
Q 2819 4750 3233 4129 
Q 3647 3509 3647 2328 
Q 3647 1150 3233 529 
Q 2819 -91 2034 -91 
Q 1250 -91 836 529 
Q 422 1150 422 2328 
Q 422 3509 836 4129 
Q 1250 4750 2034 4750 
z
" transform="scale(0.015625)"/>
       </defs>
       <use xlink:href="#DejaVuSans-30"/>
      </g>
     </g>
    </g>
    <g id="xtick_2">
     <g id="line2d_3">
      <path d="M 134.387875 384.117812 
L 134.387875 23.837812 
" clip-path="url(#pc0253b096d)" style="fill: none; stroke: #b0b0b0; stroke-opacity: 0.2; stroke-width: 0.6; stroke-linecap: square"/>
     </g>
     <g id="line2d_4">
      <g>
       <use xlink:href="#m1baa2ad850" x="134.387875" y="384.117812" style="stroke: #000000; stroke-width: 0.8"/>
      </g>
     </g>
     <g id="text_2">
      <!-- 25 -->
      <g transform="translate(127.389125 399.476094) scale(0.11 -0.11)">
       <defs>
        <path id="DejaVuSans-32" d="M 1228 531 
L 3431 531 
L 3431 0 
L 469 0 
L 469 531 
Q 828 903 1448 1529 
Q 2069 2156 2228 2338 
Q 2531 2678 2651 2914 
Q 2772 3150 2772 3378 
Q 2772 3750 2511 3984 
Q 2250 4219 1831 4219 
Q 1534 4219 1204 4116 
Q 875 4013 500 3803 
L 500 4441 
Q 881 4594 1212 4672 
Q 1544 4750 1819 4750 
Q 2544 4750 2975 4387 
Q 3406 4025 3406 3419 
Q 3406 3131 3298 2873 
Q 3191 2616 2906 2266 
Q 2828 2175 2409 1742 
Q 1991 1309 1228 531 
z
" transform="scale(0.015625)"/>
        <path id="DejaVuSans-35" d="M 691 4666 
L 3169 4666 
L 3169 4134 
L 1269 4134 
L 1269 2991 
Q 1406 3038 1543 3061 
Q 1681 3084 1819 3084 
Q 2600 3084 3056 2656 
Q 3513 2228 3513 1497 
Q 3513 744 3044 326 
Q 2575 -91 1722 -91 
Q 1428 -91 1123 -41 
Q 819 9 494 109 
L 494 744 
Q 775 591 1075 516 
Q 1375 441 1709 441 
Q 2250 441 2565 725 
Q 2881 1009 2881 1497 
Q 2881 1984 2565 2268 
Q 2250 2553 1709 2553 
Q 1456 2553 1204 2497 
Q 953 2441 691 2322 
L 691 4666 
z
" transform="scale(0.015625)"/>
       </defs>
       <use xlink:href="#DejaVuSans-32"/>
       <use xlink:href="#DejaVuSans-35" transform="translate(63.623047 0)"/>
      </g>
     </g>
    </g>
    <g id="xtick_3">
     <g id="line2d_5">
      <path d="M 221.468563 384.117812 
L 221.468563 23.837812 
" clip-path="url(#pc0253b096d)" style="fill: none; stroke: #b0b0b0; stroke-opacity: 0.2; stroke-width: 0.6; stroke-linecap: square"/>
     </g>
     <g id="line2d_6">
      <g>
       <use xlink:href="#m1baa2ad850" x="221.468563" y="384.117812" style="stroke: #000000; stroke-width: 0.8"/>
      </g>
     </g>
     <g id="text_3">
      <!-- 50 -->
      <g transform="translate(214.469813 399.476094) scale(0.11 -0.11)">
       <use xlink:href="#DejaVuSans-35"/>
       <use xlink:href="#DejaVuSans-30" transform="translate(63.623047 0)"/>
      </g>
     </g>
    </g>
    <g id="xtick_4">
     <g id="line2d_7">
      <path d="M 308.549251 384.117812 
L 308.549251 23.837812 
" clip-path="url(#pc0253b096d)" style="fill: none; stroke: #b0b0b0; stroke-opacity: 0.2; stroke-width: 0.6; stroke-linecap: square"/>
     </g>
     <g id="line2d_8">
      <g>
       <use xlink:href="#m1baa2ad850" x="308.549251" y="384.117812" style="stroke: #000000; stroke-width: 0.8"/>
      </g>
     </g>
     <g id="text_4">
      <!-- 75 -->
      <g transform="translate(301.550501 399.476094) scale(0.11 -0.11)">
       <defs>
        <path id="DejaVuSans-37" d="M 525 4666 
L 3525 4666 
L 3525 4397 
L 1831 0 
L 1172 0 
L 2766 4134 
L 525 4134 
L 525 4666 
z
" transform="scale(0.015625)"/>
       </defs>
       <use xlink:href="#DejaVuSans-37"/>
       <use xlink:href="#DejaVuSans-35" transform="translate(63.623047 0)"/>
      </g>
     </g>
    </g>
    <g id="xtick_5">
     <g id="line2d_9">
      <path d="M 395.629939 384.117812 
L 395.629939 23.837812 
" clip-path="url(#pc0253b096d)" style="fill: none; stroke: #b0b0b0; stroke-opacity: 0.2; stroke-width: 0.6; stroke-linecap: square"/>
     </g>
     <g id="line2d_10">
      <g>
       <use xlink:href="#m1baa2ad850" x="395.629939" y="384.117812" style="stroke: #000000; stroke-width: 0.8"/>
      </g>
     </g>
     <g id="text_5">
      <!-- 100 -->
      <g transform="translate(385.131814 399.476094) scale(0.11 -0.11)">
       <defs>
        <path id="DejaVuSans-31" d="M 794 531 
L 1825 531 
L 1825 4091 
L 703 3866 
L 703 4441 
L 1819 4666 
L 2450 4666 
L 2450 531 
L 3481 531 
L 3481 0 
L 794 0 
L 794 531 
z
" transform="scale(0.015625)"/>
       </defs>
       <use xlink:href="#DejaVuSans-31"/>
       <use xlink:href="#DejaVuSans-30" transform="translate(63.623047 0)"/>
       <use xlink:href="#DejaVuSans-30" transform="translate(127.246094 0)"/>
      </g>
     </g>
    </g>
    <g id="xtick_6">
     <g id="line2d_11">
      <path d="M 482.710627 384.117812 
L 482.710627 23.837812 
" clip-path="url(#pc0253b096d)" style="fill: none; stroke: #b0b0b0; stroke-opacity: 0.2; stroke-width: 0.6; stroke-linecap: square"/>
     </g>
     <g id="line2d_12">
      <g>
       <use xlink:href="#m1baa2ad850" x="482.710627" y="384.117812" style="stroke: #000000; stroke-width: 0.8"/>
      </g>
     </g>
     <g id="text_6">
      <!-- 125 -->
      <g transform="translate(472.212502 399.476094) scale(0.11 -0.11)">
       <use xlink:href="#DejaVuSans-31"/>
       <use xlink:href="#DejaVuSans-32" transform="translate(63.623047 0)"/>
       <use xlink:href="#DejaVuSans-35" transform="translate(127.246094 0)"/>
      </g>
     </g>
    </g>
    <g id="xtick_7">
     <g id="line2d_13">
      <path d="M 569.791314 384.117812 
L 569.791314 23.837812 
" clip-path="url(#pc0253b096d)" style="fill: none; stroke: #b0b0b0; stroke-opacity: 0.2; stroke-width: 0.6; stroke-linecap: square"/>
     </g>
     <g id="line2d_14">
      <g>
       <use xlink:href="#m1baa2ad850" x="569.791314" y="384.117812" style="stroke: #000000; stroke-width: 0.8"/>
      </g>
     </g>
     <g id="text_7">
      <!-- 150 -->
      <g transform="translate(559.293189 399.476094) scale(0.11 -0.11)">
       <use xlink:href="#DejaVuSans-31"/>
       <use xlink:href="#DejaVuSans-35" transform="translate(63.623047 0)"/>
       <use xlink:href="#DejaVuSans-30" transform="translate(127.246094 0)"/>
      </g>
     </g>
    </g>
    <g id="xtick_8">
     <g id="line2d_15">
      <path d="M 656.872002 384.117812 
L 656.872002 23.837812 
" clip-path="url(#pc0253b096d)" style="fill: none; stroke: #b0b0b0; stroke-opacity: 0.2; stroke-width: 0.6; stroke-linecap: square"/>
     </g>
     <g id="line2d_16">
      <g>
       <use xlink:href="#m1baa2ad850" x="656.872002" y="384.117812" style="stroke: #000000; stroke-width: 0.8"/>
      </g>
     </g>
     <g id="text_8">
      <!-- 175 -->
      <g transform="translate(646.373877 399.476094) scale(0.11 -0.11)">
       <use xlink:href="#DejaVuSans-31"/>
       <use xlink:href="#DejaVuSans-37" transform="translate(63.623047 0)"/>
       <use xlink:href="#DejaVuSans-35" transform="translate(127.246094 0)"/>
      </g>
     </g>
    </g>
    <g id="text_9">
     <!-- Time (s) -->
     <g transform="translate(352.0775 414.881875) scale(0.12 -0.12)">
      <defs>
       <path id="DejaVuSans-54" d="M -19 4666 
L 3928 4666 
L 3928 4134 
L 2272 4134 
L 2272 0 
L 1638 0 
L 1638 4134 
L -19 4134 
L -19 4666 
z
" transform="scale(0.015625)"/>
       <path id="DejaVuSans-69" d="M 603 3500 
L 1178 3500 
L 1178 0 
L 603 0 
L 603 3500 
z
M 603 4863 
L 1178 4863 
L 1178 4134 
L 603 4134 
L 603 4863 
z
" transform="scale(0.015625)"/>
       <path id="DejaVuSans-6d" d="M 3328 2828 
Q 3544 3216 3844 3400 
Q 4144 3584 4550 3584 
Q 5097 3584 5394 3201 
Q 5691 2819 5691 2113 
L 5691 0 
L 5113 0 
L 5113 2094 
Q 5113 2597 4934 2840 
Q 4756 3084 4391 3084 
Q 3944 3084 3684 2787 
Q 3425 2491 3425 1978 
L 3425 0 
L 2847 0 
L 2847 2094 
Q 2847 2600 2669 2842 
Q 2491 3084 2119 3084 
Q 1678 3084 1418 2786 
Q 1159 2488 1159 1978 
L 1159 0 
L 581 0 
L 581 3500 
L 1159 3500 
L 1159 2956 
Q 1356 3278 1631 3431 
Q 1906 3584 2284 3584 
Q 2666 3584 2933 3390 
Q 3200 3197 3328 2828 
z
" transform="scale(0.015625)"/>
       <path id="DejaVuSans-65" d="M 3597 1894 
L 3597 1613 
L 953 1613 
Q 991 1019 1311 708 
Q 1631 397 2203 397 
Q 2534 397 2845 478 
Q 3156 559 3463 722 
L 3463 178 
Q 3153 47 2828 -22 
Q 2503 -91 2169 -91 
Q 1331 -91 842 396 
Q 353 884 353 1716 
Q 353 2575 817 3079 
Q 1281 3584 2069 3584 
Q 2775 3584 3186 3129 
Q 3597 2675 3597 1894 
z
M 3022 2063 
Q 3016 2534 2758 2815 
Q 2500 3097 2075 3097 
Q 1594 3097 1305 2825 
Q 1016 2553 972 2059 
L 3022 2063 
z
" transform="scale(0.015625)"/>
       <path id="DejaVuSans-20" transform="scale(0.015625)"/>
       <path id="DejaVuSans-28" d="M 1984 4856 
Q 1566 4138 1362 3434 
Q 1159 2731 1159 2009 
Q 1159 1288 1364 580 
Q 1569 -128 1984 -844 
L 1484 -844 
Q 1016 -109 783 600 
Q 550 1309 550 2009 
Q 550 2706 781 3412 
Q 1013 4119 1484 4856 
L 1984 4856 
z
" transform="scale(0.015625)"/>
       <path id="DejaVuSans-73" d="M 2834 3397 
L 2834 2853 
Q 2591 2978 2328 3040 
Q 2066 3103 1784 3103 
Q 1356 3103 1142 2972 
Q 928 2841 928 2578 
Q 928 2378 1081 2264 
Q 1234 2150 1697 2047 
L 1894 2003 
Q 2506 1872 2764 1633 
Q 3022 1394 3022 966 
Q 3022 478 2636 193 
Q 2250 -91 1575 -91 
Q 1294 -91 989 -36 
Q 684 19 347 128 
L 347 722 
Q 666 556 975 473 
Q 1284 391 1588 391 
Q 1994 391 2212 530 
Q 2431 669 2431 922 
Q 2431 1156 2273 1281 
Q 2116 1406 1581 1522 
L 1381 1569 
Q 847 1681 609 1914 
Q 372 2147 372 2553 
Q 372 3047 722 3315 
Q 1072 3584 1716 3584 
Q 2034 3584 2315 3537 
Q 2597 3491 2834 3397 
z
" transform="scale(0.015625)"/>
       <path id="DejaVuSans-29" d="M 513 4856 
L 1013 4856 
Q 1481 4119 1714 3412 
Q 1947 2706 1947 2009 
Q 1947 1309 1714 600 
Q 1481 -109 1013 -844 
L 513 -844 
Q 928 -128 1133 580 
Q 1338 1288 1338 2009 
Q 1338 2731 1133 3434 
Q 928 4138 513 4856 
z
" transform="scale(0.015625)"/>
      </defs>
      <use xlink:href="#DejaVuSans-54"/>
      <use xlink:href="#DejaVuSans-69" transform="translate(57.958984 0)"/>
      <use xlink:href="#DejaVuSans-6d" transform="translate(85.742188 0)"/>
      <use xlink:href="#DejaVuSans-65" transform="translate(183.154297 0)"/>
      <use xlink:href="#DejaVuSans-20" transform="translate(244.677734 0)"/>
      <use xlink:href="#DejaVuSans-28" transform="translate(276.464844 0)"/>
      <use xlink:href="#DejaVuSans-73" transform="translate(315.478516 0)"/>
      <use xlink:href="#DejaVuSans-29" transform="translate(367.578125 0)"/>
     </g>
    </g>
   </g>
   <g id="matplotlib.axis_2">
    <g id="ytick_1">
     <g id="line2d_17">
      <path d="M 47.307188 367.741449 
L 705.637188 367.741449 
" clip-path="url(#pc0253b096d)" style="fill: none; stroke: #b0b0b0; stroke-opacity: 0.2; stroke-width: 0.6; stroke-linecap: square"/>
     </g>
     <g id="line2d_18">
      <defs>
       <path id="m038fc5d23e" d="M 0 0 
L -3.5 0 
" style="stroke: #000000; stroke-width: 0.8"/>
      </defs>
      <g>
       <use xlink:href="#m038fc5d23e" x="47.307188" y="367.741449" style="stroke: #000000; stroke-width: 0.8"/>
      </g>
     </g>
     <g id="text_10">
      <!-- 0.0 -->
      <g transform="translate(22.81375 371.920589) scale(0.11 -0.11)">
       <defs>
        <path id="DejaVuSans-2e" d="M 684 794 
L 1344 794 
L 1344 0 
L 684 0 
L 684 794 
z
" transform="scale(0.015625)"/>
       </defs>
       <use xlink:href="#DejaVuSans-30"/>
       <use xlink:href="#DejaVuSans-2e" transform="translate(63.623047 0)"/>
       <use xlink:href="#DejaVuSans-30" transform="translate(95.410156 0)"/>
      </g>
     </g>
    </g>
    <g id="ytick_2">
     <g id="line2d_19">
      <path d="M 47.307188 317.507205 
L 705.637188 317.507205 
" clip-path="url(#pc0253b096d)" style="fill: none; stroke: #b0b0b0; stroke-opacity: 0.2; stroke-width: 0.6; stroke-linecap: square"/>
     </g>
     <g id="line2d_20">
      <g>
       <use xlink:href="#m038fc5d23e" x="47.307188" y="317.507205" style="stroke: #000000; stroke-width: 0.8"/>
      </g>
     </g>
     <g id="text_11">
      <!-- 0.5 -->
      <g transform="translate(22.81375 321.686345) scale(0.11 -0.11)">
       <use xlink:href="#DejaVuSans-30"/>
       <use xlink:href="#DejaVuSans-2e" transform="translate(63.623047 0)"/>
       <use xlink:href="#DejaVuSans-35" transform="translate(95.410156 0)"/>
      </g>
     </g>
    </g>
    <g id="ytick_3">
     <g id="line2d_21">
      <path d="M 47.307188 267.27296 
L 705.637188 267.27296 
" clip-path="url(#pc0253b096d)" style="fill: none; stroke: #b0b0b0; stroke-opacity: 0.2; stroke-width: 0.6; stroke-linecap: square"/>
     </g>
     <g id="line2d_22">
      <g>
       <use xlink:href="#m038fc5d23e" x="47.307188" y="267.27296" style="stroke: #000000; stroke-width: 0.8"/>
      </g>
     </g>
     <g id="text_12">
      <!-- 1.0 -->
      <g transform="translate(22.81375 271.452101) scale(0.11 -0.11)">
       <use xlink:href="#DejaVuSans-31"/>
       <use xlink:href="#DejaVuSans-2e" transform="translate(63.623047 0)"/>
       <use xlink:href="#DejaVuSans-30" transform="translate(95.410156 0)"/>
      </g>
     </g>
    </g>
    <g id="ytick_4">
     <g id="line2d_23">
      <path d="M 47.307188 217.038716 
L 705.637188 217.038716 
" clip-path="url(#pc0253b096d)" style="fill: none; stroke: #b0b0b0; stroke-opacity: 0.2; stroke-width: 0.6; stroke-linecap: square"/>
     </g>
     <g id="line2d_24">
      <g>
       <use xlink:href="#m038fc5d23e" x="47.307188" y="217.038716" style="stroke: #000000; stroke-width: 0.8"/>
      </g>
     </g>
     <g id="text_13">
      <!-- 1.5 -->
      <g transform="translate(22.81375 221.217857) scale(0.11 -0.11)">
       <use xlink:href="#DejaVuSans-31"/>
       <use xlink:href="#DejaVuSans-2e" transform="translate(63.623047 0)"/>
       <use xlink:href="#DejaVuSans-35" transform="translate(95.410156 0)"/>
      </g>
     </g>
    </g>
    <g id="ytick_5">
     <g id="line2d_25">
      <path d="M 47.307188 166.804472 
L 705.637188 166.804472 
" clip-path="url(#pc0253b096d)" style="fill: none; stroke: #b0b0b0; stroke-opacity: 0.2; stroke-width: 0.6; stroke-linecap: square"/>
     </g>
     <g id="line2d_26">
      <g>
       <use xlink:href="#m038fc5d23e" x="47.307188" y="166.804472" style="stroke: #000000; stroke-width: 0.8"/>
      </g>
     </g>
     <g id="text_14">
      <!-- 2.0 -->
      <g transform="translate(22.81375 170.983612) scale(0.11 -0.11)">
       <use xlink:href="#DejaVuSans-32"/>
       <use xlink:href="#DejaVuSans-2e" transform="translate(63.623047 0)"/>
       <use xlink:href="#DejaVuSans-30" transform="translate(95.410156 0)"/>
      </g>
     </g>
    </g>
    <g id="ytick_6">
     <g id="line2d_27">
      <path d="M 47.307188 116.570227 
L 705.637188 116.570227 
" clip-path="url(#pc0253b096d)" style="fill: none; stroke: #b0b0b0; stroke-opacity: 0.2; stroke-width: 0.6; stroke-linecap: square"/>
     </g>
     <g id="line2d_28">
      <g>
       <use xlink:href="#m038fc5d23e" x="47.307188" y="116.570227" style="stroke: #000000; stroke-width: 0.8"/>
      </g>
     </g>
     <g id="text_15">
      <!-- 2.5 -->
      <g transform="translate(22.81375 120.749368) scale(0.11 -0.11)">
       <use xlink:href="#DejaVuSans-32"/>
       <use xlink:href="#DejaVuSans-2e" transform="translate(63.623047 0)"/>
       <use xlink:href="#DejaVuSans-35" transform="translate(95.410156 0)"/>
      </g>
     </g>
    </g>
    <g id="ytick_7">
     <g id="line2d_29">
      <path d="M 47.307188 66.335983 
L 705.637188 66.335983 
" clip-path="url(#pc0253b096d)" style="fill: none; stroke: #b0b0b0; stroke-opacity: 0.2; stroke-width: 0.6; stroke-linecap: square"/>
     </g>
     <g id="line2d_30">
      <g>
       <use xlink:href="#m038fc5d23e" x="47.307188" y="66.335983" style="stroke: #000000; stroke-width: 0.8"/>
      </g>
     </g>
     <g id="text_16">
      <!-- 3.0 -->
      <g transform="translate(22.81375 70.515124) scale(0.11 -0.11)">
       <defs>
        <path id="DejaVuSans-33" d="M 2597 2516 
Q 3050 2419 3304 2112 
Q 3559 1806 3559 1356 
Q 3559 666 3084 287 
Q 2609 -91 1734 -91 
Q 1441 -91 1130 -33 
Q 819 25 488 141 
L 488 750 
Q 750 597 1062 519 
Q 1375 441 1716 441 
Q 2309 441 2620 675 
Q 2931 909 2931 1356 
Q 2931 1769 2642 2001 
Q 2353 2234 1838 2234 
L 1294 2234 
L 1294 2753 
L 1863 2753 
Q 2328 2753 2575 2939 
Q 2822 3125 2822 3475 
Q 2822 3834 2567 4026 
Q 2313 4219 1838 4219 
Q 1578 4219 1281 4162 
Q 984 4106 628 3988 
L 628 4550 
Q 988 4650 1302 4700 
Q 1616 4750 1894 4750 
Q 2613 4750 3031 4423 
Q 3450 4097 3450 3541 
Q 3450 3153 3228 2886 
Q 3006 2619 2597 2516 
z
" transform="scale(0.015625)"/>
       </defs>
       <use xlink:href="#DejaVuSans-33"/>
       <use xlink:href="#DejaVuSans-2e" transform="translate(63.623047 0)"/>
       <use xlink:href="#DejaVuSans-30" transform="translate(95.410156 0)"/>
      </g>
     </g>
    </g>
    <g id="text_17">
     <!-- AU mean intensity -->
     <g transform="translate(16.318125 259.314687) rotate(-90) scale(0.12 -0.12)">
      <defs>
       <path id="DejaVuSans-41" d="M 2188 4044 
L 1331 1722 
L 3047 1722 
L 2188 4044 
z
M 1831 4666 
L 2547 4666 
L 4325 0 
L 3669 0 
L 3244 1197 
L 1141 1197 
L 716 0 
L 50 0 
L 1831 4666 
z
" transform="scale(0.015625)"/>
       <path id="DejaVuSans-55" d="M 556 4666 
L 1191 4666 
L 1191 1831 
Q 1191 1081 1462 751 
Q 1734 422 2344 422 
Q 2950 422 3222 751 
Q 3494 1081 3494 1831 
L 3494 4666 
L 4128 4666 
L 4128 1753 
Q 4128 841 3676 375 
Q 3225 -91 2344 -91 
Q 1459 -91 1007 375 
Q 556 841 556 1753 
L 556 4666 
z
" transform="scale(0.015625)"/>
       <path id="DejaVuSans-61" d="M 2194 1759 
Q 1497 1759 1228 1600 
Q 959 1441 959 1056 
Q 959 750 1161 570 
Q 1363 391 1709 391 
Q 2188 391 2477 730 
Q 2766 1069 2766 1631 
L 2766 1759 
L 2194 1759 
z
M 3341 1997 
L 3341 0 
L 2766 0 
L 2766 531 
Q 2569 213 2275 61 
Q 1981 -91 1556 -91 
Q 1019 -91 701 211 
Q 384 513 384 1019 
Q 384 1609 779 1909 
Q 1175 2209 1959 2209 
L 2766 2209 
L 2766 2266 
Q 2766 2663 2505 2880 
Q 2244 3097 1772 3097 
Q 1472 3097 1187 3025 
Q 903 2953 641 2809 
L 641 3341 
Q 956 3463 1253 3523 
Q 1550 3584 1831 3584 
Q 2591 3584 2966 3190 
Q 3341 2797 3341 1997 
z
" transform="scale(0.015625)"/>
       <path id="DejaVuSans-6e" d="M 3513 2113 
L 3513 0 
L 2938 0 
L 2938 2094 
Q 2938 2591 2744 2837 
Q 2550 3084 2163 3084 
Q 1697 3084 1428 2787 
Q 1159 2491 1159 1978 
L 1159 0 
L 581 0 
L 581 3500 
L 1159 3500 
L 1159 2956 
Q 1366 3272 1645 3428 
Q 1925 3584 2291 3584 
Q 2894 3584 3203 3211 
Q 3513 2838 3513 2113 
z
" transform="scale(0.015625)"/>
       <path id="DejaVuSans-74" d="M 1172 4494 
L 1172 3500 
L 2356 3500 
L 2356 3053 
L 1172 3053 
L 1172 1153 
Q 1172 725 1289 603 
Q 1406 481 1766 481 
L 2356 481 
L 2356 0 
L 1766 0 
Q 1100 0 847 248 
Q 594 497 594 1153 
L 594 3053 
L 172 3053 
L 172 3500 
L 594 3500 
L 594 4494 
L 1172 4494 
z
" transform="scale(0.015625)"/>
       <path id="DejaVuSans-79" d="M 2059 -325 
Q 1816 -950 1584 -1140 
Q 1353 -1331 966 -1331 
L 506 -1331 
L 506 -850 
L 844 -850 
Q 1081 -850 1212 -737 
Q 1344 -625 1503 -206 
L 1606 56 
L 191 3500 
L 800 3500 
L 1894 763 
L 2988 3500 
L 3597 3500 
L 2059 -325 
z
" transform="scale(0.015625)"/>
      </defs>
      <use xlink:href="#DejaVuSans-41"/>
      <use xlink:href="#DejaVuSans-55" transform="translate(68.408203 0)"/>
      <use xlink:href="#DejaVuSans-20" transform="translate(141.601562 0)"/>
      <use xlink:href="#DejaVuSans-6d" transform="translate(173.388672 0)"/>
      <use xlink:href="#DejaVuSans-65" transform="translate(270.800781 0)"/>
      <use xlink:href="#DejaVuSans-61" transform="translate(332.324219 0)"/>
      <use xlink:href="#DejaVuSans-6e" transform="translate(393.603516 0)"/>
      <use xlink:href="#DejaVuSans-20" transform="translate(456.982422 0)"/>
      <use xlink:href="#DejaVuSans-69" transform="translate(488.769531 0)"/>
      <use xlink:href="#DejaVuSans-6e" transform="translate(516.552734 0)"/>
      <use xlink:href="#DejaVuSans-74" transform="translate(579.931641 0)"/>
      <use xlink:href="#DejaVuSans-65" transform="translate(619.140625 0)"/>
      <use xlink:href="#DejaVuSans-6e" transform="translate(680.664062 0)"/>
      <use xlink:href="#DejaVuSans-73" transform="translate(744.042969 0)"/>
      <use xlink:href="#DejaVuSans-69" transform="translate(796.142578 0)"/>
      <use xlink:href="#DejaVuSans-74" transform="translate(823.925781 0)"/>
      <use xlink:href="#DejaVuSans-79" transform="translate(863.134766 0)"/>
     </g>
    </g>
   </g>
   <g id="FillBetweenPolyCollection_1">
    <defs>
     <path id="m2da12616b3" d="M 47.307188 -150.755353 
L 47.307188 -11.73574 
L 50.790415 -16.59038 
L 54.273643 1.283923 
L 57.75687 16.487237 
L 61.240098 -8.817044 
L 64.723325 -6.663664 
L 68.206553 -9.877107 
L 71.68978 -24.886017 
L 75.173008 -21.187515 
L 78.656235 -18.46729 
L 82.139463 -16.454385 
L 85.62269 -17.566805 
L 89.105918 -13.350615 
L 92.589145 -29.274764 
L 96.072373 -12.997935 
L 99.5556 -18.355574 
L 103.038828 -26.34719 
L 106.522055 1.46294 
L 110.005283 -30.341743 
L 113.48851 -32.308398 
L 116.971738 -29.280688 
L 120.454965 -10.964445 
L 123.938193 -12.593563 
L 127.42142 -19.163653 
L 130.904648 20.372205 
L 134.387875 -11.972277 
L 137.871103 -31.95631 
L 141.35433 -26.385869 
L 144.837558 -26.210555 
L 148.320785 -33.758371 
L 151.804013 -31.840023 
L 155.28724 -27.659582 
L 158.770468 -26.278947 
L 162.253695 -27.02512 
L 165.736923 -26.422359 
L 169.22015 -19.920771 
L 172.703378 -27.572789 
L 176.186605 -25.099267 
L 179.669833 -21.977152 
L 183.153061 -20.887426 
L 186.636288 -18.210621 
L 190.119516 16.42059 
L 193.602743 23.092311 
L 197.085971 12.613369 
L 200.569198 22.758172 
L 204.052426 -1.390599 
L 207.535653 17.380411 
L 211.018881 1.922444 
L 214.502108 14.283536 
L 217.985336 -14.51983 
L 221.468563 -4.556938 
L 224.951791 -11.378833 
L 228.435018 -15.594623 
L 231.918246 -11.316203 
L 235.401473 -12.165497 
L 238.884701 -11.639601 
L 242.367928 17.210498 
L 245.851156 0.840332 
L 249.334383 9.160062 
L 252.817611 -7.725758 
L 256.300838 -15.967578 
L 259.784066 -8.268931 
L 263.267293 12.626369 
L 266.750521 -26.029923 
L 270.233748 -14.474501 
L 273.716976 -8.76272 
L 277.200203 7.477969 
L 280.683431 22.680237 
L 284.166658 44.551792 
L 287.649886 24.224961 
L 291.133113 55.720269 
L 294.616341 74.53884 
L 298.099568 28.093386 
L 301.582796 37.506429 
L 305.066023 -22.973748 
L 308.549251 11.718997 
L 312.032479 29.446268 
L 315.515706 31.463608 
L 318.998934 41.29683 
L 322.482161 30.755506 
L 325.965389 34.68908 
L 329.448616 31.404135 
L 332.931844 1.064665 
L 336.415071 -6.449908 
L 339.898299 2.645777 
L 343.381526 -3.507776 
L 346.864754 -14.964362 
L 350.347981 -17.448339 
L 353.831209 -6.800795 
L 357.314436 42.263649 
L 360.797664 25.708999 
L 364.280891 -15.421189 
L 367.764119 -8.305192 
L 371.247346 1.089403 
L 374.730574 2.922373 
L 378.213801 -7.968991 
L 381.697029 -12.482958 
L 385.180256 11.22262 
L 388.663484 10.358736 
L 392.146711 12.176802 
L 395.629939 -6.138743 
L 399.113166 -4.194619 
L 402.596394 -6.921966 
L 406.079621 -8.353594 
L 409.562849 -1.833207 
L 413.046076 7.927836 
L 416.529304 -9.723771 
L 420.012531 1.046768 
L 423.495759 -9.897855 
L 426.978986 -30.540754 
L 430.462214 -25.073018 
L 433.945441 -10.192734 
L 437.428669 -4.207885 
L 440.911896 -14.150685 
L 444.395124 -34.698924 
L 447.878352 -17.417632 
L 451.361579 5.6236 
L 454.844807 17.106422 
L 458.328034 7.705343 
L 461.811262 1.039015 
L 465.294489 -9.105732 
L 468.777717 -11.718315 
L 472.260944 13.81007 
L 475.744172 12.031827 
L 479.227399 9.077988 
L 482.710627 -7.351813 
L 486.193854 3.313884 
L 489.677082 -21.094598 
L 493.160309 -22.973915 
L 496.643537 -30.695832 
L 500.126764 -19.201118 
L 503.609992 14.225975 
L 507.093219 22.537704 
L 510.576447 25.089752 
L 514.059674 19.726604 
L 517.542902 11.784186 
L 521.026129 8.694181 
L 524.509357 7.094504 
L 527.992584 14.477554 
L 531.475812 -16.356239 
L 534.959039 -24.9606 
L 538.442267 -20.714912 
L 541.925494 -17.490883 
L 545.408722 -18.854014 
L 548.891949 -2.38519 
L 552.375177 24.066945 
L 555.858404 16.324487 
L 559.341632 9.110449 
L 562.824859 -4.520688 
L 566.308087 -11.198567 
L 569.791314 -22.181607 
L 573.274542 -20.201602 
L 576.75777 -28.015518 
L 580.240997 -23.481933 
L 583.724225 -5.731021 
L 587.207452 -11.151615 
L 590.69068 7.67701 
L 594.173907 -0.074777 
L 597.657135 -15.198916 
L 601.140362 0.535326 
L 604.62359 14.025869 
L 608.106817 -9.629349 
L 611.590045 -5.099921 
L 615.073272 0.935087 
L 618.5565 3.558047 
L 622.039727 -1.479253 
L 625.522955 -9.685998 
L 629.006182 -15.337537 
L 632.48941 -28.261162 
L 635.972637 -26.441922 
L 639.455865 -23.342406 
L 642.939092 -6.189885 
L 646.42232 -23.407701 
L 649.905547 -39.262557 
L 653.388775 -29.875605 
L 656.872002 -20.864472 
L 660.35523 -12.755318 
L 663.838457 -8.497968 
L 667.321685 -3.077836 
L 670.804912 -19.998593 
L 674.28814 -8.986209 
L 677.771367 -23.929273 
L 681.254595 -1.390092 
L 684.737822 18.591366 
L 688.22105 12.071002 
L 691.704277 4.73987 
L 695.187505 -15.203788 
L 698.670732 -10.552145 
L 702.15396 -25.998222 
L 705.637188 -1.501465 
L 705.637188 -213.479926 
L 705.637188 -213.479926 
L 702.15396 -182.449155 
L 698.670732 -192.219339 
L 695.187505 -175.342913 
L 691.704277 -206.330226 
L 688.22105 -268.116843 
L 684.737822 -268.396938 
L 681.254595 -237.787845 
L 677.771367 -201.113615 
L 674.28814 -207.527732 
L 670.804912 -179.045075 
L 667.321685 -214.600343 
L 663.838457 -204.685907 
L 660.35523 -181.343929 
L 656.872002 -164.99837 
L 653.388775 -142.72887 
L 649.905547 -136.180343 
L 646.42232 -170.442244 
L 642.939092 -199.350923 
L 639.455865 -161.283385 
L 635.972637 -164.790788 
L 632.48941 -192.176783 
L 629.006182 -196.2527 
L 625.522955 -196.332352 
L 622.039727 -236.390022 
L 618.5565 -235.279377 
L 615.073272 -240.464624 
L 611.590045 -212.209292 
L 608.106817 -203.714422 
L 604.62359 -229.39053 
L 601.140362 -212.877078 
L 597.657135 -188.126978 
L 594.173907 -193.817549 
L 590.69068 -198.218724 
L 587.207452 -178.713976 
L 583.724225 -201.583696 
L 580.240997 -163.231027 
L 576.75777 -143.256783 
L 573.274542 -153.533068 
L 569.791314 -152.634172 
L 566.308087 -175.498403 
L 562.824859 -180.007875 
L 559.341632 -197.294459 
L 555.858404 -208.935404 
L 552.375177 -224.208571 
L 548.891949 -192.088009 
L 545.408722 -179.739278 
L 541.925494 -176.947413 
L 538.442267 -183.067031 
L 534.959039 -181.005396 
L 531.475812 -201.851061 
L 527.992584 -284.369431 
L 524.509357 -302.364066 
L 521.026129 -284.432176 
L 517.542902 -261.237984 
L 514.059674 -261.502262 
L 510.576447 -286.892913 
L 507.093219 -307.287948 
L 503.609992 -277.585466 
L 500.126764 -204.717076 
L 496.643537 -177.749767 
L 493.160309 -193.006489 
L 489.677082 -226.777697 
L 486.193854 -289.232478 
L 482.710627 -279.684545 
L 479.227399 -276.65668 
L 475.744172 -279.140034 
L 472.260944 -257.132075 
L 468.777717 -183.430321 
L 465.294489 -219.305434 
L 461.811262 -226.608881 
L 458.328034 -223.536437 
L 454.844807 -238.10143 
L 451.361579 -231.167491 
L 447.878352 -203.181273 
L 444.395124 -201.304318 
L 440.911896 -229.280536 
L 437.428669 -266.901123 
L 433.945441 -268.273921 
L 430.462214 -246.094196 
L 426.978986 -204.997264 
L 423.495759 -244.369395 
L 420.012531 -267.588365 
L 416.529304 -204.011909 
L 413.046076 -225.69631 
L 409.562849 -192.494593 
L 406.079621 -197.384893 
L 402.596394 -201.400563 
L 399.113166 -219.313413 
L 395.629939 -184.446163 
L 392.146711 -219.701687 
L 388.663484 -221.044931 
L 385.180256 -219.067535 
L 381.697029 -180.290997 
L 378.213801 -187.935127 
L 374.730574 -202.286251 
L 371.247346 -226.491297 
L 367.764119 -195.034404 
L 364.280891 -166.301919 
L 360.797664 -211.746251 
L 357.314436 -235.434394 
L 353.831209 -173.990332 
L 350.347981 -151.869665 
L 346.864754 -154.608205 
L 343.381526 -173.047632 
L 339.898299 -189.171452 
L 336.415071 -173.953732 
L 332.931844 -185.279818 
L 329.448616 -255.35024 
L 325.965389 -253.729091 
L 322.482161 -246.073913 
L 318.998934 -243.765868 
L 315.515706 -223.8369 
L 312.032479 -214.099231 
L 308.549251 -186.779182 
L 305.066023 -154.654013 
L 301.582796 -246.788856 
L 298.099568 -244.544499 
L 294.616341 -320.456853 
L 291.133113 -349.408114 
L 287.649886 -335.321579 
L 284.166658 -292.624971 
L 280.683431 -239.635011 
L 277.200203 -202.576914 
L 273.716976 -176.191376 
L 270.233748 -156.369905 
L 266.750521 -131.264691 
L 263.267293 -183.652765 
L 259.784066 -157.15377 
L 256.300838 -151.852801 
L 252.817611 -169.436033 
L 249.334383 -201.890643 
L 245.851156 -205.283182 
L 242.367928 -221.551049 
L 238.884701 -177.365213 
L 235.401473 -167.047959 
L 231.918246 -172.683841 
L 228.435018 -161.861258 
L 224.951791 -174.353427 
L 221.468563 -178.308784 
L 217.985336 -163.755909 
L 214.502108 -221.338979 
L 211.018881 -199.148619 
L 207.535653 -227.419993 
L 204.052426 -184.565516 
L 200.569198 -227.712004 
L 197.085971 -189.673893 
L 193.602743 -202.225991 
L 190.119516 -183.953929 
L 186.636288 -127.551565 
L 183.153061 -126.850689 
L 179.669833 -123.525761 
L 176.186605 -117.255656 
L 172.703378 -112.350757 
L 169.22015 -122.628693 
L 165.736923 -114.069595 
L 162.253695 -114.114587 
L 158.770468 -123.826071 
L 155.28724 -117.384272 
L 151.804013 -118.342278 
L 148.320785 -112.159586 
L 144.837558 -112.805533 
L 141.35433 -109.810363 
L 137.871103 -104.837269 
L 134.387875 -136.890446 
L 130.904648 -186.213131 
L 127.42142 -121.512354 
L 123.938193 -130.987235 
L 120.454965 -135.217341 
L 116.971738 -106.539356 
L 113.48851 -103.719942 
L 110.005283 -109.851049 
L 106.522055 -154.432346 
L 103.038828 -116.433351 
L 99.5556 -137.044262 
L 96.072373 -141.238008 
L 92.589145 -119.462706 
L 89.105918 -154.743996 
L 85.62269 -140.953684 
L 82.139463 -145.649512 
L 78.656235 -142.670177 
L 75.173008 -136.825345 
L 71.68978 -128.110038 
L 68.206553 -161.114387 
L 64.723325 -171.724003 
L 61.240098 -160.32962 
L 57.75687 -218.078594 
L 54.273643 -206.990645 
L 50.790415 -149.589166 
L 47.307188 -150.755353 
z
" style="stroke: #d3d3d3; stroke-opacity: 0.5"/>
    </defs>
    <g clip-path="url(#pc0253b096d)">
     <use xlink:href="#m2da12616b3" x="0" y="424.5775" style="fill: #d3d3d3; fill-opacity: 0.5; stroke: #d3d3d3; stroke-opacity: 0.5"/>
    </g>
   </g>
   <g id="FillBetweenPolyCollection_2">
    <defs>
     <path id="mfb5236afb3" d="M 47.307188 -116.00045 
L 47.307188 -46.490643 
L 50.790415 -49.840076 
L 54.273643 -50.784719 
L 57.75687 -42.154221 
L 61.240098 -46.695188 
L 64.723325 -47.928749 
L 68.206553 -47.686427 
L 71.68978 -50.692022 
L 75.173008 -50.096972 
L 78.656235 -49.518012 
L 82.139463 -48.753167 
L 85.62269 -48.413525 
L 89.105918 -48.69896 
L 92.589145 -51.821749 
L 96.072373 -45.057953 
L 99.5556 -48.027746 
L 103.038828 -48.86873 
L 106.522055 -37.510881 
L 110.005283 -50.219069 
L 113.48851 -50.161284 
L 116.971738 -48.595355 
L 120.454965 -42.027669 
L 123.938193 -42.191981 
L 127.42142 -44.750828 
L 130.904648 -31.274129 
L 134.387875 -43.201819 
L 137.871103 -50.17655 
L 141.35433 -47.241992 
L 144.837558 -47.8593 
L 148.320785 -53.358674 
L 151.804013 -53.465587 
L 155.28724 -50.090755 
L 158.770468 -50.665728 
L 162.253695 -48.797487 
L 165.736923 -48.334168 
L 169.22015 -45.597752 
L 172.703378 -48.767281 
L 176.186605 -48.138364 
L 179.669833 -47.364304 
L 183.153061 -47.378242 
L 186.636288 -45.545857 
L 190.119516 -33.67304 
L 193.602743 -33.237264 
L 197.085971 -37.958446 
L 200.569198 -39.859372 
L 204.052426 -47.184329 
L 207.535653 -43.81969 
L 211.018881 -48.345321 
L 214.502108 -44.622093 
L 217.985336 -51.82885 
L 221.468563 -47.9949 
L 224.951791 -52.122481 
L 228.435018 -52.161282 
L 231.918246 -51.658113 
L 235.401473 -50.886113 
L 238.884701 -53.071004 
L 242.367928 -42.479888 
L 245.851156 -50.690547 
L 249.334383 -43.602615 
L 252.817611 -48.153327 
L 256.300838 -49.938884 
L 259.784066 -45.490141 
L 263.267293 -36.443415 
L 266.750521 -52.338615 
L 270.233748 -49.948352 
L 273.716976 -50.619884 
L 277.200203 -45.035752 
L 280.683431 -42.898575 
L 284.166658 -39.742399 
L 287.649886 -65.661674 
L 291.133113 -45.561827 
L 294.616341 -24.210083 
L 298.099568 -40.066085 
L 301.582796 -33.567393 
L 305.066023 -55.893814 
L 308.549251 -37.905548 
L 312.032479 -31.440107 
L 315.515706 -32.361519 
L 318.998934 -29.968844 
L 322.482161 -38.451849 
L 325.965389 -37.415463 
L 329.448616 -40.284459 
L 332.931844 -45.521456 
L 336.415071 -48.325864 
L 339.898299 -45.308531 
L 343.381526 -45.89274 
L 346.864754 -49.875323 
L 350.347981 -51.053671 
L 353.831209 -48.598179 
L 357.314436 -27.160862 
L 360.797664 -33.654813 
L 364.280891 -53.141372 
L 367.764119 -54.987495 
L 371.247346 -55.805772 
L 374.730574 -48.379783 
L 378.213801 -52.960525 
L 381.697029 -54.434968 
L 385.180256 -46.349919 
L 388.663484 -47.492181 
L 392.146711 -45.792821 
L 395.629939 -50.715598 
L 399.113166 -57.974317 
L 402.596394 -55.541615 
L 406.079621 -55.611419 
L 409.562849 -49.498554 
L 413.046076 -50.4782 
L 416.529304 -58.295805 
L 420.012531 -66.112015 
L 423.495759 -68.51574 
L 426.978986 -74.154881 
L 430.462214 -80.328312 
L 433.945441 -74.713031 
L 437.428669 -69.881194 
L 440.911896 -67.933148 
L 444.395124 -76.350273 
L 447.878352 -63.858542 
L 451.361579 -53.574173 
L 454.844807 -46.695541 
L 458.328034 -50.105102 
L 461.811262 -55.872959 
L 465.294489 -61.655657 
L 468.777717 -54.646317 
L 472.260944 -53.925466 
L 475.744172 -60.761139 
L 479.227399 -62.355679 
L 482.710627 -75.434996 
L 486.193854 -69.822706 
L 489.677082 -72.515373 
L 493.160309 -65.482059 
L 496.643537 -67.459316 
L 500.126764 -65.580108 
L 503.609992 -58.726885 
L 507.093219 -59.918709 
L 510.576447 -52.905914 
L 514.059674 -50.580612 
L 517.542902 -56.471357 
L 521.026129 -64.587409 
L 524.509357 -70.270138 
L 527.992584 -60.234192 
L 531.475812 -62.729944 
L 534.959039 -63.971799 
L 538.442267 -61.302942 
L 541.925494 -57.355016 
L 545.408722 -59.07533 
L 548.891949 -49.810895 
L 552.375177 -38.001934 
L 555.858404 -39.990486 
L 559.341632 -42.490778 
L 562.824859 -48.392485 
L 566.308087 -52.273526 
L 569.791314 -54.794748 
L 573.274542 -53.534468 
L 576.75777 -56.825834 
L 580.240997 -58.419207 
L 583.724225 -54.69419 
L 587.207452 -53.042206 
L 590.69068 -43.796924 
L 594.173907 -48.51047 
L 597.657135 -58.430931 
L 601.140362 -52.817775 
L 604.62359 -46.828231 
L 608.106817 -58.150618 
L 611.590045 -56.877263 
L 615.073272 -59.414841 
L 618.5565 -56.151309 
L 622.039727 -60.206946 
L 625.522955 -56.347586 
L 629.006182 -60.566328 
L 632.48941 -69.240068 
L 635.972637 -61.029138 
L 639.455865 -57.827651 
L 642.939092 -54.480144 
L 646.42232 -60.166337 
L 649.905547 -63.492004 
L 653.388775 -58.088921 
L 656.872002 -56.897946 
L 660.35523 -54.902471 
L 663.838457 -57.544953 
L 667.321685 -55.958463 
L 670.804912 -59.760214 
L 674.28814 -58.62159 
L 677.771367 -68.225358 
L 681.254595 -60.48953 
L 684.737822 -53.15571 
L 688.22105 -57.975959 
L 691.704277 -48.027654 
L 695.187505 -55.238569 
L 698.670732 -55.968944 
L 702.15396 -65.110955 
L 705.637188 -54.49608 
L 705.637188 -160.485311 
L 705.637188 -160.485311 
L 702.15396 -143.336421 
L 698.670732 -146.802541 
L 695.187505 -135.308132 
L 691.704277 -153.562702 
L 688.22105 -198.069882 
L 684.737822 -196.649862 
L 681.254595 -178.688406 
L 677.771367 -156.817529 
L 674.28814 -157.892351 
L 670.804912 -139.283454 
L 667.321685 -161.719716 
L 663.838457 -155.638922 
L 660.35523 -139.196776 
L 656.872002 -128.964896 
L 653.388775 -114.515553 
L 649.905547 -111.950897 
L 646.42232 -133.683608 
L 642.939092 -151.060664 
L 639.455865 -126.79814 
L 635.972637 -130.203571 
L 632.48941 -151.197878 
L 629.006182 -151.023909 
L 625.522955 -149.670763 
L 622.039727 -177.66233 
L 618.5565 -175.570021 
L 615.073272 -180.114697 
L 611.590045 -160.431949 
L 608.106817 -155.193154 
L 604.62359 -168.53643 
L 601.140362 -159.523977 
L 597.657135 -144.894962 
L 594.173907 -145.381856 
L 590.69068 -146.744791 
L 587.207452 -136.823386 
L 583.724225 -152.620527 
L 580.240997 -128.293753 
L 576.75777 -114.446466 
L 573.274542 -120.200201 
L 569.791314 -120.02103 
L 566.308087 -134.423444 
L 562.824859 -136.136078 
L 559.341632 -145.693232 
L 555.858404 -152.620431 
L 552.375177 -162.139692 
L 548.891949 -144.662304 
L 545.408722 -139.517962 
L 541.925494 -137.083281 
L 538.442267 -142.479001 
L 534.959039 -141.994197 
L 531.475812 -155.477355 
L 527.992584 -209.657684 
L 524.509357 -224.999423 
L 521.026129 -211.150587 
L 517.542902 -192.982442 
L 514.059674 -191.195045 
L 510.576447 -208.897247 
L 507.093219 -224.831535 
L 503.609992 -204.632606 
L 500.126764 -158.338086 
L 496.643537 -140.986284 
L 493.160309 -150.498345 
L 489.677082 -175.356923 
L 486.193854 -216.095887 
L 482.710627 -211.601362 
L 479.227399 -205.223013 
L 475.744172 -206.347069 
L 472.260944 -189.396539 
L 468.777717 -140.50232 
L 465.294489 -166.755508 
L 461.811262 -169.696907 
L 458.328034 -165.725992 
L 454.844807 -174.299467 
L 451.361579 -171.969718 
L 447.878352 -156.740363 
L 444.395124 -159.65297 
L 440.911896 -175.498073 
L 437.428669 -201.227813 
L 433.945441 -203.753624 
L 430.462214 -190.838901 
L 426.978986 -161.383137 
L 423.495759 -185.75151 
L 420.012531 -200.429581 
L 416.529304 -155.439875 
L 413.046076 -167.290273 
L 409.562849 -144.829246 
L 406.079621 -150.127068 
L 402.596394 -152.780914 
L 399.113166 -165.533714 
L 395.629939 -139.869308 
L 392.146711 -161.732065 
L 388.663484 -163.194015 
L 385.180256 -161.494996 
L 381.697029 -138.338987 
L 378.213801 -142.943593 
L 374.730574 -150.984095 
L 371.247346 -169.596122 
L 367.764119 -148.352101 
L 364.280891 -128.581737 
L 360.797664 -152.382438 
L 357.314436 -166.009883 
L 353.831209 -132.192947 
L 350.347981 -118.264334 
L 346.864754 -119.697244 
L 343.381526 -130.662668 
L 339.898299 -141.217145 
L 336.415071 -132.077776 
L 332.931844 -138.693697 
L 329.448616 -183.661646 
L 325.965389 -181.624549 
L 322.482161 -176.866558 
L 318.998934 -172.500193 
L 315.515706 -160.011773 
L 312.032479 -153.212856 
L 308.549251 -137.154637 
L 305.066023 -121.733946 
L 301.582796 -175.715035 
L 298.099568 -176.385028 
L 294.616341 -221.70793 
L 291.133113 -248.126018 
L 287.649886 -245.434944 
L 284.166658 -208.33078 
L 280.683431 -174.056199 
L 277.200203 -150.063194 
L 273.716976 -134.334212 
L 270.233748 -120.896054 
L 266.750521 -104.955999 
L 263.267293 -134.582982 
L 259.784066 -119.932561 
L 256.300838 -117.881496 
L 252.817611 -129.008464 
L 249.334383 -149.127967 
L 245.851156 -153.752303 
L 242.367928 -161.860662 
L 238.884701 -135.93381 
L 235.401473 -128.327344 
L 231.918246 -132.341932 
L 228.435018 -125.294599 
L 224.951791 -133.609778 
L 221.468563 -134.870823 
L 217.985336 -126.446889 
L 214.502108 -162.433351 
L 211.018881 -148.880853 
L 207.535653 -166.219892 
L 204.052426 -138.771787 
L 200.569198 -165.09446 
L 197.085971 -139.102077 
L 193.602743 -145.896415 
L 190.119516 -133.860299 
L 186.636288 -100.216329 
L 183.153061 -100.359873 
L 179.669833 -98.138609 
L 176.186605 -94.216559 
L 172.703378 -91.156265 
L 169.22015 -96.951712 
L 165.736923 -92.157786 
L 162.253695 -92.34222 
L 158.770468 -99.43929 
L 155.28724 -94.9531 
L 151.804013 -96.716714 
L 148.320785 -92.559282 
L 144.837558 -91.156789 
L 141.35433 -88.954239 
L 137.871103 -86.61703 
L 134.387875 -105.660904 
L 130.904648 -134.566797 
L 127.42142 -95.925179 
L 123.938193 -101.388817 
L 120.454965 -104.154117 
L 116.971738 -87.224689 
L 113.48851 -85.867056 
L 110.005283 -89.973722 
L 106.522055 -115.458524 
L 103.038828 -93.911811 
L 99.5556 -107.37209 
L 96.072373 -109.17799 
L 92.589145 -96.915721 
L 89.105918 -119.395651 
L 85.62269 -110.106964 
L 82.139463 -113.35073 
L 78.656235 -111.619455 
L 75.173008 -107.915888 
L 71.68978 -102.304033 
L 68.206553 -123.305067 
L 64.723325 -130.458918 
L 61.240098 -122.451476 
L 57.75687 -159.437136 
L 54.273643 -154.922003 
L 50.790415 -116.33947 
L 47.307188 -116.00045 
z
" style="stroke: #808080; stroke-opacity: 0.7"/>
    </defs>
    <g clip-path="url(#pc0253b096d)">
     <use xlink:href="#mfb5236afb3" x="0" y="424.5775" style="fill: #808080; fill-opacity: 0.7; stroke: #808080; stroke-opacity: 0.7"/>
    </g>
   </g>
   <g id="line2d_31">
    <path d="M 47.307188 313.766536 
L 50.790415 312.551181 
L 54.273643 246.931073 
L 57.75687 198.978964 
L 61.240098 336.575633 
L 64.723325 367.741449 
L 71.68978 367.741449 
L 75.173008 361.243619 
L 78.656235 363.224854 
L 82.139463 367.741449 
L 144.837558 367.741449 
L 148.320785 352.342742 
L 151.804013 359.883878 
L 155.28724 367.741449 
L 176.186605 367.741449 
L 179.669833 359.689744 
L 183.153061 367.608361 
L 186.636288 367.741449 
L 197.085971 367.741449 
L 200.569198 335.243164 
L 204.052426 357.669167 
L 207.535653 313.964126 
L 211.018881 365.414042 
L 214.502108 367.687884 
L 217.985336 361.774718 
L 221.468563 367.420209 
L 224.951791 367.627674 
L 228.435018 366.006659 
L 231.918246 350.425328 
L 235.401473 367.741449 
L 238.884701 365.84633 
L 242.367928 358.746215 
L 245.851156 287.496077 
L 249.334383 362.552638 
L 252.817611 365.579101 
L 256.300838 338.946325 
L 259.784066 328.9476 
L 263.267293 352.236865 
L 266.750521 308.585901 
L 270.233748 269.054137 
L 273.716976 325.621048 
L 277.200203 367.111814 
L 280.683431 367.741449 
L 284.166658 333.95292 
L 287.649886 314.980233 
L 291.133113 357.409978 
L 294.616341 367.560772 
L 298.099568 367.741449 
L 301.582796 363.225087 
L 305.066023 337.264829 
L 308.549251 366.780538 
L 312.032479 365.986228 
L 315.515706 359.632832 
L 318.998934 353.72967 
L 322.482161 254.450202 
L 325.965389 200.450912 
L 329.448616 280.973664 
L 332.931844 358.542556 
L 336.415071 367.694091 
L 346.864754 367.741449 
L 360.797664 367.741449 
L 364.280891 326.860939 
L 367.764119 242.445908 
L 371.247346 233.100881 
L 374.730574 360.375032 
L 378.213801 367.741449 
L 385.180256 367.741449 
L 388.663484 361.263113 
L 392.146711 363.096436 
L 395.629939 366.130368 
L 399.113166 335.568527 
L 402.596394 359.879891 
L 406.079621 347.582111 
L 409.562849 367.741449 
L 413.046076 367.741449 
L 416.529304 367.482995 
L 420.012531 306.918193 
L 423.495759 349.602592 
L 426.978986 367.741449 
L 430.462214 363.08628 
L 433.945441 357.353668 
L 437.428669 366.017926 
L 440.911896 362.247241 
L 444.395124 367.470634 
L 447.878352 367.525641 
L 451.361579 361.745558 
L 454.844807 363.08795 
L 458.328034 367.513001 
L 461.811262 365.707361 
L 465.294489 367.387098 
L 468.777717 367.741449 
L 472.260944 367.481989 
L 475.744172 363.649246 
L 479.227399 366.384803 
L 482.710627 337.082424 
L 486.193854 301.728053 
L 489.677082 332.243442 
L 493.160309 352.467332 
L 496.643537 341.074127 
L 500.126764 366.810766 
L 503.609992 367.741449 
L 507.093219 367.581713 
L 510.576447 367.741449 
L 514.059674 366.92053 
L 517.542902 331.091805 
L 521.026129 232.093085 
L 524.509357 214.706416 
L 527.992584 331.711164 
L 531.475812 354.647568 
L 534.959039 367.741449 
L 538.442267 367.741449 
L 541.925494 364.12615 
L 545.408722 304.643274 
L 548.891949 367.656077 
L 555.858404 367.741449 
L 562.824859 367.741449 
L 566.308087 335.295153 
L 569.791314 352.033179 
L 573.274542 367.273251 
L 576.75777 348.014325 
L 580.240997 315.631395 
L 583.724225 220.906681 
L 587.207452 274.599273 
L 590.69068 315.732548 
L 594.173907 314.077254 
L 597.657135 267.541856 
L 601.140362 275.188573 
L 604.62359 345.41509 
L 608.106817 363.063801 
L 611.590045 361.306598 
L 615.073272 277.859307 
L 618.5565 266.129601 
L 622.039727 306.549281 
L 625.522955 344.525967 
L 629.006182 327.139054 
L 632.48941 312.247183 
L 635.972637 332.517024 
L 639.455865 334.979082 
L 642.939092 245.174178 
L 646.42232 307.225974 
L 649.905547 328.679167 
L 653.388775 363.877443 
L 656.872002 309.791547 
L 660.35523 278.670912 
L 663.838457 295.566084 
L 667.321685 311.541269 
L 670.804912 350.182442 
L 674.28814 339.215444 
L 677.771367 309.735002 
L 681.254595 300.106235 
L 684.737822 321.349747 
L 688.22105 287.681949 
L 691.704277 331.403563 
L 695.187505 292.416935 
L 698.670732 272.561157 
L 702.15396 303.359202 
L 705.637188 330.580864 
L 705.637188 330.580864 
" clip-path="url(#pc0253b096d)" style="fill: none; stroke: #ff8c00; stroke-width: 2.3; stroke-linecap: square"/>
   </g>
   <g id="line2d_32">
    <path d="M 284.166658 384.117812 
L 284.166658 23.837812 
" clip-path="url(#pc0253b096d)" style="fill: none; stroke-dasharray: 5.55,2.4; stroke-dashoffset: 0; stroke: #808080; stroke-width: 1.5"/>
   </g>
   <g id="line2d_33">
    <path d="M 486.193854 384.117812 
L 486.193854 23.837812 
" clip-path="url(#pc0253b096d)" style="fill: none; stroke-dasharray: 5.55,2.4; stroke-dashoffset: 0; stroke: #808080; stroke-width: 1.5"/>
   </g>
   <g id="patch_3">
    <path d="M 47.307188 384.117812 
L 47.307188 23.837812 
" style="fill: none; stroke: #000000; stroke-width: 0.8; stroke-linejoin: miter; stroke-linecap: square"/>
   </g>
   <g id="patch_4">
    <path d="M 705.637188 384.117812 
L 705.637188 23.837812 
" style="fill: none; stroke: #000000; stroke-width: 0.8; stroke-linejoin: miter; stroke-linecap: square"/>
   </g>
   <g id="patch_5">
    <path d="M 47.307188 384.117812 
L 705.637188 384.117812 
" style="fill: none; stroke: #000000; stroke-width: 0.8; stroke-linejoin: miter; stroke-linecap: square"/>
   </g>
   <g id="patch_6">
    <path d="M 47.307188 23.837812 
L 705.637188 23.837812 
" style="fill: none; stroke: #000000; stroke-width: 0.8; stroke-linejoin: miter; stroke-linecap: square"/>
   </g>
   <g id="text_18">
    <!-- Facial trace: ADHD (female) -->
    <g transform="translate(279.241094 17.837812) scale(0.14 -0.14)">
     <defs>
      <path id="DejaVuSans-46" d="M 628 4666 
L 3309 4666 
L 3309 4134 
L 1259 4134 
L 1259 2759 
L 3109 2759 
L 3109 2228 
L 1259 2228 
L 1259 0 
L 628 0 
L 628 4666 
z
" transform="scale(0.015625)"/>
      <path id="DejaVuSans-63" d="M 3122 3366 
L 3122 2828 
Q 2878 2963 2633 3030 
Q 2388 3097 2138 3097 
Q 1578 3097 1268 2742 
Q 959 2388 959 1747 
Q 959 1106 1268 751 
Q 1578 397 2138 397 
Q 2388 397 2633 464 
Q 2878 531 3122 666 
L 3122 134 
Q 2881 22 2623 -34 
Q 2366 -91 2075 -91 
Q 1284 -91 818 406 
Q 353 903 353 1747 
Q 353 2603 823 3093 
Q 1294 3584 2113 3584 
Q 2378 3584 2631 3529 
Q 2884 3475 3122 3366 
z
" transform="scale(0.015625)"/>
      <path id="DejaVuSans-6c" d="M 603 4863 
L 1178 4863 
L 1178 0 
L 603 0 
L 603 4863 
z
" transform="scale(0.015625)"/>
      <path id="DejaVuSans-72" d="M 2631 2963 
Q 2534 3019 2420 3045 
Q 2306 3072 2169 3072 
Q 1681 3072 1420 2755 
Q 1159 2438 1159 1844 
L 1159 0 
L 581 0 
L 581 3500 
L 1159 3500 
L 1159 2956 
Q 1341 3275 1631 3429 
Q 1922 3584 2338 3584 
Q 2397 3584 2469 3576 
Q 2541 3569 2628 3553 
L 2631 2963 
z
" transform="scale(0.015625)"/>
      <path id="DejaVuSans-3a" d="M 750 794 
L 1409 794 
L 1409 0 
L 750 0 
L 750 794 
z
M 750 3309 
L 1409 3309 
L 1409 2516 
L 750 2516 
L 750 3309 
z
" transform="scale(0.015625)"/>
      <path id="DejaVuSans-44" d="M 1259 4147 
L 1259 519 
L 2022 519 
Q 2988 519 3436 956 
Q 3884 1394 3884 2338 
Q 3884 3275 3436 3711 
Q 2988 4147 2022 4147 
L 1259 4147 
z
M 628 4666 
L 1925 4666 
Q 3281 4666 3915 4102 
Q 4550 3538 4550 2338 
Q 4550 1131 3912 565 
Q 3275 0 1925 0 
L 628 0 
L 628 4666 
z
" transform="scale(0.015625)"/>
      <path id="DejaVuSans-48" d="M 628 4666 
L 1259 4666 
L 1259 2753 
L 3553 2753 
L 3553 4666 
L 4184 4666 
L 4184 0 
L 3553 0 
L 3553 2222 
L 1259 2222 
L 1259 0 
L 628 0 
L 628 4666 
z
" transform="scale(0.015625)"/>
      <path id="DejaVuSans-66" d="M 2375 4863 
L 2375 4384 
L 1825 4384 
Q 1516 4384 1395 4259 
Q 1275 4134 1275 3809 
L 1275 3500 
L 2222 3500 
L 2222 3053 
L 1275 3053 
L 1275 0 
L 697 0 
L 697 3053 
L 147 3053 
L 147 3500 
L 697 3500 
L 697 3744 
Q 697 4328 969 4595 
Q 1241 4863 1831 4863 
L 2375 4863 
z
" transform="scale(0.015625)"/>
     </defs>
     <use xlink:href="#DejaVuSans-46"/>
     <use xlink:href="#DejaVuSans-61" transform="translate(48.394531 0)"/>
     <use xlink:href="#DejaVuSans-63" transform="translate(109.673828 0)"/>
     <use xlink:href="#DejaVuSans-69" transform="translate(164.654297 0)"/>
     <use xlink:href="#DejaVuSans-61" transform="translate(192.4375 0)"/>
     <use xlink:href="#DejaVuSans-6c" transform="translate(253.716797 0)"/>
     <use xlink:href="#DejaVuSans-20" transform="translate(281.5 0)"/>
     <use xlink:href="#DejaVuSans-74" transform="translate(313.287109 0)"/>
     <use xlink:href="#DejaVuSans-72" transform="translate(352.496094 0)"/>
     <use xlink:href="#DejaVuSans-61" transform="translate(393.609375 0)"/>
     <use xlink:href="#DejaVuSans-63" transform="translate(454.888672 0)"/>
     <use xlink:href="#DejaVuSans-65" transform="translate(509.869141 0)"/>
     <use xlink:href="#DejaVuSans-3a" transform="translate(571.392578 0)"/>
     <use xlink:href="#DejaVuSans-20" transform="translate(605.083984 0)"/>
     <use xlink:href="#DejaVuSans-41" transform="translate(636.871094 0)"/>
     <use xlink:href="#DejaVuSans-44" transform="translate(705.279297 0)"/>
     <use xlink:href="#DejaVuSans-48" transform="translate(782.28125 0)"/>
     <use xlink:href="#DejaVuSans-44" transform="translate(857.476562 0)"/>
     <use xlink:href="#DejaVuSans-20" transform="translate(934.478516 0)"/>
     <use xlink:href="#DejaVuSans-28" transform="translate(966.265625 0)"/>
     <use xlink:href="#DejaVuSans-66" transform="translate(1005.279297 0)"/>
     <use xlink:href="#DejaVuSans-65" transform="translate(1040.484375 0)"/>
     <use xlink:href="#DejaVuSans-6d" transform="translate(1102.007812 0)"/>
     <use xlink:href="#DejaVuSans-61" transform="translate(1199.419922 0)"/>
     <use xlink:href="#DejaVuSans-6c" transform="translate(1260.699219 0)"/>
     <use xlink:href="#DejaVuSans-65" transform="translate(1288.482422 0)"/>
     <use xlink:href="#DejaVuSans-29" transform="translate(1350.005859 0)"/>
    </g>
   </g>
   <g id="legend_1">
    <g id="patch_7">
     <path d="M 575.098125 42.096094 
L 597.098125 42.096094 
L 597.098125 34.396094 
L 575.098125 34.396094 
z
" style="fill: #d3d3d3; fill-opacity: 0.5; stroke: #d3d3d3; stroke-opacity: 0.5; stroke-linejoin: miter"/>
    </g>
    <g id="text_19">
     <!-- ADHD ±2 SD -->
     <g transform="translate(605.898125 42.096094) scale(0.11 -0.11)">
      <defs>
       <path id="DejaVuSans-b1" d="M 2944 4013 
L 2944 2803 
L 4684 2803 
L 4684 2272 
L 2944 2272 
L 2944 1063 
L 2419 1063 
L 2419 2272 
L 678 2272 
L 678 2803 
L 2419 2803 
L 2419 4013 
L 2944 4013 
z
M 678 531 
L 4684 531 
L 4684 0 
L 678 0 
L 678 531 
z
" transform="scale(0.015625)"/>
       <path id="DejaVuSans-53" d="M 3425 4513 
L 3425 3897 
Q 3066 4069 2747 4153 
Q 2428 4238 2131 4238 
Q 1616 4238 1336 4038 
Q 1056 3838 1056 3469 
Q 1056 3159 1242 3001 
Q 1428 2844 1947 2747 
L 2328 2669 
Q 3034 2534 3370 2195 
Q 3706 1856 3706 1288 
Q 3706 609 3251 259 
Q 2797 -91 1919 -91 
Q 1588 -91 1214 -16 
Q 841 59 441 206 
L 441 856 
Q 825 641 1194 531 
Q 1563 422 1919 422 
Q 2459 422 2753 634 
Q 3047 847 3047 1241 
Q 3047 1584 2836 1778 
Q 2625 1972 2144 2069 
L 1759 2144 
Q 1053 2284 737 2584 
Q 422 2884 422 3419 
Q 422 4038 858 4394 
Q 1294 4750 2059 4750 
Q 2388 4750 2728 4690 
Q 3069 4631 3425 4513 
z
" transform="scale(0.015625)"/>
      </defs>
      <use xlink:href="#DejaVuSans-41"/>
      <use xlink:href="#DejaVuSans-44" transform="translate(68.408203 0)"/>
      <use xlink:href="#DejaVuSans-48" transform="translate(145.410156 0)"/>
      <use xlink:href="#DejaVuSans-44" transform="translate(220.605469 0)"/>
      <use xlink:href="#DejaVuSans-20" transform="translate(297.607422 0)"/>
      <use xlink:href="#DejaVuSans-b1" transform="translate(329.394531 0)"/>
      <use xlink:href="#DejaVuSans-32" transform="translate(413.183594 0)"/>
      <use xlink:href="#DejaVuSans-20" transform="translate(476.806641 0)"/>
      <use xlink:href="#DejaVuSans-53" transform="translate(508.59375 0)"/>
      <use xlink:href="#DejaVuSans-44" transform="translate(572.070312 0)"/>
     </g>
    </g>
    <g id="patch_8">
     <path d="M 575.098125 58.242031 
L 597.098125 58.242031 
L 597.098125 50.542031 
L 575.098125 50.542031 
z
" style="fill: #808080; fill-opacity: 0.7; stroke: #808080; stroke-opacity: 0.7; stroke-linejoin: miter"/>
    </g>
    <g id="text_20">
     <!-- ADHD ±1 SD -->
     <g transform="translate(605.898125 58.242031) scale(0.11 -0.11)">
      <use xlink:href="#DejaVuSans-41"/>
      <use xlink:href="#DejaVuSans-44" transform="translate(68.408203 0)"/>
      <use xlink:href="#DejaVuSans-48" transform="translate(145.410156 0)"/>
      <use xlink:href="#DejaVuSans-44" transform="translate(220.605469 0)"/>
      <use xlink:href="#DejaVuSans-20" transform="translate(297.607422 0)"/>
      <use xlink:href="#DejaVuSans-b1" transform="translate(329.394531 0)"/>
      <use xlink:href="#DejaVuSans-31" transform="translate(413.183594 0)"/>
      <use xlink:href="#DejaVuSans-20" transform="translate(476.806641 0)"/>
      <use xlink:href="#DejaVuSans-53" transform="translate(508.59375 0)"/>
      <use xlink:href="#DejaVuSans-44" transform="translate(572.070312 0)"/>
     </g>
    </g>
    <g id="line2d_34">
     <path d="M 575.098125 70.537969 
L 586.098125 70.537969 
L 597.098125 70.537969 
" style="fill: none; stroke: #ff8c00; stroke-width: 2.3; stroke-linecap: square"/>
    </g>
    <g id="text_21">
     <!-- ADHD prototype -->
     <g transform="translate(605.898125 74.387969) scale(0.11 -0.11)">
      <defs>
       <path id="DejaVuSans-70" d="M 1159 525 
L 1159 -1331 
L 581 -1331 
L 581 3500 
L 1159 3500 
L 1159 2969 
Q 1341 3281 1617 3432 
Q 1894 3584 2278 3584 
Q 2916 3584 3314 3078 
Q 3713 2572 3713 1747 
Q 3713 922 3314 415 
Q 2916 -91 2278 -91 
Q 1894 -91 1617 61 
Q 1341 213 1159 525 
z
M 3116 1747 
Q 3116 2381 2855 2742 
Q 2594 3103 2138 3103 
Q 1681 3103 1420 2742 
Q 1159 2381 1159 1747 
Q 1159 1113 1420 752 
Q 1681 391 2138 391 
Q 2594 391 2855 752 
Q 3116 1113 3116 1747 
z
" transform="scale(0.015625)"/>
       <path id="DejaVuSans-6f" d="M 1959 3097 
Q 1497 3097 1228 2736 
Q 959 2375 959 1747 
Q 959 1119 1226 758 
Q 1494 397 1959 397 
Q 2419 397 2687 759 
Q 2956 1122 2956 1747 
Q 2956 2369 2687 2733 
Q 2419 3097 1959 3097 
z
M 1959 3584 
Q 2709 3584 3137 3096 
Q 3566 2609 3566 1747 
Q 3566 888 3137 398 
Q 2709 -91 1959 -91 
Q 1206 -91 779 398 
Q 353 888 353 1747 
Q 353 2609 779 3096 
Q 1206 3584 1959 3584 
z
" transform="scale(0.015625)"/>
      </defs>
      <use xlink:href="#DejaVuSans-41"/>
      <use xlink:href="#DejaVuSans-44" transform="translate(68.408203 0)"/>
      <use xlink:href="#DejaVuSans-48" transform="translate(145.410156 0)"/>
      <use xlink:href="#DejaVuSans-44" transform="translate(220.605469 0)"/>
      <use xlink:href="#DejaVuSans-20" transform="translate(297.607422 0)"/>
      <use xlink:href="#DejaVuSans-70" transform="translate(329.394531 0)"/>
      <use xlink:href="#DejaVuSans-72" transform="translate(392.871094 0)"/>
      <use xlink:href="#DejaVuSans-6f" transform="translate(431.734375 0)"/>
      <use xlink:href="#DejaVuSans-74" transform="translate(492.916016 0)"/>
      <use xlink:href="#DejaVuSans-6f" transform="translate(532.125 0)"/>
      <use xlink:href="#DejaVuSans-74" transform="translate(593.306641 0)"/>
      <use xlink:href="#DejaVuSans-79" transform="translate(632.515625 0)"/>
      <use xlink:href="#DejaVuSans-70" transform="translate(691.695312 0)"/>
      <use xlink:href="#DejaVuSans-65" transform="translate(755.171875 0)"/>
     </g>
    </g>
   </g>
  </g>
 </g>
 <defs>
  <clipPath id="pc0253b096d">
   <rect x="47.307188" y="23.837812" width="658.33" height="360.28"/>
  </clipPath>
 </defs>
</svg>
