<?xml version="1.0" encoding="utf-8" standalone="no"?>
<!DOCTYPE svg PUBLIC "-//W3C//DTD SVG 1.1//EN"
  "http://www.w3.org/Graphics/SVG/1.1/DTD/svg11.dtd">
<svg xmlns:xlink="http://www.w3.org/1999/xlink" width="712.837188pt" height="424.5775pt" viewBox="0 0 712.837188 424.5775" xmlns="http://www.w3.org/2000/svg" version="1.1">
 <metadata>
  <rdf:RDF xmlns:dc="http://purl.org/dc/elements/1.1/" xmlns:cc="http://creativecommons.org/ns#" xmlns:rdf="http://www.w3.org/1999/02/22-rdf-syntax-ns#">
   <cc:Work>
    <dc:type rdf:resource="http://purl.org/dc/dcmitype/StillImage"/>
    <dc:date>2026-06-14T19:03:56.782193</dc:date>
    <dc:format>image/svg+xml</dc:format>
    <dc:creator>
     <cc:Agent>
      <dc:title>Matplotlib v3.10.1, https://matplotlib.org/</dc:title>
     </cc:Agent>
    </dc:creator>
   </cc:Work>
  </rdf:RDF>
 </metadata>
 <defs>
  <style type="text/css">*{stroke-linejoin: round; stroke-linecap: butt}</style>
 </defs>
 <g id="figure_1">
  <g id="patch_1">
   <path d="M 0 424.5775 
L 712.837188 424.5775 
L 712.837188 0 
L 0 0 
z
" style="fill: #ffffff"/>
  </g>
  <g id="axes_1">
   <g id="patch_2">
    <path d="M 47.307188 384.117812 
L 705.637188 384.117812 
L 705.637188 23.837812 
L 47.307188 23.837812 
z
" style="fill: #ffffff"/>
   </g>
   <g id="matplotlib.axis_1">
    <g id="xtick_1">
     <g id="line2d_1">
      <path d="M 47.307188 384.117812 
L 47.307188 23.837812 
" clip-path="url(#p78905599b9)" style="fill: none; stroke: #b0b0b0; stroke-opacity: 0.2; stroke-width: 0.6; stroke-linecap: square"/>
     </g>
     <g id="line2d_2">
      <defs>
       <path id="m7bcd8f4479" d="M 0 0 
L 0 3.5 
" style="stroke: #000000; stroke-width: 0.8"/>
      </defs>
      <g>
       <use xlink:href="#m7bcd8f4479" x="47.307188" y="384.117812" style="stroke: #000000; stroke-width: 0.8"/>
      </g>
     </g>
     <g id="text_1">
      <!-- 0 -->
      <g transform="translate(43.807813 399.476094) scale(0.11 -0.11)">
       <defs>
        <path id="DejaVuSans-30" d="M 2034 4250 
Q 1547 4250 1301 3770 
Q 1056 3291 1056 2328 
Q 1056 1369 1301 889 
Q 1547 409 2034 409 
Q 2525 409 2770 889 
Q 3016 1369 3016 2328 
Q 3016 3291 2770 3770 
Q 2525 4250 2034 4250 
z
M 2034 4750 
Q 2819 4750 3233 4129 
Q 3647 3509 3647 2328 
Q 3647 1150 3233 529 
Q 2819 -91 2034 -91 
Q 1250 -91 836 529 
Q 422 1150 422 2328 
Q 422 3509 836 4129 
Q 1250 4750 2034 4750 
z
" transform="scale(0.015625)"/>
       </defs>
       <use xlink:href="#DejaVuSans-30"/>
      </g>
     </g>
    </g>
    <g id="xtick_2">
     <g id="line2d_3">
      <path d="M 134.387875 384.117812 
L 134.387875 23.837812 
" clip-path="url(#p78905599b9)" style="fill: none; stroke: #b0b0b0; stroke-opacity: 0.2; stroke-width: 0.6; stroke-linecap: square"/>
     </g>
     <g id="line2d_4">
      <g>
       <use xlink:href="#m7bcd8f4479" x="134.387875" y="384.117812" style="stroke: #000000; stroke-width: 0.8"/>
      </g>
     </g>
     <g id="text_2">
      <!-- 25 -->
      <g transform="translate(127.389125 399.476094) scale(0.11 -0.11)">
       <defs>
        <path id="DejaVuSans-32" d="M 1228 531 
L 3431 531 
L 3431 0 
L 469 0 
L 469 531 
Q 828 903 1448 1529 
Q 2069 2156 2228 2338 
Q 2531 2678 2651 2914 
Q 2772 3150 2772 3378 
Q 2772 3750 2511 3984 
Q 2250 4219 1831 4219 
Q 1534 4219 1204 4116 
Q 875 4013 500 3803 
L 500 4441 
Q 881 4594 1212 4672 
Q 1544 4750 1819 4750 
Q 2544 4750 2975 4387 
Q 3406 4025 3406 3419 
Q 3406 3131 3298 2873 
Q 3191 2616 2906 2266 
Q 2828 2175 2409 1742 
Q 1991 1309 1228 531 
z
" transform="scale(0.015625)"/>
        <path id="DejaVuSans-35" d="M 691 4666 
L 3169 4666 
L 3169 4134 
L 1269 4134 
L 1269 2991 
Q 1406 3038 1543 3061 
Q 1681 3084 1819 3084 
Q 2600 3084 3056 2656 
Q 3513 2228 3513 1497 
Q 3513 744 3044 326 
Q 2575 -91 1722 -91 
Q 1428 -91 1123 -41 
Q 819 9 494 109 
L 494 744 
Q 775 591 1075 516 
Q 1375 441 1709 441 
Q 2250 441 2565 725 
Q 2881 1009 2881 1497 
Q 2881 1984 2565 2268 
Q 2250 2553 1709 2553 
Q 1456 2553 1204 2497 
Q 953 2441 691 2322 
L 691 4666 
z
" transform="scale(0.015625)"/>
       </defs>
       <use xlink:href="#DejaVuSans-32"/>
       <use xlink:href="#DejaVuSans-35" transform="translate(63.623047 0)"/>
      </g>
     </g>
    </g>
    <g id="xtick_3">
     <g id="line2d_5">
      <path d="M 221.468563 384.117812 
L 221.468563 23.837812 
" clip-path="url(#p78905599b9)" style="fill: none; stroke: #b0b0b0; stroke-opacity: 0.2; stroke-width: 0.6; stroke-linecap: square"/>
     </g>
     <g id="line2d_6">
      <g>
       <use xlink:href="#m7bcd8f4479" x="221.468563" y="384.117812" style="stroke: #000000; stroke-width: 0.8"/>
      </g>
     </g>
     <g id="text_3">
      <!-- 50 -->
      <g transform="translate(214.469813 399.476094) scale(0.11 -0.11)">
       <use xlink:href="#DejaVuSans-35"/>
       <use xlink:href="#DejaVuSans-30" transform="translate(63.623047 0)"/>
      </g>
     </g>
    </g>
    <g id="xtick_4">
     <g id="line2d_7">
      <path d="M 308.549251 384.117812 
L 308.549251 23.837812 
" clip-path="url(#p78905599b9)" style="fill: none; stroke: #b0b0b0; stroke-opacity: 0.2; stroke-width: 0.6; stroke-linecap: square"/>
     </g>
     <g id="line2d_8">
      <g>
       <use xlink:href="#m7bcd8f4479" x="308.549251" y="384.117812" style="stroke: #000000; stroke-width: 0.8"/>
      </g>
     </g>
     <g id="text_4">
      <!-- 75 -->
      <g transform="translate(301.550501 399.476094) scale(0.11 -0.11)">
       <defs>
        <path id="DejaVuSans-37" d="M 525 4666 
L 3525 4666 
L 3525 4397 
L 1831 0 
L 1172 0 
L 2766 4134 
L 525 4134 
L 525 4666 
z
" transform="scale(0.015625)"/>
       </defs>
       <use xlink:href="#DejaVuSans-37"/>
       <use xlink:href="#DejaVuSans-35" transform="translate(63.623047 0)"/>
      </g>
     </g>
    </g>
    <g id="xtick_5">
     <g id="line2d_9">
      <path d="M 395.629939 384.117812 
L 395.629939 23.837812 
" clip-path="url(#p78905599b9)" style="fill: none; stroke: #b0b0b0; stroke-opacity: 0.2; stroke-width: 0.6; stroke-linecap: square"/>
     </g>
     <g id="line2d_10">
      <g>
       <use xlink:href="#m7bcd8f4479" x="395.629939" y="384.117812" style="stroke: #000000; stroke-width: 0.8"/>
      </g>
     </g>
     <g id="text_5">
      <!-- 100 -->
      <g transform="translate(385.131814 399.476094) scale(0.11 -0.11)">
       <defs>
        <path id="DejaVuSans-31" d="M 794 531 
L 1825 531 
L 1825 4091 
L 703 3866 
L 703 4441 
L 1819 4666 
L 2450 4666 
L 2450 531 
L 3481 531 
L 3481 0 
L 794 0 
L 794 531 
z
" transform="scale(0.015625)"/>
       </defs>
       <use xlink:href="#DejaVuSans-31"/>
       <use xlink:href="#DejaVuSans-30" transform="translate(63.623047 0)"/>
       <use xlink:href="#DejaVuSans-30" transform="translate(127.246094 0)"/>
      </g>
     </g>
    </g>
    <g id="xtick_6">
     <g id="line2d_11">
      <path d="M 482.710627 384.117812 
L 482.710627 23.837812 
" clip-path="url(#p78905599b9)" style="fill: none; stroke: #b0b0b0; stroke-opacity: 0.2; stroke-width: 0.6; stroke-linecap: square"/>
     </g>
     <g id="line2d_12">
      <g>
       <use xlink:href="#m7bcd8f4479" x="482.710627" y="384.117812" style="stroke: #000000; stroke-width: 0.8"/>
      </g>
     </g>
     <g id="text_6">
      <!-- 125 -->
      <g transform="translate(472.212502 399.476094) scale(0.11 -0.11)">
       <use xlink:href="#DejaVuSans-31"/>
       <use xlink:href="#DejaVuSans-32" transform="translate(63.623047 0)"/>
       <use xlink:href="#DejaVuSans-35" transform="translate(127.246094 0)"/>
      </g>
     </g>
    </g>
    <g id="xtick_7">
     <g id="line2d_13">
      <path d="M 569.791314 384.117812 
L 569.791314 23.837812 
" clip-path="url(#p78905599b9)" style="fill: none; stroke: #b0b0b0; stroke-opacity: 0.2; stroke-width: 0.6; stroke-linecap: square"/>
     </g>
     <g id="line2d_14">
      <g>
       <use xlink:href="#m7bcd8f4479" x="569.791314" y="384.117812" style="stroke: #000000; stroke-width: 0.8"/>
      </g>
     </g>
     <g id="text_7">
      <!-- 150 -->
      <g transform="translate(559.293189 399.476094) scale(0.11 -0.11)">
       <use xlink:href="#DejaVuSans-31"/>
       <use xlink:href="#DejaVuSans-35" transform="translate(63.623047 0)"/>
       <use xlink:href="#DejaVuSans-30" transform="translate(127.246094 0)"/>
      </g>
     </g>
    </g>
    <g id="xtick_8">
     <g id="line2d_15">
      <path d="M 656.872002 384.117812 
L 656.872002 23.837812 
" clip-path="url(#p78905599b9)" style="fill: none; stroke: #b0b0b0; stroke-opacity: 0.2; stroke-width: 0.6; stroke-linecap: square"/>
     </g>
     <g id="line2d_16">
      <g>
       <use xlink:href="#m7bcd8f4479" x="656.872002" y="384.117812" style="stroke: #000000; stroke-width: 0.8"/>
      </g>
     </g>
     <g id="text_8">
      <!-- 175 -->
      <g transform="translate(646.373877 399.476094) scale(0.11 -0.11)">
       <use xlink:href="#DejaVuSans-31"/>
       <use xlink:href="#DejaVuSans-37" transform="translate(63.623047 0)"/>
       <use xlink:href="#DejaVuSans-35" transform="translate(127.246094 0)"/>
      </g>
     </g>
    </g>
    <g id="text_9">
     <!-- Time (s) -->
     <g transform="translate(352.0775 414.881875) scale(0.12 -0.12)">
      <defs>
       <path id="DejaVuSans-54" d="M -19 4666 
L 3928 4666 
L 3928 4134 
L 2272 4134 
L 2272 0 
L 1638 0 
L 1638 4134 
L -19 4134 
L -19 4666 
z
" transform="scale(0.015625)"/>
       <path id="DejaVuSans-69" d="M 603 3500 
L 1178 3500 
L 1178 0 
L 603 0 
L 603 3500 
z
M 603 4863 
L 1178 4863 
L 1178 4134 
L 603 4134 
L 603 4863 
z
" transform="scale(0.015625)"/>
       <path id="DejaVuSans-6d" d="M 3328 2828 
Q 3544 3216 3844 3400 
Q 4144 3584 4550 3584 
Q 5097 3584 5394 3201 
Q 5691 2819 5691 2113 
L 5691 0 
L 5113 0 
L 5113 2094 
Q 5113 2597 4934 2840 
Q 4756 3084 4391 3084 
Q 3944 3084 3684 2787 
Q 3425 2491 3425 1978 
L 3425 0 
L 2847 0 
L 2847 2094 
Q 2847 2600 2669 2842 
Q 2491 3084 2119 3084 
Q 1678 3084 1418 2786 
Q 1159 2488 1159 1978 
L 1159 0 
L 581 0 
L 581 3500 
L 1159 3500 
L 1159 2956 
Q 1356 3278 1631 3431 
Q 1906 3584 2284 3584 
Q 2666 3584 2933 3390 
Q 3200 3197 3328 2828 
z
" transform="scale(0.015625)"/>
       <path id="DejaVuSans-65" d="M 3597 1894 
L 3597 1613 
L 953 1613 
Q 991 1019 1311 708 
Q 1631 397 2203 397 
Q 2534 397 2845 478 
Q 3156 559 3463 722 
L 3463 178 
Q 3153 47 2828 -22 
Q 2503 -91 2169 -91 
Q 1331 -91 842 396 
Q 353 884 353 1716 
Q 353 2575 817 3079 
Q 1281 3584 2069 3584 
Q 2775 3584 3186 3129 
Q 3597 2675 3597 1894 
z
M 3022 2063 
Q 3016 2534 2758 2815 
Q 2500 3097 2075 3097 
Q 1594 3097 1305 2825 
Q 1016 2553 972 2059 
L 3022 2063 
z
" transform="scale(0.015625)"/>
       <path id="DejaVuSans-20" transform="scale(0.015625)"/>
       <path id="DejaVuSans-28" d="M 1984 4856 
Q 1566 4138 1362 3434 
Q 1159 2731 1159 2009 
Q 1159 1288 1364 580 
Q 1569 -128 1984 -844 
L 1484 -844 
Q 1016 -109 783 600 
Q 550 1309 550 2009 
Q 550 2706 781 3412 
Q 1013 4119 1484 4856 
L 1984 4856 
z
" transform="scale(0.015625)"/>
       <path id="DejaVuSans-73" d="M 2834 3397 
L 2834 2853 
Q 2591 2978 2328 3040 
Q 2066 3103 1784 3103 
Q 1356 3103 1142 2972 
Q 928 2841 928 2578 
Q 928 2378 1081 2264 
Q 1234 2150 1697 2047 
L 1894 2003 
Q 2506 1872 2764 1633 
Q 3022 1394 3022 966 
Q 3022 478 2636 193 
Q 2250 -91 1575 -91 
Q 1294 -91 989 -36 
Q 684 19 347 128 
L 347 722 
Q 666 556 975 473 
Q 1284 391 1588 391 
Q 1994 391 2212 530 
Q 2431 669 2431 922 
Q 2431 1156 2273 1281 
Q 2116 1406 1581 1522 
L 1381 1569 
Q 847 1681 609 1914 
Q 372 2147 372 2553 
Q 372 3047 722 3315 
Q 1072 3584 1716 3584 
Q 2034 3584 2315 3537 
Q 2597 3491 2834 3397 
z
" transform="scale(0.015625)"/>
       <path id="DejaVuSans-29" d="M 513 4856 
L 1013 4856 
Q 1481 4119 1714 3412 
Q 1947 2706 1947 2009 
Q 1947 1309 1714 600 
Q 1481 -109 1013 -844 
L 513 -844 
Q 928 -128 1133 580 
Q 1338 1288 1338 2009 
Q 1338 2731 1133 3434 
Q 928 4138 513 4856 
z
" transform="scale(0.015625)"/>
      </defs>
      <use xlink:href="#DejaVuSans-54"/>
      <use xlink:href="#DejaVuSans-69" transform="translate(57.958984 0)"/>
      <use xlink:href="#DejaVuSans-6d" transform="translate(85.742188 0)"/>
      <use xlink:href="#DejaVuSans-65" transform="translate(183.154297 0)"/>
      <use xlink:href="#DejaVuSans-20" transform="translate(244.677734 0)"/>
      <use xlink:href="#DejaVuSans-28" transform="translate(276.464844 0)"/>
      <use xlink:href="#DejaVuSans-73" transform="translate(315.478516 0)"/>
      <use xlink:href="#DejaVuSans-29" transform="translate(367.578125 0)"/>
     </g>
    </g>
   </g>
   <g id="matplotlib.axis_2">
    <g id="ytick_1">
     <g id="line2d_17">
      <path d="M 47.307188 367.741449 
L 705.637188 367.741449 
" clip-path="url(#p78905599b9)" style="fill: none; stroke: #b0b0b0; stroke-opacity: 0.2; stroke-width: 0.6; stroke-linecap: square"/>
     </g>
     <g id="line2d_18">
      <defs>
       <path id="m75320dcf0d" d="M 0 0 
L -3.5 0 
" style="stroke: #000000; stroke-width: 0.8"/>
      </defs>
      <g>
       <use xlink:href="#m75320dcf0d" x="47.307188" y="367.741449" style="stroke: #000000; stroke-width: 0.8"/>
      </g>
     </g>
     <g id="text_10">
      <!-- 0.0 -->
      <g transform="translate(22.81375 371.920589) scale(0.11 -0.11)">
       <defs>
        <path id="DejaVuSans-2e" d="M 684 794 
L 1344 794 
L 1344 0 
L 684 0 
L 684 794 
z
" transform="scale(0.015625)"/>
       </defs>
       <use xlink:href="#DejaVuSans-30"/>
       <use xlink:href="#DejaVuSans-2e" transform="translate(63.623047 0)"/>
       <use xlink:href="#DejaVuSans-30" transform="translate(95.410156 0)"/>
      </g>
     </g>
    </g>
    <g id="ytick_2">
     <g id="line2d_19">
      <path d="M 47.307188 317.507205 
L 705.637188 317.507205 
" clip-path="url(#p78905599b9)" style="fill: none; stroke: #b0b0b0; stroke-opacity: 0.2; stroke-width: 0.6; stroke-linecap: square"/>
     </g>
     <g id="line2d_20">
      <g>
       <use xlink:href="#m75320dcf0d" x="47.307188" y="317.507205" style="stroke: #000000; stroke-width: 0.8"/>
      </g>
     </g>
     <g id="text_11">
      <!-- 0.5 -->
      <g transform="translate(22.81375 321.686345) scale(0.11 -0.11)">
       <use xlink:href="#DejaVuSans-30"/>
       <use xlink:href="#DejaVuSans-2e" transform="translate(63.623047 0)"/>
       <use xlink:href="#DejaVuSans-35" transform="translate(95.410156 0)"/>
      </g>
     </g>
    </g>
    <g id="ytick_3">
     <g id="line2d_21">
      <path d="M 47.307188 267.27296 
L 705.637188 267.27296 
" clip-path="url(#p78905599b9)" style="fill: none; stroke: #b0b0b0; stroke-opacity: 0.2; stroke-width: 0.6; stroke-linecap: square"/>
     </g>
     <g id="line2d_22">
      <g>
       <use xlink:href="#m75320dcf0d" x="47.307188" y="267.27296" style="stroke: #000000; stroke-width: 0.8"/>
      </g>
     </g>
     <g id="text_12">
      <!-- 1.0 -->
      <g transform="translate(22.81375 271.452101) scale(0.11 -0.11)">
       <use xlink:href="#DejaVuSans-31"/>
       <use xlink:href="#DejaVuSans-2e" transform="translate(63.623047 0)"/>
       <use xlink:href="#DejaVuSans-30" transform="translate(95.410156 0)"/>
      </g>
     </g>
    </g>
    <g id="ytick_4">
     <g id="line2d_23">
      <path d="M 47.307188 217.038716 
L 705.637188 217.038716 
" clip-path="url(#p78905599b9)" style="fill: none; stroke: #b0b0b0; stroke-opacity: 0.2; stroke-width: 0.6; stroke-linecap: square"/>
     </g>
     <g id="line2d_24">
      <g>
       <use xlink:href="#m75320dcf0d" x="47.307188" y="217.038716" style="stroke: #000000; stroke-width: 0.8"/>
      </g>
     </g>
     <g id="text_13">
      <!-- 1.5 -->
      <g transform="translate(22.81375 221.217857) scale(0.11 -0.11)">
       <use xlink:href="#DejaVuSans-31"/>
       <use xlink:href="#DejaVuSans-2e" transform="translate(63.623047 0)"/>
       <use xlink:href="#DejaVuSans-35" transform="translate(95.410156 0)"/>
      </g>
     </g>
    </g>
    <g id="ytick_5">
     <g id="line2d_25">
      <path d="M 47.307188 166.804472 
L 705.637188 166.804472 
" clip-path="url(#p78905599b9)" style="fill: none; stroke: #b0b0b0; stroke-opacity: 0.2; stroke-width: 0.6; stroke-linecap: square"/>
     </g>
     <g id="line2d_26">
      <g>
       <use xlink:href="#m75320dcf0d" x="47.307188" y="166.804472" style="stroke: #000000; stroke-width: 0.8"/>
      </g>
     </g>
     <g id="text_14">
      <!-- 2.0 -->
      <g transform="translate(22.81375 170.983612) scale(0.11 -0.11)">
       <use xlink:href="#DejaVuSans-32"/>
       <use xlink:href="#DejaVuSans-2e" transform="translate(63.623047 0)"/>
       <use xlink:href="#DejaVuSans-30" transform="translate(95.410156 0)"/>
      </g>
     </g>
    </g>
    <g id="ytick_6">
     <g id="line2d_27">
      <path d="M 47.307188 116.570227 
L 705.637188 116.570227 
" clip-path="url(#p78905599b9)" style="fill: none; stroke: #b0b0b0; stroke-opacity: 0.2; stroke-width: 0.6; stroke-linecap: square"/>
     </g>
     <g id="line2d_28">
      <g>
       <use xlink:href="#m75320dcf0d" x="47.307188" y="116.570227" style="stroke: #000000; stroke-width: 0.8"/>
      </g>
     </g>
     <g id="text_15">
      <!-- 2.5 -->
      <g transform="translate(22.81375 120.749368) scale(0.11 -0.11)">
       <use xlink:href="#DejaVuSans-32"/>
       <use xlink:href="#DejaVuSans-2e" transform="translate(63.623047 0)"/>
       <use xlink:href="#DejaVuSans-35" transform="translate(95.410156 0)"/>
      </g>
     </g>
    </g>
    <g id="ytick_7">
     <g id="line2d_29">
      <path d="M 47.307188 66.335983 
L 705.637188 66.335983 
" clip-path="url(#p78905599b9)" style="fill: none; stroke: #b0b0b0; stroke-opacity: 0.2; stroke-width: 0.6; stroke-linecap: square"/>
     </g>
     <g id="line2d_30">
      <g>
       <use xlink:href="#m75320dcf0d" x="47.307188" y="66.335983" style="stroke: #000000; stroke-width: 0.8"/>
      </g>
     </g>
     <g id="text_16">
      <!-- 3.0 -->
      <g transform="translate(22.81375 70.515124) scale(0.11 -0.11)">
       <defs>
        <path id="DejaVuSans-33" d="M 2597 2516 
Q 3050 2419 3304 2112 
Q 3559 1806 3559 1356 
Q 3559 666 3084 287 
Q 2609 -91 1734 -91 
Q 1441 -91 1130 -33 
Q 819 25 488 141 
L 488 750 
Q 750 597 1062 519 
Q 1375 441 1716 441 
Q 2309 441 2620 675 
Q 2931 909 2931 1356 
Q 2931 1769 2642 2001 
Q 2353 2234 1838 2234 
L 1294 2234 
L 1294 2753 
L 1863 2753 
Q 2328 2753 2575 2939 
Q 2822 3125 2822 3475 
Q 2822 3834 2567 4026 
Q 2313 4219 1838 4219 
Q 1578 4219 1281 4162 
Q 984 4106 628 3988 
L 628 4550 
Q 988 4650 1302 4700 
Q 1616 4750 1894 4750 
Q 2613 4750 3031 4423 
Q 3450 4097 3450 3541 
Q 3450 3153 3228 2886 
Q 3006 2619 2597 2516 
z
" transform="scale(0.015625)"/>
       </defs>
       <use xlink:href="#DejaVuSans-33"/>
       <use xlink:href="#DejaVuSans-2e" transform="translate(63.623047 0)"/>
       <use xlink:href="#DejaVuSans-30" transform="translate(95.410156 0)"/>
      </g>
     </g>
    </g>
    <g id="text_17">
     <!-- AU mean intensity -->
     <g transform="translate(16.318125 259.314687) rotate(-90) scale(0.12 -0.12)">
      <defs>
       <path id="DejaVuSans-41" d="M 2188 4044 
L 1331 1722 
L 3047 1722 
L 2188 4044 
z
M 1831 4666 
L 2547 4666 
L 4325 0 
L 3669 0 
L 3244 1197 
L 1141 1197 
L 716 0 
L 50 0 
L 1831 4666 
z
" transform="scale(0.015625)"/>
       <path id="DejaVuSans-55" d="M 556 4666 
L 1191 4666 
L 1191 1831 
Q 1191 1081 1462 751 
Q 1734 422 2344 422 
Q 2950 422 3222 751 
Q 3494 1081 3494 1831 
L 3494 4666 
L 4128 4666 
L 4128 1753 
Q 4128 841 3676 375 
Q 3225 -91 2344 -91 
Q 1459 -91 1007 375 
Q 556 841 556 1753 
L 556 4666 
z
" transform="scale(0.015625)"/>
       <path id="DejaVuSans-61" d="M 2194 1759 
Q 1497 1759 1228 1600 
Q 959 1441 959 1056 
Q 959 750 1161 570 
Q 1363 391 1709 391 
Q 2188 391 2477 730 
Q 2766 1069 2766 1631 
L 2766 1759 
L 2194 1759 
z
M 3341 1997 
L 3341 0 
L 2766 0 
L 2766 531 
Q 2569 213 2275 61 
Q 1981 -91 1556 -91 
Q 1019 -91 701 211 
Q 384 513 384 1019 
Q 384 1609 779 1909 
Q 1175 2209 1959 2209 
L 2766 2209 
L 2766 2266 
Q 2766 2663 2505 2880 
Q 2244 3097 1772 3097 
Q 1472 3097 1187 3025 
Q 903 2953 641 2809 
L 641 3341 
Q 956 3463 1253 3523 
Q 1550 3584 1831 3584 
Q 2591 3584 2966 3190 
Q 3341 2797 3341 1997 
z
" transform="scale(0.015625)"/>
       <path id="DejaVuSans-6e" d="M 3513 2113 
L 3513 0 
L 2938 0 
L 2938 2094 
Q 2938 2591 2744 2837 
Q 2550 3084 2163 3084 
Q 1697 3084 1428 2787 
Q 1159 2491 1159 1978 
L 1159 0 
L 581 0 
L 581 3500 
L 1159 3500 
L 1159 2956 
Q 1366 3272 1645 3428 
Q 1925 3584 2291 3584 
Q 2894 3584 3203 3211 
Q 3513 2838 3513 2113 
z
" transform="scale(0.015625)"/>
       <path id="DejaVuSans-74" d="M 1172 4494 
L 1172 3500 
L 2356 3500 
L 2356 3053 
L 1172 3053 
L 1172 1153 
Q 1172 725 1289 603 
Q 1406 481 1766 481 
L 2356 481 
L 2356 0 
L 1766 0 
Q 1100 0 847 248 
Q 594 497 594 1153 
L 594 3053 
L 172 3053 
L 172 3500 
L 594 3500 
L 594 4494 
L 1172 4494 
z
" transform="scale(0.015625)"/>
       <path id="DejaVuSans-79" d="M 2059 -325 
Q 1816 -950 1584 -1140 
Q 1353 -1331 966 -1331 
L 506 -1331 
L 506 -850 
L 844 -850 
Q 1081 -850 1212 -737 
Q 1344 -625 1503 -206 
L 1606 56 
L 191 3500 
L 800 3500 
L 1894 763 
L 2988 3500 
L 3597 3500 
L 2059 -325 
z
" transform="scale(0.015625)"/>
      </defs>
      <use xlink:href="#DejaVuSans-41"/>
      <use xlink:href="#DejaVuSans-55" transform="translate(68.408203 0)"/>
      <use xlink:href="#DejaVuSans-20" transform="translate(141.601562 0)"/>
      <use xlink:href="#DejaVuSans-6d" transform="translate(173.388672 0)"/>
      <use xlink:href="#DejaVuSans-65" transform="translate(270.800781 0)"/>
      <use xlink:href="#DejaVuSans-61" transform="translate(332.324219 0)"/>
      <use xlink:href="#DejaVuSans-6e" transform="translate(393.603516 0)"/>
      <use xlink:href="#DejaVuSans-20" transform="translate(456.982422 0)"/>
      <use xlink:href="#DejaVuSans-69" transform="translate(488.769531 0)"/>
      <use xlink:href="#DejaVuSans-6e" transform="translate(516.552734 0)"/>
      <use xlink:href="#DejaVuSans-74" transform="translate(579.931641 0)"/>
      <use xlink:href="#DejaVuSans-65" transform="translate(619.140625 0)"/>
      <use xlink:href="#DejaVuSans-6e" transform="translate(680.664062 0)"/>
      <use xlink:href="#DejaVuSans-73" transform="translate(744.042969 0)"/>
      <use xlink:href="#DejaVuSans-69" transform="translate(796.142578 0)"/>
      <use xlink:href="#DejaVuSans-74" transform="translate(823.925781 0)"/>
      <use xlink:href="#DejaVuSans-79" transform="translate(863.134766 0)"/>
     </g>
    </g>
   </g>
   <g id="FillBetweenPolyCollection_1">
    <defs>
     <path id="m8697ab7f84" d="M 47.307188 -122.381207 
L 47.307188 -37.032206 
L 50.790415 -29.60283 
L 54.273643 -12.855109 
L 57.75687 -22.395028 
L 61.240098 -23.182212 
L 64.723325 -36.517584 
L 68.206553 -36.1687 
L 71.68978 -28.256076 
L 75.173008 -31.410027 
L 78.656235 -33.969854 
L 82.139463 -30.760519 
L 85.62269 -31.726412 
L 89.105918 -31.519822 
L 92.589145 -30.011203 
L 96.072373 -27.329036 
L 99.5556 -29.447044 
L 103.038828 -33.849451 
L 106.522055 -28.831225 
L 110.005283 -27.471333 
L 113.48851 -25.318987 
L 116.971738 -9.489352 
L 120.454965 -14.348234 
L 123.938193 -17.767909 
L 127.42142 -14.786797 
L 130.904648 -15.897042 
L 134.387875 -14.970591 
L 137.871103 -15.824548 
L 141.35433 -13.139021 
L 144.837558 -13.636232 
L 148.320785 -17.185315 
L 151.804013 -19.465857 
L 155.28724 -20.286511 
L 158.770468 -21.579291 
L 162.253695 -21.996616 
L 165.736923 -27.041658 
L 169.22015 -20.612868 
L 172.703378 -20.958653 
L 176.186605 -26.846076 
L 179.669833 -24.159865 
L 183.153061 -24.283699 
L 186.636288 -29.58409 
L 190.119516 -24.113051 
L 193.602743 -28.15946 
L 197.085971 -33.749936 
L 200.569198 -31.814373 
L 204.052426 -32.573858 
L 207.535653 -24.558328 
L 211.018881 -36.070398 
L 214.502108 -41.002877 
L 217.985336 -35.726251 
L 221.468563 -32.35465 
L 224.951791 -31.128944 
L 228.435018 -30.929669 
L 231.918246 -37.255272 
L 235.401473 -33.832043 
L 238.884701 -31.758631 
L 242.367928 -37.453283 
L 245.851156 -36.195683 
L 249.334383 -32.043371 
L 252.817611 -32.906752 
L 256.300838 -23.825743 
L 259.784066 -24.051285 
L 263.267293 -29.83614 
L 266.750521 -25.614508 
L 270.233748 -24.888302 
L 273.716976 -29.108476 
L 277.200203 -23.426589 
L 280.683431 -29.619682 
L 284.166658 -37.385402 
L 287.649886 -33.861275 
L 291.133113 -34.170411 
L 294.616341 -32.70603 
L 298.099568 -29.343791 
L 301.582796 -26.195927 
L 305.066023 -25.390151 
L 308.549251 -26.695127 
L 312.032479 -27.663057 
L 315.515706 -27.173913 
L 318.998934 -31.391297 
L 322.482161 -36.475878 
L 325.965389 -34.928728 
L 329.448616 -30.710682 
L 332.931844 -23.115193 
L 336.415071 -27.150653 
L 339.898299 -35.069518 
L 343.381526 -27.297697 
L 346.864754 -25.720078 
L 350.347981 -26.217933 
L 353.831209 -21.828261 
L 357.314436 -20.07421 
L 360.797664 -20.133262 
L 364.280891 -24.110961 
L 367.764119 -27.761335 
L 371.247346 -34.024105 
L 374.730574 -33.86422 
L 378.213801 -34.603053 
L 381.697029 -42.101134 
L 385.180256 -37.587543 
L 388.663484 -36.427986 
L 392.146711 -34.787853 
L 395.629939 -34.176119 
L 399.113166 -38.344049 
L 402.596394 -41.83326 
L 406.079621 -46.262542 
L 409.562849 -48.991001 
L 413.046076 -43.14345 
L 416.529304 -40.279549 
L 420.012531 -41.629717 
L 423.495759 -30.395883 
L 426.978986 -41.373376 
L 430.462214 -41.427816 
L 433.945441 -38.319332 
L 437.428669 -40.573526 
L 440.911896 -42.026175 
L 444.395124 -32.290666 
L 447.878352 -39.735975 
L 451.361579 -34.991994 
L 454.844807 -29.158972 
L 458.328034 -38.656479 
L 461.811262 -39.514245 
L 465.294489 -40.25483 
L 468.777717 -38.05617 
L 472.260944 -32.364381 
L 475.744172 -24.20342 
L 479.227399 -30.348996 
L 482.710627 -42.77183 
L 486.193854 -29.809001 
L 489.677082 -29.196773 
L 493.160309 -41.371254 
L 496.643537 -39.34543 
L 500.126764 -32.938709 
L 503.609992 -31.355273 
L 507.093219 -25.484501 
L 510.576447 -16.483251 
L 514.059674 -18.035015 
L 517.542902 -26.193813 
L 521.026129 -25.571381 
L 524.509357 -23.008534 
L 527.992584 -24.841963 
L 531.475812 -23.739689 
L 534.959039 -25.588215 
L 538.442267 -27.116512 
L 541.925494 -27.204919 
L 545.408722 -31.608142 
L 548.891949 -32.04184 
L 552.375177 -25.738994 
L 555.858404 -27.700818 
L 559.341632 -28.35267 
L 562.824859 -28.756718 
L 566.308087 -27.27041 
L 569.791314 -26.936977 
L 573.274542 -27.837154 
L 576.75777 -36.540431 
L 580.240997 -38.027854 
L 583.724225 -44.403223 
L 587.207452 -42.083014 
L 590.69068 -43.071063 
L 594.173907 -34.903168 
L 597.657135 -34.442426 
L 601.140362 -35.065679 
L 604.62359 -39.001019 
L 608.106817 -33.978086 
L 611.590045 -30.816342 
L 615.073272 -39.805 
L 618.5565 -32.635186 
L 622.039727 -35.986036 
L 625.522955 -40.04229 
L 629.006182 -45.35896 
L 632.48941 -43.908901 
L 635.972637 -43.197851 
L 639.455865 -28.929868 
L 642.939092 -30.481439 
L 646.42232 -37.451496 
L 649.905547 -34.344423 
L 653.388775 -30.018857 
L 656.872002 -35.092823 
L 660.35523 -32.070791 
L 663.838457 -29.174318 
L 667.321685 -28.163042 
L 670.804912 -38.112645 
L 674.28814 -42.793339 
L 677.771367 -39.45496 
L 681.254595 -38.003501 
L 684.737822 -36.288191 
L 688.22105 -41.458525 
L 691.704277 -30.507302 
L 695.187505 -24.769293 
L 698.670732 -35.855051 
L 702.15396 -45.537343 
L 705.637188 -42.961988 
L 705.637188 -148.682915 
L 705.637188 -148.682915 
L 702.15396 -157.64084 
L 698.670732 -179.247881 
L 695.187505 -197.704061 
L 691.704277 -194.139369 
L 688.22105 -181.735712 
L 684.737822 -189.184671 
L 681.254595 -185.532961 
L 677.771367 -189.537286 
L 674.28814 -195.036693 
L 670.804912 -204.114324 
L 667.321685 -225.569845 
L 663.838457 -212.495953 
L 660.35523 -198.927607 
L 656.872002 -188.995462 
L 653.388775 -195.190031 
L 649.905547 -184.107592 
L 646.42232 -175.866572 
L 642.939092 -183.195635 
L 639.455865 -195.547019 
L 635.972637 -171.450458 
L 632.48941 -175.153416 
L 629.006182 -172.907887 
L 625.522955 -189.20713 
L 622.039727 -184.514772 
L 618.5565 -188.855026 
L 615.073272 -178.538901 
L 611.590045 -185.076021 
L 608.106817 -191.938583 
L 604.62359 -185.801077 
L 601.140362 -183.310477 
L 597.657135 -178.429177 
L 594.173907 -183.670102 
L 590.69068 -174.626716 
L 587.207452 -175.087162 
L 583.724225 -167.422346 
L 580.240997 -165.410035 
L 576.75777 -161.832816 
L 573.274542 -172.29101 
L 569.791314 -173.409592 
L 566.308087 -175.400526 
L 562.824859 -171.034983 
L 559.341632 -173.59432 
L 555.858404 -172.668102 
L 552.375177 -176.267728 
L 548.891949 -167.121235 
L 545.408722 -164.941503 
L 541.925494 -174.203889 
L 538.442267 -177.282459 
L 534.959039 -179.232498 
L 531.475812 -181.954262 
L 527.992584 -185.151928 
L 524.509357 -190.961224 
L 521.026129 -193.918402 
L 517.542902 -189.722 
L 514.059674 -200.955779 
L 510.576447 -199.764669 
L 507.093219 -181.36011 
L 503.609992 -174.290295 
L 500.126764 -167.701778 
L 496.643537 -157.471216 
L 493.160309 -157.925258 
L 489.677082 -183.644861 
L 486.193854 -183.612672 
L 482.710627 -167.76854 
L 479.227399 -185.258772 
L 475.744172 -190.695738 
L 472.260944 -182.009701 
L 468.777717 -173.199964 
L 465.294489 -169.38264 
L 461.811262 -161.304462 
L 458.328034 -157.206704 
L 454.844807 -176.44477 
L 451.361579 -165.197509 
L 447.878352 -161.997649 
L 444.395124 -177.506206 
L 440.911896 -160.64139 
L 437.428669 -159.64404 
L 433.945441 -170.482161 
L 430.462214 -155.768961 
L 426.978986 -157.862209 
L 423.495759 -180.629062 
L 420.012531 -161.747073 
L 416.529304 -157.130513 
L 413.046076 -160.276737 
L 409.562849 -153.568772 
L 406.079621 -157.598161 
L 402.596394 -166.334788 
L 399.113166 -177.141868 
L 395.629939 -174.582953 
L 392.146711 -167.874362 
L 388.663484 -166.975386 
L 385.180256 -164.584219 
L 381.697029 -154.322765 
L 378.213801 -168.148335 
L 374.730574 -171.659093 
L 371.247346 -174.097991 
L 367.764119 -177.058699 
L 364.280891 -175.265518 
L 360.797664 -181.912382 
L 357.314436 -187.458646 
L 353.831209 -183.81741 
L 350.347981 -173.902251 
L 346.864754 -173.371006 
L 343.381526 -172.442609 
L 339.898299 -157.001682 
L 336.415071 -169.647531 
L 332.931844 -176.563549 
L 329.448616 -165.570297 
L 325.965389 -156.032828 
L 322.482161 -153.413165 
L 318.998934 -162.455221 
L 315.515706 -171.416059 
L 312.032479 -162.805137 
L 308.549251 -167.108026 
L 305.066023 -167.819879 
L 301.582796 -167.036517 
L 298.099568 -168.252053 
L 294.616341 -170.736153 
L 291.133113 -170.601353 
L 287.649886 -172.649061 
L 284.166658 -170.115556 
L 280.683431 -187.864681 
L 277.200203 -193.249741 
L 273.716976 -182.470826 
L 270.233748 -178.694716 
L 266.750521 -177.01581 
L 263.267293 -165.879267 
L 259.784066 -172.407568 
L 256.300838 -172.665809 
L 252.817611 -158.228825 
L 249.334383 -160.053941 
L 245.851156 -157.984412 
L 242.367928 -159.265133 
L 238.884701 -166.212626 
L 235.401473 -161.396668 
L 231.918246 -159.340965 
L 228.435018 -169.71417 
L 224.951791 -161.099123 
L 221.468563 -160.382465 
L 217.985336 -159.574408 
L 214.502108 -158.969869 
L 211.018881 -167.000142 
L 207.535653 -177.782524 
L 204.052426 -163.890968 
L 200.569198 -169.577672 
L 197.085971 -165.83706 
L 193.602743 -169.283693 
L 190.119516 -168.347372 
L 186.636288 -163.026741 
L 183.153061 -166.449884 
L 179.669833 -163.89524 
L 176.186605 -159.241586 
L 172.703378 -166.312484 
L 169.22015 -165.690425 
L 165.736923 -156.999177 
L 162.253695 -164.302497 
L 158.770468 -167.308394 
L 155.28724 -171.119052 
L 151.804013 -183.487976 
L 148.320785 -185.121258 
L 144.837558 -170.3057 
L 141.35433 -166.186431 
L 137.871103 -164.784111 
L 134.387875 -167.207043 
L 130.904648 -165.093977 
L 127.42142 -167.445193 
L 123.938193 -164.869273 
L 120.454965 -168.970273 
L 116.971738 -170.911596 
L 113.48851 -149.530779 
L 110.005283 -148.413562 
L 106.522055 -143.03256 
L 103.038828 -138.506195 
L 99.5556 -146.596756 
L 96.072373 -149.783497 
L 92.589145 -146.429812 
L 89.105918 -142.520543 
L 85.62269 -137.564735 
L 82.139463 -142.978105 
L 78.656235 -142.977087 
L 75.173008 -144.242416 
L 71.68978 -145.928281 
L 68.206553 -137.379381 
L 64.723325 -142.22011 
L 61.240098 -170.318195 
L 57.75687 -180.948486 
L 54.273643 -193.074223 
L 50.790415 -157.76488 
L 47.307188 -122.381207 
z
" style="stroke: #d3d3d3; stroke-opacity: 0.5"/>
    </defs>
    <g clip-path="url(#p78905599b9)">
     <use xlink:href="#m8697ab7f84" x="0" y="424.5775" style="fill: #d3d3d3; fill-opacity: 0.5; stroke: #d3d3d3; stroke-opacity: 0.5"/>
    </g>
   </g>
   <g id="FillBetweenPolyCollection_2">
    <defs>
     <path id="m12ca07149c" d="M 47.307188 -101.043957 
L 47.307188 -58.369456 
L 50.790415 -61.643343 
L 54.273643 -57.909887 
L 57.75687 -62.033392 
L 61.240098 -59.966208 
L 64.723325 -62.943215 
L 68.206553 -61.47137 
L 71.68978 -57.674127 
L 75.173008 -59.618124 
L 78.656235 -61.221662 
L 82.139463 -58.814916 
L 85.62269 -58.185993 
L 89.105918 -59.270002 
L 92.589145 -59.115855 
L 96.072373 -57.942651 
L 99.5556 -58.734472 
L 103.038828 -60.013637 
L 106.522055 -57.381559 
L 110.005283 -57.70689 
L 113.48851 -56.371935 
L 116.971738 -49.844913 
L 120.454965 -53.003744 
L 123.938193 -54.54325 
L 127.42142 -52.951396 
L 130.904648 -53.196276 
L 134.387875 -53.029704 
L 137.871103 -53.064439 
L 141.35433 -51.400874 
L 144.837558 -52.803599 
L 148.320785 -59.169301 
L 151.804013 -60.471387 
L 155.28724 -57.994647 
L 158.770468 -58.011567 
L 162.253695 -57.573086 
L 165.736923 -59.531038 
L 169.22015 -56.882257 
L 172.703378 -57.297111 
L 176.186605 -59.944954 
L 179.669833 -59.093708 
L 183.153061 -59.825245 
L 186.636288 -62.944752 
L 190.119516 -60.171631 
L 193.602743 -63.440518 
L 197.085971 -66.771717 
L 200.569198 -66.255198 
L 204.052426 -65.403136 
L 207.535653 -62.864377 
L 211.018881 -68.802834 
L 214.502108 -70.494625 
L 217.985336 -66.68829 
L 221.468563 -64.361604 
L 224.951791 -63.621489 
L 228.435018 -65.625795 
L 231.918246 -67.776695 
L 235.401473 -65.723199 
L 238.884701 -65.37213 
L 242.367928 -67.906246 
L 245.851156 -66.642865 
L 249.334383 -64.046014 
L 252.817611 -64.23727 
L 256.300838 -61.03576 
L 259.784066 -61.140356 
L 263.267293 -63.846922 
L 266.750521 -63.464834 
L 270.233748 -63.339905 
L 273.716976 -67.449063 
L 277.200203 -65.882377 
L 280.683431 -69.180932 
L 284.166658 -70.567941 
L 287.649886 -68.558221 
L 291.133113 -68.278147 
L 294.616341 -67.213561 
L 298.099568 -64.070857 
L 301.582796 -61.406075 
L 305.066023 -60.997583 
L 308.549251 -61.798352 
L 312.032479 -61.448577 
L 315.515706 -63.234449 
L 318.998934 -64.157278 
L 322.482161 -65.7102 
L 325.965389 -65.204753 
L 329.448616 -64.425586 
L 332.931844 -61.477282 
L 336.415071 -62.774873 
L 339.898299 -65.552559 
L 343.381526 -63.583925 
L 346.864754 -62.63281 
L 350.347981 -63.139012 
L 353.831209 -62.325548 
L 357.314436 -61.920319 
L 360.797664 -60.578042 
L 364.280891 -61.8996 
L 367.764119 -65.085676 
L 371.247346 -69.042576 
L 374.730574 -68.312939 
L 378.213801 -67.989374 
L 381.697029 -70.156542 
L 385.180256 -69.336712 
L 388.663484 -69.064836 
L 392.146711 -68.05948 
L 395.629939 -69.277828 
L 399.113166 -73.043504 
L 402.596394 -72.958642 
L 406.079621 -74.096447 
L 409.562849 -75.135444 
L 413.046076 -72.426772 
L 416.529304 -69.49229 
L 420.012531 -71.659056 
L 423.495759 -67.954178 
L 426.978986 -70.495584 
L 430.462214 -70.013102 
L 433.945441 -71.360039 
L 437.428669 -70.341155 
L 440.911896 -71.679979 
L 444.395124 -68.594551 
L 447.878352 -70.301394 
L 451.361579 -67.543373 
L 454.844807 -65.980421 
L 458.328034 -68.294036 
L 461.811262 -69.961799 
L 465.294489 -72.536782 
L 468.777717 -71.842119 
L 472.260944 -69.775711 
L 475.744172 -65.826499 
L 479.227399 -69.07644 
L 482.710627 -74.021007 
L 486.193854 -68.259919 
L 489.677082 -67.808795 
L 493.160309 -70.509755 
L 496.643537 -68.876876 
L 500.126764 -66.629476 
L 503.609992 -67.089029 
L 507.093219 -64.453404 
L 510.576447 -62.303606 
L 514.059674 -63.765206 
L 517.542902 -67.07586 
L 521.026129 -67.658137 
L 524.509357 -64.996707 
L 527.992584 -64.919454 
L 531.475812 -63.293332 
L 534.959039 -63.999286 
L 538.442267 -64.657998 
L 541.925494 -63.954662 
L 545.408722 -64.941483 
L 548.891949 -65.811689 
L 552.375177 -63.371177 
L 555.858404 -63.942639 
L 559.341632 -64.663082 
L 562.824859 -64.326284 
L 566.308087 -64.302939 
L 569.791314 -63.555131 
L 573.274542 -63.950618 
L 576.75777 -67.863527 
L 580.240997 -69.8734 
L 583.724225 -75.158004 
L 587.207452 -75.334051 
L 590.69068 -75.959976 
L 594.173907 -72.094901 
L 597.657135 -70.439114 
L 601.140362 -72.126878 
L 604.62359 -75.701034 
L 608.106817 -73.46821 
L 611.590045 -69.381262 
L 615.073272 -74.488475 
L 618.5565 -71.690146 
L 622.039727 -73.11822 
L 625.522955 -77.3335 
L 629.006182 -77.246192 
L 632.48941 -76.72003 
L 635.972637 -75.261003 
L 639.455865 -70.584156 
L 642.939092 -68.659988 
L 646.42232 -72.055265 
L 649.905547 -71.785215 
L 653.388775 -71.31165 
L 656.872002 -73.568483 
L 660.35523 -73.784995 
L 663.838457 -75.004727 
L 667.321685 -77.514742 
L 670.804912 -79.613064 
L 674.28814 -80.854178 
L 677.771367 -76.975542 
L 681.254595 -74.885866 
L 684.737822 -74.512311 
L 688.22105 -76.527822 
L 691.704277 -71.415319 
L 695.187505 -68.002985 
L 698.670732 -71.703259 
L 702.15396 -73.563217 
L 705.637188 -69.39222 
L 705.637188 -122.252683 
L 705.637188 -122.252683 
L 702.15396 -129.614965 
L 698.670732 -143.399674 
L 695.187505 -154.470369 
L 691.704277 -153.231352 
L 688.22105 -146.666415 
L 684.737822 -150.960551 
L 681.254595 -148.650596 
L 677.771367 -152.016705 
L 674.28814 -156.975855 
L 670.804912 -162.613904 
L 667.321685 -176.218144 
L 663.838457 -166.665544 
L 660.35523 -157.213403 
L 656.872002 -150.519802 
L 653.388775 -153.897238 
L 649.905547 -146.6668 
L 646.42232 -141.262803 
L 642.939092 -145.017086 
L 639.455865 -153.892732 
L 635.972637 -139.387306 
L 632.48941 -142.342287 
L 629.006182 -141.020655 
L 625.522955 -151.91592 
L 622.039727 -147.382588 
L 618.5565 -149.800066 
L 615.073272 -143.855426 
L 611.590045 -146.511101 
L 608.106817 -152.448458 
L 604.62359 -149.101063 
L 601.140362 -146.249277 
L 597.657135 -142.432489 
L 594.173907 -146.478369 
L 590.69068 -141.737803 
L 587.207452 -141.836125 
L 583.724225 -136.667565 
L 580.240997 -133.56449 
L 576.75777 -130.50972 
L 573.274542 -136.177546 
L 569.791314 -136.791438 
L 566.308087 -138.367997 
L 562.824859 -135.465417 
L 559.341632 -137.283907 
L 555.858404 -136.426281 
L 552.375177 -138.635544 
L 548.891949 -133.351386 
L 545.408722 -131.608163 
L 541.925494 -137.454147 
L 538.442267 -139.740972 
L 534.959039 -140.821428 
L 531.475812 -142.400619 
L 527.992584 -145.074437 
L 524.509357 -148.973052 
L 521.026129 -151.831647 
L 517.542902 -148.839953 
L 514.059674 -155.225588 
L 510.576447 -153.944315 
L 507.093219 -142.391208 
L 503.609992 -138.556539 
L 500.126764 -134.011011 
L 496.643537 -127.939769 
L 493.160309 -128.786757 
L 489.677082 -145.032839 
L 486.193854 -145.161754 
L 482.710627 -136.519363 
L 479.227399 -146.531328 
L 475.744172 -149.072658 
L 472.260944 -144.598371 
L 468.777717 -139.414016 
L 465.294489 -137.100688 
L 461.811262 -130.856908 
L 458.328034 -127.569148 
L 454.844807 -139.623321 
L 451.361579 -132.64613 
L 447.878352 -131.432231 
L 444.395124 -141.202321 
L 440.911896 -130.987586 
L 437.428669 -129.876412 
L 433.945441 -137.441454 
L 430.462214 -127.183675 
L 426.978986 -128.740001 
L 423.495759 -143.070768 
L 420.012531 -131.717734 
L 416.529304 -127.917772 
L 413.046076 -130.993415 
L 409.562849 -127.424329 
L 406.079621 -129.764256 
L 402.596394 -135.209406 
L 399.113166 -142.442414 
L 395.629939 -139.481244 
L 392.146711 -134.602735 
L 388.663484 -134.338536 
L 385.180256 -132.83505 
L 381.697029 -126.267357 
L 378.213801 -134.762014 
L 374.730574 -137.210375 
L 371.247346 -139.079519 
L 367.764119 -139.734358 
L 364.280891 -137.476879 
L 360.797664 -141.467602 
L 357.314436 -145.612537 
L 353.831209 -143.320123 
L 350.347981 -136.981171 
L 346.864754 -136.458274 
L 343.381526 -136.156381 
L 339.898299 -126.518641 
L 336.415071 -134.023311 
L 332.931844 -138.20146 
L 329.448616 -131.855394 
L 325.965389 -125.756803 
L 322.482161 -124.178843 
L 318.998934 -129.68924 
L 315.515706 -135.355522 
L 312.032479 -129.019617 
L 308.549251 -132.004801 
L 305.066023 -132.212447 
L 301.582796 -131.82637 
L 298.099568 -133.524988 
L 294.616341 -136.228622 
L 291.133113 -136.493617 
L 287.649886 -137.952115 
L 284.166658 -136.933018 
L 280.683431 -148.303432 
L 277.200203 -150.793953 
L 273.716976 -144.130238 
L 270.233748 -140.243113 
L 266.750521 -139.165485 
L 263.267293 -131.868485 
L 259.784066 -135.318498 
L 256.300838 -135.455792 
L 252.817611 -126.898306 
L 249.334383 -128.051299 
L 245.851156 -127.537229 
L 242.367928 -128.812171 
L 238.884701 -132.599127 
L 235.401473 -129.505512 
L 231.918246 -128.819541 
L 228.435018 -135.018045 
L 224.951791 -128.606578 
L 221.468563 -128.375511 
L 217.985336 -128.612369 
L 214.502108 -129.478121 
L 211.018881 -134.267706 
L 207.535653 -139.476475 
L 204.052426 -131.061691 
L 200.569198 -135.136847 
L 197.085971 -132.815279 
L 193.602743 -134.002634 
L 190.119516 -132.288792 
L 186.636288 -129.666078 
L 183.153061 -130.908338 
L 179.669833 -128.961396 
L 176.186605 -126.142709 
L 172.703378 -129.974026 
L 169.22015 -129.421036 
L 165.736923 -124.509797 
L 162.253695 -128.726026 
L 158.770468 -130.876119 
L 155.28724 -133.410917 
L 151.804013 -142.482446 
L 148.320785 -143.137273 
L 144.837558 -131.138333 
L 141.35433 -127.924579 
L 137.871103 -127.54422 
L 134.387875 -129.14793 
L 130.904648 -127.794743 
L 127.42142 -129.280594 
L 123.938193 -128.093932 
L 120.454965 -130.314764 
L 116.971738 -130.556035 
L 113.48851 -118.477831 
L 110.005283 -118.178005 
L 106.522055 -114.482227 
L 103.038828 -112.342009 
L 99.5556 -117.309328 
L 96.072373 -119.169881 
L 92.589145 -117.32516 
L 89.105918 -114.770363 
L 85.62269 -111.105154 
L 82.139463 -114.923709 
L 78.656235 -115.725279 
L 75.173008 -116.034319 
L 71.68978 -116.510229 
L 68.206553 -112.076711 
L 64.723325 -115.794478 
L 61.240098 -133.534199 
L 57.75687 -141.310121 
L 54.273643 -148.019444 
L 50.790415 -125.724367 
L 47.307188 -101.043957 
z
" style="stroke: #808080; stroke-opacity: 0.7"/>
    </defs>
    <g clip-path="url(#p78905599b9)">
     <use xlink:href="#m12ca07149c" x="0" y="424.5775" style="fill: #808080; fill-opacity: 0.7; stroke: #808080; stroke-opacity: 0.7"/>
    </g>
   </g>
   <g id="line2d_31">
    <path d="M 47.307188 355.610226 
L 50.790415 356.074738 
L 54.273643 353.111152 
L 57.75687 343.923366 
L 61.240098 356.405299 
L 64.723325 355.384818 
L 68.206553 357.848763 
L 71.68978 363.294577 
L 75.173008 358.358388 
L 78.656235 354.335167 
L 82.139463 357.534049 
L 85.62269 355.864781 
L 89.105918 356.768653 
L 92.589145 355.074392 
L 96.072373 354.779078 
L 99.5556 359.404537 
L 103.038828 356.642956 
L 106.522055 360.459592 
L 113.48851 352.560534 
L 116.971738 359.107571 
L 120.454965 362.671211 
L 123.938193 361.183184 
L 127.42142 359.991798 
L 130.904648 363.852021 
L 134.387875 360.177731 
L 137.871103 357.347356 
L 141.35433 359.893756 
L 144.837558 358.89663 
L 148.320785 356.197029 
L 151.804013 348.996753 
L 155.28724 358.201349 
L 158.770468 358.085097 
L 162.253695 351.887412 
L 165.736923 356.049377 
L 169.22015 358.758096 
L 172.703378 361.704879 
L 176.186605 362.056696 
L 179.669833 362.558253 
L 183.153061 361.438771 
L 186.636288 362.500185 
L 190.119516 362.140149 
L 193.602743 363.598756 
L 197.085971 359.191041 
L 200.569198 361.096695 
L 204.052426 356.345279 
L 207.535653 349.382036 
L 211.018881 346.821645 
L 214.502108 318.158606 
L 217.985336 345.186855 
L 221.468563 355.187738 
L 224.951791 354.041083 
L 228.435018 357.440341 
L 231.918246 350.260412 
L 235.401473 340.857091 
L 238.884701 342.470582 
L 242.367928 345.618456 
L 245.851156 342.834422 
L 249.334383 348.798061 
L 252.817611 338.58943 
L 256.300838 339.321861 
L 259.784066 343.647475 
L 263.267293 344.061268 
L 266.750521 351.308305 
L 270.233748 351.60142 
L 273.716976 350.839015 
L 277.200203 356.001059 
L 280.683431 343.818161 
L 284.166658 340.635569 
L 287.649886 343.311429 
L 291.133113 348.786805 
L 294.616341 349.647356 
L 298.099568 341.052352 
L 301.582796 334.841315 
L 305.066023 339.60511 
L 308.549251 331.716862 
L 312.032479 336.559996 
L 315.515706 321.180594 
L 318.998934 320.521487 
L 322.482161 331.144998 
L 325.965389 325.865427 
L 329.448616 338.56523 
L 332.931844 340.161626 
L 336.415071 340.053468 
L 339.898299 346.311915 
L 343.381526 340.408582 
L 346.864754 342.404434 
L 350.347981 337.483674 
L 353.831209 339.275558 
L 357.314436 335.665269 
L 360.797664 303.038898 
L 364.280891 333.583337 
L 367.764119 339.347736 
L 371.247346 331.046847 
L 374.730574 336.388085 
L 381.697029 340.112733 
L 385.180256 346.131096 
L 388.663484 328.545082 
L 392.146711 347.383029 
L 395.629939 342.673394 
L 399.113166 346.163817 
L 402.596394 341.029228 
L 406.079621 331.409623 
L 409.562849 343.508031 
L 413.046076 334.248671 
L 416.529304 340.527334 
L 420.012531 323.58851 
L 423.495759 317.479749 
L 426.978986 339.827462 
L 430.462214 326.290253 
L 433.945441 307.131608 
L 437.428669 335.888503 
L 440.911896 338.86193 
L 444.395124 351.664558 
L 447.878352 349.745981 
L 451.361579 334.360448 
L 454.844807 321.695968 
L 458.328034 347.201271 
L 461.811262 348.20218 
L 465.294489 343.202111 
L 468.777717 321.8307 
L 472.260944 309.24583 
L 475.744172 300.331665 
L 479.227399 293.672947 
L 482.710627 300.118225 
L 486.193854 297.025173 
L 489.677082 324.258525 
L 493.160309 321.309676 
L 496.643537 321.274983 
L 500.126764 316.340318 
L 503.609992 328.952839 
L 507.093219 314.762327 
L 510.576447 315.690403 
L 514.059674 326.853372 
L 517.542902 327.795393 
L 521.026129 311.208572 
L 524.509357 308.247325 
L 527.992584 297.881444 
L 531.475812 282.929945 
L 534.959039 303.351748 
L 541.925494 329.742232 
L 545.408722 309.003571 
L 548.891949 316.867133 
L 552.375177 322.269392 
L 555.858404 325.548447 
L 559.341632 320.34002 
L 562.824859 312.641967 
L 566.308087 318.62875 
L 569.791314 325.773634 
L 573.274542 331.492675 
L 576.75777 332.959449 
L 580.240997 324.2147 
L 583.724225 325.025149 
L 587.207452 305.522475 
L 590.69068 304.398969 
L 594.173907 299.309662 
L 597.657135 292.044584 
L 601.140362 299.323822 
L 604.62359 302.36305 
L 608.106817 318.379142 
L 611.590045 286.226207 
L 615.073272 323.536992 
L 618.5565 301.830568 
L 622.039727 325.142055 
L 625.522955 288.204875 
L 629.006182 285.712153 
L 632.48941 289.215559 
L 635.972637 297.748829 
L 639.455865 320.877527 
L 642.939092 308.749481 
L 646.42232 330.206152 
L 649.905547 323.349279 
L 653.388775 285.490512 
L 656.872002 275.485419 
L 660.35523 273.930772 
L 663.838457 282.865774 
L 667.321685 278.913014 
L 670.804912 295.689907 
L 674.28814 295.651274 
L 677.771367 291.332895 
L 681.254595 312.301253 
L 684.737822 297.517702 
L 688.22105 308.899123 
L 691.704277 299.718778 
L 695.187505 310.935236 
L 698.670732 322.609317 
L 702.15396 323.80094 
L 705.637188 298.763658 
L 705.637188 298.763658 
" clip-path="url(#p78905599b9)" style="fill: none; stroke: #ff8c00; stroke-width: 2.3; stroke-linecap: square"/>
   </g>
   <g id="line2d_32">
    <path d="M 284.166658 384.117812 
L 284.166658 23.837812 
" clip-path="url(#p78905599b9)" style="fill: none; stroke-dasharray: 5.55,2.4; stroke-dashoffset: 0; stroke: #808080; stroke-width: 1.5"/>
   </g>
   <g id="line2d_33">
    <path d="M 486.193854 384.117812 
L 486.193854 23.837812 
" clip-path="url(#p78905599b9)" style="fill: none; stroke-dasharray: 5.55,2.4; stroke-dashoffset: 0; stroke: #808080; stroke-width: 1.5"/>
   </g>
   <g id="patch_3">
    <path d="M 47.307188 384.117812 
L 47.307188 23.837812 
" style="fill: none; stroke: #000000; stroke-width: 0.8; stroke-linejoin: miter; stroke-linecap: square"/>
   </g>
   <g id="patch_4">
    <path d="M 705.637188 384.117812 
L 705.637188 23.837812 
" style="fill: none; stroke: #000000; stroke-width: 0.8; stroke-linejoin: miter; stroke-linecap: square"/>
   </g>
   <g id="patch_5">
    <path d="M 47.307188 384.117812 
L 705.637188 384.117812 
" style="fill: none; stroke: #000000; stroke-width: 0.8; stroke-linejoin: miter; stroke-linecap: square"/>
   </g>
   <g id="patch_6">
    <path d="M 47.307188 23.837812 
L 705.637188 23.837812 
" style="fill: none; stroke: #000000; stroke-width: 0.8; stroke-linejoin: miter; stroke-linecap: square"/>
   </g>
   <g id="text_18">
    <!-- Facial trace: Depressive disorder (MDD/DD) -->
    <g transform="translate(224.463906 17.837812) scale(0.14 -0.14)">
     <defs>
      <path id="DejaVuSans-46" d="M 628 4666 
L 3309 4666 
L 3309 4134 
L 1259 4134 
L 1259 2759 
L 3109 2759 
L 3109 2228 
L 1259 2228 
L 1259 0 
L 628 0 
L 628 4666 
z
" transform="scale(0.015625)"/>
      <path id="DejaVuSans-63" d="M 3122 3366 
L 3122 2828 
Q 2878 2963 2633 3030 
Q 2388 3097 2138 3097 
Q 1578 3097 1268 2742 
Q 959 2388 959 1747 
Q 959 1106 1268 751 
Q 1578 397 2138 397 
Q 2388 397 2633 464 
Q 2878 531 3122 666 
L 3122 134 
Q 2881 22 2623 -34 
Q 2366 -91 2075 -91 
Q 1284 -91 818 406 
Q 353 903 353 1747 
Q 353 2603 823 3093 
Q 1294 3584 2113 3584 
Q 2378 3584 2631 3529 
Q 2884 3475 3122 3366 
z
" transform="scale(0.015625)"/>
      <path id="DejaVuSans-6c" d="M 603 4863 
L 1178 4863 
L 1178 0 
L 603 0 
L 603 4863 
z
" transform="scale(0.015625)"/>
      <path id="DejaVuSans-72" d="M 2631 2963 
Q 2534 3019 2420 3045 
Q 2306 3072 2169 3072 
Q 1681 3072 1420 2755 
Q 1159 2438 1159 1844 
L 1159 0 
L 581 0 
L 581 3500 
L 1159 3500 
L 1159 2956 
Q 1341 3275 1631 3429 
Q 1922 3584 2338 3584 
Q 2397 3584 2469 3576 
Q 2541 3569 2628 3553 
L 2631 2963 
z
" transform="scale(0.015625)"/>
      <path id="DejaVuSans-3a" d="M 750 794 
L 1409 794 
L 1409 0 
L 750 0 
L 750 794 
z
M 750 3309 
L 1409 3309 
L 1409 2516 
L 750 2516 
L 750 3309 
z
" transform="scale(0.015625)"/>
      <path id="DejaVuSans-44" d="M 1259 4147 
L 1259 519 
L 2022 519 
Q 2988 519 3436 956 
Q 3884 1394 3884 2338 
Q 3884 3275 3436 3711 
Q 2988 4147 2022 4147 
L 1259 4147 
z
M 628 4666 
L 1925 4666 
Q 3281 4666 3915 4102 
Q 4550 3538 4550 2338 
Q 4550 1131 3912 565 
Q 3275 0 1925 0 
L 628 0 
L 628 4666 
z
" transform="scale(0.015625)"/>
      <path id="DejaVuSans-70" d="M 1159 525 
L 1159 -1331 
L 581 -1331 
L 581 3500 
L 1159 3500 
L 1159 2969 
Q 1341 3281 1617 3432 
Q 1894 3584 2278 3584 
Q 2916 3584 3314 3078 
Q 3713 2572 3713 1747 
Q 3713 922 3314 415 
Q 2916 -91 2278 -91 
Q 1894 -91 1617 61 
Q 1341 213 1159 525 
z
M 3116 1747 
Q 3116 2381 2855 2742 
Q 2594 3103 2138 3103 
Q 1681 3103 1420 2742 
Q 1159 2381 1159 1747 
Q 1159 1113 1420 752 
Q 1681 391 2138 391 
Q 2594 391 2855 752 
Q 3116 1113 3116 1747 
z
" transform="scale(0.015625)"/>
      <path id="DejaVuSans-76" d="M 191 3500 
L 800 3500 
L 1894 563 
L 2988 3500 
L 3597 3500 
L 2284 0 
L 1503 0 
L 191 3500 
z
" transform="scale(0.015625)"/>
      <path id="DejaVuSans-64" d="M 2906 2969 
L 2906 4863 
L 3481 4863 
L 3481 0 
L 2906 0 
L 2906 525 
Q 2725 213 2448 61 
Q 2172 -91 1784 -91 
Q 1150 -91 751 415 
Q 353 922 353 1747 
Q 353 2572 751 3078 
Q 1150 3584 1784 3584 
Q 2172 3584 2448 3432 
Q 2725 3281 2906 2969 
z
M 947 1747 
Q 947 1113 1208 752 
Q 1469 391 1925 391 
Q 2381 391 2643 752 
Q 2906 1113 2906 1747 
Q 2906 2381 2643 2742 
Q 2381 3103 1925 3103 
Q 1469 3103 1208 2742 
Q 947 2381 947 1747 
z
" transform="scale(0.015625)"/>
      <path id="DejaVuSans-6f" d="M 1959 3097 
Q 1497 3097 1228 2736 
Q 959 2375 959 1747 
Q 959 1119 1226 758 
Q 1494 397 1959 397 
Q 2419 397 2687 759 
Q 2956 1122 2956 1747 
Q 2956 2369 2687 2733 
Q 2419 3097 1959 3097 
z
M 1959 3584 
Q 2709 3584 3137 3096 
Q 3566 2609 3566 1747 
Q 3566 888 3137 398 
Q 2709 -91 1959 -91 
Q 1206 -91 779 398 
Q 353 888 353 1747 
Q 353 2609 779 3096 
Q 1206 3584 1959 3584 
z
" transform="scale(0.015625)"/>
      <path id="DejaVuSans-4d" d="M 628 4666 
L 1569 4666 
L 2759 1491 
L 3956 4666 
L 4897 4666 
L 4897 0 
L 4281 0 
L 4281 4097 
L 3078 897 
L 2444 897 
L 1241 4097 
L 1241 0 
L 628 0 
L 628 4666 
z
" transform="scale(0.015625)"/>
      <path id="DejaVuSans-2f" d="M 1625 4666 
L 2156 4666 
L 531 -594 
L 0 -594 
L 1625 4666 
z
" transform="scale(0.015625)"/>
     </defs>
     <use xlink:href="#DejaVuSans-46"/>
     <use xlink:href="#DejaVuSans-61" transform="translate(48.394531 0)"/>
     <use xlink:href="#DejaVuSans-63" transform="translate(109.673828 0)"/>
     <use xlink:href="#DejaVuSans-69" transform="translate(164.654297 0)"/>
     <use xlink:href="#DejaVuSans-61" transform="translate(192.4375 0)"/>
     <use xlink:href="#DejaVuSans-6c" transform="translate(253.716797 0)"/>
     <use xlink:href="#DejaVuSans-20" transform="translate(281.5 0)"/>
     <use xlink:href="#DejaVuSans-74" transform="translate(313.287109 0)"/>
     <use xlink:href="#DejaVuSans-72" transform="translate(352.496094 0)"/>
     <use xlink:href="#DejaVuSans-61" transform="translate(393.609375 0)"/>
     <use xlink:href="#DejaVuSans-63" transform="translate(454.888672 0)"/>
     <use xlink:href="#DejaVuSans-65" transform="translate(509.869141 0)"/>
     <use xlink:href="#DejaVuSans-3a" transform="translate(571.392578 0)"/>
     <use xlink:href="#DejaVuSans-20" transform="translate(605.083984 0)"/>
     <use xlink:href="#DejaVuSans-44" transform="translate(636.871094 0)"/>
     <use xlink:href="#DejaVuSans-65" transform="translate(713.873047 0)"/>
     <use xlink:href="#DejaVuSans-70" transform="translate(775.396484 0)"/>
     <use xlink:href="#DejaVuSans-72" transform="translate(838.873047 0)"/>
     <use xlink:href="#DejaVuSans-65" transform="translate(877.736328 0)"/>
     <use xlink:href="#DejaVuSans-73" transform="translate(939.259766 0)"/>
     <use xlink:href="#DejaVuSans-73" transform="translate(991.359375 0)"/>
     <use xlink:href="#DejaVuSans-69" transform="translate(1043.458984 0)"/>
     <use xlink:href="#DejaVuSans-76" transform="translate(1071.242188 0)"/>
     <use xlink:href="#DejaVuSans-65" transform="translate(1130.421875 0)"/>
     <use xlink:href="#DejaVuSans-20" transform="translate(1191.945312 0)"/>
     <use xlink:href="#DejaVuSans-64" transform="translate(1223.732422 0)"/>
     <use xlink:href="#DejaVuSans-69" transform="translate(1287.208984 0)"/>
     <use xlink:href="#DejaVuSans-73" transform="translate(1314.992188 0)"/>
     <use xlink:href="#DejaVuSans-6f" transform="translate(1367.091797 0)"/>
     <use xlink:href="#DejaVuSans-72" transform="translate(1428.273438 0)"/>
     <use xlink:href="#DejaVuSans-64" transform="translate(1467.636719 0)"/>
     <use xlink:href="#DejaVuSans-65" transform="translate(1531.113281 0)"/>
     <use xlink:href="#DejaVuSans-72" transform="translate(1592.636719 0)"/>
     <use xlink:href="#DejaVuSans-20" transform="translate(1633.75 0)"/>
     <use xlink:href="#DejaVuSans-28" transform="translate(1665.537109 0)"/>
     <use xlink:href="#DejaVuSans-4d" transform="translate(1704.550781 0)"/>
     <use xlink:href="#DejaVuSans-44" transform="translate(1790.830078 0)"/>
     <use xlink:href="#DejaVuSans-44" transform="translate(1867.832031 0)"/>
     <use xlink:href="#DejaVuSans-2f" transform="translate(1944.833984 0)"/>
     <use xlink:href="#DejaVuSans-44" transform="translate(1978.525391 0)"/>
     <use xlink:href="#DejaVuSans-44" transform="translate(2055.527344 0)"/>
     <use xlink:href="#DejaVuSans-29" transform="translate(2132.529297 0)"/>
    </g>
   </g>
   <g id="legend_1">
    <g id="patch_7">
     <path d="M 457.46 42.096094 
L 479.46 42.096094 
L 479.46 34.396094 
L 457.46 34.396094 
z
" style="fill: #d3d3d3; fill-opacity: 0.5; stroke: #d3d3d3; stroke-opacity: 0.5; stroke-linejoin: miter"/>
    </g>
    <g id="text_19">
     <!-- Depressive disorder (MDD/DD) ±2 SD -->
     <g transform="translate(488.26 42.096094) scale(0.11 -0.11)">
      <defs>
       <path id="DejaVuSans-b1" d="M 2944 4013 
L 2944 2803 
L 4684 2803 
L 4684 2272 
L 2944 2272 
L 2944 1063 
L 2419 1063 
L 2419 2272 
L 678 2272 
L 678 2803 
L 2419 2803 
L 2419 4013 
L 2944 4013 
z
M 678 531 
L 4684 531 
L 4684 0 
L 678 0 
L 678 531 
z
" transform="scale(0.015625)"/>
       <path id="DejaVuSans-53" d="M 3425 4513 
L 3425 3897 
Q 3066 4069 2747 4153 
Q 2428 4238 2131 4238 
Q 1616 4238 1336 4038 
Q 1056 3838 1056 3469 
Q 1056 3159 1242 3001 
Q 1428 2844 1947 2747 
L 2328 2669 
Q 3034 2534 3370 2195 
Q 3706 1856 3706 1288 
Q 3706 609 3251 259 
Q 2797 -91 1919 -91 
Q 1588 -91 1214 -16 
Q 841 59 441 206 
L 441 856 
Q 825 641 1194 531 
Q 1563 422 1919 422 
Q 2459 422 2753 634 
Q 3047 847 3047 1241 
Q 3047 1584 2836 1778 
Q 2625 1972 2144 2069 
L 1759 2144 
Q 1053 2284 737 2584 
Q 422 2884 422 3419 
Q 422 4038 858 4394 
Q 1294 4750 2059 4750 
Q 2388 4750 2728 4690 
Q 3069 4631 3425 4513 
z
" transform="scale(0.015625)"/>
      </defs>
      <use xlink:href="#DejaVuSans-44"/>
      <use xlink:href="#DejaVuSans-65" transform="translate(77.001953 0)"/>
      <use xlink:href="#DejaVuSans-70" transform="translate(138.525391 0)"/>
      <use xlink:href="#DejaVuSans-72" transform="translate(202.001953 0)"/>
      <use xlink:href="#DejaVuSans-65" transform="translate(240.865234 0)"/>
      <use xlink:href="#DejaVuSans-73" transform="translate(302.388672 0)"/>
      <use xlink:href="#DejaVuSans-73" transform="translate(354.488281 0)"/>
      <use xlink:href="#DejaVuSans-69" transform="translate(406.587891 0)"/>
      <use xlink:href="#DejaVuSans-76" transform="translate(434.371094 0)"/>
      <use xlink:href="#DejaVuSans-65" transform="translate(493.550781 0)"/>
      <use xlink:href="#DejaVuSans-20" transform="translate(555.074219 0)"/>
      <use xlink:href="#DejaVuSans-64" transform="translate(586.861328 0)"/>
      <use xlink:href="#DejaVuSans-69" transform="translate(650.337891 0)"/>
      <use xlink:href="#DejaVuSans-73" transform="translate(678.121094 0)"/>
      <use xlink:href="#DejaVuSans-6f" transform="translate(730.220703 0)"/>
      <use xlink:href="#DejaVuSans-72" transform="translate(791.402344 0)"/>
      <use xlink:href="#DejaVuSans-64" transform="translate(830.765625 0)"/>
      <use xlink:href="#DejaVuSans-65" transform="translate(894.242188 0)"/>
      <use xlink:href="#DejaVuSans-72" transform="translate(955.765625 0)"/>
      <use xlink:href="#DejaVuSans-20" transform="translate(996.878906 0)"/>
      <use xlink:href="#DejaVuSans-28" transform="translate(1028.666016 0)"/>
      <use xlink:href="#DejaVuSans-4d" transform="translate(1067.679688 0)"/>
      <use xlink:href="#DejaVuSans-44" transform="translate(1153.958984 0)"/>
      <use xlink:href="#DejaVuSans-44" transform="translate(1230.960938 0)"/>
      <use xlink:href="#DejaVuSans-2f" transform="translate(1307.962891 0)"/>
      <use xlink:href="#DejaVuSans-44" transform="translate(1341.654297 0)"/>
      <use xlink:href="#DejaVuSans-44" transform="translate(1418.65625 0)"/>
      <use xlink:href="#DejaVuSans-29" transform="translate(1495.658203 0)"/>
      <use xlink:href="#DejaVuSans-20" transform="translate(1534.671875 0)"/>
      <use xlink:href="#DejaVuSans-b1" transform="translate(1566.458984 0)"/>
      <use xlink:href="#DejaVuSans-32" transform="translate(1650.248047 0)"/>
      <use xlink:href="#DejaVuSans-20" transform="translate(1713.871094 0)"/>
      <use xlink:href="#DejaVuSans-53" transform="translate(1745.658203 0)"/>
      <use xlink:href="#DejaVuSans-44" transform="translate(1809.134766 0)"/>
     </g>
    </g>
    <g id="patch_8">
     <path d="M 457.46 58.242031 
L 479.46 58.242031 
L 479.46 50.542031 
L 457.46 50.542031 
z
" style="fill: #808080; fill-opacity: 0.7; stroke: #808080; stroke-opacity: 0.7; stroke-linejoin: miter"/>
    </g>
    <g id="text_20">
     <!-- Depressive disorder (MDD/DD) ±1 SD -->
     <g transform="translate(488.26 58.242031) scale(0.11 -0.11)">
      <use xlink:href="#DejaVuSans-44"/>
      <use xlink:href="#DejaVuSans-65" transform="translate(77.001953 0)"/>
      <use xlink:href="#DejaVuSans-70" transform="translate(138.525391 0)"/>
      <use xlink:href="#DejaVuSans-72" transform="translate(202.001953 0)"/>
      <use xlink:href="#DejaVuSans-65" transform="translate(240.865234 0)"/>
      <use xlink:href="#DejaVuSans-73" transform="translate(302.388672 0)"/>
      <use xlink:href="#DejaVuSans-73" transform="translate(354.488281 0)"/>
      <use xlink:href="#DejaVuSans-69" transform="translate(406.587891 0)"/>
      <use xlink:href="#DejaVuSans-76" transform="translate(434.371094 0)"/>
      <use xlink:href="#DejaVuSans-65" transform="translate(493.550781 0)"/>
      <use xlink:href="#DejaVuSans-20" transform="translate(555.074219 0)"/>
      <use xlink:href="#DejaVuSans-64" transform="translate(586.861328 0)"/>
      <use xlink:href="#DejaVuSans-69" transform="translate(650.337891 0)"/>
      <use xlink:href="#DejaVuSans-73" transform="translate(678.121094 0)"/>
      <use xlink:href="#DejaVuSans-6f" transform="translate(730.220703 0)"/>
      <use xlink:href="#DejaVuSans-72" transform="translate(791.402344 0)"/>
      <use xlink:href="#DejaVuSans-64" transform="translate(830.765625 0)"/>
      <use xlink:href="#DejaVuSans-65" transform="translate(894.242188 0)"/>
      <use xlink:href="#DejaVuSans-72" transform="translate(955.765625 0)"/>
      <use xlink:href="#DejaVuSans-20" transform="translate(996.878906 0)"/>
      <use xlink:href="#DejaVuSans-28" transform="translate(1028.666016 0)"/>
      <use xlink:href="#DejaVuSans-4d" transform="translate(1067.679688 0)"/>
      <use xlink:href="#DejaVuSans-44" transform="translate(1153.958984 0)"/>
      <use xlink:href="#DejaVuSans-44" transform="translate(1230.960938 0)"/>
      <use xlink:href="#DejaVuSans-2f" transform="translate(1307.962891 0)"/>
      <use xlink:href="#DejaVuSans-44" transform="translate(1341.654297 0)"/>
      <use xlink:href="#DejaVuSans-44" transform="translate(1418.65625 0)"/>
      <use xlink:href="#DejaVuSans-29" transform="translate(1495.658203 0)"/>
      <use xlink:href="#DejaVuSans-20" transform="translate(1534.671875 0)"/>
      <use xlink:href="#DejaVuSans-b1" transform="translate(1566.458984 0)"/>
      <use xlink:href="#DejaVuSans-31" transform="translate(1650.248047 0)"/>
      <use xlink:href="#DejaVuSans-20" transform="translate(1713.871094 0)"/>
      <use xlink:href="#DejaVuSans-53" transform="translate(1745.658203 0)"/>
      <use xlink:href="#DejaVuSans-44" transform="translate(1809.134766 0)"/>
     </g>
    </g>
    <g id="line2d_34">
     <path d="M 457.46 70.537969 
L 468.46 70.537969 
L 479.46 70.537969 
" style="fill: none; stroke: #ff8c00; stroke-width: 2.3; stroke-linecap: square"/>
    </g>
    <g id="text_21">
     <!-- Patient -->
     <g transform="translate(488.26 74.387969) scale(0.11 -0.11)">
      <defs>
       <path id="DejaVuSans-50" d="M 1259 4147 
L 1259 2394 
L 2053 2394 
Q 2494 2394 2734 2622 
Q 2975 2850 2975 3272 
Q 2975 3691 2734 3919 
Q 2494 4147 2053 4147 
L 1259 4147 
z
M 628 4666 
L 2053 4666 
Q 2838 4666 3239 4311 
Q 3641 3956 3641 3272 
Q 3641 2581 3239 2228 
Q 2838 1875 2053 1875 
L 1259 1875 
L 1259 0 
L 628 0 
L 628 4666 
z
" transform="scale(0.015625)"/>
      </defs>
      <use xlink:href="#DejaVuSans-50"/>
      <use xlink:href="#DejaVuSans-61" transform="translate(55.802734 0)"/>
      <use xlink:href="#DejaVuSans-74" transform="translate(117.082031 0)"/>
      <use xlink:href="#DejaVuSans-69" transform="translate(156.291016 0)"/>
      <use xlink:href="#DejaVuSans-65" transform="translate(184.074219 0)"/>
      <use xlink:href="#DejaVuSans-6e" transform="translate(245.597656 0)"/>
      <use xlink:href="#DejaVuSans-74" transform="translate(308.976562 0)"/>
     </g>
    </g>
   </g>
  </g>
 </g>
 <defs>
  <clipPath id="p78905599b9">
   <rect x="47.307188" y="23.837812" width="658.33" height="360.28"/>
  </clipPath>
 </defs>
</svg>
