<?xml version="1.0" encoding="utf-8" standalone="no"?>
<!DOCTYPE svg PUBLIC "-//W3C//DTD SVG 1.1//EN"
  "http://www.w3.org/Graphics/SVG/1.1/DTD/svg11.dtd">
<svg xmlns:xlink="http://www.w3.org/1999/xlink" width="712.837188pt" height="424.5775pt" viewBox="0 0 712.837188 424.5775" xmlns="http://www.w3.org/2000/svg" version="1.1">
 <metadata>
  <rdf:RDF xmlns:dc="http://purl.org/dc/elements/1.1/" xmlns:cc="http://creativecommons.org/ns#" xmlns:rdf="http://www.w3.org/1999/02/22-rdf-syntax-ns#">
   <cc:Work>
    <dc:type rdf:resource="http://purl.org/dc/dcmitype/StillImage"/>
    <dc:date>2026-06-14T19:04:02.133981</dc:date>
    <dc:format>image/svg+xml</dc:format>
    <dc:creator>
     <cc:Agent>
      <dc:title>Matplotlib v3.10.1, https://matplotlib.org/</dc:title>
     </cc:Agent>
    </dc:creator>
   </cc:Work>
  </rdf:RDF>
 </metadata>
 <defs>
  <style type="text/css">*{stroke-linejoin: round; stroke-linecap: butt}</style>
 </defs>
 <g id="figure_1">
  <g id="patch_1">
   <path d="M 0 424.5775 
L 712.837188 424.5775 
L 712.837188 0 
L 0 0 
z
" style="fill: #ffffff"/>
  </g>
  <g id="axes_1">
   <g id="patch_2">
    <path d="M 47.307188 384.117812 
L 705.637188 384.117812 
L 705.637188 23.837812 
L 47.307188 23.837812 
z
" style="fill: #ffffff"/>
   </g>
   <g id="matplotlib.axis_1">
    <g id="xtick_1">
     <g id="line2d_1">
      <path d="M 47.307188 384.117812 
L 47.307188 23.837812 
" clip-path="url(#pf771b22011)" style="fill: none; stroke: #b0b0b0; stroke-opacity: 0.2; stroke-width: 0.6; stroke-linecap: square"/>
     </g>
     <g id="line2d_2">
      <defs>
       <path id="m6843bf392a" d="M 0 0 
L 0 3.5 
" style="stroke: #000000; stroke-width: 0.8"/>
      </defs>
      <g>
       <use xlink:href="#m6843bf392a" x="47.307188" y="384.117812" style="stroke: #000000; stroke-width: 0.8"/>
      </g>
     </g>
     <g id="text_1">
      <!-- 0 -->
      <g transform="translate(43.807813 399.476094) scale(0.11 -0.11)">
       <defs>
        <path id="DejaVuSans-30" d="M 2034 4250 
Q 1547 4250 1301 3770 
Q 1056 3291 1056 2328 
Q 1056 1369 1301 889 
Q 1547 409 2034 409 
Q 2525 409 2770 889 
Q 3016 1369 3016 2328 
Q 3016 3291 2770 3770 
Q 2525 4250 2034 4250 
z
M 2034 4750 
Q 2819 4750 3233 4129 
Q 3647 3509 3647 2328 
Q 3647 1150 3233 529 
Q 2819 -91 2034 -91 
Q 1250 -91 836 529 
Q 422 1150 422 2328 
Q 422 3509 836 4129 
Q 1250 4750 2034 4750 
z
" transform="scale(0.015625)"/>
       </defs>
       <use xlink:href="#DejaVuSans-30"/>
      </g>
     </g>
    </g>
    <g id="xtick_2">
     <g id="line2d_3">
      <path d="M 134.387875 384.117812 
L 134.387875 23.837812 
" clip-path="url(#pf771b22011)" style="fill: none; stroke: #b0b0b0; stroke-opacity: 0.2; stroke-width: 0.6; stroke-linecap: square"/>
     </g>
     <g id="line2d_4">
      <g>
       <use xlink:href="#m6843bf392a" x="134.387875" y="384.117812" style="stroke: #000000; stroke-width: 0.8"/>
      </g>
     </g>
     <g id="text_2">
      <!-- 25 -->
      <g transform="translate(127.389125 399.476094) scale(0.11 -0.11)">
       <defs>
        <path id="DejaVuSans-32" d="M 1228 531 
L 3431 531 
L 3431 0 
L 469 0 
L 469 531 
Q 828 903 1448 1529 
Q 2069 2156 2228 2338 
Q 2531 2678 2651 2914 
Q 2772 3150 2772 3378 
Q 2772 3750 2511 3984 
Q 2250 4219 1831 4219 
Q 1534 4219 1204 4116 
Q 875 4013 500 3803 
L 500 4441 
Q 881 4594 1212 4672 
Q 1544 4750 1819 4750 
Q 2544 4750 2975 4387 
Q 3406 4025 3406 3419 
Q 3406 3131 3298 2873 
Q 3191 2616 2906 2266 
Q 2828 2175 2409 1742 
Q 1991 1309 1228 531 
z
" transform="scale(0.015625)"/>
        <path id="DejaVuSans-35" d="M 691 4666 
L 3169 4666 
L 3169 4134 
L 1269 4134 
L 1269 2991 
Q 1406 3038 1543 3061 
Q 1681 3084 1819 3084 
Q 2600 3084 3056 2656 
Q 3513 2228 3513 1497 
Q 3513 744 3044 326 
Q 2575 -91 1722 -91 
Q 1428 -91 1123 -41 
Q 819 9 494 109 
L 494 744 
Q 775 591 1075 516 
Q 1375 441 1709 441 
Q 2250 441 2565 725 
Q 2881 1009 2881 1497 
Q 2881 1984 2565 2268 
Q 2250 2553 1709 2553 
Q 1456 2553 1204 2497 
Q 953 2441 691 2322 
L 691 4666 
z
" transform="scale(0.015625)"/>
       </defs>
       <use xlink:href="#DejaVuSans-32"/>
       <use xlink:href="#DejaVuSans-35" transform="translate(63.623047 0)"/>
      </g>
     </g>
    </g>
    <g id="xtick_3">
     <g id="line2d_5">
      <path d="M 221.468563 384.117812 
L 221.468563 23.837812 
" clip-path="url(#pf771b22011)" style="fill: none; stroke: #b0b0b0; stroke-opacity: 0.2; stroke-width: 0.6; stroke-linecap: square"/>
     </g>
     <g id="line2d_6">
      <g>
       <use xlink:href="#m6843bf392a" x="221.468563" y="384.117812" style="stroke: #000000; stroke-width: 0.8"/>
      </g>
     </g>
     <g id="text_3">
      <!-- 50 -->
      <g transform="translate(214.469813 399.476094) scale(0.11 -0.11)">
       <use xlink:href="#DejaVuSans-35"/>
       <use xlink:href="#DejaVuSans-30" transform="translate(63.623047 0)"/>
      </g>
     </g>
    </g>
    <g id="xtick_4">
     <g id="line2d_7">
      <path d="M 308.549251 384.117812 
L 308.549251 23.837812 
" clip-path="url(#pf771b22011)" style="fill: none; stroke: #b0b0b0; stroke-opacity: 0.2; stroke-width: 0.6; stroke-linecap: square"/>
     </g>
     <g id="line2d_8">
      <g>
       <use xlink:href="#m6843bf392a" x="308.549251" y="384.117812" style="stroke: #000000; stroke-width: 0.8"/>
      </g>
     </g>
     <g id="text_4">
      <!-- 75 -->
      <g transform="translate(301.550501 399.476094) scale(0.11 -0.11)">
       <defs>
        <path id="DejaVuSans-37" d="M 525 4666 
L 3525 4666 
L 3525 4397 
L 1831 0 
L 1172 0 
L 2766 4134 
L 525 4134 
L 525 4666 
z
" transform="scale(0.015625)"/>
       </defs>
       <use xlink:href="#DejaVuSans-37"/>
       <use xlink:href="#DejaVuSans-35" transform="translate(63.623047 0)"/>
      </g>
     </g>
    </g>
    <g id="xtick_5">
     <g id="line2d_9">
      <path d="M 395.629939 384.117812 
L 395.629939 23.837812 
" clip-path="url(#pf771b22011)" style="fill: none; stroke: #b0b0b0; stroke-opacity: 0.2; stroke-width: 0.6; stroke-linecap: square"/>
     </g>
     <g id="line2d_10">
      <g>
       <use xlink:href="#m6843bf392a" x="395.629939" y="384.117812" style="stroke: #000000; stroke-width: 0.8"/>
      </g>
     </g>
     <g id="text_5">
      <!-- 100 -->
      <g transform="translate(385.131814 399.476094) scale(0.11 -0.11)">
       <defs>
        <path id="DejaVuSans-31" d="M 794 531 
L 1825 531 
L 1825 4091 
L 703 3866 
L 703 4441 
L 1819 4666 
L 2450 4666 
L 2450 531 
L 3481 531 
L 3481 0 
L 794 0 
L 794 531 
z
" transform="scale(0.015625)"/>
       </defs>
       <use xlink:href="#DejaVuSans-31"/>
       <use xlink:href="#DejaVuSans-30" transform="translate(63.623047 0)"/>
       <use xlink:href="#DejaVuSans-30" transform="translate(127.246094 0)"/>
      </g>
     </g>
    </g>
    <g id="xtick_6">
     <g id="line2d_11">
      <path d="M 482.710627 384.117812 
L 482.710627 23.837812 
" clip-path="url(#pf771b22011)" style="fill: none; stroke: #b0b0b0; stroke-opacity: 0.2; stroke-width: 0.6; stroke-linecap: square"/>
     </g>
     <g id="line2d_12">
      <g>
       <use xlink:href="#m6843bf392a" x="482.710627" y="384.117812" style="stroke: #000000; stroke-width: 0.8"/>
      </g>
     </g>
     <g id="text_6">
      <!-- 125 -->
      <g transform="translate(472.212502 399.476094) scale(0.11 -0.11)">
       <use xlink:href="#DejaVuSans-31"/>
       <use xlink:href="#DejaVuSans-32" transform="translate(63.623047 0)"/>
       <use xlink:href="#DejaVuSans-35" transform="translate(127.246094 0)"/>
      </g>
     </g>
    </g>
    <g id="xtick_7">
     <g id="line2d_13">
      <path d="M 569.791314 384.117812 
L 569.791314 23.837812 
" clip-path="url(#pf771b22011)" style="fill: none; stroke: #b0b0b0; stroke-opacity: 0.2; stroke-width: 0.6; stroke-linecap: square"/>
     </g>
     <g id="line2d_14">
      <g>
       <use xlink:href="#m6843bf392a" x="569.791314" y="384.117812" style="stroke: #000000; stroke-width: 0.8"/>
      </g>
     </g>
     <g id="text_7">
      <!-- 150 -->
      <g transform="translate(559.293189 399.476094) scale(0.11 -0.11)">
       <use xlink:href="#DejaVuSans-31"/>
       <use xlink:href="#DejaVuSans-35" transform="translate(63.623047 0)"/>
       <use xlink:href="#DejaVuSans-30" transform="translate(127.246094 0)"/>
      </g>
     </g>
    </g>
    <g id="xtick_8">
     <g id="line2d_15">
      <path d="M 656.872002 384.117812 
L 656.872002 23.837812 
" clip-path="url(#pf771b22011)" style="fill: none; stroke: #b0b0b0; stroke-opacity: 0.2; stroke-width: 0.6; stroke-linecap: square"/>
     </g>
     <g id="line2d_16">
      <g>
       <use xlink:href="#m6843bf392a" x="656.872002" y="384.117812" style="stroke: #000000; stroke-width: 0.8"/>
      </g>
     </g>
     <g id="text_8">
      <!-- 175 -->
      <g transform="translate(646.373877 399.476094) scale(0.11 -0.11)">
       <use xlink:href="#DejaVuSans-31"/>
       <use xlink:href="#DejaVuSans-37" transform="translate(63.623047 0)"/>
       <use xlink:href="#DejaVuSans-35" transform="translate(127.246094 0)"/>
      </g>
     </g>
    </g>
    <g id="text_9">
     <!-- Time (s) -->
     <g transform="translate(352.0775 414.881875) scale(0.12 -0.12)">
      <defs>
       <path id="DejaVuSans-54" d="M -19 4666 
L 3928 4666 
L 3928 4134 
L 2272 4134 
L 2272 0 
L 1638 0 
L 1638 4134 
L -19 4134 
L -19 4666 
z
" transform="scale(0.015625)"/>
       <path id="DejaVuSans-69" d="M 603 3500 
L 1178 3500 
L 1178 0 
L 603 0 
L 603 3500 
z
M 603 4863 
L 1178 4863 
L 1178 4134 
L 603 4134 
L 603 4863 
z
" transform="scale(0.015625)"/>
       <path id="DejaVuSans-6d" d="M 3328 2828 
Q 3544 3216 3844 3400 
Q 4144 3584 4550 3584 
Q 5097 3584 5394 3201 
Q 5691 2819 5691 2113 
L 5691 0 
L 5113 0 
L 5113 2094 
Q 5113 2597 4934 2840 
Q 4756 3084 4391 3084 
Q 3944 3084 3684 2787 
Q 3425 2491 3425 1978 
L 3425 0 
L 2847 0 
L 2847 2094 
Q 2847 2600 2669 2842 
Q 2491 3084 2119 3084 
Q 1678 3084 1418 2786 
Q 1159 2488 1159 1978 
L 1159 0 
L 581 0 
L 581 3500 
L 1159 3500 
L 1159 2956 
Q 1356 3278 1631 3431 
Q 1906 3584 2284 3584 
Q 2666 3584 2933 3390 
Q 3200 3197 3328 2828 
z
" transform="scale(0.015625)"/>
       <path id="DejaVuSans-65" d="M 3597 1894 
L 3597 1613 
L 953 1613 
Q 991 1019 1311 708 
Q 1631 397 2203 397 
Q 2534 397 2845 478 
Q 3156 559 3463 722 
L 3463 178 
Q 3153 47 2828 -22 
Q 2503 -91 2169 -91 
Q 1331 -91 842 396 
Q 353 884 353 1716 
Q 353 2575 817 3079 
Q 1281 3584 2069 3584 
Q 2775 3584 3186 3129 
Q 3597 2675 3597 1894 
z
M 3022 2063 
Q 3016 2534 2758 2815 
Q 2500 3097 2075 3097 
Q 1594 3097 1305 2825 
Q 1016 2553 972 2059 
L 3022 2063 
z
" transform="scale(0.015625)"/>
       <path id="DejaVuSans-20" transform="scale(0.015625)"/>
       <path id="DejaVuSans-28" d="M 1984 4856 
Q 1566 4138 1362 3434 
Q 1159 2731 1159 2009 
Q 1159 1288 1364 580 
Q 1569 -128 1984 -844 
L 1484 -844 
Q 1016 -109 783 600 
Q 550 1309 550 2009 
Q 550 2706 781 3412 
Q 1013 4119 1484 4856 
L 1984 4856 
z
" transform="scale(0.015625)"/>
       <path id="DejaVuSans-73" d="M 2834 3397 
L 2834 2853 
Q 2591 2978 2328 3040 
Q 2066 3103 1784 3103 
Q 1356 3103 1142 2972 
Q 928 2841 928 2578 
Q 928 2378 1081 2264 
Q 1234 2150 1697 2047 
L 1894 2003 
Q 2506 1872 2764 1633 
Q 3022 1394 3022 966 
Q 3022 478 2636 193 
Q 2250 -91 1575 -91 
Q 1294 -91 989 -36 
Q 684 19 347 128 
L 347 722 
Q 666 556 975 473 
Q 1284 391 1588 391 
Q 1994 391 2212 530 
Q 2431 669 2431 922 
Q 2431 1156 2273 1281 
Q 2116 1406 1581 1522 
L 1381 1569 
Q 847 1681 609 1914 
Q 372 2147 372 2553 
Q 372 3047 722 3315 
Q 1072 3584 1716 3584 
Q 2034 3584 2315 3537 
Q 2597 3491 2834 3397 
z
" transform="scale(0.015625)"/>
       <path id="DejaVuSans-29" d="M 513 4856 
L 1013 4856 
Q 1481 4119 1714 3412 
Q 1947 2706 1947 2009 
Q 1947 1309 1714 600 
Q 1481 -109 1013 -844 
L 513 -844 
Q 928 -128 1133 580 
Q 1338 1288 1338 2009 
Q 1338 2731 1133 3434 
Q 928 4138 513 4856 
z
" transform="scale(0.015625)"/>
      </defs>
      <use xlink:href="#DejaVuSans-54"/>
      <use xlink:href="#DejaVuSans-69" transform="translate(57.958984 0)"/>
      <use xlink:href="#DejaVuSans-6d" transform="translate(85.742188 0)"/>
      <use xlink:href="#DejaVuSans-65" transform="translate(183.154297 0)"/>
      <use xlink:href="#DejaVuSans-20" transform="translate(244.677734 0)"/>
      <use xlink:href="#DejaVuSans-28" transform="translate(276.464844 0)"/>
      <use xlink:href="#DejaVuSans-73" transform="translate(315.478516 0)"/>
      <use xlink:href="#DejaVuSans-29" transform="translate(367.578125 0)"/>
     </g>
    </g>
   </g>
   <g id="matplotlib.axis_2">
    <g id="ytick_1">
     <g id="line2d_17">
      <path d="M 47.307188 367.741449 
L 705.637188 367.741449 
" clip-path="url(#pf771b22011)" style="fill: none; stroke: #b0b0b0; stroke-opacity: 0.2; stroke-width: 0.6; stroke-linecap: square"/>
     </g>
     <g id="line2d_18">
      <defs>
       <path id="md758e44760" d="M 0 0 
L -3.5 0 
" style="stroke: #000000; stroke-width: 0.8"/>
      </defs>
      <g>
       <use xlink:href="#md758e44760" x="47.307188" y="367.741449" style="stroke: #000000; stroke-width: 0.8"/>
      </g>
     </g>
     <g id="text_10">
      <!-- 0.0 -->
      <g transform="translate(22.81375 371.920589) scale(0.11 -0.11)">
       <defs>
        <path id="DejaVuSans-2e" d="M 684 794 
L 1344 794 
L 1344 0 
L 684 0 
L 684 794 
z
" transform="scale(0.015625)"/>
       </defs>
       <use xlink:href="#DejaVuSans-30"/>
       <use xlink:href="#DejaVuSans-2e" transform="translate(63.623047 0)"/>
       <use xlink:href="#DejaVuSans-30" transform="translate(95.410156 0)"/>
      </g>
     </g>
    </g>
    <g id="ytick_2">
     <g id="line2d_19">
      <path d="M 47.307188 317.507205 
L 705.637188 317.507205 
" clip-path="url(#pf771b22011)" style="fill: none; stroke: #b0b0b0; stroke-opacity: 0.2; stroke-width: 0.6; stroke-linecap: square"/>
     </g>
     <g id="line2d_20">
      <g>
       <use xlink:href="#md758e44760" x="47.307188" y="317.507205" style="stroke: #000000; stroke-width: 0.8"/>
      </g>
     </g>
     <g id="text_11">
      <!-- 0.5 -->
      <g transform="translate(22.81375 321.686345) scale(0.11 -0.11)">
       <use xlink:href="#DejaVuSans-30"/>
       <use xlink:href="#DejaVuSans-2e" transform="translate(63.623047 0)"/>
       <use xlink:href="#DejaVuSans-35" transform="translate(95.410156 0)"/>
      </g>
     </g>
    </g>
    <g id="ytick_3">
     <g id="line2d_21">
      <path d="M 47.307188 267.27296 
L 705.637188 267.27296 
" clip-path="url(#pf771b22011)" style="fill: none; stroke: #b0b0b0; stroke-opacity: 0.2; stroke-width: 0.6; stroke-linecap: square"/>
     </g>
     <g id="line2d_22">
      <g>
       <use xlink:href="#md758e44760" x="47.307188" y="267.27296" style="stroke: #000000; stroke-width: 0.8"/>
      </g>
     </g>
     <g id="text_12">
      <!-- 1.0 -->
      <g transform="translate(22.81375 271.452101) scale(0.11 -0.11)">
       <use xlink:href="#DejaVuSans-31"/>
       <use xlink:href="#DejaVuSans-2e" transform="translate(63.623047 0)"/>
       <use xlink:href="#DejaVuSans-30" transform="translate(95.410156 0)"/>
      </g>
     </g>
    </g>
    <g id="ytick_4">
     <g id="line2d_23">
      <path d="M 47.307188 217.038716 
L 705.637188 217.038716 
" clip-path="url(#pf771b22011)" style="fill: none; stroke: #b0b0b0; stroke-opacity: 0.2; stroke-width: 0.6; stroke-linecap: square"/>
     </g>
     <g id="line2d_24">
      <g>
       <use xlink:href="#md758e44760" x="47.307188" y="217.038716" style="stroke: #000000; stroke-width: 0.8"/>
      </g>
     </g>
     <g id="text_13">
      <!-- 1.5 -->
      <g transform="translate(22.81375 221.217857) scale(0.11 -0.11)">
       <use xlink:href="#DejaVuSans-31"/>
       <use xlink:href="#DejaVuSans-2e" transform="translate(63.623047 0)"/>
       <use xlink:href="#DejaVuSans-35" transform="translate(95.410156 0)"/>
      </g>
     </g>
    </g>
    <g id="ytick_5">
     <g id="line2d_25">
      <path d="M 47.307188 166.804472 
L 705.637188 166.804472 
" clip-path="url(#pf771b22011)" style="fill: none; stroke: #b0b0b0; stroke-opacity: 0.2; stroke-width: 0.6; stroke-linecap: square"/>
     </g>
     <g id="line2d_26">
      <g>
       <use xlink:href="#md758e44760" x="47.307188" y="166.804472" style="stroke: #000000; stroke-width: 0.8"/>
      </g>
     </g>
     <g id="text_14">
      <!-- 2.0 -->
      <g transform="translate(22.81375 170.983612) scale(0.11 -0.11)">
       <use xlink:href="#DejaVuSans-32"/>
       <use xlink:href="#DejaVuSans-2e" transform="translate(63.623047 0)"/>
       <use xlink:href="#DejaVuSans-30" transform="translate(95.410156 0)"/>
      </g>
     </g>
    </g>
    <g id="ytick_6">
     <g id="line2d_27">
      <path d="M 47.307188 116.570227 
L 705.637188 116.570227 
" clip-path="url(#pf771b22011)" style="fill: none; stroke: #b0b0b0; stroke-opacity: 0.2; stroke-width: 0.6; stroke-linecap: square"/>
     </g>
     <g id="line2d_28">
      <g>
       <use xlink:href="#md758e44760" x="47.307188" y="116.570227" style="stroke: #000000; stroke-width: 0.8"/>
      </g>
     </g>
     <g id="text_15">
      <!-- 2.5 -->
      <g transform="translate(22.81375 120.749368) scale(0.11 -0.11)">
       <use xlink:href="#DejaVuSans-32"/>
       <use xlink:href="#DejaVuSans-2e" transform="translate(63.623047 0)"/>
       <use xlink:href="#DejaVuSans-35" transform="translate(95.410156 0)"/>
      </g>
     </g>
    </g>
    <g id="ytick_7">
     <g id="line2d_29">
      <path d="M 47.307188 66.335983 
L 705.637188 66.335983 
" clip-path="url(#pf771b22011)" style="fill: none; stroke: #b0b0b0; stroke-opacity: 0.2; stroke-width: 0.6; stroke-linecap: square"/>
     </g>
     <g id="line2d_30">
      <g>
       <use xlink:href="#md758e44760" x="47.307188" y="66.335983" style="stroke: #000000; stroke-width: 0.8"/>
      </g>
     </g>
     <g id="text_16">
      <!-- 3.0 -->
      <g transform="translate(22.81375 70.515124) scale(0.11 -0.11)">
       <defs>
        <path id="DejaVuSans-33" d="M 2597 2516 
Q 3050 2419 3304 2112 
Q 3559 1806 3559 1356 
Q 3559 666 3084 287 
Q 2609 -91 1734 -91 
Q 1441 -91 1130 -33 
Q 819 25 488 141 
L 488 750 
Q 750 597 1062 519 
Q 1375 441 1716 441 
Q 2309 441 2620 675 
Q 2931 909 2931 1356 
Q 2931 1769 2642 2001 
Q 2353 2234 1838 2234 
L 1294 2234 
L 1294 2753 
L 1863 2753 
Q 2328 2753 2575 2939 
Q 2822 3125 2822 3475 
Q 2822 3834 2567 4026 
Q 2313 4219 1838 4219 
Q 1578 4219 1281 4162 
Q 984 4106 628 3988 
L 628 4550 
Q 988 4650 1302 4700 
Q 1616 4750 1894 4750 
Q 2613 4750 3031 4423 
Q 3450 4097 3450 3541 
Q 3450 3153 3228 2886 
Q 3006 2619 2597 2516 
z
" transform="scale(0.015625)"/>
       </defs>
       <use xlink:href="#DejaVuSans-33"/>
       <use xlink:href="#DejaVuSans-2e" transform="translate(63.623047 0)"/>
       <use xlink:href="#DejaVuSans-30" transform="translate(95.410156 0)"/>
      </g>
     </g>
    </g>
    <g id="text_17">
     <!-- AU mean intensity -->
     <g transform="translate(16.318125 259.314687) rotate(-90) scale(0.12 -0.12)">
      <defs>
       <path id="DejaVuSans-41" d="M 2188 4044 
L 1331 1722 
L 3047 1722 
L 2188 4044 
z
M 1831 4666 
L 2547 4666 
L 4325 0 
L 3669 0 
L 3244 1197 
L 1141 1197 
L 716 0 
L 50 0 
L 1831 4666 
z
" transform="scale(0.015625)"/>
       <path id="DejaVuSans-55" d="M 556 4666 
L 1191 4666 
L 1191 1831 
Q 1191 1081 1462 751 
Q 1734 422 2344 422 
Q 2950 422 3222 751 
Q 3494 1081 3494 1831 
L 3494 4666 
L 4128 4666 
L 4128 1753 
Q 4128 841 3676 375 
Q 3225 -91 2344 -91 
Q 1459 -91 1007 375 
Q 556 841 556 1753 
L 556 4666 
z
" transform="scale(0.015625)"/>
       <path id="DejaVuSans-61" d="M 2194 1759 
Q 1497 1759 1228 1600 
Q 959 1441 959 1056 
Q 959 750 1161 570 
Q 1363 391 1709 391 
Q 2188 391 2477 730 
Q 2766 1069 2766 1631 
L 2766 1759 
L 2194 1759 
z
M 3341 1997 
L 3341 0 
L 2766 0 
L 2766 531 
Q 2569 213 2275 61 
Q 1981 -91 1556 -91 
Q 1019 -91 701 211 
Q 384 513 384 1019 
Q 384 1609 779 1909 
Q 1175 2209 1959 2209 
L 2766 2209 
L 2766 2266 
Q 2766 2663 2505 2880 
Q 2244 3097 1772 3097 
Q 1472 3097 1187 3025 
Q 903 2953 641 2809 
L 641 3341 
Q 956 3463 1253 3523 
Q 1550 3584 1831 3584 
Q 2591 3584 2966 3190 
Q 3341 2797 3341 1997 
z
" transform="scale(0.015625)"/>
       <path id="DejaVuSans-6e" d="M 3513 2113 
L 3513 0 
L 2938 0 
L 2938 2094 
Q 2938 2591 2744 2837 
Q 2550 3084 2163 3084 
Q 1697 3084 1428 2787 
Q 1159 2491 1159 1978 
L 1159 0 
L 581 0 
L 581 3500 
L 1159 3500 
L 1159 2956 
Q 1366 3272 1645 3428 
Q 1925 3584 2291 3584 
Q 2894 3584 3203 3211 
Q 3513 2838 3513 2113 
z
" transform="scale(0.015625)"/>
       <path id="DejaVuSans-74" d="M 1172 4494 
L 1172 3500 
L 2356 3500 
L 2356 3053 
L 1172 3053 
L 1172 1153 
Q 1172 725 1289 603 
Q 1406 481 1766 481 
L 2356 481 
L 2356 0 
L 1766 0 
Q 1100 0 847 248 
Q 594 497 594 1153 
L 594 3053 
L 172 3053 
L 172 3500 
L 594 3500 
L 594 4494 
L 1172 4494 
z
" transform="scale(0.015625)"/>
       <path id="DejaVuSans-79" d="M 2059 -325 
Q 1816 -950 1584 -1140 
Q 1353 -1331 966 -1331 
L 506 -1331 
L 506 -850 
L 844 -850 
Q 1081 -850 1212 -737 
Q 1344 -625 1503 -206 
L 1606 56 
L 191 3500 
L 800 3500 
L 1894 763 
L 2988 3500 
L 3597 3500 
L 2059 -325 
z
" transform="scale(0.015625)"/>
      </defs>
      <use xlink:href="#DejaVuSans-41"/>
      <use xlink:href="#DejaVuSans-55" transform="translate(68.408203 0)"/>
      <use xlink:href="#DejaVuSans-20" transform="translate(141.601562 0)"/>
      <use xlink:href="#DejaVuSans-6d" transform="translate(173.388672 0)"/>
      <use xlink:href="#DejaVuSans-65" transform="translate(270.800781 0)"/>
      <use xlink:href="#DejaVuSans-61" transform="translate(332.324219 0)"/>
      <use xlink:href="#DejaVuSans-6e" transform="translate(393.603516 0)"/>
      <use xlink:href="#DejaVuSans-20" transform="translate(456.982422 0)"/>
      <use xlink:href="#DejaVuSans-69" transform="translate(488.769531 0)"/>
      <use xlink:href="#DejaVuSans-6e" transform="translate(516.552734 0)"/>
      <use xlink:href="#DejaVuSans-74" transform="translate(579.931641 0)"/>
      <use xlink:href="#DejaVuSans-65" transform="translate(619.140625 0)"/>
      <use xlink:href="#DejaVuSans-6e" transform="translate(680.664062 0)"/>
      <use xlink:href="#DejaVuSans-73" transform="translate(744.042969 0)"/>
      <use xlink:href="#DejaVuSans-69" transform="translate(796.142578 0)"/>
      <use xlink:href="#DejaVuSans-74" transform="translate(823.925781 0)"/>
      <use xlink:href="#DejaVuSans-79" transform="translate(863.134766 0)"/>
     </g>
    </g>
   </g>
   <g id="FillBetweenPolyCollection_1">
    <defs>
     <path id="m75e09ac725" d="M 47.307188 -102.110668 
L 47.307188 -32.724775 
L 50.790415 3.818064 
L 54.273643 29.019866 
L 57.75687 19.194991 
L 61.240098 14.810648 
L 64.723325 -17.524356 
L 68.206553 -25.716132 
L 71.68978 -19.426548 
L 75.173008 -17.837735 
L 78.656235 -14.513328 
L 82.139463 -13.296402 
L 85.62269 -25.624333 
L 89.105918 -11.660316 
L 92.589145 -5.683836 
L 96.072373 -2.647849 
L 99.5556 -2.008999 
L 103.038828 -9.287323 
L 106.522055 -14.049931 
L 110.005283 -9.506604 
L 113.48851 3.096025 
L 116.971738 29.670156 
L 120.454965 13.308054 
L 123.938193 -4.54678 
L 127.42142 1.913538 
L 130.904648 -1.164452 
L 134.387875 2.259826 
L 137.871103 0.211678 
L 141.35433 13.62658 
L 144.837558 13.34218 
L 148.320785 15.362113 
L 151.804013 11.937655 
L 155.28724 8.334027 
L 158.770468 -2.70719 
L 162.253695 -6.857618 
L 165.736923 -9.024129 
L 169.22015 0.040168 
L 172.703378 -1.254616 
L 176.186605 -12.142359 
L 179.669833 -10.486956 
L 183.153061 -11.086036 
L 186.636288 -7.871261 
L 190.119516 5.023504 
L 193.602743 7.109853 
L 197.085971 9.211558 
L 200.569198 9.873707 
L 204.052426 -1.890254 
L 207.535653 16.451238 
L 211.018881 -7.390933 
L 214.502108 -5.377579 
L 217.985336 -7.278448 
L 221.468563 8.727724 
L 224.951791 0.476981 
L 228.435018 20.243249 
L 231.918246 -4.149477 
L 235.401473 5.450344 
L 238.884701 15.730728 
L 242.367928 -0.876116 
L 245.851156 -7.943993 
L 249.334383 6.96482 
L 252.817611 1.959996 
L 256.300838 22.411961 
L 259.784066 17.547194 
L 263.267293 1.757906 
L 266.750521 18.046858 
L 270.233748 17.885924 
L 273.716976 18.424281 
L 277.200203 37.80193 
L 280.683431 24.984946 
L 284.166658 5.813752 
L 287.649886 7.108612 
L 291.133113 4.108045 
L 294.616341 4.039075 
L 298.099568 -3.440604 
L 301.582796 1.624276 
L 305.066023 11.974913 
L 308.549251 2.942859 
L 312.032479 -1.948519 
L 315.515706 10.447628 
L 318.998934 8.611714 
L 322.482161 -4.304443 
L 325.965389 -1.224673 
L 329.448616 3.792487 
L 332.931844 10.515318 
L 336.415071 7.594914 
L 339.898299 -12.543433 
L 343.381526 0.382266 
L 346.864754 0.994763 
L 350.347981 -2.27747 
L 353.831209 1.693669 
L 357.314436 4.485982 
L 360.797664 14.848498 
L 364.280891 8.851712 
L 367.764119 6.615316 
L 371.247346 -1.887432 
L 374.730574 -8.796714 
L 378.213801 -12.089925 
L 381.697029 -21.609149 
L 385.180256 -15.114848 
L 388.663484 -14.328593 
L 392.146711 -7.394349 
L 395.629939 -12.422645 
L 399.113166 -9.126193 
L 402.596394 -16.851403 
L 406.079621 -26.707682 
L 409.562849 -15.977378 
L 413.046076 -3.349346 
L 416.529304 -5.931176 
L 420.012531 -3.97006 
L 423.495759 7.152676 
L 426.978986 -12.005297 
L 430.462214 -14.656956 
L 433.945441 -16.24111 
L 437.428669 -9.13255 
L 440.911896 -11.175894 
L 444.395124 -21.500827 
L 447.878352 -21.718353 
L 451.361579 -4.451595 
L 454.844807 7.338716 
L 458.328034 -13.810339 
L 461.811262 -12.403095 
L 465.294489 -3.356395 
L 468.777717 -8.449756 
L 472.260944 11.803369 
L 475.744172 31.632868 
L 479.227399 15.59047 
L 482.710627 -1.455002 
L 486.193854 11.689569 
L 489.677082 7.608142 
L 493.160309 -13.66682 
L 496.643537 -12.376604 
L 500.126764 -9.413218 
L 503.609992 -2.969981 
L 507.093219 3.323774 
L 510.576447 11.623451 
L 514.059674 11.769236 
L 517.542902 8.635124 
L 521.026129 7.347985 
L 524.509357 8.887559 
L 527.992584 6.459532 
L 531.475812 -2.680556 
L 534.959039 -6.240734 
L 538.442267 -0.859109 
L 541.925494 -0.214601 
L 545.408722 -11.555241 
L 548.891949 -3.728169 
L 552.375177 5.732711 
L 555.858404 2.034848 
L 559.341632 -0.509613 
L 562.824859 -3.52273 
L 566.308087 -2.48144 
L 569.791314 -4.23684 
L 573.274542 -4.225763 
L 576.75777 -17.009256 
L 580.240997 -17.807422 
L 583.724225 -16.857359 
L 587.207452 -0.557143 
L 590.69068 -8.32148 
L 594.173907 -3.910668 
L 597.657135 -10.70117 
L 601.140362 -1.715834 
L 604.62359 4.226348 
L 608.106817 10.293665 
L 611.590045 18.216676 
L 615.073272 0.010562 
L 618.5565 4.588647 
L 622.039727 9.623075 
L 625.522955 -2.753406 
L 629.006182 -8.769347 
L 632.48941 -10.668715 
L 635.972637 -19.809863 
L 639.455865 1.0073 
L 642.939092 -13.687172 
L 646.42232 -20.110318 
L 649.905547 -9.754749 
L 653.388775 -4.63005 
L 656.872002 -8.628374 
L 660.35523 -2.90603 
L 663.838457 -0.843073 
L 667.321685 14.183279 
L 670.804912 -3.957169 
L 674.28814 -14.497743 
L 677.771367 -18.151395 
L 681.254595 -19.060331 
L 684.737822 7.860174 
L 688.22105 0.593886 
L 691.704277 16.3752 
L 695.187505 32.647732 
L 698.670732 12.147741 
L 702.15396 -14.574813 
L 705.637188 -19.661745 
L 705.637188 -172.698335 
L 705.637188 -172.698335 
L 702.15396 -202.345766 
L 698.670732 -254.030722 
L 695.187505 -279.653042 
L 691.704277 -261.12494 
L 688.22105 -240.005459 
L 684.737822 -248.477378 
L 681.254595 -212.328654 
L 677.771367 -218.621485 
L 674.28814 -236.645202 
L 670.804912 -258.456082 
L 667.321685 -293.411581 
L 663.838457 -253.960376 
L 660.35523 -237.528472 
L 656.872002 -216.032139 
L 653.388775 -221.221434 
L 649.905547 -204.964044 
L 646.42232 -188.017809 
L 642.939092 -203.113863 
L 639.455865 -233.623364 
L 635.972637 -196.045023 
L 632.48941 -210.9394 
L 629.006182 -213.343019 
L 625.522955 -230.298506 
L 622.039727 -227.913815 
L 618.5565 -229.159409 
L 615.073272 -221.9509 
L 611.590045 -236.729154 
L 608.106817 -245.810988 
L 604.62359 -230.855652 
L 601.140362 -215.794811 
L 597.657135 -196.454682 
L 594.173907 -211.871347 
L 590.69068 -214.650056 
L 587.207452 -215.410039 
L 583.724225 -191.046139 
L 580.240997 -182.616413 
L 576.75777 -174.39272 
L 573.274542 -187.540579 
L 569.791314 -188.778547 
L 566.308087 -194.55442 
L 562.824859 -184.155198 
L 559.341632 -193.248179 
L 555.858404 -193.552707 
L 552.375177 -200.360195 
L 548.891949 -185.933426 
L 545.408722 -176.48863 
L 541.925494 -198.771899 
L 538.442267 -199.246953 
L 534.959039 -193.4353 
L 531.475812 -200.912635 
L 527.992584 -216.113126 
L 524.509357 -227.022997 
L 521.026129 -229.207551 
L 517.542902 -224.52346 
L 514.059674 -227.544814 
L 510.576447 -226.243089 
L 507.093219 -214.39108 
L 503.609992 -209.481401 
L 500.126764 -197.552649 
L 496.643537 -188.574063 
L 493.160309 -194.080832 
L 489.677082 -245.531824 
L 486.193854 -248.348377 
L 482.710627 -226.510484 
L 479.227399 -243.850532 
L 475.744172 -262.096913 
L 472.260944 -237.905884 
L 468.777717 -210.977023 
L 465.294489 -219.110171 
L 461.811262 -188.114207 
L 458.328034 -179.872847 
L 454.844807 -219.349851 
L 451.361579 -195.659329 
L 447.878352 -172.275036 
L 444.395124 -176.024858 
L 440.911896 -191.369801 
L 437.428669 -190.568642 
L 433.945441 -189.73597 
L 430.462214 -177.394038 
L 426.978986 -184.888005 
L 423.495759 -218.479027 
L 420.012531 -203.859445 
L 416.529304 -186.678849 
L 413.046076 -199.081018 
L 409.562849 -182.570953 
L 406.079621 -172.105817 
L 402.596394 -191.51253 
L 399.113166 -212.737988 
L 395.629939 -189.165559 
L 392.146711 -196.629243 
L 388.663484 -188.129589 
L 385.180256 -185.785304 
L 381.697029 -175.533745 
L 378.213801 -198.462336 
L 374.730574 -205.20019 
L 371.247346 -213.764993 
L 367.764119 -219.686113 
L 364.280891 -212.90384 
L 360.797664 -219.04327 
L 357.314436 -205.709535 
L 353.831209 -198.651342 
L 350.347981 -191.23914 
L 346.864754 -193.981966 
L 343.381526 -197.739268 
L 339.898299 -171.394871 
L 336.415071 -201.842744 
L 332.931844 -205.814981 
L 329.448616 -196.91079 
L 325.965389 -188.538558 
L 322.482161 -183.078238 
L 318.998934 -204.671344 
L 315.515706 -215.107322 
L 312.032479 -188.921549 
L 308.549251 -198.744681 
L 305.066023 -206.709931 
L 301.582796 -193.590461 
L 298.099568 -199.056868 
L 294.616341 -217.211839 
L 291.133113 -220.808056 
L 287.649886 -231.375713 
L 284.166658 -225.928145 
L 280.683431 -259.391261 
L 277.200203 -271.756829 
L 273.716976 -240.763626 
L 270.233748 -224.342184 
L 266.750521 -220.073888 
L 263.267293 -192.60523 
L 259.784066 -207.337616 
L 256.300838 -214.187975 
L 252.817611 -183.452509 
L 249.334383 -190.694416 
L 245.851156 -172.609541 
L 242.367928 -191.139056 
L 238.884701 -218.760054 
L 235.401473 -202.762743 
L 231.918246 -185.122475 
L 228.435018 -217.99373 
L 224.951791 -184.835414 
L 221.468563 -199.796325 
L 217.985336 -182.075934 
L 214.502108 -182.350639 
L 211.018881 -180.89067 
L 207.535653 -214.378293 
L 204.052426 -184.495469 
L 200.569198 -206.055136 
L 197.085971 -205.607096 
L 193.602743 -197.549269 
L 190.119516 -188.759535 
L 186.636288 -173.787499 
L 183.153061 -169.840222 
L 179.669833 -169.02721 
L 176.186605 -164.020905 
L 172.703378 -175.781923 
L 169.22015 -176.745794 
L 165.736923 -165.632011 
L 162.253695 -167.038235 
L 158.770468 -175.812348 
L 155.28724 -193.968327 
L 151.804013 -220.371993 
L 148.320785 -223.545077 
L 144.837558 -191.45381 
L 141.35433 -180.560122 
L 137.871103 -164.067561 
L 134.387875 -167.270012 
L 130.904648 -162.521735 
L 127.42142 -166.598784 
L 123.938193 -158.587334 
L 120.454965 -180.838912 
L 116.971738 -194.816992 
L 113.48851 -160.820154 
L 110.005283 -146.926631 
L 106.522055 -140.387768 
L 103.038828 -147.532586 
L 99.5556 -159.882004 
L 96.072373 -162.12237 
L 92.589145 -159.320377 
L 89.105918 -147.72886 
L 85.62269 -123.621499 
L 82.139463 -145.620047 
L 78.656235 -147.973796 
L 75.173008 -143.796616 
L 71.68978 -139.419341 
L 68.206553 -134.530211 
L 64.723325 -153.187805 
L 61.240098 -209.002824 
L 57.75687 -227.082882 
L 54.273643 -242.664261 
L 50.790415 -180.302683 
L 47.307188 -102.110668 
z
" style="stroke: #d3d3d3; stroke-opacity: 0.5"/>
    </defs>
    <g clip-path="url(#pf771b22011)">
     <use xlink:href="#m75e09ac725" x="0" y="424.5775" style="fill: #d3d3d3; fill-opacity: 0.5; stroke: #d3d3d3; stroke-opacity: 0.5"/>
    </g>
   </g>
   <g id="FillBetweenPolyCollection_2">
    <defs>
     <path id="m89d38a7dd2" d="M 47.307188 -84.764195 
L 47.307188 -50.071248 
L 50.790415 -42.212123 
L 54.273643 -38.901166 
L 57.75687 -42.374477 
L 61.240098 -41.14272 
L 64.723325 -51.440218 
L 68.206553 -52.919652 
L 71.68978 -49.424746 
L 75.173008 -49.327455 
L 78.656235 -47.878445 
L 82.139463 -46.377313 
L 85.62269 -50.123624 
L 89.105918 -45.677452 
L 92.589145 -44.092971 
L 96.072373 -42.516479 
L 99.5556 -41.477251 
L 103.038828 -43.848639 
L 106.522055 -45.63439 
L 110.005283 -43.86161 
L 113.48851 -37.88302 
L 116.971738 -26.451631 
L 120.454965 -35.228687 
L 123.938193 -43.056918 
L 127.42142 -40.214543 
L 130.904648 -41.503773 
L 134.387875 -40.122633 
L 137.871103 -40.858132 
L 141.35433 -34.920095 
L 144.837558 -37.856817 
L 148.320785 -44.364685 
L 151.804013 -46.139757 
L 155.28724 -42.241561 
L 158.770468 -45.98348 
L 162.253695 -46.902772 
L 165.736923 -48.176099 
L 169.22015 -44.156322 
L 172.703378 -44.886443 
L 176.186605 -50.111995 
L 179.669833 -50.122019 
L 183.153061 -50.774583 
L 186.636288 -49.35032 
L 190.119516 -43.422256 
L 193.602743 -44.054927 
L 197.085971 -44.493106 
L 200.569198 -44.108504 
L 204.052426 -47.541558 
L 207.535653 -41.256145 
L 211.018881 -50.765867 
L 214.502108 -49.620844 
L 217.985336 -50.977819 
L 221.468563 -43.403288 
L 224.951791 -45.851118 
L 228.435018 -39.315996 
L 231.918246 -49.392726 
L 235.401473 -46.602927 
L 238.884701 -42.891967 
L 242.367928 -48.441851 
L 245.851156 -49.11038 
L 249.334383 -42.449989 
L 252.817611 -44.39313 
L 256.300838 -36.738023 
L 259.784066 -38.674008 
L 263.267293 -46.832878 
L 266.750521 -41.483328 
L 270.233748 -42.671103 
L 273.716976 -46.372696 
L 277.200203 -39.58776 
L 280.683431 -46.109106 
L 284.166658 -52.121722 
L 287.649886 -52.512469 
L 291.133113 -52.120981 
L 294.616341 -51.273653 
L 298.099568 -52.34467 
L 301.582796 -47.179408 
L 305.066023 -42.696298 
L 308.549251 -47.479026 
L 312.032479 -48.691777 
L 315.515706 -45.94111 
L 318.998934 -44.709051 
L 322.482161 -48.997892 
L 325.965389 -48.053144 
L 329.448616 -46.383332 
L 332.931844 -43.567256 
L 336.415071 -44.764501 
L 339.898299 -52.256292 
L 343.381526 -49.148118 
L 346.864754 -47.749419 
L 350.347981 -49.517887 
L 353.831209 -48.392584 
L 357.314436 -48.062898 
L 360.797664 -43.624444 
L 364.280891 -46.587176 
L 367.764119 -49.960042 
L 371.247346 -54.856822 
L 374.730574 -57.897583 
L 378.213801 -58.683028 
L 381.697029 -60.090298 
L 385.180256 -57.782462 
L 388.663484 -57.778842 
L 392.146711 -54.703073 
L 395.629939 -56.608374 
L 399.113166 -60.029141 
L 402.596394 -60.516685 
L 406.079621 -63.057215 
L 409.562849 -57.625772 
L 413.046076 -52.282264 
L 416.529304 -51.118094 
L 420.012531 -53.942406 
L 423.495759 -49.25525 
L 426.978986 -55.225974 
L 430.462214 -55.341226 
L 433.945441 -59.614825 
L 437.428669 -54.491573 
L 440.911896 -56.224371 
L 444.395124 -60.131835 
L 447.878352 -59.357524 
L 451.361579 -52.253528 
L 454.844807 -49.333426 
L 458.328034 -55.325966 
L 461.811262 -56.330873 
L 465.294489 -57.294839 
L 468.777717 -59.081573 
L 472.260944 -50.623944 
L 475.744172 -41.799577 
L 479.227399 -49.26978 
L 482.710627 -57.718872 
L 486.193854 -53.319918 
L 489.677082 -55.676849 
L 493.160309 -58.770323 
L 496.643537 -56.425969 
L 500.126764 -56.448076 
L 503.609992 -54.597836 
L 507.093219 -51.104939 
L 510.576447 -47.843184 
L 514.059674 -48.059277 
L 517.542902 -49.654522 
L 521.026129 -51.790899 
L 524.509357 -50.09008 
L 527.992584 -49.183633 
L 531.475812 -52.238576 
L 534.959039 -53.039375 
L 538.442267 -50.45607 
L 541.925494 -49.853926 
L 545.408722 -52.788588 
L 548.891949 -49.279483 
L 552.375177 -45.790515 
L 555.858404 -46.862041 
L 559.341632 -48.694255 
L 562.824859 -48.680847 
L 566.308087 -50.499685 
L 569.791314 -50.372267 
L 573.274542 -50.054467 
L 576.75777 -56.355122 
L 580.240997 -59.00967 
L 583.724225 -60.404554 
L 587.207452 -54.270367 
L 590.69068 -59.903624 
L 594.173907 -55.900837 
L 597.657135 -57.139548 
L 601.140362 -55.235579 
L 604.62359 -54.544152 
L 608.106817 -53.732498 
L 611.590045 -45.519782 
L 615.073272 -55.479804 
L 618.5565 -53.848367 
L 622.039727 -49.761147 
L 625.522955 -59.639681 
L 629.006182 -59.912765 
L 632.48941 -60.736386 
L 635.972637 -63.868653 
L 639.455865 -57.650366 
L 642.939092 -61.043845 
L 646.42232 -62.087191 
L 649.905547 -58.557072 
L 653.388775 -58.777896 
L 656.872002 -60.479316 
L 660.35523 -61.56164 
L 663.838457 -64.122399 
L 667.321685 -62.715436 
L 670.804912 -67.581897 
L 674.28814 -70.034608 
L 677.771367 -68.268918 
L 681.254595 -67.377412 
L 684.737822 -56.224214 
L 688.22105 -59.555951 
L 691.704277 -52.999835 
L 695.187505 -45.427461 
L 698.670732 -54.396875 
L 702.15396 -61.517551 
L 705.637188 -57.920893 
L 705.637188 -134.439188 
L 705.637188 -134.439188 
L 702.15396 -155.403028 
L 698.670732 -187.486107 
L 695.187505 -201.577849 
L 691.704277 -191.749905 
L 688.22105 -179.855623 
L 684.737822 -184.39299 
L 681.254595 -164.011573 
L 677.771367 -168.503962 
L 674.28814 -181.108337 
L 670.804912 -194.831353 
L 667.321685 -216.512866 
L 663.838457 -190.681051 
L 660.35523 -178.872862 
L 656.872002 -164.181198 
L 653.388775 -167.073588 
L 649.905547 -156.16172 
L 646.42232 -146.040937 
L 642.939092 -155.75719 
L 639.455865 -174.965698 
L 635.972637 -151.986233 
L 632.48941 -160.871729 
L 629.006182 -162.199601 
L 625.522955 -173.412231 
L 622.039727 -168.529593 
L 618.5565 -170.722395 
L 615.073272 -166.460535 
L 611.590045 -172.992697 
L 608.106817 -181.784825 
L 604.62359 -172.085152 
L 601.140362 -162.275067 
L 597.657135 -150.016304 
L 594.173907 -159.881177 
L 590.69068 -163.067912 
L 587.207452 -161.696815 
L 583.724225 -147.498944 
L 580.240997 -141.414165 
L 576.75777 -135.046854 
L 573.274542 -141.711875 
L 569.791314 -142.64312 
L 566.308087 -146.536175 
L 562.824859 -138.997081 
L 559.341632 -145.063538 
L 555.858404 -144.655818 
L 552.375177 -148.836969 
L 548.891949 -140.382112 
L 545.408722 -135.255283 
L 541.925494 -149.132575 
L 538.442267 -149.649992 
L 534.959039 -146.636659 
L 531.475812 -151.354616 
L 527.992584 -160.469962 
L 524.509357 -168.045358 
L 521.026129 -170.068667 
L 517.542902 -166.233814 
L 514.059674 -167.716302 
L 510.576447 -166.776454 
L 507.093219 -159.962366 
L 503.609992 -157.853546 
L 500.126764 -150.517791 
L 496.643537 -144.524698 
L 493.160309 -148.977329 
L 489.677082 -182.246832 
L 486.193854 -183.33889 
L 482.710627 -170.246614 
L 479.227399 -178.990281 
L 475.744172 -188.664468 
L 472.260944 -175.478571 
L 468.777717 -160.345206 
L 465.294489 -165.171727 
L 461.811262 -144.186429 
L 458.328034 -138.35722 
L 454.844807 -162.677709 
L 451.361579 -147.857396 
L 447.878352 -134.635865 
L 444.395124 -137.39385 
L 440.911896 -146.321324 
L 437.428669 -145.209619 
L 433.945441 -146.362255 
L 430.462214 -136.709768 
L 426.978986 -141.667328 
L 423.495759 -162.071101 
L 420.012531 -153.887099 
L 416.529304 -141.491931 
L 413.046076 -150.1481 
L 409.562849 -140.922559 
L 406.079621 -135.756283 
L 402.596394 -147.847248 
L 399.113166 -161.835039 
L 395.629939 -144.97983 
L 392.146711 -149.32052 
L 388.663484 -144.67934 
L 385.180256 -143.11769 
L 381.697029 -137.052596 
L 378.213801 -151.869233 
L 374.730574 -156.099321 
L 371.247346 -160.795603 
L 367.764119 -163.110756 
L 364.280891 -157.464952 
L 360.797664 -160.570328 
L 357.314436 -153.160656 
L 353.831209 -148.565089 
L 350.347981 -143.998722 
L 346.864754 -145.237784 
L 343.381526 -148.208885 
L 339.898299 -131.682012 
L 336.415071 -149.483329 
L 332.931844 -151.732406 
L 329.448616 -146.734971 
L 325.965389 -141.710087 
L 322.482161 -138.38479 
L 318.998934 -151.35058 
L 315.515706 -158.718585 
L 312.032479 -142.178292 
L 308.549251 -148.322796 
L 305.066023 -152.03872 
L 301.582796 -144.786777 
L 298.099568 -150.152802 
L 294.616341 -161.899111 
L 291.133113 -164.579031 
L 287.649886 -171.754632 
L 284.166658 -167.992671 
L 280.683431 -188.29721 
L 277.200203 -194.367139 
L 273.716976 -175.966649 
L 270.233748 -163.785157 
L 266.750521 -160.543702 
L 263.267293 -144.014446 
L 259.784066 -151.116414 
L 256.300838 -155.037991 
L 252.817611 -137.099383 
L 249.334383 -141.279607 
L 245.851156 -131.443154 
L 242.367928 -143.573321 
L 238.884701 -160.137358 
L 235.401473 -150.709471 
L 231.918246 -139.879226 
L 228.435018 -158.434485 
L 224.951791 -138.507316 
L 221.468563 -147.665312 
L 217.985336 -138.376562 
L 214.502108 -138.107374 
L 211.018881 -137.515736 
L 207.535653 -156.67091 
L 204.052426 -138.844165 
L 200.569198 -152.072925 
L 197.085971 -151.902432 
L 193.602743 -146.384488 
L 190.119516 -140.313775 
L 186.636288 -132.308439 
L 183.153061 -130.151675 
L 179.669833 -129.392146 
L 176.186605 -126.051268 
L 172.703378 -132.150096 
L 169.22015 -132.549304 
L 165.736923 -126.48004 
L 162.253695 -126.993081 
L 158.770468 -132.536059 
L 155.28724 -143.392739 
L 151.804013 -162.294581 
L 148.320785 -163.81828 
L 144.837558 -140.254813 
L 141.35433 -132.013447 
L 137.871103 -122.997751 
L 134.387875 -124.887553 
L 130.904648 -122.182415 
L 127.42142 -124.470704 
L 123.938193 -120.077195 
L 120.454965 -132.30217 
L 116.971738 -138.695205 
L 113.48851 -119.84111 
L 110.005283 -112.571624 
L 106.522055 -108.803309 
L 103.038828 -112.971271 
L 99.5556 -120.413753 
L 96.072373 -122.25374 
L 92.589145 -120.911242 
L 89.105918 -113.711724 
L 85.62269 -99.122208 
L 82.139463 -112.539136 
L 78.656235 -114.608679 
L 75.173008 -112.306895 
L 71.68978 -109.421143 
L 68.206553 -107.326691 
L 64.723325 -119.271943 
L 61.240098 -153.049456 
L 57.75687 -165.513414 
L 54.273643 -174.743229 
L 50.790415 -134.272496 
L 47.307188 -84.764195 
z
" style="stroke: #808080; stroke-opacity: 0.7"/>
    </defs>
    <g clip-path="url(#pf771b22011)">
     <use xlink:href="#m89d38a7dd2" x="0" y="424.5775" style="fill: #808080; fill-opacity: 0.7; stroke: #808080; stroke-opacity: 0.7"/>
    </g>
   </g>
   <g id="line2d_31">
    <path d="M 47.307188 343.479003 
L 50.790415 344.539606 
L 54.273643 338.769314 
L 57.75687 327.972168 
L 61.240098 355.167377 
L 64.723325 354.304571 
L 68.206553 354.710849 
L 71.68978 361.504278 
L 75.173008 361.114309 
L 78.656235 357.303431 
L 82.139463 354.278319 
L 85.62269 356.019526 
L 89.105918 358.773377 
L 92.589145 358.85122 
L 96.072373 356.279071 
L 99.5556 361.04174 
L 103.038828 357.070479 
L 106.522055 363.218096 
L 110.005283 363.119811 
L 113.48851 358.663846 
L 116.971738 362.416174 
L 120.454965 365.688469 
L 123.938193 364.04044 
L 127.42142 365.254115 
L 130.904648 366.225103 
L 134.387875 363.770907 
L 137.871103 361.511992 
L 141.35433 365.475759 
L 144.837558 366.70898 
L 148.320785 365.712877 
L 151.804013 362.34606 
L 155.28724 367.285997 
L 158.770468 366.350216 
L 162.253695 350.982554 
L 165.736923 345.649541 
L 169.22015 360.570971 
L 172.703378 367.741449 
L 179.669833 367.741449 
L 183.153061 367.037983 
L 186.636288 364.391363 
L 190.119516 366.82351 
L 193.602743 360.812649 
L 197.085971 359.818429 
L 200.569198 361.60783 
L 204.052426 354.914049 
L 207.535653 348.923967 
L 211.018881 335.462112 
L 214.502108 270.682632 
L 217.985336 342.579691 
L 221.468563 366.236694 
L 224.951791 366.717477 
L 228.435018 366.234587 
L 231.918246 366.04282 
L 235.401473 364.217113 
L 238.884701 358.077907 
L 245.851156 361.994489 
L 249.334383 360.747835 
L 252.817611 359.945094 
L 256.300838 339.830651 
L 259.784066 357.656364 
L 263.267293 362.728189 
L 266.750521 366.535347 
L 270.233748 367.633849 
L 273.716976 367.625148 
L 277.200203 367.43431 
L 280.683431 335.435338 
L 284.166658 334.709587 
L 287.649886 336.345844 
L 291.133113 345.373266 
L 294.616341 343.817277 
L 298.099568 332.901037 
L 301.582796 326.437122 
L 305.066023 334.921237 
L 308.549251 320.619875 
L 312.032479 326.33806 
L 315.515706 303.561775 
L 318.998934 291.806646 
L 322.482161 310.521812 
L 325.965389 312.81867 
L 329.448616 329.15707 
L 332.931844 331.259472 
L 336.415071 329.78989 
L 339.898299 339.097815 
L 343.381526 334.414124 
L 346.864754 336.137966 
L 350.347981 333.46608 
L 353.831209 337.633796 
L 357.314436 321.64638 
L 360.797664 247.603756 
L 364.280891 303.947784 
L 367.764119 321.121734 
L 371.247346 307.05159 
L 374.730574 316.823247 
L 378.213801 325.156494 
L 381.697029 332.682726 
L 385.180256 348.458591 
L 388.663484 309.668305 
L 392.146711 332.74293 
L 395.629939 325.584318 
L 399.113166 334.065855 
L 402.596394 319.225369 
L 406.079621 306.293818 
L 409.562849 327.120165 
L 413.046076 318.249363 
L 416.529304 336.365666 
L 420.012531 311.808365 
L 423.495759 299.825658 
L 426.978986 326.197736 
L 430.462214 305.776097 
L 433.945441 275.943149 
L 437.428669 314.234995 
L 440.911896 327.928679 
L 444.395124 367.43023 
L 447.878352 337.85797 
L 451.361579 325.782512 
L 454.844807 295.497228 
L 458.328034 337.895887 
L 461.811262 332.036357 
L 465.294489 338.785304 
L 468.777717 286.290338 
L 472.260944 259.940109 
L 475.744172 242.994247 
L 479.227399 248.323768 
L 482.710627 260.398364 
L 486.193854 246.445794 
L 489.677082 289.927654 
L 493.160309 287.447223 
L 496.643537 288.783505 
L 500.126764 283.079865 
L 503.609992 303.56568 
L 507.093219 276.7274 
L 510.576447 267.272968 
L 514.059674 286.975656 
L 517.542902 288.480722 
L 521.026129 255.422228 
L 524.509357 254.915162 
L 527.992584 231.116968 
L 531.475812 216.813316 
L 534.959039 254.125727 
L 538.442267 275.208341 
L 541.925494 302.853446 
L 545.408722 269.310459 
L 548.891949 288.274786 
L 552.375177 289.369356 
L 555.858404 296.674129 
L 559.341632 286.2154 
L 562.824859 274.439785 
L 566.308087 290.774581 
L 569.791314 302.899356 
L 573.274542 309.187425 
L 576.75777 316.572535 
L 580.240997 307.650287 
L 583.724225 322.557811 
L 587.207452 334.34176 
L 590.69068 341.720477 
L 594.173907 320.437455 
L 597.657135 301.061648 
L 601.140362 293.619385 
L 604.62359 303.312371 
L 608.106817 325.534554 
L 611.590045 291.549389 
L 615.073272 330.060206 
L 618.5565 298.309727 
L 622.039727 343.869614 
L 625.522955 300.532906 
L 629.006182 289.23005 
L 632.48941 271.611518 
L 635.972637 286.618531 
L 639.455865 323.390965 
L 642.939092 293.576422 
L 646.42232 335.022628 
L 649.905547 344.866758 
L 653.388775 306.192416 
L 656.872002 270.554079 
L 660.35523 292.380239 
L 663.838457 314.953568 
L 667.321685 298.298972 
L 670.804912 294.09117 
L 674.28814 287.066342 
L 677.771367 253.553557 
L 681.254595 288.610681 
L 684.737822 276.755547 
L 688.22105 294.576676 
L 691.704277 283.161801 
L 695.187505 297.108388 
L 698.670732 311.623985 
L 702.15396 313.105652 
L 705.637188 281.974201 
L 705.637188 281.974201 
" clip-path="url(#pf771b22011)" style="fill: none; stroke: #ff8c00; stroke-width: 2.3; stroke-linecap: square"/>
   </g>
   <g id="line2d_32">
    <path d="M 284.166658 384.117812 
L 284.166658 23.837812 
" clip-path="url(#pf771b22011)" style="fill: none; stroke-dasharray: 5.55,2.4; stroke-dashoffset: 0; stroke: #808080; stroke-width: 1.5"/>
   </g>
   <g id="line2d_33">
    <path d="M 486.193854 384.117812 
L 486.193854 23.837812 
" clip-path="url(#pf771b22011)" style="fill: none; stroke-dasharray: 5.55,2.4; stroke-dashoffset: 0; stroke: #808080; stroke-width: 1.5"/>
   </g>
   <g id="patch_3">
    <path d="M 47.307188 384.117812 
L 47.307188 23.837812 
" style="fill: none; stroke: #000000; stroke-width: 0.8; stroke-linejoin: miter; stroke-linecap: square"/>
   </g>
   <g id="patch_4">
    <path d="M 705.637188 384.117812 
L 705.637188 23.837812 
" style="fill: none; stroke: #000000; stroke-width: 0.8; stroke-linejoin: miter; stroke-linecap: square"/>
   </g>
   <g id="patch_5">
    <path d="M 47.307188 384.117812 
L 705.637188 384.117812 
" style="fill: none; stroke: #000000; stroke-width: 0.8; stroke-linejoin: miter; stroke-linecap: square"/>
   </g>
   <g id="patch_6">
    <path d="M 47.307188 23.837812 
L 705.637188 23.837812 
" style="fill: none; stroke: #000000; stroke-width: 0.8; stroke-linejoin: miter; stroke-linecap: square"/>
   </g>
   <g id="text_18">
    <!-- Facial trace: Depressive disorder (MDD/DD) -->
    <g transform="translate(224.463906 17.837812) scale(0.14 -0.14)">
     <defs>
      <path id="DejaVuSans-46" d="M 628 4666 
L 3309 4666 
L 3309 4134 
L 1259 4134 
L 1259 2759 
L 3109 2759 
L 3109 2228 
L 1259 2228 
L 1259 0 
L 628 0 
L 628 4666 
z
" transform="scale(0.015625)"/>
      <path id="DejaVuSans-63" d="M 3122 3366 
L 3122 2828 
Q 2878 2963 2633 3030 
Q 2388 3097 2138 3097 
Q 1578 3097 1268 2742 
Q 959 2388 959 1747 
Q 959 1106 1268 751 
Q 1578 397 2138 397 
Q 2388 397 2633 464 
Q 2878 531 3122 666 
L 3122 134 
Q 2881 22 2623 -34 
Q 2366 -91 2075 -91 
Q 1284 -91 818 406 
Q 353 903 353 1747 
Q 353 2603 823 3093 
Q 1294 3584 2113 3584 
Q 2378 3584 2631 3529 
Q 2884 3475 3122 3366 
z
" transform="scale(0.015625)"/>
      <path id="DejaVuSans-6c" d="M 603 4863 
L 1178 4863 
L 1178 0 
L 603 0 
L 603 4863 
z
" transform="scale(0.015625)"/>
      <path id="DejaVuSans-72" d="M 2631 2963 
Q 2534 3019 2420 3045 
Q 2306 3072 2169 3072 
Q 1681 3072 1420 2755 
Q 1159 2438 1159 1844 
L 1159 0 
L 581 0 
L 581 3500 
L 1159 3500 
L 1159 2956 
Q 1341 3275 1631 3429 
Q 1922 3584 2338 3584 
Q 2397 3584 2469 3576 
Q 2541 3569 2628 3553 
L 2631 2963 
z
" transform="scale(0.015625)"/>
      <path id="DejaVuSans-3a" d="M 750 794 
L 1409 794 
L 1409 0 
L 750 0 
L 750 794 
z
M 750 3309 
L 1409 3309 
L 1409 2516 
L 750 2516 
L 750 3309 
z
" transform="scale(0.015625)"/>
      <path id="DejaVuSans-44" d="M 1259 4147 
L 1259 519 
L 2022 519 
Q 2988 519 3436 956 
Q 3884 1394 3884 2338 
Q 3884 3275 3436 3711 
Q 2988 4147 2022 4147 
L 1259 4147 
z
M 628 4666 
L 1925 4666 
Q 3281 4666 3915 4102 
Q 4550 3538 4550 2338 
Q 4550 1131 3912 565 
Q 3275 0 1925 0 
L 628 0 
L 628 4666 
z
" transform="scale(0.015625)"/>
      <path id="DejaVuSans-70" d="M 1159 525 
L 1159 -1331 
L 581 -1331 
L 581 3500 
L 1159 3500 
L 1159 2969 
Q 1341 3281 1617 3432 
Q 1894 3584 2278 3584 
Q 2916 3584 3314 3078 
Q 3713 2572 3713 1747 
Q 3713 922 3314 415 
Q 2916 -91 2278 -91 
Q 1894 -91 1617 61 
Q 1341 213 1159 525 
z
M 3116 1747 
Q 3116 2381 2855 2742 
Q 2594 3103 2138 3103 
Q 1681 3103 1420 2742 
Q 1159 2381 1159 1747 
Q 1159 1113 1420 752 
Q 1681 391 2138 391 
Q 2594 391 2855 752 
Q 3116 1113 3116 1747 
z
" transform="scale(0.015625)"/>
      <path id="DejaVuSans-76" d="M 191 3500 
L 800 3500 
L 1894 563 
L 2988 3500 
L 3597 3500 
L 2284 0 
L 1503 0 
L 191 3500 
z
" transform="scale(0.015625)"/>
      <path id="DejaVuSans-64" d="M 2906 2969 
L 2906 4863 
L 3481 4863 
L 3481 0 
L 2906 0 
L 2906 525 
Q 2725 213 2448 61 
Q 2172 -91 1784 -91 
Q 1150 -91 751 415 
Q 353 922 353 1747 
Q 353 2572 751 3078 
Q 1150 3584 1784 3584 
Q 2172 3584 2448 3432 
Q 2725 3281 2906 2969 
z
M 947 1747 
Q 947 1113 1208 752 
Q 1469 391 1925 391 
Q 2381 391 2643 752 
Q 2906 1113 2906 1747 
Q 2906 2381 2643 2742 
Q 2381 3103 1925 3103 
Q 1469 3103 1208 2742 
Q 947 2381 947 1747 
z
" transform="scale(0.015625)"/>
      <path id="DejaVuSans-6f" d="M 1959 3097 
Q 1497 3097 1228 2736 
Q 959 2375 959 1747 
Q 959 1119 1226 758 
Q 1494 397 1959 397 
Q 2419 397 2687 759 
Q 2956 1122 2956 1747 
Q 2956 2369 2687 2733 
Q 2419 3097 1959 3097 
z
M 1959 3584 
Q 2709 3584 3137 3096 
Q 3566 2609 3566 1747 
Q 3566 888 3137 398 
Q 2709 -91 1959 -91 
Q 1206 -91 779 398 
Q 353 888 353 1747 
Q 353 2609 779 3096 
Q 1206 3584 1959 3584 
z
" transform="scale(0.015625)"/>
      <path id="DejaVuSans-4d" d="M 628 4666 
L 1569 4666 
L 2759 1491 
L 3956 4666 
L 4897 4666 
L 4897 0 
L 4281 0 
L 4281 4097 
L 3078 897 
L 2444 897 
L 1241 4097 
L 1241 0 
L 628 0 
L 628 4666 
z
" transform="scale(0.015625)"/>
      <path id="DejaVuSans-2f" d="M 1625 4666 
L 2156 4666 
L 531 -594 
L 0 -594 
L 1625 4666 
z
" transform="scale(0.015625)"/>
     </defs>
     <use xlink:href="#DejaVuSans-46"/>
     <use xlink:href="#DejaVuSans-61" transform="translate(48.394531 0)"/>
     <use xlink:href="#DejaVuSans-63" transform="translate(109.673828 0)"/>
     <use xlink:href="#DejaVuSans-69" transform="translate(164.654297 0)"/>
     <use xlink:href="#DejaVuSans-61" transform="translate(192.4375 0)"/>
     <use xlink:href="#DejaVuSans-6c" transform="translate(253.716797 0)"/>
     <use xlink:href="#DejaVuSans-20" transform="translate(281.5 0)"/>
     <use xlink:href="#DejaVuSans-74" transform="translate(313.287109 0)"/>
     <use xlink:href="#DejaVuSans-72" transform="translate(352.496094 0)"/>
     <use xlink:href="#DejaVuSans-61" transform="translate(393.609375 0)"/>
     <use xlink:href="#DejaVuSans-63" transform="translate(454.888672 0)"/>
     <use xlink:href="#DejaVuSans-65" transform="translate(509.869141 0)"/>
     <use xlink:href="#DejaVuSans-3a" transform="translate(571.392578 0)"/>
     <use xlink:href="#DejaVuSans-20" transform="translate(605.083984 0)"/>
     <use xlink:href="#DejaVuSans-44" transform="translate(636.871094 0)"/>
     <use xlink:href="#DejaVuSans-65" transform="translate(713.873047 0)"/>
     <use xlink:href="#DejaVuSans-70" transform="translate(775.396484 0)"/>
     <use xlink:href="#DejaVuSans-72" transform="translate(838.873047 0)"/>
     <use xlink:href="#DejaVuSans-65" transform="translate(877.736328 0)"/>
     <use xlink:href="#DejaVuSans-73" transform="translate(939.259766 0)"/>
     <use xlink:href="#DejaVuSans-73" transform="translate(991.359375 0)"/>
     <use xlink:href="#DejaVuSans-69" transform="translate(1043.458984 0)"/>
     <use xlink:href="#DejaVuSans-76" transform="translate(1071.242188 0)"/>
     <use xlink:href="#DejaVuSans-65" transform="translate(1130.421875 0)"/>
     <use xlink:href="#DejaVuSans-20" transform="translate(1191.945312 0)"/>
     <use xlink:href="#DejaVuSans-64" transform="translate(1223.732422 0)"/>
     <use xlink:href="#DejaVuSans-69" transform="translate(1287.208984 0)"/>
     <use xlink:href="#DejaVuSans-73" transform="translate(1314.992188 0)"/>
     <use xlink:href="#DejaVuSans-6f" transform="translate(1367.091797 0)"/>
     <use xlink:href="#DejaVuSans-72" transform="translate(1428.273438 0)"/>
     <use xlink:href="#DejaVuSans-64" transform="translate(1467.636719 0)"/>
     <use xlink:href="#DejaVuSans-65" transform="translate(1531.113281 0)"/>
     <use xlink:href="#DejaVuSans-72" transform="translate(1592.636719 0)"/>
     <use xlink:href="#DejaVuSans-20" transform="translate(1633.75 0)"/>
     <use xlink:href="#DejaVuSans-28" transform="translate(1665.537109 0)"/>
     <use xlink:href="#DejaVuSans-4d" transform="translate(1704.550781 0)"/>
     <use xlink:href="#DejaVuSans-44" transform="translate(1790.830078 0)"/>
     <use xlink:href="#DejaVuSans-44" transform="translate(1867.832031 0)"/>
     <use xlink:href="#DejaVuSans-2f" transform="translate(1944.833984 0)"/>
     <use xlink:href="#DejaVuSans-44" transform="translate(1978.525391 0)"/>
     <use xlink:href="#DejaVuSans-44" transform="translate(2055.527344 0)"/>
     <use xlink:href="#DejaVuSans-29" transform="translate(2132.529297 0)"/>
    </g>
   </g>
   <g id="legend_1">
    <g id="patch_7">
     <path d="M 457.46 42.096094 
L 479.46 42.096094 
L 479.46 34.396094 
L 457.46 34.396094 
z
" style="fill: #d3d3d3; fill-opacity: 0.5; stroke: #d3d3d3; stroke-opacity: 0.5; stroke-linejoin: miter"/>
    </g>
    <g id="text_19">
     <!-- Depressive disorder (MDD/DD) ±2 SD -->
     <g transform="translate(488.26 42.096094) scale(0.11 -0.11)">
      <defs>
       <path id="DejaVuSans-b1" d="M 2944 4013 
L 2944 2803 
L 4684 2803 
L 4684 2272 
L 2944 2272 
L 2944 1063 
L 2419 1063 
L 2419 2272 
L 678 2272 
L 678 2803 
L 2419 2803 
L 2419 4013 
L 2944 4013 
z
M 678 531 
L 4684 531 
L 4684 0 
L 678 0 
L 678 531 
z
" transform="scale(0.015625)"/>
       <path id="DejaVuSans-53" d="M 3425 4513 
L 3425 3897 
Q 3066 4069 2747 4153 
Q 2428 4238 2131 4238 
Q 1616 4238 1336 4038 
Q 1056 3838 1056 3469 
Q 1056 3159 1242 3001 
Q 1428 2844 1947 2747 
L 2328 2669 
Q 3034 2534 3370 2195 
Q 3706 1856 3706 1288 
Q 3706 609 3251 259 
Q 2797 -91 1919 -91 
Q 1588 -91 1214 -16 
Q 841 59 441 206 
L 441 856 
Q 825 641 1194 531 
Q 1563 422 1919 422 
Q 2459 422 2753 634 
Q 3047 847 3047 1241 
Q 3047 1584 2836 1778 
Q 2625 1972 2144 2069 
L 1759 2144 
Q 1053 2284 737 2584 
Q 422 2884 422 3419 
Q 422 4038 858 4394 
Q 1294 4750 2059 4750 
Q 2388 4750 2728 4690 
Q 3069 4631 3425 4513 
z
" transform="scale(0.015625)"/>
      </defs>
      <use xlink:href="#DejaVuSans-44"/>
      <use xlink:href="#DejaVuSans-65" transform="translate(77.001953 0)"/>
      <use xlink:href="#DejaVuSans-70" transform="translate(138.525391 0)"/>
      <use xlink:href="#DejaVuSans-72" transform="translate(202.001953 0)"/>
      <use xlink:href="#DejaVuSans-65" transform="translate(240.865234 0)"/>
      <use xlink:href="#DejaVuSans-73" transform="translate(302.388672 0)"/>
      <use xlink:href="#DejaVuSans-73" transform="translate(354.488281 0)"/>
      <use xlink:href="#DejaVuSans-69" transform="translate(406.587891 0)"/>
      <use xlink:href="#DejaVuSans-76" transform="translate(434.371094 0)"/>
      <use xlink:href="#DejaVuSans-65" transform="translate(493.550781 0)"/>
      <use xlink:href="#DejaVuSans-20" transform="translate(555.074219 0)"/>
      <use xlink:href="#DejaVuSans-64" transform="translate(586.861328 0)"/>
      <use xlink:href="#DejaVuSans-69" transform="translate(650.337891 0)"/>
      <use xlink:href="#DejaVuSans-73" transform="translate(678.121094 0)"/>
      <use xlink:href="#DejaVuSans-6f" transform="translate(730.220703 0)"/>
      <use xlink:href="#DejaVuSans-72" transform="translate(791.402344 0)"/>
      <use xlink:href="#DejaVuSans-64" transform="translate(830.765625 0)"/>
      <use xlink:href="#DejaVuSans-65" transform="translate(894.242188 0)"/>
      <use xlink:href="#DejaVuSans-72" transform="translate(955.765625 0)"/>
      <use xlink:href="#DejaVuSans-20" transform="translate(996.878906 0)"/>
      <use xlink:href="#DejaVuSans-28" transform="translate(1028.666016 0)"/>
      <use xlink:href="#DejaVuSans-4d" transform="translate(1067.679688 0)"/>
      <use xlink:href="#DejaVuSans-44" transform="translate(1153.958984 0)"/>
      <use xlink:href="#DejaVuSans-44" transform="translate(1230.960938 0)"/>
      <use xlink:href="#DejaVuSans-2f" transform="translate(1307.962891 0)"/>
      <use xlink:href="#DejaVuSans-44" transform="translate(1341.654297 0)"/>
      <use xlink:href="#DejaVuSans-44" transform="translate(1418.65625 0)"/>
      <use xlink:href="#DejaVuSans-29" transform="translate(1495.658203 0)"/>
      <use xlink:href="#DejaVuSans-20" transform="translate(1534.671875 0)"/>
      <use xlink:href="#DejaVuSans-b1" transform="translate(1566.458984 0)"/>
      <use xlink:href="#DejaVuSans-32" transform="translate(1650.248047 0)"/>
      <use xlink:href="#DejaVuSans-20" transform="translate(1713.871094 0)"/>
      <use xlink:href="#DejaVuSans-53" transform="translate(1745.658203 0)"/>
      <use xlink:href="#DejaVuSans-44" transform="translate(1809.134766 0)"/>
     </g>
    </g>
    <g id="patch_8">
     <path d="M 457.46 58.242031 
L 479.46 58.242031 
L 479.46 50.542031 
L 457.46 50.542031 
z
" style="fill: #808080; fill-opacity: 0.7; stroke: #808080; stroke-opacity: 0.7; stroke-linejoin: miter"/>
    </g>
    <g id="text_20">
     <!-- Depressive disorder (MDD/DD) ±1 SD -->
     <g transform="translate(488.26 58.242031) scale(0.11 -0.11)">
      <use xlink:href="#DejaVuSans-44"/>
      <use xlink:href="#DejaVuSans-65" transform="translate(77.001953 0)"/>
      <use xlink:href="#DejaVuSans-70" transform="translate(138.525391 0)"/>
      <use xlink:href="#DejaVuSans-72" transform="translate(202.001953 0)"/>
      <use xlink:href="#DejaVuSans-65" transform="translate(240.865234 0)"/>
      <use xlink:href="#DejaVuSans-73" transform="translate(302.388672 0)"/>
      <use xlink:href="#DejaVuSans-73" transform="translate(354.488281 0)"/>
      <use xlink:href="#DejaVuSans-69" transform="translate(406.587891 0)"/>
      <use xlink:href="#DejaVuSans-76" transform="translate(434.371094 0)"/>
      <use xlink:href="#DejaVuSans-65" transform="translate(493.550781 0)"/>
      <use xlink:href="#DejaVuSans-20" transform="translate(555.074219 0)"/>
      <use xlink:href="#DejaVuSans-64" transform="translate(586.861328 0)"/>
      <use xlink:href="#DejaVuSans-69" transform="translate(650.337891 0)"/>
      <use xlink:href="#DejaVuSans-73" transform="translate(678.121094 0)"/>
      <use xlink:href="#DejaVuSans-6f" transform="translate(730.220703 0)"/>
      <use xlink:href="#DejaVuSans-72" transform="translate(791.402344 0)"/>
      <use xlink:href="#DejaVuSans-64" transform="translate(830.765625 0)"/>
      <use xlink:href="#DejaVuSans-65" transform="translate(894.242188 0)"/>
      <use xlink:href="#DejaVuSans-72" transform="translate(955.765625 0)"/>
      <use xlink:href="#DejaVuSans-20" transform="translate(996.878906 0)"/>
      <use xlink:href="#DejaVuSans-28" transform="translate(1028.666016 0)"/>
      <use xlink:href="#DejaVuSans-4d" transform="translate(1067.679688 0)"/>
      <use xlink:href="#DejaVuSans-44" transform="translate(1153.958984 0)"/>
      <use xlink:href="#DejaVuSans-44" transform="translate(1230.960938 0)"/>
      <use xlink:href="#DejaVuSans-2f" transform="translate(1307.962891 0)"/>
      <use xlink:href="#DejaVuSans-44" transform="translate(1341.654297 0)"/>
      <use xlink:href="#DejaVuSans-44" transform="translate(1418.65625 0)"/>
      <use xlink:href="#DejaVuSans-29" transform="translate(1495.658203 0)"/>
      <use xlink:href="#DejaVuSans-20" transform="translate(1534.671875 0)"/>
      <use xlink:href="#DejaVuSans-b1" transform="translate(1566.458984 0)"/>
      <use xlink:href="#DejaVuSans-31" transform="translate(1650.248047 0)"/>
      <use xlink:href="#DejaVuSans-20" transform="translate(1713.871094 0)"/>
      <use xlink:href="#DejaVuSans-53" transform="translate(1745.658203 0)"/>
      <use xlink:href="#DejaVuSans-44" transform="translate(1809.134766 0)"/>
     </g>
    </g>
    <g id="line2d_34">
     <path d="M 457.46 70.537969 
L 468.46 70.537969 
L 479.46 70.537969 
" style="fill: none; stroke: #ff8c00; stroke-width: 2.3; stroke-linecap: square"/>
    </g>
    <g id="text_21">
     <!-- Patient -->
     <g transform="translate(488.26 74.387969) scale(0.11 -0.11)">
      <defs>
       <path id="DejaVuSans-50" d="M 1259 4147 
L 1259 2394 
L 2053 2394 
Q 2494 2394 2734 2622 
Q 2975 2850 2975 3272 
Q 2975 3691 2734 3919 
Q 2494 4147 2053 4147 
L 1259 4147 
z
M 628 4666 
L 2053 4666 
Q 2838 4666 3239 4311 
Q 3641 3956 3641 3272 
Q 3641 2581 3239 2228 
Q 2838 1875 2053 1875 
L 1259 1875 
L 1259 0 
L 628 0 
L 628 4666 
z
" transform="scale(0.015625)"/>
      </defs>
      <use xlink:href="#DejaVuSans-50"/>
      <use xlink:href="#DejaVuSans-61" transform="translate(55.802734 0)"/>
      <use xlink:href="#DejaVuSans-74" transform="translate(117.082031 0)"/>
      <use xlink:href="#DejaVuSans-69" transform="translate(156.291016 0)"/>
      <use xlink:href="#DejaVuSans-65" transform="translate(184.074219 0)"/>
      <use xlink:href="#DejaVuSans-6e" transform="translate(245.597656 0)"/>
      <use xlink:href="#DejaVuSans-74" transform="translate(308.976562 0)"/>
     </g>
    </g>
   </g>
  </g>
 </g>
 <defs>
  <clipPath id="pf771b22011">
   <rect x="47.307188" y="23.837812" width="658.33" height="360.28"/>
  </clipPath>
 </defs>
</svg>
