<?xml version="1.0" encoding="utf-8" standalone="no"?>
<!DOCTYPE svg PUBLIC "-//W3C//DTD SVG 1.1//EN"
  "http://www.w3.org/Graphics/SVG/1.1/DTD/svg11.dtd">
<svg xmlns:xlink="http://www.w3.org/1999/xlink" width="712.837188pt" height="424.5775pt" viewBox="0 0 712.837188 424.5775" xmlns="http://www.w3.org/2000/svg" version="1.1">
 <metadata>
  <rdf:RDF xmlns:dc="http://purl.org/dc/elements/1.1/" xmlns:cc="http://creativecommons.org/ns#" xmlns:rdf="http://www.w3.org/1999/02/22-rdf-syntax-ns#">
   <cc:Work>
    <dc:type rdf:resource="http://purl.org/dc/dcmitype/StillImage"/>
    <dc:date>2026-06-23T21:44:11.325250</dc:date>
    <dc:format>image/svg+xml</dc:format>
    <dc:creator>
     <cc:Agent>
      <dc:title>Matplotlib v3.10.1, https://matplotlib.org/</dc:title>
     </cc:Agent>
    </dc:creator>
   </cc:Work>
  </rdf:RDF>
 </metadata>
 <defs>
  <style type="text/css">*{stroke-linejoin: round; stroke-linecap: butt}</style>
 </defs>
 <g id="figure_1">
  <g id="patch_1">
   <path d="M 0 424.5775 
L 712.837188 424.5775 
L 712.837188 0 
L 0 0 
z
" style="fill: #ffffff"/>
  </g>
  <g id="axes_1">
   <g id="patch_2">
    <path d="M 47.307188 384.117812 
L 705.637188 384.117812 
L 705.637188 23.837812 
L 47.307188 23.837812 
z
" style="fill: #ffffff"/>
   </g>
   <g id="matplotlib.axis_1">
    <g id="xtick_1">
     <g id="line2d_1">
      <path d="M 47.307188 384.117812 
L 47.307188 23.837812 
" clip-path="url(#p51176b0c92)" style="fill: none; stroke: #b0b0b0; stroke-opacity: 0.2; stroke-width: 0.6; stroke-linecap: square"/>
     </g>
     <g id="line2d_2">
      <defs>
       <path id="mc16c6fefc0" d="M 0 0 
L 0 3.5 
" style="stroke: #000000; stroke-width: 0.8"/>
      </defs>
      <g>
       <use xlink:href="#mc16c6fefc0" x="47.307188" y="384.117812" style="stroke: #000000; stroke-width: 0.8"/>
      </g>
     </g>
     <g id="text_1">
      <!-- 0 -->
      <g transform="translate(43.807813 399.476094) scale(0.11 -0.11)">
       <defs>
        <path id="DejaVuSans-30" d="M 2034 4250 
Q 1547 4250 1301 3770 
Q 1056 3291 1056 2328 
Q 1056 1369 1301 889 
Q 1547 409 2034 409 
Q 2525 409 2770 889 
Q 3016 1369 3016 2328 
Q 3016 3291 2770 3770 
Q 2525 4250 2034 4250 
z
M 2034 4750 
Q 2819 4750 3233 4129 
Q 3647 3509 3647 2328 
Q 3647 1150 3233 529 
Q 2819 -91 2034 -91 
Q 1250 -91 836 529 
Q 422 1150 422 2328 
Q 422 3509 836 4129 
Q 1250 4750 2034 4750 
z
" transform="scale(0.015625)"/>
       </defs>
       <use xlink:href="#DejaVuSans-30"/>
      </g>
     </g>
    </g>
    <g id="xtick_2">
     <g id="line2d_3">
      <path d="M 134.387875 384.117812 
L 134.387875 23.837812 
" clip-path="url(#p51176b0c92)" style="fill: none; stroke: #b0b0b0; stroke-opacity: 0.2; stroke-width: 0.6; stroke-linecap: square"/>
     </g>
     <g id="line2d_4">
      <g>
       <use xlink:href="#mc16c6fefc0" x="134.387875" y="384.117812" style="stroke: #000000; stroke-width: 0.8"/>
      </g>
     </g>
     <g id="text_2">
      <!-- 25 -->
      <g transform="translate(127.389125 399.476094) scale(0.11 -0.11)">
       <defs>
        <path id="DejaVuSans-32" d="M 1228 531 
L 3431 531 
L 3431 0 
L 469 0 
L 469 531 
Q 828 903 1448 1529 
Q 2069 2156 2228 2338 
Q 2531 2678 2651 2914 
Q 2772 3150 2772 3378 
Q 2772 3750 2511 3984 
Q 2250 4219 1831 4219 
Q 1534 4219 1204 4116 
Q 875 4013 500 3803 
L 500 4441 
Q 881 4594 1212 4672 
Q 1544 4750 1819 4750 
Q 2544 4750 2975 4387 
Q 3406 4025 3406 3419 
Q 3406 3131 3298 2873 
Q 3191 2616 2906 2266 
Q 2828 2175 2409 1742 
Q 1991 1309 1228 531 
z
" transform="scale(0.015625)"/>
        <path id="DejaVuSans-35" d="M 691 4666 
L 3169 4666 
L 3169 4134 
L 1269 4134 
L 1269 2991 
Q 1406 3038 1543 3061 
Q 1681 3084 1819 3084 
Q 2600 3084 3056 2656 
Q 3513 2228 3513 1497 
Q 3513 744 3044 326 
Q 2575 -91 1722 -91 
Q 1428 -91 1123 -41 
Q 819 9 494 109 
L 494 744 
Q 775 591 1075 516 
Q 1375 441 1709 441 
Q 2250 441 2565 725 
Q 2881 1009 2881 1497 
Q 2881 1984 2565 2268 
Q 2250 2553 1709 2553 
Q 1456 2553 1204 2497 
Q 953 2441 691 2322 
L 691 4666 
z
" transform="scale(0.015625)"/>
       </defs>
       <use xlink:href="#DejaVuSans-32"/>
       <use xlink:href="#DejaVuSans-35" transform="translate(63.623047 0)"/>
      </g>
     </g>
    </g>
    <g id="xtick_3">
     <g id="line2d_5">
      <path d="M 221.468563 384.117812 
L 221.468563 23.837812 
" clip-path="url(#p51176b0c92)" style="fill: none; stroke: #b0b0b0; stroke-opacity: 0.2; stroke-width: 0.6; stroke-linecap: square"/>
     </g>
     <g id="line2d_6">
      <g>
       <use xlink:href="#mc16c6fefc0" x="221.468563" y="384.117812" style="stroke: #000000; stroke-width: 0.8"/>
      </g>
     </g>
     <g id="text_3">
      <!-- 50 -->
      <g transform="translate(214.469813 399.476094) scale(0.11 -0.11)">
       <use xlink:href="#DejaVuSans-35"/>
       <use xlink:href="#DejaVuSans-30" transform="translate(63.623047 0)"/>
      </g>
     </g>
    </g>
    <g id="xtick_4">
     <g id="line2d_7">
      <path d="M 308.549251 384.117812 
L 308.549251 23.837812 
" clip-path="url(#p51176b0c92)" style="fill: none; stroke: #b0b0b0; stroke-opacity: 0.2; stroke-width: 0.6; stroke-linecap: square"/>
     </g>
     <g id="line2d_8">
      <g>
       <use xlink:href="#mc16c6fefc0" x="308.549251" y="384.117812" style="stroke: #000000; stroke-width: 0.8"/>
      </g>
     </g>
     <g id="text_4">
      <!-- 75 -->
      <g transform="translate(301.550501 399.476094) scale(0.11 -0.11)">
       <defs>
        <path id="DejaVuSans-37" d="M 525 4666 
L 3525 4666 
L 3525 4397 
L 1831 0 
L 1172 0 
L 2766 4134 
L 525 4134 
L 525 4666 
z
" transform="scale(0.015625)"/>
       </defs>
       <use xlink:href="#DejaVuSans-37"/>
       <use xlink:href="#DejaVuSans-35" transform="translate(63.623047 0)"/>
      </g>
     </g>
    </g>
    <g id="xtick_5">
     <g id="line2d_9">
      <path d="M 395.629939 384.117812 
L 395.629939 23.837812 
" clip-path="url(#p51176b0c92)" style="fill: none; stroke: #b0b0b0; stroke-opacity: 0.2; stroke-width: 0.6; stroke-linecap: square"/>
     </g>
     <g id="line2d_10">
      <g>
       <use xlink:href="#mc16c6fefc0" x="395.629939" y="384.117812" style="stroke: #000000; stroke-width: 0.8"/>
      </g>
     </g>
     <g id="text_5">
      <!-- 100 -->
      <g transform="translate(385.131814 399.476094) scale(0.11 -0.11)">
       <defs>
        <path id="DejaVuSans-31" d="M 794 531 
L 1825 531 
L 1825 4091 
L 703 3866 
L 703 4441 
L 1819 4666 
L 2450 4666 
L 2450 531 
L 3481 531 
L 3481 0 
L 794 0 
L 794 531 
z
" transform="scale(0.015625)"/>
       </defs>
       <use xlink:href="#DejaVuSans-31"/>
       <use xlink:href="#DejaVuSans-30" transform="translate(63.623047 0)"/>
       <use xlink:href="#DejaVuSans-30" transform="translate(127.246094 0)"/>
      </g>
     </g>
    </g>
    <g id="xtick_6">
     <g id="line2d_11">
      <path d="M 482.710627 384.117812 
L 482.710627 23.837812 
" clip-path="url(#p51176b0c92)" style="fill: none; stroke: #b0b0b0; stroke-opacity: 0.2; stroke-width: 0.6; stroke-linecap: square"/>
     </g>
     <g id="line2d_12">
      <g>
       <use xlink:href="#mc16c6fefc0" x="482.710627" y="384.117812" style="stroke: #000000; stroke-width: 0.8"/>
      </g>
     </g>
     <g id="text_6">
      <!-- 125 -->
      <g transform="translate(472.212502 399.476094) scale(0.11 -0.11)">
       <use xlink:href="#DejaVuSans-31"/>
       <use xlink:href="#DejaVuSans-32" transform="translate(63.623047 0)"/>
       <use xlink:href="#DejaVuSans-35" transform="translate(127.246094 0)"/>
      </g>
     </g>
    </g>
    <g id="xtick_7">
     <g id="line2d_13">
      <path d="M 569.791314 384.117812 
L 569.791314 23.837812 
" clip-path="url(#p51176b0c92)" style="fill: none; stroke: #b0b0b0; stroke-opacity: 0.2; stroke-width: 0.6; stroke-linecap: square"/>
     </g>
     <g id="line2d_14">
      <g>
       <use xlink:href="#mc16c6fefc0" x="569.791314" y="384.117812" style="stroke: #000000; stroke-width: 0.8"/>
      </g>
     </g>
     <g id="text_7">
      <!-- 150 -->
      <g transform="translate(559.293189 399.476094) scale(0.11 -0.11)">
       <use xlink:href="#DejaVuSans-31"/>
       <use xlink:href="#DejaVuSans-35" transform="translate(63.623047 0)"/>
       <use xlink:href="#DejaVuSans-30" transform="translate(127.246094 0)"/>
      </g>
     </g>
    </g>
    <g id="xtick_8">
     <g id="line2d_15">
      <path d="M 656.872002 384.117812 
L 656.872002 23.837812 
" clip-path="url(#p51176b0c92)" style="fill: none; stroke: #b0b0b0; stroke-opacity: 0.2; stroke-width: 0.6; stroke-linecap: square"/>
     </g>
     <g id="line2d_16">
      <g>
       <use xlink:href="#mc16c6fefc0" x="656.872002" y="384.117812" style="stroke: #000000; stroke-width: 0.8"/>
      </g>
     </g>
     <g id="text_8">
      <!-- 175 -->
      <g transform="translate(646.373877 399.476094) scale(0.11 -0.11)">
       <use xlink:href="#DejaVuSans-31"/>
       <use xlink:href="#DejaVuSans-37" transform="translate(63.623047 0)"/>
       <use xlink:href="#DejaVuSans-35" transform="translate(127.246094 0)"/>
      </g>
     </g>
    </g>
    <g id="text_9">
     <!-- Time (s) -->
     <g transform="translate(352.0775 414.881875) scale(0.12 -0.12)">
      <defs>
       <path id="DejaVuSans-54" d="M -19 4666 
L 3928 4666 
L 3928 4134 
L 2272 4134 
L 2272 0 
L 1638 0 
L 1638 4134 
L -19 4134 
L -19 4666 
z
" transform="scale(0.015625)"/>
       <path id="DejaVuSans-69" d="M 603 3500 
L 1178 3500 
L 1178 0 
L 603 0 
L 603 3500 
z
M 603 4863 
L 1178 4863 
L 1178 4134 
L 603 4134 
L 603 4863 
z
" transform="scale(0.015625)"/>
       <path id="DejaVuSans-6d" d="M 3328 2828 
Q 3544 3216 3844 3400 
Q 4144 3584 4550 3584 
Q 5097 3584 5394 3201 
Q 5691 2819 5691 2113 
L 5691 0 
L 5113 0 
L 5113 2094 
Q 5113 2597 4934 2840 
Q 4756 3084 4391 3084 
Q 3944 3084 3684 2787 
Q 3425 2491 3425 1978 
L 3425 0 
L 2847 0 
L 2847 2094 
Q 2847 2600 2669 2842 
Q 2491 3084 2119 3084 
Q 1678 3084 1418 2786 
Q 1159 2488 1159 1978 
L 1159 0 
L 581 0 
L 581 3500 
L 1159 3500 
L 1159 2956 
Q 1356 3278 1631 3431 
Q 1906 3584 2284 3584 
Q 2666 3584 2933 3390 
Q 3200 3197 3328 2828 
z
" transform="scale(0.015625)"/>
       <path id="DejaVuSans-65" d="M 3597 1894 
L 3597 1613 
L 953 1613 
Q 991 1019 1311 708 
Q 1631 397 2203 397 
Q 2534 397 2845 478 
Q 3156 559 3463 722 
L 3463 178 
Q 3153 47 2828 -22 
Q 2503 -91 2169 -91 
Q 1331 -91 842 396 
Q 353 884 353 1716 
Q 353 2575 817 3079 
Q 1281 3584 2069 3584 
Q 2775 3584 3186 3129 
Q 3597 2675 3597 1894 
z
M 3022 2063 
Q 3016 2534 2758 2815 
Q 2500 3097 2075 3097 
Q 1594 3097 1305 2825 
Q 1016 2553 972 2059 
L 3022 2063 
z
" transform="scale(0.015625)"/>
       <path id="DejaVuSans-20" transform="scale(0.015625)"/>
       <path id="DejaVuSans-28" d="M 1984 4856 
Q 1566 4138 1362 3434 
Q 1159 2731 1159 2009 
Q 1159 1288 1364 580 
Q 1569 -128 1984 -844 
L 1484 -844 
Q 1016 -109 783 600 
Q 550 1309 550 2009 
Q 550 2706 781 3412 
Q 1013 4119 1484 4856 
L 1984 4856 
z
" transform="scale(0.015625)"/>
       <path id="DejaVuSans-73" d="M 2834 3397 
L 2834 2853 
Q 2591 2978 2328 3040 
Q 2066 3103 1784 3103 
Q 1356 3103 1142 2972 
Q 928 2841 928 2578 
Q 928 2378 1081 2264 
Q 1234 2150 1697 2047 
L 1894 2003 
Q 2506 1872 2764 1633 
Q 3022 1394 3022 966 
Q 3022 478 2636 193 
Q 2250 -91 1575 -91 
Q 1294 -91 989 -36 
Q 684 19 347 128 
L 347 722 
Q 666 556 975 473 
Q 1284 391 1588 391 
Q 1994 391 2212 530 
Q 2431 669 2431 922 
Q 2431 1156 2273 1281 
Q 2116 1406 1581 1522 
L 1381 1569 
Q 847 1681 609 1914 
Q 372 2147 372 2553 
Q 372 3047 722 3315 
Q 1072 3584 1716 3584 
Q 2034 3584 2315 3537 
Q 2597 3491 2834 3397 
z
" transform="scale(0.015625)"/>
       <path id="DejaVuSans-29" d="M 513 4856 
L 1013 4856 
Q 1481 4119 1714 3412 
Q 1947 2706 1947 2009 
Q 1947 1309 1714 600 
Q 1481 -109 1013 -844 
L 513 -844 
Q 928 -128 1133 580 
Q 1338 1288 1338 2009 
Q 1338 2731 1133 3434 
Q 928 4138 513 4856 
z
" transform="scale(0.015625)"/>
      </defs>
      <use xlink:href="#DejaVuSans-54"/>
      <use xlink:href="#DejaVuSans-69" transform="translate(57.958984 0)"/>
      <use xlink:href="#DejaVuSans-6d" transform="translate(85.742188 0)"/>
      <use xlink:href="#DejaVuSans-65" transform="translate(183.154297 0)"/>
      <use xlink:href="#DejaVuSans-20" transform="translate(244.677734 0)"/>
      <use xlink:href="#DejaVuSans-28" transform="translate(276.464844 0)"/>
      <use xlink:href="#DejaVuSans-73" transform="translate(315.478516 0)"/>
      <use xlink:href="#DejaVuSans-29" transform="translate(367.578125 0)"/>
     </g>
    </g>
   </g>
   <g id="matplotlib.axis_2">
    <g id="ytick_1">
     <g id="line2d_17">
      <path d="M 47.307188 367.741449 
L 705.637188 367.741449 
" clip-path="url(#p51176b0c92)" style="fill: none; stroke: #b0b0b0; stroke-opacity: 0.2; stroke-width: 0.6; stroke-linecap: square"/>
     </g>
     <g id="line2d_18">
      <defs>
       <path id="mcad4e63531" d="M 0 0 
L -3.5 0 
" style="stroke: #000000; stroke-width: 0.8"/>
      </defs>
      <g>
       <use xlink:href="#mcad4e63531" x="47.307188" y="367.741449" style="stroke: #000000; stroke-width: 0.8"/>
      </g>
     </g>
     <g id="text_10">
      <!-- 0.0 -->
      <g transform="translate(22.81375 371.920589) scale(0.11 -0.11)">
       <defs>
        <path id="DejaVuSans-2e" d="M 684 794 
L 1344 794 
L 1344 0 
L 684 0 
L 684 794 
z
" transform="scale(0.015625)"/>
       </defs>
       <use xlink:href="#DejaVuSans-30"/>
       <use xlink:href="#DejaVuSans-2e" transform="translate(63.623047 0)"/>
       <use xlink:href="#DejaVuSans-30" transform="translate(95.410156 0)"/>
      </g>
     </g>
    </g>
    <g id="ytick_2">
     <g id="line2d_19">
      <path d="M 47.307188 317.507205 
L 705.637188 317.507205 
" clip-path="url(#p51176b0c92)" style="fill: none; stroke: #b0b0b0; stroke-opacity: 0.2; stroke-width: 0.6; stroke-linecap: square"/>
     </g>
     <g id="line2d_20">
      <g>
       <use xlink:href="#mcad4e63531" x="47.307188" y="317.507205" style="stroke: #000000; stroke-width: 0.8"/>
      </g>
     </g>
     <g id="text_11">
      <!-- 0.5 -->
      <g transform="translate(22.81375 321.686345) scale(0.11 -0.11)">
       <use xlink:href="#DejaVuSans-30"/>
       <use xlink:href="#DejaVuSans-2e" transform="translate(63.623047 0)"/>
       <use xlink:href="#DejaVuSans-35" transform="translate(95.410156 0)"/>
      </g>
     </g>
    </g>
    <g id="ytick_3">
     <g id="line2d_21">
      <path d="M 47.307188 267.27296 
L 705.637188 267.27296 
" clip-path="url(#p51176b0c92)" style="fill: none; stroke: #b0b0b0; stroke-opacity: 0.2; stroke-width: 0.6; stroke-linecap: square"/>
     </g>
     <g id="line2d_22">
      <g>
       <use xlink:href="#mcad4e63531" x="47.307188" y="267.27296" style="stroke: #000000; stroke-width: 0.8"/>
      </g>
     </g>
     <g id="text_12">
      <!-- 1.0 -->
      <g transform="translate(22.81375 271.452101) scale(0.11 -0.11)">
       <use xlink:href="#DejaVuSans-31"/>
       <use xlink:href="#DejaVuSans-2e" transform="translate(63.623047 0)"/>
       <use xlink:href="#DejaVuSans-30" transform="translate(95.410156 0)"/>
      </g>
     </g>
    </g>
    <g id="ytick_4">
     <g id="line2d_23">
      <path d="M 47.307188 217.038716 
L 705.637188 217.038716 
" clip-path="url(#p51176b0c92)" style="fill: none; stroke: #b0b0b0; stroke-opacity: 0.2; stroke-width: 0.6; stroke-linecap: square"/>
     </g>
     <g id="line2d_24">
      <g>
       <use xlink:href="#mcad4e63531" x="47.307188" y="217.038716" style="stroke: #000000; stroke-width: 0.8"/>
      </g>
     </g>
     <g id="text_13">
      <!-- 1.5 -->
      <g transform="translate(22.81375 221.217857) scale(0.11 -0.11)">
       <use xlink:href="#DejaVuSans-31"/>
       <use xlink:href="#DejaVuSans-2e" transform="translate(63.623047 0)"/>
       <use xlink:href="#DejaVuSans-35" transform="translate(95.410156 0)"/>
      </g>
     </g>
    </g>
    <g id="ytick_5">
     <g id="line2d_25">
      <path d="M 47.307188 166.804472 
L 705.637188 166.804472 
" clip-path="url(#p51176b0c92)" style="fill: none; stroke: #b0b0b0; stroke-opacity: 0.2; stroke-width: 0.6; stroke-linecap: square"/>
     </g>
     <g id="line2d_26">
      <g>
       <use xlink:href="#mcad4e63531" x="47.307188" y="166.804472" style="stroke: #000000; stroke-width: 0.8"/>
      </g>
     </g>
     <g id="text_14">
      <!-- 2.0 -->
      <g transform="translate(22.81375 170.983612) scale(0.11 -0.11)">
       <use xlink:href="#DejaVuSans-32"/>
       <use xlink:href="#DejaVuSans-2e" transform="translate(63.623047 0)"/>
       <use xlink:href="#DejaVuSans-30" transform="translate(95.410156 0)"/>
      </g>
     </g>
    </g>
    <g id="ytick_6">
     <g id="line2d_27">
      <path d="M 47.307188 116.570227 
L 705.637188 116.570227 
" clip-path="url(#p51176b0c92)" style="fill: none; stroke: #b0b0b0; stroke-opacity: 0.2; stroke-width: 0.6; stroke-linecap: square"/>
     </g>
     <g id="line2d_28">
      <g>
       <use xlink:href="#mcad4e63531" x="47.307188" y="116.570227" style="stroke: #000000; stroke-width: 0.8"/>
      </g>
     </g>
     <g id="text_15">
      <!-- 2.5 -->
      <g transform="translate(22.81375 120.749368) scale(0.11 -0.11)">
       <use xlink:href="#DejaVuSans-32"/>
       <use xlink:href="#DejaVuSans-2e" transform="translate(63.623047 0)"/>
       <use xlink:href="#DejaVuSans-35" transform="translate(95.410156 0)"/>
      </g>
     </g>
    </g>
    <g id="ytick_7">
     <g id="line2d_29">
      <path d="M 47.307188 66.335983 
L 705.637188 66.335983 
" clip-path="url(#p51176b0c92)" style="fill: none; stroke: #b0b0b0; stroke-opacity: 0.2; stroke-width: 0.6; stroke-linecap: square"/>
     </g>
     <g id="line2d_30">
      <g>
       <use xlink:href="#mcad4e63531" x="47.307188" y="66.335983" style="stroke: #000000; stroke-width: 0.8"/>
      </g>
     </g>
     <g id="text_16">
      <!-- 3.0 -->
      <g transform="translate(22.81375 70.515124) scale(0.11 -0.11)">
       <defs>
        <path id="DejaVuSans-33" d="M 2597 2516 
Q 3050 2419 3304 2112 
Q 3559 1806 3559 1356 
Q 3559 666 3084 287 
Q 2609 -91 1734 -91 
Q 1441 -91 1130 -33 
Q 819 25 488 141 
L 488 750 
Q 750 597 1062 519 
Q 1375 441 1716 441 
Q 2309 441 2620 675 
Q 2931 909 2931 1356 
Q 2931 1769 2642 2001 
Q 2353 2234 1838 2234 
L 1294 2234 
L 1294 2753 
L 1863 2753 
Q 2328 2753 2575 2939 
Q 2822 3125 2822 3475 
Q 2822 3834 2567 4026 
Q 2313 4219 1838 4219 
Q 1578 4219 1281 4162 
Q 984 4106 628 3988 
L 628 4550 
Q 988 4650 1302 4700 
Q 1616 4750 1894 4750 
Q 2613 4750 3031 4423 
Q 3450 4097 3450 3541 
Q 3450 3153 3228 2886 
Q 3006 2619 2597 2516 
z
" transform="scale(0.015625)"/>
       </defs>
       <use xlink:href="#DejaVuSans-33"/>
       <use xlink:href="#DejaVuSans-2e" transform="translate(63.623047 0)"/>
       <use xlink:href="#DejaVuSans-30" transform="translate(95.410156 0)"/>
      </g>
     </g>
    </g>
    <g id="text_17">
     <!-- AU mean intensity -->
     <g transform="translate(16.318125 259.314687) rotate(-90) scale(0.12 -0.12)">
      <defs>
       <path id="DejaVuSans-41" d="M 2188 4044 
L 1331 1722 
L 3047 1722 
L 2188 4044 
z
M 1831 4666 
L 2547 4666 
L 4325 0 
L 3669 0 
L 3244 1197 
L 1141 1197 
L 716 0 
L 50 0 
L 1831 4666 
z
" transform="scale(0.015625)"/>
       <path id="DejaVuSans-55" d="M 556 4666 
L 1191 4666 
L 1191 1831 
Q 1191 1081 1462 751 
Q 1734 422 2344 422 
Q 2950 422 3222 751 
Q 3494 1081 3494 1831 
L 3494 4666 
L 4128 4666 
L 4128 1753 
Q 4128 841 3676 375 
Q 3225 -91 2344 -91 
Q 1459 -91 1007 375 
Q 556 841 556 1753 
L 556 4666 
z
" transform="scale(0.015625)"/>
       <path id="DejaVuSans-61" d="M 2194 1759 
Q 1497 1759 1228 1600 
Q 959 1441 959 1056 
Q 959 750 1161 570 
Q 1363 391 1709 391 
Q 2188 391 2477 730 
Q 2766 1069 2766 1631 
L 2766 1759 
L 2194 1759 
z
M 3341 1997 
L 3341 0 
L 2766 0 
L 2766 531 
Q 2569 213 2275 61 
Q 1981 -91 1556 -91 
Q 1019 -91 701 211 
Q 384 513 384 1019 
Q 384 1609 779 1909 
Q 1175 2209 1959 2209 
L 2766 2209 
L 2766 2266 
Q 2766 2663 2505 2880 
Q 2244 3097 1772 3097 
Q 1472 3097 1187 3025 
Q 903 2953 641 2809 
L 641 3341 
Q 956 3463 1253 3523 
Q 1550 3584 1831 3584 
Q 2591 3584 2966 3190 
Q 3341 2797 3341 1997 
z
" transform="scale(0.015625)"/>
       <path id="DejaVuSans-6e" d="M 3513 2113 
L 3513 0 
L 2938 0 
L 2938 2094 
Q 2938 2591 2744 2837 
Q 2550 3084 2163 3084 
Q 1697 3084 1428 2787 
Q 1159 2491 1159 1978 
L 1159 0 
L 581 0 
L 581 3500 
L 1159 3500 
L 1159 2956 
Q 1366 3272 1645 3428 
Q 1925 3584 2291 3584 
Q 2894 3584 3203 3211 
Q 3513 2838 3513 2113 
z
" transform="scale(0.015625)"/>
       <path id="DejaVuSans-74" d="M 1172 4494 
L 1172 3500 
L 2356 3500 
L 2356 3053 
L 1172 3053 
L 1172 1153 
Q 1172 725 1289 603 
Q 1406 481 1766 481 
L 2356 481 
L 2356 0 
L 1766 0 
Q 1100 0 847 248 
Q 594 497 594 1153 
L 594 3053 
L 172 3053 
L 172 3500 
L 594 3500 
L 594 4494 
L 1172 4494 
z
" transform="scale(0.015625)"/>
       <path id="DejaVuSans-79" d="M 2059 -325 
Q 1816 -950 1584 -1140 
Q 1353 -1331 966 -1331 
L 506 -1331 
L 506 -850 
L 844 -850 
Q 1081 -850 1212 -737 
Q 1344 -625 1503 -206 
L 1606 56 
L 191 3500 
L 800 3500 
L 1894 763 
L 2988 3500 
L 3597 3500 
L 2059 -325 
z
" transform="scale(0.015625)"/>
      </defs>
      <use xlink:href="#DejaVuSans-41"/>
      <use xlink:href="#DejaVuSans-55" transform="translate(68.408203 0)"/>
      <use xlink:href="#DejaVuSans-20" transform="translate(141.601562 0)"/>
      <use xlink:href="#DejaVuSans-6d" transform="translate(173.388672 0)"/>
      <use xlink:href="#DejaVuSans-65" transform="translate(270.800781 0)"/>
      <use xlink:href="#DejaVuSans-61" transform="translate(332.324219 0)"/>
      <use xlink:href="#DejaVuSans-6e" transform="translate(393.603516 0)"/>
      <use xlink:href="#DejaVuSans-20" transform="translate(456.982422 0)"/>
      <use xlink:href="#DejaVuSans-69" transform="translate(488.769531 0)"/>
      <use xlink:href="#DejaVuSans-6e" transform="translate(516.552734 0)"/>
      <use xlink:href="#DejaVuSans-74" transform="translate(579.931641 0)"/>
      <use xlink:href="#DejaVuSans-65" transform="translate(619.140625 0)"/>
      <use xlink:href="#DejaVuSans-6e" transform="translate(680.664062 0)"/>
      <use xlink:href="#DejaVuSans-73" transform="translate(744.042969 0)"/>
      <use xlink:href="#DejaVuSans-69" transform="translate(796.142578 0)"/>
      <use xlink:href="#DejaVuSans-74" transform="translate(823.925781 0)"/>
      <use xlink:href="#DejaVuSans-79" transform="translate(863.134766 0)"/>
     </g>
    </g>
   </g>
   <g id="FillBetweenPolyCollection_1">
    <defs>
     <path id="me39fcc97d0" d="M 47.307188 -127.200638 
L 47.307188 -43.796466 
L 50.790415 -42.442042 
L 54.273643 -34.11236 
L 57.75687 -30.850134 
L 61.240098 -41.494957 
L 64.723325 -36.061268 
L 68.206553 -38.588753 
L 71.68978 -42.706053 
L 75.173008 -43.760446 
L 78.656235 -46.150736 
L 82.139463 -39.811614 
L 85.62269 -31.882337 
L 89.105918 -27.205675 
L 92.589145 -43.504591 
L 96.072373 -40.277298 
L 99.5556 -43.12944 
L 103.038828 -45.997795 
L 106.522055 -38.504831 
L 110.005283 -45.424195 
L 113.48851 -41.57165 
L 116.971738 -40.141496 
L 120.454965 -34.516159 
L 123.938193 -32.83384 
L 127.42142 -33.165347 
L 130.904648 -31.938687 
L 134.387875 -36.558853 
L 137.871103 -41.798835 
L 141.35433 -40.810197 
L 144.837558 -41.865268 
L 148.320785 -48.860487 
L 151.804013 -49.008672 
L 155.28724 -42.974556 
L 158.770468 -40.245326 
L 162.253695 -48.58162 
L 165.736923 -48.098948 
L 169.22015 -39.537292 
L 172.703378 -45.623087 
L 176.186605 -44.238195 
L 179.669833 -39.636525 
L 183.153061 -39.743729 
L 186.636288 -36.945242 
L 190.119516 -29.351588 
L 193.602743 -25.68023 
L 197.085971 -22.685171 
L 200.569198 -21.433795 
L 204.052426 -40.453956 
L 207.535653 -32.660089 
L 211.018881 -31.523188 
L 214.502108 -41.109565 
L 217.985336 -48.310085 
L 221.468563 -37.950114 
L 224.951791 -43.229479 
L 228.435018 -42.010018 
L 231.918246 -40.698306 
L 235.401473 -38.050397 
L 238.884701 -47.731687 
L 242.367928 -34.682911 
L 245.851156 -41.815121 
L 249.334383 -34.854245 
L 252.817611 -48.823235 
L 256.300838 -49.951261 
L 259.784066 -43.95386 
L 263.267293 -40.76517 
L 266.750521 -49.256826 
L 270.233748 -47.570333 
L 273.716976 -41.094892 
L 277.200203 -33.830355 
L 280.683431 -16.09287 
L 284.166658 -17.332765 
L 287.649886 -28.594475 
L 291.133113 -10.41099 
L 294.616341 -4.624271 
L 298.099568 -31.196489 
L 301.582796 -23.331608 
L 305.066023 -53.195523 
L 308.549251 -35.85253 
L 312.032479 -33.368224 
L 315.515706 -28.846016 
L 318.998934 -21.271315 
L 322.482161 -29.123197 
L 325.965389 -26.45433 
L 329.448616 -29.455279 
L 332.931844 -44.004748 
L 336.415071 -43.13009 
L 339.898299 -37.882357 
L 343.381526 -41.833794 
L 346.864754 -47.254723 
L 350.347981 -46.819495 
L 353.831209 -40.843119 
L 357.314436 -14.254656 
L 360.797664 -21.234579 
L 364.280891 -44.369906 
L 367.764119 -49.083014 
L 371.247346 -42.73653 
L 374.730574 -44.148454 
L 378.213801 -48.901705 
L 381.697029 -51.034849 
L 385.180256 -40.218433 
L 388.663484 -41.426587 
L 392.146711 -39.839214 
L 395.629939 -49.791209 
L 399.113166 -45.367278 
L 402.596394 -39.548759 
L 406.079621 -43.591811 
L 409.562849 -40.421118 
L 413.046076 -43.389112 
L 416.529304 -41.837565 
L 420.012531 -21.474945 
L 423.495759 -46.062307 
L 426.978986 -46.32162 
L 430.462214 -55.50814 
L 433.945441 -50.24028 
L 437.428669 -47.40705 
L 440.911896 -53.333278 
L 444.395124 -62.448471 
L 447.878352 -50.447872 
L 451.361579 -51.670143 
L 454.844807 -47.236918 
L 458.328034 -49.585094 
L 461.811262 -49.176898 
L 465.294489 -57.778128 
L 468.777717 -51.320133 
L 472.260944 -23.078943 
L 475.744172 -37.269698 
L 479.227399 -33.458786 
L 482.710627 -47.122202 
L 486.193854 -46.155824 
L 489.677082 -54.047221 
L 493.160309 -48.979729 
L 496.643537 -55.005736 
L 500.126764 -29.586582 
L 503.609992 -33.757994 
L 507.093219 -31.646461 
L 510.576447 -16.694297 
L 514.059674 -15.258411 
L 517.542902 -17.49909 
L 521.026129 -23.731893 
L 524.509357 -31.711441 
L 527.992584 -27.44062 
L 531.475812 -41.98052 
L 534.959039 -40.247122 
L 538.442267 -44.833327 
L 541.925494 -47.620382 
L 545.408722 -50.181533 
L 548.891949 -52.548334 
L 552.375177 -37.821859 
L 555.858404 -44.181661 
L 559.341632 -46.074434 
L 562.824859 -48.269922 
L 566.308087 -48.96385 
L 569.791314 -53.121811 
L 573.274542 -50.147288 
L 576.75777 -56.768251 
L 580.240997 -50.997525 
L 583.724225 -46.324877 
L 587.207452 -51.397656 
L 590.69068 -33.354086 
L 594.173907 -41.320557 
L 597.657135 -53.384658 
L 601.140362 -50.027348 
L 604.62359 -48.315655 
L 608.106817 -56.923388 
L 611.590045 -48.263176 
L 615.073272 -41.786255 
L 618.5565 -43.095703 
L 622.039727 -44.628613 
L 625.522955 -50.568245 
L 629.006182 -47.216794 
L 632.48941 -54.814639 
L 635.972637 -54.094097 
L 639.455865 -57.336669 
L 642.939092 -42.807068 
L 646.42232 -55.378956 
L 649.905547 -59.352088 
L 653.388775 -49.294697 
L 656.872002 -56.245156 
L 660.35523 -57.419097 
L 663.838457 -44.820471 
L 667.321685 -32.218542 
L 670.804912 -50.754089 
L 674.28814 -52.411621 
L 677.771367 -56.38018 
L 681.254595 -40.267684 
L 684.737822 -32.398405 
L 688.22105 -36.444252 
L 691.704277 -51.987091 
L 695.187505 -55.73282 
L 698.670732 -58.017863 
L 702.15396 -67.78788 
L 705.637188 -56.844928 
L 705.637188 -147.51958 
L 705.637188 -147.51958 
L 702.15396 -134.382917 
L 698.670732 -148.908051 
L 695.187505 -137.412017 
L 691.704277 -161.665034 
L 688.22105 -188.971714 
L 684.737822 -191.013536 
L 681.254595 -180.044365 
L 677.771367 -152.880894 
L 674.28814 -153.731379 
L 670.804912 -157.127874 
L 667.321685 -171.740577 
L 663.838457 -163.443912 
L 660.35523 -143.941055 
L 656.872002 -140.873088 
L 653.388775 -136.978977 
L 649.905547 -134.380341 
L 646.42232 -148.067848 
L 642.939092 -159.642402 
L 639.455865 -135.011234 
L 635.972637 -137.64895 
L 632.48941 -156.035173 
L 629.006182 -158.136136 
L 625.522955 -157.762375 
L 622.039727 -177.340259 
L 618.5565 -175.840201 
L 615.073272 -188.184119 
L 611.590045 -176.568708 
L 608.106817 -166.659109 
L 604.62359 -166.458162 
L 601.140362 -164.624913 
L 597.657135 -156.995221 
L 594.173907 -164.77989 
L 590.69068 -171.921345 
L 587.207452 -143.083623 
L 583.724225 -152.896268 
L 580.240997 -133.911266 
L 576.75777 -122.758863 
L 573.274542 -126.634749 
L 569.791314 -125.841097 
L 566.308087 -133.771677 
L 562.824859 -133.376716 
L 559.341632 -139.96163 
L 555.858404 -142.929665 
L 552.375177 -153.036426 
L 548.891949 -140.046378 
L 545.408722 -141.26304 
L 541.925494 -142.016368 
L 538.442267 -150.656635 
L 534.959039 -159.598523 
L 531.475812 -168.59837 
L 527.992584 -207.365816 
L 524.509357 -212.463099 
L 521.026129 -207.502053 
L 517.542902 -207.943539 
L 514.059674 -197.781514 
L 510.576447 -206.644358 
L 507.093219 -203.181165 
L 503.609992 -193.964498 
L 500.126764 -189.622308 
L 496.643537 -143.92334 
L 493.160309 -155.826403 
L 489.677082 -166.306414 
L 486.193854 -193.808794 
L 482.710627 -187.770743 
L 479.227399 -196.56443 
L 475.744172 -194.666669 
L 472.260944 -196.977141 
L 468.777717 -141.990953 
L 465.294489 -154.001326 
L 461.811262 -154.64272 
L 458.328034 -153.936712 
L 454.844807 -161.498573 
L 451.361579 -164.207768 
L 447.878352 -159.385428 
L 444.395124 -150.816501 
L 440.911896 -172.409719 
L 437.428669 -195.564454 
L 433.945441 -192.860418 
L 430.462214 -182.756276 
L 426.978986 -174.60125 
L 423.495759 -180.450839 
L 420.012531 -216.496089 
L 416.529304 -156.939192 
L 413.046076 -156.655724 
L 409.562849 -142.93613 
L 406.079621 -148.90346 
L 402.596394 -154.612015 
L 399.113166 -162.733399 
L 395.629939 -146.573799 
L 392.146711 -157.773917 
L 388.663484 -158.51935 
L 385.180256 -157.262226 
L 381.697029 -135.602177 
L 378.213801 -139.730907 
L 374.730574 -144.211974 
L 371.247346 -160.504334 
L 367.764119 -145.141027 
L 364.280891 -137.584044 
L 360.797664 -160.620704 
L 357.314436 -169.067292 
L 353.831209 -139.086307 
L 350.347981 -129.808051 
L 346.864754 -127.612053 
L 343.381526 -138.117344 
L 339.898299 -143.07706 
L 336.415071 -138.363489 
L 332.931844 -144.992149 
L 329.448616 -174.655514 
L 325.965389 -169.066691 
L 322.482161 -168.529282 
L 318.998934 -168.208943 
L 315.515706 -151.463189 
L 312.032479 -145.64256 
L 308.549251 -134.879378 
L 305.066023 -121.06262 
L 301.582796 -166.08534 
L 298.099568 -162.750441 
L 294.616341 -209.507138 
L 291.133113 -228.475977 
L 287.649886 -216.166708 
L 284.166658 -198.33675 
L 280.683431 -190.761756 
L 277.200203 -155.755288 
L 273.716976 -139.693892 
L 270.233748 -127.362617 
L 266.750521 -127.172105 
L 263.267293 -139.521529 
L 259.784066 -126.961296 
L 256.300838 -124.24251 
L 252.817611 -127.288567 
L 249.334383 -147.006792 
L 245.851156 -153.08722 
L 242.367928 -176.750266 
L 238.884701 -149.892897 
L 235.401473 -150.43458 
L 231.918246 -147.075303 
L 228.435018 -140.858197 
L 224.951791 -150.51361 
L 221.468563 -156.050658 
L 217.985336 -146.267133 
L 214.502108 -168.371582 
L 211.018881 -166.489146 
L 207.535653 -179.699242 
L 204.052426 -162.388594 
L 200.569198 -188.477396 
L 197.085971 -170.299741 
L 193.602743 -161.514613 
L 190.119516 -147.433113 
L 186.636288 -126.742966 
L 183.153061 -124.273213 
L 179.669833 -122.357679 
L 176.186605 -116.724718 
L 172.703378 -113.03671 
L 169.22015 -117.219003 
L 165.736923 -113.602328 
L 162.253695 -113.597842 
L 158.770468 -130.961813 
L 155.28724 -129.488934 
L 151.804013 -119.630662 
L 148.320785 -118.647535 
L 144.837558 -119.837254 
L 141.35433 -117.020071 
L 137.871103 -114.531199 
L 134.387875 -131.378225 
L 130.904648 -139.772042 
L 127.42142 -124.667586 
L 123.938193 -125.486908 
L 120.454965 -126.472071 
L 116.971738 -115.132788 
L 113.48851 -113.650967 
L 110.005283 -110.933303 
L 106.522055 -124.869859 
L 103.038828 -115.298365 
L 99.5556 -121.488448 
L 96.072373 -122.995822 
L 92.589145 -115.021228 
L 89.105918 -145.21681 
L 85.62269 -136.521107 
L 82.139463 -129.047106 
L 78.656235 -121.335966 
L 75.173008 -121.63423 
L 71.68978 -117.582629 
L 68.206553 -133.943424 
L 64.723325 -143.105896 
L 61.240098 -132.303672 
L 57.75687 -157.500436 
L 54.273643 -152.693573 
L 50.790415 -124.687558 
L 47.307188 -127.200638 
z
" style="stroke: #d3d3d3; stroke-opacity: 0.5"/>
    </defs>
    <g clip-path="url(#p51176b0c92)">
     <use xlink:href="#me39fcc97d0" x="0" y="424.5775" style="fill: #d3d3d3; fill-opacity: 0.5; stroke: #d3d3d3; stroke-opacity: 0.5"/>
    </g>
   </g>
   <g id="FillBetweenPolyCollection_2">
    <defs>
     <path id="m01e29301c2" d="M 47.307188 -106.349595 
L 47.307188 -64.647509 
L 50.790415 -63.003421 
L 54.273643 -63.757663 
L 57.75687 -62.512709 
L 61.240098 -64.197135 
L 64.723325 -62.822425 
L 68.206553 -62.427421 
L 71.68978 -61.425197 
L 75.173008 -63.228892 
L 78.656235 -64.947044 
L 82.139463 -62.120487 
L 85.62269 -58.042029 
L 89.105918 -56.708458 
L 92.589145 -61.38375 
L 96.072373 -60.956929 
L 99.5556 -62.719192 
L 103.038828 -63.322937 
L 106.522055 -60.096088 
L 110.005283 -61.801472 
L 113.48851 -59.59148 
L 116.971738 -58.889319 
L 120.454965 -57.505137 
L 123.938193 -55.997107 
L 127.42142 -56.040907 
L 130.904648 -58.897026 
L 134.387875 -60.263696 
L 137.871103 -59.981926 
L 141.35433 -59.862666 
L 144.837558 -61.358264 
L 148.320785 -66.307249 
L 151.804013 -66.66417 
L 155.28724 -64.60315 
L 158.770468 -62.924448 
L 162.253695 -64.835675 
L 165.736923 -64.474793 
L 169.22015 -58.95772 
L 172.703378 -62.476493 
L 176.186605 -62.359826 
L 179.669833 -60.316814 
L 183.153061 -60.8761 
L 186.636288 -59.394673 
L 190.119516 -58.871969 
L 193.602743 -59.638825 
L 197.085971 -59.588813 
L 200.569198 -63.194695 
L 204.052426 -70.937615 
L 207.535653 -69.419878 
L 211.018881 -65.264677 
L 214.502108 -72.925069 
L 217.985336 -72.799347 
L 221.468563 -67.47525 
L 224.951791 -70.050512 
L 228.435018 -66.722063 
L 231.918246 -67.292555 
L 235.401473 -66.146443 
L 238.884701 -73.27199 
L 242.367928 -70.19975 
L 245.851156 -69.633146 
L 249.334383 -62.892382 
L 252.817611 -68.439568 
L 256.300838 -68.524073 
L 259.784066 -64.705719 
L 263.267293 -65.45426 
L 266.750521 -68.735646 
L 270.233748 -67.518404 
L 273.716976 -65.744642 
L 277.200203 -64.311589 
L 280.683431 -59.760092 
L 284.166658 -62.583761 
L 287.649886 -75.487533 
L 291.133113 -64.927236 
L 294.616341 -55.844988 
L 298.099568 -64.084977 
L 301.582796 -59.020041 
L 305.066023 -70.162298 
L 308.549251 -60.609242 
L 312.032479 -61.436808 
L 315.515706 -59.500309 
L 318.998934 -58.005722 
L 322.482161 -63.974718 
L 325.965389 -62.10742 
L 329.448616 -65.755338 
L 332.931844 -69.251598 
L 336.415071 -66.938439 
L 339.898299 -64.181033 
L 343.381526 -65.904681 
L 346.864754 -67.344055 
L 350.347981 -67.566634 
L 353.831209 -65.403916 
L 357.314436 -52.957815 
L 360.797664 -56.08111 
L 364.280891 -67.67344 
L 367.764119 -73.097518 
L 371.247346 -72.178481 
L 374.730574 -69.164334 
L 378.213801 -71.609006 
L 381.697029 -72.176681 
L 385.180256 -69.479382 
L 388.663484 -70.699778 
L 392.146711 -69.32289 
L 395.629939 -73.986856 
L 399.113166 -74.708808 
L 402.596394 -68.314573 
L 406.079621 -69.919723 
L 409.562849 -66.049871 
L 413.046076 -71.705765 
L 416.529304 -70.612972 
L 420.012531 -70.230231 
L 423.495759 -79.65944 
L 426.978986 -78.391527 
L 430.462214 -87.320174 
L 433.945441 -85.895315 
L 437.428669 -84.446401 
L 440.911896 -83.102388 
L 444.395124 -84.540478 
L 447.878352 -77.682261 
L 451.361579 -79.804549 
L 454.844807 -75.802332 
L 458.328034 -75.672998 
L 461.811262 -75.543354 
L 465.294489 -81.833928 
L 468.777717 -73.987838 
L 472.260944 -66.553493 
L 475.744172 -76.618941 
L 479.227399 -74.235197 
L 482.710627 -82.284337 
L 486.193854 -83.069066 
L 489.677082 -82.11202 
L 493.160309 -75.691398 
L 496.643537 -77.235137 
L 500.126764 -69.595513 
L 503.609992 -73.80962 
L 507.093219 -74.530137 
L 510.576447 -64.181812 
L 514.059674 -60.889187 
L 517.542902 -65.110203 
L 521.026129 -69.674433 
L 524.509357 -76.899355 
L 527.992584 -72.421919 
L 531.475812 -73.634982 
L 534.959039 -70.084972 
L 538.442267 -71.289154 
L 541.925494 -71.219379 
L 545.408722 -72.95191 
L 548.891949 -74.422845 
L 552.375177 -66.625501 
L 555.858404 -68.868662 
L 559.341632 -69.546233 
L 562.824859 -69.546621 
L 566.308087 -70.165807 
L 569.791314 -71.301633 
L 573.274542 -69.269153 
L 576.75777 -73.265904 
L 580.240997 -71.72596 
L 583.724225 -72.967725 
L 587.207452 -74.319148 
L 590.69068 -67.995901 
L 594.173907 -72.18539 
L 597.657135 -79.287298 
L 601.140362 -78.676739 
L 604.62359 -77.851282 
L 608.106817 -84.357318 
L 611.590045 -80.339559 
L 615.073272 -78.385721 
L 618.5565 -76.281828 
L 622.039727 -77.806524 
L 625.522955 -77.366778 
L 629.006182 -74.946629 
L 632.48941 -80.119772 
L 635.972637 -74.98281 
L 639.455865 -76.755311 
L 642.939092 -72.015902 
L 646.42232 -78.551179 
L 649.905547 -78.109151 
L 653.388775 -71.215767 
L 656.872002 -77.402139 
L 660.35523 -79.049586 
L 663.838457 -74.476332 
L 667.321685 -67.099051 
L 670.804912 -77.347536 
L 674.28814 -77.741561 
L 677.771367 -80.505358 
L 681.254595 -75.211854 
L 684.737822 -72.052187 
L 688.22105 -74.576118 
L 691.704277 -79.406577 
L 695.187505 -76.152619 
L 698.670732 -80.74041 
L 702.15396 -84.436639 
L 705.637188 -79.513591 
L 705.637188 -124.850917 
L 705.637188 -124.850917 
L 702.15396 -117.734157 
L 698.670732 -126.185504 
L 695.187505 -116.992218 
L 691.704277 -134.245548 
L 688.22105 -150.839848 
L 684.737822 -151.359753 
L 681.254595 -145.100194 
L 677.771367 -128.755715 
L 674.28814 -128.401439 
L 670.804912 -130.534428 
L 667.321685 -136.860068 
L 663.838457 -133.788052 
L 660.35523 -122.310565 
L 656.872002 -119.716105 
L 653.388775 -115.057907 
L 649.905547 -115.623278 
L 646.42232 -124.895625 
L 642.939092 -130.433568 
L 639.455865 -115.592593 
L 635.972637 -116.760237 
L 632.48941 -130.730039 
L 629.006182 -130.4063 
L 625.522955 -130.963843 
L 622.039727 -144.162347 
L 618.5565 -142.654077 
L 615.073272 -151.584653 
L 611.590045 -144.492325 
L 608.106817 -139.225179 
L 604.62359 -136.922535 
L 601.140362 -135.975522 
L 597.657135 -131.09258 
L 594.173907 -133.915057 
L 590.69068 -137.27953 
L 587.207452 -120.162131 
L 583.724225 -126.25342 
L 580.240997 -113.182831 
L 576.75777 -106.26121 
L 573.274542 -107.512883 
L 569.791314 -107.661276 
L 566.308087 -112.56972 
L 562.824859 -112.100018 
L 559.341632 -116.489831 
L 555.858404 -118.242664 
L 552.375177 -124.232784 
L 548.891949 -118.171867 
L 545.408722 -118.492663 
L 541.925494 -118.417372 
L 538.442267 -124.200808 
L 534.959039 -129.760673 
L 531.475812 -136.943907 
L 527.992584 -162.384517 
L 524.509357 -167.275184 
L 521.026129 -161.559513 
L 517.542902 -160.332427 
L 514.059674 -152.150738 
L 510.576447 -159.156842 
L 507.093219 -160.297489 
L 503.609992 -153.912872 
L 500.126764 -149.613376 
L 496.643537 -121.693939 
L 493.160309 -129.114734 
L 489.677082 -138.241616 
L 486.193854 -156.895551 
L 482.710627 -152.608608 
L 479.227399 -155.788019 
L 475.744172 -155.317426 
L 472.260944 -153.502592 
L 468.777717 -119.323248 
L 465.294489 -129.945527 
L 461.811262 -128.276264 
L 458.328034 -127.848807 
L 454.844807 -132.933159 
L 451.361579 -136.073362 
L 447.878352 -132.151039 
L 444.395124 -128.724493 
L 440.911896 -142.640608 
L 437.428669 -158.525103 
L 433.945441 -157.205384 
L 430.462214 -150.944242 
L 426.978986 -142.531342 
L 423.495759 -146.853706 
L 420.012531 -167.740803 
L 416.529304 -128.163785 
L 413.046076 -128.339071 
L 409.562849 -117.307377 
L 406.079621 -122.575548 
L 402.596394 -125.846201 
L 399.113166 -133.391869 
L 395.629939 -122.378151 
L 392.146711 -128.290241 
L 388.663484 -129.246159 
L 385.180256 -128.001278 
L 381.697029 -114.460345 
L 378.213801 -117.023606 
L 374.730574 -119.196094 
L 371.247346 -131.062383 
L 367.764119 -121.126524 
L 364.280891 -114.280509 
L 360.797664 -125.774172 
L 357.314436 -130.364133 
L 353.831209 -114.52551 
L 350.347981 -109.060912 
L 346.864754 -107.52272 
L 343.381526 -114.046457 
L 339.898299 -116.778384 
L 336.415071 -114.555139 
L 332.931844 -119.745299 
L 329.448616 -138.355455 
L 325.965389 -133.413601 
L 322.482161 -133.677761 
L 318.998934 -131.474536 
L 315.515706 -120.808895 
L 312.032479 -117.573976 
L 308.549251 -110.122666 
L 305.066023 -104.095846 
L 301.582796 -130.396907 
L 298.099568 -129.861953 
L 294.616341 -158.286422 
L 291.133113 -173.95973 
L 287.649886 -169.27365 
L 284.166658 -153.085754 
L 280.683431 -147.094535 
L 277.200203 -125.274055 
L 273.716976 -115.044142 
L 270.233748 -107.414546 
L 266.750521 -107.693285 
L 263.267293 -114.832439 
L 259.784066 -106.209437 
L 256.300838 -105.669698 
L 252.817611 -107.672234 
L 249.334383 -118.968656 
L 245.851156 -125.269195 
L 242.367928 -141.233427 
L 238.884701 -124.352594 
L 235.401473 -122.338534 
L 231.918246 -120.481054 
L 228.435018 -116.146153 
L 224.951791 -123.692577 
L 221.468563 -126.525522 
L 217.985336 -121.777871 
L 214.502108 -136.556077 
L 211.018881 -132.747656 
L 207.535653 -142.939454 
L 204.052426 -131.904934 
L 200.569198 -146.716496 
L 197.085971 -133.396099 
L 193.602743 -127.556017 
L 190.119516 -117.912732 
L 186.636288 -104.293535 
L 183.153061 -103.140842 
L 179.669833 -101.677391 
L 176.186605 -98.603087 
L 172.703378 -96.183305 
L 169.22015 -97.798575 
L 165.736923 -97.226483 
L 162.253695 -97.343786 
L 158.770468 -108.282692 
L 155.28724 -107.86034 
L 151.804013 -101.975165 
L 148.320785 -101.200773 
L 144.837558 -100.344257 
L 141.35433 -97.967602 
L 137.871103 -96.348108 
L 134.387875 -107.673382 
L 130.904648 -112.813703 
L 127.42142 -101.792026 
L 123.938193 -102.323641 
L 120.454965 -103.483093 
L 116.971738 -96.384965 
L 113.48851 -95.631138 
L 110.005283 -94.556026 
L 106.522055 -103.278602 
L 103.038828 -97.973223 
L 99.5556 -101.898696 
L 96.072373 -102.316191 
L 92.589145 -97.142069 
L 89.105918 -115.714026 
L 85.62269 -110.361415 
L 82.139463 -106.738233 
L 78.656235 -102.539659 
L 75.173008 -102.165784 
L 71.68978 -98.863485 
L 68.206553 -110.104756 
L 64.723325 -116.344739 
L 61.240098 -109.601493 
L 57.75687 -125.83786 
L 54.273643 -123.048269 
L 50.790415 -104.126179 
L 47.307188 -106.349595 
z
" style="stroke: #808080; stroke-opacity: 0.7"/>
    </defs>
    <g clip-path="url(#p51176b0c92)">
     <use xlink:href="#m01e29301c2" x="0" y="424.5775" style="fill: #808080; fill-opacity: 0.7; stroke: #808080; stroke-opacity: 0.7"/>
    </g>
   </g>
   <g id="line2d_31">
    <path d="M 47.307188 339.900374 
L 50.790415 338.99865 
L 54.273643 324.652835 
L 57.75687 324.384631 
L 61.240098 335.853512 
L 64.723325 328.274104 
L 68.206553 311.168168 
L 71.68978 319.758132 
L 75.173008 310.238885 
L 78.656235 316.888212 
L 82.139463 310.78911 
L 85.62269 309.828184 
L 89.105918 279.541769 
L 92.589145 271.082997 
L 96.072373 293.643506 
L 99.5556 315.275487 
L 103.038828 305.408619 
L 106.522055 344.590778 
L 110.005283 324.211851 
L 113.48851 310.671179 
L 116.971738 314.81168 
L 120.454965 317.785604 
L 123.938193 296.377172 
L 127.42142 305.431208 
L 130.904648 307.125505 
L 134.387875 314.393449 
L 137.871103 311.089048 
L 141.35433 309.783633 
L 144.837558 311.69558 
L 148.320785 307.124024 
L 151.804013 294.550425 
L 155.28724 299.919713 
L 158.770468 302.90701 
L 162.253695 319.806751 
L 165.736923 307.386993 
L 169.22015 299.449734 
L 172.703378 304.620275 
L 176.186605 317.18424 
L 179.669833 313.6019 
L 183.153061 312.291191 
L 186.636288 302.396761 
L 190.119516 298.099873 
L 193.602743 315.943198 
L 197.085971 316.23286 
L 200.569198 324.088881 
L 204.052426 313.354703 
L 207.535653 327.477167 
L 211.018881 335.766465 
L 214.502108 334.656462 
L 217.985336 341.80979 
L 221.468563 337.528007 
L 224.951791 338.871128 
L 228.435018 338.686879 
L 231.918246 334.27186 
L 235.401473 335.186524 
L 238.884701 335.626226 
L 242.367928 342.643348 
L 245.851156 335.624214 
L 249.334383 350.645164 
L 252.817611 334.125868 
L 256.300838 343.91309 
L 259.784066 333.48013 
L 263.267293 330.482307 
L 266.750521 332.029514 
L 270.233748 338.65353 
L 273.716976 335.845858 
L 277.200203 338.640024 
L 280.683431 345.849384 
L 284.166658 338.390749 
L 287.649886 339.298646 
L 291.133113 344.193924 
L 294.616341 339.424949 
L 298.099568 336.533157 
L 301.582796 314.645192 
L 305.066023 317.360851 
L 308.549251 325.14087 
L 312.032479 332.419657 
L 315.515706 328.176693 
L 318.998934 308.9292 
L 322.482161 322.109449 
L 325.965389 325.198804 
L 329.448616 323.509054 
L 332.931844 321.100904 
L 336.415071 314.619065 
L 339.898299 327.156318 
L 343.381526 309.990195 
L 346.864754 308.985785 
L 350.347981 302.661635 
L 353.831209 316.49937 
L 357.314436 315.417816 
L 360.797664 292.773461 
L 364.280891 317.805584 
L 367.764119 320.894099 
L 371.247346 316.469985 
L 374.730574 319.032083 
L 378.213801 307.776678 
L 381.697029 309.860133 
L 385.180256 324.049351 
L 388.663484 326.750157 
L 392.146711 329.808923 
L 395.629939 315.404242 
L 399.113166 272.313468 
L 402.596394 290.879584 
L 406.079621 233.312732 
L 409.562849 286.185337 
L 413.046076 288.852945 
L 416.529304 292.046331 
L 420.012531 299.63363 
L 423.495759 311.485569 
L 426.978986 326.409498 
L 430.462214 300.226832 
L 433.945441 297.686268 
L 437.428669 285.275088 
L 440.911896 310.918385 
L 444.395124 298.028512 
L 447.878352 300.830522 
L 451.361579 295.680078 
L 454.844807 292.873009 
L 458.328034 268.517516 
L 461.811262 277.443305 
L 465.294489 265.270165 
L 468.777717 309.459168 
L 472.260944 307.613745 
L 475.744172 300.185688 
L 479.227399 314.268804 
L 482.710627 289.159449 
L 486.193854 242.980751 
L 489.677082 302.26798 
L 493.160309 306.235281 
L 496.643537 319.73132 
L 500.126764 317.423571 
L 503.609992 334.059135 
L 507.093219 335.10205 
L 510.576447 328.65921 
L 514.059674 325.855639 
L 517.542902 321.136494 
L 521.026129 254.870812 
L 524.509357 228.639078 
L 527.992584 224.409987 
L 531.475812 221.045179 
L 534.959039 250.106749 
L 538.442267 277.642258 
L 541.925494 302.996735 
L 545.408722 253.445826 
L 548.891949 266.782504 
L 552.375177 289.068862 
L 555.858404 289.860261 
L 559.341632 278.77157 
L 562.824859 260.493404 
L 566.308087 295.278056 
L 569.791314 304.196514 
L 573.274542 303.620258 
L 576.75777 313.933967 
L 580.240997 307.794814 
L 583.724225 298.165719 
L 587.207452 280.856235 
L 590.69068 293.205821 
L 594.173907 272.666383 
L 597.657135 291.774746 
L 601.140362 267.269305 
L 604.62359 222.613184 
L 608.106817 240.418345 
L 611.590045 157.539871 
L 615.073272 239.851524 
L 618.5565 205.372283 
L 622.039727 250.022155 
L 625.522955 241.386063 
L 629.006182 251.714977 
L 632.48941 288.835787 
L 635.972637 288.667263 
L 639.455865 293.500054 
L 642.939092 241.505661 
L 646.42232 246.031058 
L 649.905547 267.802517 
L 653.388775 235.598989 
L 656.872002 194.176073 
L 660.35523 232.812814 
L 663.838457 266.138969 
L 667.321685 253.98821 
L 670.804912 249.597514 
L 674.28814 232.940573 
L 677.771367 217.545546 
L 681.254595 237.306452 
L 684.737822 231.080826 
L 688.22105 251.067059 
L 691.704277 256.639161 
L 695.187505 260.906846 
L 698.670732 280.882892 
L 702.15396 290.132444 
L 705.637188 249.468614 
L 705.637188 249.468614 
" clip-path="url(#p51176b0c92)" style="fill: none; stroke: #ff8c00; stroke-width: 2.3; stroke-linecap: square"/>
   </g>
   <g id="line2d_32">
    <path d="M 284.166658 384.117812 
L 284.166658 23.837812 
" clip-path="url(#p51176b0c92)" style="fill: none; stroke-dasharray: 5.55,2.4; stroke-dashoffset: 0; stroke: #808080; stroke-width: 1.5"/>
   </g>
   <g id="line2d_33">
    <path d="M 486.193854 384.117812 
L 486.193854 23.837812 
" clip-path="url(#p51176b0c92)" style="fill: none; stroke-dasharray: 5.55,2.4; stroke-dashoffset: 0; stroke: #808080; stroke-width: 1.5"/>
   </g>
   <g id="patch_3">
    <path d="M 47.307188 384.117812 
L 47.307188 23.837812 
" style="fill: none; stroke: #000000; stroke-width: 0.8; stroke-linejoin: miter; stroke-linecap: square"/>
   </g>
   <g id="patch_4">
    <path d="M 705.637188 384.117812 
L 705.637188 23.837812 
" style="fill: none; stroke: #000000; stroke-width: 0.8; stroke-linejoin: miter; stroke-linecap: square"/>
   </g>
   <g id="patch_5">
    <path d="M 47.307188 384.117812 
L 705.637188 384.117812 
" style="fill: none; stroke: #000000; stroke-width: 0.8; stroke-linejoin: miter; stroke-linecap: square"/>
   </g>
   <g id="patch_6">
    <path d="M 47.307188 23.837812 
L 705.637188 23.837812 
" style="fill: none; stroke: #000000; stroke-width: 0.8; stroke-linejoin: miter; stroke-linecap: square"/>
   </g>
   <g id="text_18">
    <!-- Facial trace: ADHD (female) -->
    <g transform="translate(279.241094 17.837812) scale(0.14 -0.14)">
     <defs>
      <path id="DejaVuSans-46" d="M 628 4666 
L 3309 4666 
L 3309 4134 
L 1259 4134 
L 1259 2759 
L 3109 2759 
L 3109 2228 
L 1259 2228 
L 1259 0 
L 628 0 
L 628 4666 
z
" transform="scale(0.015625)"/>
      <path id="DejaVuSans-63" d="M 3122 3366 
L 3122 2828 
Q 2878 2963 2633 3030 
Q 2388 3097 2138 3097 
Q 1578 3097 1268 2742 
Q 959 2388 959 1747 
Q 959 1106 1268 751 
Q 1578 397 2138 397 
Q 2388 397 2633 464 
Q 2878 531 3122 666 
L 3122 134 
Q 2881 22 2623 -34 
Q 2366 -91 2075 -91 
Q 1284 -91 818 406 
Q 353 903 353 1747 
Q 353 2603 823 3093 
Q 1294 3584 2113 3584 
Q 2378 3584 2631 3529 
Q 2884 3475 3122 3366 
z
" transform="scale(0.015625)"/>
      <path id="DejaVuSans-6c" d="M 603 4863 
L 1178 4863 
L 1178 0 
L 603 0 
L 603 4863 
z
" transform="scale(0.015625)"/>
      <path id="DejaVuSans-72" d="M 2631 2963 
Q 2534 3019 2420 3045 
Q 2306 3072 2169 3072 
Q 1681 3072 1420 2755 
Q 1159 2438 1159 1844 
L 1159 0 
L 581 0 
L 581 3500 
L 1159 3500 
L 1159 2956 
Q 1341 3275 1631 3429 
Q 1922 3584 2338 3584 
Q 2397 3584 2469 3576 
Q 2541 3569 2628 3553 
L 2631 2963 
z
" transform="scale(0.015625)"/>
      <path id="DejaVuSans-3a" d="M 750 794 
L 1409 794 
L 1409 0 
L 750 0 
L 750 794 
z
M 750 3309 
L 1409 3309 
L 1409 2516 
L 750 2516 
L 750 3309 
z
" transform="scale(0.015625)"/>
      <path id="DejaVuSans-44" d="M 1259 4147 
L 1259 519 
L 2022 519 
Q 2988 519 3436 956 
Q 3884 1394 3884 2338 
Q 3884 3275 3436 3711 
Q 2988 4147 2022 4147 
L 1259 4147 
z
M 628 4666 
L 1925 4666 
Q 3281 4666 3915 4102 
Q 4550 3538 4550 2338 
Q 4550 1131 3912 565 
Q 3275 0 1925 0 
L 628 0 
L 628 4666 
z
" transform="scale(0.015625)"/>
      <path id="DejaVuSans-48" d="M 628 4666 
L 1259 4666 
L 1259 2753 
L 3553 2753 
L 3553 4666 
L 4184 4666 
L 4184 0 
L 3553 0 
L 3553 2222 
L 1259 2222 
L 1259 0 
L 628 0 
L 628 4666 
z
" transform="scale(0.015625)"/>
      <path id="DejaVuSans-66" d="M 2375 4863 
L 2375 4384 
L 1825 4384 
Q 1516 4384 1395 4259 
Q 1275 4134 1275 3809 
L 1275 3500 
L 2222 3500 
L 2222 3053 
L 1275 3053 
L 1275 0 
L 697 0 
L 697 3053 
L 147 3053 
L 147 3500 
L 697 3500 
L 697 3744 
Q 697 4328 969 4595 
Q 1241 4863 1831 4863 
L 2375 4863 
z
" transform="scale(0.015625)"/>
     </defs>
     <use xlink:href="#DejaVuSans-46"/>
     <use xlink:href="#DejaVuSans-61" transform="translate(48.394531 0)"/>
     <use xlink:href="#DejaVuSans-63" transform="translate(109.673828 0)"/>
     <use xlink:href="#DejaVuSans-69" transform="translate(164.654297 0)"/>
     <use xlink:href="#DejaVuSans-61" transform="translate(192.4375 0)"/>
     <use xlink:href="#DejaVuSans-6c" transform="translate(253.716797 0)"/>
     <use xlink:href="#DejaVuSans-20" transform="translate(281.5 0)"/>
     <use xlink:href="#DejaVuSans-74" transform="translate(313.287109 0)"/>
     <use xlink:href="#DejaVuSans-72" transform="translate(352.496094 0)"/>
     <use xlink:href="#DejaVuSans-61" transform="translate(393.609375 0)"/>
     <use xlink:href="#DejaVuSans-63" transform="translate(454.888672 0)"/>
     <use xlink:href="#DejaVuSans-65" transform="translate(509.869141 0)"/>
     <use xlink:href="#DejaVuSans-3a" transform="translate(571.392578 0)"/>
     <use xlink:href="#DejaVuSans-20" transform="translate(605.083984 0)"/>
     <use xlink:href="#DejaVuSans-41" transform="translate(636.871094 0)"/>
     <use xlink:href="#DejaVuSans-44" transform="translate(705.279297 0)"/>
     <use xlink:href="#DejaVuSans-48" transform="translate(782.28125 0)"/>
     <use xlink:href="#DejaVuSans-44" transform="translate(857.476562 0)"/>
     <use xlink:href="#DejaVuSans-20" transform="translate(934.478516 0)"/>
     <use xlink:href="#DejaVuSans-28" transform="translate(966.265625 0)"/>
     <use xlink:href="#DejaVuSans-66" transform="translate(1005.279297 0)"/>
     <use xlink:href="#DejaVuSans-65" transform="translate(1040.484375 0)"/>
     <use xlink:href="#DejaVuSans-6d" transform="translate(1102.007812 0)"/>
     <use xlink:href="#DejaVuSans-61" transform="translate(1199.419922 0)"/>
     <use xlink:href="#DejaVuSans-6c" transform="translate(1260.699219 0)"/>
     <use xlink:href="#DejaVuSans-65" transform="translate(1288.482422 0)"/>
     <use xlink:href="#DejaVuSans-29" transform="translate(1350.005859 0)"/>
    </g>
   </g>
   <g id="legend_1">
    <g id="patch_7">
     <path d="M 593.538594 42.096094 
L 615.538594 42.096094 
L 615.538594 34.396094 
L 593.538594 34.396094 
z
" style="fill: #d3d3d3; fill-opacity: 0.5; stroke: #d3d3d3; stroke-opacity: 0.5; stroke-linejoin: miter"/>
    </g>
    <g id="text_19">
     <!-- ADHD ±2 SD -->
     <g transform="translate(624.338594 42.096094) scale(0.11 -0.11)">
      <defs>
       <path id="DejaVuSans-b1" d="M 2944 4013 
L 2944 2803 
L 4684 2803 
L 4684 2272 
L 2944 2272 
L 2944 1063 
L 2419 1063 
L 2419 2272 
L 678 2272 
L 678 2803 
L 2419 2803 
L 2419 4013 
L 2944 4013 
z
M 678 531 
L 4684 531 
L 4684 0 
L 678 0 
L 678 531 
z
" transform="scale(0.015625)"/>
       <path id="DejaVuSans-53" d="M 3425 4513 
L 3425 3897 
Q 3066 4069 2747 4153 
Q 2428 4238 2131 4238 
Q 1616 4238 1336 4038 
Q 1056 3838 1056 3469 
Q 1056 3159 1242 3001 
Q 1428 2844 1947 2747 
L 2328 2669 
Q 3034 2534 3370 2195 
Q 3706 1856 3706 1288 
Q 3706 609 3251 259 
Q 2797 -91 1919 -91 
Q 1588 -91 1214 -16 
Q 841 59 441 206 
L 441 856 
Q 825 641 1194 531 
Q 1563 422 1919 422 
Q 2459 422 2753 634 
Q 3047 847 3047 1241 
Q 3047 1584 2836 1778 
Q 2625 1972 2144 2069 
L 1759 2144 
Q 1053 2284 737 2584 
Q 422 2884 422 3419 
Q 422 4038 858 4394 
Q 1294 4750 2059 4750 
Q 2388 4750 2728 4690 
Q 3069 4631 3425 4513 
z
" transform="scale(0.015625)"/>
      </defs>
      <use xlink:href="#DejaVuSans-41"/>
      <use xlink:href="#DejaVuSans-44" transform="translate(68.408203 0)"/>
      <use xlink:href="#DejaVuSans-48" transform="translate(145.410156 0)"/>
      <use xlink:href="#DejaVuSans-44" transform="translate(220.605469 0)"/>
      <use xlink:href="#DejaVuSans-20" transform="translate(297.607422 0)"/>
      <use xlink:href="#DejaVuSans-b1" transform="translate(329.394531 0)"/>
      <use xlink:href="#DejaVuSans-32" transform="translate(413.183594 0)"/>
      <use xlink:href="#DejaVuSans-20" transform="translate(476.806641 0)"/>
      <use xlink:href="#DejaVuSans-53" transform="translate(508.59375 0)"/>
      <use xlink:href="#DejaVuSans-44" transform="translate(572.070312 0)"/>
     </g>
    </g>
    <g id="patch_8">
     <path d="M 593.538594 58.242031 
L 615.538594 58.242031 
L 615.538594 50.542031 
L 593.538594 50.542031 
z
" style="fill: #808080; fill-opacity: 0.7; stroke: #808080; stroke-opacity: 0.7; stroke-linejoin: miter"/>
    </g>
    <g id="text_20">
     <!-- ADHD ±1 SD -->
     <g transform="translate(624.338594 58.242031) scale(0.11 -0.11)">
      <use xlink:href="#DejaVuSans-41"/>
      <use xlink:href="#DejaVuSans-44" transform="translate(68.408203 0)"/>
      <use xlink:href="#DejaVuSans-48" transform="translate(145.410156 0)"/>
      <use xlink:href="#DejaVuSans-44" transform="translate(220.605469 0)"/>
      <use xlink:href="#DejaVuSans-20" transform="translate(297.607422 0)"/>
      <use xlink:href="#DejaVuSans-b1" transform="translate(329.394531 0)"/>
      <use xlink:href="#DejaVuSans-31" transform="translate(413.183594 0)"/>
      <use xlink:href="#DejaVuSans-20" transform="translate(476.806641 0)"/>
      <use xlink:href="#DejaVuSans-53" transform="translate(508.59375 0)"/>
      <use xlink:href="#DejaVuSans-44" transform="translate(572.070312 0)"/>
     </g>
    </g>
    <g id="line2d_34">
     <path d="M 593.538594 70.537969 
L 604.538594 70.537969 
L 615.538594 70.537969 
" style="fill: none; stroke: #ff8c00; stroke-width: 2.3; stroke-linecap: square"/>
    </g>
    <g id="text_21">
     <!-- Patient -->
     <g transform="translate(624.338594 74.387969) scale(0.11 -0.11)">
      <defs>
       <path id="DejaVuSans-50" d="M 1259 4147 
L 1259 2394 
L 2053 2394 
Q 2494 2394 2734 2622 
Q 2975 2850 2975 3272 
Q 2975 3691 2734 3919 
Q 2494 4147 2053 4147 
L 1259 4147 
z
M 628 4666 
L 2053 4666 
Q 2838 4666 3239 4311 
Q 3641 3956 3641 3272 
Q 3641 2581 3239 2228 
Q 2838 1875 2053 1875 
L 1259 1875 
L 1259 0 
L 628 0 
L 628 4666 
z
" transform="scale(0.015625)"/>
      </defs>
      <use xlink:href="#DejaVuSans-50"/>
      <use xlink:href="#DejaVuSans-61" transform="translate(55.802734 0)"/>
      <use xlink:href="#DejaVuSans-74" transform="translate(117.082031 0)"/>
      <use xlink:href="#DejaVuSans-69" transform="translate(156.291016 0)"/>
      <use xlink:href="#DejaVuSans-65" transform="translate(184.074219 0)"/>
      <use xlink:href="#DejaVuSans-6e" transform="translate(245.597656 0)"/>
      <use xlink:href="#DejaVuSans-74" transform="translate(308.976562 0)"/>
     </g>
    </g>
   </g>
  </g>
 </g>
 <defs>
  <clipPath id="p51176b0c92">
   <rect x="47.307188" y="23.837812" width="658.33" height="360.28"/>
  </clipPath>
 </defs>
</svg>
