<?xml version="1.0" encoding="utf-8" standalone="no"?>
<!DOCTYPE svg PUBLIC "-//W3C//DTD SVG 1.1//EN"
  "http://www.w3.org/Graphics/SVG/1.1/DTD/svg11.dtd">
<svg xmlns:xlink="http://www.w3.org/1999/xlink" width="712.837188pt" height="424.5775pt" viewBox="0 0 712.837188 424.5775" xmlns="http://www.w3.org/2000/svg" version="1.1">
 <metadata>
  <rdf:RDF xmlns:dc="http://purl.org/dc/elements/1.1/" xmlns:cc="http://creativecommons.org/ns#" xmlns:rdf="http://www.w3.org/1999/02/22-rdf-syntax-ns#">
   <cc:Work>
    <dc:type rdf:resource="http://purl.org/dc/dcmitype/StillImage"/>
    <dc:date>2026-06-23T21:44:23.837742</dc:date>
    <dc:format>image/svg+xml</dc:format>
    <dc:creator>
     <cc:Agent>
      <dc:title>Matplotlib v3.10.1, https://matplotlib.org/</dc:title>
     </cc:Agent>
    </dc:creator>
   </cc:Work>
  </rdf:RDF>
 </metadata>
 <defs>
  <style type="text/css">*{stroke-linejoin: round; stroke-linecap: butt}</style>
 </defs>
 <g id="figure_1">
  <g id="patch_1">
   <path d="M 0 424.5775 
L 712.837188 424.5775 
L 712.837188 0 
L 0 0 
z
" style="fill: #ffffff"/>
  </g>
  <g id="axes_1">
   <g id="patch_2">
    <path d="M 47.307188 384.117812 
L 705.637188 384.117812 
L 705.637188 23.837812 
L 47.307188 23.837812 
z
" style="fill: #ffffff"/>
   </g>
   <g id="matplotlib.axis_1">
    <g id="xtick_1">
     <g id="line2d_1">
      <path d="M 47.307188 384.117812 
L 47.307188 23.837812 
" clip-path="url(#pc4cde03d7a)" style="fill: none; stroke: #b0b0b0; stroke-opacity: 0.2; stroke-width: 0.6; stroke-linecap: square"/>
     </g>
     <g id="line2d_2">
      <defs>
       <path id="m9fb00f8229" d="M 0 0 
L 0 3.5 
" style="stroke: #000000; stroke-width: 0.8"/>
      </defs>
      <g>
       <use xlink:href="#m9fb00f8229" x="47.307188" y="384.117812" style="stroke: #000000; stroke-width: 0.8"/>
      </g>
     </g>
     <g id="text_1">
      <!-- 0 -->
      <g transform="translate(43.807813 399.476094) scale(0.11 -0.11)">
       <defs>
        <path id="DejaVuSans-30" d="M 2034 4250 
Q 1547 4250 1301 3770 
Q 1056 3291 1056 2328 
Q 1056 1369 1301 889 
Q 1547 409 2034 409 
Q 2525 409 2770 889 
Q 3016 1369 3016 2328 
Q 3016 3291 2770 3770 
Q 2525 4250 2034 4250 
z
M 2034 4750 
Q 2819 4750 3233 4129 
Q 3647 3509 3647 2328 
Q 3647 1150 3233 529 
Q 2819 -91 2034 -91 
Q 1250 -91 836 529 
Q 422 1150 422 2328 
Q 422 3509 836 4129 
Q 1250 4750 2034 4750 
z
" transform="scale(0.015625)"/>
       </defs>
       <use xlink:href="#DejaVuSans-30"/>
      </g>
     </g>
    </g>
    <g id="xtick_2">
     <g id="line2d_3">
      <path d="M 134.387875 384.117812 
L 134.387875 23.837812 
" clip-path="url(#pc4cde03d7a)" style="fill: none; stroke: #b0b0b0; stroke-opacity: 0.2; stroke-width: 0.6; stroke-linecap: square"/>
     </g>
     <g id="line2d_4">
      <g>
       <use xlink:href="#m9fb00f8229" x="134.387875" y="384.117812" style="stroke: #000000; stroke-width: 0.8"/>
      </g>
     </g>
     <g id="text_2">
      <!-- 25 -->
      <g transform="translate(127.389125 399.476094) scale(0.11 -0.11)">
       <defs>
        <path id="DejaVuSans-32" d="M 1228 531 
L 3431 531 
L 3431 0 
L 469 0 
L 469 531 
Q 828 903 1448 1529 
Q 2069 2156 2228 2338 
Q 2531 2678 2651 2914 
Q 2772 3150 2772 3378 
Q 2772 3750 2511 3984 
Q 2250 4219 1831 4219 
Q 1534 4219 1204 4116 
Q 875 4013 500 3803 
L 500 4441 
Q 881 4594 1212 4672 
Q 1544 4750 1819 4750 
Q 2544 4750 2975 4387 
Q 3406 4025 3406 3419 
Q 3406 3131 3298 2873 
Q 3191 2616 2906 2266 
Q 2828 2175 2409 1742 
Q 1991 1309 1228 531 
z
" transform="scale(0.015625)"/>
        <path id="DejaVuSans-35" d="M 691 4666 
L 3169 4666 
L 3169 4134 
L 1269 4134 
L 1269 2991 
Q 1406 3038 1543 3061 
Q 1681 3084 1819 3084 
Q 2600 3084 3056 2656 
Q 3513 2228 3513 1497 
Q 3513 744 3044 326 
Q 2575 -91 1722 -91 
Q 1428 -91 1123 -41 
Q 819 9 494 109 
L 494 744 
Q 775 591 1075 516 
Q 1375 441 1709 441 
Q 2250 441 2565 725 
Q 2881 1009 2881 1497 
Q 2881 1984 2565 2268 
Q 2250 2553 1709 2553 
Q 1456 2553 1204 2497 
Q 953 2441 691 2322 
L 691 4666 
z
" transform="scale(0.015625)"/>
       </defs>
       <use xlink:href="#DejaVuSans-32"/>
       <use xlink:href="#DejaVuSans-35" transform="translate(63.623047 0)"/>
      </g>
     </g>
    </g>
    <g id="xtick_3">
     <g id="line2d_5">
      <path d="M 221.468563 384.117812 
L 221.468563 23.837812 
" clip-path="url(#pc4cde03d7a)" style="fill: none; stroke: #b0b0b0; stroke-opacity: 0.2; stroke-width: 0.6; stroke-linecap: square"/>
     </g>
     <g id="line2d_6">
      <g>
       <use xlink:href="#m9fb00f8229" x="221.468563" y="384.117812" style="stroke: #000000; stroke-width: 0.8"/>
      </g>
     </g>
     <g id="text_3">
      <!-- 50 -->
      <g transform="translate(214.469813 399.476094) scale(0.11 -0.11)">
       <use xlink:href="#DejaVuSans-35"/>
       <use xlink:href="#DejaVuSans-30" transform="translate(63.623047 0)"/>
      </g>
     </g>
    </g>
    <g id="xtick_4">
     <g id="line2d_7">
      <path d="M 308.549251 384.117812 
L 308.549251 23.837812 
" clip-path="url(#pc4cde03d7a)" style="fill: none; stroke: #b0b0b0; stroke-opacity: 0.2; stroke-width: 0.6; stroke-linecap: square"/>
     </g>
     <g id="line2d_8">
      <g>
       <use xlink:href="#m9fb00f8229" x="308.549251" y="384.117812" style="stroke: #000000; stroke-width: 0.8"/>
      </g>
     </g>
     <g id="text_4">
      <!-- 75 -->
      <g transform="translate(301.550501 399.476094) scale(0.11 -0.11)">
       <defs>
        <path id="DejaVuSans-37" d="M 525 4666 
L 3525 4666 
L 3525 4397 
L 1831 0 
L 1172 0 
L 2766 4134 
L 525 4134 
L 525 4666 
z
" transform="scale(0.015625)"/>
       </defs>
       <use xlink:href="#DejaVuSans-37"/>
       <use xlink:href="#DejaVuSans-35" transform="translate(63.623047 0)"/>
      </g>
     </g>
    </g>
    <g id="xtick_5">
     <g id="line2d_9">
      <path d="M 395.629939 384.117812 
L 395.629939 23.837812 
" clip-path="url(#pc4cde03d7a)" style="fill: none; stroke: #b0b0b0; stroke-opacity: 0.2; stroke-width: 0.6; stroke-linecap: square"/>
     </g>
     <g id="line2d_10">
      <g>
       <use xlink:href="#m9fb00f8229" x="395.629939" y="384.117812" style="stroke: #000000; stroke-width: 0.8"/>
      </g>
     </g>
     <g id="text_5">
      <!-- 100 -->
      <g transform="translate(385.131814 399.476094) scale(0.11 -0.11)">
       <defs>
        <path id="DejaVuSans-31" d="M 794 531 
L 1825 531 
L 1825 4091 
L 703 3866 
L 703 4441 
L 1819 4666 
L 2450 4666 
L 2450 531 
L 3481 531 
L 3481 0 
L 794 0 
L 794 531 
z
" transform="scale(0.015625)"/>
       </defs>
       <use xlink:href="#DejaVuSans-31"/>
       <use xlink:href="#DejaVuSans-30" transform="translate(63.623047 0)"/>
       <use xlink:href="#DejaVuSans-30" transform="translate(127.246094 0)"/>
      </g>
     </g>
    </g>
    <g id="xtick_6">
     <g id="line2d_11">
      <path d="M 482.710627 384.117812 
L 482.710627 23.837812 
" clip-path="url(#pc4cde03d7a)" style="fill: none; stroke: #b0b0b0; stroke-opacity: 0.2; stroke-width: 0.6; stroke-linecap: square"/>
     </g>
     <g id="line2d_12">
      <g>
       <use xlink:href="#m9fb00f8229" x="482.710627" y="384.117812" style="stroke: #000000; stroke-width: 0.8"/>
      </g>
     </g>
     <g id="text_6">
      <!-- 125 -->
      <g transform="translate(472.212502 399.476094) scale(0.11 -0.11)">
       <use xlink:href="#DejaVuSans-31"/>
       <use xlink:href="#DejaVuSans-32" transform="translate(63.623047 0)"/>
       <use xlink:href="#DejaVuSans-35" transform="translate(127.246094 0)"/>
      </g>
     </g>
    </g>
    <g id="xtick_7">
     <g id="line2d_13">
      <path d="M 569.791314 384.117812 
L 569.791314 23.837812 
" clip-path="url(#pc4cde03d7a)" style="fill: none; stroke: #b0b0b0; stroke-opacity: 0.2; stroke-width: 0.6; stroke-linecap: square"/>
     </g>
     <g id="line2d_14">
      <g>
       <use xlink:href="#m9fb00f8229" x="569.791314" y="384.117812" style="stroke: #000000; stroke-width: 0.8"/>
      </g>
     </g>
     <g id="text_7">
      <!-- 150 -->
      <g transform="translate(559.293189 399.476094) scale(0.11 -0.11)">
       <use xlink:href="#DejaVuSans-31"/>
       <use xlink:href="#DejaVuSans-35" transform="translate(63.623047 0)"/>
       <use xlink:href="#DejaVuSans-30" transform="translate(127.246094 0)"/>
      </g>
     </g>
    </g>
    <g id="xtick_8">
     <g id="line2d_15">
      <path d="M 656.872002 384.117812 
L 656.872002 23.837812 
" clip-path="url(#pc4cde03d7a)" style="fill: none; stroke: #b0b0b0; stroke-opacity: 0.2; stroke-width: 0.6; stroke-linecap: square"/>
     </g>
     <g id="line2d_16">
      <g>
       <use xlink:href="#m9fb00f8229" x="656.872002" y="384.117812" style="stroke: #000000; stroke-width: 0.8"/>
      </g>
     </g>
     <g id="text_8">
      <!-- 175 -->
      <g transform="translate(646.373877 399.476094) scale(0.11 -0.11)">
       <use xlink:href="#DejaVuSans-31"/>
       <use xlink:href="#DejaVuSans-37" transform="translate(63.623047 0)"/>
       <use xlink:href="#DejaVuSans-35" transform="translate(127.246094 0)"/>
      </g>
     </g>
    </g>
    <g id="text_9">
     <!-- Time (s) -->
     <g transform="translate(352.0775 414.881875) scale(0.12 -0.12)">
      <defs>
       <path id="DejaVuSans-54" d="M -19 4666 
L 3928 4666 
L 3928 4134 
L 2272 4134 
L 2272 0 
L 1638 0 
L 1638 4134 
L -19 4134 
L -19 4666 
z
" transform="scale(0.015625)"/>
       <path id="DejaVuSans-69" d="M 603 3500 
L 1178 3500 
L 1178 0 
L 603 0 
L 603 3500 
z
M 603 4863 
L 1178 4863 
L 1178 4134 
L 603 4134 
L 603 4863 
z
" transform="scale(0.015625)"/>
       <path id="DejaVuSans-6d" d="M 3328 2828 
Q 3544 3216 3844 3400 
Q 4144 3584 4550 3584 
Q 5097 3584 5394 3201 
Q 5691 2819 5691 2113 
L 5691 0 
L 5113 0 
L 5113 2094 
Q 5113 2597 4934 2840 
Q 4756 3084 4391 3084 
Q 3944 3084 3684 2787 
Q 3425 2491 3425 1978 
L 3425 0 
L 2847 0 
L 2847 2094 
Q 2847 2600 2669 2842 
Q 2491 3084 2119 3084 
Q 1678 3084 1418 2786 
Q 1159 2488 1159 1978 
L 1159 0 
L 581 0 
L 581 3500 
L 1159 3500 
L 1159 2956 
Q 1356 3278 1631 3431 
Q 1906 3584 2284 3584 
Q 2666 3584 2933 3390 
Q 3200 3197 3328 2828 
z
" transform="scale(0.015625)"/>
       <path id="DejaVuSans-65" d="M 3597 1894 
L 3597 1613 
L 953 1613 
Q 991 1019 1311 708 
Q 1631 397 2203 397 
Q 2534 397 2845 478 
Q 3156 559 3463 722 
L 3463 178 
Q 3153 47 2828 -22 
Q 2503 -91 2169 -91 
Q 1331 -91 842 396 
Q 353 884 353 1716 
Q 353 2575 817 3079 
Q 1281 3584 2069 3584 
Q 2775 3584 3186 3129 
Q 3597 2675 3597 1894 
z
M 3022 2063 
Q 3016 2534 2758 2815 
Q 2500 3097 2075 3097 
Q 1594 3097 1305 2825 
Q 1016 2553 972 2059 
L 3022 2063 
z
" transform="scale(0.015625)"/>
       <path id="DejaVuSans-20" transform="scale(0.015625)"/>
       <path id="DejaVuSans-28" d="M 1984 4856 
Q 1566 4138 1362 3434 
Q 1159 2731 1159 2009 
Q 1159 1288 1364 580 
Q 1569 -128 1984 -844 
L 1484 -844 
Q 1016 -109 783 600 
Q 550 1309 550 2009 
Q 550 2706 781 3412 
Q 1013 4119 1484 4856 
L 1984 4856 
z
" transform="scale(0.015625)"/>
       <path id="DejaVuSans-73" d="M 2834 3397 
L 2834 2853 
Q 2591 2978 2328 3040 
Q 2066 3103 1784 3103 
Q 1356 3103 1142 2972 
Q 928 2841 928 2578 
Q 928 2378 1081 2264 
Q 1234 2150 1697 2047 
L 1894 2003 
Q 2506 1872 2764 1633 
Q 3022 1394 3022 966 
Q 3022 478 2636 193 
Q 2250 -91 1575 -91 
Q 1294 -91 989 -36 
Q 684 19 347 128 
L 347 722 
Q 666 556 975 473 
Q 1284 391 1588 391 
Q 1994 391 2212 530 
Q 2431 669 2431 922 
Q 2431 1156 2273 1281 
Q 2116 1406 1581 1522 
L 1381 1569 
Q 847 1681 609 1914 
Q 372 2147 372 2553 
Q 372 3047 722 3315 
Q 1072 3584 1716 3584 
Q 2034 3584 2315 3537 
Q 2597 3491 2834 3397 
z
" transform="scale(0.015625)"/>
       <path id="DejaVuSans-29" d="M 513 4856 
L 1013 4856 
Q 1481 4119 1714 3412 
Q 1947 2706 1947 2009 
Q 1947 1309 1714 600 
Q 1481 -109 1013 -844 
L 513 -844 
Q 928 -128 1133 580 
Q 1338 1288 1338 2009 
Q 1338 2731 1133 3434 
Q 928 4138 513 4856 
z
" transform="scale(0.015625)"/>
      </defs>
      <use xlink:href="#DejaVuSans-54"/>
      <use xlink:href="#DejaVuSans-69" transform="translate(57.958984 0)"/>
      <use xlink:href="#DejaVuSans-6d" transform="translate(85.742188 0)"/>
      <use xlink:href="#DejaVuSans-65" transform="translate(183.154297 0)"/>
      <use xlink:href="#DejaVuSans-20" transform="translate(244.677734 0)"/>
      <use xlink:href="#DejaVuSans-28" transform="translate(276.464844 0)"/>
      <use xlink:href="#DejaVuSans-73" transform="translate(315.478516 0)"/>
      <use xlink:href="#DejaVuSans-29" transform="translate(367.578125 0)"/>
     </g>
    </g>
   </g>
   <g id="matplotlib.axis_2">
    <g id="ytick_1">
     <g id="line2d_17">
      <path d="M 47.307188 367.741449 
L 705.637188 367.741449 
" clip-path="url(#pc4cde03d7a)" style="fill: none; stroke: #b0b0b0; stroke-opacity: 0.2; stroke-width: 0.6; stroke-linecap: square"/>
     </g>
     <g id="line2d_18">
      <defs>
       <path id="me3345f893b" d="M 0 0 
L -3.5 0 
" style="stroke: #000000; stroke-width: 0.8"/>
      </defs>
      <g>
       <use xlink:href="#me3345f893b" x="47.307188" y="367.741449" style="stroke: #000000; stroke-width: 0.8"/>
      </g>
     </g>
     <g id="text_10">
      <!-- 0.0 -->
      <g transform="translate(22.81375 371.920589) scale(0.11 -0.11)">
       <defs>
        <path id="DejaVuSans-2e" d="M 684 794 
L 1344 794 
L 1344 0 
L 684 0 
L 684 794 
z
" transform="scale(0.015625)"/>
       </defs>
       <use xlink:href="#DejaVuSans-30"/>
       <use xlink:href="#DejaVuSans-2e" transform="translate(63.623047 0)"/>
       <use xlink:href="#DejaVuSans-30" transform="translate(95.410156 0)"/>
      </g>
     </g>
    </g>
    <g id="ytick_2">
     <g id="line2d_19">
      <path d="M 47.307188 317.507205 
L 705.637188 317.507205 
" clip-path="url(#pc4cde03d7a)" style="fill: none; stroke: #b0b0b0; stroke-opacity: 0.2; stroke-width: 0.6; stroke-linecap: square"/>
     </g>
     <g id="line2d_20">
      <g>
       <use xlink:href="#me3345f893b" x="47.307188" y="317.507205" style="stroke: #000000; stroke-width: 0.8"/>
      </g>
     </g>
     <g id="text_11">
      <!-- 0.5 -->
      <g transform="translate(22.81375 321.686345) scale(0.11 -0.11)">
       <use xlink:href="#DejaVuSans-30"/>
       <use xlink:href="#DejaVuSans-2e" transform="translate(63.623047 0)"/>
       <use xlink:href="#DejaVuSans-35" transform="translate(95.410156 0)"/>
      </g>
     </g>
    </g>
    <g id="ytick_3">
     <g id="line2d_21">
      <path d="M 47.307188 267.27296 
L 705.637188 267.27296 
" clip-path="url(#pc4cde03d7a)" style="fill: none; stroke: #b0b0b0; stroke-opacity: 0.2; stroke-width: 0.6; stroke-linecap: square"/>
     </g>
     <g id="line2d_22">
      <g>
       <use xlink:href="#me3345f893b" x="47.307188" y="267.27296" style="stroke: #000000; stroke-width: 0.8"/>
      </g>
     </g>
     <g id="text_12">
      <!-- 1.0 -->
      <g transform="translate(22.81375 271.452101) scale(0.11 -0.11)">
       <use xlink:href="#DejaVuSans-31"/>
       <use xlink:href="#DejaVuSans-2e" transform="translate(63.623047 0)"/>
       <use xlink:href="#DejaVuSans-30" transform="translate(95.410156 0)"/>
      </g>
     </g>
    </g>
    <g id="ytick_4">
     <g id="line2d_23">
      <path d="M 47.307188 217.038716 
L 705.637188 217.038716 
" clip-path="url(#pc4cde03d7a)" style="fill: none; stroke: #b0b0b0; stroke-opacity: 0.2; stroke-width: 0.6; stroke-linecap: square"/>
     </g>
     <g id="line2d_24">
      <g>
       <use xlink:href="#me3345f893b" x="47.307188" y="217.038716" style="stroke: #000000; stroke-width: 0.8"/>
      </g>
     </g>
     <g id="text_13">
      <!-- 1.5 -->
      <g transform="translate(22.81375 221.217857) scale(0.11 -0.11)">
       <use xlink:href="#DejaVuSans-31"/>
       <use xlink:href="#DejaVuSans-2e" transform="translate(63.623047 0)"/>
       <use xlink:href="#DejaVuSans-35" transform="translate(95.410156 0)"/>
      </g>
     </g>
    </g>
    <g id="ytick_5">
     <g id="line2d_25">
      <path d="M 47.307188 166.804472 
L 705.637188 166.804472 
" clip-path="url(#pc4cde03d7a)" style="fill: none; stroke: #b0b0b0; stroke-opacity: 0.2; stroke-width: 0.6; stroke-linecap: square"/>
     </g>
     <g id="line2d_26">
      <g>
       <use xlink:href="#me3345f893b" x="47.307188" y="166.804472" style="stroke: #000000; stroke-width: 0.8"/>
      </g>
     </g>
     <g id="text_14">
      <!-- 2.0 -->
      <g transform="translate(22.81375 170.983612) scale(0.11 -0.11)">
       <use xlink:href="#DejaVuSans-32"/>
       <use xlink:href="#DejaVuSans-2e" transform="translate(63.623047 0)"/>
       <use xlink:href="#DejaVuSans-30" transform="translate(95.410156 0)"/>
      </g>
     </g>
    </g>
    <g id="ytick_6">
     <g id="line2d_27">
      <path d="M 47.307188 116.570227 
L 705.637188 116.570227 
" clip-path="url(#pc4cde03d7a)" style="fill: none; stroke: #b0b0b0; stroke-opacity: 0.2; stroke-width: 0.6; stroke-linecap: square"/>
     </g>
     <g id="line2d_28">
      <g>
       <use xlink:href="#me3345f893b" x="47.307188" y="116.570227" style="stroke: #000000; stroke-width: 0.8"/>
      </g>
     </g>
     <g id="text_15">
      <!-- 2.5 -->
      <g transform="translate(22.81375 120.749368) scale(0.11 -0.11)">
       <use xlink:href="#DejaVuSans-32"/>
       <use xlink:href="#DejaVuSans-2e" transform="translate(63.623047 0)"/>
       <use xlink:href="#DejaVuSans-35" transform="translate(95.410156 0)"/>
      </g>
     </g>
    </g>
    <g id="ytick_7">
     <g id="line2d_29">
      <path d="M 47.307188 66.335983 
L 705.637188 66.335983 
" clip-path="url(#pc4cde03d7a)" style="fill: none; stroke: #b0b0b0; stroke-opacity: 0.2; stroke-width: 0.6; stroke-linecap: square"/>
     </g>
     <g id="line2d_30">
      <g>
       <use xlink:href="#me3345f893b" x="47.307188" y="66.335983" style="stroke: #000000; stroke-width: 0.8"/>
      </g>
     </g>
     <g id="text_16">
      <!-- 3.0 -->
      <g transform="translate(22.81375 70.515124) scale(0.11 -0.11)">
       <defs>
        <path id="DejaVuSans-33" d="M 2597 2516 
Q 3050 2419 3304 2112 
Q 3559 1806 3559 1356 
Q 3559 666 3084 287 
Q 2609 -91 1734 -91 
Q 1441 -91 1130 -33 
Q 819 25 488 141 
L 488 750 
Q 750 597 1062 519 
Q 1375 441 1716 441 
Q 2309 441 2620 675 
Q 2931 909 2931 1356 
Q 2931 1769 2642 2001 
Q 2353 2234 1838 2234 
L 1294 2234 
L 1294 2753 
L 1863 2753 
Q 2328 2753 2575 2939 
Q 2822 3125 2822 3475 
Q 2822 3834 2567 4026 
Q 2313 4219 1838 4219 
Q 1578 4219 1281 4162 
Q 984 4106 628 3988 
L 628 4550 
Q 988 4650 1302 4700 
Q 1616 4750 1894 4750 
Q 2613 4750 3031 4423 
Q 3450 4097 3450 3541 
Q 3450 3153 3228 2886 
Q 3006 2619 2597 2516 
z
" transform="scale(0.015625)"/>
       </defs>
       <use xlink:href="#DejaVuSans-33"/>
       <use xlink:href="#DejaVuSans-2e" transform="translate(63.623047 0)"/>
       <use xlink:href="#DejaVuSans-30" transform="translate(95.410156 0)"/>
      </g>
     </g>
    </g>
    <g id="text_17">
     <!-- AU mean intensity -->
     <g transform="translate(16.318125 259.314687) rotate(-90) scale(0.12 -0.12)">
      <defs>
       <path id="DejaVuSans-41" d="M 2188 4044 
L 1331 1722 
L 3047 1722 
L 2188 4044 
z
M 1831 4666 
L 2547 4666 
L 4325 0 
L 3669 0 
L 3244 1197 
L 1141 1197 
L 716 0 
L 50 0 
L 1831 4666 
z
" transform="scale(0.015625)"/>
       <path id="DejaVuSans-55" d="M 556 4666 
L 1191 4666 
L 1191 1831 
Q 1191 1081 1462 751 
Q 1734 422 2344 422 
Q 2950 422 3222 751 
Q 3494 1081 3494 1831 
L 3494 4666 
L 4128 4666 
L 4128 1753 
Q 4128 841 3676 375 
Q 3225 -91 2344 -91 
Q 1459 -91 1007 375 
Q 556 841 556 1753 
L 556 4666 
z
" transform="scale(0.015625)"/>
       <path id="DejaVuSans-61" d="M 2194 1759 
Q 1497 1759 1228 1600 
Q 959 1441 959 1056 
Q 959 750 1161 570 
Q 1363 391 1709 391 
Q 2188 391 2477 730 
Q 2766 1069 2766 1631 
L 2766 1759 
L 2194 1759 
z
M 3341 1997 
L 3341 0 
L 2766 0 
L 2766 531 
Q 2569 213 2275 61 
Q 1981 -91 1556 -91 
Q 1019 -91 701 211 
Q 384 513 384 1019 
Q 384 1609 779 1909 
Q 1175 2209 1959 2209 
L 2766 2209 
L 2766 2266 
Q 2766 2663 2505 2880 
Q 2244 3097 1772 3097 
Q 1472 3097 1187 3025 
Q 903 2953 641 2809 
L 641 3341 
Q 956 3463 1253 3523 
Q 1550 3584 1831 3584 
Q 2591 3584 2966 3190 
Q 3341 2797 3341 1997 
z
" transform="scale(0.015625)"/>
       <path id="DejaVuSans-6e" d="M 3513 2113 
L 3513 0 
L 2938 0 
L 2938 2094 
Q 2938 2591 2744 2837 
Q 2550 3084 2163 3084 
Q 1697 3084 1428 2787 
Q 1159 2491 1159 1978 
L 1159 0 
L 581 0 
L 581 3500 
L 1159 3500 
L 1159 2956 
Q 1366 3272 1645 3428 
Q 1925 3584 2291 3584 
Q 2894 3584 3203 3211 
Q 3513 2838 3513 2113 
z
" transform="scale(0.015625)"/>
       <path id="DejaVuSans-74" d="M 1172 4494 
L 1172 3500 
L 2356 3500 
L 2356 3053 
L 1172 3053 
L 1172 1153 
Q 1172 725 1289 603 
Q 1406 481 1766 481 
L 2356 481 
L 2356 0 
L 1766 0 
Q 1100 0 847 248 
Q 594 497 594 1153 
L 594 3053 
L 172 3053 
L 172 3500 
L 594 3500 
L 594 4494 
L 1172 4494 
z
" transform="scale(0.015625)"/>
       <path id="DejaVuSans-79" d="M 2059 -325 
Q 1816 -950 1584 -1140 
Q 1353 -1331 966 -1331 
L 506 -1331 
L 506 -850 
L 844 -850 
Q 1081 -850 1212 -737 
Q 1344 -625 1503 -206 
L 1606 56 
L 191 3500 
L 800 3500 
L 1894 763 
L 2988 3500 
L 3597 3500 
L 2059 -325 
z
" transform="scale(0.015625)"/>
      </defs>
      <use xlink:href="#DejaVuSans-41"/>
      <use xlink:href="#DejaVuSans-55" transform="translate(68.408203 0)"/>
      <use xlink:href="#DejaVuSans-20" transform="translate(141.601562 0)"/>
      <use xlink:href="#DejaVuSans-6d" transform="translate(173.388672 0)"/>
      <use xlink:href="#DejaVuSans-65" transform="translate(270.800781 0)"/>
      <use xlink:href="#DejaVuSans-61" transform="translate(332.324219 0)"/>
      <use xlink:href="#DejaVuSans-6e" transform="translate(393.603516 0)"/>
      <use xlink:href="#DejaVuSans-20" transform="translate(456.982422 0)"/>
      <use xlink:href="#DejaVuSans-69" transform="translate(488.769531 0)"/>
      <use xlink:href="#DejaVuSans-6e" transform="translate(516.552734 0)"/>
      <use xlink:href="#DejaVuSans-74" transform="translate(579.931641 0)"/>
      <use xlink:href="#DejaVuSans-65" transform="translate(619.140625 0)"/>
      <use xlink:href="#DejaVuSans-6e" transform="translate(680.664062 0)"/>
      <use xlink:href="#DejaVuSans-73" transform="translate(744.042969 0)"/>
      <use xlink:href="#DejaVuSans-69" transform="translate(796.142578 0)"/>
      <use xlink:href="#DejaVuSans-74" transform="translate(823.925781 0)"/>
      <use xlink:href="#DejaVuSans-79" transform="translate(863.134766 0)"/>
     </g>
    </g>
   </g>
   <g id="FillBetweenPolyCollection_1">
    <defs>
     <path id="md4b677c0c5" d="M 47.307188 -156.01669 
L 47.307188 -23.486423 
L 50.790415 -34.462195 
L 54.273643 -39.601496 
L 57.75687 -41.232791 
L 61.240098 -38.401386 
L 64.723325 -36.692509 
L 68.206553 -32.623587 
L 71.68978 -36.680121 
L 75.173008 -36.075658 
L 78.656235 -32.706891 
L 82.139463 -31.565635 
L 85.62269 -27.682607 
L 89.105918 -22.743464 
L 92.589145 -36.336506 
L 96.072373 -42.091889 
L 99.5556 -35.531638 
L 103.038828 -42.395341 
L 106.522055 -35.622884 
L 110.005283 -42.138872 
L 113.48851 -37.123319 
L 116.971738 -37.838366 
L 120.454965 -38.101928 
L 123.938193 -36.764795 
L 127.42142 -31.205013 
L 130.904648 -35.306246 
L 134.387875 -32.989387 
L 137.871103 -33.708822 
L 141.35433 -37.847098 
L 144.837558 -40.403412 
L 148.320785 -39.720079 
L 151.804013 -33.180508 
L 155.28724 -25.717965 
L 158.770468 -21.56411 
L 162.253695 -38.35447 
L 165.736923 -42.689227 
L 169.22015 -36.875073 
L 172.703378 -38.379512 
L 176.186605 -37.099915 
L 179.669833 -32.720658 
L 183.153061 -31.678006 
L 186.636288 -29.623266 
L 190.119516 -28.190721 
L 193.602743 -32.927682 
L 197.085971 -27.496812 
L 200.569198 -26.384401 
L 204.052426 -41.360606 
L 207.535653 -46.937976 
L 211.018881 -30.304566 
L 214.502108 -38.507844 
L 217.985336 -36.931519 
L 221.468563 -33.931603 
L 224.951791 -40.46163 
L 228.435018 -36.955954 
L 231.918246 -41.947178 
L 235.401473 -30.241623 
L 238.884701 -31.555181 
L 242.367928 -36.685415 
L 245.851156 -33.231658 
L 249.334383 -39.250101 
L 252.817611 -38.74761 
L 256.300838 -36.347909 
L 259.784066 -31.857464 
L 263.267293 -31.143263 
L 266.750521 -36.047963 
L 270.233748 -37.781544 
L 273.716976 -37.326943 
L 277.200203 -22.147052 
L 280.683431 9.072312 
L 284.166658 -26.691323 
L 287.649886 -44.517952 
L 291.133113 -38.947354 
L 294.616341 -37.190667 
L 298.099568 -34.605237 
L 301.582796 -43.257014 
L 305.066023 -44.055842 
L 308.549251 -41.633822 
L 312.032479 -39.77073 
L 315.515706 -45.187006 
L 318.998934 -42.802305 
L 322.482161 -41.802111 
L 325.965389 -37.922307 
L 329.448616 -44.536436 
L 332.931844 -50.622504 
L 336.415071 -49.873197 
L 339.898299 -43.904444 
L 343.381526 -44.194274 
L 346.864754 -48.750455 
L 350.347981 -46.225536 
L 353.831209 -47.129785 
L 357.314436 -43.001835 
L 360.797664 -35.419862 
L 364.280891 -35.739464 
L 367.764119 -37.766858 
L 371.247346 -45.524866 
L 374.730574 -48.00237 
L 378.213801 -45.914898 
L 381.697029 -43.522977 
L 385.180256 -41.841717 
L 388.663484 -39.940278 
L 392.146711 -39.48821 
L 395.629939 -38.913533 
L 399.113166 -30.525602 
L 402.596394 -37.014886 
L 406.079621 -31.215163 
L 409.562849 -35.605667 
L 413.046076 -30.751589 
L 416.529304 -28.22716 
L 420.012531 -9.324443 
L 423.495759 -29.410352 
L 426.978986 -22.362886 
L 430.462214 -27.735272 
L 433.945441 -39.463163 
L 437.428669 -19.246272 
L 440.911896 -31.721007 
L 444.395124 -32.942506 
L 447.878352 -32.544022 
L 451.361579 -27.082524 
L 454.844807 -21.49961 
L 458.328034 -29.846646 
L 461.811262 -41.655449 
L 465.294489 -35.712419 
L 468.777717 -34.341653 
L 472.260944 -12.415582 
L 475.744172 -35.269737 
L 479.227399 -29.507607 
L 482.710627 -30.102638 
L 486.193854 -30.413717 
L 489.677082 -36.511145 
L 493.160309 -28.005548 
L 496.643537 -28.7998 
L 500.126764 9.050789 
L 503.609992 -24.121331 
L 507.093219 -36.859458 
L 510.576447 -24.162827 
L 514.059674 -20.495499 
L 517.542902 8.815828 
L 521.026129 -22.874855 
L 524.509357 -23.613039 
L 527.992584 -26.215592 
L 531.475812 -10.854296 
L 534.959039 -13.650806 
L 538.442267 -25.199158 
L 541.925494 -31.284045 
L 545.408722 -32.000934 
L 548.891949 -31.529292 
L 552.375177 -37.708398 
L 555.858404 -39.636752 
L 559.341632 -33.426489 
L 562.824859 -41.235879 
L 566.308087 -42.140177 
L 569.791314 -38.638149 
L 573.274542 -37.522016 
L 576.75777 -43.113847 
L 580.240997 -39.37882 
L 583.724225 -39.721386 
L 587.207452 -29.917777 
L 590.69068 -6.066069 
L 594.173907 -16.774788 
L 597.657135 -24.473564 
L 601.140362 -45.637249 
L 604.62359 -34.186299 
L 608.106817 -29.830283 
L 611.590045 -27.922865 
L 615.073272 -37.632702 
L 618.5565 -41.97464 
L 622.039727 -35.485129 
L 625.522955 -42.216074 
L 629.006182 -40.75173 
L 632.48941 -39.755574 
L 635.972637 -45.175326 
L 639.455865 -47.494113 
L 642.939092 -42.290343 
L 646.42232 -45.437026 
L 649.905547 -49.34444 
L 653.388775 -34.606504 
L 656.872002 -27.366851 
L 660.35523 -34.889206 
L 663.838457 -34.506969 
L 667.321685 -35.162012 
L 670.804912 -40.379491 
L 674.28814 -49.018305 
L 677.771367 -44.008266 
L 681.254595 -34.388789 
L 684.737822 -27.435785 
L 688.22105 -43.042555 
L 691.704277 -76.49337 
L 695.187505 -66.071044 
L 698.670732 -69.837856 
L 702.15396 -61.383475 
L 705.637188 -63.488902 
L 705.637188 -130.258723 
L 705.637188 -130.258723 
L 702.15396 -134.510742 
L 698.670732 -141.242488 
L 695.187505 -129.67193 
L 691.704277 -149.220525 
L 688.22105 -151.743536 
L 684.737822 -169.582524 
L 681.254595 -167.057372 
L 677.771367 -149.470994 
L 674.28814 -146.753754 
L 670.804912 -176.340768 
L 667.321685 -155.078047 
L 663.838457 -168.837923 
L 660.35523 -173.731851 
L 656.872002 -181.006795 
L 653.388775 -165.336369 
L 649.905547 -162.677518 
L 646.42232 -167.606639 
L 642.939092 -157.067788 
L 639.455865 -152.575904 
L 635.972637 -147.078058 
L 632.48941 -161.506103 
L 629.006182 -158.363892 
L 625.522955 -168.426817 
L 622.039727 -170.583339 
L 618.5565 -164.175839 
L 615.073272 -182.778508 
L 611.590045 -204.43169 
L 608.106817 -203.990939 
L 604.62359 -179.996673 
L 601.140362 -171.32552 
L 597.657135 -192.960299 
L 594.173907 -201.533779 
L 590.69068 -213.943079 
L 587.207452 -169.17919 
L 583.724225 -151.406187 
L 580.240997 -143.725802 
L 576.75777 -144.668081 
L 573.274542 -142.307387 
L 569.791314 -144.471889 
L 566.308087 -136.633907 
L 562.824859 -137.528835 
L 559.341632 -150.461627 
L 555.858404 -141.974984 
L 552.375177 -143.866544 
L 548.891949 -159.186934 
L 545.408722 -152.29492 
L 541.925494 -153.551159 
L 538.442267 -161.998822 
L 534.959039 -180.074488 
L 531.475812 -192.096184 
L 527.992584 -173.505403 
L 524.509357 -169.466478 
L 521.026129 -163.85504 
L 517.542902 -210.247289 
L 514.059674 -163.808693 
L 510.576447 -160.711319 
L 507.093219 -148.04555 
L 503.609992 -167.964162 
L 500.126764 -223.550374 
L 496.643537 -160.612751 
L 493.160309 -165.626311 
L 489.677082 -156.323831 
L 486.193854 -163.596925 
L 482.710627 -152.646894 
L 479.227399 -162.960134 
L 475.744172 -161.494789 
L 472.260944 -184.374582 
L 468.777717 -157.131883 
L 465.294489 -159.435326 
L 461.811262 -140.413921 
L 458.328034 -161.365871 
L 454.844807 -174.976364 
L 451.361579 -179.129408 
L 447.878352 -166.523672 
L 444.395124 -157.584194 
L 440.911896 -176.333764 
L 437.428669 -195.587728 
L 433.945441 -168.271578 
L 430.462214 -177.626346 
L 426.978986 -183.944836 
L 423.495759 -169.348691 
L 420.012531 -200.076029 
L 416.529304 -155.590674 
L 413.046076 -151.569609 
L 409.562849 -136.78103 
L 406.079621 -148.036893 
L 402.596394 -142.984134 
L 399.113166 -162.167721 
L 395.629939 -163.231575 
L 392.146711 -148.213167 
L 388.663484 -149.265401 
L 385.180256 -145.274687 
L 381.697029 -136.977119 
L 378.213801 -135.446209 
L 374.730574 -129.354607 
L 371.247346 -135.554967 
L 367.764119 -147.34163 
L 364.280891 -146.445327 
L 360.797664 -142.253451 
L 357.314436 -130.471315 
L 353.831209 -131.93794 
L 350.347981 -137.711552 
L 346.864754 -131.410529 
L 343.381526 -139.152594 
L 339.898299 -131.488716 
L 336.415071 -132.710321 
L 332.931844 -143.156136 
L 329.448616 -139.739044 
L 325.965389 -134.079725 
L 322.482161 -138.18444 
L 318.998934 -133.689175 
L 315.515706 -123.058111 
L 312.032479 -133.597875 
L 308.549251 -124.769809 
L 305.066023 -126.832685 
L 301.582796 -126.294455 
L 298.099568 -136.837512 
L 294.616341 -145.154139 
L 291.133113 -145.138734 
L 287.649886 -133.907796 
L 284.166658 -156.574528 
L 280.683431 -205.826791 
L 277.200203 -161.92529 
L 273.716976 -139.296529 
L 270.233748 -141.239951 
L 266.750521 -159.515285 
L 263.267293 -158.403739 
L 259.784066 -144.550147 
L 256.300838 -144.219254 
L 252.817611 -136.314203 
L 249.334383 -131.741393 
L 245.851156 -152.130174 
L 242.367928 -181.840388 
L 238.884701 -174.689173 
L 235.401473 -167.514876 
L 231.918246 -149.599995 
L 228.435018 -151.324597 
L 224.951791 -161.292289 
L 221.468563 -171.204219 
L 217.985336 -173.947177 
L 214.502108 -173.399006 
L 211.018881 -168.493927 
L 207.535653 -167.741106 
L 204.052426 -178.368378 
L 200.569198 -188.48415 
L 197.085971 -181.412489 
L 193.602743 -162.328324 
L 190.119516 -157.845343 
L 186.636288 -151.990963 
L 183.153061 -148.617763 
L 179.669833 -145.764838 
L 176.186605 -142.470988 
L 172.703378 -139.016536 
L 169.22015 -134.088052 
L 165.736923 -140.22137 
L 162.253695 -144.864744 
L 158.770468 -170.745152 
L 155.28724 -174.165162 
L 151.804013 -153.915861 
L 148.320785 -149.378008 
L 144.837558 -143.985542 
L 141.35433 -141.617207 
L 137.871103 -142.157667 
L 134.387875 -154.022047 
L 130.904648 -142.274286 
L 127.42142 -143.784847 
L 123.938193 -136.295902 
L 120.454965 -137.692746 
L 116.971738 -136.890157 
L 113.48851 -137.293577 
L 110.005283 -130.383333 
L 106.522055 -138.15709 
L 103.038828 -137.416439 
L 99.5556 -138.304299 
L 96.072373 -130.21841 
L 92.589145 -131.977662 
L 89.105918 -154.006893 
L 85.62269 -150.603792 
L 82.139463 -144.047908 
L 78.656235 -141.129047 
L 75.173008 -136.700835 
L 71.68978 -130.901187 
L 68.206553 -141.449274 
L 64.723325 -143.254151 
L 61.240098 -140.049207 
L 57.75687 -133.876991 
L 54.273643 -128.303646 
L 50.790415 -133.617458 
L 47.307188 -156.01669 
z
" style="stroke: #d3d3d3; stroke-opacity: 0.5"/>
    </defs>
    <g clip-path="url(#pc4cde03d7a)">
     <use xlink:href="#md4b677c0c5" x="0" y="424.5775" style="fill: #d3d3d3; fill-opacity: 0.5; stroke: #d3d3d3; stroke-opacity: 0.5"/>
    </g>
   </g>
   <g id="FillBetweenPolyCollection_2">
    <defs>
     <path id="m37beacdf4c" d="M 47.307188 -122.884124 
L 47.307188 -56.61899 
L 50.790415 -59.251011 
L 54.273643 -61.777034 
L 57.75687 -64.393841 
L 61.240098 -63.813342 
L 64.723325 -63.33292 
L 68.206553 -59.830008 
L 71.68978 -60.235387 
L 75.173008 -61.231952 
L 78.656235 -59.81243 
L 82.139463 -59.686203 
L 85.62269 -58.412903 
L 89.105918 -55.559322 
L 92.589145 -60.246795 
L 96.072373 -64.123519 
L 99.5556 -61.224804 
L 103.038828 -66.150615 
L 106.522055 -61.256435 
L 110.005283 -64.199987 
L 113.48851 -62.165884 
L 116.971738 -62.601314 
L 120.454965 -62.999632 
L 123.938193 -61.647571 
L 127.42142 -59.349971 
L 130.904648 -62.048256 
L 134.387875 -63.247552 
L 137.871103 -60.821033 
L 141.35433 -63.789625 
L 144.837558 -66.298945 
L 148.320785 -67.134562 
L 151.804013 -63.364346 
L 155.28724 -62.829764 
L 158.770468 -58.85937 
L 162.253695 -64.982039 
L 165.736923 -67.072263 
L 169.22015 -61.178318 
L 172.703378 -63.538768 
L 176.186605 -63.442683 
L 179.669833 -60.981703 
L 183.153061 -60.912945 
L 186.636288 -60.21519 
L 190.119516 -60.604376 
L 193.602743 -65.277842 
L 197.085971 -65.975731 
L 200.569198 -66.909338 
L 204.052426 -75.612549 
L 207.535653 -77.138759 
L 211.018881 -64.851906 
L 214.502108 -72.230634 
L 217.985336 -71.185433 
L 221.468563 -68.249757 
L 224.951791 -70.669295 
L 228.435018 -65.548114 
L 231.918246 -68.860382 
L 235.401473 -64.559936 
L 238.884701 -67.338679 
L 242.367928 -72.974158 
L 245.851156 -62.956287 
L 249.334383 -62.372924 
L 252.817611 -63.139258 
L 256.300838 -63.315745 
L 259.784066 -60.030635 
L 263.267293 -62.958382 
L 266.750521 -66.914793 
L 270.233748 -63.646145 
L 273.716976 -62.81934 
L 277.200203 -57.091611 
L 280.683431 -44.652464 
L 284.166658 -59.162124 
L 287.649886 -66.865413 
L 291.133113 -65.495199 
L 294.616341 -64.181535 
L 298.099568 -60.163305 
L 301.582796 -64.016374 
L 305.066023 -64.750053 
L 308.549251 -62.417819 
L 312.032479 -63.227516 
L 315.515706 -64.654782 
L 318.998934 -65.524022 
L 322.482161 -65.897693 
L 325.965389 -61.961661 
L 329.448616 -68.337088 
L 332.931844 -73.755912 
L 336.415071 -70.582478 
L 339.898299 -65.800512 
L 343.381526 -67.933854 
L 346.864754 -69.415474 
L 350.347981 -69.09704 
L 353.831209 -68.331824 
L 357.314436 -64.869205 
L 360.797664 -62.128259 
L 364.280891 -63.41593 
L 367.764119 -65.160551 
L 371.247346 -68.032392 
L 374.730574 -68.340429 
L 378.213801 -68.297726 
L 381.697029 -66.886513 
L 385.180256 -67.699959 
L 388.663484 -67.271559 
L 392.146711 -66.669449 
L 395.629939 -69.993044 
L 399.113166 -63.436132 
L 402.596394 -63.507198 
L 406.079621 -60.420595 
L 409.562849 -60.899508 
L 413.046076 -60.956094 
L 416.529304 -60.068039 
L 420.012531 -57.01234 
L 423.495759 -64.394937 
L 426.978986 -62.758373 
L 430.462214 -65.208041 
L 433.945441 -71.665267 
L 437.428669 -63.331636 
L 440.911896 -67.874196 
L 444.395124 -64.102928 
L 447.878352 -66.038935 
L 451.361579 -65.094245 
L 454.844807 -59.868799 
L 458.328034 -62.726452 
L 461.811262 -66.345067 
L 465.294489 -66.643145 
L 468.777717 -65.03921 
L 472.260944 -55.405332 
L 475.744172 -66.826 
L 479.227399 -62.870739 
L 482.710627 -60.738702 
L 486.193854 -63.709519 
L 489.677082 -66.464316 
L 493.160309 -62.410739 
L 496.643537 -61.753038 
L 500.126764 -49.099502 
L 503.609992 -60.082039 
L 507.093219 -64.655981 
L 510.576447 -58.29995 
L 514.059674 -56.323798 
L 517.542902 -45.949951 
L 521.026129 -58.119901 
L 524.509357 -60.076399 
L 527.992584 -63.038044 
L 531.475812 -56.164768 
L 534.959039 -55.256727 
L 538.442267 -59.399074 
L 541.925494 -61.850823 
L 545.408722 -62.07443 
L 548.891949 -63.443702 
L 552.375177 -64.247935 
L 555.858404 -65.22131 
L 559.341632 -62.685274 
L 562.824859 -65.309118 
L 566.308087 -65.76361 
L 569.791314 -65.096584 
L 573.274542 -63.718359 
L 576.75777 -68.502406 
L 580.240997 -65.465565 
L 583.724225 -67.642586 
L 587.207452 -64.73313 
L 590.69068 -58.035321 
L 594.173907 -62.964536 
L 597.657135 -66.595248 
L 601.140362 -77.059317 
L 604.62359 -70.638893 
L 608.106817 -73.370447 
L 611.590045 -72.050071 
L 615.073272 -73.919154 
L 618.5565 -72.52494 
L 622.039727 -69.259681 
L 625.522955 -73.76876 
L 629.006182 -70.15477 
L 632.48941 -70.193206 
L 635.972637 -70.651009 
L 639.455865 -73.76456 
L 642.939092 -70.984705 
L 646.42232 -75.979429 
L 649.905547 -77.67771 
L 653.388775 -67.28897 
L 656.872002 -65.776837 
L 660.35523 -69.599867 
L 663.838457 -68.089708 
L 667.321685 -65.141021 
L 670.804912 -74.36981 
L 674.28814 -73.452168 
L 677.771367 -70.373948 
L 681.254595 -67.555934 
L 684.737822 -62.97247 
L 688.22105 -70.2178 
L 691.704277 -94.675158 
L 695.187505 -81.971266 
L 698.670732 -87.689014 
L 702.15396 -79.665292 
L 705.637188 -80.181357 
L 705.637188 -113.566268 
L 705.637188 -113.566268 
L 702.15396 -116.228925 
L 698.670732 -123.39133 
L 695.187505 -113.771709 
L 691.704277 -131.038736 
L 688.22105 -124.568291 
L 684.737822 -134.045839 
L 681.254595 -133.890226 
L 677.771367 -123.105312 
L 674.28814 -122.319892 
L 670.804912 -142.350449 
L 667.321685 -125.099039 
L 663.838457 -135.255184 
L 660.35523 -139.021189 
L 656.872002 -142.596809 
L 653.388775 -132.653903 
L 649.905547 -134.344249 
L 646.42232 -137.064235 
L 642.939092 -128.373427 
L 639.455865 -126.305456 
L 635.972637 -121.602375 
L 632.48941 -131.068471 
L 629.006182 -128.960851 
L 625.522955 -136.874131 
L 622.039727 -136.808786 
L 618.5565 -133.625539 
L 615.073272 -146.492057 
L 611.590045 -160.304484 
L 608.106817 -160.450775 
L 604.62359 -143.544079 
L 601.140362 -139.903452 
L 597.657135 -150.838615 
L 594.173907 -155.344032 
L 590.69068 -161.973826 
L 587.207452 -134.363837 
L 583.724225 -123.484987 
L 580.240997 -117.639057 
L 576.75777 -119.279523 
L 573.274542 -116.111044 
L 569.791314 -118.013454 
L 566.308087 -113.010474 
L 562.824859 -113.455596 
L 559.341632 -121.202843 
L 555.858404 -116.390426 
L 552.375177 -117.327008 
L 548.891949 -127.272523 
L 545.408722 -122.221423 
L 541.925494 -122.984381 
L 538.442267 -127.798906 
L 534.959039 -138.468568 
L 531.475812 -146.785712 
L 527.992584 -136.68295 
L 524.509357 -133.003118 
L 521.026129 -128.609994 
L 517.542902 -155.481509 
L 514.059674 -127.980394 
L 510.576447 -126.574196 
L 507.093219 -120.249027 
L 503.609992 -132.003454 
L 500.126764 -165.400083 
L 496.643537 -127.659513 
L 493.160309 -131.22112 
L 489.677082 -126.370659 
L 486.193854 -130.301123 
L 482.710627 -122.01083 
L 479.227399 -129.597002 
L 475.744172 -129.938526 
L 472.260944 -141.384832 
L 468.777717 -126.434325 
L 465.294489 -128.504599 
L 461.811262 -115.724303 
L 458.328034 -128.486065 
L 454.844807 -136.607176 
L 451.361579 -141.117687 
L 447.878352 -133.02876 
L 444.395124 -126.423772 
L 440.911896 -140.180575 
L 437.428669 -151.502364 
L 433.945441 -136.069474 
L 430.462214 -140.153578 
L 426.978986 -143.549348 
L 423.495759 -134.364106 
L 420.012531 -152.388132 
L 416.529304 -123.749796 
L 413.046076 -121.365104 
L 409.562849 -111.487189 
L 406.079621 -118.83146 
L 402.596394 -116.491822 
L 399.113166 -129.257191 
L 395.629939 -132.152065 
L 392.146711 -121.031928 
L 388.663484 -121.93412 
L 385.180256 -119.416444 
L 381.697029 -113.613584 
L 378.213801 -113.063381 
L 374.730574 -109.016548 
L 371.247346 -113.047442 
L 367.764119 -119.947937 
L 364.280891 -118.768861 
L 360.797664 -115.545054 
L 357.314436 -108.603945 
L 353.831209 -110.735901 
L 350.347981 -114.840048 
L 346.864754 -110.74551 
L 343.381526 -115.413014 
L 339.898299 -109.592648 
L 336.415071 -112.00104 
L 332.931844 -120.022728 
L 329.448616 -115.938392 
L 325.965389 -110.04037 
L 322.482161 -114.088858 
L 318.998934 -110.967457 
L 315.515706 -103.590334 
L 312.032479 -110.141089 
L 308.549251 -103.985812 
L 305.066023 -106.138474 
L 301.582796 -105.535095 
L 298.099568 -111.279443 
L 294.616341 -118.163271 
L 291.133113 -118.590889 
L 287.649886 -111.560335 
L 284.166658 -124.103727 
L 280.683431 -152.102015 
L 277.200203 -126.980731 
L 273.716976 -113.804132 
L 270.233748 -115.375349 
L 266.750521 -128.648454 
L 263.267293 -126.58862 
L 259.784066 -116.376976 
L 256.300838 -117.251418 
L 252.817611 -111.922555 
L 249.334383 -108.61857 
L 245.851156 -122.405545 
L 242.367928 -145.551645 
L 238.884701 -138.905675 
L 235.401473 -133.196562 
L 231.918246 -122.686791 
L 228.435018 -122.732436 
L 224.951791 -131.084624 
L 221.468563 -136.886065 
L 217.985336 -139.693263 
L 214.502108 -139.676215 
L 211.018881 -133.946587 
L 207.535653 -137.540323 
L 204.052426 -144.116435 
L 200.569198 -147.959213 
L 197.085971 -142.93357 
L 193.602743 -129.978163 
L 190.119516 -125.431687 
L 186.636288 -121.399039 
L 183.153061 -119.382824 
L 179.669833 -117.503793 
L 176.186605 -116.12822 
L 172.703378 -113.85728 
L 169.22015 -109.784807 
L 165.736923 -115.838334 
L 162.253695 -118.237176 
L 158.770468 -133.449892 
L 155.28724 -137.053362 
L 151.804013 -123.732023 
L 148.320785 -121.963526 
L 144.837558 -118.09001 
L 141.35433 -115.67468 
L 137.871103 -115.045456 
L 134.387875 -123.763882 
L 130.904648 -115.532276 
L 127.42142 -115.639888 
L 123.938193 -111.413125 
L 120.454965 -112.795041 
L 116.971738 -112.127209 
L 113.48851 -112.251013 
L 110.005283 -108.322218 
L 106.522055 -112.523539 
L 103.038828 -113.661165 
L 99.5556 -112.611134 
L 96.072373 -108.18678 
L 92.589145 -108.067373 
L 89.105918 -121.191036 
L 85.62269 -119.873495 
L 82.139463 -115.92734 
L 78.656235 -114.023508 
L 75.173008 -111.54454 
L 71.68978 -107.345921 
L 68.206553 -114.242852 
L 64.723325 -116.613741 
L 61.240098 -114.637252 
L 57.75687 -110.715941 
L 54.273643 -106.128108 
L 50.790415 -108.828642 
L 47.307188 -122.884124 
z
" style="stroke: #808080; stroke-opacity: 0.7"/>
    </defs>
    <g clip-path="url(#pc4cde03d7a)">
     <use xlink:href="#m37beacdf4c" x="0" y="424.5775" style="fill: #808080; fill-opacity: 0.7; stroke: #808080; stroke-opacity: 0.7"/>
    </g>
   </g>
   <g id="line2d_31">
    <path d="M 47.307188 312.0593 
L 50.790415 339.349528 
L 54.273643 294.544892 
L 57.75687 301.821692 
L 61.240098 303.965575 
L 64.723325 288.806759 
L 68.206553 254.594887 
L 71.68978 271.774815 
L 75.173008 252.736321 
L 78.656235 266.034976 
L 82.139463 253.836771 
L 85.62269 251.914919 
L 89.105918 191.342089 
L 92.589145 174.424544 
L 96.072373 219.545563 
L 99.5556 262.809526 
L 103.038828 243.075789 
L 106.522055 321.440108 
L 110.005283 280.682254 
L 113.48851 253.600909 
L 116.971738 261.881911 
L 120.454965 267.829759 
L 123.938193 225.012895 
L 127.42142 243.120967 
L 130.904648 246.509561 
L 134.387875 261.04545 
L 137.871103 254.436648 
L 141.35433 251.825816 
L 144.837558 255.649712 
L 148.320785 247.631534 
L 151.804013 221.359401 
L 155.28724 232.097976 
L 158.770468 238.072572 
L 162.253695 271.872052 
L 165.736923 247.032537 
L 169.22015 231.15802 
L 172.703378 241.4991 
L 176.186605 266.62703 
L 179.669833 259.462352 
L 183.153061 256.840933 
L 186.636288 237.052074 
L 190.119516 228.645631 
L 193.602743 283.487239 
L 197.085971 275.640829 
L 200.569198 280.436314 
L 204.052426 258.967958 
L 207.535653 287.780892 
L 211.018881 303.79148 
L 214.502108 301.571475 
L 217.985336 315.878131 
L 221.468563 307.314564 
L 224.951791 310.000807 
L 228.435018 309.63231 
L 231.918246 300.802271 
L 235.401473 302.631599 
L 238.884701 303.511004 
L 242.367928 317.545248 
L 245.851156 303.803871 
L 249.334383 339.696492 
L 252.817611 300.649153 
L 256.300838 320.084731 
L 259.784066 299.218812 
L 263.267293 293.223164 
L 266.750521 296.317579 
L 270.233748 309.56561 
L 273.716976 303.950266 
L 277.200203 309.538598 
L 280.683431 323.957318 
L 284.166658 309.040048 
L 287.649886 310.855844 
L 291.133113 323.987868 
L 294.616341 313.854553 
L 298.099568 305.324864 
L 301.582796 261.548936 
L 305.066023 266.980254 
L 308.549251 282.540291 
L 312.032479 300.843885 
L 315.515706 291.538062 
L 318.998934 250.613256 
L 322.482161 276.527004 
L 325.965389 282.65616 
L 329.448616 279.276658 
L 332.931844 274.460359 
L 336.415071 261.741635 
L 339.898299 286.571187 
L 343.381526 252.238941 
L 346.864754 250.23012 
L 350.347981 237.581822 
L 353.831209 265.257292 
L 357.314436 263.094183 
L 360.797664 217.805473 
L 364.280891 267.972116 
L 367.764119 274.046749 
L 371.247346 265.330877 
L 374.730574 289.397375 
L 378.213801 277.919743 
L 381.697029 274.489662 
L 385.180256 286.205453 
L 388.663484 289.881182 
L 392.146711 302.7442 
L 395.629939 288.578366 
L 399.113166 240.40755 
L 402.596394 266.031007 
L 406.079621 273.684633 
L 409.562849 289.090839 
L 413.046076 280.542707 
L 416.529304 287.426115 
L 423.495759 300.57379 
L 426.978986 315.327324 
L 430.462214 282.629707 
L 433.945441 271.081445 
L 437.428669 281.614509 
L 440.911896 298.913512 
L 444.395124 272.295659 
L 447.878352 289.221572 
L 451.361579 275.7739 
L 454.844807 281.680977 
L 458.328034 254.328313 
L 461.811262 287.012537 
L 468.777717 324.623412 
L 472.260944 295.862729 
L 475.744172 283.784205 
L 479.227399 297.1375 
L 482.710627 297.189193 
L 486.193854 267.944377 
L 489.677082 311.519666 
L 493.160309 309.7292 
L 496.643537 321.759707 
L 500.126764 349.127801 
L 503.609992 341.928192 
L 507.093219 322.607142 
L 510.576447 309.352517 
L 514.059674 304.467544 
L 517.542902 303.472423 
L 521.026129 263.447453 
L 524.509357 234.576791 
L 527.992584 238.57151 
L 531.475812 239.814734 
L 534.959039 264.14305 
L 538.442267 283.3509 
L 541.925494 293.649864 
L 545.408722 254.067439 
L 548.891949 268.753164 
L 552.375177 280.614421 
L 555.858404 283.679214 
L 559.341632 265.766062 
L 562.824859 233.032942 
L 566.308087 280.420135 
L 569.791314 282.239738 
L 573.274542 283.860835 
L 576.75777 302.232089 
L 580.240997 302.286725 
L 583.724225 291.937096 
L 587.207452 246.831946 
L 590.69068 266.00358 
L 594.173907 240.497679 
L 597.657135 261.665398 
L 601.140362 293.220573 
L 604.62359 293.458838 
L 608.106817 272.119829 
L 611.590045 199.665699 
L 615.073272 263.628221 
L 618.5565 246.044386 
L 622.039727 269.079187 
L 625.522955 279.496761 
L 629.006182 269.606781 
L 635.972637 288.374587 
L 639.455865 290.584759 
L 642.939092 257.538096 
L 646.42232 264.844003 
L 649.905547 269.230418 
L 653.388775 218.328846 
L 656.872002 257.030658 
L 660.35523 259.690309 
L 663.838457 286.927745 
L 667.321685 264.636163 
L 670.804912 269.396559 
L 674.28814 254.780796 
L 677.771367 245.197909 
L 681.254595 265.984513 
L 684.737822 251.832883 
L 688.22105 256.016882 
L 691.704277 248.540394 
L 695.187505 248.810635 
L 698.670732 269.322962 
L 702.15396 273.054856 
L 705.637188 216.465693 
L 705.637188 216.465693 
" clip-path="url(#pc4cde03d7a)" style="fill: none; stroke: #ff8c00; stroke-width: 2.3; stroke-linecap: square"/>
   </g>
   <g id="line2d_32">
    <path d="M 284.166658 384.117812 
L 284.166658 23.837812 
" clip-path="url(#pc4cde03d7a)" style="fill: none; stroke-dasharray: 5.55,2.4; stroke-dashoffset: 0; stroke: #808080; stroke-width: 1.5"/>
   </g>
   <g id="line2d_33">
    <path d="M 486.193854 384.117812 
L 486.193854 23.837812 
" clip-path="url(#pc4cde03d7a)" style="fill: none; stroke-dasharray: 5.55,2.4; stroke-dashoffset: 0; stroke: #808080; stroke-width: 1.5"/>
   </g>
   <g id="patch_3">
    <path d="M 47.307188 384.117812 
L 47.307188 23.837812 
" style="fill: none; stroke: #000000; stroke-width: 0.8; stroke-linejoin: miter; stroke-linecap: square"/>
   </g>
   <g id="patch_4">
    <path d="M 705.637188 384.117812 
L 705.637188 23.837812 
" style="fill: none; stroke: #000000; stroke-width: 0.8; stroke-linejoin: miter; stroke-linecap: square"/>
   </g>
   <g id="patch_5">
    <path d="M 47.307188 384.117812 
L 705.637188 384.117812 
" style="fill: none; stroke: #000000; stroke-width: 0.8; stroke-linejoin: miter; stroke-linecap: square"/>
   </g>
   <g id="patch_6">
    <path d="M 47.307188 23.837812 
L 705.637188 23.837812 
" style="fill: none; stroke: #000000; stroke-width: 0.8; stroke-linejoin: miter; stroke-linecap: square"/>
   </g>
   <g id="text_18">
    <!-- Facial trace: ADHD (female) -->
    <g transform="translate(279.241094 17.837812) scale(0.14 -0.14)">
     <defs>
      <path id="DejaVuSans-46" d="M 628 4666 
L 3309 4666 
L 3309 4134 
L 1259 4134 
L 1259 2759 
L 3109 2759 
L 3109 2228 
L 1259 2228 
L 1259 0 
L 628 0 
L 628 4666 
z
" transform="scale(0.015625)"/>
      <path id="DejaVuSans-63" d="M 3122 3366 
L 3122 2828 
Q 2878 2963 2633 3030 
Q 2388 3097 2138 3097 
Q 1578 3097 1268 2742 
Q 959 2388 959 1747 
Q 959 1106 1268 751 
Q 1578 397 2138 397 
Q 2388 397 2633 464 
Q 2878 531 3122 666 
L 3122 134 
Q 2881 22 2623 -34 
Q 2366 -91 2075 -91 
Q 1284 -91 818 406 
Q 353 903 353 1747 
Q 353 2603 823 3093 
Q 1294 3584 2113 3584 
Q 2378 3584 2631 3529 
Q 2884 3475 3122 3366 
z
" transform="scale(0.015625)"/>
      <path id="DejaVuSans-6c" d="M 603 4863 
L 1178 4863 
L 1178 0 
L 603 0 
L 603 4863 
z
" transform="scale(0.015625)"/>
      <path id="DejaVuSans-72" d="M 2631 2963 
Q 2534 3019 2420 3045 
Q 2306 3072 2169 3072 
Q 1681 3072 1420 2755 
Q 1159 2438 1159 1844 
L 1159 0 
L 581 0 
L 581 3500 
L 1159 3500 
L 1159 2956 
Q 1341 3275 1631 3429 
Q 1922 3584 2338 3584 
Q 2397 3584 2469 3576 
Q 2541 3569 2628 3553 
L 2631 2963 
z
" transform="scale(0.015625)"/>
      <path id="DejaVuSans-3a" d="M 750 794 
L 1409 794 
L 1409 0 
L 750 0 
L 750 794 
z
M 750 3309 
L 1409 3309 
L 1409 2516 
L 750 2516 
L 750 3309 
z
" transform="scale(0.015625)"/>
      <path id="DejaVuSans-44" d="M 1259 4147 
L 1259 519 
L 2022 519 
Q 2988 519 3436 956 
Q 3884 1394 3884 2338 
Q 3884 3275 3436 3711 
Q 2988 4147 2022 4147 
L 1259 4147 
z
M 628 4666 
L 1925 4666 
Q 3281 4666 3915 4102 
Q 4550 3538 4550 2338 
Q 4550 1131 3912 565 
Q 3275 0 1925 0 
L 628 0 
L 628 4666 
z
" transform="scale(0.015625)"/>
      <path id="DejaVuSans-48" d="M 628 4666 
L 1259 4666 
L 1259 2753 
L 3553 2753 
L 3553 4666 
L 4184 4666 
L 4184 0 
L 3553 0 
L 3553 2222 
L 1259 2222 
L 1259 0 
L 628 0 
L 628 4666 
z
" transform="scale(0.015625)"/>
      <path id="DejaVuSans-66" d="M 2375 4863 
L 2375 4384 
L 1825 4384 
Q 1516 4384 1395 4259 
Q 1275 4134 1275 3809 
L 1275 3500 
L 2222 3500 
L 2222 3053 
L 1275 3053 
L 1275 0 
L 697 0 
L 697 3053 
L 147 3053 
L 147 3500 
L 697 3500 
L 697 3744 
Q 697 4328 969 4595 
Q 1241 4863 1831 4863 
L 2375 4863 
z
" transform="scale(0.015625)"/>
     </defs>
     <use xlink:href="#DejaVuSans-46"/>
     <use xlink:href="#DejaVuSans-61" transform="translate(48.394531 0)"/>
     <use xlink:href="#DejaVuSans-63" transform="translate(109.673828 0)"/>
     <use xlink:href="#DejaVuSans-69" transform="translate(164.654297 0)"/>
     <use xlink:href="#DejaVuSans-61" transform="translate(192.4375 0)"/>
     <use xlink:href="#DejaVuSans-6c" transform="translate(253.716797 0)"/>
     <use xlink:href="#DejaVuSans-20" transform="translate(281.5 0)"/>
     <use xlink:href="#DejaVuSans-74" transform="translate(313.287109 0)"/>
     <use xlink:href="#DejaVuSans-72" transform="translate(352.496094 0)"/>
     <use xlink:href="#DejaVuSans-61" transform="translate(393.609375 0)"/>
     <use xlink:href="#DejaVuSans-63" transform="translate(454.888672 0)"/>
     <use xlink:href="#DejaVuSans-65" transform="translate(509.869141 0)"/>
     <use xlink:href="#DejaVuSans-3a" transform="translate(571.392578 0)"/>
     <use xlink:href="#DejaVuSans-20" transform="translate(605.083984 0)"/>
     <use xlink:href="#DejaVuSans-41" transform="translate(636.871094 0)"/>
     <use xlink:href="#DejaVuSans-44" transform="translate(705.279297 0)"/>
     <use xlink:href="#DejaVuSans-48" transform="translate(782.28125 0)"/>
     <use xlink:href="#DejaVuSans-44" transform="translate(857.476562 0)"/>
     <use xlink:href="#DejaVuSans-20" transform="translate(934.478516 0)"/>
     <use xlink:href="#DejaVuSans-28" transform="translate(966.265625 0)"/>
     <use xlink:href="#DejaVuSans-66" transform="translate(1005.279297 0)"/>
     <use xlink:href="#DejaVuSans-65" transform="translate(1040.484375 0)"/>
     <use xlink:href="#DejaVuSans-6d" transform="translate(1102.007812 0)"/>
     <use xlink:href="#DejaVuSans-61" transform="translate(1199.419922 0)"/>
     <use xlink:href="#DejaVuSans-6c" transform="translate(1260.699219 0)"/>
     <use xlink:href="#DejaVuSans-65" transform="translate(1288.482422 0)"/>
     <use xlink:href="#DejaVuSans-29" transform="translate(1350.005859 0)"/>
    </g>
   </g>
   <g id="legend_1">
    <g id="patch_7">
     <path d="M 593.538594 42.096094 
L 615.538594 42.096094 
L 615.538594 34.396094 
L 593.538594 34.396094 
z
" style="fill: #d3d3d3; fill-opacity: 0.5; stroke: #d3d3d3; stroke-opacity: 0.5; stroke-linejoin: miter"/>
    </g>
    <g id="text_19">
     <!-- ADHD ±2 SD -->
     <g transform="translate(624.338594 42.096094) scale(0.11 -0.11)">
      <defs>
       <path id="DejaVuSans-b1" d="M 2944 4013 
L 2944 2803 
L 4684 2803 
L 4684 2272 
L 2944 2272 
L 2944 1063 
L 2419 1063 
L 2419 2272 
L 678 2272 
L 678 2803 
L 2419 2803 
L 2419 4013 
L 2944 4013 
z
M 678 531 
L 4684 531 
L 4684 0 
L 678 0 
L 678 531 
z
" transform="scale(0.015625)"/>
       <path id="DejaVuSans-53" d="M 3425 4513 
L 3425 3897 
Q 3066 4069 2747 4153 
Q 2428 4238 2131 4238 
Q 1616 4238 1336 4038 
Q 1056 3838 1056 3469 
Q 1056 3159 1242 3001 
Q 1428 2844 1947 2747 
L 2328 2669 
Q 3034 2534 3370 2195 
Q 3706 1856 3706 1288 
Q 3706 609 3251 259 
Q 2797 -91 1919 -91 
Q 1588 -91 1214 -16 
Q 841 59 441 206 
L 441 856 
Q 825 641 1194 531 
Q 1563 422 1919 422 
Q 2459 422 2753 634 
Q 3047 847 3047 1241 
Q 3047 1584 2836 1778 
Q 2625 1972 2144 2069 
L 1759 2144 
Q 1053 2284 737 2584 
Q 422 2884 422 3419 
Q 422 4038 858 4394 
Q 1294 4750 2059 4750 
Q 2388 4750 2728 4690 
Q 3069 4631 3425 4513 
z
" transform="scale(0.015625)"/>
      </defs>
      <use xlink:href="#DejaVuSans-41"/>
      <use xlink:href="#DejaVuSans-44" transform="translate(68.408203 0)"/>
      <use xlink:href="#DejaVuSans-48" transform="translate(145.410156 0)"/>
      <use xlink:href="#DejaVuSans-44" transform="translate(220.605469 0)"/>
      <use xlink:href="#DejaVuSans-20" transform="translate(297.607422 0)"/>
      <use xlink:href="#DejaVuSans-b1" transform="translate(329.394531 0)"/>
      <use xlink:href="#DejaVuSans-32" transform="translate(413.183594 0)"/>
      <use xlink:href="#DejaVuSans-20" transform="translate(476.806641 0)"/>
      <use xlink:href="#DejaVuSans-53" transform="translate(508.59375 0)"/>
      <use xlink:href="#DejaVuSans-44" transform="translate(572.070312 0)"/>
     </g>
    </g>
    <g id="patch_8">
     <path d="M 593.538594 58.242031 
L 615.538594 58.242031 
L 615.538594 50.542031 
L 593.538594 50.542031 
z
" style="fill: #808080; fill-opacity: 0.7; stroke: #808080; stroke-opacity: 0.7; stroke-linejoin: miter"/>
    </g>
    <g id="text_20">
     <!-- ADHD ±1 SD -->
     <g transform="translate(624.338594 58.242031) scale(0.11 -0.11)">
      <use xlink:href="#DejaVuSans-41"/>
      <use xlink:href="#DejaVuSans-44" transform="translate(68.408203 0)"/>
      <use xlink:href="#DejaVuSans-48" transform="translate(145.410156 0)"/>
      <use xlink:href="#DejaVuSans-44" transform="translate(220.605469 0)"/>
      <use xlink:href="#DejaVuSans-20" transform="translate(297.607422 0)"/>
      <use xlink:href="#DejaVuSans-b1" transform="translate(329.394531 0)"/>
      <use xlink:href="#DejaVuSans-31" transform="translate(413.183594 0)"/>
      <use xlink:href="#DejaVuSans-20" transform="translate(476.806641 0)"/>
      <use xlink:href="#DejaVuSans-53" transform="translate(508.59375 0)"/>
      <use xlink:href="#DejaVuSans-44" transform="translate(572.070312 0)"/>
     </g>
    </g>
    <g id="line2d_34">
     <path d="M 593.538594 70.537969 
L 604.538594 70.537969 
L 615.538594 70.537969 
" style="fill: none; stroke: #ff8c00; stroke-width: 2.3; stroke-linecap: square"/>
    </g>
    <g id="text_21">
     <!-- Patient -->
     <g transform="translate(624.338594 74.387969) scale(0.11 -0.11)">
      <defs>
       <path id="DejaVuSans-50" d="M 1259 4147 
L 1259 2394 
L 2053 2394 
Q 2494 2394 2734 2622 
Q 2975 2850 2975 3272 
Q 2975 3691 2734 3919 
Q 2494 4147 2053 4147 
L 1259 4147 
z
M 628 4666 
L 2053 4666 
Q 2838 4666 3239 4311 
Q 3641 3956 3641 3272 
Q 3641 2581 3239 2228 
Q 2838 1875 2053 1875 
L 1259 1875 
L 1259 0 
L 628 0 
L 628 4666 
z
" transform="scale(0.015625)"/>
      </defs>
      <use xlink:href="#DejaVuSans-50"/>
      <use xlink:href="#DejaVuSans-61" transform="translate(55.802734 0)"/>
      <use xlink:href="#DejaVuSans-74" transform="translate(117.082031 0)"/>
      <use xlink:href="#DejaVuSans-69" transform="translate(156.291016 0)"/>
      <use xlink:href="#DejaVuSans-65" transform="translate(184.074219 0)"/>
      <use xlink:href="#DejaVuSans-6e" transform="translate(245.597656 0)"/>
      <use xlink:href="#DejaVuSans-74" transform="translate(308.976562 0)"/>
     </g>
    </g>
   </g>
  </g>
 </g>
 <defs>
  <clipPath id="pc4cde03d7a">
   <rect x="47.307188" y="23.837812" width="658.33" height="360.28"/>
  </clipPath>
 </defs>
</svg>
