<?xml version="1.0" encoding="utf-8" standalone="no"?>
<!DOCTYPE svg PUBLIC "-//W3C//DTD SVG 1.1//EN"
  "http://www.w3.org/Graphics/SVG/1.1/DTD/svg11.dtd">
<svg xmlns:xlink="http://www.w3.org/1999/xlink" width="712.837188pt" height="424.5775pt" viewBox="0 0 712.837188 424.5775" xmlns="http://www.w3.org/2000/svg" version="1.1">
 <metadata>
  <rdf:RDF xmlns:dc="http://purl.org/dc/elements/1.1/" xmlns:cc="http://creativecommons.org/ns#" xmlns:rdf="http://www.w3.org/1999/02/22-rdf-syntax-ns#">
   <cc:Work>
    <dc:type rdf:resource="http://purl.org/dc/dcmitype/StillImage"/>
    <dc:date>2026-06-23T21:51:12.965390</dc:date>
    <dc:format>image/svg+xml</dc:format>
    <dc:creator>
     <cc:Agent>
      <dc:title>Matplotlib v3.10.1, https://matplotlib.org/</dc:title>
     </cc:Agent>
    </dc:creator>
   </cc:Work>
  </rdf:RDF>
 </metadata>
 <defs>
  <style type="text/css">*{stroke-linejoin: round; stroke-linecap: butt}</style>
 </defs>
 <g id="figure_1">
  <g id="patch_1">
   <path d="M 0 424.5775 
L 712.837188 424.5775 
L 712.837188 0 
L 0 0 
z
" style="fill: #ffffff"/>
  </g>
  <g id="axes_1">
   <g id="patch_2">
    <path d="M 47.307188 384.117812 
L 705.637188 384.117812 
L 705.637188 23.837812 
L 47.307188 23.837812 
z
" style="fill: #ffffff"/>
   </g>
   <g id="matplotlib.axis_1">
    <g id="xtick_1">
     <g id="line2d_1">
      <path d="M 47.307188 384.117812 
L 47.307188 23.837812 
" clip-path="url(#pd25b5b946a)" style="fill: none; stroke: #b0b0b0; stroke-opacity: 0.2; stroke-width: 0.6; stroke-linecap: square"/>
     </g>
     <g id="line2d_2">
      <defs>
       <path id="mf9f327dd38" d="M 0 0 
L 0 3.5 
" style="stroke: #000000; stroke-width: 0.8"/>
      </defs>
      <g>
       <use xlink:href="#mf9f327dd38" x="47.307188" y="384.117812" style="stroke: #000000; stroke-width: 0.8"/>
      </g>
     </g>
     <g id="text_1">
      <!-- 0 -->
      <g transform="translate(43.807813 399.476094) scale(0.11 -0.11)">
       <defs>
        <path id="DejaVuSans-30" d="M 2034 4250 
Q 1547 4250 1301 3770 
Q 1056 3291 1056 2328 
Q 1056 1369 1301 889 
Q 1547 409 2034 409 
Q 2525 409 2770 889 
Q 3016 1369 3016 2328 
Q 3016 3291 2770 3770 
Q 2525 4250 2034 4250 
z
M 2034 4750 
Q 2819 4750 3233 4129 
Q 3647 3509 3647 2328 
Q 3647 1150 3233 529 
Q 2819 -91 2034 -91 
Q 1250 -91 836 529 
Q 422 1150 422 2328 
Q 422 3509 836 4129 
Q 1250 4750 2034 4750 
z
" transform="scale(0.015625)"/>
       </defs>
       <use xlink:href="#DejaVuSans-30"/>
      </g>
     </g>
    </g>
    <g id="xtick_2">
     <g id="line2d_3">
      <path d="M 133.929556 384.117812 
L 133.929556 23.837812 
" clip-path="url(#pd25b5b946a)" style="fill: none; stroke: #b0b0b0; stroke-opacity: 0.2; stroke-width: 0.6; stroke-linecap: square"/>
     </g>
     <g id="line2d_4">
      <g>
       <use xlink:href="#mf9f327dd38" x="133.929556" y="384.117812" style="stroke: #000000; stroke-width: 0.8"/>
      </g>
     </g>
     <g id="text_2">
      <!-- 25 -->
      <g transform="translate(126.930806 399.476094) scale(0.11 -0.11)">
       <defs>
        <path id="DejaVuSans-32" d="M 1228 531 
L 3431 531 
L 3431 0 
L 469 0 
L 469 531 
Q 828 903 1448 1529 
Q 2069 2156 2228 2338 
Q 2531 2678 2651 2914 
Q 2772 3150 2772 3378 
Q 2772 3750 2511 3984 
Q 2250 4219 1831 4219 
Q 1534 4219 1204 4116 
Q 875 4013 500 3803 
L 500 4441 
Q 881 4594 1212 4672 
Q 1544 4750 1819 4750 
Q 2544 4750 2975 4387 
Q 3406 4025 3406 3419 
Q 3406 3131 3298 2873 
Q 3191 2616 2906 2266 
Q 2828 2175 2409 1742 
Q 1991 1309 1228 531 
z
" transform="scale(0.015625)"/>
        <path id="DejaVuSans-35" d="M 691 4666 
L 3169 4666 
L 3169 4134 
L 1269 4134 
L 1269 2991 
Q 1406 3038 1543 3061 
Q 1681 3084 1819 3084 
Q 2600 3084 3056 2656 
Q 3513 2228 3513 1497 
Q 3513 744 3044 326 
Q 2575 -91 1722 -91 
Q 1428 -91 1123 -41 
Q 819 9 494 109 
L 494 744 
Q 775 591 1075 516 
Q 1375 441 1709 441 
Q 2250 441 2565 725 
Q 2881 1009 2881 1497 
Q 2881 1984 2565 2268 
Q 2250 2553 1709 2553 
Q 1456 2553 1204 2497 
Q 953 2441 691 2322 
L 691 4666 
z
" transform="scale(0.015625)"/>
       </defs>
       <use xlink:href="#DejaVuSans-32"/>
       <use xlink:href="#DejaVuSans-35" transform="translate(63.623047 0)"/>
      </g>
     </g>
    </g>
    <g id="xtick_3">
     <g id="line2d_5">
      <path d="M 220.551924 384.117812 
L 220.551924 23.837812 
" clip-path="url(#pd25b5b946a)" style="fill: none; stroke: #b0b0b0; stroke-opacity: 0.2; stroke-width: 0.6; stroke-linecap: square"/>
     </g>
     <g id="line2d_6">
      <g>
       <use xlink:href="#mf9f327dd38" x="220.551924" y="384.117812" style="stroke: #000000; stroke-width: 0.8"/>
      </g>
     </g>
     <g id="text_3">
      <!-- 50 -->
      <g transform="translate(213.553174 399.476094) scale(0.11 -0.11)">
       <use xlink:href="#DejaVuSans-35"/>
       <use xlink:href="#DejaVuSans-30" transform="translate(63.623047 0)"/>
      </g>
     </g>
    </g>
    <g id="xtick_4">
     <g id="line2d_7">
      <path d="M 307.174293 384.117812 
L 307.174293 23.837812 
" clip-path="url(#pd25b5b946a)" style="fill: none; stroke: #b0b0b0; stroke-opacity: 0.2; stroke-width: 0.6; stroke-linecap: square"/>
     </g>
     <g id="line2d_8">
      <g>
       <use xlink:href="#mf9f327dd38" x="307.174293" y="384.117812" style="stroke: #000000; stroke-width: 0.8"/>
      </g>
     </g>
     <g id="text_4">
      <!-- 75 -->
      <g transform="translate(300.175543 399.476094) scale(0.11 -0.11)">
       <defs>
        <path id="DejaVuSans-37" d="M 525 4666 
L 3525 4666 
L 3525 4397 
L 1831 0 
L 1172 0 
L 2766 4134 
L 525 4134 
L 525 4666 
z
" transform="scale(0.015625)"/>
       </defs>
       <use xlink:href="#DejaVuSans-37"/>
       <use xlink:href="#DejaVuSans-35" transform="translate(63.623047 0)"/>
      </g>
     </g>
    </g>
    <g id="xtick_5">
     <g id="line2d_9">
      <path d="M 393.796661 384.117812 
L 393.796661 23.837812 
" clip-path="url(#pd25b5b946a)" style="fill: none; stroke: #b0b0b0; stroke-opacity: 0.2; stroke-width: 0.6; stroke-linecap: square"/>
     </g>
     <g id="line2d_10">
      <g>
       <use xlink:href="#mf9f327dd38" x="393.796661" y="384.117812" style="stroke: #000000; stroke-width: 0.8"/>
      </g>
     </g>
     <g id="text_5">
      <!-- 100 -->
      <g transform="translate(383.298536 399.476094) scale(0.11 -0.11)">
       <defs>
        <path id="DejaVuSans-31" d="M 794 531 
L 1825 531 
L 1825 4091 
L 703 3866 
L 703 4441 
L 1819 4666 
L 2450 4666 
L 2450 531 
L 3481 531 
L 3481 0 
L 794 0 
L 794 531 
z
" transform="scale(0.015625)"/>
       </defs>
       <use xlink:href="#DejaVuSans-31"/>
       <use xlink:href="#DejaVuSans-30" transform="translate(63.623047 0)"/>
       <use xlink:href="#DejaVuSans-30" transform="translate(127.246094 0)"/>
      </g>
     </g>
    </g>
    <g id="xtick_6">
     <g id="line2d_11">
      <path d="M 480.41903 384.117812 
L 480.41903 23.837812 
" clip-path="url(#pd25b5b946a)" style="fill: none; stroke: #b0b0b0; stroke-opacity: 0.2; stroke-width: 0.6; stroke-linecap: square"/>
     </g>
     <g id="line2d_12">
      <g>
       <use xlink:href="#mf9f327dd38" x="480.41903" y="384.117812" style="stroke: #000000; stroke-width: 0.8"/>
      </g>
     </g>
     <g id="text_6">
      <!-- 125 -->
      <g transform="translate(469.920905 399.476094) scale(0.11 -0.11)">
       <use xlink:href="#DejaVuSans-31"/>
       <use xlink:href="#DejaVuSans-32" transform="translate(63.623047 0)"/>
       <use xlink:href="#DejaVuSans-35" transform="translate(127.246094 0)"/>
      </g>
     </g>
    </g>
    <g id="xtick_7">
     <g id="line2d_13">
      <path d="M 567.041398 384.117812 
L 567.041398 23.837812 
" clip-path="url(#pd25b5b946a)" style="fill: none; stroke: #b0b0b0; stroke-opacity: 0.2; stroke-width: 0.6; stroke-linecap: square"/>
     </g>
     <g id="line2d_14">
      <g>
       <use xlink:href="#mf9f327dd38" x="567.041398" y="384.117812" style="stroke: #000000; stroke-width: 0.8"/>
      </g>
     </g>
     <g id="text_7">
      <!-- 150 -->
      <g transform="translate(556.543273 399.476094) scale(0.11 -0.11)">
       <use xlink:href="#DejaVuSans-31"/>
       <use xlink:href="#DejaVuSans-35" transform="translate(63.623047 0)"/>
       <use xlink:href="#DejaVuSans-30" transform="translate(127.246094 0)"/>
      </g>
     </g>
    </g>
    <g id="xtick_8">
     <g id="line2d_15">
      <path d="M 653.663766 384.117812 
L 653.663766 23.837812 
" clip-path="url(#pd25b5b946a)" style="fill: none; stroke: #b0b0b0; stroke-opacity: 0.2; stroke-width: 0.6; stroke-linecap: square"/>
     </g>
     <g id="line2d_16">
      <g>
       <use xlink:href="#mf9f327dd38" x="653.663766" y="384.117812" style="stroke: #000000; stroke-width: 0.8"/>
      </g>
     </g>
     <g id="text_8">
      <!-- 175 -->
      <g transform="translate(643.165641 399.476094) scale(0.11 -0.11)">
       <use xlink:href="#DejaVuSans-31"/>
       <use xlink:href="#DejaVuSans-37" transform="translate(63.623047 0)"/>
       <use xlink:href="#DejaVuSans-35" transform="translate(127.246094 0)"/>
      </g>
     </g>
    </g>
    <g id="text_9">
     <!-- Time (s) -->
     <g transform="translate(352.0775 414.881875) scale(0.12 -0.12)">
      <defs>
       <path id="DejaVuSans-54" d="M -19 4666 
L 3928 4666 
L 3928 4134 
L 2272 4134 
L 2272 0 
L 1638 0 
L 1638 4134 
L -19 4134 
L -19 4666 
z
" transform="scale(0.015625)"/>
       <path id="DejaVuSans-69" d="M 603 3500 
L 1178 3500 
L 1178 0 
L 603 0 
L 603 3500 
z
M 603 4863 
L 1178 4863 
L 1178 4134 
L 603 4134 
L 603 4863 
z
" transform="scale(0.015625)"/>
       <path id="DejaVuSans-6d" d="M 3328 2828 
Q 3544 3216 3844 3400 
Q 4144 3584 4550 3584 
Q 5097 3584 5394 3201 
Q 5691 2819 5691 2113 
L 5691 0 
L 5113 0 
L 5113 2094 
Q 5113 2597 4934 2840 
Q 4756 3084 4391 3084 
Q 3944 3084 3684 2787 
Q 3425 2491 3425 1978 
L 3425 0 
L 2847 0 
L 2847 2094 
Q 2847 2600 2669 2842 
Q 2491 3084 2119 3084 
Q 1678 3084 1418 2786 
Q 1159 2488 1159 1978 
L 1159 0 
L 581 0 
L 581 3500 
L 1159 3500 
L 1159 2956 
Q 1356 3278 1631 3431 
Q 1906 3584 2284 3584 
Q 2666 3584 2933 3390 
Q 3200 3197 3328 2828 
z
" transform="scale(0.015625)"/>
       <path id="DejaVuSans-65" d="M 3597 1894 
L 3597 1613 
L 953 1613 
Q 991 1019 1311 708 
Q 1631 397 2203 397 
Q 2534 397 2845 478 
Q 3156 559 3463 722 
L 3463 178 
Q 3153 47 2828 -22 
Q 2503 -91 2169 -91 
Q 1331 -91 842 396 
Q 353 884 353 1716 
Q 353 2575 817 3079 
Q 1281 3584 2069 3584 
Q 2775 3584 3186 3129 
Q 3597 2675 3597 1894 
z
M 3022 2063 
Q 3016 2534 2758 2815 
Q 2500 3097 2075 3097 
Q 1594 3097 1305 2825 
Q 1016 2553 972 2059 
L 3022 2063 
z
" transform="scale(0.015625)"/>
       <path id="DejaVuSans-20" transform="scale(0.015625)"/>
       <path id="DejaVuSans-28" d="M 1984 4856 
Q 1566 4138 1362 3434 
Q 1159 2731 1159 2009 
Q 1159 1288 1364 580 
Q 1569 -128 1984 -844 
L 1484 -844 
Q 1016 -109 783 600 
Q 550 1309 550 2009 
Q 550 2706 781 3412 
Q 1013 4119 1484 4856 
L 1984 4856 
z
" transform="scale(0.015625)"/>
       <path id="DejaVuSans-73" d="M 2834 3397 
L 2834 2853 
Q 2591 2978 2328 3040 
Q 2066 3103 1784 3103 
Q 1356 3103 1142 2972 
Q 928 2841 928 2578 
Q 928 2378 1081 2264 
Q 1234 2150 1697 2047 
L 1894 2003 
Q 2506 1872 2764 1633 
Q 3022 1394 3022 966 
Q 3022 478 2636 193 
Q 2250 -91 1575 -91 
Q 1294 -91 989 -36 
Q 684 19 347 128 
L 347 722 
Q 666 556 975 473 
Q 1284 391 1588 391 
Q 1994 391 2212 530 
Q 2431 669 2431 922 
Q 2431 1156 2273 1281 
Q 2116 1406 1581 1522 
L 1381 1569 
Q 847 1681 609 1914 
Q 372 2147 372 2553 
Q 372 3047 722 3315 
Q 1072 3584 1716 3584 
Q 2034 3584 2315 3537 
Q 2597 3491 2834 3397 
z
" transform="scale(0.015625)"/>
       <path id="DejaVuSans-29" d="M 513 4856 
L 1013 4856 
Q 1481 4119 1714 3412 
Q 1947 2706 1947 2009 
Q 1947 1309 1714 600 
Q 1481 -109 1013 -844 
L 513 -844 
Q 928 -128 1133 580 
Q 1338 1288 1338 2009 
Q 1338 2731 1133 3434 
Q 928 4138 513 4856 
z
" transform="scale(0.015625)"/>
      </defs>
      <use xlink:href="#DejaVuSans-54"/>
      <use xlink:href="#DejaVuSans-69" transform="translate(57.958984 0)"/>
      <use xlink:href="#DejaVuSans-6d" transform="translate(85.742188 0)"/>
      <use xlink:href="#DejaVuSans-65" transform="translate(183.154297 0)"/>
      <use xlink:href="#DejaVuSans-20" transform="translate(244.677734 0)"/>
      <use xlink:href="#DejaVuSans-28" transform="translate(276.464844 0)"/>
      <use xlink:href="#DejaVuSans-73" transform="translate(315.478516 0)"/>
      <use xlink:href="#DejaVuSans-29" transform="translate(367.578125 0)"/>
     </g>
    </g>
   </g>
   <g id="matplotlib.axis_2">
    <g id="ytick_1">
     <g id="line2d_17">
      <path d="M 47.307188 367.741449 
L 705.637188 367.741449 
" clip-path="url(#pd25b5b946a)" style="fill: none; stroke: #b0b0b0; stroke-opacity: 0.2; stroke-width: 0.6; stroke-linecap: square"/>
     </g>
     <g id="line2d_18">
      <defs>
       <path id="me5cf25341d" d="M 0 0 
L -3.5 0 
" style="stroke: #000000; stroke-width: 0.8"/>
      </defs>
      <g>
       <use xlink:href="#me5cf25341d" x="47.307188" y="367.741449" style="stroke: #000000; stroke-width: 0.8"/>
      </g>
     </g>
     <g id="text_10">
      <!-- 0.0 -->
      <g transform="translate(22.81375 371.920589) scale(0.11 -0.11)">
       <defs>
        <path id="DejaVuSans-2e" d="M 684 794 
L 1344 794 
L 1344 0 
L 684 0 
L 684 794 
z
" transform="scale(0.015625)"/>
       </defs>
       <use xlink:href="#DejaVuSans-30"/>
       <use xlink:href="#DejaVuSans-2e" transform="translate(63.623047 0)"/>
       <use xlink:href="#DejaVuSans-30" transform="translate(95.410156 0)"/>
      </g>
     </g>
    </g>
    <g id="ytick_2">
     <g id="line2d_19">
      <path d="M 47.307188 317.507205 
L 705.637188 317.507205 
" clip-path="url(#pd25b5b946a)" style="fill: none; stroke: #b0b0b0; stroke-opacity: 0.2; stroke-width: 0.6; stroke-linecap: square"/>
     </g>
     <g id="line2d_20">
      <g>
       <use xlink:href="#me5cf25341d" x="47.307188" y="317.507205" style="stroke: #000000; stroke-width: 0.8"/>
      </g>
     </g>
     <g id="text_11">
      <!-- 0.5 -->
      <g transform="translate(22.81375 321.686345) scale(0.11 -0.11)">
       <use xlink:href="#DejaVuSans-30"/>
       <use xlink:href="#DejaVuSans-2e" transform="translate(63.623047 0)"/>
       <use xlink:href="#DejaVuSans-35" transform="translate(95.410156 0)"/>
      </g>
     </g>
    </g>
    <g id="ytick_3">
     <g id="line2d_21">
      <path d="M 47.307188 267.27296 
L 705.637188 267.27296 
" clip-path="url(#pd25b5b946a)" style="fill: none; stroke: #b0b0b0; stroke-opacity: 0.2; stroke-width: 0.6; stroke-linecap: square"/>
     </g>
     <g id="line2d_22">
      <g>
       <use xlink:href="#me5cf25341d" x="47.307188" y="267.27296" style="stroke: #000000; stroke-width: 0.8"/>
      </g>
     </g>
     <g id="text_12">
      <!-- 1.0 -->
      <g transform="translate(22.81375 271.452101) scale(0.11 -0.11)">
       <use xlink:href="#DejaVuSans-31"/>
       <use xlink:href="#DejaVuSans-2e" transform="translate(63.623047 0)"/>
       <use xlink:href="#DejaVuSans-30" transform="translate(95.410156 0)"/>
      </g>
     </g>
    </g>
    <g id="ytick_4">
     <g id="line2d_23">
      <path d="M 47.307188 217.038716 
L 705.637188 217.038716 
" clip-path="url(#pd25b5b946a)" style="fill: none; stroke: #b0b0b0; stroke-opacity: 0.2; stroke-width: 0.6; stroke-linecap: square"/>
     </g>
     <g id="line2d_24">
      <g>
       <use xlink:href="#me5cf25341d" x="47.307188" y="217.038716" style="stroke: #000000; stroke-width: 0.8"/>
      </g>
     </g>
     <g id="text_13">
      <!-- 1.5 -->
      <g transform="translate(22.81375 221.217857) scale(0.11 -0.11)">
       <use xlink:href="#DejaVuSans-31"/>
       <use xlink:href="#DejaVuSans-2e" transform="translate(63.623047 0)"/>
       <use xlink:href="#DejaVuSans-35" transform="translate(95.410156 0)"/>
      </g>
     </g>
    </g>
    <g id="ytick_5">
     <g id="line2d_25">
      <path d="M 47.307188 166.804472 
L 705.637188 166.804472 
" clip-path="url(#pd25b5b946a)" style="fill: none; stroke: #b0b0b0; stroke-opacity: 0.2; stroke-width: 0.6; stroke-linecap: square"/>
     </g>
     <g id="line2d_26">
      <g>
       <use xlink:href="#me5cf25341d" x="47.307188" y="166.804472" style="stroke: #000000; stroke-width: 0.8"/>
      </g>
     </g>
     <g id="text_14">
      <!-- 2.0 -->
      <g transform="translate(22.81375 170.983612) scale(0.11 -0.11)">
       <use xlink:href="#DejaVuSans-32"/>
       <use xlink:href="#DejaVuSans-2e" transform="translate(63.623047 0)"/>
       <use xlink:href="#DejaVuSans-30" transform="translate(95.410156 0)"/>
      </g>
     </g>
    </g>
    <g id="ytick_6">
     <g id="line2d_27">
      <path d="M 47.307188 116.570227 
L 705.637188 116.570227 
" clip-path="url(#pd25b5b946a)" style="fill: none; stroke: #b0b0b0; stroke-opacity: 0.2; stroke-width: 0.6; stroke-linecap: square"/>
     </g>
     <g id="line2d_28">
      <g>
       <use xlink:href="#me5cf25341d" x="47.307188" y="116.570227" style="stroke: #000000; stroke-width: 0.8"/>
      </g>
     </g>
     <g id="text_15">
      <!-- 2.5 -->
      <g transform="translate(22.81375 120.749368) scale(0.11 -0.11)">
       <use xlink:href="#DejaVuSans-32"/>
       <use xlink:href="#DejaVuSans-2e" transform="translate(63.623047 0)"/>
       <use xlink:href="#DejaVuSans-35" transform="translate(95.410156 0)"/>
      </g>
     </g>
    </g>
    <g id="ytick_7">
     <g id="line2d_29">
      <path d="M 47.307188 66.335983 
L 705.637188 66.335983 
" clip-path="url(#pd25b5b946a)" style="fill: none; stroke: #b0b0b0; stroke-opacity: 0.2; stroke-width: 0.6; stroke-linecap: square"/>
     </g>
     <g id="line2d_30">
      <g>
       <use xlink:href="#me5cf25341d" x="47.307188" y="66.335983" style="stroke: #000000; stroke-width: 0.8"/>
      </g>
     </g>
     <g id="text_16">
      <!-- 3.0 -->
      <g transform="translate(22.81375 70.515124) scale(0.11 -0.11)">
       <defs>
        <path id="DejaVuSans-33" d="M 2597 2516 
Q 3050 2419 3304 2112 
Q 3559 1806 3559 1356 
Q 3559 666 3084 287 
Q 2609 -91 1734 -91 
Q 1441 -91 1130 -33 
Q 819 25 488 141 
L 488 750 
Q 750 597 1062 519 
Q 1375 441 1716 441 
Q 2309 441 2620 675 
Q 2931 909 2931 1356 
Q 2931 1769 2642 2001 
Q 2353 2234 1838 2234 
L 1294 2234 
L 1294 2753 
L 1863 2753 
Q 2328 2753 2575 2939 
Q 2822 3125 2822 3475 
Q 2822 3834 2567 4026 
Q 2313 4219 1838 4219 
Q 1578 4219 1281 4162 
Q 984 4106 628 3988 
L 628 4550 
Q 988 4650 1302 4700 
Q 1616 4750 1894 4750 
Q 2613 4750 3031 4423 
Q 3450 4097 3450 3541 
Q 3450 3153 3228 2886 
Q 3006 2619 2597 2516 
z
" transform="scale(0.015625)"/>
       </defs>
       <use xlink:href="#DejaVuSans-33"/>
       <use xlink:href="#DejaVuSans-2e" transform="translate(63.623047 0)"/>
       <use xlink:href="#DejaVuSans-30" transform="translate(95.410156 0)"/>
      </g>
     </g>
    </g>
    <g id="text_17">
     <!-- AU mean intensity -->
     <g transform="translate(16.318125 259.314687) rotate(-90) scale(0.12 -0.12)">
      <defs>
       <path id="DejaVuSans-41" d="M 2188 4044 
L 1331 1722 
L 3047 1722 
L 2188 4044 
z
M 1831 4666 
L 2547 4666 
L 4325 0 
L 3669 0 
L 3244 1197 
L 1141 1197 
L 716 0 
L 50 0 
L 1831 4666 
z
" transform="scale(0.015625)"/>
       <path id="DejaVuSans-55" d="M 556 4666 
L 1191 4666 
L 1191 1831 
Q 1191 1081 1462 751 
Q 1734 422 2344 422 
Q 2950 422 3222 751 
Q 3494 1081 3494 1831 
L 3494 4666 
L 4128 4666 
L 4128 1753 
Q 4128 841 3676 375 
Q 3225 -91 2344 -91 
Q 1459 -91 1007 375 
Q 556 841 556 1753 
L 556 4666 
z
" transform="scale(0.015625)"/>
       <path id="DejaVuSans-61" d="M 2194 1759 
Q 1497 1759 1228 1600 
Q 959 1441 959 1056 
Q 959 750 1161 570 
Q 1363 391 1709 391 
Q 2188 391 2477 730 
Q 2766 1069 2766 1631 
L 2766 1759 
L 2194 1759 
z
M 3341 1997 
L 3341 0 
L 2766 0 
L 2766 531 
Q 2569 213 2275 61 
Q 1981 -91 1556 -91 
Q 1019 -91 701 211 
Q 384 513 384 1019 
Q 384 1609 779 1909 
Q 1175 2209 1959 2209 
L 2766 2209 
L 2766 2266 
Q 2766 2663 2505 2880 
Q 2244 3097 1772 3097 
Q 1472 3097 1187 3025 
Q 903 2953 641 2809 
L 641 3341 
Q 956 3463 1253 3523 
Q 1550 3584 1831 3584 
Q 2591 3584 2966 3190 
Q 3341 2797 3341 1997 
z
" transform="scale(0.015625)"/>
       <path id="DejaVuSans-6e" d="M 3513 2113 
L 3513 0 
L 2938 0 
L 2938 2094 
Q 2938 2591 2744 2837 
Q 2550 3084 2163 3084 
Q 1697 3084 1428 2787 
Q 1159 2491 1159 1978 
L 1159 0 
L 581 0 
L 581 3500 
L 1159 3500 
L 1159 2956 
Q 1366 3272 1645 3428 
Q 1925 3584 2291 3584 
Q 2894 3584 3203 3211 
Q 3513 2838 3513 2113 
z
" transform="scale(0.015625)"/>
       <path id="DejaVuSans-74" d="M 1172 4494 
L 1172 3500 
L 2356 3500 
L 2356 3053 
L 1172 3053 
L 1172 1153 
Q 1172 725 1289 603 
Q 1406 481 1766 481 
L 2356 481 
L 2356 0 
L 1766 0 
Q 1100 0 847 248 
Q 594 497 594 1153 
L 594 3053 
L 172 3053 
L 172 3500 
L 594 3500 
L 594 4494 
L 1172 4494 
z
" transform="scale(0.015625)"/>
       <path id="DejaVuSans-79" d="M 2059 -325 
Q 1816 -950 1584 -1140 
Q 1353 -1331 966 -1331 
L 506 -1331 
L 506 -850 
L 844 -850 
Q 1081 -850 1212 -737 
Q 1344 -625 1503 -206 
L 1606 56 
L 191 3500 
L 800 3500 
L 1894 763 
L 2988 3500 
L 3597 3500 
L 2059 -325 
z
" transform="scale(0.015625)"/>
      </defs>
      <use xlink:href="#DejaVuSans-41"/>
      <use xlink:href="#DejaVuSans-55" transform="translate(68.408203 0)"/>
      <use xlink:href="#DejaVuSans-20" transform="translate(141.601562 0)"/>
      <use xlink:href="#DejaVuSans-6d" transform="translate(173.388672 0)"/>
      <use xlink:href="#DejaVuSans-65" transform="translate(270.800781 0)"/>
      <use xlink:href="#DejaVuSans-61" transform="translate(332.324219 0)"/>
      <use xlink:href="#DejaVuSans-6e" transform="translate(393.603516 0)"/>
      <use xlink:href="#DejaVuSans-20" transform="translate(456.982422 0)"/>
      <use xlink:href="#DejaVuSans-69" transform="translate(488.769531 0)"/>
      <use xlink:href="#DejaVuSans-6e" transform="translate(516.552734 0)"/>
      <use xlink:href="#DejaVuSans-74" transform="translate(579.931641 0)"/>
      <use xlink:href="#DejaVuSans-65" transform="translate(619.140625 0)"/>
      <use xlink:href="#DejaVuSans-6e" transform="translate(680.664062 0)"/>
      <use xlink:href="#DejaVuSans-73" transform="translate(744.042969 0)"/>
      <use xlink:href="#DejaVuSans-69" transform="translate(796.142578 0)"/>
      <use xlink:href="#DejaVuSans-74" transform="translate(823.925781 0)"/>
      <use xlink:href="#DejaVuSans-79" transform="translate(863.134766 0)"/>
     </g>
    </g>
   </g>
   <g id="FillBetweenPolyCollection_1">
    <defs>
     <path id="m0521c14021" d="M 47.307188 -150.098632 
L 47.307188 -24.619851 
L 50.772082 -19.379762 
L 54.236977 -18.362657 
L 57.701872 -20.677155 
L 61.166766 -24.096894 
L 64.631661 -19.562407 
L 68.096556 -21.791993 
L 71.561451 -21.576586 
L 75.026345 -23.098957 
L 78.49124 -24.974846 
L 81.956135 -21.223174 
L 85.42103 -22.017991 
L 88.885924 -23.411722 
L 92.350819 -25.554541 
L 95.815714 -26.137438 
L 99.280609 -26.677895 
L 102.745503 -26.148689 
L 106.210398 -22.865578 
L 109.675293 -19.967778 
L 113.140187 -18.722939 
L 116.605082 -21.366574 
L 120.069977 -21.373122 
L 123.534872 -22.538754 
L 126.999766 -23.518045 
L 130.464661 -24.408087 
L 133.929556 -25.412511 
L 137.394451 -25.683558 
L 140.859345 -25.752126 
L 144.32424 -22.251072 
L 147.789135 -19.902385 
L 151.25403 -23.662291 
L 154.718924 -25.011609 
L 158.183819 -26.307985 
L 161.648714 -27.364502 
L 165.113609 -30.326608 
L 168.578503 -29.716003 
L 172.043398 -29.042958 
L 175.508293 -31.963691 
L 178.973187 -27.340534 
L 182.438082 -25.337503 
L 185.902977 -23.515336 
L 189.367872 -24.062527 
L 192.832766 -23.571558 
L 196.297661 -24.099794 
L 199.762556 -22.638987 
L 203.227451 -24.19553 
L 206.692345 -23.928119 
L 210.15724 -25.419354 
L 213.622135 -23.724145 
L 217.08703 -21.722023 
L 220.551924 -20.332639 
L 224.016819 -20.154181 
L 227.481714 -20.765929 
L 230.946609 -22.11544 
L 234.411503 -21.120707 
L 237.876398 -27.795666 
L 241.341293 -24.761225 
L 244.806187 -21.269988 
L 248.271082 -26.578931 
L 251.735977 -24.555867 
L 255.200872 -27.809702 
L 258.665766 -25.622039 
L 262.130661 -28.119656 
L 265.595556 -20.837044 
L 269.060451 -24.305143 
L 272.525345 -19.508662 
L 275.99024 -21.708891 
L 279.455135 -26.629697 
L 282.92003 -27.448884 
L 286.384924 -25.416969 
L 289.849819 -25.815095 
L 293.314714 -19.505443 
L 296.779609 -25.25803 
L 300.244503 -28.210723 
L 303.709398 -30.765633 
L 307.174293 -28.728292 
L 310.639187 -27.346912 
L 314.104082 -26.936065 
L 317.568977 -24.746264 
L 321.033872 -22.485046 
L 324.498766 -12.795283 
L 327.963661 -17.725108 
L 331.428556 -20.831824 
L 334.893451 -19.55701 
L 338.358345 -21.260443 
L 341.82324 -19.235926 
L 345.288135 -21.049171 
L 348.75303 -20.741257 
L 352.217924 -21.129377 
L 355.682819 -19.416726 
L 359.147714 -21.903627 
L 362.612609 -21.846504 
L 366.077503 -14.30192 
L 369.542398 -13.495542 
L 373.007293 -22.672582 
L 376.472188 -22.66031 
L 379.937082 -24.38846 
L 383.401977 -26.635935 
L 386.866872 -21.546344 
L 390.331766 -19.851735 
L 393.796661 -16.84583 
L 397.261556 -14.092525 
L 400.726451 -20.047835 
L 404.191345 -16.074892 
L 407.65624 -17.231353 
L 411.121135 -21.36706 
L 414.58603 -20.733033 
L 418.050924 -24.328862 
L 421.515819 -25.238028 
L 424.980714 -24.799473 
L 428.445609 -24.736455 
L 431.910503 -24.211234 
L 435.375398 -27.896011 
L 438.840293 -27.133392 
L 442.305187 -25.254057 
L 445.770082 -26.288141 
L 449.234977 -20.61602 
L 452.699872 -17.3648 
L 456.164766 -22.00671 
L 459.629661 -19.823937 
L 463.094556 -14.194127 
L 466.559451 -9.527305 
L 470.024345 -20.799138 
L 473.48924 -21.988358 
L 476.954135 -20.845844 
L 480.41903 -22.841939 
L 483.883924 -18.989401 
L 487.348819 -20.77723 
L 490.813714 -24.856569 
L 494.278609 -26.284275 
L 497.743503 -27.771828 
L 501.208398 -28.020319 
L 504.673293 -29.204184 
L 508.138188 -25.392897 
L 511.603082 -24.209498 
L 515.067977 -28.450147 
L 518.532872 -26.801062 
L 521.997766 -24.997965 
L 525.462661 -18.363152 
L 528.927556 -17.426251 
L 532.392451 -27.863703 
L 535.857345 -26.638702 
L 539.32224 -24.023216 
L 542.787135 -19.020964 
L 546.25203 -18.418209 
L 549.716924 -18.83804 
L 553.181819 -20.620092 
L 556.646714 -15.431235 
L 560.111609 -18.098121 
L 563.576503 -23.125783 
L 567.041398 -25.238564 
L 570.506293 -25.193287 
L 573.971188 -23.37137 
L 577.436082 -20.930855 
L 580.900977 -18.066853 
L 584.365872 -17.406063 
L 587.830766 -19.46134 
L 591.295661 -14.202979 
L 594.760556 -18.210398 
L 598.225451 -21.42012 
L 601.690345 -22.325423 
L 605.15524 -19.06434 
L 608.620135 -24.787705 
L 612.08503 -19.086825 
L 615.549924 -15.236733 
L 619.014819 -17.184135 
L 622.479714 -22.685518 
L 625.944609 -27.850393 
L 629.409503 -16.717723 
L 632.874398 -18.628859 
L 636.339293 -26.342992 
L 639.804188 -26.044031 
L 643.269082 -24.485201 
L 646.733977 -22.500122 
L 650.198872 -14.461583 
L 653.663766 -19.059212 
L 657.128661 -23.174818 
L 660.593556 -25.549991 
L 664.058451 -27.259282 
L 667.523345 -27.549996 
L 670.98824 -26.154481 
L 674.453135 -26.256105 
L 677.91803 -24.027842 
L 681.382924 -26.371777 
L 684.847819 -24.354245 
L 688.312714 -27.203603 
L 691.777609 -25.551499 
L 695.242503 -24.481248 
L 698.707398 -27.133267 
L 702.172293 -25.163875 
L 705.637188 -56.445141 
L 705.637188 -64.259755 
L 705.637188 -64.259755 
L 702.172293 -192.838999 
L 698.707398 -193.498797 
L 695.242503 -193.541846 
L 691.777609 -190.744303 
L 688.312714 -200.489934 
L 684.847819 -203.251085 
L 681.382924 -202.218521 
L 677.91803 -204.577781 
L 674.453135 -207.072668 
L 670.98824 -204.10482 
L 667.523345 -203.718307 
L 664.058451 -206.729101 
L 660.593556 -211.119792 
L 657.128661 -213.257624 
L 653.663766 -222.60195 
L 650.198872 -234.300125 
L 646.733977 -220.717002 
L 643.269082 -208.568988 
L 639.804188 -207.745078 
L 636.339293 -206.660963 
L 632.874398 -218.239696 
L 629.409503 -217.109425 
L 625.944609 -207.562668 
L 622.479714 -218.146066 
L 619.014819 -220.348291 
L 615.549924 -213.319871 
L 612.08503 -215.942117 
L 608.620135 -205.059595 
L 605.15524 -215.72166 
L 601.690345 -211.909676 
L 598.225451 -206.611972 
L 594.760556 -207.443558 
L 591.295661 -208.373068 
L 587.830766 -194.830764 
L 584.365872 -194.423753 
L 580.900977 -189.231348 
L 577.436082 -185.238514 
L 573.971188 -183.000333 
L 570.506293 -168.495038 
L 567.041398 -163.527251 
L 563.576503 -171.748676 
L 560.111609 -177.463496 
L 556.646714 -183.099931 
L 553.181819 -176.314054 
L 549.716924 -176.502818 
L 546.25203 -177.217139 
L 542.787135 -180.051086 
L 539.32224 -176.541571 
L 535.857345 -170.457757 
L 532.392451 -165.368099 
L 528.927556 -183.600171 
L 525.462661 -183.29585 
L 521.997766 -173.948932 
L 518.532872 -180.39748 
L 515.067977 -181.137749 
L 511.603082 -182.203527 
L 508.138188 -176.647736 
L 504.673293 -171.675782 
L 501.208398 -170.135822 
L 497.743503 -175.442409 
L 494.278609 -184.462473 
L 490.813714 -195.654453 
L 487.348819 -211.213839 
L 483.883924 -220.376477 
L 480.41903 -216.605019 
L 476.954135 -197.502675 
L 473.48924 -196.280535 
L 470.024345 -196.870408 
L 466.559451 -206.998546 
L 463.094556 -205.599842 
L 459.629661 -199.615067 
L 456.164766 -191.785482 
L 452.699872 -198.244277 
L 449.234977 -193.618963 
L 445.770082 -186.434198 
L 442.305187 -181.886554 
L 438.840293 -182.972436 
L 435.375398 -181.314737 
L 431.910503 -190.040652 
L 428.445609 -184.003955 
L 424.980714 -187.515363 
L 421.515819 -184.550008 
L 418.050924 -186.932787 
L 414.58603 -195.753173 
L 411.121135 -193.560822 
L 407.65624 -206.195686 
L 404.191345 -212.169396 
L 400.726451 -209.690489 
L 397.261556 -217.706269 
L 393.796661 -204.074764 
L 390.331766 -192.26303 
L 386.866872 -184.056451 
L 383.401977 -176.525009 
L 379.937082 -179.898927 
L 376.472188 -181.69413 
L 373.007293 -177.537324 
L 369.542398 -187.921061 
L 366.077503 -182.400501 
L 362.612609 -169.842411 
L 359.147714 -168.995119 
L 355.682819 -170.412223 
L 352.217924 -169.328604 
L 348.75303 -170.702983 
L 345.288135 -167.715429 
L 341.82324 -173.794156 
L 338.358345 -172.155686 
L 334.893451 -175.171076 
L 331.428556 -173.705258 
L 327.963661 -180.330997 
L 324.498766 -189.583608 
L 321.033872 -171.839867 
L 317.568977 -168.362788 
L 314.104082 -165.61073 
L 310.639187 -164.231616 
L 307.174293 -161.776221 
L 303.709398 -164.003174 
L 300.244503 -166.911443 
L 296.779609 -169.27176 
L 293.314714 -183.246265 
L 289.849819 -185.489692 
L 286.384924 -187.512803 
L 282.92003 -183.279019 
L 279.455135 -174.782576 
L 275.99024 -182.888409 
L 272.525345 -181.347136 
L 269.060451 -169.597529 
L 265.595556 -175.853643 
L 262.130661 -167.213882 
L 258.665766 -167.183722 
L 255.200872 -172.453273 
L 251.735977 -179.741844 
L 248.271082 -183.427462 
L 244.806187 -187.140434 
L 241.341293 -185.033699 
L 237.876398 -183.426142 
L 234.411503 -186.995421 
L 230.946609 -184.610836 
L 227.481714 -182.410633 
L 224.016819 -180.395882 
L 220.551924 -189.812304 
L 217.08703 -187.619898 
L 213.622135 -184.673537 
L 210.15724 -179.797296 
L 206.692345 -187.338992 
L 203.227451 -185.420947 
L 199.762556 -183.595787 
L 196.297661 -172.983672 
L 192.832766 -166.430263 
L 189.367872 -162.990114 
L 185.902977 -166.074484 
L 182.438082 -161.886627 
L 178.973187 -156.011327 
L 175.508293 -146.545231 
L 172.043398 -150.08396 
L 168.578503 -148.706308 
L 165.113609 -145.889965 
L 161.648714 -149.017693 
L 158.183819 -152.57789 
L 154.718924 -158.589159 
L 151.25403 -160.203255 
L 147.789135 -164.011481 
L 144.32424 -159.725829 
L 140.859345 -152.172606 
L 137.394451 -150.955549 
L 133.929556 -155.398958 
L 130.464661 -154.715589 
L 126.999766 -153.842851 
L 123.534872 -155.203481 
L 120.069977 -154.500234 
L 116.605082 -154.89051 
L 113.140187 -159.343834 
L 109.675293 -158.839099 
L 106.210398 -156.024864 
L 102.745503 -148.274845 
L 99.280609 -145.666939 
L 95.815714 -146.780284 
L 92.350819 -147.528649 
L 88.885924 -152.707623 
L 85.42103 -154.143346 
L 81.956135 -154.087562 
L 78.49124 -150.165783 
L 75.026345 -153.771875 
L 71.561451 -154.993554 
L 68.096556 -156.495122 
L 64.631661 -159.968089 
L 61.166766 -157.982095 
L 57.701872 -164.685709 
L 54.236977 -165.776747 
L 50.772082 -151.61481 
L 47.307188 -150.098632 
z
" style="stroke: #d3d3d3; stroke-opacity: 0.5"/>
    </defs>
    <g clip-path="url(#pd25b5b946a)">
     <use xlink:href="#m0521c14021" x="0" y="424.5775" style="fill: #d3d3d3; fill-opacity: 0.5; stroke: #d3d3d3; stroke-opacity: 0.5"/>
    </g>
   </g>
   <g id="FillBetweenPolyCollection_2">
    <defs>
     <path id="md198b6d70a" d="M 47.307188 -118.728936 
L 47.307188 -55.989546 
L 50.772082 -52.438524 
L 54.236977 -55.21618 
L 57.701872 -56.679294 
L 61.166766 -57.568194 
L 64.631661 -54.663827 
L 68.096556 -55.467775 
L 71.561451 -54.930828 
L 75.026345 -55.767187 
L 78.49124 -56.27258 
L 81.956135 -54.439271 
L 85.42103 -55.04933 
L 88.885924 -55.735697 
L 92.350819 -56.048068 
L 95.815714 -56.298149 
L 99.280609 -56.425156 
L 102.745503 -56.680228 
L 106.210398 -56.1554 
L 109.675293 -54.685608 
L 113.140187 -53.878163 
L 116.605082 -54.747558 
L 120.069977 -54.6549 
L 123.534872 -55.704936 
L 126.999766 -56.099246 
L 130.464661 -56.984963 
L 133.929556 -57.909123 
L 137.394451 -57.001556 
L 140.859345 -57.357246 
L 144.32424 -56.619761 
L 147.789135 -55.929659 
L 151.25403 -57.797532 
L 154.718924 -58.405997 
L 158.183819 -57.875461 
L 161.648714 -57.777799 
L 165.113609 -59.217447 
L 168.578503 -59.463579 
L 172.043398 -59.303208 
L 175.508293 -60.609076 
L 178.973187 -59.508232 
L 182.438082 -59.474784 
L 185.902977 -59.155123 
L 189.367872 -58.794424 
L 192.832766 -59.286234 
L 196.297661 -61.320764 
L 199.762556 -62.878187 
L 203.227451 -64.501884 
L 206.692345 -64.780837 
L 210.15724 -64.01384 
L 213.622135 -63.961493 
L 217.08703 -63.196492 
L 220.551924 -62.702555 
L 224.016819 -60.214606 
L 227.481714 -61.177105 
L 230.946609 -62.739289 
L 234.411503 -62.589385 
L 237.876398 -66.703285 
L 241.341293 -64.829343 
L 244.806187 -62.7376 
L 248.271082 -65.791064 
L 251.735977 -63.352361 
L 255.200872 -63.970595 
L 258.665766 -61.01246 
L 262.130661 -62.893213 
L 265.595556 -59.591194 
L 269.060451 -60.62824 
L 272.525345 -59.968281 
L 275.99024 -62.00377 
L 279.455135 -63.667916 
L 282.92003 -66.406418 
L 286.384924 -65.940928 
L 289.849819 -65.733744 
L 293.314714 -60.440649 
L 296.779609 -61.261462 
L 300.244503 -62.885903 
L 303.709398 -64.075019 
L 307.174293 -61.990274 
L 310.639187 -61.568088 
L 314.104082 -61.604731 
L 317.568977 -60.650395 
L 321.033872 -59.823752 
L 324.498766 -56.992364 
L 327.963661 -58.37658 
L 331.428556 -59.050182 
L 334.893451 -58.460527 
L 338.358345 -58.984254 
L 341.82324 -57.875484 
L 345.288135 -57.715736 
L 348.75303 -58.231688 
L 352.217924 -58.179184 
L 355.682819 -57.1656 
L 359.147714 -58.6765 
L 362.612609 -58.845481 
L 366.077503 -56.326565 
L 369.542398 -57.101922 
L 373.007293 -61.388767 
L 376.472188 -62.418765 
L 379.937082 -63.266077 
L 383.401977 -64.108203 
L 386.866872 -62.173871 
L 390.331766 -62.954559 
L 393.796661 -63.653063 
L 397.261556 -64.995961 
L 400.726451 -67.458498 
L 404.191345 -65.098518 
L 407.65624 -64.472436 
L 411.121135 -64.415501 
L 414.58603 -64.488068 
L 418.050924 -64.979843 
L 421.515819 -65.066023 
L 424.980714 -65.478446 
L 428.445609 -64.55333 
L 431.910503 -65.668588 
L 435.375398 -66.250692 
L 438.840293 -66.093153 
L 442.305187 -64.412181 
L 445.770082 -66.324656 
L 449.234977 -63.866756 
L 452.699872 -62.584669 
L 456.164766 -64.451403 
L 459.629661 -64.77172 
L 463.094556 -62.045556 
L 466.559451 -58.895115 
L 470.024345 -64.816956 
L 473.48924 -65.561402 
L 476.954135 -65.010052 
L 480.41903 -71.282709 
L 483.883924 -69.33617 
L 487.348819 -68.386383 
L 490.813714 -67.55604 
L 494.278609 -65.828825 
L 497.743503 -64.689474 
L 501.208398 -63.549194 
L 504.673293 -64.822083 
L 508.138188 -63.206607 
L 511.603082 -63.708005 
L 515.067977 -66.622048 
L 518.532872 -65.200167 
L 521.997766 -62.235707 
L 525.462661 -59.596326 
L 528.927556 -58.969731 
L 532.392451 -62.239802 
L 535.857345 -62.593465 
L 539.32224 -62.152804 
L 542.787135 -59.278494 
L 546.25203 -58.117942 
L 549.716924 -58.254235 
L 553.181819 -59.543583 
L 556.646714 -57.348409 
L 560.111609 -57.939465 
L 563.576503 -60.281506 
L 567.041398 -59.810736 
L 570.506293 -61.018725 
L 573.971188 -63.278611 
L 577.436082 -62.00777 
L 580.900977 -60.857977 
L 584.365872 -61.660485 
L 587.830766 -63.303696 
L 591.295661 -62.745501 
L 594.760556 -65.518688 
L 598.225451 -67.718083 
L 601.690345 -69.721486 
L 605.15524 -68.22867 
L 608.620135 -69.855677 
L 612.08503 -68.300648 
L 615.549924 -64.757517 
L 619.014819 -67.975174 
L 622.479714 -71.550655 
L 625.944609 -72.778462 
L 629.409503 -66.815649 
L 632.874398 -68.531568 
L 636.339293 -71.422485 
L 639.804188 -71.469293 
L 643.269082 -70.506148 
L 646.733977 -72.054342 
L 650.198872 -69.421218 
L 653.663766 -69.944896 
L 657.128661 -70.695519 
L 660.593556 -71.942441 
L 664.058451 -72.126737 
L 667.523345 -71.592074 
L 670.98824 -70.642066 
L 674.453135 -71.460246 
L 677.91803 -69.165327 
L 681.382924 -70.333463 
L 684.847819 -69.078455 
L 688.312714 -70.525186 
L 691.777609 -66.8497 
L 695.242503 -66.746397 
L 698.707398 -68.72465 
L 702.172293 -67.082656 
L 705.637188 -58.398795 
L 705.637188 -62.306102 
L 705.637188 -62.306102 
L 702.172293 -150.920218 
L 698.707398 -151.907414 
L 695.242503 -151.276697 
L 691.777609 -149.446102 
L 688.312714 -157.168352 
L 684.847819 -158.526875 
L 681.382924 -158.256835 
L 677.91803 -159.440296 
L 674.453135 -161.868527 
L 670.98824 -159.617235 
L 667.523345 -159.676229 
L 664.058451 -161.861647 
L 660.593556 -164.727342 
L 657.128661 -165.736922 
L 653.663766 -171.716265 
L 650.198872 -179.340489 
L 646.733977 -171.162782 
L 643.269082 -162.548041 
L 639.804188 -162.319816 
L 636.339293 -161.58147 
L 632.874398 -168.336987 
L 629.409503 -167.011499 
L 625.944609 -162.634599 
L 622.479714 -169.280929 
L 619.014819 -169.557252 
L 615.549924 -163.799086 
L 612.08503 -166.728294 
L 608.620135 -159.991622 
L 605.15524 -166.55733 
L 601.690345 -164.513613 
L 598.225451 -160.314009 
L 594.760556 -160.135268 
L 591.295661 -159.830545 
L 587.830766 -150.988408 
L 584.365872 -150.16933 
L 580.900977 -146.440224 
L 577.436082 -144.161599 
L 573.971188 -143.093092 
L 570.506293 -132.6696 
L 567.041398 -128.95508 
L 563.576503 -134.592953 
L 560.111609 -137.622153 
L 556.646714 -141.182757 
L 553.181819 -137.390564 
L 549.716924 -137.086623 
L 546.25203 -137.517407 
L 542.787135 -139.793555 
L 539.32224 -138.411982 
L 535.857345 -134.502993 
L 532.392451 -130.992 
L 528.927556 -142.056691 
L 525.462661 -142.062675 
L 521.997766 -136.711191 
L 518.532872 -141.998376 
L 515.067977 -142.965848 
L 511.603082 -142.705019 
L 508.138188 -138.834027 
L 504.673293 -136.057882 
L 501.208398 -134.606946 
L 497.743503 -138.524764 
L 494.278609 -144.917923 
L 490.813714 -152.954982 
L 487.348819 -163.604687 
L 483.883924 -170.029708 
L 480.41903 -168.164249 
L 476.954135 -153.338467 
L 473.48924 -152.707491 
L 470.024345 -152.852591 
L 466.559451 -157.630736 
L 463.094556 -157.748413 
L 459.629661 -154.667285 
L 456.164766 -149.340789 
L 452.699872 -153.024407 
L 449.234977 -150.368227 
L 445.770082 -146.397684 
L 442.305187 -142.728429 
L 438.840293 -144.012675 
L 435.375398 -142.960056 
L 431.910503 -148.583297 
L 428.445609 -144.18708 
L 424.980714 -146.83639 
L 421.515819 -144.722013 
L 418.050924 -146.281806 
L 414.58603 -151.998138 
L 411.121135 -150.512382 
L 407.65624 -158.954603 
L 404.191345 -163.14577 
L 400.726451 -162.279825 
L 397.261556 -166.802833 
L 393.796661 -157.26753 
L 390.331766 -149.160206 
L 386.866872 -143.428924 
L 383.401977 -139.052741 
L 379.937082 -141.02131 
L 376.472188 -141.935675 
L 373.007293 -138.821138 
L 369.542398 -144.314681 
L 366.077503 -140.375856 
L 362.612609 -132.843434 
L 359.147714 -132.222246 
L 355.682819 -132.663348 
L 352.217924 -132.278797 
L 348.75303 -133.212551 
L 345.288135 -131.048865 
L 341.82324 -135.154599 
L 338.358345 -134.431875 
L 334.893451 -136.26756 
L 331.428556 -135.4869 
L 327.963661 -139.679525 
L 324.498766 -145.386527 
L 321.033872 -134.501162 
L 317.568977 -132.458657 
L 314.104082 -130.942063 
L 310.639187 -130.01044 
L 307.174293 -128.514239 
L 303.709398 -130.693789 
L 300.244503 -132.236263 
L 296.779609 -133.268328 
L 293.314714 -142.31106 
L 289.849819 -145.571043 
L 286.384924 -146.988845 
L 282.92003 -144.321486 
L 279.455135 -137.744356 
L 275.99024 -142.593529 
L 272.525345 -140.887518 
L 269.060451 -133.274433 
L 265.595556 -137.099493 
L 262.130661 -132.440325 
L 258.665766 -131.793301 
L 255.200872 -136.292381 
L 251.735977 -140.945349 
L 248.271082 -144.215329 
L 244.806187 -145.672823 
L 241.341293 -144.96558 
L 237.876398 -144.518523 
L 234.411503 -145.526742 
L 230.946609 -143.986987 
L 227.481714 -141.999457 
L 224.016819 -140.335456 
L 220.551924 -147.442388 
L 217.08703 -146.145429 
L 213.622135 -144.436189 
L 210.15724 -141.202811 
L 206.692345 -146.486274 
L 203.227451 -145.114593 
L 199.762556 -143.356587 
L 196.297661 -135.762703 
L 192.832766 -130.715587 
L 189.367872 -128.258217 
L 185.902977 -130.434697 
L 182.438082 -127.749346 
L 178.973187 -123.843628 
L 175.508293 -117.899846 
L 172.043398 -119.823709 
L 168.578503 -118.958732 
L 165.113609 -116.999125 
L 161.648714 -118.604395 
L 158.183819 -121.010413 
L 154.718924 -125.194772 
L 151.25403 -126.068014 
L 147.789135 -127.984207 
L 144.32424 -125.35714 
L 140.859345 -120.567486 
L 137.394451 -119.637551 
L 133.929556 -122.902346 
L 130.464661 -122.138714 
L 126.999766 -121.26165 
L 123.534872 -122.037299 
L 120.069977 -121.218456 
L 116.605082 -121.509526 
L 113.140187 -124.188611 
L 109.675293 -124.121269 
L 106.210398 -122.735043 
L 102.745503 -117.743306 
L 99.280609 -115.919678 
L 95.815714 -116.619573 
L 92.350819 -117.035122 
L 88.885924 -120.383648 
L 85.42103 -121.112007 
L 81.956135 -120.871465 
L 78.49124 -118.868049 
L 75.026345 -121.103646 
L 71.561451 -121.639312 
L 68.096556 -122.819339 
L 64.631661 -124.866668 
L 61.166766 -124.510795 
L 57.701872 -128.683571 
L 54.236977 -128.923224 
L 50.772082 -118.556048 
L 47.307188 -118.728936 
z
" style="stroke: #808080; stroke-opacity: 0.7"/>
    </defs>
    <g clip-path="url(#pd25b5b946a)">
     <use xlink:href="#md198b6d70a" x="0" y="424.5775" style="fill: #808080; fill-opacity: 0.7; stroke: #808080; stroke-opacity: 0.7"/>
    </g>
   </g>
   <g id="line2d_31">
    <path d="M 47.307188 339.900374 
L 50.772082 338.99865 
L 54.236977 324.652835 
L 57.701872 324.384631 
L 61.166766 335.853512 
L 64.631661 328.274104 
L 68.096556 311.168168 
L 71.561451 319.758132 
L 75.026345 310.238885 
L 78.49124 316.888212 
L 81.956135 310.78911 
L 85.42103 309.828184 
L 88.885924 279.541769 
L 92.350819 271.082997 
L 95.815714 293.643506 
L 99.280609 315.275487 
L 102.745503 305.408619 
L 106.210398 344.590778 
L 109.675293 324.211851 
L 113.140187 310.671179 
L 116.605082 314.81168 
L 120.069977 317.785604 
L 123.534872 296.377172 
L 126.999766 305.431208 
L 130.464661 307.125505 
L 133.929556 314.393449 
L 137.394451 311.089048 
L 140.859345 309.783633 
L 144.32424 311.69558 
L 147.789135 307.124024 
L 151.25403 294.550425 
L 154.718924 299.919713 
L 158.183819 302.90701 
L 161.648714 319.806751 
L 165.113609 307.386993 
L 168.578503 299.449734 
L 172.043398 304.620275 
L 175.508293 317.18424 
L 178.973187 313.6019 
L 182.438082 312.291191 
L 185.902977 302.396761 
L 189.367872 298.099873 
L 192.832766 315.943198 
L 196.297661 316.23286 
L 199.762556 324.088881 
L 203.227451 313.354703 
L 206.692345 327.477167 
L 210.15724 335.766465 
L 213.622135 334.656462 
L 217.08703 341.80979 
L 220.551924 337.528007 
L 224.016819 338.871128 
L 227.481714 338.686879 
L 230.946609 334.27186 
L 234.411503 335.186524 
L 237.876398 335.626226 
L 241.341293 342.643348 
L 244.806187 335.624214 
L 248.271082 350.645164 
L 251.735977 334.125868 
L 255.200872 343.91309 
L 258.665766 333.48013 
L 262.130661 330.482307 
L 265.595556 332.029514 
L 269.060451 338.65353 
L 272.525345 335.845858 
L 275.99024 338.640024 
L 279.455135 345.849384 
L 282.92003 338.390749 
L 286.384924 339.298646 
L 289.849819 344.193924 
L 293.314714 339.424949 
L 296.779609 336.533157 
L 300.244503 314.645192 
L 303.709398 317.360851 
L 307.174293 325.14087 
L 310.639187 332.419657 
L 314.104082 328.176693 
L 317.568977 308.9292 
L 321.033872 322.109449 
L 324.498766 325.198804 
L 327.963661 323.509054 
L 331.428556 321.100904 
L 334.893451 314.619065 
L 338.358345 327.156318 
L 341.82324 309.990195 
L 345.288135 308.985785 
L 348.75303 302.661635 
L 352.217924 316.49937 
L 355.682819 315.417816 
L 359.147714 292.773461 
L 362.612609 317.805584 
L 366.077503 320.894099 
L 369.542398 316.469985 
L 373.007293 319.032083 
L 376.472188 307.776678 
L 379.937082 309.860133 
L 383.401977 324.049351 
L 386.866872 326.750157 
L 390.331766 329.808923 
L 393.796661 315.404242 
L 397.261556 272.313468 
L 400.726451 290.879584 
L 404.191345 233.312732 
L 407.65624 286.185337 
L 411.121135 288.852945 
L 414.58603 292.046331 
L 418.050924 299.63363 
L 421.515819 311.485569 
L 424.980714 326.409498 
L 428.445609 300.226832 
L 431.910503 297.686268 
L 435.375398 285.275088 
L 438.840293 310.918385 
L 442.305187 298.028512 
L 445.770082 300.830522 
L 449.234977 295.680078 
L 452.699872 292.873009 
L 456.164766 268.517516 
L 459.629661 277.443305 
L 463.094556 265.270165 
L 466.559451 309.459168 
L 470.024345 307.613745 
L 473.48924 300.185688 
L 476.954135 314.268804 
L 480.41903 289.159449 
L 483.883924 242.980751 
L 487.348819 302.26798 
L 490.813714 306.235281 
L 494.278609 319.73132 
L 497.743503 317.423571 
L 501.208398 334.059135 
L 504.673293 335.10205 
L 508.138188 328.65921 
L 511.603082 325.855639 
L 515.067977 321.136494 
L 518.532872 254.870812 
L 521.997766 228.639078 
L 525.462661 224.409987 
L 528.927556 221.045179 
L 532.392451 250.106749 
L 535.857345 277.642258 
L 539.32224 302.996735 
L 542.787135 253.445826 
L 546.25203 266.782504 
L 549.716924 289.068862 
L 553.181819 289.860261 
L 556.646714 278.77157 
L 560.111609 260.493404 
L 563.576503 295.278056 
L 567.041398 304.196514 
L 570.506293 303.620258 
L 573.971188 313.933967 
L 577.436082 307.794814 
L 580.900977 298.165719 
L 584.365872 280.856235 
L 587.830766 293.205821 
L 591.295661 272.666383 
L 594.760556 291.774746 
L 598.225451 267.269305 
L 601.690345 222.613184 
L 605.15524 240.418345 
L 608.620135 157.539871 
L 612.08503 239.851524 
L 615.549924 205.372283 
L 619.014819 250.022155 
L 622.479714 241.386063 
L 625.944609 251.714977 
L 629.409503 288.835787 
L 632.874398 288.667263 
L 636.339293 293.500054 
L 639.804188 241.505661 
L 643.269082 246.031058 
L 646.733977 267.802517 
L 650.198872 235.598989 
L 653.663766 194.176073 
L 657.128661 232.812814 
L 660.593556 266.138969 
L 664.058451 253.98821 
L 667.523345 249.597514 
L 670.98824 232.940573 
L 674.453135 217.545546 
L 677.91803 237.306452 
L 681.382924 231.080826 
L 684.847819 251.067059 
L 688.312714 256.639161 
L 691.777609 260.906846 
L 695.242503 280.882892 
L 698.707398 290.132444 
L 702.172293 249.468614 
L 705.637188 248.434312 
L 705.637188 248.434312 
" clip-path="url(#pd25b5b946a)" style="fill: none; stroke: #ff8c00; stroke-width: 2.3; stroke-linecap: square"/>
   </g>
   <g id="line2d_32">
    <path d="M 275.99024 384.117812 
L 275.99024 23.837812 
" clip-path="url(#pd25b5b946a)" style="fill: none; stroke-dasharray: 5.55,2.4; stroke-dashoffset: 0; stroke: #808080; stroke-width: 1.5"/>
   </g>
   <g id="line2d_33">
    <path d="M 473.48924 384.117812 
L 473.48924 23.837812 
" clip-path="url(#pd25b5b946a)" style="fill: none; stroke-dasharray: 5.55,2.4; stroke-dashoffset: 0; stroke: #808080; stroke-width: 1.5"/>
   </g>
   <g id="patch_3">
    <path d="M 47.307188 384.117812 
L 47.307188 23.837812 
" style="fill: none; stroke: #000000; stroke-width: 0.8; stroke-linejoin: miter; stroke-linecap: square"/>
   </g>
   <g id="patch_4">
    <path d="M 705.637188 384.117812 
L 705.637188 23.837812 
" style="fill: none; stroke: #000000; stroke-width: 0.8; stroke-linejoin: miter; stroke-linecap: square"/>
   </g>
   <g id="patch_5">
    <path d="M 47.307188 384.117812 
L 705.637188 384.117812 
" style="fill: none; stroke: #000000; stroke-width: 0.8; stroke-linejoin: miter; stroke-linecap: square"/>
   </g>
   <g id="patch_6">
    <path d="M 47.307188 23.837812 
L 705.637188 23.837812 
" style="fill: none; stroke: #000000; stroke-width: 0.8; stroke-linejoin: miter; stroke-linecap: square"/>
   </g>
   <g id="text_18">
    <!-- Facial trace: Social anxiety disorder (SAD) -->
    <g transform="translate(229.536719 17.837812) scale(0.14 -0.14)">
     <defs>
      <path id="DejaVuSans-46" d="M 628 4666 
L 3309 4666 
L 3309 4134 
L 1259 4134 
L 1259 2759 
L 3109 2759 
L 3109 2228 
L 1259 2228 
L 1259 0 
L 628 0 
L 628 4666 
z
" transform="scale(0.015625)"/>
      <path id="DejaVuSans-63" d="M 3122 3366 
L 3122 2828 
Q 2878 2963 2633 3030 
Q 2388 3097 2138 3097 
Q 1578 3097 1268 2742 
Q 959 2388 959 1747 
Q 959 1106 1268 751 
Q 1578 397 2138 397 
Q 2388 397 2633 464 
Q 2878 531 3122 666 
L 3122 134 
Q 2881 22 2623 -34 
Q 2366 -91 2075 -91 
Q 1284 -91 818 406 
Q 353 903 353 1747 
Q 353 2603 823 3093 
Q 1294 3584 2113 3584 
Q 2378 3584 2631 3529 
Q 2884 3475 3122 3366 
z
" transform="scale(0.015625)"/>
      <path id="DejaVuSans-6c" d="M 603 4863 
L 1178 4863 
L 1178 0 
L 603 0 
L 603 4863 
z
" transform="scale(0.015625)"/>
      <path id="DejaVuSans-72" d="M 2631 2963 
Q 2534 3019 2420 3045 
Q 2306 3072 2169 3072 
Q 1681 3072 1420 2755 
Q 1159 2438 1159 1844 
L 1159 0 
L 581 0 
L 581 3500 
L 1159 3500 
L 1159 2956 
Q 1341 3275 1631 3429 
Q 1922 3584 2338 3584 
Q 2397 3584 2469 3576 
Q 2541 3569 2628 3553 
L 2631 2963 
z
" transform="scale(0.015625)"/>
      <path id="DejaVuSans-3a" d="M 750 794 
L 1409 794 
L 1409 0 
L 750 0 
L 750 794 
z
M 750 3309 
L 1409 3309 
L 1409 2516 
L 750 2516 
L 750 3309 
z
" transform="scale(0.015625)"/>
      <path id="DejaVuSans-53" d="M 3425 4513 
L 3425 3897 
Q 3066 4069 2747 4153 
Q 2428 4238 2131 4238 
Q 1616 4238 1336 4038 
Q 1056 3838 1056 3469 
Q 1056 3159 1242 3001 
Q 1428 2844 1947 2747 
L 2328 2669 
Q 3034 2534 3370 2195 
Q 3706 1856 3706 1288 
Q 3706 609 3251 259 
Q 2797 -91 1919 -91 
Q 1588 -91 1214 -16 
Q 841 59 441 206 
L 441 856 
Q 825 641 1194 531 
Q 1563 422 1919 422 
Q 2459 422 2753 634 
Q 3047 847 3047 1241 
Q 3047 1584 2836 1778 
Q 2625 1972 2144 2069 
L 1759 2144 
Q 1053 2284 737 2584 
Q 422 2884 422 3419 
Q 422 4038 858 4394 
Q 1294 4750 2059 4750 
Q 2388 4750 2728 4690 
Q 3069 4631 3425 4513 
z
" transform="scale(0.015625)"/>
      <path id="DejaVuSans-6f" d="M 1959 3097 
Q 1497 3097 1228 2736 
Q 959 2375 959 1747 
Q 959 1119 1226 758 
Q 1494 397 1959 397 
Q 2419 397 2687 759 
Q 2956 1122 2956 1747 
Q 2956 2369 2687 2733 
Q 2419 3097 1959 3097 
z
M 1959 3584 
Q 2709 3584 3137 3096 
Q 3566 2609 3566 1747 
Q 3566 888 3137 398 
Q 2709 -91 1959 -91 
Q 1206 -91 779 398 
Q 353 888 353 1747 
Q 353 2609 779 3096 
Q 1206 3584 1959 3584 
z
" transform="scale(0.015625)"/>
      <path id="DejaVuSans-78" d="M 3513 3500 
L 2247 1797 
L 3578 0 
L 2900 0 
L 1881 1375 
L 863 0 
L 184 0 
L 1544 1831 
L 300 3500 
L 978 3500 
L 1906 2253 
L 2834 3500 
L 3513 3500 
z
" transform="scale(0.015625)"/>
      <path id="DejaVuSans-64" d="M 2906 2969 
L 2906 4863 
L 3481 4863 
L 3481 0 
L 2906 0 
L 2906 525 
Q 2725 213 2448 61 
Q 2172 -91 1784 -91 
Q 1150 -91 751 415 
Q 353 922 353 1747 
Q 353 2572 751 3078 
Q 1150 3584 1784 3584 
Q 2172 3584 2448 3432 
Q 2725 3281 2906 2969 
z
M 947 1747 
Q 947 1113 1208 752 
Q 1469 391 1925 391 
Q 2381 391 2643 752 
Q 2906 1113 2906 1747 
Q 2906 2381 2643 2742 
Q 2381 3103 1925 3103 
Q 1469 3103 1208 2742 
Q 947 2381 947 1747 
z
" transform="scale(0.015625)"/>
      <path id="DejaVuSans-44" d="M 1259 4147 
L 1259 519 
L 2022 519 
Q 2988 519 3436 956 
Q 3884 1394 3884 2338 
Q 3884 3275 3436 3711 
Q 2988 4147 2022 4147 
L 1259 4147 
z
M 628 4666 
L 1925 4666 
Q 3281 4666 3915 4102 
Q 4550 3538 4550 2338 
Q 4550 1131 3912 565 
Q 3275 0 1925 0 
L 628 0 
L 628 4666 
z
" transform="scale(0.015625)"/>
     </defs>
     <use xlink:href="#DejaVuSans-46"/>
     <use xlink:href="#DejaVuSans-61" transform="translate(48.394531 0)"/>
     <use xlink:href="#DejaVuSans-63" transform="translate(109.673828 0)"/>
     <use xlink:href="#DejaVuSans-69" transform="translate(164.654297 0)"/>
     <use xlink:href="#DejaVuSans-61" transform="translate(192.4375 0)"/>
     <use xlink:href="#DejaVuSans-6c" transform="translate(253.716797 0)"/>
     <use xlink:href="#DejaVuSans-20" transform="translate(281.5 0)"/>
     <use xlink:href="#DejaVuSans-74" transform="translate(313.287109 0)"/>
     <use xlink:href="#DejaVuSans-72" transform="translate(352.496094 0)"/>
     <use xlink:href="#DejaVuSans-61" transform="translate(393.609375 0)"/>
     <use xlink:href="#DejaVuSans-63" transform="translate(454.888672 0)"/>
     <use xlink:href="#DejaVuSans-65" transform="translate(509.869141 0)"/>
     <use xlink:href="#DejaVuSans-3a" transform="translate(571.392578 0)"/>
     <use xlink:href="#DejaVuSans-20" transform="translate(605.083984 0)"/>
     <use xlink:href="#DejaVuSans-53" transform="translate(636.871094 0)"/>
     <use xlink:href="#DejaVuSans-6f" transform="translate(700.347656 0)"/>
     <use xlink:href="#DejaVuSans-63" transform="translate(761.529297 0)"/>
     <use xlink:href="#DejaVuSans-69" transform="translate(816.509766 0)"/>
     <use xlink:href="#DejaVuSans-61" transform="translate(844.292969 0)"/>
     <use xlink:href="#DejaVuSans-6c" transform="translate(905.572266 0)"/>
     <use xlink:href="#DejaVuSans-20" transform="translate(933.355469 0)"/>
     <use xlink:href="#DejaVuSans-61" transform="translate(965.142578 0)"/>
     <use xlink:href="#DejaVuSans-6e" transform="translate(1026.421875 0)"/>
     <use xlink:href="#DejaVuSans-78" transform="translate(1089.800781 0)"/>
     <use xlink:href="#DejaVuSans-69" transform="translate(1148.980469 0)"/>
     <use xlink:href="#DejaVuSans-65" transform="translate(1176.763672 0)"/>
     <use xlink:href="#DejaVuSans-74" transform="translate(1238.287109 0)"/>
     <use xlink:href="#DejaVuSans-79" transform="translate(1277.496094 0)"/>
     <use xlink:href="#DejaVuSans-20" transform="translate(1336.675781 0)"/>
     <use xlink:href="#DejaVuSans-64" transform="translate(1368.462891 0)"/>
     <use xlink:href="#DejaVuSans-69" transform="translate(1431.939453 0)"/>
     <use xlink:href="#DejaVuSans-73" transform="translate(1459.722656 0)"/>
     <use xlink:href="#DejaVuSans-6f" transform="translate(1511.822266 0)"/>
     <use xlink:href="#DejaVuSans-72" transform="translate(1573.003906 0)"/>
     <use xlink:href="#DejaVuSans-64" transform="translate(1612.367188 0)"/>
     <use xlink:href="#DejaVuSans-65" transform="translate(1675.84375 0)"/>
     <use xlink:href="#DejaVuSans-72" transform="translate(1737.367188 0)"/>
     <use xlink:href="#DejaVuSans-20" transform="translate(1778.480469 0)"/>
     <use xlink:href="#DejaVuSans-28" transform="translate(1810.267578 0)"/>
     <use xlink:href="#DejaVuSans-53" transform="translate(1849.28125 0)"/>
     <use xlink:href="#DejaVuSans-41" transform="translate(1914.632812 0)"/>
     <use xlink:href="#DejaVuSans-44" transform="translate(1983.041016 0)"/>
     <use xlink:href="#DejaVuSans-29" transform="translate(2060.042969 0)"/>
    </g>
   </g>
   <g id="legend_1">
    <g id="patch_7">
     <path d="M 465.431562 42.096094 
L 487.431562 42.096094 
L 487.431562 34.396094 
L 465.431562 34.396094 
z
" style="fill: #d3d3d3; fill-opacity: 0.5; stroke: #d3d3d3; stroke-opacity: 0.5; stroke-linejoin: miter"/>
    </g>
    <g id="text_19">
     <!-- Social anxiety disorder (SAD) ±2 SD -->
     <g transform="translate(496.231562 42.096094) scale(0.11 -0.11)">
      <defs>
       <path id="DejaVuSans-b1" d="M 2944 4013 
L 2944 2803 
L 4684 2803 
L 4684 2272 
L 2944 2272 
L 2944 1063 
L 2419 1063 
L 2419 2272 
L 678 2272 
L 678 2803 
L 2419 2803 
L 2419 4013 
L 2944 4013 
z
M 678 531 
L 4684 531 
L 4684 0 
L 678 0 
L 678 531 
z
" transform="scale(0.015625)"/>
      </defs>
      <use xlink:href="#DejaVuSans-53"/>
      <use xlink:href="#DejaVuSans-6f" transform="translate(63.476562 0)"/>
      <use xlink:href="#DejaVuSans-63" transform="translate(124.658203 0)"/>
      <use xlink:href="#DejaVuSans-69" transform="translate(179.638672 0)"/>
      <use xlink:href="#DejaVuSans-61" transform="translate(207.421875 0)"/>
      <use xlink:href="#DejaVuSans-6c" transform="translate(268.701172 0)"/>
      <use xlink:href="#DejaVuSans-20" transform="translate(296.484375 0)"/>
      <use xlink:href="#DejaVuSans-61" transform="translate(328.271484 0)"/>
      <use xlink:href="#DejaVuSans-6e" transform="translate(389.550781 0)"/>
      <use xlink:href="#DejaVuSans-78" transform="translate(452.929688 0)"/>
      <use xlink:href="#DejaVuSans-69" transform="translate(512.109375 0)"/>
      <use xlink:href="#DejaVuSans-65" transform="translate(539.892578 0)"/>
      <use xlink:href="#DejaVuSans-74" transform="translate(601.416016 0)"/>
      <use xlink:href="#DejaVuSans-79" transform="translate(640.625 0)"/>
      <use xlink:href="#DejaVuSans-20" transform="translate(699.804688 0)"/>
      <use xlink:href="#DejaVuSans-64" transform="translate(731.591797 0)"/>
      <use xlink:href="#DejaVuSans-69" transform="translate(795.068359 0)"/>
      <use xlink:href="#DejaVuSans-73" transform="translate(822.851562 0)"/>
      <use xlink:href="#DejaVuSans-6f" transform="translate(874.951172 0)"/>
      <use xlink:href="#DejaVuSans-72" transform="translate(936.132812 0)"/>
      <use xlink:href="#DejaVuSans-64" transform="translate(975.496094 0)"/>
      <use xlink:href="#DejaVuSans-65" transform="translate(1038.972656 0)"/>
      <use xlink:href="#DejaVuSans-72" transform="translate(1100.496094 0)"/>
      <use xlink:href="#DejaVuSans-20" transform="translate(1141.609375 0)"/>
      <use xlink:href="#DejaVuSans-28" transform="translate(1173.396484 0)"/>
      <use xlink:href="#DejaVuSans-53" transform="translate(1212.410156 0)"/>
      <use xlink:href="#DejaVuSans-41" transform="translate(1277.761719 0)"/>
      <use xlink:href="#DejaVuSans-44" transform="translate(1346.169922 0)"/>
      <use xlink:href="#DejaVuSans-29" transform="translate(1423.171875 0)"/>
      <use xlink:href="#DejaVuSans-20" transform="translate(1462.185547 0)"/>
      <use xlink:href="#DejaVuSans-b1" transform="translate(1493.972656 0)"/>
      <use xlink:href="#DejaVuSans-32" transform="translate(1577.761719 0)"/>
      <use xlink:href="#DejaVuSans-20" transform="translate(1641.384766 0)"/>
      <use xlink:href="#DejaVuSans-53" transform="translate(1673.171875 0)"/>
      <use xlink:href="#DejaVuSans-44" transform="translate(1736.648438 0)"/>
     </g>
    </g>
    <g id="patch_8">
     <path d="M 465.431562 58.242031 
L 487.431562 58.242031 
L 487.431562 50.542031 
L 465.431562 50.542031 
z
" style="fill: #808080; fill-opacity: 0.7; stroke: #808080; stroke-opacity: 0.7; stroke-linejoin: miter"/>
    </g>
    <g id="text_20">
     <!-- Social anxiety disorder (SAD) ±1 SD -->
     <g transform="translate(496.231562 58.242031) scale(0.11 -0.11)">
      <use xlink:href="#DejaVuSans-53"/>
      <use xlink:href="#DejaVuSans-6f" transform="translate(63.476562 0)"/>
      <use xlink:href="#DejaVuSans-63" transform="translate(124.658203 0)"/>
      <use xlink:href="#DejaVuSans-69" transform="translate(179.638672 0)"/>
      <use xlink:href="#DejaVuSans-61" transform="translate(207.421875 0)"/>
      <use xlink:href="#DejaVuSans-6c" transform="translate(268.701172 0)"/>
      <use xlink:href="#DejaVuSans-20" transform="translate(296.484375 0)"/>
      <use xlink:href="#DejaVuSans-61" transform="translate(328.271484 0)"/>
      <use xlink:href="#DejaVuSans-6e" transform="translate(389.550781 0)"/>
      <use xlink:href="#DejaVuSans-78" transform="translate(452.929688 0)"/>
      <use xlink:href="#DejaVuSans-69" transform="translate(512.109375 0)"/>
      <use xlink:href="#DejaVuSans-65" transform="translate(539.892578 0)"/>
      <use xlink:href="#DejaVuSans-74" transform="translate(601.416016 0)"/>
      <use xlink:href="#DejaVuSans-79" transform="translate(640.625 0)"/>
      <use xlink:href="#DejaVuSans-20" transform="translate(699.804688 0)"/>
      <use xlink:href="#DejaVuSans-64" transform="translate(731.591797 0)"/>
      <use xlink:href="#DejaVuSans-69" transform="translate(795.068359 0)"/>
      <use xlink:href="#DejaVuSans-73" transform="translate(822.851562 0)"/>
      <use xlink:href="#DejaVuSans-6f" transform="translate(874.951172 0)"/>
      <use xlink:href="#DejaVuSans-72" transform="translate(936.132812 0)"/>
      <use xlink:href="#DejaVuSans-64" transform="translate(975.496094 0)"/>
      <use xlink:href="#DejaVuSans-65" transform="translate(1038.972656 0)"/>
      <use xlink:href="#DejaVuSans-72" transform="translate(1100.496094 0)"/>
      <use xlink:href="#DejaVuSans-20" transform="translate(1141.609375 0)"/>
      <use xlink:href="#DejaVuSans-28" transform="translate(1173.396484 0)"/>
      <use xlink:href="#DejaVuSans-53" transform="translate(1212.410156 0)"/>
      <use xlink:href="#DejaVuSans-41" transform="translate(1277.761719 0)"/>
      <use xlink:href="#DejaVuSans-44" transform="translate(1346.169922 0)"/>
      <use xlink:href="#DejaVuSans-29" transform="translate(1423.171875 0)"/>
      <use xlink:href="#DejaVuSans-20" transform="translate(1462.185547 0)"/>
      <use xlink:href="#DejaVuSans-b1" transform="translate(1493.972656 0)"/>
      <use xlink:href="#DejaVuSans-31" transform="translate(1577.761719 0)"/>
      <use xlink:href="#DejaVuSans-20" transform="translate(1641.384766 0)"/>
      <use xlink:href="#DejaVuSans-53" transform="translate(1673.171875 0)"/>
      <use xlink:href="#DejaVuSans-44" transform="translate(1736.648438 0)"/>
     </g>
    </g>
    <g id="line2d_34">
     <path d="M 465.431562 70.537969 
L 476.431562 70.537969 
L 487.431562 70.537969 
" style="fill: none; stroke: #ff8c00; stroke-width: 2.3; stroke-linecap: square"/>
    </g>
    <g id="text_21">
     <!-- Patient -->
     <g transform="translate(496.231562 74.387969) scale(0.11 -0.11)">
      <defs>
       <path id="DejaVuSans-50" d="M 1259 4147 
L 1259 2394 
L 2053 2394 
Q 2494 2394 2734 2622 
Q 2975 2850 2975 3272 
Q 2975 3691 2734 3919 
Q 2494 4147 2053 4147 
L 1259 4147 
z
M 628 4666 
L 2053 4666 
Q 2838 4666 3239 4311 
Q 3641 3956 3641 3272 
Q 3641 2581 3239 2228 
Q 2838 1875 2053 1875 
L 1259 1875 
L 1259 0 
L 628 0 
L 628 4666 
z
" transform="scale(0.015625)"/>
      </defs>
      <use xlink:href="#DejaVuSans-50"/>
      <use xlink:href="#DejaVuSans-61" transform="translate(55.802734 0)"/>
      <use xlink:href="#DejaVuSans-74" transform="translate(117.082031 0)"/>
      <use xlink:href="#DejaVuSans-69" transform="translate(156.291016 0)"/>
      <use xlink:href="#DejaVuSans-65" transform="translate(184.074219 0)"/>
      <use xlink:href="#DejaVuSans-6e" transform="translate(245.597656 0)"/>
      <use xlink:href="#DejaVuSans-74" transform="translate(308.976562 0)"/>
     </g>
    </g>
   </g>
  </g>
 </g>
 <defs>
  <clipPath id="pd25b5b946a">
   <rect x="47.307188" y="23.837812" width="658.33" height="360.28"/>
  </clipPath>
 </defs>
</svg>
