<?xml version="1.0" encoding="utf-8" standalone="no"?>
<!DOCTYPE svg PUBLIC "-//W3C//DTD SVG 1.1//EN"
  "http://www.w3.org/Graphics/SVG/1.1/DTD/svg11.dtd">
<svg xmlns:xlink="http://www.w3.org/1999/xlink" width="676.88125pt" height="391.52407pt" viewBox="0 0 676.88125 391.52407" xmlns="http://www.w3.org/2000/svg" version="1.1">
 <metadata>
  <rdf:RDF xmlns:dc="http://purl.org/dc/elements/1.1/" xmlns:cc="http://creativecommons.org/ns#" xmlns:rdf="http://www.w3.org/1999/02/22-rdf-syntax-ns#">
   <cc:Work>
    <dc:type rdf:resource="http://purl.org/dc/dcmitype/StillImage"/>
    <dc:date>2026-06-23T21:50:11.562033</dc:date>
    <dc:format>image/svg+xml</dc:format>
    <dc:creator>
     <cc:Agent>
      <dc:title>Matplotlib v3.10.1, https://matplotlib.org/</dc:title>
     </cc:Agent>
    </dc:creator>
   </cc:Work>
  </rdf:RDF>
 </metadata>
 <defs>
  <style type="text/css">*{stroke-linejoin: round; stroke-linecap: butt}</style>
 </defs>
 <g id="figure_1">
  <g id="patch_1">
   <path d="M 0 391.52407 
L 676.88125 391.52407 
L 676.88125 0 
L 0 0 
z
" style="fill: #ffffff"/>
  </g>
  <g id="axes_1">
   <g id="patch_2">
    <path d="M 43.81125 338.606376 
L 218.52125 338.606376 
L 218.52125 34.56 
L 43.81125 34.56 
z
" style="fill: #ffffff"/>
   </g>
   <g id="matplotlib.axis_1">
    <g id="xtick_1">
     <g id="line2d_1">
      <path d="M 131.16625 338.606376 
L 131.16625 34.56 
" clip-path="url(#pab4c8feb0d)" style="fill: none; stroke: #b0b0b0; stroke-opacity: 0.2; stroke-width: 0.6; stroke-linecap: square"/>
     </g>
     <g id="line2d_2">
      <defs>
       <path id="m7a2dffbef6" d="M 0 0 
L 0 3.5 
" style="stroke: #000000; stroke-width: 0.8"/>
      </defs>
      <g>
       <use xlink:href="#m7a2dffbef6" x="131.16625" y="338.606376" style="stroke: #000000; stroke-width: 0.8"/>
      </g>
     </g>
     <g id="text_1">
      <!-- Pitch variability -->
      <g transform="translate(48.650671 375.631189) rotate(-15) scale(0.11 -0.11)">
       <defs>
        <path id="DejaVuSans-50" d="M 1259 4147 
L 1259 2394 
L 2053 2394 
Q 2494 2394 2734 2622 
Q 2975 2850 2975 3272 
Q 2975 3691 2734 3919 
Q 2494 4147 2053 4147 
L 1259 4147 
z
M 628 4666 
L 2053 4666 
Q 2838 4666 3239 4311 
Q 3641 3956 3641 3272 
Q 3641 2581 3239 2228 
Q 2838 1875 2053 1875 
L 1259 1875 
L 1259 0 
L 628 0 
L 628 4666 
z
" transform="scale(0.015625)"/>
        <path id="DejaVuSans-69" d="M 603 3500 
L 1178 3500 
L 1178 0 
L 603 0 
L 603 3500 
z
M 603 4863 
L 1178 4863 
L 1178 4134 
L 603 4134 
L 603 4863 
z
" transform="scale(0.015625)"/>
        <path id="DejaVuSans-74" d="M 1172 4494 
L 1172 3500 
L 2356 3500 
L 2356 3053 
L 1172 3053 
L 1172 1153 
Q 1172 725 1289 603 
Q 1406 481 1766 481 
L 2356 481 
L 2356 0 
L 1766 0 
Q 1100 0 847 248 
Q 594 497 594 1153 
L 594 3053 
L 172 3053 
L 172 3500 
L 594 3500 
L 594 4494 
L 1172 4494 
z
" transform="scale(0.015625)"/>
        <path id="DejaVuSans-63" d="M 3122 3366 
L 3122 2828 
Q 2878 2963 2633 3030 
Q 2388 3097 2138 3097 
Q 1578 3097 1268 2742 
Q 959 2388 959 1747 
Q 959 1106 1268 751 
Q 1578 397 2138 397 
Q 2388 397 2633 464 
Q 2878 531 3122 666 
L 3122 134 
Q 2881 22 2623 -34 
Q 2366 -91 2075 -91 
Q 1284 -91 818 406 
Q 353 903 353 1747 
Q 353 2603 823 3093 
Q 1294 3584 2113 3584 
Q 2378 3584 2631 3529 
Q 2884 3475 3122 3366 
z
" transform="scale(0.015625)"/>
        <path id="DejaVuSans-68" d="M 3513 2113 
L 3513 0 
L 2938 0 
L 2938 2094 
Q 2938 2591 2744 2837 
Q 2550 3084 2163 3084 
Q 1697 3084 1428 2787 
Q 1159 2491 1159 1978 
L 1159 0 
L 581 0 
L 581 4863 
L 1159 4863 
L 1159 2956 
Q 1366 3272 1645 3428 
Q 1925 3584 2291 3584 
Q 2894 3584 3203 3211 
Q 3513 2838 3513 2113 
z
" transform="scale(0.015625)"/>
        <path id="DejaVuSans-20" transform="scale(0.015625)"/>
        <path id="DejaVuSans-76" d="M 191 3500 
L 800 3500 
L 1894 563 
L 2988 3500 
L 3597 3500 
L 2284 0 
L 1503 0 
L 191 3500 
z
" transform="scale(0.015625)"/>
        <path id="DejaVuSans-61" d="M 2194 1759 
Q 1497 1759 1228 1600 
Q 959 1441 959 1056 
Q 959 750 1161 570 
Q 1363 391 1709 391 
Q 2188 391 2477 730 
Q 2766 1069 2766 1631 
L 2766 1759 
L 2194 1759 
z
M 3341 1997 
L 3341 0 
L 2766 0 
L 2766 531 
Q 2569 213 2275 61 
Q 1981 -91 1556 -91 
Q 1019 -91 701 211 
Q 384 513 384 1019 
Q 384 1609 779 1909 
Q 1175 2209 1959 2209 
L 2766 2209 
L 2766 2266 
Q 2766 2663 2505 2880 
Q 2244 3097 1772 3097 
Q 1472 3097 1187 3025 
Q 903 2953 641 2809 
L 641 3341 
Q 956 3463 1253 3523 
Q 1550 3584 1831 3584 
Q 2591 3584 2966 3190 
Q 3341 2797 3341 1997 
z
" transform="scale(0.015625)"/>
        <path id="DejaVuSans-72" d="M 2631 2963 
Q 2534 3019 2420 3045 
Q 2306 3072 2169 3072 
Q 1681 3072 1420 2755 
Q 1159 2438 1159 1844 
L 1159 0 
L 581 0 
L 581 3500 
L 1159 3500 
L 1159 2956 
Q 1341 3275 1631 3429 
Q 1922 3584 2338 3584 
Q 2397 3584 2469 3576 
Q 2541 3569 2628 3553 
L 2631 2963 
z
" transform="scale(0.015625)"/>
        <path id="DejaVuSans-62" d="M 3116 1747 
Q 3116 2381 2855 2742 
Q 2594 3103 2138 3103 
Q 1681 3103 1420 2742 
Q 1159 2381 1159 1747 
Q 1159 1113 1420 752 
Q 1681 391 2138 391 
Q 2594 391 2855 752 
Q 3116 1113 3116 1747 
z
M 1159 2969 
Q 1341 3281 1617 3432 
Q 1894 3584 2278 3584 
Q 2916 3584 3314 3078 
Q 3713 2572 3713 1747 
Q 3713 922 3314 415 
Q 2916 -91 2278 -91 
Q 1894 -91 1617 61 
Q 1341 213 1159 525 
L 1159 0 
L 581 0 
L 581 4863 
L 1159 4863 
L 1159 2969 
z
" transform="scale(0.015625)"/>
        <path id="DejaVuSans-6c" d="M 603 4863 
L 1178 4863 
L 1178 0 
L 603 0 
L 603 4863 
z
" transform="scale(0.015625)"/>
        <path id="DejaVuSans-79" d="M 2059 -325 
Q 1816 -950 1584 -1140 
Q 1353 -1331 966 -1331 
L 506 -1331 
L 506 -850 
L 844 -850 
Q 1081 -850 1212 -737 
Q 1344 -625 1503 -206 
L 1606 56 
L 191 3500 
L 800 3500 
L 1894 763 
L 2988 3500 
L 3597 3500 
L 2059 -325 
z
" transform="scale(0.015625)"/>
       </defs>
       <use xlink:href="#DejaVuSans-50"/>
       <use xlink:href="#DejaVuSans-69" transform="translate(58.052734 0)"/>
       <use xlink:href="#DejaVuSans-74" transform="translate(85.835938 0)"/>
       <use xlink:href="#DejaVuSans-63" transform="translate(125.044922 0)"/>
       <use xlink:href="#DejaVuSans-68" transform="translate(180.025391 0)"/>
       <use xlink:href="#DejaVuSans-20" transform="translate(243.404297 0)"/>
       <use xlink:href="#DejaVuSans-76" transform="translate(275.191406 0)"/>
       <use xlink:href="#DejaVuSans-61" transform="translate(334.371094 0)"/>
       <use xlink:href="#DejaVuSans-72" transform="translate(395.650391 0)"/>
       <use xlink:href="#DejaVuSans-69" transform="translate(436.763672 0)"/>
       <use xlink:href="#DejaVuSans-61" transform="translate(464.546875 0)"/>
       <use xlink:href="#DejaVuSans-62" transform="translate(525.826172 0)"/>
       <use xlink:href="#DejaVuSans-69" transform="translate(589.302734 0)"/>
       <use xlink:href="#DejaVuSans-6c" transform="translate(617.085938 0)"/>
       <use xlink:href="#DejaVuSans-69" transform="translate(644.869141 0)"/>
       <use xlink:href="#DejaVuSans-74" transform="translate(672.652344 0)"/>
       <use xlink:href="#DejaVuSans-79" transform="translate(711.861328 0)"/>
      </g>
     </g>
    </g>
   </g>
   <g id="matplotlib.axis_2">
    <g id="ytick_1">
     <g id="line2d_3">
      <path d="M 43.81125 296.395647 
L 218.52125 296.395647 
" clip-path="url(#pab4c8feb0d)" style="fill: none; stroke: #b0b0b0; stroke-opacity: 0.2; stroke-width: 0.6; stroke-linecap: square"/>
     </g>
     <g id="line2d_4">
      <defs>
       <path id="m17d63c75a8" d="M 0 0 
L -3.5 0 
" style="stroke: #000000; stroke-width: 0.8"/>
      </defs>
      <g>
       <use xlink:href="#m17d63c75a8" x="43.81125" y="296.395647" style="stroke: #000000; stroke-width: 0.8"/>
      </g>
     </g>
     <g id="text_2">
      <!-- 4 -->
      <g transform="translate(29.8125 300.574787) scale(0.11 -0.11)">
       <defs>
        <path id="DejaVuSans-34" d="M 2419 4116 
L 825 1625 
L 2419 1625 
L 2419 4116 
z
M 2253 4666 
L 3047 4666 
L 3047 1625 
L 3713 1625 
L 3713 1100 
L 3047 1100 
L 3047 0 
L 2419 0 
L 2419 1100 
L 313 1100 
L 313 1709 
L 2253 4666 
z
" transform="scale(0.015625)"/>
       </defs>
       <use xlink:href="#DejaVuSans-34"/>
      </g>
     </g>
    </g>
    <g id="ytick_2">
     <g id="line2d_5">
      <path d="M 43.81125 243.430852 
L 218.52125 243.430852 
" clip-path="url(#pab4c8feb0d)" style="fill: none; stroke: #b0b0b0; stroke-opacity: 0.2; stroke-width: 0.6; stroke-linecap: square"/>
     </g>
     <g id="line2d_6">
      <g>
       <use xlink:href="#m17d63c75a8" x="43.81125" y="243.430852" style="stroke: #000000; stroke-width: 0.8"/>
      </g>
     </g>
     <g id="text_3">
      <!-- 6 -->
      <g transform="translate(29.8125 247.609993) scale(0.11 -0.11)">
       <defs>
        <path id="DejaVuSans-36" d="M 2113 2584 
Q 1688 2584 1439 2293 
Q 1191 2003 1191 1497 
Q 1191 994 1439 701 
Q 1688 409 2113 409 
Q 2538 409 2786 701 
Q 3034 994 3034 1497 
Q 3034 2003 2786 2293 
Q 2538 2584 2113 2584 
z
M 3366 4563 
L 3366 3988 
Q 3128 4100 2886 4159 
Q 2644 4219 2406 4219 
Q 1781 4219 1451 3797 
Q 1122 3375 1075 2522 
Q 1259 2794 1537 2939 
Q 1816 3084 2150 3084 
Q 2853 3084 3261 2657 
Q 3669 2231 3669 1497 
Q 3669 778 3244 343 
Q 2819 -91 2113 -91 
Q 1303 -91 875 529 
Q 447 1150 447 2328 
Q 447 3434 972 4092 
Q 1497 4750 2381 4750 
Q 2619 4750 2861 4703 
Q 3103 4656 3366 4563 
z
" transform="scale(0.015625)"/>
       </defs>
       <use xlink:href="#DejaVuSans-36"/>
      </g>
     </g>
    </g>
    <g id="ytick_3">
     <g id="line2d_7">
      <path d="M 43.81125 190.466057 
L 218.52125 190.466057 
" clip-path="url(#pab4c8feb0d)" style="fill: none; stroke: #b0b0b0; stroke-opacity: 0.2; stroke-width: 0.6; stroke-linecap: square"/>
     </g>
     <g id="line2d_8">
      <g>
       <use xlink:href="#m17d63c75a8" x="43.81125" y="190.466057" style="stroke: #000000; stroke-width: 0.8"/>
      </g>
     </g>
     <g id="text_4">
      <!-- 8 -->
      <g transform="translate(29.8125 194.645198) scale(0.11 -0.11)">
       <defs>
        <path id="DejaVuSans-38" d="M 2034 2216 
Q 1584 2216 1326 1975 
Q 1069 1734 1069 1313 
Q 1069 891 1326 650 
Q 1584 409 2034 409 
Q 2484 409 2743 651 
Q 3003 894 3003 1313 
Q 3003 1734 2745 1975 
Q 2488 2216 2034 2216 
z
M 1403 2484 
Q 997 2584 770 2862 
Q 544 3141 544 3541 
Q 544 4100 942 4425 
Q 1341 4750 2034 4750 
Q 2731 4750 3128 4425 
Q 3525 4100 3525 3541 
Q 3525 3141 3298 2862 
Q 3072 2584 2669 2484 
Q 3125 2378 3379 2068 
Q 3634 1759 3634 1313 
Q 3634 634 3220 271 
Q 2806 -91 2034 -91 
Q 1263 -91 848 271 
Q 434 634 434 1313 
Q 434 1759 690 2068 
Q 947 2378 1403 2484 
z
M 1172 3481 
Q 1172 3119 1398 2916 
Q 1625 2713 2034 2713 
Q 2441 2713 2670 2916 
Q 2900 3119 2900 3481 
Q 2900 3844 2670 4047 
Q 2441 4250 2034 4250 
Q 1625 4250 1398 4047 
Q 1172 3844 1172 3481 
z
" transform="scale(0.015625)"/>
       </defs>
       <use xlink:href="#DejaVuSans-38"/>
      </g>
     </g>
    </g>
    <g id="ytick_4">
     <g id="line2d_9">
      <path d="M 43.81125 137.501263 
L 218.52125 137.501263 
" clip-path="url(#pab4c8feb0d)" style="fill: none; stroke: #b0b0b0; stroke-opacity: 0.2; stroke-width: 0.6; stroke-linecap: square"/>
     </g>
     <g id="line2d_10">
      <g>
       <use xlink:href="#m17d63c75a8" x="43.81125" y="137.501263" style="stroke: #000000; stroke-width: 0.8"/>
      </g>
     </g>
     <g id="text_5">
      <!-- 10 -->
      <g transform="translate(22.81375 141.680404) scale(0.11 -0.11)">
       <defs>
        <path id="DejaVuSans-31" d="M 794 531 
L 1825 531 
L 1825 4091 
L 703 3866 
L 703 4441 
L 1819 4666 
L 2450 4666 
L 2450 531 
L 3481 531 
L 3481 0 
L 794 0 
L 794 531 
z
" transform="scale(0.015625)"/>
        <path id="DejaVuSans-30" d="M 2034 4250 
Q 1547 4250 1301 3770 
Q 1056 3291 1056 2328 
Q 1056 1369 1301 889 
Q 1547 409 2034 409 
Q 2525 409 2770 889 
Q 3016 1369 3016 2328 
Q 3016 3291 2770 3770 
Q 2525 4250 2034 4250 
z
M 2034 4750 
Q 2819 4750 3233 4129 
Q 3647 3509 3647 2328 
Q 3647 1150 3233 529 
Q 2819 -91 2034 -91 
Q 1250 -91 836 529 
Q 422 1150 422 2328 
Q 422 3509 836 4129 
Q 1250 4750 2034 4750 
z
" transform="scale(0.015625)"/>
       </defs>
       <use xlink:href="#DejaVuSans-31"/>
       <use xlink:href="#DejaVuSans-30" transform="translate(63.623047 0)"/>
      </g>
     </g>
    </g>
    <g id="ytick_5">
     <g id="line2d_11">
      <path d="M 43.81125 84.536468 
L 218.52125 84.536468 
" clip-path="url(#pab4c8feb0d)" style="fill: none; stroke: #b0b0b0; stroke-opacity: 0.2; stroke-width: 0.6; stroke-linecap: square"/>
     </g>
     <g id="line2d_12">
      <g>
       <use xlink:href="#m17d63c75a8" x="43.81125" y="84.536468" style="stroke: #000000; stroke-width: 0.8"/>
      </g>
     </g>
     <g id="text_6">
      <!-- 12 -->
      <g transform="translate(22.81375 88.715609) scale(0.11 -0.11)">
       <defs>
        <path id="DejaVuSans-32" d="M 1228 531 
L 3431 531 
L 3431 0 
L 469 0 
L 469 531 
Q 828 903 1448 1529 
Q 2069 2156 2228 2338 
Q 2531 2678 2651 2914 
Q 2772 3150 2772 3378 
Q 2772 3750 2511 3984 
Q 2250 4219 1831 4219 
Q 1534 4219 1204 4116 
Q 875 4013 500 3803 
L 500 4441 
Q 881 4594 1212 4672 
Q 1544 4750 1819 4750 
Q 2544 4750 2975 4387 
Q 3406 4025 3406 3419 
Q 3406 3131 3298 2873 
Q 3191 2616 2906 2266 
Q 2828 2175 2409 1742 
Q 1991 1309 1228 531 
z
" transform="scale(0.015625)"/>
       </defs>
       <use xlink:href="#DejaVuSans-31"/>
       <use xlink:href="#DejaVuSans-32" transform="translate(63.623047 0)"/>
      </g>
     </g>
    </g>
    <g id="text_7">
     <!-- semitones -->
     <g transform="translate(16.318125 217.555376) rotate(-90) scale(0.12 -0.12)">
      <defs>
       <path id="DejaVuSans-73" d="M 2834 3397 
L 2834 2853 
Q 2591 2978 2328 3040 
Q 2066 3103 1784 3103 
Q 1356 3103 1142 2972 
Q 928 2841 928 2578 
Q 928 2378 1081 2264 
Q 1234 2150 1697 2047 
L 1894 2003 
Q 2506 1872 2764 1633 
Q 3022 1394 3022 966 
Q 3022 478 2636 193 
Q 2250 -91 1575 -91 
Q 1294 -91 989 -36 
Q 684 19 347 128 
L 347 722 
Q 666 556 975 473 
Q 1284 391 1588 391 
Q 1994 391 2212 530 
Q 2431 669 2431 922 
Q 2431 1156 2273 1281 
Q 2116 1406 1581 1522 
L 1381 1569 
Q 847 1681 609 1914 
Q 372 2147 372 2553 
Q 372 3047 722 3315 
Q 1072 3584 1716 3584 
Q 2034 3584 2315 3537 
Q 2597 3491 2834 3397 
z
" transform="scale(0.015625)"/>
       <path id="DejaVuSans-65" d="M 3597 1894 
L 3597 1613 
L 953 1613 
Q 991 1019 1311 708 
Q 1631 397 2203 397 
Q 2534 397 2845 478 
Q 3156 559 3463 722 
L 3463 178 
Q 3153 47 2828 -22 
Q 2503 -91 2169 -91 
Q 1331 -91 842 396 
Q 353 884 353 1716 
Q 353 2575 817 3079 
Q 1281 3584 2069 3584 
Q 2775 3584 3186 3129 
Q 3597 2675 3597 1894 
z
M 3022 2063 
Q 3016 2534 2758 2815 
Q 2500 3097 2075 3097 
Q 1594 3097 1305 2825 
Q 1016 2553 972 2059 
L 3022 2063 
z
" transform="scale(0.015625)"/>
       <path id="DejaVuSans-6d" d="M 3328 2828 
Q 3544 3216 3844 3400 
Q 4144 3584 4550 3584 
Q 5097 3584 5394 3201 
Q 5691 2819 5691 2113 
L 5691 0 
L 5113 0 
L 5113 2094 
Q 5113 2597 4934 2840 
Q 4756 3084 4391 3084 
Q 3944 3084 3684 2787 
Q 3425 2491 3425 1978 
L 3425 0 
L 2847 0 
L 2847 2094 
Q 2847 2600 2669 2842 
Q 2491 3084 2119 3084 
Q 1678 3084 1418 2786 
Q 1159 2488 1159 1978 
L 1159 0 
L 581 0 
L 581 3500 
L 1159 3500 
L 1159 2956 
Q 1356 3278 1631 3431 
Q 1906 3584 2284 3584 
Q 2666 3584 2933 3390 
Q 3200 3197 3328 2828 
z
" transform="scale(0.015625)"/>
       <path id="DejaVuSans-6f" d="M 1959 3097 
Q 1497 3097 1228 2736 
Q 959 2375 959 1747 
Q 959 1119 1226 758 
Q 1494 397 1959 397 
Q 2419 397 2687 759 
Q 2956 1122 2956 1747 
Q 2956 2369 2687 2733 
Q 2419 3097 1959 3097 
z
M 1959 3584 
Q 2709 3584 3137 3096 
Q 3566 2609 3566 1747 
Q 3566 888 3137 398 
Q 2709 -91 1959 -91 
Q 1206 -91 779 398 
Q 353 888 353 1747 
Q 353 2609 779 3096 
Q 1206 3584 1959 3584 
z
" transform="scale(0.015625)"/>
       <path id="DejaVuSans-6e" d="M 3513 2113 
L 3513 0 
L 2938 0 
L 2938 2094 
Q 2938 2591 2744 2837 
Q 2550 3084 2163 3084 
Q 1697 3084 1428 2787 
Q 1159 2491 1159 1978 
L 1159 0 
L 581 0 
L 581 3500 
L 1159 3500 
L 1159 2956 
Q 1366 3272 1645 3428 
Q 1925 3584 2291 3584 
Q 2894 3584 3203 3211 
Q 3513 2838 3513 2113 
z
" transform="scale(0.015625)"/>
      </defs>
      <use xlink:href="#DejaVuSans-73"/>
      <use xlink:href="#DejaVuSans-65" transform="translate(52.099609 0)"/>
      <use xlink:href="#DejaVuSans-6d" transform="translate(113.623047 0)"/>
      <use xlink:href="#DejaVuSans-69" transform="translate(211.035156 0)"/>
      <use xlink:href="#DejaVuSans-74" transform="translate(238.818359 0)"/>
      <use xlink:href="#DejaVuSans-6f" transform="translate(278.027344 0)"/>
      <use xlink:href="#DejaVuSans-6e" transform="translate(339.208984 0)"/>
      <use xlink:href="#DejaVuSans-65" transform="translate(402.587891 0)"/>
      <use xlink:href="#DejaVuSans-73" transform="translate(464.111328 0)"/>
     </g>
    </g>
   </g>
   <g id="FillBetweenPolyCollection_1">
    <defs>
     <path id="m514a031093" d="M 191.704837 -66.737983 
L 70.627663 -66.737983 
L 68.626312 -69.529961 
L 66.701958 -72.321939 
L 64.864042 -75.113916 
L 63.121474 -77.905894 
L 61.482537 -80.697872 
L 59.954796 -83.48985 
L 58.545024 -86.281827 
L 57.259123 -89.073805 
L 56.102075 -91.865783 
L 55.077889 -94.657761 
L 54.189572 -97.449738 
L 53.439105 -100.241716 
L 52.827441 -103.033694 
L 52.35451 -105.825672 
L 52.019242 -108.617649 
L 51.819597 -111.409627 
L 51.752614 -114.201605 
L 51.814467 -116.993583 
L 52.000533 -119.78556 
L 52.305465 -122.577538 
L 52.723276 -125.369516 
L 53.247427 -128.161493 
L 53.870921 -130.953471 
L 54.586392 -133.745449 
L 55.386209 -136.537427 
L 56.26256 -139.329404 
L 57.207553 -142.121382 
L 58.213299 -144.91336 
L 59.271996 -147.705338 
L 60.376009 -150.497315 
L 61.517936 -153.289293 
L 62.690673 -156.081271 
L 63.887469 -158.873249 
L 65.101967 -161.665226 
L 66.328248 -164.457204 
L 67.560852 -167.249182 
L 68.794802 -170.04116 
L 70.025612 -172.833137 
L 71.249291 -175.625115 
L 72.462342 -178.417093 
L 73.661744 -181.209071 
L 74.844945 -184.001048 
L 76.009831 -186.793026 
L 77.154707 -189.585004 
L 78.278262 -192.376982 
L 79.379541 -195.168959 
L 80.45791 -197.960937 
L 81.513016 -200.752915 
L 82.54476 -203.544893 
L 83.553254 -206.33687 
L 84.538788 -209.128848 
L 85.501798 -211.920826 
L 86.442834 -214.712804 
L 87.362529 -217.504781 
L 88.261571 -220.296759 
L 89.140681 -223.088737 
L 90.000588 -225.880714 
L 90.842011 -228.672692 
L 91.665643 -231.46467 
L 92.472138 -234.256648 
L 93.2621 -237.048625 
L 94.036077 -239.840603 
L 94.794554 -242.632581 
L 95.537953 -245.424559 
L 96.266634 -248.216536 
L 96.980897 -251.008514 
L 97.680986 -253.800492 
L 98.3671 -256.59247 
L 99.039395 -259.384447 
L 99.698001 -262.176425 
L 100.343028 -264.968403 
L 100.974579 -267.760381 
L 101.592764 -270.552358 
L 102.197709 -273.344336 
L 102.789571 -276.136314 
L 103.368547 -278.928292 
L 103.934889 -281.720269 
L 104.488905 -284.512247 
L 105.030977 -287.304225 
L 105.56156 -290.096203 
L 106.081189 -292.88818 
L 106.590481 -295.680158 
L 107.090136 -298.472136 
L 107.58093 -301.264114 
L 108.063717 -304.056091 
L 108.539415 -306.848069 
L 109.009001 -309.640047 
L 109.473496 -312.432025 
L 109.933956 -315.224002 
L 110.391451 -318.01598 
L 110.847052 -320.807958 
L 111.301815 -323.599936 
L 111.756759 -326.391913 
L 112.212847 -329.183891 
L 112.670975 -331.975869 
L 113.131947 -334.767846 
L 113.596463 -337.559824 
L 114.065103 -340.351802 
L 114.538315 -343.14378 
L 147.794185 -343.14378 
L 147.794185 -343.14378 
L 148.267397 -340.351802 
L 148.736037 -337.559824 
L 149.200553 -334.767846 
L 149.661525 -331.975869 
L 150.119653 -329.183891 
L 150.575741 -326.391913 
L 151.030685 -323.599936 
L 151.485448 -320.807958 
L 151.941049 -318.01598 
L 152.398544 -315.224002 
L 152.859004 -312.432025 
L 153.323499 -309.640047 
L 153.793085 -306.848069 
L 154.268783 -304.056091 
L 154.75157 -301.264114 
L 155.242364 -298.472136 
L 155.742019 -295.680158 
L 156.251311 -292.88818 
L 156.77094 -290.096203 
L 157.301523 -287.304225 
L 157.843595 -284.512247 
L 158.397611 -281.720269 
L 158.963953 -278.928292 
L 159.542929 -276.136314 
L 160.134791 -273.344336 
L 160.739736 -270.552358 
L 161.357921 -267.760381 
L 161.989472 -264.968403 
L 162.634499 -262.176425 
L 163.293105 -259.384447 
L 163.9654 -256.59247 
L 164.651514 -253.800492 
L 165.351603 -251.008514 
L 166.065866 -248.216536 
L 166.794547 -245.424559 
L 167.537946 -242.632581 
L 168.296423 -239.840603 
L 169.0704 -237.048625 
L 169.860362 -234.256648 
L 170.666857 -231.46467 
L 171.490489 -228.672692 
L 172.331912 -225.880714 
L 173.191819 -223.088737 
L 174.070929 -220.296759 
L 174.969971 -217.504781 
L 175.889666 -214.712804 
L 176.830702 -211.920826 
L 177.793712 -209.128848 
L 178.779246 -206.33687 
L 179.78774 -203.544893 
L 180.819484 -200.752915 
L 181.87459 -197.960937 
L 182.952959 -195.168959 
L 184.054238 -192.376982 
L 185.177793 -189.585004 
L 186.322669 -186.793026 
L 187.487555 -184.001048 
L 188.670756 -181.209071 
L 189.870158 -178.417093 
L 191.083209 -175.625115 
L 192.306888 -172.833137 
L 193.537698 -170.04116 
L 194.771648 -167.249182 
L 196.004252 -164.457204 
L 197.230533 -161.665226 
L 198.445031 -158.873249 
L 199.641827 -156.081271 
L 200.814564 -153.289293 
L 201.956491 -150.497315 
L 203.060504 -147.705338 
L 204.119201 -144.91336 
L 205.124947 -142.121382 
L 206.06994 -139.329404 
L 206.946291 -136.537427 
L 207.746108 -133.745449 
L 208.461579 -130.953471 
L 209.085073 -128.161493 
L 209.609224 -125.369516 
L 210.027035 -122.577538 
L 210.331967 -119.78556 
L 210.518033 -116.993583 
L 210.579886 -114.201605 
L 210.512903 -111.409627 
L 210.313258 -108.617649 
L 209.97799 -105.825672 
L 209.505059 -103.033694 
L 208.893395 -100.241716 
L 208.142928 -97.449738 
L 207.254611 -94.657761 
L 206.230425 -91.865783 
L 205.073377 -89.073805 
L 203.787476 -86.281827 
L 202.377704 -83.48985 
L 200.849963 -80.697872 
L 199.211026 -77.905894 
L 197.468458 -75.113916 
L 195.630542 -72.321939 
L 193.706188 -69.529961 
L 191.704837 -66.737983 
z
" style="stroke: #7c3aed; stroke-opacity: 0.35"/>
    </defs>
    <g clip-path="url(#pab4c8feb0d)">
     <use xlink:href="#m514a031093" x="0" y="391.52407" style="fill: #7c3aed; fill-opacity: 0.35; stroke: #7c3aed; stroke-opacity: 0.35"/>
    </g>
   </g>
   <g id="LineCollection_1">
    <path d="M 91.459432 261.719228 
L 170.873068 261.719228 
" clip-path="url(#pab4c8feb0d)" style="fill: none; stroke: #7c3aed; stroke-width: 1.5"/>
   </g>
   <g id="patch_3">
    <path d="M 43.81125 338.606376 
L 43.81125 34.56 
" style="fill: none; stroke: #000000; stroke-width: 0.8; stroke-linejoin: miter; stroke-linecap: square"/>
   </g>
   <g id="patch_4">
    <path d="M 218.52125 338.606376 
L 218.52125 34.56 
" style="fill: none; stroke: #000000; stroke-width: 0.8; stroke-linejoin: miter; stroke-linecap: square"/>
   </g>
   <g id="patch_5">
    <path d="M 43.81125 338.606376 
L 218.52125 338.606376 
" style="fill: none; stroke: #000000; stroke-width: 0.8; stroke-linejoin: miter; stroke-linecap: square"/>
   </g>
   <g id="patch_6">
    <path d="M 43.81125 34.56 
L 218.52125 34.56 
" style="fill: none; stroke: #000000; stroke-width: 0.8; stroke-linejoin: miter; stroke-linecap: square"/>
   </g>
   <g id="PathCollection_1">
    <defs>
     <path id="mc424547e18" d="M -0 4.472136 
L 4.472136 0 
L 0 -4.472136 
L -4.472136 -0 
z
" style="stroke: #111827"/>
    </defs>
    <g clip-path="url(#pab4c8feb0d)">
     <use xlink:href="#mc424547e18" x="131.16625" y="296.012113" style="fill: #111827; stroke: #111827"/>
    </g>
   </g>
  </g>
  <g id="axes_2">
   <g id="patch_7">
    <path d="M 269.39125 338.606376 
L 444.10125 338.606376 
L 444.10125 34.56 
L 269.39125 34.56 
z
" style="fill: #ffffff"/>
   </g>
   <g id="matplotlib.axis_3">
    <g id="xtick_2">
     <g id="line2d_13">
      <path d="M 356.74625 338.606376 
L 356.74625 34.56 
" clip-path="url(#p005f7b2db9)" style="fill: none; stroke: #b0b0b0; stroke-opacity: 0.2; stroke-width: 0.6; stroke-linecap: square"/>
     </g>
     <g id="line2d_14">
      <g>
       <use xlink:href="#m7a2dffbef6" x="356.74625" y="338.606376" style="stroke: #000000; stroke-width: 0.8"/>
      </g>
     </g>
     <g id="text_8">
      <!-- Loudness variability -->
      <g transform="translate(250.035135 382.114363) rotate(-15) scale(0.11 -0.11)">
       <defs>
        <path id="DejaVuSans-4c" d="M 628 4666 
L 1259 4666 
L 1259 531 
L 3531 531 
L 3531 0 
L 628 0 
L 628 4666 
z
" transform="scale(0.015625)"/>
        <path id="DejaVuSans-75" d="M 544 1381 
L 544 3500 
L 1119 3500 
L 1119 1403 
Q 1119 906 1312 657 
Q 1506 409 1894 409 
Q 2359 409 2629 706 
Q 2900 1003 2900 1516 
L 2900 3500 
L 3475 3500 
L 3475 0 
L 2900 0 
L 2900 538 
Q 2691 219 2414 64 
Q 2138 -91 1772 -91 
Q 1169 -91 856 284 
Q 544 659 544 1381 
z
M 1991 3584 
L 1991 3584 
z
" transform="scale(0.015625)"/>
        <path id="DejaVuSans-64" d="M 2906 2969 
L 2906 4863 
L 3481 4863 
L 3481 0 
L 2906 0 
L 2906 525 
Q 2725 213 2448 61 
Q 2172 -91 1784 -91 
Q 1150 -91 751 415 
Q 353 922 353 1747 
Q 353 2572 751 3078 
Q 1150 3584 1784 3584 
Q 2172 3584 2448 3432 
Q 2725 3281 2906 2969 
z
M 947 1747 
Q 947 1113 1208 752 
Q 1469 391 1925 391 
Q 2381 391 2643 752 
Q 2906 1113 2906 1747 
Q 2906 2381 2643 2742 
Q 2381 3103 1925 3103 
Q 1469 3103 1208 2742 
Q 947 2381 947 1747 
z
" transform="scale(0.015625)"/>
       </defs>
       <use xlink:href="#DejaVuSans-4c"/>
       <use xlink:href="#DejaVuSans-6f" transform="translate(53.962891 0)"/>
       <use xlink:href="#DejaVuSans-75" transform="translate(115.144531 0)"/>
       <use xlink:href="#DejaVuSans-64" transform="translate(178.523438 0)"/>
       <use xlink:href="#DejaVuSans-6e" transform="translate(242 0)"/>
       <use xlink:href="#DejaVuSans-65" transform="translate(305.378906 0)"/>
       <use xlink:href="#DejaVuSans-73" transform="translate(366.902344 0)"/>
       <use xlink:href="#DejaVuSans-73" transform="translate(419.001953 0)"/>
       <use xlink:href="#DejaVuSans-20" transform="translate(471.101562 0)"/>
       <use xlink:href="#DejaVuSans-76" transform="translate(502.888672 0)"/>
       <use xlink:href="#DejaVuSans-61" transform="translate(562.068359 0)"/>
       <use xlink:href="#DejaVuSans-72" transform="translate(623.347656 0)"/>
       <use xlink:href="#DejaVuSans-69" transform="translate(664.460938 0)"/>
       <use xlink:href="#DejaVuSans-61" transform="translate(692.244141 0)"/>
       <use xlink:href="#DejaVuSans-62" transform="translate(753.523438 0)"/>
       <use xlink:href="#DejaVuSans-69" transform="translate(817 0)"/>
       <use xlink:href="#DejaVuSans-6c" transform="translate(844.783203 0)"/>
       <use xlink:href="#DejaVuSans-69" transform="translate(872.566406 0)"/>
       <use xlink:href="#DejaVuSans-74" transform="translate(900.349609 0)"/>
       <use xlink:href="#DejaVuSans-79" transform="translate(939.558594 0)"/>
      </g>
     </g>
    </g>
   </g>
   <g id="matplotlib.axis_4">
    <g id="ytick_6">
     <g id="line2d_15">
      <path d="M 269.39125 316.030913 
L 444.10125 316.030913 
" clip-path="url(#p005f7b2db9)" style="fill: none; stroke: #b0b0b0; stroke-opacity: 0.2; stroke-width: 0.6; stroke-linecap: square"/>
     </g>
     <g id="line2d_16">
      <g>
       <use xlink:href="#m17d63c75a8" x="269.39125" y="316.030913" style="stroke: #000000; stroke-width: 0.8"/>
      </g>
     </g>
     <g id="text_9">
      <!-- 0.8 -->
      <g transform="translate(244.897813 320.210054) scale(0.11 -0.11)">
       <defs>
        <path id="DejaVuSans-2e" d="M 684 794 
L 1344 794 
L 1344 0 
L 684 0 
L 684 794 
z
" transform="scale(0.015625)"/>
       </defs>
       <use xlink:href="#DejaVuSans-30"/>
       <use xlink:href="#DejaVuSans-2e" transform="translate(63.623047 0)"/>
       <use xlink:href="#DejaVuSans-38" transform="translate(95.410156 0)"/>
      </g>
     </g>
    </g>
    <g id="ytick_7">
     <g id="line2d_17">
      <path d="M 269.39125 278.336831 
L 444.10125 278.336831 
" clip-path="url(#p005f7b2db9)" style="fill: none; stroke: #b0b0b0; stroke-opacity: 0.2; stroke-width: 0.6; stroke-linecap: square"/>
     </g>
     <g id="line2d_18">
      <g>
       <use xlink:href="#m17d63c75a8" x="269.39125" y="278.336831" style="stroke: #000000; stroke-width: 0.8"/>
      </g>
     </g>
     <g id="text_10">
      <!-- 0.9 -->
      <g transform="translate(244.897813 282.515972) scale(0.11 -0.11)">
       <defs>
        <path id="DejaVuSans-39" d="M 703 97 
L 703 672 
Q 941 559 1184 500 
Q 1428 441 1663 441 
Q 2288 441 2617 861 
Q 2947 1281 2994 2138 
Q 2813 1869 2534 1725 
Q 2256 1581 1919 1581 
Q 1219 1581 811 2004 
Q 403 2428 403 3163 
Q 403 3881 828 4315 
Q 1253 4750 1959 4750 
Q 2769 4750 3195 4129 
Q 3622 3509 3622 2328 
Q 3622 1225 3098 567 
Q 2575 -91 1691 -91 
Q 1453 -91 1209 -44 
Q 966 3 703 97 
z
M 1959 2075 
Q 2384 2075 2632 2365 
Q 2881 2656 2881 3163 
Q 2881 3666 2632 3958 
Q 2384 4250 1959 4250 
Q 1534 4250 1286 3958 
Q 1038 3666 1038 3163 
Q 1038 2656 1286 2365 
Q 1534 2075 1959 2075 
z
" transform="scale(0.015625)"/>
       </defs>
       <use xlink:href="#DejaVuSans-30"/>
       <use xlink:href="#DejaVuSans-2e" transform="translate(63.623047 0)"/>
       <use xlink:href="#DejaVuSans-39" transform="translate(95.410156 0)"/>
      </g>
     </g>
    </g>
    <g id="ytick_8">
     <g id="line2d_19">
      <path d="M 269.39125 240.642749 
L 444.10125 240.642749 
" clip-path="url(#p005f7b2db9)" style="fill: none; stroke: #b0b0b0; stroke-opacity: 0.2; stroke-width: 0.6; stroke-linecap: square"/>
     </g>
     <g id="line2d_20">
      <g>
       <use xlink:href="#m17d63c75a8" x="269.39125" y="240.642749" style="stroke: #000000; stroke-width: 0.8"/>
      </g>
     </g>
     <g id="text_11">
      <!-- 1.0 -->
      <g transform="translate(244.897813 244.82189) scale(0.11 -0.11)">
       <use xlink:href="#DejaVuSans-31"/>
       <use xlink:href="#DejaVuSans-2e" transform="translate(63.623047 0)"/>
       <use xlink:href="#DejaVuSans-30" transform="translate(95.410156 0)"/>
      </g>
     </g>
    </g>
    <g id="ytick_9">
     <g id="line2d_21">
      <path d="M 269.39125 202.948667 
L 444.10125 202.948667 
" clip-path="url(#p005f7b2db9)" style="fill: none; stroke: #b0b0b0; stroke-opacity: 0.2; stroke-width: 0.6; stroke-linecap: square"/>
     </g>
     <g id="line2d_22">
      <g>
       <use xlink:href="#m17d63c75a8" x="269.39125" y="202.948667" style="stroke: #000000; stroke-width: 0.8"/>
      </g>
     </g>
     <g id="text_12">
      <!-- 1.1 -->
      <g transform="translate(244.897813 207.127808) scale(0.11 -0.11)">
       <use xlink:href="#DejaVuSans-31"/>
       <use xlink:href="#DejaVuSans-2e" transform="translate(63.623047 0)"/>
       <use xlink:href="#DejaVuSans-31" transform="translate(95.410156 0)"/>
      </g>
     </g>
    </g>
    <g id="ytick_10">
     <g id="line2d_23">
      <path d="M 269.39125 165.254586 
L 444.10125 165.254586 
" clip-path="url(#p005f7b2db9)" style="fill: none; stroke: #b0b0b0; stroke-opacity: 0.2; stroke-width: 0.6; stroke-linecap: square"/>
     </g>
     <g id="line2d_24">
      <g>
       <use xlink:href="#m17d63c75a8" x="269.39125" y="165.254586" style="stroke: #000000; stroke-width: 0.8"/>
      </g>
     </g>
     <g id="text_13">
      <!-- 1.2 -->
      <g transform="translate(244.897813 169.433726) scale(0.11 -0.11)">
       <use xlink:href="#DejaVuSans-31"/>
       <use xlink:href="#DejaVuSans-2e" transform="translate(63.623047 0)"/>
       <use xlink:href="#DejaVuSans-32" transform="translate(95.410156 0)"/>
      </g>
     </g>
    </g>
    <g id="ytick_11">
     <g id="line2d_25">
      <path d="M 269.39125 127.560504 
L 444.10125 127.560504 
" clip-path="url(#p005f7b2db9)" style="fill: none; stroke: #b0b0b0; stroke-opacity: 0.2; stroke-width: 0.6; stroke-linecap: square"/>
     </g>
     <g id="line2d_26">
      <g>
       <use xlink:href="#m17d63c75a8" x="269.39125" y="127.560504" style="stroke: #000000; stroke-width: 0.8"/>
      </g>
     </g>
     <g id="text_14">
      <!-- 1.3 -->
      <g transform="translate(244.897813 131.739644) scale(0.11 -0.11)">
       <defs>
        <path id="DejaVuSans-33" d="M 2597 2516 
Q 3050 2419 3304 2112 
Q 3559 1806 3559 1356 
Q 3559 666 3084 287 
Q 2609 -91 1734 -91 
Q 1441 -91 1130 -33 
Q 819 25 488 141 
L 488 750 
Q 750 597 1062 519 
Q 1375 441 1716 441 
Q 2309 441 2620 675 
Q 2931 909 2931 1356 
Q 2931 1769 2642 2001 
Q 2353 2234 1838 2234 
L 1294 2234 
L 1294 2753 
L 1863 2753 
Q 2328 2753 2575 2939 
Q 2822 3125 2822 3475 
Q 2822 3834 2567 4026 
Q 2313 4219 1838 4219 
Q 1578 4219 1281 4162 
Q 984 4106 628 3988 
L 628 4550 
Q 988 4650 1302 4700 
Q 1616 4750 1894 4750 
Q 2613 4750 3031 4423 
Q 3450 4097 3450 3541 
Q 3450 3153 3228 2886 
Q 3006 2619 2597 2516 
z
" transform="scale(0.015625)"/>
       </defs>
       <use xlink:href="#DejaVuSans-31"/>
       <use xlink:href="#DejaVuSans-2e" transform="translate(63.623047 0)"/>
       <use xlink:href="#DejaVuSans-33" transform="translate(95.410156 0)"/>
      </g>
     </g>
    </g>
    <g id="ytick_12">
     <g id="line2d_27">
      <path d="M 269.39125 89.866422 
L 444.10125 89.866422 
" clip-path="url(#p005f7b2db9)" style="fill: none; stroke: #b0b0b0; stroke-opacity: 0.2; stroke-width: 0.6; stroke-linecap: square"/>
     </g>
     <g id="line2d_28">
      <g>
       <use xlink:href="#m17d63c75a8" x="269.39125" y="89.866422" style="stroke: #000000; stroke-width: 0.8"/>
      </g>
     </g>
     <g id="text_15">
      <!-- 1.4 -->
      <g transform="translate(244.897813 94.045562) scale(0.11 -0.11)">
       <use xlink:href="#DejaVuSans-31"/>
       <use xlink:href="#DejaVuSans-2e" transform="translate(63.623047 0)"/>
       <use xlink:href="#DejaVuSans-34" transform="translate(95.410156 0)"/>
      </g>
     </g>
    </g>
    <g id="ytick_13">
     <g id="line2d_29">
      <path d="M 269.39125 52.17234 
L 444.10125 52.17234 
" clip-path="url(#p005f7b2db9)" style="fill: none; stroke: #b0b0b0; stroke-opacity: 0.2; stroke-width: 0.6; stroke-linecap: square"/>
     </g>
     <g id="line2d_30">
      <g>
       <use xlink:href="#m17d63c75a8" x="269.39125" y="52.17234" style="stroke: #000000; stroke-width: 0.8"/>
      </g>
     </g>
     <g id="text_16">
      <!-- 1.5 -->
      <g transform="translate(244.897813 56.35148) scale(0.11 -0.11)">
       <defs>
        <path id="DejaVuSans-35" d="M 691 4666 
L 3169 4666 
L 3169 4134 
L 1269 4134 
L 1269 2991 
Q 1406 3038 1543 3061 
Q 1681 3084 1819 3084 
Q 2600 3084 3056 2656 
Q 3513 2228 3513 1497 
Q 3513 744 3044 326 
Q 2575 -91 1722 -91 
Q 1428 -91 1123 -41 
Q 819 9 494 109 
L 494 744 
Q 775 591 1075 516 
Q 1375 441 1709 441 
Q 2250 441 2565 725 
Q 2881 1009 2881 1497 
Q 2881 1984 2565 2268 
Q 2250 2553 1709 2553 
Q 1456 2553 1204 2497 
Q 953 2441 691 2322 
L 691 4666 
z
" transform="scale(0.015625)"/>
       </defs>
       <use xlink:href="#DejaVuSans-31"/>
       <use xlink:href="#DejaVuSans-2e" transform="translate(63.623047 0)"/>
       <use xlink:href="#DejaVuSans-35" transform="translate(95.410156 0)"/>
      </g>
     </g>
    </g>
    <g id="text_17">
     <!-- normalized SD -->
     <g transform="translate(238.402188 230.259438) rotate(-90) scale(0.12 -0.12)">
      <defs>
       <path id="DejaVuSans-7a" d="M 353 3500 
L 3084 3500 
L 3084 2975 
L 922 459 
L 3084 459 
L 3084 0 
L 275 0 
L 275 525 
L 2438 3041 
L 353 3041 
L 353 3500 
z
" transform="scale(0.015625)"/>
       <path id="DejaVuSans-53" d="M 3425 4513 
L 3425 3897 
Q 3066 4069 2747 4153 
Q 2428 4238 2131 4238 
Q 1616 4238 1336 4038 
Q 1056 3838 1056 3469 
Q 1056 3159 1242 3001 
Q 1428 2844 1947 2747 
L 2328 2669 
Q 3034 2534 3370 2195 
Q 3706 1856 3706 1288 
Q 3706 609 3251 259 
Q 2797 -91 1919 -91 
Q 1588 -91 1214 -16 
Q 841 59 441 206 
L 441 856 
Q 825 641 1194 531 
Q 1563 422 1919 422 
Q 2459 422 2753 634 
Q 3047 847 3047 1241 
Q 3047 1584 2836 1778 
Q 2625 1972 2144 2069 
L 1759 2144 
Q 1053 2284 737 2584 
Q 422 2884 422 3419 
Q 422 4038 858 4394 
Q 1294 4750 2059 4750 
Q 2388 4750 2728 4690 
Q 3069 4631 3425 4513 
z
" transform="scale(0.015625)"/>
       <path id="DejaVuSans-44" d="M 1259 4147 
L 1259 519 
L 2022 519 
Q 2988 519 3436 956 
Q 3884 1394 3884 2338 
Q 3884 3275 3436 3711 
Q 2988 4147 2022 4147 
L 1259 4147 
z
M 628 4666 
L 1925 4666 
Q 3281 4666 3915 4102 
Q 4550 3538 4550 2338 
Q 4550 1131 3912 565 
Q 3275 0 1925 0 
L 628 0 
L 628 4666 
z
" transform="scale(0.015625)"/>
      </defs>
      <use xlink:href="#DejaVuSans-6e"/>
      <use xlink:href="#DejaVuSans-6f" transform="translate(63.378906 0)"/>
      <use xlink:href="#DejaVuSans-72" transform="translate(124.560547 0)"/>
      <use xlink:href="#DejaVuSans-6d" transform="translate(163.923828 0)"/>
      <use xlink:href="#DejaVuSans-61" transform="translate(261.335938 0)"/>
      <use xlink:href="#DejaVuSans-6c" transform="translate(322.615234 0)"/>
      <use xlink:href="#DejaVuSans-69" transform="translate(350.398438 0)"/>
      <use xlink:href="#DejaVuSans-7a" transform="translate(378.181641 0)"/>
      <use xlink:href="#DejaVuSans-65" transform="translate(430.671875 0)"/>
      <use xlink:href="#DejaVuSans-64" transform="translate(492.195312 0)"/>
      <use xlink:href="#DejaVuSans-20" transform="translate(555.671875 0)"/>
      <use xlink:href="#DejaVuSans-53" transform="translate(587.458984 0)"/>
      <use xlink:href="#DejaVuSans-44" transform="translate(650.935547 0)"/>
     </g>
    </g>
   </g>
   <g id="FillBetweenPolyCollection_2">
    <defs>
     <path id="m234137066e" d="M 382.696821 -66.737983 
L 330.795679 -66.737983 
L 329.812473 -69.529961 
L 328.836476 -72.321939 
L 327.866141 -75.113916 
L 326.899221 -77.905894 
L 325.93281 -80.697872 
L 324.963389 -83.48985 
L 323.986905 -86.281827 
L 322.998855 -89.073805 
L 321.994395 -91.865783 
L 320.968456 -94.657761 
L 319.915878 -97.449738 
L 318.831548 -100.241716 
L 317.710546 -103.033694 
L 316.54829 -105.825672 
L 315.340689 -108.617649 
L 314.084282 -111.409627 
L 312.776374 -114.201605 
L 311.415166 -116.993583 
L 309.999863 -119.78556 
L 308.530779 -122.577538 
L 307.009409 -125.369516 
L 305.438497 -128.161493 
L 303.822072 -130.953471 
L 302.165467 -133.745449 
L 300.475315 -136.537427 
L 298.759518 -139.329404 
L 297.027201 -142.121382 
L 295.288634 -144.91336 
L 293.555142 -147.705338 
L 291.838984 -150.497315 
L 290.153223 -153.289293 
L 288.511573 -156.081271 
L 286.928231 -158.873249 
L 285.417702 -161.665226 
L 283.994602 -164.457204 
L 282.673466 -167.249182 
L 281.468542 -170.04116 
L 280.393592 -172.833137 
L 279.461683 -175.625115 
L 278.684995 -178.417093 
L 278.074628 -181.209071 
L 277.640423 -184.001048 
L 277.390802 -186.793026 
L 277.332614 -189.585004 
L 277.471014 -192.376982 
L 277.809357 -195.168959 
L 278.349118 -197.960937 
L 279.089838 -200.752915 
L 280.029103 -203.544893 
L 281.162545 -206.33687 
L 282.483877 -209.128848 
L 283.984954 -211.920826 
L 285.655866 -214.712804 
L 287.485056 -217.504781 
L 289.459461 -220.296759 
L 291.564679 -223.088737 
L 293.785154 -225.880714 
L 296.104378 -228.672692 
L 298.505108 -231.46467 
L 300.969588 -234.256648 
L 303.479779 -237.048625 
L 306.017589 -239.840603 
L 308.565101 -242.632581 
L 311.104794 -245.424559 
L 313.619753 -248.216536 
L 316.093866 -251.008514 
L 318.512002 -253.800492 
L 320.860173 -256.59247 
L 323.125673 -259.384447 
L 325.297194 -262.176425 
L 327.364919 -264.968403 
L 329.320588 -267.760381 
L 331.157542 -270.552358 
L 332.870743 -273.344336 
L 334.456767 -276.136314 
L 335.913775 -278.928292 
L 337.24147 -281.720269 
L 338.441025 -284.512247 
L 339.514997 -287.304225 
L 340.467228 -290.096203 
L 341.302731 -292.88818 
L 342.027563 -295.680158 
L 342.648694 -298.472136 
L 343.173859 -301.264114 
L 343.611423 -304.056091 
L 343.970225 -306.848069 
L 344.259435 -309.640047 
L 344.488406 -312.432025 
L 344.666533 -315.224002 
L 344.803118 -318.01598 
L 344.907242 -320.807958 
L 344.987642 -323.599936 
L 345.052607 -326.391913 
L 345.109876 -329.183891 
L 345.166562 -331.975869 
L 345.229071 -334.767846 
L 345.303057 -337.559824 
L 345.393375 -340.351802 
L 345.504059 -343.14378 
L 367.988441 -343.14378 
L 367.988441 -343.14378 
L 368.099125 -340.351802 
L 368.189443 -337.559824 
L 368.263429 -334.767846 
L 368.325938 -331.975869 
L 368.382624 -329.183891 
L 368.439893 -326.391913 
L 368.504858 -323.599936 
L 368.585258 -320.807958 
L 368.689382 -318.01598 
L 368.825967 -315.224002 
L 369.004094 -312.432025 
L 369.233065 -309.640047 
L 369.522275 -306.848069 
L 369.881077 -304.056091 
L 370.318641 -301.264114 
L 370.843806 -298.472136 
L 371.464937 -295.680158 
L 372.189769 -292.88818 
L 373.025272 -290.096203 
L 373.977503 -287.304225 
L 375.051475 -284.512247 
L 376.25103 -281.720269 
L 377.578725 -278.928292 
L 379.035733 -276.136314 
L 380.621757 -273.344336 
L 382.334958 -270.552358 
L 384.171912 -267.760381 
L 386.127581 -264.968403 
L 388.195306 -262.176425 
L 390.366827 -259.384447 
L 392.632327 -256.59247 
L 394.980498 -253.800492 
L 397.398634 -251.008514 
L 399.872747 -248.216536 
L 402.387706 -245.424559 
L 404.927399 -242.632581 
L 407.474911 -239.840603 
L 410.012721 -237.048625 
L 412.522912 -234.256648 
L 414.987392 -231.46467 
L 417.388122 -228.672692 
L 419.707346 -225.880714 
L 421.927821 -223.088737 
L 424.033039 -220.296759 
L 426.007444 -217.504781 
L 427.836634 -214.712804 
L 429.507546 -211.920826 
L 431.008623 -209.128848 
L 432.329955 -206.33687 
L 433.463397 -203.544893 
L 434.402662 -200.752915 
L 435.143382 -197.960937 
L 435.683143 -195.168959 
L 436.021486 -192.376982 
L 436.159886 -189.585004 
L 436.101698 -186.793026 
L 435.852077 -184.001048 
L 435.417872 -181.209071 
L 434.807505 -178.417093 
L 434.030817 -175.625115 
L 433.098908 -172.833137 
L 432.023958 -170.04116 
L 430.819034 -167.249182 
L 429.497898 -164.457204 
L 428.074798 -161.665226 
L 426.564269 -158.873249 
L 424.980927 -156.081271 
L 423.339277 -153.289293 
L 421.653516 -150.497315 
L 419.937358 -147.705338 
L 418.203866 -144.91336 
L 416.465299 -142.121382 
L 414.732982 -139.329404 
L 413.017185 -136.537427 
L 411.327033 -133.745449 
L 409.670428 -130.953471 
L 408.054003 -128.161493 
L 406.483091 -125.369516 
L 404.961721 -122.577538 
L 403.492637 -119.78556 
L 402.077334 -116.993583 
L 400.716126 -114.201605 
L 399.408218 -111.409627 
L 398.151811 -108.617649 
L 396.94421 -105.825672 
L 395.781954 -103.033694 
L 394.660952 -100.241716 
L 393.576622 -97.449738 
L 392.524044 -94.657761 
L 391.498105 -91.865783 
L 390.493645 -89.073805 
L 389.505595 -86.281827 
L 388.529111 -83.48985 
L 387.55969 -80.697872 
L 386.593279 -77.905894 
L 385.626359 -75.113916 
L 384.656024 -72.321939 
L 383.680027 -69.529961 
L 382.696821 -66.737983 
z
" style="stroke: #7c3aed; stroke-opacity: 0.35"/>
    </defs>
    <g clip-path="url(#p005f7b2db9)">
     <use xlink:href="#m234137066e" x="0" y="391.52407" style="fill: #7c3aed; fill-opacity: 0.35; stroke: #7c3aed; stroke-opacity: 0.35"/>
    </g>
   </g>
   <g id="LineCollection_2">
    <path d="M 317.039432 206.403676 
L 396.453068 206.403676 
" clip-path="url(#p005f7b2db9)" style="fill: none; stroke: #7c3aed; stroke-width: 1.5"/>
   </g>
   <g id="patch_8">
    <path d="M 269.39125 338.606376 
L 269.39125 34.56 
" style="fill: none; stroke: #000000; stroke-width: 0.8; stroke-linejoin: miter; stroke-linecap: square"/>
   </g>
   <g id="patch_9">
    <path d="M 444.10125 338.606376 
L 444.10125 34.56 
" style="fill: none; stroke: #000000; stroke-width: 0.8; stroke-linejoin: miter; stroke-linecap: square"/>
   </g>
   <g id="patch_10">
    <path d="M 269.39125 338.606376 
L 444.10125 338.606376 
" style="fill: none; stroke: #000000; stroke-width: 0.8; stroke-linejoin: miter; stroke-linecap: square"/>
   </g>
   <g id="patch_11">
    <path d="M 269.39125 34.56 
L 444.10125 34.56 
" style="fill: none; stroke: #000000; stroke-width: 0.8; stroke-linejoin: miter; stroke-linecap: square"/>
   </g>
   <g id="PathCollection_2">
    <g clip-path="url(#p005f7b2db9)">
     <use xlink:href="#mc424547e18" x="356.74625" y="121.723085" style="fill: #111827; stroke: #111827"/>
    </g>
   </g>
  </g>
  <g id="axes_3">
   <g id="patch_12">
    <path d="M 494.97125 338.606376 
L 669.68125 338.606376 
L 669.68125 34.56 
L 494.97125 34.56 
z
" style="fill: #ffffff"/>
   </g>
   <g id="matplotlib.axis_5">
    <g id="xtick_3">
     <g id="line2d_31">
      <path d="M 582.32625 338.606376 
L 582.32625 34.56 
" clip-path="url(#p232d869efb)" style="fill: none; stroke: #b0b0b0; stroke-opacity: 0.2; stroke-width: 0.6; stroke-linecap: square"/>
     </g>
     <g id="line2d_32">
      <g>
       <use xlink:href="#m7a2dffbef6" x="582.32625" y="338.606376" style="stroke: #000000; stroke-width: 0.8"/>
      </g>
     </g>
     <g id="text_18">
      <!-- Speech rate -->
      <g transform="translate(517.632757 370.855775) rotate(-15) scale(0.11 -0.11)">
       <defs>
        <path id="DejaVuSans-70" d="M 1159 525 
L 1159 -1331 
L 581 -1331 
L 581 3500 
L 1159 3500 
L 1159 2969 
Q 1341 3281 1617 3432 
Q 1894 3584 2278 3584 
Q 2916 3584 3314 3078 
Q 3713 2572 3713 1747 
Q 3713 922 3314 415 
Q 2916 -91 2278 -91 
Q 1894 -91 1617 61 
Q 1341 213 1159 525 
z
M 3116 1747 
Q 3116 2381 2855 2742 
Q 2594 3103 2138 3103 
Q 1681 3103 1420 2742 
Q 1159 2381 1159 1747 
Q 1159 1113 1420 752 
Q 1681 391 2138 391 
Q 2594 391 2855 752 
Q 3116 1113 3116 1747 
z
" transform="scale(0.015625)"/>
       </defs>
       <use xlink:href="#DejaVuSans-53"/>
       <use xlink:href="#DejaVuSans-70" transform="translate(63.476562 0)"/>
       <use xlink:href="#DejaVuSans-65" transform="translate(126.953125 0)"/>
       <use xlink:href="#DejaVuSans-65" transform="translate(188.476562 0)"/>
       <use xlink:href="#DejaVuSans-63" transform="translate(250 0)"/>
       <use xlink:href="#DejaVuSans-68" transform="translate(304.980469 0)"/>
       <use xlink:href="#DejaVuSans-20" transform="translate(368.359375 0)"/>
       <use xlink:href="#DejaVuSans-72" transform="translate(400.146484 0)"/>
       <use xlink:href="#DejaVuSans-61" transform="translate(441.259766 0)"/>
       <use xlink:href="#DejaVuSans-74" transform="translate(502.539062 0)"/>
       <use xlink:href="#DejaVuSans-65" transform="translate(541.748047 0)"/>
      </g>
     </g>
    </g>
   </g>
   <g id="matplotlib.axis_6">
    <g id="ytick_14">
     <g id="line2d_33">
      <path d="M 494.97125 310.889859 
L 669.68125 310.889859 
" clip-path="url(#p232d869efb)" style="fill: none; stroke: #b0b0b0; stroke-opacity: 0.2; stroke-width: 0.6; stroke-linecap: square"/>
     </g>
     <g id="line2d_34">
      <g>
       <use xlink:href="#m17d63c75a8" x="494.97125" y="310.889859" style="stroke: #000000; stroke-width: 0.8"/>
      </g>
     </g>
     <g id="text_19">
      <!-- 1.0 -->
      <g transform="translate(470.477813 315.069) scale(0.11 -0.11)">
       <use xlink:href="#DejaVuSans-31"/>
       <use xlink:href="#DejaVuSans-2e" transform="translate(63.623047 0)"/>
       <use xlink:href="#DejaVuSans-30" transform="translate(95.410156 0)"/>
      </g>
     </g>
    </g>
    <g id="ytick_15">
     <g id="line2d_35">
      <path d="M 494.97125 272.859273 
L 669.68125 272.859273 
" clip-path="url(#p232d869efb)" style="fill: none; stroke: #b0b0b0; stroke-opacity: 0.2; stroke-width: 0.6; stroke-linecap: square"/>
     </g>
     <g id="line2d_36">
      <g>
       <use xlink:href="#m17d63c75a8" x="494.97125" y="272.859273" style="stroke: #000000; stroke-width: 0.8"/>
      </g>
     </g>
     <g id="text_20">
      <!-- 1.2 -->
      <g transform="translate(470.477813 277.038414) scale(0.11 -0.11)">
       <use xlink:href="#DejaVuSans-31"/>
       <use xlink:href="#DejaVuSans-2e" transform="translate(63.623047 0)"/>
       <use xlink:href="#DejaVuSans-32" transform="translate(95.410156 0)"/>
      </g>
     </g>
    </g>
    <g id="ytick_16">
     <g id="line2d_37">
      <path d="M 494.97125 234.828687 
L 669.68125 234.828687 
" clip-path="url(#p232d869efb)" style="fill: none; stroke: #b0b0b0; stroke-opacity: 0.2; stroke-width: 0.6; stroke-linecap: square"/>
     </g>
     <g id="line2d_38">
      <g>
       <use xlink:href="#m17d63c75a8" x="494.97125" y="234.828687" style="stroke: #000000; stroke-width: 0.8"/>
      </g>
     </g>
     <g id="text_21">
      <!-- 1.4 -->
      <g transform="translate(470.477813 239.007827) scale(0.11 -0.11)">
       <use xlink:href="#DejaVuSans-31"/>
       <use xlink:href="#DejaVuSans-2e" transform="translate(63.623047 0)"/>
       <use xlink:href="#DejaVuSans-34" transform="translate(95.410156 0)"/>
      </g>
     </g>
    </g>
    <g id="ytick_17">
     <g id="line2d_39">
      <path d="M 494.97125 196.798101 
L 669.68125 196.798101 
" clip-path="url(#p232d869efb)" style="fill: none; stroke: #b0b0b0; stroke-opacity: 0.2; stroke-width: 0.6; stroke-linecap: square"/>
     </g>
     <g id="line2d_40">
      <g>
       <use xlink:href="#m17d63c75a8" x="494.97125" y="196.798101" style="stroke: #000000; stroke-width: 0.8"/>
      </g>
     </g>
     <g id="text_22">
      <!-- 1.6 -->
      <g transform="translate(470.477813 200.977241) scale(0.11 -0.11)">
       <use xlink:href="#DejaVuSans-31"/>
       <use xlink:href="#DejaVuSans-2e" transform="translate(63.623047 0)"/>
       <use xlink:href="#DejaVuSans-36" transform="translate(95.410156 0)"/>
      </g>
     </g>
    </g>
    <g id="ytick_18">
     <g id="line2d_41">
      <path d="M 494.97125 158.767514 
L 669.68125 158.767514 
" clip-path="url(#p232d869efb)" style="fill: none; stroke: #b0b0b0; stroke-opacity: 0.2; stroke-width: 0.6; stroke-linecap: square"/>
     </g>
     <g id="line2d_42">
      <g>
       <use xlink:href="#m17d63c75a8" x="494.97125" y="158.767514" style="stroke: #000000; stroke-width: 0.8"/>
      </g>
     </g>
     <g id="text_23">
      <!-- 1.8 -->
      <g transform="translate(470.477813 162.946655) scale(0.11 -0.11)">
       <use xlink:href="#DejaVuSans-31"/>
       <use xlink:href="#DejaVuSans-2e" transform="translate(63.623047 0)"/>
       <use xlink:href="#DejaVuSans-38" transform="translate(95.410156 0)"/>
      </g>
     </g>
    </g>
    <g id="ytick_19">
     <g id="line2d_43">
      <path d="M 494.97125 120.736928 
L 669.68125 120.736928 
" clip-path="url(#p232d869efb)" style="fill: none; stroke: #b0b0b0; stroke-opacity: 0.2; stroke-width: 0.6; stroke-linecap: square"/>
     </g>
     <g id="line2d_44">
      <g>
       <use xlink:href="#m17d63c75a8" x="494.97125" y="120.736928" style="stroke: #000000; stroke-width: 0.8"/>
      </g>
     </g>
     <g id="text_24">
      <!-- 2.0 -->
      <g transform="translate(470.477813 124.916069) scale(0.11 -0.11)">
       <use xlink:href="#DejaVuSans-32"/>
       <use xlink:href="#DejaVuSans-2e" transform="translate(63.623047 0)"/>
       <use xlink:href="#DejaVuSans-30" transform="translate(95.410156 0)"/>
      </g>
     </g>
    </g>
    <g id="ytick_20">
     <g id="line2d_45">
      <path d="M 494.97125 82.706342 
L 669.68125 82.706342 
" clip-path="url(#p232d869efb)" style="fill: none; stroke: #b0b0b0; stroke-opacity: 0.2; stroke-width: 0.6; stroke-linecap: square"/>
     </g>
     <g id="line2d_46">
      <g>
       <use xlink:href="#m17d63c75a8" x="494.97125" y="82.706342" style="stroke: #000000; stroke-width: 0.8"/>
      </g>
     </g>
     <g id="text_25">
      <!-- 2.2 -->
      <g transform="translate(470.477813 86.885483) scale(0.11 -0.11)">
       <use xlink:href="#DejaVuSans-32"/>
       <use xlink:href="#DejaVuSans-2e" transform="translate(63.623047 0)"/>
       <use xlink:href="#DejaVuSans-32" transform="translate(95.410156 0)"/>
      </g>
     </g>
    </g>
    <g id="ytick_21">
     <g id="line2d_47">
      <path d="M 494.97125 44.675756 
L 669.68125 44.675756 
" clip-path="url(#p232d869efb)" style="fill: none; stroke: #b0b0b0; stroke-opacity: 0.2; stroke-width: 0.6; stroke-linecap: square"/>
     </g>
     <g id="line2d_48">
      <g>
       <use xlink:href="#m17d63c75a8" x="494.97125" y="44.675756" style="stroke: #000000; stroke-width: 0.8"/>
      </g>
     </g>
     <g id="text_26">
      <!-- 2.4 -->
      <g transform="translate(470.477813 48.854896) scale(0.11 -0.11)">
       <use xlink:href="#DejaVuSans-32"/>
       <use xlink:href="#DejaVuSans-2e" transform="translate(63.623047 0)"/>
       <use xlink:href="#DejaVuSans-34" transform="translate(95.410156 0)"/>
      </g>
     </g>
    </g>
    <g id="text_27">
     <!-- segments / second -->
     <g transform="translate(463.982188 243.260688) rotate(-90) scale(0.12 -0.12)">
      <defs>
       <path id="DejaVuSans-67" d="M 2906 1791 
Q 2906 2416 2648 2759 
Q 2391 3103 1925 3103 
Q 1463 3103 1205 2759 
Q 947 2416 947 1791 
Q 947 1169 1205 825 
Q 1463 481 1925 481 
Q 2391 481 2648 825 
Q 2906 1169 2906 1791 
z
M 3481 434 
Q 3481 -459 3084 -895 
Q 2688 -1331 1869 -1331 
Q 1566 -1331 1297 -1286 
Q 1028 -1241 775 -1147 
L 775 -588 
Q 1028 -725 1275 -790 
Q 1522 -856 1778 -856 
Q 2344 -856 2625 -561 
Q 2906 -266 2906 331 
L 2906 616 
Q 2728 306 2450 153 
Q 2172 0 1784 0 
Q 1141 0 747 490 
Q 353 981 353 1791 
Q 353 2603 747 3093 
Q 1141 3584 1784 3584 
Q 2172 3584 2450 3431 
Q 2728 3278 2906 2969 
L 2906 3500 
L 3481 3500 
L 3481 434 
z
" transform="scale(0.015625)"/>
       <path id="DejaVuSans-2f" d="M 1625 4666 
L 2156 4666 
L 531 -594 
L 0 -594 
L 1625 4666 
z
" transform="scale(0.015625)"/>
      </defs>
      <use xlink:href="#DejaVuSans-73"/>
      <use xlink:href="#DejaVuSans-65" transform="translate(52.099609 0)"/>
      <use xlink:href="#DejaVuSans-67" transform="translate(113.623047 0)"/>
      <use xlink:href="#DejaVuSans-6d" transform="translate(177.099609 0)"/>
      <use xlink:href="#DejaVuSans-65" transform="translate(274.511719 0)"/>
      <use xlink:href="#DejaVuSans-6e" transform="translate(336.035156 0)"/>
      <use xlink:href="#DejaVuSans-74" transform="translate(399.414062 0)"/>
      <use xlink:href="#DejaVuSans-73" transform="translate(438.623047 0)"/>
      <use xlink:href="#DejaVuSans-20" transform="translate(490.722656 0)"/>
      <use xlink:href="#DejaVuSans-2f" transform="translate(522.509766 0)"/>
      <use xlink:href="#DejaVuSans-20" transform="translate(556.201172 0)"/>
      <use xlink:href="#DejaVuSans-73" transform="translate(587.988281 0)"/>
      <use xlink:href="#DejaVuSans-65" transform="translate(640.087891 0)"/>
      <use xlink:href="#DejaVuSans-63" transform="translate(701.611328 0)"/>
      <use xlink:href="#DejaVuSans-6f" transform="translate(756.591797 0)"/>
      <use xlink:href="#DejaVuSans-6e" transform="translate(817.773438 0)"/>
      <use xlink:href="#DejaVuSans-64" transform="translate(881.152344 0)"/>
     </g>
    </g>
   </g>
   <g id="FillBetweenPolyCollection_3">
    <defs>
     <path id="m57cac6331f" d="M 606.497475 -66.737983 
L 558.155025 -66.737983 
L 557.128783 -69.529961 
L 556.076711 -72.321939 
L 554.997591 -75.113916 
L 553.890215 -77.905894 
L 552.753412 -80.697872 
L 551.586099 -83.48985 
L 550.387321 -86.281827 
L 549.156291 -89.073805 
L 547.892438 -91.865783 
L 546.595446 -94.657761 
L 545.265295 -97.449738 
L 543.902296 -100.241716 
L 542.507128 -103.033694 
L 541.080862 -105.825672 
L 539.624987 -108.617649 
L 538.141429 -111.409627 
L 536.632558 -114.201605 
L 535.101195 -116.993583 
L 533.550611 -119.78556 
L 531.98452 -122.577538 
L 530.407056 -125.369516 
L 528.822759 -128.161493 
L 527.236541 -130.953471 
L 525.65365 -133.745449 
L 524.079634 -136.537427 
L 522.52029 -139.329404 
L 520.981612 -142.121382 
L 519.469739 -144.91336 
L 517.990892 -147.705338 
L 516.551315 -150.497315 
L 515.157207 -153.289293 
L 513.814656 -156.081271 
L 512.529575 -158.873249 
L 511.307631 -161.665226 
L 510.154182 -164.457204 
L 509.074208 -167.249182 
L 508.072254 -170.04116 
L 507.15237 -172.833137 
L 506.318052 -175.625115 
L 505.572198 -178.417093 
L 504.917064 -181.209071 
L 504.354224 -184.001048 
L 503.884546 -186.793026 
L 503.508168 -189.585004 
L 503.22449 -192.376982 
L 503.032172 -195.168959 
L 502.929141 -197.960937 
L 502.912614 -200.752915 
L 502.979124 -203.544893 
L 503.124565 -206.33687 
L 503.344245 -209.128848 
L 503.63294 -211.920826 
L 503.984975 -214.712804 
L 504.394298 -217.504781 
L 504.854568 -220.296759 
L 505.359253 -223.088737 
L 505.901723 -225.880714 
L 506.475359 -228.672692 
L 507.073649 -231.46467 
L 507.690296 -234.256648 
L 508.31932 -237.048625 
L 508.955148 -239.840603 
L 509.592711 -242.632581 
L 510.227522 -245.424559 
L 510.855749 -248.216536 
L 511.474274 -251.008514 
L 512.080744 -253.800492 
L 512.673602 -256.59247 
L 513.252106 -259.384447 
L 513.816334 -262.176425 
L 514.367169 -264.968403 
L 514.906273 -267.760381 
L 515.436047 -270.552358 
L 515.959571 -273.344336 
L 516.480533 -276.136314 
L 517.003155 -278.928292 
L 517.532092 -281.720269 
L 518.072343 -284.512247 
L 518.629136 -287.304225 
L 519.207826 -290.096203 
L 519.813784 -292.88818 
L 520.45228 -295.680158 
L 521.128385 -298.472136 
L 521.846861 -301.264114 
L 522.612071 -304.056091 
L 523.427888 -306.848069 
L 524.29762 -309.640047 
L 525.223942 -312.432025 
L 526.208849 -315.224002 
L 527.253609 -318.01598 
L 528.35874 -320.807958 
L 529.524 -323.599936 
L 530.748382 -326.391913 
L 532.030134 -329.183891 
L 533.366782 -331.975869 
L 534.755172 -334.767846 
L 536.191512 -337.559824 
L 537.671438 -340.351802 
L 539.190074 -343.14378 
L 625.462426 -343.14378 
L 625.462426 -343.14378 
L 626.981062 -340.351802 
L 628.460988 -337.559824 
L 629.897328 -334.767846 
L 631.285718 -331.975869 
L 632.622366 -329.183891 
L 633.904118 -326.391913 
L 635.1285 -323.599936 
L 636.29376 -320.807958 
L 637.398891 -318.01598 
L 638.443651 -315.224002 
L 639.428558 -312.432025 
L 640.35488 -309.640047 
L 641.224612 -306.848069 
L 642.040429 -304.056091 
L 642.805639 -301.264114 
L 643.524115 -298.472136 
L 644.20022 -295.680158 
L 644.838716 -292.88818 
L 645.444674 -290.096203 
L 646.023364 -287.304225 
L 646.580157 -284.512247 
L 647.120408 -281.720269 
L 647.649345 -278.928292 
L 648.171967 -276.136314 
L 648.692929 -273.344336 
L 649.216453 -270.552358 
L 649.746227 -267.760381 
L 650.285331 -264.968403 
L 650.836166 -262.176425 
L 651.400394 -259.384447 
L 651.978898 -256.59247 
L 652.571756 -253.800492 
L 653.178226 -251.008514 
L 653.796751 -248.216536 
L 654.424978 -245.424559 
L 655.059789 -242.632581 
L 655.697352 -239.840603 
L 656.33318 -237.048625 
L 656.962204 -234.256648 
L 657.578851 -231.46467 
L 658.177141 -228.672692 
L 658.750777 -225.880714 
L 659.293247 -223.088737 
L 659.797932 -220.296759 
L 660.258202 -217.504781 
L 660.667525 -214.712804 
L 661.01956 -211.920826 
L 661.308255 -209.128848 
L 661.527935 -206.33687 
L 661.673376 -203.544893 
L 661.739886 -200.752915 
L 661.723359 -197.960937 
L 661.620328 -195.168959 
L 661.42801 -192.376982 
L 661.144332 -189.585004 
L 660.767954 -186.793026 
L 660.298276 -184.001048 
L 659.735436 -181.209071 
L 659.080302 -178.417093 
L 658.334448 -175.625115 
L 657.50013 -172.833137 
L 656.580246 -170.04116 
L 655.578292 -167.249182 
L 654.498318 -164.457204 
L 653.344869 -161.665226 
L 652.122925 -158.873249 
L 650.837844 -156.081271 
L 649.495293 -153.289293 
L 648.101185 -150.497315 
L 646.661608 -147.705338 
L 645.182761 -144.91336 
L 643.670888 -142.121382 
L 642.13221 -139.329404 
L 640.572866 -136.537427 
L 638.99885 -133.745449 
L 637.415959 -130.953471 
L 635.829741 -128.161493 
L 634.245444 -125.369516 
L 632.66798 -122.577538 
L 631.101889 -119.78556 
L 629.551305 -116.993583 
L 628.019942 -114.201605 
L 626.511071 -111.409627 
L 625.027513 -108.617649 
L 623.571638 -105.825672 
L 622.145372 -103.033694 
L 620.750204 -100.241716 
L 619.387205 -97.449738 
L 618.057054 -94.657761 
L 616.760062 -91.865783 
L 615.496209 -89.073805 
L 614.265179 -86.281827 
L 613.066401 -83.48985 
L 611.899088 -80.697872 
L 610.762285 -77.905894 
L 609.654909 -75.113916 
L 608.575789 -72.321939 
L 607.523717 -69.529961 
L 606.497475 -66.737983 
z
" style="stroke: #7c3aed; stroke-opacity: 0.35"/>
    </defs>
    <g clip-path="url(#p232d869efb)">
     <use xlink:href="#m57cac6331f" x="0" y="391.52407" style="fill: #7c3aed; fill-opacity: 0.35; stroke: #7c3aed; stroke-opacity: 0.35"/>
    </g>
   </g>
   <g id="LineCollection_3">
    <path d="M 542.619432 181.020231 
L 622.033068 181.020231 
" clip-path="url(#p232d869efb)" style="fill: none; stroke: #7c3aed; stroke-width: 1.5"/>
   </g>
   <g id="patch_13">
    <path d="M 494.97125 338.606376 
L 494.97125 34.56 
" style="fill: none; stroke: #000000; stroke-width: 0.8; stroke-linejoin: miter; stroke-linecap: square"/>
   </g>
   <g id="patch_14">
    <path d="M 669.68125 338.606376 
L 669.68125 34.56 
" style="fill: none; stroke: #000000; stroke-width: 0.8; stroke-linejoin: miter; stroke-linecap: square"/>
   </g>
   <g id="patch_15">
    <path d="M 494.97125 338.606376 
L 669.68125 338.606376 
" style="fill: none; stroke: #000000; stroke-width: 0.8; stroke-linejoin: miter; stroke-linecap: square"/>
   </g>
   <g id="patch_16">
    <path d="M 494.97125 34.56 
L 669.68125 34.56 
" style="fill: none; stroke: #000000; stroke-width: 0.8; stroke-linejoin: miter; stroke-linecap: square"/>
   </g>
   <g id="PathCollection_3">
    <g clip-path="url(#p232d869efb)">
     <use xlink:href="#mc424547e18" x="582.32625" y="140.586473" style="fill: #111827; stroke: #111827"/>
    </g>
   </g>
   <g id="legend_1">
    <g id="patch_17">
     <path d="M 521.512578 181.545532 
L 543.512578 181.545532 
L 543.512578 173.845532 
L 521.512578 173.845532 
z
" style="fill: #7c3aed; opacity: 0.35; stroke: #7c3aed; stroke-linejoin: miter"/>
    </g>
    <g id="text_28">
     <!-- Reference group -->
     <g transform="translate(552.312578 181.545532) scale(0.11 -0.11)">
      <defs>
       <path id="DejaVuSans-52" d="M 2841 2188 
Q 3044 2119 3236 1894 
Q 3428 1669 3622 1275 
L 4263 0 
L 3584 0 
L 2988 1197 
Q 2756 1666 2539 1819 
Q 2322 1972 1947 1972 
L 1259 1972 
L 1259 0 
L 628 0 
L 628 4666 
L 2053 4666 
Q 2853 4666 3247 4331 
Q 3641 3997 3641 3322 
Q 3641 2881 3436 2590 
Q 3231 2300 2841 2188 
z
M 1259 4147 
L 1259 2491 
L 2053 2491 
Q 2509 2491 2742 2702 
Q 2975 2913 2975 3322 
Q 2975 3731 2742 3939 
Q 2509 4147 2053 4147 
L 1259 4147 
z
" transform="scale(0.015625)"/>
       <path id="DejaVuSans-66" d="M 2375 4863 
L 2375 4384 
L 1825 4384 
Q 1516 4384 1395 4259 
Q 1275 4134 1275 3809 
L 1275 3500 
L 2222 3500 
L 2222 3053 
L 1275 3053 
L 1275 0 
L 697 0 
L 697 3053 
L 147 3053 
L 147 3500 
L 697 3500 
L 697 3744 
Q 697 4328 969 4595 
Q 1241 4863 1831 4863 
L 2375 4863 
z
" transform="scale(0.015625)"/>
      </defs>
      <use xlink:href="#DejaVuSans-52"/>
      <use xlink:href="#DejaVuSans-65" transform="translate(64.982422 0)"/>
      <use xlink:href="#DejaVuSans-66" transform="translate(126.505859 0)"/>
      <use xlink:href="#DejaVuSans-65" transform="translate(161.710938 0)"/>
      <use xlink:href="#DejaVuSans-72" transform="translate(223.234375 0)"/>
      <use xlink:href="#DejaVuSans-65" transform="translate(262.097656 0)"/>
      <use xlink:href="#DejaVuSans-6e" transform="translate(323.621094 0)"/>
      <use xlink:href="#DejaVuSans-63" transform="translate(387 0)"/>
      <use xlink:href="#DejaVuSans-65" transform="translate(441.980469 0)"/>
      <use xlink:href="#DejaVuSans-20" transform="translate(503.503906 0)"/>
      <use xlink:href="#DejaVuSans-67" transform="translate(535.291016 0)"/>
      <use xlink:href="#DejaVuSans-72" transform="translate(598.767578 0)"/>
      <use xlink:href="#DejaVuSans-6f" transform="translate(637.630859 0)"/>
      <use xlink:href="#DejaVuSans-75" transform="translate(698.8125 0)"/>
      <use xlink:href="#DejaVuSans-70" transform="translate(762.191406 0)"/>
     </g>
    </g>
    <g id="line2d_49">
     <defs>
      <path id="m0786868135" d="M -0 4.242641 
L 4.242641 0 
L 0 -4.242641 
L -4.242641 -0 
z
" style="stroke: #111827; stroke-linejoin: miter"/>
     </defs>
     <g>
      <use xlink:href="#m0786868135" x="532.512578" y="193.841469" style="fill: #111827; stroke: #111827; stroke-linejoin: miter"/>
     </g>
    </g>
    <g id="text_29">
     <!-- Patient -->
     <g transform="translate(552.312578 197.691469) scale(0.11 -0.11)">
      <use xlink:href="#DejaVuSans-50"/>
      <use xlink:href="#DejaVuSans-61" transform="translate(55.802734 0)"/>
      <use xlink:href="#DejaVuSans-74" transform="translate(117.082031 0)"/>
      <use xlink:href="#DejaVuSans-69" transform="translate(156.291016 0)"/>
      <use xlink:href="#DejaVuSans-65" transform="translate(184.074219 0)"/>
      <use xlink:href="#DejaVuSans-6e" transform="translate(245.597656 0)"/>
      <use xlink:href="#DejaVuSans-74" transform="translate(308.976562 0)"/>
     </g>
    </g>
   </g>
  </g>
  <g id="text_30">
   <!-- Depressive disorder (MDD/DD) (male) -->
   <g transform="translate(206.00625 17.837812) scale(0.14 -0.14)">
    <defs>
     <path id="DejaVuSans-28" d="M 1984 4856 
Q 1566 4138 1362 3434 
Q 1159 2731 1159 2009 
Q 1159 1288 1364 580 
Q 1569 -128 1984 -844 
L 1484 -844 
Q 1016 -109 783 600 
Q 550 1309 550 2009 
Q 550 2706 781 3412 
Q 1013 4119 1484 4856 
L 1984 4856 
z
" transform="scale(0.015625)"/>
     <path id="DejaVuSans-4d" d="M 628 4666 
L 1569 4666 
L 2759 1491 
L 3956 4666 
L 4897 4666 
L 4897 0 
L 4281 0 
L 4281 4097 
L 3078 897 
L 2444 897 
L 1241 4097 
L 1241 0 
L 628 0 
L 628 4666 
z
" transform="scale(0.015625)"/>
     <path id="DejaVuSans-29" d="M 513 4856 
L 1013 4856 
Q 1481 4119 1714 3412 
Q 1947 2706 1947 2009 
Q 1947 1309 1714 600 
Q 1481 -109 1013 -844 
L 513 -844 
Q 928 -128 1133 580 
Q 1338 1288 1338 2009 
Q 1338 2731 1133 3434 
Q 928 4138 513 4856 
z
" transform="scale(0.015625)"/>
    </defs>
    <use xlink:href="#DejaVuSans-44"/>
    <use xlink:href="#DejaVuSans-65" transform="translate(77.001953 0)"/>
    <use xlink:href="#DejaVuSans-70" transform="translate(138.525391 0)"/>
    <use xlink:href="#DejaVuSans-72" transform="translate(202.001953 0)"/>
    <use xlink:href="#DejaVuSans-65" transform="translate(240.865234 0)"/>
    <use xlink:href="#DejaVuSans-73" transform="translate(302.388672 0)"/>
    <use xlink:href="#DejaVuSans-73" transform="translate(354.488281 0)"/>
    <use xlink:href="#DejaVuSans-69" transform="translate(406.587891 0)"/>
    <use xlink:href="#DejaVuSans-76" transform="translate(434.371094 0)"/>
    <use xlink:href="#DejaVuSans-65" transform="translate(493.550781 0)"/>
    <use xlink:href="#DejaVuSans-20" transform="translate(555.074219 0)"/>
    <use xlink:href="#DejaVuSans-64" transform="translate(586.861328 0)"/>
    <use xlink:href="#DejaVuSans-69" transform="translate(650.337891 0)"/>
    <use xlink:href="#DejaVuSans-73" transform="translate(678.121094 0)"/>
    <use xlink:href="#DejaVuSans-6f" transform="translate(730.220703 0)"/>
    <use xlink:href="#DejaVuSans-72" transform="translate(791.402344 0)"/>
    <use xlink:href="#DejaVuSans-64" transform="translate(830.765625 0)"/>
    <use xlink:href="#DejaVuSans-65" transform="translate(894.242188 0)"/>
    <use xlink:href="#DejaVuSans-72" transform="translate(955.765625 0)"/>
    <use xlink:href="#DejaVuSans-20" transform="translate(996.878906 0)"/>
    <use xlink:href="#DejaVuSans-28" transform="translate(1028.666016 0)"/>
    <use xlink:href="#DejaVuSans-4d" transform="translate(1067.679688 0)"/>
    <use xlink:href="#DejaVuSans-44" transform="translate(1153.958984 0)"/>
    <use xlink:href="#DejaVuSans-44" transform="translate(1230.960938 0)"/>
    <use xlink:href="#DejaVuSans-2f" transform="translate(1307.962891 0)"/>
    <use xlink:href="#DejaVuSans-44" transform="translate(1341.654297 0)"/>
    <use xlink:href="#DejaVuSans-44" transform="translate(1418.65625 0)"/>
    <use xlink:href="#DejaVuSans-29" transform="translate(1495.658203 0)"/>
    <use xlink:href="#DejaVuSans-20" transform="translate(1534.671875 0)"/>
    <use xlink:href="#DejaVuSans-28" transform="translate(1566.458984 0)"/>
    <use xlink:href="#DejaVuSans-6d" transform="translate(1605.472656 0)"/>
    <use xlink:href="#DejaVuSans-61" transform="translate(1702.884766 0)"/>
    <use xlink:href="#DejaVuSans-6c" transform="translate(1764.164062 0)"/>
    <use xlink:href="#DejaVuSans-65" transform="translate(1791.947266 0)"/>
    <use xlink:href="#DejaVuSans-29" transform="translate(1853.470703 0)"/>
   </g>
  </g>
 </g>
 <defs>
  <clipPath id="pab4c8feb0d">
   <rect x="43.81125" y="34.56" width="174.71" height="304.046376"/>
  </clipPath>
  <clipPath id="p005f7b2db9">
   <rect x="269.39125" y="34.56" width="174.71" height="304.046376"/>
  </clipPath>
  <clipPath id="p232d869efb">
   <rect x="494.97125" y="34.56" width="174.71" height="304.046376"/>
  </clipPath>
 </defs>
</svg>
