<?xml version="1.0" encoding="utf-8" standalone="no"?>
<!DOCTYPE svg PUBLIC "-//W3C//DTD SVG 1.1//EN"
  "http://www.w3.org/Graphics/SVG/1.1/DTD/svg11.dtd">
<svg xmlns:xlink="http://www.w3.org/1999/xlink" width="676.88125pt" height="391.52407pt" viewBox="0 0 676.88125 391.52407" xmlns="http://www.w3.org/2000/svg" version="1.1">
 <metadata>
  <rdf:RDF xmlns:dc="http://purl.org/dc/elements/1.1/" xmlns:cc="http://creativecommons.org/ns#" xmlns:rdf="http://www.w3.org/1999/02/22-rdf-syntax-ns#">
   <cc:Work>
    <dc:type rdf:resource="http://purl.org/dc/dcmitype/StillImage"/>
    <dc:date>2026-06-14T19:04:42.550565</dc:date>
    <dc:format>image/svg+xml</dc:format>
    <dc:creator>
     <cc:Agent>
      <dc:title>Matplotlib v3.10.1, https://matplotlib.org/</dc:title>
     </cc:Agent>
    </dc:creator>
   </cc:Work>
  </rdf:RDF>
 </metadata>
 <defs>
  <style type="text/css">*{stroke-linejoin: round; stroke-linecap: butt}</style>
 </defs>
 <g id="figure_1">
  <g id="patch_1">
   <path d="M 0 391.52407 
L 676.88125 391.52407 
L 676.88125 0 
L 0 0 
z
" style="fill: #ffffff"/>
  </g>
  <g id="axes_1">
   <g id="patch_2">
    <path d="M 43.81125 338.606376 
L 218.52125 338.606376 
L 218.52125 34.56 
L 43.81125 34.56 
z
" style="fill: #ffffff"/>
   </g>
   <g id="matplotlib.axis_1">
    <g id="xtick_1">
     <g id="line2d_1">
      <path d="M 131.16625 338.606376 
L 131.16625 34.56 
" clip-path="url(#p81c9d23607)" style="fill: none; stroke: #b0b0b0; stroke-opacity: 0.2; stroke-width: 0.6; stroke-linecap: square"/>
     </g>
     <g id="line2d_2">
      <defs>
       <path id="m676a3962da" d="M 0 0 
L 0 3.5 
" style="stroke: #000000; stroke-width: 0.8"/>
      </defs>
      <g>
       <use xlink:href="#m676a3962da" x="131.16625" y="338.606376" style="stroke: #000000; stroke-width: 0.8"/>
      </g>
     </g>
     <g id="text_1">
      <!-- Pitch variability -->
      <g transform="translate(48.650671 375.631189) rotate(-15) scale(0.11 -0.11)">
       <defs>
        <path id="DejaVuSans-50" d="M 1259 4147 
L 1259 2394 
L 2053 2394 
Q 2494 2394 2734 2622 
Q 2975 2850 2975 3272 
Q 2975 3691 2734 3919 
Q 2494 4147 2053 4147 
L 1259 4147 
z
M 628 4666 
L 2053 4666 
Q 2838 4666 3239 4311 
Q 3641 3956 3641 3272 
Q 3641 2581 3239 2228 
Q 2838 1875 2053 1875 
L 1259 1875 
L 1259 0 
L 628 0 
L 628 4666 
z
" transform="scale(0.015625)"/>
        <path id="DejaVuSans-69" d="M 603 3500 
L 1178 3500 
L 1178 0 
L 603 0 
L 603 3500 
z
M 603 4863 
L 1178 4863 
L 1178 4134 
L 603 4134 
L 603 4863 
z
" transform="scale(0.015625)"/>
        <path id="DejaVuSans-74" d="M 1172 4494 
L 1172 3500 
L 2356 3500 
L 2356 3053 
L 1172 3053 
L 1172 1153 
Q 1172 725 1289 603 
Q 1406 481 1766 481 
L 2356 481 
L 2356 0 
L 1766 0 
Q 1100 0 847 248 
Q 594 497 594 1153 
L 594 3053 
L 172 3053 
L 172 3500 
L 594 3500 
L 594 4494 
L 1172 4494 
z
" transform="scale(0.015625)"/>
        <path id="DejaVuSans-63" d="M 3122 3366 
L 3122 2828 
Q 2878 2963 2633 3030 
Q 2388 3097 2138 3097 
Q 1578 3097 1268 2742 
Q 959 2388 959 1747 
Q 959 1106 1268 751 
Q 1578 397 2138 397 
Q 2388 397 2633 464 
Q 2878 531 3122 666 
L 3122 134 
Q 2881 22 2623 -34 
Q 2366 -91 2075 -91 
Q 1284 -91 818 406 
Q 353 903 353 1747 
Q 353 2603 823 3093 
Q 1294 3584 2113 3584 
Q 2378 3584 2631 3529 
Q 2884 3475 3122 3366 
z
" transform="scale(0.015625)"/>
        <path id="DejaVuSans-68" d="M 3513 2113 
L 3513 0 
L 2938 0 
L 2938 2094 
Q 2938 2591 2744 2837 
Q 2550 3084 2163 3084 
Q 1697 3084 1428 2787 
Q 1159 2491 1159 1978 
L 1159 0 
L 581 0 
L 581 4863 
L 1159 4863 
L 1159 2956 
Q 1366 3272 1645 3428 
Q 1925 3584 2291 3584 
Q 2894 3584 3203 3211 
Q 3513 2838 3513 2113 
z
" transform="scale(0.015625)"/>
        <path id="DejaVuSans-20" transform="scale(0.015625)"/>
        <path id="DejaVuSans-76" d="M 191 3500 
L 800 3500 
L 1894 563 
L 2988 3500 
L 3597 3500 
L 2284 0 
L 1503 0 
L 191 3500 
z
" transform="scale(0.015625)"/>
        <path id="DejaVuSans-61" d="M 2194 1759 
Q 1497 1759 1228 1600 
Q 959 1441 959 1056 
Q 959 750 1161 570 
Q 1363 391 1709 391 
Q 2188 391 2477 730 
Q 2766 1069 2766 1631 
L 2766 1759 
L 2194 1759 
z
M 3341 1997 
L 3341 0 
L 2766 0 
L 2766 531 
Q 2569 213 2275 61 
Q 1981 -91 1556 -91 
Q 1019 -91 701 211 
Q 384 513 384 1019 
Q 384 1609 779 1909 
Q 1175 2209 1959 2209 
L 2766 2209 
L 2766 2266 
Q 2766 2663 2505 2880 
Q 2244 3097 1772 3097 
Q 1472 3097 1187 3025 
Q 903 2953 641 2809 
L 641 3341 
Q 956 3463 1253 3523 
Q 1550 3584 1831 3584 
Q 2591 3584 2966 3190 
Q 3341 2797 3341 1997 
z
" transform="scale(0.015625)"/>
        <path id="DejaVuSans-72" d="M 2631 2963 
Q 2534 3019 2420 3045 
Q 2306 3072 2169 3072 
Q 1681 3072 1420 2755 
Q 1159 2438 1159 1844 
L 1159 0 
L 581 0 
L 581 3500 
L 1159 3500 
L 1159 2956 
Q 1341 3275 1631 3429 
Q 1922 3584 2338 3584 
Q 2397 3584 2469 3576 
Q 2541 3569 2628 3553 
L 2631 2963 
z
" transform="scale(0.015625)"/>
        <path id="DejaVuSans-62" d="M 3116 1747 
Q 3116 2381 2855 2742 
Q 2594 3103 2138 3103 
Q 1681 3103 1420 2742 
Q 1159 2381 1159 1747 
Q 1159 1113 1420 752 
Q 1681 391 2138 391 
Q 2594 391 2855 752 
Q 3116 1113 3116 1747 
z
M 1159 2969 
Q 1341 3281 1617 3432 
Q 1894 3584 2278 3584 
Q 2916 3584 3314 3078 
Q 3713 2572 3713 1747 
Q 3713 922 3314 415 
Q 2916 -91 2278 -91 
Q 1894 -91 1617 61 
Q 1341 213 1159 525 
L 1159 0 
L 581 0 
L 581 4863 
L 1159 4863 
L 1159 2969 
z
" transform="scale(0.015625)"/>
        <path id="DejaVuSans-6c" d="M 603 4863 
L 1178 4863 
L 1178 0 
L 603 0 
L 603 4863 
z
" transform="scale(0.015625)"/>
        <path id="DejaVuSans-79" d="M 2059 -325 
Q 1816 -950 1584 -1140 
Q 1353 -1331 966 -1331 
L 506 -1331 
L 506 -850 
L 844 -850 
Q 1081 -850 1212 -737 
Q 1344 -625 1503 -206 
L 1606 56 
L 191 3500 
L 800 3500 
L 1894 763 
L 2988 3500 
L 3597 3500 
L 2059 -325 
z
" transform="scale(0.015625)"/>
       </defs>
       <use xlink:href="#DejaVuSans-50"/>
       <use xlink:href="#DejaVuSans-69" transform="translate(58.052734 0)"/>
       <use xlink:href="#DejaVuSans-74" transform="translate(85.835938 0)"/>
       <use xlink:href="#DejaVuSans-63" transform="translate(125.044922 0)"/>
       <use xlink:href="#DejaVuSans-68" transform="translate(180.025391 0)"/>
       <use xlink:href="#DejaVuSans-20" transform="translate(243.404297 0)"/>
       <use xlink:href="#DejaVuSans-76" transform="translate(275.191406 0)"/>
       <use xlink:href="#DejaVuSans-61" transform="translate(334.371094 0)"/>
       <use xlink:href="#DejaVuSans-72" transform="translate(395.650391 0)"/>
       <use xlink:href="#DejaVuSans-69" transform="translate(436.763672 0)"/>
       <use xlink:href="#DejaVuSans-61" transform="translate(464.546875 0)"/>
       <use xlink:href="#DejaVuSans-62" transform="translate(525.826172 0)"/>
       <use xlink:href="#DejaVuSans-69" transform="translate(589.302734 0)"/>
       <use xlink:href="#DejaVuSans-6c" transform="translate(617.085938 0)"/>
       <use xlink:href="#DejaVuSans-69" transform="translate(644.869141 0)"/>
       <use xlink:href="#DejaVuSans-74" transform="translate(672.652344 0)"/>
       <use xlink:href="#DejaVuSans-79" transform="translate(711.861328 0)"/>
      </g>
     </g>
    </g>
   </g>
   <g id="matplotlib.axis_2">
    <g id="ytick_1">
     <g id="line2d_3">
      <path d="M 43.81125 296.395647 
L 218.52125 296.395647 
" clip-path="url(#p81c9d23607)" style="fill: none; stroke: #b0b0b0; stroke-opacity: 0.2; stroke-width: 0.6; stroke-linecap: square"/>
     </g>
     <g id="line2d_4">
      <defs>
       <path id="m1c126d5b9f" d="M 0 0 
L -3.5 0 
" style="stroke: #000000; stroke-width: 0.8"/>
      </defs>
      <g>
       <use xlink:href="#m1c126d5b9f" x="43.81125" y="296.395647" style="stroke: #000000; stroke-width: 0.8"/>
      </g>
     </g>
     <g id="text_2">
      <!-- 4 -->
      <g transform="translate(29.8125 300.574787) scale(0.11 -0.11)">
       <defs>
        <path id="DejaVuSans-34" d="M 2419 4116 
L 825 1625 
L 2419 1625 
L 2419 4116 
z
M 2253 4666 
L 3047 4666 
L 3047 1625 
L 3713 1625 
L 3713 1100 
L 3047 1100 
L 3047 0 
L 2419 0 
L 2419 1100 
L 313 1100 
L 313 1709 
L 2253 4666 
z
" transform="scale(0.015625)"/>
       </defs>
       <use xlink:href="#DejaVuSans-34"/>
      </g>
     </g>
    </g>
    <g id="ytick_2">
     <g id="line2d_5">
      <path d="M 43.81125 243.430852 
L 218.52125 243.430852 
" clip-path="url(#p81c9d23607)" style="fill: none; stroke: #b0b0b0; stroke-opacity: 0.2; stroke-width: 0.6; stroke-linecap: square"/>
     </g>
     <g id="line2d_6">
      <g>
       <use xlink:href="#m1c126d5b9f" x="43.81125" y="243.430852" style="stroke: #000000; stroke-width: 0.8"/>
      </g>
     </g>
     <g id="text_3">
      <!-- 6 -->
      <g transform="translate(29.8125 247.609993) scale(0.11 -0.11)">
       <defs>
        <path id="DejaVuSans-36" d="M 2113 2584 
Q 1688 2584 1439 2293 
Q 1191 2003 1191 1497 
Q 1191 994 1439 701 
Q 1688 409 2113 409 
Q 2538 409 2786 701 
Q 3034 994 3034 1497 
Q 3034 2003 2786 2293 
Q 2538 2584 2113 2584 
z
M 3366 4563 
L 3366 3988 
Q 3128 4100 2886 4159 
Q 2644 4219 2406 4219 
Q 1781 4219 1451 3797 
Q 1122 3375 1075 2522 
Q 1259 2794 1537 2939 
Q 1816 3084 2150 3084 
Q 2853 3084 3261 2657 
Q 3669 2231 3669 1497 
Q 3669 778 3244 343 
Q 2819 -91 2113 -91 
Q 1303 -91 875 529 
Q 447 1150 447 2328 
Q 447 3434 972 4092 
Q 1497 4750 2381 4750 
Q 2619 4750 2861 4703 
Q 3103 4656 3366 4563 
z
" transform="scale(0.015625)"/>
       </defs>
       <use xlink:href="#DejaVuSans-36"/>
      </g>
     </g>
    </g>
    <g id="ytick_3">
     <g id="line2d_7">
      <path d="M 43.81125 190.466057 
L 218.52125 190.466057 
" clip-path="url(#p81c9d23607)" style="fill: none; stroke: #b0b0b0; stroke-opacity: 0.2; stroke-width: 0.6; stroke-linecap: square"/>
     </g>
     <g id="line2d_8">
      <g>
       <use xlink:href="#m1c126d5b9f" x="43.81125" y="190.466057" style="stroke: #000000; stroke-width: 0.8"/>
      </g>
     </g>
     <g id="text_4">
      <!-- 8 -->
      <g transform="translate(29.8125 194.645198) scale(0.11 -0.11)">
       <defs>
        <path id="DejaVuSans-38" d="M 2034 2216 
Q 1584 2216 1326 1975 
Q 1069 1734 1069 1313 
Q 1069 891 1326 650 
Q 1584 409 2034 409 
Q 2484 409 2743 651 
Q 3003 894 3003 1313 
Q 3003 1734 2745 1975 
Q 2488 2216 2034 2216 
z
M 1403 2484 
Q 997 2584 770 2862 
Q 544 3141 544 3541 
Q 544 4100 942 4425 
Q 1341 4750 2034 4750 
Q 2731 4750 3128 4425 
Q 3525 4100 3525 3541 
Q 3525 3141 3298 2862 
Q 3072 2584 2669 2484 
Q 3125 2378 3379 2068 
Q 3634 1759 3634 1313 
Q 3634 634 3220 271 
Q 2806 -91 2034 -91 
Q 1263 -91 848 271 
Q 434 634 434 1313 
Q 434 1759 690 2068 
Q 947 2378 1403 2484 
z
M 1172 3481 
Q 1172 3119 1398 2916 
Q 1625 2713 2034 2713 
Q 2441 2713 2670 2916 
Q 2900 3119 2900 3481 
Q 2900 3844 2670 4047 
Q 2441 4250 2034 4250 
Q 1625 4250 1398 4047 
Q 1172 3844 1172 3481 
z
" transform="scale(0.015625)"/>
       </defs>
       <use xlink:href="#DejaVuSans-38"/>
      </g>
     </g>
    </g>
    <g id="ytick_4">
     <g id="line2d_9">
      <path d="M 43.81125 137.501263 
L 218.52125 137.501263 
" clip-path="url(#p81c9d23607)" style="fill: none; stroke: #b0b0b0; stroke-opacity: 0.2; stroke-width: 0.6; stroke-linecap: square"/>
     </g>
     <g id="line2d_10">
      <g>
       <use xlink:href="#m1c126d5b9f" x="43.81125" y="137.501263" style="stroke: #000000; stroke-width: 0.8"/>
      </g>
     </g>
     <g id="text_5">
      <!-- 10 -->
      <g transform="translate(22.81375 141.680404) scale(0.11 -0.11)">
       <defs>
        <path id="DejaVuSans-31" d="M 794 531 
L 1825 531 
L 1825 4091 
L 703 3866 
L 703 4441 
L 1819 4666 
L 2450 4666 
L 2450 531 
L 3481 531 
L 3481 0 
L 794 0 
L 794 531 
z
" transform="scale(0.015625)"/>
        <path id="DejaVuSans-30" d="M 2034 4250 
Q 1547 4250 1301 3770 
Q 1056 3291 1056 2328 
Q 1056 1369 1301 889 
Q 1547 409 2034 409 
Q 2525 409 2770 889 
Q 3016 1369 3016 2328 
Q 3016 3291 2770 3770 
Q 2525 4250 2034 4250 
z
M 2034 4750 
Q 2819 4750 3233 4129 
Q 3647 3509 3647 2328 
Q 3647 1150 3233 529 
Q 2819 -91 2034 -91 
Q 1250 -91 836 529 
Q 422 1150 422 2328 
Q 422 3509 836 4129 
Q 1250 4750 2034 4750 
z
" transform="scale(0.015625)"/>
       </defs>
       <use xlink:href="#DejaVuSans-31"/>
       <use xlink:href="#DejaVuSans-30" transform="translate(63.623047 0)"/>
      </g>
     </g>
    </g>
    <g id="ytick_5">
     <g id="line2d_11">
      <path d="M 43.81125 84.536468 
L 218.52125 84.536468 
" clip-path="url(#p81c9d23607)" style="fill: none; stroke: #b0b0b0; stroke-opacity: 0.2; stroke-width: 0.6; stroke-linecap: square"/>
     </g>
     <g id="line2d_12">
      <g>
       <use xlink:href="#m1c126d5b9f" x="43.81125" y="84.536468" style="stroke: #000000; stroke-width: 0.8"/>
      </g>
     </g>
     <g id="text_6">
      <!-- 12 -->
      <g transform="translate(22.81375 88.715609) scale(0.11 -0.11)">
       <defs>
        <path id="DejaVuSans-32" d="M 1228 531 
L 3431 531 
L 3431 0 
L 469 0 
L 469 531 
Q 828 903 1448 1529 
Q 2069 2156 2228 2338 
Q 2531 2678 2651 2914 
Q 2772 3150 2772 3378 
Q 2772 3750 2511 3984 
Q 2250 4219 1831 4219 
Q 1534 4219 1204 4116 
Q 875 4013 500 3803 
L 500 4441 
Q 881 4594 1212 4672 
Q 1544 4750 1819 4750 
Q 2544 4750 2975 4387 
Q 3406 4025 3406 3419 
Q 3406 3131 3298 2873 
Q 3191 2616 2906 2266 
Q 2828 2175 2409 1742 
Q 1991 1309 1228 531 
z
" transform="scale(0.015625)"/>
       </defs>
       <use xlink:href="#DejaVuSans-31"/>
       <use xlink:href="#DejaVuSans-32" transform="translate(63.623047 0)"/>
      </g>
     </g>
    </g>
    <g id="text_7">
     <!-- semitones -->
     <g transform="translate(16.318125 217.555376) rotate(-90) scale(0.12 -0.12)">
      <defs>
       <path id="DejaVuSans-73" d="M 2834 3397 
L 2834 2853 
Q 2591 2978 2328 3040 
Q 2066 3103 1784 3103 
Q 1356 3103 1142 2972 
Q 928 2841 928 2578 
Q 928 2378 1081 2264 
Q 1234 2150 1697 2047 
L 1894 2003 
Q 2506 1872 2764 1633 
Q 3022 1394 3022 966 
Q 3022 478 2636 193 
Q 2250 -91 1575 -91 
Q 1294 -91 989 -36 
Q 684 19 347 128 
L 347 722 
Q 666 556 975 473 
Q 1284 391 1588 391 
Q 1994 391 2212 530 
Q 2431 669 2431 922 
Q 2431 1156 2273 1281 
Q 2116 1406 1581 1522 
L 1381 1569 
Q 847 1681 609 1914 
Q 372 2147 372 2553 
Q 372 3047 722 3315 
Q 1072 3584 1716 3584 
Q 2034 3584 2315 3537 
Q 2597 3491 2834 3397 
z
" transform="scale(0.015625)"/>
       <path id="DejaVuSans-65" d="M 3597 1894 
L 3597 1613 
L 953 1613 
Q 991 1019 1311 708 
Q 1631 397 2203 397 
Q 2534 397 2845 478 
Q 3156 559 3463 722 
L 3463 178 
Q 3153 47 2828 -22 
Q 2503 -91 2169 -91 
Q 1331 -91 842 396 
Q 353 884 353 1716 
Q 353 2575 817 3079 
Q 1281 3584 2069 3584 
Q 2775 3584 3186 3129 
Q 3597 2675 3597 1894 
z
M 3022 2063 
Q 3016 2534 2758 2815 
Q 2500 3097 2075 3097 
Q 1594 3097 1305 2825 
Q 1016 2553 972 2059 
L 3022 2063 
z
" transform="scale(0.015625)"/>
       <path id="DejaVuSans-6d" d="M 3328 2828 
Q 3544 3216 3844 3400 
Q 4144 3584 4550 3584 
Q 5097 3584 5394 3201 
Q 5691 2819 5691 2113 
L 5691 0 
L 5113 0 
L 5113 2094 
Q 5113 2597 4934 2840 
Q 4756 3084 4391 3084 
Q 3944 3084 3684 2787 
Q 3425 2491 3425 1978 
L 3425 0 
L 2847 0 
L 2847 2094 
Q 2847 2600 2669 2842 
Q 2491 3084 2119 3084 
Q 1678 3084 1418 2786 
Q 1159 2488 1159 1978 
L 1159 0 
L 581 0 
L 581 3500 
L 1159 3500 
L 1159 2956 
Q 1356 3278 1631 3431 
Q 1906 3584 2284 3584 
Q 2666 3584 2933 3390 
Q 3200 3197 3328 2828 
z
" transform="scale(0.015625)"/>
       <path id="DejaVuSans-6f" d="M 1959 3097 
Q 1497 3097 1228 2736 
Q 959 2375 959 1747 
Q 959 1119 1226 758 
Q 1494 397 1959 397 
Q 2419 397 2687 759 
Q 2956 1122 2956 1747 
Q 2956 2369 2687 2733 
Q 2419 3097 1959 3097 
z
M 1959 3584 
Q 2709 3584 3137 3096 
Q 3566 2609 3566 1747 
Q 3566 888 3137 398 
Q 2709 -91 1959 -91 
Q 1206 -91 779 398 
Q 353 888 353 1747 
Q 353 2609 779 3096 
Q 1206 3584 1959 3584 
z
" transform="scale(0.015625)"/>
       <path id="DejaVuSans-6e" d="M 3513 2113 
L 3513 0 
L 2938 0 
L 2938 2094 
Q 2938 2591 2744 2837 
Q 2550 3084 2163 3084 
Q 1697 3084 1428 2787 
Q 1159 2491 1159 1978 
L 1159 0 
L 581 0 
L 581 3500 
L 1159 3500 
L 1159 2956 
Q 1366 3272 1645 3428 
Q 1925 3584 2291 3584 
Q 2894 3584 3203 3211 
Q 3513 2838 3513 2113 
z
" transform="scale(0.015625)"/>
      </defs>
      <use xlink:href="#DejaVuSans-73"/>
      <use xlink:href="#DejaVuSans-65" transform="translate(52.099609 0)"/>
      <use xlink:href="#DejaVuSans-6d" transform="translate(113.623047 0)"/>
      <use xlink:href="#DejaVuSans-69" transform="translate(211.035156 0)"/>
      <use xlink:href="#DejaVuSans-74" transform="translate(238.818359 0)"/>
      <use xlink:href="#DejaVuSans-6f" transform="translate(278.027344 0)"/>
      <use xlink:href="#DejaVuSans-6e" transform="translate(339.208984 0)"/>
      <use xlink:href="#DejaVuSans-65" transform="translate(402.587891 0)"/>
      <use xlink:href="#DejaVuSans-73" transform="translate(464.111328 0)"/>
     </g>
    </g>
   </g>
   <g id="FillBetweenPolyCollection_1">
    <defs>
     <path id="m9760e8b972" d="M 182.981691 -66.737983 
L 79.350809 -66.737983 
L 77.082345 -69.529961 
L 74.876788 -72.321939 
L 72.74485 -75.113916 
L 70.696256 -77.905894 
L 68.739622 -80.697872 
L 66.882342 -83.48985 
L 65.130517 -86.281827 
L 63.488911 -89.073805 
L 61.960933 -91.865783 
L 60.548666 -94.657761 
L 59.252908 -97.449738 
L 58.073257 -100.241716 
L 57.008214 -103.033694 
L 56.055308 -105.825672 
L 55.211238 -108.617649 
L 54.472031 -111.409627 
L 53.833204 -114.201605 
L 53.289924 -116.993583 
L 52.837175 -119.78556 
L 52.469906 -122.577538 
L 52.18317 -125.369516 
L 51.972249 -128.161493 
L 51.832756 -130.953471 
L 51.760714 -133.745449 
L 51.752614 -136.537427 
L 51.805446 -139.329404 
L 51.916712 -142.121382 
L 52.084403 -144.91336 
L 52.306973 -147.705338 
L 52.583279 -150.497315 
L 52.912515 -153.289293 
L 53.294132 -156.081271 
L 53.727747 -158.873249 
L 54.213056 -161.665226 
L 54.749739 -164.457204 
L 55.337374 -167.249182 
L 55.975355 -170.04116 
L 56.662827 -172.833137 
L 57.398619 -175.625115 
L 58.181212 -178.417093 
L 59.008702 -181.209071 
L 59.878795 -184.001048 
L 60.788807 -186.793026 
L 61.735686 -189.585004 
L 62.716046 -192.376982 
L 63.726207 -195.168959 
L 64.762255 -197.960937 
L 65.820099 -200.752915 
L 66.895544 -203.544893 
L 67.984352 -206.33687 
L 69.082314 -209.128848 
L 70.185315 -211.920826 
L 71.289394 -214.712804 
L 72.390793 -217.504781 
L 73.486008 -220.296759 
L 74.571822 -223.088737 
L 75.645331 -225.880714 
L 76.703961 -228.672692 
L 77.745477 -231.46467 
L 78.767984 -234.256648 
L 79.769913 -237.048625 
L 80.750016 -239.840603 
L 81.707341 -242.632581 
L 82.641214 -245.424559 
L 83.551216 -248.216536 
L 84.43716 -251.008514 
L 85.299071 -253.800492 
L 86.137164 -256.59247 
L 86.951831 -259.384447 
L 87.74363 -262.176425 
L 88.513272 -264.968403 
L 89.26162 -267.760381 
L 89.98969 -270.552358 
L 90.698646 -273.344336 
L 91.389809 -276.136314 
L 92.064662 -278.928292 
L 92.724847 -281.720269 
L 93.372176 -284.512247 
L 94.008622 -287.304225 
L 94.636323 -290.096203 
L 95.257565 -292.88818 
L 95.874774 -295.680158 
L 96.490488 -298.472136 
L 97.107336 -301.264114 
L 97.728 -304.056091 
L 98.355177 -306.848069 
L 98.991533 -309.640047 
L 99.639654 -312.432025 
L 100.301994 -315.224002 
L 100.980817 -318.01598 
L 101.67815 -320.807958 
L 102.395722 -323.599936 
L 103.134919 -326.391913 
L 103.896738 -329.183891 
L 104.681751 -331.975869 
L 105.490072 -334.767846 
L 106.321338 -337.559824 
L 107.174701 -340.351802 
L 108.048824 -343.14378 
L 154.283676 -343.14378 
L 154.283676 -343.14378 
L 155.157799 -340.351802 
L 156.011162 -337.559824 
L 156.842428 -334.767846 
L 157.650749 -331.975869 
L 158.435762 -329.183891 
L 159.197581 -326.391913 
L 159.936778 -323.599936 
L 160.65435 -320.807958 
L 161.351683 -318.01598 
L 162.030506 -315.224002 
L 162.692846 -312.432025 
L 163.340967 -309.640047 
L 163.977323 -306.848069 
L 164.6045 -304.056091 
L 165.225164 -301.264114 
L 165.842012 -298.472136 
L 166.457726 -295.680158 
L 167.074935 -292.88818 
L 167.696177 -290.096203 
L 168.323878 -287.304225 
L 168.960324 -284.512247 
L 169.607653 -281.720269 
L 170.267838 -278.928292 
L 170.942691 -276.136314 
L 171.633854 -273.344336 
L 172.34281 -270.552358 
L 173.07088 -267.760381 
L 173.819228 -264.968403 
L 174.58887 -262.176425 
L 175.380669 -259.384447 
L 176.195336 -256.59247 
L 177.033429 -253.800492 
L 177.89534 -251.008514 
L 178.781284 -248.216536 
L 179.691286 -245.424559 
L 180.625159 -242.632581 
L 181.582484 -239.840603 
L 182.562587 -237.048625 
L 183.564516 -234.256648 
L 184.587023 -231.46467 
L 185.628539 -228.672692 
L 186.687169 -225.880714 
L 187.760678 -223.088737 
L 188.846492 -220.296759 
L 189.941707 -217.504781 
L 191.043106 -214.712804 
L 192.147185 -211.920826 
L 193.250186 -209.128848 
L 194.348148 -206.33687 
L 195.436956 -203.544893 
L 196.512401 -200.752915 
L 197.570245 -197.960937 
L 198.606293 -195.168959 
L 199.616454 -192.376982 
L 200.596814 -189.585004 
L 201.543693 -186.793026 
L 202.453705 -184.001048 
L 203.323798 -181.209071 
L 204.151288 -178.417093 
L 204.933881 -175.625115 
L 205.669673 -172.833137 
L 206.357145 -170.04116 
L 206.995126 -167.249182 
L 207.582761 -164.457204 
L 208.119444 -161.665226 
L 208.604753 -158.873249 
L 209.038368 -156.081271 
L 209.419985 -153.289293 
L 209.749221 -150.497315 
L 210.025527 -147.705338 
L 210.248097 -144.91336 
L 210.415788 -142.121382 
L 210.527054 -139.329404 
L 210.579886 -136.537427 
L 210.571786 -133.745449 
L 210.499744 -130.953471 
L 210.360251 -128.161493 
L 210.14933 -125.369516 
L 209.862594 -122.577538 
L 209.495325 -119.78556 
L 209.042576 -116.993583 
L 208.499296 -114.201605 
L 207.860469 -111.409627 
L 207.121262 -108.617649 
L 206.277192 -105.825672 
L 205.324286 -103.033694 
L 204.259243 -100.241716 
L 203.079592 -97.449738 
L 201.783834 -94.657761 
L 200.371567 -91.865783 
L 198.843589 -89.073805 
L 197.201983 -86.281827 
L 195.450158 -83.48985 
L 193.592878 -80.697872 
L 191.636244 -77.905894 
L 189.58765 -75.113916 
L 187.455712 -72.321939 
L 185.250155 -69.529961 
L 182.981691 -66.737983 
z
" style="stroke: #7c3aed; stroke-opacity: 0.35"/>
    </defs>
    <g clip-path="url(#p81c9d23607)">
     <use xlink:href="#m9760e8b972" x="0" y="391.52407" style="fill: #7c3aed; fill-opacity: 0.35; stroke: #7c3aed; stroke-opacity: 0.35"/>
    </g>
   </g>
   <g id="LineCollection_1">
    <path d="M 91.459432 222.939363 
L 170.873068 222.939363 
" clip-path="url(#p81c9d23607)" style="fill: none; stroke: #7c3aed; stroke-width: 1.5"/>
   </g>
   <g id="patch_3">
    <path d="M 43.81125 338.606376 
L 43.81125 34.56 
" style="fill: none; stroke: #000000; stroke-width: 0.8; stroke-linejoin: miter; stroke-linecap: square"/>
   </g>
   <g id="patch_4">
    <path d="M 218.52125 338.606376 
L 218.52125 34.56 
" style="fill: none; stroke: #000000; stroke-width: 0.8; stroke-linejoin: miter; stroke-linecap: square"/>
   </g>
   <g id="patch_5">
    <path d="M 43.81125 338.606376 
L 218.52125 338.606376 
" style="fill: none; stroke: #000000; stroke-width: 0.8; stroke-linejoin: miter; stroke-linecap: square"/>
   </g>
   <g id="patch_6">
    <path d="M 43.81125 34.56 
L 218.52125 34.56 
" style="fill: none; stroke: #000000; stroke-width: 0.8; stroke-linejoin: miter; stroke-linecap: square"/>
   </g>
  </g>
  <g id="axes_2">
   <g id="patch_7">
    <path d="M 269.39125 338.606376 
L 444.10125 338.606376 
L 444.10125 34.56 
L 269.39125 34.56 
z
" style="fill: #ffffff"/>
   </g>
   <g id="matplotlib.axis_3">
    <g id="xtick_2">
     <g id="line2d_13">
      <path d="M 356.74625 338.606376 
L 356.74625 34.56 
" clip-path="url(#p25734ea3c0)" style="fill: none; stroke: #b0b0b0; stroke-opacity: 0.2; stroke-width: 0.6; stroke-linecap: square"/>
     </g>
     <g id="line2d_14">
      <g>
       <use xlink:href="#m676a3962da" x="356.74625" y="338.606376" style="stroke: #000000; stroke-width: 0.8"/>
      </g>
     </g>
     <g id="text_8">
      <!-- Loudness variability -->
      <g transform="translate(250.035135 382.114363) rotate(-15) scale(0.11 -0.11)">
       <defs>
        <path id="DejaVuSans-4c" d="M 628 4666 
L 1259 4666 
L 1259 531 
L 3531 531 
L 3531 0 
L 628 0 
L 628 4666 
z
" transform="scale(0.015625)"/>
        <path id="DejaVuSans-75" d="M 544 1381 
L 544 3500 
L 1119 3500 
L 1119 1403 
Q 1119 906 1312 657 
Q 1506 409 1894 409 
Q 2359 409 2629 706 
Q 2900 1003 2900 1516 
L 2900 3500 
L 3475 3500 
L 3475 0 
L 2900 0 
L 2900 538 
Q 2691 219 2414 64 
Q 2138 -91 1772 -91 
Q 1169 -91 856 284 
Q 544 659 544 1381 
z
M 1991 3584 
L 1991 3584 
z
" transform="scale(0.015625)"/>
        <path id="DejaVuSans-64" d="M 2906 2969 
L 2906 4863 
L 3481 4863 
L 3481 0 
L 2906 0 
L 2906 525 
Q 2725 213 2448 61 
Q 2172 -91 1784 -91 
Q 1150 -91 751 415 
Q 353 922 353 1747 
Q 353 2572 751 3078 
Q 1150 3584 1784 3584 
Q 2172 3584 2448 3432 
Q 2725 3281 2906 2969 
z
M 947 1747 
Q 947 1113 1208 752 
Q 1469 391 1925 391 
Q 2381 391 2643 752 
Q 2906 1113 2906 1747 
Q 2906 2381 2643 2742 
Q 2381 3103 1925 3103 
Q 1469 3103 1208 2742 
Q 947 2381 947 1747 
z
" transform="scale(0.015625)"/>
       </defs>
       <use xlink:href="#DejaVuSans-4c"/>
       <use xlink:href="#DejaVuSans-6f" transform="translate(53.962891 0)"/>
       <use xlink:href="#DejaVuSans-75" transform="translate(115.144531 0)"/>
       <use xlink:href="#DejaVuSans-64" transform="translate(178.523438 0)"/>
       <use xlink:href="#DejaVuSans-6e" transform="translate(242 0)"/>
       <use xlink:href="#DejaVuSans-65" transform="translate(305.378906 0)"/>
       <use xlink:href="#DejaVuSans-73" transform="translate(366.902344 0)"/>
       <use xlink:href="#DejaVuSans-73" transform="translate(419.001953 0)"/>
       <use xlink:href="#DejaVuSans-20" transform="translate(471.101562 0)"/>
       <use xlink:href="#DejaVuSans-76" transform="translate(502.888672 0)"/>
       <use xlink:href="#DejaVuSans-61" transform="translate(562.068359 0)"/>
       <use xlink:href="#DejaVuSans-72" transform="translate(623.347656 0)"/>
       <use xlink:href="#DejaVuSans-69" transform="translate(664.460938 0)"/>
       <use xlink:href="#DejaVuSans-61" transform="translate(692.244141 0)"/>
       <use xlink:href="#DejaVuSans-62" transform="translate(753.523438 0)"/>
       <use xlink:href="#DejaVuSans-69" transform="translate(817 0)"/>
       <use xlink:href="#DejaVuSans-6c" transform="translate(844.783203 0)"/>
       <use xlink:href="#DejaVuSans-69" transform="translate(872.566406 0)"/>
       <use xlink:href="#DejaVuSans-74" transform="translate(900.349609 0)"/>
       <use xlink:href="#DejaVuSans-79" transform="translate(939.558594 0)"/>
      </g>
     </g>
    </g>
   </g>
   <g id="matplotlib.axis_4">
    <g id="ytick_6">
     <g id="line2d_15">
      <path d="M 269.39125 310.96825 
L 444.10125 310.96825 
" clip-path="url(#p25734ea3c0)" style="fill: none; stroke: #b0b0b0; stroke-opacity: 0.2; stroke-width: 0.6; stroke-linecap: square"/>
     </g>
     <g id="line2d_16">
      <g>
       <use xlink:href="#m1c126d5b9f" x="269.39125" y="310.96825" style="stroke: #000000; stroke-width: 0.8"/>
      </g>
     </g>
     <g id="text_9">
      <!-- 0.8 -->
      <g transform="translate(244.897813 315.14739) scale(0.11 -0.11)">
       <defs>
        <path id="DejaVuSans-2e" d="M 684 794 
L 1344 794 
L 1344 0 
L 684 0 
L 684 794 
z
" transform="scale(0.015625)"/>
       </defs>
       <use xlink:href="#DejaVuSans-30"/>
       <use xlink:href="#DejaVuSans-2e" transform="translate(63.623047 0)"/>
       <use xlink:href="#DejaVuSans-38" transform="translate(95.410156 0)"/>
      </g>
     </g>
    </g>
    <g id="ytick_7">
     <g id="line2d_17">
      <path d="M 269.39125 273.987159 
L 444.10125 273.987159 
" clip-path="url(#p25734ea3c0)" style="fill: none; stroke: #b0b0b0; stroke-opacity: 0.2; stroke-width: 0.6; stroke-linecap: square"/>
     </g>
     <g id="line2d_18">
      <g>
       <use xlink:href="#m1c126d5b9f" x="269.39125" y="273.987159" style="stroke: #000000; stroke-width: 0.8"/>
      </g>
     </g>
     <g id="text_10">
      <!-- 0.9 -->
      <g transform="translate(244.897813 278.166299) scale(0.11 -0.11)">
       <defs>
        <path id="DejaVuSans-39" d="M 703 97 
L 703 672 
Q 941 559 1184 500 
Q 1428 441 1663 441 
Q 2288 441 2617 861 
Q 2947 1281 2994 2138 
Q 2813 1869 2534 1725 
Q 2256 1581 1919 1581 
Q 1219 1581 811 2004 
Q 403 2428 403 3163 
Q 403 3881 828 4315 
Q 1253 4750 1959 4750 
Q 2769 4750 3195 4129 
Q 3622 3509 3622 2328 
Q 3622 1225 3098 567 
Q 2575 -91 1691 -91 
Q 1453 -91 1209 -44 
Q 966 3 703 97 
z
M 1959 2075 
Q 2384 2075 2632 2365 
Q 2881 2656 2881 3163 
Q 2881 3666 2632 3958 
Q 2384 4250 1959 4250 
Q 1534 4250 1286 3958 
Q 1038 3666 1038 3163 
Q 1038 2656 1286 2365 
Q 1534 2075 1959 2075 
z
" transform="scale(0.015625)"/>
       </defs>
       <use xlink:href="#DejaVuSans-30"/>
       <use xlink:href="#DejaVuSans-2e" transform="translate(63.623047 0)"/>
       <use xlink:href="#DejaVuSans-39" transform="translate(95.410156 0)"/>
      </g>
     </g>
    </g>
    <g id="ytick_8">
     <g id="line2d_19">
      <path d="M 269.39125 237.006068 
L 444.10125 237.006068 
" clip-path="url(#p25734ea3c0)" style="fill: none; stroke: #b0b0b0; stroke-opacity: 0.2; stroke-width: 0.6; stroke-linecap: square"/>
     </g>
     <g id="line2d_20">
      <g>
       <use xlink:href="#m1c126d5b9f" x="269.39125" y="237.006068" style="stroke: #000000; stroke-width: 0.8"/>
      </g>
     </g>
     <g id="text_11">
      <!-- 1.0 -->
      <g transform="translate(244.897813 241.185208) scale(0.11 -0.11)">
       <use xlink:href="#DejaVuSans-31"/>
       <use xlink:href="#DejaVuSans-2e" transform="translate(63.623047 0)"/>
       <use xlink:href="#DejaVuSans-30" transform="translate(95.410156 0)"/>
      </g>
     </g>
    </g>
    <g id="ytick_9">
     <g id="line2d_21">
      <path d="M 269.39125 200.024976 
L 444.10125 200.024976 
" clip-path="url(#p25734ea3c0)" style="fill: none; stroke: #b0b0b0; stroke-opacity: 0.2; stroke-width: 0.6; stroke-linecap: square"/>
     </g>
     <g id="line2d_22">
      <g>
       <use xlink:href="#m1c126d5b9f" x="269.39125" y="200.024976" style="stroke: #000000; stroke-width: 0.8"/>
      </g>
     </g>
     <g id="text_12">
      <!-- 1.1 -->
      <g transform="translate(244.897813 204.204117) scale(0.11 -0.11)">
       <use xlink:href="#DejaVuSans-31"/>
       <use xlink:href="#DejaVuSans-2e" transform="translate(63.623047 0)"/>
       <use xlink:href="#DejaVuSans-31" transform="translate(95.410156 0)"/>
      </g>
     </g>
    </g>
    <g id="ytick_10">
     <g id="line2d_23">
      <path d="M 269.39125 163.043885 
L 444.10125 163.043885 
" clip-path="url(#p25734ea3c0)" style="fill: none; stroke: #b0b0b0; stroke-opacity: 0.2; stroke-width: 0.6; stroke-linecap: square"/>
     </g>
     <g id="line2d_24">
      <g>
       <use xlink:href="#m1c126d5b9f" x="269.39125" y="163.043885" style="stroke: #000000; stroke-width: 0.8"/>
      </g>
     </g>
     <g id="text_13">
      <!-- 1.2 -->
      <g transform="translate(244.897813 167.223026) scale(0.11 -0.11)">
       <use xlink:href="#DejaVuSans-31"/>
       <use xlink:href="#DejaVuSans-2e" transform="translate(63.623047 0)"/>
       <use xlink:href="#DejaVuSans-32" transform="translate(95.410156 0)"/>
      </g>
     </g>
    </g>
    <g id="ytick_11">
     <g id="line2d_25">
      <path d="M 269.39125 126.062794 
L 444.10125 126.062794 
" clip-path="url(#p25734ea3c0)" style="fill: none; stroke: #b0b0b0; stroke-opacity: 0.2; stroke-width: 0.6; stroke-linecap: square"/>
     </g>
     <g id="line2d_26">
      <g>
       <use xlink:href="#m1c126d5b9f" x="269.39125" y="126.062794" style="stroke: #000000; stroke-width: 0.8"/>
      </g>
     </g>
     <g id="text_14">
      <!-- 1.3 -->
      <g transform="translate(244.897813 130.241935) scale(0.11 -0.11)">
       <defs>
        <path id="DejaVuSans-33" d="M 2597 2516 
Q 3050 2419 3304 2112 
Q 3559 1806 3559 1356 
Q 3559 666 3084 287 
Q 2609 -91 1734 -91 
Q 1441 -91 1130 -33 
Q 819 25 488 141 
L 488 750 
Q 750 597 1062 519 
Q 1375 441 1716 441 
Q 2309 441 2620 675 
Q 2931 909 2931 1356 
Q 2931 1769 2642 2001 
Q 2353 2234 1838 2234 
L 1294 2234 
L 1294 2753 
L 1863 2753 
Q 2328 2753 2575 2939 
Q 2822 3125 2822 3475 
Q 2822 3834 2567 4026 
Q 2313 4219 1838 4219 
Q 1578 4219 1281 4162 
Q 984 4106 628 3988 
L 628 4550 
Q 988 4650 1302 4700 
Q 1616 4750 1894 4750 
Q 2613 4750 3031 4423 
Q 3450 4097 3450 3541 
Q 3450 3153 3228 2886 
Q 3006 2619 2597 2516 
z
" transform="scale(0.015625)"/>
       </defs>
       <use xlink:href="#DejaVuSans-31"/>
       <use xlink:href="#DejaVuSans-2e" transform="translate(63.623047 0)"/>
       <use xlink:href="#DejaVuSans-33" transform="translate(95.410156 0)"/>
      </g>
     </g>
    </g>
    <g id="ytick_12">
     <g id="line2d_27">
      <path d="M 269.39125 89.081703 
L 444.10125 89.081703 
" clip-path="url(#p25734ea3c0)" style="fill: none; stroke: #b0b0b0; stroke-opacity: 0.2; stroke-width: 0.6; stroke-linecap: square"/>
     </g>
     <g id="line2d_28">
      <g>
       <use xlink:href="#m1c126d5b9f" x="269.39125" y="89.081703" style="stroke: #000000; stroke-width: 0.8"/>
      </g>
     </g>
     <g id="text_15">
      <!-- 1.4 -->
      <g transform="translate(244.897813 93.260844) scale(0.11 -0.11)">
       <use xlink:href="#DejaVuSans-31"/>
       <use xlink:href="#DejaVuSans-2e" transform="translate(63.623047 0)"/>
       <use xlink:href="#DejaVuSans-34" transform="translate(95.410156 0)"/>
      </g>
     </g>
    </g>
    <g id="ytick_13">
     <g id="line2d_29">
      <path d="M 269.39125 52.100612 
L 444.10125 52.100612 
" clip-path="url(#p25734ea3c0)" style="fill: none; stroke: #b0b0b0; stroke-opacity: 0.2; stroke-width: 0.6; stroke-linecap: square"/>
     </g>
     <g id="line2d_30">
      <g>
       <use xlink:href="#m1c126d5b9f" x="269.39125" y="52.100612" style="stroke: #000000; stroke-width: 0.8"/>
      </g>
     </g>
     <g id="text_16">
      <!-- 1.5 -->
      <g transform="translate(244.897813 56.279753) scale(0.11 -0.11)">
       <defs>
        <path id="DejaVuSans-35" d="M 691 4666 
L 3169 4666 
L 3169 4134 
L 1269 4134 
L 1269 2991 
Q 1406 3038 1543 3061 
Q 1681 3084 1819 3084 
Q 2600 3084 3056 2656 
Q 3513 2228 3513 1497 
Q 3513 744 3044 326 
Q 2575 -91 1722 -91 
Q 1428 -91 1123 -41 
Q 819 9 494 109 
L 494 744 
Q 775 591 1075 516 
Q 1375 441 1709 441 
Q 2250 441 2565 725 
Q 2881 1009 2881 1497 
Q 2881 1984 2565 2268 
Q 2250 2553 1709 2553 
Q 1456 2553 1204 2497 
Q 953 2441 691 2322 
L 691 4666 
z
" transform="scale(0.015625)"/>
       </defs>
       <use xlink:href="#DejaVuSans-31"/>
       <use xlink:href="#DejaVuSans-2e" transform="translate(63.623047 0)"/>
       <use xlink:href="#DejaVuSans-35" transform="translate(95.410156 0)"/>
      </g>
     </g>
    </g>
    <g id="text_17">
     <!-- normalized SD -->
     <g transform="translate(238.402188 230.259438) rotate(-90) scale(0.12 -0.12)">
      <defs>
       <path id="DejaVuSans-7a" d="M 353 3500 
L 3084 3500 
L 3084 2975 
L 922 459 
L 3084 459 
L 3084 0 
L 275 0 
L 275 525 
L 2438 3041 
L 353 3041 
L 353 3500 
z
" transform="scale(0.015625)"/>
       <path id="DejaVuSans-53" d="M 3425 4513 
L 3425 3897 
Q 3066 4069 2747 4153 
Q 2428 4238 2131 4238 
Q 1616 4238 1336 4038 
Q 1056 3838 1056 3469 
Q 1056 3159 1242 3001 
Q 1428 2844 1947 2747 
L 2328 2669 
Q 3034 2534 3370 2195 
Q 3706 1856 3706 1288 
Q 3706 609 3251 259 
Q 2797 -91 1919 -91 
Q 1588 -91 1214 -16 
Q 841 59 441 206 
L 441 856 
Q 825 641 1194 531 
Q 1563 422 1919 422 
Q 2459 422 2753 634 
Q 3047 847 3047 1241 
Q 3047 1584 2836 1778 
Q 2625 1972 2144 2069 
L 1759 2144 
Q 1053 2284 737 2584 
Q 422 2884 422 3419 
Q 422 4038 858 4394 
Q 1294 4750 2059 4750 
Q 2388 4750 2728 4690 
Q 3069 4631 3425 4513 
z
" transform="scale(0.015625)"/>
       <path id="DejaVuSans-44" d="M 1259 4147 
L 1259 519 
L 2022 519 
Q 2988 519 3436 956 
Q 3884 1394 3884 2338 
Q 3884 3275 3436 3711 
Q 2988 4147 2022 4147 
L 1259 4147 
z
M 628 4666 
L 1925 4666 
Q 3281 4666 3915 4102 
Q 4550 3538 4550 2338 
Q 4550 1131 3912 565 
Q 3275 0 1925 0 
L 628 0 
L 628 4666 
z
" transform="scale(0.015625)"/>
      </defs>
      <use xlink:href="#DejaVuSans-6e"/>
      <use xlink:href="#DejaVuSans-6f" transform="translate(63.378906 0)"/>
      <use xlink:href="#DejaVuSans-72" transform="translate(124.560547 0)"/>
      <use xlink:href="#DejaVuSans-6d" transform="translate(163.923828 0)"/>
      <use xlink:href="#DejaVuSans-61" transform="translate(261.335938 0)"/>
      <use xlink:href="#DejaVuSans-6c" transform="translate(322.615234 0)"/>
      <use xlink:href="#DejaVuSans-69" transform="translate(350.398438 0)"/>
      <use xlink:href="#DejaVuSans-7a" transform="translate(378.181641 0)"/>
      <use xlink:href="#DejaVuSans-65" transform="translate(430.671875 0)"/>
      <use xlink:href="#DejaVuSans-64" transform="translate(492.195312 0)"/>
      <use xlink:href="#DejaVuSans-20" transform="translate(555.671875 0)"/>
      <use xlink:href="#DejaVuSans-53" transform="translate(587.458984 0)"/>
      <use xlink:href="#DejaVuSans-44" transform="translate(650.935547 0)"/>
     </g>
    </g>
   </g>
   <g id="FillBetweenPolyCollection_2">
    <defs>
     <path id="m6bf47bdf33" d="M 387.484753 -66.737983 
L 326.007747 -66.737983 
L 324.413711 -69.529961 
L 322.870856 -72.321939 
L 321.38922 -75.113916 
L 319.977456 -77.905894 
L 318.642575 -80.697872 
L 317.389727 -83.48985 
L 316.222023 -86.281827 
L 315.140414 -89.073805 
L 314.143622 -91.865783 
L 313.228134 -94.657761 
L 312.38826 -97.449738 
L 311.616253 -100.241716 
L 310.902487 -103.033694 
L 310.235692 -105.825672 
L 309.603243 -108.617649 
L 308.991486 -111.409627 
L 308.386101 -114.201605 
L 307.772495 -116.993583 
L 307.136196 -119.78556 
L 306.463268 -122.577538 
L 305.740705 -125.369516 
L 304.956822 -128.161493 
L 304.101603 -130.953471 
L 303.167036 -133.745449 
L 302.147384 -136.537427 
L 301.039426 -139.329404 
L 299.842628 -142.121382 
L 298.55927 -144.91336 
L 297.194502 -147.705338 
L 295.756342 -150.497315 
L 294.255615 -153.289293 
L 292.705822 -156.081271 
L 291.122963 -158.873249 
L 289.525286 -161.665226 
L 287.933003 -164.457204 
L 286.367944 -167.249182 
L 284.853179 -170.04116 
L 283.412598 -172.833137 
L 282.070467 -175.625115 
L 280.850966 -178.417093 
L 279.777706 -181.209071 
L 278.873259 -184.001048 
L 278.15868 -186.793026 
L 277.653054 -189.585004 
L 277.373066 -192.376982 
L 277.332614 -195.168959 
L 277.542461 -197.960937 
L 278.009947 -200.752915 
L 278.738766 -203.544893 
L 279.72881 -206.33687 
L 280.976093 -209.128848 
L 282.472761 -211.920826 
L 284.207177 -214.712804 
L 286.164095 -217.504781 
L 288.324912 -220.296759 
L 290.668002 -223.088737 
L 293.169114 -225.880714 
L 295.801832 -228.672692 
L 298.538085 -231.46467 
L 301.348693 -234.256648 
L 304.203934 -237.048625 
L 307.074127 -239.840603 
L 309.930191 -242.632581 
L 312.744202 -245.424559 
L 315.489899 -248.216536 
L 318.143152 -251.008514 
L 320.68236 -253.800492 
L 323.088788 -256.59247 
L 325.346829 -259.384447 
L 327.444177 -262.176425 
L 329.371928 -264.968403 
L 331.124593 -267.760381 
L 332.700034 -270.552358 
L 334.099327 -273.344336 
L 335.326556 -276.136314 
L 336.388554 -278.928292 
L 337.294586 -281.720269 
L 338.056003 -284.512247 
L 338.685866 -287.304225 
L 339.198553 -290.096203 
L 339.609361 -292.88818 
L 339.934117 -295.680158 
L 340.188798 -298.472136 
L 340.389182 -301.264114 
L 340.550519 -304.056091 
L 340.687251 -306.848069 
L 340.812762 -309.640047 
L 340.939178 -312.432025 
L 341.077206 -315.224002 
L 341.236027 -318.01598 
L 341.423222 -320.807958 
L 341.644754 -323.599936 
L 341.904972 -326.391913 
L 342.206672 -329.183891 
L 342.551164 -331.975869 
L 342.938392 -334.767846 
L 343.36705 -337.559824 
L 343.834739 -340.351802 
L 344.338115 -343.14378 
L 369.154385 -343.14378 
L 369.154385 -343.14378 
L 369.657761 -340.351802 
L 370.12545 -337.559824 
L 370.554108 -334.767846 
L 370.941336 -331.975869 
L 371.285828 -329.183891 
L 371.587528 -326.391913 
L 371.847746 -323.599936 
L 372.069278 -320.807958 
L 372.256473 -318.01598 
L 372.415294 -315.224002 
L 372.553322 -312.432025 
L 372.679738 -309.640047 
L 372.805249 -306.848069 
L 372.941981 -304.056091 
L 373.103318 -301.264114 
L 373.303702 -298.472136 
L 373.558383 -295.680158 
L 373.883139 -292.88818 
L 374.293947 -290.096203 
L 374.806634 -287.304225 
L 375.436497 -284.512247 
L 376.197914 -281.720269 
L 377.103946 -278.928292 
L 378.165944 -276.136314 
L 379.393173 -273.344336 
L 380.792466 -270.552358 
L 382.367907 -267.760381 
L 384.120572 -264.968403 
L 386.048323 -262.176425 
L 388.145671 -259.384447 
L 390.403712 -256.59247 
L 392.81014 -253.800492 
L 395.349348 -251.008514 
L 398.002601 -248.216536 
L 400.748298 -245.424559 
L 403.562309 -242.632581 
L 406.418373 -239.840603 
L 409.288566 -237.048625 
L 412.143807 -234.256648 
L 414.954415 -231.46467 
L 417.690668 -228.672692 
L 420.323386 -225.880714 
L 422.824498 -223.088737 
L 425.167588 -220.296759 
L 427.328405 -217.504781 
L 429.285323 -214.712804 
L 431.019739 -211.920826 
L 432.516407 -209.128848 
L 433.76369 -206.33687 
L 434.753734 -203.544893 
L 435.482553 -200.752915 
L 435.950039 -197.960937 
L 436.159886 -195.168959 
L 436.119434 -192.376982 
L 435.839446 -189.585004 
L 435.33382 -186.793026 
L 434.619241 -184.001048 
L 433.714794 -181.209071 
L 432.641534 -178.417093 
L 431.422033 -175.625115 
L 430.079902 -172.833137 
L 428.639321 -170.04116 
L 427.124556 -167.249182 
L 425.559497 -164.457204 
L 423.967214 -161.665226 
L 422.369537 -158.873249 
L 420.786678 -156.081271 
L 419.236885 -153.289293 
L 417.736158 -150.497315 
L 416.297998 -147.705338 
L 414.93323 -144.91336 
L 413.649872 -142.121382 
L 412.453074 -139.329404 
L 411.345116 -136.537427 
L 410.325464 -133.745449 
L 409.390897 -130.953471 
L 408.535678 -128.161493 
L 407.751795 -125.369516 
L 407.029232 -122.577538 
L 406.356304 -119.78556 
L 405.720005 -116.993583 
L 405.106399 -114.201605 
L 404.501014 -111.409627 
L 403.889257 -108.617649 
L 403.256808 -105.825672 
L 402.590013 -103.033694 
L 401.876247 -100.241716 
L 401.10424 -97.449738 
L 400.264366 -94.657761 
L 399.348878 -91.865783 
L 398.352086 -89.073805 
L 397.270477 -86.281827 
L 396.102773 -83.48985 
L 394.849925 -80.697872 
L 393.515044 -77.905894 
L 392.10328 -75.113916 
L 390.621644 -72.321939 
L 389.078789 -69.529961 
L 387.484753 -66.737983 
z
" style="stroke: #7c3aed; stroke-opacity: 0.35"/>
    </defs>
    <g clip-path="url(#p25734ea3c0)">
     <use xlink:href="#m6bf47bdf33" x="0" y="391.52407" style="fill: #7c3aed; fill-opacity: 0.35; stroke: #7c3aed; stroke-opacity: 0.35"/>
    </g>
   </g>
   <g id="LineCollection_2">
    <path d="M 317.039432 208.230008 
L 396.453068 208.230008 
" clip-path="url(#p25734ea3c0)" style="fill: none; stroke: #7c3aed; stroke-width: 1.5"/>
   </g>
   <g id="patch_8">
    <path d="M 269.39125 338.606376 
L 269.39125 34.56 
" style="fill: none; stroke: #000000; stroke-width: 0.8; stroke-linejoin: miter; stroke-linecap: square"/>
   </g>
   <g id="patch_9">
    <path d="M 444.10125 338.606376 
L 444.10125 34.56 
" style="fill: none; stroke: #000000; stroke-width: 0.8; stroke-linejoin: miter; stroke-linecap: square"/>
   </g>
   <g id="patch_10">
    <path d="M 269.39125 338.606376 
L 444.10125 338.606376 
" style="fill: none; stroke: #000000; stroke-width: 0.8; stroke-linejoin: miter; stroke-linecap: square"/>
   </g>
   <g id="patch_11">
    <path d="M 269.39125 34.56 
L 444.10125 34.56 
" style="fill: none; stroke: #000000; stroke-width: 0.8; stroke-linejoin: miter; stroke-linecap: square"/>
   </g>
  </g>
  <g id="axes_3">
   <g id="patch_12">
    <path d="M 494.97125 338.606376 
L 669.68125 338.606376 
L 669.68125 34.56 
L 494.97125 34.56 
z
" style="fill: #ffffff"/>
   </g>
   <g id="matplotlib.axis_5">
    <g id="xtick_3">
     <g id="line2d_31">
      <path d="M 582.32625 338.606376 
L 582.32625 34.56 
" clip-path="url(#p5073e4dadc)" style="fill: none; stroke: #b0b0b0; stroke-opacity: 0.2; stroke-width: 0.6; stroke-linecap: square"/>
     </g>
     <g id="line2d_32">
      <g>
       <use xlink:href="#m676a3962da" x="582.32625" y="338.606376" style="stroke: #000000; stroke-width: 0.8"/>
      </g>
     </g>
     <g id="text_18">
      <!-- Speech rate -->
      <g transform="translate(517.632757 370.855775) rotate(-15) scale(0.11 -0.11)">
       <defs>
        <path id="DejaVuSans-70" d="M 1159 525 
L 1159 -1331 
L 581 -1331 
L 581 3500 
L 1159 3500 
L 1159 2969 
Q 1341 3281 1617 3432 
Q 1894 3584 2278 3584 
Q 2916 3584 3314 3078 
Q 3713 2572 3713 1747 
Q 3713 922 3314 415 
Q 2916 -91 2278 -91 
Q 1894 -91 1617 61 
Q 1341 213 1159 525 
z
M 3116 1747 
Q 3116 2381 2855 2742 
Q 2594 3103 2138 3103 
Q 1681 3103 1420 2742 
Q 1159 2381 1159 1747 
Q 1159 1113 1420 752 
Q 1681 391 2138 391 
Q 2594 391 2855 752 
Q 3116 1113 3116 1747 
z
" transform="scale(0.015625)"/>
       </defs>
       <use xlink:href="#DejaVuSans-53"/>
       <use xlink:href="#DejaVuSans-70" transform="translate(63.476562 0)"/>
       <use xlink:href="#DejaVuSans-65" transform="translate(126.953125 0)"/>
       <use xlink:href="#DejaVuSans-65" transform="translate(188.476562 0)"/>
       <use xlink:href="#DejaVuSans-63" transform="translate(250 0)"/>
       <use xlink:href="#DejaVuSans-68" transform="translate(304.980469 0)"/>
       <use xlink:href="#DejaVuSans-20" transform="translate(368.359375 0)"/>
       <use xlink:href="#DejaVuSans-72" transform="translate(400.146484 0)"/>
       <use xlink:href="#DejaVuSans-61" transform="translate(441.259766 0)"/>
       <use xlink:href="#DejaVuSans-74" transform="translate(502.539062 0)"/>
       <use xlink:href="#DejaVuSans-65" transform="translate(541.748047 0)"/>
      </g>
     </g>
    </g>
   </g>
   <g id="matplotlib.axis_6">
    <g id="ytick_14">
     <g id="line2d_33">
      <path d="M 494.97125 305.927687 
L 669.68125 305.927687 
" clip-path="url(#p5073e4dadc)" style="fill: none; stroke: #b0b0b0; stroke-opacity: 0.2; stroke-width: 0.6; stroke-linecap: square"/>
     </g>
     <g id="line2d_34">
      <g>
       <use xlink:href="#m1c126d5b9f" x="494.97125" y="305.927687" style="stroke: #000000; stroke-width: 0.8"/>
      </g>
     </g>
     <g id="text_19">
      <!-- 1.0 -->
      <g transform="translate(470.477813 310.106828) scale(0.11 -0.11)">
       <use xlink:href="#DejaVuSans-31"/>
       <use xlink:href="#DejaVuSans-2e" transform="translate(63.623047 0)"/>
       <use xlink:href="#DejaVuSans-30" transform="translate(95.410156 0)"/>
      </g>
     </g>
    </g>
    <g id="ytick_15">
     <g id="line2d_35">
      <path d="M 494.97125 268.615986 
L 669.68125 268.615986 
" clip-path="url(#p5073e4dadc)" style="fill: none; stroke: #b0b0b0; stroke-opacity: 0.2; stroke-width: 0.6; stroke-linecap: square"/>
     </g>
     <g id="line2d_36">
      <g>
       <use xlink:href="#m1c126d5b9f" x="494.97125" y="268.615986" style="stroke: #000000; stroke-width: 0.8"/>
      </g>
     </g>
     <g id="text_20">
      <!-- 1.2 -->
      <g transform="translate(470.477813 272.795127) scale(0.11 -0.11)">
       <use xlink:href="#DejaVuSans-31"/>
       <use xlink:href="#DejaVuSans-2e" transform="translate(63.623047 0)"/>
       <use xlink:href="#DejaVuSans-32" transform="translate(95.410156 0)"/>
      </g>
     </g>
    </g>
    <g id="ytick_16">
     <g id="line2d_37">
      <path d="M 494.97125 231.304286 
L 669.68125 231.304286 
" clip-path="url(#p5073e4dadc)" style="fill: none; stroke: #b0b0b0; stroke-opacity: 0.2; stroke-width: 0.6; stroke-linecap: square"/>
     </g>
     <g id="line2d_38">
      <g>
       <use xlink:href="#m1c126d5b9f" x="494.97125" y="231.304286" style="stroke: #000000; stroke-width: 0.8"/>
      </g>
     </g>
     <g id="text_21">
      <!-- 1.4 -->
      <g transform="translate(470.477813 235.483426) scale(0.11 -0.11)">
       <use xlink:href="#DejaVuSans-31"/>
       <use xlink:href="#DejaVuSans-2e" transform="translate(63.623047 0)"/>
       <use xlink:href="#DejaVuSans-34" transform="translate(95.410156 0)"/>
      </g>
     </g>
    </g>
    <g id="ytick_17">
     <g id="line2d_39">
      <path d="M 494.97125 193.992585 
L 669.68125 193.992585 
" clip-path="url(#p5073e4dadc)" style="fill: none; stroke: #b0b0b0; stroke-opacity: 0.2; stroke-width: 0.6; stroke-linecap: square"/>
     </g>
     <g id="line2d_40">
      <g>
       <use xlink:href="#m1c126d5b9f" x="494.97125" y="193.992585" style="stroke: #000000; stroke-width: 0.8"/>
      </g>
     </g>
     <g id="text_22">
      <!-- 1.6 -->
      <g transform="translate(470.477813 198.171725) scale(0.11 -0.11)">
       <use xlink:href="#DejaVuSans-31"/>
       <use xlink:href="#DejaVuSans-2e" transform="translate(63.623047 0)"/>
       <use xlink:href="#DejaVuSans-36" transform="translate(95.410156 0)"/>
      </g>
     </g>
    </g>
    <g id="ytick_18">
     <g id="line2d_41">
      <path d="M 494.97125 156.680884 
L 669.68125 156.680884 
" clip-path="url(#p5073e4dadc)" style="fill: none; stroke: #b0b0b0; stroke-opacity: 0.2; stroke-width: 0.6; stroke-linecap: square"/>
     </g>
     <g id="line2d_42">
      <g>
       <use xlink:href="#m1c126d5b9f" x="494.97125" y="156.680884" style="stroke: #000000; stroke-width: 0.8"/>
      </g>
     </g>
     <g id="text_23">
      <!-- 1.8 -->
      <g transform="translate(470.477813 160.860025) scale(0.11 -0.11)">
       <use xlink:href="#DejaVuSans-31"/>
       <use xlink:href="#DejaVuSans-2e" transform="translate(63.623047 0)"/>
       <use xlink:href="#DejaVuSans-38" transform="translate(95.410156 0)"/>
      </g>
     </g>
    </g>
    <g id="ytick_19">
     <g id="line2d_43">
      <path d="M 494.97125 119.369183 
L 669.68125 119.369183 
" clip-path="url(#p5073e4dadc)" style="fill: none; stroke: #b0b0b0; stroke-opacity: 0.2; stroke-width: 0.6; stroke-linecap: square"/>
     </g>
     <g id="line2d_44">
      <g>
       <use xlink:href="#m1c126d5b9f" x="494.97125" y="119.369183" style="stroke: #000000; stroke-width: 0.8"/>
      </g>
     </g>
     <g id="text_24">
      <!-- 2.0 -->
      <g transform="translate(470.477813 123.548324) scale(0.11 -0.11)">
       <use xlink:href="#DejaVuSans-32"/>
       <use xlink:href="#DejaVuSans-2e" transform="translate(63.623047 0)"/>
       <use xlink:href="#DejaVuSans-30" transform="translate(95.410156 0)"/>
      </g>
     </g>
    </g>
    <g id="ytick_20">
     <g id="line2d_45">
      <path d="M 494.97125 82.057483 
L 669.68125 82.057483 
" clip-path="url(#p5073e4dadc)" style="fill: none; stroke: #b0b0b0; stroke-opacity: 0.2; stroke-width: 0.6; stroke-linecap: square"/>
     </g>
     <g id="line2d_46">
      <g>
       <use xlink:href="#m1c126d5b9f" x="494.97125" y="82.057483" style="stroke: #000000; stroke-width: 0.8"/>
      </g>
     </g>
     <g id="text_25">
      <!-- 2.2 -->
      <g transform="translate(470.477813 86.236623) scale(0.11 -0.11)">
       <use xlink:href="#DejaVuSans-32"/>
       <use xlink:href="#DejaVuSans-2e" transform="translate(63.623047 0)"/>
       <use xlink:href="#DejaVuSans-32" transform="translate(95.410156 0)"/>
      </g>
     </g>
    </g>
    <g id="ytick_21">
     <g id="line2d_47">
      <path d="M 494.97125 44.745782 
L 669.68125 44.745782 
" clip-path="url(#p5073e4dadc)" style="fill: none; stroke: #b0b0b0; stroke-opacity: 0.2; stroke-width: 0.6; stroke-linecap: square"/>
     </g>
     <g id="line2d_48">
      <g>
       <use xlink:href="#m1c126d5b9f" x="494.97125" y="44.745782" style="stroke: #000000; stroke-width: 0.8"/>
      </g>
     </g>
     <g id="text_26">
      <!-- 2.4 -->
      <g transform="translate(470.477813 48.924923) scale(0.11 -0.11)">
       <use xlink:href="#DejaVuSans-32"/>
       <use xlink:href="#DejaVuSans-2e" transform="translate(63.623047 0)"/>
       <use xlink:href="#DejaVuSans-34" transform="translate(95.410156 0)"/>
      </g>
     </g>
    </g>
    <g id="text_27">
     <!-- segments / second -->
     <g transform="translate(463.982188 243.260688) rotate(-90) scale(0.12 -0.12)">
      <defs>
       <path id="DejaVuSans-67" d="M 2906 1791 
Q 2906 2416 2648 2759 
Q 2391 3103 1925 3103 
Q 1463 3103 1205 2759 
Q 947 2416 947 1791 
Q 947 1169 1205 825 
Q 1463 481 1925 481 
Q 2391 481 2648 825 
Q 2906 1169 2906 1791 
z
M 3481 434 
Q 3481 -459 3084 -895 
Q 2688 -1331 1869 -1331 
Q 1566 -1331 1297 -1286 
Q 1028 -1241 775 -1147 
L 775 -588 
Q 1028 -725 1275 -790 
Q 1522 -856 1778 -856 
Q 2344 -856 2625 -561 
Q 2906 -266 2906 331 
L 2906 616 
Q 2728 306 2450 153 
Q 2172 0 1784 0 
Q 1141 0 747 490 
Q 353 981 353 1791 
Q 353 2603 747 3093 
Q 1141 3584 1784 3584 
Q 2172 3584 2450 3431 
Q 2728 3278 2906 2969 
L 2906 3500 
L 3481 3500 
L 3481 434 
z
" transform="scale(0.015625)"/>
       <path id="DejaVuSans-2f" d="M 1625 4666 
L 2156 4666 
L 531 -594 
L 0 -594 
L 1625 4666 
z
" transform="scale(0.015625)"/>
      </defs>
      <use xlink:href="#DejaVuSans-73"/>
      <use xlink:href="#DejaVuSans-65" transform="translate(52.099609 0)"/>
      <use xlink:href="#DejaVuSans-67" transform="translate(113.623047 0)"/>
      <use xlink:href="#DejaVuSans-6d" transform="translate(177.099609 0)"/>
      <use xlink:href="#DejaVuSans-65" transform="translate(274.511719 0)"/>
      <use xlink:href="#DejaVuSans-6e" transform="translate(336.035156 0)"/>
      <use xlink:href="#DejaVuSans-74" transform="translate(399.414062 0)"/>
      <use xlink:href="#DejaVuSans-73" transform="translate(438.623047 0)"/>
      <use xlink:href="#DejaVuSans-20" transform="translate(490.722656 0)"/>
      <use xlink:href="#DejaVuSans-2f" transform="translate(522.509766 0)"/>
      <use xlink:href="#DejaVuSans-20" transform="translate(556.201172 0)"/>
      <use xlink:href="#DejaVuSans-73" transform="translate(587.988281 0)"/>
      <use xlink:href="#DejaVuSans-65" transform="translate(640.087891 0)"/>
      <use xlink:href="#DejaVuSans-63" transform="translate(701.611328 0)"/>
      <use xlink:href="#DejaVuSans-6f" transform="translate(756.591797 0)"/>
      <use xlink:href="#DejaVuSans-6e" transform="translate(817.773438 0)"/>
      <use xlink:href="#DejaVuSans-64" transform="translate(881.152344 0)"/>
     </g>
    </g>
   </g>
   <g id="FillBetweenPolyCollection_3">
    <defs>
     <path id="m38680dd42e" d="M 602.935389 -66.737983 
L 561.717111 -66.737983 
L 560.770911 -69.529961 
L 559.819919 -72.321939 
L 558.860834 -75.113916 
L 557.889536 -77.905894 
L 556.901216 -80.697872 
L 555.890527 -83.48985 
L 554.851771 -86.281827 
L 553.779113 -89.073805 
L 552.666804 -91.865783 
L 551.509418 -94.657761 
L 550.302081 -97.449738 
L 549.040699 -100.241716 
L 547.722154 -103.033694 
L 546.344481 -105.825672 
L 544.907003 -108.617649 
L 543.410426 -111.409627 
L 541.856884 -114.201605 
L 540.24994 -116.993583 
L 538.594533 -119.78556 
L 536.896879 -122.577538 
L 535.164328 -125.369516 
L 533.405188 -128.161493 
L 531.628513 -130.953471 
L 529.84388 -133.745449 
L 528.06115 -136.537427 
L 526.290229 -139.329404 
L 524.540845 -142.121382 
L 522.822341 -144.91336 
L 521.143496 -147.705338 
L 519.512384 -150.497315 
L 517.936268 -153.289293 
L 516.421537 -156.081271 
L 514.973683 -158.873249 
L 513.597318 -161.665226 
L 512.296228 -164.457204 
L 511.073443 -167.249182 
L 509.931345 -170.04116 
L 508.871774 -172.833137 
L 507.896142 -175.625115 
L 507.005545 -178.417093 
L 506.200856 -181.209071 
L 505.482803 -184.001048 
L 504.85202 -186.793026 
L 504.309072 -189.585004 
L 503.85445 -192.376982 
L 503.488543 -195.168959 
L 503.211578 -197.960937 
L 503.023552 -200.752915 
L 502.924142 -203.544893 
L 502.912614 -206.33687 
L 502.987734 -209.128848 
L 503.147694 -211.920826 
L 503.390045 -214.712804 
L 503.711667 -217.504781 
L 504.108759 -220.296759 
L 504.576865 -223.088737 
L 505.11093 -225.880714 
L 505.705398 -228.672692 
L 506.354325 -231.46467 
L 507.051527 -234.256648 
L 507.790748 -237.048625 
L 508.56583 -239.840603 
L 509.3709 -242.632581 
L 510.200538 -245.424559 
L 511.049942 -248.216536 
L 511.91507 -251.008514 
L 512.792752 -253.800492 
L 513.680775 -256.59247 
L 514.577926 -259.384447 
L 515.484001 -262.176425 
L 516.399779 -264.968403 
L 517.326952 -267.760381 
L 518.268029 -270.552358 
L 519.226211 -273.344336 
L 520.205239 -276.136314 
L 521.209231 -278.928292 
L 522.242504 -281.720269 
L 523.309396 -284.512247 
L 524.414094 -287.304225 
L 525.560464 -290.096203 
L 526.751904 -292.88818 
L 527.99121 -295.680158 
L 529.280467 -298.472136 
L 530.620961 -301.264114 
L 532.013119 -304.056091 
L 533.456474 -306.848069 
L 534.949652 -309.640047 
L 536.490386 -312.432025 
L 538.075545 -315.224002 
L 539.701191 -318.01598 
L 541.36264 -320.807958 
L 543.054544 -323.599936 
L 544.770984 -326.391913 
L 546.505565 -329.183891 
L 548.251523 -331.975869 
L 550.001828 -334.767846 
L 551.749291 -337.559824 
L 553.486676 -340.351802 
L 555.206796 -343.14378 
L 609.445704 -343.14378 
L 609.445704 -343.14378 
L 611.165824 -340.351802 
L 612.903209 -337.559824 
L 614.650672 -334.767846 
L 616.400977 -331.975869 
L 618.146935 -329.183891 
L 619.881516 -326.391913 
L 621.597956 -323.599936 
L 623.28986 -320.807958 
L 624.951309 -318.01598 
L 626.576955 -315.224002 
L 628.162114 -312.432025 
L 629.702848 -309.640047 
L 631.196026 -306.848069 
L 632.639381 -304.056091 
L 634.031539 -301.264114 
L 635.372033 -298.472136 
L 636.66129 -295.680158 
L 637.900596 -292.88818 
L 639.092036 -290.096203 
L 640.238406 -287.304225 
L 641.343104 -284.512247 
L 642.409996 -281.720269 
L 643.443269 -278.928292 
L 644.447261 -276.136314 
L 645.426289 -273.344336 
L 646.384471 -270.552358 
L 647.325548 -267.760381 
L 648.252721 -264.968403 
L 649.168499 -262.176425 
L 650.074574 -259.384447 
L 650.971725 -256.59247 
L 651.859748 -253.800492 
L 652.73743 -251.008514 
L 653.602558 -248.216536 
L 654.451962 -245.424559 
L 655.2816 -242.632581 
L 656.08667 -239.840603 
L 656.861752 -237.048625 
L 657.600973 -234.256648 
L 658.298175 -231.46467 
L 658.947102 -228.672692 
L 659.54157 -225.880714 
L 660.075635 -223.088737 
L 660.543741 -220.296759 
L 660.940833 -217.504781 
L 661.262455 -214.712804 
L 661.504806 -211.920826 
L 661.664766 -209.128848 
L 661.739886 -206.33687 
L 661.728358 -203.544893 
L 661.628948 -200.752915 
L 661.440922 -197.960937 
L 661.163957 -195.168959 
L 660.79805 -192.376982 
L 660.343428 -189.585004 
L 659.80048 -186.793026 
L 659.169697 -184.001048 
L 658.451644 -181.209071 
L 657.646955 -178.417093 
L 656.756358 -175.625115 
L 655.780726 -172.833137 
L 654.721155 -170.04116 
L 653.579057 -167.249182 
L 652.356272 -164.457204 
L 651.055182 -161.665226 
L 649.678817 -158.873249 
L 648.230963 -156.081271 
L 646.716232 -153.289293 
L 645.140116 -150.497315 
L 643.509004 -147.705338 
L 641.830159 -144.91336 
L 640.111655 -142.121382 
L 638.362271 -139.329404 
L 636.59135 -136.537427 
L 634.80862 -133.745449 
L 633.023987 -130.953471 
L 631.247312 -128.161493 
L 629.488172 -125.369516 
L 627.755621 -122.577538 
L 626.057967 -119.78556 
L 624.40256 -116.993583 
L 622.795616 -114.201605 
L 621.242074 -111.409627 
L 619.745497 -108.617649 
L 618.308019 -105.825672 
L 616.930346 -103.033694 
L 615.611801 -100.241716 
L 614.350419 -97.449738 
L 613.143082 -94.657761 
L 611.985696 -91.865783 
L 610.873387 -89.073805 
L 609.800729 -86.281827 
L 608.761973 -83.48985 
L 607.751284 -80.697872 
L 606.762964 -77.905894 
L 605.791666 -75.113916 
L 604.832581 -72.321939 
L 603.881589 -69.529961 
L 602.935389 -66.737983 
z
" style="stroke: #7c3aed; stroke-opacity: 0.35"/>
    </defs>
    <g clip-path="url(#p5073e4dadc)">
     <use xlink:href="#m38680dd42e" x="0" y="391.52407" style="fill: #7c3aed; fill-opacity: 0.35; stroke: #7c3aed; stroke-opacity: 0.35"/>
    </g>
   </g>
   <g id="LineCollection_3">
    <path d="M 542.619432 184.297027 
L 622.033068 184.297027 
" clip-path="url(#p5073e4dadc)" style="fill: none; stroke: #7c3aed; stroke-width: 1.5"/>
   </g>
   <g id="patch_13">
    <path d="M 494.97125 338.606376 
L 494.97125 34.56 
" style="fill: none; stroke: #000000; stroke-width: 0.8; stroke-linejoin: miter; stroke-linecap: square"/>
   </g>
   <g id="patch_14">
    <path d="M 669.68125 338.606376 
L 669.68125 34.56 
" style="fill: none; stroke: #000000; stroke-width: 0.8; stroke-linejoin: miter; stroke-linecap: square"/>
   </g>
   <g id="patch_15">
    <path d="M 494.97125 338.606376 
L 669.68125 338.606376 
" style="fill: none; stroke: #000000; stroke-width: 0.8; stroke-linejoin: miter; stroke-linecap: square"/>
   </g>
   <g id="patch_16">
    <path d="M 494.97125 34.56 
L 669.68125 34.56 
" style="fill: none; stroke: #000000; stroke-width: 0.8; stroke-linejoin: miter; stroke-linecap: square"/>
   </g>
  </g>
  <g id="text_28">
   <!-- Depressive disorder (MDD/DD) -->
   <g transform="translate(231.053125 17.837812) scale(0.14 -0.14)">
    <defs>
     <path id="DejaVuSans-28" d="M 1984 4856 
Q 1566 4138 1362 3434 
Q 1159 2731 1159 2009 
Q 1159 1288 1364 580 
Q 1569 -128 1984 -844 
L 1484 -844 
Q 1016 -109 783 600 
Q 550 1309 550 2009 
Q 550 2706 781 3412 
Q 1013 4119 1484 4856 
L 1984 4856 
z
" transform="scale(0.015625)"/>
     <path id="DejaVuSans-4d" d="M 628 4666 
L 1569 4666 
L 2759 1491 
L 3956 4666 
L 4897 4666 
L 4897 0 
L 4281 0 
L 4281 4097 
L 3078 897 
L 2444 897 
L 1241 4097 
L 1241 0 
L 628 0 
L 628 4666 
z
" transform="scale(0.015625)"/>
     <path id="DejaVuSans-29" d="M 513 4856 
L 1013 4856 
Q 1481 4119 1714 3412 
Q 1947 2706 1947 2009 
Q 1947 1309 1714 600 
Q 1481 -109 1013 -844 
L 513 -844 
Q 928 -128 1133 580 
Q 1338 1288 1338 2009 
Q 1338 2731 1133 3434 
Q 928 4138 513 4856 
z
" transform="scale(0.015625)"/>
    </defs>
    <use xlink:href="#DejaVuSans-44"/>
    <use xlink:href="#DejaVuSans-65" transform="translate(77.001953 0)"/>
    <use xlink:href="#DejaVuSans-70" transform="translate(138.525391 0)"/>
    <use xlink:href="#DejaVuSans-72" transform="translate(202.001953 0)"/>
    <use xlink:href="#DejaVuSans-65" transform="translate(240.865234 0)"/>
    <use xlink:href="#DejaVuSans-73" transform="translate(302.388672 0)"/>
    <use xlink:href="#DejaVuSans-73" transform="translate(354.488281 0)"/>
    <use xlink:href="#DejaVuSans-69" transform="translate(406.587891 0)"/>
    <use xlink:href="#DejaVuSans-76" transform="translate(434.371094 0)"/>
    <use xlink:href="#DejaVuSans-65" transform="translate(493.550781 0)"/>
    <use xlink:href="#DejaVuSans-20" transform="translate(555.074219 0)"/>
    <use xlink:href="#DejaVuSans-64" transform="translate(586.861328 0)"/>
    <use xlink:href="#DejaVuSans-69" transform="translate(650.337891 0)"/>
    <use xlink:href="#DejaVuSans-73" transform="translate(678.121094 0)"/>
    <use xlink:href="#DejaVuSans-6f" transform="translate(730.220703 0)"/>
    <use xlink:href="#DejaVuSans-72" transform="translate(791.402344 0)"/>
    <use xlink:href="#DejaVuSans-64" transform="translate(830.765625 0)"/>
    <use xlink:href="#DejaVuSans-65" transform="translate(894.242188 0)"/>
    <use xlink:href="#DejaVuSans-72" transform="translate(955.765625 0)"/>
    <use xlink:href="#DejaVuSans-20" transform="translate(996.878906 0)"/>
    <use xlink:href="#DejaVuSans-28" transform="translate(1028.666016 0)"/>
    <use xlink:href="#DejaVuSans-4d" transform="translate(1067.679688 0)"/>
    <use xlink:href="#DejaVuSans-44" transform="translate(1153.958984 0)"/>
    <use xlink:href="#DejaVuSans-44" transform="translate(1230.960938 0)"/>
    <use xlink:href="#DejaVuSans-2f" transform="translate(1307.962891 0)"/>
    <use xlink:href="#DejaVuSans-44" transform="translate(1341.654297 0)"/>
    <use xlink:href="#DejaVuSans-44" transform="translate(1418.65625 0)"/>
    <use xlink:href="#DejaVuSans-29" transform="translate(1495.658203 0)"/>
   </g>
  </g>
 </g>
 <defs>
  <clipPath id="p81c9d23607">
   <rect x="43.81125" y="34.56" width="174.71" height="304.046376"/>
  </clipPath>
  <clipPath id="p25734ea3c0">
   <rect x="269.39125" y="34.56" width="174.71" height="304.046376"/>
  </clipPath>
  <clipPath id="p5073e4dadc">
   <rect x="494.97125" y="34.56" width="174.71" height="304.046376"/>
  </clipPath>
 </defs>
</svg>
