<?xml version="1.0" encoding="utf-8" standalone="no"?>
<!DOCTYPE svg PUBLIC "-//W3C//DTD SVG 1.1//EN"
  "http://www.w3.org/Graphics/SVG/1.1/DTD/svg11.dtd">
<svg xmlns:xlink="http://www.w3.org/1999/xlink" width="712.837188pt" height="424.5775pt" viewBox="0 0 712.837188 424.5775" xmlns="http://www.w3.org/2000/svg" version="1.1">
 <metadata>
  <rdf:RDF xmlns:dc="http://purl.org/dc/elements/1.1/" xmlns:cc="http://creativecommons.org/ns#" xmlns:rdf="http://www.w3.org/1999/02/22-rdf-syntax-ns#">
   <cc:Work>
    <dc:type rdf:resource="http://purl.org/dc/dcmitype/StillImage"/>
    <dc:date>2026-06-14T18:53:37.133878</dc:date>
    <dc:format>image/svg+xml</dc:format>
    <dc:creator>
     <cc:Agent>
      <dc:title>Matplotlib v3.10.1, https://matplotlib.org/</dc:title>
     </cc:Agent>
    </dc:creator>
   </cc:Work>
  </rdf:RDF>
 </metadata>
 <defs>
  <style type="text/css">*{stroke-linejoin: round; stroke-linecap: butt}</style>
 </defs>
 <g id="figure_1">
  <g id="patch_1">
   <path d="M 0 424.5775 
L 712.837188 424.5775 
L 712.837188 0 
L 0 0 
z
" style="fill: #ffffff"/>
  </g>
  <g id="axes_1">
   <g id="patch_2">
    <path d="M 47.307188 384.117812 
L 705.637188 384.117812 
L 705.637188 23.837812 
L 47.307188 23.837812 
z
" style="fill: #ffffff"/>
   </g>
   <g id="matplotlib.axis_1">
    <g id="xtick_1">
     <g id="line2d_1">
      <path d="M 47.307188 384.117812 
L 47.307188 23.837812 
" clip-path="url(#pbd727bf81e)" style="fill: none; stroke: #b0b0b0; stroke-opacity: 0.2; stroke-width: 0.6; stroke-linecap: square"/>
     </g>
     <g id="line2d_2">
      <defs>
       <path id="m61c4f5614b" d="M 0 0 
L 0 3.5 
" style="stroke: #000000; stroke-width: 0.8"/>
      </defs>
      <g>
       <use xlink:href="#m61c4f5614b" x="47.307188" y="384.117812" style="stroke: #000000; stroke-width: 0.8"/>
      </g>
     </g>
     <g id="text_1">
      <!-- 0 -->
      <g transform="translate(43.807813 399.476094) scale(0.11 -0.11)">
       <defs>
        <path id="DejaVuSans-30" d="M 2034 4250 
Q 1547 4250 1301 3770 
Q 1056 3291 1056 2328 
Q 1056 1369 1301 889 
Q 1547 409 2034 409 
Q 2525 409 2770 889 
Q 3016 1369 3016 2328 
Q 3016 3291 2770 3770 
Q 2525 4250 2034 4250 
z
M 2034 4750 
Q 2819 4750 3233 4129 
Q 3647 3509 3647 2328 
Q 3647 1150 3233 529 
Q 2819 -91 2034 -91 
Q 1250 -91 836 529 
Q 422 1150 422 2328 
Q 422 3509 836 4129 
Q 1250 4750 2034 4750 
z
" transform="scale(0.015625)"/>
       </defs>
       <use xlink:href="#DejaVuSans-30"/>
      </g>
     </g>
    </g>
    <g id="xtick_2">
     <g id="line2d_3">
      <path d="M 133.929556 384.117812 
L 133.929556 23.837812 
" clip-path="url(#pbd727bf81e)" style="fill: none; stroke: #b0b0b0; stroke-opacity: 0.2; stroke-width: 0.6; stroke-linecap: square"/>
     </g>
     <g id="line2d_4">
      <g>
       <use xlink:href="#m61c4f5614b" x="133.929556" y="384.117812" style="stroke: #000000; stroke-width: 0.8"/>
      </g>
     </g>
     <g id="text_2">
      <!-- 25 -->
      <g transform="translate(126.930806 399.476094) scale(0.11 -0.11)">
       <defs>
        <path id="DejaVuSans-32" d="M 1228 531 
L 3431 531 
L 3431 0 
L 469 0 
L 469 531 
Q 828 903 1448 1529 
Q 2069 2156 2228 2338 
Q 2531 2678 2651 2914 
Q 2772 3150 2772 3378 
Q 2772 3750 2511 3984 
Q 2250 4219 1831 4219 
Q 1534 4219 1204 4116 
Q 875 4013 500 3803 
L 500 4441 
Q 881 4594 1212 4672 
Q 1544 4750 1819 4750 
Q 2544 4750 2975 4387 
Q 3406 4025 3406 3419 
Q 3406 3131 3298 2873 
Q 3191 2616 2906 2266 
Q 2828 2175 2409 1742 
Q 1991 1309 1228 531 
z
" transform="scale(0.015625)"/>
        <path id="DejaVuSans-35" d="M 691 4666 
L 3169 4666 
L 3169 4134 
L 1269 4134 
L 1269 2991 
Q 1406 3038 1543 3061 
Q 1681 3084 1819 3084 
Q 2600 3084 3056 2656 
Q 3513 2228 3513 1497 
Q 3513 744 3044 326 
Q 2575 -91 1722 -91 
Q 1428 -91 1123 -41 
Q 819 9 494 109 
L 494 744 
Q 775 591 1075 516 
Q 1375 441 1709 441 
Q 2250 441 2565 725 
Q 2881 1009 2881 1497 
Q 2881 1984 2565 2268 
Q 2250 2553 1709 2553 
Q 1456 2553 1204 2497 
Q 953 2441 691 2322 
L 691 4666 
z
" transform="scale(0.015625)"/>
       </defs>
       <use xlink:href="#DejaVuSans-32"/>
       <use xlink:href="#DejaVuSans-35" transform="translate(63.623047 0)"/>
      </g>
     </g>
    </g>
    <g id="xtick_3">
     <g id="line2d_5">
      <path d="M 220.551924 384.117812 
L 220.551924 23.837812 
" clip-path="url(#pbd727bf81e)" style="fill: none; stroke: #b0b0b0; stroke-opacity: 0.2; stroke-width: 0.6; stroke-linecap: square"/>
     </g>
     <g id="line2d_6">
      <g>
       <use xlink:href="#m61c4f5614b" x="220.551924" y="384.117812" style="stroke: #000000; stroke-width: 0.8"/>
      </g>
     </g>
     <g id="text_3">
      <!-- 50 -->
      <g transform="translate(213.553174 399.476094) scale(0.11 -0.11)">
       <use xlink:href="#DejaVuSans-35"/>
       <use xlink:href="#DejaVuSans-30" transform="translate(63.623047 0)"/>
      </g>
     </g>
    </g>
    <g id="xtick_4">
     <g id="line2d_7">
      <path d="M 307.174293 384.117812 
L 307.174293 23.837812 
" clip-path="url(#pbd727bf81e)" style="fill: none; stroke: #b0b0b0; stroke-opacity: 0.2; stroke-width: 0.6; stroke-linecap: square"/>
     </g>
     <g id="line2d_8">
      <g>
       <use xlink:href="#m61c4f5614b" x="307.174293" y="384.117812" style="stroke: #000000; stroke-width: 0.8"/>
      </g>
     </g>
     <g id="text_4">
      <!-- 75 -->
      <g transform="translate(300.175543 399.476094) scale(0.11 -0.11)">
       <defs>
        <path id="DejaVuSans-37" d="M 525 4666 
L 3525 4666 
L 3525 4397 
L 1831 0 
L 1172 0 
L 2766 4134 
L 525 4134 
L 525 4666 
z
" transform="scale(0.015625)"/>
       </defs>
       <use xlink:href="#DejaVuSans-37"/>
       <use xlink:href="#DejaVuSans-35" transform="translate(63.623047 0)"/>
      </g>
     </g>
    </g>
    <g id="xtick_5">
     <g id="line2d_9">
      <path d="M 393.796661 384.117812 
L 393.796661 23.837812 
" clip-path="url(#pbd727bf81e)" style="fill: none; stroke: #b0b0b0; stroke-opacity: 0.2; stroke-width: 0.6; stroke-linecap: square"/>
     </g>
     <g id="line2d_10">
      <g>
       <use xlink:href="#m61c4f5614b" x="393.796661" y="384.117812" style="stroke: #000000; stroke-width: 0.8"/>
      </g>
     </g>
     <g id="text_5">
      <!-- 100 -->
      <g transform="translate(383.298536 399.476094) scale(0.11 -0.11)">
       <defs>
        <path id="DejaVuSans-31" d="M 794 531 
L 1825 531 
L 1825 4091 
L 703 3866 
L 703 4441 
L 1819 4666 
L 2450 4666 
L 2450 531 
L 3481 531 
L 3481 0 
L 794 0 
L 794 531 
z
" transform="scale(0.015625)"/>
       </defs>
       <use xlink:href="#DejaVuSans-31"/>
       <use xlink:href="#DejaVuSans-30" transform="translate(63.623047 0)"/>
       <use xlink:href="#DejaVuSans-30" transform="translate(127.246094 0)"/>
      </g>
     </g>
    </g>
    <g id="xtick_6">
     <g id="line2d_11">
      <path d="M 480.41903 384.117812 
L 480.41903 23.837812 
" clip-path="url(#pbd727bf81e)" style="fill: none; stroke: #b0b0b0; stroke-opacity: 0.2; stroke-width: 0.6; stroke-linecap: square"/>
     </g>
     <g id="line2d_12">
      <g>
       <use xlink:href="#m61c4f5614b" x="480.41903" y="384.117812" style="stroke: #000000; stroke-width: 0.8"/>
      </g>
     </g>
     <g id="text_6">
      <!-- 125 -->
      <g transform="translate(469.920905 399.476094) scale(0.11 -0.11)">
       <use xlink:href="#DejaVuSans-31"/>
       <use xlink:href="#DejaVuSans-32" transform="translate(63.623047 0)"/>
       <use xlink:href="#DejaVuSans-35" transform="translate(127.246094 0)"/>
      </g>
     </g>
    </g>
    <g id="xtick_7">
     <g id="line2d_13">
      <path d="M 567.041398 384.117812 
L 567.041398 23.837812 
" clip-path="url(#pbd727bf81e)" style="fill: none; stroke: #b0b0b0; stroke-opacity: 0.2; stroke-width: 0.6; stroke-linecap: square"/>
     </g>
     <g id="line2d_14">
      <g>
       <use xlink:href="#m61c4f5614b" x="567.041398" y="384.117812" style="stroke: #000000; stroke-width: 0.8"/>
      </g>
     </g>
     <g id="text_7">
      <!-- 150 -->
      <g transform="translate(556.543273 399.476094) scale(0.11 -0.11)">
       <use xlink:href="#DejaVuSans-31"/>
       <use xlink:href="#DejaVuSans-35" transform="translate(63.623047 0)"/>
       <use xlink:href="#DejaVuSans-30" transform="translate(127.246094 0)"/>
      </g>
     </g>
    </g>
    <g id="xtick_8">
     <g id="line2d_15">
      <path d="M 653.663766 384.117812 
L 653.663766 23.837812 
" clip-path="url(#pbd727bf81e)" style="fill: none; stroke: #b0b0b0; stroke-opacity: 0.2; stroke-width: 0.6; stroke-linecap: square"/>
     </g>
     <g id="line2d_16">
      <g>
       <use xlink:href="#m61c4f5614b" x="653.663766" y="384.117812" style="stroke: #000000; stroke-width: 0.8"/>
      </g>
     </g>
     <g id="text_8">
      <!-- 175 -->
      <g transform="translate(643.165641 399.476094) scale(0.11 -0.11)">
       <use xlink:href="#DejaVuSans-31"/>
       <use xlink:href="#DejaVuSans-37" transform="translate(63.623047 0)"/>
       <use xlink:href="#DejaVuSans-35" transform="translate(127.246094 0)"/>
      </g>
     </g>
    </g>
    <g id="text_9">
     <!-- Time (s) -->
     <g transform="translate(352.0775 414.881875) scale(0.12 -0.12)">
      <defs>
       <path id="DejaVuSans-54" d="M -19 4666 
L 3928 4666 
L 3928 4134 
L 2272 4134 
L 2272 0 
L 1638 0 
L 1638 4134 
L -19 4134 
L -19 4666 
z
" transform="scale(0.015625)"/>
       <path id="DejaVuSans-69" d="M 603 3500 
L 1178 3500 
L 1178 0 
L 603 0 
L 603 3500 
z
M 603 4863 
L 1178 4863 
L 1178 4134 
L 603 4134 
L 603 4863 
z
" transform="scale(0.015625)"/>
       <path id="DejaVuSans-6d" d="M 3328 2828 
Q 3544 3216 3844 3400 
Q 4144 3584 4550 3584 
Q 5097 3584 5394 3201 
Q 5691 2819 5691 2113 
L 5691 0 
L 5113 0 
L 5113 2094 
Q 5113 2597 4934 2840 
Q 4756 3084 4391 3084 
Q 3944 3084 3684 2787 
Q 3425 2491 3425 1978 
L 3425 0 
L 2847 0 
L 2847 2094 
Q 2847 2600 2669 2842 
Q 2491 3084 2119 3084 
Q 1678 3084 1418 2786 
Q 1159 2488 1159 1978 
L 1159 0 
L 581 0 
L 581 3500 
L 1159 3500 
L 1159 2956 
Q 1356 3278 1631 3431 
Q 1906 3584 2284 3584 
Q 2666 3584 2933 3390 
Q 3200 3197 3328 2828 
z
" transform="scale(0.015625)"/>
       <path id="DejaVuSans-65" d="M 3597 1894 
L 3597 1613 
L 953 1613 
Q 991 1019 1311 708 
Q 1631 397 2203 397 
Q 2534 397 2845 478 
Q 3156 559 3463 722 
L 3463 178 
Q 3153 47 2828 -22 
Q 2503 -91 2169 -91 
Q 1331 -91 842 396 
Q 353 884 353 1716 
Q 353 2575 817 3079 
Q 1281 3584 2069 3584 
Q 2775 3584 3186 3129 
Q 3597 2675 3597 1894 
z
M 3022 2063 
Q 3016 2534 2758 2815 
Q 2500 3097 2075 3097 
Q 1594 3097 1305 2825 
Q 1016 2553 972 2059 
L 3022 2063 
z
" transform="scale(0.015625)"/>
       <path id="DejaVuSans-20" transform="scale(0.015625)"/>
       <path id="DejaVuSans-28" d="M 1984 4856 
Q 1566 4138 1362 3434 
Q 1159 2731 1159 2009 
Q 1159 1288 1364 580 
Q 1569 -128 1984 -844 
L 1484 -844 
Q 1016 -109 783 600 
Q 550 1309 550 2009 
Q 550 2706 781 3412 
Q 1013 4119 1484 4856 
L 1984 4856 
z
" transform="scale(0.015625)"/>
       <path id="DejaVuSans-73" d="M 2834 3397 
L 2834 2853 
Q 2591 2978 2328 3040 
Q 2066 3103 1784 3103 
Q 1356 3103 1142 2972 
Q 928 2841 928 2578 
Q 928 2378 1081 2264 
Q 1234 2150 1697 2047 
L 1894 2003 
Q 2506 1872 2764 1633 
Q 3022 1394 3022 966 
Q 3022 478 2636 193 
Q 2250 -91 1575 -91 
Q 1294 -91 989 -36 
Q 684 19 347 128 
L 347 722 
Q 666 556 975 473 
Q 1284 391 1588 391 
Q 1994 391 2212 530 
Q 2431 669 2431 922 
Q 2431 1156 2273 1281 
Q 2116 1406 1581 1522 
L 1381 1569 
Q 847 1681 609 1914 
Q 372 2147 372 2553 
Q 372 3047 722 3315 
Q 1072 3584 1716 3584 
Q 2034 3584 2315 3537 
Q 2597 3491 2834 3397 
z
" transform="scale(0.015625)"/>
       <path id="DejaVuSans-29" d="M 513 4856 
L 1013 4856 
Q 1481 4119 1714 3412 
Q 1947 2706 1947 2009 
Q 1947 1309 1714 600 
Q 1481 -109 1013 -844 
L 513 -844 
Q 928 -128 1133 580 
Q 1338 1288 1338 2009 
Q 1338 2731 1133 3434 
Q 928 4138 513 4856 
z
" transform="scale(0.015625)"/>
      </defs>
      <use xlink:href="#DejaVuSans-54"/>
      <use xlink:href="#DejaVuSans-69" transform="translate(57.958984 0)"/>
      <use xlink:href="#DejaVuSans-6d" transform="translate(85.742188 0)"/>
      <use xlink:href="#DejaVuSans-65" transform="translate(183.154297 0)"/>
      <use xlink:href="#DejaVuSans-20" transform="translate(244.677734 0)"/>
      <use xlink:href="#DejaVuSans-28" transform="translate(276.464844 0)"/>
      <use xlink:href="#DejaVuSans-73" transform="translate(315.478516 0)"/>
      <use xlink:href="#DejaVuSans-29" transform="translate(367.578125 0)"/>
     </g>
    </g>
   </g>
   <g id="matplotlib.axis_2">
    <g id="ytick_1">
     <g id="line2d_17">
      <path d="M 47.307188 367.741449 
L 705.637188 367.741449 
" clip-path="url(#pbd727bf81e)" style="fill: none; stroke: #b0b0b0; stroke-opacity: 0.2; stroke-width: 0.6; stroke-linecap: square"/>
     </g>
     <g id="line2d_18">
      <defs>
       <path id="me61532f84d" d="M 0 0 
L -3.5 0 
" style="stroke: #000000; stroke-width: 0.8"/>
      </defs>
      <g>
       <use xlink:href="#me61532f84d" x="47.307188" y="367.741449" style="stroke: #000000; stroke-width: 0.8"/>
      </g>
     </g>
     <g id="text_10">
      <!-- 0.0 -->
      <g transform="translate(22.81375 371.920589) scale(0.11 -0.11)">
       <defs>
        <path id="DejaVuSans-2e" d="M 684 794 
L 1344 794 
L 1344 0 
L 684 0 
L 684 794 
z
" transform="scale(0.015625)"/>
       </defs>
       <use xlink:href="#DejaVuSans-30"/>
       <use xlink:href="#DejaVuSans-2e" transform="translate(63.623047 0)"/>
       <use xlink:href="#DejaVuSans-30" transform="translate(95.410156 0)"/>
      </g>
     </g>
    </g>
    <g id="ytick_2">
     <g id="line2d_19">
      <path d="M 47.307188 317.507205 
L 705.637188 317.507205 
" clip-path="url(#pbd727bf81e)" style="fill: none; stroke: #b0b0b0; stroke-opacity: 0.2; stroke-width: 0.6; stroke-linecap: square"/>
     </g>
     <g id="line2d_20">
      <g>
       <use xlink:href="#me61532f84d" x="47.307188" y="317.507205" style="stroke: #000000; stroke-width: 0.8"/>
      </g>
     </g>
     <g id="text_11">
      <!-- 0.5 -->
      <g transform="translate(22.81375 321.686345) scale(0.11 -0.11)">
       <use xlink:href="#DejaVuSans-30"/>
       <use xlink:href="#DejaVuSans-2e" transform="translate(63.623047 0)"/>
       <use xlink:href="#DejaVuSans-35" transform="translate(95.410156 0)"/>
      </g>
     </g>
    </g>
    <g id="ytick_3">
     <g id="line2d_21">
      <path d="M 47.307188 267.27296 
L 705.637188 267.27296 
" clip-path="url(#pbd727bf81e)" style="fill: none; stroke: #b0b0b0; stroke-opacity: 0.2; stroke-width: 0.6; stroke-linecap: square"/>
     </g>
     <g id="line2d_22">
      <g>
       <use xlink:href="#me61532f84d" x="47.307188" y="267.27296" style="stroke: #000000; stroke-width: 0.8"/>
      </g>
     </g>
     <g id="text_12">
      <!-- 1.0 -->
      <g transform="translate(22.81375 271.452101) scale(0.11 -0.11)">
       <use xlink:href="#DejaVuSans-31"/>
       <use xlink:href="#DejaVuSans-2e" transform="translate(63.623047 0)"/>
       <use xlink:href="#DejaVuSans-30" transform="translate(95.410156 0)"/>
      </g>
     </g>
    </g>
    <g id="ytick_4">
     <g id="line2d_23">
      <path d="M 47.307188 217.038716 
L 705.637188 217.038716 
" clip-path="url(#pbd727bf81e)" style="fill: none; stroke: #b0b0b0; stroke-opacity: 0.2; stroke-width: 0.6; stroke-linecap: square"/>
     </g>
     <g id="line2d_24">
      <g>
       <use xlink:href="#me61532f84d" x="47.307188" y="217.038716" style="stroke: #000000; stroke-width: 0.8"/>
      </g>
     </g>
     <g id="text_13">
      <!-- 1.5 -->
      <g transform="translate(22.81375 221.217857) scale(0.11 -0.11)">
       <use xlink:href="#DejaVuSans-31"/>
       <use xlink:href="#DejaVuSans-2e" transform="translate(63.623047 0)"/>
       <use xlink:href="#DejaVuSans-35" transform="translate(95.410156 0)"/>
      </g>
     </g>
    </g>
    <g id="ytick_5">
     <g id="line2d_25">
      <path d="M 47.307188 166.804472 
L 705.637188 166.804472 
" clip-path="url(#pbd727bf81e)" style="fill: none; stroke: #b0b0b0; stroke-opacity: 0.2; stroke-width: 0.6; stroke-linecap: square"/>
     </g>
     <g id="line2d_26">
      <g>
       <use xlink:href="#me61532f84d" x="47.307188" y="166.804472" style="stroke: #000000; stroke-width: 0.8"/>
      </g>
     </g>
     <g id="text_14">
      <!-- 2.0 -->
      <g transform="translate(22.81375 170.983612) scale(0.11 -0.11)">
       <use xlink:href="#DejaVuSans-32"/>
       <use xlink:href="#DejaVuSans-2e" transform="translate(63.623047 0)"/>
       <use xlink:href="#DejaVuSans-30" transform="translate(95.410156 0)"/>
      </g>
     </g>
    </g>
    <g id="ytick_6">
     <g id="line2d_27">
      <path d="M 47.307188 116.570227 
L 705.637188 116.570227 
" clip-path="url(#pbd727bf81e)" style="fill: none; stroke: #b0b0b0; stroke-opacity: 0.2; stroke-width: 0.6; stroke-linecap: square"/>
     </g>
     <g id="line2d_28">
      <g>
       <use xlink:href="#me61532f84d" x="47.307188" y="116.570227" style="stroke: #000000; stroke-width: 0.8"/>
      </g>
     </g>
     <g id="text_15">
      <!-- 2.5 -->
      <g transform="translate(22.81375 120.749368) scale(0.11 -0.11)">
       <use xlink:href="#DejaVuSans-32"/>
       <use xlink:href="#DejaVuSans-2e" transform="translate(63.623047 0)"/>
       <use xlink:href="#DejaVuSans-35" transform="translate(95.410156 0)"/>
      </g>
     </g>
    </g>
    <g id="ytick_7">
     <g id="line2d_29">
      <path d="M 47.307188 66.335983 
L 705.637188 66.335983 
" clip-path="url(#pbd727bf81e)" style="fill: none; stroke: #b0b0b0; stroke-opacity: 0.2; stroke-width: 0.6; stroke-linecap: square"/>
     </g>
     <g id="line2d_30">
      <g>
       <use xlink:href="#me61532f84d" x="47.307188" y="66.335983" style="stroke: #000000; stroke-width: 0.8"/>
      </g>
     </g>
     <g id="text_16">
      <!-- 3.0 -->
      <g transform="translate(22.81375 70.515124) scale(0.11 -0.11)">
       <defs>
        <path id="DejaVuSans-33" d="M 2597 2516 
Q 3050 2419 3304 2112 
Q 3559 1806 3559 1356 
Q 3559 666 3084 287 
Q 2609 -91 1734 -91 
Q 1441 -91 1130 -33 
Q 819 25 488 141 
L 488 750 
Q 750 597 1062 519 
Q 1375 441 1716 441 
Q 2309 441 2620 675 
Q 2931 909 2931 1356 
Q 2931 1769 2642 2001 
Q 2353 2234 1838 2234 
L 1294 2234 
L 1294 2753 
L 1863 2753 
Q 2328 2753 2575 2939 
Q 2822 3125 2822 3475 
Q 2822 3834 2567 4026 
Q 2313 4219 1838 4219 
Q 1578 4219 1281 4162 
Q 984 4106 628 3988 
L 628 4550 
Q 988 4650 1302 4700 
Q 1616 4750 1894 4750 
Q 2613 4750 3031 4423 
Q 3450 4097 3450 3541 
Q 3450 3153 3228 2886 
Q 3006 2619 2597 2516 
z
" transform="scale(0.015625)"/>
       </defs>
       <use xlink:href="#DejaVuSans-33"/>
       <use xlink:href="#DejaVuSans-2e" transform="translate(63.623047 0)"/>
       <use xlink:href="#DejaVuSans-30" transform="translate(95.410156 0)"/>
      </g>
     </g>
    </g>
    <g id="text_17">
     <!-- AU mean intensity -->
     <g transform="translate(16.318125 259.314687) rotate(-90) scale(0.12 -0.12)">
      <defs>
       <path id="DejaVuSans-41" d="M 2188 4044 
L 1331 1722 
L 3047 1722 
L 2188 4044 
z
M 1831 4666 
L 2547 4666 
L 4325 0 
L 3669 0 
L 3244 1197 
L 1141 1197 
L 716 0 
L 50 0 
L 1831 4666 
z
" transform="scale(0.015625)"/>
       <path id="DejaVuSans-55" d="M 556 4666 
L 1191 4666 
L 1191 1831 
Q 1191 1081 1462 751 
Q 1734 422 2344 422 
Q 2950 422 3222 751 
Q 3494 1081 3494 1831 
L 3494 4666 
L 4128 4666 
L 4128 1753 
Q 4128 841 3676 375 
Q 3225 -91 2344 -91 
Q 1459 -91 1007 375 
Q 556 841 556 1753 
L 556 4666 
z
" transform="scale(0.015625)"/>
       <path id="DejaVuSans-61" d="M 2194 1759 
Q 1497 1759 1228 1600 
Q 959 1441 959 1056 
Q 959 750 1161 570 
Q 1363 391 1709 391 
Q 2188 391 2477 730 
Q 2766 1069 2766 1631 
L 2766 1759 
L 2194 1759 
z
M 3341 1997 
L 3341 0 
L 2766 0 
L 2766 531 
Q 2569 213 2275 61 
Q 1981 -91 1556 -91 
Q 1019 -91 701 211 
Q 384 513 384 1019 
Q 384 1609 779 1909 
Q 1175 2209 1959 2209 
L 2766 2209 
L 2766 2266 
Q 2766 2663 2505 2880 
Q 2244 3097 1772 3097 
Q 1472 3097 1187 3025 
Q 903 2953 641 2809 
L 641 3341 
Q 956 3463 1253 3523 
Q 1550 3584 1831 3584 
Q 2591 3584 2966 3190 
Q 3341 2797 3341 1997 
z
" transform="scale(0.015625)"/>
       <path id="DejaVuSans-6e" d="M 3513 2113 
L 3513 0 
L 2938 0 
L 2938 2094 
Q 2938 2591 2744 2837 
Q 2550 3084 2163 3084 
Q 1697 3084 1428 2787 
Q 1159 2491 1159 1978 
L 1159 0 
L 581 0 
L 581 3500 
L 1159 3500 
L 1159 2956 
Q 1366 3272 1645 3428 
Q 1925 3584 2291 3584 
Q 2894 3584 3203 3211 
Q 3513 2838 3513 2113 
z
" transform="scale(0.015625)"/>
       <path id="DejaVuSans-74" d="M 1172 4494 
L 1172 3500 
L 2356 3500 
L 2356 3053 
L 1172 3053 
L 1172 1153 
Q 1172 725 1289 603 
Q 1406 481 1766 481 
L 2356 481 
L 2356 0 
L 1766 0 
Q 1100 0 847 248 
Q 594 497 594 1153 
L 594 3053 
L 172 3053 
L 172 3500 
L 594 3500 
L 594 4494 
L 1172 4494 
z
" transform="scale(0.015625)"/>
       <path id="DejaVuSans-79" d="M 2059 -325 
Q 1816 -950 1584 -1140 
Q 1353 -1331 966 -1331 
L 506 -1331 
L 506 -850 
L 844 -850 
Q 1081 -850 1212 -737 
Q 1344 -625 1503 -206 
L 1606 56 
L 191 3500 
L 800 3500 
L 1894 763 
L 2988 3500 
L 3597 3500 
L 2059 -325 
z
" transform="scale(0.015625)"/>
      </defs>
      <use xlink:href="#DejaVuSans-41"/>
      <use xlink:href="#DejaVuSans-55" transform="translate(68.408203 0)"/>
      <use xlink:href="#DejaVuSans-20" transform="translate(141.601562 0)"/>
      <use xlink:href="#DejaVuSans-6d" transform="translate(173.388672 0)"/>
      <use xlink:href="#DejaVuSans-65" transform="translate(270.800781 0)"/>
      <use xlink:href="#DejaVuSans-61" transform="translate(332.324219 0)"/>
      <use xlink:href="#DejaVuSans-6e" transform="translate(393.603516 0)"/>
      <use xlink:href="#DejaVuSans-20" transform="translate(456.982422 0)"/>
      <use xlink:href="#DejaVuSans-69" transform="translate(488.769531 0)"/>
      <use xlink:href="#DejaVuSans-6e" transform="translate(516.552734 0)"/>
      <use xlink:href="#DejaVuSans-74" transform="translate(579.931641 0)"/>
      <use xlink:href="#DejaVuSans-65" transform="translate(619.140625 0)"/>
      <use xlink:href="#DejaVuSans-6e" transform="translate(680.664062 0)"/>
      <use xlink:href="#DejaVuSans-73" transform="translate(744.042969 0)"/>
      <use xlink:href="#DejaVuSans-69" transform="translate(796.142578 0)"/>
      <use xlink:href="#DejaVuSans-74" transform="translate(823.925781 0)"/>
      <use xlink:href="#DejaVuSans-79" transform="translate(863.134766 0)"/>
     </g>
    </g>
   </g>
   <g id="FillBetweenPolyCollection_1">
    <defs>
     <path id="m63b6bdd8fa" d="M 47.307188 -195.106602 
L 47.307188 6.781703 
L 50.772082 4.334675 
L 54.236977 1.127713 
L 57.701872 7.734217 
L 61.166766 6.295791 
L 64.631661 0.970429 
L 68.096556 2.933873 
L 71.561451 5.982983 
L 75.026345 4.692051 
L 78.49124 4.925914 
L 81.956135 4.179475 
L 85.42103 1.43383 
L 88.885924 4.19165 
L 92.350819 4.993886 
L 95.815714 2.09161 
L 99.280609 3.048261 
L 102.745503 3.354986 
L 106.210398 2.769171 
L 109.675293 2.282927 
L 113.140187 4.659316 
L 116.605082 3.180579 
L 120.069977 2.934369 
L 123.534872 6.945528 
L 126.999766 2.646911 
L 130.464661 0.178715 
L 133.929556 6.202752 
L 137.394451 5.21687 
L 140.859345 0.917059 
L 144.32424 4.138771 
L 147.789135 1.633415 
L 151.25403 1.671709 
L 154.718924 3.911899 
L 158.183819 5.514602 
L 161.648714 1.918095 
L 165.113609 0.794082 
L 168.578503 3.517296 
L 172.043398 2.19128 
L 175.508293 3.382787 
L 178.973187 2.52844 
L 182.438082 0.705026 
L 185.902977 -0.748991 
L 189.367872 -0.076993 
L 192.832766 -2.415079 
L 196.297661 -3.948026 
L 199.762556 5.485323 
L 203.227451 -1.797187 
L 206.692345 3.437927 
L 210.15724 -1.89636 
L 213.622135 -2.690562 
L 217.08703 -5.522274 
L 220.551924 -3.159763 
L 224.016819 -7.165187 
L 227.481714 -4.253019 
L 230.946609 -7.299094 
L 234.411503 -4.212833 
L 237.876398 -2.905444 
L 241.341293 -9.124561 
L 244.806187 -9.077965 
L 248.271082 -9.032273 
L 251.735977 -7.20674 
L 255.200872 -10.286611 
L 258.665766 -5.787856 
L 262.130661 -7.296364 
L 265.595556 -10.974467 
L 269.060451 -6.555797 
L 272.525345 -3.091858 
L 275.99024 -5.265618 
L 279.455135 -4.305296 
L 282.92003 -5.929508 
L 286.384924 -10.959457 
L 289.849819 -10.979558 
L 293.314714 -8.690087 
L 296.779609 -7.354151 
L 300.244503 -5.081539 
L 303.709398 -6.925679 
L 307.174293 -5.713992 
L 310.639187 -7.197747 
L 314.104082 -5.416906 
L 317.568977 -2.75598 
L 321.033872 -6.575339 
L 324.498766 -8.131608 
L 327.963661 -9.50265 
L 331.428556 -4.620357 
L 334.893451 -5.298356 
L 338.358345 -4.835629 
L 341.82324 -3.320627 
L 345.288135 -2.870784 
L 348.75303 -2.32908 
L 352.217924 -2.40788 
L 355.682819 -2.481298 
L 359.147714 -4.008888 
L 362.612609 -4.235347 
L 366.077503 -4.761417 
L 369.542398 -5.3144 
L 373.007293 -1.882621 
L 376.472188 -3.775436 
L 379.937082 -5.71552 
L 383.401977 -8.411125 
L 386.866872 -3.337944 
L 390.331766 -7.207691 
L 393.796661 -9.226069 
L 397.261556 -5.51918 
L 400.726451 -7.143685 
L 404.191345 -1.039528 
L 407.65624 -4.940558 
L 411.121135 -5.427599 
L 414.58603 -12.848572 
L 418.050924 -12.981401 
L 421.515819 -12.151662 
L 424.980714 -16.679313 
L 428.445609 -2.839629 
L 431.910503 -7.866736 
L 435.375398 -17.68879 
L 438.840293 -10.768984 
L 442.305187 -14.305933 
L 445.770082 -13.486583 
L 449.234977 -11.406186 
L 452.699872 -9.830957 
L 456.164766 -8.688945 
L 459.629661 -4.567343 
L 463.094556 -6.306323 
L 466.559451 -5.211972 
L 470.024345 -11.723887 
L 473.48924 -7.074677 
L 476.954135 -4.059557 
L 480.41903 -5.063608 
L 483.883924 -8.402458 
L 487.348819 -6.83558 
L 490.813714 -4.995095 
L 494.278609 -3.165946 
L 497.743503 -0.951346 
L 501.208398 0.145786 
L 504.673293 5.449672 
L 508.138188 5.959115 
L 511.603082 7.498883 
L 515.067977 4.082182 
L 518.532872 -1.184047 
L 521.997766 -2.423022 
L 525.462661 0.571392 
L 528.927556 3.358205 
L 532.392451 0.221741 
L 535.857345 -0.054794 
L 539.32224 5.186256 
L 542.787135 4.007356 
L 546.25203 2.955274 
L 549.716924 -0.522091 
L 553.181819 2.452587 
L 556.646714 -0.254466 
L 560.111609 2.17397 
L 563.576503 1.948669 
L 567.041398 -0.652497 
L 570.506293 -0.250545 
L 573.971188 -1.727193 
L 577.436082 -1.943647 
L 580.900977 4.104643 
L 584.365872 6.596205 
L 587.830766 -3.20482 
L 591.295661 2.951125 
L 594.760556 -1.155575 
L 598.225451 0.241879 
L 601.690345 1.146626 
L 605.15524 0.062534 
L 608.620135 0.670434 
L 612.08503 7.029487 
L 615.549924 16.644653 
L 619.014819 11.613064 
L 622.479714 8.137171 
L 625.944609 7.071405 
L 629.409503 8.363292 
L 632.874398 -5.728553 
L 636.339293 -5.142154 
L 639.804188 -9.080626 
L 643.269082 2.053288 
L 646.733977 9.979471 
L 650.198872 1.498775 
L 653.663766 9.173383 
L 657.128661 1.388698 
L 660.593556 2.557368 
L 664.058451 -0.464177 
L 667.523345 -6.382526 
L 670.98824 3.250416 
L 674.453135 10.502705 
L 677.91803 4.480566 
L 681.382924 7.447023 
L 684.847819 -1.459056 
L 688.312714 -3.850325 
L 691.777609 -0.341442 
L 695.242503 0.598465 
L 698.707398 -1.796954 
L 702.172293 -9.20602 
L 705.637188 -70.327525 
L 705.637188 -124.389158 
L 705.637188 -124.389158 
L 702.172293 -193.815346 
L 698.707398 -208.269019 
L 695.242503 -209.866862 
L 691.777609 -204.384427 
L 688.312714 -198.300103 
L 684.847819 -190.407861 
L 681.382924 -204.242076 
L 677.91803 -203.318347 
L 674.453135 -217.118553 
L 670.98824 -214.669445 
L 667.523345 -198.983529 
L 664.058451 -211.684059 
L 660.593556 -219.612411 
L 657.128661 -215.015604 
L 653.663766 -225.69577 
L 650.198872 -211.495851 
L 646.733977 -231.197028 
L 643.269082 -227.819865 
L 639.804188 -215.910562 
L 636.339293 -221.815461 
L 632.874398 -215.309719 
L 629.409503 -235.313615 
L 625.944609 -232.211563 
L 622.479714 -236.173202 
L 619.014819 -240.959041 
L 615.549924 -245.469847 
L 612.08503 -235.335268 
L 608.620135 -224.623717 
L 605.15524 -221.303476 
L 601.690345 -223.111606 
L 598.225451 -217.633838 
L 594.760556 -213.232136 
L 591.295661 -215.748382 
L 587.830766 -200.232636 
L 584.365872 -196.021547 
L 580.900977 -196.538369 
L 577.436082 -186.966362 
L 573.971188 -184.569042 
L 570.506293 -184.54805 
L 567.041398 -185.044168 
L 563.576503 -190.027214 
L 560.111609 -191.461574 
L 556.646714 -189.27481 
L 553.181819 -196.361741 
L 549.716924 -190.045648 
L 546.25203 -197.666555 
L 542.787135 -201.923152 
L 539.32224 -201.45723 
L 535.857345 -192.951904 
L 532.392451 -189.399154 
L 528.927556 -196.731266 
L 525.462661 -192.548959 
L 521.997766 -190.518718 
L 518.532872 -196.170204 
L 515.067977 -205.1151 
L 511.603082 -205.677138 
L 508.138188 -197.045652 
L 504.673293 -193.999967 
L 501.208398 -186.78919 
L 497.743503 -186.733623 
L 494.278609 -190.522379 
L 490.813714 -183.511447 
L 487.348819 -184.386069 
L 483.883924 -184.261373 
L 480.41903 -179.855377 
L 476.954135 -187.579333 
L 473.48924 -183.122367 
L 470.024345 -190.991654 
L 466.559451 -205.051921 
L 463.094556 -207.144762 
L 459.629661 -208.887291 
L 456.164766 -198.069643 
L 452.699872 -194.975591 
L 449.234977 -195.083405 
L 445.770082 -184.297565 
L 442.305187 -182.155445 
L 438.840293 -186.865327 
L 435.375398 -187.488229 
L 431.910503 -199.691436 
L 428.445609 -202.539948 
L 424.980714 -189.064364 
L 421.515819 -192.051461 
L 418.050924 -197.855855 
L 414.58603 -197.117715 
L 411.121135 -200.81409 
L 407.65624 -206.378003 
L 404.191345 -201.003271 
L 400.726451 -194.960132 
L 397.261556 -205.342328 
L 393.796661 -195.971205 
L 390.331766 -191.091791 
L 386.866872 -182.447847 
L 383.401977 -175.570731 
L 379.937082 -182.556866 
L 376.472188 -185.557233 
L 373.007293 -181.050351 
L 369.542398 -179.112636 
L 366.077503 -179.499521 
L 362.612609 -178.662143 
L 359.147714 -180.055165 
L 355.682819 -182.703582 
L 352.217924 -189.12649 
L 348.75303 -183.973078 
L 345.288135 -180.997193 
L 341.82324 -180.702802 
L 338.358345 -182.862304 
L 334.893451 -182.860738 
L 331.428556 -182.119884 
L 327.963661 -176.516292 
L 324.498766 -177.366551 
L 321.033872 -177.182195 
L 317.568977 -181.05366 
L 314.104082 -177.702307 
L 310.639187 -176.629719 
L 307.174293 -178.461006 
L 303.709398 -177.659351 
L 300.244503 -183.427462 
L 296.779609 -179.13897 
L 293.314714 -180.813205 
L 289.849819 -182.34137 
L 286.384924 -180.910907 
L 282.92003 -185.719916 
L 279.455135 -185.599004 
L 275.99024 -182.578156 
L 272.525345 -188.93354 
L 269.060451 -185.162495 
L 265.595556 -183.170296 
L 262.130661 -185.90546 
L 258.665766 -187.282934 
L 255.200872 -182.163319 
L 251.735977 -193.017233 
L 248.271082 -191.422728 
L 244.806187 -192.854838 
L 241.341293 -191.26319 
L 237.876398 -197.550646 
L 234.411503 -200.41323 
L 230.946609 -194.735044 
L 227.481714 -194.246897 
L 224.016819 -195.906548 
L 220.551924 -197.301719 
L 217.08703 -198.289983 
L 213.622135 -202.441084 
L 210.15724 -200.181949 
L 206.692345 -210.032038 
L 203.227451 -206.819369 
L 199.762556 -209.213651 
L 196.297661 -201.323622 
L 192.832766 -190.212292 
L 189.367872 -187.11206 
L 185.902977 -183.219455 
L 182.438082 -183.063797 
L 178.973187 -186.488783 
L 175.508293 -183.180477 
L 172.043398 -180.817071 
L 168.578503 -186.01984 
L 165.113609 -183.651703 
L 161.648714 -186.764327 
L 158.183819 -191.583162 
L 154.718924 -187.630458 
L 151.25403 -183.837394 
L 147.789135 -181.442364 
L 144.32424 -186.789783 
L 140.859345 -183.184022 
L 137.394451 -189.400836 
L 133.929556 -189.436291 
L 130.464661 -190.091005 
L 126.999766 -191.941471 
L 123.534872 -197.002039 
L 120.069977 -189.395025 
L 116.605082 -188.264711 
L 113.140187 -187.904114 
L 109.675293 -184.76136 
L 106.210398 -188.005151 
L 102.745503 -187.957841 
L 99.280609 -188.278179 
L 95.815714 -187.405037 
L 92.350819 -191.024086 
L 88.885924 -191.24545 
L 85.42103 -188.181168 
L 81.956135 -191.141719 
L 78.49124 -191.373578 
L 75.026345 -190.814087 
L 71.561451 -189.226915 
L 68.096556 -187.441931 
L 64.631661 -184.843156 
L 61.166766 -194.973292 
L 57.701872 -198.957599 
L 54.236977 -184.776928 
L 50.772082 -187.05288 
L 47.307188 -195.106602 
z
" style="stroke: #d3d3d3; stroke-opacity: 0.5"/>
    </defs>
    <g clip-path="url(#pbd727bf81e)">
     <use xlink:href="#m63b6bdd8fa" x="0" y="424.5775" style="fill: #d3d3d3; fill-opacity: 0.5; stroke: #d3d3d3; stroke-opacity: 0.5"/>
    </g>
   </g>
   <g id="FillBetweenPolyCollection_2">
    <defs>
     <path id="mb5d52f69cc" d="M 47.307188 -144.634525 
L 47.307188 -43.690373 
L 50.772082 -43.512214 
L 54.236977 -45.348447 
L 57.701872 -43.938737 
L 61.166766 -44.021479 
L 64.631661 -45.482967 
L 68.096556 -44.660078 
L 71.561451 -42.819491 
L 75.026345 -44.184484 
L 78.49124 -44.148959 
L 81.956135 -44.650824 
L 85.42103 -45.969919 
L 88.885924 -44.667625 
L 92.350819 -44.010607 
L 95.815714 -45.282552 
L 99.280609 -44.783349 
L 102.745503 -44.473221 
L 106.210398 -44.924409 
L 109.675293 -44.478145 
L 113.140187 -43.481542 
L 116.605082 -44.680743 
L 120.069977 -45.14798 
L 123.534872 -44.041364 
L 126.999766 -46.000185 
L 130.464661 -47.388715 
L 133.929556 -42.707009 
L 137.394451 -43.437557 
L 140.859345 -45.108211 
L 144.32424 -43.593367 
L 147.789135 -44.13553 
L 151.25403 -44.705566 
L 154.718924 -43.97369 
L 158.183819 -43.759839 
L 161.648714 -45.25251 
L 165.113609 -45.317364 
L 168.578503 -43.866988 
L 172.043398 -43.560807 
L 175.508293 -43.258029 
L 178.973187 -44.725866 
L 182.438082 -45.237179 
L 185.902977 -46.366607 
L 189.367872 -46.83576 
L 192.832766 -49.364382 
L 196.297661 -53.291925 
L 199.762556 -48.189421 
L 203.227451 -53.052733 
L 206.692345 -49.929564 
L 210.15724 -51.467758 
L 213.622135 -52.628193 
L 217.08703 -53.714201 
L 220.551924 -51.695252 
L 224.016819 -54.350527 
L 227.481714 -51.751488 
L 230.946609 -54.158081 
L 234.411503 -53.262932 
L 237.876398 -51.566744 
L 241.341293 -54.659218 
L 244.806187 -55.022183 
L 248.271082 -54.629886 
L 251.735977 -53.659363 
L 255.200872 -53.255788 
L 258.665766 -51.161625 
L 262.130661 -51.948638 
L 265.595556 -54.023424 
L 269.060451 -51.207472 
L 272.525345 -49.552279 
L 275.99024 -49.593753 
L 279.455135 -49.628723 
L 282.92003 -50.87711 
L 286.384924 -53.44732 
L 289.849819 -53.820011 
L 293.314714 -51.720867 
L 296.779609 -50.300356 
L 300.244503 -49.668019 
L 303.709398 -49.609097 
L 307.174293 -48.900746 
L 310.639187 -49.55574 
L 314.104082 -48.488256 
L 317.568977 -47.3304 
L 321.033872 -49.227053 
L 324.498766 -50.440344 
L 327.963661 -51.25606 
L 331.428556 -48.995239 
L 334.893451 -49.688951 
L 338.358345 -49.342298 
L 341.82324 -47.666171 
L 345.288135 -47.402386 
L 348.75303 -47.74008 
L 352.217924 -49.087533 
L 355.682819 -47.536869 
L 359.147714 -48.020457 
L 362.612609 -47.842046 
L 366.077503 -48.445943 
L 369.542398 -48.763959 
L 373.007293 -46.674553 
L 376.472188 -49.220885 
L 379.937082 -49.925856 
L 383.401977 -50.201027 
L 386.866872 -48.115419 
L 390.331766 -53.178716 
L 393.796661 -55.912353 
L 397.261556 -55.474967 
L 400.726451 -54.097797 
L 404.191345 -51.030464 
L 407.65624 -55.299919 
L 411.121135 -54.274222 
L 414.58603 -58.915858 
L 418.050924 -59.200015 
L 421.515819 -57.126612 
L 424.980714 -59.775576 
L 428.445609 -52.764708 
L 431.910503 -55.822911 
L 435.375398 -60.13865 
L 438.840293 -54.79307 
L 442.305187 -56.268311 
L 445.770082 -56.189328 
L 449.234977 -57.325491 
L 452.699872 -56.117116 
L 456.164766 -56.034119 
L 459.629661 -55.64733 
L 463.094556 -56.515933 
L 466.559451 -55.171959 
L 470.024345 -56.540829 
L 473.48924 -51.0866 
L 476.954135 -49.939501 
L 480.41903 -48.76155 
L 483.883924 -52.367187 
L 487.348819 -51.223203 
L 490.813714 -49.624183 
L 494.278609 -50.005054 
L 497.743503 -47.396915 
L 501.208398 -46.587958 
L 504.673293 -44.412738 
L 508.138188 -44.792077 
L 511.603082 -45.795122 
L 515.067977 -48.217138 
L 518.532872 -49.930586 
L 521.997766 -49.446946 
L 525.462661 -47.708695 
L 528.927556 -46.664163 
L 532.392451 -47.183482 
L 535.857345 -48.279071 
L 539.32224 -46.474616 
L 542.787135 -47.475271 
L 546.25203 -47.200183 
L 549.716924 -47.90298 
L 553.181819 -47.250995 
L 556.646714 -47.509552 
L 560.111609 -46.234916 
L 563.576503 -46.045302 
L 567.041398 -46.750415 
L 570.506293 -46.324922 
L 573.971188 -47.437656 
L 577.436082 -48.199326 
L 580.900977 -46.05611 
L 584.365872 -44.058233 
L 587.830766 -52.461774 
L 591.295661 -51.723752 
L 594.760556 -54.174715 
L 598.225451 -54.22705 
L 601.690345 -54.917932 
L 605.15524 -55.278968 
L 608.620135 -55.653104 
L 612.08503 -53.561702 
L 615.549924 -48.883972 
L 619.014819 -51.529962 
L 622.479714 -52.940422 
L 625.944609 -52.749337 
L 629.409503 -52.555935 
L 632.874398 -58.123845 
L 636.339293 -59.310481 
L 639.804188 -60.78811 
L 643.269082 -55.415 
L 646.733977 -50.314653 
L 650.198872 -51.749882 
L 653.663766 -49.543905 
L 657.128661 -52.712377 
L 660.593556 -52.985077 
L 664.058451 -53.269147 
L 667.523345 -54.532776 
L 670.98824 -51.229549 
L 674.453135 -46.402609 
L 677.91803 -47.469163 
L 681.382924 -45.475252 
L 684.847819 -48.696257 
L 688.312714 -52.462769 
L 691.777609 -51.352188 
L 695.242503 -52.017867 
L 698.707398 -53.41497 
L 702.172293 -55.358351 
L 705.637188 -83.842933 
L 705.637188 -110.87375 
L 705.637188 -110.87375 
L 702.172293 -147.663014 
L 698.707398 -156.651003 
L 695.242503 -157.25053 
L 691.777609 -153.373681 
L 688.312714 -149.687658 
L 684.847819 -143.170659 
L 681.382924 -151.319801 
L 677.91803 -151.368619 
L 674.453135 -160.213238 
L 670.98824 -160.18948 
L 667.523345 -150.833278 
L 664.058451 -158.879089 
L 660.593556 -164.069966 
L 657.128661 -160.914528 
L 653.663766 -166.978482 
L 650.198872 -158.247194 
L 646.733977 -170.902903 
L 643.269082 -170.351577 
L 639.804188 -164.203078 
L 636.339293 -167.647134 
L 632.874398 -162.914428 
L 629.409503 -174.394388 
L 625.944609 -172.390821 
L 622.479714 -175.095609 
L 619.014819 -177.816015 
L 615.549924 -179.941222 
L 612.08503 -174.74408 
L 608.620135 -168.300179 
L 605.15524 -165.961973 
L 601.690345 -167.047048 
L 598.225451 -163.164909 
L 594.760556 -160.212996 
L 591.295661 -161.073506 
L 587.830766 -150.975682 
L 584.365872 -145.367109 
L 580.900977 -146.377616 
L 577.436082 -140.710683 
L 573.971188 -138.85858 
L 570.506293 -138.473674 
L 567.041398 -138.94625 
L 563.576503 -142.033243 
L 560.111609 -143.052688 
L 556.646714 -142.019724 
L 553.181819 -146.658159 
L 549.716924 -142.664759 
L 546.25203 -147.511098 
L 542.787135 -150.440525 
L 539.32224 -149.796358 
L 535.857345 -144.727626 
L 532.392451 -141.99393 
L 528.927556 -146.708898 
L 525.462661 -144.268871 
L 521.997766 -143.494794 
L 518.532872 -147.423665 
L 515.067977 -152.815779 
L 511.603082 -152.383132 
L 508.138188 -146.29446 
L 504.673293 -144.137557 
L 501.208398 -140.055446 
L 497.743503 -140.288054 
L 494.278609 -143.683271 
L 490.813714 -138.882359 
L 487.348819 -139.998447 
L 483.883924 -140.296644 
L 480.41903 -136.157434 
L 476.954135 -141.699389 
L 473.48924 -139.110445 
L 470.024345 -146.174712 
L 466.559451 -155.091934 
L 463.094556 -156.935152 
L 459.629661 -157.807304 
L 456.164766 -150.724468 
L 452.699872 -148.689433 
L 449.234977 -149.1641 
L 445.770082 -141.594819 
L 442.305187 -140.193067 
L 438.840293 -142.841241 
L 435.375398 -145.038369 
L 431.910503 -151.735261 
L 428.445609 -152.614868 
L 424.980714 -145.968101 
L 421.515819 -147.076511 
L 418.050924 -151.637242 
L 414.58603 -151.050429 
L 411.121135 -151.967467 
L 407.65624 -156.018642 
L 404.191345 -151.012335 
L 400.726451 -148.006021 
L 397.261556 -155.386541 
L 393.796661 -149.284921 
L 390.331766 -145.120766 
L 386.866872 -137.670371 
L 383.401977 -133.780829 
L 379.937082 -138.346529 
L 376.472188 -140.111784 
L 373.007293 -136.258418 
L 369.542398 -135.663077 
L 366.077503 -135.814995 
L 362.612609 -135.055444 
L 359.147714 -136.043595 
L 355.682819 -137.648011 
L 352.217924 -142.446838 
L 348.75303 -138.562079 
L 345.288135 -136.465591 
L 341.82324 -136.357258 
L 338.358345 -138.355635 
L 334.893451 -138.470142 
L 331.428556 -137.745002 
L 327.963661 -134.762881 
L 324.498766 -135.057815 
L 321.033872 -134.530481 
L 317.568977 -136.47924 
L 314.104082 -134.630957 
L 310.639187 -134.271726 
L 307.174293 -135.274252 
L 303.709398 -134.975933 
L 300.244503 -138.840981 
L 296.779609 -136.192765 
L 293.314714 -137.782426 
L 289.849819 -139.500917 
L 286.384924 -138.423045 
L 282.92003 -140.772314 
L 279.455135 -140.275577 
L 275.99024 -138.250022 
L 272.525345 -142.473119 
L 269.060451 -140.510821 
L 265.595556 -140.121339 
L 262.130661 -141.253186 
L 258.665766 -141.909164 
L 255.200872 -139.194142 
L 251.735977 -146.56461 
L 248.271082 -145.825114 
L 244.806187 -146.91062 
L 241.341293 -145.728533 
L 237.876398 -148.889345 
L 234.411503 -151.363131 
L 230.946609 -147.876056 
L 227.481714 -146.748427 
L 224.016819 -148.721208 
L 220.551924 -148.76623 
L 217.08703 -150.098056 
L 213.622135 -152.503454 
L 210.15724 -150.610552 
L 206.692345 -156.664547 
L 203.227451 -155.563824 
L 199.762556 -155.538908 
L 196.297661 -151.979723 
L 192.832766 -143.262989 
L 189.367872 -140.353293 
L 185.902977 -137.601839 
L 182.438082 -137.121591 
L 178.973187 -139.234477 
L 175.508293 -136.539661 
L 172.043398 -135.064983 
L 168.578503 -138.635556 
L 165.113609 -137.540256 
L 161.648714 -139.593721 
L 158.183819 -142.308721 
L 154.718924 -139.744869 
L 151.25403 -137.460118 
L 147.789135 -135.673419 
L 144.32424 -139.057645 
L 140.859345 -137.158752 
L 137.394451 -140.74641 
L 133.929556 -140.52653 
L 130.464661 -142.523575 
L 126.999766 -143.294376 
L 123.534872 -146.015147 
L 120.069977 -141.312677 
L 116.605082 -140.403388 
L 113.140187 -139.763257 
L 109.675293 -138.000288 
L 106.210398 -140.311571 
L 102.745503 -140.129634 
L 99.280609 -140.446569 
L 95.815714 -140.030875 
L 92.350819 -142.019593 
L 88.885924 -142.386175 
L 85.42103 -140.777418 
L 81.956135 -142.311421 
L 78.49124 -142.298705 
L 75.026345 -141.937552 
L 71.561451 -140.424441 
L 68.096556 -139.84798 
L 64.631661 -138.389759 
L 61.166766 -144.656021 
L 57.701872 -147.284645 
L 54.236977 -138.300768 
L 50.772082 -139.205991 
L 47.307188 -144.634525 
z
" style="stroke: #808080; stroke-opacity: 0.7"/>
    </defs>
    <g clip-path="url(#pbd727bf81e)">
     <use xlink:href="#mb5d52f69cc" x="0" y="424.5775" style="fill: #808080; fill-opacity: 0.7; stroke: #808080; stroke-opacity: 0.7"/>
    </g>
   </g>
   <g id="line2d_31">
    <path d="M 47.307188 367.741449 
L 54.236977 367.45299 
L 57.701872 359.874563 
L 61.166766 357.64322 
L 64.631661 356.465065 
L 68.096556 360.986677 
L 71.561451 365.084876 
L 75.026345 355.602468 
L 78.49124 351.366903 
L 81.956135 360.789779 
L 85.42103 355.710036 
L 88.885924 354.763928 
L 92.350819 351.297564 
L 95.815714 353.279084 
L 99.280609 357.767333 
L 102.745503 356.215433 
L 106.210398 357.701088 
L 109.675293 349.86011 
L 113.140187 346.457221 
L 116.605082 355.798968 
L 120.069977 359.653952 
L 123.534872 358.325928 
L 126.999766 354.72948 
L 130.464661 361.478939 
L 133.929556 356.584555 
L 137.394451 353.182719 
L 140.859345 354.311753 
L 144.32424 351.084279 
L 147.789135 346.681181 
L 151.25403 335.647447 
L 154.718924 349.116701 
L 158.183819 349.819977 
L 161.648714 352.792271 
L 165.113609 366.449214 
L 168.578503 356.945221 
L 172.043398 355.66831 
L 175.508293 356.371943 
L 178.973187 357.375057 
L 182.438082 355.839559 
L 185.902977 360.609008 
L 189.367872 357.456788 
L 192.832766 366.384863 
L 196.297661 358.563653 
L 199.762556 360.585561 
L 203.227451 357.776509 
L 206.692345 349.840105 
L 210.15724 358.181179 
L 213.622135 365.63458 
L 217.08703 347.794019 
L 220.551924 344.138782 
L 224.016819 341.364689 
L 227.481714 348.646094 
L 230.946609 334.478004 
L 234.411503 317.497068 
L 237.876398 326.863258 
L 241.341293 331.185689 
L 244.806187 323.674355 
L 248.271082 336.848286 
L 251.735977 317.233766 
L 255.200872 338.81307 
L 258.665766 329.638585 
L 262.130661 325.394346 
L 265.595556 336.081264 
L 269.060451 335.568991 
L 272.525345 334.052881 
L 275.99024 344.567807 
L 279.455135 352.200984 
L 282.92003 346.56155 
L 286.384924 350.277013 
L 289.849819 352.200345 
L 293.314714 355.477435 
L 296.779609 349.203667 
L 300.244503 343.245507 
L 303.709398 344.288983 
L 307.174293 342.81385 
L 310.639187 346.781931 
L 314.104082 338.799413 
L 317.568977 349.236329 
L 321.033872 351.768184 
L 324.498766 338.912184 
L 327.963661 347.973391 
L 331.428556 349.06378 
L 334.893451 350.317046 
L 338.358345 353.526015 
L 341.82324 346.403039 
L 345.288135 348.670901 
L 348.75303 341.501268 
L 352.217924 340.91732 
L 359.147714 358.47404 
L 362.612609 363.218891 
L 366.077503 357.573738 
L 369.542398 355.042104 
L 373.007293 355.952923 
L 376.472188 351.385571 
L 383.401977 343.8036 
L 386.866872 347.42186 
L 390.331766 362.023128 
L 393.796661 359.76247 
L 397.261556 358.26178 
L 400.726451 362.833088 
L 404.191345 356.525429 
L 407.65624 359.895897 
L 411.121135 350.247978 
L 414.58603 344.689003 
L 418.050924 335.368656 
L 421.515819 335.13384 
L 424.980714 353.457188 
L 428.445609 346.804409 
L 431.910503 338.320067 
L 435.375398 357.542012 
L 438.840293 349.795182 
L 442.305187 335.898886 
L 445.770082 361.633993 
L 449.234977 342.938384 
L 452.699872 347.894708 
L 456.164766 356.506655 
L 459.629661 364.368002 
L 463.094556 347.618917 
L 466.559451 357.371063 
L 470.024345 358.551552 
L 473.48924 357.669082 
L 476.954135 339.022126 
L 480.41903 339.838086 
L 483.883924 347.604552 
L 487.348819 358.589397 
L 490.813714 355.172128 
L 494.278609 353.76646 
L 497.743503 349.600771 
L 501.208398 354.339998 
L 504.673293 352.797254 
L 508.138188 364.107839 
L 511.603082 366.731087 
L 515.067977 367.110065 
L 518.532872 366.994916 
L 521.997766 361.579488 
L 525.462661 364.645919 
L 528.927556 349.046574 
L 532.392451 352.577769 
L 535.857345 358.020531 
L 539.32224 356.631018 
L 542.787135 348.696683 
L 546.25203 345.45948 
L 549.716924 355.169428 
L 553.181819 354.422765 
L 556.646714 354.46464 
L 560.111609 350.844149 
L 563.576503 346.48292 
L 567.041398 348.647912 
L 570.506293 353.797925 
L 573.971188 349.346364 
L 577.436082 340.779113 
L 580.900977 327.492488 
L 584.365872 276.70319 
L 587.830766 267.077462 
L 591.295661 278.18187 
L 594.760556 283.02752 
L 598.225451 305.028258 
L 601.690345 301.41373 
L 605.15524 311.22373 
L 608.620135 280.903024 
L 612.08503 317.013778 
L 615.549924 305.351409 
L 619.014819 306.414496 
L 622.479714 275.876845 
L 625.944609 282.194256 
L 629.409503 306.8196 
L 632.874398 308.879128 
L 636.339293 318.36409 
L 639.804188 323.922541 
L 643.269082 325.389675 
L 646.733977 301.831801 
L 650.198872 264.788608 
L 653.663766 280.416758 
L 657.128661 255.481306 
L 660.593556 250.77798 
L 664.058451 259.527055 
L 667.523345 297.288644 
L 670.98824 304.236206 
L 674.453135 329.112233 
L 677.91803 335.991825 
L 681.382924 318.279856 
L 684.847819 323.221569 
L 688.312714 316.275755 
L 691.777609 324.762085 
L 695.242503 333.59465 
L 698.707398 334.496227 
L 702.172293 315.553115 
L 705.637188 315.096725 
L 705.637188 315.096725 
" clip-path="url(#pbd727bf81e)" style="fill: none; stroke: #ff8c00; stroke-width: 2.3; stroke-linecap: square"/>
   </g>
   <g id="line2d_32">
    <path d="M 275.99024 384.117812 
L 275.99024 23.837812 
" clip-path="url(#pbd727bf81e)" style="fill: none; stroke-dasharray: 5.55,2.4; stroke-dashoffset: 0; stroke: #808080; stroke-width: 1.5"/>
   </g>
   <g id="line2d_33">
    <path d="M 473.48924 384.117812 
L 473.48924 23.837812 
" clip-path="url(#pbd727bf81e)" style="fill: none; stroke-dasharray: 5.55,2.4; stroke-dashoffset: 0; stroke: #808080; stroke-width: 1.5"/>
   </g>
   <g id="patch_3">
    <path d="M 47.307188 384.117812 
L 47.307188 23.837812 
" style="fill: none; stroke: #000000; stroke-width: 0.8; stroke-linejoin: miter; stroke-linecap: square"/>
   </g>
   <g id="patch_4">
    <path d="M 705.637188 384.117812 
L 705.637188 23.837812 
" style="fill: none; stroke: #000000; stroke-width: 0.8; stroke-linejoin: miter; stroke-linecap: square"/>
   </g>
   <g id="patch_5">
    <path d="M 47.307188 384.117812 
L 705.637188 384.117812 
" style="fill: none; stroke: #000000; stroke-width: 0.8; stroke-linejoin: miter; stroke-linecap: square"/>
   </g>
   <g id="patch_6">
    <path d="M 47.307188 23.837812 
L 705.637188 23.837812 
" style="fill: none; stroke: #000000; stroke-width: 0.8; stroke-linejoin: miter; stroke-linecap: square"/>
   </g>
   <g id="text_18">
    <!-- Facial trace: Control group (female) -->
    <g transform="translate(252.222188 17.837812) scale(0.14 -0.14)">
     <defs>
      <path id="DejaVuSans-46" d="M 628 4666 
L 3309 4666 
L 3309 4134 
L 1259 4134 
L 1259 2759 
L 3109 2759 
L 3109 2228 
L 1259 2228 
L 1259 0 
L 628 0 
L 628 4666 
z
" transform="scale(0.015625)"/>
      <path id="DejaVuSans-63" d="M 3122 3366 
L 3122 2828 
Q 2878 2963 2633 3030 
Q 2388 3097 2138 3097 
Q 1578 3097 1268 2742 
Q 959 2388 959 1747 
Q 959 1106 1268 751 
Q 1578 397 2138 397 
Q 2388 397 2633 464 
Q 2878 531 3122 666 
L 3122 134 
Q 2881 22 2623 -34 
Q 2366 -91 2075 -91 
Q 1284 -91 818 406 
Q 353 903 353 1747 
Q 353 2603 823 3093 
Q 1294 3584 2113 3584 
Q 2378 3584 2631 3529 
Q 2884 3475 3122 3366 
z
" transform="scale(0.015625)"/>
      <path id="DejaVuSans-6c" d="M 603 4863 
L 1178 4863 
L 1178 0 
L 603 0 
L 603 4863 
z
" transform="scale(0.015625)"/>
      <path id="DejaVuSans-72" d="M 2631 2963 
Q 2534 3019 2420 3045 
Q 2306 3072 2169 3072 
Q 1681 3072 1420 2755 
Q 1159 2438 1159 1844 
L 1159 0 
L 581 0 
L 581 3500 
L 1159 3500 
L 1159 2956 
Q 1341 3275 1631 3429 
Q 1922 3584 2338 3584 
Q 2397 3584 2469 3576 
Q 2541 3569 2628 3553 
L 2631 2963 
z
" transform="scale(0.015625)"/>
      <path id="DejaVuSans-3a" d="M 750 794 
L 1409 794 
L 1409 0 
L 750 0 
L 750 794 
z
M 750 3309 
L 1409 3309 
L 1409 2516 
L 750 2516 
L 750 3309 
z
" transform="scale(0.015625)"/>
      <path id="DejaVuSans-43" d="M 4122 4306 
L 4122 3641 
Q 3803 3938 3442 4084 
Q 3081 4231 2675 4231 
Q 1875 4231 1450 3742 
Q 1025 3253 1025 2328 
Q 1025 1406 1450 917 
Q 1875 428 2675 428 
Q 3081 428 3442 575 
Q 3803 722 4122 1019 
L 4122 359 
Q 3791 134 3420 21 
Q 3050 -91 2638 -91 
Q 1578 -91 968 557 
Q 359 1206 359 2328 
Q 359 3453 968 4101 
Q 1578 4750 2638 4750 
Q 3056 4750 3426 4639 
Q 3797 4528 4122 4306 
z
" transform="scale(0.015625)"/>
      <path id="DejaVuSans-6f" d="M 1959 3097 
Q 1497 3097 1228 2736 
Q 959 2375 959 1747 
Q 959 1119 1226 758 
Q 1494 397 1959 397 
Q 2419 397 2687 759 
Q 2956 1122 2956 1747 
Q 2956 2369 2687 2733 
Q 2419 3097 1959 3097 
z
M 1959 3584 
Q 2709 3584 3137 3096 
Q 3566 2609 3566 1747 
Q 3566 888 3137 398 
Q 2709 -91 1959 -91 
Q 1206 -91 779 398 
Q 353 888 353 1747 
Q 353 2609 779 3096 
Q 1206 3584 1959 3584 
z
" transform="scale(0.015625)"/>
      <path id="DejaVuSans-67" d="M 2906 1791 
Q 2906 2416 2648 2759 
Q 2391 3103 1925 3103 
Q 1463 3103 1205 2759 
Q 947 2416 947 1791 
Q 947 1169 1205 825 
Q 1463 481 1925 481 
Q 2391 481 2648 825 
Q 2906 1169 2906 1791 
z
M 3481 434 
Q 3481 -459 3084 -895 
Q 2688 -1331 1869 -1331 
Q 1566 -1331 1297 -1286 
Q 1028 -1241 775 -1147 
L 775 -588 
Q 1028 -725 1275 -790 
Q 1522 -856 1778 -856 
Q 2344 -856 2625 -561 
Q 2906 -266 2906 331 
L 2906 616 
Q 2728 306 2450 153 
Q 2172 0 1784 0 
Q 1141 0 747 490 
Q 353 981 353 1791 
Q 353 2603 747 3093 
Q 1141 3584 1784 3584 
Q 2172 3584 2450 3431 
Q 2728 3278 2906 2969 
L 2906 3500 
L 3481 3500 
L 3481 434 
z
" transform="scale(0.015625)"/>
      <path id="DejaVuSans-75" d="M 544 1381 
L 544 3500 
L 1119 3500 
L 1119 1403 
Q 1119 906 1312 657 
Q 1506 409 1894 409 
Q 2359 409 2629 706 
Q 2900 1003 2900 1516 
L 2900 3500 
L 3475 3500 
L 3475 0 
L 2900 0 
L 2900 538 
Q 2691 219 2414 64 
Q 2138 -91 1772 -91 
Q 1169 -91 856 284 
Q 544 659 544 1381 
z
M 1991 3584 
L 1991 3584 
z
" transform="scale(0.015625)"/>
      <path id="DejaVuSans-70" d="M 1159 525 
L 1159 -1331 
L 581 -1331 
L 581 3500 
L 1159 3500 
L 1159 2969 
Q 1341 3281 1617 3432 
Q 1894 3584 2278 3584 
Q 2916 3584 3314 3078 
Q 3713 2572 3713 1747 
Q 3713 922 3314 415 
Q 2916 -91 2278 -91 
Q 1894 -91 1617 61 
Q 1341 213 1159 525 
z
M 3116 1747 
Q 3116 2381 2855 2742 
Q 2594 3103 2138 3103 
Q 1681 3103 1420 2742 
Q 1159 2381 1159 1747 
Q 1159 1113 1420 752 
Q 1681 391 2138 391 
Q 2594 391 2855 752 
Q 3116 1113 3116 1747 
z
" transform="scale(0.015625)"/>
      <path id="DejaVuSans-66" d="M 2375 4863 
L 2375 4384 
L 1825 4384 
Q 1516 4384 1395 4259 
Q 1275 4134 1275 3809 
L 1275 3500 
L 2222 3500 
L 2222 3053 
L 1275 3053 
L 1275 0 
L 697 0 
L 697 3053 
L 147 3053 
L 147 3500 
L 697 3500 
L 697 3744 
Q 697 4328 969 4595 
Q 1241 4863 1831 4863 
L 2375 4863 
z
" transform="scale(0.015625)"/>
     </defs>
     <use xlink:href="#DejaVuSans-46"/>
     <use xlink:href="#DejaVuSans-61" transform="translate(48.394531 0)"/>
     <use xlink:href="#DejaVuSans-63" transform="translate(109.673828 0)"/>
     <use xlink:href="#DejaVuSans-69" transform="translate(164.654297 0)"/>
     <use xlink:href="#DejaVuSans-61" transform="translate(192.4375 0)"/>
     <use xlink:href="#DejaVuSans-6c" transform="translate(253.716797 0)"/>
     <use xlink:href="#DejaVuSans-20" transform="translate(281.5 0)"/>
     <use xlink:href="#DejaVuSans-74" transform="translate(313.287109 0)"/>
     <use xlink:href="#DejaVuSans-72" transform="translate(352.496094 0)"/>
     <use xlink:href="#DejaVuSans-61" transform="translate(393.609375 0)"/>
     <use xlink:href="#DejaVuSans-63" transform="translate(454.888672 0)"/>
     <use xlink:href="#DejaVuSans-65" transform="translate(509.869141 0)"/>
     <use xlink:href="#DejaVuSans-3a" transform="translate(571.392578 0)"/>
     <use xlink:href="#DejaVuSans-20" transform="translate(605.083984 0)"/>
     <use xlink:href="#DejaVuSans-43" transform="translate(636.871094 0)"/>
     <use xlink:href="#DejaVuSans-6f" transform="translate(706.695312 0)"/>
     <use xlink:href="#DejaVuSans-6e" transform="translate(767.876953 0)"/>
     <use xlink:href="#DejaVuSans-74" transform="translate(831.255859 0)"/>
     <use xlink:href="#DejaVuSans-72" transform="translate(870.464844 0)"/>
     <use xlink:href="#DejaVuSans-6f" transform="translate(909.328125 0)"/>
     <use xlink:href="#DejaVuSans-6c" transform="translate(970.509766 0)"/>
     <use xlink:href="#DejaVuSans-20" transform="translate(998.292969 0)"/>
     <use xlink:href="#DejaVuSans-67" transform="translate(1030.080078 0)"/>
     <use xlink:href="#DejaVuSans-72" transform="translate(1093.556641 0)"/>
     <use xlink:href="#DejaVuSans-6f" transform="translate(1132.419922 0)"/>
     <use xlink:href="#DejaVuSans-75" transform="translate(1193.601562 0)"/>
     <use xlink:href="#DejaVuSans-70" transform="translate(1256.980469 0)"/>
     <use xlink:href="#DejaVuSans-20" transform="translate(1320.457031 0)"/>
     <use xlink:href="#DejaVuSans-28" transform="translate(1352.244141 0)"/>
     <use xlink:href="#DejaVuSans-66" transform="translate(1391.257812 0)"/>
     <use xlink:href="#DejaVuSans-65" transform="translate(1426.462891 0)"/>
     <use xlink:href="#DejaVuSans-6d" transform="translate(1487.986328 0)"/>
     <use xlink:href="#DejaVuSans-61" transform="translate(1585.398438 0)"/>
     <use xlink:href="#DejaVuSans-6c" transform="translate(1646.677734 0)"/>
     <use xlink:href="#DejaVuSans-65" transform="translate(1674.460938 0)"/>
     <use xlink:href="#DejaVuSans-29" transform="translate(1735.984375 0)"/>
    </g>
   </g>
   <g id="legend_1">
    <g id="patch_7">
     <path d="M 551.080313 42.096094 
L 573.080313 42.096094 
L 573.080313 34.396094 
L 551.080313 34.396094 
z
" style="fill: #d3d3d3; fill-opacity: 0.5; stroke: #d3d3d3; stroke-opacity: 0.5; stroke-linejoin: miter"/>
    </g>
    <g id="text_19">
     <!-- Control group ±2 SD -->
     <g transform="translate(581.880313 42.096094) scale(0.11 -0.11)">
      <defs>
       <path id="DejaVuSans-b1" d="M 2944 4013 
L 2944 2803 
L 4684 2803 
L 4684 2272 
L 2944 2272 
L 2944 1063 
L 2419 1063 
L 2419 2272 
L 678 2272 
L 678 2803 
L 2419 2803 
L 2419 4013 
L 2944 4013 
z
M 678 531 
L 4684 531 
L 4684 0 
L 678 0 
L 678 531 
z
" transform="scale(0.015625)"/>
       <path id="DejaVuSans-53" d="M 3425 4513 
L 3425 3897 
Q 3066 4069 2747 4153 
Q 2428 4238 2131 4238 
Q 1616 4238 1336 4038 
Q 1056 3838 1056 3469 
Q 1056 3159 1242 3001 
Q 1428 2844 1947 2747 
L 2328 2669 
Q 3034 2534 3370 2195 
Q 3706 1856 3706 1288 
Q 3706 609 3251 259 
Q 2797 -91 1919 -91 
Q 1588 -91 1214 -16 
Q 841 59 441 206 
L 441 856 
Q 825 641 1194 531 
Q 1563 422 1919 422 
Q 2459 422 2753 634 
Q 3047 847 3047 1241 
Q 3047 1584 2836 1778 
Q 2625 1972 2144 2069 
L 1759 2144 
Q 1053 2284 737 2584 
Q 422 2884 422 3419 
Q 422 4038 858 4394 
Q 1294 4750 2059 4750 
Q 2388 4750 2728 4690 
Q 3069 4631 3425 4513 
z
" transform="scale(0.015625)"/>
       <path id="DejaVuSans-44" d="M 1259 4147 
L 1259 519 
L 2022 519 
Q 2988 519 3436 956 
Q 3884 1394 3884 2338 
Q 3884 3275 3436 3711 
Q 2988 4147 2022 4147 
L 1259 4147 
z
M 628 4666 
L 1925 4666 
Q 3281 4666 3915 4102 
Q 4550 3538 4550 2338 
Q 4550 1131 3912 565 
Q 3275 0 1925 0 
L 628 0 
L 628 4666 
z
" transform="scale(0.015625)"/>
      </defs>
      <use xlink:href="#DejaVuSans-43"/>
      <use xlink:href="#DejaVuSans-6f" transform="translate(69.824219 0)"/>
      <use xlink:href="#DejaVuSans-6e" transform="translate(131.005859 0)"/>
      <use xlink:href="#DejaVuSans-74" transform="translate(194.384766 0)"/>
      <use xlink:href="#DejaVuSans-72" transform="translate(233.59375 0)"/>
      <use xlink:href="#DejaVuSans-6f" transform="translate(272.457031 0)"/>
      <use xlink:href="#DejaVuSans-6c" transform="translate(333.638672 0)"/>
      <use xlink:href="#DejaVuSans-20" transform="translate(361.421875 0)"/>
      <use xlink:href="#DejaVuSans-67" transform="translate(393.208984 0)"/>
      <use xlink:href="#DejaVuSans-72" transform="translate(456.685547 0)"/>
      <use xlink:href="#DejaVuSans-6f" transform="translate(495.548828 0)"/>
      <use xlink:href="#DejaVuSans-75" transform="translate(556.730469 0)"/>
      <use xlink:href="#DejaVuSans-70" transform="translate(620.109375 0)"/>
      <use xlink:href="#DejaVuSans-20" transform="translate(683.585938 0)"/>
      <use xlink:href="#DejaVuSans-b1" transform="translate(715.373047 0)"/>
      <use xlink:href="#DejaVuSans-32" transform="translate(799.162109 0)"/>
      <use xlink:href="#DejaVuSans-20" transform="translate(862.785156 0)"/>
      <use xlink:href="#DejaVuSans-53" transform="translate(894.572266 0)"/>
      <use xlink:href="#DejaVuSans-44" transform="translate(958.048828 0)"/>
     </g>
    </g>
    <g id="patch_8">
     <path d="M 551.080313 58.242031 
L 573.080313 58.242031 
L 573.080313 50.542031 
L 551.080313 50.542031 
z
" style="fill: #808080; fill-opacity: 0.7; stroke: #808080; stroke-opacity: 0.7; stroke-linejoin: miter"/>
    </g>
    <g id="text_20">
     <!-- Control group ±1 SD -->
     <g transform="translate(581.880313 58.242031) scale(0.11 -0.11)">
      <use xlink:href="#DejaVuSans-43"/>
      <use xlink:href="#DejaVuSans-6f" transform="translate(69.824219 0)"/>
      <use xlink:href="#DejaVuSans-6e" transform="translate(131.005859 0)"/>
      <use xlink:href="#DejaVuSans-74" transform="translate(194.384766 0)"/>
      <use xlink:href="#DejaVuSans-72" transform="translate(233.59375 0)"/>
      <use xlink:href="#DejaVuSans-6f" transform="translate(272.457031 0)"/>
      <use xlink:href="#DejaVuSans-6c" transform="translate(333.638672 0)"/>
      <use xlink:href="#DejaVuSans-20" transform="translate(361.421875 0)"/>
      <use xlink:href="#DejaVuSans-67" transform="translate(393.208984 0)"/>
      <use xlink:href="#DejaVuSans-72" transform="translate(456.685547 0)"/>
      <use xlink:href="#DejaVuSans-6f" transform="translate(495.548828 0)"/>
      <use xlink:href="#DejaVuSans-75" transform="translate(556.730469 0)"/>
      <use xlink:href="#DejaVuSans-70" transform="translate(620.109375 0)"/>
      <use xlink:href="#DejaVuSans-20" transform="translate(683.585938 0)"/>
      <use xlink:href="#DejaVuSans-b1" transform="translate(715.373047 0)"/>
      <use xlink:href="#DejaVuSans-31" transform="translate(799.162109 0)"/>
      <use xlink:href="#DejaVuSans-20" transform="translate(862.785156 0)"/>
      <use xlink:href="#DejaVuSans-53" transform="translate(894.572266 0)"/>
      <use xlink:href="#DejaVuSans-44" transform="translate(958.048828 0)"/>
     </g>
    </g>
    <g id="line2d_34">
     <path d="M 551.080313 70.537969 
L 562.080313 70.537969 
L 573.080313 70.537969 
" style="fill: none; stroke: #ff8c00; stroke-width: 2.3; stroke-linecap: square"/>
    </g>
    <g id="text_21">
     <!-- Patient -->
     <g transform="translate(581.880313 74.387969) scale(0.11 -0.11)">
      <defs>
       <path id="DejaVuSans-50" d="M 1259 4147 
L 1259 2394 
L 2053 2394 
Q 2494 2394 2734 2622 
Q 2975 2850 2975 3272 
Q 2975 3691 2734 3919 
Q 2494 4147 2053 4147 
L 1259 4147 
z
M 628 4666 
L 2053 4666 
Q 2838 4666 3239 4311 
Q 3641 3956 3641 3272 
Q 3641 2581 3239 2228 
Q 2838 1875 2053 1875 
L 1259 1875 
L 1259 0 
L 628 0 
L 628 4666 
z
" transform="scale(0.015625)"/>
      </defs>
      <use xlink:href="#DejaVuSans-50"/>
      <use xlink:href="#DejaVuSans-61" transform="translate(55.802734 0)"/>
      <use xlink:href="#DejaVuSans-74" transform="translate(117.082031 0)"/>
      <use xlink:href="#DejaVuSans-69" transform="translate(156.291016 0)"/>
      <use xlink:href="#DejaVuSans-65" transform="translate(184.074219 0)"/>
      <use xlink:href="#DejaVuSans-6e" transform="translate(245.597656 0)"/>
      <use xlink:href="#DejaVuSans-74" transform="translate(308.976562 0)"/>
     </g>
    </g>
   </g>
  </g>
 </g>
 <defs>
  <clipPath id="pbd727bf81e">
   <rect x="47.307188" y="23.837812" width="658.33" height="360.28"/>
  </clipPath>
 </defs>
</svg>
