<?xml version="1.0" encoding="utf-8" standalone="no"?>
<!DOCTYPE svg PUBLIC "-//W3C//DTD SVG 1.1//EN"
  "http://www.w3.org/Graphics/SVG/1.1/DTD/svg11.dtd">
<svg xmlns:xlink="http://www.w3.org/1999/xlink" width="712.837188pt" height="424.5775pt" viewBox="0 0 712.837188 424.5775" xmlns="http://www.w3.org/2000/svg" version="1.1">
 <metadata>
  <rdf:RDF xmlns:dc="http://purl.org/dc/elements/1.1/" xmlns:cc="http://creativecommons.org/ns#" xmlns:rdf="http://www.w3.org/1999/02/22-rdf-syntax-ns#">
   <cc:Work>
    <dc:type rdf:resource="http://purl.org/dc/dcmitype/StillImage"/>
    <dc:date>2026-06-14T18:55:15.497406</dc:date>
    <dc:format>image/svg+xml</dc:format>
    <dc:creator>
     <cc:Agent>
      <dc:title>Matplotlib v3.10.1, https://matplotlib.org/</dc:title>
     </cc:Agent>
    </dc:creator>
   </cc:Work>
  </rdf:RDF>
 </metadata>
 <defs>
  <style type="text/css">*{stroke-linejoin: round; stroke-linecap: butt}</style>
 </defs>
 <g id="figure_1">
  <g id="patch_1">
   <path d="M 0 424.5775 
L 712.837188 424.5775 
L 712.837188 0 
L 0 0 
z
" style="fill: #ffffff"/>
  </g>
  <g id="axes_1">
   <g id="patch_2">
    <path d="M 47.307188 384.117812 
L 705.637188 384.117812 
L 705.637188 23.837812 
L 47.307188 23.837812 
z
" style="fill: #ffffff"/>
   </g>
   <g id="matplotlib.axis_1">
    <g id="xtick_1">
     <g id="line2d_1">
      <path d="M 47.307188 384.117812 
L 47.307188 23.837812 
" clip-path="url(#p04d4206e92)" style="fill: none; stroke: #b0b0b0; stroke-opacity: 0.2; stroke-width: 0.6; stroke-linecap: square"/>
     </g>
     <g id="line2d_2">
      <defs>
       <path id="m0348f4b912" d="M 0 0 
L 0 3.5 
" style="stroke: #000000; stroke-width: 0.8"/>
      </defs>
      <g>
       <use xlink:href="#m0348f4b912" x="47.307188" y="384.117812" style="stroke: #000000; stroke-width: 0.8"/>
      </g>
     </g>
     <g id="text_1">
      <!-- 0 -->
      <g transform="translate(43.807813 399.476094) scale(0.11 -0.11)">
       <defs>
        <path id="DejaVuSans-30" d="M 2034 4250 
Q 1547 4250 1301 3770 
Q 1056 3291 1056 2328 
Q 1056 1369 1301 889 
Q 1547 409 2034 409 
Q 2525 409 2770 889 
Q 3016 1369 3016 2328 
Q 3016 3291 2770 3770 
Q 2525 4250 2034 4250 
z
M 2034 4750 
Q 2819 4750 3233 4129 
Q 3647 3509 3647 2328 
Q 3647 1150 3233 529 
Q 2819 -91 2034 -91 
Q 1250 -91 836 529 
Q 422 1150 422 2328 
Q 422 3509 836 4129 
Q 1250 4750 2034 4750 
z
" transform="scale(0.015625)"/>
       </defs>
       <use xlink:href="#DejaVuSans-30"/>
      </g>
     </g>
    </g>
    <g id="xtick_2">
     <g id="line2d_3">
      <path d="M 134.387875 384.117812 
L 134.387875 23.837812 
" clip-path="url(#p04d4206e92)" style="fill: none; stroke: #b0b0b0; stroke-opacity: 0.2; stroke-width: 0.6; stroke-linecap: square"/>
     </g>
     <g id="line2d_4">
      <g>
       <use xlink:href="#m0348f4b912" x="134.387875" y="384.117812" style="stroke: #000000; stroke-width: 0.8"/>
      </g>
     </g>
     <g id="text_2">
      <!-- 25 -->
      <g transform="translate(127.389125 399.476094) scale(0.11 -0.11)">
       <defs>
        <path id="DejaVuSans-32" d="M 1228 531 
L 3431 531 
L 3431 0 
L 469 0 
L 469 531 
Q 828 903 1448 1529 
Q 2069 2156 2228 2338 
Q 2531 2678 2651 2914 
Q 2772 3150 2772 3378 
Q 2772 3750 2511 3984 
Q 2250 4219 1831 4219 
Q 1534 4219 1204 4116 
Q 875 4013 500 3803 
L 500 4441 
Q 881 4594 1212 4672 
Q 1544 4750 1819 4750 
Q 2544 4750 2975 4387 
Q 3406 4025 3406 3419 
Q 3406 3131 3298 2873 
Q 3191 2616 2906 2266 
Q 2828 2175 2409 1742 
Q 1991 1309 1228 531 
z
" transform="scale(0.015625)"/>
        <path id="DejaVuSans-35" d="M 691 4666 
L 3169 4666 
L 3169 4134 
L 1269 4134 
L 1269 2991 
Q 1406 3038 1543 3061 
Q 1681 3084 1819 3084 
Q 2600 3084 3056 2656 
Q 3513 2228 3513 1497 
Q 3513 744 3044 326 
Q 2575 -91 1722 -91 
Q 1428 -91 1123 -41 
Q 819 9 494 109 
L 494 744 
Q 775 591 1075 516 
Q 1375 441 1709 441 
Q 2250 441 2565 725 
Q 2881 1009 2881 1497 
Q 2881 1984 2565 2268 
Q 2250 2553 1709 2553 
Q 1456 2553 1204 2497 
Q 953 2441 691 2322 
L 691 4666 
z
" transform="scale(0.015625)"/>
       </defs>
       <use xlink:href="#DejaVuSans-32"/>
       <use xlink:href="#DejaVuSans-35" transform="translate(63.623047 0)"/>
      </g>
     </g>
    </g>
    <g id="xtick_3">
     <g id="line2d_5">
      <path d="M 221.468563 384.117812 
L 221.468563 23.837812 
" clip-path="url(#p04d4206e92)" style="fill: none; stroke: #b0b0b0; stroke-opacity: 0.2; stroke-width: 0.6; stroke-linecap: square"/>
     </g>
     <g id="line2d_6">
      <g>
       <use xlink:href="#m0348f4b912" x="221.468563" y="384.117812" style="stroke: #000000; stroke-width: 0.8"/>
      </g>
     </g>
     <g id="text_3">
      <!-- 50 -->
      <g transform="translate(214.469813 399.476094) scale(0.11 -0.11)">
       <use xlink:href="#DejaVuSans-35"/>
       <use xlink:href="#DejaVuSans-30" transform="translate(63.623047 0)"/>
      </g>
     </g>
    </g>
    <g id="xtick_4">
     <g id="line2d_7">
      <path d="M 308.549251 384.117812 
L 308.549251 23.837812 
" clip-path="url(#p04d4206e92)" style="fill: none; stroke: #b0b0b0; stroke-opacity: 0.2; stroke-width: 0.6; stroke-linecap: square"/>
     </g>
     <g id="line2d_8">
      <g>
       <use xlink:href="#m0348f4b912" x="308.549251" y="384.117812" style="stroke: #000000; stroke-width: 0.8"/>
      </g>
     </g>
     <g id="text_4">
      <!-- 75 -->
      <g transform="translate(301.550501 399.476094) scale(0.11 -0.11)">
       <defs>
        <path id="DejaVuSans-37" d="M 525 4666 
L 3525 4666 
L 3525 4397 
L 1831 0 
L 1172 0 
L 2766 4134 
L 525 4134 
L 525 4666 
z
" transform="scale(0.015625)"/>
       </defs>
       <use xlink:href="#DejaVuSans-37"/>
       <use xlink:href="#DejaVuSans-35" transform="translate(63.623047 0)"/>
      </g>
     </g>
    </g>
    <g id="xtick_5">
     <g id="line2d_9">
      <path d="M 395.629939 384.117812 
L 395.629939 23.837812 
" clip-path="url(#p04d4206e92)" style="fill: none; stroke: #b0b0b0; stroke-opacity: 0.2; stroke-width: 0.6; stroke-linecap: square"/>
     </g>
     <g id="line2d_10">
      <g>
       <use xlink:href="#m0348f4b912" x="395.629939" y="384.117812" style="stroke: #000000; stroke-width: 0.8"/>
      </g>
     </g>
     <g id="text_5">
      <!-- 100 -->
      <g transform="translate(385.131814 399.476094) scale(0.11 -0.11)">
       <defs>
        <path id="DejaVuSans-31" d="M 794 531 
L 1825 531 
L 1825 4091 
L 703 3866 
L 703 4441 
L 1819 4666 
L 2450 4666 
L 2450 531 
L 3481 531 
L 3481 0 
L 794 0 
L 794 531 
z
" transform="scale(0.015625)"/>
       </defs>
       <use xlink:href="#DejaVuSans-31"/>
       <use xlink:href="#DejaVuSans-30" transform="translate(63.623047 0)"/>
       <use xlink:href="#DejaVuSans-30" transform="translate(127.246094 0)"/>
      </g>
     </g>
    </g>
    <g id="xtick_6">
     <g id="line2d_11">
      <path d="M 482.710627 384.117812 
L 482.710627 23.837812 
" clip-path="url(#p04d4206e92)" style="fill: none; stroke: #b0b0b0; stroke-opacity: 0.2; stroke-width: 0.6; stroke-linecap: square"/>
     </g>
     <g id="line2d_12">
      <g>
       <use xlink:href="#m0348f4b912" x="482.710627" y="384.117812" style="stroke: #000000; stroke-width: 0.8"/>
      </g>
     </g>
     <g id="text_6">
      <!-- 125 -->
      <g transform="translate(472.212502 399.476094) scale(0.11 -0.11)">
       <use xlink:href="#DejaVuSans-31"/>
       <use xlink:href="#DejaVuSans-32" transform="translate(63.623047 0)"/>
       <use xlink:href="#DejaVuSans-35" transform="translate(127.246094 0)"/>
      </g>
     </g>
    </g>
    <g id="xtick_7">
     <g id="line2d_13">
      <path d="M 569.791314 384.117812 
L 569.791314 23.837812 
" clip-path="url(#p04d4206e92)" style="fill: none; stroke: #b0b0b0; stroke-opacity: 0.2; stroke-width: 0.6; stroke-linecap: square"/>
     </g>
     <g id="line2d_14">
      <g>
       <use xlink:href="#m0348f4b912" x="569.791314" y="384.117812" style="stroke: #000000; stroke-width: 0.8"/>
      </g>
     </g>
     <g id="text_7">
      <!-- 150 -->
      <g transform="translate(559.293189 399.476094) scale(0.11 -0.11)">
       <use xlink:href="#DejaVuSans-31"/>
       <use xlink:href="#DejaVuSans-35" transform="translate(63.623047 0)"/>
       <use xlink:href="#DejaVuSans-30" transform="translate(127.246094 0)"/>
      </g>
     </g>
    </g>
    <g id="xtick_8">
     <g id="line2d_15">
      <path d="M 656.872002 384.117812 
L 656.872002 23.837812 
" clip-path="url(#p04d4206e92)" style="fill: none; stroke: #b0b0b0; stroke-opacity: 0.2; stroke-width: 0.6; stroke-linecap: square"/>
     </g>
     <g id="line2d_16">
      <g>
       <use xlink:href="#m0348f4b912" x="656.872002" y="384.117812" style="stroke: #000000; stroke-width: 0.8"/>
      </g>
     </g>
     <g id="text_8">
      <!-- 175 -->
      <g transform="translate(646.373877 399.476094) scale(0.11 -0.11)">
       <use xlink:href="#DejaVuSans-31"/>
       <use xlink:href="#DejaVuSans-37" transform="translate(63.623047 0)"/>
       <use xlink:href="#DejaVuSans-35" transform="translate(127.246094 0)"/>
      </g>
     </g>
    </g>
    <g id="text_9">
     <!-- Time (s) -->
     <g transform="translate(352.0775 414.881875) scale(0.12 -0.12)">
      <defs>
       <path id="DejaVuSans-54" d="M -19 4666 
L 3928 4666 
L 3928 4134 
L 2272 4134 
L 2272 0 
L 1638 0 
L 1638 4134 
L -19 4134 
L -19 4666 
z
" transform="scale(0.015625)"/>
       <path id="DejaVuSans-69" d="M 603 3500 
L 1178 3500 
L 1178 0 
L 603 0 
L 603 3500 
z
M 603 4863 
L 1178 4863 
L 1178 4134 
L 603 4134 
L 603 4863 
z
" transform="scale(0.015625)"/>
       <path id="DejaVuSans-6d" d="M 3328 2828 
Q 3544 3216 3844 3400 
Q 4144 3584 4550 3584 
Q 5097 3584 5394 3201 
Q 5691 2819 5691 2113 
L 5691 0 
L 5113 0 
L 5113 2094 
Q 5113 2597 4934 2840 
Q 4756 3084 4391 3084 
Q 3944 3084 3684 2787 
Q 3425 2491 3425 1978 
L 3425 0 
L 2847 0 
L 2847 2094 
Q 2847 2600 2669 2842 
Q 2491 3084 2119 3084 
Q 1678 3084 1418 2786 
Q 1159 2488 1159 1978 
L 1159 0 
L 581 0 
L 581 3500 
L 1159 3500 
L 1159 2956 
Q 1356 3278 1631 3431 
Q 1906 3584 2284 3584 
Q 2666 3584 2933 3390 
Q 3200 3197 3328 2828 
z
" transform="scale(0.015625)"/>
       <path id="DejaVuSans-65" d="M 3597 1894 
L 3597 1613 
L 953 1613 
Q 991 1019 1311 708 
Q 1631 397 2203 397 
Q 2534 397 2845 478 
Q 3156 559 3463 722 
L 3463 178 
Q 3153 47 2828 -22 
Q 2503 -91 2169 -91 
Q 1331 -91 842 396 
Q 353 884 353 1716 
Q 353 2575 817 3079 
Q 1281 3584 2069 3584 
Q 2775 3584 3186 3129 
Q 3597 2675 3597 1894 
z
M 3022 2063 
Q 3016 2534 2758 2815 
Q 2500 3097 2075 3097 
Q 1594 3097 1305 2825 
Q 1016 2553 972 2059 
L 3022 2063 
z
" transform="scale(0.015625)"/>
       <path id="DejaVuSans-20" transform="scale(0.015625)"/>
       <path id="DejaVuSans-28" d="M 1984 4856 
Q 1566 4138 1362 3434 
Q 1159 2731 1159 2009 
Q 1159 1288 1364 580 
Q 1569 -128 1984 -844 
L 1484 -844 
Q 1016 -109 783 600 
Q 550 1309 550 2009 
Q 550 2706 781 3412 
Q 1013 4119 1484 4856 
L 1984 4856 
z
" transform="scale(0.015625)"/>
       <path id="DejaVuSans-73" d="M 2834 3397 
L 2834 2853 
Q 2591 2978 2328 3040 
Q 2066 3103 1784 3103 
Q 1356 3103 1142 2972 
Q 928 2841 928 2578 
Q 928 2378 1081 2264 
Q 1234 2150 1697 2047 
L 1894 2003 
Q 2506 1872 2764 1633 
Q 3022 1394 3022 966 
Q 3022 478 2636 193 
Q 2250 -91 1575 -91 
Q 1294 -91 989 -36 
Q 684 19 347 128 
L 347 722 
Q 666 556 975 473 
Q 1284 391 1588 391 
Q 1994 391 2212 530 
Q 2431 669 2431 922 
Q 2431 1156 2273 1281 
Q 2116 1406 1581 1522 
L 1381 1569 
Q 847 1681 609 1914 
Q 372 2147 372 2553 
Q 372 3047 722 3315 
Q 1072 3584 1716 3584 
Q 2034 3584 2315 3537 
Q 2597 3491 2834 3397 
z
" transform="scale(0.015625)"/>
       <path id="DejaVuSans-29" d="M 513 4856 
L 1013 4856 
Q 1481 4119 1714 3412 
Q 1947 2706 1947 2009 
Q 1947 1309 1714 600 
Q 1481 -109 1013 -844 
L 513 -844 
Q 928 -128 1133 580 
Q 1338 1288 1338 2009 
Q 1338 2731 1133 3434 
Q 928 4138 513 4856 
z
" transform="scale(0.015625)"/>
      </defs>
      <use xlink:href="#DejaVuSans-54"/>
      <use xlink:href="#DejaVuSans-69" transform="translate(57.958984 0)"/>
      <use xlink:href="#DejaVuSans-6d" transform="translate(85.742188 0)"/>
      <use xlink:href="#DejaVuSans-65" transform="translate(183.154297 0)"/>
      <use xlink:href="#DejaVuSans-20" transform="translate(244.677734 0)"/>
      <use xlink:href="#DejaVuSans-28" transform="translate(276.464844 0)"/>
      <use xlink:href="#DejaVuSans-73" transform="translate(315.478516 0)"/>
      <use xlink:href="#DejaVuSans-29" transform="translate(367.578125 0)"/>
     </g>
    </g>
   </g>
   <g id="matplotlib.axis_2">
    <g id="ytick_1">
     <g id="line2d_17">
      <path d="M 47.307188 367.741449 
L 705.637188 367.741449 
" clip-path="url(#p04d4206e92)" style="fill: none; stroke: #b0b0b0; stroke-opacity: 0.2; stroke-width: 0.6; stroke-linecap: square"/>
     </g>
     <g id="line2d_18">
      <defs>
       <path id="mb364e2b862" d="M 0 0 
L -3.5 0 
" style="stroke: #000000; stroke-width: 0.8"/>
      </defs>
      <g>
       <use xlink:href="#mb364e2b862" x="47.307188" y="367.741449" style="stroke: #000000; stroke-width: 0.8"/>
      </g>
     </g>
     <g id="text_10">
      <!-- 0.0 -->
      <g transform="translate(22.81375 371.920589) scale(0.11 -0.11)">
       <defs>
        <path id="DejaVuSans-2e" d="M 684 794 
L 1344 794 
L 1344 0 
L 684 0 
L 684 794 
z
" transform="scale(0.015625)"/>
       </defs>
       <use xlink:href="#DejaVuSans-30"/>
       <use xlink:href="#DejaVuSans-2e" transform="translate(63.623047 0)"/>
       <use xlink:href="#DejaVuSans-30" transform="translate(95.410156 0)"/>
      </g>
     </g>
    </g>
    <g id="ytick_2">
     <g id="line2d_19">
      <path d="M 47.307188 317.507205 
L 705.637188 317.507205 
" clip-path="url(#p04d4206e92)" style="fill: none; stroke: #b0b0b0; stroke-opacity: 0.2; stroke-width: 0.6; stroke-linecap: square"/>
     </g>
     <g id="line2d_20">
      <g>
       <use xlink:href="#mb364e2b862" x="47.307188" y="317.507205" style="stroke: #000000; stroke-width: 0.8"/>
      </g>
     </g>
     <g id="text_11">
      <!-- 0.5 -->
      <g transform="translate(22.81375 321.686345) scale(0.11 -0.11)">
       <use xlink:href="#DejaVuSans-30"/>
       <use xlink:href="#DejaVuSans-2e" transform="translate(63.623047 0)"/>
       <use xlink:href="#DejaVuSans-35" transform="translate(95.410156 0)"/>
      </g>
     </g>
    </g>
    <g id="ytick_3">
     <g id="line2d_21">
      <path d="M 47.307188 267.27296 
L 705.637188 267.27296 
" clip-path="url(#p04d4206e92)" style="fill: none; stroke: #b0b0b0; stroke-opacity: 0.2; stroke-width: 0.6; stroke-linecap: square"/>
     </g>
     <g id="line2d_22">
      <g>
       <use xlink:href="#mb364e2b862" x="47.307188" y="267.27296" style="stroke: #000000; stroke-width: 0.8"/>
      </g>
     </g>
     <g id="text_12">
      <!-- 1.0 -->
      <g transform="translate(22.81375 271.452101) scale(0.11 -0.11)">
       <use xlink:href="#DejaVuSans-31"/>
       <use xlink:href="#DejaVuSans-2e" transform="translate(63.623047 0)"/>
       <use xlink:href="#DejaVuSans-30" transform="translate(95.410156 0)"/>
      </g>
     </g>
    </g>
    <g id="ytick_4">
     <g id="line2d_23">
      <path d="M 47.307188 217.038716 
L 705.637188 217.038716 
" clip-path="url(#p04d4206e92)" style="fill: none; stroke: #b0b0b0; stroke-opacity: 0.2; stroke-width: 0.6; stroke-linecap: square"/>
     </g>
     <g id="line2d_24">
      <g>
       <use xlink:href="#mb364e2b862" x="47.307188" y="217.038716" style="stroke: #000000; stroke-width: 0.8"/>
      </g>
     </g>
     <g id="text_13">
      <!-- 1.5 -->
      <g transform="translate(22.81375 221.217857) scale(0.11 -0.11)">
       <use xlink:href="#DejaVuSans-31"/>
       <use xlink:href="#DejaVuSans-2e" transform="translate(63.623047 0)"/>
       <use xlink:href="#DejaVuSans-35" transform="translate(95.410156 0)"/>
      </g>
     </g>
    </g>
    <g id="ytick_5">
     <g id="line2d_25">
      <path d="M 47.307188 166.804472 
L 705.637188 166.804472 
" clip-path="url(#p04d4206e92)" style="fill: none; stroke: #b0b0b0; stroke-opacity: 0.2; stroke-width: 0.6; stroke-linecap: square"/>
     </g>
     <g id="line2d_26">
      <g>
       <use xlink:href="#mb364e2b862" x="47.307188" y="166.804472" style="stroke: #000000; stroke-width: 0.8"/>
      </g>
     </g>
     <g id="text_14">
      <!-- 2.0 -->
      <g transform="translate(22.81375 170.983612) scale(0.11 -0.11)">
       <use xlink:href="#DejaVuSans-32"/>
       <use xlink:href="#DejaVuSans-2e" transform="translate(63.623047 0)"/>
       <use xlink:href="#DejaVuSans-30" transform="translate(95.410156 0)"/>
      </g>
     </g>
    </g>
    <g id="ytick_6">
     <g id="line2d_27">
      <path d="M 47.307188 116.570227 
L 705.637188 116.570227 
" clip-path="url(#p04d4206e92)" style="fill: none; stroke: #b0b0b0; stroke-opacity: 0.2; stroke-width: 0.6; stroke-linecap: square"/>
     </g>
     <g id="line2d_28">
      <g>
       <use xlink:href="#mb364e2b862" x="47.307188" y="116.570227" style="stroke: #000000; stroke-width: 0.8"/>
      </g>
     </g>
     <g id="text_15">
      <!-- 2.5 -->
      <g transform="translate(22.81375 120.749368) scale(0.11 -0.11)">
       <use xlink:href="#DejaVuSans-32"/>
       <use xlink:href="#DejaVuSans-2e" transform="translate(63.623047 0)"/>
       <use xlink:href="#DejaVuSans-35" transform="translate(95.410156 0)"/>
      </g>
     </g>
    </g>
    <g id="ytick_7">
     <g id="line2d_29">
      <path d="M 47.307188 66.335983 
L 705.637188 66.335983 
" clip-path="url(#p04d4206e92)" style="fill: none; stroke: #b0b0b0; stroke-opacity: 0.2; stroke-width: 0.6; stroke-linecap: square"/>
     </g>
     <g id="line2d_30">
      <g>
       <use xlink:href="#mb364e2b862" x="47.307188" y="66.335983" style="stroke: #000000; stroke-width: 0.8"/>
      </g>
     </g>
     <g id="text_16">
      <!-- 3.0 -->
      <g transform="translate(22.81375 70.515124) scale(0.11 -0.11)">
       <defs>
        <path id="DejaVuSans-33" d="M 2597 2516 
Q 3050 2419 3304 2112 
Q 3559 1806 3559 1356 
Q 3559 666 3084 287 
Q 2609 -91 1734 -91 
Q 1441 -91 1130 -33 
Q 819 25 488 141 
L 488 750 
Q 750 597 1062 519 
Q 1375 441 1716 441 
Q 2309 441 2620 675 
Q 2931 909 2931 1356 
Q 2931 1769 2642 2001 
Q 2353 2234 1838 2234 
L 1294 2234 
L 1294 2753 
L 1863 2753 
Q 2328 2753 2575 2939 
Q 2822 3125 2822 3475 
Q 2822 3834 2567 4026 
Q 2313 4219 1838 4219 
Q 1578 4219 1281 4162 
Q 984 4106 628 3988 
L 628 4550 
Q 988 4650 1302 4700 
Q 1616 4750 1894 4750 
Q 2613 4750 3031 4423 
Q 3450 4097 3450 3541 
Q 3450 3153 3228 2886 
Q 3006 2619 2597 2516 
z
" transform="scale(0.015625)"/>
       </defs>
       <use xlink:href="#DejaVuSans-33"/>
       <use xlink:href="#DejaVuSans-2e" transform="translate(63.623047 0)"/>
       <use xlink:href="#DejaVuSans-30" transform="translate(95.410156 0)"/>
      </g>
     </g>
    </g>
    <g id="text_17">
     <!-- AU mean intensity -->
     <g transform="translate(16.318125 259.314687) rotate(-90) scale(0.12 -0.12)">
      <defs>
       <path id="DejaVuSans-41" d="M 2188 4044 
L 1331 1722 
L 3047 1722 
L 2188 4044 
z
M 1831 4666 
L 2547 4666 
L 4325 0 
L 3669 0 
L 3244 1197 
L 1141 1197 
L 716 0 
L 50 0 
L 1831 4666 
z
" transform="scale(0.015625)"/>
       <path id="DejaVuSans-55" d="M 556 4666 
L 1191 4666 
L 1191 1831 
Q 1191 1081 1462 751 
Q 1734 422 2344 422 
Q 2950 422 3222 751 
Q 3494 1081 3494 1831 
L 3494 4666 
L 4128 4666 
L 4128 1753 
Q 4128 841 3676 375 
Q 3225 -91 2344 -91 
Q 1459 -91 1007 375 
Q 556 841 556 1753 
L 556 4666 
z
" transform="scale(0.015625)"/>
       <path id="DejaVuSans-61" d="M 2194 1759 
Q 1497 1759 1228 1600 
Q 959 1441 959 1056 
Q 959 750 1161 570 
Q 1363 391 1709 391 
Q 2188 391 2477 730 
Q 2766 1069 2766 1631 
L 2766 1759 
L 2194 1759 
z
M 3341 1997 
L 3341 0 
L 2766 0 
L 2766 531 
Q 2569 213 2275 61 
Q 1981 -91 1556 -91 
Q 1019 -91 701 211 
Q 384 513 384 1019 
Q 384 1609 779 1909 
Q 1175 2209 1959 2209 
L 2766 2209 
L 2766 2266 
Q 2766 2663 2505 2880 
Q 2244 3097 1772 3097 
Q 1472 3097 1187 3025 
Q 903 2953 641 2809 
L 641 3341 
Q 956 3463 1253 3523 
Q 1550 3584 1831 3584 
Q 2591 3584 2966 3190 
Q 3341 2797 3341 1997 
z
" transform="scale(0.015625)"/>
       <path id="DejaVuSans-6e" d="M 3513 2113 
L 3513 0 
L 2938 0 
L 2938 2094 
Q 2938 2591 2744 2837 
Q 2550 3084 2163 3084 
Q 1697 3084 1428 2787 
Q 1159 2491 1159 1978 
L 1159 0 
L 581 0 
L 581 3500 
L 1159 3500 
L 1159 2956 
Q 1366 3272 1645 3428 
Q 1925 3584 2291 3584 
Q 2894 3584 3203 3211 
Q 3513 2838 3513 2113 
z
" transform="scale(0.015625)"/>
       <path id="DejaVuSans-74" d="M 1172 4494 
L 1172 3500 
L 2356 3500 
L 2356 3053 
L 1172 3053 
L 1172 1153 
Q 1172 725 1289 603 
Q 1406 481 1766 481 
L 2356 481 
L 2356 0 
L 1766 0 
Q 1100 0 847 248 
Q 594 497 594 1153 
L 594 3053 
L 172 3053 
L 172 3500 
L 594 3500 
L 594 4494 
L 1172 4494 
z
" transform="scale(0.015625)"/>
       <path id="DejaVuSans-79" d="M 2059 -325 
Q 1816 -950 1584 -1140 
Q 1353 -1331 966 -1331 
L 506 -1331 
L 506 -850 
L 844 -850 
Q 1081 -850 1212 -737 
Q 1344 -625 1503 -206 
L 1606 56 
L 191 3500 
L 800 3500 
L 1894 763 
L 2988 3500 
L 3597 3500 
L 2059 -325 
z
" transform="scale(0.015625)"/>
      </defs>
      <use xlink:href="#DejaVuSans-41"/>
      <use xlink:href="#DejaVuSans-55" transform="translate(68.408203 0)"/>
      <use xlink:href="#DejaVuSans-20" transform="translate(141.601562 0)"/>
      <use xlink:href="#DejaVuSans-6d" transform="translate(173.388672 0)"/>
      <use xlink:href="#DejaVuSans-65" transform="translate(270.800781 0)"/>
      <use xlink:href="#DejaVuSans-61" transform="translate(332.324219 0)"/>
      <use xlink:href="#DejaVuSans-6e" transform="translate(393.603516 0)"/>
      <use xlink:href="#DejaVuSans-20" transform="translate(456.982422 0)"/>
      <use xlink:href="#DejaVuSans-69" transform="translate(488.769531 0)"/>
      <use xlink:href="#DejaVuSans-6e" transform="translate(516.552734 0)"/>
      <use xlink:href="#DejaVuSans-74" transform="translate(579.931641 0)"/>
      <use xlink:href="#DejaVuSans-65" transform="translate(619.140625 0)"/>
      <use xlink:href="#DejaVuSans-6e" transform="translate(680.664062 0)"/>
      <use xlink:href="#DejaVuSans-73" transform="translate(744.042969 0)"/>
      <use xlink:href="#DejaVuSans-69" transform="translate(796.142578 0)"/>
      <use xlink:href="#DejaVuSans-74" transform="translate(823.925781 0)"/>
      <use xlink:href="#DejaVuSans-79" transform="translate(863.134766 0)"/>
     </g>
    </g>
   </g>
   <g id="FillBetweenPolyCollection_1">
    <defs>
     <path id="m49f828d808" d="M 47.307188 -159.080246 
L 47.307188 -16.062089 
L 50.790415 -14.678846 
L 54.273643 -9.344971 
L 57.75687 -7.711859 
L 61.240098 -1.654283 
L 64.723325 -0.965798 
L 68.206553 -8.061608 
L 71.68978 -7.183917 
L 75.173008 -9.787697 
L 78.656235 -7.702005 
L 82.139463 -8.941655 
L 85.62269 -7.941928 
L 89.105918 -9.191339 
L 92.589145 -9.49181 
L 96.072373 -12.354738 
L 99.5556 -14.027086 
L 103.038828 -15.320673 
L 106.522055 -13.864986 
L 110.005283 -13.657748 
L 113.48851 -11.726673 
L 116.971738 -13.258655 
L 120.454965 -10.271742 
L 123.938193 -9.430689 
L 127.42142 -8.463622 
L 130.904648 -9.977934 
L 134.387875 -14.13284 
L 137.871103 -8.800206 
L 141.35433 -9.190814 
L 144.837558 -8.314367 
L 148.320785 -7.137947 
L 151.804013 -4.688977 
L 155.28724 -6.561916 
L 158.770468 -7.126379 
L 162.253695 -5.267871 
L 165.736923 -3.326003 
L 169.22015 -3.543499 
L 172.703378 -7.983531 
L 176.186605 6.033699 
L 179.669833 8.353295 
L 183.153061 2.44444 
L 186.636288 -2.651838 
L 190.119516 -3.445984 
L 193.602743 0.473314 
L 197.085971 2.479335 
L 200.569198 1.663538 
L 204.052426 5.862531 
L 207.535653 -13.809777 
L 211.018881 -1.750099 
L 214.502108 -0.864543 
L 217.985336 -5.454198 
L 221.468563 -4.668357 
L 224.951791 -6.383783 
L 228.435018 -16.857791 
L 231.918246 -13.852703 
L 235.401473 -16.278694 
L 238.884701 -13.369765 
L 242.367928 -18.932774 
L 245.851156 -15.836315 
L 249.334383 -8.238043 
L 252.817611 -11.258375 
L 256.300838 -5.472071 
L 259.784066 -9.193623 
L 263.267293 -11.726667 
L 266.750521 -12.721742 
L 270.233748 13.446145 
L 273.716976 15.011969 
L 277.200203 17.486999 
L 280.683431 12.625835 
L 284.166658 9.580825 
L 287.649886 11.484287 
L 291.133113 24.765194 
L 294.616341 20.175121 
L 298.099568 15.852754 
L 301.582796 12.808452 
L 305.066023 8.884695 
L 308.549251 7.206211 
L 312.032479 12.057859 
L 315.515706 12.001565 
L 318.998934 11.764601 
L 322.482161 10.273071 
L 325.965389 7.249098 
L 329.448616 0.441376 
L 332.931844 -2.567077 
L 336.415071 -1.856703 
L 339.898299 -0.358546 
L 343.381526 -1.094587 
L 346.864754 -0.535386 
L 350.347981 -0.324574 
L 353.831209 12.033943 
L 357.314436 22.732168 
L 360.797664 23.675199 
L 364.280891 15.433876 
L 367.764119 11.246974 
L 371.247346 6.554959 
L 374.730574 1.647919 
L 378.213801 2.001469 
L 381.697029 1.796702 
L 385.180256 4.014402 
L 388.663484 3.752108 
L 392.146711 3.041124 
L 395.629939 6.42836 
L 399.113166 7.638018 
L 402.596394 -1.367459 
L 406.079621 1.824053 
L 409.562849 4.970326 
L 413.046076 4.235563 
L 416.529304 12.626148 
L 420.012531 18.177973 
L 423.495759 -4.231765 
L 426.978986 9.958502 
L 430.462214 15.526428 
L 433.945441 -5.718317 
L 437.428669 -0.446469 
L 440.911896 -9.462644 
L 444.395124 -5.40115 
L 447.878352 7.525933 
L 451.361579 -2.094332 
L 454.844807 -9.784923 
L 458.328034 -7.170833 
L 461.811262 -7.798981 
L 465.294489 14.173895 
L 468.777717 25.110887 
L 472.260944 24.838207 
L 475.744172 22.193558 
L 479.227399 14.994205 
L 482.710627 12.035925 
L 486.193854 13.750335 
L 489.677082 19.82216 
L 493.160309 20.022636 
L 496.643537 17.100912 
L 500.126764 5.923193 
L 503.609992 13.737824 
L 507.093219 11.677877 
L 510.576447 8.838937 
L 514.059674 11.966693 
L 517.542902 6.29734 
L 521.026129 7.424856 
L 524.509357 7.519784 
L 527.992584 6.664249 
L 531.475812 7.424169 
L 534.959039 8.365767 
L 538.442267 13.411574 
L 541.925494 12.946932 
L 545.408722 14.265644 
L 548.891949 9.64951 
L 552.375177 11.294854 
L 555.858404 12.40616 
L 559.341632 14.262136 
L 562.824859 10.695976 
L 566.308087 8.326631 
L 569.791314 12.897981 
L 573.274542 15.254959 
L 576.75777 14.641233 
L 580.240997 15.024212 
L 583.724225 17.055398 
L 587.207452 10.456795 
L 590.69068 10.557745 
L 594.173907 -6.558887 
L 597.657135 -7.635028 
L 601.140362 -6.541507 
L 604.62359 -5.97738 
L 608.106817 -8.154442 
L 611.590045 -8.009388 
L 615.073272 -16.062424 
L 618.5565 -0.421595 
L 622.039727 -6.448578 
L 625.522955 -3.400141 
L 629.006182 -10.812932 
L 632.48941 -14.558781 
L 635.972637 -8.412025 
L 639.455865 -8.009549 
L 642.939092 1.180845 
L 646.42232 17.863735 
L 649.905547 6.245368 
L 653.388775 2.177911 
L 656.872002 7.944894 
L 660.35523 0.454599 
L 663.838457 11.518854 
L 667.321685 15.436663 
L 670.804912 16.213412 
L 674.28814 10.703452 
L 677.771367 9.904314 
L 681.254595 13.211432 
L 684.737822 15.417762 
L 688.22105 11.769867 
L 691.704277 12.832045 
L 695.187505 13.155599 
L 698.670732 14.217459 
L 702.15396 7.257104 
L 705.637188 10.963212 
L 705.637188 -251.421695 
L 705.637188 -251.421695 
L 702.15396 -256.520531 
L 698.670732 -265.306203 
L 695.187505 -265.102756 
L 691.704277 -267.07511 
L 688.22105 -271.581031 
L 684.737822 -272.874562 
L 681.254595 -261.62778 
L 677.771367 -258.046126 
L 674.28814 -262.093343 
L 670.804912 -280.360894 
L 667.321685 -269.231924 
L 663.838457 -251.976126 
L 660.35523 -233.171732 
L 656.872002 -237.007437 
L 653.388775 -217.388005 
L 649.905547 -227.805254 
L 646.42232 -247.256901 
L 642.939092 -224.218527 
L 639.455865 -209.751756 
L 635.972637 -208.808661 
L 632.48941 -209.967942 
L 629.006182 -218.319983 
L 625.522955 -237.946951 
L 622.039727 -231.486156 
L 618.5565 -232.339088 
L 615.073272 -211.507166 
L 611.590045 -218.703943 
L 608.106817 -226.462016 
L 604.62359 -224.854957 
L 601.140362 -224.025899 
L 597.657135 -221.881698 
L 594.173907 -218.965607 
L 590.69068 -237.926349 
L 587.207452 -235.160651 
L 583.724225 -241.366398 
L 580.240997 -240.454516 
L 576.75777 -235.934127 
L 573.274542 -228.529442 
L 569.791314 -219.06186 
L 566.308087 -209.531904 
L 562.824859 -215.884541 
L 559.341632 -221.079787 
L 555.858404 -223.091121 
L 552.375177 -225.485246 
L 548.891949 -221.625775 
L 545.408722 -231.476586 
L 541.925494 -226.987257 
L 538.442267 -231.911934 
L 534.959039 -221.199862 
L 531.475812 -227.074287 
L 527.992584 -231.801683 
L 524.509357 -232.448828 
L 521.026129 -231.699395 
L 517.542902 -232.410787 
L 514.059674 -241.191736 
L 510.576447 -235.415751 
L 507.093219 -247.390835 
L 503.609992 -253.278104 
L 500.126764 -241.208755 
L 496.643537 -266.632827 
L 493.160309 -301.110485 
L 489.677082 -324.002221 
L 486.193854 -324.480439 
L 482.710627 -288.877297 
L 479.227399 -274.353718 
L 475.744172 -279.673093 
L 472.260944 -285.451551 
L 468.777717 -280.932909 
L 465.294489 -254.66417 
L 461.811262 -219.282341 
L 458.328034 -219.753158 
L 454.844807 -206.851141 
L 451.361579 -215.602155 
L 447.878352 -234.121152 
L 444.395124 -204.999218 
L 440.911896 -208.699934 
L 437.428669 -205.806535 
L 433.945441 -206.570968 
L 430.462214 -243.812618 
L 426.978986 -237.455555 
L 423.495759 -215.003145 
L 420.012531 -251.467122 
L 416.529304 -240.760419 
L 413.046076 -232.229546 
L 409.562849 -235.420841 
L 406.079621 -233.822701 
L 402.596394 -233.151422 
L 399.113166 -248.592219 
L 395.629939 -241.564029 
L 392.146711 -229.953555 
L 388.663484 -242.35556 
L 385.180256 -243.342486 
L 381.697029 -243.144808 
L 378.213801 -243.118066 
L 374.730574 -248.572431 
L 371.247346 -266.187855 
L 367.764119 -261.29087 
L 364.280891 -254.732729 
L 360.797664 -266.174844 
L 357.314436 -260.460118 
L 353.831209 -239.190875 
L 350.347981 -211.704879 
L 346.864754 -212.814218 
L 343.381526 -217.227139 
L 339.898299 -220.133233 
L 336.415071 -221.222119 
L 332.931844 -225.546939 
L 329.448616 -232.022128 
L 325.965389 -236.785067 
L 322.482161 -235.276817 
L 318.998934 -233.35728 
L 315.515706 -225.525054 
L 312.032479 -227.77536 
L 308.549251 -221.811252 
L 305.066023 -224.307474 
L 301.582796 -231.745114 
L 298.099568 -248.072608 
L 294.616341 -265.81713 
L 291.133113 -275.418789 
L 287.649886 -259.150823 
L 284.166658 -254.854494 
L 280.683431 -244.36032 
L 277.200203 -247.765341 
L 273.716976 -236.954024 
L 270.233748 -227.911841 
L 266.750521 -192.809739 
L 263.267293 -197.724719 
L 259.784066 -190.52411 
L 256.300838 -204.386456 
L 252.817611 -198.995557 
L 249.334383 -190.515272 
L 245.851156 -176.45671 
L 242.367928 -168.828761 
L 238.884701 -177.170475 
L 235.401473 -165.924666 
L 231.918246 -178.609213 
L 228.435018 -175.256704 
L 224.951791 -178.461799 
L 221.468563 -188.300931 
L 217.985336 -187.741745 
L 214.502108 -203.024616 
L 211.018881 -202.213726 
L 207.535653 -189.751239 
L 204.052426 -219.835313 
L 200.569198 -220.45586 
L 197.085971 -208.32911 
L 193.602743 -202.19207 
L 190.119516 -191.654312 
L 186.636288 -193.355811 
L 183.153061 -200.906317 
L 179.669833 -209.66086 
L 176.186605 -201.486934 
L 172.703378 -184.715342 
L 169.22015 -194.740826 
L 165.736923 -193.410853 
L 162.253695 -194.06661 
L 158.770468 -191.500338 
L 155.28724 -190.624617 
L 151.804013 -197.660746 
L 148.320785 -192.884007 
L 144.837558 -181.898114 
L 141.35433 -179.223131 
L 137.871103 -179.800931 
L 134.387875 -172.490428 
L 130.904648 -179.388869 
L 127.42142 -182.760843 
L 123.938193 -184.868389 
L 120.454965 -184.18547 
L 116.971738 -177.123974 
L 113.48851 -182.709968 
L 110.005283 -177.437883 
L 106.522055 -177.743814 
L 103.038828 -176.557843 
L 99.5556 -172.388316 
L 96.072373 -179.73545 
L 92.589145 -182.037958 
L 89.105918 -186.613753 
L 85.62269 -193.163742 
L 82.139463 -194.752037 
L 78.656235 -192.105587 
L 75.173008 -178.153102 
L 71.68978 -184.520155 
L 68.206553 -192.951236 
L 64.723325 -206.536078 
L 61.240098 -202.126507 
L 57.75687 -194.960384 
L 54.273643 -187.120458 
L 50.790415 -167.256615 
L 47.307188 -159.080246 
z
" style="stroke: #d3d3d3; stroke-opacity: 0.5"/>
    </defs>
    <g clip-path="url(#p04d4206e92)">
     <use xlink:href="#m49f828d808" x="0" y="424.5775" style="fill: #d3d3d3; fill-opacity: 0.5; stroke: #d3d3d3; stroke-opacity: 0.5"/>
    </g>
   </g>
   <g id="FillBetweenPolyCollection_2">
    <defs>
     <path id="m12fa74fb1f" d="M 47.307188 -123.325706 
L 47.307188 -51.816628 
L 50.790415 -52.823288 
L 54.273643 -53.788843 
L 57.75687 -54.52399 
L 61.240098 -51.772339 
L 64.723325 -52.358368 
L 68.206553 -54.284015 
L 71.68978 -51.517976 
L 75.173008 -51.879048 
L 78.656235 -53.8029 
L 82.139463 -55.39425 
L 85.62269 -54.247382 
L 89.105918 -53.546942 
L 92.589145 -52.628347 
L 96.072373 -54.199916 
L 99.5556 -53.617393 
L 103.038828 -55.629965 
L 106.522055 -54.834693 
L 110.005283 -54.602782 
L 113.48851 -54.472497 
L 116.971738 -54.224985 
L 120.454965 -53.750174 
L 123.938193 -53.290114 
L 127.42142 -52.037927 
L 130.904648 -52.330668 
L 134.387875 -53.722237 
L 137.871103 -51.550387 
L 141.35433 -51.698894 
L 144.837558 -51.710304 
L 148.320785 -53.574462 
L 151.804013 -52.931919 
L 155.28724 -52.577592 
L 158.770468 -53.219868 
L 162.253695 -52.467555 
L 165.736923 -50.847215 
L 169.22015 -51.342831 
L 172.703378 -52.166484 
L 176.186605 -45.846459 
L 179.669833 -46.150243 
L 183.153061 -48.393249 
L 186.636288 -50.327831 
L 190.119516 -50.498066 
L 193.602743 -50.193032 
L 197.085971 -50.222776 
L 200.569198 -53.866312 
L 204.052426 -50.56193 
L 207.535653 -57.795142 
L 211.018881 -51.866006 
L 214.502108 -51.404561 
L 217.985336 -51.026084 
L 221.468563 -50.5765 
L 224.951791 -49.403287 
L 228.435018 -56.45752 
L 231.918246 -55.041831 
L 235.401473 -53.690187 
L 238.884701 -54.319942 
L 242.367928 -56.406771 
L 245.851156 -55.991414 
L 249.334383 -53.80735 
L 252.817611 -58.192671 
L 256.300838 -55.200667 
L 259.784066 -54.526245 
L 263.267293 -58.22618 
L 266.750521 -57.743741 
L 270.233748 -46.893351 
L 273.716976 -47.979529 
L 277.200203 -48.826086 
L 280.683431 -51.620704 
L 284.166658 -56.528005 
L 287.649886 -56.17449 
L 291.133113 -50.280801 
L 294.616341 -51.322942 
L 298.099568 -50.128587 
L 301.582796 -48.32994 
L 305.066023 -49.413348 
L 308.549251 -50.048155 
L 312.032479 -47.900445 
L 315.515706 -47.38009 
L 318.998934 -49.515869 
L 322.482161 -51.114401 
L 325.965389 -53.759443 
L 329.448616 -57.6745 
L 332.931844 -58.312042 
L 336.415071 -56.698057 
L 339.898299 -55.302218 
L 343.381526 -55.127725 
L 346.864754 -53.605094 
L 350.347981 -53.16965 
L 353.831209 -50.772261 
L 357.314436 -48.065904 
L 360.797664 -48.787311 
L 364.280891 -52.107775 
L 367.764119 -56.887487 
L 371.247346 -61.630744 
L 374.730574 -60.907169 
L 378.213801 -59.278414 
L 381.697029 -59.438675 
L 385.180256 -57.82482 
L 388.663484 -57.774809 
L 392.146711 -55.207546 
L 395.629939 -55.569737 
L 399.113166 -56.419542 
L 402.596394 -59.31345 
L 406.079621 -57.087635 
L 409.562849 -55.127466 
L 413.046076 -54.880714 
L 416.529304 -50.720494 
L 420.012531 -49.233301 
L 423.495759 -56.92461 
L 426.978986 -51.895013 
L 430.462214 -49.308333 
L 433.945441 -55.93148 
L 437.428669 -51.786486 
L 440.911896 -59.271967 
L 444.395124 -55.300667 
L 447.878352 -52.885838 
L 451.361579 -55.471288 
L 454.844807 -59.051477 
L 458.328034 -60.316414 
L 461.811262 -60.669821 
L 465.294489 -53.035621 
L 468.777717 -51.400062 
L 472.260944 -52.734232 
L 475.744172 -53.273105 
L 479.227399 -57.342776 
L 482.710627 -63.192381 
L 486.193854 -70.807359 
L 489.677082 -66.133935 
L 493.160309 -60.260644 
L 496.643537 -53.832523 
L 500.126764 -55.859794 
L 503.609992 -53.016158 
L 507.093219 -53.089301 
L 510.576447 -52.224735 
L 514.059674 -51.322914 
L 517.542902 -53.379692 
L 521.026129 -52.356207 
L 524.509357 -52.472369 
L 527.992584 -52.952234 
L 531.475812 -51.200445 
L 534.959039 -49.02564 
L 538.442267 -47.919303 
L 541.925494 -47.036615 
L 545.408722 -47.169914 
L 548.891949 -48.169311 
L 552.375177 -47.900171 
L 555.858404 -46.46816 
L 559.341632 -44.573345 
L 562.824859 -45.949153 
L 566.308087 -46.138003 
L 569.791314 -45.091979 
L 573.274542 -45.691141 
L 576.75777 -48.002607 
L 580.240997 -48.84547 
L 583.724225 -47.550051 
L 587.207452 -50.947567 
L 590.69068 -51.563279 
L 594.173907 -59.660567 
L 597.657135 -61.196696 
L 601.140362 -60.912605 
L 604.62359 -60.696774 
L 608.106817 -62.731336 
L 611.590045 -60.683027 
L 615.073272 -64.92361 
L 618.5565 -58.400968 
L 622.039727 -62.707972 
L 625.522955 -62.036844 
L 629.006182 -62.689695 
L 632.48941 -63.411071 
L 635.972637 -58.511184 
L 639.455865 -58.445101 
L 642.939092 -55.168998 
L 646.42232 -48.416424 
L 649.905547 -52.267287 
L 653.388775 -52.713568 
L 656.872002 -53.293189 
L 660.35523 -57.951984 
L 663.838457 -54.354891 
L 667.321685 -55.730483 
L 670.804912 -57.930164 
L 674.28814 -57.495747 
L 677.771367 -57.083296 
L 681.254595 -55.498371 
L 684.737822 -56.655319 
L 688.22105 -59.067858 
L 691.704277 -57.144744 
L 695.187505 -56.40899 
L 698.670732 -55.663456 
L 702.15396 -58.687305 
L 705.637188 -54.633015 
L 705.637188 -185.825468 
L 705.637188 -185.825468 
L 702.15396 -190.576122 
L 698.670732 -195.425287 
L 695.187505 -195.538167 
L 691.704277 -197.098321 
L 688.22105 -200.743307 
L 684.737822 -200.801481 
L 681.254595 -192.917977 
L 677.771367 -191.058516 
L 674.28814 -193.894144 
L 670.804912 -206.217317 
L 667.321685 -198.064777 
L 663.838457 -186.102381 
L 660.35523 -174.76515 
L 656.872002 -175.769354 
L 653.388775 -162.496526 
L 649.905547 -169.292598 
L 646.42232 -180.976742 
L 642.939092 -167.868684 
L 639.455865 -159.316204 
L 635.972637 -158.709502 
L 632.48941 -161.115652 
L 629.006182 -166.44322 
L 625.522955 -179.310249 
L 622.039727 -175.226761 
L 618.5565 -174.359715 
L 615.073272 -162.64598 
L 611.590045 -166.030304 
L 608.106817 -171.885123 
L 604.62359 -170.135563 
L 601.140362 -169.654801 
L 597.657135 -168.32003 
L 594.173907 -165.863927 
L 590.69068 -175.805326 
L 587.207452 -173.75629 
L 583.724225 -176.760949 
L 580.240997 -176.584834 
L 576.75777 -173.290287 
L 573.274542 -167.583342 
L 569.791314 -161.071899 
L 566.308087 -155.06727 
L 562.824859 -159.239412 
L 559.341632 -162.244306 
L 555.858404 -164.216801 
L 552.375177 -166.290221 
L 548.891949 -163.806954 
L 545.408722 -170.041029 
L 541.925494 -167.00371 
L 538.442267 -170.581057 
L 534.959039 -163.808455 
L 531.475812 -168.449673 
L 527.992584 -172.1852 
L 524.509357 -172.456675 
L 521.026129 -171.918332 
L 517.542902 -172.733755 
L 514.059674 -177.902129 
L 510.576447 -174.352079 
L 507.093219 -182.623657 
L 503.609992 -186.524122 
L 500.126764 -179.425768 
L 496.643537 -195.699392 
L 493.160309 -220.827205 
L 489.677082 -238.046126 
L 486.193854 -239.922746 
L 482.710627 -213.648991 
L 479.227399 -202.016737 
L 475.744172 -204.206431 
L 472.260944 -207.879111 
L 468.777717 -204.42196 
L 465.294489 -187.454654 
L 461.811262 -166.411501 
L 458.328034 -166.607576 
L 454.844807 -157.584586 
L 451.361579 -162.225199 
L 447.878352 -173.709381 
L 444.395124 -155.099701 
L 440.911896 -158.890612 
L 437.428669 -154.466518 
L 433.945441 -156.357806 
L 430.462214 -178.977856 
L 426.978986 -175.602041 
L 423.495759 -162.3103 
L 420.012531 -184.055848 
L 416.529304 -177.413778 
L 413.046076 -173.113269 
L 409.562849 -175.32305 
L 406.079621 -174.911013 
L 402.596394 -175.205432 
L 399.113166 -184.53466 
L 395.629939 -179.565932 
L 392.146711 -171.704885 
L 388.663484 -180.828643 
L 385.180256 -181.503264 
L 381.697029 -181.90943 
L 378.213801 -181.838182 
L 374.730574 -186.017343 
L 371.247346 -198.002151 
L 367.764119 -193.156409 
L 364.280891 -187.191078 
L 360.797664 -193.712333 
L 357.314436 -189.662047 
L 353.831209 -176.38467 
L 350.347981 -158.859803 
L 346.864754 -159.74451 
L 343.381526 -163.194001 
L 339.898299 -165.189561 
L 336.415071 -166.380765 
L 332.931844 -169.801973 
L 329.448616 -173.906252 
L 325.965389 -175.776526 
L 322.482161 -173.889345 
L 318.998934 -172.07681 
L 315.515706 -166.143399 
L 312.032479 -167.817055 
L 308.549251 -164.556886 
L 305.066023 -166.009432 
L 301.582796 -170.606722 
L 298.099568 -182.091268 
L 294.616341 -194.319067 
L 291.133113 -200.372793 
L 287.649886 -191.492046 
L 284.166658 -188.745664 
L 280.683431 -180.113782 
L 277.200203 -181.452256 
L 273.716976 -173.962526 
L 270.233748 -167.572344 
L 266.750521 -147.78774 
L 263.267293 -151.225206 
L 259.784066 -145.191488 
L 256.300838 -154.65786 
L 252.817611 -152.061262 
L 249.334383 -144.945965 
L 245.851156 -136.301611 
L 242.367928 -131.354765 
L 238.884701 -136.220297 
L 235.401473 -128.513173 
L 231.918246 -137.420086 
L 228.435018 -135.656976 
L 224.951791 -135.442295 
L 221.468563 -142.392787 
L 217.985336 -142.169858 
L 214.502108 -152.484598 
L 211.018881 -152.09782 
L 207.535653 -145.765874 
L 204.052426 -163.410852 
L 200.569198 -164.926011 
L 197.085971 -155.626999 
L 193.602743 -151.525724 
L 190.119516 -144.60223 
L 186.636288 -145.679818 
L 183.153061 -150.068628 
L 179.669833 -155.157321 
L 176.186605 -149.606776 
L 172.703378 -140.53239 
L 169.22015 -146.941494 
L 165.736923 -145.88964 
L 162.253695 -146.866925 
L 158.770468 -145.406848 
L 155.28724 -144.608942 
L 151.804013 -149.417804 
L 148.320785 -146.447492 
L 144.837558 -138.502177 
L 141.35433 -136.715052 
L 137.871103 -137.050749 
L 134.387875 -132.901031 
L 130.904648 -137.036136 
L 127.42142 -139.186537 
L 123.938193 -141.008964 
L 120.454965 -140.707038 
L 116.971738 -136.157644 
L 113.48851 -139.964145 
L 110.005283 -136.492849 
L 106.522055 -136.774107 
L 103.038828 -136.248551 
L 99.5556 -132.798009 
L 96.072373 -137.890272 
L 92.589145 -138.901421 
L 89.105918 -142.258149 
L 85.62269 -146.858289 
L 82.139463 -148.299441 
L 78.656235 -146.004691 
L 75.173008 -136.061751 
L 71.68978 -140.186096 
L 68.206553 -146.728829 
L 64.723325 -155.143508 
L 61.240098 -152.008451 
L 57.75687 -148.148252 
L 54.273643 -142.676586 
L 50.790415 -129.112172 
L 47.307188 -123.325706 
z
" style="stroke: #808080; stroke-opacity: 0.7"/>
    </defs>
    <g clip-path="url(#p04d4206e92)">
     <use xlink:href="#m12fa74fb1f" x="0" y="424.5775" style="fill: #808080; fill-opacity: 0.7; stroke: #808080; stroke-opacity: 0.7"/>
    </g>
   </g>
   <g id="line2d_31">
    <path d="M 47.307188 335.008488 
L 50.790415 329.963528 
L 54.273643 323.769429 
L 57.75687 329.968539 
L 61.240098 339.636049 
L 64.723325 333.229301 
L 68.206553 333.32349 
L 71.68978 335.219056 
L 75.173008 336.884838 
L 78.656235 333.995383 
L 82.139463 325.132662 
L 85.62269 325.61216 
L 89.105918 325.601329 
L 92.589145 325.862195 
L 96.072373 333.666453 
L 99.5556 337.698386 
L 103.038828 329.794522 
L 106.522055 336.626711 
L 110.005283 329.264476 
L 113.48851 334.869524 
L 116.971738 334.608154 
L 120.454965 338.393167 
L 123.938193 329.945133 
L 127.42142 340.736114 
L 130.904648 338.187859 
L 134.387875 338.914005 
L 137.871103 342.263672 
L 141.35433 335.19956 
L 144.837558 335.459579 
L 148.320785 331.798838 
L 151.804013 326.805004 
L 155.28724 339.373273 
L 158.770468 344.958142 
L 162.253695 343.926177 
L 165.736923 335.258555 
L 169.22015 334.137429 
L 172.703378 331.745018 
L 176.186605 337.311747 
L 179.669833 333.14894 
L 183.153061 335.191872 
L 186.636288 332.691625 
L 190.119516 341.420961 
L 193.602743 355.969782 
L 197.085971 355.928621 
L 200.569198 354.089201 
L 204.052426 345.843628 
L 207.535653 325.305919 
L 211.018881 320.351873 
L 214.502108 327.996613 
L 217.985336 352.83337 
L 221.468563 337.18986 
L 224.951791 342.673098 
L 228.435018 347.253197 
L 231.918246 337.677364 
L 235.401473 334.501237 
L 238.884701 316.776838 
L 242.367928 307.043041 
L 245.851156 280.879651 
L 249.334383 296.973406 
L 252.817611 269.761305 
L 256.300838 312.501328 
L 259.784066 316.131482 
L 263.267293 323.568325 
L 266.750521 310.508127 
L 270.233748 306.337605 
L 273.716976 286.117423 
L 277.200203 277.765063 
L 280.683431 263.729957 
L 284.166658 261.969988 
L 287.649886 298.539883 
L 291.133113 319.886379 
L 294.616341 325.270293 
L 298.099568 324.421433 
L 301.582796 320.33175 
L 305.066023 327.390629 
L 308.549251 317.389227 
L 312.032479 323.896322 
L 315.515706 315.957905 
L 318.998934 289.147864 
L 322.482161 300.941157 
L 325.965389 295.296018 
L 329.448616 300.776567 
L 332.931844 307.050516 
L 336.415071 314.815028 
L 339.898299 324.855785 
L 343.381526 301.88606 
L 346.864754 306.583137 
L 350.347981 306.722616 
L 353.831209 299.360767 
L 357.314436 308.061826 
L 360.797664 299.964613 
L 364.280891 312.327315 
L 371.247346 306.983129 
L 374.730574 323.879418 
L 378.213801 323.70535 
L 381.697029 336.189897 
L 385.180256 367.741449 
L 388.663484 358.311648 
L 392.146711 362.172822 
L 395.629939 358.295072 
L 399.113166 344.497631 
L 402.596394 332.830732 
L 406.079621 339.730256 
L 409.562849 355.840736 
L 413.046076 347.528263 
L 416.529304 342.326787 
L 420.012531 349.442353 
L 423.495759 342.140735 
L 426.978986 359.104156 
L 430.462214 345.958643 
L 433.945441 330.498285 
L 437.428669 341.940268 
L 440.911896 294.884758 
L 444.395124 266.759246 
L 447.878352 285.745265 
L 451.361579 302.23721 
L 454.844807 308.670459 
L 458.328034 299.950822 
L 461.811262 311.745578 
L 465.294489 321.858784 
L 468.777717 311.887226 
L 472.260944 308.902674 
L 475.744172 253.692227 
L 479.227399 253.210612 
L 482.710627 324.344329 
L 486.193854 320.294257 
L 489.677082 331.005139 
L 493.160309 325.492124 
L 496.643537 329.530219 
L 500.126764 329.507185 
L 503.609992 323.193651 
L 507.093219 299.693893 
L 510.576447 310.474415 
L 514.059674 322.325688 
L 517.542902 321.841294 
L 521.026129 305.100578 
L 524.509357 305.985339 
L 527.992584 282.351148 
L 531.475812 282.830372 
L 534.959039 302.456729 
L 538.442267 316.481677 
L 541.925494 329.571387 
L 545.408722 287.454337 
L 548.891949 307.938695 
L 552.375177 310.257752 
L 555.858404 316.497628 
L 559.341632 311.395554 
L 562.824859 298.047136 
L 566.308087 302.972969 
L 569.791314 311.23597 
L 573.274542 309.597099 
L 576.75777 315.310603 
L 580.240997 303.68382 
L 583.724225 303.413836 
L 587.207452 290.006085 
L 590.69068 329.098241 
L 594.173907 321.272231 
L 597.657135 332.467714 
L 601.140362 348.840608 
L 604.62359 325.86047 
L 608.106817 333.762891 
L 611.590045 321.008609 
L 615.073272 328.997051 
L 618.5565 269.358559 
L 622.039727 316.733 
L 625.522955 297.96572 
L 629.006182 302.733644 
L 632.48941 287.656909 
L 635.972637 242.837635 
L 639.455865 248.133966 
L 642.939092 251.975257 
L 649.905547 310.130592 
L 653.388775 311.994974 
L 656.872002 250.988657 
L 660.35523 173.586118 
L 663.838457 250.139417 
L 667.321685 308.708181 
L 670.804912 301.407423 
L 674.28814 287.337649 
L 677.771367 307.265881 
L 681.254595 338.3031 
L 684.737822 325.934386 
L 688.22105 334.437939 
L 691.704277 330.382929 
L 695.187505 336.543085 
L 698.670732 342.954571 
L 702.15396 343.609018 
L 705.637188 329.85837 
L 705.637188 329.85837 
" clip-path="url(#p04d4206e92)" style="fill: none; stroke: #ff8c00; stroke-width: 2.3; stroke-linecap: square"/>
   </g>
   <g id="line2d_32">
    <path d="M 277.200203 384.117812 
L 277.200203 23.837812 
" clip-path="url(#p04d4206e92)" style="fill: none; stroke-dasharray: 5.55,2.4; stroke-dashoffset: 0; stroke: #808080; stroke-width: 1.5"/>
   </g>
   <g id="line2d_33">
    <path d="M 475.744172 384.117812 
L 475.744172 23.837812 
" clip-path="url(#p04d4206e92)" style="fill: none; stroke-dasharray: 5.55,2.4; stroke-dashoffset: 0; stroke: #808080; stroke-width: 1.5"/>
   </g>
   <g id="patch_3">
    <path d="M 47.307188 384.117812 
L 47.307188 23.837812 
" style="fill: none; stroke: #000000; stroke-width: 0.8; stroke-linejoin: miter; stroke-linecap: square"/>
   </g>
   <g id="patch_4">
    <path d="M 705.637188 384.117812 
L 705.637188 23.837812 
" style="fill: none; stroke: #000000; stroke-width: 0.8; stroke-linejoin: miter; stroke-linecap: square"/>
   </g>
   <g id="patch_5">
    <path d="M 47.307188 384.117812 
L 705.637188 384.117812 
" style="fill: none; stroke: #000000; stroke-width: 0.8; stroke-linejoin: miter; stroke-linecap: square"/>
   </g>
   <g id="patch_6">
    <path d="M 47.307188 23.837812 
L 705.637188 23.837812 
" style="fill: none; stroke: #000000; stroke-width: 0.8; stroke-linejoin: miter; stroke-linecap: square"/>
   </g>
   <g id="text_18">
    <!-- Facial trace: Control group (male) -->
    <g transform="translate(258.993594 17.837812) scale(0.14 -0.14)">
     <defs>
      <path id="DejaVuSans-46" d="M 628 4666 
L 3309 4666 
L 3309 4134 
L 1259 4134 
L 1259 2759 
L 3109 2759 
L 3109 2228 
L 1259 2228 
L 1259 0 
L 628 0 
L 628 4666 
z
" transform="scale(0.015625)"/>
      <path id="DejaVuSans-63" d="M 3122 3366 
L 3122 2828 
Q 2878 2963 2633 3030 
Q 2388 3097 2138 3097 
Q 1578 3097 1268 2742 
Q 959 2388 959 1747 
Q 959 1106 1268 751 
Q 1578 397 2138 397 
Q 2388 397 2633 464 
Q 2878 531 3122 666 
L 3122 134 
Q 2881 22 2623 -34 
Q 2366 -91 2075 -91 
Q 1284 -91 818 406 
Q 353 903 353 1747 
Q 353 2603 823 3093 
Q 1294 3584 2113 3584 
Q 2378 3584 2631 3529 
Q 2884 3475 3122 3366 
z
" transform="scale(0.015625)"/>
      <path id="DejaVuSans-6c" d="M 603 4863 
L 1178 4863 
L 1178 0 
L 603 0 
L 603 4863 
z
" transform="scale(0.015625)"/>
      <path id="DejaVuSans-72" d="M 2631 2963 
Q 2534 3019 2420 3045 
Q 2306 3072 2169 3072 
Q 1681 3072 1420 2755 
Q 1159 2438 1159 1844 
L 1159 0 
L 581 0 
L 581 3500 
L 1159 3500 
L 1159 2956 
Q 1341 3275 1631 3429 
Q 1922 3584 2338 3584 
Q 2397 3584 2469 3576 
Q 2541 3569 2628 3553 
L 2631 2963 
z
" transform="scale(0.015625)"/>
      <path id="DejaVuSans-3a" d="M 750 794 
L 1409 794 
L 1409 0 
L 750 0 
L 750 794 
z
M 750 3309 
L 1409 3309 
L 1409 2516 
L 750 2516 
L 750 3309 
z
" transform="scale(0.015625)"/>
      <path id="DejaVuSans-43" d="M 4122 4306 
L 4122 3641 
Q 3803 3938 3442 4084 
Q 3081 4231 2675 4231 
Q 1875 4231 1450 3742 
Q 1025 3253 1025 2328 
Q 1025 1406 1450 917 
Q 1875 428 2675 428 
Q 3081 428 3442 575 
Q 3803 722 4122 1019 
L 4122 359 
Q 3791 134 3420 21 
Q 3050 -91 2638 -91 
Q 1578 -91 968 557 
Q 359 1206 359 2328 
Q 359 3453 968 4101 
Q 1578 4750 2638 4750 
Q 3056 4750 3426 4639 
Q 3797 4528 4122 4306 
z
" transform="scale(0.015625)"/>
      <path id="DejaVuSans-6f" d="M 1959 3097 
Q 1497 3097 1228 2736 
Q 959 2375 959 1747 
Q 959 1119 1226 758 
Q 1494 397 1959 397 
Q 2419 397 2687 759 
Q 2956 1122 2956 1747 
Q 2956 2369 2687 2733 
Q 2419 3097 1959 3097 
z
M 1959 3584 
Q 2709 3584 3137 3096 
Q 3566 2609 3566 1747 
Q 3566 888 3137 398 
Q 2709 -91 1959 -91 
Q 1206 -91 779 398 
Q 353 888 353 1747 
Q 353 2609 779 3096 
Q 1206 3584 1959 3584 
z
" transform="scale(0.015625)"/>
      <path id="DejaVuSans-67" d="M 2906 1791 
Q 2906 2416 2648 2759 
Q 2391 3103 1925 3103 
Q 1463 3103 1205 2759 
Q 947 2416 947 1791 
Q 947 1169 1205 825 
Q 1463 481 1925 481 
Q 2391 481 2648 825 
Q 2906 1169 2906 1791 
z
M 3481 434 
Q 3481 -459 3084 -895 
Q 2688 -1331 1869 -1331 
Q 1566 -1331 1297 -1286 
Q 1028 -1241 775 -1147 
L 775 -588 
Q 1028 -725 1275 -790 
Q 1522 -856 1778 -856 
Q 2344 -856 2625 -561 
Q 2906 -266 2906 331 
L 2906 616 
Q 2728 306 2450 153 
Q 2172 0 1784 0 
Q 1141 0 747 490 
Q 353 981 353 1791 
Q 353 2603 747 3093 
Q 1141 3584 1784 3584 
Q 2172 3584 2450 3431 
Q 2728 3278 2906 2969 
L 2906 3500 
L 3481 3500 
L 3481 434 
z
" transform="scale(0.015625)"/>
      <path id="DejaVuSans-75" d="M 544 1381 
L 544 3500 
L 1119 3500 
L 1119 1403 
Q 1119 906 1312 657 
Q 1506 409 1894 409 
Q 2359 409 2629 706 
Q 2900 1003 2900 1516 
L 2900 3500 
L 3475 3500 
L 3475 0 
L 2900 0 
L 2900 538 
Q 2691 219 2414 64 
Q 2138 -91 1772 -91 
Q 1169 -91 856 284 
Q 544 659 544 1381 
z
M 1991 3584 
L 1991 3584 
z
" transform="scale(0.015625)"/>
      <path id="DejaVuSans-70" d="M 1159 525 
L 1159 -1331 
L 581 -1331 
L 581 3500 
L 1159 3500 
L 1159 2969 
Q 1341 3281 1617 3432 
Q 1894 3584 2278 3584 
Q 2916 3584 3314 3078 
Q 3713 2572 3713 1747 
Q 3713 922 3314 415 
Q 2916 -91 2278 -91 
Q 1894 -91 1617 61 
Q 1341 213 1159 525 
z
M 3116 1747 
Q 3116 2381 2855 2742 
Q 2594 3103 2138 3103 
Q 1681 3103 1420 2742 
Q 1159 2381 1159 1747 
Q 1159 1113 1420 752 
Q 1681 391 2138 391 
Q 2594 391 2855 752 
Q 3116 1113 3116 1747 
z
" transform="scale(0.015625)"/>
     </defs>
     <use xlink:href="#DejaVuSans-46"/>
     <use xlink:href="#DejaVuSans-61" transform="translate(48.394531 0)"/>
     <use xlink:href="#DejaVuSans-63" transform="translate(109.673828 0)"/>
     <use xlink:href="#DejaVuSans-69" transform="translate(164.654297 0)"/>
     <use xlink:href="#DejaVuSans-61" transform="translate(192.4375 0)"/>
     <use xlink:href="#DejaVuSans-6c" transform="translate(253.716797 0)"/>
     <use xlink:href="#DejaVuSans-20" transform="translate(281.5 0)"/>
     <use xlink:href="#DejaVuSans-74" transform="translate(313.287109 0)"/>
     <use xlink:href="#DejaVuSans-72" transform="translate(352.496094 0)"/>
     <use xlink:href="#DejaVuSans-61" transform="translate(393.609375 0)"/>
     <use xlink:href="#DejaVuSans-63" transform="translate(454.888672 0)"/>
     <use xlink:href="#DejaVuSans-65" transform="translate(509.869141 0)"/>
     <use xlink:href="#DejaVuSans-3a" transform="translate(571.392578 0)"/>
     <use xlink:href="#DejaVuSans-20" transform="translate(605.083984 0)"/>
     <use xlink:href="#DejaVuSans-43" transform="translate(636.871094 0)"/>
     <use xlink:href="#DejaVuSans-6f" transform="translate(706.695312 0)"/>
     <use xlink:href="#DejaVuSans-6e" transform="translate(767.876953 0)"/>
     <use xlink:href="#DejaVuSans-74" transform="translate(831.255859 0)"/>
     <use xlink:href="#DejaVuSans-72" transform="translate(870.464844 0)"/>
     <use xlink:href="#DejaVuSans-6f" transform="translate(909.328125 0)"/>
     <use xlink:href="#DejaVuSans-6c" transform="translate(970.509766 0)"/>
     <use xlink:href="#DejaVuSans-20" transform="translate(998.292969 0)"/>
     <use xlink:href="#DejaVuSans-67" transform="translate(1030.080078 0)"/>
     <use xlink:href="#DejaVuSans-72" transform="translate(1093.556641 0)"/>
     <use xlink:href="#DejaVuSans-6f" transform="translate(1132.419922 0)"/>
     <use xlink:href="#DejaVuSans-75" transform="translate(1193.601562 0)"/>
     <use xlink:href="#DejaVuSans-70" transform="translate(1256.980469 0)"/>
     <use xlink:href="#DejaVuSans-20" transform="translate(1320.457031 0)"/>
     <use xlink:href="#DejaVuSans-28" transform="translate(1352.244141 0)"/>
     <use xlink:href="#DejaVuSans-6d" transform="translate(1391.257812 0)"/>
     <use xlink:href="#DejaVuSans-61" transform="translate(1488.669922 0)"/>
     <use xlink:href="#DejaVuSans-6c" transform="translate(1549.949219 0)"/>
     <use xlink:href="#DejaVuSans-65" transform="translate(1577.732422 0)"/>
     <use xlink:href="#DejaVuSans-29" transform="translate(1639.255859 0)"/>
    </g>
   </g>
   <g id="legend_1">
    <g id="patch_7">
     <path d="M 532.639844 42.096094 
L 554.639844 42.096094 
L 554.639844 34.396094 
L 532.639844 34.396094 
z
" style="fill: #d3d3d3; fill-opacity: 0.5; stroke: #d3d3d3; stroke-opacity: 0.5; stroke-linejoin: miter"/>
    </g>
    <g id="text_19">
     <!-- Control group ±2 SD -->
     <g transform="translate(563.439844 42.096094) scale(0.11 -0.11)">
      <defs>
       <path id="DejaVuSans-b1" d="M 2944 4013 
L 2944 2803 
L 4684 2803 
L 4684 2272 
L 2944 2272 
L 2944 1063 
L 2419 1063 
L 2419 2272 
L 678 2272 
L 678 2803 
L 2419 2803 
L 2419 4013 
L 2944 4013 
z
M 678 531 
L 4684 531 
L 4684 0 
L 678 0 
L 678 531 
z
" transform="scale(0.015625)"/>
       <path id="DejaVuSans-53" d="M 3425 4513 
L 3425 3897 
Q 3066 4069 2747 4153 
Q 2428 4238 2131 4238 
Q 1616 4238 1336 4038 
Q 1056 3838 1056 3469 
Q 1056 3159 1242 3001 
Q 1428 2844 1947 2747 
L 2328 2669 
Q 3034 2534 3370 2195 
Q 3706 1856 3706 1288 
Q 3706 609 3251 259 
Q 2797 -91 1919 -91 
Q 1588 -91 1214 -16 
Q 841 59 441 206 
L 441 856 
Q 825 641 1194 531 
Q 1563 422 1919 422 
Q 2459 422 2753 634 
Q 3047 847 3047 1241 
Q 3047 1584 2836 1778 
Q 2625 1972 2144 2069 
L 1759 2144 
Q 1053 2284 737 2584 
Q 422 2884 422 3419 
Q 422 4038 858 4394 
Q 1294 4750 2059 4750 
Q 2388 4750 2728 4690 
Q 3069 4631 3425 4513 
z
" transform="scale(0.015625)"/>
       <path id="DejaVuSans-44" d="M 1259 4147 
L 1259 519 
L 2022 519 
Q 2988 519 3436 956 
Q 3884 1394 3884 2338 
Q 3884 3275 3436 3711 
Q 2988 4147 2022 4147 
L 1259 4147 
z
M 628 4666 
L 1925 4666 
Q 3281 4666 3915 4102 
Q 4550 3538 4550 2338 
Q 4550 1131 3912 565 
Q 3275 0 1925 0 
L 628 0 
L 628 4666 
z
" transform="scale(0.015625)"/>
      </defs>
      <use xlink:href="#DejaVuSans-43"/>
      <use xlink:href="#DejaVuSans-6f" transform="translate(69.824219 0)"/>
      <use xlink:href="#DejaVuSans-6e" transform="translate(131.005859 0)"/>
      <use xlink:href="#DejaVuSans-74" transform="translate(194.384766 0)"/>
      <use xlink:href="#DejaVuSans-72" transform="translate(233.59375 0)"/>
      <use xlink:href="#DejaVuSans-6f" transform="translate(272.457031 0)"/>
      <use xlink:href="#DejaVuSans-6c" transform="translate(333.638672 0)"/>
      <use xlink:href="#DejaVuSans-20" transform="translate(361.421875 0)"/>
      <use xlink:href="#DejaVuSans-67" transform="translate(393.208984 0)"/>
      <use xlink:href="#DejaVuSans-72" transform="translate(456.685547 0)"/>
      <use xlink:href="#DejaVuSans-6f" transform="translate(495.548828 0)"/>
      <use xlink:href="#DejaVuSans-75" transform="translate(556.730469 0)"/>
      <use xlink:href="#DejaVuSans-70" transform="translate(620.109375 0)"/>
      <use xlink:href="#DejaVuSans-20" transform="translate(683.585938 0)"/>
      <use xlink:href="#DejaVuSans-b1" transform="translate(715.373047 0)"/>
      <use xlink:href="#DejaVuSans-32" transform="translate(799.162109 0)"/>
      <use xlink:href="#DejaVuSans-20" transform="translate(862.785156 0)"/>
      <use xlink:href="#DejaVuSans-53" transform="translate(894.572266 0)"/>
      <use xlink:href="#DejaVuSans-44" transform="translate(958.048828 0)"/>
     </g>
    </g>
    <g id="patch_8">
     <path d="M 532.639844 58.242031 
L 554.639844 58.242031 
L 554.639844 50.542031 
L 532.639844 50.542031 
z
" style="fill: #808080; fill-opacity: 0.7; stroke: #808080; stroke-opacity: 0.7; stroke-linejoin: miter"/>
    </g>
    <g id="text_20">
     <!-- Control group ±1 SD -->
     <g transform="translate(563.439844 58.242031) scale(0.11 -0.11)">
      <use xlink:href="#DejaVuSans-43"/>
      <use xlink:href="#DejaVuSans-6f" transform="translate(69.824219 0)"/>
      <use xlink:href="#DejaVuSans-6e" transform="translate(131.005859 0)"/>
      <use xlink:href="#DejaVuSans-74" transform="translate(194.384766 0)"/>
      <use xlink:href="#DejaVuSans-72" transform="translate(233.59375 0)"/>
      <use xlink:href="#DejaVuSans-6f" transform="translate(272.457031 0)"/>
      <use xlink:href="#DejaVuSans-6c" transform="translate(333.638672 0)"/>
      <use xlink:href="#DejaVuSans-20" transform="translate(361.421875 0)"/>
      <use xlink:href="#DejaVuSans-67" transform="translate(393.208984 0)"/>
      <use xlink:href="#DejaVuSans-72" transform="translate(456.685547 0)"/>
      <use xlink:href="#DejaVuSans-6f" transform="translate(495.548828 0)"/>
      <use xlink:href="#DejaVuSans-75" transform="translate(556.730469 0)"/>
      <use xlink:href="#DejaVuSans-70" transform="translate(620.109375 0)"/>
      <use xlink:href="#DejaVuSans-20" transform="translate(683.585938 0)"/>
      <use xlink:href="#DejaVuSans-b1" transform="translate(715.373047 0)"/>
      <use xlink:href="#DejaVuSans-31" transform="translate(799.162109 0)"/>
      <use xlink:href="#DejaVuSans-20" transform="translate(862.785156 0)"/>
      <use xlink:href="#DejaVuSans-53" transform="translate(894.572266 0)"/>
      <use xlink:href="#DejaVuSans-44" transform="translate(958.048828 0)"/>
     </g>
    </g>
    <g id="line2d_34">
     <path d="M 532.639844 70.537969 
L 543.639844 70.537969 
L 554.639844 70.537969 
" style="fill: none; stroke: #ff8c00; stroke-width: 2.3; stroke-linecap: square"/>
    </g>
    <g id="text_21">
     <!-- Control group prototype -->
     <g transform="translate(563.439844 74.387969) scale(0.11 -0.11)">
      <use xlink:href="#DejaVuSans-43"/>
      <use xlink:href="#DejaVuSans-6f" transform="translate(69.824219 0)"/>
      <use xlink:href="#DejaVuSans-6e" transform="translate(131.005859 0)"/>
      <use xlink:href="#DejaVuSans-74" transform="translate(194.384766 0)"/>
      <use xlink:href="#DejaVuSans-72" transform="translate(233.59375 0)"/>
      <use xlink:href="#DejaVuSans-6f" transform="translate(272.457031 0)"/>
      <use xlink:href="#DejaVuSans-6c" transform="translate(333.638672 0)"/>
      <use xlink:href="#DejaVuSans-20" transform="translate(361.421875 0)"/>
      <use xlink:href="#DejaVuSans-67" transform="translate(393.208984 0)"/>
      <use xlink:href="#DejaVuSans-72" transform="translate(456.685547 0)"/>
      <use xlink:href="#DejaVuSans-6f" transform="translate(495.548828 0)"/>
      <use xlink:href="#DejaVuSans-75" transform="translate(556.730469 0)"/>
      <use xlink:href="#DejaVuSans-70" transform="translate(620.109375 0)"/>
      <use xlink:href="#DejaVuSans-20" transform="translate(683.585938 0)"/>
      <use xlink:href="#DejaVuSans-70" transform="translate(715.373047 0)"/>
      <use xlink:href="#DejaVuSans-72" transform="translate(778.849609 0)"/>
      <use xlink:href="#DejaVuSans-6f" transform="translate(817.712891 0)"/>
      <use xlink:href="#DejaVuSans-74" transform="translate(878.894531 0)"/>
      <use xlink:href="#DejaVuSans-6f" transform="translate(918.103516 0)"/>
      <use xlink:href="#DejaVuSans-74" transform="translate(979.285156 0)"/>
      <use xlink:href="#DejaVuSans-79" transform="translate(1018.494141 0)"/>
      <use xlink:href="#DejaVuSans-70" transform="translate(1077.673828 0)"/>
      <use xlink:href="#DejaVuSans-65" transform="translate(1141.150391 0)"/>
     </g>
    </g>
   </g>
  </g>
 </g>
 <defs>
  <clipPath id="p04d4206e92">
   <rect x="47.307188" y="23.837812" width="658.33" height="360.28"/>
  </clipPath>
 </defs>
</svg>
