<?xml version="1.0" encoding="utf-8" standalone="no"?>
<!DOCTYPE svg PUBLIC "-//W3C//DTD SVG 1.1//EN"
  "http://www.w3.org/Graphics/SVG/1.1/DTD/svg11.dtd">
<svg xmlns:xlink="http://www.w3.org/1999/xlink" width="676.88125pt" height="391.52407pt" viewBox="0 0 676.88125 391.52407" xmlns="http://www.w3.org/2000/svg" version="1.1">
 <metadata>
  <rdf:RDF xmlns:dc="http://purl.org/dc/elements/1.1/" xmlns:cc="http://creativecommons.org/ns#" xmlns:rdf="http://www.w3.org/1999/02/22-rdf-syntax-ns#">
   <cc:Work>
    <dc:type rdf:resource="http://purl.org/dc/dcmitype/StillImage"/>
    <dc:date>2026-06-14T19:01:53.755042</dc:date>
    <dc:format>image/svg+xml</dc:format>
    <dc:creator>
     <cc:Agent>
      <dc:title>Matplotlib v3.10.1, https://matplotlib.org/</dc:title>
     </cc:Agent>
    </dc:creator>
   </cc:Work>
  </rdf:RDF>
 </metadata>
 <defs>
  <style type="text/css">*{stroke-linejoin: round; stroke-linecap: butt}</style>
 </defs>
 <g id="figure_1">
  <g id="patch_1">
   <path d="M 0 391.52407 
L 676.88125 391.52407 
L 676.88125 0 
L 0 0 
z
" style="fill: #ffffff"/>
  </g>
  <g id="axes_1">
   <g id="patch_2">
    <path d="M 43.81125 338.606376 
L 213.84125 338.606376 
L 213.84125 34.56 
L 43.81125 34.56 
z
" style="fill: #ffffff"/>
   </g>
   <g id="matplotlib.axis_1">
    <g id="xtick_1">
     <g id="line2d_1">
      <path d="M 128.82625 338.606376 
L 128.82625 34.56 
" clip-path="url(#pe1341d93c7)" style="fill: none; stroke: #b0b0b0; stroke-opacity: 0.2; stroke-width: 0.6; stroke-linecap: square"/>
     </g>
     <g id="line2d_2">
      <defs>
       <path id="md72a830a80" d="M 0 0 
L 0 3.5 
" style="stroke: #000000; stroke-width: 0.8"/>
      </defs>
      <g>
       <use xlink:href="#md72a830a80" x="128.82625" y="338.606376" style="stroke: #000000; stroke-width: 0.8"/>
      </g>
     </g>
     <g id="text_1">
      <!-- Pitch variability -->
      <g transform="translate(46.310671 375.631189) rotate(-15) scale(0.11 -0.11)">
       <defs>
        <path id="DejaVuSans-50" d="M 1259 4147 
L 1259 2394 
L 2053 2394 
Q 2494 2394 2734 2622 
Q 2975 2850 2975 3272 
Q 2975 3691 2734 3919 
Q 2494 4147 2053 4147 
L 1259 4147 
z
M 628 4666 
L 2053 4666 
Q 2838 4666 3239 4311 
Q 3641 3956 3641 3272 
Q 3641 2581 3239 2228 
Q 2838 1875 2053 1875 
L 1259 1875 
L 1259 0 
L 628 0 
L 628 4666 
z
" transform="scale(0.015625)"/>
        <path id="DejaVuSans-69" d="M 603 3500 
L 1178 3500 
L 1178 0 
L 603 0 
L 603 3500 
z
M 603 4863 
L 1178 4863 
L 1178 4134 
L 603 4134 
L 603 4863 
z
" transform="scale(0.015625)"/>
        <path id="DejaVuSans-74" d="M 1172 4494 
L 1172 3500 
L 2356 3500 
L 2356 3053 
L 1172 3053 
L 1172 1153 
Q 1172 725 1289 603 
Q 1406 481 1766 481 
L 2356 481 
L 2356 0 
L 1766 0 
Q 1100 0 847 248 
Q 594 497 594 1153 
L 594 3053 
L 172 3053 
L 172 3500 
L 594 3500 
L 594 4494 
L 1172 4494 
z
" transform="scale(0.015625)"/>
        <path id="DejaVuSans-63" d="M 3122 3366 
L 3122 2828 
Q 2878 2963 2633 3030 
Q 2388 3097 2138 3097 
Q 1578 3097 1268 2742 
Q 959 2388 959 1747 
Q 959 1106 1268 751 
Q 1578 397 2138 397 
Q 2388 397 2633 464 
Q 2878 531 3122 666 
L 3122 134 
Q 2881 22 2623 -34 
Q 2366 -91 2075 -91 
Q 1284 -91 818 406 
Q 353 903 353 1747 
Q 353 2603 823 3093 
Q 1294 3584 2113 3584 
Q 2378 3584 2631 3529 
Q 2884 3475 3122 3366 
z
" transform="scale(0.015625)"/>
        <path id="DejaVuSans-68" d="M 3513 2113 
L 3513 0 
L 2938 0 
L 2938 2094 
Q 2938 2591 2744 2837 
Q 2550 3084 2163 3084 
Q 1697 3084 1428 2787 
Q 1159 2491 1159 1978 
L 1159 0 
L 581 0 
L 581 4863 
L 1159 4863 
L 1159 2956 
Q 1366 3272 1645 3428 
Q 1925 3584 2291 3584 
Q 2894 3584 3203 3211 
Q 3513 2838 3513 2113 
z
" transform="scale(0.015625)"/>
        <path id="DejaVuSans-20" transform="scale(0.015625)"/>
        <path id="DejaVuSans-76" d="M 191 3500 
L 800 3500 
L 1894 563 
L 2988 3500 
L 3597 3500 
L 2284 0 
L 1503 0 
L 191 3500 
z
" transform="scale(0.015625)"/>
        <path id="DejaVuSans-61" d="M 2194 1759 
Q 1497 1759 1228 1600 
Q 959 1441 959 1056 
Q 959 750 1161 570 
Q 1363 391 1709 391 
Q 2188 391 2477 730 
Q 2766 1069 2766 1631 
L 2766 1759 
L 2194 1759 
z
M 3341 1997 
L 3341 0 
L 2766 0 
L 2766 531 
Q 2569 213 2275 61 
Q 1981 -91 1556 -91 
Q 1019 -91 701 211 
Q 384 513 384 1019 
Q 384 1609 779 1909 
Q 1175 2209 1959 2209 
L 2766 2209 
L 2766 2266 
Q 2766 2663 2505 2880 
Q 2244 3097 1772 3097 
Q 1472 3097 1187 3025 
Q 903 2953 641 2809 
L 641 3341 
Q 956 3463 1253 3523 
Q 1550 3584 1831 3584 
Q 2591 3584 2966 3190 
Q 3341 2797 3341 1997 
z
" transform="scale(0.015625)"/>
        <path id="DejaVuSans-72" d="M 2631 2963 
Q 2534 3019 2420 3045 
Q 2306 3072 2169 3072 
Q 1681 3072 1420 2755 
Q 1159 2438 1159 1844 
L 1159 0 
L 581 0 
L 581 3500 
L 1159 3500 
L 1159 2956 
Q 1341 3275 1631 3429 
Q 1922 3584 2338 3584 
Q 2397 3584 2469 3576 
Q 2541 3569 2628 3553 
L 2631 2963 
z
" transform="scale(0.015625)"/>
        <path id="DejaVuSans-62" d="M 3116 1747 
Q 3116 2381 2855 2742 
Q 2594 3103 2138 3103 
Q 1681 3103 1420 2742 
Q 1159 2381 1159 1747 
Q 1159 1113 1420 752 
Q 1681 391 2138 391 
Q 2594 391 2855 752 
Q 3116 1113 3116 1747 
z
M 1159 2969 
Q 1341 3281 1617 3432 
Q 1894 3584 2278 3584 
Q 2916 3584 3314 3078 
Q 3713 2572 3713 1747 
Q 3713 922 3314 415 
Q 2916 -91 2278 -91 
Q 1894 -91 1617 61 
Q 1341 213 1159 525 
L 1159 0 
L 581 0 
L 581 4863 
L 1159 4863 
L 1159 2969 
z
" transform="scale(0.015625)"/>
        <path id="DejaVuSans-6c" d="M 603 4863 
L 1178 4863 
L 1178 0 
L 603 0 
L 603 4863 
z
" transform="scale(0.015625)"/>
        <path id="DejaVuSans-79" d="M 2059 -325 
Q 1816 -950 1584 -1140 
Q 1353 -1331 966 -1331 
L 506 -1331 
L 506 -850 
L 844 -850 
Q 1081 -850 1212 -737 
Q 1344 -625 1503 -206 
L 1606 56 
L 191 3500 
L 800 3500 
L 1894 763 
L 2988 3500 
L 3597 3500 
L 2059 -325 
z
" transform="scale(0.015625)"/>
       </defs>
       <use xlink:href="#DejaVuSans-50"/>
       <use xlink:href="#DejaVuSans-69" transform="translate(58.052734 0)"/>
       <use xlink:href="#DejaVuSans-74" transform="translate(85.835938 0)"/>
       <use xlink:href="#DejaVuSans-63" transform="translate(125.044922 0)"/>
       <use xlink:href="#DejaVuSans-68" transform="translate(180.025391 0)"/>
       <use xlink:href="#DejaVuSans-20" transform="translate(243.404297 0)"/>
       <use xlink:href="#DejaVuSans-76" transform="translate(275.191406 0)"/>
       <use xlink:href="#DejaVuSans-61" transform="translate(334.371094 0)"/>
       <use xlink:href="#DejaVuSans-72" transform="translate(395.650391 0)"/>
       <use xlink:href="#DejaVuSans-69" transform="translate(436.763672 0)"/>
       <use xlink:href="#DejaVuSans-61" transform="translate(464.546875 0)"/>
       <use xlink:href="#DejaVuSans-62" transform="translate(525.826172 0)"/>
       <use xlink:href="#DejaVuSans-69" transform="translate(589.302734 0)"/>
       <use xlink:href="#DejaVuSans-6c" transform="translate(617.085938 0)"/>
       <use xlink:href="#DejaVuSans-69" transform="translate(644.869141 0)"/>
       <use xlink:href="#DejaVuSans-74" transform="translate(672.652344 0)"/>
       <use xlink:href="#DejaVuSans-79" transform="translate(711.861328 0)"/>
      </g>
     </g>
    </g>
   </g>
   <g id="matplotlib.axis_2">
    <g id="ytick_1">
     <g id="line2d_3">
      <path d="M 43.81125 308.940546 
L 213.84125 308.940546 
" clip-path="url(#pe1341d93c7)" style="fill: none; stroke: #b0b0b0; stroke-opacity: 0.2; stroke-width: 0.6; stroke-linecap: square"/>
     </g>
     <g id="line2d_4">
      <defs>
       <path id="m39759c4705" d="M 0 0 
L -3.5 0 
" style="stroke: #000000; stroke-width: 0.8"/>
      </defs>
      <g>
       <use xlink:href="#m39759c4705" x="43.81125" y="308.940546" style="stroke: #000000; stroke-width: 0.8"/>
      </g>
     </g>
     <g id="text_2">
      <!-- 4 -->
      <g transform="translate(29.8125 313.119687) scale(0.11 -0.11)">
       <defs>
        <path id="DejaVuSans-34" d="M 2419 4116 
L 825 1625 
L 2419 1625 
L 2419 4116 
z
M 2253 4666 
L 3047 4666 
L 3047 1625 
L 3713 1625 
L 3713 1100 
L 3047 1100 
L 3047 0 
L 2419 0 
L 2419 1100 
L 313 1100 
L 313 1709 
L 2253 4666 
z
" transform="scale(0.015625)"/>
       </defs>
       <use xlink:href="#DejaVuSans-34"/>
      </g>
     </g>
    </g>
    <g id="ytick_2">
     <g id="line2d_5">
      <path d="M 43.81125 249.896487 
L 213.84125 249.896487 
" clip-path="url(#pe1341d93c7)" style="fill: none; stroke: #b0b0b0; stroke-opacity: 0.2; stroke-width: 0.6; stroke-linecap: square"/>
     </g>
     <g id="line2d_6">
      <g>
       <use xlink:href="#m39759c4705" x="43.81125" y="249.896487" style="stroke: #000000; stroke-width: 0.8"/>
      </g>
     </g>
     <g id="text_3">
      <!-- 6 -->
      <g transform="translate(29.8125 254.075628) scale(0.11 -0.11)">
       <defs>
        <path id="DejaVuSans-36" d="M 2113 2584 
Q 1688 2584 1439 2293 
Q 1191 2003 1191 1497 
Q 1191 994 1439 701 
Q 1688 409 2113 409 
Q 2538 409 2786 701 
Q 3034 994 3034 1497 
Q 3034 2003 2786 2293 
Q 2538 2584 2113 2584 
z
M 3366 4563 
L 3366 3988 
Q 3128 4100 2886 4159 
Q 2644 4219 2406 4219 
Q 1781 4219 1451 3797 
Q 1122 3375 1075 2522 
Q 1259 2794 1537 2939 
Q 1816 3084 2150 3084 
Q 2853 3084 3261 2657 
Q 3669 2231 3669 1497 
Q 3669 778 3244 343 
Q 2819 -91 2113 -91 
Q 1303 -91 875 529 
Q 447 1150 447 2328 
Q 447 3434 972 4092 
Q 1497 4750 2381 4750 
Q 2619 4750 2861 4703 
Q 3103 4656 3366 4563 
z
" transform="scale(0.015625)"/>
       </defs>
       <use xlink:href="#DejaVuSans-36"/>
      </g>
     </g>
    </g>
    <g id="ytick_3">
     <g id="line2d_7">
      <path d="M 43.81125 190.852428 
L 213.84125 190.852428 
" clip-path="url(#pe1341d93c7)" style="fill: none; stroke: #b0b0b0; stroke-opacity: 0.2; stroke-width: 0.6; stroke-linecap: square"/>
     </g>
     <g id="line2d_8">
      <g>
       <use xlink:href="#m39759c4705" x="43.81125" y="190.852428" style="stroke: #000000; stroke-width: 0.8"/>
      </g>
     </g>
     <g id="text_4">
      <!-- 8 -->
      <g transform="translate(29.8125 195.031568) scale(0.11 -0.11)">
       <defs>
        <path id="DejaVuSans-38" d="M 2034 2216 
Q 1584 2216 1326 1975 
Q 1069 1734 1069 1313 
Q 1069 891 1326 650 
Q 1584 409 2034 409 
Q 2484 409 2743 651 
Q 3003 894 3003 1313 
Q 3003 1734 2745 1975 
Q 2488 2216 2034 2216 
z
M 1403 2484 
Q 997 2584 770 2862 
Q 544 3141 544 3541 
Q 544 4100 942 4425 
Q 1341 4750 2034 4750 
Q 2731 4750 3128 4425 
Q 3525 4100 3525 3541 
Q 3525 3141 3298 2862 
Q 3072 2584 2669 2484 
Q 3125 2378 3379 2068 
Q 3634 1759 3634 1313 
Q 3634 634 3220 271 
Q 2806 -91 2034 -91 
Q 1263 -91 848 271 
Q 434 634 434 1313 
Q 434 1759 690 2068 
Q 947 2378 1403 2484 
z
M 1172 3481 
Q 1172 3119 1398 2916 
Q 1625 2713 2034 2713 
Q 2441 2713 2670 2916 
Q 2900 3119 2900 3481 
Q 2900 3844 2670 4047 
Q 2441 4250 2034 4250 
Q 1625 4250 1398 4047 
Q 1172 3844 1172 3481 
z
" transform="scale(0.015625)"/>
       </defs>
       <use xlink:href="#DejaVuSans-38"/>
      </g>
     </g>
    </g>
    <g id="ytick_4">
     <g id="line2d_9">
      <path d="M 43.81125 131.808369 
L 213.84125 131.808369 
" clip-path="url(#pe1341d93c7)" style="fill: none; stroke: #b0b0b0; stroke-opacity: 0.2; stroke-width: 0.6; stroke-linecap: square"/>
     </g>
     <g id="line2d_10">
      <g>
       <use xlink:href="#m39759c4705" x="43.81125" y="131.808369" style="stroke: #000000; stroke-width: 0.8"/>
      </g>
     </g>
     <g id="text_5">
      <!-- 10 -->
      <g transform="translate(22.81375 135.987509) scale(0.11 -0.11)">
       <defs>
        <path id="DejaVuSans-31" d="M 794 531 
L 1825 531 
L 1825 4091 
L 703 3866 
L 703 4441 
L 1819 4666 
L 2450 4666 
L 2450 531 
L 3481 531 
L 3481 0 
L 794 0 
L 794 531 
z
" transform="scale(0.015625)"/>
        <path id="DejaVuSans-30" d="M 2034 4250 
Q 1547 4250 1301 3770 
Q 1056 3291 1056 2328 
Q 1056 1369 1301 889 
Q 1547 409 2034 409 
Q 2525 409 2770 889 
Q 3016 1369 3016 2328 
Q 3016 3291 2770 3770 
Q 2525 4250 2034 4250 
z
M 2034 4750 
Q 2819 4750 3233 4129 
Q 3647 3509 3647 2328 
Q 3647 1150 3233 529 
Q 2819 -91 2034 -91 
Q 1250 -91 836 529 
Q 422 1150 422 2328 
Q 422 3509 836 4129 
Q 1250 4750 2034 4750 
z
" transform="scale(0.015625)"/>
       </defs>
       <use xlink:href="#DejaVuSans-31"/>
       <use xlink:href="#DejaVuSans-30" transform="translate(63.623047 0)"/>
      </g>
     </g>
    </g>
    <g id="ytick_5">
     <g id="line2d_11">
      <path d="M 43.81125 72.764309 
L 213.84125 72.764309 
" clip-path="url(#pe1341d93c7)" style="fill: none; stroke: #b0b0b0; stroke-opacity: 0.2; stroke-width: 0.6; stroke-linecap: square"/>
     </g>
     <g id="line2d_12">
      <g>
       <use xlink:href="#m39759c4705" x="43.81125" y="72.764309" style="stroke: #000000; stroke-width: 0.8"/>
      </g>
     </g>
     <g id="text_6">
      <!-- 12 -->
      <g transform="translate(22.81375 76.94345) scale(0.11 -0.11)">
       <defs>
        <path id="DejaVuSans-32" d="M 1228 531 
L 3431 531 
L 3431 0 
L 469 0 
L 469 531 
Q 828 903 1448 1529 
Q 2069 2156 2228 2338 
Q 2531 2678 2651 2914 
Q 2772 3150 2772 3378 
Q 2772 3750 2511 3984 
Q 2250 4219 1831 4219 
Q 1534 4219 1204 4116 
Q 875 4013 500 3803 
L 500 4441 
Q 881 4594 1212 4672 
Q 1544 4750 1819 4750 
Q 2544 4750 2975 4387 
Q 3406 4025 3406 3419 
Q 3406 3131 3298 2873 
Q 3191 2616 2906 2266 
Q 2828 2175 2409 1742 
Q 1991 1309 1228 531 
z
" transform="scale(0.015625)"/>
       </defs>
       <use xlink:href="#DejaVuSans-31"/>
       <use xlink:href="#DejaVuSans-32" transform="translate(63.623047 0)"/>
      </g>
     </g>
    </g>
    <g id="text_7">
     <!-- semitones -->
     <g transform="translate(16.318125 217.555376) rotate(-90) scale(0.12 -0.12)">
      <defs>
       <path id="DejaVuSans-73" d="M 2834 3397 
L 2834 2853 
Q 2591 2978 2328 3040 
Q 2066 3103 1784 3103 
Q 1356 3103 1142 2972 
Q 928 2841 928 2578 
Q 928 2378 1081 2264 
Q 1234 2150 1697 2047 
L 1894 2003 
Q 2506 1872 2764 1633 
Q 3022 1394 3022 966 
Q 3022 478 2636 193 
Q 2250 -91 1575 -91 
Q 1294 -91 989 -36 
Q 684 19 347 128 
L 347 722 
Q 666 556 975 473 
Q 1284 391 1588 391 
Q 1994 391 2212 530 
Q 2431 669 2431 922 
Q 2431 1156 2273 1281 
Q 2116 1406 1581 1522 
L 1381 1569 
Q 847 1681 609 1914 
Q 372 2147 372 2553 
Q 372 3047 722 3315 
Q 1072 3584 1716 3584 
Q 2034 3584 2315 3537 
Q 2597 3491 2834 3397 
z
" transform="scale(0.015625)"/>
       <path id="DejaVuSans-65" d="M 3597 1894 
L 3597 1613 
L 953 1613 
Q 991 1019 1311 708 
Q 1631 397 2203 397 
Q 2534 397 2845 478 
Q 3156 559 3463 722 
L 3463 178 
Q 3153 47 2828 -22 
Q 2503 -91 2169 -91 
Q 1331 -91 842 396 
Q 353 884 353 1716 
Q 353 2575 817 3079 
Q 1281 3584 2069 3584 
Q 2775 3584 3186 3129 
Q 3597 2675 3597 1894 
z
M 3022 2063 
Q 3016 2534 2758 2815 
Q 2500 3097 2075 3097 
Q 1594 3097 1305 2825 
Q 1016 2553 972 2059 
L 3022 2063 
z
" transform="scale(0.015625)"/>
       <path id="DejaVuSans-6d" d="M 3328 2828 
Q 3544 3216 3844 3400 
Q 4144 3584 4550 3584 
Q 5097 3584 5394 3201 
Q 5691 2819 5691 2113 
L 5691 0 
L 5113 0 
L 5113 2094 
Q 5113 2597 4934 2840 
Q 4756 3084 4391 3084 
Q 3944 3084 3684 2787 
Q 3425 2491 3425 1978 
L 3425 0 
L 2847 0 
L 2847 2094 
Q 2847 2600 2669 2842 
Q 2491 3084 2119 3084 
Q 1678 3084 1418 2786 
Q 1159 2488 1159 1978 
L 1159 0 
L 581 0 
L 581 3500 
L 1159 3500 
L 1159 2956 
Q 1356 3278 1631 3431 
Q 1906 3584 2284 3584 
Q 2666 3584 2933 3390 
Q 3200 3197 3328 2828 
z
" transform="scale(0.015625)"/>
       <path id="DejaVuSans-6f" d="M 1959 3097 
Q 1497 3097 1228 2736 
Q 959 2375 959 1747 
Q 959 1119 1226 758 
Q 1494 397 1959 397 
Q 2419 397 2687 759 
Q 2956 1122 2956 1747 
Q 2956 2369 2687 2733 
Q 2419 3097 1959 3097 
z
M 1959 3584 
Q 2709 3584 3137 3096 
Q 3566 2609 3566 1747 
Q 3566 888 3137 398 
Q 2709 -91 1959 -91 
Q 1206 -91 779 398 
Q 353 888 353 1747 
Q 353 2609 779 3096 
Q 1206 3584 1959 3584 
z
" transform="scale(0.015625)"/>
       <path id="DejaVuSans-6e" d="M 3513 2113 
L 3513 0 
L 2938 0 
L 2938 2094 
Q 2938 2591 2744 2837 
Q 2550 3084 2163 3084 
Q 1697 3084 1428 2787 
Q 1159 2491 1159 1978 
L 1159 0 
L 581 0 
L 581 3500 
L 1159 3500 
L 1159 2956 
Q 1366 3272 1645 3428 
Q 1925 3584 2291 3584 
Q 2894 3584 3203 3211 
Q 3513 2838 3513 2113 
z
" transform="scale(0.015625)"/>
      </defs>
      <use xlink:href="#DejaVuSans-73"/>
      <use xlink:href="#DejaVuSans-65" transform="translate(52.099609 0)"/>
      <use xlink:href="#DejaVuSans-6d" transform="translate(113.623047 0)"/>
      <use xlink:href="#DejaVuSans-69" transform="translate(211.035156 0)"/>
      <use xlink:href="#DejaVuSans-74" transform="translate(238.818359 0)"/>
      <use xlink:href="#DejaVuSans-6f" transform="translate(278.027344 0)"/>
      <use xlink:href="#DejaVuSans-6e" transform="translate(339.208984 0)"/>
      <use xlink:href="#DejaVuSans-65" transform="translate(402.587891 0)"/>
      <use xlink:href="#DejaVuSans-73" transform="translate(464.111328 0)"/>
     </g>
    </g>
   </g>
   <g id="FillBetweenPolyCollection_1">
    <defs>
     <path id="mc1e6f56481" d="M 171.785471 -66.737983 
L 85.867029 -66.737983 
L 83.816009 -69.529961 
L 81.761984 -72.321939 
L 79.712658 -75.113916 
L 77.675985 -77.905894 
L 75.660123 -80.697872 
L 73.673378 -83.48985 
L 71.724144 -86.281827 
L 69.820849 -89.073805 
L 67.971889 -91.865783 
L 66.185566 -94.657761 
L 64.470027 -97.449738 
L 62.833194 -100.241716 
L 61.282702 -103.033694 
L 59.825838 -105.825672 
L 58.469474 -108.617649 
L 57.22001 -111.409627 
L 56.083318 -114.201605 
L 55.06468 -116.993583 
L 54.168748 -119.78556 
L 53.399489 -122.577538 
L 52.760152 -125.369516 
L 52.253224 -128.161493 
L 51.880411 -130.953471 
L 51.642607 -133.745449 
L 51.539886 -136.537427 
L 51.57149 -139.329404 
L 51.73583 -142.121382 
L 52.030497 -144.91336 
L 52.452276 -147.705338 
L 52.997173 -150.497315 
L 53.660445 -153.289293 
L 54.436646 -156.081271 
L 55.319671 -158.873249 
L 56.302812 -161.665226 
L 57.378823 -164.457204 
L 58.539988 -167.249182 
L 59.77819 -170.04116 
L 61.08499 -172.833137 
L 62.451711 -175.625115 
L 63.869514 -178.417093 
L 65.329485 -181.209071 
L 66.822717 -184.001048 
L 68.340391 -186.793026 
L 69.873853 -189.585004 
L 71.414695 -192.376982 
L 72.954817 -195.168959 
L 74.486502 -197.960937 
L 76.002467 -200.752915 
L 77.495918 -203.544893 
L 78.960594 -206.33687 
L 80.390807 -209.128848 
L 81.781463 -211.920826 
L 83.12809 -214.712804 
L 84.426846 -217.504781 
L 85.674526 -220.296759 
L 86.868554 -223.088737 
L 88.006981 -225.880714 
L 89.088462 -228.672692 
L 90.112236 -231.46467 
L 91.078099 -234.256648 
L 91.986374 -237.048625 
L 92.83787 -239.840603 
L 93.633855 -242.632581 
L 94.376003 -245.424559 
L 95.066366 -248.216536 
L 95.707323 -251.008514 
L 96.301543 -253.800492 
L 96.851942 -256.59247 
L 97.361643 -259.384447 
L 97.833942 -262.176425 
L 98.272261 -264.968403 
L 98.680123 -267.760381 
L 99.061111 -270.552358 
L 99.418842 -273.344336 
L 99.756932 -276.136314 
L 100.078973 -278.928292 
L 100.388505 -281.720269 
L 100.688993 -284.512247 
L 100.983802 -287.304225 
L 101.27618 -290.096203 
L 101.569235 -292.88818 
L 101.865916 -295.680158 
L 102.169001 -298.472136 
L 102.481075 -301.264114 
L 102.804518 -304.056091 
L 103.14149 -306.848069 
L 103.493921 -309.640047 
L 103.863497 -312.432025 
L 104.25165 -315.224002 
L 104.659553 -318.01598 
L 105.088113 -320.807958 
L 105.537963 -323.599936 
L 106.009464 -326.391913 
L 106.502702 -329.183891 
L 107.017493 -331.975869 
L 107.553386 -334.767846 
L 108.109671 -337.559824 
L 108.685391 -340.351802 
L 109.279352 -343.14378 
L 148.373148 -343.14378 
L 148.373148 -343.14378 
L 148.967109 -340.351802 
L 149.542829 -337.559824 
L 150.099114 -334.767846 
L 150.635007 -331.975869 
L 151.149798 -329.183891 
L 151.643036 -326.391913 
L 152.114537 -323.599936 
L 152.564387 -320.807958 
L 152.992947 -318.01598 
L 153.40085 -315.224002 
L 153.789003 -312.432025 
L 154.158579 -309.640047 
L 154.51101 -306.848069 
L 154.847982 -304.056091 
L 155.171425 -301.264114 
L 155.483499 -298.472136 
L 155.786584 -295.680158 
L 156.083265 -292.88818 
L 156.37632 -290.096203 
L 156.668698 -287.304225 
L 156.963507 -284.512247 
L 157.263995 -281.720269 
L 157.573527 -278.928292 
L 157.895568 -276.136314 
L 158.233658 -273.344336 
L 158.591389 -270.552358 
L 158.972377 -267.760381 
L 159.380239 -264.968403 
L 159.818558 -262.176425 
L 160.290857 -259.384447 
L 160.800558 -256.59247 
L 161.350957 -253.800492 
L 161.945177 -251.008514 
L 162.586134 -248.216536 
L 163.276497 -245.424559 
L 164.018645 -242.632581 
L 164.81463 -239.840603 
L 165.666126 -237.048625 
L 166.574401 -234.256648 
L 167.540264 -231.46467 
L 168.564038 -228.672692 
L 169.645519 -225.880714 
L 170.783946 -223.088737 
L 171.977974 -220.296759 
L 173.225654 -217.504781 
L 174.52441 -214.712804 
L 175.871037 -211.920826 
L 177.261693 -209.128848 
L 178.691906 -206.33687 
L 180.156582 -203.544893 
L 181.650033 -200.752915 
L 183.165998 -197.960937 
L 184.697683 -195.168959 
L 186.237805 -192.376982 
L 187.778647 -189.585004 
L 189.312109 -186.793026 
L 190.829783 -184.001048 
L 192.323015 -181.209071 
L 193.782986 -178.417093 
L 195.200789 -175.625115 
L 196.56751 -172.833137 
L 197.87431 -170.04116 
L 199.112512 -167.249182 
L 200.273677 -164.457204 
L 201.349688 -161.665226 
L 202.332829 -158.873249 
L 203.215854 -156.081271 
L 203.992055 -153.289293 
L 204.655327 -150.497315 
L 205.200224 -147.705338 
L 205.622003 -144.91336 
L 205.91667 -142.121382 
L 206.08101 -139.329404 
L 206.112614 -136.537427 
L 206.009893 -133.745449 
L 205.772089 -130.953471 
L 205.399276 -128.161493 
L 204.892348 -125.369516 
L 204.253011 -122.577538 
L 203.483752 -119.78556 
L 202.58782 -116.993583 
L 201.569182 -114.201605 
L 200.43249 -111.409627 
L 199.183026 -108.617649 
L 197.826662 -105.825672 
L 196.369798 -103.033694 
L 194.819306 -100.241716 
L 193.182473 -97.449738 
L 191.466934 -94.657761 
L 189.680611 -91.865783 
L 187.831651 -89.073805 
L 185.928356 -86.281827 
L 183.979122 -83.48985 
L 181.992377 -80.697872 
L 179.976515 -77.905894 
L 177.939842 -75.113916 
L 175.890516 -72.321939 
L 173.836491 -69.529961 
L 171.785471 -66.737983 
z
" style="stroke: #ea580c; stroke-opacity: 0.35"/>
    </defs>
    <g clip-path="url(#pe1341d93c7)">
     <use xlink:href="#mc1e6f56481" x="0" y="391.52407" style="fill: #ea580c; fill-opacity: 0.35; stroke: #ea580c; stroke-opacity: 0.35"/>
    </g>
   </g>
   <g id="LineCollection_1">
    <path d="M 90.183068 236.79189 
L 167.469432 236.79189 
" clip-path="url(#pe1341d93c7)" style="fill: none; stroke: #ea580c; stroke-width: 1.5"/>
   </g>
   <g id="patch_3">
    <path d="M 43.81125 338.606376 
L 43.81125 34.56 
" style="fill: none; stroke: #000000; stroke-width: 0.8; stroke-linejoin: miter; stroke-linecap: square"/>
   </g>
   <g id="patch_4">
    <path d="M 213.84125 338.606376 
L 213.84125 34.56 
" style="fill: none; stroke: #000000; stroke-width: 0.8; stroke-linejoin: miter; stroke-linecap: square"/>
   </g>
   <g id="patch_5">
    <path d="M 43.81125 338.606376 
L 213.84125 338.606376 
" style="fill: none; stroke: #000000; stroke-width: 0.8; stroke-linejoin: miter; stroke-linecap: square"/>
   </g>
   <g id="patch_6">
    <path d="M 43.81125 34.56 
L 213.84125 34.56 
" style="fill: none; stroke: #000000; stroke-width: 0.8; stroke-linejoin: miter; stroke-linecap: square"/>
   </g>
  </g>
  <g id="axes_2">
   <g id="patch_7">
    <path d="M 271.73125 338.606376 
L 441.76125 338.606376 
L 441.76125 34.56 
L 271.73125 34.56 
z
" style="fill: #ffffff"/>
   </g>
   <g id="matplotlib.axis_3">
    <g id="xtick_2">
     <g id="line2d_13">
      <path d="M 356.74625 338.606376 
L 356.74625 34.56 
" clip-path="url(#p6f72da62e7)" style="fill: none; stroke: #b0b0b0; stroke-opacity: 0.2; stroke-width: 0.6; stroke-linecap: square"/>
     </g>
     <g id="line2d_14">
      <g>
       <use xlink:href="#md72a830a80" x="356.74625" y="338.606376" style="stroke: #000000; stroke-width: 0.8"/>
      </g>
     </g>
     <g id="text_8">
      <!-- Loudness variability -->
      <g transform="translate(250.035135 382.114363) rotate(-15) scale(0.11 -0.11)">
       <defs>
        <path id="DejaVuSans-4c" d="M 628 4666 
L 1259 4666 
L 1259 531 
L 3531 531 
L 3531 0 
L 628 0 
L 628 4666 
z
" transform="scale(0.015625)"/>
        <path id="DejaVuSans-75" d="M 544 1381 
L 544 3500 
L 1119 3500 
L 1119 1403 
Q 1119 906 1312 657 
Q 1506 409 1894 409 
Q 2359 409 2629 706 
Q 2900 1003 2900 1516 
L 2900 3500 
L 3475 3500 
L 3475 0 
L 2900 0 
L 2900 538 
Q 2691 219 2414 64 
Q 2138 -91 1772 -91 
Q 1169 -91 856 284 
Q 544 659 544 1381 
z
M 1991 3584 
L 1991 3584 
z
" transform="scale(0.015625)"/>
        <path id="DejaVuSans-64" d="M 2906 2969 
L 2906 4863 
L 3481 4863 
L 3481 0 
L 2906 0 
L 2906 525 
Q 2725 213 2448 61 
Q 2172 -91 1784 -91 
Q 1150 -91 751 415 
Q 353 922 353 1747 
Q 353 2572 751 3078 
Q 1150 3584 1784 3584 
Q 2172 3584 2448 3432 
Q 2725 3281 2906 2969 
z
M 947 1747 
Q 947 1113 1208 752 
Q 1469 391 1925 391 
Q 2381 391 2643 752 
Q 2906 1113 2906 1747 
Q 2906 2381 2643 2742 
Q 2381 3103 1925 3103 
Q 1469 3103 1208 2742 
Q 947 2381 947 1747 
z
" transform="scale(0.015625)"/>
       </defs>
       <use xlink:href="#DejaVuSans-4c"/>
       <use xlink:href="#DejaVuSans-6f" transform="translate(53.962891 0)"/>
       <use xlink:href="#DejaVuSans-75" transform="translate(115.144531 0)"/>
       <use xlink:href="#DejaVuSans-64" transform="translate(178.523438 0)"/>
       <use xlink:href="#DejaVuSans-6e" transform="translate(242 0)"/>
       <use xlink:href="#DejaVuSans-65" transform="translate(305.378906 0)"/>
       <use xlink:href="#DejaVuSans-73" transform="translate(366.902344 0)"/>
       <use xlink:href="#DejaVuSans-73" transform="translate(419.001953 0)"/>
       <use xlink:href="#DejaVuSans-20" transform="translate(471.101562 0)"/>
       <use xlink:href="#DejaVuSans-76" transform="translate(502.888672 0)"/>
       <use xlink:href="#DejaVuSans-61" transform="translate(562.068359 0)"/>
       <use xlink:href="#DejaVuSans-72" transform="translate(623.347656 0)"/>
       <use xlink:href="#DejaVuSans-69" transform="translate(664.460938 0)"/>
       <use xlink:href="#DejaVuSans-61" transform="translate(692.244141 0)"/>
       <use xlink:href="#DejaVuSans-62" transform="translate(753.523438 0)"/>
       <use xlink:href="#DejaVuSans-69" transform="translate(817 0)"/>
       <use xlink:href="#DejaVuSans-6c" transform="translate(844.783203 0)"/>
       <use xlink:href="#DejaVuSans-69" transform="translate(872.566406 0)"/>
       <use xlink:href="#DejaVuSans-74" transform="translate(900.349609 0)"/>
       <use xlink:href="#DejaVuSans-79" transform="translate(939.558594 0)"/>
      </g>
     </g>
    </g>
   </g>
   <g id="matplotlib.axis_4">
    <g id="ytick_6">
     <g id="line2d_15">
      <path d="M 271.73125 336.41847 
L 441.76125 336.41847 
" clip-path="url(#p6f72da62e7)" style="fill: none; stroke: #b0b0b0; stroke-opacity: 0.2; stroke-width: 0.6; stroke-linecap: square"/>
     </g>
     <g id="line2d_16">
      <g>
       <use xlink:href="#m39759c4705" x="271.73125" y="336.41847" style="stroke: #000000; stroke-width: 0.8"/>
      </g>
     </g>
     <g id="text_9">
      <!-- 0.6 -->
      <g transform="translate(247.237813 340.59761) scale(0.11 -0.11)">
       <defs>
        <path id="DejaVuSans-2e" d="M 684 794 
L 1344 794 
L 1344 0 
L 684 0 
L 684 794 
z
" transform="scale(0.015625)"/>
       </defs>
       <use xlink:href="#DejaVuSans-30"/>
       <use xlink:href="#DejaVuSans-2e" transform="translate(63.623047 0)"/>
       <use xlink:href="#DejaVuSans-36" transform="translate(95.410156 0)"/>
      </g>
     </g>
    </g>
    <g id="ytick_7">
     <g id="line2d_17">
      <path d="M 271.73125 297.146024 
L 441.76125 297.146024 
" clip-path="url(#p6f72da62e7)" style="fill: none; stroke: #b0b0b0; stroke-opacity: 0.2; stroke-width: 0.6; stroke-linecap: square"/>
     </g>
     <g id="line2d_18">
      <g>
       <use xlink:href="#m39759c4705" x="271.73125" y="297.146024" style="stroke: #000000; stroke-width: 0.8"/>
      </g>
     </g>
     <g id="text_10">
      <!-- 0.8 -->
      <g transform="translate(247.237813 301.325164) scale(0.11 -0.11)">
       <use xlink:href="#DejaVuSans-30"/>
       <use xlink:href="#DejaVuSans-2e" transform="translate(63.623047 0)"/>
       <use xlink:href="#DejaVuSans-38" transform="translate(95.410156 0)"/>
      </g>
     </g>
    </g>
    <g id="ytick_8">
     <g id="line2d_19">
      <path d="M 271.73125 257.873577 
L 441.76125 257.873577 
" clip-path="url(#p6f72da62e7)" style="fill: none; stroke: #b0b0b0; stroke-opacity: 0.2; stroke-width: 0.6; stroke-linecap: square"/>
     </g>
     <g id="line2d_20">
      <g>
       <use xlink:href="#m39759c4705" x="271.73125" y="257.873577" style="stroke: #000000; stroke-width: 0.8"/>
      </g>
     </g>
     <g id="text_11">
      <!-- 1.0 -->
      <g transform="translate(247.237813 262.052718) scale(0.11 -0.11)">
       <use xlink:href="#DejaVuSans-31"/>
       <use xlink:href="#DejaVuSans-2e" transform="translate(63.623047 0)"/>
       <use xlink:href="#DejaVuSans-30" transform="translate(95.410156 0)"/>
      </g>
     </g>
    </g>
    <g id="ytick_9">
     <g id="line2d_21">
      <path d="M 271.73125 218.601131 
L 441.76125 218.601131 
" clip-path="url(#p6f72da62e7)" style="fill: none; stroke: #b0b0b0; stroke-opacity: 0.2; stroke-width: 0.6; stroke-linecap: square"/>
     </g>
     <g id="line2d_22">
      <g>
       <use xlink:href="#m39759c4705" x="271.73125" y="218.601131" style="stroke: #000000; stroke-width: 0.8"/>
      </g>
     </g>
     <g id="text_12">
      <!-- 1.2 -->
      <g transform="translate(247.237813 222.780272) scale(0.11 -0.11)">
       <use xlink:href="#DejaVuSans-31"/>
       <use xlink:href="#DejaVuSans-2e" transform="translate(63.623047 0)"/>
       <use xlink:href="#DejaVuSans-32" transform="translate(95.410156 0)"/>
      </g>
     </g>
    </g>
    <g id="ytick_10">
     <g id="line2d_23">
      <path d="M 271.73125 179.328685 
L 441.76125 179.328685 
" clip-path="url(#p6f72da62e7)" style="fill: none; stroke: #b0b0b0; stroke-opacity: 0.2; stroke-width: 0.6; stroke-linecap: square"/>
     </g>
     <g id="line2d_24">
      <g>
       <use xlink:href="#m39759c4705" x="271.73125" y="179.328685" style="stroke: #000000; stroke-width: 0.8"/>
      </g>
     </g>
     <g id="text_13">
      <!-- 1.4 -->
      <g transform="translate(247.237813 183.507826) scale(0.11 -0.11)">
       <use xlink:href="#DejaVuSans-31"/>
       <use xlink:href="#DejaVuSans-2e" transform="translate(63.623047 0)"/>
       <use xlink:href="#DejaVuSans-34" transform="translate(95.410156 0)"/>
      </g>
     </g>
    </g>
    <g id="ytick_11">
     <g id="line2d_25">
      <path d="M 271.73125 140.056239 
L 441.76125 140.056239 
" clip-path="url(#p6f72da62e7)" style="fill: none; stroke: #b0b0b0; stroke-opacity: 0.2; stroke-width: 0.6; stroke-linecap: square"/>
     </g>
     <g id="line2d_26">
      <g>
       <use xlink:href="#m39759c4705" x="271.73125" y="140.056239" style="stroke: #000000; stroke-width: 0.8"/>
      </g>
     </g>
     <g id="text_14">
      <!-- 1.6 -->
      <g transform="translate(247.237813 144.235379) scale(0.11 -0.11)">
       <use xlink:href="#DejaVuSans-31"/>
       <use xlink:href="#DejaVuSans-2e" transform="translate(63.623047 0)"/>
       <use xlink:href="#DejaVuSans-36" transform="translate(95.410156 0)"/>
      </g>
     </g>
    </g>
    <g id="ytick_12">
     <g id="line2d_27">
      <path d="M 271.73125 100.783793 
L 441.76125 100.783793 
" clip-path="url(#p6f72da62e7)" style="fill: none; stroke: #b0b0b0; stroke-opacity: 0.2; stroke-width: 0.6; stroke-linecap: square"/>
     </g>
     <g id="line2d_28">
      <g>
       <use xlink:href="#m39759c4705" x="271.73125" y="100.783793" style="stroke: #000000; stroke-width: 0.8"/>
      </g>
     </g>
     <g id="text_15">
      <!-- 1.8 -->
      <g transform="translate(247.237813 104.962933) scale(0.11 -0.11)">
       <use xlink:href="#DejaVuSans-31"/>
       <use xlink:href="#DejaVuSans-2e" transform="translate(63.623047 0)"/>
       <use xlink:href="#DejaVuSans-38" transform="translate(95.410156 0)"/>
      </g>
     </g>
    </g>
    <g id="ytick_13">
     <g id="line2d_29">
      <path d="M 271.73125 61.511346 
L 441.76125 61.511346 
" clip-path="url(#p6f72da62e7)" style="fill: none; stroke: #b0b0b0; stroke-opacity: 0.2; stroke-width: 0.6; stroke-linecap: square"/>
     </g>
     <g id="line2d_30">
      <g>
       <use xlink:href="#m39759c4705" x="271.73125" y="61.511346" style="stroke: #000000; stroke-width: 0.8"/>
      </g>
     </g>
     <g id="text_16">
      <!-- 2.0 -->
      <g transform="translate(247.237813 65.690487) scale(0.11 -0.11)">
       <use xlink:href="#DejaVuSans-32"/>
       <use xlink:href="#DejaVuSans-2e" transform="translate(63.623047 0)"/>
       <use xlink:href="#DejaVuSans-30" transform="translate(95.410156 0)"/>
      </g>
     </g>
    </g>
    <g id="text_17">
     <!-- normalized SD -->
     <g transform="translate(240.742188 230.259438) rotate(-90) scale(0.12 -0.12)">
      <defs>
       <path id="DejaVuSans-7a" d="M 353 3500 
L 3084 3500 
L 3084 2975 
L 922 459 
L 3084 459 
L 3084 0 
L 275 0 
L 275 525 
L 2438 3041 
L 353 3041 
L 353 3500 
z
" transform="scale(0.015625)"/>
       <path id="DejaVuSans-53" d="M 3425 4513 
L 3425 3897 
Q 3066 4069 2747 4153 
Q 2428 4238 2131 4238 
Q 1616 4238 1336 4038 
Q 1056 3838 1056 3469 
Q 1056 3159 1242 3001 
Q 1428 2844 1947 2747 
L 2328 2669 
Q 3034 2534 3370 2195 
Q 3706 1856 3706 1288 
Q 3706 609 3251 259 
Q 2797 -91 1919 -91 
Q 1588 -91 1214 -16 
Q 841 59 441 206 
L 441 856 
Q 825 641 1194 531 
Q 1563 422 1919 422 
Q 2459 422 2753 634 
Q 3047 847 3047 1241 
Q 3047 1584 2836 1778 
Q 2625 1972 2144 2069 
L 1759 2144 
Q 1053 2284 737 2584 
Q 422 2884 422 3419 
Q 422 4038 858 4394 
Q 1294 4750 2059 4750 
Q 2388 4750 2728 4690 
Q 3069 4631 3425 4513 
z
" transform="scale(0.015625)"/>
       <path id="DejaVuSans-44" d="M 1259 4147 
L 1259 519 
L 2022 519 
Q 2988 519 3436 956 
Q 3884 1394 3884 2338 
Q 3884 3275 3436 3711 
Q 2988 4147 2022 4147 
L 1259 4147 
z
M 628 4666 
L 1925 4666 
Q 3281 4666 3915 4102 
Q 4550 3538 4550 2338 
Q 4550 1131 3912 565 
Q 3275 0 1925 0 
L 628 0 
L 628 4666 
z
" transform="scale(0.015625)"/>
      </defs>
      <use xlink:href="#DejaVuSans-6e"/>
      <use xlink:href="#DejaVuSans-6f" transform="translate(63.378906 0)"/>
      <use xlink:href="#DejaVuSans-72" transform="translate(124.560547 0)"/>
      <use xlink:href="#DejaVuSans-6d" transform="translate(163.923828 0)"/>
      <use xlink:href="#DejaVuSans-61" transform="translate(261.335938 0)"/>
      <use xlink:href="#DejaVuSans-6c" transform="translate(322.615234 0)"/>
      <use xlink:href="#DejaVuSans-69" transform="translate(350.398438 0)"/>
      <use xlink:href="#DejaVuSans-7a" transform="translate(378.181641 0)"/>
      <use xlink:href="#DejaVuSans-65" transform="translate(430.671875 0)"/>
      <use xlink:href="#DejaVuSans-64" transform="translate(492.195312 0)"/>
      <use xlink:href="#DejaVuSans-20" transform="translate(555.671875 0)"/>
      <use xlink:href="#DejaVuSans-53" transform="translate(587.458984 0)"/>
      <use xlink:href="#DejaVuSans-44" transform="translate(650.935547 0)"/>
     </g>
    </g>
   </g>
   <g id="FillBetweenPolyCollection_2">
    <defs>
     <path id="m1e7064ef8f" d="M 404.91447 -66.737983 
L 308.57803 -66.737983 
L 306.343367 -69.529961 
L 304.144281 -72.321939 
L 301.991023 -75.113916 
L 299.893505 -77.905894 
L 297.861204 -80.697872 
L 295.903083 -83.48985 
L 294.027523 -86.281827 
L 292.242269 -89.073805 
L 290.554393 -91.865783 
L 288.970265 -94.657761 
L 287.495543 -97.449738 
L 286.13518 -100.241716 
L 284.893433 -103.033694 
L 283.773889 -105.825672 
L 282.779506 -108.617649 
L 281.912649 -111.409627 
L 281.175138 -114.201605 
L 280.568304 -116.993583 
L 280.093033 -119.78556 
L 279.749822 -122.577538 
L 279.538823 -125.369516 
L 279.459886 -128.161493 
L 279.512592 -130.953471 
L 279.696278 -133.745449 
L 280.01006 -136.537427 
L 280.452834 -139.329404 
L 281.023273 -142.121382 
L 281.719818 -144.91336 
L 282.540653 -147.705338 
L 283.483674 -150.497315 
L 284.546451 -153.289293 
L 285.726186 -156.081271 
L 287.019667 -158.873249 
L 288.423221 -161.665226 
L 289.932671 -164.457204 
L 291.543293 -167.249182 
L 293.249782 -170.04116 
L 295.046232 -172.833137 
L 296.926114 -175.625115 
L 298.882282 -178.417093 
L 300.906983 -181.209071 
L 302.991883 -184.001048 
L 305.128115 -186.793026 
L 307.30633 -189.585004 
L 309.516775 -192.376982 
L 311.749376 -195.168959 
L 313.993832 -197.960937 
L 316.239724 -200.752915 
L 318.47662 -203.544893 
L 320.694197 -206.33687 
L 322.88235 -209.128848 
L 325.031308 -211.920826 
L 327.131743 -214.712804 
L 329.174865 -217.504781 
L 331.152517 -220.296759 
L 333.057251 -223.088737 
L 334.88239 -225.880714 
L 336.622079 -228.672692 
L 338.271318 -231.46467 
L 339.825983 -234.256648 
L 341.282825 -237.048625 
L 342.639464 -239.840603 
L 343.894366 -242.632581 
L 345.046806 -245.424559 
L 346.096829 -248.216536 
L 347.045197 -251.008514 
L 347.893334 -253.800492 
L 348.643273 -256.59247 
L 349.297589 -259.384447 
L 349.859348 -262.176425 
L 350.332043 -264.968403 
L 350.719548 -267.760381 
L 351.026067 -270.552358 
L 351.256086 -273.344336 
L 351.414339 -276.136314 
L 351.505771 -278.928292 
L 351.535505 -281.720269 
L 351.508822 -284.512247 
L 351.431128 -287.304225 
L 351.307938 -290.096203 
L 351.144852 -292.88818 
L 350.94753 -295.680158 
L 350.721672 -298.472136 
L 350.47299 -301.264114 
L 350.207175 -304.056091 
L 349.929871 -306.848069 
L 349.646631 -309.640047 
L 349.362881 -312.432025 
L 349.083877 -315.224002 
L 348.814654 -318.01598 
L 348.559982 -320.807958 
L 348.324318 -323.599936 
L 348.111755 -326.391913 
L 347.925978 -329.183891 
L 347.770222 -331.975869 
L 347.647231 -334.767846 
L 347.559231 -337.559824 
L 347.507905 -340.351802 
L 347.494375 -343.14378 
L 365.998125 -343.14378 
L 365.998125 -343.14378 
L 365.984595 -340.351802 
L 365.933269 -337.559824 
L 365.845269 -334.767846 
L 365.722278 -331.975869 
L 365.566522 -329.183891 
L 365.380745 -326.391913 
L 365.168182 -323.599936 
L 364.932518 -320.807958 
L 364.677846 -318.01598 
L 364.408623 -315.224002 
L 364.129619 -312.432025 
L 363.845869 -309.640047 
L 363.562629 -306.848069 
L 363.285325 -304.056091 
L 363.01951 -301.264114 
L 362.770828 -298.472136 
L 362.54497 -295.680158 
L 362.347648 -292.88818 
L 362.184562 -290.096203 
L 362.061372 -287.304225 
L 361.983678 -284.512247 
L 361.956995 -281.720269 
L 361.986729 -278.928292 
L 362.078161 -276.136314 
L 362.236414 -273.344336 
L 362.466433 -270.552358 
L 362.772952 -267.760381 
L 363.160457 -264.968403 
L 363.633152 -262.176425 
L 364.194911 -259.384447 
L 364.849227 -256.59247 
L 365.599166 -253.800492 
L 366.447303 -251.008514 
L 367.395671 -248.216536 
L 368.445694 -245.424559 
L 369.598134 -242.632581 
L 370.853036 -239.840603 
L 372.209675 -237.048625 
L 373.666517 -234.256648 
L 375.221182 -231.46467 
L 376.870421 -228.672692 
L 378.61011 -225.880714 
L 380.435249 -223.088737 
L 382.339983 -220.296759 
L 384.317635 -217.504781 
L 386.360757 -214.712804 
L 388.461192 -211.920826 
L 390.61015 -209.128848 
L 392.798303 -206.33687 
L 395.01588 -203.544893 
L 397.252776 -200.752915 
L 399.498668 -197.960937 
L 401.743124 -195.168959 
L 403.975725 -192.376982 
L 406.18617 -189.585004 
L 408.364385 -186.793026 
L 410.500617 -184.001048 
L 412.585517 -181.209071 
L 414.610218 -178.417093 
L 416.566386 -175.625115 
L 418.446268 -172.833137 
L 420.242718 -170.04116 
L 421.949207 -167.249182 
L 423.559829 -164.457204 
L 425.069279 -161.665226 
L 426.472833 -158.873249 
L 427.766314 -156.081271 
L 428.946049 -153.289293 
L 430.008826 -150.497315 
L 430.951847 -147.705338 
L 431.772682 -144.91336 
L 432.469227 -142.121382 
L 433.039666 -139.329404 
L 433.48244 -136.537427 
L 433.796222 -133.745449 
L 433.979908 -130.953471 
L 434.032614 -128.161493 
L 433.953677 -125.369516 
L 433.742678 -122.577538 
L 433.399467 -119.78556 
L 432.924196 -116.993583 
L 432.317362 -114.201605 
L 431.579851 -111.409627 
L 430.712994 -108.617649 
L 429.718611 -105.825672 
L 428.599067 -103.033694 
L 427.35732 -100.241716 
L 425.996957 -97.449738 
L 424.522235 -94.657761 
L 422.938107 -91.865783 
L 421.250231 -89.073805 
L 419.464977 -86.281827 
L 417.589417 -83.48985 
L 415.631296 -80.697872 
L 413.598995 -77.905894 
L 411.501477 -75.113916 
L 409.348219 -72.321939 
L 407.149133 -69.529961 
L 404.91447 -66.737983 
z
" style="stroke: #ea580c; stroke-opacity: 0.35"/>
    </defs>
    <g clip-path="url(#p6f72da62e7)">
     <use xlink:href="#m1e7064ef8f" x="0" y="391.52407" style="fill: #ea580c; fill-opacity: 0.35; stroke: #ea580c; stroke-opacity: 0.35"/>
    </g>
   </g>
   <g id="LineCollection_2">
    <path d="M 318.103068 259.787068 
L 395.389432 259.787068 
" clip-path="url(#p6f72da62e7)" style="fill: none; stroke: #ea580c; stroke-width: 1.5"/>
   </g>
   <g id="patch_8">
    <path d="M 271.73125 338.606376 
L 271.73125 34.56 
" style="fill: none; stroke: #000000; stroke-width: 0.8; stroke-linejoin: miter; stroke-linecap: square"/>
   </g>
   <g id="patch_9">
    <path d="M 441.76125 338.606376 
L 441.76125 34.56 
" style="fill: none; stroke: #000000; stroke-width: 0.8; stroke-linejoin: miter; stroke-linecap: square"/>
   </g>
   <g id="patch_10">
    <path d="M 271.73125 338.606376 
L 441.76125 338.606376 
" style="fill: none; stroke: #000000; stroke-width: 0.8; stroke-linejoin: miter; stroke-linecap: square"/>
   </g>
   <g id="patch_11">
    <path d="M 271.73125 34.56 
L 441.76125 34.56 
" style="fill: none; stroke: #000000; stroke-width: 0.8; stroke-linejoin: miter; stroke-linecap: square"/>
   </g>
  </g>
  <g id="axes_3">
   <g id="patch_12">
    <path d="M 499.65125 338.606376 
L 669.68125 338.606376 
L 669.68125 34.56 
L 499.65125 34.56 
z
" style="fill: #ffffff"/>
   </g>
   <g id="matplotlib.axis_5">
    <g id="xtick_3">
     <g id="line2d_31">
      <path d="M 584.66625 338.606376 
L 584.66625 34.56 
" clip-path="url(#p95f0f2ef3a)" style="fill: none; stroke: #b0b0b0; stroke-opacity: 0.2; stroke-width: 0.6; stroke-linecap: square"/>
     </g>
     <g id="line2d_32">
      <g>
       <use xlink:href="#md72a830a80" x="584.66625" y="338.606376" style="stroke: #000000; stroke-width: 0.8"/>
      </g>
     </g>
     <g id="text_18">
      <!-- Speech rate -->
      <g transform="translate(519.972757 370.855775) rotate(-15) scale(0.11 -0.11)">
       <defs>
        <path id="DejaVuSans-70" d="M 1159 525 
L 1159 -1331 
L 581 -1331 
L 581 3500 
L 1159 3500 
L 1159 2969 
Q 1341 3281 1617 3432 
Q 1894 3584 2278 3584 
Q 2916 3584 3314 3078 
Q 3713 2572 3713 1747 
Q 3713 922 3314 415 
Q 2916 -91 2278 -91 
Q 1894 -91 1617 61 
Q 1341 213 1159 525 
z
M 3116 1747 
Q 3116 2381 2855 2742 
Q 2594 3103 2138 3103 
Q 1681 3103 1420 2742 
Q 1159 2381 1159 1747 
Q 1159 1113 1420 752 
Q 1681 391 2138 391 
Q 2594 391 2855 752 
Q 3116 1113 3116 1747 
z
" transform="scale(0.015625)"/>
       </defs>
       <use xlink:href="#DejaVuSans-53"/>
       <use xlink:href="#DejaVuSans-70" transform="translate(63.476562 0)"/>
       <use xlink:href="#DejaVuSans-65" transform="translate(126.953125 0)"/>
       <use xlink:href="#DejaVuSans-65" transform="translate(188.476562 0)"/>
       <use xlink:href="#DejaVuSans-63" transform="translate(250 0)"/>
       <use xlink:href="#DejaVuSans-68" transform="translate(304.980469 0)"/>
       <use xlink:href="#DejaVuSans-20" transform="translate(368.359375 0)"/>
       <use xlink:href="#DejaVuSans-72" transform="translate(400.146484 0)"/>
       <use xlink:href="#DejaVuSans-61" transform="translate(441.259766 0)"/>
       <use xlink:href="#DejaVuSans-74" transform="translate(502.539062 0)"/>
       <use xlink:href="#DejaVuSans-65" transform="translate(541.748047 0)"/>
      </g>
     </g>
    </g>
   </g>
   <g id="matplotlib.axis_6">
    <g id="ytick_14">
     <g id="line2d_33">
      <path d="M 499.65125 316.055208 
L 669.68125 316.055208 
" clip-path="url(#p95f0f2ef3a)" style="fill: none; stroke: #b0b0b0; stroke-opacity: 0.2; stroke-width: 0.6; stroke-linecap: square"/>
     </g>
     <g id="line2d_34">
      <g>
       <use xlink:href="#m39759c4705" x="499.65125" y="316.055208" style="stroke: #000000; stroke-width: 0.8"/>
      </g>
     </g>
     <g id="text_19">
      <!-- 0.50 -->
      <g transform="translate(468.159063 320.234349) scale(0.11 -0.11)">
       <defs>
        <path id="DejaVuSans-35" d="M 691 4666 
L 3169 4666 
L 3169 4134 
L 1269 4134 
L 1269 2991 
Q 1406 3038 1543 3061 
Q 1681 3084 1819 3084 
Q 2600 3084 3056 2656 
Q 3513 2228 3513 1497 
Q 3513 744 3044 326 
Q 2575 -91 1722 -91 
Q 1428 -91 1123 -41 
Q 819 9 494 109 
L 494 744 
Q 775 591 1075 516 
Q 1375 441 1709 441 
Q 2250 441 2565 725 
Q 2881 1009 2881 1497 
Q 2881 1984 2565 2268 
Q 2250 2553 1709 2553 
Q 1456 2553 1204 2497 
Q 953 2441 691 2322 
L 691 4666 
z
" transform="scale(0.015625)"/>
       </defs>
       <use xlink:href="#DejaVuSans-30"/>
       <use xlink:href="#DejaVuSans-2e" transform="translate(63.623047 0)"/>
       <use xlink:href="#DejaVuSans-35" transform="translate(95.410156 0)"/>
       <use xlink:href="#DejaVuSans-30" transform="translate(159.033203 0)"/>
      </g>
     </g>
    </g>
    <g id="ytick_15">
     <g id="line2d_35">
      <path d="M 499.65125 278.15275 
L 669.68125 278.15275 
" clip-path="url(#p95f0f2ef3a)" style="fill: none; stroke: #b0b0b0; stroke-opacity: 0.2; stroke-width: 0.6; stroke-linecap: square"/>
     </g>
     <g id="line2d_36">
      <g>
       <use xlink:href="#m39759c4705" x="499.65125" y="278.15275" style="stroke: #000000; stroke-width: 0.8"/>
      </g>
     </g>
     <g id="text_20">
      <!-- 0.75 -->
      <g transform="translate(468.159063 282.33189) scale(0.11 -0.11)">
       <defs>
        <path id="DejaVuSans-37" d="M 525 4666 
L 3525 4666 
L 3525 4397 
L 1831 0 
L 1172 0 
L 2766 4134 
L 525 4134 
L 525 4666 
z
" transform="scale(0.015625)"/>
       </defs>
       <use xlink:href="#DejaVuSans-30"/>
       <use xlink:href="#DejaVuSans-2e" transform="translate(63.623047 0)"/>
       <use xlink:href="#DejaVuSans-37" transform="translate(95.410156 0)"/>
       <use xlink:href="#DejaVuSans-35" transform="translate(159.033203 0)"/>
      </g>
     </g>
    </g>
    <g id="ytick_16">
     <g id="line2d_37">
      <path d="M 499.65125 240.250291 
L 669.68125 240.250291 
" clip-path="url(#p95f0f2ef3a)" style="fill: none; stroke: #b0b0b0; stroke-opacity: 0.2; stroke-width: 0.6; stroke-linecap: square"/>
     </g>
     <g id="line2d_38">
      <g>
       <use xlink:href="#m39759c4705" x="499.65125" y="240.250291" style="stroke: #000000; stroke-width: 0.8"/>
      </g>
     </g>
     <g id="text_21">
      <!-- 1.00 -->
      <g transform="translate(468.159063 244.429432) scale(0.11 -0.11)">
       <use xlink:href="#DejaVuSans-31"/>
       <use xlink:href="#DejaVuSans-2e" transform="translate(63.623047 0)"/>
       <use xlink:href="#DejaVuSans-30" transform="translate(95.410156 0)"/>
       <use xlink:href="#DejaVuSans-30" transform="translate(159.033203 0)"/>
      </g>
     </g>
    </g>
    <g id="ytick_17">
     <g id="line2d_39">
      <path d="M 499.65125 202.347833 
L 669.68125 202.347833 
" clip-path="url(#p95f0f2ef3a)" style="fill: none; stroke: #b0b0b0; stroke-opacity: 0.2; stroke-width: 0.6; stroke-linecap: square"/>
     </g>
     <g id="line2d_40">
      <g>
       <use xlink:href="#m39759c4705" x="499.65125" y="202.347833" style="stroke: #000000; stroke-width: 0.8"/>
      </g>
     </g>
     <g id="text_22">
      <!-- 1.25 -->
      <g transform="translate(468.159063 206.526974) scale(0.11 -0.11)">
       <use xlink:href="#DejaVuSans-31"/>
       <use xlink:href="#DejaVuSans-2e" transform="translate(63.623047 0)"/>
       <use xlink:href="#DejaVuSans-32" transform="translate(95.410156 0)"/>
       <use xlink:href="#DejaVuSans-35" transform="translate(159.033203 0)"/>
      </g>
     </g>
    </g>
    <g id="ytick_18">
     <g id="line2d_41">
      <path d="M 499.65125 164.445375 
L 669.68125 164.445375 
" clip-path="url(#p95f0f2ef3a)" style="fill: none; stroke: #b0b0b0; stroke-opacity: 0.2; stroke-width: 0.6; stroke-linecap: square"/>
     </g>
     <g id="line2d_42">
      <g>
       <use xlink:href="#m39759c4705" x="499.65125" y="164.445375" style="stroke: #000000; stroke-width: 0.8"/>
      </g>
     </g>
     <g id="text_23">
      <!-- 1.50 -->
      <g transform="translate(468.159063 168.624515) scale(0.11 -0.11)">
       <use xlink:href="#DejaVuSans-31"/>
       <use xlink:href="#DejaVuSans-2e" transform="translate(63.623047 0)"/>
       <use xlink:href="#DejaVuSans-35" transform="translate(95.410156 0)"/>
       <use xlink:href="#DejaVuSans-30" transform="translate(159.033203 0)"/>
      </g>
     </g>
    </g>
    <g id="ytick_19">
     <g id="line2d_43">
      <path d="M 499.65125 126.542916 
L 669.68125 126.542916 
" clip-path="url(#p95f0f2ef3a)" style="fill: none; stroke: #b0b0b0; stroke-opacity: 0.2; stroke-width: 0.6; stroke-linecap: square"/>
     </g>
     <g id="line2d_44">
      <g>
       <use xlink:href="#m39759c4705" x="499.65125" y="126.542916" style="stroke: #000000; stroke-width: 0.8"/>
      </g>
     </g>
     <g id="text_24">
      <!-- 1.75 -->
      <g transform="translate(468.159063 130.722057) scale(0.11 -0.11)">
       <use xlink:href="#DejaVuSans-31"/>
       <use xlink:href="#DejaVuSans-2e" transform="translate(63.623047 0)"/>
       <use xlink:href="#DejaVuSans-37" transform="translate(95.410156 0)"/>
       <use xlink:href="#DejaVuSans-35" transform="translate(159.033203 0)"/>
      </g>
     </g>
    </g>
    <g id="ytick_20">
     <g id="line2d_45">
      <path d="M 499.65125 88.640458 
L 669.68125 88.640458 
" clip-path="url(#p95f0f2ef3a)" style="fill: none; stroke: #b0b0b0; stroke-opacity: 0.2; stroke-width: 0.6; stroke-linecap: square"/>
     </g>
     <g id="line2d_46">
      <g>
       <use xlink:href="#m39759c4705" x="499.65125" y="88.640458" style="stroke: #000000; stroke-width: 0.8"/>
      </g>
     </g>
     <g id="text_25">
      <!-- 2.00 -->
      <g transform="translate(468.159063 92.819599) scale(0.11 -0.11)">
       <use xlink:href="#DejaVuSans-32"/>
       <use xlink:href="#DejaVuSans-2e" transform="translate(63.623047 0)"/>
       <use xlink:href="#DejaVuSans-30" transform="translate(95.410156 0)"/>
       <use xlink:href="#DejaVuSans-30" transform="translate(159.033203 0)"/>
      </g>
     </g>
    </g>
    <g id="ytick_21">
     <g id="line2d_47">
      <path d="M 499.65125 50.738 
L 669.68125 50.738 
" clip-path="url(#p95f0f2ef3a)" style="fill: none; stroke: #b0b0b0; stroke-opacity: 0.2; stroke-width: 0.6; stroke-linecap: square"/>
     </g>
     <g id="line2d_48">
      <g>
       <use xlink:href="#m39759c4705" x="499.65125" y="50.738" style="stroke: #000000; stroke-width: 0.8"/>
      </g>
     </g>
     <g id="text_26">
      <!-- 2.25 -->
      <g transform="translate(468.159063 54.91714) scale(0.11 -0.11)">
       <use xlink:href="#DejaVuSans-32"/>
       <use xlink:href="#DejaVuSans-2e" transform="translate(63.623047 0)"/>
       <use xlink:href="#DejaVuSans-32" transform="translate(95.410156 0)"/>
       <use xlink:href="#DejaVuSans-35" transform="translate(159.033203 0)"/>
      </g>
     </g>
    </g>
    <g id="text_27">
     <!-- segments / second -->
     <g transform="translate(461.663438 243.260688) rotate(-90) scale(0.12 -0.12)">
      <defs>
       <path id="DejaVuSans-67" d="M 2906 1791 
Q 2906 2416 2648 2759 
Q 2391 3103 1925 3103 
Q 1463 3103 1205 2759 
Q 947 2416 947 1791 
Q 947 1169 1205 825 
Q 1463 481 1925 481 
Q 2391 481 2648 825 
Q 2906 1169 2906 1791 
z
M 3481 434 
Q 3481 -459 3084 -895 
Q 2688 -1331 1869 -1331 
Q 1566 -1331 1297 -1286 
Q 1028 -1241 775 -1147 
L 775 -588 
Q 1028 -725 1275 -790 
Q 1522 -856 1778 -856 
Q 2344 -856 2625 -561 
Q 2906 -266 2906 331 
L 2906 616 
Q 2728 306 2450 153 
Q 2172 0 1784 0 
Q 1141 0 747 490 
Q 353 981 353 1791 
Q 353 2603 747 3093 
Q 1141 3584 1784 3584 
Q 2172 3584 2450 3431 
Q 2728 3278 2906 2969 
L 2906 3500 
L 3481 3500 
L 3481 434 
z
" transform="scale(0.015625)"/>
       <path id="DejaVuSans-2f" d="M 1625 4666 
L 2156 4666 
L 531 -594 
L 0 -594 
L 1625 4666 
z
" transform="scale(0.015625)"/>
      </defs>
      <use xlink:href="#DejaVuSans-73"/>
      <use xlink:href="#DejaVuSans-65" transform="translate(52.099609 0)"/>
      <use xlink:href="#DejaVuSans-67" transform="translate(113.623047 0)"/>
      <use xlink:href="#DejaVuSans-6d" transform="translate(177.099609 0)"/>
      <use xlink:href="#DejaVuSans-65" transform="translate(274.511719 0)"/>
      <use xlink:href="#DejaVuSans-6e" transform="translate(336.035156 0)"/>
      <use xlink:href="#DejaVuSans-74" transform="translate(399.414062 0)"/>
      <use xlink:href="#DejaVuSans-73" transform="translate(438.623047 0)"/>
      <use xlink:href="#DejaVuSans-20" transform="translate(490.722656 0)"/>
      <use xlink:href="#DejaVuSans-2f" transform="translate(522.509766 0)"/>
      <use xlink:href="#DejaVuSans-20" transform="translate(556.201172 0)"/>
      <use xlink:href="#DejaVuSans-73" transform="translate(587.988281 0)"/>
      <use xlink:href="#DejaVuSans-65" transform="translate(640.087891 0)"/>
      <use xlink:href="#DejaVuSans-63" transform="translate(701.611328 0)"/>
      <use xlink:href="#DejaVuSans-6f" transform="translate(756.591797 0)"/>
      <use xlink:href="#DejaVuSans-6e" transform="translate(817.773438 0)"/>
      <use xlink:href="#DejaVuSans-64" transform="translate(881.152344 0)"/>
     </g>
    </g>
   </g>
   <g id="FillBetweenPolyCollection_3">
    <defs>
     <path id="mba8ba88151" d="M 622.790942 -66.737983 
L 546.541558 -66.737983 
L 544.589969 -69.529961 
L 542.61488 -72.321939 
L 540.622636 -75.113916 
L 538.620039 -77.905894 
L 536.614315 -80.697872 
L 534.613069 -83.48985 
L 532.624242 -86.281827 
L 530.656048 -89.073805 
L 528.716909 -91.865783 
L 526.815388 -94.657761 
L 524.960105 -97.449738 
L 523.159656 -100.241716 
L 521.422527 -103.033694 
L 519.756997 -105.825672 
L 518.171053 -108.617649 
L 516.672296 -111.409627 
L 515.267848 -114.201605 
L 513.964271 -116.993583 
L 512.767483 -119.78556 
L 511.682681 -122.577538 
L 510.714282 -125.369516 
L 509.865858 -128.161493 
L 509.140095 -130.953471 
L 508.53876 -133.745449 
L 508.062674 -136.537427 
L 507.711707 -139.329404 
L 507.484781 -142.121382 
L 507.379886 -144.91336 
L 507.394113 -147.705338 
L 507.523691 -150.497315 
L 507.764042 -153.289293 
L 508.109847 -156.081271 
L 508.555114 -158.873249 
L 509.093259 -161.665226 
L 509.717194 -164.457204 
L 510.419415 -167.249182 
L 511.192096 -170.04116 
L 512.027185 -172.833137 
L 512.9165 -175.625115 
L 513.851819 -178.417093 
L 514.824974 -181.209071 
L 515.827937 -184.001048 
L 516.8529 -186.793026 
L 517.892353 -189.585004 
L 518.939151 -192.376982 
L 519.986576 -195.168959 
L 521.028391 -197.960937 
L 522.058886 -200.752915 
L 523.072911 -203.544893 
L 524.065912 -206.33687 
L 525.033945 -209.128848 
L 525.973694 -211.920826 
L 526.882472 -214.712804 
L 527.758221 -217.504781 
L 528.599502 -220.296759 
L 529.405479 -223.088737 
L 530.175897 -225.880714 
L 530.911055 -228.672692 
L 531.611773 -231.46467 
L 532.279354 -234.256648 
L 532.915548 -237.048625 
L 533.5225 -239.840603 
L 534.102713 -242.632581 
L 534.658989 -245.424559 
L 535.194388 -248.216536 
L 535.712171 -251.008514 
L 536.215749 -253.800492 
L 536.708636 -256.59247 
L 537.194396 -259.384447 
L 537.676594 -262.176425 
L 538.158755 -264.968403 
L 538.64431 -267.760381 
L 539.136569 -270.552358 
L 539.638671 -273.344336 
L 540.153561 -276.136314 
L 540.683952 -278.928292 
L 541.23231 -281.720269 
L 541.800823 -284.512247 
L 542.391394 -287.304225 
L 543.005623 -290.096203 
L 543.644804 -292.88818 
L 544.309919 -295.680158 
L 545.001641 -298.472136 
L 545.720336 -301.264114 
L 546.46607 -304.056091 
L 547.238623 -306.848069 
L 548.037498 -309.640047 
L 548.861936 -312.432025 
L 549.710934 -315.224002 
L 550.58326 -318.01598 
L 551.477475 -320.807958 
L 552.391949 -323.599936 
L 553.324882 -326.391913 
L 554.274322 -329.183891 
L 555.238186 -331.975869 
L 556.21428 -334.767846 
L 557.200316 -337.559824 
L 558.193929 -340.351802 
L 559.192702 -343.14378 
L 610.139798 -343.14378 
L 610.139798 -343.14378 
L 611.138571 -340.351802 
L 612.132184 -337.559824 
L 613.11822 -334.767846 
L 614.094314 -331.975869 
L 615.058178 -329.183891 
L 616.007618 -326.391913 
L 616.940551 -323.599936 
L 617.855025 -320.807958 
L 618.74924 -318.01598 
L 619.621566 -315.224002 
L 620.470564 -312.432025 
L 621.295002 -309.640047 
L 622.093877 -306.848069 
L 622.86643 -304.056091 
L 623.612164 -301.264114 
L 624.330859 -298.472136 
L 625.022581 -295.680158 
L 625.687696 -292.88818 
L 626.326877 -290.096203 
L 626.941106 -287.304225 
L 627.531677 -284.512247 
L 628.10019 -281.720269 
L 628.648548 -278.928292 
L 629.178939 -276.136314 
L 629.693829 -273.344336 
L 630.195931 -270.552358 
L 630.68819 -267.760381 
L 631.173745 -264.968403 
L 631.655906 -262.176425 
L 632.138104 -259.384447 
L 632.623864 -256.59247 
L 633.116751 -253.800492 
L 633.620329 -251.008514 
L 634.138112 -248.216536 
L 634.673511 -245.424559 
L 635.229787 -242.632581 
L 635.81 -239.840603 
L 636.416952 -237.048625 
L 637.053146 -234.256648 
L 637.720727 -231.46467 
L 638.421445 -228.672692 
L 639.156603 -225.880714 
L 639.927021 -223.088737 
L 640.732998 -220.296759 
L 641.574279 -217.504781 
L 642.450028 -214.712804 
L 643.358806 -211.920826 
L 644.298555 -209.128848 
L 645.266588 -206.33687 
L 646.259589 -203.544893 
L 647.273614 -200.752915 
L 648.304109 -197.960937 
L 649.345924 -195.168959 
L 650.393349 -192.376982 
L 651.440147 -189.585004 
L 652.4796 -186.793026 
L 653.504563 -184.001048 
L 654.507526 -181.209071 
L 655.480681 -178.417093 
L 656.416 -175.625115 
L 657.305315 -172.833137 
L 658.140404 -170.04116 
L 658.913085 -167.249182 
L 659.615306 -164.457204 
L 660.239241 -161.665226 
L 660.777386 -158.873249 
L 661.222653 -156.081271 
L 661.568458 -153.289293 
L 661.808809 -150.497315 
L 661.938387 -147.705338 
L 661.952614 -144.91336 
L 661.847719 -142.121382 
L 661.620793 -139.329404 
L 661.269826 -136.537427 
L 660.79374 -133.745449 
L 660.192405 -130.953471 
L 659.466642 -128.161493 
L 658.618218 -125.369516 
L 657.649819 -122.577538 
L 656.565017 -119.78556 
L 655.368229 -116.993583 
L 654.064652 -114.201605 
L 652.660204 -111.409627 
L 651.161447 -108.617649 
L 649.575503 -105.825672 
L 647.909973 -103.033694 
L 646.172844 -100.241716 
L 644.372395 -97.449738 
L 642.517112 -94.657761 
L 640.615591 -91.865783 
L 638.676452 -89.073805 
L 636.708258 -86.281827 
L 634.719431 -83.48985 
L 632.718185 -80.697872 
L 630.712461 -77.905894 
L 628.709864 -75.113916 
L 626.71762 -72.321939 
L 624.742531 -69.529961 
L 622.790942 -66.737983 
z
" style="stroke: #ea580c; stroke-opacity: 0.35"/>
    </defs>
    <g clip-path="url(#p95f0f2ef3a)">
     <use xlink:href="#mba8ba88151" x="0" y="391.52407" style="fill: #ea580c; fill-opacity: 0.35; stroke: #ea580c; stroke-opacity: 0.35"/>
    </g>
   </g>
   <g id="LineCollection_3">
    <path d="M 546.023068 233.364334 
L 623.309432 233.364334 
" clip-path="url(#p95f0f2ef3a)" style="fill: none; stroke: #ea580c; stroke-width: 1.5"/>
   </g>
   <g id="patch_13">
    <path d="M 499.65125 338.606376 
L 499.65125 34.56 
" style="fill: none; stroke: #000000; stroke-width: 0.8; stroke-linejoin: miter; stroke-linecap: square"/>
   </g>
   <g id="patch_14">
    <path d="M 669.68125 338.606376 
L 669.68125 34.56 
" style="fill: none; stroke: #000000; stroke-width: 0.8; stroke-linejoin: miter; stroke-linecap: square"/>
   </g>
   <g id="patch_15">
    <path d="M 499.65125 338.606376 
L 669.68125 338.606376 
" style="fill: none; stroke: #000000; stroke-width: 0.8; stroke-linejoin: miter; stroke-linecap: square"/>
   </g>
   <g id="patch_16">
    <path d="M 499.65125 34.56 
L 669.68125 34.56 
" style="fill: none; stroke: #000000; stroke-width: 0.8; stroke-linejoin: miter; stroke-linecap: square"/>
   </g>
  </g>
  <g id="text_28">
   <!-- ADHD (female) -->
   <g transform="translate(285.830312 17.837812) scale(0.14 -0.14)">
    <defs>
     <path id="DejaVuSans-41" d="M 2188 4044 
L 1331 1722 
L 3047 1722 
L 2188 4044 
z
M 1831 4666 
L 2547 4666 
L 4325 0 
L 3669 0 
L 3244 1197 
L 1141 1197 
L 716 0 
L 50 0 
L 1831 4666 
z
" transform="scale(0.015625)"/>
     <path id="DejaVuSans-48" d="M 628 4666 
L 1259 4666 
L 1259 2753 
L 3553 2753 
L 3553 4666 
L 4184 4666 
L 4184 0 
L 3553 0 
L 3553 2222 
L 1259 2222 
L 1259 0 
L 628 0 
L 628 4666 
z
" transform="scale(0.015625)"/>
     <path id="DejaVuSans-28" d="M 1984 4856 
Q 1566 4138 1362 3434 
Q 1159 2731 1159 2009 
Q 1159 1288 1364 580 
Q 1569 -128 1984 -844 
L 1484 -844 
Q 1016 -109 783 600 
Q 550 1309 550 2009 
Q 550 2706 781 3412 
Q 1013 4119 1484 4856 
L 1984 4856 
z
" transform="scale(0.015625)"/>
     <path id="DejaVuSans-66" d="M 2375 4863 
L 2375 4384 
L 1825 4384 
Q 1516 4384 1395 4259 
Q 1275 4134 1275 3809 
L 1275 3500 
L 2222 3500 
L 2222 3053 
L 1275 3053 
L 1275 0 
L 697 0 
L 697 3053 
L 147 3053 
L 147 3500 
L 697 3500 
L 697 3744 
Q 697 4328 969 4595 
Q 1241 4863 1831 4863 
L 2375 4863 
z
" transform="scale(0.015625)"/>
     <path id="DejaVuSans-29" d="M 513 4856 
L 1013 4856 
Q 1481 4119 1714 3412 
Q 1947 2706 1947 2009 
Q 1947 1309 1714 600 
Q 1481 -109 1013 -844 
L 513 -844 
Q 928 -128 1133 580 
Q 1338 1288 1338 2009 
Q 1338 2731 1133 3434 
Q 928 4138 513 4856 
z
" transform="scale(0.015625)"/>
    </defs>
    <use xlink:href="#DejaVuSans-41"/>
    <use xlink:href="#DejaVuSans-44" transform="translate(68.408203 0)"/>
    <use xlink:href="#DejaVuSans-48" transform="translate(145.410156 0)"/>
    <use xlink:href="#DejaVuSans-44" transform="translate(220.605469 0)"/>
    <use xlink:href="#DejaVuSans-20" transform="translate(297.607422 0)"/>
    <use xlink:href="#DejaVuSans-28" transform="translate(329.394531 0)"/>
    <use xlink:href="#DejaVuSans-66" transform="translate(368.408203 0)"/>
    <use xlink:href="#DejaVuSans-65" transform="translate(403.613281 0)"/>
    <use xlink:href="#DejaVuSans-6d" transform="translate(465.136719 0)"/>
    <use xlink:href="#DejaVuSans-61" transform="translate(562.548828 0)"/>
    <use xlink:href="#DejaVuSans-6c" transform="translate(623.828125 0)"/>
    <use xlink:href="#DejaVuSans-65" transform="translate(651.611328 0)"/>
    <use xlink:href="#DejaVuSans-29" transform="translate(713.134766 0)"/>
   </g>
  </g>
 </g>
 <defs>
  <clipPath id="pe1341d93c7">
   <rect x="43.81125" y="34.56" width="170.03" height="304.046376"/>
  </clipPath>
  <clipPath id="p6f72da62e7">
   <rect x="271.73125" y="34.56" width="170.03" height="304.046376"/>
  </clipPath>
  <clipPath id="p95f0f2ef3a">
   <rect x="499.65125" y="34.56" width="170.03" height="304.046376"/>
  </clipPath>
 </defs>
</svg>
