<?xml version="1.0" encoding="utf-8" standalone="no"?>
<!DOCTYPE svg PUBLIC "-//W3C//DTD SVG 1.1//EN"
  "http://www.w3.org/Graphics/SVG/1.1/DTD/svg11.dtd">
<svg xmlns:xlink="http://www.w3.org/1999/xlink" width="712.837188pt" height="424.5775pt" viewBox="0 0 712.837188 424.5775" xmlns="http://www.w3.org/2000/svg" version="1.1">
 <metadata>
  <rdf:RDF xmlns:dc="http://purl.org/dc/elements/1.1/" xmlns:cc="http://creativecommons.org/ns#" xmlns:rdf="http://www.w3.org/1999/02/22-rdf-syntax-ns#">
   <cc:Work>
    <dc:type rdf:resource="http://purl.org/dc/dcmitype/StillImage"/>
    <dc:date>2026-06-14T18:59:03.224069</dc:date>
    <dc:format>image/svg+xml</dc:format>
    <dc:creator>
     <cc:Agent>
      <dc:title>Matplotlib v3.10.1, https://matplotlib.org/</dc:title>
     </cc:Agent>
    </dc:creator>
   </cc:Work>
  </rdf:RDF>
 </metadata>
 <defs>
  <style type="text/css">*{stroke-linejoin: round; stroke-linecap: butt}</style>
 </defs>
 <g id="figure_1">
  <g id="patch_1">
   <path d="M 0 424.5775 
L 712.837188 424.5775 
L 712.837188 0 
L 0 0 
z
" style="fill: #ffffff"/>
  </g>
  <g id="axes_1">
   <g id="patch_2">
    <path d="M 47.307188 384.117812 
L 705.637188 384.117812 
L 705.637188 23.837812 
L 47.307188 23.837812 
z
" style="fill: #ffffff"/>
   </g>
   <g id="matplotlib.axis_1">
    <g id="xtick_1">
     <g id="line2d_1">
      <path d="M 47.307188 384.117812 
L 47.307188 23.837812 
" clip-path="url(#p6a501526ea)" style="fill: none; stroke: #b0b0b0; stroke-opacity: 0.2; stroke-width: 0.6; stroke-linecap: square"/>
     </g>
     <g id="line2d_2">
      <defs>
       <path id="m80f46a60d3" d="M 0 0 
L 0 3.5 
" style="stroke: #000000; stroke-width: 0.8"/>
      </defs>
      <g>
       <use xlink:href="#m80f46a60d3" x="47.307188" y="384.117812" style="stroke: #000000; stroke-width: 0.8"/>
      </g>
     </g>
     <g id="text_1">
      <!-- 0 -->
      <g transform="translate(43.807813 399.476094) scale(0.11 -0.11)">
       <defs>
        <path id="DejaVuSans-30" d="M 2034 4250 
Q 1547 4250 1301 3770 
Q 1056 3291 1056 2328 
Q 1056 1369 1301 889 
Q 1547 409 2034 409 
Q 2525 409 2770 889 
Q 3016 1369 3016 2328 
Q 3016 3291 2770 3770 
Q 2525 4250 2034 4250 
z
M 2034 4750 
Q 2819 4750 3233 4129 
Q 3647 3509 3647 2328 
Q 3647 1150 3233 529 
Q 2819 -91 2034 -91 
Q 1250 -91 836 529 
Q 422 1150 422 2328 
Q 422 3509 836 4129 
Q 1250 4750 2034 4750 
z
" transform="scale(0.015625)"/>
       </defs>
       <use xlink:href="#DejaVuSans-30"/>
      </g>
     </g>
    </g>
    <g id="xtick_2">
     <g id="line2d_3">
      <path d="M 134.387875 384.117812 
L 134.387875 23.837812 
" clip-path="url(#p6a501526ea)" style="fill: none; stroke: #b0b0b0; stroke-opacity: 0.2; stroke-width: 0.6; stroke-linecap: square"/>
     </g>
     <g id="line2d_4">
      <g>
       <use xlink:href="#m80f46a60d3" x="134.387875" y="384.117812" style="stroke: #000000; stroke-width: 0.8"/>
      </g>
     </g>
     <g id="text_2">
      <!-- 25 -->
      <g transform="translate(127.389125 399.476094) scale(0.11 -0.11)">
       <defs>
        <path id="DejaVuSans-32" d="M 1228 531 
L 3431 531 
L 3431 0 
L 469 0 
L 469 531 
Q 828 903 1448 1529 
Q 2069 2156 2228 2338 
Q 2531 2678 2651 2914 
Q 2772 3150 2772 3378 
Q 2772 3750 2511 3984 
Q 2250 4219 1831 4219 
Q 1534 4219 1204 4116 
Q 875 4013 500 3803 
L 500 4441 
Q 881 4594 1212 4672 
Q 1544 4750 1819 4750 
Q 2544 4750 2975 4387 
Q 3406 4025 3406 3419 
Q 3406 3131 3298 2873 
Q 3191 2616 2906 2266 
Q 2828 2175 2409 1742 
Q 1991 1309 1228 531 
z
" transform="scale(0.015625)"/>
        <path id="DejaVuSans-35" d="M 691 4666 
L 3169 4666 
L 3169 4134 
L 1269 4134 
L 1269 2991 
Q 1406 3038 1543 3061 
Q 1681 3084 1819 3084 
Q 2600 3084 3056 2656 
Q 3513 2228 3513 1497 
Q 3513 744 3044 326 
Q 2575 -91 1722 -91 
Q 1428 -91 1123 -41 
Q 819 9 494 109 
L 494 744 
Q 775 591 1075 516 
Q 1375 441 1709 441 
Q 2250 441 2565 725 
Q 2881 1009 2881 1497 
Q 2881 1984 2565 2268 
Q 2250 2553 1709 2553 
Q 1456 2553 1204 2497 
Q 953 2441 691 2322 
L 691 4666 
z
" transform="scale(0.015625)"/>
       </defs>
       <use xlink:href="#DejaVuSans-32"/>
       <use xlink:href="#DejaVuSans-35" transform="translate(63.623047 0)"/>
      </g>
     </g>
    </g>
    <g id="xtick_3">
     <g id="line2d_5">
      <path d="M 221.468563 384.117812 
L 221.468563 23.837812 
" clip-path="url(#p6a501526ea)" style="fill: none; stroke: #b0b0b0; stroke-opacity: 0.2; stroke-width: 0.6; stroke-linecap: square"/>
     </g>
     <g id="line2d_6">
      <g>
       <use xlink:href="#m80f46a60d3" x="221.468563" y="384.117812" style="stroke: #000000; stroke-width: 0.8"/>
      </g>
     </g>
     <g id="text_3">
      <!-- 50 -->
      <g transform="translate(214.469813 399.476094) scale(0.11 -0.11)">
       <use xlink:href="#DejaVuSans-35"/>
       <use xlink:href="#DejaVuSans-30" transform="translate(63.623047 0)"/>
      </g>
     </g>
    </g>
    <g id="xtick_4">
     <g id="line2d_7">
      <path d="M 308.549251 384.117812 
L 308.549251 23.837812 
" clip-path="url(#p6a501526ea)" style="fill: none; stroke: #b0b0b0; stroke-opacity: 0.2; stroke-width: 0.6; stroke-linecap: square"/>
     </g>
     <g id="line2d_8">
      <g>
       <use xlink:href="#m80f46a60d3" x="308.549251" y="384.117812" style="stroke: #000000; stroke-width: 0.8"/>
      </g>
     </g>
     <g id="text_4">
      <!-- 75 -->
      <g transform="translate(301.550501 399.476094) scale(0.11 -0.11)">
       <defs>
        <path id="DejaVuSans-37" d="M 525 4666 
L 3525 4666 
L 3525 4397 
L 1831 0 
L 1172 0 
L 2766 4134 
L 525 4134 
L 525 4666 
z
" transform="scale(0.015625)"/>
       </defs>
       <use xlink:href="#DejaVuSans-37"/>
       <use xlink:href="#DejaVuSans-35" transform="translate(63.623047 0)"/>
      </g>
     </g>
    </g>
    <g id="xtick_5">
     <g id="line2d_9">
      <path d="M 395.629939 384.117812 
L 395.629939 23.837812 
" clip-path="url(#p6a501526ea)" style="fill: none; stroke: #b0b0b0; stroke-opacity: 0.2; stroke-width: 0.6; stroke-linecap: square"/>
     </g>
     <g id="line2d_10">
      <g>
       <use xlink:href="#m80f46a60d3" x="395.629939" y="384.117812" style="stroke: #000000; stroke-width: 0.8"/>
      </g>
     </g>
     <g id="text_5">
      <!-- 100 -->
      <g transform="translate(385.131814 399.476094) scale(0.11 -0.11)">
       <defs>
        <path id="DejaVuSans-31" d="M 794 531 
L 1825 531 
L 1825 4091 
L 703 3866 
L 703 4441 
L 1819 4666 
L 2450 4666 
L 2450 531 
L 3481 531 
L 3481 0 
L 794 0 
L 794 531 
z
" transform="scale(0.015625)"/>
       </defs>
       <use xlink:href="#DejaVuSans-31"/>
       <use xlink:href="#DejaVuSans-30" transform="translate(63.623047 0)"/>
       <use xlink:href="#DejaVuSans-30" transform="translate(127.246094 0)"/>
      </g>
     </g>
    </g>
    <g id="xtick_6">
     <g id="line2d_11">
      <path d="M 482.710627 384.117812 
L 482.710627 23.837812 
" clip-path="url(#p6a501526ea)" style="fill: none; stroke: #b0b0b0; stroke-opacity: 0.2; stroke-width: 0.6; stroke-linecap: square"/>
     </g>
     <g id="line2d_12">
      <g>
       <use xlink:href="#m80f46a60d3" x="482.710627" y="384.117812" style="stroke: #000000; stroke-width: 0.8"/>
      </g>
     </g>
     <g id="text_6">
      <!-- 125 -->
      <g transform="translate(472.212502 399.476094) scale(0.11 -0.11)">
       <use xlink:href="#DejaVuSans-31"/>
       <use xlink:href="#DejaVuSans-32" transform="translate(63.623047 0)"/>
       <use xlink:href="#DejaVuSans-35" transform="translate(127.246094 0)"/>
      </g>
     </g>
    </g>
    <g id="xtick_7">
     <g id="line2d_13">
      <path d="M 569.791314 384.117812 
L 569.791314 23.837812 
" clip-path="url(#p6a501526ea)" style="fill: none; stroke: #b0b0b0; stroke-opacity: 0.2; stroke-width: 0.6; stroke-linecap: square"/>
     </g>
     <g id="line2d_14">
      <g>
       <use xlink:href="#m80f46a60d3" x="569.791314" y="384.117812" style="stroke: #000000; stroke-width: 0.8"/>
      </g>
     </g>
     <g id="text_7">
      <!-- 150 -->
      <g transform="translate(559.293189 399.476094) scale(0.11 -0.11)">
       <use xlink:href="#DejaVuSans-31"/>
       <use xlink:href="#DejaVuSans-35" transform="translate(63.623047 0)"/>
       <use xlink:href="#DejaVuSans-30" transform="translate(127.246094 0)"/>
      </g>
     </g>
    </g>
    <g id="xtick_8">
     <g id="line2d_15">
      <path d="M 656.872002 384.117812 
L 656.872002 23.837812 
" clip-path="url(#p6a501526ea)" style="fill: none; stroke: #b0b0b0; stroke-opacity: 0.2; stroke-width: 0.6; stroke-linecap: square"/>
     </g>
     <g id="line2d_16">
      <g>
       <use xlink:href="#m80f46a60d3" x="656.872002" y="384.117812" style="stroke: #000000; stroke-width: 0.8"/>
      </g>
     </g>
     <g id="text_8">
      <!-- 175 -->
      <g transform="translate(646.373877 399.476094) scale(0.11 -0.11)">
       <use xlink:href="#DejaVuSans-31"/>
       <use xlink:href="#DejaVuSans-37" transform="translate(63.623047 0)"/>
       <use xlink:href="#DejaVuSans-35" transform="translate(127.246094 0)"/>
      </g>
     </g>
    </g>
    <g id="text_9">
     <!-- Time (s) -->
     <g transform="translate(352.0775 414.881875) scale(0.12 -0.12)">
      <defs>
       <path id="DejaVuSans-54" d="M -19 4666 
L 3928 4666 
L 3928 4134 
L 2272 4134 
L 2272 0 
L 1638 0 
L 1638 4134 
L -19 4134 
L -19 4666 
z
" transform="scale(0.015625)"/>
       <path id="DejaVuSans-69" d="M 603 3500 
L 1178 3500 
L 1178 0 
L 603 0 
L 603 3500 
z
M 603 4863 
L 1178 4863 
L 1178 4134 
L 603 4134 
L 603 4863 
z
" transform="scale(0.015625)"/>
       <path id="DejaVuSans-6d" d="M 3328 2828 
Q 3544 3216 3844 3400 
Q 4144 3584 4550 3584 
Q 5097 3584 5394 3201 
Q 5691 2819 5691 2113 
L 5691 0 
L 5113 0 
L 5113 2094 
Q 5113 2597 4934 2840 
Q 4756 3084 4391 3084 
Q 3944 3084 3684 2787 
Q 3425 2491 3425 1978 
L 3425 0 
L 2847 0 
L 2847 2094 
Q 2847 2600 2669 2842 
Q 2491 3084 2119 3084 
Q 1678 3084 1418 2786 
Q 1159 2488 1159 1978 
L 1159 0 
L 581 0 
L 581 3500 
L 1159 3500 
L 1159 2956 
Q 1356 3278 1631 3431 
Q 1906 3584 2284 3584 
Q 2666 3584 2933 3390 
Q 3200 3197 3328 2828 
z
" transform="scale(0.015625)"/>
       <path id="DejaVuSans-65" d="M 3597 1894 
L 3597 1613 
L 953 1613 
Q 991 1019 1311 708 
Q 1631 397 2203 397 
Q 2534 397 2845 478 
Q 3156 559 3463 722 
L 3463 178 
Q 3153 47 2828 -22 
Q 2503 -91 2169 -91 
Q 1331 -91 842 396 
Q 353 884 353 1716 
Q 353 2575 817 3079 
Q 1281 3584 2069 3584 
Q 2775 3584 3186 3129 
Q 3597 2675 3597 1894 
z
M 3022 2063 
Q 3016 2534 2758 2815 
Q 2500 3097 2075 3097 
Q 1594 3097 1305 2825 
Q 1016 2553 972 2059 
L 3022 2063 
z
" transform="scale(0.015625)"/>
       <path id="DejaVuSans-20" transform="scale(0.015625)"/>
       <path id="DejaVuSans-28" d="M 1984 4856 
Q 1566 4138 1362 3434 
Q 1159 2731 1159 2009 
Q 1159 1288 1364 580 
Q 1569 -128 1984 -844 
L 1484 -844 
Q 1016 -109 783 600 
Q 550 1309 550 2009 
Q 550 2706 781 3412 
Q 1013 4119 1484 4856 
L 1984 4856 
z
" transform="scale(0.015625)"/>
       <path id="DejaVuSans-73" d="M 2834 3397 
L 2834 2853 
Q 2591 2978 2328 3040 
Q 2066 3103 1784 3103 
Q 1356 3103 1142 2972 
Q 928 2841 928 2578 
Q 928 2378 1081 2264 
Q 1234 2150 1697 2047 
L 1894 2003 
Q 2506 1872 2764 1633 
Q 3022 1394 3022 966 
Q 3022 478 2636 193 
Q 2250 -91 1575 -91 
Q 1294 -91 989 -36 
Q 684 19 347 128 
L 347 722 
Q 666 556 975 473 
Q 1284 391 1588 391 
Q 1994 391 2212 530 
Q 2431 669 2431 922 
Q 2431 1156 2273 1281 
Q 2116 1406 1581 1522 
L 1381 1569 
Q 847 1681 609 1914 
Q 372 2147 372 2553 
Q 372 3047 722 3315 
Q 1072 3584 1716 3584 
Q 2034 3584 2315 3537 
Q 2597 3491 2834 3397 
z
" transform="scale(0.015625)"/>
       <path id="DejaVuSans-29" d="M 513 4856 
L 1013 4856 
Q 1481 4119 1714 3412 
Q 1947 2706 1947 2009 
Q 1947 1309 1714 600 
Q 1481 -109 1013 -844 
L 513 -844 
Q 928 -128 1133 580 
Q 1338 1288 1338 2009 
Q 1338 2731 1133 3434 
Q 928 4138 513 4856 
z
" transform="scale(0.015625)"/>
      </defs>
      <use xlink:href="#DejaVuSans-54"/>
      <use xlink:href="#DejaVuSans-69" transform="translate(57.958984 0)"/>
      <use xlink:href="#DejaVuSans-6d" transform="translate(85.742188 0)"/>
      <use xlink:href="#DejaVuSans-65" transform="translate(183.154297 0)"/>
      <use xlink:href="#DejaVuSans-20" transform="translate(244.677734 0)"/>
      <use xlink:href="#DejaVuSans-28" transform="translate(276.464844 0)"/>
      <use xlink:href="#DejaVuSans-73" transform="translate(315.478516 0)"/>
      <use xlink:href="#DejaVuSans-29" transform="translate(367.578125 0)"/>
     </g>
    </g>
   </g>
   <g id="matplotlib.axis_2">
    <g id="ytick_1">
     <g id="line2d_17">
      <path d="M 47.307188 367.741449 
L 705.637188 367.741449 
" clip-path="url(#p6a501526ea)" style="fill: none; stroke: #b0b0b0; stroke-opacity: 0.2; stroke-width: 0.6; stroke-linecap: square"/>
     </g>
     <g id="line2d_18">
      <defs>
       <path id="m4f3f022441" d="M 0 0 
L -3.5 0 
" style="stroke: #000000; stroke-width: 0.8"/>
      </defs>
      <g>
       <use xlink:href="#m4f3f022441" x="47.307188" y="367.741449" style="stroke: #000000; stroke-width: 0.8"/>
      </g>
     </g>
     <g id="text_10">
      <!-- 0.0 -->
      <g transform="translate(22.81375 371.920589) scale(0.11 -0.11)">
       <defs>
        <path id="DejaVuSans-2e" d="M 684 794 
L 1344 794 
L 1344 0 
L 684 0 
L 684 794 
z
" transform="scale(0.015625)"/>
       </defs>
       <use xlink:href="#DejaVuSans-30"/>
       <use xlink:href="#DejaVuSans-2e" transform="translate(63.623047 0)"/>
       <use xlink:href="#DejaVuSans-30" transform="translate(95.410156 0)"/>
      </g>
     </g>
    </g>
    <g id="ytick_2">
     <g id="line2d_19">
      <path d="M 47.307188 317.507205 
L 705.637188 317.507205 
" clip-path="url(#p6a501526ea)" style="fill: none; stroke: #b0b0b0; stroke-opacity: 0.2; stroke-width: 0.6; stroke-linecap: square"/>
     </g>
     <g id="line2d_20">
      <g>
       <use xlink:href="#m4f3f022441" x="47.307188" y="317.507205" style="stroke: #000000; stroke-width: 0.8"/>
      </g>
     </g>
     <g id="text_11">
      <!-- 0.5 -->
      <g transform="translate(22.81375 321.686345) scale(0.11 -0.11)">
       <use xlink:href="#DejaVuSans-30"/>
       <use xlink:href="#DejaVuSans-2e" transform="translate(63.623047 0)"/>
       <use xlink:href="#DejaVuSans-35" transform="translate(95.410156 0)"/>
      </g>
     </g>
    </g>
    <g id="ytick_3">
     <g id="line2d_21">
      <path d="M 47.307188 267.27296 
L 705.637188 267.27296 
" clip-path="url(#p6a501526ea)" style="fill: none; stroke: #b0b0b0; stroke-opacity: 0.2; stroke-width: 0.6; stroke-linecap: square"/>
     </g>
     <g id="line2d_22">
      <g>
       <use xlink:href="#m4f3f022441" x="47.307188" y="267.27296" style="stroke: #000000; stroke-width: 0.8"/>
      </g>
     </g>
     <g id="text_12">
      <!-- 1.0 -->
      <g transform="translate(22.81375 271.452101) scale(0.11 -0.11)">
       <use xlink:href="#DejaVuSans-31"/>
       <use xlink:href="#DejaVuSans-2e" transform="translate(63.623047 0)"/>
       <use xlink:href="#DejaVuSans-30" transform="translate(95.410156 0)"/>
      </g>
     </g>
    </g>
    <g id="ytick_4">
     <g id="line2d_23">
      <path d="M 47.307188 217.038716 
L 705.637188 217.038716 
" clip-path="url(#p6a501526ea)" style="fill: none; stroke: #b0b0b0; stroke-opacity: 0.2; stroke-width: 0.6; stroke-linecap: square"/>
     </g>
     <g id="line2d_24">
      <g>
       <use xlink:href="#m4f3f022441" x="47.307188" y="217.038716" style="stroke: #000000; stroke-width: 0.8"/>
      </g>
     </g>
     <g id="text_13">
      <!-- 1.5 -->
      <g transform="translate(22.81375 221.217857) scale(0.11 -0.11)">
       <use xlink:href="#DejaVuSans-31"/>
       <use xlink:href="#DejaVuSans-2e" transform="translate(63.623047 0)"/>
       <use xlink:href="#DejaVuSans-35" transform="translate(95.410156 0)"/>
      </g>
     </g>
    </g>
    <g id="ytick_5">
     <g id="line2d_25">
      <path d="M 47.307188 166.804472 
L 705.637188 166.804472 
" clip-path="url(#p6a501526ea)" style="fill: none; stroke: #b0b0b0; stroke-opacity: 0.2; stroke-width: 0.6; stroke-linecap: square"/>
     </g>
     <g id="line2d_26">
      <g>
       <use xlink:href="#m4f3f022441" x="47.307188" y="166.804472" style="stroke: #000000; stroke-width: 0.8"/>
      </g>
     </g>
     <g id="text_14">
      <!-- 2.0 -->
      <g transform="translate(22.81375 170.983612) scale(0.11 -0.11)">
       <use xlink:href="#DejaVuSans-32"/>
       <use xlink:href="#DejaVuSans-2e" transform="translate(63.623047 0)"/>
       <use xlink:href="#DejaVuSans-30" transform="translate(95.410156 0)"/>
      </g>
     </g>
    </g>
    <g id="ytick_6">
     <g id="line2d_27">
      <path d="M 47.307188 116.570227 
L 705.637188 116.570227 
" clip-path="url(#p6a501526ea)" style="fill: none; stroke: #b0b0b0; stroke-opacity: 0.2; stroke-width: 0.6; stroke-linecap: square"/>
     </g>
     <g id="line2d_28">
      <g>
       <use xlink:href="#m4f3f022441" x="47.307188" y="116.570227" style="stroke: #000000; stroke-width: 0.8"/>
      </g>
     </g>
     <g id="text_15">
      <!-- 2.5 -->
      <g transform="translate(22.81375 120.749368) scale(0.11 -0.11)">
       <use xlink:href="#DejaVuSans-32"/>
       <use xlink:href="#DejaVuSans-2e" transform="translate(63.623047 0)"/>
       <use xlink:href="#DejaVuSans-35" transform="translate(95.410156 0)"/>
      </g>
     </g>
    </g>
    <g id="ytick_7">
     <g id="line2d_29">
      <path d="M 47.307188 66.335983 
L 705.637188 66.335983 
" clip-path="url(#p6a501526ea)" style="fill: none; stroke: #b0b0b0; stroke-opacity: 0.2; stroke-width: 0.6; stroke-linecap: square"/>
     </g>
     <g id="line2d_30">
      <g>
       <use xlink:href="#m4f3f022441" x="47.307188" y="66.335983" style="stroke: #000000; stroke-width: 0.8"/>
      </g>
     </g>
     <g id="text_16">
      <!-- 3.0 -->
      <g transform="translate(22.81375 70.515124) scale(0.11 -0.11)">
       <defs>
        <path id="DejaVuSans-33" d="M 2597 2516 
Q 3050 2419 3304 2112 
Q 3559 1806 3559 1356 
Q 3559 666 3084 287 
Q 2609 -91 1734 -91 
Q 1441 -91 1130 -33 
Q 819 25 488 141 
L 488 750 
Q 750 597 1062 519 
Q 1375 441 1716 441 
Q 2309 441 2620 675 
Q 2931 909 2931 1356 
Q 2931 1769 2642 2001 
Q 2353 2234 1838 2234 
L 1294 2234 
L 1294 2753 
L 1863 2753 
Q 2328 2753 2575 2939 
Q 2822 3125 2822 3475 
Q 2822 3834 2567 4026 
Q 2313 4219 1838 4219 
Q 1578 4219 1281 4162 
Q 984 4106 628 3988 
L 628 4550 
Q 988 4650 1302 4700 
Q 1616 4750 1894 4750 
Q 2613 4750 3031 4423 
Q 3450 4097 3450 3541 
Q 3450 3153 3228 2886 
Q 3006 2619 2597 2516 
z
" transform="scale(0.015625)"/>
       </defs>
       <use xlink:href="#DejaVuSans-33"/>
       <use xlink:href="#DejaVuSans-2e" transform="translate(63.623047 0)"/>
       <use xlink:href="#DejaVuSans-30" transform="translate(95.410156 0)"/>
      </g>
     </g>
    </g>
    <g id="text_17">
     <!-- AU mean intensity -->
     <g transform="translate(16.318125 259.314687) rotate(-90) scale(0.12 -0.12)">
      <defs>
       <path id="DejaVuSans-41" d="M 2188 4044 
L 1331 1722 
L 3047 1722 
L 2188 4044 
z
M 1831 4666 
L 2547 4666 
L 4325 0 
L 3669 0 
L 3244 1197 
L 1141 1197 
L 716 0 
L 50 0 
L 1831 4666 
z
" transform="scale(0.015625)"/>
       <path id="DejaVuSans-55" d="M 556 4666 
L 1191 4666 
L 1191 1831 
Q 1191 1081 1462 751 
Q 1734 422 2344 422 
Q 2950 422 3222 751 
Q 3494 1081 3494 1831 
L 3494 4666 
L 4128 4666 
L 4128 1753 
Q 4128 841 3676 375 
Q 3225 -91 2344 -91 
Q 1459 -91 1007 375 
Q 556 841 556 1753 
L 556 4666 
z
" transform="scale(0.015625)"/>
       <path id="DejaVuSans-61" d="M 2194 1759 
Q 1497 1759 1228 1600 
Q 959 1441 959 1056 
Q 959 750 1161 570 
Q 1363 391 1709 391 
Q 2188 391 2477 730 
Q 2766 1069 2766 1631 
L 2766 1759 
L 2194 1759 
z
M 3341 1997 
L 3341 0 
L 2766 0 
L 2766 531 
Q 2569 213 2275 61 
Q 1981 -91 1556 -91 
Q 1019 -91 701 211 
Q 384 513 384 1019 
Q 384 1609 779 1909 
Q 1175 2209 1959 2209 
L 2766 2209 
L 2766 2266 
Q 2766 2663 2505 2880 
Q 2244 3097 1772 3097 
Q 1472 3097 1187 3025 
Q 903 2953 641 2809 
L 641 3341 
Q 956 3463 1253 3523 
Q 1550 3584 1831 3584 
Q 2591 3584 2966 3190 
Q 3341 2797 3341 1997 
z
" transform="scale(0.015625)"/>
       <path id="DejaVuSans-6e" d="M 3513 2113 
L 3513 0 
L 2938 0 
L 2938 2094 
Q 2938 2591 2744 2837 
Q 2550 3084 2163 3084 
Q 1697 3084 1428 2787 
Q 1159 2491 1159 1978 
L 1159 0 
L 581 0 
L 581 3500 
L 1159 3500 
L 1159 2956 
Q 1366 3272 1645 3428 
Q 1925 3584 2291 3584 
Q 2894 3584 3203 3211 
Q 3513 2838 3513 2113 
z
" transform="scale(0.015625)"/>
       <path id="DejaVuSans-74" d="M 1172 4494 
L 1172 3500 
L 2356 3500 
L 2356 3053 
L 1172 3053 
L 1172 1153 
Q 1172 725 1289 603 
Q 1406 481 1766 481 
L 2356 481 
L 2356 0 
L 1766 0 
Q 1100 0 847 248 
Q 594 497 594 1153 
L 594 3053 
L 172 3053 
L 172 3500 
L 594 3500 
L 594 4494 
L 1172 4494 
z
" transform="scale(0.015625)"/>
       <path id="DejaVuSans-79" d="M 2059 -325 
Q 1816 -950 1584 -1140 
Q 1353 -1331 966 -1331 
L 506 -1331 
L 506 -850 
L 844 -850 
Q 1081 -850 1212 -737 
Q 1344 -625 1503 -206 
L 1606 56 
L 191 3500 
L 800 3500 
L 1894 763 
L 2988 3500 
L 3597 3500 
L 2059 -325 
z
" transform="scale(0.015625)"/>
      </defs>
      <use xlink:href="#DejaVuSans-41"/>
      <use xlink:href="#DejaVuSans-55" transform="translate(68.408203 0)"/>
      <use xlink:href="#DejaVuSans-20" transform="translate(141.601562 0)"/>
      <use xlink:href="#DejaVuSans-6d" transform="translate(173.388672 0)"/>
      <use xlink:href="#DejaVuSans-65" transform="translate(270.800781 0)"/>
      <use xlink:href="#DejaVuSans-61" transform="translate(332.324219 0)"/>
      <use xlink:href="#DejaVuSans-6e" transform="translate(393.603516 0)"/>
      <use xlink:href="#DejaVuSans-20" transform="translate(456.982422 0)"/>
      <use xlink:href="#DejaVuSans-69" transform="translate(488.769531 0)"/>
      <use xlink:href="#DejaVuSans-6e" transform="translate(516.552734 0)"/>
      <use xlink:href="#DejaVuSans-74" transform="translate(579.931641 0)"/>
      <use xlink:href="#DejaVuSans-65" transform="translate(619.140625 0)"/>
      <use xlink:href="#DejaVuSans-6e" transform="translate(680.664062 0)"/>
      <use xlink:href="#DejaVuSans-73" transform="translate(744.042969 0)"/>
      <use xlink:href="#DejaVuSans-69" transform="translate(796.142578 0)"/>
      <use xlink:href="#DejaVuSans-74" transform="translate(823.925781 0)"/>
      <use xlink:href="#DejaVuSans-79" transform="translate(863.134766 0)"/>
     </g>
    </g>
   </g>
   <g id="FillBetweenPolyCollection_1">
    <defs>
     <path id="mfe33fc572c" d="M 47.307188 -107.48928 
L 47.307188 -37.908887 
L 50.790415 -37.22966 
L 54.273643 -10.254238 
L 57.75687 -3.859699 
L 61.240098 -5.925866 
L 64.723325 -36.459064 
L 68.206553 -36.778007 
L 71.68978 -35.782137 
L 75.173008 -32.480324 
L 78.656235 -34.132588 
L 82.139463 -30.235421 
L 85.62269 -28.586817 
L 89.105918 -26.402134 
L 92.589145 -21.817105 
L 96.072373 -26.187166 
L 99.5556 -37.333218 
L 103.038828 -35.382002 
L 106.522055 -32.31742 
L 110.005283 -33.676064 
L 113.48851 -36.936866 
L 116.971738 -35.695027 
L 120.454965 -27.406371 
L 123.938193 -30.99584 
L 127.42142 -30.164231 
L 130.904648 -30.841054 
L 134.387875 -35.009194 
L 137.871103 -34.363941 
L 141.35433 -32.701317 
L 144.837558 -27.749075 
L 148.320785 -26.876857 
L 151.804013 -23.27941 
L 155.28724 -23.013404 
L 158.770468 -26.11587 
L 162.253695 -25.047591 
L 165.736923 -27.819157 
L 169.22015 -24.131992 
L 172.703378 -26.347022 
L 176.186605 -26.486725 
L 179.669833 -27.673978 
L 183.153061 -17.51044 
L 186.636288 -14.977899 
L 190.119516 -25.33502 
L 193.602743 2.975955 
L 197.085971 14.836005 
L 200.569198 10.233117 
L 204.052426 15.929202 
L 207.535653 1.557743 
L 211.018881 -6.87327 
L 214.502108 -13.190631 
L 217.985336 -5.416259 
L 221.468563 4.630692 
L 224.951791 -15.130511 
L 228.435018 -8.219758 
L 231.918246 -8.704892 
L 235.401473 -23.174914 
L 238.884701 -30.843954 
L 242.367928 -7.939147 
L 245.851156 -5.594085 
L 249.334383 -6.021272 
L 252.817611 -28.052496 
L 256.300838 -19.138222 
L 259.784066 -6.177229 
L 263.267293 -1.704608 
L 266.750521 -4.400848 
L 270.233748 -0.300683 
L 273.716976 35.579139 
L 277.200203 29.35864 
L 280.683431 15.808828 
L 284.166658 19.624283 
L 287.649886 11.427212 
L 291.133113 -5.909098 
L 294.616341 -11.168608 
L 298.099568 -9.153449 
L 301.582796 -20.001134 
L 305.066023 -27.309493 
L 308.549251 -31.343254 
L 312.032479 -27.306107 
L 315.515706 -16.723494 
L 318.998934 -13.039507 
L 322.482161 -14.192499 
L 325.965389 -12.00304 
L 329.448616 9.943071 
L 332.931844 11.509616 
L 336.415071 15.940718 
L 339.898299 7.062048 
L 343.381526 -11.360825 
L 346.864754 -15.066018 
L 350.347981 -20.131927 
L 353.831209 -22.635011 
L 357.314436 -21.422264 
L 360.797664 -15.112214 
L 364.280891 -15.09842 
L 367.764119 -9.048549 
L 371.247346 34.452643 
L 374.730574 34.427624 
L 378.213801 18.380005 
L 381.697029 -12.591231 
L 385.180256 -9.057763 
L 388.663484 -12.325173 
L 392.146711 -11.650612 
L 395.629939 5.925596 
L 399.113166 0.760439 
L 402.596394 9.691757 
L 406.079621 9.627187 
L 409.562849 0.845153 
L 413.046076 -6.287396 
L 416.529304 53.476934 
L 420.012531 35.533635 
L 423.495759 9.637981 
L 426.978986 -9.168938 
L 430.462214 12.977837 
L 433.945441 -0.872651 
L 437.428669 -7.431294 
L 440.911896 -13.582761 
L 444.395124 -19.238495 
L 447.878352 16.14005 
L 451.361579 16.192418 
L 454.844807 22.815553 
L 458.328034 -6.131691 
L 461.811262 11.38333 
L 465.294489 42.346318 
L 468.777717 48.0341 
L 472.260944 16.083014 
L 475.744172 46.194149 
L 479.227399 34.538695 
L 482.710627 30.411144 
L 486.193854 40.780963 
L 489.677082 39.583068 
L 493.160309 8.081109 
L 496.643537 32.840187 
L 500.126764 47.363895 
L 503.609992 46.89985 
L 507.093219 -11.094132 
L 510.576447 -16.877364 
L 514.059674 -10.149167 
L 517.542902 -17.043108 
L 521.026129 -13.251233 
L 524.509357 -22.686569 
L 527.992584 -22.420558 
L 531.475812 -17.463767 
L 534.959039 -17.138601 
L 538.442267 15.714855 
L 541.925494 -12.792479 
L 545.408722 -24.035585 
L 548.891949 -3.999683 
L 552.375177 -6.09447 
L 555.858404 -13.114762 
L 559.341632 -23.027014 
L 562.824859 -25.812134 
L 566.308087 13.597715 
L 569.791314 28.870211 
L 573.274542 29.632861 
L 576.75777 6.188782 
L 580.240997 -7.979511 
L 583.724225 -27.641175 
L 587.207452 -16.636469 
L 590.69068 -1.881174 
L 594.173907 2.126438 
L 597.657135 17.746504 
L 601.140362 27.303337 
L 604.62359 15.185626 
L 608.106817 1.248077 
L 611.590045 -2.015035 
L 615.073272 17.866811 
L 618.5565 2.844131 
L 622.039727 -22.133706 
L 625.522955 -15.787923 
L 629.006182 12.523632 
L 632.48941 6.704328 
L 635.972637 -1.82069 
L 639.455865 -13.521361 
L 642.939092 -5.287571 
L 646.42232 -19.578455 
L 649.905547 -19.407038 
L 653.388775 -19.248792 
L 656.872002 4.950928 
L 660.35523 -0.926145 
L 663.838457 -7.112162 
L 667.321685 -6.175456 
L 670.804912 15.055234 
L 674.28814 3.335445 
L 677.771367 28.368916 
L 681.254595 11.966042 
L 684.737822 -33.136726 
L 688.22105 -6.702526 
L 691.704277 -7.642739 
L 695.187505 1.168901 
L 698.670732 11.528472 
L 702.15396 7.251919 
L 705.637188 13.833409 
L 705.637188 -241.331589 
L 705.637188 -241.331589 
L 702.15396 -221.177799 
L 698.670732 -214.418324 
L 695.187505 -213.814618 
L 691.704277 -206.632099 
L 688.22105 -204.371345 
L 684.737822 -144.92182 
L 681.254595 -220.013705 
L 677.771367 -249.966694 
L 674.28814 -216.519964 
L 670.804912 -240.572149 
L 667.321685 -195.410625 
L 663.838457 -180.352313 
L 660.35523 -186.586245 
L 656.872002 -198.651378 
L 653.388775 -168.713276 
L 649.905547 -154.459547 
L 646.42232 -167.994703 
L 642.939092 -225.516931 
L 639.455865 -227.03677 
L 635.972637 -227.160655 
L 632.48941 -247.197642 
L 629.006182 -242.310458 
L 625.522955 -185.222894 
L 622.039727 -166.941729 
L 618.5565 -221.748873 
L 615.073272 -250.615725 
L 611.590045 -235.719446 
L 608.106817 -226.163047 
L 604.62359 -270.271177 
L 601.140362 -286.572467 
L 597.657135 -238.907736 
L 594.173907 -204.44466 
L 590.69068 -185.339534 
L 587.207452 -166.506129 
L 583.724225 -138.708015 
L 580.240997 -187.33623 
L 576.75777 -203.614333 
L 573.274542 -229.183868 
L 569.791314 -233.19892 
L 566.308087 -201.975934 
L 562.824859 -138.511481 
L 559.341632 -153.307977 
L 555.858404 -175.114681 
L 552.375177 -194.175407 
L 548.891949 -198.749077 
L 545.408722 -162.441528 
L 541.925494 -182.773595 
L 538.442267 -223.991897 
L 534.959039 -170.718137 
L 531.475812 -168.48935 
L 527.992584 -154.396799 
L 524.509357 -157.939986 
L 521.026129 -201.436263 
L 517.542902 -188.349795 
L 514.059674 -193.110038 
L 510.576447 -163.134255 
L 507.093219 -173.00314 
L 503.609992 -311.595145 
L 500.126764 -328.838629 
L 496.643537 -300.449935 
L 493.160309 -243.072963 
L 489.677082 -302.784327 
L 486.193854 -325.780197 
L 482.710627 -290.264897 
L 479.227399 -299.201162 
L 475.744172 -313.933813 
L 472.260944 -225.710626 
L 468.777717 -295.658413 
L 465.294489 -287.749624 
L 461.811262 -212.952368 
L 458.328034 -177.661744 
L 454.844807 -231.270147 
L 451.361579 -208.367681 
L 447.878352 -212.720308 
L 444.395124 -142.638227 
L 440.911896 -144.602944 
L 437.428669 -168.604192 
L 433.945441 -193.187233 
L 430.462214 -206.250961 
L 426.978986 -178.997084 
L 423.495759 -223.486889 
L 420.012531 -241.208023 
L 416.529304 -268.674875 
L 413.046076 -174.564347 
L 409.562849 -160.987982 
L 406.079621 -169.441174 
L 402.596394 -167.387692 
L 399.113166 -156.41711 
L 395.629939 -175.807387 
L 392.146711 -158.794847 
L 388.663484 -169.252284 
L 385.180256 -177.843741 
L 381.697029 -170.886215 
L 378.213801 -230.762397 
L 374.730574 -254.875854 
L 371.247346 -244.769369 
L 367.764119 -174.627404 
L 364.280891 -150.916899 
L 360.797664 -148.781979 
L 357.314436 -147.096106 
L 353.831209 -147.271086 
L 350.347981 -151.647338 
L 346.864754 -160.06201 
L 343.381526 -170.101524 
L 339.898299 -212.56559 
L 336.415071 -224.018555 
L 332.931844 -218.038098 
L 329.448616 -231.532188 
L 325.965389 -218.471783 
L 322.482161 -168.750894 
L 318.998934 -150.757459 
L 315.515706 -154.267613 
L 312.032479 -138.804064 
L 308.549251 -154.064215 
L 305.066023 -160.028698 
L 301.582796 -161.279333 
L 298.099568 -176.223986 
L 294.616341 -167.898953 
L 291.133113 -183.977266 
L 287.649886 -217.876766 
L 284.166658 -233.740567 
L 280.683431 -220.054139 
L 277.200203 -230.418072 
L 273.716976 -238.083573 
L 270.233748 -179.267404 
L 266.750521 -175.342277 
L 263.267293 -164.352898 
L 259.784066 -159.877064 
L 256.300838 -142.118674 
L 252.817611 -120.696967 
L 249.334383 -155.085731 
L 245.851156 -142.566424 
L 242.367928 -155.007078 
L 238.884701 -111.145538 
L 235.401473 -127.370744 
L 231.918246 -154.149133 
L 228.435018 -154.45909 
L 224.951791 -141.535175 
L 221.468563 -175.513117 
L 217.985336 -154.722519 
L 214.502108 -146.915738 
L 211.018881 -157.323222 
L 207.535653 -171.585376 
L 204.052426 -202.951962 
L 200.569198 -185.284174 
L 197.085971 -189.365162 
L 193.602743 -164.001935 
L 190.119516 -123.864819 
L 186.636288 -137.244935 
L 183.153061 -133.923956 
L 179.669833 -130.751165 
L 176.186605 -129.949443 
L 172.703378 -127.921642 
L 169.22015 -129.970016 
L 165.736923 -122.216056 
L 162.253695 -129.695337 
L 158.770468 -133.078991 
L 155.28724 -137.649369 
L 151.804013 -136.758089 
L 148.320785 -132.001735 
L 144.837558 -122.314496 
L 141.35433 -115.502497 
L 137.871103 -118.162729 
L 134.387875 -112.458429 
L 130.904648 -123.618014 
L 127.42142 -128.71003 
L 123.938193 -131.585781 
L 120.454965 -134.637844 
L 116.971738 -117.568952 
L 113.48851 -120.092585 
L 110.005283 -138.502728 
L 106.522055 -143.333346 
L 103.038828 -141.544737 
L 99.5556 -133.98268 
L 96.072373 -140.559036 
L 92.589145 -142.916374 
L 89.105918 -140.785643 
L 85.62269 -137.220636 
L 82.139463 -137.669409 
L 78.656235 -129.687148 
L 75.173008 -131.875701 
L 71.68978 -122.581121 
L 68.206553 -119.103014 
L 64.723325 -123.8053 
L 61.240098 -179.516387 
L 57.75687 -172.418995 
L 54.273643 -156.694522 
L 50.790415 -107.193595 
L 47.307188 -107.48928 
z
" style="stroke: #d3d3d3; stroke-opacity: 0.5"/>
    </defs>
    <g clip-path="url(#p6a501526ea)">
     <use xlink:href="#mfe33fc572c" x="0" y="424.5775" style="fill: #d3d3d3; fill-opacity: 0.5; stroke: #d3d3d3; stroke-opacity: 0.5"/>
    </g>
   </g>
   <g id="FillBetweenPolyCollection_2">
    <defs>
     <path id="mb6cc284388" d="M 47.307188 -90.094182 
L 47.307188 -55.303985 
L 50.790415 -54.720644 
L 54.273643 -46.864309 
L 57.75687 -45.999523 
L 61.240098 -49.323496 
L 64.723325 -58.295623 
L 68.206553 -57.359259 
L 71.68978 -57.481883 
L 75.173008 -57.329168 
L 78.656235 -58.021228 
L 82.139463 -57.093918 
L 85.62269 -55.745272 
L 89.105918 -54.998011 
L 92.589145 -52.091923 
L 96.072373 -54.780133 
L 99.5556 -61.495583 
L 103.038828 -61.922686 
L 106.522055 -60.071402 
L 110.005283 -59.88273 
L 113.48851 -57.725796 
L 116.971738 -56.163508 
L 120.454965 -54.214239 
L 123.938193 -56.143325 
L 127.42142 -54.800681 
L 130.904648 -54.035294 
L 134.387875 -54.371503 
L 137.871103 -55.313638 
L 141.35433 -53.401612 
L 144.837558 -51.39043 
L 148.320785 -53.158076 
L 151.804013 -51.64908 
L 155.28724 -51.672396 
L 158.770468 -52.85665 
L 162.253695 -51.209527 
L 165.736923 -51.418382 
L 169.22015 -50.591498 
L 172.703378 -51.740677 
L 176.186605 -52.352404 
L 179.669833 -53.443274 
L 183.153061 -46.613819 
L 186.636288 -45.544658 
L 190.119516 -49.967469 
L 193.602743 -38.768517 
L 197.085971 -36.214287 
L 200.569198 -38.646206 
L 204.052426 -38.791089 
L 207.535653 -41.728036 
L 211.018881 -44.485758 
L 214.502108 -46.621908 
L 217.985336 -42.742824 
L 221.468563 -40.40526 
L 224.951791 -46.731677 
L 228.435018 -44.779591 
L 231.918246 -45.065953 
L 235.401473 -49.223872 
L 238.884701 -50.91935 
L 242.367928 -44.706129 
L 245.851156 -39.83717 
L 249.334383 -43.287387 
L 252.817611 -51.213613 
L 256.300838 -49.883335 
L 259.784066 -44.602188 
L 263.267293 -42.366681 
L 266.750521 -47.136205 
L 270.233748 -45.042364 
L 273.716976 -32.836539 
L 277.200203 -35.585538 
L 280.683431 -43.156914 
L 284.166658 -43.716929 
L 287.649886 -45.898783 
L 291.133113 -50.42614 
L 294.616341 -50.351194 
L 298.099568 -50.921083 
L 301.582796 -55.320683 
L 305.066023 -60.489294 
L 308.549251 -62.023494 
L 312.032479 -55.180596 
L 315.515706 -51.109524 
L 318.998934 -47.468995 
L 322.482161 -52.832098 
L 325.965389 -63.620225 
L 329.448616 -50.425743 
L 332.931844 -45.877313 
L 336.415071 -44.0491 
L 339.898299 -47.844861 
L 343.381526 -51.046 
L 346.864754 -51.315016 
L 350.347981 -53.01078 
L 353.831209 -53.79403 
L 357.314436 -52.840724 
L 360.797664 -48.529655 
L 364.280891 -49.053039 
L 367.764119 -50.443262 
L 371.247346 -35.35286 
L 374.730574 -37.898245 
L 378.213801 -43.905596 
L 381.697029 -52.164977 
L 385.180256 -51.254258 
L 388.663484 -51.556951 
L 392.146711 -48.436671 
L 395.629939 -39.50765 
L 399.113166 -38.533948 
L 402.596394 -34.578106 
L 406.079621 -35.139904 
L 409.562849 -39.613131 
L 413.046076 -48.356634 
L 416.529304 -27.061018 
L 420.012531 -33.65178 
L 423.495759 -48.643237 
L 426.978986 -51.625975 
L 430.462214 -41.829363 
L 433.945441 -48.951297 
L 437.428669 -47.724518 
L 440.911896 -46.337807 
L 444.395124 -50.088428 
L 447.878352 -41.075039 
L 451.361579 -39.947607 
L 454.844807 -40.705872 
L 458.328034 -49.014205 
L 461.811262 -44.700595 
L 465.294489 -40.177667 
L 468.777717 -37.889028 
L 472.260944 -44.365396 
L 475.744172 -43.837841 
L 479.227399 -48.896269 
L 482.710627 -49.757866 
L 486.193854 -50.859327 
L 489.677082 -46.008781 
L 493.160309 -54.707409 
L 496.643537 -50.482343 
L 500.126764 -46.686736 
L 503.609992 -42.723898 
L 507.093219 -51.571384 
L 510.576447 -53.441587 
L 514.059674 -55.889385 
L 517.542902 -59.86978 
L 521.026129 -60.29749 
L 524.509357 -56.499923 
L 527.992584 -55.414619 
L 531.475812 -55.220163 
L 534.959039 -55.533485 
L 538.442267 -44.211833 
L 541.925494 -55.287758 
L 545.408722 -58.63707 
L 548.891949 -52.687032 
L 552.375177 -53.114704 
L 555.858404 -53.614742 
L 559.341632 -55.597255 
L 562.824859 -53.986971 
L 566.308087 -40.295697 
L 569.791314 -36.647072 
L 573.274542 -35.071321 
L 576.75777 -46.261997 
L 580.240997 -52.818691 
L 583.724225 -55.407885 
L 587.207452 -54.103884 
L 590.69068 -47.745764 
L 594.173907 -49.516336 
L 597.657135 -46.417056 
L 601.140362 -51.165614 
L 604.62359 -56.178575 
L 608.106817 -55.604704 
L 611.590045 -60.441138 
L 615.073272 -49.253823 
L 618.5565 -53.30412 
L 622.039727 -58.335712 
L 625.522955 -58.146666 
L 629.006182 -51.18489 
L 632.48941 -56.771164 
L 635.972637 -58.155682 
L 639.455865 -66.900214 
L 642.939092 -60.344911 
L 646.42232 -56.682517 
L 649.905547 -53.170165 
L 653.388775 -56.614913 
L 656.872002 -45.949649 
L 660.35523 -47.34117 
L 663.838457 -50.4222 
L 667.321685 -53.484248 
L 670.804912 -48.851612 
L 674.28814 -51.628408 
L 677.771367 -41.214987 
L 681.254595 -46.028895 
L 684.737822 -61.082999 
L 688.22105 -56.119731 
L 691.704277 -57.390079 
L 695.187505 -52.576979 
L 698.670732 -44.958227 
L 702.15396 -49.855511 
L 705.637188 -49.95784 
L 705.637188 -177.540339 
L 705.637188 -177.540339 
L 702.15396 -164.070369 
L 698.670732 -157.931625 
L 695.187505 -160.068738 
L 691.704277 -156.884759 
L 688.22105 -154.95414 
L 684.737822 -116.975546 
L 681.254595 -162.018769 
L 677.771367 -180.382791 
L 674.28814 -161.556112 
L 670.804912 -176.665303 
L 667.321685 -148.101832 
L 663.838457 -137.042275 
L 660.35523 -140.17122 
L 656.872002 -147.750801 
L 653.388775 -131.347155 
L 649.905547 -120.696419 
L 646.42232 -130.890641 
L 642.939092 -170.459591 
L 639.455865 -173.657918 
L 635.972637 -170.825664 
L 632.48941 -183.722149 
L 629.006182 -178.601935 
L 625.522955 -142.864152 
L 622.039727 -130.739723 
L 618.5565 -165.600622 
L 615.073272 -183.495091 
L 611.590045 -177.293343 
L 608.106817 -169.310266 
L 604.62359 -198.906976 
L 601.140362 -208.103516 
L 597.657135 -174.744176 
L 594.173907 -152.801885 
L 590.69068 -139.474944 
L 587.207452 -129.038714 
L 583.724225 -110.941305 
L 580.240997 -142.49705 
L 576.75777 -151.163554 
L 573.274542 -164.479686 
L 569.791314 -167.681637 
L 566.308087 -148.082521 
L 562.824859 -110.336644 
L 559.341632 -120.737736 
L 555.858404 -134.614702 
L 552.375177 -147.155173 
L 548.891949 -150.061729 
L 545.408722 -127.840042 
L 541.925494 -140.278316 
L 538.442267 -164.065209 
L 534.959039 -132.323253 
L 531.475812 -130.732954 
L 527.992584 -121.402739 
L 524.509357 -124.126632 
L 521.026129 -154.390005 
L 517.542902 -145.523124 
L 514.059674 -147.369821 
L 510.576447 -126.570032 
L 507.093219 -132.525888 
L 503.609992 -221.971396 
L 500.126764 -234.787998 
L 496.643537 -217.127404 
L 493.160309 -180.284445 
L 489.677082 -217.192478 
L 486.193854 -234.139907 
L 482.710627 -210.095887 
L 479.227399 -215.766198 
L 475.744172 -223.901822 
L 472.260944 -165.262216 
L 468.777717 -209.735285 
L 465.294489 -205.225638 
L 461.811262 -156.868443 
L 458.328034 -134.779231 
L 454.844807 -167.748722 
L 451.361579 -152.227656 
L 447.878352 -155.505219 
L 444.395124 -111.788294 
L 440.911896 -111.847899 
L 437.428669 -128.310968 
L 433.945441 -145.108588 
L 430.462214 -151.443761 
L 426.978986 -136.540047 
L 423.495759 -165.205671 
L 420.012531 -172.022609 
L 416.529304 -188.136922 
L 413.046076 -132.495109 
L 409.562849 -120.529698 
L 406.079621 -124.674084 
L 402.596394 -123.11783 
L 399.113166 -117.122723 
L 395.629939 -130.374141 
L 392.146711 -122.008788 
L 388.663484 -130.020507 
L 385.180256 -135.647247 
L 381.697029 -131.312469 
L 378.213801 -168.476797 
L 374.730574 -182.549984 
L 371.247346 -174.963866 
L 367.764119 -133.23269 
L 364.280891 -116.962279 
L 360.797664 -115.364538 
L 357.314436 -115.677646 
L 353.831209 -116.112068 
L 350.347981 -118.768485 
L 346.864754 -123.813012 
L 343.381526 -130.416349 
L 339.898299 -157.65868 
L 336.415071 -164.028737 
L 332.931844 -160.65117 
L 329.448616 -171.163373 
L 325.965389 -166.854597 
L 322.482161 -130.111295 
L 318.998934 -116.327971 
L 315.515706 -119.881583 
L 312.032479 -110.929575 
L 308.549251 -123.383975 
L 305.066023 -126.848897 
L 301.582796 -125.959783 
L 298.099568 -134.456351 
L 294.616341 -128.716367 
L 291.133113 -139.460224 
L 287.649886 -160.550772 
L 284.166658 -170.399355 
L 280.683431 -161.088397 
L 277.200203 -165.473894 
L 273.716976 -169.667895 
L 270.233748 -134.525724 
L 266.750521 -132.60692 
L 263.267293 -123.690826 
L 259.784066 -121.452106 
L 256.300838 -111.373561 
L 252.817611 -97.535849 
L 249.334383 -117.819616 
L 245.851156 -108.323339 
L 242.367928 -118.240095 
L 238.884701 -91.070142 
L 235.401473 -101.321786 
L 231.918246 -117.788073 
L 228.435018 -117.899257 
L 224.951791 -109.934009 
L 221.468563 -130.477165 
L 217.985336 -117.395954 
L 214.502108 -113.484461 
L 211.018881 -119.710734 
L 207.535653 -128.299596 
L 204.052426 -148.231671 
L 200.569198 -136.404851 
L 197.085971 -138.31487 
L 193.602743 -122.257463 
L 190.119516 -99.232369 
L 186.636288 -106.678176 
L 183.153061 -104.820577 
L 179.669833 -104.981868 
L 176.186605 -104.083764 
L 172.703378 -102.527987 
L 169.22015 -103.51051 
L 165.736923 -98.616831 
L 162.253695 -103.5334 
L 158.770468 -106.338211 
L 155.28724 -108.990378 
L 151.804013 -108.388419 
L 148.320785 -105.720515 
L 144.837558 -98.673141 
L 141.35433 -94.802202 
L 137.871103 -97.213032 
L 134.387875 -93.09612 
L 130.904648 -100.423774 
L 127.42142 -104.07358 
L 123.938193 -106.438295 
L 120.454965 -107.829976 
L 116.971738 -97.100471 
L 113.48851 -99.303656 
L 110.005283 -112.296062 
L 106.522055 -115.579365 
L 103.038828 -115.004053 
L 99.5556 -109.820314 
L 96.072373 -111.966068 
L 92.589145 -112.641557 
L 89.105918 -112.189766 
L 85.62269 -110.062181 
L 82.139463 -110.810912 
L 78.656235 -105.798508 
L 75.173008 -107.026856 
L 71.68978 -100.881375 
L 68.206553 -98.521762 
L 64.723325 -101.968741 
L 61.240098 -136.118757 
L 57.75687 -130.279171 
L 54.273643 -120.084451 
L 50.790415 -89.702611 
L 47.307188 -90.094182 
z
" style="stroke: #808080; stroke-opacity: 0.7"/>
    </defs>
    <g clip-path="url(#p6a501526ea)">
     <use xlink:href="#mb6cc284388" x="0" y="424.5775" style="fill: #808080; fill-opacity: 0.7; stroke: #808080; stroke-opacity: 0.7"/>
    </g>
   </g>
   <g id="line2d_31">
    <path d="M 47.307188 343.479003 
L 50.790415 344.539606 
L 54.273643 338.769314 
L 57.75687 327.972168 
L 61.240098 355.167377 
L 64.723325 354.304571 
L 68.206553 354.710849 
L 71.68978 361.504278 
L 75.173008 361.114309 
L 78.656235 357.303431 
L 82.139463 354.278319 
L 85.62269 356.019526 
L 89.105918 358.773377 
L 92.589145 358.85122 
L 96.072373 356.279071 
L 99.5556 361.04174 
L 103.038828 357.070479 
L 106.522055 363.218096 
L 110.005283 363.119811 
L 113.48851 358.663846 
L 116.971738 362.416174 
L 120.454965 365.688469 
L 123.938193 364.04044 
L 127.42142 365.254115 
L 130.904648 366.225103 
L 134.387875 363.770907 
L 137.871103 361.511992 
L 141.35433 365.475759 
L 144.837558 366.70898 
L 148.320785 365.712877 
L 151.804013 362.34606 
L 155.28724 367.285997 
L 158.770468 366.350216 
L 162.253695 350.982554 
L 165.736923 345.649541 
L 169.22015 360.570971 
L 172.703378 367.741449 
L 179.669833 367.741449 
L 183.153061 367.037983 
L 186.636288 364.391363 
L 190.119516 366.82351 
L 193.602743 360.812649 
L 197.085971 359.818429 
L 200.569198 361.60783 
L 204.052426 354.914049 
L 207.535653 348.923967 
L 211.018881 335.462112 
L 214.502108 270.682632 
L 217.985336 342.579691 
L 221.468563 366.236694 
L 224.951791 366.717477 
L 228.435018 366.234587 
L 231.918246 366.04282 
L 235.401473 364.217113 
L 238.884701 358.077907 
L 245.851156 361.994489 
L 249.334383 360.747835 
L 252.817611 359.945094 
L 256.300838 339.830651 
L 259.784066 357.656364 
L 263.267293 362.728189 
L 266.750521 366.535347 
L 270.233748 367.633849 
L 273.716976 367.625148 
L 277.200203 367.43431 
L 280.683431 335.435338 
L 284.166658 334.709587 
L 287.649886 336.345844 
L 291.133113 345.373266 
L 294.616341 343.817277 
L 298.099568 332.901037 
L 301.582796 326.437122 
L 305.066023 334.921237 
L 308.549251 320.619875 
L 312.032479 326.33806 
L 315.515706 303.561775 
L 318.998934 291.806646 
L 322.482161 310.521812 
L 325.965389 312.81867 
L 329.448616 329.15707 
L 332.931844 331.259472 
L 336.415071 329.78989 
L 339.898299 339.097815 
L 343.381526 334.414124 
L 346.864754 336.137966 
L 350.347981 333.46608 
L 353.831209 337.633796 
L 357.314436 321.64638 
L 360.797664 247.603756 
L 364.280891 303.947784 
L 367.764119 321.121734 
L 371.247346 307.05159 
L 374.730574 316.823247 
L 378.213801 325.156494 
L 381.697029 332.682726 
L 385.180256 348.458591 
L 388.663484 309.668305 
L 392.146711 332.74293 
L 395.629939 325.584318 
L 399.113166 334.065855 
L 402.596394 319.225369 
L 406.079621 306.293818 
L 409.562849 327.120165 
L 413.046076 318.249363 
L 416.529304 336.365666 
L 420.012531 311.808365 
L 423.495759 299.825658 
L 426.978986 326.197736 
L 430.462214 305.776097 
L 433.945441 275.943149 
L 437.428669 314.234995 
L 440.911896 327.928679 
L 444.395124 367.43023 
L 447.878352 337.85797 
L 451.361579 325.782512 
L 454.844807 295.497228 
L 458.328034 337.895887 
L 461.811262 332.036357 
L 465.294489 338.785304 
L 468.777717 286.290338 
L 472.260944 259.940109 
L 475.744172 242.994247 
L 479.227399 248.323768 
L 482.710627 260.398364 
L 486.193854 246.445794 
L 489.677082 289.927654 
L 493.160309 287.447223 
L 496.643537 288.783505 
L 500.126764 283.079865 
L 503.609992 303.56568 
L 507.093219 276.7274 
L 510.576447 267.272968 
L 514.059674 286.975656 
L 517.542902 288.480722 
L 521.026129 255.422228 
L 524.509357 254.915162 
L 527.992584 231.116968 
L 531.475812 216.813316 
L 534.959039 254.125727 
L 538.442267 275.208341 
L 541.925494 302.853446 
L 545.408722 269.310459 
L 548.891949 288.274786 
L 552.375177 289.369356 
L 555.858404 296.674129 
L 559.341632 286.2154 
L 562.824859 274.439785 
L 566.308087 290.774581 
L 569.791314 302.899356 
L 573.274542 309.187425 
L 576.75777 316.572535 
L 580.240997 307.650287 
L 583.724225 322.557811 
L 587.207452 334.34176 
L 590.69068 341.720477 
L 594.173907 320.437455 
L 597.657135 301.061648 
L 601.140362 293.619385 
L 604.62359 303.312371 
L 608.106817 325.534554 
L 611.590045 291.549389 
L 615.073272 330.060206 
L 618.5565 298.309727 
L 622.039727 343.869614 
L 625.522955 300.532906 
L 629.006182 289.23005 
L 632.48941 271.611518 
L 635.972637 286.618531 
L 639.455865 323.390965 
L 642.939092 293.576422 
L 646.42232 335.022628 
L 649.905547 344.866758 
L 653.388775 306.192416 
L 656.872002 270.554079 
L 660.35523 292.380239 
L 663.838457 314.953568 
L 667.321685 298.298972 
L 670.804912 294.09117 
L 674.28814 287.066342 
L 677.771367 253.553557 
L 681.254595 288.610681 
L 684.737822 276.755547 
L 688.22105 294.576676 
L 691.704277 283.161801 
L 695.187505 297.108388 
L 698.670732 311.623985 
L 702.15396 313.105652 
L 705.637188 281.974201 
L 705.637188 281.974201 
" clip-path="url(#p6a501526ea)" style="fill: none; stroke: #ff8c00; stroke-width: 2.3; stroke-linecap: square"/>
   </g>
   <g id="line2d_32">
    <path d="M 277.200203 384.117812 
L 277.200203 23.837812 
" clip-path="url(#p6a501526ea)" style="fill: none; stroke-dasharray: 5.55,2.4; stroke-dashoffset: 0; stroke: #808080; stroke-width: 1.5"/>
   </g>
   <g id="line2d_33">
    <path d="M 475.744172 384.117812 
L 475.744172 23.837812 
" clip-path="url(#p6a501526ea)" style="fill: none; stroke-dasharray: 5.55,2.4; stroke-dashoffset: 0; stroke: #808080; stroke-width: 1.5"/>
   </g>
   <g id="patch_3">
    <path d="M 47.307188 384.117812 
L 47.307188 23.837812 
" style="fill: none; stroke: #000000; stroke-width: 0.8; stroke-linejoin: miter; stroke-linecap: square"/>
   </g>
   <g id="patch_4">
    <path d="M 705.637188 384.117812 
L 705.637188 23.837812 
" style="fill: none; stroke: #000000; stroke-width: 0.8; stroke-linejoin: miter; stroke-linecap: square"/>
   </g>
   <g id="patch_5">
    <path d="M 47.307188 384.117812 
L 705.637188 384.117812 
" style="fill: none; stroke: #000000; stroke-width: 0.8; stroke-linejoin: miter; stroke-linecap: square"/>
   </g>
   <g id="patch_6">
    <path d="M 47.307188 23.837812 
L 705.637188 23.837812 
" style="fill: none; stroke: #000000; stroke-width: 0.8; stroke-linejoin: miter; stroke-linecap: square"/>
   </g>
   <g id="text_18">
    <!-- Facial trace: Autism spectrum condition (ASC) (male) -->
    <g transform="translate(190.721719 17.837812) scale(0.14 -0.14)">
     <defs>
      <path id="DejaVuSans-46" d="M 628 4666 
L 3309 4666 
L 3309 4134 
L 1259 4134 
L 1259 2759 
L 3109 2759 
L 3109 2228 
L 1259 2228 
L 1259 0 
L 628 0 
L 628 4666 
z
" transform="scale(0.015625)"/>
      <path id="DejaVuSans-63" d="M 3122 3366 
L 3122 2828 
Q 2878 2963 2633 3030 
Q 2388 3097 2138 3097 
Q 1578 3097 1268 2742 
Q 959 2388 959 1747 
Q 959 1106 1268 751 
Q 1578 397 2138 397 
Q 2388 397 2633 464 
Q 2878 531 3122 666 
L 3122 134 
Q 2881 22 2623 -34 
Q 2366 -91 2075 -91 
Q 1284 -91 818 406 
Q 353 903 353 1747 
Q 353 2603 823 3093 
Q 1294 3584 2113 3584 
Q 2378 3584 2631 3529 
Q 2884 3475 3122 3366 
z
" transform="scale(0.015625)"/>
      <path id="DejaVuSans-6c" d="M 603 4863 
L 1178 4863 
L 1178 0 
L 603 0 
L 603 4863 
z
" transform="scale(0.015625)"/>
      <path id="DejaVuSans-72" d="M 2631 2963 
Q 2534 3019 2420 3045 
Q 2306 3072 2169 3072 
Q 1681 3072 1420 2755 
Q 1159 2438 1159 1844 
L 1159 0 
L 581 0 
L 581 3500 
L 1159 3500 
L 1159 2956 
Q 1341 3275 1631 3429 
Q 1922 3584 2338 3584 
Q 2397 3584 2469 3576 
Q 2541 3569 2628 3553 
L 2631 2963 
z
" transform="scale(0.015625)"/>
      <path id="DejaVuSans-3a" d="M 750 794 
L 1409 794 
L 1409 0 
L 750 0 
L 750 794 
z
M 750 3309 
L 1409 3309 
L 1409 2516 
L 750 2516 
L 750 3309 
z
" transform="scale(0.015625)"/>
      <path id="DejaVuSans-75" d="M 544 1381 
L 544 3500 
L 1119 3500 
L 1119 1403 
Q 1119 906 1312 657 
Q 1506 409 1894 409 
Q 2359 409 2629 706 
Q 2900 1003 2900 1516 
L 2900 3500 
L 3475 3500 
L 3475 0 
L 2900 0 
L 2900 538 
Q 2691 219 2414 64 
Q 2138 -91 1772 -91 
Q 1169 -91 856 284 
Q 544 659 544 1381 
z
M 1991 3584 
L 1991 3584 
z
" transform="scale(0.015625)"/>
      <path id="DejaVuSans-70" d="M 1159 525 
L 1159 -1331 
L 581 -1331 
L 581 3500 
L 1159 3500 
L 1159 2969 
Q 1341 3281 1617 3432 
Q 1894 3584 2278 3584 
Q 2916 3584 3314 3078 
Q 3713 2572 3713 1747 
Q 3713 922 3314 415 
Q 2916 -91 2278 -91 
Q 1894 -91 1617 61 
Q 1341 213 1159 525 
z
M 3116 1747 
Q 3116 2381 2855 2742 
Q 2594 3103 2138 3103 
Q 1681 3103 1420 2742 
Q 1159 2381 1159 1747 
Q 1159 1113 1420 752 
Q 1681 391 2138 391 
Q 2594 391 2855 752 
Q 3116 1113 3116 1747 
z
" transform="scale(0.015625)"/>
      <path id="DejaVuSans-6f" d="M 1959 3097 
Q 1497 3097 1228 2736 
Q 959 2375 959 1747 
Q 959 1119 1226 758 
Q 1494 397 1959 397 
Q 2419 397 2687 759 
Q 2956 1122 2956 1747 
Q 2956 2369 2687 2733 
Q 2419 3097 1959 3097 
z
M 1959 3584 
Q 2709 3584 3137 3096 
Q 3566 2609 3566 1747 
Q 3566 888 3137 398 
Q 2709 -91 1959 -91 
Q 1206 -91 779 398 
Q 353 888 353 1747 
Q 353 2609 779 3096 
Q 1206 3584 1959 3584 
z
" transform="scale(0.015625)"/>
      <path id="DejaVuSans-64" d="M 2906 2969 
L 2906 4863 
L 3481 4863 
L 3481 0 
L 2906 0 
L 2906 525 
Q 2725 213 2448 61 
Q 2172 -91 1784 -91 
Q 1150 -91 751 415 
Q 353 922 353 1747 
Q 353 2572 751 3078 
Q 1150 3584 1784 3584 
Q 2172 3584 2448 3432 
Q 2725 3281 2906 2969 
z
M 947 1747 
Q 947 1113 1208 752 
Q 1469 391 1925 391 
Q 2381 391 2643 752 
Q 2906 1113 2906 1747 
Q 2906 2381 2643 2742 
Q 2381 3103 1925 3103 
Q 1469 3103 1208 2742 
Q 947 2381 947 1747 
z
" transform="scale(0.015625)"/>
      <path id="DejaVuSans-53" d="M 3425 4513 
L 3425 3897 
Q 3066 4069 2747 4153 
Q 2428 4238 2131 4238 
Q 1616 4238 1336 4038 
Q 1056 3838 1056 3469 
Q 1056 3159 1242 3001 
Q 1428 2844 1947 2747 
L 2328 2669 
Q 3034 2534 3370 2195 
Q 3706 1856 3706 1288 
Q 3706 609 3251 259 
Q 2797 -91 1919 -91 
Q 1588 -91 1214 -16 
Q 841 59 441 206 
L 441 856 
Q 825 641 1194 531 
Q 1563 422 1919 422 
Q 2459 422 2753 634 
Q 3047 847 3047 1241 
Q 3047 1584 2836 1778 
Q 2625 1972 2144 2069 
L 1759 2144 
Q 1053 2284 737 2584 
Q 422 2884 422 3419 
Q 422 4038 858 4394 
Q 1294 4750 2059 4750 
Q 2388 4750 2728 4690 
Q 3069 4631 3425 4513 
z
" transform="scale(0.015625)"/>
      <path id="DejaVuSans-43" d="M 4122 4306 
L 4122 3641 
Q 3803 3938 3442 4084 
Q 3081 4231 2675 4231 
Q 1875 4231 1450 3742 
Q 1025 3253 1025 2328 
Q 1025 1406 1450 917 
Q 1875 428 2675 428 
Q 3081 428 3442 575 
Q 3803 722 4122 1019 
L 4122 359 
Q 3791 134 3420 21 
Q 3050 -91 2638 -91 
Q 1578 -91 968 557 
Q 359 1206 359 2328 
Q 359 3453 968 4101 
Q 1578 4750 2638 4750 
Q 3056 4750 3426 4639 
Q 3797 4528 4122 4306 
z
" transform="scale(0.015625)"/>
     </defs>
     <use xlink:href="#DejaVuSans-46"/>
     <use xlink:href="#DejaVuSans-61" transform="translate(48.394531 0)"/>
     <use xlink:href="#DejaVuSans-63" transform="translate(109.673828 0)"/>
     <use xlink:href="#DejaVuSans-69" transform="translate(164.654297 0)"/>
     <use xlink:href="#DejaVuSans-61" transform="translate(192.4375 0)"/>
     <use xlink:href="#DejaVuSans-6c" transform="translate(253.716797 0)"/>
     <use xlink:href="#DejaVuSans-20" transform="translate(281.5 0)"/>
     <use xlink:href="#DejaVuSans-74" transform="translate(313.287109 0)"/>
     <use xlink:href="#DejaVuSans-72" transform="translate(352.496094 0)"/>
     <use xlink:href="#DejaVuSans-61" transform="translate(393.609375 0)"/>
     <use xlink:href="#DejaVuSans-63" transform="translate(454.888672 0)"/>
     <use xlink:href="#DejaVuSans-65" transform="translate(509.869141 0)"/>
     <use xlink:href="#DejaVuSans-3a" transform="translate(571.392578 0)"/>
     <use xlink:href="#DejaVuSans-20" transform="translate(605.083984 0)"/>
     <use xlink:href="#DejaVuSans-41" transform="translate(636.871094 0)"/>
     <use xlink:href="#DejaVuSans-75" transform="translate(705.279297 0)"/>
     <use xlink:href="#DejaVuSans-74" transform="translate(768.658203 0)"/>
     <use xlink:href="#DejaVuSans-69" transform="translate(807.867188 0)"/>
     <use xlink:href="#DejaVuSans-73" transform="translate(835.650391 0)"/>
     <use xlink:href="#DejaVuSans-6d" transform="translate(887.75 0)"/>
     <use xlink:href="#DejaVuSans-20" transform="translate(985.162109 0)"/>
     <use xlink:href="#DejaVuSans-73" transform="translate(1016.949219 0)"/>
     <use xlink:href="#DejaVuSans-70" transform="translate(1069.048828 0)"/>
     <use xlink:href="#DejaVuSans-65" transform="translate(1132.525391 0)"/>
     <use xlink:href="#DejaVuSans-63" transform="translate(1194.048828 0)"/>
     <use xlink:href="#DejaVuSans-74" transform="translate(1249.029297 0)"/>
     <use xlink:href="#DejaVuSans-72" transform="translate(1288.238281 0)"/>
     <use xlink:href="#DejaVuSans-75" transform="translate(1329.351562 0)"/>
     <use xlink:href="#DejaVuSans-6d" transform="translate(1392.730469 0)"/>
     <use xlink:href="#DejaVuSans-20" transform="translate(1490.142578 0)"/>
     <use xlink:href="#DejaVuSans-63" transform="translate(1521.929688 0)"/>
     <use xlink:href="#DejaVuSans-6f" transform="translate(1576.910156 0)"/>
     <use xlink:href="#DejaVuSans-6e" transform="translate(1638.091797 0)"/>
     <use xlink:href="#DejaVuSans-64" transform="translate(1701.470703 0)"/>
     <use xlink:href="#DejaVuSans-69" transform="translate(1764.947266 0)"/>
     <use xlink:href="#DejaVuSans-74" transform="translate(1792.730469 0)"/>
     <use xlink:href="#DejaVuSans-69" transform="translate(1831.939453 0)"/>
     <use xlink:href="#DejaVuSans-6f" transform="translate(1859.722656 0)"/>
     <use xlink:href="#DejaVuSans-6e" transform="translate(1920.904297 0)"/>
     <use xlink:href="#DejaVuSans-20" transform="translate(1984.283203 0)"/>
     <use xlink:href="#DejaVuSans-28" transform="translate(2016.070312 0)"/>
     <use xlink:href="#DejaVuSans-41" transform="translate(2055.083984 0)"/>
     <use xlink:href="#DejaVuSans-53" transform="translate(2123.492188 0)"/>
     <use xlink:href="#DejaVuSans-43" transform="translate(2186.96875 0)"/>
     <use xlink:href="#DejaVuSans-29" transform="translate(2256.792969 0)"/>
     <use xlink:href="#DejaVuSans-20" transform="translate(2295.806641 0)"/>
     <use xlink:href="#DejaVuSans-28" transform="translate(2327.59375 0)"/>
     <use xlink:href="#DejaVuSans-6d" transform="translate(2366.607422 0)"/>
     <use xlink:href="#DejaVuSans-61" transform="translate(2464.019531 0)"/>
     <use xlink:href="#DejaVuSans-6c" transform="translate(2525.298828 0)"/>
     <use xlink:href="#DejaVuSans-65" transform="translate(2553.082031 0)"/>
     <use xlink:href="#DejaVuSans-29" transform="translate(2614.605469 0)"/>
    </g>
   </g>
   <g id="legend_1">
    <g id="patch_7">
     <path d="M 443.795938 42.096094 
L 465.795938 42.096094 
L 465.795938 34.396094 
L 443.795938 34.396094 
z
" style="fill: #d3d3d3; fill-opacity: 0.5; stroke: #d3d3d3; stroke-opacity: 0.5; stroke-linejoin: miter"/>
    </g>
    <g id="text_19">
     <!-- Autism spectrum condition (ASC) ±2 SD -->
     <g transform="translate(474.595938 42.096094) scale(0.11 -0.11)">
      <defs>
       <path id="DejaVuSans-b1" d="M 2944 4013 
L 2944 2803 
L 4684 2803 
L 4684 2272 
L 2944 2272 
L 2944 1063 
L 2419 1063 
L 2419 2272 
L 678 2272 
L 678 2803 
L 2419 2803 
L 2419 4013 
L 2944 4013 
z
M 678 531 
L 4684 531 
L 4684 0 
L 678 0 
L 678 531 
z
" transform="scale(0.015625)"/>
       <path id="DejaVuSans-44" d="M 1259 4147 
L 1259 519 
L 2022 519 
Q 2988 519 3436 956 
Q 3884 1394 3884 2338 
Q 3884 3275 3436 3711 
Q 2988 4147 2022 4147 
L 1259 4147 
z
M 628 4666 
L 1925 4666 
Q 3281 4666 3915 4102 
Q 4550 3538 4550 2338 
Q 4550 1131 3912 565 
Q 3275 0 1925 0 
L 628 0 
L 628 4666 
z
" transform="scale(0.015625)"/>
      </defs>
      <use xlink:href="#DejaVuSans-41"/>
      <use xlink:href="#DejaVuSans-75" transform="translate(68.408203 0)"/>
      <use xlink:href="#DejaVuSans-74" transform="translate(131.787109 0)"/>
      <use xlink:href="#DejaVuSans-69" transform="translate(170.996094 0)"/>
      <use xlink:href="#DejaVuSans-73" transform="translate(198.779297 0)"/>
      <use xlink:href="#DejaVuSans-6d" transform="translate(250.878906 0)"/>
      <use xlink:href="#DejaVuSans-20" transform="translate(348.291016 0)"/>
      <use xlink:href="#DejaVuSans-73" transform="translate(380.078125 0)"/>
      <use xlink:href="#DejaVuSans-70" transform="translate(432.177734 0)"/>
      <use xlink:href="#DejaVuSans-65" transform="translate(495.654297 0)"/>
      <use xlink:href="#DejaVuSans-63" transform="translate(557.177734 0)"/>
      <use xlink:href="#DejaVuSans-74" transform="translate(612.158203 0)"/>
      <use xlink:href="#DejaVuSans-72" transform="translate(651.367188 0)"/>
      <use xlink:href="#DejaVuSans-75" transform="translate(692.480469 0)"/>
      <use xlink:href="#DejaVuSans-6d" transform="translate(755.859375 0)"/>
      <use xlink:href="#DejaVuSans-20" transform="translate(853.271484 0)"/>
      <use xlink:href="#DejaVuSans-63" transform="translate(885.058594 0)"/>
      <use xlink:href="#DejaVuSans-6f" transform="translate(940.039062 0)"/>
      <use xlink:href="#DejaVuSans-6e" transform="translate(1001.220703 0)"/>
      <use xlink:href="#DejaVuSans-64" transform="translate(1064.599609 0)"/>
      <use xlink:href="#DejaVuSans-69" transform="translate(1128.076172 0)"/>
      <use xlink:href="#DejaVuSans-74" transform="translate(1155.859375 0)"/>
      <use xlink:href="#DejaVuSans-69" transform="translate(1195.068359 0)"/>
      <use xlink:href="#DejaVuSans-6f" transform="translate(1222.851562 0)"/>
      <use xlink:href="#DejaVuSans-6e" transform="translate(1284.033203 0)"/>
      <use xlink:href="#DejaVuSans-20" transform="translate(1347.412109 0)"/>
      <use xlink:href="#DejaVuSans-28" transform="translate(1379.199219 0)"/>
      <use xlink:href="#DejaVuSans-41" transform="translate(1418.212891 0)"/>
      <use xlink:href="#DejaVuSans-53" transform="translate(1486.621094 0)"/>
      <use xlink:href="#DejaVuSans-43" transform="translate(1550.097656 0)"/>
      <use xlink:href="#DejaVuSans-29" transform="translate(1619.921875 0)"/>
      <use xlink:href="#DejaVuSans-20" transform="translate(1658.935547 0)"/>
      <use xlink:href="#DejaVuSans-b1" transform="translate(1690.722656 0)"/>
      <use xlink:href="#DejaVuSans-32" transform="translate(1774.511719 0)"/>
      <use xlink:href="#DejaVuSans-20" transform="translate(1838.134766 0)"/>
      <use xlink:href="#DejaVuSans-53" transform="translate(1869.921875 0)"/>
      <use xlink:href="#DejaVuSans-44" transform="translate(1933.398438 0)"/>
     </g>
    </g>
    <g id="patch_8">
     <path d="M 443.795938 58.242031 
L 465.795938 58.242031 
L 465.795938 50.542031 
L 443.795938 50.542031 
z
" style="fill: #808080; fill-opacity: 0.7; stroke: #808080; stroke-opacity: 0.7; stroke-linejoin: miter"/>
    </g>
    <g id="text_20">
     <!-- Autism spectrum condition (ASC) ±1 SD -->
     <g transform="translate(474.595938 58.242031) scale(0.11 -0.11)">
      <use xlink:href="#DejaVuSans-41"/>
      <use xlink:href="#DejaVuSans-75" transform="translate(68.408203 0)"/>
      <use xlink:href="#DejaVuSans-74" transform="translate(131.787109 0)"/>
      <use xlink:href="#DejaVuSans-69" transform="translate(170.996094 0)"/>
      <use xlink:href="#DejaVuSans-73" transform="translate(198.779297 0)"/>
      <use xlink:href="#DejaVuSans-6d" transform="translate(250.878906 0)"/>
      <use xlink:href="#DejaVuSans-20" transform="translate(348.291016 0)"/>
      <use xlink:href="#DejaVuSans-73" transform="translate(380.078125 0)"/>
      <use xlink:href="#DejaVuSans-70" transform="translate(432.177734 0)"/>
      <use xlink:href="#DejaVuSans-65" transform="translate(495.654297 0)"/>
      <use xlink:href="#DejaVuSans-63" transform="translate(557.177734 0)"/>
      <use xlink:href="#DejaVuSans-74" transform="translate(612.158203 0)"/>
      <use xlink:href="#DejaVuSans-72" transform="translate(651.367188 0)"/>
      <use xlink:href="#DejaVuSans-75" transform="translate(692.480469 0)"/>
      <use xlink:href="#DejaVuSans-6d" transform="translate(755.859375 0)"/>
      <use xlink:href="#DejaVuSans-20" transform="translate(853.271484 0)"/>
      <use xlink:href="#DejaVuSans-63" transform="translate(885.058594 0)"/>
      <use xlink:href="#DejaVuSans-6f" transform="translate(940.039062 0)"/>
      <use xlink:href="#DejaVuSans-6e" transform="translate(1001.220703 0)"/>
      <use xlink:href="#DejaVuSans-64" transform="translate(1064.599609 0)"/>
      <use xlink:href="#DejaVuSans-69" transform="translate(1128.076172 0)"/>
      <use xlink:href="#DejaVuSans-74" transform="translate(1155.859375 0)"/>
      <use xlink:href="#DejaVuSans-69" transform="translate(1195.068359 0)"/>
      <use xlink:href="#DejaVuSans-6f" transform="translate(1222.851562 0)"/>
      <use xlink:href="#DejaVuSans-6e" transform="translate(1284.033203 0)"/>
      <use xlink:href="#DejaVuSans-20" transform="translate(1347.412109 0)"/>
      <use xlink:href="#DejaVuSans-28" transform="translate(1379.199219 0)"/>
      <use xlink:href="#DejaVuSans-41" transform="translate(1418.212891 0)"/>
      <use xlink:href="#DejaVuSans-53" transform="translate(1486.621094 0)"/>
      <use xlink:href="#DejaVuSans-43" transform="translate(1550.097656 0)"/>
      <use xlink:href="#DejaVuSans-29" transform="translate(1619.921875 0)"/>
      <use xlink:href="#DejaVuSans-20" transform="translate(1658.935547 0)"/>
      <use xlink:href="#DejaVuSans-b1" transform="translate(1690.722656 0)"/>
      <use xlink:href="#DejaVuSans-31" transform="translate(1774.511719 0)"/>
      <use xlink:href="#DejaVuSans-20" transform="translate(1838.134766 0)"/>
      <use xlink:href="#DejaVuSans-53" transform="translate(1869.921875 0)"/>
      <use xlink:href="#DejaVuSans-44" transform="translate(1933.398438 0)"/>
     </g>
    </g>
    <g id="line2d_34">
     <path d="M 443.795938 70.537969 
L 454.795938 70.537969 
L 465.795938 70.537969 
" style="fill: none; stroke: #ff8c00; stroke-width: 2.3; stroke-linecap: square"/>
    </g>
    <g id="text_21">
     <!-- Patient -->
     <g transform="translate(474.595938 74.387969) scale(0.11 -0.11)">
      <defs>
       <path id="DejaVuSans-50" d="M 1259 4147 
L 1259 2394 
L 2053 2394 
Q 2494 2394 2734 2622 
Q 2975 2850 2975 3272 
Q 2975 3691 2734 3919 
Q 2494 4147 2053 4147 
L 1259 4147 
z
M 628 4666 
L 2053 4666 
Q 2838 4666 3239 4311 
Q 3641 3956 3641 3272 
Q 3641 2581 3239 2228 
Q 2838 1875 2053 1875 
L 1259 1875 
L 1259 0 
L 628 0 
L 628 4666 
z
" transform="scale(0.015625)"/>
      </defs>
      <use xlink:href="#DejaVuSans-50"/>
      <use xlink:href="#DejaVuSans-61" transform="translate(55.802734 0)"/>
      <use xlink:href="#DejaVuSans-74" transform="translate(117.082031 0)"/>
      <use xlink:href="#DejaVuSans-69" transform="translate(156.291016 0)"/>
      <use xlink:href="#DejaVuSans-65" transform="translate(184.074219 0)"/>
      <use xlink:href="#DejaVuSans-6e" transform="translate(245.597656 0)"/>
      <use xlink:href="#DejaVuSans-74" transform="translate(308.976562 0)"/>
     </g>
    </g>
   </g>
  </g>
 </g>
 <defs>
  <clipPath id="p6a501526ea">
   <rect x="47.307188" y="23.837812" width="658.33" height="360.28"/>
  </clipPath>
 </defs>
</svg>
