<?xml version="1.0" encoding="utf-8" standalone="no"?>
<!DOCTYPE svg PUBLIC "-//W3C//DTD SVG 1.1//EN"
  "http://www.w3.org/Graphics/SVG/1.1/DTD/svg11.dtd">
<svg xmlns:xlink="http://www.w3.org/1999/xlink" width="676.85125pt" height="391.52407pt" viewBox="0 0 676.85125 391.52407" xmlns="http://www.w3.org/2000/svg" version="1.1">
 <metadata>
  <rdf:RDF xmlns:dc="http://purl.org/dc/elements/1.1/" xmlns:cc="http://creativecommons.org/ns#" xmlns:rdf="http://www.w3.org/1999/02/22-rdf-syntax-ns#">
   <cc:Work>
    <dc:type rdf:resource="http://purl.org/dc/dcmitype/StillImage"/>
    <dc:date>2026-06-14T18:58:30.122129</dc:date>
    <dc:format>image/svg+xml</dc:format>
    <dc:creator>
     <cc:Agent>
      <dc:title>Matplotlib v3.10.1, https://matplotlib.org/</dc:title>
     </cc:Agent>
    </dc:creator>
   </cc:Work>
  </rdf:RDF>
 </metadata>
 <defs>
  <style type="text/css">*{stroke-linejoin: round; stroke-linecap: butt}</style>
 </defs>
 <g id="figure_1">
  <g id="patch_1">
   <path d="M 0 391.52407 
L 676.85125 391.52407 
L 676.85125 0 
L 0 0 
z
" style="fill: #ffffff"/>
  </g>
  <g id="axes_1">
   <g id="patch_2">
    <path d="M 43.81125 338.606376 
L 218.51125 338.606376 
L 218.51125 35.71362 
L 43.81125 35.71362 
z
" style="fill: #ffffff"/>
   </g>
   <g id="matplotlib.axis_1">
    <g id="xtick_1">
     <g id="line2d_1">
      <path d="M 131.16125 338.606376 
L 131.16125 35.71362 
" clip-path="url(#pd5a0f7d0f4)" style="fill: none; stroke: #b0b0b0; stroke-opacity: 0.2; stroke-width: 0.6; stroke-linecap: square"/>
     </g>
     <g id="line2d_2">
      <defs>
       <path id="m66c8164205" d="M 0 0 
L 0 3.5 
" style="stroke: #000000; stroke-width: 0.8"/>
      </defs>
      <g>
       <use xlink:href="#m66c8164205" x="131.16125" y="338.606376" style="stroke: #000000; stroke-width: 0.8"/>
      </g>
     </g>
     <g id="text_1">
      <!-- Pitch variability -->
      <g transform="translate(48.645671 375.631189) rotate(-15) scale(0.11 -0.11)">
       <defs>
        <path id="DejaVuSans-50" d="M 1259 4147 
L 1259 2394 
L 2053 2394 
Q 2494 2394 2734 2622 
Q 2975 2850 2975 3272 
Q 2975 3691 2734 3919 
Q 2494 4147 2053 4147 
L 1259 4147 
z
M 628 4666 
L 2053 4666 
Q 2838 4666 3239 4311 
Q 3641 3956 3641 3272 
Q 3641 2581 3239 2228 
Q 2838 1875 2053 1875 
L 1259 1875 
L 1259 0 
L 628 0 
L 628 4666 
z
" transform="scale(0.015625)"/>
        <path id="DejaVuSans-69" d="M 603 3500 
L 1178 3500 
L 1178 0 
L 603 0 
L 603 3500 
z
M 603 4863 
L 1178 4863 
L 1178 4134 
L 603 4134 
L 603 4863 
z
" transform="scale(0.015625)"/>
        <path id="DejaVuSans-74" d="M 1172 4494 
L 1172 3500 
L 2356 3500 
L 2356 3053 
L 1172 3053 
L 1172 1153 
Q 1172 725 1289 603 
Q 1406 481 1766 481 
L 2356 481 
L 2356 0 
L 1766 0 
Q 1100 0 847 248 
Q 594 497 594 1153 
L 594 3053 
L 172 3053 
L 172 3500 
L 594 3500 
L 594 4494 
L 1172 4494 
z
" transform="scale(0.015625)"/>
        <path id="DejaVuSans-63" d="M 3122 3366 
L 3122 2828 
Q 2878 2963 2633 3030 
Q 2388 3097 2138 3097 
Q 1578 3097 1268 2742 
Q 959 2388 959 1747 
Q 959 1106 1268 751 
Q 1578 397 2138 397 
Q 2388 397 2633 464 
Q 2878 531 3122 666 
L 3122 134 
Q 2881 22 2623 -34 
Q 2366 -91 2075 -91 
Q 1284 -91 818 406 
Q 353 903 353 1747 
Q 353 2603 823 3093 
Q 1294 3584 2113 3584 
Q 2378 3584 2631 3529 
Q 2884 3475 3122 3366 
z
" transform="scale(0.015625)"/>
        <path id="DejaVuSans-68" d="M 3513 2113 
L 3513 0 
L 2938 0 
L 2938 2094 
Q 2938 2591 2744 2837 
Q 2550 3084 2163 3084 
Q 1697 3084 1428 2787 
Q 1159 2491 1159 1978 
L 1159 0 
L 581 0 
L 581 4863 
L 1159 4863 
L 1159 2956 
Q 1366 3272 1645 3428 
Q 1925 3584 2291 3584 
Q 2894 3584 3203 3211 
Q 3513 2838 3513 2113 
z
" transform="scale(0.015625)"/>
        <path id="DejaVuSans-20" transform="scale(0.015625)"/>
        <path id="DejaVuSans-76" d="M 191 3500 
L 800 3500 
L 1894 563 
L 2988 3500 
L 3597 3500 
L 2284 0 
L 1503 0 
L 191 3500 
z
" transform="scale(0.015625)"/>
        <path id="DejaVuSans-61" d="M 2194 1759 
Q 1497 1759 1228 1600 
Q 959 1441 959 1056 
Q 959 750 1161 570 
Q 1363 391 1709 391 
Q 2188 391 2477 730 
Q 2766 1069 2766 1631 
L 2766 1759 
L 2194 1759 
z
M 3341 1997 
L 3341 0 
L 2766 0 
L 2766 531 
Q 2569 213 2275 61 
Q 1981 -91 1556 -91 
Q 1019 -91 701 211 
Q 384 513 384 1019 
Q 384 1609 779 1909 
Q 1175 2209 1959 2209 
L 2766 2209 
L 2766 2266 
Q 2766 2663 2505 2880 
Q 2244 3097 1772 3097 
Q 1472 3097 1187 3025 
Q 903 2953 641 2809 
L 641 3341 
Q 956 3463 1253 3523 
Q 1550 3584 1831 3584 
Q 2591 3584 2966 3190 
Q 3341 2797 3341 1997 
z
" transform="scale(0.015625)"/>
        <path id="DejaVuSans-72" d="M 2631 2963 
Q 2534 3019 2420 3045 
Q 2306 3072 2169 3072 
Q 1681 3072 1420 2755 
Q 1159 2438 1159 1844 
L 1159 0 
L 581 0 
L 581 3500 
L 1159 3500 
L 1159 2956 
Q 1341 3275 1631 3429 
Q 1922 3584 2338 3584 
Q 2397 3584 2469 3576 
Q 2541 3569 2628 3553 
L 2631 2963 
z
" transform="scale(0.015625)"/>
        <path id="DejaVuSans-62" d="M 3116 1747 
Q 3116 2381 2855 2742 
Q 2594 3103 2138 3103 
Q 1681 3103 1420 2742 
Q 1159 2381 1159 1747 
Q 1159 1113 1420 752 
Q 1681 391 2138 391 
Q 2594 391 2855 752 
Q 3116 1113 3116 1747 
z
M 1159 2969 
Q 1341 3281 1617 3432 
Q 1894 3584 2278 3584 
Q 2916 3584 3314 3078 
Q 3713 2572 3713 1747 
Q 3713 922 3314 415 
Q 2916 -91 2278 -91 
Q 1894 -91 1617 61 
Q 1341 213 1159 525 
L 1159 0 
L 581 0 
L 581 4863 
L 1159 4863 
L 1159 2969 
z
" transform="scale(0.015625)"/>
        <path id="DejaVuSans-6c" d="M 603 4863 
L 1178 4863 
L 1178 0 
L 603 0 
L 603 4863 
z
" transform="scale(0.015625)"/>
        <path id="DejaVuSans-79" d="M 2059 -325 
Q 1816 -950 1584 -1140 
Q 1353 -1331 966 -1331 
L 506 -1331 
L 506 -850 
L 844 -850 
Q 1081 -850 1212 -737 
Q 1344 -625 1503 -206 
L 1606 56 
L 191 3500 
L 800 3500 
L 1894 763 
L 2988 3500 
L 3597 3500 
L 2059 -325 
z
" transform="scale(0.015625)"/>
       </defs>
       <use xlink:href="#DejaVuSans-50"/>
       <use xlink:href="#DejaVuSans-69" transform="translate(58.052734 0)"/>
       <use xlink:href="#DejaVuSans-74" transform="translate(85.835938 0)"/>
       <use xlink:href="#DejaVuSans-63" transform="translate(125.044922 0)"/>
       <use xlink:href="#DejaVuSans-68" transform="translate(180.025391 0)"/>
       <use xlink:href="#DejaVuSans-20" transform="translate(243.404297 0)"/>
       <use xlink:href="#DejaVuSans-76" transform="translate(275.191406 0)"/>
       <use xlink:href="#DejaVuSans-61" transform="translate(334.371094 0)"/>
       <use xlink:href="#DejaVuSans-72" transform="translate(395.650391 0)"/>
       <use xlink:href="#DejaVuSans-69" transform="translate(436.763672 0)"/>
       <use xlink:href="#DejaVuSans-61" transform="translate(464.546875 0)"/>
       <use xlink:href="#DejaVuSans-62" transform="translate(525.826172 0)"/>
       <use xlink:href="#DejaVuSans-69" transform="translate(589.302734 0)"/>
       <use xlink:href="#DejaVuSans-6c" transform="translate(617.085938 0)"/>
       <use xlink:href="#DejaVuSans-69" transform="translate(644.869141 0)"/>
       <use xlink:href="#DejaVuSans-74" transform="translate(672.652344 0)"/>
       <use xlink:href="#DejaVuSans-79" transform="translate(711.861328 0)"/>
      </g>
     </g>
    </g>
   </g>
   <g id="matplotlib.axis_2">
    <g id="ytick_1">
     <g id="line2d_3">
      <path d="M 43.81125 313.403212 
L 218.51125 313.403212 
" clip-path="url(#pd5a0f7d0f4)" style="fill: none; stroke: #b0b0b0; stroke-opacity: 0.2; stroke-width: 0.6; stroke-linecap: square"/>
     </g>
     <g id="line2d_4">
      <defs>
       <path id="m0bb34b70aa" d="M 0 0 
L -3.5 0 
" style="stroke: #000000; stroke-width: 0.8"/>
      </defs>
      <g>
       <use xlink:href="#m0bb34b70aa" x="43.81125" y="313.403212" style="stroke: #000000; stroke-width: 0.8"/>
      </g>
     </g>
     <g id="text_2">
      <!-- 5 -->
      <g transform="translate(29.8125 317.582353) scale(0.11 -0.11)">
       <defs>
        <path id="DejaVuSans-35" d="M 691 4666 
L 3169 4666 
L 3169 4134 
L 1269 4134 
L 1269 2991 
Q 1406 3038 1543 3061 
Q 1681 3084 1819 3084 
Q 2600 3084 3056 2656 
Q 3513 2228 3513 1497 
Q 3513 744 3044 326 
Q 2575 -91 1722 -91 
Q 1428 -91 1123 -41 
Q 819 9 494 109 
L 494 744 
Q 775 591 1075 516 
Q 1375 441 1709 441 
Q 2250 441 2565 725 
Q 2881 1009 2881 1497 
Q 2881 1984 2565 2268 
Q 2250 2553 1709 2553 
Q 1456 2553 1204 2497 
Q 953 2441 691 2322 
L 691 4666 
z
" transform="scale(0.015625)"/>
       </defs>
       <use xlink:href="#DejaVuSans-35"/>
      </g>
     </g>
    </g>
    <g id="ytick_2">
     <g id="line2d_5">
      <path d="M 43.81125 247.204065 
L 218.51125 247.204065 
" clip-path="url(#pd5a0f7d0f4)" style="fill: none; stroke: #b0b0b0; stroke-opacity: 0.2; stroke-width: 0.6; stroke-linecap: square"/>
     </g>
     <g id="line2d_6">
      <g>
       <use xlink:href="#m0bb34b70aa" x="43.81125" y="247.204065" style="stroke: #000000; stroke-width: 0.8"/>
      </g>
     </g>
     <g id="text_3">
      <!-- 10 -->
      <g transform="translate(22.81375 251.383206) scale(0.11 -0.11)">
       <defs>
        <path id="DejaVuSans-31" d="M 794 531 
L 1825 531 
L 1825 4091 
L 703 3866 
L 703 4441 
L 1819 4666 
L 2450 4666 
L 2450 531 
L 3481 531 
L 3481 0 
L 794 0 
L 794 531 
z
" transform="scale(0.015625)"/>
        <path id="DejaVuSans-30" d="M 2034 4250 
Q 1547 4250 1301 3770 
Q 1056 3291 1056 2328 
Q 1056 1369 1301 889 
Q 1547 409 2034 409 
Q 2525 409 2770 889 
Q 3016 1369 3016 2328 
Q 3016 3291 2770 3770 
Q 2525 4250 2034 4250 
z
M 2034 4750 
Q 2819 4750 3233 4129 
Q 3647 3509 3647 2328 
Q 3647 1150 3233 529 
Q 2819 -91 2034 -91 
Q 1250 -91 836 529 
Q 422 1150 422 2328 
Q 422 3509 836 4129 
Q 1250 4750 2034 4750 
z
" transform="scale(0.015625)"/>
       </defs>
       <use xlink:href="#DejaVuSans-31"/>
       <use xlink:href="#DejaVuSans-30" transform="translate(63.623047 0)"/>
      </g>
     </g>
    </g>
    <g id="ytick_3">
     <g id="line2d_7">
      <path d="M 43.81125 181.004918 
L 218.51125 181.004918 
" clip-path="url(#pd5a0f7d0f4)" style="fill: none; stroke: #b0b0b0; stroke-opacity: 0.2; stroke-width: 0.6; stroke-linecap: square"/>
     </g>
     <g id="line2d_8">
      <g>
       <use xlink:href="#m0bb34b70aa" x="43.81125" y="181.004918" style="stroke: #000000; stroke-width: 0.8"/>
      </g>
     </g>
     <g id="text_4">
      <!-- 15 -->
      <g transform="translate(22.81375 185.184059) scale(0.11 -0.11)">
       <use xlink:href="#DejaVuSans-31"/>
       <use xlink:href="#DejaVuSans-35" transform="translate(63.623047 0)"/>
      </g>
     </g>
    </g>
    <g id="ytick_4">
     <g id="line2d_9">
      <path d="M 43.81125 114.805771 
L 218.51125 114.805771 
" clip-path="url(#pd5a0f7d0f4)" style="fill: none; stroke: #b0b0b0; stroke-opacity: 0.2; stroke-width: 0.6; stroke-linecap: square"/>
     </g>
     <g id="line2d_10">
      <g>
       <use xlink:href="#m0bb34b70aa" x="43.81125" y="114.805771" style="stroke: #000000; stroke-width: 0.8"/>
      </g>
     </g>
     <g id="text_5">
      <!-- 20 -->
      <g transform="translate(22.81375 118.984912) scale(0.11 -0.11)">
       <defs>
        <path id="DejaVuSans-32" d="M 1228 531 
L 3431 531 
L 3431 0 
L 469 0 
L 469 531 
Q 828 903 1448 1529 
Q 2069 2156 2228 2338 
Q 2531 2678 2651 2914 
Q 2772 3150 2772 3378 
Q 2772 3750 2511 3984 
Q 2250 4219 1831 4219 
Q 1534 4219 1204 4116 
Q 875 4013 500 3803 
L 500 4441 
Q 881 4594 1212 4672 
Q 1544 4750 1819 4750 
Q 2544 4750 2975 4387 
Q 3406 4025 3406 3419 
Q 3406 3131 3298 2873 
Q 3191 2616 2906 2266 
Q 2828 2175 2409 1742 
Q 1991 1309 1228 531 
z
" transform="scale(0.015625)"/>
       </defs>
       <use xlink:href="#DejaVuSans-32"/>
       <use xlink:href="#DejaVuSans-30" transform="translate(63.623047 0)"/>
      </g>
     </g>
    </g>
    <g id="ytick_5">
     <g id="line2d_11">
      <path d="M 43.81125 48.606624 
L 218.51125 48.606624 
" clip-path="url(#pd5a0f7d0f4)" style="fill: none; stroke: #b0b0b0; stroke-opacity: 0.2; stroke-width: 0.6; stroke-linecap: square"/>
     </g>
     <g id="line2d_12">
      <g>
       <use xlink:href="#m0bb34b70aa" x="43.81125" y="48.606624" style="stroke: #000000; stroke-width: 0.8"/>
      </g>
     </g>
     <g id="text_6">
      <!-- 25 -->
      <g transform="translate(22.81375 52.785765) scale(0.11 -0.11)">
       <use xlink:href="#DejaVuSans-32"/>
       <use xlink:href="#DejaVuSans-35" transform="translate(63.623047 0)"/>
      </g>
     </g>
    </g>
    <g id="text_7">
     <!-- semitones -->
     <g transform="translate(16.318125 218.132186) rotate(-90) scale(0.12 -0.12)">
      <defs>
       <path id="DejaVuSans-73" d="M 2834 3397 
L 2834 2853 
Q 2591 2978 2328 3040 
Q 2066 3103 1784 3103 
Q 1356 3103 1142 2972 
Q 928 2841 928 2578 
Q 928 2378 1081 2264 
Q 1234 2150 1697 2047 
L 1894 2003 
Q 2506 1872 2764 1633 
Q 3022 1394 3022 966 
Q 3022 478 2636 193 
Q 2250 -91 1575 -91 
Q 1294 -91 989 -36 
Q 684 19 347 128 
L 347 722 
Q 666 556 975 473 
Q 1284 391 1588 391 
Q 1994 391 2212 530 
Q 2431 669 2431 922 
Q 2431 1156 2273 1281 
Q 2116 1406 1581 1522 
L 1381 1569 
Q 847 1681 609 1914 
Q 372 2147 372 2553 
Q 372 3047 722 3315 
Q 1072 3584 1716 3584 
Q 2034 3584 2315 3537 
Q 2597 3491 2834 3397 
z
" transform="scale(0.015625)"/>
       <path id="DejaVuSans-65" d="M 3597 1894 
L 3597 1613 
L 953 1613 
Q 991 1019 1311 708 
Q 1631 397 2203 397 
Q 2534 397 2845 478 
Q 3156 559 3463 722 
L 3463 178 
Q 3153 47 2828 -22 
Q 2503 -91 2169 -91 
Q 1331 -91 842 396 
Q 353 884 353 1716 
Q 353 2575 817 3079 
Q 1281 3584 2069 3584 
Q 2775 3584 3186 3129 
Q 3597 2675 3597 1894 
z
M 3022 2063 
Q 3016 2534 2758 2815 
Q 2500 3097 2075 3097 
Q 1594 3097 1305 2825 
Q 1016 2553 972 2059 
L 3022 2063 
z
" transform="scale(0.015625)"/>
       <path id="DejaVuSans-6d" d="M 3328 2828 
Q 3544 3216 3844 3400 
Q 4144 3584 4550 3584 
Q 5097 3584 5394 3201 
Q 5691 2819 5691 2113 
L 5691 0 
L 5113 0 
L 5113 2094 
Q 5113 2597 4934 2840 
Q 4756 3084 4391 3084 
Q 3944 3084 3684 2787 
Q 3425 2491 3425 1978 
L 3425 0 
L 2847 0 
L 2847 2094 
Q 2847 2600 2669 2842 
Q 2491 3084 2119 3084 
Q 1678 3084 1418 2786 
Q 1159 2488 1159 1978 
L 1159 0 
L 581 0 
L 581 3500 
L 1159 3500 
L 1159 2956 
Q 1356 3278 1631 3431 
Q 1906 3584 2284 3584 
Q 2666 3584 2933 3390 
Q 3200 3197 3328 2828 
z
" transform="scale(0.015625)"/>
       <path id="DejaVuSans-6f" d="M 1959 3097 
Q 1497 3097 1228 2736 
Q 959 2375 959 1747 
Q 959 1119 1226 758 
Q 1494 397 1959 397 
Q 2419 397 2687 759 
Q 2956 1122 2956 1747 
Q 2956 2369 2687 2733 
Q 2419 3097 1959 3097 
z
M 1959 3584 
Q 2709 3584 3137 3096 
Q 3566 2609 3566 1747 
Q 3566 888 3137 398 
Q 2709 -91 1959 -91 
Q 1206 -91 779 398 
Q 353 888 353 1747 
Q 353 2609 779 3096 
Q 1206 3584 1959 3584 
z
" transform="scale(0.015625)"/>
       <path id="DejaVuSans-6e" d="M 3513 2113 
L 3513 0 
L 2938 0 
L 2938 2094 
Q 2938 2591 2744 2837 
Q 2550 3084 2163 3084 
Q 1697 3084 1428 2787 
Q 1159 2491 1159 1978 
L 1159 0 
L 581 0 
L 581 3500 
L 1159 3500 
L 1159 2956 
Q 1366 3272 1645 3428 
Q 1925 3584 2291 3584 
Q 2894 3584 3203 3211 
Q 3513 2838 3513 2113 
z
" transform="scale(0.015625)"/>
      </defs>
      <use xlink:href="#DejaVuSans-73"/>
      <use xlink:href="#DejaVuSans-65" transform="translate(52.099609 0)"/>
      <use xlink:href="#DejaVuSans-6d" transform="translate(113.623047 0)"/>
      <use xlink:href="#DejaVuSans-69" transform="translate(211.035156 0)"/>
      <use xlink:href="#DejaVuSans-74" transform="translate(238.818359 0)"/>
      <use xlink:href="#DejaVuSans-6f" transform="translate(278.027344 0)"/>
      <use xlink:href="#DejaVuSans-6e" transform="translate(339.208984 0)"/>
      <use xlink:href="#DejaVuSans-65" transform="translate(402.587891 0)"/>
      <use xlink:href="#DejaVuSans-73" transform="translate(464.111328 0)"/>
     </g>
    </g>
   </g>
   <g id="FillBetweenPolyCollection_1">
    <defs>
     <path id="m309d320b8f" d="M 187.064998 -66.685546 
L 75.257502 -66.685546 
L 73.299802 -69.46693 
L 71.381061 -72.248315 
L 69.509332 -75.029699 
L 67.692659 -77.811083 
L 65.939015 -80.592468 
L 64.256248 -83.373852 
L 62.652017 -86.155236 
L 61.133739 -88.936621 
L 59.708529 -91.718005 
L 58.383143 -94.499389 
L 57.163924 -97.280774 
L 56.056756 -100.062158 
L 55.067008 -102.843542 
L 54.199495 -105.624927 
L 53.458439 -108.406311 
L 52.847431 -111.187696 
L 52.369402 -113.96908 
L 52.026601 -116.750464 
L 51.820576 -119.531849 
L 51.752159 -122.313233 
L 51.821465 -125.094617 
L 52.027888 -127.876002 
L 52.370109 -130.657386 
L 52.846109 -133.43877 
L 53.453184 -136.220155 
L 54.187974 -139.001539 
L 55.046486 -141.782923 
L 56.024132 -144.564308 
L 57.115766 -147.345692 
L 58.315727 -150.127077 
L 59.61788 -152.908461 
L 61.015672 -155.689845 
L 62.502176 -158.47123 
L 64.070144 -161.252614 
L 65.712065 -164.033998 
L 67.420213 -166.815383 
L 69.186704 -169.596767 
L 71.003551 -172.378151 
L 72.86271 -175.159536 
L 74.756138 -177.94092 
L 76.675838 -180.722304 
L 78.613903 -183.503689 
L 80.562569 -186.285073 
L 82.514246 -189.066458 
L 84.461563 -191.847842 
L 86.3974 -194.629226 
L 88.314922 -197.410611 
L 90.207605 -200.191995 
L 92.069264 -202.973379 
L 93.894073 -205.754764 
L 95.676583 -208.536148 
L 97.41174 -211.317532 
L 99.094896 -214.098917 
L 100.721817 -216.880301 
L 102.288694 -219.661685 
L 103.792145 -222.44307 
L 105.229217 -225.224454 
L 106.597385 -228.005838 
L 107.894553 -230.787223 
L 109.119049 -233.568607 
L 110.269618 -236.349992 
L 111.345415 -239.131376 
L 112.346 -241.91276 
L 113.271324 -244.694145 
L 114.121723 -247.475529 
L 114.897899 -250.256913 
L 115.600914 -253.038298 
L 116.232175 -255.819682 
L 116.793413 -258.601066 
L 117.286674 -261.382451 
L 117.7143 -264.163835 
L 118.078909 -266.945219 
L 118.383376 -269.726604 
L 118.630818 -272.507988 
L 118.824568 -275.289373 
L 118.968153 -278.070757 
L 119.065274 -280.852141 
L 119.11978 -283.633526 
L 119.135645 -286.41491 
L 119.116939 -289.196294 
L 119.067805 -291.977679 
L 118.992428 -294.759063 
L 118.895012 -297.540447 
L 118.779749 -300.321832 
L 118.65079 -303.103216 
L 118.51222 -305.8846 
L 118.368027 -308.665985 
L 118.22208 -311.447369 
L 118.078095 -314.228753 
L 117.939616 -317.010138 
L 117.809988 -319.791522 
L 117.692338 -322.572907 
L 117.589549 -325.354291 
L 117.504249 -328.135675 
L 117.43879 -330.91706 
L 117.395237 -333.698444 
L 117.375357 -336.479828 
L 117.380614 -339.261213 
L 117.412161 -342.042597 
L 144.910339 -342.042597 
L 144.910339 -342.042597 
L 144.941886 -339.261213 
L 144.947143 -336.479828 
L 144.927263 -333.698444 
L 144.88371 -330.91706 
L 144.818251 -328.135675 
L 144.732951 -325.354291 
L 144.630162 -322.572907 
L 144.512512 -319.791522 
L 144.382884 -317.010138 
L 144.244405 -314.228753 
L 144.10042 -311.447369 
L 143.954473 -308.665985 
L 143.81028 -305.8846 
L 143.67171 -303.103216 
L 143.542751 -300.321832 
L 143.427488 -297.540447 
L 143.330072 -294.759063 
L 143.254695 -291.977679 
L 143.205561 -289.196294 
L 143.186855 -286.41491 
L 143.20272 -283.633526 
L 143.257226 -280.852141 
L 143.354347 -278.070757 
L 143.497932 -275.289373 
L 143.691682 -272.507988 
L 143.939124 -269.726604 
L 144.243591 -266.945219 
L 144.6082 -264.163835 
L 145.035826 -261.382451 
L 145.529087 -258.601066 
L 146.090325 -255.819682 
L 146.721586 -253.038298 
L 147.424601 -250.256913 
L 148.200777 -247.475529 
L 149.051176 -244.694145 
L 149.9765 -241.91276 
L 150.977085 -239.131376 
L 152.052882 -236.349992 
L 153.203451 -233.568607 
L 154.427947 -230.787223 
L 155.725115 -228.005838 
L 157.093283 -225.224454 
L 158.530355 -222.44307 
L 160.033806 -219.661685 
L 161.600683 -216.880301 
L 163.227604 -214.098917 
L 164.91076 -211.317532 
L 166.645917 -208.536148 
L 168.428427 -205.754764 
L 170.253236 -202.973379 
L 172.114895 -200.191995 
L 174.007578 -197.410611 
L 175.9251 -194.629226 
L 177.860937 -191.847842 
L 179.808254 -189.066458 
L 181.759931 -186.285073 
L 183.708597 -183.503689 
L 185.646662 -180.722304 
L 187.566362 -177.94092 
L 189.45979 -175.159536 
L 191.318949 -172.378151 
L 193.135796 -169.596767 
L 194.902287 -166.815383 
L 196.610435 -164.033998 
L 198.252356 -161.252614 
L 199.820324 -158.47123 
L 201.306828 -155.689845 
L 202.70462 -152.908461 
L 204.006773 -150.127077 
L 205.206734 -147.345692 
L 206.298368 -144.564308 
L 207.276014 -141.782923 
L 208.134526 -139.001539 
L 208.869316 -136.220155 
L 209.476391 -133.43877 
L 209.952391 -130.657386 
L 210.294612 -127.876002 
L 210.501035 -125.094617 
L 210.570341 -122.313233 
L 210.501924 -119.531849 
L 210.295899 -116.750464 
L 209.953098 -113.96908 
L 209.475069 -111.187696 
L 208.864061 -108.406311 
L 208.123005 -105.624927 
L 207.255492 -102.843542 
L 206.265744 -100.062158 
L 205.158576 -97.280774 
L 203.939357 -94.499389 
L 202.613971 -91.718005 
L 201.188761 -88.936621 
L 199.670483 -86.155236 
L 198.066252 -83.373852 
L 196.383485 -80.592468 
L 194.629841 -77.811083 
L 192.813168 -75.029699 
L 190.941439 -72.248315 
L 189.022698 -69.46693 
L 187.064998 -66.685546 
z
" style="stroke: #c2410c; stroke-opacity: 0.35"/>
    </defs>
    <g clip-path="url(#pd5a0f7d0f4)">
     <use xlink:href="#m309d320b8f" x="0" y="391.52407" style="fill: #c2410c; fill-opacity: 0.35; stroke: #c2410c; stroke-opacity: 0.35"/>
    </g>
   </g>
   <g id="LineCollection_1">
    <path d="M 91.456705 265.650965 
L 170.865795 265.650965 
" clip-path="url(#pd5a0f7d0f4)" style="fill: none; stroke: #c2410c; stroke-width: 1.5"/>
   </g>
   <g id="patch_3">
    <path d="M 43.81125 338.606376 
L 43.81125 35.71362 
" style="fill: none; stroke: #000000; stroke-width: 0.8; stroke-linejoin: miter; stroke-linecap: square"/>
   </g>
   <g id="patch_4">
    <path d="M 218.51125 338.606376 
L 218.51125 35.71362 
" style="fill: none; stroke: #000000; stroke-width: 0.8; stroke-linejoin: miter; stroke-linecap: square"/>
   </g>
   <g id="patch_5">
    <path d="M 43.81125 338.606376 
L 218.51125 338.606376 
" style="fill: none; stroke: #000000; stroke-width: 0.8; stroke-linejoin: miter; stroke-linecap: square"/>
   </g>
   <g id="patch_6">
    <path d="M 43.81125 35.71362 
L 218.51125 35.71362 
" style="fill: none; stroke: #000000; stroke-width: 0.8; stroke-linejoin: miter; stroke-linecap: square"/>
   </g>
  </g>
  <g id="axes_2">
   <g id="patch_7">
    <path d="M 269.38125 338.606376 
L 444.08125 338.606376 
L 444.08125 35.71362 
L 269.38125 35.71362 
z
" style="fill: #ffffff"/>
   </g>
   <g id="matplotlib.axis_3">
    <g id="xtick_2">
     <g id="line2d_13">
      <path d="M 356.73125 338.606376 
L 356.73125 35.71362 
" clip-path="url(#p82da411a20)" style="fill: none; stroke: #b0b0b0; stroke-opacity: 0.2; stroke-width: 0.6; stroke-linecap: square"/>
     </g>
     <g id="line2d_14">
      <g>
       <use xlink:href="#m66c8164205" x="356.73125" y="338.606376" style="stroke: #000000; stroke-width: 0.8"/>
      </g>
     </g>
     <g id="text_8">
      <!-- Loudness variability -->
      <g transform="translate(250.020135 382.114363) rotate(-15) scale(0.11 -0.11)">
       <defs>
        <path id="DejaVuSans-4c" d="M 628 4666 
L 1259 4666 
L 1259 531 
L 3531 531 
L 3531 0 
L 628 0 
L 628 4666 
z
" transform="scale(0.015625)"/>
        <path id="DejaVuSans-75" d="M 544 1381 
L 544 3500 
L 1119 3500 
L 1119 1403 
Q 1119 906 1312 657 
Q 1506 409 1894 409 
Q 2359 409 2629 706 
Q 2900 1003 2900 1516 
L 2900 3500 
L 3475 3500 
L 3475 0 
L 2900 0 
L 2900 538 
Q 2691 219 2414 64 
Q 2138 -91 1772 -91 
Q 1169 -91 856 284 
Q 544 659 544 1381 
z
M 1991 3584 
L 1991 3584 
z
" transform="scale(0.015625)"/>
        <path id="DejaVuSans-64" d="M 2906 2969 
L 2906 4863 
L 3481 4863 
L 3481 0 
L 2906 0 
L 2906 525 
Q 2725 213 2448 61 
Q 2172 -91 1784 -91 
Q 1150 -91 751 415 
Q 353 922 353 1747 
Q 353 2572 751 3078 
Q 1150 3584 1784 3584 
Q 2172 3584 2448 3432 
Q 2725 3281 2906 2969 
z
M 947 1747 
Q 947 1113 1208 752 
Q 1469 391 1925 391 
Q 2381 391 2643 752 
Q 2906 1113 2906 1747 
Q 2906 2381 2643 2742 
Q 2381 3103 1925 3103 
Q 1469 3103 1208 2742 
Q 947 2381 947 1747 
z
" transform="scale(0.015625)"/>
       </defs>
       <use xlink:href="#DejaVuSans-4c"/>
       <use xlink:href="#DejaVuSans-6f" transform="translate(53.962891 0)"/>
       <use xlink:href="#DejaVuSans-75" transform="translate(115.144531 0)"/>
       <use xlink:href="#DejaVuSans-64" transform="translate(178.523438 0)"/>
       <use xlink:href="#DejaVuSans-6e" transform="translate(242 0)"/>
       <use xlink:href="#DejaVuSans-65" transform="translate(305.378906 0)"/>
       <use xlink:href="#DejaVuSans-73" transform="translate(366.902344 0)"/>
       <use xlink:href="#DejaVuSans-73" transform="translate(419.001953 0)"/>
       <use xlink:href="#DejaVuSans-20" transform="translate(471.101562 0)"/>
       <use xlink:href="#DejaVuSans-76" transform="translate(502.888672 0)"/>
       <use xlink:href="#DejaVuSans-61" transform="translate(562.068359 0)"/>
       <use xlink:href="#DejaVuSans-72" transform="translate(623.347656 0)"/>
       <use xlink:href="#DejaVuSans-69" transform="translate(664.460938 0)"/>
       <use xlink:href="#DejaVuSans-61" transform="translate(692.244141 0)"/>
       <use xlink:href="#DejaVuSans-62" transform="translate(753.523438 0)"/>
       <use xlink:href="#DejaVuSans-69" transform="translate(817 0)"/>
       <use xlink:href="#DejaVuSans-6c" transform="translate(844.783203 0)"/>
       <use xlink:href="#DejaVuSans-69" transform="translate(872.566406 0)"/>
       <use xlink:href="#DejaVuSans-74" transform="translate(900.349609 0)"/>
       <use xlink:href="#DejaVuSans-79" transform="translate(939.558594 0)"/>
      </g>
     </g>
    </g>
   </g>
   <g id="matplotlib.axis_4">
    <g id="ytick_6">
     <g id="line2d_15">
      <path d="M 269.38125 338.478401 
L 444.08125 338.478401 
" clip-path="url(#p82da411a20)" style="fill: none; stroke: #b0b0b0; stroke-opacity: 0.2; stroke-width: 0.6; stroke-linecap: square"/>
     </g>
     <g id="line2d_16">
      <g>
       <use xlink:href="#m0bb34b70aa" x="269.38125" y="338.478401" style="stroke: #000000; stroke-width: 0.8"/>
      </g>
     </g>
     <g id="text_9">
      <!-- 0.8 -->
      <g transform="translate(244.887813 342.657542) scale(0.11 -0.11)">
       <defs>
        <path id="DejaVuSans-2e" d="M 684 794 
L 1344 794 
L 1344 0 
L 684 0 
L 684 794 
z
" transform="scale(0.015625)"/>
        <path id="DejaVuSans-38" d="M 2034 2216 
Q 1584 2216 1326 1975 
Q 1069 1734 1069 1313 
Q 1069 891 1326 650 
Q 1584 409 2034 409 
Q 2484 409 2743 651 
Q 3003 894 3003 1313 
Q 3003 1734 2745 1975 
Q 2488 2216 2034 2216 
z
M 1403 2484 
Q 997 2584 770 2862 
Q 544 3141 544 3541 
Q 544 4100 942 4425 
Q 1341 4750 2034 4750 
Q 2731 4750 3128 4425 
Q 3525 4100 3525 3541 
Q 3525 3141 3298 2862 
Q 3072 2584 2669 2484 
Q 3125 2378 3379 2068 
Q 3634 1759 3634 1313 
Q 3634 634 3220 271 
Q 2806 -91 2034 -91 
Q 1263 -91 848 271 
Q 434 634 434 1313 
Q 434 1759 690 2068 
Q 947 2378 1403 2484 
z
M 1172 3481 
Q 1172 3119 1398 2916 
Q 1625 2713 2034 2713 
Q 2441 2713 2670 2916 
Q 2900 3119 2900 3481 
Q 2900 3844 2670 4047 
Q 2441 4250 2034 4250 
Q 1625 4250 1398 4047 
Q 1172 3844 1172 3481 
z
" transform="scale(0.015625)"/>
       </defs>
       <use xlink:href="#DejaVuSans-30"/>
       <use xlink:href="#DejaVuSans-2e" transform="translate(63.623047 0)"/>
       <use xlink:href="#DejaVuSans-38" transform="translate(95.410156 0)"/>
      </g>
     </g>
    </g>
    <g id="ytick_7">
     <g id="line2d_17">
      <path d="M 269.38125 278.53067 
L 444.08125 278.53067 
" clip-path="url(#p82da411a20)" style="fill: none; stroke: #b0b0b0; stroke-opacity: 0.2; stroke-width: 0.6; stroke-linecap: square"/>
     </g>
     <g id="line2d_18">
      <g>
       <use xlink:href="#m0bb34b70aa" x="269.38125" y="278.53067" style="stroke: #000000; stroke-width: 0.8"/>
      </g>
     </g>
     <g id="text_10">
      <!-- 0.9 -->
      <g transform="translate(244.887813 282.709811) scale(0.11 -0.11)">
       <defs>
        <path id="DejaVuSans-39" d="M 703 97 
L 703 672 
Q 941 559 1184 500 
Q 1428 441 1663 441 
Q 2288 441 2617 861 
Q 2947 1281 2994 2138 
Q 2813 1869 2534 1725 
Q 2256 1581 1919 1581 
Q 1219 1581 811 2004 
Q 403 2428 403 3163 
Q 403 3881 828 4315 
Q 1253 4750 1959 4750 
Q 2769 4750 3195 4129 
Q 3622 3509 3622 2328 
Q 3622 1225 3098 567 
Q 2575 -91 1691 -91 
Q 1453 -91 1209 -44 
Q 966 3 703 97 
z
M 1959 2075 
Q 2384 2075 2632 2365 
Q 2881 2656 2881 3163 
Q 2881 3666 2632 3958 
Q 2384 4250 1959 4250 
Q 1534 4250 1286 3958 
Q 1038 3666 1038 3163 
Q 1038 2656 1286 2365 
Q 1534 2075 1959 2075 
z
" transform="scale(0.015625)"/>
       </defs>
       <use xlink:href="#DejaVuSans-30"/>
       <use xlink:href="#DejaVuSans-2e" transform="translate(63.623047 0)"/>
       <use xlink:href="#DejaVuSans-39" transform="translate(95.410156 0)"/>
      </g>
     </g>
    </g>
    <g id="ytick_8">
     <g id="line2d_19">
      <path d="M 269.38125 218.582939 
L 444.08125 218.582939 
" clip-path="url(#p82da411a20)" style="fill: none; stroke: #b0b0b0; stroke-opacity: 0.2; stroke-width: 0.6; stroke-linecap: square"/>
     </g>
     <g id="line2d_20">
      <g>
       <use xlink:href="#m0bb34b70aa" x="269.38125" y="218.582939" style="stroke: #000000; stroke-width: 0.8"/>
      </g>
     </g>
     <g id="text_11">
      <!-- 1.0 -->
      <g transform="translate(244.887813 222.76208) scale(0.11 -0.11)">
       <use xlink:href="#DejaVuSans-31"/>
       <use xlink:href="#DejaVuSans-2e" transform="translate(63.623047 0)"/>
       <use xlink:href="#DejaVuSans-30" transform="translate(95.410156 0)"/>
      </g>
     </g>
    </g>
    <g id="ytick_9">
     <g id="line2d_21">
      <path d="M 269.38125 158.635208 
L 444.08125 158.635208 
" clip-path="url(#p82da411a20)" style="fill: none; stroke: #b0b0b0; stroke-opacity: 0.2; stroke-width: 0.6; stroke-linecap: square"/>
     </g>
     <g id="line2d_22">
      <g>
       <use xlink:href="#m0bb34b70aa" x="269.38125" y="158.635208" style="stroke: #000000; stroke-width: 0.8"/>
      </g>
     </g>
     <g id="text_12">
      <!-- 1.1 -->
      <g transform="translate(244.887813 162.814349) scale(0.11 -0.11)">
       <use xlink:href="#DejaVuSans-31"/>
       <use xlink:href="#DejaVuSans-2e" transform="translate(63.623047 0)"/>
       <use xlink:href="#DejaVuSans-31" transform="translate(95.410156 0)"/>
      </g>
     </g>
    </g>
    <g id="ytick_10">
     <g id="line2d_23">
      <path d="M 269.38125 98.687477 
L 444.08125 98.687477 
" clip-path="url(#p82da411a20)" style="fill: none; stroke: #b0b0b0; stroke-opacity: 0.2; stroke-width: 0.6; stroke-linecap: square"/>
     </g>
     <g id="line2d_24">
      <g>
       <use xlink:href="#m0bb34b70aa" x="269.38125" y="98.687477" style="stroke: #000000; stroke-width: 0.8"/>
      </g>
     </g>
     <g id="text_13">
      <!-- 1.2 -->
      <g transform="translate(244.887813 102.866618) scale(0.11 -0.11)">
       <use xlink:href="#DejaVuSans-31"/>
       <use xlink:href="#DejaVuSans-2e" transform="translate(63.623047 0)"/>
       <use xlink:href="#DejaVuSans-32" transform="translate(95.410156 0)"/>
      </g>
     </g>
    </g>
    <g id="ytick_11">
     <g id="line2d_25">
      <path d="M 269.38125 38.739746 
L 444.08125 38.739746 
" clip-path="url(#p82da411a20)" style="fill: none; stroke: #b0b0b0; stroke-opacity: 0.2; stroke-width: 0.6; stroke-linecap: square"/>
     </g>
     <g id="line2d_26">
      <g>
       <use xlink:href="#m0bb34b70aa" x="269.38125" y="38.739746" style="stroke: #000000; stroke-width: 0.8"/>
      </g>
     </g>
     <g id="text_14">
      <!-- 1.3 -->
      <g transform="translate(244.887813 42.918887) scale(0.11 -0.11)">
       <defs>
        <path id="DejaVuSans-33" d="M 2597 2516 
Q 3050 2419 3304 2112 
Q 3559 1806 3559 1356 
Q 3559 666 3084 287 
Q 2609 -91 1734 -91 
Q 1441 -91 1130 -33 
Q 819 25 488 141 
L 488 750 
Q 750 597 1062 519 
Q 1375 441 1716 441 
Q 2309 441 2620 675 
Q 2931 909 2931 1356 
Q 2931 1769 2642 2001 
Q 2353 2234 1838 2234 
L 1294 2234 
L 1294 2753 
L 1863 2753 
Q 2328 2753 2575 2939 
Q 2822 3125 2822 3475 
Q 2822 3834 2567 4026 
Q 2313 4219 1838 4219 
Q 1578 4219 1281 4162 
Q 984 4106 628 3988 
L 628 4550 
Q 988 4650 1302 4700 
Q 1616 4750 1894 4750 
Q 2613 4750 3031 4423 
Q 3450 4097 3450 3541 
Q 3450 3153 3228 2886 
Q 3006 2619 2597 2516 
z
" transform="scale(0.015625)"/>
       </defs>
       <use xlink:href="#DejaVuSans-31"/>
       <use xlink:href="#DejaVuSans-2e" transform="translate(63.623047 0)"/>
       <use xlink:href="#DejaVuSans-33" transform="translate(95.410156 0)"/>
      </g>
     </g>
    </g>
    <g id="text_15">
     <!-- normalized SD -->
     <g transform="translate(238.392188 230.836248) rotate(-90) scale(0.12 -0.12)">
      <defs>
       <path id="DejaVuSans-7a" d="M 353 3500 
L 3084 3500 
L 3084 2975 
L 922 459 
L 3084 459 
L 3084 0 
L 275 0 
L 275 525 
L 2438 3041 
L 353 3041 
L 353 3500 
z
" transform="scale(0.015625)"/>
       <path id="DejaVuSans-53" d="M 3425 4513 
L 3425 3897 
Q 3066 4069 2747 4153 
Q 2428 4238 2131 4238 
Q 1616 4238 1336 4038 
Q 1056 3838 1056 3469 
Q 1056 3159 1242 3001 
Q 1428 2844 1947 2747 
L 2328 2669 
Q 3034 2534 3370 2195 
Q 3706 1856 3706 1288 
Q 3706 609 3251 259 
Q 2797 -91 1919 -91 
Q 1588 -91 1214 -16 
Q 841 59 441 206 
L 441 856 
Q 825 641 1194 531 
Q 1563 422 1919 422 
Q 2459 422 2753 634 
Q 3047 847 3047 1241 
Q 3047 1584 2836 1778 
Q 2625 1972 2144 2069 
L 1759 2144 
Q 1053 2284 737 2584 
Q 422 2884 422 3419 
Q 422 4038 858 4394 
Q 1294 4750 2059 4750 
Q 2388 4750 2728 4690 
Q 3069 4631 3425 4513 
z
" transform="scale(0.015625)"/>
       <path id="DejaVuSans-44" d="M 1259 4147 
L 1259 519 
L 2022 519 
Q 2988 519 3436 956 
Q 3884 1394 3884 2338 
Q 3884 3275 3436 3711 
Q 2988 4147 2022 4147 
L 1259 4147 
z
M 628 4666 
L 1925 4666 
Q 3281 4666 3915 4102 
Q 4550 3538 4550 2338 
Q 4550 1131 3912 565 
Q 3275 0 1925 0 
L 628 0 
L 628 4666 
z
" transform="scale(0.015625)"/>
      </defs>
      <use xlink:href="#DejaVuSans-6e"/>
      <use xlink:href="#DejaVuSans-6f" transform="translate(63.378906 0)"/>
      <use xlink:href="#DejaVuSans-72" transform="translate(124.560547 0)"/>
      <use xlink:href="#DejaVuSans-6d" transform="translate(163.923828 0)"/>
      <use xlink:href="#DejaVuSans-61" transform="translate(261.335938 0)"/>
      <use xlink:href="#DejaVuSans-6c" transform="translate(322.615234 0)"/>
      <use xlink:href="#DejaVuSans-69" transform="translate(350.398438 0)"/>
      <use xlink:href="#DejaVuSans-7a" transform="translate(378.181641 0)"/>
      <use xlink:href="#DejaVuSans-65" transform="translate(430.671875 0)"/>
      <use xlink:href="#DejaVuSans-64" transform="translate(492.195312 0)"/>
      <use xlink:href="#DejaVuSans-20" transform="translate(555.671875 0)"/>
      <use xlink:href="#DejaVuSans-53" transform="translate(587.458984 0)"/>
      <use xlink:href="#DejaVuSans-44" transform="translate(650.935547 0)"/>
     </g>
    </g>
   </g>
   <g id="FillBetweenPolyCollection_2">
    <defs>
     <path id="m404bb429fb" d="M 406.490431 -66.685546 
L 306.972069 -66.685546 
L 306.162635 -69.46693 
L 305.375842 -72.248315 
L 304.611039 -75.029699 
L 303.867423 -77.811083 
L 303.144049 -80.592468 
L 302.43985 -83.373852 
L 301.753652 -86.155236 
L 301.084196 -88.936621 
L 300.430154 -91.718005 
L 299.790152 -94.499389 
L 299.162791 -97.280774 
L 298.546667 -100.062158 
L 297.940392 -102.843542 
L 297.342614 -105.624927 
L 296.752037 -108.406311 
L 296.167439 -111.187696 
L 295.587687 -113.96908 
L 295.011756 -116.750464 
L 294.438739 -119.531849 
L 293.867861 -122.313233 
L 293.298487 -125.094617 
L 292.730129 -127.876002 
L 292.162454 -130.657386 
L 291.595282 -133.43877 
L 291.028588 -136.220155 
L 290.462501 -139.001539 
L 289.8973 -141.782923 
L 289.333406 -144.564308 
L 288.771372 -147.345692 
L 288.211877 -150.127077 
L 287.655712 -152.908461 
L 287.103768 -155.689845 
L 286.557019 -158.47123 
L 286.01651 -161.252614 
L 285.48334 -164.033998 
L 284.95865 -166.815383 
L 284.443599 -169.596767 
L 283.939358 -172.378151 
L 283.44709 -175.159536 
L 282.967937 -177.94092 
L 282.503007 -180.722304 
L 282.053363 -183.503689 
L 281.620013 -186.285073 
L 281.203903 -189.066458 
L 280.805908 -191.847842 
L 280.426827 -194.629226 
L 280.067383 -197.410611 
L 279.72822 -200.191995 
L 279.409906 -202.973379 
L 279.112933 -205.754764 
L 278.837722 -208.536148 
L 278.584634 -211.317532 
L 278.35397 -214.098917 
L 278.145987 -216.880301 
L 277.960902 -219.661685 
L 277.798908 -222.44307 
L 277.660181 -225.224454 
L 277.544896 -228.005838 
L 277.453233 -230.787223 
L 277.385395 -233.568607 
L 277.341612 -236.349992 
L 277.322159 -239.131376 
L 277.327358 -241.91276 
L 277.357591 -244.694145 
L 277.413303 -247.475529 
L 277.495011 -250.256913 
L 277.603306 -253.038298 
L 277.738851 -255.819682 
L 277.902387 -258.601066 
L 278.094725 -261.382451 
L 278.316747 -264.163835 
L 278.569394 -266.945219 
L 278.853664 -269.726604 
L 279.170598 -272.507988 
L 279.521272 -275.289373 
L 279.90678 -278.070757 
L 280.328223 -280.852141 
L 280.786694 -283.633526 
L 281.28326 -286.41491 
L 281.818945 -289.196294 
L 282.394715 -291.977679 
L 283.01146 -294.759063 
L 283.669974 -297.540447 
L 284.370944 -300.321832 
L 285.114928 -303.103216 
L 285.902343 -305.8846 
L 286.73345 -308.665985 
L 287.608342 -311.447369 
L 288.526931 -314.228753 
L 289.488943 -317.010138 
L 290.493902 -319.791522 
L 291.541133 -322.572907 
L 292.629754 -325.354291 
L 293.758674 -328.135675 
L 294.926595 -330.91706 
L 296.132014 -333.698444 
L 297.37323 -336.479828 
L 298.648347 -339.261213 
L 299.955286 -342.042597 
L 413.507214 -342.042597 
L 413.507214 -342.042597 
L 414.814153 -339.261213 
L 416.08927 -336.479828 
L 417.330486 -333.698444 
L 418.535905 -330.91706 
L 419.703826 -328.135675 
L 420.832746 -325.354291 
L 421.921367 -322.572907 
L 422.968598 -319.791522 
L 423.973557 -317.010138 
L 424.935569 -314.228753 
L 425.854158 -311.447369 
L 426.72905 -308.665985 
L 427.560157 -305.8846 
L 428.347572 -303.103216 
L 429.091556 -300.321832 
L 429.792526 -297.540447 
L 430.45104 -294.759063 
L 431.067785 -291.977679 
L 431.643555 -289.196294 
L 432.17924 -286.41491 
L 432.675806 -283.633526 
L 433.134277 -280.852141 
L 433.55572 -278.070757 
L 433.941228 -275.289373 
L 434.291902 -272.507988 
L 434.608836 -269.726604 
L 434.893106 -266.945219 
L 435.145753 -264.163835 
L 435.367775 -261.382451 
L 435.560113 -258.601066 
L 435.723649 -255.819682 
L 435.859194 -253.038298 
L 435.967489 -250.256913 
L 436.049197 -247.475529 
L 436.104909 -244.694145 
L 436.135142 -241.91276 
L 436.140341 -239.131376 
L 436.120888 -236.349992 
L 436.077105 -233.568607 
L 436.009267 -230.787223 
L 435.917604 -228.005838 
L 435.802319 -225.224454 
L 435.663592 -222.44307 
L 435.501598 -219.661685 
L 435.316513 -216.880301 
L 435.10853 -214.098917 
L 434.877866 -211.317532 
L 434.624778 -208.536148 
L 434.349567 -205.754764 
L 434.052594 -202.973379 
L 433.73428 -200.191995 
L 433.395117 -197.410611 
L 433.035673 -194.629226 
L 432.656592 -191.847842 
L 432.258597 -189.066458 
L 431.842487 -186.285073 
L 431.409137 -183.503689 
L 430.959493 -180.722304 
L 430.494563 -177.94092 
L 430.01541 -175.159536 
L 429.523142 -172.378151 
L 429.018901 -169.596767 
L 428.50385 -166.815383 
L 427.97916 -164.033998 
L 427.44599 -161.252614 
L 426.905481 -158.47123 
L 426.358732 -155.689845 
L 425.806788 -152.908461 
L 425.250623 -150.127077 
L 424.691128 -147.345692 
L 424.129094 -144.564308 
L 423.5652 -141.782923 
L 422.999999 -139.001539 
L 422.433912 -136.220155 
L 421.867218 -133.43877 
L 421.300046 -130.657386 
L 420.732371 -127.876002 
L 420.164013 -125.094617 
L 419.594639 -122.313233 
L 419.023761 -119.531849 
L 418.450744 -116.750464 
L 417.874813 -113.96908 
L 417.295061 -111.187696 
L 416.710463 -108.406311 
L 416.119886 -105.624927 
L 415.522108 -102.843542 
L 414.915833 -100.062158 
L 414.299709 -97.280774 
L 413.672348 -94.499389 
L 413.032346 -91.718005 
L 412.378304 -88.936621 
L 411.708848 -86.155236 
L 411.02265 -83.373852 
L 410.318451 -80.592468 
L 409.595077 -77.811083 
L 408.851461 -75.029699 
L 408.086658 -72.248315 
L 407.299865 -69.46693 
L 406.490431 -66.685546 
z
" style="stroke: #c2410c; stroke-opacity: 0.35"/>
    </defs>
    <g clip-path="url(#p82da411a20)">
     <use xlink:href="#m404bb429fb" x="0" y="391.52407" style="fill: #c2410c; fill-opacity: 0.35; stroke: #c2410c; stroke-opacity: 0.35"/>
    </g>
   </g>
   <g id="LineCollection_2">
    <path d="M 317.026705 186.085168 
L 396.435795 186.085168 
" clip-path="url(#p82da411a20)" style="fill: none; stroke: #c2410c; stroke-width: 1.5"/>
   </g>
   <g id="patch_8">
    <path d="M 269.38125 338.606376 
L 269.38125 35.71362 
" style="fill: none; stroke: #000000; stroke-width: 0.8; stroke-linejoin: miter; stroke-linecap: square"/>
   </g>
   <g id="patch_9">
    <path d="M 444.08125 338.606376 
L 444.08125 35.71362 
" style="fill: none; stroke: #000000; stroke-width: 0.8; stroke-linejoin: miter; stroke-linecap: square"/>
   </g>
   <g id="patch_10">
    <path d="M 269.38125 338.606376 
L 444.08125 338.606376 
" style="fill: none; stroke: #000000; stroke-width: 0.8; stroke-linejoin: miter; stroke-linecap: square"/>
   </g>
   <g id="patch_11">
    <path d="M 269.38125 35.71362 
L 444.08125 35.71362 
" style="fill: none; stroke: #000000; stroke-width: 0.8; stroke-linejoin: miter; stroke-linecap: square"/>
   </g>
  </g>
  <g id="axes_3">
   <g id="patch_12">
    <path d="M 494.95125 338.606376 
L 669.65125 338.606376 
L 669.65125 35.71362 
L 494.95125 35.71362 
z
" style="fill: #ffffff"/>
   </g>
   <g id="matplotlib.axis_5">
    <g id="xtick_3">
     <g id="line2d_27">
      <path d="M 582.30125 338.606376 
L 582.30125 35.71362 
" clip-path="url(#pc507c4131b)" style="fill: none; stroke: #b0b0b0; stroke-opacity: 0.2; stroke-width: 0.6; stroke-linecap: square"/>
     </g>
     <g id="line2d_28">
      <g>
       <use xlink:href="#m66c8164205" x="582.30125" y="338.606376" style="stroke: #000000; stroke-width: 0.8"/>
      </g>
     </g>
     <g id="text_16">
      <!-- Speech rate -->
      <g transform="translate(517.607757 370.855775) rotate(-15) scale(0.11 -0.11)">
       <defs>
        <path id="DejaVuSans-70" d="M 1159 525 
L 1159 -1331 
L 581 -1331 
L 581 3500 
L 1159 3500 
L 1159 2969 
Q 1341 3281 1617 3432 
Q 1894 3584 2278 3584 
Q 2916 3584 3314 3078 
Q 3713 2572 3713 1747 
Q 3713 922 3314 415 
Q 2916 -91 2278 -91 
Q 1894 -91 1617 61 
Q 1341 213 1159 525 
z
M 3116 1747 
Q 3116 2381 2855 2742 
Q 2594 3103 2138 3103 
Q 1681 3103 1420 2742 
Q 1159 2381 1159 1747 
Q 1159 1113 1420 752 
Q 1681 391 2138 391 
Q 2594 391 2855 752 
Q 3116 1113 3116 1747 
z
" transform="scale(0.015625)"/>
       </defs>
       <use xlink:href="#DejaVuSans-53"/>
       <use xlink:href="#DejaVuSans-70" transform="translate(63.476562 0)"/>
       <use xlink:href="#DejaVuSans-65" transform="translate(126.953125 0)"/>
       <use xlink:href="#DejaVuSans-65" transform="translate(188.476562 0)"/>
       <use xlink:href="#DejaVuSans-63" transform="translate(250 0)"/>
       <use xlink:href="#DejaVuSans-68" transform="translate(304.980469 0)"/>
       <use xlink:href="#DejaVuSans-20" transform="translate(368.359375 0)"/>
       <use xlink:href="#DejaVuSans-72" transform="translate(400.146484 0)"/>
       <use xlink:href="#DejaVuSans-61" transform="translate(441.259766 0)"/>
       <use xlink:href="#DejaVuSans-74" transform="translate(502.539062 0)"/>
       <use xlink:href="#DejaVuSans-65" transform="translate(541.748047 0)"/>
      </g>
     </g>
    </g>
   </g>
   <g id="matplotlib.axis_6">
    <g id="ytick_12">
     <g id="line2d_29">
      <path d="M 494.95125 296.578076 
L 669.65125 296.578076 
" clip-path="url(#pc507c4131b)" style="fill: none; stroke: #b0b0b0; stroke-opacity: 0.2; stroke-width: 0.6; stroke-linecap: square"/>
     </g>
     <g id="line2d_30">
      <g>
       <use xlink:href="#m0bb34b70aa" x="494.95125" y="296.578076" style="stroke: #000000; stroke-width: 0.8"/>
      </g>
     </g>
     <g id="text_17">
      <!-- 1.0 -->
      <g transform="translate(470.457812 300.757216) scale(0.11 -0.11)">
       <use xlink:href="#DejaVuSans-31"/>
       <use xlink:href="#DejaVuSans-2e" transform="translate(63.623047 0)"/>
       <use xlink:href="#DejaVuSans-30" transform="translate(95.410156 0)"/>
      </g>
     </g>
    </g>
    <g id="ytick_13">
     <g id="line2d_31">
      <path d="M 494.95125 236.096916 
L 669.65125 236.096916 
" clip-path="url(#pc507c4131b)" style="fill: none; stroke: #b0b0b0; stroke-opacity: 0.2; stroke-width: 0.6; stroke-linecap: square"/>
     </g>
     <g id="line2d_32">
      <g>
       <use xlink:href="#m0bb34b70aa" x="494.95125" y="236.096916" style="stroke: #000000; stroke-width: 0.8"/>
      </g>
     </g>
     <g id="text_18">
      <!-- 1.5 -->
      <g transform="translate(470.457812 240.276057) scale(0.11 -0.11)">
       <use xlink:href="#DejaVuSans-31"/>
       <use xlink:href="#DejaVuSans-2e" transform="translate(63.623047 0)"/>
       <use xlink:href="#DejaVuSans-35" transform="translate(95.410156 0)"/>
      </g>
     </g>
    </g>
    <g id="ytick_14">
     <g id="line2d_33">
      <path d="M 494.95125 175.615757 
L 669.65125 175.615757 
" clip-path="url(#pc507c4131b)" style="fill: none; stroke: #b0b0b0; stroke-opacity: 0.2; stroke-width: 0.6; stroke-linecap: square"/>
     </g>
     <g id="line2d_34">
      <g>
       <use xlink:href="#m0bb34b70aa" x="494.95125" y="175.615757" style="stroke: #000000; stroke-width: 0.8"/>
      </g>
     </g>
     <g id="text_19">
      <!-- 2.0 -->
      <g transform="translate(470.457812 179.794898) scale(0.11 -0.11)">
       <use xlink:href="#DejaVuSans-32"/>
       <use xlink:href="#DejaVuSans-2e" transform="translate(63.623047 0)"/>
       <use xlink:href="#DejaVuSans-30" transform="translate(95.410156 0)"/>
      </g>
     </g>
    </g>
    <g id="ytick_15">
     <g id="line2d_35">
      <path d="M 494.95125 115.134598 
L 669.65125 115.134598 
" clip-path="url(#pc507c4131b)" style="fill: none; stroke: #b0b0b0; stroke-opacity: 0.2; stroke-width: 0.6; stroke-linecap: square"/>
     </g>
     <g id="line2d_36">
      <g>
       <use xlink:href="#m0bb34b70aa" x="494.95125" y="115.134598" style="stroke: #000000; stroke-width: 0.8"/>
      </g>
     </g>
     <g id="text_20">
      <!-- 2.5 -->
      <g transform="translate(470.457812 119.313738) scale(0.11 -0.11)">
       <use xlink:href="#DejaVuSans-32"/>
       <use xlink:href="#DejaVuSans-2e" transform="translate(63.623047 0)"/>
       <use xlink:href="#DejaVuSans-35" transform="translate(95.410156 0)"/>
      </g>
     </g>
    </g>
    <g id="ytick_16">
     <g id="line2d_37">
      <path d="M 494.95125 54.653438 
L 669.65125 54.653438 
" clip-path="url(#pc507c4131b)" style="fill: none; stroke: #b0b0b0; stroke-opacity: 0.2; stroke-width: 0.6; stroke-linecap: square"/>
     </g>
     <g id="line2d_38">
      <g>
       <use xlink:href="#m0bb34b70aa" x="494.95125" y="54.653438" style="stroke: #000000; stroke-width: 0.8"/>
      </g>
     </g>
     <g id="text_21">
      <!-- 3.0 -->
      <g transform="translate(470.457812 58.832579) scale(0.11 -0.11)">
       <use xlink:href="#DejaVuSans-33"/>
       <use xlink:href="#DejaVuSans-2e" transform="translate(63.623047 0)"/>
       <use xlink:href="#DejaVuSans-30" transform="translate(95.410156 0)"/>
      </g>
     </g>
    </g>
    <g id="text_22">
     <!-- segments / second -->
     <g transform="translate(463.962187 243.837498) rotate(-90) scale(0.12 -0.12)">
      <defs>
       <path id="DejaVuSans-67" d="M 2906 1791 
Q 2906 2416 2648 2759 
Q 2391 3103 1925 3103 
Q 1463 3103 1205 2759 
Q 947 2416 947 1791 
Q 947 1169 1205 825 
Q 1463 481 1925 481 
Q 2391 481 2648 825 
Q 2906 1169 2906 1791 
z
M 3481 434 
Q 3481 -459 3084 -895 
Q 2688 -1331 1869 -1331 
Q 1566 -1331 1297 -1286 
Q 1028 -1241 775 -1147 
L 775 -588 
Q 1028 -725 1275 -790 
Q 1522 -856 1778 -856 
Q 2344 -856 2625 -561 
Q 2906 -266 2906 331 
L 2906 616 
Q 2728 306 2450 153 
Q 2172 0 1784 0 
Q 1141 0 747 490 
Q 353 981 353 1791 
Q 353 2603 747 3093 
Q 1141 3584 1784 3584 
Q 2172 3584 2450 3431 
Q 2728 3278 2906 2969 
L 2906 3500 
L 3481 3500 
L 3481 434 
z
" transform="scale(0.015625)"/>
       <path id="DejaVuSans-2f" d="M 1625 4666 
L 2156 4666 
L 531 -594 
L 0 -594 
L 1625 4666 
z
" transform="scale(0.015625)"/>
      </defs>
      <use xlink:href="#DejaVuSans-73"/>
      <use xlink:href="#DejaVuSans-65" transform="translate(52.099609 0)"/>
      <use xlink:href="#DejaVuSans-67" transform="translate(113.623047 0)"/>
      <use xlink:href="#DejaVuSans-6d" transform="translate(177.099609 0)"/>
      <use xlink:href="#DejaVuSans-65" transform="translate(274.511719 0)"/>
      <use xlink:href="#DejaVuSans-6e" transform="translate(336.035156 0)"/>
      <use xlink:href="#DejaVuSans-74" transform="translate(399.414062 0)"/>
      <use xlink:href="#DejaVuSans-73" transform="translate(438.623047 0)"/>
      <use xlink:href="#DejaVuSans-20" transform="translate(490.722656 0)"/>
      <use xlink:href="#DejaVuSans-2f" transform="translate(522.509766 0)"/>
      <use xlink:href="#DejaVuSans-20" transform="translate(556.201172 0)"/>
      <use xlink:href="#DejaVuSans-73" transform="translate(587.988281 0)"/>
      <use xlink:href="#DejaVuSans-65" transform="translate(640.087891 0)"/>
      <use xlink:href="#DejaVuSans-63" transform="translate(701.611328 0)"/>
      <use xlink:href="#DejaVuSans-6f" transform="translate(756.591797 0)"/>
      <use xlink:href="#DejaVuSans-6e" transform="translate(817.773438 0)"/>
      <use xlink:href="#DejaVuSans-64" transform="translate(881.152344 0)"/>
     </g>
    </g>
   </g>
   <g id="FillBetweenPolyCollection_3">
    <defs>
     <path id="med48da8efc" d="M 626.595544 -66.685546 
L 538.006956 -66.685546 
L 536.063787 -69.46693 
L 534.111143 -72.248315 
L 532.155242 -75.029699 
L 530.202653 -77.811083 
L 528.26027 -80.592468 
L 526.335277 -83.373852 
L 524.435106 -86.155236 
L 522.567396 -88.936621 
L 520.73994 -91.718005 
L 518.960635 -94.499389 
L 517.237417 -97.280774 
L 515.578203 -100.062158 
L 513.990825 -102.843542 
L 512.482965 -105.624927 
L 511.062082 -108.406311 
L 509.735349 -111.187696 
L 508.509585 -113.96908 
L 507.391184 -116.750464 
L 506.386061 -119.531849 
L 505.499584 -122.313233 
L 504.736526 -125.094617 
L 504.101014 -127.876002 
L 503.596485 -130.657386 
L 503.225654 -133.43877 
L 502.990482 -136.220155 
L 502.892159 -139.001539 
L 502.93109 -141.782923 
L 503.106892 -144.564308 
L 503.4184 -147.345692 
L 503.863676 -150.127077 
L 504.440036 -152.908461 
L 505.14407 -155.689845 
L 505.971685 -158.47123 
L 506.918139 -161.252614 
L 507.978092 -164.033998 
L 509.145656 -166.815383 
L 510.414448 -169.596767 
L 511.777651 -172.378151 
L 513.228074 -175.159536 
L 514.758207 -177.94092 
L 516.360291 -180.722304 
L 518.026374 -183.503689 
L 519.748372 -186.285073 
L 521.518126 -189.066458 
L 523.327461 -191.847842 
L 525.168236 -194.629226 
L 527.032395 -197.410611 
L 528.912014 -200.191995 
L 530.799343 -202.973379 
L 532.686846 -205.754764 
L 534.567235 -208.536148 
L 536.433504 -211.317532 
L 538.278955 -214.098917 
L 540.097224 -216.880301 
L 541.882305 -219.661685 
L 543.628562 -222.44307 
L 545.330754 -225.224454 
L 546.984039 -228.005838 
L 548.583996 -230.787223 
L 550.126623 -233.568607 
L 551.608353 -236.349992 
L 553.026057 -239.131376 
L 554.377046 -241.91276 
L 555.659078 -244.694145 
L 556.870357 -247.475529 
L 558.009529 -250.256913 
L 559.07569 -253.038298 
L 560.068373 -255.819682 
L 560.987549 -258.601066 
L 561.833618 -261.382451 
L 562.607402 -264.163835 
L 563.310133 -266.945219 
L 563.943443 -269.726604 
L 564.509344 -272.507988 
L 565.010218 -275.289373 
L 565.44879 -278.070757 
L 565.828109 -280.852141 
L 566.151525 -283.633526 
L 566.422659 -286.41491 
L 566.645374 -289.196294 
L 566.823743 -291.977679 
L 566.962014 -294.759063 
L 567.064577 -297.540447 
L 567.135925 -300.321832 
L 567.180613 -303.103216 
L 567.203224 -305.8846 
L 567.208323 -308.665985 
L 567.200422 -311.447369 
L 567.183938 -314.228753 
L 567.163155 -317.010138 
L 567.142189 -319.791522 
L 567.124951 -322.572907 
L 567.115115 -325.354291 
L 567.116087 -328.135675 
L 567.130982 -330.91706 
L 567.162598 -333.698444 
L 567.213396 -336.479828 
L 567.28549 -339.261213 
L 567.380632 -342.042597 
L 597.221868 -342.042597 
L 597.221868 -342.042597 
L 597.31701 -339.261213 
L 597.389104 -336.479828 
L 597.439902 -333.698444 
L 597.471518 -330.91706 
L 597.486413 -328.135675 
L 597.487385 -325.354291 
L 597.477549 -322.572907 
L 597.460311 -319.791522 
L 597.439345 -317.010138 
L 597.418562 -314.228753 
L 597.402078 -311.447369 
L 597.394177 -308.665985 
L 597.399276 -305.8846 
L 597.421887 -303.103216 
L 597.466575 -300.321832 
L 597.537923 -297.540447 
L 597.640486 -294.759063 
L 597.778757 -291.977679 
L 597.957126 -289.196294 
L 598.179841 -286.41491 
L 598.450975 -283.633526 
L 598.774391 -280.852141 
L 599.15371 -278.070757 
L 599.592282 -275.289373 
L 600.093156 -272.507988 
L 600.659057 -269.726604 
L 601.292367 -266.945219 
L 601.995098 -264.163835 
L 602.768882 -261.382451 
L 603.614951 -258.601066 
L 604.534127 -255.819682 
L 605.52681 -253.038298 
L 606.592971 -250.256913 
L 607.732143 -247.475529 
L 608.943422 -244.694145 
L 610.225454 -241.91276 
L 611.576443 -239.131376 
L 612.994147 -236.349992 
L 614.475877 -233.568607 
L 616.018504 -230.787223 
L 617.618461 -228.005838 
L 619.271746 -225.224454 
L 620.973938 -222.44307 
L 622.720195 -219.661685 
L 624.505276 -216.880301 
L 626.323545 -214.098917 
L 628.168996 -211.317532 
L 630.035265 -208.536148 
L 631.915654 -205.754764 
L 633.803157 -202.973379 
L 635.690486 -200.191995 
L 637.570105 -197.410611 
L 639.434264 -194.629226 
L 641.275039 -191.847842 
L 643.084374 -189.066458 
L 644.854128 -186.285073 
L 646.576126 -183.503689 
L 648.242209 -180.722304 
L 649.844293 -177.94092 
L 651.374426 -175.159536 
L 652.824849 -172.378151 
L 654.188052 -169.596767 
L 655.456844 -166.815383 
L 656.624408 -164.033998 
L 657.684361 -161.252614 
L 658.630815 -158.47123 
L 659.45843 -155.689845 
L 660.162464 -152.908461 
L 660.738824 -150.127077 
L 661.1841 -147.345692 
L 661.495608 -144.564308 
L 661.67141 -141.782923 
L 661.710341 -139.001539 
L 661.612018 -136.220155 
L 661.376846 -133.43877 
L 661.006015 -130.657386 
L 660.501486 -127.876002 
L 659.865974 -125.094617 
L 659.102916 -122.313233 
L 658.216439 -119.531849 
L 657.211316 -116.750464 
L 656.092915 -113.96908 
L 654.867151 -111.187696 
L 653.540418 -108.406311 
L 652.119535 -105.624927 
L 650.611675 -102.843542 
L 649.024297 -100.062158 
L 647.365083 -97.280774 
L 645.641865 -94.499389 
L 643.86256 -91.718005 
L 642.035104 -88.936621 
L 640.167394 -86.155236 
L 638.267223 -83.373852 
L 636.34223 -80.592468 
L 634.399847 -77.811083 
L 632.447258 -75.029699 
L 630.491357 -72.248315 
L 628.538713 -69.46693 
L 626.595544 -66.685546 
z
" style="stroke: #c2410c; stroke-opacity: 0.35"/>
    </defs>
    <g clip-path="url(#pc507c4131b)">
     <use xlink:href="#med48da8efc" x="0" y="391.52407" style="fill: #c2410c; fill-opacity: 0.35; stroke: #c2410c; stroke-opacity: 0.35"/>
    </g>
   </g>
   <g id="LineCollection_3">
    <path d="M 542.596705 253.175032 
L 622.005795 253.175032 
" clip-path="url(#pc507c4131b)" style="fill: none; stroke: #c2410c; stroke-width: 1.5"/>
   </g>
   <g id="patch_13">
    <path d="M 494.95125 338.606376 
L 494.95125 35.71362 
" style="fill: none; stroke: #000000; stroke-width: 0.8; stroke-linejoin: miter; stroke-linecap: square"/>
   </g>
   <g id="patch_14">
    <path d="M 669.65125 338.606376 
L 669.65125 35.71362 
" style="fill: none; stroke: #000000; stroke-width: 0.8; stroke-linejoin: miter; stroke-linecap: square"/>
   </g>
   <g id="patch_15">
    <path d="M 494.95125 338.606376 
L 669.65125 338.606376 
" style="fill: none; stroke: #000000; stroke-width: 0.8; stroke-linejoin: miter; stroke-linecap: square"/>
   </g>
   <g id="patch_16">
    <path d="M 494.95125 35.71362 
L 669.65125 35.71362 
" style="fill: none; stroke: #000000; stroke-width: 0.8; stroke-linejoin: miter; stroke-linecap: square"/>
   </g>
  </g>
  <g id="text_23">
   <!-- Autism spectrum condition (ASC) (female) -->
   <g transform="translate(190.509531 17.837812) scale(0.14 -0.14)">
    <defs>
     <path id="DejaVuSans-41" d="M 2188 4044 
L 1331 1722 
L 3047 1722 
L 2188 4044 
z
M 1831 4666 
L 2547 4666 
L 4325 0 
L 3669 0 
L 3244 1197 
L 1141 1197 
L 716 0 
L 50 0 
L 1831 4666 
z
" transform="scale(0.015625)"/>
     <path id="DejaVuSans-28" d="M 1984 4856 
Q 1566 4138 1362 3434 
Q 1159 2731 1159 2009 
Q 1159 1288 1364 580 
Q 1569 -128 1984 -844 
L 1484 -844 
Q 1016 -109 783 600 
Q 550 1309 550 2009 
Q 550 2706 781 3412 
Q 1013 4119 1484 4856 
L 1984 4856 
z
" transform="scale(0.015625)"/>
     <path id="DejaVuSans-43" d="M 4122 4306 
L 4122 3641 
Q 3803 3938 3442 4084 
Q 3081 4231 2675 4231 
Q 1875 4231 1450 3742 
Q 1025 3253 1025 2328 
Q 1025 1406 1450 917 
Q 1875 428 2675 428 
Q 3081 428 3442 575 
Q 3803 722 4122 1019 
L 4122 359 
Q 3791 134 3420 21 
Q 3050 -91 2638 -91 
Q 1578 -91 968 557 
Q 359 1206 359 2328 
Q 359 3453 968 4101 
Q 1578 4750 2638 4750 
Q 3056 4750 3426 4639 
Q 3797 4528 4122 4306 
z
" transform="scale(0.015625)"/>
     <path id="DejaVuSans-29" d="M 513 4856 
L 1013 4856 
Q 1481 4119 1714 3412 
Q 1947 2706 1947 2009 
Q 1947 1309 1714 600 
Q 1481 -109 1013 -844 
L 513 -844 
Q 928 -128 1133 580 
Q 1338 1288 1338 2009 
Q 1338 2731 1133 3434 
Q 928 4138 513 4856 
z
" transform="scale(0.015625)"/>
     <path id="DejaVuSans-66" d="M 2375 4863 
L 2375 4384 
L 1825 4384 
Q 1516 4384 1395 4259 
Q 1275 4134 1275 3809 
L 1275 3500 
L 2222 3500 
L 2222 3053 
L 1275 3053 
L 1275 0 
L 697 0 
L 697 3053 
L 147 3053 
L 147 3500 
L 697 3500 
L 697 3744 
Q 697 4328 969 4595 
Q 1241 4863 1831 4863 
L 2375 4863 
z
" transform="scale(0.015625)"/>
    </defs>
    <use xlink:href="#DejaVuSans-41"/>
    <use xlink:href="#DejaVuSans-75" transform="translate(68.408203 0)"/>
    <use xlink:href="#DejaVuSans-74" transform="translate(131.787109 0)"/>
    <use xlink:href="#DejaVuSans-69" transform="translate(170.996094 0)"/>
    <use xlink:href="#DejaVuSans-73" transform="translate(198.779297 0)"/>
    <use xlink:href="#DejaVuSans-6d" transform="translate(250.878906 0)"/>
    <use xlink:href="#DejaVuSans-20" transform="translate(348.291016 0)"/>
    <use xlink:href="#DejaVuSans-73" transform="translate(380.078125 0)"/>
    <use xlink:href="#DejaVuSans-70" transform="translate(432.177734 0)"/>
    <use xlink:href="#DejaVuSans-65" transform="translate(495.654297 0)"/>
    <use xlink:href="#DejaVuSans-63" transform="translate(557.177734 0)"/>
    <use xlink:href="#DejaVuSans-74" transform="translate(612.158203 0)"/>
    <use xlink:href="#DejaVuSans-72" transform="translate(651.367188 0)"/>
    <use xlink:href="#DejaVuSans-75" transform="translate(692.480469 0)"/>
    <use xlink:href="#DejaVuSans-6d" transform="translate(755.859375 0)"/>
    <use xlink:href="#DejaVuSans-20" transform="translate(853.271484 0)"/>
    <use xlink:href="#DejaVuSans-63" transform="translate(885.058594 0)"/>
    <use xlink:href="#DejaVuSans-6f" transform="translate(940.039062 0)"/>
    <use xlink:href="#DejaVuSans-6e" transform="translate(1001.220703 0)"/>
    <use xlink:href="#DejaVuSans-64" transform="translate(1064.599609 0)"/>
    <use xlink:href="#DejaVuSans-69" transform="translate(1128.076172 0)"/>
    <use xlink:href="#DejaVuSans-74" transform="translate(1155.859375 0)"/>
    <use xlink:href="#DejaVuSans-69" transform="translate(1195.068359 0)"/>
    <use xlink:href="#DejaVuSans-6f" transform="translate(1222.851562 0)"/>
    <use xlink:href="#DejaVuSans-6e" transform="translate(1284.033203 0)"/>
    <use xlink:href="#DejaVuSans-20" transform="translate(1347.412109 0)"/>
    <use xlink:href="#DejaVuSans-28" transform="translate(1379.199219 0)"/>
    <use xlink:href="#DejaVuSans-41" transform="translate(1418.212891 0)"/>
    <use xlink:href="#DejaVuSans-53" transform="translate(1486.621094 0)"/>
    <use xlink:href="#DejaVuSans-43" transform="translate(1550.097656 0)"/>
    <use xlink:href="#DejaVuSans-29" transform="translate(1619.921875 0)"/>
    <use xlink:href="#DejaVuSans-20" transform="translate(1658.935547 0)"/>
    <use xlink:href="#DejaVuSans-28" transform="translate(1690.722656 0)"/>
    <use xlink:href="#DejaVuSans-66" transform="translate(1729.736328 0)"/>
    <use xlink:href="#DejaVuSans-65" transform="translate(1764.941406 0)"/>
    <use xlink:href="#DejaVuSans-6d" transform="translate(1826.464844 0)"/>
    <use xlink:href="#DejaVuSans-61" transform="translate(1923.876953 0)"/>
    <use xlink:href="#DejaVuSans-6c" transform="translate(1985.15625 0)"/>
    <use xlink:href="#DejaVuSans-65" transform="translate(2012.939453 0)"/>
    <use xlink:href="#DejaVuSans-29" transform="translate(2074.462891 0)"/>
   </g>
  </g>
 </g>
 <defs>
  <clipPath id="pd5a0f7d0f4">
   <rect x="43.81125" y="35.71362" width="174.7" height="302.892756"/>
  </clipPath>
  <clipPath id="p82da411a20">
   <rect x="269.38125" y="35.71362" width="174.7" height="302.892756"/>
  </clipPath>
  <clipPath id="pc507c4131b">
   <rect x="494.95125" y="35.71362" width="174.7" height="302.892756"/>
  </clipPath>
 </defs>
</svg>
